<?xml version="1.0" encoding="UTF-8" standalone="no"?>
<svg xmlns="http://www.w3.org/2000/svg"
   viewBox="0 0 10 10"
   height="10"
   width="10">
   
   
  <path 
     d="M 8.47,3.37 H 1.49 M 8.47,5.29 H 1.49 M 8.47,7.2 H 1.49 m 0,-5.78 H 8.47 V 9.14 H 1.49 Z"
     class="fill-light-grey"  />
  <path 
     d="m 7.45,7.65 h 0.3 V 8.66 H 7.45 Z M 3,8.25 c -0.135,0 -0.128,-0.2 0,-0.2 0.128,0 0.135,0.2 0,0.2 z m -0.75,0 c -0.135,0 -0.128,-0.2 0,-0.2 0.128,0 0.135,0.2 0,0.2 z M 6.7,7.65 H 7 V 8.66 H 6.7 Z m 0.75,-2 h 0.3 V 6.66 H 7.45 Z M 3,6.25 c -0.135,0 -0.128,-0.2 0,-0.2 0.128,0 0.135,0.2 0,0.2 z m -0.75,0 c -0.135,0 -0.128,-0.2 0,-0.2 0.128,0 0.135,0.2 0,0.2 z M 6.7,5.65 H 7 V 6.66 H 6.7 Z M 7.45,3.9 h 0.3 V 4.91 H 7.45 Z M 3,4.5 c -0.135,0 -0.128,-0.2 0,-0.2 0.128,0 0.135,0.2 0,0.2 z m -0.75,0 c -0.135,0 -0.128,-0.2 0,-0.2 0.128,0 0.135,0.2 0,0.2 z M 6.7,3.9 H 7 V 4.91 H 6.7 Z m 0.75,-2 h 0.3 V 2.91 H 7.45 Z M 3,2.5 c -0.135,0 -0.128,-0.2 0,-0.2 0.128,0 0.135,0.2 0,0.2 z m -0.75,0 c -0.135,0 -0.128,-0.2 0,-0.2 0.128,0 0.135,0.2 0,0.2 z M 6.7,1.9 H 7 V 2.91 H 6.7 Z"
     class="fill-blue" />
  <path
     d="m 2.8,0.345 c -0.1,0 -0.14,0.02 -0.2,0.05 L 1.29,0.982 C 1.12,1.06 1.01,1.23 1.01,1.42 v 7.72 c 0,0.26 0.22,0.47 0.48,0.47 H 8.47 C 8.73,9.6 8.93,9.4 8.94,9.14 V 1.42 C 8.93,1.21 8.77,1.1 8.58,0.982 L 7.33,0.392 C 7.27,0.361 7.2,0.344 7.13,0.342 Z"
     class="icon-virt-dash" />
  <path
     class="fill-dark-grey"
     d="M 8.47,1.44 H 1.49 m 0,0 L 2.8,0.829 H 7.13 L 8.47,1.42 Z"
       />
  <path
     class="stroke-shade"
     d="M 8.47,3.37 H 1.49 M 8.47,5.29 H 1.49 M 8.47,7.2 H 1.49 M 8.47,9.14 H 1.49 Z"
       />
</svg>
