<?xml version="1.0" encoding="UTF-8" standalone="no"?>
<svg
   xmlns:dc="http://purl.org/dc/elements/1.1/"
   xmlns:cc="http://creativecommons.org/ns#"
   xmlns:rdf="http://www.w3.org/1999/02/22-rdf-syntax-ns#"
   xmlns:svg="http://www.w3.org/2000/svg"
   xmlns="http://www.w3.org/2000/svg"
   width="133.744"
   height="101.077"
   viewBox="0 0 100.308002 75.808"
   version="1.1"
   id="svg4">
  <metadata
     id="metadata10">
    <rdf:rdf>
      <cc:work
         rdf:about="">
        <dc:format>image/svg+xml</dc:format>
        <dc:type
           rdf:resource="http://purl.org/dc/dcmitype/StillImage" />
        <dc:title />
      </cc:work>
    </rdf:rdf>
    <rdf:RDF>
      <cc:Work
         rdf:about="">
        <dc:format>image/svg+xml</dc:format>
        <dc:type
           rdf:resource="http://purl.org/dc/dcmitype/StillImage" />
        <dc:title></dc:title>
      </cc:Work>
    </rdf:RDF>
  </metadata>
  <defs
     id="defs8" />
  <g
     style="display:inline;opacity:1"
     id="g7968">
    <path
       style="fill:#5e6a71;stroke-width:0.998"
       d="m 12.9,14.7 3.03,0 -0,-2.7 28.61,0 5.62,3.86 3.88,-3.64 29.99,-0.14 -0.1,2.63 3.39,-0 c 0,0 0.7,0.8 0.7,1.8 v 43.9 c 0,1 -0.7,1.8 -1.5,1.8 H 55.1 v 0 c -0.26,0 -0.52,0.11 -0.7,0.3 0,0 -1.6,1.4 -4.4,1.4 -2.4,0 -3.9,-1 -4.3,-1.3 C 45.54,62.36 45.28,62.22 45,62.2 H 13.7 c -1,0 -1.81,-0.8 -1.8,-1.8 V 16.5 c 0,-1 0.5,-1.8 1,-1.8 z"
       id="path8004" />
    <path
       class="shade"
       style="fill:#a4b0bf;fill-opacity:1"
       d="M 13.94,13.1 H 43.4 c 4.38,0 6.32,1.05 6.73,2.77 1.04,-1.67 2.82,-2.81 6.21,-2.77 h 29.54 v 47.57 l -30,0.1 c -3.25,2.17 -6.61,3.02 -10.3,0 H 13.94 Z"
       id="rect8118" />
    <path
       style="fill:#efefef;stroke-width:0.998;fill-opacity:1"
       d="m 15.9,12 h 20.88 8.62 c 3.1,0 3.7,1.8 3.7,1.9 v 0.2 c 0.1,0 0.1,0 0.1,0.1 0,0 0,0.1 0.1,0.1 v 45.5 c -0.8,-0.6 -2,-1.2 -3.9,-1.2 H 30.26 15.9 Z"
       id="path8008" />
    <path
       style="fill:#e5e5e5;stroke-width:0.998"
       d="M 54.5,12.09 H 84 V 41.52 C 83.7,42.12 64.84,58.48 63.77,58.79 H 54.5 c -1.8,0 -3,0.5 -3.8,1.1 v -45.5 0 c 0,-1.66 2.27,-2.26 3.8,-2.3 z"
       id="path8006" />
    <path
       class="shade"
       id="path8121"
       d="M 67.65,12.09 H 84 v 29.43 c -0.3,0.6 -19.16,16.96 -20.23,17.27 h -2.7 z"
       style="fill:#f3f3f3;fill-opacity:1;stroke-width:0.998" />
    <path
       class="shade"
       d="m 58.4,43.69 c -3,0 -4.1,0.8 -4.2,0.9 a 0.439,0.439 0 1 0 0.3,0.8 c 0.1,0 0.1,0 0.2,-0.2 0,0 1,-0.6 3.7,-0.6 h 21.4 a 0.426,0.426 0 0 0 0.3,-0.4 c 0,-0.2 0,-0.5 -0.3,-0.5 z m 0,4.5 c -3,0 -4.1,0.9 -4.2,0.9 a 0.432,0.432 0 0 0 -0.1,0.6 0.435,0.435 0 0 0 0.6,0.1 c 0,0 1,-0.7 3.7,-0.7 h 21.4 a 0.426,0.426 0 0 0 0.3,-0.3 c 0,-0.3 0,-0.6 -0.3,-0.6 z m 0,4.6 c -3,0 -4.1,0.8 -4.2,0.8 a 0.432,0.432 0 0 0 -0.1,0.6 0.435,0.435 0 0 0 0.6,0.1 c 0,0 1,-0.6 3.7,-0.6 h 21.4 a 0.429,0.429 0 0 0 0.3,-0.4 0.429,0.429 0 0 0 -0.3,-0.5 z m 0,-36.19 c -3,0 -4.1,0.7 -4.2,0.8 a 0.4301,0.4301 0 1 0 0.5,0.7 c 0,0 1,-0.7 3.7,-0.7 H 79.8 A 0.429,0.429 0 0 0 80.1,17 0.429,0.429 0 0 0 79.8,16.6 Z m 0,4.5 c -3,0 -4.1,0.7 -4.2,0.8 a 0.439,0.439 0 0 0 0.3,0.8 0.474,0.474 0 0 0 0.2,-0.1 c 0,0 1,-0.6 3.7,-0.6 h 21.4 a 0.426,0.426 0 0 0 0.3,-0.5 c 0,-0.2 0,-0.4 -0.3,-0.4 z m 0,4.5 c -3,0 -4.1,0.8 -4.2,0.9 a 0.432,0.432 0 0 0 -0.1,0.6 0.43,0.43 0 0 0 0.6,0 c 0,0 1,-0.6 3.7,-0.6 h 21.4 a 0.45,0.45 0 1 0 0,-0.9 z m 0,4.5 c -3,0 -4.1,0.8 -4.2,0.9 a 0.439,0.439 0 1 0 0.3,0.8 c 0.1,0 0.1,0 0.2,-0.2 0,0 1,-0.6 3.7,-0.6 h 21.4 a 0.426,0.426 0 0 0 0.3,-0.4 c 0,-0.2 0,-0.5 -0.3,-0.5 z m 0,4.5 c -3,0 -4.1,0.9 -4.2,0.9 a 0.432,0.432 0 0 0 -0.1,0.6 0.435,0.435 0 0 0 0.6,0.1 c 0,0 1,-0.7 3.7,-0.7 h 21.4 a 0.426,0.426 0 0 0 0.3,-0.3 c 0,-0.3 0,-0.6 -0.3,-0.6 z m 0,4.6 c -3,0 -4.1,0.8 -4.2,0.8 a 0.432,0.432 0 0 0 -0.1,0.6 0.435,0.435 0 0 0 0.6,0.1 c 0,0 1,-0.6 3.7,-0.6 h 21.4 a 0.429,0.429 0 0 0 0.3,-0.4 0.429,0.429 0 0 0 -0.3,-0.5 z M 19.9,52.8 a 0.43,0.43 0 0 0 -0.5,0.5 c 0,0.2 0.3,0.4 0.5,0.4 h 21.3 c 2.7,0 3.7,0.6 3.7,0.7 a 0.449,0.449 0 0 0 0.2,0 0.439,0.439 0 0 0 0.3,-0.8 c -0.1,0 -1.2,-0.8 -4.2,-0.8 z m 0,-4.5 a 0.45,0.45 0 1 0 0,0.9 h 21.3 c 2.7,0 3.7,0.6 3.7,0.6 a 0.43,0.43 0 0 0 0.6,-0.1 0.429,0.429 0 0 0 -0.1,-0.6 C 45.3,49 44.2,48.3 41.2,48.3 Z m 0,-4.6 a 0.434,0.434 0 0 0 -0.5,0.5 c 0,0.3 0.3,0.4 0.5,0.4 h 21.3 c 2.7,0 3.7,0.6 3.7,0.7 a 0.4301,0.4301 0 0 0 0.5,-0.7 c -0.1,-0.1 -1.2,-0.9 -4.2,-0.9 z m 0,-4.5 a 0.45,0.45 0 1 0 0,0.9 h 21.3 c 2.7,0 3.7,0.6 3.7,0.6 A 0.432,0.432 0 1 0 45.4,40 c -0.1,0 -1.2,-0.8 -4.2,-0.8 z m 0,-4.6 a 0.45,0.45 0 1 0 0,0.9 h 21.3 c 2.7,0 3.7,0.7 3.7,0.7 a 0.432,0.432 0 0 0 0.5,-0.7 c -0.1,0 -1.2,-0.9 -4.2,-0.9 z m 0,-4.5 a 0.45,0.45 0 1 0 0,0.9 h 21.3 c 2.7,0 3.7,0.6 3.7,0.6 0.1,0.2 0.2,0.2 0.2,0.2 0.2,0 0.3,-0.2 0.4,-0.2 A 0.436,0.436 0 0 0 45.4,31 c -0.1,-0.1 -1.2,-0.9 -4.2,-0.9 z m 0,-4.5 a 0.45,0.45 0 1 0 0,0.9 h 21.3 c 2.7,0 3.7,0.6 3.7,0.6 a 0.449,0.449 0 0 0 0.2,0.2 c 0.2,0 0.3,-0.2 0.4,-0.2 a 0.431,0.431 0 0 0 -0.1,-0.6 c -0.1,-0.1 -1.2,-0.9 -4.2,-0.9 z m 0,-4.5 a 0.45,0.45 0 1 0 0,0.9 h 21.3 c 2.7,0 3.7,0.6 3.7,0.6 0.1,0.1 0.2,0.1 0.2,0.1 a 0.439,0.439 0 0 0 0.3,-0.8 c -0.1,-0.1 -1.2,-0.8 -4.2,-0.8 z m 0,-4.5 a 0.436,0.436 0 1 0 0,0.8 h 21.3 c 2.7,0 3.7,0.7 3.7,0.7 A 0.429,0.429 0 0 0 45.5,18 0.439,0.439 0 0 0 45.4,17.4 c -0.1,-0.1 -1.2,-0.8 -4.2,-0.8 z"
       style="fill:#ffffff;stroke-width:0.998"
       id="path8096" />
    <path
       style="fill:#dce0e2;stroke-width:0.998;fill-opacity:1"
       d="m 83.87,41.35 v 17.4 h -20.3 a 9.15,9.15 0 0 0 1.3,-1 l 18.1,-15.5 a 8.03,8.03 0 0 0 0.9,-0.9 z"
       id="path7978" />
    <path
       id="path8099"
       d="m 60.6,58.7 c 6.96,-2.06 7.72,-9.64 8.4,-15.1 4.67,-0.29 9.32,0.65 15,-4.8 -5.46,8.56 -15.2,18.67 -23.4,19.9 z"
       style="fill:#cccccc;stroke-width:0.998" />
    <path
       class="shade"
       id="path8109"
       d="m 36.78,12 h 8.62 c 1.77,-0.25 3.89,1.04 3.9,2.3 v 45.5 c -0.8,-0.6 -2,-1.2 -3.9,-1.2 H 30.26 Z"
       style="fill:#6f6f6f;stroke-width:0.998;fill-opacity:0.1771" />
  </g>
</svg>
