<?xml version="1.0"?>

<svg xmlns:dc="http://purl.org/dc/elements/1.1/" xmlns:cc="http://creativecommons.org/ns#" xmlns:rdf="http://www.w3.org/1999/02/22-rdf-syntax-ns#" xmlns:svg="http://www.w3.org/2000/svg" xmlns="http://www.w3.org/2000/svg" id="svg4" version="1.1" viewBox="0 0 100.308002 75.808" height="101.077" width="133.744">
  <metadata id="metadata10">
    <rdf:rdf>
      <cc:work rdf:about="">
        <dc:format>image/svg+xml</dc:format>
        <dc:type rdf:resource="http://purl.org/dc/dcmitype/StillImage"></dc:type>
        <dc:title></dc:title>
      </cc:work>
    </rdf:rdf>
  </metadata>
  <defs id="defs8"></defs>
  <g id="g7968" style="display:inline;opacity:1">
    <path id="rect8118" d="M 13.94,13.1 H 43.4 c 4.38,0 6.32,1.05 6.73,2.77 1.04,-1.67 2.82,-2.81 6.21,-2.77 h 29.54 v 47.57 l -30,0.1 c -3.25,2.17 -6.61,3.02 -10.3,0 H 13.94 Z" style="fill:#a4b0bf;fill-opacity:1"></path>
    <path id="path8008" d="m 15.9,12 h 20.88 8.62 c 3.1,0 3.7,1.8 3.7,1.9 v 0.2 c 0.1,0 0.1,0 0.1,0.1 0,0 0,0.1 0.1,0.1 v 45.5 c -0.8,-0.6 -2,-1.2 -3.9,-1.2 H 30.26 15.9 Z" style="fill:#efefef;stroke-width:0.998;fill-opacity:1"></path>
    <path id="path8006" d="M 54.5,12.09 H 84 V 41.52 C 83.7,42.12 64.84,58.48 63.77,58.79 H 54.5 c -1.8,0 -3,0.5 -3.8,1.1 v -45.5 0 c 0,-1.66 2.27,-2.26 3.8,-2.3 z" style="fill:#e5e5e5;stroke-width:0.998"></path>
    <path style="fill:#f3f3f3;stroke-width:0.998;fill-opacity:1" d="m 67.65,12.09 16.35,0 v 29.43 c -0.3,0.6 -19.16,16.96 -20.23,17.27 h -2.7 z" id="path8121"></path>
    <path id="path8004" d="m 12.9,14.7 h 1.2 v 44.9 c 0,0.5 0.4,0.9 0.9,0.9 h 30.4 c 1.4,0 2.4,0.4 3.1,1.1 0.2,0.2 0.6,0.5 1.5,0.5 0.8,0 1.3,-0.3 1.4,-0.5 0.7,-0.7 1.8,-1.1 3.1,-1.1 H 85 a 0.93,0.93 0 0 0 0.8,-0.9 V 14.7 h 1.5 c 0,0 0.7,0.8 0.7,1.8 v 43.9 c 0,1 -0.7,1.8 -1.5,1.8 H 55.1 c 0,0 0,0 0,0 a 0.953,0.953 0 0 0 -0.7,0.3 c 0,0 -1.6,1.4 -4.4,1.4 -2.4,0 -3.9,-1 -4.3,-1.3 A 0.908,0.908 0 0 0 45,62.2 H 13.7 A 1.79,1.79 0 0 1 11.9,60.4 V 16.5 c 0,-1 0.5,-1.8 1,-1.8 z" style="fill:#5e6a71;stroke-width:0.998"></path>
    <path style="fill:#dcdcdc;stroke-width:0.998" d="m 36.78,12 h 8.62 c 1.77,-0.25 3.89,1.04 3.9,2.3 v 45.5 c -0.8,-0.6 -2,-1.2 -3.9,-1.2 H 30.26 Z" id="path8109"></path>
    <path d="m 19.9,52.8 a 0.43,0.43 0 0 0 -0.5,0.5 c 0,0.2 0.3,0.4 0.5,0.4 h 21.3 c 2.7,0 3.7,0.6 3.7,0.7 a 0.449,0.449 0 0 0 0.2,0 0.439,0.439 0 0 0 0.3,-0.8 c -0.1,0 -1.2,-0.8 -4.2,-0.8 z m 0,-4.5 a 0.45,0.45 0 1 0 0,0.9 h 21.3 c 2.7,0 3.7,0.6 3.7,0.6 a 0.43,0.43 0 0 0 0.6,-0.1 0.429,0.429 0 0 0 -0.1,-0.6 C 45.3,49 44.2,48.3 41.2,48.3 Z m 0,-4.6 a 0.434,0.434 0 0 0 -0.5,0.5 c 0,0.3 0.3,0.4 0.5,0.4 h 21.3 c 2.7,0 3.7,0.6 3.7,0.7 a 0.4301,0.4301 0 0 0 0.5,-0.7 c -0.1,-0.1 -1.2,-0.9 -4.2,-0.9 z m 0,-4.5 a 0.45,0.45 0 1 0 0,0.9 h 21.3 c 2.7,0 3.7,0.6 3.7,0.6 A 0.432,0.432 0 1 0 45.4,40 c -0.1,0 -1.2,-0.8 -4.2,-0.8 z m 0,-4.6 a 0.45,0.45 0 1 0 0,0.9 h 21.3 c 2.7,0 3.7,0.7 3.7,0.7 a 0.432,0.432 0 0 0 0.5,-0.7 c -0.1,0 -1.2,-0.9 -4.2,-0.9 z m 0,-4.5 a 0.45,0.45 0 1 0 0,0.9 h 21.3 c 2.7,0 3.7,0.6 3.7,0.6 0.1,0.2 0.2,0.2 0.2,0.2 0.2,0 0.3,-0.2 0.4,-0.2 A 0.436,0.436 0 0 0 45.4,31 c -0.1,-0.1 -1.2,-0.9 -4.2,-0.9 z m 0,-4.5 a 0.45,0.45 0 1 0 0,0.9 h 21.3 c 2.7,0 3.7,0.6 3.7,0.6 a 0.449,0.449 0 0 0 0.2,0.2 c 0.2,0 0.3,-0.2 0.4,-0.2 a 0.431,0.431 0 0 0 -0.1,-0.6 c -0.1,-0.1 -1.2,-0.9 -4.2,-0.9 z m 0,-4.5 a 0.45,0.45 0 1 0 0,0.9 h 21.3 c 2.7,0 3.7,0.6 3.7,0.6 0.1,0.1 0.2,0.1 0.2,0.1 a 0.439,0.439 0 0 0 0.3,-0.8 c -0.1,-0.1 -1.2,-0.8 -4.2,-0.8 z m 0,-4.5 a 0.436,0.436 0 1 0 0,0.8 h 21.3 c 2.7,0 3.7,0.7 3.7,0.7 A 0.429,0.429 0 0 0 45.5,18 0.439,0.439 0 0 0 45.4,17.4 c -0.1,-0.1 -1.2,-0.8 -4.2,-0.8 z" style="fill:#ffffff;stroke-width:0.998" id="path7966"></path>
    <path d="m 58.4,43.69 c -3,0 -4.1,0.8 -4.2,0.9 a 0.439,0.439 0 1 0 0.3,0.8 c 0.1,0 0.1,0 0.2,-0.2 0,0 1,-0.6 3.7,-0.6 h 21.4 a 0.426,0.426 0 0 0 0.3,-0.4 c 0,-0.2 0,-0.5 -0.3,-0.5 z m 0,4.5 c -3,0 -4.1,0.9 -4.2,0.9 a 0.432,0.432 0 0 0 -0.1,0.6 0.435,0.435 0 0 0 0.6,0.1 c 0,0 1,-0.7 3.7,-0.7 h 21.4 a 0.426,0.426 0 0 0 0.3,-0.3 c 0,-0.3 0,-0.6 -0.3,-0.6 z m 0,4.6 c -3,0 -4.1,0.8 -4.2,0.8 a 0.432,0.432 0 0 0 -0.1,0.6 0.435,0.435 0 0 0 0.6,0.1 c 0,0 1,-0.6 3.7,-0.6 h 21.4 a 0.429,0.429 0 0 0 0.3,-0.4 0.429,0.429 0 0 0 -0.3,-0.5 z m 0,-36.19 c -3,0 -4.1,0.7 -4.2,0.8 a 0.4301,0.4301 0 1 0 0.5,0.7 c 0,0 1,-0.7 3.7,-0.7 H 79.8 A 0.429,0.429 0 0 0 80.1,17 0.429,0.429 0 0 0 79.8,16.6 Z m 0,4.5 c -3,0 -4.1,0.7 -4.2,0.8 a 0.439,0.439 0 0 0 0.3,0.8 0.474,0.474 0 0 0 0.2,-0.1 c 0,0 1,-0.6 3.7,-0.6 h 21.4 a 0.426,0.426 0 0 0 0.3,-0.5 c 0,-0.2 0,-0.4 -0.3,-0.4 z m 0,4.5 c -3,0 -4.1,0.8 -4.2,0.9 a 0.432,0.432 0 0 0 -0.1,0.6 0.43,0.43 0 0 0 0.6,0 c 0,0 1,-0.6 3.7,-0.6 h 21.4 a 0.45,0.45 0 1 0 0,-0.9 z m 0,4.5 c -3,0 -4.1,0.8 -4.2,0.9 a 0.439,0.439 0 1 0 0.3,0.8 c 0.1,0 0.1,0 0.2,-0.2 0,0 1,-0.6 3.7,-0.6 h 21.4 a 0.426,0.426 0 0 0 0.3,-0.4 c 0,-0.2 0,-0.5 -0.3,-0.5 z m 0,4.5 c -3,0 -4.1,0.9 -4.2,0.9 a 0.432,0.432 0 0 0 -0.1,0.6 0.435,0.435 0 0 0 0.6,0.1 c 0,0 1,-0.7 3.7,-0.7 h 21.4 a 0.426,0.426 0 0 0 0.3,-0.3 c 0,-0.3 0,-0.6 -0.3,-0.6 z m 0,4.6 c -3,0 -4.1,0.8 -4.2,0.8 a 0.432,0.432 0 0 0 -0.1,0.6 0.435,0.435 0 0 0 0.6,0.1 c 0,0 1,-0.6 3.7,-0.6 h 21.4 a 0.429,0.429 0 0 0 0.3,-0.4 0.429,0.429 0 0 0 -0.3,-0.5 z" style="fill:#ffffff;stroke-width:0.998" id="path8096"></path>
    <path id="path7978" d="m 83.87,41.35 v 17.4 h -20.3 a 9.15,9.15 0 0 0 1.3,-1 l 18.1,-15.5 a 8.03,8.03 0 0 0 0.9,-0.9 z" style="fill:#dce0e2;stroke-width:0.998;fill-opacity:1"></path>
    <path style="fill:#cccccc;stroke-width:0.998" d="m 60.6,58.7 c 6.96,-2.06 7.72,-9.64 8.4,-15.1 4.67,-0.29 9.32,0.65 15,-4.8 -5.46,8.56 -15.2,18.67 -23.4,19.9 z" id="path8099"></path>
    <path id="path8111" transform="matrix(0.75,0,0,0.75,-1.639e-4,0)" d="M 48.18 22.13 L 48.03 23.2 L 54.93 23.2 C 58.53 23.2 59.87 24.13 59.87 24.13 A 0.572 0.572 0 0 0 60.67 24 A 0.5853 0.5853 0 0 0 60.53 23.2 C 60.4 23.07 58.93 22.13 54.93 22.13 L 48.18 22.13 z M 47.34 28.13 L 47.18 29.33 L 54.93 29.33 C 58.53 29.33 59.87 30.13 59.87 30.13 C 60 30.27 60.13 30.27 60.13 30.27 A 0.5853 0.5853 0 0 0 60.53 29.2 C 60.4 29.07 58.93 28.13 54.93 28.13 L 47.34 28.13 z M 46.5 34.13 L 46.34 35.33 L 54.93 35.33 C 58.53 35.33 59.87 36.13 59.87 36.13 A 0.5987 0.5987 0 0 0 60.13 36.4 C 60.4 36.4 60.53 36.13 60.67 36.13 A 0.5747 0.5747 0 0 0 60.53 35.33 C 60.4 35.2 58.93 34.13 54.93 34.13 L 46.5 34.13 z M 45.66 40.13 L 45.5 41.33 L 54.93 41.33 C 58.53 41.33 59.87 42.13 59.87 42.13 C 60 42.4 60.13 42.4 60.13 42.4 C 60.4 42.4 60.53 42.13 60.67 42.13 A 0.5813 0.5813 0 0 0 60.53 41.33 C 60.4 41.2 58.93 40.13 54.93 40.13 L 45.66 40.13 z M 44.82 46.13 L 44.66 47.33 L 54.93 47.33 C 58.53 47.33 59.87 48.27 59.87 48.27 A 0.576 0.576 0 0 0 60.53 47.33 C 60.4 47.33 58.93 46.13 54.93 46.13 L 44.82 46.13 z M 43.97 52.27 L 43.8 53.47 L 54.93 53.47 C 58.53 53.47 59.87 54.27 59.87 54.27 A 0.576 0.576 0 1 0 60.53 53.33 C 60.4 53.33 58.93 52.27 54.93 52.27 L 43.97 52.27 z M 43.13 58.27 L 42.96 59.47 L 54.93 59.47 C 58.53 59.47 59.87 60.27 59.87 60.4 A 0.5735 0.5735 0 0 0 60.53 59.47 C 60.4 59.33 58.93 58.27 54.93 58.27 L 43.13 58.27 z M 42.27 64.4 L 42.1 65.6 L 54.93 65.6 C 58.53 65.6 59.87 66.4 59.87 66.4 A 0.5733 0.5733 0 0 0 60.67 66.27 A 0.572 0.572 0 0 0 60.53 65.47 C 60.4 65.33 58.93 64.4 54.93 64.4 L 42.27 64.4 z M 41.43 70.4 L 41.26 71.6 L 54.93 71.6 C 58.53 71.6 59.87 72.4 59.87 72.53 A 0.5987 0.5987 0 0 0 60.13 72.53 A 0.5853 0.5853 0 0 0 60.53 71.47 C 60.4 71.47 58.93 70.4 54.93 70.4 L 41.43 70.4 z " style="fill:#e5e5e5;stroke-width:1.3307"></path>
  </g>
</svg>
