<?xml version="1.0" encoding="UTF-8" standalone="no"?>
<svg
   xmlns:dc="http://purl.org/dc/elements/1.1/"
   xmlns:cc="http://creativecommons.org/ns#"
   xmlns:rdf="http://www.w3.org/1999/02/22-rdf-syntax-ns#"
   xmlns:svg="http://www.w3.org/2000/svg"
   xmlns="http://www.w3.org/2000/svg"
   xmlns:sodipodi="http://sodipodi.sourceforge.net/DTD/sodipodi-0.dtd"
   xmlns:inkscape="http://www.inkscape.org/namespaces/inkscape"
   width="10"
   height="10"
   viewBox="0 0 7.5 7.499"
   version="1.1"
   id="svg4"
   sodipodi:docname="book.svg"
   inkscape:version="0.92.3 (2405546, 2018-03-11)">
  <sodipodi:namedview
     pagecolor="#ffffff"
     bordercolor="#666666"
     borderopacity="1"
     objecttolerance="10"
     gridtolerance="10"
     guidetolerance="10"
     inkscape:pageopacity="0"
     inkscape:pageshadow="2"
     inkscape:window-width="1920"
     inkscape:window-height="1025"
     id="namedview15"
     showgrid="false"
     inkscape:zoom="256"
     inkscape:cx="7.442"
     inkscape:cy="3.888"
     inkscape:window-x="0"
     inkscape:window-y="27"
     inkscape:window-maximized="1"
     inkscape:current-layer="svg4" />
  <metadata
     id="metadata10">
    <rdf:rdf>
      <cc:work
         rdf:about="">
        <dc:format>image/svg+xml</dc:format>
        <dc:type
           rdf:resource="http://purl.org/dc/dcmitype/StillImage" />
        <dc:title />
      </cc:work>
    </rdf:rdf>
    <rdf:RDF>
      <cc:Work
         rdf:about="">
        <dc:format>image/svg+xml</dc:format>
        <dc:type
           rdf:resource="http://purl.org/dc/dcmitype/StillImage" />
        <dc:title></dc:title>
      </cc:Work>
    </rdf:RDF>
  </metadata>
  <defs
     id="defs8" />
  <path
     sodipodi:nodetypes="ccccccccssscscscscc"
     inkscape:connector-curvature="0"
     id="path8004"
     d="M 0.5979,1.597 V 1.347 H 3.244 c 0.566,0.03 0.347,0.239 0.52,0.358 0.09,-0.01 0.02,-0.278 0.359,-0.337 L 6.9,1.358 v 0.243 h 0.256 c 0.07,0 0.11,0.04 0.11,0.167 v 4.06 c 0,0.09 -0.07,0.167 -0.139,0.167 H 4.221 c 0,0 -0.174,0.159 -0.477,0.159 -0.222,0 -0.437,-0.16 -0.457,-0.16 H 0.3916 c -0.093,0 -0.1674,-0.07 -0.1665,-0.166 V 1.752 c 0,-0.09 0.049,-0.155 0.1103,-0.155 z"
     class="fill-dark-slate" />
  <path
     inkscape:connector-curvature="0"
     id="rect8118"
     d="M 0.4138,1.449 H 3.139 c 0.405,0 0.585,0.1 0.622,0.256 0.1,-0.154 0.261,-0.259 0.575,-0.256 h 2.732 v 4.4 L 4.16,5.859 c -0.3,0.2 -0.478,0.279 -0.819,0 H 0.4138 Z"
     class="shade fill-slate"
     sodipodi:nodetypes="cscccccccc" />
  <path
     class="fill-dark-grey"
     sodipodi:nodetypes="ccc"
     d="m 4.8,5.624 h 2.1 l -0,-1.797"
     id="path1182"
     inkscape:connector-curvature="0" />
  <path
     inkscape:connector-curvature="0"
     id="path8006"
     d="M 4.806,5.624 H 4.172 c -0.167,0 -0.278,0.104 -0.352,0.155 v -4.208 0 c 0,-0.154 0.21,-0.209 0.352,-0.213 l -0,-0 H 6.9 v 2.471"
     sodipodi:nodetypes="csccccccc"
     class="fill-light-grey" />
  <path
     d="M 5.382,1.356 H 6.9 l -0,2.471 C 6.864,3.887 4.899,5.595 4.8,5.624 v 0 z"
     id="path1131"
     class="fill-shade"
     inkscape:connector-curvature="0"
     sodipodi:nodetypes="cccccc" />
  <path
     d="M 0.5951,1.356 H 2.527 3.324 c 0.287,0 0.342,0.167 0.342,0.176 v 0.02 0 h 0.01 V 5.769 C 3.611,5.713 3.5,5.658 3.324,5.658 H 1.923 0.5951 Z"
     id="path8121"
     class="fill-light-grey"
     inkscape:connector-curvature="0"
     sodipodi:nodetypes="ccssccccsccc" />
  <path
     inkscape:connector-curvature="0"
     d="m 2.527,1.347 h 0.797 c 0.164,-0.02 0.36,0.1 0.361,0.213 V 5.769 C 3.611,5.713 3.5,5.658 3.324,5.658 H 1.923 Z"
     id="path8109"
     class="fill-shade"
     sodipodi:nodetypes="ccccscc" />
  <path
     id="path969"
     d="m 3.375,2.062 c 0,0 -0.09,-0.188 -0.375,-0.188 H 0.9375 M 3.375,2.437 c 0,0 -0.09,-0.188 -0.375,-0.188 H 0.9375 M 3.375,2.812 c 0,0 -0.09,-0.188 -0.375,-0.188 H 0.9375 M 3.375,3.187 c 0,0 -0.09,-0.188 -0.375,-0.188 H 0.9375 M 3.375,3.562 c 0,0 -0.09,-0.188 -0.375,-0.188 H 0.9375 M 3.375,3.937 c 0,0 -0.09,-0.188 -0.375,-0.188 H 0.9375 M 3.375,5.062 c 0,0 -0.09,-0.188 -0.375,-0.188 H 0.9375 M 3.375,5.437 c 0,0 -0.09,-0.188 -0.375,-0.188 H 0.9375 M 3.375,4.312 c 0,0 -0.09,-0.188 -0.375,-0.188 H 0.9375 M 3.375,4.687 c 0,0 -0.09,-0.188 -0.375,-0.188 H 0.9375 M 4.125,2.062 c 0,0 0.09,-0.188 0.375,-0.188 H 6.562 M 4.125,2.437 c 0,0 0.09,-0.188 0.375,-0.188 H 6.562 M 4.125,2.812 c 0,0 0.09,-0.188 0.375,-0.188 H 6.562 M 4.125,3.187 c 0,0 0.09,-0.188 0.375,-0.188 H 6.562 M 4.125,3.562 c 0,0 0.09,-0.188 0.375,-0.188 H 6.562 M 4.125,3.937 c 0,0 0.09,-0.188 0.375,-0.188 H 6.562 M 4.125,5.062 c 0,0 0.09,-0.188 0.375,-0.188 h 1.125 m -1.5,0.563 c 0,0 0.09,-0.188 0.375,-0.188 H 5.437 M 4.125,4.312 c 0,0 0.09,-0.188 0.375,-0.188 H 6.562 M 4.125,4.687 c 0,0 0.09,-0.188 0.375,-0.188 H 6"
     inkscape:connector-curvature="0"
     class="stroke-shade shade"
     sodipodi:nodetypes="csccsccsccsccsccsccsccsccsccsccsccsccsccsccsccsccsccsccsccsc" />
  <path
     inkscape:connector-curvature="0"
     d="M 4.8,5.624 C 5.444,5.434 5.444,4.776 5.507,4.27 5.939,4.244 6.369,4.331 6.894,3.827 6.389,4.618 5.558,5.511 4.8,5.624 Z"
     id="path8099"
     sodipodi:nodetypes="cccc"
     class="fill-light-grey" />
</svg>
