<?xml version="1.0" encoding="UTF-8" standalone="no"?>
<svg  xmlns="http://www.w3.org/2000/svg" viewBox="0 0 10 10">
 
  <path 
     d="M 8.53,5.49 V 2.9 C 8.53,2.71 8.37,2.55 8.18,2.55 H 7.11 V 2.04 H 6.5 V 2.55 H 3.8 V 4.96 H 2.17 V 2.55 H 1.81 c -0.2,0 -0.36,0.16 -0.36,0.35 v 2.59"
     style="fill:#5e6a71;" />
  <path class="shade"  d="M 6.82,2.04 V 2.55 H 5.62 L 4.99,5.84 h 3.19 c 0.19,0 0.35,-0.16 0.35,-0.35 V 2.9 C 8.53,2.71 8.37,2.55 8.18,2.55 H 7.11 V 2.04 Z"
     style="fill:#4c575e;" />
  
  <path d="M 5.61,1.18 H 8 V 2.04 H 5.61 Z m 2.71,4.3 H 1.66 c -0.11,0 -0.18,0 -0.24,0.1 l -0,0 L 0.64,6.66 1.37,5.62 0.295,7.15 c 0,0 0,0 -0.01,0 v 0 0 0 0 0 0 0 0 0 0 0 0 1.17 c 0,0.25 0.2,0.45 0.446,0.45 H 9.25 C 9.5,8.83 9.7,8.63 9.7,8.38 v -1.15 0 0 0 0 0 0 0 0 0 0 0 L 9.51,6.9 8.58,5.56 c -0.1,0 -0.12,-0.1 -0.26,-0.1 z"
     style="fill:#a4b0bf;" />
  <path  d="m 4.42,3.097 a 0.0861,0.0861 0 0 0 -0.09,0.09 v 1.83 c 0,0.05 0.04,0.09 0.09,0.09 h 3.433 a 0.0861,0.0861 0 0 0 0.09,-0.09 v -1.83 a 0.0861,0.0861 0 0 0 -0.09,-0.09 z"
     style="fill:#a3dbe8;" />
  <path
     d="M 8.37,5.587 9.462,7.204 H 0.5098 L 1.601,5.587 M 2.254,1.529 c -0.01,0 -0.03,0 -0.04,0.01 -0.02,0.02 -0.04,0.04 -0.04,0.07 V 4.956 H 1.956 c -0.07,0 -0.07,0.11 0,0.116 h 2.047 c 0.07,-0 0.07,-0.11 0,-0.116 H 3.795 v -2.465 0 -0.877 c -10e-4,-0.02 -0.01,-0.05 -0.03,-0.06 -0,-0 -0.01,-0 -0.02,-0.01 -0.03,-0.02 -0.06,-0.02 -0.09,0 L 3.526,1.625 3.39,1.539 c -0.03,-0.02 -0.06,-0.02 -0.09,0 L 3.162,1.625 3.026,1.539 c -0.03,-0.02 -0.06,-0.02 -0.09,0 L 2.797,1.625 2.661,1.539 c -0.03,-0.02 -0.06,-0.02 -0.09,0 L 2.433,1.625 2.298,1.539 c -0.01,-0 -0.03,-0.01 -0.04,-0.01 z"
     style="fill:#cad2db; "  />
  <path
     class="shade"
     style="fill:#e1e6ea;"
     d="M 3.019,5.073 H 1.956 c -0.07,0 -0.07,-0.111 0,-0.116 h 0.208 v -2.465 0 -0.877 c 0,-0.02 0.01,-0.05 0.03,-0.06 0.01,0 0.01,-0.01 0.02,-0.01 0.03,-0.02 0.06,-0.02 0.09,0 l 0.129,0.08 0.136,-0.09 c 0.03,-0.02 0.06,-0.02 0.09,0 l 0.138,0.09 0.136,-0.09 c 0.01,-0.01 0.03,-0.01 0.04,-0.01 0.02,0 0.03,0 0.05,0.01 z"
   />
  <path
     d="m 8.175,6.609 a 0.0569,0.0569 0 0 0 -0.05,0.03 0.0565,0.0565 0 0 0 0,0.06 l 0.103,0.189 a 0.0574,0.0574 0 0 0 0.05,0.03 h 0.483 c 0.03,0 0.06,-0.03 0.06,-0.06 A 0.0554,0.0554 0 0 0 8.795,6.816 L 8.692,6.636 a 0.0587,0.0587 0 0 0 -0.06,-0.03 z m -0.805,0 a 0.0574,0.0574 0 0 0 -0.06,0.08 l 0.08,0.19 a 0.0567,0.0567 0 0 0 0.05,0.04 h 0.483 a 0.0575,0.0575 0 0 0 0.05,-0.09 L 7.876,6.641 A 0.0585,0.0585 0 0 0 7.83,6.609 Z m -0.815,0 a 0.0571,0.0571 0 0 0 -0.05,0.02 0.0566,0.0566 0 0 0 -0.01,0.05 l 0.05,0.19 a 0.0569,0.0569 0 0 0 0.06,0.04 h 0.482 a 0.0575,0.0575 0 0 0 0.05,-0.09 L 7.072,6.647 a 0.0581,0.0581 0 0 0 -0.06,-0.04 z m -0.805,0 A 0.0566,0.0566 0 0 0 5.7,6.629 0.0566,0.0566 0 0 0 5.68,6.669 l 0.04,0.192 a 0.0584,0.0584 0 0 0 0.06,0.05 h 0.471 a 0.0579,0.0579 0 0 0 0.06,-0.08 L 6.256,6.655 a 0.0577,0.0577 0 0 0 -0.06,-0.05 z m -3.046,0 c -0.02,0 -0.04,0.01 -0.05,0.04 l -0.07,0.189 a 0.0574,0.0574 0 0 0 0.05,0.08 H 3.11 A 0.0576,0.0576 0 0 0 3.16,6.878 L 3.22,6.688 A 0.0581,0.0581 0 0 0 3.208,6.633 0.0588,0.0588 0 0 0 3.162,6.609 H 2.701 Z m -0.684,0 A 0.0585,0.0585 0 0 0 1.97,6.64 l -0.1,0.189 a 0.059,0.059 0 0 0 0,0.06 c 0.01,0.02 0.03,0.03 0.05,0.03 h 0.473 c 0.02,0 0.04,-0.02 0.05,-0.04 l 0.08,-0.19 a 0.0585,0.0585 0 0 0 0,-0.05 0.0572,0.0572 0 0 0 -0.05,-0.03 h -0.45 z m -0.681,0 a 0.0579,0.0579 0 0 0 -0.05,0.03 l -0.115,0.19 a 0.0591,0.0591 0 0 0 0,0.06 0.0585,0.0585 0 0 0 0.05,0.03 h 0.475 a 0.0581,0.0581 0 0 0 0.05,-0.03 l 0.1,-0.196 a 0.0554,0.0554 0 0 0 0,-0.06 0.0566,0.0566 0 0 0 -0.05,-0.03 H 1.34 Z M 7.991,6.254 a 0.0574,0.0574 0 0 0 -0.05,0.09 l 0.09,0.189 c 0.01,0.02 0.03,0.03 0.06,0.03 h 0.448 a 0.0575,0.0575 0 0 0 0.04,-0.1 L 8.473,6.282 a 0.0579,0.0579 0 0 0 -0.04,-0.03 z m -0.758,0 a 0.0574,0.0574 0 0 0 -0.06,0.08 l 0.08,0.19 a 0.0567,0.0567 0 0 0 0.04,0.04 H 7.75 A 0.0575,0.0575 0 0 0 7.8,6.464 L 7.715,6.288 a 0.0577,0.0577 0 0 0 -0.06,-0.03 z m -0.77,0 a 0.0574,0.0574 0 0 0 -0.05,0.02 0.0577,0.0577 0 0 0 -0.01,0.05 l 0.05,0.191 a 0.0571,0.0571 0 0 0 0.06,0.04 h 0.459 c 0.02,0 0.06,-0.03 0.06,-0.06 A 0.0583,0.0583 0 0 0 7.014,6.471 L 6.945,6.293 A 0.0581,0.0581 0 0 0 6.888,6.254 H 6.451 Z m -0.77,0 a 0.0574,0.0574 0 0 0 -0.05,0.07 l 0.02,0.19 a 0.0574,0.0574 0 0 0 0.06,0.05 h 0.448 a 0.0575,0.0575 0 0 0 0.05,-0.08 L 6.187,6.3 A 0.0573,0.0573 0 0 0 6.13,6.254 Z m -2.854,0 a 0.0574,0.0574 0 0 0 -0.05,0.04 l -0.07,0.189 a 0.058,0.058 0 0 0 0.01,0.05 c 0.01,0.02 0.03,0.03 0.05,0.03 h 0.448 a 0.0575,0.0575 0 0 0 0.06,-0.04 l 0.06,-0.19 A 0.0597,0.0597 0 0 0 3.32,6.278 0.0582,0.0582 0 0 0 3.274,6.254 Z m -0.644,0 a 0.0572,0.0572 0 0 0 -0.05,0.03 l -0.1,0.192 a 0.0573,0.0573 0 0 0 0.05,0.08 h 0.448 c 0.02,0 0.04,-0.01 0.05,-0.04 l 0.08,-0.19 a 0.0572,0.0572 0 0 0 -0.05,-0.08 z m -0.642,0 a 0.0583,0.0583 0 0 0 -0.05,0.03 L 1.389,6.472 a 0.0575,0.0575 0 0 0 0.05,0.09 h 0.448 c 0.02,0 0.04,-0.01 0.05,-0.03 l 0.1,-0.189 a 0.0563,0.0563 0 0 0 0,-0.06 0.0573,0.0573 0 0 0 -0.05,-0.03 z m 6.243,-0.35 c -0.01,0 -0.04,0.01 -0.05,0.03 a 0.0576,0.0576 0 0 0 0,0.06 l 0.103,0.191 c 0.01,0.02 0.03,0.03 0.05,0.03 H 8.324 A 0.0573,0.0573 0 0 0 8.37,6.11 L 8.255,5.932 a 0.0574,0.0574 0 0 0 -0.05,-0.03 z m -0.713,0 a 0.0579,0.0579 0 0 0 -0.05,0.03 0.0577,0.0577 0 0 0 0,0.05 l 0.08,0.191 a 0.0567,0.0567 0 0 0 0.05,0.04 h 0.425 a 0.0575,0.0575 0 0 0 0.05,-0.1 L 7.554,5.938 a 0.0563,0.0563 0 0 0 -0.06,-0.03 z m -0.712,0 a 0.0566,0.0566 0 0 0 -0.05,0.02 0.0568,0.0568 0 0 0 -0.01,0.05 l 0.05,0.189 a 0.0574,0.0574 0 0 0 0.06,0.04 h 0.425 a 0.0572,0.0572 0 0 0 0.05,-0.09 L 6.83,5.942 A 0.0574,0.0574 0 0 0 6.78,5.902 Z m -0.713,0 a 0.058,0.058 0 0 0 -0.05,0.02 0.0557,0.0557 0 0 0 -0.01,0.04 l 0.02,0.19 a 0.0574,0.0574 0 0 0 0.06,0.05 h 0.414 a 0.0572,0.0572 0 0 0 0.06,-0.08 L 6.118,5.95 A 0.0576,0.0576 0 0 0 6.058,5.9 Z m -2.684,0 a 0.0567,0.0567 0 0 0 -0.05,0.04 l -0.07,0.19 a 0.0577,0.0577 0 0 0 0.05,0.08 h 0.419 a 0.0577,0.0577 0 0 0 0.06,-0.04 L 3.435,5.978 A 0.0574,0.0574 0 0 0 3.424,5.927 0.058,0.058 0 0 0 3.378,5.904 H 2.973 Z m -1.204,0 a 0.0582,0.0582 0 0 0 -0.05,0.03 l -0.113,0.19 a 0.0575,0.0575 0 0 0 0.05,0.09 h 0.421 a 0.0566,0.0566 0 0 0 0.05,-0.03 l 0.1,-0.196 a 0.0576,0.0576 0 0 0 0,-0.06 0.0569,0.0569 0 0 0 -0.05,-0.03 z m 0.601,0 a 0.0572,0.0572 0 0 0 -0.05,0.03 l -0.1,0.191 a 0.0576,0.0576 0 0 0 0,0.05 0.0587,0.0587 0 0 0 0.05,0.03 h 0.42 a 0.0569,0.0569 0 0 0 0.05,-0.04 l 0.08,-0.189 a 0.0575,0.0575 0 0 0 -0.05,-0.08 z" class="shade"
     style="fill:#e8ebef;"
       />
  <path  class="shade" 
     d="m 5.172,7.204 h 4.29 v 1.189 c 0,0.12 -0.09,0.215 -0.207,0.215 H 4.793 Z"
     style=" fill:#8b9dab;" />
  <path class="shade"
     d="m 8.761,6.918 c 0.03,0 0.06,-0.03 0.06,-0.06 0,-0.02 -0.01,-0.03 -0.03,-0.04 L 8.692,6.636 C 8.68,6.614 8.656,6.602 8.632,6.606 l -0.457,0 c -0.02,0 -0.04,0.01 -0.05,0.03 -0.01,0.02 -0.01,0.04 0,0.06 l 0.103,0.189 c 0.01,0.02 0.03,0.03 0.05,0.03 M 7.923,6.919 c 0.05,0 0.08,-0.05 0.05,-0.09 l -0.1,-0.188 c 0,-0.02 -0.03,-0.03 -0.05,-0.03 H 7.37 c -0.04,0 -0.08,0.04 -0.06,0.08 l 0.08,0.19 c 0,0.02 0.03,0.04 0.05,0.04 M 7.087,6.909 c 0.05,0 0.08,-0.05 0.05,-0.09 L 7.072,6.647 c 0,-0.03 -0.03,-0.04 -0.06,-0.04 H 6.555 c -0.02,0 -0.04,0 -0.05,0.02 -0.01,0.01 -0.01,0.03 -0.01,0.05 l 0.05,0.19 c 0,0.03 0.03,0.04 0.06,0.04 m -0.354,0 c 0.04,0 0.08,-0.04 0.06,-0.08 L 6.256,6.655 c 0,-0.03 -0.03,-0.05 -0.06,-0.05 H 5.75 c -0.02,0 -0.04,0 -0.05,0.02 -0.01,0.01 -0.02,0.02 -0.02,0.04 l 0.04,0.192 c 0,0.03 0.03,0.05 0.06,0.05 m -2.67,0 c 0.02,0 0.04,-0.02 0.05,-0.04 L 3.22,6.677 C 3.22,6.657 3.221,6.637 3.21,6.627 3.2,6.617 3.18,6.607 3.16,6.607 H 2.699 v 0 c -0.02,0 -0.04,0.01 -0.05,0.04 l -0.07,0.189 c -0.02,0.04 0.01,0.08 0.05,0.08 m -0.236,0 c 0.02,0 0.04,-0.02 0.05,-0.04 l 0.08,-0.19 v -0.05 c -0.01,-0.02 -0.03,-0.03 -0.05,-0.03 h -0.45 v 0 c -0.02,0 -0.04,0.01 -0.05,0.03 l -0.1,0.189 c -0.01,0.02 -0.01,0.04 0,0.06 0.01,0.02 0.03,0.03 0.05,0.03 m -0.221,0 c 0.02,0 0.04,-0.01 0.05,-0.03 l 0.1,-0.196 c 0.01,-0.02 0.01,-0.04 0,-0.06 -0.01,-0.02 -0.03,-0.03 -0.05,-0.03 H 1.34 v 0 c -0.02,0 -0.04,0.01 -0.05,0.03 l -0.115,0.19 c -0.01,0.02 -0.01,0.04 0,0.06 0.01,0.02 0.03,0.03 0.05,0.03 M 7.991,6.254 c -0.05,0 -0.08,0.05 -0.05,0.09 l 0.09,0.189 c 0.01,0.02 0.03,0.03 0.06,0.03 h 0.448 c 0.05,0 0.08,-0.06 0.04,-0.1 L 8.473,6.282 c 0,-0.02 -0.02,-0.03 -0.04,-0.03 z M 7.75,6.564 c 0.06,0.01 0.1,-0.06 0.05,-0.1 L 7.715,6.288 C 7.705,6.268 7.675,6.258 7.655,6.258 H 7.233 c -0.04,0 -0.08,0.04 -0.06,0.08 l 0.08,0.19 c 0,0.02 0.02,0.04 0.04,0.04 m -0.321,0 c 0.02,0 0.06,-0.03 0.06,-0.06 0,0 -0.01,-0.02 -0.02,-0.02 L 6.945,6.293 c 0,-0.02 -0.03,-0.04 -0.06,-0.04 h -0.437 0.01 c -0.02,0 -0.04,0 -0.05,0.02 -0.01,0.01 -0.02,0.03 -0.01,0.05 l 0.05,0.191 c 0,0.03 0.03,0.04 0.06,0.04 m -0.342,0 c 0.04,0 0.07,-0.04 0.05,-0.08 L 6.187,6.3 c 0,-0.03 -0.03,-0.05 -0.06,-0.05 H 5.693 c -0.03,0 -0.06,0.04 -0.05,0.07 l 0.02,0.19 c 0,0.03 0.03,0.05 0.06,0.05 m -2.496,0 c 0.03,0 0.05,-0.01 0.06,-0.04 l 0.06,-0.19 c 0,-0.02 0,-0.04 -0.03,-0.06 C 3.307,6.26 3.287,6.25 3.267,6.25 H 2.839 c -0.02,0 -0.04,0.02 -0.05,0.04 l -0.07,0.189 c 0,0.02 -10e-4,0.04 0.01,0.05 0.01,0.02 0.03,0.03 0.05,0.03 m -0.236,0 c 0.02,0 0.04,-0.01 0.05,-0.04 l 0.08,-0.19 c 0.02,-0.04 -0.01,-0.08 -0.05,-0.08 H 2.195 c -0.02,0 -0.04,0.01 -0.05,0.03 l -0.1,0.192 c -0.02,0.04 0.01,0.08 0.05,0.08 m -0.208,0 c 0.02,0 0.04,-0.01 0.05,-0.03 l 0.1,-0.189 c 0.01,-0.02 0.01,-0.04 0,-0.06 -0.01,-0.02 -0.03,-0.03 -0.05,-0.03 l -0.434,0.01 c -0.02,0 -0.04,0.01 -0.05,0.03 L 1.389,6.472 c -0.03,0.04 0,0.09 0.05,0.09 M 7.796,5.904 c -0.01,0 -0.04,0.01 -0.05,0.03 -0.01,0.02 -0.01,0.04 0,0.06 l 0.103,0.191 c 0.01,0.02 0.03,0.03 0.05,0.03 H 8.324 C 8.394,6.246 8.44,6.141 8.37,6.11 L 8.255,5.932 C 8.245,5.914 8.226,5.902 8.205,5.902 Z M 7.588,6.215 c 0.06,0.01 0.1,-0.06 0.05,-0.1 L 7.554,5.938 C 7.544,5.918 7.514,5.908 7.494,5.908 H 7.083 c -0.02,0 -0.04,0.01 -0.05,0.03 v 0.05 l 0.08,0.191 c 0,0.02 0.03,0.04 0.05,0.04 M 6.846,6.203 c 0.05,0 0.08,-0.05 0.05,-0.09 L 6.83,5.942 C 6.83,5.922 6.8,5.902 6.78,5.902 H 6.371 c -0.02,0 -0.04,0 -0.05,0.02 -0.01,0.01 -0.01,0.03 -0.01,0.05 l 0.05,0.189 c 0,0.03 0.03,0.04 0.06,0.04 m -0.329,0 c 0.04,0 0.08,-0.04 0.06,-0.08 L 6.118,5.95 C 6.118,5.92 6.088,5.9 6.058,5.9 h -0.4 c -0.02,0 -0.04,0 -0.05,0.02 0,0.01 -0.01,0.03 -0.01,0.04 l 0.02,0.19 c 0,0.03 0.03,0.05 0.06,0.05 M 3.323,6.21 c 0.03,0 0.05,-0.01 0.06,-0.04 l 0.05,-0.196 c 0,-0.02 0,-0.04 -0.01,-0.05 -0.01,-0.01 -0.03,-0.02 -0.05,-0.02 H 2.968 v 0 c -0.02,0 -0.04,0.02 -0.05,0.04 l -0.07,0.19 c -0.02,0.04 0.01,0.08 0.05,0.08 m -0.826,0 c 0.02,0 0.04,-0.01 0.05,-0.03 l 0.1,-0.196 c 0.01,-0.02 0.01,-0.04 0,-0.06 -0.01,-0.02 -0.03,-0.03 -0.05,-0.03 H 1.764 c -0.02,0 -0.04,0.01 -0.05,0.03 l -0.113,0.19 c -0.03,0.04 0,0.09 0.05,0.09 m 1.034,0 c 0.02,0 0.04,-0.02 0.05,-0.04 l 0.08,-0.189 c 0.02,-0.04 -0.01,-0.08 -0.05,-0.08 h -0.4 c -0.02,0 -0.04,0.01 -0.05,0.03 l -0.1,0.191 v 0.05 c 0.01,0.02 0.03,0.03 0.05,0.03 M 7.267,4.181 c -0.01,0 -0.02,0.01 -0.03,0.02 L 6.796,4.63 c -0.02,0.02 -0.02,0.06 0,0.08 0.02,0.01 0.03,0.02 0.05,0.02 0.02,0 0.04,0 0.05,-0.02 L 7.313,4.28 c 0.05,-0.04 0,-0.114 -0.05,-0.1 z M 7.508,3.588 c -0.01,0 -0.02,0.01 -0.03,0.02 L 6.842,4.233 c -0.02,0.02 -0.02,0.06 0,0.08 0.01,0.02 0.03,0.02 0.05,0.02 0.01,0 0.02,-0.01 0.03,-0.02 L 7.554,3.688 c 0.05,-0.04 0,-0.114 -0.05,-0.1 z M 2.563,4.345 c -0.07,0 -0.07,0.109 0,0.115 h 0.808 c 0.07,0 0.07,-0.109 0,-0.115 z m 0,-0.45 c -0.03,0 -0.06,0.03 -0.06,0.06 0,0.03 0.03,0.06 0.06,0.06 h 0.808 c 0.03,0 0.06,-0.03 0.06,-0.06 0,-0.03 -0.03,-0.06 -0.06,-0.06 z m 0,-0.45 c -0.07,0 -0.07,0.105 0,0.114 H 3.37 c 0.07,0 0.07,-0.105 0,-0.114 z m 0,-0.448 c -0.07,0 -0.07,0.105 0,0.114 H 3.37 c 0.07,0 0.07,-0.105 0,-0.114 z m 0,-0.448 c -0.07,0 -0.07,0.105 0,0.114 H 3.37 c 0.07,0 0.07,-0.105 0,-0.114 z" 
     style=" fill:#f5f6f8;" />
  <path
     d="m 1.619,6.102 c -0.03,0.1 0.08,0.07 0.135,0.07 0.118,-0 0.241,0 0.356,-0 0.117,-0.13 -0.05,-0.09 -0.141,-0.08 -0.116,0 -0.233,0.01 -0.35,0.02 z m 0.621,0 c -0.06,0.157 0.157,0.1 0.247,0.11 0.1,-0.01 0.247,0.05 0.283,-0.08 0.04,-0.08 -0.168,-0.02 -0.235,-0.03 -0.1,10e-4 -0.197,0 -0.295,0 z m 0.622,0 c -0.06,0.145 0.146,0.107 0.231,0.11 0.08,-0.02 0.221,0.04 0.268,-0.04 0.08,-0.121 -0.104,-0.06 -0.171,-0.07 -0.109,0 -0.219,0 -0.328,0 z m 2.757,0 c -0.04,0.133 0.113,0.1 0.193,0.1 0.102,-0.01 0.219,0.02 0.313,-0.01 0.04,-0.07 -0.03,-0.09 -0.09,-0.08 -0.14,-0 -0.279,-0 -0.418,-0 z m 0.726,0 c -0.01,0.14 0.156,0.09 0.245,0.1 0.09,-0 0.205,0.02 0.292,-0.01 0.06,-0.122 -0.11,-0.07 -0.182,-0.08 -0.118,-0 -0.237,-0 -0.355,-0 z m 0.744,0 c 0.02,0.141 0.166,0.109 0.271,0.11 0.09,-0.02 0.254,0.05 0.294,-0.06 -0,-0.09 -0.168,-0.02 -0.239,-0.04 -0.108,-0 -0.217,-0 -0.326,-0 z m 0.723,0 c 0.02,0.126 0.138,0.116 0.239,0.11 0.104,-0 0.211,0.01 0.312,-0.01 0.09,-0.154 -0.144,-0.09 -0.232,-0.1 -0.106,0 -0.213,0 -0.319,0 z M 1.397,6.461 c -0.01,0.113 0.156,0.04 0.227,0.06 0.1,-0.01 0.206,0.02 0.292,-0.02 0.109,-0.121 -0.1,-0.05 -0.167,-0.06 -0.117,0 -0.235,0.01 -0.352,0.02 z m 0.662,0 c -0.03,0.135 0.13,0.08 0.209,0.09 0.112,-0.01 0.238,0.02 0.339,-0.02 0.08,-0.126 -0.08,-0.07 -0.161,-0.08 -0.129,0 -0.258,0 -0.387,0 z m 0.663,0 c -0.03,0.09 0.07,0.114 0.145,0.1 0.133,-0 0.278,0.01 0.403,-0.01 0.06,-0.124 -0.129,-0.05 -0.203,-0.08 -0.115,-0 -0.23,-0 -0.345,-0.01 z m 2.944,0 c -0.02,0.144 0.163,0.09 0.251,0.1 0.09,-0.01 0.206,0.03 0.293,-0.02 0.04,-0.05 -0,-0.11 -0.07,-0.08 -0.158,0 -0.316,0 -0.474,0 z m 0.773,0 c 0,0.148 0.18,0.09 0.277,0.1 0.1,-0.02 0.235,0.04 0.302,-0.04 0.01,-0.104 -0.121,-0.04 -0.185,-0.06 -0.131,0 -0.263,0 -0.394,0 z m 0.792,0 c 0.03,0.134 0.168,0.1 0.271,0.1 0.102,-0.02 0.23,0.04 0.311,-0.04 -0,-0.124 -0.194,-0.04 -0.285,-0.06 -0.1,0 -0.198,0 -0.297,0 z m 0.771,0 c 0.02,0.11 0.13,0.08 0.211,0.08 0.123,-0.01 0.256,0.02 0.374,-0.01 0.05,-0.04 0,-0.12 -0.06,-0.08 -0.174,0 -0.349,0.01 -0.524,0.02 z M 1.168,6.845 c 0,0.123 0.186,0.05 0.273,0.07 0.09,-0.01 0.205,0.03 0.29,-0.02 0.08,-0.1 -0.12,-0.04 -0.178,-0.05 -0.128,0 -0.257,0 -0.385,0 z m 0.701,0 c 0,0.123 0.186,0.05 0.273,0.07 0.1,-0.02 0.245,0.05 0.302,-0.05 -0.05,-0.04 -0.194,-0 -0.281,-0.02 -0.1,0 -0.196,0 -0.294,0 z m 0.708,0 c 0,0.1 0.162,0.03 0.231,0.05 0.106,-0 0.223,0.01 0.323,-0 -0.03,-0.05 -0.177,-0.01 -0.252,-0.03 -0.101,-0 -0.201,-0 -0.302,-0.01 z m 3.137,0 c -0,0.107 0.129,0.06 0.193,0.07 0.123,-0.01 0.259,0.02 0.374,-0.02 0.02,-0.101 -0.182,-0.03 -0.26,-0.05 -0.102,0 -0.205,0 -0.307,0 z m 0.824,0 c 0.01,0.123 0.194,0.05 0.283,0.07 0.1,-0.01 0.205,0.02 0.294,-0.01 0.06,-0.08 -0.07,-0.05 -0.112,-0.06 -0.155,0 -0.31,0 -0.465,0 z m 0.843,0 c 0.03,0.121 0.183,0.05 0.273,0.07 0.103,-0.01 0.219,0.02 0.316,-0.01 0.06,-0.08 -0.06,-0.05 -0.112,-0.06 -0.159,0 -0.318,0 -0.477,0 z m 0.837,0 c 0.03,0.109 0.175,0.04 0.261,0.06 0.11,-0.01 0.232,0.02 0.333,-0.02 0.06,-0.104 -0.159,-0.03 -0.22,-0.05 -0.124,0 -0.249,0 -0.374,0 z M 4.992,7.734 C 5.214,7.723 5.318,8.045 5.132,8.166 4.96,8.309 4.684,8.11 4.762,7.902 c 0.03,-0.1 0.127,-0.17 0.23,-0.168 z" class="shade"
     style="fill:#e7e7ef;"  />
  <path
     d="M 6.147,3.576 V 3.694 C 6.02,3.714 5.928,3.797 5.928,3.918 c 0,0.157 0.104,0.205 0.265,0.24 0.149,0.04 0.172,0.06 0.172,0.11 0,0.06 -0.05,0.08 -0.138,0.08 -0.08,0 -0.149,-0.03 -0.207,-0.09 L 5.905,4.364 c 0.05,0.07 0.138,0.126 0.242,0.142 V 4.621 H 6.308 V 4.506 C 6.468,4.482 6.537,4.389 6.537,4.258 6.537,4.082 6.388,4.037 6.262,4.006 6.135,3.977 6.101,3.961 6.101,3.911 c 0,-0.04 0.03,-0.07 0.115,-0.07 0.08,0 0.138,0.03 0.184,0.09 L 6.514,3.814 C 6.457,3.752 6.388,3.711 6.308,3.694 V 3.576 Z m -1.075,0 v 0.118 c -0.126,0.02 -0.218,0.103 -0.218,0.224 0,0.157 0.104,0.205 0.264,0.24 0.15,0.04 0.173,0.06 0.173,0.11 0,0.06 -0.05,0.08 -0.138,0.08 -0.08,0 -0.15,-0.03 -0.207,-0.09 L 4.831,4.364 c 0.05,0.07 0.138,0.126 0.241,0.142 V 4.621 H 5.233 V 4.506 C 5.394,4.482 5.463,4.389 5.463,4.258 5.463,4.082 5.314,4.037 5.187,4.006 5.061,3.977 5.026,3.961 5.026,3.911 c 0,-0.04 0.04,-0.07 0.115,-0.07 0.08,0 0.138,0.03 0.184,0.09 L 5.44,3.814 C 5.383,3.752 5.314,3.711 5.233,3.694 V 3.576 Z"
     style="fill:#004153; " class="shade"  />
</svg>
