<?xml version="1.0"?>

<svg xmlns:dc="http://purl.org/dc/elements/1.1/" xmlns:cc="http://creativecommons.org/ns#" xmlns:rdf="http://www.w3.org/1999/02/22-rdf-syntax-ns#" xmlns:svg="http://www.w3.org/2000/svg" xmlns="http://www.w3.org/2000/svg" id="svg4" version="1.1" viewBox="0 0 101.994 87.53" height="87.53" width="135.992">
  <defs id="defs8"></defs>
  <g style="display:inline;opacity:1" id="layer2">
    <g id="g8259">
      <path transform="scale(0.9997)" style="fill:#5e6a71;fill-opacity:1" d="m 23.27,22.84 h 55.44 c 1.71,0 3.08,1.37 3.08,3.08 v 22.5 c 0,1.71 -1.37,3.08 -3.08,3.08 H 23.27 c -1.71,0 -3.08,-1.37 -3.08,-3.08 v -22.5 c 0,-1.71 1.37,-3.08 3.08,-3.08 z" id="rect8094"></path>
      <path transform="scale(0.9997)" id="path8110" d="m 56.48,22.84 h 22.23 c 1.71,0 3.08,1.37 3.08,3.08 v 22.5 c 0,1.71 -1.37,3.08 -3.08,3.08 H 50.99 Z" style="fill:#4c575e;fill-opacity:1"></path>
      <path style="display:inline;opacity:1;fill:#8a969e;stroke-width:1.574" d="m 64.14,18.42 h 5.32 v 4.76 h -5.32 z" id="path8051"></path>
      <path id="path8238" d="m 66.9,18.42 h 2.56 v 4.76 H 66.9 Z" style="display:inline;opacity:1;fill:#5e6a71;stroke-width:1.574"></path>
      <path style="display:inline;opacity:1;fill:#a4b0bf;stroke-width:0.9992" d="M 80,48.33 H 21.97 c -0.92,0 -1.5,0.28 -2.02,0.66 l -0.44,0.62 -6.39,9.06 6.39,-9.06 -9.39,13.32 c 0,0 0,0.11 -0.1,0.14 v 0 0 0 0 0 0 0 0.1 0.23 0 0 0 10.16 c 0,2.14 1.74,3.88 3.88,3.88 h 74.19 c 2.15,0 3.9,-1.73 3.9,-3.88 v -10.03 0 0 -0.13 -0.2 0 -0.1 -0.11 0 0 0 0 L 90.29,60.7 82.19,49.07 C 81.69,48.73 81.21,48.39 80,48.33 Z" id="path8059"></path>
      <path style="display:inline;opacity:1;fill:#a4b0bf;stroke-width:1.196" d="m 56.39,10.97 h 20.82 v 7.49 H 56.39 Z" id="path8057"></path>
      <path style="display:inline;opacity:1;fill:#e0e4ea;fill-opacity:1;stroke-width:0.9992" d="m 27.17,13.97 a 0.7755,0.7755 0 0 0 -0.39,0.1 0.7414,0.7414 0 0 0 -0.39,0.65 V 43.8 h -1.81 a 0.5062,0.5062 0 0 0 0,1.01 h 17.81 a 0.5062,0.5062 0 0 0 0,-1.01 h -1.81 v -21.46 0 -7.63 a 0.7364,0.7364 0 0 0 -0.23,-0.53 0.7364,0.7364 0 0 1 -0.16,-0.12 0.7364,0.7364 0 0 0 -0.76,0 l -1.19,0.75 -1.18,-0.75 a 0.777,0.777 0 0 0 -0.8,0 l -1.19,0.75 -1.18,-0.75 a 0.777,0.777 0 0 0 -0.79,0 l -1.2,0.75 -1.19,-0.75 a 0.777,0.777 0 0 0 -0.79,0 l -1.19,0.75 -1.18,-0.75 a 0.7204,0.7204 0 0 0 -0.38,-0.11 z" id="path8055"></path>
      <path style="display:inline;opacity:1;fill:#a3dbe8;stroke-width:0.9992" d="m 46.02,27.62 a 0.7494,0.7494 0 0 0 -0.75,0.75 V 44.3 c 0,0.4 0.33,0.75 0.75,0.75 H 75.9 A 0.7494,0.7494 0 0 0 76.7,44.3 V 28.37 a 0.7494,0.7494 0 0 0 -0.8,-0.75 z" id="path8045"></path>
      <path id="path8033" style="display:inline;opacity:1;fill:#ffffff;stroke-width:0.9992" d="m 70.8,37.05 a 0.4975,0.4975 0 0 0 -0.3,0.15 l -3.8,3.76 a 0.4986,0.4986 0 0 0 0,0.7 c 0.2,0.11 0.3,0.14 0.4,0.14 a 0.5026,0.5026 0 0 0 0.4,-0.14 l 3.7,-3.75 a 0.4996,0.4996 0 0 0 -0.4,-0.86 z m 2.1,-5.16 a 0.4975,0.4975 0 0 0 -0.3,0.15 l -5.5,5.46 a 0.4996,0.4996 0 0 0 0,0.71 0.4786,0.4786 0 0 0 0.4,0.15 c 0.1,0 0.2,-0.11 0.3,-0.15 l 5.5,-5.45 a 0.4996,0.4996 0 0 0 -0.4,-0.87 z"></path>
      <path id="path8096" d="m 33.14,44.81 h 9.25 c 0.63,0 0.63,-0.97 0,-1.01 h -1.81 v -21.46 0 -7.63 c 0,-0.2 -0.1,-0.39 -0.23,-0.53 -0.1,0 -0.11,-0.1 -0.16,-0.12 -0.23,-0.14 -0.53,-0.14 -0.76,0 l -1.19,0.75 -1.18,-0.75 c -0.25,-0.15 -0.55,-0.15 -0.8,0 l -1.19,0.75 -1.18,-0.75 c -0.12,-0.1 -0.26,-0.11 -0.39,-0.11 -0.14,0 -0.28,0 -0.4,0.11 z" style="display:inline;opacity:1;fill:#ccd4dc;fill-opacity:1;stroke-width:0.9992"></path>
      <path id="path8031" style="display:inline;opacity:1;fill:#ffffff;stroke-width:0.9992" d="m 29.86,38.48 a 0.5025,0.5025 0 0 0 0,1 h 7.03 a 0.5025,0.5025 0 0 0 0,-1 z m 0,-3.92 c -0.29,0 -0.51,0.24 -0.51,0.51 0,0.27 0.22,0.5 0.51,0.5 h 7.03 c 0.27,0 0.5,-0.23 0.5,-0.5 0,-0.27 -0.23,-0.51 -0.5,-0.51 z m 0,-3.91 a 0.5005,0.5005 0 0 0 0,0.99 h 7.02 a 0.5005,0.5005 0 0 0 0,-0.99 z m 0,-3.9 a 0.5005,0.5005 0 0 0 0,0.99 h 7.02 a 0.5005,0.5005 0 0 0 0,-0.99 z m 0,-3.9 a 0.5005,0.5005 0 0 0 0,0.99 h 7.02 a 0.5005,0.5005 0 0 0 0,-0.99 z"></path>
      <path style="display:inline;opacity:1;fill:#cad2db;fill-opacity:1;stroke-width:0.9992" d="M 21.49,49.29 H 80.4 l 9.5,14.07 H 11.99 Z" id="path8029"></path>
      <path id="path7959" style="display:inline;opacity:1;fill:#e8ebef;fill-opacity:1;stroke-width:0.9992" d="m 78.7,58.18 a 0.4956,0.4956 0 0 0 -0.4,0.24 0.4915,0.4915 0 0 0 0,0.49 l 0.9,1.65 a 0.4996,0.4996 0 0 0 0.4,0.27 h 4.2 c 0.3,0 0.5,-0.22 0.5,-0.49 a 0.4825,0.4825 0 0 0 -0.2,-0.36 l -0.9,-1.56 a 0.5106,0.5106 0 0 0 -0.5,-0.24 z m -7,0 a 0.4996,0.4996 0 0 0 -0.5,0.69 l 0.7,1.65 a 0.4936,0.4936 0 0 0 0.4,0.31 h 4.2 a 0.5005,0.5005 0 0 0 0.4,-0.82 l -0.8,-1.55 a 0.5095,0.5095 0 0 0 -0.4,-0.28 z m -7.1,0 a 0.4966,0.4966 0 0 0 -0.4,0.19 0.4926,0.4926 0 0 0 -0.1,0.44 l 0.4,1.65 a 0.4956,0.4956 0 0 0 0.5,0.37 h 4.2 a 0.5005,0.5005 0 0 0 0.4,-0.79 l -0.5,-1.53 a 0.5056,0.5056 0 0 0 -0.5,-0.33 z m -7,0 a 0.4926,0.4926 0 0 0 -0.4,0.16 0.4926,0.4926 0 0 0 -0.2,0.39 l 0.3,1.67 a 0.5086,0.5086 0 0 0 0.5,0.43 h 4.1 A 0.5035,0.5035 0 0 0 62.4,60.1 L 62,58.58 a 0.5026,0.5026 0 0 0 -0.5,-0.4 z m -26.51,0 c -0.21,0 -0.39,0.12 -0.47,0.33 l -0.63,1.65 a 0.4996,0.4996 0 0 0 0.47,0.67 h 4.14 a 0.5016,0.5016 0 0 0 0.46,-0.36 l 0.51,-1.65 a 0.5056,0.5056 0 0 0 -0.1,-0.43 0.5116,0.5116 0 0 0 -0.4,-0.21 h -4.01 z m -5.96,0 a 0.5095,0.5095 0 0 0 -0.43,0.27 l -0.84,1.65 a 0.5136,0.5136 0 0 0 0,0.49 c 0.12,0.15 0.27,0.24 0.45,0.24 h 4.11 c 0.21,0 0.39,-0.13 0.46,-0.31 l 0.71,-1.65 a 0.5095,0.5095 0 0 0 0,-0.47 0.4975,0.4975 0 0 0 -0.42,-0.22 h -4.01 z m -5.92,0 a 0.5035,0.5035 0 0 0 -0.44,0.24 l -1,1.65 a 0.5146,0.5146 0 0 0 0,0.51 0.5095,0.5095 0 0 0 0.43,0.25 h 4.13 a 0.5056,0.5056 0 0 0 0.42,-0.27 l 0.9,-1.65 a 0.4825,0.4825 0 0 0 0,-0.49 0.4926,0.4926 0 0 0 -0.45,-0.24 H 19.22 Z M 77.1,55.09 a 0.4996,0.4996 0 0 0 -0.4,0.75 l 0.8,1.65 c 0.1,0.16 0.3,0.27 0.5,0.27 h 3.9 a 0.5005,0.5005 0 0 0 0.3,-0.87 l -0.9,-1.55 a 0.5035,0.5035 0 0 0 -0.4,-0.25 z m -6.6,0 A 0.4996,0.4996 0 0 0 70,55.78 l 0.7,1.65 a 0.4936,0.4936 0 0 0 0.4,0.33 H 75 a 0.5005,0.5005 0 0 0 0.4,-0.84 l -0.7,-1.53 a 0.5026,0.5026 0 0 0 -0.5,-0.3 z m -6.7,0 a 0.4996,0.4996 0 0 0 -0.4,0.21 0.5026,0.5026 0 0 0 -0.1,0.42 l 0.4,1.66 a 0.4966,0.4966 0 0 0 0.5,0.38 h 4 c 0.2,0 0.5,-0.23 0.5,-0.51 A 0.5076,0.5076 0 0 0 68.6,56.98 L 68,55.43 a 0.5056,0.5056 0 0 0 -0.5,-0.34 h -3.8 z m -6.7,0 a 0.4996,0.4996 0 0 0 -0.4,0.57 l 0.2,1.65 a 0.4996,0.4996 0 0 0 0.5,0.45 h 3.9 a 0.5005,0.5005 0 0 0 0.4,-0.74 l -0.3,-1.53 a 0.4986,0.4986 0 0 0 -0.5,-0.4 z m -24.84,0 a 0.4996,0.4996 0 0 0 -0.45,0.33 l -0.65,1.65 a 0.5046,0.5046 0 0 0 0.11,0.46 c 0.1,0.14 0.24,0.23 0.4,0.23 h 3.9 a 0.5005,0.5005 0 0 0 0.48,-0.36 l 0.5,-1.65 a 0.5196,0.5196 0 0 0 -0.1,-0.45 0.5065,0.5065 0 0 0 -0.4,-0.21 z m -5.6,0 a 0.4975,0.4975 0 0 0 -0.45,0.28 l -0.82,1.67 a 0.4986,0.4986 0 0 0 0.45,0.72 h 3.9 c 0.21,0 0.39,-0.12 0.46,-0.32 l 0.69,-1.65 a 0.4975,0.4975 0 0 0 -0.46,-0.7 z m -5.59,0 a 0.5076,0.5076 0 0 0 -0.42,0.24 l -1.01,1.66 a 0.5005,0.5005 0 0 0 0.41,0.77 h 3.9 c 0.18,0 0.36,-0.11 0.45,-0.27 l 0.87,-1.65 a 0.4896,0.4896 0 0 0 0,-0.5 0.4986,0.4986 0 0 0 -0.42,-0.25 z M 75.4,52.05 c -0.1,0 -0.3,0.1 -0.4,0.24 a 0.5016,0.5016 0 0 0 0,0.49 l 0.9,1.66 c 0.1,0.16 0.3,0.26 0.4,0.26 H 80 a 0.4975,0.4975 0 0 0 0.4,-0.86 l -1,-1.55 A 0.4996,0.4996 0 0 0 79,52.05 Z m -6.2,0 a 0.5035,0.5035 0 0 0 -0.4,0.22 0.5026,0.5026 0 0 0 0,0.46 l 0.7,1.66 a 0.4936,0.4936 0 0 0 0.4,0.31 h 3.7 A 0.5005,0.5005 0 0 0 74,53.87 l -0.7,-1.53 a 0.4896,0.4896 0 0 0 -0.5,-0.29 z m -6.2,0 a 0.4926,0.4926 0 0 0 -0.4,0.19 0.4945,0.4945 0 0 0 -0.1,0.44 l 0.4,1.65 a 0.4996,0.4996 0 0 0 0.5,0.37 h 3.7 a 0.4975,0.4975 0 0 0 0.4,-0.78 L 67,52.38 a 0.4996,0.4996 0 0 0 -0.4,-0.34 z m -6.2,0 a 0.5046,0.5046 0 0 0 -0.4,0.17 0.4846,0.4846 0 0 0 -0.1,0.39 l 0.2,1.66 A 0.4996,0.4996 0 0 0 57,54.7 h 3.6 a 0.4975,0.4975 0 0 0 0.5,-0.73 l -0.3,-1.52 a 0.5016,0.5016 0 0 0 -0.5,-0.4 z m -23.36,0 a 0.4936,0.4936 0 0 0 -0.46,0.32 l -0.63,1.65 a 0.5026,0.5026 0 0 0 0.46,0.68 h 3.65 a 0.5026,0.5026 0 0 0 0.48,-0.35 l 0.51,-1.66 a 0.4996,0.4996 0 0 0 -0.1,-0.44 0.5046,0.5046 0 0 0 -0.4,-0.2 h -3.52 z m -10.48,0 a 0.5065,0.5065 0 0 0 -0.45,0.24 l -0.99,1.65 a 0.5005,0.5005 0 0 0 0.42,0.76 h 3.66 a 0.4926,0.4926 0 0 0 0.43,-0.26 l 0.89,-1.66 a 0.5016,0.5016 0 0 0 0,-0.49 0.4956,0.4956 0 0 0 -0.42,-0.24 z m 5.23,0 a 0.4975,0.4975 0 0 0 -0.43,0.27 l -0.83,1.66 a 0.5016,0.5016 0 0 0 0,0.48 0.5106,0.5106 0 0 0 0.44,0.24 h 3.66 a 0.4956,0.4956 0 0 0 0.45,-0.31 l 0.69,-1.65 a 0.5005,0.5005 0 0 0 -0.45,-0.7 z"></path>
      <path style="display:inline;opacity:1;fill:#8b9dab;fill-opacity:1;stroke-width:0.9992" d="M 52.57,63.36 H 89.9 v 10.35 c 0,1.04 -0.8,1.87 -1.8,1.87 H 49.27 Z" id="path7943"></path>
      <path style="display:inline;opacity:1;fill:#b6c0cc;fill-opacity:1;stroke-width:0.9992" d="M 51,67.97 A 2.083,2.083 0 1 1 48.9,70.05 2.089,2.089 0 0 1 51,67.97 Z" id="path2-3-6"></path>
      <path d="m 78.7,58.18 a 0.4956,0.4956 0 0 0 -0.4,0.24 0.4915,0.4915 0 0 0 0,0.49 l 0.9,1.65 a 0.4996,0.4996 0 0 0 0.4,0.27 h 4.2 c 0.3,0 0.5,-0.22 0.5,-0.49 a 0.4825,0.4825 0 0 0 -0.2,-0.36 l -0.9,-1.56 a 0.5106,0.5106 0 0 0 -0.5,-0.24 z m -7,0 a 0.4996,0.4996 0 0 0 -0.5,0.69 l 0.7,1.65 a 0.4936,0.4936 0 0 0 0.4,0.31 h 4.2 a 0.5005,0.5005 0 0 0 0.4,-0.82 l -0.8,-1.55 a 0.5095,0.5095 0 0 0 -0.4,-0.28 z m -7.1,0 a 0.4966,0.4966 0 0 0 -0.4,0.19 0.4926,0.4926 0 0 0 -0.1,0.44 l 0.4,1.65 a 0.4956,0.4956 0 0 0 0.5,0.37 h 4.2 a 0.5005,0.5005 0 0 0 0.4,-0.79 l -0.5,-1.53 a 0.5056,0.5056 0 0 0 -0.5,-0.33 z m -7,0 a 0.4926,0.4926 0 0 0 -0.4,0.16 0.4926,0.4926 0 0 0 -0.2,0.39 l 0.3,1.67 a 0.5086,0.5086 0 0 0 0.5,0.43 h 4.1 A 0.5035,0.5035 0 0 0 62.4,60.1 L 62,58.58 a 0.5026,0.5026 0 0 0 -0.5,-0.4 z m -26.51,0 c -0.21,0 -0.39,0.12 -0.47,0.33 l -0.63,1.65 a 0.4996,0.4996 0 0 0 0.47,0.67 h 4.14 a 0.5016,0.5016 0 0 0 0.46,-0.36 l 0.51,-1.65 a 0.5056,0.5056 0 0 0 -0.1,-0.43 0.5116,0.5116 0 0 0 -0.4,-0.21 h -4.01 z m -5.96,0 a 0.5095,0.5095 0 0 0 -0.43,0.27 l -0.84,1.65 a 0.5136,0.5136 0 0 0 0,0.49 c 0.12,0.15 0.27,0.24 0.45,0.24 h 4.11 c 0.21,0 0.39,-0.13 0.46,-0.31 l 0.71,-1.65 a 0.5095,0.5095 0 0 0 0,-0.47 0.4975,0.4975 0 0 0 -0.42,-0.22 h -4.01 z m -5.92,0 a 0.5035,0.5035 0 0 0 -0.44,0.24 l -1,1.65 a 0.5146,0.5146 0 0 0 0,0.51 0.5095,0.5095 0 0 0 0.43,0.25 h 4.13 a 0.5056,0.5056 0 0 0 0.42,-0.27 l 0.9,-1.65 a 0.4825,0.4825 0 0 0 0,-0.49 0.4926,0.4926 0 0 0 -0.45,-0.24 H 19.22 Z M 77.1,55.09 a 0.4996,0.4996 0 0 0 -0.4,0.75 l 0.8,1.65 c 0.1,0.16 0.3,0.27 0.5,0.27 h 3.9 a 0.5005,0.5005 0 0 0 0.3,-0.87 l -0.9,-1.55 a 0.5035,0.5035 0 0 0 -0.4,-0.25 z m -6.6,0 A 0.4996,0.4996 0 0 0 70,55.78 l 0.7,1.65 a 0.4936,0.4936 0 0 0 0.4,0.33 H 75 a 0.5005,0.5005 0 0 0 0.4,-0.84 l -0.7,-1.53 a 0.5026,0.5026 0 0 0 -0.5,-0.3 z m -6.7,0 a 0.4996,0.4996 0 0 0 -0.4,0.21 0.5026,0.5026 0 0 0 -0.1,0.42 l 0.4,1.66 a 0.4966,0.4966 0 0 0 0.5,0.38 h 4 c 0.2,0 0.5,-0.23 0.5,-0.51 A 0.5076,0.5076 0 0 0 68.6,56.98 L 68,55.43 a 0.5056,0.5056 0 0 0 -0.5,-0.34 h -3.8 z m -6.7,0 a 0.4996,0.4996 0 0 0 -0.4,0.57 l 0.2,1.65 a 0.4996,0.4996 0 0 0 0.5,0.45 h 3.9 a 0.5005,0.5005 0 0 0 0.4,-0.74 l -0.3,-1.53 a 0.4986,0.4986 0 0 0 -0.5,-0.4 z m -24.84,0 a 0.4996,0.4996 0 0 0 -0.45,0.33 l -0.65,1.65 a 0.5046,0.5046 0 0 0 0.11,0.46 c 0.1,0.14 0.24,0.23 0.4,0.23 h 3.9 a 0.5005,0.5005 0 0 0 0.48,-0.36 l 0.5,-1.65 a 0.5196,0.5196 0 0 0 -0.1,-0.45 0.5065,0.5065 0 0 0 -0.4,-0.21 z m -5.6,0 a 0.4975,0.4975 0 0 0 -0.45,0.28 l -0.82,1.67 a 0.4986,0.4986 0 0 0 0.45,0.72 h 3.9 c 0.21,0 0.39,-0.12 0.46,-0.32 l 0.69,-1.65 a 0.4975,0.4975 0 0 0 -0.46,-0.7 z m -5.59,0 a 0.5076,0.5076 0 0 0 -0.42,0.24 l -1.01,1.66 a 0.5005,0.5005 0 0 0 0.41,0.77 h 3.9 c 0.18,0 0.36,-0.11 0.45,-0.27 l 0.87,-1.65 a 0.4896,0.4896 0 0 0 0,-0.5 0.4986,0.4986 0 0 0 -0.42,-0.25 z M 75.4,52.05 c -0.1,0 -0.3,0.1 -0.4,0.24 a 0.5016,0.5016 0 0 0 0,0.49 l 0.9,1.66 c 0.1,0.16 0.3,0.26 0.4,0.26 H 80 a 0.4975,0.4975 0 0 0 0.4,-0.86 l -1,-1.55 A 0.4996,0.4996 0 0 0 79,52.05 Z m -6.2,0 a 0.5035,0.5035 0 0 0 -0.4,0.22 0.5026,0.5026 0 0 0 0,0.46 l 0.7,1.66 a 0.4936,0.4936 0 0 0 0.4,0.31 h 3.7 A 0.5005,0.5005 0 0 0 74,53.87 l -0.7,-1.53 a 0.4896,0.4896 0 0 0 -0.5,-0.29 z m -6.2,0 a 0.4926,0.4926 0 0 0 -0.4,0.19 0.4945,0.4945 0 0 0 -0.1,0.44 l 0.4,1.65 a 0.4996,0.4996 0 0 0 0.5,0.37 h 3.7 a 0.4975,0.4975 0 0 0 0.4,-0.78 L 67,52.38 a 0.4996,0.4996 0 0 0 -0.4,-0.34 z m -6.2,0 a 0.5046,0.5046 0 0 0 -0.4,0.17 0.4846,0.4846 0 0 0 -0.1,0.39 l 0.2,1.66 A 0.4996,0.4996 0 0 0 57,54.7 h 3.6 a 0.4975,0.4975 0 0 0 0.5,-0.73 l -0.3,-1.52 a 0.5016,0.5016 0 0 0 -0.5,-0.4 z m -23.36,0 a 0.4936,0.4936 0 0 0 -0.46,0.32 l -0.63,1.65 a 0.5026,0.5026 0 0 0 0.46,0.68 h 3.65 a 0.5026,0.5026 0 0 0 0.48,-0.35 l 0.51,-1.66 a 0.4996,0.4996 0 0 0 -0.1,-0.44 0.5046,0.5046 0 0 0 -0.4,-0.2 h -3.52 z m -10.48,0 a 0.5065,0.5065 0 0 0 -0.45,0.24 l -0.99,1.65 a 0.5005,0.5005 0 0 0 0.42,0.76 h 3.66 a 0.4926,0.4926 0 0 0 0.43,-0.26 l 0.89,-1.66 a 0.5016,0.5016 0 0 0 0,-0.49 0.4956,0.4956 0 0 0 -0.42,-0.24 z m 5.23,0 a 0.4975,0.4975 0 0 0 -0.43,0.27 l -0.83,1.66 a 0.5016,0.5016 0 0 0 0,0.48 0.5106,0.5106 0 0 0 0.44,0.24 h 3.66 a 0.4956,0.4956 0 0 0 0.45,-0.31 l 0.69,-1.65 a 0.5005,0.5005 0 0 0 -0.45,-0.7 z" style="display:inline;opacity:1;fill:#f5f6f8;fill-opacity:1;stroke-width:0.9992" id="path8166"></path>
      <path style="fill:#e7e7ef;fill-opacity:1;stroke-width:1.0243" d="m 28.85,71.67 -0.1,0.15 -0.1,0.1 c -0.1,0.1 -0.1,0.19 -0.1,0.29 a 0.6673,0.6673 0 0 0 0,0.1 c 0,0.1 0,0.15 0,0.22 a 0.6673,0.6673 0 0 0 0.1,0.12 c 0,0.1 0.1,0.11 0.15,0.15 a 0.6673,0.6673 0 0 0 0.12,0.1 0.6673,0.6673 0 0 0 0.1,0 c 0.1,0 0.12,0 0.18,0 h 4.88 c 0.12,0 0.23,0 0.33,-0.1 0.1,-0.1 0.18,-0.14 0.24,-0.24 l 0.49,-0.92 z m 7.21,0 -0.15,0.3 c -0.11,0.2 -0.11,0.44 0,0.64 0.12,0.2 0.34,0.32 0.58,0.32 h 4.88 c 0.26,0 0.5,-0.17 0.6,-0.41 l 0.18,-0.42 0.18,-0.43 z m 7.21,0 -0.14,0.36 c 0,0.1 -0.1,0.2 0,0.3 0,0 0,0 0,0 0,0.1 0,0.19 0.11,0.28 0.11,0.17 0.31,0.28 0.54,0.29 h 4.86 c 0.14,0 0.28,-0.1 0.4,-0.13 0.1,0 0.1,-0.1 0.14,-0.14 0,-0.1 0.1,-0.12 0.1,-0.19 l 0.17,-0.54 0.1,-0.26 z m 31.98,0 v 0 l 0.1,0.66 c 0,0.1 0,0.15 0.1,0.22 0,0.1 0.1,0.13 0.14,0.17 0.13,0.11 0.3,0.16 0.46,0.16 h 4.8 c 0,0 0.1,0 0.13,0 a 0.6633,0.6633 0 0 0 0.33,-0.14 c 0,0 0,0 0,0 0,0 0,0 0.1,-0.1 a 0.6633,0.6633 0 0 0 0.13,-0.2 c 0,0 0,0 0,0 0,0 0,0 0,-0.1 a 0.6633,0.6633 0 0 0 0,-0.49 v -0.16 -0.13 z m 8.43,0 0.1,0.25 0.13,0.52 c 0.1,0.3 0.35,0.5 0.66,0.49 h 4.94 c 0.1,0 0.13,0 0.19,0 0.1,0 0.11,0 0.16,-0.1 0.1,-0.1 0.17,-0.15 0.22,-0.25 0,0 0,0 0,0 0,-0.1 0.1,-0.22 0.1,-0.33 0,0 0,-0.1 0,-0.11 0,-0.1 0,-0.1 -0.1,-0.14 v 0 0 l -0.1,-0.21 z m 8.63,0 0.36,0.85 c 0.1,0.22 0.29,0.38 0.53,0.41 h 4.93 c 0.43,0 0.73,-0.37 0.7,-0.74 0,0 0,0 0,0 0,-0.1 0,-0.12 0,-0.17 0,0 0,0 0,0 0,-0.1 -0.1,-0.12 -0.11,-0.17 v 0 0 l -0.1,-0.15 z m 8.39,0 0.5,0.92 c 0.1,0.2 0.4,0.33 0.5,0.34 h 5 c 0.6,0 0.9,-0.71 0.5,-1.14 v 0 l -0.1,-0.12 z m -74.42,4.17 v 0 l -0.1,0.1 c -0.1,0.1 -0.1,0.19 -0.1,0.28 a 0.6673,0.6673 0 0 0 0,0.1 c 0,0.1 0,0.16 0.1,0.24 a 0.6673,0.6673 0 0 0 0,0.1 c 0,0 0,0 0,0 0,0.1 0.1,0.14 0.17,0.19 a 0.6673,0.6673 0 0 0 0.1,0.1 c 0,0 0,0 0,0 a 0.6673,0.6673 0 0 0 0.1,0 c 0.1,0 0.11,0 0.17,0 h 5.2 c 0.15,0 0.29,-0.1 0.41,-0.15 0.1,0 0.1,-0.1 0.14,-0.14 0,0 0,0 0.1,-0.1 L 33,75.75 Z m 7.68,0 v 0.1 l -0.1,0.13 c -0.1,0.1 -0.1,0.2 -0.1,0.3 0,0.11 0,0.2 0.1,0.29 0,0.1 0.13,0.17 0.22,0.22 0,0 0,0 0,0 0.1,0.1 0.2,0.1 0.33,0.1 h 5.2 c 0.21,0 0.4,-0.1 0.52,-0.24 0,-0.1 0.1,-0.12 0.1,-0.18 l 0.31,-0.75 z m 7.69,0 -0.1,0.25 c 0,0 0,0 0,0.1 a 0.6728,0.6728 0 0 0 0,0.31 c 0,0.1 0.1,0.15 0.11,0.21 0.1,0.1 0.12,0.12 0.19,0.17 0.1,0.1 0.22,0.13 0.35,0.13 h 5.2 c 0.1,0 0.15,0 0.21,0 0.1,0 0.13,0 0.19,-0.1 0,0 0,0 0,0 0.1,0 0.1,-0.1 0.14,-0.14 0,0 0.1,-0.11 0.1,-0.17 l 0.21,-0.69 z m 34.15,0 0.1,0.57 c 0,0.34 0.32,0.6 0.66,0.6 h 5.2 a 0.6673,0.6673 0 0 0 0.47,-0.97 v -0.19 z m 8.97,0 0.16,0.67 c 0.11,0.29 0.36,0.49 0.66,0.48 h 5.33 c 0.13,0 0.3,-0.1 0.44,-0.2 0.1,-0.1 0.12,-0.13 0.16,-0.21 0,-0.1 0.1,-0.17 0.1,-0.27 a 0.6768,0.6768 0 0 0 -0.13,-0.36 v -0.13 z m 9.19,0 0.31,0.73 c 0.1,0.23 0.28,0.4 0.53,0.44 h 5.2 c 0.6,0 0.9,-0.69 0.5,-1.12 z m 8.94,0 0.4,0.81 c 0.1,0 0.1,0.1 0.1,0.1 0.1,0.1 0.1,0.13 0.2,0.17 0,0 0,0 0,0 0,0 0,0 0,0 0.1,0 0.1,0 0.2,0 0,0 0,0 0,0 0.1,0 0.1,0 0.2,0 h 5.2 a 0.6673,0.6673 0 0 0 0.4,-1.16 v 0 z m -79.28,4.45 c 0,0.16 0,0.33 0.1,0.48 0.12,0.21 0.34,0.33 0.57,0.34 h 5.48 a 0.6741,0.6741 0 0 0 0.56,-0.36 l 0.25,-0.46 z m 8.13,0 c 0,0.17 0,0.34 0.1,0.49 0.16,0.2 0.36,0.31 0.59,0.32 h 5.45 c 0.28,0 0.52,-0.18 0.62,-0.42 l 0.17,-0.4 z m 8.21,0 c 0,0.1 0,0.18 0,0.26 a 0.6661,0.6661 0 0 0 0,0.1 c 0,0.1 0.1,0.14 0.1,0.2 a 0.6661,0.6661 0 0 0 0,0.1 c 0,0.1 0.11,0.11 0.18,0.14 a 0.6661,0.6661 0 0 0 0.1,0 c 0.1,0 0.17,0.1 0.26,0.1 0,0 0,0 0,0 h 5.52 c 0,0 0.1,0 0.12,0 a 0.6688,0.6688 0 0 0 0.17,-0.1 0.6688,0.6688 0 0 0 0.15,-0.13 0.6688,0.6688 0 0 0 0.1,-0.1 c 0,0 0,-0.1 0,-0.1 l 0.1,-0.29 v 0 z m 36.4,0 v 0 0.23 a 0.6781,0.6781 0 0 0 0.52,0.56 c 0,0 0,0 0,0 a 0.6781,0.6781 0 0 0 0.13,0 h 5.43 c 0.46,0 0.83,-0.37 0.72,-0.82 z m 9.56,0 v 0 l 0.1,0.3 c 0.1,0.29 0.35,0.5 0.66,0.5 h 5.59 c 0.1,0 0.11,0 0.17,0 a 0.6673,0.6673 0 0 0 0.41,-0.77 z m 9.78,0 0.17,0.4 c 0.1,0.23 0.29,0.38 0.52,0.42 H 102 c 0.1,0 0.2,0 0.3,-0.1 a 0.6673,0.6673 0 0 0 0.4,-0.76 z m 9.7,0 0.2,0.44 v 0 c 0.1,0.1 0.1,0.17 0.2,0.23 0,0 0,0 0,0 0.1,0.1 0.2,0.1 0.3,0.11 h 5.6 c 0.4,0 0.7,-0.3 0.7,-0.66 a 0.6433,0.6433 0 0 0 0,-0.16 z" transform="scale(0.75)" id="rect8195"></path>
    </g>
    <path id="path8039" d="m 51.7,31.79 v 1.02 c -1.1,0.18 -1.9,0.9 -1.9,1.95 0,1.37 0.9,1.79 2.3,2.09 1.3,0.32 1.5,0.51 1.5,0.96 0,0.54 -0.4,0.72 -1.2,0.72 -0.7,0 -1.3,-0.22 -1.8,-0.81 l -1,0.92 c 0.4,0.64 1.2,1.1 2.1,1.24 v 1 h 1.4 v -1 c 1.4,-0.21 2,-1.02 2,-2.16 0,-1.53 -1.3,-1.92 -2.4,-2.19 -1.1,-0.25 -1.4,-0.39 -1.4,-0.83 0,-0.3 0.3,-0.6 1,-0.6 0.7,0 1.2,0.27 1.6,0.75 l 1,-0.99 c -0.5,-0.54 -1.1,-0.9 -1.8,-1.05 v -1.02 z" style="display:inline;opacity:1;fill:#004153;stroke-width:0.9992"></path>
    <path style="display:inline;opacity:1;fill:#004153;stroke-width:0.9992" d="m 61.05,31.79 v 1.02 c -1.1,0.18 -1.9,0.9 -1.9,1.95 0,1.37 0.9,1.79 2.3,2.09 1.3,0.32 1.5,0.51 1.5,0.96 0,0.54 -0.4,0.72 -1.2,0.72 -0.7,0 -1.3,-0.22 -1.8,-0.81 l -1,0.92 c 0.4,0.64 1.2,1.1 2.1,1.24 v 1 h 1.4 v -1 c 1.4,-0.21 2,-1.02 2,-2.16 0,-1.53 -1.3,-1.92 -2.4,-2.19 -1.1,-0.25 -1.4,-0.39 -1.4,-0.83 0,-0.3 0.3,-0.6 1,-0.6 0.7,0 1.2,0.27 1.6,0.75 l 1,-0.99 c -0.5,-0.54 -1.1,-0.9 -1.8,-1.05 v -1.02 z" id="path8261"></path>
  </g>
  <metadata id="metadata8274">
    <rdf:rdf>
      <cc:work rdf:about="">
        <dc:title></dc:title>
      </cc:work>
    </rdf:rdf>
  </metadata>
</svg>
