<svg xmlns="http://www.w3.org/2000/svg" viewBox="0 0 10 10" >
  <path class="icon-shadow" d="M3.193 9.324L8.11 6.478l.275.241L3.47 9.566z" />
  <path class="fill-darker-slate" d="m 1.89,3.5 0,0.54 L 2.35,4.31 3.76,3.5 3.76,2.95 3.29,2.68 Z M 7.8,0.625 7.8,1.17 4.05,3.33 3.59,3.06 3.59,2.52 7.33,0.354 Z m -5.91,4.665 0,-0.54 0.93,-0.55 0.47,0.28 0,0.54 -0.94,0.54 z m 1.13,-1.2 0,0.54 L 3.48,4.9 7.8,2.41 7.8,1.87 7.33,1.6 Z M 1.48,6.9 1.95,7.17 2.42,6.9 2.42,6.36 1.95,6.09 1.48,6.36 Z M 2.57,5.72 2.57,6.26 3.03,6.53 7.8,3.78 7.8,3.24 7.33,2.97 Z m 0.23,1.64 0,-0.54 0.97,-0.56 0.47,0.27 0,0.54 -0.97,0.56 z M 4.05,6.1 4.05,6.64 4.52,6.91 7.8,5.02 7.8,4.48 7.33,4.21 Z m -2.16,2.97 0,-0.54 0.93,-0.54 0.47,0.27 0,0.54 -0.94,0.54 z M 3.02,7.88 3.02,8.42 3.48,8.69 7.8,6.2 7.8,5.65 7.33,5.38 Z" />
  <path class="fill-dark-slate" d="M3.292 2.684l.469.27-1.407.812-.468-.271zM7.335.354L3.586 2.519l.469.27L7.804.624zM1.886 4.746l.937-.541.469.271-.938.541zm5.445-3.148l.468.271-4.314 2.492-.469-.27zm0 1.371l.468.271-4.765 2.752-.468-.27zM2.8 6.821l.969-.559.468.27-.968.56zm4.528-2.615l.469.27L4.516 6.37l-.469-.27zM1.886 8.532l.937-.542.469.271-.938.541zm5.445-3.148l.468.27-4.314 2.493-.469-.271zm-5.852.973l.469-.271.469.271-.469.27z" />
  <path class="fill-slate" d="M3.761 3.495v-.541l-1.406.812v.541zM7.804.625v.541L4.055 3.33v-.541zm-5.45 4.933l.938-.541v-.541l-.938.541zM7.799 2.41L3.485 4.903v-.542l4.314-2.492zM2.417 6.898v-.541l-.469.27v.542zm5.382-3.117V3.24L3.035 5.992v.541zM4.237 6.532v.542l-.968.559v-.541zm3.56-1.515v-.541L4.516 6.37v.541zM2.354 9.343l.938-.541v-.541l-.938.541zm5.445-3.148L3.485 8.688v-.541l4.314-2.493z" />
</svg>