<svg xmlns="http://www.w3.org/2000/svg" viewBox="0 0 10 10" >
  <path class="icon-shadow" d="M3.193 9.324L8.11 6.478l.275.241L3.47 9.566z" />
  <path class="fill-darker-slate" d="M1.886 3.495v.542l.468.27 1.407-1.353zM7.804.625L4.055 3.33l-.469-.27v-.541zM1.886 5.288v-.542l1.406-.27-.938 1.082zm1.13-1.197v.541l.469.271 4.314-3.034zM1.479 6.898l.469.271.469-.812h-.938zm1.087-1.176v.541l.469.27L7.799 3.24zm.234 1.64v-.541c.487-.086 1.367.34 1.437-.289l-.968 1.101zM4.047 6.1v.541l.469.27 3.281-2.435zM1.886 9.073v-.541l1.406-.271-.938 1.082zm1.13-1.197v.541l.469.271 4.314-3.034z" />
  <path class="fill-dark-slate" d="M3.292 2.684l.469.27-1.407.812-.468-.271zM7.335.354L3.586 2.519l.469.27L7.804.624zM1.886 4.746l.937-.541.469.271-.938.541zm5.445-3.148l.468.271-4.314 2.492-.469-.27zm0 1.371l.468.271-4.765 2.752-.468-.27zM2.8 6.821l.969-.559.468.27-.968.56zm4.528-2.615l.469.27L4.516 6.37l-.469-.27zM1.886 8.532l.937-.542.469.271-.938.541zm5.445-3.148l.468.27-4.314 2.493-.469-.271zm-5.852.973l.469-.271.469.271-.469.27z" />
  <path class="fill-slate" d="M3.761 3.495v-.541l-1.406.812v.541zM7.804.625v.541L4.055 3.33v-.541zm-5.45 4.933l.938-.541v-.541l-.938.541zM7.799 2.41L3.485 4.903v-.542l4.314-2.492zM2.417 6.898v-.541l-.469.27v.542zm5.382-3.117V3.24L3.035 5.992v.541zM4.237 6.532v.542l-.968.559v-.541zm3.56-1.515v-.541L4.516 6.37v.541zM2.354 9.343l.938-.541v-.541l-.938.541zm5.445-3.148L3.485 8.688v-.541l4.314-2.493z" />
</svg>