<?xml version="1.0" encoding="UTF-8" standalone="no"?>
<svg
   xmlns:dc="http://purl.org/dc/elements/1.1/"
   xmlns:cc="http://creativecommons.org/ns#"
   xmlns:rdf="http://www.w3.org/1999/02/22-rdf-syntax-ns#"
   xmlns:svg="http://www.w3.org/2000/svg"
   xmlns="http://www.w3.org/2000/svg"
   id="svg10"
   version="1.1"
   width="652.22"
   height="548.79"
   viewBox="0 0 652.22 548.79"
   xml:space="preserve"><metadata
     id="metadata16"><rdf:RDF><cc:Work
         rdf:about=""><dc:format>image/svg+xml</dc:format><dc:type
           rdf:resource="http://purl.org/dc/dcmitype/StillImage" /><dc:title></dc:title></cc:Work></rdf:RDF></metadata><defs
     id="defs14" /><path
     id="XMLID_8709_"
     class="st0"
     d="m 504.82,395.12 c -66.55,0 -120.7,-54.16 -120.7,-120.71 0,-66.57 54.15,-120.73 120.7,-120.73 66.58,0 120.73,54.16 120.73,120.73 0,66.58 -54.18,120.71 -120.73,120.71 z"
     style="fill:#ffffff;stroke-width:2.7009" /><path
     id="XMLID_8705_"
     d="M 503.74,126.05 C 462.93,61.96 397.49,23.72 328.63,23.69 c -50.92,0 -100.08,20.66 -139.05,58.2 l -7.17,-6.21 c -0.43,-0.38 -1,-0.51 -1.54,-0.35 -0.54,0.27 -0.95,0.57 -1.14,1.11 l -9.23,31.25 c -0.27,0.59 0,1.27 0.48,1.7 v 0 c 0.49,0.43 1.17,0.54 1.76,0.27 l 29.82,-13.43 c 0.51,-0.27 0.86,-0.7 0.94,-1.27 0,-0.56 0,-1.1 -0.54,-1.48 l -5.59,-4.84 c 36.92,-35.27 83.32,-54.66 131.26,-54.66 65.31,0 127.51,36.49 166.44,97.58 0.98,1.54 2.65,2.38 4.35,2.38 0.95,0 1.89,-0.27 2.76,-0.81 2.4,-1.49 3.1,-4.67 1.56,-7.08 z m -11.21,296.72 v 0 c -0.57,-0.32 -1.25,-0.32 -1.78,0 l -27.1,18.34 c -0.46,0.3 -0.73,0.84 -0.73,1.41 0,0.56 0.33,1.08 0.81,1.37 l 7.48,4.51 c -38.62,42.81 -88.94,66.39 -142.55,66.39 v 0 c -58.74,0 -114.92,-29.19 -154.17,-80.11 -1.72,-2.24 -4.94,-2.67 -7.21,-0.91 -2.24,1.72 -2.67,4.97 -0.92,7.21 41.19,53.45 100.34,84.1 162.33,84.1 v 0 c 57.23,0 110.82,-25.33 151.55,-71.27 l 6.83,4.1 c 0.49,0.3 1.08,0.33 1.57,0 0.51,-0.27 0.84,-0.73 0.91,-1.29 l 3.76,-32.36 c 0,-0.62 -0.27,-1.24 -0.76,-1.59 z" /><path
     id="XMLID_8701_"
     d="M 504.81,153 A 121.41,121.41 0 0 0 383.4,274.41 121.41,121.41 0 0 0 504.81,395.82 121.41,121.41 0 0 0 626.22,274.41 121.41,121.41 0 0 0 504.81,153 Z m -289.87,30.61 a 60.932,60.932 0 0 0 -60.94,60.93 60.932,60.932 0 0 0 4.6,23.09 62.607,62.607 0 0 0 -38.65,-13.45 62.607,62.607 0 0 0 -62.612,62.61 62.607,62.607 0 0 0 62.612,62.61 62.607,62.607 0 0 0 62.6,-62.61 62.607,62.607 0 0 0 -4.91,-24.16 60.932,60.932 0 0 0 37.3,12.84 60.932,60.932 0 0 0 60.93,-60.93 60.932,60.932 0 0 0 -60.93,-60.93 z"
     style="fill:#efab1f;stroke-width:2.7009" /><path
     id="XMLID_8697_"
     d="m 178.79,139.93 a 31.628,31.628 0 0 0 -31.62,31.63 31.628,31.628 0 0 0 31.62,31.63 31.628,31.628 0 0 0 31.63,-31.63 31.628,31.628 0 0 0 -31.63,-31.63 z m 21.01,168.16 a 28.63,28.63 0 0 0 -28.62,28.63 28.63,28.63 0 0 0 28.62,28.63 28.63,28.63 0 0 0 28.64,-28.63 28.63,28.63 0 0 0 -28.64,-28.63 z M 76.244,348.96 a 15.233,15.233 0 0 0 -15.232,15.23 15.233,15.233 0 0 0 15.232,15.23 15.233,15.233 0 0 0 15.235,-15.23 15.233,15.233 0 0 0 -15.235,-15.23 z"
     style="fill:#ec8123;stroke-width:2.7009" /><path
     class="fill-shade"
     icon-fill-shade=""
     id="XMLID_8665_"
     d="m 490.4,153.9 c -60.4,7 -107.3,58.3 -107.3,120.5 0,67.1 54.4,121.4 121.4,121.4 24.6,0 47.4,-7.3 66.5,-19.9 -39.1,-11.6 -73.4,-33.8 -90.9,-74.9 -21.7,-51.3 -19,-108.9 10.3,-147.1 z m -273.3,28.2 c 5.1,14.8 8,30.1 7.9,44.8 -0.3,30.2 -10.4,56.6 -28.5,77.5 5.4,1.5 10.9,2.6 16.8,2.6 34.5,0 62.6,-28.1 62.6,-62.7 0,-33.2 -26,-60.2 -58.8,-62.2 z m -93.3,72.5 c 5,14.7 8,30 7.9,44.7 -0.3,30.2 -10.4,56.7 -28.5,77.5 5.3,1.5 10.9,2.6 16.7,2.6 34.6,0 62.6,-28 62.6,-62.6 0,-33.3 -26,-60.2 -58.7,-62.2 z" /><path
     id="XMLID_8686_"
     d="m 133.96,207.6 a 31.303,31.303 0 0 0 -31.31,31.3 31.303,31.303 0 0 0 31.31,31.3 31.303,31.303 0 0 0 31.3,-31.3 31.303,31.303 0 0 0 -31.3,-31.3 z m 99.23,86.61 a 18.042,18.042 0 0 0 -18.05,18.04 18.042,18.042 0 0 0 18.05,18.04 18.042,18.042 0 0 0 18.04,-18.04 18.042,18.042 0 0 0 -18.04,-18.04 z m -80.48,69.98 a 18.42,18.42 0 0 0 -18.42,18.42 18.42,18.42 0 0 0 18.42,18.42 18.42,18.42 0 0 0 18.41,-18.42 18.42,18.42 0 0 0 -18.41,-18.42 z"
     style="fill:#e0bb24;stroke-width:2.7009" /><path
     id="XMLID_8689_"
     d="m 76.244,183.29 a 32.033,32.033 0 0 0 -32.031,32.03 32.033,32.033 0 0 0 32.031,32.03 32.033,32.033 0 0 0 32.036,-32.03 32.033,32.033 0 0 0 -32.036,-32.03 z m -16.75,109.9 a 33.491,33.491 0 0 0 -33.49,33.49 33.491,33.491 0 0 0 33.49,33.49 33.491,33.491 0 0 0 33.492,-33.49 33.491,33.491 0 0 0 -33.492,-33.49 z"
     style="fill:#dd9a27;stroke-width:2.7009" /><path
     id="XMLID_8685_"
     d="m 139.41,188.71 a 13.315,13.315 0 0 0 -13.31,13.32 13.315,13.315 0 0 0 13.31,13.32 13.315,13.315 0 0 0 13.32,-13.32 13.315,13.315 0 0 0 -13.32,-13.32 z M 76.244,240.92 A 16.746,16.746 0 0 0 59.498,257.67 16.746,16.746 0 0 0 76.244,274.42 16.746,16.746 0 0 0 92.99,257.67 16.746,16.746 0 0 0 76.244,240.92 Z"
     style="fill:#cc6a28;stroke-width:2.7009" /></svg>