<?xml version="1.0"?>

<svg xmlns="http://www.w3.org/2000/svg" xml:space="preserve" viewBox="0 0 652.22 548.79" height="548.79" width="652.22"><path style="fill:#ffffff;stroke-width:2.7009" d="m 504.82,395.12 c -66.55,0 -120.7,-54.16 -120.7,-120.71 0,-66.57 54.15,-120.73 120.7,-120.73 66.58,0 120.73,54.16 120.73,120.73 0,66.58 -54.18,120.71 -120.73,120.71 z" class="st0" id="XMLID_8709_"></path><path d="M 503.74,126.05 C 462.93,61.96 397.49,23.72 328.63,23.69 c -50.92,0 -100.08,20.66 -139.05,58.2 l -7.17,-6.21 c -0.43,-0.38 -1,-0.51 -1.54,-0.35 -0.54,0.27 -0.95,0.57 -1.14,1.11 l -9.23,31.25 c -0.27,0.59 0,1.27 0.48,1.7 v 0 c 0.49,0.43 1.17,0.54 1.76,0.27 l 29.82,-13.43 c 0.51,-0.27 0.86,-0.7 0.94,-1.27 0,-0.56 0,-1.1 -0.54,-1.48 l -5.59,-4.84 c 36.92,-35.27 83.32,-54.66 131.26,-54.66 65.31,0 127.51,36.49 166.44,97.58 0.98,1.54 2.65,2.38 4.35,2.38 0.95,0 1.89,-0.27 2.76,-0.81 2.4,-1.49 3.1,-4.67 1.56,-7.08 z m -11.21,296.72 v 0 c -0.57,-0.32 -1.25,-0.32 -1.78,0 l -27.1,18.34 c -0.46,0.3 -0.73,0.84 -0.73,1.41 0,0.56 0.33,1.08 0.81,1.37 l 7.48,4.51 c -38.62,42.81 -88.94,66.39 -142.55,66.39 v 0 c -58.74,0 -114.92,-29.19 -154.17,-80.11 -1.72,-2.24 -4.94,-2.67 -7.21,-0.91 -2.24,1.72 -2.67,4.97 -0.92,7.21 41.19,53.45 100.34,84.1 162.33,84.1 v 0 c 57.23,0 110.82,-25.33 151.55,-71.27 l 6.83,4.1 c 0.49,0.3 1.08,0.33 1.57,0 0.51,-0.27 0.84,-0.73 0.91,-1.29 l 3.76,-32.36 c 0,-0.62 -0.27,-1.24 -0.76,-1.59 z" id="XMLID_8705_"></path><path style="fill:#efab1f;stroke-width:2.7009" d="M 504.81,153 A 121.41,121.41 0 0 0 383.4,274.41 121.41,121.41 0 0 0 504.81,395.82 121.41,121.41 0 0 0 626.22,274.41 121.41,121.41 0 0 0 504.81,153 Z m -289.87,30.61 a 60.932,60.932 0 0 0 -60.94,60.93 60.932,60.932 0 0 0 4.6,23.09 62.607,62.607 0 0 0 -38.65,-13.45 62.607,62.607 0 0 0 -62.612,62.61 62.607,62.607 0 0 0 62.612,62.61 62.607,62.607 0 0 0 62.6,-62.61 62.607,62.607 0 0 0 -4.91,-24.16 60.932,60.932 0 0 0 37.3,12.84 60.932,60.932 0 0 0 60.93,-60.93 60.932,60.932 0 0 0 -60.93,-60.93 z" id="XMLID_8701_"></path><path style="fill:#ec8123;stroke-width:2.7009" d="m 178.79,139.93 a 31.628,31.628 0 0 0 -31.62,31.63 31.628,31.628 0 0 0 31.62,31.63 31.628,31.628 0 0 0 31.63,-31.63 31.628,31.628 0 0 0 -31.63,-31.63 z m 21.01,168.16 a 28.63,28.63 0 0 0 -28.62,28.63 28.63,28.63 0 0 0 28.62,28.63 28.63,28.63 0 0 0 28.64,-28.63 28.63,28.63 0 0 0 -28.64,-28.63 z M 76.244,348.96 a 15.233,15.233 0 0 0 -15.232,15.23 15.233,15.233 0 0 0 15.232,15.23 15.233,15.233 0 0 0 15.235,-15.23 15.233,15.233 0 0 0 -15.235,-15.23 z" id="XMLID_8697_"></path><path style="opacity:0.12;fill:#044253;stroke-width:2.7009" d="m 490.43,153.9 c -60.39,6.99 -107.29,58.26 -107.29,120.51 0,67.07 54.37,121.41 121.4,121.41 24.56,0 47.39,-7.35 66.48,-19.88 -39.13,-11.61 -73.44,-33.87 -90.87,-74.98 -21.71,-51.23 -19,-108.82 10.28,-147.06 z M 217.1,182.12 c 5.05,14.75 7.98,30.04 7.87,44.73 -0.27,30.2 -10.39,56.66 -28.49,77.54 5.37,1.52 10.92,2.57 16.78,2.57 34.57,0 62.61,-28.04 62.61,-62.61 0,-33.27 -26.01,-60.23 -58.77,-62.23 z m -93.32,72.44 c 5.05,14.75 7.99,30.04 7.88,44.73 -0.27,30.19 -10.4,56.66 -28.5,77.54 5.38,1.51 10.92,2.57 16.79,2.57 34.57,0 62.59,-28.04 62.59,-62.61 0,-33.25 -26,-60.2 -58.76,-62.23 z" id="XMLID_8665_"></path><path style="fill:#e0bb24;stroke-width:2.7009" d="m 133.96,207.6 a 31.303,31.303 0 0 0 -31.31,31.3 31.303,31.303 0 0 0 31.31,31.3 31.303,31.303 0 0 0 31.3,-31.3 31.303,31.303 0 0 0 -31.3,-31.3 z m 99.23,86.61 a 18.042,18.042 0 0 0 -18.05,18.04 18.042,18.042 0 0 0 18.05,18.04 18.042,18.042 0 0 0 18.04,-18.04 18.042,18.042 0 0 0 -18.04,-18.04 z m -80.48,69.98 a 18.42,18.42 0 0 0 -18.42,18.42 18.42,18.42 0 0 0 18.42,18.42 18.42,18.42 0 0 0 18.41,-18.42 18.42,18.42 0 0 0 -18.41,-18.42 z" id="XMLID_8686_"></path><path style="fill:#dd9a27;stroke-width:2.7009" d="m 76.244,183.29 a 32.033,32.033 0 0 0 -32.031,32.03 32.033,32.033 0 0 0 32.031,32.03 32.033,32.033 0 0 0 32.036,-32.03 32.033,32.033 0 0 0 -32.036,-32.03 z m -16.75,109.9 a 33.491,33.491 0 0 0 -33.49,33.49 33.491,33.491 0 0 0 33.49,33.49 33.491,33.491 0 0 0 33.492,-33.49 33.491,33.491 0 0 0 -33.492,-33.49 z" id="XMLID_8689_"></path><path style="fill:#cc6a28;stroke-width:2.7009" d="m 139.41,188.71 a 13.315,13.315 0 0 0 -13.31,13.32 13.315,13.315 0 0 0 13.31,13.32 13.315,13.315 0 0 0 13.32,-13.32 13.315,13.315 0 0 0 -13.32,-13.32 z M 76.244,240.92 A 16.746,16.746 0 0 0 59.498,257.67 16.746,16.746 0 0 0 76.244,274.42 16.746,16.746 0 0 0 92.99,257.67 16.746,16.746 0 0 0 76.244,240.92 Z" id="XMLID_8685_"></path></svg>