<?xml version="1.0" encoding="UTF-8" standalone="no"?>
<svg xmlns="http://www.w3.org/2000/svg"  viewBox="0 0 10 10">
   <path class="fill-grey"   d="m 1.307,3.155 c 0,-0.1 0.01,-0.188 0.02,-0.287 L 0.7416,2.657 c 0.022,-0.156 0.067,-0.31 0.111,-0.455 L 1.473,2.313 C 1.55,2.139 1.65,1.968 1.761,1.828 L 1.362,1.339 C 1.462,1.214 1.573,1.103 1.684,1.006 L 2.171,1.413 C 2.327,1.295 2.481,1.206 2.67,1.125 L 2.559,0.5032 C 2.703,0.4514 2.848,0.4144 3.002,0.3848 l 0.222,0.5994 c 0.09,-0.015 0.189,-0.022 0.278,-0.022 0.1,0 0.199,0.01 0.288,0.022 L 4.001,0.3848 c 0.165,0.03 0.31,0.067 0.454,0.1184 L 4.344,1.125 c 0.178,0.08 0.343,0.17 0.499,0.288 L 5.319,1.006 c 0.122,0.1 0.233,0.208 0.332,0.333 L 5.253,1.828 C 5.364,1.968 5.464,2.139 5.53,2.313 L 6.151,2.202 c 0.06,0.145 0.1,0.299 0.121,0.455 L 5.685,2.868 c 0.01,0.1 0.02,0.187 0.02,0.287 0,0.1 -0.01,0.189 -0.02,0.289 l 0.587,0.21 C 6.25,3.81 6.206,3.965 6.151,4.108 L 5.53,3.998 C 5.464,4.175 5.364,4.342 5.253,4.486 L 5.651,4.974 C 5.552,5.095 5.441,5.206 5.319,5.306 L 4.843,4.896 C 4.687,5.018 4.522,5.106 4.344,5.184 L 4.455,5.805 C 4.311,5.86 4.166,5.893 4.012,5.927 L 3.79,5.328 C 3.701,5.339 3.601,5.35 3.502,5.35 3.413,5.35 3.313,5.339 3.224,5.328 L 3.002,5.927 C 2.848,5.893 2.703,5.86 2.559,5.805 L 2.67,5.184 C 2.481,5.106 2.327,5.018 2.171,4.896 L 1.684,5.306 C 1.573,5.206 1.462,5.095 1.362,4.974 L 1.761,4.486 C 1.65,4.342 1.55,4.175 1.473,3.998 L 0.8526,4.108 C 0.8082,3.965 0.7638,3.81 0.7416,3.654 L 1.329,3.444 C 1.318,3.344 1.307,3.255 1.307,3.155 Z m 5.675,4.526 c 0.01,-0.155 0.01,-0.325 0,-0.481 L 6.361,7.156 C 6.317,6.935 6.239,6.735 6.118,6.559 L 6.517,6.082 C 6.417,5.96 6.306,5.849 6.184,5.749 L 5.707,6.148 C 5.53,6.027 5.33,5.949 5.108,5.904 l -0.05,-0.62 c -0.156,-0.01 -0.311,-0.01 -0.467,0 l -0.05,0.62 C 4.322,5.949 4.111,6.027 3.945,6.148 L 3.469,5.749 C 3.346,5.849 3.235,5.96 3.136,6.082 L 3.534,6.559 C 3.413,6.735 3.324,6.935 3.291,7.156 L 2.67,7.2 c -0.02,0.156 -0.02,0.326 0,0.481 l 0.621,0.04 C 3.324,7.948 3.413,8.14 3.534,8.318 L 3.136,8.799 c 0.1,0.118 0.21,0.229 0.333,0.333 l 0.476,-0.4 c 0.166,0.118 0.377,0.2 0.588,0.244 l 0.05,0.622 c 0.156,0 0.311,0 0.467,0 L 5.108,8.976 C 5.33,8.932 5.53,8.85 5.707,8.732 l 0.477,0.4 C 6.306,9.028 6.417,8.917 6.517,8.799 L 6.118,8.318 C 6.239,8.14 6.317,7.948 6.361,7.726 Z M 8.508,2.559 C 8.456,2.469 8.397,2.389 8.33,2.32 L 8.582,1.761 C 8.456,1.672 8.323,1.598 8.182,1.524 L 7.827,2.05 C 7.635,1.998 7.42,1.991 7.235,2.05 L 6.861,1.547 C 6.726,1.606 6.59,1.695 6.465,1.776 L 6.733,2.34 C 6.584,2.489 6.488,2.664 6.437,2.862 l -0.612,0.07 c -0.02,0.155 -0.01,0.31 0,0.466 l 0.631,0.04 c 0.02,0.09 0.06,0.191 0.112,0.281 0.05,0.09 0.116,0.16 0.191,0.229 L 6.487,4.516 C 6.616,4.609 6.759,4.681 6.9,4.753 l 0.35,-0.52 c 0.192,0.05 0.4,0.05 0.599,0 L 8.212,4.734 C 8.36,4.673 8.486,4.589 8.619,4.504 L 8.338,3.939 C 8.486,3.79 8.597,3.605 8.634,3.417 l 0.621,-0.07 c 0.02,-0.154 0.01,-0.31 0,-0.466 L 8.634,2.841 C 8.604,2.751 8.575,2.65 8.508,2.559 Z"      />
  <path  class="fill-shade"  d="M 8.508,2.559 C 8.456,2.469 8.397,2.389 8.33,2.32 L 8.582,1.761 C 8.456,1.672 8.323,1.598 8.182,1.524 L 7.827,2.05 C 7.727,2.02 7.627,2.01 7.531,2.01 l 0.02,2.265 c 0.104,0 0.207,-0.01 0.303,-0.04 L 8.212,4.733 C 8.36,4.672 8.486,4.588 8.619,4.504 L 8.338,3.939 C 8.486,3.79 8.597,3.605 8.634,3.417 l 0.621,-0.07 c 0.02,-0.154 0.01,-0.31 0,-0.466 L 8.634,2.841 C 8.604,2.751 8.575,2.65 8.508,2.559 Z"    />
  <path class="fill-mid-grey"      d="m 4.82,8.451 c -0.554,0 -1.008,-0.452 -1.008,-1.007 0,-0.564 0.454,-1.019 1.008,-1.019 0.566,0 1.009,0.455 1.009,1.019 0,0.481 -0.439,1.007 -1.009,1.007 z"     />
  <path class="shade fill-light-grey"      d="m 3.513,0.962 c -0.1,0 -0.2,0.01 -0.289,0.022 L 3.013,0.3848 c -0.165,0.03 -0.31,0.067 -0.454,0.1184 L 2.67,1.125 C 2.492,1.206 2.327,1.295 2.171,1.413 L 1.695,1.006 C 1.573,1.103 1.462,1.214 1.362,1.339 L 1.761,1.828 C 1.65,1.968 1.55,2.139 1.484,2.313 L 0.863,2.202 C 0.8082,2.347 0.7638,2.501 0.7416,2.657 L 1.329,2.868 c -0.01,0.1 -0.02,0.187 -0.02,0.287 0,0.1 0.01,0.189 0.02,0.289 L 0.7416,3.654 C 0.7638,3.81 0.8082,3.965 0.863,4.108 L 1.484,3.998 C 1.55,4.175 1.65,4.342 1.761,4.486 L 1.362,4.974 c 0.1,0.121 0.211,0.232 0.333,0.332 L 2.171,4.896 C 2.327,5.018 2.492,5.106 2.67,5.184 L 2.559,5.805 c 0.144,0.06 0.289,0.09 0.443,0.122 L 3.224,5.328 c 0.09,0.01 0.189,0.02 0.289,0.02 z"  />
  <path class="fill-grey"     d="m 3.513,2.153 c 0.553,0 1.009,0.454 1.009,1.008 0,0.555 -0.456,1.009 -1.009,1.009 -0.565,0 -1.021,-0.454 -1.021,-1.009 0,-0.592 0.439,-1.008 1.021,-1.008 z"   />
  <path class="fill-mid-grey shade"  d="m 3.513,2.153 c 0.553,0 1.009,0.454 1.009,1.008 0,0.555 -0.456,1.009 -1.009,1.009 z"  />
  <path class="fill-light-shade"   d="m 5.33,7.444 c 0,0.289 -0.222,0.511 -0.51,0.511 -0.287,0 -0.509,-0.222 -0.509,-0.511 0,-0.288 0.222,-0.509 0.509,-0.509 0.288,0 0.51,0.221 0.51,0.509 z"    />
  <path class="fill-lighter-grey"   d="M 8.049,3.152 C 8.034,3.44 7.805,3.654 7.516,3.644 7.228,3.633 7.017,3.404 7.027,3.115 7.038,2.828 7.265,2.614 7.553,2.625 c 0.289,0.01 0.504,0.24 0.496,0.527 z"  />
  <path class="fill-lighter-grey"  d="m 4.023,3.155 c 0,0.289 -0.222,0.51 -0.51,0.51 -0.289,0 -0.511,-0.221 -0.511,-0.51 0,-0.287 0.222,-0.509 0.511,-0.509 0.288,0 0.51,0.222 0.51,0.509 z"    />
  <path class="fill-light-shade shade"   d="m 4.023,3.155 c 0,0.289 -0.222,0.51 -0.51,0.51 V 2.646 c 0.288,0 0.51,0.222 0.51,0.509 z" />
  <path  class="fill-light-shade shade"  d="M 7.516,3.644 C 7.228,3.633 7.017,3.404 7.027,3.115 7.038,2.828 7.265,2.614 7.553,2.625 Z"  />
  <path  class="fill-light-shade shade"  d="m 4.82,5.275 c -0.08,0 -0.155,0 -0.233,0 l -0.05,0.62 C 4.322,5.949 4.111,6.027 3.945,6.148 L 3.469,5.749 C 3.346,5.849 3.235,5.96 3.136,6.082 L 3.534,6.559 C 3.413,6.735 3.324,6.935 3.291,7.156 L 2.67,7.2 c -0.02,0.156 -0.02,0.326 0,0.481 l 0.621,0.04 C 3.324,7.948 3.413,8.14 3.534,8.318 L 3.136,8.799 c 0.1,0.118 0.21,0.229 0.333,0.333 l 0.476,-0.4 c 0.166,0.118 0.377,0.2 0.588,0.244 l 0.05,0.622 c 0.08,0 0.156,0 0.233,0 z"  />
</svg>
