<?xml version="1.0"?>

<svg xmlns:dc="http://purl.org/dc/elements/1.1/" xmlns:cc="http://creativecommons.org/ns#" xmlns:rdf="http://www.w3.org/1999/02/22-rdf-syntax-ns#" xmlns:svg="http://www.w3.org/2000/svg" xmlns="http://www.w3.org/2000/svg" id="svg6" version="1.1" class="icon icon-network stroked" viewBox="0 0 144 144" height="144" width="144">
  <metadata id="metadata12">
    <rdf:rdf>
      <cc:work rdf:about="">
        <dc:format>image/svg+xml</dc:format>
        <dc:type rdf:resource="http://purl.org/dc/dcmitype/StillImage"></dc:type>
        <dc:title></dc:title>
      </cc:work>
    </rdf:rdf>
  </metadata>
  <defs id="defs10"></defs>
  <path id="path7920" d="m 119.34192,39.082049 c -0.70538,-1.224488 -1.56584,-2.304666 -2.43169,-3.235151 l 3.41829,-7.521292 c -1.75323,-1.262191 -3.51724,-2.224995 -5.43096,-3.193185 l -4.74937,7.02373 c -2.67295,-0.695734 -5.51714,-0.798079 -8.09427,0.0085 l -5.00229,-6.775075 c -1.828649,0.833528 -3.668072,1.966443 -5.357802,3.104747 l 3.622726,7.624762 c -2.021436,2.025694 -3.305174,4.37771 -4.000908,7.050662 l -8.276277,0.901296 c -0.225106,2.090334 -0.150823,4.191439 -0.07654,6.292546 l 8.521799,0.606419 c 0.256298,1.208328 0.806596,2.577123 1.511974,3.801608 0.70538,1.224487 1.571227,2.154972 2.586768,3.090843 l -3.573372,7.665598 c 1.753238,1.262193 3.666946,2.230383 5.580652,3.198573 l 4.74938,-7.023729 c 2.52325,0.690347 5.37283,0.642996 8.09426,-0.0085 l 4.85261,6.769688 c 1.97833,-0.828142 3.66807,-1.966444 5.50749,-3.09936 l -3.77242,-7.630149 c 2.02143,-2.025696 3.46025,-4.522019 4.00091,-7.050662 l 8.42598,-0.895911 c 0.2251,-2.090333 0.15081,-4.19144 -0.0731,-6.297932 l -8.37211,-0.601032 c -0.406,-1.213714 -0.8066,-2.577122 -1.66167,-3.806994 z" style="fill:#e5e5e5;stroke-width:1.49791145"></path>
  <path style="fill:#d9d9d9;fill-opacity:1;stroke-width:1.49791145" d="m 119.34192,39.082049 c -0.70538,-1.224488 -1.56584,-2.304666 -2.43169,-3.235151 l 3.41829,-7.521292 c -1.75323,-1.262191 -3.51724,-2.224995 -5.43096,-3.193185 l -4.74937,7.02373 c -1.33648,-0.347868 -2.71576,-0.547387 -4.08307,-0.559115 l 0.24773,30.604821 c 1.36798,-0.007 2.76073,-0.1817 4.12144,-0.507456 l 4.85261,6.769688 c 1.97833,-0.828142 3.66807,-1.966444 5.50749,-3.09936 l -3.77242,-7.630149 c 2.02143,-2.025696 3.46025,-4.522019 4.00091,-7.050662 l 8.42598,-0.895911 c 0.2251,-2.090333 0.15081,-4.19144 -0.0731,-6.297932 l -8.37211,-0.601032 c -0.406,-1.213714 -0.8066,-2.577122 -1.66167,-3.806994 z" id="path7948"></path>
  <path id="path7918" d="m 98.679658,108.25568 c 0.149791,-2.09707 0.149791,-4.34394 0,-6.44102 l -8.388305,-0.59916 c -0.599164,-2.995825 -1.647702,-5.692066 -3.295405,-8.088724 l 5.392481,-6.44102 c -1.34812,-1.647702 -2.846031,-3.145614 -4.493734,-4.493734 l -6.44102,5.392481 c -2.396658,-1.647702 -5.092899,-2.69624 -8.088722,-3.295405 l -0.748955,-8.388304 c -2.097076,-0.149791 -4.194152,-0.149791 -6.291229,0 l -0.748955,8.388304 c -2.846032,0.599165 -5.692064,1.647703 -7.938931,3.295405 l -6.44102,-5.392481 c -1.647702,1.34812 -3.145614,2.846032 -4.493734,4.493734 l 5.392481,6.44102 c -1.647702,2.396658 -2.846031,5.092899 -3.295405,8.088724 l -8.388304,0.59916 c -0.299583,2.09708 -0.299583,4.34395 0,6.44102 l 8.388304,0.59917 c 0.449374,2.99582 1.647703,5.69206 3.295405,8.08872 l -5.392481,6.44102 c 1.34812,1.6477 2.846032,3.14561 4.493734,4.49373 l 6.44102,-5.39248 c 2.246867,1.6477 5.092899,2.69624 7.938931,3.29541 l 0.748955,8.3883 c 2.097077,0.14979 4.194153,0.14979 6.291229,0 l 0.748955,-8.3883 c 2.995823,-0.59917 5.692064,-1.64771 8.088722,-3.29541 l 6.44102,5.39248 c 1.647703,-1.34812 3.145614,-2.84603 4.493734,-4.49373 l -5.392481,-6.44102 c 1.647703,-2.39666 2.696241,-5.0929 3.295405,-8.08872 z" style="fill:#e5e5e5;stroke-width:1.49791145"></path>
  <path id="path2" d="m 21.986589,47.140893 c 0,-1.34812 0.149792,-2.546449 0.299583,-3.89457 l -7.938931,-2.846031 c 0.299582,-2.097077 0.898747,-4.194153 1.497911,-6.141438 l 8.388305,1.497912 c 1.048538,-2.396658 2.396658,-4.643526 3.89457,-6.590811 l -5.392482,-6.59081 c 1.348121,-1.647703 2.846032,-3.145614 4.343944,-4.493735 l 6.59081,5.542273 c 2.097076,-1.647703 4.194152,-2.846032 6.740602,-3.89457 l -1.497912,-8.388304 c 1.947285,-0.748956 3.89457,-1.198329 5.991646,-1.6477029 l 2.995823,8.0887219 c 1.198329,-0.149791 2.54645,-0.299582 3.744779,-0.299582 1.34812,0 2.696241,0.149791 3.89457,0.299582 l 2.846032,-8.0887219 c 2.246867,0.4493739 4.194152,0.8987469 6.141437,1.6477029 l -1.497912,8.388304 c 2.396659,1.048538 4.643526,2.246867 6.740602,3.89457 l 6.441019,-5.542273 c 1.647703,1.348121 3.145614,2.846032 4.493735,4.493735 l -5.392482,6.59081 c 1.497912,1.947285 2.846032,4.194153 3.744779,6.590811 l 8.388304,-1.497912 c 0.748956,1.947285 1.348121,4.044361 1.647703,6.141438 l -7.938931,2.846031 c 0.149791,1.348121 0.299582,2.54645 0.299582,3.89457 0,1.348121 -0.149791,2.54645 -0.299582,3.89457 l 7.938931,2.846032 c -0.299582,2.097076 -0.898747,4.194152 -1.647703,6.141437 l -8.388304,-1.497911 c -0.898747,2.396658 -2.246867,4.643525 -3.744779,6.59081 l 5.392482,6.590811 c -1.348121,1.647702 -2.846032,3.145614 -4.493735,4.493734 l -6.441019,-5.542272 c -2.097076,1.647702 -4.343943,2.846031 -6.740602,3.894569 l 1.497912,8.388305 c -1.947285,0.748955 -3.89457,1.198329 -5.991646,1.647702 l -2.995823,-8.088722 c -1.198329,0.149792 -2.54645,0.299583 -3.89457,0.299583 -1.198329,0 -2.54645,-0.149791 -3.744779,-0.299583 l -2.995823,8.088722 c -2.097076,-0.449373 -4.044361,-0.898747 -5.991646,-1.647702 l 1.497912,-8.388305 c -2.54645,-1.048538 -4.643526,-2.246867 -6.740602,-3.894569 l -6.59081,5.542272 c -1.497912,-1.34812 -2.995823,-2.846032 -4.343944,-4.493734 l 5.392482,-6.590811 c -1.497912,-1.947285 -2.846032,-4.194152 -3.89457,-6.59081 l -8.388305,1.497911 c -0.599164,-1.947285 -1.198329,-4.044361 -1.497911,-6.141437 l 7.938931,-2.846032 c -0.149791,-1.34812 -0.299583,-2.546449 -0.299583,-3.89457 z" style="fill:#dcdcdc;fill-opacity:1;stroke-width:1.49791145"></path>
  <path id="path7912" d="m 69.470384,118.74106 c -7.489558,0 -13.630995,-6.14143 -13.630995,-13.63099 0,-7.639351 6.141437,-13.780788 13.630995,-13.780788 7.639348,0 13.630994,6.141437 13.630994,13.780788 0,6.50778 -5.937048,13.63099 -13.630994,13.63099 z" style="fill:#bfbfbf;fill-opacity:1;stroke-width:1.49791145"></path>
  <path style="fill:#ececec;fill-opacity:1;stroke-width:1.49791145" d="m 51.795028,17.482246 c -1.34812,0 -2.696241,0.149791 -3.89457,0.299582 L 45.054426,9.6931061 C 42.807559,10.14248 40.860274,10.591853 38.912989,11.340809 l 1.497912,8.388304 c -2.396659,1.048538 -4.643526,2.246867 -6.740602,3.89457 L 27.22928,18.08141 c -1.647703,1.348121 -3.145614,2.846032 -4.493735,4.493735 l 5.392482,6.59081 c -1.497912,1.947285 -2.846032,4.194153 -3.744779,6.590811 l -8.388304,-1.497912 c -0.748956,1.947285 -1.348121,4.044361 -1.647703,6.141438 l 7.938931,2.846031 c -0.149791,1.348121 -0.299583,2.54645 -0.299583,3.89457 0,1.348121 0.149792,2.54645 0.299583,3.89457 l -7.938931,2.846032 c 0.299582,2.097076 0.898747,4.194152 1.647703,6.141437 l 8.388304,-1.497911 c 0.898747,2.396658 2.246867,4.643525 3.744779,6.59081 l -5.392482,6.590811 c 1.348121,1.647702 2.846032,3.145614 4.493735,4.493734 l 6.441019,-5.542272 c 2.097076,1.647702 4.343943,2.846031 6.740602,3.894569 l -1.497912,8.388305 c 1.947285,0.748955 3.89457,1.198329 5.991646,1.647702 l 2.995823,-8.088722 c 1.198329,0.149792 2.54645,0.299583 3.89457,0.299583 z" id="path7922"></path>
  <path id="path7910" d="m 51.795028,33.585696 c 7.489557,0 13.630995,6.141437 13.630995,13.630995 0,7.489557 -6.141438,13.630994 -13.630995,13.630994 -7.639349,0 -13.780786,-6.141437 -13.780786,-13.630994 0,-7.992681 5.913139,-13.630995 13.780786,-13.630995 z" style="fill:#d9d9d9;fill-opacity:1;stroke-width:1.49791145"></path>
  <path style="fill:#bfbfbf;fill-opacity:1;stroke-width:1.49791145" d="m 51.795028,33.585696 c 7.489557,0 13.630995,6.141437 13.630995,13.630995 0,7.489557 -6.141438,13.630994 -13.630995,13.630994 z" id="path7924"></path>
  <path id="path7908" d="m 76.360776,105.11007 c 0,3.89457 -2.995823,6.89039 -6.890392,6.89039 -3.89457,0 -6.890393,-2.99582 -6.890393,-6.89039 0,-3.89457 2.995823,-6.890395 6.890393,-6.890395 3.894569,0 6.890392,2.995825 6.890392,6.890395 z" style="fill:#e5e5e5;stroke-width:1.49791145"></path>
  <path id="path7906" d="m 113.05789,47.099773 c -0.14005,3.89205 -3.24166,6.778206 -7.13371,6.638158 -3.89205,-0.140055 -6.778209,-3.241665 -6.63816,-7.133717 0.140054,-3.89205 3.24166,-6.778205 7.13371,-6.638157 3.89206,0.140055 6.77821,3.241665 6.63816,7.133716 z" style="fill:#f7f7f7;fill-opacity:1;stroke-width:1.49791145"></path>
  <path id="path4" d="m 58.685421,47.140893 c 0,3.89457 -2.995823,6.890393 -6.890393,6.890393 -3.89457,0 -6.890393,-2.995823 -6.890393,-6.890393 0,-3.89457 2.995823,-6.890393 6.890393,-6.890393 3.89457,0 6.890393,2.995823 6.890393,6.890393 z" style="fill:#f4f4f4;fill-opacity:1;stroke-width:1.49791145"></path>
  <path style="fill:#e2e2e2;fill-opacity:1;stroke-width:1.49791145" d="m 58.685421,47.140893 c 0,3.89457 -2.995823,6.890393 -6.890393,6.890393 V 40.2505 c 3.89457,0 6.890393,2.995823 6.890393,6.890393 z" id="path7914"></path>
  <path style="fill:#ffffff;fill-opacity:1;stroke-width:1.49791145" d="m 105.92418,53.737931 c -3.89205,-0.140055 -6.778209,-3.241665 -6.63816,-7.133717 0.140054,-3.89205 3.24166,-6.778205 7.13371,-6.638157 z" id="path7970"></path>
  <path style="fill:#ffffff;fill-opacity:0.41989674;stroke-width:1.49791145" d="m 69.470384,75.78845 c -1.048538,0 -2.097076,0.03745 -3.145615,0.112344 l -0.748955,8.388304 c -2.846032,0.599165 -5.692064,1.647703 -7.938931,3.295405 l -6.44102,-5.392481 c -1.647702,1.34812 -3.145614,2.846032 -4.493734,4.493734 l 5.392481,6.44102 c -1.647702,2.396658 -2.846031,5.092899 -3.295405,8.088724 l -8.388304,0.59916 c -0.299583,2.09708 -0.299583,4.34395 0,6.44102 l 8.388304,0.59917 c 0.449374,2.99582 1.647703,5.69206 3.295405,8.08872 l -5.392481,6.44102 c 1.34812,1.6477 2.846032,3.14561 4.493734,4.49373 l 6.44102,-5.39248 c 2.246867,1.6477 5.092899,2.69624 7.938931,3.29541 l 0.748955,8.3883 c 1.048539,0.0749 2.097077,0.11234 3.145615,0.11234 z" id="path7972"></path>
</svg>
