<?xml version="1.0"?>

<!-- Generator: Adobe Illustrator 18.1.0, SVG Export Plug-In . SVG Version: 6.00 Build 0)  -->

<svg version="1.1" id="Layer_1" xmlns="http://www.w3.org/2000/svg" xmlns:xlink="http://www.w3.org/1999/xlink" x="0px" y="0px" width="256" height="256" viewBox="0 0 256 256" enable-background="new 0 0 256 256" xml:space="preserve">
<g>
	<path fill="#FFFFFF" d="M229.7,210v-12.4h-10V187h-5.5c0-2.1-1.7-3.8-3.9-3.8h-0.7v-70.9h0.7c2.1,0,3.9-1.7,3.9-3.9v-0.8h0.1V94.2
		h10.7c1.9,0,2.5-3,0.8-4l-97.6-61.1L30.8,90.2c-1.7,1-1,4,0.8,4h10.7v13.3h0.1v0.8c0,2.1,1.7,3.9,3.9,3.9h0.7v70.9h-0.7
		c-2.1,0-3.8,1.7-3.9,3.8H37v10.6H27V210H16.1v18.1h224.4V210H229.7"></path>
	<path fill="#DBDCDD" d="M195.4,183.1h0.7v-70.9h-0.7c-2.1,0-3.9-1.7-3.9-3.9v-0.8H188v0.8c0,2.1-1.7,3.9-3.9,3.9h-0.7v70.9h0.7
		c2.1,0,3.8,1.7,3.9,3.8h3.5C191.6,184.8,193.3,183.1,195.4,183.1z"></path>
	<path fill="#DBDCDD" d="M169.2,183.1h0.7v-70.9h-0.7c-2.1,0-3.9-1.7-3.9-3.9v-0.8H91.3v0.8c0,2.1-1.7,3.9-3.9,3.9h-0.7v70.9h0.7
		c2.1,0,3.8,1.7,3.9,3.8h74.1C165.4,184.8,167.1,183.1,169.2,183.1"></path>
	<path fill="#DBDCDD" d="M72.5,183.1h0.7v-70.9h-0.7c-2.1,0-3.9-1.7-3.9-3.9v-0.8h-3.5v0.8c0,2.1-1.7,3.9-3.9,3.9h-0.7v70.9h0.7
		c2.1,0,3.8,1.7,3.9,3.8h3.5C68.7,184.8,70.4,183.1,72.5,183.1"></path>
	<path fill="#BCBEC0" d="M136.4,131.8L136.4,131.8c0.5,0.2,1,0.4,1.5,0.6V187h-21.3h35.1v-33.3C151.6,143.7,145.3,135.1,136.4,131.8
		 M128.4,130.4C128.4,130.4,128.4,130.4,128.4,130.4L128.4,130.4L128.4,130.4"></path>
	<polyline fill="#E6E7E8" points="16.1,210 240.5,210 240.5,228.1 16.1,228.1 16.1,210 	"></polyline>
	<polyline fill="#F1F1F2" points="229.7,197.6 219.7,197.6 108.3,197.6 108.3,210 27,210 27,197.6 27,210 16.1,210 102.2,210 
		240.5,210 240.5,210 229.7,210 229.7,197.6 	"></polyline>
	<polyline fill="#D9DADC" points="240.5,210 240.5,210 102.2,210 102.2,228.1 240.5,228.1 240.5,210 	"></polyline>
	<polyline fill="#BBBCBF" points="102.2,210 16.1,210 16.1,228.1 102.2,228.1 102.2,210 	"></polyline>
	<path fill="#E6E7E8" d="M225.9,90.2l-97.6-61.1L30.8,90.2c-1.7,1-1,4,0.8,4h193.5C226.9,94.2,227.6,91.3,225.9,90.2"></path>
	<polyline fill="#CFD0D2" points="108.3,197.6 37,197.6 27,197.6 27,210 108.3,210 108.3,197.6 	"></polyline>
	<path fill="#DBDCDD" d="M72.5,183.1L72.5,183.1c-2.1,0-3.8,1.6-3.9,3.7C68.8,184.8,70.5,183.1,72.5,183.1 M68.7,107.6h-3.5H68.7
		l0,0.8c0,2.1,1.7,3.9,3.9,3.9h0.7v70.9h0v-70.9h-0.7c-2.1,0-3.9-1.7-3.9-3.9V107.6"></path>
	<path fill="#BCBEC0" d="M68.7,107.6h-3.5l0,0.8l0,0c0,2.1-1.7,3.8-3.7,3.9c0,0-0.1,0-0.1,0h-0.7v70.9h0.7c2.1,0,3.8,1.7,3.9,3.8
		h3.5c0-0.1,0-0.1,0-0.2c0.1-2,1.8-3.7,3.9-3.7h0l0,0h0.7v-70.9h-0.7c-2.1,0-3.9-1.7-3.9-3.9V107.6"></path>
	<path fill="#BCBEC0" d="M136.4,107.6H91.3l0,0.8l0,0c0,2-1.6,3.7-3.6,3.8c-0.1,0-0.2,0-0.3,0h-0.7v70.9h0.7c2.1,0,3.8,1.7,3.9,3.8
		h13.8v-33.3l0,0l0,0c0-1.6,0.2-3.1,0.5-4.6c2.1-10.7,11.5-18.7,22.8-18.7l0,0c0,0,0,0,0,0c0,0,0,0,0,0c0,0,0,0,0,0c0,0,0,0,0,0
		c0,0,0,0,0,0c0,0,0,0,0,0c0,0,0,0,0,0c2.8,0,5.5,0.5,8,1.4V107.6"></path>
	<path fill="#A1A4A6" d="M105.1,153.7L105.1,153.7V187V153.7 M128.4,130.4c2.8,0,5.5,0.5,8,1.4v0
		C133.9,130.9,131.2,130.4,128.4,130.4 M128.4,130.4C128.4,130.4,128.4,130.4,128.4,130.4C128.4,130.4,128.4,130.4,128.4,130.4
		 M128.4,130.4L128.4,130.4C128.4,130.4,128.4,130.4,128.4,130.4C128.4,130.4,128.4,130.4,128.4,130.4 M128.3,130.4
		c-11.3,0-20.7,8-22.8,18.7C107.6,138.4,117.1,130.4,128.3,130.4C128.3,130.4,128.3,130.4,128.3,130.4"></path>
	<path fill="#BCBEC0" d="M128.4,130.4C128.4,130.4,128.4,130.4,128.4,130.4C128.4,130.4,128.4,130.4,128.4,130.4 M128.3,130.4
		L128.3,130.4C128.4,130.4,128.4,130.4,128.3,130.4C128.4,130.4,128.4,130.4,128.3,130.4C128.4,130.4,128.4,130.4,128.3,130.4"></path>
	<path fill="#A1A4A6" d="M128.3,130.4c-11.3,0-20.7,8-22.8,18.7c-0.3,1.5-0.5,3-0.5,4.6V187h11.5h21.3v-54.5c-0.5-0.2-1-0.4-1.5-0.6
		v0C133.9,130.9,131.2,130.4,128.3,130.4C128.4,130.4,128.4,130.4,128.3,130.4C128.4,130.4,128.4,130.4,128.3,130.4
		C128.4,130.4,128.4,130.4,128.3,130.4C128.4,130.4,128.4,130.4,128.3,130.4"></path>
	<path fill="#A1A4A6" d="M105.5,149.1c-0.3,1.5-0.5,3-0.5,4.6l0,0C105.1,152.1,105.2,150.6,105.5,149.1L105.5,149.1 M128.3,130.4
		L128.3,130.4C128.3,130.4,128.3,130.4,128.3,130.4C128.3,130.4,128.3,130.4,128.3,130.4C128.4,130.4,128.4,130.4,128.3,130.4
		C128.4,130.4,128.4,130.4,128.3,130.4"></path>
	<path fill="#A1A4A6" d="M128.4,130.4C128.4,130.4,128.4,130.4,128.4,130.4C128.4,130.4,128.4,130.4,128.4,130.4 M128.4,130.4
		C128.4,130.4,128.4,130.4,128.4,130.4C128.4,130.4,128.4,130.4,128.4,130.4L128.4,130.4C128.4,130.4,128.4,130.4,128.4,130.4"></path>
	<path fill="#8A8D90" d="M128.4,130.4c2.8,0,5.5,0.5,8,1.5v0C133.9,130.9,131.2,130.4,128.4,130.4
		C128.4,130.4,128.4,130.4,128.4,130.4C128.4,130.4,128.4,130.4,128.4,130.4L128.4,130.4 M128.4,130.4
		C128.4,130.4,128.4,130.4,128.4,130.4C128.4,130.4,128.4,130.4,128.4,130.4C128.4,130.4,128.4,130.4,128.4,130.4"></path>
	<polyline fill="#C6C7C9" points="116.6,49.7 100.7,59.7 116.6,49.7 116.6,49.7 	"></polyline>
	<path fill="#DBDCDD" d="M65.1,107.6L65.1,107.6h3.5v0.8c0,2.1,1.7,3.9,3.9,3.9h0.7v70.9h0h-0.7c-2.1,0-3.8,1.6-3.9,3.7
		c0,0.1,0,0.1,0,0.2h-3.5c0-2.1-1.7-3.8-3.9-3.8h-0.7v-70.9h0h0.7c0,0,0.1,0,0.1,0c2.1-0.1,3.7-1.8,3.7-3.9L65.1,107.6L65.1,107.6
		 M116.6,94.2H42.3v13.3h0.1v0.8c0,2.1,1.7,3.9,3.9,3.9h0.7v70.9h0h-0.7c-2.1,0-3.8,1.6-3.9,3.7c0,0.1,0,0.1,0,0.2H37l0,10.6h79.6
		V187H91.3c0-2.1-1.7-3.8-3.9-3.8h-0.7v-70.9h0h0.7c0.1,0,0.2,0,0.3,0c2-0.1,3.6-1.8,3.6-3.8v-0.8h0h25.3V94.2"></path>
	<path fill="#BCBEC0" d="M86.7,112.3L86.7,112.3l0,70.9h0.7c2.1,0,3.8,1.7,3.9,3.8h25.3h-11.5H91.3c0-2.1-1.7-3.8-3.9-3.8h-0.7
		V112.3 M91.3,107.6L91.3,107.6v0.8c0,2-1.6,3.7-3.6,3.8c2-0.1,3.6-1.8,3.6-3.8L91.3,107.6"></path>
	<path fill="#BCBEC0" d="M60.5,112.3L60.5,112.3l0,70.9h0.7c2.1,0,3.8,1.7,3.9,3.8h3.5c0-0.1,0-0.1,0-0.2c0,0.1,0,0.1,0,0.2h-3.5
		c0-2.1-1.7-3.8-3.9-3.8h-0.7V112.3 M65.1,107.6L65.1,107.6v0.8c0,2.1-1.7,3.8-3.7,3.9c2.1-0.1,3.7-1.8,3.7-3.9L65.1,107.6"></path>
	<polyline fill="#A1A4A6" points="65.1,107.6 65.1,107.6 65.1,108.4 65.1,108.4 65.1,107.6 	"></polyline>
	<polyline fill="#A1A4A6" points="91.3,107.6 91.3,107.6 91.3,108.4 91.3,108.4 91.3,107.6 	"></polyline>
	<path fill="#C6C7C9" d="M112.6,39L30.8,90.2c-1.7,1-1,4,0.8,4h80.9V83.7H62.4h0l36.1-22.6l14.1-8.8V39"></path>
	<path fill="#CFD1D3" d="M100.7,59.7l-2.3,1.4L62.4,83.7h0L100.7,59.7 M128.3,42.4l-11.8,7.4v33.9h77.7L128.3,42.4"></path>
	<polyline fill="#B3B4B7" points="116.6,49.7 100.7,59.7 62.4,83.7 116.6,83.7 116.6,49.7 	"></polyline>
</g>
</svg>
