<?xml version="1.0"?>
<!--?xml version="1.0" encoding="utf-8"?-->
<!-- Generator: Adobe Illustrator 19.0.1, SVG Export Plug-In . SVG Version: 6.00 Build 0)  -->
<svg version="1.1" id="Layer_1" xmlns="http://www.w3.org/2000/svg" xmlns:xlink="http://www.w3.org/1999/xlink" x="0px" y="0px" width="171.2px" height="171.2px" viewBox="0 0 171.2 171.2" style="enable-background:new 0 0 171.2 171.2;" xml:space="preserve">
<g>
	<path style="fill:#D0D2D3;" d="M37.7,106.7c-11.1,0-20.1-9-20.1-20.1s9-20.1,20.1-20.1h93.7c11.1,0,20.1,9,20.1,20.1
		s-9,20.1-20.1,20.1H37.7z"></path>
	<path style="fill:#FFFFFF;" d="M64.4,39.9c0-11.1,9-20.1,20.1-20.1s20.1,9,20.1,20.1v93.7c0,11.1-9,20.1-20.1,20.1
		s-20.1-9-20.1-20.1V39.9z"></path>
	<path style="fill:#DBDCDC;" d="M64.4,66.4V39.9c0-11.1,9-20.1,20.1-20.1v133.9c-11.1,0-20.1-9-20.1-20.1v-26.8V66.4z"></path>
	<rect x="68.7" y="67.8" style="fill:#E5E6E7;" width="31.7" height="37.8"></rect>
	<g>
		<circle style="fill:#D3D3D3;" cx="94.8" cy="73.8" r="1.7"></circle>
		<circle style="fill:#D3D3D3;" cx="74.3" cy="73.8" r="1.7"></circle>
		<circle style="fill:#D3D3D3;" cx="84.6" cy="73.8" r="1.7"></circle>
		<circle style="fill:#D3D3D3;" cx="79.2" cy="80.2" r="1.7"></circle>
		<circle style="fill:#D3D3D3;" cx="89.4" cy="80.2" r="1.7"></circle>
		<circle style="fill:#D3D3D3;" cx="94.8" cy="86.6" r="1.7"></circle>
		<circle style="fill:#D3D3D3;" cx="74.3" cy="86.6" r="1.7"></circle>
		<circle style="fill:#D3D3D3;" cx="84.6" cy="86.6" r="1.7"></circle>
		<circle style="fill:#D3D3D3;" cx="94.8" cy="99.3" r="1.7"></circle>
		<circle style="fill:#D3D3D3;" cx="74.3" cy="99.3" r="1.7"></circle>
		<circle style="fill:#D3D3D3;" cx="84.6" cy="99.3" r="1.7"></circle>
		<circle style="fill:#D3D3D3;" cx="79.2" cy="92.9" r="1.7"></circle>
		<circle style="fill:#D3D3D3;" cx="89.4" cy="92.9" r="1.7"></circle>
	</g>
	<g>
		<circle style="fill:#E5E6E7;" cx="135.4" cy="97.2" r="1.7"></circle>
		<circle style="fill:#E5E6E7;" cx="135.4" cy="76.6" r="1.7"></circle>
		<circle style="fill:#E5E6E7;" cx="135.4" cy="86.9" r="1.7"></circle>
		<circle style="fill:#E5E6E7;" cx="129" cy="81.5" r="1.7"></circle>
		<circle style="fill:#E5E6E7;" cx="129" cy="91.8" r="1.7"></circle>
		<circle style="fill:#E5E6E7;" cx="122.6" cy="97.2" r="1.7"></circle>
		<circle style="fill:#E5E6E7;" cx="122.6" cy="76.6" r="1.7"></circle>
		<circle style="fill:#E5E6E7;" cx="122.6" cy="86.9" r="1.7"></circle>
		<circle style="fill:#E5E6E7;" cx="109.8" cy="97.2" r="1.7"></circle>
		<circle style="fill:#E5E6E7;" cx="109.8" cy="76.6" r="1.7"></circle>
		<circle style="fill:#E5E6E7;" cx="109.8" cy="86.9" r="1.7"></circle>
		<circle style="fill:#E5E6E7;" cx="116.2" cy="81.5" r="1.7"></circle>
		<circle style="fill:#E5E6E7;" cx="116.2" cy="91.8" r="1.7"></circle>
	</g>
	<g>
		<circle style="fill:#E5E6E7;" cx="59.3" cy="97.2" r="1.7"></circle>
		<circle style="fill:#E5E6E7;" cx="59.3" cy="76.6" r="1.7"></circle>
		<circle style="fill:#E5E6E7;" cx="59.3" cy="86.9" r="1.7"></circle>
		<circle style="fill:#E5E6E7;" cx="52.9" cy="81.5" r="1.7"></circle>
		<circle style="fill:#E5E6E7;" cx="52.9" cy="91.8" r="1.7"></circle>
		<circle style="fill:#E5E6E7;" cx="46.5" cy="97.2" r="1.7"></circle>
		<circle style="fill:#E5E6E7;" cx="46.5" cy="76.6" r="1.7"></circle>
		<circle style="fill:#E5E6E7;" cx="46.5" cy="86.9" r="1.7"></circle>
		<circle style="fill:#E5E6E7;" cx="33.8" cy="97.2" r="1.7"></circle>
		<circle style="fill:#E5E6E7;" cx="33.8" cy="76.6" r="1.7"></circle>
		<circle style="fill:#E5E6E7;" cx="33.8" cy="86.9" r="1.7"></circle>
		<circle style="fill:#E5E6E7;" cx="40.1" cy="81.5" r="1.7"></circle>
		<circle style="fill:#E5E6E7;" cx="40.1" cy="91.8" r="1.7"></circle>
	</g>
	<g>
		<circle style="fill:#E5E6E7;" cx="74.3" cy="61.6" r="1.7"></circle>
		<circle style="fill:#E5E6E7;" cx="94.8" cy="61.6" r="1.7"></circle>
		<circle style="fill:#E5E6E7;" cx="84.5" cy="61.6" r="1.7"></circle>
		<circle style="fill:#E5E6E7;" cx="89.9" cy="55.2" r="1.7"></circle>
		<circle style="fill:#E5E6E7;" cx="79.7" cy="55.2" r="1.7"></circle>
		<circle style="fill:#E5E6E7;" cx="74.3" cy="48.8" r="1.7"></circle>
		<circle style="fill:#E5E6E7;" cx="94.8" cy="48.8" r="1.7"></circle>
		<circle style="fill:#E5E6E7;" cx="84.5" cy="48.8" r="1.7"></circle>
		<circle style="fill:#E5E6E7;" cx="74.3" cy="36.1" r="1.7"></circle>
		<circle style="fill:#E5E6E7;" cx="94.8" cy="36.1" r="1.7"></circle>
		<circle style="fill:#E5E6E7;" cx="84.5" cy="36.1" r="1.7"></circle>
		<circle style="fill:#E5E6E7;" cx="89.9" cy="42.5" r="1.7"></circle>
		<circle style="fill:#E5E6E7;" cx="79.7" cy="42.5" r="1.7"></circle>
	</g>
	<g>
		<circle style="fill:#E5E6E7;" cx="74.3" cy="137.9" r="1.7"></circle>
		<circle style="fill:#E5E6E7;" cx="94.8" cy="137.9" r="1.7"></circle>
		<circle style="fill:#E5E6E7;" cx="84.5" cy="137.9" r="1.7"></circle>
		<circle style="fill:#E5E6E7;" cx="89.9" cy="131.5" r="1.7"></circle>
		<circle style="fill:#E5E6E7;" cx="79.7" cy="131.5" r="1.7"></circle>
		<circle style="fill:#E5E6E7;" cx="74.3" cy="125.1" r="1.7"></circle>
		<circle style="fill:#E5E6E7;" cx="94.8" cy="125.1" r="1.7"></circle>
		<circle style="fill:#E5E6E7;" cx="84.5" cy="125.1" r="1.7"></circle>
		<circle style="fill:#E5E6E7;" cx="74.3" cy="112.3" r="1.7"></circle>
		<circle style="fill:#E5E6E7;" cx="94.8" cy="112.3" r="1.7"></circle>
		<circle style="fill:#E5E6E7;" cx="84.5" cy="112.3" r="1.7"></circle>
		<circle style="fill:#E5E6E7;" cx="89.9" cy="118.7" r="1.7"></circle>
		<circle style="fill:#E5E6E7;" cx="79.7" cy="118.7" r="1.7"></circle>
	</g>
</g>
</svg>
