<?xml version="1.0" encoding="UTF-8" standalone="no"?>
<svg xmlns="http://www.w3.org/2000/svg"  viewBox="0 0 10 10">
<path class="fill-grey" d="M 1.79,6.37 C 1.03,6.37 0.412,5.76 0.412,4.99 0.412,4.23 1.03,3.62 1.79,3.62 h 6.43 c 0.76,0 1.38,0.61 1.38,1.37 0,0.77 -0.62,1.38 -1.38,1.38 z"  />
<path class="fill-lightest-grey"  d="M 6.38,1.79 C 6.38,1.03 5.76,0.412 5,0.412 4.24,0.412 3.62,1.03 3.62,1.79 V 8.22 C 3.62,8.98 4.24,9.6 5,9.6 5.76,9.6 6.38,8.98 6.38,8.22 Z" />
<path class="fill-shade-weak" d="M 6.38,3.61 V 1.79 C 6.38,1.03 5.76,0.412 5,0.412 V 9.6 C 5.76,9.6 6.38,8.98 6.38,8.22 V 6.38 Z" />
<path class="fill-light-grey shade" d="M 3.92,3.7 H 6.09 V 6.3 H 3.92 Z" />
<path class="fill-light-grey " d="m 1.87,5.35 c 0,0.1 -0.1,0.12 -0.12,0.12 -0.1,0 -0.11,-0.1 -0.11,-0.12 0,-0.1 0.1,-0.12 0.11,-0.12 0.1,0 0.12,0 0.12,0.12 z m 0,-0.71 c 0,0.1 -0.1,0.12 -0.12,0.12 -0.1,0 -0.11,-0.1 -0.11,-0.12 0,-0.1 0.1,-0.11 0.11,-0.11 0.1,0 0.12,0 0.12,0.11 z M 1.44,5.01 c 0,0.1 -0.1,0.12 -0.12,0.12 -0.1,0 -0.11,-0.1 -0.11,-0.12 0,-0.1 0.1,-0.11 0.11,-0.11 0.1,0 0.12,0 0.12,0.11 z m 0,-0.7 c 0,0.1 -0.1,0.11 -0.12,0.11 -0.1,0 -0.11,-0 -0.11,-0.11 0,-0.1 0.1,-0.12 0.11,-0.12 0.1,0 0.12,0 0.12,0.12 z m 0,1.41 c 0,0.1 -0.1,0.12 -0.12,0.12 -0.1,0 -0.11,-0.1 -0.11,-0.12 0,-0.1 0.1,-0.11 0.11,-0.11 0.1,0 0.12,0 0.12,0.11 z M 2.31,5.01 c 0,0.1 -0.1,0.12 -0.12,0.12 -0.1,0 -0.11,-0.1 -0.11,-0.12 0,-0.1 0,-0.11 0.11,-0.11 0.1,0 0.12,0 0.12,0.11 z m 0,-0.7 c 0,0.1 -0.1,0.11 -0.12,0.11 -0.1,0 -0.11,-0 -0.11,-0.11 0,-0.1 0,-0.12 0.11,-0.12 0.1,0 0.12,0 0.12,0.12 z m 0,1.41 c 0,0.1 -0.1,0.12 -0.12,0.12 -0.1,0 -0.11,-0.1 -0.11,-0.12 0,-0.1 0,-0.11 0.11,-0.11 0.1,0 0.12,0 0.12,0.11 z M 2.75,5.35 c 0,0.1 -0,0.12 -0.12,0.12 -0.1,0 -0.11,-0.1 -0.11,-0.12 0,-0.1 0,-0.12 0.11,-0.12 0.1,0 0.12,0 0.12,0.12 z m 0,-0.71 c 0,0.1 -0,0.12 -0.12,0.12 -0.1,0 -0.11,-0.1 -0.11,-0.12 0,-0.1 0,-0.11 0.11,-0.11 0.1,0 0.12,0 0.12,0.11 z m 0.44,0.37 c 0,0.1 -0,0.12 -0.12,0.12 -0.1,0 -0.12,-0 -0.12,-0.12 0,-0.1 0.1,-0.11 0.12,-0.11 0.1,0 0.12,0 0.12,0.11 z m 0,-0.7 c 0,0.1 -0.1,0.11 -0.12,0.11 -0.1,0 -0.12,-0 -0.12,-0.11 0,-0.1 0,-0.12 0.12,-0.12 0.1,0 0.12,0 0.12,0.12 z m 0,1.41 c 0,0.1 -0,0.12 -0.12,0.12 -0.1,0 -0.12,-0 -0.12,-0.12 0,-0.1 0.1,-0.11 0.12,-0.11 0.1,0 0.12,0 0.12,0.11 z M 7.47,5.35 c 0,0.1 -0,0.12 -0.11,0.12 -0.1,0 -0.12,-0 -0.12,-0.12 0,-0.1 0.1,-0.12 0.12,-0.12 0.1,0 0.12,0.1 0.11,0.12 z m 0,-0.71 c 0,0.1 -0,0.12 -0.11,0.12 -0.1,0 -0.12,-0 -0.12,-0.12 0,-0.1 0.1,-0.11 0.12,-0.11 0.1,0 0.11,0 0.11,0.11 z M 7.03,5.01 c 0,0.1 -0,0.12 -0.11,0.12 -0.1,0 -0.12,-0 -0.12,-0.12 0,-0.1 0.1,-0.11 0.12,-0.11 0.1,0 0.11,0 0.11,0.11 z m 0,-0.7 c 0,0.1 -0,0.11 -0.11,0.11 -0.1,0 -0.11,-0 -0.12,-0.11 0,-0.1 0.1,-0.12 0.12,-0.12 0.1,0 0.12,0.1 0.11,0.12 z m 0,1.41 c 0,0.1 -0,0.12 -0.11,0.12 -0.1,0 -0.12,-0 -0.12,-0.12 0,-0.1 0.1,-0.11 0.12,-0.11 0.1,0 0.11,0 0.11,0.11 z M 7.91,5.01 c 0,0.1 -0,0.12 -0.11,0.12 -0.1,0 -0.12,-0 -0.12,-0.12 0,-0.1 0.1,-0.11 0.12,-0.11 0.1,0 0.11,0 0.11,0.11 z m 0,-0.7 c 0,0.1 -0,0.11 -0.11,0.11 -0.1,0 -0.11,-0 -0.12,-0.11 0,-0.1 0.1,-0.12 0.12,-0.12 0.1,0 0.12,0.1 0.11,0.12 z m 0,1.41 c 0,0.1 -0,0.12 -0.11,0.12 -0.1,0 -0.12,-0 -0.12,-0.12 0,-0.1 0.1,-0.11 0.12,-0.11 0.1,0 0.11,0 0.11,0.11 z M 8.36,5.35 c 0,0.1 -0.1,0.12 -0.12,0.12 -0.1,0 -0.12,-0.1 -0.11,-0.12 -0,-0.1 0,-0.12 0.11,-0.12 0.1,0 0.12,0 0.12,0.12 z m 0,-0.71 c 0,0.1 -0.1,0.12 -0.12,0.12 -0.1,0 -0.12,-0.1 -0.11,-0.12 0,-0.1 0,-0.11 0.11,-0.11 0.1,0 0.11,0 0.12,0.11 z m 0.43,0.37 c 0,0.1 -0,0.12 -0.11,0.12 -0.1,0 -0.12,-0.1 -0.11,-0.12 0,-0.1 0,-0.11 0.11,-0.11 0.1,0 0.11,0 0.11,0.11 z m 0,-0.7 c 0,0.1 -0,0.11 -0.11,0.11 -0.1,0 -0.11,-0 -0.11,-0.11 -0,-0.1 0,-0.12 0.11,-0.12 0.1,0 0.12,0 0.11,0.12 z m 0,1.41 c 0,0.1 -0,0.12 -0.11,0.12 -0.1,0 -0.12,-0.1 -0.11,-0.12 0,-0.1 0,-0.11 0.11,-0.11 0.1,0 0.11,0 0.11,0.11 z" />
<path  class="fill-shade " d="m 4.79,7.46 c 0,0.1 -0.1,0.12 -0.12,0.11 -0.1,0 -0.12,-0 -0.12,-0.11 0,-0.1 0,-0.12 0.12,-0.12 0.1,0 0.12,0.1 0.12,0.12 z m 0.7,0 c 0,0.1 -0.1,0.12 -0.12,0.11 -0.1,0 -0.12,-0 -0.12,-0.11 0,-0.1 0,-0.12 0.12,-0.12 0.1,0 0.12,0.1 0.12,0.12 z M 5.12,7.02 c 0,0.1 -0.1,0.12 -0.12,0.11 -0.1,0 -0.12,-0 -0.12,-0.11 0,-0.1 0,-0.12 0.12,-0.12 0.1,0 0.12,0.1 0.12,0.12 z m 0.71,0 c 0,0.1 -0.1,0.12 -0.12,0.11 -0.1,0 -0.12,-0 -0.12,-0.11 0,-0.1 0,-0.12 0.12,-0.12 0.1,0 0.12,0.1 0.12,0.12 z m -1.41,0 c 0,0.1 -0.1,0.12 -0.12,0.11 -0.1,0 -0.12,-0 -0.12,-0.11 0,-0.1 0.1,-0.12 0.12,-0.12 0.1,0 0.12,0.1 0.12,0.12 z m 0.7,0.88 c 0,0.1 -0.1,0.12 -0.12,0.12 -0.1,0 -0.12,-0 -0.12,-0.12 0,-0.1 0,-0.12 0.12,-0.12 0.1,0 0.12,0.1 0.12,0.12 z m 0.71,0 c 0,0.1 -0.1,0.12 -0.12,0.12 -0.1,0 -0.12,-0 -0.12,-0.12 0,-0.1 0,-0.12 0.12,-0.12 0.1,0 0.12,0.1 0.12,0.12 z m -1.41,0 c 0,0.1 -0.1,0.12 -0.12,0.12 -0.1,0 -0.12,-0 -0.12,-0.12 0,-0.1 0.1,-0.12 0.12,-0.12 0.1,0 0.12,0.1 0.12,0.12 z m 0.37,0.44 c 0,0.1 -0.1,0.12 -0.12,0.11 -0.1,0 -0.12,-0 -0.12,-0.11 0,-0.1 0,-0.12 0.12,-0.11 0.1,-0 0.12,0 0.12,0.11 z m 0.7,0 c 0,0.1 -0.1,0.12 -0.12,0.11 -0.1,0 -0.12,-0 -0.12,-0.11 0,-0.1 0,-0.12 0.12,-0.11 0.1,-0 0.12,0 0.12,0.11 z M 5.12,8.77 c 0,0.1 -0,0.13 -0.12,0.13 -0.1,0 -0.12,-0.1 -0.12,-0.13 0,-0.1 0.1,-0.11 0.12,-0.11 0.1,0 0.12,0.1 0.12,0.11 z m 0.71,0 c 0,0.1 -0,0.13 -0.12,0.13 -0.1,0 -0.12,-0.1 -0.12,-0.13 0,-0.1 0.1,-0.11 0.12,-0.11 0.1,0 0.12,0.1 0.12,0.11 z m -1.41,0 c 0,0.1 -0,0.13 -0.12,0.13 -0.1,0 -0.12,-0.1 -0.12,-0.13 0,-0.1 0.1,-0.11 0.12,-0.11 0.1,0 0.12,0.1 0.12,0.11 z M 4.79,1.66 c 0,0.1 -0,0.13 -0.12,0.13 -0.1,0 -0.12,-0.1 -0.12,-0.13 0,-0.1 0,-0.12 0.12,-0.12 0.1,0 0.12,0.1 0.12,0.12 z m 0.7,0 c 0,0.1 -0,0.13 -0.12,0.13 -0.1,0 -0.12,-0.1 -0.12,-0.13 0,-0.1 0,-0.12 0.12,-0.12 0.1,0 0.12,0.1 0.12,0.12 z M 5.12,1.22 c 0,0.1 -0,0.13 -0.12,0.12 -0.1,0 -0.12,-0.1 -0.12,-0.12 0,-0.1 0,-0.12 0.12,-0.11 0.1,-0 0.12,0 0.12,0.11 z m 0.71,0 c 0,0.1 -0,0.13 -0.12,0.12 -0.1,0 -0.12,-0.1 -0.12,-0.12 0,-0.1 0,-0.12 0.12,-0.11 0.1,-0 0.12,0 0.12,0.11 z m -1.41,0 c 0,0.1 -0,0.13 -0.12,0.12 -0.1,0 -0.12,-0.1 -0.12,-0.12 0,-0.1 0.1,-0.12 0.12,-0.11 0.1,-0 0.12,0 0.12,0.11 z m 0.7,0.87 c 0,0.1 -0,0.13 -0.12,0.12 -0.1,0 -0.12,-0 -0.12,-0.12 0,-0.1 0,-0.12 0.12,-0.12 0.1,0 0.12,0.1 0.12,0.12 z m 0.71,0 c 0,0.1 -0,0.13 -0.12,0.12 -0.1,0 -0.12,-0 -0.12,-0.12 0,-0.1 0,-0.12 0.12,-0.12 0.1,0 0.12,0.1 0.12,0.12 z m -1.41,0 c 0,0.1 -0,0.13 -0.12,0.12 -0.1,0 -0.12,-0 -0.12,-0.12 0,-0.1 0.1,-0.12 0.12,-0.12 0.1,0 0.12,0.1 0.12,0.12 z m 0.37,0.44 c 0,0.1 -0,0.13 -0.12,0.12 -0.1,0 -0.12,-0 -0.12,-0.12 0,-0.1 0,-0.12 0.12,-0.12 0.1,0 0.12,0.1 0.12,0.12 z m 0.7,0 c 0,0.1 -0,0.13 -0.12,0.12 -0.1,0 -0.12,-0 -0.12,-0.12 0,-0.1 0,-0.12 0.12,-0.12 0.1,0 0.12,0.1 0.12,0.12 z M 5.12,2.97 c 0,0.1 -0,0.13 -0.12,0.12 -0.1,0 -0.12,-0 -0.12,-0.12 0,-0.1 0,-0.12 0.12,-0.12 0.1,0 0.12,0.1 0.12,0.12 z m 0.71,0 c 0,0.1 -0,0.13 -0.12,0.12 -0.1,0 -0.12,-0 -0.12,-0.12 0,-0.1 0,-0.12 0.12,-0.12 0.1,0 0.12,0.1 0.12,0.12 z m -1.41,0 c 0,0.1 -0,0.13 -0.12,0.12 -0.1,0 -0.12,-0 -0.12,-0.12 0,-0.1 0.1,-0.12 0.12,-0.12 0.1,0 0.12,0.1 0.12,0.12 z m 1.03,2.46 c 0,0.1 -0,0.11 -0.11,0.11 -0.1,0 -0.12,-0 -0.12,-0.11 0,-0.1 0,-0.12 0.12,-0.12 0.1,0 0.11,0.1 0.11,0.12 z m -0.7,0 c 0,0.1 -0,0.11 -0.11,0.11 -0.1,0 -0.12,-0 -0.12,-0.11 0,-0.1 0.1,-0.12 0.12,-0.12 0.1,0 0.11,0.1 0.11,0.12 z m 0.37,0.44 c 0,0.1 -0,0.11 -0.11,0.11 -0.1,0 -0.12,-0.1 -0.12,-0.11 0,-0.1 0.1,-0.12 0.12,-0.12 0.1,0 0.11,0.1 0.11,0.12 z m -0.7,0 c 0,0.1 -0.1,0.11 -0.12,0.11 -0.1,0 -0.12,-0.1 -0.12,-0.11 0,-0.1 0.1,-0.12 0.12,-0.12 0.1,0 0.12,0 0.12,0.12 z m 1.41,0 c 0,0.1 -0.1,0.11 -0.12,0.11 -0.1,0 -0.12,-0.1 -0.12,-0.11 0,-0.1 0,-0.12 0.12,-0.12 0.1,0 0.12,0 0.12,0.12 z M 5.12,4.99 c 0,0.1 -0,0.12 -0.11,0.12 -0.1,0 -0.12,-0.1 -0.12,-0.12 0,-0.1 0.1,-0.11 0.12,-0.11 0.1,0 0.11,0 0.11,0.11 z m -0.7,0 c 0,0.1 -0,0.12 -0.12,0.12 -0.1,0 -0.12,-0.1 -0.12,-0.12 0,-0.1 0.1,-0.11 0.12,-0.11 0.1,0 0.12,0 0.12,0.11 z m 1.41,0 c 0,0.1 -0,0.12 -0.12,0.12 -0.1,0 -0.12,-0.1 -0.12,-0.12 0,-0.1 0.1,-0.11 0.12,-0.11 0.1,0 0.12,0 0.12,0.11 z M 5.45,4.55 c 0,0.1 -0,0.12 -0.11,0.12 -0.1,0 -0.12,-0 -0.12,-0.12 0,-0.1 0.1,-0.11 0.12,-0.11 0.1,0 0.11,0 0.11,0.11 z m -0.7,0 c 0,0.1 -0,0.12 -0.11,0.12 -0.1,0 -0.12,-0 -0.12,-0.12 0,-0.1 0.1,-0.11 0.12,-0.11 0.1,0 0.11,0 0.11,0.11 z M 5.12,4.12 c 0,0.1 -0,0.11 -0.11,0.11 -0.1,0 -0.12,-0.1 -0.12,-0.11 0,-0.1 0.1,-0.12 0.12,-0.12 0.1,0 0.11,0.1 0.11,0.12 z m -0.7,0 C 4.42,4.18 4.36,4.23 4.3,4.23 4.24,4.23 4.18,4.18 4.18,4.12 4.18,4.05 4.23,4 4.3,4 c 0.1,0 0.12,0 0.12,0.12 z m 1.41,0 c 0,0.1 -0.1,0.11 -0.12,0.11 -0.1,0 -0.12,-0.1 -0.12,-0.11 0,-0.1 0,-0.12 0.12,-0.12 0.1,0 0.12,0 0.12,0.12 z"  />
</svg>