<?xml version="1.0"?>

<svg xmlns:dc="http://purl.org/dc/elements/1.1/" xmlns:cc="http://creativecommons.org/ns#" xmlns:rdf="http://www.w3.org/1999/02/22-rdf-syntax-ns#" xmlns:svg="http://www.w3.org/2000/svg" xmlns="http://www.w3.org/2000/svg" id="svg13910" version="1.2" viewBox="0 0 100 100" height="100" width="100"> <metadata id="metadata19634"> <rdf:rdf> <cc:work rdf:about=""> <dc:format>image/svg+xml</dc:format> <dc:type rdf:resource="http://purl.org/dc/dcmitype/StillImage"></dc:type> <dc:title></dc:title> </cc:work> </rdf:rdf> </metadata> <defs id="defs13912"> <filter height="1.07583559" y="-0.0379177742" width="1.04963541" x="-0.024817707" id="filter22494" style="color-interpolation-filters:sRGB"> <feGaussianBlur id="feGaussianBlur22496" stdDeviation="2.10644531"></feGaussianBlur> </filter> </defs> <g transform="translate(0,-692.000013)" id="surface29203"> <path transform="matrix(0.434361753,0,0,0.434361753,-96.2713183,632.836605)" style="opacity:0.818000045;fill:#000000;fill-opacity:0.142857151;fill-rule:nonzero;stroke:none;stroke-width:2.302228451;filter:url(#filter22494)" d="m 247.334473,195.086426 0,40.513183 17.563476,-9.629882 55.277344,33.581542 -64.741699,35.481446 -17.112305,-10.387207 -3.423339,37.381348 54.758788,-6.218262 -17.112304,-10.387207 64.735839,-35.478516 64.467773,39.164063 -17.542967,9.618164 54.396972,9.688477 -1.73584,-38.562012 -32.005371,17.547363 14.436035,-7.930664 -64.460449,-39.147949 58.12207,-31.854492 -17.112304,-10.387208 -58.116211,31.851563 -55.289063,-33.578613 17.554688,-9.624024 -52.661133,-11.641113 z m 183.626953,3.735351 -52.227539,8.844727 51.335449,31.187988 0.89209,-40.032715 z" id="path19470"></path> <path id="path19684" d="m 11.161317,711.385032 0,17.597377 7.6289022,-4.182852 24.010364,14.586537 -28.1213178,15.411783 -7.43293083,-4.511805 -1.48696753,16.237028 23.78512316,-2.700975 -7.4329304,-4.511806 28.1187725,-15.41051 28.0023349,17.011371 -7.6199939,4.177762 23.6279641,4.208304 -0.7539825,-16.749863 -13.901909,7.621903 6.2704615,-3.444777 -27.9991537,-17.004372 25.2460042,-13.836372 -7.4329303,-4.511806 -25.2434593,13.8351 -24.0154543,-14.585265 7.625085,-4.180308 -22.873982,-5.056454 z m 79.7605252,1.622494 -22.6856454,3.841811 22.2981556,13.546869 0.3874898,-17.38868 z" style="fill:#004153;fill-opacity:1;fill-rule:nonzero;stroke:none;stroke-width:1"></path> <path id="path20946" d="m 11.161317,706.317219 0,5.067813 0,17.597377 0,-5.067812 0,-17.597378" style="fill:#000000;fill-opacity:0.3;stroke:none;stroke-width:0.75;stroke-miterlimit:4;stroke-dasharray:none;stroke-opacity:0.6"></path> <path id="path20952" d="m 42.8005832,734.318282 0,5.067812 -28.1213178,15.411783 0,-5.067812 28.1213178,-15.411783" style="fill:#000000;fill-opacity:0.3;stroke:none;stroke-width:0.75;stroke-miterlimit:4;stroke-dasharray:none;stroke-opacity:0.6"></path> <path id="path20954" d="m 14.6792654,749.730065 0,5.067812 -7.43293083,-4.511805 0,-5.067813 7.43293083,4.511806" style="fill:#000000;fill-opacity:0.3;stroke:none;stroke-width:0.75;stroke-miterlimit:4;stroke-dasharray:none;stroke-opacity:0.6"></path> <path id="path20956" d="m 7.24633457,745.218259 0,5.067813 -1.48696753,16.237028 0,-5.067813 1.48696753,-16.237028" style="fill:#000000;fill-opacity:0.3;stroke:none;stroke-width:0.75;stroke-miterlimit:4;stroke-dasharray:none;stroke-opacity:0.6"></path> <path id="path20966" d="m 78.2326672,755.843367 0,5.067813 -7.6199939,4.177762 0,-5.067812 7.6199939,-4.177763" style="fill:#000000;fill-opacity:0.3;stroke:none;stroke-width:0.75;stroke-miterlimit:4;stroke-dasharray:none;stroke-opacity:0.6"></path> <path id="path20970" d="m 94.2406374,764.229433 0,5.067813 -0.7539825,-16.749863 0,-5.067813 0.7539825,16.749863" style="fill:#000000;fill-opacity:0.3;stroke:none;stroke-width:0.75;stroke-miterlimit:4;stroke-dasharray:none;stroke-opacity:0.6"></path> <path id="path20972" d="m 93.4866549,747.47957 0,5.067813 -13.901909,7.621903 0,-5.067812 13.901909,-7.621904" style="fill:#000000;fill-opacity:0.3;stroke:none;stroke-width:0.75;stroke-miterlimit:4;stroke-dasharray:none;stroke-opacity:0.6"></path> <path id="path20974" d="m 79.5847459,755.101474 0,5.067812 6.2704615,-3.444777 0,-5.067812 -6.2704615,3.444777" style="fill:#000000;fill-opacity:0.3;stroke:none;stroke-width:0.75;stroke-miterlimit:4;stroke-dasharray:none;stroke-opacity:0.6"></path> <path id="path20976" d="m 85.8552074,751.656697 0,5.067812 -27.9991537,-17.004372 0,-5.067812 27.9991537,17.004372" style="fill:#000000;fill-opacity:0.3;stroke:none;stroke-width:0.75;stroke-miterlimit:4;stroke-dasharray:none;stroke-opacity:0.6"></path> <path id="path20980" d="m 83.1020579,720.815952 0,5.067813 -7.4329303,-4.511806 0,-5.067813 7.4329303,4.511806" style="fill:#000000;fill-opacity:0.3;stroke:none;stroke-width:0.75;stroke-miterlimit:4;stroke-dasharray:none;stroke-opacity:0.6"></path> <path id="path20982" d="m 75.6691276,716.304146 0,5.067813 -25.2434593,13.8351 0,-5.067812 25.2434593,-13.835101" style="fill:#000000;fill-opacity:0.3;stroke:none;stroke-width:0.75;stroke-miterlimit:4;stroke-dasharray:none;stroke-opacity:0.6"></path> <path d="m 68.2361968,711.781524 0,5.067813 22.2981556,13.546869 0,-5.067812 -22.2981556,-13.54687 m 2.3764765,48.239606 0,5.067812 23.6279641,4.208304 0,-5.067813 -23.6279641,-4.208303 m -20.382341,-21.189134 0,5.067813 28.0023349,17.011371 0,-5.067813 -28.0023349,-17.011371 m -31.4401131,-19.100252 0,5.067813 24.010364,14.586537 0,-5.067812 -24.010364,-14.586538" style="fill:#004153;fill-opacity:1;stroke:none;stroke-width:0.75;stroke-miterlimit:4;stroke-dasharray:none;stroke-opacity:0.6" id="path20996"></path> <path id="path20984" d="m 50.4256683,730.139247 0,5.067812 -24.0154543,-14.585265 0,-5.067813 24.0154543,14.585266" style="fill:#000000;fill-opacity:0.3;stroke:none;stroke-width:0.75;stroke-miterlimit:4;stroke-dasharray:none;stroke-opacity:0.6"></path> <path id="path20990" d="m 11.161317,706.317219 0,5.067813 0,0 0,-5.067813 0,0" style="fill:#000000;fill-opacity:0.3;stroke:none;stroke-width:0.75;stroke-miterlimit:4;stroke-dasharray:none;stroke-opacity:0.6"></path> <path id="path20992" d="m 11.161317,706.317219 0,5.067813 0,0 0,-5.067813 0,0" style="fill:#000000;fill-opacity:0.3;stroke:none;stroke-width:0.75;stroke-miterlimit:4;stroke-dasharray:none;stroke-opacity:0.6"></path> <path d="m 57.8560537,734.652325 0,5.067812 25.2460042,-13.836372 0,-5.067813 -25.2460042,13.836373 m -31.4458397,-19.098344 0,5.067813 7.625085,-4.180308 0,-5.067812 -7.625085,4.180307 m -4.2986542,38.688526 0,5.067812 28.1187725,-15.41051 0,-5.067813 -28.1187725,15.410511 m -16.35219276,7.21278 0,5.067813 23.78512316,-2.700975 0,-5.067813 -23.78512316,2.700975 m 5.40194996,-37.54069 0,5.067812 7.6289022,-4.182852 0,-5.067813 -7.6289022,4.182853" style="fill:#007a87;fill-opacity:1;stroke:none;stroke-width:0.75;stroke-miterlimit:4;stroke-dasharray:none;stroke-opacity:0.6" id="path20978"></path> <path style="fill:#59c7eb;fill-opacity:1;fill-rule:nonzero;stroke:none;stroke-width:1" d="m 11.161317,706.317219 0,17.597378 7.6289022,-4.182853 24.010364,14.586538 -28.1213178,15.411783 -7.43293083,-4.511806 -1.48696753,16.237028 23.78512316,-2.700975 -7.4329304,-4.511805 28.1187725,-15.410511 28.0023349,17.011371 -7.6199939,4.177763 23.6279641,4.208303 -0.7539825,-16.749863 -13.901909,7.621904 6.2704615,-3.444777 -27.9991537,-17.004372 25.2460042,-13.836373 -7.4329303,-4.511806 -25.2434593,13.835101 -24.0154543,-14.585266 7.625085,-4.180307 -22.873982,-5.056455 z m 79.7605252,1.622494 -22.6856454,3.841811 22.2981556,13.54687 0.3874898,-17.388681 z" id="path19686"></path> </g>
</svg>
