<svg xmlns="http://www.w3.org/2000/svg"  viewBox="0 0 10 10" xmlns:xlink="http://www.w3.org/1999/xlink" > 

 <use x="0" y="0" xlink:href="#g9411" id="use9846" transform="translate(-2.23107e-6,3.471)" width="100%" height="100%"></use> <use height="100%" width="100%" transform="translate(1.64077e-4,1.73586)" id="use9426" xlink:href="#g9411" y="0" x="0"></use> 
 
 <g id="g9411"> <g id="g9167" transform="translate(-1.59615e-4,-5.20686)">
  <path transform="matrix(0.861212,0,0,0.837711,0.693935,1.13275)" id="path9850" d="m 4.00003,7.55738 0.99984,-0.57752 1,0.57984 -0.99984,0.57752 z" class="icon-shadow"></path> <path style="fill:#c86502;stroke-width:1;fill-opacity:0.998714" d="m 4.00003,5.95534 0.99984,-0.57752 1,0.57984 -0.99984,0.57752 z" id="path9169"></path> <path id="path9171" d="M 4.00003,5.95534 3.9999,7.11216 5,7.692 l 3e-5,-1.15682 z" style="fill:#ec7a08;stroke-width:1"></path> <path style="fill:#ffb612;stroke-width:1" d="M 5.99987,5.95766 5.99984,7.11449 5,7.692 l 3e-5,-1.15682 z" id="path9173"></path> 
  </g>
 <path class="icon-shadow" d="M 6.18355,0.92066 6.18352,2.07749 5.18367,2.655 5.1837,1.49818 Z" id="path9173-4"></path> <use id="use9369" xlink:href="#g9167" y="0" x="0" transform="translate(1.49996,0.869501)" width="100%" height="100%"></use> <path id="path9834" d="m 7.6705,1.76603 -3e-5,1.15683 -0.99985,0.57751 3e-5,-1.15682 z" class="icon-shadow"></path> <use height="100%" width="100%" transform="translate(2.99992,1.739)" x="0" y="0" xlink:href="#g9167" id="use9371"></use> <use id="use9373" xlink:href="#g9167" y="0" x="0" transform="translate(-1.4998,0.866366)" width="100%" height="100%"></use> <path id="path9836" d="m 4.69676,1.81115 -3e-5,1.15683 -0.99985,0.57751 3e-5,-1.15682 z" style="fill:#000000;fill-opacity:0.308271;stroke-width:1;filter:url(#filter9830)"></path> <use height="100%" width="100%" transform="translate(1.6e-4,1.73586)" x="0" y="0" xlink:href="#g9167" id="use9375"></use> <path style="fill:#000000;fill-opacity:0.308271;stroke-width:1;filter:url(#filter9830)" d="m 6.18371,2.65652 -3e-5,1.15683 -0.99985,0.57751 3e-5,-1.15682 z" id="path9838"></path> <use id="use9377" xlink:href="#g9167" y="0" x="0" transform="translate(1.50012,2.60536)" width="100%" height="100%"></use> <use height="100%" width="100%" transform="translate(-2.99992,1.73201)" x="0" y="0" xlink:href="#g9167" id="use9379"></use> <path style="fill:#000000;fill-opacity:0.308271;stroke-width:1;filter:url(#filter9830)" d="m 3.20997,2.70164 -3e-5,1.15683 -0.99985,0.57751 3e-5,-1.15682 z" id="path9840"></path> <use id="use9381" xlink:href="#g9167" y="0" x="0" transform="translate(-1.49996,2.60151)" width="100%" height="100%"></use> <path id="path9842" d="m 4.69692,3.54701 -3e-5,1.15683 -0.99985,0.57751 3e-5,-1.15682 z" style="fill:#000000;fill-opacity:0.308271;stroke-width:1;filter:url(#filter9830)"></path> <use height="100%" width="100%" transform="translate(0,3.471)" x="0" y="0" xlink:href="#g9167" id="use9383"></use>
  </g>
</svg>
