<?xml version="1.0"?>

<svg xmlns:dc="http://purl.org/dc/elements/1.1/" xmlns:cc="http://creativecommons.org/ns#" xmlns:rdf="http://www.w3.org/1999/02/22-rdf-syntax-ns#" xmlns:svg="http://www.w3.org/2000/svg" xmlns="http://www.w3.org/2000/svg" id="svg" version="1.1" viewBox="0 0 10 10" width="10" height="10"> <defs id="defs8150"> <filter height="1.4750871" y="-0.23754353" width="1.2745556" x="-0.13727782" id="filter8372" style="color-interpolation-filters:sRGB"> <feGaussianBlur id="feGaussianBlur8374" stdDeviation="0.2900692"></feGaussianBlur> </filter> </defs> <metadata id="metadata3728"> <rdf:rdf> <cc:work rdf:about=""> <dc:title></dc:title> <dc:format>image/svg+xml</dc:format> <dc:type rdf:resource="http://purl.org/dc/dcmitype/StillImage"></dc:type> </cc:work> </rdf:rdf> </metadata> <path style="opacity:0.36400003;fill:#000000;fill-opacity:1;stroke-width:1;filter:url(#filter8372)" d="M 2.3956105,8.3437184 6.1990588,6.1478609 7.4668311,6.8826919 3.6633828,9.0785494 Z" id="path8198"></path> <path id="rect4222" d="M 2.3956105,4.7030934 6.1990588,2.5072359 7.4668311,3.2420669 3.6633828,5.4379244 Z" style="fill:#ec7a08;stroke-width:1"></path> <path style="fill:#cc6907;fill-opacity:1;stroke-width:1" d="m 2.3956105,4.7030934 -8.45e-5,2.956707 c 0,0.3939271 0.2429159,0.3815178 0.4286591,0.5178814 L 3.8339975,8.6964882 3.6700746,8.3564366 3.6633828,5.4379244 Z" id="path4244"></path> <path id="path8152" d="M 5.6329771,0.27688682 C 5.2990639,0.18557102 4.9655123,0.24980442 4.6441466,0.37923649 4.0014151,0.6381008 3.3367112,1.2335711 3.3367112,2.0878168 l 0,2.4856117 c 0,0.3478957 0.8452107,0.4236192 0.8452107,-0.2446907 l 0,-2.240921 c 0,-0.5219018 0.3774991,-0.7626702 0.7791787,-0.9244492 0.2008398,-0.08089 0.4670353,0.00185 0.4688274,0.2185462 l 0.019809,2.1701645 c 0,0.2398681 0.8452107,0.2015911 0.8452107,-0.3460428 L 6.2751387,1.1286971 C 6.2718424,0.7310163 5.9668898,0.36819889 5.6329771,0.27688682 Z" style="color:#000000;font-style:normal;font-variant:normal;font-weight:normal;font-stretch:normal;font-size:medium;line-height:normal;font-family:sans-serif;font-variant-ligatures:none;font-variant-position:normal;font-variant-caps:normal;font-variant-numeric:normal;font-variant-alternates:normal;font-feature-settings:normal;text-indent:0;text-align:start;text-decoration:none;text-decoration-line:none;text-decoration-style:solid;text-decoration-color:#000000;letter-spacing:normal;word-spacing:normal;text-transform:none;direction:ltr;block-progression:tb;writing-mode:lr-tb;baseline-shift:baseline;text-anchor:start;white-space:normal;shape-padding:0;clip-rule:nonzero;display:inline;overflow:visible;visibility:visible;opacity:1;isolation:auto;mix-blend-mode:normal;color-interpolation:sRGB;color-interpolation-filters:linearRGB;solid-color:#000000;solid-opacity:1;fill:#e5e5e5;fill-opacity:1;fill-rule:evenodd;stroke:none;stroke-width:1px;stroke-linecap:butt;stroke-linejoin:miter;stroke-miterlimit:4;stroke-dasharray:none;stroke-dashoffset:0;stroke-opacity:1;color-rendering:auto;image-rendering:auto;shape-rendering:auto;text-rendering:auto;enable-background:accumulate"></path> <path style="fill:#ffb612;stroke-width:1;fill-opacity:0.99854326" d="m 7.4668311,3.2420669 0,2.955649 c 0,0.4412685 -0.060037,0.501623 -0.3952991,0.6951868 L 4.077882,8.6212366 C 3.7372983,8.8178726 3.6633828,8.5826988 3.6633828,8.3632106 l 0,-2.9252862 z" id="path8156"></path> <path id="path8158" d="m 5.0676088,1.1417849 c 0.1772637,-0.021722 0.3617936,0.06034 0.3632813,0.2402344 l 0.019531,2.1699219 c 0.00781,0.1916941 0.3683621,0.1970861 0.4777371,0.1026337 L 5.9181417,1.6720945 c 0,-0.66698 -0.8505335,-0.5303065 -0.8505329,-0.5303096 z M 3.8874546,0.863145 C 3.5508556,1.0969753 3.3371401,1.5943864 3.3371401,2.0870975 l 0,2.5091858 c 0.023437,0.2347396 0.3787123,0.2769169 0.4802748,0.2207325 l 0,-2.7904398 c 0,-0.4917369 0.033105,-1.0770772 0.07004,-1.163431 z" style="color:#000000;font-style:normal;font-variant:normal;font-weight:normal;font-stretch:normal;font-size:medium;line-height:normal;font-family:sans-serif;font-variant-ligatures:none;font-variant-position:normal;font-variant-caps:normal;font-variant-numeric:normal;font-variant-alternates:normal;font-feature-settings:normal;text-indent:0;text-align:start;text-decoration:none;text-decoration-line:none;text-decoration-style:solid;text-decoration-color:#000000;letter-spacing:normal;word-spacing:normal;text-transform:none;direction:ltr;block-progression:tb;writing-mode:lr-tb;baseline-shift:baseline;text-anchor:start;white-space:normal;shape-padding:0;clip-rule:nonzero;display:inline;overflow:visible;visibility:visible;opacity:1;isolation:auto;mix-blend-mode:normal;color-interpolation:sRGB;color-interpolation-filters:linearRGB;solid-color:#000000;solid-opacity:1;fill:#d6dbdd;fill-opacity:1;fill-rule:evenodd;stroke:none;stroke-width:1px;stroke-linecap:butt;stroke-linejoin:miter;stroke-miterlimit:4;stroke-dasharray:none;stroke-dashoffset:0;stroke-opacity:1;color-rendering:auto;image-rendering:auto;shape-rendering:auto;text-rendering:auto;enable-background:accumulate"></path> <path id="path8406" d="M 7.4667969,3.2421875 7.0546875,3.4804688 3.6640625,5.4375 C 5.3712952,5.2980945 6.612208,4.5389066 7.4667969,3.2421875 Z" style="fill:#f3900c;fill-opacity:0.9977852;stroke-width:1"></path>
</svg>
