<?xml version="1.0" encoding="UTF-8" standalone="no"?>
<svg xmlns="http://www.w3.org/2000/svg" viewBox="0 0 10 10" >
  <path class="icon-shadow" d="M 0.952,2.58 V 4.43 L 1.76,3.98 4.24,5.51 1.31,7.08 0.552,6.63 0.417,8.3 2.89,8.03 2.13,7.53 5,5.96 7.93,7.71 7.12,8.16 9.59,8.57 9.5,6.86 8.06,7.62 8.7,7.31 5.81,5.51 8.43,4.11 7.66,3.62 5.05,5.06 2.53,3.53 3.34,3.12 Z M 9.24,2.76 6.89,3.17 9.19,4.56 Z" />
  <path  d="M 8.39,3.35 9.15,3.82 V 3.29 L 8.39,2.83 Z M 7.62,2.37 6.87,1.91 V 2.42 L 7.18,2.61 Z M 7.11,6.85 V 7.37 L 9.53,7.8 V 7.28 L 7.11,6.85 M 5.02,4.68 V 5.2 L 7.45,6.67 7.89,6.42 M 1.8,2.72 V 3.24 L 3.81,4.47 4.26,4.22" style="fill:#004153; " />
  <path  d="M 6.25,4.52 8.39,3.35 V 2.83 L 5.8,4.26 M 3.02,2.57 3.36,2.38 V 1.87 L 2.58,2.3 m 0,4.24 L 5.02,5.2 V 4.68 L 2.14,6.25 M 0.462,7 V 7.52 L 2.9,7.24 V 6.73 L 0.462,7 M 1.01,3.15 V 3.67 L 1.8,3.24 V 2.72 L 1.01,3.15"
   style="fill:#007a87; " />
  <path    class="fill-blue"     d="M 9.15,3.29 9.19,1.51 6.87,1.91 7.63,2.37 5.04,3.79 2.58,2.3 3.36,1.87 1.01,1.35 v 1.8 L 1.8,2.72 4.26,4.22 1.38,5.79 0.614,5.33 0.462,7 2.9,6.73 2.14,6.25 5.02,4.68 7.89,6.42 7.11,6.85 9.53,7.28 9.45,5.57 8.67,6 5.8,4.26 8.39,2.83" />
</svg>
