<?xml version="1.0"?>

<svg xmlns:dc="http://purl.org/dc/elements/1.1/" xmlns:cc="http://creativecommons.org/ns#" xmlns:rdf="http://www.w3.org/1999/02/22-rdf-syntax-ns#" xmlns:svg="http://www.w3.org/2000/svg" xmlns="http://www.w3.org/2000/svg" id="svg" version="1.1" viewBox="0 0 10 10" height="512" width="512"> <defs id="defs10"> <clipPath id="clipPath594" clipPathUnits="userSpaceOnUse"> <path id="path592" d="M 254.118,427.793 H 273 v -48.92 h -18.882 z"></path> </clipPath> <clipPath id="clipPath610" clipPathUnits="userSpaceOnUse"> <path id="path608" d="m 235.997,414.526 h 15.769 v -41.201 h -15.769 z"></path> </clipPath> </defs> <metadata id="metadata3728"> <rdf:rdf> <cc:work rdf:about=""> <dc:title></dc:title> <dc:format>image/svg+xml</dc:format> <dc:type rdf:resource="http://purl.org/dc/dcmitype/StillImage"></dc:type> </cc:work> </rdf:rdf> </metadata> <g style="stroke-width:8.31740284" id="g5228" transform="matrix(0.16030647,0,0,-0.16030647,-35.6574638,69.0779856)"> <g style="stroke-width:8.31740284" id="g580" transform="translate(249.6509,373.3242)"> <path d="M 0,0 C 0.494,0.628 1.025,1.377 1.526,2.228 1.485,4.076 1.124,5.423 0.941,5.982 c 0.447,0.941 0.826,1.874 1.174,2.803 -1.521,4.457 -3.906,13.208 -2.244,21.947 -4.919,7.002 -12.515,10.264 -12.883,10.419 -0.219,0.091 -0.468,0.065 -0.664,-0.069 -0.195,-0.135 -0.309,-0.36 -0.301,-0.597 10e-4,-0.028 0.084,-2.884 -0.892,-7.23 C -18.269,18.112 -2.388,6.906 -0.389,5.566 -0.189,4.957 0.379,2.844 0,0" style="fill:#94c947;fill-opacity:1;fill-rule:nonzero;stroke:none;stroke-width:8.31740284" id="path582"></path> </g> <g style="stroke-width:8.31740284" id="g584" transform="translate(266.6938,427.478)"> <path d="m 0,0 c -0.123,0.203 -0.341,0.33 -0.578,0.335 -0.226,0.012 -0.461,-0.109 -0.594,-0.306 -0.021,-0.031 -3.236,-4.875 -7.745,-8.832 -15.622,-13.71 -5.922,-36.825 -4.982,-39.364 -1.226,-4.614 -4.974,-8.026 -5.012,-8.06 -0.286,-0.257 -0.31,-0.697 -0.053,-0.982 0.137,-0.155 0.327,-0.233 0.518,-0.233 0.166,0 0.331,0.059 0.464,0.178 0.168,0.15 4.051,3.679 5.406,8.659 9.154,4.942 15.613,11.559 17.868,19.749 C 9.254,-14.471 0.352,-0.583 0,0" style="fill:#94c947;fill-opacity:1;fill-rule:nonzero;stroke:none;stroke-width:8.31740284" id="path586"></path> </g> <g style="stroke-width:8.31740284" id="g588"> <g style="stroke-width:8.31740284" id="g590"></g> <g style="stroke-width:8.31740284" id="g602"> <g clip-path="url(#clipPath594)" id="g600" style="opacity:0.5;stroke-width:8.31740284"> <g style="stroke-width:8.31740284" transform="translate(266.189,427.7925)" id="g598"> <path d="M 0,0 C 1.197,-9.213 1.861,-30.044 -12.071,-48.919 -2.917,-43.977 3.542,-37.361 5.797,-29.17 9.759,-14.785 0.857,-0.897 0.505,-0.314 0.395,-0.134 0.207,-0.028 0,0" style="fill:#d9f0a6;fill-opacity:1;fill-rule:nonzero;stroke:none;stroke-width:8.31740284" id="path596"></path> </g> </g> </g> </g> <g style="stroke-width:8.31740284" id="g604"> <g style="stroke-width:8.31740284" id="g606"></g> <g style="stroke-width:8.31740284" id="g618"> <g clip-path="url(#clipPath610)" id="g616" style="opacity:0.5;stroke-width:8.31740284"> <g style="stroke-width:8.31740284" transform="translate(235.9976,414.4141)" id="g614"> <path d="m 0,0 c 5.934,-8.248 12.441,-25.344 13.307,-35.665 0.225,-0.738 0.703,-2.75 0.346,-5.425 0.494,0.628 1.026,1.377 1.526,2.228 -0.041,1.848 -0.402,3.195 -0.585,3.755 0.448,0.94 0.826,1.874 1.175,2.802 -1.521,4.457 -3.906,13.208 -2.245,21.947 C 8.605,-3.355 1.01,-0.094 0.642,0.061 0.536,0.105 0.423,0.119 0.313,0.109 0.203,0.099 0.096,0.061 0,0" style="fill:#d9f0a6;fill-opacity:1;fill-rule:nonzero;stroke:none;stroke-width:8.31740284" id="path612"></path> </g> </g> </g> </g> </g>
</svg>
