<?xml version="1.0" encoding="UTF-8" standalone="no"?>
<svg xmlns="http://www.w3.org/2000/svg" viewBox="0 0 10 10" >
   <path class="fill-green"
     d="m 7.0163,0.58534 c -0.02,-0.031 -0.048,-0.0512 -0.098,-0.0521 -0.039,0 -0.049,0.0162 -0.098,0.0472 0,0.01 -0.5017,0.75416 -1.1954,1.36566 C 3.2116,4.0654 4.7096,7.6379 4.8557,8.0305 4.6687,8.7438 4.0868,9.2702 4.0813,9.2751 c -0.048,0.038 -0.048,0.098 0,0.1476 0.019,0.029 0.048,0.039 0.079,0.039 0.029,0 0.048,0 0.079,-0.029 C 4.254,9.4075 4.8537,8.8619 5.0628,8.0945 6.488,7.3339 7.4856,6.3111 7.8349,5.0459 8.4469,2.8227 7.0709,0.67537 7.0163,0.58534 M 4.3819,8.9559 C 4.4606,8.8575 4.5394,8.7591 4.6181,8.6115 4.6112,8.3163 4.5541,8.1196 4.5295,8.031 4.5984,7.8834 4.6574,7.7358 4.7115,7.5882 4.4734,6.9089 4.105,5.556 4.3627,4.2051 3.6017,3.1233 2.4274,2.6191 2.3703,2.595 2.3323,2.585 2.2913,2.585 2.267,2.605 2.238,2.624 2.219,2.664 2.219,2.703 c 0,0 0.01,0.4477 -0.1377,1.1172 -0.5254,2.3402 1.9284,4.0729 2.2379,4.2805 0.029,0.098 0.118,0.4427 0.059,0.8609"
       />
  <path class="fill-light-green" style="fill-opacity:.5"
     d="m 2.271,2.614 c 0.917,1.275 1.923,3.917 2.058,5.514 0.03,0.1 0.108,0.443 0.05,0.836 C 4.462,8.866 4.54,8.768 4.619,8.62 4.619,8.325 4.555,8.128 4.53,8.039 4.599,7.892 4.658,7.744 4.713,7.597 4.473,6.919 4.104,5.567 4.361,4.216 3.601,3.133 2.427,2.629 2.37,2.605 c -0.02,0 -0.04,0 -0.05,0 -0.02,0 -0.04,0 -0.05,0.02 M 6.938,0.546 C 7.135,1.97 7.233,5.18 5.069,8.098 6.483,7.335 7.486,6.322 7.834,5.055 8.444,2.832 7.071,0.6847 7.017,0.5947 7,0.5666 6.971,0.5504 6.919,0.546" />
</svg>
