<?xml version="1.0"?>

<svg xmlns:dc="http://purl.org/dc/elements/1.1/" xmlns:cc="http://creativecommons.org/ns#" xmlns:rdf="http://www.w3.org/1999/02/22-rdf-syntax-ns#" xmlns:svg="http://www.w3.org/2000/svg" xmlns="http://www.w3.org/2000/svg" id="svg" version="1.1" viewBox="0 0 10 10" height="512" width="512"> <defs id="defs10"> <clipPath id="clipPath990" clipPathUnits="userSpaceOnUse"> <path id="path988" d="m 554.659,426.17 h 6.161 v -10.812 h -6.161 z"></path> </clipPath> <clipPath id="clipPath1018" clipPathUnits="userSpaceOnUse"> <path id="path1016" d="M 555.051,414.294 H 597 v -43.093 h -41.949 z"></path> </clipPath> <clipPath id="clipPath1034" clipPathUnits="userSpaceOnUse"> <path id="path1032" d="m 549.136,388.93 h 14.281 v -14.281 h -14.281 z"></path> </clipPath> <clipPath id="clipPath1050" clipPathUnits="userSpaceOnUse"> <path id="path1048" d="m 552.745,392.538 h 14.281 v -14.281 h -14.281 z"></path> </clipPath> <clipPath id="clipPath1066" clipPathUnits="userSpaceOnUse"> <path id="path1064" d="m 548.595,381.206 h 19.356 v -1.21 h -19.356 z"></path> </clipPath> <clipPath id="clipPath1080" clipPathUnits="userSpaceOnUse"> <path id="path1078" d="m 548.595,387.255 h 19.356 v -1.21 h -19.356 z"></path> </clipPath> </defs> <metadata id="metadata3728"> <rdf:rdf> <cc:work rdf:about=""> <dc:title></dc:title> <dc:format>image/svg+xml</dc:format> <dc:type rdf:resource="http://purl.org/dc/dcmitype/StillImage"></dc:type> </cc:work> </rdf:rdf> </metadata> <g style="stroke-width:9.095738411" id="g3329" transform="matrix(0.146588782,0,0,-0.146588782,-78.0141143,63.2648268)"> <g style="stroke-width:9.095738411" id="g976" transform="translate(559.5537,426.1704)"> <path d="M 0,0 C 0,0 -5.472,0.321 -6.355,-0.479 -7.104,-1.156 -6.468,-7.367 -4.451,-7.927 -2.436,-8.487 0,0 0,0" style="fill:#bababa;fill-opacity:1;fill-rule:nonzero;stroke:none;stroke-width:9.095738411" id="path978"></path> </g> <g style="stroke-width:9.095738411" id="g980" transform="translate(553.6465,415.7231)"> <path d="m 0,0 c 0,0 -5.209,4.256 -4.984,6.553 0.223,2.296 3.416,1.288 5.488,1.456 2.072,0.168 4.032,2.744 5.6,2.408 1.568,-0.336 1.278,-7.643 0,-9.199 C 3.976,-1.376 0,0 0,0" style="fill:#dcdcdc;fill-opacity:1;fill-rule:nonzero;stroke:none;stroke-width:9.095738411" id="path982"></path> </g> <g style="stroke-width:9.095738411" id="g984"> <g style="stroke-width:9.095738411" id="g986"></g> <g style="stroke-width:9.095738411" id="g998"> <g clip-path="url(#clipPath990)" id="g996" style="opacity:0.199997008;stroke-width:9.095738411"> <g style="stroke-width:9.095738411" transform="translate(559.751,426.1396)" id="g994"> <path d="m 0,0 c -0.607,0.13 -1.274,-0.179 -1.983,-0.613 0.863,-1.84 0.494,-7.267 -0.588,-8.586 -0.707,-0.863 -1.619,-1.28 -2.521,-1.462 1.321,-0.229 3.638,-0.311 5.092,1.462 1.277,1.557 1.567,8.863 0,9.199" style="fill:#4c4c4c;fill-opacity:1;fill-rule:nonzero;stroke:none;stroke-width:9.095738411" id="path992"></path> </g> </g> </g> </g> <g style="stroke-width:9.095738411" id="g1000" transform="translate(551.5791,423.7314)"> <path d="M 0,0 C 0.091,0.007 0.179,0.042 0.269,0.058 -0.33,0.087 -0.91,0.093 -1.411,0.009 -0.916,-0.018 -0.434,-0.035 0,0" style="fill:#dcdcdc;fill-opacity:1;fill-rule:nonzero;stroke:none;stroke-width:9.095738411" id="path1002"></path> </g> <g style="stroke-width:9.095738411" id="g1004" transform="translate(550.9805,409.2002)"> <path d="m 0,0 c 0,-4.613 3.739,-8.353 8.353,-8.353 4.613,0 8.352,3.74 8.352,8.353 0,4.613 -3.739,8.353 -8.352,8.353 C 3.739,8.353 0,4.613 0,0" style="fill:#004153;fill-opacity:1;fill-rule:nonzero;stroke:none;stroke-width:9.095738411" id="path1006"></path> </g> <g style="stroke-width:9.095738411" id="g1008" transform="translate(542.7461,371.2012)"> <path d="m 0,0 h 49.953 c 2.727,2.731 4.301,5.943 4.301,9.382 0,4.449 -2.634,8.52 -6.994,11.66 0.009,0.223 0.016,0.445 0.016,0.671 0,9.018 -7.311,16.329 -16.33,16.329 -0.82,0 -1.626,-0.062 -2.414,-0.178 -2.574,3.188 -6.512,5.228 -10.929,5.228 -5.517,0 -7.188,-2.536 -9.442,-7.903 -5.093,-3.198 -11.624,-8.768 -11.624,-15.225 0,-1.69 0.237,-3.322 0.67,-4.873 C -3.77,13.297 -4.301,11.377 -4.301,9.382 -4.301,5.943 -2.727,2.731 0,0" style="fill:#dcdcdc;fill-opacity:1;fill-rule:nonzero;stroke:none;stroke-width:9.095738411" id="path1010"></path> </g> <g style="stroke-width:9.095738411" id="g1012"> <g style="stroke-width:9.095738411" id="g1014"></g> <g style="stroke-width:9.095738411" id="g1026"> <g clip-path="url(#clipPath1018)" id="g1024" style="opacity:0.199997008;stroke-width:9.095738411"> <g style="stroke-width:9.095738411" transform="translate(560.6914,409.0649)" id="g1022"> <path d="m 0,0 c 0.788,0.117 1.594,0.179 2.414,0.179 9.019,0 16.33,-7.311 16.33,-16.33 0,-0.225 -0.008,-0.448 -0.016,-0.671 4.36,-3.139 6.994,-7.211 6.994,-11.66 0,-3.441 -1.591,-6.649 -4.322,-9.382 h 10.608 c 2.726,2.732 4.301,5.944 4.301,9.382 0,4.449 -2.634,8.521 -6.995,11.66 0.009,0.223 0.017,0.446 0.017,0.671 0,9.019 -7.311,16.33 -16.33,16.33 C 12.181,0.179 11.375,0.117 10.587,0 8.013,3.188 4.074,5.229 -0.343,5.229 -2.217,5.229 -4.005,4.86 -5.64,4.193 -3.421,3.289 -1.482,1.837 0,0" style="fill:#4c4c4c;fill-opacity:1;fill-rule:nonzero;stroke:none;stroke-width:9.095738411" id="path1020"></path> </g> </g> </g> </g> <g style="stroke-width:9.095738411" id="g1028"> <g style="stroke-width:9.095738411" id="g1030"></g> <g style="stroke-width:9.095738411" id="g1042"> <g clip-path="url(#clipPath1034)" id="g1040" style="opacity:0.199997008;stroke-width:9.095738411"> <g style="stroke-width:9.095738411" transform="translate(562.5615,374.6484)" id="g1038"> <path d="M 0,0 -13.426,13.426 -12.57,14.281 0.855,0.855 Z" style="fill:#4c4c4c;fill-opacity:1;fill-rule:nonzero;stroke:none;stroke-width:9.095738411" id="path1036"></path> </g> </g> </g> </g> <g style="stroke-width:9.095738411" id="g1044"> <g style="stroke-width:9.095738411" id="g1046"></g> <g style="stroke-width:9.095738411" id="g1058"> <g clip-path="url(#clipPath1050)" id="g1056" style="opacity:0.199997008;stroke-width:9.095738411"> <g style="stroke-width:9.095738411" transform="translate(566.1709,378.2568)" id="g1054"> <path d="M 0,0 -13.426,13.426 -12.57,14.281 0.855,0.855 Z" style="fill:#4c4c4c;fill-opacity:1;fill-rule:nonzero;stroke:none;stroke-width:9.095738411" id="path1052"></path> </g> </g> </g> </g> <g style="stroke-width:9.095738411" id="g1060"> <g style="stroke-width:9.095738411" id="g1062"></g> <g style="stroke-width:9.095738411" id="g1072"> <g clip-path="url(#clipPath1066)" id="g1070" style="opacity:0.199997008;stroke-width:9.095738411"> <path d="m 567.951,379.996 h -19.356 v 1.21 h 19.356 z" style="fill:#4c4c4c;fill-opacity:1;fill-rule:nonzero;stroke:none;stroke-width:9.095738411" id="path1068"></path> </g> </g> </g> <g style="stroke-width:9.095738411" id="g1074"> <g style="stroke-width:9.095738411" id="g1076"></g> <g style="stroke-width:9.095738411" id="g1086"> <g clip-path="url(#clipPath1080)" id="g1084" style="opacity:0.199997008;stroke-width:9.095738411"> <path d="m 567.951,386.045 h -19.356 v 1.21 h 19.356 z" style="fill:#4c4c4c;fill-opacity:1;fill-rule:nonzero;stroke:none;stroke-width:9.095738411" id="path1082"></path> </g> </g> </g> <g style="stroke-width:9.095738411" id="g1088" transform="translate(555.6943,412.459)"> <path d="m 0,0 c -1.272,-3.021 -2.973,-7.991 -1.928,-9.855 0.221,-0.394 0.558,-0.602 1.06,-0.654 0.49,-0.051 0.849,0.078 1.124,0.405 C 1.604,-8.499 0.75,-3.235 0,0 m -0.675,-11.728 c -0.103,0 -0.209,0.005 -0.316,0.017 -0.891,0.09 -1.58,0.529 -1.993,1.265 -1.789,3.197 2.142,11.595 2.595,12.542 L 0.305,3.541 0.74,1.999 c 0.289,-1.027 2.766,-10.117 0.442,-12.88 -0.468,-0.557 -1.106,-0.847 -1.857,-0.847" style="fill:#004153;fill-opacity:1;fill-rule:nonzero;stroke:none;stroke-width:9.095738411" id="path1090"></path> </g> </g>
</svg>
