<?xml version="1.0" encoding="UTF-8" standalone="no"?>
<svg
   xmlns:dc="http://purl.org/dc/elements/1.1/"
   xmlns:cc="http://creativecommons.org/ns#"
   xmlns:rdf="http://www.w3.org/1999/02/22-rdf-syntax-ns#"
   xmlns:svg="http://www.w3.org/2000/svg"
   xmlns="http://www.w3.org/2000/svg"
   width="10"
   height="10"
   viewBox="0 0 10 10"
   version="1.1"
   id="svg">
  <defs
     id="defs10">
    <clipPath
       clipPathUnits="userSpaceOnUse"
       id="clipPath990">
      <path
         d="m 554.659,426.17 h 6.161 v -10.812 h -6.161 z"
         id="path988" />
    </clipPath>
    <clipPath
       clipPathUnits="userSpaceOnUse"
       id="clipPath1018">
      <path
         d="M 555.051,414.294 H 597 v -43.093 h -41.949 z"
         id="path1016" />
    </clipPath>
    <clipPath
       clipPathUnits="userSpaceOnUse"
       id="clipPath1034">
      <path
         d="m 549.136,388.93 h 14.281 v -14.281 h -14.281 z"
         id="path1032" />
    </clipPath>
  </defs>
  <metadata
     id="metadata3728">
    <rdf:rdf>
      <cc:work
         rdf:about="">
        <dc:title />
        <dc:format>image/svg+xml</dc:format>
        <dc:type
           rdf:resource="http://purl.org/dc/dcmitype/StillImage" />
      </cc:work>
    </rdf:rdf>
    <rdf:RDF>
      <cc:Work
         rdf:about="">
        <dc:format>image/svg+xml</dc:format>
        <dc:type
           rdf:resource="http://purl.org/dc/dcmitype/StillImage" />
        <dc:title></dc:title>
      </cc:Work>
    </rdf:RDF>
  </metadata>
  <path
     id="path982"
     d="m 3.724,0.836 c -0.231,0 -0.51,0.352 -0.805,0.371 -0.316,0.03 -0.804,-0.128 -0.834,0.22 -0.04,0.349 0.757,0.996 0.757,0.996 0,0 0.605,0.209 0.927,-0.186 0.194,-0.235 0.239,-1.345 0,-1.3968 -0.01,0 -0.03,0 -0.04,0 z m 0.134,1.8 C 3.02,2.636 2.767,3.021 2.423,3.836 1.65,4.322 0.658,5.17 0.658,6.152 c 0,0.256 0.041,0.502 0.1038,0.739 -0.1469,0.273 -0.2272,0.564 -0.2272,0.868 0,0.524 0.2386,1.01 0.6534,1.425 H 8.777 C 9.192,8.769 9.429,8.281 9.429,7.759 9.429,7.083 9.03,6.463 8.368,5.987 V 5.884 C 8.368,4.513 7.257,3.402 5.887,3.402 5.761,3.402 5.641,3.423 5.521,3.433 5.129,2.946 4.53,2.636 3.858,2.636 Z"
     style="fill:#dcdcdc;fill-opacity:1;fill-rule:nonzero;stroke:none;stroke-width:1.3313" />
  <path
     id="path1002"
     style="fill:#dcdcdc;fill-opacity:1;fill-rule:nonzero;stroke:none;stroke-width:1.3334"
     d="m 2.543,1.21 c 0.01,0 0.03,0 0.04,0 -0.09,0 -0.179,0 -0.256,0 0.07,0 0.149,0 0.215,0" />
  <path
     class="fill-shade"
     d="m 3.939,3.422 c 0.12,-0.02 0.242,-0.03 0.367,-0.03 1.372,0 2.485,1.113 2.485,2.485 0,0.04 0,0.07 0,0.104 0.663,0.48 1.063,1.097 1.063,1.774 0,0.524 -0.24,1.011 -0.657,1.427 H 8.811 C 9.226,8.769 9.465,8.28 9.465,7.757 9.465,7.08 9.067,6.46 8.4,5.983 c 0,-0.03 0,-0.07 0,-0.104 C 8.401,4.507 7.289,3.394 5.917,3.394 c -0.126,0 -0.246,0 -0.366,0.03 C 5.158,2.937 4.56,2.626 3.888,2.626 3.603,2.626 3.33,2.682 3.082,2.784 3.419,2.921 3.714,3.143 3.94,3.422"
     id="path1020"
     style="stroke-width:1.3334" />
  <path
     id="path978"
     d="m 3.392,0.8162 c -0.245,-4e-4 -0.54,0.014 -0.615,0.082 -0.03,0.033 -0.05,0.1538 -0.04,0.3038 0.06,0 0.113,0 0.166,-10e-4 C 3.192,1.182 3.56,0.8809 3.488,0.9251 3.619,1.204 3.562,2.027 3.399,2.227 3.291,2.356 3.153,2.421 3.016,2.45 3.216,2.48 3.568,2.5 3.789,2.227 3.983,1.991 4.026,0.883 3.789,0.832 3.769,0.832 3.583,0.816 3.393,0.816 Z"
     style="fill:#bababa;fill-opacity:1;fill-rule:nonzero;stroke:none;stroke-width:1.327" />
  <path
     id="path1006"
     d="m 3.704,2.172 c -0.7,0 -1.265,0.569 -1.265,1.265 0,0.106 0.01,0.207 0.03,0.302 C 2.627,3.393 2.768,3.134 2.959,2.956 2.775,3.405 2.51,4.182 2.708,4.538 2.77,4.649 2.876,4.715 3.006,4.731 h 0.05 c 0.114,0 0.209,-0.04 0.282,-0.13 0.324,-0.38 0.04,-1.534 -0.04,-1.87 0.183,-0.05 0.375,-0.08 0.573,-0.08 0.349,0 0.681,0.08 0.973,0.237 C 4.637,2.466 4.204,2.172 3.704,2.172 Z M 3.162,2.947 C 3.275,3.439 3.405,4.239 3.204,4.481 3.162,4.523 3.11,4.554 3.033,4.544 2.961,4.544 2.905,4.502 2.871,4.44 2.713,4.157 2.975,3.402 3.165,2.942 Z"
     style="fill:#004153;fill-opacity:1;fill-rule:nonzero;stroke:none;stroke-width:1.327" />
  <path
     class="stroke-shade"
     d="M 2.098,6.739 H 5.05 M 2.098,7.667 H 5.05 M 2.863,5.936 4.906,7.978 M 2.315,6.498 4.359,8.541 Z" />
</svg>
