<?xml version="1.0"?>

<!-- Created with Inkscape (http://www.inkscape.org/) --> <svg xmlns:dc="http://purl.org/dc/elements/1.1/" xmlns:cc="http://creativecommons.org/ns#" xmlns:rdf="http://www.w3.org/1999/02/22-rdf-syntax-ns#" xmlns:svg="http://www.w3.org/2000/svg" xmlns="http://www.w3.org/2000/svg" xmlns:sodipodi="http://sodipodi.sourceforge.net/DTD/sodipodi-0.dtd" xmlns:inkscape="http://www.inkscape.org/namespaces/inkscape" width="512" height="512" viewBox="0 0 10 10" version="1.1" id="svg" inkscape:version="0.92.3 (2405546, 2018-03-11)" sodipodi:docname="old-server.svg"> <defs id="defs10"> <clipPath clipPathUnits="userSpaceOnUse" id="clipPath15494"> <path d="M 0,792 H 1224 V 0 H 0 Z" id="path15492" inkscape:connector-curvature="0"></path> </clipPath> </defs> <sodipodi:namedview id="base" pagecolor="#cbccd2" bordercolor="#666666" borderopacity="1.0" inkscape:pageopacity="0" inkscape:pageshadow="2" inkscape:zoom="73.5277787" inkscape:cx="4.00063397" inkscape:cy="5.56453274" inkscape:document-units="mm" inkscape:current-layer="svg" showgrid="true" units="px" inkscape:window-width="1920" inkscape:window-height="1053" inkscape:window-x="0" inkscape:window-y="27" inkscape:window-maximized="1" inkscape:showpageshadow="false" borderlayer="true"> <inkscape:grid type="xygrid" id="pixels" spacingx="0.25" spacingy="0.25" empspacing="4" empcolor="#666666" empopacity="0.15" color="#666666" opacity="0.05"></inkscape:grid> </sodipodi:namedview> <metadata id="metadata3728"> <rdf:rdf> <cc:work rdf:about=""> <dc:title></dc:title> <dc:format>image/svg+xml</dc:format> <dc:type rdf:resource="http://purl.org/dc/dcmitype/StillImage"></dc:type> </cc:work> </rdf:rdf> </metadata> <g transform="matrix(0.09768451,0,0,-0.09768451,-5.2819717,34.8934105)" id="g23072" style="stroke-width:13.649383545"> <g transform="translate(138.0952,335.2734)" id="g15444" style="stroke-width:13.649383545"> <path inkscape:connector-curvature="0" id="path15446" style="fill:#eeefee;fill-opacity:1;fill-rule:nonzero;stroke:none;stroke-width:13.649383545" d="m 0,0 -31.384,-18.239 -31.709,18.27 31.5,18.209 z"></path> </g> <g transform="translate(138.0952,335.2734)" id="g15448" style="stroke-width:13.649383545"> <path inkscape:connector-curvature="0" id="path15450" style="fill:#e8e8e7;fill-opacity:1;fill-rule:nonzero;stroke:none;stroke-width:13.649383545" d="m 0,0 -0.01,-60.702 -31.385,-18.238 0.011,60.701 z"></path> </g> <g transform="translate(106.7109,317.0347)" id="g15452" style="stroke-width:13.649383545"> <path inkscape:connector-curvature="0" id="path15454" style="fill:#b7b6b5;fill-opacity:1;fill-rule:nonzero;stroke:none;stroke-width:13.649383545" d="m 0,0 -0.01,-60.701 -31.71,18.272 0.01,60.701 z"></path> </g> <g transform="translate(138.0952,317.7549)" id="g15456" style="stroke-width:13.649383545"> <path inkscape:connector-curvature="0" id="path15458" style="fill:#b7b6b5;fill-opacity:1;fill-rule:nonzero;stroke:none;stroke-width:13.649383545" d="m 0,0 -0.01,-0.691 -31.385,-18.239 0.011,0.691 z"></path> </g> <g transform="translate(106.7109,299.5161)" id="g15460" style="stroke-width:13.649383545"> <path inkscape:connector-curvature="0" id="path15462" style="fill:#909090;fill-opacity:1;fill-rule:nonzero;stroke:none;stroke-width:13.649383545" d="m 0,0 -0.01,-0.691 -31.71,18.273 0.01,0.69 z"></path> </g> <g transform="translate(122.3979,320.8682)" id="g15464" style="stroke-width:13.649383545"> <path inkscape:connector-curvature="0" id="path15466" style="fill:#b7b6b5;fill-opacity:1;fill-rule:nonzero;stroke:none;stroke-width:13.649383545" d="M 0,0 13.703,7.911 V -2.637 L 0,-10.548 Z"></path> </g> <g transform="translate(122.3979,317.5132)" id="g15468" style="stroke-width:13.649383545"> <path inkscape:connector-curvature="0" id="path15470" style="fill:#e8e8e7;fill-opacity:1;fill-rule:nonzero;stroke:none;stroke-width:13.649383545" d="M 0,0 13.703,7.911 V 7.742 L 0,-0.169 Z"></path> </g> <g transform="translate(122.3979,319.23)" id="g15472" style="stroke-width:13.649383545"> <path inkscape:connector-curvature="0" id="path15474" style="fill:#e8e8e7;fill-opacity:1;fill-rule:nonzero;stroke:none;stroke-width:13.649383545" d="M 0,0 13.703,7.911 V 7.742 L 0,-0.169 Z"></path> </g> <g transform="translate(122.3979,315.6787)" id="g15476" style="stroke-width:13.649383545"> <path inkscape:connector-curvature="0" id="path15478" style="fill:#e8e8e7;fill-opacity:1;fill-rule:nonzero;stroke:none;stroke-width:13.649383545" d="M 0,0 13.703,7.911 V 7.742 L 0,-0.169 Z"></path> </g> <g transform="translate(122.3979,312.1606)" id="g15480" style="stroke-width:13.649383545"> <path inkscape:connector-curvature="0" id="path15482" style="fill:#e8e8e7;fill-opacity:1;fill-rule:nonzero;stroke:none;stroke-width:13.649383545" d="M 0,0 13.703,7.911 V 7.742 L 0,-0.169 Z"></path> </g> <g transform="translate(122.3979,313.8252)" id="g15484" style="stroke-width:13.649383545"> <path inkscape:connector-curvature="0" id="path15486" style="fill:#e8e8e7;fill-opacity:1;fill-rule:nonzero;stroke:none;stroke-width:13.649383545" d="M 0,0 13.703,7.911 V 7.742 L 0,-0.169 Z"></path> </g> <g id="g15488" style="stroke-width:13.649383545"> <g clip-path="url(#clipPath15494)" id="g15490" style="stroke-width:13.649383545"> <g transform="translate(124.3159,323.9414)" id="g15496" style="stroke-width:13.649383545"> <path inkscape:connector-curvature="0" id="path15498" style="fill:#b7b6b5;fill-opacity:1;fill-rule:nonzero;stroke:none;stroke-width:13.649383545" d="m 0,0 c -0.071,-0.622 -0.467,-1.088 -0.885,-1.041 -0.417,0.048 -0.698,0.591 -0.627,1.213 0.071,0.623 0.467,1.089 0.885,1.041 C -0.21,1.165 0.071,0.622 0,0"></path> </g> <g transform="translate(127.6001,325.7441)" id="g15500" style="stroke-width:13.649383545"> <path inkscape:connector-curvature="0" id="path15502" style="fill:#b7b6b5;fill-opacity:1;fill-rule:nonzero;stroke:none;stroke-width:13.649383545" d="m 0,0 c -0.071,-0.622 -0.467,-1.088 -0.885,-1.04 -0.418,0.047 -0.698,0.591 -0.628,1.213 0.072,0.622 0.468,1.088 0.885,1.04 C -0.21,1.166 0.071,0.623 0,0"></path> </g> <g transform="translate(130.4639,327.3511)" id="g15504" style="stroke-width:13.649383545"> <path inkscape:connector-curvature="0" id="path15506" style="fill:#b7b6b5;fill-opacity:1;fill-rule:nonzero;stroke:none;stroke-width:13.649383545" d="m 0,0 c -0.071,-0.622 -0.467,-1.088 -0.885,-1.04 -0.417,0.047 -0.698,0.59 -0.627,1.213 0.071,0.622 0.467,1.088 0.885,1.04 C -0.21,1.166 0.071,0.623 0,0"></path> </g> <g transform="translate(108.9971,312.5996)" id="g15508" style="stroke-width:13.649383545"> <path inkscape:connector-curvature="0" id="path15510" style="fill:#b7b6b5;fill-opacity:1;fill-rule:nonzero;stroke:none;stroke-width:13.649383545" d="m 0,0 c -0.08,0 -0.158,0.042 -0.201,0.116 -0.064,0.111 -0.026,0.253 0.085,0.317 l 11.084,6.4 C 11.08,6.897 11.221,6.858 11.285,6.748 11.349,6.637 11.311,6.495 11.2,6.431 L 0.116,0.031 C 0.08,0.01 0.04,0 0,0"></path> </g> <g transform="translate(108.9971,310.6958)" id="g15512" style="stroke-width:13.649383545"> <path inkscape:connector-curvature="0" id="path15514" style="fill:#b7b6b5;fill-opacity:1;fill-rule:nonzero;stroke:none;stroke-width:13.649383545" d="m 0,0 c -0.08,0 -0.158,0.042 -0.201,0.116 -0.064,0.111 -0.026,0.253 0.085,0.317 l 11.084,6.4 C 11.08,6.897 11.221,6.858 11.285,6.748 11.349,6.637 11.311,6.495 11.2,6.431 L 0.116,0.031 C 0.08,0.01 0.04,0 0,0"></path> </g> <g transform="translate(108.9971,308.792)" id="g15516" style="stroke-width:13.649383545"> <path inkscape:connector-curvature="0" id="path15518" style="fill:#b7b6b5;fill-opacity:1;fill-rule:nonzero;stroke:none;stroke-width:13.649383545" d="m 0,0 c -0.08,0 -0.158,0.042 -0.201,0.116 -0.064,0.111 -0.026,0.253 0.085,0.317 l 11.084,6.4 C 11.08,6.897 11.221,6.857 11.285,6.748 11.349,6.637 11.311,6.495 11.2,6.431 L 0.116,0.031 C 0.08,0.01 0.04,0 0,0"></path> </g> <g transform="translate(108.9971,306.8882)" id="g15520" style="stroke-width:13.649383545"> <path inkscape:connector-curvature="0" id="path15522" style="fill:#b7b6b5;fill-opacity:1;fill-rule:nonzero;stroke:none;stroke-width:13.649383545" d="m 0,0 c -0.08,0 -0.158,0.042 -0.201,0.116 -0.064,0.111 -0.026,0.253 0.085,0.317 l 11.084,6.4 C 11.08,6.897 11.221,6.858 11.285,6.748 11.349,6.637 11.311,6.495 11.2,6.431 L 0.116,0.031 C 0.08,0.01 0.04,0 0,0"></path> </g> <g transform="translate(109.8535,297.6362)" id="g15524" style="stroke-width:13.649383545"> <path inkscape:connector-curvature="0" id="path15526" style="fill:#b7b6b5;fill-opacity:1;fill-rule:nonzero;stroke:none;stroke-width:13.649383545" d="m 0,0 c -0.081,0 -0.158,0.042 -0.201,0.116 -0.064,0.111 -0.026,0.253 0.085,0.317 l 11.084,6.4 C 11.079,6.897 11.221,6.858 11.285,6.748 11.349,6.637 11.311,6.495 11.2,6.431 L 0.116,0.031 C 0.079,0.01 0.039,0 0,0"></path> </g> <g transform="translate(109.8535,295.7476)" id="g15528" style="stroke-width:13.649383545"> <path inkscape:connector-curvature="0" id="path15530" style="fill:#b7b6b5;fill-opacity:1;fill-rule:nonzero;stroke:none;stroke-width:13.649383545" d="m 0,0 c -0.081,0 -0.158,0.042 -0.201,0.116 -0.064,0.111 -0.026,0.253 0.085,0.317 l 11.084,6.4 C 11.079,6.897 11.221,6.859 11.285,6.748 11.349,6.637 11.311,6.495 11.2,6.431 L 0.116,0.031 C 0.079,0.01 0.039,0 0,0"></path> </g> <g transform="translate(109.8535,293.8594)" id="g15532" style="stroke-width:13.649383545"> <path inkscape:connector-curvature="0" id="path15534" style="fill:#b7b6b5;fill-opacity:1;fill-rule:nonzero;stroke:none;stroke-width:13.649383545" d="m 0,0 c -0.081,0 -0.158,0.042 -0.201,0.116 -0.064,0.111 -0.026,0.253 0.085,0.317 l 11.084,6.4 C 11.079,6.896 11.221,6.858 11.285,6.748 11.349,6.637 11.311,6.495 11.2,6.431 L 0.116,0.031 C 0.079,0.01 0.039,0 0,0"></path> </g> <g transform="translate(109.8535,291.9707)" id="g15536" style="stroke-width:13.649383545"> <path inkscape:connector-curvature="0" id="path15538" style="fill:#b7b6b5;fill-opacity:1;fill-rule:nonzero;stroke:none;stroke-width:13.649383545" d="m 0,0 c -0.081,0 -0.158,0.042 -0.201,0.116 -0.064,0.111 -0.026,0.253 0.085,0.317 l 11.084,6.4 C 11.079,6.897 11.221,6.858 11.285,6.748 11.349,6.637 11.311,6.495 11.2,6.431 L 0.116,0.031 C 0.079,0.01 0.039,0 0,0"></path> </g> <g transform="translate(109.8535,290.0825)" id="g15540" style="stroke-width:13.649383545"> <path inkscape:connector-curvature="0" id="path15542" style="fill:#b7b6b5;fill-opacity:1;fill-rule:nonzero;stroke:none;stroke-width:13.649383545" d="m 0,0 c -0.081,0 -0.158,0.042 -0.201,0.116 -0.064,0.111 -0.026,0.253 0.085,0.317 l 11.084,6.4 C 11.079,6.897 11.221,6.858 11.285,6.748 11.349,6.637 11.311,6.495 11.2,6.431 L 0.116,0.031 C 0.079,0.01 0.039,0 0,0"></path> </g> <g transform="translate(109.8535,288.1938)" id="g15544" style="stroke-width:13.649383545"> <path inkscape:connector-curvature="0" id="path15546" style="fill:#b7b6b5;fill-opacity:1;fill-rule:nonzero;stroke:none;stroke-width:13.649383545" d="m 0,0 c -0.081,0 -0.158,0.042 -0.201,0.116 -0.064,0.111 -0.026,0.253 0.085,0.317 l 11.084,6.4 C 11.079,6.897 11.221,6.858 11.285,6.748 11.349,6.637 11.311,6.495 11.2,6.431 L 0.116,0.031 C 0.079,0.01 0.039,0 0,0"></path> </g> <g transform="translate(109.8535,286.3057)" id="g15548" style="stroke-width:13.649383545"> <path inkscape:connector-curvature="0" id="path15550" style="fill:#b7b6b5;fill-opacity:1;fill-rule:nonzero;stroke:none;stroke-width:13.649383545" d="m 0,0 c -0.081,0 -0.158,0.042 -0.201,0.116 -0.064,0.111 -0.026,0.253 0.085,0.317 l 11.084,6.4 C 11.079,6.897 11.221,6.858 11.285,6.748 11.349,6.637 11.311,6.495 11.2,6.431 L 0.116,0.031 C 0.079,0.01 0.039,0 0,0"></path> </g> <g transform="translate(109.8535,284.4175)" id="g15552" style="stroke-width:13.649383545"> <path inkscape:connector-curvature="0" id="path15554" style="fill:#b7b6b5;fill-opacity:1;fill-rule:nonzero;stroke:none;stroke-width:13.649383545" d="m 0,0 c -0.081,0 -0.158,0.042 -0.201,0.116 -0.064,0.111 -0.026,0.253 0.085,0.317 L 10.968,6.832 C 11.079,6.896 11.221,6.857 11.285,6.747 11.349,6.636 11.311,6.494 11.2,6.43 L 0.116,0.031 C 0.079,0.01 0.039,0 0,0"></path> </g> <g transform="translate(109.8535,282.5288)" id="g15556" style="stroke-width:13.649383545"> <path inkscape:connector-curvature="0" id="path15558" style="fill:#b7b6b5;fill-opacity:1;fill-rule:nonzero;stroke:none;stroke-width:13.649383545" d="m 0,0 c -0.081,0 -0.158,0.042 -0.201,0.116 -0.064,0.111 -0.026,0.253 0.085,0.317 l 11.084,6.4 C 11.079,6.896 11.221,6.858 11.285,6.748 11.349,6.637 11.311,6.495 11.2,6.431 L 0.116,0.031 C 0.079,0.01 0.039,0 0,0"></path> </g> <g transform="translate(109.8535,280.6401)" id="g15560" style="stroke-width:13.649383545"> <path inkscape:connector-curvature="0" id="path15562" style="fill:#b7b6b5;fill-opacity:1;fill-rule:nonzero;stroke:none;stroke-width:13.649383545" d="m 0,0 c -0.081,0 -0.158,0.042 -0.201,0.116 -0.064,0.111 -0.026,0.253 0.085,0.317 l 11.084,6.4 C 11.079,6.897 11.221,6.858 11.285,6.748 11.349,6.637 11.311,6.495 11.2,6.431 L 0.116,0.031 C 0.079,0.01 0.039,0 0,0"></path> </g> <g transform="translate(109.8535,278.7515)" id="g15564" style="stroke-width:13.649383545"> <path inkscape:connector-curvature="0" id="path15566" style="fill:#b7b6b5;fill-opacity:1;fill-rule:nonzero;stroke:none;stroke-width:13.649383545" d="m 0,0 c -0.081,0 -0.158,0.042 -0.201,0.116 -0.064,0.111 -0.026,0.253 0.085,0.317 l 11.084,6.4 C 11.079,6.897 11.221,6.858 11.285,6.748 11.349,6.637 11.311,6.495 11.2,6.431 L 0.116,0.031 C 0.079,0.01 0.039,0 0,0"></path> </g> <g transform="translate(109.8535,276.8633)" id="g15568" style="stroke-width:13.649383545"> <path inkscape:connector-curvature="0" id="path15570" style="fill:#b7b6b5;fill-opacity:1;fill-rule:nonzero;stroke:none;stroke-width:13.649383545" d="m 0,0 c -0.081,0 -0.158,0.042 -0.201,0.116 -0.064,0.111 -0.026,0.253 0.085,0.317 l 11.084,6.4 C 11.079,6.896 11.221,6.858 11.285,6.748 11.349,6.637 11.311,6.495 11.2,6.431 L 0.116,0.031 C 0.079,0.01 0.039,0 0,0"></path> </g> <g transform="translate(109.8535,274.9751)" id="g15572" style="stroke-width:13.649383545"> <path inkscape:connector-curvature="0" id="path15574" style="fill:#b7b6b5;fill-opacity:1;fill-rule:nonzero;stroke:none;stroke-width:13.649383545" d="m 0,0 c -0.081,0 -0.158,0.042 -0.201,0.116 -0.064,0.111 -0.026,0.253 0.085,0.317 l 11.084,6.4 C 11.079,6.896 11.221,6.858 11.285,6.748 11.349,6.637 11.311,6.495 11.2,6.431 L 0.116,0.031 C 0.079,0.01 0.039,0 0,0"></path> </g> <g transform="translate(109.8535,273.0864)" id="g15576" style="stroke-width:13.649383545"> <path inkscape:connector-curvature="0" id="path15578" style="fill:#b7b6b5;fill-opacity:1;fill-rule:nonzero;stroke:none;stroke-width:13.649383545" d="m 0,0 c -0.081,0 -0.158,0.042 -0.201,0.116 -0.064,0.111 -0.026,0.253 0.085,0.317 l 11.084,6.4 C 11.079,6.897 11.221,6.858 11.285,6.748 11.349,6.637 11.311,6.495 11.2,6.431 L 0.116,0.031 C 0.079,0.01 0.039,0 0,0"></path> </g> <g transform="translate(109.8535,271.1982)" id="g15580" style="stroke-width:13.649383545"> <path inkscape:connector-curvature="0" id="path15582" style="fill:#b7b6b5;fill-opacity:1;fill-rule:nonzero;stroke:none;stroke-width:13.649383545" d="m 0,0 c -0.081,0 -0.158,0.042 -0.201,0.116 -0.064,0.111 -0.026,0.253 0.085,0.317 l 11.084,6.4 C 11.079,6.897 11.221,6.858 11.285,6.748 11.349,6.637 11.311,6.495 11.2,6.431 L 0.116,0.031 C 0.079,0.01 0.039,0 0,0"></path> </g> <g transform="translate(109.8535,269.3096)" id="g15584" style="stroke-width:13.649383545"> <path inkscape:connector-curvature="0" id="path15586" style="fill:#b7b6b5;fill-opacity:1;fill-rule:nonzero;stroke:none;stroke-width:13.649383545" d="m 0,0 c -0.081,0 -0.158,0.042 -0.201,0.116 -0.064,0.111 -0.026,0.253 0.085,0.317 l 11.084,6.4 C 11.079,6.896 11.221,6.858 11.285,6.748 11.349,6.637 11.311,6.495 11.2,6.431 L 0.116,0.031 C 0.079,0.01 0.039,0 0,0"></path> </g> <g transform="translate(109.8535,267.4214)" id="g15588" style="stroke-width:13.649383545"> <path inkscape:connector-curvature="0" id="path15590" style="fill:#b7b6b5;fill-opacity:1;fill-rule:nonzero;stroke:none;stroke-width:13.649383545" d="m 0,0 c -0.081,0 -0.158,0.042 -0.201,0.116 -0.064,0.111 -0.026,0.253 0.085,0.317 l 11.084,6.4 C 11.079,6.896 11.221,6.858 11.285,6.748 11.349,6.637 11.311,6.495 11.2,6.431 L 0.116,0.031 C 0.079,0.01 0.039,0 0,0"></path> </g> <g transform="translate(109.8535,265.5327)" id="g15592" style="stroke-width:13.649383545"> <path inkscape:connector-curvature="0" id="path15594" style="fill:#b7b6b5;fill-opacity:1;fill-rule:nonzero;stroke:none;stroke-width:13.649383545" d="m 0,0 c -0.081,0 -0.158,0.042 -0.201,0.116 -0.064,0.111 -0.026,0.253 0.085,0.317 l 11.084,6.4 C 11.079,6.897 11.221,6.858 11.285,6.748 11.349,6.637 11.311,6.495 11.2,6.431 L 0.116,0.031 C 0.079,0.01 0.039,0 0,0"></path> </g> <g transform="translate(109.8535,263.644)" id="g15596" style="stroke-width:13.649383545"> <path inkscape:connector-curvature="0" id="path15598" style="fill:#b7b6b5;fill-opacity:1;fill-rule:nonzero;stroke:none;stroke-width:13.649383545" d="m 0,0 c -0.081,0 -0.158,0.042 -0.201,0.116 -0.064,0.111 -0.026,0.253 0.085,0.317 l 11.084,6.4 C 11.079,6.897 11.221,6.859 11.285,6.748 11.349,6.637 11.311,6.495 11.2,6.431 L 0.116,0.031 C 0.079,0.01 0.039,0 0,0"></path> </g> <g transform="translate(109.8535,261.7559)" id="g15600" style="stroke-width:13.649383545"> <path inkscape:connector-curvature="0" id="path15602" style="fill:#b7b6b5;fill-opacity:1;fill-rule:nonzero;stroke:none;stroke-width:13.649383545" d="m 0,0 c -0.081,0 -0.158,0.042 -0.201,0.116 -0.064,0.111 -0.026,0.253 0.085,0.317 l 11.084,6.4 C 11.079,6.897 11.221,6.858 11.285,6.748 11.349,6.637 11.311,6.495 11.2,6.431 L 0.116,0.031 C 0.079,0.01 0.039,0 0,0"></path> </g> <g transform="translate(124.166,305.6143)" id="g15604" style="stroke-width:13.649383545"> <path inkscape:connector-curvature="0" id="path15606" style="fill:#b7b6b5;fill-opacity:1;fill-rule:nonzero;stroke:none;stroke-width:13.649383545" d="m 0,0 c -0.081,0 -0.159,0.042 -0.201,0.116 -0.065,0.111 -0.027,0.253 0.084,0.317 l 11.085,6.4 C 11.079,6.897 11.221,6.858 11.285,6.748 11.349,6.637 11.311,6.495 11.2,6.431 L 0.116,0.031 C 0.079,0.01 0.039,0 0,0"></path> </g> <g transform="translate(124.166,303.7261)" id="g15608" style="stroke-width:13.649383545"> <path inkscape:connector-curvature="0" id="path15610" style="fill:#b7b6b5;fill-opacity:1;fill-rule:nonzero;stroke:none;stroke-width:13.649383545" d="m 0,0 c -0.081,0 -0.159,0.042 -0.201,0.116 -0.065,0.111 -0.027,0.253 0.084,0.317 l 11.085,6.4 C 11.079,6.897 11.221,6.858 11.285,6.748 11.349,6.637 11.311,6.495 11.2,6.431 L 0.116,0.031 C 0.079,0.01 0.039,0 0,0"></path> </g> <g transform="translate(124.166,301.8379)" id="g15612" style="stroke-width:13.649383545"> <path inkscape:connector-curvature="0" id="path15614" style="fill:#b7b6b5;fill-opacity:1;fill-rule:nonzero;stroke:none;stroke-width:13.649383545" d="m 0,0 c -0.081,0 -0.159,0.042 -0.201,0.116 -0.065,0.111 -0.027,0.253 0.084,0.317 L 10.968,6.832 C 11.079,6.896 11.221,6.858 11.285,6.747 11.349,6.636 11.311,6.495 11.2,6.43 L 0.116,0.031 C 0.079,0.01 0.039,0 0,0"></path> </g> <g transform="translate(124.166,299.9492)" id="g15616" style="stroke-width:13.649383545"> <path inkscape:connector-curvature="0" id="path15618" style="fill:#b7b6b5;fill-opacity:1;fill-rule:nonzero;stroke:none;stroke-width:13.649383545" d="m 0,0 c -0.081,0 -0.159,0.042 -0.201,0.116 -0.065,0.111 -0.027,0.253 0.084,0.317 l 11.085,6.4 C 11.079,6.897 11.221,6.858 11.285,6.748 11.349,6.637 11.311,6.495 11.2,6.431 L 0.116,0.031 C 0.079,0.01 0.039,0 0,0"></path> </g> <g transform="translate(124.166,298.061)" id="g15620" style="stroke-width:13.649383545"> <path inkscape:connector-curvature="0" id="path15622" style="fill:#b7b6b5;fill-opacity:1;fill-rule:nonzero;stroke:none;stroke-width:13.649383545" d="m 0,0 c -0.081,0 -0.159,0.042 -0.201,0.116 -0.065,0.111 -0.027,0.253 0.084,0.317 l 11.085,6.4 C 11.079,6.896 11.221,6.858 11.285,6.748 11.349,6.637 11.311,6.495 11.2,6.431 L 0.116,0.031 C 0.079,0.01 0.039,0 0,0"></path> </g> <g transform="translate(124.166,296.1724)" id="g15624" style="stroke-width:13.649383545"> <path inkscape:connector-curvature="0" id="path15626" style="fill:#b7b6b5;fill-opacity:1;fill-rule:nonzero;stroke:none;stroke-width:13.649383545" d="m 0,0 c -0.081,0 -0.159,0.042 -0.201,0.116 -0.065,0.111 -0.027,0.253 0.084,0.317 l 11.085,6.4 C 11.079,6.897 11.221,6.858 11.285,6.748 11.349,6.637 11.311,6.495 11.2,6.431 L 0.116,0.031 C 0.079,0.01 0.039,0 0,0"></path> </g> <g transform="translate(124.166,294.2842)" id="g15628" style="stroke-width:13.649383545"> <path inkscape:connector-curvature="0" id="path15630" style="fill:#b7b6b5;fill-opacity:1;fill-rule:nonzero;stroke:none;stroke-width:13.649383545" d="m 0,0 c -0.081,0 -0.159,0.042 -0.201,0.116 -0.065,0.111 -0.027,0.253 0.084,0.317 l 11.085,6.4 C 11.079,6.897 11.221,6.858 11.285,6.748 11.349,6.637 11.311,6.495 11.2,6.431 L 0.116,0.031 C 0.079,0.01 0.039,0 0,0"></path> </g> <g transform="translate(124.166,292.3955)" id="g15632" style="stroke-width:13.649383545"> <path inkscape:connector-curvature="0" id="path15634" style="fill:#b7b6b5;fill-opacity:1;fill-rule:nonzero;stroke:none;stroke-width:13.649383545" d="m 0,0 c -0.081,0 -0.159,0.042 -0.201,0.116 -0.065,0.111 -0.027,0.253 0.084,0.317 l 11.085,6.4 C 11.079,6.896 11.221,6.858 11.285,6.748 11.349,6.637 11.311,6.495 11.2,6.431 L 0.116,0.031 C 0.079,0.01 0.039,0 0,0"></path> </g> <g transform="translate(124.166,290.5068)" id="g15636" style="stroke-width:13.649383545"> <path inkscape:connector-curvature="0" id="path15638" style="fill:#b7b6b5;fill-opacity:1;fill-rule:nonzero;stroke:none;stroke-width:13.649383545" d="m 0,0 c -0.081,0 -0.159,0.042 -0.201,0.116 -0.065,0.111 -0.027,0.253 0.084,0.317 l 11.085,6.4 C 11.079,6.897 11.221,6.858 11.285,6.748 11.349,6.637 11.311,6.495 11.2,6.431 L 0.116,0.031 C 0.079,0.01 0.039,0 0,0"></path> </g> <g transform="translate(124.166,288.6187)" id="g15640" style="stroke-width:13.649383545"> <path inkscape:connector-curvature="0" id="path15642" style="fill:#b7b6b5;fill-opacity:1;fill-rule:nonzero;stroke:none;stroke-width:13.649383545" d="m 0,0 c -0.081,0 -0.159,0.042 -0.201,0.116 -0.065,0.111 -0.027,0.253 0.084,0.317 l 11.085,6.4 C 11.079,6.897 11.221,6.858 11.285,6.748 11.349,6.637 11.311,6.495 11.2,6.431 L 0.116,0.031 C 0.079,0.01 0.039,0 0,0"></path> </g> <g transform="translate(124.166,286.73)" id="g15644" style="stroke-width:13.649383545"> <path inkscape:connector-curvature="0" id="path15646" style="fill:#b7b6b5;fill-opacity:1;fill-rule:nonzero;stroke:none;stroke-width:13.649383545" d="m 0,0 c -0.081,0 -0.159,0.042 -0.201,0.116 -0.065,0.111 -0.027,0.253 0.084,0.317 l 11.085,6.4 C 11.079,6.897 11.221,6.858 11.285,6.748 11.349,6.637 11.311,6.495 11.2,6.431 L 0.116,0.031 C 0.079,0.01 0.039,0 0,0"></path> </g> <g transform="translate(124.166,284.8418)" id="g15648" style="stroke-width:13.649383545"> <path inkscape:connector-curvature="0" id="path15650" style="fill:#b7b6b5;fill-opacity:1;fill-rule:nonzero;stroke:none;stroke-width:13.649383545" d="m 0,0 c -0.081,0 -0.159,0.042 -0.201,0.116 -0.065,0.111 -0.027,0.253 0.084,0.317 l 11.085,6.4 C 11.079,6.896 11.221,6.858 11.285,6.748 11.349,6.637 11.311,6.495 11.2,6.431 L 0.116,0.031 C 0.079,0.01 0.039,0 0,0"></path> </g> <g transform="translate(124.166,282.9536)" id="g15652" style="stroke-width:13.649383545"> <path inkscape:connector-curvature="0" id="path15654" style="fill:#b7b6b5;fill-opacity:1;fill-rule:nonzero;stroke:none;stroke-width:13.649383545" d="m 0,0 c -0.081,0 -0.159,0.042 -0.201,0.116 -0.065,0.111 -0.027,0.253 0.084,0.317 l 11.085,6.4 C 11.079,6.896 11.221,6.858 11.285,6.748 11.349,6.637 11.311,6.495 11.2,6.431 L 0.116,0.031 C 0.079,0.01 0.039,0 0,0"></path> </g> <g transform="translate(124.166,281.0649)" id="g15656" style="stroke-width:13.649383545"> <path inkscape:connector-curvature="0" id="path15658" style="fill:#b7b6b5;fill-opacity:1;fill-rule:nonzero;stroke:none;stroke-width:13.649383545" d="m 0,0 c -0.081,0 -0.159,0.042 -0.201,0.116 -0.065,0.111 -0.027,0.253 0.084,0.317 l 11.085,6.4 C 11.079,6.896 11.221,6.858 11.285,6.748 11.349,6.637 11.311,6.495 11.2,6.431 L 0.116,0.031 C 0.079,0.01 0.039,0 0,0"></path> </g> <g transform="translate(124.166,279.1763)" id="g15660" style="stroke-width:13.649383545"> <path inkscape:connector-curvature="0" id="path15662" style="fill:#b7b6b5;fill-opacity:1;fill-rule:nonzero;stroke:none;stroke-width:13.649383545" d="m 0,0 c -0.081,0 -0.159,0.042 -0.201,0.116 -0.065,0.111 -0.027,0.253 0.084,0.317 l 11.085,6.4 C 11.079,6.897 11.221,6.858 11.285,6.748 11.349,6.637 11.311,6.495 11.2,6.431 L 0.116,0.031 C 0.079,0.01 0.039,0 0,0"></path> </g> <g transform="translate(124.166,277.2881)" id="g15664" style="stroke-width:13.649383545"> <path inkscape:connector-curvature="0" id="path15666" style="fill:#b7b6b5;fill-opacity:1;fill-rule:nonzero;stroke:none;stroke-width:13.649383545" d="m 0,0 c -0.081,0 -0.159,0.042 -0.201,0.116 -0.065,0.111 -0.027,0.253 0.084,0.317 l 11.085,6.4 C 11.079,6.896 11.221,6.858 11.285,6.748 11.349,6.637 11.311,6.495 11.2,6.431 L 0.116,0.031 C 0.079,0.01 0.039,0 0,0"></path> </g> <g transform="translate(124.166,275.3994)" id="g15668" style="stroke-width:13.649383545"> <path inkscape:connector-curvature="0" id="path15670" style="fill:#b7b6b5;fill-opacity:1;fill-rule:nonzero;stroke:none;stroke-width:13.649383545" d="m 0,0 c -0.081,0 -0.159,0.042 -0.201,0.116 -0.065,0.111 -0.027,0.253 0.084,0.317 l 11.085,6.4 C 11.079,6.896 11.221,6.858 11.285,6.748 11.349,6.637 11.311,6.495 11.2,6.431 L 0.116,0.031 C 0.079,0.01 0.039,0 0,0"></path> </g> <g transform="translate(124.166,273.5112)" id="g15672" style="stroke-width:13.649383545"> <path inkscape:connector-curvature="0" id="path15674" style="fill:#b7b6b5;fill-opacity:1;fill-rule:nonzero;stroke:none;stroke-width:13.649383545" d="m 0,0 c -0.081,0 -0.159,0.042 -0.201,0.116 -0.065,0.111 -0.027,0.253 0.084,0.317 l 11.085,6.4 C 11.079,6.897 11.221,6.858 11.285,6.748 11.349,6.637 11.311,6.495 11.2,6.431 L 0.116,0.031 C 0.079,0.01 0.039,0 0,0"></path> </g> <g transform="translate(124.166,271.6226)" id="g15676" style="stroke-width:13.649383545"> <path inkscape:connector-curvature="0" id="path15678" style="fill:#b7b6b5;fill-opacity:1;fill-rule:nonzero;stroke:none;stroke-width:13.649383545" d="m 0,0 c -0.081,0 -0.159,0.042 -0.201,0.116 -0.065,0.111 -0.027,0.253 0.084,0.317 l 11.085,6.4 C 11.079,6.897 11.221,6.858 11.285,6.748 11.349,6.637 11.311,6.495 11.2,6.431 L 0.116,0.031 C 0.079,0.01 0.039,0 0,0"></path> </g> <g transform="translate(124.166,269.7344)" id="g15680" style="stroke-width:13.649383545"> <path inkscape:connector-curvature="0" id="path15682" style="fill:#b7b6b5;fill-opacity:1;fill-rule:nonzero;stroke:none;stroke-width:13.649383545" d="m 0,0 c -0.081,0 -0.159,0.042 -0.201,0.116 -0.065,0.111 -0.027,0.253 0.084,0.317 l 11.085,6.4 C 11.079,6.897 11.221,6.858 11.285,6.748 11.349,6.637 11.311,6.495 11.2,6.431 L 0.116,0.031 C 0.079,0.01 0.039,0 0,0"></path> </g> </g> </g> </g>
</svg>
