<svg id="icon-old-server" xmlns="http://www.w3.org/2000/svg" viewBox="0 0 10 10">
  <path  class="icon-shadow"  d="M 8.24,7.94 5.21,9.7 2.06,7.82 5.11,6.06 Z"   />
  <path  class="fill-lightest-grey"  d="M 8.24,2.07 5.21,3.83 2.1,2.07 5.11,0.306 Z"   />
  <path class="fill-light-grey"  d="M 8.24,2.07 V 7.8 L 5.21,9.56 V 3.83 Z" />
  <path  class="fill-grey"  d="M 5.21,3.83 V 9.56 L 2.1,7.7 V 2.07 Z"  />
  <path  d="m 2.1,3.64 v 0.1 L 5.21,5.6 8.24,3.84 V 3.74 L 5.21,5.5 Z" style="fill:#000000;fill-opacity:0.2" />
  <path class="stroke-shade" d="M 5.5,8.97 6.6,8.31 M 5.5,8.47 6.6,7.81 M 5.5,7.97 6.6,7.31 M 5.5,7.47 6.6,6.81 M 5.5,6.97 6.6,6.31 M 5.5,6.47 6.6,5.81 M 5.5,5.97 6.6,5.31 m 0.23,2.91 1.1,-0.66 m -1.1,0.16 1.1,-0.66 m -1.1,0.16 1.1,-0.66 m -1.1,0.16 1.1,-0.66 m -1.1,0.16 1.1,-0.66 m -1.1,0.16 1.1,-0.66 m -1.1,0.16 1.1,-0.66" />
  <path class="stroke-shade shade" d="M 5.5,8.72 6.6,8.06 M 5.5,8.22 6.6,7.56 M 5.5,7.72 6.6,7.06 M 5.5,7.22 6.6,6.56 M 5.5,6.72 6.6,6.06 M 5.5,6.22 6.6,5.56 m 0.23,2.41 1.1,-0.66 m -1.1,0.16 1.1,-0.66 m -1.1,0.16 1.1,-0.66 m -1.1,0.16 1.1,-0.66 m -1.1,0.16 1.1,-0.66 m -1.1,0.16 1.1,-0.66" />
  <path  class="stroke-shade"  d="M 6.83,3.47 7.93,2.81 M 6.83,3.97 7.93,3.31 M 6.83,3.72 7.93,3.06 M 6.83,4.22 7.93,3.56" />
</svg>
