<svg xmlns="http://www.w3.org/2000/svg" viewBox="0 0 10 10">
<path class="fill-grey"  d="M 4.5,7.18 V 7.7 C 3.9,7.9 3.4,9.5 5,9.5 6.6,9.5 6,7.8 5.5,7.7 V 7.18 M 5,9 C 4.75,9 4.75,8.65 5,8.65 5.25,8.65 5.25,9 5,9 Z M 3,3.7 V 2.5 c 0,-2.75 4,-2.765 4,0 V 3 H 6 V 2.5 C 6,1 4,1 4,2.5 v 1.1" />
<path class="fill-mid-red" d="M 2.5,3.8 C 4,3.47 6,3.5 7.5,3.8 V 7 C 6,7.25 4,7.25 2.5,7 Z" />
<path class="fill-shade"  d="M 7.5,3.8 V 7 C 6.61,7.15 5.54,7.21 4.51,7.18 Z"  />
<path class="stroke-shade"   d="M 6.5,2.7 H 6.1 M 3.6,4.5 H 3 m 4,0 H 4 M 3.6,5 H 3 M 7,5 H 4 M 3.6,5.5 H 3 m 4,0 H 4 M 3.6,6 H 3 M 7,6 H 4 M 3.6,6.5 H 3 m 4,0 H 4 m 0.7,0.8 v 0.2" />
</svg>
