<svg xmlns="http://www.w3.org/2000/svg" viewBox="0 0 10 10">

<path class="fill-grey"  d="M 5,9 C 4.75,9 4.75,8.65 5,8.65 5.25,8.65 5.25,9 5,9 Z M 3,3.75 3,2.5 c 0,-2.75 4,-2.765 4,0 L 7,3 6,3 6,2.5 C 6,1 4,1 4,2.5 l 0,1.2 m 0.5,3.4 0,0.61 C 4,7.71 3.5,9.5 5,9.5 6.5,9.5 6,7.72 5.5,7.72 l 0,-0.62" />
  <path class="fill-mid-red" d="M 2.5,3.8 C 4,3.5 6,3.5 7.5,3.8 L 7.5,7 C 6,7.25 4,7.25 2.5,7 Z" />
  <path
     d="m 7.26,3.76 c 0.1,0 0.16,0 0.24,0 L 7.5,7 C 6.61,7.15 5.54,7.21 4.51,7.18 Z"
     class="fill-shade" />
  <path
     d="M 6.5,2.7 6,2.7 M 3.6,4.5 3,4.5 m 4,0 -3,0 M 3.6,5 3,5 M 7,5 4,5 M 3.6,5.5 3,5.5 m 4,0 -3,0 M 3.6,6 3,6 M 7,6 4,6 M 3.6,6.5 3,6.5 m 4,0 -3,0 m 0.7,0.7 0,0.3"
    class="stroke-shade"/>
</svg>
