<svg xmlns="http://www.w3.org/2000/svg" viewBox="0 0 10 10">
  <path class="icon-shadow"  d="M2.748 9.006L6.5 6.838l1.25.728L4 9.735z"/>
  <path class="fill-darker-grey" d="m 3.52,3.13 0,5.78 C 3.52,9.2 3.5,9.6 4,9.6 L 6.89,7.97 C 7.22,7.81 7.21,7.6 7.24,7.39 L 7.24,1 C 7.24,0.478 6.68,0.588 6.27,0.826 L 4,2.13 c -0.5,0.3 -0.48,0.42 -0.48,1 z"  />
  <path class="fill-darkest-grey shade" d="M4.09 2.43L6.911.801c.189-.109.34-.021.34.197v6.366c0 .22-.07.44-.34.596L4.09 9.589c-.189.109-.341.017-.341-.203V3.02a.75.75 0 0 1 .341-.59z"  />
  <path class="fill-blue" d="M4.196 2.66l2.608-1.506c.109-.063.196-.012.196.113v5.912c0 .12-.09.27-.196.333L4.196 9.018C4.088 9.08 4 9.031 4 8.911V2.999c0-.125.088-.277.196-.339z" />
  <path class="fill-light-blue shade" d="M5.501 1.907l1.5.869v3.761l-3-1.739V3.042c0-.207.109-.321.262-.421z"  fill-opacity=".4" />
  <path class="fill-darkest-grey" d="m 5.284,8.602 0.48,-0.279 c 0.03,-0.02 0.07,0.05 0,0.09 l -0.48,0.278 c -0.06,0.03 -0.07,-0.05 0,-0.09 z m 0.48,-7.028 c 0.06,-0.04 0.06,0.07 0,0.1 l -0.48,0.278 c -0.06,0.03 -0.07,-0.05 -0.01,-0.09 z" />
</svg>