<svg xmlns="http://www.w3.org/2000/svg" viewBox="0 0 10 10">
  <path class="icon-shadow"  d="M2.748 9.006L6.5 6.838l1.25.728L4 9.735z"/>
  <path class="fill-darker-grey" d="M 3.521,3.127 3.52,8.907 c 0,0.29 -0.02,0.725 0.481,0.725 L 3.75,3.208 7.176,0.7911 C 6.883,0.4977 6.803,0.5062 5.751,1.121 L 4.001,2.13 c -0.5,0.289 -0.48,0.418 -0.48,0.997 z"  />
  <path class="fill-darkest-grey" d="M4.09 2.43L6.911.801c.189-.109.34-.021.34.197v6.366c0 .22-.07.44-.34.596L4.09 9.589c-.189.109-.341.017-.341-.203V3.02a.75.75 0 0 1 .341-.59z"  />
  <path class="fill-blue" d="M4.196 2.66l2.608-1.506c.109-.063.196-.012.196.113v5.912c0 .12-.09.27-.196.333L4.196 9.018C4.088 9.08 4 9.031 4 8.911V2.999c0-.125.088-.277.196-.339z" />
  <path class="fill-light-blue" d="M5.501 1.907l1.5.869v3.761l-3-1.739V3.042c0-.207.109-.321.262-.421z"  fill-opacity=".4" />
  <path class="fill-darkest-grey" d="m 5.284,8.602 0.48,-0.279 c 0.03,-0.02 0.07,0.05 0,0.09 l -0.48,0.278 c -0.06,0.03 -0.07,-0.05 0,-0.09 z m 0.48,-7.028 c 0.06,-0.04 0.06,0.07 0,0.1 l -0.48,0.278 c -0.06,0.03 -0.07,-0.05 -0.01,-0.09 z" />
</svg>