<?xml version="1.0" encoding="UTF-8" standalone="no"?>
<svg  xmlns="http://www.w3.org/2000/svg"  viewBox="0 0 10 10">  
  <path class="fill-dark-red"  d="M 3.8,6.3 1.52,3.06 3.1,1.5 6.3,3.8" />
  <path class="fill-mid-red"  d="M 1.52,3.07 C 1.34,3.25 0.915,3.24 0.632,2.97 L 2.98,0.6 C 3.26,0.9 3.27,1.33 3.1,1.5 M 4,6 6.1,4 C 6.45,3.61 7,3.6 7.4,4 L 4,7.4 C 3.66,7 3.61,6.43 4,6 Z" />
  <path class="fill-grey"  d="M 5.92,5.53 8.6,8.2 9.4,9.4 8.21,8.6 5.56,5.91" />
  <path class="fill-red"  d="M 3,1.8 5.95,4.07 5,4.95 2.6,2.2"  />
  <path class="fill-red"  d="M 6.35,4.98 C 6.06,4.68 5.67,4.61 5.18,4.85 L 5.83,4.2 C 6.18,3.85 6.71,4 7.02,4.3 M 2.78,1 c 0.27,0.24 0.17,0.6 0.1,0.71 L 2.52,2.1 c 0.1,-0.25 0,-0.41 -0.17,-0.63"
     />
</svg>
