<?xml version="1.0" encoding="UTF-8" standalone="no"?>
<svg xmlns="http://www.w3.org/2000/svg" viewBox="0 0 10 10">
   <path class="fill-light-grey" d="M 1.78,8.12 2.19,7.54 0.566,6.69 0.694,6.41 2.67,6.77 C 2.67,6.77 2.85,6.29 3.14,6 3.24,5.9 3.92,5.21 4.78,4.36 L 4.08,3.79 1.31,2.4 1.57,1.95 4.91,2.8 c 0.1,-0.15 0.23,-0.39 0.55,-0.61 0,0 0.17,0.1 0.28,0.18 C 5.85,2.48 5.9,2.68 5.9,2.68 L 5.61,2.97 6.04,3.08 C 7.04,2.09 7.91,1.22 7.91,1.22 8.36,0.771 9.12,0.408 9.36,0.644 9.6,0.88 9.23,1.64 8.78,2.09 c 0,0 -0.86,0.86 -1.85,1.85 L 7.05,4.41 7.34,4.12 c 0,0 0.2,0 0.31,0.16 0.11,0.1 0.18,0.28 0.18,0.28 C 7.62,4.87 7.37,5.03 7.22,5.1 L 8.07,8.45 7.62,8.7 6.24,5.95 5.65,5.22 C 4.8,6.07 4.08,6.79 4.01,6.86 3.72,7.15 3.24,7.33 3.24,7.33 L 3.6,9.3 3.32,9.43 2.47,7.82 1.89,8.22 Z" />
      <path class="fill-shade"     d="M 1.82,8.17 9.35,0.637 c 0,0 0,0.01 0,0.01 C 9.59,0.883 9.23,1.64 8.77,2.1 c 0,0 -0.86,0.86 -1.85,1.85 L 7.05,4.41 7.34,4.12 c 0,0 0.2,0 0.31,0.16 0.11,0.1 0.18,0.28 0.18,0.28 C 7.62,4.87 7.37,5.03 7.22,5.1 L 8.07,8.45 7.62,8.7 6.24,5.95 5.65,5.22 C 4.8,6.07 4.08,6.79 4.01,6.86 3.72,7.15 3.24,7.33 3.24,7.33 L 3.6,9.3 3.32,9.43 2.47,7.82 1.89,8.22 Z" />
      </svg>