<?xml version="1.0"?>
<!--?xml version="1.0" encoding="utf-8"?-->
<!-- Generator: Adobe Illustrator 19.0.1, SVG Export Plug-In . SVG Version: 6.00 Build 0)  -->
<svg version="1.1" id="Layer_1" xmlns="http://www.w3.org/2000/svg" xmlns:xlink="http://www.w3.org/1999/xlink" x="0px" y="0px" width="171.2px" height="171.2px" viewBox="0 0 171.2 171.2" style="enable-background:new 0 0 171.2 171.2;" xml:space="preserve">
<g>
	<path style="fill:#FFFFFF;" d="M35.1,138l6.4-9.1l-25.4-13.3l2-4.3l30.9,5.6c0,0,2.9-7.5,7.4-12.1c1.1-1.1,12.3-12.3,25.7-25.7
		l-11-8.9L27.8,48.5l4-7.1l52.4,13.3c1.1-2.3,3.6-6.2,8.6-9.6c0,0,2.7,1.3,4.4,2.9c1.7,1.7,2.5,4.8,2.5,4.8l-4.6,4.6l6.8,1.7
		C117.6,43.6,131.2,30,131.2,30c7.1-7.1,19-12.8,22.7-9.1c3.7,3.7-2,15.6-9.1,22.7c0,0-13.5,13.5-29,29l1.9,7.3l4.6-4.6
		c0,0,3.1,0.9,4.8,2.5c1.7,1.7,2.9,4.4,2.9,4.4c-3.4,5-7.3,7.5-9.6,8.6l13.3,52.4l-7.1,4L105,104l-9.2-11.4
		c-13.4,13.4-24.7,24.7-25.7,25.7c-4.6,4.6-12.1,7.4-12.1,7.4l5.6,30.9l-4.3,2L46,133.3l-9.1,6.4L35.1,138z"></path>
	<path style="fill:#DBDCDC;" d="M35.8,138.8l118-118c0,0,0.1,0.1,0.1,0.1c3.7,3.7-2,15.6-9.1,22.7c0,0-13.5,13.5-29,29l1.9,7.3
		l4.6-4.6c0,0,3.1,0.9,4.8,2.5c1.7,1.7,2.9,4.4,2.9,4.4c-3.4,5-7.3,7.5-9.6,8.6l13.3,52.4l-7.1,4L105,104l-9.2-11.4
		c-13.4,13.4-24.7,24.7-25.7,25.7c-4.6,4.6-12.1,7.4-12.1,7.4l5.6,30.9l-4.3,2L46,133.3l-9.1,6.4L35.8,138.8z"></path>
</g>
</svg>
