<?xml version="1.0" encoding="UTF-8" standalone="no"?>
<svg
   xmlns:dc="http://purl.org/dc/elements/1.1/"
   xmlns:cc="http://creativecommons.org/ns#"
   xmlns:rdf="http://www.w3.org/1999/02/22-rdf-syntax-ns#"
   xmlns:svg="http://www.w3.org/2000/svg"
   xmlns="http://www.w3.org/2000/svg"
   id="svg4"
   version="1.1"
   class="icon  icon-recycle stroked"
   viewBox="0 0 10 10"
   height="10"
   width="10">
  <defs
     id="defs8" />
  <path
     id="path932"
     d="M 0.979,5.17 C 1.05,6.02 1.7,6.27 2.45,6.27 H 4.52 V 8.33 L 3.05,8.28 C 2.62,8.25 2.32,7.96 2.14,7.69 L 1.1,6.16 C 0.868,5.81 0.835,5.45 0.979,5.17"
     style="fill:#2a93a0;fill-opacity:1" />
  <path
     id="path924"
     d="M 9.15,6.03 C 8.93,6.51 8.33,6.53 7.78,6.5 H 6.45 V 5.81 L 5.36,7.49 6.45,9.11 V 8.33 h 1.14 c 0.31,0 0.6,-0.23 0.78,-0.61 z"
     style="fill:#2a93a0;fill-opacity:1" />
  <path
     id="path920"
     d="m 4.25,0.775 c 0.52,0 0.8,0.525 1.01,1.035 L 5.82,3.02 5.2,3.33 7.19,3.6 8.19,1.91 7.48,2.23 6.97,1.22 C 6.82,0.946 6.51,0.773 6.09,0.773 Z"
     style="fill:#007a87" />
  <path
     d="M 5.26,1.81 4.12,3.58 2.35,2.48 3.29,1.21 C 3.55,0.881 3.92,0.772 4.25,0.775 4.86,0.806 5.04,1.3 5.26,1.81 Z M 7.78,6.5 6.67,4.7 8.43,3.58 9.16,4.98 C 9.35,5.36 9.29,5.74 9.15,6.03 8.89,6.54 8.31,6.53 7.78,6.5 Z M 1.54,4.19 0.874,3.78 2.83,3.67 3.72,5.46 3.12,5.13 2.45,6.27 c -0.46,0 -1.42,-0.1 -1.471,-1.1 z"
     style="fill:#004153"
     id="path2" />
  <path
     class="shade"
     d="M 9.15,6.03 C 8.63,7.17 8.01,7.47 7.07,7.47 H 5.34 L 6.43,9.1 V 8.32 h 1.14 c 0.31,0 0.6,-0.23 0.78,-0.61 z M 1.38,6.54 C 1.87,7.12 2.42,7.41 2.93,7.41 H 4.52 V 8.33 L 3.05,8.28 C 2.62,8.25 2.32,7.96 2.14,7.69"
     style="fill:#007a87"
     id="path936" />
  <path
     class="shade"
     id="path820"
     d="m 4.25,0.776 c 0.96,0 1.5,0.06 1.87,0.704 L 7.19,3.6 8.19,1.91 7.48,2.24 6.97,1.22 C 6.82,0.947 6.51,0.775 6.09,0.775 Z"
     style="fill:#2a93a0;fill-opacity:1" />
  <metadata
     id="metadata826">
    <rdf:RDF>
      <cc:Work
         rdf:about="">
        <dc:title></dc:title>
      </cc:Work>
    </rdf:RDF>
  </metadata>
</svg>
