<?xml version="1.0"?>

<!-- Created with Inkscape (http://www.inkscape.org/) --> <svg xmlns:dc="http://purl.org/dc/elements/1.1/" xmlns:cc="http://creativecommons.org/ns#" xmlns:rdf="http://www.w3.org/1999/02/22-rdf-syntax-ns#" xmlns:svg="http://www.w3.org/2000/svg" xmlns="http://www.w3.org/2000/svg" xmlns:xlink="http://www.w3.org/1999/xlink" xmlns:sodipodi="http://sodipodi.sourceforge.net/DTD/sodipodi-0.dtd" xmlns:inkscape="http://www.inkscape.org/namespaces/inkscape" viewBox="0 0 100 100" version="1.1" id="svg" inkscape:version="0.91+devel+osxmenu r12922" sodipodi:docname="rhoffice-ott.svg" width="100" height="100"> <defs id="defs22679"> <linearGradient inkscape:collect="always" id="linearGradient24317"> <stop style="stop-color:#000000;stop-opacity:1;" offset="0" id="stop24319"></stop> <stop style="stop-color:#000000;stop-opacity:0;" offset="1" id="stop24321"></stop> </linearGradient> <linearGradient inkscape:collect="always" id="linearGradient23522"> <stop style="stop-color:#4c575e;stop-opacity:1;" offset="0" id="stop23524"></stop> <stop style="stop-color:#4c575e;stop-opacity:0;" offset="1" id="stop23526"></stop> </linearGradient> <linearGradient inkscape:collect="always" id="linearGradient23436"> <stop style="stop-color:#ffffff;stop-opacity:1;" offset="0" id="stop23438"></stop> <stop style="stop-color:#ffffff;stop-opacity:0;" offset="1" id="stop23440"></stop> </linearGradient> <linearGradient inkscape:collect="always" id="linearGradient23365"> <stop style="stop-color:#5b676f;stop-opacity:1" offset="0" id="stop23367"></stop> <stop style="stop-color:#6e7c85;stop-opacity:0;" offset="1" id="stop23369"></stop> </linearGradient> <linearGradient inkscape:collect="always" xlink:href="#linearGradient23365" id="linearGradient23371" x1="5.00543499" y1="93.7364197" x2="3.26763415" y2="93.7364197" gradientUnits="userSpaceOnUse" gradientTransform="matrix(9.2206909,0,0,9.2206909,8.02959771,-830.164309)"></linearGradient> <linearGradient inkscape:collect="always" xlink:href="#linearGradient23436" id="linearGradient23442" x1="114.055527" y1="48.6715202" x2="44.4639282" y2="48.6715202" gradientUnits="userSpaceOnUse"></linearGradient> <linearGradient inkscape:collect="always" xlink:href="#linearGradient23522" id="linearGradient23528" x1="73.7158813" y1="11.346487" x2="59.1318054" y2="26.8144474" gradientUnits="userSpaceOnUse" gradientTransform="matrix(0.977434585,0,0,0.977434585,7.83014034,-1.82578863)"></linearGradient> <linearGradient inkscape:collect="always" xlink:href="#linearGradient24317" id="linearGradient24323" x1="52.7439232" y1="76.4230499" x2="24.7030697" y2="104.463905" gradientUnits="userSpaceOnUse" gradientTransform="matrix(0.965288104,0,0,0.965288104,8.71815466,-5.84078082)"></linearGradient> </defs> <sodipodi:namedview id="base" pagecolor="#1c1d20" bordercolor="#666666" borderopacity="1.0" inkscape:pageopacity="0" inkscape:pageshadow="2" inkscape:zoom="8.11049462" inkscape:cx="48.2084049" inkscape:cy="46.4615932" inkscape:document-units="mm" inkscape:current-layer="svg" showgrid="false" units="px" inkscape:window-width="1920" inkscape:window-height="1155" inkscape:window-x="0" inkscape:window-y="23" inkscape:window-maximized="0" inkscape:showpageshadow="false" borderlayer="true" inkscape:snap-global="false"> <inkscape:grid type="axonomgrid" id="grid812" units="px" empspacing="5" spacingy="0.5785" originy="0" color="#747474" opacity="0.262745" empcolor="#3c3c3c" empopacity="0.533" gridanglex="30.1"></inkscape:grid> </sodipodi:namedview> <metadata id="metadata3728"> <rdf:rdf> <cc:work rdf:about=""> <dc:title></dc:title> <dc:format>image/svg+xml</dc:format> <dc:type rdf:resource="http://purl.org/dc/dcmitype/StillImage"></dc:type> </cc:work> </rdf:rdf> </metadata> <path style="fill:#8a969e;stroke-width:1" d="M 29.8974325,29.8114358 62.1690142,11.1794301 80.6097984,21.8677018 48.3382167,40.4997085 Z" id="rect4222" inkscape:connector-curvature="0" sodipodi:nodetypes="ccccc"></path> <path sodipodi:nodetypes="ccccc" inkscape:connector-curvature="0" id="path4244" d="m 29.8974325,29.8114358 -9.22e-4,48.0075271 18.4417062,10.6882718 0,-48.0075262 z" style="fill:#5e6a71;stroke-width:1"></path> <path style="fill:#a4b0bf;stroke-width:1" d="m 80.6097983,21.8677018 0,48.0075271 -32.2715816,18.6320058 0,-48.0075262 z" id="path4246" inkscape:connector-curvature="0" sodipodi:nodetypes="ccccc"></path> <path id="path23286" style="fill:#304551;stroke-width:1" d="m 61.3297175,66.5839181 -9.22e-4,5.3387801 -4.610226,2.6617146 9.221e-4,-5.33878 z m 11.4868022,-6.5839108 -9.221e-4,5.33878 -4.6102259,2.6617148 9.221e-4,-5.33878 z m 5.8585702,3.7244243 -9.222e-4,7.2693562 -4.6102259,2.6617156 9.221e-4,-7.2693572 z m 0,-7.112226 -9.222e-4,5.33878 -4.6102259,2.6617157 9.221e-4,-5.33878 z m -5.8618245,10.5041291 -16.1001909,9.2386997 0,7.2792972 16.1001909,-9.2567089 z m -5.7785364,-3.7924232 -9.22e-4,5.3387801 -4.610226,2.6617146 9.221e-4,-5.33878 z m -11.4116909,13.7137058 -9.22e-4,7.2693563 -4.610226,2.6617156 9.221e-4,-7.2693562 z m 0,-7.112225 -9.22e-4,5.3387801 -4.610226,2.6617146 9.221e-4,-5.33878 z m 5.7066794,-10.2415302 -9.22e-4,5.33878 -4.610226,2.6617147 9.221e-4,-5.33878 z m 0,-7.1122259 -9.22e-4,5.33878 -4.610226,2.6617156 9.221e-4,-5.33878 z m 0,-7.112226 -9.22e-4,5.33878 -4.610226,2.6617148 9.221e-4,-5.33878 z m 0,-7.1122268 -9.22e-4,5.33878 -4.610226,2.6617147 9.221e-4,-5.33878 z m 11.4868022,14.752768 -9.221e-4,5.33878 -4.6102259,2.6617156 9.221e-4,-5.33878 z m 0,-7.112226 -9.221e-4,5.33878 -4.6102259,2.6617157 9.221e-4,-5.33878 z m 0,-7.1122259 -9.221e-4,5.33878 -4.6102259,2.6617156 9.221e-4,-5.33878 z m 0,-7.112227 -9.221e-4,5.3387802 -4.6102259,2.6617156 9.221e-4,-5.3387801 z m 5.8585702,17.9488771 -9.222e-4,5.33878 -4.6102259,2.6617157 9.221e-4,-5.3387801 z m 0,-7.112225 -9.222e-4,5.33878 -4.6102259,2.6617148 9.221e-4,-5.3387801 z m 0,-7.1122268 -9.222e-4,5.33878 -4.6102259,2.6617156 9.221e-4,-5.33878 z m 0,-7.1122269 -9.222e-4,5.33878 -4.6102259,2.6617156 9.221e-4,-5.33878 z m -11.6403609,28.0483846 -9.22e-4,5.33878 -4.610226,2.6617157 9.221e-4,-5.338781 z m 0,-7.1122259 -9.22e-4,5.33878 -4.610226,2.6617156 9.221e-4,-5.33878 z m 0,-7.112226 -9.22e-4,5.33878 -4.610226,2.6617148 9.221e-4,-5.33878 z m 0,-7.1122268 -9.22e-4,5.33878 -4.610226,2.6617147 9.221e-4,-5.3387791 z m -11.4116909,27.9381595 -9.22e-4,5.3387801 -4.610226,2.6617146 9.221e-4,-5.33878 z m 0,-7.1122259 -9.22e-4,5.33878 -4.610226,2.6617156 9.221e-4,-5.33878 z m 0,-7.112226 -9.22e-4,5.33878 -4.610226,2.6617147 9.221e-4,-5.33878 z m 0,-7.1122268 -9.22e-4,5.33878 -4.610226,2.6617147 9.221e-4,-5.33878 z" inkscape:connector-curvature="0" sodipodi:nodetypes="cccccccccccccccccccccccccccccccccccccccccccccccccccccccccccccccccccccccccccccccccccccccccccccccccccccccccccccccccccccccccccccccccccccccccccc"></path> <path style="fill:#1b272e;fill-opacity:1;stroke-width:1" d="m 42.5845037,42.7278175 9.221e-4,5.33878 4.610226,2.6617147 -9.221e-4,-5.3387801 z" id="path23311" inkscape:connector-curvature="0" sodipodi:nodetypes="ccccc"></path> <path sodipodi:nodetypes="ccccc" inkscape:connector-curvature="0" id="path23313" d="m 42.5845037,49.8400443 9.221e-4,5.33878 4.610226,2.6617148 -9.221e-4,-5.33878 z" style="fill:#1b272e;fill-opacity:1;stroke-width:1"></path> <path style="fill:#1b272e;fill-opacity:1;stroke-width:1" d="m 42.5845037,56.9522702 9.221e-4,5.3387801 4.610226,2.6617146 -9.221e-4,-5.33878 z" id="path23315" inkscape:connector-curvature="0" sodipodi:nodetypes="ccccc"></path> <path sodipodi:nodetypes="ccccc" inkscape:connector-curvature="0" id="path23317" d="m 42.5845037,64.0644962 9.221e-4,5.33878 4.610226,2.6617147 -9.221e-4,-5.33878 z" style="fill:#1b272e;fill-opacity:1;stroke-width:1"></path> <path sodipodi:nodetypes="ccccc" inkscape:connector-curvature="0" id="path23319" d="m 30.944143,36.0161116 9.222e-4,5.33878 4.6102258,2.6617147 -9.22e-4,-5.33878 z" style="fill:#1b272e;fill-opacity:1;stroke-width:1"></path> <path style="fill:#1b272e;fill-opacity:1;stroke-width:1" d="m 30.944143,43.1283384 9.222e-4,5.3387801 4.6102258,2.6617147 -9.22e-4,-5.3387801 z" id="path23321" inkscape:connector-curvature="0" sodipodi:nodetypes="ccccc"></path> <path sodipodi:nodetypes="ccccc" inkscape:connector-curvature="0" id="path23323" d="m 30.944143,50.2405643 9.222e-4,5.3387801 4.6102258,2.6617156 -9.22e-4,-5.33878 z" style="fill:#1b272e;fill-opacity:1;stroke-width:1"></path> <path style="fill:#1b272e;fill-opacity:1;stroke-width:1" d="m 30.944143,57.3527903 9.222e-4,5.33878 4.6102258,2.6617156 -9.22e-4,-5.3387808 z" id="path23325" inkscape:connector-curvature="0" sodipodi:nodetypes="ccccc"></path> <path style="fill:#1b272e;fill-opacity:1;stroke-width:1" d="m 36.802713,39.4039132 9.222e-4,5.3387802 4.6102258,2.6617146 -9.22e-4,-5.33878 z" id="path23327" inkscape:connector-curvature="0" sodipodi:nodetypes="ccccc"></path> <path sodipodi:nodetypes="ccccc" inkscape:connector-curvature="0" id="path23329" d="m 36.802713,46.5161402 9.222e-4,5.33878 4.6102258,2.6617146 -9.22e-4,-5.33878 z" style="fill:#1b272e;fill-opacity:1;stroke-width:1"></path> <path style="fill:#1b272e;fill-opacity:1;stroke-width:1" d="m 36.802713,53.6283661 9.222e-4,5.33878 4.6102258,2.6617147 -9.22e-4,-5.33878 z" id="path23331" inkscape:connector-curvature="0" sodipodi:nodetypes="ccccc"></path> <path sodipodi:nodetypes="ccccc" inkscape:connector-curvature="0" id="path23333" d="m 36.802713,60.740592 9.222e-4,5.3387801 4.6102258,2.6617146 -9.22e-4,-5.33878 z" style="fill:#1b272e;fill-opacity:1;stroke-width:1"></path> <path sodipodi:nodetypes="ccccc" inkscape:connector-curvature="0" id="path23335" d="m 42.5845037,70.9645513 9.221e-4,5.33878 4.610226,2.6617156 -9.221e-4,-5.33878 z" style="fill:#1b272e;fill-opacity:1;stroke-width:1"></path> <path style="fill:#1b272e;fill-opacity:1;stroke-width:1" d="m 30.944143,64.2528463 9.222e-4,5.33878 4.6102258,2.6617148 -9.22e-4,-5.3387801 z" id="path23337" inkscape:connector-curvature="0" sodipodi:nodetypes="ccccc"></path> <path sodipodi:nodetypes="ccccc" inkscape:connector-curvature="0" id="path23339" d="m 30.944143,71.3650723 9.222e-4,5.338779 16.208126,9.0729774 -9.221e-4,-5.3387801 z" style="fill:#1b272e;fill-opacity:1;stroke-width:1"></path> <path sodipodi:nodetypes="ccccc" inkscape:connector-curvature="0" id="path23341" d="m 36.802713,67.640648 9.222e-4,5.33878 4.6102258,2.6617148 -9.22e-4,-5.3387801 z" style="fill:#1b272e;fill-opacity:1;stroke-width:1"></path> <path style="fill:url(#linearGradient23371);fill-opacity:1;stroke-width:1" d="m 34.4294709,32.4016515 9.1579195,-5.3296442 9.2204519,5.3449081 -9.1579197,5.3296451 z" id="path23363" inkscape:connector-curvature="0" sodipodi:nodetypes="ccccc"></path> <path sodipodi:nodetypes="ccccc" inkscape:connector-curvature="0" id="path23504" d="m 79.2874073,22.2859271 0.00176,-7.8140666 -17.1680706,-9.82955459 -8.737e-4,7.81406679 z" style="fill:#820000;stroke-width:1"></path> <path style="fill:#a30000;stroke-width:1" d="M 31.1786804,30.2814578 31.1795541,22.4673911 62.1210818,4.64230591 62.120208,12.4563727 Z" id="path23506" inkscape:connector-curvature="0" sodipodi:nodetypes="ccccc"></path> <path style="fill:#820000;stroke-width:1" d="m 31.0685659,22.4368296 -0.00176,7.8140668 17.168073,9.8295547 8.738e-4,-7.8140669 z" id="path23508" inkscape:connector-curvature="0" sodipodi:nodetypes="ccccc"></path> <path style="fill:url(#linearGradient23528);fill-opacity:1;stroke-width:1" d="M 79.2874073,22.2859271 73.7599617,23.8887877 56.5918885,14.059233 62.1202198,12.4563727 Z" id="path23520" inkscape:connector-curvature="0" sodipodi:nodetypes="ccccc"></path> <path sodipodi:nodetypes="ccccc" inkscape:connector-curvature="0" id="path23224" d="M 43.7289129,11.1517947 57.5575931,3.17117806 66.778045,8.51608705 52.9493648,16.4967038 Z" style="fill:#8a969e;stroke-width:1"></path> <path style="fill:#5e6a71;stroke-width:1" d="m 43.7289129,11.1517947 -0.00184,16.0117297 9.2213739,5.3449092 9.222e-4,-16.0117298 z" id="path23226" inkscape:connector-curvature="0" sodipodi:nodetypes="ccccc"></path> <path sodipodi:nodetypes="ccccc" inkscape:connector-curvature="0" id="path23228" d="m 66.778045,8.51608705 -9.221e-4,16.01172975 -13.8286803,7.9806168 9.222e-4,-16.0117298 z" style="fill:#a4b0bf;stroke-width:1"></path> <path sodipodi:nodetypes="ccccc" inkscape:connector-curvature="0" id="path23343" d="m 65.2762733,11.5188953 -9.22e-4,5.33878 -4.6102261,2.6617158 9.222e-4,-5.3387802 z" style="fill:#304551;stroke-width:1"></path> <path style="fill:#304551;stroke-width:1" d="m 65.2762733,18.6311222 -9.22e-4,5.33878 -4.6102261,2.6617157 9.222e-4,-5.33878 z" id="path23345" inkscape:connector-curvature="0" sodipodi:nodetypes="ccccc"></path> <path style="fill:#304551;stroke-width:1" d="m 59.4177032,14.9066971 -9.221e-4,5.33878 -4.610226,2.6617147 9.221e-4,-5.3387801 z" id="path23347" inkscape:connector-curvature="0" sodipodi:nodetypes="ccccc"></path> <path sodipodi:nodetypes="ccccc" inkscape:connector-curvature="0" id="path23349" d="m 59.4177032,22.0189239 -9.221e-4,5.33878 -4.610226,2.6617148 9.221e-4,-5.33878 z" style="fill:#304551;stroke-width:1"></path> <path sodipodi:nodetypes="ccccc" inkscape:connector-curvature="0" id="path23355" d="m 48.9231516,15.9872468 9.221e-4,5.33878 3.0974563,1.7972749 -9.22e-4,-5.33878 z" style="fill:#1b272e;fill-opacity:1;stroke-width:1"></path> <path style="fill:#1b272e;fill-opacity:1;stroke-width:1" d="m 48.9231516,23.0994736 9.221e-4,5.3387801 3.0974563,1.7972749 -9.22e-4,-5.3387801 z" id="path23357" inkscape:connector-curvature="0" sodipodi:nodetypes="ccccc"></path> <path style="fill:#1b272e;fill-opacity:1;stroke-width:1" d="m 44.7090078,13.4659641 9.22e-4,5.3387801 3.0974564,1.7972749 -9.221e-4,-5.33878 z" id="path23359" inkscape:connector-curvature="0" sodipodi:nodetypes="ccccc"></path> <path sodipodi:nodetypes="ccccc" inkscape:connector-curvature="0" id="path23361" d="m 44.7090078,20.578191 9.22e-4,5.33878 3.0974564,1.7972749 -9.221e-4,-5.33878 z" style="fill:#1b272e;fill-opacity:1;stroke-width:1"></path> <path sodipodi:nodetypes="ccccc" inkscape:connector-curvature="0" id="path23510" d="m 79.1772927,14.441299 -8.736e-4,7.8140667 -30.9415277,17.8250854 8.74e-4,-7.8140669 z" style="fill:#cc0000;stroke-width:1"></path> <g id="g24173" transform="matrix(0.173379042,-0.100100437,0,0.173379042,56.7039661,28.6711409)" style="stroke-width:5.767709732"> <path id="path24141" style="fill:#ffffff;stroke-width:5.767709732" d="m 27.493,22.936 c -0.569,-0.13 -1.173,-0.213 -1.783,-0.213 -1.045,0 -1.995,0.182 -2.696,0.473 -0.078,0.039 -0.132,0.12 -0.132,0.211 0,0.034 0.007,0.068 0.021,0.096 0.082,0.24 -0.054,0.499 -0.732,0.65 -1.006,0.22 -1.641,1.259 -2.004,1.602 -0.427,0.405 -1.631,0.654 -1.45,0.411 0.142,-0.187 0.684,-0.776 1.013,-1.412 0.296,-0.568 0.559,-0.73 0.92,-1.273 0.107,-0.159 0.518,-0.718 0.638,-1.16 0.134,-0.432 0.089,-0.974 0.141,-1.197 0.074,-0.322 0.377,-1.019 0.4,-1.415 0.013,-0.221 -0.931,0.32 -1.379,0.32 -0.448,0 -0.885,-0.269 -1.285,-0.287 -0.495,-0.024 -0.814,0.381 -1.263,0.309 -0.255,-0.04 -0.472,-0.265 -0.918,-0.281 -0.637,-0.024 -1.416,0.353 -2.877,0.307 C 12.669,20.03 11.341,18.259 11.16,17.978 10.947,17.649 10.687,17.649 10.405,17.909 10.122,18.166 9.772,17.963 9.674,17.79 9.485,17.46 8.981,16.497 8.2,16.294 c -1.08,-0.28 -1.627,0.598 -1.556,1.295 0.072,0.709 0.531,0.908 0.744,1.285 0.211,0.376 0.32,0.62 0.718,0.787 0.284,0.118 0.389,0.292 0.305,0.524 C 8.337,20.387 8.043,20.434 7.848,20.443 7.437,20.463 7.149,20.351 6.938,20.217 6.694,20.06 6.494,19.844 6.282,19.477 6.034,19.071 5.645,18.895 5.192,18.895 c -0.216,0 -0.419,0.057 -0.598,0.148 -0.71,0.371 -1.556,0.589 -2.466,0.589 L 1.1,19.633 c 1.969,5.837 7.492,10.039 13.997,10.039 5.195,0 9.764,-2.68 12.396,-6.736" inkscape:connector-curvature="0"></path> <path id="path24143" style="fill:#000000;stroke-width:5.767709732" d="m 27.493,22.938 c -0.569,-0.132 -1.173,-0.214 -1.783,-0.214 -1.045,0 -1.995,0.182 -2.696,0.473 -0.078,0.039 -0.132,0.119 -0.132,0.211 0,0.033 0.007,0.068 0.021,0.095 0.082,0.241 -0.054,0.501 -0.732,0.651 -1.006,0.221 -1.641,1.258 -2.004,1.601 -0.427,0.406 -1.631,0.655 -1.45,0.413 0.142,-0.189 0.684,-0.778 1.013,-1.414 0.296,-0.567 0.559,-0.73 0.92,-1.272 0.107,-0.159 0.518,-0.719 0.638,-1.16 0.134,-0.433 0.089,-0.974 0.141,-1.197 0.074,-0.322 0.377,-1.019 0.4,-1.414 0.013,-0.223 -0.931,0.318 -1.379,0.318 -0.448,0 -0.885,-0.268 -1.285,-0.286 -0.495,-0.025 -0.814,0.381 -1.263,0.309 -0.255,-0.04 -0.472,-0.265 -0.918,-0.282 -0.637,-0.023 -1.416,0.354 -2.877,0.307 C 12.669,20.03 11.341,18.261 11.16,17.98 10.947,17.649 10.687,17.649 10.405,17.909 10.122,18.167 9.772,17.964 9.674,17.791 9.485,17.46 8.981,16.497 8.2,16.294 7.12,16.014 6.573,16.892 6.644,17.59 c 0.072,0.708 0.531,0.907 0.744,1.284 0.211,0.376 0.32,0.621 0.718,0.788 0.284,0.117 0.389,0.292 0.305,0.524 C 8.337,20.388 8.043,20.435 7.848,20.444 7.437,20.463 7.149,20.352 6.938,20.216 6.694,20.062 6.494,19.845 6.282,19.477 6.034,19.072 5.645,18.895 5.192,18.895 c -0.216,0 -0.419,0.058 -0.598,0.148 -0.71,0.371 -1.556,0.59 -2.466,0.59 l -1.028,0 C 0.6,18.152 0.33,16.565 0.33,14.916 0.33,6.764 6.941,0.157 15.097,0.157 c 8.154,0 14.766,6.607 14.766,14.759 0,2.958 -0.871,5.71 -2.37,8.022" inkscape:connector-curvature="0"></path> <path id="path24145" style="fill:#000000;stroke-width:5.767709732" d="m 18.3484,21.5845 c 0.076,0.073 0.207,0.322 0.047,0.639 -0.09,0.168 -0.187,0.285 -0.359,0.423 -0.209,0.167 -0.614,0.359 -1.17,0.005 -0.3,-0.189 -0.319,-0.253 -0.732,-0.199 -0.295,0.038 -0.412,-0.261 -0.307,-0.508 0.107,-0.247 0.542,-0.447 1.085,-0.129 0.245,0.143 0.625,0.447 0.957,0.177 0.139,-0.109 0.222,-0.183 0.413,-0.405 0.009,-0.009 0.021,-0.014 0.035,-0.014 0.012,0 0.023,0.004 0.031,0.011" inkscape:connector-curvature="0"></path> <path id="path24147" style="fill:#cc0000;stroke-width:5.767709732" d="m 13.9471,7.185 c -1.705,0.123 -1.883,0.307 -2.202,0.646 -0.45,0.481 -1.044,-0.621 -1.044,-0.621 -0.357,-0.075 -0.788,-0.649 -0.555,-1.184 0.23,-0.53 0.654,-0.372 0.786,-0.207 0.161,0.201 0.506,0.53 0.954,0.518 0.448,-0.012 0.964,-0.106 1.685,-0.106 0.73,0 1.22,0.272 1.247,0.507 0.025,0.199 -0.059,0.387 -0.871,0.447 m 1.792,-2.817 -0.008,0 c -0.026,0 -0.047,-0.02 -0.047,-0.044 0,-0.018 0.011,-0.034 0.027,-0.041 0.331,-0.174 0.824,-0.314 1.388,-0.37 0.169,-0.018 0.335,-0.028 0.494,-0.028 l 0.085,0 c 0.947,0.022 1.704,0.398 1.693,0.84 -0.012,0.442 -0.787,0.783 -1.735,0.763 -0.305,-0.008 -0.593,-0.052 -0.84,-0.124 -0.031,-0.007 -0.051,-0.032 -0.051,-0.062 0,-0.029 0.02,-0.054 0.052,-0.062 0.589,-0.136 0.988,-0.36 0.96,-0.571 -0.038,-0.279 -0.809,-0.431 -1.725,-0.339 -0.101,0.01 -0.198,0.023 -0.293,0.038 m 7.69,6.621 c -0.146,0.49 -0.353,1.117 -1.277,1.591 -0.135,0.069 -0.185,-0.044 -0.124,-0.15 0.35,-0.594 0.411,-0.742 0.513,-0.975 0.141,-0.343 0.217,-0.83 -0.066,-1.844 -0.555,-1.997 -1.715,-4.668 -2.556,-5.533 -0.813,-0.836 -2.285,-1.072 -3.617,-0.73 -0.49,0.125 -1.449,0.623 -3.227,0.223 -3.077,-0.693 -3.533,0.847 -3.709,1.518 -0.178,0.671 -0.602,2.578 -0.602,2.578 -0.141,0.778 -0.326,2.128 4.453,3.039 2.226,0.423 2.338,0.999 2.438,1.412 0.177,0.741 0.459,1.165 0.777,1.377 0.318,0.212 0,0.388 -0.353,0.423 -0.947,0.099 -4.452,-0.906 -6.526,-2.083 -1.696,-1.036 -1.724,-1.968 -1.336,-2.76 -2.562,-0.277 -4.485,0.24 -4.833,1.453 -0.599,2.08 4.576,5.634 10.469,7.418 6.184,1.871 12.544,0.564 13.251,-3.321 0.321,-1.765 -1.166,-3.071 -3.675,-3.636" inkscape:connector-curvature="0"></path> <g id="g3880" style="fill:#ffffff;stroke-width:5.767709732"> <path id="path24150" style="fill:#ffffff;stroke-width:5.767709732" d="m 29.7137,22.1489 0.133,0 0.201,0.33 0.13,0 -0.218,-0.336 c 0.113,-0.014 0.198,-0.073 0.198,-0.209 0,-0.151 -0.089,-0.217 -0.268,-0.217 l -0.291,0 0,0.762 0.115,0 0,-0.33 z m 0,-0.098 0,-0.237 0.157,0 c 0.079,0 0.165,0.019 0.165,0.112 0,0.118 -0.086,0.125 -0.184,0.125 l -0.138,0 z" inkscape:connector-curvature="0"></path> <path id="path24152" style="fill:#ffffff;stroke-width:5.767709732" d="m 30.5965,22.0991 c 0,0.411 -0.334,0.745 -0.746,0.745 -0.412,0 -0.747,-0.334 -0.747,-0.745 0,-0.411 0.335,-0.747 0.747,-0.747 0.412,0 0.746,0.336 0.746,0.747 m -0.746,-0.614 c -0.34,0 -0.615,0.274 -0.615,0.615 0,0.337 0.275,0.611 0.615,0.611 0.338,0 0.613,-0.274 0.613,-0.611 0,-0.341 -0.275,-0.615 -0.613,-0.615" inkscape:connector-curvature="0"></path> </g> <path id="path24154" style="fill:#ffffff;stroke-width:5.767709732" d="m 37.3904,15.8462 c 0,-1.354 -0.029,-2.349 -0.083,-3.249 l 2.214,0 0.096,1.921 0.072,0 c 0.498,-1.424 1.678,-2.15 2.769,-2.15 0.249,0 0.395,0.009 0.601,0.056 l 0,2.408 c -0.24,-0.048 -0.464,-0.073 -0.772,-0.073 -1.218,0 -2.064,0.775 -2.293,1.934 -0.042,0.225 -0.066,0.496 -0.066,0.771 l 0,5.243 -2.559,0 0.021,-6.861 z" inkscape:connector-curvature="0"></path> <path id="path24156" style="fill:#ffffff;stroke-width:5.767709732" d="m 46.1473,18.3403 c 0.067,1.832 1.486,2.634 3.124,2.634 1.176,0 2.019,-0.185 2.791,-0.468 l 0.379,1.759 c -0.865,0.367 -2.066,0.64 -3.534,0.64 -3.285,0 -5.21,-2.027 -5.21,-5.125 0,-2.791 1.693,-5.43 4.947,-5.43 3.29,0 4.36,2.703 4.36,4.916 0,0.476 -0.042,0.856 -0.09,1.094 l -6.767,-0.02 z m 4.448,-1.781 c 0.012,-0.937 -0.396,-2.464 -2.109,-2.464 -1.575,0 -2.23,1.429 -2.345,2.464 l 4.454,0 z" inkscape:connector-curvature="0"></path> <path id="path24158" style="fill:#ffffff;stroke-width:5.767709732" d="m 61.4695,18.3237 c 0,0.268 -0.02,0.518 -0.078,0.746 -0.257,1.107 -1.163,1.819 -2.209,1.819 -1.61,0 -2.532,-1.357 -2.532,-3.214 0,-1.876 0.913,-3.329 2.56,-3.329 1.151,0 1.975,0.812 2.2,1.796 0.044,0.207 0.059,0.463 0.059,0.667 l 0,1.515 z m 2.556,-9.621 -2.556,-0.721 0,5.704 -0.042,0 c -0.453,-0.747 -1.451,-1.317 -2.836,-1.317 -2.433,0 -4.551,2.012 -4.535,5.399 0,3.108 1.913,5.167 4.329,5.167 1.459,0 2.681,-0.695 3.285,-1.828 l 0.045,0 0.115,1.601 2.28,0 c -0.047,-0.688 -0.085,-1.8 -0.085,-2.835 l 0,-11.17 z" inkscape:connector-curvature="0"></path> <path id="path24160" style="fill:#ffffff;stroke-width:5.767709732" d="m 70.7898,12.3569 c -0.771,0 -1.462,0.222 -2.041,0.58 -0.602,0.352 -1.091,0.897 -1.383,1.459 l -0.041,0 0,-4.731 -1.001,-0.296 0,13.339 1.001,0 0,-6.188 c 0,-0.411 0.031,-0.696 0.137,-0.997 0.432,-1.26 1.619,-2.292 3.054,-2.292 2.072,0 2.79,1.661 2.79,3.483 l 0,5.994 1.001,0 0,-6.103 c 0,-3.769 -2.558,-4.248 -3.517,-4.248" inkscape:connector-curvature="0"></path> <path id="path24162" style="fill:#ffffff;stroke-width:5.767709732" d="m 83.2928,20.3042 c 0,0.801 0.032,1.628 0.148,2.403 l -0.922,0 -0.148,-1.449 -0.047,0 c -0.491,0.78 -1.619,1.68 -3.228,1.68 -2.037,0 -2.986,-1.433 -2.986,-2.781 0,-2.335 2.064,-3.743 6.183,-3.699 l 0,-0.27 c 0,-1.002 -0.195,-2.998 -2.591,-2.983 -0.886,0 -1.809,0.237 -2.542,0.754 l -0.318,-0.727 c 0.926,-0.627 2.055,-0.875 2.971,-0.875 2.921,0 3.48,2.192 3.48,4 l 0,3.947 z m -1,-3.005 c -2.206,-0.063 -5.117,0.271 -5.117,2.7 0,1.454 0.96,2.108 2.015,2.108 1.687,0 2.647,-1.044 2.997,-2.029 0.072,-0.215 0.105,-0.433 0.105,-0.607 l 0,-2.172 z" inkscape:connector-curvature="0"></path> <path id="path24164" style="fill:#ffffff;stroke-width:5.767709732" d="m 87.2801,10.3589 0,2.229 2.887,0 0,0.812 -2.887,0 0,6.577 c 0,1.287 0.399,2.093 1.488,2.093 0.521,0 0.891,-0.068 1.15,-0.159 l 0.121,0.775 c -0.327,0.138 -0.786,0.243 -1.397,0.243 -0.739,0 -1.352,-0.232 -1.748,-0.716 -0.458,-0.532 -0.615,-1.381 -0.615,-2.414 l 0,-6.399 -1.708,0 0,-0.812 1.708,0 0,-1.86 1.001,-0.369 z" inkscape:connector-curvature="0"></path> <use xlink:href="#g3880" height="30" width="93" y="0" x="0" id="use3884" transform="translate(61.7183,0.0205)" style="fill:#ffffff;stroke-width:5.767709732"></use> </g> <g style="stroke-width:7.647099495" transform="matrix(0.130768528,0.075499245,0,0.130768528,33.0473013,25.3649944)" id="g24255"> <path inkscape:connector-curvature="0" d="m 27.493,22.936 c -0.569,-0.13 -1.173,-0.213 -1.783,-0.213 -1.045,0 -1.995,0.182 -2.696,0.473 -0.078,0.039 -0.132,0.12 -0.132,0.211 0,0.034 0.007,0.068 0.021,0.096 0.082,0.24 -0.054,0.499 -0.732,0.65 -1.006,0.22 -1.641,1.259 -2.004,1.602 -0.427,0.405 -1.631,0.654 -1.45,0.411 0.142,-0.187 0.684,-0.776 1.013,-1.412 0.296,-0.568 0.559,-0.73 0.92,-1.273 0.107,-0.159 0.518,-0.718 0.638,-1.16 0.134,-0.432 0.089,-0.974 0.141,-1.197 0.074,-0.322 0.377,-1.019 0.4,-1.415 0.013,-0.221 -0.931,0.32 -1.379,0.32 -0.448,0 -0.885,-0.269 -1.285,-0.287 -0.495,-0.024 -0.814,0.381 -1.263,0.309 -0.255,-0.04 -0.472,-0.265 -0.918,-0.281 -0.637,-0.024 -1.416,0.353 -2.877,0.307 C 12.669,20.03 11.341,18.259 11.16,17.978 10.947,17.649 10.687,17.649 10.405,17.909 10.122,18.166 9.772,17.963 9.674,17.79 9.485,17.46 8.981,16.497 8.2,16.294 c -1.08,-0.28 -1.627,0.598 -1.556,1.295 0.072,0.709 0.531,0.908 0.744,1.285 0.211,0.376 0.32,0.62 0.718,0.787 0.284,0.118 0.389,0.292 0.305,0.524 C 8.337,20.387 8.043,20.434 7.848,20.443 7.437,20.463 7.149,20.351 6.938,20.217 6.694,20.06 6.494,19.844 6.282,19.477 6.034,19.071 5.645,18.895 5.192,18.895 c -0.216,0 -0.419,0.057 -0.598,0.148 -0.71,0.371 -1.556,0.589 -2.466,0.589 L 1.1,19.633 c 1.969,5.837 7.492,10.039 13.997,10.039 5.195,0 9.764,-2.68 12.396,-6.736" style="fill:#ffffff;stroke-width:7.647099495" id="path24257"></path> <path inkscape:connector-curvature="0" d="m 27.493,22.938 c -0.569,-0.132 -1.173,-0.214 -1.783,-0.214 -1.045,0 -1.995,0.182 -2.696,0.473 -0.078,0.039 -0.132,0.119 -0.132,0.211 0,0.033 0.007,0.068 0.021,0.095 0.082,0.241 -0.054,0.501 -0.732,0.651 -1.006,0.221 -1.641,1.258 -2.004,1.601 -0.427,0.406 -1.631,0.655 -1.45,0.413 0.142,-0.189 0.684,-0.778 1.013,-1.414 0.296,-0.567 0.559,-0.73 0.92,-1.272 0.107,-0.159 0.518,-0.719 0.638,-1.16 0.134,-0.433 0.089,-0.974 0.141,-1.197 0.074,-0.322 0.377,-1.019 0.4,-1.414 0.013,-0.223 -0.931,0.318 -1.379,0.318 -0.448,0 -0.885,-0.268 -1.285,-0.286 -0.495,-0.025 -0.814,0.381 -1.263,0.309 -0.255,-0.04 -0.472,-0.265 -0.918,-0.282 -0.637,-0.023 -1.416,0.354 -2.877,0.307 C 12.669,20.03 11.341,18.261 11.16,17.98 10.947,17.649 10.687,17.649 10.405,17.909 10.122,18.167 9.772,17.964 9.674,17.791 9.485,17.46 8.981,16.497 8.2,16.294 7.12,16.014 6.573,16.892 6.644,17.59 c 0.072,0.708 0.531,0.907 0.744,1.284 0.211,0.376 0.32,0.621 0.718,0.788 0.284,0.117 0.389,0.292 0.305,0.524 C 8.337,20.388 8.043,20.435 7.848,20.444 7.437,20.463 7.149,20.352 6.938,20.216 6.694,20.062 6.494,19.845 6.282,19.477 6.034,19.072 5.645,18.895 5.192,18.895 c -0.216,0 -0.419,0.058 -0.598,0.148 -0.71,0.371 -1.556,0.59 -2.466,0.59 l -1.028,0 C 0.6,18.152 0.33,16.565 0.33,14.916 0.33,6.764 6.941,0.157 15.097,0.157 c 8.154,0 14.766,6.607 14.766,14.759 0,2.958 -0.871,5.71 -2.37,8.022" style="fill:#000000;stroke-width:7.647099495" id="path24259"></path> <path inkscape:connector-curvature="0" d="m 18.3484,21.5845 c 0.076,0.073 0.207,0.322 0.047,0.639 -0.09,0.168 -0.187,0.285 -0.359,0.423 -0.209,0.167 -0.614,0.359 -1.17,0.005 -0.3,-0.189 -0.319,-0.253 -0.732,-0.199 -0.295,0.038 -0.412,-0.261 -0.307,-0.508 0.107,-0.247 0.542,-0.447 1.085,-0.129 0.245,0.143 0.625,0.447 0.957,0.177 0.139,-0.109 0.222,-0.183 0.413,-0.405 0.009,-0.009 0.021,-0.014 0.035,-0.014 0.012,0 0.023,0.004 0.031,0.011" style="fill:#000000;stroke-width:7.647099495" id="path24261"></path> <path inkscape:connector-curvature="0" d="m 13.9471,7.185 c -1.705,0.123 -1.883,0.307 -2.202,0.646 -0.45,0.481 -1.044,-0.621 -1.044,-0.621 -0.357,-0.075 -0.788,-0.649 -0.555,-1.184 0.23,-0.53 0.654,-0.372 0.786,-0.207 0.161,0.201 0.506,0.53 0.954,0.518 0.448,-0.012 0.964,-0.106 1.685,-0.106 0.73,0 1.22,0.272 1.247,0.507 0.025,0.199 -0.059,0.387 -0.871,0.447 m 1.792,-2.817 -0.008,0 c -0.026,0 -0.047,-0.02 -0.047,-0.044 0,-0.018 0.011,-0.034 0.027,-0.041 0.331,-0.174 0.824,-0.314 1.388,-0.37 0.169,-0.018 0.335,-0.028 0.494,-0.028 l 0.085,0 c 0.947,0.022 1.704,0.398 1.693,0.84 -0.012,0.442 -0.787,0.783 -1.735,0.763 -0.305,-0.008 -0.593,-0.052 -0.84,-0.124 -0.031,-0.007 -0.051,-0.032 -0.051,-0.062 0,-0.029 0.02,-0.054 0.052,-0.062 0.589,-0.136 0.988,-0.36 0.96,-0.571 -0.038,-0.279 -0.809,-0.431 -1.725,-0.339 -0.101,0.01 -0.198,0.023 -0.293,0.038 m 7.69,6.621 c -0.146,0.49 -0.353,1.117 -1.277,1.591 -0.135,0.069 -0.185,-0.044 -0.124,-0.15 0.35,-0.594 0.411,-0.742 0.513,-0.975 0.141,-0.343 0.217,-0.83 -0.066,-1.844 -0.555,-1.997 -1.715,-4.668 -2.556,-5.533 -0.813,-0.836 -2.285,-1.072 -3.617,-0.73 -0.49,0.125 -1.449,0.623 -3.227,0.223 -3.077,-0.693 -3.533,0.847 -3.709,1.518 -0.178,0.671 -0.602,2.578 -0.602,2.578 -0.141,0.778 -0.326,2.128 4.453,3.039 2.226,0.423 2.338,0.999 2.438,1.412 0.177,0.741 0.459,1.165 0.777,1.377 0.318,0.212 0,0.388 -0.353,0.423 -0.947,0.099 -4.452,-0.906 -6.526,-2.083 -1.696,-1.036 -1.724,-1.968 -1.336,-2.76 -2.562,-0.277 -4.485,0.24 -4.833,1.453 -0.599,2.08 4.576,5.634 10.469,7.418 6.184,1.871 12.544,0.564 13.251,-3.321 0.321,-1.765 -1.166,-3.071 -3.675,-3.636" style="fill:#cc0000;stroke-width:7.647099495" id="path24263"></path> <g style="fill:#ffffff;stroke-width:7.647099495" id="g24265"> <path inkscape:connector-curvature="0" d="m 29.7137,22.1489 0.133,0 0.201,0.33 0.13,0 -0.218,-0.336 c 0.113,-0.014 0.198,-0.073 0.198,-0.209 0,-0.151 -0.089,-0.217 -0.268,-0.217 l -0.291,0 0,0.762 0.115,0 0,-0.33 z m 0,-0.098 0,-0.237 0.157,0 c 0.079,0 0.165,0.019 0.165,0.112 0,0.118 -0.086,0.125 -0.184,0.125 l -0.138,0 z" style="fill:#ffffff;stroke-width:7.647099495" id="path24267"></path> <path inkscape:connector-curvature="0" d="m 30.5965,22.0991 c 0,0.411 -0.334,0.745 -0.746,0.745 -0.412,0 -0.747,-0.334 -0.747,-0.745 0,-0.411 0.335,-0.747 0.747,-0.747 0.412,0 0.746,0.336 0.746,0.747 m -0.746,-0.614 c -0.34,0 -0.615,0.274 -0.615,0.615 0,0.337 0.275,0.611 0.615,0.611 0.338,0 0.613,-0.274 0.613,-0.611 0,-0.341 -0.275,-0.615 -0.613,-0.615" style="fill:#ffffff;stroke-width:7.647099495" id="path24269"></path> </g> <path inkscape:connector-curvature="0" d="m 37.3904,15.8462 c 0,-1.354 -0.029,-2.349 -0.083,-3.249 l 2.214,0 0.096,1.921 0.072,0 c 0.498,-1.424 1.678,-2.15 2.769,-2.15 0.249,0 0.395,0.009 0.601,0.056 l 0,2.408 c -0.24,-0.048 -0.464,-0.073 -0.772,-0.073 -1.218,0 -2.064,0.775 -2.293,1.934 -0.042,0.225 -0.066,0.496 -0.066,0.771 l 0,5.243 -2.559,0 0.021,-6.861 z" style="fill:#ffffff;stroke-width:7.647099495" id="path24271"></path> <path inkscape:connector-curvature="0" d="m 46.1473,18.3403 c 0.067,1.832 1.486,2.634 3.124,2.634 1.176,0 2.019,-0.185 2.791,-0.468 l 0.379,1.759 c -0.865,0.367 -2.066,0.64 -3.534,0.64 -3.285,0 -5.21,-2.027 -5.21,-5.125 0,-2.791 1.693,-5.43 4.947,-5.43 3.29,0 4.36,2.703 4.36,4.916 0,0.476 -0.042,0.856 -0.09,1.094 l -6.767,-0.02 z m 4.448,-1.781 c 0.012,-0.937 -0.396,-2.464 -2.109,-2.464 -1.575,0 -2.23,1.429 -2.345,2.464 l 4.454,0 z" style="fill:#ffffff;stroke-width:7.647099495" id="path24273"></path> <path inkscape:connector-curvature="0" d="m 61.4695,18.3237 c 0,0.268 -0.02,0.518 -0.078,0.746 -0.257,1.107 -1.163,1.819 -2.209,1.819 -1.61,0 -2.532,-1.357 -2.532,-3.214 0,-1.876 0.913,-3.329 2.56,-3.329 1.151,0 1.975,0.812 2.2,1.796 0.044,0.207 0.059,0.463 0.059,0.667 l 0,1.515 z m 2.556,-9.621 -2.556,-0.721 0,5.704 -0.042,0 c -0.453,-0.747 -1.451,-1.317 -2.836,-1.317 -2.433,0 -4.551,2.012 -4.535,5.399 0,3.108 1.913,5.167 4.329,5.167 1.459,0 2.681,-0.695 3.285,-1.828 l 0.045,0 0.115,1.601 2.28,0 c -0.047,-0.688 -0.085,-1.8 -0.085,-2.835 l 0,-11.17 z" style="fill:#ffffff;stroke-width:7.647099495" id="path24275"></path> <path inkscape:connector-curvature="0" d="m 70.7898,12.3569 c -0.771,0 -1.462,0.222 -2.041,0.58 -0.602,0.352 -1.091,0.897 -1.383,1.459 l -0.041,0 0,-4.731 -1.001,-0.296 0,13.339 1.001,0 0,-6.188 c 0,-0.411 0.031,-0.696 0.137,-0.997 0.432,-1.26 1.619,-2.292 3.054,-2.292 2.072,0 2.79,1.661 2.79,3.483 l 0,5.994 1.001,0 0,-6.103 c 0,-3.769 -2.558,-4.248 -3.517,-4.248" style="fill:#ffffff;stroke-width:7.647099495" id="path24277"></path> <path inkscape:connector-curvature="0" d="m 83.2928,20.3042 c 0,0.801 0.032,1.628 0.148,2.403 l -0.922,0 -0.148,-1.449 -0.047,0 c -0.491,0.78 -1.619,1.68 -3.228,1.68 -2.037,0 -2.986,-1.433 -2.986,-2.781 0,-2.335 2.064,-3.743 6.183,-3.699 l 0,-0.27 c 0,-1.002 -0.195,-2.998 -2.591,-2.983 -0.886,0 -1.809,0.237 -2.542,0.754 l -0.318,-0.727 c 0.926,-0.627 2.055,-0.875 2.971,-0.875 2.921,0 3.48,2.192 3.48,4 l 0,3.947 z m -1,-3.005 c -2.206,-0.063 -5.117,0.271 -5.117,2.7 0,1.454 0.96,2.108 2.015,2.108 1.687,0 2.647,-1.044 2.997,-2.029 0.072,-0.215 0.105,-0.433 0.105,-0.607 l 0,-2.172 z" style="fill:#ffffff;stroke-width:7.647099495" id="path24279"></path> <path inkscape:connector-curvature="0" d="m 87.2801,10.3589 0,2.229 2.887,0 0,0.812 -2.887,0 0,6.577 c 0,1.287 0.399,2.093 1.488,2.093 0.521,0 0.891,-0.068 1.15,-0.159 l 0.121,0.775 c -0.327,0.138 -0.786,0.243 -1.397,0.243 -0.739,0 -1.352,-0.232 -1.748,-0.716 -0.458,-0.532 -0.615,-1.381 -0.615,-2.414 l 0,-6.399 -1.708,0 0,-0.812 1.708,0 0,-1.86 1.001,-0.369 z" style="fill:#ffffff;stroke-width:7.647099495" id="path24281"></path> <use style="fill:#ffffff;stroke-width:7.647099495" transform="translate(61.7183,0.0205)" id="use24283" x="0" y="0" width="93" height="30" xlink:href="#g3880"></use> </g> <g id="g24285" transform="matrix(0.236412166,-0.136492627,0.272985256,0.15760811,46.9075491,9.70180185)" style="stroke-width:3.663201571"> <path id="path24287" style="fill:#ffffff;stroke-width:3.663201571" d="m 27.493,22.936 c -0.569,-0.13 -1.173,-0.213 -1.783,-0.213 -1.045,0 -1.995,0.182 -2.696,0.473 -0.078,0.039 -0.132,0.12 -0.132,0.211 0,0.034 0.007,0.068 0.021,0.096 0.082,0.24 -0.054,0.499 -0.732,0.65 -1.006,0.22 -1.641,1.259 -2.004,1.602 -0.427,0.405 -1.631,0.654 -1.45,0.411 0.142,-0.187 0.684,-0.776 1.013,-1.412 0.296,-0.568 0.559,-0.73 0.92,-1.273 0.107,-0.159 0.518,-0.718 0.638,-1.16 0.134,-0.432 0.089,-0.974 0.141,-1.197 0.074,-0.322 0.377,-1.019 0.4,-1.415 0.013,-0.221 -0.931,0.32 -1.379,0.32 -0.448,0 -0.885,-0.269 -1.285,-0.287 -0.495,-0.024 -0.814,0.381 -1.263,0.309 -0.255,-0.04 -0.472,-0.265 -0.918,-0.281 -0.637,-0.024 -1.416,0.353 -2.877,0.307 C 12.669,20.03 11.341,18.259 11.16,17.978 10.947,17.649 10.687,17.649 10.405,17.909 10.122,18.166 9.772,17.963 9.674,17.79 9.485,17.46 8.981,16.497 8.2,16.294 c -1.08,-0.28 -1.627,0.598 -1.556,1.295 0.072,0.709 0.531,0.908 0.744,1.285 0.211,0.376 0.32,0.62 0.718,0.787 0.284,0.118 0.389,0.292 0.305,0.524 C 8.337,20.387 8.043,20.434 7.848,20.443 7.437,20.463 7.149,20.351 6.938,20.217 6.694,20.06 6.494,19.844 6.282,19.477 6.034,19.071 5.645,18.895 5.192,18.895 c -0.216,0 -0.419,0.057 -0.598,0.148 -0.71,0.371 -1.556,0.589 -2.466,0.589 L 1.1,19.633 c 1.969,5.837 7.492,10.039 13.997,10.039 5.195,0 9.764,-2.68 12.396,-6.736" inkscape:connector-curvature="0"></path> <path id="path24289" style="fill:#000000;stroke-width:3.663201571" d="m 27.493,22.938 c -0.569,-0.132 -1.173,-0.214 -1.783,-0.214 -1.045,0 -1.995,0.182 -2.696,0.473 -0.078,0.039 -0.132,0.119 -0.132,0.211 0,0.033 0.007,0.068 0.021,0.095 0.082,0.241 -0.054,0.501 -0.732,0.651 -1.006,0.221 -1.641,1.258 -2.004,1.601 -0.427,0.406 -1.631,0.655 -1.45,0.413 0.142,-0.189 0.684,-0.778 1.013,-1.414 0.296,-0.567 0.559,-0.73 0.92,-1.272 0.107,-0.159 0.518,-0.719 0.638,-1.16 0.134,-0.433 0.089,-0.974 0.141,-1.197 0.074,-0.322 0.377,-1.019 0.4,-1.414 0.013,-0.223 -0.931,0.318 -1.379,0.318 -0.448,0 -0.885,-0.268 -1.285,-0.286 -0.495,-0.025 -0.814,0.381 -1.263,0.309 -0.255,-0.04 -0.472,-0.265 -0.918,-0.282 -0.637,-0.023 -1.416,0.354 -2.877,0.307 C 12.669,20.03 11.341,18.261 11.16,17.98 10.947,17.649 10.687,17.649 10.405,17.909 10.122,18.167 9.772,17.964 9.674,17.791 9.485,17.46 8.981,16.497 8.2,16.294 7.12,16.014 6.573,16.892 6.644,17.59 c 0.072,0.708 0.531,0.907 0.744,1.284 0.211,0.376 0.32,0.621 0.718,0.788 0.284,0.117 0.389,0.292 0.305,0.524 C 8.337,20.388 8.043,20.435 7.848,20.444 7.437,20.463 7.149,20.352 6.938,20.216 6.694,20.062 6.494,19.845 6.282,19.477 6.034,19.072 5.645,18.895 5.192,18.895 c -0.216,0 -0.419,0.058 -0.598,0.148 -0.71,0.371 -1.556,0.59 -2.466,0.59 l -1.028,0 C 0.6,18.152 0.33,16.565 0.33,14.916 0.33,6.764 6.941,0.157 15.097,0.157 c 8.154,0 14.766,6.607 14.766,14.759 0,2.958 -0.871,5.71 -2.37,8.022" inkscape:connector-curvature="0"></path> <path id="path24291" style="fill:#000000;stroke-width:3.663201571" d="m 18.3484,21.5845 c 0.076,0.073 0.207,0.322 0.047,0.639 -0.09,0.168 -0.187,0.285 -0.359,0.423 -0.209,0.167 -0.614,0.359 -1.17,0.005 -0.3,-0.189 -0.319,-0.253 -0.732,-0.199 -0.295,0.038 -0.412,-0.261 -0.307,-0.508 0.107,-0.247 0.542,-0.447 1.085,-0.129 0.245,0.143 0.625,0.447 0.957,0.177 0.139,-0.109 0.222,-0.183 0.413,-0.405 0.009,-0.009 0.021,-0.014 0.035,-0.014 0.012,0 0.023,0.004 0.031,0.011" inkscape:connector-curvature="0"></path> <path id="path24293" style="fill:#cc0000;stroke-width:3.663201571" d="m 13.9471,7.185 c -1.705,0.123 -1.883,0.307 -2.202,0.646 -0.45,0.481 -1.044,-0.621 -1.044,-0.621 -0.357,-0.075 -0.788,-0.649 -0.555,-1.184 0.23,-0.53 0.654,-0.372 0.786,-0.207 0.161,0.201 0.506,0.53 0.954,0.518 0.448,-0.012 0.964,-0.106 1.685,-0.106 0.73,0 1.22,0.272 1.247,0.507 0.025,0.199 -0.059,0.387 -0.871,0.447 m 1.792,-2.817 -0.008,0 c -0.026,0 -0.047,-0.02 -0.047,-0.044 0,-0.018 0.011,-0.034 0.027,-0.041 0.331,-0.174 0.824,-0.314 1.388,-0.37 0.169,-0.018 0.335,-0.028 0.494,-0.028 l 0.085,0 c 0.947,0.022 1.704,0.398 1.693,0.84 -0.012,0.442 -0.787,0.783 -1.735,0.763 -0.305,-0.008 -0.593,-0.052 -0.84,-0.124 -0.031,-0.007 -0.051,-0.032 -0.051,-0.062 0,-0.029 0.02,-0.054 0.052,-0.062 0.589,-0.136 0.988,-0.36 0.96,-0.571 -0.038,-0.279 -0.809,-0.431 -1.725,-0.339 -0.101,0.01 -0.198,0.023 -0.293,0.038 m 7.69,6.621 c -0.146,0.49 -0.353,1.117 -1.277,1.591 -0.135,0.069 -0.185,-0.044 -0.124,-0.15 0.35,-0.594 0.411,-0.742 0.513,-0.975 0.141,-0.343 0.217,-0.83 -0.066,-1.844 -0.555,-1.997 -1.715,-4.668 -2.556,-5.533 -0.813,-0.836 -2.285,-1.072 -3.617,-0.73 -0.49,0.125 -1.449,0.623 -3.227,0.223 -3.077,-0.693 -3.533,0.847 -3.709,1.518 -0.178,0.671 -0.602,2.578 -0.602,2.578 -0.141,0.778 -0.326,2.128 4.453,3.039 2.226,0.423 2.338,0.999 2.438,1.412 0.177,0.741 0.459,1.165 0.777,1.377 0.318,0.212 0,0.388 -0.353,0.423 -0.947,0.099 -4.452,-0.906 -6.526,-2.083 -1.696,-1.036 -1.724,-1.968 -1.336,-2.76 -2.562,-0.277 -4.485,0.24 -4.833,1.453 -0.599,2.08 4.576,5.634 10.469,7.418 6.184,1.871 12.544,0.564 13.251,-3.321 0.321,-1.765 -1.166,-3.071 -3.675,-3.636" inkscape:connector-curvature="0"></path> </g> <path style="fill:url(#linearGradient24323);fill-opacity:1;stroke-width:1" d="M 10.2595998,88.4868997 29.8965105,77.8189629 48.3382167,88.5072347 28.7003839,99.1751724 Z" id="path24315" inkscape:connector-curvature="0" sodipodi:nodetypes="ccccc"></path>
</svg>
