<?xml version="1.0" encoding="UTF-8" standalone="no"?>
<!-- Created with Inkscape (http://www.inkscape.org/) -->

<svg
   xmlns:dc="http://purl.org/dc/elements/1.1/"
   xmlns:cc="http://creativecommons.org/ns#"
   xmlns:rdf="http://www.w3.org/1999/02/22-rdf-syntax-ns#"
   xmlns:svg="http://www.w3.org/2000/svg"
   xmlns="http://www.w3.org/2000/svg"
   xmlns:xlink="http://www.w3.org/1999/xlink"
   xmlns:sodipodi="http://sodipodi.sourceforge.net/DTD/sodipodi-0.dtd"
   xmlns:inkscape="http://www.inkscape.org/namespaces/inkscape"
   viewBox="0 0 100 100"
   version="1.1"
   id="svg"
   inkscape:version="0.92.3 (2405546, 2018-03-11)"
   sodipodi:docname="redhat-office.svg"
   width="100"
   height="100">
  <defs
     id="defs22679">
    <linearGradient
       inkscape:collect="always"
       id="linearGradient24317">
      <stop
         style="stop-color:#000000;stop-opacity:1;"
         offset="0"
         id="stop24319" />
      <stop
         style="stop-color:#000000;stop-opacity:0;"
         offset="1"
         id="stop24321" />
    </linearGradient>
    <linearGradient
       inkscape:collect="always"
       id="linearGradient23436">
      <stop
         style="stop-color:#ffffff;stop-opacity:1;"
         offset="0"
         id="stop23438" />
      <stop
         style="stop-color:#ffffff;stop-opacity:0;"
         offset="1"
         id="stop23440" />
    </linearGradient>
    <linearGradient
       inkscape:collect="always"
       id="linearGradient23365">
      <stop
         style="stop-color:#5b676f;stop-opacity:1"
         offset="0"
         id="stop23367" />
      <stop
         style="stop-color:#6e7c85;stop-opacity:0;"
         offset="1"
         id="stop23369" />
    </linearGradient>
    <linearGradient
       inkscape:collect="always"
       xlink:href="#linearGradient23365"
       id="linearGradient23371"
       x1="5.00543499"
       y1="93.7364197"
       x2="3.26763415"
       y2="93.7364197"
       gradientUnits="userSpaceOnUse"
       gradientTransform="matrix(9.2206909,0,0,9.2206909,8.02959771,-830.164309)" />
    <linearGradient
       inkscape:collect="always"
       xlink:href="#linearGradient23436"
       id="linearGradient23442"
       x1="114.055527"
       y1="48.6715202"
       x2="44.4639282"
       y2="48.6715202"
       gradientUnits="userSpaceOnUse" />
    <linearGradient
       inkscape:collect="always"
       xlink:href="#linearGradient24317"
       id="linearGradient24323"
       x1="52.7439232"
       y1="76.4230499"
       x2="24.7030697"
       y2="104.463905"
       gradientUnits="userSpaceOnUse"
       gradientTransform="matrix(0.965288104,0,0,0.965288104,8.71815466,-5.84078082)" />
  </defs>
  <sodipodi:namedview
     id="base"
     pagecolor="#1c1d20"
     bordercolor="#666666"
     borderopacity="1.0"
     inkscape:pageopacity="0"
     inkscape:pageshadow="2"
     inkscape:zoom="16.22"
     inkscape:cx="59.91"
     inkscape:cy="27.66"
     inkscape:document-units="mm"
     inkscape:current-layer="svg"
     showgrid="false"
     units="px"
     inkscape:window-width="1920"
     inkscape:window-height="1025"
     inkscape:window-x="0"
     inkscape:window-y="27"
     inkscape:window-maximized="0"
     inkscape:showpageshadow="false"
     borderlayer="true"
     inkscape:snap-global="false">
    <inkscape:grid
       type="axonomgrid"
       id="grid812"
       units="px"
       empspacing="5"
       spacingy="0.5785"
       originy="0"
       color="#747474"
       opacity="0.262745"
       empcolor="#3c3c3c"
       empopacity="0.533"
       gridanglex="30.1" />
  </sodipodi:namedview>
  <metadata
     id="metadata3728">
    <rdf:rdf>
      <cc:work
         rdf:about="">
        <dc:title />
        <dc:format>image/svg+xml</dc:format>
        <dc:type
           rdf:resource="http://purl.org/dc/dcmitype/StillImage" />
      </cc:work>
    </rdf:rdf>
    <rdf:RDF>
      <cc:Work
         rdf:about="">
        <dc:format>image/svg+xml</dc:format>
        <dc:type
           rdf:resource="http://purl.org/dc/dcmitype/StillImage" />
        <dc:title></dc:title>
      </cc:Work>
    </rdf:RDF>
  </metadata>
  <path
     style="fill:#8a969e;stroke-width:1"
     d="m 29.9,29.81 13.76,-7.94 0.17,5.36 6.7,3.87 16.3,-9.34 -0.11,-8.23 13.89,8.34 -32.27,18.63 z"
     id="rect4222"
     inkscape:connector-curvature="0"
     sodipodi:nodetypes="ccccccccc" />
  <path
     sodipodi:nodetypes="ccccc"
     inkscape:connector-curvature="0"
     id="path4244"
     d="m 29.8974325,29.8114358 -9.22e-4,48.0075271 18.4417062,10.6882718 0,-48.0075262 z"
     style="fill:#5e6a71;stroke-width:1" />
  <path
     style="fill:#a4b0bf;stroke-width:1"
     d="m 80.6097983,21.8677018 0,48.0075271 -32.2715816,18.6320058 0,-48.0075262 z"
     id="path4246"
     inkscape:connector-curvature="0"
     sodipodi:nodetypes="ccccc" />
  <path
     id="path23286"
     style="fill:#304551;stroke-width:1"
     d="m 61.3297175,66.5839181 -9.22e-4,5.3387801 -4.610226,2.6617146 9.221e-4,-5.33878 z m 11.4868022,-6.5839108 -9.221e-4,5.33878 -4.6102259,2.6617148 9.221e-4,-5.33878 z m 5.8585702,3.7244243 -9.222e-4,7.2693562 -4.6102259,2.6617156 9.221e-4,-7.2693572 z m 0,-7.112226 -9.222e-4,5.33878 -4.6102259,2.6617157 9.221e-4,-5.33878 z m -5.8618245,10.5041291 -16.1001909,9.2386997 0,7.2792972 16.1001909,-9.2567089 z m -5.7785364,-3.7924232 -9.22e-4,5.3387801 -4.610226,2.6617146 9.221e-4,-5.33878 z m -11.4116909,13.7137058 -9.22e-4,7.2693563 -4.610226,2.6617156 9.221e-4,-7.2693562 z m 0,-7.112225 -9.22e-4,5.3387801 -4.610226,2.6617146 9.221e-4,-5.33878 z m 5.7066794,-10.2415302 -9.22e-4,5.33878 -4.610226,2.6617147 9.221e-4,-5.33878 z m 0,-7.1122259 -9.22e-4,5.33878 -4.610226,2.6617156 9.221e-4,-5.33878 z m 0,-7.112226 -9.22e-4,5.33878 -4.610226,2.6617148 9.221e-4,-5.33878 z m 0,-7.1122268 -9.22e-4,5.33878 -4.610226,2.6617147 9.221e-4,-5.33878 z m 11.4868022,14.752768 -9.221e-4,5.33878 -4.6102259,2.6617156 9.221e-4,-5.33878 z m 0,-7.112226 -9.221e-4,5.33878 -4.6102259,2.6617157 9.221e-4,-5.33878 z m 0,-7.1122259 -9.221e-4,5.33878 -4.6102259,2.6617156 9.221e-4,-5.33878 z m 0,-7.112227 -9.221e-4,5.3387802 -4.6102259,2.6617156 9.221e-4,-5.3387801 z m 5.8585702,17.9488771 -9.222e-4,5.33878 -4.6102259,2.6617157 9.221e-4,-5.3387801 z m 0,-7.112225 -9.222e-4,5.33878 -4.6102259,2.6617148 9.221e-4,-5.3387801 z m 0,-7.1122268 -9.222e-4,5.33878 -4.6102259,2.6617156 9.221e-4,-5.33878 z m 0,-7.1122269 -9.222e-4,5.33878 -4.6102259,2.6617156 9.221e-4,-5.33878 z m -11.6403609,28.0483846 -9.22e-4,5.33878 -4.610226,2.6617157 9.221e-4,-5.338781 z m 0,-7.1122259 -9.22e-4,5.33878 -4.610226,2.6617156 9.221e-4,-5.33878 z m 0,-7.112226 -9.22e-4,5.33878 -4.610226,2.6617148 9.221e-4,-5.33878 z m 0,-7.1122268 -9.22e-4,5.33878 -4.610226,2.6617147 9.221e-4,-5.3387791 z m -11.4116909,27.9381595 -9.22e-4,5.3387801 -4.610226,2.6617146 9.221e-4,-5.33878 z m 0,-7.1122259 -9.22e-4,5.33878 -4.610226,2.6617156 9.221e-4,-5.33878 z m 0,-7.112226 -9.22e-4,5.33878 -4.610226,2.6617147 9.221e-4,-5.33878 z m 0,-7.1122268 -9.22e-4,5.33878 -4.610226,2.6617147 9.221e-4,-5.33878 z"
     inkscape:connector-curvature="0"
     sodipodi:nodetypes="cccccccccccccccccccccccccccccccccccccccccccccccccccccccccccccccccccccccccccccccccccccccccccccccccccccccccccccccccccccccccccccccccccccccccccc" />
  <path
     style="fill:#1b272e;fill-opacity:1;stroke-width:1"
     d="m 42.5845037,42.7278175 9.221e-4,5.33878 4.610226,2.6617147 -9.221e-4,-5.3387801 z"
     id="path23311"
     inkscape:connector-curvature="0"
     sodipodi:nodetypes="ccccc" />
  <path
     sodipodi:nodetypes="ccccc"
     inkscape:connector-curvature="0"
     id="path23313"
     d="m 42.5845037,49.8400443 9.221e-4,5.33878 4.610226,2.6617148 -9.221e-4,-5.33878 z"
     style="fill:#1b272e;fill-opacity:1;stroke-width:1" />
  <path
     style="fill:#1b272e;fill-opacity:1;stroke-width:1"
     d="m 42.5845037,56.9522702 9.221e-4,5.3387801 4.610226,2.6617146 -9.221e-4,-5.33878 z"
     id="path23315"
     inkscape:connector-curvature="0"
     sodipodi:nodetypes="ccccc" />
  <path
     sodipodi:nodetypes="ccccc"
     inkscape:connector-curvature="0"
     id="path23317"
     d="m 42.5845037,64.0644962 9.221e-4,5.33878 4.610226,2.6617147 -9.221e-4,-5.33878 z"
     style="fill:#1b272e;fill-opacity:1;stroke-width:1" />
  <path
     sodipodi:nodetypes="ccccc"
     inkscape:connector-curvature="0"
     id="path23319"
     d="m 30.944143,36.0161116 9.222e-4,5.33878 4.6102258,2.6617147 -9.22e-4,-5.33878 z"
     style="fill:#1b272e;fill-opacity:1;stroke-width:1" />
  <path
     style="fill:#1b272e;fill-opacity:1;stroke-width:1"
     d="m 30.944143,43.1283384 9.222e-4,5.3387801 4.6102258,2.6617147 -9.22e-4,-5.3387801 z"
     id="path23321"
     inkscape:connector-curvature="0"
     sodipodi:nodetypes="ccccc" />
  <path
     sodipodi:nodetypes="ccccc"
     inkscape:connector-curvature="0"
     id="path23323"
     d="m 30.944143,50.2405643 9.222e-4,5.3387801 4.6102258,2.6617156 -9.22e-4,-5.33878 z"
     style="fill:#1b272e;fill-opacity:1;stroke-width:1" />
  <path
     style="fill:#1b272e;fill-opacity:1;stroke-width:1"
     d="m 30.944143,57.3527903 9.222e-4,5.33878 4.6102258,2.6617156 -9.22e-4,-5.3387808 z"
     id="path23325"
     inkscape:connector-curvature="0"
     sodipodi:nodetypes="ccccc" />
  <path
     style="fill:#1b272e;fill-opacity:1;stroke-width:1"
     d="m 36.802713,39.4039132 9.222e-4,5.3387802 4.6102258,2.6617146 -9.22e-4,-5.33878 z"
     id="path23327"
     inkscape:connector-curvature="0"
     sodipodi:nodetypes="ccccc" />
  <path
     sodipodi:nodetypes="ccccc"
     inkscape:connector-curvature="0"
     id="path23329"
     d="m 36.802713,46.5161402 9.222e-4,5.33878 4.6102258,2.6617146 -9.22e-4,-5.33878 z"
     style="fill:#1b272e;fill-opacity:1;stroke-width:1" />
  <path
     style="fill:#1b272e;fill-opacity:1;stroke-width:1"
     d="m 36.802713,53.6283661 9.222e-4,5.33878 4.6102258,2.6617147 -9.22e-4,-5.33878 z"
     id="path23331"
     inkscape:connector-curvature="0"
     sodipodi:nodetypes="ccccc" />
  <path
     sodipodi:nodetypes="ccccc"
     inkscape:connector-curvature="0"
     id="path23333"
     d="m 36.802713,60.740592 9.222e-4,5.3387801 4.6102258,2.6617146 -9.22e-4,-5.33878 z"
     style="fill:#1b272e;fill-opacity:1;stroke-width:1" />
  <path
     sodipodi:nodetypes="ccccc"
     inkscape:connector-curvature="0"
     id="path23335"
     d="m 42.5845037,70.9645513 9.221e-4,5.33878 4.610226,2.6617156 -9.221e-4,-5.33878 z"
     style="fill:#1b272e;fill-opacity:1;stroke-width:1" />
  <path
     style="fill:#1b272e;fill-opacity:1;stroke-width:1"
     d="m 30.944143,64.2528463 9.222e-4,5.33878 4.6102258,2.6617148 -9.22e-4,-5.3387801 z"
     id="path23337"
     inkscape:connector-curvature="0"
     sodipodi:nodetypes="ccccc" />
  <path
     sodipodi:nodetypes="cccc"
     inkscape:connector-curvature="0"
     id="path23339"
     d="m 47.15,85.78 0,-5.34 -16.21,-9.07 0,5.33"
     style="fill:#1b272e;fill-opacity:1;stroke-width:1" />
  <path
     sodipodi:nodetypes="ccccc"
     inkscape:connector-curvature="0"
     id="path23341"
     d="m 36.802713,67.640648 9.222e-4,5.33878 4.6102258,2.6617148 -9.22e-4,-5.3387801 z"
     style="fill:#1b272e;fill-opacity:1;stroke-width:1" />
  <path
     style="fill:url(#linearGradient23371);fill-opacity:1;stroke-width:1"
     d="m 41.51,28.35 2.08,-1.28 6.63,3.85 -2.03,1.28 z"
     id="path23363"
     inkscape:connector-curvature="0"
     sodipodi:nodetypes="ccccc" />
  <path
     sodipodi:nodetypes="ccccc"
     inkscape:connector-curvature="0"
     id="path23504"
     d="M 79.29,22.29 V 14.47 L 66.95,7.408 66.81,15.15 Z"
     style="fill:#820000;stroke-width:1" />
  <path
     style="fill:#a30000;stroke-width:1"
     d="m 31.18,30.28 v -7.81 l 12.5,-7.2 0,7.79 z"
     id="path23506"
     inkscape:connector-curvature="0"
     sodipodi:nodetypes="ccccc" />
  <path
     style="fill:#820000;stroke-width:1"
     d="m 31.0685659,22.4368296 -0.00176,7.8140668 17.168073,9.8295547 8.738e-4,-7.8140669 z"
     id="path23508"
     inkscape:connector-curvature="0"
     sodipodi:nodetypes="ccccc" />
  <path
     sodipodi:nodetypes="ccccc"
     inkscape:connector-curvature="0"
     id="path23224"
     d="M 43.73,9.844 57.56,1.863 66.78,7.208 52.95,15.19 Z"
     style="fill:#8a969e;stroke-width:1" />
  <path
     style="fill:#5e6a71;stroke-width:1"
     d="m 43.73,9.844 0,17.316 9.22,5.35 0,-17.32 z"
     id="path23226"
     inkscape:connector-curvature="0"
     sodipodi:nodetypes="ccccc" />
  <path
     sodipodi:nodetypes="ccccc"
     inkscape:connector-curvature="0"
     id="path23228"
     d="m 66.78,7.208 0,17.322 -13.83,7.98 0,-17.32 z"
     style="fill:#a4b0bf;stroke-width:1" />
  <path
     sodipodi:nodetypes="ccccc"
     inkscape:connector-curvature="0"
     id="path23343"
     d="m 65.2762733,11.5188953 -9.22e-4,5.33878 -4.6102261,2.6617158 9.222e-4,-5.3387802 z"
     style="fill:#304551;stroke-width:1" />
  <path
     style="fill:#304551;stroke-width:1"
     d="m 65.2762733,18.6311222 -9.22e-4,5.33878 -4.6102261,2.6617157 9.222e-4,-5.33878 z"
     id="path23345"
     inkscape:connector-curvature="0"
     sodipodi:nodetypes="ccccc" />
  <path
     style="fill:#304551;stroke-width:1"
     d="m 59.4177032,14.9066971 -9.221e-4,5.33878 -4.610226,2.6617147 9.221e-4,-5.3387801 z"
     id="path23347"
     inkscape:connector-curvature="0"
     sodipodi:nodetypes="ccccc" />
  <path
     sodipodi:nodetypes="ccccc"
     inkscape:connector-curvature="0"
     id="path23349"
     d="m 59.4177032,22.0189239 -9.221e-4,5.33878 -4.610226,2.6617148 9.221e-4,-5.33878 z"
     style="fill:#304551;stroke-width:1" />
  <path
     sodipodi:nodetypes="ccccc"
     inkscape:connector-curvature="0"
     id="path23355"
     d="m 48.9231516,15.9872468 9.221e-4,5.33878 3.0974563,1.7972749 -9.22e-4,-5.33878 z"
     style="fill:#1b272e;fill-opacity:1;stroke-width:1" />
  <path
     style="fill:#1b272e;fill-opacity:1;stroke-width:1"
     d="m 48.9231516,23.0994736 9.221e-4,5.3387801 3.0974563,1.7972749 -9.22e-4,-5.3387801 z"
     id="path23357"
     inkscape:connector-curvature="0"
     sodipodi:nodetypes="ccccc" />
  <path
     style="fill:#1b272e;fill-opacity:1;stroke-width:1"
     d="m 44.7090078,13.4659641 9.22e-4,5.3387801 3.0974564,1.7972749 -9.221e-4,-5.33878 z"
     id="path23359"
     inkscape:connector-curvature="0"
     sodipodi:nodetypes="ccccc" />
  <path
     sodipodi:nodetypes="ccccc"
     inkscape:connector-curvature="0"
     id="path23361"
     d="m 44.7090078,20.578191 9.22e-4,5.33878 3.0974564,1.7972749 -9.221e-4,-5.33878 z"
     style="fill:#1b272e;fill-opacity:1;stroke-width:1" />
  <path
     sodipodi:nodetypes="ccccc"
     inkscape:connector-curvature="0"
     id="path23510"
     d="m 79.1772927,14.441299 -8.736e-4,7.8140667 -30.9415277,17.8250854 8.74e-4,-7.8140669 z"
     style="fill:#cc0000;stroke-width:1" />
  <g
     id="g24173"
     transform="matrix(0.173379042,-0.100100437,0,0.173379042,56.7039661,28.6711409)"
     style="stroke-width:5.767709732">
    <path
       id="path24141"
       style="fill:#ffffff;stroke-width:5.767709732"
       d="m 27.493,22.936 c -0.569,-0.13 -1.173,-0.213 -1.783,-0.213 -1.045,0 -1.995,0.182 -2.696,0.473 -0.078,0.039 -0.132,0.12 -0.132,0.211 0,0.034 0.007,0.068 0.021,0.096 0.082,0.24 -0.054,0.499 -0.732,0.65 -1.006,0.22 -1.641,1.259 -2.004,1.602 -0.427,0.405 -1.631,0.654 -1.45,0.411 0.142,-0.187 0.684,-0.776 1.013,-1.412 0.296,-0.568 0.559,-0.73 0.92,-1.273 0.107,-0.159 0.518,-0.718 0.638,-1.16 0.134,-0.432 0.089,-0.974 0.141,-1.197 0.074,-0.322 0.377,-1.019 0.4,-1.415 0.013,-0.221 -0.931,0.32 -1.379,0.32 -0.448,0 -0.885,-0.269 -1.285,-0.287 -0.495,-0.024 -0.814,0.381 -1.263,0.309 -0.255,-0.04 -0.472,-0.265 -0.918,-0.281 -0.637,-0.024 -1.416,0.353 -2.877,0.307 C 12.669,20.03 11.341,18.259 11.16,17.978 10.947,17.649 10.687,17.649 10.405,17.909 10.122,18.166 9.772,17.963 9.674,17.79 9.485,17.46 8.981,16.497 8.2,16.294 c -1.08,-0.28 -1.627,0.598 -1.556,1.295 0.072,0.709 0.531,0.908 0.744,1.285 0.211,0.376 0.32,0.62 0.718,0.787 0.284,0.118 0.389,0.292 0.305,0.524 C 8.337,20.387 8.043,20.434 7.848,20.443 7.437,20.463 7.149,20.351 6.938,20.217 6.694,20.06 6.494,19.844 6.282,19.477 6.034,19.071 5.645,18.895 5.192,18.895 c -0.216,0 -0.419,0.057 -0.598,0.148 -0.71,0.371 -1.556,0.589 -2.466,0.589 L 1.1,19.633 c 1.969,5.837 7.492,10.039 13.997,10.039 5.195,0 9.764,-2.68 12.396,-6.736"
       inkscape:connector-curvature="0" />
    <path
       id="path24143"
       style="fill:#000000;stroke-width:5.767709732"
       d="m 27.493,22.938 c -0.569,-0.132 -1.173,-0.214 -1.783,-0.214 -1.045,0 -1.995,0.182 -2.696,0.473 -0.078,0.039 -0.132,0.119 -0.132,0.211 0,0.033 0.007,0.068 0.021,0.095 0.082,0.241 -0.054,0.501 -0.732,0.651 -1.006,0.221 -1.641,1.258 -2.004,1.601 -0.427,0.406 -1.631,0.655 -1.45,0.413 0.142,-0.189 0.684,-0.778 1.013,-1.414 0.296,-0.567 0.559,-0.73 0.92,-1.272 0.107,-0.159 0.518,-0.719 0.638,-1.16 0.134,-0.433 0.089,-0.974 0.141,-1.197 0.074,-0.322 0.377,-1.019 0.4,-1.414 0.013,-0.223 -0.931,0.318 -1.379,0.318 -0.448,0 -0.885,-0.268 -1.285,-0.286 -0.495,-0.025 -0.814,0.381 -1.263,0.309 -0.255,-0.04 -0.472,-0.265 -0.918,-0.282 -0.637,-0.023 -1.416,0.354 -2.877,0.307 C 12.669,20.03 11.341,18.261 11.16,17.98 10.947,17.649 10.687,17.649 10.405,17.909 10.122,18.167 9.772,17.964 9.674,17.791 9.485,17.46 8.981,16.497 8.2,16.294 7.12,16.014 6.573,16.892 6.644,17.59 c 0.072,0.708 0.531,0.907 0.744,1.284 0.211,0.376 0.32,0.621 0.718,0.788 0.284,0.117 0.389,0.292 0.305,0.524 C 8.337,20.388 8.043,20.435 7.848,20.444 7.437,20.463 7.149,20.352 6.938,20.216 6.694,20.062 6.494,19.845 6.282,19.477 6.034,19.072 5.645,18.895 5.192,18.895 c -0.216,0 -0.419,0.058 -0.598,0.148 -0.71,0.371 -1.556,0.59 -2.466,0.59 l -1.028,0 C 0.6,18.152 0.33,16.565 0.33,14.916 0.33,6.764 6.941,0.157 15.097,0.157 c 8.154,0 14.766,6.607 14.766,14.759 0,2.958 -0.871,5.71 -2.37,8.022"
       inkscape:connector-curvature="0" />
    <path
       id="path24145"
       style="fill:#000000;stroke-width:5.767709732"
       d="m 18.3484,21.5845 c 0.076,0.073 0.207,0.322 0.047,0.639 -0.09,0.168 -0.187,0.285 -0.359,0.423 -0.209,0.167 -0.614,0.359 -1.17,0.005 -0.3,-0.189 -0.319,-0.253 -0.732,-0.199 -0.295,0.038 -0.412,-0.261 -0.307,-0.508 0.107,-0.247 0.542,-0.447 1.085,-0.129 0.245,0.143 0.625,0.447 0.957,0.177 0.139,-0.109 0.222,-0.183 0.413,-0.405 0.009,-0.009 0.021,-0.014 0.035,-0.014 0.012,0 0.023,0.004 0.031,0.011"
       inkscape:connector-curvature="0" />
    <path
       id="path24147"
       style="fill:#cc0000;stroke-width:5.767709732"
       d="m 13.9471,7.185 c -1.705,0.123 -1.883,0.307 -2.202,0.646 -0.45,0.481 -1.044,-0.621 -1.044,-0.621 -0.357,-0.075 -0.788,-0.649 -0.555,-1.184 0.23,-0.53 0.654,-0.372 0.786,-0.207 0.161,0.201 0.506,0.53 0.954,0.518 0.448,-0.012 0.964,-0.106 1.685,-0.106 0.73,0 1.22,0.272 1.247,0.507 0.025,0.199 -0.059,0.387 -0.871,0.447 m 1.792,-2.817 -0.008,0 c -0.026,0 -0.047,-0.02 -0.047,-0.044 0,-0.018 0.011,-0.034 0.027,-0.041 0.331,-0.174 0.824,-0.314 1.388,-0.37 0.169,-0.018 0.335,-0.028 0.494,-0.028 l 0.085,0 c 0.947,0.022 1.704,0.398 1.693,0.84 -0.012,0.442 -0.787,0.783 -1.735,0.763 -0.305,-0.008 -0.593,-0.052 -0.84,-0.124 -0.031,-0.007 -0.051,-0.032 -0.051,-0.062 0,-0.029 0.02,-0.054 0.052,-0.062 0.589,-0.136 0.988,-0.36 0.96,-0.571 -0.038,-0.279 -0.809,-0.431 -1.725,-0.339 -0.101,0.01 -0.198,0.023 -0.293,0.038 m 7.69,6.621 c -0.146,0.49 -0.353,1.117 -1.277,1.591 -0.135,0.069 -0.185,-0.044 -0.124,-0.15 0.35,-0.594 0.411,-0.742 0.513,-0.975 0.141,-0.343 0.217,-0.83 -0.066,-1.844 -0.555,-1.997 -1.715,-4.668 -2.556,-5.533 -0.813,-0.836 -2.285,-1.072 -3.617,-0.73 -0.49,0.125 -1.449,0.623 -3.227,0.223 -3.077,-0.693 -3.533,0.847 -3.709,1.518 -0.178,0.671 -0.602,2.578 -0.602,2.578 -0.141,0.778 -0.326,2.128 4.453,3.039 2.226,0.423 2.338,0.999 2.438,1.412 0.177,0.741 0.459,1.165 0.777,1.377 0.318,0.212 0,0.388 -0.353,0.423 -0.947,0.099 -4.452,-0.906 -6.526,-2.083 -1.696,-1.036 -1.724,-1.968 -1.336,-2.76 -2.562,-0.277 -4.485,0.24 -4.833,1.453 -0.599,2.08 4.576,5.634 10.469,7.418 6.184,1.871 12.544,0.564 13.251,-3.321 0.321,-1.765 -1.166,-3.071 -3.675,-3.636"
       inkscape:connector-curvature="0" />
    <g
       id="g3880"
       style="fill:#ffffff;stroke-width:5.767709732">
      <path
         id="path24150"
         style="fill:#ffffff;stroke-width:5.767709732"
         d="m 29.7137,22.1489 0.133,0 0.201,0.33 0.13,0 -0.218,-0.336 c 0.113,-0.014 0.198,-0.073 0.198,-0.209 0,-0.151 -0.089,-0.217 -0.268,-0.217 l -0.291,0 0,0.762 0.115,0 0,-0.33 z m 0,-0.098 0,-0.237 0.157,0 c 0.079,0 0.165,0.019 0.165,0.112 0,0.118 -0.086,0.125 -0.184,0.125 l -0.138,0 z"
         inkscape:connector-curvature="0" />
      <path
         id="path24152"
         style="fill:#ffffff;stroke-width:5.767709732"
         d="m 30.5965,22.0991 c 0,0.411 -0.334,0.745 -0.746,0.745 -0.412,0 -0.747,-0.334 -0.747,-0.745 0,-0.411 0.335,-0.747 0.747,-0.747 0.412,0 0.746,0.336 0.746,0.747 m -0.746,-0.614 c -0.34,0 -0.615,0.274 -0.615,0.615 0,0.337 0.275,0.611 0.615,0.611 0.338,0 0.613,-0.274 0.613,-0.611 0,-0.341 -0.275,-0.615 -0.613,-0.615"
         inkscape:connector-curvature="0" />
    </g>
    <path
       id="path24154"
       style="fill:#ffffff;stroke-width:5.767709732"
       d="m 37.3904,15.8462 c 0,-1.354 -0.029,-2.349 -0.083,-3.249 l 2.214,0 0.096,1.921 0.072,0 c 0.498,-1.424 1.678,-2.15 2.769,-2.15 0.249,0 0.395,0.009 0.601,0.056 l 0,2.408 c -0.24,-0.048 -0.464,-0.073 -0.772,-0.073 -1.218,0 -2.064,0.775 -2.293,1.934 -0.042,0.225 -0.066,0.496 -0.066,0.771 l 0,5.243 -2.559,0 0.021,-6.861 z"
       inkscape:connector-curvature="0" />
    <path
       id="path24156"
       style="fill:#ffffff;stroke-width:5.767709732"
       d="m 46.1473,18.3403 c 0.067,1.832 1.486,2.634 3.124,2.634 1.176,0 2.019,-0.185 2.791,-0.468 l 0.379,1.759 c -0.865,0.367 -2.066,0.64 -3.534,0.64 -3.285,0 -5.21,-2.027 -5.21,-5.125 0,-2.791 1.693,-5.43 4.947,-5.43 3.29,0 4.36,2.703 4.36,4.916 0,0.476 -0.042,0.856 -0.09,1.094 l -6.767,-0.02 z m 4.448,-1.781 c 0.012,-0.937 -0.396,-2.464 -2.109,-2.464 -1.575,0 -2.23,1.429 -2.345,2.464 l 4.454,0 z"
       inkscape:connector-curvature="0" />
    <path
       id="path24158"
       style="fill:#ffffff;stroke-width:5.767709732"
       d="m 61.4695,18.3237 c 0,0.268 -0.02,0.518 -0.078,0.746 -0.257,1.107 -1.163,1.819 -2.209,1.819 -1.61,0 -2.532,-1.357 -2.532,-3.214 0,-1.876 0.913,-3.329 2.56,-3.329 1.151,0 1.975,0.812 2.2,1.796 0.044,0.207 0.059,0.463 0.059,0.667 l 0,1.515 z m 2.556,-9.621 -2.556,-0.721 0,5.704 -0.042,0 c -0.453,-0.747 -1.451,-1.317 -2.836,-1.317 -2.433,0 -4.551,2.012 -4.535,5.399 0,3.108 1.913,5.167 4.329,5.167 1.459,0 2.681,-0.695 3.285,-1.828 l 0.045,0 0.115,1.601 2.28,0 c -0.047,-0.688 -0.085,-1.8 -0.085,-2.835 l 0,-11.17 z"
       inkscape:connector-curvature="0" />
    <path
       id="path24160"
       style="fill:#ffffff;stroke-width:5.767709732"
       d="m 70.7898,12.3569 c -0.771,0 -1.462,0.222 -2.041,0.58 -0.602,0.352 -1.091,0.897 -1.383,1.459 l -0.041,0 0,-4.731 -1.001,-0.296 0,13.339 1.001,0 0,-6.188 c 0,-0.411 0.031,-0.696 0.137,-0.997 0.432,-1.26 1.619,-2.292 3.054,-2.292 2.072,0 2.79,1.661 2.79,3.483 l 0,5.994 1.001,0 0,-6.103 c 0,-3.769 -2.558,-4.248 -3.517,-4.248"
       inkscape:connector-curvature="0" />
    <path
       id="path24162"
       style="fill:#ffffff;stroke-width:5.767709732"
       d="m 83.2928,20.3042 c 0,0.801 0.032,1.628 0.148,2.403 l -0.922,0 -0.148,-1.449 -0.047,0 c -0.491,0.78 -1.619,1.68 -3.228,1.68 -2.037,0 -2.986,-1.433 -2.986,-2.781 0,-2.335 2.064,-3.743 6.183,-3.699 l 0,-0.27 c 0,-1.002 -0.195,-2.998 -2.591,-2.983 -0.886,0 -1.809,0.237 -2.542,0.754 l -0.318,-0.727 c 0.926,-0.627 2.055,-0.875 2.971,-0.875 2.921,0 3.48,2.192 3.48,4 l 0,3.947 z m -1,-3.005 c -2.206,-0.063 -5.117,0.271 -5.117,2.7 0,1.454 0.96,2.108 2.015,2.108 1.687,0 2.647,-1.044 2.997,-2.029 0.072,-0.215 0.105,-0.433 0.105,-0.607 l 0,-2.172 z"
       inkscape:connector-curvature="0" />
    <path
       id="path24164"
       style="fill:#ffffff;stroke-width:5.767709732"
       d="m 87.2801,10.3589 0,2.229 2.887,0 0,0.812 -2.887,0 0,6.577 c 0,1.287 0.399,2.093 1.488,2.093 0.521,0 0.891,-0.068 1.15,-0.159 l 0.121,0.775 c -0.327,0.138 -0.786,0.243 -1.397,0.243 -0.739,0 -1.352,-0.232 -1.748,-0.716 -0.458,-0.532 -0.615,-1.381 -0.615,-2.414 l 0,-6.399 -1.708,0 0,-0.812 1.708,0 0,-1.86 1.001,-0.369 z"
       inkscape:connector-curvature="0" />
    <use
       xlink:href="#g3880"
       height="30"
       width="93"
       y="0"
       x="0"
       id="use3884"
       transform="translate(61.7183,0.0205)"
       style="fill:#ffffff;stroke-width:5.767709732" />
  </g>
  <g
     style="stroke-width:7.6471"
     transform="matrix(0.1308,0.0755,0,0.1308,33.05,25.36)"
     id="g24255"
     class="shade">
    <path
       inkscape:connector-curvature="0"
       d="m 27.49,22.94 c -0.57,-0.13 -1.17,-0.22 -1.78,-0.22 -1.05,0 -2,0.18 -2.7,0.48 -0.1,0 -0.13,0.12 -0.13,0.21 0,0 0,0.1 0,0.1 0.1,0.24 -0,0.5 -0.73,0.65 -1.01,0.22 -1.64,1.26 -2,1.6 -0.43,0.41 -1.63,0.66 -1.45,0.42 0.14,-0.19 0.68,-0.78 1.01,-1.42 0.3,-0.56 0.56,-0.73 0.92,-1.27 0.11,-0.16 0.52,-0.72 0.64,-1.16 0.13,-0.43 0.1,-0.97 0.14,-1.2 0.1,-0.32 0.38,-1.02 0.4,-1.41 0,-0.22 -0.93,0.32 -1.38,0.32 -0.45,0 -0.89,-0.27 -1.29,-0.29 -0.49,-0 -0.81,0.38 -1.26,0.31 -0.25,-0 -0.47,-0.26 -0.92,-0.28 -0.63,-0 -1.41,0.35 -2.87,0.31 -1.44,-0 -2.77,-1.82 -2.95,-2.1 -0.21,-0.33 -0.47,-0.33 -0.75,-0.1 -0.29,0.26 -0.638,0.1 -0.736,-0.12 C 9.485,17.46 8.981,16.5 8.2,16.29 c -1.08,-0.28 -1.627,0.6 -1.556,1.3 0.07,0.71 0.531,0.91 0.744,1.28 0.211,0.38 0.32,0.62 0.718,0.79 0.284,0.12 0.389,0.29 0.305,0.52 -0.07,0.21 -0.368,0.25 -0.563,0.26 -0.411,0 -0.699,-0.1 -0.91,-0.22 C 6.694,20.06 6.494,19.84 6.282,19.48 6.034,19.07 5.645,18.89 5.192,18.89 c -0.216,0 -0.419,0.1 -0.598,0.15 -0.71,0.37 -1.556,0.59 -2.466,0.59 l -1.028,0 c 1.969,5.84 7.492,10.04 14,10.04 5.19,0 9.76,-2.68 12.39,-6.73"
       style="fill:#ffffff;stroke-width:7.6471"
       id="path24257" />
    <path
       inkscape:connector-curvature="0"
       d="m 27.49,22.94 c -0.57,-0.13 -1.17,-0.22 -1.78,-0.22 -1.05,0 -2,0.19 -2.7,0.48 -0.1,0 -0.13,0.12 -0.13,0.21 0,0 0,0.1 0,0.1 0.1,0.24 -0,0.5 -0.73,0.65 -1.01,0.22 -1.64,1.26 -2,1.6 -0.43,0.41 -1.63,0.66 -1.45,0.42 0.14,-0.19 0.68,-0.78 1.01,-1.42 0.3,-0.56 0.56,-0.73 0.92,-1.27 0.11,-0.16 0.52,-0.72 0.64,-1.16 0.13,-0.43 0.1,-0.97 0.14,-1.2 0.1,-0.32 0.38,-1.01 0.4,-1.41 0,-0.22 -0.93,0.32 -1.38,0.32 -0.45,0 -0.89,-0.27 -1.29,-0.29 -0.49,-0 -0.81,0.38 -1.26,0.31 -0.25,-0 -0.47,-0.26 -0.92,-0.28 -0.63,-0 -1.41,0.35 -2.87,0.31 -1.44,-0 -2.77,-1.82 -2.95,-2.1 -0.21,-0.33 -0.47,-0.33 -0.75,-0.1 -0.29,0.26 -0.638,0.1 -0.736,-0.12 C 9.485,17.46 8.981,16.5 8.2,16.29 c -1.08,-0.28 -1.627,0.6 -1.556,1.3 0.07,0.71 0.531,0.91 0.744,1.28 0.211,0.38 0.32,0.62 0.718,0.79 0.284,0.12 0.389,0.29 0.305,0.53 -0.07,0.2 -0.368,0.24 -0.563,0.25 -0.411,0 -0.699,-0.1 -0.91,-0.22 C 6.694,20.06 6.494,19.84 6.282,19.48 6.034,19.07 5.645,18.89 5.192,18.89 c -0.216,0 -0.419,0.1 -0.598,0.15 -0.71,0.37 -1.556,0.59 -2.466,0.59 H 1.1 C 0.6,18.15 0.33,16.57 0.33,14.92 0.33,6.764 6.941,0.157 15.1,0.157 c 8.15,0 14.76,6.607 14.76,14.763 0,2.95 -0.87,5.71 -2.37,8.02"
       style="fill:#000000;stroke-width:7.6471"
       id="path24259" />
    <path
       inkscape:connector-curvature="0"
       d="m 18.35,21.58 c 0.1,0.1 0.21,0.33 0,0.64 -0.1,0.17 -0.19,0.29 -0.36,0.43 -0.21,0.16 -0.62,0.36 -1.17,0 -0.3,-0.19 -0.32,-0.25 -0.74,-0.2 -0.29,0 -0.41,-0.26 -0.3,-0.51 0.1,-0.24 0.54,-0.44 1.08,-0.12 0.25,0.14 0.63,0.44 0.96,0.17 0.14,-0.11 0.22,-0.18 0.41,-0.4 0,-0 0,-0 0,-0 0,0 0,0 0,0"
       style="fill:#000000;stroke-width:7.6471"
       id="path24261" />
    <path
       inkscape:connector-curvature="0"
       d="M 13.95,7.185 C 12.24,7.308 12.06,7.492 11.75,7.831 11.3,8.312 10.7,7.21 10.7,7.21 10.34,7.135 9.913,6.561 10.15,6.026 c 0.23,-0.53 0.65,-0.372 0.78,-0.207 0.16,0.201 0.51,0.53 0.96,0.518 0.44,-0.01 0.96,-0.106 1.68,-0.106 0.73,0 1.22,0.272 1.25,0.507 0,0.199 -0.1,0.387 -0.87,0.447 m 1.79,-2.817 h -0 c -0,0 -0.1,-0.02 -0.1,-0.04 0,-0.02 0,-0.03 0,-0.04 0.33,-0.174 0.83,-0.314 1.39,-0.37 0.17,-0.02 0.33,-0.03 0.49,-0.03 h 0.1 c 0.95,0.02 1.7,0.398 1.69,0.84 -0,0.442 -0.79,0.783 -1.73,0.763 -0.31,-0 -0.6,-0.05 -0.84,-0.124 -0,-0 -0.1,-0.03 -0.1,-0.06 0,-0.03 0,-0.05 0.1,-0.06 0.59,-0.136 0.99,-0.36 0.96,-0.571 -0,-0.279 -0.81,-0.431 -1.73,-0.339 -0.1,0.01 -0.2,0.02 -0.29,0.04 m 7.69,6.622 c -0.15,0.49 -0.35,1.12 -1.28,1.59 -0.13,0.1 -0.18,-0 -0.12,-0.15 0.35,-0.59 0.41,-0.74 0.51,-0.98 0.14,-0.34 0.22,-0.83 -0.1,-1.839 C 21.92,7.614 20.76,4.943 19.92,4.078 19.11,3.242 17.63,3.006 16.3,3.348 15.81,3.473 14.85,3.971 13.08,3.571 9.998,2.878 9.542,4.418 9.366,5.089 9.188,5.76 8.764,7.667 8.764,7.667 8.623,8.445 8.438,9.795 13.22,10.71 c 2.22,0.42 2.34,0.99 2.44,1.41 0.17,0.74 0.45,1.16 0.77,1.38 0.32,0.21 0,0.38 -0.35,0.42 -0.95,0.1 -4.45,-0.91 -6.527,-2.09 C 7.857,10.8 7.829,9.867 8.217,9.075 5.655,8.798 3.732,9.315 3.384,10.53 c -0.599,2.08 4.576,5.63 10.466,7.42 6.19,1.87 12.55,0.56 13.25,-3.33 0.33,-1.76 -1.16,-3.07 -3.67,-3.63"
       style="fill:#cc0000;stroke-width:7.6471"
       id="path24263" />
    <g
       style="fill:#ffffff;stroke-width:7.6471"
       id="g24265">
      <path
         inkscape:connector-curvature="0"
         d="m 29.71,22.15 h 0.14 l 0.2,0.33 h 0.13 l -0.22,-0.34 c 0.11,-0 0.2,-0.1 0.2,-0.21 0,-0.15 -0.1,-0.21 -0.27,-0.21 H 29.6 v 0.76 h 0.11 z m 0,-0.1 v -0.24 h 0.16 c 0.1,0 0.17,0 0.17,0.12 0,0.11 -0.1,0.12 -0.19,0.12 z"
         style="fill:#ffffff;stroke-width:7.6471"
         id="path24267" />
      <path
         inkscape:connector-curvature="0"
         d="m 30.6,22.1 c 0,0.41 -0.34,0.74 -0.75,0.74 -0.41,0 -0.75,-0.33 -0.75,-0.74 0,-0.41 0.34,-0.75 0.75,-0.75 0.41,0 0.75,0.34 0.75,0.75 m -0.75,-0.61 c -0.34,0 -0.61,0.27 -0.61,0.61 0,0.34 0.27,0.61 0.61,0.61 0.34,0 0.61,-0.27 0.61,-0.61 0,-0.34 -0.27,-0.61 -0.61,-0.61"
         style="fill:#ffffff;stroke-width:7.6471"
         id="path24269" />
    </g>
    <path
       inkscape:connector-curvature="0"
       d="m 37.39,15.85 c 0,-1.36 -0,-2.35 -0.1,-3.25 h 2.21 l 0.1,1.92 h 0.1 c 0.5,-1.43 1.68,-2.15 2.77,-2.15 0.25,0 0.39,0 0.6,0.1 v 2.41 c -0.24,-0.1 -0.46,-0.1 -0.77,-0.1 -1.22,0 -2.07,0.77 -2.3,1.93 -0,0.23 -0.1,0.5 -0.1,0.77 v 5.25 h -2.56 z"
       style="fill:#ffffff;stroke-width:7.6471"
       id="path24271" />
    <path
       inkscape:connector-curvature="0"
       d="m 46.15,18.34 c 0.1,1.83 1.48,2.63 3.12,2.63 1.18,0 2.02,-0.18 2.79,-0.46 l 0.38,1.76 c -0.86,0.36 -2.06,0.64 -3.53,0.64 -3.29,0 -5.21,-2.03 -5.21,-5.13 0,-2.79 1.69,-5.43 4.94,-5.43 3.29,0 4.36,2.7 4.36,4.92 0,0.47 -0,0.85 -0.1,1.09 z m 4.45,-1.78 c 0,-0.94 -0.4,-2.46 -2.11,-2.46 -1.58,0 -2.23,1.42 -2.35,2.46 z"
       style="fill:#ffffff;stroke-width:7.6471"
       id="path24273" />
    <path
       inkscape:connector-curvature="0"
       d="m 61.47,18.32 c 0,0.27 -0,0.52 -0.1,0.75 -0.26,1.11 -1.16,1.82 -2.21,1.82 -1.61,0 -2.53,-1.36 -2.53,-3.22 0,-1.87 0.91,-3.32 2.56,-3.32 1.15,0 1.98,0.81 2.2,1.79 0,0.21 0.1,0.46 0.1,0.67 z M 64.03,8.703 61.47,7.982 v 5.708 h -0 c -0.46,-0.75 -1.45,-1.32 -2.84,-1.32 -2.43,0 -4.55,2.01 -4.53,5.4 0,3.11 1.91,5.16 4.33,5.16 1.45,0 2.68,-0.69 3.28,-1.82 h 0 l 0.11,1.6 h 2.28 c -0,-0.69 -0.1,-1.8 -0.1,-2.84 z"
       style="fill:#ffffff;stroke-width:7.6471"
       id="path24275" />
    <path
       inkscape:connector-curvature="0"
       d="m 70.79,12.36 c -0.77,0 -1.46,0.22 -2.04,0.58 -0.6,0.35 -1.09,0.89 -1.38,1.46 h -0.1 V 9.665 l -1,-0.296 V 22.71 h 1 v -6.19 c 0,-0.41 0,-0.7 0.14,-1 0.43,-1.26 1.62,-2.29 3.06,-2.29 2.07,0 2.79,1.66 2.79,3.48 v 6 h 1 V 16.6 c 0,-3.76 -2.56,-4.24 -3.52,-4.24"
       style="fill:#ffffff;stroke-width:7.6471"
       id="path24277" />
    <path
       inkscape:connector-curvature="0"
       d="m 83.29,20.3 c 0,0.81 0,1.63 0.15,2.41 h -0.92 l -0.15,-1.45 h -0.1 c -0.49,0.78 -1.62,1.68 -3.22,1.68 -2.04,0 -2.99,-1.43 -2.99,-2.78 0,-2.34 2.06,-3.75 6.18,-3.7 v -0.27 c 0,-1 -0.19,-3 -2.59,-2.98 -0.88,0 -1.81,0.23 -2.54,0.75 l -0.32,-0.73 c 0.93,-0.62 2.06,-0.87 2.97,-0.87 2.92,0 3.48,2.19 3.48,4 z m -1,-3 c -2.2,-0.1 -5.11,0.27 -5.11,2.7 0,1.45 0.96,2.11 2.01,2.11 1.69,0 2.65,-1.05 3,-2.03 0.1,-0.22 0.1,-0.43 0.1,-0.61 z"
       style="fill:#ffffff;stroke-width:7.6471"
       id="path24279" />
    <path
       inkscape:connector-curvature="0"
       d="m 87.28,10.36 v 2.23 h 2.89 v 0.81 h -2.89 v 6.58 c 0,1.28 0.4,2.09 1.49,2.09 0.52,0 0.89,-0.1 1.15,-0.16 l 0.12,0.78 c -0.33,0.13 -0.79,0.24 -1.4,0.24 -0.74,0 -1.35,-0.23 -1.75,-0.72 -0.45,-0.53 -0.61,-1.38 -0.61,-2.41 v -6.4 h -1.71 v -0.81 h 1.71 v -1.86 z"
       style="fill:#ffffff;stroke-width:7.6471"
       id="path24281" />
    <use
       style="fill:#ffffff;stroke-width:7.6471"
       transform="translate(61.72,0.0205)"
       id="use24283"
       x="0"
       y="0"
       width="93"
       height="30"
       xlink:href="#g3880" />
  </g>
  <g
     id="g24285"
     transform="matrix(0.2364,-0.1365,0.273,0.1576,46.91,8.438)"
     style="stroke-width:3.6632">
    <path
       id="path24287"
       style="fill:#ffffff;stroke-width:3.6632"
       d="m 27.49,22.94 c -0.57,-0.13 -1.17,-0.22 -1.78,-0.22 -1.05,0 -2,0.18 -2.7,0.48 -0.1,0 -0.13,0.12 -0.13,0.21 0,0 0,0.1 0,0.1 0.1,0.24 -0,0.5 -0.73,0.65 -1.01,0.22 -1.64,1.26 -2,1.6 -0.43,0.41 -1.63,0.66 -1.45,0.42 0.14,-0.19 0.68,-0.78 1.01,-1.42 0.3,-0.56 0.56,-0.73 0.92,-1.27 0.11,-0.16 0.52,-0.72 0.64,-1.16 0.13,-0.43 0.1,-0.97 0.14,-1.2 0.1,-0.32 0.38,-1.02 0.4,-1.41 0,-0.22 -0.93,0.32 -1.38,0.32 -0.45,0 -0.89,-0.27 -1.29,-0.29 -0.49,-0 -0.81,0.38 -1.26,0.31 -0.25,-0 -0.47,-0.26 -0.92,-0.28 -0.63,-0 -1.41,0.35 -2.87,0.31 -1.44,-0 -2.77,-1.82 -2.95,-2.1 -0.21,-0.33 -0.47,-0.33 -0.75,-0.1 -0.29,0.26 -0.638,0.1 -0.736,-0.12 C 9.485,17.46 8.981,16.5 8.2,16.29 c -1.08,-0.28 -1.627,0.6 -1.556,1.3 0.07,0.71 0.531,0.91 0.744,1.28 0.211,0.38 0.32,0.62 0.718,0.79 0.284,0.12 0.389,0.29 0.305,0.52 -0.07,0.21 -0.368,0.25 -0.563,0.26 -0.411,0 -0.699,-0.1 -0.91,-0.22 C 6.694,20.06 6.494,19.84 6.282,19.48 6.034,19.07 5.645,18.89 5.192,18.89 c -0.216,0 -0.419,0.1 -0.598,0.15 -0.71,0.37 -1.556,0.59 -2.466,0.59 l -1.028,0 c 1.969,5.84 7.492,10.04 14,10.04 5.19,0 9.76,-2.68 12.39,-6.73"
       inkscape:connector-curvature="0" />
    <path
       id="path24289"
       style="fill:#000000;stroke-width:3.6632"
       d="m 27.49,22.94 c -0.57,-0.13 -1.17,-0.22 -1.78,-0.22 -1.05,0 -2,0.19 -2.7,0.48 -0.1,0 -0.13,0.12 -0.13,0.21 0,0 0,0.1 0,0.1 0.1,0.24 -0,0.5 -0.73,0.65 -1.01,0.22 -1.64,1.26 -2,1.6 -0.43,0.41 -1.63,0.66 -1.45,0.42 0.14,-0.19 0.68,-0.78 1.01,-1.42 0.3,-0.56 0.56,-0.73 0.92,-1.27 0.11,-0.16 0.52,-0.72 0.64,-1.16 0.13,-0.43 0.1,-0.97 0.14,-1.2 0.1,-0.32 0.38,-1.01 0.4,-1.41 0,-0.22 -0.93,0.32 -1.38,0.32 -0.45,0 -0.89,-0.27 -1.29,-0.29 -0.49,-0 -0.81,0.38 -1.26,0.31 -0.25,-0 -0.47,-0.26 -0.92,-0.28 -0.63,-0 -1.41,0.35 -2.87,0.31 -1.44,-0 -2.77,-1.82 -2.95,-2.1 -0.21,-0.33 -0.47,-0.33 -0.75,-0.1 -0.29,0.26 -0.638,0.1 -0.736,-0.12 C 9.485,17.46 8.981,16.5 8.2,16.29 c -1.08,-0.28 -1.627,0.6 -1.556,1.3 0.07,0.71 0.531,0.91 0.744,1.28 0.211,0.38 0.32,0.62 0.718,0.79 0.284,0.12 0.389,0.29 0.305,0.53 -0.07,0.2 -0.368,0.24 -0.563,0.25 -0.411,0 -0.699,-0.1 -0.91,-0.22 C 6.694,20.06 6.494,19.84 6.282,19.48 6.034,19.07 5.645,18.89 5.192,18.89 c -0.216,0 -0.419,0.1 -0.598,0.15 -0.71,0.37 -1.556,0.59 -2.466,0.59 H 1.1 C 0.6,18.15 0.33,16.57 0.33,14.92 0.33,6.764 6.941,0.157 15.1,0.157 c 8.15,0 14.76,6.607 14.76,14.763 0,2.95 -0.87,5.71 -2.37,8.02"
       inkscape:connector-curvature="0" />
    <path
       id="path24291"
       style="fill:#000000;stroke-width:3.6632"
       d="m 18.35,21.58 c 0.1,0.1 0.21,0.33 0,0.64 -0.1,0.17 -0.19,0.29 -0.36,0.43 -0.21,0.16 -0.62,0.36 -1.17,0 -0.3,-0.19 -0.32,-0.25 -0.74,-0.2 -0.29,0 -0.41,-0.26 -0.3,-0.51 0.1,-0.24 0.54,-0.44 1.08,-0.12 0.25,0.14 0.63,0.44 0.96,0.17 0.14,-0.11 0.22,-0.18 0.41,-0.4 0,-0 0,-0 0,-0 0,0 0,0 0,0"
       inkscape:connector-curvature="0" />
    <path
       id="path24293"
       style="fill:#cc0000;stroke-width:3.6632"
       d="M 13.95,7.185 C 12.24,7.308 12.06,7.492 11.75,7.831 11.3,8.312 10.7,7.21 10.7,7.21 10.34,7.135 9.913,6.561 10.15,6.026 c 0.23,-0.53 0.65,-0.372 0.78,-0.207 0.16,0.201 0.51,0.53 0.96,0.518 0.44,-0.01 0.96,-0.106 1.68,-0.106 0.73,0 1.22,0.272 1.25,0.507 0,0.199 -0.1,0.387 -0.87,0.447 m 1.79,-2.817 h -0 c -0,0 -0.1,-0.02 -0.1,-0.04 0,-0.02 0,-0.03 0,-0.04 0.33,-0.174 0.83,-0.314 1.39,-0.37 0.17,-0.02 0.33,-0.03 0.49,-0.03 h 0.1 c 0.95,0.02 1.7,0.398 1.69,0.84 -0,0.442 -0.79,0.783 -1.73,0.763 -0.31,-0 -0.6,-0.05 -0.84,-0.124 -0,-0 -0.1,-0.03 -0.1,-0.06 0,-0.03 0,-0.05 0.1,-0.06 0.59,-0.136 0.99,-0.36 0.96,-0.571 -0,-0.279 -0.81,-0.431 -1.73,-0.339 -0.1,0.01 -0.2,0.02 -0.29,0.04 m 7.69,6.622 c -0.15,0.49 -0.35,1.12 -1.28,1.59 -0.13,0.1 -0.18,-0 -0.12,-0.15 0.35,-0.59 0.41,-0.74 0.51,-0.98 0.14,-0.34 0.22,-0.83 -0.1,-1.839 C 21.92,7.614 20.76,4.943 19.92,4.078 19.11,3.242 17.63,3.006 16.3,3.348 15.81,3.473 14.85,3.971 13.08,3.571 9.998,2.878 9.542,4.418 9.366,5.089 9.188,5.76 8.764,7.667 8.764,7.667 8.623,8.445 8.438,9.795 13.22,10.71 c 2.22,0.42 2.34,0.99 2.44,1.41 0.17,0.74 0.45,1.16 0.77,1.38 0.32,0.21 0,0.38 -0.35,0.42 -0.95,0.1 -4.45,-0.91 -6.527,-2.09 C 7.857,10.8 7.829,9.867 8.217,9.075 5.655,8.798 3.732,9.315 3.384,10.53 c -0.599,2.08 4.576,5.63 10.466,7.42 6.19,1.87 12.55,0.56 13.25,-3.33 0.33,-1.76 -1.16,-3.07 -3.67,-3.63"
       inkscape:connector-curvature="0" />
  </g>
  <path
     style="fill:url(#linearGradient24323);fill-opacity:1;stroke-width:1"
     d="M 10.26,88.49 29.9,77.82 48.34,88.51 28.7,99.18 Z"
     id="path24315"
     inkscape:connector-curvature="0"
     sodipodi:nodetypes="ccccc"
     class="icon-shadow" />
</svg>
