<?xml version="1.0" encoding="UTF-8" standalone="no"?>
<svg  id="icon-ribbon" xmlns="http://www.w3.org/2000/svg"    viewBox="0 0 10 10">
  <path class="fill-darkest-red"  d="M 5.99,5.92 5.04,7.82 6,9.82 6.9,8.44 8.33,8.51 6.95,5.63"     />
  <path class="fill-shade"  d="M 5.04,7.82 6,9.82 6.9,8.44 5.87,6.18"    />
  <path   class="fill-dark-red" d="M 3.22,5.37 1.67,8.61 3.12,8.41 4.04,9.82 5.99,5.92"  />
  <path  class="fill-mid-red" d="M 6.82,6 C 6.68,6.1 6.07,5.87 5.91,5.92 5.75,5.98 5.43,6.54 5.26,6.55 5.09,6.56 4.68,6.05 4.51,6.03 4.35,5.99 3.79,6.31 3.63,6.24 3.48,6.16 3.38,5.53 3.25,5.41 3.12,5.3 2.48,5.3 2.38,5.16 2.29,5.02 2.52,4.42 2.46,4.25 2.41,4.09 1.85,3.77 1.84,3.6 1.82,3.43 2.33,3.02 2.36,2.85 2.39,2.69 2.07,2.12 2.14,1.97 2.22,1.82 2.86,1.72 2.97,1.59 3.08,1.46 3.08,0.818 3.22,0.724 3.36,0.624 3.97,0.861 4.13,0.803 4.29,0.746 4.62,0.186 4.79,0.179 4.95,0.164 5.36,0.667 5.53,0.696 5.69,0.732 6.26,0.416 6.41,0.487 6.56,0.559 6.66,1.2 6.79,1.31 6.92,1.42 7.56,1.43 7.66,1.56 7.76,1.7 7.53,2.31 7.58,2.47 7.64,2.63 8.2,2.96 8.2,3.13 8.22,3.29 7.71,3.7 7.69,3.87 7.65,4.03 7.97,4.6 7.89,4.75 7.82,4.9 7.18,5 7.08,5.13 6.96,5.26 6.96,5.91 6.82,6 Z"  />
  <path  class="fill-shade"   d="M 3.22,5.37 1.67,8.61 3.12,8.41 4.49,6.04"  />
  <path   class="fill-shade-weak" d="M 6.66,5.76 C 6.52,5.86 5.99,5.65 5.83,5.71 5.67,5.77 5.41,6.28 5.24,6.29 5.07,6.3 4.62,5.76 4.45,5.73 4.29,5.69 5.27,0.892 5.44,0.92 5.6,0.949 6.17,0.633 6.32,0.705 6.48,0.784 6.57,1.31 6.7,1.42 6.83,1.53 7.46,1.54 7.55,1.68 7.65,1.82 7.38,2.34 7.44,2.5 7.5,2.67 8.03,2.99 8.04,3.15 8.05,3.32 7.61,3.7 7.57,3.87 7.54,4.04 7.74,4.5 7.67,4.66 7.6,4.81 7.02,4.83 6.91,4.96 6.8,5.09 6.8,5.67 6.66,5.76 Z" />
  <path class="fill-red"  d="M 3.23,2.33 C 2.66,3.32 3,4.58 3.99,5.15 4.98,5.72 6.24,5.38 6.81,4.39 7.38,3.41 7.04,2.15 6.05,1.57 5.07,1 3.81,1.34 3.23,2.33 Z"     />
  <path   class="fill-shade-weak" d="M 5.99,1.89 C 6.83,2.37 7.12,3.45 6.63,4.29 6.14,5.13 5.07,5.42 4.23,4.94 Z"  />
</svg>
