<?xml version="1.0"?>

<svg xmlns:dc="http://purl.org/dc/elements/1.1/" xmlns:cc="http://creativecommons.org/ns#" xmlns:rdf="http://www.w3.org/1999/02/22-rdf-syntax-ns#" xmlns:svg="http://www.w3.org/2000/svg" xmlns="http://www.w3.org/2000/svg" id="svg4" version="1.1" class="icon icon-ribbon stroked" viewBox="0 0 144 144" height="144" width="144">
  <metadata id="metadata10">
    <rdf:rdf>
      <cc:work rdf:about="">
        <dc:format>image/svg+xml</dc:format>
        <dc:type rdf:resource="http://purl.org/dc/dcmitype/StillImage"></dc:type>
        <dc:title></dc:title>
      </cc:work>
    </rdf:rdf>
  </metadata>
  <defs id="defs8"></defs>
  <path id="path7908" d="m 72.428015,111.2598 13.284574,27.8927 12.679988,-19.11802 20.016733,0.81701 L 99.160566,80.769001 74.609584,77.458199 Z" style="fill:#750000;stroke-width:1.63401902;fill-opacity:1"></path>
  <path id="path7910" d="M 47.149741,77.22318 25.58069,122.3221 45.875206,119.54427 58.555194,139.1525 85.712589,84.821368" style="stroke-width:1.63401902;fill:#820000"></path>
  <path style="fill:#630000;fill-opacity:1;stroke-width:1.63401902" d="M 72.428015,111.2598 85.712589,139.1525 98.392577,120.03448 77.515621,76.926013 Z" id="path7925"></path>
  <path style="fill:#8e0000;fill-opacity:1;stroke-width:1.63401902" d="M 63.054103,77.95055 45.875206,119.54427 58.555194,139.1525 85.712589,84.821368" id="path7914"></path>
  <path id="path2" d="M 97.314124,86.014202 C 95.369642,87.337757 86.954444,84.1024 84.715838,84.870389 82.509912,85.654718 77.918319,93.432648 75.565332,93.59605 73.228684,93.775792 67.558638,86.74951 65.221991,86.324666 62.934365,85.88348 55.074733,90.311672 52.950509,89.28224 50.826284,88.269148 49.437368,79.363745 47.656287,77.827767 45.858866,76.291789 36.839081,76.193748 35.515526,74.249265 34.191971,72.304783 37.427328,63.905925 36.626659,61.667319 35.87501,59.445053 28.09708,54.85346 27.933678,52.516813 c -0.179742,-2.352988 6.830199,-8.023034 7.255044,-10.343341 0.457525,-2.303966 -3.987006,-10.163598 -2.957574,-12.287823 1.013092,-2.124224 9.934835,-3.51314 11.454473,-5.294221 1.535978,-1.797421 1.634019,-10.817206 3.562161,-12.140761 1.944483,-1.323556 10.376021,1.911802 12.598287,1.127473 2.222266,-0.767989 6.813859,-8.5459195 9.150506,-8.7093214 2.352987,-0.1797421 8.023033,6.8301994 10.327,7.2713844 2.320307,0.441185 10.179939,-3.9870062 12.304163,-2.9739144 2.124225,1.0294324 3.513141,9.9348354 5.294222,11.4708134 1.797421,1.535978 10.81721,1.617679 12.14076,3.562161 1.3399,1.944483 -1.9118,10.359681 -1.14381,12.598287 0.78433,2.222266 8.56226,6.813859 8.72566,9.150506 0.17974,2.352988 -6.84654,8.023033 -7.27139,10.327 -0.44118,2.320307 3.98701,10.179939 2.97392,12.304163 -1.02943,2.107885 -9.93484,3.513141 -11.47081,5.294222 -1.535982,1.797421 -1.634023,10.817206 -3.578506,12.140761 z" style="stroke-width:1.63401902;fill:#ad0000;fill-opacity:1"></path>
  <path style="fill:#b70000;fill-opacity:1;stroke-width:1.64026225" d="m 97.120566,86.154735 c -1.951912,1.328613 -10.399262,-1.919106 -12.646422,-1.148183 -2.214354,0.787325 -6.823491,8.594973 -9.185468,8.759 -2.345575,0.180429 -8.037284,-6.872699 -10.382859,-7.299166 -2.296367,-0.442873 11.842692,-74.910773 14.155461,-74.467902 2.329173,0.44287 10.218836,-4.0022402 12.351175,-2.9852776 2.132341,1.0333656 3.526563,9.9727936 5.31445,11.5146396 1.804289,1.541847 10.858537,1.623861 12.187137,3.575772 1.34502,1.951912 -1.9191,10.399262 -1.14817,12.646421 0.78733,2.230757 8.59496,6.839893 8.759,9.185468 0.18042,2.361979 -6.87271,8.053687 -7.29918,10.366457 -0.44286,2.329172 4.00225,10.218834 2.98529,12.351174 -1.03336,2.115939 -9.97281,3.526563 -11.51464,5.314449 -1.541849,1.804289 -1.640265,10.858537 -3.592178,12.187148 z" id="path7927"></path>
  <path id="path7906" d="m 47.402611,34.869451 c -7.933163,13.74064 -3.240324,31.299188 10.500316,39.23235 13.754791,7.941333 31.321508,3.234345 39.254668,-10.506296 C 105.09076,49.854866 100.38377,32.288149 86.628981,24.346816 72.888342,16.413654 55.335772,21.128811 47.402611,34.869451 Z" style="fill:#d00000;fill-opacity:1;stroke-width:1.63401902"></path>
  <path style="fill:#be0000;fill-opacity:1;stroke-width:1.71466959" d="M 85.736467,28.686447 C 97.467554,35.459391 101.48428,50.450001 94.71133,62.181086 87.938387,73.912169 72.947778,77.928888 61.216695,71.155944 Z" id="path7912"></path>
</svg>
