<?xml version="1.0"?>

<svg xmlns:dc="http://purl.org/dc/elements/1.1/" xmlns:cc="http://creativecommons.org/ns#" xmlns:rdf="http://www.w3.org/1999/02/22-rdf-syntax-ns#" xmlns:svg="http://www.w3.org/2000/svg" xmlns="http://www.w3.org/2000/svg" xmlns:sodipodi="http://sodipodi.sourceforge.net/DTD/sodipodi-0.dtd" xmlns:inkscape="http://www.inkscape.org/namespaces/inkscape" width="70.367" viewBox="0 0 70.367 69.811" height="69.811" version="1.1" id="rect7937" sodipodi:docname="scalable_flat2.svg" inkscape:version="0.92+devel 15147">
  <metadata id="metadata18">
    <rdf:rdf>
      <cc:work rdf:about="">
        <dc:format>image/svg+xml</dc:format>
        <dc:type rdf:resource="http://purl.org/dc/dcmitype/StillImage"></dc:type>
        <dc:title></dc:title>
      </cc:work>
    </rdf:rdf>
  </metadata>
  <defs id="defs16"></defs>
  <sodipodi:namedview pagecolor="#ffffff" bordercolor="#666666" borderopacity="1" objecttolerance="10" gridtolerance="10" guidetolerance="10" inkscape:pageopacity="0" inkscape:pageshadow="2" inkscape:window-width="1920" inkscape:window-height="1053" id="namedview14" showgrid="false" inkscape:measure-start="0,0" inkscape:measure-end="0,0" inkscape:zoom="1" inkscape:cx="35.47" inkscape:cy="35.19" inkscape:window-x="0" inkscape:window-y="27" inkscape:window-maximized="1" inkscape:current-layer="rect7937"></sodipodi:namedview>
  <rect ry="4.2" rx="4.2" y="8.5" x="22" height="40" width="40" id="rect7902" style="fill:#70c7db;fill-opacity:1;stroke:none;stroke-width:1.5"></rect>
  <path style="fill:#98d7e5;fill-opacity:1;stroke:none;stroke-width:1.5" d="m 26.2,8.5 h 31.6 c 1.16,0 2.22,0.468 2.97,1.226 C 61.53,10.49 23.98,48.03 23.23,47.27 22.47,46.52 22,45.47 22,44.3 V 12.7 c 0,-2.33 1.87,-4.2 4.2,-4.2 z" id="rect7952" inkscape:connector-curvature="0" sodipodi:nodetypes="sccccss"></path>
  <g id="rect7955">
    <path style="color:#000000;font-style:normal;font-variant:normal;font-weight:normal;font-stretch:normal;font-size:medium;line-height:normal;font-family:sans-serif;font-variant-ligatures:normal;font-variant-position:normal;font-variant-caps:normal;font-variant-numeric:normal;font-variant-alternates:normal;font-variant-east-asian:normal;font-feature-settings:normal;text-indent:0;text-align:start;text-decoration:none;text-decoration-line:none;text-decoration-style:solid;text-decoration-color:#000000;letter-spacing:normal;word-spacing:normal;text-transform:none;writing-mode:lr-tb;direction:ltr;text-orientation:mixed;dominant-baseline:auto;baseline-shift:baseline;text-anchor:start;white-space:normal;shape-padding:0;clip-rule:nonzero;display:inline;overflow:visible;visibility:visible;opacity:1;isolation:auto;mix-blend-mode:normal;color-interpolation:sRGB;color-interpolation-filters:linearRGB;solid-color:#000000;solid-opacity:1;fill:#d9f5fb;fill-opacity:1;fill-rule:nonzero;stroke:none;stroke-width:1.5;stroke-linecap:butt;stroke-linejoin:miter;stroke-miterlimit:4;stroke-dasharray:none;stroke-dashoffset:0;stroke-opacity:1;filter-blend-mode:normal;filter-gaussianBlur-deviation:0;color-rendering:auto;image-rendering:auto;shape-rendering:auto;text-rendering:auto;enable-background:accumulate" d="M 26.2 7.75 C 23.47 7.75 21.25 9.97 21.25 12.7 L 21.25 44.3 C 21.25 47.03 23.47 49.25 26.2 49.25 L 57.8 49.25 C 60.53 49.25 62.75 47.03 62.75 44.3 L 62.75 12.7 C 62.75 9.97 60.53 7.75 57.8 7.75 L 26.2 7.75 z M 26.2 9.25 L 57.8 9.25 C 59.73 9.25 61.25 10.77 61.25 12.7 L 61.25 44.3 C 61.25 46.23 59.73 47.75 57.8 47.75 L 26.2 47.75 C 24.27 47.75 22.75 46.23 22.75 44.3 L 22.75 12.7 C 22.75 10.77 24.27 9.25 26.2 9.25 z " id="path7963"></path>
  </g>
  <rect style="fill:#a3dbe8;fill-opacity:1;stroke:#d9f5fb" id="rect7891" width="27" height="27" x="8.7" y="34" rx="2.8" ry="2.8"></rect>
  <path style="color:#000000;font-style:normal;font-variant:normal;font-weight:normal;font-stretch:normal;font-size:medium;line-height:normal;font-family:sans-serif;font-variant-ligatures:normal;font-variant-position:normal;font-variant-caps:normal;font-variant-numeric:normal;font-variant-alternates:normal;font-variant-east-asian:normal;font-feature-settings:normal;text-indent:0;text-align:start;text-decoration:none;text-decoration-line:none;text-decoration-style:solid;text-decoration-color:#000000;letter-spacing:normal;word-spacing:normal;text-transform:none;writing-mode:lr-tb;direction:ltr;text-orientation:mixed;dominant-baseline:auto;baseline-shift:baseline;text-anchor:start;white-space:normal;shape-padding:0;clip-rule:nonzero;display:inline;overflow:visible;visibility:visible;opacity:1;isolation:auto;mix-blend-mode:normal;color-interpolation:sRGB;color-interpolation-filters:linearRGB;solid-color:#000000;solid-opacity:1;fill:#d9f5fb;fill-opacity:1;fill-rule:nonzero;stroke:none;stroke-width:0.9618;stroke-linecap:round;stroke-linejoin:miter;stroke-miterlimit:4;stroke-dasharray:1.9235, 1.92349999999999999;stroke-dashoffset:0;stroke-opacity:1;color-rendering:auto;image-rendering:auto;shape-rendering:auto;text-rendering:auto;enable-background:accumulate" d="m 21.5,34.57 v 0.84 l 0.21,0.4 h 0.44 l 0.3,-0.34 v -0.11 -0.84 z m 0.31,2.32 -0.3,0.34 v 0.1 1.93 l 0.21,0.4 0.44,0.1 0.3,-0.35 v -0.1 -1.93 l -0.21,-0.39 z m 0,3.85 -0.3,0.34 v 0.1 1.92 l 0.21,0.41 0.44,0.1 0.3,-0.35 v -0.11 -1.92 l -0.21,-0.39 z m 0.7,4.24 -0.95,0.1 v 0.27 0 0 l 0.23,0.76 v 0 0 l 0.37,0.68 v 0 0 l 0.1,0.1 0.41,0.17 0.38,-0.24 v -0.45 l -0.1,-0.1 v 0 L 22.62,45.66 22.42,45 Z m 1.88,2.64 -0.46,0.85 0.28,0.15 h 0.1 v 0 l 0.76,0.23 h 0.1 v 0 l 0.8,0.1 0.1,-0.96 -0.75,-0.1 -0.66,-0.2 z m 3.53,0.42 -0.39,0.21 -0.1,0.44 0.34,0.3 h 0.1 1.93 l 0.39,-0.21 0.1,-0.44 -0.35,-0.3 h -0.1 z m 3.85,0 -0.39,0.21 -0.1,0.44 0.34,0.3 h 0.1 1.93 l 0.39,-0.21 0.1,-0.44 -0.35,-0.3 h -0.1 z" id="path7945" inkscape:connector-curvature="0"></path>
  <path style="fill:#004153;fill-opacity:1;stroke:none;stroke-width:1.6506" d="m 54.34,15.53 -11.75,3.35 2.93,2.95 -7.47,7.48 2.68,2.68 7.48,-7.47 2.8,2.77 z" id="path7906" inkscape:connector-curvature="0"></path>
  <path inkscape:connector-curvature="0" id="path7935" d="m 54.34,15.53 -11.75,3.35 2.93,2.95 -7.47,7.48 1.34,1.34 z" style="fill:#007a87;fill-opacity:1;stroke:none;stroke-width:1.6506" sodipodi:nodetypes="cccccc"></path>
</svg>
