<svg xmlns="http://www.w3.org/2000/svg" viewBox="0 0 10 10">
<defs>    <linearGradient id="white-linear"><stop offset="0%" stop-color="#fff"/><stop offset="70%" stop-color="#ddd" stop-opacity=".95" /><stop offset="100%"  stop-color="#ccc"/></linearGradient>
</defs><path class="icon-shadow" d="M 0.5,6.825 V 6.25 L 5,3.64 9.5,6.25 v 0.6 L 5,9.42 Z"  />
<g class="rhel-slice">
  <path class="fill-mid-red" d="M.5 6.247v-.576L5 3.06l4.5 2.608v.578L5 8.843z"/>
  <path class="fill-dark-red" d="M.5 5.67v.578L5 8.845v-.578z"  />
  <path class="fill-red" d="M9.5 5.67v.58L5 8.844v-.578z"  />
</g>
<rect x="2" y="5.7" width="6" height=".3" rx=".6"  ry=".6"  class="icon-shadow" /> 
<g class="cloud public" style="fill:url(#white-linear);">
<path d="M4.632 5.37a1.473 1.473 0 0 1-.376-1.622A1.48 1.48 0 1 1 6.639 5.37"/>
<path d="M 3.117,5.37 A 0.907,0.907 0 0 1 3.151,4.106 0.916,0.916 0 0 1 4.423,4.096 0.92,0.92 0 0 1 4.473,5.37"/>
<path d="M 5.457,5.37 C 5.356,4.846 5.58,4.313 6.025,4.018 a 1.314,1.314 0 0 1 1.466,0.01 c 0.444,0.296 0.665,0.82 0.562,1.343"/>
<path d="M3.364 5.37a.79.79 0 0 1 .38-.729.809.809 0 0 1 .828-.008.81.81 0 0 1 .389.737"/>
<path d="M1.987 5.317a.915.915 0 0 1 .9-.711c.45.01.829.32.896.764H2.044c-.046 0-.07 0-.057-.057z"/>
</g>
</svg>
