<?xml version="1.0" encoding="UTF-8" standalone="no"?>
<svg xmlns="http://www.w3.org/2000/svg" viewBox="0 0 10 10">
<path class="icon-shadow" d="M 0.5,6.825 V 6.25 L 5,3.64 9.5,6.25 v 0.6 L 5,9.42 Z"  />

<g class="rhel-slice">
<path class="fill-mid-red" d="M 0.5,6.247 V 5.671 L 3.1,4.16 C 2.981,4.29 2.93,4.447 2.89,4.61 2.404,4.603 2.059,4.962 1.987,5.317 L 2.07,5.372 8.053,5.371 C 8.081,5.182 8.1,4.996 8.039,4.817 L 9.5,5.668 V 6.246 L 5,8.843 Z" />
<path  class="fill-dark-red" d="M.5 5.67v.578L5 8.845v-.578z"  />
<path class="fill-red" d="M9.5 5.67v.58L5 8.844v-.578z"   />
</g>

<path  class="icon-shadow" d="M 2.6,5.7 H 7.4 C 8.6,5.7 8.3,6 7.4,6 H 2.6 c -1,0 -0.5,-0.3 0,-0.3 z" />

<g>
<path d="M 5.71,2.81 C 5.04,2.81 4.36,3.27 4.2,3.94 4.52,4.1 4.68,4.38 4.7,4.73 4.88,4.9 4.98,5.12 4.96,5.37 h 0.5 C 5.36,4.85 5.58,4.31 6.03,4.02 6.34,3.81 6.72,3.76 7.07,3.85 6.87,3.27 6.33,2.81 5.71,2.81 Z"
class="fill-grey" />
<path d="m 3.81,3.84 c -0.57,0 -0.84,0.37 -0.92,0.77 0.24,0 0.46,0.1 0.62,0.26 C 3.816,4.353 4.509,4.496 4.7,4.74 4.69,4.14 4.19,3.84 3.81,3.84 Z"
class="fill-light-grey" />
<path d="m 4.16,4.52 c -0.34,0 -0.56,0.19 -0.65,0.35 0.14,0.09 0.24,0.3 0.27,0.5 H 4.96 C 5.005,4.862 4.54,4.52 4.16,4.52 Z"
class="fill-lighter-grey" />
<path class="fill-lightest-grey" d="m 1.987,5.317 c 0.1,-0.419 0.47,-0.715 0.9,-0.711 0.45,0.01 0.829,0.32 0.896,0.764 H 2.044 c -0.05,0 -0.07,0 -0.06,-0.06 z m 3.47,0.05 C 5.356,4.846 5.58,4.313 6.025,4.018 6.47,3.723 7.05,3.727 7.491,4.028 7.935,4.324 8.156,4.848 8.053,5.371 Z" />
  </g>
</svg>
