<svg xmlns="http://www.w3.org/2000/svg" xmlns:xlink="http://www.w3.org/1999/xlink" viewBox="0 0 10 10"  >

  <defs>
  <linearGradient id="a" x2="1" gradientUnits="objectBoundingBox"><stop offset="0" stop-color="#0088ce"/>
  <stop offset=".6" stop-color="#456" stop-opacity=".95"/><stop offset="1" stop-color="#123"/></linearGradient>
  <linearGradient id="c" xlink:href="#a"><stop offset="0" stop-color="#004153"/><stop offset="1" stop-color="#0088ce"/></linearGradient>
  <clipPath id="d"><path d="M7.365.492a1.48 1.48 0 0 0-1.377.947 1.473 1.473 0 0 0-.06.191.916.916 0 0 0-1.046.166.907.907 0 0 0-.26.5.915.915 0 0 0-.9.707c-.01.051.014.053.059.053h6.008a1.311 1.311 0 0 0-.567-1.338 1.314 1.314 0 0 0-.443-.193A1.48 1.48 0 0 0 7.365.492z"/></clipPath>
  </defs>

<path d="M.5 6.825V6.25L5 3.64l4.5 2.61v.6L5 9.42z" opacity=".3" filter="url(#b)"/>
<g class="rhel-slice">
  <path fill="#a00" d="M.5 6.247v-.576L5 3.06l4.5 2.608v.578L5 8.843z"/>
  <path d="M.5 5.67v.578L5 8.845v-.578z" fill="#820000"/>
  <path d="M9.5 5.67v.58L5 8.844v-.578z" fill="#c00"/>
</g>
<rect x="2" y="5.7" width="6" height=".3" rx=".6" ry=".6" filter="url(#b)"/>
<g class="cloud public" fill="url(#c)"><path d="M4.632 5.37a1.473 1.473 0 0 1-.376-1.622A1.48 1.48 0 1 1 6.639 5.37"/><path d="M3.117 5.37a.907.907 0 0 1 .034-1.264.916.916 0 0 1 1.272-.01.92.92 0 0 1 .05 1.274m.984 0a1.322 1.322 0 0 1 .568-1.352 1.314 1.314 0 0 1 1.466.01c.444.296.665.82.562 1.343"/><path d="M3.364 5.37a.79.79 0 0 1 .38-.729.809.809 0 0 1 .828-.008.81.81 0 0 1 .389.737"/><path d="M1.987 5.317a.915.915 0 0 1 .9-.711c.45.01.829.32.896.764H2.044c-.046 0-.07 0-.057-.057z"/></g><path transform="translate(-1.7388,2.3182)" d="M16.093-.582L8.564 3.766m6.952-4.348l-7.53 4.348M14.94-.582L7.41 3.766m6.953-4.348l-7.53 4.348m6.953-4.348l-7.53 4.348m6.953-4.348l-7.53 4.348M12.63-.582L5.1 3.766m6.953-4.348l-7.53 4.348m6.954-4.348L3.946 3.766M10.9-.582L3.368 3.766m6.955-4.348L2.791 3.766M9.746-.582L2.214 3.766M9.168-.582l-7.53 4.348" clip-path="url(#d)" opacity=".588" stroke="#59c7eb" stroke-width=".06"/><path d="M5.626 2.81a1.48 1.48 0 0 0-1.377.947 1.473 1.473 0 0 0-.059.192.916.916 0 0 0-1.047.166.907.907 0 0 0-.26.5.915.915 0 0 0-.9.707c-.01.05.014.053.059.053H8.05a1.311 1.311 0 0 0-.567-1.339 1.314 1.314 0 0 0-.443-.193A1.48 1.48 0 0 0 5.626 2.81z" fill="none" stroke="#d9f5fb" stroke-width=".1"/></svg>