<?xml version="1.0"?>

<svg xmlns:dc="http://purl.org/dc/elements/1.1/" xmlns:cc="http://creativecommons.org/ns#" xmlns:rdf="http://www.w3.org/1999/02/22-rdf-syntax-ns#" xmlns:svg="http://www.w3.org/2000/svg" xmlns="http://www.w3.org/2000/svg" xml:space="preserve" viewBox="0 0 202.49 225.31" height="225.31" width="202.49" y="0px" x="0px" id="Layer_1" version="1.1"><defs id="defs590"></defs><g transform="translate(-1344.4,-378.03)" id="XMLID_6398_"><path style="fill:#eb7b23" id="XMLID_6564_" class="st13" d="m 1377.4,414.76 64.2,-14.39 c 2,-0.45 4.1,-0.45 6.1,0 l 66.2,14.44 c 6.4,1.41 11,7.13 11,13.74 l -0.2,72.2 c 0,0.57 0,1.1 -0.1,1.66 -0.9,7.76 -10,63.06 -75.7,78.58 -2,0.47 -4.1,0.49 -6.1,0.1 -13.7,-2.92 -66.9,-18.27 -76.2,-81.91 -0.1,-0.73 -0.2,-1.49 -0.2,-2.24 V 428.5 c 0,-6.55 4.6,-12.24 11,-13.68 z"></path><path d="m 1391.7,433.03 50.8,-11.3 c 1.5,-0.35 3.2,-0.36 4.8,0 l 52.3,11.34 c 5.1,1.11 8.7,5.6 8.7,10.79 l -0.2,56.7 c 0,0.44 0,0.86 0,1.3 -0.8,6.09 -8,49.52 -59.9,61.71 -1.6,0.37 -3.3,0.38 -4.8,0 -10.9,-2.29 -52.9,-14.35 -60.3,-64.32 0,-0.58 -0.1,-1.17 -0.1,-1.76 v -53.75 c 0,-5.15 3.6,-9.62 8.7,-10.74 z" class="st16" id="XMLID_6566_" style="fill:#dddddc"></path><path d="m 1509.4,432.53 v 19.05 0.2 c -7.7,11.94 -39.9,57 -99.1,97.88 -0.7,-0.52 -1.5,-1.04 -2.2,-1.58 l -3.9,-3.18 c -3.7,-3.27 -6.1,-9.1 -8.7,-12.61 l -2.5,-3.55 c 57.1,-39.72 87.5,-80.93 96,-93.57 l 4.1,-4.85 c 4.9,1.1 8.8,0.83 16.3,2.21 z" class="st13" id="XMLID_6567_" style="fill:#eb7b23"></path><path d="m 1410.6,500.55 c -3.4,-30.89 2.4,-50.92 20.4,-75.81 0.9,-1.23 2,-2.2 3,-3.06 v -19.72 l -56.6,12.71 c -6.4,1.44 -11,7.14 -11,13.72 v 68.58 c 0,0.74 0.1,1.5 0.2,2.24 7.9,54.02 47.2,73.32 67.4,79.73 v -3.32 c -11.4,-23.75 -20.5,-48.7 -23.4,-75.07 z" class="st20" id="XMLID_6568_" style="opacity:0.24;fill:#4d4d4d"></path></g><metadata id="metadata4804"><rdf:rdf><cc:work rdf:about=""><dc:title></dc:title></cc:work></rdf:rdf></metadata></svg>