<?xml version="1.0" encoding="UTF-8" standalone="no"?>
<svg xmlns="http://www.w3.org/2000/svg"    viewBox="0 0 10 10" >
  <path class="fill-orange"   d="M 1.6,1.21 4.8,0.494 c 0.1,-0.02 0.2,-0.02 0.3,0 L 8.4,1.21 c 0.32,0.1 0.55,0.36 0.55,0.69 -0.1,1.22 0,2.51 0,3.68 0,0.35 -0.5,3.15 -3.78,3.92 -0.1,0 -0.2,0 -0.3,0 C 4.17,9.36 1.52,8.6 1.06,5.42 c 0,0 0,-0.1 0,-0.11 V 1.9 C 1.05,1.57 1.28,1.29 1.6,1.21 Z" />
  <path class="fill-light-grey"  d="m 1.87,2.66 c 0,0.91 0,1.85 0,2.77 0,0.54 0.27,1.06 0.51,1.46 C 4.42,5.58 5.96,4.01 7.32,2.04 L 5.08,1.56 c -0.1,0 -0.16,0 -0.24,0 L 2.31,2.12 C 2.03,2.18 1.87,2.4 1.87,2.66 Z M 8.12,3.14 C 7.66,3.84 6.09,5.96 3.29,7.9 c 0.65,0.49 1.32,0.68 1.6,0.73 0.1,0 0.16,0 0.24,0 2.59,-0.6 2.95,-2.77 2.99,-3.07 v -0.1 z" />
  <path class="fill-shade"  d="M 3.25,5.49 C 3.08,3.95 3.47,2.9 4.37,1.66 L 4.42,0.574 1.6,1.21 C 1.28,1.28 1.05,1.56 1.05,1.89 v 3.42 c 0,0 0,0.1 0,0.11 0.4,2.7 2.36,3.66 3.37,3.98 C 3.99,8 3.4,6.76 3.25,5.49 Z" />
</svg>