<?xml version="1.0"?>

<svg xmlns:dc="http://purl.org/dc/elements/1.1/" xmlns:cc="http://creativecommons.org/ns#" xmlns:rdf="http://www.w3.org/1999/02/22-rdf-syntax-ns#" xmlns:svg="http://www.w3.org/2000/svg" xmlns="http://www.w3.org/2000/svg" id="svg" version="1.1" viewBox="0 0 10 10" height="512" width="512"> <defs id="defs10"> <clipPath id="clipPath990" clipPathUnits="userSpaceOnUse"> <path id="path988" d="m 554.659,426.17 h 6.161 v -10.812 h -6.161 z"></path> </clipPath> <clipPath id="clipPath1018" clipPathUnits="userSpaceOnUse"> <path id="path1016" d="M 555.051,414.294 H 597 v -43.093 h -41.949 z"></path> </clipPath> <clipPath id="clipPath1034" clipPathUnits="userSpaceOnUse"> <path id="path1032" d="m 549.136,388.93 h 14.281 v -14.281 h -14.281 z"></path> </clipPath> <clipPath id="clipPath1050" clipPathUnits="userSpaceOnUse"> <path id="path1048" d="m 552.745,392.538 h 14.281 v -14.281 h -14.281 z"></path> </clipPath> <clipPath id="clipPath1066" clipPathUnits="userSpaceOnUse"> <path id="path1064" d="m 548.595,381.206 h 19.356 v -1.21 h -19.356 z"></path> </clipPath> <clipPath id="clipPath1080" clipPathUnits="userSpaceOnUse"> <path id="path1078" d="m 548.595,387.255 h 19.356 v -1.21 h -19.356 z"></path> </clipPath> <clipPath id="clipPath2390" clipPathUnits="userSpaceOnUse"> <path id="path2388" d="m 106.528,348.752 h 24.27 v -48.523 h -24.27 z"></path> </clipPath> <clipPath id="clipPath2406" clipPathUnits="userSpaceOnUse"> <path id="path2404" d="m 112.605,345.656 h 5.093 v -4.437 h -5.093 z"></path> </clipPath> <clipPath id="clipPath2426" clipPathUnits="userSpaceOnUse"> <path id="path2424" d="m 127.914,349.723 h 5.677 v -1.146 h -5.677 z"></path> </clipPath> <clipPath id="clipPath2446" clipPathUnits="userSpaceOnUse"> <path id="path2444" d="m 124.318,356.198 h 6.472 v -5.476 h -6.472 z"></path> </clipPath> </defs> <metadata id="metadata3728"> <rdf:rdf> <cc:work rdf:about=""> <dc:title></dc:title> <dc:format>image/svg+xml</dc:format> <dc:type rdf:resource="http://purl.org/dc/dcmitype/StillImage"></dc:type> </cc:work> </rdf:rdf> </metadata> <g style="stroke-width:9.050550461" id="g4160" transform="matrix(0.147320678,0,0,-0.147320678,-14.2492816,53.352628)"> <g style="stroke-width:9.050550461" id="g2260" transform="translate(117.6982,344.9121)"> <path d="m 0,0 c -0.855,1 -1.168,1.363 -1.335,1.557 l -4.391,-3.731 c 0.932,-1.129 1.114,-1.349 1.254,-1.519 C -3.136,-2.292 -1.636,-1.051 0,0" style="fill:#003a4f;fill-opacity:1;fill-rule:nonzero;stroke:none;stroke-width:9.050550461" id="path2262"></path> </g> <g style="stroke-width:9.050550461" id="g2264" transform="translate(155.0508,324.4912)"> <path d="m 0,0 c 0,-13.399 -10.862,-24.262 -24.261,-24.262 -13.399,0 -24.261,10.863 -24.261,24.262 0,13.398 10.862,24.261 24.261,24.261 C -10.862,24.261 0,13.398 0,0" style="fill:#ffffff;fill-opacity:1;fill-rule:nonzero;stroke:none;stroke-width:9.050550461" id="path2266"></path> </g> <g style="stroke-width:9.050550461" id="g2268" transform="translate(111.8711,324.0488)"> <path d="m 0,0 h -1.837 c -0.246,0 -0.421,0.207 -0.421,0.442 0,0.25 0.175,0.426 0.421,0.426 H 0 C 0.229,0.868 0.405,0.692 0.405,0.442 0.405,0.207 0.229,0 0,0" style="fill:#003a4f;fill-opacity:1;fill-rule:nonzero;stroke:none;stroke-width:9.050550461" id="path2270"></path> </g> <g style="stroke-width:9.050550461" id="g2272" transform="translate(114.6089,314.5098)"> <path d="m 0,0 c -0.527,-0.293 0,0 -1.561,-0.911 -0.202,-0.133 -0.479,-0.059 -0.623,0.143 -0.107,0.208 -0.032,0.491 0.17,0.64 0.528,0.293 0,0 1.561,0.916 C -0.234,0.889 0.042,0.814 0.17,0.606 0.277,0.399 0.218,0.106 0,0" style="fill:#003a4f;fill-opacity:1;fill-rule:nonzero;stroke:none;stroke-width:9.050550461" id="path2274"></path> </g> <g style="stroke-width:9.050550461" id="g2276" transform="translate(114.7793,333.8486)"> <path d="m 0,0 c -0.128,-0.207 -0.378,-0.276 -0.624,-0.176 -0.511,0.31 0,0 -1.56,0.944 -0.202,0.117 -0.277,0.382 -0.17,0.606 0.144,0.208 0.42,0.282 0.623,0.176 0.527,-0.309 0,0 1.561,-0.916 C 0.048,0.485 0.106,0.208 0,0" style="fill:#003a4f;fill-opacity:1;fill-rule:nonzero;stroke:none;stroke-width:9.050550461" id="path2278"></path> </g> <g style="stroke-width:9.050550461" id="g2280" transform="translate(146.939,334.4404)"> <path d="M 0,0 C 0.527,0.309 0,0 1.561,0.916 1.763,1.064 2.04,0.99 2.141,0.782 2.29,0.559 2.215,0.282 2.013,0.148 c -0.543,-0.313 0,0 -1.603,-0.916 -0.202,-0.1 -0.479,-0.047 -0.58,0.176 C -0.32,-0.384 -0.245,-0.106 0,0" style="fill:#003a4f;fill-opacity:1;fill-rule:nonzero;stroke:none;stroke-width:9.050550461" id="path2282"></path> </g> <g style="stroke-width:9.050550461" id="g2284" transform="translate(139.8335,341.3057)"> <path d="m 0,0 c 0.309,0.543 0,0 0.906,1.624 0.143,0.203 0.42,0.277 0.623,0.128 0.207,-0.101 0.282,-0.383 0.149,-0.586 -0.309,-0.532 0,0 -0.906,-1.582 C 0.655,-0.634 0.394,-0.74 0.176,-0.591 -0.026,-0.458 -0.101,-0.208 0,0" style="fill:#003a4f;fill-opacity:1;fill-rule:nonzero;stroke:none;stroke-width:9.050550461" id="path2286"></path> </g> <g style="stroke-width:9.050550461" id="g2288" transform="translate(131.2476,345.5127)"> <path d="m 0,0 v -1.863 c 0,-0.235 -0.25,-0.458 -0.495,-0.458 -0.234,0 -0.48,0.223 -0.48,0.458 V 0 c 0,0.251 0.229,0.427 0.48,0.427 C -0.25,0.427 0,0.251 0,0" style="fill:#003a4f;fill-opacity:1;fill-rule:nonzero;stroke:none;stroke-width:9.050550461" id="path2290"></path> </g> <g style="stroke-width:9.050550461" id="g2292" transform="translate(121.6816,307.6758)"> <path d="m 0,0 c -0.303,-0.543 0,0 -0.9,-1.619 -0.117,-0.208 -0.378,-0.282 -0.602,-0.133 -0.202,0.101 -0.271,0.378 -0.17,0.591 0.303,0.527 0,0 0.9,1.577 0.144,0.25 0.421,0.324 0.628,0.175 C 0.059,0.49 0.133,0.208 0,0" style="fill:#003a4f;fill-opacity:1;fill-rule:nonzero;stroke:none;stroke-width:9.050550461" id="path2294"></path> </g> <g style="stroke-width:9.050550461" id="g2296" transform="translate(121.5381,340.6982)"> <path d="m 0,0 c -0.208,-0.102 -0.485,-0.043 -0.597,0.176 -0.308,0.516 0,0 -0.932,1.582 -0.101,0.208 -0.032,0.484 0.171,0.634 0.224,0.101 0.484,0.032 0.602,-0.176 C -0.453,1.684 -0.149,1.15 0.17,0.634 0.277,0.384 0.202,0.134 0,0" style="fill:#003a4f;fill-opacity:1;fill-rule:nonzero;stroke:none;stroke-width:9.050550461" id="path2298"></path> </g> <g style="stroke-width:9.050550461" id="g2300" transform="translate(131.2476,303.4678)"> <path d="m 0,0 c 0,-0.234 -0.202,-0.452 -0.453,-0.452 -0.245,0 -0.452,0.218 -0.452,0.452 v 1.832 c 0,0.251 0.207,0.459 0.452,0.459 C -0.202,2.291 0,2.083 0,1.832 Z" style="fill:#003a4f;fill-opacity:1;fill-rule:nonzero;stroke:none;stroke-width:9.050550461" id="path2302"></path> </g> <g style="stroke-width:9.050550461" id="g2304" transform="translate(141.3623,305.9072)"> <path d="m 0,0 c -0.245,-0.133 -0.49,-0.074 -0.623,0.149 -0.304,0.528 0,0 -0.906,1.609 C -1.672,1.96 -1.598,2.216 -1.353,2.359 -1.15,2.466 -0.9,2.392 -0.767,2.185 -0.463,1.651 -0.17,1.124 0.133,0.607 0.282,0.395 0.208,0.102 0,0" style="fill:#003a4f;fill-opacity:1;fill-rule:nonzero;stroke:none;stroke-width:9.050550461" id="path2306"></path> </g> <g style="stroke-width:9.050550461" id="g2308" transform="translate(136.1743,325.6836)"> <path d="m 0,0 c 2.956,-0.059 0,0 8.932,-0.202 0.48,-0.032 0.831,-0.432 0.831,-0.874 v -0.176 c 0,-0.458 -0.351,-0.884 -0.831,-0.884 -2.982,-0.091 0,0 -8.937,-0.25 z" style="fill:#003a4f;fill-opacity:1;fill-rule:nonzero;stroke:none;stroke-width:9.050550461" id="path2310"></path> </g> <g style="stroke-width:9.050550461" id="g2312" transform="translate(149.0957,313.7422)"> <path d="m 0,0 c -0.117,-0.202 -0.394,-0.276 -0.596,-0.176 -0.528,0.31 0,0 -1.604,0.944 -0.202,0.106 -0.277,0.399 -0.127,0.606 0.101,0.208 0.378,0.282 0.58,0.182 0.522,-0.326 0,0 1.571,-0.964 C 0.059,0.49 0.133,0.208 0,0" style="fill:#003a4f;fill-opacity:1;fill-rule:nonzero;stroke:none;stroke-width:9.050550461" id="path2314"></path> </g> <g style="stroke-width:9.050550461" id="g2316" transform="translate(151.4819,324.0488)"> <path d="m 0,0 h -1.806 c -0.244,0 -0.447,0.207 -0.447,0.458 0,0.234 0.203,0.484 0.447,0.484 H 0 c 0.234,0 0.453,-0.25 0.453,-0.484 C 0.453,0.207 0.234,0 0,0" style="fill:#003a4f;fill-opacity:1;fill-rule:nonzero;stroke:none;stroke-width:9.050550461" id="path2318"></path> </g> <g style="stroke-width:9.050550461" id="g2320" transform="translate(131.2476,345.5127)"> <path d="m 0,0 v -1.863 c 0,-0.235 -0.25,-0.458 -0.495,-0.458 -0.234,0 -0.48,0.223 -0.48,0.458 V 0 c 0,0.251 0.229,0.427 0.48,0.427 C -0.25,0.427 0,0.251 0,0" style="fill:#003a4f;fill-opacity:1;fill-rule:nonzero;stroke:none;stroke-width:9.050550461" id="path2322"></path> </g> <g style="stroke-width:9.050550461" id="g2324" transform="translate(121.5381,340.6982)"> <path d="m 0,0 c -0.208,-0.102 -0.485,-0.043 -0.597,0.176 -0.308,0.516 0,0 -0.932,1.582 -0.101,0.208 -0.032,0.484 0.171,0.634 0.224,0.101 0.484,0.032 0.602,-0.176 C -0.453,1.684 -0.149,1.15 0.17,0.634 0.277,0.384 0.202,0.134 0,0" style="fill:#003a4f;fill-opacity:1;fill-rule:nonzero;stroke:none;stroke-width:9.050550461" id="path2326"></path> </g> <g style="stroke-width:9.050550461" id="g2328" transform="translate(114.7793,333.8486)"> <path d="m 0,0 c -0.128,-0.207 -0.378,-0.276 -0.624,-0.176 -0.511,0.31 0,0 -1.56,0.944 -0.202,0.117 -0.277,0.382 -0.17,0.606 0.144,0.208 0.42,0.282 0.623,0.176 0.527,-0.309 0,0 1.561,-0.916 C 0.048,0.485 0.106,0.208 0,0" style="fill:#003a4f;fill-opacity:1;fill-rule:nonzero;stroke:none;stroke-width:9.050550461" id="path2330"></path> </g> <g style="stroke-width:9.050550461" id="g2332" transform="translate(112.2759,324.4912)"> <path d="m 0,0 c 0,-0.235 -0.176,-0.442 -0.405,-0.442 h -1.837 c -0.245,0 -0.421,0.207 -0.421,0.442 0,0.25 0.176,0.426 0.421,0.426 h 1.837 C -0.176,0.426 0,0.25 0,0" style="fill:#003a4f;fill-opacity:1;fill-rule:nonzero;stroke:none;stroke-width:9.050550461" id="path2334"></path> </g> <g style="stroke-width:9.050550461" id="g2336" transform="translate(114.6089,314.5098)"> <path d="m 0,0 c -0.527,-0.293 0,0 -1.561,-0.911 -0.202,-0.133 -0.479,-0.059 -0.623,0.143 -0.107,0.208 -0.032,0.491 0.17,0.64 0.528,0.293 0,0 1.561,0.916 C -0.234,0.889 0.042,0.814 0.17,0.606 0.277,0.399 0.218,0.106 0,0" style="fill:#003a4f;fill-opacity:1;fill-rule:nonzero;stroke:none;stroke-width:9.050550461" id="path2338"></path> </g> <g style="stroke-width:9.050550461" id="g2340" transform="translate(121.6816,307.6758)"> <path d="m 0,0 c -0.303,-0.543 0,0 -0.9,-1.619 -0.117,-0.208 -0.378,-0.282 -0.602,-0.133 -0.202,0.101 -0.271,0.378 -0.17,0.591 0.303,0.527 0,0 0.9,1.577 0.144,0.25 0.421,0.324 0.628,0.175 C 0.059,0.49 0.133,0.208 0,0" style="fill:#003a4f;fill-opacity:1;fill-rule:nonzero;stroke:none;stroke-width:9.050550461" id="path2342"></path> </g> <g style="stroke-width:9.050550461" id="g2344" transform="translate(131.2476,305.2998)"> <path d="m 0,0 v -1.832 c 0,-0.234 -0.202,-0.452 -0.453,-0.452 -0.245,0 -0.452,0.218 -0.452,0.452 V 0 c 0,0.251 0.207,0.459 0.452,0.459 C -0.202,0.459 0,0.251 0,0" style="fill:#003a4f;fill-opacity:1;fill-rule:nonzero;stroke:none;stroke-width:9.050550461" id="path2346"></path> </g> <g style="stroke-width:9.050550461" id="g2348" transform="translate(141.3623,305.9072)"> <path d="m 0,0 c -0.245,-0.133 -0.49,-0.074 -0.623,0.149 -0.304,0.528 0,0 -0.906,1.609 C -1.672,1.96 -1.598,2.216 -1.353,2.359 -1.15,2.466 -0.9,2.392 -0.767,2.185 -0.463,1.651 -0.17,1.124 0.133,0.607 0.282,0.395 0.208,0.102 0,0" style="fill:#003a4f;fill-opacity:1;fill-rule:nonzero;stroke:none;stroke-width:9.050550461" id="path2350"></path> </g> <g style="stroke-width:9.050550461" id="g2352" transform="translate(149.0957,313.7422)"> <path d="m 0,0 c -0.117,-0.202 -0.394,-0.276 -0.596,-0.176 -0.528,0.31 0,0 -1.604,0.944 -0.202,0.106 -0.277,0.399 -0.127,0.606 0.101,0.208 0.378,0.282 0.58,0.182 0.522,-0.326 0,0 1.571,-0.964 C 0.059,0.49 0.133,0.208 0,0" style="fill:#003a4f;fill-opacity:1;fill-rule:nonzero;stroke:none;stroke-width:9.050550461" id="path2354"></path> </g> <g style="stroke-width:9.050550461" id="g2356" transform="translate(151.9346,324.5068)"> <path d="m 0,0 c 0,-0.251 -0.218,-0.458 -0.453,-0.458 h -1.805 c -0.245,0 -0.448,0.207 -0.448,0.458 0,0.234 0.203,0.484 0.448,0.484 h 1.805 C -0.218,0.484 0,0.234 0,0" style="fill:#003a4f;fill-opacity:1;fill-rule:nonzero;stroke:none;stroke-width:9.050550461" id="path2358"></path> </g> <g style="stroke-width:9.050550461" id="g2360" transform="translate(148.9521,334.5889)"> <path d="m 0,0 c -0.543,-0.313 0,0 -1.603,-0.916 -0.203,-0.101 -0.48,-0.048 -0.581,0.176 -0.149,0.208 -0.074,0.485 0.171,0.592 0.527,0.308 0,0 1.56,0.916 C -0.25,0.916 0.026,0.842 0.128,0.634 0.277,0.41 0.202,0.134 0,0" style="fill:#003a4f;fill-opacity:1;fill-rule:nonzero;stroke:none;stroke-width:9.050550461" id="path2362"></path> </g> <g style="stroke-width:9.050550461" id="g2364" transform="translate(141.5112,342.4717)"> <path d="m 0,0 c -0.309,-0.532 0,0 -0.905,-1.582 -0.117,-0.218 -0.379,-0.324 -0.597,-0.175 -0.202,0.133 -0.277,0.383 -0.176,0.591 0.309,0.543 0,0 0.906,1.624 0.144,0.203 0.42,0.277 0.623,0.128 C 0.059,0.485 0.133,0.203 0,0" style="fill:#003a4f;fill-opacity:1;fill-rule:nonzero;stroke:none;stroke-width:9.050550461" id="path2366"></path> </g> <g style="stroke-width:9.050550461" id="g2368" transform="translate(131.9297,329.9824)"> <path d="m 0,0 c -0.245,11.249 -0.16,7.499 -0.245,11.249 0,0.484 -0.41,0.868 -0.858,0.868 h -0.175 c -0.453,0 -0.858,-0.384 -0.858,-0.868 -0.25,-11.292 -0.16,-7.532 -0.25,-11.292 -0.006,0 -0.011,0 -0.016,-0.006 z" style="fill:#003a4f;fill-opacity:1;fill-rule:nonzero;stroke:none;stroke-width:9.050550461" id="path2370"></path> </g> <g style="stroke-width:9.050550461" id="g2372" transform="translate(116.3662,346.4717)"> <path d="M 0,0 C 0.703,0.592 0.469,0.399 0.703,0.592 0.874,0.735 1.007,0.975 1.007,1.193 1.049,1.433 0.975,1.684 0.804,1.859 -2.253,5.55 -1.235,4.31 -2.253,5.55 -2.562,5.934 -3.116,5.96 -3.494,5.651 -9.768,0.31 -7.669,2.094 -9.768,0.31 c -0.176,-0.15 -0.277,-0.358 -0.32,-0.592 -0.026,-0.25 0.075,-0.458 0.219,-0.677 3.041,-3.69 2.024,-2.455 3.041,-3.69 0.325,-0.341 0.873,-0.416 1.257,-0.107 1.177,1.023 0.783,0.682 1.177,1.023 z" style="fill:#336172;fill-opacity:1;fill-rule:nonzero;stroke:none;stroke-width:9.050550461" id="path2374"></path> </g> <g style="stroke-width:9.050550461" id="g2376" transform="translate(136.3335,324.5146)"> <path d="m 0,0 c 0,-3.058 -2.479,-5.535 -5.536,-5.535 -3.057,0 -5.535,2.477 -5.535,5.535 0,3.058 2.478,5.536 5.535,5.536 C -2.479,5.536 0,3.058 0,0" style="fill:#336172;fill-opacity:1;fill-rule:nonzero;stroke:none;stroke-width:9.050550461" id="path2378"></path> </g> <g style="stroke-width:9.050550461" id="g2380" transform="translate(134.562,324.5146)"> <path d="m 0,0 c 0,-2.079 -1.686,-3.765 -3.764,-3.765 -2.079,0 -3.764,1.686 -3.764,3.765 0,2.079 1.685,3.765 3.764,3.765 C -1.686,3.765 0,2.079 0,0" style="fill:#003a4f;fill-opacity:1;fill-rule:nonzero;stroke:none;stroke-width:9.050550461" id="path2382"></path> </g> <g style="stroke-width:9.050550461" id="g2384"> <g style="stroke-width:9.050550461" id="g2386"></g> <g style="stroke-width:9.050550461" id="g2398"> <g clip-path="url(#clipPath2390)" id="g2396" style="opacity:0.600005984;stroke-width:9.050550461"> <g style="stroke-width:9.050550461" transform="translate(130.7979,348.752)" id="g2394"> <path d="m 0,0 h -0.008 c -13.399,0 -24.262,-10.862 -24.262,-24.261 0,-13.399 10.863,-24.261 24.262,-24.261 H 0 Z" style="fill:#d1d2d3;fill-opacity:0.545098066;fill-rule:nonzero;stroke:none;stroke-width:9.050550461" id="path2392"></path> </g> </g> </g> </g> <g style="stroke-width:9.050550461" id="g2400"> <g style="stroke-width:9.050550461" id="g2402"></g> <g style="stroke-width:9.050550461" id="g2414"> <g style="stroke-width:9.050550461" clip-path="url(#clipPath2406)" id="g2412"> <g style="stroke-width:9.050550461" transform="translate(112.6045,341.9717)" id="g2410"> <path d="M 0,0 C 0.396,-0.479 0.522,-0.632 0.622,-0.753 1.958,0.648 3.458,1.89 5.094,2.94 4.833,3.245 4.628,3.485 4.457,3.685 2.832,2.629 1.338,1.392 0,0" style="fill:#d1d2d3;fill-opacity:1;fill-rule:nonzero;stroke:none;stroke-width:9.050550461" id="path2408"></path> </g> </g> </g> </g> <g style="stroke-width:9.050550461" id="g2416" transform="translate(127.9136,348.5762)"> <path d="m 0,0 c 0.944,0.112 1.902,0.176 2.876,0.176 0.948,0 1.882,-0.061 2.802,-0.166 V 2.146 H 0 Z" style="fill:#003a4f;fill-opacity:1;fill-rule:nonzero;stroke:none;stroke-width:9.050550461" id="path2418"></path> </g> <g style="stroke-width:9.050550461" id="g2420"> <g style="stroke-width:9.050550461" id="g2422"></g> <g style="stroke-width:9.050550461" id="g2434"> <g style="stroke-width:9.050550461" clip-path="url(#clipPath2426)" id="g2432"> <g style="stroke-width:9.050550461" transform="translate(130.7896,349.7227)" id="g2430"> <path d="m 0,0 c -0.973,0 -1.932,-0.061 -2.876,-0.168 v -0.978 c 0.944,0.112 1.902,0.175 2.876,0.175 0.948,0 1.882,-0.06 2.802,-0.166 v 0.979 C 1.881,-0.057 0.948,0 0,0" style="fill:#d1d2d3;fill-opacity:1;fill-rule:nonzero;stroke:none;stroke-width:9.050550461" id="path2428"></path> </g> </g> </g> </g> <g style="stroke-width:9.050550461" id="g2436" transform="translate(133.5913,350.7227)"> <path d="m 0,0 h 2.78 c 0.245,0 0.453,0.101 0.597,0.282 0.16,0.176 0.234,0.41 0.234,0.66 V 4.559 C 3.611,4.81 3.537,5.017 3.377,5.192 3.233,5.374 3.025,5.475 2.78,5.475 H -8.442 c -0.25,0 -0.426,-0.101 -0.597,-0.283 C -9.214,5.017 -9.273,4.81 -9.273,4.559 V 0.942 c 0,-0.25 0.059,-0.484 0.234,-0.66 C -8.868,0.101 -8.692,0 -8.442,0 h 2.764 z" style="fill:#336172;fill-opacity:1;fill-rule:nonzero;stroke:none;stroke-width:9.050550461" id="path2438"></path> </g> <g style="stroke-width:9.050550461" id="g2440"> <g style="stroke-width:9.050550461" id="g2442"></g> <g style="stroke-width:9.050550461" id="g2454"> <g style="stroke-width:9.050550461" clip-path="url(#clipPath2446)" id="g2452"> <g style="stroke-width:9.050550461" transform="translate(130.7896,356.1973)" id="g2450"> <path d="m 0,0 h -5.64 c -0.251,0 -0.426,-0.101 -0.597,-0.282 -0.176,-0.176 -0.234,-0.383 -0.234,-0.634 v -3.616 c 0,-0.25 0.058,-0.485 0.234,-0.66 0.171,-0.182 0.346,-0.283 0.597,-0.283 H -2.876 0 Z" style="fill:#007a87;fill-opacity:1;fill-rule:nonzero;stroke:none;stroke-width:9.050550461" id="path2448"></path> </g> </g> </g> </g> <g style="stroke-width:9.050550461" id="g2456" transform="translate(130.7896,301.7822)"> <path d="m 0,0 c -12.542,0 -22.708,10.167 -22.708,22.709 0,12.541 10.166,22.708 22.708,22.708 12.542,0 22.709,-10.167 22.709,-22.708 C 22.709,10.167 12.542,0 0,0 M 0,46.97 C -13.399,46.97 -24.261,36.107 -24.261,22.709 -24.261,9.31 -13.399,-1.553 0,-1.553 13.399,-1.553 24.261,9.31 24.261,22.709 24.261,36.107 13.399,46.97 0,46.97" style="fill:#336172;fill-opacity:1;fill-rule:nonzero;stroke:none;stroke-width:9.050550461" id="path2458"></path> </g> </g>
</svg>
