<?xml version="1.0" encoding="UTF-8" standalone="no"?>
<svg
   xmlns:dc="http://purl.org/dc/elements/1.1/"
   xmlns:cc="http://creativecommons.org/ns#"
   xmlns:rdf="http://www.w3.org/1999/02/22-rdf-syntax-ns#"
   xmlns:svg="http://www.w3.org/2000/svg"
   xmlns="http://www.w3.org/2000/svg"
   height="100%"
   width="100%"
   viewBox="0 0 10 10"
   version="1.1"
   id="svg">
  <defs
     id="defs10" />
  <metadata
     id="metadata3728">
    <rdf:rdf>
      <cc:work
         rdf:about="">
        <dc:title />
        <dc:format>image/svg+xml</dc:format>
        <dc:type
           rdf:resource="http://purl.org/dc/dcmitype/StillImage" />
      </cc:work>
    </rdf:rdf>
    <rdf:RDF>
      <cc:Work
         rdf:about="">
        <dc:format>image/svg+xml</dc:format>
        <dc:type
           rdf:resource="http://purl.org/dc/dcmitype/StillImage" />
        <dc:title></dc:title>
      </cc:Work>
    </rdf:RDF>
  </metadata>
  <path
     class="fill-teal"
     d="m 5.838,1.692 c 0.08,0 0.13,-0.07 0.13,-0.14 V 1.02 c 0,-0.079 -0.05,-0.135 -0.13,-0.135 H 4.185 c -0.04,0 -0.13,0.098 -0.13,0.135 v 0.533 c 0,0.04 0.09,0.14 0.13,0.14 H 4.593 Z M 5.017,1.976 c -1.974,0 -3.573,1.6 -3.573,3.574 0,1.974 1.599,3.574 3.573,3.574 1.974,0 3.573,-1.6 3.573,-3.574 0,-1.974 -1.599,-3.574 -3.573,-3.574"
     id="path2438" />
  <path
     class="fill-lightest-grey shade"
     id="path2266"
     d="m 8.316,5.551 c 0,1.82 -1.474,3.294 -3.293,3.294 -1.82,0 -3.295,-1.474 -3.295,-3.294 0,-1.82 1.475,-3.294 3.295,-3.294 1.819,0 3.293,1.474 3.293,3.294" />
  <path
     class="fill-navy"
     d="M 5.179,4.741 C 5.143,3.084 5.155,3.636 5.143,3.084 5.143,3.013 5.083,2.956 5.017,2.956 h -0.03 c -0.07,0 -0.127,0.06 -0.127,0.128 -0.04,1.663 -0.02,1.109 -0.04,1.663 0,0 0,0 0,0 z M 6.593,2.9 c -0.05,0.08 0,0 -0.133,0.233 -0.02,0.03 -0.06,0.05 -0.09,0.03 -0.03,-0.02 -0.04,-0.06 -0.03,-0.09 0.04,-0.08 0,0 0.133,-0.239 0.02,-0.03 0.06,-0.04 0.09,-0.02 0.03,0.02 0.04,0.06 0.02,0.09 m 1.115,1.159 c -0.08,0.05 0,0 -0.236,0.135 -0.03,0.01 -0.07,0 -0.09,-0.03 -0.02,-0.03 -0.01,-0.07 0.02,-0.09 0.08,-0.05 0,0 0.23,-0.135 0.03,-0.02 0.07,-0.01 0.09,0.02 0.02,0.03 0.01,0.07 -0.02,0.09 m 0.433,1.498 c 0,0.04 -0.03,0.07 -0.07,0.07 H 7.792 c -0.04,0 -0.07,-0.03 -0.07,-0.07 0,-0.03 0.03,-0.07 0.07,-0.07 h 0.266 c 0.04,0 0.07,0.04 0.07,0.07 M 7.712,7.142 c -0.02,0.03 -0.06,0.04 -0.09,0.03 -0.08,-0.05 0,0 -0.236,-0.139 -0.03,-0.02 -0.04,-0.06 -0.02,-0.09 0.02,-0.03 0.06,-0.04 0.09,-0.03 0.08,0.05 0,0 0.231,0.142 0.04,0.02 0.05,0.06 0.03,0.09 M 6.578,8.291 c -0.04,0.02 -0.07,0.01 -0.09,-0.02 -0.04,-0.08 0,0 -0.133,-0.237 -0.02,-0.03 -0.01,-0.07 0.03,-0.09 0.03,-0.02 0.07,0 0.09,0.03 0.04,0.08 0.09,0.156 0.133,0.233 0.02,0.03 0.01,0.07 -0.02,0.09 m -1.512,0.08 v 0.27 c 0,0.03 -0.03,0.07 -0.07,0.07 -0.04,0 -0.07,-0.03 -0.07,-0.07 v -0.27 c 0,-0.04 0.03,-0.07 0.07,-0.07 0.04,0 0.07,0.03 0.07,0.07 m -1.4,-0.353 c -0.05,0.08 0,0 -0.133,0.238 -0.02,0.03 -0.06,0.04 -0.09,0.02 -0.03,-0.02 -0.04,-0.06 -0.02,-0.09 0.04,-0.08 0,0 0.132,-0.232 0.02,-0.04 0.06,-0.05 0.09,-0.03 0.03,0.01 0.04,0.06 0.02,0.09 M 2.631,7.024 c -0.08,0.04 0,0 -0.23,0.134 -0.03,0.02 -0.07,0 -0.09,-0.02 -0.02,-0.03 0,-0.07 0.02,-0.09 0.08,-0.04 0,0 0.23,-0.135 0.03,-0.02 0.07,0 0.09,0.03 0.02,0.03 0,0.07 -0.03,0.09 M 2.292,5.551 c 0,0.04 -0.03,0.06 -0.06,0.06 h -0.27 c -0.04,0 -0.06,-0.03 -0.06,-0.06 0,-0.04 0.03,-0.06 0.06,-0.06 h 0.27 c 0.03,0 0.06,0.03 0.06,0.06 M 2.66,4.181 c -0.02,0.03 -0.06,0.04 -0.09,0.03 -0.08,-0.05 0,0 -0.23,-0.139 -0.03,-0.02 -0.04,-0.06 -0.02,-0.09 0.02,-0.03 0.06,-0.04 0.09,-0.03 0.08,0.05 0,0 0.23,0.135 0.03,0.02 0.04,0.06 0.03,0.09 M 3.647,3.165 c -0.03,0.02 -0.07,0 -0.09,-0.03 -0.05,-0.08 0,0 -0.137,-0.233 -0.02,-0.03 0,-0.07 0.02,-0.09 0.03,-0.02 0.07,0 0.09,0.03 0.04,0.08 0.09,0.157 0.136,0.233 0.02,0.04 0,0.07 -0.03,0.09 m 1.44,-0.707 v 0.274 c 0,0.03 -0.04,0.07 -0.07,0.07 -0.03,0 -0.07,-0.03 -0.07,-0.07 V 2.458 c 0,-0.04 0.03,-0.06 0.07,-0.06 0.04,0 0.07,0.03 0.07,0.06 m 2.99,3.167 H 7.8 c -0.04,0 -0.07,-0.03 -0.07,-0.07 0,-0.04 0.03,-0.07 0.07,-0.07 h 0.266 c 0.03,0 0.07,0.04 0.07,0.07 0,0.04 -0.03,0.07 -0.07,0.07 M 7.712,7.142 c -0.02,0.03 -0.06,0.04 -0.09,0.03 -0.08,-0.05 0,0 -0.236,-0.139 -0.03,-0.02 -0.04,-0.06 -0.02,-0.09 0.02,-0.03 0.06,-0.04 0.09,-0.03 0.08,0.05 0,0 0.231,0.142 0.04,0.02 0.05,0.06 0.03,0.09 M 5.812,5.374 c 0.435,0 0,0 1.316,0.03 0.07,0 0.122,0.06 0.122,0.128 v 0.03 c 0,0.07 -0.05,0.131 -0.122,0.131 -0.44,0.01 0,0 -1.317,0.04 z m 0.766,2.917 c -0.04,0.02 -0.07,0.01 -0.09,-0.02 -0.04,-0.08 0,0 -0.133,-0.237 -0.02,-0.03 -0.01,-0.07 0.03,-0.09 0.03,-0.02 0.07,0 0.09,0.03 0.04,0.08 0.09,0.156 0.133,0.233 0.02,0.03 0.01,0.07 -0.02,0.09 M 5.076,8.644 c 0,0.03 -0.03,0.07 -0.07,0.07 -0.04,0 -0.07,-0.03 -0.07,-0.07 v -0.27 c 0,-0.04 0.03,-0.07 0.07,-0.07 0.04,0 0.07,0.03 0.07,0.07 z M 3.647,3.165 c -0.03,0.02 -0.07,0 -0.09,-0.03 -0.05,-0.08 0,0 -0.137,-0.233 -0.02,-0.03 0,-0.07 0.02,-0.09 0.03,-0.02 0.07,0 0.09,0.03 0.04,0.08 0.09,0.157 0.136,0.233 0.02,0.04 0,0.07 -0.03,0.09 m 0.04,4.861 c -0.05,0.08 0,0 -0.133,0.238 -0.02,0.03 -0.06,0.04 -0.09,0.02 -0.03,-0.02 -0.04,-0.06 -0.02,-0.09 0.04,-0.08 0,0 0.132,-0.232 0.02,-0.04 0.06,-0.05 0.09,-0.03 0.03,0.01 0.04,0.06 0.02,0.09 M 5.076,2.458 v 0.274 c 0,0.03 -0.04,0.07 -0.07,0.07 -0.03,0 -0.07,-0.03 -0.07,-0.07 V 2.458 c 0,-0.04 0.03,-0.06 0.07,-0.06 0.04,0 0.07,0.03 0.07,0.06 m 1.267,0.619 c 0.05,-0.08 0,0 0.133,-0.239 0.02,-0.03 0.06,-0.04 0.09,-0.02 0.03,0.02 0.04,0.06 0.02,0.09 -0.04,0.08 0,0 -0.133,0.233 -0.02,0.03 -0.06,0.05 -0.09,0.03 -0.03,-0.02 -0.04,-0.06 -0.03,-0.09 m 1.055,1.012 c 0.08,-0.05 0,0 0.23,-0.135 0.03,-0.02 0.07,-0.01 0.08,0.02 0.02,0.03 0.01,0.07 -0.02,0.09 -0.08,0.05 0,0 -0.237,0.135 -0.03,0.01 -0.07,0 -0.08,-0.03 -0.02,-0.03 -0.01,-0.07 0.02,-0.09 m -4.721,0.1 c -0.02,0.03 -0.06,0.04 -0.09,0.03 -0.08,-0.05 0,0 -0.23,-0.139 -0.03,-0.02 -0.04,-0.06 -0.02,-0.09 0.02,-0.03 0.06,-0.04 0.09,-0.03 0.08,0.05 0,0 0.23,0.135 0.03,0.02 0.04,0.06 0.03,0.09 M 2.63,7.026 c -0.08,0.04 0,0 -0.23,0.134 -0.03,0.02 -0.07,0 -0.09,-0.02 -0.02,-0.03 0,-0.07 0.02,-0.09 0.08,-0.04 0,0 0.23,-0.135 0.03,-0.02 0.07,0 0.09,0.03 0.02,0.03 0,0.07 -0.03,0.09 M 2.233,5.625 H 1.962 c -0.04,0 -0.06,-0.03 -0.06,-0.07 0,-0.04 0.03,-0.06 0.06,-0.06 h 0.271 c 0.03,0 0.06,0.03 0.06,0.06 0,0.04 -0.03,0.07 -0.06,0.07"
     id="path2370" />
  <path
     class="fill-dark-slate"
     id="path2374"
     d="M 2.896,2.311 C 3,2.224 2.965,2.252 3,2.224 c 0.02,-0.02 0.04,-0.06 0.04,-0.09 0,-0.03 0,-0.07 -0.03,-0.1 C 2.564,1.493 2.714,1.676 2.564,1.493 2.519,1.437 2.437,1.433 2.381,1.479 1.457,2.265 1.766,2.003 1.457,2.265 c -0.03,0.02 -0.04,0.05 -0.05,0.09 0,0.04 0.01,0.07 0.03,0.1 0.448,0.544 0.298,0.362 0.448,0.544 0.05,0.05 0.129,0.06 0.185,0.02 C 2.249,2.861 2.191,2.911 2.249,2.861 Z" />
  <path
     class="fill-teal"
     id="path2378"
     d="m 5.827,5.551 c 0,0.45 -0.365,0.815 -0.815,0.815 -0.451,0 -0.816,-0.365 -0.816,-0.815 0,-0.45 0.365,-0.815 0.816,-0.815 0.45,0 0.815,0.365 0.815,0.815" />
  <path
     class="fill-navy"
     d="m 4.59,2.001 c 0.139,-0.02 0.28,-0.03 0.424,-0.03 0.139,0 0.277,0 0.412,0.02 V 1.685 H 4.59 Z M 3.087,2.546 C 2.961,2.399 2.915,2.345 2.89,2.317 L 2.244,2.866 C 2.381,3.033 2.408,3.065 2.428,3.09 2.625,2.884 2.846,2.701 3.087,2.546"
     id="path2418" />
  <path
     class="fill-teal"
     d="M 4.977,0.8817 H 4.146 c -0.04,0 -0.06,0.015 -0.09,0.041 -0.03,0.026 -0.03,0.056 -0.03,0.094 v 0.532 c 0,0.04 0,0.07 0.03,0.1 0.03,0.03 0.05,0.04 0.09,0.04 h 0.407 0.424 z m 0.04,0.9573 c -0.143,0 -0.285,0 -0.424,0.03 v 0.144 c 0.139,-0.02 0.281,-0.03 0.424,-0.03 0.14,0 0.277,0 0.413,0.02 V 1.862 C 5.294,1.847 5.157,1.839 5.017,1.839 M 2.336,2.973 c 0.06,0.07 0.08,0.09 0.09,0.111 C 2.625,2.878 2.846,2.695 3.086,2.54 3.048,2.495 3.018,2.46 2.993,2.43 2.753,2.586 2.534,2.768 2.336,2.973"
     id="path2448" />
  <path
     class="fill-shade-weak"
     d="m 5.017,2.251 v 0 c -1.82,0 -3.294,1.475 -3.294,3.294 0,1.82 1.474,3.296 3.294,3.296 v 0 z"
     id="path2392" />
  <path
     class="fill-navy"
     id="path2382"
     d="m 5.506,5.551 c 0,0.267 -0.216,0.484 -0.483,0.484 -0.268,0 -0.484,-0.217 -0.484,-0.484 0,-0.267 0.216,-0.484 0.484,-0.484 0.267,0 0.483,0.217 0.483,0.484" />
</svg>
