<?xml version="1.0"?>

<svg xmlns:dc="http://purl.org/dc/elements/1.1/" xmlns:cc="http://creativecommons.org/ns#" xmlns:rdf="http://www.w3.org/1999/02/22-rdf-syntax-ns#" xmlns:svg="http://www.w3.org/2000/svg" xmlns="http://www.w3.org/2000/svg" id="svg" version="1.1" viewBox="0 0 10 10" height="512" width="512"> <defs id="defs10"> <clipPath id="clipPath990" clipPathUnits="userSpaceOnUse"> <path id="path988" d="m 554.659,426.17 h 6.161 v -10.812 h -6.161 z"></path> </clipPath> <clipPath id="clipPath1018" clipPathUnits="userSpaceOnUse"> <path id="path1016" d="M 555.051,414.294 H 597 v -43.093 h -41.949 z"></path> </clipPath> <clipPath id="clipPath1034" clipPathUnits="userSpaceOnUse"> <path id="path1032" d="m 549.136,388.93 h 14.281 v -14.281 h -14.281 z"></path> </clipPath> <clipPath id="clipPath1050" clipPathUnits="userSpaceOnUse"> <path id="path1048" d="m 552.745,392.538 h 14.281 v -14.281 h -14.281 z"></path> </clipPath> <clipPath id="clipPath1066" clipPathUnits="userSpaceOnUse"> <path id="path1064" d="m 548.595,381.206 h 19.356 v -1.21 h -19.356 z"></path> </clipPath> <clipPath id="clipPath1080" clipPathUnits="userSpaceOnUse"> <path id="path1078" d="m 548.595,387.255 h 19.356 v -1.21 h -19.356 z"></path> </clipPath> <clipPath id="clipPath2390" clipPathUnits="userSpaceOnUse"> <path id="path2388" d="m 106.528,348.752 h 24.27 v -48.523 h -24.27 z"></path> </clipPath> <clipPath id="clipPath2406" clipPathUnits="userSpaceOnUse"> <path id="path2404" d="m 112.605,345.656 h 5.093 v -4.437 h -5.093 z"></path> </clipPath> <clipPath id="clipPath2426" clipPathUnits="userSpaceOnUse"> <path id="path2424" d="m 127.914,349.723 h 5.677 v -1.146 h -5.677 z"></path> </clipPath> <clipPath id="clipPath2446" clipPathUnits="userSpaceOnUse"> <path id="path2444" d="m 124.318,356.198 h 6.472 v -5.476 h -6.472 z"></path> </clipPath> <clipPath id="clipPath1500" clipPathUnits="userSpaceOnUse"> <path id="path1498" d="m 69.404,331.239 h 4.5646 V 304.792 H 69.404 Z"></path> </clipPath> <clipPath id="clipPath1520" clipPathUnits="userSpaceOnUse"> <path id="path1518" d="m 91.4396,327.98 h 2.2336 v -17.95 h -2.2336 z"></path> </clipPath> <clipPath id="clipPath1548" clipPathUnits="userSpaceOnUse"> <path id="path1546" d="M 74.8404,342.272 H 87.275 v -4.814 H 74.8404 Z"></path> </clipPath> <clipPath id="clipPath1572" clipPathUnits="userSpaceOnUse"> <path id="path1570" d="M 72.8455,359.667 H 83.0539 V 343.242 H 72.8455 Z"></path> </clipPath> <clipPath id="clipPath1604" clipPathUnits="userSpaceOnUse"> <path id="path1602" d="M 27.0433,331.239 H 31.608 V 304.792 H 27.0433 Z"></path> </clipPath> <clipPath id="clipPath1624" clipPathUnits="userSpaceOnUse"> <path id="path1622" d="m 49.0789,327.98 h 2.2337 v -17.95 h -2.2337 z"></path> </clipPath> <clipPath id="clipPath1648" clipPathUnits="userSpaceOnUse"> <path id="path1646" d="M 30.6442,359.306 H 40.6548 V 343.2 H 30.6442 Z"></path> </clipPath> <clipPath id="clipPath1676" clipPathUnits="userSpaceOnUse"> <path id="path1674" d="M 51.4052,352.273 H 61.9367 V 335.329 H 51.4052 Z"></path> </clipPath> <clipPath id="clipPath1700" clipPathUnits="userSpaceOnUse"> <path id="path1698" d="m 48.4821,323.576 h 4.4634 v -25.86 h -4.4634 z"></path> </clipPath> <clipPath id="clipPath1720" clipPathUnits="userSpaceOnUse"> <path id="path1718" d="m 70.029,320.39 h 2.1841 V 302.838 H 70.029 Z"></path> </clipPath> <clipPath id="clipPath1744" clipPathUnits="userSpaceOnUse"> <path id="path1742" d="m 61.0622,323.682 h 6.5437 v -6.997 h -6.5437 z"></path> </clipPath> </defs> <metadata id="metadata3728"> <rdf:rdf> <cc:work rdf:about=""> <dc:title></dc:title> <dc:format>image/svg+xml</dc:format> <dc:type rdf:resource="http://purl.org/dc/dcmitype/StillImage"></dc:type> </cc:work> </rdf:rdf> </metadata> <g style="stroke-width:11.962966919" id="g4771" transform="matrix(0.111455075,0,0,-0.111455075,-1.68317542,42.1430244)"> <g style="stroke-width:11.962966919" id="g1490" transform="translate(94.3994,336.1621)"> <path d="M 0,0 C -2.868,3.559 -7.814,4.286 -8.818,4.399 -9.082,4.408 -9.344,4.418 -9.62,4.418 h -7.443 c -0.275,0 -0.538,-0.01 -0.802,-0.019 -1.004,-0.113 -5.949,-0.84 -8.818,-4.399 -2.663,-3.303 -3.873,-13.288 -4.135,-17.98 0.367,-3.693 2.703,-5.727 5.295,-7.625 l 0.712,-0.527 -0.186,-3.047 0.465,-0.396 c 1.09,-0.929 4.001,-2.465 11.191,-2.527 7.196,0.062 10.1,1.598 11.19,2.527 l 0.465,0.396 -0.186,3.047 0.712,0.527 c 2.591,1.897 4.926,3.93 5.295,7.619 C 3.875,-13.302 2.666,-3.306 0,0" style="fill:#820000;fill-opacity:1;fill-rule:nonzero;stroke:none;stroke-width:11.962966919" id="path1492"></path> </g> <g style="stroke-width:11.962966919" id="g1494"> <g style="stroke-width:11.962966919" id="g1496"></g> <g style="stroke-width:11.962966919" id="g1508"> <g clip-path="url(#clipPath1500)" id="g1506" style="opacity:0.199997008;stroke-width:11.962966919"> <g style="stroke-width:11.962966919" transform="translate(73.9688,304.792)" id="g1504"> <path d="m 0,0 v 26.358 c 0,0.079 -0.096,0.119 -0.151,0.063 l -1.796,-1.796 c -0.86,-0.859 -1.375,-2.004 -1.449,-3.218 L -4.565,2.19 -4.102,1.795 C -3.48,1.265 -2.262,0.539 0,0" style="fill:#000000;fill-opacity:1;fill-rule:nonzero;stroke:none;stroke-width:11.962966919" id="path1502"></path> </g> </g> </g> </g> <g style="stroke-width:11.962966919" id="g1510" transform="translate(92.7129,306.9834)"> <path d="M 0,0 V 0 L -0.174,2.862 Z" style="fill:#f5a326;fill-opacity:1;fill-rule:nonzero;stroke:none;stroke-width:11.962966919" id="path1512"></path> </g> <g style="stroke-width:11.962966919" id="g1514"> <g style="stroke-width:11.962966919" id="g1516"></g> <g style="stroke-width:11.962966919" id="g1528"> <g clip-path="url(#clipPath1520)" id="g1526" style="opacity:0.199997008;stroke-width:11.962966919"> <g style="stroke-width:11.962966919" transform="translate(93.6733,310.8789)" id="g1524"> <path d="m 0,0 -0.746,14.634 c -0.037,0.727 -0.342,1.414 -0.857,1.928 l -0.519,0.52 c -0.043,0.043 -0.115,0.01 -0.111,-0.05 l 1.087,-17.881 0.712,0.527 C -0.288,-0.216 -0.144,-0.108 0,0" style="fill:#000000;fill-opacity:1;fill-rule:nonzero;stroke:none;stroke-width:11.962966919" id="path1522"></path> </g> </g> </g> </g> <g style="stroke-width:11.962966919" id="g1530" transform="translate(77.8843,312.9473)"> <path d="M 0,0 3.173,-3.174 6.347,0 4.418,24.427 6.357,27.555 H 3.173 -0.01 l 1.938,-3.128 z" style="fill:#a30000;fill-opacity:1;fill-rule:nonzero;stroke:none;stroke-width:11.962966919" id="path1532"></path> </g> <g style="stroke-width:11.962966919" id="g1534" transform="translate(81.0576,340.5566)"> <path d="m 0,0 c -3.366,0.623 -5.419,1.716 -5.419,1.716 l -0.798,-2.119 c 2.21,-1.454 4.092,-2.696 4.092,-2.696 z" style="fill:#a30000;fill-opacity:1;fill-rule:nonzero;stroke:none;stroke-width:11.962966919" id="path1536"></path> </g> <g style="stroke-width:11.962966919" id="g1538" transform="translate(81.0576,340.5566)"> <path d="M 0,0 C 3.366,0.623 5.419,1.716 5.419,1.716 L 6.217,-0.403 C 4.007,-1.857 2.125,-3.099 2.125,-3.099 Z" style="fill:#a30000;fill-opacity:1;fill-rule:nonzero;stroke:none;stroke-width:11.962966919" id="path1540"></path> </g> <g style="stroke-width:11.962966919" id="g1542"> <g style="stroke-width:11.962966919" id="g1544"></g> <g style="stroke-width:11.962966919" id="g1560"> <g clip-path="url(#clipPath1548)" id="g1558" style="opacity:0.25;stroke-width:11.962966919"> <g style="stroke-width:11.962966919" transform="translate(81.0576,340.5566)" id="g1552"> <path d="m 0,0 c -3.366,0.623 -5.419,1.716 -5.419,1.716 l -0.798,-2.119 c 2.21,-1.454 4.092,-2.696 4.092,-2.696 z" style="fill:#000000;fill-opacity:1;fill-rule:nonzero;stroke:none;stroke-width:11.962966919" id="path1550"></path> </g> <g style="stroke-width:11.962966919" transform="translate(81.0576,340.5566)" id="g1556"> <path d="M 0,0 C 3.366,0.623 5.419,1.716 5.419,1.716 L 6.217,-0.403 C 4.007,-1.857 2.125,-3.099 2.125,-3.099 Z" style="fill:#000000;fill-opacity:1;fill-rule:nonzero;stroke:none;stroke-width:11.962966919" id="path1554"></path> </g> </g> </g> </g> <g style="stroke-width:11.962966919" id="g1562" transform="translate(81.0571,343.2422)"> <path d="m 0,0 c -4.528,0 -8.211,3.684 -8.211,8.212 0,4.529 3.683,8.213 8.211,8.213 4.528,0 8.213,-3.684 8.213,-8.213 C 8.213,3.684 4.528,0 0,0" style="fill:#cc6c1f;fill-opacity:1;fill-rule:nonzero;stroke:none;stroke-width:11.962966919" id="path1564"></path> </g> <g style="stroke-width:11.962966919" id="g1566"> <g style="stroke-width:11.962966919" id="g1568"></g> <g style="stroke-width:11.962966919" id="g1580"> <g clip-path="url(#clipPath1572)" id="g1578" style="opacity:0.070007324;stroke-width:11.962966919"> <g style="stroke-width:11.962966919" transform="translate(76.8389,351.4541)" id="g1576"> <path d="M 0,0 C 0,3.839 2.651,7.062 6.215,7.957 5.574,8.118 4.908,8.213 4.218,8.213 -0.31,8.213 -3.993,4.529 -3.993,0 c 0,-4.528 3.683,-8.212 8.211,-8.212 0.69,0 1.356,0.095 1.997,0.256 C 2.651,-7.061 0,-3.838 0,0" style="fill:#231f20;fill-opacity:1;fill-rule:nonzero;stroke:none;stroke-width:11.962966919" id="path1574"></path> </g> </g> </g> </g> <g style="stroke-width:11.962966919" id="g1582" transform="translate(78.6055,357.0137)"> <path d="m 0,0 -5.76,-5.56 c 0,4.53 3.684,8.213 8.212,8.213 4.528,0 8.213,-3.683 8.213,-8.213 z" style="fill:#52270f;fill-opacity:1;fill-rule:nonzero;stroke:none;stroke-width:11.962966919" id="path1584"></path> </g> <g style="stroke-width:11.962966919" id="g1586" transform="translate(33.188,340.4092)"> <path d="M 0,0 V 0 L 0.001,-0.001 Z" style="fill:#3b0083;fill-opacity:1;fill-rule:nonzero;stroke:none;stroke-width:11.962966919" id="path1588"></path> </g> <g style="stroke-width:11.962966919" id="g1590" transform="translate(52.0391,336.1621)"> <path d="m 0,0 c -2.308,2.863 -5.958,3.893 -7.82,4.245 l -4.494,-4.497 c -0.44,-0.44 -1.149,-0.456 -1.608,-0.034 L -18.85,4.246 C -20.704,3.898 -24.365,2.876 -26.683,0 c -2.663,-3.302 -3.874,-13.288 -4.135,-17.98 0.367,-3.693 2.702,-5.727 5.295,-7.625 l 0.712,-0.527 -0.186,-3.047 0.464,-0.396 c 1.091,-0.929 4.001,-2.465 11.191,-2.527 7.196,0.062 10.101,1.598 11.191,2.527 l 0.464,0.396 -0.186,3.047 0.713,0.527 c 2.591,1.897 4.926,3.93 5.294,7.619 C 3.875,-13.302 2.666,-3.306 0,0" style="fill:#820000;fill-opacity:1;fill-rule:nonzero;stroke:none;stroke-width:11.962966919" id="path1592"></path> </g> <g style="stroke-width:11.962966919" id="g1594" transform="translate(33.188,340.4092)"> <path d="m 0,0 4.929,-4.533 c 0.458,-0.422 1.168,-0.406 1.608,0.034 l 4.494,4.497 C 10.579,0.083 10.229,0.13 10.033,0.152 9.769,0.161 9.506,0.171 9.231,0.171 H 1.787 C 1.512,0.171 1.25,0.161 0.986,0.152 0.792,0.131 0.446,0.084 0,0" style="fill:#be5719;fill-opacity:1;fill-rule:nonzero;stroke:none;stroke-width:11.962966919" id="path1596"></path> </g> <g style="stroke-width:11.962966919" id="g1598"> <g style="stroke-width:11.962966919" id="g1600"></g> <g style="stroke-width:11.962966919" id="g1612"> <g clip-path="url(#clipPath1604)" id="g1610" style="opacity:0.199997008;stroke-width:11.962966919"> <g style="stroke-width:11.962966919" transform="translate(31.6079,304.792)" id="g1608"> <path d="m 0,0 v 26.358 c 0,0.079 -0.095,0.119 -0.151,0.063 l -1.796,-1.796 c -0.86,-0.859 -1.375,-2.004 -1.449,-3.218 L -4.564,2.19 -4.102,1.795 C -3.48,1.265 -2.262,0.539 0,0" style="fill:#000000;fill-opacity:1;fill-rule:nonzero;stroke:none;stroke-width:11.962966919" id="path1606"></path> </g> </g> </g> </g> <g style="stroke-width:11.962966919" id="g1614" transform="translate(50.3521,306.9834)"> <path d="M 0,0 V 0 L -0.174,2.862 Z" style="fill:#f9b231;fill-opacity:1;fill-rule:nonzero;stroke:none;stroke-width:11.962966919" id="path1616"></path> </g> <g style="stroke-width:11.962966919" id="g1618"> <g style="stroke-width:11.962966919" id="g1620"></g> <g style="stroke-width:11.962966919" id="g1632"> <g clip-path="url(#clipPath1624)" id="g1630" style="opacity:0.199997008;stroke-width:11.962966919"> <g style="stroke-width:11.962966919" transform="translate(51.3125,310.8789)" id="g1628"> <path d="m 0,0 -0.746,14.634 c -0.037,0.727 -0.342,1.414 -0.857,1.928 l -0.519,0.52 c -0.043,0.043 -0.115,0.01 -0.111,-0.05 l 1.087,-17.881 0.712,0.527 C -0.288,-0.216 -0.144,-0.108 0,0" style="fill:#000000;fill-opacity:1;fill-rule:nonzero;stroke:none;stroke-width:11.962966919" id="path1626"></path> </g> </g> </g> </g> <g style="stroke-width:11.962966919" id="g1634" transform="translate(46.7505,351.2529)"> <path d="m 0,0 h -16.106 l -1.343,-9.605 H 1.342 Z" style="fill:#52270f;fill-opacity:1;fill-rule:nonzero;stroke:none;stroke-width:11.962966919" id="path1636"></path> </g> <g style="stroke-width:11.962966919" id="g1638" transform="translate(38.6968,343.2002)"> <path d="m 0,0 c -4.44,0 -8.053,3.612 -8.053,8.053 0,4.441 3.613,8.053 8.053,8.053 4.441,0 8.054,-3.612 8.054,-8.053 C 8.054,3.612 4.441,0 0,0" style="fill:#be5719;fill-opacity:1;fill-rule:nonzero;stroke:none;stroke-width:11.962966919" id="path1640"></path> </g> <g style="stroke-width:11.962966919" id="g1642"> <g style="stroke-width:11.962966919" id="g1644"></g> <g style="stroke-width:11.962966919" id="g1656"> <g clip-path="url(#clipPath1648)" id="g1654" style="opacity:0.100005984;stroke-width:11.962966919"> <g style="stroke-width:11.962966919" transform="translate(34.5601,351.2529)" id="g1652"> <path d="M 0,0 C 0,3.765 2.6,6.925 6.095,7.803 5.466,7.961 4.813,8.054 4.137,8.054 -0.304,8.054 -3.916,4.441 -3.916,0 c 0,-4.44 3.612,-8.053 8.053,-8.053 0.676,0 1.329,0.093 1.958,0.251 C 2.6,-6.924 0,-3.764 0,0" style="fill:#1a1718;fill-opacity:1;fill-rule:nonzero;stroke:none;stroke-width:11.962966919" id="path1650"></path> </g> </g> </g> </g> <g style="stroke-width:11.962966919" id="g1658" transform="translate(36.2925,356.7051)"> <path d="m 0,0 -5.648,-5.452 c 0,4.441 3.612,8.054 8.052,8.054 4.441,0 8.054,-3.613 8.054,-8.054 z" style="fill:#52270f;fill-opacity:1;fill-rule:nonzero;stroke:none;stroke-width:11.962966919" id="path1660"></path> </g> <g style="stroke-width:11.962966919" id="g1662" transform="translate(68.3496,343.8008)"> <path d="m 0,0 h -16.944 l -1.412,-17.165 H 1.412 Z" style="fill:#c96b1d;fill-opacity:1;fill-rule:nonzero;stroke:none;stroke-width:11.962966919" id="path1664"></path> </g> <g style="stroke-width:11.962966919" id="g1666" transform="translate(59.877,335.3291)"> <path d="m 0,0 c -4.671,0 -8.472,3.801 -8.472,8.472 0,4.672 3.801,8.472 8.472,8.472 4.671,0 8.473,-3.8 8.473,-8.472 C 8.473,3.801 4.671,0 0,0" style="fill:#f2ae70;fill-opacity:1;fill-rule:nonzero;stroke:none;stroke-width:11.962966919" id="path1668"></path> </g> <g style="stroke-width:11.962966919" id="g1670"> <g style="stroke-width:11.962966919" id="g1672"></g> <g style="stroke-width:11.962966919" id="g1684"> <g clip-path="url(#clipPath1676)" id="g1682" style="opacity:0.070007324;stroke-width:11.962966919"> <g style="stroke-width:11.962966919" transform="translate(55.5249,343.8008)" id="g1680"> <path d="M 0,0 C 0,3.961 2.735,7.285 6.412,8.209 5.751,8.375 5.063,8.473 4.352,8.473 -0.319,8.473 -4.12,4.672 -4.12,0 c 0,-4.671 3.801,-8.472 8.472,-8.472 0.711,0 1.399,0.098 2.06,0.264 C 2.735,-7.284 0,-3.96 0,0" style="fill:#231f20;fill-opacity:1;fill-rule:nonzero;stroke:none;stroke-width:11.962966919" id="path1678"></path> </g> </g> </g> </g> <g style="stroke-width:11.962966919" id="g1686" transform="translate(59.8774,349.3604)"> <path d="m 0,0 -8.472,-5.56 c 0,4.672 3.8,8.473 8.472,8.473 4.671,0 8.472,-3.801 8.472,-8.473 z" style="fill:#c96b1d;fill-opacity:1;fill-rule:nonzero;stroke:none;stroke-width:11.962966919" id="path1688"></path> </g> <g style="stroke-width:11.962966919" id="g1690" transform="translate(72.9233,328.3906)"> <path d="M 0,0 C -2.805,3.479 -7.641,4.19 -8.623,4.302 -8.88,4.311 -9.137,4.319 -9.406,4.319 h -7.279 c -0.269,0 -0.526,-0.008 -0.784,-0.017 C -18.451,4.19 -23.287,3.479 -26.091,0 c -2.604,-3.229 -3.787,-12.994 -4.044,-17.583 0.359,-3.609 2.643,-5.599 5.178,-7.455 l 0.696,-0.515 -0.181,-2.979 0.454,-0.388 c 1.066,-0.908 3.912,-2.41 10.942,-2.471 7.037,0.061 9.877,1.563 10.943,2.471 l 0.454,0.388 -0.182,2.979 0.697,0.515 c 2.533,1.855 4.816,3.844 5.177,7.45 C 3.789,-13.007 2.607,-3.233 0,0" style="fill:#cc0000;fill-opacity:1;fill-rule:nonzero;stroke:none;stroke-width:11.962966919" id="path1692"></path> </g> <g style="stroke-width:11.962966919" id="g1694"> <g style="stroke-width:11.962966919" id="g1696"></g> <g style="stroke-width:11.962966919" id="g1708"> <g clip-path="url(#clipPath1700)" id="g1706" style="opacity:0.199997008;stroke-width:11.962966919"> <g style="stroke-width:11.962966919" transform="translate(52.9453,297.7158)" id="g1704"> <path d="m 0,0 v 25.773 c 0,0.078 -0.093,0.116 -0.148,0.062 l -1.756,-1.757 c -0.84,-0.84 -1.344,-1.959 -1.416,-3.145 L -4.463,2.142 -4.01,1.755 C -3.402,1.236 -2.211,0.526 0,0" style="fill:#000000;fill-opacity:1;fill-rule:nonzero;stroke:none;stroke-width:11.962966919" id="path1702"></path> </g> </g> </g> </g> <g style="stroke-width:11.962966919" id="g1710" transform="translate(71.2739,299.8584)"> <path d="M 0,0 V 0 L -0.17,2.799 Z" style="fill:#f5a326;fill-opacity:1;fill-rule:nonzero;stroke:none;stroke-width:11.962966919" id="path1712"></path> </g> <g style="stroke-width:11.962966919" id="g1714"> <g style="stroke-width:11.962966919" id="g1716"></g> <g style="stroke-width:11.962966919" id="g1728"> <g clip-path="url(#clipPath1720)" id="g1726" style="opacity:0.199997008;stroke-width:11.962966919"> <g style="stroke-width:11.962966919" transform="translate(72.2129,303.667)" id="g1724"> <path d="m 0,0 -0.729,14.311 c -0.036,0.71 -0.335,1.381 -0.838,1.885 l -0.508,0.508 c -0.041,0.041 -0.113,0.01 -0.109,-0.049 l 1.064,-17.484 0.696,0.515 C -0.281,-0.21 -0.14,-0.105 0,0" style="fill:#000000;fill-opacity:1;fill-rule:nonzero;stroke:none;stroke-width:11.962966919" id="path1722"></path> </g> </g> </g> </g> <g style="stroke-width:11.962966919" id="g1730" transform="translate(54.4902,332.543)"> <path d="M 0,0 0.245,-0.225 C 3.25,-2.988 7.9,-2.891 10.787,-0.002 10.579,0.037 10.393,0.068 10.234,0.092 9.985,0.13 9.738,0.152 9.486,0.16 9.335,0.164 9.183,0.167 9.027,0.167 H 1.748 C 1.591,0.167 1.439,0.164 1.288,0.16 1.038,0.152 0.791,0.13 0.543,0.093 0.387,0.069 0.204,0.039 0,0" style="fill:#f0ac70;fill-opacity:1;fill-rule:nonzero;stroke:none;stroke-width:11.962966919" id="path1732"></path> </g> <g style="stroke-width:11.962966919" id="g1734" transform="translate(67.606,323.1855)"> <path d="m 0,0 v -4.884 c 0,-0.203 -0.123,-0.385 -0.31,-0.459 l -2.775,-1.126 c -0.064,-0.021 -0.123,-0.032 -0.187,-0.032 -0.064,0 -0.128,0.011 -0.186,0.032 l -2.776,1.126 c -0.187,0.074 -0.31,0.256 -0.31,0.459 V 0 c 0,0.272 0.219,0.496 0.497,0.496 h 5.55 C -0.224,0.496 0,0.272 0,0" style="fill:#cc0000;fill-opacity:1;fill-rule:nonzero;stroke:none;stroke-width:11.962966919" id="path1736"></path> </g> <g style="stroke-width:11.962966919" id="g1738"> <g style="stroke-width:11.962966919" id="g1740"></g> <g style="stroke-width:11.962966919" id="g1752"> <g clip-path="url(#clipPath1744)" id="g1750" style="opacity:0.25;stroke-width:11.962966919"> <g style="stroke-width:11.962966919" transform="translate(67.606,323.1855)" id="g1748"> <path d="m 0,0 v -4.884 c 0,-0.203 -0.123,-0.385 -0.31,-0.459 l -2.775,-1.126 c -0.064,-0.021 -0.123,-0.032 -0.187,-0.032 -0.064,0 -0.128,0.011 -0.186,0.032 l -2.776,1.126 c -0.187,0.074 -0.31,0.256 -0.31,0.459 V 0 c 0,0.272 0.219,0.496 0.497,0.496 h 5.55 C -0.224,0.496 0,0.272 0,0" style="fill:#000000;fill-opacity:1;fill-rule:nonzero;stroke:none;stroke-width:11.962966919" id="path1746"></path> </g> </g> </g> </g> </g>
</svg>
