<?xml version="1.0"?>

<!-- Created with Inkscape (http://www.inkscape.org/) --> <svg xmlns:dc="http://purl.org/dc/elements/1.1/" xmlns:cc="http://creativecommons.org/ns#" xmlns:rdf="http://www.w3.org/1999/02/22-rdf-syntax-ns#" xmlns:svg="http://www.w3.org/2000/svg" xmlns="http://www.w3.org/2000/svg" xmlns:xlink="http://www.w3.org/1999/xlink" xmlns:sodipodi="http://sodipodi.sourceforge.net/DTD/sodipodi-0.dtd" xmlns:inkscape="http://www.inkscape.org/namespaces/inkscape" width="100" height="100" viewBox="0 0 100 100" id="svg2" version="1.1" inkscape:version="0.91+devel+osxmenu r12922" sodipodi:docname="tickr3.svg"> <metadata id="metadata1"> <rdf:rdf> <cc:work rdf:about=""> <dc:format>image/svg+xml</dc:format> <dc:type rdf:resource="http://purl.org/dc/dcmitype/StillImage"></dc:type> <dc:title></dc:title> <dc:creator> <cc:agent> <dc:title>Andy Fitzsimon</dc:title> </cc:agent> </dc:creator> <dc:source>ndftz.com</dc:source> </cc:work> </rdf:rdf> </metadata> <defs id="defs1"> <linearGradient inkscape:collect="always" id="linearGradient12163"> <stop style="stop-color:#92d400;stop-opacity:1;" offset="0" id="stop12165"></stop> <stop style="stop-color:#92d400;stop-opacity:0;" offset="1" id="stop12167"></stop> </linearGradient> <linearGradient inkscape:collect="always" id="linearGradient11919"> <stop style="stop-color:#000000;stop-opacity:1;" offset="0" id="stop11921"></stop> <stop style="stop-color:#000000;stop-opacity:0;" offset="1" id="stop11923"></stop> </linearGradient> <filter inkscape:collect="always" style="color-interpolation-filters:sRGB" id="filter11914" x="-0.0583" width="1.12" y="-0.408" height="1.82"> <feGaussianBlur inkscape:collect="always" stdDeviation="1.89" id="feGaussianBlur11916"></feGaussianBlur> </filter> <linearGradient inkscape:collect="always" xlink:href="#linearGradient11919" id="linearGradient11925" x1="50.1" y1="118" x2="50.1" y2="75.1" gradientUnits="userSpaceOnUse"></linearGradient> <linearGradient inkscape:collect="always" xlink:href="#linearGradient12163" id="linearGradient12169" x1="-14" y1="-30" x2="88.5" y2="72.5" gradientUnits="userSpaceOnUse" gradientTransform="matrix(0.675,0.675,-0.675,0.675,50,-17.5)"></linearGradient> </defs> <sodipodi:namedview id="base" pagecolor="#f5f6f7" bordercolor="#808b97" borderopacity="0.6706" inkscape:pageopacity="0" inkscape:pageshadow="2" inkscape:zoom="1" inkscape:cx="49.9" inkscape:cy="47.1" inkscape:document-units="px" inkscape:current-layer="svg2" showgrid="false" units="px" inkscape:showpageshadow="false" inkscape:window-width="1283" inkscape:window-height="559" inkscape:window-x="443" inkscape:window-y="419" inkscape:window-maximized="0" inkscape:snap-global="false" showguides="false"> <inkscape:grid type="xygrid" id="grid" spacingx="4" spacingy="4" empspacing="0" color="#7f889a" opacity="0.12549" empcolor="#6f7d82" empopacity="0.2902" dotted="false"></inkscape:grid> </sodipodi:namedview> <path style="fill:url(#linearGradient11925);fill-opacity:1;stroke-width:1.001;filter:url(#filter11914)" d="m 88.9,88.6 c 0.2,3.1 -17.3,5.6 -38.9,5.6 -21.6,0 -39.1,-2.5 -38.9,-5.6 0.2,-3 17.6,-10.2 38.9,-10.2 21.3,0 38.7,7.2 38.9,10.2 z" id="path11163" inkscape:connector-curvature="0" sodipodi:nodetypes="csccc"></path> <circle r="45" cy="0.0957" cx="70.7" id="circle11165" style="fill:#3f9c35" transform="rotate(45)"></circle> <path style="fill:url(#linearGradient12169);fill-opacity:1;stroke-width:1" d="M 22.3,77.7 C 7.01,62.4 6.98,37.7 22.3,22.3 37.7,7.04 62.4,7 77.7,22.3 Z" id="circle11167" inkscape:connector-curvature="0" sodipodi:nodetypes="cscc"></path> <path inkscape:connector-curvature="0" id="path12161" d="m 72.2,31.8 c -1.3,0 -2.5,0.5 -3.4,1.5 L 45,57 36.9,48.9 c -2,-1.8 -5,-1.8 -6.8,0 -2,1.9 -2,4.9 0,6.8 l 11.2,11.2 c 0,0.1 0.1,0.1 0.1,0.2 0.1,0 0.1,0 0.2,0 1.8,2 4.8,2 6.8,0 L 75.5,40 c 2,-1.9 2,-4.9 0,-6.7 -0.8,-1 -2.1,-1.5 -3.3,-1.5 z" style="fill:#dcdcdc;stroke:#3f9c35;stroke-width:2.001;stroke-miterlimit:4;stroke-dasharray:none"></path> <path style="fill:#dcdcdc;stroke-width:1" d="m 72.2,31.8 c -1.3,0 -2.5,0.5 -3.4,1.5 L 45,57 36.9,48.9 c -2,-1.8 -5,-1.8 -6.8,0 -2,1.9 -2,4.9 0,6.8 l 11.2,11.2 c 0,0.1 0.1,0.1 0.1,0.2 0.1,0 0.1,0 0.2,0 1.8,2 4.8,2 6.8,0 L 75.5,40 c 2,-1.9 2,-4.9 0,-6.7 -0.8,-1 -2.1,-1.5 -3.3,-1.5 z" id="rect11951" inkscape:connector-curvature="0"></path> <path transform="matrix(0.809,0,0,0.807,12.1,9.64)" sodipodi:type="inkscape:offset" inkscape:radius="0" inkscape:original="M 74 27.4 C 72.5 27.4 71 28 69.8 29.2 L 40.4 58.6 L 30.4 48.6 C 28 46.3 24.3 46.3 22 48.6 C 21.7 48.9 21.5 49.2 21.2 49.5 C 21.5 49.8 21.7 50.1 22 50.4 L 35.9 64.3 C 35.9 64.4 36 64.4 36 64.5 C 36.1 64.5 36.1 64.6 36.2 64.6 C 39.9 68.3 41.2 68 44.6 64.6 L 78.2 31 C 78.5 30.7 78.7 30.4 79 30.1 C 78.7 29.8 78.5 29.5 78.2 29.2 C 77.1 28 75.5 27.4 74 27.4 z " style="fill:#ffffff;stroke-width:1.238" id="path12093" d="m 74,27.4 c -1.5,0 -3,0.6 -4.2,1.8 l -29.4,29.4 -10,-10 c -2.4,-2.3 -6.1,-2.3 -8.4,0 -0.3,0.3 -0.5,0.6 -0.8,0.9 0.3,0.3 0.5,0.6 0.8,0.9 l 13.9,13.9 c 0,0.1 0.1,0.1 0.1,0.2 0.1,0 0.1,0.1 0.2,0.1 3.7,3.7 5,3.4 8.4,0 L 78.2,31 C 78.5,30.7 78.7,30.4 79,30.1 78.7,29.8 78.5,29.5 78.2,29.2 77.1,28 75.5,27.4 74,27.4 Z"></path> <path style="color:#000000;font-style:normal;font-variant:normal;font-weight:normal;font-stretch:normal;font-size:medium;line-height:normal;font-family:sans-serif;font-variant-ligatures:none;font-variant-position:normal;font-variant-caps:normal;font-variant-numeric:normal;font-variant-alternates:normal;font-feature-settings:normal;text-indent:0;text-align:start;text-decoration:none;text-decoration-line:none;text-decoration-style:solid;text-decoration-color:#000000;letter-spacing:normal;word-spacing:normal;text-transform:none;direction:ltr;block-progression:tb;writing-mode:lr-tb;baseline-shift:baseline;text-anchor:start;white-space:normal;shape-padding:0;clip-rule:nonzero;display:inline;overflow:visible;visibility:visible;opacity:1;isolation:auto;mix-blend-mode:normal;color-interpolation:sRGB;color-interpolation-filters:linearRGB;solid-color:#000000;solid-opacity:1;fill:#92d400;fill-opacity:1;fill-rule:nonzero;stroke:none;stroke-width:3;stroke-linecap:butt;stroke-linejoin:miter;stroke-miterlimit:4;stroke-dasharray:none;stroke-dashoffset:0;stroke-opacity:1;color-rendering:auto;image-rendering:auto;shape-rendering:auto;text-rendering:auto;enable-background:accumulate" d="M 77.6,22.4 C 62.3,7.02 37.5,7.09 22.2,22.4 6.96,37.7 6.89,62.4 22.2,77.8 37.5,93 62.5,93.1 77.8,78 93.1,62.7 92.9,37.7 77.6,22.4 Z m -2,2 C 89.7,38.5 90,61.7 75.8,75.9 61.6,90.1 38.4,89.9 24.3,75.7 10.1,61.5 10.1,38.5 24.3,24.4 c 14.1,-14.2 37,-14.2 51.3,0 z" id="circle12209" inkscape:connector-curvature="0"></path> <path inkscape:connector-curvature="0" id="path12213" d="M 77.6,22.4 C 62.3,7.02 37.5,7.09 22.2,22.4 6.96,37.7 6.89,62.4 22.2,77.8 m 2.1,-2.1 c -14.2,-14.2 -14.2,-37.2 0,-51.3 14.1,-14.2 37,-14.2 51.3,0" style="color:#000000;font-style:normal;font-variant:normal;font-weight:normal;font-stretch:normal;font-size:medium;line-height:normal;font-family:sans-serif;font-variant-ligatures:none;font-variant-position:normal;font-variant-caps:normal;font-variant-numeric:normal;font-variant-alternates:normal;font-feature-settings:normal;text-indent:0;text-align:start;text-decoration:none;text-decoration-line:none;text-decoration-style:solid;text-decoration-color:#000000;letter-spacing:normal;word-spacing:normal;text-transform:none;direction:ltr;block-progression:tb;writing-mode:lr-tb;baseline-shift:baseline;text-anchor:start;white-space:normal;shape-padding:0;clip-rule:nonzero;display:inline;overflow:visible;visibility:visible;opacity:1;isolation:auto;mix-blend-mode:normal;color-interpolation:sRGB;color-interpolation-filters:linearRGB;solid-color:#000000;solid-opacity:1;fill:#d9f0a6;fill-opacity:1;fill-rule:nonzero;stroke:none;stroke-width:3;stroke-linecap:butt;stroke-linejoin:miter;stroke-miterlimit:4;stroke-dasharray:none;stroke-dashoffset:0;stroke-opacity:1;color-rendering:auto;image-rendering:auto;shape-rendering:auto;text-rendering:auto;enable-background:accumulate" sodipodi:nodetypes="cccccc"></path>
</svg>
