<svg xmlns="http://www.w3.org/2000/svg" viewBox="0 0 92 90">
   
  <path class="fill-grey"
    d="m 19.22,75.16 c 0,1.2 0.89,2.1 
       1.99,2.1 1.1,0 1.99,-0.9 1.99,-2.1 0,-1.1 
       -0.89,-1.9 -1.99,-1.9 -1.1,0 
       -1.99,0.8 -1.99,1.9 z M 14.78,33.55 c 
       -2.14,1.24 -3.25,1.91 -4.32,0.1 -1.031,
       -1.79 0.13,-2.43 1.77,-3.14 m 53.45,
       -9.32 6.84,0 0.71,-4.68 c 1.19,-1.75 
       3.39,-1.67 4.99,-0.14 l 3.58,0 c 1.2,0 
       1.1,-6.641 0,-6.641 l -3.58,0 c 
       -2.6,0.901 -4.2,0.831 -6.2,-0.8 l 
       -5.93,0 c -4.59,0 -9.92,4.611 -10.84,9.971
       -0.32,1.89 0.79,1.92 1.45,0.8 2.29,-3.84 
       7.3,-8.05 7.89,-4.29 z M 9.949,26.29 
       C 7.299,20.02 8.469,14.15 11.97,12.31 l 
       3.17,8.36 3.74,2.86 4.21,-2.14 0.68,-4.54 
       -2.89,-7.991 c 5.6,-2.46 11.89,8.141 
       11.89,13.981 0,9.13 -8.22,8.89 -8,15.68 
       l 1.18,36.64 c 0.1,2.6 -2.11,4.8 -4.74,4.8 
       -2.63,0 -4.82,-2.2 -4.74,-4.8 l 1.18,
       -36.64 c 0.13,-3.98 -4.48,-4.6 -7.701,
       -12.23 z m 32.481,19.43 0,-21.2 -1.47,
       -4.88 1.87,-10.071 3.74,0 1.87,10.071 
       -1.47,4.88 0,21.2 m 19.63,-24.55 0,
       22.29 5.53,0 0,-22.29"/>
  
  <path class="fill-red"
    d="m 71.98,43.35 c 0.86,0 1.54,0.69 1.54,1.55 
       l 0,33.06 c 0,2.64 -8.32,2.54 -8.32,0 l 0,
       -33.06 c 0,-0.86 0.69,-1.55 1.55,-1.55 m 
       -29.52,2.36 14.94,0 0,4.71 c -2,1.25 
       -2.97,4.34 0,6.87 l 0,20.27 c 0,4.24 
       -14.94,4.34 -14.94,0 l 0,-20.27 c 2,
       -2.29 2.43,-4.58 0,-6.87 z"/>
  <g>
  <path   class="shade fill-dark-red"
    d="M39.78 80.1v-19c0-.67.53-1.2 1.2-1.2.64 
       0 1.18.53 1.18 1.2v19.5m5.1 
       0V61.1c0-.67.52-1.2 1.18-1.2.65 0 
       1.18.53 1.18 1.2v19"/></g>
  
  <path fill="none"  class="shade"
        stroke="#aaa" 
        d="M78.22 16.37c.8-1.23.6-5.6 0-6.64M18.8 
           23.53l-8.25 4.07m10.2-.78l2.25 
           3m-.22-4.1l2.25 3m-.23-4.12l2.25 3"
        /></svg>