<?xml version="1.0"?>

<svg xmlns:dc="http://purl.org/dc/elements/1.1/" xmlns:cc="http://creativecommons.org/ns#" xmlns:rdf="http://www.w3.org/1999/02/22-rdf-syntax-ns#" xmlns:svg="http://www.w3.org/2000/svg" xmlns="http://www.w3.org/2000/svg" id="svg" version="1.1" viewBox="0 0 10 10" height="512" width="512"> <defs id="defs10"> <clipPath id="clipPath1216" clipPathUnits="userSpaceOnUse"> <path id="path1214" d="m 308.113,315.29 h 6.358 v -15.907 h -6.358 z"></path> </clipPath> <clipPath id="clipPath1236" clipPathUnits="userSpaceOnUse"> <path id="path1234" d="m 309.888,313.716 h 12.759 v -12.759 h -12.759 z"></path> </clipPath> <clipPath id="clipPath1268" clipPathUnits="userSpaceOnUse"> <path id="path1266" d="m 232.596,318.757 h 95.395 v -9.919 h -95.395 z"></path> </clipPath> <clipPath id="clipPath1288" clipPathUnits="userSpaceOnUse"> <path id="path1286" d="m 326.063,309.418 h 2.582 v -0.755 h -2.582 z"></path> </clipPath> <clipPath id="clipPath1308" clipPathUnits="userSpaceOnUse"> <path id="path1306" d="m 287.077,322.799 h 40.206 v -11.847 h -40.206 z"></path> </clipPath> <clipPath id="clipPath1324" clipPathUnits="userSpaceOnUse"> <path id="path1322" d="m 231.644,309.247 h 4.966 v -1.208 h -4.966 z"></path> </clipPath> <clipPath id="clipPath1360" clipPathUnits="userSpaceOnUse"> <path id="path1358" d="m 233.19,357 h 64.475 v -1.492 H 233.19 Z"></path> </clipPath> <clipPath id="clipPath1376" clipPathUnits="userSpaceOnUse"> <path id="path1374" d="m 233.19,356.998 h 2.508 v -44.896 h -2.508 z"></path> </clipPath> <clipPath id="clipPath1416" clipPathUnits="userSpaceOnUse"> <path id="path1414" d="m 287.077,342.072 h 1.119 v -29.97 h -1.119 z"></path> </clipPath> <clipPath id="clipPath1430" clipPathUnits="userSpaceOnUse"> <path id="path1428" d="m 233.19,318.638 h 53.887 v -4.792 H 233.19 Z"></path> </clipPath> <clipPath id="clipPath1452" clipPathUnits="userSpaceOnUse"> <path id="path1450" d="m 239.728,315.29 h 6.358 v -15.907 h -6.358 z"></path> </clipPath> <clipPath id="clipPath1472" clipPathUnits="userSpaceOnUse"> <path id="path1470" d="m 241.503,313.716 h 12.759 v -12.759 h -12.759 z"></path> </clipPath> </defs> <metadata id="metadata3728"> <rdf:rdf> <cc:work rdf:about=""> <dc:title></dc:title> <dc:format>image/svg+xml</dc:format> <dc:type rdf:resource="http://purl.org/dc/dcmitype/StillImage"></dc:type> </cc:work> </rdf:rdf> </metadata> <g style="stroke-width:13.627429008" id="g5993" transform="matrix(0.097841887,0,0,-0.097841887,-22.2719863,37.6024621)"> <g style="stroke-width:13.627429008" id="g1200" transform="translate(305.0659,320.3828)"> <path d="M 0,0 20.071,-3.067 21.224,-13.99 H 0 Z" style="fill:#2b2b2b;fill-opacity:1;fill-rule:nonzero;stroke:none;stroke-width:13.627429008" id="path1202"></path> </g> <path d="m 236.61,321.084 h 22.707 V 306.393 H 236.61 Z" style="fill:#2b2b2b;fill-opacity:1;fill-rule:nonzero;stroke:none;stroke-width:13.627429008" id="path1204"></path> <g style="stroke-width:13.627429008" id="g1206" transform="translate(324.4229,307.3359)"> <path d="m 0,0 c 0,-4.503 -3.651,-8.154 -8.155,-8.154 -4.504,0 -8.155,3.651 -8.155,8.154 0,4.504 3.651,8.155 8.155,8.155 C -3.651,8.155 0,4.504 0,0" style="fill:#414042;fill-opacity:1;fill-rule:nonzero;stroke:none;stroke-width:13.627429008" id="path1208"></path> </g> <g style="stroke-width:13.627429008" id="g1210"> <g style="stroke-width:13.627429008" id="g1212"></g> <g style="stroke-width:13.627429008" id="g1224"> <g clip-path="url(#clipPath1216)" id="g1222" style="opacity:0.300002992;stroke-width:13.627429008"> <g style="stroke-width:13.627429008" transform="translate(313.2476,307.3359)" id="g1220"> <path d="M 0,0 C 0,2.92 0.449,5.645 1.223,7.954 -2.416,7.136 -5.135,3.887 -5.135,0 c 0,-3.886 2.719,-7.135 6.358,-7.953 C 0.449,-5.644 0,-2.919 0,0" style="fill:#4c4c4c;fill-opacity:1;fill-rule:nonzero;stroke:none;stroke-width:13.627429008" id="path1218"></path> </g> </g> </g> </g> <g style="stroke-width:13.627429008" id="g1226" transform="translate(320.6475,307.3359)"> <path d="m 0,0 c 0,-2.418 -1.961,-4.379 -4.379,-4.379 -2.419,0 -4.38,1.961 -4.38,4.379 0,2.419 1.961,4.38 4.38,4.38 C -1.961,4.38 0,2.419 0,0" style="fill:#ffffff;fill-opacity:1;fill-rule:nonzero;stroke:none;stroke-width:13.627429008" id="path1228"></path> </g> <g style="stroke-width:13.627429008" id="g1230"> <g style="stroke-width:13.627429008" id="g1232"></g> <g style="stroke-width:13.627429008" id="g1244"> <g clip-path="url(#clipPath1236)" id="g1242" style="opacity:0.25;stroke-width:13.627429008"> <g style="stroke-width:13.627429008" transform="translate(316.2681,313.7158)" id="g1240"> <path d="m 0,0 c -3.518,0 -6.38,-2.861 -6.38,-6.38 0,-3.517 2.862,-6.379 6.38,-6.379 3.518,0 6.379,2.862 6.379,6.379 C 6.379,-2.861 3.518,0 0,0 m 0,-2 c 2.418,0 4.379,-1.961 4.379,-4.38 0,-2.418 -1.961,-4.379 -4.379,-4.379 -2.419,0 -4.38,1.961 -4.38,4.379 0,2.419 1.961,4.38 4.38,4.38" style="fill:#000000;fill-opacity:1;fill-rule:nonzero;stroke:none;stroke-width:13.627429008" id="path1238"></path> </g> </g> </g> </g> <g style="stroke-width:13.627429008" id="g1246" transform="translate(319.2881,307.3359)"> <path d="m 0,0 c 0,-1.668 -1.352,-3.02 -3.02,-3.02 -1.668,0 -3.021,1.352 -3.021,3.02 0,1.669 1.353,3.021 3.021,3.021 C -1.352,3.021 0,1.669 0,0" style="fill:#dcdcdc;fill-opacity:1;fill-rule:nonzero;stroke:none;stroke-width:13.627429008" id="path1248"></path> </g> <g style="stroke-width:13.627429008" id="g1250" transform="translate(317.4761,307.3359)"> <path d="m 0,0 c 0,-0.667 -0.541,-1.208 -1.208,-1.208 -0.667,0 -1.209,0.541 -1.209,1.208 0,0.668 0.542,1.209 1.209,1.209 C -0.541,1.209 0,0.668 0,0" style="fill:#babcbe;fill-opacity:1;fill-rule:nonzero;stroke:none;stroke-width:13.627429008" id="path1252"></path> </g> <g style="stroke-width:13.627429008" id="g1254" transform="translate(239.5454,312.1016)"> <path d="m 0,0 h -6.949 v -5.709 h 5.725 c -0.03,0.311 -0.047,0.626 -0.047,0.944 0,1.734 0.464,3.36 1.271,4.765" style="fill:#919396;fill-opacity:1;fill-rule:nonzero;stroke:none;stroke-width:13.627429008" id="path1256"></path> </g> <g style="stroke-width:13.627429008" id="g1258" transform="translate(327.1812,310.9521)"> <path d="m 0,0 h -0.241 c -0.183,0.859 -0.65,1.856 -0.65,1.856 -0.149,0.27 -0.311,0.532 -0.48,0.789 C -2.008,3.611 -2.787,4.477 -3.679,5.21 -3.682,5.212 -3.685,5.215 -3.688,5.218 -3.836,5.34 -3.99,5.455 -4.144,5.569 -4.185,5.6 -4.224,5.631 -4.265,5.66 -4.403,5.76 -4.546,5.854 -4.689,5.948 -4.749,5.987 -4.809,6.027 -4.869,6.065 -5.004,6.15 -5.142,6.23 -5.28,6.31 -5.353,6.351 -5.426,6.393 -5.5,6.433 c -0.133,0.072 -0.269,0.141 -0.406,0.209 -0.082,0.04 -0.165,0.08 -0.248,0.118 -0.134,0.061 -0.269,0.121 -0.406,0.177 -0.089,0.038 -0.18,0.074 -0.272,0.108 -0.134,0.053 -0.27,0.102 -0.407,0.149 -0.096,0.034 -0.193,0.063 -0.29,0.093 -0.137,0.043 -0.274,0.085 -0.413,0.122 -0.1,0.028 -0.201,0.051 -0.301,0.075 -0.14,0.034 -0.28,0.068 -0.422,0.096 -0.102,0.021 -0.205,0.036 -0.308,0.055 -0.144,0.024 -0.287,0.05 -0.432,0.069 -0.1,0.014 -0.203,0.022 -0.304,0.032 -0.151,0.016 -0.301,0.034 -0.453,0.044 -0.077,0.005 -0.155,0.004 -0.232,0.008 -0.172,0.008 -0.345,0.017 -0.52,0.017 -3.171,0 -6.711,-1.301 -9.257,-3.396 C -21.577,3.252 -24.15,4.927 -24.72,3.37 L -40.104,1.149 v 4.033 h -1.633 V 1.149 h -28.875 c 0.779,-1.415 1.224,-3.039 1.224,-4.764 0,-0.319 -0.016,-0.633 -0.046,-0.945 h 48.959 c -0.03,0.311 -0.047,0.626 -0.047,0.945 0,5.298 4.311,9.607 9.608,9.607 5.299,0 9.609,-4.309 9.609,-9.607 0,-0.319 -0.016,-0.634 -0.047,-0.945 H 0.811 V 0 Z" style="fill:#919396;fill-opacity:1;fill-rule:nonzero;stroke:none;stroke-width:13.627429008" id="path1260"></path> </g> <g style="stroke-width:13.627429008" id="g1262"> <g style="stroke-width:13.627429008" id="g1264"></g> <g style="stroke-width:13.627429008" id="g1276"> <g clip-path="url(#clipPath1268)" id="g1274" style="opacity:0.300002992;stroke-width:13.627429008"> <g style="stroke-width:13.627429008" transform="translate(326.9399,310.9521)" id="g1272"> <path d="M 0,0 C -0.183,0.859 -0.65,1.856 -0.65,1.856 -0.798,2.126 -0.961,2.388 -1.13,2.645 -1.767,3.611 -2.546,4.477 -3.438,5.21 -3.441,5.212 -3.444,5.215 -3.447,5.218 -3.595,5.34 -3.749,5.455 -3.903,5.569 -3.943,5.6 -3.983,5.631 -4.023,5.66 -4.162,5.76 -4.305,5.854 -4.448,5.948 -4.508,5.987 -4.567,6.027 -4.628,6.065 -4.763,6.15 -4.9,6.23 -5.039,6.31 -5.112,6.351 -5.185,6.393 -5.258,6.433 -5.392,6.505 -5.528,6.574 -5.665,6.642 -5.747,6.682 -5.83,6.722 -5.913,6.76 -6.047,6.821 -6.182,6.881 -6.318,6.937 -6.408,6.975 -6.499,7.011 -6.59,7.045 -6.725,7.098 -6.861,7.147 -6.998,7.194 -7.094,7.228 -7.19,7.257 -7.288,7.287 -7.424,7.33 -7.562,7.372 -7.701,7.409 -7.8,7.437 -7.901,7.46 -8.002,7.484 c -0.14,0.034 -0.28,0.068 -0.421,0.096 -0.102,0.021 -0.206,0.036 -0.309,0.055 -0.143,0.024 -0.287,0.05 -0.432,0.069 -0.1,0.014 -0.203,0.022 -0.304,0.032 -0.151,0.016 -0.301,0.034 -0.453,0.044 -0.077,0.005 -0.155,0.004 -0.232,0.008 -0.172,0.008 -0.345,0.017 -0.519,0.017 -3.172,0 -6.712,-1.301 -9.258,-3.396 -1.406,-1.157 -3.979,0.518 -4.549,-1.039 L -39.863,1.149 v 4.033 h -1.633 V 1.149 h -28.875 c 0.365,-0.662 0.653,-1.371 0.86,-2.114 h 49.605 c 1.154,4.013 4.855,6.957 9.234,6.957 4.787,0 8.767,-3.519 9.49,-8.106 H 1.052 V 0 Z m -94.344,-0.965 h 6.056 c 0.215,0.745 0.515,1.455 0.893,2.114 h -6.949 z" style="fill:#4c4c4c;fill-opacity:1;fill-rule:nonzero;stroke:none;stroke-width:13.627429008" id="path1270"></path> </g> </g> </g> </g> <g style="stroke-width:13.627429008" id="g1278" transform="translate(327.8901,308.6631)"> <path d="M 0,0 H -1.828 V 1.51 H 0 C 0.417,1.51 0.755,1.172 0.755,0.755 0.755,0.338 0.417,0 0,0" style="fill:#cc0000;fill-opacity:1;fill-rule:nonzero;stroke:none;stroke-width:13.627429008" id="path1280"></path> </g> <g style="stroke-width:13.627429008" id="g1282"> <g style="stroke-width:13.627429008" id="g1284"></g> <g style="stroke-width:13.627429008" id="g1296"> <g clip-path="url(#clipPath1288)" id="g1294" style="opacity:0.139999031;stroke-width:13.627429008"> <g style="stroke-width:13.627429008" transform="translate(326.0625,308.6631)" id="g1292"> <path d="M 0,0 H 1.828 C 2.245,0 2.583,0.338 2.583,0.755 H 0 Z" style="fill:#4c4c4c;fill-opacity:1;fill-rule:nonzero;stroke:none;stroke-width:13.627429008" id="path1290"></path> </g> </g> </g> </g> <g style="stroke-width:13.627429008" id="g1298" transform="translate(236.6104,308.0391)"> <path d="m 0,0 h -3.758 c -0.667,0 -1.208,0.541 -1.208,1.208 0,0.667 0.541,1.208 1.208,1.208 H 0 Z" style="fill:#cc0000;fill-opacity:1;fill-rule:nonzero;stroke:none;stroke-width:13.627429008" id="path1300"></path> </g> <g style="stroke-width:13.627429008" id="g1302"> <g style="stroke-width:13.627429008" id="g1304"></g> <g style="stroke-width:13.627429008" id="g1316"> <g clip-path="url(#clipPath1308)" id="g1314" style="opacity:0.139999031;stroke-width:13.627429008"> <g style="stroke-width:13.627429008" transform="translate(287.0771,312.1016)" id="g1312"> <path d="m 0,0 h 18.815 c 1.81,3.924 5.779,6.655 10.375,6.655 3.77,0 7.113,-1.839 9.194,-4.664 V 1.983 c 0.118,-0.161 0.239,-0.321 0.349,-0.488 0.008,-0.012 0.015,-0.024 0.023,-0.036 0.12,-0.184 0.236,-0.37 0.346,-0.561 0.037,-0.064 0.075,-0.127 0.111,-0.191 0,0 0.002,-0.005 0.003,-0.007 0.031,-0.066 0.471,-1.02 0.647,-1.849 h 0.158 0.083 0.102 l -0.993,6.371 v 3.062 c 0,0.844 -0.137,1.654 -0.387,2.414 H 0 Z" style="fill:#4c4c4c;fill-opacity:1;fill-rule:nonzero;stroke:none;stroke-width:13.627429008" id="path1310"></path> </g> </g> </g> </g> <g style="stroke-width:13.627429008" id="g1318"> <g style="stroke-width:13.627429008" id="g1320"></g> <g style="stroke-width:13.627429008" id="g1332"> <g clip-path="url(#clipPath1324)" id="g1330" style="opacity:0.139999031;stroke-width:13.627429008"> <g style="stroke-width:13.627429008" transform="translate(232.8521,308.0391)" id="g1328"> <path d="M 0,0 H 3.758 V 1.208 H -1.208 C -1.208,0.541 -0.667,0 0,0" style="fill:#4c4c4c;fill-opacity:1;fill-rule:nonzero;stroke:none;stroke-width:13.627429008" id="path1326"></path> </g> </g> </g> </g> <g style="stroke-width:13.627429008" id="g1334" transform="translate(326.167,321.752)"> <path d="m 0,0 h -4.361 c -0.167,0 -0.302,-0.135 -0.302,-0.302 0,-0.167 0.135,-0.302 0.302,-0.302 H 0.085 C 0.065,-0.4 0.036,-0.199 0,0" style="fill:#820000;fill-opacity:1;fill-rule:nonzero;stroke:none;stroke-width:13.627429008" id="path1336"></path> </g> <g style="stroke-width:13.627429008" id="g1338" transform="translate(321.5039,320.2822)"> <path d="m 0,0 c 0,-0.166 0.135,-0.302 0.302,-0.302 h 4.484 v 0.406 c 0,0.067 -0.003,0.132 -0.005,0.199 H 0.302 C 0.135,0.303 0,0.167 0,0" style="fill:#820000;fill-opacity:1;fill-rule:nonzero;stroke:none;stroke-width:13.627429008" id="path1340"></path> </g> <g style="stroke-width:13.627429008" id="g1342" transform="translate(321.8062,319.418)"> <path d="m 0,0 c -0.167,0 -0.302,-0.135 -0.302,-0.302 0,-0.167 0.135,-0.302 0.302,-0.302 H 4.484 V 0 Z" style="fill:#820000;fill-opacity:1;fill-rule:nonzero;stroke:none;stroke-width:13.627429008" id="path1344"></path> </g> <g style="stroke-width:13.627429008" id="g1346" transform="translate(297.665,355.5088)"> <path d="m 0,0 v -10.311 c 0,-0.823 -0.667,-1.491 -1.491,-1.491 h -9.097 V -43.407 H -64.475 V 0 c 0,0.823 0.668,1.491 1.492,1.491 H -1.491 C -0.667,1.491 0,0.823 0,0" style="fill:#dcdcdc;fill-opacity:1;fill-rule:nonzero;stroke:none;stroke-width:13.627429008" id="path1348"></path> </g> <g style="stroke-width:13.627429008" id="g1350" transform="translate(233.1904,349.9648)"> <path d="m 0,0 v -13.055 h 53.887 v 6.797 h 9.096 c 0.824,0 1.492,0.668 1.492,1.491 V 0 Z" style="fill:#bcbec0;fill-opacity:1;fill-rule:nonzero;stroke:none;stroke-width:13.627429008" id="path1352"></path> </g> <g style="stroke-width:13.627429008" id="g1354"> <g style="stroke-width:13.627429008" id="g1356"></g> <g style="stroke-width:13.627429008" id="g1368"> <g style="stroke-width:13.627429008" clip-path="url(#clipPath1360)" id="g1366"> <g style="stroke-width:13.627429008" transform="translate(296.1738,357)" id="g1364"> <path d="m 0,0 h -61.492 c -0.824,0 -1.491,-0.668 -1.491,-1.491 H 1.491 C 1.491,-0.668 0.824,0 0,0" style="fill:#dcdcdc;fill-opacity:1;fill-rule:nonzero;stroke:none;stroke-width:13.627429008" id="path1362"></path> </g> </g> </g> </g> <g style="stroke-width:13.627429008" id="g1370"> <g style="stroke-width:13.627429008" id="g1372"></g> <g style="stroke-width:13.627429008" id="g1384"> <g clip-path="url(#clipPath1376)" id="g1382" style="opacity:0.139999031;stroke-width:13.627429008"> <g style="stroke-width:13.627429008" transform="translate(235.6978,356.998)" id="g1380"> <path d="M 0,0 H -1.034 C -1.849,-0.01 -2.507,-0.672 -2.507,-1.489 V -44.896 H 0 Z" style="fill:#4c4c4c;fill-opacity:1;fill-rule:nonzero;stroke:none;stroke-width:13.627429008" id="path1378"></path> </g> </g> </g> </g> <g style="stroke-width:13.627429008" id="g1386" transform="translate(318.938,318.4365)"> <path d="M 0,0 C 0.101,-0.024 0.202,-0.048 0.301,-0.075 0.38,-0.097 0.458,-0.121 0.536,-0.145 0.614,-0.167 0.692,-0.19 0.77,-0.215 0.848,-0.239 0.927,-0.264 1.004,-0.29 1.132,-0.334 1.259,-0.381 1.385,-0.429 1.431,-0.446 1.477,-0.465 1.522,-0.482 1.576,-0.504 1.63,-0.524 1.684,-0.547 1.82,-0.604 1.955,-0.663 2.089,-0.725 2.115,-0.736 2.14,-0.749 2.166,-0.761 2.193,-0.774 2.22,-0.787 2.247,-0.8 c 0.03,-0.014 0.061,-0.028 0.09,-0.043 0.137,-0.067 0.273,-0.136 0.407,-0.209 0.055,-0.03 0.11,-0.061 0.165,-0.093 0.012,-0.006 0.025,-0.013 0.037,-0.021 0.006,-0.003 0.012,-0.006 0.017,-0.009 0.139,-0.079 0.276,-0.159 0.411,-0.244 0.061,-0.038 0.12,-0.078 0.18,-0.117 0.015,-0.01 0.03,-0.022 0.046,-0.031 0.007,-0.005 0.016,-0.01 0.023,-0.015 v -10e-4 c 0.12,-0.079 0.239,-0.158 0.356,-0.241 0.04,-0.03 0.08,-0.061 0.12,-0.091 0.154,-0.114 0.308,-0.23 0.456,-0.352 0.003,-0.003 0.006,-0.005 0.009,-0.008 0.892,-0.733 1.671,-1.598 2.308,-2.565 0.169,-0.257 0.332,-0.518 0.48,-0.788 0,0 0.467,-0.997 0.65,-1.856 H 8.161 8.243 8.345 L 8.243,-6.833 V 3.669 c 0,1.347 -0.902,2.526 -2.201,2.879 l -11.522,3.131 -4.964,4.965 -3.96,3.96 -4.159,4.158 c -0.56,0.559 -1.318,0.874 -2.109,0.874 h -3.164 -2.61 -5.415 V -6.335 h 18.816 c 1.809,3.924 5.778,6.655 10.375,6.655 0.917,0 1.808,-0.113 2.663,-0.319 C -0.005,0.001 -0.002,0 0,0" style="fill:#a30000;fill-opacity:1;fill-rule:nonzero;stroke:none;stroke-width:13.627429008" id="path1388"></path> </g> <g style="stroke-width:13.627429008" id="g1390" transform="translate(309.7671,328.1152)"> <path d="m 0,0 -10.91,10.91 c -0.28,0.279 -0.659,0.437 -1.055,0.437 H -20.08 V 0 Z" style="fill:#e4e5e6;fill-opacity:1;fill-rule:nonzero;stroke:none;stroke-width:13.627429008" id="path1392"></path> </g> <g style="stroke-width:13.627429008" id="g1394" transform="translate(299.2842,338.5986)"> <path d="m 0,0 -9.597,-9.598 v -0.885 h 4.387 l 7.846,7.846 z" style="fill:#ffffff;fill-opacity:1;fill-rule:nonzero;stroke:none;stroke-width:13.627429008" id="path1396"></path> </g> <g style="stroke-width:13.627429008" id="g1398" transform="translate(299.5625,328.1152)"> <path d="M 0,0 5.103,5.103 3.784,6.42 -2.636,0 Z" style="fill:#ffffff;fill-opacity:1;fill-rule:nonzero;stroke:none;stroke-width:13.627429008" id="path1400"></path> </g> <g style="stroke-width:13.627429008" id="g1402" transform="translate(289.687,332.334)"> <path d="M 0,0 7.128,7.128 H 6.073 L 0,1.055 Z" style="fill:#ffffff;fill-opacity:1;fill-rule:nonzero;stroke:none;stroke-width:13.627429008" id="path1404"></path> </g> <g style="stroke-width:13.627429008" id="g1406" transform="translate(316.2676,318.7568)"> <path d="M 0,0 C 0.917,0 1.808,-0.113 2.663,-0.319 2.666,-0.319 2.668,-0.32 2.67,-0.32 2.771,-0.345 2.872,-0.368 2.972,-0.396 3.051,-0.417 3.128,-0.441 3.207,-0.465 3.285,-0.487 3.363,-0.511 3.44,-0.535 3.519,-0.56 3.597,-0.584 3.674,-0.61 3.803,-0.654 3.929,-0.701 4.055,-0.749 4.101,-0.767 4.147,-0.785 4.192,-0.803 4.247,-0.824 4.3,-0.845 4.354,-0.867 4.49,-0.924 4.625,-0.983 4.759,-1.045 4.785,-1.057 4.811,-1.069 4.836,-1.081 4.863,-1.095 4.891,-1.107 4.917,-1.12 4.948,-1.135 4.978,-1.148 5.008,-1.163 5.145,-1.23 5.28,-1.3 5.414,-1.372 5.47,-1.402 5.525,-1.434 5.58,-1.465 5.592,-1.472 5.604,-1.479 5.617,-1.486 5.622,-1.489 5.628,-1.492 5.633,-1.495 5.772,-1.574 5.91,-1.654 6.044,-1.739 6.105,-1.777 6.165,-1.817 6.224,-1.856 6.24,-1.866 6.255,-1.878 6.271,-1.888 6.278,-1.893 6.286,-1.897 6.293,-1.902 v -0.001 c 0.12,-0.079 0.24,-0.159 0.356,-0.242 0.04,-0.029 0.08,-0.06 0.121,-0.09 0.154,-0.115 0.307,-0.23 0.455,-0.352 0.004,-0.003 0.006,-0.006 0.01,-0.009 0.891,-0.732 1.671,-1.597 2.307,-2.564 0.169,-0.257 0.332,-0.519 0.48,-0.788 0,0 0.14,-0.298 0.295,-0.707 h 0.597 V 1.626 H -29.19 v -8.281 h 18.815 C -8.565,-2.731 -4.597,0 0,0" style="fill:#820000;fill-opacity:1;fill-rule:nonzero;stroke:none;stroke-width:13.627429008" id="path1408"></path> </g> <g style="stroke-width:13.627429008" id="g1410"> <g style="stroke-width:13.627429008" id="g1412"></g> <g style="stroke-width:13.627429008" id="g1422"> <g clip-path="url(#clipPath1416)" id="g1420" style="opacity:0.139999031;stroke-width:13.627429008"> <path d="m 288.196,342.072 h -1.119 v -29.971 h 1.119 z" style="fill:#4c4c4c;fill-opacity:1;fill-rule:nonzero;stroke:none;stroke-width:13.627429008" id="path1418"></path> </g> </g> </g> <g style="stroke-width:13.627429008" id="g1424"> <g style="stroke-width:13.627429008" id="g1426"></g> <g style="stroke-width:13.627429008" id="g1436"> <g style="stroke-width:13.627429008" clip-path="url(#clipPath1430)" id="g1434"> <path d="m 233.19,313.847 h 53.887 v 4.791 H 233.19 Z" style="fill:#dcdcdc;fill-opacity:1;fill-rule:nonzero;stroke:none;stroke-width:13.627429008" id="path1432"></path> </g> </g> </g> <g style="stroke-width:13.627429008" id="g1438" transform="translate(238.0762,306.4219)"> <path d="M 0,0 C 0.001,-0.01 0.003,-0.02 0.004,-0.029 H 19.61 c 0.03,0.311 0.047,0.626 0.047,0.943 0,5.432 -4.419,9.851 -9.85,9.851 -1.563,0 -3.122,-0.378 -4.516,-1.098 C 4.575,9.298 3.906,8.841 3.302,8.309 L 3.27,8.281 C 3.08,8.111 2.89,7.93 2.708,7.739 L 2.667,7.697 C 2.485,7.506 2.313,7.31 2.138,7.094 1.813,6.69 1.517,6.257 1.251,5.794 L 1.21,5.723 C 1.09,5.507 0.977,5.285 0.876,5.07 L 0.829,4.966 C 0.718,4.72 0.624,4.491 0.551,4.288 0.541,4.261 0.531,4.234 0.522,4.206 0.444,3.985 0.371,3.753 0.311,3.529 0.3,3.494 0.29,3.46 0.283,3.433 0.224,3.207 0.171,2.97 0.122,2.707 L 0.097,2.567 C 0.055,2.317 0.022,2.069 0,1.823 L -0.009,1.708 C -0.032,1.423 -0.043,1.163 -0.043,0.914 c 0,-0.248 0.011,-0.508 0.035,-0.812 z" style="fill:#2b2b2b;fill-opacity:1;fill-rule:nonzero;stroke:none;stroke-width:13.627429008" id="path1440"></path> </g> <g style="stroke-width:13.627429008" id="g1442" transform="translate(256.0376,307.3359)"> <path d="m 0,0 c 0,-4.503 -3.651,-8.154 -8.155,-8.154 -4.504,0 -8.155,3.651 -8.155,8.154 0,4.504 3.651,8.155 8.155,8.155 C -3.651,8.155 0,4.504 0,0" style="fill:#414042;fill-opacity:1;fill-rule:nonzero;stroke:none;stroke-width:13.627429008" id="path1444"></path> </g> <g style="stroke-width:13.627429008" id="g1446"> <g style="stroke-width:13.627429008" id="g1448"></g> <g style="stroke-width:13.627429008" id="g1460"> <g clip-path="url(#clipPath1452)" id="g1458" style="opacity:0.300002992;stroke-width:13.627429008"> <g style="stroke-width:13.627429008" transform="translate(244.8623,307.3359)" id="g1456"> <path d="M 0,0 C 0,2.92 0.449,5.645 1.223,7.954 -2.416,7.136 -5.134,3.887 -5.134,0 c 0,-3.886 2.718,-7.135 6.357,-7.953 C 0.449,-5.644 0,-2.919 0,0" style="fill:#4c4c4c;fill-opacity:1;fill-rule:nonzero;stroke:none;stroke-width:13.627429008" id="path1454"></path> </g> </g> </g> </g> <g style="stroke-width:13.627429008" id="g1462" transform="translate(252.2622,307.3359)"> <path d="m 0,0 c 0,-2.418 -1.961,-4.379 -4.379,-4.379 -2.419,0 -4.38,1.961 -4.38,4.379 0,2.419 1.961,4.38 4.38,4.38 C -1.961,4.38 0,2.419 0,0" style="fill:#ffffff;fill-opacity:1;fill-rule:nonzero;stroke:none;stroke-width:13.627429008" id="path1464"></path> </g> <g style="stroke-width:13.627429008" id="g1466"> <g style="stroke-width:13.627429008" id="g1468"></g> <g style="stroke-width:13.627429008" id="g1480"> <g clip-path="url(#clipPath1472)" id="g1478" style="opacity:0.25;stroke-width:13.627429008"> <g style="stroke-width:13.627429008" transform="translate(247.8828,313.7158)" id="g1476"> <path d="m 0,0 c -3.518,0 -6.379,-2.861 -6.379,-6.38 0,-3.517 2.861,-6.379 6.379,-6.379 3.518,0 6.379,2.862 6.379,6.379 C 6.379,-2.861 3.518,0 0,0 m 0,-2 c 2.418,0 4.379,-1.961 4.379,-4.38 0,-2.418 -1.961,-4.379 -4.379,-4.379 -2.419,0 -4.379,1.961 -4.379,4.379 0,2.419 1.96,4.38 4.379,4.38" style="fill:#000000;fill-opacity:1;fill-rule:nonzero;stroke:none;stroke-width:13.627429008" id="path1474"></path> </g> </g> </g> </g> <g style="stroke-width:13.627429008" id="g1482" transform="translate(250.9033,307.3359)"> <path d="m 0,0 c 0,-1.668 -1.353,-3.02 -3.021,-3.02 -1.667,0 -3.02,1.352 -3.02,3.02 0,1.669 1.353,3.021 3.02,3.021 C -1.353,3.021 0,1.669 0,0" style="fill:#dcdcdc;fill-opacity:1;fill-rule:nonzero;stroke:none;stroke-width:13.627429008" id="path1484"></path> </g> <g style="stroke-width:13.627429008" id="g1486" transform="translate(249.0908,307.3359)"> <path d="m 0,0 c 0,-0.667 -0.541,-1.208 -1.208,-1.208 -0.667,0 -1.208,0.541 -1.208,1.208 0,0.668 0.541,1.209 1.208,1.209 C -0.541,1.209 0,0.668 0,0" style="fill:#babcbe;fill-opacity:1;fill-rule:nonzero;stroke:none;stroke-width:13.627429008" id="path1488"></path> </g> </g>
</svg>
