<?xml version="1.0" encoding="UTF-8" standalone="no"?>
<svg
   xmlns:dc="http://purl.org/dc/elements/1.1/"
   xmlns:cc="http://creativecommons.org/ns#"
   xmlns:rdf="http://www.w3.org/1999/02/22-rdf-syntax-ns#"
   xmlns:svg="http://www.w3.org/2000/svg"
   xmlns="http://www.w3.org/2000/svg"
   version="1.1"
   id="svg2"
   viewBox="0 0 10 10"
   height="10"
   width="10">
  <metadata
     id="metadata1">
    <rdf:rdf>
      <cc:work
         rdf:about="">
        <dc:format>image/svg+xml</dc:format>
        <dc:type
           rdf:resource="http://purl.org/dc/dcmitype/StillImage" />
        <dc:title />
        <dc:creator>
          <cc:agent>
            <dc:title>Andy Fitzsimon</dc:title>
          </cc:agent>
        </dc:creator>
        <dc:source>ndftz.com</dc:source>
      </cc:work>
    </rdf:rdf>
    <rdf:RDF>
      <cc:Work
         rdf:about="">
        <dc:format>image/svg+xml</dc:format>
        <dc:type
           rdf:resource="http://purl.org/dc/dcmitype/StillImage" />
        <dc:title></dc:title>
      </cc:Work>
    </rdf:RDF>
  </metadata>
  <defs
     id="defs1" />
  <path
     class="icon-shadow"
     d="M 8.945,8.899 H 5.014 1.064 C 0.596,8.893 0.305,8.592 0.54,8.352 H 9.492 C 9.74,8.604 9.421,8.911 8.945,8.899 Z"
     id="path8197" />
  <path
     class="fill-mid-red"
     id="path8151"
     d="m 1.086,8.742 3.931,-0.01 h 3.95 A 0.6088,0.6068 0 0 0 9.491,7.821 L 7.519,4.437 5.543,1.023 a 0.6088,0.6068 0 0 0 -1.053,0 L 2.535,4.427 0.539,7.831 a 0.6088,0.6068 0 0 0 0.547,0.911 z" />
  <path
     class="fill-shade"
     d="m 5.017,8.732 h 3.95 c 0.468,0 0.759,-0.506 0.524,-0.911 L 7.519,4.437 5.543,1.023 C 5.422,0.8207 5.219,0.7194 5.017,0.7194 Z"
     id="path8177" />
  <path
     class="fill-red"
     d="M 8.053,7.669 6.524,5.025 5.004,2.391 3.485,5.035 a 0.6453,0.6433 0 0 1 -0.01,0 l -1.53,2.634 3.059,-0.01 z"
     id="path8179" />
  <path
     class="fill-shade"
     id="path8287"
     d="M 8.053,7.669 6.524,5.025 5.004,2.391 v 5.267 z" />
  <path
     class="fill-light-grey"
     d="M 5.459,3.86 H 4.618 L 4.7,5.845 H 5.368 Z M 4.548,6.727 A 0.465,0.465 0 0 0 5.014,7.192 0.465,0.465 0 0 0 5.48,6.727 0.465,0.465 0 0 0 5.014,6.261 0.465,0.465 0 0 0 4.548,6.727 Z"
     id="rect8194" />
  <path
     class="fill-shade"
     id="path8285"
     d="M 5.459,3.86 H 5.034 V 5.845 H 5.368 Z M 5.014,7.192 C 5.277,7.192 5.48,6.99 5.48,6.727 5.48,6.473 5.267,6.261 5.014,6.261 c -0.254,0 -0.254,0.931 0,0.931 z" />
  <path
     class="fill-lightest-grey shade"
     id="path8314"
     d="M 5.006,1.592 A 0.1517,0.1517 0 0 0 4.883,1.668 L 3.125,4.715 a 0.1517,0.1517 0 0 0 -0.03,0.04 L 1.299,7.836 A 0.1517,0.1517 0 0 0 1.43,8.064 L 5.016,8.053 8.58,8.064 A 0.1517,0.1517 0 0 0 8.711,7.836 L 6.918,4.746 5.145,1.668 A 0.1517,0.1517 0 0 0 5.006,1.592 Z m 0,0.453 L 6.648,4.898 8.308,7.76 5.008,7.75 1.693,7.76 3.33,4.947 a 0.1517,0.1517 0 0 0 0.03,-0.04 z" />
</svg>
