<svg width="144" height="144" viewBox="0 0 144 144" class="icon icon-clock stroked">
<path class="long"  d="m 71.99,35.87 c 19.97,0.1 36.11,16.23 36.11,36.24 0,19.93 -16.32,35.99 -36.19,36.09 -19.94,0 -36.14,-16.16 -36.13,-36.14 0,-19.95 16.2,-36.14 36.19,-36.18 z m 0,-4.16 c 22.24,0 40.31,18.08 40.31,40.3 C 112.2,94.25 94.24,112.3 72.01,112.3 49.77,112.2 31.75,94.25 31.76,72.02 31.74,49.82 49.79,31.67 72,31.71 z"    />
<path class="short" d="m 40.56,54.1 5.96,3.5 M 97.38,87 103,90.2 m -30.96,-54.3 0,6.9 m 0,58.8 0,7 m 18.11,-67.7 -3.43,5.9 m -29.34,50.8 -3.41,6 m 49.43,-49.4 -5.95,3.2 m -50.8,29.4 -5.9,3.4 m 67.35,-18.1 -6.7,0 m -58.69,0 -6.97,0 m 18.23,-31.4 3.31,6 m 29.36,50.9 3.02,5.7 m -17.62,-52.7 0,21.7 12.37,7.1"
/>
</svg>