<svg width="144" height="144" viewBox="0 0 144 144" class="icon icon-label stroked">
<path class="long"  d="m 38.91,79.93 c -1.23,-1.25 -1.22,-3.26 0,-4.49 L 74,40.36 c 1.24,-1.23 3.67,-2.25 5.4,-2.25 h 23.5 c 1.7,0 3.1,1.43 3.1,3.17 V 64.1 c 0,1.75 -1,4.18 -2.2,5.41 L 68.31,105 c -1.24,1.2 -3.25,1.2 -4.48,0 L 38.91,79.93 z"  />
<path class="short" d="m 97.96,47.84 c 0,1.32 -1.06,2.38 -2.39,2.38 -1.32,0 -2.38,-1.06 -2.38,-2.38 0,-1.32 1.06,-2.39 2.38,-2.39 1.33,0 2.39,1.07 2.39,2.39 z" />
</svg>