<svg width="144" height="144" viewBox="0 0 144 144" class="icon icon-gov icon-government stroked">
<path class="long"  d="m 78.39,93.49 5.9,0 m 0,-25.7 -5.9,0 m 5.9,28.9 0,-32.1 -5.9,0 0,32.1 m -12.6,-3.2 -6.04,0 m 0,-25.7 6.04,0 m 0,28.9 0,-32.1 -6.04,0 0,32.1 m 38.54,0 0,-32.1 -5.9,0 0,32.1 m -40.73,0 0,-32.1 -5.94,0 0,32.1 m -4.23,-0.2 61.01,0 0,7.61 -61.01,0 z m 61.01,-39.52 0,7.62 -61.01,0 0,-7.62 m 30,-17.06 37.31,17.14 -73.59,0 z" />
<path class="short"  d="m 66.09,45.77 5.5,-2.59 18.7,8.6 m 2.1,41.71 5.9,0 m 0,-25.7 -5.9,0 m -40.73,25.7 -5.94,0 m 0,-25.7 5.94,0 m 50.84,32.51 -61.01,0" />
</svg>