<svg width="144" height="144" viewBox="0 0 144 144" class="icon icon-chair stroked">
<path class="long"  d="m 72,73 13.9,0 c 1.8,0 2.57,1.72 4.28,4.72 C 91.09,79.86 87.7,82 85.9,82 l -27.8,0 c -1.9,0 -5.1,-1 -4.4,-4 1.3,-3 2.5,-5 4.4,-5 z m -12.5,-11.65 0,0 0,0 0,0 0,0 2,-18.35 c 0.3,-3 1.3,-6 3,-8 1.4,-2 3.2,-3 5.1,-3 l 4.8,0 c 1.9,0 3.6,1 5.1,3 1.6,2 2.7,5 3,8 l 2,18.35 0,0 0,0 0,0 0,0 c 0.11,0.89 -0.14,2.87 -2.54,2.86 L 62.2,64.11 c -2.4,0 -2.85,-1.57 -2.7,-2.76 z m 8.3,11.65 0,-5 -6.7,0 c -3.55,0 -5.65,-2.44 -5.3,-7.14 L 57.7,42 c 1.1,-6.54 5.5,-12.92 11.9,-13 l 4.8,0 c 7.12,0.58 10.95,6.41 11.9,13 l 1.9,18.86 C 88.67,65.2 87.32,68 83.4,68 l -7.3,0 0,5 M 87.5,73.69 90.7,67 c 0.5,-2 1.7,-2 3.1,-2 0,0 2.3,0 2.8,0 2.1,0 1.8,3 1.8,3 0,1 -4,2 -4.1,2 l -4.1,11 c -0.7,2 -2.7,6 -5.3,6 l -6.8,0 c 0,0 -0.9,0 -1.2,0 -0.4,0 -0.4,1 -0.4,1 l 0,5 c 0,1 -0.7,1 -1.7,1 l -2.8,0 -2.8,0 c -1,0 -1.8,0 -1.8,-1 l 0,-5 c 0,0 0,-1 -0.3,-1 -0.3,0 -1.3,0 -1.3,0 l -6.7,0 c -2.7,0 -4.8,-3 -5.7,-6 L 49.7,70 c -0.2,0 -4.2,-1 -4.2,-2 0,0 -0.3,-3 1.9,-3 0.4,0 2.8,0 2.8,0 1.4,0 2.6,0 3,2 l 3.41,6.49 M 57,111 c 0,0 13.3,-19 29.9,0" />
<path class="short"  d="m 89.6,112.2 c 0,0.9 -0.7,1.6 -1.6,1.6 -0.9,0 -1.6,-0.7 -1.6,-1.6 0,-0.9 0.7,-1.6 1.6,-1.6 0.9,0 1.6,0.7 1.6,1.6 z m -15.7,0.9 c 0,1 -0.9,1.9 -1.9,1.9 -1,0 -1.9,-0.9 -1.9,-1.9 0,-1 0.9,-1.9 1.9,-1.9 1,0 1.9,0.9 1.9,1.9 z m -16.4,-0.9 c 0,0.9 -0.7,1.6 -1.6,1.6 -0.9,0 -1.6,-0.7 -1.6,-1.6 0,-0.9 0.7,-1.6 1.6,-1.6 0.9,0 1.6,0.7 1.6,1.6 z M 66.7,87 77.4,87 M 75,94 c -0.4,0 -0.4,1 -0.4,1 l 0.1,3 c 0,1 -0.8,1 -1.8,1 L 71,99 c -0.9,0 -1.7,0 -1.7,-1 l 0,-3 c 0,0 0,-1 -0.3,-1 -0.3,0 6.3,0 6,0 z m -3,5 0,12.2"  />
</svg>