<svg width="144" height="144" viewBox="0 0 144 144" class="icon icon-sports-play icon-strategy stroked">
<path class="long"  d="m 84.03,37.3 c 4.71,0 23.57,9.29 23.57,30.58 0,21.29 -14.84,30.95 -14.84,30.95 M 52.72,87.95 38.6,67.43 C 36.62,51.7 54.63,37.05 66.22,36.75 m 1.39,32.77 8.4,15.3"  />
<path class="short" d="m 81.43,36.64 3.99,-0.45 -1.4,1.11 0.67,1.66 z M 54.47,90.12 51,88.06 l 1.77,0 0.43,-1.73 z m 13.94,4.6 -10.62,10.58 m 0,-10.58 10.62,10.58 m 26.8,-42.38 -10.5,10.6 m 0,-10.6 10.5,10.6 M 68.11,53.63 57.56,64.22 m 0,-10.59 10.55,10.59 m -4.76,7.5 8.56,-4.6 m 21.7,34.18 c 0,2.6 -2.1,4.7 -4.7,4.7 -2.6,0 -4.7,-2.1 -4.7,-4.7 0,-2.58 2.1,-4.68 4.7,-4.68 2.6,0 4.7,2.1 4.7,4.68 z M 83.11,88.82 c 0,2.6 -2.1,4.7 -4.7,4.7 -2.6,0 -4.7,-2.1 -4.7,-4.7 0,-2.6 2.1,-4.7 4.7,-4.7 2.6,0 4.7,2.1 4.7,4.7 z m -7.5,-52.13 c 0,2.57 -2.1,4.65 -4.7,4.65 -2.6,0 -4.7,-2.08 -4.7,-4.65 0,-2.57 2.1,-4.65 4.7,-4.65 2.6,0 4.7,2.08 4.7,4.65 z" />
</svg>