
<svg width="144" height="144" viewBox="0 0 144 144" class="icon icon-network stroked">
<path class="long"   d="M 89.84,40.78 C 107.1,50.77 113,72.79 103.1,90.09 93.06,107.4 71.05,113.3 53.75,103.3 36.45,93.31 30.55,71.29 40.54,53.99 50.52,36.7 72.54,30.8 89.84,40.78 z"/>
<path class="short" d="m 87.51,51.84 c 0,0.74 -0.56,1.3 -1.29,1.3 -0.7,0 -1.29,-0.56 -1.29,-1.3 0,-0.71 0.59,-1.27 1.29,-1.27 0.73,0 1.29,0.56 1.29,1.27 z m 6.06,12.43 c 0,0.17 -0.14,0.31 -0.31,0.31 -0.18,0 -0.33,-0.14 -0.33,-0.31 0,-0.18 0.15,-0.32 0.33,-0.32 0.17,0 0.31,0.14 0.31,0.32 z m -6.32,16.82 c 0,0.2 -0.16,0.35 -0.35,0.35 -0.2,0 -0.36,-0.15 -0.36,-0.35 0,-0.19 0.16,-0.35 0.36,-0.35 0.19,0 0.35,0.16 0.35,0.35 z m -0.23,14.75 c 0,0.44 -0.36,0.79 -0.78,0.79 -0.44,0 -0.77,-0.35 -0.77,-0.79 0,-0.42 0.33,-0.76 0.77,-0.76 0.42,0 0.78,0.34 0.78,0.76 z M 52.93,82.42 c 0,0.38 -0.3,0.68 -0.67,0.68 -0.37,0 -0.67,-0.3 -0.67,-0.68 0,-0.36 0.3,-0.66 0.67,-0.66 0.37,0 0.67,0.3 0.67,0.66 z M 63.64,61.27 c 0,0.15 -0.12,0.28 -0.28,0.28 -0.15,0 -0.28,-0.13 -0.28,-0.28 0,-0.16 0.13,-0.28 0.28,-0.28 0.16,0 0.28,0.12 0.28,0.28 z m -10.56,1.15 c 0,0.42 -0.35,0.76 -0.76,0.76 -0.41,0 -0.74,-0.34 -0.74,-0.76 0,-0.41 0.33,-0.75 0.74,-0.75 0.41,0 0.76,0.34 0.76,0.75 z m 0.79,20 c 0,0.9 -0.72,1.63 -1.61,1.63 -0.9,0 -1.61,-0.73 -1.61,-1.63 0,-0.87 0.71,-1.6 1.61,-1.6 0.89,0 1.61,0.73 1.61,1.6 z m 34.37,13.4 c 0,1.13 -0.89,2.04 -2.02,2.04 -1.13,0 -2.03,-0.91 -2.03,-2.04 0,-1.11 0.9,-2.02 2.03,-2.02 1.13,0 2.02,0.91 2.02,2.02 z M 88.09,81.08 c 0,0.68 -0.55,1.2 -1.19,1.2 -0.66,0 -1.19,-0.52 -1.19,-1.2 0,-0.64 0.53,-1.18 1.19,-1.18 0.64,0 1.19,0.54 1.19,1.18 z m 6.43,-16.81 c 0,0.68 -0.56,1.25 -1.24,1.25 -0.72,0 -1.28,-0.57 -1.28,-1.25 0,-0.69 0.56,-1.25 1.28,-1.25 0.68,0 1.24,0.56 1.24,1.25 z M 86.58,51.8 c 0,0.2 -0.15,0.35 -0.35,0.35 -0.19,0 -0.35,-0.15 -0.35,-0.35 0,-0.19 0.16,-0.34 0.35,-0.34 0.2,0 0.35,0.15 0.35,0.34 z m -21.99,9.46 c 0,0.68 -0.54,1.22 -1.22,1.22 -0.67,0 -1.23,-0.54 -1.23,-1.22 0,-0.69 0.56,-1.21 1.23,-1.21 0.68,0 1.22,0.52 1.22,1.21 z m -10.5,1.15 c 0,0.99 -0.81,1.79 -1.78,1.79 -0.98,0 -1.76,-0.8 -1.76,-1.79 0,-0.97 0.78,-1.76 1.76,-1.76 0.97,0 1.78,0.79 1.78,1.76 z m 35.58,33.46 c 0,1.92 -1.54,3.46 -3.45,3.46 -1.92,0 -3.46,-1.54 -3.46,-3.46 0,-1.91 1.54,-3.46 3.46,-3.46 1.91,0 3.45,1.55 3.45,3.46 z m 5.85,-31.65 c 0,1.27 -1.03,2.3 -2.31,2.3 -1.28,0 -2.31,-1.03 -2.31,-2.3 0,-1.28 1.03,-2.31 2.31,-2.31 1.28,0 2.31,1.03 2.31,2.31 z m -40.17,-1.8 c 0,1.68 -1.36,3.04 -3.04,3.04 -1.68,0 -3.04,-1.36 -3.04,-3.04 0,-1.68 1.36,-3.04 3.04,-3.04 1.68,0 3.04,1.36 3.04,3.04 z M 89.52,81.1 c 0,1.47 -1.19,2.61 -2.61,2.61 -1.46,0 -2.61,-1.14 -2.61,-2.61 0,-1.42 1.15,-2.6 2.61,-2.6 1.42,0 2.61,1.18 2.61,2.6 z M 66.04,61.28 c 0,1.45 -1.17,2.65 -2.65,2.65 -1.44,0 -2.64,-1.2 -2.64,-2.65 0,-1.48 1.2,-2.64 2.64,-2.64 1.48,0 2.65,1.16 2.65,2.64 z M 55.33,82.39 c 0,1.73 -1.36,3.13 -3.08,3.13 -1.73,0 -3.09,-1.4 -3.09,-3.13 0,-1.68 1.36,-3.08 3.09,-3.08 1.72,0 3.08,1.4 3.08,3.08 z M 88.44,51.81 c 0,1.24 -0.97,2.21 -2.21,2.21 -1.21,0 -2.22,-0.97 -2.22,-2.21 0,-1.22 1.01,-2.22 2.22,-2.22 1.24,0 2.21,1 2.21,2.22 z m -3.31,-13.3 c -0.47,4.02 -0.24,7.73 0.53,11.15 m 1.26,4.25 c 1.17,3.14 2.8,6 4.72,8.61 m 2.94,3.55 c 3.87,4.22 8.42,7.64 12.82,10.33 m -2.1,9.34 C 100.6,85.2 95.07,84.13 89.35,82.03 M 84.52,80 C 77.41,76.63 70.38,71.46 64.83,63.51 m -2.8,-4.49 C 59.1,53.76 56.77,47.48 55.32,39.98 M 37.79,83.75 c 3.92,-0.9 7.71,-1.34 11.36,-1.39 m 6.16,0.28 c 10.9,1.16 20.39,5.67 28.13,11.17 m 5.46,4.26 c 1.29,1.1 2.52,2.23 3.68,3.33 m 2.1,-57.11 c -2.14,2.37 -4.36,4.45 -6.64,6.27 m -3.56,2.61 c -5.92,3.94 -12.16,6.31 -18.49,7.62 m -5.22,0.86 c -1.81,0.22 -3.63,0.37 -5.44,0.45 m -6.06,0.1 C 45.38,62.1 41.23,61.79 37.48,61.39 m 49.75,43.01 c -0.3,-1.6 -0.56,-3.3 -0.76,-5.08 m -0.45,-6.88 c 0,-2.88 0.1,-5.82 0.48,-8.78 m 0.91,-5.12 c 0.94,-4.18 2.42,-8.35 4.56,-12.38 m 2.37,-3.98 c 2.14,-3.24 4.77,-6.36 7.96,-9.29 M 67.81,36.31 C 59.96,43.14 55.24,51.19 52.94,59.44 m -1.24,5.94 c -0.68,4.72 -0.62,9.44 0,13.95 m 1.28,6.1 c 2.67,9.68 8.1,17.87 14.79,22.47" />
</svg>