<svg width="144" height="144" viewBox="0 0 144 144" class="icon icon-lock-unlock stroked">
<path class="long"  d="m 67.94,104.1 0,4 c -4.74,1.9 -7.34,7.7 -5.29,12.7 2.06,5 7.96,7.2 12.7,5.2 4.74,-1.9 7.36,-7.6 5.31,-12.6 -0.98,-2.4 -2.87,-4.3 -5.47,-5.2 l 0,-4.1 M 46.92,70.63 C 61,68.47 82.8,68.9 96.84,70.63 l -0.13,31.97 c -16.41,1.9 -32.99,2 -49.42,-0.2 z m 5.8,-0.73 c 0,0 -0.3,-6.09 -0.28,-12.76 0.13,-27.89 38.77,-26.98 38.8,0 -0.17,4.95 0.1,4.14 0.1,4.14 L 83,61.18 83,57.13 C 82.8,40.67 61.29,40.96 61.29,57.09 l 0,12.14" />
<path class="short" d="m 70.42,104.1 0,4 m 3.15,13.7 c 0,0.9 -0.75,1.7 -1.66,1.7 -0.92,0 -1.66,-0.8 -1.66,-1.7 0,-0.8 0.74,-1.6 1.66,-1.6 0.91,0 1.66,0.8 1.66,1.6 z m 18.68,-23.83 -29.78,0 m -4.39,0 -6.35,0 m 40.52,-5.51 -29.78,0 m -4.39,0 -6.35,0 m 40.52,-5.52 -29.78,0 m -4.39,0 -6.35,0 m 40.52,-5.51 -29.78,0 m -4.39,0 -6.35,0 m 40.52,-5.52 -29.78,0 m -4.39,0 -6.35,0 m 35.16,-18.84 -3.67,0" />
</svg>