<svg width="144" height="144" viewBox="0 0 144 144" class="icon icon-lock stroked">
<path class="long"  d="m 47.06,70.59 c 14.1,-2.16 35.85,-1.73 49.88,0 l 0,31.91 c -16.63,2 -33.25,2.1 -49.88,0 z m 14.18,-1.31 0,-12.19 c 0,-16.09 21.35,-16.32 21.77,0 l -0.1,12.3 M 52.52,70 c 0,0 0,-6.23 0,-12.91 0,-27.83 38.75,-26.93 38.75,0 0,4.9 0.2,12.91 0.2,12.91" />
<path class="short" d="m 62.47,97.97 29.78,0 m -34.17,0 -6.35,0 m 10.74,-5.51 29.78,0 m -34.17,0 -6.35,0 m 10.74,-5.52 29.78,0 m -34.17,0 -6.35,0 m 10.74,-5.51 29.78,0 m -34.17,0 -6.35,0 m 10.74,-5.52 29.78,0 m -34.17,0 -6.35,0" />
</svg>