<svg width="144" height="144" viewBox="0 0 144 144" class="icon icon-book stroked">
<path class="long"  d="m 107.1,49.55 1.5,0 c 1.9,0 2.6,1.46 2.6,2.74 l 0,43.5 c 0,2.4 -1.3,3.5 -3.5,3.5 l -30.45,0 c -1.2,1.21 -3.2,1.81 -5.2,1.81 -2.1,0 -4.1,-0.6 -5.3,-1.81 l -30.49,0 c -2.2,0 -3.5,-1.1 -3.5,-3.5 l 0,-43.5 c 0,-1.28 0.8,-2.74 2.6,-2.74 l 1.5,0 m 35.09,48.44 c -1.1,-1.4 -1.9,-2.4 -4.1,-2.4 l -30.92,0 0,-48.67 30.92,0 c 2.4,0 4.1,1.45 4.1,2.89 m 0,0 0,48.18 m 0,0 c 1.5,-2.5 4.1,-2.4 4.1,-2.4 l 30.95,0 0,-48.67 -30.95,0 c -2.4,0 -4.1,1.45 -4.1,2.89" />
<path class="short reduce"  d="m 67.35,80.99 c -1,-0.5 -2.1,-0.8 -4.22,-0.8 l -21.58,0 m 25.8,5.3 c -1,-0.5 -2.1,-0.8 -4.22,-0.8 l -21.58,0 m 25.8,5.4 c -1,-0.5 -2.1,-0.8 -4.22,-0.8 l -21.58,0 m 25.8,-35.7 c -1,-0.5 -2.1,-0.8 -4.22,-0.8 l -21.58,0 m 25.8,5.36 c -1,-0.5 -2.1,-0.8 -4.22,-0.8 l -21.58,0 m 25.8,5.36 c -1,-0.5 -2.1,-0.8 -4.22,-0.8 l -21.58,0 m 25.8,5.38 c -1,-0.5 -2.1,-0.8 -4.22,-0.8 l -21.58,0 m 25.8,5.3 c -1,-0.5 -2.1,-0.8 -4.22,-0.8 l -21.58,0 m 25.8,5.4 c -1,-0.5 -2.1,-0.8 -4.22,-0.8 l -21.58,0 m 35,-22 c 1,-0.5 2.1,-0.8 4.2,-0.8 l 21.65,0 m -25.85,5.36 c 1,-0.5 2.1,-0.8 4.2,-0.8 l 21.65,0 m -25.85,5.36 c 1,-0.5 2.1,-0.8 4.2,-0.8 l 21.65,0 m -25.85,5.38 c 1,-0.5 2.1,-0.8 4.2,-0.8 l 21.65,0 m -25.85,5.3 c 1,-0.5 2.1,-0.8 4.2,-0.8 l 21.65,0 m -25.85,5.4 c 1,-0.5 2.1,-0.8 4.2,-0.8 l 21.65,0 m -25.85,5.3 c 1,-0.5 2.1,-0.8 4.2,-0.8 l 9.6,0 m -13.8,5.4 c 1,-0.5 2.1,-0.8 4.2,-0.8 l 9.6,0 m -13.8,5.3 c 1,-0.5 2.1,-0.8 4.2,-0.8 l 7.9,0"/>
<path class="short" d="m 107,74.79 c -4.5,7.2 -17.95,18.3 -24.95,20.8 7.1,-4.5 8.7,-8.8 8.9,-15.7 6.4,1.1 11.55,-0.5 16.05,-5.1 z" />
</svg>