<svg width="144" height="144" viewBox="0 0 144 144" class="icon icon-productivity stroked">
<path class="long"  d="m 42.41,42.88 54.6,0 c 0.6,0 1.09,0.49 1.09,1.09 l 0,54.43 c 0,0.6 -0.49,1.09 -1.09,1.09 l -54.6,0 c -0.6,0 -1.09,-0.49 -1.09,-1.09 l 0,-54.43 c 0,-0.6 0.49,-1.09 1.09,-1.09 z m 13.1,0.21 0,56.28 m 28.39,-56.28 0,56.28 m -14.19,0 0,-56.28 m -28.14,42.34 56.32,0 m -56.33,-28.38 56.34,0 m -0.1,14.18 -56.28,0 M 34.26,92.25 62.57,64.7 76.39,77.84 104.3,49.79 M 33.35,91.41 62.49,63.09 76.31,76.23 103.4,48.95" />
<path class="short" d="m 106.7,46.7 -1.6,3.68 -0.4,-1.68 -1.8,-0.47 z m 1.2,-1.15 -3,6.66 -0.7,-3.04 -3.2,-0.85 z" />
</svg>