<svg width="144" height="144" viewBox="0 0 144 144" class="icon icon-cross-platform stroked">
<path class="long"  d="m 44.15,104.9 c 1.21,1.3 3.18,1.3 4.39,0 l 8.99,-8.95 c 1.2,-1.22 2.86,-0.97 3.65,0.54 l 2.88,5.41 c 0.8,1.5 1.63,1.4 1.84,-0.4 l 2.77,-23.3 c 0.21,-1.7 -1.02,-2.93 -2.72,-2.73 l -23.4,2.72 c -1.71,0.2 -1.86,1.01 -0.35,1.82 l 5.39,2.87 c 1.5,0.81 1.75,2.46 0.54,3.67 l -8.98,8.98 c -1.22,1.2 -1.22,3.19 0,4.4 l 5,4.97 z M 40.24,45.66 c -1.21,1.21 -1.21,3.19 0,4.4 l 8.99,8.98 c 1.21,1.21 0.96,2.86 -0.55,3.66 l -5.39,2.88 c -1.5,0.81 -1.34,1.63 0.35,1.84 l 23.33,2.77 c 1.7,0.21 2.92,-1.02 2.73,-2.72 l -2.72,-23.4 c -0.2,-1.71 -1.02,-1.86 -1.83,-0.35 l -2.87,5.39 c -0.8,1.5 -2.44,1.74 -3.65,0.54 l -8.99,-8.99 c -1.21,-1.21 -3.18,-1.21 -4.39,0 l -5.01,5 z m 63.46,52.77 c 1.2,-1.22 1.2,-3.2 0,-4.4 l -8.99,-8.98 c -1.21,-1.21 -0.96,-2.86 0.55,-3.67 l 5.34,-2.87 c 1.5,-0.81 1.4,-1.63 -0.3,-1.83 L 76.97,73.9 c -1.69,-0.2 -2.92,1.03 -2.73,2.72 L 76.96,100 c 0.19,1.7 1.01,1.9 1.82,0.4 l 2.87,-5.41 c 0.81,-1.51 2.45,-1.76 3.66,-0.55 l 8.99,8.96 c 1.21,1.3 3.18,1.3 4.39,0 l 5.01,-4.97 z M 99.79,39.02 c -1.21,-1.21 -3.18,-1.21 -4.39,0 l -8.99,8.99 c -1.21,1.2 -2.86,0.96 -3.66,-0.55 l -2.88,-5.38 c -0.8,-1.51 -1.63,-1.36 -1.82,0.34 l -2.79,23.33 c -0.19,1.7 1.03,2.92 2.72,2.73 l 23.42,-2.72 c 1.6,-0.2 1.9,-1.02 0.3,-1.82 L 96.35,61.06 C 94.85,60.25 94.6,58.61 95.81,57.4 l 8.99,-8.98 c 1.2,-1.21 1.2,-3.19 0,-4.4 l -5.01,-5 z"  />
</svg>