<svg width="144" height="144" viewBox="0 0 144 144" class="icon icon-management stroked">
<path class="long"  d="m 60.92,37.57 22.14,0 c 0.59,0 1.06,0.47 1.06,1.06 l 0,5.69 c 0,0.59 -0.47,1.06 -1.06,1.06 l -22.14,0 c -0.59,0 -1.06,-0.47 -1.06,-1.06 l 0,-5.69 c 0,-0.59 0.47,-1.06 1.06,-1.06 z m 23.18,5.27 10.46,0 0,61.86 -45.12,0 0,-61.86 10.43,0 m -11,-8.62 46.26,0 c 2.17,0 3.93,1.75 3.93,3.93 l 0,67.75 c 0,2.1 -1.76,3.9 -3.93,3.9 l -46.26,0 c -2.17,0 -3.93,-1.8 -3.93,-3.9 l 0,-67.75 c 0,-2.18 1.76,-3.93 3.93,-3.93 z m 5.25,53.73 10.05,0 0,9.59 -10.05,0 z m 0,-17.14 10.05,0 0,9.59 -10.05,0 z m 0,-17.44 10.05,0 0,9.59 -10.05,0 z" />
<path class="short" d="m 54.12,97.54 10.05,-9.59 m 0,9.59 -10.05,-9.59 m 15.99,-26.6 20.39,0 m -20.39,-5.16 20.39,0 m -33.14,18.34 1.89,3.18 6.02,-10.14 m -7.91,-9.95 1.89,3.18 6.02,-10.14 m 4.84,44.68 20.39,0 m -20.39,-5.16 20.39,0 M 70.11,78.1 l 20.39,0 m -20.39,-5.16 20.39,0" />
</svg>