<svg width="188" height="144" viewBox="0 0 188 144" class="icon icon-wideload icon-storage-bank-virtual stroked">
<path class="long"  d="m 15.78,42.75 c 0,-3.75 11.66,-6.79 26.03,-6.79 14.36,0 26.02,3.04 26.02,6.79 m -3.25,18.7 c 2.45,0.55 3.32,1.82 3.32,2.73 l 0,15.01 c 0,3.8 -11.63,6.8 -26.09,6.8 -14.45,0 -26.08,-3 -26.08,-6.8 l 0,-15.01 c 0,-0.91 0.87,-2.18 3.32,-2.73 m 45.53,21.08 c 2.45,0.55 3.32,1.82 3.32,2.73 l 0,15.04 c 0,3.8 -11.63,6.8 -26.09,6.8 -14.45,0 -26.08,-3 -26.08,-6.8 l 0,-15.04 c 0,-0.91 0.87,-2.18 3.32,-2.73 m 48.85,-39.62 0,15.04 c 0,3.8 -11.63,6.8 -26.09,6.8 -14.45,0 -26.08,-3 -26.08,-6.8 l 0,-15.04 M 120.2,42.75 c 0,-3.75 11.6,-6.79 26,-6.79 14.3,0 26,3.04 26,6.79 m -3.2,18.7 c 2.4,0.55 3.3,1.82 3.3,2.73 l 0,15.01 c 0,3.8 -11.7,6.8 -26.1,6.8 -14.5,0 -26.1,-3 -26.1,-6.8 l 0,-15.01 c 0,-0.91 0.9,-2.18 3.3,-2.73 M 169,82.53 c 2.4,0.55 3.3,1.82 3.3,2.73 l 0,15.04 c 0,3.8 -11.7,6.8 -26.1,6.8 -14.5,0 -26.1,-3 -26.1,-6.8 l 0,-15.04 c 0,-0.91 0.9,-2.18 3.3,-2.73 m 48.9,-39.62 0,15.04 c 0,3.8 -11.7,6.8 -26.1,6.8 -14.5,0 -26.1,-3 -26.1,-6.8 l 0,-15.04 M 67.96,42.75 c 0,-3.75 11.66,-6.79 26.03,-6.79 14.31,0 26.01,3.04 26.01,6.79 m -3.2,18.7 c 2.4,0.55 3.3,1.82 3.3,2.73 l 0,15.01 c 0,3.8 -11.7,6.8 -26.11,6.8 -14.45,0 -26.08,-3 -26.08,-6.8 l 0,-15.01 c 0,-0.91 0.87,-2.18 3.32,-2.73 m 45.57,21.08 c 2.4,0.55 3.3,1.82 3.3,2.73 l 0,15.04 c 0,3.8 -11.7,6.8 -26.11,6.8 -14.45,0 -26.08,-3 -26.08,-6.8 l 0,-15.04 c 0,-0.91 0.87,-2.18 3.32,-2.73 m 48.87,-39.62 0,15.04 c 0,3.8 -11.7,6.8 -26.11,6.8 -14.45,0 -26.08,-3 -26.08,-6.8 l 0,-15.04" />
<path class="short" d="m 27.13,48.25 c -3.17,-0.56 -5.84,-1.3 -7.8,-2.16 m 44.13,0.54 c -10.32,2.86 -19.89,3.02 -29.79,2.4 m 97.83,-0.78 c -3.2,-0.56 -5.8,-1.3 -7.8,-2.16 m 44.1,0.54 c -10.3,2.86 -19.9,3.02 -29.8,2.4 M 79.31,48.25 c -3.17,-0.56 -5.84,-1.3 -7.8,-2.16 m 44.09,0.54 c -10.3,2.86 -19.85,3.02 -29.75,2.4 M 27.13,68.34 c -3.17,-0.56 -5.84,-1.3 -7.8,-2.16 m 44.13,0.54 c -10.32,2.86 -19.89,3.02 -29.79,2.4 m -6.54,20.63 c -3.17,-0.56 -5.84,-1.3 -7.8,-2.16 m 44.13,0.54 c -10.32,2.86 -19.89,3.02 -29.79,2.4 M 131.5,68.34 c -3.2,-0.56 -5.8,-1.3 -7.8,-2.16 m 44.1,0.54 c -10.3,2.86 -19.9,3.02 -29.8,2.4 m -6.5,20.63 c -3.2,-0.56 -5.8,-1.3 -7.8,-2.16 m 44.1,0.54 c -10.3,2.86 -19.9,3.02 -29.8,2.4 M 79.31,68.34 c -3.17,-0.56 -5.84,-1.3 -7.8,-2.16 m 44.09,0.54 c -10.3,2.86 -19.85,3.02 -29.75,2.4 m -6.54,20.63 c -3.17,-0.56 -5.84,-1.3 -7.8,-2.16 m 44.09,0.54 c -10.3,2.86 -19.85,3.02 -29.75,2.4" />
<path class="virtual" d="m 41.81,31.81 c -7.47,0 -14.26,0.77 -19.47,2.13 -2.6,0.68 -4.79,1.46 -6.68,2.62 -1.59,0.98 -3.29,2.56 -3.82,4.85 a 4.159,4.159 0 0 0 -0.28,1.5 l 0,15.03 c 0,1.28 0.39,2.33 0.94,3.18 -0.55,0.91 -0.94,1.9 -0.94,3.07 l 0,15 c 0,1.23 0.38,2.26 0.91,3.09 -0.52,0.88 -0.91,1.83 -0.91,2.97 l 0,15.05 c 0,3.1 2.1,5 4,6.2 1.9,1.2 4.14,2 6.75,2.7 5.22,1.3 11.99,2.1 19.5,2 7.52,0 14.28,-0.7 19.5,-2 2.55,-0.7 4.73,-1.5 6.6,-2.6 1.86,1.1 4.04,1.9 6.59,2.6 5.22,1.3 11.99,2.1 19.5,2 7.5,0 14.3,-0.7 19.5,-2 2.5,-0.7 4.7,-1.5 6.6,-2.6 1.8,1.1 4,1.9 6.6,2.6 5.2,1.3 12,2.1 19.5,2 7.5,0 14.3,-0.7 19.5,-2 2.6,-0.7 4.8,-1.5 6.7,-2.7 1.9,-1.2 4.1,-3.1 4.1,-6.2 l 0,-15.05 c 0,-1.15 -0.4,-2.12 -0.9,-3 0.5,-0.83 0.9,-1.84 0.9,-3.06 l 0,-15 c 0,-1.19 -0.5,-2.19 -1,-3.1 0.5,-0.85 1,-1.88 1,-3.15 l 0,-15.03 a 4.159,4.159 0 0 0 -0.4,-1.69 c -0.6,-2.21 -2.2,-3.7 -3.8,-4.66 -1.9,-1.16 -4.1,-1.94 -6.7,-2.62 -5.2,-1.36 -12,-2.13 -19.4,-2.13 -7.5,0 -14.2,0.77 -19.4,2.13 -2.6,0.67 -4.8,1.46 -6.7,2.62 -1.9,-1.15 -4.1,-1.95 -6.7,-2.62 -5.2,-1.36 -12,-2.13 -19.4,-2.13 -7.48,0 -14.23,0.77 -19.44,2.13 -2.58,0.67 -4.77,1.44 -6.65,2.59 -1.89,-1.15 -4.08,-1.92 -6.66,-2.59 -5.21,-1.36 -11.96,-2.13 -19.44,-2.13 z" />
</svg>