<svg width="144" height="144" viewBox="0 0 144 144" class="icon icon-data stroked">
<path class="long"  d="m 35.89,71.99 18.06,-31.27 36.11,0 18.04,31.28 -18.05,31.3 -36.11,0 z"    />
<path class="short" d="m 60.23,54.2 3.33,0 c 0.45,0 0.81,0.36 0.81,0.81 l 0,6.41 c 0,0.45 -0.36,0.82 -0.81,0.82 l -3.33,0 c -0.45,0 -0.81,-0.37 -0.81,-0.82 l 0,-6.41 c 0,-0.45 0.36,-0.81 0.81,-0.81 z m 8.93,0 3.33,0 c 0.45,0 0.81,0.36 0.81,0.81 l 0,6.41 c 0,0.45 -0.36,0.82 -0.81,0.82 l -3.33,0 c -0.45,0 -0.81,-0.37 -0.81,-0.82 l 0,-6.41 c 0,-0.45 0.36,-0.81 0.81,-0.81 z m -18.02,0 3.33,0 c 0.45,0 0.81,0.36 0.81,0.81 l 0,6.41 c 0,0.45 -0.36,0.82 -0.81,0.82 l -3.33,0 c -0.45,0 -0.81,-0.37 -0.81,-0.82 l 0,-6.41 c 0,-0.45 0.36,-0.81 0.81,-0.81 z m -4.39,13.4 3.33,0 c 0.45,0 0.81,0.37 0.81,0.82 l 0,6.41 c 0,0.45 -0.36,0.81 -0.81,0.81 l -3.33,0 c -0.45,0 -0.81,-0.36 -0.81,-0.81 l 0,-6.41 c 0,-0.45 0.36,-0.82 0.81,-0.82 z m 22.9,13.47 3.33,0 c 0.45,0 0.81,0.36 0.81,0.81 l 0,6.41 c 0,0.45 -0.36,0.82 -0.81,0.82 l -3.33,0 c -0.45,0 -0.81,-0.37 -0.81,-0.82 l 0,-6.41 c 0,-0.45 0.36,-0.81 0.81,-0.81 z m -0.41,13.39 3.33,0 c 0.45,0 0.81,0.36 0.81,0.81 l 0,6.43 c 0,0.4 -0.36,0.8 -0.81,0.8 l -3.33,0 c -0.45,0 -0.81,-0.4 -0.81,-0.8 l 0,-6.43 c 0,-0.45 0.36,-0.81 0.81,-0.81 z M 55.68,67.6 l 3.33,0 c 0.45,0 0.81,0.37 0.81,0.82 l 0,6.41 c 0,0.45 -0.36,0.81 -0.81,0.81 l -3.33,0 c -0.45,0 -0.81,-0.36 -0.81,-0.81 l 0,-6.41 c 0,-0.45 0.36,-0.82 0.81,-0.82 z m 22.9,13.47 3.33,0 c 0.45,0 0.81,0.36 0.81,0.81 l 0,6.41 c 0,0.45 -0.36,0.82 -0.81,0.82 l -3.33,0 c -0.45,0 -0.81,-0.37 -0.81,-0.82 l 0,-6.41 c 0,-0.45 0.36,-0.81 0.81,-0.81 z m -0.41,13.39 3.33,0 c 0.45,0 0.81,0.36 0.81,0.81 l 0,6.43 c 0,0.4 -0.36,0.8 -0.81,0.8 l -3.33,0 c -0.45,0 -0.81,-0.4 -0.81,-0.8 l 0,-6.43 c 0,-0.45 0.36,-0.81 0.81,-0.81 z m -41.32,-20.8 0,-3.29 m 1.6,-2.77 2.54,0 c 0.45,0 0.81,0.37 0.81,0.82 l 0,6.41 c 0,0.45 -0.36,0.81 -0.81,0.81 l -2.98,0 m 22.55,5.43 3.33,0 c 0.45,0 0.81,0.36 0.81,0.81 l 0,6.41 c 0,0.45 -0.36,0.82 -0.81,0.82 l -3.33,0 c -0.45,0 -0.81,-0.37 -0.81,-0.82 l 0,-6.41 c 0,-0.45 0.36,-0.81 0.81,-0.81 z m -0.41,13.39 3.33,0 c 0.45,0 0.81,0.36 0.81,0.81 l 0,6.43 c 0,0.4 -0.36,0.8 -0.81,0.8 l -3.33,0 c -0.45,0 -0.81,-0.4 -0.81,-0.8 l 0,-6.43 c 0,-0.45 0.36,-0.81 0.81,-0.81 z m -9.66,2.57 0,-1.76 c 0,-0.45 0.36,-0.81 0.81,-0.81 l 3.33,0 c 0.45,0 0.81,0.36 0.81,0.81 l 0,6.43 c 0,0.4 -0.36,0.8 -0.81,0.8 l -1.14,0 m 15.18,-30.52 0,2.84 c 0,0.45 -0.36,0.82 -0.81,0.82 l -0.73,0 c -0.45,0 -0.81,-0.37 -0.81,-0.82 l 0,-7.27 -2.18,0 m 3.72,8.09 -3.74,0 m 22.58,-3.66 0,2.84 c 0,0.45 -0.36,0.82 -0.81,0.82 l -0.73,0 c -0.45,0 -0.81,-0.37 -0.81,-0.82 l 0,-7.27 -2.18,0 m 3.72,8.09 -3.74,0 m -26.52,9.81 0,2.84 c 0,0.45 -0.36,0.82 -0.81,0.82 l -0.73,0 c -0.45,0 -0.81,-0.37 -0.81,-0.82 l 0,-7.27 -2.18,0 m 3.72,8.09 -3.74,0 m 44.71,-17.13 0,2.84 c 0,0.45 -0.36,0.82 -0.81,0.82 l -0.73,0 c -0.45,0 -0.81,-0.37 -0.81,-0.82 l 0,-7.27 -2.18,0 m 3.72,8.09 -3.74,0 m 13.36,-3.66 0,2.84 c 0,0.45 -0.3,0.82 -0.8,0.82 l -0.7,0 c -0.5,0 -0.8,-0.37 -0.8,-0.82 l 0,-7.27 -2.2,0 m 3.7,8.09 -3.7,0 m -17.95,-17.06 0,2.84 c 0,0.45 -0.36,0.82 -0.81,0.82 l -0.73,0 c -0.45,0 -0.81,-0.37 -0.81,-0.82 l 0,-7.27 -2.18,0 m 3.72,8.09 -3.74,0 m 13.64,-3.66 0,2.84 c 0,0.45 -0.36,0.82 -0.81,0.82 l -0.73,0 c -0.45,0 -0.81,-0.37 -0.81,-0.82 l 0,-7.27 -2.18,0 m 3.72,8.09 -3.74,0 m 5.28,23.21 0,2.84 c 0,0.45 -0.36,0.82 -0.81,0.82 l -0.73,0 c -0.45,0 -0.81,-0.37 -0.81,-0.82 l 0,-7.27 -2.18,0 m 3.72,8.09 -3.74,0 m 11.29,-0.82 0,-7.27 -2.18,0 m 1.77,8.09 -1.79,0 m -5.35,9.75 0,2.54 m -0.67,1.1 -0.87,0 c -0.45,0 -0.81,-0.3 -0.81,-0.8 l 0,-7.27 -2.18,0 m 3.86,8.07 -3.88,0 m -12.83,-34.9 3.33,0 c 0.45,0 0.81,0.37 0.81,0.82 l 0,6.41 c 0,0.45 -0.36,0.81 -0.81,0.81 l -3.33,0 c -0.45,0 -0.81,-0.36 -0.81,-0.81 l 0,-6.41 c 0,-0.45 0.36,-0.82 0.81,-0.82 z M 41.8,81.88 c 0,-0.45 0.36,-0.81 0.81,-0.81 l 3.33,0 c 0.45,0 0.81,0.36 0.81,0.81 l 0,6.41 c 0,0.45 -0.36,0.82 -0.81,0.82 m 54.56,-30.12 0,2.43 c 0,0.45 -0.4,0.82 -0.82,0.82 l -3.33,0 c -0.45,0 -0.81,-0.37 -0.81,-0.82 l 0,-6.41 c 0,-0.45 0.36,-0.81 0.81,-0.81 l 1.41,0 m -51.49,4.43 0,2.84 c 0,0.45 -0.36,0.82 -0.81,0.82 l -0.73,0 c -0.45,0 -0.81,-0.37 -0.81,-0.82 l 0,-3.3 m 1.54,4.12 -3.74,0 m 12.07,-21.27 0.73,0 c 0.43,0 0.76,0.39 0.76,0.82 l 0,6.41 c 0,0.45 -0.36,0.81 -0.81,0.81 l -3.33,0 c -0.45,0 -0.81,-0.36 -0.81,-0.81 l 0,-1.49 m 13.8,-1.31 0,2.84 c 0,0.45 -0.36,0.82 -0.81,0.82 l -0.73,0 c -0.45,0 -0.81,-0.37 -0.81,-0.82 l 0,-7.27 -2.18,0 m 3.72,8.09 -3.74,0 m 13.64,-3.66 0,2.84 c 0,0.45 -0.36,0.82 -0.81,0.82 l -0.73,0 c -0.45,0 -0.81,-0.37 -0.81,-0.82 l 0,-7.27 -2.18,0 m 3.72,8.09 -3.74,0 m 9.66,-8.04 3.33,0 c 0.45,0 0.81,0.37 0.81,0.82 l 0,6.41 c 0,0.45 -0.36,0.81 -0.81,0.81 l -3.33,0 c -0.45,0 -0.81,-0.36 -0.81,-0.81 l 0,-6.41 c 0,-0.45 0.36,-0.82 0.81,-0.82 z m 13.07,2.02 0,5.21 c 0,0.45 -0.36,0.81 -0.81,0.81 l -3.33,0 c -0.45,0 -0.81,-0.36 -0.81,-0.81 l 0,-6.41 c 0,-0.45 0.36,-0.82 0.81,-0.82 l 3,0"
/>

</svg>