<svg width="144" height="144" viewBox="0 0 144 144" class="icon icon-tools stroked">
<path class="long"  d="m 92.16,48.73 6.84,0 0.71,-4.68 c 1.19,-1.75 3.39,-1.67 4.99,-0.14 l 3.6,0 c 1.2,0 1.1,-6.64 0,-6.64 l -3.6,0 c -2.6,0.9 -4.2,0.83 -6.2,-0.8 l -5.93,0 c -4.59,0 -9.92,4.61 -10.84,9.97 -0.32,1.89 0.79,1.92 1.45,0.8 2.29,-3.84 7.3,-8.05 7.89,-4.29 z m -55.73,5.1 C 33.78,47.56 34.95,41.69 38.45,39.85 l 3.17,8.36 3.74,2.86 4.21,-2.14 0.68,-4.54 -2.89,-7.99 c 5.6,-2.46 11.89,8.14 11.89,13.98 0,9.13 -8.22,8.89 -8,15.68 l 1.18,36.64 c 0.1,2.6 -2.11,4.8 -4.74,4.8 -2.63,0 -4.82,-2.2 -4.74,-4.8 l 1.18,-36.64 c 0.13,-3.98 -4.48,-4.6 -7.7,-12.23 z m 27.28,19.53 14.94,0 0,4.6 c -2,1.25 -2.97,4.34 0,6.87 l 0,20.27 c 0,4.2 -14.94,4.3 -14.94,0 l 0,-20.27 c 2,-2.29 2.43,-4.58 0,-6.87 z m 5.2,-0.1 0,-21.2 -1.47,-4.88 1.87,-10.07 3.74,0 1.87,10.07 -1.47,4.88 0,21.2 m 25.16,-2.26 0,-22.29 m -5.53,0 0,22.29 m 0.15,0 5.23,0 c 0.86,0 1.54,0.69 1.54,1.55 l 0,32.91 c 0,2.6 -8.32,2.5 -8.32,0 l 0,-32.91 c 0,-0.86 0.69,-1.55 1.55,-1.55 z" />
<path class="short" d="m 104.7,43.91 c 0.8,-1.23 0.6,-5.6 0,-6.64 M 41.26,61.09 c -2.14,1.24 -3.25,1.91 -4.32,0.1 -1.03,-1.79 0.13,-2.43 1.77,-3.14 m 6.57,-6.97 -8.25,4.06 m 8.18,0.33 2.25,3.01 m -0.23,-4.12 2.25,3.01 m -0.22,-4.12 2.25,3.01 m -0.23,-4.12 2.25,3.01 m -3.85,47.55 c 0,1.2 -0.89,2.1 -1.99,2.1 -1.1,0 -1.99,-0.9 -1.99,-2.1 0,-1.1 0.89,-1.9 1.99,-1.9 1.1,0 1.99,0.8 1.99,1.9 z m 24.05,5.4 0,-19.47 c 0,-0.66 0.53,-1.19 1.19,-1.19 0.65,0 1.18,0.53 1.18,1.19 l 0,18.97 m -9.84,0 0,-18.97 c 0,-0.66 0.53,-1.19 1.19,-1.19 0.65,0 1.19,0.53 1.19,1.19 l 0,19.47" />
</svg>