<svg width="144" height="144" viewBox="0 0 144 144" class="icon icon-compass stroked">
<path class="long"  d="M 68,72.1 51.47,92.37 72.09,75.99 M 75.97,71.97 92.61,51.58 71.99,67.99 m 3.98,3.98 c 0,2.2 -1.79,3.99 -3.98,3.99 -2.21,0 -3.99,-1.79 -3.99,-3.99 0,-2.2 1.79,-3.98 3.99,-3.98 2.19,0 3.98,1.77 3.98,3.98 z m 32.43,0.1 c 0,20.04 -16.28,36.33 -36.32,36.33 -20.03,0 -36.28,-16.29 -36.28,-36.32 0,-20.01 16.28,-36.27 36.29,-36.3 20.04,0 36.31,16.25 36.31,36.29 z m -4.7,0 c 0,17.52 -14.18,31.73 -31.71,31.73 -17.53,0 -31.68,-14.25 -31.72,-31.71 0,-17.52 14.19,-31.73 31.72,-31.72 17.52,0 31.71,14.22 31.71,31.72 z" />
<path class="short" d="m 74.05,94.62 c -1.14,-0.57 -3.7,-0.8 -3.7,1.31 0,1.83 4.05,0.72 4.1,3.02 0,2.35 -3.67,1.75 -4.17,0.84 m 0.12,-48.01 0,-5.81 4.61,6.24 0,-5.88 m -6.95,25.71 -13.4,0 m 34.78,0 -13.4,0 m -3.99,4 0,13.4 m 0,-34.78 0,13.4 M 44.51,72 c 0,-9.82 5.25,-18.9 13.76,-23.81 m 41.25,23.82 c 0,8.36 -3.81,16.27 -10.33,21.49" />
</svg>