<svg width="144" height="144" viewBox="0 0 144 144" class="icon icon-control-panel stroked">
<path class="short"  d="m 53.59,68.48 c 0,1.22 -0.98,2.2 -2.19,2.2 -1.22,0 -2.2,-0.98 -2.2,-2.2 0,-1.21 0.98,-2.19 2.2,-2.19 1.21,0 2.19,0.98 2.19,2.19 z m -2.22,-2.7 0,0.19 m 0,4.94 0,0.19 m 1.88,-4.54 -0.14,0.12 m -3.49,3.52 -0.13,0.12 m 4.54,-1.88 -0.19,0 m -4.94,0 -0.2,0 m 4.55,1.88 -0.13,-0.13 m -3.51,-3.5 -0.12,-0.13 m 14.01,1.92 c 0,1.22 -0.98,2.2 -2.19,2.2 -1.22,0 -2.2,-0.98 -2.2,-2.2 0,-1.21 0.98,-2.19 2.2,-2.19 1.21,0 2.19,0.98 2.19,2.19 z m -2.22,-2.7 0,0.19 m 0,4.94 0,0.19 m 1.88,-4.54 -0.14,0.12 m -3.49,3.52 -0.13,0.12 m 4.54,-1.88 -0.19,0 m -4.94,0 -0.2,0 m 4.55,1.88 -0.13,-0.13 m -3.51,-3.5 -0.12,-0.13 m -5.81,11.77 c 0,1.22 -0.98,2.2 -2.19,2.2 -1.22,0 -2.2,-0.98 -2.2,-2.2 0,-1.21 0.98,-2.19 2.2,-2.19 1.21,0 2.19,0.98 2.19,2.19 z m -2.22,-2.7 0,0.19 m 0,4.94 0,0.19 m 1.88,-4.54 -0.14,0.12 m -3.49,3.52 -0.13,0.12 m 4.54,-1.88 -0.19,0 m -4.94,0 -0.2,0 m 4.55,1.88 -0.13,-0.13 m -3.51,-3.5 -0.12,-0.13 m 14.01,1.92 c 0,1.22 -0.98,2.2 -2.19,2.2 -1.22,0 -2.2,-0.98 -2.2,-2.2 0,-1.21 0.98,-2.19 2.2,-2.19 1.21,0 2.19,0.98 2.19,2.19 z m -2.22,-2.7 0,0.19 m 0,4.94 0,0.19 m 1.88,-4.54 -0.14,0.12 m -3.49,3.52 -0.13,0.12 m 4.54,-1.88 -0.19,0 m -4.94,0 -0.2,0 m 4.55,1.88 -0.13,-0.13 m -3.51,-3.5 -0.12,-0.13 m -5.81,11.77 c 0,1.22 -0.98,2.2 -2.19,2.2 -1.22,0 -2.2,-0.98 -2.2,-2.2 0,-1.21 0.98,-2.19 2.2,-2.19 1.21,0 2.19,0.98 2.19,2.19 z m -2.22,-2.7 0,0.19 m 0,4.94 0,0.19 m 1.88,-4.54 -0.14,0.12 m -3.49,3.52 -0.13,0.12 m 4.54,-1.88 -0.19,0 m -4.94,0 -0.2,0 m 4.55,1.88 -0.13,-0.13 m -3.51,-3.5 -0.12,-0.13 m 14.01,1.92 c 0,1.22 -0.98,2.2 -2.19,2.2 -1.22,0 -2.2,-0.98 -2.2,-2.2 0,-1.21 0.98,-2.19 2.2,-2.19 1.21,0 2.19,0.98 2.19,2.19 z m -2.22,-2.7 0,0.19 m 0,4.94 0,0.19 m 1.88,-4.54 -0.14,0.12 m -3.49,3.52 -0.13,0.12 m 4.54,-1.88 -0.19,0 m -4.94,0 -0.2,0 m 4.55,1.88 -0.13,-0.13 M 59.52,86.39 59.4,86.26 M 94.76,67.84 c 0,0.84 -0.68,1.53 -1.53,1.53 -0.84,0 -1.53,-0.69 -1.53,-1.53 0,-0.84 0.69,-1.53 1.53,-1.53 0.85,0 1.53,0.69 1.53,1.53 z m 0,5.74 c 0,0.84 -0.68,1.53 -1.53,1.53 -0.84,0 -1.53,-0.69 -1.53,-1.53 0,-0.84 0.69,-1.53 1.53,-1.53 0.85,0 1.53,0.69 1.53,1.53 z m 0,5.73 c 0,0.84 -0.68,1.53 -1.53,1.53 -0.84,0 -1.53,-0.69 -1.53,-1.53 0,-0.85 0.69,-1.53 1.53,-1.53 0.85,0 1.53,0.68 1.53,1.53 z m 0,5.73 c 0,0.84 -0.68,1.53 -1.53,1.53 -0.84,0 -1.53,-0.69 -1.53,-1.53 0,-0.85 0.69,-1.53 1.53,-1.53 0.85,0 1.53,0.68 1.53,1.53 z m -24.56,-8.62 0,-9.89 m 0,19.93 0,-8.1 m -1.7,-1.91 3.39,0 0,1.94 -3.39,0 z m 9.59,1.63 0,-11.55 m 0,19.93 0,-6.44 m -1.7,-1.91 3.39,0 0,1.94 -3.39,0 z m 9.59,-5.46 0,-6.12 m 0,19.93 0,-11.87 m -1.7,-1.91 3.39,0 0,1.94 -3.39,0 z M 61.07,50.63 c 0,3.57 -2.89,6.45 -6.43,6.44 -3.57,0 -6.45,-2.89 -6.44,-6.43 0,-3.57 2.89,-6.45 6.43,-6.44 3.57,0 6.45,2.89 6.44,6.43 z m -6.55,-4.45 0,0.55 m 0,7.58 0,0.56 m 3.08,-7.42 -0.4,0.41 m -5.37,5.36 -0.37,0.37 m 7.39,-3.05 -0.56,0 m -7.58,0 -0.52,0 m 1.65,-2.66 -0.41,-0.41 m 2.13,3.19 c 0,-0.58 0.62,-1.1 1.19,-1.18 0.6,-0.1 3.42,4.15 3.2,4.38 -0.24,0.22 -4.46,-2.58 -4.39,-3.2 z m 18.46,-6.48 c 3.55,0 6.44,2.88 6.42,6.44 0,3.55 -2.88,6.44 -6.44,6.42 -3.55,0 -6.44,-2.88 -6.42,-6.44 0,-3.55 2.88,-6.44 6.44,-6.42 z m -4.46,6.55 0.56,0 m 7.57,0 0.56,0 m -7.42,-3.07 0.41,0.41 m 5.37,5.37 0.36,0.36 m -3.04,-7.39 0,0.57 m 0,7.57 0,0.51 m -2.67,-1.64 -0.41,0.41 m 3.19,-2.12 c -0.58,0 -1.1,-0.64 -1.19,-1.19 -0.1,-0.62 4.15,-3.43 4.38,-3.21 0.25,0.22 -2.57,4.46 -3.2,4.4 z m 12.8,-5.65 c 2.49,-2.51 6.58,-2.52 9.08,0 2.51,2.49 2.52,6.58 0,9.08 -2.49,2.51 -6.58,2.52 -9.08,0 -2.51,-2.49 -2.52,-6.58 0,-9.08 z m 1.46,7.78 0.4,-0.39 m 5.36,-5.36 0.4,-0.4 m -7.43,3.08 0.58,0 m 7.59,0 0.52,0 m -7.38,-3.08 0.4,0.41 m 5.36,5.36 0.36,0.36 m -3.05,0.72 0,0.58 m 0.75,-3.76 c -0.41,0.41 -1.22,0.33 -1.67,0 -0.52,-0.37 0.51,-5.35 0.82,-5.36 0.34,0 1.34,4.97 0.85,5.38 z" />
<path class="long" d="m 93.55,62 -43.79,0 m 43.79,29.3 -25.25,0 m -25.39,-52.6 58.19,0 0,66.6 -58.19,0 z" />
<path class="shortest" d="m 49.62,95.98 c 0,0 0,0 0,0 0,0 0,0 0,0 0,0 0,0 0,0 0,0 0,0 0,0 z m 0,3.06 c 0,0 0,0 0,0 0,0 0,0 0,0 0,0 0,0 0,0 0,0 0,0 0,0 z m 2.97,-3.06 c 0,0 0,0 0,0 0,0 0,0 0,0 0,0 0,0 0,0 0,0 0,0 0,0 z m 2.97,0 c 0,0 0,0 0,0 0,0 0,0 0,0 0,0 0,0 0,0 0,0 0,0 0,0 z m 2.97,0 c 0,0 0,0 0,0 0,0 0,0 0,0 0,0 0,0 0,0 0,0 0,0 0,0 z m 2.96,0 c 0,0 0,0 0,0 0,0 0,0 0,0 0,0 0,0 0,0 0,0 0,0 0,0 z m 2.97,0 c 0,0 0,0 0,0 0,0 0,0 0,0 0,0 0,0 0,0 0,0 0,0 0,0 z m 2.97,0 c 0,0 0,0 0,0 0,0 0,0 0,0 0,0 0,0 0,0 0,0 0,0 0,0 z m 2.97,0 c 0,0 0,0 0,0 0,0 0,0 0,0 0,0 0,0 0,0 0,0 0,0 0,0 z m 2.97,0 c 0,0 0,0 0,0 0,0 0,0 0,0 0,0 0,0 0,0 0,0 0,0 0,0 z m 2.97,0 c 0,0 0,0 0,0 0,0 0,0 0,0 0,0 0,0 0,0 0,0 0,0 0,0 z m 2.97,0 c 0,0 0,0 0,0 0,0 0,0 0,0 0,0 0,0 0,0 0,0 0,0 0,0 z m 2.97,0 c 0,0 0,0 0,0 0,0 0,0 0,0 0,0 0,0 0,0 0,0 0,0 0,0 z m 2.97,0 c 0,0 0,0 0,0 0,0 0,0 0,0 0,0 0,0 0,0 0,0 0,0 0,0 z m 2.97,0 c 0,0 0,0 0,0 0,0 0,0 0,0 0,0 0,0 0,0 0,0 0,0 0,0 z m 2.97,0 c 0,0 0,0 0,0 0,0 0,0 0,0 0,0 0,0 0,0 0,0 0,0 0,0 z m 2.97,0 c 0,0 0,0 0,0 0,0 0,0 0,0 0,0 0,0 0,0 0,0 0,0 0,0 z m -41.57,3.06 c 0,0 0,0 0,0 0,0 0,0 0,0 0,0 0,0 0,0 0,0 0,0 0,0 z m 2.97,0 c 0,0 0,0 0,0 0,0 0,0 0,0 0,0 0,0 0,0 0,0 0,0 0,0 z m 2.97,0 c 0,0 0,0 0,0 0,0 0,0 0,0 0,0 0,0 0,0 0,0 0,0 0,0 z m 2.97,0 c 0,0 0,0 0,0 0,0 0,0 0,0 0,0 0,0 0,0 0,0 0,0 0,0 z m 2.97,0 c 0,0 0,0 0,0 0,0 0,0 0,0 0,0 0,0 0,0 0,0 0,0 0,0 z m 2.97,0 c 0,0 0,0 0,0 0,0 0,0 0,0 0,0 0,0 0,0 0,0 0,0 0,0 z m 2.97,0 c 0,0 0,0 0,0 0,0 0,0 0,0 0,0 0,0 0,0 0,0 0,0 0,0 z m 2.97,0 c 0,0 0,0 0,0 0,0 0,0 0,0 0,0 0,0 0,0 0,0 0,0 0,0 z m 2.97,0 c 0,0 0,0 0,0 0,0 0,0 0,0 0,0 0,0 0,0 0,0 0,0 0,0 z m 2.97,0 c 0,0 0,0 0,0 0,0 0,0 0,0 0,0 0,0 0,0 0,0 0,0 0,0 z m 2.97,0 c 0,0 0,0 0,0 0,0 0,0 0,0 0,0 0,0 0,0 0,0 0,0 0,0 z m 2.97,0 c 0,0 0,0 0,0 0,0 0,0 0,0 0,0 0,0 0,0 0,0 0,0 0,0 z m 2.97,0 c 0,0 0,0 0,0 0,0 0,0 0,0 0,0 0,0 0,0 0,0 0,0 0,0 z m 2.97,0 c 0,0 0,0 0,0 0,0 0,0 0,0 0,0 0,0 0,0 0,0 0,0 0,0 z m 2.97,0 c 0,0 0,0 0,0 0,0 0,0 0,0 0,0 0,0 0,0 0,0 0,0 0,0 z" />
</svg>