<svg width="144" height="144" viewBox="0 0 144 144" class="icon icon-cd stroked">
<path class="long"  d="m 82.14,71.99 c 0,5.6 -4.56,10.15 -10.16,10.15 -5.6,0 -10.13,-4.55 -10.13,-10.15 0,-5.6 4.53,-10.14 10.13,-10.14 5.6,0 10.16,4.54 10.16,10.14 z m 24.76,0 c 0,19.23 -15.68,34.91 -34.91,34.91 -19.24,0 -34.83,-15.68 -34.83,-34.91 0,-19.23 15.59,-34.83 34.83,-34.83 19.23,0 34.91,15.6 34.91,34.83 z"    />
<path class="short" d="m 94.56,50.86 -4.73,4.43 M 60.76,82.49 49.5,93.03 M 91.47,47.99 81.75,59.97 m -3.29,12.02 c 0,3.57 -2.9,6.47 -6.47,6.47 -3.57,0 -6.46,-2.9 -6.46,-6.47 0,-3.56 2.89,-6.46 6.46,-6.46 3.57,0 6.47,2.9 6.47,6.46 z"
/>

</svg>