<?xml version="1.0" encoding="UTF-8" standalone="no"?>
<svg
   xmlns:dc="http://purl.org/dc/elements/1.1/"
   xmlns:cc="http://creativecommons.org/ns#"
   xmlns:rdf="http://www.w3.org/1999/02/22-rdf-syntax-ns#"
   xmlns:svg="http://www.w3.org/2000/svg"
   xmlns="http://www.w3.org/2000/svg"
   xmlns:sodipodi="http://sodipodi.sourceforge.net/DTD/sodipodi-0.dtd"
   xmlns:inkscape="http://www.inkscape.org/namespaces/inkscape"
   width="144"
   height="144"
   viewBox="0 0 144 144"
   class="icon icon-city stroked"
   id="svg16688"
   version="1.1"
   inkscape:version="0.48.4+osxmenu r10012"
   sodipodi:docname="RH_Icon_Scalable_Stroked.svg">
  <metadata
     id="metadata16698">
    <rdf:RDF>
      <cc:Work
         rdf:about="">
        <dc:format>image/svg+xml</dc:format>
        <dc:type
           rdf:resource="http://purl.org/dc/dcmitype/StillImage" />
        <dc:title></dc:title>
      </cc:Work>
    </rdf:RDF>
  </metadata>
  <defs
     id="defs16696" />
  <sodipodi:namedview
     pagecolor="#ffffff"
     bordercolor="#666666"
     borderopacity="1"
     objecttolerance="10"
     gridtolerance="10"
     guidetolerance="10"
     inkscape:pageopacity="0"
     inkscape:pageshadow="2"
     inkscape:window-width="1805"
     inkscape:window-height="1567"
     id="namedview16694"
     showgrid="false"
     inkscape:snap-nodes="false"
     inkscape:snap-grids="false"
     inkscape:snap-to-guides="false"
     inkscape:zoom="15.44"
     inkscape:cx="71.79"
     inkscape:cy="61.37"
     inkscape:window-x="333"
     inkscape:window-y="22"
     inkscape:window-maximized="0"
     inkscape:current-layer="svg16688"
     inkscape:snap-global="false" />
  <path
     id="rect18579"
     style="fill:none;fill-opacity:1;fill-rule:evenodd;stroke:#000000;stroke-width:0.19989999999999999;stroke-linecap:round;stroke-linejoin:round;stroke-miterlimit:4;stroke-opacity:1"
     d="m 106,75.87 0.4,2.79 -47.56,8.33 -0.73,-4.7 z m -51.28,6.74 c 0,-9.38 7.64,-16.99 17.03,-16.98 9.39,0 17,7.62 16.99,17 0,9.38 -7.62,16.98 -17.01,16.98 -9.39,-0 -17.01,-7.61 -17.01,-17 z m 3.38,10.15 -24.28,-0 c -5.61,-21.05 6.9,-42.69 27.96,-48.33 21.06,-5.6 42.72,6.86 48.32,27.92 1.8,6.68 1.8,13.74 0,20.42 l -24.63,-0" />
  <path
     id="path18584"
     style="fill:none;stroke:#000000;stroke-width:1px;stroke-linecap:butt;stroke-linejoin:miter;stroke-opacity:1"
     d="m 36.78,82.71 3.44,0 m 1.28,-17.61 2.98,1.72 m 9.91,-14.61 1.72,2.98 m 51.09,27.52 -3.4,0 M 102.5,65.1 99.52,66.82 M 89.61,52.21 87.89,55.19 M 72,47.49 l 0,3.44 m 7.13,32.5 c -0.44,4.08 -4.1,7.01 -8.18,6.58 -2.63,-0.28 -4.79,-1.89 -5.88,-4.1 m -0.62,-4.5 c 0.64,-3.85 4.2,-6.57 8.13,-6.15 2.71,0.29 4.93,2.01 5.98,4.33" />
</svg>
