<svg width="144" height="144" viewBox="0 0 144 144" class="icon icon-serverstack stroked">
<path class="long"  d="m 101.7,41.83 -58.76,0 m 58.76,16.25 -58.76,0 m 58.76,16.35 -58.76,0 m 58.76,16.2 -58.76,0 m 0,-49.01 11.02,-5 36.75,0 10.99,5 0,65.18 -58.76,0 z"    />
<path class="short" d="m 53.42,98.63 c 0,0.4 0.34,0.8 0.75,0.8 0.42,0 0.75,-0.4 0.75,-0.8 0,-0.4 -0.33,-0.7 -0.75,-0.7 -0.41,0 -0.75,0.3 -0.75,0.7 z m -3.32,0 c 0,0.4 -0.34,0.8 -0.75,0.8 -0.42,0 -0.75,-0.4 -0.75,-0.8 0,-0.4 0.33,-0.7 0.75,-0.7 0.41,0 0.75,0.3 0.75,0.7 z m 37.21,-4.2 3.3,0 0,8.47 -3.3,0 z m 9.5,0 -3.3,0 0,8.47 3.3,0 z M 53.42,82.53 c 0,0.4 0.34,0.7 0.75,0.7 0.42,0 0.75,-0.3 0.75,-0.7 0,-0.5 -0.33,-0.8 -0.75,-0.8 -0.41,0 -0.75,0.3 -0.75,0.8 z m -3.32,0 c 0,0.4 -0.34,0.7 -0.75,0.7 -0.42,0 -0.75,-0.3 -0.75,-0.7 0,-0.5 0.33,-0.8 0.75,-0.8 0.41,0 0.75,0.3 0.75,0.8 z m 37.21,-4.3 3.3,0 0,8.5 -3.3,0 z m 9.5,0 -3.3,0 0,8.5 3.3,0 z m -43.39,-12 c 0,0.4 0.34,0.7 0.75,0.7 0.42,0 0.75,-0.3 0.75,-0.7 0,-0.4 -0.33,-0.8 -0.75,-0.8 -0.41,0 -0.75,0.4 -0.75,0.8 z m -3.32,0 c 0,0.4 -0.34,0.7 -0.75,0.7 -0.42,0 -0.75,-0.3 -0.75,-0.7 0,-0.4 0.33,-0.8 0.75,-0.8 0.41,0 0.75,0.4 0.75,0.8 z m 37.21,-4.29 3.3,0 0,8.59 -3.3,0 z m 9.5,0 -3.3,0 0,8.59 3.3,0 z M 53.42,49.95 c 0,0.41 0.34,0.75 0.75,0.75 0.42,0 0.75,-0.34 0.75,-0.75 0,-0.41 -0.33,-0.75 -0.75,-0.75 -0.41,0 -0.75,0.34 -0.75,0.75 z m -3.32,0 c 0,0.41 -0.34,0.75 -0.75,0.75 -0.42,0 -0.75,-0.34 -0.75,-0.75 0,-0.41 0.33,-0.75 0.75,-0.75 0.41,0 0.75,0.34 0.75,0.75 z m 37.21,-4.26 3.3,0 0,8.52 -3.3,0 z m 9.5,0 -3.3,0 0,8.52 3.3,0 z"
/>

</svg>