<svg width="144" height="144" viewBox="0 0 144 144" class="icon icon-bulb stroked">
<path class="long"  d="M 63.29,97.61 C 61.78,97.71 60.4,97.06 60.28,95.5 L 59.76,92.4 C 57.52,82.91 42.24,78.08 42.24,57.59 c 0,-20.49 15.23,-31.83 29.75,-31.83 14.52,0 29.71,11.34 29.71,31.83 0,20.49 -15.28,25.32 -17.52,34.81 l -0.51,3.1 c -0.3,1.48 -1.5,2.11 -3.02,2.11 m -15.9,0 c -2.62,0 -4.73,-0.15 -4.73,2.49 0,0.9 0.31,1.9 0.83,2.7 -0.53,0.7 -0.83,1.7 -0.83,2.7 0,1.3 0.49,2.4 1.3,3.3 -0.8,0.7 -1.3,2 -1.3,3.2 0,3.2 7.16,7.3 12,7.3 4.84,0 12,-4.6 12,-7.3 0,-1.2 -0.5,-2.5 -1.3,-3.2 0.81,-0.9 1.3,-2 1.3,-3.3 0,-1 -0.3,-2 -0.83,-2.7 0.52,-0.8 0.83,-1.8 0.83,-2.7 0,-2.67 -2.11,-2.49 -4.72,-2.49 z M 66.8,93.68 65.93,74.2 59.31,56.46 m 25.38,0 -6.63,17.74 -0.87,19.48" />
<path class="short" d="m 59.31,56.46 c 1.53,0 1.59,3.11 3.14,3.11 1.56,0 1.62,-3.11 3.19,-3.11 1.55,0 1.62,3.11 3.18,3.11 1.57,0 1.64,-3.11 3.19,-3.11 1.56,0 1.63,3.11 3.17,3.11 1.56,0 1.63,-3.11 3.18,-3.11 1.57,0 1.63,3.11 3.17,3.11 1.56,0 1.63,-3.11 3.16,-3.11 m 1.55,-21.53 c 5.83,4.13 10.17,10.99 10.7,20.25 m 0,4.68 c -0.18,2.1 -0.56,3.99 -1.09,5.7 m -1.14,2.99 c -0.25,0.56 -0.52,1.09 -0.8,1.61 M 66.43,103 l 11.18,0 m -11.18,6.3 11.18,0" />
</svg>