<svg width="144" height="144" viewBox="0 0 144 144" class="icon icon-fast-scalable stroked">
<path class="long"  d="m 29.55,94.23 c -1.66,0.91 -1.47,1.66 0.42,1.66 h 82.23 c 1.8,0 3.4,-1.55 3.4,-3.43 v -42.2 c 0,-1.89 -1.4,-2.69 -3,-1.77 L 29.55,94.23 z m 23.57,-4.57 c 0.28,0.99 2.02,1.45 3.85,1.02 L 94.7,81.95 c 1.85,-0.41 3.33,0.78 3.3,2.67 l 0,1.41 c 0,1.88 0.86,2.16 1.96,0.63 l 7.64,-10.64 c 1.1,-1.53 0.5,-3.37 -1.2,-4.08 L 94.2,66.99 c -1.73,-0.71 -2.33,0 -1.29,1.59 l 0.77,1.18 c 1.02,1.57 0.42,3.38 -1.36,4.01 l -36.5,12.95 c -1.78,0.63 -3,1.95 -2.7,2.94 z"  />
</svg>