<svg width="144" height="144" viewBox="0 0 144 144" class="icon icon-security stroked">
<path class="long"  d="m 79.21,74.07 c 0,-0.91 0.74,-1.65 1.65,-1.65 l 14.3,0 c 0.91,0 1.65,0.74 1.65,1.65 0,0.91 -0.74,1.65 -1.65,1.65 l -14.3,0 c -0.91,0 -1.65,-0.74 -1.65,-1.65 z m -12.5,17.38 0,0 c -0.87,-0.5 -1.1,-1.49 -0.65,-2.28 l 7.15,-12.38 c 0.45,-0.78 1.43,-1.08 2.3,-0.58 l 0,0 c 0.78,0.45 1.01,1.45 0.56,2.23 l -7.15,12.38 c -0.45,0.79 -1.43,1.08 -2.21,0.63 z M 66.61,56.5 c 0.78,-0.46 1.79,-0.18 2.25,0.6 l 7.15,12.39 c 0.45,0.79 0.18,1.8 -0.6,2.25 -0.79,0.46 -1.8,0.19 -2.26,-0.6 L 66,58.75 c -0.45,-0.78 -0.18,-1.8 0.61,-2.25 z m -13.76,-3.31 0,-4.31 c 0,-0.86 0.69,-1.55 1.55,-1.55 l 38.5,0 c 0.86,0 1.55,0.69 1.55,1.55 l 0,23.52 m 0,3.27 0,23.88 c 0,0.85 -0.69,1.55 -1.55,1.55 l -38.5,0 c -0.86,0 -1.55,-0.7 -1.55,-1.55 l 0,-4.37 m 0,-5.22 0,-31.65 m 48.05,-17.17 -12.01,-4.87 -33.81,0 -12,4.87 m 0,0 57.82,0 0,66.26 -57.82,0 z" />
<path class="short" d="m 89.55,56.85 c 0,-2.34 -1.9,-4.24 -4.24,-4.24 -2.34,0 -4.24,1.9 -4.24,4.24 0,2.34 1.9,4.24 4.24,4.24 2.34,0 4.24,-1.9 4.24,-4.24 z m -38.7,33.2 5.78,0 c 0.87,0 1.56,0.69 1.56,1.55 l 0,2.05 c 0,0.86 -0.69,1.55 -1.56,1.55 l -5.78,0 c -0.86,0 -1.55,-0.69 -1.55,-1.55 l 0,-2.05 c 0,-0.86 0.69,-1.55 1.55,-1.55 z m 0,-36.83 5.78,0 c 0.87,0 1.56,0.69 1.56,1.55 l 0,2.05 c 0,0.86 -0.69,1.55 -1.56,1.55 l -5.78,0 c -0.86,0 -1.55,-0.69 -1.55,-1.55 l 0,-2.05 c 0,-0.86 0.69,-1.55 1.55,-1.55 z m 23.02,12.47 c 0.88,-0.3 1.82,-0.46 2.8,-0.46 4.29,0 7.87,3.09 8.62,7.17 m 0,3.28 c -0.79,4.03 -4.35,7.08 -8.6,7.08 -0.98,0 -1.92,-0.16 -2.8,-0.46 m -2.93,-1.67 c -1.86,-1.61 -3.04,-3.99 -3.04,-6.64 0,-2.66 1.19,-5.05 3.06,-6.65 m 5.19,10.88 c 1.86,0.22 3.65,-0.8 4.4,-2.51 m 0,-3.28 C 80.13,71.24 79.12,70.27 77.78,69.91 77.25,69.77 76.71,69.73 76.19,69.8 m -2.86,1.6 c -0.34,0.44 -0.6,0.94 -0.75,1.51 -0.35,1.34 0,2.7 0.76,3.71" />
</svg>