<svg width="144" height="144" viewBox="0 0 144 144" class="icon icon-bike stroked">
<path class="long"  d="m 95.19,80.52 -5,-9.9 -3.7,-13.05 -0.4,-4.26 4.8,-2.57 m -18.7,30.78 15.4,-19.26 0.2,0 m -19,18.96 -9.19,-23.55 26.89,-0.1 m -36.65,23.95 17.05,2.4 M 48.94,79.52 59.49,57.77 M 35.73,81.22 c 0,7 5.66,12.6 12.63,12.6 6.98,0 12.64,-5.6 12.64,-12.6 0,-7 -5.66,-12.6 -12.64,-12.6 -6.97,0 -12.63,5.6 -12.63,12.6 z m 27.46,0 c 0,8.3 -6.65,14.8 -14.85,14.8 -8.18,0 -14.83,-6.5 -14.83,-14.8 0,-8.2 6.65,-14.8 14.83,-14.8 8.2,0 14.85,6.6 14.85,14.8 z m 19.8,0 c 0,7 5.7,12.6 12.7,12.6 6.91,0 12.61,-5.6 12.61,-12.6 0,-7 -5.7,-12.6 -12.61,-12.6 -7,0 -12.7,5.6 -12.7,12.6 z m 27.51,0 c 0,8.3 -6.6,14.8 -14.81,14.8 -8.2,0 -14.9,-6.5 -14.9,-14.8 0,-8.2 6.7,-14.8 14.9,-14.8 8.21,0 14.81,6.6 14.81,14.8 z" />
<path class="short"  d="m 91.99,51.9 c -2.2,-1.09 -1,-2.75 0.6,-1.97 4.3,1.95 4.6,6.35 -0.2,8.92 -1.2,0.32 -2.1,-1.12 -0.9,-1.89 3.1,-1.79 2.6,-3.96 0.5,-5.06 z M 51.77,50.23 c -0.39,-0.55 0,-2.35 2.05,-2.25 1.41,0.1 8.34,0.7 9.37,0.7 1.6,0 3.4,2.25 0.25,2.38 -3.15,0.13 -3.91,1.92 -6.29,1.92 -2.37,0 -4.99,-2.21 -5.38,-2.75 z m 21.72,33.99 c 0,1.9 -1.5,3.3 -3.3,3.3 -1.8,0 -3.3,-1.4 -3.3,-3.3 0,-1.8 1.5,-3.2 3.3,-3.2 1.8,0 3.3,1.4 3.3,3.2 z m 23,-3 c 0,0.5 -0.4,0.9 -0.8,0.9 -0.5,0 -0.9,-0.4 -0.9,-0.9 0,-0.4 0.4,-0.8 0.9,-0.8 0.4,0 0.8,0.4 0.8,0.8 z m -46.54,0 c 0,0.9 -0.71,1.6 -1.59,1.6 -0.88,0 -1.6,-0.7 -1.6,-1.6 0,-0.9 0.72,-1.6 1.6,-1.6 0.88,0 1.59,0.7 1.59,1.6 z M 59.6,57.67 57.82,53.03"/></svg>