<svg width="188" height="144" viewBox="0 0 188 144" class="icon icon-wideload icon-storage-bank stroked">
<path class="long"  d="m 15.78,42.75 c 0,-3.75 11.66,-6.79 26.03,-6.79 14.36,0 26.02,3.04 26.02,6.79 m -3.25,18.7 c 2.45,0.55 3.32,1.82 3.32,2.73 l 0,15.01 c 0,3.8 -11.63,6.8 -26.09,6.8 -14.45,0 -26.08,-3 -26.08,-6.8 l 0,-15.01 c 0,-0.91 0.87,-2.18 3.32,-2.73 m 45.53,21.08 c 2.45,0.55 3.32,1.82 3.32,2.73 l 0,15.04 c 0,3.8 -11.63,6.8 -26.09,6.8 -14.45,0 -26.08,-3 -26.08,-6.8 l 0,-15.04 c 0,-0.91 0.87,-2.18 3.32,-2.73 m 48.85,-39.62 0,15.04 c 0,3.8 -11.63,6.8 -26.09,6.8 -14.45,0 -26.08,-3 -26.08,-6.8 l 0,-15.04 M 120.2,42.75 c 0,-3.75 11.6,-6.79 26,-6.79 14.3,0 26,3.04 26,6.79 m -3.2,18.7 c 2.4,0.55 3.3,1.82 3.3,2.73 l 0,15.01 c 0,3.8 -11.7,6.8 -26.1,6.8 -14.5,0 -26.1,-3 -26.1,-6.8 l 0,-15.01 c 0,-0.91 0.9,-2.18 3.3,-2.73 M 169,82.53 c 2.4,0.55 3.3,1.82 3.3,2.73 l 0,15.04 c 0,3.8 -11.7,6.8 -26.1,6.8 -14.5,0 -26.1,-3 -26.1,-6.8 l 0,-15.04 c 0,-0.91 0.9,-2.18 3.3,-2.73 m 48.9,-39.62 0,15.04 c 0,3.8 -11.7,6.8 -26.1,6.8 -14.5,0 -26.1,-3 -26.1,-6.8 l 0,-15.04 M 67.96,42.75 c 0,-3.75 11.66,-6.79 26.03,-6.79 14.31,0 26.01,3.04 26.01,6.79 m -3.2,18.7 c 2.4,0.55 3.3,1.82 3.3,2.73 l 0,15.01 c 0,3.8 -11.7,6.8 -26.11,6.8 -14.45,0 -26.08,-3 -26.08,-6.8 l 0,-15.01 c 0,-0.91 0.87,-2.18 3.32,-2.73 m 45.57,21.08 c 2.4,0.55 3.3,1.82 3.3,2.73 l 0,15.04 c 0,3.8 -11.7,6.8 -26.11,6.8 -14.45,0 -26.08,-3 -26.08,-6.8 l 0,-15.04 c 0,-0.91 0.87,-2.18 3.32,-2.73 m 48.87,-39.62 0,15.04 c 0,3.8 -11.7,6.8 -26.11,6.8 -14.45,0 -26.08,-3 -26.08,-6.8 l 0,-15.04" />
<path class="short" d="m 27.13,48.25 c -3.17,-0.56 -5.84,-1.3 -7.8,-2.16 m 44.13,0.54 c -10.32,2.86 -19.89,3.02 -29.79,2.4 m 97.83,-0.78 c -3.2,-0.56 -5.8,-1.3 -7.8,-2.16 m 44.1,0.54 c -10.3,2.86 -19.9,3.02 -29.8,2.4 M 79.31,48.25 c -3.17,-0.56 -5.84,-1.3 -7.8,-2.16 m 44.09,0.54 c -10.3,2.86 -19.85,3.02 -29.75,2.4 M 27.13,68.34 c -3.17,-0.56 -5.84,-1.3 -7.8,-2.16 m 44.13,0.54 c -10.32,2.86 -19.89,3.02 -29.79,2.4 m -6.54,20.63 c -3.17,-0.56 -5.84,-1.3 -7.8,-2.16 m 44.13,0.54 c -10.32,2.86 -19.89,3.02 -29.79,2.4 M 131.5,68.34 c -3.2,-0.56 -5.8,-1.3 -7.8,-2.16 m 44.1,0.54 c -10.3,2.86 -19.9,3.02 -29.8,2.4 m -6.5,20.63 c -3.2,-0.56 -5.8,-1.3 -7.8,-2.16 m 44.1,0.54 c -10.3,2.86 -19.9,3.02 -29.8,2.4 M 79.31,68.34 c -3.17,-0.56 -5.84,-1.3 -7.8,-2.16 m 44.09,0.54 c -10.3,2.86 -19.85,3.02 -29.75,2.4 m -6.54,20.63 c -3.17,-0.56 -5.84,-1.3 -7.8,-2.16 m 44.09,0.54 c -10.3,2.86 -19.85,3.02 -29.75,2.4" />
</svg>