<svg width="144" height="144" viewBox="0 0 144 144" class="icon icon-smartphone stroked">
<path class="long"  d="m 95.15,41.17 -46.3,0 m 46.3,61.63 -46.3,0 m 5.91,-71.84 34.49,0 c 3.3,0 5.9,2.64 5.9,5.93 l 0,70.11 c 0,3.3 -2.6,6 -5.9,6 l -34.49,0 c -3.28,0 -5.91,-2.7 -5.91,-6 l 0,-70.12 c 0,-3.28 2.63,-5.92 5.91,-5.92 z"  />
<path class="short" d="m 63.13,36.08 0.19,0 m 3.87,0 13.68,0 m 4.89,58.27 2.12,0 m -8.06,0 2.13,0 m -8.05,0 2.13,0 m -8.05,0 2.12,0 m -8.04,0 2.11,0 m -8.04,0 2.12,0 m 24.54,-3.91 2.12,0 m -8.06,0 2.13,0 m -8.05,0 2.13,0 m -8.05,0 2.12,0 m -8.04,0 2.11,0 m 24.56,-3.92 2.12,0 m -8.06,0 2.13,0 m -8.05,0 2.13,0 m -8.05,0 2.12,0 m -8.04,0 2.11,0 m -8.04,0 2.12,0 m 26.58,11.74 2.62,0 m -30.9,0 2.62,0 m 5.66,0 14.33,0 M 77.2,47.46 91.28,65.22 M 71.42,46.54 82.47,60.35 m -13.3,45.55 5.66,0 c 0.11,0 0.21,0 0.21,0.1 l 0,3 c 0,0.1 -0.1,0.1 -0.21,0.1 l -5.66,0 c -0.11,0 -0.21,0 -0.21,-0.1 l 0,-3 c 0,-0.1 0.1,-0.1 0.21,-0.1 z" />
</svg>