
<svg width="144" height="144" viewBox="0 0 144 144" class="icon icon-gears stroked">
<path class="long"   d="m 140,139.2 c 0.3,0.3 0.4,0.7 0.4,0.7 l -6.8,5.4 c 0,0.1 -0.3,-0.1 -0.6,-0.5 l -23,-28.5 c -0.2,-0.3 -0.4,-0.7 -0.3,-0.7 l 6.7,-5.4 c 0.1,-0.1 0.4,0.1 0.7,0.4 L 140,139.2 z M 111.7,90.41 c 0,9.04 -7.3,16.39 -16.34,16.39 -9.04,0 -16.37,-7.35 -16.37,-16.39 0,-9.04 7.33,-16.37 16.37,-16.37 9.04,0 16.34,7.33 16.34,16.37 z m 3.4,0 c 0,10.89 -8.8,19.79 -19.74,19.79 -10.91,0 -19.75,-8.9 -19.75,-19.79 0,-10.91 8.84,-19.75 19.75,-19.75 10.94,0 19.74,8.84 19.74,19.75 z"/>
<path class="short" d="m 73.79,67.91 5.7,7 m -4.8,3.8 -5.7,-7 m 22,19.2 8.6,10.59 M 59.35,41.42 c 5.14,0 9.64,3.04 11.74,7.43" />
</svg>