<svg width="144" height="144" viewBox="0 0 144 144" class="icon icon-eco-bulb stroked">
<path class="long"  d="m 64.75,95.33 c -2.62,0 -4.73,2.1 -4.73,4.77 0,0.9 0.31,1.9 0.83,2.7 -0.53,0.7 -0.83,1.7 -0.83,2.7 0,1.3 0.49,2.4 1.3,3.3 -0.8,0.7 -1.3,2 -1.3,3.2 0,3.2 7.16,7.3 12,7.3 4.84,0 12,-4.6 12,-7.3 0,-1.2 -0.5,-2.5 -1.3,-3.2 0.81,-0.9 1.3,-2 1.3,-3.3 0,-1 -0.3,-2 -0.83,-2.7 0.52,-0.8 0.83,-1.8 0.83,-2.7 0,-2.67 -2.11,-4.77 -4.72,-4.77 m -16.54,-12.47 18.53,0 c 3.46,0 6.23,2.77 6.23,6.23 0,3.44 -2.77,6.24 -6.23,6.24 l -18.53,0 c -3.47,0 -6.25,-2.8 -6.25,-6.24 0,-3.46 2.78,-6.23 6.25,-6.23 z m 21.06,-19.93 5.54,0 c 2.15,0 3.86,1.73 3.86,3.87 0,2.15 -1.71,3.87 -3.86,3.87 l -35.08,0 m -0.99,-7.58 38.85,-10.4 c 2.07,-0.56 4.18,0.66 4.73,2.74 0.57,2.06 -0.65,4.2 -2.74,4.74 L 55.28,70.58 C 53.22,71.14 51.11,69.92 50.56,67.84 50,65.78 51.21,63.65 53.29,63.09 z M 48.95,39.68 87.8,29.28 c 2.09,-0.56 4.2,0.66 4.76,2.72 0.56,2.09 -0.66,4.19 -2.75,4.75 L 50.96,47.17 c -2.08,0.54 -4.19,-0.68 -4.74,-2.74 -0.55,-2.08 0.66,-4.19 2.73,-4.75 z M 47.9,52.39 94.13,39.99 c 2.08,-0.56 4.19,0.67 4.75,2.74 0.56,2.07 -0.66,4.19 -2.75,4.73 L 49.9,59.85 c -2.06,0.56 -4.19,-0.66 -4.74,-2.73 -0.56,-2.07 0.67,-4.18 2.74,-4.73 z m 11.25,-15.52 -5.42,0 c -2.14,0 -3.87,-1.72 -3.87,-3.85 0,-2.15 1.73,-3.89 3.87,-3.89 l 35.09,0" />
<path class="short" d="M 69.6,82.75 C 70.08,76.46 68.44,72.33 65.75,70.66 m -7.75,0 c 3.96,2.94 5.16,7.91 5.05,12.09 m 11.39,0 C 73.96,76.46 75.6,72.33 78.3,70.66 m 7.74,0 c -3.96,2.94 -5.15,7.91 -5.05,12.09 m -14.56,26.55 11.18,0 m -11.18,-6.3 11.18,0" />
</svg>