<svg width="144" height="144" viewBox="0 0 144 144" class="icon icon-organization icon-org stroked">
<path class="long"  d="m 71.83,54.73 0,34.82 m -30.14,0 0,-22.97 60.51,0 0,22.97 m 8,8.22 c 0,4.63 -3.7,8.33 -8.3,8.33 -4.65,0 -8.38,-3.7 -8.38,-8.33 0,-4.61 3.73,-8.34 8.38,-8.34 4.6,0 8.3,3.73 8.3,8.34 z m -59.72,0 c 0,4.63 -3.73,8.33 -8.34,8.33 -4.6,0 -8.33,-3.7 -8.33,-8.33 0,-4.61 3.73,-8.34 8.33,-8.34 4.61,0 8.34,3.73 8.34,8.34 z m 29.85,0 c 0,4.63 -3.73,8.33 -8.33,8.33 -4.6,0 -8.33,-3.7 -8.33,-8.33 0,-4.61 3.73,-8.34 8.33,-8.34 4.6,0 8.33,3.73 8.33,8.34 z m 0,-51.38 c 0,4.6 -3.73,8.34 -8.33,8.34 -4.6,0 -8.33,-3.74 -8.33,-8.34 0,-4.6 3.73,-8.33 8.33,-8.33 4.6,0 8.33,3.73 8.33,8.33 z" />
</svg>