<svg width="144" height="144" viewBox="0 0 144 144" class="icon icon-sun stroked">
<path class="long"  d="M 79.14,51.85 71.98,29.79 64.86,51.85 M 58.14,55.73 35.42,50.89 50.95,68.1 m 42.06,0 15.59,-17.18 -22.78,4.81 M 50.95,75.92 35.42,93.1 58.14,88.29 m 27.68,0 22.78,4.84 L 93.01,75.92 M 64.82,92.17 71.98,114.2 79.1,92.17 M 93.39,72.01 C 93.39,83.82 83.82,93.4 72,93.4 60.18,93.4 50.61,83.82 50.61,72.01 c 0,-11.82 9.57,-21.4 21.39,-21.4 11.82,0 21.39,9.58 21.39,21.4 z" />
<path class="short" d="M 64.66,51.91 54.6,41.84 58.32,55.59 m 27.4,0 3.72,-13.78 -10.06,10.07 m -28.47,16.4 -13.72,3.65 13.72,3.69 m 42.18,0 13.71,-3.66 -13.71,-3.68 M 58.28,88.37 54.57,102.2 64.62,92.09 m 14.72,0 10.07,10.11 -3.72,-13.8" />
</svg>