<svg width="144" height="144" viewBox="0 0 144 144" class="icon icon-city stroked">
<path class="long"  d="m 48.69,115 46.87,0 m 16.84,-1.8 c 0,1 -0.8,1.8 -1.8,1.8 l -15.04,0 c -1,0 -1.83,-0.8 -1.83,-1.8 l 0,-36.85 c 0,-1.01 0.83,-1.83 1.83,-1.83 l 15.04,0 c 1,0 1.8,0.82 1.8,1.83 z m -61.88,0 c 0,1 -0.83,1.8 -1.83,1.8 l -12.45,0 c -1.02,0 -1.83,-0.8 -1.83,-1.8 l 0,-62.75 c 0,-1 0.81,-1.83 1.83,-1.83 l 12.45,0 c 1,0 1.83,0.83 1.83,1.83 z M 76.5,115 c -1,0 -1.83,-0.8 -1.83,-1.8 l 0,-51.03 c 0,-1 0.83,-1.82 1.83,-1.82 l 22.92,0 c 0.98,0 1.88,0.82 1.88,1.82 l 0,12.35 m -55.61,-25.9 0,-15.85 c 0,-1 0.81,-1.82 1.82,-1.82 l 35,0 c 1,0 1.83,0.82 1.83,1.82 l 0,27.58"  />
<path class="short" d="m 45.35,60.26 0,-4.84 m -5.77,0 0,4.84 m 66.42,19.95 0,4.84 m -5.8,-4.84 0,4.84 m -3.58,-19.26 0,4.83 m -5.77,-4.83 0,4.83 m -5.78,-4.83 0,4.83 m -5.76,-4.83 0,4.83 m -11.88,19.32 0,4.82 m -5.78,0 0,-4.82 m -5.76,0 0,4.82 m 11.54,-12.14 0,-4.82 m -5.78,0 0,4.82 m -5.76,-4.82 0,4.82 m 11.54,-16.83 0,4.83 m -5.78,0 0,-4.83 m -5.76,0 0,4.83 m 11.54,-12.78 0,-4.83 m -5.78,0 0,4.83 m -5.76,0 0,-4.83 m 17.31,-7.52 0,-4.83 m -5.77,0 0,4.83 m -5.78,0 0,-4.83 m -5.76,0 0,4.83" />
</svg>