<svg width="144" height="144" viewBox="0 0 144 144" class="icon icon-code stroked">
<path class="long"  d="m 112,68.1 c -6.9,0 -5.9,-4.1 -5.9,-11.8 0,-7.5 -4.2,-8.6 -14.95,-8.6 l 0,5.6 c 7,0 8.6,0.5 8.6,6.1 0,5.7 -0.3,12 5.65,12 -5.95,-0.1 -5.65,6.2 -5.65,11.9 0,5.6 -1.6,6.1 -8.6,6.1 l 0,5.6 c 10.65,0 14.95,-1.2 14.95,-8.7 0,-7.6 -1,-11.7 5.9,-11.7 z m -80.05,0 c 6.9,0 5.9,-4.1 5.9,-11.8 0,-7.5 4.2,-8.6 14.9,-8.6 l 0,5.6 c -6.9,0 -8.6,0.5 -8.6,6.1 0,5.7 0.3,12 -5.7,12 6,-0.1 5.7,6.2 5.7,11.9 0,5.6 1.7,6.1 8.6,6.1 l 0,5.6 c -10.7,0 -14.9,-1.2 -14.9,-8.7 0,-7.6 1,-11.7 -5.9,-11.7 z m 36.4,-20.8 0,49.4 7.3,0 0,-49.4 -7.3,0 z" />
</svg>