<svg width="144" height="144" viewBox="0 0 144 144" class="icon icon-calendar stroked">
<path class="long"  d="m 48.07,48.54 47.67,0 0,46.6 -47.67,0 z m -4.21,-5.39 56.14,0 0,57.35 -56.14,0 z" />
<path class="short" style=""  d="m 89.56,48.46 c -2.51,-4.68 -7.47,-0.25 -2.68,4.16 m 0.59,-2.41 c 1.89,0.51 2.39,2.97 0.83,4.15 -1.56,1.2 -3.81,0.1 -3.81,-1.87 M 59.5,48.46 c -2.51,-4.68 -7.47,-0.25 -2.68,4.16 m 0.59,-2.41 c 1.89,0.51 2.39,2.97 0.83,4.15 -1.56,1.2 -3.81,0.1 -3.81,-1.87 m 20.61,28.17 c 0,-0.78 -0.12,-1.46 -0.36,-2.08 -0.24,-0.61 -0.55,-1.12 -0.95,-1.54 -0.38,-0.45 -0.83,-0.8 -1.37,-1.06 -0.52,-0.28 -1.05,-0.49 -1.61,-0.63 0.42,-0.21 0.83,-0.45 1.23,-0.71 0.4,-0.28 0.74,-0.61 1.02,-0.98 0.31,-0.4 0.55,-0.85 0.73,-1.34 0.24,-0.5 0.3,-1.11 0.29,-1.79 0,-1.29 -0.24,-2.37 -0.71,-3.27 -0.47,-0.92 -1.13,-1.66 -2,-2.21 -0.87,-0.57 -1.91,-0.97 -3.13,-1.2 -1.2,-0.22 -2.53,-0.38 -4.01,-0.38 -1.08,0 -2.08,0.1 -2.99,0.24 -0.91,0.16 -1.76,0.4 -2.53,0.7 -0.77,0.28 -1.51,0.62 -2.18,1.02 -0.65,0.38 -1.27,0.79 -1.83,1.23 l 3.24,4.43 c 0.96,-0.68 1.93,-1.19 2.88,-1.54 0.96,-0.38 2.04,-0.57 3.24,-0.57 1.21,0 2.08,0.18 2.6,0.53 0.54,0.32 0.81,0.82 0.81,1.48 0,0.82 -0.21,1.37 -0.64,1.65 -0.39,0.28 -1.12,0.42 -2.21,0.42 l -3.17,0 0,5.31 3.56,0 c 1.26,0 2.16,0.17 2.67,0.53 0.54,0.36 0.81,0.97 0.81,1.83 0,0.84 -0.3,1.47 -0.95,1.89 -0.63,0.4 -1.67,0.6 -3.1,0.6 -1.35,0 -2.61,-0.24 -3.76,-0.7 -1.15,-0.47 -2.23,-1.09 -3.23,-1.86 l -3.52,4.43 c 1.34,1.16 2.88,2.09 4.61,2.77 1.74,0.66 3.66,0.98 5.76,0.99 1.67,0 3.17,-0.15 4.5,-0.46 1.34,-0.32 2.47,-0.82 3.38,-1.48 0.94,-0.68 1.64,-1.53 2.14,-2.56 0.52,-1.03 0.78,-2.26 0.78,-3.69 z m 12.86,7.79 0.1,-24.59 -5.74,0 c -0.15,0.58 -0.39,1.07 -0.67,1.48 -0.26,0.4 -0.59,0.73 -0.98,0.98 -0.4,0.26 -0.89,0.46 -1.45,0.6 -0.56,0.14 -1.24,0.24 -2.04,0.28 l 0,4.33 4.15,0 0,16.95 z m -39.83,-31.59 47.67,0"  />
</svg>