<svg width="144" height="144" viewBox="0 0 144 144" class="icon icon-enterprise stroked">
<path class="long"  d="m 90.63,112.4 -37.22,0 m 36.38,-50.17 -35.58,0 m 9.77,-22.29 0,-5.65 16.17,0 0,5.65 m 3.27,0.73 0,21.57 m -22.66,-21.57 0,21.57 m 27.18,0.59 0,50.37 m -31.69,-50.37 0,50.47 m -2.85,0.1 37.2,0 0,9.4 -37.2,0 z m 32.08,-72.49 -26.97,0 M 85.48,40 58.51,40 m 31.28,23.21 -35.58,0 m 24.97,-22.3 0,17.83 m -4.66,-17.83 0,21.15 m -4.65,-21.15 0,21.15 m -4.66,-17.77 0,17.94 m 12.07,1.23 0,44.84 m -10.59,-44.84 0,49.84 m 15.89,-50.47 0,43.27 m -10.59,-40.09 0,47.29 M 61.4,69.89 l 0,43.41" />
<path class="short" d="m 53.4,116.7 19.35,0 m -16.27,-24.31 22.99,0 m 8.47,-14.89 -23.3,0 m -3.88,-23.64 15.82,0 m -4.53,-32.71 0,12.96" />
</svg>