<svg width="144" height="144" viewBox="0 0 144 144" class="icon icon-development stroked">
<path class="long"  d="M 52.19,45.48 C 65.54,31.08 85.84,34.11 97.24,50.7 m -2.6,45.69 C 81.54,113.5 60.5,109.5 49.62,96.09 m 64.88,-24.2 c 0,9 -7.4,16.4 -16.36,16.4 -9,0 -16.4,-7.4 -16.4,-16.4 0,-9.1 7.4,-16.48 16.4,-16.48 8.96,0 16.36,7.38 16.36,16.48 z" />
<path class="short" d="m 36.78,73.79 c 1.33,-2.1 3.43,-3.5 5.87,-3.8 m 5.99,0.8 c 2.89,1.7 4.77,4.7 4.77,8.1 0,4.9 -4.11,9.1 -9.1,9.1 -3.55,0 -6.66,-2.2 -8.09,-5.1 M 62.95,56.01 c 0.89,0.18 1.79,0.53 2.79,1.03 4.4,2.5 5.7,8.05 3.2,12.55 -2.5,4.3 -8.1,5.8 -12.43,3.3 -4.31,-2.6 -5.76,-8.2 -3.32,-12.49 0.33,-0.59 0.77,-1.1 1.23,-1.62 M 32.78,86.29 c 0,1.3 1.22,2.5 2.56,2.5 1.43,0 2.54,-1.2 2.54,-2.5 0,-1.5 -1.11,-2.7 -2.54,-2.7 -1.34,0 -2.56,1.2 -2.56,2.7 z m 5.98,-17.8 c 0,1.4 -1.11,2.6 -2.54,2.6 -1.45,0 -2.55,-1.2 -2.55,-2.6 0,-1.4 1.1,-2.6 2.55,-2.6 1.43,0 2.54,1.2 2.54,2.6 z M 51.53,58.11 c 0,-1.41 -1.11,-2.57 -2.55,-2.57 -1.34,0 -2.56,1.16 -2.56,2.57 0,1.41 1.22,2.59 2.56,2.59 1.44,0 2.55,-1.18 2.55,-2.59 z m 11.64,18.18 c 0,1.5 1.1,2.6 2.6,2.6 1.3,0 2.57,-1.1 2.57,-2.6 0,-1.4 -1.27,-2.5 -2.57,-2.5 -1.5,0 -2.6,1.1 -2.6,2.5 z m -7.43,12 c 0,1.3 -1.11,2.5 -2.55,2.5 -1.45,0 -2.55,-1.2 -2.55,-2.5 0,-1.5 1.1,-2.7 2.55,-2.7 1.44,0 2.55,1.2 2.55,2.7 z m 7.88,-8.4 c 0,-2.8 -2.22,-5.2 -5,-5.2 -2.77,0 -4.99,2.4 -4.99,5.2 0,2.6 2.22,4.9 4.99,4.9 2.78,0 5,-2.3 5,-4.9 z m -24.08,-1.6 c 0,2.7 -2.33,5 -4.98,5 -2.79,0 -5.11,-2.3 -5.11,-5 0,-2.8 2.32,-5.2 5.11,-5.2 2.65,0 4.98,2.4 4.98,5.2 z m 1.67,-11.9 c 0,2.8 2.21,5.1 4.99,5.1 2.76,0 4.99,-2.3 4.99,-5.1 0,-2.68 -2.23,-4.93 -4.99,-4.93 -2.78,0 -4.99,2.25 -4.99,4.93 z m 1,-6.62 c 0,2.75 -2.33,4.92 -5,4.92 -2.76,0 -5.1,-2.17 -5.1,-4.92 0,-2.75 2.34,-5.02 5.1,-5.02 2.67,0 5,2.27 5,5.02 z m 20.96,-4.25 c 0,2.73 -2.21,4.98 -4.99,4.98 -2.78,0 -4.99,-2.25 -4.99,-4.98 0,-2.78 2.21,-5.03 4.99,-5.03 2.78,0 4.99,2.25 4.99,5.03 z m -12.65,-8.01 1.22,-4.2 0.46,2.13 1.66,-0.13 z m 45.42,46.58 -0.8,4.4 -0.6,-2.2 -1.6,0.3 z" />
</svg>