<svg width="144" height="144" viewBox="0 0 144 144" class="icon icon-storage-stack  stroked">
<path class="long"  d="m 98.09,42.91 0,15.04 c 0,3.8 -11.63,6.8 -26.09,6.8 -14.45,0 -26.08,-3 -26.08,-6.8 l 0,-15.04 m 48.85,39.62 c 2.45,0.55 3.32,1.82 3.32,2.73 l 0,15.04 c 0,3.8 -11.63,6.8 -26.09,6.8 -14.45,0 -26.08,-3 -26.08,-6.8 l 0,-15.04 c 0,-0.91 0.87,-2.18 3.32,-2.73 M 94.77,61.45 c 2.45,0.55 3.32,1.82 3.32,2.73 l 0,15.01 c 0,3.8 -11.63,6.8 -26.09,6.8 -14.45,0 -26.08,-3 -26.08,-6.8 l 0,-15.01 c 0,-0.91 0.87,-2.18 3.32,-2.73 m -3.27,-18.7 c 0,-3.75 11.66,-6.79 26.03,-6.79 14.36,0 26.02,3.04 26.02,6.79" />
<path class="short" d="m 93.65,46.72 c -10.32,2.86 -19.89,3.02 -29.79,2.4 m -6.54,-0.78 c -3.17,-0.56 -5.84,-1.3 -7.8,-2.16 m 44.13,41.95 c -10.32,2.86 -19.89,3.02 -29.79,2.4 m -6.54,-0.78 c -3.17,-0.56 -5.84,-1.3 -7.8,-2.16 M 93.65,66.72 c -10.32,2.86 -19.89,3.02 -29.79,2.4 m -6.54,-0.78 c -3.17,-0.56 -5.84,-1.3 -7.8,-2.16" />
</svg>