<svg width="144" height="144" viewBox="0 0 144 144" class="icon icon-box-open stroked">
<path class="long"  d="m 73.09,73.45 0.1,39.45 m -32.63,-37.91 0,22.71 32.63,15.2 30.91,-16.1 -0.3,-30.85 M 72.26,41.77 58.42,39.79 27.04,56.37 40.76,57.59 34.56,72.31 66.58,87.49 73.09,73.45 85.46,75.5 116.7,59.68 103.7,57.2 114.4,45.91 83.17,30.48 z m 0,0 -31.5,15.82 32.33,15.86 30.61,-16.25 z" />
<path class="short"  d="m 69.34,106.6 0,-14.74 m 19.94,8.84 11.12,-6.04 0,-9.64 M 86.94,49.47 56.59,65.19"/>
</svg>