<svg width="144" height="144" viewBox="0 0 144 144" class="icon icon-toolbox stroked">
<path class="long"  d="m 35.97,71.17 10.78,0 m 7.31,0 35.82,0 m 7.18,0 10.94,0 m -50.04,-17.34 -11.99,0 -10,6.84 72.03,0 -10,-6.84 -11.46,0 m -4.98,0 -18.56,0 m 45,46.27 -72.03,0 0,-39.43 72.03,0 z" />
<path class="short" d="m 86.54,54.89 0,-5.44 c 0,-2.78 -2.23,-5.01 -5.01,-5.01 l -18.54,0 0,0 c -2.78,0 -5.01,2.23 -5.01,5.01 l 0,5.44 c 0,1.81 4.99,1.87 4.99,0 l 0,-5.34 18.57,0 0,5.34 c 0,1.98 4.98,1.94 4.98,0 z m 4.69,22.73 0,1.84 c 0,0.79 0.64,1.43 1.43,1.43 l 1.68,0 c 0.79,0 1.43,-0.64 1.43,-1.43 l 0,-1.84 m -3.6,-9.67 2.67,0 c 1.25,0 2.26,1.01 2.26,2.26 l 0,5.34 c 0,1.25 -1.01,2.26 -2.26,2.26 l -2.67,0 c -1.25,0 -2.26,-1.01 -2.26,-2.26 l 0,-5.34 c 0,-1.25 1.01,-2.26 2.26,-2.26 z m -43.94,9.67 0,1.84 c 0,0.79 0.64,1.43 1.43,1.43 l 1.68,0 c 0.79,0 1.43,-0.64 1.43,-1.43 l 0,-1.84 m -3.6,-9.67 2.67,0 c 1.25,0 2.26,1.01 2.26,2.26 l 0,5.34 c 0,1.25 -1.01,2.26 -2.26,2.26 l -2.67,0 c -1.25,0 -2.26,-1.01 -2.26,-2.26 l 0,-5.34 c 0,-1.25 1.01,-2.26 2.26,-2.26 z" />
</svg>