<svg width="144" height="144" viewBox="0 0 144 144" class="icon  icon-recycle stroked">
<path class="long"  d="m 51.27,82.46 5.37,-8.78 4.65,2.58 -6.92,-13.87 -15.08,0.91 5.14,3.14 -4.33,7.59 c -1.11,2.16 -0.86,4.91 0.96,7.61 l 7.96,11.81 M 39.47,76.97 c 2.43,5.06 5,5.51 10.73,5.51 l 17.22,0.18 0,15.76 -11.36,-0.41 c -3.29,-0.25 -5.6,-2.5 -6.99,-4.56 M 103.2,80.62 c -1.7,3.7 -6.32,3.87 -10.58,3.65 l -10.3,-0.16 -0.13,-5.33 -8.43,13 8.44,12.52 0.1,-6.02 8.74,-0.12 c 2.42,-0.13 4.65,-1.75 6.06,-4.69 z m -10.58,3.65 -8.54,-13.88 13.52,-8.7 5.7,10.82 c 1.4,2.95 1,5.88 -0.1,8.11 M 65.32,40.06 c 4.07,0 6.22,4.05 7.85,7.99 l 4.28,9.36 -4.74,2.42 15.36,2.01 7.68,-13.01 -5.48,2.5 -3.87,-7.83 c -1.17,-2.12 -3.59,-3.45 -6.85,-3.45 z m 7.85,7.99 -8.85,13.68 -13.67,-8.46 7.3,-9.81 c 2.03,-2.58 4.89,-3.42 7.37,-3.4" />
</svg>