<svg width="144" height="144" viewBox="0 0 144 144" class="icon icon-water-drops stroked">
<path class="long"  d="M 94.17,71.76 78.85,49.03 C 75.62,44.18 72.72,39.27 71.19,35 70.79,33.86 69.25,33.9 68.9,35 63.43,52.36 43.62,64.88 43.4,83.16 c 0,14.74 11.96,26.74 26.71,26.74 19.33,0 33.69,-21.5 24.06,-38.14 z m 0,0 C 100.6,67.72 102.4,60.1 98.9,53.87 97.12,50.4 89.94,42.17 87.84,36.34 l 0,0 c -0.1,-0.22 -0.32,-0.38 -0.57,-0.38 -0.26,0 -0.48,0.16 -0.58,0.38 l 0,0 c -1.4,3.87 -5.03,8.8 -7.84,12.69 -3.23,-4.85 15.32,22.73 15.32,22.73 z" />
<path class="short"  d="m 89.03,81.84 c 0,10.2 -8.3,18.46 -18.49,18.46"  />
</svg>