<svg width="144" height="144" viewBox="0 0 144 144" class="icon icon-protected stroked">
<path class="long"  d="M 98.73,63.66 54.93,95.52 M 45.17,63.66 88.97,95.52 M 91.42,49.7 49.86,89.02 M 52.84,49.7 94.4,89.02 M 98.69,74.61 C 98.69,74.87 98.43,99.73 72.03,103 46.19,98.36 45.24,75.57 45.21,74.61 l 0,-23.17 c 2.44,0 20.12,-5.21 26.78,-5.27 6.66,-0.1 24.05,5.27 26.7,5.27 z m 4.51,0.44 c 0,0.31 -0.3,29.35 -31.15,33.15 C 41.85,102.8 40.74,76.18 40.71,75.05 l 0,-33.17 c 2.85,0 23.51,-6.08 31.29,-6.15 7.78,-0.1 28.1,6.15 31.2,6.15 z" />
</svg>