<svg width="144" height="144" viewBox="0 0 144 144" class="icon icon-ecosystem stroked">
<path class="long"  d="m 55.63,103.9 -4.04,-0.7 1.71,-0.7 -0.14,-1.7 z m -1.29,-59.65 2.51,-3.07 -0.1,1.66 1.51,0.87 z m 22.67,4.17 c -15.51,0 -28.08,12.5 -28.07,28.07 0,15.5 12.57,28.11 28.07,28.01 m -23.71,-2 C 37.19,91.99 32.75,70.69 43.36,54.74 c 1.27,-1.92 2.77,-3.76 4.41,-5.46 m 8.99,-6.46 c 17.25,-8.15 37.85,-0.79 45.84,16.58 0.8,1.82 1.4,3.72 2,5.69 m 0.3,10.6 c 0.4,17.2 -13.09,28.61 -28.49,28.71 m 0.6,-56.02 c 0,0 14.2,5.4 14.2,28.11 0,22.7 -14.2,28.01 -14.2,28.01 m -0.2,-56.12 c 0,0 -14.16,5.4 -14.16,28.11 0,22.7 14.16,28.01 14.16,28.01 m 0.2,-56.01 0,56.01 m -25.36,-40.21 38.16,0.1 m -37.42,25.7 36.82,0.1 m 1.8,-13.2 -42.24,0.1 m 56.23,-4.3 1.4,3.7 -1.4,-0.9 -1.5,0.9 z" />
</svg>