<svg width="144" height="144" viewBox="0 0 144 144" class="icon icon-application stroked">
<path class="long"  d="m 71.99,33.87 c -4.8,0 -9.21,2.79 -11.21,7.12 l -24.3,51.24 c -0.89,1.6 -1.37,3.7 -1.37,5.6 0,6.77 5.48,12.27 12.25,12.27 6.4,0 11.76,-5 12.21,-11.47 l 3.15,-25.8 c 0.84,-4.5 4.87,-7.4 9.27,-7.4 4.4,0 8.5,3 9.2,7.4 l 3.2,25.7 0,0.1 0,0 c 0.5,6.47 5.8,11.47 12.2,11.47 6.81,0 12.31,-5.5 12.31,-12.27 0,-1.9 -0.5,-4 -1.4,-5.6 L 83.19,41.02 c -2.1,-4.36 -6.4,-7.15 -11.2,-7.15 z" />
<path class="short"  d="m 71.99,40.29 c -3.1,0 -5.7,2.5 -5.7,5.7 0,3.2 2.6,5.7 5.7,5.7 3.2,0 5.8,-2.5 5.8,-5.7 0,-3.2 -2.6,-5.7 -5.8,-5.7 z m 0,-3.3 c -5,0 -9.02,4 -9.02,9 0,5 4.02,9 9.02,9 5,0 9,-4 9,-9 0,-5 -4,-9 -9,-9 z m 24.7,55.14 c -3.1,0 -5.7,2.5 -5.7,5.7 0,3.17 2.6,5.67 5.7,5.67 3.2,0 5.81,-2.5 5.81,-5.67 0,-3.2 -2.61,-5.7 -5.81,-5.7 z m 0,-3.3 c -5,0 -9,4 -9,9 0,4.97 4,8.97 9,8.97 5.01,0 9.01,-4 9.01,-8.97 0,-5 -4,-9 -9.01,-9 z m -49.36,3.3 c -3.09,0 -5.7,2.5 -5.7,5.7 0,3.17 2.6,5.67 5.7,5.67 3.2,0 5.8,-2.5 5.8,-5.67 0,-3.2 -2.6,-5.7 -5.8,-5.7 z m 0,-3.3 c -5,0 -9,4 -9,9 0,4.97 4,8.97 9,8.97 5,0 9,-4 9,-8.97 0,-5 -4,-9 -9,-9 z m 24.66,-17 c 0,0 0,0 0,0 0,0 0,0 0,0 -1.6,0 -2.9,1.3 -2.9,2.9 0,1.6 1.3,2.9 2.9,2.9 0,0 0,0 0,0 0,0 0,0 0,0 1.6,0 2.9,-1.3 2.9,-2.9 0,-1.6 -1.3,-2.9 -2.9,-2.9 z m 0,-3.3 c 0,0 0,0 0,0 0,0 0,0 -0.1,0 -3.3,0 -6.1,2.8 -6.1,6.2 0,3.4 2.8,6.2 6.1,6.2 0.1,0 0.1,0 0.1,0 0,0 0,0 0,0 3.4,0 6.2,-2.8 6.2,-6.2 0,-3.4 -2.8,-6.2 -6.2,-6.2 z"/>
</svg>