<svg width="144" height="144" viewBox="0 0 144 144" class="icon icon-financial stroked">
<path class="long"  d="m 41.28,82.82 6.15,0 m -6.15,-11.01 35.38,0 m -35.38,-10.74 61.42,0 m -61.42,-10.95 61.42,0 m -8.33,-8.78 0,23.31 m -22.3,-23.31 0,33.31 m -22.44,-33.31 0,39.7 m -8.44,5.93 2.43,0.39 2.91,-1.02 2.9,-3.87 2.9,-1.43 2.91,1.84 2.9,0.34 2.9,-2.72 2.91,1.15 2.9,-4.49 2.9,0.89 2.91,-2.31 2.9,1.29 2.9,-5.85 2.91,1.91 2.9,-3.54 2.9,1.16 2.91,-4.08 2.9,0.81 2.9,-3.53 2.91,-1.09 4.01,0 m -61.67,25.16 2.9,0.47 2.91,-1.02 2.9,-3.87 2.9,-1.43 2.91,1.84 2.9,0.34 2.9,-2.72 2.91,1.15 2.9,-4.49 2.9,0.89 2.91,-2.31 2.9,1.29 2.9,-5.85 2.91,1.91 2.9,-3.54 2.9,1.16 2.91,-4.08 2.9,0.81 2.9,-3.53 2.91,-1.09 3.6,0 m -58.61,-22.67 55.62,0 c 1.69,0 2.99,1.33 2.99,2.99 l 0,55.55 c 0,1.62 -1.3,3.02 -2.99,3.02 l -55.62,0 c -1.66,0 -2.99,-1.4 -2.99,-3.02 l 0,-55.55 c 0,-1.66 1.33,-2.99 2.99,-2.99 z" />
<path class="short virtual" d="m 99.85,94.38 -55.72,0" />
</svg>