
<svg width="144" height="144" viewBox="0 0 144 144" class="icon icon-notebook stroked">
<path class="long"   d="m 70.46,100.5 0,2.5 -37.2,0 0,-63.09 3.56,0 m 70.38,0 3.8,0 0,63.09 -37.44,0 0,-2.5 m -36.74,-62.26 33.64,0 0,62.26 -33.64,0 z m 36.74,0 33.64,0 0,62.26 -33.64,0 z m 37.44,4.32 3.2,0 0,65.64 -84.37,0 0,-65.64 3.3,0"/>
<path class="short" d="m 67.74,97.48 0,0 c 0,-2.34 1.89,-4.23 4.23,-4.23 l 0,0 c 2.34,0 4.23,1.89 4.23,4.23 l 0,0 m -8.46,-6.38 0,0 c 0,-2.34 1.89,-4.25 4.23,-4.25 l 0,0 c 2.34,0 4.23,1.91 4.23,4.25 l 0,0 m -8.46,-6.4 0,0 c 0,-2.33 1.89,-4.24 4.23,-4.24 l 0,0 c 2.34,0 4.23,1.91 4.23,4.24 l 0,0 m -8.46,-6.39 0,0 c 0,-2.34 1.89,-4.24 4.23,-4.24 l 0,0 c 2.34,0 4.23,1.9 4.23,4.24 l 0,0 m -8.46,-6.39 0,0 c 0,-2.34 1.89,-4.23 4.23,-4.23 l 0,0 c 2.34,0 4.23,1.89 4.23,4.23 l 0,0 m -8.46,-6.39 0,0 c 0,-2.34 1.89,-4.24 4.23,-4.24 l 0,0 c 2.34,0 4.23,1.9 4.23,4.24 l 0,0 m -8.46,-6.4 0,0 c 0,-2.34 1.89,-4.23 4.23,-4.23 l 0,0 c 2.34,0 4.23,1.89 4.23,4.23 l 0,0 m -8.46,-6.39 0,0 c 0,-2.34 1.89,-4.23 4.23,-4.23 l 0,0 c 2.34,0 4.23,1.89 4.23,4.23 l 0,0 m -8.46,-6.39 0,0 c 0,-2.34 1.89,-4.24 4.23,-4.24 l 0,0 c 2.34,0 4.23,1.9 4.23,4.24 l 0,0 m -8.46,-6.4 0,0 c 0,-2.34 1.89,-4.23 4.23,-4.23 l 0,0 c 2.34,0 4.23,1.89 4.23,4.23 l 0,0" />
</svg>