<svg width="144" height="144" viewBox="0 0 144 144" class="icon icon-utensils stroked">
<path class="long"  d="m 73.66,68.03 c 2.73,0 5.75,-1.28 4.71,-4.88 L 72.63,35.4 c -2.54,0 -4.13,1.69 -4.09,4.31 l 0.39,28.01 0.1,38.28 c 0,3.3 7.44,3.2 7.45,-0.1 l 0.1,-38.69 m 17.51,1.02 c 2.2,0 10.71,-2.18 10.71,-16.05 -0.2,-22.66 -22.08,-21.23 -22.48,-0.5 -0.21,10.48 4.6,13.66 7.74,16.04 l 0.1,38.28 c 0,3.3 7.44,3.2 7.45,-0.1 l 0.1,-38.69 m -47.19,1.02 c -0.33,0.28 11.43,-0.74 10.66,-11.12 l -1.21,-21.69 -19.62,0 -1.1,21.69 c -0.42,5.01 2.29,8.53 7.24,10.61 l 0.1,38.28 c 0,3.3 7.44,3.2 7.45,-0.1 l 0.1,-37.88"/>
<path class="short" d="m 85.96,45 c -0.61,1.94 -0.97,4.17 -1.02,6.68 0,2.04 0.11,3.8 0.4,5.33 m -31.86,-21.29 0,21.69 m -6.54,-21.69 0,21.69" />
</svg>