
<svg width="144" height="144" viewBox="0 0 144 144" class="icon icon-network stroked">
<path class="long"   d="m 103.4,48.6 c -0.5,-0.8 -1.1,-1.5 -1.7,-2.1 l 2.1,-5.1 c -1.2,-0.8 -2.4,-1.4 -3.7,-2 l -3,4.8 c -1.8,-0.4 -3.7,-0.4 -5.4,0.2 L 88.2,40 c -1.2,0.6 -2.4,1.4 -3.5,2.2 l 2.6,5 c -1.3,1.4 -2.1,3 -2.5,4.8 l -5.5,0.8 c -0.1,1.4 0,2.8 0.1,4.2 l 5.7,0.2 c 0.2,0.8 0.6,1.7 1.1,2.5 0.5,0.8 1.1,1.4 1.8,2 l -2.2,5.2 c 1.2,0.8 2.5,1.4 3.8,2 l 3,-4.8 c 1.7,0.4 3.6,0.3 5.4,-0.2 l 3.4,4.4 c 1.3,-0.6 2.4,-1.4 3.6,-2.2 l -2.7,-5 c 1.3,-1.4 2.2,-3.1 2.5,-4.8 l 5.6,-0.8 c 0.1,-1.4 0,-2.8 -0.2,-4.2 l -5.6,-0.2 c -0.3,-0.8 -0.6,-1.7 -1.2,-2.5 z M 89.8,96.2 c 0.1,-1.4 0.1,-2.9 0,-4.3 l -5.6,-0.4 c -0.4,-2 -1.1,-3.8 -2.2,-5.4 l 3.6,-4.3 c -0.9,-1.1 -1.9,-2.1 -3,-3 l -4.3,3.6 c -1.6,-1.1 -3.4,-1.8 -5.4,-2.2 l -0.5,-5.6 c -1.4,-0.1 -2.8,-0.1 -4.2,0 l -0.5,5.6 c -1.9,0.4 -3.8,1.1 -5.3,2.2 l -4.3,-3.6 c -1.1,0.9 -2.1,1.9 -3,3 l 3.6,4.3 c -1.1,1.6 -1.9,3.4 -2.2,5.4 l -5.6,0.4 c -0.2,1.4 -0.2,2.9 0,4.3 l 5.6,0.4 c 0.3,2 1.1,3.8 2.2,5.4 l -3.6,4.3 c 0.9,1.1 1.9,2.1 3,3 l 4.3,-3.6 c 1.5,1.1 3.4,1.8 5.3,2.2 l 0.5,5.6 c 1.4,0.1 2.8,0.1 4.2,0 l 0.5,-5.6 c 2,-0.4 3.8,-1.1 5.4,-2.2 l 4.3,3.6 c 1.1,-0.9 2.1,-1.9 3,-3 L 82,102 c 1.1,-1.6 1.8,-3.4 2.2,-5.4 l 5.6,-0.4 z M 78.3,55.4 c 0,-0.9 -0.1,-1.7 -0.2,-2.6 l 5.3,-1.9 c -0.2,-1.4 -0.6,-2.8 -1,-4.1 l -5.6,1 C 76.1,46.2 75.2,44.7 74.2,43.4 L 77.8,39 c -0.9,-1.1 -1.9,-2.1 -2.9,-3 l -4.4,3.7 C 69.1,38.6 67.7,37.8 66,37.1 l 1,-5.6 C 65.7,31 64.4,30.7 63,30.4 l -2,5.4 c -0.8,-0.1 -1.7,-0.2 -2.5,-0.2 -0.9,0 -1.8,0.1 -2.6,0.2 L 54,30.4 c -1.5,0.3 -2.8,0.6 -4.1,1.1 l 1,5.6 c -1.6,0.7 -3.1,1.5 -4.5,2.6 L 42.1,36 c -1.1,0.9 -2.1,1.9 -3,3 l 3.6,4.4 c -1,1.3 -1.9,2.8 -2.5,4.4 l -5.6,-1 c -0.5,1.3 -0.9,2.7 -1.1,4.1 l 5.3,1.9 c -0.1,0.9 -0.2,1.7 -0.2,2.6 0,0.9 0.1,1.7 0.2,2.6 l -5.3,1.9 c 0.2,1.4 0.6,2.8 1.1,4.1 l 5.6,-1 c 0.6,1.6 1.5,3.1 2.5,4.4 l -3.6,4.4 c 0.9,1.1 1.9,2.1 3,3 l 4.3,-3.7 c 1.4,1.1 2.9,1.9 4.5,2.6 l -1,5.6 c 1.3,0.5 2.6,0.8 4,1.1 l 2,-5.4 c 0.8,0.1 1.7,0.2 2.6,0.2 0.8,0 1.7,-0.1 2.5,-0.2 l 2,5.4 c 1.4,-0.3 2.7,-0.6 4,-1.1 l -1,-5.6 c 1.7,-0.7 3.1,-1.5 4.5,-2.6 l 4.4,3.7 c 1,-0.9 2,-1.9 2.9,-3 l -3.6,-4.4 c 1,-1.3 1.9,-2.8 2.6,-4.4 l 5.6,1 c 0.4,-1.3 0.8,-2.7 1,-4.1 L 78.1,58 c 0.1,-0.9 0.2,-1.7 0.2,-2.6 z"/>
<path class="short" d="m 77.1,100.2 c -1.7,1.8 -4.1,3 -6.8,3 -5,0 -9.1,-4.1 -9.1,-9.1 0,-5.1 4.1,-9.2 9.1,-9.2 5.1,0 9.1,4.1 9.1,9.2 0,0.6 0,1.2 -0.1,1.8 m -24.2,-49 c 1,-0.4 2.2,-0.6 3.4,-0.6 5,0 9.1,4.1 9.1,9.1 0,5 -4.1,9.1 -9.1,9.1 -5.1,0 -9.2,-4.1 -9.2,-9.1 0,-1.8 0.6,-3.6 1.5,-5 m 24.1,43.7 c 0,2.6 -2,4.6 -4.6,4.6 -2.6,0 -4.6,-2 -4.6,-4.6 0,-2.6 2,-4.6 4.6,-4.6 2.6,0 4.6,2 4.6,4.6 z m 24.5,-40 c 0,2.6 -2,4.6 -4.6,4.6 -2.6,0 -4.6,-2 -4.6,-4.6 0,-2.6 2,-4.6 4.6,-4.6 2.6,0 4.6,2 4.6,4.6 z m -36.3,1.3 c 0,2.6 -2,4.6 -4.6,4.6 -2.6,0 -4.6,-2 -4.6,-4.6 0,-2.6 2,-4.6 4.6,-4.6 2.6,0 4.6,2 4.6,4.6 z" />
</svg>