<svg width="144" height="144" viewBox="0 0 144 144" class="icon icon-ribbon stroked">
<path class="long"  d="m 56.79,75.2 -13.2,27.6 12.42,-1.7 7.76,12 16.62,-33.25 m -8.13,16.18 8.13,17.07 7.76,-11.7 12.25,0.5 -11.78,-24.53 m 1.13,-19.3 c 0,9.71 -7.86,17.58 -17.57,17.58 -9.72,0 -17.59,-7.87 -17.59,-17.58 0,-9.71 7.87,-17.58 17.59,-17.58 9.71,0 17.57,7.87 17.57,17.58 z m -3.28,0 c 0,7.9 -6.4,14.3 -14.29,14.3 -7.9,0 -14.3,-6.4 -14.3,-14.3 0,-7.9 6.4,-14.3 14.3,-14.3 7.89,0 14.29,6.4 14.29,14.3 z m 1.02,22.51 c -1.19,0.81 -6.34,-1.17 -7.71,-0.7 -1.35,0.48 -4.16,5.24 -5.6,5.34 -1.43,0.11 -4.9,-4.19 -6.33,-4.45 -1.4,-0.27 -6.21,2.44 -7.51,1.81 -1.3,-0.62 -2.15,-6.07 -3.24,-7.01 -1.1,-0.94 -6.62,-1 -7.43,-2.19 -0.81,-1.19 1.17,-6.33 0.68,-7.7 -0.46,-1.36 -5.22,-4.17 -5.32,-5.6 -0.11,-1.44 4.18,-4.91 4.44,-6.33 0.28,-1.41 -2.44,-6.22 -1.81,-7.52 0.62,-1.3 6.08,-2.15 7.01,-3.24 0.94,-1.1 1,-6.62 2.18,-7.43 1.19,-0.81 6.35,1.17 7.71,0.69 1.36,-0.47 4.17,-5.23 5.6,-5.33 1.44,-0.11 4.91,4.18 6.32,4.45 1.42,0.27 6.23,-2.44 7.53,-1.82 1.3,0.63 2.15,6.08 3.24,7.02 1.1,0.94 6.62,0.99 7.43,2.18 0.82,1.19 -1.17,6.34 -0.7,7.71 0.48,1.36 5.24,4.17 5.34,5.6 0.11,1.44 -4.19,4.91 -4.45,6.32 -0.27,1.42 2.44,6.23 1.82,7.53 -0.63,1.29 -6.08,2.15 -7.02,3.24 -0.94,1.1 -1,6.62 -2.19,7.43 z"/>
</svg>