<svg width="144" height="144" viewBox="0 0 144 144" class="icon battery stroked">
<path class="long"  d="m 76.08,43.02 0.54,0 c 2.1,0 5.82,1.78 5.94,4 l 0,54.08 c 0,3.8 -21.12,3.8 -21.12,0 l 0,-54.08 c 0,-2.81 4.54,-4 5.93,-4 l 0.54,0" />
<path class="short"  d="m 75.59,44.49 c 0.34,0.1 0.66,0.12 0.94,0.19 1.15,0.27 1.86,0.66 1.86,1.08 0,0.85 -2.84,1.53 -6.34,1.53 -3.5,0 -6.34,-0.68 -6.34,-1.53 0,-0.42 0.71,-0.81 1.85,-1.08 0.29,-0.1 0.6,-0.13 0.94,-0.19 m 7.58,-3.29 0,2.54 c 0,1.88 -8.16,1.81 -8.16,0 l 0,-2.54 c 0,-1.98 8.16,-1.9 8.16,0 z"/>
<path class="short"  style="stroke-linecap:round;" d="m 69.42,95.19 5.16,0 m -6,-37.74 6.84,0 M 72,53.98 l 0,6.94 m 1.5,-19.27 c -0.48,0.1 -0.99,0.1 -1.5,0.1 -0.51,0 -1.02,0 -1.5,-0.1"  />
</svg>