<svg width="144" height="144" viewBox="0 0 144 144" class="icon icon-atom stroked">
<path class="long"  d="M 66.8,77.1 C 53.86,64.1 45.53,51.29 48.34,48.48 51.15,45.67 63.99,54.01 76.9,66.9 89.9,79.9 98.1,92.7 95.3,95.5 92.5,98.3 79.8,90 66.8,77.1 z m 5.3,2.1 C 53.75,79.1 38.71,76 38.81,72 38.66,68.1 53.69,64.9 71.9,64.8 c 18.4,0 33.3,3.2 33.3,7.2 0,4 -14.9,7.2 -33.1,7.2 z m 5,-2.2 C 64.1,89.9 51.23,98.4 48.34,95.5 45.59,92.7 53.94,79.7 66.9,66.8 79.8,53.89 92.7,45.71 95.4,48.46 98.2,51.21 90,64.1 77.1,77 z m 2.2,-5 C 79.1,90.3 76,105.2 72,105.2 68,105.3 64.9,90.2 64.9,72 64.8,53.72 68,38.74 72,38.81 76,38.71 79.2,53.67 79.3,72 z" />
<path class="short"  d="m 74.7,72 c 0,1.6 -1.2,2.7 -2.7,2.7 -1.5,0 -2.7,-1.1 -2.7,-2.7 0,-1.5 1.2,-2.7 2.7,-2.7 1.5,0 2.7,1.2 2.7,2.7 z"/>
</svg>