<svg width="144" height="144" viewBox="0 0 144 144" class="icon icon-cloud-virtual stroked">
<path class="long"  d="m 59.55,70.33 c 0,-4.4 6.7,-16.96 21.4,-16.96 14.7,0 21.25,12.66 21.25,16.76 m -38.07,4.1 c -6.41,-9.1 -22.1,-5.7 -23.93,6.6 -8.3,0 -12.01,5.5 -13.17,9.8 l 89.87,0 c 1.8,-7.8 -5.7,-24 -20.15,-19.9" />
<path class="long virtual" d="m 80.9,49.29 c -8.5,0 -15,3.75 -19.16,8.09 -2.57,2.71 -4.29,5.4 -5.29,8.04 -7.89,-1.05 -16.38,3.2 -19.32,11.6 -6.95,1.3 -12.2,6 -14.08,12.5 -0.76,2.6 1.21,5.19 3.93,5.19 l 89.92,0 c 1.9,0 3.6,-1.3 4,-3.2 1.5,-11.09 -5.5,-22.1 -15.2,-24.8 C 102.5,54.89 90.2,49.44 80.9,49.29 Z" />
</svg>