<svg xmlns="http://www.w3.org/2000/svg" viewBox="0 0 788 270.1"><path d="M514.8 214.8c-1.7-1.1-1.7-3.3-.1-8.8.6-2.3 2.4-10.8 4-19 5-24.7 6.5-33.5 11.1-62.3.4-3.2.8-7.7.8-10.1v-4.3l3.1-1.2c6.1-2.5 9.3-2.4 10.5.2 1 2 .8 4.6-.5 11-.6 3-2.4 11.4-3.9 18.6-1.5 7.2-2.9 14.4-3.2 16-.7 3.6-7 35.3-7.7 38.6-.3 1.3-1.4 6.7-2.5 12-1.9 9.5-1.9 9.5-3.6 9.9-3.2.6-6.7.3-8-.6zm168-8.2c8.3-2.7 14.9-5.7 27.9-12.7 13-7.1 21.3-12.5 27.2-18.2 3-3.3 8.3-9.8 10.1-13.4 11.2-18.7 8.9-33.8-5.9-41.2-7.7-4-16.6-5.3-32-5-11.3.3-12.4.5-16 1.8-4.7 1.8-8.3 4.8-10.1 9.1-2.3 4.9-3.5 7.8-5.3 18.1-.6 5-1.8 11.8-2.4 14.8 0 3.1-1.1 9.5-2.3 14.3-5.4 27.1-6.5 32-4.8 33.7 1.8 1.4 7.7.8 13.6-1.3zm-29 11.2c-1.2-1.1-1.2-1.9-.6-7.6.6-2.4 1.8-6.6 2.4-9.6 0-2.9 1.2-7.2 1.8-9.5 0-2.3 1.2-6.5 1.8-9.5 0-2.9 1.1-7.2 1.1-9.5.6-2.3 1.8-6.4 1.8-9.2.6-2.8 1.8-7.7 2.4-11 1.2-6.1 2.4-14.1 6.5-36.1.6-4 1.8-7.5 2.4-8.2 1.8-2.5 17.1-3.6 29-2.2 29.6 3.4 52.7 14 60.4 27.5 3.6 5.6 4.1 15.2 1.8 21.8-3 8.7-11.3 19.7-21.3 28-2.4 1.7-4.2 3.4-4.8 3.8-4.1 3.5-15.4 11.3-18.9 13.2-4.8 2.2-14.8 6.5-19 8.1-1.2.4-3.5 1.3-5.3 2-5.9 2.4-16 5.5-22.5 7.2-7.7 2-16.6 2.4-19 .8zm-109.4-.1c-1.6-3.1-1.1-8.4 1.6-21 .8-3 1.5-6.9 1.8-8.6.3-1.6 1.2-6.1 2-10.1.9-3.9 2-8.8 2.5-10.9.4-2.2 1.6-7.5 2.6-11.9 2.7-12.2 4.6-22.4 5.1-27.3.7-8.1 1.4-11.2 3.2-12.4 2.3-1.6 5.2-2.4 8.4-2.4 2.3 0 3.1.2 4.3 1.6 1.4 1.4 3.9 7.1 3.9 8.7 0 .4 1.4 5.1 3.2 10.5 10 30.2 20.7 55 27.6 63.6 4.7 6.1 9.5 10.5 11.3 10.5 2.3 0 4.1-4.7 6.5-19 0-3.7 2.3-13.4 3.5-21.6 1.8-8.2 3-15.5 3.6-16.4 1.2-6.3 5.9-31.7 6.5-33.7.6-1.9 1.2-2.6 2.4-2.8 1.1-.4 8.2-.1 8.2.4.6.6-7.1 37.9-10 48.6-3.6 14.8-6.5 28.9-7.7 38.3-.6 3.9-1.8 8-1.8 9.1-2.4 6.3-13.6 4.2-23.5-4.2-9.1-7.9-17.9-20.4-24.9-35.5-4.4-9.3-5.1-11-8.2-18.7-3.2-7.9-4.2-9.7-5.6-9.8-1.9 0-3.4 3.5-6.4 14.9-3.2 11.8-9.6 42.5-10.9 52.4l-.7 5.3-2.6 1.7c-3.1 1.9-5.1 2.2-5.9.7zm-171.6.5c-1-.6-2.4-1.9-3.1-2.8-3-3.8-5.8-14.6-8.1-32-3.3-24.6-10.6-59.8-12.8-62.3-.9-.9-.6-3.1.5-4.1 2-1.8 12.2-1 14.3 1.1.8.8.9 2.1.8 7.6-.3 8.5 1.8 22.1 6.9 45.8 2 9.1 3.6 20.3 3.6 24.8 0 2.3.2 2.9 1.5 3.8 1.1.7 1.9.9 2.5.4.9-.5 8.1-11.7 9.9-15.3.5-1 1.2-2.2 1.5-2.7 2.4-4 5.9-10.2 5.9-10.3 0-.1 1.9-3.5 4-7.6 2.2-4 5-9 6.1-11.2a496 496 0 0 1 4-7.4c2.6-4.9 4.6-9 5.8-12.2 2-5.4 3.3-8 4.9-10 1.6-1.9 2-2.1 5.5-2.3 3-.2 4.5 0 6.6.9 3.8 1.7 4.9 4.4 5.7 13.8.7 8.4 1.1 10.4 3.6 22.6 4.5 21.1 9.5 39.7 10.9 39.7.4 0 1.3-.6 2-1.3 2.4-2.8 15.9-22.8 19.7-29.4.8-1.4 3.1-5.2 5.1-8.4 2.1-3.3 3.8-6.2 3.8-6.5 0-.3.1-.7.4-.8.4-.1 6.2-9.5 8.2-13.2.6-1.2 2.6-4.5 4.2-7.2.4-.6 2-3.7 3.7-6.8 5.6-10.7 6.1-11.6 8.4-12.8 1.5-.8 2-.7 4.3.4 4.5 2.1 4.5 2.2.2 8.7-2.1 3.2-5.3 8.3-7.3 11.3-1.9 3-4.4 6.9-5.5 8.6-1.1 1.7-2.4 3.9-3 4.9-.6 1-3.3 5.4-5.9 9.8-15.6 25.3-21.9 36.6-29.1 51.2-3 6-4 7.6-5.4 8.2-2.3 1-6.8.2-9-1.5-3.3-2.4-4.2-5-10.2-26.5-3.7-13.4-4.6-17.1-6.2-27.3-2-12.3-3.9-17.8-6.2-17.8-1.1 0-5.6 5.5-9 11.1-3.3 5.4-5.4 9.1-11.1 20.1-2.2 4.2-6.1 11.5-8.7 16.2-2.6 4.6-4.6 8.5-4.6 8.7 0 .2-.7 1.3-1.5 2.6-.7 1.2-3 5.4-5 9.5-2.1 4-4.2 7.5-4.8 7.8-2.3 1.3-6.1 1.3-8 .1zm142.3 29.6c-4.9-.8-6.7-1.9-7.4-4.7-.9-3.4-.4-6.6 1.2-8.2 2.6-2.6 11.7-3.1 26.8-1.4 2.6.3 8.3.8 12.7.9 4.4.3 11.6.6 16 .9 4.4.3 11.7.5 16.3.6 4.6 0 9.8.2 11.5.3 10.4.7 80 1 90.6.4 19.6-1.2 36.8-3.8 47.4-7.4 2.4-.8 6.5-2.1 8.9-2.8 2.4-.7 5.3-1.6 7.1-2.1 1.2-.4 2.4-.5 2.4-.3 0 .8-5.3 6.6-5.9 6.6-.6 0-1.8.6-3 1.3-8.3 5.4-34.3 11.6-58 13.8-2.4.2-6.5.6-8.9.8-3 .3-7.1.6-8.9.6-1.8.1-3.6.3-4.1.5-2.4.6-140.9.7-144.7.2zM560.3 31.11c0-.33-.5-.59-1.1-.58-.8 0-.9.1-.1.58 1.1.72 1.2.72 1.2 0zm-35 2.01c0-.45.6-.82 1.1-.82.9 0 1.2-.39 1.1-1.49 0-.81-.2-1.48-.2-1.48-.3 0-3.8 5.28-3.8 5.67 0 .22.5.1.9-.33.5-.4.9-1.1.9-1.55zm25.5 6.89c0-.32-.3-.59-.7-.59-.3 0-.4.27-.2.59.2.33.5.6.6.6.2 0 .3-.27.3-.6zm-8.3-3.61c0-.3 1.7-.54 2.4-.54.6 0 1.9.1 1.9.22 0 .13-1.3.37-1.9.54-.7.18-2.4.1-2.4-.22zm5 3.17c1.8-.87 2.1-1.3 1.9-2.67-.2-1.99 0-2.09.9-.3.4 1.2.5 1.16.2-.43-.2-1.68-1.8-2.39-1.1-1.28.7.82-5.1-.26-7-.64-3.7-.74-2.8-1.67-1.8-2.12.6-.28 4.4-.17 4.4-.36-.1-1.15 1.8-.72 1.6-1.09-.2-.37 4.7.16 5.2-.27 1.3-.96 1.6-2.15.8-3.13-.3-.4-.4-.97-.2-1.25.3-.29 0-.17-.5.25-.6.43-2.1.69-3.3.6-2.3-.17-2.5-.24-6.2-2.02-1.6-.81-2.8-.94-5.4-.61-1.8.23-3.4.64-3.4.92 0 .27-1.1.87-2.5 1.33-2.6.89-3.7 2.24-1.7 2.24.7 0 1.4.28 1.5.63.5.74-.8 4.11-1.5 4.11-.3 0-.5.24-.5.51 0 .29.6.41 1.3.29 1-.16 2.2.61 4.5 2.69 3.1 2.87 4.8 3.46 5.3 1.8.2-.65.1-.64-.4.1-.4.49-.7.63-.7.3.1-.85 1.4-2.35 2.3-2.53.5-.11.6.3.3 1.34-.2.9-.1 1.52.3 1.56 1.6.18 1.8.25 2.2.67.7.64 3.5-.64 3.5-.64zm-1.7 2.22c-.2-.32-.6-.59-1-.59-.3 0-.5.27-.5.59 0 .33.4.6.9.6s.7-.27.6-.6zm-21.9 13.35c.5-.13.6-.99.4-2.47-.5-2.57-.5-4.04 0-10.15.3-4.83-.5-6.96-1.9-5.23-.5.52-1.3.94-1.9.94-.7 0-1.3.51-1.5 1.19-.2.65-.7 1.19-1.1 1.19-.9 0-1 .77-1 6.53-.1 6.24 0 6.77 1.8 7.79 1.4.87 2.9.93 5.2.21zm26.9 16.33c.5-.9.5-1.1-.3-.8-1 .3-1.7 2-.9 2 .3 0 .8-.5 1.2-1.2zm-.7-19.4c.4-.17.9-.15 1.1.1.2.2-.1.34-.8.31-.6 0-.8-.16-.3-.35zm-2.3 3.38c-.4-.28-1.3-.66-1.9-.84-.6-.18-1.2-.8-1.5-1.38-.2-.57-.7-1.27-1.1-1.54-.7-.39-.7-.68-.2-1.34.9-1.09 1.8-1.07 1.8.1 0 .49.2.89.4.89.3 0 1.3.67 2.3 1.49.9.81 2 1.48 2.4 1.48.4 0 .6.4.4.89-.4 1-1.2 1.06-2.6.29zm7.4 1.78c-.2-.3-.1-.6.3-.6.3 0 .7.3.9.6.2.29.1.59-.2.59-.3 0-.8-.3-1-.59zm-10.8 14.54c1.2-.8 2.4-1.5 2.7-1.5.3 0 .8-.6 1.2-1.4.4-.8 1.8-2.2 3.3-3 1.6-.9 2.7-2 2.7-2.5s-.2-.7-.5-.6c-.8.6-3.1-2.3-2.9-3.58.2-.84.4-.66 1.1.88.7 1.7 1.1 1.9 2.3 1.6 2-.5 3.6-2 3.6-3.37 0-.84.5-1.07 2-1.07 1.7 0 2.2.29 2.8 1.6 1.2 2.34 1.9 1.94 2.9-1.54 1.1-3.64 1.4-3.9 3-3.04.9.52 1.4.51 2.1 0 .9-.8 1.1-3.53.2-3.53-.7 0-.7-3.14 0-3.92.8-.79-.4-4.39-1.5-4.39-.4 0-1-.42-1.5-.94-.6-.76-.6-1.02 0-1.41.6-.36.2-1.09-1.5-2.89-1.6-1.75-2.5-2.25-2.9-1.81-.8.59-1.4.15-6-4.05-.8-.75-1.8-1.17-2.3-.97-1 .38-.8 1.77.2 1.55.4-.1.8.66 1 1.62.2.97.6 1.9.9 2.07.8.49-.1 2.68-1 2.68-.7 0-.8.52-.7 2.07.2 1.27 0 2.08-.4 2.08-.3 0-1.2.52-1.9 1.15-1.2 1.15-1.2 1.15-1.5 0-.5-1.81-2-1.36-4 1.23-2.2 2.67-2.9 2.95-2.9 1.11 0-1.21-.1-1.19-1.3.29-.6.85-1 1.82-.8 2.15.2.33-.2.6-.8.6-.7 0-1.3.36-1.3.78 0 .44-1.2 1.17-2.8 1.64-2 .62-3 1.35-3.9 2.74-1.3 2.3-.8 3.48 2.7 6.17 2.2 1.7 2.5 2.3 2.5 4.2 0 1.2-.3 2.6-.7 2.9-.8.8-1 4.8-.3 5.5.9.9 4.2.3 6.2-1.1zm-7.7 6c-11.3-2.8-20.5-12.2-22.8-23.37-1.9-10.07 4-21.69 14.1-27.74 12.5-7.5 28.5-5.82 39.2 4.11 5.4 4.99 9.1 12.77 9.1 19.36 0 9.94-7 20.44-16.6 25.04-2.5 1.2-5.9 2.4-7.6 2.8-4.1.8-11.4.7-15.4-.2z"/><path d="M411 31.15c-3.8-1.86 6.8 1.7 0 0zm-49.1 0c9.4-2.29 8.8.41 0 0zm10.9 2.26c4.6-5.4 11.4 3.97 0 0zm-124 4.89c10.2-4.31 8.4 0 0 0zm240.1 4.09c8.1-2.15 9.2 2.51 0 0zm-11.1.79c-5.3-4.58 3.4-3.33 3.1-.5l-2.3.85-.8-.35zm13.5.99c1.6-2.19.6 2.31 0 0zm-113.7 0c5.4-1.56-3.2 1.98 0 0zm48.8.59c.4-2.29 5.5 2.3 0 0zm-46.3.19c3.2-.43-1.1 1.12 0 0zm16 .92c-5.4-5.92 8.4 3.23 0 0zm-27.1.14c-3.7-4.65 8.6 2.83 0 0zm97.1 1.29c-12.8-4.98 17.5-.57 0 0zm-151.1.63c3.9-.8-.7 1.1 0 0zm38.4.58c-5.7-3.52 16.4-3.45 1.5.34l-1.5-.34zm-96.5 4.16c-.3-4.96 5.6 2.74 0 0zm-67.1 5.74c6.3-1.51 3.2.59-.9.5l.9-.5zm-3.3.78c3.9-.79-.7 1.07 0 0zm-77.9 23.28c2.2-5.11 26.1-16.39 17.6-8.9-4.3.28-22.3 16.27-17.6 8.9zM94.81 129.8c1.37-3.1 2.62.2 0 0zm208.99 50.4c1.7-3.6 2.1.6 0 0zm-48.2 42.7c5.6-2-3 1.9 0 0zm-154.3 0c1.3-2.1 2.2 2.3 0 0zm156.3.6c4.3-1.9-1.5 1.9 0 0zm-104.9 4.9c3.2-.6-1 1 0 0zm-13.8-.2c-2.2-2 6.4 1.8 0 0zm-13.9.5c-2.1-3.9 4.4 4.4 0 0zm96.2 2.5c7.4-7.1 19.2.2 4.5 0-.9-2.8-6.8 3.6-4.5 0zm-73.1.6c-12 0 5.1-4.3 2.8-.7l-1.2.7h-1.6zm24 1.2c2.6-2 0 1.8 0 0zM449.5 41.89c-9.3-4.05-13.4 2.97 0 0zm-73.7-.1c2.2-2.11-6.4 1.86 0 0zm-45.2 2.58c-3.3-.95-.6 1.02 0 0zm-27.5 3.6c-2.4-.7-.9.89 0 0zm-41.3.35c-1.6-2.13-1.5 2.14 0 0zm29.3.6c-.9-2.45-3.1 2.52 0 0zm-100.6 6.76c-2.2-.67-.9.89 0 0zm28.3 31.79c4.9-2.69-21 .16-3.5.45l3.5-.45zm-88.7 12.93c8.3-5.04-5.1-.65 0 0zm171.1 25.1c-3.5-2.5-.9 2 0 0zm4.4 4c-4.5-6.3-6.8 0 0 0zm-80.5 91c-3.8-4.1-3.8 4.4 0 0zm-30.2 6c-5.7-4-11.3 4.6-.1.6l.1-.6zm-10.3 7c-6.9-2.3-23.9-1.7-6.6-3.7 17.6-7.2-17.8 5.1-23.1-3.4-9.7-4-26.9 5.2-27.3-2-11.5-2.9-12.1 6.4-15.4-.4-6.2-5.1-27.04-2-25.39-6.9 8.11 1.8-14.34-15.1-4.6.2-1.5-6.3-11.42-10.6-19.87-12.4-11.73-5.8-24.38-14.7-31.98-27.2-8.95-11.5-8.81-27-6.05-39.4-.15-6.3 5.28-22.8 4.87-7.7 1.46-13.8 9.12-26.7 18.86-35.45 8.29-5.47 21.79-15.91 34-21.34 15.31-7.76 30.66-13 47.16-16.9 15.4-3.5 30.2-6.27 44.4-11.48 7.6 4.73 16.5.96 27.3-2.13 13.1-3.12 30.1-5.35 41.6-5.02-12.8 3.17-12.7 3.19-5.3 3.96 3.7 2.5 9.3-3.45 19.3-3.14 2.2 4.07 9.2.87 3.8-.38 10.7 1.44 20.1-5.29 30.1-3.11.6 3.39 11.8.81 9-.74 17.3 0 34.7-5.43 52.6-4.3 16.8-1.42-23.3 5.32-1.7 2.63 1.6 5.39 13.1-2.59 19.4-.18 6.3 5.36 12.8 2.37 15.1.82 9.7 3.47 21.3.17 28.4 1.78-9.2 2.29 17 .27 1.1 3.97-1 3.84 15.6-6 23.3-.41 11.3-1.05 18.8 2.02 28.7 1.7 16.5-1.85-9.3 2.5-14.3 5.69-7.7-2.23-6.8-1.55-7.9-3.1-12-1.21-19-3.96-30.8.2-9.8-5.08-11.6 6.09-11-.1-9.9-.32-18.4-8.42-20.9-.1-9.3-.75-.8 3.92-12-.38-5 3.17-7.1-4.99-10.8 1.73-7.8.23-26.7 5.38-26.2 1.74 1.9-1.23-22.9-4.98-27.1 1.42-13.5 1.23-26.8 3.16-40.7 2.21-2 1.94-20.5-5.55-20.9 2.03-16.9.48-32.9.99-49.5 2.89-5.5 3.99-18.7 3.36-10 .97-9 4.65-17.8 6.92-29 5.17-8.4 2.44-18 11.6-25.7 6.69-11.6 5.64-19.7 5.79-29.2 14.9 1.4-1.13 10.6-3.89 2 1.71-11.75 4.96-17.6 3.67-27.09 11.65-9.67-1.38-12.54 21.37-23.76 24.27-1.05 8.9-11.72 13.8-7.39 25.7-3.34 21.4 17.38 34.7 33.87 42.9C109.7 204.5 145 210 180 211c17.5-.1 35.9 2 52.5-3.7 17.2-4.8 36.7-7.9 52.2-15.3 6.2.8 11.9-7.6 21.1-8.6 4.8-10 13.9-20.9 13.6-34.3-5.8-11.5-19.3-21-26.4-26.7-4.6-5.7-11.1-7-12.1-2.6-21.9-7.1-43.6-16.2-67.1-15.4-20.8-5.39-41.7 1.5-62.8 1.3-15.4-.1-27.8 8-39.5 17.7-8 5.1-25.8 27.6-23.39 26.2 2.72-15.8 13.99-27.7 18.19-36.2 9.7 1.7 3.3-7.2 14.4-8.6 13-12.47 32.8-12.9 49.5-18.03 9.2-3.85 16.9-.53 11.6 5.39 12.2-2.93 20.4-9.22 31.6-6.79 17.7 1.41 35.6 4.68 52.5 9.69 16.5 2.59 32.4 9.04 45.3 19.34 14.1 6.1 19.4 19.1 26.1 29.2 4.5 18.8-6.9 35.8-18 49.6-2.8-3.8-7.9 11-13.1 7-2.5 5.6-17.1 13.7-24 12.9-8.7 11.3-2.2-4.4-12.9 2.5-13.5 4.1-22.2 14.1-29.7 12.4-9.1 7.3 3.9-9.7-8.6-1.7.2-.6 9.1-4-1.6-2.1-7.9.5 12.2-3.9-2.9-3.6 5.2.9-3.5 3.1-4.5 7 1.4-8.2-7.6.2-6.7-3.2-7.6 2.7 1.6-4.2-6.9-1-.3-2.2-14.1-.3-10.9 2.7 4.4 2.3 10.8-4.1 7.4 0 14.3-1.2-14.2 7.9-20.3 7.4zm-4 .3c-.5-3.1 2.9 2.9 0 0z"/></svg>