<svg xmlns="http://www.w3.org/2000/svg" viewBox="0 0 1473 424"><path d="M346.1 10c-36.9 0-102.2 21.24-170.5 55.42C101.9 102.3 42.29 145.6 26.19 172.7a15.35 16.76 0 0 0-.8 0A15.35 16.76 0 0 0 10 189.4a15.35 16.76 0 0 0 15.39 16.8 15.35 16.76 0 0 0 11.4-5.7c4.7 1.5 10.1 2.2 16.4 2.2 17.8 0 42.3-5.5 74.11-16.7.6 1.7 1.3 3.3 2.1 4.9 2.5 4.9 6.7 7.4 12.5 7.4 4.3 0 8.5-1.6 12.3-4.7 6.4-5.2 13.1-13.8 20-25.9.2-.1.4-.1.6-.2l-1.9 6.4c-2 6.9-3 11.7-3 14.2 0 2.9 1 5.4 2.8 7.3 1.9 1.9 4.6 2.9 8.2 2.9 5.8 0 11.2-1.9 16.3-5.8 5-3.9 9.8-10.1 14.2-18.6l-3.3-1.7c-3.5 5.1-5.8 8.1-6.7 9-2.3 2.1-4.2 3.1-5.5 3.1-.5 0-1.1-.3-1.6-.9-.5-.6-.8-1.3-.8-2 0-.5.1-1.2.3-2.2l1.8-7.9 4.2-14.7c3.9-1.8 7.8-3.6 11.9-5.4 11.8-5.5 23.3-11.1 34.4-16.8l-10.8 38.7c-1.8 6.5-3.4 10.8-4.7 12.8-1.4 2.1-3.1 3.6-5.4 4.6-2.2 1-5.9 1.5-11 1.5l-1.2 3.6h52.9c19.9 0 33.5-1.5 40.9-4.6 7.5-3 13.5-7.8 18-14.4 4.5-6.5 6.7-13.2 6.7-19.9 0-7.2-2.3-13.5-6.8-18.9-4.6-5.4-12.8-9.8-24.5-13.3 11.3-2.7 19.7-5.6 25.2-8.7 5.5-3.2 9.6-7.2 12.3-12.1 2.8-4.88 4.2-9.68 4.2-14.38 0-4.6-1.2-8.9-3.4-12.7 19.2-15.5 32.1-29.7 36.1-41 1.8-5.16 1.9-9.78.3-13.72-3.3-7.87-13-11.86-28.8-11.86zm0 5.16c13.6 0 22 3.06 24.5 8.85 1.1 2.62 1 5.88-.4 9.71-3.8 10.6-16.1 24.1-34.6 38.9-3.3-3.9-7.9-6.5-13.6-7.9-4.9-1.3-12.9-1.9-24.1-1.9h-50.3l-.9 3.6c6.2.3 10.2 1.2 12 2.7 1.9 1.5 2.8 3.4 2.8 5.7 0 2.8-1.1 8.3-3.5 16.6l-10.1 36.28c-12.1 6.4-24.9 12.6-38.1 18.7-2.8 1.3-5.5 2.5-8.3 3.7l12.3-43.9-22.2 1.3-3.4 12c-1-5.6-2.6-9.4-4.7-11.5-2.1-2.2-4.9-3.2-8.4-3.2-6.3 0-13.1 3-20.3 9-8.8 7.2-15.8 16.8-21.2 28.7-5.4 11.9-8.1 22.5-8.1 31.7 0 2.3.2 4.6.6 6.8-31.41 11-55.51 16.5-72.91 16.5-5.2 0-9.8-.6-13.7-1.6a15.35 16.76 0 0 0 1.2-6.5 15.35 16.76 0 0 0-9.6-15.6c15.2-23.6 68.3-64.5 146.51-103.68 67.7-33.9 132.2-54.96 168.5-54.96zM296 69.82c5.1-.2 9.2 1.4 12.3 4.6 3 3.1 4.6 7.3 4.6 12.4 0 .9 0 1.8-.2 2.7-10 6.8-21.2 13.78-33.2 20.78l11.3-40.38zm15.4 26.5c-.7 2.5-1.7 5.08-3 7.78-3 6.1-6.9 10.4-11.8 13.1-4.9 2.7-11.6 4.1-20.2 4.2l1.2-4.2c12.2-7 23.5-14 33.8-20.88zm68.5 8.48l-28.9 8.8v3.8c1.3-.2 2.5-.3 3.5-.3 2.8 0 5.1 1.1 6.9 3.3 2.2 3 3.6 8 4.2 14.8l1.6 37.3c.5 10.2.7 18.1.7 23.7 0 4.2-.1 10.3-.5 18.5-3.4 3.8-6 6.2-7.9 7.2-1.4.9-2.8 1.3-4.2 1.3-1.4 0-3.1-1.4-5.3-4.2-3.2-4.2-6.7-6.3-10.5-6.3-3 0-5.7 1.3-8 3.8-2.3 2.4-3.4 5.5-3.4 9.1 0 3.6 1.2 6.7 3.8 9.3 2.5 2.6 5.5 3.9 9.1 3.9 2.6 0 5.3-.6 8-1.9 4.5-2.1 8.8-5 13-8.7 4.2-3.7 9.7-9.7 16.6-18.1 10.6-13.1 21.4-28.6 32.5-46.6 8.6-14 14.1-23.9 16.5-29.7 2.3-5.8 3.5-10.8 3.5-15.2 0-3.7-1.3-6.9-3.8-9.7-2.5-2.7-5.5-4.1-9-4.1-3.2 0-6 1.2-8.3 3.6-2.2 2.4-3.4 5.3-3.4 8.5 0 2.1.4 3.7 1.1 5 .8 1.2 2.7 3 5.7 5.3 3.1 2.3 4.6 4.7 4.6 7.2 0 4.1-1.3 8.4-4 13-8.6 15.1-16.3 27.3-23 36.5-.5-18.2-1.4-35.4-2.7-51.4-.7-8.2-1.9-14.6-3.5-19.2-1-2.7-2.6-5.5-4.9-8.5zm-203 6.1c1.9 0 3.4.8 4.6 2.4 1.5 2.3 2.3 6.2 2.3 11.4 0 9.6-2.9 20.5-8.8 32.7-.9 2-1.9 3.8-2.9 5.6-7.6 3.3-15 6.3-22 9v-1.6c0-9 2.4-19.6 7.3-32 4.8-12.4 9.3-20.6 13.5-24.6 2.1-2 4.1-3 6-3zm97.3 17.9c7.9 0 13.5.6 16.8 2 3.3 1.3 6 3.7 8.1 7.1 2.1 3.4 3.2 7.4 3.2 11.8 0 9.3-2.8 18-8.2 26.1-5.4 8.1-15.1 12.2-29.1 12.2-1.6 0-3.9-.1-7-.2zm1116.8.7c-10 0-19 1.4-26 4-8 2.7-15 6.5-20 11.4-6 4.9-10 10.7-13 17.4-3 6.7-5 14-5 22v.5c0 8.8 2 16.2 5 22.2 3 5.9 8 10.9 13 14.9 6 4 12 7.3 20 9.8 7 2.5 16 4.8 24 7 6 1.3 11 2.5 14 3.8 4 1.2 7 2.5 9 3.8 2 1.3 3 2.6 4 4s1 3 1 4.8v.5c0 3.7-1 6.6-5 8.6-3 2.1-8 3.1-14 3.1-19 0-37-6.9-53-20.6l-25 31.7c10 9.6 22 16.7 35 21.5 13 4.7 27 7.1 42 7.1 10 0 19-1.2 27-3.8 8-2.5 15-6.2 21-11s10-10.6 14-17.5c3-6.9 4-14.7 4-23.5v-.5c0-8-1-14.9-4-20.7-3-5.8-7-10.7-12-14.8-5-4-12-7.5-20-10.4-7-2.8-16-5.3-25-7.4-6-1.3-10-2.6-14-3.8-4-1.3-7-2.5-9-3.7-2-1.2-3-2.6-4-4-1-1.5-1-3.2-1-5.2v-.5c0-3.1 1-5.7 4-7.8 2-2.1 7-3.2 12-3.2 7 0 15 1.4 23 4.3s15 7.1 23 12.6l23-33.7c-9-7.5-19-13.2-30-17.1-11-3.9-24-5.8-38-5.8zm-853.1 1.7l-70.1 172.9h48l11.8-30.7H591l12 30.7h48.9l-70-172.9zm283.1 1.2l62.5 107.4v64.3h46.2v-65l62-106.7h-51L906.8 195l-33.9-62.6zm-153.1 0v171.7h84.9c19.7 0 35-4.2 45.9-12.5 10.9-8.4 16.4-20 16.4-34.9v-.4c0-11.7-3-20.7-8.9-27.1-5.9-6.5-13.8-11.4-23.9-14.9 7.3-3.2 13.4-7.9 18.1-14.1 4.8-6.1 7.2-14.2 7.2-24.1v-.5c0-5.9-1-11.1-2.9-15.7-1.8-4.6-4.4-8.6-7.7-12-4.9-5.1-11-8.9-18.3-11.5-7.4-2.6-16.2-4-26.5-4h-84.3zm338.1 0v171.7h46v-52h20l33 52h53l-40-59.9c11-4.5 19-11.2 25-19.8 6-8.7 9-19.6 9-32.9v-.5c0-16.8-5-30.1-14-39.9-6-5.9-13-10.5-22-13.8-8-3.2-19-4.9-32-4.9zm169 0v171.7h134v-40.5h-89v-27.2h79v-37.5h-79v-26h87v-40.4zM167.4 170.5c-1.1 1.7-2.3 3.2-3.6 4.7-2.9 3.3-5.7 5-8.5 5-1.3 0-2.5-.7-3.6-2.3-.2-.2-.4-.5-.5-.8 5.2-2.1 10.6-4.3 16.2-6.6zm545 .2H742c6.9 0 12 1.3 15.5 3.8 3.4 2.5 5.2 6.2 5.2 10.9v.5c0 5.1-1.9 8.8-5.6 11.3-3.6 2.4-9 3.7-16.1 3.7h-28.6zm339.6 3h30c7 0 14 1.6 18 5 4 3.3 6 8.4 6 15.3v.5c0 6.2-2 11.1-6 14.8-4 3.7-10 5.5-18 5.5h-30zm-492.5 14.2l18.4 48.8H541zm152.9 46.3h34.7c7.7 0 13.4 1.4 17 4.2 3.6 2.8 5.4 6.5 5.4 11.3v.5c0 5-1.9 8.9-5.7 11.6-3.7 2.7-9.1 4-16.2 4h-35.3zm-389.3 11.9c-8.9 0-15.8 2.4-20.7 7.1-4.9 4.7-7.4 10.5-7.4 17.6 0 4.2.8 7.9 2.5 11.1 2.3 4.5 7.1 10.9 14.4 19.2 5.3 6.1 8.7 10.6 10.2 13.4 1.5 2.9 2.2 5.9 2.2 8.9 0 3.2-1.1 5.9-3.4 8.1-2.2 2.3-5.1 3.4-8.5 3.4-3 0-6-1-9.2-3-3.2-2-5.8-4.7-7.7-8-1.9-3.4-3.9-9-6.1-16.9h-3l-4.6 32.6h3.5c1-1.6 2-2.6 2.9-3.1.8-.5 2.1-.7 3.6-.7 1.8 0 4.4.5 7.9 1.5 5.3 1.5 9.8 2.3 13.4 2.3 5.4 0 10.6-1.4 15.6-4.2 4.9-2.7 8.7-6.4 11.2-11s3.7-9.5 3.7-14.7c0-4.7-1-9.2-3.2-13.4-2.1-4.1-8.1-11.8-18-22.9-2.8-3.1-4.6-5.6-5.4-7.4-.8-1.8-1.2-3.8-1.2-5.9 0-2.5.9-4.6 2.8-6.3 1.8-1.8 4.2-2.7 7.1-2.7 4.7 0 9.1 2.3 13.2 6.8s6.4 10.6 6.9 18.5h3.5l4.1-30.3H350c-1.5 2.2-3.5 3.3-5.9 3.3-1.7 0-3.9-.4-6.8-1.1-5.6-1.5-10.3-2.2-14.2-2.2zm-155.8 0zm0 0h-5.6l-28.4 6.5-.8 2.8c3.2 0 5.4.2 6.4.7 1 .5 1.9 1.2 2.5 2.1.5 1 .8 2.4.8 4.2 0 1.5-.5 4.7-1.6 9.5l-15.5 64.9h22.7c3.2-13.8 5.8-23.2 7.6-28.1 1.8-4.9 4.3-11 7.6-18.1 3.2-7.1 6-12.2 8.2-15.2 2.2-3 4-4.9 5.4-5.7.7-.4 1.3-.6 2-.6.5 0 1.1.2 1.6.6.5.5 1.3 1.9 2.6 4.3 1.2 2.4 3.1 3.6 5.6 3.6 2.3 0 4.4-1.4 6.3-4.1 3-4.3 4.4-9.6 4.4-16 0-3.6-.8-6.4-2.4-8.4-1.6-2-3.8-3-6.4-3-3.8 0-7.4 1.8-10.9 5.5-5.9 6.2-14.6 22.7-26.3 49.5zm97.9 0c-10.4 0-20.8 3.2-31 9.7-10.3 6.5-18.5 15-24.4 25.7-6 10.7-9 21.4-9 32.1 0 6.9 2 12.9 6 18.2 4 5.2 11.2 7.8 21.7 7.8 8.2 0 15.8-1.9 22.6-5.8 6.8-3.8 13.8-10.3 21-19.4l-2.8-2.6c-5.8 5.5-10.9 9.4-15.3 11.6-4.4 2.3-8.8 3.4-13.2 3.4-4.6 0-8.2-1.5-10.9-4.4-2.8-3-4.1-6.9-4.1-11.8 0-2.7.3-6.2.8-10.5 7.7-.6 13.8-1.6 18.4-2.9 6.8-2 13-4.8 18.5-8.6 5.5-3.7 10.1-8.7 13.7-14.8 2.6-4.5 3.9-9.1 3.9-13.9 0-4-1.3-7.3-4-9.9-2.7-2.6-6.7-3.9-11.9-3.9zm-10.4 6.5c1.5 0 2.7.5 3.7 1.5.9 1.1 1.4 2.5 1.4 4.3 0 4.3-1 9-3.2 13.9-2.1 4.9-4.6 9-7.5 12.2-2.9 3.2-5.9 5.6-8.9 7.1-3.1 1.4-7.3 2.6-12.8 3.4 4.5-15.9 10.2-27.9 17.1-35.9 3.8-4.4 7.2-6.5 10.2-6.5zM21.79 357.4v10.8H428.5v-10.8zm23 29.1v22.8h5.7v-2.1c.2.3.5.6.8.9.3.3.7.6 1.1.8.4.2.8.4 1.3.5.5.2 1.1.2 1.7.2.9 0 1.8-.2 2.7-.6.9-.4 1.6-1 2.3-1.7.6-.8 1.1-1.7 1.5-2.8.4-1.1.6-2.3.6-3.7v-.1c0-1.4-.2-2.6-.6-3.6-.4-1.1-.9-2-1.5-2.8-.7-.7-1.5-1.3-2.3-1.7-.9-.4-1.8-.6-2.8-.6-.6 0-1.1.1-1.6.2s-.9.3-1.3.6c-.4.2-.7.5-1.1.8-.3.3-.6.7-.9 1v-8.1zm55.2 0v22.8h5.71v-22.8zm88.41 0v4.4h5.9v-4.4zm-159.91.8l-8.9 22h6.1l1.5-3.9h8.1l1.5 3.9h6.2l-8.9-22zm138.81.2v21.8h10.8c2.5 0 4.5-.6 5.9-1.6 1.4-1.1 2-2.5 2-4.4v-.1c0-1.5-.3-2.7-1.1-3.5-.7-.8-1.7-1.4-3-1.9.9-.4 1.7-1 2.3-1.8.6-.7.9-1.8.9-3v-.1c0-.8-.1-1.5-.4-2-.2-.6-.5-1.1-.9-1.6-.7-.6-1.4-1.1-2.4-1.4-.9-.3-2-.5-3.3-.5h-10.8zm107 0v21.8h5.8v-6.6h2.6l4.2 6.6h6.7l-5-7.6c1.3-.6 2.3-1.5 3.1-2.5.8-1.2 1.2-2.5 1.2-4.2v-.1c0-2.2-.6-3.9-1.9-5.1-.7-.8-1.6-1.3-2.7-1.8-1.1-.4-2.5-.6-4.1-.6h-9.9zm-145.5.6v4.3h-1.9v4.8h1.9v6.8c0 2 .5 3.5 1.4 4.3 1 .9 2.3 1.3 4.1 1.3.7 0 1.5-.1 2.2-.2.6-.2 1.2-.5 1.7-.7V404c-.3.2-.7.3-1 .4-.4.1-.8.2-1.1.2-.6 0-.9-.2-1.2-.4-.3-.3-.4-.7-.4-1.3v-5.7h3.8v-4.8h-3.8v-4.3zM88.59 392c-1.3 0-2.5.3-3.6.7-1.1.5-2 1.1-2.8 1.9-.8.8-1.4 1.8-1.9 2.8-.4 1.1-.7 2.2-.7 3.5v.1c0 1.2.3 2.3.7 3.4.4 1 1.1 1.9 1.9 2.7.7.8 1.7 1.5 2.8 1.9 1.1.5 2.2.7 3.5.7 1.3 0 2.5-.2 3.6-.7 1.1-.5 2.1-1.1 2.9-1.9.8-.8 1.4-1.7 1.8-2.8.5-1.1.7-2.2.7-3.4v-.1c0-1.2-.2-2.4-.7-3.4-.4-1.1-1-2-1.8-2.8-.8-.8-1.7-1.4-2.8-1.9-1.1-.4-2.3-.7-3.6-.7zm248.61 0c-1.3 0-2.5.3-3.6.7-1.1.5-2 1.1-2.8 1.9-.8.8-1.5 1.8-1.9 2.8-.5 1.1-.7 2.2-.7 3.5v.1c0 1.2.2 2.3.7 3.4.4 1 1 1.9 1.8 2.7.8.8 1.8 1.5 2.8 1.9 1.1.5 2.3.7 3.6.7 1.3 0 2.5-.2 3.6-.7 1.1-.5 2-1.1 2.8-1.9.8-.8 1.5-1.7 1.9-2.8.4-1.1.7-2.2.7-3.4v-.1c0-1.2-.2-2.4-.7-3.4-.4-1.1-1-2-1.8-2.8-.8-.8-1.8-1.4-2.9-1.9-1-.4-2.2-.7-3.5-.7zm-129.3 0c-.6 0-1.1.1-1.6.3-.5.1-.9.3-1.3.6-.4.2-.8.5-1.1.8-.3.4-.6.7-.8 1.1v-2.4h-5.7v16.9h5.7v-9.2c0-.9.2-1.6.6-2.1.5-.5 1-.7 1.7-.7s1.2.2 1.7.7c.4.5.6 1.2.6 2.1v9.2h5.7v-11.1c0-1.9-.5-3.4-1.5-4.5-.9-1.1-2.3-1.7-4-1.7zm-59.7 0c-1.2 0-2.3.3-3.3.7-1 .5-1.9 1.1-2.6 1.9-.7.8-1.3 1.7-1.7 2.8-.4 1.1-.6 2.2-.6 3.4v.1c0 1.3.2 2.5.7 3.6.4 1.1 1 2 1.8 2.8.7.7 1.6 1.3 2.7 1.7 1 .5 2.2.7 3.5.7 1.6 0 3-.3 4.1-.9 1.2-.7 2.1-1.5 2.9-2.5l-3.1-2.7c-.6.6-1.2 1-1.7 1.3-.6.2-1.2.4-1.9.4-.9 0-1.7-.3-2.3-.7-.6-.5-1-1.2-1.2-2.1h10.8v-1.2c0-1.3-.2-2.4-.5-3.5-.3-1.2-.8-2.1-1.5-3-.6-.8-1.5-1.5-2.5-2-1.1-.5-2.3-.7-3.6-.7zm154.7 0c-1.2 0-2.3.3-3.2.7-1 .5-1.9 1.1-2.6 1.9-.8.8-1.3 1.7-1.7 2.8-.4 1.1-.6 2.2-.6 3.4v.1c0 1.3.2 2.5.6 3.6.4 1.1 1 2 1.8 2.8.8.7 1.7 1.3 2.7 1.7 1.1.5 2.3.7 3.5.7 1.7 0 3-.3 4.2-.9 1.1-.7 2.1-1.5 2.9-2.5l-3.2-2.7c-.5.6-1.1 1-1.7 1.3-.6.2-1.2.4-1.9.4-.9 0-1.6-.3-2.2-.7-.6-.5-1-1.2-1.3-2.1h10.9v-1.2c0-1.3-.2-2.4-.5-3.5-.4-1.2-.9-2.1-1.5-3-.7-.8-1.5-1.5-2.6-2-1-.5-2.2-.7-3.6-.7zm101.8 0c-1.2 0-2.3.3-3.3.7-1 .5-1.8 1.1-2.6 1.9-.7.8-1.3 1.7-1.7 2.8-.4 1.1-.6 2.2-.6 3.4v.1c0 1.3.2 2.5.7 3.6.4 1.1 1 2 1.8 2.8.7.7 1.6 1.3 2.7 1.7 1.1.5 2.2.7 3.5.7 1.6 0 3-.3 4.2-.9 1.1-.7 2.1-1.5 2.8-2.5l-3.1-2.7c-.6.6-1.1 1-1.7 1.3-.6.2-1.2.4-1.9.4-.9 0-1.6-.3-2.2-.7-.6-.5-1.1-1.2-1.3-2.1h10.8v-1.2c0-1.3-.1-2.4-.5-3.5-.3-1.2-.8-2.1-1.5-3-.6-.8-1.5-1.5-2.5-2s-2.2-.7-3.6-.7zm-333.71 0c-1 0-1.8.1-2.6.4-.8.2-1.5.6-2.1 1.1-.5.4-1 1-1.3 1.7-.3.7-.5 1.5-.5 2.4v.1c0 .8.1 1.6.4 2.1.3.6.7 1.1 1.3 1.5.5.4 1.1.8 1.8 1.1.7.2 1.4.5 2.2.7.9.2 1.5.4 2 .6.4.2.6.5.6.8v.1c0 .6-.5.9-1.4.9-.8 0-1.7-.1-2.7-.5-1-.3-1.9-.8-2.9-1.4l-2.1 3.6c1.1.8 2.4 1.5 3.7 1.9 1.2.4 2.6.6 4 .6.9 0 1.8-.1 2.7-.4.8-.2 1.5-.6 2.1-1.1.5-.4 1-1 1.3-1.7.3-.7.5-1.5.5-2.5v-.1c0-.8-.2-1.5-.5-2.1-.3-.5-.7-1-1.2-1.4-.5-.5-1.1-.8-1.8-1.1-.7-.2-1.5-.5-2.3-.7-.8-.3-1.5-.5-1.9-.7-.5-.2-.7-.5-.7-.8v-.1c0-.3.1-.4.3-.6.2-.1.6-.2 1-.2.7 0 1.4.1 2.3.4.8.3 1.7.7 2.5 1.1l1.9-3.7c-.9-.6-1.9-1.1-3.1-1.5-1.2-.3-2.3-.5-3.5-.5zm248.51 0c-.9 0-1.8.1-2.5.4-.8.2-1.5.6-2.1 1.1-.6.4-1 1-1.4 1.7-.3.7-.4 1.5-.4 2.4v.1c0 .8.1 1.6.4 2.1.3.6.7 1.1 1.2 1.5.5.4 1.1.8 1.8 1.1.7.2 1.5.5 2.3.7.8.2 1.5.4 1.9.6.5.2.7.5.7.8v.1c0 .6-.5.9-1.4.9-.9 0-1.8-.1-2.7-.5-1-.3-2-.8-2.9-1.4l-2.1 3.6c1.1.8 2.3 1.5 3.6 1.9 1.3.4 2.7.6 4 .6 1 0 1.9-.1 2.7-.4.8-.2 1.5-.6 2.1-1.1.6-.4 1-1 1.3-1.7.4-.7.5-1.5.5-2.5v-.1c0-.8-.1-1.5-.4-2.1-.3-.5-.7-1-1.2-1.4-.6-.5-1.2-.8-1.9-1.1-.7-.2-1.4-.5-2.2-.7-.9-.3-1.5-.5-2-.7-.4-.2-.6-.5-.6-.8v-.1c0-.3.1-.4.3-.6.2-.1.5-.2 1-.2.6 0 1.4.1 2.2.4.9.3 1.7.7 2.6 1.1l1.9-3.7c-.9-.6-2-1.1-3.1-1.5-1.2-.3-2.3-.5-3.5-.5zm101.8 0c-.9 0-1.8.1-2.6.4-.8.2-1.5.6-2 1.1-.6.4-1.1 1-1.4 1.7-.3.7-.5 1.5-.5 2.4v.1c0 .8.2 1.6.5 2.1.3.6.7 1.1 1.2 1.5.5.4 1.1.8 1.8 1.1.7.2 1.4.5 2.2.7.9.2 1.5.4 2 .6.4.2.7.5.7.8v.1c0 .6-.5.9-1.5.9-.8 0-1.7-.1-2.7-.5-.9-.3-1.9-.8-2.8-1.4l-2.2 3.6c1.2.8 2.4 1.5 3.7 1.9 1.3.4 2.6.6 4 .6 1 0 1.9-.1 2.7-.4.8-.2 1.5-.6 2.1-1.1.5-.4 1-1 1.3-1.7.3-.7.5-1.5.5-2.5v-.1c0-.8-.2-1.5-.5-2.1-.3-.5-.7-1-1.2-1.4-.5-.5-1.1-.8-1.8-1.1-.7-.2-1.4-.5-2.2-.7-.9-.3-1.6-.5-2-.7-.4-.2-.7-.5-.7-.8v-.1c0-.3.1-.4.4-.6.2-.1.5-.2.9-.2.7 0 1.4.1 2.3.4.8.3 1.7.7 2.5 1.1l2-3.7c-1-.6-2-1.1-3.2-1.5-1.1-.3-2.3-.5-3.5-.5zm-33.1 0c-1.3 0-2.5.3-3.5.7-1.1.5-2 1.1-2.7 1.9-.8.8-1.4 1.8-1.8 2.8-.5 1.1-.7 2.2-.7 3.4v.1c0 1.2.2 2.3.7 3.4.4 1.1 1 2 1.7 2.8.8.8 1.7 1.4 2.7 1.9 1.1.4 2.2.7 3.4.7 1.8 0 3.2-.4 4.4-1.1 1.1-.7 2-1.6 2.8-2.8l-3.8-2.9c-.5.6-.9 1-1.4 1.3-.5.3-1 .5-1.7.5-.5 0-.9-.1-1.3-.3-.4-.2-.8-.5-1-.8-.3-.4-.5-.8-.7-1.2-.2-.5-.2-1-.2-1.6v-.1c0-.5.1-1 .2-1.4.2-.5.4-.8.7-1.2.2-.3.6-.6 1-.8.3-.2.8-.3 1.2-.3.7 0 1.3.2 1.8.5.4.3.8.7 1.2 1.3l3.9-3c-.7-1.2-1.6-2.1-2.7-2.8-1.1-.6-2.5-1-4.2-1zm-143.2.1c-1.4-.1-2.4.3-3.2 1-.8.6-1.5 1.6-1.9 2.7v-3.4h-5.7v16.9h5.7V404c0-1.9.4-3.4 1.2-4.3.8-.9 1.9-1.3 3.4-1.3h.5zm133.2 0c-1.4-.1-2.4.3-3.2 1-.8.6-1.4 1.6-1.9 2.7v-3.4h-5.7v16.9h5.7V404c0-1.9.4-3.4 1.2-4.3.8-.9 1.9-1.3 3.4-1.3h.5zm-154.8 0c-1.4 0-2.6.1-3.6.4-1.1.2-2 .5-3 .9l1.2 4.2c.7-.3 1.4-.5 2.1-.7.7-.1 1.5-.2 2.4-.2 1.1 0 1.9.2 2.4.7.5.5.8 1.1.8 2v.3c-.5-.2-1-.3-1.7-.5-.7-.1-1.4-.2-2.2-.2-1 0-1.8.2-2.6.4s-1.4.5-2 1c-.5.4-1 1-1.3 1.6-.3.7-.4 1.5-.4 2.3v.1c0 .9.1 1.6.4 2.3.3.6.7 1.2 1.1 1.6.5.4 1.1.8 1.8 1 .6.2 1.3.3 2.1.3 1.1 0 2-.2 2.8-.5.7-.4 1.4-.9 2-1.6v1.8h5.6v-9.7c0-1.2-.2-2.2-.4-3.1-.3-.9-.7-1.7-1.4-2.3-.6-.7-1.4-1.2-2.4-1.5-1-.4-2.3-.5-3.7-.5zm-50.4.2h3.8c.8 0 1.5.1 1.9.4.5.4.7.8.7 1.4v.1c0 .7-.2 1.1-.7 1.5-.5.3-1.1.4-2 .4H173zm-64.3.1v11c0 1.9.5 3.4 1.5 4.5s2.3 1.7 4.1 1.7c1.1 0 2.1-.3 2.8-.8.8-.6 1.4-1.2 1.9-1.9v2.3h5.8v-16.8H119v9.1c0 .9-.2 1.6-.6 2.1-.5.5-1 .7-1.7.7s-1.2-.2-1.6-.7c-.4-.5-.7-1.2-.7-2.1v-9.1zm79.8 0v16.8h5.7v-16.8zm159.8 0v11c0 1.9.5 3.4 1.5 4.5s2.3 1.7 4.1 1.7c1.1 0 2.1-.3 2.8-.8.8-.6 1.4-1.2 2-1.9v2.3h5.7v-16.8h-5.7v9.1c0 .9-.3 1.6-.7 2.1-.5.5-1 .7-1.7.7s-1.2-.2-1.6-.7c-.4-.5-.7-1.2-.7-2.1v-9.1zm-102.5 0l6.3 16.5c-.2.3-.4.5-.6.6-.2.1-.4.1-.7.1-.3 0-.7-.1-1.1-.2-.5-.2-.9-.4-1.4-.7l-1.7 4.1c.7.5 1.5.8 2.4 1.1.8.2 1.7.4 2.8.4.8 0 1.5-.1 2.1-.3.6-.2 1.2-.5 1.6-1 .5-.4.9-1 1.3-1.7s.8-1.5 1.1-2.5l5.9-16.4H258l-3 10.1-3.3-10.1zm34.3.2h3.8c.9 0 1.7.2 2.3.7.5.4.8 1 .8 1.9v.1c0 .8-.3 1.4-.8 1.9s-1.3.7-2.3.7h-3.8zm-248.81 1.8l2.3 6.2h-4.7zm116.91 1.9c.8 0 1.4.3 1.9.9.5.5.8 1.3.9 2.2h-5.6c.2-.9.5-1.7 1-2.2.4-.6 1-.9 1.8-.9zm154.8 0c.7 0 1.4.3 1.9.9.5.5.8 1.3.9 2.2h-5.6c.1-.9.4-1.7.9-2.2.5-.6 1.1-.9 1.9-.9zm101.7 0c.8 0 1.4.3 1.9.9.5.5.8 1.3.9 2.2h-5.6c.2-.9.5-1.7 1-2.2.4-.6 1.1-.9 1.8-.9zm-351.11.7c.9 0 1.7.3 2.3 1 .7.7 1 1.6 1 2.7v.1c0 1.2-.3 2.1-1 2.8-.6.7-1.4 1.1-2.3 1.1-.5 0-.9-.1-1.3-.3-.4-.2-.7-.5-1-.8-.3-.3-.6-.7-.7-1.2-.2-.5-.3-1-.3-1.5v-.1c0-.6.1-1.1.3-1.6.1-.4.4-.8.7-1.2.3-.3.6-.6 1-.8.4-.2.8-.2 1.3-.2zm34.9.1c.5 0 1 .1 1.4.3.4.2.8.5 1.1.8.3.3.6.7.7 1.2.2.4.3.9.3 1.4v.1c0 .5-.1 1-.3 1.5-.1.4-.4.8-.6 1.1-.3.4-.7.6-1.1.8-.4.2-.9.3-1.4.3-.5 0-1-.1-1.4-.3-.4-.2-.8-.5-1.1-.8-.3-.3-.5-.7-.7-1.2-.2-.4-.2-.9-.2-1.4v-.1c0-.5.1-1 .2-1.5.2-.4.4-.8.7-1.1.3-.4.6-.7 1-.8.4-.2.9-.3 1.4-.3zm248.61 0c.5 0 1 .1 1.4.3.4.2.8.5 1.1.8.3.3.5.7.7 1.2.2.4.2.9.2 1.4v.1c0 .5-.1 1-.2 1.5-.2.4-.4.8-.7 1.1-.3.4-.6.6-1 .8-.5.2-.9.3-1.4.3-.5 0-1-.1-1.4-.3-.4-.2-.8-.5-1.1-.8-.3-.3-.5-.7-.7-1.2-.2-.4-.3-.9-.3-1.4v-.1c0-.5.1-1 .3-1.5.1-.4.3-.8.6-1.1.3-.4.7-.7 1.1-.8.4-.2.9-.3 1.4-.3zM173 400.4h4.4c1 0 1.7.1 2.2.5.4.3.7.8.7 1.4v.1c0 .7-.3 1.2-.8 1.5-.4.3-1.1.5-2 .5H173zm50.5 1.5c.5 0 .9 0 1.3.1.3.1.7.2 1 .4v.7c0 .9-.3 1.6-.8 2.1s-1.2.7-2 .7c-.6 0-1.1-.2-1.5-.5-.4-.3-.5-.7-.5-1.3v-.1c0-.7.2-1.2.6-1.5.5-.4 1.1-.6 2-.6z"/></svg>