<svg xmlns="http://www.w3.org/2000/svg" viewBox="0 0 561.1 285"><path class="st0" d="M62.1 197.3H22.2L94 81h39.8l22.4 116.3h-38.8l-2.5-16.5H72.2l-10.1 16.5zm48.9-42.1l-4.6-30.1-18.5 30.1H111zm182.9 42.1H254L325.8 81h39.8L388 197.3h-38.8l-2.5-16.5H304l-10.1 16.5zm48.9-42.1l-4.6-30.1-18.5 30.1h23.1zm-32.4-78.5h16.4c.9-3.2 4.6-6.7 7.9-5.6 6.6 2.2 10.7 6.7 22.3 6.8 12.2 0 18.6-13.5 19.7-25.7h-16.2c-.9 4.2-4.1 6.2-7.8 6-6-.3-14.2-4.5-21.8-5.2-13.6-1.3-18.5 11.5-20.5 23.7zM185.5 238.5l7.6-33h31.7l-7.6 33h-31.7zM222 78.3c32.8 0 54.8 10.7 55.4 46.8l-38 .2c-.6-9.3-.6-18.9-18-19.2-17.3-.3-24.1 14.2-28 32.8-3.9 18.5 1.6 34.9 17.2 33.7 15.6-1.1 19.8-7.8 26.1-19.3h37.2c-15.4 36.3-38.1 46.6-66.9 46.6-41.5 0-59.8-28.5-52.3-64.6 6.8-32.6 29.8-57 67.3-57zm230.6-.2c22.6-.2 44.9 8.4 54.6 30.3 4.1 9.1 5.9 18.9 5.2 29.4-1.1 16.6-7.9 32.4-19.9 44.1-5.9 5.8-12.9 10.3-21.3 13.5-8.3 3.3-17.6 5-27.8 4.9-15-.1-27.1-3.1-36.3-9.1-9.2-6-15.6-13.7-19.2-23.1-3.6-9.4-5.1-19.4-4.2-30 .7-8.2 2.8-15.8 6-22.9 3.2-7.1 7.7-13.4 13.4-19 13.3-12.7 31.5-18 49.5-18.1zm-2.1 26.9c-10.6-.1-18.6 6-23.1 15.3-2.5 5.1-4.1 11.4-4.6 18.7-.7 11.2 1 19.7 5 25.6 4 5.9 9.9 8.9 17.7 8.8 8.6-.1 15.2-3.3 19.6-9.5 4.4-6.1 7.2-13.9 8-23.4.9-10.5-.6-19-4.2-25.6-3.6-6.5-9.7-9.9-18.4-9.9zM231.4 239.2l6.5-28.5h4.3l-6.5 28.5h-4.3zm9.7 0l6.5-28.5h5.9l7.5 22.8 5.2-22.8h4.3l-6.5 28.5h-5.6l-7.7-23.5-5.4 23.5h-4.2zm28.1 0l6.5-28.5h15l-.9 4H279l-1.8 8.1h10.7l-.9 3.9h-10.7l-2.9 12.5h-4.2zm24.5-12.6c-.1 2.9.7 5.1 2.3 6.8s3.9 2.6 6.6 2.6c3.5 0 6.3-1.2 8.6-3.5 2.3-2.4 3.5-5.4 3.6-9.2.1-2.9-.7-5.2-2.3-6.9-1.6-1.7-3.8-2.5-6.7-2.5-3.4 0-6.3 1.2-8.6 3.6-2.2 2.3-3.4 5.4-3.5 9.1zm-4.3.2c.1-2.5.6-4.8 1.5-6.9.9-2.1 2.2-3.9 3.8-5.4 1.6-1.4 3.3-2.5 5.3-3.2 2-.7 4.1-1.1 6.4-1.1 4 0 7.2 1.2 9.6 3.6 2.3 2.4 3.4 5.5 3.3 9.5-.1 1.9-.4 3.7-.9 5.4-.6 1.7-1.3 3.2-2.4 4.6-1.5 2.1-3.5 3.7-5.8 4.8-2.3 1.1-4.9 1.7-7.7 1.7-4.1 0-7.3-1.2-9.7-3.5-2.4-2.4-3.6-5.5-3.4-9.5zm30.1 12.4l6.5-28.5h7.4c3.4 0 6 .7 7.9 2.2 1.8 1.5 2.7 3.5 2.6 6.2-.1 2.6-1 4.8-2.8 6.4-1.8 1.7-4.1 2.7-7.1 2.9l5.6 10.7h-4.7l-7.4-14h.7c4.2 0 6.8-.4 7.9-1 .9-.5 1.7-1.2 2.2-2.1.5-.8.8-1.8.9-2.8 0-1.5-.4-2.7-1.5-3.5-1-.8-2.5-1.3-4.4-1.3h-1.8c-.7 0-1.4.1-2.2.1l-5.6 24.4h-4.2v.3zm24.4 0l6.5-28.5h6.6l3.4 22.5 13.8-22.5h7l-6.5 28.5h-4.3l5.5-24.3-14.9 24.3h-3.8l-3.6-24.3-5.6 24.3h-4.1zm32.7 0l16.8-28.5h4.9l5 28.5h-4.4l-1.4-8.2H386l-4.8 8.2h-4.6zm20.2-12.2l-1.8-12-6.8 12h8.6zm-1.2-19h-2.4l4.8-6.8h3.8l-6.2 6.8zm10.9 31.2l5.6-24.5h-6.4l.9-3.9h16.8l-.9 3.9h-6.1l-5.6 24.5h-4.3zm15.7 0l6.5-28.5h4.3l-6.5 28.5h-4.3zM456 231h5.2c-1.5 2.8-3.5 4.9-6.1 6.4-2.6 1.5-5.5 2.3-8.7 2.3-1.8 0-3.4-.2-4.9-.7-1.5-.5-2.8-1.2-4-2.1-1.6-1.2-2.7-2.8-3.5-4.5-.8-1.8-1.2-3.7-1.1-5.7.1-2.2.5-4.4 1.4-6.4.9-2 2.1-3.9 3.8-5.5 1.5-1.5 3.3-2.6 5.3-3.4 2-.8 4.1-1.2 6.3-1.2 3.4 0 6.3.9 8.7 2.6 2.4 1.8 4 4.2 4.7 7.2h-4.8c-.7-1.9-1.8-3.4-3.4-4.4-1.6-1-3.4-1.6-5.6-1.6-1.5 0-3 .3-4.4.9-1.4.6-2.6 1.4-3.8 2.5-1.1 1.1-2 2.5-2.7 4-.7 1.5-1 3.1-1.1 4.7-.1 2.8.7 5.1 2.4 6.9 1.7 1.8 3.9 2.7 6.6 2.7 2 0 3.8-.4 5.5-1.3 1.8-.7 3.1-1.9 4.2-3.4zm3.2 8.2l16.8-28.5h4.9l5 28.5h-4.4l-1.4-8.2h-11.5l-4.8 8.2h-4.6zm20.3-12.2l-1.8-12-6.8 12h8.6z"/></svg>