<svg xmlns="http://www.w3.org/2000/svg" viewBox="-77.5 -94.306 294.62 98.535"><path d="M92.82-84.306v5.89s16.66 6.44 19.06 7.362c-2.4.92-19.06 7.346-19.06 7.346v5.867l25.93-10.52v-5.407l-25.93-10.54m114.3 57.667v-2.048c0-8.717-4.5-14.485-13.59-14.485-10.66 0-15.33 6.68-15.33 16.823 0 11.788 5.34 20.578 18.02 20.578 3.39 0 6.77-.383 10-1.435v-5.754c-2.09.725-4.58 1.326-6.83 1.326-8.11 0-13.46-7.41-13.46-15.006h21.19m-7.89-5.05h-13.06c.38-3.608 3.15-6.177 6.75-6.177 3.84 0 6.31 2.348 6.31 6.178m-34.42 9.408v15.67h-8.33v-35.744h8.33v6.602h.14c2.8-4.933 5.57-7.42 11.58-7.42v8.705c-8.56 0-11.72 3.756-11.72 12.188m-21.93 15.67v-6.667h-.15c-1.9 4.496-5.56 7.51-10.59 7.51-6.84 0-9.7-5.63-9.7-11.782v-24.803h8.34v20.446c0 1.73-.14 6.302 1.27 7.65.62.607 1.58.663 2.42.663 5.99 0 8.41-8.462 8.41-13.286v-15.473h8.35V-6.61h-8.35m-34.73-29.963v16.905c0 4.22.44 8.034 5.64 8.034 1.27 0 2.56-.284 3.83-.6v5.87c-2.26.367-4.58.593-6.84.593-7.31 0-10.947-2.413-10.947-9.836V-36.57h-6.995v-5.784h6.995v-8.47l8.317-3.393v11.86h10.6v5.784h-10.6M82.462-6.61v-20.414c0-1.726.148-6.317-1.273-7.67-.612-.605-1.574-.68-2.41-.68-6.007 0-8.414 8.492-8.414 13.316V-6.61H62.03v-35.745h8.335v6.683h.153c1.883-4.577 5.473-7.5 10.592-7.5 6.837 0 9.695 5.63 9.695 11.788V-6.61h-8.343m-24.71-20.03v-2.048c0-8.717-4.498-14.485-13.594-14.485-10.662 0-15.327 6.68-15.327 16.823 0 11.788 5.33 20.578 18.02 20.578 3.385 0 6.77-.383 9.99-1.435v-5.754c-2.092.725-4.58 1.326-6.82 1.326-8.12 0-13.45-7.41-13.45-15.006h21.183m-7.887-5.05H36.8c.37-3.608 3.162-6.177 6.748-6.177 3.84 0 6.318 2.348 6.318 6.178M17.188-30.1c0-3.684-1.054-7.223-5.4-7.223-5.254 0-6.847 5.483-6.847 9.78 0 9.012 5.28 15.908 14.734 15.908 2.022 0 4.05-.226 6-.928v5.133c-3.37 1.065-6.905 1.657-10.437 1.657-12.77 0-19.145-7.824-19.145-20.278 0-10.382 5.64-17.123 16.365-17.123 8.722 0 13.602 4.267 13.602 13.072h-8.872m-32.02 0c0-3.684-1.052-7.223-5.407-7.223-5.263 0-6.84 5.483-6.84 9.78 0 9.012 5.248 15.908 14.737 15.908 2.014 0 4.036-.226 5.997-.928v5.133c-3.39 1.065-6.908 1.658-10.444 1.658-12.76 0-19.15-7.824-19.15-20.278 0-10.38 5.65-17.122 16.38-17.122 8.715 0 13.588 4.267 13.588 13.072h-8.86M-39.55-6.61v-25.455c0-8.256-5.42-11.107-13-11.107-7.43 0-13.61 3.152-13.61 11.333h8.13c0-3.532 1.88-5.482 5.48-5.482 4.13 0 5.03 3.005 5.03 6.533v3.54c-8.11.226-19.98 1.355-19.98 12.096 0 6.08 4.81 9.383 10.51 9.383 3.91 0 7.51-1.282 9.33-4.962h.14v4.12h7.97m-7.97-15.757c0 4.59-1.88 10.735-7.44 10.735-2.78 0-4.43-1.43-4.43-4.282 0-5.374 7.89-6.452 11.87-6.452"/></svg>