<svg xmlns="http://www.w3.org/2000/svg" viewBox="0 0 300 83.7"><path class="st0" d="M175.8 64.6c-.2-.7-.6-1.3-1.3-1.5-.4-.2-.8-.2-1.2-.2-.9 0-1.6.3-2.1 1-.6.7-.8 1.6-.8 3 0 1.3.3 2.3.9 2.8.6.6 1.3.8 2.1.8s1.4-.2 1.9-.7c.5-.4.8-1 .9-1.7h-2.5v-1.8h4.5v5.8h-1.5l-.2-1.3c-.4.5-.8.9-1.2 1.1-.6.4-1.3.5-2.2.5-1.4 0-2.6-.5-3.5-1.5-1-1-1.4-2.4-1.4-4.1 0-1.7.5-3.1 1.4-4.2 1-1.1 2.2-1.6 3.8-1.6 1.4 0 2.5.3 3.3 1 .8.7 1.3 1.6 1.4 2.6h-2.3zM184.5 63.9h.2V66H184.1c-.8 0-1.4.3-1.7.8-.2.3-.2.8-.2 1.4V72H180v-8h2v1.4c.3-.5.6-.9.8-1.1.5-.2 1-.4 1.7-.4-.1 0 0 0 0 0zM189.1 67.2c.4 0 .7-.1.8-.2.3-.1.5-.3.5-.6s-.1-.6-.3-.7c-.2-.1-.6-.2-1-.2-.5 0-.9.1-1.1.4-.1.2-.2.4-.3.7h-2c0-.7.2-1.3.6-1.7.6-.7 1.5-1.1 2.9-1.1.9 0 1.7.2 2.3.5.7.3 1 1 1 2V70.9c0 .3.1.5.1.6.1.1.2.2.3.2v.3h-2.3c-.1-.2-.1-.3-.1-.5 0-.1 0-.3-.1-.5-.3.3-.6.6-1 .8-.5.3-1 .4-1.5.4-.7 0-1.3-.2-1.8-.6-.5-.4-.7-1-.7-1.8 0-1 .4-1.7 1.1-2.1.4-.2 1-.4 1.8-.5h.8zm1.2 1c-.1.1-.3.2-.4.2-.1.1-.3.1-.6.1l-.5.1c-.4.1-.8.2-1 .3-.3.2-.5.5-.5.9s.1.6.3.8c.2.2.4.2.7.2.5 0 .9-.1 1.3-.4.4-.3.6-.7.6-1.4v-.8zM200.7 64.5c.5.4.8 1.2.8 2.2v5.4h-2.1v-4.9c0-.4-.1-.7-.2-1-.2-.4-.6-.6-1.2-.6-.7 0-1.2.3-1.4.9-.1.3-.2.7-.2 1.2V72h-2.1v-8h2v1.2c.3-.4.5-.7.8-.9.4-.3 1-.5 1.6-.5.8.1 1.5.3 2 .7zm-3.4-3.4c.1 0 .2.1.3.1l.7.3c.2.1.3.1.4.1h.2c.2 0 .4-.1.5-.2.1-.1.2-.3.2-.4h1c-.1.5-.3.9-.5 1.3-.3.3-.6.5-1.1.5-.2 0-.4 0-.6-.1-.2 0-.3-.1-.5-.1l-.6-.2c-.1 0-.2 0-.2-.1h-.2c-.2 0-.3.1-.5.2-.1.1-.2.3-.2.5h-1c.1-.5.2-.9.4-1.1.3-.5.8-.7 1.4-.7.1-.1.2-.1.3-.1zM206.6 67.2c.4 0 .7-.1.8-.2.3-.1.5-.3.5-.6s-.1-.6-.3-.7c-.2-.1-.6-.2-1-.2-.5 0-.9.1-1.1.4-.1.2-.2.4-.3.7h-2c0-.7.2-1.3.6-1.7.6-.7 1.5-1.1 2.9-1.1.9 0 1.7.2 2.3.5.7.3 1 1 1 2V70.9c0 .3.1.5.1.6.1.1.2.2.3.2v.3h-2.3c-.1-.2-.1-.3-.1-.5 0-.1 0-.3-.1-.5-.3.3-.6.6-1 .8-.5.3-1 .4-1.5.4-.7 0-1.3-.2-1.8-.6-.5-.4-.7-1-.7-1.8 0-1 .4-1.7 1.1-2.1.4-.2 1-.4 1.8-.5h.8zm1.2 1c-.1.1-.3.2-.4.2-.1.1-.3.1-.6.1l-.5.1c-.4.1-.8.2-1 .3-.3.2-.5.5-.5.9s.1.6.3.8c.2.2.4.2.7.2.5 0 .9-.1 1.3-.4.4-.3.6-.7.6-1.4v-.8zM216.2 73.6H217.1c.2 0 .3-.1.5-.2.1-.1.2-.3.3-.5.1-.3.2-.4.1-.5l-2.9-8.3h2.3l1.7 5.9 1.6-5.9h2.2l-2.7 7.9c-.5 1.5-.9 2.5-1.3 2.8-.3.4-.9.5-1.8.5h-.9v-1.7zM235.8 61.3h3.2v10.8h-2.1v-7.3-.9-.9l-2 9.1h-2.2l-2-9.1v9.1h-2.1V61.3h3.3l2 8.5 1.9-8.5zM247.6 71.1c-.7.8-1.7 1.2-3.1 1.2-1.4 0-2.4-.4-3.1-1.2-.7-.8-1-1.8-1-3s.3-2.1 1-3c.7-.8 1.7-1.3 3.1-1.3 1.4 0 2.4.4 3.1 1.3.7.8 1 1.8 1 3s-.4 2.2-1 3zm-1.7-1.2c.3-.4.5-1 .5-1.8s-.2-1.4-.5-1.8c-.3-.4-.8-.6-1.4-.6-.6 0-1.1.2-1.4.6-.3.4-.5 1-.5 1.8s.2 1.4.5 1.8c.3.4.8.7 1.4.7.6 0 1.1-.2 1.4-.7zM256.5 64.5c.5.4.8 1.2.8 2.2v5.4h-2.1v-4.9c0-.4-.1-.7-.2-1-.2-.4-.6-.6-1.2-.6-.7 0-1.2.3-1.4.9-.1.3-.2.7-.2 1.2V72h-2.1v-8h2v1.2c.3-.4.5-.7.8-.9.4-.3 1-.5 1.6-.5.8.1 1.5.3 2 .7zM258.4 65.6v-1.5h1.1v-2.2h2.1v2.2h1.3v1.5h-1.3v4.2c0 .3 0 .5.1.6.1.1.3.1.8.1h.4v1.6h-1c-1 0-1.7-.1-2-.5-.2-.2-.4-.6-.4-1.1v-4.9h-1.1zM269.4 64.2c.6.2 1 .6 1.4 1.2.3.5.5 1 .6 1.6.1.4.1.9.1 1.6h-5.8c0 .8.3 1.4.8 1.7.3.2.7.3 1.2.3s.9-.1 1.2-.4c.2-.1.3-.3.4-.5h2.1c-.1.5-.3 1-.8 1.4-.7.8-1.7 1.2-3 1.2-1.1 0-2-.3-2.8-1-.8-.7-1.2-1.7-1.2-3.2 0-1.4.4-2.4 1.1-3.2.7-.7 1.7-1.1 2.9-1.1.7.1 1.3.2 1.8.4zm-3.1 1.9c-.3.3-.5.7-.6 1.2h3.6c0-.6-.2-1-.6-1.3-.3-.3-.7-.4-1.2-.4s-.9.1-1.2.5zM277 63.9h.2V66H276.6c-.8 0-1.4.3-1.7.8-.2.3-.2.8-.2 1.4V72h-2.1v-8h2v1.4c.3-.5.6-.9.8-1.1.4-.2.9-.4 1.6-.4zM285.1 71.1c-.7.8-1.7 1.2-3.1 1.2-1.4 0-2.4-.4-3.1-1.2-.7-.8-1-1.8-1-3s.3-2.1 1-3c.7-.8 1.7-1.3 3.1-1.3 1.4 0 2.4.4 3.1 1.3.7.8 1 1.8 1 3s-.4 2.2-1 3zm-1.7-1.2c.3-.4.5-1 .5-1.8s-.2-1.4-.5-1.8c-.3-.4-.8-.6-1.4-.6-.6 0-1.1.2-1.4.6-.3.4-.5 1-.5 1.8s.2 1.4.5 1.8c.3.4.8.7 1.4.7.6 0 1.1-.2 1.4-.7zM97.5 53l9.8-23h4.6l10 23h-4.6l-2.9-6.3H107l1.5-3.7h4.8l-3.8-8.6-7.6 18.6h-4.4zM134.6 53V30h10c7.2 0 10.8 3.6 10.8 10.9 0 8.1-3.6 12.1-10.8 12.1h-10zm9.3-3.7c4.8 0 7.2-2.8 7.2-8.4 0-4.8-2.4-7.2-7.2-7.2h-5.1v15.6h5.1zM184.4 30v3.7h-10.9v5.8h10.3v3.8h-10.4v6h11.2V53h-15.3V30h15.1zM197.1 30h5.4l18.1 23h-5.4l-18.1-23zm5.4 23h-5.4l18.1-23h5.4l-18.1 23zM233.2 44V30h4.3v14c0 3.7 1.9 5.5 5.6 5.5 3.8 0 5.6-1.8 5.6-5.5V30h4.3v14c0 6.1-3.3 9.2-9.9 9.2-6.6 0-9.9-3.1-9.9-9.2M268.1 52.1v-3.9c2.3.9 4.9 1.3 7.8 1.3 3.5 0 5.3-1.2 5.3-3.5 0-1.7-1.1-2.6-3.3-2.6H274c-4.7 0-7.1-2.1-7.1-6.4 0-4.7 3.4-7.1 10.1-7.1 2.6 0 5 .4 7.3 1.1v3.9c-2.3-.9-4.8-1.3-7.3-1.3-3.9 0-5.8 1.1-5.8 3.4 0 1.7.9 2.6 2.8 2.6h3.9c5 0 7.5 2.2 7.5 6.4 0 4.8-3.2 7.2-9.6 7.2-2.8 0-5.4-.4-7.7-1.1M13.7 63.6c.2-.9.5-1.7 1-2.5l26.8-45c1.2-2.2 3.5-3.7 6.2-3.7 1.6 0 3.1.6 4.3 1.5 2.7 6.2 4.9 12.7 5.9 19.3.5 3.5.7 7.1.3 10.7-.2 1.8-.5 3.5-1.1 5.1l-.9 2.4c-.1.3-.3.5-.4.7l-6.6-11.6c-.3-.6-1-1-1.7-1h-.4c-.9 0-1.7.1-2.5.2-1 .1-1.9.4-2.9.6-1.9.5-3.7 1.2-5.5 2.1-3.5 1.7-6.7 3.9-9.7 6.4-4.8 4.3-9 9.4-12.8 14.8"/><path class="st0" d="M55.9 22.6c-1.1-2.9-2.3-5.8-3.7-8.6.7.6 1.3 1.3 1.8 2.2L79.4 61c.7 1.5 1.5 2.7 1.5 4.4 0 2.9-1.7 5.3-4.2 6.4-2.2-.3-4.4-.6-6.6-1-4-.7-7.9-1.7-11.7-3-3.8-1.3-7.5-2.9-10.8-5.1-1.6-1.1-3.2-2.3-4.5-3.8-.7-.7-1.2-1.5-1.8-2.3-.2-.3-.3-.5-.5-.8l13.8.1c.8 0 1.5-.5 1.8-1.2.6-.9 1-1.7 1.4-2.6.4-.9.7-1.8.9-2.7.5-1.8.8-3.7.9-5.5.2-3.7-.1-7.4-.8-10.9-.6-3.5-1.6-7-2.9-10.4"/><path class="st0" d="M70 71.1c2.1.3 4.2.5 6.2.7-.7.3-1.5.4-2.4.4L21.4 72h-.7c-3.9 0-7-3.2-7-7 0-.4 0-.7.1-1.1 4-5.3 8.5-10.2 13.7-14.3 3-2.3 6.2-4.3 9.6-5.8 1.7-.7 3.5-1.3 5.3-1.8.9-.2 1.8-.4 2.7-.5h.4l-6.8 11.3c-.2.3-.3.7-.3 1.1 0 .3.1.6.2.8.2.6.4 1 .6 1.5.3.5.5.9.8 1.4.6.9 1.3 1.7 2 2.4 1.5 1.5 3.2 2.7 4.9 3.8 3.5 2.1 7.4 3.6 11.2 4.8C62 69.7 66 70.5 70 71.1"/></svg>