<svg xmlns="http://www.w3.org/2000/svg" viewBox="0 0 661.1 232.3"><path d="M273.8 101.2c0 11.1-9 20.1-20.1 20.1-11.1 0-20.1-9-20.1-20.1 0-11.1 9-20.09 20.1-20.08 11.1 0 20.1 8.98 20.1 20.08zm51.6 113.3c.9-5.1 3.6-25.9 4.6-35.8 1.8-17.3 3.1-27.2 4-32.4.6-3 1-7.4 1-9.7 0-2.4.4-5.4 1-6.8l1-2.6h28v4.5c0 5 1.3 5.7 4.6 2.6 3.6-3.3 11.5-7.1 17.7-8.6 5.5-1.3 6.8-1.3 12 .2 5.7 1.6 11.1 5.7 12.3 9.5.6 2.1 3.7 2.4 5.7.4 3.6-3.6 12.8-8.5 19-10 6.2-1.6 7.2-1.6 13-.1 11.3 2.9 15.4 10.1 14.3 24.9-1.3 17.6-2.5 28.3-3.5 32.1-.6 2.2-1.1 6-1.1 8.4 0 2.5-.4 7-1 10-.5 3.1-1.3 8.2-1.6 11.4l-.8 5.8h-29.2s2.2-16.2 2.7-20.6c4.6-38.3 5-42.7 3.8-46.3-1.8-5.5-9.5-5.6-16-.2-3.9 3.1-3.9 3.1-5.9 21.5-2.4 21.4-3.1 27.5-4 31.8-.6 2.6-1.3 13.8-1.3 13.8h-30.2l.9-2.8c.3-1.6 1.1-6.8 1.6-11.8.5-4.9 1.7-14.4 2.6-21 .8-6.6 1.8-16.6 2.1-22.1.5-9.8.4-10.2-1.8-11.8-4.6-3.2-13.1-.9-17.2 4.6-1.7 2.3-3.2 11.5-5.7 34.8-1.8 17-2.6 30.1-3.8 30.1h-29.8zm-65.4-2.2c.2-3.3.4-8.2 1-10.8.9-4.5 9.4-74.3 9.4-74.3h27.9l-.6 8c-.6 9.4.2 10 5.3 3.7 6.8-8.6 14.5-13.3 22.8-13.9l3.7-.3-.4 9.5c-.4 12.1-1.7 16.4-5.1 16.8-5.3.5-13.1 2.4-16.1 3.9-5.2 2.6-11.7 9.9-13 14.6-.6 2.3-1.5 8-2 12.7-1.5 15.4-2.8 26.4-3.7 31l-1.1 5.1h-28.4zm262.4-51.7c.7-2.8.1-7.2-1.5-11.5-1.3-3.4-5.8-5.9-10.8-5.9-3.4 0-4.7.6-7.9 3.8-3.9 3.9-7.8 12.2-6.8 14.7.4 1.2 3 1.5 13.5 1.5h12.9zm75.1 38.2c8.1-3.4 9.5-6.4 11.6-24.1 2.4-21.6 2.4-21.3-.6-24.5-7.4-7.7-17.6-4.9-22.2 6-3 6.9-4.3 14.2-4.3 23.7 0 10.9 1.6 16 5.9 18.6 3.2 2 5.2 2.1 9.6.3zm-109 20c-10-2.9-17.7-9.4-21.7-18.4-3-6.8-3.8-26.6-1.3-34.8 3.8-13.2 8.7-21.7 16.3-28.5 6.9-6.2 13.9-9.6 23.5-11.4 7.4-1.4 9.1-1.4 16.4 0 9.3 1.8 12.4 3.1 17.4 7.7 7 6.4 10.2 15.1 11.5 30.6.3 4.5 1 8.2 1.4 8.2.4 0 1-2.1 1.4-4.7.7-5.7 2.1-10 5.4-17.3 5.8-13.2 15.5-21.6 28.3-24.5 6.6-1.4 7.6-1.4 12.8 0 3.1.9 7.3 3 9.4 4.6l3.7 3 1.1-2.8c.5-1.5 1.5-7.2 2-12.8.6-5.5 1.5-14 2.2-19.04l1.2-9.03 14.7-.3c16.9-.3 15.7-1.1 13.8 9.73-.5 3.14-13.8 116.84-15.6 118.14-1.8 1.3-24.9.5-24.9.5l-.5-3.4c-.6-4.4-2-4.8-5.6-1.8-8.6 7.1-20.4 9.6-30.6 6.5-5.2-1.5-12.1-7.7-14.7-13.2-2.3-5-5.1-19.3-5.1-26.2 0-4.8-.4-5.2-2.6-2.9-.5.5-1.2 2.2-3.9 2.4l-51.2.4c-.4.6-.7 4.3-.6 8.1.2 6 .6 7.4 3.1 10.5 2.7 3.3 3.3 3.6 9.2 3.9 6.6 1.2 13.3-4.3 15-10.4 0-1.4.8-1.6 4.7-1 2.7.3 8.5.9 13 1.3 9.7.7 9.8 1 4.9 8.7-5.9 9.3-14.8 15.4-26.4 18.2-6.8 1.6-22.1 1.6-27.7 0zm-430-19.5c7.5-4.3 8.5-5.9 9.2-13.8.7-8.1 0-9-5.5-7.2-15.3 4.9-19.2 8-19.2 15.2 0 8.7 6.3 11.1 15.5 5.8zm-31.8 19.5c-5-1.5-10.7-6.1-11.9-9.7-.5-1.6-1.4-2.9-1.9-2.9s-.9-3.1-.9-7 .4-7 .9-7 1.2-1.5 1.6-3.2c.4-1.8 1.9-4.9 3.3-6.8 8-10.8 19.3-15.8 48.9-21.5 2.7-.5 3.5-1.3 4.4-4.4 1.6-5.5-.6-10.3-5.7-12-3.4-1.1-4.4-1-8.5.7-3.2 1.4-5.1 3-6 5.1-1.3 2.8-1.8 3.1-5.9 3.1-4.5 0-21.9-2.5-22.6-3.3-.5-.5 2.3-6.4 4.8-10 8.6-12.3 34.3-18.5 54.3-13.1 8.3 2.3 15.8 8.9 17 15 .3 1.9 1 3.2 1.5 2.9.8-.5 1.3-2.7 3.6-14.7.5-2.6.9-2.7 7.1-3l6.6-.3 1.9-9.2c4.5-22.44 13.4-29.37 38-29.37H169l-.6 9.33c-.4 5.04-1.1 9.84-1.7 10.54-.6.7-3.4 1.2-7.1 1.2-5.2 0-6.6.4-8.3 2.3-2.5 2.6-4.6 9.3-4.1 12.7l.3 2.5h28l1.3-6c3.2-13.9 4.7-17.7 8.8-22.44 7.2-7.93 13.7-10.13 30.4-10.13h12.3l-.8 5.33c-.4 2.8-1 7.54-1.4 10.24l-.6 5-6 .3c-9.8.4-11.8 2.1-13.5 11.4-.8 3.9-.7 5.4.2 6 .7.4 14.1.8 29.7.8h28.4l-.7 4.8c-.4 2.6-9.5 80.3-10.2 83.5l-.9 2.8h-29s8.2-68.6 7.7-70.1c-.2-.6-5.3-1-13.2-1-9.9 0-13 .3-14 1.4-.6.8-9.9 69.7-9.9 69.7h-28.4s7.8-69.2 7.6-69.8c-.4-1-4.1-1.3-13.8-1.3-9.4 0-13.5.4-14.3 1.3-.5.6-9 69.8-9 69.8h-29.7l1-4.8c.7-5.6 7.3-64.9 6.7-65.5-.5-.5-3.8-.8-7.3-.6l-6.4.3-.7 7c-.5 3.9-7 61.1-7.1 63.6h-27c-3 0-.8-7.1-2.3-7.1-.8 0-1.4.4-1.4.9s-.8 1.1-1.7 1.5c-1 .3-3.1 1.4-4.8 2.4-6.9 4.1-20.3 5.5-28.8 2.8zm269.3-115c0-10.34-14.9-24.74-35.5-34.14-11.8-5.4-23.7-9.1-41.5-12.6-8.9-1.8-33.1-1.8-39.3 0-5.3 1.5-8.3 4.8-7.3 7.9 1.2 3.8 9.1 9.2 15.7 10.8 3.3.7 3.3.8.9 1.5-7.3 2.1-37-2.6-51.5-8.1-21.2-8.1-33.1-15.6-40.1-25.1-14.2-26.54 12.8-28.62 30.2-31.02C172.1 6.895 241.4 28.7 274 50.08c16.5 10.82 42.3 36.09 26 54.92-2.9 3.1-4 2.8-4-1.2z"/></svg>