<svg xmlns="http://www.w3.org/2000/svg" viewBox="0 0 521.46 188.11"><path d="M319.137 159.162a1.16 1.16 0 0 0-.84-.32c-.71 0-.98 1.02-.98 1.02-.66 2.18-1.26 2.79-2.18 3.12-.78.24-3 .21-4.63.21h-.56c-5.37 0-6.68-.73-6.78-4.06v-10.08c0-.29.1-.49.33-.49.87 0 3.58 0 5.48.1.75 0 2.4 0 2.71.1 1.44.13 1.83.72 2.1 1.53 0 0 .43 1.16 1.14 1.19 1.13 0 1.08-1.04 1.08-1.04s.13-1.45.19-2.05c.1-.59.3-2.03.3-2.03l.15-.87c0-.81-.45-.98-.82-.98-.41 0-.81.33-1.21.62l-.19.13c-.42.27-.94.4-1.72.51h-9.13c-.26 0-.39 0-.41-.36v-13.035c0-.17.1-.266.41-.29h9.09c1.69.09 2.23 1.337 2.37 1.746l.23.662c.11.286.34.852 1.22.852.21 0 .71-.06.87-.842 0 .02.15-1.128.15-1.128l.16-1.143c0-.927.19-1.58.29-1.88l.1-.313c0-.05.15-.562 0-.838-.1-.194-.29-.433-.71-.41-.31.05-.75.206-.78.206-.1.03-.3.13-.63.167-.37.06-1.62.11-1.62.11-.19.01-.82.01-1.76.02 0 0-10.25.03-11.53.03-.38 0-1.46-.02-1.46-.02s-3.3-.134-3.35-.134c-.64 0-1.2.423-1.2.966 0 .53.51.842 1.2.962 1.21.214 1.26 1.527 1.37 5.002V151.772c0 2.64 0 5.06-.1 7.03-.25 3.55-.14 4.86-1.24 5.09-.7.1-1.22.44-1.22.97 0 .54.55.97 1.22.97l3.59-.15h.87c2.32 0 5.13.17 9.67.24 1.69 0 3.49.1 5.3.1 1.81 0 2.81 0 3.27-1.57l.24-2.97.16-1.3c0-.4-.1-.78-.23-.98zm-127.69 0c-.11-.13-.37-.32-.82-.32-.73 0-.96 1.02-.96 1.02-.68 2.18-1.29 2.79-2.2 3.12-.78.24-3.02.21-4.63.21h-.55c-5.38 0-6.67-.73-6.79-4.06-.1-1.41 0-4.61 0-6.26v-3.82c0-.29.1-.49.34-.49.86 0 3.56 0 5.47.1.75 0 2.42 0 2.69.1 1.46.13 1.84.72 2.11 1.53 0 0 .44 1.16 1.15 1.19 1.12 0 1.07-1.04 1.07-1.04s.11-1.45.21-2.05c.1-.59.29-2.03.29-2.03l.13-.87c0-.81-.44-.98-.81-.98-.41 0-.8.33-1.21.62l-.18.13c-.42.27-.94.4-1.72.51h-9.14c-.26 0-.36 0-.4-.36v-13.035c0-.17.12-.266.42-.29h9.07c1.7.09 2.24 1.337 2.38 1.746l.23.662c.11.286.35.852 1.22.852.19 0 .7-.06.88-.842 0 .02.14-1.128.14-1.128l.15-1.143c0-.927.2-1.58.3-1.88l.1-.313c0-.05.14-.562 0-.838-.1-.194-.28-.433-.69-.41-.32.05-.76.206-.79.206-.1.03-.32.13-.64.167-.36.06-1.62.11-1.62.11-.2.01-.82.01-1.75.02 0 0-10.26.03-11.55.03-.38 0-1.47-.02-1.47-.02s-3.28-.134-3.33-.134c-.66 0-1.2.423-1.2.966 0 .53.5.842 1.2.962 1.22.214 1.26 1.527 1.36 5.002V158.802c-.26 3.55-.14 4.86-1.25 5.09-.7.1-1.22.44-1.22.97 0 .54.54.97 1.22.97l3.6-.15h.87c2.31 0 5.12.17 9.67.24 1.7 0 3.49.1 5.32.1 1.79 0 2.8 0 3.25-1.57l.22-2.97.17-1.3c.1-.4 0-.78-.24-.98zm191.29.18c-.12-.11-.32-.32-.82-.33-.64 0-.95 1.08-.95 1.08-.65 2.36-1.11 2.21-2 2.55-.54.22-2.07.6-3.6.63 0 0-3.65.12-5.22-.15-.32 0-.92-.27-.92-.27-.45-.22-.77-.47-1-.76-.35-.38-.54-1.04-.68-1.98 0-.15-.25-4.55-.25-8.36v-8.53-9.788c0-2.08 1.48-2.404 1.48-2.404.62-.11 1.06-.494 1.06-.99 0-.37-.21-.865-1.16-.913v-.01h-8.54c-1.23 0-1.5.457-1.5.924 0 .52.42.88 1.06.99 0 0 1.5.24 1.5 2.404 0 .504.1 7.928.1 9.798v8.52c0 3.43 0 6.47-.1 8.62-.26 2.28-.14 3.34-1.33 3.55-.59.1-1.08.44-1.08.95 0 .53.54.96 1.2.96 1.28 0 2.47-.18 4.63-.18 2.15 0 9.15.21 9.15.21h1.59c1.27 0 2.56.1 3.87.1 1.77 0 2.75 0 3.19-1.63 0-.1.36-2.83.36-2.83l.12-1.13c.1-.41 0-.81-.18-1.03zm105.88 1.27c-2.93 2.14-6.46 3.25-9.74 3.25-4.19 0-6.25-1.01-6.93-1.94-.42-.54-.53-2.47-.58-3.66-.1-.92-.11-4.64-.11-9.77v-6.07c0-3.82 0-8.023.1-9.674 0-.515.17-.757.64-.976.42-.167 2.37-.324 3.44-.324 4.13 0 7.83.58 12.7 4.834 2.28 1.99 5.21 6.02 5.21 12.15 0 4.96-1.19 9.63-4.68 12.18zm5.67-25.912c-5.75-5.524-11.47-5.524-18.07-5.524-3.16 0-6.49.157-8.14.157-.28 0-3.44-.12-3.44-.12s-.94-.133-1.34-.06c-.59.1-1.03.47-1.03.965 0 .553.5.938 1.21 1.01 1.31.228 1.57 1.922 1.63 3.017 0 .11.1 3.907.1 9.047v8.49c0 3.01-.1 8.33-.11 8.58-.1.86 0 2.9-1.58 3.48-.66 0-1.18.44-1.18.97 0 .55.52.99 1.19.99 0 0 4.25-.17 4.32-.17 2.65 0 7.39.58 11.27.58 8.09 0 12.14-3.42 14.56-5.7 2.98-2.75 5.78-7.38 5.78-13.46 0-5.76-2.48-9.75-5.14-12.26zm-90.03 14.162h-7.78c-.18 0-.23-.14-.18-.33l.39-.96 3.69-9.54c.52 1.28 2.36 6.02 3.95 10.1l.16.45c0 .14 0 .27-.23.27zm14.58 15.11c-1.54-.14-2.89-2.34-4.06-4.65l-12.51-29.868c-.1-.228-.53-.66-1.02-.675-.54-.01-.99.446-1.08.674l-12.55 30.398c-.77 1.63-1.62 3.91-2.61 4.01-.64.1-1.12.44-1.12.98 0 .52.49.93 1.1.94h6.63c.62 0 1.13-.42 1.13-.94 0-.53-.51-.85-1.11-.96-1.43-.43-1.2-.88.42-5.03l.42-1.08 2.07-5.03.54-1.3c.1-.13.17-.18.35-.18h9.75c.24 0 .37.1.48.33l.1.23c1.4 3.59 3.25 7.04 4.05 9.09.96 2.04 2.18 4.85 5.4 4.85h3.52c.64 0 1.16-.41 1.16-.93 0-.48-.47-.88-1.07-.91zm-77.25-15.11h-7.77c-.19 0-.23-.14-.19-.33l.4-.96 3.72-9.54c.48 1.28 2.33 6.02 3.92 10.1l.15.45c.1.14 0 .27-.23.27zm14.6 15.11c-1.55-.14-2.89-2.34-4.07-4.65l-12.5-29.868c-.1-.228-.54-.66-1.04-.675-.52-.01-.97.446-1.07.674l-12.55 30.398c-.76 1.63-1.63 3.91-2.61 4.01-.64.1-1.12.44-1.12.98 0 .52.49.93 1.1.94h6.62c.64 0 1.13-.42 1.13-.94 0-.53-.51-.85-1.1-.96-1.41-.43-1.19-.88.42-5.03l.42-1.08 2.08-5.03.53-1.3c.1-.13.18-.18.35-.18h9.75c.23 0 .37.1.48.33l.1.23c1.4 3.59 3.26 7.04 4.04 9.09.96 2.04 2.18 4.85 5.4 4.85h3.54c.63 0 1.14-.41 1.14-.93 0-.48-.47-.88-1.06-.91zm102.24-35.012l-2.53-.01H452.077c-.58 0-1.05.386-1.05.856s.46.805 1.04.867c1.22.133 1.25 1.793 1.39 4.283V155.652c-4.33-4.24-9.52-9.37-12.86-12.64-3.48-3.31-5.99-6.16-8.59-8.73-3.38-3.465-4.54-4.512-4.63-4.584-.5-.576-2.8-.757-2.94-.757h-1.45c-.67 0-1.22.42-1.22.962 0 .494.65.914 1.28.938v.01c.73.06.84.262.89 1.047v27.795c-.16 2.54-.1 4.14-1.39 4.35-.52 0-.98.37-.98.85 0 .47.43.87.97.87h6.34c.61 0 1.06-.38 1.08-.85 0-.48-.47-.82-1.05-.87-1.22-.18-1.22-1.78-1.36-4.29l.1-20.9c.17.17 6.34 6.63 8.83 9.11.92.88 2.02 2.24 2.93 3.11 2.84 2.66 13.99 13.45 14.28 13.77 1.27 1.26 3.08 1.44 3.25-.68l.12-28.81v-.348c.13-2.537.15-4.14 1.46-4.345.54-.02.99-.383.99-.853s-.43-.867-.98-.867zm-294.98 0l-2.52-.01h-3.8c-.59 0-1.06.386-1.06.856s.46.805 1.06.867c1.23.133 1.25 1.793 1.38 4.283V155.652c-4.31-4.24-9.52-9.37-12.85-12.64-3.48-3.31-5.99-6.16-8.58-8.73-3.38-3.465-4.56-4.512-4.64-4.584-.51-.576-2.8-.757-2.95-.757h-1.45c-.66 0-1.21.42-1.21.962 0 .494.64.914 1.28.938v.01c.7.06.8.262.88 1.047v27.795c-.13 2.54-.1 4.14-1.38 4.35-.51 0-.98.37-.98.85 0 .47.45.87.98.87h6.34c.57 0 1.06-.38 1.06-.85 0-.48-.47-.82-1.06-.87-1.23-.18-1.23-1.78-1.38-4.29l.12-20.9c.16.17 6.32 6.63 8.81 9.11.91.88 2.03 2.24 2.96 3.11 2.82 2.66 13.98 13.45 14.28 13.77 1.25 1.26 3.08 1.44 3.22-.68l.12-28.81v-.348c.15-2.537.17-4.14 1.45-4.345.55-.02.99-.383 1-.853 0-.47-.44-.867-.99-.867zm86.3.986c0-.515-.5-.938-1.13-.948h-7.18c-.28 0-.57.106-.57.106-.37.17-.64.47-.64.856 0 .41.32.77.78.9v.01c1.06.348 2.02-.156.36 4.34l-7.02 19.172s-10.62-24.22-10.85-24.596c-.51-1.02-1.83-1.02-2.32.133l-10.71 24.772-6.77-19.055c-.12-.372-.22-.686-.28-.89-.95-3.008-.75-3.598-.24-3.85 0-.01.17-.04.17-.04.47-.13.78-.49.78-.9 0-.53-.51-.962-1.17-.962h-8.4c-.64.01-1.13.433-1.13.948 0 .446.37.808.85.914v.01c2.24.648 2.63 2.466 3.03 3.56.92 2.225 2.36 6.445 3.09 8.645 3.18 9 7.41 21.09 7.41 21.09.41 1.24.6 1.76 1.18 1.76.76 0 1.01-.57 1.48-1.6l10.94-24.97 10.75 24.23c.69 1.53.83 2.34 1.65 2.34.74 0 .97-.71 1.5-2.24 2.54-7.2 10.18-28.75 10.18-28.75.71-1.765 1.32-3.317 3.44-4.064.46-.144.83-.482.83-.928zm41.5 29.416c-.43-.13-.79.17-1.01.61 0 0-.44.99-.9 1.6-.99 1.25-1.7 1.28-6.21 1.48h-14.21c4.07-5.64 21.01-30.844 21.9-32.143.4-.587.17-1.962-1.12-1.962l-14.21-.01c-.86 0-3.56.01-3.56.01-1.46 0-2.67-.01-3.67-.01-1.97-.1-3.22-.243-4.29-.348-1.31-.133-1.33.853-1.57 2.742-.23 1.59-.32 2.213-.32 2.61 0 .264.1.998.94 1.01.75.02 1.04-.517 1.25-1.01.1-.145.24-.588.24-.588.18-.532.43-.917.7-1.17 1.05-.456 2.57-.467 4.93-.59h12.82c-3.92 5.598-22.17 31.938-22.17 31.938-.76.98-.1 2.41 1.06 2.41l5.35-.1H289.397c1.16 0 1.61-.1 1.92-.92 0 0 .75-2.82.56-4.52 0-.54-.21-.91-.63-1.05zm-246.104-12.9h-9.18c-.214 0-.262-.17-.214-.37l.442-1.08 4.405-10.76c.577 1.457 2.86 6.79 4.64 11.38l.195.51c.05.15 0 .32-.29.32zm16.266 17.02c-1.77-.14-3.25-2.63-4.56-5.24l-14.124-33.674c-.11-.263-.59-.733-1.18-.758-.577 0-1.07.495-1.19.758l-14.172 34.274c-.842 1.84-1.804 4.42-2.91 4.53-.736.1-1.274.49-1.274 1.08 0 .6.553 1.07 1.25 1.07h7.47c.708 0 1.264-.48 1.264-1.09 0-.58-.58-.96-1.25-1.07-1.614-.48-1.576-.99.238-5.66l.484-1.23 2.333-5.66.6-1.46c.1-.17.194-.23.398-.23h11.417c.275 0 .42.12.54.38l.122.28c1.575 4.03 3.67 7.94 4.56 10.24h.01c1.095 2.31 2.26 5.45 5.896 5.45h3.98c.736 0 1.288-.46 1.288-1.03 0-.56-.52-1-1.19-1.04zm31.48-17.04c-1.432.47-4.764.36-5.896.19v-14.35c.02-.195.1-.243.194-.266.553-.1 1.66-.242 2.923-.242 3.707 0 8.447 2.503 8.447 7.098 0 5.31-3.13 6.77-5.667 7.57zm20.807 17.53c-.22 0-.69-.1-1.13-.15-.6-.11-1.09-.26-1.54-.44-.35-.16-.69-.33-1.03-.5-.54-.3-1.04-.64-1.55-.98-2.58-1.85-4.5-4.45-6.39-7l-1.39-1.86c-1.92-2.52-2.98-3.7-3.83-4.36 1.27-.48 3.17-1.44 4.75-3.17 1.68-1.85 2.54-4.1 2.54-6.69v-.95c-.29-3.295-2.78-5.784-4.21-6.722-2.74-1.947-6.454-2.203-9.38-2.203l-9.985.09c-.672.01-1.214.433-1.214.962 0 .507.505.913 1.132.964.72.1.82.263.89 1.033.167 6.175.157 8.345.157 11.075v8.54c0 3.11-.133 8.68-.146 9.01-.108 2.58-.347 3.21-1.142 3.31-.624.1-1.167.44-1.167.98 0 .55.52.97 1.168.97H88.71c.662 0 1.204-.45 1.204-.98s-.494-.95-1.18-.98c-1.636-.18-1.514-2.78-1.636-4.99-.02-.32-.03-1-.03-1-.04-1.55-.04-8.37-.04-8.37h.962c1.193 0 3.36 0 5.077 2.51l.56.86c1.5 2.31 5.33 7.66 8.46 10.57 1.64 1.52 4.51 2.44 7.1 2.5h-.36 4.84c.65 0 1.2-.44 1.2-.98s-.51-.97-1.14-1zm-38.805-35.168H66.074c-.61.04-1.118.457-1.118.975 0 .54.518.974 1.17.974 1.274.215 1.346 1.48 1.37 2.837l.03 1.19c.02 1.472.02 3.722.02 8.112v8.55c0 2.38-.01 3.89-.01 4.49l-.12 4.7c-.07 1.44-.133 3.02-1.227 3.13-.652 0-1.18.43-1.18.96 0 .54.503.96 1.13.99h-.01 8.71c.638 0 1.132-.45 1.132-.99 0-.53-.528-.96-1.18-.96h-.01c-1.095-.11-1.156-1.68-1.228-3.13h.02l-.133-4.7c0-1.36-.01-2.86-.01-4.49v-8.55c0-4.39 0-6.666.03-8.11l.02-1.19c.05-1.358.1-2.624 1.358-2.838.66 0 1.204-.447 1.204-.975 0-.52-.516-.94-1.154-.976zM220.577 68.77s10.3-13.472 29.72-33.406c5.48-5.63 15.09-13.364 25.5-13.364 11.27 0 18.28 8.252 18.28 15.854 0 7.59-4.87 15.4-15.33 15.4-5.45 0-10.1-3.89-10.1-9.314 0-2.646 2.07-6.554 6.95-6.554 4.73 0 5.86 5.15 5.47 7.024 0 0 3.58-1.262 3.58-5.667 0-4.46-3.86-7.734-8.85-7.734-7.62 0-15.1 7.085-17.97 9.874-11.35 11.26-16.67 18.78-16.67 18.78h69.94l-3.9 9.107zm-1.47 4.823s4.54 13.73 10.54 26.85c5.12 11.188 13.58 17.95 23.91 17.95 9.73 0 16.35-7.795 16.35-15.22 0-8.408-6.14-13.953-13.39-13.953-7.72 0-9.33 6.135-9.33 7.677 0 3.546 2.8 6.83 6.37 6.83 5.65 0 6.08-4.736 6.08-4.736s1.73 1.153 1.73 4.185c0 2.89-2.34 6.605-7.81 6.605-4.34 0-10.74-2.418-15.16-12.212-5.18-11.475-5.55-14.857-5.55-14.857h68.4l3.91-9.117z"/></svg>