<svg xmlns="http://www.w3.org/2000/svg" viewBox="0 0 115.6231 52.1103" version="1"><path d="M33.87 27.705l-8.81 17.16h4.78l1.47-2.94h6.15l.25 2.94h4.66l-1.56-17.16h-6.94zm13.13 0l-3.63 17.16h3.91l1.03-4.87H49l1.84 4.87h4.59l-2.81-6.25 4.59-5.75H52.9l-3.34 4.5h-.69l2.06-9.66H47zm62.24 0l-.6 3.03h3.9l.7-3.03h-4zm-72.59 3.44l.57 7.44h-4.26l3.66-7.44zm27.47 1.59c-2.41.1-4.59.44-5.28 3.69h3.91c.23-1.07.93-1.31 1.9-1.31 1.72 0 1.62.73 1.38 1.84l-.41 1.91h-.16c-.13-1.37-1.88-1.37-3-1.37-2.83 0-4.54.89-5.15 3.78-.65 3.06.82 3.72 3.56 3.72 1.37 0 3.23-.26 3.88-1.91h.12l-.5 1.78h3.91l1.59-7.5c.88-4.13-.7-4.63-4.72-4.63h-1.03zm16.59 0c-1.34 0-2.9.4-3.68 1.82h-.16l.37-1.69h-3.81l-2.56 12h3.94l1.43-6.81c.31-1.44.79-2.32 2.41-2.31 1.37 0 1.27.74 1.09 1.84l-1.53 7.28h3.91l1.47-6.81c.26-1.28.78-2.32 2.31-2.31 1.53 0 1.33.93 1.13 2.18l-1.5 6.94h3.93l1.75-8.22c.6-2.79-.58-3.91-3.34-3.91-1.51 0-3.27.64-3.84 2.35h-.19c.23-2.06-1.44-2.35-3.13-2.35zm18.53 0c-2.41.1-4.58.44-5.28 3.69h3.94c.24-1.07.89-1.31 1.88-1.31 1.71 0 1.65.73 1.4 1.84l-.4 1.91h-.19c-.15-1.37-1.86-1.37-2.97-1.37-2.83 0-4.54.89-5.16 3.78-.65 3.06.83 3.72 3.57 3.72 1.37 0 3.19-.26 3.84-1.91h.16l-.54 1.78h3.95l1.6-7.5c.8-4.13-.7-4.63-4.73-4.63h-1.07zm8.9.13l-2.5 12h3.9l2.6-12h-4zm-44.89 7.03c1.28 0 2.13.1 1.93 1.1-.27 1.25-.82 1.46-2.47 1.46-.59 0-1.71 0-1.43-1.31.23-1.09 1.01-1.25 1.97-1.25zm35.15 0c1.28 0 2.12.1 1.91 1.1-.27 1.25-.79 1.46-2.44 1.46-.6 0-1.71 0-1.44-1.31.23-1.09 1-1.25 1.97-1.25zM28.9 2.365c-1.55.02-2.97.203-4.22.407-2.93.48-5.48 1.16-8.18 2.657-1.87 1.038-4.01 2.554-5.843 4.467C4.187 16.605.02 26.375 3.845 36.525c4.877 12.91 16.756 14.6 23.336 12.43 0 0-11.74-4.02-16.49-15.78-3.753-9.26-1.04-16.85 3.09-21.84 2.83-3.447 5.8-5.543 9.59-6.656 4.25-1.255 8.42-1.014 14.09-.595-3.03-1.356-5.98-1.75-8.56-1.72zm3.41 2.845c-1.11.017-2.26.108-3.41.312-9.18 1.642-16.11 11.083-16.68 18.213-.52 6.49.74 9.85 4.74 14.69h.13c-1.99-3.07-4.06-9.33-3.09-14.03 1.15-5.67 4.68-12.55 15.53-14.123 9.86-1.427 14.25 1.05 19.28 5.343C46.75 9.378 40.09 5.09 32.31 5.21zm-.69 7.062c-3.31-.02-6.74.743-9.69 2.753-5.79 3.92-7.32 7.57-6.12 15.18.26-6.75 4-10.16 8.03-12.43 3.96-2.25 9.39-2.18 14.69-.19 3.48 1.31 6.21 2.56 9.06 8.25.57-4.55-1.65-7.66-5.34-10.44-2.35-1.76-6.38-3.1-10.63-3.123zm5.59 6.903c-1.76 0-3.49.37-4.56 1.03 2.84 0 5.34.86 7.44 2.13 2.1 1.26 1.95 1.35 4.47 4.84.46-1.7-.1-4.83-2.53-6.65-1.24-.91-3.05-1.33-4.82-1.35z"/></svg>