<svg xmlns="http://www.w3.org/2000/svg" viewBox="0 0 310.68 73.4"><path d="M15.225 25.762L11.463 39.25h7.5zm6.262 21.875L19.95 42.65h-9.487l-1.538 4.987H5l7.863-25.375h4.812l7.75 25.375zm86.083 0h-3.66V22.262h3.66zM96.5 36.7c0-.487.137-2.1-.637-3.55-.4-.726-1.488-2.45-3.9-2.413-1.05 0-2.013.325-2.776.962-1.937 1.662-2.062 4.35-2.1 5zm-9.375 2.45c.125.85.25 1.412.375 1.725a6.01 6.01 0 0 0 3.575 3.787c.675.25 1.65.525 3.3.525.962 0 2.45-.125 4.588-.837v2.937c-.888.313-2.613.8-5.113.8-.725 0-3.175 0-5.35-1.087-2.05-1.013-5.112-3.625-5.075-9.213 0-.725 0-2.537.775-4.387.638-1.576 2.688-5.513 7.838-5.513 4.912 0 8.052 3.65 8.052 8.45 0 .8 0 1.325-.402 2.813zm-5.388-7.763h-5.425v9.975c0 .163 0 1.09.126 1.726.562 1.938 2.662 1.863 3.137 1.863.688 0 1.288 0 2.575-.362V47.6c-1.162.238-2.088.363-3.3.363-.475 0-2.212 0-3.625-.762-2.45-1.325-2.525-3.9-2.525-6.274v-16.25l3.663-2.84v6.526h5.425zM64.475 37.9c-2.163 0-5.188.125-7 1.575-.85.687-1.288 1.576-1.288 2.687 0 .687.163 1.3.563 1.775.762.975 2.137 1.375 4.55 1.375.562 0 1.775 0 3.175-.287zm-10.338-8.325c.4-.2.838-.4 1.288-.6a15.433 15.433 0 0 1 5.637-1.088c2.725 0 4.3.725 5.225 1.525.2.163.85.725 1.175 1.45.35.763.6 1.65.6 3.575v12.925c-2.937.638-5.912.726-6.875.726a19.98 19.98 0 0 1-3.474-.287c-1.125-.2-5.1-1.075-5.1-5.387 0-.925.15-2.812 2-4.387 2.75-2.375 6.612-2.54 9.912-2.54V34.6c0-1.125 0-1.524-.25-2.012-.4-.926-1.487-1.8-3.737-1.8-1.725 0-3.738.512-5.275 1.237-.4.163-.763.4-1.125.612zm-4.262 2.65c-.4-.275-.438-.313-.688-.438-1.287-.725-2.687-.762-3.175-.762-.487 0-1.575 0-2.737.6-1.413.65-3.663 2.375-3.663 6.237 0 .564 0 1.613.488 2.863.962 2.613 3.25 4.226 6.037 4.226 1.963 0 3.3-.813 3.9-1.174v3.1c-.325.2-.725.45-1.087.562-.525.25-1.85.65-3.538.65-5.837 0-9.662-4.55-9.662-10.225 0-.687 0-2.337.725-4.062.725-1.924 3.062-5.912 8.775-5.912 1 0 2.525.125 4.625 1.088zM31.8 47.637h-3.663V22.262H31.8zm197.78-16.25h-5.44v9.975c0 .163 0 1.09.19 1.726.56 1.938 2.65 1.863 3.12 1.863.69 0 1.29 0 2.58-.362V47.6c-1.18.238-2.09.363-3.3.363-.49 0-2.21 0-3.63-.762-2.44-1.325-2.53-3.9-2.53-6.274v-16.25l3.66-2.84v6.526h5.44zm-26.78-3.063v3.788c.22-.45.54-1.088.82-1.488 1.77-2.5 4.09-2.737 5.22-2.737.69 0 2.55.125 4.09 1.237 2.44 1.813 2.51 4.55 2.51 7.25v11.263h-3.66V36.813c0-1.688 0-3.375-1.38-4.625-.35-.364-1.23-.964-2.65-.964-.53 0-1.69.125-2.82 1-2 1.65-1.97 4.438-1.97 6.725v8.687h-3.66V28.324zM191.7 36.7c0-.487.13-2.1-.65-3.55-.39-.726-1.48-2.45-3.89-2.413-1.05 0-2.02.325-2.78.962-1.94 1.662-2.06 4.35-2.1 5zm-9.38 2.45c.12.85.25 1.412.37 1.725a6.012 6.012 0 0 0 3.58 3.787c.69.25 1.65.525 3.3.525.96 0 2.45-.125 4.59-.837v2.937c-.89.313-2.62.8-5.12.8-.72 0-3.17 0-5.35-1.087-2.05-1.013-5.11-3.625-5.07-9.213 0-.725 0-2.537.77-4.387.64-1.576 2.69-5.513 7.84-5.513 4.91 0 8.05 3.65 8.05 8.45 0 .8 0 1.325-.4 2.813zm-6.35-6.925c-.4-.275-.45-.313-.69-.438-1.29-.725-2.7-.762-3.18-.762s-1.57 0-2.73.6c-1.42.65-3.67 2.375-3.67 6.237 0 .564 0 1.613.48 2.863.97 2.613 3.26 4.226 6.04 4.226 1.97 0 3.3-.813 3.91-1.174v3.1c-.33.2-.73.45-1.09.562-.52.25-1.85.65-3.55.65-5.82 0-9.65-4.55-9.65-10.225 0-.687 0-2.337.72-4.062.72-1.924 3.06-5.912 8.78-5.912 1 0 2.53.125 4.62 1.088zm-29.99-3.9v10.95c0 1.775 0 3.7 1.69 4.825.44.326 1.41.762 2.81.762 1.54 0 2.26-.4 2.79-.8 1.6-1.337 1.49-3.7 1.49-5.51V28.324h3.66V38.55c0 2.375 0 3.262-.37 4.462-.28.963-.88 2.738-3.1 3.988-1.85 1.088-3.78 1.088-4.54 1.088-1.2 0-2.22-.175-2.62-.287-2.13-.512-4.06-1.962-4.87-4.024-.56-1.438-.6-3.175-.6-4.788V28.325zm-15.7-6.063v21.963h10.09v3.412h-13.75V22.262zm-10.02 14.426c0 1.75-1.43 3.174-3.18 3.174a3.174 3.174 0 1 1 3.18-3.174M274.04 5c-1.8 0-3.57.188-5.36.438-2.4.412-4.75 1.087-7.05 2.05a32.15 32.15 0 0 0-10.07 6.8 31.95 31.95 0 0 0-7.65 12.337 31.48 31.48 0 0 0-1.15 4.537c-.33 1.85-.48 3.725-.48 5.588 0 8.375 3.39 16.475 9.34 22.4 6.01 6 13.85 9.1 21.72 9.25h1.3c1.67 0 3.3-.2 4.93-.488 1.52-.262 3.05-.65 4.5-1.137a31.48 31.48 0 0 0 12.34-7.663c2.98-2.975 5.26-6.387 6.77-10.037a29.002 29.002 0 0 0 2.06-7.038c.3-1.75.44-3.537.44-5.325 0-8.087-3.06-16.212-9.25-22.4C290.51 8.4 282.38 5.025 274.04 5zm2.43 8.05c.7 0 1.39.15 2.12.387 3.98 1.275 3.65 2.712 1.38 11.038-2.63 9.6-5.19 20.3-4.95 26.075.12 2.987 1.3 2.975 3.97 1.862 2.59-1.062 6.07-3.262 9.1-6.787h.13l1.22 2.525c-2.81 4.275-6.7 7.762-10.78 9.562-5.44 2.388-9.09 1.138-9.44-3.5-.4-5.112.87-12.087 3.4-21.237 2.21-8 5.27-15.838 4.37-16.225-1.4-.613-9.07 7.262-14.37 16.975 0 0 4.19-3.113 9.31-5.513-.3.988-.6 1.988-.9 3.013-6.17 3.75-11.54 9.1-14.76 14.112-.71 1.138-1.5 1.35-2.49.638a43.692 43.692 0 0 1-3.26-2.625c4.34-9.013 12.97-20.888 18.66-26.113 3.29-3.037 5.3-4.162 7.35-4.125zm6.62 11.962c1.19 0 2.33 0 3.44.25 4.05.75 11.41 5.725 4.81 19.4v.125l-1.05-2.125c2.43-4.1 3.89-9.5 1.49-12.962-2.44-3.513-6.14-4.075-10.24-3.125.14-.538.27-1.025.39-1.438.41 0 .81 0 1.2-.125z"/></svg>