<svg xmlns="http://www.w3.org/2000/svg" viewBox="0 0 41.25 20.6"><path d="M4.888 7.344H4.62V8.38h.55V7.345h-.282zM19.71 9.61h.5c.16 0 .28-.04.33-.132.1-.07.1-.267.14-.563.11.133.27.222.45.252-.1.385-.21.607-.3.666-.1.07-.25.104-.5.104h-2.3c-.43 0-.64-.178-.64-.533v-2.58-.666h3.25v2.149h-.38V8.01H17.8v1.2c0 .268.14.4.42.4h1.52zm0-1.94h.52V6.5h-1.06v1.17h.54zm-1.41 0h.52V6.5h-1.05v1.17h.53zm-3.41 1.94h.5c.17 0 .29-.04.33-.132.1-.07.1-.267.15-.563a.74.74 0 0 0 .44.252c-.1.385-.2.607-.29.666-.1.07-.26.104-.51.104h-2.29c-.43 0-.64-.178-.64-.533v-2.58-.666h3.23v2.149h-.38V8.01h-2.46v1.2c0 .268.15.4.43.4h1.51zm0-1.94h.52V6.5h-1.05v1.17h.53zm-1.41 0H14V6.5h-1.05v1.17h.53zm-3.41 1.956h.77c.21-.01.43-.01.69-.01v.356c-.26-.03-.48-.04-.69-.04H8.03c-.223 0-.49.01-.77.04v-.356c.295 0 .547 0 .77.01h1.14v-.622h-.844c-.178 0-.4 0-.653.01v-.34c.252.01.475.03.653.04h.844V8.18H7.762c.02-.243.03-.555.03-.91 0-.34 0-.74-.03-1.156h3.228V8.19H9.526v.534h.904c.18-.01.4-.03.67-.04v.34c-.27-.01-.49-.01-.67-.01h-.904v.622h.544zm0-1.72h.55v-.592H9.526v.593h.544zm0-.86h.55v-.65H9.526v.65h.544zm-1.404.86h.504v-.592H8.162v.593h.504zm0-.86h.504v-.65H8.162v.65h.504zm-3.778 1.66H4.62v.46h-.355c.015-.192.015-.548.015-1.066 0-.52 0-.875-.02-1.067h1.26c-.01.237-.01.563-.01.978 0 .416 0 .742.02.98h-.356v-.283h-.28zm0-2.296h1.007v2.934c0 .15-.03.237-.104.267-.06.01-.206.03-.428.03.09.134.133.282.163.43.266 0 .444-.07.563-.133.118-.06.163-.207.163-.46V6.41c.12 0 .297 0 .52.01v-.355c-.238.01-.4.01-.475.01h-1.63c-.148 0-.326 0-.563-.01v.355c.282-.01.474-.01.563-.01h.223zm-1.66 1.14c.252.372.4.638.444.816.04.193.03.312-.04.356-.07.04-.222.09-.43.12.07.132.134.265.163.4.19-.046.352-.12.5-.224.148-.118.222-.28.207-.518-.03-.222-.177-.55-.488-.978.148-.49.28-.963.414-1.438H2.665c.02.252.02.89.02 1.882 0 1.008 0 1.704-.02 2.104h.385V6.41h.504c-.12.445-.222.83-.326 1.14m6.03 6.21v-.75h1.112v.75H9.26zm.03 3.13v-2.71h1.042v2.71H9.29zm12.252-1.42c0-.26-.1-.45-.19-.6-.13-.15-.32-.22-.55-.22-.24 0-.42.1-.55.22-.13.15-.19.36-.19.63 0 .26.1.47.19.62.13.15.31.21.55.21.24 0 .43-.1.56-.23.13-.15.19-.37.19-.63zm-.75-1.31h.43c.43 0 .77.12 1.02.37.24.25.37.59.37 1.02 0 .46-.12.82-.37 1.07-.24.25-.58.38-1.01.38-.15 0-.29 0-.44-.1-.1 0-.15-.1-.22-.1-.2-.1-.37-.23-.52-.43v.52h-1.04v-.31-3.57h1.03v1.55c.16-.15.34-.27.53-.34.1 0 .13 0 .21-.1zm11.79.34c.55 0 1 .46 1 1.01s-.45.99-1 .99a1 1 0 0 1-1-.99c0-.55.46-1.01 1-1.01zm0 2.46a1.46 1.46 0 1 0 0-2.92 1.46 1.46 0 0 0 0 2.92zm-5.33-.49h.46v.42h-.46v-.42zm3.5.1c-.15.12-.45.41-1.03.41-.74 0-1.45-.58-1.45-1.45s.71-1.47 1.45-1.47c.55 0 .88.3 1.03.42-.1.13-.17.37-.2.47-.28-.37-.62-.43-.83-.43-.54 0-.99.46-.99 1.01 0 .53.45.99.99.99.31 0 .61-.13.83-.43.1.24.15.39.2.48zm3.94.34V14.2h.41v.38c.1-.13.21-.24.34-.32.15-.1.31-.12.49-.12.2 0 .36 0 .49.12.14.1.22.2.28.35.21-.31.49-.47.83-.47.27 0 .48.1.63.22.14.15.22.38.22.7v1.85h-.46V15.2c0-.19 0-.31-.1-.4 0-.1-.1-.14-.16-.19-.1 0-.18-.1-.28-.1-.19 0-.34.1-.47.19-.12.12-.2.33-.2.61v1.57h-.46v-1.77c0-.2 0-.35-.1-.45-.1-.11-.21-.15-.37-.15-.13 0-.25 0-.36.1-.12.1-.19.16-.23.3-.1.13-.1.32-.1.56v1.41h-.47zm3.51-3.31v-.52h-.19.47-.19v.52h-.1zm.36 0v-.57h.11l.14.41v0l.13-.4h.1v.57h-.1v-.49l-.16.49h-.1l-.16-.49v.49h-.1zm-13.25 2.91c-.11.16-.27.26-.49.35-.1 0-.11 0-.15.1-.18 0-.38.1-.62.1-.34 0-.61-.1-.8-.22-.18-.13-.28-.34-.28-.61 0-.16 0-.31.11-.44.1-.12.18-.22.32-.31.1-.1.26-.12.46-.15H25.29c0-.15 0-.27-.13-.34-.1-.1-.21-.12-.37-.12h-.12c-.13 0-.24 0-.31.1-.1 0-.15.13-.16.25h-1.06c0-.3.2-.52.46-.67.24-.13.6-.19 1.07-.2h.13c.51 0 .89.1 1.13.25.24.16.36.43.36.78V16.97s0 .1.1.15h-.97c0-.1 0-.11-.1-.16v-.28zm-.64-.12c.18 0 .33-.1.43-.16a.61.61 0 0 0 .19-.46v-.1h-.63c-.16 0-.28 0-.37.1-.16 0-.25.14-.25.29 0 .1 0 .17.13.23.1 0 .22.1.39.1h.1zm-7.33.12c-.12.16-.29.26-.51.35 0 0-.1 0-.15.1-.17 0-.38.1-.62.1-.34 0-.61-.1-.78-.22-.2-.13-.29-.34-.29-.61 0-.16 0-.31.11-.44.1-.12.18-.22.31-.31.12-.1.27-.12.46-.15h1.44c0-.15 0-.27-.14-.34-.1-.1-.21-.12-.37-.12h-.12c-.13 0-.23 0-.31.1-.1 0-.13.13-.16.25h-1.05c0-.3.19-.52.46-.67.25-.13.6-.19 1.06-.2h.14c.5 0 .89.1 1.12.25.24.16.37.43.37.78V16.97s0 .1.1.15h-.97v-.16-.28zm-.66-.12c.2 0 .33-.1.43-.16.14-.11.2-.27.2-.46v-.1h-.64c-.15 0-.26 0-.35.1-.18 0-.25.14-.25.29 0 .1 0 .17.11.23.1 0 .23.1.4.1h.1zm-3.12-.9c0-.26-.1-.45-.2-.6-.13-.15-.31-.22-.54-.22-.26 0-.43.1-.57.22-.13.15-.19.36-.19.63 0 .26.1.47.19.62.14.15.33.21.55.21.23 0 .41-.1.54-.23.14-.15.2-.37.2-.63zm-.74-1.31h.41c.43 0 .77.12 1.02.37s.37.59.37 1.02c0 .46-.12.82-.35 1.07-.25.25-.58.38-1.01.38-.16 0-.31 0-.44-.1-.1 0-.17-.1-.23-.1-.2-.1-.38-.23-.52-.43v.52h-1.06v-.31-3.57h1.03v1.55c.15-.15.33-.27.52-.34.1 0 .15 0 .23-.1zm-8.08-1.15h.755l1.897 3.88H6.147l-.34-.79h-2.12l-.37.79h-1.17l2.03-3.88h.562zm0 2.34h.71l-.666-1.5-.04.1-.696 1.43h.696zm2.83 1.54v-3.88h1.037v3.88H7.57M32.18 3.64c-1.06.02-2.19.325-2.95.592-2.62.934-4.26 2.4-5.3 4.045-1.1 1.63-.73 3.183 1.58 3.233 1.78-.1 2.94-.56 4.15-1.19 0 0-3.33.95-4.56.26-.13-.1-.28-.18-.31-.47 0-.573.96-1.166 1.5-1.358v-.978a3.79 3.79 0 0 0 3.54-.564c.1.09.1.238.1.356h.19c.1-.385-.22-.77-.64-.8.12.104.21.178.25.252v.03c-1.45 1.038-2.84.55-2.97.52l.8-.8-.23-.564c1.6-.563 2.95-.993 5.13-1.378l-.49-.4.25-.163c1.33.384 2.19.65 2.14 1.344 0 .122-.1.254-.14.404-.37.772-1.51 2.03-1.97 2.565-.31.34-.6.697-.83 1.022-.2.326-.34.633-.35.923 0 2.31 6.77-1.07 8.07-1.96-1.92.83-4 1.63-6.29 1.78-.63 0-.57-.3-.2-.802.86-1.17 2.51-2.786 2.57-3.927.1-1.496-1.41-1.985-2.97-1.97zM34.21 5v0zm.1.132v0zm0 .144v0zm0 .162v0z"/></svg>