<svg xmlns="http://www.w3.org/2000/svg" viewBox="-149 219 713.26 187.3"><path d="M531.26 267.5c0 2-.2 3.8-.6 5.4-.4 1.6-1 2.9-1.9 4-.9 1.1-2 2-3.4 2.5-1.4.6-3.2.9-5.2.9s-3.8-.3-5.3-.9c-1.5-.6-2.7-1.4-3.6-2.5-.9-1.1-1.6-2.4-2-4-.4-1.6-.6-3.4-.6-5.4 0-2 .2-3.8.6-5.4.4-1.6 1.1-2.9 2-4.1.9-1.1 2.1-2 3.6-2.6 1.5-.6 3.2-.9 5.3-.9 2.1 0 3.8.3 5.2.9 1.4.6 2.6 1.5 3.5 2.6.9 1.1 1.5 2.4 1.9 4 .4 1.6.5 3.6.5 5.5zm-2.7 0c0-1.6-.1-3-.3-4.3-.2-1.3-.7-2.4-1.3-3.3-.6-.9-1.5-1.6-2.6-2.1s-2.5-.7-4.2-.7c-1.7 0-3.1.2-4.2.7-1.1.5-2 1.2-2.7 2.1-.7.9-1.1 2-1.4 3.3-.3 1.3-.4 2.7-.4 4.3 0 1.6.1 3 .4 4.3.3 1.3.7 2.4 1.4 3.3.7.9 1.6 1.6 2.7 2.1s2.5.7 4.2.7c1.7 0 3.1-.2 4.2-.7 1.1-.5 1.9-1.2 2.6-2.1.7-.9 1-2 1.3-3.3.2-1.2.3-2.7.3-4.3zm-4.6-3c0 1-.2 1.9-.5 2.5-.3.7-.8 1.2-1.5 1.5l2.7 5.9h-2.2l-2.4-5.7h-1.4v5.7h-1.9v-13.9c.3 0 .6 0 1-.1h2.2c1.5 0 2.5.4 3.1 1.1.6.8.9 1.8.9 3zm-2 .1c0-1-.1-1.6-.3-2-.2-.4-.7-.5-1.4-.5h-1.6v4.9h1.5c.3 0 .5 0 .7-.1.2 0 .4-.2.5-.3.1-.2.3-.4.3-.7.2-.3.3-.7.3-1.3zm-26.3-12.5c1.3 0 2.3.4 3.2 1.3.9.9 1.3 1.9 1.3 3.2v111.8c0 1.1-.4 2.1-1.1 2.9-.7.8-1.7 1.3-2.8 1.5h-.6c-1 0-2-.3-2.8-.9-.8-.6-1.4-1.4-1.6-2.5l-22.2-83.3.9 82.3c0 1.2-.4 2.3-1.3 3.2-.9.9-2 1.3-3.2 1.3-1.2 0-2.3-.4-3.2-1.3-.9-.9-1.3-1.9-1.3-3.2V256.6c0-1.1.4-2.1 1.1-2.9.7-.8 1.7-1.3 2.8-1.5 1.2-.1 2.2.2 3.2.8.9.6 1.6 1.5 1.9 2.6l22.2 85.2-.9-84.1c0-1.2.4-2.3 1.3-3.2.8-.9 1.8-1.4 3.1-1.4zm-66.1 9v38.3h13.2c1.2 0 2.3.4 3.2 1.3.9.9 1.3 1.9 1.3 3.2 0 1.2-.4 2.3-1.3 3.2-.9.9-1.9 1.3-3.2 1.3h-13.2V364h23.4c1.2 0 2.3.4 3.2 1.3.9.9 1.3 1.9 1.3 3.2 0 1.2-.4 2.3-1.3 3.2-.9.9-1.9 1.3-3.2 1.3h-27.9c-1.2 0-2.3-.4-3.2-1.3-.9-.9-1.3-1.9-1.3-3.2V256.6c0-1.2.4-2.3 1.3-3.2.9-.9 1.9-1.3 3.2-1.3h27.9c1.2 0 2.3.4 3.2 1.3.9.9 1.3 1.9 1.3 3.2 0 1.2-.4 2.3-1.3 3.2-.9.9-1.9 1.3-3.2 1.3h-23.4zm-32-9c3 0 5.6.6 7.8 1.8 2.2 1.2 4.1 2.7 5.5 4.6 1.4 1.9 2.5 3.9 3.3 6.3.8 2.4 1.1 4.7 1.1 7v16.9c0 2.4-.4 4.7-1.1 7-.7 2.3-1.8 4.4-3.3 6.3-1.4 1.9-3.3 3.4-5.5 4.5s-4.8 1.7-7.8 1.7h-8.2v60.3c0 1.2-.4 2.3-1.3 3.2-.9.9-1.9 1.3-3.2 1.3-1.2 0-2.3-.4-3.2-1.3-.9-.9-1.3-1.9-1.3-3.2V256.6c0-1.2.4-2.3 1.3-3.2.9-.9 1.9-1.3 3.2-1.3h12.7zm8.6 19.7c0-.4-.1-1.2-.2-2.4-.2-1.2-.5-2.4-1.1-3.6-.6-1.2-1.4-2.3-2.6-3.3-1.1-.9-2.7-1.4-4.8-1.4h-8.2v38.1h8.2c2.1 0 3.7-.5 4.8-1.4 1.1-.9 2-2 2.6-3.3.6-1.2.9-2.4 1.1-3.6.2-1.1.2-1.9.2-2.3v-16.8zm-52-19.8c3.1 0 5.8.6 8 1.8 2.2 1.2 4.1 2.7 5.5 4.6 1.4 1.9 2.5 4 3.2 6.3.7 2.3 1 4.7 1 7v81.6c0 2.4-.3 4.7-1 7s-1.7 4.4-3.2 6.3c-1.4 1.9-3.3 3.4-5.5 4.6-2.2 1.2-4.9 1.8-8 1.8-5.9 0-10.6-1.8-14.1-5.5s-5.3-8.4-5.3-14.3v-81.6c0-6 1.8-10.8 5.3-14.3 3.5-3.6 8.2-5.3 14.1-5.3zm8.7 19.6c0-.4-.1-1.2-.2-2.4s-.4-2.4-1-3.6c-.6-1.2-1.4-2.3-2.6-3.3-1.2-.9-2.8-1.4-4.9-1.4-2.3 0-4.1.4-5.4 1.1-1.3.7-2.4 1.6-3.1 2.7-.7 1.1-1.2 2.2-1.5 3.5-.3 1.2-.4 2.4-.4 3.4v81.5c0 1 .1 2.2.4 3.4.3 1.2.8 2.4 1.5 3.5s1.8 2 3.1 2.8c1.3.8 3.2 1.2 5.4 1.2 2.1 0 3.7-.5 4.9-1.4 1.2-.9 2.1-2 2.6-3.3.6-1.2.9-2.4 1-3.6.1-1.1.2-2 .2-2.5v-81.6zm-79-10.5c-2.3 0-4.1.4-5.4 1.1-1.3.7-2.4 1.6-3.1 2.7-.7 1.1-1.2 2.2-1.5 3.5-.3 1.2-.4 2.4-.4 3.4 0 3.5.4 6.8 1.1 10 .7 3.2 1.7 6.2 2.9 9.1 1.2 2.9 2.6 5.8 4.1 8.7 1.5 2.8 3.1 5.7 4.8 8.4 1.9 3.2 3.7 6.5 5.5 9.8 1.8 3.3 3.4 6.8 4.9 10.5 1.4 3.7 2.6 7.6 3.5 11.7.9 4.1 1.3 8.6 1.3 13.3 0 2.4-.3 4.7-1 7s-1.7 4.4-3.2 6.3c-1.4 1.9-3.3 3.4-5.5 4.6-2.2 1.2-4.9 1.8-8 1.8-5.9 0-10.6-1.8-14.1-5.5-3.5-3.6-5.3-8.4-5.3-14.2 0-1.2.4-2.3 1.3-3.2.9-.9 1.9-1.3 3.2-1.3 1.2 0 2.3.4 3.2 1.3.9.9 1.3 1.9 1.3 3.1 0 1 .1 2.1.4 3.4.3 1.2.7 2.4 1.5 3.5.7 1.1 1.8 2 3.1 2.8 1.3.8 3.1 1.1 5.4 1.1 2.1 0 3.7-.5 4.9-1.4 1.2-.9 2.1-2 2.6-3.3.6-1.2.9-2.4 1-3.6.1-1.1.2-2 .2-2.5 0-4.1-.4-8-1.2-11.6-.8-3.6-1.8-7.1-3.1-10.4-1.3-3.3-2.8-6.5-4.4-9.5-1.7-3-3.4-6.1-5.3-9.2-1.8-2.9-3.5-5.9-5.2-9-1.7-3.1-3.2-6.3-4.5-9.6-1.3-3.3-2.4-6.8-3.2-10.5-.8-3.7-1.2-7.6-1.2-11.7 0-6 1.8-10.8 5.3-14.3 3.5-3.6 8.2-5.3 14.1-5.3 3.1 0 5.8.6 8 1.8 2.2 1.2 4.1 2.7 5.5 4.6 1.4 1.9 2.5 3.9 3.2 6.3.7 2.3 1 4.7 1 7 0 1.2-.4 2.3-1.3 3.2-.9.9-1.9 1.3-3.2 1.3-1.3 0-2.3-.4-3.2-1.3-.9-.9-1.3-1.9-1.3-3.2 0-.4-.1-1.2-.2-2.4s-.4-2.4-1-3.6c-.6-1.2-1.4-2.3-2.6-3.3-1.2-.9-2.9-1.4-4.9-1.4zm-43.4 0c-2.3 0-4.1.4-5.4 1.1-1.3.7-2.4 1.6-3.1 2.7-.7 1.1-1.2 2.2-1.5 3.5-.3 1.2-.4 2.4-.4 3.4v81.3c0 1 .1 2.2.4 3.4.3 1.2.7 2.4 1.5 3.5.7 1.1 1.8 2 3.1 2.8 1.3.8 3.1 1.2 5.4 1.2 2.1 0 3.7-.5 4.9-1.4 1.2-.9 2.1-2 2.6-3.3.6-1.2.9-2.4 1-3.6.1-1.1.2-2 .2-2.5v-26.6h-8.6c-1.2 0-2.3-.4-3.2-1.3-.9-.9-1.3-1.9-1.3-3.2 0-1.2.4-2.3 1.3-3.2.9-.9 1.9-1.3 3.2-1.3h13c1.2 0 2.3.4 3.2 1.3.9.9 1.3 1.9 1.3 3.2v31.1c0 2.4-.3 4.7-1 7s-1.7 4.4-3.2 6.3c-1.4 1.9-3.3 3.4-5.5 4.6-2.2 1.2-4.9 1.8-8 1.8-5.9 0-10.6-1.8-14.1-5.5s-5.3-8.4-5.3-14.3v-81.3c0-6 1.8-10.8 5.3-14.3 3.5-3.6 8.2-5.3 14.1-5.3 3.1 0 5.8.6 8 1.8 2.2 1.2 4.1 2.7 5.5 4.6 1.4 1.9 2.5 3.9 3.2 6.3.7 2.3 1 4.7 1 7 0 1.2-.4 2.3-1.3 3.2-.9.9-1.9 1.3-3.2 1.3-1.2 0-2.3-.4-3.2-1.3-.9-.9-1.3-1.9-1.3-3.2 0-.4-.1-1.2-.2-2.4s-.4-2.4-1-3.6c-.6-1.2-1.4-2.3-2.6-3.3-1.1-1-2.7-1.5-4.8-1.5zm-33.9-9c1.3 0 2.3.4 3.2 1.3.9.9 1.3 1.9 1.3 3.2v111.8c0 1.1-.4 2.1-1.1 2.9-.7.8-1.7 1.3-2.8 1.5h-.6c-1.1 0-2-.3-2.8-.9-.8-.6-1.4-1.4-1.6-2.5l-22.2-83.3.9 82.3c0 1.2-.4 2.3-1.3 3.2-.9.9-2 1.3-3.2 1.3-1.3 0-2.3-.4-3.2-1.3-.9-.9-1.3-1.9-1.3-3.2V256.6c0-1.1.4-2.1 1.1-2.9.7-.8 1.7-1.3 2.8-1.5 1.2-.1 2.2.2 3.2.8.9.6 1.6 1.5 1.9 2.6l22.2 85.2-.9-84.1c0-1.2.4-2.3 1.3-3.2.8-.9 1.9-1.4 3.1-1.4zm-49.6 0c1.2 0 2.3.4 3.2 1.3.9.9 1.3 1.9 1.3 3.2v111.8c0 1.2-.4 2.3-1.3 3.2-.9.9-1.9 1.3-3.2 1.3-1.2 0-2.3-.4-3.2-1.3-.9-.9-1.3-1.9-1.3-3.2V256.6c0-1.2.4-2.3 1.3-3.2.9-.8 2-1.3 3.2-1.3zm-15.2 116.4c0 1.2-.4 2.3-1.3 3.2-.9.9-2 1.3-3.2 1.3-1.3 0-2.3-.4-3.2-1.3-.8-.9-1.3-1.9-1.3-3.2v-60.1h-19.1v60.1c0 1.2-.4 2.3-1.3 3.2-.9.9-1.9 1.3-3.2 1.3-1.2 0-2.3-.4-3.2-1.3-.9-.9-1.3-1.9-1.3-3.2V256.6c0-1.2.4-2.3 1.3-3.2.9-.9 1.9-1.3 3.2-1.3 1.2 0 2.3.4 3.2 1.3.9.9 1.3 1.9 1.3 3.2v42.8h19.1v-42.8c0-1.2.4-2.3 1.3-3.2.8-.9 1.9-1.3 3.2-1.3 1.3 0 2.3.4 3.2 1.3.9.9 1.3 1.9 1.3 3.2v111.9zm-41.1-115.1c.9.9 1.3 1.9 1.3 3.2 0 1.2-.4 2.3-1.3 3.2-.9.9-1.9 1.3-3.2 1.3h-17.2v107.4c0 1.2-.4 2.3-1.3 3.2-.9.9-1.9 1.3-3.2 1.3-1.3 0-2.3-.4-3.2-1.3-.9-.9-1.3-1.9-1.3-3.2V261.1h-14.7c-1.2 0-2.3-.4-3.2-1.3-.9-.9-1.3-1.9-1.3-3.2 0-1.2.4-2.3 1.3-3.2.9-.9 1.9-1.3 3.2-1.3h40.9c1.2 0 2.3.5 3.2 1.3zm-83.2 111.9c.9.9 1.3 1.9 1.3 3.2 0 1.2-.4 2.3-1.3 3.2-.9.9-1.9 1.3-3.2 1.3h-28c-1.2 0-2.3-.4-3.2-1.3-.9-.9-1.3-1.9-1.3-3.2V256.8c0-1.2.4-2.3 1.3-3.2.9-.9 1.9-1.3 3.2-1.3 1.2 0 2.3.4 3.2 1.3.9.9 1.3 1.9 1.3 3.2V364h23.5c1.3 0 2.3.4 3.2 1.3zm-43.2 0c.9.9 1.3 1.9 1.3 3.2 0 1.2-.4 2.3-1.3 3.2-.9.9-1.9 1.3-3.2 1.3h-28c-1.2 0-2.3-.4-3.2-1.3-.9-.9-1.3-1.9-1.3-3.2V256.8c0-1.2.4-2.3 1.3-3.2.9-.9 1.9-1.3 3.2-1.3 1.2 0 2.3.4 3.2 1.3.8.9 1.3 1.9 1.3 3.2V364h23.5c1.2 0 2.3.4 3.2 1.3zm-42.9 2.7c.2 1.2 0 2.3-.7 3.3s-1.6 1.6-2.9 1.8c-.2.1-.5.2-.8.2-1.1 0-2.1-.3-2.9-1-.8-.7-1.3-1.6-1.5-2.7l-7.4-43.1h-15.2l-7.1 43.1c-.2 1.1-.8 2.1-1.8 2.8-1 .7-2.1 1-3.3.8-1.2-.2-2.2-.8-2.9-1.8-.7-1-1-2.1-.8-3.3l18.7-112.3c.2-1 .7-1.9 1.5-2.6.8-.7 1.7-1.1 2.9-1.1 1.1 0 2.1.3 2.9 1 .8.7 1.3 1.6 1.5 2.7l19.8 112.2zm-17.9-50.5l-6.2-43.7-5.9 43.7h12.1z"/></svg>