<svg xmlns="http://www.w3.org/2000/svg" viewBox="0 0 591.98 153.25"><path d="M525.57 116.69V36.81c0-6.443-2.71-8.545-8.82-8.545h-18.3v8.815h2.03c3.39 0 4.75 1.288 4.75 5.22v74.39zm10.85 0h19.66V56.406c0-6.103-2.71-8.544-8.81-8.544h-10.85zm-42.04 0V47.862h-10.85c-6.11 0-8.82 2.44-8.82 8.544v60.284zm84.76-40.145c0 37.365-27.13 64.625-63.74 64.625-36.62 0-63.74-27.26-63.74-64.625 0-37.363 27.12-64.622 63.74-64.622 36.61 0 63.74 27.26 63.74 64.622m12.88 0c0-43.737-32.55-76.557-76.62-76.557-43.4 0-76.63 32.82-76.63 76.557 0 43.875 33.23 76.695 76.63 76.695 44.07 0 76.62-32.82 76.62-76.695M405.55 107.06h-31.19l29.83-42.585v-14.51h-44.75c-5.43 0-7.46 2.17-7.46 7.39V70.17h7.46v-1.423c0-3.865 2.03-5.425 6.1-5.425h16.27L351.3 105.91v14.64h54.25m-105.16 0V72.7c4.75-4.41 8.14-6.11 12.89-6.11 4.74 0 6.1 2.04 6.1 9.23v44.75h21.02V72.43c0-9.9-1.36-14.18-4.07-17.91-3.39-3.66-7.46-5.35-13.56-5.35-8.14 0-14.24 2.98-23.73 11.19v-3.8c0-4.41-2.04-6.58-6.11-6.58h-20.34v7.66h.68c4.07 0 6.1 1.7 6.1 5.56v57.37M241.4 86.33v14.1c-4.07 4.07-8.82 6.38-12.89 6.38-4.06 0-6.1-1.97-6.1-7.26 0-5.83 1.36-8.07 6.1-9.9 3.4-1.42 6.79-2.31 12.89-3.32m-29.84-16.89l2.04-.81c5.42-2.17 8.81-2.98 12.88-3.73 2.03-.27 4.75-.54 6.1-.54 6.78 0 8.82 2.23 8.82 8.47v1.77c-9.49 1.56-12.21 2.1-17.63 3.25-2.71.68-5.43 1.56-8.14 2.71-8.81 3.53-12.88 10.31-12.88 20.96 0 13.35 5.42 19.73 17.63 19.73 4.74 0 9.49-1.09 12.88-3.26 3.39-1.56 4.75-2.37 8.82-6.1v2.17c0 4.41 2.03 6.51 6.1 6.51h20.34v-7.25h-.68c-4.06 0-6.1-1.84-6.1-5.5V73.17c0-18.04-6.1-24.14-23.73-24.14-6.1 0-11.53.68-16.95 1.97-5.43 1.29-8.14 2.24-14.24 5.42M191.9 34.66c0-6.24-4.75-9.9-12.21-9.9-8.13 0-12.2 3.66-12.2 9.9 0 6.37 4.07 10.1 12.2 10.1 7.46 0 12.21-3.73 12.21-10.1m-.68 85.91v-63.6c0-4.41-2.71-6.99-6.78-6.99h-21.02v7.66h1.35c4.07 0 5.43 1.7 5.43 5.56v57.37m-16.95 0V33.23c0-4.54-2.72-6.91-7.46-6.91h-21.02v7.79h1.35c4.07 0 6.11 1.7 6.11 5.36v81.1m-16.96 0V33.23c0-4.54-2.71-6.91-7.46-6.91H86.79v7.79h1.36c4.07 0 6.1 1.7 6.1 5.36v81.1m-40.68-37.9h-21.7l11.53-37.5zm-31.87 37.9l6.78-22.85h27.8l6.78 22.85h23.06L61.7 33.84c-1.35-5.69-4.06-7.52-10.17-7.52h-33.9v7.79h2.71c4.07 0 6.1 1.29 6.1 4.41 0 1.97 0 3.26-2.03 7.94L0 120.57"/></svg>