<svg xmlns="http://www.w3.org/2000/svg" viewBox="0 0 449.6 155.2"><path d="M234.5 55c-5.5 0-13.2.9-17.9 2.6v41.3c3.9.8 11.2 1.3 16.3 1.3 17.3 0 24-6.8 24-22.9 0-14-8.5-22.3-22.4-22.3m-8.2 8.4c1.6-.3 4.7-.7 7.8-.7 7 0 12.5 3.9 12.5 14.6 0 10.3-2.7 15.2-13.4 15.2-3.5 0-6.9-.5-6.9-.5V63.4zm135.9 35.2s6 1.6 14.4 1.6c8 0 18-2.7 18-13.5 0-7-5.2-10.1-13.7-13.1-4.6-1.7-8.4-3.2-8.4-6.4 0-1.5 1.1-4.4 6.9-4.4 5.5 0 11.1 2.5 11.1 2.5l2.4-7.2c-1.6-.8-7-3.1-14.4-3.1-8 0-15.8 4.3-15.8 12.9 0 8.8 8 11.5 14.3 13.6 4.2 1.4 7.8 2.9 7.8 5.7 0 2.8-1.5 5.2-8.7 5.2-5.9 0-12.2-1.3-12.2-1.3l-1.7 7.5zM341 88.5c-2.4 1.1-7.4 3-12 3-6.6 0-7.7-3-7.7-9.9V55.4h-1.5c-2.2 0-7.1.4-8.3.6v26.9c0 11.7 2.9 17.3 14.8 17.3 9.1 0 14.5-3.5 14.8-3.5.2 0 3.3 1.9 9.6 1.9V56c-.7-.1-5.4-.6-7.8-.6H341v33.1zM187.1 55c-8.7 0-15.5 2.1-18.1 3.5l2.1 7.2s6.6-2.4 13.2-2.4c5.5 0 8.4 1.6 8.4 7.1v3.2h-8.4c-14.4 0-18.7 6.6-18.7 13.8 0 9.7 7.5 12.8 14.4 12.8 8 0 12.6-3.4 13.2-3.4.4 0 2 1.8 9.3 1.8V67.9c0-9.3-5.7-12.9-15.4-12.9m5.8 35.1c-2.1.8-7.1 2.4-10.8 2.4-4.1 0-7.1-1.4-7.1-5.8 0-3.8 2.1-6 7.6-6.2l10.3-.3v9.9zM76.4 55c-8.6 0-15.4 2.1-18 3.5l2 7.2s6.7-2.4 13.2-2.4c5.6 0 8.5 1.6 8.5 7.1v3.2h-8.5C59.2 73.6 55 80.2 55 87.4c0 9.7 7.5 12.8 14.3 12.8 8 0 12.6-3.4 13.2-3.4.4 0 2.1 1.8 9.4 1.8V67.9c0-9.3-5.8-12.9-15.5-12.9m5.8 35.1c-2.1.8-7.1 2.4-10.8 2.4-4 0-7-1.4-7-5.8 0-3.8 2-6 7.6-6.2l10.2-.3v9.9zm48.7-9.1c-.3.6-.6 1.8-.8 2.5-.2-.7-.5-1.9-.7-2.5l-8.6-21.9c-1.4-3.7-3.7-4.1-7.8-4.1-1.5 0-4.4.2-4.4.2l-4.4 44.3h9.7l2.2-29.7 9.2 22.5c.7 1.8 2.1 2.5 4.8 2.5 2.8 0 4.2-.7 4.9-2.5l9.2-22.5 2.1 29.7h9.7l-4.4-44.3s-2.9-.2-4.4-.2c-4.1 0-6.3.4-7.8 4.1L130.9 81zm137.6 17.1s7.5 2.1 17 2.1c10.2 0 14.9-1.2 14.9-1.2v-7.5s-5.1 1-12.2 1c-6.2 0-10-.8-10-.8V81h19.2v-7.5h-19.2V63.3s3.7-.6 9.4-.6c6.3 0 12 1 12 1v-7.6s-5-1.1-13.2-1.1c-10.8 0-17.9 1.9-17.9 1.9v41.2z"/></svg>