<svg xmlns="http://www.w3.org/2000/svg" viewBox="0 0 400.36 159.33"><path d="M331.91 155.29c-3.71 0-6.54-1.37-8.48-4.1-1.95-2.74-2.92-6.09-2.92-10.03 0-4.09 1.03-7.5 3.08-10.21 1.79-2.37 4.15-3.71 7.08-4.01.42 0 .85-.1 1.29-.1 2.93 0 5.28.88 7.04 2.63 1.77 1.76 2.86 4.02 3.29 6.8l-3.77.72c-.71-4.45-2.86-6.67-6.44-6.67-2.3 0-4.08.98-5.32 2.94-1.24 1.97-1.86 4.51-1.86 7.63 0 3.44.62 6.12 1.85 8.03 1.23 1.9 2.96 2.86 5.2 2.86 3.03 0 5.08-1.72 6.16-5.13.16-.49.3-1.01.41-1.57l3.77.67c-.53 2.97-1.71 5.3-3.54 6.98-1.83 1.68-4.11 2.52-6.84 2.52zm-104.7 0c-6.38 0-10.32-2.57-11.83-7.72l4-.83c.89 3.39 3.7 5.08 8.42 5.08 1.74 0 3.22-.39 4.43-1.17 1.21-.78 1.81-1.88 1.81-3.3 0-2.11-1.54-3.45-4.61-4.01l-5.67-1.08c-2.23-.43-3.99-1.26-5.3-2.51-1.32-1.24-1.97-2.88-1.97-4.93 0-2.25.89-4.14 2.68-5.66 1.57-1.33 3.62-2.08 6.14-2.24h1.11c5.83 0 9.44 2.28 10.8 6.85l-3.83.82c-1.1-2.79-3.36-4.19-6.78-4.19-1.71 0-3.11.35-4.2 1.05-1.09.7-1.63 1.67-1.63 2.93 0 1.98 1.39 3.22 4.18 3.73l5.24.97c5.49.99 8.23 3.66 8.23 7.98 0 2.47-1.02 4.47-3.07 5.99-2.04 1.52-4.76 2.28-8.15 2.28zm157.28 0c-6.38 0-10.32-2.57-11.83-7.72l4-.83c.89 3.39 3.69 5.08 8.42 5.08 1.74 0 3.22-.39 4.43-1.17 1.21-.78 1.81-1.88 1.81-3.3 0-2.11-1.54-3.45-4.61-4.01l-5.67-1.08c-2.23-.43-3.99-1.26-5.31-2.51-1.31-1.24-1.96-2.88-1.96-4.93 0-2.25.89-4.14 2.69-5.66 1.57-1.33 3.61-2.08 6.13-2.24h1.11c5.83 0 9.44 2.28 10.8 6.85l-3.83.82c-1.1-2.79-3.36-4.19-6.78-4.19-1.71 0-3.11.35-4.2 1.05-1.09.7-1.63 1.67-1.63 2.93 0 1.98 1.39 3.22 4.18 3.73l5.24.97c5.49.99 8.23 3.66 8.23 7.98 0 2.47-1.02 4.47-3.07 5.99-2.04 1.52-4.76 2.28-8.15 2.28zm-190.86 0c-3.65 0-6.45-1.74-8.4-5.2l-1.5 4.45h-2.01V118.2h4.19v13.91c1.91-3.49 4.55-5.23 7.92-5.23 3.08 0 5.66 1.22 7.75 3.66 2.08 2.43 3.12 5.97 3.12 10.61 0 4-1.03 7.36-3.07 10.07-2.05 2.71-4.72 4.07-8 4.07zm-29.29 0c-3.68 0-6.65-1.3-8.92-3.88-2.27-2.59-3.4-5.98-3.4-10.18 0-4.29 1.18-7.75 3.54-10.39 2.35-2.64 5.32-3.96 8.88-3.96 3.52 0 6.34 1.21 8.48 3.64 2.14 2.44 3.23 6.08 3.28 10.92h-19.53c0 4.07.85 6.82 2.55 8.24 1.7 1.42 3.5 2.13 5.4 2.13 2.99 0 5.21-1.36 6.66-4.06.21-.39.4-.8.57-1.24l3.9.8c-.71 2.3-2.1 4.21-4.15 5.72-2.06 1.5-4.48 2.26-7.26 2.26zm88.88 0c-3.68 0-6.65-1.3-8.92-3.88-2.27-2.59-3.4-5.98-3.4-10.18 0-4.29 1.18-7.75 3.54-10.39 2.07-2.31 4.59-3.61 7.57-3.9.43 0 .86-.1 1.31-.1 3.51 0 6.34 1.21 8.48 3.64 2.14 2.44 3.23 6.08 3.28 10.92h-19.53c0 4.07.85 6.82 2.55 8.24 1.7 1.42 3.5 2.13 5.4 2.13 2.99 0 5.21-1.36 6.66-4.06.2-.39.39-.8.57-1.24l3.9.8c-.71 2.3-2.09 4.21-4.15 5.72-2.06 1.5-4.48 2.26-7.26 2.26zm105.21 0c-3.68 0-6.65-1.3-8.92-3.88-2.27-2.59-3.4-5.98-3.4-10.18 0-4.29 1.18-7.75 3.54-10.39 2.06-2.31 4.59-3.61 7.57-3.9.43 0 .87-.1 1.31-.1 3.51 0 6.34 1.21 8.48 3.64 2.14 2.44 3.23 6.08 3.28 10.92h-19.53c0 4.07.85 6.82 2.55 8.24 1.7 1.42 3.5 2.13 5.4 2.13 2.99 0 5.21-1.36 6.66-4.06.21-.39.4-.8.57-1.24l3.9.8c-.71 2.3-2.09 4.21-4.15 5.72-2.06 1.5-4.48 2.26-7.26 2.26zm-234.12-.75l-8.06-26.91h4.17l5.86 20.06 5.59-20.06h3.07l6.07 20.12 6.03-20.12h3.38l-7.75 26.91h-3.37l-6.03-19.99-5.53 19.99h-3.43zm170.92 0l-9.6-26.91h4.64l7.47 21.88 7.41-21.88h3.72l-9.29 26.91h-4.35zm-25.63 0v-26.91h3.67v6.27c1.29-2.94 2.6-4.84 3.9-5.71.97-.65 1.97-1.06 2.99-1.23.34 0 .68-.1 1.02-.1.42 0 .97 0 1.65.1v4h-.85c-2.31 0-4.22.85-5.75 2.56-1.52 1.72-2.33 3.97-2.44 6.75v14.25h-4.19zm42.82 0v-26.91h4.19v26.91h-4.19zm-119.22-2.66c2.13 0 3.85-.93 5.15-2.78 1.31-1.84 1.96-4.38 1.96-7.59 0-3.47-.63-6.2-1.89-8.18-1.26-1.98-3.01-2.97-5.24-2.97-1.76 0-3.34.7-4.75 2.11-1.42 1.42-2.25 3.24-2.52 5.47v6.05c.19 2.76 1.04 4.77 2.54 6.02 1.5 1.24 3.09 1.87 4.75 1.87zm-138.694-2.23l-23.065-8.27v-33.81l23.066 7.86v34.22zm4.23 0v-34.22l23.07-7.86v33.81l-23.07 8.27zm98.124-11.33h14.76c0-1.51-.28-2.85-.75-4.02-.46-1.17-1.24-2.17-2.34-3-1.09-.82-2.41-1.24-3.96-1.24-2.07 0-3.83.75-5.27 2.24-1.45 1.49-2.26 3.5-2.44 6.02zm88.88 0h14.76c0-1.51-.28-2.85-.74-4.02-.47-1.17-1.25-2.17-2.34-3-1.1-.82-2.43-1.24-3.97-1.24-2.07 0-3.83.75-5.28 2.24-1.44 1.49-2.25 3.5-2.43 6.02zm105.21 0h14.76c0-1.51-.28-2.85-.74-4.02-.47-1.17-1.25-2.17-2.34-3-1.1-.82-2.42-1.24-3.97-1.24-2.07 0-3.83.75-5.27 2.24-1.45 1.49-2.26 3.5-2.44 6.02zm-38.73-15.47v-4.65h4.49v4.65h-4.49zM57.156 112.8l-23.344-7.76 23.344-6.575 21.65 6.985-21.65 7.35zm274.544-1.37c-12.74 0-19.68-11.23-19.68-25.235 0-14.09 7.02-25.04 19.68-25.04 12.98 0 20 11.24 20 25.52 0 13.805-7.75 24.755-20 24.755zm-203.01-.32c-7.42 0-13.2-4.58-13.2-13.745 0-7.16 3.88-12.02 9.4-14.41 4.79-2.1 11.47-2.48 16.58-3.05v-1.15c0-2.1.17-4.58-1.07-6.39-1.07-1.62-3.14-2.29-4.95-2.29-3.36 0-6.35 1.72-7.08 5.29-.16.79-.74 1.58-1.54 1.62l-8.54-.92c-.72-.17-1.53-.74-1.32-1.85 1.97-10.36 11.33-13.49 19.72-13.49 4.29 0 9.89 1.14 13.28 4.39 4.28 4 3.87 9.35 3.87 15.17v13.73c0 4.13 1.72 5.95 3.33 8.175.56.81.69 1.76 0 2.34-1.8 1.51-5 4.29-6.76 5.86h-.1c-.58.52-1.43.56-2.08.21-2.93-2.44-3.46-3.56-5.06-5.88-4.84 4.93-8.26 6.41-14.53 6.41zm114.57 0c-7.42 0-13.2-4.58-13.2-13.745 0-7.16 3.88-12.02 9.41-14.41 4.78-2.1 11.46-2.48 16.57-3.05v-1.15c0-2.1.17-4.58-1.07-6.39-1.07-1.62-3.13-2.29-4.95-2.29-3.36 0-6.35 1.72-7.08 5.29-.16.79-.74 1.58-1.54 1.62l-8.54-.92c-.72-.17-1.52-.74-1.32-1.85 1.97-10.36 11.33-13.49 19.72-13.49 4.29 0 9.9 1.14 13.28 4.39 4.29 4 3.87 9.35 3.87 15.17v13.73c0 4.13 1.72 5.95 3.33 8.175.56.81.69 1.76 0 2.34-1.8 1.51-5 4.29-6.76 5.86h-.1c-.58.52-1.43.56-2.08.21-2.93-2.44-3.46-3.56-5.06-5.88-4.84 4.93-8.26 6.41-14.53 6.41zm-77.64-.63c-.83-.1-1.5-.69-1.57-1.49V63.735c0-.9.76-1.63 1.7-1.63h8.21c.86 0 1.55.7 1.6 1.52v5.91h.17c2.14-5.71 6.17-8.38 11.6-8.38 5.51 0 8.97 2.67 11.44 8.38 2.14-5.71 6.99-8.38 12.18-8.38 3.7 0 7.73 1.53 10.2 4.95 2.8 3.81 2.22 9.33 2.22 14.19v28.555c0 .91-.76 1.63-1.7 1.63h-8.8c-.89-.1-1.59-.76-1.59-1.63V84.865c0-1.91.17-6.67-.24-8.48-.66-3.04-2.64-3.9-5.19-3.9-2.14 0-4.36 1.43-5.26 3.71-.91 2.29-.83 6.1-.83 8.67v23.985c0 .91-.76 1.63-1.7 1.63h-8.8c-.89-.1-1.59-.76-1.59-1.63V84.865c0-5.05.83-12.48-5.43-12.48-6.34 0-6.09 7.24-6.09 12.48v23.985c0 .91-.76 1.63-1.7 1.63h-8.82zm196.11 0c-.89-.1-1.58-.76-1.58-1.63V63.585c.1-.83.8-1.48 1.69-1.48h8.18c.77 0 1.4.57 1.56 1.27v6.92h.17c2.47-6.19 5.92-9.14 12.01-9.14 3.95 0 7.82 1.43 10.29 5.33 2.3 3.62 2.3 9.72 2.3 14.1v28.475c-.1.8-.82 1.42-1.69 1.42h-8.84c-.81 0-1.47-.65-1.57-1.43V84.485c0-4.95.58-12.19-5.51-12.19-2.14 0-4.12 1.43-5.1 3.62-1.24 2.76-1.4 5.52-1.4 8.57v24.365c0 .91-.78 1.63-1.72 1.63h-8.78zm-83.56-1.13c-.88.14-1.68-.8-1.68-1.63v-6.55c0-1.05 0-2.855 1.08-4.455l17.39-24.95h-15.15c-.92 0-1.66-.66-1.67-1.63v-6.47c0-.98.75-1.63 1.64-1.63h28.98c.92 0 1.67.67 1.67 1.63v5.54c0 .93-.79 2.15-2.18 4.07l-15.01 21.43c5.57-.13 11.46.71 16.52 3.55 1.14.64 1.45 1.59 1.54 2.535v6.89c0 .96-1.04 2.05-2.13 1.48-8.92-4.67-20.76-5.18-30.62.1-.13.1-.25.11-.38.13zm-251.124-6.93L3.982 94.145v-33.81l23.064 7.86v34.225zm4.23 0V68.195l23.07-7.86v33.81l-23.07 8.275zm49.59 0l-23.07-8.275v-33.81l23.07 7.86v34.225zm4.23 0V68.195l23.074-7.86v33.81l-23.074 8.275zm48.624-.18c2.47 0 4.7-1.53 6.1-4.015 1.75-3.06 1.65-5.92 1.65-9.35v-1.91c-6.38 0-13.11 1.36-13.11 8.87 0 3.82 1.98 6.405 5.36 6.405zm114.57 0c2.47 0 4.7-1.53 6.1-4.015 1.75-3.06 1.65-5.92 1.65-9.35v-1.91c-6.38 0-13.11 1.36-13.11 8.87 0 3.82 1.98 6.405 5.36 6.405zm83.43-.14c6.77 0 7.1-8.355 7.1-14.165 0-3.81-.16-8.38-1.31-12-.98-3.14-2.94-4.38-5.71-4.38-6.45 0-6.86 8.85-6.86 14.38 0 5.52-.1 16.165 6.78 16.165zM29.696 65.565l-23.343-7.76 23.343-6.57 21.65 6.98-21.65 7.35zm53.82 0l-23.34-7.76 23.34-6.57 21.654 6.98-21.654 7.35zm24.814-10.38l-23.064-8.27v-33.81l23.064 7.86v34.22zm4.23 0v-34.22l23.07-7.86v33.81l-23.07 8.27zm49.59 0l-23.07-8.27v-33.81l23.07 7.86v34.22zm4.23 0v-34.22l23.07-7.86v33.81l-23.07 8.27zm-55.4-36.85l-23.344-7.76L110.98 4l21.65 6.985-21.65 7.35zm53.82 0l-23.34-7.76L164.8 4l21.65 6.985-21.65 7.35z"/></svg>