<svg xmlns="http://www.w3.org/2000/svg" viewBox="0 0 492.6 198.7"><path d="M393.8 63.75v-19.4c-.1-3.3-1.1-4.9-4.5-4.9h-3.5v6h2.7v26.2h1.6c3.4 0 3.7-2.6 3.7-2.6s.3 2.6 3.5 2.6h25c4.7 0 4.8-5.2 4.8-5.2h-31c-1.4 0-2.3-1.2-2.3-2.7m28.7-25.6l2 22.2h3.6l-2.2-22.5-3.4.3m-18-4.5l-4.3 5.4v5h-3.9v4.9h3.9v9.1c0 .7-.4 1.1-1.2 1h-2.7v5.4h3.7c3 0 4.5-1.5 4.5-4.5v-11h2.9v-4.9h-2.9v-2.7l5-7.3c1.7-2.7.6-5.4-3.2-5.4h-10.4v5h8.6m-42.5 14h-22.3l3-9.4h-5l-2.8 7.6c-1.2 4.2.3 6.9 4 6.9h25.4c2.3 0 3.4 1.1 3.4 3.2v9.4c0 .7-.3 1.1-1.1 1.1h-23.5v5.2H367c4 0 5.9-1.3 6-5.2v-12.5c0-4.2-1.9-6.3-5.8-6.3l3.7-13.7c.8-3.1-.4-5.3-4-5.3h-33.4v5.3h32.2l-3.7 13.7m27.1-13.2c.8 0 1.5-.3 2.2-1 .6-.6.9-1.3.9-2.2 0-.8-.3-1.5-.9-2.1-.7-.6-1.4-1-2.2-1-.9 0-1.6.4-2.2 1-.7.6-1 1.3-1 2.1 0 .9.3 1.6 1 2.2.6.7 1.3 1 2.2 1m23.2 25.9l1.7-22-3.3-.1-2.3 22.1h3.9m8.4-.2v-31.4h-5.3v35.8h1.2c2.7 0 4.1-1.5 4.1-4.4m-121.8 6.3h-5.2v-32.5h2.4c2.6 0 2.8.4 2.8 3.1v29.4zm18.9 2.8v-2.8h-13.7v-32.5h13.2v-5.3h-41.6v5.3h8.6c3.4 0 4.2.4 4.2 3.1v29.4h-13.7v5.2h39.9c2.1 0 3.1-.8 3.1-2.4m-36.1-29.4h-5.2l2.4 21.6h5.2l-2.4-21.6m29.6 21.6c1.6 0 2.7-.9 3.1-2.6l2.3-19h-5.3l-3 21.6h2.9m51.2-2.7v-1.6H331v5.2h26.5c3.3 0 5-1.2 5-3.6m65.3 35.26l-5.5 11.69c-.7 1.6-2.6 2.3-4.2 1.6 0 0-10.7-4.7-16.5-4.7-6 0-10 3.2-10 8.1 0 4.2 2.6 6.4 9.8 8.4l6.6 1.7c1.6.5 4.3 1.4 5.9 2.1 0 0 10 4.4 12.8 8.1 2.9 3.9 4.3 8.6 4.3 14.1 0 17.1-13.5 28.8-33.7 28.8-9.7 0-20.4-3.3-32-9.6l6.1-13c.8-1.5 2.6-2.1 4.1-1.3 0 0 14.5 7.9 23.5 7.9 5.8 0 10.4-4.1 10.4-9.4 0-5.7-3.8-8.6-12.1-10.2l-6.2-1.2c-1.7-.3-4.4-1.1-6-1.8 0 0-8.8-3.6-11.6-7.2-2.7-3.5-4.4-9.5-4.4-14.9 0-16.12 12.1-26.95 30.5-26.95 12.6 0 21 4.04 28.2 7.76M279.1 171.5c-1.7 0-3.5-1.4-4-3.1l-20.8-74.59c-.5-1.66.5-3.18 2.2-3.37l15.3-1.73c1.7-.2 3.4 1.02 3.7 2.7l5.5 25.29c.3 1.7.9 4.5 1.3 6.2 0 0 1.3 6.5 2.1 11.3.8 4.8 1.4 8.5 1.9 11.2.3-2.5.9-6.5 2-11.9 1-5.5 2.3-11.1 4-16.8l6.8-24.31c.5-1.65 2.3-3.01 4-3.01h14c1.7 0 3.5 1.37 3.9 3.04l5.1 20.78c.4 1.7 1.1 4.4 1.5 6.1 0 0 1.9 8.1 3 13.9 1.2 5.8 2 9.9 2.4 12.2 0-.4.2-1.7.5-4s.6-4.3.9-6c.2-1.7.7-4.2 1.2-7.5.6-3.2 1.2-6.4 1.8-9.4l5.7-26.06c.4-1.68 2.1-3.06 3.8-3.06h16c1.7 0 2.7 1.35 2.2 3.01l-21.8 76.11c-.4 1.6-2.2 3-3.9 3h-13.6c-1.7 0-3.5-1.4-3.9-3.1l-5.8-22.2c-.5-1.7-1.2-4.4-1.6-6.1 0 0-2.7-11.3-3.9-16.9-.4-2.4-.8-5.2-1.3-8.3-.4 3.2-1 6.7-1.9 10.6-.8 3.7-1.8 7.8-2.8 12.2-1.1 4.5-2.1 8.3-2.9 11.5-.8 3.1-1.3 4.9-1.4 5.4l-3.4 13.8c-.5 1.7-2.2 3.1-3.9 3.1h-13.9m-61.2-86.58c-14.5 0-30.7 5.42-34.1 23.38-.4 1.9 1 2.9 2.2 3.2l14.8 1.6c1.4-.1 2.4-1.5 2.7-2.8 1.3-6.2 6.4-9.2 12.2-9.2 3.2 0 6.8 1.2 8.6 4 2.2 3.1 1.9 7.4 1.9 11v2c-8.9 1-20.4 1.7-28.7 5.3-9.6 4.1-16.3 12.6-16.3 25 0 15.8 10 23.8 22.8 23.8 10.9 0 16.8-2.6 25.2-11.1 2.8 4 3.7 5.9 8.8 10.1 1.1.6 2.6.6 3.6-.3 3-2.7 8.6-7.5 11.7-10.1 1.2-1 1-2.7.1-4.1-2.8-3.8-5.8-7-5.8-14.1v-23.8c0-10.1.7-19.34-6.7-26.3-5.9-5.61-15.6-7.58-23-7.58zm8.3 45.48v3.3c0 5.9.1 10.9-2.9 16.2-2.4 4.3-6.3 6.9-10.6 6.9-5.8 0-9.2-4.5-9.2-11.1 0-13 11.6-15.3 22.7-15.3zm-87.8-2.8l-21.5-6.5-21.58 6.5 21.58 7 21.5-7m-18.8 11.2l23.4-7.4c0 6-.1 31-.1 33.1-1.8.7-17.8 5.7-23.3 7.8v-33.5m-5.4 0l-23.44-7.4c0 6 .1 31 .1 33.1 1.78.7 17.74 5.6 23.24 7.8l.1-33.5m-4.9-59.23l-21.55-6.52-21.57 6.51 21.6 7 21.52-6.99M90.42 90.79l23.38-7.48v33.09c-1.8.7-17.81 5.7-23.35 7.9V90.79m-5.41 0L61.6 83.3c0 6.02.1 31 .1 33.1 1.78.7 17.76 5.7 23.3 7.9V90.77m82.6-11.2l-21.5-6.52-21.6 6.51 21.6 7 21.5-6.99m-18.8 11.22l23.4-7.48c0 6.02-.1 31.09-.1 33.09-1.8.7-17.7 5.7-23.3 7.9V90.79m-5.4 0L120 83.3v33.1c1.8.7 17.8 5.7 23.3 7.9l.1-33.53m53.1-60.22l-21.5-5.7-21.6 5.7 21.6 7 21.5-7m-18.8 11.2l23.4-7.4c-.1 6-.1 31-.1 33.1-1.8.7-17.8 5.7-23.3 7.84V41.75m-5.4 0l-23.5-7.5c.1 6.1.1 31.9.1 34 1.8.7 17.8 5.69 23.3 7.88l.1-34.38m81.7-11.2l-21.5-5.7-21.6 5.7 21.6 7 21.5-7m-18.8 11.2l23.4-7.4c-.1 6-.1 31-.1 33.1-1.8.7-17.8 5.7-23.3 7.84V41.75m-5.4 0l-23.5-7.5c.1 6.1.1 31.1.1 33.2 1.8.7 17.8 5.6 23.3 7.83l.1-33.53"/></svg>