<svg xmlns="http://www.w3.org/2000/svg" viewBox="0 0 343.07 89.425"><path d="M170.54 40.2h-.12l-3.59 10.137h7.26zm6.43 18.137l-1.77-4.987h-9.38l-1.76 4.987h-4.02l8.42-22.175h4.47l8.29 22.175zM211 35.262h3.92v3.713H211zm0 6.175h3.83v16.9h-3.84zm-28.31-6.175h3.93v3.713h-3.93zm0 6.175h3.84v16.9h-3.84zm24.08-6.15h-3.83v23.05h3.83zM194.56 50.1v8.237h-3.86v-12.55c0-1.212-.13-3.512-.18-4.337h3.1c.33 0 .44.137.44.462v2.1h.12c.3-.737 1.39-2.925 4.57-2.925 1.07 0 1.86.35 1.99.4 0 .725-.12 2.325-.12 2.75 0 .275-.15.363-.28.363-.14 0-.2 0-.26-.125-.24-.125-.8-.263-1.58-.263-2.05 0-3.96 1.475-3.96 5.825m34.91 8.238V47.362c0-2.087-.95-3.35-2.72-3.35-2.36 0-3.92 2.513-3.92 5.888v8.375h-3.84V45.862c0-1.362-.13-3.362-.19-4.475h3.08c.35 0 .45.138.45.45v2.113h.12c.46-.8 1.64-2.925 5.18-2.925 3.63 0 5.67 2.487 5.67 5.287v11.963zm10.62-10.188h7.1c.15-2.725-1.29-4.25-3.44-4.25-2.26 0-3.56 1.638-3.66 4.25m9.46 6.475c.21 0 .28.188.29.375.12.725.14 2.35.12 2.763-.41.137-2.47.9-5.23.9-5.39 0-8.62-2.788-8.62-8.775 0-5.138 2.75-8.8 7.71-8.8 4.87 0 7.19 3.262 7.19 7.3 0 .475 0 1.275-.13 2.35h-10.84c0 2.875 1.85 4.95 5.24 4.95 1.87 0 3.36-.675 3.95-.963.12 0 .18-.125.32-.125m8.99 4.038c4.99 0 7.37-2.05 7.37-5.075 0-2.988-2.12-4.25-4.37-4.988-.64-.212-1.28-.425-1.86-.625-1.54-.5-2.34-1.175-2.34-2.175 0-1.05.96-1.787 2.96-1.787 1.78 0 3.23.725 3.8 1 .13 0 .17.125.32.125.13 0 .28-.125.31-.363 0-.575.12-1.6.12-2.587-.47-.213-2.15-1.075-4.85-1.075-4.12 0-6.66 2.15-6.66 4.975 0 2.75 1.88 4 3.95 4.687.47.163 1.35.45 1.87.625 2.15.713 2.76 1.363 2.76 2.375 0 1.313-1.4 1.963-3.81 1.963-1.97 0-3.33-.725-3.87-.988-.13 0-.18-.125-.34-.125-.27 0-.29.375-.29.438 0 .187-.12 1.937-.12 2.512.45.2 2.41 1.088 5.03 1.088m-226-18.463h-.12l-3.6 10.138h7.25zm6.43 18.138l-1.76-4.988h-9.4l-1.75 4.988H22l8.42-22.188h4.46l8.29 22.188zm62.65-23.075h3.92v3.712h-3.92zm0 6.175h3.84v16.987h-3.84zm-8.23 8.662v8.238h-3.83V45.7c0-1.213-.14-3.513-.19-4.35h3.09c.33 0 .44.15.44.475v2.1h.12c.3-.738 1.39-2.925 4.57-2.925 1.07 0 1.87.35 1.99.4 0 .725-.12 2.325-.12 2.75 0 .275-.15.362-.29.362-.14 0-.2 0-.26-.125-.25-.125-.8-.275-1.58-.275-2.04 0-3.96 1.488-3.96 5.838M65 58.187V47.375c0-1.95-.81-3.45-2.8-3.45-2.23 0-3.53 2.437-3.53 5.875v8.387h-3.83v-10.85c0-1.762-.74-3.412-2.8-3.412-2.26 0-3.54 2.437-3.54 6v8.262h-3.83V45.875c0-1.588-.14-3.825-.19-4.588h3.06c.35 0 .46.125.48.475v2.1h.12c.24-.487 1.5-2.925 5.03-2.925 3.27 0 4.52 2.35 4.83 3.075.3-.637 1.77-3.075 5.07-3.075 3.43 0 5.78 1.85 5.78 5.55v11.7zM75.62 48h7.1c.15-2.725-1.28-4.25-3.44-4.25-2.26 0-3.55 1.637-3.66 4.25m9.46 6.475c.21 0 .27.187.29.375.12.725.13 2.35.12 2.762-.41.138-2.47.9-5.24.9-5.38 0-8.61-2.787-8.61-8.775 0-5.137 2.75-8.8 7.72-8.8 4.86 0 7.18 3.263 7.18 7.3 0 .475 0 1.275-.14 2.338H75.58c0 2.887 1.84 4.962 5.22 4.962 1.88 0 3.37-.675 3.97-.962.12 0 .17-.125.32-.125m48.09-4.863h-.65c-4.81 0-5.76 1.675-5.76 3.375 0 1.388.91 2.713 2.71 2.713 2.4 0 3.7-2.313 3.7-4.738zm.93 8.575c-.31 0-.57-.125-.61-.55 0-.55-.12-1.625-.12-1.625-.23.313-1.63 2.5-5.14 2.5-3.36 0-5.29-2.6-5.29-5.437 0-3.95 3.83-5.925 9.52-5.925h.75V46.5c0-1.763-1.27-2.713-3.61-2.713-2.12 0-3.88.738-4.56 1.088 0 0-.17.125-.28.125-.19 0-.29-.125-.3-.313 0-.637-.13-1.862-.13-2.637.7-.263 2.99-1.113 5.51-1.113 5.03 0 7.18 2.325 7.18 6.05v6.588c0 2.4.22 3.975.31 4.612zm-13.25-3.712c.12 0 .25 0 .27.362.12.8.12 2.125.12 2.538-.76.375-2.42 1.137-4.46 1.137-5.11 0-8.25-2.975-8.25-8.787 0-5.438 2.79-8.788 8.25-8.788 1.82 0 3.49.638 4.46 1.138 0 .6-.12 1.962-.12 2.537 0 .238-.13.35-.27.35-.16 0-.21 0-.31-.125-1.22-.6-2.38-.9-3.43-.9-3.25 0-4.6 2.138-4.6 5.738 0 3.212 1.07 5.725 4.6 5.725 1.35 0 2.57-.475 3.33-.838.22-.125.24-.137.41-.137m29.97 3.712V47.2c0-2.088-.95-3.35-2.72-3.35-2.37 0-3.94 2.5-3.94 5.887v8.375h-3.83V45.7c0-1.363-.12-3.363-.18-4.488h3.07c.35 0 .45.15.45.463v2.112h.13c.46-.8 1.65-2.925 5.17-2.925 3.65 0 5.69 2.488 5.69 5.288v11.962zm168.62 7.263l.47 1.637.46-1.637h.39l.3 2.05h-.3l-.23-1.675-.47 1.675h-.34l-.46-1.663-.21 1.663h-.29l.3-2.05zm-.96 0v.262h-.61v1.788h-.3v-1.788h-.6v-.262zM269.18 22l9.49 15.537c1.36 2.063 2.46 2.65 5.96 2.65h8.55c-7.9-9.862-11.64-14.912-12.86-16.037-1.09-1.063-2.18-2.15-4.84-2.15zm26.34 19c-3.9 0-7.69.387-9.58 1.287-1.61.863-2.04 1.4-2.04 2.388 0 .9.17 1.662.73 2.55l4.69 7.75s-.33-.913-.33-1.95c0-4.913 5.35-8.15 12.04-8.15 2.1 0 3 .362 3 .362-.65-2.2-2.17-4.237-8.51-4.237zm2.48 5.15c-1.92.362-3.62 1.062-4.89 2.075-1.93 1.512-3 3.65-2.79 6.675 0 .3.14 1.15.29 1.837.12.275.12.288.12.5l3.8 6.325c1.61 2.588 4.27 3.775 7.6 3.775h13.4L299.83 48.3z"/></svg>