<svg xmlns="http://www.w3.org/2000/svg" viewBox="0 0 581.4 155.2"><path d="M449.7 50.22c2.3-2.39 6-1.16 8.7-.47-.1 26.14.1 52.25 0 78.45-.3 3.4-4.9 1.6-7.2 2.2-.4-.4-1.2-1-1.7-1.4.2-26.2-.2-52.52.2-78.78zm-66.9-2.68c10.2-1.8 21.2-.62 30.3 4.7 11 6.19 18.9 17.39 21.2 29.8 1.1 8.15.7 16.74-2.6 24.36-5.9 14.2-19.8 24.9-35.2 26.5-10.2 1.1-21-1.5-29.4-7.5-9.3-6.3-15.7-16.4-17.9-27.35-2.3-10.44.1-21.55 5.5-30.68 6.1-10.07 16.5-17.56 28.1-19.83m1.1 8.09c-17.2 3.64-29.8 21.61-27 38.98 1.3 8.89 6 17.29 13.2 22.79 8.2 7.1 20.1 9 30.4 6.5 6.4-2.2 12.6-5.4 17.2-10.6 6.1-6.7 9.5-15.97 9.1-25.11-.6-12-7.7-23.5-18.4-29.12-7.4-4.29-16.3-5.11-24.5-3.44zm-72.7 27.44c.2-19.64 18.3-37.47 38.1-36.22.1 2.35.5 4.75-.1 7.07-1.9 1.49-4.5.93-6.7 1.53-8.9 1.79-16.6 8.14-20.5 16.33-3.9 7.49-2.9 16.2-3 24.35-.2 11.57.2 23.07-.2 34.67-2.2 1.7-5.1 1-7.5.5-.1-16.1 0-32.17-.1-48.23zM138.6 55.31c13.5-11.44 35.2-11.46 48.6 0 8.9 7.17 14.3 18.42 14.2 29.83v46.06c-2.6.8-5.4.8-8 0-.1-16 .1-32.09-.1-48.13-.8-15.62-15.3-28.96-30.9-28.22-15.7-.16-29.5 13.65-29.9 29.23-.2 15.72-.1 31.42-.1 47.22-2.6.6-5.3.7-8-.1 0-15 .1-30.1 0-45.12-.2-11.7 5.1-23.41 14.2-30.77zm-81-7.99c9.25-1.31 19.04-.46 27.4 3.96 6.41 3.09 11.64 8.05 16.1 13.5.2-5.64-.1-11.28.2-16.91 2.5-.1 4.9-.1 7.3 0 .4 27.77.2 55.53.1 83.33-2.5.7-5 .8-7.5.1v-16.5c-6.89 8.3-15.91 15.6-26.76 17.5-9.53 2-19.61.4-28.34-3.8-12.56-6.1-21.68-18.6-23.72-32.37-.94-8.02-.22-16.37 3.28-23.73 5.58-13.01 18.01-22.7 31.94-25.08m.18 8.21C45.38 58.16 34.83 68 31.41 80.22c-4.3 14.17 1.82 30.58 14.17 38.68 8.29 5.7 19.14 7.4 28.87 5 11.13-3.5 20.77-12.3 24.14-23.6 4.81-13.88-.93-30.19-12.71-38.66-7.87-6.1-18.43-8.04-28.1-6.11zM452.8 23.49c4.3-1.33 8.6 4.22 6 8-1.7 3.17-6.6 3.87-8.8.9-2.8-2.84-1.1-8.12 2.8-8.9zm98.9-.29c2.1-2.07 5.2-.95 7.7-.35V131.3c-2.6.8-5.3.7-7.9-.4 0-5.3 0-10.7-.1-16.1-7.4 10.1-19.2 17.8-31.9 18.3-8.5.5-17-1.7-24.5-5.5-10.8-6-18.8-16.7-21.2-28.84-2.2-10.75-.3-22.38 5.6-31.68 6.1-10.02 16.5-17.38 28.1-19.6 11.2-1.92 23.5-.16 32.9 6.56 4.3 2.83 7.8 6.65 11.1 10.62.2-13.82-.3-27.66.2-41.46m-43.8 32.52c-9.5 2.37-18 8.72-22.5 17.37-4.2 7.12-5.1 15.75-3.6 23.76 2.2 11.65 11 21.65 22 25.75 7.2 2.5 15.1 3.2 22.5 1.1 7.4-2.8 14.3-7.4 18.7-14 5.6-7.9 7.6-18.25 5.3-27.65-2.3-10.52-9.9-19.6-19.6-24.13-7.1-3.32-15.3-3.82-22.8-2.2zM289.4 22.69c2.5-.27 5.6-1.37 7.7.54.4 2.6.2 5.24.2 7.86 0 33.33.1 66.66 0 100.01-2.6.9-5.3.9-7.9.2v-16.6c-6.2 8.3-15.1 14.7-25.2 17.2-12.3 3.1-26.1.5-36.2-7.4-6.7-4.8-11.7-11.8-14.7-19.4-4.6-12.45-3.3-27.07 3.9-38.28 6-9.2 15.3-16.44 26.1-18.89 11.4-2.58 24-1.06 33.8 5.46 4.8 2.97 8.7 7.18 12.3 11.47 0-14.06.1-28.12 0-42.17m-43.6 32.99c-16.9 3.77-29.4 21.38-26.8 38.62 1.5 12 9.8 22.4 20.5 27.8 9 3.5 19.7 4.2 28.5-.5 14.4-5.7 23.3-22.32 20.4-37.52-1.7-10.55-8.5-20.13-18-25.1-7.4-4.22-16.3-5.03-24.6-3.3z"/></svg>