<svg xmlns="http://www.w3.org/2000/svg" viewBox="0 0 438 155"><path d="M78.2 22c-.6 1.78-1 3.62-.8 5.49 0 2.27-.2 4.57.5 6.76.2.54.3 2.46.8 2.08.2-.95 1.5-1.59 1-2.63-.3-1.33-.4-2.68-.7-3.99.9.1 1.5 1.05 2.1 1.65.6 1.31 1.2-.1 1.8-.6.8-.77 1.6-1.55 2.4-2.32-.9 1.96-1.6 4-2.2 6.07 1.3 3.17 1.6 6.61 1.5 10 0 2.54 0 5.07-.4 7.57-.2 1.47-.5 2.91-.6 4.38-1-4.23-1.6-8.52-2.3-12.81-.7 3.46-.3 6.99-.4 10.5.2.67-.1.76.2 1.49-.2 0-.8-1.22-1.4-1.82-2.3-2.91-4.9-5.55-7.4-8.32-2-1.84-4.3-3.48-6.9-4.89 1.4.1 2.7.25 3.9.55-1.8-2.94-3.6-6.4-2.9-9.95.3-1.81 1.5-3.28 2.9-4.41.2.54.1 1.74.3 2.52.6 3.53 2 7.02 4.5 9.62.4.42 1.5 2.34 1 .79-1-3.71-1.3-7.68-.3-11.44.7-2.28 1.8-4.47 3.4-6.29zm-8.9 4.74s.1 0 0 0zm11.6 28.93c.1.13-.1.1 0 0zm-4 6.08c-.6.67.5.17-.9.86-1.2 1.34-2.6 2.72-4 4.03 2.5-1.35 5-2.49 7.4-4.01-.5 1.11-1 2.26-1.6 3.31 1.2-.74 2.5-1.45 3.5-2.51-2.1 3.25-4.2 6.52-6 9.98-1.7 3.42-3.3 6.97-4.2 10.72-.3 1.24-.5 2.5-.8 3.75-1.1-3.5-1.8-7.18-1.2-10.83.1-1.02.4-2.02.8-2.99-3.2 1.9-6.6 3.82-8.7 6.98-1.1 1.42-1.8 3-2.6 4.58-.8-1.79-1.4-3.78-.9-5.74.4-1.62 1.3-3.1 2.3-4.38-2.5 1.13-5.2 1.73-7.9 1.4C56 74.48 60 72.06 64 69.49c2-1.24 4-2.5 6-3.75 1.3-.77 2.5-1.62 3.9-2.27-2.7 1.03-4.9 2.97-7.5 4.24-1.9 1.08-3.8 1.86-5.9 2.07-3.6.78-6.8 2.36-9.7 4.56-1.2.92-2.3 2.01-3.2 3.21.8-3.94 3.6-7.26 7-9.28 2-1.36 4.4-2.19 6.8-2.96-2.6-.48-5-1.64-7-3.27 4.4.95 9.1 1.27 13.7.98 2.9-.14 5.8-.58 8.5-1.27-.8.22-1.8.85-.4.4.2-.14.5-.27.7-.4zm-22.5.29c0 .1 0-.11 0 0zM52.1 76.9c-.1.1-.1 0 0 0zm29.2-13.47c.1-.27.4-.2 0 0zM22 30.23c15.8 7.12 31.6 14.26 47.4 21.4 81.5 33.75 169.4 47.34 256.9 55.57 22.2 2.9 44.6 4.6 66.8 8.5-93-8.9-188.4-9.4-277.3-41.49-33-9.99-67.4-20.73-93.8-43.98zm84.2 1.96c1.3.15 2.1.43 2.5.69.1.13.2.24.2.38 0 .13 0 .33-.1.56-.4.93-1.9 2.41-3.3 3.83h-.1c-4.5 6.3-7.4 13.65-8.7 21.27-1.2-.14-2.1-.45-2.4-.95-.3-.59-.4-1.46-.2-2.52.2-2.09 1.4-4.71 1.6-6.84 1.1-2.92 2-6.78 3.5-10.04 1.4-3.26 3.5-5.83 7-6.42zm8.3.7c2.3.2 4 1.25 4.4 2.24.2.51.1 1-.3 1.53-.4.55-1.1 1.14-2.4 1.63-.1 0-.1.1-.2.1-6.4 6.11-10.2 14.58-11.6 23.35-2 0-3.4-.34-4.3-.89-1-.59-1.4-1.37-1.6-2.39-.3-2.05.7-5.01 1.9-7.91 2.7-6.71 6.3-14.56 13.1-17.46l.5-.11zm-16.9.34H99c.5 0 .9.1 1 .19.2.11.2.14.3.24 0 .19-.2.81-.7 1.51-.4.72-1.1 1.53-1.6 2.37-.5.78-.9 1.56-1 2.38-2.4 5.47-3.6 11.44-4.7 17.3-.9-.2-1.6-.48-1.9-1.01-.4-.63-.5-1.55-.5-2.6.4-5.39-.1-11.32 2.1-15.96.6-1.41 1.5-2.61 2.6-3.39.8-.59 1.8-.98 3-1.06zm28.3 2.19c1 .11 2 .23 2.7.47.8.24 1.4.58 1.6.83.1.13.1.21.1.29 0 .1-.1.21-.2.38-.3.34-1.1.8-2.4 1.22-.1 0-.1.1-.2.1-7.6 6.61-9.6 16.9-13.2 25.6-2.9.71-5.4-.18-6.7-1.95-1.3-1.82-1.5-4.56.4-7.59 0 0 0-.1.1-.1 1.4-4.12 3.5-8.69 6.4-12.34 2.9-3.65 6.7-6.35 11.4-6.9zm13 3.73c.5.16.9.33 1.1.49.3.12.3.18.3.18s-.1 0-.1.1c-.3.13-.8.29-1.6.44h-.1c-10.3 4.86-15.6 16.04-17.5 26.75-1.8 0-3.1-.26-3.8-.72-.7-.5-.9-1.16-.8-2.11.1-1.89 1.5-4.63 2.4-7.24 1.4-3.5 2.7-7.48 4.6-10.91 2-3.44 4.6-6.27 8.3-7.63 2.5-.62 4.9-.13 7.2.65zm9.5.52c1.8 0 4 .78 4.6 1.5.2.18.3.34.4.46 0 .1 0 .14-.1.26-.2.23-.8.63-2.2.89-.1 0-.1 0-.2.1-10.5 5.63-15.9 16.9-19.6 27.41-2.1 0-3.7-.22-4.9-.76-1.3-.58-2.1-1.41-2.6-2.43-.9-2.06-.3-5.05 1.4-8.28 4.1-9.47 12.4-18.98 23.2-19.06zm9.5 2.98c2.1.1 4.3.7 5.1 1.37.2.17.3.32.3.4 0 .1 0 .15-.1.3-.2.3-1 .79-2.5 1.24-.1 0-.1 0-.2.1-8.8 6.81-11.8 18.2-16.2 27.83-3-.86-6.8-1.37-9.1-2.48-1.2-.58-1.8-1.26-2-2.2 1.943-6.035 6.572-13.996 10.7-18.72 3.8-4.26 8.4-7.41 14-7.83zm8.9 3.09c1-.1 3.7.42 5.6 1.13 1 .36 1.9.8 2.3 1.16.2.17.2.29.2.33 0 0 0 .11-.2.25-10.2 4.45-15 14.76-19.3 24.33-.6 1.16-1.3 2.32-1.8 3.45-2 .1-3.6-.13-4.6-.57-1.1-.47-1.5-1.1-1.7-1.96 1.378-6.642 4.81-14.84 8.4-20.47 2.6-4 6-7.04 11.1-7.61zm12.8 3.76c.4 0 .9.11 1.5.19 1.1.2 2.3.52 3.2.85.5.17.9.35 1.2.52.3.1.3.11.3.17-.3.1-.6.16-1.1.22h-.1c-11.2 3.84-15.7 15.98-20.5 25.51-.7 1.13-1.8 1.64-3 1.73-1.2.1-2.5-.29-3.4-.97-1-.67-1.7-1.63-1.8-2.69-.1-1.07.3-2.31 2.25-5.275 1.95-2.965 4.45-8.085 7.75-12.255 3.3-4.15 7.3-7.32 12.7-7.97.2 0 .5-.11 1 0zm8.7 3.08h1.9c1.4.17 2.4.41 3.1.68.3.13.5.29.7.4.1.12.2.2.2.24 0 0 0 .1-.1.22s-.3.3-.6.48c-.6.37-1.5.78-2.7 1.2-.1 0-.1 0-.2.1-8.7 6.12-15.3 15.08-19 24.87-2.2.13-3.7-.1-4.6-.48-.9-.45-1.2-1.03-1.2-1.9-.1-1.72 1.3-4.48 3-7.15 2.2-4.27 4.8-9.16 8.2-12.86 3.1-3.22 6.6-5.52 11.3-5.76zm11.9 1.82v.47zm-.1.47c1.6.27 2.7.53 3.2.76.1.1.1.1.2.12-.2.16-.7.48-1.5.84-.8.38-1.8.82-2.9 1.35h-.1c-8.4 6.22-12.9 16.1-17.7 25.01-2.1 0-3.7-.11-4.9-.49-1.2-.4-1.9-.99-2.3-1.72-.4-.72-.4-1.63 0-2.77.4-1.15 1.2-2.5 2.4-3.98v-.1c5.1-8.06 11.7-17.1 21.3-19.04.8 0 1.5-.1 2.3-.1zm11.8 4.15c.2.17.3.33.3.37 0 .1 0 .1-.1.16-.2.21-1.1.51-2.8.59h-.1c-10.6 4.2-17.2 14.21-21 24.27-1.9.14-3.3 0-3.9-.39-.3-.2-.4-.42-.5-.7-.1-.28-.1-.64 0-1.06.2-1.7 2-4.29 3.1-6.56 2.2-3.7 4.5-7.87 7.3-11.32s6.2-6.15 10.7-7.01h.4c2.5-.1 4.4.51 6.6 1.65zm3.8 1.72c1.2 0 2.4.12 3.3.3 1 .18 1.7.46 2 .67.2.1.1.14.1.1 0-.1.1-.1-.1.1-.4.21-1.4.51-3.2.74-10.7 3.57-16.9 13.73-20.2 23.82-2.1.15-3.8 0-4.9-.34-1-.39-1.6-.98-1.9-1.75-.5-1.55.4-4.14 2.5-7.09 4.7-8.4 12.5-16.42 22.4-16.55zm18.2 3.88c-12.8 1.25-23.7 11.16-26.7 23.61-2.4.23-4.2.12-5.3-.3-1.1-.45-1.6-1.1-1.8-2-.4-1.81.9-4.78 3-7.81 4.5-7.81 11.6-15.26 20.3-15.26 8.7 0 7.5.61 10.5 1.79zm3.8 1.12c1 0 1.1.1 1.6.13-1.2.35-2.8.76-4.4 1.38-10.3 3.42-14.8 13.97-19.5 22.52-2.1.25-3.6.15-4.4-.24-1-.4-1.4-1-1.6-1.85-.3-1.69.8-4.42 2.5-7.02h.1c5.2-9.07 15.4-14.83 25.7-14.89zm7.8.71c1.7 0 4.2.2 6.3.51 1 .15 2 .33 2.8.54.3.11.3.13.5.2-13.1 3.19-25.3 11.14-31.5 23.48-2.2.2-3.8.1-4.6-.24-.9-.35-1.1-.81-1.1-1.57 0-.73.3-1.77.9-2.93.6-1.17 1.5-2.46 2.3-3.77 5.1-9.06 13.9-16 24.4-16.19zm-160.3 1.1c1 .15 1.6.4 1.8.85.3.52.3 1.34.1 2.31-.5 1.95-1.7 4.37-1.3 6.41-.4 4.12-.4 8.33.8 12.42-2.8-.62-4.6-2.27-5.6-4.56-1.8-6.13 1.3-12.38 4.2-17.39zm191.7 3.9c-.2.18-1.1.44-2.8.35h-.2c-13 3.52-20.8 15.27-31.3 22.42-2.3 0-4.1-.1-5.1-.35-.5-.13-.8-.3-1-.45-.1-.14-.2-.21-.2-.34.1-.29.5-.97 1.4-1.77.9-.77 2.2-1.7 3.8-2.72 8.9-7.23 16.8-16.25 27.8-19.89 2.6-.012 6.116.468 7.6 2.75zm-13-2.78c.2 0 .2 0 .3.1-.1.1-.2.21-.5.35-.7.45-1.7.98-2.7 1.55-1 .58-2 1.17-2.7 1.79-8.6 6.36-16.2 14.16-24.9 20.37-2.2.2-3.8.11-4.9-.21-1.2-.33-1.8-.85-2-1.48-.3-.64-.2-1.49.4-2.55.5-1.06 1.4-2.3 2.8-3.6 7.7-9.46 19.8-15.89 32-16.2 1-.1 1.7-.1 2.2 0zm-174.8.1c1.7 0 2.9.23 3.7.67.8.49 1.2 1.15 1.4 2.04.3 1.79-.2 4.45-.6 7.21-.3 6.02.7 12.03 2.7 17.69-3.6-.3-6.1-2.46-7.6-5.61-1.5-3.39-1.9-7.69-1.6-11.15.3-3.68 1-7.31 2-10.89zm7.3 2.38c1.6.1 3 .27 3.8.68 1 .46 1.5 1.08 1.8 1.89.6 1.63.3 4.13-.2 7.06v.1c-.1 7.09 1.5 13.44 4.6 18.83.1 0 0 .1.1.11.2.78-.1 1.18-.1 1.58-.4.1-1.3.2-2.9-.3-3.5-1.22-5.3-3.94-6.3-7.28-1.1-3.34-1.3-7.24-1.7-10.48 0-4.11-.2-8.24.9-12.14zm184.2 1.34c1.7.1 2.9.18 3.7.34.4.1.7.18.8.26.2.1.2.11.1 0 0-.1.1-.1 0 0-.2.12-.4.29-.8.49-.7.36-1.8.8-3.4 1.3-10.8 4.96-17.7 15-27.4 20.85-2.8 0-4.7-.1-5.9-.36-.6-.14-1-.31-1.3-.48-.2-.17-.2-.28-.2-.45 0-.33.4-1.11 1.4-2.03 1-.93 2.5-2.02 4.1-3.28h.1c8.4-7.42 17.3-16.71 28.8-16.64zm-176.4 1.14c3.9.1 6 1.16 7.1 3.06 1.1 1.99 1.2 4.9 1.15 9.935-.05 5.035-.25 12.925 4.25 18.475-3.9-.4-6.9-2.6-9-5.9-2.4-3.65-3.7-8.36-4.2-12.3-.8-4.4-.2-8.84.7-13.24zm188.3.59c1 .11 2.1.35 2.9.65.9.3 1.5.7 1.7.93.1.12.1.15.1.12l-.2.14c-.4.2-1.4.41-3.1.44h-.1c-11.9 3.62-19.1 14.15-28.6 20.9-2.2-.1-4-.2-5.4-.38-1.4-.19-2.3-.51-2.6-.78-.2-.13-.2-.18-.2-.33.1-.15.2-.42.5-.77.6-.68 1.8-1.66 3.8-2.88 9.2-7.65 18.5-18.41 31.2-18.02zm-178.7 2.36c1.6 0 2.9.2 3.7.69.9.55 1.4 1.35 1.7 2.37.7 2.04.4 4.94.3 7.7 0 6.67-.1 14.26 3.9 20.06-3-.8-5.3-2.6-6.7-5.2-1.7-3.08-2.5-6.85-2.7-10.34-.3-5.02 0-10.16-.2-15.28zm186.8.54c1.2-.1 4.4.44 6.5.96.3.1.5.17.7.25-.4.1-.8.12-1.5.16h-.1c-10.9 3.3-18.4 12.46-25.1 20.92-3.3-.57-8.2-.63-10.9-1.25-.6-.16-1.2-.37-1.5-.57-.3-.22-.3-.32-.3-.52 0-.21.3-.63.9-1.17.6-.54 1.4-1.19 2.7-1.96 0 0 .1 0 .1-.1 8.3-7.54 16.8-16.46 28.5-16.78zm-179.5 1.95c1.4 0 2.6.26 3.2.71.7.52 1 1.25 1.2 2.21.3 1.93-.4 4.69-.3 7.32.7 8.32 4.5 16.19 9.9 22.29-7.3.2-13.2-6.4-13.4-13.72v-.1c-.9-6.13-.1-12.44-.6-18.76zm188.8.54c.9.17 3.1.29 4.8.56.9.14 1.6.35 1.9.5-.1 0 0 0-.2.14-9.3 4.73-15.6 13.44-23.2 20.09-1.8 0-3.6-.1-5-.3-1.5-.2-2.9-.5-3.6-.95-.3-.22-.5-.45-.6-.67-.1-.23-.1-.51.1-.92.3-.82 1.3-2.04 3.4-3.62 5.8-6.68 13.1-14.33 22.4-14.78zm10.8 1.51c1.7.11 2.8.35 3.3.59.2.13.2.22.2.26.1 0 .1.11-.1.27-.2.32-.8.83-1.6 1.31-.8.48-1.9.97-3 1.4l-.1.1c-6.5 4.61-11.2 11.04-16.4 16.95-1.9 0-3.5 0-4.6-.1-1.2-.2-1.9-.5-2.1-.8-.1-.1-.2-.2-.1-.4 0-.2.1-.5.3-.82.5-.72 1.5-1.67 3.1-2.84 6.5-6.19 12.4-13.87 21.1-15.92zm-193.2.1c3.8 0 5.8 1.26 6.7 3.32 1.1 2.17 1.3 5.28 1.6 8.58 1.5 8.38 4.9 16.98 11.7 22.58-4.2.3-7.7-1.3-10.6-4.1-3.3-3.2-5.6-7.5-7.2-11.3-2.5-6.03-3.4-12.74-2.2-19.12zm200.9 1.98c4.1-.23 7.9 2.2 10.9 5.12-10.4.17-19.5 6.69-25.4 14.78-2.2.2-4 .2-5.2 0-1.4-.3-2.1-.7-2.4-1.1-.3-.4-.3-1 .3-1.9.5-1.02 1.6-2.24 3.2-3.68 5.1-5.75 10.9-11.76 18.6-13.18zm-191.7 1.04c3 1.03 6.5 1.49 9.2 2.54 1.4.56 2.5 1.28 3.1 2.33.6 1.04.8 2.45.95 7.62.15 5.17.45 14.57 6.75 20.67-4.3 0-7.8-2-10.6-5.2-3.1-3.6-5.3-8.3-6.7-12.39-1.6-5.02-2.6-10.32-2.7-15.57zm13.9 3.86c3.3-.1 5.4.9 6.7 2.67 1.3 1.87 1.7 4.65 1.7 7.88v.1c1.2 7.35 3.6 15.55 9.6 20.75-7 .8-13.8-3.5-15.4-10.4v-.1c-2.3-6.6-2-13.83-2.6-20.87zm191 1.65c.9 0 3.7.39 5.7.87.8.21 1.4.45 1.8.62-8.1 2.39-15.3 7.31-21.1 13.26-1.2-.3-2.9-.4-4.5-.5-1.8 0-3.6-.1-5-.3-.7-.1-1.3-.3-1.7-.4-.3-.2-.5-.4-.5-.6-.1-.1 0-.4.4-.9.3-.5 1-1.1 2-1.92 6-6.33 14.2-10.66 22.9-10.08zm-180.7.69c2.9.1 4.6 1.09 5.7 2.78 1.3 2.04 1.7 5.07 2.2 8.28v.1c1.8 7.1 4.5 14.7 10.5 19.6-4.6.4-8.3-1.4-11.2-4.6-3.3-3.5-5.5-8.4-6.4-12.7v-.1c-1.1-4.31-1.6-8.8-2-13.3h1.2zm196.9 1.42c1 .1 2.1.2 3 .4.9.2 1.7.47 2 .7.2.12.2.2.2.16 0 0 0-.1-.1.1-.3.22-1.2.61-2.9.94h-.1c-7.1 3.38-14 7.24-20.6 11.64-2 .1-3.8 0-5.2-.1-1.5-.2-2.6-.5-3.1-.9-.2-.2-.3-.3-.3-.5s0-.4.3-.8c.4-.6 1.6-1.6 3.7-2.8 6.7-4.96 14.6-9.15 23.1-8.8zm-186.9.74c.7.1 1.3.19 1.6.4 1.2.48 1.9 1.25 2.6 2.25 1.2 2.01 1.7 4.95 2.6 7.95v.1c2.6 6.9 6 14.1 11.9 19.3-4.9.2-8.9-1.8-11.9-5.2-3.4-3.7-5.6-8.8-6.7-13.4-1-3.8-1.9-7.55-2.4-11.39.8-.1 1.6-.1 2.3 0zm201.6.26c1.8-.1 3.4.94 3.8 1.77.2.42.2.7-.1 1.03-.3.32-1 .67-2.2.8h-.1c-7.5 3.12-14.3 7.54-21.5 10.74-3.3-.3-7.3-.5-9.2-1-.5-.2-.8-.3-.9-.3v-.1s0-.1.1-.2c.3-.4 1.6-1.3 4.2-2.4 8.1-4.64 16.5-10.19 25.9-10.34zm-195.2 1.7c3.5-.16 6.1.62 7.8 2.29 1.8 1.77 2.8 4.55 3.3 8.05 2.4 7.1 5 15.5 11.6 19.8-4.4.1-8.1-1.7-11.2-4.9-3.5-3.6-6.1-8.5-7.8-12.9-1.6-4-2.9-8.09-3.7-12.34zm204.6 1.37h.1c1 .1 1.9.22 2.6.42.6.16.9.32 1.1.46-.4.12-1.3.22-2.6.18h-.2c-8 1.87-15 6.51-21.4 11.31-2.4 0-4-.1-4.9-.3-.5-.1-.7-.2-.8-.3-.1 0 0 .1 0 0 .1-.2.7-.8 1.8-1.4 1-.4 2.4-1.1 4-1.8 5.6-2.7 10.7-6.11 16.5-7.91h.2c.1 0 .2-.1.4-.1.3-.1.6-.21 1-.32.8-.23 1.7-.41 2.2-.3zm-192.2.76c.5 0 1 .14 1.4.32.8.42 1.3 1.13 1.8 2.03.9 1.86 1.3 4.56 2.1 6.86 2.7 7.5 7.4 14.4 14.3 18.6-4.1.9-7.6-.2-10.5-2.8-3.2-2.8-5.5-7-6.8-10.9-1.7-4.7-3-9.3-4.1-14.08.7 0 1.3-.1 1.8 0zm7.4 1.26c2.2.14 3.7.91 4.8 2.25 1.5 1.8 2.3 4.6 2.9 7.8v.1c2.3 7.6 7.7 13.6 14.3 17.6-6.8-.3-12.2-3.7-16.4-8.9-4.2-5.4-6.9-12.3-8.1-18.77.9-.1 1.7-.13 2.5-.1zm190.5.26c1.2.14 2.2.35 3 .58.6.21 1 .44 1.1.53-.1 0-.1.1-.2.11-.5.19-1.5.36-3 .43h-.2c-6.1 2.14-11 6.24-16.2 9.74-2.3.1-4.1 0-5.3-.2-.7-.1-1.1-.2-1.4-.4-.4-.1-.5-.3-.5-.4 0-.2 0-.4.1-.6.1-.2.3-.6.7-.9.8-.7 2.2-1.5 4.1-2.4v-.1c5.4-3.3 11.4-6.5 17.8-6.39zM206.4 99.7c1.9.12 3.2.7 4.3 1.7 1.3 1.5 2.1 3.8 2.8 6.5v.1c3.6 9 10.9 15.9 19.6 19.7-6.6.3-12.9-2.3-17.8-6.5-5.3-4.8-9.1-11.5-10.4-18.5v-.1c-.3-.9-.5-1.9-.7-2.87.7-.1 1.4-.1 2.2 0zm187.4 1c.4 0 .8.1 1.3.2.8.3 1.8.8 2.6 1.2.8.5 1.5 1 1.8 1.4l.1.1c-6.3-.7-13.8 1.5-17 7.4-2 0-3.7-.1-5-.3-1.3-.2-2.2-.5-2.4-.8-.1-.1-.1-.1-.1-.3 0-.1.2-.4.5-.7.6-.7 1.9-1.5 3.8-2.5 4.2-2.6 8.5-5.5 13.4-5.7h.1c.2-.1.6-.1.9 0zm-178.5.5c1.9.1 3.3.9 4.3 2.2 1.6 1.8 2.6 4.5 3.9 7.2 3.4 7.1 8.8 13.1 15.6 16.8-12.6-2.5-23.1-13.6-26-26.2.8-.1 1.5-.1 2.2 0zm8.5 1.2c2.2.1 3.7.9 5 2.2 1.8 1.7 3 4.5 4.5 7.3v.1c5.5 7.8 13.5 13.5 22.1 17.4-13 .7-25.1-7.7-30.5-19.5-1.2-2.5-2.3-4.9-3.4-7.4.8-.1 1.6-.2 2.3-.1zm7 1.6c6.4-.2 11.8 1.9 15.6 7.3h.1c5.9 6.5 11.7 13.2 18.5 18.9-14.1-2-26.4-12-33.3-24.3-.3-.6-.7-1.3-.9-1.9zm167.6 1.1c1.1-.1 3.6.4 5.5 1 .9.3 1.8.7 2.2 1l.1.1c-4.8 0-10 1.5-13.2 5.4-2.1.2-3.8.1-5.1-.2-1.3-.3-2.2-.8-2.6-1.3-.3-.5-.3-1 .2-1.8.6-.7 1.8-1.7 3.8-2.6 2.7-1.2 5.9-1.7 9-1.6zm-155.7.3c6.1-.4 10.3 2.6 14 7.2v.1c6.6 6.8 13 15.1 22.3 18.8-3.1 1.7-6.2 1.5-9.2 0-3.3-1.7-6.6-4.8-9-7.2-6.1-6.2-11.6-12.9-18.1-18.9zm10.4 1.1c6.2-.3 11.3 2.2 14.8 7.5h.1c5.7 6.4 11.7 13.2 19.6 17.5-5.8-.2-10.8-2.3-15.2-5.7-4.9-3.8-9.4-8.9-13.7-13.4-1.8-2-3.6-4.1-5.6-5.9zm13.6 1.2c2 .1 3.8.6 5.4 1.6 2.5 1.4 4.6 3.5 6.5 6.1v.1c5.8 6.6 12.3 13.5 21 16.4-4.2 1-8.1.3-11.7-1.8-4.2-2.6-8.1-6.2-11.4-9.3-4.2-4.1-7.7-8.8-12-13.1.7 0 1.5-.1 2.2 0zm139.9 1.1c.9 0 1.8.1 2.6.3.7.3 1.4.6 1.7.8l.1.1c-.3.1-1.2.2-2.7.1h-.1c-2.6.4-5 1.8-7.2 2.7-2 .7-3.9 1-6 .1 3-2.9 7.5-4.2 11.7-4.1zm-131.9.1c2.9.4 6.1.3 8.8.7 3.3.5 5.8 1.6 7.1 5.1l.1.1c4.9 6.3 10.3 13 18 16.4-5.7.4-11-1.1-15.7-4.3-5.2-3.5-10-8.5-13.9-13.3v-.1c-1.4-1.5-2.8-3.1-4.4-4.6zm14.8 1.4c2.8.2 5.7.1 8.3.7 2.9.6 5.3 1.9 6.9 5v.1c4.4 5.3 8.9 10.6 14.4 15-6.7.8-13.2-1.8-18.2-7-4.3-4.2-8-8.9-11.4-13.8zm15.3.8c.6 0 1.2 0 1.7.1 1.3.3 2.4.8 3.4 1.6 2.1 1.5 3.8 3.9 5.5 6.4 3.5 4.4 7.3 8.6 12.1 11.8-2.7.9-5.2.3-7.6-1.3-2.6-1.9-5-4.5-7-6.6-3.5-3.8-6.5-7.9-10-11.8.6-.1 1.3-.2 1.9-.2zm109.2 1.6v.3c.1.8-3.3 1-4.8 1.3-1.4.2-3 .4-4.4.4-1.4 0-2.6-.2-2.9-.4 0-.1.2-.3.7-.6 2.6-1 5.2-2.1 8-2.4 1.7-.1 3.1.5 3.5 1.4zm-99.1-.9c.3 0 .6 0 .8.1 1.3.2 2.4.8 3.4 1.6 2 1.5 3.8 3.9 5.8 6.1 4.9 4.8 11 8.8 17.9 10.1-3 2-6.4 2.7-9.8 1.9-3.7-.8-7.2-3-9.7-6.2h-.1c-4.3-3.9-7.7-8.6-11.1-13.4 1-.2 2-.3 2.8-.2zm6.5 1.1c2.8 0 5.7.1 8.1.7 2.7.7 5.1 2.1 6.9 5 0 0 .1 0 .1.1 4.1 3.7 8.6 6.9 13.7 9.3-11.6 1.2-22-5.8-28.8-15.1zm15.1.9c4.7.2 8.6 1.8 12 5.4h.1c4.4 3.3 8.9 6.5 13.6 9.4-5.4.6-10.4-1.1-15-4-4.7-3-8.9-7.1-12.7-10.7.6-.1 1.3-.1 2-.1zm9 .9c6.3-.1 12 1.4 16.7 5.7 4.3 3.1 8.7 6 13.3 8.8-2.2 1.5-4.6 1.5-7.2.6-2.9-1.1-5.7-3-8.2-4.3-5-3.3-9.8-7-14.6-10.8zm69.7 1.2c-.1.1-.3.1-.5.1-.5.1-1.2.1-1.9.1s-1.4 0-2-.1c-.3-.1-.5-.1-.7-.2.3-.2.7-.3 1.7-.5l.6-.2c2-.1 2.5.3 2.8.8zm-55.9-.5c.4-.1.9 0 1.3 0 1.2.3 2.3.8 3.4 1.5 2.2 1.4 4.2 3.4 6.4 5.2 3.7 2.8 7.7 5.2 12.1 6.9-3.1.1-6-.9-8.8-2.7-3.4-2-6.7-4.9-10.1-6.9-1.9-1.3-3.8-2.6-5.8-3.9.5-.1 1-.1 1.4-.1zm-3.1.5c.9.4 1.9 1 2.8 1.5.2.1.4.3.5.4-1.1-.7-2.2-1.3-3.3-1.9zm12 .4c5 .2 9 2.1 12.4 6.1 2.7 2.3 5.7 4.3 9.2 5.6-3.6.7-7.1-.1-10.4-2-3.8-2-7.5-5.1-10.9-7.5-.8-.7-1.7-1.5-2.5-2.2zm11.9.3c1.1.2 2.1.6 3 1.2 1.8 1.2 3.4 3.1 5.4 4.9 2.9 1.9 6.2 3 9.7 3.4-2.7 1.4-5.1 1.6-7.7.7-5.1-1.9-9.3-6-13.3-9.9 1-.2 2.1-.4 2.9-.3zm5.6 1c5.7 0 10.2 2.3 15 5.4.5.4 1.2.6 2.1.9.8.2 1.7.4 2.4.6.1 0 .1.1.2.1-.2.1-.4.1-.7.2-6.9 1-14.7-1.6-19-7.2zm30.3 2c-.6 1.9-7.5-1.1-9.1-1.5 2-1.1 9.2.5 9.1 1.5zm-17.5 0c3.8.5 7.2 2.2 10.9 3.8-.4 0-.8.1-1.5.1-.9-.1-1.8-.2-2.7-.4-.8-.2-1.5-.5-1.7-.6l-.1-.1c-1.8-.7-3.3-1.8-4.9-2.8zm9 .6c1.2 0 2.6.1 3.7.3.6.1 1.1.3 1.4.4.4.2.6.3.6.4 0 .1.1.1-.1.3-.2.2-.6.5-1.2.8-1.8-.4-3.5-1.3-5.2-2.2.3 0 .4-.1.8 0zM219 124.5c.6.4 1.2.7 1.8 1-.5-.2-1-.5-1.5-.8-.1-.1-.2-.1-.3-.2zm1.8 1l1.2.6zM66.786 101.858h2.18l2.762 8.177 2.768-8.177h2.182v12.016h-1.425v-10.55l-2.793 8.24h-1.464l-2.793-8.24v10.55h-1.417zm-10.535 0h9.144v1.368h-3.84v10.648H60.09v-10.648h-3.84z"/></svg>