<svg xmlns="http://www.w3.org/2000/svg" viewBox="0 0 300 200"><path d="M145.96 8.715c-4.1 6.906-5.91 22.92-5.45 34.28v.04c.39 10.256 1.78 19.675 4.02 28.328-33.57 8.305-70.13 30.297-90.577 51.557-9.565-12.91-13.36-23.503-14.486-31.53-1.424-10.14.996-19.444 6.998-26.902 9.397-11.674 22.748-12.494 36.476-10.185-.267 2.168.022 4.24.888 5.52 3.63 5.364 23.142 7.246 34.792 2.05-8.6-12.045-26.007-17.925-30.83-15.568-1.6.78-2.806 2.213-3.632 3.884-4.745-.85-9.457-1.48-12.902-1.456-12.108.09-21.362 4.32-28.295 12.934-6.8 8.45-9.55 18.945-7.95 30.348 1.516 10.794 6.864 22.284 15.826 34.194-1.49 1.6-2.93 3.18-4.315 4.73-21.842 24.44-37.807 50.65-37.807 54.99v2.25h28.814l-.504-2.67c-1.627-8.6 1.623-19.35 8.28-27.38 4.18-5.05 11.1-10.8 21.968-13.46 9.664 9.43 21.974 19.45 35.68 29.11h21.41v-2.25c0-2.54-1.26-4.76-3.54-6.26-3.38-2.21-8.61-2.52-13.4-.88-4.58-5.09-7.14-11.9-7.695-20.35 46.475 4.12 90.925 22.89 141.085 49.09h27.6l.36-1.81c.51-2.57-.89-6.03-3.75-9.23-4.94-5.53-14.63-8.14-22.71-7.95-5.57-6.63-36.18-38.89-38-40.8 11.43-8.01 21.35-18.43 28.96-30.8h15.03v-3.237h-13.12a102.78 102.78 0 0 0 2.42-4.537h10.7v-3.24h-9.13c6.82-14.743 10.6-31.666 10.24-50.19l-.02-.004c0-5.07-1.59-26.5-4.5-32.4-7.87 2.99-22.19 12.68-25.43 22.59-15.53-2.32-33.04-2.045-48.38.61-2.56-10.66-15.42-18.82-25.12-23.417zm1.77 6.252c2.28 12.455 6.42 20.265 15.39 24.097 7.94-2.272 17.11-3.68 26.51-4.2l7.8 17.107 5-17.25c9.5.307 18.81 1.536 26.92 3.774 8.26-6.002 11.46-15.17 13.21-23.18 2.18 9.322 1.93 29.456 1.94 29.46.15 7.518-.45 14.745-1.72 21.632l-8.91 3.785 7.85 1.19a96.96 96.96 0 0 1-2.16 7.753l-7.6 2.21 6.06 2.178a93.224 93.224 0 0 1-3.43 8.005h-12.53v3.24h10.88a91.552 91.552 0 0 1-2.58 4.538h-8.3v3.237h6.26c-8.23 12.47-19.13 22.58-31.61 29.71-14.42-7.18-25.33-17.67-33.32-29.71h4.77v-3.237h-6.83c-.91-1.49-1.75-3.01-2.58-4.537h9.41v-3.24h-11.08a111.224 111.224 0 0 1-5.01-11.87l5.65-1.58-7.11-2.844c-.73-2.33-1.39-4.67-1.97-7.01l10.99-.75-12.56-6.66c-3.08-16.975-2.46-33.45.66-45.845zm31.94 32.273c-9.65 0-13.46 9.86-13.62 10.28l2.74 1.023c.13-.342 3.28-8.39 10.89-8.39 1.66 0 2.83.677 3.67 2.122 1.97 3.4 1.64 10.108 0 17.125h-13.31v2.916h12.55c-1.35 4.788-3.25 9.525-5.38 13.278l-.69 1.213 16.66 10.48-9.38 6.183 1.61 2.43 10.48-6.908 11.31 7.388 1.55-2.47-10.49-6.49s15.68-10.19 16.46-10.686v-.02l.01.005c-3.46-5.098-4.56-9.45-3.11-14.404h1.19l12.68-.01V69.4h-12.74c2.34-5.524 5.63-10.498 17.36-10.498v-2.916c-10.82 0-17.3 4.3-20.4 13.414h-23.36c1.64-7.287 1.92-14.45-.49-18.59-1.36-2.335-3.5-3.572-6.19-3.572zm5.94 25.076h23.04c-1.04 3.3-.62 8.274 1.93 12.54H180.9c1.81-3.616 3.48-8.025 4.71-12.54zm-39.87 3.397a108.905 108.905 0 0 0 6.14 15.812h-9.96v3.24h11.6a108.13 108.13 0 0 0 2.52 4.538h-14.12v3.237h16.13c9.86 15.3 23.18 27.02 38.26 35.89 1.67-.95 3.3-1.96 4.91-3.01l3.93 4.23-6.64 10.22 11.33-5.17 6.55 7.06-11.08 8.44 15.26-3.95 20.59 22.17 1.75-.15c10.91-.93 17.11 4.98 18.75 6.82 1.21 1.35 1.93 2.58 2.33 3.54h-22.08c-50.62-26.42-95.07-45.05-142.295-49.11.104-6.57 1.275-14.01 3.515-22.3l-4.34-1.18c-2.307 8.52-3.52 16.24-3.66 23.13-4.92-.32-9.87-.49-14.866-.49-4.237 0-8.097.39-11.616 1.08-4.59-4.59-8.5-8.96-11.822-13.11 5.91-6.16 12.864-12.15 20.475-17.78l10.534 7.28-3.44-12.28a206.433 206.433 0 0 1 9.856-6.26l15.61 7.93-7.33-12.64c2.14-1.153 4.29-2.268 6.46-3.345l21.81 14.625-7.16-21.223c7.46-3.008 14.9-5.467 22.1-7.244zm37.81 12.058h24.07l-11.75 7.755-12.32-7.754zM53.73 129.92c2.957 3.66 6.25 7.35 9.87 11.07-10.54 3.17-17.45 9.06-21.762 14.26-6.816 8.23-10.43 19.1-9.602 28.43H14.084c3.647-7.89 18.177-30.71 39.645-53.76z"/></svg>