<svg xmlns="http://www.w3.org/2000/svg" viewBox="-340 308.1 597.4 184.9"><path class="st0" d="M-157.8 435.6h322.7v20h-322.7v-20zM-268.7 435.6h84.3v20h-84.3v-20z"/><path class="st0" d="M-128.1 367.1c-4.1-4.1-10.4-6.5-17.3-6.5-7.4 0-12 2.2-16.3 6.6v-5.8h-19.5v70.1l-35.4-93.1h-17.8l-34.2 93.9h24.1l4.6-14h28.9l4.3 14h25.3v23.2h20.4v-28.3c4 4 8.8 5.9 15.8 5.9 6.9 0 13.1-2.4 17.1-6.5 7-7 6.6-19.4 6.6-29.8 0-10.3.4-22.7-6.6-29.7zm-105.1 32l8.4-25 7.9 25h-16.3zm81.1 14.6c-8 0-9-6.5-9-16.7 0-10.3.9-16.8 9-16.8 8 0 9 6.5 9 16.8 0 10.2-.9 16.7-9 16.7zM27.1 378v-16.6H15.9v-22.9H-5.7v22.8h-10.6v18.1h10.5v32.2c0 9.8 6.3 21 22 21H27v-18.2h-6.9c-2.9 0-4.3-1.6-4.3-4.4v-32h11.3zM-89.7 360.7c-18.6 0-31.5 13.2-31.5 36.4 0 30.6 17.8 36.1 33.5 36.1 13.2 0 20.3-4 27.6-11.2L-73 409.1c-3.8 3.8-7.1 5.9-14.6 5.9-8 0-12.5-5.3-12.5-11.1H-58v-9.6c-.1-18.6-11.1-33.6-31.7-33.6zm-10.5 28.8c0-1.7.3-3.7 1.2-5.5 1.3-3 4.2-5.5 9.4-5.5 5.1 0 8 2.5 9.4 5.5.9 1.9 1.2 3.8 1.2 5.5h-21.2zM-19.7 361.3c-7.4 0-13.8 2.8-16.9 5.9v-5.8h-21.1v70.9h21.6v-42.4c0-8 5.9-9.2 8.7-9.8 3.1-.6 4.5-.8 10.1-.7v-18.1h-2.4z"/><g><path class="st0" d="M133.6 361.3h-25v18.3c7.5-.2 17.1-.2 23.7-.2 6.1.4 8.7 2.9 8.7 8.7v1.8h-14.4c-16.9 0-24.1 9.8-24.1 20.4 0 6.5 2.1 12.4 6.2 16.5 4 3.9 9.9 6.3 17 6.3 7.5 0 11.5-2.1 15.8-6.4v5.8h23.3v-45.7c.1-17.1-10.9-25.5-31.2-25.5zM141 406c0 3.4-.5 5.6-2.1 7-2.4 2.2-4.3 2.6-8.6 2.6-4.8 0-7.1-2.7-7.1-5.9 0-3.3 2.6-5.6 6.9-5.6H141v1.9z"/><path class="st0" d="M105.7 361.3c-7.3 0-13.7 2.7-16.9 5.9v-5.8H67.2v42.5c0 8.2-5.8 9.7-8.7 9.7s-8.7-1.6-8.7-9.7v-42.5H28.2v45.4c0 7.5 1 14.2 7.1 20.3 3.8 3.8 9.2 6.1 16 6.1 5.6 0 12.1-2.2 16.4-6.6v5.8h21.6v-42.5c0-8 5.8-9.2 8.7-9.8 1.2-.2 4.9-.4 9.6-.5v-18.4c-.7.1-1.3.1-1.9.1z"/></g></svg>