<svg xmlns="http://www.w3.org/2000/svg" viewBox="0 0 159 64"><path d="M16.73 12C14.12 12 12 14.12 12 16.73v30.54c0 2.6 2.12 4.73 4.73 4.73H142.2c2.6 0 4.8-2.13 4.8-4.73V16.73c0-2.61-2.2-4.73-4.8-4.73zm23.5 6.22c.17 1.51-.43 2.99-1.3 4.09-.91 1.07-2.37 1.9-3.79 1.79-.19-1.45.53-3 1.34-3.94.91-1.07 2.49-1.89 3.75-1.94zm41.81.34h1.05v6.87h-1.05zm17.16 0h1v5.6c0 .46.1.89.1 1.27h-.94v-.75c-.3.57-.8.86-1.51.86-.57 0-1.04-.22-1.42-.67-.37-.44-.56-1.02-.56-1.74 0-.76.2-1.38.61-1.85.39-.44.88-.66 1.45-.66.64 0 1.08.21 1.33.64zm24.2 0h1v2.84h.1c.3-.52.8-.78 1.4-.78.4 0 .8.14 1.1.43.3.35.5.88.5 1.58v2.8h-1.1v-2.68c0-.84-.3-1.27-.9-1.27-.5 0-.8.25-1 .74 0 .1-.1.23-.1.38v2.83h-1zm-65.92.29c1.15 0 2.01.25 2.59.74.65.57.98 1.37.98 2.42 0 1.18-.35 2.06-1.06 2.66-.65.55-1.58.82-2.78.82-.6 0-1.11 0-1.53-.1v-6.43c.55-.1 1.15-.13 1.8-.13zm63.32.69v1.18h1.1v.78h-1.1v2.29c0 .59.2.88.6.88.2 0 .3 0 .5-.1v.79c-.2.1-.5.12-.8.12-.4 0-.8-.13-1-.38-.2-.25-.3-.67-.3-1.27V21.5h-.7v-.78h.7v-.86zm-63.23.13c-.33 0-.61 0-.85.1v4.89h.71c.8 0 1.42-.23 1.86-.67.44-.45.66-1.1.66-1.95 0-.77-.21-1.35-.61-1.76-.4-.41-.99-.61-1.77-.61zm73.63.94c.7 0 1.2.26 1.6.76.3.4.4.9.4 1.48v.48H130c0 .46.2.82.5 1.06.2.22.6.33 1 .33.5 0 .9-.1 1.3-.22l.1.73c-.4.19-.9.29-1.5.29-.8 0-1.3-.21-1.8-.64-.4-.43-.6-1.01-.6-1.74 0-.71.2-1.3.6-1.77.4-.5.9-.76 1.6-.76zm-52.64 0c.44 0 .8.15 1.09.43.37.35.55.87.55 1.56v2.83h-1.05v-2.7c0-.84-.32-1.25-.95-1.25-.31 0-.56.11-.76.34-.19.23-.29.5-.29.81v2.8H76.1v-3.37-1.35h.92l.1.74c.13-.23.31-.42.55-.57.28-.18.6-.27.95-.27zm34.64 0c.5 0 .8.15 1.1.43.4.35.6.87.6 1.56v2.83h-1.1v-2.7c0-.84-.3-1.25-.9-1.25-.3 0-.6.11-.8.34-.2.23-.3.5-.3.81v2.8h-1v-3.37c0-.41 0-.86-.1-1.35h1v.74c.2-.23.4-.42.6-.57.3-.18.6-.27.9-.27zm-48.56 0c.69 0 1.25.23 1.67.69.4.45.6 1.02.6 1.73 0 .72-.21 1.32-.62 1.78-.44.48-1.01.72-1.73.72-.69 0-1.24-.23-1.65-.69-.41-.46-.62-1.04-.62-1.73 0-.73.21-1.33.64-1.8.42-.46.99-.7 1.71-.7zm22.35 0c.69 0 1.24.23 1.67.69.4.45.6 1.02.6 1.73 0 .72-.21 1.32-.62 1.78-.44.48-1.01.72-1.73.72-.69 0-1.24-.23-1.65-.69-.41-.46-.62-1.04-.62-1.73 0-.73.21-1.33.64-1.8.42-.46.99-.7 1.71-.7zm5.42 0c1.23 0 1.85.65 1.85 1.95v1.74c0 .47 0 .85.1 1.12h-.94l-.1-.54c-.32.43-.78.65-1.38.65-.44 0-.8-.14-1.07-.43-.25-.25-.37-.58-.37-.96 0-.57.24-1.01.72-1.32.49-.3 1.16-.45 2.04-.44v-.1c0-.62-.33-.93-.98-.93-.47 0-.88.12-1.23.35l-.22-.69c.44-.27.98-.41 1.62-.41zm14.59 0c.7 0 1.2.23 1.6.69.4.45.6 1.02.6 1.73 0 .72-.2 1.32-.6 1.78-.4.48-1 .72-1.7.72s-1.2-.23-1.7-.69c-.4-.46-.6-1.04-.6-1.73 0-.73.2-1.33.7-1.8.4-.46 1-.7 1.7-.7zm-39.06.1h1.07l.53 2.24c.13.53.24 1.04.33 1.51.1-.39.2-.89.38-1.5l.67-2.25h.86l.64 2.2c.15.54.28 1.06.37 1.56.1-.49.18-1.01.32-1.56l.58-2.2h1.03l-1.48 4.71h-.96l-.61-2.04c-.16-.51-.28-1.02-.38-1.53-.1.52-.22 1.03-.38 1.53l-.65 2.04h-.97zm63.26.62c-.4 0-.7.14-.9.43-.1.22-.2.5-.3.81h2.2c0-.31-.1-.58-.2-.8-.2-.29-.5-.44-.8-.44zm-66.6.1c-.42 0-.74.19-.96.56-.19.31-.28.69-.28 1.14 0 .44.1.81.28 1.12.23.38.54.56.95.56.4 0 .72-.19.94-.57.2-.32.29-.69.29-1.13 0-.43-.1-.81-.28-1.12-.22-.37-.53-.56-.94-.56zm22.35 0c-.42 0-.74.19-.96.56-.19.31-.28.69-.28 1.14 0 .44.1.81.28 1.12.23.38.54.56.95.56.4 0 .71-.19.94-.57.19-.32.29-.69.29-1.13 0-.43-.1-.81-.28-1.12-.22-.37-.53-.56-.94-.56zm19.95 0c-.4 0-.7.19-.9.56-.2.31-.3.69-.3 1.14 0 .44.1.81.3 1.12.2.38.5.56.9.56s.7-.19 1-.57c.2-.32.3-.69.3-1.13 0-.43-.1-.81-.3-1.12-.2-.37-.6-.56-1-.56zm-8.81.1c-.39 0-.7.15-.92.46-.23.31-.34.71-.34 1.2 0 .46.11.84.32 1.13.23.31.54.47.92.47.34 0 .62-.13.83-.39.2-.24.3-.53.3-.86v-.79-.33c-.1-.25-.19-.46-.38-.64a1.02 1.02 0 0 0-.7-.25zm-4.85 1.65c-1.15 0-1.73.29-1.73.95 0 .24.1.43.2.55.13.12.31.18.51.18.23 0 .45-.1.64-.21.2-.15.32-.34.36-.56v-.19zm-53.76 1.29h.73c.83 0 3.17.33 4.68 2.53-.12.1-2.79 1.64-2.76 4.86 0 3.87 3.38 5.14 3.42 5.16 0 .1-.53 1.84-1.78 3.62-1.05 1.57-2.15 3.1-3.89 3.13-1.7 0-2.27-1-4.21-1-1.96 0-2.57.97-4.19 1.04-1.66.1-2.93-1.67-4.02-3.23-2.17-3.17-3.86-8.93-1.59-12.86 1.1-1.92 3.1-3.16 5.24-3.19 1.66 0 3.2 1.12 4.23 1.12.87 0 2.44-1.06 4.14-1.19zM96.51 30c1.21 0 2.21.21 3.02.63l-.54 1.74c-.75-.41-1.6-.61-2.54-.61-.75 0-1.34.19-1.76.55-.36.33-.53.73-.53 1.21 0 .52.2.96.61 1.3.35.32 1 .66 1.93 1.03 1.15.46 1.99 1 2.53 1.62.54.61.77 1.38.77 2.3 0 1.13-.35 2.05-1.14 2.77-.87.77-2.08 1.16-3.63 1.16-1.43 0-2.58-.28-3.45-.83l.5-1.77c.93.56 1.96.85 3.08.85.8 0 1.43-.19 1.88-.55.44-.36.67-.85.67-1.45 0-.54-.19-1-.56-1.37-.36-.37-.98-.71-1.83-1.02-2.33-.87-3.5-2.15-3.5-3.82 0-1.1.41-1.99 1.23-2.69.81-.7 1.9-1.05 3.26-1.05zm-37.82.2h2.65l4.3 13.3h-2.27l-1.24-3.9h-4.32l-1.19 3.9h-2.21zm46.01 1.32v2.39h2.4v1.6h-2.4v4.66c0 1.18.5 1.77 1.3 1.77.4 0 .7 0 .9-.1l.1 1.62c-.4.15-1 .23-1.7.23-.8 0-1.5-.26-1.9-.77-.5-.51-.8-1.37-.8-2.59V35.5h-1.4v-1.6h1.4v-1.76zm-44.78.45c-.13.57-.34 1.41-.63 2.51l-1.11 3.48h3.58l-1.13-3.48c-.12-.35-.34-1.19-.67-2.51zm70.28 1.72c1.4 0 2.4.52 3.1 1.54.6.82.9 1.83.9 3.02 0 .38-.1.71-.1.97h-6.4c0 .95.3 1.67.9 2.17.5.45 1.2.67 2.1.67.9 0 1.8-.15 2.6-.45l.3 1.48c-.9.4-2 .59-3.2.59-1.5 0-2.7-.44-3.5-1.31-.9-.88-1.3-2.05-1.3-3.52 0-1.45.4-2.66 1.2-3.62.8-1.02 2-1.54 3.4-1.54zm-57.51 0c1.14 0 2.08.45 2.84 1.34.75.9 1.13 2.08 1.13 3.54 0 1.63-.44 2.92-1.32 3.87-.79.84-1.77 1.26-2.94 1.26-1.27 0-2.18-.45-2.73-1.36v5.05H67.5V37.07c0-1.03 0-2.08-.1-3.16h1.88l.11 1.52c.71-1.15 1.79-1.72 3.23-1.72zm11.04 0c1.13 0 2.08.45 2.83 1.34.76.9 1.14 2.08 1.14 3.54 0 1.63-.44 2.92-1.33 3.87-.78.84-1.77 1.26-2.94 1.26-1.26 0-2.17-.45-2.72-1.36v5.05h-2.17V37.07c0-1.03 0-2.08-.1-3.16h1.87l.12 1.52c.71-1.15 1.79-1.72 3.24-1.72zm40.37 0h.5v2.03c-.2 0-.4-.1-.6-.1-.8 0-1.4.29-1.8.85-.3.5-.5 1.14-.5 1.9v5.03h-2.2l.1-6.57c0-1.11-.1-2.11-.1-3.02h1.8l.1 1.83h.1c.2-.63.6-1.13 1.1-1.52.4-.34.9-.51 1.5-.51zm-11 0c1.4 0 2.5.47 3.4 1.4.8.91 1.2 2.08 1.2 3.52 0 1.47-.4 2.68-1.3 3.63-.9.97-2 1.46-3.5 1.46-1.4 0-2.5-.47-3.4-1.4-.8-.94-1.2-2.12-1.2-3.54 0-1.48.4-2.7 1.3-3.65.8-.95 2-1.42 3.5-1.42zm16.9 1.46c-.7 0-1.3.29-1.7.87-.3.46-.6 1.01-.6 1.66h4.4c0-.64-.1-1.18-.4-1.64-.4-.59-.9-.89-1.7-.89zm-17 .1c-.9 0-1.5.38-2 1.15-.3.63-.5 1.4-.5 2.31 0 .89.2 1.65.5 2.28.5.77 1.1 1.15 2 1.15.8 0 1.4-.39 1.9-1.17.4-.64.6-1.41.6-2.3 0-.88-.2-1.64-.6-2.27-.4-.77-1.1-1.15-1.9-1.15zm-41 .14c-.52 0-1 .17-1.43.52-.43.35-.71.81-.84 1.37-.1.27-.1.48-.1.65v1.6c0 .7.22 1.29.64 1.77.43.48.99.72 1.67.72.81 0 1.43-.31 1.88-.93.45-.62.67-1.43.67-2.45 0-.93-.21-1.7-.63-2.31-.46-.61-1.08-.92-1.86-.92zm11.04 0c-.53 0-1 .17-1.43.52-.43.35-.71.81-.84 1.37-.1.27-.1.48-.1.65v1.6c0 .7.21 1.29.64 1.77.43.48.98.72 1.67.72.8 0 1.43-.31 1.88-.93.44-.62.67-1.43.67-2.45 0-.93-.21-1.7-.64-2.31-.46-.63-1.07-.94-1.85-.94z"/></svg>