<svg xmlns="http://www.w3.org/2000/svg" viewBox="0 0 158.333 68"><path d="M48.02 28.91c.068 7.148 6.472 9.526 6.543 9.557-.054.168-1.023 3.39-3.374 6.717-2.033 2.877-4.142 5.743-7.465 5.803-3.265.058-4.314-1.875-8.047-1.875-3.73 0-4.898 1.816-7.988 1.933-3.207.118-5.65-3.11-7.698-5.977-4.187-5.863-7.387-16.568-3.09-23.794 2.134-3.588 5.95-5.86 10.09-5.92 3.148-.057 6.12 2.053 8.046 2.053 1.924 0 5.536-2.538 9.334-2.165 1.59.064 6.052.622 8.917 4.685-.233.137-5.327 3.01-5.27 8.984M41.883 11.362c1.703-1.996 2.85-4.775 2.536-7.54-2.455.096-5.423 1.584-7.183 3.58-1.578 1.766-2.96 4.594-2.586 7.304 2.736.205 5.53-1.347 7.233-3.344M66.526 7.944a75.792 75.792 0 0 1 4.176-.574 45.47 45.47 0 0 1 5.024-.255c2.61 0 4.86.308 6.752.924 1.892.615 3.447 1.496 4.664 2.644a10.876 10.876 0 0 1 2.447 3.632c.586 1.402.88 3.017.88 4.843 0 2.208-.403 4.14-1.207 5.798a12.056 12.056 0 0 1-3.294 4.173c-1.393 1.126-3.045 1.965-4.96 2.517-1.913.552-4 .828-6.262.828-2.044 0-3.76-.148-5.152-.445v18.352h-3.068V7.944zm3.068 21.412c.74.21 1.565.36 2.48.444.912.085 1.89.127 2.934.127 3.914 0 6.948-.892 9.1-2.676 2.153-1.783 3.23-4.395 3.23-7.836 0-1.657-.284-3.1-.85-4.334a7.785 7.785 0 0 0-2.412-3.027c-1.043-.786-2.283-1.38-3.718-1.784-1.435-.405-3.023-.607-4.763-.607-1.39 0-2.587.053-3.588.16-1 .105-1.805.222-2.413.35v19.183zM114.856 43.12c0 1.232.022 2.464.065 3.696.044 1.232.175 2.42.392 3.57h-2.87l-.457-4.334h-.13a10.92 10.92 0 0 1-1.5 1.784 11.798 11.798 0 0 1-2.12 1.625c-.804.49-1.718.883-2.74 1.18-1.023.297-2.143.445-3.36.445-1.522 0-2.86-.244-4.013-.732s-2.1-1.125-2.838-1.912a7.78 7.78 0 0 1-1.663-2.707 8.91 8.91 0 0 1-.553-3.06c0-3.61 1.555-6.392 4.665-8.347 3.11-1.954 7.796-2.89 14.06-2.803v-.828a19.3 19.3 0 0 0-.23-2.773 8.606 8.606 0 0 0-1.01-2.963c-.522-.935-1.304-1.72-2.348-2.358-1.044-.637-2.458-.956-4.242-.956-1.347 0-2.684.202-4.01.605a13.687 13.687 0 0 0-3.62 1.69l-.98-2.232c1.39-.933 2.827-1.602 4.305-2.006a17.494 17.494 0 0 1 4.63-.606c2.176 0 3.95.36 5.32 1.083 1.37.72 2.445 1.656 3.228 2.802a10.334 10.334 0 0 1 1.6 3.855c.282 1.424.423 2.836.423 4.238l-.002 12.044zm-3.066-9.112a43.33 43.33 0 0 0-5.187.19c-1.804.17-3.468.543-4.99 1.116-1.522.574-2.784 1.413-3.784 2.517-1 1.106-1.5 2.57-1.5 4.398 0 2.166.63 3.76 1.89 4.78 1.26 1.02 2.674 1.53 4.24 1.53 1.262 0 2.392-.17 3.392-.51 1-.34 1.87-.798 2.61-1.37a8.792 8.792 0 0 0 1.858-1.944 9.09 9.09 0 0 0 1.143-2.23c.218-.85.326-1.468.327-1.85v-6.626zM120.854 19.796l7.958 19.883c.435 1.104.85 2.24 1.24 3.408.392 1.168.74 2.24 1.043 3.22h.13c.305-.936.653-1.987 1.044-3.155.39-1.168.825-2.37 1.303-3.602l7.438-19.754h3.262l-9.067 22.433a259.95 259.95 0 0 1-2.578 6.467 60.943 60.943 0 0 1-2.446 5.226c-.825 1.55-1.662 2.92-2.51 4.11a17.204 17.204 0 0 1-2.84 3.122c-1.217 1.062-2.337 1.837-3.36 2.326-1.02.49-1.706.798-2.054.925l-1.045-2.485c.784-.34 1.654-.786 2.61-1.338.958-.552 1.893-1.274 2.806-2.166.783-.765 1.642-1.774 2.577-3.027.935-1.254 1.772-2.773 2.512-4.558.26-.68.392-1.125.392-1.338 0-.297-.13-.743-.392-1.338l-11.285-28.36h3.264z"/></svg>