<svg xmlns="http://www.w3.org/2000/svg" viewBox="-10 -10 510 590"><path d="M380.844 297.53c.787 84.75 74.35 112.953 75.164 113.313-.622 1.99-11.754 40.192-38.756 79.653-23.342 34.116-47.568 68.107-85.73 68.81-37.5.692-49.558-22.236-92.43-22.236-42.86 0-56.256 21.533-91.753 22.928-36.838 1.394-64.89-36.892-88.425-70.883C10.822 419.585-25.93 292.64 23.42 206.95c24.515-42.554 68.327-69.5 115.88-70.192 36.174-.69 70.317 24.336 92.43 24.336 22.1 0 63.59-30.096 107.208-25.676 18.26.76 69.516 7.376 102.43 55.552-2.653 1.644-61.16 35.704-60.524 106.56M310.37 89.417C329.925 65.745 343.09 32.79 339.497 0 311.308 1.133 277.22 18.785 257 42.445c-18.12 20.952-33.99 54.487-29.71 86.628 31.422 2.43 63.52-15.967 83.08-39.655"/></svg>