<svg xmlns="http://www.w3.org/2000/svg" viewBox="0 0 765 532.5"><path d="M742.4 450.8c0 10.4-1.2 19.4-3.7 26.9s-5.9 13.7-10.3 18.5c-4.4 4.9-9.6 8.5-15.4 10.8-5.9 2.3-12.2 3.5-18.9 3.5-15.6 0-27.2-5-35.1-15-7.8-10-11.8-24.5-11.8-43.6 0-10.4 1.2-19.4 3.8-26.9 2.5-7.5 5.9-13.7 10.3-18.5 4.3-4.9 9.5-8.5 15.4-10.8 5.9-2.4 12.1-3.5 18.8-3.5 15.6 0 27.3 5 35.2 15 7.9 9.9 11.7 24.5 11.7 43.6zm-23.5 1.1c0-13.6-1.8-23.7-5.6-30.3-3.7-6.7-9.9-10-18.5-10-4.2 0-7.9.9-11 2.6-2.9 1.7-5.5 4.3-7.4 7.5-1.9 3.4-3.3 7.5-4.3 12.3-.9 4.9-1.4 10.5-1.4 16.8 0 13.6 2 23.6 5.7 30.3 3.8 6.7 9.9 9.9 18.4 9.9 4.3 0 8-.7 11-2.5 3.1-1.7 5.6-4.2 7.5-7.6 2-3.3 3.4-7.4 4.3-12.3.8-4.9 1.3-10.4 1.3-16.7zm-110.1 56.5l-31.7-68.2-6.6-14.6v82.8h-20.2V394.1h27.4l32.2 68.7 5.7 13.4v-82.1h20.3v114.3zm-155.5-96.7v-17.6H528v17.6h-26.1v79H528v17.7h-74.7v-17.7h26v-79zm-21.7 54.7c0 7.3-1 13.7-3 19.2-2.1 5.5-4.9 10.2-8.7 13.8-3.7 3.6-8.4 6.4-13.8 8.3-5.5 1.8-11.5 2.8-18.3 2.8-7.6 0-14.1-1-19.5-2.8-5.5-1.9-9.9-4.6-13.3-8-3.3-3.6-5.8-7.8-7.3-12.8-1.5-5-2.2-10.7-2.2-16.9v-75.9h22.3v74.5c0 4 .3 7.3 1 10.3.7 3 1.8 5.6 3.5 7.6 1.8 2.1 3.9 3.7 6.5 4.6 2.7 1.1 5.9 1.6 9.8 1.6 3.7 0 6.8-.4 9.4-1.4 2.5-.9 4.5-2.3 6.3-4.3 1.7-2.1 2.9-4.6 3.7-7.8.9-3.1 1.3-6.9 1.3-11.4v-73.7h22.3zm-99-16.6c0 8.9-1.2 17-3.4 24.2-2.2 7.2-5.8 13.4-10.6 18.5s-11 9.1-18.4 11.8c-7.5 2.8-16.4 4.1-26.9 4.1h-30V394.1h35c9 0 16.9 1.1 23.8 3.3 6.8 2.2 12.4 5.6 16.9 10.1 4.5 4.6 8 10.3 10.2 17.4 2.2 7 3.4 15.3 3.4 24.9zm-23.9 1.4c0-6.2-.5-11.7-1.6-16.5-1-4.8-2.7-8.9-5.1-12.3-2.5-3.3-5.7-5.9-9.9-7.7-4.1-1.7-9.2-2.5-15.3-2.5h-11.3v78.2h9.8c10.9 0 19.2-3.1 24.9-9.4 5.6-6.3 8.5-16.2 8.5-29.8zm-104 57.2l-16.6-36.6c-1.7-3.6-3.8-6.2-6.7-8-2.7-1.8-6.1-2.6-9.8-2.6h-4.3v47.2H145V394.1h34.5c6.5 0 12.4.6 17.8 1.7 5.3 1.1 9.8 2.8 13.5 5.3 3.8 2.5 6.6 5.8 8.7 9.8 2 4 3 9 3 14.8 0 4.2-.6 7.9-1.9 11.2-1.2 3.3-3.1 6.1-5.3 8.4-2.3 2.4-5.1 4.3-8.2 5.8-3.2 1.4-6.6 2.5-10.4 3.1 2.9.6 5.6 2.1 8 4.7 2.4 2.6 4.8 6.4 7.3 11.3l18.9 38.2zm-5.6-80.6c0-5.6-1.8-9.6-5.5-12.1-3.6-2.4-9.2-3.6-16.5-3.6h-9.8v32.2h9.1c3.4 0 6.5-.4 9.3-1 2.9-.7 5.2-1.7 7.2-3.2 2-1.4 3.6-3.1 4.6-5.2 1.1-2.1 1.6-4.4 1.6-7.1zm-90.9 80.6l-6.5-22.5H60.4l-6.71 22.5H31.61l35.03-114.3h31.14l35.02 114.3zm-26.89-93.3l-15.57 53.2h30.95zM705.1 51.29V37.73h-5.2v-2.36h13v2.36h-5.2v13.56zm9.6 0V35.37h3.9l4 12.71 3.9-12.71h3.8v15.92h-2.4V37.93l-4.1 13.36h-2.4l-4.3-13.56v13.56zM539.8 135.9v32.5h-32.6v37.3h32.6v32.8H577.2v-32.8h32.6v-37.3h-32.6v-32.5h-37.4zm-390.9 33.9v34.7h107v-34.7h-107zM197.5 22C101.5 22 22 97.83 22 192c0 94.2 79.5 170 175.5 170 54.3 2.4 98.1-17.9 130.2-47.5 21.9-20.2 39.1-44 54.8-68.3 15.7 24.3 32.9 48.1 54.8 68.3 32.1 29.6 75.9 49.9 130.2 47.5 96 0 175.5-75.8 175.5-170 0-94.17-79.5-170-175.5-170-57.2 0-102.5 22.24-135.8 53.13-19.3 17.84-35 38.17-49.2 59.07-14.2-20.9-29.9-41.23-49.2-59.07C300 44.24 254.8 22 197.5 22zm0 60c42.8 0 70 14.01 95.1 37.2 19.9 18.3 37.3 43.3 54.5 70.6-19.7 31.8-38.7 60.9-60.1 80.6-23.6 21.7-48 33.7-87.9 31.6h-1.6C132.7 302 82 252.5 82 192S132.7 82 197.5 82zm370 0C632.3 82 683 131.5 683 192s-50.7 110-115.5 110h-1.6c-39.9 2.1-64.3-9.9-87.9-31.6-21.4-19.7-40.4-48.8-60.1-80.6 17.2-27.3 34.6-52.3 54.5-70.6C497.5 96.01 524.7 82 567.5 82z"/></svg>