<svg xmlns="http://www.w3.org/2000/svg" viewBox="0 0 1071 283.9"><path d="M1035 122.2c-1-.5-2-.7-4-.7h-3v6.7h3c2 0 3-.1 3-.4 2-.5 2-1.5 2-2.9 0-1.3 0-2.2-1-2.7m-4-2.9c3 0 4 .2 6 .7 1 .8 2 2.3 2 4.6 0 1.7 0 2.9-1 3.7-1 .4-2 .7-3 .9 1 .2 2 .8 3 1.8 1 .9 1 1.9 1 2.8V137.7h-3v-.2-2.2c0-2.1 0-3.5-2-4.2 0-.4-1-.6-3-.6h-3v7.2h-3v-18.4h6zm-9-.9c-3 2.8-5 6.2-5 10.2 0 4 2 7.4 5 10.3 2 2.8 6 4.2 10 4.2s7-1.4 10-4.2c3-2.9 4-6.3 4-10.3 0-4-1-7.4-4-10.2-3-2.9-6-4.3-10-4.3s-8 1.4-10 4.3m22 22.1c-4 3.3-8 4.9-12 4.9-5 0-9-1.6-12-4.9-3-3.3-5-7.3-5-11.9 0-4.7 2-8.6 5-11.9 3-3.3 7-4.9 12-4.9 4 0 8 1.6 12 4.9 3 3.3 5 7.2 5 11.9 0 4.6-2 8.6-5 11.9m-254.8-1.2c2.9-2.4 14.1-9.1 28.2-9.1 27.4 0 40 21.1 40 49.6v44.7c0 13.8.4 25-11.5 31.9v1.6h50.8v-1.6c-12.5-7.1-11.6-17.8-11.6-31.9v-50.9c0-34.9-20.1-58.9-53.2-58.9-24.8 0-39.3 19.5-42.7 24.6m-6.1 85c0 14-.6 25.9 11.5 32.1v1.6h-50.8v-1.6c12.9-6.9 11.6-18.1 11.6-32.1v-72.8c0-14 1.1-22.5-11.3-27.2v-1.7l36.3-6.5h2.7v108.2zm-166.7-41.1c0 36.5 18.4 59.1 52.3 59.1 24.7 0 38.4-12.8 42-16.5h1.9l-7.7 28.6c-5.2 2-17.6 7.6-39.9 7.6-47.2 0-78.1-31.6-78.1-73.9 0-42.3 26.5-74 69.4-74 37.8 0 63.6 29.8 62.5 69.1H616.4zm73.7-17.7c-2.7-18.5-14.5-31.8-36.3-31.8-18.6 0-33.4 13.7-36.3 31.8h72.6zM957 211.6c0 17.9 7.1 30.3 29 30.3 5.7 0 9.3-2.3 10.5-3.1h1.6L983.4 261c-1.7.4-5.3 1-11.2 1-28.8 0-42.9-19.3-42.9-50.3v-67c0-15.3-12.5-20.4-20.7-20.4v-1.7l46.7-38.87h1.7v35.57h26.3c12.2 0 16-2.3 17.7-3.2h2l-13.2 25.1H957v70.4zm-389.7-62.1c-6.8-6.7-19.2-15.8-39.5-15.8-33.9 0-54.4 23.3-54.4 54.2 0 31.8 21.2 54.4 54.4 54.4 22.4 0 35.7-12.1 38.1-14.9h1.9l-5.7 28.9c-6.2 2.1-22.7 5.7-36.4 5.7-49.1 0-81.9-30.4-81.9-74 0-46.6 36-73.9 81.9-73.9 10.6 0 27.7 2.5 38.9 6.1l2.7 29.3zm-156.9 74.8c0 14-.6 25.9 11.6 32.1v1.6h-50.8v-1.6c12.9-6.9 11.4-18.1 11.4-32.1v-72.8c0-14 1.2-22.5-11.2-27.2v-1.7l36.3-6.5h2.7v108.2zM396.5 79.47c-10.9 0-19.1-8.51-19.1-19.4 0-10.28 9.4-17.35 19.1-17.35 10 0 17.6 8.55 17.6 18.23 0 9.71-7.6 18.52-17.6 18.52M90.31 198.9c20.09-50 53.09-49.6 61.09-50.5-1.6-.4-9.1-2.6-19.8-2.6-39.96 0-55.95 22.9-71.28 54.9-2.94 6-8.94 18.5-8.94 18.5-7.46 16.2-12.93 29.9-29.32 37.2v1.6h62.25v-1.6c-7.6-1.8-11.06-5.6-11.06-10.7 0-4.5 2.26-10.3 5.33-17.8l11.73-29zM127 62.41l19.4-40.36 78 190.65c7.2 17.8 13.5 34.9 30.7 43.7v1.6H188v-1.6c7.1-2.5 11.1-4.8 11.1-10.2 0-4.9-2.6-10.9-6.6-21.4L127 62.41zm173.9 53.69h2.7v21.1c2-4.9 11.5-23.1 39.4-23.1 7.5 0 12 1.6 12.6 1.9v25.4c-2-.9-10-4.3-19.9-4.3-19.3 0-32.1 11.9-32.1 35v52.2c0 14-.5 25.9 11.6 32.1v1.6h-50.8v-1.6c12.8-6.9 11.5-18.1 11.5-32.1v-72.8c0-14 1.2-22.5-11.2-27.2v-1.7l36.2-6.5z"/></svg>