<svg xmlns="http://www.w3.org/2000/svg" viewBox="105 0 390 200"><path d="M120.907 150.5c1.618-3.015 2.767-6.242 4.194-9.344.728-1.58 1.408-3.184 2.098-4.782.78-1.802 1.898-3.218 4.06-3.198 2.138.02 3.29 1.416 4.078 3.207 1.586 3.6 3.172 7.198 4.743 10.803a46.63 46.63 0 0 1 1.225 3.04c.427 1.207.307 2.282-1 2.903-1.31.62-2.846.23-3.597-.898a1.086 1.086 0 0 1-.185-.405c-.372-2.396-1.978-2.707-4.017-2.496-1.234.13-2.5.118-3.737 0-1.307-.125-1.948.33-2.377 1.592-.734 2.163-2.08 2.82-3.99 2.3-.615-.167-.912-.76-1.5-.92.004-.6.004-1.2.004-1.8zm10.347-12.207c-.876 2.25-1.613 4.193-2.39 6.12-.277.683.065.765.6.763 1.19-.004 2.382-.01 3.573 0 .602.006.8-.196.56-.805-.758-1.915-1.485-3.845-2.343-6.077zM481.146 152.6c-.797.456-1.467 1.195-2.483 1.17-1.224-.028-2.27-.42-2.745-1.652-.38-.982-.127-1.87.717-2.518 1.1-.844 2.297-.862 3.493-.23.38.202.68.55 1.016.83.002.8.002 1.6.002 2.4zM343.828 150.903c.075 1.526-.677 2.22-1.895 2.446-1.304.24-2.672-.117-2.97-1.393-.63-2.71-2.448-2.777-4.59-2.616-1.192.09-2.402.092-3.594-.004-1.103-.09-1.594.375-1.958 1.367-.79 2.158-1.492 2.68-3.123 2.622-1.966-.07-2.796-1.085-2.15-2.948.698-2.02 1.612-3.966 2.46-5.932 1.187-2.746 2.418-5.472 3.592-8.222.74-1.736 1.86-2.998 3.86-3.044 2.065-.048 3.3 1.205 4.08 2.97 1.977 4.466 3.93 8.944 5.892 13.417.076.174.157.345.33.717.565-.95.963-1.918 2.03-2.113.963-.176 1.876.135 2.797.368 1.393.352 2.747 1.022 4.238.664.865-.21 1.875-.385 1.998-1.5.126-1.132-.84-1.508-1.653-1.852-.774-.326-1.61-.505-2.423-.74-.67-.196-1.35-.36-2.015-.57-3.023-.95-4.2-2.267-4.334-4.825-.13-2.477 1.113-4.554 3.71-5.58 3.122-1.235 6.324-1.227 9.474.08 1.232.51 1.845 1.4 1.49 2.717-.345 1.28-1.462 1.404-2.537 1.325-.94-.07-1.862-.33-2.797-.477-.49-.077-1-.167-1.484-.114-.887.097-1.95.18-2.127 1.272-.202 1.247.953 1.306 1.767 1.605 1.73.635 3.583.89 5.268 1.673 2.057.957 3.398 2.436 3.454 4.808.056 2.397-.882 4.29-3.064 5.4-4.088 2.082-8.19 1.7-12.27-.062-.57-.25-.937-.73-1.458-1.46zm-12.853-5.726c1.55 0 2.987.003 4.424 0 .435-.002.826-.03.578-.665-.77-1.957-1.52-3.92-2.407-6.216-.84 2.165-1.542 3.957-2.235 5.753-.12.313-.206.642-.36 1.127zM176.033 145.207c0-3.24-.012-6.07.004-8.905.01-1.957.73-2.698 2.556-2.707 1.903-.01 2.655.757 2.66 2.775.01 4.693 0 9.385.006 14.078.002 1.214-.183 2.325-1.497 2.808-1.357.5-2.527.2-3.532-.866a1476.25 1476.25 0 0 0-8.453-8.877c-.43-.447-.776-1.014-1.573-1.324 0 2.92.024 5.744-.01 8.566-.02 1.863-1 2.782-2.795 2.728-1.563-.046-2.513-.802-2.534-2.355-.067-5.093-.1-10.186-.007-15.276.034-1.932 2.04-2.823 3.935-1.903.67.326 1.246.783 1.772 1.343 3.04 3.226 6.118 6.415 9.466 9.914zM238.484 143.534c.002-5.027 2.996-8.782 7.91-9.862 4.372-.96 8.548-.534 11.912 2.642 3.09 2.917 3.622 6.658 2.382 10.638-1.2 3.856-4.16 5.705-7.88 6.518-2.634.575-5.263.416-7.81-.534-4.225-1.575-6.515-4.894-6.514-9.402zm5.718.005c.015 3.688 2.238 6.024 5.747 6.034 3.275.01 5.558-2.41 5.58-5.91.02-3.77-2.136-6.133-5.61-6.145-3.546-.015-5.733 2.29-5.718 6.02zM395.578 143.447c.028-6.365 4.903-10.59 11.794-10.193 4.027.232 7.582 1.446 9.663 5.218 3.39 6.143.02 13.478-6.83 14.954-2.527.545-5.062.512-7.544-.262-4.648-1.453-7.103-4.848-7.082-9.717zm16.965.167c.045-3.754-2.088-6.066-5.625-6.096-3.543-.03-5.582 2.16-5.642 6.063-.054 3.488 2.173 5.933 5.462 5.993 3.514.065 5.76-2.24 5.805-5.96zM217.457 143.452c0-2.446.006-4.893-.002-7.34-.005-1.384.75-2.3 2.035-2.32 3.334-.06 6.706-.452 10.002.288 4.76 1.07 7.606 4.648 7.652 9.396.044 4.404-2.886 8.2-7.375 9.372-3.33.87-6.746.614-10.124.4-1.643-.103-2.198-.948-2.2-2.606-.002-2.396 0-4.793 0-7.19h.01zm7.654-5.554v-.026c-.5 0-1 .03-1.498-.007-.722-.056-.95.245-.94.956.033 3.098.03 6.195.015 9.292-.004.72.166 1.12 1 1.094 1.198-.036 2.398.04 3.58-.224 3.003-.666 4.307-2.765 4.05-6.51-.178-2.562-2.116-4.39-4.86-4.57-.444-.03-.896-.004-1.346-.004zM383.362 145.625c0 1.872.023 3.45-.006 5.027-.035 1.963-.904 2.86-2.68 2.832-1.826-.03-2.633-.85-2.643-2.86-.024-4.745-.015-9.49.014-14.236.01-1.796.787-2.622 2.525-2.65 2.447-.04 4.897-.056 7.34.04 2.092.08 4.03.656 5.49 2.325 2.245 2.563 1.692 6.353-1.21 8.136-.763.47-1.594.778-2.71 1.08 1.412 1.312 2.71 2.503 3.993 3.712 1.665 1.567 1.94 2.663.946 3.657-1.158 1.155-3.332 1.053-4.602-.28-1.857-1.95-3.67-3.943-5.508-5.91-.22-.24-.48-.446-.948-.875zm2-7.713c-.498.202-1.637-.54-1.9.382-.303 1.057-.085 2.267-.063 3.41.007.395.338.44.65.434 1.143-.02 2.302.064 3.423-.104 1.102-.164 1.988-.81 1.93-2.085-.056-1.233-.935-1.82-2.043-2.022-.578-.104-1.19-.016-1.997-.016zM148.136 145.502c0 1.986.025 3.514-.006 5.043-.04 2.037-.844 2.926-2.585 2.942-1.886.016-2.728-.856-2.735-2.926-.015-4.694-.01-9.39 0-14.085.006-1.875.76-2.707 2.583-2.736 2.397-.04 4.795-.01 7.193.02 1.056.012 2.08.244 3.07.615 2.404.904 3.79 2.752 3.887 5.163.094 2.356-1.094 4.118-3.534 5.205-.485.215-1 .36-1.724.616l3.996 3.717c1.697 1.58 1.975 2.642.952 3.63-1.17 1.13-3.382 1.023-4.62-.28-2.062-2.17-4.09-4.367-6.478-6.925zm2.66-3.352c.25-.014.923.056 1.53-.107 1-.27 1.873-.81 1.85-2.018-.022-1.246-.886-1.906-1.97-2.07-1.116-.17-2.276-.062-3.416-.07-.416-.005-.64.195-.64.626 0 .993-.004 1.984-.008 2.977 0 .52.31.672.77.665.498-.01.995-.002 1.883-.002zM463.436 133.152c1.965.037 3.264 1.002 3.99 2.606a580.806 580.806 0 0 1 6.07 13.82c.837 1.983.427 3.1-1.005 3.63-1.655.61-3.15-.012-3.757-1.883-.522-1.61-1.356-2.185-3.032-2.006-1.58.166-3.196.115-4.787.005-1.15-.08-1.643.346-2.025 1.402-.82 2.27-1.786 2.826-3.748 2.53-1.2-.18-1.798-.82-1.655-2.03.075-.635.2-1.29.45-1.873a1752.65 1752.65 0 0 1 5.868-13.425c.716-1.623 1.894-2.665 3.633-2.778zm.218 5.178c-.497 1.23-.89 2.18-1.265 3.136-1.617 4.114-1.523 4.23 2.997 3.712.05-.006.1-.003.15-.004.564-.01.664-.28.47-.774-.757-1.932-1.502-3.87-2.353-6.07zM202.427 151.132c-.036 1.105-.54 1.738-1.412 2.062-1.18.437-2.272.262-3.168-.65-.27-.276-.53-.656-.595-1.022-.334-1.923-1.486-2.393-3.297-2.2-1.53.164-3.096.106-4.638.006-1.106-.072-1.576.35-1.925 1.37-.764 2.227-1.697 2.828-3.573 2.577-1.547-.207-2.073-.89-1.804-2.463.324-1.89 1.317-3.54 2.043-5.28 1.32-3.17 2.72-6.312 4.13-9.447.735-1.636 1.86-2.866 3.81-2.912 1.863-.044 3.168.967 3.888 2.563 2.13 4.72 4.17 9.48 6.228 14.234.173.406.232.86.31 1.162zm-10.3-12.818c-.478 1.217-.86 2.17-1.227 3.127-1.502 3.902-1.5 3.902 2.72 3.742.1-.004.2-.007.3-.003.75.038.794-.263.534-.898-.775-1.88-1.485-3.787-2.328-5.968zM436.25 153.8c-2.205-.056-4.22-.356-6.108-1.227-1.1-.507-2.037-1.21-1.68-2.623.342-1.36 1.474-2.032 3.032-1.76 1.174.205 2.32.57 3.474.887.986.27 1.953.327 2.933-.04.698-.26 1.302-.615 1.337-1.43.03-.73-.46-1.165-1.062-1.5-.927-.52-1.97-.68-2.965-.996-.665-.21-1.346-.365-2.013-.568-3.002-.914-4.22-2.277-4.31-4.81-.1-2.746 1.26-4.886 4.052-5.79 3.006-.975 6.074-1.05 9.065.26 1.127.493 1.863 1.266 1.587 2.54-.29 1.33-1.383 1.612-2.557 1.51-.94-.08-1.866-.314-2.8-.467-.392-.065-.794-.17-1.182-.14-.98.07-2.177.007-2.428 1.25-.272 1.343.975 1.4 1.833 1.684 1.656.543 3.352.976 4.98 1.59 2.062.777 3.422 2.226 3.586 4.53.174 2.445-.71 4.375-2.878 5.66-1.87 1.108-3.92 1.394-5.896 1.44zM281.91 133.217c1.914.06 3.555.22 5.105.83 1.726.676 2.355 1.836 1.84 3.23-.393 1.07-1.588 1.466-3.217 1.06-1.638-.406-3.24-.96-4.993-.524-2.902.72-4.603 3.116-4.343 6.27.25 3.016 2.217 4.963 5.2 5.19 1.637.125 3.146-.37 4.69-.787 1.06-.287 2.107-.092 2.806.892.572.806.37 1.623-.145 2.368a2.17 2.17 0 0 1-.785.66c-4.402 2.23-11.283 1.864-14.855-2.08-2.693-2.975-3.257-6.485-2.02-10.188 1.375-4.122 4.59-6.1 8.74-6.736.74-.115 1.49-.14 1.978-.185zM315.44 153.815c-4.45-.247-8.34-1.666-10.356-6.044-2.967-6.44 1.197-13.47 8.382-14.378 2.417-.306 4.788-.16 7.093.65.806.283 1.584.69 1.877 1.584.55 1.673-.544 3.067-2.335 2.86-1.18-.137-2.325-.572-3.502-.776-2.61-.452-5.298.95-6.185 3.162-1.165 2.907-.43 6.03 1.852 7.52 1.698 1.11 3.593 1.068 5.495.646.777-.172 1.53-.5 2.313-.6 1.16-.145 2.288.1 2.67 1.375.36 1.197-.154 2.156-1.294 2.712-1.877.917-3.905 1.145-6.01 1.29zM366.048 144.87c0-1.898-.056-3.8.023-5.697.046-1.084-.358-1.386-1.38-1.324-.937.055-1.886.09-2.823-.2-.964-.302-1.392-.933-1.357-1.89.034-.93.427-1.637 1.426-1.836.44-.087.884-.19 1.326-.19 3.748-.014 7.496-.006 11.244 0 .874.002 1.712.135 2.257.923.776 1.122.256 2.56-1.08 2.996-1.02.332-2.085.25-3.126.196-.94-.05-1.18.294-1.17 1.203.046 3.847.028 7.696.012 11.544-.01 2.09-.793 2.892-2.736 2.873-1.75-.016-2.583-.917-2.61-2.903-.027-1.898-.006-3.797-.006-5.697zM203.61 143.368c0-2.396-.016-4.792.005-7.188.016-1.815.82-2.56 2.698-2.577 1.712-.015 2.583.767 2.607 2.555.05 3.743.09 7.49-.012 11.23-.04 1.464.42 1.91 1.845 1.81 1.437-.1 2.89.03 4.337.052 1.24.02 2.035.63 2.086 1.863.05 1.22-.702 1.908-1.883 2.13-1.436.272-2.887.117-4.33.135-1.598.02-3.2.055-4.79-.037-1.81-.104-2.574-.984-2.582-2.787-.01-2.396-.002-4.792-.002-7.188.007.003.015.003.022.003zM294.286 148.96c1.576-.006 2.702.958 2.743 2.348.04 1.34-1.127 2.428-2.652 2.47-1.554.045-2.846-1.076-2.832-2.455.013-1.346 1.182-2.354 2.74-2.362zM450.576 151.456c-.03 1.296-1.33 2.377-2.803 2.327-1.517-.05-2.705-1.135-2.686-2.452.02-1.42 1.242-2.425 2.88-2.36 1.563.06 2.64 1.086 2.61 2.486zM264.275 30.337c.79 1.042 2.08 1.014 3.15 1.416 4.798 1.808 8.014 5.33 10.512 9.613 2.142 3.673 4.173 7.413 6.28 11.107 4.593 8.06 9.234 16.09 13.8 24.165 2.857 5.057 5.96 9.99 8.36 15.287 1.408 3.108 1.88 6.443 1.46 9.89-.627 5.14-2.456 9.714-6.344 13.223-4.433 4-9.685 5.865-15.7 5.438-8.502-.602-14.035-5.275-17.84-12.613-4.822-9.295-9.827-18.494-14.786-27.718a1784.23 1784.23 0 0 0-10.003-18.333c-.342-.62-.34-.952.01-1.568 5.43-9.63 10.817-19.284 16.208-28.938.17-.302.266-.646.396-.97h4.497zM324.265 30.337c5.285 9.332 10.556 18.674 15.862 27.995a7394.93 7394.93 0 0 0 17.847 31.177c.49.85.497 1.466.018 2.322A4066.773 4066.773 0 0 0 342.7 119.3c-.646 1.17-1.518 1.646-2.77 1.62-6.444-.143-11.383-3.193-15.04-8.256-3.334-4.614-5.79-9.785-8.616-14.72-6.44-11.26-12.825-22.555-19.198-33.854-2.203-3.907-3.864-8.04-3.94-12.593-.13-7.78 4.98-17.737 16.014-20.45.477-.116 1.174.068 1.317-.71h13.798zM376.756 30.337c1.135 3.38.825 6.818.226 10.21-1.42 8.04-7.496 14.4-15.475 16.027-16.458 3.354-26.404-11.2-24.15-23.4.184-.994.047-2.112 1.005-2.837h38.394zM254.078 100.193c-.047 8.492-5.008 15.7-12.382 18.903-6.773 2.94-13.383 2.445-19.653-1.325-2.556-1.535-4.593-3.778-6.09-6.415-.475-.834-.353-1.69.12-2.542 2.98-5.355 5.932-10.727 8.903-16.086 2.343-4.224 4.724-8.43 7.04-12.668.736-1.346 1.662-1.678 3.185-1.385 4.776.92 9.08 2.76 12.608 6.148 3.127 3.003 4.845 6.783 5.74 10.99.335 1.57.625 3.124.53 4.38zM215.373 172.79c1.035-3.26 1.722-6.605 2.462-9.94.044-.194.045-.4.1-.59.255-.88.907-1.23 1.723-.98.85.26.424.984.297 1.507-.71 2.946-1.464 5.88-2.172 8.826-.09.37-.01.784-.01 1.177h-2.4zM403.742 172.79c.29-2.146.792-4.243 1.414-6.318.354-1.184.7-2.377.92-3.59.163-.888.23-1.797 1.43-1.61 1.365.21.533 1.2.41 1.754-.71 3.273-1.32 6.575-2.374 9.767-.6-.002-1.2-.002-1.8-.002zM313.157 172.79c.104-2.392 1.04-4.61 1.462-6.94.21-1.16.758-2.277.854-3.438.1-1.182.864-1.145 1.545-1.06.906.11.42.896.316 1.303-.87 3.386-1.27 6.895-2.68 10.137h-1.5zM151.628 165.466c0 1.795.005 3.592-.003 5.388-.002.482.11 1.034-.695 1.025-.83-.01-.65-.596-.652-1.056a480.22 480.22 0 0 1 0-6.895c.003-.357-.204-.865.355-1.006.51-.13.92-.02 1.27.494 1.346 1.975 2.753 3.908 4.364 6.176 0-2.08-.01-3.834.005-5.59.004-.513-.17-1.17.74-1.126.817.04.613.642.617 1.096.013 2.148.024 4.297-.02 6.445-.01.48.347 1.17-.405 1.41-.707.228-1.055-.27-1.416-.8-1.095-1.607-2.238-3.18-3.353-4.773-.23-.324-.42-.678-.81-.79zM303.815 165.75v5.036c0 .554.086 1.135-.796 1.09-.827-.043-.628-.632-.632-1.086-.016-2.248-.024-4.497.006-6.745.005-.385-.29-.965.36-1.127.577-.144 1.03.04 1.398.582 1.28 1.885 2.607 3.736 4.23 5.547 0-1.657-.016-3.314.008-4.972.008-.49-.245-1.17.674-1.194.885-.02.75.598.75 1.136.005 2.248.018 4.497 0 6.745-.005.398.22.956-.455 1.092-.558.112-.942-.126-1.258-.587-1.184-1.726-2.388-3.438-3.587-5.154-.114-.16-.24-.315-.36-.473-.114.037-.228.075-.34.114zM297.067 160.935c-.242.342-.406.582-.58.814-.425.57-.578.886.36 1.223 2.343.84 3.364 3.598 2.467 6.25-.674 1.986-3.028 3.17-5.234 2.63-1.46-.356-2.678-1.985-2.86-3.826-.235-2.39.59-4.268 2.434-4.973.786-.3 1.245-.74 1.568-1.415.353-.735.853-1.068 1.845-.705zm1.1 6.352c-.007-2.122-.995-3.31-2.77-3.324-1.715-.015-2.917 1.424-2.87 3.434.05 2.068 1.114 3.324 2.815 3.318 1.82-.008 2.833-1.24 2.826-3.428zM179.067 167.193c.04-2.62 1.78-4.527 4.148-4.54 2.503-.015 4.284 1.97 4.27 4.76-.01 2.66-1.805 4.564-4.273 4.542-2.61-.025-4.19-1.84-4.145-4.762zm6.95.24c.017-1.945-.656-3.05-2.054-3.367-2.148-.487-3.542.875-3.483 3.406.05 2.13 1.07 3.287 2.862 3.24 1.665-.043 2.66-1.262 2.676-3.28zM160.467 167.21c.027-2.662 1.875-4.63 4.292-4.57 2.41.06 4.142 2.06 4.117 4.753-.025 2.716-1.755 4.575-4.242 4.56-2.6-.016-4.198-1.832-4.168-4.743zm6.953.142c0-1.936-.712-3.042-2.127-3.304-1.658-.31-2.924.464-3.297 2.012-.525 2.182.22 4.068 1.798 4.557 2.02.623 3.627-.822 3.626-3.265zM197.364 169.53c-.18.623.447 1.727-.37 2.08-1.328.577-2.84.51-4.246.086-1.795-.54-2.875-2.268-2.805-4.297.072-2.117 1.354-3.944 3.182-4.433 1.01-.27 2.033-.452 3.096-.14.477.14.88.242.827.832-.072.79-.652.418-1.026.393-2.724-.184-3.86.37-4.474 2.222-.87 2.628.9 4.76 3.633 4.454.843-.095.806-.588.764-1.135-.04-.527.282-1.27-.73-1.316-.458-.022-1.238.328-1.193-.628.045-.94.816-.527 1.262-.54 2.082-.068 2.082-.044 2.082 2.42zM464.62 167.205c.028-2.666 1.88-4.634 4.29-4.56 2.437.076 4.154 2.053 4.125 4.75-.03 2.73-1.733 4.558-4.237 4.545-2.627-.014-4.21-1.808-4.18-4.735zm6.953.204c.015-1.956-.677-3.085-2.052-3.35-2.17-.415-3.48.817-3.473 3.277.005 2.142.987 3.357 2.73 3.374 1.77.02 2.78-1.17 2.796-3.3zM342.352 171.94c-2.505-.012-4.172-1.853-4.178-4.613-.006-2.667 1.937-4.748 4.37-4.68 2.34.067 4.166 2.177 4.13 4.776-.035 2.667-1.818 4.53-4.322 4.517zm2.882-4.62c-.01-2.075-1.05-3.326-2.775-3.346-1.787-.02-2.912 1.3-2.896 3.4.015 2.032 1.095 3.322 2.797 3.34 1.807.018 2.886-1.256 2.874-3.394zM392.367 167.295c.013 2.802-1.598 4.613-4.126 4.64-2.557.027-4.266-1.753-4.288-4.472-.024-2.798 1.707-4.774 4.208-4.807 2.415-.03 4.196 1.934 4.207 4.64zm-4.113-3.315c-1.8-.026-2.827 1.154-2.848 3.27-.022 2.128.964 3.413 2.656 3.462 1.875.054 2.902-1.11 2.938-3.334.032-2.04-1.046-3.373-2.746-3.398zM248.648 167.255c.018-2.667 1.85-4.665 4.23-4.612 2.427.055 4.212 2.053 4.193 4.695-.018 2.69-1.77 4.6-4.216 4.6-2.637.003-4.226-1.768-4.206-4.683zm6.948.262c.006-2.218-.81-3.343-2.428-3.512-1.127-.117-2.093.136-2.63 1.245-.694 1.432-.73 2.893.06 4.284.7 1.24 1.915 1.47 3.128 1.046 1.453-.506 1.984-1.722 1.87-3.063zM435.1 171.727c-1.136.374-1.76.005-2.27-.832-.49-.802-1.116-1.522-1.667-2.288-.245-.34-.584-.352-.932-.31-.52.065-.39.5-.404.817a33.98 33.98 0 0 0-.013 1.942c.01.53-.142.84-.76.82-.535-.017-.675-.276-.674-.75.007-2.49.013-4.98-.002-7.472-.004-.594.27-.79.816-.774.995.03 2-.04 2.984.072 1.185.137 2.015.807 2.298 2.027.274 1.175-.195 2.1-1.18 2.64-.802.44-.846.73-.255 1.394.72.81 1.32 1.725 2.06 2.713zm-5.282-6.33c.03.87-.295 1.802.994 1.636 1.03-.132 2.27-.1 2.297-1.555.024-1.324-1.088-1.27-2.036-1.406-1.3-.186-1.378.55-1.256 1.325zM333.353 168.132c.945 1.26 1.776 2.363 2.67 3.554-.962.35-1.582.22-2.086-.607-.465-.763-1.074-1.436-1.59-2.167-.273-.386-.538-.73-1.08-.62-.67.13-.454.678-.477 1.084-.036.597-.023 1.2-.015 1.798.006.502-.215.7-.726.7-.536-.002-.683-.25-.68-.733.01-2.498.002-4.995.003-7.494 0-.356 0-.755.5-.744 1.292.03 2.603-.207 3.867.206 1.05.344 1.672 1.085 1.733 2.202.056 1.02-.29 1.863-1.25 2.363-.265.135-.527.275-.87.457zm-2.554-2.67c.08.678-.388 1.73 1.02 1.574 1.05-.116 2.265-.16 2.276-1.572.01-1.276-1.082-1.29-2.058-1.39-1.113-.114-1.418.382-1.24 1.387zM233.963 169.258c0-1.777-.01-3.55.006-5.322.003-.454-.195-1.072.646-1.045.83.028.6.658.605 1.095.022 2.145.03 4.29-.013 6.433-.01.48.356 1.17-.38 1.415-.71.237-1.055-.312-1.41-.824-1.295-1.872-2.613-3.727-4.2-5.98 0 2.16.024 3.87-.017 5.578-.01.456.36 1.222-.57 1.245-1.054.026-.644-.824-.652-1.316a194.3 194.3 0 0 1-.005-6.433c.005-.395-.274-.96.31-1.17.596-.215 1.032.084 1.38.594 1.208 1.765 2.436 3.516 3.662 5.267.13.183.184.466.638.463zM244.456 169.566c0-2.037-.016-3.76.01-5.48.008-.48-.275-1.22.662-1.182.906.036.606.77.612 1.244.03 2.197.025 4.394 0 6.59-.003.397.23.957-.428 1.108-.562.13-.907-.146-1.226-.614-1.095-1.606-2.232-3.183-3.36-4.767-.275-.39-.573-.76-.978-1.295 0 2.053.008 3.883-.006 5.713-.004.42.127.944-.58.987-.798.05-.715-.5-.715-.997-.004-2.297-.016-4.594.006-6.89.004-.392-.232-.956.454-1.085.56-.105.92.14 1.237.607 1.202 1.773 2.438 3.524 3.666 5.28.13.186.29.353.646.78zM132.597 167.394v-.15c0-4.687 0-4.687 4.69-4.357.435.03.96-.076.926.634-.032.716-.585.543-.996.56-.6.025-1.2.033-1.797 0-.86-.046-1.487-.054-1.486 1.187 0 1.28.62 1.284 1.573 1.33.727.035 2.067-.57 2.085.58.02 1.428-1.395.594-2.12.65-1 .08-1.507.17-1.53 1.39-.026 1.315.553 1.49 1.606 1.413.745-.055 1.497-.005 2.246-.004.417 0 .66.164.64.622-.02.42-.203.627-.648.624-1.497-.012-2.996-.02-4.494 0-.656.01-.7-.39-.697-.882.007-1.2.002-2.397.002-3.596zM204.025 171.708c1.07-2.645 2.08-5.178 3.134-7.692.19-.452.196-1.12.974-1.136.847-.02.89.685 1.105 1.192a350.07 350.07 0 0 1 2.755 6.756c.117.297.647.734.03.976-.423.166-1.008.24-1.26-.407-.07-.185-.165-.365-.21-.556-.29-1.254-1.02-1.65-2.345-1.697-1.446-.05-2.146.5-2.428 1.77-.225 1.01-.816 1.117-1.757.795zm2.966-3.853h2.377a4153.5 4153.5 0 0 0-1.184-3.052c-.47 1.208-.805 2.06-1.192 3.052zM358.36 167.388v-.3c-.072-4.65-.072-4.647 4.683-4.203.4.037.812-.016.83.58.016.588-.356.625-.784.623-.648 0-1.3.05-1.943-.01-1-.09-1.537.07-1.526 1.317.012 1.264.685 1.205 1.524 1.167.497-.023.996-.006 1.495-.003.418.003.81.034.834.603.026.644-.39.72-.88.717-.5 0-1.005.053-1.495-.01-1.075-.13-1.488.196-1.47 1.376.015 1.135.355 1.52 1.46 1.4.74-.08 1.495-.02 2.242-.01.4.005.805-.012.814.59.01.568-.306.648-.76.646-1.395-.01-2.79-.027-4.186.006-.68.016-.855-.302-.844-.905.02-1.194.006-2.39.004-3.585zM271.372 169.204c-1.202-.345-1.84.36-2.132 1.622a1.93 1.93 0 0 1-.494.904c-.26.255-.685.21-.99.072-.388-.175-.144-.507-.04-.765 1.01-2.49 2.026-4.978 3.038-7.467.157-.387.346-.686.85-.69.506-.006.67.27.835.675.98 2.448 1.992 4.883 2.972 7.33.12.3.627.74-.076.94-.407.115-.916.18-1.14-.394-.073-.184-.127-.376-.205-.56-.703-1.66-.704-1.66-2.618-1.666zm.227-4.37l-.73 1.828c-.054.135-.1.275-.164.405-.28.58-.21.877.54.927 1.394.092 1.56-.072 1.087-1.39-.197-.552-.448-1.086-.734-1.77zM419.91 167.377c-.004-1.147.026-2.296-.014-3.442-.025-.724.134-1.11.976-1.066 1.195.06 2.395.01 3.592.02.432.003.944-.1.912.63-.03.73-.567.548-.974.565-.597.025-1.2.034-1.796-.003-.87-.053-1.48-.044-1.492 1.19-.015 1.284.59 1.37 1.55 1.295.545-.044 1.097-.004 1.646 0 .396.002.674.14.7.59.032.518-.24.718-.72.72-.75 0-1.497.023-2.245.005-1.192-.03-.834.856-.872 1.48-.04.658-.104 1.34.927 1.288.946-.047 1.896-.01 2.843-.01.384 0 .68.086.706.562.03.55-.267.675-.737.672-1.397-.01-2.795-.033-4.19.007-.705.02-.828-.324-.817-.91.02-1.2.004-2.396.003-3.593zM413.61 171.95c-.74-.066-1.496.01-2.193-.357-.377-.197-.496-.49-.402-.86.13-.51.532-.384.84-.25.77.338 1.57.24 2.36.206.805-.035 1.322-.528 1.424-1.29.104-.787-.495-1.12-1.155-1.32-.38-.115-.766-.21-1.15-.324-1.724-.51-2.53-1.47-2.332-2.772.21-1.38 1.555-2.388 3.21-2.332.59.02 1.178.184 1.762.305.524.11.775.46.665.984-.15.725-.59.216-.922.193-.694-.047-1.387-.1-2.082-.1-.676 0-1.13.293-1.192 1.045-.06.722.3 1.136.93 1.347.658.22 1.346.356 1.996.6 1.31.49 1.822 1.467 1.572 2.832-.23 1.26-1.14 1.79-2.285 2.018-.344.07-.7.053-1.048.075zM397.405 171.95c-.69-.06-1.404.02-2.043-.354-.37-.216-.42-.547-.314-.902.126-.416.477-.304.734-.192.772.337 1.575.18 2.365.19.744.006 1.234-.39 1.38-1.12.155-.785-.277-1.214-.986-1.434-.38-.12-.75-.266-1.135-.372-1.9-.525-2.58-1.32-2.395-2.828.158-1.277 1.3-2.176 2.923-2.28.245-.016.52-.024.737.07.697.306 2.102-.114 1.9 1.125-.193 1.19-1.183-.09-1.824.156-.392.15-.884.035-1.33.053-.672.028-.98.47-1.062 1.057-.086.62.245 1.066.817 1.266.563.196 1.16.29 1.726.476 1.476.484 2.243 1.497 2.083 2.705-.176 1.32-1.193 2.206-2.682 2.328-.293.027-.593.04-.893.056zM145.637 171.952c-2.076.023-3.658-.562-4.35-2.358-.687-1.78-.722-3.666.556-5.244 1.187-1.465 2.815-1.966 4.684-1.547.47.105 1.074.074.984.825-.104.886-.75.43-1.154.4-3.096-.237-4.815 1.853-3.874 4.745.487 1.5 1.633 2.05 3.727 1.968.41-.015 1.258-.88 1.343.327.075 1.05-.847.717-1.41.84-.243.055-.497.045-.506.045zM322.72 162.817c.73.082 1.456.05 2.1.266.98.33 1.746.98 1.842 2.118.104 1.223-.396 2.142-1.537 2.63-.496.21-1.067.476-1.566.414-1.578-.196-1.87.582-1.674 1.893.05.34 0 .697-.008 1.046-.01.377-.085.67-.574.686-.532.017-.7-.233-.697-.718.005-2.495-.084-4.993.03-7.48.072-1.58 1.456-.378 2.083-.855zm-.803 2.895c.074.505-.39 1.43.94 1.382 1.435-.05 2.428-.634 2.36-1.617-.097-1.42-1.203-1.282-2.187-1.402-1.318-.16-1.155.696-1.113 1.637zM436.725 163.08c.977-.473 1.41-.078 1.707.78.647 1.876 1.352 3.73 2.167 5.96.77-2.048 1.436-3.808 2.1-5.568.12-.325.225-.66.36-.98.245-.57.78-.456 1.158-.325.526.184.116.607.02.87-.912 2.47-1.86 4.926-2.793 7.39-.15.396-.33.685-.84.67-.51-.015-.675-.324-.822-.715-1.015-2.692-2.036-5.38-3.058-8.083zM262.84 169.79c.825-2.21 1.563-4.09 2.214-6 .232-.68.57-1.127 1.264-.86.82.315.104.883-.015 1.22-.796 2.252-1.678 4.474-2.543 6.7-.17.44-.214.99-.9 1.03-.72.04-.77-.526-.938-.957-.907-2.313-1.815-4.628-2.657-6.966-.097-.27-.72-.836.106-1.055.532-.14.93.03 1.138.64.515 1.506 1.09 2.99 1.645 4.483.183.498.383.988.688 1.766zM455.705 171.92c-1.923.12-3.448-.49-4.188-2.17-.8-1.817-.78-3.758.486-5.388 1.12-1.44 2.727-1.94 4.544-1.575.496.1 1.23.018 1.1.866-.124.832-.784.397-1.194.372-3.092-.19-4.77 1.918-3.798 4.812.467 1.39 1.622 1.932 3.647 1.91.432-.004 1.276-.833 1.39.282.118 1.14-.905.754-1.51.884-.19.042-.395.007-.477.007zM371.964 170.697c.326.365 1.236-.8 1.282.392.037.99-.87.774-1.462.815-2.522.176-4.027-.597-4.812-2.42-.85-1.972-.42-4.223 1.115-5.63 1.192-1.09 2.602-1.37 4.173-1.045.53.11 1.025.186.887.886-.142.724-.72.364-1.092.34-2.866-.18-4.278 1.193-4.007 3.937.2 2.013 1.394 2.86 3.916 2.724zM282.343 171.92c-2.006.124-3.53-.54-4.304-2.272-.796-1.776-.745-3.637.476-5.233 1.16-1.516 2.81-1.98 4.674-1.616.457.088 1.094.054 1.007.806-.1.867-.744.436-1.16.41-3.196-.205-4.896 2.008-3.776 4.944.518 1.355 1.54 1.8 3.56 1.793.456-.003 1.42-.877 1.466.382.037.984-.91.66-1.487.777-.19.04-.396.008-.457.008zM126.012 167.967c0-.447.006-.896 0-1.344-.01-.746.202-1.613-.106-2.206-.385-.737-1.35-.212-2.055-.322-.356-.055-.7-.034-.723-.535-.026-.542.266-.677.737-.676 1.89.006 3.783.006 5.674-.006.457-.003.77.08.752.644-.018.606-.42.537-.825.57-2.022.154-2.022.16-2.022 2.216 0 1.543-.007 3.086 0 4.63.005.554-.06.965-.794.938-.703-.026-.637-.477-.638-.924-.004-.994 0-1.99 0-2.985zM377.987 167.958c0-.55-.067-1.107.013-1.643.237-1.608-.105-2.612-2.038-2.238-.41.08-.8-.015-.79-.605.012-.597.418-.584.825-.585 1.845 0 3.69.005 5.534 0 .44 0 .793.055.776.632-.02.603-.43.564-.837.563-.25 0-.505.035-.748-.003-1.05-.164-1.367.26-1.317 1.312.087 1.84.02 3.688.02 5.534 0 .536-.037.99-.785.956-.69-.03-.642-.48-.644-.932-.005-.997 0-1.995 0-2.992h-.01zM173.08 166.848c0 .05-.002.1 0 .15.066 1.137-.45 2.54.21 3.344.64.782 2.058.18 3.13.275.43.04.918-.094.89.646-.028.724-.51.6-.94.604-.796.01-1.592.005-2.39.004-2.325-.002-2.326-.002-2.328-2.254 0-1.793-.02-3.587.018-5.38.01-.508-.364-1.295.656-1.34 1.026-.045.72.74.744 1.265.04.893.01 1.79.01 2.688zM355.983 163.054c-.59.99-1.115 2.006-1.768 2.93-1.012 1.43-1.653 2.922-1.412 4.725.062.465.266 1.196-.68 1.15-.838-.038-.624-.715-.554-1.113.37-2.12-.706-3.72-1.754-5.367-.475-.746-1.09-1.426-1.325-2.322.77-.124.77-.124 3.744 3.727.547-.854 1.08-1.65 1.578-2.47.477-.78.745-1.857 2.17-1.26zM202.888 161.02c-1.476.984-1.072 2.367-1.076 3.662-.006 2.048 0 4.098-.012 6.146-.002.48.102 1.03-.69 1.05-.793.017-.712-.505-.712-1.005 0-2.548-.05-5.1.02-7.646.043-1.692.92-2.507 2.47-2.207zM461.79 167.54v3.43c0 .463.006.885-.666.906-.667.02-.705-.374-.704-.852 0-2.436.008-4.872-.004-7.306-.003-.52.104-.855.73-.836.685.02.637.48.638.93.003 1.243 0 2.487 0 3.73l.006-.002zM288.29 167.502c0 1.142.014 2.283-.005 3.426-.008.414.115.93-.605.944-.68.015-.68-.416-.68-.885-.004-2.383-.013-4.765-.01-7.15.002-.43-.075-.93.62-.943.8-.015.674.552.677 1.032.006 1.194 0 2.385.003 3.576zM448.153 167.412c.003 1.19.004 2.382 0 3.574 0 .45.045.91-.66.885-.595-.02-.593-.396-.594-.803-.004-2.482 0-4.964-.005-7.446 0-.458.1-.755.66-.738.59.02.596.392.596.806.002 1.242 0 2.483.003 3.724zM223.453 167.392v-3.727c0-.44.084-.772.644-.78.556-.005.66.308.66.758-.002 2.485 0 4.97 0 7.455 0 .432-.09.765-.65.774-.698.012-.653-.45-.653-.902a1422.72 1422.72 0 0 1 0-3.578z"/></svg>