<svg xmlns="http://www.w3.org/2000/svg" viewBox="0 0 841.5 274"><path d="M732.6 135.1c0-6.8.8-11.1 2.5-12.9 1.6-1.9 3.6-2.8 6-2.8 2.9 0 4.9 1.5 6.1 4.4 1.2 3 1.8 8.6 1.8 16.9 0 10-.7 16.3-2.1 18.9-1.4 2.6-3.5 3.9-6.3 3.9-3.2 0-5.4-1-6.4-2.9-1.1-2-1.6-6.2-1.6-12.7v-12.8zm-18.7 63.7h18.7v-28.1c3.4 4 7.7 6 13 6 7.3 0 12.9-3 16.9-9.1 4.1-6 6.1-15 6.1-26.9 0-11.4-2.1-19.9-6.2-25.4-4.1-5.6-9.3-8.3-15.5-8.3-6.6 0-11.7 3.7-15.4 11v-10.2h-17.6v91zM701 76.05h-19.1v18.77H701V76.05zM682 173c0 4.8-.4 7.9-1.1 9.3-.7 1.4-2.4 2.1-5.2 2.1-.7 0-5.8-.1-6.7-.2v15.6c3.9.6 11.6.9 14.4.9 4.4 0 8.1-1 11-3.1 2.8-2 4.6-4.7 5.4-8.2.8-3.5 1.2-8.8 1.2-15.8v-65.8h-19V173zm-31.8 2.8H669v-20.3h-18.8v20.3zM786.5 219H632.3V55.85h154.2V219zm-53.9-83.9c0-6.8.8-11.1 2.5-12.9 1.6-1.9 3.6-2.8 6-2.8 2.9 0 4.9 1.5 6.1 4.4 1.2 3 1.8 8.6 1.8 16.9 0 10-.7 16.3-2.1 18.9-1.4 2.6-3.5 3.9-6.3 3.9-3.2 0-5.4-1-6.4-2.9-1.1-2-1.6-6.2-1.6-12.7v-12.8zm-18.7 63.7h18.7v-28.1c3.4 4 7.7 6 13 6 7.3 0 12.9-3 16.9-9.1 4.1-6 6.1-15 6.1-26.9 0-11.4-2.1-19.9-6.2-25.4-4.1-5.6-9.3-8.3-15.5-8.3-6.6 0-11.7 3.7-15.4 11v-10.2h-17.6v91zM701 76.05h-19.1v18.77H701V76.05zM682 173c0 4.8-.4 7.9-1.1 9.3-.7 1.4-2.4 2.1-5.2 2.1-.7 0-5.8-.1-6.7-.2v15.6c3.9.6 11.6.9 14.4.9 4.4 0 8.1-1 11-3.1 2.8-2 4.6-4.7 5.4-8.2.8-3.5 1.2-8.8 1.2-15.8v-65.8h-19V173zm-31.8 2.8H669v-20.3h-18.8v20.3zM786.5 219H632.3V55.85h154.2V219zm-53.9-83.9c0-6.8.8-11.1 2.5-12.9 1.6-1.9 3.6-2.8 6-2.8 2.9 0 4.9 1.5 6.1 4.4 1.2 3 1.8 8.6 1.8 16.9 0 10-.7 16.3-2.1 18.9-1.4 2.6-3.5 3.9-6.3 3.9-3.2 0-5.4-1-6.4-2.9-1.1-2-1.6-6.2-1.6-12.7v-12.8zm-18.7 63.7h18.7v-28.1c3.4 4 7.7 6 13 6 7.3 0 12.9-3 16.9-9.1 4.1-6 6.1-15 6.1-26.9 0-11.4-2.1-19.9-6.2-25.4-4.1-5.6-9.3-8.3-15.5-8.3-6.6 0-11.7 3.7-15.4 11v-10.2h-17.6v91zM701 76.05h-19.1v18.77H701V76.05zM682 173c0 4.8-.4 7.9-1.1 9.3-.7 1.4-2.4 2.1-5.2 2.1-.7 0-5.8-.1-6.7-.2v15.6c3.9.6 11.6.9 14.4.9 4.4 0 8.1-1 11-3.1 2.8-2 4.6-4.7 5.4-8.2.8-3.5 1.2-8.8 1.2-15.8v-65.8h-19V173zm-31.8 2.8H669v-20.3h-18.8v20.3zM786.5 219H632.3V55.85h154.2V219zm-172.8-.1V55.77h-42.9V218.9h42.9zm-61.4 0V55.77h-42.9V218.9h42.9zm-185.6-83.5v56.1c0 16 10.4 27.5 26.3 27.5h69.4c21.5 0 33.2-11.8 33.2-33.4v-25.3h-42.8v18.4c0 4.7-2.2 6.9-7 6.9h-29.9c-4.8 0-8.3-3.4-8.3-8.3V96.68c0-4.86 3.5-8.24 8.3-8.24h29.9c4.8 0 7 2.14 7 6.87v18.39h42.8V88.45c0-21.66-11.7-33.45-33.2-33.45H393c-15.9.16-26.3 11.68-26.3 27.64v52.76zM266.3 93.27c0-2.14 2.2-4.7 4.8-4.7h32.8c4.4 0 6.8 2.22 6.8 6.92v18.31H353V81.75c0-14.98-14.4-26.54-28.7-26.54h-71.1c-17.2 0-28.5 10.97-28.5 27.01v27.58c0 12 10.9 17 16.3 20.5 5.5 3.5 66.7 38.5 66.7 38.5 3.1 1.9 3.1 3.7 3.1 7.2l-.1 4.8c0 2.8-2.9 5.5-5.5 5.5h-32.1c-3.4 0-6.2-2.9-6.2-6.1v-19.9h-42.2v33c0 14.1 13.3 25.6 25.9 25.6l78.2.1c13.3 0 24.2-13.1 24.2-24.5v-26c0-13.8-5.7-18.7-19-26.6-13.4-7.9-63.2-36.9-63.2-36.9-4.4-2.4-4.5-5.51-4.5-7.6 0-.62-.1-3.57 0-4.13m-94.9 4.1l-36.9 63.53h36.9V97.37zM55 218.6l99.7-161.29h55V218.6l-40-.2v-25.2h-53.3l-15 25.3H55"/></svg>