<svg xmlns="http://www.w3.org/2000/svg" viewBox="0 0 600 200"><path fill-rule="evenodd" clip-rule="evenodd" d="M367.57 31.885L374.713-.14h36.027l-7.154 32.025H367.57zM366.114 39.51l35.33-.315-32.876 158.115H333.18l32.934-157.8zm-301.26 157.8H26.602l75.235-140.288s8.16-17.827 37.75-16.61c29.607 1.207 31.132 18.736 31.132 18.736l17.166 138.16h-38.362l-16.88-126.692-67.79 126.694zM351.91 39.822l-6.943 33.81-82.763.3s-9.332-1.505-14.165 10.268c-4.84 11.815 1.798 17.194 4.2 17.224l57.396.314c5.646.014 30.157 5.342 28.688 34.402-1.41 28.49-21.422 48.037-18.717 44.097 2.72-3.893-11.14 17.072-27.46 17.072h-96.635l6.005-32.77 82.762-.588s10.868 1.208 15.687-11.503c4.835-12.67-1.16-16.565-6.024-16.605l-54.963-.295s-33.473-5.125-29.912-37.448c1.085-9.89 3.19-20.23 8.794-29.382 9.964-16.365 23.688-29.6 46.788-28.634 32.597-.89 87.26-.264 87.26-.264zM548.53 38.31l-6.346 33.513-77.908 1.22s-21.154-3.636-30.502 41.07c-9.366 44.704 13.27 48.022 13.27 48.022h74.915l-5.75 35.176h-83.948s-44.4-4.354-37.14-68.386c3.12-27.53 18.016-56.688 31.93-70.95C445.55 38.995 463.66 39.51 463.66 39.51l84.874-1.2zm10.786 15.098h3.376c.717 0 1.257-.098 1.666-.236.41-.13.714-.35.92-.724.217-.32.337-.67.337-1.05 0-.545-.234-1.005-.62-1.36-.423-.366-1.046-.535-1.925-.535h-3.754v3.905zm-1.542 6.62V48.184h5.235c1.056 0 1.857.103 2.41.316.53.187.98.595 1.294 1.148.34.5.518 1.103.518 1.75 0 .83-.287 1.575-.833 2.104-.533.63-1.374.954-2.52 1.128.418.22.737.392.952.59.448.422.89.934 1.29 1.58l2.062 3.23h-1.973l-1.575-2.497a38.02 38.02 0 0 0-1.116-1.622c-.31-.374-.55-.62-.8-.77-.24-.156-.474-.28-.726-.324-.175-.016-.475-.056-.86-.056h-1.817v5.268h-1.54zm5.2-15.597c5.34 0 9.677 4.32 9.677 9.663a9.67 9.67 0 0 1-9.678 9.675 9.65 9.65 0 0 1-9.674-9.675 9.647 9.647 0 0 1 9.675-9.662zm0-2.015c6.444 0 11.665 5.236 11.665 11.678 0 6.45-5.22 11.672-11.665 11.672-6.446 0-11.678-5.222-11.678-11.672 0-6.442 5.23-11.678 11.678-11.678z"/></svg>