<svg xmlns="http://www.w3.org/2000/svg" viewBox="0 0 600 200"><path d="M266.59 8.453c-2.083 8.765-4.123 17.342-6.196 26.056h33.062c-.528 2.702-1.023 5.274-1.536 7.842-1.155 5.788-2.32 11.575-3.482 17.362-.057.287-.17.566-.197.855-.044.488-.29.676-.765.648-.34-.02-.684-.002-1.026-.002h-29.76c-.34 0-.686.026-1.025-.005-.622-.056-.832.233-.932.826-.35 2.068-.762 4.125-1.147 6.188-2.003 10.743-4.003 21.486-6.007 32.23-1.513 8.104-3.007 16.213-4.552 24.312-.768 4.025-1.68 8.024-2.21 12.092-.47 3.635-.804 7.28-.717 10.955a14.7 14.7 0 0 0 .35 2.758c.7 3.238 2.803 5.16 6.123 5.637 1.112.16 2.23.282 3.358.232 3.952-.175 7.917-.266 11.796-1.125 2.233-.494 4.427-1.17 6.632-1.76.362.375.153.76.077 1.113-1.8 8.344-3.632 16.68-5.383 25.035-.203.97-.657 1.374-1.494 1.712-3.564 1.437-7.29 2.182-11.08 2.602-4.714.524-9.443.792-14.185.342-6.59-.626-12.74-2.45-17.997-6.654-5.337-4.267-8.43-9.902-9.854-16.51-.755-3.504-.874-7.052-.75-10.634.303-8.673 1.873-17.16 3.53-25.644 1.833-9.385 3.604-18.78 5.403-28.172 1.817-9.487 3.637-18.973 5.453-28.46.44-2.297.87-4.594 1.33-7.034h-19.35c-.367-.272-.313-.48-.28-.655 1.55-8.396 3.12-16.788 4.634-25.19.163-.905.643-.91 1.32-.91 5.815.012 11.63.008 17.444.007 1.433 0 1.434-.003 1.794-1.425l5.85-23.12c.318-1.252.32-1.266 1.638-1.28 3.517-.035 7.035-.058 10.55-.086l18.027-.14c.438-.003.874 0 1.556 0zM388.363 34.553c-.68 3.43-1.318 6.68-1.973 9.93-1.04 5.16-2.09 10.318-3.144 15.476-.234 1.143-.254 1.156-1.394 1.157-10.3.005-20.6.005-30.9 0-1.29 0-1.285-.016-1.03-1.332 1.528-7.848 3.05-15.696 4.575-23.544.037-.19.086-.38.128-.57.258-1.155.258-1.172 1.37-1.172 10.495-.004 20.99-.002 31.486 0 .24 0 .48.03.883.055zM341.18 34.62c-.595 3.016-1.183 6.02-1.784 9.02-1.035 5.166-2.078 10.33-3.12 15.495-.077.382-.214.76-.235 1.145-.038.726-.446.9-1.074.838-.194-.02-.39-.002-.586-.002h-30.34c-1.35-.002-1.61.284-1.255-1.488 1.616-8.034 3.166-16.08 4.71-24.13.13-.673.287-1.02 1.07-1.018 10.7.024 21.398.018 32.097.024.143 0 .283.062.52.117zM480.86 100.802c2.494-2.686 5.578-3.807 9.217-3.554 3.692.257 5.64 2.4 5.537 6.135-.05 1.77-.453 3.483-.783 5.205-1.237 6.468-2.507 12.93-3.763 19.393-.242 1.25-.24 1.26-1.456 1.263-2.238.007-4.478.002-6.865.002.396-2.105.753-4.062 1.134-6.015 1.01-5.17 2.038-10.338 3.035-15.51.128-.667.166-1.362.148-2.04-.035-1.368-.675-2.03-2.038-2.22-2.058-.29-3.896.622-4.92 2.444-.56.993-.81 2.084-1.027 3.19-1.24 6.366-2.51 12.728-3.7 19.105-.166.898-.515 1.078-1.33 1.06-2.288-.046-4.58-.015-6.96-.015.62-3.247 1.2-6.358 1.806-9.465 1.334-6.846 2.68-13.69 4.018-20.536.235-1.203.232-1.21 1.498-1.215a426.22 426.22 0 0 1 5.423.002c1.03.01 1.025.03.836 1.09-.078.433-.126.87-.187 1.305-.054.308-.016.518.377.375zM437.756 158.785c.05-1.137.346-2.043.07-2.976-.195-.653-.492-1.144-1.122-1.438-1.83-.856-4.68.14-5.585 1.967-.93 1.88-.398 3.483 1.546 4.312 1.523.65 3.105 1.158 4.66 1.73.916.338 1.823.69 2.69 1.147 2.477 1.3 3.554 3.35 3.397 6.123-.357 6.345-4.41 10.67-10.84 11.423-2.478.29-4.97.276-7.437-.23-1.01-.206-1.978-.528-2.858-1.08-1.415-.885-2.237-2.172-2.426-3.817-.19-1.66-.056-3.314.285-4.954.095-.456.265-.685.755-.682 2.144.012 4.29.006 6.415.006.267.51.067.92-.004 1.335-.485 2.855.944 4.416 3.846 4.207 2.334-.167 3.952-1.684 4.226-3.925.124-1.013-.177-1.818-.99-2.442-.55-.42-1.16-.72-1.798-.97-1.68-.655-3.358-1.32-5.04-1.972a9.188 9.188 0 0 1-2.642-1.543c-2.27-1.915-2.51-4.427-1.968-7.088 1.007-4.956 4.232-7.785 9.01-8.906 2.93-.688 5.914-.726 8.842.114 3.174.91 4.65 2.94 4.637 6.248a13.148 13.148 0 0 1-.32 2.758c-.104.472-.312.657-.782.655-2.143-.01-4.287-.005-6.57-.005zM426.024 119.64c.772-1.994 1.547-3.986 2.314-5.98 1.854-4.823 3.712-9.644 5.552-14.47.533-1.4.532-1.153 1.655-1.157 2.193-.01 4.384-.003 6.532-.003.315.437.035.72-.09 1.003-4.34 9.754-8.695 19.502-13.022 29.262-.29.654-.592.99-1.374.972-2.488-.053-4.98-.043-7.47-.004-.675.01-.966-.17-1.002-.872-.092-1.802-.252-3.602-.364-5.405-.335-5.36-.655-10.72-.992-16.08-.162-2.58-.36-5.16-.516-7.743-.067-1.105-.035-1.122 1.077-1.128a525.83 525.83 0 0 1 6.153 0c1.16.007 1.17.02 1.175 1.246.03 6.494.053 12.99.078 19.483v.84c.1.01.197.024.296.037zM139.8 160.6c.05-.25.188-.525.43-.478.32.06.147.38.115.582-.03.18-.142.35-.217.523-.103-.212-.045-.51-.33-.628z"/><path d="M480.86 100.802c-.08.266-.302.608-.502.457-.25-.19-.116-.58.13-.832l.372.374zM359.16 152.475c1.76-1.92 3.818-3.325 6.447-3.744 1.607-.255 3.21-.27 4.792.164 2.264.623 3.512 2.145 3.766 4.493.252 2.33-.335 4.562-.766 6.81-1.214 6.32-2.46 12.637-3.693 18.955-.056.287-.125.57-.177.86-.07.39-.27.58-.69.578-2.435-.01-4.87-.006-7.365-.006-.007-1.492.413-2.798.663-4.12 1.09-5.75 2.237-11.49 3.36-17.232.15-.77.24-1.546.183-2.33-.09-1.24-.628-1.828-1.87-2.078-1.944-.392-3.952.522-5.002 2.277-.638 1.068-.9 2.257-1.13 3.457-1.204 6.224-2.408 12.45-3.62 18.672-.262 1.353-.278 1.353-1.656 1.355-2.19.003-4.382 0-6.69 0 .617-3.238 1.197-6.34 1.8-9.437 1.33-6.845 2.673-13.688 4.008-20.532.235-1.206.23-1.214 1.49-1.217 2.094-.006 4.188-.002 6.364-.002.115.877-.308 1.597-.288 2.356-.004.243-.28.514.074.72zm-26.042 25.79l-.324 2.14c.39.28.79.176 1.17.178 1.758.01 3.517.01 5.276.003 1.218-.005 1.213-.013 1.455-1.25 1.534-7.85 3.074-15.698 4.604-23.548.405-2.083.785-4.17 1.2-6.39-2.437 0-4.728.044-7.015-.02-.89-.027-1.12.3-1.276 1.124-1.193 6.325-2.45 12.64-3.68 18.957-.233 1.2-.496 2.388-1.142 3.45-1.13 1.86-3.298 2.734-5.3 2.14-1.03-.304-1.435-.79-1.54-1.87a7.642 7.642 0 0 1 .122-2.187c1.094-5.65 2.22-11.293 3.297-16.945.286-1.504.743-2.99.777-4.65-2.302 0-4.493-.004-6.684 0-1.29.004-1.284.012-1.542 1.34-1.247 6.413-2.513 12.824-3.737 19.243-.41 2.152-.942 4.29-.74 6.522.2 2.202 1.354 3.624 3.405 4.298 1.9.624 3.85.54 5.793.177 2.356-.44 4.208-1.73 5.802-3.455.37.212.07.493.078.743zm48.112-22.618c-.858 4.452-1.723 8.902-2.57 13.355-.457 2.394-1.07 4.764-1.177 7.212-.118 2.74.812 4.075 3.488 4.417 2.55.326 5.068.04 7.6-.04.435-.012.608-.254.677-.614.312-1.618.612-3.238.913-4.842-.45-.194-.845-.098-1.23-.09-2.69.066-3.252-.537-2.746-3.206 1.016-5.364 2.11-10.712 3.12-16.077.137-.726.472-.845 1.08-.83.975.02 1.953-.024 2.928.014.616.024.877-.25.977-.82.267-1.524.56-3.046.88-4.77h-4.6l1.717-8.942c-2.58 0-5.057.004-7.534-.003-.523-.002-.612.32-.692.745-.46 2.442-.987 4.874-1.405 7.323-.13.764-.453.968-1.153.93-.78-.042-1.562 0-2.343-.012-.424-.006-.787.053-.88.553l-.923 5.003h3.803c.198.328.106.51.07.694zm-83.087 34.914c1.268.005 2.54.045 3.803-.022 4.945-.26 7.72-2.633 8.775-7.456.032-.143.043-.29.07-.434 1.834-9.38 3.67-18.758 5.498-28.14.323-1.653.617-3.31.95-5.107-2.587 0-5.02.01-7.455-.004-.717-.004-.698.5-.79.985-1.76 9.097-3.517 18.193-5.3 27.284-.308 1.576-.526 3.177-1.09 4.695-.686 1.84-1.304 2.3-3.23 2.374-.195.007-.396.032-.584-.007-.598-.124-.775.232-.864.71l-.94 5.036c.484.038.82.087 1.157.088zm19.19-44.914c.452.002.7-.128.79-.627.34-1.864.72-3.72 1.1-5.576.12-.584-.1-.78-.677-.775-2.19.017-4.38.013-6.568 0-.45-.002-.758.123-.847.594l-1.203 6.378c2.552 0 4.98-.005 7.407.004zm41.753 6.11c-.28.245-.355.603-.197.878.148.26.26.047.27-.16l-.074-.72zm-25.968 26.51c.28-.253.35-.615.198-.895-.147-.268-.26-.053-.277.154.025.246.05.494.078.74zM370.31 101.105c2.95-3.482 6.716-4.53 11.065-3.543 2.405.545 3.684 2.24 3.86 4.722.09 1.274-.034 2.533-.28 3.785-1.44 7.366-2.895 14.73-4.286 22.11-.165.866-.465 1.107-1.31 1.086-2.288-.056-4.577-.02-6.986-.02.538-2.8 1.045-5.47 1.564-8.138.893-4.594 1.794-9.187 2.69-13.78a6.4 6.4 0 0 0 .07-.433c.337-2.684-.9-3.865-3.584-3.41-1.797.306-2.968 1.39-3.666 3.027-.677 1.587-.852 3.3-1.182 4.97-1.108 5.595-2.18 11.197-3.262 16.798-.094.486-.113.977-.82.973-2.433-.015-4.867-.006-7.442-.006.365-1.947.693-3.756 1.044-5.562 1.533-7.896 3.078-15.79 4.607-23.686.38-1.965.362-1.97 2.34-1.97 1.513 0 3.027-.006 4.54.005.38.003.786-.103 1.173.21l-.464 2.84c.092.25.215.057.327.02zm-29.705-3.074c-1.906-.002-3.812-.01-5.718.003-1.054.007-1.06.023-1.272 1.117-1.638 8.38-3.277 16.758-4.91 25.14-.314 1.607-.602 3.22-.925 4.957 2.387 0 4.63.004 6.87-.002 1.157-.003 1.17-.01 1.39-1.124 1.256-6.415 2.507-12.832 3.758-19.25.197-1.01.453-2 .95-2.91.998-1.834 2.823-2.762 4.892-2.506 1.424.177 2.09.877 2.11 2.312.008.63-.038 1.274-.158 1.893-1.1 5.7-2.247 11.392-3.324 17.097-.275 1.456-.71 2.898-.743 4.49 2.288 0 4.483.01 6.677-.004 1.516-.01 1.233.19 1.535-1.318 1.32-6.602 2.585-13.216 3.864-19.826.372-1.917.79-3.826.654-5.805-.17-2.476-1.433-4.175-3.842-4.736-3.808-.888-7.263-.156-10.19 2.578-.382.358-.646.85-1.253 1.144.185-1.086.355-2.076.52-3.033-.296-.255-.596-.22-.885-.22zM322.07 87.846c-.506-.002-.656.274-.73.717-.18 1.057-.395 2.108-.6 3.16-2.013 10.333-4.028 20.666-6.04 31-.414 2.13-.81 4.267-1.237 6.523 2.676 0 5.21-.016 7.743.012.595.007.73-.302.818-.776.235-1.244.5-2.483.74-3.727 1.926-9.903 3.85-19.807 5.772-29.71.454-2.34.895-4.685 1.373-7.194-2.69 0-5.265.004-7.84-.005zm47.91 13.238c-.184.103-.315.308-.1.4.218.094.41-.106.428-.378l-.327-.022zM193.395 35.402c-2.073-.548-4.113-1.23-6.19-1.758-9.255-2.356-18.67-3.638-28.198-4.187-8.275-.477-16.497-.138-24.678 1.214-12.127 2.006-23.496 6.09-34.006 12.47C83.267 53.49 70.6 67.873 61.886 85.723c-8.543 17.502-12.47 35.99-10.916 55.496.563 7.07 2.402 13.842 5.65 20.173 4.917 9.59 12.236 16.602 22.42 20.41 8.658 3.235 17.55 3.51 26.546 1.8 9.153-1.74 17.062-5.987 24.045-12.077 3.773-3.29 7.05-7.033 10.17-10.926.684-.093.436.304.328.627-.547 3.172-1.087 6.346-1.643 9.517-.615 3.505-1.244 7.006-1.862 10.483.41.284.81.186 1.19.187 9.09.005 18.18.005 27.268.003 1.225 0 1.237-.008 1.416-.936 1.957-10.155 3.91-20.312 5.863-30.468 1.907-9.917 3.817-19.834 5.723-29.75s3.81-19.837 5.717-29.754c1.907-9.917 3.823-19.833 5.728-29.75 1.537-8.003 3.048-16.008 4.617-24.004.155-.79.06-1.138-.75-1.352zm-35.602 22.953c-1.15 5.99-2.226 11.994-3.378 17.982-1.318 6.85-2.547 13.723-4.073 20.53-3.77 16.805-10.91 32-22.16 45.145-3.35 3.913-7.106 7.4-11.45 10.208-3.48 2.25-7.174 4.01-11.357 4.405-7.596.718-14.65-2.044-18.397-9.705-1.563-3.195-2.378-6.596-2.86-10.093-.346-2.522-.41-5.06-.5-7.646 1.087-25.125 10.785-45.978 30.903-61.544 6.89-5.33 14.7-8.825 23.323-10.385 4.355-.787 8.74-.88 13.14-.598 2.046.13 4.09.294 6.114.66.715.13.83.34.696 1.043zM527.455 87.877c-2.345-.015-4.69-.007-7.035-.038-.68-.01-.773.392-.87.915a458.54 458.54 0 0 1-1.476 7.615c-.29 1.414-.43 2.865-.95 4.352-.318-.457-.553-.822-.814-1.168-.957-1.27-2.222-2.07-3.8-2.25-3.888-.443-7.122.773-9.544 3.92-.93 1.208-1.627 2.547-2.213 3.95-1.287 3.078-2.037 6.302-2.634 9.57-.52 2.848-.79 5.71-.554 8.602.282 3.45 1.933 5.67 4.93 6.29 3.38.698 6.516.18 9.055-2.43.262-.268.443-.642.94-.802.1.96-.465 1.81-.266 2.843 2.165 0 4.357-.038 6.547.02.81.02 1.15-.272 1.21-1.03.018-.242.094-.48.14-.72 2.024-10.39 4.048-20.78 6.068-31.17.54-2.775 1.064-5.552 1.59-8.307-.152-.08-.237-.163-.323-.163zm-12.283 23.143c-.467 2.94-1.03 5.854-2.044 8.664-.315.873-.65 1.74-1.22 2.485-1.043 1.363-2.423 1.923-4.113 1.592-1.227-.24-1.868-.926-2.028-2.172-.1-.77-.09-1.556-.12-2.196.335-4.195 1.065-8.16 2.44-11.995.263-.737.57-1.456 1.01-2.104.826-1.21 1.962-1.87 3.45-1.867 1.73.004 2.744.9 2.888 2.634.136 1.658-.002 3.31-.263 4.956zM461.334 97.71c-3.378-.778-6.797-.768-10.143.208-4.388 1.28-7.547 5.324-7.635 9.733 2.142 0 4.284-.006 6.425.006.487.003.7-.222.77-.676a6.47 6.47 0 0 1 .206-.854c.76-2.56 2.777-3.786 5.406-3.285 1.152.22 1.83.906 1.897 2.09.126 2.243-.62 4.324-3.295 4.997-.33.083-.66.178-.987.27-2.393.672-4.848 1.12-7.175 2.022-5.348 2.075-8.456 8.173-6.992 13.725.59 2.23 2.152 3.624 4.44 3.858 1.557.16 3.11.088 4.667-.187 1.812-.32 3.282-1.178 4.526-2.5.245-.26.395-.678.93-.705.052.697.085 1.364.16 2.026.063.552.334.833.966.823 2.24-.036 4.482-.014 6.953-.014-.323-1.86-.25-3.554.08-5.245 1.11-5.646 2.213-11.295 3.288-16.948.192-1.002.357-2.014.36-3.05.014-3.577-1.363-5.49-4.846-6.292zm-4.77 16.906c-.34 1.82-.616 3.652-1.033 5.453-.604 2.614-3 4.467-5.633 4.477-1.345.006-1.95-.47-2.263-1.787-.64-2.678.808-5.656 3.302-6.82.668-.313 1.37-.51 2.08-.67a13.56 13.56 0 0 0 2.89-1.003.923.923 0 0 1 .343-.208.322.322 0 0 1 .253-.063c.17.19.143.402.06.62z"/><path d="M456.563 114.616l-.06-.62c.033-.12.14-.178.198-.092.18.268.096.51-.137.712zM456.248 114.06c-.05.176-.166.24-.343.207.073-.138.173-.23.343-.208zM419.23 156.578c-.305-4.45-2.164-7.132-6.926-7.86-1.603-.245-3.222-.224-4.825-.082-3.383.3-6.32 1.587-8.61 4.17-1.21 1.363-2.117 2.915-2.84 4.586-1.01 2.34-1.694 4.783-2.166 7.275-.618 3.263-1.148 6.54-.71 9.888.46 3.486 2.332 5.546 5.744 6.343 1.253.293 2.52.258 3.816.374.895-.05 1.827-.06 2.747-.164 3.338-.38 6.177-1.732 8.32-4.386.927-1.145 1.667-2.404 2.275-3.744 1.013-2.232 1.69-4.572 2.19-6.962.65-3.11 1.202-6.245.984-9.438zm-8.08 2.74c-.344 4.04-1.08 8-2.384 11.848-.345 1.018-.764 2.004-1.392 2.882-.74 1.037-1.71 1.72-3.023 1.82-1.843.14-2.973-.74-3.26-2.578-.19-1.213-.143-2.44.024-3.645.473-3.425 1.103-6.824 2.053-10.153.374-1.313.888-2.58 1.737-3.676.854-1.1 1.94-1.74 3.38-1.707 1.526.035 2.473.777 2.745 2.296.17.957.274 1.932.12 2.913zM413.096 105.002c-.28-4.623-2.82-7.273-7.427-7.693-1.117-.103-2.247-.098-3.368-.065-5.107.152-8.95 2.436-11.45 6.906-.475.85-.885 1.742-1.235 2.65-1.65 4.27-2.484 8.71-2.75 13.675.035.625.042 1.654.158 2.67.408 3.558 2.352 5.675 5.83 6.416 2.275.485 4.572.424 6.853.153 2.005-.238 3.89-.902 5.56-2.093 2.086-1.49 3.51-3.507 4.577-5.795 1.035-2.22 1.72-4.56 2.232-6.95.695-3.253 1.22-6.527 1.02-9.873zm-8.473 6.424c-.445 2.89-1.038 5.746-2.018 8.51-.31.875-.682 1.718-1.18 2.505-.45.715-1.02 1.306-1.78 1.69-2.344 1.188-4.486.02-4.733-2.592-.046-.483-.007-.974-.007-1.46.396-4.467 1.125-8.877 2.563-13.144a8.394 8.394 0 0 1 1.29-2.444c.482-.626 1.044-1.18 1.805-1.44 1.98-.677 4.086-.293 4.406 2.42.24 2.015-.044 3.983-.347 5.956zM552.398 104.828c-.277-4.176-2.357-6.55-6.422-7.366-1.696-.34-3.408-.294-5.11-.176-4.14.287-7.464 2.092-9.858 5.52-.87 1.245-1.543 2.595-2.096 4.01-.874 2.234-1.467 4.547-1.926 6.893-.583 2.978-.947 5.982-.69 9.025.327 3.86 2.293 6.047 6.05 6.865 1.21.263 2.426.236 3.32.28 7.562.13 11.608-3.15 14.086-9.427.7-1.774 1.223-3.602 1.627-5.46.726-3.348 1.247-6.72 1.018-10.165zm-7.998 2.933c-.35 3.99-1.076 7.91-2.306 11.727-.373 1.16-.83 2.292-1.568 3.282-.797 1.07-1.828 1.735-3.2 1.776-1.565.046-2.436-.585-2.91-2.115-.07-.23-.15-.466-.172-.705-.048-.533-.06-1.07-.09-1.688.247-3.282.934-6.57 1.684-9.845.316-1.378.685-2.737 1.273-4.03.388-.85.87-1.627 1.538-2.29 1.03-1.023 2.284-1.26 3.645-1.017 1.02.183 1.59.91 1.85 1.863.273.99.347 2.014.257 3.043z"/></svg>