<svg xmlns="http://www.w3.org/2000/svg" viewBox="0 0 500 500"><path d="M338.3 222.9c24.5 42.9 34.2 76.5 22.4 85.7-12.7 10-47.4-11.4-87.1-50.8-1.3-1.3-2.1-4.4.3-6.8 1.5-1.4 4.2-1.7 6.2-.3.7.4 1.5 1.1 2 1.7 30.9 31 56.4 48.2 64.8 41.7 8.1-6.3-1.9-33.6-23.5-69.4-20.2 2.2-42.4 3.4-65.9 3.5H253.8c-23.5-.1-45.7-1.3-65.9-3.5-21.6 35.8-31.6 63.1-23.5 69.4 8.4 6.5 33.8-10.7 64.8-41.7.6-.6 1.3-1.3 2-1.7 1.8-1.4 4.7-1.1 6.2.3 2.5 2.4 1.6 5.5.3 6.8-39.8 39.4-74.4 60.8-87.2 50.8-11.7-9.2-2-42.8 22.5-85.7-52.1-7.2-87.39-20.7-87.25-36.4 0-16.6 40.25-30.9 98.35-37.4 3.5-.1 5.4 2.4 5.4 4.8.1 2-1.3 4.4-3.7 4.9-.4 0-.9.1-1.4.3-46.8 4.8-78.7 14.3-78.7 25.4 0 10.8 30.1 20.4 75 25.5 11.6-19.2 26-39.7 42.2-60.5 7.7-9.8 15.5-19 23.2-27.9-39.7-44.23-74.8-71.12-84.9-63.19-7.9 6.16 1.1 32.06 21.2 66.09.5 1.1 1.1 4.4-1.4 6-2.3 1.7-5.5.7-6.9-1.5-.1-.4-.5-.8-.7-1.3-24.7-43.07-34.7-76.96-22.9-86.23C165 30.14 207.6 59.02 253.8 109c.6.7 1.1 1.2 1.9 2 .5-.8 1.2-1.3 1.8-2 46.3-49.98 88.8-78.86 103.2-67.53 11.9 9.27 2 43.16-22.8 86.23-.1.5-.6.9-.7 1.3-1.4 2.2-4.6 3.2-6.8 1.5-2.6-1.6-2-4.9-1.5-6C349 90.47 358 64.57 350.1 58.41c-10.2-7.93-45.2 18.96-84.9 63.19 7.7 8.9 15.4 18.1 23 27.9 16.4 20.8 30.8 41.3 42.5 60.5 44.8-5.1 74.9-14.7 74.9-25.5 0-11.1-31.8-20.6-78.6-25.4-.6-.2-1-.3-1.5-.3-2.4-.5-3.8-2.9-3.7-4.9 0-2.4 1.9-4.9 5.3-4.8 58.2 6.5 98.5 20.8 98.5 37.4.1 15.7-35.2 29.2-87.3 36.4zm-23.2-11.5c-10.6-16.6-23.6-34.7-38.1-53.1-6.5-8.2-12.9-16.2-19.5-23.7-.6-.7-1.3-1.4-1.8-2.3-.8.9-1.3 1.6-1.9 2.3-6.5 7.5-13.1 15.5-19.5 23.7-14.5 18.4-27.4 36.5-38.1 53.1 18.1 1.6 38 2.4 58.9 2.6h1.1c20.9-.2 40.9-1 58.9-2.6zM284.7 199c1.8-.1 2.4-1.4 1.3-2.8 0 0-10.8-14.9-18.7-24.3-4-4.6-9.4-10.7-9.4-10.7-1.2-1.4-3.2-1.4-4.5 0 0 0-5.4 6.1-9.4 10.7-7.8 9.4-18.6 24.3-18.6 24.3-1.2 1.4-.6 2.7 1.2 2.8 0 0 17.5 1 29.1 1 11.5 0 29-1 29-1zm87.8 148v3.3h-6.3l-.1 11.1h-3.4l.1-11.1-6.2-.1v-3.3zm-36.4 3.2c0 .4.1.8.1 1.4v1h-3.6v-1c0-.7-.1-1-.1-1.3-.1-.1-.1-.3-.3-.3-.1-.1-.4-.3-.8-.3-.5 0-1.2-.1-1.9-.1h-5.3c-.4.1-.7.1-.8.3-.1 0-.3 0-.3.1-.1.2-.1.3-.1.6-.2.3-.2.7-.2 1.1 0 .6-.1 1.3-.1 2v2c0 .4.1.9.1 1.3 0 .3.2.4.2.4.1.2.1.2.3.3.2 0 .5.1.8.1.6 0 1.1.2 1.7.2h5.1c.3 0 .7-.2.9-.2.3-.1.4-.1.4-.1 0-.1.2-.1.2-.3 0-.1.1-.3.1-.5 0-.3 0-.6.1-1v-1l3.5.1v1c0 .6 0 1-.2 1.4 0 .6-.1 1-.4 1.4-.2.5-.4.9-.9 1.2-.4.3-.8.6-1.4.8-.4.2-1 .3-1.7.3-.6.2-1.3.2-2.1.2h-3.6c-1 0-1.8-.2-2.5-.3-.8-.2-1.5-.3-1.9-.6-.6-.4-1.1-.8-1.4-1.3-.3-.4-.4-1-.6-1.5-.1-.6-.1-1.2-.1-1.9v-4c0-.7.1-1.3.1-1.8.2-.6.4-1.2.7-1.6.3-.4.9-.8 1.3-1.1.6-.3 1.3-.6 2-.7.7-.2 1.6-.2 2.6-.2h3.5c.9 0 1.6.2 2.1.2.8.1 1.3.2 1.8.4.5.3 1 .4 1.4.7.3.4.5.7.8 1.1.2.5.3.9.5 1.5zm-47.6 1.4l10.3.1v3.3l-10.3-.1v2.4l10.8.1-.1 3.3-14.2-.1.1-14.4 14.2.1v3.3l-10.8-.1zm-28.3-5.7h3.6l-.2 9.8c0 .7-.1 1.4-.3 1.9-.1.7-.5 1.1-1 1.5-.4.5-.9.7-1.7.9-.5.1-1.2.3-2.1.3l-3.7-.2c-.8 0-1.6 0-2.1-.3-.6-.1-1.2-.4-1.6-1-.3-.4-.6-1-.7-1.7 0-.5-.1-1.2-.1-2.1l.1-1.4h3.4v1.4c0 .6 0 1.1.2 1.4 0 .3.1.5.1.5h.8l3.6.1c.6 0 .9-.1 1-.1.1 0 .3-.2.4-.2 0-.1 0-.1.2-.3v-.8zm-30.3 4.8v4c0 .7-.1 1.3-.3 1.9-.1.5-.3 1.1-.5 1.5-.3.5-.9.9-1.5 1.2-.4.3-1.1.5-1.8.7-.7.1-1.6.1-2.6.1l-4.7-.1c-1 0-1.8 0-2.5-.2-.8-.1-1.3-.4-1.9-.7-.6-.3-1-.7-1.3-1.1-.3-.4-.5-1-.7-1.6 0-.5-.1-1.1-.1-1.8v-4.2c.1-.5.1-1.1.3-1.7.1-.5.2-1.1.7-1.5.3-.6.7-.9 1.3-1.3.5-.3 1.1-.4 1.8-.6.7-.1 1.6-.1 2.6-.1h4.7c1 0 1.8.1 2.5.3.7.1 1.4.3 1.9.7.5.3 1 .7 1.4 1.1.3.4.4 1 .6 1.6.1.6.1 1.1.1 1.8zm-5 6.2c.3-.2.6-.2.9-.3.1 0 .1 0 .3-.2 0-.1.1-.3.1-.5.1-.3.1-.8.1-1.2v-2c0-.8.2-1.4 0-2v-1.2c-.1-.2-.1-.5-.2-.5 0-.1-.2-.1-.2-.3-.3 0-.5-.1-1-.1-.4 0-1-.1-1.5-.1H217.1c-.4 0-.7.1-1 .1 0 .1-.1.1-.3.3 0 .1-.1.3-.1.4 0 .4-.2.9-.2 1.3v4c0 .4 0 .8.2 1.1 0 .4.1.6.1.6 0 .1.2.1.3.3.1 0 .4.1.9.1h1.7l4.5.2zm-33.3-8.3v1.1c0 .6 0 1.2-.1 1.6-.2.4-.3 1-.6 1.3-.1.3-.3.4-.4.6.1.1.3.2.4.4.2.4.3.8.3 1.3.1.4.1.8.1 1.2l-.1 3.5-3.4-.2v-4.1c0-.3-.2-.4-.2-.4s0-.2-.2-.2c-.3-.1-.6-.1-1-.1h-1.7l-6-.2v5l-3.6-.1.2-14.3h9.6c1 0 1.9.2 2.6.2.7.1 1.3.3 1.8.4.6.2 1 .4 1.3.7.3.3.6.6.7 1 .2.4.3.9.3 1.3zm-5 2.7c.5-.1.8-.1 1-.1l.3-.2c.2-.1.2-.1.2-.4v-2s-.2 0-.5-.1h-1c-.4-.2-1-.2-1.7-.2h-6.1l-.1 2.9 6.2.1zm-31.8-3.1V350.6c0 .4-.2.8-.3 1.3-.2.4-.4.7-.7 1-.5.4-.9.5-1.4.8-.5.2-1 .3-1.8.3-.7.1-1.5.1-2.5.1l-5.7-.1v5h-3.6l.2-14.4 10.2.2h2.2c.5.1 1.1.2 1.5.4.4.3.9.4 1.2.8.2.3.4.6.5 1 .2.5.2.7.2 1.2zm-3.6 1.1v-1.1s-.1 0-.3-.2h-1c-.5 0-1.1 0-1.7-.1h-5.7l-.1 2.8 5.7.2h1.7c.4 0 .7-.2 1-.2.3 0 .4-.1.4-.1v-.3zm275.9 80.3v11.6c0 5.9-2.5 7.9-6.7 7.9-3.9 0-6.5-2-6.5-7.9v-43.9c0-5.9 2.6-8 6.5-8 4.2 0 6.7 2.1 6.7 8v8.6h12v-7.8c0-12.9-6.4-20.5-18.9-20.5-12.6 0-19.1 7.6-19.1 20.5v42.3c0 12.9 6.5 20.5 19.1 20.5 12.5 0 18.9-7.6 18.9-20.5v-10.8zm-69.4 30.3h12.8v-81.3h-12.8zm-67.5-81.3h-17.7v81.3h11.2v-57.5l9.5 57.5h12l8.8-58.4v58.4h12.1v-81.3h-17.6l-8.9 57.7zm-86.9 61.8c0 12.9 6.8 20.5 19.3 20.5 12.6 0 19.4-7.6 19.4-20.5v-42.3c0-12.9-6.8-20.5-19.4-20.5-12.5 0-19.3 7.6-19.3 20.5zm12.8-43.1c0-5.9 2.6-8 6.5-8 4.2 0 6.7 2.1 6.7 8v43.9c0 5.9-2.5 8-6.7 8-3.9 0-6.5-2.1-6.5-8zm-79.1-7.2h13.4v69.8H163v-69.8h13.4v-11.5H137zm-33.2-11.5H85.19l-13.1 81.3h11.82l2.13-14.7h15.76l2.2 14.7h12.9zM93.87 393l6.11 41.1H87.75z"/></svg>