<svg xmlns="http://www.w3.org/2000/svg" viewBox="0 0 515.7 237.6"><path d="M509.2 155c0-.9-.6-2.3-2.6-2.1-11.5 0-17.4-6.2-17.4-18.2V99.1c0-.6.5-1.1 1.1-1.1h18.2c1.2 0 2.2-1 2.2-2.1V88c0-1.2-1-2.2-2.2-2.2h-18c-.7 0-1.2-.5-1.2-1.2V68.3c0-1.7-1.4-2.3-2.3-2.2l-9.4.7c-1.1 0-2.1 1-2.1 2.2v15.7c0 .6-.5 1.1-1.1 1.1H463c-1.1 0-2.1 1-2.1 2.2v7.9c0 1.2 1 2.1 2.2 2.1h11.3c.6 0 1.1.5 1.1 1.1v38c0 20.3 15.4 27.6 28.8 27.6 0 0 1.7 0 2.8-.1 1.2-.1 2.1-1 2.1-2.2V155zm-75.7-9.4c-3.7 4.4-7.8 7.4-13.8 7.4-7 0-12.5-5.1-12.5-11.5 0-5.7 2.4-9.1 9.7-13.5.5-.3 1-.2 1.4.1l15.1 15.8c.5.7.3 1 .1 1.7zm-12.4-32.9c-.3.2-1.1.1-1.3-.3-2.2-2.4-4.9-6.3-4.9-9.1 0-4.8 3.4-8.5 8.4-8.5 4.8 0 7.3 3.4 7.3 7.4 0 4.8-4.3 7.6-9.5 10.5zm42.9 46l-14.4-14.8c-.4-.4-.6-1.1-.2-1.6l11-18.5c.2-.5.3-.9.3-1.1 0-1.1-1-2.1-2.2-2.1h-8c-.8 0-1.5.4-1.9 1.1l-7 12c-.3.5-1 .6-1.5.3l-11.2-11.6c-.4-.7-.1-.9.2-1.5 6.4-3.8 13.6-9.2 13.6-18.8 0-11-7.9-18.4-19.6-18.4-11.5 0-20.2 7.7-20.2 19.2 0 5.1 2.1 10.1 6.6 15.9.1.7 0 1-.3 1.2-9.5 5.4-14.4 12.6-14.4 21.4 0 15 12.5 22.8 24.9 22.8 8.5 0 15.1-3.3 21.5-10.7.5-.4 1.2-.4 1.6 0l7.8 8.1c.6.5 1.1.7 1.6.7h10.3c1.1 0 2.1-.9 2.1-2.1 0-.5-.2-1.1-.6-1.5zm-98.7-92.6l-9.4.7c-1.1 0-2.1 1-2.1 2.2v15.7c0 .6-.5 1.1-1.2 1.1h-11.3c-1.2 0-2.2 1-2.2 2.2v7.9c0 .6.3 1.1.7 1.5.3.4 1 .6 1.5.6h11.3c.7 0 1.2.5 1.2 1.1v38c0 20.3 15.3 27.6 28.8 27.6 0 0 1.5 0 2.8-.1 1.2-.1 2.1-1 2.1-2.2V155c0-1.2-1-2.1-2.4-2.1-11.5 0-17.6-6.2-17.6-18.2V99.1c0-.6.5-1.1 1.1-1.1h18.1c1.2 0 2.1-1 2.1-2.1V88c0-1.2-.9-2.2-2.1-2.2h-18c-.7 0-1.2-.5-1.2-1.1V68.3c0-1.1-.9-2.2-2.2-2.2zm-31.8 93.2c-.7-2.1-.9-4.4-1-5.4v-41.3c0-19.8-14.2-26.9-27.2-26.9-10.4 0-19.9 2.8-26 6.8-1.2.8-1.2 2-.7 3l4.9 6.5c1.1 1.4 2.3 1 3.6.1 4.8-3 10.4-4.7 16.1-4.7 16.2 0 15.8 12.7 15.8 14.3 0 .9-.5 1.1-1.2 1.1l-2.5-.1c-12.5-.4-44.4 3.8-44.4 29.1 0 14.9 12.4 22.4 23.9 22.4 11.2 0 20.2-4.4 24.7-9.9.3-.3.6 0 .6.2-.1.7 0 2.2.1 3.6.2 3.4.9 4.4 2.5 4.5h9c1.2 0 2.1-.9 2.1-2 0-.4-.3-1.3-.3-1.3zm-14-29.4c-1.9 12.9-8.2 20.4-20 22.3-8.2 1.4-15.9-2-16.2-10.9-.4-9.8 10.8-18 31.8-17.1 0 0 1.5.1 2.5.3 2.4.2 2.4 1.5 1.9 5.4zM9.21 88c1.81-6.5 4.21-12.8 7.09-18.8-1.3 3.1-1.99 6.5-1.99 11.4 0 27.7 59.92 55 133.49 35 28.6-7.9 71.4-22.8 71.4-45.9 0-1.1.5-3.7-3.3-10.3 4.6 7.7 8.6 16.1 11.4 24.9 1.3 4.6 1.1 7.9 1.1 9.1 0 5.7-7 40.2-75.9 46.5-6 .5-49.8 1.2-87.89-8.5-25.34-6.4-50.76-18.8-55.57-36-.75-2.6-.4-5.1.17-7.4zM116.4 198c-14.3 1.6-97.8 5.4-109.93-60.9 1.7 10.6 4.87 20.7 9.28 30.1 5.22 9.4 18.25 22.3 37.07 30.1 97.88 40.4 158.08-7.7 169.68-31.6 4.5-10.3 7.8-21.3 9.3-33-1.4 8.9-10.5 53.6-115.4 65.3zm-2.4 22.9c-17.45 0-55.13-2.8-79.66-25.8 20.82 23 50.94 37.5 84.36 37.5 43.7 0 81.6-24.6 100.6-60.6-6 10.4-32.1 48.9-105.4 48.9zm-67.26-55.6c24.61 10.1 63.76 17.7 85.86 16.9 80-2.9 97.7-43.3 99.6-55.1.2-2.7.3-5.5.3-8.3 0-9.3-1-18.4-3.1-27 .8 3.7 1.1 7.4 1.1 9.2 0 3.9.6 38.9-79.1 56.7-47.9 10.7-68.14 10.3-101.06 0-28.79-9.1-44.53-30.2-44.96-48.3-.27 3.1-.38 6.2-.38 9.4 0 2.6.1 5.1.26 7.7 2.08 15 21.68 30.7 41.48 38.8zm37.18-76.2C95.95 90.6 127.6 95 152.3 93c49.6-4.1 60.6-21.5 60.6-32.7 0-3.1-1.7-7.6-3.4-10.2-4.5-5.8-9.5-11.2-14.9-16.1 1.4 1.5 1.9 3.5 1.9 4.7.5 7.6-12 17.9-37.4 26.3-15.8 5.3-36.7 10.3-62.55 10.3-43.73 0-58.8-16.6-58.8-27 0-1.1-.24-9.9 9.91-18.4-9.28 7.4-17.35 16.3-23.89 26.2-.72 1.2-1.13 2.6-1.13 4.2 0 10.6 25.91 24.3 61.28 28.8zM51.35 32.7c.81 11.4 31.01 20.4 67.45 19.5 36.5-1 64.4-11.4 64.4-22.9 0-3.2-2.5-6.2-6.8-8.7C159.5 10.7 139.8 5 118.8 5c-21.95 0-42.46 6.2-59.84 17-5.16 3.2-7.87 7-7.61 10.7z"/></svg>