<svg xmlns="http://www.w3.org/2000/svg" viewBox="0 0 179 30"><path d="M174.26 12.224c-.48 0-.84-.382-.84-.864s.36-.865.84-.865.83.383.83.865-.35.864-.83.864m0-1.862c-.55 0-1 .45-1 .998 0 .55.45.998 1 .998s1-.45 1-.998-.45-.998-1-.998m-.21 1.066h.23l.32.527h.18l-.33-.527c.14-.03.28-.123.28-.333 0-.212-.12-.328-.39-.328h-.45v1.188h.16zm0-.136v-.39h.26c.12 0 .26.02.26.192 0 .208-.18.198-.34.198zm-3.99 3.764c-.44-2.1-1.87-2.884-3.93-2.884-1.5 0-3.23.508-3.8 2.884zm2.81 3.9c-.21 1.015-1.87 4.13-6.46 4.13-4.43 0-7.08-2.768-7.08-6.644 0-3.508 2.3-6.577 6.87-6.577 4.66.046 6.9 2.93 6.9 7.407h-10.87c.12.785.56 3.368 4.09 3.507 1.8 0 3-.855 3.41-1.825zm-23.23-8.26h2.21V6.658h2.86v4.038h4.32v2.445h-4.32v5.678c0 .876.35 1.822 2.01 1.822.55 0 1.71-.137 2.45-.346v2.515c-1.41.184-2.08.276-3.1.276-2.72 0-4.22-.877-4.22-3.6V13.14h-2.21zm-3.49 5.722c-1.66.07-3.11.3-4.45.623-1.78.416-2.61 1.016-2.63 2.1 0 1.062.67 1.73 2.08 1.73 2.16 0 3.89-.944 5-1.614zm2.86 4.245c0 .832.1 1.66.23 2.008h-2.93a5.34 5.34 0 0 1-.16-1.244c-1.2.69-2.97 1.66-5.42 1.66-1.64 0-4.8-.693-4.8-3.738 0-4.176 6.23-4.776 10.22-5.006v-.554c0-.946-.85-1.615-3.2-1.615-2.64 0-3.19.97-3.35 1.638h-2.98c.7-3.368 4-3.945 6.3-3.945 5.98 0 6.09 2.907 6.09 4.616zM114.73 10.28h2.81v1.408c.76-.67 1.82-1.823 4.2-1.823 2.51 0 3.46 1.2 4.04 1.984.64-.785 1.96-1.985 4.36-1.985 2.77 0 4.75 1.154 4.75 4.038v8.768h-2.86v-7.498c0-2.076-.74-2.862-2.49-2.862-1.43 0-2.63.947-3.3 1.57v8.79h-2.86v-7.498c0-2.076-.74-2.862-2.49-2.862-1.43 0-2.63.947-3.3 1.57v8.79h-2.86zm-14.14-4.383h2.85v5.93c.81-.878 2.08-1.96 4.59-1.96 2.59 0 4.85 1.082 4.85 4.867v7.937h-2.86v-6.875c0-2.445-.74-3.484-2.66-3.484-2.28 0-3.2.947-3.92 1.824v8.537h-2.85zM99.455 18.24c-.393 1.73-2.124 4.846-6.668 4.846-3.968 0-7.222-1.94-7.222-6.92 0-3.256 2.56-6.278 6.967-6.3 4.547-.025 6.484 2.583 6.692 4.684h-2.862c-.276-.993-1.498-2.24-3.645-2.24-2.698 0-4.245 1.986-4.245 3.97 0 2.376 1.27 4.36 4.015 4.36 2.468 0 3.714-1.292 3.968-2.4zM81.55 16.42c-1.662.07-3.116.3-4.453.623-1.777.416-2.608 1.016-2.63 2.1-.02 1.062.668 1.73 2.076 1.73 2.17 0 3.9-.944 5.006-1.614zm2.86 4.245c0 .832.05 1.66.232 2.008H81.71c-.09-.416-.16-.83-.16-1.244-1.2.69-2.977 1.66-5.422 1.66-1.64 0-4.8-.693-4.8-3.738 0-4.176 6.23-4.776 10.22-5.006v-.554c0-.946-.85-1.615-3.205-1.615-2.63 0-3.184.97-3.346 1.638H72.02c.693-3.368 3.992-3.945 6.3-3.945 5.974 0 6.09 2.907 6.09 4.616zm-22.704-9.967h2.215V6.658h2.863v4.038h4.313v2.445h-4.313v5.678c0 .876.345 1.822 2.006 1.822.553 0 1.706-.137 2.445-.346v2.515c-1.407.184-2.076.276-3.09.276-2.724 0-4.224-.877-4.224-3.6V13.14h-2.214zm-9.09 0h2.215V6.658h2.862v4.038h4.314v2.445h-4.314v5.678c0 .876.345 1.822 2.006 1.822.554 0 1.708-.137 2.446-.346v2.515c-1.407.184-2.076.276-3.09.276-2.723 0-4.223-.877-4.223-3.6V13.14h-2.214zm-5.747 5.307l-3.51-7.476-3.505 7.476zM41.492 5.897h3.738l8.145 16.773h-3.46l-1.754-3.852h-9.666l-1.776 3.852h-3.484zm-25.46-2.882c-10.35 0-12.988 2.613-12.988 11.408 0 8.786 2.638 11.403 12.988 11.403 10.36 0 12.98-2.617 12.98-11.403 0-8.795-2.62-11.408-12.98-11.408zm8.147 3.38c.552 0 1 .45 1 1a.998.998 0 1 1-1-1zm-4.84.122l.21.116-.03-.026c.39.19 1.41.728 2.486 1.584a10.286 10.286 0 0 1 1.78 1.78c.586.773.97 1.576 1.14 2.383v.05c0 .61-.25 1.294-.748 2.033a.304.304 0 0 1-.05-.07c.525.755.793 1.466.793 2.113v.06c-.74 3.507-5.357 5.68-5.4 5.7l-.178.09-.04-.01s-.15-.06-.16-.07l-.05-.02a60.353 60.353 0 0 1-3.053-1.57 55.89 55.89 0 0 1-3.123 1.607l-.15.07-.04.02-.04-.02s-.16-.09-.142-.07c-.05-.02-1.23-.584-2.487-1.58-.705-.594-1.304-1.194-1.767-1.805-.582-.762-.97-1.563-1.144-2.38v-.05c0-.618.25-1.3.744-2.03l.084.122.115.153c-.04-.05-.08-.1-.115-.152-.554-.782-.834-1.51-.834-2.17v-.055c.73-3.447 5.22-5.618 5.408-5.708l.14-.07.04-.02.04.016.145.06c.04.01 1.42.665 3.127 1.608A57.286 57.286 0 0 1 19.16 6.6l.09-.044.07-.024zm-3.294 14.127c.03-.02.07-.04.103-.06l.224-.124.3-.166c.115-.07.23-.132.344-.196l1.684 1.095.607.398c.252-.177 3.073-2.21 3.617-5.162 0-.152-.03-.315-.07-.485-1.41 1.354-3.49 2.816-6.187 4.35l-.3.167-.224.124c-.04.02-.07.04-.102.06zM24.18 6.53c-.478 0-.836.384-.836.865 0 .48.358.863.836.863.48 0 .84-.382.84-.863 0-.48-.36-.866-.84-.866zm-.37.272h.454c.266 0 .387.115.387.327 0 .21-.136.302-.275.332l.332.527h-.185l-.32-.528h-.233v.527h-.16zm.16.135v.39h.186c.156 0 .332.01.332-.2 0-.168-.134-.19-.26-.19zm-4.66.305c-.08.053-.94.608-.94.608l-1.685 1.105-.394.248-.13.08c-.01.01-.02.014-.03.02.01-.01.02-.014.03-.02l.132-.08.393-.248.323-.21c1.79 1.03 4.168 2.545 5.84 4.15.05-.182.07-.333.07-.458-.552-2.972-3.36-5.015-3.612-5.195zm-6.552 0c-.254.18-3.072 2.213-3.618 5.172 0 .153.025.32.068.493 1.395-1.337 3.455-2.79 6.125-4.313-.09.052-.183.105-.272.158l-1.676-1.095s-.553-.362-.626-.412zm3.277 2.12c-1.717 1.09-4.655 3.125-6.077 5.074 1.05 1.45 3.093 3.15 6.08 5.057 2.06-1.31 4.724-3.217 6.067-5.058-1.338-1.85-4.015-3.768-6.07-5.074zm6.83 3.55c.09.09.182.174.27.263-.09-.09-.178-.175-.27-.263zm-13.51.443zm12.8 1.15c.01.02.02.03.03.05a5.074 5.074 0 0 1 .003 0c-.01-.02-.02-.03-.04-.05zM9.203 15.93c.01 0 .013.01.02.02-.048.19-.07.337-.074.463.475 2.55 2.736 4.584 3.622 5.194.08-.05.918-.597.918-.597l1.382-.903c-2.305-1.333-4.59-2.963-5.868-4.177z"/></svg>