<svg xmlns="http://www.w3.org/2000/svg" viewBox="0 0 675.05 233.93"><path d="M170.77 142.74c-.6 1.15-1.5 2.01-2.76 2.2 0-1.57 1.45-2.65.93-4.4-.82-1.23-2.46-1.61-4.03-1.31-.6.41-.37 1.05-.52 1.64l-.38 2.13c-1.26 0-1.34-1.16-1.71-2.09 0-1.34.63-2.68 1.98-3.36 1.04-.52 2.72-.44 3.73 0 .82.38 1.79.56 2.12 1.35.97.93.71 2.53.52 3.69m-5.22.63c.71-.71 0-4.77 1.79-2.12 0 .52 0 1.3-.45 1.68-.37.37-.82.78-1.34.44m.71 1.64c0 1.01-.89.75-1.42 1.16h-1.53c-.37-.52 0-1.3 0-1.79 1.01 0 2.17 0 3.14.63m1.79 7.87c-.49.68 0 1.68-.71 2.28 0 1.16-.93 1.75-1.79 2.2-7.65 1.68-15.15-.89-22.53-2.2-10.33-2.28-22.42-2.91-32.97-.52-4.93.93-9.75 2.09-14.498 3.43-2.958.37-6.18.86-9.004 0-2.305-1.08-1.343-4.07-2.04-6.12.11-1.64-.452-2.91-.527-4.47-.185-.53-.334-1.16-.26-1.68.96 0 1.92.86 2.958 1.08 5.39 1.04 10.203-.71 15.212-1.6 4.84-1.05 9.76-1.91 14.83-2.28 5.78 0 11.71-.37 17.24.6 1.79 0 3.31.52 5.07.63 3.58.49 6.94 1.42 10.59 1.68.6.37 1.27.37 1.94.37 5.78.9 12.27 2.54 17.79 0 0 2.32-.97 4.48-1.3 6.72m-32.64 4.73c.37.9.93 1.76.6 2.84-.64 1.23-1.94 1.23-3.1 1.49-.56 0-1.01 0-1.45-.45 0-.37 0-.44-.38-.67.38-.82-1.49-1.68-.37-2.39 1.04-.93 3.47-3.13 4.55-.82m1.42.38c.78.37.86 1.04.93 1.68 0 1.41-.86 2.64-2.2 3.17-.71.37-1.79.52-2.5.37 1.53 0 3.21-.64 3.84-2.2zm1.68 8.61v.38c-1.87 0-3.1-1.09-4.52-2.02v-.37c1.72 0 3.14 1.23 4.67 2.09m-2.35 5.93c0 .37-.41.37-.53 0-1.94-2.46-2.83-5.04-4.06-7.76h.37c1.53 2.54 2.76 5.3 4.33 7.76m-3.25-1.57h-.37c-.37-.37-.37-.97 0-1.38.41.37.71.79.45 1.23m-1.79-3.84c0 .63.71.9.37 1.46 0-.38-.52-.83-.37-1.46m-.38-4.29v.37zm-3.73 9.51c-1.23 0-3.09.79-4.25-.37 0-.52-.48-.78-.45-1.31 1.05-.37 1.94.86 2.91 0 1.5 0 3.02-.37 4.48 0 .75 0 1.79-1.15 1.94 0-.52 2.13-3.1.68-4.63 1.31m-2.83-7.68l.37-.53c-.52 1.53-1.27 3.17-2.12 4.67-.38-1.57 1.23-2.8 1.79-4.14m1.79-1.27c.85-.9 1.6.52 1.94 1.27.97 1.38 3.47 2.68 2.53 4.66-1.27 1.08-3.17 0-4.51.89-.71 0-1.94 0-2.31-.59.67-2.05 1.34-4.4 2.35-6.23m0-2.46h-.38l.38-.38v.38m1.49 0c.37-.38.56-.97 1.01-.97-.41.37-.71.63-1.16.78m.89.97h.6zm1.72 2.01v.45l-1.49-1.16c.71 0 1.23 0 1.6.71m0-3.76zm2.69-4.18c-.75.37-1.34 1.15-2.09 1.34.37-.71 1.34-1.42 2.09-1.34m-3.21-.86c0-.6.56 0 .86-.41h1.97c-1.04 0-2.31 2.28-2.83.37m-4.7 1.79c.37-.89.41-1.64 1.01-2.38.59 0 1.19 0 1.71.37 0 1.31 1.72 3.06 0 4.14-.56.37-1.41.86-2.05.37-.86-.71-.97-1.34-.67-2.27m-.93 4.03c0-.38 0-.56.37-.9.37-.37.63.37.75.45 0 .37-.56.52-.94.45m0-2.99v-.71zm-.78-1.94c-.82-.37-1.27-1.15-2.16-1.15.78-.38 1.53-.38 2.42 0 .38.48 0 .85-.37 1.23m-.71 5.26c.37-.86.6-1.94 1.04-2.73 0 .82-.44 2.02-1.04 2.73m-1.42 0c-1.08 0-2.09-.49-3.06-.79-.63-.63 0-1.38 0-2.09.9-1.41 3.47-2.12 4.7-.82-.37 1.42-.7 2.65-1.64 3.7m.6 1.75v.37-.37h0zm-1.6 3.73c-.9 2.09-1.94 4.07-3.17 6.08 0 .37-.64.41-1.01.48 0-.93.89-1.64 1.27-2.42 1.38-1.72 1.75-3.62 3.28-5.3.37.38-.37.64-.37 1.16m-6.83 0c1.57-.67 3.17-2.01 4.89-1.42-1.23.93-3.21 1.34-4.89 1.42m2.31-4.48c-.37-2.27.6-4.17 2.09-5.82.86 0 1.9-.37 2.72 0-1.67.45-3.76.83-4.17 2.95 0 .86-.38 1.31.37 2.02.71 1.23 2.28.7 3.21 1.67 0 .38-.38.71-.6.79-1.08-.64-2.42-.9-3.47-1.76m-30.11-20.77c.224-.49 0-1.27.713-1.42.436 0 1.153 0 1.212.41-.07.75-.112 1.53-.336 2.28-.892 0-1.343-.49-1.604-1.27m.223 2.2c.943.71 2.316.37 3.45.56.186.71.186 1.64-.336 2.24-1.093-.38-2.503 0-3.074-1.2.112-.44-.186-1.08-.07-1.6m-3.033-1.87c.187-1.15.452-2.38 1.545-3.24 1.544-.82 3.66-.64 5.072.37.452.37.772.64 1.034 1.23.298 1.08-.224 2.24-.978 2.91h-.746c0-1.04 0-2.09.38-2.91-.08-.78-.7-.86-1.223-1.19-1.092-.37-2.054.37-2.886.67-.64.78-1.223 1.72-.828 2.84.437.7.08 1.67.3 2.46l-.188.37c-.772-.86-1.81-1.75-1.62-3.25m60.292 27.49c1.5.71 4.59 1.39 6.87 1.65-.38.85-1.79 0-1.64 1.3-2.02-.82-4.29-1.19-5.75-2.72 0 0 .37-.37.52-.37m-40.09 1.04l-.93-.82c.44-.6 1.45-.37 2.12-.67 1.68-.52 3.62-1.16 5.48-.79-1.94 1.57-4.44 1.76-6.67 2.28m69.34-29.5c-.75-2.02-2.35-3.36-4.37-4.03-2.05-.45-4.21 0-5.59 1.45-2.31 1.87-.71 4.96-.64 7.5 0 .52 0 .89-.48 1.16-9.25-.82-17.98-3.17-27.19-4.14-2.13-.38-4.26-.38-6.31-.71l-2.57-.38c-8.02.38-16.08.71-23.57 2.65-1.6.52-3.41.67-5.01 1.23-1.147-.37-2.125.64-3.203.38l-2.114.48h-.713c-1.033-2.65 2.055-4.25 1.093-6.86-.832-1.49-2.507-2.91-4.442-2.65-2.185-.37-4.11.97-5.128 2.65-1.488 3.24.377 6.6.958 9.77-.11 1.01 1.022 2.2 0 3.06-2.05-1.46-4.763-2.2-7.254-1.53-.773.41-2.186 0-2.578.82 2.768 1.45 6.293 1.27 9.38 1.12h.963c.263 1.71-.334 3.95.718 5.44 1.148 1.57 3.073 1.94 4.938 2.13 5.916-.37 11.174-1.94 16.564-3.28.86 0 1.5-.52 2.39-.52 2.91-.64 6.04-1.16 9.14-1.23-1.34 1.75-2.13 3.69-2.72 5.81-.75 1.76 1.38 2.02 2.01 2.99-2.01.6-3.43 1.94-5.26 2.72-4.14 0-7.61 1.42-11.46 1.87-.1.85 1.33.59 1.47 1.41-.19.6-.76.64-1.21.97-.1.41 0 .45.38.53.38-.45 1.22 0 1.6-.6 1.31 0 2.4-.37 3.63-.45 1.08-.45 2.31-.52 3.28-1.27 1.34-.41 2.16-1.3 3.5-1.68 1.94 0 3.66-.67 5.49-.78v.37c-1.49 2.43-3.02 4.85-4.59 7.13-.37.45 0 .89.45 1.01.89.37 1.83 0 2.5-.38 1.38-2.31 2.57-4.51 3.69-6.9.45-2.2 2.05-3.35 3.65-4.85.38 0 .64-.52.9 0-1.27 1.5-2.13 2.91-3.06 4.55-.52 1.79-.67 4.14.93 5.6.79.67 1.94.48 2.99.56 2.46-1.31 5.7.74 7.61-1.72 1.15-.37 1.38 1.16 2.01 1.83 1.08.37 2.24 1.42 3.32.63 0-.7-.82-1.34-1.23-2.01-.75-1.34-1.72-2.46-2.42-3.69-.38-.9-.9-1.46-1.01-2.39 1.12.41 2.16 1.19 3.43 1.38 1.12.45 2.46.37 3.47 1.01.86 1.12 2.13 1.75 3.21 2.46 1.64.78 3.43.93 5.07 1.57.67 0 1.64.59 2.09 0-.37-.38-.6-.53-.97-.71 0-.86 1.15-.38 1.6-1.05 0-.37-.45-.44-.74-.48-.94-.49-3.21-.67-3.81-.97-.78 0-1.49-.49-2.24-.75-3.88 0-6-3.47-9.06-4.77.71-.64 1.79-1.16 2.24-2.17.56-.89.78-2.38.37-3.39-.56-2.01-3.13-1.75-4.62-2.83v-.38c2.49 0 4.7.49 6.93.93 6.2.83 11.9 3.14 18.32 3.29 3.54 0 7.98 0 9.7-3.25.37-1.98.7-3.99 1.04-6 .75-3.25 2.87-6.23 2.54-9.78m-78.38 13.88l-1.63-2.5-.918 2.8zm4.25 2.13l-4.206.48v-.37c.802 0 1.037-.38.992-.56-.04-.38-.54-1.05-.772-1.38l-2.928.37c-.26.82-.425 1.31-.41 1.49.04.41.686.38 1.122.38v.37l-2.637.37v-.37c.703 0 .833-.56 1.124-1.42l2.2-6.34h.377l3.56 5.41c.73 1.12.96 1.45 1.58 1.34zm33.77-46.78l.56-.37c-.38 0-.41 0-.56.37m15.1-15.178c-.37 2.574-1.11 4.737-2.9 5.968l-16.86 10.74c-.38.37-.79.45-1.31.45-.48 0-.93-.37-1.31-.49l-16.85-10.7c-1.8-1.23-2.65-3.394-2.88-5.968V60.904h42.23zm1.27-34.65h-44.76v34.203c0 3.47 1.49 6.525 3.51 7.455l17.23 10.93c.37.45.97.71 1.57.71.56 0 1.04-.37 1.42-.56l17.49-11.08c2.01-.93 3.51-3.986 3.51-7.455zM75.234 146.36H75.232h-.08H75.152h.152-.112zm-.2 0H75.037zm-.03-.11l-.07.37h-.14l-.08-.37H75.055zm-.396.1h-.07-.04H74.548h-.07.07-.07.14zm-.336 0h0zm.15 0h-.272.224zm-40.027-8.8c.67 0 1.194-.52 1.194-1.16 0-.63-.524-1.15-1.195-1.15-.657 0-1.18.52-1.18 1.15 0 .64.523 1.16 1.18 1.16m62.916-36.74c.67 0 1.21-.48 1.21-1.076 0-.56-.54-1.045-1.21-1.045-.67 0-1.21.484-1.21 1.044 0 .596.54 1.076 1.21 1.076m44.59-11.185s.41.373.78 0l.37-1.007s-.41-.522-.71-.448c-1 .373-2.12.373-2.72 1.343 0 .71.48 1.306.97 1.604.37 0 .41.373.67.448 0 .373 0 .56-.45.56-.71-.747-1.97.372-2.53-.672.37-.933.74-1.977 0-2.835 0 0 .37-.373 0-.56-.38-.857-1.23 0-1.76 0-.93 0-1.67.374-2.2 1.12 0 .373 0 .596.49.932.37 0 .37 0 .45.373l-.64.373s0 .448.37.67c-.41 0-.82-.41-1-.745 0-.483 0-1.34-.64-1.453h-.48c-.37 0-.37.56-.37 1.007 0 .41.37 1.082.37 1.082s1.86 1.417 2.31 2.275c-.56 1.083-.56 2.612-1.83 3.246-.37.373-.37.597-.37.97l.37.373c.82-.45 2.32-.56 2.2-1.904.38-.56.64-1.156 1.16-1.603.6 0 1.16 0 1.42.67 0 .933-.82 1.53-1.64 1.866v.484c.37.41.89.373 1.26 0 1.05-.672 1.5-1.902 2.39-2.275 0 .595-1.23.782-.37 1.38.56 0 1.27 0 1.68-.673-.45-1.044 1.45-1.53.37-2.462 0-.895.97-1.268.9-2.238-.38-1.007-1.53-1.007-1.83-1.94.37-.372.93 0 1.3 0m-16.11 19.353s-.56.97-.56 1.12c0 .38.37.64.56.64.37 0 .6-.38.6-.64l-.6-1.12m9.92-5.78s-.59.97-.59 1.16c0 .37.37.63.59.63.37 0 .56-.37.56-.63l-.56-1.16m8.13-5.403s-.56.932-.56 1.12c0 .372.38.633.56.633.38 0 .6-.373.6-.634l-.6-1.12m1.53-10.257s-.56.932-.56 1.118c0 .373.38.634.6.634.37 0 .56-.373.56-.634l-.6-1.12m0-12.942s-.56.932-.56 1.156c0 .373.38.597.6.597.37 0 .56-.374.56-.598l-.6-1.156m-29.54 28.604s.52.97.52 1.16c0 .37-.37.63-.56.63-.37 0-.56-.37-.56-.63l.6-1.16m-8.13-5.403s.52.932.52 1.12c0 .372-.37.633-.56.633-.37 0-.56-.373-.56-.634l.6-1.12M106.42 87.5s.56.932.56 1.118c0 .373-.37.634-.56.634-.37 0-.59-.373-.59-.634l.59-1.12m0-12.942s.56.932.56 1.156c0 .373-.37.597-.56.597-.37 0-.59-.374-.59-.598l.59-1.156m29.06-13.316s-.56.932-.56 1.12c0 .372.37.633.56.633.37 0 .6-.373.6-.634l-.6-1.12m-9.7 0s-.56.932-.56 1.12c0 .372.38.633.6.633.37 0 .56-.373.56-.634l-.6-1.12m-9.7 0s-.56.932-.56 1.12c0 .372.38.633.6.633.37 0 .56-.373.56-.634l-.6-1.12m-9.69 0s-.56.932-.56 1.12c0 .372.37.633.59.633.38 0 .56-.373.56-.634l-.59-1.12m38.79 0s-.56.932-.56 1.12c0 .372.37.633.59.633.38 0 .56-.373.56-.634l-.59-1.12m5.7 39.13c.68 0 1.2-.487 1.2-1.084 0-.597-.52-1.082-1.2-1.082-.67 0-1.19.485-1.19 1.082 0 .597.52 1.084 1.19 1.084m-25.25-31.93c-.78 0-1.83.52-1.83-.374 0-1.306.9-1.007 1.65-1.007.78 0 1.97-.374 1.97 1.006 0 .895-1.04.373-1.79.373m2.28-.486c0-2.648-1.49 0-2.31-2.425-.6 1.902-2.35.372-2.35 2.35 0 .783 0 1.23.55 1.49v.747c0 .373 0 .373.38.373h2.8s.37 0 .37-.373v-.82c.37-.373.56-.746.56-1.343m29.76 85.716l-1.04-2.8-1.49 2.54zm3.73 2.98l-4.21-.41v-.37c.82 0 1.08 0 1.08-.38 0-.37-.37-1.15-.45-1.52l-2.91-.38c-.44.75-.71 1.16-.71 1.35 0 .41.56.52 1.01.59v.38l-2.65-.38v-.37c.71 0 .94-.37 1.42-1.16l3.51-5.67h.37l2.27 6.05c.49 1.23.68 1.64 1.27 1.67zm-9.14-1.16l-4.47-.93v-.37c.71 0 1.19 0 1.34-.52l1.08-5.22c0-.71-.44-.86-1.04-1.01v-.37l4.47.93v.37c-.63 0-1.23-.37-1.38.52l-1.08 5.19c0 .71.38.86 1.05 1.04zm-4.92-1.11l-7.46-1.35v-.37c.75 0 1.12 0 1.23-.56l.97-5.22c0-.71-.41-.86-1.01-.97v-.37l4.48.85v.38c-.89 0-1.3-.38-1.49.74l-.9 5.11c0 .53 0 .67 1.01.82 1.98.38 2.87-.41 3.66-1.53h.37zm-11.26-4.63l-.97-2.8-1.57 2.47zm3.65 3.1l-4.21-.56v-.38c.78 0 1.04 0 1.08-.37 0-.37-.37-1.16-.41-1.53l-2.95-.37c-.45.74-.71 1.19-.74 1.34 0 .41.59.52 1 .6v.37l-2.61-.37v-.37c.71 0 .93-.38 1.42-1.09l3.62-5.63h.37l2.2 6.12c.41 1.23.6 1.64 1.23 1.68zm-14.28-5.04c1.71 0 2.38-.37 2.42-1.64 0-1.08-.52-1.57-1.53-1.6-.74 0-.78 0-.86.44zm5.67 3.92h-2.69l-2.65-3.51h-.37v2.16c0 .86.37.9 1.12 1.01v.38h-4.44v-.38c.89 0 1.16 0 1.19-1.01v-4.84c0-.94-.37-.97-1.12-1.05v-.37h4.22c.93 0 3.69.37 3.65 2.01 0 1.35-1.38 1.68-2.08 1.83l2.57 3.21h.52zm-10.9 0l-4.66.45v-.38c.93 0 1.23-.37 1.16-1.15l-.56-5.75c-.9 0-2.24.37-2.31 2.09h-.41v-2.2l7.83-.78.37 2.2h-.37c-.45-1.72-1.79-1.64-2.69-1.61l.56 5.78c0 .94.41.94 1.38.86zm-8.46-4.22c-.41-.71-1.46-1.79-2.95-1.45-.67 0-1.31.63-1.16 1.34 0 .56.45.75 1.61.97l2.05.37c.48 0 1.6.53 1.86 1.68 0 .93-.37 2.43-2.68 2.95-1.23.37-1.9 0-2.28 0-.37 0-.37.37-.37.48h-.37l-.6-2.64h.37c.49 1.04 1.5 2.08 3.14 1.71 1.53-.37 1.38-1.38 1.34-1.53 0-.74-.82-.86-1.72-1.01h-.97c-2.35-.41-2.57-1.3-2.64-1.82 0-.64 0-2.2 2.35-2.73 1-.37 1.71 0 2.05 0 .37 0 .37-.37.37-.48h.41l.49 2.31zm-6.38-.74c-.71.37-.93.44-.78 1.15l.82 3.4c0 .63 0 1.64-.38 2.24-.52.74-1.6 1.19-2.35 1.41-.55 0-1.76.38-2.73 0-.65-.37-1.07-.56-1.34-1.71l-.85-3.58c-.22-.9-.55-.82-1.28-.71l-.07-.38 4.31-1 .1.37c-.83.37-1.22.37-1.01 1.27l.85 3.58c.15.6.5 2.09 2.31 1.64 2.28-.56 1.91-2.16 1.76-2.87l-.79-3.25c0-.67-.41-1-1.49-.78v-.37l2.8-.67zM126.08 22l2.28 5.595 5.74-1.716-2.91 5.26 4.89 3.468-5.93 1.007.37 5.968-4.44-4.03-4.44 4.03.37-5.968-5.89-1.007 4.89-3.47-2.91-5.26 5.74 1.717zm-2.24 61.023v-1.156l-1.08-.373.86-.858-.52-.933h1.08l.63-1.12.64 1.12h1.08l-.49.933.79.858-1.05.373v1.156l-.97-.71zm4.44-3.096v-.373h-.37l.37-.373v-.372h.37l.38-.373v.373h.37v.373l.37.374h-.37v.373l-.37-.373zm-.56-2.685v-.71h-.63l.48-.484-.37-.56h.6l.37-.67.37.67h.64l-.38.56.49.485h-.6v.71l-.6-.45zm-4.81.447v-.672h-.6l.49-.522-.38-.56h.6l.41-.67.37.67h.64l-.37.56.48.522h-.63v.67l-.56-.446zm2.83-3.656v-.672h-.59l.48-.485-.37-.56h.6l.37-.67.37.634h.64l-.38.56.49.485h-.6v.67l-.6-.41zm10.34-.187c0 .858 1.12.373 1.94.373.85 0 1.97.597 1.97-.373 0-1.193-1.12-.783-1.97-.783-.82 0-1.94-.41-1.94.783m3.54 1.977c.82 0 .9-1.12.9-2.09 0-2.2-1.76 0-2.62-2.087-.67 1.753-2.49 0-2.49 2.014 0 1.306 0 2.164 1.3 2.164zm-5.37-9.66l3.65 1.417 3.58-1.417-1.41 5.372 2.83-.597-.97 3.245.97 3.133-2.5-.708 1.09 5.78-3.59-1.38-3.65 1.38 1.49-5.78-2.91.82.78-3.245-.78-3.133 2.8.485zm1.79-21.336h-.71c-1.86 0-.37 2.238.71 2.238 1.23 0 1.3-2.238 0-2.238m-5.78 2.238c1.86 0 0-2.238-.9-2.238h-1.86c-1.87 0 0 2.238.93 2.238zm-7.8 0c1.87 0 0-2.238-.89-2.238h-1.87c-1.86 0 0 2.238.9 2.238zm13.47-2.76c.89 0 1.6.708 1.6 1.604 0 .895-.71 1.604-1.6 1.604H116.9c-.89 0-1.6-.71-1.6-1.604 0-.896.71-1.604 1.6-1.604zm47.78 117.454c0 .6-.56.82-.9 1.16-.48 0-1-.38-1.41-.71 0-.67.44-.86.85-1.16.64 0 1.2 0 1.46.71m-4.81-1.94c-.9 2.39-3.32 3.62-5 5.45-.37-.38 0-.71 0-.97.63-2.46 2.54-4.89 4.92-5.86 1.05 0 0 .86 0 1.38m4.33-1.38c0 .52-.37.93-.56 1.23-.75.38-1.79 0-1.94-.82 0-.63.63-.97.97-1.3.75-.38 1.27.37 1.53.89m4.81 2.09c0 .37 0 .56-.37.45h-.38c-1.86-1.68-3.73-3.55-3.46-6.16h.37c1.75 1.53 3.69 3.14 3.73 5.79m-7.54-5.86c0 .56-.56.67-.89 1.01-.45 0-.82-.38-1.23-.6 0-.67.37-.86.67-1.16.63-.37 1.27 0 1.45.75m-103.196 2.46c.887 1.49.38 3.51.887 5.15-1.088 0-1.528-1.12-2.24-1.75-1.414-1.98-1.224-4.56-1.865-6.79.112-.38.335-.38.45 0 .963.63 1.676 1.9 2.448 2.72-.15.45.38.45.336.82m99.98-3.1c.37.38 0 .71-.38 1.05-.41.45-1.08.37-1.53 0-.48-.37-.52-.86-.37-1.27 0-.41.52-.6.82-.75.6 0 1.08.49 1.42.94m-106.394-1.46c-.112 1.79-.51 3.99-2.305 5.04-1.018 0-2.05 1.15-3.088.52v-.37c1.358-1.94 3.805-3.43 5.394-5.23m-3.645.3c.113.71-.11 1.35-.655 1.72-.698 0-1.6 0-1.865-.67-.08-.67 0-1.49.772-1.9.657 0 1.414 0 1.75.85m122.978-1.86c0 .37.38.63 0 .89-.37.38-.67 1.16-1.42.82-.37 0-.55-.37-.78-.52-.37-.63 0-1.6.78-1.71.56-.38.97.37 1.27.52m-2.68.11c0 .52 0 .82-.45 1.23-.37.45-.97.52-1.38.37-.45 0-.6-.59-.78-.89-.38-.52.37-.86.44-1.31.71-.59 1.87-.37 2.17.71m-117.847-.74c-.187.37-.377.97-.888 1.23-.526 0-.903 0-1.298-.49-.186-.37-.377-.82-.186-1.27.15-.37.582-.41.903-.59.642 0 1.21.59 1.47 1.12m-3.786-.6c-.187.37-.26.86-.772 1.04-.452.38-.892 0-1.283-.37-.112-.41-.582-.71-.26-1.16.148-.48.65-.59 1.032-.7.64 0 1.15.44 1.283 1.08m117.523-1.76c-.37.9-1.45 1.42-2.27 1.65-2.2.82-4.22-.38-6.12-.75 0-.52.71-.37 1.01-.63 2.13-.49 4.29-.94 6.56-.38 0 0 .64-.37.82 0m5.34-.22c0 .52 0 1.23-.49 1.34-.37.37-.97.37-1.23 0-.59-.37-.59-.82-.59-1.27.37-.44.63-.52.97-.71.56 0 1.04 0 1.34.64m-122.863-2.91c-2.186 1.38-4.18 4.03-6.878 4.66-.512.37-.833.9-1.475.49 1.153-3.47 4.943-5.34 8.352-5.67zm14.64-.3h.08c-2.563 1.83-6.162 2.91-9.105 1.16-.08-.38.07-.53.336-.6 1.85-.56 3.655-1.49 5.65-1.19zm112.023 2.16c.9 1.31 1.53 2.91 1.68 4.59-.37.49.37.9 0 1.23h-.37c-2.91-2.05-3.55-4.96-4.63-7.87-.37 0-.37-.37-.37-.63.63-.6 1.12.56 1.75.74zm-120.37-4.17c.08.48.186 1.26-.452 1.6-.582 0-1.34 0-1.53-.78-.335-.75.378-.9.758-1.27.526 0 .847 0 1.223.45m136.75-1.72v1.46c-.38.63-1.2.48-1.79.37-.38-.37-.9-.9-.49-1.49 0-.53.75-.64 1.2-.86.44 0 .78.37 1.23.52m-2.54 4.55c.37.37.9.56.78 1.05-1 .44-1.86-.75-2.83-.94-1.53-1.53-2.69-3.2-3.32-5.18.56-.56 1.19 0 1.72.37 1.49 1.23 2.87 2.84 3.65 4.74m-140.276-4.59c-.187.6-.567 1.01-1.21 1.12-.45 0-.96-.37-1.166-.78-.08-.64.455-.97.906-1.27.642 0 1.354.37 1.47.93m-4.428-.22c.07.67-.45 1.08-.962 1.34-.582 0-.963-.37-1.224-.78-.112-.56.452-.97.772-1.27.773-.37.963.37 1.414.71m130.904 0c0 .71-.52 1.24-1.16 1.46 0-.37-.44 0-.63 0-.45-.37-.86-.67-.86-1.16.37-.37.45-.86.9-.89.59 0 1.56 0 1.75.74m-3.99-.59c0 .71-.56 1.23-1.08 1.49-.6.37-1.05-.37-1.35-.52-.52-.53-.37-1.05 0-1.53.75-.79 1.87 0 2.35.56m-136.785-.9c0 .9-.963 1.42-1.284 2.31-.96 2.13-2.695 4.07-5.142 4.29-.26-.59.832-1.3 1.093-1.86 1.02-2.2 3.09-3.4 4.94-4.74zm-5.204.82c-.185.6-.45.97-1.092 1.05-.522 0-.962-.38-1.163-.79-.07-.44.26-.71.335-1 .698-.6 1.98-.38 1.92.74m143.63-2.24c0 .38-.37.71-.37 1.01-.41.41-.97.49-1.42.37-.37-.44-.85-.82-.63-1.49.52-.97 2.16-.74 2.39.38m26.29-.34c.38.78-.44 1.16-.97 1.34-.37 0-.63 0-.7.38 1.67.85 2.68 2.2 3.99 3.43v.52c-2.32 0-4.7-.64-6.38-2.46-.45-.38-1.23-.38-1.72-.79.82-.82 2.35-.48 3.51-.56.86-.93-.93-1.56 0-2.35.37 0 .63-.44 1.16-.37.44.37.7.52.96.9m4.15-.23c0 .45-.38.64-.38.97-.41.38-1 .38-1.49.38-.56-.38-.56-.86-.56-1.42.37-.37.45-.6.9-.75.56 0 1.26.38 1.49.93m-153.815-.52c.26.7-.507.82-.698 1.23-.26 0-.772.37-.962 0-.336-.41-.712-.79-.526-1.38.335-.38.45-.53.83-.64.713 0 .978.45 1.355.86m140.045-.82c0 .75-.37 1.38-.93 1.72-.52 0-.82 0-1.19-.45-.37-.38-.6-1.08 0-1.38.52-.97 1.79-.6 2.2 0m-174.67-.6c.113.71-.148 1.38-.786 1.64-.57 0-1.212-.37-1.398-.93-.07-.56.112-1.12.64-1.34.64-.38 1.165.37 1.545.63m185.75-1.08c0 .45-.38.89-.56 1.08-.52.37-1.2 0-1.57-.37-.56-.52 0-1.01.37-1.38.56-.38 1.68-.38 1.87.52m-8.06.26c0 .56-.52.93-.78 1.12-.9.37-1.68-.37-2.02-.97 0-.6.6-.97 1.12-1.16.82 0 1.27.38 1.68 1.01m11.71-.33c0 .48-.44 1.08-.93 1.08-.6 0-1.15 0-1.49-.75-.37-.71.37-1.08.82-1.27.67 0 1.49.38 1.6.94m-173.395-.45c-.08.45.07 1.12-.436 1.27-.337.37-.92 0-1.24 0-.112-.38-.832-.71-.44-1.16.26-.37.51-.52.892-.71.39 0 .973 0 1.223.49m-10.533-.71c.11.52.26 1.41-.51 1.56-.904.38-1.415-.37-1.926-.78 0-.6.336-1.04.772-1.31.642 0 1.212 0 1.664.53m-7.58-.38c.08.38.26.56.187.9-.188.37-.512.71-.904.75-.697 0-1.153-.38-1.473-.83-.07-.56.15-1.08.64-1.34.587-.37 1.225 0 1.545.52m3.663-.78c.188.45.393.9 0 1.42-.38.37-.96.45-1.472.37-.567-.37-.772-1.04-.507-1.57.377-.56 1.53-.89 1.98 0m181.7-.82c-.56.86-.37 2.09-.9 2.99-1.26 1.49-2.38 3.17-4.43 3.5-.38-.67.44-1.3.78-1.9.89-1.94 2.16-4.14 4.25-4.96zm-146.555-.37c.08.71-.45.82-.902 1.23-.51 0-.772-.37-1.093-.71-.26-.67.336-.89.638-1.23.51 0 1.093.38 1.357.71m138.465-.78c-1.46 2.2-2.76 4.92-5.38 5.89-.44 0-.85.63-1.23 0 1.01-2.46 3.21-5.11 5.71-6.15h.9m-153.69 4.51v.48c-1.545.38-3.018 0-4.182-1-.906-1.27-1.925-2.58-3.398-3.21 0 0-.392-.45 0-.6 3.208 0 5.13 2.61 7.58 4.33m11.495-4.18c.112.45.08 1.01-.335 1.34-.26.38-.832.38-1.168.38-.45 0-.697-.6-.828-.97 0-.6.336-.93.828-1.23.526 0 1.093 0 1.488.52m122.1-.19c.37.94-.37 1.42-1.01 1.76-.7 0-1.12-.53-1.41-1.05 0-.48.37-.78.44-1.08.49-.52 1.72-.52 1.98.37m10.33-1.04c0 .37.41.37.38.6-2.24 2.01-5.38 2.57-8.58 2.72-.38 0-.53.37-.86 0-.37 0-.37-.37 0-.45 2.31-2.54 5.86-3.8 9.29-3.06m-69.9 4.29c-.38.75-.75 1.42-.71 2.28h-.37c0-.97-.79-1.57-.56-2.58-.49-.78-.49-1.75-.94-2.61-.59-1.04.49-1.45.94-2.2.93.41 1.23 1.23 1.86 2.02.41 1.08-.41 1.94-.37 2.98m102.12-23.87c-1.04-1.9-2.76-2.65-4.81-2.65-1.68 0-2.87 1.23-3.61 2.65-.38 1.42 0 2.68 1.23 3.54.44.37 1.04 0 1.3-.37.37-.86-.6-.86-.71-1.49-.37-.94 0-1.72.71-2.28.64-.63 1.72-.37 2.5-.37.75.52 1.53.97 1.9 1.9.41 1.08.41 2.31 0 3.39-.67 1.65-2.27 2.91-3.95 3.25-5.33.78-63.86.52-63.86.52-6.86.64-14.69-1.3-20.59 2.35-2.72 1.27-4.06 4.25-4.77 6.9-1.76 1.57-3.62 3.36-5 5.11h-.37c.37-1.56 1.04-2.91 1.38-4.47.97-1.27.97-3.03 1.64-4.48 2.46-3.92 4.77-7.94 8.58-10.74 1.6-2.13 4.4-1.72 6.86-1.72 2.61 1.23 5.71 1.61 8.91 1.27v-.45c-.89-.82-2.38-1.15-3.39-2.01-2.57-1.2-5 .41-7.72.37 0 0-.37-.37 0-.41 2.46-1.79 5.22-3.09 7.98-4.25 2.24-1.23 4.59-1.86 6.98-2.76.97 0 1.86-.86 2.76-.37l3.43-.9s.37.37.48 0c2.91-.967 6.57 0 9.85 0l.45.37 3.09.79c1.16 0 1.65 1.49 2.88 1.56.63-.93-.71-1.3-1.01-1.9 1.42-.37 3.02 0 4.29.67l-.64.71c-.41.71 0 1.23.75 1.46.49 0 .78 0 1.12-.38.82-.56 0-1.15 0-1.67 4.74.85 9.29 1.97 13.69 3.87 1.19.41 2.35 1.31 3.73 1.23-1.38-1.23-3.25-1.86-4.89-2.61-1.12-.63-2.65-.67-3.47-1.6.38-.37.64-.37.82-.45 2.2-.37 4.07-1.86 5.6-3.614 0-.373.82-.373.74-.783-.55-.634-1.52.373-2.27 0-2.72.522-3.88 3.687-6.57 4.247-3.28-.78-6.63-1.53-9.88-2.38-1.6-.375-3.36-.375-4.81-1.047l-3.62-.373h-6.56s-.38-.373 0-.41c2.31-.597 4.32-1.94 6.63-2.537l17.2-7.87c1.79-1.64 3.39-3.43 4.89-5.296 0-.523-.38-1.045-.71-1.23-.45-.374-.97 0-1.27.372-.78.558 0 1.304 0 2.013-.78 1.007-2.01 1.902-2.98 2.5-.38 0-17.72 7.98-17.72 7.98-2.58 1.083-5.11 2.314-7.83 2.873l-3.73.597c-.38.783-.9 1.23-1.61 1.492-1.01.373-1.86.825-2.95.825-8.35 3.24-17.04 6.67-23.64 13.27.41-.78.59-1.75.67-2.72 0-.97 0-2.05-.75-2.84 0-.37-.6-1.41-.45-1.79l-.63.82c-.6 1.46-1.12 4.03-.52 5.53 0 1.15 1.15 2.53.37 3.54-3.1 3.77-4.81 8.28-6.86 12.57-.79 0-1.16-.86-1.49-1.57 2.2-2.76 3.91-5.89 4.55-9.43.44-.38 0-1.16.59-1.57 0-1.01.56-2.05 0-2.91.41-1.38-1.9-2.69-.44-3.62l-1.2.6c-2.76 3.62 1.42 9.06-1.71 12.53v.37c-.9 1.2-1.35 2.35-2.58 3.14-1.53-.67-2.12-2.43-3.02-3.7-1.42-1.38-1.42-4.17-.56-6.04.56-1.86-.41-3.47-.6-5.15l-.63-.41c-1.57 2.02-2.13 5.19-.93 7.58.67 1.19.74 2.79 1.68 3.76.59 1.87 1.75 3.1 2.79 4.78.38.63-.41.78-.74 1.08-.67-.45-.56-1.46-1.2-1.9-2.12-4.55-4.88-8.17-8.24-11.86 0-.56-.67-1.09-.37-1.76 1.23-1.15 1.49-3.43.82-4.92 0-.37-.49-.67-.45-1.01l-.93-.78c0 2.27-1.34 4.25-.71 6.68-6.64-5-13.94-9.44-21.394-12.908l-.597 1.638c1.894.45 6.88 3.51 6.88 3.51 2.25.82 4.29 2.2 6.42 3.43 8.73 4.85 14.51 12.87 18.43 21.78 0 .75.7 1.49.37 2.2-1.34-2.05-3.28-3.21-4.89-4.92-.45-3.02-2.24-5.93-4.88-7.16-.94-1.42-2.99-1.57-4.59-2.02h-23.4c-19.015-.37-36.352.56-55.237.38-2.637-.38-5.84-1.12-6.613-3.92-.51-.97-.51-2.65 0-3.54.712-1.27 1.995-1.65 3.278-1.76 1.02 0 1.72 1.08 2.186 1.79 0 .86-.716 1.64-1.037 2.35.07.38.336.75.772.56.83-.37 1.488-1.23 1.678-2.05.07-.45.26-1.08-.187-1.42-.394-1.38-1.808-2.35-3.03-2.68-1.6 0-3.265.37-4.358 1.49-1.544 1.31-1.484 3.66-1.033 5.45 1.032 2.87 4.05 4.81 6.933 5.18l62.507.37c6.09.38 12.95-.7 19.14.49 2.24.74 4.59 2.42 5.19 4.92h-.45c-5.07-3.28-11.75-4.51-18.24-3.73-2.566 0-4.882.82-7.184 1.46-1.223.37-2.387-.38-3.163-1.01-2.3-2.09-6.352-1.94-9.31-1.19 0 .37-.08.41.08.48 3.133-.37 4.998 2.46 7.825 2.8.653 0 1.164-.6 1.746 0-2.958 1.38-5.782 3.09-8.93 3.99-.962 0-1.473-1.08-2.245-1.6-1.225-1.38-3.466-.79-5.145-.94-.582 0-1.093-.37-1.485 0 .51 1.05 1.675 1.64 2.768 2.13 1.604.75 3.47 0 4.954.93-.392.45-.903.56-1.354.9-3.018 1.19-5.525 3.88-8.86 3.69-3.54.37-7.138-.63-9.514-3.1-1.034-2.53-3.656-3.88-6.483-3.76-.186 0-.45 0-.395.44 1.414.86 2.507 2.54 3.92 3.51.903 1.08 2.638 0 3.47 1.23 1.223.82 2.767 1.57 4.18 1.83 1.034.45 2.187.63 3.336.89l-.45.38c-5.842 1.97-12.575 2.16-19.132 1.9-1.936 0-3.8-.63-5.725-.6.335.41.962.71 1.544.9-.508.37-1.093.48-1.73.56-.773 0-1.68.37-2.452.63-1.018 0-1.92.37-2.752.64-1.093 1.19-2.376 2.38-3.67 2.98 0 .37-.07.67.26.67 1.224-.52 2.768 0 3.992-.67 2.114-.37 3.338-2.54 5.013-3.51 1.79-1.41 4.356-1.08 6.542-.74 1.283.37-.15.82.26 1.68.512.44.964.97 1.676.78.112 0 .26-.37.44-.37.392-.53.336-1.12.07-1.64.902-.56 2.115 0 3.088-.38 2.436 0 4.868-.59 7.244-.67.39 0 .843-.45 1.223 0-.185.56-.83.6-.58 1.31.11.59.77.85 1.294.97.64-.38 1.208-.71.962-1.53-.15-.45-.642-.53-.962-.75 1.342-.63 2.887-.82 4.24-1.45.963 0 1.866-.53 2.697-.94.83 0 1.546-.82 2.303-.48-.336 1.08-.757 2.12-1.343 3.09-1.018 3.44-1.79 7.95 0 11.27H70c-1.34-3.4-.566-7.35.582-10.59.903-5.52 6.558-7.13 10.594-9.18l.186.37c-1.078 2.84-2.697 5.52-2.432 8.99.112.56-.26 1.16 0 1.53 1.09-.56 1.79-1.86 2.372-2.98.452-2.91-1.223-6.53 1.735-8.66 5.274-2.08 10.213-4.77 16.314-4.84.19.37.65 0 .71.37-1.29 1.42-3.15 2.76-3.722 4.51-2.05 2.84-1.995 7.72-1.09 11.19.568 2.02-1.167 3.13-1.998 4.66-.392.56-.508 1.5-.888 2.13h1.283c1.078-1.16 2.11-2.61 2.17-4.29.113.67.713 1.19 1.226 1.31.45-.71-.38-1.23-.452-1.94 1.033-.56 1.483.71 2.313.97 1.36.37 2.51.89 3.9.89l.45-.45c-1.39-2.2-4.22-2.57-6.662-2.72-1.283-2.13-1.283-4.77-1.153-7.35.262-1.38.51-2.79 1.286-4.03.33-.89 1.22-1.75 1.79-2.46 1.17-1.08 2.65-1.86 4.03-2.2-1.71 1.38-1.9 3.25-2.94 4.93-1.09 1.6-1.6 3.8-.57 5.63.38.86.19 2.12 1.1 2.72.83-1.16.89-2.65 1.34-3.95-.19-2.13-1.47-4.14-.26-6.19.65-1.65 2.01-2.28 3.46-2.88 3.54-.37 6.6 1.49 9.7 2.88.63.44 1.75.82 1.86 1.75 0 1.71-1.04 3.47-2.38 4.32-1.72 1.01-4.22 1.16-5.82 0-.97-.96-1.35-2.64-1.05-3.95.71-.78 1.68-1.42 2.84-1.04.63.37 1.23 1 2.05.59.37 0 .45-.71.37-1.04-.71-.37-.97-1.34-1.94-1.49-1.19 0-2.68 0-3.5.74-1.35 1.12-1.87 2.88-1.5 4.52.45 2.09 1.98 3.54 4 4.14 2.94.71 6-.38 7.87-2.73.78-.85.97-1.75 1.41-2.79 3.1 1.9 5.41 5.18 6.64 8.54 0 1.12.38 2.27 0 3.24h2.24c-.37-.52 0-1.08 0-1.53.86-4.29 3.47-7.83 6.6-10.63 1.08-.63.82.86 1.08 1.31.97 2.46 3.21 4.21 5.6 4.92 2.72.45 5.3 0 6.94-2.27.85-1.57 1.86-3.81.44-5.45-.89-1.08-2.08-1.68-3.5-1.68-1.68 0-2.72 1.16-3.55 2.43 0 .52 0 1.08.38 1.34.37 0 .78 0 .97-.37 0-.97.97-1.42 1.75-1.94.71-.38 1.46 0 2.05.37.71.6.82 1.57.9 2.54 0 1.23-.97 2.53-2.13 3.06-1.86.93-4.55.48-6.15-.6-.79-.86-1.23-1.83-1.83-2.84 0-1.04-.49-1.94 0-2.98 2.83-1.68 5.82-2.91 9.21-3.25 1.34.38 2.5 1.16 3.4 2.17 2.94 3.02-.64 7.35 1.41 10.7.79 0 .79-1.15 1.09-1.79.97-2.35-.38-4.85-.83-7.12-.78-1.42-1.23-2.65-2.46-3.81h.79c1.34.94 2.83 1.94 3.91 3.36a17.31 17.31 0 0 1 2.5 10.63c-.48 1.94-2.57 2.84-4.18 3.55-.63.52-1.41 1.3-1.71 2.08.74.45 1.86 0 2.61-.37 1.23-.45 1.94-2.01 2.8-2.72v.41c0 .71-.38 1.68.37 1.86.37-.89.37-2.2.56-3.28.82.9.97 2.05 1.23 3.25.56 1.11 1.53 2.68 3.06 2.87.41-.56 0-1.16-.37-1.68 0-1.6-1.53-2.46-2.43-3.62-2.24-3.09-1.23-7.94-2.95-11.45-.67-1.86-2.01-3.24-3.46-4.77l.37-.38c3.17 0 5.82.97 8.69 1.53 3.54 1.76 8.65 1.38 10.33 5.97.71 2.57 1.87 4.96 3.66 6.98h.37c.37-.64.37-1.76 0-2.39-.41-3.25-3.21-4.03-4.7-6.72v-.37c1.53.45 3.13.86 4.7 1.49 5.11 1.42 8.73 6.46 9.36 11.72 0 4.14-.78 7.57-2.38 11.07 0 .53-1.09 1.09-.53 1.53.75-.48.86-1.34 1.23-1.94 2.13-3.54 3.21-8.46 2.13-12.98 0-.86-1.01-1.49-.56-2.35.37.41.67.45 1.08.6.38-.37.97-.37 1.2-.71 0-.41.37-.86 0-1.19-.38-.56-1.2-.56-1.83-.41-.37.37-.71.89-.78 1.41-.64-1.11-1.27-2.53-2.32-3.43v-.37c2.91.93 5.52 2.39 8.51 3.13.63.41 1.34.75 2.23.75 2.5.97 5.26 1.34 7.91 1.98 1.94 0 3.55.74 5.45.37-.75-.93-2.28 0-3.1-.75-4.44-.44-8.69-1.6-12.64-3.13h.48c.67-.37 1.12-.93 1.05-1.6-.38-.45-.86-.71-1.5-.71-.37.37-.89.63-.96 1.08 0 .52.52 1.12.96 1.23h-.55c-1.98-.93-3.92-1.75-5.86-2.65-.71 0-1.27-.74-1.98-.86-1.49-.71-2.94-1.41-4.44-2.01-4.1-2.13-8.69-3.28-13.01-4.85-1.01-.37-1.87-.52-2.8-.78-1.61-.45-3.21-.82-4.81-1.31-5.45-1.3-12.8-1.45-17.53 1.53-.79-.37-1.24.93-1.61 0 1.34-3.58 5.26-4.74 8.8-4.85 25.74-.37 49.91-.45 75.28-.86 2.94 0 5.85-1.04 7.38-3.69 1.08-1.53 1.27-4.18.45-5.93M42.555 134.5c-.64.82-1.678-.38-2.376-.56-2.246-1.31-2.187-3.81-4.432-5.3.26-.78.832 0 1.283 0 .382.37.904.52 1.34.71 2.186 1.23 2.697 3.32 4.185 5.22m24.592-6.6c.187.37-.112.56-.26.86-.396.37-.904.37-1.24 0-.436-.38-.566-.71-.38-1.12.224-.38.586-.38.787-.56.437 0 .892.37 1.078.82m-3.19-.64c0 .6-.26 1.05-.83 1.23-.654 0-1.11 0-1.355-.59-.26-.56 0-1.16.51-1.46.7-.44 1.415.38 1.676.82m123.007-1.53c-1.64 1.05-3.43 2.24-5.52 2.24h-3.5l-.38-.37c2.13-2.57 5.97-2.57 9.33-2.31zm-12.79-.29c0 .59-.37 1.26-.97 1.53-.56 0-.97-.38-1.42-.45-.37-.38 0-.75-.37-1.08.45-1.12 2.13-1.12 2.57 0m-92.425-.68c-.08.56-.395.9-.977 1.09-.437 0-.888-.38-1.093-.64-.26-.78.39-1.12.846-1.42.568 0 1.094.49 1.225.97m93.695-2.79c0 .78-1.42.59-1.98 1.15-2.01 1.05-4.36 1.05-6.75.97v-.37c2.32-1.94 5.67-2.65 8.73-1.75m44.46-8.92c.38.75-.41 1.27-.89 1.61-.67.37-1.16-.38-1.57-.6-.37-.37 0-.75 0-1.19.45-.41 1.05-.75 1.68-.49.37.37.52.37.78.67m-16-.93c0 .41-.45.67-.63.93-.52 0-1.05.38-1.49 0 0-.37-.45-.86 0-1.19.74-.9 1.75-.37 2.2.45m-154.932-1.65c.26.56-.26 1.01-.582 1.27-.7 0-1.093 0-1.474-.52-.45-.71.38-1.27.903-1.53.51 0 .832.45 1.153.79m146.832 2.42c.56.71 1.16 1.83 1.42 2.61 0 .37-.45 0-.6 0-2.16-1.23-5-2.57-5.85-5.15-.38-.37-.68-.59-.64-1.04 1.68-.37 3.28.89 4.44 1.79.45.63.97.97 1.23 1.68m23.31-3.36c.38.37.38.9 0 1.23-.37.64-1.26.37-1.86.37-.37-.37-.63-.63-.52-1.15.37-.37.52-.64.97-.86.59 0 1.04 0 1.49.49m-6.27 1.9c.67 0 .79-.82 1.49-.94.68 0 1.24.38 1.53.71.38.75-.37 1.16-.82 1.5-.44.37-1.41-.41-1.34.44.45.38.82.75.9 1.27 0 .37-.6.37-.79 0-1.86-.78-3.84-2.05-4.62-3.99-.38-.6-1.46-1.04-.75-1.57 1.87 0 3.4 1.35 4.4 2.5m-160.368-1.86c-.07 0 .08.37.224.37-.08.71-.586.9-.962 1.23-.582 0-1.022-.37-1.414-.63-.26-.6 0-1.31.642-1.49.567 0 1.34 0 1.53.56m148.568 0c0 .78-.53.93-.97 1.23-.6 0-1.01-.37-1.27-.75-.38-.74.45-1 .82-1.3.63 0 1.23.37 1.42.82m-155.962-1.46c.187.52-.26.71-.298 1.12-.224 1.08-.907 1.79-1.414 2.76-1.227 1.49-2.958 1.49-4.692 1.94l-.26-.49c1.864-2.42 3.863-4.29 6.485-5.44zm159.162.71c0 .6-.52 1.04-1.04 1.19-.52 0-.93-.37-1.23-.67 0-.37 0-.89.37-1.23 0 0 .56 0 .82-.37.56 0 1.05.52 1.16 1m-154.49-1.41c.187.48-.186.74-.336 1.04-.335.41-.902.37-1.283.37-.45-.37-.9-.82-.696-1.52.376-.38.567-.53 1.018-.71.582 0 1.153.37 1.283 1m4.577-.48c-.26.52-.15 1.04-.772 1.3-.642.38-1.414-.37-1.604-.85-.187-.71.336-.9.64-1.23.774-.38 1.34.37 1.736.78m145.338-.26c0 .52-.37.97-.63 1.23-.64.37-1.5 0-1.68-.71 0-.52.37-1.04.82-1.23.48 0 1.23 0 1.49.71m-156.834-.45l-.26.45c-2.377 1.42-5.466 2.38-8.278 1.49l-.26-.37c2.375-1.76 5.523-2.2 8.61-1.76zm175.784.75c0 .93-1.01.48-1.46.74-2.72 1.61-6.19.38-8.76-.59.37-.86 1.19-.53 1.68-.86 2.76-1.72 5.59.41 8.35.52zm-28.95-.75c.38.63-.48.97-.7 1.27-.45.37-1.05 0-1.42-.37-.38 0-.38-.56-.38-.97.38-.38.6-.68 1.05-.83.56 0 1.16.38 1.42.79m3.5.11c0 .63-.52.9-.97 1.01-.78.37-1.15-.38-1.49-.82 0-.38.37-.64.52-.97.9-.41 1.46.37 1.94.78m-129.95-.26c.377.37-.08.82-.11 1.23-.337.37-1.035.71-1.616.37-.642-.37-.57-1.08-.452-1.6.392 0 .392-.6.903-.6.582 0 .903.38 1.283.67m108.982-.15c0 .53 0 .79-.48 1.05-.49.45-.97 0-1.42-.37 0-.38-.38-.68 0-.97.37-.38.52-.49.82-.53.45 0 .97 0 1.15.64m-3.65-.26c.37 0 0 .59 0 .78-.37.37-.9.9-1.46.52-.44-.37-.78-.67-.63-1.23.37-.74 1.64-.78 1.98 0m17.75-.86c.38.86-.45 1.12-.93 1.5-.45 0-.86-.38-1.23-.53 0-.71 0-1.38.89-1.68.56 0 .9.38 1.27.71m30.51-.44c-.37.7-.89 1.04-1.53 1.08-.59-.38-1.23-.71-.78-1.46.37-.37.41-.52.78-.59.79-.38 1.35.37 1.53.97m-4.88-.27c0 .53-.56.79-1.08 1.05-.53 0-.82-.37-1.2-.52-.37-.38-.37-.86 0-1.16.64-1.12 2.35-.59 2.35.63m-169.82-.52c.224.45-.187.64-.336.97-.336 0-.51.38-.888.38-.26-.38-.772-.45-.846-.9-.04-.63.395-.97.846-1.23.627 0 1.02.37 1.21.89m132.314-.37c0 .67 0 1.31-.67 1.57-.79.37-1.42-.41-1.76-.9.38-.52.38-1.26 1.16-1.38.6 0 .97.38 1.27.71m-135.314.15c.186.63-.26 1.08-.642 1.42-.772.37-1.413-.37-1.734-.9.08-.59.51-1.3 1.164-1.49.57 0 .89.64 1.212.97m6.162-.15c-.112.45-.336.93-.888.97-.585 0-.772-.45-1.093-.71 0-.59-.07-1.15.508-1.49.772-.37 1.473.41 1.473 1.23m124.932-.97v.86c-.41.52-.93.97-1.56.63-.38-.37-.82-.78-.64-1.37.52-.68 1.61-.94 2.13 0m-135.194-.12c.07.45-.336.71-.45 1.12-.337 0-.643.37-1.035.37-.45 0-.77-.59-.96-1.04.11-.6.51-1.12 1.152-1.3.522 0 1.107.41 1.294.97m184.724-1.98c.38.59 0 1.04-.37 1.49-.37.45-.78.56-1.16.37-.37-.37-.89-.56-.97-1.15 0-.53.6-.9.97-1.08.64-.377.9.37 1.42.37m-4.14.26c0 .63-.37.97-.82 1.34-.41.38-.86 0-1.23-.37 0-.37-.45-.56-.37-1.05.37-.55.82-.815 1.45-.74.37.37.6.37.9.63m-113.99-.1c.11.6-.38.97-.77 1.23-.59 0-1.1 0-1.36-.52-.19-.45 0-1.08.45-1.23.58 0 1.49 0 1.68.52m-60.193-.34c.112.38.187.71.112.97-.377.6-.96.75-1.6.6-.396-.37-.583-.45-.833-.86.08-.63.567-1.005 1.093-1.23.51 0 .888.37 1.21.52m14.982.86c.224.56-.45.56-.772.71-2.697.97-5.45 0-7.385-1.865 0-.373 0-.523.26-.597 2.638.632 5.71 0 7.897 1.752m-18.49-.89c-.335.37-.07.82-.64.89-.527.37-1.094 0-1.355-.6-.26-.63.336-1.264.828-1.413.526.373 1.037.447 1.168 1.123m175.357-3.145c-2.09 2.91-4.26 6.195-7.84 7.235-.37 0-.52 0-.63-.37 2.16-2.35 3.32-5.97 6.71-6.79.53-.373 1.23-.522 1.76-.373m-31.6 2.797c0-1.23.38-2.387.41-3.543.38-.41.38-.857.38-1.342 1.56-2.09 4.7-1.455 7.12-1.268.97.522 2.2.447 3.25.708.44-.373 1.08-.373 1.6-.373 2.05-1.12.71-3.506.82-5.37l-.78-1.94c0-.41-.38-.858-.49-1.306-.41-.448-.67-1.306-1.04-1.717-1.08-2.872-3.21-4.476-5-6.75-3.28-4.253-8.43-6.64-13.58-8.356-5.07-1.753-10.18.522-14.77 2.163-1.38-.41-2.09-1.53-2.5-2.723-.37-2.46.38-4.85 1.23-6.863 0-1.64 1.27-2.872 1.72-4.327 1.19-3.618 2.39-7.2 2.65-11.152 0-2.388-1.68-4.066-3.47-5.11-1.19-.373-2.61-.373-3.54.708-.83 1.753-2.62 2.91-4.18 3.768 0 1.082 1.23.41 1.68.784 1.41.373 3.02 0 4.17.71 0 2.572-1.34 4.698-2.68 6.675-2.2 3.207-4.52 6.49-5.86 10.07l-.37-.373.37 15.815c2.02 3.395 4.59 7.31 8.39 8.58 2.09 1.678 4.67 3.692 7.39 2.2 1.49-.447 1.6 1.604 2.31 2.462.79 2.387-.97 4.066-1.08 6.266l-1.68 3.54c-1.94 3.77-3.65 7.8-6.6 10.97-.97 0-1.53 1.01-2.5 1.08-.52.71-1.57.37-2.2.45-1.98.86-4.81.37-6.15 2.2 0 0 .37.37.52.37 3.91 0 8.28.37 12.46 0 .52 0 .97-.63 1-1.23-.56-1.08.38-2.05.71-2.91.38-1.57 1.34-2.5 1.83-3.99 1.34-2.65 2.87-5.26 4.36-7.91l1.98-3.24c.45-1.083 1.23-2.463 1.98-3.62.52-.52.78-1.08 1.15-1.715 0-.67-.37-.932-.63-1.38.45-.448 1.16-.373 1.75-.448 1.61.97 3.25 2.537 3.58 4.29l.6 1.64.37.784v2.165l.38 1.975c.37 3.13-.38 6.27-.6 9.4-1.08 3.73-5.37 3.36-8.47 4.21-.74.49-2.24.38-2.24 1.53 3.73.79 8.1.38 12.09.38.63-.38.75-.86 1.08-1.42 0-.86.97-1.57.71-2.46-.71-.94 0-2.32-.37-3.58v-1.2c.52-1.86.37-4.14.78-5.96zm-27.11-3.43c0 .67 0 1.304-.6 1.49-.71 0-1.27 0-1.46-.745 0-.486 0-.747.38-1.046.52-.522 1.42-.373 1.75.373m-113.57-2.09c2.373 1.717 3.015 4.03 4.428 6.343.187.37.832.37.582.86-.522.37-1.033-.41-1.745-.38-2.436-1.077-3.98-3.8-3.906-6.672 0-.373.376-.373.64-.373m26.402-2.09c-.396.784-1.49.97-2.2 1.493-1.53 1.156-3.79 1.417-5.712 1.082 1.675-2.313 4.238-3.656 7.33-3.022.112.373.45 0 .582.448m89.598-.71c.89 1.83.97 4.216 0 6.006l-.49.523c-.71-1.492-1.31-2.947-1.49-4.588.37-1.157.71-2.2.78-3.432.9 0 .82.97 1.08 1.492m-54.86-1.23c.74 2.536.52 5.11-.77 7.235-.1.523.11 1.38-.59 1.306-1.73-2.387-.45-5.744.27-8.28.11-.635.9-.896 1.09-.374m-39.63-.522c.185.634-.337 1.045-.714 1.343-.57.373-.903-.373-1.152-.71-.187-.633.26-.97.64-1.304.452 0 .963 0 1.225.672m68.61.41c0 1.27-2.28 0-1.98 1.53.37 1.23.56 2.685 1.31 3.618.59.858.37 2.2.37 3.282-.52.895-1.46 1.567-2.43 2.048-1.82 0-4.51.94-5.37-1.34-.37-.97-1.04-1.976-1.04-3.058 0 0 .45 0 .63-.373 0-.41-.52-.672-.44-1.082 2.08-.373-.86-2.2.93-2.35 1.45 1.53 3.84 1.044 5.11 2.723.37.374.56.597.93.784-.37-1.53-1.01-3.06-1.23-4.737 0-.858 0-1.64.71-2.126 1.12-.857 2.05.374 2.65 1.045m-74.416-2.723c.26.597-.15 1.12-.653 1.418-.435.373-.83 0-1.21 0-.337-.448-.904-.97-.337-1.492.582-.97 1.73-.448 2.182.373m-5.632-.67c.112.52-.26.708-.395 1.08-.262.41-.773.374-1.078 0-.582-.41-.843-1.118-.467-1.64.717-.71 1.545-.373 1.94.41m157.167.71c.37 0 0 .484 0 .596-1.53.783-3.85.97-5.23-.373-.74-.635-1.71-.896-2.53-1.418.37-.858 1.45-.783 2.27-.97 1.87.373 3.36 2.015 5.41 2.052M47.815 85.895c.26.485-.3.634-.512.895-.45.373-.902 0-1.283 0-.45-.373-.26-.895-.186-1.23.57-1.082 1.734-.374 1.984.484m164.272-1.53c0 .56 0 1.232-.67 1.605-.52 0-1.15 0-1.56-.374-.38-.373-.45-.933-.38-1.38.38-.522.86-.895 1.53-.783.45.373.56.596.93.783m-5.11-.858c0 .634-.48 1.082-.89 1.455-.6 0-1.16-.373-1.27-.746 0-.523.37-.933.67-1.27.6 0 1.2 0 1.49.56m-153.42.3c.186.522-.396.708-.526 1.08-.3.374-.773.41-1.15 0-.454-.41-.962-.97-.51-1.528.51-1.008 1.865-.486 2.186.372m-3.15-.522c.113.783-.148 1.305-.77 1.566-.452.373-.903 0-1.224-.373-.336-.373-.57-.82-.336-1.268.112-.597.698-.485 1.093-.746.582 0 .888.372 1.223.782m164.494-.858c0 .597-.63 1.12-1.19 1.194-.41 0-1.12-.373-1.01-.82 0-.448.37-.896.6-1.008.63-.373 1.42 0 1.6.634m-4.1-.56c0 .486-.52 1.008-.82 1.194-.52.373-1.12 0-1.42-.373-.41 0-.37-.634-.37-.97.37-.447.74-.708 1.23-.857.56 0 .93.522 1.27.932m-149.735-.708c.186 0 .38.708.186 1.044-.39.373-.96.895-1.602.485-.392-.372-.83-.56-.713-1.23.26-.373.582-.634.962-.783.523 0 .773.373 1.164.485m3.795.447c-.08.52-.642.97-1.093 1.23-.642 0-1.108-.448-1.414-.895 0-.522.26-1.194.772-1.306.698-.374 1.473.372 1.735.97M42.932 80.3c-.26.783-.888 1.12-1.735.858-.186 0-.376-.522-.507-.858.08-.447.187-.895.698-1.082.772 0 1.354.373 1.544 1.082m157.898-.783c0 .373.63.858 0 1.193-.37 0-.45.373-.63.523-.71 0-1.35 0-1.53-.784 0-.71.44-1.045.93-1.38.45 0 .78.372 1.12.447m-3.32.15c.37.708-.38 1.23-.82 1.49-.64 0-1.49-.372-1.49-1.155 0-.522.52-.858.96-.97.6 0 1.09.373 1.35.634M59.06 77.838c.38.41.452 1.045.262 1.492-.437.41-1.153.71-1.53 0-.395-.373-.787-.82-.45-1.342.45-.448 1.222-.82 1.73-.373m4.16.223c.07.784-.382 1.27-.964 1.492-.51 0-.902-.373-1.223-.783-.26-.71.39-1.193.902-1.455.51 0 1.164 0 1.284.746m55.95-18.016h.48zm-5.67-2.275c-3.58-1.417-5.97 2.313-9.62 1.865-.45.373-.38.71-.56 1.045h-.75c0-1.53-.68-2.984-.87-4.476-.4-.634-.19-1.53-.51-2.2-2.06-5.595 5-1.343 6.42-4.663 1.23-2.834-2.39-3.133-3.47-5.147v-.82c-1.05-1.082-2.12-1.38-2.76-2.76.45-1.605.64-3.358.18-4.962-.1-.41-.33-.895-.88-.708-1.23 1.678-2.13 3.02-3.3 4.662-1.21-.895-2.372-2.09-3.786-2.835-.962 0-1.85-1.12-2.943-.746-.185.412 0 .747.188.97.07 2.538 1.34 4.552 3.148 6.38l.186.932c-1.15 2.648-.843 5.707-1.15 8.542-2.9 7.385-7.578 14.51-13.945 19.62-3.656 4.14-8.027 8.13-8.61 13.838-.186.895.113 2.014-.566 2.648-2.13-.783-4.24-1.828-5.974-3.17-2.958-2.052-7.2-1.79-9.12-5.558-.772-1.492.186-2.984.887-4.103 2.186-2.053 1.865-5.708.713-8.244-.26 0-.336.373-.522.373-.187 3.84-3.208 6.49-2.056 10.666.262 1.23.903 2.015 1.224 3.208-.45 0-1.093 0-1.47-.373-1.413 0-2.827-.782-4.3-.596-2.958 1.38-7.01-.373-9.38 2.388-.397 0-.908 0-.773.708 1.408 0 2.75.41 4.18.373 2.242.373 3.715-1.492 5.26-2.312h.376c.656-.67 1.75-.372 2.58-.372 4.037.447 7.196 2.35 10.535 4.364v.373c-1.283.596-2.767.97-4.05 1.678-1.474 1.12-3.148 2.537-3.6 4.364-1.018 1.604.336 3.022.963 4.364.07.673.112 1.42.712 1.68 2.055-2.2.112-4.886.45-7.423.512-1.94 2.32-2.835 4.186-3.357 3.657-1.566 6.294 1.418 9.237 3.096-.07 2.984.336 5.82-.336 8.728-.9.373-2.054.526-3.013.446-5.072.41-9.063 3.17-13.625 4.74-2.055.71-4.487.63-6.543 1.41 1.603.45 3.263 0 4.942-.37 6.292-.89 11.1-5.74 17.918-4.92h.112c-.772 1.6-1.79 2.98-3.013 4.21-.188-.71-.263-1.3-.904-1.67-.526-.38-1.093 0-1.473.52-.187.37-.187.71 0 .97.335.56.83.7 1.413.89-.112.6-.846.86-1.223 1.34-1.794 3.06-5.465 1.83-7.59 3.96-.336.45-1.474.71-.963 1.45 2.447.38 4.823-.41 6.628-1.71 2.376-2.65 4.883-5.15 7.244-7.69.39 2.05-.187 4.22-1.414 5.9-.57-.38-1.022-.79-1.72-.97-.656 0-1.092.78-1.167 1.3.262.45.512.97.978 1.27-2.185 1.57-4.953 1.68-7.46 2.39-4.692.59-9.25.97-14.002 1.04-2.257 0-4.808.67-6.934 0-2.436.45-5.073-.37-7.07 1.05-.26.37.07.63.07.97 2.96 1.94 7.01.37 10.344.97h25.308c1.865 0 3.73 0 5.204-.97 3.278-1.91 5.084-5.26 6.747-8.55.638-1.15 1.093-2.53 1.354-3.87.64-2.2 2.622-3.77 4.807-3.956.336 3.356-.335 6.716-1.093 9.846-.38 2.05-1.734 4.06-.902 6.27.186 1.04 1.294 1.04 2.126 1.15 7.766 0 15.542-.45 23.742 0 1.46.37 2.77.71 4.38.64 0 0 .59-.38.37-.64-.37-.74-.67-1.64-1.53-1.83 0-.37-.71-.37-.89-.52-4.11-2.31-9.05-1.08-13.86-1.04-2.522.37-5.028.74-7.143-.71-.96-1.16-.26-4.85-.26-4.85 0-1.46 3.54-11.636 3.99-12.457.15-.97.51-1.902.38-2.984.51-1.306.392-2.985.392-4.402.26-2.052 1.282-4.03 1.983-6.005.398-.97.708-2.015 1.098-2.984.39-1.232.52-2.39 1.29-3.396 2.1 1.343 4.14 1.306 5.15 3.693l.86 5.37c0 .374.37.97.75.598 1.64-1.12 1.11-3.544 1.11-5.26.42-1.976-1-2.946-1.6-4.7-.45-.372-1.19-1.864-1.19-1.864-.38-1.417-3.34-2.424-2.64-4.14.39-1.49.77-2.872 2.19-3.692 0 0 .37.373.37.447l.79-.522v-5.446c2.08 0 5.18.373 7.31.373.59.373 1 .672 1.68.746l.48-.746 5.22-1.007c-2.2.373-3.54-2.275-5.67-2.275M44.74 76.682c1.21.858 2.302 2.014 3.466 3.06-.843.558-1.865 0-2.827 0-2.187-.747-3.67-2.65-5.917-3.284.08-.708.906-.447 1.358-.67 1.414 0 2.563.558 3.92.857m152.02-.56c.38 1.007-.37 1.567-1.08 1.903-.71 0-1.15-.523-1.49-1.045 0-.634.37-1.23.9-1.417h.78c.37 0 .56.447.89.746m12.35-2.052c0 2.798-1.49 5.633-3.99 7.013-.71.373-1.49.97-2.2.522 1.38-2.798 3.43-5.073 5.67-7.535zm-160.844-.895c.962 1.12 1.47 2.052 2.637 3.06.07.372-.112.633-.45.633-3.15 0-5.26-3.432-6.805-5.707.187-.708 1.018 0 1.47-.372 1.093.858 2.316 1.12 3.148 2.2m159.944-2.536c0 .858-1.38 1.68-1.49 2.537-.71 1.752-2.24 3.02-3.99 3.617-.37.373-.89.783-1.45.82 0-1.268 1-2.424 1.71-3.618 1.35-1.717 3.21-2.836 5.22-3.358m-155.837.187c.26.67-.452.97-.698 1.304-.772.373-1.167-.373-1.488-.783-.112-.633.26-1.006.716-1.416.772 0 1.15.373 1.47.895m-2.824.334c0 .523-.44 1.12-.963 1.23-.51.374-.892-.372-1.358-.446-.188-.523-.337-.97 0-1.492.185-.373.64-.373 1.036-.523.582.373 1.164.597 1.283 1.23m156.87-2.013c0 .672-.37 1.38-1 1.567-.64 0-1.27 0-1.46-.783 0-.635 0-1.23.71-1.53.71-.41 1.42.373 1.75.746m-8.13 1.194c.86 1.865.94 4.14.38 6.192l-.38.373c-.93-1.755-2.2-3.396-2.65-5.26 0-1.344.38-2.574.79-3.693.45-.373.71 0 .89.484 0 .673.38 1.53 1.01 1.94M46.472 68.403c.186.783-.392 1.156-.843 1.64-.773 0-1.284-.41-1.605-.932-.08-.634.336-1.268.832-1.53.656 0 1.294.374 1.615.822m141.678-.747c.63 1.343 1.15 2.947 1.3 4.626-.37 1.232 0 2.873-.71 3.693-.89-.373-.97-1.417-1.56-2.014-1.12-2.24 0-4.924.37-7.088.52-.373.52.448.71.783m-138.77-.298c0 .522-.262 1.045-.713 1.268-.51.373-1.022-.373-1.268-.596-.337-.673.04-1.232.566-1.493.7-.373 1.152.373 1.413.82m3.845-.186c.186.672-.437 1.045-.828 1.38-.455 0-1.037-.372-1.283-.708-.452-.485.112-.858.26-1.23.657-.598 1.62 0 1.866.56m150.35-.337c0 .746 0 1.64-.78 1.79-.75.373-1.27-.41-1.46-.932 0-.634.38-1.306.97-1.53.49 0 .94.374 1.27.672m4.7-.933c.49.373 0 .896 0 1.27-.37.372-.78.857-1.38.67-.37-.373-.71-.373-.82-.783 0-.673.37-1.307.9-1.493.52 0 .85 0 1.23.373m3.73-.112v1.044c-.45.56-1.12.82-1.76.56-.44-.373-.56-.71-.67-1.082 0-.522.64-.97 1.08-1.156.56 0 .97.373 1.35.634m-165.72-1.12c-.148.598-.335 1.194-.827 1.455-.395 0-.977 0-1.227-.373-.392-.372-.45-.932-.26-1.38.26-.447.77-.485 1.222-.56.452 0 .903.374 1.093.82m163.22-2.796c.37.71-.38 1.417-.86 1.753-.56 0-1.19-.373-1.6-.71-.38-.707 0-1.34.78-1.677.63 0 1.27 0 1.68.634m-159.3-.187c-.39 1.567-.39 3.693 0 5.11-.334.374-.26-.372-.58-.372-2.507-1.828-1.358-5.372-1.985-7.87.112-.374.44-.374.627 0 1.167.783 1.678 1.864 1.94 3.17m153.778-2.947c1.79 2.126 2.16 5.558.89 8.02-.71 0-.59-.97-.71-1.492-1.3-2.388-2.31-5.446-1.15-8.132.82 0 .48 1.156.97 1.604M99.23 109.58c.67 0 1.21-.52 1.21-1.08 0-.6-.54-1.08-1.21-1.08-.67 0-1.22.48-1.22 1.08 0 .56.55 1.08 1.22 1.08m-3.772-.34c.67 0 1.213-.48 1.213-1.08 0-.6-.54-1.08-1.212-1.08-.672 0-1.21.48-1.21 1.08 0 .6.538 1.08 1.21 1.08m58.222-6.71c.67 0 1.2-.48 1.2-1.08 0-.56-.53-1.05-1.2-1.05-.67 0-1.23.49-1.23 1.05 0 .6.56 1.08 1.23 1.08m4.89-2.908c.67 0 1.19-.485 1.19-1.082 0-.597-.52-1.044-1.19-1.044-.67 0-1.23.447-1.23 1.044s.56 1.082 1.23 1.082m-39.28-7.796s-1.42.448-1.04.41c0-.373.78-1.193 1.12-1.492 0-.485-.68 0-1.27.373 2.09-2.984.74-1.753-.45-1.53 1.9-2.013 1.38-1.976 0-1.38 1.12-.857 1.31-1.864 1.16-2.163-1.01 1.343-1.94 1.157-1.94 2.388 0 .82-.38 2.2-.75 2.648-.52.597 0-2.2-1.53-2.2-.48 0-1.56 0-1.9.52.37 0 .75.747.75 1.046 0 .373.37 1.12-.38 1.12-.48 0-1.04-1.046-1.04-1.568v-1.082c0-1.193-1.9-2.834-2.69-2.834 0 .82 1.08 1.007 1.08 2.05-.48 0-1.11-.857-1.11-.372 0 .522.67.634.67 1.082 0 .447-.79-.373-.79.373 0 .447.45.373.53.783h-.68s0 .373.38.448c0 0-.38.373-.38 1.08 0 2.314 1.46 3.433 2.58 3.433.74 0 .63-.56.74-.784 0 .373.41-.373.41.485 0 .71-.74.41-.74 1.045 0 .82 1.15 0 1.15.858v1.53c0 .372 1.27-.374 1.2-.523.37 0 .37 1.007.82.97.37 0 .41-.895.71-.97 0 0 1.12.82 1.12.448 0-1.12-.45-.634-.45-1.38 0-.71 1.53-.597 1.27-.933-.38-.373-.38 0-.49-.634 0 0-1.19-1.752.37-.782 1.53.97 1.72-2.313 1.65-2.5m24.05-7.758h-11.19V64.26h11.19zm0 9.363c0 2.126-.93 3.916-2.38 4.886l-8.81 5.26V85.037h11.19zm-12.19-9.363h-10.37V64.26h10.37zm0 20.14l-4.07 2.42c-.37.38-.67.38-1.08.38-.41 0-.78 0-1.08-.41l-4.07-2.39V85.037h10.37zm-14.55-27.376h3.17v7.236h-3.17zm3.21 26.746l-8.84-5.26c-1.46-.97-2.2-2.76-2.39-4.888v-8.355h11.23zm-7.35-31.632h-3.88V64.26h3.88zm.97-4.775l.45-.485-.38-.522h.56l.38-.634.37.634h.6l-.38.522.45.485H115v.634l-.56-.41-.52.41v-.634zm2.72 7.945l-.37-.373c-.37 0-.48.56-.78.56-.38 0-.38 0-.38-.373 0 0 .45-.373.64-.485-2.39 0-2.43 1.082-2.84 1.082-.59 0 .53-1.158.86-1.494-.45 0-.75-.67-1.27-.97.38-.372.38-.372.67 0 0-.372.38-.522.75-.522 1.08 0 .78 1.008.97 1.008 0 0 0-1.008.71-1.008 1.04 0 2.39 2.723 1.15 2.723-.52 0 0-.41 0-.484m-2.53 5.818h.56l.37-.633.37.634h.6l-.37.524.45.484h-.56v.635l-.56-.41-.53.41v-.635h-.59l.44-.484zm-4.4-7.347h.59l.38-.634.37.596h.63l-.37.522.45.485h-.56v1.12l-.56-.41-.56.41v-.672h-.56l.45-.484zm-.64 3.245h3.88v7.237h-3.88zm8.92-2.238l.45-.485-.38-.522h.6l.37-.634.38.596h.59l-.37.522.45.485h-.56v1.12l-.56-.41-.56.41v-.672zm2.31-2.648h-3.21v-7.646H120zm24.58-8.616h-36.81v29.728c0 2.872 1.23 5.37 2.91 6.154l14.13 8.462c.37.38.79.56 1.31.56.45 0 .86 0 1.15-.44l14.4-8.582c1.64-.783 2.87-3.282 2.87-6.154V62.956zM97.11 106.45c.56 0 1.01-.45 1.01-1.05 0-.56-.45-1.01-1.01-1.01-.574 0-1.026.45-1.026 1.01 0 .6.452 1.05 1.027 1.05m-4.9 38.23c-.113.37-.3.41-.527.52M609.97 186.53h7.95v.71h-.41c-.52 0-.97 0-1.23.37-.38.37-.41.52-.41.9 0 .48 0 1.15.59 2.01l4.14 8.58 3.81-9.4c.37-.52.37-1.01.37-1.49v-.53s-.37-.37-.45-.37h-1.12v-.71h5.52v.71c-.44 0-.82 0-1.04.37-.37 0-.52.42-.82.86 0 0-.37.64-.63 1.42l-6.94 16.97c-.67 1.64-1.53 2.87-2.61 3.73-1.08.86-2.13 1.27-3.14 1.27-.74 0-1.34-.37-1.82-.63-.45-.41-.68-.9-.68-1.46 0-.52 0-.93.49-1.23.37-.37.82-.48 1.42-.48.41 0 .97 0 1.68.41.48 0 .82.37.93.37.37 0 .74-.37 1.19-.56.45-.37.9-1.12 1.34-2.24l1.2-2.95-6.12-12.83c0-.41-.45-.85-.86-1.45-.37-.41-.59-.71-.78-.86-.37-.37-.75-.37-1.38-.52zm-4.66-5.56v5.56h3.99v1.34h-3.99v11c0 1.12 0 1.87.49 2.24.37.41.7.6 1.19.6.45 0 .82 0 1.19-.37.41-.38.71-.67.9-1.16h.74c-.44 1.23-1.04 2.13-1.86 2.76-.78.6-1.61.9-2.43.9-.59 0-1.11 0-1.67-.45-.56-.37-.97-.79-1.2-1.38-.37-.56-.41-1.49-.41-2.72v-11.42h-2.68v-.63c.67-.38 1.38-.75 2.09-1.38.67-.67 1.34-1.42 1.9-2.32.37-.48.67-1.34 1.19-2.57zm-11.19-3.84c.52 0 .97 0 1.34.56.38.37.56.82.56 1.34 0 .52-.37.97-.56 1.34-.37.38-.82.56-1.34.56-.52 0-.97 0-1.31-.56a1.72 1.72 0 0 1-.59-1.34c0-.52 0-.97.56-1.34.37-.37.82-.56 1.34-.56m1.57 8.91v13.69c0 1.05 0 1.76.37 2.13 0 .37.37.6.67.78.37.38.86.38 1.68.38v.67h-8.28v-.67c.82 0 1.38 0 1.68-.38.37 0 .52-.41.67-.78 0-.37.37-1.08.37-2.13v-6.56c0-1.83 0-3.02-.37-3.58 0-.41 0-.67-.37-.82-.38 0-.45-.38-.79-.38-.37 0-.78 0-1.27.38l-.37-.67 5.15-2.09zm-13.58 0v3.81c1.42-2.54 2.91-3.81 4.36-3.81.71 0 1.27.38 1.72.64.45.41.67.89.67 1.45 0 .45-.37.86-.48 1.2-.38.37-.71.52-1.16.52-.45 0-.93-.37-1.45-.64-.56-.44-.94-.67-1.2-.67-.37 0-.48 0-.74.38-.53.52-1.12 1.34-1.72 2.53v8.13c0 .94 0 1.68.37 2.13 0 .37.41.63.82.86.45.37 1.01.37 1.79.37v.67h-8.72v-.67c.85 0 1.53 0 1.94-.41.37 0 .52-.52.67-.97v-8.39-3.55c0-.37-.38-.63-.45-.78-.37-.37-.49-.37-.82-.37-.37 0-.82 0-1.31.37l-.37-.67 5.15-2.09zm-9.06.49v13.95c0 .45.37.74.44.89.38 0 .45.38.71.38.38 0 .82 0 1.31-.38l.37.64-5.07 2.12h-.86v-3.61c-1.45 1.6-2.57 2.57-3.32 2.98-.78.41-1.6.63-2.46.63-.93 0-1.79-.37-2.46-.82-.71-.56-1.2-1.26-1.46-2.12-.37-.9-.41-2.09-.41-3.7v-7.6c0-.79 0-1.35-.37-1.65-.37-.37-.45-.56-.78-.74-.38 0-.97-.37-1.83-.37v-.71h5.93v11.41c0 1.57.37 2.65.86 3.1.52.52 1.19.74 1.97.74.56 0 1.16 0 1.83-.48.67-.38 1.46-.97 2.39-1.9v-9.67c0-.97-.37-1.6-.52-1.94-.38-.37-1.09-.52-2.2-.55v-.71zm-17.39 10.59c-.44 2.24-1.34 3.96-2.68 5.15-1.34 1.23-2.84 1.83-4.44 1.83-1.94 0-3.62-.82-5.07-2.46-1.42-1.61-2.13-3.81-2.13-6.57 0-2.69.78-4.85 2.39-6.53 1.6-1.68 3.47-2.5 5.71-2.5 1.67 0 3.05.45 4.14 1.35 1.08.89 1.6 1.79 1.6 2.76 0 .44 0 .85-.45 1.12-.37.37-.74.44-1.27.44-.74 0-1.26-.37-1.68-.71-.37-.37-.37-.74-.41-1.49 0-.71-.37-1.27-.74-1.64-.45-.41-1.05-.6-1.79-.6-1.27 0-2.24.49-2.99 1.38-1 1.24-1.53 2.84-1.53 4.82 0 2.05.53 3.84 1.5 5.37 1 1.56 2.35 2.35 4.03 2.35 1.23 0 2.35-.41 3.28-1.23.71-.56 1.34-1.64 2.01-3.1zm-28.46-5.22h7.87c0-1.12-.37-1.87-.41-2.31-.37-.71-.78-1.27-1.38-1.64-.59-.41-1.26-.6-1.9-.6-1.04 0-1.97.41-2.76 1.19-.82.79-1.3 1.91-1.42 3.36m0 1.08c0 2.5.6 4.48 1.83 5.93 1.23 1.42 2.69 2.13 4.37 2.13 1.12 0 2.08-.37 2.91-.9.82-.63 1.49-1.68 2.08-3.17l.56.41c-.37 1.68-1 3.21-2.27 4.63-1.23 1.38-2.8 2.09-4.7 2.09-2.05 0-3.81-.79-5.22-2.39-1.5-1.6-2.2-3.73-2.2-6.42 0-2.91.74-5.18 2.23-6.82 1.5-1.61 3.36-2.43 5.6-2.43 1.94 0 3.47.64 4.74 1.87 1.19 1.27 1.82 2.95 1.82 5.07zm-7.79-15.18v8.73h-.67c-.38-1.68-.64-3.02-1.2-3.99-.59-1.01-1.41-1.79-2.46-2.39-1.08-.56-2.2-.86-3.32-.86-1.27 0-2.35.38-3.21 1.2-.82.78-1.26 1.64-1.26 2.64 0 .79.37 1.5.82 2.13.78.93 2.57 2.16 5.48 3.69 2.35 1.27 3.95 2.24 4.81 2.91a7.33 7.33 0 0 1 2.02 2.39c.44.93.67 1.9.67 2.87 0 1.94-.75 3.58-2.2 4.96-1.5 1.38-3.4 2.05-5.75 2.05h-2.05c-.37 0-1.19-.37-2.39-.67-1.23-.41-1.97-.59-2.27-.59-.37 0-.56 0-.75.37 0 .37-.37.6-.41 1.16h-.67v-8.62h.67c.37 1.79.75 3.13 1.31 4.06.56.86 1.38 1.65 2.5 2.21 1.12.59 2.35.89 3.69.89 1.53 0 2.76-.37 3.65-1.23.94-.78 1.35-1.75 1.35-2.87 0-.64 0-1.27-.49-1.87-.37-.63-.86-1.23-1.6-1.79-.49-.37-1.79-1.15-3.96-2.35-2.16-1.23-3.69-2.16-4.58-2.91-.9-.71-1.61-1.49-2.09-2.38-.49-.86-.71-1.79-.71-2.84 0-1.83.71-3.36 2.09-4.7 1.38-1.27 3.13-1.94 5.29-1.94 1.35 0 2.76.37 4.26.97.71.37 1.19.49 1.45.49.37 0 .6 0 .78-.38.38 0 .42-.56.53-1.15zm-32.75 22.57v-8.77c0-.86-.37-1.6-.67-2.31-.38-.71-.9-1.23-1.49-1.57-.6-.37-1.2-.52-1.79-.52-1.09 0-2.06.48-2.91 1.45-1.16 1.27-1.68 3.18-1.68 5.64 0 2.5.52 4.44 1.6 5.78 1.12 1.3 2.31 1.98 3.66 1.98 1.12 0 2.2-.56 3.28-1.68m0 1.27c-.86.89-1.68 1.52-2.43 1.86-.82.41-1.67.6-2.57.6-1.86 0-3.51-.79-4.89-2.35-1.38-1.57-2.08-3.55-2.08-5.97 0-2.46.78-4.7 2.31-6.71 1.53-2.02 3.5-3.03 5.93-3.03 1.49 0 2.72.45 3.73 1.42v-3.13-3.58c0-.49-.37-.75-.45-.94 0 0-.45-.37-.74-.37-.38 0-.75 0-1.27.37l-.38-.67 5.08-2.09h.86V200.4c0 .45.37.75.48.9 0 0 .41.37.71.37.37 0 .74 0 1.34-.37l.37.63-5.03 2.13h-.86zm-26.11-11.98c1.98-2.42 3.92-3.62 5.71-3.62.93 0 1.75.38 2.38.71.67.45 1.23 1.23 1.61 2.28.37.74.41 1.9.41 3.43v7.27c0 1.05 0 1.79.37 2.2 0 .38.37.53.67.71.37 0 .86.38 1.68.38v.67h-8.43v-.67h.37c.79 0 1.35 0 1.64-.38.38-.37.53-.59.68-1.08v-8.69c0-1.57-.38-2.69-.6-3.36-.41-.71-1.08-1.08-2.05-1.08-1.49 0-2.95.82-4.4 2.43v8.98c0 1.16 0 1.87.37 2.13 0 .37.41.63.71.78.37.38.93.38 1.86.38v.67h-8.43v-.67h.38c.85 0 1.45-.38 1.75-.67.37-.45.45-1.27.45-2.5v-6.34-3.73c0-.45-.38-.75-.41-.9 0 0-.45-.37-.79-.37-.37 0-.74 0-1.23.37l-.37-.67 5.15-2.09h.78zm-12.2 10.26v-6.49c-1.86.75-3.06 1.27-3.62 1.57-.97.56-1.67 1.11-2.12 1.71-.41.6-.6 1.23-.6 1.94 0 .9.37 1.64.78 2.24.53.6 1.16.89 1.83.89.93 0 2.2-.63 3.73-1.86m0 1.19c-1.75 1.35-2.87 2.13-3.28 2.35-.67.38-1.38.45-2.16.45-1.16 0-2.13-.41-2.88-1.19-.78-.82-1.15-1.87-1.15-3.21 0-.78.37-1.53.56-2.13.52-.86 1.38-1.64 2.65-2.38 1.26-.75 3.32-1.65 6.26-2.73v-.67c0-1.68-.37-2.83-.82-3.47-.52-.63-1.3-.93-2.35-.93-.78 0-1.38.37-1.86.6-.45.44-.71.93-.71 1.45v1.08c0 .6 0 1.01-.41 1.35-.38.37-.67.44-1.16.44-.45 0-.82 0-1.12-.48-.37-.37-.45-.75-.45-1.31 0-1.08.56-2.05 1.65-2.94 1.08-.9 2.61-1.35 4.58-1.35 1.53 0 2.76.38 3.73.75.75.41 1.27 1.01 1.61 1.83.37.52.37 1.6.37 3.24v8.81c0 .37 0 .59.37.7h1.01c.37 0 .78-.63 1.49-1.38v1.05c-1.38 1.86-2.72 2.8-3.99 2.8-.6 0-1.08-.38-1.42-.64-.37-.41-.56-1.15-.56-2.16m-33.15-9.14h7.87c0-1.12 0-1.87-.38-2.31-.37-.71-.78-1.27-1.38-1.64-.63-.41-1.27-.6-1.94-.6-1 0-1.94.41-2.76 1.19-.78.79-1.27 1.91-1.41 3.36m0 1.08c0 2.5.59 4.48 1.82 5.93 1.27 1.42 2.73 2.13 4.4 2.13 1.12 0 2.06-.37 2.88-.9.85-.63 1.53-1.68 2.09-3.17l.55.41c-.37 1.68-1 3.21-2.23 4.63-1.27 1.38-2.84 2.09-4.7 2.09-2.05 0-3.81-.79-5.26-2.39-1.46-1.6-2.2-3.73-2.2-6.42 0-2.91.74-5.18 2.27-6.82 1.46-1.61 3.36-2.43 5.6-2.43 1.9 0 3.47.64 4.7 1.87 1.23 1.27 1.82 2.95 1.82 5.07zm-5.3 4.14c-.45 2.24-1.34 3.96-2.69 5.15-1.34 1.23-2.83 1.83-4.44 1.83-1.94 0-3.61-.82-5.07-2.46-1.42-1.61-2.12-3.81-2.12-6.57 0-2.69.78-4.85 2.38-6.53 1.57-1.68 3.51-2.5 5.75-2.5 1.64 0 3.02.45 4.1 1.35 1.08.89 1.6 1.79 1.6 2.76 0 .44 0 .85-.44 1.12-.38.37-.71.44-1.27.44-.75 0-1.27-.37-1.68-.71 0-.37-.37-.74-.41-1.49 0-.71-.37-1.27-.75-1.64-.41-.41-1.04-.6-1.79-.6-1.23 0-2.24.49-2.98 1.38-1.01 1.24-1.53 2.84-1.53 4.82 0 2.05.52 3.84 1.49 5.37 1.01 1.56 2.35 2.35 4.07 2.35 1.19 0 2.31-.41 3.24-1.23.71-.56 1.34-1.64 2.02-3.1zm-28.54-7.46c2.02-2.42 3.92-3.62 5.75-3.62.89 0 1.71.38 2.39.71.67.45 1.19 1.23 1.6 2.28.37.74.41 1.9.41 3.43v7.27c0 1.05 0 1.79.37 2.2 0 .38.38.53.64.71.37 0 .85.38 1.68.38v.67h-8.4v-.67h.38c.78 0 1.34 0 1.67-.38.38-.37.53-.59.64-1.08v-8.69c0-1.57-.37-2.69-.64-3.36-.41-.71-1.08-1.08-2.05-1.08-1.45 0-2.91.82-4.4 2.43v8.98c0 1.16 0 1.87.37 2.13 0 .37.41.63.71.78.38.38.94.38 1.87.38v.67h-8.43v-.67h.37c.86 0 1.46-.38 1.75-.67.38-.45.45-1.27.45-2.5v-6.34-3.73c0-.45-.37-.75-.45-.9-.37 0-.44-.37-.78-.37-.37 0-.75 0-1.23.37l-.37-.67 5.11-2.09h.78zm-18.98 2.24h7.87c0-1.12 0-1.87-.37-2.31-.38-.71-.75-1.27-1.38-1.64-.6-.41-1.24-.6-1.91-.6-1.04 0-1.97.41-2.76 1.19-.85.79-1.3 1.91-1.45 3.36m0 1.08c0 2.5.6 4.48 1.86 5.93 1.23 1.42 2.69 2.13 4.37 2.13 1.12 0 2.09-.37 2.91-.9.82-.63 1.53-1.68 2.05-3.17l.6.41c-.38 1.68-1.05 3.21-2.28 4.63-1.27 1.38-2.83 2.09-4.7 2.09-2.05 0-3.8-.79-5.26-2.39-1.45-1.6-2.16-3.73-2.16-6.42 0-2.91.74-5.18 2.24-6.82 1.49-1.61 3.35-2.43 5.59-2.43 1.9 0 3.47.64 4.7 1.87 1.23 1.27 1.87 2.95 1.87 5.07zm-14.1-6.04c-.9 0-1.68.37-2.28 1.08-.63.75-.93 1.87-.93 3.36 0 1.97.41 3.5 1.27 4.59.63.82 1.45 1.23 2.42 1.23s1.72-.38 2.32-1.09c.63-.7.93-1.79.93-3.31 0-1.98-.41-3.51-1.27-4.63-.63-.82-1.45-1.23-2.46-1.23m-3.4 16.63c-.59.64-1.04 1.2-1.34 1.76-.37.56-.45 1.04-.45 1.53 0 .59.38 1.08 1.09 1.53 1.23.78 3.02 1.15 5.37 1.15 2.24 0 3.88-.37 4.92-1.15 1.08-.82 1.6-1.64 1.6-2.54 0-.63-.37-1.08-.93-1.38-.67-.37-1.94-.41-3.84-.49-2.8 0-4.92-.37-6.42-.41m0-6.19c-1.04-.52-1.86-1.23-2.38-2.16-.6-.9-.86-1.9-.86-3.02 0-1.68.63-3.14 1.9-4.33s2.91-1.83 4.89-1.83c1.6 0 3.02.41 4.21 1.2h4.55v1.27h-3.17c.71.89 1.05 2.01 1.05 3.39 0 1.6-.6 2.95-1.79 4.07-1.23 1.15-2.88 1.71-4.93 1.71-.82 0-1.67 0-2.57-.37-.56.48-.9.89-1.08 1.23-.37.37-.37.67-.37.89 0 .38 0 .41.37.64 0 .37.59.37 1.19.41h2.61c2.54 0 4.22 0 4.96.37 1.16 0 2.06.56 2.76 1.27.68.71 1.01 1.57 1.01 2.57 0 1.38-.63 2.73-1.94 3.92-1.94 1.83-4.47 2.72-7.57 2.72-2.39 0-4.4-.52-6.04-1.6-.94-.63-1.42-1.27-1.42-1.94 0-.37 0-.6.37-.9.38-.44.64-1.08 1.27-1.9 0 0 .75-.78 1.9-2.01-.63-.38-1.08-.75-1.38-1.05-.37-.37-.37-.63-.37-1 0-.45 0-.94.52-1.53.38-.6 1.2-1.42 2.46-2.46m-10.78-19.81c.53 0 .97 0 1.35.56.37.37.56.82.56 1.34 0 .52-.38.97-.56 1.34-.38.38-.82.56-1.35.56-.52 0-.97 0-1.34-.56-.37-.37-.56-.82-.56-1.34 0-.52.37-.97.56-1.34.37-.37.82-.56 1.34-.56m1.57 8.91v13.69c0 1.05 0 1.76.37 2.13 0 .37.38.6.68.78.37.38.85.38 1.67.38v.67h-8.28v-.67c.86 0 1.38 0 1.68-.38.37 0 .52-.41.67-.78.38-.37.38-1.08.38-2.13v-6.56-3.58c0-.41-.38-.67-.38-.82-.37 0-.44-.38-.78-.38-.37 0-.75 0-1.27.38l-.37-.67 5.15-2.09zm-10.59-8.91v22.6c0 1.05 0 1.76.37 2.13 0 .37.37.6.71.78.37 0 .93.38 1.79.38v.67h-8.32v-.67c.79 0 1.31 0 1.61-.38.37 0 .48-.41.67-.78 0-.37.37-1.08.37-2.13v-15.48-3.5c0-.49-.37-.75-.45-.94-.37 0-.41-.37-.71-.37-.37 0-.74 0-1.23.37l-.37-.67 5.07-2.09zm-10.6 0v22.6c0 1.05 0 1.76.38 2.13 0 .37.37.6.67.78.37 0 .93.38 1.83.38v.67h-8.36v-.67c.78 0 1.34 0 1.61-.38.37 0 .52-.41.67-.78 0-.37.37-1.08.37-2.13v-15.48-3.5c0-.49-.37-.75-.41-.94-.37 0-.45-.37-.75-.37-.37 0-.71 0-1.23.37l-.37-.67 5.07-2.09zm-19.88 14.77h7.87c0-1.12-.37-1.87-.37-2.31-.37-.71-.78-1.27-1.38-1.64-.63-.41-1.27-.6-1.94-.6-1.01 0-1.94.41-2.76 1.19-.78.79-1.27 1.91-1.42 3.36m0 1.08c0 2.5.6 4.48 1.87 5.93 1.23 1.42 2.68 2.13 4.36 2.13 1.12 0 2.05-.37 2.87-.9.86-.63 1.53-1.68 2.09-3.17l.56.41c-.37 1.68-1 3.21-2.24 4.63-1.26 1.38-2.83 2.09-4.69 2.09-2.06 0-3.81-.79-5.26-2.39-1.46-1.6-2.2-3.73-2.2-6.42 0-2.91.74-5.18 2.27-6.82 1.46-1.61 3.36-2.43 5.6-2.43 1.94 0 3.46.64 4.7 1.87 1.23 1.27 1.82 2.95 1.82 5.07zm-8.5-12.01v5.56h3.99v1.34h-3.99v11c0 1.12 0 1.87.48 2.24.38.41.71.6 1.23.6.42 0 .79 0 1.2-.37.37-.38.67-.67.89-1.16h.71c-.45 1.23-1.04 2.13-1.83 2.76-.82.6-1.6.9-2.46.9-.56 0-1.12 0-1.68-.45-.52-.37-.93-.79-1.19-1.38-.37-.56-.41-1.49-.41-2.72v-11.42h-2.69v-.63c.71-.38 1.38-.75 2.09-1.38.71-.67 1.35-1.42 1.91-2.32.37-.48.7-1.34 1.19-2.57zm-18.99 8.69c2.02-2.42 3.88-3.62 5.71-3.62.93 0 1.72.38 2.39.71.67.45 1.19 1.23 1.6 2.28.37.74.41 1.9.41 3.43v7.27c0 1.05 0 1.79.37 2.2 0 .38.38.53.64.71.37 0 .89.38 1.71.38v.67h-8.43v-.67h.38c.82 0 1.38 0 1.68-.38.37-.37.56-.59.67-1.08v-8.69c0-1.57-.38-2.69-.64-3.36-.37-.71-1.08-1.08-2.01-1.08-1.49 0-2.95.82-4.4 2.43v8.98c0 1.16 0 1.87.37 2.13 0 .37.37.63.71.78.37.38.89.38 1.83.38v.67h-8.4v-.67h.38c.89 0 1.45-.38 1.79-.67.37-.45.45-1.27.45-2.5v-6.34-3.73c0-.45-.38-.75-.45-.9 0 0-.41-.37-.75-.37-.37 0-.78 0-1.23.37l-.37-.67 5.15-2.09h.78zm-7.08 13.21v.7h-10.78v-.7h.89c1.05 0 1.79-.38 2.28-.9.37-.41.41-1.34.41-2.87v-16.26c0-1.27 0-2.13-.38-2.54 0-.37-.37-.56-.78-.78-.52-.38-1.08-.45-1.68-.45h-.89v-.71h10.78v.71h-.9c-1.04 0-1.79.37-2.27.89-.38.41-.45 1.38-.45 2.88v16.26c0 1.3 0 2.12.37 2.54 0 .37.37.55.75.82.56.37 1.12.41 1.71.41zm350.32-50.51c0-2.05 0-3.43-.38-4.18-.37-.78-.55-1.34-1-1.75-.38-.37-.6-.37-1.08-.37-.64 0-1.2.37-1.61.97-.74 1.12-1.12 2.65-1.12 4.62v.67zm4.66 1.27h-9.73c0 2.35.74 4.21 1.86 5.59.86 1.05 1.94 1.53 3.13 1.53.79 0 1.5 0 2.09-.59.6-.45 1.27-1.2 1.98-2.32l.67.45c-.97 1.94-2.05 3.32-3.21 4.18-1.15.78-2.5 1.19-4.03 1.19-2.64 0-4.62-1-5.96-3.02-1.12-1.64-1.65-3.65-1.65-6.08 0-2.98.79-5.33 2.39-7.05 1.61-1.75 3.47-2.65 5.63-2.65 1.79 0 3.36.75 4.67 2.24 1.34 1.46 2.05 3.62 2.16 6.53m-16.64 4.92l.6.49c-.86 1.53-1.9 2.72-3.13 3.5-1.27.75-2.58 1.12-3.99 1.12-2.35 0-4.26-.89-5.67-2.68-1.42-1.76-2.13-3.92-2.13-6.42 0-2.42.67-4.55 1.94-6.38 1.57-2.2 3.69-3.32 6.42-3.32 1.82 0 3.28.45 4.36 1.38 1.12.94 1.68 1.94 1.68 3.1 0 .71-.37 1.31-.67 1.72-.45.44-1.01.63-1.76.63-.7 0-1.34-.37-1.82-.71-.49-.48-.79-1.38-.9-2.65 0-.78-.37-1.34-.56-1.68-.37-.37-.63-.48-1-.48-.64 0-1.16.37-1.57 1.01-.67.93-.97 2.46-.97 4.44 0 1.67.37 3.28.78 4.81.52 1.53 1.27 2.65 2.17 3.39.7.56 1.52.82 2.49.82.6 0 1.2 0 1.76-.41.52-.37 1.19-.86 1.97-1.68m-26.93-13.16v2.31c.94-1.01 1.79-1.72 2.65-2.16.82-.45 1.72-.68 2.69-.68 1.15 0 2.09.38 2.87.97.75.64 1.27 1.42 1.49 2.35.38.75.38 2.13.38 4.18v6.9c0 1.38 0 2.24.37 2.58.37.37.78.52 1.56.63v.67h-8.98v-.67c.67 0 1.15-.37 1.45-.86.37-.37.37-1.08.37-2.35v-7.91-2.72c0-.41-.37-.67-.59-.89-.38-.38-.56-.38-.9-.38-1.08 0-2.13.75-3.06 2.32v9.51c0 1.34 0 2.16.38 2.53.37.38.7.56 1.38.68v.67h-8.96v-.67c.75 0 1.27-.38 1.57-.75.37-.37.37-1.08.37-2.46v-10.04c0-1.34 0-2.16-.37-2.5-.37-.37-.75-.52-1.53-.63v-.71zm-13.35 6.97c0-2.05 0-3.43-.37-4.18-.38-.78-.56-1.34-1.01-1.75-.37-.37-.63-.37-1.08-.37-.67 0-1.19.37-1.61.97-.74 1.12-1.11 2.65-1.11 4.62v.67zm4.7 1.27h-9.77c0 2.35.74 4.21 1.9 5.59.86 1.05 1.9 1.53 3.13 1.53.75 0 1.46 0 2.09-.59.6-.45 1.27-1.2 1.98-2.32l.67.45c-.97 1.94-2.05 3.32-3.21 4.18-1.15.78-2.5 1.19-4.03 1.19-2.64 0-4.62-1-6-3.02-1.08-1.64-1.61-3.65-1.61-6.08 0-2.98.79-5.33 2.39-7.05 1.61-1.75 3.47-2.65 5.63-2.65 1.79 0 3.36.75 4.67 2.24 1.34 1.46 2.05 3.62 2.16 6.53m-18.65-6.38v12.31c0 1.19 0 1.94.37 2.24.41.48 1.16.67 2.24.67v.67h-10.48v-.67c.82 0 1.38 0 1.72-.37.37 0 .56-.41.7-.71v-14.21h-2.61v-1.87h2.61v-2.2c0-1.83.68-3.36 2.02-4.55 1.34-1.23 3.13-1.83 5.41-1.83 1.56 0 2.72.38 3.47.9.74.56 1.12 1.19 1.12 1.94 0 .56-.38 1.04-.71 1.45-.45.41-1.09.64-1.83.64-.67 0-1.19 0-1.57-.53-.41-.37-.59-.7-.59-1.11v-.71-.6c0-.37 0-.48-.38-.6 0-.37-.45-.37-.71-.37-.41 0-.71 0-.93.45-.37.37-.41.82-.41 1.49V145.24h2.61v1.86zm-13.91 5.11c0-2.05 0-3.43-.38-4.18 0-.78-.55-1.34-1-1.75-.38-.37-.64-.37-1.08-.37-.64 0-1.16.37-1.61.97-.74 1.12-1.12 2.65-1.12 4.62v.67zm4.7 1.27h-9.78c0 2.35.75 4.21 1.91 5.59.85 1.05 1.9 1.53 3.13 1.53.78 0 1.45 0 2.09-.59.6-.45 1.27-1.2 1.98-2.32l.67.45c-.97 1.94-2.05 3.32-3.21 4.18-1.16.78-2.5 1.19-4.03 1.19-2.65 0-4.62-1-6-3.02-1.09-1.64-1.61-3.65-1.61-6.08 0-2.98.79-5.33 2.39-7.05 1.6-1.75 3.47-2.65 5.63-2.65 1.79 0 3.36.75 4.66 2.24 1.35 1.46 2.06 3.62 2.17 6.53m-33.13-14.77V160.9c0 .38.38.41.49.56.37.38.86.38 1.53.38 2.09 0 3.69-.71 4.81-2.17 1.53-1.94 2.28-4.96 2.28-9.06 0-3.32-.53-5.93-1.53-7.91-.86-1.57-1.91-2.61-3.21-3.13-.9-.41-2.39-.6-4.51-.6m-9.81 24.28v-.71h.85c.75 0 1.31 0 1.68-.37.41-.37.71-.56.93-.97v-19.32c0-1.3 0-2.13-.37-2.46 0-.37-.41-.64-.86-.86-.41-.37-.97-.37-1.67-.37h-.86v-.71h11.52c3.06 0 5.52.41 7.39 1.23 2.31 1.04 4.06 2.61 5.22 4.66 1.19 2.09 1.79 4.4 1.79 7.05 0 1.83-.37 3.47-.89 5-.56 1.53-1.31 2.8-2.24 3.81-.93.96-2.02 1.75-3.21 2.34-1.19.64-2.69 1.09-4.44 1.42-.74 0-1.98.38-3.62.38zm-12.39-16v12.31c0 1.19 0 1.94.38 2.24.41.48 1.15.67 2.23.67v.67h-10.44v-.67c.78 0 1.34 0 1.68-.37.37 0 .59-.41.71-.71v-14.21h-2.58v-1.87h2.58v-2.2c0-1.83.63-3.36 1.97-4.55 1.35-1.23 3.17-1.83 5.41-1.83 1.57 0 2.72.38 3.47.9.78.56 1.16 1.19 1.16 1.94 0 .56-.38 1.04-.71 1.45-.49.41-1.08.64-1.87.64-.67 0-1.19 0-1.56-.53-.41-.37-.6-.7-.6-1.11v-.71-.6-.6c-.37-.37-.49-.37-.75-.37-.37 0-.67 0-.93.45-.37.37-.37.82-.37 1.49V145.24h2.61v1.86zm-17.79-1.04c-.63 0-1.19.37-1.68.74-.45.49-.74 1.42-.89 2.88 0 1.45-.38 3.43-.38 6 0 1.34 0 2.61.38 3.77 0 .89.41 1.6.85 2.05.45.48 1.01.71 1.57.71s1.05 0 1.42-.49c.48-.41.82-1 1.01-1.79.37-1.19.37-3.65.37-7.27 0-2.16 0-3.66-.37-4.44-.38-.82-.6-1.42-1.09-1.75-.37-.38-.74-.41-1.26-.41m0-1.35c1.52 0 2.98.41 4.28 1.2 1.35.78 2.35 1.94 3.03 3.39.7 1.49 1.04 3.1 1.04 4.81 0 2.54-.63 4.63-1.9 6.35-1.57 2.05-3.69 3.05-6.42 3.05-2.65 0-4.7-.93-6.15-2.79-1.46-1.87-2.17-4.03-2.17-6.49 0-2.58.75-4.78 2.21-6.68 1.49-1.9 3.5-2.84 6.08-2.84m-22.83-5.96v6.49h4.21v1.9h-4.21v12.94c0 .38.37.52.48.71.38 0 .49.37.67.37.82 0 1.61-.63 2.35-1.86l.56.41c-1 2.42-2.68 3.62-4.99 3.62-1.12 0-2.09-.38-2.88-.9-.74-.63-1.26-1.34-1.45-2.12 0-.45-.37-1.61-.37-3.51v-9.55h-2.32v-.67c1.57-1.12 2.95-2.31 4.03-3.58 1.12-1.23 2.13-2.61 2.95-4.14zm-20.03 6.49v2.31c.89-1.01 1.79-1.72 2.61-2.16.86-.45 1.71-.68 2.68-.68 1.16 0 2.13.38 2.88.97.74.64 1.26 1.42 1.53 2.35 0 .75.37 2.13.37 4.18v6.9c0 1.38 0 2.24.37 2.58.37.37.75.52 1.53.63v.67h-8.99v-.67c.67 0 1.16-.37 1.46-.86.37-.37.37-1.08.37-2.35v-7.91-2.72c0-.41-.37-.67-.6-.89-.37-.38-.56-.38-.89-.38-1.08 0-2.09.75-3.02 2.32v9.51c0 1.34 0 2.16.37 2.53.37.38.71.56 1.42.68v.67h-8.99v-.67c.74 0 1.27-.38 1.6-.75.37-.37.37-1.08.37-2.46v-10.04c0-1.34 0-2.16-.37-2.5-.37-.37-.74-.52-1.53-.63v-.71zm-13.77 6.97c0-2.05 0-3.43-.37-4.18-.37-.78-.56-1.34-1.04-1.75-.38-.37-.6-.37-1.05-.37-.67 0-1.19.37-1.6.97-.75 1.12-1.12 2.65-1.12 4.62v.67zm4.67 1.27h-9.74c0 2.35.75 4.21 1.9 5.59.86 1.05 1.91 1.53 3.14 1.53.74 0 1.45 0 2.05-.59.63-.45 1.3-1.2 2.01-2.32l.64.45c-.97 1.94-2.02 3.32-3.17 4.18-1.16.78-2.54 1.19-4.07 1.19-2.61 0-4.59-1-5.97-3.02-1.08-1.64-1.6-3.65-1.6-6.08 0-2.98.78-5.33 2.39-7.05 1.6-1.75 3.46-2.65 5.63-2.65 1.79 0 3.35.75 4.66 2.24 1.31 1.46 2.01 3.62 2.13 6.53m-38.87-8.24v2.31c.97-1.05 1.86-1.79 2.69-2.2.85-.41 1.75-.64 2.76-.64 1.11 0 2.08.38 2.83.79.78.52 1.38 1.34 1.79 2.46 1.01-1.16 1.98-1.98 2.91-2.5.93-.48 1.9-.75 2.91-.75 1.23 0 2.24.38 2.95.86.74.56 1.23 1.27 1.53 2.13.37.86.41 2.24.41 4.14v7.27c0 1.38 0 2.24.37 2.54.37.37.75.56 1.57.67v.67h-9.18v-.67c.71 0 1.23-.37 1.57-.86.37-.37.37-1.12.37-2.35v-7.64-2.99c0-.45-.37-.78-.63-.97-.38-.37-.56-.37-.94-.37-.56 0-1.12.37-1.68.6-.52.37-1.08.97-1.64 1.79v9.51c0 1.27 0 2.09.38 2.42.37.45.85.71 1.67.79v.67h-9.17v-.67c.48 0 .86-.38 1.16-.38.37-.37.44-.48.55-.82v-9.66c0-1.57 0-2.57-.37-2.98 0-.41-.37-.75-.63-.97-.38-.38-.64-.38-.97-.38-.49 0-.97 0-1.38.38-.6.41-1.23 1.08-1.9 2.05v9.51c0 1.27 0 2.09.37 2.5.37.37.74.6 1.56.71v.67h-9.17v-.67c.75 0 1.3-.37 1.6-.75.38-.37.38-1.08.38-2.46v-10.03c0-1.35 0-2.17-.38-2.5-.37-.38-.74-.52-1.53-.64v-.71zm-13.24-6.49v6.49h4.18v1.9h-4.18v12.94c0 .38.37.52.52.71.37 0 .45.37.67.37.82 0 1.57-.63 2.31-1.86l.56.41c-1 2.42-2.68 3.62-4.96 3.62-1.15 0-2.09-.38-2.87-.9-.78-.63-1.27-1.34-1.49-2.12V147.4h-2.31v-.67c1.6-1.12 2.94-2.31 4.06-3.58 1.12-1.23 2.09-2.61 2.95-4.14zm-16.94 6.49v4.03c1.16-1.83 2.21-3.06 3.06-3.66.9-.6 1.76-.9 2.58-.9.71 0 1.26.38 1.68.68.44.41.67 1.04.67 1.82 0 .86-.38 1.5-.64 1.98-.41.49-.89.71-1.49.71-.67 0-1.27-.37-1.72-.67-.52-.41-.82-.64-.89-.71h-.45c-.37 0-.71 0-1.04.41-.49.45-.9 1.08-1.16 1.86-.41 1.2-.6 2.58-.6 4.07v6.53c0 .37.38.59.64.74.37 0 .82.38 1.53.38v.67h-9.59v-.67c.78 0 1.31-.38 1.57-.64.37-.37.41-1.34.41-2.87v-9.81-1.94c0-.37-.37-.63-.56-.78-.37 0-.67-.38-1.27-.38v-.7zm-15.85 13.76v-5.97c-1.53.9-2.65 1.87-3.43 2.91-.48.67-.71 1.34-.71 2.05 0 .6 0 1.08.6 1.53.37.38.78.52 1.34.52.64 0 1.38-.37 2.2-1.04m0 1.38c-2.16 1.9-4.1 2.84-5.82 2.84-1 0-1.86-.38-2.53-.97-.67-.68-1.01-1.5-1.01-2.5 0-1.38.6-2.58 1.75-3.66 1.16-1.08 3.7-2.54 7.61-4.33v-1.75c0-1.38 0-2.2-.37-2.54 0-.37-.41-.67-.82-.93-.41-.37-.86-.37-1.34-.37-.86 0-1.53.37-2.06.52-.37.37-.48.52-.48.82 0 .37 0 .56.52.97.49.56.71 1.08.71 1.57 0 .63-.37 1.15-.71 1.6-.45.41-1.04.64-1.79.64-.78 0-1.45-.38-2.01-.71-.53-.49-.79-1.05-.79-1.68 0-.93.38-1.79 1.08-2.61.71-.82 1.72-1.46 3.03-1.9 1.3-.45 2.61-.68 4.02-.68 1.68 0 2.99.38 4 1.09.97.7 1.6 1.49 1.9 2.31 0 .52.37 1.75.37 3.65v8.43c0 .38 0 .38.37.45h.45c.37 0 .67-.37 1.01-.71l.56.49c-.64.93-1.31 1.6-1.98 2.05-.67.41-1.45.6-2.27.6-1.05 0-1.83-.38-2.39-.68-.56-.48-.9-1.19-1.05-2.16m-23.72-.97c1.08 1.53 2.24 2.31 3.51 2.31.67 0 1.23-.37 1.68-1.08.67-1.04 1-3.09 1-6.08 0-3.06-.37-5.14-1.08-6.26-.52-.75-1.15-1.12-1.94-1.12-1.3 0-2.35.93-3.17 2.76zm0 1.9v6.64c0 .9 0 1.53.37 1.83 0 .37.41.56.71.71.38 0 .9.37 1.79.37v.71h-10.1v-.71c.78 0 1.34-.37 1.75-.67.37-.37.37-1.04.37-2.27v-18.73c0-1.23 0-2.05-.45-2.39-.37-.37-.85-.52-1.67-.59v-.71h7.42v2.31c.63-.89 1.27-1.53 1.9-1.94.93-.6 1.94-.89 3.02-.89 1.31 0 2.46.41 3.55 1.23 1.08.82 1.9 1.94 2.42 3.39.56 1.49.86 3.02.86 4.66 0 1.83-.38 3.47-.86 4.96-.6 1.5-1.42 2.62-2.5 3.4a6.22 6.22 0 0 1-3.69 1.16c-.93 0-1.87-.38-2.72-.64-.64-.37-1.27-.89-1.98-1.71m-13.17-9.07c0-2.05 0-3.43-.37-4.18-.37-.78-.56-1.34-1.01-1.75-.37-.37-.63-.37-1.08-.37-.67 0-1.19.37-1.6.97-.75 1.12-1.12 2.65-1.12 4.62v.67zm4.66 1.27h-9.73c0 2.35.74 4.21 1.9 5.59.86 1.05 1.9 1.53 3.13 1.53.75 0 1.46 0 2.09-.59.6-.45 1.27-1.2 1.98-2.32l.63.45c-.97 1.94-2.01 3.32-3.17 4.18-1.19.78-2.5 1.19-4.06 1.19-2.61 0-4.63-1-5.97-3.02-1.08-1.64-1.64-3.65-1.64-6.08 0-2.98.82-5.33 2.39-7.05 1.64-1.75 3.5-2.65 5.63-2.65 1.83 0 3.35.75 4.7 2.24 1.3 1.46 2.05 3.62 2.12 6.53m-33.08-14.77V160.9c0 .38.37.41.48.56.38.38.86.38 1.5.38 2.12 0 3.73-.71 4.84-2.17 1.5-1.94 2.28-4.96 2.28-9.06 0-3.32-.52-5.93-1.57-7.91-.82-1.57-1.86-2.61-3.17-3.13-.89-.41-2.42-.6-4.51-.6m-9.85 24.28v-.71h.9c.71 0 1.3 0 1.68-.37.41-.37.7-.56.89-.97 0-.37.37-1.08.37-2.39v-16.93c0-1.3 0-2.13-.37-2.46 0-.37-.41-.64-.86-.86-.41-.37-.97-.37-1.68-.37h-.89v-.71h11.53c3.09 0 5.55.41 7.42 1.23 2.31 1.04 4.03 2.61 5.22 4.66 1.16 2.09 1.75 4.4 1.75 7.05 0 1.83-.37 3.47-.85 5-.6 1.53-1.35 2.8-2.28 3.81-.9.96-1.98 1.75-3.21 2.34-1.19.64-2.65 1.09-4.4 1.42-.78 0-1.98.38-3.65.38zm.15-44.5v-.37h402.17v.37zm398.59-47.327v7.124h4.62v2.09h-4.62v14.247c0 .373.37.56.56.784.37.373.48.373.71.373.93 0 1.75-.708 2.57-2.088l.64.485c-1.12 2.648-2.95 3.99-5.49 3.99-1.27 0-2.31-.372-3.17-1.006-.82-.708-1.38-1.454-1.64-2.312V80.71h-2.54v-.746c1.76-1.23 3.25-2.536 4.48-3.88 1.23-1.38 2.28-2.908 3.21-4.587zm-21.41 7.124v2.537c.97-1.082 1.94-1.865 2.87-2.35.9-.485 1.9-.746 2.95-.746 1.27 0 2.35.373 3.17 1.044a5.31 5.31 0 0 1 1.68 2.61c.37.822.37 2.314.37 4.59v7.608c0 1.492 0 2.425.41 2.798.37.373.86.596 1.72.708v.746h-9.85v-.746c.71 0 1.23-.41 1.57-.932.37-.373.37-1.194.37-2.574v-8.69c0-1.605 0-2.612-.37-3.022 0-.448-.38-.746-.68-.97-.37-.373-.59-.373-.97-.373-1.19 0-2.31.82-3.32 2.537v10.48c0 1.456 0 2.388.38 2.76.37.41.78.635 1.53.747v.745H619v-.746c.78 0 1.38-.374 1.72-.784.37-.373.37-1.23.37-2.723v-11.04c0-1.456 0-2.388-.41-2.76-.37-.374-.82-.598-1.68-.71v-.783zm-13.84 7.684c0-2.237 0-3.804-.37-4.587-.38-.858-.64-1.492-1.16-1.94-.37-.373-.67-.373-1.15-.373-.71 0-1.31.373-1.76 1.082-.86 1.23-1.27 2.947-1.27 5.073v.746zm5.11 1.38h-10.7c0 2.612.82 4.664 2.08 6.156.97 1.156 2.13 1.715 3.47 1.715.82 0 1.57-.372 2.24-.67.71-.448 1.42-1.306 2.2-2.537l.71.485c-1.04 2.126-2.24 3.656-3.51 4.588-1.26.858-2.76 1.343-4.43 1.343-2.91 0-5.08-1.157-6.57-3.358-1.19-1.79-1.79-4.028-1.79-6.677 0-3.282.86-5.856 2.61-7.758 1.79-1.94 3.84-2.91 6.19-2.91 1.98 0 3.7.82 5.15 2.425 1.46 1.64 2.24 4.03 2.35 7.2m-42.33-9.065v2.574c1.08-1.155 2.08-1.976 2.98-2.424.89-.485 1.9-.708 3.02-.708 1.23 0 2.28.373 3.13.857.86.597 1.5 1.492 1.98 2.686 1.08-1.23 2.16-2.162 3.17-2.722 1.05-.56 2.09-.82 3.21-.82 1.38 0 2.42.373 3.24.932.79.634 1.35 1.417 1.65 2.387.37.933.48 2.462.48 4.514v8.02c0 1.492 0 2.425.41 2.798.37.373.86.56 1.72.708v.746h-10.11v-.746c.82 0 1.38-.373 1.75-.932.37-.373.37-1.23.37-2.574v-8.392-3.32c0-.485-.37-.82-.67-1.045-.37-.373-.63-.373-1.04-.373-.6 0-1.2.373-1.83.672-.63.447-1.23 1.082-1.86 1.977v10.48c0 1.38 0 2.275.37 2.648.37.523.93.784 1.83.858v.746h-10.11v-.746c.56 0 .97 0 1.3-.41.38-.373.53-.522.6-.858V85.448c0-1.79 0-2.873-.37-3.32 0-.448-.38-.783-.71-1.045-.37-.373-.67-.373-1.05-.373-.56 0-1.08 0-1.52.41-.64.448-1.35 1.194-2.09 2.24v10.48c0 1.38 0 2.275.41 2.723.37.448.85.71 1.71.783v.746h-10.07v-.746c.82 0 1.42-.373 1.75-.783.38-.373.38-1.23.38-2.723V82.8c0-1.455 0-2.388-.45-2.76-.37-.374-.82-.598-1.68-.71v-.783zm-22.61 0v2.537c1.01-1.082 1.98-1.865 2.87-2.35.94-.485 1.91-.746 2.95-.746 1.31 0 2.35.373 3.17 1.044a5.31 5.31 0 0 1 1.68 2.61c.37.822.37 2.314.37 4.59v7.608c0 1.492 0 2.425.41 2.798.38.373.82.596 1.68.708v.746h-9.85v-.746c.71 0 1.23-.41 1.57-.932.37-.373.37-1.194.37-2.574v-8.69c0-1.605 0-2.612-.37-3.022 0-.448-.37-.746-.63-.97-.38-.373-.64-.373-.97-.373-1.2 0-2.32.82-3.36 2.537v10.48c0 1.456 0 2.388.41 2.76.37.41.75.635 1.53.747v.745h-9.89v-.746c.83 0 1.38-.374 1.76-.784.37-.373.37-1.23.37-2.723v-11.04c0-1.456 0-2.388-.41-2.76-.37-.374-.82-.598-1.68-.71v-.783zm-18.01 0v4.44c1.3-2.015 2.46-3.358 3.43-3.992.97-.672 1.9-1.007 2.79-1.007.79 0 1.42.373 1.87.708.48.485.71 1.157.71 2.052 0 .932-.37 1.64-.67 2.163-.49.523-1.01.784-1.64.784-.75 0-1.38-.373-1.94-.708-.53-.485-.82-.746-.94-.82h-.48c-.41 0-.78 0-1.16.447-.56.485-1 1.156-1.3 2.05a15.248 15.248 0 0 0-.67 4.477V96.303c0 .372.41.633.74.82.37.372.86.372 1.68.372v.746H527.2v-.745c.82 0 1.42-.373 1.72-.708.37-.41.45-1.455.45-3.17v-10.78-2.127c0-.373-.38-.67-.64-.857-.37 0-.71-.373-1.38-.373v-.784zm-14.36 7.684c0-2.237 0-3.804-.42-4.587-.37-.858-.59-1.492-1.11-1.94-.38-.373-.68-.373-1.16-.373-.75 0-1.31.373-1.75 1.082-.86 1.23-1.27 2.947-1.27 5.073v.746zm5.11 1.38h-10.71c0 2.612.82 4.664 2.09 6.156.93 1.156 2.09 1.715 3.47 1.715.82 0 1.56-.372 2.27-.67.67-.448 1.38-1.306 2.17-2.537l.71.485c-1.05 2.126-2.21 3.656-3.51 4.588-1.27.858-2.76 1.343-4.44 1.343-2.91 0-5.07-1.157-6.56-3.358-1.2-1.79-1.79-4.028-1.79-6.677 0-3.282.85-5.856 2.61-7.758 1.75-1.94 3.84-2.91 6.23-2.91 1.93 0 3.65.82 5.11 2.425 1.45 1.64 2.23 4.03 2.35 7.2m-26.11 11.077l-6.57-15.145c-.78-1.827-1.42-2.984-1.83-3.47-.37-.372-.82-.595-1.45-.745v-.783h10.37v.783c-.64 0-1.08 0-1.35.373-.37.373-.48.672-.48 1.082 0 .522.37 1.492.93 2.91l3.21 7.31 2.57-6.303c.71-1.828 1.09-3.096 1.12-3.88 0-.41-.37-.746-.48-1.007-.38-.373-.86-.447-1.64-.485v-.783h6.38v.783c-.64 0-1.12.373-1.53.71-.38.372-.97 1.454-1.76 3.32l-6.52 15.33zm-18.32-19.21c-.71 0-1.34.373-1.83.82-.52.522-.85 1.567-1 3.17 0 1.567-.38 3.768-.38 6.565 0 1.492 0 2.873.38 4.178 0 .97.44 1.753.97 2.238.48.523 1.08.784 1.71.784.6 0 1.12 0 1.57-.522.52-.485.89-1.156 1.08-1.977.37-1.343.41-3.99.41-8.02 0-2.386 0-3.99-.41-4.886-.37-.858-.63-1.53-1.16-1.94-.37-.373-.82-.41-1.41-.41m0-1.492c1.67 0 3.24.447 4.73 1.305 1.46.895 2.54 2.126 3.32 3.73.75 1.604 1.12 3.394 1.12 5.334 0 2.76-.71 5.073-2.09 6.938-1.71 2.238-4.03 3.394-7.01 3.394-2.95 0-5.22-1.045-6.82-3.097-1.57-2.09-2.35-4.44-2.35-7.16 0-2.8.78-5.26 2.42-7.312 1.6-2.088 3.84-3.132 6.68-3.132m-13.58-8.84v9.96h-.75c-.93-2.724-2.35-4.813-4.21-6.193-1.87-1.455-3.92-2.164-6.12-2.164-2.09 0-3.84.598-5.26 1.83-1.42 1.155-2.42 2.797-2.98 4.96-.6 2.126-.9 4.29-.9 6.565 0 2.685.38 5.073.97 7.124.64 2.05 1.68 3.543 3.1 4.512 1.42.933 3.13 1.418 5.07 1.418h2.13c.71 0 1.41-.373 2.2-.672v-5.893c0-1.082 0-1.828-.38-2.126 0-.374-.44-.635-.93-.896-.48-.373-1.08-.41-1.75-.41h-.71v-.747h13.76v.746c-1.04 0-1.79.373-2.2.448-.41 0-.71.56-.93 1.083 0 .373-.37.895-.37 1.902v5.893c-1.79.82-3.69 1.418-5.63 1.828-1.94.41-4 .634-6.08.634-2.69 0-4.93-.373-6.68-1.08a17.4 17.4 0 0 1-4.74-2.91c-1.34-1.194-2.39-2.537-3.17-4.03-.97-1.902-1.45-4.065-1.45-6.452 0-4.252 1.49-7.833 4.47-10.78 3.02-2.947 6.79-4.4 11.3-4.4 1.42 0 2.69 0 3.81.372.63 0 1.6.447 2.95.97 1.41.522 2.2.746 2.46.746.41 0 .74 0 1.08-.41.37-.374.63-.82.93-1.605zm-51.51 9.4v2.536c.97-1.082 1.94-1.865 2.87-2.35.9-.485 1.9-.746 2.95-.746 1.26 0 2.31.373 3.17 1.044a5.31 5.31 0 0 1 1.68 2.61c0 .822.37 2.314.37 4.59v7.608c0 1.492 0 2.425.37 2.798.37.373.86.596 1.72.708v.746h-9.89v-.746c.75 0 1.27-.41 1.61-.932.37-.373.37-1.194.37-2.574v-8.69c0-1.605 0-2.612-.37-3.022 0-.448-.38-.746-.67-.97-.38-.373-.64-.373-.97-.373-1.2 0-2.32.82-3.32 2.537v10.48c0 1.456 0 2.388.37 2.76.37.41.78.635 1.53.747v.745h-9.89v-.746c.82 0 1.42-.374 1.76-.784.37-.373.37-1.23.37-2.723v-11.04c0-1.456 0-2.388-.41-2.76-.37-.374-.86-.598-1.72-.71v-.783zM399.6 93.69v-6.527c-1.68.97-2.95 2.052-3.73 3.17-.56.747-.82 1.493-.82 2.276 0 .633.37 1.193.67 1.678.37.373.86.56 1.46.56.71 0 1.53-.374 2.42-1.157m0 1.53c-2.39 2.09-4.51 3.133-6.41 3.133-1.09 0-2.02-.373-2.76-1.08-.75-.747-1.09-1.642-1.09-2.762 0-1.49.64-2.833 1.91-3.99 1.26-1.193 4.06-2.797 8.35-4.774V83.77c0-1.456 0-2.388-.37-2.76 0-.374-.45-.71-.93-1.008-.45-.373-.94-.448-1.5-.448-.89 0-1.64.373-2.23.634-.38.373-.53.523-.53.858 0 .373.38.672.56 1.082.56.597.82 1.194.82 1.753 0 .672-.37 1.27-.78 1.754-.48.448-1.16.71-2.01.71-.86 0-1.57-.374-2.17-.784-.63-.523-.89-1.157-.89-1.865 0-1.008.41-1.977 1.19-2.873.78-.932 1.87-1.603 3.32-2.088a13.7 13.7 0 0 1 4.44-.746c1.83 0 3.28.373 4.36 1.193 1.09.785 1.79 1.642 2.09 2.538.38.596.38 1.94.38 4.028v9.288s.37.373.37.485h.48c.38 0 .75-.374 1.12-.747l.64.485c-.71 1.044-1.42 1.79-2.17 2.275-.74.447-1.6.67-2.53.67-1.12 0-1.98-.372-2.61-.782-.64-.52-1.01-1.305-1.16-2.35m-13.62-16.523v15.48c0 1.38 0 2.275.45 2.648.38.373.97.597 1.9.67v.747h-10.55v-.746c.86 0 1.53-.373 1.94-.746.37-.373.41-1.193.41-2.573V82.65c0-1.38 0-2.275-.49-2.648-.37-.373-.93-.597-1.86-.672v-.783zm-2.94-9.437c.93 0 1.68.373 2.31.97.63.634.93 1.38.93 2.275 0 .896-.37 1.64-.97 2.276a3.14 3.14 0 0 1-2.27.933c-.86 0-1.64-.373-2.28-.932-.63-.634-.93-1.38-.93-2.275s.37-1.64.93-2.275c.64-.634 1.42-.97 2.28-.97m-8.92.672v24.245c0 1.38 0 2.275.49 2.648.37.373.93.597 1.86.67v.747h-10.55v-.746c.86 0 1.53-.373 1.94-.746.37-.373.41-1.193.41-2.573v-20.18c0-1.38 0-2.238-.49-2.61-.37-.41-.93-.635-1.86-.672v-.783zm-16.97 23.91v-6.53c-1.68.97-2.95 2.053-3.73 3.172-.56.746-.82 1.492-.82 2.275 0 .633.37 1.193.67 1.678.38.373.82.56 1.46.56.71 0 1.49-.374 2.42-1.157m0 1.53c-2.39 2.09-4.51 3.133-6.41 3.133-1.12 0-2.02-.373-2.76-1.08-.75-.747-1.12-1.642-1.12-2.762 0-1.49.63-2.833 1.94-3.99 1.26-1.193 4.06-2.797 8.35-4.774V83.77c0-1.456 0-2.388-.37-2.76 0-.374-.49-.71-.93-1.008-.45-.373-.94-.448-1.5-.448-.89 0-1.64.373-2.23.634-.38.373-.53.523-.53.858 0 .373 0 .672.56 1.082.56.597.79 1.194.79 1.753 0 .672-.38 1.27-.75 1.754-.52.448-1.16.71-1.98.71-.89 0-1.6-.374-2.23-.784-.56-.523-.86-1.157-.86-1.865 0-1.008.41-1.977 1.19-2.873.78-.932 1.9-1.603 3.32-2.088a13.52 13.52 0 0 1 4.44-.746c1.83 0 3.28.373 4.36 1.193 1.09.785 1.79 1.642 2.09 2.538 0 .596.38 1.94.38 4.028v9.288s.37.373.37.485h.48c.38 0 .75-.374 1.12-.747l.64.485c-.71 1.044-1.42 1.79-2.17 2.275-.74.447-1.6.67-2.53.67-1.12 0-1.98-.372-2.61-.782-.64-.52-1.01-1.305-1.16-2.35m-19.4-16.523v4.44c1.31-2.015 2.43-3.358 3.4-3.992.97-.672 1.94-1.007 2.83-1.007.79 0 1.38.373 1.87.708.45.485.71 1.157.71 2.052 0 .932-.38 1.64-.71 2.163-.45.523-1.01.784-1.61.784-.74 0-1.38-.373-1.94-.708-.52-.485-.85-.746-.97-.82h-.48c-.37 0-.78 0-1.12.447-.6.485-1.01 1.156-1.3 2.05-.45 1.344-.68 2.836-.68 4.477V96.303c0 .372.38.633.71.82.38.372.9.372 1.68.372v.746h-10.55v-.745c.85 0 1.41-.373 1.71-.708.37-.41.45-1.455.49-3.17v-10.78-2.127c0-.373-.38-.67-.6-.857-.37 0-.75-.373-1.42-.373v-.784zm-14.17-7.124v7.124h4.66v2.09h-4.66v14.247c0 .373.37.56.56.784.37.373.52.373.75.373.89 0 1.75-.708 2.57-2.088l.63.485c-1.12 2.648-2.98 3.99-5.48 3.99-1.27 0-2.31-.372-3.17-1.006-.86-.708-1.38-1.454-1.64-2.312 0-.485-.37-1.753-.37-3.842V80.71h-2.54v-.746c1.71-1.23 3.21-2.536 4.44-3.88 1.23-1.38 2.31-2.908 3.24-4.587zm-10.3 6.602l.38 6.677h-.71c-.86-2.015-1.75-3.357-2.65-4.066-.93-.746-1.83-1.082-2.72-1.082-.56 0-1.08 0-1.49.597-.38.374-.6.784-.6 1.306 0 .373 0 .746.45 1.082.41.56 1.68 1.567 3.73 2.947 2.05 1.38 3.39 2.536 4.03 3.543.67.933.97 2.015.97 3.208 0 1.082-.38 2.164-.83 3.208-.52 1.044-1.3 1.828-2.27 2.387-1.01.56-2.09.86-3.28.86-.94 0-2.2-.374-3.73-.896-.45 0-.71-.373-.86-.373-.45 0-.86.374-1.16 1.045h-.71l-.37-7.012h.71c.6 1.828 1.45 3.208 2.57 4.14 1.08.895 2.13 1.343 3.1 1.343.67 0 1.19 0 1.6-.597.45-.41.67-.896.67-1.493 0-.67-.37-1.23-.63-1.716-.41-.52-1.34-1.23-2.8-2.237-2.12-1.454-3.5-2.61-4.14-3.357-.93-1.156-1.38-2.424-1.38-3.804 0-1.492.52-2.835 1.57-4.066 1.04-1.23 2.54-1.828 4.48-1.828 1.08 0 2.08.373 3.09.784.37 0 .67.373.93.373h.6s.37-.41.71-.896zm-15.77.522V93.84c0 1.492 0 2.425.41 2.798.37.373.82.596 1.68.708v.746h-7.95v-2.61c-.93 1.118-1.86 1.94-2.8 2.424-.93.522-1.97.783-3.13.783-1.08 0-2.09-.374-2.95-1.008-.85-.67-1.41-1.492-1.71-2.387-.38-.895-.45-2.5-.45-4.737v-7.76c0-1.453 0-2.386-.41-2.76-.37-.372-.82-.596-1.68-.708v-.783h7.95V91.9c0 1.38 0 2.313.37 2.686 0 .41.37.71.63.933.38.372.64.372 1.01.372.49 0 .93 0 1.34-.373.56-.374 1.23-1.083 2.02-2.202V82.874c0-1.455 0-2.387-.41-2.76-.38-.373-.82-.597-1.72-.71v-.782zm-30.7 9.96l-4.22-9.773-4.32 9.772zm.71 1.528h-10l-1.19 2.76c-.38.896-.56 1.68-.56 2.276 0 .784.37 1.38.97 1.754.37.373 1.27.373 2.76.485v.782h-9.4v-.783c1.01 0 1.83-.56 2.5-1.232.63-.71 1.45-2.126 2.42-4.29l10.11-22.603h.41l10.18 23.238c1.01 2.2 1.79 3.58 2.43 4.14.45.448 1.12.67 1.98.746v.782h-13.69v-.783h.56c1.11 0 1.9 0 2.31-.45.37-.372.48-.558.48-.968v-.784s-.37-.634-.59-1.566zm0 0"/></svg>