<svg xmlns="http://www.w3.org/2000/svg" viewBox="0 0 1043.003 210.0859"><path d="M74.563 22c-5.248 0-7.058 3.136-7.657 4.75L24.238 128.61c-1.3 3.24-2.238 4.83-2.238 7.75 0 2.06.02 3.02 1.508 5.88l21.537 39.92c2.358 4.14 4.813 5.93 9.54 5.93 7.332 0 17.782-5.94 20.53-7.57l56.375-34.92H63.625l34.023-80.49 51.942 122.97h46.83l-68.1-161.248c-.94-2.31-2.99-4.832-7.28-4.832H74.563zm343.527 80.9c0 28.61-16.79 44.04-41.13 44.04-24.34 0-41.13-15.43-41.13-44.04V49.457h17v55.463c0 16.79 9.85 26.65 24.13 26.65 14.29 0 24.14-9.86 24.14-26.65V49.457h16.99V102.9zm253.58 27.17h-19.39V65.077h19.46c18.85 0 32.56 13.363 32.56 32.215 0 18.848-13.79 32.758-32.63 32.758m0-80.613h-36.42v95.973h36.42c27.39 0 49.62-20.7 49.62-48.11 0-27.415-22.23-47.855-49.62-47.855M567.86 131.59c-18.86 0-32.63-15.28-32.63-34.14S549 63.297 567.86 63.297c18.86 0 32.64 15.29 32.64 34.15 0 18.862-13.78 34.142-32.64 34.142m0-83.788c-27.42 0-49.63 22.232-49.63 49.647 0 27.41 22.21 49.63 49.63 49.63 27.4 0 49.64-22.22 49.64-49.63 0-27.416-22.24-49.648-49.64-49.648m380.3 48.108l42.96-46.462h-20.58L927.43 95.91l47.37 49.53h20.87l-47.51-49.53zM859.05 63.3c-9.8 0-18.13 2.965-18.18 9.473 0 7.62 4.74 10.262 22.79 16.132 19.95 6.56 30.54 13.225 30.43 29.455-.1 18.29-14.24 28.72-34.88 28.72-14.62 0-27.72-4.74-37.71-13.52l6.22-15.06c9.07 7.6 20.05 12.98 31.92 13.04 10.39.1 17.78-5.01 17.78-12.49 0-6.26-3.62-10.43-21.13-15.97-20.08-6.588-32.21-13.452-32.11-29.806.12-16.27 15.38-25.52 34.56-25.427 19.19.09 30 7.11 31.64 8.062l-6.04 13.685c-3.91-2.115-12.5-6.295-25.29-6.295m68.38 82.13h-16.08V49.455h16.08v95.975zM806.92 65.08h-51.39v24.407h32.92v15.093h-32.92v25.51h51.42v15.33h-68.4V49.448h68.37V65.08zm-322.85 80.34h-17.01V65.082h-30.44V49.45h79.25l-6.53 15.632h-25.27v80.338zm-205.9-76.5l-16.45 38.4h33.04l-16.59-38.4zm50.31 76.5h-17.82l-9.74-23.16h-45.38l-9.87 23.16H228.4l42.23-96.652h15.61l42.24 96.652zm685.42-10.72c0 1.28-1 1.41-2.1 1.41h-.9v-2.84h1.4c1.2 0 1.6.58 1.6 1.43m2.2 6.45l-2.1-2.95c-.4-.52-.7-.88-1.1-1.18 1.5-.2 2.4-1.02 2.4-2.32 0-1.34-.9-2.54-2.7-2.54h-3v8.99h1.3v-4.02c.7 0 1 .22 1.4.87l2.2 3.15h1.6zm3.6-4.43c0 4.34-3.1 7.48-7.4 7.48-4.2 0-7.4-3.14-7.4-7.48s3.2-7.48 7.4-7.48c4.3 0 7.4 3.14 7.4 7.48m1.3 0c0-4.8-3.9-8.69-8.7-8.69-4.8 0-8.7 3.89-8.7 8.69 0 4.8 3.9 8.69 8.7 8.69 4.8 0 8.7-3.89 8.7-8.69"/></svg>