<svg xmlns="http://www.w3.org/2000/svg" viewBox="0 0 532 158.5"><path d="M225 93.6c4-.2 5-2.9 6-6.1l4-11.2c1-3.2 1-6.2-3-6.3l1-.9h4c2 0 5-.1 9-.4l-1 3.6c4-2.8 8-4.2 12-4.2 1 0 1 .1 2 .3l-2 8.3h-6c0-1.7-1-2.6-2-2.6-3 0-5 2.5-6 7.2l-2 6.2c-1 3.2-2 4.6 3 4.8l-1 2.5h-18v-1.2zm3-25.9c0-.7 1-1.6 1-2.2 0-2.3 1-3.7 0-4.3-1-.7-2-.8-4-.8h-3l-7 25c-2 4.5-2 6 4 6.2l-1 3.4h-22l-1-1.4c6-.2 8-3.7 10-8.2l7-25h-3c-2 0-4-.3-7 .5-1 .3-3 1.8-4 3.1-1 .8-3 3.8-3 5.2l-2-.2 4-13.3h42l-3 12.1h-8zm122 26.1c4-.2 5-2.9 6-6.2l4-11.1c1-3.3 1-6.3-4-6.4l1-.8h4c3 0 6-.1 10-.4l-1 3.6c4-2.8 7-4.2 11-4.2 1 0 2 .1 3 .2l-3 8.4h-6c1-1.7 0-2.6-1-2.6-3 0-5 2.4-7 7.2l-2 6.1c-1 3.3-1 4.7 3 4.9V95h-19l1-1.2zm-6-14.7h-9c1-4.7 4-7.1 7-7.1s4 2.3 2 7.1m8 3.4c0-.6 1-1.2 1-1.7 2-8.4-1-12.7-9-12.7-10 0-17 5-19 13.6-3 9.1 1 14.1 10 14.1 8 0 14-3.4 16-9.5v-.2h-3c0 1.2-1 2.5-1 2.5-4 4.2-8 3.1-11 3.1s-4-2.7-3-7.9c0-.4 1-.8 1-1.3h18zm-41-.8c-2 5.9-5 8.9-9 8.9s-5-3.1-3-9.1 4-9 8-9 6 3.1 4 9.2m5-18.1l-2 8.2c-1-2.4-4-3.7-8-3.7-8 0-14 4.9-17 14.1-3 8.7 1 13.6 9 13.6 5 0 8-1.7 11-5.2l-1 4.2h12l1-3c-4 0-4-.8-3-4l9-31.5c-3 .2-5 .3-7 .3h-6v1.1c4 0 3 2.7 2 5.9m-41 19.2v1.7c-2 4.9-5 7.5-9 7.5-2 0-4-1.7-3-4.4 1-3.1 4-4.8 9-4.8h3zm1-3.3h-4c-10 0-16 2.6-18 8.7-1 4.5 1 7.6 8 7.6 4 0 8-1.5 11-4.7l-1 3.7h13v-1.1c-4-.2-4-3-3-6.2l3-10.3c2-6.6 0-9.1-10-9.1-9 0-14 2.7-16 8.4h9c1-3.1 3-4.7 6-4.7s4 1.7 3 5.2l-1 2.5zM136 94.1v1h-13l1-3.1c-3 2.6-6 3.8-10 3.8-7 0-9-3.1-7-9.6l3-9.6c1-3.2 1-6.3-3-6.4v-.8h4c3 0 6-.2 10-.4l-4 15.5c-2 4.5-2 6.7 2 6.7 3 0 5-2.5 7-7.6l2-7c1-3.2 1-4.2-3-4.2l1-3h4c2 0 5-.2 9-.4l-5 18.5c-1 3.3-2 6.4 2 6.6M76 78.4l10-15.8 1 15.8H76zM55 95.2h17l1-2.1s-1-.2-2-.3c-3-.6-3-2.2-3-3.1 1-.4 1-1.2 1-2.1l3-4h15V89.3c0 1.8-3 4.9-6 4.9l-1 1h21l1-2.2c-4-.1-4-3.7-4-7.6L95 55H85L65 84.1c-4 4.9-6 10.4-10 10.1v1zM185 82c-2 6.6-5 9.9-9 9.9s-4-3.3-2-9.9c2-6.7 4-10 8-10s5 3.3 3 10m-21 0c-3 8.9 1 13.8 11 13.8s17-4.9 20-13.8c2-9-2-13.9-11-13.9-10 0-17 5-20 13.9m-21-9.4v-1.1c6-.6 10-5.2 12-10.1h5l-2 7.6h8l-1 3.6h-8l-4 13.9c-1 3.5-1 5.2 1 5.2 1 0 2-1.5 3-4.4v-.7h5v1.3c-2 5.4-6 7.9-12 7.9-7 0-8-2.4-7-8.5l5-14.7h-5zm286 3.6c-2 0-3 1.8-3 5.5s1 5.5 3 5.5 3-1.8 3-5.5-1-5.5-3-5.5m40 12.7c-1-.1-3-.1-4-.1-2 0-3 0-5 .1v-1.7c2-.2 2-.7 2-2.3v-4.6c0-2.5-1-3.7-2-3.7-2 0-3 1.4-3 4.2v4.1c0 1.6 0 2.1 2 2.3v1.7c-1-.1-3-.1-4-.1s-3 0-5 .1v-1.7c2-.2 2-.7 2-2.3v-4.6c0-2.5 0-3.7-2-3.7s-3 1.4-3 4.2v4.1c0 1.6 0 2.1 2 2.3v1.7c-2-.1-3-.1-5-.1-1 0-2 0-4 .1v-1.7c2-.1 2-.6 2-2.4v-6.2c0-1.8 0-2.3-2-2.4v-1.7h2c1 0 3-.1 5-.2v1.9c1-1.5 3-2.1 5-2.1s4 .8 5 2.6c1-1.8 2-2.6 4-2.6 4 0 6 1.7 6 5.2v5.5c0 1.8 0 2.2 2 2.4v1.7zm-40 .5c-5 0-8-2.7-8-7.6 0-5 3-7.7 8-7.7s8 2.7 8 7.7c0 4.9-3 7.6-8 7.6m-11-5.9c0 3.8-2 5.9-7 5.9s-8-2.9-8-7.6c0-4.7 3-7.7 8-7.7 3 0 5 .3 7 .9v4.3h-4V79c0-1.9-1-2.9-2-2.9-3 0-4 1.9-4 5.8 0 3.5 1 5.3 4 5.3 2 0 3-1.2 3-3.6v-.3h3v.2zm-21 5.2c-2 0-3-1-3-2.7 0-1.8 1-2.7 3-2.7s3 .9 3 2.7c0 1.7-1 2.7-3 2.7M432 58c-25 0-45 10.2-45 22.8 0 12.5 20 22.7 45 22.7s45-10.2 45-22.7c0-12.6-20-22.8-45-22.8"/></svg>