<svg xmlns="http://www.w3.org/2000/svg" viewBox="0 0 841.9 595.3"><path class="st0" d="M390.4 295.1l36.1-56.2-65.7-121.2-.6.9c-3.1 5-17.9 31.4-3.2 57.8l34.3 62.1-58.7 85.5.2.3c7.8 0 39.9-1.8 57.6-29.2z"/><path class="st0" d="M439.6 144.1l.1.7c-21-37.6-63.2-40.4-67-40.6l71.7 136.2-39.6 62.9s-15.5 35.4 14.2 48.8l73.8-112.6-53.2-95.4z"/><path class="st0" d="M439.6 144.1l.1.7c-21-37.6-63.2-40.4-67-40.6l71.7 136.2-39.6 62.9s-15.5 35.4 14.2 48.8l73.8-112.6-53.2-95.4z"/><path class="st0" d="M390.4 295.1l36.1-56.2-35.1-.4-58.8 85.5.2.3c7.8 0 39.9-1.8 57.6-29.2zM444.3 240.4l-39.6 62.9s-15.5 35.4 14.2 48.8l73.8-112.6-48.4.9z"/><path class="st0" d="M444.3 240.4l-39.6 62.9s-15.5 35.4 14.2 48.8l73.8-112.6-48.4.9z"/><path class="st1" d="M444.3 240.4l-39.6 62.9s-15.5 35.4 14.2 48.8l73.8-112.6-48.4.9z"/><path class="st1" d="M444.3 240.4l-39.6 62.9s-15.5 35.4 14.2 48.8l73.8-112.6-48.4.9z"/><g><path class="st0" d="M208.7 386.9c-9.4-9.4-20.8-14.1-34-14.1s-24.6 4.7-34 14.1c-9.4 9.4-14.1 20.8-14.1 34s4.7 24.6 14.1 34c9.4 9.4 20.8 14.1 34 14.1 12 0 22.6-4 31.5-11.8v.3h.1c.6 3.1 2.8 10 11.3 11l5.2.6V421c0-13.3-4.7-24.7-14.1-34.1zm-2.6 34v18.2l-15.9 9.2-.4.2c-4.5 2.5-9.6 3.8-15.1 3.8-8.6 0-16.1-3.1-22.2-9.2-6.2-6.1-9.3-13.6-9.3-22.2s3.1-16.1 9.3-22.2c6.1-6.1 13.6-9.2 22.2-9.2s16.1 3.1 22.2 9.2c6.2 6.1 9.2 13.6 9.2 22.2zM317.1 373.3c-9-.4-12.7 3.2-14.3 6.3l-28.2 61.1-27.6-61.1-1.1-2.3-.4.1c-1.8-2-5.3-4.2-11.7-4.2l-7.8.2 41.1 90.6c1.4 3.1 4.2 4.9 7.6 4.9 3.4 0 6.4-2 7.5-4.9l41.9-90.6-7-.1zM514.4 387.1c-8.7-9.5-19.4-14.3-32.1-14.3-1.2 0-2.3.1-3.4.2-.7.1-1.5.2-2.2.3l-.9.1c-9.5 1.5-17.9 6.1-24.9 13.7-8 8.7-12.3 19.2-12.9 31.2l-.1 50.1 5.2-.6c8.1-1 11.2-7.7 11.4-13.6v-33.3c0-8.7 2.9-16.3 8.5-22.4 5.5-6 12-9 19.7-9 7.7 0 14.2 2.9 19.7 9 .7.8 1.4 1.6 2 2.4l.7 1c3.8 5.4 5.7 11.8 5.7 19v47.6l5.2-.6c6.6-.8 10.9-5.7 11.4-13.1V421c0-13.2-4.4-24.6-13-33.9zM628.7 377.7c-1.4-3-4.2-4.9-7.6-4.9H540.5l.6 6.5c1.3 6.1 6.2 9.9 13 10.2h48l-59.9 65.4c-2.4 2.4-3.1 6-1.8 8.8 1.2 3.3 4.2 5.3 7.7 5.3H616l1.1-.3c7.3-2.6 8.3-9.5 8.4-11.5l.3-4.9h-58.7l60.1-65.5c2.4-2.6 2.9-6 1.5-9.1zM408.1 386.9c-9.4-9.4-20.8-14.1-34-14.1s-24.6 4.7-34 14.1c-9.4 9.4-14.1 20.8-14.1 34s4.7 24.6 14.1 34c9.4 9.4 20.8 14.1 34 14.1 12 0 22.6-4 31.5-11.8v.3h.1c.6 3.1 2.8 10 11.3 11l5.2.6V421c0-13.3-4.7-24.7-14.1-34.1zm-2.6 34v18.2l-15.9 9.2-.4.2c-4.5 2.5-9.6 3.8-15.1 3.8-8.6 0-16.1-3.1-22.2-9.2-6.2-6.1-9.3-13.6-9.3-22.2s3.1-16.1 9.3-22.2c6.1-6.1 13.6-9.2 22.2-9.2s16.1 3.1 22.2 9.2c6.1 6.1 9.2 13.6 9.2 22.2zM655.8 373.6c-8.4.2-11.6 6.8-11.6 11.2v79.9l.3 4.4 4.4-.1c8.6-.2 11.8-7 11.9-11.5v-84l-5 .1zM730.6 464.2c-.2-7.9-6.1-11.5-11.5-11.6h-.6c-10 0-16.9-1.5-20.7-4.3-4.4-3.3-5.4-8.3-6.8-19.8v-40.7l17.8-.2.9-.2v-.1c9.4-1 12.9-8.7 12.9-13.8v-.9l-31.4-.1v-31.3h-.9c-7.8.1-16.2 5.4-16.5 17.1l-.1 71.6c0 16.7 5.7 28.2 17 34.2 6.2 3.3 15.1 5 26.5 5h13.4l.1-1.4-.1-3.5z"/></g></svg>