<svg xmlns="http://www.w3.org/2000/svg" viewBox="0 0 600 169"><path class="st0" d="M474.7 26s10.6 46 41.6 82.8c0 0-35.9-1.1-48.5-25.5-11.6-22.4-3.5-45.3 6.9-57.3zM527.9 121.3c11.7 11.1 25.8 20.5 42.4 26.3 0 0-22.4 1.8-35.8-4.6-13.5-6.5-27.5-17.4-36.2-18.1-8.7-.7-13.8-1.2-16.1-3.6h45.7zM527.9 121.3c-4.6-4.5-11.7-12.4-11.7-12.4s26.2.4 31.7 13.5c-4-1.6-20-1.1-20-1.1zM115.3 64.4h16l14.5 38.2 14-38.2h16.5L151.1 124h-5.3c-2.5 0-6.2-.2-9.9-10.1-3.6-9.8-20.6-49.5-20.6-49.5zM197.1 124.1h-15.8V64.4h15.8v59.7zM198.3 47.7c0 5-4.1 9.1-9.1 9.1s-9.1-4.1-9.1-9.1 4.1-9.1 9.1-9.1c5.1 0 9.1 4.1 9.1 9.1zM322.3 124.1H306V83.4s0-8.6-9.1-6.7c-7.4 1.6-12.8 6.2-12.8 6.2V124h-16.3V64.4s14.3-4.4 15.5 5.7c0 0 9.1-7.6 20.4-7.6 11.3 0 18.5 8.1 18.5 16.5v45.1zM257 113.8V82.9c0-6.9-2.8-20.8-22.2-20.7-18.5.1-25.4 7.9-25.4 7.9l6.2 9.9s3-4.9 14.8-4.9 10.3 10.3 10.3 10.3c-32.5-.5-34.2 13.1-34.2 21.2s6.2 18 18.2 18c12.1 0 18.2-5.9 18.2-5.9.5 5.2 6.4 5.4 6.4 5.4h9.4c-1.5 0-1.7-10.3-1.7-10.3zm-15.5-4.9s-4.2 3.1-10.8 3.1c-6.7 0-8.6-4.3-8.6-7.6 0-3.8 2.2-8.4 19.5-7.4v11.9zM435.5 113.8V82.9c0-6.9-2.8-20.8-22.2-20.7-18.5.1-25.4 7.9-25.4 7.9l6.2 9.9s3-4.9 14.8-4.9 10.3 10.3 10.3 10.3c-32.5-.5-34.2 13.1-34.2 21.2s6.2 18 18.2 18c12.1 0 18.2-5.9 18.2-5.9.5 5.2 6.4 5.4 6.4 5.4h9.4c-1.5 0-1.7-10.3-1.7-10.3zm-15.5-4.9s-4.2 3.1-10.8 3.1-8.6-4.3-8.6-7.6c0-3.8 2.2-8.4 19.5-7.4v11.9zM377.7 80.5s-5.3-5.4-15.8-5.4c-11.6 0-16 11.3-16 20.9s7.1 16.3 17.5 16.3c7.8 0 13.8-4.7 13.8-4.7l4.2 11.6s-8.7 6.2-22.7 6.2c-9.6 0-28.3-6.4-28.3-29.6 0-23.2 15.3-33.2 30.1-33 13.2.1 18.4 4.7 18.4 4.7l-1.2 13zM93.7 41.3H81.6l-31.5 82.8h16.5l6.7-20.9h28.6l8.4 20.9h16.5L93.7 41.3zm-15 48.6l9-24.9 8.9 24.9H78.7z"/></svg>