<svg xmlns="http://www.w3.org/2000/svg" viewBox="0 0 489.08 172.46"><path d="M138.88 34.83h-69.7l1.3-2.77h67.09zm2.43 5.17H66.75l-1.29 2.74h77.14zM35.62 106.26h40.76l1.18 2.51h50.5l-1.17-2.51h45.59l1.17 2.51h1.88l2.43-5.22H36.89zm7.45-15.86h25.86l1.24 2.64h50.5l-1.24-2.64h45.59l1.24 2.64h16.58l2.49-5.35H44.35zm-3.72 7.93h33.31l1.13 2.41h50.5l-1.13-2.41h45.59l1.13 2.41h9.38l2.39-5.13H40.62zm7.45-15.87h18.41l1.17 2.5h50.5l-1.17-2.5h45.59l1.17 2.5h24.12l2.43-5.22H48.08zM31.94 114.1h48.09l1.18 2.5h90.68l2.43-5.22H33.22zm56.77 18.48h75.74l2.43-5.22H86.25zm60.07-76.72H59.3L58 58.63h92.08zm-3.72-7.9H63.01l-1.29 2.74h84.63zm-52.62 92.56h68.3l2.44-5.24h-73.2zM55.53 63.88l-1.27 2.72h3.51l1.18 2.5h50.5l-1.17-2.5h45.59l1.17 2.5h38.95l2.43-5.22H55.53zm29.45 60.76h83.16l2.43-5.22H82.52zM50.53 74.53h10.96l1.19 2.53h50.5L112 74.53h45.53l1.25 2.53h31.51l2.44-5.24H51.81zm163.09-10.65h19.21l9.99 50.22h-16.21l-.7-5.45h-11.58l5.72-13.2h3.73l-1.71-11.04-13.43 29.69H190.4zm34.17 50.22h17.47l-9.91-50.22h-17.5zm20.49 0h.99l22.57-50.22h-17.9l-10.97 24.01zm17.02 0h17.98L314 63.88h-17.9zm25.61-23.55l7.17 23.55h19.86l10.7-50.22h-17.77l-6 28-7.28-28h-.9zm31.92 23.55h43.45l3.13-14.04h-25.88l4.83-22.05h22.74l3.2-14.13h-40.67zm24.45-19.23h17.33l2.62-11.56H369.7zm28.9-16.9h11.72l-7.82 36.13h17.68l10.84-50.22h-29.42zm31.96 0h11.39l3.08-14.09h-11.15zm18.57-9.01c0-2.41 2.09-4.35 4.61-4.35 2.52 0 4.58 1.94 4.58 4.35 0 2.41-2.06 4.34-4.58 4.34s-4.61-1.93-4.61-4.34zm4.57-5.54c-3.23 0-5.85 2.49-5.85 5.59 0 3.07 2.62 5.54 5.85 5.54 3.24 0 5.86-2.47 5.86-5.54 0-3.1-2.62-5.59-5.86-5.59zm-.75 6.16c0-.23.33-.23.89-.23.6 0 .86.32.86.57v1.93c0 .12.17.14.57.14.43 0 .57 0 .57-.14v-2.11c0-.96-1-.89-1-.96 0 0 1-.14 1-1.15v-.32c0-.44-.21-1.61-2-1.61h-1.51c-.17 0-.26 0-.41.05-.1.07-.1.16-.1.23v5.87c0 .14.12.14.52.14.55 0 .6-.02.6-.14v-2.27zm.51-2.87c.89 0 1.15.11 1.15.64v.39c0 .46-.24.58-1.11.58-.1 0-.38 0-.48-.02-.1-.02-.1-.09-.1-.16v-1.12-.3c.22-.01.46-.01.51-.01z"/></svg>