<svg xmlns="http://www.w3.org/2000/svg" viewBox="0 0 1910.4489 508.9024"><path d="M155.098 464.902c-.82 0-4.027-.67-7.16-1.267-29.227-3.654-54.355-16.627-71.802-36.983-15.807-18.49-25.403-41.904-28.535-69.045-1.043-8.65-.67-28.93.45-36.982 1.937-12.303 4.972-24.68 8.998-35.12 2.685-6.784 9.917-21.622 10.663-21.622.522 0 .597 2.46.746 9.245.224 29.005 8.277 53.014 22.667 67.852 21.25 21.55 54.207 20.952 89.176-.596 10.662-6.19 13.42-8.65 44.438-35.194 26.917-23.412 29.9-25.873 30.347-25.873.746 0 3.206 6.19 3.73 8.65.893 4.92-.598 9.842-4.177 14.763-1.044 1.864-3.877 4.92-6.413 7.38-6.04 6.19-7.754 9.918-5.74 11.782 1.863 1.79 4.995.597 13.942-6.19 14.018-9.84 22.816-17.297 31.317-26.543 3.95-4.325 4.995-5.518 5.293-4.922.746 2.46 1.492 10.514 1.268 13.57-.67 6.786-3.653 11.11-17.224 24.084-10.885 10.44-14.837 13.496-25.574 21.55-4.473 3.056-8.574 6.187-9.17 7.38-2.312 3.132-1.94 4.92 1.267 4.92 2.46 0 4.92-1.192 10.662-5.516 15.882-11.706 35.566-29.005 49.286-44.365 3.803-4.323 5.966-6.187 6.264-5.59.67 1.267 1.49 9.245 1.342 12.973-.298 4.92-1.715 7.978-7.978 14.763-14.316 17.3-35.64 36.387-53.46 49.36-7.607 5.518-10.44 9.246-8.277 10.44 1.193 1.267 2.237 1.267 5.07 0 4.176-1.865 19.91-13.57 33.405-25.874 6.785-6.19 22.368-21.548 26.99-27.14 1.27-1.194 2.462-2.46 2.685-2.46.522.595 1.268 10.512.97 13.57-.522 6.188-2.386 9.84-9.768 17.894-14.838 16.627-31.167 31.39-49.137 44.365-8.35 6.786-11.26 9.843-10.886 11.707.52 2.46 4.995 1.864 9.618-1.864 6.114-3.654 18.566-12.9 23.56-17.224 4.923-4.326 13.423-12.975 17.374-17.896 1.194-1.193 2.312-1.864 2.46-1.864.3 0 .45 3.132.523 6.785.224 8.65-.522 12.974-3.28 18.492-2.387 4.324-5.145 8.052-12.154 14.166-27.215 25.277-56.22 39.518-89.1 43.768-5.37.672-29.9.672-34.672.672z" opacity=".6"/><path d="M330.468 461.77c-.97 0-3.952 0-6.71-.596-11.484-1.193-25.277-4.324-37.058-8.65-6.785-2.46-22.816-10.438-22.816-11.034 0 0 4.324-.67 9.47-.67 20.95-.598 36.982-4.326 50.776-11.11 37.952-19.09 43.395-60.396 14.018-104.76-5.37-8.054-9.47-13.57-32.882-40.712-11.707-13.57-22.443-25.873-23.785-27.14-1.193-1.79-2.31-3.057-2.31-3.057 0-.596 6.113-3.728 8.946-3.728 4.474-1.193 9.544 0 14.614 3.73 1.194 1.266 4.623 3.727 7.382 6.784 4.623 4.324 7.98 6.188 10.066 6.785 1.417 0 2.46-1.863 2.237-4.324-.447-1.864-1.79-4.324-7.68-12.303-9.917-13.57-17.447-22.22-25.575-29.6-3.877-3.73-5.443-4.922-4.92-5.593 1.192-.596 10.363-1.193 13.495-1.193 2.46.597 4.474 1.193 7.083 2.46 3.28 1.268 4.772 2.46 14.018 11.707 11.632 11.706 15.658 16.627 23.86 27.737 5.965 8.65 7.83 10.514 10.066 11.11 1.864 1.268 2.833 0 2.833-2.46-.075-2.46-1.342-4.92-6.263-11.706-11.78-16.03-28.78-34.522-43.768-48.093-3.43-3.056-6.04-6.187-5.816-6.187.67-.597 7.978-1.193 12.377-1.193 3.878 0 4.698 0 7.308 1.193 3.802 1.864 11.78 8.65 22.517 19.162 12.75 12.9 22.667 24.01 32.286 36.983 6.338 8.575 8.65 11.706 10.588 12.303 4.548 2.46 4.772-3.056.298-9.84-5.592-8.054-13.87-18.493-22.742-28.41-5.74-6.114-22.145-22.816-27.662-27.737-1.715-1.193-2.237-1.79-1.715-2.46.82-.597 10.364-1.193 13.645-.597 6.114.597 8.873 1.864 18.566 11.11 15.807 14.167 31.763 31.39 44.14 48.69l6.413 7.977c3.952 3.132 5.89 1.864 5.443-1.79-.522-3.13-1.49-4.324-7.904-13.57-9.394-12.973-20.877-25.276-29.824-33.33-1.417-.595-2.46-1.863-2.46-2.46 0 0 2.832-.596 8.872-.596 8.202 0 9.096.597 12.526 1.864 5.443 1.865 8.873 3.655 14.838 9.843 23.19 23.413 38.922 51.82 44.886 80.75 2.46 11.708 2.91 17.896 2.91 33.927-.45 15.434-.45 17.895-2.91 29.6-2.46 11.708-7.903 25.874-13.346 35.12-18.268 30.794-48.316 49.286-87.76 55.474-4.92.597-26.767 1.268-30.57.597z" opacity=".8"/><path d="M1381.05 387.21c-2.238-1.27-2.983-3.73-.746-5.52.745-.67 1.49-.67 5.22-1.267 7.455-.596 13.42-1.864 15.657-3.728 4.475-3.653 7.457-13.495 8.948-35.715.746-11.706 1.49-223.165.746-242.252-.746-14.838-1.49-20.356-2.982-24.755-3.73-7.382-10.44-10.44-26.097-11.706-5.965 0-8.202-.597-8.202-1.193-1.49-1.268-1.49-1.268-.746-2.46 0-1.27.746-1.865 1.492-2.46 2.98-1.27 11.183-1.27 38.025 0 14.912.595 21.623.595 32.807 0 29.08-1.27 48.466-1.27 58.905 0 43.99 3.652 69.343 17.82 82.018 48.09 5.22 9.843 6.71 18.493 5.965 30.2 0 28.332-9.693 53.013-28.334 72.1-8.947 8.65-15.658 12.974-26.842 19.163-14.912 7.382-32.062 11.11-51.448 11.706-11.184.597-15.658 0-17.15-1.864-1.49-1.865-1.49-3.73 1.492-4.922.746-.596 3.728-1.268 11.184-1.268 10.44-.596 15.658-1.193 23.86-3.653 11.93-3.728 22.37-9.917 32.062-19.163 13.42-13.495 19.386-30.197 19.386-49.882 0-24.68-6.71-45.035-20.132-61.066-12.675-14.167-28.333-22.816-46.974-25.277-5.22-.597-23.86-.597-29.825 0-3.73.596-7.457 1.192-8.948 2.46 0 .596-.746 1.864-1.49 3.13-.747 3.655 0 245.31.744 260.15 1.49 30.197 2.982 36.982 11.93 40.635 3.728 1.864 4.474 1.864 13.42 3.132 5.22.596 10.44 1.193 11.93 1.193 2.984 0 4.475.67 5.22 1.864 0 1.864-.745 3.057-2.236 4.325-2.237.595-3.73.595-23.86 0-11.184 0-24.606 0-28.334-.598h-14.912c-3.728.597-14.167.597-23.86.597-13.42.595-16.404.595-17.895 0zM739.813 241.066c0-1.193-.745-4.25-5.22-13.496-1.49-6.188-32.135-91.263-35.118-99.912-4.474-12.303-5.22-12.9-6.71-9.843-.746.597-37.282 107.22-38.773 112.813-2.237 5.518-2.982 9.842-2.982 10.44 0 .67 3.73.67 43.992.67 39.593 0 44.067 0 44.812-.67zM536.856 386.612c-1.864-.67-2.46-1.267-2.46-2.46 0-2.46 2.46-3.132 5.517-3.132 4.325 0 13.57-1.193 16.627-1.864 4.325-1.193 10.215-4.25 13.943-7.382 1.492-1.193 3.728-4.324 5.966-6.785 4.472-7.383 8.2-14.168 20.876-48.094 1.49-4.25 4.474-11.035 5.965-14.763.746-4.324 3.73-11.706 5.966-16.627 1.49-5.592 3.728-11.11 3.728-12.974 2.237-3.057 58.158-153.524 59.65-157.774.745-1.864 2.982-5.592 3.728-8.65 1.49-3.727 3.728-10.512 5.965-15.433 1.49-5.518 4.474-11.706 5.22-14.764 5.964-16.7 8.2-21.622 9.692-24.68 1.49-1.266 2.236-1.266 3.727-1.266 2.237 0 2.983 0 3.728 1.267 2.237 2.462 4.474 7.98 8.202 17.822 2.237 4.324 4.474 10.513 5.22 13.645 1.49 3.057 4.473 12.302 8.276 20.28 2.983 8.053 6.71 17.895 8.202 21.624 1.49 3.058 41.01 104.164 43.99 110.95 11.932 32.06 16.405 42.574 26.098 65.987 12.676 32.658 14.167 34.522 18.64 44.364 5.22 10.514 9.694 16.63 14.913 22.817 8.948 7.978 15.658 11.11 29.825 11.706 6.712.597 7.457.597 7.457 1.865 1.49 1.864 0 3.653-2.236 4.324-1.49 1.193-2.236 1.193-37.28 1.193-46.23-.596-52.194-1.193-52.94-3.653 0-1.864.746-2.46 3.728-4.325 4.474-2.46 4.474-5.592-2.982-24.084-2.237-7.38-6.71-17.223-8.202-20.952-1.49-4.323-3.728-10.437-5.22-14.165-5.22-14.167-8.947-21.55-12.675-32.062-8.203-22.22-10.44-28.334-11.185-29.005-.746-1.193-3.73-1.193-50.777-1.193-43.246 0-50.702 0-51.448.597-.745 1.267-.745 1.864-8.202 22.816-2.237 6.188-5.22 14.167-5.965 17.895-6.71 20.355-16.404 46.825-17.15 51.746-2.236 6.187-2.98 12.973-2.98 16.03 0 3.728.744 6.188 2.98 8.65 3.73 3.056 7.457 4.323 14.168 4.323 5.966.597 7.457.597 8.203 1.865 1.49 1.864.745 3.057-1.492 4.324-.744 1.193-2.236 1.193-8.2 1.193-5.22 0-12.676-.596-19.387-.596-8.947-.598-14.912-.598-27.588 0-8.202 0-21.474.595-27.662.595-11.707 0-12.303 0-14.167-1.193zm1253.54 1.864c-10.44 0-26.843-.67-35.045-.67-25.35-1.194-43.245-1.194-54.43-1.194-36.535 1.193-38.77 1.193-40.263 0-.745-.67-1.49-1.267-1.49-2.46 0-2.46 1.49-3.132 6.71-3.73 6.71 0 11.93-1.863 14.167-3.056 6.71-4.324 9.693-17.895 10.438-53.684.746-19.685.746-210.19 0-224.954 0-6.786 0-13.57-.745-15.435-2.237-14.838-8.202-19.162-27.588-21.026-6.712 0-7.458-.597-8.95-1.193-.745-1.268-.745-1.268-.745-2.46 0-1.27 1.492-1.865 2.237-2.46 2.237-1.27 11.93-1.27 37.28 0 14.914.595 20.88.595 32.063 0 7.457 0 20.132-.673 26.843-.673 11.93 0 12.675 0 14.167 1.27.745 1.267 1.49 3.056 0 4.324 0 .596-1.492 1.193-5.966 1.193-6.71.67-13.422 1.864-16.404 2.46-2.983 1.268-5.965 3.728-7.457 5.592-2.237 3.056-3.728 9.245-4.474 16.03-.746 9.842-.746 218.84 0 234.275.746 17.895 2.982 30.794 5.965 36.982 3.73 6.19 11.93 10.514 26.843 12.303 6.71.67 42.5 1.268 51.448.67 10.44-1.266 19.387-3.13 25.352-6.784 7.457-4.92 14.167-17.298 17.895-32.658.746-4.325 2.982-6.19 6.71-4.325v15.36c0 1.268-.745 5.592-1.49 9.917-2.238 14.763-4.474 25.873-5.965 29.6-2.237 2.462-4.474 4.922-6.71 5.52-5.966 1.863-20.133 2.46-60.396 1.266zm-815.71 2.46c-2.983-4.324-5.966-11.78-15.66-46.9-1.49-2.46-2.98-9.245-5.218-15.36-2.237-6.187-3.728-13.57-4.474-16.03-1.49-2.535-46.974-151.66-55.176-178.203-.746-3.057-1.49-7.978-2.983-10.44-1.49-2.534-2.236-7.455-3.728-10.512-3.728-13.57-7.456-26.543-10.44-32.06-2.235-4.922-3.726-6.786-6.71-9.247-5.218-6.188-12.675-8.65-25.35-9.916-8.948-.597-9.693-.597-9.693-3.057 0-1.193.745-1.865 1.49-2.46 1.492-1.27 2.238-1.27 9.694-1.27 4.474 0 17.15 0 29.08.673 17.894.596 21.623.596 36.535 0 20.132-1.268 33.553-1.268 35.044 0 2.237 1.192 2.983 2.46 2.237 4.324-.746 1.193-2.237 1.79-9.693 1.79-8.2 1.267-11.93 1.864-14.166 4.324-2.237 1.865-3.728 5.593-3.728 8.054 0 1.864 1.49 9.842 3.728 19.088 2.237 9.917 8.202 35.193 8.947 38.25.747 1.268 1.493 4.92 2.238 8.65 2.237 5.517 49.21 173.804 51.448 178.13.746 4.323 2.237 8.05 2.237 8.05s2.237-4.323 3.728-9.244c4.475-11.11 23.115-60.47 23.86-62.26 0-1.864 39.52-106.698 41.756-109.755 4.474-13.57 21.623-57.935 22.37-61.067 3.727-8.575 6.71-17.895 8.946-21.548 2.237-4.92 4.474-6.19 7.456-5.593 1.492 1.268 5.965 10.514 11.93 25.948.746 3.057 60.396 168.287 62.633 173.208 1.492 4.922 5.22 16.032 8.948 24.68 2.237 7.98 5.965 17.896 6.71 21.55 1.492 3.13 2.983 6.785 2.983 7.38.747.672 1.492 4.326 2.984 8.65 1.49 4.325 2.982 7.382 3.728 7.382.745 0 .745-1.79 1.49-3.653.746-2.462 2.238-6.787 2.983-10.515.746-3.057 3.73-10.438 5.22-16.03 1.49-4.922 3.728-12.303 5.22-15.36 5.218-18.492 35.79-114.677 35.79-116.54 0-1.27 1.49-3.73 2.236-6.786 1.492-2.462 1.492-6.19 2.238-7.98 4.473-12.377 9.693-31.465 13.42-43.842 3.73-13.496 4.475-19.684 5.22-27.066 0-6.19 0-6.86-1.49-8.65-.747-3.13-4.475-4.995-8.948-6.188-1.492 0-5.965-.596-9.694-1.267-5.964 0-6.71-.597-8.2-1.193-1.493-1.268-1.493-3.73.744-4.92 1.492-1.27 13.42-1.27 35.79 0 14.913.595 18.64.595 29.08 0 18.64-1.27 25.35-1.27 27.587 0 2.237 1.19 2.237 3.056 1.492 4.92-1.493.596-2.238 1.193-5.966 1.193-11.93 1.267-15.658 2.46-21.623 8.052-6.71 6.784-11.184 16.627-22.368 49.36-7.456 19.684-90.22 268.125-94.694 271.853-.746.597-1.49 1.193-1.49 1.864 0 .597-.747.597-2.984.597s-2.982 0-2.982-.597v-1.267c-1.492 0-3.728-3.654-5.22-8.65-2.982-6.114-2.982-6.114-16.403-42.5-1.492-5.592-4.475-13.57-5.966-17.895-3.728-9.842-12.676-36.386-18.64-51.15-2.238-6.188-50.703-138.09-50.703-140.55-.744-2.46-2.236-3.727-2.236-3.727s0 1.267-.746 1.864c0 .596-2.237 6.188-4.473 12.302-2.237 5.593-61.887 161.577-63.378 164.037-.746 2.462-4.474 13.497-9.693 25.874-4.474 11.707-10.44 27.14-12.676 34.523-5.965 14.763-10.44 23.412-12.676 25.873-1.49 1.864-2.236 1.864-4.473 1.864h-2.984zm-439.098 49.286v-8.65H1866.45v17.896H535.587z"/><path d="M193.2 311.38c-5.072-1.27-12.08-6.786-26.396-20.953-12.825-12.974-24.83-26.544-34-39.444-4.474-6.188-6.637-8.65-8.874-9.916-1.566-.597-1.715-.597-2.758.67-.67.597-.895 1.194-.67 3.058.446 2.46 1.266 4.324 7.455 12.303 12.452 16.702 29.75 35.79 45.333 49.36 1.94 1.864 3.28 3.653 3.132 3.653h-8.873c-8.128.672-8.65 0-11.185-1.192-3.505-1.267-7.307-4.324-16.553-12.973-14.167-12.9-26.47-27.067-39.07-43.77-4.996-6.784-7.084-9.244-8.724-10.437-2.834-1.268-4.25-.67-4.25 1.864 0 3.057.894 4.92 6.114 11.706 10.662 15.36 21.623 27.737 30.496 35.12a52.412 52.412 0 0 1 3.877 3.727c0 .597-15.285.597-18.566-.67-7.68-1.865-12.9-5.52-21.773-14.764-26.544-29.004-40.24-58.605-43.522-93.128-.82-9.245-.298-28.93.97-37.58 6.188-40.71 27.714-70.908 61.938-87.535 18.342-8.65 37.654-12.974 59.948-12.974 21.55 0 38.55 3.057 58.16 10.514 6.785 3.057 19.31 9.245 19.61 9.842.074.595-3.505.595-11.11.595-28.782 1.268-50.18 8.053-65.02 22.22-9.766 9.245-15.135 20.952-16.626 34.522-1.938 19.76 6.413 43.172 23.71 66.584 3.878 5.52 12.304 15.435 41.085 48.69 7.008 8.053 12.75 14.838 12.75 14.838 0 .597-1.716 1.193-3.804 2.46-3.206 1.194-4.474 1.194-7.754 1.194-3.43 0-4.4 0-7.307-1.193-4.176-1.865-6.114-3.73-12.452-9.918-5.742-5.518-8.724-6.785-10.812-5.518-1.565 1.268-1.714 3.728-.297 6.19 1.118 2.46 9.693 14.166 15.583 21.547 4.772 6.19 14.838 16.63 19.163 19.76 1.49 1.193 2.683 2.46 2.758 3.057 0 .597-8.798 1.865-13.198 1.268-7.158 0-10.44-2.535-23.338-16.03-9.917-9.918-15.583-16.703-22.368-26.545-5.07-6.785-7.158-9.246-9.395-9.842-2.164-1.268-3.207-.67-3.207 1.864 0 3.057.97 4.92 5.294 11.035 11.78 16.03 28.333 34.522 43.245 48.093 3.952 3.728 7.158 6.785 7.158 6.785 0 1.267-13.123 2.46-15.88 1.864z" opacity=".5"/><path d="M440.894 245.39v-9.84c-1.49-44.365-18.715-73.967-47.72-81.348-5.815-1.864-17.745-2.46-24.38-1.268-16.48 2.46-34.076 10.513-51.897 23.413-3.578 3.13-19.162 16.03-34.82 29.6l-28.334 24.68-1.566-3.727c-4.92-9.842-2.162-17.82 10.216-29.6 2.61-2.462 4.92-6.786 4.92-7.98 0-1.863-1.565-3.056-3.057-3.056-.67 0-2.162.596-3.43 1.193-2.535 1.267-14.017 9.842-21.548 15.434-4.92 4.325-17.597 16.628-21.25 20.953-2.013 2.46-2.162 1.864-2.983-4.325-1.64-12.974.373-16.627 17-32.06 10.738-10.44 14.838-14.168 25.277-21.55 7.978-5.592 10.14-8.053 10.737-9.917.223-1.192.148-1.788-.597-1.788-3.355-1.864-7.382 0-22.592 12.303-13.197 10.513-27.513 24.01-38.548 35.79-3.654 4.25-6.86 7.38-7.084 7.38-.67-.595-1.566-9.84-1.342-14.166.224-4.996 1.417-7.457 7.68-14.84 14.092-16.03 32.36-33.253 49.808-46.227 8.574-6.19 11.63-8.65 12.45-10.44.896-2.534 0-3.13-3.354-3.13-2.237 0-3.28.596-6.636 3.13-5.667 3.655-13.57 9.843-22.37 17.225-7.007 6.19-26.916 25.277-32.955 32.062-1.567 1.864-2.91 3.057-3.058 3.057-.522-.597-1.118-6.785-1.193-11.11 0-9.246 2.31-12.9 19.982-30.794 13.645-13.57 26.62-24.68 40.562-35.12 3.355-2.46 6.71-4.92 7.53-6.188 1.864-1.864 2.312-3.653 1.12-4.92-2.313-1.268-6.265.596-16.405 7.977-13.646 9.917-25.576 20.356-32.436 29.005-1.565 1.268-3.13 3.057-3.43 3.057-.52 0-.67-1.79-.52-8.575.148-8.053.222-9.246 1.565-12.974 1.862-5.518 4.323-8.65 11.034-15.435C253.22 65.4 282.45 50.56 315.63 45.044c6.86-1.268 29.75-1.268 37.803-.597 24.755 2.46 46.154 10.44 63.825 23.413 4.92 3.652 13.272 12.376 17.746 17.297 25.128 30.794 33.553 75.83 22.22 120.194-2.983 12.304-7.904 25.875-13.347 35.717-2.46 4.324-2.983 4.995-2.983 4.324z" opacity=".9"/></svg>