<svg xmlns="http://www.w3.org/2000/svg" viewBox="0 0 1518 282"><path d="M121.336 50.2L241.63 33.397V139.65H121.335V50.2zm-3.6 89.45V50.705l-92.11 12.867v76.078h92.11zm3.6 3.6v89.355l120.293 16.79V143.25H121.335zm-3.6 0h-92.11v75.996l92.11 12.857V143.25zM474.744 76.53L438.11 206.24h-17.817l-28.947-102.756h-.36L361.948 206.24h-17.64l-37.9-129.71h16.643l30.03 108.272h.364L384.744 76.53h14.652l29.668 108.634h.363L458.285 76.53h16.46zM501.877 206.24H487.04v-92.625h14.837v92.625zM601.035 206.24H586.2v-52.824c0-19.598-7.18-29.398-21.528-29.398-7.3 0-13.404 2.76-18.318 8.277-4.916 5.518-7.37 12.56-7.37 21.12v52.825h-14.835v-92.625h14.833v15.377h.363c6.934-11.758 17.064-17.64 30.393-17.64 10.187 0 17.952 3.32 23.29 9.952 5.336 6.635 8.006 16.04 8.006 28.22v56.716zM703.264 206.24h-14.836v-15.738h-.36c-6.876 12-17.49 18-31.84 18-11.7 0-21.017-4.205-27.95-12.62-6.935-8.41-10.402-19.642-10.402-33.692 0-15.316 3.844-27.617 11.535-36.904 7.69-9.287 17.983-13.932 30.89-13.932 12.662 0 21.92 5.008 27.77 15.016h.36V69.11h14.835v137.13zm-14.836-41.88V150.7c0-7.655-2.547-14.02-7.643-19.085-5.096-5.064-11.293-7.598-18.588-7.598-8.926 0-16.01 3.303-21.258 9.904-5.245 6.605-7.87 15.757-7.87 27.454 0 10.615 2.473 19.012 7.418 25.19 4.945 6.183 11.61 9.272 19.99 9.272 8.14 0 14.834-2.953 20.08-8.863 5.25-5.91 7.87-13.446 7.87-22.612zM813.363 159.566c0 14.715-4.178 26.55-12.53 35.504-8.35 8.955-19.552 13.432-33.6 13.432-13.692 0-24.622-4.355-32.79-13.07-8.174-8.713-12.258-20.186-12.258-34.418 0-15.316 4.192-27.422 12.572-36.316 8.38-8.895 19.93-13.344 34.645-13.344 13.75 0 24.514 4.297 32.29 12.89 7.783 8.594 11.67 20.367 11.67 35.322zm-15.197.543c0-11.64-2.576-20.563-7.732-26.776-5.156-6.21-12.527-9.316-22.117-9.316-9.527 0-17.066 3.182-22.613 9.543-5.55 6.364-8.32 15.333-8.32 26.91 0 11.097 2.787 19.765 8.367 26.007 5.577 6.242 13.1 9.36 22.567 9.36 9.648 0 17.035-3.073 22.162-9.226 5.122-6.15 7.686-14.983 7.686-26.5zM948.043 113.615l-27.768 92.625h-15.38l-20.712-71.91h-.36l-22.435 71.91h-14.834L818.6 113.615h15.56l20.442 74.715h.725l22.885-74.715h13.568l20.625 74.715h.723l20.262-74.715h14.653zM1010.902 181.457c0 8.02-3.088 14.533-9.27 19.537-6.18 5.006-14.395 7.508-24.647 7.508-8.742 0-16.402-1.87-22.975-5.607v-15.92c7.295 5.91 15.316 8.863 24.06 8.863 11.76 0 17.64-4.31 17.64-12.934 0-3.498-1.146-6.346-3.44-8.55-2.29-2.2-7.508-5.17-15.648-8.91-8.2-3.495-13.99-7.25-17.367-11.26-3.377-4.01-5.064-9.33-5.064-15.966 0-7.656 3.077-14.05 9.228-19.176 6.15-5.125 13.96-7.69 23.428-7.69 7.295 0 13.898 1.448 19.808 4.343v14.926c-6.03-4.4-13.023-6.602-20.984-6.602-4.883 0-8.818 1.207-11.805 3.62-2.986 2.41-4.478 5.517-4.478 9.315 0 4.102 1.146 7.252 3.44 9.453 2.29 2.2 7.023 4.81 14.198 7.824 8.805 3.738 14.986 7.658 18.545 11.758 3.555 4.102 5.332 9.258 5.332 15.47zM1167.36 206.24h-16.825l-13.658-36.27h-55.088l-12.937 36.27h-16.824l49.57-129.71h15.735l50.024 129.71zm-35.55-50.02l-22.433-60.694h-.36l-22.163 60.693h44.957zM1248.783 117.867l-54.908 75.8h54.273v12.573h-76.072v-4.613l54.814-75.438h-49.658v-12.575h71.55v4.252zM1337.69 206.24h-14.833v-14.652h-.36c-6.15 11.275-15.65 16.914-28.495 16.914-22.13 0-33.195-13.176-33.195-39.53v-55.357h14.834v53.006c0 19.48 7.48 29.218 22.437 29.218 7.354 0 13.324-2.668 17.908-8.004 4.58-5.338 6.873-12.287 6.873-20.85v-53.37h14.834v92.626zM1410.12 128.63c-2.657-1.99-6.425-2.983-11.31-2.983-6.572 0-11.91 3.09-16.008 9.27-4.102 6.183-6.152 14.218-6.152 24.106v47.217h-14.834v-92.625h14.834V132.7h.36c2.052-6.39 5.216-11.44 9.5-15.15 4.28-3.708 9.194-5.56 14.74-5.56 3.86 0 6.817.42 8.868 1.265v15.376zM1493.2 163.637h-65.4c.24 10.434 3 18.408 8.276 23.926 5.275 5.518 12.588 8.275 21.934 8.275 10.492 0 20.05-3.375 28.674-10.13v13.84c-8.082 5.97-18.814 8.954-32.2 8.954-13.208 0-23.52-4.266-30.935-12.8-7.42-8.532-11.128-20.337-11.128-35.413 0-9.165 1.854-17.532 5.562-25.1 3.71-7.57 8.818-13.435 15.332-17.595 6.512-4.16 13.748-6.242 21.71-6.242 12 0 21.358 3.906 28.085 11.715 6.724 7.81 10.09 18.74 10.09 32.79v7.78zM1478 151.064c-.123-8.562-2.188-15.21-6.197-19.945-4.012-4.735-9.664-7.102-16.96-7.102-6.876 0-12.755 2.475-17.64 7.418-4.883 4.945-7.96 11.486-9.227 19.63h50.024z"/></svg>