<svg xmlns="http://www.w3.org/2000/svg" viewBox="0 0 41.25 20.6"><path d="M7.46 14.54c.038-1.1-.95-1.48-.95-1.48.837-.44.73-1.54.73-1.54-.09-1.696-2.154-1.616-2.154-1.616h-3.19V16.2h3.6c2.117 0 1.965-1.66 1.965-1.66m-2.036.49H3.268v-1.36h2.146c.79 0 .757 1.34 0 1.34m-.07-2.59H3.258v-1.31h2.076c.802 0 .814 1.31.01 1.31zm5.53-.83H8.076v.95h2.458s.58.15.58.52v.33H8.892s-.87.1-1.153 1.12c-.05.49.02.73.05.82.03.1.287.66 1.048.81h3.536v-3.25s-.17-1.11-1.5-1.29m.24 3.64H9.327c-.597 0-.522-.97.05-.97h1.747v.97zm1.89-4.14h1.31V9.942h-1.31zm0 5.03h1.31V11.6h-1.31zm26.23-5.99h-2.36v-.466h-1.11v.436h-2.7v6.05h.98v-5.27h5.19zm-.64 1.25v-.35h-.94v.35h-1.96v-.34h-.91v.34h-.6v.68h.59v1.29h3.29c.46 0 .52-.48.52-.48v-.81h.7v-.68h-.7zm-.94 1.15s-.1.16-.2.16h-1.77v-.64h1.97zm-3.34 1.75l1.52.88c-.12.13-.64.3-.64.3h-1.01v.67h1.38c.4-.1 1.16-.46 1.16-.46.31.28.91.4.91.4h1.55v-.67h-1.16c-.32-.1-.61-.23-.61-.23l1.79-1.02v-.55h-4.89zm3.15 0l-.86.45-.79-.45zm-5.09-3.26v-.91h-6v.93h2.58l-.23.55h-2.2v4.58h5.21c.54 0 .49-.56.49-.56V11.6h-2.19l.19-.57h2.17zm-1.16 4.17s-.1.15-.17.15h-3.46v-1.07h3.63zm0-1.8h-3.61v-1h3.61zM18.9 4.416c-.73 0-1.31.83-1.31 1.855 0 1.034.58 1.863 1.31 1.863.72 0 1.3-.83 1.3-1.862 0-1.025-.58-1.854-1.3-1.854zm3.51.295c-.67 0-1.42 1.002-1.5 1.672-.1.88.13 1.75 1.1 1.874.96.123 1.58-.903 1.71-1.683.12-.78-.5-1.69-1.18-1.844-.1-.01-.1-.01-.13-.02zm-6.3 2.483h-.1c-1.05.1-1.21 1.622-1.21 1.622-.14.707.34 2.215 1.65 1.935 1.32-.28 1.15-1.843 1.11-2.18-.1-.51-.65-1.39-1.45-1.377zm8.26.873c-1.15 0-1.31 1.063-1.31 1.812 0 .722.1 1.712 1.5 1.682 1.43 0 1.27-1.62 1.27-1.995s-.31-1.5-1.46-1.5zm-4.06 1.247c-.74-.03-1.41.442-1.73.967-.55.94-1.43 1.53-1.55 1.69-.13.16-1.81 1.06-1.43 2.71.37 1.66 1.68 1.63 1.68 1.63s.96.1 2.08-.16c1.12-.25 2.09.1 2.09.1s2.61.88 3.32-.81c.71-1.68-.4-2.55-.4-2.55s-1.5-1.16-2.36-2.41c-.53-.808-1.13-1.115-1.7-1.127zm-1.18 1.927h.76v4.1H18.2c-1 0-1.4-1.21-1.2-1.9.32-1.02 1.22-1.1 1.22-1.1h.91zm1.97 1.19v1.95c0 .2.31.24.31.24h.81v-2.17h.84v2.89H21.1c-.75-.2-.79-.74-.79-.74v-2.15h.79zm-2.72.58c-.87 0-.89 1.67 0 1.67h.68v-1.67z"/></svg>