<svg xmlns="http://www.w3.org/2000/svg" viewBox="0 0 600 200"><path fill="#231F20" d="M108.726 167.977v13.864c0 1.03.252 1.807.76 2.33.504.527 1.255.787 2.25.787 1.472 0 2.83-.34 4.074-1.015a6.848 6.848 0 0 0 2.858-2.947c.664-1.288.993-2.724.993-4.306 0-1.813-.368-3.44-1.104-4.88-.738-1.442-1.836-2.445-3.294-3.012-1.46-.566-3.64-.842-6.536-.82zm0-2.14c2.69 0 4.675-.308 5.952-.926 1.28-.616 2.26-1.487 2.942-2.605.682-1.122 1.022-2.55 1.022-4.286 0-1.738-.336-3.162-1.01-4.273-.672-1.11-1.632-1.953-2.882-2.535-1.25-.578-3.258-.857-6.023-.84v15.465zm10.248.74c3.655.857 6.222 1.894 7.698 3.11 2.12 1.734 3.182 3.976 3.182 6.737 0 2.91-1.158 5.316-3.475 7.22-2.843 2.303-6.978 3.453-12.398 3.453h-19.46v-1.036c1.79 0 3.003-.167 3.64-.502.638-.338 1.085-.776 1.342-1.314.257-.536.386-1.864.386-3.98v-25.197c0-2.115-.13-3.446-.386-3.994s-.708-.986-1.357-1.314c-.647-.327-1.856-.49-3.625-.49v-1.035h18.35c4.385 0 7.488.4 9.315 1.195 1.825.796 3.264 1.988 4.32 3.57 1.052 1.584 1.58 3.27 1.58 5.055 0 1.883-.67 3.556-2.017 5.027-1.344 1.467-3.71 2.632-7.096 3.495zM152.927 174.93l-4.92-11.544-5.063 11.543h9.983zm.788 1.848h-11.583l-1.432 3.264c-.453 1.092-.68 1.994-.68 2.705 0 .943.372 1.638 1.114 2.086.436.265 1.508.462 3.217.595v.894h-10.91v-.894c1.177-.18 2.146-.683 2.903-1.5.76-.82 1.695-2.51 2.807-5.073l11.75-26.77h.457l11.825 27.512c1.128 2.613 2.054 4.26 2.78 4.938.55.513 1.325.81 2.324.893v.894H152.48v-.894h.656c1.273 0 2.168-.183 2.684-.55.356-.267.533-.65.533-1.15 0-.3-.048-.607-.146-.925-.032-.15-.274-.773-.725-1.873l-1.767-4.152zM181.188 152.74l16.138 20.674v-14.29c0-2.02-.28-3.386-.842-4.1-.77-.958-2.064-1.42-3.88-1.39v-.893h10.842v.895c-1.39.183-2.32.42-2.798.708-.477.29-.848.762-1.115 1.415-.267.654-.4 1.775-.4 3.365v27.974h-.83L176.17 159.23v21.246c0 1.94.438 3.25 1.318 3.93.88.68 1.887 1.02 3.02 1.02h.79v.895H169.58v-.893c1.806-.017 3.064-.397 3.773-1.145.71-.746 1.066-2.015 1.066-3.806v-23.552l-.774-.978c-.693-.925-1.307-1.532-1.84-1.823-.53-.29-1.297-.453-2.296-.488v-.894h11.678zM237.75 151.965v11.63h-.933c-.708-3.04-2.032-5.373-3.965-6.993-1.935-1.62-4.13-2.43-6.578-2.43-2.046 0-3.926.603-5.635 1.81a10.526 10.526 0 0 0-3.748 4.736c-1.016 2.496-1.525 5.274-1.525 8.332 0 3.008.37 5.748 1.11 8.22.74 2.47 1.9 4.34 3.477 5.605 1.577 1.264 3.62 1.896 6.13 1.896 2.063 0 3.95-.46 5.662-1.388 1.715-.924 3.52-2.518 5.42-4.78v2.896c-1.837 1.966-3.75 3.39-5.744 4.274-1.99.884-4.315 1.325-6.975 1.325-3.5 0-6.606-.717-9.322-2.156-2.716-1.435-4.813-3.5-6.287-6.19-1.476-2.693-2.213-5.56-2.213-8.598 0-3.206.818-6.244 2.457-9.118 1.64-2.875 3.85-5.104 6.636-6.69 2.783-1.586 5.74-2.38 8.873-2.38 2.31 0 4.747.518 7.312 1.548 1.486.6 2.43.898 2.833.898.516 0 .964-.195 1.344-.587.377-.39.625-1.01.737-1.858h.934zM259.815 153.872c-3.01 0-5.3 1.57-6.87 4.705-1.278 2.576-1.917 6.274-1.917 11.094 0 5.73.988 9.966 2.962 12.706 1.376 1.915 3.3 2.87 5.776 2.87 1.667 0 3.06-.41 4.175-1.236 1.423-1.055 2.532-2.744 3.324-5.062.792-2.32 1.19-5.346 1.19-9.078 0-4.44-.406-7.762-1.215-9.965s-1.84-3.76-3.095-4.667c-1.253-.912-2.697-1.366-4.33-1.366zm-.293-1.61c5.238-.2 9.493 1.364 12.767 4.682 3.272 3.32 4.91 7.474 4.91 12.462 0 4.262-1.222 8.01-3.662 11.248-3.234 4.295-7.8 6.442-13.698 6.442-5.916 0-10.49-2.047-13.723-6.144-2.554-3.236-3.83-7.076-3.83-11.52 0-4.987 1.66-9.146 4.982-12.473 3.32-3.33 7.404-4.897 12.252-4.7zM315.003 173.308l-5.778-13.972-5.95 13.972h11.728zm.93 2.238h-13.61l-1.685 3.95c-.53 1.324-.796 2.414-.796 3.275 0 1.142.436 1.982 1.306 2.525.513.32 1.773.56 3.782.72v1.082h-12.82v-1.082c1.384-.22 2.52-.826 3.41-1.816.89-.993 1.99-3.037 3.3-6.14l13.802-32.402h.538l13.896 33.3c1.324 3.163 2.413 5.156 3.268 5.976.643.62 1.553.982 2.728 1.08v1.083h-18.57v-1.082h.77c1.496 0 2.545-.222 3.152-.666.416-.324.628-.786.628-1.393a3.87 3.87 0 0 0-.173-1.118c-.04-.182-.322-.937-.853-2.27l-2.073-5.024zM365.46 151.33l-19.325 32.973h6.252c2.956 0 5.025-.196 6.205-.59 1.922-.616 3.58-1.747 4.968-3.397 1.388-1.65 2.35-3.862 2.883-6.63h.947l-1.334 12.603h-30.133l19.365-33.034h-4.883c-1.892 0-3.14.06-3.74.18a8.795 8.795 0 0 0-3.193 1.328c-.997.662-1.82 1.54-2.477 2.64-.654 1.1-1.17 2.49-1.54 4.176h-.9l.878-10.25h26.027zM399.612 151.33v9.44h-.878c-.516-2.184-1.09-3.752-1.72-4.707-.633-.955-1.497-1.715-2.595-2.28-.618-.31-1.692-.465-3.23-.465h-2.456v27.01c0 1.79.09 2.907.276 3.355.183.447.543.84 1.078 1.174.533.336 1.264.5 2.192.5h1.075v.933h-17.137v-.932h1.083c.945 0 1.71-.18 2.286-.54.417-.242.746-.654.988-1.24.177-.41.265-1.495.265-3.25v-27.01h-2.457c-2.23 0-3.85.498-4.86 1.495-1.416 1.392-2.312 3.376-2.687 5.955h-.876v-9.44h29.652v.003zM414.933 153.318V167.6h.662c2.116 0 3.648-.697 4.6-2.09.947-1.393 1.55-3.45 1.814-6.17h.88v18.318h-.88c-.2-1.996-.61-3.63-1.24-4.906-.632-1.273-1.366-2.13-2.2-2.57-.836-.44-2.047-.657-3.636-.657v9.84c0 1.923.074 3.1.23 3.53.154.43.44.783.862 1.055.427.275 1.103.413 2.045.413h1.972c3.082 0 5.555-.756 7.412-2.272 1.856-1.513 3.19-3.815 4.002-6.91h.907l-1.483 11.108h-28.465v-.932h1.087c.953 0 1.72-.18 2.3-.54.42-.242.742-.654.967-1.24.176-.41.266-1.495.266-3.25V157.29c0-1.582-.04-2.555-.12-2.916-.16-.6-.462-1.065-.896-1.393-.613-.48-1.452-.72-2.518-.72h-1.087v-.932h27.55v10.246h-.876c-.473-2.505-1.135-4.304-1.984-5.395-.854-1.09-2.056-1.893-3.613-2.405-.908-.307-2.613-.46-5.11-.46h-3.45v.003zM467.802 150.524v12.108h-.934c-.712-3.167-2.04-5.594-3.98-7.28-1.94-1.688-4.143-2.53-6.6-2.53-2.052 0-3.942.627-5.655 1.882-1.715 1.258-2.97 2.902-3.76 4.932-1.02 2.6-1.53 5.49-1.53 8.673 0 3.13.37 5.983 1.115 8.557.742 2.572 1.903 4.516 3.487 5.834 1.584 1.318 3.637 1.975 6.154 1.975 2.068 0 3.96-.48 5.682-1.446 1.717-.962 3.53-2.622 5.437-4.977v3.016c-1.846 2.045-3.764 3.527-5.764 4.448-1.998.92-4.334 1.38-7 1.38-3.51 0-6.63-.748-9.357-2.245-2.724-1.495-4.83-3.644-6.31-6.447a18.886 18.886 0 0 1-2.218-8.95c0-3.336.82-6.5 2.465-9.49 1.643-2.995 3.86-5.315 6.657-6.966 2.792-1.652 5.76-2.475 8.902-2.475 2.315 0 4.765.536 7.34 1.61 1.49.622 2.437.936 2.843.936.516 0 .966-.202 1.35-.61.377-.407.625-1.052.738-1.935h.934zM490.386 174.43l-4.936-12.017-5.083 12.017h10.02zm.794 1.925h-11.628l-1.435 3.398c-.453 1.137-.68 2.076-.68 2.814 0 .982.37 1.705 1.118 2.172.437.275 1.51.48 3.227.618v.932h-10.947v-.932c1.18-.19 2.15-.71 2.912-1.562.762-.852 1.7-2.61 2.818-5.28l11.79-27.868h.46l11.867 28.64c1.13 2.72 2.063 4.434 2.79 5.14.552.534 1.33.843 2.33.93v.93h-15.86v-.93h.656c1.277 0 2.177-.19 2.695-.573.356-.278.536-.675.536-1.197 0-.313-.05-.634-.148-.962-.034-.156-.278-.807-.73-1.95l-1.772-4.32zM403.52 108.606c-7.295 39.447-71.186 31.08-71.186 31.08 12.6-1.82 21.118-5.8 26.88-10.394 12.468-9.937 12.016-22.74 12.016-22.74-1.643-42.827-41.113-67.288-74.625-80.387-33.41 13.142-72.526 37.575-74.165 80.205 0 0-.447 12.804 12.017 22.74 5.762 4.594 14.282 8.574 26.88 10.395 0 0-63.89 8.367-71.186-31.08-.903-4.88-.938-10.49.118-16.94 0 0 5.745-20.575 30.694-40.724 7.065-5.705 15.67-11.377 26.12-16.537 10.044-4.96 21.798-9.446 35.523-13.04-18.677-6.03-32.866-8.27-32.866-8.27 17.402.627 32.88 2.44 46.642 5.115 13.988-2.773 29.76-4.655 47.55-5.297 0 0-14.503 2.294-33.488 8.475 13.99 3.62 25.95 8.164 36.144 13.2 10.454 5.16 19.058 10.83 26.124 16.537 24.948 20.15 30.694 40.724 30.694 40.724 1.055 6.45 1.017 12.06.115 16.94z"/><path fill="#231F20" d="M270.404 118.374c6.26 6.26 14.88 10.163 24.41 10.265 4.82.07 9.668-.9 14.1-2.786a35.183 35.183 0 0 0 17.114-15.577 34.938 34.938 0 0 0 3.088-7.817 35.13 35.13 0 0 0 1.134-8.875c0-9.68-3.926-18.444-10.267-24.788a35.183 35.183 0 0 0-11.07-7.48c-4.45-1.896-9.263-2.82-14.1-2.785-9.53.1-18.148 4.004-24.41 10.265-6.342 6.344-10.266 15.108-10.266 24.788 0 3.066.393 6.04 1.13 8.875a34.78 34.78 0 0 0 3.09 7.817 35.207 35.207 0 0 0 6.047 8.097z"/></svg>