<svg xmlns="http://www.w3.org/2000/svg" viewBox="0 0 612 146"><path d="M386.4 57.6c1.2-7.2-2-8.9-7.7-8.9h-6.9c-4.4 0-5.5.3-6.2 4.4l-3 17.3H373c3 0 4.8-1 6-2.2.6-.6 1-1.4 1.4-2.2.3-.7.6-1.3.8-2 0-.1.1-.3.2-.4l2.8-.1-3.3 18.9H378c.8-5-.6-7.6-5.7-7.6h-10.5l-3.4 19.5c-.8 4.8.1 4.9 4.5 4.9h9.8c4.9 0 7.6-1.8 9.3-8.5h2.9l-2.6 13.1h-35.6l8.3-47.6c.8-4.4 1.1-6.5.3-7.7-.8-1.1-2.5-1.5-6-2.1-.2 0-.8-.1-1-.2l.5-2.3h42.7l-2.1 13.5h-3zM404 77.4c1 .7 2.1 1.3 3.2 2 4.4 2.8 8.7 6.3 7.5 13.2-1.5 8.8-9.4 12.3-18.2 12.3-2.7 0-5-.3-6.8-.6-1.8-.3-3.5-.8-4.5-1.1l1.4-7.4c2.6 2.1 6.2 4.8 11 4.8 5.5 0 7.9-2.8 8.4-5.7.4-2.1-.5-3.7-2-5.1-.8-.7-1.7-1.4-2.7-2.1-1-.7-2.1-1.3-3.2-2-4.3-2.7-8.7-6-7.7-12.2 1.1-6.5 6.5-12 17-12 2.3 0 4.3.3 6 .6 1.3.3 2.4.6 3.2.8.1 0 .5.2.6.2l-1.2 7.1c-.6-.5-1-.8-1.6-1.2-.6-.4-1.3-.9-2.1-1.4-1.7-.9-3.8-1.8-6.2-1.8-2.8 0-6.2 1-6.8 4.7-.4 2 .5 3.5 2.1 4.9.6.7 1.5 1.3 2.6 2M427.9 62.5l1.2-6.9 10.7-8.2-2.6 15.1h11.6l-.7 3.9h-11.6L432 91.9c-1.1 6.2-1.1 8.7 5.5 8.7 1 0 2.3-.1 3.4-.4l-.6 3.9c-2.2.4-4.2.7-6.1.7-8.5 0-13.4-1.4-11.6-11.6l4.7-26.9h-6.9l.7-3.9h6.8zM468.1 80.8l.9-4.4c1-5.7 2-11.5-3.3-11.5-5.4 0-6.8 4.5-7.5 8.4 0 .1-.1.5-.1.6h-11c2.2-6.2 6.3-12.4 19-12.4s13.6 6.6 12 15.4l-4.7 27h-9.2l.8-4.8c-.6.6-.9.9-1.4 1.3-.7.7-1.6 1.4-2.6 2.1-2.1 1.3-4.7 2.4-8.2 2.4-7 0-11.2-5-10.2-10.4 2.2-12.4 19.6-13.5 25.5-13.7M453 93.1c-.7 4 .8 6.7 3.9 6.7 5 0 8.8-4.6 9.9-10.5l.9-4.9c-3.9.1-13.4.8-14.7 8.7m0 0c-.7 4 .8 6.7 3.9 6.7 5 0 8.8-4.6 9.9-10.5l.9-4.9c-3.9.1-13.4.8-14.7 8.7m15.1-12.3l.9-4.4c1-5.7 2-11.5-3.3-11.5-5.4 0-6.8 4.5-7.5 8.4 0 .1-.1.5-.1.6h-11c2.2-6.2 6.3-12.4 19-12.4s13.6 6.6 12 15.4l-4.7 27h-9.2l.8-4.8c-.6.6-.9.9-1.4 1.3-.7.7-1.6 1.4-2.6 2.1-2.1 1.3-4.7 2.4-8.2 2.4-7 0-11.2-5-10.2-10.4 2.2-12.4 19.6-13.5 25.5-13.7M525.6 41.7l-10.9 62.2h-9.2l.8-4.6c-.7.6-1.3 1-1.9 1.5-.9.7-1.9 1.3-3 1.9-2.2 1.2-4.9 2.2-8.1 2.2-11.7 0-14.3-9.8-12.4-20.9 2-11.2 8.4-22.5 20.2-22.5 7 0 9.3 3.5 10.5 6.3.2-.4.3-1.2.5-2.4l.8-4.8 1.2-6.8c1-5.9.1-7.4-4.4-7.8-.1 0-.7-.1-.9-.1l.4-2.1 16.4-2.1zm-16 38.9c.9-5 1.4-13.9-6.7-13.9-7.9 0-10.5 9.9-11.6 16.2-1.2 6.9-2.2 16.9 5.8 16.9 8.3 0 11-10.8 11.8-15.6l.7-3.6zM545.2 61.5c13 0 17.7 9 15.5 21.8-2.5 14.5-9.8 21.6-23 21.6-14.4 0-17.7-9.3-15.5-21.7 2.5-14.8 10-21.7 23-21.7m5.4 21.7c1.4-8.2 2.4-18.3-5.9-18.3-8.5 0-11 10.5-12.4 18.4-1.3 7.5-2.5 18.2 5.9 18.2s10.8-9.4 12.4-18.3m0 0c1.4-8.2 2.4-18.3-5.9-18.3-8.5 0-11 10.5-12.4 18.4-1.3 7.5-2.5 18.2 5.9 18.2s10.8-9.4 12.4-18.3m-5.4-21.7c13 0 17.7 9 15.5 21.8-2.5 14.5-9.8 21.6-23 21.6-14.4 0-17.7-9.3-15.5-21.7 2.5-14.8 10-21.7 23-21.7M156.8 96c-.6 3.3 2.6 3.4 7.6 3.4 9.6 0 14.4-4.3 16-13.2 1.5-8.5-4.3-11.6-12-11.6h-7.9L156.8 96zm35.5-37.4c-1.5 8.4-8 11.9-12.6 13.4 5.8 1.3 12.4 4.8 10.4 15.9-1.4 8-6.6 12-12.4 14-2.9 1-5.9 1.5-8.7 1.7-2.7.3-5.2.3-7.1.3h-16.8l8.3-47.6c.8-4.4 1.1-6.5.3-7.7-.8-1.2-3-1.6-6.9-2.3l.4-2.2h26.4c10.2 0 20.9 2.4 18.7 14.5m-31 11.5h5.7c7.5 0 13.7-2.4 15.2-11 1.4-7.8-2.5-10.4-10.5-10.4-5.3 0-6.7.3-7.4 4.4l-3 17zM216.5 80.8l.9-4.4c1-5.7 2-11.5-3.3-11.5s-6.7 4.4-7.4 8.2c0 .2-.1.6-.1.8h-11c2.2-6.2 6.3-12.4 19-12.4s13.6 6.6 12 15.4l-4.7 27h-9.2l.8-4.8c-.6.6-1 .9-1.4 1.3-.7.7-1.6 1.4-2.6 2.1-2.1 1.3-4.7 2.4-8.2 2.4-7 0-11.2-5-10.2-10.4 2-12.4 19.4-13.5 25.4-13.7m-15.2 12.3c-.7 4 .8 6.7 3.9 6.7 5 0 8.8-4.6 9.9-10.5l.9-4.9c-3.9.1-13.3.8-14.7 8.7m0 0c-.7 4 .8 6.7 3.9 6.7 5 0 8.8-4.6 9.9-10.5l.9-4.9c-3.9.1-13.3.8-14.7 8.7m15.2-12.3l.9-4.4c1-5.7 2-11.5-3.3-11.5s-6.7 4.4-7.4 8.2c0 .2-.1.6-.1.8h-11c2.2-6.2 6.3-12.4 19-12.4s13.6 6.6 12 15.4l-4.7 27h-9.2l.8-4.8c-.6.6-1 .9-1.4 1.3-.7.7-1.6 1.4-2.6 2.1-2.1 1.3-4.7 2.4-8.2 2.4-7 0-11.2-5-10.2-10.4 2-12.4 19.4-13.5 25.4-13.7M258.6 80.8c1.2-7.1 2.2-12.9-3.4-12.9-5.7 0-12.1 8.1-13.2 14.3l-3.8 21.7H229l5.2-29.8c1-5.9 0-7.4-4.9-7.6-.1 0-.7-.1-.8-.1l.4-2.1 16.8-2.9-1.9 10.9c2.9-4.2 8.7-10.9 16.6-10.9 8.2 0 9.9 5.8 8.7 12.7l-5.2 29.7h-9.2l3.9-23zM296.7 74c.7-4.1.6-9.1-4.5-9.1-5.8 0-8.3 6.3-9.8 14.8-2.3 13 2.5 20 10.3 20 2.6 0 6.1-.5 8.3-1.1.1 0 .4-.1.4-.1l-.7 4.3c-1.8.6-3.1 1.1-5 1.5-1.9.4-4.3.6-8 .6-12.5 0-18.4-8.9-16-22.3 2.1-12.1 8.7-21.1 21.4-21.1 9.6 0 15.3 4.7 14.4 11.7 0 .2-.1.6-.1.8h-10.7zM329.4 61.5c13 0 17.7 9 15.5 21.8-2.5 14.5-9.8 21.6-23 21.6-14.4 0-17.7-9.3-15.5-21.7 2.5-14.8 10-21.7 23-21.7m5.4 21.7c1.4-8.2 2.4-18.3-5.9-18.3-8.5 0-11 10.5-12.4 18.4-1.3 7.5-2.5 18.2 5.9 18.2s10.8-9.4 12.4-18.3m0 0c1.4-8.2 2.4-18.3-5.9-18.3-8.5 0-11 10.5-12.4 18.4-1.3 7.5-2.5 18.2 5.9 18.2s10.8-9.4 12.4-18.3m-5.4-21.7c13 0 17.7 9 15.5 21.8-2.5 14.5-9.8 21.6-23 21.6-14.4 0-17.7-9.3-15.5-21.7 2.5-14.8 10-21.7 23-21.7M578.2 76.4c-4.4 0-7.9-3.5-7.9-7.9s3.6-7.9 7.9-7.9c4.4 0 7.9 3.6 7.9 7.9.1 4.4-3.5 7.9-7.9 7.9zm0-14.6a6.7 6.7 0 1 0 0 13.4 6.7 6.7 0 0 0 0-13.4zM52.3 92.9v-4.3c0-.7.5-1.3 1.1-1.5L59 85v-6.5l-5.6 2.1c-.6.2-1.2 1-1.2 1.6v4.3c0 .7-.5 1.3-1.2 1.5L22.9 99.1v6.5l28.3-11.1c.6-.3 1.1-1 1.1-1.6zM52.3 80.2v-4.3c0-.7.5-1.3 1.1-1.5l5.6-2.1v-6.5l-5.6 2.1c-.6.2-1.2 1-1.2 1.6v4.3c0 .7-.5 1.3-1.2 1.5L22.9 86.2v6.6l28.3-11c.6-.3 1.1-1 1.1-1.6zM71.7 112.7c-.3 0-.6.2-.8.5-.3.3-.5.7-.7 1.5l1.9-1.1c.1-.2.1-.2.1-.3 0-.4-.2-.6-.5-.6zM64 113.7c-.3.5-.6 1.5-.6 2.1 0 .4.1.6.3.6.2 0 .6-.2 1-.6.6-.6 1.1-1.4 1.2-2l.1-.7c-.2-.2-.5-.3-.7-.3-.4 0-.9.3-1.3.9zM54.3 112.7c-.3 0-.6.2-.8.5-.3.3-.5.7-.7 1.5l1.9-1.1c.1-.2.1-.2.1-.3 0-.4-.2-.6-.5-.6zM46.6 113.7c-.3.5-.6 1.5-.6 2.1 0 .4.1.6.3.6.2 0 .6-.2 1-.6.6-.6 1.1-1.4 1.2-2l.1-.7c-.2-.2-.5-.3-.7-.3-.5 0-1 .3-1.3.9zM84.4 115.7c0 .6.4 1 1.1 1 .8 0 1.4-.6 1.5-1.3 0-.3-.1-.6-.3-.8l-.7-.7-.7.5c-.5.3-.9.8-.9 1.3z"/><path d="M117.7 76.5v-50H22.9v53.2l29.3-11.3v-6l6.8-3v-7c8.2-1.2 14.9-6 18-9.2v9.3l7-2.9v56h.5-61.6v15.8h94.9v-15.8H85V48.9l32.7 27.6zM77.5 42.6zm.5 8.3V43l6.3 5.3-6.3 2.6zm-28.7 66.7h-1.4l.3-1.7c-.1.2-.2.4-.3.5-.2.3-.4.5-.7.7-.5.4-1.1.7-1.6.7-.7 0-1.1-.6-1.1-1.7.1-2.4 1.5-4.4 3.2-4.4.4 0 .6.1 1.1.3l.6-3.2 1.5-.2-1.6 9zm3.5-1.4c.1.2.3.3.5.3s.5-.1.7-.2c.3-.1.5-.3 1.3-.9l.5.9c-.4.3-.5.4-.8.6-.3.2-.5.3-.6.4-.5.3-1.1.4-1.6.4-1.1 0-1.6-.7-1.6-2 .1-2.4 1.4-4 3.3-4 1.1 0 1.6.4 1.6 1.2 0 .6-.3 1.1-1 1.4l-2.5 1.3c.1.3.1.5.2.6zm7.9-3c-.6-.3-.8-.4-1.2-.4-.5 0-.8.2-.8.4 0 .1 0 .2.1.2.1.2.2.3.8.8.8.7 1.1 1.1 1.1 1.7 0 1-.8 1.7-2 1.7-.2 0-.6 0-.9-.1-.5-.1-.6-.1-1.1-.2l.4-1.2c.6.2 1 .3 1.3.3.5 0 .7-.2.7-.5 0-.2-.1-.4-.4-.7-.4-.4-.6-.6-.7-.6l-.5-.5c-.2-.3-.3-.6-.3-.9 0-1 .8-1.7 2.2-1.7.6 0 1.1.1 1.7.3l-.4 1.4zm6 4.4h-1.4l.3-1.7c-.1.2-.2.4-.3.5-.2.3-.4.5-.7.7-.5.4-1.1.7-1.6.7-.7 0-1.1-.6-1.1-1.7.1-2.4 1.5-4.4 3.2-4.4.4 0 .6.1 1.1.3l.6-3.2 1.5-.2-1.6 9zm3.5-1.4c.1.2.3.3.5.3s.5-.1.7-.2c.3-.1.5-.3 1.3-.9l.5.9c-.3.3-.5.4-.8.6-.3.2-.5.3-.6.4-.5.3-1.1.4-1.5.4-1.1 0-1.6-.7-1.6-2 .1-2.4 1.4-4 3.3-4 1.1 0 1.6.4 1.6 1.2 0 .6-.3 1.1-1.1 1.4l-2.5 1.3c.1.3.1.5.2.6zm10.5 1.4h-1.5l.8-4.3-1.6.6-.3-1.2 3-1.1h.7l-1.1 6zm16.3-2c-.3-.2-.8-.3-1.1-.3h-.8l.7-4.2h3.7l-.2 1.2h-2.2l-.3 1.9c.6.1.9.1 1.2.3.6.3 1 1 .9 1.8 0 1.8-1.6 3.2-3.4 3.2-.5 0-.9-.1-1.6-.3l.4-1.2c.6.2.9.3 1.3.3.9 0 1.7-.9 1.7-1.9.1-.3-.1-.6-.3-.8zm-5.3 0c-.3-.2-.8-.3-1.1-.3h-.8l.7-4.2h3.7l-.2 1.2h-2.2l-.3 1.9c.6.1.9.1 1.2.3.6.3 1 1 .9 1.8 0 1.8-1.6 3.2-3.4 3.2-.5 0-.9-.1-1.6-.3l.4-1.2c.6.2.9.3 1.3.3.9 0 1.7-.9 1.7-1.9.1-.3-.1-.6-.3-.8zm-4.8-6.2c1.3 0 2.1.6 2 1.5 0 .2-.1.5-.2.7-.2.4-.4.7-1 1.1l-.8.5.8.7c.5.5.8 1.1.8 1.7 0 1.3-1.4 2.2-3.4 2.2-1.5 0-2.3-.6-2.3-1.8 0-.7.6-1.6 1.2-2l1-.7-.5-.5c-.4-.4-.6-1-.6-1.4.2-1.3 1.3-2 3-2z"/><path d="M86.2 112.4l.7-.5c.3-.2.4-.5.4-.8 0-.4-.3-.7-.8-.7-.6 0-1 .4-1 .8 0 .2.1.5.2.6l.5.6zM581.4 71c-.3-1.2-.5-2.2-2-2.5.9-.2 2.2-.7 2.2-2.4 0-2.5-2.3-2.7-4-2.7h-2.2v10.2h1.6V69h.6c1.6 0 1.9.9 2.1 1.8l.6 2.7h1.6l-.5-2.5zm-3.8-2.9h-.6v-3.7h.6c1.5 0 2.3.4 2.3 1.8.1 1.6-1.2 1.9-2.3 1.9z"/></svg>