<svg xmlns="http://www.w3.org/2000/svg" viewBox="0 0 612 186"><path d="M57.2 126.1c-.9 0-3.7 0-4.9.1v16.5c1.4.2 3.5.4 6.1.4 7.3 0 11-3.5 11-8.8 0-5.8-4.9-8.2-12.2-8.2m1.6-24.1c-2.3 0-4.5.1-6.5.2v15.4c1.4.1 2.7.1 4.5.1 7.6 0 11.6-3.2 11.6-8.4 0-4.4-2.5-7.3-9.6-7.3m-.7 50.4c-3.5 0-9.6-.2-16.9-.2v-59c4.9-.2 12.4-.4 19.5-.4 12.5 0 19.4 5.2 19.4 14.6 0 5.9-3.7 11-9.1 13.2v.2c6.8 1.5 10.3 7.3 10.3 13.2 0 8.6-5.8 18.4-23.2 18.4M109.8 132c-12.1 0-14.8 3.6-14.8 7.3 0 2.9 2 4.9 5.3 4.9 5.7 0 9.5-5.5 9.5-11V132zm.9 20.3c0-2.7.1-5.4.5-7.8l-.1-.1c-2.2 5.1-7.6 8.7-14.3 8.7-8.1 0-12.8-4.7-12.8-12 0-10.9 10.6-16.7 25.8-16.7v-2.5c0-4.8-2.2-7.2-8.7-7.2-4 0-9.4 1.4-13.2 3.6l-1-9.8c4.5-1.7 10.2-2.8 16-2.8 14.4 0 18.4 5.9 18.4 15.9l.4 30.7h-11zM477.5 132c-12.1 0-14.8 3.6-14.8 7.3 0 2.9 2 4.9 5.3 4.9 5.7 0 9.5-5.5 9.5-11V132zm.8 20.3c0-2.7.1-5.4.5-7.8l-.1-.1c-2.1 5.1-7.6 8.7-14.3 8.7-8.1 0-12.8-4.7-12.8-12 0-10.9 10.6-16.7 25.8-16.7v-2.5c0-4.8-2.3-7.2-8.7-7.2-4.1 0-9.4 1.4-13.2 3.6l-1-9.8c4.5-1.7 10.2-2.8 16-2.8 14.4 0 18.4 5.9 18.4 15.9l.4 30.7h-11zM191.4 153.1c-12.4 0-20.1-6.6-20.1-22.2 0-14.2 7.3-25.2 23.1-25.2 3.1 0 6.3.5 9.2 1.3l-1.2 10.2c-2.4-.9-5.2-1.7-8.1-1.7-7.3 0-11 5.5-11 14.1 0 7.8 3 13.2 10.6 13.2 3.1 0 6.4-.7 8.8-1.9l.9 10c-3.1 1.2-7.5 2.2-12.2 2.2M228.3 115.6c-5.1 0-10.1 4.1-10.1 13.4 0 9.4 3.3 14.1 10 14.1 5.7 0 10-4.7 10-13.9-.1-8.8-3.2-13.6-9.9-13.6m-1.2 37.5c-12.7 0-20.8-6.7-20.8-22.9 0-14.2 9.3-24.6 22.8-24.6 12.7 0 20.8 7.2 20.8 22.9.1 14.4-9.4 24.6-22.8 24.6M293.1 115.6c-5.1 0-10.2 4.1-10.2 13.4 0 9.4 3.3 14.1 10 14.1 5.6 0 10-4.7 10-13.9 0-8.8-3.1-13.6-9.8-13.6m-1.2 37.5c-12.7 0-20.8-6.7-20.8-22.9 0-14.2 9.3-24.6 22.8-24.6 12.7 0 20.8 7.2 20.8 22.9 0 14.4-9.4 24.6-22.8 24.6M441.7 100.7c-3.9 0-7.1-3.2-7.1-7.2 0-3.9 3.2-7.1 7.1-7.1 4 0 7.2 3.1 7.2 7.1 0 4-3.3 7.2-7.2 7.2m5.7 51.5h-12.2v-45.5c5.7-.7 5.6-.5 12.2-.3v45.8zM153.5 105.6c10.1 0 13.3 6.6 13.3 14.6v32.1h-11.4V123c0-4.8-1.3-7.6-5.5-7.6-5.8 0-10.4 6.8-10.4 14.8v22h-11.6V109c3-1.3 6.6-2.1 10.6-2.5l-.3 8.2.1.1c2.8-5.5 8-9.2 15.2-9.2M255 91c3.1-1.4 6.9-2.3 11.1-2.7v63.9H255V91M408.3 144.2c-2.3 0-4.1-.3-5.7-.8v-12.3c0-7.3 3.4-14 9.1-14 5 0 7.3 4.1 7.3 12.2-.1 10.8-4.5 14.9-10.7 14.9m6.5-36.3c-6 0-10.7 3-12.8 7.7h-.1c.4-2.3.7-5.9.7-8.5V88.3c-4.2.4-8 1.3-11.1 2.8V151c4.9 1.4 9.8 2.1 16 2.1 14.6 0 23-10.2 23-24.9 0-12.8-5.5-20.3-15.7-20.3M371.9 105.6c8.6 0 13.4 4.9 13.4 15.2v31.4h-11.5v-28.9c0-4.9-1.1-7.9-5.3-7.9-5 0-10.2 6.1-10.2 15v21.9H347v-28.9c0-4.5-.9-7.9-5.3-7.9-5.3 0-10.2 6.4-10.2 15v21.9H320v-43c3.1-1.4 6.7-2.3 10.9-2.7 0 2.3-.2 5.8-.5 8.2h.1c2.7-5.6 8.1-9.2 14.7-9.2 7.9 0 11.2 4.8 12.3 9.2 1.9-4.7 6.9-9.3 14.4-9.3M569.1 91.6c.6 2.2.4 4.2-2.2 5.2-3.1 1.3-5.4 2.1-9.2 3.6-2 .7-3.8 1.5-6 2.3-2.1.8-4.3 1.7-6.6 2.5-9.4 3.6-20.1 7.6-33.5 12.6-2.9 1-5.8-.5-6.8-3.6-2.2-7-4.7-13.8-7.1-20.1-1-2.9.5-5.5 3.3-6.4 6.8-1.9 12.8-3.4 18.7-4.8 5.8-1.4 11-2.7 15.9-3.7 9.9-2.2 16.2-3.6 22.9-4.8 3.3-.6 4.4.8 5.3 2.9 2 4.7 3.7 9.4 5.3 14.3M567.5 65.4c.9 2.2 0 3.5-2 3.8-8.9 1.6-17.5 2.7-34 6.3-8.3 1.8-17.4 3.9-28 6.7-10.6 2.9-21.9 6.4-32.7 10.5-3.1 1.2-6.1 0-6.8-2.5-1.5-5.9-2.8-11.1-4-16.2-.5-2.2 1.2-4.8 4.1-5.9 4.8-1.9 9.6-3.6 14.8-5.2 4.9-1.7 9.8-2.9 14.7-4.2 9.8-2.4 18.7-4.1 27-5.4 16.6-2.4 27.6-3.2 37-3 3.4.1 4.2 1.1 5.2 3l4.7 12.1zM555.8 42.7c1 1.6.1 2.8-1.3 2.8-5.9.1-16.4.4-28.6 1.9-6.1.8-12.5 1.7-19.6 3.2-7.1 1.4-14.5 3.1-22.1 5.4-2.6.8-5 .8-6-2-1.5-4.2-2.5-7.3-3.8-10.9-.9-2.7.5-4 2.8-4.7 6.9-2 13.5-3.5 20-4.8 6.6-1.2 12.6-2.1 18.5-2.6 11.7-1.2 25.7-1.4 31.7-.4 1.6.3 2.9.4 4.2 2.6l4.2 9.5z"/></svg>