<svg xmlns="http://www.w3.org/2000/svg" viewBox="0 0 1314.5 584.45"><path d="M1291.7 488.88c-3.1 24.07-19.2 73.57-83 73.57-72.2-2.8-81.5-12.7-164.5-12.7-64.49 0-125.2 12.7-168.99 12.7-42.27 0-72.25-7.1-94.54-31.1-13.82-12.8-26.11-48.13-18.42-90.57 0 0 23.05-121.68 23.05-127.34 0-18.39-16.16-35.37-33.04-35.37-22.28 0-43.03 15.57-47.65 31.13-7.69 25.47-56.09 246.15-56.09 246.15s-21.52 5.7-53.78 5.7c-56.1 0-79.16-35.4-73.77-65.1 9.98-58 61.46-281.54 61.46-281.54 9.23-39.62 54.56-48.1 76.84-48.1 35.35 0 45.34 5.65 45.34 5.65l-6.15 25.47c23.82-22.64 68.39-29.71 102.2-29.71 74.55 0 117.57 42.44 117.57 110.35 0 18.4-3.86 39.62-6.91 59.43 0 0-9.99 46.68-17.69 84.88-3.83 18.4 10.77 35.37 69.93 18.4 14.6-28.3 40.74-52.35 58.44-72.16 40.7-43.86 83.7-70.74 86-86.3-17.7-2.83-95.3-4.25-140.6 0 0 0-4.6-16.98-4.6-36.79.71-53.76 26.88-73.57 54.5-73.57 38.5 0 137.6 5.66 195.2 5.66 46.9 0 64.6-7.07 64.6-7.07 23.8 66.5-46.1 151.38-97.6 200.9-45.4 43.86-62.3 60.84-66.1 72.16 63-4.25 107.6 21.22 175.2 5.66 0 0 6.1 22.63 3.1 39.61M375.73 320.52c.71-25.47-14.59-41.03-28.42-42.45-20.75-2.82-47.64 14.15-49.96 25.47l-33.8 144.31s33.8 9.9 59.15-8.49c43.05-28.29 51.5-87.72 53.03-118.84m152.16-5.66c-2.32 72.15-38.43 141.48-82.99 186.75-39.97 38.24-101.43 60.84-183.67 60.84-120.63 0-154.44-60.84-155.22-60.84 0 0 16.93-73.57 34.59-155.62-68.384 2.82-122.943-22.64-118.327-70.74 37.65 7.07 89.137 1.41 138.317-16.98 16.13-70.74 29.18-131.58 29.18-131.58C212.06 24.83 295.04 22 318.87 22c28.44 0 43.02 19.8 43.02 19.8-10.75 18.4-17.66 39.62-24.57 74.99l-14.62 63.66c30.75-8.49 59.96-15.56 84.54-12.73 79.92 5.66 123.71 60.84 120.65 147.14"/></svg>