<svg xmlns="http://www.w3.org/2000/svg" viewBox="0 0 799.4 139.8"><path d="M699.4 115h-.7l-1.1-2.1h-.8v2.1h-.7v-4.5h1.9c.3 0 .7 0 1.1.4.3.4.3.6.3.9 0 .9-.3 1.2-1.1 1.3zm-1.8-2.6c.4 0 1.5 0 1.5-.7 0-.6-.8-.7-1.1-.7h-1.2v1.4zm-4.1.3c0-2.2 1.9-3.9 4.1-3.9 2.2 0 4.1 1.7 4.1 3.9s-1.9 4-4.1 4c-2.2 0-4.1-1.8-4.1-4m.8 0c0 1.8 1.4 3.2 3.3 3.2 1.8 0 3.3-1.4 3.3-3.2 0-1.7-1.5-3.2-3.3-3.2-1.9 0-3.3 1.5-3.3 3.2m40.8-74.34c-37.5 9.97-73.1 26.08-105 47.27 7 3.52 14.1 7.31 21.1 11.35 31.6-21.7 66.1-38.58 103.2-49.71-6.4-3.17-12.7-6.15-19.3-8.91m25.2 11.85A391.9 391.9 0 0 0 659 101.6c7.8 4.7 15.2 9.7 22.6 15a414.1 414.1 0 0 1 95.8-56.61c-5.6-3.44-11.5-6.69-17.1-9.78m-37.1-12.43c-14.5-6.3-29.3-11.58-44.9-15.78-4.8 1.01-9.6 2.13-14.5 3.36C679 29.79 693.9 35.4 708 42.08c5.2-1.54 10-2.97 15.2-4.3m-23 6.87c-14.1-6.83-28.9-12.58-44.2-17.18-5.2 1.53-10.3 3.2-15.5 5.01 15.5 4.6 30.4 10.42 45.2 17.38 4.5-1.83 9.7-3.57 14.5-5.21m-58.3-6.58c-18.1 5.7-35.2 13.14-51.5 22.18 5.2 1.89 10.4 3.89 15.2 6.08 15.9-9.37 33-17.24 50.4-23.49-4.8-1.7-9.2-3.29-14.1-4.77m20.4 7.28c5.6 2.2 11.2 4.56 16.7 7.08-17.4 7.04-34.1 15.35-50 24.89-5.2-2.82-10.8-5.49-16.4-8.02 16-9.28 32.7-17.3 49.7-23.95M387.7 72.31c-5.9 0-10.1 3.15-12.5 5.82-1.3-3.34-4.2-5.82-8.5-5.82-5.2 0-9.6 2.71-12.5 5.49v-4.45h-13.7v43.45h13.7V85.81c1.2-1.59 3.3-2.67 4.8-2.67 2.6 0 3.3 1.56 3.3 3.9v29.76h13.8V85.81c.9-1.19 2.9-2.67 4.8-2.67 2.6 0 3.3 1.56 3.3 3.9v29.76h13.6V82.18c0-6.01-4.1-9.87-9.7-9.87m72.8 6.94h-.4v-5.9h-13.7v43.45h14.1V88.71c1.8-2.01 4.1-3.38 7.8-3.38 2.6 0 4.1.56 5.9 1.19V72.31c-5.5 0-10.7 2.33-13.7 6.94M301.8 55.13l-14.5 61.67h13.5l2.7-12.4h14.3l2.4 12.4h15.2l-13.2-61.67zm3.9 38.32l5.2-25.15h.4l4.4 25.15zm213.8-12.42c2.2 0 3.4 1.22 4.1 2.96.7 1.64.7 3.71.7 5.46h11.9c0-4.34-2.2-17.25-17.1-17.25-13.3 0-20 11.87-20 23.78 0 10.72 6.7 21.82 19.3 21.82 10.4 0 16.3-5.6 17.4-16.2l-10.7-1.5c0 3.3-.8 8.3-5.6 8.3-3.7 0-5.2-3.2-5.2-12.98 0-8.64.4-14.39 5.2-14.39m-40.4-25.9h14v12.49h-14zm0 18.22h14v43.45h-14zm-56-1.15c-13 0-19.3 10.38-19.3 22.74 0 11.96 5.9 22.86 19.3 22.86 12.6 0 17-9.9 17.4-11.9l-9.3-3.5c-.7 3.5-3.7 6-7 6-5.6 0-6.7-6.5-6.7-10.27h23.7v-2.97c0-11.35-4.8-22.96-18.1-22.96m5.1 17.58h-10.7c0-4.08 1.5-8.75 5.6-8.75 4.8 0 5.1 4.71 5.1 8.75m148.1 20.02V85.59c0-9.65-8.9-13.28-17.5-13.28-7.8 0-15.5 3.45-17 12.06l12.2 2.52c0-2.56 1.1-5.72 4.5-5.72 2.6 0 3.7 1.71 3.7 4.31v3.75c-9.3 1.07-22.3 4.41-22.7 15.67 0 8 5.2 12.8 12.3 12.8 4.1 0 8.2-2.3 10.7-4.8 0 .7 0 2.7.4 3.9h14.5c-.4-.6-1.1-2.1-1.1-7m-14.1-4.1c-1.1 1.6-3 2.7-4.5 2.7-2.6 0-4.1-1.5-4.1-4.6 0-5.49 3.8-7.34 8.6-7.82zM54.5 84.77v-.48c4.4-1.74 10.1-6.01 10.1-14.06 0-8.54-7.3-15.1-18.2-15.1H22v61.67h23.8c11.7 0 20.2-5.9 20.2-16.5 0-7.85-4.9-13.34-11.5-15.53m-17.3-18.7h5.4c3.6 0 7.6.93 7.6 6.83 0 3.67-2.3 6.68-7.9 6.68h-5.1zm5.7 39.33h-5.7V90h5.7c5 0 7.9 3.05 7.9 7.65 0 6.25-4.5 7.75-7.9 7.75m115.8 11.4h14.1v-15.6l2.9-3.33 6.9 18.93h14.6l-11.8-30.06 11.7-13.39h-14l-10.3 13.17V55.13h-14zm-18.4-44.49c-5.4 0-9.3 2.52-12.2 5.49h-.4v-4.45h-13.8v43.45H128V85.74c1.3-1.63 3-2.71 4.6-2.71 2.3 0 3.2 1.37 3.2 3.86v29.91h14V82.44c0-5.98-3.5-10.13-9.6-10.13m-34.3 13.28c0-9.65-8.8-13.28-17.2-13.28-8 0-15.8 3.45-17.4 12.06l12.3 2.52c0-2.56 1.2-5.72 4.6-5.72 2.4 0 3.6 1.71 3.6 4.31v3.75c-9.3 1.07-22.1 4.41-22.3 15.67-.4 8 5.1 12.8 12 12.8 4.2 0 8.4-2.3 10.8-4.8 0 .7 0 2.7.4 3.9h14.5c-.5-.6-1.4-2.1-1.4-7V85.59zM91.8 105.7c-1.2 1.6-2.9 2.7-4.5 2.7-2.5 0-4.1-1.5-4.1-4.6 0-5.49 3.7-7.34 8.6-7.82zm163.9-37.21v4.86h-5.8v9.9h5.8v33.55h14V83.25h7.7v-9.9h-7.7v-4.42c0-2.64 1.3-4.08 5-4.08.8 0 1.8 0 2.7.37V54.44c-2.3-.26-4.4-.53-7.2-.53-9.2 0-14.5 3.9-14.5 14.58M227 72.2c-13.1 0-19.6 9.64-19.6 22.63 0 13.47 6.3 22.97 19.6 22.97 13.4 0 19.6-9.5 19.6-22.97 0-12.99-6.5-22.63-19.6-22.63m0 36.7c-3.5 0-5-3.1-5-14.07 0-10.06 1-13.8 5-13.8s5 3.74 5 13.8c0 10.97-1.5 14.07-5 14.07"/></svg>