<svg xmlns="http://www.w3.org/2000/svg" viewBox="0 0 1762 331.07"><path d="M922.52 35v79.17h-80.03v104.34h52.84c.86-.73 1.06-1.79 1.06-2.48l-3.28-42.39c-.1-1.07-.73-1.2-1.35-.47L879.51 186c-.86.87-2.4-.56-1.93-1.69l13.92-27.2c.71-1.5 3.95-4.22 5.49-4.68l10.16-2.52c1.68-.46 2.95-1.18 3.71-1.72l9.66-8.59c1.7-1.19 1.8-1.47 2.4-4.17l7.3-52.27c.7-4.43 2.6-6.02 6.3-7.05 3-.83 7.4-1.68 15.4-2.04 0 0 4.5.1 6.7.14 6.3.15 7.8 5.13 8.1 6.79.3 1.65 7 47.27 7 47.27.3 1.32.8.46 1-.1.1-.52.9-4.63 1-5.36 0 0 5.6-23.32 6.3-26.45.9-3.91 4.3-5.54 6.6-5.8 1.9-.19 11.38-.81 13.78-.76 2.4.1 5.5 1.55 7 5.03l17.6 43.07c.7 1.42 1.9 1.04 2.7 1.11l15.9.77c.9.1 2.5 0 3.3.34l15.2 3.14c.8.25 3.1 1.24 4 4l4.2 13.84c1.5 3.64 1.6 4.16 1.2 8.27l-1.1 14.33c-.2 3.88-1.6 3.88-1.8.15l-2.5-14.77c-.2-1.11-.5-.58-.5 0v49.42h35.3V114.17h-79.5V35zm25.9 10.51c6 0 9.1 7.25 9.1 11.67 0 4.06-2.5 12.96-8.4 12.96s-9.2-8.1-9.2-12.56c0-5.9 3.4-12.07 8.5-12.07zm46 20.86c4.5 0 7.88 5.1 7.88 12.44 0 4.2-3.98 9.17-6.98 9.17h-.1c-3 0-8.1-3.38-8.1-11.14 0-4.46 2.7-10.47 7.3-10.47zm188.28 13.44v138.44h21v-60.47h56.2v60.47h21V79.81h-21v59.11h-56.2V79.81zm339.3 0v111.22c0 14.58 8.1 27.22 27 27.22h12.2v-16.92h-8.7c-8 0-10.7-3.89-10.7-11.47V79.81zm127.5 0v138.44h19.8v-60.47c0-14.78 9-21.58 20.1-21.58 11 0 19.8 6.61 19.8 21.58v60.47h19.8v-63.58c0-21.39-12.2-36.16-34.2-36.16-9.7 0-18.7 3.68-25.5 11.07V79.81zM33 80.16V218.6h56c24.5 0 41.79-13.61 41.79-39.1 0-17.49-10.1-27.79-20.8-32.07 9.34-3.69 18.67-14.39 18.67-29.36 0-23.32-16.14-37.91-41.8-37.91zm1552.4 11.31v29.95h-11.3v15.17h11.3v54.25c0 14.19 8.5 27.41 27 27.41h11.8v-16.92h-8.1c-7.4 0-10.9-4.27-10.9-11.47v-53.27h19v-15.17h-19V91.47zm-1134.37.35v29.95h-11.27v15.17h11.27v54.25c0 14.19 8.56 27.41 27.03 27.41h11.86v-16.92h-8.16c-7.39 0-10.89-4.27-10.89-11.47v-53.27h19.05v-15.17h-19.05V91.82zm168.55 0v29.95h-11.27v15.17h11.27v54.25c0 14.19 8.56 27.41 27.03 27.41h11.86v-16.92h-8.16c-7.39 0-10.89-4.27-10.89-11.47v-53.27h19.05v-15.17h-19.05V91.82zM54 99.02h31.11c13.41 0 22.56 7 22.56 19.84 0 12.83-9.14 19.83-22.56 19.83H54zm908.92 6.14c-.3 0-.4 1.46-.3 2.46l4 121.38h-5.9l-10-82.58c-.5-3.42-1.3-1.83-1.3-.27l-6.6 71.25-.2 1.91-5.5-.27-2.2-108.14c-.1-2.24-.6-1.83-1.1-.25l-8 29.74c-.5 1.61-1.6 3.41-2.3 4.34l-9.5 11.79c-1.3 1.43-1.2 2.72-.8 4.44l8.6 57.54h.4v18.73h101.18V218.5h24l-3.1-68.04c0-2.09-1-2.75-2-3.13l-16.1-4.98c-2.3-.51-3.5-2.64-4.1-3.93 0 0-11.2-23.87-11.9-22.93-.5.69-.6 53.73-.6 53.73l-1.6 48.26v1.29l-3.1.13-.2-1.39c-.9-7.59-5.08-44.32-5.58-47.5-.5-3.57-1.5-4.79-1.8.27-.3 5.03-3 58.72-3 58.72h-3.6l-4.8-58.47s-.6-53.9-1.1-54.68c-1-1.3-11.7 26.89-11.7 26.89-.7 1.19-1.4.79-1.7 0l-8.1-36.43c-.2-.82-.3-1.14-.4-1.15zm388.48 13.34c-25.2 0-41.8 18.47-41.8 50.35 0 37.53 19.7 50.56 44.4 50.56 17.3 0 26.8-5.25 36.9-15.36l-12.6-11.86c-7 7-12.9 10.11-23.9 10.11-16.2 0-25.1-10.69-25.1-27.61h63.9v-8.74c0-28-15.3-47.44-41.8-47.44zm100 0c-16.3 0-26.1 3.31-35.4 14.2l13 12.25c5.5-7 10.7-9.53 21.6-9.53 15.4 0 21.6 6.02 21.6 18.47v7h-26.1c-22.5 0-34 11.86-34 28.39 0 8.36 2.7 15.94 7.8 21.19 6 6.03 14.2 8.94 26.4 8.94 12.3 0 19.1-2.91 26.3-10.11v8.95h19.4v-65.92c0-22.36-13.6-33.83-40.6-33.83zm-1259.94.35c-16.34 0-26.06 3.31-35.39 14.2l13.03 12.25c5.45-7 10.7-9.53 21.59-9.53 15.36 0 21.58 6.02 21.58 18.47v7h-26.06c-22.56 0-34.03 11.86-34.03 28.39 0 8.36 2.73 15.94 7.78 21.19 6.03 6.03 14.19 8.94 26.44 8.94 12.25 0 19.06-2.91 26.25-10.11v8.95h19.44v-65.92c0-22.36-13.61-33.83-40.63-33.83zm194.63 0c-20.6 0-37.13 10.89-37.13 30.14 0 17.31 10.69 25.66 29.16 27.22l15.75 1.36c9.53.77 13.23 5.05 13.23 11.66 0 9.33-9.54 13.61-21.59 13.61-9.72 0-20.42-2.14-28.39-10.3l-13.03 13.03c11.67 11.47 25.29 14.19 41.42 14.19 23.53 0 41.02-10.69 41.02-31.31 0-17.51-10.89-26.25-29.36-27.81l-15.55-1.36c-10.51-.97-13.61-5.45-13.61-11.28 0-7.39 6.02-12.63 17.88-12.63 9.34 0 18.09 1.95 24.31 7.19l12.45-12.63c-9.14-7.97-21.78-11.08-36.56-11.08zm160 0c-16.33 0-26.06 3.31-35.38 14.2l13.02 12.25c5.45-7 10.7-9.53 21.59-9.53 15.36 0 21.58 6.02 21.58 18.47v7h-26.05c-22.57 0-34.03 11.86-34.03 28.39 0 8.36 2.72 15.94 7.77 21.19 6.03 6.03 14.2 8.94 26.45 8.94 12.24 0 19.05-2.91 26.24-10.11v8.95h19.45v-65.92c0-22.36-13.62-33.83-40.64-33.83zm173.4 0c-25.27 0-41.8 18.47-41.8 50.35 0 37.53 19.64 50.56 44.33 50.56 17.31 0 26.83-5.25 36.94-15.36l-12.63-11.86c-7 7-12.84 10.11-23.92 10.11-16.13 0-25.08-10.69-25.08-27.61h63.96v-8.74c0-28-15.36-47.44-41.8-47.44zm-471.06 1.17l34.41 93.91-5.44 15.36c-2.92 7.98-5.84 10.5-14.2 10.5h-5.06v17.9h7.98c7.59 0 14.77-1.75 20.22-7.2 2.92-2.92 5.26-6.8 7.2-12.25l43.55-118.22H315.9l-22.94 69.41-23.53-69.41zm810.47 2.4c3.8 0 5.6 3.95 5.6 7.23 0 3.26-2.2 10.21-8 10.21-1.8 0-5-2.75-5-6.95 0-4.46 3.6-10.49 7.4-10.49zm-158.34 8.92c3.12 0 6.39 3.42 6.39 8.92 0 5.49-3.63 8.53-6.12 8.53s-6.26-2.5-6.26-9.7c0-3.56 2.84-7.75 5.99-7.75zm450.84 3.69c9.4 0 16.4 5.06 19.5 12.45 1.9 4.47 2.5 7.39 2.7 13.42h-44.3c.2-6.03.6-8.95 2.5-13.42 3.1-7.39 10.3-12.45 19.6-12.45zm-631.9.35c9.33 0 16.33 5.05 19.44 12.44 1.95 4.47 2.54 7.39 2.73 13.42h-44.33c.19-6.03.59-8.95 2.53-13.42 3.1-7.39 10.3-12.44 19.63-12.44zM54 157.55h33.05c14.59 0 22.75 8.74 22.75 21 0 12.24-8.16 21.19-22.75 21.19H54zm1395 17.15h23.2v7.97c0 7.01-1.4 11.67-4.3 14.59-5.2 5.05-10.9 5.64-18.5 5.64-12.4 0-18.1-5.06-18.1-14.01 0-8.94 6.1-14.19 17.7-14.19zm-1259.87.35h23.14v7.97c0 7.01-1.37 11.67-4.28 14.59-5.25 5.05-10.89 5.64-18.47 5.64-12.45 0-18.09-5.06-18.09-14.01 0-8.94 6.04-14.19 17.7-14.19zm354.62 0h23.14v7.97c0 7.01-1.37 11.67-4.28 14.59-5.25 5.05-10.89 5.64-18.47 5.64-12.45 0-18.08-5.06-18.08-14.01 0-8.94 6.03-14.19 17.69-14.19zm513.35 6.23c-.2 0-.4.2-.4.54l-5.9 36.69h14.1l-7.3-36.83c-.1-.3-.3-.43-.5-.4zm-153.06 1.95c-.33 0-.59.48-.59 1.21l-3.67 32.88c0 .43 0 .83.14 1.2h15.2c.4-.6.7-1.28.5-1.7l-10.47-32.52c-.34-.79-.77-1.12-1.11-1.07zm190.76 37.07c-4.3 0-8.1 3.3-8.1 8.24 0 4.69 3.4 8.24 8.1 8.24 4.3 0 8-3.29 8-8.24 0-4.94-3.7-8.24-8-8.24zm0 1.46c3.5 0 6.3 2.78 6.3 6.78 0 4.03-2.8 6.81-6.3 6.81-3.9 0-6.3-3.05-6.3-6.81 0-4 2.7-6.78 6.3-6.78zm-3.2 2.38v9.11h1.6v-3.9h1.3l2.4 3.9h1.7l-2.6-4.01c1.4-.16 2.4-.82 2.4-2.48 0-1.85-1.1-2.62-3.3-2.62zm1.6 1.27h1.8c.9 0 1.9.13 1.9 1.25 0 1.3-1 1.43-2.1 1.43h-1.6zM922.42 242.8v16.98h100.88V242.8zm0 26.43v11.46h100.88v-11.46zm0 25.05v5.8h100.88v-5.8z"/></svg>