<svg xmlns="http://www.w3.org/2000/svg" viewBox="0 0 634 231"><path fill-rule="evenodd" clip-rule="evenodd" d="M526.725 23.988c14.112 0 16.806 3.505 21.756 18.302L603 203.632h-48.578l-11.842-38.777h-65.378l-11.785 38.79h-28.033l55-179.69 34.34.033zm7.754 114.552h-49.404l24.533-81.968 24.87 81.968zM251.502 203.69h-75.477V23.93h78.228c36.673 0 49.453 29.89 30.88 57.473l-8.775 13.016c61.523 31.954 41.518 109.27-24.856 109.27zm-8.97-100.664l14.986-22.378c3.79-5.603 4.595-9.13 4.595-13.058 0-10.98-9.662-20.204-20.78-20.204H218.29v132.17h12.767c21.363 0 37.58-11.544 37.58-38.556 0-22.29-10.466-34.19-26.106-37.974zM99.484 203.69H24V23.93h78.235c36.666 0 49.454 29.89 30.878 57.473L124.34 94.42c61.524 31.954 41.523 109.27-24.856 109.27zm-8.977-100.664L105.5 80.648c3.79-5.603 4.59-9.13 4.59-13.058 0-10.98-9.65-20.204-20.767-20.204H66.278v132.17h12.76c21.372 0 37.58-11.544 37.58-38.556 0-22.29-10.46-34.19-26.11-37.974zM430.056 23.93h28.37l-54.773 179.697-43.128-.025-58.752-179.647 31.748-.026c12.262 0 15.482 3.163 21.89 23.513l34.02 112.973L430.055 23.93z"/></svg>