<svg xmlns="http://www.w3.org/2000/svg" viewBox="0 0 634 310"><path d="M285.41 130.38c-3.666 0-5.474 1.464-5.474 4.36v70.147c0 17.143 11.646 25.73 34.994 25.73 18.537 0 32.662-5.192 42.363-15.542 8.586-9.146 12.85-21.308 12.85-36.6 0-14.892-5-26.65-14.957-35.222-10-8.58-24.312-12.874-43.012-12.874m44.515-8.6c37.776 6.23 56.638 25.79 56.638 58.637 0 18.822-7.48 33.95-22.432 45.366-14.982 11.435-34.418 17.123-58.305 17.123-8.692 0-74.778.33-92.17.33V23.095c11.602 0 39.56 1.118 54.557.937 80.667-.938 104.113 17.546 104.113 52.63 0 21.956-14.127 36.972-42.4 45.116m-76.754-12.85c0 4.892.663 7.873 2 8.94 1.34 1.04 5.093 1.58 11.292 1.58h5.703c39.12 0 58.693-13.576 58.693-40.72 0-28.95-17.6-43.41-52.78-43.41-9.434 0-15.75.903-19.003 2.687-3.944 2.21-5.904 6.837-5.904 13.837v57.086zM504.975 101.704c10.123 0 19.766 1.292 28.936 3.9 12.25 3.473 18.362 8.39 18.362 14.74 0 16.52-3.66 24.77-10.965 24.77-3.604 0-7.234-2.98-10.973-8.953-.393-.69-1.076-1.9-1.988-3.59-8.916-15.32-18.082-22.973-27.537-22.973-14.368 0-25.6 7.727-33.706 23.164-6.11 11.79-9.16 23.956-9.16 36.53 0 15.645 4.037 28.956 12.152 39.93 8.56 11.582 20.447 18.247 35.69 20.016 2.77.32 11.915 1.297 31.065-5.433 4.33-1.518 8.052-3.733 12.134-5.668 2.043-.998 6.205-1.705 6.78 1.482.618 3.414-2.345 7.078-4.585 9.27-3.63 3.556-16.185 15.29-48.898 17.663-1.455.122-2.875.147-4.293.147-24.743 0-44.036-7.564-57.868-22.708-12.107-13.17-18.164-29.37-18.164-48.673 0-20.38 6.842-37.354 20.57-50.892 15.156-15.137 35.992-22.72 62.447-22.72M566.77 108.492s9.69.52 16.76 1.086c9.677.746 15.56.88 15.56.88l.216 132.674h-32.54M566.815 75.75c0-9.868 7.04-17.87 15.748-17.87s15.748 8.002 15.748 17.87c0 9.828-7.038 17.825-15.747 17.825s-15.748-7.997-15.748-17.825M241.594 279.126c.29 3.085 2.623 4.23 5.506 4.23 2.02 0 5.56-.42 5.408-3.21-.133-2.838-4.047-3.147-7.962-4.02-3.96-.87-7.8-2.29-7.8-7.227 0-5.33 5.736-6.98 10.167-6.98 4.99 0 9.51 2.082 10.173 7.5h-5.61c-.47-2.54-2.588-3.246-4.94-3.246-1.557 0-4.426.373-4.426 2.49 0 2.628 3.944 3.006 7.913 3.9 3.896.894 7.854 2.288 7.854 7.1 0 5.817-5.836 7.924-10.875 7.924-6.11 0-10.684-2.74-10.787-8.463M274.833 283.355c-4.814 0-6.936-4.392-6.936-8.626 0-4.186 2.122-8.557 6.936-8.557 4.81 0 6.9 4.37 6.9 8.556 0 4.234-2.09 8.625-6.9 8.625m0 4.234c7.805 0 12.284-5.38 12.284-12.86 0-7.436-4.48-12.81-12.284-12.81-7.825 0-12.305 5.373-12.305 12.81 0 7.48 4.48 12.86 12.305 12.86M293.282 262.588h5.08v3.37h.132c1.61-2.388 3.64-4.038 7.5-4.038 2.967 0 5.732 1.272 6.81 4.037 1.812-2.476 4.125-4.037 7.646-4.037 5.123 0 8.145 2.27 8.145 8.208v16.783h-5.354v-14.2c0-3.854-.26-6.536-4.435-6.536-3.63 0-5.192 2.392-5.192 6.474v14.264h-5.354v-15.62c0-3.33-1.037-5.117-4.294-5.117-2.775 0-5.33 2.268-5.33 6.287v14.45h-5.353M347.107 283.355c-4.8 0-6.932-4.392-6.932-8.626 0-4.186 2.13-8.557 6.932-8.557 4.783 0 6.914 4.37 6.914 8.556 0 4.234-2.13 8.625-6.913 8.625m0 4.234c7.805 0 12.283-5.38 12.283-12.86 0-7.436-4.48-12.81-12.283-12.81-7.826 0-12.305 5.373-12.305 12.81 0 7.48 4.48 12.86 12.305 12.86M369.607 279.126c.29 3.085 2.633 4.23 5.506 4.23 2.01 0 5.55-.42 5.404-3.21-.123-2.838-4.033-3.147-7.957-4.02-3.95-.87-7.795-2.29-7.795-7.227 0-5.33 5.73-6.98 10.162-6.98 4.99 0 9.51 2.082 10.172 7.5h-5.6c-.478-2.54-2.605-3.246-4.952-3.246-1.562 0-4.426.373-4.426 2.49 0 2.628 3.96 3.006 7.895 3.9 3.924.894 7.883 2.288 7.883 7.1 0 5.817-5.846 7.924-10.875 7.924-6.13 0-10.693-2.74-10.777-8.463M393.627 274.774c0-5.025 2.283-10.35 7.947-10.35 6.303 0 8.527 5.324 8.527 10.35 0 5.044-2.224 10.364-8.526 10.364-5.664 0-7.947-5.32-7.947-10.364m19.426-21.474h-2.95v13.954h-.105c-1.27-3.502-4.803-5.334-8.424-5.334-7.396 0-10.93 6.007-10.93 12.854 0 6.897 3.533 12.855 10.93 12.855 3.527 0 7.393-2.147 8.66-5.32h.094v4.602h2.725V253.3zM420.46 286.91h2.958v-24.283h-2.957v24.284zm0-28.846h2.958v-4.773h-2.957v4.774zM440.178 265.107h-4.805v21.804h-2.963v-21.803h-4.154v-2.48h4.154v-2.2c-.053-4.22 1.145-7.127 5.88-7.127l2.49.182v2.568l-2.16-.25c-3.292 0-3.192 2.082-3.247 4.7v2.127h4.805M465.13 275.585c.22-6.833-2.88-13.665-10.69-13.665-7.726 0-10.968 6.454-10.968 12.854 0 6.916 3.242 12.855 10.97 12.855 6.124 0 9.306-3.194 10.59-8.72h-2.974c-.943 3.674-3.29 6.23-7.617 6.23-5.698 0-7.956-5.223-8-9.555m0-2.495c.46-4.426 3.147-8.665 8-8.665 4.804 0 7.585 4.185 7.722 8.665H446.44zM470.812 262.627h2.73v5.708h.098c1.514-3.91 4.82-6.21 9.19-6.018v2.938c-5.378-.275-9.038 3.684-9.038 8.73v12.927h-2.98M506.94 275.585c.23-6.833-2.88-13.665-10.694-13.665-7.717 0-10.97 6.454-10.97 12.854 0 6.916 3.253 12.855 10.97 12.855 6.12 0 9.328-3.194 10.6-8.72h-2.977c-.935 3.674-3.292 6.23-7.624 6.23-5.703 0-7.953-5.223-8.002-9.555m0-2.495c.463-4.426 3.145-8.665 8.002-8.665 4.803 0 7.578 4.185 7.727 8.665h-15.73zM512.578 262.627h2.96v4.21h.1c1.08-2.938 4.347-4.917 7.776-4.917 6.822 0 8.88 3.586 8.88 9.372v15.62h-2.956v-15.16c0-4.188-1.365-7.327-6.176-7.327-4.715 0-7.523 3.58-7.623 8.33v14.156h-2.962M544.31 262.627h4.946v2.48h-4.947v16.39c0 1.94.284 3.086 2.41 3.233l2.536-.147v2.524l-2.648.104c-3.934 0-5.305-1.315-5.27-5.48v-16.623h-4.224v-2.48h4.225v-7.31h2.97M575.666 275.585c.25-6.833-2.88-13.665-10.674-13.665-7.73 0-10.988 6.454-10.988 12.854 0 6.916 3.258 12.855 10.988 12.855 6.11 0 9.322-3.194 10.596-8.72h-2.982c-.937 3.674-3.3 6.23-7.613 6.23-5.713 0-7.97-5.223-8.006-9.555m0-2.495c.46-4.426 3.157-8.665 8.005-8.665 4.795 0 7.57 4.185 7.713 8.665h-15.72zM595.912 269.75c-.137-3.66-2.96-5.325-6.36-5.325-2.622 0-5.73 1.036-5.73 4.185 0 2.643 3.005 3.576 5.028 4.102l3.96.9c3.384.515 6.934 2.514 6.934 6.723 0 5.266-5.246 7.295-9.766 7.295-5.648 0-9.498-2.628-9.98-8.566h2.98c.226 4.003 3.19 6.076 7.138 6.076 2.8 0 6.644-1.22 6.644-4.617 0-2.81-2.643-3.772-5.324-4.396l-3.807-.87c-3.86-1.046-6.794-2.382-6.794-6.503 0-4.936 4.867-6.832 9.14-6.832 4.85 0 8.716 2.544 8.91 7.83M24.018 212.948c7.53-22.39 28.98-34.903 47.615-47.065 13.758-8.98 27.797-17.5 41.692-26.25 5.015-3.142 9.937-6.375 14.917-9.518 11.823-7.456 21.225-18.268 28.052-30.33 3.458-6.146 6.312-12.512 9.077-18.99 3.847-8.94 6.937-20.63 16.318-25.247 6.71-3.276 15.443-1.493 20.526 3.915 4.962 5.285 6.11 13.02 4.774 19.937-2.81 14.622-11.238 27.83-21.867 38.027-6.242 5.987-13.296 10.418-20.673 14.814a3152.523 3152.523 0 0 1-29.373 17.267c-12.924 7.56-25.71 14.745-37.792 23.6-12.182 8.92-23.347 18.725-33.804 29.575-7.75 8.04-12.614 17.624-17.747 27.433-1.86 3.56-3.643 8.71-7.003 11.184-2.358 1.688-6.238 2.16-8.763.643-9.002-5.437-8.363-20.448-5.946-28.995M184.852 219.24c-6.13-4.7-3.998-13.228-4.416-19.912-.5-7.978-1.964-16.765-5.477-24.01-3.817-7.834-12.438-9.588-19.26-13.793-6.425-3.964-5.904-11.91.653-15.428 13.58-7.255 29.29 1.493 36.563 13.385 4.554 7.44 7.393 16.042 10.104 24.284 2.78 8.438 6.435 19.318 2.078 27.772-3.437 6.686-13.374 12.958-20.246 7.702"/><path d="M133.46 148.534c-31.093-12.373-63.482-36.142-66.925-72.26-.87-9.184.668-18.497 3.08-27.368 2.028-7.46 4.347-15.443 8.06-22.25 6.47-11.878 22.025-14.496 33.01-7.005 12.893 8.817 4.798 24.732 1.684 36.545-2.084 7.894-3.916 16.013-5.232 24.078-1.302 7.99-1.513 16.22 1.135 23.975a37.498 37.498 0 0 0 11.308 16.56c5.85 4.89 13.376 7.426 20.198 10.618 4.735 2.21 14.304 5.457 11.268 12.545-2.876 6.68-11.805 6.096-17.586 4.564M62.67 236.112c-.772-2.854.166-6.645.986-9.395.373-1.292.894-2.702 1.58-4.25 4.304-9.926 10.636-17.073 16.054-22.51 5.412-5.44 11.892-10.812 18.448-14.81 12.104-7.412 30.822-17.914 37.443-20.247 9.717-3.354 15.602.58 15.602.58s14.652 9.995 15.487 31.75c.805 21.74-14.29 29.678-14.29 29.678s-10.31 6.67-35.007 11.788c-14.82 3.085-29.918 5.123-44.438 4.25-8.33-.502-11.075-3.85-11.866-6.834"/></svg>