<svg xmlns="http://www.w3.org/2000/svg" viewBox="0 0 1082 431.7"><path d="M358.6 409.2c-1.3-.2-1.4-.6-1.4-3.9 0-3 .2-3.5 1.2-3.5.7 0 1.7-.5 2.3-1.2 1-1.1.8-1.9-3-12.7-2.2-6.3-4.4-11.9-4.9-12.5-.5-.6-.9-2.5-.9-4.4v-3.4H367v3.6c0 1.9-.3 3.6-.6 3.6-1 0-.7 2.5.6 6.2 1.3 3.7 1.6 3.5 2.7-1.9.7-3 .7-4 .1-4.2-.5-.1-.8-1.6-.8-3.8v-3.5h12.5v3.8c0 2.1-.2 4.1-.6 4.4-.3.4-2.2 6.4-4.3 13.5-2.1 7-4.4 14.1-5.3 15.5-2.3 4-6.8 5.5-12.7 4.4zm409-4c.7-2.4.7-9.9.7-16.6 0-6.7 0-14.1-.7-16.6v-4.4h6c3.9 0 6.5.2 6.5.5 0 .4 1.4.2 2-.3 5.3-2.1 11.9-.5 13.2 3.2 1.3 3.1.6 21.7-.7 24.3-1.3 3.5-7.2 4.8-11.8 2.9-2.7-1.3-2.7-1.3-2.7 1.1.7 1.2.7 4 1.4 6.2v4.2H767.6zm16.5-15.4c.6-.5.6-3 .6-6.5 0-6.3-.6-8-3.2-7.4-1.4.3-1.4.9-1.4 7.1 0 6.7 0 7.4 2.7 7.5 0 .1.6-.2 1.3-.7zm-534.3 8.4c-5.7-2-6.6-4.5-6.3-16.6.2-7.6.4-8.9 1.6-10.6 2.3-3.1 4.5-3.8 12.1-3.8 5.7 0 7.3.2 9.2 1.3 3.4 2.1 4.6 5 4.6 11.4v5.4h-15.8v2.9c0 2.1.3 3.1 1.1 3.3 1.4.6 2.9-.7 2.9-2.6 0-1.5.1-1.6 5.9-1.6h5.9v4c0 3.3-.2 4-1.4 4.8-4.2 2.7-14.9 3.8-19.8 2.1zm9.2-21.6c-.1-1.8-.4-2.1-1.8-2.1s-1.7.3-1.9 2.1c-.1 2 0 2.1 1.9 2.1s2-.1 1.8-2.1zm21 21.6c-5.6-2-6.6-4.5-6.2-16.6.2-7.6.4-8.9 1.5-10.6 2.3-3.1 4.5-3.8 12.1-3.8 11.2 0 13.3 1.9 13.7 11.9l.3 6.2h-15.9v2.9c0 2.1.3 3.1 1 3.3 1.5.6 2.9-.7 2.9-2.6 0-1.5.2-1.6 5.9-1.6h6v4c0 3.3-.2 4-1.5 4.8-4.1 2.7-14.9 3.8-19.8 2.1zm9.3-21.6c-.1-1.8-.5-2.1-1.9-2.1-1.3 0-1.7.3-1.8 2.1-.2 2-.1 2.1 1.8 2.1 2 0 2.1-.1 1.9-2.1zm153.1 21.6c-3.7-1.5-3.9-2.4-4.4-12.8-.3-5.3-.7-11.5-1-13.8l-.4-4h12.5l.3 10.8c.2 11.3.5 12.5 3.2 12 .7-.1.9-1.4.8-7.4-.1-4-.3-9.1-.5-11.4l-.5-4h12.7v10.3c0 8 .2 10.9.9 12.3.6 1 1 3.3 1 5.1v3.2h-6.2c-4.2 0-6.3-.3-6.4-.8-.2-.5-1.1-.5-3 .3-3.3 1.4-6.3 1.4-9 .2zm34.6.2c-1.6-.2-3.9-1.2-5.1-1.9-2.2-1.4-2.2-1.5-2.2-5.6v-4.3h11.1v2c0 2.1 1.4 3.5 2.9 2.9 3.4-1.3.8-4.5-4.8-5.8-6-1.6-7.9-2.7-9-5.4-2.3-5.5.6-11.2 6.4-12.7 4.1-1.2 11.4-.6 15.5 1.3l3.5 1.4v7.8h-5.2c-4.9 0-5.2-.1-5.4-1.4-.2-.8-.8-1.8-1.4-2.2-1-.6-1.4-.4-2.2.6-.9 1.1-.8 1.4.2 2.4.7.6 3.2 1.6 5.8 2.2 2.5.6 5.3 1.6 6.2 2.3 3.9 2.8 4.2 10.2.7 13.7-3.1 3.1-9.7 4.2-17 2.7zm78.7 0c-1.4-.4-3.4-1.7-4.5-2.9l-1.9-2.3v-9.9c0-11.1.5-12.9 4.1-14.9 1.6-.9 3.7-1.2 9.3-1.2 6.4 0 7.5.2 9.6 1.5 3.3 2 3.9 3.9 3.9 10.7v5.9h-15.8v2.2c0 4.5 3.6 6 4.4 1.8l.4-2h11v8.4l-3.5 1.5c-3.9 1.7-13 2.4-17 1.2zm9.1-20.7c.6-1.3-.5-3.2-1.9-3.4-1.2-.3-2.7 2.1-2.2 3.5.5 1.3 3.6 1.2 4.1-.1zm22.1 20.8c-1.6-.3-3.8-1.2-5-1.8-1.9-1.2-2.1-1.5-2.3-5.6l-.2-4.5h11.3v2.3c0 2.3 1.1 3.3 3 2.6 1.1-.4 1.3-3.1.1-4.1-.5-.4-2.8-1.1-5.2-1.7-6-1.6-8.2-3.1-9.2-6.2-1.6-5.6 1.2-10.4 6.8-11.9 3.9-1.2 11.4-.5 15.6 1.3l3.4 1.4v7.8H600c-4.9 0-5.3-.1-5.5-1.4-.3-2.1-2.2-3.2-3.5-1.8-1.6 1.5-.5 3.1 2.6 3.8 10.2 2.5 12.5 4.3 12.5 10.1 0 6.8-3.5 9.8-11.8 10.1-2.6.1-5.9-.1-7.4-.4zm28.7-.2c-1.7-.5-3.9-1.4-4.8-2-1.6-1-1.7-1.6-1.7-5.4v-4.3h5.3c5 0 5.2.1 5.2 1.6 0 .8.4 2.1 1 2.8.7 1 1.1 1.1 2.1.5.7-.4 1.3-1.3 1.4-2.1.3-1.7-1.9-2.8-7.4-4.1-2.9-.6-4.5-1.4-6.1-3-2.2-2.2-2.3-2.4-2-6.2.3-5 2.4-7.4 7.3-8.6 4.5-1.1 11.7-.4 15.5 1.5 3 1.5 3 1.5 3.2 5.3l.2 3.8h-5.1c-5.2 0-5.2 0-5.9-2.1-.9-2.2-2.5-2.4-3.8-.4-1 1.6 0 2.4 4.6 3.5 8.9 2.3 10.8 4.1 10.8 10.4 0 4-1.4 6.4-4.7 8.1-2.8 1.4-11.3 1.8-15.1.7zm47.3-.1c-1.5-.5-3.3-1.6-4.3-2.5-3.1-2.8-3.4-4.7-3.4-18.4 0-15.1.5-17.3 5.4-19.7 5.4-2.8 15.2-2.4 22.2.8l2.6 1.4v11.7h-12.5V369c0-3.2-.8-4.3-2.7-3.9l-1.6.1v24.4l1.6.2c2.1.3 2.7-.8 2.7-5.3v-3.8h12.5v7.2c0 6.8 0 7.2-1.3 8.2-4.6 2.9-15.9 4-21.2 2.1zm33.7.3c-6.6-1.6-7.2-3.8-7.2-16.1 0-10.4 0-11.8 3.9-14 3.3-1.8 15.8-1.7 19.1.1 3.3 2.1 3.9 4.3 3.9 14.7 0 10.2-.6 12.3-4.6 14.4-2.6 1.3-11.2 1.8-15.1.9zm7.9-8.3c1.3-2.7.6-13.6 0-15.1-1.3-1-1.3-1.2-2.6-.6-.7.7-1.4 1.9-1.4 8.2 0 7.4.7 9.2 2.7 9.2 0 0 .6-.8 1.3-1.7zm99.3 7.7c-.6-.7-2-1.6-2.6-2.2 0-.4-.7-5-.7-10-.6-5.1-.6-11.3-1.3-13.7v-4.5l5.9.2 6.6.2v10.6c.7 11.2.7 12.6 3.3 11.8 1.3-.4 1.3-.8 1.3-7.1-.6-3.7-.6-8.7-1.3-11.2v-4.4h12.5v10.9c.7 6.2.7 13.1 1.3 15.5v4.5h-5.9c-4 0-6.6-.3-6.6-.7 0-.4-1.3-.3-2.6.4-3.3 1.3-7.3 1.2-9.9-.3zm33.6.3c-4.6-1.5-5.3-3.2-5.3-15 0-5.1 0-8.4-.7-8.4-.6 0-.6-1.7-.6-3.6 0-2 0-3.6.6-3.6 0 0 .7-1.4.7-3.1l.7-3.1 5.2-1.5c2.7-.8 5.3-1.6 5.3-1.6.6 0 .6 2.1.6 4.6v4.7h2c2 0 2 0 2 3.6 0 3.5 0 3.6-2 3.6h-2v7.2c0 7.4.7 9.3 3.3 9.3.7 0 .7.9.7 3.6 0 3.5 0 3.6-2 3.6-.6 0-2.6.1-3.9.3-1.3.2-3.3 0-4.6-.6zm19.7 0c-2-.6-3.9-1.9-4.6-3-2-2-2-2-2-11.9 0-11.1.7-12.9 4-14.9 1.9-.9 3.9-1.2 9.8-1.2 11.2 0 13.2 1.9 13.2 12.2v5.9h-15.8v2.2c0 4.5 3.3 6 4.6 1.8v-2h11.2v8.4l-3.3 1.5c-4.6 1.9-13.8 2.4-17.1 1zm9.2-21c0-2.9-2.6-4.1-3.9-1.7-1.4 2-.7 3.2 1.9 3.2 1.4 0 2-.2 2-1.5zm96.7 21.1c-5.9-2.1-6.6-3.2-6.6-15.1 0-11 .7-12.8 4-14.8 1.9-.9 3.9-1.2 9.8-1.2 6 0 7.3.2 9.2 1.5 3.3 2 4 3.9 4 10.7v5.9h-15.8v2.2c0 4.5 3.3 6 4.6 1.8v-2h11.2v8.4l-3.3 1.5c-4.6 1.8-13.8 2.4-17.1 1.1zm9.2-20.6c0-1.3-.6-3.2-2-3.4-1.3-.3-2.6 2.1-2.6 3.5.7 1.3 4 1.2 4.6-.1zm67.8 20.9c-1-.4-3-1.2-5-1.7l-2-1.2v-9.1h5c5 0 5 .1 5 1.6 0 .8 1 2.1 1 2.8 1 1 1 1.1 3 .5 2-1.8 1-4.3-4-5.5-6-1.1-10-3.1-10-5-1-2.1-1-7 0-9.2 0-.9 2-2.3 3-3.1 2-1.3 3-1.5 9-1.5s7 .2 10 1.7l3 1.6v7.6h-10l-1-2.1c0-1.5 0-1.9-2-1.7-1 .1-1 .6-1 1.8 0 1.7 1 2.3 8 4 2 .5 4 1.6 5 2.9 2 1.9 2 2.6 2 5.7 0 4.2-1 7.2-5 8.9-2 1.2-11 1.8-14 1zm-838.3-1.9c-.2-1-1.6-8.3-3-16.3-1.6-8-3-14.8-3.4-15.1-.3-.4-.6-2.5-.6-4.8v-4.1h15.8v3.6c0 2-.3 4.2-.5 4.8-.4.6-.3 3.8.1 7.4.4 3.4.9 5.8 1.1 5.2.3-.5 1.3-5.5 2.3-11l1.9-10h8.2l.6 3.4c.4 1.9 1.5 6.9 2.3 11 1.4 7 1.6 7.4 2 5 .9-6.5 1.1-10.7.5-11.1-.4-.3-.7-2.3-.7-4.5v-3.8h13.8v3.9c0 2.2-.3 4.5-.7 5.1-.3.6-1.8 7.7-3.3 15.6-1.4 8-2.8 15.2-2.9 16-.4 1.4-.7 1.5-6.6 1.5-5.9 0-6.3-.1-6.6-1.5-.2-.8-1-5.2-1.9-9.7-1.6-9-1.6-9.1-3.7 1.7-.8 3.9-1.6 7.7-1.7 8.3-.3 1.1-1.2 1.2-6.5 1.2h-6.1zm102.5-2.4c.3-2.2.5-9.8.5-16.9 0-7-.2-14.7-.5-17l-.4-4H317v10l.1 10 1.6-1.8c1.2-1.3 1.6-2.6 1.6-4.5v-2.5h13.2v3.6c0 1.9-.3 3.6-.6 3.6s-1.6 1.3-3 3l-2.4 2.9 2.4 4.8c1.4 2.6 2.9 5 3.3 5.3.6.3 1 1.8 1 4.1v3.6h-10.6l-3.2-6.5c-3.1-5.9-3.3-6.2-3.3-3.9-.1 1.3.3 2.6.6 2.8.4.2.7 2.1.7 4v3.6h-14.6zm31.9 1c0-1.8.5-4.1 1-5.1.7-1.4 1-4.4 1-12.8 0-8.3-.3-11.3-1-12.7-.5-1-1-3.3-1-5.1v-3.2h13.1l.3 16.9c.2 9.3.5 18.8.8 21l.4 4.2h-14.6zm64.5-.7c0-2.2.3-4.1.6-4.3.4-.3.7-5.3.7-12.9 0-7.5-.3-12.5-.7-12.8-.3-.2-.6-2.2-.6-4.4v-3.9l13.4.2c12.4.2 13.6.3 15.3 1.6 5.6 4.1 5.5 14.9-.1 17.5l-1.6.7 2.1 1.1c6.1 3.3 5.9 15.7-.3 19.5-1.9 1.1-3.6 1.3-15.5 1.5l-13.3.2zm18.5-5.9c1-.9 1.5-1.9 1.5-3.6 0-2.9-1.2-4.4-3.6-4.4-1.9 0-1.9 0-1.9 4.2 0 5.4.9 6.3 4 3.8zm-.4-16.5c1.5-.6 1.7-1 1.5-3.1-.1-2-.6-2.7-2-3.4-2.5-1.2-3.1-.6-3.1 3.1 0 4.2.4 4.6 3.6 3.4zm79.9 22.8c.1-2 .5-3.9 1-4.7.7-.9 1-3 1-7.3s-.3-6.4-1-7.3c-.5-.7-.9-2.7-1-4.7v-3.4h13.2v11.1c0 6.8.2 11.3.6 11.6.3.2.7 2.1.7 4.3v3.9h-14.5zm17.1 0c.1-2 .5-3.9 1-4.7.7-.9 1-3 1-7.3s-.3-6.4-1-7.3c-.5-.7-.9-2.7-1-4.7v-3.4h6.2c3.9 0 6.3.2 6.4.7.2.5 1.1.4 2.8-.4 4.5-1.9 9.7-1 12.3 2 .7.8 1 4 1.4 10.8.2 5.2.6 11.4.8 13.6l.5 4.2h-12.6v-10.1c0-8.9-.2-10.4-1.2-11.7-.9-1-1.7-1.3-2.4-1-1 .3-1.1 1.2-.8 7.5.2 3.9.5 8.9.7 11.1l.5 4.2h-14.6zm203.3-.1c0-1.9 0-3.8.6-4 .7-.2.7-3.6.7-7.9 0-4.3 0-7.6-.7-7.9-.6-.2-.6-2-.6-4v-3.5h5.9c3.9 0 6.6.2 6.6.6 0 .5 1.3.3 3.2-.3 4-1.3 6.6-1.3 9.3.2 2.6 1.3 2.6 1.3 5.2 0 5.3-2.2 11.2-1.2 13.2 2.3.6.8 1.3 5.2 1.3 10.3.7 4.9.7 10.9 1.3 13.3v4.5h-12.5v-10.9c-.6-11.3-.6-12.4-3.3-11.9-.6.1-1.3 1.5-1.3 6.9 0 4.2 0 7.1.7 7.6.6.3.6 2.4.6 4.5v3.8h-12.5v-9.7c0-10.4-.6-13-3.3-13-.6 0-.6.4-.6 7.2 0 4 0 9.1.6 11.3v4.2H719zm161.1.1c0-2 .7-3.9 1.3-4.7.7-.9.7-3 .7-7.3s0-6.4-.7-7.3c-.6-.7-1.3-2.7-1.3-4.7v-3.4h5.9c4.6 0 6.6.2 6.6.7.7.7.7.6 2-.3.7-.6 2-1.1 2.6-1.1 2 0 2 0 2 5.1v5.2l-2 .6c-1.3.4-2.6 1.3-3.3 2.3-.6 2.3-.6 8.7 0 10.2.7.8 1.4 2.7 1.4 4.7v3.5h-15.2zm39.5-.4c0-2.2 0-4.1.6-4.3.7-.3.7-5.3.7-12.9 0-7.5 0-12.5-.7-12.8-.6-.2-.6-2.2-.6-4.4v-3.8h14.5l2.6 7.7c2 4.2 3.3 8.5 3.9 9.4.7 1.7.7-2.4-.6-12.7v-4.4h13.1v4.4c-.6 2.5-.6 12-1.3 21v16.7h-12.5l-3.9-9-3.3-9-.7 4.5c0 2.5 0 4.8.7 5.2.6.3.6 2.4.6 4.5v3.8h-13.1zm71.7-3.8c-1.3-4.3-2.6-9.6-3.3-11.7-.7-2.2-1.3-5.7-2-7.8v-3.7h15v3.4c0 2 0 3.9-1.2 4.3-.6.4-.6 1.7 0 4.2l1.2 3.5 2-7.5 2-7.6 4-.2 4-.2 2 7.3c1 4 2 7 2 6.8 1-.9 1-6.8 1-6.8-1 0-1-1.4-1-3.6v-3.6h12v8.2c0 .4-1 4.7-3 9.5-1 4.9-3 9.9-3 11.1l-1 2.2-6-.2-5-.2-2-5.3c-1-5.7-1-5.7-3 1l-2 4.3-4.8.2-5.9.2zm-490.4-26.9c-3.5-3.5-1-7.5 4.8-7.5 4 0 6.1 1.5 6.1 4.5 0 4.4-7.5 6.5-10.9 3zm125.6-21.4c-42.3-3.7-77.1-18.2-102.8-43.1-12.1-11.6-20-22.8-27.7-38.6-11.3-23.3-16.5-47.3-16.5-76.1 0-68.4 26.6-116.81 78.8-143.26 24.6-12.49 51.5-18.37 88.3-19.33 33.6-.88 63.8 3.35 95.4 13.4l9.9 3.07v19.71c0 15.52 0 19.61-.7 19.35-.7-.2-4-1.58-7.2-3.08-25-11.04-57.3-16.54-84.7-14.63-30.3 2.08-50.1 9.82-67.4 26.37-5.9 5.6-12.3 13.3-16.2 19.5-5.8 9.3-11.3 23.9-14.1 37.6-3 14.3-3.5 19.3-3.5 39.5.1 16.6.3 20.1 1.5 27.6 5 28.9 14.8 49.9 30.8 65.9 16.5 16.6 38.2 25.8 67.4 28.7 9.8.9 28.9.4 38.8-1 15.1-2.3 32.9-7.3 48-13.6l7.3-3.1v39.1l-9.3 3.1c-23 7.3-40.1 10.8-64.7 12.9-9.3.8-41.9.8-51.4 0zM51.32 311.3v-27.4H25.62V259.6H51.32v-21.8h-22.4V213.5H100V237.8H76.97v21.8h24.33V283.9l-12.02.2-11.98.2-.17 27.2-.17 27.1H51.32zm59.88 27c0-.2 2.2-5.4 5-11.6l5-11.2h9.6c7 0 10-.2 10.9-.8 1.1-.8 1.2-2.2 1.1-15.7 0-16.3-.5-46.3-1.1-70.5l-.3-15.7H167.1V271c0 55-.1 58.2-1.3 60.7-1.3 3-3.5 5.2-6.1 6.2-2 .7-48.5 1-48.5.4zm82.9-313.18l84.7.25c75.5.22 85.5.36 92.5 1.37 29.4 4.2 48.6 12.26 61.4 25.7C444.3 64.63 449.5 79 449.5 98.3c.1 11.3-1.2 16.8-5.8 25.4-3.8 7.2-7.5 11.9-14.8 18.8-12.3 11.8-30.3 21.9-52.8 29.8l-7.7 2.7 8.3 1.9c23.8 5.2 47 15.8 60.7 27.6 11.8 10.4 18 21.6 21.5 38.9 1.8 9 1.6 27.6-.3 35.9-3.4 14.8-10.8 26.8-22.2 36-13.3 10.6-27.9 16.8-46.5 19.9-17.1 2.9-17.6 2.9-108.2 3.2l-87.6.2zM326.3 302.8c15-2.3 27.2-6.9 35.2-13.4 10.7-8.7 16.1-23.8 15.2-42.3-2-38.2-26.1-52.3-92.3-53.8l-17.3-.4v43.5c0 26.7.2 45.5.7 48.7 1.4 10.4 5.6 15.2 15.7 17.9 4.5 1.2 6.3 1.3 20.4 1.1 9-.2 18.3-.7 22.4-1.3zM320.8 155c32-5.1 46.5-14.6 50.5-33.4 1.7-7.7 2.1-20.2.7-26.2-3.2-14.4-14.3-26.95-28.6-32.26-9.1-3.39-13.3-3.72-46.1-3.72h-30.2V157l22.5-.3c18.6-.2 24-.6 31.2-1.7zm604.7 78.8l-88.8-104.7-.7 206.8h-39.4V27.8l23 .17 22.4.17L931.4 133l89.6 104.8V27.82h39V338.6h-45zm-814.3 22.5v-43.5h23v86.9h-23zM29.32 153.4c-3.8-10.5-7.6-21.8-7.3-22.1.2-.1 2.7-1.2 5.6-2.4 2.9-1.2 7.8-3.8 10.9-5.6l5.6-3.5V94.3H27.82l-.4-2.5c-.2-1.3-.4-6.2-.4-10.8v-8.41h37.36l.22 22.81c.2 22.2.25 23.1 1.7 26.2.89 1.9 1.73 3 2.08 2.6.87-.9 2.56-10.2 3.29-18 1.26-13.7 2.13-36.31 2.23-58.46l.11-22.55h93.69v45.82c0 50.39.2 48.49-4 51.59-4 2.9-6.4 3.3-21.3 3.3-7.8 0-14.1-.2-14.1-.4 0-.4.4-2.2 1-4.2.5-2 1-4 1-4.4 0-.7-3.7-.9-15.8-.9H98.68V82.5h39.42V106.2h2.2c1.2 0 2.5-.4 3-.8.6-.6.8-4.6.8-13.8V78.5H96.05v5.1c0 8.2-2.56 39.8-3.68 45.1l-.4 1.8 38.83.2 38.8.2-4.4 11.4-4.4 11.3-50.3-.2-50.51-.2-2.52-2c-1.39-1.1-3.23-3.4-4.09-5.1l-1.57-3.1-3.99 2.4c-3.8 2.2-14.5 7.5-17.1 8.4-.7.2-1.3 0-1.4-.4zm93.08-54.8V95h-9.3v3.1c0 1.8.2 3.5.5 3.7.2.2 2.3.4 4.6.4h4.2zm-12.5-36.55v-2.63H98.68V46.25H109.9v-5.27H96.71v23.71h13.19zm34.2-9.23V40.94l-8.4.19-8.4.18V45.92l7.1.19c4.5.12 7 .44 7 .91 0 .4-.3 3.35-.8 6.57l-.7 5.83H127v2.19c0 1.21.2 2.4.4 2.64.2.24 4.1.44 8.6.44h8.1zm-102.48 3.3c-4.5-5.57-6.4-7.12-17.5-14.15-.8-.53.5-1.71 6.9-6.16l8-5.51 2.3 1.12c4.8 2.27 9.76 6.07 15.39 11.78 3.19 3.22 5.79 6.08 5.79 6.35 0 .42-14.88 11.97-15.78 12.29-.2.1-2.5-2.51-5.1-5.72z"/></svg>