<svg xmlns="http://www.w3.org/2000/svg" viewBox="-471 344 336.5 113"><path class="st0" d="M-435.7 410.1c3.8 0 6.8 3 6.8 6.8s-3 6.8-6.8 6.8-6.8-3-6.8-6.8 3-6.8 6.8-6.8zm14.6 2c2.7 0 4.8 2.1 4.8 4.8s-2.1 4.8-4.8 4.8-4.8-2.1-4.8-4.8 2.1-4.8 4.8-4.8zm9.9 2c1.5 0 2.8 1.3 2.8 2.8 0 1.5-1.3 2.8-2.8 2.8-1.5 0-2.8-1.3-2.8-2.8 0-1.5 1.3-2.8 2.8-2.8z"/><path class="st1" d="M-411 379.9c1.5 0 2.8 1.3 2.8 2.8 0 1.5-1.3 2.8-2.8 2.8s-2.8-1.3-2.8-2.8c0-1.5 1.3-2.8 2.8-2.8zm10.6-2c2.7 0 4.8 2.1 4.8 4.8 0 2.7-2.1 4.8-4.8 4.8s-4.8-2.1-4.8-4.8c0-2.7 2.1-4.8 4.8-4.8zm13.4-2c-3.5.3-6.3 3.2-6.3 6.8 0 3.6 2.8 6.5 6.3 6.8v-13.6zM-382.5 406.4V376h11.8c2 0 3.7.2 5 .6 1.3.4 2.5 1.3 3.4 2.6 1 1.3 1.4 2.9 1.4 4.7 0 1.7-.5 3.1-1.5 4.4-1 1.2-2.3 2-4.1 2.4 2.1.4 3.8 1.2 4.9 2.6 1.1 1.4 1.6 3 1.6 4.9 0 2.3-.8 4.3-2.3 5.9s-3.9 2.4-7.1 2.4h-13.1v-.1zm5.2-17.7h6.7c1.4 0 2.4-.4 3.2-1.2.8-.8 1.2-1.9 1.2-3.1 0-1.4-.5-2.4-1.4-3.1-.9-.7-2-1-3.2-1h-6.6v8.4h.1zm0 13.1h7.1c1.5 0 2.7-.4 3.6-1.2.9-.8 1.3-1.8 1.3-3.2 0-1.3-.4-2.3-1.3-3.1-.9-.8-2.1-1.2-3.5-1.2h-7.1l-.1 8.7zM-341.2 399.2l4.6.6c-.6 2-1.8 3.7-3.5 5-1.7 1.3-3.9 2-6.5 2-3.1 0-5.6-1-7.5-3.1-1.9-2.1-2.8-4.9-2.8-8.5 0-3.4 1-6.2 2.9-8.4s4.5-3.3 7.8-3.3c3.2 0 5.7 1.1 7.4 3.3 1.8 2.2 2.6 5 2.6 8.5v.6h-15.4c0 1.5.1 2.8.4 3.7s.9 1.7 1.7 2.4c.9.7 1.9 1 3.2 1 2.5-.1 4.2-1.4 5.1-3.8zm-.3-6.7c0-1.6-.5-2.9-1.5-4-1-1-2.1-1.5-3.6-1.5-1.4 0-2.6.5-3.5 1.4-.9 1-1.5 2.3-1.6 4.1h10.2zM-312.8 406.4h-4.8c-.4-1.4-.7-2.9-.8-4.5-1.4 3.3-3.9 5-7.6 5-2.2 0-4-.7-5.4-2-1.4-1.3-2-3-2-5 0-5.2 4.5-7.7 13.6-7.7h1.4v-1.7c0-2.3-1.6-3.5-4.8-3.5-3.1 0-4.8 1.2-5.3 3.5l-4.3-.6c.2-1.9 1.2-3.4 2.9-4.6 1.7-1.2 4.1-1.8 7.3-1.8 1.7 0 3.2.1 4.3.4 1.1.3 2 .8 2.8 1.5.8.7 1.3 1.4 1.6 2.2.3.8.4 2.2.4 4.1v10.2c.1 1.4.3 2.9.7 4.5zm-5.6-11.5c-6.6 0-9.8 1.6-9.8 4.7 0 .9.3 1.7 1 2.4s1.7 1 3 1c1.9 0 3.4-.6 4.4-1.8 1-1.2 1.5-2.6 1.5-4.2v-2.1h-.1zM-297.4 402.4v4c-1.5.3-2.7.5-3.5.5-1.4 0-2.5-.3-3.5-.8s-1.7-1.3-2.1-2.2c-.5-.9-.7-2.4-.7-4.4v-11.7h-2.8v-3.9h3.1l.5-5.9 4.2-.4v6.2h4.5v3.9h-4.5v11c0 1.4.3 2.4.8 2.9s1.5.8 2.9.8c.3.1.7 0 1.1 0zM-280.5 398.1l4.4.4c-.6 2.8-1.7 4.9-3.3 6.3-1.6 1.4-3.6 2-5.9 2-3.1 0-5.5-1.1-7.2-3.4-1.7-2.3-2.5-5-2.5-8.3 0-3.4.9-6.2 2.7-8.4 1.8-2.2 4.3-3.3 7.3-3.3 4.9 0 7.8 2.6 8.7 7.7l-4.4.6c-.4-2.8-1.8-4.2-4.1-4.2-1.7 0-3 .8-3.8 2.3s-1.2 3.3-1.2 5.5c0 2.3.4 4 1.2 5.3.8 1.2 1.9 1.8 3.4 1.8 2.5 0 4-1.4 4.7-4.3zM-263.9 406.8c-3.3 0-5.9-1.2-7.6-3.6-1.8-2.4-2.6-5.1-2.6-8.2 0-3.3 1-6.1 2.9-8.3 1.9-2.2 4.5-3.3 7.7-3.3 3 0 5.5 1.1 7.4 3.2 1.9 2.2 2.9 5 2.9 8.4 0 3.5-1 6.4-3 8.6-2 2.2-4.6 3.2-7.7 3.2zm.2-4.1c3.4 0 5.1-2.5 5.1-7.6 0-2.3-.4-4.1-1.2-5.4-.8-1.3-2.1-2-3.8-2-1.8 0-3.1.7-3.9 2.1-.8 1.4-1.3 3.2-1.3 5.5 0 2.4.4 4.3 1.3 5.6 1 1.1 2.2 1.8 3.8 1.8zM-230.5 406.4h-4.7v-4.5c-1.3 3.3-3.5 5-6.6 5-2.8 0-4.9-1.2-6.3-3.5-1.5-2.3-2.2-5.2-2.2-8.6 0-3.2.8-5.9 2.3-8.3s3.7-3.5 6.5-3.5c2.9 0 4.9 1.3 6 4v-11h5.1v30.4h-.1zm-5.1-13.3c0-1.8-.4-3.2-1.3-4.3-.9-1-2-1.5-3.4-1.5-1.5 0-2.7.7-3.5 2-.8 1.3-1.3 3.3-1.3 5.9 0 5 1.6 7.5 4.7 7.5 1.2 0 2.3-.5 3.3-1.6s1.4-2.5 1.4-4.1v-3.9h.1zM-219.8 381.3h-5.1V376h5.1v5.3zm0 25.1h-5.1v-22.5h5.1v22.5zM-195.5 406.4h-5.1v-14c0-1.5-.3-2.6-1-3.4-.7-.7-1.5-1.1-2.5-1.1-1.3 0-2.5.6-3.5 1.7-1 1.2-1.5 2.9-1.5 5.2v11.6h-5.1v-22.5h4.6v5.2c1.6-3.8 3.9-5.7 6.8-5.7 2 0 3.7.6 5.1 1.9 1.4 1.2 2.1 3.4 2.1 6.6v14.5h.1zM-169.3 379.6v3.9h-1.6c-.7 0-1.3.1-1.8.2-.5.2-1 .7-1.5 1.6 1.8 1.5 2.7 3.1 2.7 4.9 0 2-.8 3.6-2.5 4.9-1.7 1.3-3.9 2-6.6 2-1.2 0-2.6-.2-4.2-.6-1 .5-1.6 1.2-1.6 2.2 0 .5.3 1.1.8 1.5.5.5 1.3.7 2.3.7h6.7c2.3 0 4.1.6 5.4 1.8 1.3 1.2 1.9 2.6 1.9 4.4 0 2.1-1 3.9-2.9 5.3-2 1.4-4.9 2.1-8.7 2.1-7.3 0-10.9-2-10.9-6.1 0-2 1.1-3.5 3.3-4.6-1.4-1.2-2.1-2.4-2.1-3.7 0-2 1.2-3.5 3.6-4.7-2.1-1.3-3.1-3-3.1-5.2 0-1.9.8-3.5 2.3-4.8 1.5-1.3 3.9-2 7-2 1.4 0 2.9.2 4.3.5.7-2.9 2.5-4.3 5.4-4.3h1.8zm-17.1 25.6c-.7.7-1.1 1.3-1.1 1.9 0 1 .6 1.9 1.8 2.7 1.2.8 3.2 1.2 5.8 1.2 3.9 0 5.9-1 5.9-3 0-.7-.3-1.3-1-1.7-.7-.4-1.5-.6-2.3-.6h-5.4c-1.1 0-2.3-.2-3.7-.5zm5.6-11.1c2.8 0 4.1-1.3 4.1-3.9 0-1-.3-1.8-1-2.5s-1.7-1-3-1-2.4.4-3.1 1.1c-.7.7-1.1 1.6-1.1 2.7s.4 2 1.1 2.7c.7.5 1.7.9 3 .9z"/><path class="st0" d="M-382.1 414.8h8.2v1.4h-6.7v3.4h6.2v1.3h-6.2v3.8h6.8v1.3h-8.3v-11.2zM-372.7 417.8h1.8l1.9 2.9 1.9-2.9h1.7l-2.8 4 2.9 4.2h-1.8l-2-3.1-2 3.1h-1.8l2.9-4.2-2.7-4zM-358.6 418.3c.6.5.9 1.2 1.1 2.3h-1.3c-.1-.5-.3-.9-.6-1.3-.3-.3-.8-.5-1.4-.5-.9 0-1.5.4-1.9 1.3-.2.6-.4 1.2-.4 2.1 0 .8.2 1.5.5 2.1.3.6.9.8 1.6.8.6 0 1-.2 1.4-.5.3-.4.6-.8.7-1.4h1.3c-.2 1.1-.5 1.9-1.2 2.4-.6.5-1.4.8-2.4.8-1.1 0-1.9-.4-2.6-1.2-.6-.8-1-1.8-1-3 0-1.4.4-2.6 1.1-3.4.7-.8 1.6-1.2 2.7-1.2s1.8.2 2.4.7zM-351.1 418c.5.3 1 .6 1.2 1.1.3.4.5.9.6 1.5.1.4.1 1 .1 1.8h-6c0 .8.2 1.5.6 2s.9.8 1.7.8c.7 0 1.3-.2 1.7-.7.2-.3.4-.6.5-1h1.4c0 .3-.2.6-.4 1s-.4.7-.7.9c-.4.4-.9.7-1.6.8-.3.1-.7.1-1.1.1-1 0-1.9-.4-2.6-1.1-.7-.7-1.1-1.8-1.1-3.1s.4-2.4 1.1-3.2c.7-.8 1.6-1.2 2.8-1.2.7-.1 1.3.1 1.8.3zm.5 3.3c-.1-.6-.2-1.1-.4-1.4-.4-.7-1-1-1.9-1-.6 0-1.2.2-1.6.7s-.7 1-.7 1.8h4.6v-.1zM-347.3 414.8h1.4v11.3h-1.4v-11.3zM-343.8 414.8h1.4v11.3h-1.4v-11.3zM-335.3 418c.5.3 1 .6 1.2 1.1.3.4.5.9.6 1.5.1.4.1 1 .1 1.8h-6c0 .8.2 1.5.6 2 .4.5.9.8 1.7.8.7 0 1.3-.2 1.7-.7.2-.3.4-.6.5-1h1.4c0 .3-.2.6-.4 1s-.4.7-.7.9c-.4.4-.9.7-1.6.8-.3.1-.7.1-1.1.1-1 0-1.9-.4-2.6-1.1-.7-.7-1.1-1.8-1.1-3.1s.4-2.4 1.1-3.2c.7-.8 1.6-1.2 2.8-1.2.7-.1 1.3.1 1.8.3zm.5 3.3c-.1-.6-.2-1.1-.4-1.4-.4-.7-1-1-1.9-1-.6 0-1.2.2-1.6.7-.4.5-.7 1-.7 1.8h4.6v-.1zM-331.6 417.8h1.3v1.2c.4-.5.8-.8 1.2-1s.9-.3 1.5-.3c1.2 0 2 .4 2.4 1.2.2.4.3 1.1.3 1.9v5.3h-1.4v-5.2c0-.5-.1-.9-.2-1.2-.2-.5-.7-.8-1.3-.8-.3 0-.6 0-.8.1-.4.1-.7.3-1 .7-.2.3-.4.6-.5.8-.1.3-.1.7-.1 1.2v4.3h-1.4v-8.2zM-317.4 418.3c.6.5.9 1.2 1.1 2.3h-1.3c-.1-.5-.3-.9-.6-1.3-.3-.3-.8-.5-1.4-.5-.9 0-1.5.4-1.9 1.3-.2.6-.4 1.2-.4 2.1 0 .8.2 1.5.5 2.1.3.6.9.8 1.6.8.6 0 1-.2 1.4-.5.3-.4.6-.8.7-1.4h1.3c-.2 1.1-.5 1.9-1.2 2.4-.6.5-1.4.8-2.4.8-1.1 0-1.9-.4-2.6-1.2-.6-.8-1-1.8-1-3 0-1.4.4-2.6 1.1-3.4.7-.8 1.6-1.2 2.7-1.2s1.9.2 2.4.7zM-309.8 418c.5.3 1 .6 1.2 1.1.3.4.5.9.6 1.5.1.4.1 1 .1 1.8h-6c0 .8.2 1.5.6 2 .4.5.9.8 1.7.8.7 0 1.3-.2 1.7-.7.2-.3.4-.6.5-1h1.4c0 .3-.2.6-.4 1s-.4.7-.7.9c-.4.4-.9.7-1.6.8-.3.1-.7.1-1.1.1-1 0-1.9-.4-2.6-1.1-.7-.7-1.1-1.8-1.1-3.1s.4-2.4 1.1-3.2c.7-.8 1.6-1.2 2.8-1.2.7-.1 1.2.1 1.8.3zm.5 3.3c-.1-.6-.2-1.1-.4-1.4-.4-.7-1-1-1.9-1-.6 0-1.2.2-1.6.7-.4.5-.7 1-.7 1.8h4.6v-.1zM-301.5 415.5h1.4v2.3h1.3v1.2h-1.3v5.4c0 .3.1.5.3.6.1.1.3.1.5.1h.5v1.1c-.2 0-.3.1-.5.1h-.6c-.6 0-1.1-.2-1.3-.5-.2-.3-.3-.8-.3-1.3V419h-1.1v-1.1h1.1v-2.4zM-297.4 414.7h1.4v4.2c.3-.4.6-.7.9-.9.4-.3 1-.4 1.7-.4 1.2 0 2 .4 2.4 1.3.2.5.3 1.1.3 1.9v5.3h-1.4v-5.2c0-.6-.1-1-.2-1.3-.3-.5-.7-.7-1.4-.7-.6 0-1.1.2-1.6.6s-.7 1.1-.7 2.2v4.4h-1.4v-11.4zM-284.2 421.1c.3 0 .5-.2.6-.4.1-.1.1-.3.1-.5 0-.5-.2-.8-.5-1-.3-.2-.8-.3-1.4-.3-.7 0-1.2.2-1.5.6-.2.2-.3.5-.3 1h-1.3c0-1 .4-1.7 1-2.1.6-.4 1.4-.6 2.2-.6 1 0 1.8.2 2.4.6s.9.9.9 1.7v4.8c0 .1 0 .3.1.3.1.1.2.1.4.1h.4v1c-.2.1-.4.1-.5.1h-.5c-.5 0-.8-.2-1-.5-.1-.2-.2-.4-.2-.8-.3.4-.7.7-1.2 1-.5.3-1.1.4-1.7.4-.8 0-1.4-.2-1.9-.7s-.7-1-.7-1.7c0-.8.2-1.4.7-1.8.5-.4 1.1-.7 1.9-.8l2-.4zm-2.9 3.7c.3.2.6.3 1 .3.5 0 1-.1 1.4-.3.8-.4 1.2-1 1.2-1.8v-1.1c-.2.1-.4.2-.7.3-.3.1-.5.1-.8.2l-.8.1c-.5.1-.9.2-1.1.3-.4.2-.6.6-.6 1.2 0 .3.1.6.4.8zM-279.5 415.5h1.4v2.3h1.3v1.2h-1.3v5.4c0 .3.1.5.3.6.1.1.3.1.5.1h.5v1.1c-.2 0-.3.1-.5.1h-.6c-.6 0-1.1-.2-1.3-.5-.2-.3-.3-.8-.3-1.3V419h-1.1v-1.1h1.1v-2.4zM-270.1 414.8l2.1 9.2 2.6-9.2h1.7l2.6 9.2 2.1-9.2h1.7l-3 11.3h-1.7l-2.6-9.4-2.6 9.4h-1.6l-3-11.3h1.7zM-250.5 418.6c.7.7 1.1 1.8 1.1 3.1s-.3 2.4-1 3.3c-.6.9-1.6 1.3-3 1.3-1.1 0-2-.4-2.7-1.2-.7-.8-1-1.8-1-3.1 0-1.4.3-2.5 1-3.3.7-.8 1.6-1.2 2.8-1.2 1.2.1 2.1.4 2.8 1.1zm-.8 5.5c.3-.7.5-1.5.5-2.3 0-.8-.1-1.4-.4-1.9-.4-.8-1.1-1.1-2-1.1-.8 0-1.4.3-1.8 1-.4.6-.6 1.4-.6 2.3s.2 1.6.6 2.2c.4.6 1 .9 1.8.9.9 0 1.5-.4 1.9-1.1zM-247.6 417.8h1.3v1.4c.1-.3.4-.6.8-1s.9-.6 1.5-.6h.4v1.5h-.4c-.7 0-1.2.2-1.6.7-.4.4-.6 1-.6 1.6v4.7h-1.4v-8.3zM-242.4 414.8h1.3v6.6l3.6-3.5h1.8l-3.2 3.1 3.3 5.2h-1.8l-2.6-4.2-1.1 1.1v3.1h-1.3v-11.4zM-233.7 423.5c0 .5.2.8.4 1.1.4.4 1 .7 1.9.7.5 0 1-.1 1.4-.3s.6-.6.6-1-.2-.6-.5-.8c-.2-.1-.6-.2-1.2-.4l-1.1-.3c-.7-.2-1.2-.4-1.6-.6-.6-.4-.9-.9-.9-1.6 0-.8.3-1.4.9-1.9.6-.5 1.3-.7 2.3-.7 1.3 0 2.2.4 2.7 1.1.3.5.5 1 .5 1.5h-1.3c0-.3-.1-.6-.3-.9-.3-.4-.9-.5-1.7-.5-.5 0-.9.1-1.2.3-.3.2-.4.5-.4.8 0 .4.2.6.5.9.2.1.5.2.9.3l.9.2c1 .2 1.7.5 2 .7.5.4.8.9.8 1.7 0 .7-.3 1.4-.8 1.9-.6.5-1.4.8-2.6.8-1.2 0-2.1-.3-2.6-.8-.5-.6-.8-1.2-.8-2.1l1.2-.1z"/><path class="st2" d="M-435.3 392.6c3.8 0 6.8 3 6.8 6.8s-3 6.8-6.8 6.8-6.8-3-6.8-6.8 3-6.8 6.8-6.8zM-419.1 392.6c3.8 0 6.8 3 6.8 6.8s-3 6.8-6.8 6.8-6.8-3-6.8-6.8 3.1-6.8 6.8-6.8zM-402.9 392.6c3.8 0 6.8 3 6.8 6.8s-3 6.8-6.8 6.8-6.8-3-6.8-6.8 3.1-6.8 6.8-6.8zM-387 392.6c-3.6.2-6.5 3.1-6.5 6.8 0 3.7 2.9 6.6 6.5 6.8v-13.6z"/></svg>