<svg xmlns="http://www.w3.org/2000/svg" viewBox="0 0 335.6 220.4"><path d="M276.9 33.76h25.7V185h-25.7zm-43.6 88.34c-1.4-6.8-4.1-12.4-8-17.6-8-10.57-21-17.24-38.5-17.24-27.3 0-44.1 18.54-49 38.04-4.5-13.8-16.5-23.1-29.1-26.97 9.5-6.92 14.5-16.82 14.5-28.11 0-10.49-4.4-20.04-11.7-26.25C100.8 34.86 86.2 33 68.2 33H33v152c9.97 0 20.22-.1 30.21 0 8.89 0 17.58 0 25.67-.4 25.62-1 43.22-13.9 48.82-33.3 1.9 8.7 5.6 15.7 10.4 21 9.9 10.9 24.2 15.1 38.6 15.1 17.8 0 30.6-5.1 39.4-13l-12.6-14.8c-6.3 4.8-14.4 7.6-23.5 7.6-17.9-.1-25.8-11.4-26.5-22.2h69.8v40h26.1V33.76h-26.1zM59.85 53.53h7.26c7.01 0 12.55.75 16.54 2.3 7.87 3.05 11.62 9.32 11.62 17.14 0 6.61-2.52 17-16.43 19.84-2.33.48-5.68.74-10.42.74h-8.57zM89.39 162.7c-3.27.6-7.27.8-10.52.8H59.85v-49.6h17.02c5.37 0 11.45.6 14.94 1.5 11.89 3.1 18.79 11.7 18.79 23 0 11.8-6.3 21.6-21.21 24.3zM164 126.1c2.3-11.1 10.5-19.1 22.6-19.1 12 0 20.1 7.2 22.1 19.1z"/></svg>