<svg xmlns="http://www.w3.org/2000/svg" viewBox="-179 0 239.256 200"><path d="M-144.095 124.132c.633-.63 1.26-1.263 1.9-1.885.706-.685 1.356-1.423 2.095-2.077.29-.256.44-.28.712-.013.994.982 1.975 1.98 2.98 2.948.765.737 1.513 1.502 2.27 2.244.65.635 1.296 1.3 1.94 1.946.78.78 1.506 1.62 2.36 2.337.49.413.87.96 1.298 1.445-.09.078-.173.088-.246-.022-.94-1.07-1.996-2.03-2.98-3.056-.74-.77-1.517-1.506-2.257-2.276a58.168 58.168 0 0 0-1.91-1.904c-.822-.777-1.587-1.613-2.388-2.412-.4-.4-.826-.776-1.24-1.16-.146-.135-.268-.077-.373.056-.43.542-1.007.936-1.495 1.42-.825.82-1.52 1.796-2.54 2.414-.046.057-.088.054-.127-.006zM-124.195 135.495c.433.083.498.547.79.768.876.658 1.547 1.53 2.328 2.282.653.63 1.3 1.296 1.943 1.947.79.8 1.583 1.603 2.424 2.36.968.872 1.96 1.712 2.966 2.537.068.05.063.094-.018.126-1.015-.533-1.827-1.328-2.656-2.093-1.274-1.176-2.545-2.358-3.765-3.59-.648-.653-1.282-1.322-1.94-1.967-.775-.76-1.512-1.56-2.265-2.342.054-.078.12-.087.193-.03zM-131.566 76.924c-.75.87-1.605 1.643-2.416 2.448-.66.656-1.286 1.36-1.996 1.978-.814.71-1.513 1.552-2.276 2.322-.66.666-1.322 1.33-2.014 1.96-.328.3-.68.566-.9.96-.18.324-.43.567-.77.72-.07.05-.126.036-.166-.042.82-.858 1.588-1.773 2.472-2.558.815-.724 1.45-1.62 2.332-2.278.565-.42 1.024-1 1.485-1.514.63-.703 1.344-1.315 1.993-1.988.714-.74 1.338-1.598 2.25-2.14.04.028.056.057.044.086-.012.03-.025.046-.038.046z"/><path d="M-113.762 145.515l.018-.127c.657.37 1.252.852 1.888 1.232 2.218 1.327 4.562 2.362 7.254 1.853.686-.13 1.336-.453 2.003-.687-.88.76-1.966.897-3.062.973-1.666.115-3.154-.41-4.652-1.115-1.246-.585-2.3-1.42-3.448-2.13zM-117.163 57.453c-.4-.03-.67-.332-1.01-.49-1.38-.635-2.834-.718-4.32-.597-1 .08-1.94.318-2.757.935-.43.383-.95.56-1.503.66.68-.556 1.45-.982 2.257-1.29 2.536-.97 4.998-.77 7.342.635.036.035.047.07.032.1-.015.032-.028.048-.04.048z"/><path d="M-117.163 57.453l.01-.15c.93.394 1.725 1.01 2.577 1.52.874.525 1.513 1.29 2.365 1.825.683.43 1.172 1.172 1.886 1.625.15.095.15.29.133.463-.875-.702-1.7-1.463-2.54-2.203-.78-.688-1.663-1.233-2.436-1.92-.59-.522-1.362-.722-1.997-1.16zM-131.566 76.924l-.006-.13c.404-.265.104-.45-.08-.63-1.382-1.364-2.713-2.78-4.158-4.078-.077-.07-.14-.155-.207-.233-.067-.075-.07-.154-.013-.236.755.54 1.337 1.262 1.997 1.902.888.86 1.75 1.747 2.63 2.617.356.356.42.634-.163.787zM-96.028 128.014c.006-.25.14-.442.313-.596.678-.608 1.28-1.297 1.942-1.914.812-.756 1.485-1.667 2.44-2.27-.056.132-.074.336-.172.386-.86.442-1.346 1.282-2.003 1.925-.818.8-1.787 1.484-2.377 2.507-.06.036-.108.02-.143-.038zM-160.04 109.354c-.178 2.26.774 4.16 1.897 6.008.054.073.04.13-.04.174-1.43-2.025-2.42-4.173-1.887-6.747.137.18.08.372.03.564z"/><path d="M-136.03 71.618c.003.08.008.157.012.236-.844-.663-1.52-1.5-2.3-2.228-.25-.235-.278-.506-.08-.79.106-.155.197-.34.344-.445.633-.452 1.1-1.065 1.63-1.62.06-.05.115-.045.163.02-.455.616-.954 1.172-1.572 1.65-.692.537-.647.765-.027 1.375l1.83 1.803zM-128.787 131.056l.246.022c.67.673 1.353 1.334 2.007 2.023.315.333.6.69.987.947.21.138.413.29.452.567-.05.067-.11.073-.173.02-1.247-1.12-2.434-2.3-3.52-3.578zM-160.04 109.354l-.03-.565c.246-1.352 1.01-2.506 1.453-3.784.113-.326.393-.586.723-.75-.712.99-1.042 2.164-1.576 3.24-.296.593-.275 1.27-.57 1.858zM-88.418 84.504c-.327-.114-.546-.382-.784-.602-.657-.606-1.278-1.25-1.91-1.88-.118-.118-.245-.237-.22-.43 1.024.75 1.727 1.845 2.76 2.59.096.07.173.18.154.322z"/><path d="M-136.263 66.79l-.164-.02 2.837-2.754c.047.088.08.173-.053.217-.287.46-.628.85-1.118 1.124-.43.24-.553.773-.91 1.09-.168.147-.393.23-.593.342zM-91.708 132.968c-.562-.266-1.05-.606-1.33-1.195-.12-.254-.368-.395-.61-.53-.42-.238-.716-.578-.855-1.047.044-.06.09-.06.134 0 .244.42.555.77.996.997.126.065.273.16.327.28.293.64.928.966 1.34 1.495zM-126.754 57.96l1.503-.66c-.027.167-.147.26-.284.314-.978.376-1.786 1.006-2.56 1.69a.508.508 0 0 1-.465.135l1.806-1.48zM-84.877 116.782c.77-.83 1.557-1.647 2.404-2.403-.008.082.016.205-.03.24-.836.673-1.344 1.705-2.374 2.162z"/><path d="M-94.37 130.195h-.133c-.636-.41-1.262-.834-1.65-1.516-.04-.165-.308-.287-.09-.496a31.8 31.8 0 0 1 .215-.17l.143.038c-.167.712.298 1.116.76 1.5.256.21.576.343.756.643zM-104.364 68.55c-.853-.748-1.635-1.567-2.41-2.395.418.123.745.364.99.723.264.385.59.704.977.968.244.167.48.354.443.704zM-100.84 146.887c.505-.456.903-1.043 1.598-1.266.315-.1.417-.46.693-.618.018.156-.032.317-.144.394-.718.494-1.355 1.104-2.146 1.49zM-143.103 88.55c-.787.605-1.23 1.566-2.13 2.052-.063.05-.114.04-.153-.028.61-.53 1.185-1.09 1.68-1.734a.7.7 0 0 1 .603-.29zM-101.854 70.97c-.293-.087-.494-.3-.694-.51-.44-.464-.876-.93-1.314-1.393a1.79 1.79 0 0 1 1.02.768c.298.464.756.766 1.164 1.12-.054.066-.112.072-.176.016z"/><path d="M-145.387 90.574c.05.01.1.02.152.028-.312.793-.977 1.22-1.672 1.618.01-.24.19-.39.36-.473.532-.258.86-.7 1.16-1.173zM-69.943 88.807c-.337-.03-.5-.302-.674-.526-.344-.44-.655-.907-.98-1.363.297.087.544.27.66.542.227.533.675.89.994 1.347zM-144.095 124.132l.127.008c-.26.675-.674 1.192-1.418 1.365.448-.44 1-.783 1.29-1.373zM-131.816 62.362c-.285.468-.473 1.017-1.038 1.253.05-.362.34-.585.51-.878.14-.175.278-.354.528-.375zM-82.728 79.825c-.274.57-.696.99-1.265 1.266a6.71 6.71 0 0 1 1.265-1.265zM-142.103 87.27l.167.04c-.503.307-.588 1.006-1.166 1.24.29-.46.515-.97 1-1.28zM-125.267 134.633l.173-.02.9.882c-.065.01-.13.02-.194.028-.377-.214-.648-.532-.88-.89z"/><path d="M-132.346 62.737c-.05.36-.3.607-.51.878h.002c-.147.098-.273.263-.487.156.332-.343.663-.688.994-1.033zM-101.845 147.403c.284-.274.653-.38 1.008-.517-.237.366-.586.51-1.008.517zM-101.854 70.97l.175-.016c.224.217.404.46.475.77-.33-.154-.436-.5-.65-.753z"/><path d="M-133.34 63.772l.487-.157c-.2.286-.483.468-.79.62.02-.073.037-.146.054-.218l.25-.245zM-158.183 115.535l.04-.174c.116.114.25.217.24.406-.152-.006-.223-.11-.28-.23zM-69.714 100.684c0-.21.045-.397.265-.49.02.22-.077.38-.264.49z"/><path d="M-69.943 88.807a2.366 2.366 0 0 1-.87-.954 2.566 2.566 0 0 0-.784-.935c-.676-.992-1.58-1.788-2.393-2.654a37.454 37.454 0 0 0-1.724-1.728c-.87-.812-1.695-1.666-2.526-2.517-.612-.627-1.255-1.225-1.855-1.865-.356-.38-.685-.357-1.046.047-.504.564-1.057 1.084-1.588 1.623a7.85 7.85 0 0 1-1.265 1.266c-1.138 1.14-2.29 2.264-3.405 3.425-.388.404-.685.53-1.02-.01a18.304 18.304 0 0 0-.573-.577c-.796-.763-1.622-1.497-2.343-2.335-.553-.682-1.226-1.254-1.843-1.867-.503-.5-.936-1.077-1.49-1.522-.884-.712-1.615-1.58-2.408-2.38-.63-.636-1.264-1.283-1.903-1.9-.75-.727-1.406-1.552-2.23-2.2-.222-.26-.363-.58-.62-.81-.31-.183-.6-.406-.81-.694a4.378 4.378 0 0 0-1.226-1.154l-.502-.516c-.102-.13-.096-.327-.25-.42-.854-.512-1.286-1.485-2.16-1.975-.432-.275-.618-.776-1.014-1.09-.875-.698-1.586-1.568-2.402-2.33-.1-.567-.68-.627-1.01-.952-1.04-1.02-2.186-1.9-3.347-2.78a15.938 15.938 0 0 0-2.71-1.657c-1.083-.538-2.15-1.064-3.417-1.112-1.623-.062-3.183.044-4.604.923a.865.865 0 0 1-.475.387c-.482.16-.858.47-1.264.763-.516.372-.924.897-1.54 1.132-.772.56-1.4 1.286-2.147 1.88-.388.31-.622.816-1.11 1.043-.41.312-.653.776-1.015 1.133-.048.03-.093.066-.136.103-.277.156-.432.465-.735.59-.8.923-1.665 1.78-2.597 2.57-.532.572-.96 1.246-1.653 1.663-.162.097-.224.302-.347.44-.24.27-.182.467.057.695.73.695 1.403 1.446 2.152 2.122 1.61 1.437 3.086 3.012 4.624 4.523.32.314.3.533-.158.653-.774.63-1.335 1.48-2.134 2.087-.075.057-.115.173-.17.262a1.405 1.405 0 0 1-.44.434c-.88.58-1.373 1.565-2.252 2.15-.125.083-.196.27-.28.413-.09.153-.212.25-.356.344-.905.584-1.425 1.575-2.304 2.19-.093.065-.14.207-.207.312-.116.18-.25.33-.44.434-.458.245-.8.613-1.056 1.057a1.77 1.77 0 0 1-.705.698c-.492.34-.68.94-1.133 1.313h-.002c-.252.184-.58.292-.736.57-.35.617-.89 1.024-1.442 1.43-.317.775-1.074 1.122-1.625 1.67-.207.234-.306.555-.6.72-.91.513-1.346 1.532-2.237 2.08-.283.174-.332.638-.663.822-.914.51-1.328 1.558-2.243 2.073-.145.082-.215.306-.308.47a.993.993 0 0 1-.327.375c-.952.605-1.538 1.576-2.284 2.378a17.844 17.844 0 0 0-2.325 3.12c-.177.26-.498.424-.606.718-.538 1.464-1.364 2.822-1.616 4.39-.236 2.25.745 4.126 1.844 5.964.138.133.236.3.37.437.804 1.174 1.82 2.178 2.678 3.308.257.34.66.504.916.858.653.898 1.51 1.615 2.31 2.373.662.63 1.308 1.29 1.938 1.942.737.762 1.607 1.407 2.224 2.29.09.128.276.188.406.294.246.2.46.18.738.018.568-.33.91-.86 1.307-1.345.59-.308 1.075-.72 1.343-1.348.26-.366.68-.55.976-.88.932-1.042 1.96-1.99 2.95-2.975.3-.3.476-.28.754.012.534.557 1.15 1.032 1.636 1.64.275.343.708.517.978.88.638.86 1.46 1.552 2.23 2.28.682.642 1.33 1.326 1.987 1.987.778.783 1.575 1.555 2.343 2.35.536.554 1.04 1.136 1.575 1.692 1.086 1.11 2.115 2.277 3.31 3.277.062.05.086.14.13.213.29.335.613.636.936.938.57.314.806.944 1.307 1.342.798.633 1.47 1.413 2.18 2.143a64.83 64.83 0 0 0 2.268 2.244c.653.608 1.258 1.265 1.937 1.854.932.81 1.862 1.614 2.857 2.343.44.358 1.027.494 1.42.916.383.413.848.676 1.377.83.326.093.603.272.898.427.754.397 1.525.826 2.37.918 1.733.188 3.467.194 5.025-.802l.754-.384c.35-.144.714-.264 1.008-.517h-.003c.55-.218.765-.872 1.357-1.044.44-.127.746-.42.932-.838.733-.614 1.398-1.307 2.123-1.922.72-.61 1.352-1.31 2.01-1.966.762-.763 1.52-1.554 2.296-2.303.673-.647 1.2-1.45 2.022-1.96.32-.2.515-.6.773-.903.092-.108.163-.263.055-.33-.52-.33-.65-1.016-1.15-1.307-.576-.336-.94-.816-1.287-1.342-.35-.375-.916-.507-1.13-1.033-.13-.318-.362-.545-.667-.71a2.125 2.125 0 0 1-.95-1.03c-.542-.496-1.25-.824-1.573-1.543-.098-.11-.168-.225-.082-.375.067-.092.138-.182.16-.297.21-.502.616-.837 1.023-1.163.14-.113.36-.115.462-.3.557-1.024 1.607-1.592 2.312-2.486.223-.282.655-.41.82-.796.61-.648 1.392-1.127 1.882-1.898a.66.66 0 0 1 .233-.207c.832-.466 1.367-1.28 1.998-1.93.778-.802 1.66-1.522 2.345-2.418.246-.227.59-.337.785-.62a4.3 4.3 0 0 1 1.192-1.185c.216-.14.337-.36.427-.598 1.13-1.143 2.223-2.328 3.405-3.416 1.214-1.118 2.305-2.356 3.525-3.47.563-.514 1.16-1.043 1.62-1.655.616-.82 1.372-1.51 2.027-2.293.774-.926 1.435-1.925 2.18-2.864.13-.14.14-.347.266-.49.184-.353.324-.74.56-1.054.9-1.193 1.01-2.617 1.134-4.005.214-2.412-.887-4.416-2.19-6.328zm-25.363 14.386c-.124.08-.29.132-.345.264-.306.713-.96 1.078-1.505 1.555l.01.004c-.317.496-.655.97-1.23 1.202-.17.07-.23.235-.312.377-.265.463-.664.794-1.074 1.115-.483.7-1.065 1.3-1.773 1.774-.307.432-.67.803-1.125 1.082-.123.076-.27.133-.264.317-.264.52-.64.952-1.16 1.207-.33.162-.33.542-.573.72-.88.637-1.45 1.608-2.358 2.202-.26.17-.3.453-.488.627-.735.674-1.42 1.398-2.145 2.083a.538.538 0 0 0-.423.24c-.51.732-1.2 1.282-1.836 1.886a2.83 2.83 0 0 1-1.14 1.225c-.142.085-.28.16-.374.32-.35.585-.364.586-.863.088-3.318-3.308-6.637-6.614-9.923-9.953-.118-.256-.336-.428-.528-.62l-7.938-7.94c-.488-.49-.488-.494.004-.99 1.23-1.236 2.47-2.465 3.7-3.703a729.438 729.438 0 0 0 3.046-3.047 580.11 580.11 0 0 0 3.038-3.038 621.545 621.545 0 0 0 3.038-3.038c1.017-1.01 2.03-2.024 3.04-3.04.662-.728 1.436-1.347 2.05-2.12.357-.194.537-.673.908-.748.427-.087.445.53.8.698.48.225.875.57 1.076 1.094.05.133.175.252.3.315.703.35 1.153.95 1.592 1.564 1.06.808 1.864 1.886 2.85 2.748.75.658 1.252 1.57 2.16 2.052.205.11.36.288.465.502.2.41.515.708.923.913.056.028.136.05.16.096.463.923 1.522 1.3 2.014 2.195.124.226.32.386.552.502.368.185.645.463.832.83.138.27.34.478.61.618.363.19.65.457.836.828.147.29.37.508.66.655.348.176.608.44.79.785.07.128.14.29.256.353.75.4 1.173 1.116 1.712 1.72.988.633.983.818-.052 1.477z"/><path d="M-128.902 98.308c-1.227 1.24-2.442 2.49-3.688 3.71-.352.346-.363.558-.007.91 2.642 2.62 5.265 5.257 7.892 7.89.206.206.452.38.577.658-.085.056-.164.08-.22-.036-2.68-2.682-5.366-5.36-8.04-8.047-1.05-1.055-.98-.842-.045-1.77 1.12-1.11 2.243-2.22 3.365-3.328.06-.06.116-.057.166.013z"/><path d="M-124.35 111.44l.222.036 6.897 6.914c1.017 1.02 2.04 2.036 3.047 3.067.272.278.48.414.677-.05.087-.204.258-.326.446-.426.5-.267.85-.67 1.086-1.18.046-.052.09-.05.13.007-.088.492-.426.815-.79 1.1-.315.243-.65.437-.846.818-.144.28-.4.267-.635.06-.284-.25-.59-.478-.848-.752-2.91-3.095-5.974-6.035-8.958-9.055-.162-.163-.355-.304-.43-.538zM-109.668 117.68c.652-.918 1.7-1.46 2.292-2.434.217-.356.728-.387.915-.737.494-.927 1.508-1.34 2.075-2.224.348-.543 1.12-.787 1.395-1.47.043-.057.086-.054.127.002-.052.134-.07.302-.16.398-.764.792-1.523 1.588-2.325 2.34-.195.182-.387.36-.572.558-.737.787-1.478 1.574-2.265 2.31-.258.243-.537.45-.742.748-.186.27-.38.562-.748.628-.082-.044-.08-.084.007-.12zM-110.08 86.92c-.592-.865-1.633-1.278-2.183-2.19-.342-.57-1.068-.736-1.42-1.315-.107-.173-.257.008-.368.095-.226.175-.36.482-.704.486.095-.11.184-.227.286-.33.632-.643.54-.505 1.267-.017.834.56 1.242 1.514 2.13 1.998.482.262.764.765.99 1.27zM-97.154 105.012c.032-.297.275-.398.488-.527.275-.166.504-.378.644-.67.16-.335.418-.564.732-.755.778-.472.787-.612.114-1.18-.043-.036-.054-.11-.08-.166.264.026.45.19.635.36.22.203.31.45.037.63-.972.645-1.478 1.805-2.57 2.308zM-128.902 98.308c-.055-.004-.11-.01-.166-.013a9507.1 9507.1 0 0 0 3.177-3.175c.07.05.076.104.013.165l-3.025 3.023zM-116.76 86.182l-3.04 3.034c-.068-.048-.073-.103-.015-.164.982-1.042 1.98-2.068 3.04-3.03.066.047.07.1.016.16z"/><path d="M-125.877 95.286l-.014-.165a59.62 59.62 0 0 1 3.036-3.038c.072.05.076.105.014.166a4349.37 4349.37 0 0 0-3.037 3.038z"/><path d="M-122.84 92.247l-.014-.166c.98-1.04 1.98-2.065 3.04-3.028.004.055.01.11.015.164l-3.04 3.03zM-99.815 107.667l2.67-2.65c.025.185-.084.333-.193.44-.738.737-1.49 1.46-2.24 2.185-.067.114-.15.093-.237.025zM-109.668 117.68a.963.963 0 0 0-.005.12 1.495 1.495 0 0 0-.68.614c-.352.61-.915 1.012-1.49 1.392l-.13-.007c.87-.595 1.32-1.65 2.305-2.12zM-116.76 86.182c-.004-.054-.01-.107-.015-.16.594-.755 1.32-1.38 2.02-2.027-.46.92-1.358 1.437-2.004 2.187z"/><path d="M-99.815 107.667l.238-.024c-.55.8-1.24 1.465-2.016 2.045-.074-.085-.066-.168.008-.248a8.024 8.024 0 0 0 1.77-1.773z"/><path d="M-101.585 109.44l-.008.248c-.316.497-.794.812-1.27 1.13-.042-.002-.085-.002-.127-.003.408-.52 1.022-.83 1.405-1.375zM-96.242 128.184c.03.165.06.33.088.495-.17-.14-.354-.278-.088-.496zM-19.938 73.382c-.076-1.753-1.365-3.357-3.092-3.732-.267-.058-.532-.13-.798-.195-.14-.035-.318-.04-.33-.23-.01-.175.15-.268.278-.31.336-.114.632-.34 1-.364.238-.236.474-.472.784-.623.384-.188.607-.544.727-.918.272-.84.472-1.698.547-2.584.14-1.67.038-3.32-.295-4.96-.124-.25-.15-.525-.214-.79-.806-1.306-1.87-2.235-3.473-2.384-.25-.023-.51.014-.74-.124l-1.734-.152c-.23.015-.46.042-.69.042-8.224-.005-16.882-.013-25.105-.02-.86 0-1.298.004-1.298.885v25.05c0 .856.438.858 1.323.858 6.39.002 12.995-.015 19.383.01 2.888.01 5.88-.15 8.762-.26.82-.032 1.744-.094 2.467-.613 1.586-1.02 2.425-2.44 2.49-4.356.047-1.413.07-2.817.01-4.228zm-25.556-11.114c2.467.02 5.122.01 7.122.01v.03c3 0 5.17-.008 7.617.002 1.136.005 1.962.744 1.985 1.945.026 1.314-.58 2.146-1.757 2.184-4.933.157-9.836.05-14.77.088-.43.003-.586-.133-.576-.58.024-1.012-.085-2.025-.12-3.036-.02-.503.004-.648.5-.644zm17.32 13.39c-.298.534-.773.73-1.362.762-3.243.175-6.49.142-9.734.145-1.982.002-3.963-.012-5.944.01-.486.004-.68-.14-.67-.646.028-1.14.008-2.277.01-3.416 0-.143-.034-.3.095-.414.22-.113.457-.057.685-.057 3.774-.004 7.55-.03 11.323.01 1.55.018 3.104.01 4.65.183.875.097 1.29.493 1.314 1.377.018.7.18 1.44-.367 2.045zM8.332 70.895a4.57 4.57 0 0 0-.075-.623c-.115-.644.11-1.333-.145-1.934-.59-1.39-1.165-2.815-2.652-3.544-.053-.026-.09-.086-.136-.13-.47-.498-1.105-.733-1.73-.83-2.24-.345-4.51-.427-6.773-.526-2.463-.108-4.916.133-7.37.28-.864.052-1.75.123-2.594.445-.816.31-1.486.865-2.263 1.233l-.5.51c-.806.794-.99 1.857-1.254 2.888-.205.8-.233 1.616-.292 2.432-.192 2.67-.193 5.324.545 7.936.168.595.353 1.157.71 1.667.214.308.605.375.825.667.45.597 1.086.908 1.775 1.118 1.523.466 3.086.808 4.67.87 3.82.145 7.647.286 11.43-.45 1.325-.256 2.69-.462 3.76-1.42 1.367-1.083 1.923-2.548 2.002-4.24.02-.42-.276-.41-.553-.412-2.044-.003-4.088.007-6.132-.01-.408-.003-.556.154-.594.54-.055.565-.376.86-.95 1.003-2.96.73-5.91.733-8.858-.046-.772-.152-1.08-.743-1.325-1.396-.108-.29-.086-.606-.198-.893l-.007-.486c-.125-.343.142-.404.36-.45.172-.038.36-.018.542-.017 5.63.018 11.258-.02 16.887.02.853.005 1.062-.177 1.074-1.056.017-1.05.104-2.11-.178-3.145zM1.1 70.698c-.104.35-.38.278-.62.28-1.728.004-3.455.002-5.183.002-1.686 0-3.37-.017-5.056.01-.534.01-.646-.208-.59-.683.137-1.192 1.095-2.202 2.477-2.32 2.476-.214 4.963-.315 7.432.116 1.167.203 1.877 1.44 1.54 2.595zM-17.162 104.864c-.13-1.148-.263-2.285-.567-3.405-.197-.73-.62-1.38-.708-2.142-.095-.242-.29-.385-.504-.51-.355-.236-.615-.575-.924-.86-.153-.14-.302-.272-.507-.36-1.66-.703-3.403-1.136-5.182-1.216-2.14-.096-4.28-.296-6.424-.275-3.472.033-6.945-.1-10.42.15-2.05.146-4.505.068-6.514.578-1.07.272-2.457.538-3.457 1.217 0 .44-.2.763-.62 1.02-.233.25-.226.536-.325.858-.413 1.346-.73 2.703-.84 4.11-.36 4.518-.426 9.043.256 13.54.243 1.594.498 3.267 1.9 4.4.484.693 1.317.903 1.996 1.274.63.345 1.385.53 2.154.6.833.076 1.673.12 2.504.213 1.808-.01 3.616.096 5.423.118 5.155.06 10.31.01 15.46-.202 1.008-.04 2.047-.148 2.988-.616 1.647-.825 3.184-1.753 3.555-3.778.71-2.182.886-4.447.92-6.71.038-2.668.137-5.34-.162-8.006zm-8.294 8.638c-.03.547-.08 1.087-.253 1.61-.222.917-.954 1.257-1.744 1.533-1.826.447-3.683.532-5.552.52-2.442-.018-4.885.03-7.326-.023-.97-.022-1.96-.086-2.906-.375l-.76-.24c-.93-.228-1.7-1.21-1.85-2.154-.34-2.142-.143-4.292-.152-6.437-.004-.8.065-1.635.367-2.41l-.012-.008c.426-1.258 1.27-2.03 2.606-2.2.29-.036.583-.075.878-.08 3.238-.064 6.477-.092 9.715-.047 1.113.017 2.227.047 3.34.048 1.22 0 2.27.35 3.014 1.38.554.85.595 1.822.625 2.78.063 2.033.125 4.068.012 6.104zM8.277 105.13c.967.57 1.824 1.26 2.497 2.175.256.347.45.703.53 1.123.45.846.617 1.755.708 2.703.38 3.93.087 7.866.177 11.798.02.875 0 .876-.844.876-1.916 0-3.832.002-5.748-.003-.205 0-.422.064-.614-.068-.01-2.17-.017-4.342-.03-6.513-.007-1.414.002-2.827-.04-4.238-.055-1.926-.85-2.96-2.736-3.31-2.188-.407-4.427-.57-6.55.248-1.663.64-2.255 1.2-2.294 3.01-.073 3.33-.057 6.66-.076 9.992-.005.893 0 .894-.887.895-1.897 0-3.795-.015-5.692.01-.513.007-.688-.135-.686-.673.018-5.967.018-11.934 0-17.9-.002-.536.166-.68.683-.673 1.813.028 3.627.03 5.44 0 .538-.01.7.17.666.687-.038.61-.01 1.222-.005 1.834 0 .163-.03.36.212.39.182.024.242-.1.31-.248.602-1.305 1.604-2.174 2.98-2.554 3.04-.84 6.12-.806 9.21-.32.64.183 1.29.327 1.943.42.33.048.592.158.847.342zM22.708 116H39.84c.823 0 .82-.138.835-.98a38.46 38.46 0 0 0-.285-5.55c-.16-1.26-.758-2.305-1.573-3.193-.534-.583-1.184-1.14-1.934-1.394-.83-.28-1.722-.4-2.595-.532-2.89-.434-5.8-.307-8.707-.306-2.157 0-4.283.26-6.39.713-.814.174-1.437.65-2.07 1.13-.84.737-1.485 1.526-1.79 2.698-.43 1.643-.51 3.3-.66 4.96-.124 1.36.077 2.72.252 4.067.19 1.464.385 2.946 1.435 4.12.165.183.303.407.5.544.543.376 1.11.716 1.667 1.07a4.22 4.22 0 0 0 1.95.615c1.756.12 3.505.318 5.267.357 2.628.058 5.245-.11 7.863-.27a11.29 11.29 0 0 0 2.637-.47c.7-.214 1.254-.667 1.91-.93.41-.165.733-.395.928-.795.845-.93 1.317-2.014 1.397-3.276.054-.856.033-.908-.813-.91-1.873 0-3.746-.002-5.62 0-.776.002-.783.013-.965.765-.165.686-.684.926-1.304 1-2.458.29-4.917.246-7.38.042-1.092-.09-1.77-.646-2.23-1.59-.216-.438-.212-.76-.236-1.218-.04-.798-.034-.664.78-.664zm1.112-7.053c2.41-.618 4.834-.54 7.265-.207.493.068.968.267 1.455.39.252.065.403.228.492.448.118.292.244.666.308.972.262 1.248.157 1.45-1.1 1.45h-4.613c-1.685 0-3.37-.102-5.054-.07-.56.012-.682-.24-.637-.746.1-1.106.833-1.967 1.884-2.237zM-53.376 143.614c-.125-.336-.232-.673-.254-1.038-.078-1.285-.05-1.3 1.223-1.263.406.012.484.187.505.535.105 1.703.102 1.798 1.78 1.97 2.54.258 5.092.27 7.624-.152.753-.125 1.207-.652 1.298-1.417.03-.25.043-.506.033-.757-.052-1.306-.34-1.637-1.648-1.677-2.19-.068-4.38-.065-6.57-.12-.858-.022-1.723-.05-2.52-.464-.808-.42-1.446-.903-1.62-1.913-.192-1.116-.173-2.173.258-3.215.13-.317.372-.558.662-.745 1.115-.76 2.41-.746 3.673-.817a49.765 49.765 0 0 1 5.557-.005c1.15.064 2.25.27 3.092 1.158.497.683.55 1.468.517 2.27-.003.084.04-.002-.008.062-.37.48-.89.16-1.338.23-.268.044-.41-.095-.426-.4-.072-1.438-.032-1.62-1.827-1.78-2.258-.204-4.528-.124-6.79.05-.42.033-.828.13-1.19.365-.556.614-.703 2.085-.28 2.777.163.267.423.45.7.505.593.117 1.16.348 1.786.336 2.21-.04 4.417.012 6.625.06.566.013 1.11.193 1.665.28.46.072.743.428.947.834.927 1.41.914 3.34-.004 4.735-.498.756-1.307 1.013-2.082 1.145-2.916.496-5.86.4-8.8.22-.64-.04-1.21-.307-1.752-.63-.437-.263-.695-.658-.834-1.14zM10.416 145.376c-1.304.13-1.304.13-1.304-1.137v-7.147c0-.33-.077-.754.457-.696.38.04 1.018-.328 1 .517-.005.288.162.35.358.195 1.57-1.253 3.387-.873 5.158-.79.73.032 1.385.32 2.047.59.125.072.257.145.335.265.285.44.555.404.828-.007 2.395-1.375 4.865-1.206 7.358-.337.877.307 1.275 1.072 1.36 1.9.21 2.08.064 4.17.087 6.255.008.612-.468.394-.782.426-.337.036-.632.01-.627-.467.014-1.306.01-2.613 0-3.92-.004-.505-.03-1.01-.077-1.513-.112-1.175-.668-1.722-1.857-1.923a9.202 9.202 0 0 0-3.454.044c-1.14.24-1.607.76-1.794 1.9-.276 1.676-.166 3.363-.19 5.046-.01.822-.305 1.035-1.128.83-.368-.092-.29-.366-.292-.602-.007-1.37 0-2.74-.005-4.11 0-.357-.045-.716-.027-1.073.033-.662-.192-1.19-.736-1.577-.134-.207-.365-.275-.56-.395-.91-.153-1.82-.275-2.748-.248-.77.023-1.502.19-2.195.484-.48.202-.756.652-.883 1.166-.213.86-.234 1.74-.26 2.62-.038 1.235.08 2.472-.068 3.706zM-15.65 144.497c-.84.802-1.895.94-2.987.988-1.834.078-3.667.112-5.495-.1-.61-.21-1.316-.193-1.77-.762-.72-.44-.74-1.156-.76-1.88-.01-.354.143-.5.494-.464.146.014.296.015.442 0 .352-.04.513.042.534.464.047.947.598 1.356 1.56 1.45 1.176.116 2.352.085 3.528.122.762.024 1.51-.087 2.263-.153.464-.04.92-.264 1.02-.796.115-.6.243-1.288-.356-1.676-.46-.296-1.06-.35-1.626-.353-1.643-.008-3.287.023-4.93-.017-.588-.014-1.224.11-1.754-.314-.746-.596-1.13-1.356-1.01-2.312.128-1.036.58-1.786 1.703-2.082.638-.168 1.295-.107 1.915-.31.11-.03.224-.028.338-.03 1.035-.002 2.07 0 3.103 0 1.26.135 2.525.25 3.55 1.126.198.15.26.387.323.6.103.337.254.79.003 1.022-.308.285-.8.11-1.213.095-.143-.005-.212-.124-.23-.26-.106-.83-.74-1.092-1.417-1.21-1.774-.305-3.56-.254-5.334.014-.512.076-.935.36-1.15.87-.132.995.15 1.337 1.154 1.41 1.765.13 3.533.045 5.3.058.79.006 1.53.128 2.222.548.556.34.94.772.992 1.437.044.566.05 1.132-.01 1.7-.035.33-.135.61-.405.814zM30.287 140.955c-.417-.557-.79-1.122-.795-1.867-.008-1.608.698-2.457 2.302-2.667 2.116-.277 4.236-.305 6.352.014.655.1 1.223.438 1.792.743.342.183.633 1.422.43 1.76-.236.386-.65.156-.984.2-.237.03-.467 0-.5-.33-.038-.362-.117-.712-.496-.89-.084-.06-.18-.096-.277-.135-1.716-.518-3.462-.468-5.21-.236-.444.06-.94-.037-1.306.337-.132.14-.202.328-.33.47-.234.44-.23.874.035 1.3.07.074.143.145.233.197.54.223 1.115.2 1.677.21 1.45.02 2.902.01 4.353.004.423-.002.84.028 1.25.122 1.215.194 1.725.906 1.91 1.87.278 1.436-.1 2.41-1.03 2.99-.24.15-.528.12-.754.28a16.11 16.11 0 0 1-2.488.29c-1.572.062-3.156.1-4.712-.188-.647-.12-1.414-.118-1.768-.878-.568-.47-.56-1.12-.572-1.776-.007-.392.15-.534.527-.495.167.016.338.016.504 0 .33-.035.424.097.44.427.05 1.02.508 1.368 1.546 1.49 1.345.156 2.688.067 4.03.116.615.022 1.205-.173 1.82-.142.627.032 1.074-1.258.892-1.827-.316-.987-1.13-.97-1.872-.994-1.62-.053-3.24-.017-4.86-.017-.737 0-1.466-.028-2.14-.378zM-37.548 138.676c-.47-.522-.76-1.155-1.1-1.76-.236-.42-.065-.497.357-.58.945-.19 1.323.437 1.657 1.08.818 1.576 1.83 3.047 2.53 4.688.137.324.326.637.603.877.057.063.1.134.14.208.15.294.27.754.542.78.332.034.366-.483.58-.724.767-.77.855-1.902 1.46-2.75.834-1.163 1.152-2.595 2.005-3.746.366-.494 1.376-.52 1.66-.016-.583.91-1.19 1.795-1.54 2.846-.165.49-.52.94-.797 1.402-.607 1.02-1.012 2.14-1.636 3.146-.33.982-.9 1.832-1.475 2.677-.783 1.15-1.817 1.84-3.26 1.784-.21-.008-.42.003-.63.002-.83-.003-.855-.043-.824-.848.014-.372.148-.54.53-.52.252.016.51-.05.756-.014 1.215.176 1.827-.614 2.394-1.473.243-.37-.157-.258-.284-.35-.44-.66-.66-1.438-1.128-2.086-.777-1.078-1.176-2.378-2.013-3.424-.278-.345-.27-.835-.528-1.2zM-5.406 144.733c-2 1.07-4.027 1.087-6.08.164-.9-.746-.875-1.782-.876-2.808-.002-1.287-.014-2.573.004-3.86.008-.59-.23-.86-.828-.826-.336.02-.674 0-1.012-.002-.318 0-.452-.16-.443-.475.008-.303.175-.402.447-.4.38 0 .76-.02 1.138-.002.493.025.693-.215.688-.68-.003-.295.015-.59 0-.885-.02-.456.116-.712.64-.705.505.007.524.31.51.672v.063c.01 1.718-.18 1.523 1.58 1.532 1.33.006 2.657 0 3.985.002.304 0 .618-.017.604.432-.013.418-.3.45-.617.45-1.56 0-3.12 0-4.68.004-.783.002-.87.085-.87.874a440.24 440.24 0 0 0 .002 4.3c.007 1.082.45 1.547 1.527 1.706a7.953 7.953 0 0 0 2.516-.007c.205-.035.435-.018.504-.288.5-.613.556-1.356.557-2.092.002-.675.44-.566.86-.59.515-.032.51.29.517.652.015.982-.066 1.938-.673 2.768zM-1.36 141.27c2.866 0 5.733 0 8.6-.002.608 0 .828-.213.695-.793-.104-.456-.073-.92-.178-1.367-.196-.832-.545-1.633-1.238-2.124a3.788 3.788 0 0 0-1.82-.673c-1.825-.16-3.66-.212-5.482.004-.897.107-1.763.43-2.334 1.232-.784 1.185-.68 2.528-.668 3.847.01 1.306.137 2.578 1.43 3.344.155.247.407.356.668.432 1.173.337 2.386.37 3.59.463 1.072.082 2.142-.022 3.188-.212.695-.125 1.474-.208 1.903-.932l.004.006c.505-.203.733-.612.79-1.123.03-.268.194-.606-.21-.753-.44-.16-1.247.005-1.378.277-.43.884-1.134 1.297-2.112 1.29-1.16-.01-2.32-.02-3.477.003-.586.01-1.11-.155-1.627-.398-.737-.35-1.118-.908-1.1-1.74.017-.78 0-.78.754-.78zm-.73-2.177c.005-.083.11-.093.105-.093h.112-.113c1.54-1 3.398-1.34 5.255-1.262.878.036 1.742.026 2.413.745.16.172.31.294.39.513.244.65.07.877-.616.878-2.234.003-4.472.07-6.706.07-.885 0-.888.066-.84-.85z"/></svg>