<svg    xmlns="http://www.w3.org/2000/svg" viewBox="0 0 278 120">
  <path     d="m 238,108 c -4.8,-1.2 -7,-2 -7,-2.5 0,-0.3 1.6,-5.4 1.6,-5.4 l 1.6,0.8 c 5.6,2.9 15.1,2.7 19.7,-0.3 2.2,-1.42 4.1,-4.17 5,-6.95 0.7,-2.38 1.4,-11.21 0.8,-11.21 -0.1,0 -1.2,1.05 -2.4,2.34 -6.8,7.41 -20,6.59 -25.6,-1.61 -2.8,-4.13 -3.5,-6.71 -3.5,-13.66 0,-5.19 0.1,-6.62 0.9,-9.28 1.3,-3.96 4.1,-8.19 6.9,-10.33 4.1,-3.05 10.9,-4.26 15.7,-2.8 2.4,0.73 5.5,2.86 6.7,4.66 0.5,0.72 1,1.31 1.2,1.31 0.2,0 0.3,-1.28 0.3,-2.85 l 0,-2.84 6.6,0 0,20.92 c 0,19.47 -0.1,21.17 -0.9,24.41 -2.3,9.19 -6.1,13.19 -14.6,15.09 -4.4,1.1 -9.4,1.1 -13,0.2 z m 12.7,-24.06 c 3,-0.88 6.2,-3.81 7.8,-7.15 1.2,-2.36 1.2,-2.74 1.2,-9.07 0,-6.05 -0.1,-6.79 -1,-8.76 -2.2,-4.5 -7.7,-7.65 -12.3,-7 -7.9,1.11 -12.5,8.37 -11.8,18.61 0.4,5.9 2.9,10.47 6.6,12.38 3.6,1.84 5.8,2.07 9.5,0.99 z M 11,92.78 11.37,11 l 0.65,0.29 21.11,6.56 0.17,55.16 -20.58,18.21 -0.3,0.67 52.49,-27.43 -15.13,-7.68 -8.75,-19.85 48.42,14.57 0,23.83 -56.19,32.97 z m 123.8,-3.16 c -3.3,-0.84 -6.4,-2.8 -7.7,-4.83 -0.5,-0.81 -1.1,-1.48 -1.3,-1.48 -0.2,0 -0.4,1.28 -0.4,2.85 l 0,2.85 -6.4,0 0.1,-30.72 c 0.1,-24.18 0.3,-30.68 0.7,-30.52 0.3,0.11 1.7,0.53 3.1,0.93 l 2.5,0.73 0.1,12.67 0.1,12.66 2,-2.48 c 1.5,-1.85 2.8,-2.89 5,-4.03 2.9,-1.47 3.2,-1.53 7.7,-1.53 4.3,0 4.8,0.1 7.5,1.44 6.3,3.11 9.4,9.31 9.3,19.16 0,10.47 -4.4,18.59 -11.4,21.25 -2.5,0.96 -8.8,1.56 -10.9,1.05 z m 7.9,-6.22 c 5.3,-2.74 8.5,-9.52 8,-17.18 -0.3,-3.86 -0.4,-4.53 -1.6,-7.32 -1.2,-2.54 -3.2,-4.7 -5.5,-5.95 -2.6,-1.35 -7.6,-1.32 -10.4,0.1 -3,1.44 -5.8,4.75 -6.9,8.07 -1.1,3.52 -1.2,11.68 -0.2,14.98 1.1,3.42 4.8,6.98 8.5,8.18 1.8,0.6 6.2,0.14 8.1,-0.84 z m 23.4,-36.02 3.3,0 3.3,0 0.2,41.63 -6.8,0 z m 18,20.81 0,-20.81 3.3,0 3.3,0 0,3.28 c 0,1.81 0.1,3.28 0.3,3.27 0.2,0 0.9,-0.77 1.5,-1.7 3.8,-5.45 12.7,-7.41 19,-4.19 1.9,0.97 3,1.9 4.1,3.44 2.7,4.13 2.8,5.02 3,22.08 l 0.2,15.45 -6.6,0 -0.2,-14.57 c -0.1,-10.3 -0.3,-15.09 -0.7,-16.33 -0.8,-2.55 -3.8,-5.24 -6.5,-5.89 -5.8,-1.38 -12,2.59 -13.7,8.73 -0.2,0.85 -0.4,7.48 -0.4,14.8 l 0,13.26 -6.6,0 0,-20.82 z M 173.5,33.25 a 4.022,4.022 0 0 1 -4.1,4.03 4.022,4.022 0 0 1 -4,-4.03 4.022,4.022 0 0 1 4,-4.02 4.022,4.022 0 0 1 4.1,4.02 z" />
</svg>
