<svg xmlns="http://www.w3.org/2000/svg" viewBox="0 0 820.2 179.2"><path d="M380.6 21.9l-5.2 25.9h31.3l5.3-25.9h-31.4zm140.3 0l-12.2 57.2 1.8-8.3c11.1-2.4 22-4.8 32.9-6.9l9-42h-31.5zm47.9 0l-5.2 25.9h31.3l5.3-25.9h-31.4zm-319.3.1L221 155.7c21.5-8 44.6-16 68.6-24h-27l6.6-31.1H295c8 0 13.2 1.2 15.7 3.6 2.7 2.4 4 5.7 4 9.8 0 4.4-1.2 8-3.7 10.8 12.5-4 25.2-8 38.1-11.9 0 .3.1.6.1.9-.4-13.9-7.6-23.1-21.7-27.2v-.4c8.8-2.7 15.2-7.1 19.2-13.1 4.1-6.1 6.1-12.5 6.1-19.3 0-5.4-1.3-10.3-3.8-14.8-2.6-4.4-6.2-8.2-10.6-10.8-4.5-2.8-9.3-4.4-14.1-5.1-4.9-.7-11.1-1.1-18.7-1.1h-56.1zM280 45.2h20.7c7.6 0 12.7 1.1 15.3 3.4 2.7 2.1 3.9 5 3.9 8.9 0 3.2-1.2 6.4-3.6 9.6-2.3 3.2-5.5 5.2-9.3 6.3-3.9.9-9.5 1.4-16.6 1.4h-16.5l6.1-29.6zM665.9 57c-13.9 0-20.5-.4-29.8 9.3 8.7-9 14.9-9.2 27.1-9.2h2.7c8.8 0 18.6 2.3 23 6.8 2.9 2.9 4.9 6.4 5.8 10.3-24.2-1-54.1.1-90.5 4l4-19-20.9 97.7h31.6l9.2-42.4c2.1-9.7 5.2-20.2 9.3-25.4 4.2-5.2 8.7-10.9 20.7-10.9 4.8 0 4.2 8.9 4.2 14.4 0 1.6-1.2 7.8-3.5 19l-9.6 45.3h31.4l11.3-53.3c2.4-11.4 3.6-19.3 3.6-23.2 0-6.5-2.1-12.1-6.6-16.6-4.4-4.6-14.2-6.8-23-6.8zm-293.2 2.2l-20.9 97.7h31.4l9.6-44.2c-10.8 2.5-21.9 5.1-33.2 7.7l2.4-11.2c11.1-3.3 22.3-6.5 33.6-9.6l8.7-40.4h-31.6zm41.7 0l-5.7 19.5H456l-54.1 56.1-4.8 22.1h82.5l5.2-22.5h-44.1l50.2-56 1.8-19.2h-78.3zm146.5 0L540 156.9h31.4L588 80c-10.4 1.2-21.1 2.7-32.4 4.4l4.4-20.8c7.8-1.4 15.6-2.9 23.3-4.4h-22.4zm73.1 8.6v.1l.4.3-.4-.4zm81.6 6.1c-3.4 3.8-6.3 8-8.6 12.8-3.9 7.7-5.7 15.9-5.7 24.7 0 12.5 4.1 23.1 12.2 31.8 8.2 8.7 15.6 13.1 35 13.1 9.7 0 18.1-2.2 26.9-6.4 8.8-4.3 16-11.2 21.4-21l-29.8-4.8c-4.3 5.9-10.7 12.2-18 12.2-10.7 0-16.1-5.4-17.2-18.6 0-15 2.9-26.3 11.5-33.5 5.7-5 13.6-9 19.6-2.7 2.6 2.8 4.4 7.7 4.4 12.7 0 2.4 0 4.1-.4 5.4l-35.1 18.1h62.3c2.3-2.2 3.3-7.8 3.7-12.9-.3 3.7-.9 7.7-2.1 10.4-3.6-10.9-12.3-21.6-30-29.6-.8-1.7-1.8-3.2-2.8-4.4-4.2-4.2-9.1-3.7-13.6-1.3-9.5-2.7-20.6-4.7-33.7-6zm-224.4 1.3l-.4 3.4L476 95c-14.1 2.8-29.1 5.8-44.4 9.2l18.1-19c13.8-3.4 27.6-6.8 41.5-10zm49.2 2.9l-1.2 5.7c-10.5 1.7-21.3 3.4-32.6 5.4l-14.5 67.7h31.5l16.8-78.8zM120.6 89.8c-11.2 0-20 2.9-26.43 8.9-6.2 5.9-9.3 14.1-9.4 24.5v.4c.1 10.4 3.2 18.5 9.4 24.4 6.43 6 15.23 9.1 26.43 9.1 7.9 0 14.9-1.4 21.2-3.8v-8.1c-5.5 2.7-11.2 4-17.3 4-13.5 0-23.3-8.4-23.3-25.9 0-17.7 9.4-25.7 23.3-25.7 6.1 0 11.8 1.4 17.3 3.9v-8.1c-6.3-2.4-13.3-3.6-21.2-3.6zm-98.6.6V156h32.07c16.1 0 23.7-6 23.7-16.8 0-8.7-5.8-14.9-19.6-17.5 11.5-3.7 17.4-8.8 17.4-16.1 0-9.7-7.8-15.2-22.1-15.2H22zm132.5.7v64.4h8.2V112l37.6 44h9.4V91.1h-8.2v44l-37.4-44h-9.6zm643.7 4.1c0 .7 0 1.9-.1 3.2.1-1.3.1-2.5.1-3.2zM37.27 97.5h11c2.9 0 11.3 1.1 11.3 10.3 0 9.7-9.7 10.2-20.7 10.2h-1.6V97.5zm760.83 1.4v0zm-.1 2.8c0 .7-.1 1.4-.1 2.1 0-.7.1-1.4.1-2.1zm-448.8 13.2c0 2.8-.4 5.6-.9 8.2.6-2.7.9-5.4.9-8.2zm-.9 8.3c-39.1 9.5-81.4 20.5-127.4 33.2l-.2.7h76.9c16.6 0 29.4-4.3 38.3-13.1 6.5-6.4 10.6-13.3 12.4-20.8zm-311.03 2.3h1.6c12.3 0 21.4 1.3 21.4 12 0 10.5-9 11.3-16.3 11.3-3.1 0-4.8-.7-5.6-1.5-1.1-1-1.1-3-1.1-7.3v-14.5z"/><path d="M583.3 59.33c-7.8 1.47-15.5 2.93-23.4 4.4l-4.4 20.79c11.4-1.73 22.2-3.2 32.6-4.4l4.4-20.79h-9.2zm139.1 7.86c-2.5 2-4.9 4.27-7 6.8 13.2 1.33 24.4 3.33 33.8 6 4.6-2.4 9.5-2.93 13.6 1.33 1.1 1.2 2 2.67 2.8 4.4 17.8 8 26.4 18.68 30 29.58 2.6-5.7 2.6-16.91 2.6-20.25 0-11.46-5.6-21.32-13.5-29.32-8-7.87-15.1-10.93-29.9-10.93-17.7 0-29.2 9.73-32.4 12.39m-88.1 1.07l-.4-.27 3.2-8.66h-28.9l-4 18.93c36.4-3.87 66.3-4.93 90.5-4-.9-3.87-2.9-7.33-5.9-10.27-4.4-4.53-14.1-6.79-22.9-6.79h-2.8c-12.9 0-19.2.26-28.8 11.06m-123.8 2.67l-4 18.39c11.3-2 22.1-3.73 32.7-5.46l4.2-19.87c-10.9 2.14-21.8 4.54-32.9 6.94m-60.8 14.39l-18.1 18.98c15.3-3.4 30.2-6.45 44.4-9.25l14.8-16.39.4-3.34c-13.9 3.2-27.8 6.54-41.5 10M362 109.3l-2.4 11.2c11.3-2.7 22.4-5.2 33.2-7.7l2.8-13.08c-11.3 3.08-22.5 6.28-33.6 9.58m-141 46.5l-.2.7c46-12.7 88.4-23.7 127.5-33.2.5-2.7.9-5.5.9-8.3 0-.6 0-1.3-.1-2-45.8 13.8-89.5 28.4-128.1 42.8" opacity=".5"/></svg>