<svg viewBox="0 0 333 108" xmlns="http://www.w3.org/2000/svg"><path class="logotype logotext" d="M61.76 22v.1c2.39.8 4.62 1.92 6.65 3.25 2.03 1.35 3.85 2.96 5.45 4.72 3.16 3.56 5.32 7.83 6.43 12.3 2.18 8.93.34 18.78-5.16 25.57-1.38 1.68-2.93 3.17-4.67 4.38-1.74 1.2-3.63 2.12-5.59 2.7-.99.29-2 .49-3.01.6-.52.1-1.01.1-1.49.1h-1.54c-1.97-.14-3.93-.62-5.78-1.48-3.73-1.66-7.01-4.72-9.51-8.54-2.46-3.73-4.12-8.17-5.37-13 0-.16-.1-.31-.1-.46h-.1c-1.52 4.62-1.53 9.8-.1 14.7 1.43 4.9 4.42 9.56 8.69 12.84 2.11 1.64 4.6 2.92 7.08 3.76 2.64.85 5.29 1.28 8 1.28 5.4 0 10.66-1.69 15.05-4.52 8.85-5.64 14.27-15.54 15.13-25.44.45-5-.2-10.07-2.05-14.64-1.77-4.52-4.78-8.55-8.62-11.25 3.16 3.48 5.21 7.68 6.26 12.01 1.03 4.4 1.08 8.94.21 13.26-.45 2.16-1.08 4.26-1.93 6.3-.84 1.97-.84 1.97 0 0 .59-1.43 1.06-2.85 1.45-4.32.49-5.24-.14-10.52-1.94-15.4-1.87-5.12-5.11-9.68-9.25-13-4.09-3.37-9.14-5.44-14.19-5.82zm19.39 6.97l-.1-.1s.1.1.11.1zm-28.32-5.78c-5.4-.1-10.69 1.53-15.12 4.3-8.94 5.5-14.51 15.31-15.52 25.21-.53 4.98 0 10.06 1.82 14.65 1.73 4.6 4.72 8.71 8.57 11.47-3.15-3.55-5.16-7.8-6.15-12.2-.96-4.4-.94-8.96 0-13.25.14-.63.3-1.24.47-1.86-.63 5.47 0 10.98 1.86 16.07 1.87 5.09 5.11 9.66 9.24 12.99 4.1 3.36 9.15 5.43 14.2 5.81h.1v-.1c-2.39-.78-4.62-1.9-6.66-3.22a29.72 29.72 0 0 1-5.44-4.72c-3.17-3.56-5.33-7.83-6.43-12.3-2.18-8.94-.35-18.78 5.16-25.56 1.37-1.68 2.93-3.19 4.67-4.39 1.73-1.2 3.62-2.12 5.59-2.71.99-.28 1.99-.49 3.01-.6.52-.1 1.01-.1 1.49-.1h1.54c1.97.13 3.93.62 5.78 1.47 3.73 1.67 7 4.72 9.51 8.55 2.39 3.63 4.02 7.93 5.26 12.62.1.28.1.55.14.84h.1c1.56-4.61 1.66-9.78.29-14.72-1.35-4.92-4.26-9.62-8.49-12.97-2.08-1.67-4.54-2.99-7.01-3.87-2.63-.89-5.27-1.31-7.98-1.41zM27.91 48.46c-.1.16-.12.32-.18.48.1-.16.12-.32.18-.48zm-.38 1.04zM195 43.16h6.1v9.66h.9l6.4-9.66h6.6l-8 11.97v.1l8.4 12.99h-6.9L202 58.06h-.9v10.16H195V43.19m-13.8-.45c6.2 0 9.4 3.52 9.4 3.52l-2.8 4.63s-2.8-2.55-6.3-2.55c-4.8 0-7.1 3.53-7.1 7.14 0 3.71 2.5 7.53 7.1 7.53 3.8 0 6.7-3.08 6.7-3.08l3.1 4.48s-3.5 4.2-10.1 4.2c-7.8 0-13.1-5.57-13.1-12.99 0-7.28 5.6-12.88 13.1-12.88m-25.6 6.12s-.6 2.72-1 4.31l-1.5 4.85h5l-1.4-4.85c-.5-1.59-1-4.31-1-4.31h-.1zm3.9 14.07h-7.8l-1.5 5.25h-6.3l8.5-25.02h6.4l8.5 25.02H161l-1.5-5.25m-34.2-19.77h6.1v19.77h10.2v5.26h-16.3V43.16m-12.1 19.77c1.8 0 2.6-1.23 2.6-2.63s-.8-2.54-2.5-2.54h-4.7v5.17h4.6zm-.5-10.08c1.5 0 2.2-1.12 2.2-2.31 0-1.16-.7-2.13-2.3-2.13h-4v4.44h4.1zm-10.2-9.69h10.1c5 0 8.5 2.24 8.5 6.54 0 2.1-1 4.24-2.9 5.32v.1c2.9.87 3.9 3.42 3.9 5.62 0 5.47-4.5 7.47-9.5 7.47h-10.1V43.18m192.9.5h1.5V54.6h1.2l11.3-10.92h1.9l-11.9 11.54v.11l12.4 12.89h-1.9l-11.8-12.18h-1.2v12.18h-1.5V43.7m-14.9-.44c5.8 0 8.8 3.08 8.8 3.08l-.9 1.12s-2.9-2.76-7.8-2.76c-6 0-10.6 4.72-10.6 11.06 0 6.37 4.5 11.41 10.7 11.41 5.2 0 8.3-3.32 8.3-3.32l.9 1.05s-3.3 3.71-9.2 3.71c-7.2 0-12.3-5.75-12.3-12.85 0-7.11 5.2-12.5 12.1-12.5m-34.8.42h1.5V59.7c0 4.64 3 7.47 7.6 7.47s7.7-2.83 7.7-7.53V43.68h1.5v16.1c0 5.4-3.8 8.83-9.2 8.83-5.4 0-9.1-3.43-9.1-8.83v-16.1m-18.2 23.1c6.5 0 10.9-3.81 10.9-10.85 0-7-4.4-10.85-10.9-10.85h-5.9v21.7h5.9zm-7.4-23.1h7.7c7.2 0 12.2 4.48 12.2 12.25 0 7.81-5 12.25-12.2 12.25h-7.7v-24.5"/></svg>