<svg xmlns="http://www.w3.org/2000/svg" viewBox="0 0 196 196"><path d="M98.1 5C46.7 5 5 46.7 5 98c0 24.9 9.7 48.3 27.2 65.9 17.6 17.6 41 27.3 65.9 27.3 24.8 0 48.2-9.7 65.8-27.3 17.6-17.6 27.3-41 27.3-65.9 0-24.8-9.7-48.2-27.3-65.8C146.3 14.6 122.9 5 98.1 5zm0 3.2c24 0 46.5 9.3 63.5 26.3S187.9 74 187.9 98c0 49.6-40.3 89.9-89.8 89.9-24 0-46.6-9.3-63.6-26.3S8.2 122.1 8.2 98c0-24 9.3-46.5 26.3-63.5S74.1 8.2 98.1 8.2zm0 3.7c-47.6 0-86.2 38.6-86.2 86.1 0 47.6 38.6 86.2 86.2 86.2s86.1-38.6 86.1-86.2c0-47.5-38.5-86.1-86.1-86.1zm-12.7 4.6h6.9l6.2 16.2 6.2-16.2h6.8v22.8h-4.6V23.4L101 39.3h-5l-6-15.9v15.9h-4.6V16.5zM150 33.9l3.5 4.3-8.9 11.7 13.6-5.8 3.8 4.6-8.6 12.1 13.3-6.3 3.5 4.4L149.3 69l-4.1-5.1 8.2-12.1-13.4 5.5-4.2-5.1L150 33.9zM45 37.2c1 0 1.9.4 2.9 1.1.9.8 1.3 1.1 2.5 3.2.2.7.4 2-.1 3.4 2.6-1.6 5.5-1.2 7.3.6 2.8 2.7 2.4 6-.3 9.1L45.7 68.5 28.3 53.9l11-13.2c1.6-1.9 3.6-3.5 5.7-3.5zM98.1 43c30.3 0 55 24.7 55 55 0 30.4-24.7 55.1-55 55.1C67.7 153.1 43 128.4 43 98c0-30.3 24.7-55 55.1-55zm-54.6.3c-.7 0-1.4.2-1.7.7l-6.7 7.9 4.1 3.4 6.6-7.8c.8-1 .8-2.4-.4-3.5-.6-.4-1.3-.7-1.9-.7zm54.6 3.3c-28.5 0-51.5 23-51.5 51.4h51.5V46.6zm0 51.4v51.5c28.4 0 51.5-23 51.5-51.5H98.1zm-47-49.3c-.7 0-1.5.3-1.9.8l-7 8.3 4.3 3.7 6.9-8.3c1-1.1.8-2.8-.5-3.9-.5-.4-1.2-.6-1.8-.6z"/></svg>