<svg xmlns="http://www.w3.org/2000/svg" viewBox="87 0 426 200"><path d="M366.308 106.537c0 11.293.02 22.582-.012 33.873-.01 4.106-.22 8.214-.18 12.32.018 1.835-.59 2.502-2.44 2.436-3.822-.133-8.582 1.265-11.202-.527-2.45-1.677-.64-6.757-.63-10.318.048-22.243.326-44.486.386-66.73.01-3.63.797-5.435 4.945-4.978 3.782.416 7.654.237 11.47.03 2.46-.136 3.338.764 4.02 3.108 5.188 17.756 10.413 35.504 16.427 53.004.268.777.625 1.522 1.365 3.31 2.67-8.106 5.134-15.29 7.396-22.536 3.49-11.186 6.93-22.39 10.193-33.647.718-2.49 1.758-3.397 4.354-3.247 3.955.23 7.95.277 11.897-.01 2.96-.215 3.567 1.055 3.58 3.61.03 8.07.253 16.14.317 24.21.14 17.003.16 34.006.408 51.008.042 2.92-.603 4.078-3.68 3.728-3.624-.41-8.73 1.535-10.557-.723-1.937-2.396-.99-7.26-1.014-11.05-.08-12.58-.03-25.16-.734-37.88-2.075 6.353-4.097 12.722-6.238 19.055-3.074 9.093-6.318 18.13-9.3 27.252-.834 2.554-2.034 3.422-4.778 3.378-8.634-.14-8.663.003-11.47-8.2-4.612-13.475-9.187-26.967-13.775-40.452l-.747-.026zM434.647 72.695c4.773 0 9.3.115 13.82-.045 2.414-.086 2.624 1.41 3.104 3.124 4.784 16.995 9.548 33.995 15.123 50.756.31.927.365 1.96 1.482 2.813a852.01 852.01 0 0 0 15.53-51.253c1.214-4.523 3.07-6.082 7.452-5.42 3.14.474 7.49-1.426 9.138.85 1.152 1.588-1.113 5.73-1.978 8.697-6.828 23.47-14.36 46.717-22.004 69.93-.946 2.882-2.2 3.873-5.285 3.823-11.017-.177-11.016-.048-14.587-10.813a1553.033 1553.033 0 0 1-20.85-68.068c-.374-1.343-.588-2.73-.943-4.395zM329.616 111c6.195 2.79 10.91 6.39 13.007 12.6 4.646 13.768-3.473 27.048-18.935 30.402-10.352 2.247-20.925.788-31.39 1.136-2.41.08-1.758-1.733-1.768-2.984-.05-5.813-.014-11.628-.014-17.442.002-19.428.06-38.857-.066-58.283-.02-2.932.71-3.88 3.74-3.8 9.9.262 19.856-.488 29.65 1.684 12.588 2.792 19.2 14.028 15.39 26.118-1.437 4.558-3.472 6.866-9.614 10.57zm-11.382 30.653c6.09-1.446 8.99-4.978 9.033-11.003.048-6.285-2.834-10.428-8.764-11.757-3.278-.734-6.726-.68-10.088-1.038-1.854-.198-2.505.56-2.446 2.398.1 3.248.028 6.502.028 9.753 0 13.864.58 14.418 12.236 11.647zm-12.24-44.755c0 9.573 1.34 10.517 10.877 7.677 5.482-1.635 7.97-5.692 6.97-11.38-1-5.668-6.534-8.817-15.377-7.818-5.248.594-1.283 5.2-2.433 7.712-.216.466-.03 1.117-.032 1.684-.004.71-.004 1.417-.004 2.124zM311.026 56.917c0 1.553-.09 3.113.03 4.658.086 1.077-.404 1.6-1.224 2.087-7.434 4.432-16.173.484-17.645-8.025-.67-3.878-.478-7.71 1.34-11.29 1.77-3.486 4.698-5.333 8.58-5.626 2.637-.197 5.214.018 7.644 1.232.785.39 1.204.728.81 1.683-.368.894-.27 2.246-.892 2.7-.728.532-1.587-.662-2.443-1-4.823-1.905-8.772.17-9.788 5.258-.603 3.018-.522 6.003.82 8.842 1.27 2.688 3.56 4.018 6.16 3.67 1.088-.147 1.807-.51 1.636-1.847-.128-1.005-.107-2.048 0-3.058.12-1.117-.354-1.365-1.34-1.267-.702.07-1.432-.074-2.124.033-1.256.197-1.442-.367-1.413-1.47.075-2.74.023-2.743 2.774-2.745 2.043 0 4.086.034 6.126-.016.774-.018.985.245.966.988-.048 1.733-.016 3.465-.016 5.195zM337.002 62.784c-1.646 1.93-3.335 2.726-5.516 2.385-2.527-.398-3.95-1.706-4.448-4.214-.385-1.94-.19-3.892-.217-5.84-.032-2.616.03-5.234-.03-7.85-.02-.89.253-1.18 1.116-1.085 1.176.128 2.745-.5 3.428.265.58.656.2 2.188.204 3.333.014 2.927-.012 5.855.01 8.784.015 2.015.762 2.933 2.29 2.92 1.55-.01 2.995-1.476 3.005-3.116.02-3.682.043-7.365-.017-11.045-.015-.958.27-1.225 1.186-1.146 1.096.096 2.56-.352 3.212.202.76.647.242 2.155.25 3.287.03 4.7-.012 9.404.03 14.107.01.88-.244 1.19-1.104 1.084a7.373 7.373 0 0 0-1.463-.006c-1.243.097-2.46.198-1.935-2.064zM318.788 48.59c1.322-1.94 2.917-2.755 4.99-2.686.774.026 1.04.272.89 1.023-.062.3-.054.617-.06.928-.03 1.33-.28 2.207-2.046 2.03-1.968-.197-3.953 2.002-3.83 4.05.198 3.27.02 6.56.076 9.842.016.888-.247 1.168-1.103 1.074-1.134-.12-2.645.484-3.307-.25-.557-.624-.19-2.103-.19-3.204-.01-4.7.012-9.4-.023-14.1-.005-.824.148-1.258 1.07-1.116.39.06.797.012 1.197.012 2.128 0 2.128 0 2.336 2.398zM349.21 63.42c0 2.84-.025 5.37.014 7.896.014.802-.12 1.168-1.065 1.176-3.533.028-3.53.067-3.53-3.476 0-7.19.025-14.383-.028-21.574-.01-1.09.326-1.367 1.327-1.268.79.08 1.594.01 2.395.018.415.004.928-.156.895.59-.026.528.3.26.51.16 5.116-2.473 8.954-.578 9.99 5.01.54 2.912.47 5.84-.453 8.68-1.108 3.402-3.91 5.114-7.146 4.497-1.074-.204-1.94-.773-2.91-1.71zm-.007-4.214c-.012.53.165.914.523 1.295 1.724 1.843 4.08 1.325 4.974-1.182.697-1.953.736-3.985.414-6.033-.174-1.113-.437-2.16-1.21-3.033-.842-.952-1.92-1.17-3.02-.75-1.064.41-1.83 1.152-1.694 2.52.11 1.1.023 2.217.023 3.325 0 1.287.018 2.573-.01 3.86zM377.927 55.05c-.088 1.73-.23 3.27-.75 4.752-1.233 3.53-3.892 5.475-7.492 5.472-3.573-.003-6.3-1.98-7.448-5.53-.984-3.036-1.018-6.114.128-9.117 1.316-3.455 4.546-5.326 8.256-4.905 3.824.434 6.407 2.945 7.026 6.858.137.874.2 1.76.28 2.47zm-5.517-3.79c-.54-1.15-1.348-1.99-2.735-1.966-1.376.026-2.243.842-2.686 2.03-1.07 2.853-1.01 5.73.164 8.54.472 1.128 1.316 1.856 2.665 1.82 1.297-.036 2.016-.818 2.504-1.87.647-1.392.81-2.887.82-4.405.008-1.43-.118-2.84-.734-4.15zM187.723 31.36c-3.62-9.664-9.882-15.382-19.346-19.316h37.89c-9.093 3.853-15.292 9.576-18.544 19.315zm-.227 14.37c0-16.05-12.877-28.957-28.886-28.957V74.69L187.496 104l28.538-29.31V16.773c-15.666 0-28.538 12.907-28.538 28.957zm0 116.19c0 15.7 12.872 28.608 28.538 28.608V132.61H158.61v57.918c16.01 0 28.886-12.907 28.886-28.608zm-57.77-58.27c-15.66.35-28.538 13.26-28.538 28.96h57.422V74.69h-57.422c0 16.05 12.878 28.96 28.537 28.96zm115.193 0c16.008 0 28.537-12.91 28.537-28.96h-57.422v57.92h57.422c0-15.7-12.53-28.61-28.538-28.96z"/></svg>