<svg xmlns="http://www.w3.org/2000/svg" viewBox="0 0 265.8 89.4"><path d="M64.39 5.492c-12.86 0-21.43 11.188-21.43 24.668 0 1.22.11 2.43.25 3.59h-.13c-2.59-3.68-7.77-5.51-13.97-5.78v-.13c6.74-1.36 11.32-4.78 11.32-10.5 0-8.72-9.38-10.88-16.94-10.88-2.04 0-6.7.126-8.13.126-3.34 0-6.935-.06-10.066-.125v.72c0 .41.06.625.47.625 5.506.207 5.526.958 5.526 9.475v24.63c0 8.5 0 9.26-5.465 9.47-.48 0-.53.21-.53.62v.75c3.196-.1 6.265-.12 9.525-.12 4.1 0 5.85.12 11.23.12 11.3 0 18.34-5.37 18.81-12.25h.13c3.47 8.1 11.02 13.19 21.03 13.19 4.69 0 9.05-1.49 12.59-4.35h.1l.59 3.54c.1.27.28.34.75.34h.41c0-2.25 0-8.38.12-12.94h.16c3.4 8.44 11.08 13.41 20.36 13.41 9.1 0 12.4-5.66 16.3-5.66.4 0 .5-.11.5-.65 0-.68-.1-2.66-.1-3.82v-3.12c0-5.79 0-6.55 3.9-6.75.5 0 .5-.22.5-.63v-.75c-3.2.1-5.3.16-8.5.16-3.4 0-7.4-.1-10.5-.16v.75c0 .41.1.63.5.63 6.9.2 6.9.96 6.9 6.4v4.35c0 4.63-3 7.5-9.1 7.5-10.09 0-14.45-9.75-14.45-22 0-11.58 3.15-22.667 14.35-22.667 6.3 0 11.6 4.277 12 12.037 0 .48.3.5.6.5h.7c-.1-3.13-.2-10.648-.2-13.85h-.4c-.4 0-.6.07-.7.345l-.6 3.406h-.1c-3.2-2.927-7.7-4.218-12-4.218-13.16 0-21.87 11.188-21.87 24.668 0 2.24.18 4.34.66 6.31l-.13 1.91c-.75 10.34-6.79 13.56-13.18 13.56-10.15 0-15-9.34-15-22 0-11.51 2.86-22.667 14.03-22.667 5.65 0 10.54 3.617 11.56 9.537.1.48.28.47.62.47h.69c-.07-3.14-.16-8.118-.16-11.32h-.4c-.48 0-.68.07-.75.345l-.6 3.343h-.1c-3.09-2.858-7.45-4.156-11.68-4.156zm-40.65 2.72c5.71.07 9.34 3.418 9.34 9.758 0 7.08-4.37 9.59-11.59 9.59h-2.85V9.023c0-.477.1-.62.75-.687.96-.06 3.25-.125 4.35-.125zm-5.1 20.978h2.72c8.17 0 15.6 1.96 15.6 10.75 0 6.94-4.08 11.03-11.22 11.03-6.13 0-7.1-1.02-7.1-9.53zM136.2 70.94c-3.5 0-5.5 2.83-5.5 6.4 0 4.29 2.4 6.57 5.7 6.57 1.8 0 2.8-.49 3.3-.72h.1l.3.47c0 .12.1.12.2.12h.3v-4.03h-.5c-.1 0-.1 0-.1.12-.3 2.27-1.5 3.19-3.4 3.19-2.6 0-3.9-2.15-3.9-5.75 0-2.67.6-5.56 3.5-5.56 1.7 0 2.7 1.03 3.1 2.91 0 .12.1.12.2.12h.4v-3.72h-.3c-.1 0-.2 0-.2.13l-.3.4c-.7-.41-1.7-.65-2.9-.65zm84.8 0c-3.8 0-5.6 2.87-5.6 6.4 0 4.33 2.4 6.57 5.7 6.57 2.6 0 3-1.53 4.1-1.54.1 0 .2-.1.2-.18 0-.19-.1-.73-.1-1.03v-.47c0-1.56 0-1.58 1.1-1.82.1 0 .2-.1.2-.15v-.6c-.9 0-1.5.1-2.3.1-.9 0-1.7 0-2.5-.1v.6c0 .1 0 .14.1.15 1.8.24 1.8.26 1.8 1.72v.53c0 1.22-1 1.97-2.5 1.97-3 0-3.8-2.95-3.8-5.75 0-2.63.6-5.59 3.6-5.59 1.7 0 2.7.93 3.1 2.72.1.12.1.12.2.12h.4v-3.53h-.3c-.1 0-.2 0-.2.13l-.3.4c-.7-.41-1.7-.65-2.9-.65zm-175.01.28v3.5h.47c.12 0 .14 0 .15-.13.29-2.37 1.08-2.53 2.63-2.53h1.15c.19 0 .22.1.22.19v8.19c0 2.28 0 2.31-1.4 2.56-.13 0-.13 0-.13.16v.5h4.75v-.5c0-.11 0-.15-.12-.16-1.42-.25-1.41-.28-1.41-2.56v-8.19c0-.12 0-.19.19-.19h1.19c1.53 0 2.29.2 2.59 2.22 0 .11.1.13.19.13h.47v-3.19H46.03zm29.59 0v.47c0 .11 0 .14.13.15 1.38.25 1.4.28 1.4 2.57v6.03c0 2.28 0 2.31-1.4 2.56-.12 0-.13 0-.13.16v.5h4.97c3.14 0 5.06-1.58 5.06-3.5 0-2.12-1.9-3.05-3.94-3.16v-.1c1.48-.32 2.72-1.24 2.72-2.82 0-2.34-2.52-2.9-4.56-2.9h-4.25zm4.59.78c1.55 0 2.54.65 2.54 2.28 0 1.81-1.11 2.47-3.13 2.47h-.78v-4.53c0-.12 0-.17.22-.19h1.15zm10.41 2.87c-2.21 0-4.12 1.47-4.12 4.63 0 2.65 1.79 4.34 4.12 4.34 2.2 0 4.13-1.47 4.13-4.62 0-2.66-1.8-4.35-4.13-4.35zm7.38 0c-1.48 0-2.6 1.01-2.6 2.47 0 2.91 4.41 2.22 4.41 4.5 0 .79-.69 1.29-1.78 1.28-1.19 0-1.85-.67-2.1-2.03 0-.1-.1-.1-.12-.1h-.41v2.75h.25c.1 0 .14 0 .19-.1l.22-.32c.48.28 1.03.47 2 .47 1.48 0 2.98-.83 2.98-2.65 0-2.92-4.42-2.22-4.42-4.5 0-.55.39-1.1 1.35-1.1 1.08 0 1.64.85 1.9 1.94 0 .1.1.1.13.1h.34v-2.53h-.2c-.12 0-.15 0-.21.1l-.18.28c-.45-.45-1.15-.6-1.75-.6zm15.34 0c-2.2 0-4.1 1.47-4.1 4.63 0 2.65 1.7 4.34 4.1 4.34 2.2 0 4.1-1.47 4.1-4.62 0-2.66-1.8-4.35-4.1-4.35zm32.3 0c-2.2 0-4.1 1.47-4.1 4.63 0 2.65 1.8 4.34 4.1 4.34 2.2 0 4.1-1.47 4.1-4.62 0-2.66-1.8-4.35-4.1-4.35zm17.2 0c-1.5 0-2.6 1.01-2.6 2.47 0 2.91 4.4 2.22 4.4 4.5 0 .79-.7 1.29-1.8 1.28-1.2 0-1.8-.67-2.1-2.03 0-.1 0-.1-.1-.1h-.4v2.75h.3c.1 0 .1 0 .1-.1l.3-.32c.4.28 1 .47 2 .47 1.4 0 3-.83 3-2.65 0-2.92-4.5-2.22-4.5-4.5 0-.55.4-1.1 1.4-1.1 1.1 0 1.7.81 1.9 1.72 0 .1 0 .1.1.1h.4v-2.47h-.3c-.1 0-.1 0-.2.12l-.2.28c-.5-.34-1.1-.47-1.7-.47zm45.3 0c-2.7 0-4 2-4 4.44 0 2.97 1.7 4.53 4 4.53 1.9 0 2.4-.93 3.1-.93.1 0 .2 0 .2-.13s-.1-.5-.1-.72v-.4c0-1.05 0-1.06.8-1.22.1 0 .1 0 .1-.13v-.4h-3.8v.4c0 .1 0 .11.1.13 1.4.15 1.4.15 1.4 1.12v.28c0 .84-.6 1.35-1.6 1.35-2 0-2.6-2.03-2.6-3.88 0-1.79.4-3.72 2.5-3.72 1.1 0 1.8.63 2.1 1.85 0 .1 0 .1.1.1h.4v-2.59h-.3c-.1 0-.1 0-.2.12l-.2.28c-.5-.3-1.1-.47-2-.47zm31.3 0c-2.2 0-4.1 1.47-4.1 4.63 0 2.65 1.8 4.34 4.1 4.34 2.2 0 4.1-1.47 4.1-4.62 0-2.66-1.7-4.35-4.1-4.35zm-184.19.22v.41c0 .1 0 .12.1.12 1.08.17 1.09.2 1.09 1.75v3.97c0 1.58 0 1.6-1.09 1.75-.1 0-.1 0-.1.13v.44h3.84v-.44c0-.1 0-.11-.1-.13-1.07-.15-1.07-.17-1.07-1.75v-1.78h3.85v1.78c0 1.58 0 1.6-1.06 1.75-.1 0-.1 0-.1.13v.44H64.38v-.44c0-.1 0-.11-.1-.13-1.06-.15-1.06-.17-1.06-1.75v-3.97c0-1.55 0-1.58 1.06-1.75.1 0 .1-.1.1-.12v-.41H60.57v.41c0 .1 0 .12.1.12 1.07.17 1.06.2 1.06 1.75v1.47h-3.85v-1.47c0-1.55 0-1.58 1.07-1.75.1 0 .1-.1.1-.12v-.41h-3.84zm9.84 0v.41c0 .1 0 .12.13.12 1.08.17 1.06.2 1.06 1.75v3.97c0 1.58 0 1.6-1.06 1.75-.1 0-.13 0-.13.13v.44h6.91v-2.57h-.41c-.1 0-.11 0-.12.1-.2 1.45-.7 1.75-1.75 1.75h-.82c-1.14 0-1.18-.14-1.18-1.72v-1.81h.15c1.05 0 1.32.13 1.44 1.18 0 .1 0 .1.12.1h.41v-1.41-1.59h-.41c-.1 0-.11 0-.12.1-.12.95-.39 1.12-1.44 1.12h-.15v-2.93c0-.1 0-.16.15-.16h1.19c1.06 0 1.58.19 1.78 1.53 0 .1 0 .1.13.1h.37v-2.28h-6.25zm36.15 0v2.53h.4c.1 0 .1 0 .1-.1.2-1.64.7-1.78 1.8-1.78h.7c.1 0 .1.1.1.16v5.4c0 1.58 0 1.6-1 1.75-.1 0-.1 0-.1.13v.44h3.8v-.44c0-.1 0-.11-.1-.13-1.1-.15-1.1-.17-1.1-1.75v-5.4c0-.1 0-.16.2-.16h.7c1 0 1.6.14 1.8 1.78 0 .1 0 .1.1.1h.4v-2.53h-7.8zm16.6 0v.41c0 .1 0 .12.1.12 1.1.17 1.1.2 1.1 1.75v2.69c0 2.6 0 2.88-1.1 3.03-.1 0-.1 0-.1.13v.44h3.7v-.44c0-.1-.1-.11-.1-.13-1.5-.14-1.5-.43-1.5-3.03v-3.34l4.1 5.81c.3.44.6.9.9 1.31h1v-5.22c0-2.57 0-2.83 1.1-3 .1 0 .1-.1.1-.12v-.41h-3.7v.41c0 .1 0 .12.1.12 1.5.16 1.5.43 1.5 3v2.72l-4.4-6.25h-2.8zm32.3 0v.41c0 .1.1.12.2.12 1 .17 1 .2 1 1.75v2.69c0 2.6 0 2.88-1 3.03-.1 0-.2 0-.2.13v.44h3.7v-.44c0-.1 0-.11-.1-.13-1.5-.14-1.5-.43-1.5-3.03v-3.34h.1l4 5.81c.3.44.7.9.9 1.31h1v-5.22c0-2.57.1-2.83 1.1-3 .1 0 .1-.1.1-.12v-.41h-3.7v.41c0 .1 0 .12.1.12 1.5.16 1.5.43 1.5 3v2.72l-4.3-6.25h-2.9zm16.1 0v.41c0 .1 0 .12.1.12 1.1.17 1.1.2 1.1 1.75v3.25c0 2.2 1.1 3.22 3.5 3.22 2.1 0 3.2-1.02 3.2-3.34v-1.88c0-2.65 0-2.83 1-3v-.53h-3.4v.53c1.6.19 1.5.37 1.5 3v2.1c0 1.45-.7 2.22-2.1 2.22-1.6 0-2.2-.83-2.2-2.1v-3.47c0-1.55-.1-1.58 1-1.75.1 0 .1-.1.1-.12v-.41h-3.8zm9.5 0v.41c0 .1 0 .12.1.12 1.1.17 1.1.2 1.1 1.75v3.97c0 1.58 0 1.6-1.1 1.75-.1 0-.1 0-.1.13v.44h6.7v-2.79h-.4c-.1 0-.1 0-.1.1-.2 1.61-.7 1.97-1.8 1.97h-.6c-1.1 0-1.1-.13-1.1-1.72v-3.85c0-1.55 0-1.58 1.3-1.75.1 0 .1-.1.1-.12v-.41h-4.1zm6 0v2.53h.4c.1 0 .1 0 .1-.1.2-1.64.7-1.78 1.8-1.78h.7c.1 0 .2.1.2.16v5.4c0 1.58 0 1.6-1.1 1.75-.1 0-.1 0-.1.13v.44h3.8v-.44c0-.1 0-.11-.1-.13-1.1-.11-1.1-.13-1.1-1.71v-5.4c0-.1 0-.16.2-.16h.7c1 0 1.6.14 1.8 1.78 0 .1 0 .1.1.1h.4v-2.53h-7.8zm8.2 0v.41c0 .1.1.12.2.12 1 .17 1 .2 1 1.75v3.97c0 1.58 0 1.6-1 1.75-.1 0-.2 0-.2.13v.44h3.9v-.44c0-.1 0-.11-.1-.13-1.1-.15-1.1-.17-1.1-1.75v-3.97c0-1.55 0-1.58 1.1-1.75.1 0 .1-.1.1-.12v-.41h-3.9zm4.5 0v.41c0 .1 0 .12.2.12 1 .17 1 .2 1 1.75v2.69c0 2.6 0 2.88-1 3.03-.1 0-.2 0-.2.13v.44h3.7v-.44c0-.1 0-.11-.1-.13-1.5-.14-1.5-.43-1.5-3.03v-3.34h.1l4 5.81c.3.44.7.9.9 1.31h1v-5.22c0-2.57 0-2.83 1.1-3 .1 0 .1-.1.1-.12v-.41H200v.41c0 .1 0 .12.1.12 1.5.16 1.5.43 1.5 3v2.72l-4.4-6.25h-2.8zm32.4 0v.41c0 .1.1.12.2.12 1 .17 1 .2 1 1.75v3.97c0 1.58 0 1.6-1 1.75-.1 0-.2 0-.2.13v.44h3.9v-.44c0-.1 0-.11-.1-.13-1.1-.15-1.1-.17-1.1-1.75v-1.81h.9c1.1 0 1.3.66 1.6 1.88.3 1.26.6 2.34 1.8 2.34.6 0 1.1-.29 1.5-.75v-.1-.1l-.3-.31c-.1.15-.3.35-.6.35-1 0-.2-3.23-2.8-3.72 1.8-.28 2.4-1.17 2.4-2.07 0-1.49-1.6-2-3.3-2h-3.9zm17.1 0v.41c0 .1 0 .12.1.12 1.1.17 1.1.2 1.1 1.75v3.25c0 2.2 1.1 3.22 3.5 3.22 2.2 0 3.3-1.02 3.3-3.34v-1.88c0-2.65 0-2.83.9-3 .1 0 .1-.1.1-.12v-.41h-3.5v.41c0 .1 0 .12.1.12 1.5.19 1.5.37 1.5 3v2.1c0 1.45-.7 2.22-2.2 2.22-1.6 0-2.2-.83-2.2-2.1v-3.47c0-1.55 0-1.58 1.1-1.75.1 0 .1-.1.1-.12v-.41h-3.9zm9.5 0v.41c0 .1 0 .12.1.12 1.1.17 1.1.2 1.1 1.75v3.97c0 1.58 0 1.6-1.1 1.75-.1 0-.1 0-.1.13v.44h4.1v-.44c0-.1 0-.11-.1-.13-1.3-.15-1.3-.17-1.3-1.75v-1.22h.7c3.1 0 3.8-1.51 3.8-2.78 0-1.83-2-2.25-3.5-2.25h-3.7zm-162.94.5c1.52 0 2.59 1.03 2.59 3.72 0 2.55-.8 3.82-2.38 3.81-1.52 0-2.56-1.04-2.56-3.71 0-2.55.77-3.82 2.35-3.82zm22.74 0c1.5 0 2.5 1.03 2.5 3.72 0 2.55-.8 3.82-2.3 3.81-1.5 0-2.6-1.04-2.6-3.71 0-2.55.8-3.82 2.4-3.82zm32.3 0c1.6 0 2.6 1.03 2.6 3.72 0 2.55-.8 3.82-2.4 3.81-1.5 0-2.6-1.04-2.6-3.71 0-2.55.9-3.82 2.4-3.82zm93.8 0c1.5 0 2.6 1.03 2.6 3.72 0 2.55-.8 3.82-2.4 3.81-1.5 0-2.5-1.04-2.5-3.71 0-2.55.7-3.82 2.3-3.82zm-9.3.19h.7c.9 0 1.7.41 1.7 1.47 0 1.2-.8 1.66-2.1 1.66h-.8v-3c0-.1.2-.12.5-.13zm26.5 0h.6c1.1 0 1.9.5 1.9 1.69 0 1.4-.8 1.97-2.3 1.97h-.6v-3.53c0-.1.1-.12.4-.13zM78.8 77.47h.78c2.64 0 4.16.69 4.16 2.69 0 1.83-1.12 2.65-3.25 2.65-1.65 0-1.69-.18-1.69-2.5z"/></svg>