<svg xmlns="http://www.w3.org/2000/svg" viewBox="0 0 506.5 450.6"><path d="M201.3 41.79c-87.2 0-159.5 73.01-159.5 170.81 0 23.2 4.67 44.9 13.02 64.4 24.21 11.9 52.68 10.3 68.78 4.5 4.9-1.7 8.6-3.9 10.7-6.1 5.5 1.7 10.7 3.1 15.8 4.1 6.1 1.2 11.8 2 17.2 2.3.7 0 1.3.1 1.9.1 1.5.1 3 .1 4.4.1 1.3 0 2.5 0 3.8-.1 1.2 0 2.4-.1 3.7-.2 1.2-.1 2.4-.3 3.6-.4 35.5-4.7 66.9-31.3 85-69.5-14.8 12.3-40.4 22.8-80.4 22.8 35.6-8.1 66.3-25.9 82-51.9-11-17.4-22.9-56.1 7.2-86.66-4.6-14.9-27.2-54.25-77.2-54.25zm-.5 44.32c22.2 0 40.3 18.09 40.3 40.29 0 22.3-18.1 40.3-40.3 40.3-22.3 0-40.3-18-40.3-40.3 0-22.3 18-40.29 40.3-40.29zM426.4 221c-19.9 2.1-70.6 7.1-96.2 6.9 33.4 2.6 88.7 7.6 122.9 12.4-2.2-11.2-8.1-14.4-26.7-19.3zm-41.6 19.6c4.3 6.9-14.9 22.8-31.8 14.9 7.9 17.8-26.8 32.6-43.7 19.9 1.8 14.3-32.6 22.6-43.6 6.6 2.8 7.6 5.2 13.4 7.4 18.2v-.1c14.5 15.8 51.1 14.1 50.7-.2 29.2 14.9 54.9 2.1 48.5-12.2 28.9 9.6 49.6-7.8 38.9-22.4 19.8 4.6 32.9-2 38.6-11.4-8.6-2.2-36.2-7.7-65-13.3z" opacity=".2"/><path d="M201.3 22C115.5 22 22 92.79 22 212.6c0 100.8 68.77 189 107.6 189 17 0 31.6-12.7 35-24.1 2.9 7.8 11.7 32.1 14.6 38.3 4.3 9.1 24.1 17.1 32.7 7.6 11.2 6.2 31.6 9.9 42.7-6.6 21.5 4.5 40.4-8.3 40.9-23.5 10.5-.6 15.6-15.4 13.3-27.1-1.7-8.7-19.7-39.8-26.8-50.5 14 11.4 49.4 14.6 53.7 0 22.5 17.7 57.6 8.4 60.4-6 27.3 7.1 58.7-8.5 53.6-27.4 44-3.1 38.3-49.8 26-61.7-23.8-22.9-142.8-37.1-180.3-41.3 1.8-4.3 3.4-8.7 4.6-13.3 5.2-2.2 10.7-4.3 16.4-6.1.7 2.1 4 10 5.8 13.7 75.5 2.1 79.4-56.1 82.5-72 3-15.61 2.8-30.67 28.7-58.19-38.6-11.24-94 17.42-112.6 60.09-7-2.6-14-4.56-20.9-5.76-5-20-30.8-75.74-98.6-75.74zm0 19.79c50 0 72.6 39.35 77.2 54.25-30.1 30.56-18.2 69.26-7.2 86.66-15.7 26-46.4 43.8-82 51.9 40 0 65.7-10.5 80.4-22.9 6.8-5.5 10.7-10.8 12.8-13.9 45.6 3 111.6 15 143.9 23.2 18.6 4.9 24.5 8.1 26.7 19.3-34.2-4.8-89.5-9.8-122.9-12.4-10.2-.8-18.3-1.3-23.2-1.6 8.1 1.2 43.8 7.8 77.8 14.3 28.8 5.6 56.4 11.1 65 13.3-5.7 9.4-18.8 16-38.6 11.4 10.7 14.6-10 32-38.9 22.4 6.4 14.3-19.3 27.1-48.5 12.2.4 14.3-36.2 16-50.7.2v.1c-.4-.9-.9-1.9-1.3-2.9 1.3 3.2 2.5 6.2 3 7.6 5.3 14.6-18.7 69.8-72.8 69.8-64.2 0-122.17-39.1-147.18-97.7-8.35-19.5-13.02-41.2-13.02-64.4 0-97.8 72.3-170.81 159.5-170.81zm210.1 11.93c-23.1 20.95-14.9 64.48-33.9 87.58-5.4-5.5-17.9-16-24.2-20.5 9.4-18.8 21.3-39.28 36.4-51.98-16.6 6.67-32.9 26.6-42.6 47.88-4.9-3.1-9.9-5.9-14.9-8.3 13.4-28.79 44.7-52.81 79.2-54.68zM200.8 102.3c-13.3 0-24.1 10.8-24.1 24.1s10.8 24.1 24.1 24.1 24.1-10.8 24.1-24.1-10.8-24.1-24.1-24.1zm0 4.7a14.06 8.74 0 0 1 14 8.7 14.06 8.74 0 0 1-14 8.7 14.06 8.74 0 0 1-14.1-8.7 14.06 8.74 0 0 1 14.1-8.7zm82.7 1.4c37.8.1 68.4 26.1 77.7 34.7-11.6-4.6-26.3-7.5-36.6-7.5-17.3 0-29 13.5-52.5 6.4 11.1 11.4 30.6 3.1 40.9.6.1 1.8.3 3.6.5 5.3-15.7 3.8-32.2 13.8-37 16.4-10.6-23.5-1.4-45.7 7-55.9zm41.7 32.4c4.3-.1 12.6 1.5 13.9 1.8-.5 2.6-.8 8.1-.8 8.8.8-1.4 3.1-6.2 4-8.1 8.3 1.5 19.1 4.2 25.5 7.1-7.5 4.9-20.2 10.1-37.7 10.5-2.6-5.5-5.2-14.7-4.9-20.1z"/></svg>