<svg xmlns="http://www.w3.org/2000/svg" viewBox="0 0 191 95"><path d="M186 71.35c-1.1 0-1.7-.81-1.5-1.94.2-1.14 1.1-1.94 2.2-1.94s1.7.8 1.5 1.94c-.2 1.12-1.1 1.94-2.2 1.94zm-.1.61c1.4 0 2.7-1.15 3-2.55.2-1.42-.7-2.56-2.1-2.56-1.4 0-2.8 1.14-3 2.56-.3 1.4.7 2.55 2.1 2.55zm1-2.33c.5 0 .8-.23.9-.75.1-.65-.2-.85-.9-.85h-1.4l-.5 2.76h.6l.2-1.16h.5l.4 1.16h.7l-.5-1.16zm-1-.42l.1-.76h.7c.2 0 .6 0 .6.35-.1.35-.3.42-.6.41h-.8zm-28.8 2.73l3.6-20.19h8l1.3 12.59 5.8-12.59h8l-3.6 20.19h-6l1.1-6.16.7-3.15 1-3.65h-.1l-6 12.96h-4.6L165 58.98h-.1l-.2 2.97-.4 3.13-1.2 6.86h-6zm-9.5-15.78c2.9-.1 3.5 2.83 3 5.58-.6 3.33-2.1 5.78-5 5.78-3.2 0-3.4-3.21-2.9-5.78.4-2.55 1.9-5.58 4.9-5.58zm.9-4.94c-6.3 0-11.3 4.12-12.4 10.45-1.2 6.87 2.3 10.79 8.6 10.79 6 0 11.3-3.86 12.5-10.72 1-5.32-1.5-10.52-8.7-10.52zm-19.3 8.24c.2-2.09-.9-3.3-3-3.3-2.3 0-4 1.99-4.7 5.88-.5 2.83-.4 5.49 3 5.49 2.1 0 3.4-1.49 4-3.42h6.4c-1.6 5.21-5.9 8.35-11.2 8.35-6.7 0-10-4.09-8.8-10.64 1.1-6.53 6.3-10.6 11.9-10.6 6.2 0 9.1 3.06 8.7 8.24h-6.3zm-27.4-3.01h1.3c3.5 0 4.7 1.12 4 5.34-.7 3.83-2.7 5.46-5.8 5.46h-1.38l1.88-10.8zm-.6 15.49c6.5 0 11.2-2.9 12.5-10.51 1.2-6.67-2.3-9.68-8.8-9.68h-8.87l-3.56 20.19h8.73zm-17.61-6.86H79.4l3.33-7.24.86 7.24zm-7.41 6.86l1.22-2.66H84l.31 2.66h6.6l-3.68-20.19H80.5L69.7 71.94h6.48zM63.21 56.16c2.93-.1 3.54 2.83 3.05 5.58-.59 3.33-2.14 5.78-4.99 5.78-3.18 0-3.39-3.21-2.94-5.78.45-2.55 1.89-5.58 4.88-5.58zm.93-4.94c-6.28 0-11.3 4.12-12.41 10.45-1.22 6.87 2.33 10.79 8.66 10.79 5.97 0 11.28-3.86 12.49-10.72.94-5.32-1.54-10.52-8.74-10.52zm-24.38 5.23h3.08c1.54 0 2.54.68 2.28 2.11-.24 1.41-1.42 1.93-3.47 1.93h-2.6l.71-4.04zm.52 8.45c3.09 0 3.38.86 2.92 3.51-.32 1.78-.38 3.08-.29 3.53h6.7l.11-.62c-.78 0-.54-.91-.1-3.53.72-4.07-.49-4.58-2.48-5.34 2.47-.66 3.85-2.62 4.27-4.96.69-3.92-1.21-5.74-7.93-5.74h-9.54l-3.56 20.19H37l1.24-7.04h2.02zm-19.5-1.42c2.1 0 3.61.12 3.29 1.91-.27 1.52-1.55 1.86-3.17 1.86h-2.87l.66-3.77h2.09zm1.47-7.03c1.41 0 2.69 0 2.41 1.6-.2 1.18-1.26 1.76-2.58 1.76h-2.74l.59-3.36h2.32zm-1.83 15.49c5.22 0 8.94-1.56 9.74-6.07.38-2.2-.46-4.07-2.55-4.63 1.46-.84 3.08-2.36 3.44-4.43.71-4.01-2.72-5.06-7.27-5.06h-9.65l-3.55 20.19h9.84zM106 47.14h-7.52l-3.22-33.68c-.19-1.71-1.07-1.58-1.07-1.58s-.88-.13-1.08 1.58l-3.23 33.67h-7.55l4.44-36.58c1.25-8.805 7.43-8.43 7.43-8.43s6.2-.398 7.4 8.43l4.4 36.59zM1.835 81.94h9.695c5.25 0 11.85-7.22 20.6-7.13 12.79.14 19.26 12.52 31.51 12.38 8.35-.1 8.49-5.38 11.58-10.63h7.94c-2.28 5.25-5.51 16.69-19.39 16.83-13.99.13-18.04-12.25-31.5-12.25-7.81 0-13.74 6.85-20.87 6.85H1.835v-6.05zm187.065 0h-12.5c-5.3 0-11.9-7.22-20.6-7.13-12.8.14-19.3 12.52-31.5 12.38-8.4-.1-8.5-5.38-11.6-10.63h-7.9c2.2 5.25 5.5 16.69 19.3 16.83 14 .13 18.1-12.25 31.6-12.25 7.8 0 13.7 6.85 20.8 6.85h12.4v-6.05z"/></svg>