<svg xmlns="http://www.w3.org/2000/svg" viewBox="0 0 438.93 144"><path d="M397.85 56.29c2.34-1.93 3.84-4.86 3.84-8.13 0-5.83-4.72-10.54-10.55-10.54h-40.83c10.45 10.56 20.4 15.98 28.19 18.67-7.79 2.67-17.74 8.11-28.19 18.67h40.83c5.82 0 10.55-4.71 10.55-10.54 0-3.27-1.49-6.19-3.84-8.13zm-7.23 12.97h-24.44c9.32-6.5 17.32-9.67 24.44-9.67 2.66 0 4.82 2.17 4.82 4.84 0 2.66-2.16 4.83-4.82 4.83zm0-16.27c-7.12 0-15.12-3.16-24.44-9.66h24.44c2.66 0 4.82 2.17 4.82 4.83 0 2.67-2.16 4.83-4.82 4.83zm18.27-13.44c0 .97-.34 1.8-1.04 2.49-.69.69-1.53 1.04-2.5 1.04s-1.8-.34-2.49-1.04c-.69-.69-1.04-1.52-1.04-2.49 0-.96.35-1.8 1.04-2.49.69-.69 1.52-1.04 2.49-1.04.97 0 1.8.35 2.5 1.04.7.69 1.04 1.52 1.04 2.49zm-.5 0c0-.83-.29-1.55-.89-2.14-.6-.59-1.31-.89-2.14-.89-.83 0-1.54.29-2.14.89-.6.59-.9 1.31-.9 2.14 0 .83.3 1.55.89 2.14.59.59 1.31.89 2.14.89.83 0 1.55-.3 2.14-.89.61-.6.9-1.31.9-2.14zm-1.36 2.05h-.67l-.79-1.75h-1.13v1.75h-.6v-4.11h1.73c.47 0 .82.12 1.06.36.23.24.34.51.34.8 0 .22-.1.43-.19.63-.13.2-.33.34-.61.42zm-2.59-2.23h1.06c.28 0 .49-.07.62-.21.14-.14.2-.31.2-.51 0-.21-.1-.37-.22-.48-.14-.11-.32-.16-.54-.16h-1.13v1.36zm-90.25 67.16V52.31h34.88v8.05h-25.12v14.72h20.16v7.88h-20.16v15.2h25.44v8.37zm-47.8-54.22h20c3.09 0 10.16.08 16.75 6.75 5.29 5.36 7.72 12.76 7.72 20.32 0 11.46-5.29 18.29-9.03 21.62-2.27 2.03-8.37 5.53-17.64 5.53h-17.81V52.31zm10 46.25h8.21c8.46 0 15.69-6.5 15.69-19.59 0-9.92-5.28-18.94-14.55-18.94h-9.34v38.53zm-12.6 7.97h-10.41l-4.39-12.92h-20.81l-4.23 12.92h-8.37l18.05-54.22h11.95zm-17.4-20.73l-7.88-24.22-7.89 24.22zm-28.69 2.93c-2.11 14.31-11.95 18.62-20.57 18.62-18.21 0-21.71-18.62-21.71-27.97 0-14.06 6.5-27.88 22.03-27.88 11.54 0 18.29 7.32 20.24 19.19l-9.1.97c-.97-4.31-2.85-12.28-11.06-12.28-10.89 0-11.54 14.88-11.54 19.76 0 15.52 6.18 20 11.87 20 5.12 0 9.92-4.06 10.73-11.46zm-68.04 18.61c-17.07 0-22.84-15.85-22.84-28.13 0-14.63 8.29-27.72 23.25-27.72 15.28 0 22.84 13.33 22.84 27.88 0 16.59-9.02 27.97-23.25 27.97zm10-42.03c-2.76-5.61-7.56-5.94-9.75-5.94-10.24 0-12.52 10.49-12.52 20.16 0 6.42 1.06 19.92 12.36 19.92 4.88 0 8.54-3.01 10.16-6.26 1.3-2.6 2.44-6.18 2.44-13.9 0-2.19-.17-8.86-2.69-13.98zm-45.44 41.22l-8.45-22.27H92.03v22.27h-9.75V52.31h23.49c6.75 0 10.81 1.3 14.15 4.23 2.76 2.52 4.88 6.18 4.88 11.71 0 10.16-6.99 13.17-9.75 14.39l9.51 23.9h-10.34zM92.03 76.45h12.2c4.8 0 10.41-1.63 10.41-8.37 0-4.07-2.68-7.97-9.59-7.97H92.03zM37.46 52.31H58.6c4.23 0 10.49 0 14.63 5.2 2.44 3.01 3.01 6.34 3.01 8.86 0 1.63-.08 9.84-9.84 12.11 2.19.49 5.61 1.14 8.45 4.39 2.52 3.01 3.09 6.42 3.09 8.86 0 3.9-1.54 8.37-4.39 10.81-4.15 3.5-8.21 3.98-12.36 3.98H37.46zm9.27 22.84h11.95c4.71 0 7.89-3.09 7.89-7.89 0-6.34-5.94-7.23-8.13-7.23H46.73zm0 23.25h12.68c5.04 0 8.62-2.76 8.62-7.81 0-4.39-3.25-7.72-8.62-7.72H46.73z"/></svg>