<svg xmlns="http://www.w3.org/2000/svg" viewBox="0 0 1000 444"><path d="M507.8 222.6c-34.6-2-23.8-72.9 12.6-70.9 37.5 2 25.5 73-12.6 70.9zm46.1-85.9l-2.8 16c-4-8-15.4-18-33.6-18-32.4 0-51.7 27-55.1 55-3.5 32.5 17.6 51.5 38.6 51.5 20.5 0 31.3-8.9 37.6-19.1v1.6c-2.3 9.5 5.6 15.4 13 15.4h6.9l17.6-102.4h-22.2m-164.3 87.9c-37-2.1-25-73.9 13.1-71.9 34.1 2 23.3 73.9-13.1 71.9zm20.4-89.9c-19.3 0-31.8 9-38.6 19l.6-1c1.7-10-6.3-16-13.7-16h-6.8s-19.4 110.2-22.2 123.5c-2.8 15.6 9.7 19.2 13.7 19.2h5.6l10.3-56.4c4 8 15.9 18.2 34.1 18.2 33 0 53.4-25.7 55.7-55.5 1.7-32-17-51-38.7-51M263.9 241.2c35.8 0 49.5-18.6 53.5-40.5 1.7-8 8.5-45 9.1-48 1.1-11-8-16-14.8-16h-6.3s-10.2 56-11.3 63c-2.3 13.5-8.6 22.9-27.3 22.9-10.8 0-21.1-6.3-18.8-20.9 1.1-5 8-46 8.5-49 2.3-11-7.4-16-14.8-16h-6.2c-1.1 9-8 45-10.2 59-1.2 5-1.2 11.1-1.2 14.8 2.3 19.1 19.3 30.8 39.8 30.8m-104.6-19.9c-2.8.8-7.4 1.2-17.1 1.2h-17l8.5-47.9h25c33 0 30.2 39.5.6 46.7zm-14.2-109.7h22.2c27.2 0 25 37 1.7 45-2.9 1-7.4 1-14.8 1h-17.1l8-46zm39.8 53c10.2-3 29-13 29-35 0-23-15.4-33.97-41-33.97h-50.6L96.66 239.1h46.14c10.8 0 21-.6 26.2-1.6 26.1-5.4 36.9-24.3 38.6-37.8 2.9-19-9.1-32-22.7-35m558.1 135c0 1.9 1 2.1 1 .9 6-7.2 23-32.5 33-43.3 12-12.7 22-15 36-5.4 15 9.5 26 21.1 39 25.7 14 4.6 44 2.7 44 2.7l-5 26s-27 2-45-2.9c-17-4.9-33-17.8-40-22.4-7-4.6-12-4.9-16-.6-4 4.5-23 33-33 46.8-9 13.8-26 21-34 2.2-6-16.6-9-204.7-10-205.7 0-2-1-2-2 0 0 1-54 233.3-61 257.8-9 27.2-28.4 35.1-37 12.5-9.1-22.6-15.3-57.8-18.7-71.2-2.9-12.5-6.3-12.2-18.2-3.8-11.4 8.4-29 20.8-48.4 20.8H337.8L343 312h179.6c24.5 0 35.9-17.1 48.9-25.8 13.1-8.7 27.3-11.6 37.6 3 10.2 14.1 13.6 43.3 20.9 74.1 0 .7 0 .7 1 0 16-78.6 53-230.6 64-275.57 11-45.95 38-46.95 41-3 3 43.97 7 190.27 7 214.87"/></svg>