<svg xmlns="http://www.w3.org/2000/svg" overflow="visible" viewBox="0 0 346.14 177.06"><path d="M323.29 131.12l-4.6 8.24 5.45 15.37h-2.77l-4.36-12.75h-.1l-3.08 5.51v7.24h-2.54v-23.61h2.54v12.02h.1l6.6-12.02zm-28.01 0H301c3.77 0 6.46 2.21 6.46 6.1 0 2.66-1.17 4.89-3.78 5.8l3.98 11.71h-2.7l-3.78-11.2-3.35.14v11.06h-2.55v-23.61zm2.55 10.33h2.24c3.65 0 4.83-1.44 4.83-4.09 0-2.64-1.18-4.1-4.83-4.1h-2.24v8.19zm-12.23 13.61c-3.97 0-6.67-3.33-6.67-12.13 0-8.81 2.7-12.14 6.67-12.14 4.01 0 6.66 3.33 6.66 12.14 0 8.8-2.65 12.13-6.66 12.13m0-22.13c-2.28 0-4.11 2-4.11 10s1.83 9.99 4.11 9.99c2.3 0 4.11-1.99 4.11-9.99s-1.81-10-4.11-10m-17.09-1.81l3.65 18.43h.1l2.62-18.43h2.37l-3.8 23.61h-2.18l-3.72-18.55h-.1l-3.71 18.55h-2.16l-3.92-23.61H260l2.84 18.43 3.52-18.43zm-18.73 23.61v-21.47h-4.83v-2.14h12.24v2.14h-4.86v21.47zm-8.79-13.41v2.17h-6.09v9.09h8.64v2.15h-11.16v-23.61h10.78v2.14h-8.26v8.06zm-11.96-10.2v23.61h-2.74l-7.35-20.53h-.1v20.53h-2.53v-23.61h3.96l6.1 17.39h.1v-17.39zm-24.39 6.07c-.21-2.41-1.17-4.26-3.63-4.26-1.98 0-3.25 1.32-3.25 3.12 0 5.35 9.46 5.41 9.46 13 0 3.75-2.14 6-6.02 6-3.69 0-5.92-2.71-5.99-6.66h2.36c.1 2.79 1.38 4.52 3.91 4.52 2.11 0 3.48-1.4 3.48-3.89 0-5.36-9.5-6.01-9.5-12.73 0-3.36 2.3-5.51 5.68-5.51 3.42 0 5.65 2.28 5.84 6.41h-2.34zm-19.53-6.07l3.67 18.43h.1l2.62-18.43h2.34l-3.8 23.61h-2.17l-3.71-18.55h-.1l-3.72 18.55h-2.16l-3.95-23.61h2.38l2.81 18.43h.1l3.56-18.43zm-14.8 10.2v2.17h-6.07v9.09h8.63v2.15h-11.18v-23.61h10.79v2.14h-8.24v8.06zm-11.96-10.2v23.61h-2.75l-7.32-20.53h-.1v20.53h-2.56v-23.61h3.99l6.08 17.39h.1v-17.39zm-35.29 5.25c0 3.83 2.54 5.97 4.79 7.84 1.86 1.55 3.46 2.88 3.46 4.86 0 1.18-.75 1.85-2.08 1.85-1.19 0-1.96-1.19-2.1-3.27v-.32l-4.46.61v.31c.15 3.39 2.18 6.8 6.36 6.8 4.14 0 6.71-2.42 6.71-6.33 0-3.72-2.61-5.96-4.93-7.94-1.78-1.48-3.31-2.81-3.31-4.43 0-.93.3-2.02 1.72-2.02.52 0 1.71.23 1.87 2.31v.34l4.47-.5v-.31c-.4-3.69-2.67-5.97-5.93-5.97-4.17 0-6.57 2.26-6.57 6.17m-14.52 0c0 3.83 2.55 5.97 4.78 7.84 1.87 1.55 3.47 2.88 3.47 4.86 0 1.18-.76 1.85-2.07 1.85-1.21 0-1.98-1.19-2.13-3.27v-.32l-4.45.61v.31c.18 3.39 2.2 6.8 6.39 6.8 4.14 0 6.71-2.42 6.71-6.33 0-3.72-2.62-5.96-4.94-7.94-1.77-1.48-3.32-2.81-3.32-4.43 0-.93.3-2.02 1.74-2.02.5 0 1.69.23 1.88 2.31v.34l4.46-.5v-.31c-.39-3.69-2.65-5.97-5.92-5.97-4.18 0-6.57 2.26-6.57 6.17m-9.24 14.23v-6.34h5.21v-4.11h-5.21v-5.49h6.8v-4.15H94.663v24.21h11.927v-4.12zm-12.25-20.09v12.31c-.813-2.24-4.504-12.31-4.504-12.31H78.31v24.21h4.266v-13.48c.833 2.36 4.73 13.48 4.73 13.48h4.05v-24.21H87.08zm-17.282 0h4.64v24.21H69.8zm-15.74 5.86c0 3.83 2.536 5.97 4.782 7.84 1.846 1.55 3.46 2.88 3.46 4.86 0 1.18-.76 1.85-2.08 1.85-1.186 0-1.96-1.19-2.114-3.27l-.01-.32-4.44.61.01.31c.164 3.39 2.194 6.8 6.386 6.8 4.124 0 6.702-2.42 6.702-6.33 0-3.72-2.63-5.96-4.946-7.94-1.756-1.48-3.312-2.81-3.312-4.43 0-.93.31-2.02 1.724-2.02.522 0 1.708.23 1.872 2.31l.03.34 4.46-.5-.04-.31c-.395-3.69-2.672-5.97-5.926-5.97-4.165 0-6.565 2.26-6.565 6.17m-7.323-5.86v18.14c0 1.58-.575 2.27-1.867 2.27-1.276 0-1.862-.69-1.862-2.27v-18.14h-4.63v17.97c0 4.11 2.42 6.57 6.492 6.57 4.092 0 6.523-2.46 6.523-6.57v-17.97h-4.656zm-24.727 0v24.21h6.718c4.287 0 6.63-2.51 6.63-7.13 0-2.77-.993-4.52-3.012-5.59 1.846-1.03 2.558-3.15 2.558-4.94 0-4.33-2.205-6.55-6.576-6.55H22zm5.896 3.94c1.598 0 2.34.96 2.34 3.06 0 1.65-.927 2.7-2.403 2.7h-1.177v-5.76h1.24zm-.227 9.68c2.15 0 3.02.97 3.02 3.35 0 2.35-.765 3.32-2.63 3.32h-1.404v-6.67h1.013zm272.94-64.575v-55.61h20.53v96.265l-71.63-57.578v55.618H229V22zm-104.59 0v-55.61h20.52v96.265l-71.63-57.578v55.618h-20.52V22zM22.253 23.945h56.69c16.964 0 31.997 8.407 31.997 25.23 0 8.706-5.31 15.598-13.61 18.75 11.5 3.165 19.8 10.985 19.8 22.993 0 16.832-14.69 27.332-34.117 27.332h-60.76V23.946zM42.76 61.642h33.867c9.023 0 13.806-4.967 13.806-10.672 0-5.548-4.783-10.494-13.806-10.494H42.76V61.64zm0 40.07h37.943c9.176 0 15.905-5.09 15.905-11.71 0-6.76-6.73-11.87-15.905-11.87H42.76v23.58z"/></svg>