<svg xmlns="http://www.w3.org/2000/svg" viewBox="0 0 792 383.36"><path d="M33.828 47.757h26.56c10.682 0 18.897 1.344 24.634 4.027 5.74 2.683 10.27 6.807 13.602 12.366 3.327 5.56 4.992 11.732 4.992 18.525 0 6.338-1.46 12.106-4.376 17.31-2.914 5.203-7.2 9.424-12.85 12.656 7 2.522 12.387 5.476 16.16 8.87 3.774 3.396 6.71 7.505 8.81 12.323 2.104 4.817 3.154 10.032 3.154 15.657 0 11.446-3.955 21.13-11.862 29.05-7.908 7.918-18.51 11.88-31.824 11.88h-37V47.756zM47.014 61.73v45.673h7.712c9.36 0 16.244-.918 20.65-2.762 4.4-1.846 7.892-4.75 10.46-8.732 2.572-3.97 3.86-8.384 3.86-13.233 0-6.533-2.157-11.653-6.472-15.377-4.315-3.715-11.182-5.57-20.603-5.57H47.015zm0 60.028v54.7h16.7c9.847 0 17.062-1.02 21.65-3.056 4.587-2.037 8.272-5.218 11.056-9.554 2.78-4.33 4.173-9.022 4.173-14.06 0-6.34-1.955-11.866-5.865-16.586-3.915-4.717-9.293-7.955-16.14-9.695-4.59-1.17-12.574-1.748-23.954-1.748h-7.62zM137.41 84.903h12.82v49.27c0 12.022.612 20.3 1.837 24.828 1.835 6.464 5.333 11.567 10.5 15.32 5.166 3.75 11.328 5.623 18.48 5.623 7.155 0 13.225-1.823 18.21-5.475 4.982-3.654 8.42-8.454 10.32-14.404 1.282-4.074 1.924-12.702 1.924-25.89v-49.27h13.097v51.787c0 14.55-1.602 25.51-4.807 32.877-3.206 7.374-8.03 13.144-14.47 17.314-6.445 4.17-14.52 6.255-24.227 6.255-9.705 0-17.81-2.085-24.315-6.254-6.5-4.168-11.355-9.987-14.56-17.455-3.206-7.467-4.81-18.704-4.81-33.706V84.902zM303.172 96.445l-8.238 9.02c-6.858-7.047-13.558-10.572-20.11-10.572-4.164 0-7.728 1.455-10.695 4.366-2.97 2.907-4.458 6.3-4.458 10.182 0 3.428 1.223 6.69 3.67 9.796 2.446 3.17 7.59 6.884 15.42 11.146 9.545 5.246 16.033 10.285 19.457 15.135 3.365 4.918 5.05 10.44 5.05 16.582 0 8.665-2.88 16-8.626 22.012-5.75 6.017-12.935 9.023-21.55 9.023-5.754 0-11.244-1.325-16.467-3.972-5.232-2.653-9.555-6.307-12.98-10.968l8.06-9.694c6.547 7.824 13.493 11.736 20.84 11.736 5.134 0 9.51-1.744 13.123-5.24 3.61-3.49 5.416-7.594 5.416-12.316 0-3.878-1.193-7.336-3.582-10.377-2.382-2.973-7.768-6.725-16.148-11.25-8.994-4.915-15.118-9.765-18.354-14.55-3.242-4.778-4.87-10.245-4.87-16.39 0-8.012 2.584-14.677 7.755-19.975 5.166-5.304 11.69-7.953 19.586-7.953 9.173 0 18.407 4.752 27.7 14.255zM330.33 41.456c2.922 0 5.41 1.1 7.477 3.298 2.068 2.2 3.1 4.85 3.1 7.952 0 3.042-1.032 5.66-3.1 7.858-2.068 2.198-4.555 3.295-7.477 3.295-2.856 0-5.316-1.098-7.39-3.296-2.067-2.2-3.095-4.817-3.095-7.858 0-3.104 1.028-5.753 3.096-7.952 2.074-2.2 4.534-3.298 7.39-3.298zm-6.365 43.447h12.82V343.2h-12.82V84.902zM363.436 84.903h12.824v18.914c5.13-7.242 10.803-12.66 17.034-16.246 6.228-3.59 13.005-5.38 20.332-5.38 7.45 0 14.057 2.005 19.826 6.01 5.767 4.01 10.026 9.408 12.775 16.197 2.747 6.792 4.122 17.36 4.122 31.71v54.313h-12.823v-50.332c0-12.155-.476-20.27-1.423-24.346-1.49-6.98-4.34-12.237-8.55-15.756-4.21-3.525-9.71-5.287-16.488-5.287-7.753 0-14.705 2.71-20.842 8.143-6.14 5.433-10.182 12.156-12.13 20.175-1.232 5.23-1.835 14.808-1.835 28.705v38.697h-12.825V84.903zM561.712 155.41l10.812 6.014c-3.548 7.372-7.64 13.317-12.284 17.844-4.648 4.53-9.867 7.97-15.676 10.33-5.808 2.356-12.378 3.54-19.706 3.54-16.258 0-28.967-5.637-38.13-16.923-9.173-11.28-13.757-24.037-13.757-38.263 0-13.38 3.88-25.308 11.64-35.784 9.84-13.317 23.01-19.977 39.512-19.977 16.99 0 30.552 6.826 40.697 20.463 7.21 9.634 10.875 21.66 11 36.078h-89.66c.245 12.256 3.947 22.302 11.094 30.14 7.152 7.833 15.988 11.758 26.5 11.758 5.075 0 10.013-.937 14.808-2.802 4.8-1.87 8.88-4.347 12.24-7.438 3.367-3.095 7.003-8.09 10.91-14.977zm0-28.41c-1.71-7.244-4.198-13.032-7.473-17.363-3.27-4.33-7.597-7.824-12.974-10.476-5.38-2.648-11.038-3.975-16.96-3.975-9.788 0-18.188 3.33-25.22 9.992-5.135 4.845-9.017 12.12-11.643 21.823h74.27zM649.82 96.445l-8.244 9.02c-6.86-7.047-13.558-10.572-20.105-10.572-4.17 0-7.73 1.455-10.702 4.366-2.97 2.907-4.45 6.3-4.45 10.182 0 3.428 1.223 6.69 3.67 9.796 2.448 3.17 7.585 6.884 15.417 11.146 9.547 5.246 16.032 10.285 19.456 15.135 3.37 4.918 5.047 10.44 5.047 16.582 0 8.665-2.88 16-8.623 22.012-5.748 6.017-12.93 9.023-21.547 9.023-5.752 0-11.24-1.325-16.473-3.972-5.226-2.653-9.55-6.307-12.973-10.968l8.058-9.694c6.55 7.824 13.497 11.736 20.838 11.736 5.14 0 9.513-1.744 13.13-5.24 3.61-3.49 5.41-7.594 5.41-12.316 0-3.878-1.187-7.336-3.574-10.377-2.384-2.973-7.774-6.725-16.157-11.25-8.993-4.915-15.116-9.765-18.353-14.55-3.244-4.778-4.865-10.245-4.865-16.39 0-8.012 2.58-14.677 7.753-19.975 5.166-5.304 11.695-7.953 19.586-7.953 9.173 0 18.402 4.752 27.705 14.255zM722.63 96.445l-8.245 9.02c-6.86-7.047-13.567-10.572-20.11-10.572-4.17 0-7.728 1.455-10.702 4.366-2.965 2.907-4.443 6.3-4.443 10.182 0 3.428 1.22 6.69 3.665 9.796 2.446 3.17 7.593 6.884 15.423 11.146 9.546 5.246 16.03 10.285 19.46 15.135 3.354 4.918 5.043 10.44 5.043 16.582 0 8.665-2.872 16-8.627 22.012-5.744 6.017-12.93 9.023-21.547 9.023-5.75 0-11.24-1.325-16.47-3.972-5.224-2.653-9.547-6.307-12.982-10.968l8.06-9.694c6.55 7.824 13.498 11.736 20.84 11.736 5.146 0 9.518-1.744 13.13-5.24 3.61-3.49 5.414-7.594 5.414-12.316 0-3.878-1.19-7.336-3.577-10.377-2.388-2.973-7.77-6.725-16.156-11.25-8.995-4.915-15.113-9.765-18.358-14.55-3.24-4.778-4.86-10.245-4.86-16.39 0-8.012 2.582-14.677 7.747-19.975 5.175-5.304 11.698-7.953 19.59-7.953 9.175 0 18.402 4.752 27.707 14.255zM151.04 343.2l19.21-142.038h2.173l54.534 116.547 54.01-116.548h2.142L302.413 343.2H289.27l-13.253-101.585-47.43 101.584h-3.425l-47.995-102.356L163.99 343.2h-12.95zM364.06 238.138h12.762v18.83c5.11-7.208 10.76-12.6 16.96-16.17 6.202-3.577 12.955-5.36 20.25-5.36 7.413 0 13.99 1.996 19.736 5.99 5.75 3.987 9.983 9.366 12.723 16.124 2.735 6.758 4.104 17.283 4.104 31.575V343.2H437.83v-50.114c0-12.102-.482-20.18-1.423-24.237-1.482-6.956-4.32-12.183-8.51-15.692-4.198-3.508-9.67-5.263-16.418-5.263-7.72 0-14.642 2.702-20.753 8.112-6.11 5.408-10.137 12.1-12.08 20.085-1.216 5.212-1.826 14.74-1.826 28.58v38.53h-12.76V238.137zM576.976 197.582V343.2h-12.58v-18.057c-5.35 6.884-11.355 12.07-18.015 15.546-6.65 3.472-13.933 5.214-21.836 5.214-14.045 0-26.036-5.39-35.972-16.174-9.942-10.78-14.91-23.896-14.91-39.35 0-15.123 5.014-28.065 15.046-38.815 10.025-10.752 22.097-16.127 36.198-16.127 8.145 0 15.516 1.837 22.117 5.504 6.594 3.668 12.384 9.174 17.37 16.516v-59.875h12.583zm-51.016 50.89c-7.102 0-13.665 1.85-19.675 5.545-6.015 3.7-10.793 8.89-14.35 15.58-3.55 6.686-5.322 13.763-5.322 21.216 0 7.402 1.792 14.47 5.373 21.223 3.578 6.753 8.393 12.006 14.435 15.772 6.04 3.758 12.523 5.64 19.446 5.64 6.985 0 13.6-1.865 19.856-5.596 6.252-3.727 11.064-8.774 14.433-15.14 3.37-6.367 5.06-13.537 5.06-21.507 0-12.155-3.777-22.314-11.34-30.48-7.558-8.17-16.865-12.252-27.915-12.252z"/><g><path d="M762.033 103.994l-3.984.095c-.06-3.428-.192-4.742-.47-5.64-.526-.733-1.373-1.103-2.543-1.103-.493 0-.324-.006-.773.006 0 2.27-.012 4.538.07 6.856l-3.847.037c.106-2.67 0-5.65 0-9 0-3.22.028-5.54 0-7.824 0 0 4.96-.295 5.643-.268 4.28.176 5.567 2.092 5.576 4.51.01 1.864-.402 3.004-2.956 4v.197c.85.248 1.602.946 2.244 2.092.642 1.143 1.04 2.168 1.04 6.04zm-3.48-11.807c-.065-2.57-3.07-2.554-4.533-2.403.057 1.357.057 2.937.057 4.92.466.016.392.007.71.007 2.7 0 3.817-.32 3.765-2.523z"/></g><g><path d="M756.26 110.31c-7.945 0-14.41-6.553-14.41-14.608s6.465-14.608 14.41-14.608c7.946 0 14.412 6.553 14.412 14.608s-6.465 14.608-14.413 14.608zm0-28.216c-7.395 0-13.41 6.104-13.41 13.608s6.016 13.608 13.41 13.608c7.395 0 13.412-6.104 13.412-13.608s-6.016-13.608-13.413-13.608z"/></g></svg>