<svg xmlns="http://www.w3.org/2000/svg" viewBox="0 0 423.3 96.66"><path d="M308.5 48.94c0 3.54-2.9 6.41-6.4 6.41-3.6 0-6.4-2.87-6.4-6.41 0-3.53 2.8-6.4 6.4-6.4 3.5 0 6.4 2.87 6.4 6.4M111 47.36C215-8.638 359-7.898 307 42.37c21.6-55.33-145.2-19.41-196 4.99m307.3 14.03h-1.1v-2.34l.1-.89-.2.7-.7 2.53h-1l-.8-2.54-.2-.68.1.88.1 2.34h-1.1v-4.4h1.4l1 3.18 1-3.18h1.4v4.4zm-6.5 0h-1.1v-3.51h-1.3v-.89h3.8v.89h-1.4v3.51m-22.9 11.87c.9.91 1.8 1.73 3.7 2.54 1.8.72 3.1.82 3.9.82 1.2 0 2.6-.44 2.6-1.54 0-1.25-1.4-1.48-2.5-1.63-.8-.14-2.9-.48-5.1-1.15-2.3-.67-6.9-2.01-6.9-7.29 0-2.21 1-4.22 2.5-5.66 2.9-2.78 7.1-2.88 8.8-2.88 1.8 0 3.7.24 5.6.67 3.4.82 4.8 1.87 6.2 2.93l-5.3 4.84c-1.7-1.05-3.7-2.35-6.4-2.35-.4 0-2.1 0-2.1 1.3 0 .91.7 1.05 4 1.87 4.4 1.01 5.5 1.25 6.7 1.87 2.5 1.34 3.8 3.64 3.8 6.47 0 4.9-4 9.21-11.8 9.21-7.1 0-11.1-3.26-13.2-4.98l5.5-5.04m-20.5-23.03h10l-.1 7.82h4.2v5.38h-4.3l-.1 9.54c0 .96.1 2.59 2.7 2.59.6 0 1.2-.1 1.8-.19v6.76c-2.2.29-4.2.53-6.2.53-1.1 0-4.6 0-6.6-2.06-1.7-1.68-1.7-3.89-1.7-5.13l.2-12.04h-3.4v-5.38h3.4l.1-7.82m-4.1 25.43c-.6 1.34-1.1 2.4-2.4 3.64-1.4 1.44-4.6 3.98-10.3 3.98-8.2 0-13.3-5.56-13.3-13.57 0-4.13 1.5-7.48 3.6-9.59 3.4-3.6 8.4-3.79 10.2-3.79 1.7 0 6.5 0 10.2 3.88 1 .96 1.4 1.63 2 2.59l-7.5 4.27c-.6-2.2-1.8-3.79-4.2-3.79-3 0-4.5 2.98-4.5 6.72 0 1.97.4 5.71 4.3 5.71 3 0 4-2.88 4.4-4.18l7.5 4.13m-37.6-9.21c-.1-.39-.1-.77-.2-1.15-.4-1.78-2-2.55-3.3-2.55-3 0-3.5 2.6-3.7 3.7h7.2zm9.5 10.07c-2.9 4.46-7.2 6.81-13.2 6.81-9.2 0-13.7-6.62-13.7-13.52 0-8.11 5.6-13.34 13.7-13.34 3 0 6.9.77 9.9 3.69 3.7 3.6 3.7 7.73 3.8 11.52h-17.3c0 1.1.1 2.39 1.2 3.5.2.24 1.1 1.15 2.9 1.15 2.3 0 3.5-1.2 4.6-3.21l8.1 3.4M297 57.43h9.9v24.51c0 3.7 0 5.66-1.7 7.34-2.5 2.54-7.9 2.44-11.9 2.34v-7.23c2.8.1 3.7-.58 3.7-2.64V57.43m-12.3 12.42c0-1.15-.1-2.06-.3-2.92-.8-3.12-3.2-3.12-3.5-3.12-.9 0-1.8.43-2.5 1.1-1.3 1.39-1.3 3.6-1.3 4.9 0 1.1 0 2.11.3 3.07.8 2.63 2.8 2.92 3.5 2.92.9 0 1.8-.38 2.4-1.05.7-.72 1.4-2.07 1.4-4.9zm-7.4-21.39v10.75c1-.92 2.6-2.45 6.3-2.45 5.5 0 10.9 3.88 10.9 12.57 0 7.82-4.1 13.62-11.2 13.62-1 0-2.4-.1-3.7-.62-1.4-.53-1.9-1.06-2.6-1.83v1.83h-9.6V48.46h9.9M239 65.39c0 5.9 2.4 9.45 7.5 9.45 4.3 0 7.3-3.4 7.3-9.78 0-1.63-.1-3.12-.6-4.46-1.7-4.71-5.8-4.85-6.7-4.85-3.9 0-7.5 2.64-7.5 9.64zm25.6-.33c0 8.58-5 18.37-18.3 18.37-13.9 0-18.1-10.27-18.1-17.99 0-9.69 6-18.23 18.3-18.23 13.3 0 18.1 9.79 18.1 17.85m-64.5 8.2c.9.91 1.8 1.73 3.7 2.54 1.8.72 3.2.82 4 .82 1.2 0 2.6-.44 2.6-1.54 0-1.25-1.5-1.48-2.5-1.63-.9-.14-3-.48-5.2-1.15-2.3-.67-6.9-2.01-6.9-7.29 0-2.21 1-4.22 2.5-5.66 3-2.78 7.2-2.88 8.8-2.88 1.9 0 3.7.24 5.6.67 3.4.82 4.9 1.87 6.3 2.93l-5.4 4.84c-1.6-1.05-3.7-2.35-6.3-2.35-.4 0-2.2 0-2.2 1.3 0 .91.7 1.05 4 1.87 4.4 1.01 5.5 1.25 6.7 1.87 2.5 1.34 3.9 3.64 3.9 6.47 0 4.9-4.1 9.21-11.8 9.21-7.1 0-11.2-3.26-13.3-4.98l5.5-5.04m-26 0c.9.91 1.8 1.73 3.7 2.54 1.8.72 3.2.82 4 .82 1.2 0 2.6-.44 2.6-1.54 0-1.25-1.5-1.48-2.5-1.63-.9-.14-3-.48-5.2-1.15-2.3-.67-6.9-2.01-6.9-7.29 0-2.21 1-4.22 2.5-5.66 3-2.78 7.2-2.88 8.8-2.88 1.9 0 3.7.24 5.6.67 3.4.82 4.9 1.87 6.3 2.93l-5.4 4.84c-1.6-1.05-3.7-2.35-6.3-2.35-.4 0-2.2 0-2.2 1.3 0 .91.7 1.05 4 1.87 4.4 1.01 5.5 1.25 6.7 1.87 2.5 1.34 3.9 3.64 3.9 6.47 0 4.9-4.1 9.21-11.8 9.21-7.1 0-11.2-3.26-13.3-4.98l5.5-5.04m-16.3-6.81c-.1-.39-.1-.77-.1-1.15-.5-1.78-2-2.55-3.4-2.55-2.9 0-3.5 2.6-3.7 3.7h7.2zm9.5 10.07c-2.9 4.46-7.2 6.81-13.1 6.81-9.3 0-13.8-6.62-13.8-13.52 0-8.11 5.6-13.34 13.7-13.34 3 0 7 .77 10 3.69 3.6 3.6 3.7 7.73 3.8 11.52h-17.4c.1 1.1.1 2.39 1.2 3.5.2.24 1.2 1.15 3 1.15 2.2 0 3.5-1.2 4.5-3.21l8.1 3.4m-47.1-15.73c.8-1.15 2.7-3.94 8.1-3.94 4 0 5.9 1.54 6.8 2.31 2.3 2.3 2.5 5.61 2.5 7.48v15.69h-9.9V68.75c0-1.25-.1-3.74-3.4-3.74-3.5 0-3.6 2.73-3.6 4.08v13.24h-9.9V57.48h9.4v3.31m-23.27-3.31h9.87v24.85h-9.87V57.48zm0-9.02h9.87v6.57h-9.87v-6.57M74.4 73.26c.9.91 1.8 1.73 3.7 2.54 1.8.72 3.2.82 4 .82 1.2 0 2.6-.44 2.6-1.54 0-1.25-1.5-1.48-2.5-1.63-.9-.14-2.9-.48-5.2-1.15-2.3-.67-6.9-2.01-6.9-7.29 0-2.21 1-4.22 2.5-5.66 3-2.78 7.2-2.88 8.8-2.88 1.9 0 3.73.24 5.63.67 3.4.82 4.8 1.87 6.2 2.93l-5.3 4.84c-1.7-1.05-3.73-2.35-6.33-2.35-.4 0-2.2 0-2.2 1.3 0 .91.7 1.05 4 1.87 4.43 1.01 5.53 1.25 6.73 1.87 2.5 1.34 3.9 3.64 3.9 6.47 0 4.9-4.1 9.21-11.83 9.21-7.1 0-11.2-3.26-13.3-4.98l5.5-5.04M39.8 57.48h9.9v13.53c0 1.48 0 4.02 3.6 4.02 3.5 0 3.5-2.73 3.6-4.41V57.48h9.9v24.85h-9.4v-3.65c-.4.72-.5 1.15-1.3 1.82-1.8 1.78-4.4 2.45-6.9 2.45-4 0-6-1.53-6.9-2.45-2.4-2.35-2.4-5.56-2.5-7.91V57.48m-24.1-1.87v5.75h5.9c1 0 3.5 0 3.5-2.83 0-2.78-2.3-2.88-3.2-2.92h-6.2zm-.1 12.85v6.57h6.8c.9 0 1.9-.1 2.7-1 .6-.53.9-1.35.9-2.21 0-3.17-2.9-3.31-3.9-3.36h-6.5zM5 48.46h20c2.2.1 6.1.24 8.6 2.73 1.6 1.44 2.3 3.7 2.3 5.86 0 2.49-1 4.6-2.4 5.94-.9.92-1.7 1.3-2.8 1.83 1.3.38 2.6.72 3.9 2.06 2 1.87 2.3 4.08 2.3 5.75 0 2.55-.8 5.19-2.5 6.91-2.5 2.59-6 2.69-8.7 2.79H5V48.46"/></svg>