<svg xmlns="http://www.w3.org/2000/svg" viewBox="0 0 2184 256.6"><path d="M34.7 39.65a8.06 8.06 0 0 0-11.3 1.9c-.9 1.46-1.4 3.06-1.4 4.52V174.4l94.5-77.51-81.8-57.24m198.6 2.04c-2.6-3.79-7.5-4.67-11.2-2.04L23.4 178.7c1.5 2.1 3.9 3.5 6.6 3.5h196.8c4.4 0 8-3.6 8-8.1V46.07c0-1.46-.4-3.06-1.5-4.38M1942 64.79h-25V32.5c0-1.02 0-1.9-2-2.77-1-2.34-4-2.92-5-1.31l-13 8.75c-5 2.48-6 6.56-6 11.24v16.38h-9c-4 0-8 3.2-8 7.2v7.5c0 3.9 4 7.1 8 7.1h9v63.61c0 25.4 13 33.9 34 33.9 9 0 20-4 20-4s2-1 2-5.3c0-1.4-2-11.3-2-11.3 0-2.4-2-4.3-5-3.8-1 .3-4 .8-9 .8-8 0-14-4.2-14-14.4V86.59h25c4 0 7-3.2 7-7.1v-7.5c0-4-3-7.2-7-7.2m-930 59.31c0 22-15.8 36.9-32.8 36.9-18 0-31-14.2-31-36.9v-.4c0-22.4 13-37.11 31-37.11 17 0 32.8 15.01 32.8 37.11v.4zm34 39.8c-4 0-6-2.3-6-5.1V71.99c0-4-3-7.2-7-7.2h-12c-4 0-7 3.2-7 7.2v11.4c-9-11.9-19.8-19.7-39.8-19.7-27 0-53 21.5-53 60.01v.4c0 38.2 26 59.9 53 59.9 20 0 33.8-8.9 39.8-19.8 3 10.6 13 18.4 25 18.4h7c2 0 5-2.3 5-5.1V169c0-2.8-3-5.1-5-5.1m-500.8-39.8c0 22-16 36.9-33 36.9-18 0-31-14.2-31-36.9v-.4c0-22.4 14-37.11 31-37.11s33 15.01 33 37.11v.4zm33 39.8c-2 0-5-2.3-5-5.1V71.99c0-4-3-7.2-7-7.2h-12c-4 0-7 3.2-7 7.2v11.4c-9-11.9-21-19.7-40-19.7-27 0-53 21.5-53 60.01v.4c0 38.2 26 59.9 53 59.9 20 0 34-8.9 40-19.8 3 10.6 13 18.4 25 18.4h6c3 0 5-2.3 5-5.1V169c0-2.8-2-5.1-5-5.1m305-39.8c0 22-16 36.9-33 36.9s-31-14.2-31-36.9v-.4c0-22.4 14-37.11 31-37.11s33 15.01 33 37.11v.4zm-27-60.41c-19 0-31 7.8-39 19.7v-11.4c0-4-4-7.2-8-7.2h-12c-4 0-7 3.2-7 7.2V223.7c0 4 3 7.2 7 7.2h12c4 0 8-3.2 8-7.2v-59.5c8 10.7 20 19.8 39 19.8 27 0 53-21.7 53-59.9v-.4c0-38.51-26-60.01-53-60.01M1555 27.54h-12c-2 0-4 1.17-5 2.92l-50 67.83-50-67.83c-1-1.75-4-2.92-6-2.92h-12c-4 0-7 3.21-7 7.15V175.3c0 4.1 3 7.3 7 7.3h12c4 0 7-3.2 7-7.3V77.69l45 56.51v.5c1 1.1 2 1.8 4 1.8 1 0 3-.7 3-1.8l1-.4v-.1l44-56.51v97.61c0 4.1 3 7.3 7 7.3h12c4 0 7-3.2 7-7.3V34.69c0-3.94-3-7.15-7-7.15m496 96.36v.4c0 20.2-14 36.5-35 36.7-20-.2-33-16.5-33-36.7v-.8c0-20.1 13-36.61 33-36.71 21 .1 35 16.61 35 36.71v.4zm-35-60.21c-35 0-61 26.9-61 60.01v.5c0 33 26 59.9 61 59.9 37 0 61-26.9 61-59.9v-.5c0-33.11-24-60.01-61-60.01m-344 60.21v.4c0 20.2-13 36.5-33 36.7-23-.2-36-16.5-36-36.7v-.8c0-20.1 13-36.61 36-36.71 20 .1 33 16.61 33 36.71v.4zm-33-60.21c-37 0-64 26.9-64 60.01v.5c0 33 27 59.9 64 59.9 34 0 61-26.9 61-59.9v-.5c0-33.11-27-60.01-61-60.01m520 1.3c0-.1-1-.2-1-.2v-.3c-3-.5-6-.8-9-.8-13 0-25 8.1-31 19.7v-11.4c0-4-3-7.2-7-7.2h-12c-4 0-7 3.2-7 7.2V175.4c0 4 3 7.2 7 7.2h12c4 0 7-3.2 7-7.2v-43.8c0-35.31 19-41.71 29-40.81 2 .2 5 .4 7 .7 0 .1 1 .1 1 .1 1 0 4-1.8 4-4.1l3-17.1v-.7c0-2-2-3.8-3-4.7m-856-1.3c-18 0-28 9.1-36 19.7v-11.4c0-4-3-7.2-7-7.2h-12c-4 0-7 3.2-7 7.2V175.3c0 4.1 3 7.3 7 7.3h12c4 0 7-3.2 7-8.3V112c0-14.01 11-25.41 26-25.41 13 0 25 11.4 25 25.41v63.3c0 4.1 3 7.3 7 7.3h12c4 0 7-3.2 7-7.3v-67.4c0-26.71-15-44.21-41-44.21m472 0c-19 0-29 9.1-36 19.7v-11.4c0-4-3-7.2-8-7.2h-11c-5 0-7 3.2-7 7.2V175.3c0 4.1 2 7.3 7 7.3h11c5 0 8-3.2 8-8.3V112c0-14.01 12-25.41 25-25.41 14 0 26 11.4 26 25.41v63.3c0 4.1 3 7.3 7 7.3h12c4 0 7-3.2 7-7.3v-67.4c0-26.71-16-44.21-41-44.21m-582 60.41c0 22-15 36.9-32 36.9-18 0-32-14.2-32-36.9v-.4c0-22.4 14-37.11 32-37.11 17 0 32 15.01 32 37.11v.4zm22-59.31h-12c-5 0-8 3.2-8 7.2v11.6c-8-12-20-19.9-39-19.9-27 0-53 21.5-53 60.01v.4c0 38.2 26 59.9 53 59.9 20 0 31-8.8 39-19.6v-.2 10.6c0 20-14 38.2-36 38.2-13 0-26-6.1-32-16.4-2-3.4-6-4.4-9-2.4l-6 3.4c-3 2.1-4 6.5-2 9.9 10 16.2 28 27.1 50 27.1 38 0 62-27.4 62-60.2V71.99c0-4-3-7.2-7-7.2M396.2 52.78c12 0 22 3.65 32 10.51 1 1 2 1.5 4 1.5s3-.8 5-2.1l9-9.18c1-1.46 2-3.35 2-5.39 0-1.91-1-3.8-3-4.97-14-11.38-31-17.21-49-17.21-43.5 0-78.9 35.45-78.9 79.06 0 43.5 35.4 79 78.9 79 18 0 35-6 49-17.3 2-1.1 3-3 3-5s-1-3.9-2-5.3l-9-9.2c-2-1.3-3-2.1-5-2.1s-3 .5-4 1.5c-10 6.9-20 10.5-32 10.5-29 0-52.1-23.4-52.1-52.1 0-28.91 23.1-52.22 52.1-52.22M1854 64.79h-13c-3 0-6 3.2-6 7.2V175.3c0 4.1 3 7.3 6 7.3h13c3 0 7-3.2 7-7.3V71.99c0-4-4-7.2-7-7.2M1848 22c-8 0-16 1.89-16 9.77v7.73c0 7.88 8 9.93 16 9.93s15-2.05 15-9.93v-7.73c0-7.88-7-9.77-15-9.77M731.2 63.59c-17 0-30 7.6-39 19.8-6-12.2-18-19.8-35-19.8s-27 9.6-35 19.8v-11.4c0-4-3-7.2-7-7.2h-12c-4 0-7 3.2-7 7.2V175.3c0 4.1 3 7.3 7 7.3h12c4 0 7-3.2 7-7.3v-59c0-17.71 10-28.61 25-28.61s23 10 23 28.01v59.6c0 4.1 4 7.3 8 7.3h12c4 0 7-3.2 7-7.3v-59c0-18.61 10-28.61 25-28.61s23 9.8 23 28.21v59.4c0 4.1 3 7.3 7 7.3h12c4 0 7-3.2 7-7.3v-67.5c0-28.31-14-44.21-40-44.21m350.8 1.2h-12c-3 0-7 3.2-7 7.2V175.3c0 4.1 4 7.3 7 7.3h12c4 0 8-3.2 8-7.3V71.99c0-4-4-7.2-8-7.2M1076 22c-8 0-15 1.89-15 9.77v7.73c0 7.88 7 9.93 15 9.93 9 0 15-2.05 15-9.93v-7.73c0-7.88-6-9.77-15-9.77"/></svg>