<svg xmlns="http://www.w3.org/2000/svg" viewBox="0 0 525.37 212.93"><path d="M73.06 22c-3.99.35-7.47 1.33-9.92 5.26 0 0 4.07 18.02 9.64 32.54 6.35-5.54 14.31-9.47 23.78-11.15 2.39 3.4 4.74 6.87 6.91 10.45.53-3.75 1.3-7.36 2.1-10.76-2.87 0-5.78.35-8.55.84C86.6 34.41 74.78 22.03 74.78 22.03h-1.72zm43.39 2.1v.35c-1.16 0-2.39.35-3.65.56 0 0-3.89 10.03-6.94 22.94h1.47v-.35c7.01 0 13.22 1.02 18.69 2.73 0 5.05-.35 10.1-.81 14.31-.35 2.11-.66 4.49-1.08 6.88-3.9-2.35-8.38-3.72-14.1-4.04 3.68 7.54 6.73 15.44 9.36 23.5-.35.77-.49 1.47-.56 1.83-.63 3.01 4.53 7.25 7.3 7.5a25.41 25.41 0 0 1 0-.88h-.6c-1.26-.35-2.49-.7-3.58-1.68a6.648 6.648 0 0 1-2.24-3.26c-.35-1.23-.35-2.42.66-3.26.57-.67 1.34-1.06 2.18-1.13h.88c1.08.36 2.35.64 3.33 1.48A25.41 25.41 0 0 1 133 80.04c-1.96-2.63-4.07-4.91-6.42-6.7 2.07-4.8 4.04-8.94 5.05-10.59.91-1.33 2.98-4.07 5.65-7.3 7.4 4.53 12.59 10.53 15.82 16.7a25.41 25.41 0 0 1 1.12 0c5.29-9.05 9.89-28.9 9.89-28.9-1.83-3.82-4.32-5.65-8.28-6.42-4.24 1.79-13.22 11.86-19.08 19.08-3.33-2-6.87-3.58-10.59-4.77.35-11.36-.63-22.48-.63-22.48-2.46-3.05-5.47-4.49-8.94-4.45zM32.77 47.56zm0 0c-7.02 1.51-12.77 9.09-10.1 19.89 0 0 15.85 16.73 29.49 28.27 2.81-11.89 8.03-23.36 16.2-32.06-19.88-11.08-35.17-15.99-35.59-16.1zm19.39 48.16l.35.35h-.35zm.35.35c-1.89 7.82-2.73 15.81-2.73 23.32 0 34.23 14.59 71.54 57.48 71.54 24.51 0 39.49-12.24 47.2-30.19l-19.15-7.37c-6.27 10.49-14.41 17.78-28.05 17.78-25.25 0-36.13-27.25-36.13-51.76 0-3.47.36-7.02.6-10.63 14.06 6.98 33.49 14.42 39.49 16.66a7.056 7.056 0 0 1-3.72-4.77c-1.22-6.35 3.97-12.55 10.17-13.22 1.69-.35 3.72 0 5.16 1.16-1.61-1.72-18.69-19.54-36.58-33.25-.42.39-.84.74-1.26 1.16-.49.49-.98 1.08-1.51 1.65-6.87 7.85-10.42 19.28-11.75 30.58h-.35s-.35-.35-.39-.35a163.1 163.1 0 0 1-7.75-4.21c-2.94-1.79-6.45-4.53-10.13-7.61-.35-.35-.42-.35-.6-.49zm20.62-35.14c-1.26 1.05-2.42 2.17-3.54 3.33 1.02.56 2.07 1.19 3.12 1.79 1.16.73 2.42 1.47 3.65 2.31-1.09-2.28-2.21-4.77-3.23-7.43zm34.06 6.59c-.84 0-1.58.35-2.32.35h-.59c-.49 0-1.02 0-1.51.35-5.89.74-10.8 2.91-14.91 6.07 12.03 9.08 23.01 19.57 33.64 30.19-1.93-8.2-7.93-24.86-13.54-36.65h-.77zm16.9 3.68c.88.49 1.72 1.02 2.56 1.54-2.21 5.05-4.59 10.81-6.17 14.98 1.58-5.72 2.74-11.43 3.61-16.52zm26.73 5.61a20.81 20.81 0 0 0-11.68 3.86 20.81 20.81 0 0 0-4.84 29 20.81 20.81 0 0 0 29.04 4.84 20.81 20.81 0 0 0 4.84-29 20.81 20.81 0 0 0-17.36-8.7zm-27.78 14.28h-.7c-.63 0-1.19.35-1.61.77-.53.63-.67 1.47-.43 2.45.36 1.02.92 2.11 1.83 2.95 1.09.84 2.24 1.26 3.26 1.4h.49a25.41 25.41 0 0 1 .49-6.17 6.978 6.978 0 0 0-3.33-1.44zm52.57 9.96l-20.27 87.85h11.57l5.62-24.55h15.25l5.61 24.55h11.68l-20.52-87.85zm31.92 0v87.85h11.18v-53.24l21.46 53.17h9.5v-87.85h-11.3v53.16l-21.45-53.16zm50.54 0v87.85h17.5c7.5 0 13.2-2.35 17-7.01 3.5-4.32 5.3-10.46 5.3-18.49v-36.96c0-8.03-1.8-14.14-5.3-18.34-3.8-4.7-9.5-7.05-17-7.05zm46.7 0v87.85h38.3v-11.22h-27v-76.63zm42.4 0v87.85h36.2v-11.19h-25v-27.18h25v-11.22h-25v-27.04h25v-11.22zm44.3 0v87.85h11.2v-38.26h7c7.4 0 13.4-2.25 16.9-6.7 3.8-4.1 5.6-10.21 5.6-18.24 0-7.85-1.8-13.89-5.6-18.09-3.9-4.39-9.5-6.56-16.9-6.56zm49.1 0v87.85h11.2v-87.85zm20.3 0v87.85h11.3v-53.24l21.3 53.17h9.9v-87.85h-11.6v53.16l-21.4-53.16zm-341.69 7.47h-1.3c-5.36.66-10.06 6.2-9.01 11.64.42 2.14 2.14 3.93 4.31 4.35 3.23.91 6.95-.63 9.02-3.33 2.31-3.26 2.84-8.21.35-11.4-.84-.95-2-1.26-3.3-1.3zm4.21.63c.46.56.84 1.16 1.12 1.79-.35-.56-.56-1.09-.94-1.62zm145.88 3.12h6.3c1.4 0 2.8 0 4 .35 1.4.35 2.6.84 3.5 1.79 1 .95 1.9 2.38 2.5 4.28.6 1.93.9 4.52.9 7.75v36.96c0 3.26-.3 5.82-.9 7.75-.6 1.9-1.5 3.34-2.5 4.28-.9.95-2.1 1.58-3.5 1.93-1.2.35-2.6.35-4 .35h-6.3zm133.4 0h7c1.8 0 3.5 0 4.6.46 1.7.35 2.8.94 3.5 1.92 1 .95 1.8 2.28 2.1 4.04.7 1.75.7 4.07.7 6.91 0 5.43-.7 9.04-2.5 10.87-.3.38-1 .95-2.1 1.65-1 .73-3.1 1.08-6.3 1.08h-7zM121.85 123.6c-2.35 2.17-5.79 3.29-9.02 2.45 0 0 .35 0 .35.35 3.48 1.13 6.6-.35 8.81-2.56zm58.29 7.96l5.01 21.6h-9.99z"/></svg>