<svg xmlns="http://www.w3.org/2000/svg" height="110" width="770"><path d="M377.19 54.608c0 27.396-22.21 49.602-49.61 49.602s-49.61-22.207-49.61-49.602c0-27.397 22.21-49.606 49.61-49.606s49.61 22.208 49.61 49.606zm-49.61-37.54c-20.73 0-37.54 16.808-37.54 37.54 0 20.735 16.81 37.538 37.54 37.538s37.54-16.803 37.54-37.538c0-20.733-16.81-37.54-37.54-37.54zm0 69.126c-17.45 0-31.59-14.138-31.59-31.587 0-17.446 14.14-31.586 31.59-31.586s31.59 14.14 31.59 31.587c0 17.45-14.14 31.587-31.59 31.587zm437.41 4.864v11.102h-57.14V7.193h13.29v83.865h43.85zM656.18 7.193c3.29 6.852 6.44 13.77 9.46 20.76 3.01 6.99 6.05 14.32 9.11 21.994 3.06 7.674 6.19 15.784 9.39 24.324 3.2 8.545 6.62 17.84 10.28 27.89h-14.53a404.753 404.753 0 0 1-4.38-12.197c-1.38-4.02-2.79-8.085-4.25-12.196h-43.03l-8.63 24.393h-13.85c3.66-10.05 7.08-19.344 10.28-27.888 3.2-8.54 6.33-16.65 9.39-24.324 3.06-7.674 6.1-15.005 9.11-21.993 3.02-6.99 6.17-13.91 9.46-20.76h12.19zm-6.44 15.21a360.034 360.034 0 0 0-9.11 21.378c-2.88 7.4-5.73 15.123-8.56 23.16h35.35c-2.92-7.947-5.82-15.644-8.7-23.09a408.414 408.414 0 0 0-8.98-21.447zm-77.97 81.807c-6.67 0-12.74-1.09-18.23-3.28-5.48-2.198-10.18-5.418-14.11-9.666-3.93-4.248-6.97-9.432-9.11-15.554-2.15-6.12-3.22-13.155-3.22-21.104 0-7.948 1.18-15.005 3.56-21.172 2.37-6.166 5.62-11.35 9.73-15.553 4.11-4.2 8.86-7.4 14.25-9.593C560.03 6.097 565.74 5 571.77 5c4.11 0 7.79.273 11.03.822 3.24.548 6.05 1.188 8.43 1.918 2.37.732 4.29 1.463 5.76 2.193 1.45.732 2.46 1.28 3.01 1.644l-3.97 10.964c-.83-.548-2.02-1.14-3.57-1.78-1.55-.64-3.35-1.28-5.41-1.92-2.05-.637-4.32-1.164-6.78-1.576-2.47-.41-5.07-.616-7.81-.616-4.66 0-8.91.87-12.75 2.604-3.84 1.737-7.12 4.248-9.86 7.537-2.74 3.29-4.87 7.286-6.38 11.99-1.5 4.706-2.26 9.982-2.26 15.827 0 5.666.66 10.827 1.99 15.486 1.32 4.66 3.33 8.656 6.03 11.99 2.69 3.336 6.03 5.916 10 7.743 3.98 1.828 8.66 2.74 14.05 2.74 6.03 0 11.03-.64 15-1.92 3.98-1.277 6.97-2.418 8.98-3.425l3.43 10.964c-.64.458-1.78 1.028-3.43 1.713-1.65.683-3.7 1.353-6.17 1.983-2.46.64-5.34 1.19-8.63 1.65-3.29.45-6.85.68-10.69.68zM493.52 7.193h13.3v94.967h-13.3V7.193zm-35.21 94.967c-2.01-3.38-4.32-7.173-6.92-11.376-2.6-4.2-5.41-8.564-8.43-13.087-3.02-4.52-6.14-9.112-9.39-13.77-3.24-4.66-6.46-9.16-9.66-13.5-3.19-4.34-6.3-8.43-9.32-12.266-3.01-3.836-5.8-7.215-8.35-10.14v74.14h-13.02V7.193h10.55c4.29 4.568 8.88 9.89 13.77 15.964a639.037 639.037 0 0 1 14.53 18.773c4.79 6.44 9.31 12.768 13.56 18.98 4.25 6.214 7.83 11.74 10.76 16.58V7.194h13.02v94.967h-11.1zm-207.47 0c-2.01-3.38-4.32-7.173-6.92-11.376a474.07 474.07 0 0 0-8.43-13.087c-3.01-4.52-6.14-9.112-9.39-13.77-3.24-4.66-6.46-9.16-9.66-13.5s-6.3-8.43-9.32-12.266c-3.01-3.836-5.8-7.215-8.35-10.14v74.14h-13.02V7.193h10.55c4.29 4.568 8.88 9.89 13.77 15.964A639.037 639.037 0 0 1 224.6 41.93c4.79 6.44 9.31 12.768 13.56 18.98 4.25 6.214 7.83 11.74 10.76 16.58V7.194h13.02v94.967h-11.1zM134.09 7.193c3.28 6.852 6.44 13.77 9.45 20.76a837.1 837.1 0 0 1 9.11 21.994c3.06 7.674 6.19 15.784 9.39 24.324 3.2 8.545 6.62 17.84 10.28 27.89h-14.53a404.753 404.753 0 0 1-4.38-12.197c-1.37-4.02-2.79-8.085-4.25-12.196h-43.03l-8.632 24.393h-13.84c3.652-10.05 7.078-19.344 10.276-27.888 3.197-8.54 6.326-16.65 9.386-24.324 3.06-7.674 6.1-15.005 9.11-21.993 3.02-6.99 6.17-13.91 9.46-20.76h12.2zm-6.44 15.21a353.55 353.55 0 0 0-9.12 21.378c-2.87 7.4-5.73 15.123-8.56 23.16h35.35c-2.92-7.947-5.82-15.644-8.7-23.09a417.168 417.168 0 0 0-8.97-21.447zM49.674 104.21c-6.67 0-12.744-1.09-18.226-3.28-5.48-2.198-10.188-5.418-14.114-9.666-3.93-4.248-6.968-9.432-9.113-15.554C6.074 69.59 5 62.555 5 54.606 5 46.658 6.187 39.6 8.563 33.434c2.374-6.166 5.618-11.35 9.73-15.553 4.11-4.2 8.86-7.4 14.25-9.593C37.934 6.097 43.646 5 49.674 5c4.112 0 7.79.273 11.032.822 3.242.548 6.05 1.188 8.428 1.918 2.374.732 4.293 1.463 5.755 2.193 1.46.732 2.467 1.28 3.016 1.644L73.93 22.54c-.823-.548-2.01-1.14-3.563-1.78-1.555-.64-3.357-1.28-5.413-1.92-2.056-.637-4.316-1.164-6.783-1.576-2.465-.41-5.07-.616-7.81-.616-4.66 0-8.907.87-12.744 2.604-3.838 1.737-7.126 4.248-9.867 7.537-2.74 3.29-4.865 7.286-6.373 11.99-1.507 4.706-2.26 9.982-2.26 15.827 0 5.666.66 10.827 1.986 15.486 1.322 4.66 3.333 8.656 6.03 11.99C29.824 85.42 33.16 88 37.134 89.826c3.975 1.828 8.655 2.74 14.047 2.74 6.03 0 11.03-.64 15.005-1.92 3.975-1.277 6.965-2.418 8.976-3.425l3.426 10.964c-.64.458-1.782 1.028-3.427 1.713-1.645.683-3.7 1.353-6.167 1.983-2.466.64-5.344 1.19-8.633 1.65-3.29.45-6.852.68-10.69.68z"/></svg>