<svg xmlns="http://www.w3.org/2000/svg" viewBox="0 0 500.2 184.9"><path class="st0" d="M370.3 48.2c-1 0-1.8.6-2.1 1.5l-25.1 80.4c-.2.7-.1 1.4.3 1.9s1.1.9 1.7.9h9.8c1 0 1.8-.6 2.1-1.5l17.4-56.7c.3-.9.7-1.5 1.6-1.5.8 0 1.2.7 1.5 1.5l17.4 56.7c.3.9 1.1 1.5 2.1 1.5h9.8c.7 0 1.3-.3 1.7-.9.4-.5.5-1.3.3-1.9l-25.1-80.4c-.3-.9-1.1-1.5-2.1-1.5h-11.3z"/><path class="st1" d="M267.9 48.2h-9.4c-1.2 0-2.2 1-2.2 2.2v80.4c0 1.2 1 2.2 2.2 2.2h9.4c1.2 0 2.2-1 2.2-2.2V50.4c0-1.2-1-2.2-2.2-2.2m72.6 0h-52.4c-1.2 0-2.2 1-2.2 2.2v8.5c0 1.2 1 2.2 2.2 2.2H305c1.3 0 2.3 1 2.3 2.3v67.4c0 1.2 1 2.2 2.2 2.2h9.4c1.2 0 2.2-1 2.2-2.2V63.3c0-1.3 1-2.3 2.3-2.3h17.2c1.2 0 2.2-1 2.2-2.2v-8.5c-.1-1.1-1.1-2.1-2.3-2.1m125.1 71.9h-26.9c-1.3 0-2.3-1-2.3-2.3V50.4c0-1.2-1-2.2-2.2-2.2h-9.3c-1.2 0-2.2 1-2.2 2.2v80.4c0 1.2 1 2.2 2.2 2.2h40.7c1.2 0 2.2-1 2.2-2.2v-8.5c0-1.2-1-2.2-2.2-2.2M212.8 88.8h-8.3c-1.3 0-2.3-1-2.3-2.3V63.3c0-1.3 1-2.3 2.3-2.3h8.3c7.8 0 14.2 6.4 14.2 14.2 0 7.6-6.3 13.6-14.2 13.6m1.5-40.6h-22.8c-.6 0-1.1.2-1.5.6-.4.4-.6 1-.6 1.5v80.4c0 1.2 1 2.2 2.2 2.2h8.5c1.2 0 2.2-1 2.2-2.2v-26.8c0-1.3 1-2.3 2.3-2.3h9.8c14.5 0 26.4-11.9 26.4-26.4-.1-14.6-12.2-27-26.5-27m-124 71.2c-.4-.9-1.1-1.3-2-1.3-.3 0-.5.1-.8.1-3.3 1.2-6.8 1.9-10.4 1.9-16.4 0-29.5-13.3-29.5-29.7s13.1-29.5 29.5-29.5c3.5 0 7 .5 10.3 1.7.2.1.5.1.8.1.9 0 1.6-.5 2-1.3l3.8-8.5c.2-.6.3-1.2 0-1.7-.2-.6-.7-1-1.2-1.2-5-2-10.3-3-15.7-3C53.4 47.2 34 66.6 34 90.5s19.4 43.3 43.3 43.3c5.4 0 10.7-1 15.7-3 .6-.2 1-.6 1.2-1.2.2-.5.2-1.2 0-1.7l-3.9-8.5zm58.9-69.7c-.3-.9-1.1-1.5-2.1-1.5h-11.3c-1 0-1.8.6-2.1 1.5l-25.1 80.4c-.2.7-.1 1.4.3 1.9.4.6 1.1.9 1.7.9h9.8c1 0 1.8-.6 2.1-1.5l17.4-56.7c.3-.9.7-1.5 1.6-1.5.8 0 1.2.7 1.5 1.5l17.4 56.7c.3.9 1.1 1.5 2.1 1.5h9.8c.7 0 1.3-.3 1.7-.9.4-.5.5-1.3.3-1.9l-25.1-80.4z"/></svg>