<svg xmlns="http://www.w3.org/2000/svg" viewBox="0 0 300 60"><path class="logotype logotext" d="M204.1 5.322H221V56.58h-16.9zM180.9 25.22l-19.7-.92c-3.4-.31-6.6.51-6.6-3.81 0-4.3 2.7-4.1 12-4.1 9.7 0 12.4-.35 12.4 4.72h16.6c0-4.44-.6-8.58-4.4-12.43-4.3-4.31-10.8-4.343-24.7-4.343-12.4 0-19.5.136-23.7 4.344-3.3 3.36-4.2 8.66-4.2 11.8 0 9.9 4.7 15.05 14.5 15.52l22.5 1.04c4.4.28 5.5 1.13 5.5 4.17 0 3.84-2.4 4.31-8.2 4.31h-9.4c-6.7 0-8.4-1.19-8.4-4.8h-16.6c0 3.19.2 8.59 3.2 11.53 4.1 4.11 6.5 5.46 26.4 5.46 19.8 0 21.6-1.04 26-5.46 3.4-3.41 3.6-7.66 3.6-10.79 0-12.02-5.2-15.73-16.8-16.24M95.55 36.31l7.35-19.74h2.6l7.4 19.74H95.55m-3.4-31.337L70.06 56.76H87.9l3.45-9.23h25.75l3.4 9.23h17.9L116.3 4.973H92.15zM53.24 36.65c-.17 2.99-.58 4.26-1.57 5.25-1.47 1.47-5.99 1.55-12.87 1.55-6.88 0-12.3-.1-13.77-1.55-1.49-1.49-1.67-3.72-1.67-11.2 0-7.47.18-9.79 1.67-11.27 1.47-1.48 6.89-1.56 13.77-1.56s11.23.1 12.7 1.56c.89.88.96 2.06 1.16 4.44h16.93c.27-7.1-.82-11.42-4.68-15.275-4.1-4.107-10.35-4.72-26.11-4.72-15.99 0-22.42.713-27 5.288C7.23 13.73 6.62 18.02 6.62 30.76c0 12.75.61 16.93 5.18 21.51 4.11 4.11 10.78 5.25 27 5.25 12.65 0 22.03-.15 26.76-4.87 3.79-3.79 4.74-7.59 4.95-16.01H53.24m221.06 5.27c-1.5 1.48-6.7 1.55-13.5 1.55s-12-.1-13.5-1.55c-1.4-1.48-1.6-3.62-1.6-11.11 0-7.47.2-9.62 1.6-11.1 1.5-1.47 6.7-1.54 13.5-1.54s12 .1 13.5 1.54c1.4 1.48 1.6 3.63 1.6 11.1 0 7.49-.2 9.63-1.6 11.11m13.1-32.732c-4.9-5.034-13.8-5.195-26.6-5.195s-21.6.162-26.6 5.195c-4.6 4.572-5.4 8.942-5.4 21.692 0 12.74.8 17.1 5.4 21.67 5 5.04 13.8 5.2 26.6 5.2s21.7-.16 26.6-5.2c4.6-4.57 5.4-8.93 5.4-21.67 0-12.75-.8-17.12-5.4-21.692z"/></svg>