<svg xmlns="http://www.w3.org/2000/svg" class="community-logo logo cassandra" viewBox="0 0 280 188"><path class="logotype" d="M201.4 5s-16.9 19.53-21.2 17.27l8.2-16.637s-8.2 16.627-19.2 13.797c5.1-6.51 7-12.475 7-12.475s-8.4 13.615-18.9 9.935c-2.5-.87 3-7.124 3-7.124s-7 6.834-11.8 5.984c-4.8-.84.3-9.62.3-9.62s-8.5 13.3-10.2 12.74c-1.7-.57.9-9.343.9-9.343s-6.3 10.193-9.7 9.623c-3.4-.56 0-10.472 0-10.472s-3.7 11.042-6.5 10.192c-2.8-.85-3.4-7.36-3.4-7.36s-.7 8.84-4.8 9.62C84.54 27.08 50.86 40.1 8.682 82.27 34.29 68.46 50.02 50.47 77.73 38.6c-.82 3.42-1.27 6.96-1.27 10.6 0 27.36 24.74 49.54 55.14 49.54 30.5 0 55.2-22.18 55.2-49.54 0-6.58-1.4-12.85-4-18.59 27.4 7 42 19.7 48.1 19.96 26.6 1.13 43.3-24.63 43.3-24.63s-16.7 19.25-28.9 14.58c10.9-6.37 19.3-21.93 19.3-21.93s-21.3 21.93-36 18.68c13.3-10.48 19.8-28.592 19.8-28.592S231.5 34.75 221 35.85c12.1-10.75 17.2-26.04 17.2-26.04s-13.8 20.38-24.6 21.8c14.4-13.02 15-21.23 15-21.23s-20 25.82-28 21.79c9.6-10.47 16.1-23.775 16.1-23.775S200 31.04 195.5 27.36c-3.1-.57 5.1-10.76 5.1-10.76s-10.2 9.06-13 6.8C192.7 20.28 201.4 5 201.4 5zm-55.1 21.12c4.7 0 9.2.22 13.4.6 3.4 1.13 6.5 2.62 9.1 4.56-.6 3.06-1.6 6.02-3 8.82-.3-.1-.7-.13-1-.13-2.5 0-4.4 1.98-4.4 4.43 0 1.06.4 2.03 1 2.79-2.7 3.43-5.9 6.4-9.6 8.71-.1-.67-.3-1.33-.5-1.96l5.7-4.3-6.4 2.3c-.4-.69-.8-1.35-1.2-1.98l4.4-6.08-6.1 4.05c-.6-.62-1.3-1.19-2-1.69l2.1-7.09-4.2 5.9c-.7-.34-1.5-.62-2.2-.84l-.1-7.42-2.9 6.91c-.4 0-.7-.1-1.1-.1-.4 0-.9 0-1.3.1l-2.4-7.05.1 7.45c-.7.19-1.4.41-2.1.69l-3.9-6.9 2.2 7.75c-.7.43-1.4.9-2 1.44l-6.7-4.84 5.1 6.4c-.5.56-1 1.16-1.4 1.79l-8.2-3.03 7.1 5.22c-.3.64-.5 1.3-.7 1.98l-8.4.26c-2.1-1.51-4.1-3.23-5.9-5.15 1.1-2.93 2.6-5.64 4.4-8.1.6.21 1.2.32 1.8.32 2.7 0 4.9-2.18 4.9-4.88 0-.67-.2-1.31-.4-1.9 8.1-6.53 19-9.78 29.6-8.31-.9-.28-1.8-.53-2.8-.74zm-18.9.84a35.91 35.91 0 0 0-10.6 5.58c-.6-.23-1.2-.35-1.8-.35-2.7 0-4.9 2.19-4.9 4.88 0 .6.1 1.18.3 1.71-1.8 2.25-3.3 4.73-4.5 7.41-3.2-4.36-5.5-9.4-6.67-14.73 8.27-2.05 17.57-3.59 28.17-4.5zm-28.99 4.69a35.86 35.86 0 0 0 6.09 18.01c-.3 1.12-.6 2.27-.9 3.44-.9 4.1-1.1 8.2-.6 12.14-2.1 1.04-3.62 3.23-3.62 5.77 0 3.55 2.92 6.42 6.42 6.42.3 0 .7 0 1-.1 1.7 3.26 3.9 6.24 6.5 8.84 0 0 0 .1-.1.14-15.54-6.97-26.4-22.61-26.4-40.79 0-5.04 1.86-8.94 4.82-11.98 2.19-.66 4.45-1.3 6.79-1.89zm71.19.22c4 3.23 6.7 7.64 6.7 13.65 0 7.9-2.1 15.31-5.7 21.75-4.9-4.07-10.9-6.76-17.2-7.75.9-.63 1.9-1.3 2.8-2.01l2.8-.67-1.9-.1c2.7-2.3 5-4.98 7-7.98.2 0 .4.1.7.1 2.4 0 4.4-1.98 4.4-4.43 0-1.3-.6-2.47-1.5-3.28 1.1-2.93 1.7-6.03 1.9-9.25zm58.2 20.72c-2.5.1-4.7 1.23-5.8 4.38-13.2 25.05-40.8 39.06-73.1 43.73-32.2 4.7-56.01-2.12-75.54-7.62C47.67 85.84 27.29 98.72 5 87.54c5.16 4.08 11.04 8.06 28.02 8.12 5.76 0 24.2-.91 27.6 2.07 3.4 2.97-11.46 16.97-11.46 16.97s25.14-21.25 27.59-14c1.53 4.5-7.21 16.6-7.21 16.6s8.77-11.9 15.28-14.5c4.48-1.7 8.25-1.5 11.47 3 2.12 3-10.2 17.4-10.2 17.4s16.61-16.1 19.51-15.3c3 .9 0 15.3 0 15.3s6.1-14.6 9.4-15.7c4.4-1.5-10.2 34-10.2 34s17.9-32.8 21.2-33.6c5.7-1.3 9.6 22.9 9.6 22.9s-2.8-21.1.2-22.5c19-8.56 8 36.6 8 36.6s12.5-30.7 4.8-37.5c20.2 13.4 17.7 37.5 17.7 37.5s5.3-11.5-9.5-39.6c8-.5 20.2 20.9 20.2 20.9s-13.2-23.4-4.3-23.8c17.7-.8 19.5 31 19.5 31s5.3-4.5-8.9-35.67c9.1-5.8 31 28.87 31 28.87s-20.2-33.83-17-36.09c3.3-2.26 15.2 10.79 15.2 10.79s-9.1-12.49-6.7-13.76c2.4-1.28 26.5 24.76 26.5 24.76s-21.2-25.47-17.6-28.58c2.2-1.85 8.5 1.57 13.4 4.66-6.8-4.82-16.5-12.39-13.4-14.02 6.6-3.38 25.1 8.08 25.1 8.08s-11.2-9.2-9.3-11.46c1.8-2.27 23.7 14.43 23.7 14.43s-19.4-15.28-20.4-19.1c-.9-3.82 15.3 1.27 15.3 1.27s-17.9-8.35-18.2-10.75c-.3-2.41 11.9 2.69 11.9 2.69s-8.7-7.1-15-6.93zm.3 35.79c3.2 2.36 5.9 4.11 5.9 4.11s-2.6-1.98-5.9-4.11zm-120.5-34.8c2.5 2.69 5.4 4.99 8.5 6.83l-2.1.46 3.4.24c1.9 1.03 4 1.88 6.1 2.54l-7.6 4.83 8.5-3.08c.2.41.5.8.7 1.18l-1.9 2.43c-4 3.82-7 8.49-8.8 13.63-1.7-2.16-3.1-4.48-4.2-6.92 1.2-1.17 2-2.84 2-4.7 0-3.14-2.2-5.75-5.2-6.31-.4-3.52-.3-7.13.5-10.73.1-.14.1-.27.1-.4zm7.5 1.61l7.6 1.95c-.1.4-.1.81-.1 1.23 0 .21 0 .42.1.63h-.3c-2.5-.99-5-2.29-7.3-3.85zm36.1 8.06c6.4.58 12.5 2.95 17.8 6.63a44.607 44.607 0 0 1-37.5 20.37c-3.9 0-7.7-.51-11.3-1.45-1.2-1.01-2.3-2.1-3.4-3.25 2.3-5.86 6-11.13 10.8-15.09l-2.3 8.68 5.4-7.65c.5.26 1.1.51 1.6.71l-.7 8.82 3-8.19c.7.13 1.4.2 2.1.23l2.6 8.52.6-8.72c.5-.1 1.1-.22 1.6-.38l3.9 7.39-2.2-8c.7-.31 1.4-.68 2-1.1l6.6 5.12-4.4-6.81c.5-.45.9-.94 1.4-1.46l7.4 2.9-5.7-5.6c.3-.54.5-1.1.7-1.67zm86.5 113.15c2.9 0 8.3-5.2 9.8-15 0-.6.1-.8.2-1.4-.7-.3-1.6-.4-2.5-.4-2.2 0-4.5.6-6.5 3.4-2.1 2.9-3 6.6-3 9.5 0 2.5.7 3.9 1.9 3.9h.1zm-9.7-2.7c0-3.6 1.2-9.8 5.7-14.3 3.8-3.9 8.5-4.9 12.8-4.9 2.8 0 6.7.9 9.1 1.4-.6 2.6-2.1 12.6-2.7 18.4-.3 2.4-.5 5.8-.3 7.1-2 .8-5.7 1.1-6.8 1.1-.5 0-.6-2.5-.4-4.8 0-.8.1-1.9.2-2.4-2.3 3.9-7 7.2-11.8 7.2-3.5 0-5.8-2.9-5.8-8.8zm-11.5-10.5c3.2-7.1 6.9-8.7 9.4-8.7.8 0 2 .5 2.5 1.1.3 2-1.3 5.9-2.7 7.4-.7-.3-1.6-.7-2.6-.7-2.1 0-6.1 3.2-8.6 16.9-.2 1.1-.5 1.6-1.2 1.9-1 .6-5 1.1-6.9 1.1.8-4.9 2.4-14.9 3-20.8.2-1.5.2-4.2.1-5.3 1.2-.6 5.7-1.6 6.7-1.6.5 0 1 3.3.1 8.7h.2zm-31.2 13.1c2.6 0 8-4.9 9.5-13.6 0-.5.2-1.4.3-1.9-.7-.8-1.8-1.2-3.4-1.2-6.1 0-8.8 7.2-8.8 12.4 0 2.9 1 4.3 2.3 4.3h.1zm-4 6.2c-3.8 0-6.2-3.4-6.2-9.3 0-9.7 6-18.7 16.3-18.7 1.8 0 3.4.5 4.4 1.1.5-2.8 1.8-11.3 1.9-13.8 1.6-.3 5.2-.8 6.9-.8.6 0 .8.6.6 2.1-1.5 9-4.1 26.3-4.5 30.1-.4 3.3-.5 6.5-.4 8.3-1.9.8-5.8 1-6.8 1-.5 0-.7-2.8-.6-5.2.1-.8.2-2 .2-2.1-3 4.9-7.2 7.3-11.7 7.3h-.1zm-26.5-20.2c2.8-4.4 6.4-7.8 11.4-7.8 4.3 0 5.7 4 4.9 9.6-.4 2.7-1.2 6.4-1.6 9.9-.5 3-.8 5.6-.7 7.4-1.6.8-6.1 1.1-7.1 1.1-.5 0-.5-3.3 0-6.8.5-2.9 1.5-8.1 2-11.1.3-1.7.2-3.8-1.4-3.8-2.3 0-7.5 3.5-10.2 18-.2 1.2-.6 1.9-1.3 2.4-.9.5-2.8 1-6.7 1 .7-3.6 1.8-11.1 2.7-16.6.7-5.1 1.1-8.3.9-9.6 1-.3 6.3-1.5 6.9-1.5.7 0 .8 1.9.2 6.4 0 .4-.1 1.1-.2 1.4h.2zm-31.4 14.1c2.9 0 8.3-5.2 9.8-15 0-.6.1-.8.2-1.4-.7-.3-1.6-.4-2.5-.4-2.2 0-4.5.6-6.5 3.4-2.1 2.9-3 6.6-3 9.5 0 2.5.7 3.9 1.9 3.9h.1zm-9.7-2.7c0-3.6 1.2-9.8 5.7-14.3 3.8-3.9 8.5-4.9 12.8-4.9 2.8 0 6.7.9 9.1 1.4-.6 2.6-2.1 12.6-2.7 18.4-.3 2.4-.5 5.8-.3 7.1-2 .8-5.7 1.1-6.8 1.1-.5 0-.6-2.5-.4-4.8 0-.8.1-1.9.2-2.4-2.3 3.9-7 7.2-11.8 7.2-3.5 0-5.8-2.9-5.8-8.8zm-9.2-19.2c2.4 0 4.8.9 5.9 2.1-.1 1.6-1.4 4.5-3.5 3.7-.9-.3-1.8-.6-3-.6-1.6 0-3 .8-3 2.3 0 1.1.8 1.9 4.8 4.8 2.9 2.1 4.1 3.9 4.1 6.6 0 4.3-4.2 9.1-11.39 9.1-2.94 0-5.52-1.2-6.36-2.4-1.08-1.8-.24-5.3.96-4.7 1.56.8 4.14 1.6 6.24 1.6 1.95 0 3.25-.9 3.25-2.1 0-1-.9-1.9-4.57-4.5-3.06-2.3-4.02-4.4-4.02-6.8 0-4.9 4.26-9.1 10.49-9.1h.1zm-20.73 0c2.46 0 4.8.9 5.88 2.1-.1 1.6-1.38 4.5-3.48 3.7-.9-.3-1.8-.6-3-.6-1.62 0-3 .8-3 2.3 0 1.1.84 1.9 4.86 4.8 2.88 2.1 4.02 3.9 4.02 6.6 0 4.3-4.14 9.1-11.34 9.1-2.94 0-5.52-1.2-6.36-2.4-1.08-1.8-.24-5.3.96-4.7 1.56.8 4.14 1.6 6.24 1.6 1.98 0 3.24-.9 3.24-2.1 0-1-.9-1.9-4.56-4.5-3.06-2.3-4.02-4.4-4.02-6.8 0-4.9 4.26-9.1 10.5-9.1h.1zm-32.82 21.9c2.94 0 8.28-5.2 9.78-15 .1-.6.12-.8.24-1.4-.66-.3-1.56-.4-2.46-.4-2.22 0-4.5.6-6.54 3.4-2.1 2.9-3 6.6-3 9.5 0 2.5.72 3.9 1.92 3.9h.1zm-9.66-2.7c0-3.6 1.2-9.8 5.7-14.3 3.84-3.9 8.52-4.9 12.78-4.9 2.82 0 6.66.9 9.06 1.4-.6 2.6-2.04 12.6-2.7 18.4-.3 2.4-.42 5.8-.3 7.1-1.98.8-5.7 1.1-6.72 1.1-.54 0-.66-2.5-.48-4.8.1-.8.18-1.9.24-2.4-2.34 3.9-6.96 7.2-11.82 7.2-3.48 0-5.76-2.9-5.76-8.8zm-7.98-19.2c2.28 0 4.44.6 5.52 1.6.18 1.7-1.32 4.4-2.28 4.4-1.14-.4-2.22-.6-3.54-.6-5.46 0-8.16 5.6-8.16 11.2 0 3.5 1.2 5.6 3.96 5.6 2.94 0 5.94-2 7.62-3.5.42.3.96 1.2.96 2.3 0 1.2-.36 2.4-1.44 3.4-1.92 2-5.16 3.6-9.84 3.6-5.4 0-9.12-3.1-9.12-10.2 0-9.4 6.18-17.8 16.26-17.8h.1z"/></svg>