<svg xmlns="http://www.w3.org/2000/svg" viewBox="0 0 409.48 163.75"><path class="logotext" d="M276.17 22.003l3.88 18.338h1.81c1.74 0 2.6-.687 2.95-2.15.35-1.525 2.35-9.388 2.35-9.388l2.46 11.54h4.39L297.88 22h-2.97l-2.51 11.2-2.38-11.2h-4.73l-2.34 11-2.49-11h-4.29zm31.59 0V40.34h3.97v-9.3h.37l2.82 7.287s.63 2.09 2.96 2.076h1.39l3.64-9.375.36.125v9.3h3.98v-18.34h-4.14l-5.6 14.44v-.113l-5.6-14.437h-4.14zm27.75 0c-5.15 0-5.15 4.786-5.16 4.924v8.613c0 .712.17 4.824 5.16 4.824H344v-2.437h-6.34c-2.85 0-3.01-2.388-3.01-2.813v-2.95H344v-2.438h-9.35v-2.324c0-.175 0-2.976 2.73-2.988H344v-2.412h-8.49zm40.89 0l-5.5 18.338h2.95l4.22-14.087 3.12 11.025s.72 3.063 4.29 3.063h.87l-5.19-18.337H376.4zm-28.14.03v.02H346.94V40.38h8.83c5.14 0 5.14-4.79 5.15-4.927v-8.6c0-.712-.17-4.824-5.15-4.824h-7.51zm-99.63.02c-5.13 0-5.13 4.788-5.15 4.925v8.614c0 .712.18 4.824 5.15 4.824h8.52v-2.438h-6.35c-2.85 0-3.01-2.386-3.01-2.824V27.44c0-.16 0-2.962 2.73-2.987h6.63v-2.4h-8.52zm16.38 0c-4.96 0-5.14 4.463-5.16 4.9v8.639c0 .725.17 4.824 5.16 4.824h8.5v-2.438h-6.35c-2.85 0-3-2.387-3.01-2.812v-7.712c0-.162 0-2.96 2.75-2.986h6.61v-2.414h-8.5zm98.89 0V40.39h4.3V22.054h-4.3zm-12.67 2.425h2.38c2.85 0 3.01 2.4 3.02 2.825v-.05 7.735c0 .34-.12 2.94-2.72 2.964h-2.67V24.477zM220.1 31.424l-2.24 9.236h-5.65l-11.63 71.23v.25-.15l1.06-2.36-1.08 2.51 11.51-18.13v47.73h13.8V72.282l12.63-19.89h-11.01l9.46-20.928H220.1zM26.132 52.99v18.05H46.97V52.99H26.132zm52.437 0v24.3H52.832v12.313H78.57V141.7h18.05V89.603h25.88v38.747c0 4.1 1.28 7.42 3.51 9.72 2.21 2.3 5.41 3.63 9.36 3.63h63.7v-13.23h-56.91c-1.14 0-2.16-.3-2.9-.94-.73-.65-1.14-1.63-1.13-2.77V89.603h11.21v27.347h32.53c10.63 0 10.8-6.94 10.93-10.56V89.603h8.21V77.28h-8.2V52.99h-14.96v24.29h-39.31V52.99H122.5v24.29h-8.19v.01H96.62V52.987H78.57zm71.14 0v18.05h14.96V52.99h-14.96zm101.19 0l-2.11 6.926h-9.84l-6.94 11.15h13.4l-1.94 6.213h-13.15v11.736h9.62l-3.96 13.164v7.27h39.65l-15.9 19.82h-24.26v12.41h45.76l9.98-12.41h-14.69l15.7-19.5V97.904h-39.35l2.65-8.888h36.7V77.28h-33.16l1.91-6.214h42.74v32.794c0 5.03.13 7.4 2.83 11.06l5.03 6.64-16.17 20.14h15.75l7.66-10.27 5.75 7.38c1.76 1.95 3.54 2.93 5.89 2.93h11.52c3.98 0 8.09-2.56 9.33-8.1l3.92-20.51v28.61h12.83v-28.61l3.76 18.3c1.7 6.89 6.48 10.31 12.66 10.31h3v-10.31h-.41c-1.46 0-4.4-.55-5.64-4.65l-3.06-13.6h7.1v-10.33H368v-4.46h5.32v-.04c5.85 0 10.61-1.474 10.61-9.774V71.04h1.93V59.9h-1.93v-6.914h-11.46v6.914h-19.5v-6.914h-10.99v6.914h-2.65v.01h-2.87v-.01h-2.57v-6.914h-11.72v6.926h-6.7v-6.926h-11.72v6.926h-39.41l2.12-6.926h-15.54zm102.05 18.05h19.11v4.964h-19.11V71.04zm-37.55.02h6.7v29.34c0 6.35-3.34 11.32-3.34 11.32l-3.36-4.7v-36zm18.47 0h7.7v27.363h13.55v4.377h-17.4v10.31h7.33l-3.13 15.54c-.55 2-1.36 2.72-3.3 2.72h-1.5c-2.08 0-3.77-.72-5.2-2.27l-5.72-7.53s7.67-9.61 7.67-21.06V71.06zM21.995 77.275v12.313h8.486v41.723c0 5.19 1.615 10.3 10.103 10.3H67.27v-12.45H51.22c-1.412 0-2.45-.14-3.238-.7-.8-.57-1.087-1.54-1.062-2.64V77.274H21.996zM353 83.852h19.06v1.813c0 2.212-1.54 2.85-3.2 2.85H353v-4.663zm-188.33 5.75h13.19v11.768c0 2.44-1.99 2.94-3 2.94h-10.19V89.602z"/></svg>