<svg xmlns="http://www.w3.org/2000/svg" viewBox="0 0 204 56"><path d="M27.875 6.42l-4.637 4.664h3.104V23.35l1.533 1.54 1.518-1.527v-12.2h3.2L27.874 6.42zm-15.033 6.14V19.9l2.906-2.863 8.08 7.956h1.514v-1.232l-8.06-8.108 3.08-3.097h-7.52zm8.93 0l-3.08 3.096 6.65 6.688V12.56h-3.57zm8.624.09v9.702l6.66-6.7-2.986-3.003h-3.672zm5.084 0l2.985 3.003-8.07 8.12v1.308h1.445L39.87 17l2.97 2.985V12.65h-7.362zm118.68 2.82c-4.74 0-8.22 1.185-10.53 3.492-2.12 2.123-3.19 5.077-3.19 8.976 0 4.79 1.21 8.16 3.58 10.243 2.14 1.894 5.54 2.887 10.25 2.887 4.24 0 7.4-.86 9.53-2.504 2.62-2.04 3.96-5.427 3.96-10.33 0-4.385-.94-7.506-2.73-9.43-2.04-2.18-5.63-3.333-10.87-3.333zm-82.855.44c-1.625 0-3.212.318-4.772.956-1.96.808-3.466 2.303-4.55 4.567-.992 2.054-1.495 4.425-1.495 7.13 0 2.8.56 5.22 1.668 7.295 1.226 2.288 2.837 3.692 4.883 4.313 1.08.306 2.17.458 3.273.458h10.85v-3.664l-9.968.04c-1.806 0-3.288-.967-4.255-2.717-.834-1.485-1.24-3.278-1.24-5.35 0-2.42.308-4.403.956-5.96.834-2.007 2.327-3.137 4.246-3.137h10.19v-3.924h-9.785zm56.675 0v6.687h-3.23v2.968h3.23v9.39c0 .977.1 1.81.25 2.495.15.64.47 1.23 1.01 1.787.88.9 2.32 1.39 3.62 1.39h4.24v-2.71h-1c-1.09 0-2.03-.288-2.75-.89v-.02a3.136 3.136 0 0 1-.97-2.308v-9.134h4.96v-2.968h-4.96v-6.686H128zm51.2 0c-2.53 0-4.51.687-6.03 2.042-1.49 1.33-2.22 3.024-2.22 5.21 0 1.95.74 3.49 2.28 4.757 1.56 1.277 3.34 1.907 5.41 1.907h7.57c1.61 0 2.86.273 3.76.908.9.636 1.37 1.652 1.37 2.86 0 1.07-.5 2.002-1.39 2.617-.78.534-1.74.788-2.82.788h-14.49v3.63l17.69.03c2.19 0 3.93-.71 5.33-2.16 1.41-1.457 2.1-3.204 2.1-5.347 0-2.09-.68-3.685-2.07-4.916-1.36-1.248-3.25-1.888-5.76-1.888h-8.34c-1.05 0-2.01-.34-2.78-1.003a3.483 3.483 0 0 1-1.15-2.607c0-.93.44-1.77 1.21-2.407s1.58-.996 2.41-.996h14.82V15.93h-16.87zM39.873 18.418L33.25 25.08h9.592v-3.677l-2.97-2.986zm-24.125.02L12.842 21.3v3.69h9.56l-6.654-6.553zm138.192.623c2.75 0 4.92.894 6.37 2.684 1.29 1.6 1.91 3.736 1.91 6.338 0 2.796-.44 4.955-1.4 6.476-1.22 1.946-3.4 2.915-6.3 2.915-3.4 0-5.87-.97-7.21-2.98-.97-1.455-1.41-3.59-1.41-6.41 0-2.478.58-4.54 1.75-6.138 1.42-1.913 3.57-2.883 6.29-2.883zm-61.5 3.54c-2.004 0-3.81.89-5.506 2.773-1.663 1.85-2.48 4.01-2.48 6.572 0 2.34.746 4.374 2.27 6.178 1.54 1.774 3.276 2.615 5.31 2.615h8.466v-2.564h-5.93c-.857 0-1.598-.06-2.232-.194h-.02a3.866 3.866 0 0 1-1.687-.928c-.45-.45-.78-.908-.96-1.39v-.04a5.22 5.22 0 0 1-.205-1.54v-.5h10.985v-2.97H89.428v-.5c0-1.362.48-2.62 1.46-3.46a4.057 4.057 0 0 1 1.712-.876c.617-.16 1.326-.235 2.137-.235h5.743v-2.93h-8.02zm12.69 0v18.03h4.11V25.86h5.5c.74 0 1.44.26 2.01.745.3.273.54.57.72.89.2.326.29.704.29 1.097V40.62h4.11V28.186c0-1.294-.38-2.465-1.15-3.562-.67-.915-1.53-1.485-2.65-1.754-.7-.174-1.94-.278-3.66-.278h-9.28zm-93.788.183l-4.916 4.842 4.918 4.844v-3.386h12.248l1.48-1.46-1.648-1.622h-12.08v-3.22zm33 .133v3.168H32.256l-1.563 1.572 1.42 1.428h12.143v3.4l4.8-4.826-4.714-4.742zm-31.998 7.168v3.37l3.404 3.35 6.828-6.722H12.344zm11.656 0l-8.252 8.127-3.404-3.353v8.227h8.164L17 39.627l8.342-8.217v-1.326H24zm6.342 0v1.512l7.793 7.675.36.357-3 2.957h7.247v-7.156l-2.513 2.527-.357.356-8.178-8.228h-1.35zm2.763 0l6.77 6.81 2.867-2.886v-3.924h-9.637zm-5.357.36l-1.406 1.386v12.254H22.95l4.798 4.725 4.8-4.726H29.34V32.016l-1.594-1.57zm-2.406 2.37l-6.918 6.813 3.51 3.457h3.408v-10.27zm5 .186v9.584h3.728l3.002-2.957L30.342 33z"/></svg>