<svg xmlns="http://www.w3.org/2000/svg" viewBox="0 0 140 30"><path d="M28.032 3.75l.725-2.09h.587v2.535h-.35V1.91h-.01l-.81 2.285h-.33l-.812-2.284v2.285h-.36V1.66h.63zm-3.778-2.09h2.05v.302h-.85v2.233h-.35V1.962h-.85zm-8.348 27.342a13.634 13.634 0 0 0 4.532-1.216l-4.532-7.847V29M13.436 1.66c-1.606.142-3.13.56-4.533 1.212l4.532 7.847V1.66m5.846 14.904l7.85 4.53a13.595 13.595 0 0 0 1.212-4.53h-9.06M2.21 9.562A13.69 13.69 0 0 0 1 14.094h9.06L2.21 9.562M1 16.564a13.69 13.69 0 0 0 1.21 4.53l7.85-4.53H1m27.342-2.47a13.716 13.716 0 0 0-1.21-4.532l-7.85 4.532h9.06m-5.766 12.46a13.83 13.83 0 0 0 3.318-3.32l-7.848-4.53 4.53 7.85m3.318-19.13a13.8 13.8 0 0 0-3.317-3.316l-4.53 7.846 7.847-4.53M8.904 27.786c1.402.65 2.926 1.07 4.53 1.216V19.94l-4.53 7.846M20.437 2.872a13.57 13.57 0 0 0-4.532-1.212v9.06l4.532-7.848M6.765 4.108A13.795 13.795 0 0 0 3.45 7.424l7.846 4.53-4.53-7.846M3.448 23.234a13.84 13.84 0 0 0 3.315 3.318l4.53-7.85-7.846 4.532M91.266 21.6l-3.646-8.726h1.848l2.74 6.91 2.797-6.91h1.776l-5.144 12.11H89.94zm-7.71.03h-1.658V12.87h1.656v1.69h.04c.243-1.202 1.356-1.814 2.563-1.814.208 0 .385.02.574.02v1.57c-.228-.09-.488-.09-.715-.09-2.096.07-2.462 1.184-2.462 3.035v4.342m-5.53-8.753h1.654v8.757h-1.62v-1.29h-.03c-.664 1.096-1.782 1.552-3.003 1.552-1.833 0-2.88-1.394-2.88-3.157v-5.863h1.658v5.18c0 1.52.347 2.634 1.937 2.634.68 0 1.604-.346 1.956-1.254.314-.818.332-1.848.332-2.06v-4.5m-10.973 0V11.01l1.656-.526v2.388h2.025v1.203h-2.024V19.7c0 .625.49.92 1.084.92.26 0 .61-.03.87-.102v1.272c-.382.02-.75.104-1.13.104-.403 0-.718-.02-1.118-.09-.262-.05-.7-.19-.978-.578-.298-.418-.385-.45-.385-1.623v-5.53h-1.5V12.87h1.5m-8.625 1.294h.03c.56-1.1 1.78-1.552 2.652-1.552.61 0 3.318.16 3.318 2.967v6.05h-1.66v-5.513c0-1.45-.61-2.233-2.01-2.233 0 0-.905-.05-1.603.646-.245.243-.698.63-.698 2.34v4.76H56.81v-8.756h1.625v1.29m-9.5 3.402c-.12 1.536.507 3.12 2.198 3.12 1.292 0 1.937-.503 2.132-1.775h1.744c-.265 1.99-1.798 2.983-3.893 2.983-2.81 0-3.924-1.987-3.924-4.57 0-2.565 1.288-4.71 4.063-4.71 2.618.05 3.855 1.708 3.855 4.13v.823h-6.175m4.434-1.148c.03-1.47-.632-2.602-2.237-2.602-1.38 0-2.198 1.168-2.198 2.602zm-9.282-4.138c-.09-1.206-1.38-2.008-2.67-2.008-3.11 0-3.684 2.845-3.684 5.063 0 2.6.787 5.06 3.528 5.06 1.34 0 2.563-.664 2.77-2.007h1.833c-.172 2.112-2.302 3.506-4.76 3.506-3.72 0-5.2-3.034-5.2-6.56 0-3.09 1.358-6.684 5.58-6.562 2.426.07 4.244 1.258 4.432 3.508h-1.83m79.773 9.35V9.033h2.62v7.416l2.59-3.678h2.91l-3.02 3.835 3.21 5.025h-3.05l-2.64-4.797v4.802zm-8.3-7.746v.05c.54-.803 1.36-1.326 2.69-1.326.87 0 2.56.643 2.87 1.917.14.54.18 1.102.18 1.398v5.704h-2.62V16.36c0-.944-.28-2.006-1.57-2.006-.82 0-1.53.733-1.57 2.005v5.267h-2.61V12.87h2.6v1.01m-7.79-4.848h2.79v2.253h-2.79zm.1 3.842h2.62v8.755h-2.62zm-1.65 6.663v2.094h-8.167V9.033h2.707v10.505zm31.5-4.697l.71-2.088h.6v2.537h-.35v-2.287l-.81 2.286h-.33l-.81-2.287v2.286h-.35V12.75h.63zm-3.78-2.088h2.05v.304h-.85v2.233h-.35v-2.234h-.85z"/></svg>