<svg xmlns="http://www.w3.org/2000/svg" viewBox="0 0 309.9 84.82"><path d="M43.19 0c-5.83 0-11.48 1.14-16.81 3.395a42.92 42.92 0 0 0-13.73 9.255 43.166 43.166 0 0 0-9.258 13.73A42.953 42.953 0 0 0 0 43.19c0 3.33.377 6.65 1.13 9.87a43.038 43.038 0 0 0 3.23 9.07c2.6 5.32 6.82 10.63 11.59 14.61 3.11-1.7 4.87-3.58 5.24-5.58.37-1.93-.48-4-2.66-6.52-5.17-5.93-8.01-13.55-8.01-21.45 0-18.01 14.65-32.67 32.67-32.67h.3c18.01 0 32.67 14.66 32.67 32.67 0 7.9-2.85 15.52-8.01 21.44-2.16 2.51-3.03 4.67-2.66 6.61.39 2.01 2.16 3.86 5.24 5.5 4.77-3.97 8.99-9.28 11.59-14.61 1.41-2.89 2.5-5.94 3.23-9.07.75-3.22 1.13-6.54 1.13-9.87 0-5.82-1.14-11.48-3.4-16.81a43.127 43.127 0 0 0-9.25-13.73A43.14 43.14 0 0 0 60.3 3.395 42.938 42.938 0 0 0 43.49 0h-.3zm0 17.47c-1.22 0-2.44.1-3.63.25-3.51.5-6.95 1.76-9.96 3.63a26.005 26.005 0 0 0-7.38 6.95 25.968 25.968 0 0 0-4.19 9.57c-.78 3.71-.73 7.61.14 11.29.81 3.38 2.33 6.64 4.41 9.41.56.75 1.18 1.44 1.84 2.16l.67.73.1.1c2.29 2.66 3.46 5.53 3.46 8.52 0 4.52-2.51 8.67-6.46 10.8 2.29 1.27 4.71 2.34 7.19 3.17.83.27 1.67.53 2.51.75.5-.31 2.21-1.59 3.89-3.91 1.6-2.21 3.49-5.88 3.39-10.8-.1-2.95-.66-5.84-1.77-8.56-1.1-2.69-2.68-5.16-4.7-7.34l-.45-.51c-.76-.88-1.54-1.79-2.17-2.86-.78-1.31-1.34-2.69-1.67-4.1a15.52 15.52 0 0 1-.1-6.68 15.38 15.38 0 0 1 2.48-5.65c1.16-1.63 2.67-3.05 4.37-4.11 1.77-1.11 3.8-1.85 5.88-2.14.69-.1 1.42-.15 2.14-.15h.31c.73 0 1.45.1 2.15.15 2.08.29 4.11 1.03 5.88 2.14 1.7 1.06 3.21 2.48 4.37 4.11a15.36 15.36 0 0 1 2.47 5.65c.47 2.19.44 4.5-.1 6.68-.33 1.41-.9 2.79-1.67 4.1-.63 1.07-1.41 1.98-2.17 2.86l-.45.51c-2.02 2.18-3.6 4.65-4.7 7.34a23.685 23.685 0 0 0-1.77 8.56c-.1 4.92 1.79 8.59 3.39 10.8 1.67 2.32 3.39 3.6 3.89 3.91.84-.22 1.68-.48 2.51-.75 2.48-.83 4.9-1.9 7.19-3.17-3.95-2.13-6.46-6.28-6.46-10.8 0-2.95 1.13-5.73 3.45-8.51 0-.1.1-.1.1-.11l.67-.73c.66-.72 1.28-1.41 1.84-2.16 2.08-2.77 3.6-6.03 4.41-9.41.87-3.68.92-7.58.14-11.29-.72-3.41-2.17-6.72-4.19-9.57a26.005 26.005 0 0 0-7.38-6.95 25.96 25.96 0 0 0-9.96-3.63 25.74 25.74 0 0 0-3.63-.25h-.32zm.16 17.61c-4.7 0-8.53 3.82-8.53 8.52 0 4.71 3.83 8.53 8.53 8.53 4.7 0 8.52-3.82 8.52-8.53 0-4.7-3.82-8.52-8.52-8.52zM306.9 21.56c-2-2.01-4.5-3.11-9.3-3.11h-8.5c-4.4 0-6.7 1.01-13.5 6.6V4.472a36.893 36.893 0 0 0-10.3-3.87h-.1V72.6h10.4V30.73c.7-.38 1.5-.63 2.1-1.01 2.9-1.26 5.3-1.9 8-1.9h7.1c3.4 0 4.4.38 5.5 1.4 1 1.01 1.4 2.65 1.4 5.31V72.6h10.4V33.77c0-7.46-1-10.13-3.2-12.23m-62.3 40.57c-.9.88-2.2 1.26-5.5 1.26h-7.8c-3.2 0-6-.89-9.9-2.78-.1-.13-.4-.26-.6-.38V30.73c4-2.02 6.8-2.91 10.1-2.91h8.2c3.3 0 4.6.38 5.5 1.27 1.5 1.52 1.9 4.43 1.9 16.44 0 12.15-.4 15.06-1.9 16.58zm-3.1-43.66h-7.2c-4.5 0-6.7 1.01-13.5 6.6v-6.49h-10.4V84.5h10.4V66.15c6.8 5.57 9 6.58 13.5 6.58h7.2c5.8 0 8.8-1.01 11-3.29 2.9-2.91 4.3-7.08 4.3-23.91 0-16.82-1.4-20.87-4.3-23.77-2.2-2.3-5.2-3.31-11-3.31m-72.6 22.28h24.7c0-9.11-.7-11.14-1.5-12.02-.7-.63-1.6-1.01-4.7-1.01H175c-3.1 0-3.8.25-4.7 1.01-.9 1.01-1.3 2.78-1.4 12.02zm0 8.22c.1 10.63.8 12.78 1.5 13.53.8.76 1.5 1.02 4.6 1.02h14c2.3 0 3.1-.38 3.7-1.02.6-.75.9-1.89 1-6.7h10.1c-.1 8.35-1 11.39-3.6 14.17-1.8 1.64-4.1 2.65-8.9 2.65h-17.5c-5.3 0-8.4-.88-10.7-3.16-3.4-3.41-4.4-7.71-4.4-23.91 0-16.19 1-20.38 4.4-23.87 2.3-2.2 5.4-3.1 10.7-3.1h14.8c5.4 0 8.8.99 10.8 3 3.4 3.49 4.4 7.66 4.4 23.47v2.78c0 .76-.2 1.14-1.1 1.14h-33.8m-17.6 3.92c0 11.26-1 14.3-3.6 17.08-1.7 1.52-4.2 2.65-8.9 2.65h-16.4c-5.4 0-8.6-.88-10.8-3.16-3.5-3.41-4.5-7.71-4.5-23.91 0-16.19 1-20.38 4.5-23.87 2.2-2.2 5.4-3.1 10.8-3.1h16.3c4.9 0 7.1.99 8.8 2.7 2.6 2.6 3.6 6.18 3.6 16.3H141c-.2-6.95-.5-8.22-1.2-8.85-.6-.51-1.4-.89-3.6-.89h-12.6c-3.1 0-3.9.38-4.7 1.02-.8 1.01-1.3 2.91-1.3 16.69 0 13.79.5 15.69 1.3 16.7.8.76 1.6 1.01 4.7 1.01h12.6c2.2 0 3.2-.12 3.9-.88.7-.63 1.1-2.66 1.1-9.49h10.1"/></svg>