<svg xmlns="http://www.w3.org/2000/svg" viewBox="0 0 415.3 409.2"><path d="M119.9 139.7H100c0 40.1 24.8 74.4 59.9 88.5l7.4-18.5c-27.8-11.1-47.4-38.3-47.4-70M269.2 125h20.3c-5.3-33.89-28.5-61.94-59.7-74.09l-7.2 18.57c23.7 9.26 41.6 30.08 46.6 55.52m-73.9-83.03c21.9 0 42.1 7.23 58.5 19.44l11.9-16.03C246.1 30.7 221.7 22 195.3 22c-50 0-92.6 31.12-109.71 75l18.61 7.3c14.2-36.47 49.7-62.33 91.1-62.33m0 195.53c-26.9 0-51.4-11-69.1-28.7L112.1 223c21.3 21.3 50.7 34.5 83.2 34.5 60.1 0 109.6-45 116.8-103.1H292c-7.1 47-47.8 83.1-96.7 83.1m10.7-70.4l7.6 19.7c14.4-5.6 25.6-17.5 30.1-32.4h-22.9c-3.3 5.8-8.6 10.3-14.8 12.7m-61.2-27.4c0 7.2 1.5 14.1 4.2 20.4l19.4-8.5c-1.6-3.7-2.5-7.7-2.5-11.9 0-16.2 13.1-29.4 29.4-29.4V89.15c-27.9 0-50.5 22.65-50.5 50.55" opacity=".25"/><path d="M195.3 215.1V235c47.6 0 87.1-35 94.2-80.6h-20.3c-6.8 34.6-37.3 60.7-73.9 60.7m0-150.77V44.42c-40.4 0-74.9 25.24-88.8 60.78l18.5 7.2c11-28.09 38.4-48.07 70.3-48.07M292 125h20.1c-2.1-17.3-8.1-33.48-16.9-47.63l-17 10.59c6.9 11.1 11.7 23.64 13.8 37.04m-190.2 43c-.5-1.1-.7-2.2-1-3.3-.5-1.1-.5-2.1-.8-3.2v-.6c0-.9-.44-1.9-.53-2.7 0-.5 0-.8-.46-1.3 0-.7-.45-1.4-.45-2.1 0-.7 0-1.3-.46-1.9-.55-4.3-.87-8.6-.87-13H77.28c0 4.8.46 9.5.82 14.2v.4c0 1.3.46 2.5.55 3.8v1.1c0 1 .46 2 .55 3 0 .6 0 1.1.46 1.7 0 .8.45 1.6.54 2.4 0 .7.46 1.4.51 2.2 0 .6.45 1.2.5 1.8 0 .9.45 1.7.68 2.6 0 .4 0 .7.46 1 1.37 4.6 3.01 9 4.93 13.3l18.22-8c-1.5-3.6-2.9-7.3-4-11.1zm111.8-75.38L206 112.3c6.2 2.5 11.5 6.9 14.8 12.7h22.9c-4.5-14.8-15.7-26.81-30.1-32.38m-54 82.88c9.1 9.1 21.8 14.8 35.7 14.8v-21.1c-8.1 0-15.5-3.4-20.8-8.7zm35.7 17.2c-29.2 0-53-23.8-53-53s23.8-53.01 53-53.01c24.1 0 44.5 16.21 50.9 38.31h20.6c-6.9-33.2-36.3-58.22-71.5-58.22-40.2 0-72.9 32.73-72.9 72.92 0 40.2 32.7 73 72.9 73 35.2 0 64.6-25.1 71.5-58.3h-20.6c-6.4 22.1-26.8 38.3-50.9 38.3m125.1 146.1h38.2v16h-38.2v31h-17.7v-80.1h61v16h-43.3zm-87.5-.6h38.3v15.9h-38.3v17.1h44.2v15.9h-62v-81.3h61.4v15.8h-43.6zm-63.8-32.5h17.7v80.1h-17.7v-32.2h-32.5v32.2H119v-80.1h17.6v31.7h32.5zM22 346c0-22.8 17.16-41.4 41.77-41.4 15.11 0 24.15 5 31.59 12.3l-11.23 13c-6.16-5.7-12.46-9.1-20.48-9.1-13.5 0-23.23 11.3-23.23 24.9 0 13.8 9.5 25.2 23.23 25.2 9.16 0 14.77-3.6 21.07-9.4l11.19 11.4c-8.22 8.8-17.35 14.3-32.82 14.3C39.51 387.2 22 369 22 346m367.3-31.1l-3.1-4.4v6.3h-1.1v-8.2h1.2l2.9 4.5 2.9-4.5h1.2v8.2h-1.1v-6.3zm-8.6 1.9h-1.2v-7.1h-2.6v-1.1h6.4v1.1h-2.6z"/></svg>