<svg xmlns="http://www.w3.org/2000/svg" version="1" viewBox="0 0 1032.9 286.18"><path d="M208.49 2l4 15.62c26.14 6.35 29.78 21.06 29.78 21.06 4.35 17.07-21.43 36.68-21.43 36.68-26.15 19.43-67 29.59-67 29.59-3.52.88-6.98 1.64-10.36 2.29 2.53-19.79 6.19-31.7 6.19-31.7 9.98-31.78 24.69-31.78 24.69-31.78 6.72 0 11.8 5.63 11.8 5.63l12.17-3.27C178.9 4.36 151.66 4.36 151.66 4.36c-27.23 0-46.48 41.04-46.48 41.04-9.712 20.8-14.522 45.85-16.912 65.56-4.76-.33-7.42-.74-7.42-.74-31.96-5.08-36.5-21.97-36.5-21.97-3.45-13.25 11.98-28.69 11.98-28.69 15.07-14.71 42.31-26.33 42.31-26.33l-3.09-11.98c-46.66 17.79-72.63 44.48-72.63 44.48-26.33 26.88-20.33 51.21-20.33 51.21 7.08 29.23 54.83 39.4 54.83 39.4 9.36 1.92 19.18 2.89 28.94 3.22 2.84 49.84 18.822 83.76 18.822 83.76 19.25 40.86 46.48 40.86 46.48 40.86 22.7 0 40.67-30.15 40.67-30.15 17.44-29.96 23.06-76.26 23.06-76.26l-21.78 5.44c-2.91 24.88-9.81 40.13-9.81 40.13-6.9 15.26-15.07 15.26-15.07 15.26-11.62 0-19.61-27.79-19.61-27.79-5.3-18.19-7.08-41.43-7.68-55 14.38-2.21 23.84-4.55 23.84-4.55 59.92-15.07 97.5-46.12 97.5-46.12 37.41-31.23 29.97-60.29 29.97-60.29-4.72-19.06-27.79-30.32-27.79-30.32C242.45 3.27 208.49 2 208.49 2zm212.45 6.36c-.55.54-1.27.72-1.27.72l2.36 5.45h-1.64l1.64 5.26c1.09 6 1.09 17.8 1.09 17.8l-.73 3.09-.91 3.26.55 6c-.18 2.36-2.9 5.08-2.9 5.08v2.9c-10.54 3.82-11.99 5.81-11.99 5.81l-5.63 1.64c-2.54 1.64-7.81 3.63-7.81 3.63-3.45 3.45-7.08 4-7.08 4l-.54.36h-.55v.18h-1.45c2-3.99 0-8.17 0-8.17l-1.27-2.18-1.45-5.44c-1.28-4.36-2.18-4.73-2.18-4.73l-1.64 2.55-1.27 3.27h-1.09l-2.36 5.99-2.18 5.45-2.9 7.98c.18.91-3.27 7.99-3.27 7.99l-1.46 1.45c0 5.09-2.17 6.54-2.17 6.54l-1.46 3.64c-1.09 2.72-1.27 2.35-1.27 2.35.18 1.46-.91 9.08-.91 9.08-.54 7.63 2 9.08 2 9.08 1.09 1.64.55 2.18.55 2.18l2.72 5.45.91-.19 1.09 1.83c1.82 4.17 5.63 3.08 5.63 3.08l6.9-2 1.45 6.18c.73 3.99 2.18 5.08 2.18 5.08l5.26 1.09 5.45.55 5.27-2.37 11.8-2.72c7.63-1.63 11.44-3.63 11.44-3.63 3.09 5.81 2.54 10.53 2.54 10.53l-.54 9.44 1.09 4 .72 3.81.36 17.62 1.82 5.44-.73 2.18v6.54l1.82 5.44.55 6.18h1.09l-.55-5.63 2 .36.36 2.72.55-.18-.36-3.45c-2-.72-2-4.35-2-4.35 0-3.27 1.45-5.45 1.45-5.45 1.09.36 2.72 6.36 2.72 6.36 1.46 4.53 1.64 7.44 1.64 7.44h3.81v1.63l-1.09-.91c-1.81 1.1-2.18 6.91-2.18 6.91-.18 5.81.91 5.99.91 5.99.54 0 3.45-2.18 3.45-2.18l-.73 1.09v.54h1.09l.54 3.09c1.28 0 1.28-7.44 1.28-7.44h.72l1.28 1.09.54-.55v-7.08l1.45 1.27 1.82-1.63 1.09-2.37c.36-1.63-.54-6.35-.54-6.35 1.45-7.26 1.63-11.08 1.63-11.08v-3.99l5.26-11.81c1.46-4.53 1.64-11.8 1.64-11.8l.54-12.16 2.18-3.09c2-1.82 2.18-2.91 2.18-2.91l4.18-11.8c3.27-8.53 5.44-9.44 5.44-9.44l10.53-2.36c6.91-2.18 6.36-5.81 6.36-5.81 3.45 0 4.91-15.07 4.91-15.07l2.9-14.89 2.54-4.9 1.09-11.44 2-11.26c.54-5.27-2.55-7.81-2.55-7.81-1.99-1.82-7.62-3.27-7.62-3.27l-.54.36c1.27.73 3.99 1.64 3.99 1.64 2.54 1.27 3.08 3.27 3.08 3.27.73 2.9-1.08 7.62-1.08 7.62-1.64 4.18-4.36 6.54-4.36 6.54l.18 2c-.72 2.54-4.9 7.44-4.9 7.44l-5.81 7.99-5.09 3.27c-6.9.18-9.08 2.36-9.08 2.36l-.9-.73c-1.09-1.63-1.09-9.98-1.09-9.98l-.73-6.54c1.09-1.64 1.09-2.72 1.09-2.72v-3.64c1.82-2.17 12.53-6.17 12.53-6.17 9.63-3.99 10.71-7.81 10.71-7.81l.55.55c-.18 1.63 1.45 2 1.45 2 0-2.73 1.81-2.73 1.81-2.73l3.82.73v-.55l-6.17-2.72c0 1.45-1.09 1.45-1.09 1.45l-2.37-.36-.17 1.09.9.54-1.27 2h-.54c0-.91-3.46-.91-3.46-.91l1.09-3.99c-3.08-1.45-3.27 1.27-3.27 1.27h-.36l-.54-1.09h-.55l-.18.91h-2.18l-1.45 1.63-1.63-.54 1.09-1.09-1.09-2.18c2.17 0 3.26-2.54 3.26-2.54l-13.43.91c0 1.81 3.81 1.27 3.81 1.27 4.18-.55 4.72.9 4.72.9l-4.17-.36-3.82.55-.54 1.63-1.09-.73-1.09-.9-2.73-1.09c-1.63 1.09-2.54.9-2.54.9l-1.81-1.09-1.82-1.81c-2.18-1.64-11.8-17.98-11.8-17.98-7.08-11.8-19.43-12.34-19.43-12.34zm235.69 6.99c-.3 0-.6 0-.9.1l-14.5 2.18s-10.2 1.09-12.9 4.17l-3.7-.36-3.8.91-.5.54-6.9.73-5.5 1.09h-1.9l-7.1 2.54-6.4 3.09-6.4 2.36s-5.6 4.72-8.5 4.17c0 0-12.3 3.09-17.2 6 0 0 0 .36 3.2 1.08 0 0 3.3.91 3.7 2.73l3.6 1.09s8.7 1.45 13.6-1.82c0 0 1.1.55 7.3-2.18 0 0 1.2-1.63 4.4-1.63l3.8-2.18 4.9-1.45 7-2.73 7.3-1.99 6.5-.73 2.7-1.09 7.5-.36 7.5.36 2.8.18 3.1 1.09 2.2 3.27 2.6 4.72s-1.5 7.08 0 8.54c0 0-1.1 2.17-1.7 16.16L651.03 81l-1.1 10.71.9 15.07s0 2.9-1.5 7.81c0 0 1.7 7.62 0 9.26 0 0 3.7 22.88 3.1 24.15l-2 4.9-1.6 4.72-.2 2.73.7.9-.5 3.27.4 3.09s-.4 2.36-1.5 2.36l-2.7-1.82-2.2-2.54v-.18s-4.7-3.99-6.9-2.9c0 0 0 6.71 4.3 13.43l1 .55s.5 3.08 5.6 11.08l.5 1.09 4.2 12.34s3.1 4.36 15.1 9.8l1.1-.17v-.91s1.1 0 3.6-2.91c0 0 3.3-4.18 3.6-8.9v-9.25l1.1-6.54v-6.72l-1.6-5.99s-.9-4.72 1.1-5.45c0 0 0-9.62-.9-10.17 0 0 1.6-7.44.5-15.98l.4-6.72v-6.9l-1.1-15.07-.4-15.43-.5-13.8-1.7-13.08s.6-3.81 1.5-5.26c0 0-.5-2.18.2-9.08 0 0-2.4-.18-1.1-8.72l1.6-10.53s-.5-2.72-5.2-8.71l-6.8-7.45s-3.1-1.67-5.4-1.72zm326.1 1.72l-2.2.55-3.4 5.81-.2.54-2-.54-2.3 1.63.1.18-1.2.91-4.2 3.09s-2.6 2.36-.6 1.81h.6l-1.1.91-5.3 1.82-.5 1.63 1.4.55 2.9-.73 2-2.54 2.1.36 1.2-.36 6-.55s.4 1.09-5.5 1.09l-3.2 1.45 2 1.09 6.1.73s2.1.36 4.8 2.54l3.6 3.82-2.7 3.08-2.4 1.09-2.3.18-9.5 2-7.3.55-5.8 1.63-12.1 1.45-5.1 1.64-3.1 1.81h-.5l-.6-1.09-1.5 1.46s-.5 1.09-.5 2.72c0 0 0 2.36 1.5 3.27l3.3.91s2.1 1.08 3.2 1.08l6.9-1.99 7.4-1.46 6.9-1.81 11.3-1.63 35.57-.91 9.1-1.27 2.7.54 2.6.18s3.2-1.63 4.3-1.09l.4-1.81v-3.63l2.2-1.46s4.3-2.9 2.7-5.08l-5.8-1.64-6.6.19h-9.4s-3.5 0-3.3-1.82l.4-2.54s-1.1-3.27-.6-4.36l-.3-5.63-3.6-2.72-2.17-.18-2.4-2-10.2-4.36zm-210.1 15.98l-.5 5.99s-3.1 4.9-3.8 7.45c0 0-2.6 19.43-4.2 21.42l-3.1 2.73-3.4 1.63-3.9 2.54-9.4 6.72-.2.36 3.9.55 2.1 2.36 4.4-1.27 4.7-.55.2 3.63.9 1.28-3.1 4.9s0 4.18-14.7 13.98c0 0-.5-1.63 0-7.26l1.1-7.45-.4-3.08-2.2-3.82s-2.5-3.27-2.7-4.72c0 0-3.1-.54-3.3-3.27l-1.6-3.26s-.5 0-1.5 3.26l-1.6 3.82-.5 1.99-.6.19s0 1.63-2.2 4.53l-2.1 3.82s-.6 2.36 0 13.07l-.9 10.71-1.7 10.53-2.1 7.09s-1.7 3.63 0 7.62c0 0 .8 1.64 4.3 3.64 0 0 3.5 1.63 5.3 1.99l2.1 2.37s1.1 2.72 2.1 3.08l5.4 3.81 5.3.91 4.3 1.64 3.1 12.53s2.7 10.71 6.2 11.8h.3s.3 1.09 2.2 2.54l2.7 1.63s5 3.28 8.8 4.36l9.6 1.46 8.4.18 9.6.91s8.1-.91 9-2.55l8.4-1.08s9.1-2.18 8.5-3.09l1.1-.19 16.4-4.17 4-1.64h-.8l.8-1.63h.5l-.2-1.09h.6l.5.54.2-.54-.2-.55.8-1.08-.8.18 1.3-2.36 2-2h.2v1.09l1.4-1.82h.4v.19l-.7.54.3.54s-.3.55.4.37l.2-1.09.8-.55.3.19.8-1.09.6-.19v-1.63l-1.1-.55-.6.73v-1.27l-.5-.36v.54l-.5-.18v-.91l-.7-.73 1.2-.9-.3-.55-1.5 1.45.6-1.81h.9l.3-.54-2.3-.19-.8.55-.3-.36.3-1.28-1.6-.36 1.1-.54-.6-.55v-.54l.8.36v-.36l-1.1-1.09-.2.36-.9-1.09-.2-.36-1.1.36-.3-.54v.72h.9v1.64h-.4l-1.1-2.18-.5-.18-.6.18 1.1-.73h.4l-2-.36s-1.1 0-1.3.91l-2 1.09-3.1 2.17-3.3.73-3.2 1.45-10.7 2-9.1 2.72-3.3.55-17.6 1.82-4.5-1.64s-.9 0-1.5-.73l-.5-1.99s-3.7-7.45-3.1-9.26l5.1-6.72 2.7-2.36s1.8-1.45 4.9-1.09l3.1-.55 3.8-.54 2.4-1.45 3-.55 3.1-.72 2.9-.73 12.4-1.64 1.6-1.27 1.5-2.17 2.5-3.64s2.8-2.17 2.9-4.35v-2.73l1-3.27-2.8-6.35-2.9-5.99 5.3-13.44.9-3.45s.7-2.72 1.6-2.72l.7-3.82 1-4.17s1.1-2.36.7-3.82l-.6-3.45.6-2.36-.7-2.72s-1.1-1.63-1.1-2.72l-2.7-4-2.2-6.18s-1.1-2.72-5.7-4.53l-.7.54-4.2-1.63s-2.7-1.82-5.2-1.09l-5.7-.91-9.9 4.72-10.9 5.99h-3.3l2.2-13.98s.5-7.44-7.3-11.07l-4.4-2.18zm-293.4 5.45l-1.46 1.09v.36l1.46.54 1.81-.54.91-.54 1.82.18s2.18.54 3.99 0h.55zm5.44 3.27v2.17l.55.37.18-1.09zm1.09 0v.9h2.55zm137.27 4.17l-4.7 1.27-5.3 1.09-10 2.18-5.1 2.91-4.3 1.09s-.7.54-1.8.72l-2 .37-2 .54-7.3 3.27-3.6 2.18-2.5.54-.8.55-.3.36-1.3 1.63-2.5 1.28-3.1 2.18s-5.7 0-4.6 4.17h1.1s0 .73 6.9 3.63l.2 3.27s.5 2.36 2.2 3.45h7.2l2.4.36h3.8s1.1 0 1.1.73l.5 3.63.4 2.73-.4 4.17-1.2 2.73-3.1.54-2.4 1.46-6.9 2.72-2.7 2.17-4.2 2.73-2.2 2.18.2.9v.74l-2.1 1.99.3 2.18.7.55 2.6 2.35 3.6.55 1.6 2.91 2.2 2.17 2.7.55 2.2-.37-.3 1.64s-.8 1.64 0 1.64l-1.1 3.63-1.3 2.54-.6 1.27-3.2 2.54-1.7 2.18-1.6 2.91v1.27l-1.2 2.72-1.1 1.63v2.18l1.4 4 1.7 2.54s1 1.45 1.4 1.09c0 0 0 .36 1.8 1.09 0 0 3.8.54 6 0l7.4-1.64 4.2-2.17 7.5-2.55 1.6-1.27s1.1 0 5.5-3.27c0 0 .9.55 3-1.63 0 0 0 .18 2.9-1.45l2.6-.73s1.4-.54 2.7-1.45l3.6-1.09 4.9-3.27 3.7-3.09s1.8-1.09 2.3-3.26l.9-1.64.6-.91h-2.2s-1.5 0-.5-2.17l1.2-2.37-4.3-.36s-2.8 0-2.8-1.09l-7.6.54.8-2.9.3-2.36 1.1-2.9s-.9 0-.9-1.64l1.1-.91 2-.18 4.3-6.17 4.8-4.91.1-1.27 1.1-2.17v-2.37l-.5-2.72-2.9-2.91-5.3-3.63-2.2-1.09-.9-.9-1.8-1.28.5-.9s0-2.36 1.3-5.09l5.5-5.81s1.4 0 4-5.26l1.8-2.36.5-2.37-.2-2.35.6-1.64-.4-2.54-2.7-4.72-1.3-1.82s0-2.18-3.6-2.18zm284.7 4l-1.1 3.45v1.63s-2.2 6.54-2.2 9.62l-3.6 5.64-.5 1.99-1.1 2.18-3.1 6.54-4.9 10.71-2.7 3.27-4.2 6.35-1.2 4.18-1.5 4.36.4 4.18.1 6.35s1 .55 1.5.72l1.8 2.73.4 5.81-.4 5.99.9-1.27.7-2.18v-.36h.4l.2.36-.6 1.09.4.55h.5l.9-1.64 1.7-5.08 2.9-3.27 1.6-1.09 11.3-10.89s3.3-1.09 5.2 3.44l.6 4.18 1.1 8.18v10.52l-1.3 6-1.3 10.71-1.6 4.9-2.2 12.72-.2 13.61s0 5.81 5.5 6.36l2.5-2.91s4 .19 2.4-1.99v-2.19l2.2-1.63h2l2.7-4.36 1.1-8.35 1.6-18.16.5-6.17 1.1-6.18 2.1-24.15s-1-5.44-.6-7.62l1.6-3.82s.7-1.63.7-5.98l-.5-2-1.6-1.46-1.7-1.81s-1.2-.55-2.8-1.45l-5.3-2.37-3.3.73.7-3.27 1.1-2.72.4-5.45.7-2.72s.4-3.63-1.8-8.35l-3.8-7.63-.4-2.18-1.8-4.72zm-355.9.54l-.7 2.91-1.6 4.9s-.9 2.72-.6 5.81l.6 2.18v7.63l.5 4.72-.9 3.45-.2 5.81-1 2.54-1.7 6.9.6 1.27v5.81l-1 3.27v2.54l-.5 5.08-.9 3.64-.7 11.44h-.4l-.6 3.45-1.2 2.9s-.6 4.18.5 6.72l.2 3.45.4 4.72s.1 2.54-1 3.81l-.5 4.36s-.5 9.99 5.3 14.89c0 0 2 1.82 3.6 1.27l1.3-1.63s2.1-2.91 2.1-8.17l-.6-8.72-.6-2.54 1.1-8.17s0-3.63.5-5.08c0 0-2.7-1.82-.9-10.54l.4-5.08.1-3.27s.6-2.72 1-2.72l.5-2.73.6-2 2.7-12.89 2.5-7.44V93.7l-1.1-2v-2.91l.8-1.99.9-4.36h-.4l.4-3.27-.4-3.27s-1.3 0-1.3-8.89l-1.6-5.27-1.4-1.64-1.7-3.26-1.6-5.09zm431.1 15.25l-5.8 1.64-5.5 2.18s-1.1.18-1.6 1.63c0 0-.7 1.82.4 3.82 0 0 1.2 1.63 3.4 2.17l6.9 3.64 1.7 1.63 9.6 4.36 4.7 1.09h6.47l2.2.9s1.1.55 2 0c0 0 1.3-.9 3.5-5.26l1.4-1.64v-2.17l.2-2.55-2.4-2.17-1.4-3.64s-2.4-.72-3.5-1.27l-2.2-2.18-2.3-1.09h-5.37s-3.9 0-5.5-1.09zm-176.5.55l8.2 1.82-.2 1.09 1.6 2.17V73s0 1.45-2.2 3.63h-3s-8.6 5.99-13.7 7.08l-4.1.55h-2s-2.2.54-4.6 0c0 0-3.4-.55-4-2.37l.6-3.81s.9-2.72 1.6-3.08c0 0 0-1.46 2.6-2.55l2.5-1.09s2.2-1.08 6.2-2.17l3.1-1.64 4.1-1.09zM419.13 75l2.17 8.71 1.27 5.81c1.09 3.63.55 5.99.55 5.99l-3.45 5.09-4.18 5.44c-4.9 3.09-8.53 4.18-8.53 4.18l-9.26 1.27c-4.54.55-9.63 5.27-9.63 5.27-5.08 4.35-6.9 4.18-6.9 4.18-.9.54-1.99.72-1.99.72-1.1-2.72 1.09-4.36 1.09-4.36-.73-1.09.54-4.17.54-4.17l2.73-3.27 1.99-3.82 1.09-4.72c2-1.27 1.64-2.72 1.64-2.72l9.44-10.9 11.44-5.08c8.17-3.45 9.99-7.62 9.99-7.62zm567.6 18.33l-12.5.91-11.1 1.82-.2 1.27s-.5 1.09 0 2.36l1.8 3.63 2.8 3.45 5.1 4.18s1.2 1.45 3.8 2l5.4.18 4.7.91s2.2.18 6 2.35l3.9-.54h2.7l2.67-1.27s2.9-.54 3.1-.91c0 0 1.4-.54 2.7-2.9l1.6-4.18v-1.64l.4-1.45s.2-1.09 1.6-1.63l1.8-1.09v-3.81s0-.55-2.7-1.09l-3.4-.37-3.9.55-10.47-2.36zm-352.4 3.09l1.2 3.81s.4 3.09-3.2 7.09l-1.1 1.45-.2.54-1.1 2.18-.5 2.55-1.7 1.09-.5 1.08.5.18s1.8.55 4.9-1.09l2.9-.72 3.5-.36 2.3-.18 1.5-.37s3.3 1.09 5.8-2.72l.6-4.91-.6-2.72-.9-2-1.1-.54-1.6-.73-3.8-.36-.6-.55-3.6-1.63zm173.7 1.09l.6.54s.9.92.3 2l-1.8 8.72-1.2 2.18s-1.5 2-8.8 5.26c0 0-7.4 4.9-11.6 1.82l-1.5-3.81 1-2.91s-.4-2.54.4-3.99l2.3-2.73 6-3.27 7.8-2.72zm-59 18.88l3.6 1.46s1.7 1.63.6 6.53l-2.2 6.72-.3 1.28-1.7 2.54-3.8.72s-1.1 0-4.7 2c0 0-1.6 1.09-3.7 1.81l-1.2 1.46-.4-.37 1.5-4.53-.6-2.73.7-2.54.4-2.54 2.2-6 .9-2.72h.2s2 0 4.7-1.63l3.8-1.09zm249.9 8.9l-8.5 5.81-17.1 8.35-2.2.91-2.2.55s-2.2 0-3.1-.91l-1.8-2.18-1.6-1.81-1.1-2.73-3.3-1.45-3.4-1.45s-1.6-.73-2.4-2.36l-.9-1.09-1.3.54-1.1 6.9-.3 5.45 1.6 7.44s-.7 4.36-.2 8.17l.2 8.72-.2 6.36 3 12.16.5 1.27v4.54s.5 2.36 2.5 3.27l3.3.73 4.3 2 1.5 1.81s.7 1.09 1.8.91c0 0 .9-.37.9-2.72l2.2-3.82.4-4.18 1.1-4.35.7-3.09 1.6-14.89-.7-2.18-1.5-2.18.4-2.9v-2.73l.6-.36 8.1.36 3.1-3.45s4.5-4.35 7.4-5.44l1.3 1.99s1.1 2.91.4 7.45l-6.2 7.08-3.8 3.81s-2.4 2-2.9 4.36l-1.3.91-.1 1.81-.4 5.09s0 4.36.5 5.44l2.4 1.64 2.7 1.09 2.2 1.82 8.7.72 9.07-1.81 5.2 1.09 7-.18 2.8-1.64 2.2-.91 2-2.18v-2.9l.6-6.72-2.6-1.27-.5-.36-2.9-2.37-.4-2.18 4.2-11.07.2-5.99s-.7-1.45.3-4.36V140l-3.1-3.45-3.2-4.9-3.8-3.09-1.7-1.45-4.3-1.09-4.5.36zm-361 27.06s-1.5 1.09-7.3 2.54l-5.4 2.18-1.7.36-4.9 1.82-5.6.91-7.6 3.26-3.8.73-3.8 1.81-2.2.19-5.3 1.09s-4.3 2.18-5.4 2.54l-2.6-.55-4.3.73-4.2 1.09h-6.3l-3 .55-3.2-.19 3.4 7.63s3.4 6.35 4.5 6.54l3.3.9 5.1-1.45s3.6-.73 4.2-1.82h1.1s4.7-1.08 5.8-2.72l5.8-1.45 5.5-2.54 2.5-.73 4-2 4.3-2.72 11.3-7.99s4.5-2.9 14.9-7.81l2.5-2.36v-.54zm-209 53.02s-.54 1.63.73 4.9l.91 3.09h.36l.72-1.63v-3.27h-.54l-.18.18.54-1.82zm16.71.91l-.19 7.44s1.28 0 1.28-3.45c0 0 .36-3.27-1.09-3.99zm-12.53 2.18s-1.46 1.27-.37 7.08h.55l.36-.55s.55-5.44-.54-6.53zm-43.4 18.88c-12.89 0-21.43 6.9-21.43 6.9-8.53 6.54-8.53 17.62-8.53 17.62v2.17c0 11.81 8.17 17.8 8.17 17.8 8.53 5.99 21.97 5.99 21.97 5.99l9.44-.55 5.45-1.63v-7.26l-5.45 1.27-8.53.91c-6.9 0-11.62-4.18-11.62-4.18-4-4.36-4-13.26-4-13.26v-.54c0-8.53 4.36-12.89 4.36-12.89 4.54-4.54 12.53-4.54 12.53-4.54l7.44.54 5.27 1.27v-7.62l-5.81-1.45zm483.32 0c-13.1 0-21.6 6.9-21.6 6.9-8.5 6.54-8.5 17.62-8.5 17.62v2.17c0 11.81 8.5 17.8 8.5 17.8 8 5.99 21.6 5.99 21.6 5.99l9.5-.55 5.4-1.63v-7.26l-5.4 1.27-8.6.91c-6.5 0-11.6-4.18-11.6-4.18-4-4.36-4-13.26-4-13.26v-.54c0-8.17 4.6-12.89 4.6-12.89 4.7-4.54 12.7-4.54 12.7-4.54l7.5.54 4.8 1.27v-7.62l-5.8-1.45zm48.9 0s-13.4 0-20.2 6.9c0 0-7.2 6.9-7.2 17.25v2.72s0 11.26 7.8 17.62c0 0 7 5.99 19.4 5.99 0 0 12.4 0 19.4-5.99 0 0 7.8-6.36 7.8-17.62v-2.72s0-10.35-7.2-17.25c0 0-6.5-6.9-19.8-6.9zm-507.35.91v48.84h14.9v-20.88h17.06v20.88h14.71v-48.84h-14.71v20.33h-17.06v-20.33zm62.1 0v48.84h14.9v-48.84zm29.42 0v48.84h10.71V246.4l32.82 30.69h6.4v-48.84h-10.3v29.05l-31.64-29.05zm77.93 0l-22.2 48.84h12l4.9-11.62h22l4.7 11.62h15.4l-23-48.84zm59.9 0v7.08h14.7v41.76h14.9v-41.76h14.3v-7.08zm50.8 0v48.84h41.6v-7.08h-26.8v-13.8h19.6v-7.44h-19.6v-13.44h25.2v-7.08zm51.1 0v48.84h39.2v-7.08h-24.5v-41.76zm49 0v48.84h42.1v-7.08h-27.2v-13.8h19.4v-7.44h-19.4v-13.44h25.2v-7.08zm162.1 0v48.84h10v-27.96l19.1 27.96h8l19.87-27.96v27.96h13.5v-48.84h-9.7l-25.17 35.59-24.7-35.59zm-35.2 6.36s8 0 9.8 3.99c0 0 2.2 4.9 2.2 13.43v1.46s0 8.71-2.8 13.44c0 0-2.7 4.17-9.2 4.17 0 0-7.6 0-9.8-3.99 0 0-2.3-3.27-2.3-13.62v-1.46s0-9.8 2.5-13.61c0 0 2-3.81 9.6-3.81zm-332.3 5.62l8.4 18.16h-16z"/></svg>