<svg xmlns="http://www.w3.org/2000/svg" viewBox="0 0 168.21 96.48"><path d="M116.04 86.65h-1.11l.73-.92c-1-.9-1.75-1.38-1.75-1.38l-.9.9 1.26 1.4h-1.71v-2.47h3.42V82.7h-3.42v-1.83h3.42V79.4h-8.85v1.47h3.11v1.83h-3.11v1.48h3.11v2.47h-3.16v1.47h8.96zm1.5-10.19h-10.46v1.47h9.74v10.7c0 .53-.43.96-.96.96h-9.56V76.46h-2.32v14.6h13.06a2.1 2.1 0 0 0 2.1-2.1V78.05c0-.88-.72-1.59-1.6-1.59M99.18 84.8c0 .53-.43.96-.95.96h-2.98v-6.02h3.93zm.92-6.54h-4.85V76.2h-2.51v2.06h-3.16v1.48h3.16v6.02h-3.93v-7.5h-2.52v8.97h6.45v4.25h.41c1.41 0 2.05-.66 2.1-1.74v-2.51h4.27c1.17 0 2.13-.92 2.18-2.09v-5.37c-.1-.84-.74-1.51-1.6-1.51m34.18 6.42h2.55V83.2h-2.85v-2.26h2.85v-1.48h-1.85l1.69-2.11-1.6-1.15-2.12 3.26h-1.51l1.24-.89c-1.07-1.47-1.96-2.37-1.96-2.37l-1.19.7 1.52 2.56h-1.86v1.48h2.46v2.26h-2.46v1.48h2.19l-2.59 6.62h1.12c.58 0 1.18-.4 1.42-.94l1.58-3.95 2.18 4.89h2.16zm-8.12-1.12h-1.79v-1.81h1.79zm0 3.28l-1.78.5v-2.3h1.79zm3.11-.88l-1 .28v-8.26c0-.91-.55-1.47-1.24-1.47h-5.26v1.47h4.4v2.29h-1.79v-1.52h-2v9.15l-.88.25v1.66l4.66-1.31v2.98h.83c.69 0 1.13-.41 1.28-1.19v-2.38l1-.28v-1.67m13.1-6.81c-1.16-1.53-2.35-2.36-2.35-2.36l-1.15.83 1.94 2.67zm7.24 2.33h2.33v1h-2.33zm2.33 0zm0 3.41h-2.33v-1h2.33zm-4.34-2.41h-2.34v-1h2.34zm0 2.41h-2.34v-1h2.34zm.68-5.45c-.95-.65-2.02-1.14-2.02-1.14l-.8 1.01.8.7h-3.01v8.85h.62c.64 0 1.39-.43 1.39-1.33v-1.22h2.34v2.55h.62c.78 0 1.33-.4 1.39-1.34v-1.21h2.33v.59c0 .3-.32.48-.59.48h-.93l.42 1.48h1.45c.98 0 1.77-.79 1.77-1.77v-5.87c0-.67-.54-1.21-1.21-1.21h-2.34l3.08-1.86v-1.69h-10.45v1.47h7.64zM143 89.55a.96.96 0 0 1-.96-.96v-7.64h-3.32v1.47h1.1v6.75c0 1.15 1.02 1.85 1.79 1.85h12.68v-1.47H143m-91.91-.78c-.55.77-1.24 1.4-2.07 1.86-1 .58-2.11.85-3.32.85-1.76 0-3.28-.62-4.54-1.86-1.26-1.26-1.88-2.77-1.88-4.56 0-1.9.71-3.49 2.13-4.77 1.24-1.11 2.67-1.67 4.29-1.67 1.16 0 2.26.29 3.29.87.85.47 1.55 1.09 2.09 1.85l-2.31 1.65c-.14-.33-.33-.63-.56-.9-.64-.77-1.46-1.15-2.45-1.15-.97 0-1.77.4-2.43 1.15-.64.77-.97 1.76-.97 2.97 0 1.23.33 2.24.96 3 .64.77 1.45 1.15 2.43 1.15.97 0 1.79-.38 2.44-1.16.24-.28.44-.59.58-.94l2.32 1.66m-39.31 2.58c2.95 0 3.91-1.61 3.91-1.61l.15 1.44h2.66V78.87h-3.09v7.46c0 1.59-.91 2.9-2.66 2.9-1.84 0-2.56-1.62-2.56-2.9v-7.46h-3.1v7.24c0 3.75 2.46 5.21 4.69 5.24m15.91-12.64c-2.94 0-3.91 1.59-3.91 1.59l-.15-1.43h-2.66v12.31h3.1v-7.46c0-1.59.91-2.9 2.66-2.9 1.83 0 2.35 1.62 2.35 2.9v7.46h2.87v-7.24c0-3.75-2.03-5.2-4.26-5.23m30.19 2.03c-.99 0-1.81.4-2.46 1.2-.66.8-.99 1.84-.99 3.09 0 1.28.32 2.33.97 3.12.66.79 1.47 1.19 2.47 1.19 1 0 1.82-.4 2.48-1.2.66-.81.99-1.85.99-3.11 0-1.27-.33-2.3-.97-3.1-.65-.79-1.47-1.19-2.49-1.19zm-.22-2.15c1.15 0 2.24.3 3.25.87 1.02.58 1.81 1.36 2.38 2.34.57 1 .86 2.07.86 3.2 0 1.15-.29 2.24-.87 3.25a6.05 6.05 0 0 1-2.34 2.34c-.99.58-2.08.85-3.27.85-1.76 0-3.26-.62-4.5-1.87-1.24-1.24-1.85-2.75-1.85-4.54 0-1.91.7-3.5 2.09-4.77 1.24-1.11 2.65-1.67 4.25-1.67M34.28 91.18h2.9V78.87h-2.9zm45.31-12.41c-1.83 0-3.11.72-4.19 1.91-.73-1.32-1.93-1.87-3.2-1.91-2.6-.1-3.74 1.59-3.74 1.59l-.1-1.49h-2.8v12.31h3.12v-7.43c0-1.58.83-2.88 2.44-2.88 1.68 0 2.17 1.62 2.17 2.89v7.42h2.82v-7.27c0-2.07.98-3.06 2.41-3.06 1.68 0 2.16 1.62 2.16 2.89v7.42h2.83v-7.21c0-3.73-1.88-5.15-3.92-5.2m-43.88-1.17c-1.01 0-1.68-.73-1.68-1.61 0-.95.7-1.67 1.71-1.67 1.03 0 1.67.72 1.7 1.67 0 .88-.67 1.61-1.7 1.61m-.03-18.19c-1.01 0-1.68-.74-1.68-1.63 0-.95.7-1.65 1.71-1.65 1.03 0 1.67.7 1.7 1.65 0 .89-.67 1.63-1.7 1.63M34.28 73h2.9V60.65h-2.9zm12.14-12.47c-2.96 0-3.91 1.6-3.91 1.6l-.15-1.44h-2.67V73h3.09v-7.47c0-1.58.93-2.9 2.67-2.9 1.84 0 2.37 1.63 2.37 2.9V73h2.86v-7.25c0-3.75-2.04-5.21-4.26-5.22M19.9 69.97c-.69.98-1.55 1.76-2.62 2.36-1.25.71-2.65 1.08-4.17 1.08-2.24 0-4.15-.8-5.73-2.37C5.79 69.46 5 67.56 5 65.3c0-2.41.89-4.43 2.69-6.02 1.57-1.42 3.37-2.11 5.41-2.11 1.47 0 2.86.36 4.16 1.09 1.07.61 1.95 1.38 2.63 2.34l-2.66 1.91c-.19-.46-.46-.85-.77-1.22-.89-1.02-2.01-1.53-3.39-1.53-1.35 0-2.46.51-3.36 1.55-.89 1.04-1.33 2.36-1.33 3.98 0 1.67.44 3 1.32 4.04.88 1.03 1.99 1.54 3.35 1.54s2.48-.52 3.38-1.57c.33-.37.6-.79.8-1.25 0 0 1.98 1.42 2.67 1.92m1.11-14.79h3.11v6.95s1.16-1.6 3.57-1.6c2.23 0 4.26 1.48 4.26 5.22v7.27h-2.83v-7.47c0-1.29-.51-2.91-2.35-2.91-1.74 0-2.64 1.31-2.65 2.91v7.47h-3.11V55.18m40.39 14.5c-.68.72-1.58 1.06-2.67 1.06-1.03 0-1.88-.37-2.56-1.1-.66-.73-.99-1.68-.99-2.85 0-1.08.34-2 1.01-2.74.69-.74 1.54-1.09 2.56-1.09 1.09 0 1.97.35 2.65 1.08.67.74 1.01 1.68 1.01 2.81 0 1.14-.34 2.09-1.01 2.83zm.83-8.96v1.42c-1.18-1.16-2.52-1.75-4.03-1.75-1.73 0-3.17.62-4.32 1.83-1.16 1.22-1.74 2.76-1.74 4.6 0 1.84.58 3.41 1.74 4.65 1.16 1.23 2.62 1.83 4.41 1.83 1.42 0 2.72-.54 3.94-1.65v1.29h3V60.72h-3m71.56.36c-1.5 1.5-3.92 1.5-5.42 0-1.44-1.44-2.7-2.71-2.7-2.71l4.09-4.09-5.15-5.15-4.09 4.1-4.1-4.1-5.15 5.15 4.1 4.09-2.71 2.71c-1.5 1.5-3.93 1.5-5.42 0a3.833 3.833 0 0 1 0-5.41c1.57-1.57 13.22-13.33 13.22-13.33l13.33 13.33a3.833 3.833 0 0 1 0 5.41zm-26.55-42.26a3.833 3.833 0 0 1 0-5.41c1.49-1.5 3.92-1.5 5.42 0l2.71 2.71-4.1 4.09 5.15 5.15 4.1-4.1 4.09 4.1 5.15-5.15-4.09-4.09s1.26-1.27 2.7-2.71c1.5-1.5 3.92-1.5 5.42 0a3.833 3.833 0 0 1 0 5.41l-13.33 13.33s-11.65-11.76-13.22-13.33zm18.42 18.43l13.28-13.28c4.34-4.34 4.34-11.37 0-15.71-4.34-4.34-11.38-4.34-15.72 0-1.7 1.7-2.7 2.71-2.7 2.71l-2.71-2.71c-4.35-4.34-11.38-4.34-15.72 0s-4.34 11.37 0 15.71l13.28 13.28s-12.07 12.07-13.28 13.27c-4.34 4.34-4.34 11.37 0 15.71 4.34 4.34 11.37 4.34 15.72 0l2.71-2.71s1 1.01 2.7 2.71c4.34 4.34 11.38 4.34 15.72 0s4.34-11.37 0-15.71c-1.21-1.2-13.28-13.27-13.28-13.27zm29.15 2.7c-1.5 1.5-3.92 1.5-5.42 0-1.21-1.21-2.71-2.7-2.71-2.7l2.71-2.71c1.5-1.5 3.92-1.5 5.42 0 .75.75 1.12 1.73 1.12 2.71s-.37 1.96-1.12 2.7zm5.15-10.56c-4.34-4.34-11.38-4.34-15.72 0l-2.71 2.71-4.09-4.1-5.15 5.15 4.1 4.1-4.1 4.09 5.15 5.15 4.09-4.1 2.71 2.71c4.34 4.34 11.38 4.34 15.72 0a11.06 11.06 0 0 0 3.25-7.85c0-2.85-1.08-5.69-3.25-7.86zM91.53 39.95c-1.5 1.5-3.93 1.5-5.42 0a3.776 3.776 0 0 1-1.12-2.7c0-.98.37-1.96 1.12-2.71 1.49-1.5 3.92-1.5 5.42 0l2.71 2.71s-1.5 1.49-2.71 2.7zm11.95 6.54l5.15-5.15-4.1-4.09 4.1-4.1-5.15-5.15-4.09 4.1-2.71-2.71c-4.34-4.34-11.38-4.34-15.72 0a11.067 11.067 0 0 0-3.25 7.86c0 2.84 1.08 5.68 3.25 7.85 4.34 4.34 11.38 4.34 15.72 0l2.71-2.71 4.09 4.1"/></svg>
