<svg xmlns="http://www.w3.org/2000/svg" viewBox="0 0 832.6 263.8"><path d="M213.1 148.8l-16.8-16.3s-3.9-2.9-8.3 1.3c0 0-16.2 15.8-30 28.5-13.1 11.9-26.2 24.2-31.1 27.7 0 0-21.2 21.7-48.06.5 0 0-36.59-28.7-72.79-78l-1.184 5.8s-1.35 4.8 1.858 9.3c0 0 28.266 41.7 63.056 71.6 0 0 17.34 18.5 39.52 22.5 0 0 18.3 5 35.7-9 8.5-6.5 27-23.8 42.5-38.5 14.3-13.6 25.6-25.4 25.6-25.4M245 183l-14.8-16.3s-1.8-2.4-5.3.6-49.1 47.4-66.5 59.4c-10 8-20.7 12-32.6 13-8.9 1-18.5-1-28.74-5-11.14-5-28.15-19-44.08-35.2-11.26-11.7-22.46-24.6-31.87-37.1-6.36-8.5-12.494-17-17.11-24.4 0 0 0 10.3 4.504 19 0 0 18.636 35.6 55.006 68.7 3.55 4 34.57 35 64.69 34 0 0 28.1 2 53.7-19 4.2-4 49.1-42.5 63.1-57.7M50.95 115l16.83 16.3s3.87 2.9 8.3-1.3c0 0 16.15-15.8 29.92-28.5 13.1-11.87 26.2-24.17 31.1-27.67 0 0 21.2-21.9 48.1-.5 0 0 36.7 28.67 72.8 77.97l1.2-5.8s1.3-4.8-1.9-9.3c0 0-28.2-41.67-63-71.57 0 0-17.4-18.4-39.6-23 0 0-18.3-4.3-35.6 9.3-8.5 6.7-27.07 24-42.51 38.7C62.25 103.2 50.95 115 50.95 115M18.97 80.83l14.79 16.3s1.86 2.4 5.33-.6c3.47-3 49.13-47.3 66.51-59.8 10-7.1 20.7-11.7 32.5-12.5 9-.7 18.6.5 28.8 4.9 11.2 5 28.2 18.7 44.1 35.3 11.2 11.6 22.5 24.5 31.9 36.97 6.3 8.5 12.5 17 17.1 24.4 0 0 0-10.3-4.5-19 0 0-18.7-35.57-55-69.17-3.6-3.2-34.6-34.302-64.7-33.602 0 0-28.1-1.6-53.72 19.402-4.16 3.5-49.08 42.2-63.11 57.4m-5.41 10.3S39.51 125.4 68.1 148.1c0 0 10.83 9.3 22.43-1.2L150 92.93s17.9-17.9 38.1-.2c0 0 42.3 37.67 65.5 69.27 0 0 1.4 1.1 0 3.1-1.1 2.1-3.4 7.6-3.4 7.6s-25.4-32.9-54.8-57.2c0 0-11.4-8.7-21.3.5-9.8 9.2-56.4 51.8-63.8 57.2-7.4 5.4-19.66 11.1-37-4.4-13.56-12.1-49.03-45.6-62.99-66.7 0 0-1.257-1.2-.25-3.47 1.44-2.7 3.5-7.5 3.5-7.5M354.5 222.7c-13.8 0-25-11-25-25.2 0-14 11.2-25.3 25-25.3 9.3 0 17.4 5.2 21.7 12.8h10c-4.9-12.7-17.2-21.8-31.6-21.8-18.8 0-34 15.3-34 34.2 0 19.3 15.2 34.3 34 34.3 14.5 0 27-9 31.8-22h-9.9c-4.2 8-12.5 13-22 13m468-33.4c-5.5-7.5-14.7-6.8-14.7-6.8-5.3 0-10.3 2.3-13.5 5-5 4.4-6.6 11-6.6 11-4.2 16.2 3.3 26.2 3.3 26.2 3.7 5 11.1 7 16.9 7 10.1 1 17.5-3 17.5-3v-8c-29.5 11-29.8-11-29.8-11h31.8c.3-9.9-1.9-16.3-4.9-20.4zm-26.1 12.4s2-11 11.4-11c9.3 0 9.7 11 9.7 11h-21.1m-64.9-17.3c-12.1-5.8-20.5 2.6-20.5 2.6v-27.2h-9.6v71.9h7.3l1.3-5c4.2 5 11.7 6 11.7 6 6.5 0 11.5-3 15-7 4.1-4 6.2-11 6.5-14 .9-7.1.7-21.3-11.7-27.3zm-9.1 39.3c-8.6 0-11.5-5-11.5-5v-23.2s4.2-4.7 11.3-4.7c7 0 10.3 5.5 11.2 13.7.9 8.2-1.2 19.2-11 19.2m-52.2-41.1c-13.6 0-24.7 11.1-24.7 24.8 0 13.3 11.1 24.3 24.7 24.3s24.7-11 24.7-24.3c0-13.7-11.1-24.8-24.7-24.8zm0 41.1c-9 0-16.3-7-16.3-16.3 0-9.1 7.3-16.4 16.3-16.4s16.3 7.3 16.3 16.4c0 9.3-7.3 16.3-16.3 16.3m-63.9-10L586 165.1h-12.8v66.6h9.6v-50.9l21.1 50.9h4.7l21.1-50.5v50.5h9.7v-66.6h-12.7l-20.4 48.6m-71.2-29.8c-11.3-4.1-23.4 1.5-23.4 1.5v8.7s25-11.2 25 8.5l-.1.5s-13.7-4.1-21.2.5c0 0-11.8 6.1-6.5 20.1 0 0 4.1 9 14.8 9 3.7 0 8.1-2 13.3-5l.8 4h8.1V201s1-12.7-10.8-17.1zm1.2 35.8s-4.3 4-12.6 4c0 0-7.7 0-6.5-8 1.1-8 11-7 19.1-5v9M489.6 183s-11.5-3-18.9 6.1l-1.5-5.6H462v47.2h9.1V199c1.8-2.9 6.7-9.5 15.3-8.1 0 0 5 .8 5 9.1v30.7h9.5v-30.4s1.3-14.2-11.3-17.3m-68 0s-11.1-2.9-18.4 5.6v-29h-9.5v71.1h9.5v-32c1.6-3.1 6.2-9.6 15.2-7.8 0 0 5 .8 5 9.1v30.7h9.5v-30.4s1.2-14.2-11.3-17.3m328.8-7.6h9.5V165h-9.5v10.4zm19.8 56.3h9v-72.1h-9v72.1zm-19.8 0h9.5v-47.8h-9.5v47.8zm-307.6-56.3h9.4V165h-9.4v10.4zm0 56.3h9.4v-47.8h-9.4v47.8zm354-187.37l.5-24.6h-12.5s0 11 .1 24.6h-15.4v11.2H785c.2 8.6-.1 17.4-.6 23.5-1.1 14-3.3 19.7-3.3 19.7-6.1 23.17-24.2 33.37-24.2 33.37l9 8.5c32.2-20.7 30.3-66.67 30.3-66.67l.4-18.4h20l-2.4 60.77c0 7.6-7.4 7.2-7.4 7.2h-13.9l2.3 12h13.2c17 0 17.6-17.3 17.6-17.3l2.6-73.87h-31.8M759 121.3l11.4-4.4c-2.4-5.9-13.8-31.07-13.8-31.07l-10.5 4.5c2.9 6.2 5.8 13.07 8.1 18.77-5.2 1.2-18.9 4.4-25.6 6.6 0 0 3.3-5.4 9.3-22.17 5-13.7 5.9-17.8 7.9-20.4H773v-11.2h-59.2v11.2h19.1c-.9 3.5-4.1 16.1-9.2 28.27-2.9 6.9-6 13.5-10 18.5l2.8 8.8s29.9-9.1 41.4-10.2c.7 1.8 1.1 2.8 1.1 2.8m-40.1-79.17h50v-11.3h-50v11.3zm-50.5 37.8c1-1.8 1.9-3.6 2.7-5.5l-11-1.8c1.7-.9 3.3-1.9 4.8-2.9 21.9-14.4 29.1-30.5 29.1-30.5v-9.6h-37.7c1.5-2.4 2.9-4.9 4-7.3l-10.9-4.2s-8.9 19.4-26.4 32.6l9.5 7.3s8.3-7.7 16.4-17.9h32.2c-4.4 7-10.8 12.8-17.6 17.6l-14.2-11.8-7.5 7.8 12 10c-14.6 8.1-28.4 11.7-28.4 11.7l7.2 9.2c10.4-4 18.2-7.1 25-10.6-1.8 3.1-6.4 10.2-14.8 17.9-5.1 4.7-12 9.77-20 14.07l8.6 8.6s17.1-8.8 29.7-24.07h24.2c-2.6 11.57-10 19.77-18.9 25.37l-13-12.7-8.2 6.7s7.3 6.9 11.2 11.2c-17.5 7.3-36.1 7.8-36.1 7.8l4.9 9.7c23.5-1.8 39.4-8.3 50.5-16.7 18.4-14 22.8-31.67 22.8-31.67v-10.3h-30.1m-45.9 18l7.7-9-19.5-16.6v-5.8h16.4v-10.5h-16.4v-16.9c7.6-1.8 16.8-3.6 16.8-3.6l-2.4-11.2c-9.9 3.2-42.9 6.7-42.9 6.7l1.7 11.1 15.3-2.5v16.4h-18.5v10.5H598c-1.4 4.4-7.3 22.2-19.4 39.07l8.5 9.2s7-11.3 12.1-22.77V139h11.5V86.63l11.8 11.3m-96 5.37l9.1-7.17c-4.8-5.6-13.5-15.4-13.5-15.4l-8.5 6.4c7.4 8.1 12.9 16.17 12.9 16.17m-15.7 1.4V80.23h25.4v-10.5h-25.4v-15.4h27.6v-10.5H472v10.5h27.7v15.4h-25.6v10.5h25.6v24.47h-29.6v10.5h70.1v-10.5h-29.4m47.6-81.07H453.1V135.4h105.3V23.63zm-105.3 0zm93.7 101.17h-82.4V34.53h82.4v90.27zm-122-82.67h-46v-22.3h-12.1v22.3h-45.6V105h45.6v34.3h12.1V105h46V42.13zm-58.1 51.8h-33.8v-40.7h33.8v40.7zm-33.8 0zm80.1 0h-34.2v-40.7H413v40.7z"/></svg>