<svg xmlns="http://www.w3.org/2000/svg" viewBox="0 0 1133.9 295.87" version="1"><path d="M147.97 35.398c-17.26 0-33.6 3.913-48.22 10.812h96.44c-14.64-6.9-30.98-10.812-48.22-10.812zM80.53 57.835c-4.1 3.036-7.95 6.422-11.62 10h29.65a77.117 77.117 0 0 1 14.91-10zm90.6 0v10h55.84a108.354 108.354 0 0 0-11.62-10zM58.28 79.96c-2.43 3.187-4.66 6.555-6.78 10h28.66a78.187 78.187 0 0 1 6.72-10zm112.85 0v10h73.28a114.242 114.242 0 0 0-6.78-10zM44.97 102.62a98.527 98.527 0 0 0-3.87 10h30.31c.73-3.42 1.68-6.78 2.87-10zm80.84 0v52.15h45.85v53.41l-45.85-.19H52.78c2.21 3.49 4.59 6.84 7.16 10h65.87v11.59H70.56c3.81 3.61 7.87 6.94 12.13 10.04h43.12v10.53h-24.93c12.02 5.54 25.18 8.99 39.06 9.97 2.65.19 5.34.34 8.03.34 2.69 0 5.36-.15 8-.34 13.88-.98 27.04-4.43 39.03-9.97h-12.53c2.62-1.34 12.13-6.55 21.69-16.28-1.95 2.01-3.96 3.94-6.1 5.75h15.13c4.29-3.1 8.36-6.43 12.16-10.04h-17.22c2.94-3.41 5.81-7.27 8.34-11.59h19.5c2.56-3.16 4.92-6.51 7.13-10h-21.69c1.4-3.44 2.59-7.17 3.47-11.09h24.4c1.57-3.23 3-6.58 4.25-10H226.5c.3-2.94.39-5.97.31-9.13 0 0 .16-.63.29-1.9H257c.84-3.29 1.49-6.64 2.03-10.07h-32.47c-.53-3.09-1.46-6.82-2.96-11.03h36.65c.15-2.24.22-4.52.22-6.84v-3.19h-41.09a83.982 83.982 0 0 0-6.32-11.06h46.57c-.42-3.38-1.03-6.74-1.75-10H205c-3.86-4.15-8.19-7.83-12.87-11.06h62.75c-1.14-3.42-2.45-6.78-3.88-10zm-87.75 21.06c-.73 3.26-1.32 6.62-1.75 10h33.57c-.11-1.71-.16-3.48-.16-5.25 0-1.62.1-3.2.16-4.75zm-2.56 21.06c0 1.08-.1 2.14-.1 3.19 0 2.32.1 4.6.22 6.84h38.59a77.65 77.65 0 0 1-2.09-6.84c-.29-1.05-.53-2.11-.75-3.19zm1.35 21.06c.55 3.43 1.23 6.78 2.06 10.07h46.81c-2.41-3.2-4.6-6.51-6.5-10.07zm5.53 21.1c1.26 3.42 2.67 6.77 4.25 10h61.72c-4.04-2.75-9.12-7.08-12.38-10zm1047.52-15.26H986.86v40.38c0 14.24 12 13.44 12 13.44h78.34c14 0 12.7-9.8 12.7-9.8zm-15.8 37.5H1003v-25.6h71.1v25.6m-83.34-50.16h95.04v-11.92h-94.84l-.2 11.92m.5-24.53h94.54v-16.33h-94.54zm-8.5-41.24l.2 16.07h115.54V93.21H982.76M1084 79.72c5.9-.24 6.7-11.61 6.7-11.61h-99.44v11.61s86.84.32 92.74 0m-101.04-16h-19.4c-5.4 45.56-34.4 71.7-34.4 71.7v27.97c16-12.47 24.3-24.62 24.3-24.62v86.98h16.3V112.91c13.7-23.6 13.2-49.19 13.2-49.19m-245.1 127.1c0 15.8 14.5 14.23 14.5 14.23h47.6c.3 21.46 15.5 20.23 15.5 20.23h71v-15.6h-59.3c-4.9 0-3.4-5.16-3.4-5.16h51.8c11.2 0 11.4-8.8 11.4-8.8v-44.8h-148.8s-.3 24.08-.3 39.9zm86.2-27.69h38.6v8.8h-38.6zm0 20.98h38.6v8.8h-38.6zm-62.1-21.51h38.5v8.79h-38.5zm0 21.51h38.5v8.8h-38.5v-8.8m67.6-41.4h36.6V130.9h-36.6zm0-20.87h36.9v-7.72h-36.9zm-71.1 20.87h36.9v-11.9h-36.9zm0-20.95h37.2v-7.82h-37.2zm65.6-32.92V80.3h62.4V68.11h-147.8V80.3h66v8.54h-74v53.57h18.9v-38.57h54.8v38.57h19.7v-38.57h51.2v38.85h19.2V88.84h-70.4m-198.7 90.71h62.1v-15.46h-32.7l7.7-14.12h28.5V134.5h-21.9l7.1-13.51h11v-16.08h-152.6v16.33h14.8l6.6 13.03h-25.4v15.92h31.6l6.8 13.44h-34.2v15.73h66.3v13.01h-70.9v12.15h70.9v20.54h23.9v-20.32h66.9v-12.6h-66.5zm-59-58.56h34.2v13.73h-26.5zm34.4 42.87h-13.4l-6.9-13.45h20.3zm24.4-42.87h32.7l-6.7 13.1h-26zm0 28.32l19.2.22-6.9 13.66h-12.3v-13.88m32.9-72.91V63.81h-23.9V76h-46.1V63.81h-20.6V76h-37.1v11.89h37.3v12.37h19.9V87.89h46.6v12.37h23.9V88.59h33.8V76.4h-33.8m-228.5 8.8V63.55h-23.4v21.24h-71.2v98.75c0 16.39 11.1 16.17 11.1 16.17h59.7v30.25h24.2v-29.84h55.7c13.9 0 14.8-11.67 14.8-11.67V85.1zm-23.7 94.58h-46.5v-71.57h46.5zm70.3.7h-46.4l.5-72.05h46.1l-.2 72.05"/></svg>