<svg xmlns="http://www.w3.org/2000/svg" viewBox="0 0 83 89"><path d="M22.22 62.074c0 1.233 1.016 2.233 2.274 2.233 1.256 0 2.274-1 2.274-2.233s-1.018-2.232-2.274-2.232c-1.258 0-2.274 1-2.274 2.232M39.973 73.83c0 3.525-1.38 4.994-3.373 4.994-2.01 0-3.14-1.707-3.14-4.7 0-3.054 1.75-5.58 4.986-5.58.668 0 1.134.066 1.527.16zm.193 5.782v1.145c0 3.143-1.935 4.363-4.336 4.363-2.16 0-3.75-.65-4.254-.825v3.108c.41.11 2.163.662 4.664.662 4.44 0 7.41-1.833 7.41-8.115V66.394c-.57-.145-2.656-.698-5.056-.698-6.23 0-8.908 4.175-8.908 8.693 0 4.15 2.09 7.407 6.092 7.407 2.638 0 3.907-1.593 4.32-2.185zm-21.183-1.917c-1 .47-2.6.777-4.15.777-4.223 0-7.333-3.02-7.333-7.623 0-4.575 3.09-7.633 7.334-7.633 2.104 0 3.6.515 4.15.775v-3.29c-.924-.342-2.423-.688-4.54-.688-6.555 0-10.96 4.53-10.96 10.835 0 5.956 4.054 10.827 10.96 10.827 2.025 0 3.55-.32 4.54-.69zm55.62-3.865c0 3.525-1.38 4.994-3.372 4.994-2.012 0-3.144-1.707-3.144-4.7 0-3.054 1.757-5.58 4.99-5.58.662 0 1.13.066 1.528.16zm4.14 7.624c-.12-.86-.464-3.125-.464-5.074v-9.986c-.575-.145-2.66-.698-5.056-.698-6.233 0-8.906 4.175-8.906 8.693 0 4.15 2.082 7.407 6.087 7.407 2.924 0 4.235-1.89 4.73-2.9h.096c.038.48.17 2.107.213 2.557zM26.333 66.09H22.66v15.364h3.674zM47.81 81.454V70.822c0-1.425-.13-4.158-.167-4.778h3.302l.155 2.16h.07c.383-.604 1.62-2.508 4.5-2.508 3.48 0 5.41 2.556 5.41 5.743v10.014h-3.67v-9.29c0-1.955-1.09-3.434-2.96-3.434-1.932 0-2.96 1.56-2.96 3.435v9.29zm-24.6-60.49c-1.806-.818-3.157-2.454-3.377-4.04 1.34-.883 3.456-.95 5.264-.134 1.89.855 2.33 2.3 2.342 3.57-.962.835-2.338 1.46-4.23.603m5.178-9.542c-1.16-1.784-1.432-4.044-.714-5.605 1.722-.022 3.675 1.145 4.835 2.93 1.213 1.868.774 3.43.047 4.585-1.354.195-2.958-.04-4.17-1.91m2.69 9.454c-1.434-1.214-2.238-3.055-2.025-4.56 1.45-.454 3.397.036 4.83 1.25 1.5 1.272 1.524 2.702 1.202 3.865-1.093.504-2.508.714-4.008-.556m4.38-4.57c-.615-1.99-.268-4.195.828-5.48 1.63.44 3.16 2.067 3.775 4.06.644 2.086-.187 3.44-1.182 4.336-1.325-.177-2.78-.827-3.42-2.915M27.91 30.85c-1.426.28-2.93-.13-3.74-.986.426-1.1 1.672-2.04 3.102-2.318 1.494-.29 2.373.39 2.92 1.147-.223.91-.782 1.866-2.282 2.158m-3.77-4.224c-1.624-.176-3.105-1.11-3.686-2.298.82-1.038 2.468-1.637 4.095-1.46 1.703.185 2.422 1.205 2.758 2.2-.544.902-1.462 1.743-3.166 1.558m-.145-12.067c-1.275-1.082-1.99-2.717-1.8-4.055 1.287-.406 3.02.03 4.294 1.11 1.332 1.13 1.357 2.403 1.07 3.436-.973.453-2.23.638-3.563-.49m8.69-8.577c-.516-1.66-.224-3.5.687-4.568 1.36.368 2.637 1.724 3.15 3.38.538 1.74-.158 2.87-.986 3.62-1.106-.15-2.314-.692-2.852-2.432m-21.35 43.075c0 .045.028.08.086.08.052 0 .15-.043.252-.08 5.103-1.83 12.635-4.074 23.208-4.76.012-.095.076-.567.076-.93 0-.764-.09-1.563-.115-1.695-10.834.993-18.31 4.135-23.222 7.153-.198.124-.284.153-.284.232M54.854 20.36c.012-1.27.453-2.715 2.343-3.57 1.804-.816 3.924-.75 5.262.134-.222 1.586-1.572 3.222-3.376 4.04-1.893.855-3.267.23-4.23-.603m-5.117-7.03c-.726-1.155-1.165-2.717.05-4.586 1.157-1.784 3.11-2.95 4.832-2.93.717 1.562.444 3.822-.713 5.607-1.21 1.87-2.82 2.105-4.17 1.91m-2.53 8.1c-.32-1.164-.295-2.594 1.205-3.867 1.434-1.213 3.38-1.703 4.83-1.248.21 1.504-.593 3.345-2.025 4.56-1.498 1.27-2.916 1.06-4.01.554m-3.794-2.21c-.994-.895-1.824-2.25-1.18-4.336.614-1.993 2.15-3.62 3.776-4.06 1.096 1.285 1.443 3.49.827 5.48-.645 2.09-2.095 2.74-3.424 2.916m8.686 9.473c.548-.758 1.423-1.437 2.92-1.147 1.43.278 2.674 1.22 3.1 2.318-.806.856-2.31 1.265-3.74.987-1.498-.29-2.06-1.247-2.28-2.157m2.884-3.625c.338-.995 1.057-2.015 2.76-2.2 1.625-.177 3.272.422 4.093 1.46-.58 1.188-2.06 2.122-3.685 2.298-1.705.185-2.626-.656-3.168-1.558m-.252-10.017c-.286-1.032-.264-2.304 1.07-3.436 1.276-1.078 3.007-1.515 4.295-1.11.19 1.34-.528 2.974-1.8 4.055-1.334 1.128-2.593.943-3.565.49m-7.978-6.636c-.828-.75-1.522-1.878-.985-3.618.513-1.657 1.79-3.013 3.143-3.38.92 1.068 1.206 2.907.695 4.567-.54 1.74-1.747 2.28-2.854 2.43M70.67 48.827c-4.91-3.018-12.387-6.16-23.22-7.153-.022.132-.114.93-.114 1.696 0 .36.062.833.075.928 10.572.686 18.103 2.93 23.208 4.76.105.037.204.08.25.08.06 0 .09-.035.09-.08 0-.08-.09-.108-.287-.232M41.148 10.16c-1.404-.655-2.786-1.87-2.786-4.392 0-2.41 1.138-4.728 2.787-5.768 1.65 1.04 2.786 3.358 2.786 5.768 0 2.523-1.38 3.737-2.786 4.39m-3.454 16.406c0 1.957 1.545 3.542 3.452 3.542 1.91 0 3.457-1.585 3.457-3.542 0-1.96-1.546-3.544-3.457-3.544-1.907 0-3.452 1.584-3.452 3.544m-8.254-3c1.455 0 10.91 4.172 10.91 19.165 0 7.164-2.41 13.136-3.834 13.136-.627 0-.866-.627-.866-1.832 0-2.653.935-5.003.935-10.665 0-10.934-4.503-15.345-6.52-17.827-.594-.735-1.045-1.214-1.045-1.645 0-.177.125-.335.42-.335m23.832.335c0 .43-.45.91-1.046 1.645-2.015 2.482-6.516 6.893-6.516 17.826 0 5.66.93 8.01.93 10.664 0 1.205-.235 1.832-.863 1.832-1.423 0-3.836-5.972-3.836-13.137 0-14.994 9.46-19.167 10.917-19.167.292 0 .415.158.415.335"/></svg>