<svg xmlns="http://www.w3.org/2000/svg" viewBox="0 0 339.9 121.2"><path d="M141.1 42.17C131.9 29.55 117.2 22 102.1 22c-14.99 0-29.79 7.55-38.67 20.17l-.49.65h11.34c7.65-7.9 17.51-12.07 27.82-12.07 10.4 0 20.2 4.17 27.9 12.07H141.3zm149.4-9.67v45.4l3.2-4.74s13.6-19.71 15.3-22.24h6.2c-1.5 1.74-12.1 16.5-12.1 16.5s14 29.12 14.8 30.77H312c-.5-.69-12.4-26.09-12.4-26.09l-9.1 12.56v13.53h-5.4v-62.5c.5-.27 4.2-2.44 5.4-3.19zm-45.6 24.05c2.9-4.29 7.4-6.65 12.6-6.65 10.6 0 16 6.7 16 19.35V98.2h-5.4V70.45c0-10.76-4-15.78-11.9-15.78s-12.5 5.9-12.5 15.78v27.74h-5.5V50.92h5.5v7.33zm-34.3-6.65c10.9 0 16 4.95 16 15.08V98.2h-5.4v-6.91L220 92.5c-4 4.51-8.6 6.71-14.3 6.71-4.5 0-14.6-1.43-14.6-14.9 0-11 9.2-14.92 17.5-14.92 4.5 0 8.7.99 11.6 2.71l1 .5v-6.78c0-7.53-3.7-11.35-11.1-11.35-4.4 0-8.4 1.14-12.6 3.48-.2-.84-1.7-3.67-1.9-4.49 4.2-2.29 9.6-3.57 15-3.56zm-14 33.94c0 7.09 3.7 10.98 10.3 10.98 5.7 0 10.6-2.68 14.1-7.54l.2-.25V76.67l-.5-.25c-3.4-2.02-7.1-2.84-12.3-2.84-7.4 0-11.8 3.8-11.8 10.14zm-43-51.33v25.3l1-1.18c4.2-4.51 8.7-6.73 13.8-6.73 10.6 0 16.6 8.7 16.6 23.87 0 15.46-6.9 25.44-17.3 25.44-5.2 0-9.4-1.98-13.1-6.23l-1-1.27v6.49H148V35.69c.5-.27 4.2-2.44 5.6-3.18zm0 29.42V87.03c3.3 4.76 8.2 7.59 13.4 7.59 8.3 0 12.5-6.92 12.5-20.59 0-12.18-4.6-19.18-12.8-19.18-4.7 0-9.1 2.43-13.1 7.25m-28.3 36.1h9.9V50.6h-9.9zm-7.9-10.36c-2.7 1.6-5.1 2.39-7.4 2.39-2.9 0-4.4-1.65-4.4-5.38V59.64h9.9v-8.98h-9.9V35.85l-9.62 5.12v9.69h-8.13v8.98h8.13v26.84c0 7.3 4.42 12.31 10.82 12.44 4.5 0 6.9-1.21 8.7-2.17l2.4-9.18zM69.35 98.19h9.86V50.6h-9.86zm-11.1-14l-.24.24c-3.46 3.51-7.4 5.38-11.35 5.38-8.63 0-15.04-6.44-15.04-15.31 0-8.88 6.41-15.32 15.04-15.32 3.95 0 7.89 1.88 11.35 5.38l.24.25 5.68-6.69-.25-.24c-4.69-5.42-10.11-8.06-16.77-8.06-6.9 0-13.07 2.29-17.51 6.4-4.93 4.47-7.4 10.76-7.4 18.23 0 7.44 2.47 13.76 7.4 18.22 4.44 4.14 10.61 6.41 17.51 6.41 6.66 0 12.08-2.64 16.77-8.06l.25-.25z"/></svg>