<svg xmlns="http://www.w3.org/2000/svg" viewBox="0 0 119.97 53.269"><path d="M82.65 15.357v22.54h-6.76v-22.54zm-57.325 3.117l-3.562 5.75c-1-1.662-2.963-2.737-4.963-2.737-2.838 0-4.913 2.312-4.913 5.15 0 2.837 2.075 5.15 4.913 5.15 2 0 3.963-1.075 4.963-2.737l3.562 5.76a11.772 11.772 0 0 1-8.513 3.632C10.288 38.442 5 33.162 5 26.637c0-6.512 5.288-11.813 11.812-11.813 3.35 0 6.363 1.4 8.513 3.65zM30.763 5A4.23 4.23 0 0 1 35 9.225c0 2.35-1.9 4.25-4.237 4.25-2.35 0-4.238-1.9-4.238-4.25A4.23 4.23 0 0 1 30.763 5zm3.387 10.363V37.9h-6.762V15.364zm1.812 5.887v-5.887h17.013v5.887h-5.138V37.9H41.1V21.25zM67.5 28.925l6.888 8.975h-8.525l-4.3-6.725V37.9H54.8V15.363h8.863c2.637 0 4.762.736 6.162 2.137 1.25 1.25 1.887 2.937 1.887 5.038 0 3.1-1.637 5.5-4.212 6.387zm-1.85-6.05c0-.75-.187-1.313-.6-1.725-.8-.8-2.338-.913-3.488-.926v5.313c2.9 0 4.088-.8 4.088-2.663zM79.263 39.8a4.233 4.233 0 0 1 0 8.47 4.233 4.233 0 0 1 0-8.468zm3.387-24.437h-6.775zM92.85 25.7l-6.925-10.338H94.2l2.662 4.775 3.1-4.775h8.298l-7.46 10.363 7.84 12.175h-8.11l-3.767-6.638L92 37.9h-8.188zm20.63-6.2h-.5v-.375c0-.65-.2-.813-.75-.813h-.54V19.5h-.48v-3h1.02c.63 0 1.28.137 1.28.875 0 .5-.38.675-.74.724.46.124.68.374.68.9v.5zm-.53-2.125c0-.35-.3-.513-.76-.513h-.54v1.088h.54c.49 0 .76-.188.76-.575zm-.7-2.1a2.73 2.73 0 0 1 2.72 2.737 2.72 2.72 0 0 1-2.72 2.725c-1.51 0-2.75-1.212-2.75-2.724a2.75 2.75 0 0 1 2.75-2.738zm2.36 2.737c0-1.3-1.06-2.375-2.36-2.375a2.388 2.388 0 0 0-2.38 2.375 2.37 2.37 0 0 0 2.38 2.362c1.31 0 2.36-1.05 2.36-2.362z"/></svg>