<svg xmlns="http://www.w3.org/2000/svg" viewBox="0 0 490 166.7"><path d="M86 55c3 2.7 5 6.2 6 10.2h9L90 55h-4zm-5 0v10.2h10c-2-4.2-5-7.7-8-10.2h-2zm-4 0c-3 2.5-6 6-8 10.2h10V55h-2zm-7 0L59 65.2h9c1-4 3-7.5 6-10.2h-4zm23 12c1 3.6 2 7.5 2 11.7h10v-9.4l-3-2.3h-9zm-12 0v11.7h12c0-4.2 0-8.2-2-11.7H81zm-12 0c-2 3.5-2 7.5-2 11.7h12V67H69zm-11 0l-3 2.3v9.4h10c0-4.2 1-8.1 2-11.7h-9zm37 13.5c0 4.2-1 8.1-2 11.7h9l3-2.2v-9.5H95zm-14 0v11.7h10c2-3.5 2-7.5 2-11.7H81zm-14 0c0 4.2 0 8.2 2 11.7h10V80.5H67zm-12 0V90l3 2.2h9c-1-3.6-2-7.5-2-11.7H55zM92 94c-1 4.1-4 7.6-6 10.3h4L101 94h-9zm-11 0v10.3h2c3-2.5 6-6.1 8-10.3H81zm-12 0c2 4.2 5 7.8 8 10.3h2V94H69zm-10 0l11 10.3h4c-2-2.7-5-6.2-6-10.3h-9zm343-25.7h7v5.3c3-3.3 6-6 11-6 8 0 15 6 15 16.6v.1c0 10.5-7 16.5-15 16.5-5 0-8-2.6-11-5.6v16.5h-7V68.3zm26 16v-.1c0-6.2-5-10.2-10-10.2s-9 4.1-9 10.2v.1c0 6.1 4 10.2 9 10.2s10-3.9 10-10.2m-62 4.5V68.5h7v18.1c0 5 3 7.8 7 7.8s7-2.9 7-7.9v-18h8v31.9h-8v-5c-2 3-5 5.6-10 5.6-7 0-11-4.8-11-12.2m-39-4.2v-.1c0-9.1 7-16.7 17-16.7s17 7.5 17 16.6v.1c0 9-7 16.6-17 16.6s-17-7.5-17-16.5m27 0v-.1c0-5.6-4-10.3-10-10.3s-10 4.6-10 10.2v.1c0 5.5 4 10.2 10 10.2s10-4.6 10-10.1m-49-16.1h7v7.2c2-4.8 6-8 12-7.8v7.7h-1c-6 0-11 4.2-11 12.6v12.1h-7V68.5zm-47 10.9v-.1c0-11.8 9-21.8 22-21.8 7 0 12 2 16 5.7l-5 5.6c-3-2.8-6-4.5-12-4.5-7 0-13 6.8-13 14.9v.1c0 8.7 6 15.1 14 15.1 4 0 8-1.3 10-3.2v-7.9h-10v-6.5h18v17.7c-5 3.6-11 6.6-18 6.6-13 0-22-9.4-22-21.7m-47-21.3h31v6.6h-24v11h22v6.6h-22v11.4h25v6.6h-32V58.1zm-50 0h8l13 20 13-20h7v42.2h-7V70l-13 19.9-14-19.7v30.1h-7V58.1zm-45 21.3v-.1c0-12 9-21.8 22-21.8 8 0 12 2.7 16 6.5l-4 5.5c-4-3.1-7-5.2-12-5.2-8 0-14 6.6-14 14.9v.1c0 8.2 6 15 14 15 5 0 8-2.1 12-5.5l5 4.8c-5 4.6-10 7.5-18 7.5-12 0-21-9.6-21-21.7"/></svg>