<svg xmlns="http://www.w3.org/2000/svg" viewBox="0 0 271.5 359.7"><path d="M135.7 22C72.93 22 22 72.9 22 135.6c0 62.8 50.93 113.7 113.7 113.7 62.8 0 113.8-50.9 113.8-113.7 0-62.7-51-113.6-113.8-113.6zM92.82 74.4h7.98v129h-7.98v-129zM202.7 90.2h11.1v16.9l-.2.1h10.8v8h-10.6V159c.2 4.2 2.8 5.6 5.8 5.6 2.2-.2 6.6 0 6.6 0v8s-8.6 0-10.3.1c-3.7 0-7-1.7-6-1.2-5-2.4-6.8-7.5-7.2-13.5V90.2zM67.58 105.3c9.15.1 18.21 5.5 17.89 16.3v6.5H74.71l-.13-7.1c0-7.9-14.11-7.8-14.26.5v-.5 37.9c.15 8.1 14.23 8 14.23 0v-8.5h10.94v7.8c.63 21.6-36.39 21.2-36.1 0V121c-.14-10.5 9.05-15.7 18.17-15.7zm108.22 0c9.3.1 18.4 5.5 18 16.3v17.9c0 1-.7 2-2.1 2h-23v17.4c0 8.1 14.3 8 14.3 0v-8.4h10.8v7.7c.7 21.6-36.5 21.2-36 0V121c-.2-10.5 9-15.7 18-15.7zm-41 .7c3.7 0 6.2 1.4 5.6 1.1 4.7 2.2 6.8 7.4 7 13.4v44.1h7v8h-17.9V120c0-7.8-13.3-7.5-13.3.3v52.3h-15.8v-8h5v-49.4h-6.1v-8.1h15.5v6s2-2.9 6.9-5.7c2.1-1.1 4.3-1.4 6.1-1.4zm40.9 9c-3.4 0-7 2-7 6v12.3H183V121c0-3.9-3.7-6-7.3-6zm29.6 167.3v4.9h.2c1.1-2 2.6-3.6 4.4-4.5 1.8-1 3.9-1.5 6.2-1.5 3.5 0 6.1 1 7.9 2.8 1.9 1.9 2.8 5 2.8 9.2v31h-10.7v-28.9c0-2.1-.4-3.7-1.1-4.5-.8-.9-1.9-1.3-3.5-1.3-3.8 0-5.7 2.3-5.7 6.9v27.8H195v-41.9h10.3m-30.5 22.3c-.8.4-1.6.6-2.3.8-2.1.5-3.7 1.2-4.6 2.3-1 1.1-1.4 2.6-1.4 4.5 0 1.6.3 2.9.9 4.1.6 1.1 1.7 1.7 3.1 1.7.7 0 1.5-.1 2.3-.3.7-.3 1.5-.7 2.1-1.2.7-.5 1.2-1.2 1.6-2 .4-.8.6-1.8.6-3v-8.2c-.7.6-1.5 1-2.3 1.3zm-17.3-10.4c0-2.5.4-4.5 1.2-6.1.7-1.7 1.8-3 3.1-4s2.9-1.8 4.7-2.2c1.8-.4 3.7-.7 5.7-.7 3.2 0 5.8.4 7.8 1s3.5 1.5 4.6 2.6c1.1 1.2 1.8 2.5 2.2 4.1.4 1.6.6 3.3.6 5.2v22c0 2 .1 3.5.3 4.6.2 1.1.5 2.3 1 3.5h-10.3c-.3-.6-.6-1.4-.8-2.1-.2-.8-.3-1.5-.5-2.2h-.1c-1.3 2.2-2.7 3.6-4.4 4.2-1.6.7-3.7 1-6.3 1-1.9 0-3.5-.3-4.7-1-1.3-.6-2.4-1.5-3.2-2.7-.7-1.1-1.3-2.4-1.7-3.8-.3-1.5-.5-2.9-.5-4.3 0-1.9.2-3.6.6-5.1.4-1.4 1.1-2.6 1.9-3.6.9-1 2-1.9 3.3-2.6 1.3-.6 2.9-1.2 4.8-1.8l6-1.6c1.7-.4 2.8-1 3.4-1.7.6-.7.9-1.8.9-3.2 0-1.6-.4-2.9-1.1-3.8-.8-.9-2-1.3-3.9-1.3-1.6 0-2.9.5-3.7 1.4-.8 1-1.2 2.4-1.2 4v1.2h-9.7v-1m-27.1 19.4c.7 2.3 2.3 3.5 4.7 3.5 2.3 0 3.8-1.2 4.5-3.5.7-2.3 1.1-5.7 1.1-10.3 0-4.6-.4-8-1.1-10.3-.7-2.3-2.2-3.5-4.5-3.5-2.4 0-4 1.2-4.7 3.5-.7 2.3-1 5.7-1 10.3 0 4.6.3 8 1 10.3zm-1.5-31.3v4.5h.2c1.2-2 2.5-3.4 4-4.3 1.5-.8 3.3-1.3 5.5-1.3 4.4 0 7.6 1.8 9.7 5.2 2.1 3.5 3.1 9.1 3.1 16.9 0 7.8-1 13.4-3.1 16.7-2.1 3.4-5.3 5.1-9.7 5.1-2 0-3.8-.4-5.2-1.1-1.4-.8-2.7-2-3.9-3.7h-.1v17.4h-10.8v-55.4h10.3m-30.54 22.3c-.83.4-1.58.6-2.25.8-2.19.5-3.74 1.2-4.68 2.3-.93 1.1-1.4 2.6-1.4 4.5 0 1.6.31 2.9.94 4.1.62 1.1 1.66 1.7 3.11 1.7.73 0 1.48-.1 2.26-.3.78-.3 1.49-.7 2.14-1.2.65-.5 1.18-1.2 1.62-2 .4-.8.6-1.8.6-3v-8.2c-.73.6-1.51 1-2.34 1.3zm-17.28-10.4c0-2.5.38-4.5 1.16-6.1.78-1.7 1.83-3 3.16-4 1.32-1 2.88-1.8 4.67-2.2 1.79-.4 3.7-.7 5.72-.7 3.22 0 5.81.4 7.81 1s3.5 1.5 4.6 2.6c1.1 1.2 1.8 2.5 2.2 4.1.4 1.6.6 3.3.6 5.2v22c0 2 .1 3.5.3 4.6.1 1.1.5 2.3 1 3.5H102c-.3-.6-.6-1.4-.8-2.1-.2-.8-.3-1.5-.5-2.2h-.2c-1.2 2.2-2.64 3.6-4.28 4.2-1.63.7-3.75 1-6.34 1-1.87 0-3.46-.3-4.76-1-1.29-.6-2.33-1.5-3.11-2.7-.78-1.1-1.35-2.4-1.71-3.8-.37-1.5-.55-2.9-.55-4.3 0-1.9.21-3.6.62-5.1.42-1.4 1.06-2.6 1.91-3.6.86-1 1.95-1.9 3.27-2.6 1.33-.6 2.92-1.2 4.79-1.8l6.08-1.6c1.61-.4 2.72-1 3.34-1.7.64-.7.94-1.8.94-3.2 0-1.6-.4-2.9-1.13-3.8-.75-.9-2.04-1.3-3.85-1.3-1.67 0-2.91.5-3.74 1.4-.83 1-1.25 2.4-1.25 4v1.2h-9.65v-1m-6.94 14.5c0 5.9-1.37 10.1-4.12 12.6-2.76 2.5-6.96 3.8-12.62 3.8-2.96 0-5.39-.4-7.28-1.2-1.9-.8-3.4-2-4.52-3.4-1.11-1.5-1.88-3.3-2.29-5.2-.42-2-.63-4.1-.63-6.3v-2.4h10.28v1.7c0 3 .33 5.2.98 6.6.64 1.5 1.98 2.2 4.01 2.2 2.02 0 3.36-.7 4.01-2.2.65-1.4.97-3.6.97-6.6v-39.7h11.21v40.1"/></svg>