<svg xmlns="http://www.w3.org/2000/svg" viewBox="0 0 1000 1000"><path d="M500 51C252 51 51 252 51 500s201 449 449 449 449-201 449-449S748 51 500 51zM330.6 258.3H362v509.8h-31.4V258.3zM764 320.5h44v67l-1 .5h43v31.2h-42v172.9c1 16.6 11 22.1 23 22 9-.1 26 .1 26 .1v32s-34 0-41 .1c-14 .1-27-6.4-23-4.7-20-8.7-27-29.6-29-52.9V320.5zm-533.1 59.8c36.1.3 72 21.6 70.6 64.3v25.5H259l-.5-27.6c0-31.9-55.7-30.9-56.3 1.6l.1-1.6v149c.6 32.5 56.2 31.9 56.2 0v-32.9h43.2v30.8c2.6 85.3-143.7 83.2-142.5 0V442.5c-.6-41.6 35.7-62.4 71.7-62.2zm427.5 0c36.1.3 72.1 21.6 70.6 64.4v70.4c0 4.4-3 8-8 8l-91-.1v68.5c0 32.5 56 31.9 56 0v-32.8h43v30.7c3 85.3-144 83.2-142 0V442.5c-1-41.6 35.2-62.4 71.4-62.2zm-161.8 2.5c14.2.1 24 5.7 21.4 4.7 19 8.5 27 29.4 28 52.7v174h28v32h-71v-208c0-30.3-52-29.4-52 1.4v206.6h-63v-32h20V419.4l-24-.2v-31.7h61v23.3s8-11 27-21.8c8.6-4.7 17.2-6.2 24.6-6.2zM658 418.5c-14-.1-28 7.8-28 23.8v48.3l56-.1v-48c0-15.9-14-24-28-24z"/></svg>