<svg xmlns="http://www.w3.org/2000/svg" viewBox="0 0 600 400"><path d="M496.666 165.446c1.995-2.694 3.71-5.046 5.466-7.368.99-1.307 2-2.6 3.075-3.84a78.345 78.345 0 0 1 14.72-13.2c3.945-2.72 8.272-4.787 13.073-5.46 2.295-.322 4.698-.254 6.914.617 3.423 1.345 4.908 4.216 5.143 7.634.35 5.064-.49 10.054-1.366 15.042-.355 2.03-.873 4.07-.845 6.192 1.84-2.717 3.753-5.336 5.81-7.85 3.09-3.78 6.36-7.37 10.05-10.607 3.2-2.807 6.517-5.39 10.217-7.494 4.26-2.424 8.766-4.038 13.72-3.548 4.19.415 6.968 2.504 7.81 7.195.627 3.5.19 6.962-.242 10.448-.475 3.82-1.28 7.58-1.86 11.38-.403 2.645-1.037 5.254-1.54 7.886-.617 3.217-1.025 6.463-1.457 9.71-.303 2.278-.3 4.564-.454 6.833-.258 3.76.54 7.47 1.8 11.04.57 1.612 1.06 3.266 1.968 4.736.503.814.225 1.463-.347 2.058-2.016 2.103-4.47 3.297-7.396 3.348-2.166.038-4.374.313-6.378-.938-2.673-1.67-3.68-4.31-4.236-7.185-.628-3.257-.464-6.582-.246-9.843.28-4.172.94-8.32 1.64-12.458.91-5.39 2.15-10.708 3.07-16.093.547-3.198.895-6.405 1.164-9.63.087-1.047-.215-2.03-.415-3.01-.555-2.73-2.957-2.72-5.01-2.268-3.416.754-5.932 3.017-8.576 5.055-2.144 1.652-4.024 3.605-5.864 5.578-5.038 5.4-9.394 11.317-13.22 17.634-2.9 4.79-5.17 9.845-6.68 15.24-.765 2.736-1.147 5.525-1.52 8.34-.333 2.535.028 4.876.653 7.262.18.692-.078 1.012-.844 1.315-3.225 1.272-6.51 1.31-9.835.713-2.21-.396-3.556-2.93-3.58-4.788-.05-3.773.8-7.393 1.59-11.01 1.347-6.154 2.99-12.242 4.108-18.45.815-4.522 1.93-8.996 2.588-13.538.48-3.318.956-6.693.632-10.067-.31-3.223-1.896-4.017-5.398-3.258-3.5.758-6.087 3.12-8.757 5.247-2.95 2.35-5.585 5.062-7.998 7.966-3.532 4.25-6.84 8.678-9.744 13.372-3.055 4.94-5.664 10.12-7.282 15.746-.837 2.912-1.362 5.86-1.76 8.867-.36 2.714-.185 5.274.625 7.852.188.595.042 1.01-.794 1.34-3.28 1.288-6.633 1.41-9.974.68-2.408-.528-3.348-2.202-3.444-4.684-.17-4.36.99-8.51 1.93-12.682 1.385-6.15 2.898-12.27 4.032-18.477.68-3.714 1.59-7.385 2.28-11.098.605-3.26 1.023-6.554 1.562-9.826.464-2.823.954-5.632.908-8.518-.03-1.82-.302-3.54-1.21-5.125-.563-.984-.32-1.615.777-1.81 3.326-.596 6.606-1.438 10.05-1.265 3.15.158 5.402 2.34 5.487 5.485.1 3.717-.84 7.26-1.644 10.83-.93 4.113-1.898 8.22-2.944 12.746zM74.895 108.542c5.332.024 10.654.245 15.722 2.114 2.735 1.008 5.358 2.384 6.114 5.55.658 2.75.31 5.416-1.22 7.908-1.303 2.123-3.166 3.708-4.89 5.427-1.012 1.01-1.54.887-2.18-.35-2.337-4.517-6.264-7.17-10.775-9.056-5.33-2.23-10.98-2.81-16.657-2.334-5.262.44-10.09 2.382-14.32 5.627-5.128 3.936-8.935 8.982-12.16 14.524-3.808 6.543-6.08 13.64-7.444 21.02-.55 2.984-.878 6.03-1.027 9.095-.106 2.2-.246 4.4-.203 6.598.154 7.858 2.887 14.637 8.985 19.73 3.252 2.717 7.074 4.364 11.402 4.908 3.688.465 7.384.458 10.955-.147 5.49-.928 10.77-2.708 15.663-5.537 3-1.735 5.75-3.792 8.482-5.885.775-.593.938-.38 1.21.456 1.034 3.195.398 5.892-1.945 8.333-6.13 6.384-13.74 10.185-22.04 12.79a59.47 59.47 0 0 1-12.087 2.44c-7.082.693-13.863-.044-20.233-3.32-6.68-3.438-11.276-8.77-14.074-15.737-1.337-3.33-2.008-6.752-2.368-10.303-.773-7.626.322-15.01 2.272-22.366 1.634-6.164 4.045-11.99 7.052-17.567 2.204-4.087 4.84-7.912 7.814-11.514 1.905-2.307 3.88-4.534 6.06-6.562 4.878-4.534 10.277-8.263 16.445-10.922 5.23-2.255 10.63-3.623 16.253-4.343 3.06-.39 6.112-.612 9.192-.573zM384.014 108.536c5.336.016 10.66.248 15.726 2.122 2.727 1.01 5.35 2.394 6.117 5.547.67 2.75.335 5.435-1.23 7.903-1.512 2.38-3.552 4.233-5.694 6.01-.534.443-.684.443-1-.213-2.61-5.405-7.246-8.414-12.657-10.358-4.958-1.78-10.173-2.244-15.355-1.74-6.198.602-11.6 3.23-16.275 7.446-6.508 5.868-10.805 13.114-13.972 21.18-1.79 4.558-2.916 9.275-3.756 14.056-.39 2.225-.522 4.527-.716 6.8-.204 2.404-.253 4.796-.224 7.194.095 7.92 2.845 14.686 8.935 19.908 2.42 2.075 5.288 3.326 8.326 4.293 3.534 1.125 7.16 1.056 10.722.797 7.394-.537 14.24-2.917 20.582-6.82 2.378-1.464 4.568-3.156 6.79-4.816.894-.67.972-.405 1.293.496 1.126 3.164.41 5.787-1.883 8.162-6.13 6.348-13.713 10.185-21.996 12.807-3.89 1.232-7.868 1.992-11.944 2.43-6.177.663-12.14.06-17.95-2.117-2.617-.982-4.97-2.43-7.157-4.142-5.125-4.01-8.44-9.267-10.39-15.414-1.687-5.315-1.987-10.823-1.585-16.308.59-8.055 2.52-15.86 5.68-23.3 2.946-6.927 6.67-13.405 11.45-19.286 4.518-5.555 9.652-10.396 15.732-14.127 5.547-3.403 11.526-5.813 17.986-7.063 4.79-.928 9.582-1.456 14.448-1.446zM434.236 247.93c.696 1.485.178 3.05.28 4.572.035.527-.48.377-.79.38-1.23.017-2.46.017-3.69 0-.31-.003-.823.143-.786-.385.105-1.523-.416-3.086.284-4.57 1.567.13 3.135.127 4.702.003zM140.23 247.907c.185-.05.27.05.318.21.336 1.473-.034 2.98.208 4.46-1.826.507-3.65.514-5.477-.005.244-1.477-.13-2.983.208-4.456.048-.16.136-.26.322-.21a20.4 20.4 0 0 0 4.42 0zM279.618 257.06c.358.43.213.944.213 1.422.01 10.498.01 20.997 0 31.495 0 .478.148.993-.213 1.422-.025-5.182-.07-10.362-.07-15.543.003-6.265.046-12.532.07-18.798zM548.073 270.41c.218-.35.57-.328.914-.328h15.438c.296 0 .59.003.816.242-5.722.03-11.444.058-17.167.087zM128.308 262.95c-.475-1.57-.105-3.177-.206-4.763.598 1.565.2 3.173.206 4.763z"/><path fill="#404040" d="M434.236 247.93a10.62 10.62 0 0 1-4.703 0 29.656 29.656 0 0 1 4.703 0z"/><path d="M421.136 262.654c-.47-1.573-.11-3.18-.204-4.77.592 1.567.2 3.177.204 4.77zM11.095 276.028c.475 1.57.105 3.177.206 4.763-.597-1.564-.198-3.172-.205-4.762zM301.397 271.25a10.634 10.634 0 0 1 0-4.704 29.656 29.656 0 0 1 0 4.703zM140.23 247.907a8.353 8.353 0 0 1-4.42 0h4.42zM135.49 248.117c-.102 1.484.26 2.99-.21 4.456.012-1.49-.392-2.996.21-4.456zM140.756 252.576c-.468-1.468-.108-2.975-.208-4.46.6 1.462.198 2.97.208 4.46zM323.033 261.468c-.47-1.468-.108-2.975-.208-4.46.575 1.463.214 2.97.208 4.46zM29.02 262.654a9.122 9.122 0 0 1 0-4.406c.122 1.47.124 2.938 0 4.406zM253.087 262.654a9.122 9.122 0 0 1 0-4.406c.12 1.47.123 2.937 0 4.406z"/><path fill="#3D3D3D" d="M372.024 251.146c.098-1.286-.26-2.597.21-3.862.005 1.29.36 2.6-.21 3.862z"/><path fill="#404040" d="M535.012 246.722a6.368 6.368 0 0 1-3.825 0h3.825z"/><path d="M70.578 246.722a6.368 6.368 0 0 1-3.825 0h3.825zM492.942 282.184c-1.418-.006-3.207.506-4.15-.166-.918-.655-.26-2.56-.283-3.912-.05-3.045-.018-6.092-.015-9.138 0-.537.042-1.077-.222-1.575.11-.878.153-1.756-.023-2.632-.83-3.94-3.475-5.16-7.172-3.51-2.53 1.132-3.847 2.584-3.636 5.658.32 4.667.05 9.373.11 14.062.014 1.055-.284 1.303-1.31 1.29-3.456-.037-3.457.006-3.457-3.41 0-6.91.024-13.82-.025-20.73-.007-1.063.193-1.586 1.35-1.38.335.058.69.008 1.035.008 2.29 0 2.29 0 2.47 2.303 3.413-2.8 7.148-4.29 11.34-2.187 2.595 1.302 3.925 3.683 3.996 6.66.273.766.12 1.558.123 2.334.017 4.96.013 9.922.003 14.883 0 .48.122.982-.134 1.444zm89.483.863c1.154-.36 2.352-.62 3.454-1.1 3.2-1.392 4.737-3.814 4.595-7.386-.13-3.266-1.382-5.112-4.473-6.28-2.177-.82-4.524-.952-6.688-1.77-.872-.33-1.827-.55-2.23-1.645-.88-2.384.553-4.403 3.234-4.574 3.036-.193 5.777.523 8.2 2.384.687.528 1.053.45 1.042-.493-.01-1.036-.077-2.08.02-3.108.09-.967-.373-1.378-1.162-1.743-2.954-1.37-6.097-1.333-9.21-1.135-2.12.135-4.15 1.044-5.51 2.69-3.775 4.564-2.05 11.032 4.347 12.405 1.967.422 3.977.726 5.853 1.533 1.244.535 1.73 1.646 1.722 2.788-.007.894-.308 2.01-1.315 2.446-1.615.698-3.31 1.2-5.098.792-2.235-.51-4.346-1.303-6.176-2.76-.72-.573-1.34-.657-1.266.637a26.813 26.813 0 0 1-.005 3.257c-.05.754.236 1.104.918 1.38 1.92.78 3.918 1.253 5.932 1.684a19.53 19.53 0 0 1 3.815 0zm-179.01-2.25c2.052 1.448 4.527 1.623 6.844 2.27a12.913 12.913 0 0 1 3.528 0c.945-.22 1.863-.55 2.793-.8 3.032-.82 4.675-2.868 5.46-5.76.663-2.44-.377-5.754-2.29-7.14-1.184-.857-2.553-1.326-3.977-1.67-1.82-.442-3.697-.672-5.442-1.41-1.05-.443-1.835-1.052-1.864-2.35-.048-2.195 1.295-3.494 3.587-3.656 3-.21 5.64.652 8.053 2.34.382.268.666.6 1.03.03-.25-1.58.135-3.19-.203-4.77-3.885-2.036-7.965-2.368-12.12-1.13-3.763 1.124-5.455 3.66-5.36 7.915.07 3.1 1.843 5.262 5.22 6.34 2.245.717 4.652.785 6.807 1.82 1.01.486 1.55 1.19 1.6 2.362.052 1.273-.173 2.34-1.41 2.932-1.518.726-3.14 1.104-4.797.75-2.29-.49-4.465-1.327-6.33-2.803-.474-.376-.868-.623-1.332-.04.252 1.583-.133 3.192.205 4.77zm-31.182-33.514c-.17-.62-.657-.61-1.17-.627a14.428 14.428 0 0 1-1.875-.168c-2.996-.49-7.765.502-9.327 4.258-.52 1.252-.93 2.497-.908 3.894.03 1.89-.17 2.024-1.97 2.116-.34.017-.96-.228-.93.374.06 1.23-.415 2.507.272 3.688 2.506-.206 2.506-.206 2.506 2.216 0 5.852-.004 11.705.007 17.557 0 .532-.135 1.083.133 1.595h4.453c.268-.512.132-1.064.133-1.595.01-6.2.008-12.398.006-18.598 0-.638-.135-1.31.905-1.262 1.914.088 3.833-.085 5.748.088.7-.968.137-2.066.314-3.09.13-.755-.166-1.042-.963-1-1.226.065-2.458.017-3.688.017-2.334 0-2.255.003-2.177-2.2.09-2.576 1.735-3.667 3.996-3.76 1.476-.063 2.86.576 4.325.36.343-1.272-.04-2.584.208-3.862zm-58.387 9.78c-1.628-.513-3.257-.507-4.886-.005.142.535.072 1.08.072 1.62.005 7.302 0 14.603.01 21.905 0 .533-.134 1.086.133 1.6h4.453c.258-.46.133-.962.134-1.443.01-5.053 0-10.106.015-15.16 0-.472-.166-.983.176-1.42.145-.012.348.034.426-.045 1.87-1.888 4.16-2.495 6.753-2.352.615.034 1.357.356 1.898-.295-.242-1.48.13-2.986-.207-4.46-2.16-.658-4.137-.236-6.056.885-.973.568-1.71 1.5-2.842 1.806-.323-.87-.14-1.756-.08-2.638zm217.34-10.34c-.184-.052-.272.047-.322.207-.215.366-.13.77-.13 1.157-.004 10.984-.004 21.97 0 32.953 0 .387-.09.79.138 1.154h4.452c.23-.362.137-.767.137-1.154.006-10.984.006-21.97 0-32.953 0-.388.087-.79-.128-1.157-.05-.158-.135-.26-.32-.208-1.275.158-2.55.158-3.825 0zm-96.933 13.317c0-3.316 0-3.266-3.39-3.324-1.1-.02-1.388.255-1.38 1.37.058 6.902.03 13.803.03 20.704 0 3.495 0 3.458 3.537 3.467.958.003 1.24-.242 1.226-1.218-.057-3.796-.023-7.592-.023-11.387v-9.613zm96.338-12.07c-.012 11.076-.013 22.154.006 33.23 0 .324-.297.803.277.994l-.008-35.265c-.5.235-.274.69-.274 1.04zm5.01 33.23c.02-11.076.02-22.154.006-33.23 0-.35.227-.805-.274-1.04l-.008 35.264c.574-.19.276-.67.277-.993zm-171.907-.465c.03-6.21.04-12.423 0-18.635-.006-.945.214-1.27 1.206-1.233 1.768.065 3.542-.024 5.314-.05-1.79-.497-3.623-.053-5.425-.232-1.158-.115-1.4.384-1.393 1.448.043 6.717.023 13.434.025 20.15.62-.377.27-.977.27-1.448zm-54.805 1.035c0 .21.04.382.29.414 0-7.9.004-15.8-.004-23.7 0-.478.145-.993-.213-1.425l-.072 24.71zm49.79-18.34c0 5.818-.01 11.635.016 17.453.002.426-.325.98.275 1.3 0-6.726-.02-13.452.025-20.18.007-1.082-.282-1.575-1.403-1.41-.426.063-.89-.11-1.27.224 2.355.19 2.355.19 2.355 2.613zm134.544 17.902c.016-5.64.014-11.28.004-16.918 0-.31.17-.706-.275-.892l-.008 18.662c.51-.143.28-.566.28-.852zm-179.318-.45c.037-5.574.04-11.148.05-16.722-.532.41-.32.998-.32 1.51-.014 5.504-.006 11.01-.004 16.514.6-.322.27-.875.274-1.302zm67.598-10.504c5.13-.027 10.258-.05 15.386-.076-.237-.227-.535-.22-.832-.22-5.086 0-10.173-.002-15.26 0-.384 0-.805-.082-1.07.328.593-.01 1.184-.028 1.776-.032zm60.742 1.817v-5.116a9.676 9.676 0 0 0 0 5.115zm-45.62 3.78c0 1.606 0 3.21.002 4.815a8.403 8.403 0 0 0-.002-4.814zm6.79 4.823c-.092-1.59.267-3.197-.203-4.77.006 1.593-.387 3.202.205 4.77zm155.004 2.25a8.12 8.12 0 0 0-4.11-.002c1.37.125 2.74.123 4.11 0zM327.632 271.54c.47-1.37.115-2.78.208-4.166-.603 1.36-.19 2.774-.208 4.166zm62.15 11.526c-1.272-.4-2.546-.37-3.82-.023l3.82.023zm192.643-.02a6.953 6.953 0 0 0-3.814-.002c1.272.125 2.543.123 3.815 0zm-16.86-16.56c-.002 1.208-.002 2.417-.003 3.626.47-1.21.465-2.418.002-3.627zm-151.777 16.58a5.488 5.488 0 0 0-3.53 0h3.53z"/><path d="M313.926 259.7c-.01.046-.005.105-.032.138-.048.057-.115.098-.174.146-.103-.98-.28-1.964.127-2.922.026.88.052 1.758.08 2.637zM96.042 280.07c-1.42 1.317-2.915 2.092-4.438 2.66-2.002.748-4.168.707-6.175-.077-3.783-1.478-4.964-4.697-5.038-8.38-.11-5.43-.003-10.865-.04-16.297-.005-.916.168-1.262 1.19-1.26 3.57.013 3.57-.032 3.57 3.6 0 3.804-.048 7.608.024 11.41.028 1.495.192 3.008.628 4.458.672 2.24 2.87 2.663 4.575 2.41 2.018-.3 3.665-1.46 5.297-2.612.563-.398.44-.935.44-1.457.006-5.482.04-10.965-.026-16.447-.013-1.137.31-1.38 1.394-1.362 3.376.056 3.377.008 3.377 3.348 0 6.964-.022 13.93.026 20.892.007 1.04-.256 1.437-1.3 1.287-.485-.07-.987-.012-1.48-.012-1.956.002-1.956.002-2.024-2.16zm87.61-4.52c.083-3.99-.123-7.984.108-11.975 1.15-1.23 2.6-2.065 4.134-2.612 3.05-1.088 5.654-.036 6.177 2.47.234 1.116.45 2.27.432 3.455-.057 3.947-.022 7.895-.022 11.843 0 3.54 0 3.49 3.487 3.53 1.07.012 1.286-.314 1.277-1.322-.05-5.674.033-11.35-.048-17.024-.034-2.364-.846-4.634-2.7-6.12-2.884-2.31-6.166-2.495-9.49-.847-1.066.528-2.072 1.174-3.087 1.754-.348-.645.348-1.772-.5-1.852-1.502-.142-3.08-.455-4.573.21.142.535.072 1.08.072 1.62.004 7.302 0 14.603.01 21.905 0 .533-.135 1.086.132 1.6h4.453c.31-2.205.09-4.42.136-6.632zM11.3 280.79c.34.53.9.696 1.454.85 1.697.475 3.397.938 5.096 1.406a19.51 19.51 0 0 1 3.813 0c2.29-.57 4.556-1.096 6.252-3.006 1.992-2.243 2.527-4.783 1.745-7.563-.706-2.51-2.632-3.84-5.082-4.468-2.003-.515-4.013-1.007-6.013-1.534-1.46-.384-2.317-1.386-2.49-2.85-.155-1.333.884-2.578 2.54-3.032 3.226-.884 6.125-.004 8.853 1.764.423.274.88 1.05 1.55.296a26.14 26.14 0 0 1 0-4.406c-.146-.183-.254-.45-.444-.536-3.802-1.737-7.835-2.308-11.788-1.074-5.444 1.7-6.73 6.687-4.857 10.816 1.004 2.213 3.043 3.21 5.285 3.81 1.912.512 3.887.76 5.758 1.456 1.363.508 1.988 1.467 1.968 2.866-.02 1.417-.76 2.338-2.082 2.816-3.83 1.388-7.08-.07-10.2-2.103-.51-.334-.902-.963-1.563-.272.25 1.58-.135 3.187.206 4.763zm224.066 0c.142.28.385.42.666.534 1.994.81 4.09 1.263 6.176 1.745a12.913 12.913 0 0 1 3.53 0c.754-.4 1.647-.565 2.412-.738 3.356-.76 5.023-2.934 5.823-6.044-.236-.983.12-2.007-.206-2.984-.036-.474-.085-.916-.26-1.394-1.013-2.746-3.367-3.548-5.846-4.194-1.72-.448-3.48-.763-5.164-1.316-1.772-.583-2.153-1.33-2.07-3.37.06-1.452 1.043-2.123 2.285-2.44 3.15-.807 6.02-.085 8.704 1.658.474.308.895 1.183 1.666.408a26.14 26.14 0 0 1 0-4.406c-.893-1.178-2.3-1.407-3.565-1.65-3.412-.652-6.84-1.037-10.133.688-3.3 1.73-4.395 4.525-3.996 8.037.32 2.81 2.033 4.44 4.613 5.463 2.266.898 4.715 1 6.97 1.91 2.295.927 2.866 3.423 1.016 5.065-1.367 1.212-3.13 1.38-4.793 1.162-2.456-.32-4.754-1.24-6.7-2.854-.468-.388-.87-.613-1.335-.038.25 1.576-.135 3.183.206 4.76zm-113.222 2.278c.864-.28 1.712-.715 2.594-.8 1.39-.132 2.518-.7 3.568-1.535-.25-1.578.136-3.184-.208-4.757-.323-.518-.558-.11-.805.08-1.428 1.11-2.935 2.102-4.742 2.433-3.41.623-6.847.19-8.432-4.434-.783-2.288-.937-4.59-.56-6.966.708-4.46 4.013-7.72 8.88-6.473 1.617.414 3.07 1.232 4.422 2.2.49.35.895.808 1.446.134-.25-1.58.135-3.186-.206-4.762-2.488-1.596-5.22-2.063-8.15-2.068-4.862-.007-8.905 3.01-10.566 7.303-1.157 2.99-1.033 6.067-.787 9.08.29 3.563 1.823 6.666 4.994 8.746 1.637 1.072 3.53 1.266 5.32 1.82a11.113 11.113 0 0 1 3.232-.002zm-51.12-2.028c.006-10.984.006-21.97 0-32.953 0-.388.087-.79-.128-1.157-.05-.158-.135-.26-.32-.208-1.275.158-2.55.158-3.825 0-.185-.05-.273.05-.323.208-.215.366-.13.77-.13 1.157-.004 10.984-.004 21.97 0 32.953 0 .387-.09.79.138 1.154h4.452c.23-.362.137-.767.137-1.154zm69.352-.308c.01-4.34-.012-8.682.012-13.023.02-3.55-.102-7.1.07-10.648-1.627-.513-3.256-.506-4.885-.004.142.535.072 1.08.072 1.62.005 7.302 0 14.603.01 21.905 0 .533-.134 1.086.133 1.6h4.453c.26-.463.134-.967.135-1.45zm-74.22-32.763c-.014 11.076-.015 22.154.004 33.23 0 .324-.297.803.276.994l-.008-35.264c-.5.235-.273.69-.273 1.04zm5.01 33.23c.018-11.076.017-22.154.004-33.23 0-.35.227-.805-.273-1.04l-.01 35.264c.574-.19.276-.67.277-.993zm107.607.57c0 .21.04.383.29.414 0-7.9.004-15.8-.003-23.7 0-.478.145-.993-.213-1.425-.026 8.236-.05 16.473-.075 24.71zm-38.253-.592c-.006-8.038-.035-16.077-.06-24.115-.36.43-.214.946-.214 1.425-.008 7.9-.004 15.798-.003 23.696.555-.203.277-.676.277-1.006zm-5.02.592c0 .21.04.383.29.414 0-7.9.004-15.8-.003-23.7 0-.478.144-.993-.214-1.425l-.073 24.71zm48.303-.148c-.012-6.016-.03-12.03-.045-18.047-.42.463-.238 1.03-.24 1.55-.01 5.685-.005 11.372-.003 17.058.353-.054.288-.334.288-.56zm-148.2-9.426c-.09-1.686.26-3.39-.206-5.06 0 1.69-.37 3.394.205 5.06zm199.763 8.595c-.1-1.585.27-3.192-.206-4.762.006 1.59-.393 3.198.206 4.763zm-6.794-4.814c0 1.607.003 3.214.004 4.82.46-1.606.47-3.213-.004-4.82zm-100.474 0c.107 1.584-.27 3.19.208 4.757-.008-1.588.396-3.195-.208-4.757zm-106.434 7.07a6.95 6.95 0 0 0-3.813 0c1.27.125 2.542.123 3.813 0zm200.065.022a6.368 6.368 0 0 0-3.824 0h3.825zm24.01 0a5.488 5.488 0 0 0-3.53 0h3.53zm-39.032-11.823c.47-1.067.112-2.186.207-3.277-.57 1.06-.204 2.18-.207 3.277zm-84.562 11.823a4.652 4.652 0 0 0-3.233 0h3.233z"/><path d="M253.975 276.287c-.438-.97-.13-1.99-.206-2.984.596.958.194 1.985.205 2.984zM488.25 264.76c.393.874.355 1.752.022 2.632l-.023-2.632zM299.356 175.857c.36-4.48 1.072-8.91 1.87-13.312 1.323-7.316 3.092-14.528 6.255-21.323.896-1.923.766-2.122-1.08-3.258-2.7-1.662-5.706-1.78-8.705-1.504-2.197.202-3.5 1.877-4.448 3.695-.42.804-.743.214-.987.09-4.64-2.354-9.46-3.954-14.696-4.485-4.562-.462-9.027-.232-13.44.827-6.01 1.443-11.31 4.372-15.88 8.496-4.843 4.373-8.762 9.505-11.807 15.3-5.21 9.913-8.387 20.276-7.294 31.644.295 3.067.82 6.033 2.043 8.908 2.506 5.893 6.79 9.464 13.162 10.127 6.058.63 11.618-1.113 16.673-4.433 3.22-2.114 6.17-4.52 8.943-7.25a106.59 106.59 0 0 0 6.806-7.397c3.007-3.577 5.632-7.466 8.35-11.316-.585 1.545-.41 3.188-.447 4.717-.098 3.978-.98 7.916-.44 11.936.302 2.24.47 4.49 1.247 6.622 2.663 7.293 10.415 7.816 15.265 4.18.925-.693 1.12-1.43.657-2.596-2.013-5.064-2.7-10.397-2.885-15.805-.053-1.56.16-3.118.23-4.67.145-3.073.363-6.13.61-9.193zm-10.405-20.114c-1.406 5.987-4.09 11.433-7.292 16.658-3.934 6.42-8.768 12.093-14.276 17.18-3.604 3.326-7.6 6.147-12.44 7.436-5.41 1.44-8.978-.606-10.64-6.763-.475-1.765-.736-3.605-.63-5.203.212-7.72 1.743-14.88 4.74-21.737 2.212-5.058 4.965-9.79 8.962-13.59a16.547 16.547 0 0 1 9.103-4.422c6.034-.874 11.44.812 16.608 3.816 2.016 1.172 3.706 2.733 5.622 4.003 1.217.805.42 1.877.244 2.623zM472.19 156.625c-.865-4.373-2.502-8.41-5.415-11.83-5.34-6.263-12.34-8.98-20.394-9.242-2.19-.07-4.385-.03-6.598.21-4.565.5-8.913 1.644-13.056 3.572-6.128 2.852-11.273 6.962-15.69 12.086-2.554 2.966-4.867 6.07-6.753 9.48-3.792 6.85-5.746 14.19-5.612 22.667-.174 4.78.83 9.87 3.506 14.636 3.004 5.353 7.405 9 13.09 11.107 5.383 1.997 10.957 2.092 16.618 1.53 4.577-.457 8.915-1.685 13.03-3.62 5.268-2.478 9.758-6.02 13.772-10.267 4.475-4.734 8.096-9.95 10.634-15.964 2.077-4.923 3.087-10.057 3.438-15.334.2-3.02.02-6.047-.57-9.03zM457.063 169.2c-.428 8.01-2.212 15.64-6.824 22.36-3.36 4.9-7.697 8.652-13.66 9.902-5.994 1.257-11.697.652-16.187-4.11-3.034-3.215-4.627-7.186-5.403-11.5-.43-2.4-.74-4.81-.615-6.597.012-8.13 1.41-15.3 5.095-21.85 3.176-5.645 7.425-10.258 13.872-12.216 5.252-1.596 10.444-1.48 15.16 1.63 4.41 2.91 6.554 7.397 7.655 12.39.723 3.274 1.087 6.625.907 9.99zM301.398 266.547c-.194-.407-.167-.85-.233-1.28-.495-3.198-1.712-6.005-4.468-7.94-3.318-2.327-8.12-1.545-11.48 1-.253.192-.4.61-.644.49-.692-.672.274-1.895-.686-1.987-1.395-.133-2.884-.453-4.27.228.143.535.073 1.08.073 1.62.005 10.367.005 20.734 0 31.1 0 .54.07 1.086-.073 1.62.87.658 1.875.15 2.8.32 1.535.283 1.98-.328 1.903-1.87-.136-2.718-.038-5.448-.038-8.174.098-.07.196-.143.294-.214.787 1.13 2.076.916 3.12 1.24 3.91 1.22 8.496-.376 11.05-3.935 1.617-2.25 2.26-4.837 2.65-7.516a29.408 29.408 0 0 1 .002-4.703zm-5.848 8.136c-1.09 2.907-4.195 4.523-7.255 3.765-4.012-.995-4.012-.995-4.012-5.017v-3.257c0-1.974.014-3.95-.008-5.923-.007-.635.163-.99.764-1.388 1.34-.888 2.66-1.675 4.274-2.034 3.19-.71 5.587.453 6.457 3.544.968 3.43 1.058 6.9-.22 10.31zM521.315 263.583c-.073-.23-.188-.458-.21-.694-.276-2.787-1.594-4.828-4.254-5.86-3.835-1.49-7.777-1.075-11.67-.397-2.49.433-2.46.597-2.46 3.115 0 .494.002.988 0 1.482-.005.68.12 1.017.952.68 1.7-.693 3.47-1.194 5.285-1.474 2.002-.31 4-.28 5.84.715 1.17.635 1.958 2.385 1.51 3.667-.413 1.178-1.605.825-2.506.8-1.914-.05-3.797.19-5.634.64-5.027 1.24-7.933 3.81-7.502 9.61.197 2.653 1.41 4.882 3.82 6.173 2.683 1.44 5.414 1.59 8.324.286 1.185-.53 2.227-1.253 3.542-2.005-.41 1.95.61 2.07 1.938 1.927.928-.1 1.873-.05 2.81-.065 0-5.725-.006-11.45.003-17.176.002-.477-.146-.993.215-1.423zm-4.914 12.12c-1.755 1.788-3.786 2.985-6.382 2.975-2.248-.01-3.983-1.184-4.315-2.93-.445-2.337.606-4.243 2.875-5.088 2.49-.927 5.097-1.157 7.732-1.16.616 2.058.443 4.13.09 6.202z"/><path d="M521.315 263.583c-.177 5.667-.024 11.335-.083 17.002-.006.533.134 1.085-.134 1.598.25-.03.29-.205.29-.414-.026-6.062-.05-12.125-.073-18.187zM516.31 269.5l.09 6.202c.104-2.07.272-4.14-.09-6.203zM565.564 266.487c.034-4.432-1.635-7.918-5.838-9.725-1.943-.835-4.02-1.037-6.243-.676-3.902.634-6.706 2.55-8.54 5.99-2.05 3.846-2.05 7.962-1.208 12.042.742 3.598 2.902 6.34 6.373 7.787 1.327.554 2.796.77 4.2 1.14a22.57 22.57 0 0 1 4.11 0c.885-.27 1.756-.7 2.66-.785 3.427-.328 4.178-1.06 4.178-4.355 0-.345.03-.694-.008-1.035-.042-.365.206-.843-.247-1.067-.442-.22-.7.212-1.017.42-2.76 1.826-5.775 2.797-9.098 2.43-1.948-.217-3.65-.937-4.96-2.592-1.346-1.7-1.46-3.694-1.85-5.65.942-.41 1.932-.175 2.893-.17 4.758.03 9.518-.144 14.275.083.186.05.274-.05.322-.21a10.203 10.203 0 0 0 0-3.626zm-4.616.038c-3.88 0-7.82-.023-11.76.018-.824.01-.912-.41-.805-.993.71-3.886 4.076-5.93 7.778-5.39 3.08.448 4.44 2.342 4.63 5.32.022.342.447.564.158 1.045zM396.888 270.302c.686-1.535.313-3.16.282-4.723-.05-2.517-.94-4.817-2.702-6.664-2.606-2.732-5.853-3.273-9.473-2.792-3.83.51-6.587 2.455-8.4 5.778-1.672 3.068-1.93 6.38-1.643 9.82.333 3.976 1.817 7.194 5.255 9.42 1.772 1.15 3.825 1.31 5.755 1.904 1.274-.106 2.548-.156 3.82.023.898-.28 1.784-.737 2.697-.796 1.556-.1 2.855-.738 4.147-1.483.212-1.604.22-3.208-.002-4.813-.69-.568-1.04.17-1.437.442-2.764 1.89-5.856 2.688-9.105 2.205-3.772-.562-6.19-3.078-6.355-8.212.12-.078.223-.18.39-.178 5.59.027 11.18-.103 16.77.067zm-13.103-9.693c2.793-1.19 6.634-.44 7.74 1.88.344.722.686 1.46.895 2.226.39 1.425.057 1.808-1.426 1.81h-11.222c.404-2.718 1.46-4.83 4.013-5.917zM212.172 270.09c5.473.008 10.946.034 16.42.06.082 0 .164.1.246.152.694-2.39.372-4.768-.185-7.108-1.484-6.237-7.572-8.195-13.168-6.857-4.887 1.17-8.68 6.353-8.57 11.63-.334 1.076.034 2.195-.207 3.277.073.33.18.655.216.99.46 4.272 2.28 7.667 6.318 9.54 1.467.68 3.083.955 4.664 1.293a15.492 15.492 0 0 1 3.825 0c.9-.278 1.78-.66 2.697-.81 1.48-.246 2.886-.633 4.15-1.46.205-1.608.22-3.215-.004-4.822-.432-.6-.897-.03-1.088.138-.833.732-1.844 1.12-2.807 1.572-2.556 1.196-5.29 1.43-7.95.643-3.413-1.007-4.674-3.798-5.11-7.074-.39-.66-.365-1.164.554-1.163zm-.257-5.018c1.156-4.58 6.754-6.476 10.41-3.854 1.56 1.117 1.924 2.92 2.07 4.736.06.756-.522.56-.915.565-1.824.015-3.647.006-5.47.006-1.628 0-3.257-.064-4.88.02-1.2.064-1.568-.075-1.215-1.474z"/><path d="M212.86 270.373c5.326-.018 10.653-.046 15.98-.07-5.504-.176-11.01-.027-16.513-.08-.786-.01-.927.376-.71 1.032-.092-1.01.603-.88 1.243-.882zM350.366 265.345c-1.296-7.333-7.79-10.596-14.33-8.997-4.843 1.185-8.316 6.247-8.196 11.027-.344 1.375.044 2.787-.208 4.166.073.28.193.56.213.843.362 5.268 3.34 9.113 8.447 10.423 2.38.61 4.752.44 7.248-.453 3.622-1.294 5.482-3.83 6.504-7.184.98-3.213.903-6.54.322-9.825zm-5.29 9.11c-.668 2.558-3.235 4.65-5.88 4.49-3.092-.19-4.89-1.333-5.936-4.574-.502-1.554-.822-3.19-.688-4.456.028-2.852.297-5.266 1.76-7.308 1.496-2.086 3.748-2.648 6.132-2.26 2.326.38 3.915 1.88 4.565 4.17.934 3.293.92 6.59.046 9.938zM171.285 268.03c-.073-.33-.196-.658-.213-.99-.323-6.27-5.16-11.986-12.955-10.93-4.6.625-7.468 3.053-9.04 7.3-.954 2.585-1.043 5.233-.83 7.923.393 4.957 1.878 9.053 7.167 10.992 3.845 1.41 7.37 1.108 10.68-.95 3.642-2.264 4.91-5.926 4.984-10.07.095-1.09-.262-2.21.207-3.276zm-6.44 8.098c-1.88 3.408-7.79 4.187-10.303-.07-1.406-2.38-1.76-5.112-1.33-7.958.224-1.482.342-2.95.937-4.35.88-2.075 2.49-3.197 4.652-3.425 2.546-.268 4.712.45 6.09 2.83 1.185 2.045 1.22 4.32 1.497 6.515-.28 2.25-.432 4.44-1.545 6.458z"/><path d="M171.285 268.03c-.24 1.08.127 2.2-.207 3.276.57-1.06.204-2.18.207-3.277zM57.928 264.728c-.55-2.634-1.794-4.867-4.025-6.52-2.683-1.988-5.606-2.54-8.89-2.093-3.172.43-5.504 2.033-7.32 4.52-1.406 1.924-1.96 4.182-2.295 6.5.254 1.68-.138 3.385.206 5.06.172 4.1 1.946 7.353 5.402 9.534 2.052 1.293 4.423 1.557 6.854 1.405 3.912-.244 6.923-1.892 8.81-5.395 2.237-4.157 2.19-8.556 1.258-13.012zm-4.476 7.12c-.442 2.43-1.005 4.85-3.327 6.214-3.405 2-8.15.87-9.383-4.546-.64-2.81-.65-5.672.2-8.5.987-3.278 3.16-4.962 6.625-4.682 3.132.253 4.488 1.722 5.508 5.09.223.736.254 1.53.373 2.297a18.43 18.43 0 0 1 .004 4.128z"/><path d="M53.452 271.848c0-1.376-.002-2.75-.003-4.127a7.39 7.39 0 0 1 .002 4.128z"/><g><path d="M464.783 265.692c-.82-5.872-5.678-10.405-12.875-9.633-5.476.586-9.82 6.138-9.664 11.02a20.37 20.37 0 0 0 0 5.115c.17 4.105 1.95 7.357 5.407 9.538 2.055 1.295 4.43 1.568 6.86 1.4 3.893-.27 6.893-1.9 8.813-5.403 2.1-3.832 2.037-7.897 1.46-12.038zm-4.692 6.157c-.44 2.43-1.004 4.85-3.324 6.213-3.36 1.975-8.19.855-9.388-4.55-.623-2.813-.645-5.673.204-8.498.985-3.276 3.162-4.96 6.627-4.68 3.13.256 4.485 1.723 5.504 5.09.223.737.254 1.53.373 2.297a7.38 7.38 0 0 1 .004 4.127z"/><path d="M460.088 267.722c0 1.376.002 2.75.003 4.127a18.49 18.49 0 0 0-.002-4.128z"/></g><path d="M157.248 144.533c-6.552 1.153-11.206 5.057-14.84 10.36-4.94 7.216-6.657 15.358-6.72 25.036-.05 1.095.087 3.262.462 5.4.28 1.595.634 3.192 1.128 4.733 2.982 9.314 10.27 13.737 19.856 12.133 6.386-1.07 11.137-4.687 14.648-9.875 7.482-11.053 9-23.255 5.363-35.853-2.757-9.553-10.383-13.608-19.897-11.934z"/><path d="M220 167.522a12.11 12.11 0 0 0-2.068-2.072c-.19-.222-.363-.458-.57-.664a256147.948 256147.948 0 0 0-52.122-52.124c-.205-.205-.44-.378-.662-.567l-1.183-1.184-1.802-1.803-.294-.304c-.04-.164-.116-.272-.31-.21l-.89-.6c-.2-.1-.398-.2-.597-.302-.29-.02-.58-.044-.872-.066-.204-.42-.594-.195-.9-.257-.318-.448-.764-.27-1.18-.245l-1.178-.003-.89.297c-.25-.05-.48-.05-.613.222-.73.026-1.367.234-1.784.887-.886.15-1.268.908-1.796 1.49-.363.33-.742.644-1.088.99a104189.864 104189.864 0 0 0-37.888 37.92c-5.682 5.69-11.35 11.395-17.025 17.093a8.923 8.923 0 0 0-1.794 1.796c-.47.318-.874.7-1.172 1.188a1.94 1.94 0 0 0-.608 1.18c-.393.194-.217.57-.28.87-.568.862-.06 1.807-.21 2.7-.102.68.155 1.255.51 1.803.01.095.034.187.07.276l.503.894c.06.216-.046.513.287.598l.088.283c.295.673.882 1.07 1.42 1.514l1.183 1.182 5.635 5.635 15.103 15.09c.498.5.997.997 1.495 1.495.326.363.633.742.977 1.086 7.06 7.066 14.118 14.134 21.19 21.187 3.466 3.457 6.96 6.887 10.44 10.33.604.693 1.147 1.457 2.077 1.768.24.598.793.826 1.316 1.06 1.49.67 3.017.84 4.68.868 1.93.03 3.544-.446 4.83-1.695 7.617-7.396 14.965-15.06 22.664-22.377 5.558-5.28 10.874-10.817 16.298-16.24 6.506-6.507 13.012-13.012 19.516-19.52 3.078-3.077 2.947-8.737-.507-11.468zm-38.83 28.292c-6.247 6.972-13.697 11.964-22.88 14.157-3.217.77-6.49 1.153-8.478 1.138-7.196-.004-12.81-1.014-17.793-4.336-7.468-4.978-10.94-12.167-11.422-20.957-.72-13.094 3.768-24.328 12.325-34.055 7.194-8.177 15.924-13.766 26.887-15.288 6.927-.962 13.78-.703 20.206 2.484 8.752 4.34 13.09 11.7 13.877 21.202 1.14 13.765-3.62 25.494-12.724 35.656z"/></svg>