<svg xmlns="http://www.w3.org/2000/svg" viewBox="0 0 226.5 226.1"><path d="M34.58 21.99c-6.94 0-12.54 5.6-12.54 12.54v61.25c0 6.92 5.63 12.52 12.54 12.52h61.26c6.96 0 12.56-5.6 12.56-12.52V34.53c0-6.94-5.6-12.54-12.56-12.54H34.58zm96.82 0c-6.9 0-12.6 5.6-12.6 12.54v61.25c0 6.92 5.7 12.52 12.6 12.52h61.2c7 0 12.6-5.6 12.6-12.52V34.53c0-6.94-5.6-12.54-12.6-12.54h-61.2zm30.5 25.55c5.3 0 9.7 1.67 13.2 5.02 3.5 3.35 5.3 7.54 5.3 12.58s-1.8 9.22-5.3 12.52c-3.6 3.31-8.1 4.96-13.5 4.96-5.1 0-9.4-1.65-12.8-4.96-3.5-3.3-5.2-7.44-5.2-12.42 0-5.11 1.8-9.33 5.2-12.68 3.5-3.35 7.8-5.02 13.1-5.02zm-94.58 0c3.18 0 6.68.73 10.49 2.21.66.25 1.49 1.18 1.49 2.16a2.31 2.31 0 0 1-2.31 2.31c-.36 0-.74-.14-1.04-.28-2.86-1.2-5.62-1.76-8.39-1.76-3.91 0-7.16 1.24-9.75 3.71-2.57 2.47-3.87 5.57-3.87 9.29 0 3.75 1.28 6.83 3.81 9.25 2.54 2.41 5.8 3.62 9.77 3.62 3.01 0 5.96-.67 8.87-2.01 0 0 .61-.2.94-.2 1.29 0 2.34 1.05 2.34 2.35 0 .93-.58 1.83-1.52 2.18-3.22 1.45-6.89 2.19-10.93 2.19-3.82 0-7.06-.76-9.71-2.29a17.063 17.063 0 0 1-6.31-6.34c-1.55-2.7-2.32-5.61-2.32-8.74 0-4.98 1.77-9.17 5.32-12.56 3.54-3.4 7.91-5.09 13.12-5.09zm94.88 4.61c-3.9 0-7.1 1.23-9.7 3.68-2.5 2.44-3.7 5.57-3.7 9.37 0 3.69 1.2 6.75 3.8 9.2 2.5 2.45 5.7 3.68 9.4 3.68 3.9 0 7.1-1.25 9.6-3.75 2.6-2.5 3.8-5.6 3.8-9.33 0-3.62-1.2-6.67-3.8-9.14-2.5-2.47-5.7-3.71-9.4-3.71zM34.58 117.8c-6.94 0-12.54 5.6-12.54 12.5v61.3c0 6.9 5.63 12.5 12.54 12.5h61.26c6.96 0 12.56-5.6 12.56-12.5v-61.3c0-6.9-5.6-12.5-12.56-12.5H34.58zm96.82 0c-6.9 0-12.6 5.6-12.6 12.5v61.3c0 6.9 5.7 12.5 12.6 12.5h61.2c7 0 12.6-5.6 12.6-12.5v-61.3c0-6.9-5.6-12.5-12.6-12.5h-61.2zm-78.43 25.9h9.9c4.65 0 8.33.6 11.04 2.1 2.71 1.4 4.86 3.4 6.46 6.1 1.6 2.7 2.4 5.7 2.4 8.9 0 2.2-.44 4.4-1.32 6.5-.88 2.1-2.14 4-3.77 5.5-1.67 1.7-3.6 2.9-5.8 3.7-1.29.5-2.47.9-3.55 1-1.08.3-3.14.3-6.17.3h-9.21c-1.02 0-1.6-.8-1.6-1.5v-31.1c0-.9.68-1.5 1.62-1.5zm100.73 0h15.6c1.2 0 2.2 1 2.2 2.2 0 1.2-1 2.2-2.2 2.2h-12.2v10.4h11.8c1.2 0 2.2 1 2.2 2.2 0 1.2-1 2.2-2.2 2.2h-11.8v10.6h12.7c1.2 0 2.2.9 2.2 2.1 0 1.2-1 2.2-2.2 2.2h-16.1c-.8 0-1.6-.7-1.6-1.5v-31.1c0-.8.7-1.5 1.6-1.5zM56.24 148v25.5h6.26c2.45 0 4.35-.3 5.71-.6 1.35-.3 2.48-.7 3.39-1.2.9-.5 1.73-1.2 2.48-1.9 2.42-2.5 3.62-5.6 3.62-9.3 0-3.7-1.24-6.7-3.72-9-.91-.8-1.96-1.6-3.14-2.1-1.19-.6-2.31-.9-3.37-1.1-1.06-.3-2.76-.3-5.11-.3h-6.12z"/></svg>