<svg xmlns="http://www.w3.org/2000/svg" viewBox="0 0 1024 452.2"><path class="st0" d="M202.4 290.5h-1.7c-10.4-.4-18.2-1.4-25.3-3.4-7.8-2.3-14.9-5.8-21.3-10.4-12.5-8.6-22.1-19.8-28.6-33.1-.9-1.8-1.7-3.6-2.5-5.6l-.3-.7h57.6l.1.1c5.5 3.6 12.6 5.4 20.3 5.5 9.4 0 17.9-2.8 21.8-5.4l2.8-1.9.3.4c5.2 7.7 24.1 34.9 24.3 35.1l.2.3-.2.3c-6.3 8.7-28.3 18.8-47.5 18.8zm-83.3-64.3l-.1-.4c-1.6-6.3-2.7-13.2-3.1-20.4v-.5h48.5v.5c.6 7.9 2.3 14.6 5.2 20.1l.4.7h-50.9zm-3.2-32.5v-.5c.3-7.2 1.3-14 2.8-20.4l.1-.4h50.9l-.4.7c-2.7 5.5-4.3 12.2-4.9 20.1v.5h-48.5zm6.6-32.5l.3-.7c4-10 10-19.3 17.9-27.9 7.8-8.3 16.8-14.8 26.8-19.2 9.8-4.2 21-6.3 33.2-6.3 7.3 0 14.6.9 21.5 2.8 6.9 1.8 14.2 4.6 21.7 8.2l.5.2-.2.5c-.2.3-16.9 31.9-23.3 41.5l-.2.4-.4-.2c-2.6-1.4-11.7-4.4-21.4-4.4-7.4 0-13.8 1.7-19 5l-.1.1h-57.3z"/><path class="st1" d="M200.7 107.7c7.3 0 14.4.9 21.4 2.7 7 1.8 14.2 4.6 21.6 8.2 0 0-16.8 31.8-23.3 41.4-2.5-1.3-11.5-4.5-21.7-4.5-6.4 0-13.3 1.3-19.3 5.1h-56.3c4-9.9 9.9-19.2 17.8-27.7 7.8-8.3 16.7-14.7 26.7-19.1 9.9-4 20.9-6.1 33.1-6.1m-31.8 65.2c-2.6 5.2-4.3 11.8-4.9 20.3h-47.6c.3-7.2 1.3-13.9 2.8-20.3h49.7m-4.9 32.5c.6 8.4 2.5 15 5.3 20.3h-49.7c-1.7-6.4-2.7-13.2-3-20.3H164m61.2 30.9c5.3 7.7 24.3 35.1 24.3 35.1-6.2 8.7-28.3 18.6-47 18.6h-1.7c-8.8-.3-17.2-1.1-25.2-3.4-7.7-2.3-14.8-5.7-21.2-10.3-12.5-8.6-21.9-19.6-28.4-32.9-.9-1.8-1.7-3.6-2.5-5.5h56.8c6.3 4 13.6 5.5 20.5 5.5 9.4 0 17.9-2.7 22.1-5.5l2.3-1.6m-24.5-129.6c-12.3 0-23.5 2.1-33.4 6.3-10.1 4.4-19.1 10.9-27 19.3-7.9 8.6-14 18-18 28l-.6 1.4H179.8l.2-.2c5.1-3.3 11.4-5 18.7-5 9.7 0 18.6 3 21.2 4.4l.8.4.5-.8c6.4-9.6 23.1-41.2 23.3-41.5l.5-.9-.9-.5c-7.5-3.7-14.8-6.5-21.8-8.3a90.6 90.6 0 0 0-21.6-2.6zm-30.2 65.2h-52.1l-.2.8c-1.6 6.4-2.5 13.3-2.9 20.5v1h49.6l.1-.9c.5-7.8 2.2-14.5 4.8-19.9l.7-1.5zm-5.6 32.5h-49.5l.1 1.1c.4 7.2 1.4 14.1 3.1 20.5l.2.8H171l-.8-1.5c-2.8-5.4-4.6-12.1-5.1-19.9l-.2-1zm60.5 30.5l-.8.6-2.4 1.6c-3.8 2.6-12.1 5.4-21.5 5.4-7.6 0-14.5-1.9-20-5.4l-.2-.2H122l.6 1.4c.8 1.9 1.6 3.7 2.5 5.6 6.5 13.4 16.2 24.6 28.7 33.3 6.4 4.6 13.7 8.2 21.5 10.4 7.2 2 15 3.1 25.4 3.4h1.8c8.9 0 19-2.2 28.6-6.1 9-3.7 16.1-8.4 19.2-12.9l.4-.6-.4-.6c-.2-.3-19.1-27.5-24.3-35.1l-.6-.8z"/><path class="st0" d="M668.9 296.8l.5-.4c.2-.2 23-18.3 19.5-58.4v-.5h59.7l.1.4c4.3 24.2 1.5 40.8-10.3 60.9-17 29.1-18.9 31.1-19 31.1l-.3.3-50.2-33.4zm-331.3-5c-32.2 0-61.7-21.1-75.3-53.7l-.3-.7h151.1l-.3.7c-13.4 32.6-43 53.7-75.2 53.7zm184.2-1.3l-.2-53.1h45.7v53.1h-45.5zm240.9-1.3l12.5-51.9h141.3l14.4 50.7H884l-8-24.6h-57.2l-6.3 25.7h-49.8zm-153.1 0l-34.4-51.8h77.1v51.8h-42.7zm-166.9 0v-51.8h44.6v51.8h-44.6zm420-63l-6.5-21.3h51.1l6 21.3h-50.6zm-84.8 0l5.2-21.3h49.7l-5 21.3h-49.9zm-90.5 0l-.1-.4c-.9-4.7-2.2-9.5-3.7-14.2l-2-6.7h58.9l.1.4c2.3 7.6 4.1 14.2 5.6 20.3l.2.6h-59zm-119.7 0l-.5-.8v.8h-45.7l-.1-21.3h130.8v21.3h-84.5zm-125 0v-21.3h44.6v21.3h-44.6zm-82.1 0l.8-.8c5-5.5 8.3-12.4 9.4-20l.1-.4h49.5v.5c-.4 6.9-1.5 13.7-3.3 20.4l-.1.4h-56.4zm-102.3 0l-.1-.4c-1.8-6.7-2.9-13.5-3.3-20.4v-.5h49.5l.1.4c1.1 7.6 4.4 14.5 9.4 20l.8.8h-56.4zm594.5-32.5l-6.5-21.3h51.9l6 21.3h-51.4zm-67 0l5.1-21.3h49.6l-5 21.3h-49.7zm-107.4 0l-.1-.4c-2-7.4-3.5-14.1-4.7-20.3l-.1-.6h59.6v.5c.5 7 1.7 13.7 3.6 20.2l.2.6h-58.5zm-157 0l-.1-21.3h130.9v21.3H521.4zm-78.7 0v-21.3h44.6v21.3h-44.6zm-71.9 0l-.1-.4c-1.2-7.6-4.4-14.6-9.4-20l-.8-.8h56.3l.1.4c1.8 6.7 2.9 13.6 3.3 20.4v.5h-49.4zm-115.9 0v-.5c.4-6.8 1.5-13.7 3.3-20.4l.1-.4h56.4l-.8.8c-5 5.5-8.3 12.4-9.4 20l-.1.4h-49.5zm186.8-31.8V160H426l20.4-51.8h40V162h-44.7zm352.6-.7v-2.1h-19.6l28.9-52.6h75.9l15.5 54.7H794.3zm-122.5 0l-.1-.4c-2.8-24 .4-42 10.8-60.3 13.6-23.9 26.9-43.5 27.1-43.7l.3-.4 46.7 35.5-.3.4c-.2.3-21.3 31.2-23.2 68.5v.5h-61.3zm-66.9 0v-54.4h47.4v54.4h-47.4zm-83.7 0v-1.9h-19.5l17.7-51.9h41.9l37.1 53.8h-77.2zm-259.2 0l.3-.7c13.5-32.6 43-53.7 75.3-53.7 32.2 0 61.8 21.1 75.3 53.7l.3.7H262z"/><path class="st1" d="M710 57.1L755.9 92s-21.3 30.9-23.3 68.8h-60.3c-3.2-26.9 1.6-44 10.7-60 13.6-24.3 27-43.7 27-43.7M879.2 107l15.2 53.7h-99.6v-2.1h-19.2L804 107h75.2m-227.4.3v53.4h-46.4v-53.4h46.4m-314.2 0c33.2 0 61.8 21.9 74.8 53.4H262.8c13-31.5 41.7-53.4 74.8-53.4m223.4.7l36.4 52.8h-75.7v-1.9h-19.3l17.3-50.9H561m-75.1.6v52.8h-43.6v-1.9h-15.6l20-50.8h39.2m411.9 64.2l5.7 20.3h-50.4l-6.2-20.3h50.9m-58 0l-4.8 20.3h-48.6l4.9-20.3h48.5m-107.1 0c.4 6.7 1.6 13.5 3.6 20.3h-57.5c-1.9-7.3-3.5-14-4.6-20.3h58.5m-80.9 0v20.3H521.9l-.1-20.3h130m-164.9 0v20.3h-43.6v-20.3h43.6m-70.4 0c1.7 6.5 2.9 13.3 3.3 20.3h-48.6c-1.2-7.9-4.6-14.9-9.5-20.3h54.8m-103 0c-4.9 5.4-8.4 12.4-9.5 20.3h-48.6c.4-7 1.5-13.8 3.2-20.3h54.9M907 205.4l5.8 20.3h-49.6l-6.2-20.3h50m-74.8 0l-4.8 20.3h-48.8l4.9-20.3h48.7m-92.2 0c2.2 7.4 4.1 14.1 5.6 20.3h-57.9c-.9-4.5-2.1-9.3-3.7-14.3l-1.8-6H740m-88.2 0v20.3H568l-1.3-1.9v1.9H522l-.1-20.3h129.9m-164.9 0v20.3h-43.6v-20.3h43.6m-67.1 0c-.4 7-1.5 13.8-3.3 20.3h-54.8c4.9-5.4 8.4-12.4 9.5-20.3h48.6m-115.8 0c1.2 7.9 4.6 14.9 9.5 20.3h-54.9c-1.7-6.5-2.8-13.3-3.2-20.3H304m612.2 32.5l14.1 49.7h-45.9l-8-24.6h-57.9l-6.3 25.7h-48.8l12.3-50.9h140.5m-168 .1c4.3 24.4 1.3 40.9-10.2 60.6-17.1 29.3-18.9 31-18.9 31l-49.3-32.8s23.2-18 19.7-58.9h58.7m-96.4.1v50.8h-41.9l-33.8-50.8h75.7m-85 0V290h-44.4l-.2-52.1h44.6m-79.9 0v50.8h-43.6v-50.8h43.6m-74.5 0c-13 31.5-41.7 53.4-74.8 53.4-33.1 0-61.7-21.9-74.8-53.4h149.6M709.7 55.7l-.6.9c-.1.2-13.5 19.7-27.1 43.7-10.4 18.4-13.7 36.5-10.8 60.6l.1.9H733.4v-.9c2-37.2 22.9-67.9 23.1-68.3l.5-.8-.8-.6-45.9-34.9-.6-.6zM879.9 106h-76.6l-.3.5-28.4 51.6-.8 1.5h19.9v2.1H895.6l-.4-1.3-15.2-53.7-.1-.7zm-227.1.3h-48.4v55.4h48.4v-55.4zm-315.2 0c-16.2 0-32 5.2-45.5 15.1-13.2 9.6-23.6 23.1-30.2 39l-.6 1.4h152.6l-.6-1.4c-6.6-15.9-17-29.4-30.2-39-13.5-9.9-29.3-15.1-45.5-15.1zm223.9.7H519l-.2.7-17.3 50.9-.5 1.3h19.7v1.9H599.3l-1.1-1.6-36.4-52.8-.3-.4zm-74.6.6H446l-.2.6-20 50.8-.5 1.4h16.1v1.9H487V107.6h-.1zm411.7 64.3H845.6l.4 1.3 6.2 20.3.2.7h52.4l-.4-1.3-5.7-20.3-.1-.7zm-57.5 0H790.5l-.2.8-4.9 20.3-.3 1.2H835.8l.2-.8 4.8-20.3.3-1.2zm-107.5 0h-60.7l.2 1.2c1.2 6.3 2.7 12.9 4.7 20.4l.2.7H737.6l-.4-1.3c-1.9-6.4-3.1-13.2-3.6-20.1v-.9zm-80.8 0h-132v1l.1 20.3v1h131.9v-22.3zm-164.9 0h-45.6v22.3h45.6v-22.3zm-70.6 0H359.4l1.5 1.7c4.9 5.4 8.2 12.2 9.3 19.8l.1.8h50.6l-.1-1.1c-.4-6.9-1.5-13.8-3.3-20.5l-.2-.7zm-101.5 0H257.8l-.2.7c-1.8 6.7-2.9 13.6-3.3 20.5l-.1 1.1h50.7l.1-.9c1.1-7.5 4.3-14.3 9.3-19.8l1.5-1.6zm591.9 32.5h-52.2l.4 1.3 6.2 20.3.2.7h51.6l-.4-1.3-5.8-20.3v-.7zm-74.2 0h-50.8l-.2.8-4.9 20.3-.3 1.2H828.2l.2-.8 4.8-20.3.3-1.2zm-92.7 0H680.8l.4 1.3 1.8 6c1.5 4.8 2.7 9.5 3.7 14.2l.2.8H746.9l-.3-1.2c-1.5-6.1-3.3-12.7-5.6-20.3l-.2-.8zm-88 0H520.9v1l.1 20.3v1h131.7v-22.3h.1zm-164.9 0h-45.6v22.3h45.6v-22.3zm-67 0h-50.6l-.1.8c-1.1 7.5-4.4 14.3-9.3 19.8l-1.5 1.7H417.3l.2-.7c1.8-6.7 2.9-13.6 3.3-20.5l.1-1.1zm-116.1 0h-50.5l.1 1.1c.4 6.9 1.5 13.8 3.3 20.5l.2.7H315.9l-1.5-1.7c-5-5.4-8.2-12.3-9.3-19.8l-.3-.8zm612.1 32.5H774.8l-.2.8-12.3 50.9-.3 1.2H812.9l.2-.8 6.1-25h56.4l7.8 23.9.2.7h47.9l-.4-1.3-14.1-49.7-.1-.7zm-167.8 0h-60.6l.1 1.1c1.8 20.8-3.6 35.4-8.4 44.1-5.2 9.4-10.9 13.9-11 13.9l-1.1.9 1.2.8 49.3 32.8.7.4.6-.6c.2-.2 2.3-2.6 19-31.3 11.8-20.3 14.6-36.9 10.3-61.3l-.1-.8zm-96.3 0h-78.5l1 1.6 33.8 50.8.3.4h43.4v-52.8zm-85 0h-46.7v1l.2 52.1v1h46.4v-54.1h.1zm-79.9 0h-45.6v52.8h45.6v-52.8zm-74 0H261.3l.6 1.4c6.6 15.9 17 29.4 30.2 39 13.5 9.9 29.3 15.1 45.5 15.1s32-5.2 45.5-15.1c13.2-9.6 23.6-23.1 30.2-39l.6-1.4zM400.9 379.2c-1.9 0-3.1-1.5-3.1-3.4 0-2.2 1.5-3.9 3.7-3.9 2 0 3.3 1.5 3.3 3.5-.1 2.1-1.6 3.8-3.9 3.8zM413.2 379.2c-1.9 0-3.1-1.5-3.1-3.4 0-2.2 1.5-3.9 3.7-3.9 2 0 3.3 1.5 3.3 3.5-.1 2.1-1.6 3.8-3.9 3.8zM425.5 379.2c-1.9 0-3.1-1.5-3.1-3.4 0-2.2 1.5-3.9 3.7-3.9 2 0 3.3 1.5 3.3 3.5-.1 2.1-1.6 3.8-3.9 3.8zM447.6 343.6l-1.3 6.8h6.8l-.8 3.8h-6.8l-2.6 13.7c-.3 1.6-.5 3-.5 4.5 0 1.7.8 2.8 2.7 2.8.8 0 1.6-.1 2.3-.2l-.2 3.9c-.9.3-2.3.5-3.7.5-4.3 0-6-2.6-6-5.5 0-1.6.2-3.3.6-5.3l2.8-14.3h-4.1l.7-3.8h4l1-5.2 5.1-1.7zM473.5 377c-2.1 1.2-5.6 2.3-9.4 2.3-7.5 0-10.7-5.1-10.7-11.4 0-8.5 6.3-18.1 15.4-18.1 5.4 0 8.3 3.2 8.3 7.2 0 7.4-8.4 9.4-18.8 9.2-.2 1.2 0 3.9.6 5.4 1.1 2.5 3.4 3.8 6.3 3.8 3.3 0 5.8-1 7.6-2l.7 3.6zm-1-19.9c0-2.3-1.7-3.6-4.3-3.6-4.6 0-8.1 4.5-9.2 8.9 7.5.1 13.5-.9 13.5-5.3zM499.1 377.5c-1.5.7-4.4 1.7-8.2 1.7-7.3 0-10.9-5-10.9-11 0-9.6 7.1-18.5 17.3-18.5 2.6 0 5 .8 5.9 1.2l-1.4 3.9c-1.1-.5-2.7-1.1-4.8-1.1-7.4 0-12 7.2-12 13.9 0 4.5 2.4 7.5 7 7.5 2.9 0 5.1-.9 6.5-1.6l.6 4zM504.3 378.6l3.8-20c.6-3.2 1-5.9 1.3-8.3h4.3l-.7 5.6h.1c2.5-4 6.3-6.2 10.4-6.2 3.4 0 7.2 1.9 7.2 7.9 0 1.2-.2 3-.5 4.6l-3.2 16.4h-4.8l3.1-16.3c.2-1.1.4-2.5.4-3.6 0-2.9-1.1-5-4.4-5-3.4 0-8.3 4.1-9.6 11.2l-2.6 13.7h-4.8zM562.6 361.5c0 8.7-6.2 17.7-15.6 17.7-7.1 0-11-5.2-11-11.6 0-9.3 6.5-17.9 15.6-17.9 7.6 0 11 5.8 11 11.8zm-21.7 5.9c0 4.6 2.5 7.9 6.7 7.9 5.7 0 10-7.4 10-14 0-3.3-1.5-7.9-6.6-7.9-6 .1-10.1 7.6-10.1 14zM566.1 378.6l7.9-41.4h4.8l-7.9 41.4h-4.8zM606.5 361.5c0 8.7-6.2 17.7-15.6 17.7-7.1 0-11-5.2-11-11.6 0-9.3 6.5-17.9 15.7-17.9 7.5 0 10.9 5.8 10.9 11.8zm-21.7 5.9c0 4.6 2.5 7.9 6.7 7.9 5.7 0 10-7.4 10-14 0-3.3-1.5-7.9-6.6-7.9-6.1.1-10.1 7.6-10.1 14zM610.3 385c1.7 1.1 4.5 1.9 7.5 1.9 4.7 0 8.5-2.5 10.2-10.1l.9-4.2h-.2c-2.5 4-5.9 6-9.8 6-5.7 0-8.6-4.8-8.6-9.8-.1-9.6 7-19.1 17.9-19.1 3.3 0 6.8.9 9.1 2L633 375c-1.2 6-2.8 10.1-5.7 12.6-2.8 2.4-6.6 3.2-9.9 3.2-3.4 0-6.7-.8-8.5-2l1.4-3.8zm21.7-30.4c-.9-.4-2.6-.9-4.7-.9-7.1 0-11.9 7.3-12 14.4 0 3.1 1.1 6.8 5.4 6.8 4.1 0 8.4-5.2 9.4-10.8l1.9-9.5zM640.7 378.6l5.4-28.2h4.9l-5.4 28.2h-4.9zm17.2-40l-7.7 8.3h-3.8l5.7-8.3h5.8zM672.8 378.6c0-1.7.3-4.4.7-7.3h-.1c-3.1 5.8-7 7.9-11 7.9-5 0-8.1-4-8.1-9.3 0-9.8 7.2-20.2 19.6-20.2 2.7 0 5.6.5 7.6 1.1l-2.9 14.7c-.9 4.9-1.3 9.9-1.2 13.1h-4.6zm3.1-24.6c-.7-.2-1.8-.4-3.4-.4-7.3 0-13.3 7.7-13.3 15.5 0 3.1 1.1 6.2 4.9 6.2 4 0 8.8-5.2 10.2-12.8l1.6-8.5zM684.8 373.7c1.3.8 3.8 1.7 6.1 1.7 3.3 0 5.4-2.1 5.4-4.6 0-2.2-1-3.6-3.9-5.2-3.3-1.8-5.1-4.3-5.1-7.2 0-5 4.3-8.8 10.2-8.8 2.6 0 4.9.7 5.9 1.4l-1.3 3.7c-1-.6-2.8-1.3-4.9-1.3-2.9 0-5 1.8-5 4.3 0 2.1 1.3 3.3 3.8 4.7 3.2 1.8 5.3 4.3 5.3 7.4 0 6-4.9 9.3-10.8 9.3-3-.1-5.7-1-7-2l1.3-3.4zM737.3 377c-2.1 1.2-5.5 2.3-9.3 2.3-7.5 0-10.7-5.1-10.7-11.4 0-8.5 6.3-18.1 15.4-18.1 5.4 0 8.3 3.2 8.3 7.2 0 7.4-8.3 9.4-18.8 9.2-.2 1.2-.1 3.9.6 5.4 1.1 2.5 3.4 3.8 6.3 3.8 3.3 0 5.8-1 7.6-2l.6 3.6zm-1-19.9c0-2.3-1.8-3.6-4.3-3.6-4.6 0-8 4.5-9.2 8.9 7.5.1 13.5-.9 13.5-5.3zM743.4 378.6l3.8-20c.6-3.2 1-5.9 1.4-8.3h4.3l-.7 5.6h.1c2.5-4 6.3-6.2 10.4-6.2 3.4 0 7.2 1.9 7.2 7.9 0 1.2-.2 3-.5 4.6l-3.1 16.4h-4.8l3.1-16.3c.2-1.1.4-2.5.4-3.6 0-2.9-1.1-5-4.4-5-3.5 0-8.4 4.1-9.6 11.2l-2.6 13.7h-5zM804 378.6c0-1.7.3-4.4.6-7.3h-.1c-3.1 5.8-7 7.9-11 7.9-5 0-8.1-4-8.1-9.3 0-9.8 7.2-20.2 19.6-20.2 2.7 0 5.7.5 7.6 1.1l-2.9 14.7c-.9 4.9-1.4 9.9-1.2 13.1H804zm3.1-24.6c-.7-.2-1.7-.4-3.4-.4-7.3 0-13.2 7.7-13.3 15.5 0 3.1 1.1 6.2 4.8 6.2 4 0 8.8-5.2 10.2-12.8l1.7-8.5zM835.2 377.5c-1.5.7-4.4 1.7-8.2 1.7-7.3 0-10.9-5-10.9-11 0-9.6 7.1-18.5 17.3-18.5 2.6 0 5 .8 5.9 1.2l-1.4 3.9c-1.1-.5-2.6-1.1-4.8-1.1-7.3 0-11.9 7.2-11.9 13.9 0 4.5 2.4 7.5 7 7.5 2.9 0 5.1-.9 6.5-1.6l.5 4zM859.3 377.5c-1.4.7-4.4 1.7-8.2 1.7-7.3 0-10.9-5-10.9-11 0-9.6 7.1-18.5 17.3-18.5 2.6 0 5 .8 5.9 1.2l-1.4 3.9c-1.1-.5-2.7-1.1-4.8-1.1-7.4 0-11.9 7.2-11.9 13.9 0 4.5 2.4 7.5 7 7.5 2.9 0 5.1-.9 6.5-1.6l.5 4zM864.6 378.6l5.4-28.2h4.8l-5.4 28.2h-4.8zm9-33.1c-1.6 0-2.7-1.3-2.7-3 .1-1.9 1.5-3.3 3.2-3.3 1.7 0 2.9 1.3 2.9 3.1-.1 1.9-1.4 3.2-3.4 3.2zM889.4 379.2c-7.1 0-11-5.2-11-11.6 0-9.3 6.5-17.9 15.6-17.9 7.6 0 11 5.8 11 11.8 0 8.7-6.1 17.7-15.6 17.7zm.6-3.8c5.7 0 10.1-7.4 10.1-14 0-3.3-1.5-7.9-6.6-7.9-6.1 0-10.2 7.4-10.1 13.9 0 4.7 2.5 8 6.6 8zm13.5-36.8l-7.8 8.3H892l5.7-8.3h5.8zM908.5 378.6l3.8-20c.6-3.2 1-5.9 1.3-8.3h4.3l-.7 5.6h.1c2.5-4 6.3-6.2 10.4-6.2 3.4 0 7.2 1.9 7.2 7.9 0 1.2-.2 3-.5 4.6l-3.2 16.4h-4.8l3.1-16.3c.2-1.1.4-2.5.4-3.6 0-2.9-1.1-5-4.4-5-3.4 0-8.3 4.1-9.6 11.2l-2.6 13.7h-4.8z"/></svg>