<svg xmlns="http://www.w3.org/2000/svg" viewBox="0 0 344.3 149.2"><path d="M141.8 66H168l-21.6-15c-5-3-10.6-1-12.6 4-1.7 6 2.6 11 8 11m55.8-15L176 66h26.5c5.5 0 9-5 7.4-11-1-3-4.1-5-7.7-5-1.5 0-3.1 0-4.6 1M188 38l-10.9 25 23-15c5.3-4 4.5-10 1.5-13-1.2-1-3.5-3-5.9-3-2.9 0-6 2-7.7 6m-15.3-7h3.5c-.8 1-3.2 1-2.9 5l3.7 25 11.5-28c2.3-6-2.6-11-7-11h-.6c-3.9 0-8.4 3-8.2 9m-10.5-9c-3.7 0-9.3 5-6.8 11l11.5 28 4-29c1-7-4.4-10-8.7-10m-19.8 13c-3.2 2-4.3 9 1.4 13l23 15-11.1-25c-2.4-6-8.8-7-13.3-3m162.7 51v40h4V86zm-10.4-3a2.145 2.145 0 1 0 0 4h24.7a2.145 2.145 0 1 0 0-4zm-20.4 0c-3.1 0-6.2 0-8.6 2-2.5 2-4.1 5-4.1 8 0 4 1.1 6 3.1 8s4.5 3 7.7 5c3.2 1 6 3 7.9 4 1.8 1 2.6 3 2.6 5s-.9 4-2.4 5c-1.5 2-3.6 3-5.9 3-5.5 0-9.7-4-11.1-6l-3.2 3c1.8 2 7 7 14.3 7 3.2 0 6.4-1 8.8-3 2.3-2 3.9-5 3.9-9s-1.9-6-4.4-8c-2.5-2-5.5-4-8.6-5-3.2-2-5.5-3-6.7-4-1.3-1-1.8-2-1.8-5 0-2 .9-3 2.4-5 1.5 0 3.7-1 6-1 4.2 0 7.7 2 7.7 2a2.19 2.19 0 1 0 2.4-3s-4.4-3-10.1-3zm-48.6 23v4h18.7v-4zm9.7-24a2.084 2.084 0 0 0-1.9 2l-16.4 40a2.19 2.19 0 1 0 3.9 2l14.4-36 14.9 36h4.5l-17.4-42a2.084 2.084 0 0 0-2-2zm-78.7 0a2.084 2.084 0 0 0-1.9 2l-12.9 31L129 84a2.084 2.084 0 0 0-4 0l-7.4 40a2.12 2.12 0 1 0 4.1 1l6.1-33 12.1 30a2.084 2.084 0 0 0 3.9 0L156 92l6.3 34h4.3l-7.8-42a2.084 2.084 0 0 0-2.1-2zm-67.14 1C78.6 83 67.4 91 67.4 105c0 12 10.3 22 22.33 22 13.77 0 21.97-12 21.97-22 0-12-9.3-22-22.14-22zm0 4c10.39 0 17.84 9 17.84 18 0 8-6.4 18-17.67 18-9.73 0-18.03-8-18.03-18 0-12 9.1-18 17.86-18zM44.1 83c-12 0-22.1 9-22.1 22 0 11 9.5 22 22.2 22 8.8 0 14.4-5 16.2-7l-3-4c-1.1 2-5.5 7-13.2 7-10.4 0-17.9-9-17.9-18 0-10 8.1-18 17.8-18 8.2 0 12.5 5 12.5 5a2.23 2.23 0 1 0 3.3-3s-5.7-6-15.8-6zm150.1 0c-12 0-22.1 9-22.1 22 0 11 9.5 22 22.2 22 8.8 0 14.4-5 16.2-7l-3.1-4c-1 2-5.4 7-13.1 7-10.4 0-17.9-9-17.9-18 0-10 8.1-18 17.8-18 8.2 0 12.5 5 12.5 5a2.23 2.23 0 1 0 3.3-3s-5.7-6-15.8-6z"/></svg>