<svg xmlns="http://www.w3.org/2000/svg" viewBox="0 0 600 400"><path d="M364.034 152.3c-1.81 2.176-3.972 4.075-6.305 5.82-11.515 8.616-24.98 13.255-39.92 14.823-14.34 1.504-28.195-.095-41.445-5.19-8.95-3.44-16.51-8.47-22.936-14.965-5.396-5.452-6.517-11.54-4.867-18.28 2.325-9.498 7.83-17.606 14.6-25.14 1.296-1.44 2.706-2.803 4.05-4.212.454-.476.78-.748 1.39-.064 11.41 12.767 26.147 22.21 41.24 31.26 9.72 5.828 19.773 11.198 30.763 15.075a57.448 57.448 0 0 0 7.744 2.152c6.325 1.277 9.845.98 15.684-1.28zM357.095 82.192c8.406 5.553 14.73 12.57 18.728 21.06 5.946 12.622 5.65 25.042-1.996 37.19-3.663 5.817-7.996 7.61-16.24 6.1-3.452-.63-6.723-1.767-9.913-3.064-10.89-4.423-20.86-10.196-30.837-15.948.34-.704 1.035-.893 1.58-1.21 9.562-5.57 18.855-11.445 27.296-18.29 3.22-2.61 6.214-5.4 8.805-8.507 1.457-1.748 2.723-3.592 3.648-5.604 1.85-4.028 1.754-7.882-1.342-11.47l.27-.258zM179.745 202.106c7.29 0 14.582.004 21.872-.002 2.355-.002 4.683.19 6.986.63 3.893.743 6.29 2.783 7.165 6.195.447 1.742.73 3.497.73 5.286-.003 10.468.014 20.936-.022 31.404a21.505 21.505 0 0 1-.445 4.18c-.984 4.868-3.876 7.065-9.88 7.62-.738.067-1.48.147-2.218.15-16.802.064-33.61.408-50.403-.177-6.735-.235-9.713-3.033-10.503-8.87a34.63 34.63 0 0 1-.298-4.68c.004-9.443.01-18.886-.006-28.328a31.364 31.364 0 0 1 .374-4.84c.792-5.138 3.694-7.633 9.6-8.266a52.37 52.37 0 0 1 5.73-.31c7.106.017 14.212.006 21.317.006zm-.136 7.433c-8.218 0-16.436.015-24.653-.02-1.134-.005-1.61.175-1.606 1.305.047 12.626.037 25.252.014 37.878-.002.864.2 1.217 1.32 1.215 16.497-.037 32.994-.046 49.49-.007 1.422.004 1.75-.39 1.745-1.565a5356.958 5356.958 0 0 1 0-37.392c.004-1.135-.37-1.447-1.66-1.44-8.216.05-16.434.026-24.65.026zM428.544 212.826c-8.688 12.15-18.267 23.538-27.305 35.243-1.075 1.39-2.965 1.283-4.206-.19-6.7-7.95-13.383-15.908-20.088-23.854-2.99-3.544-6.123-7.003-8.413-11.032.103 1.737.29 3.473.295 5.21.03 12.682.008 25.365.06 38.047.005 1.156-.39 1.487-1.672 1.43a74.69 74.69 0 0 0-5.93-.002c-1.134.04-1.5-.285-1.483-1.28.056-3.616.022-7.232.022-10.848 0-13.87.025-27.74-.037-41.61-.006-1.455.46-1.706 2.106-1.912 4.85-.607 7.746 1.09 10.552 4.56 8.267 10.215 17.036 20.12 25.61 30.147 1.305 1.527 1.308 1.525 2.503.026 8.856-11.107 17.725-22.208 26.545-33.338.743-.937 1.48-1.41 2.837-1.344 2.156.105 4.328.095 6.485.003 1.316-.055 1.66.327 1.648 1.45-.058 6.26-.028 12.52-.028 18.78 0 11.226-.027 22.452.035 33.677.007 1.354-.418 1.782-1.963 1.7-2.156-.112-4.327-.078-6.487-.008-1.135.036-1.476-.28-1.46-1.276.224-13.92-.387-27.845.367-41.76.03-.573.004-1.146.004-1.818zM288.316 238.087c5.01-6.285 10.015-12.567 15.022-18.847 4.234-5.31 8.5-10.6 12.676-15.943.723-.925 1.483-1.258 2.72-1.213 2.16.08 4.328.082 6.486 0 1.27-.05 1.705.262 1.683 1.424-.077 4.153-.03 8.31-.03 12.463 0 13.328-.02 26.655.03 39.982.006 1.292-.286 1.837-1.905 1.738-2.09-.127-4.203-.104-6.298-.005-1.372.065-1.77-.275-1.758-1.513.074-7.068.006-14.136.044-21.204.04-7.334-.28-14.673.477-22.017-.244.024-.423.003-.45.048-2.705 4.756-6.45 8.928-9.843 13.294-5.547 7.137-11.17 14.23-16.763 21.34-1.495 1.9-3.17 1.918-4.75.04-7.942-9.424-15.87-18.857-23.823-28.275-1.718-2.035-2.9-4.34-4.447-6.5.144 2.158.262 4.287.26 6.42-.006 12.248-.02 24.496.032 36.743.004 1.237-.303 1.724-1.813 1.627-1.844-.118-3.71-.095-5.557-.005-1.306.064-1.675-.322-1.656-1.45.07-4.21.03-8.418.028-12.626 0-13.273.02-26.546-.035-39.82-.006-1.312.4-1.544 1.895-1.75 5.01-.692 7.973 1.143 10.847 4.7 8.185 10.13 16.882 19.944 25.388 29.876.437.508.754 1.122 1.538 1.475zM61.026 229.776c0 6.204.037 12.408-.032 18.61-.014 1.228.407 1.53 1.778 1.525 13.466-.043 26.932-.05 40.398.006 1.602.007 1.95-.458 1.92-1.753-.092-3.613-.01-7.228-.048-10.842-.01-.937.084-1.385 1.423-1.086 2.626.587 5.304.995 7.962 1.47.606.108 1.252.125 1.23.908-.115 3.875.373 7.778-.563 11.616-1.155 4.736-3.917 6.705-9.87 7.21-3.142.265-6.292.22-9.44.22-10.008 0-20.015.01-30.022-.007-2.656-.003-5.29-.175-7.89-.756-3.67-.82-5.84-2.858-6.708-6.017-.52-1.894-.77-3.82-.77-5.77.002-10.14.002-20.283 0-30.425-.002-2.06.277-4.087.85-6.083 1.143-3.975 4.475-5.614 8.757-6.144 1.768-.22 3.567-.33 5.353-.334 11.86-.03 23.72-.018 35.58-.012 2.662 0 5.288.225 7.87.864 3.138.778 5.068 2.536 5.95 5.24 1.243 3.806.825 7.707.9 11.58.01.572-.356.687-.91.773-2.914.454-5.827.917-8.728 1.43-1.27.226-.942-.553-.946-1.063-.024-3.29-.07-6.583.016-9.87.03-1.18-.298-1.56-1.73-1.554-13.527.05-27.055.055-40.583-.005-1.563-.007-1.787.477-1.776 1.66.06 6.203.03 12.407.03 18.61zM534.113 202.062c10.87 0 21.742.02 32.613-.027 1.35-.006 1.87.245 1.764 1.5a28.455 28.455 0 0 0 0 4.688c.098 1.23-.37 1.54-1.752 1.532-8.4-.055-16.8.02-25.2-.065-1.767-.018-2.26.352-2.253 1.94.076 14.725.016 29.45.086 44.177.008 1.58-.506 2.046-2.273 1.94-2.213-.135-4.45-.116-6.666-.004-1.493.076-1.836-.37-1.83-1.625.058-10.195.033-20.39.033-30.585 0-4.8-.042-9.602.03-14.402.02-1.156-.405-1.432-1.67-1.425-8.525.044-17.05-.01-25.572.055-1.567.012-2.052-.402-1.94-1.733.124-1.448.12-2.917 0-4.366-.103-1.265.348-1.636 1.838-1.628 10.93.057 21.862.03 32.795.03z"/><path d="M244.18 140.135c-1.92-2.66-3.13-5.568-3.915-8.59-3.714-14.27.534-26.972 10.18-38.555 3.287-3.948 7.337-7.258 11.564-10.442 7.793-5.87 16.926-7.392 26.82-6.63 4.547.35 9.005 1.137 13.417 2.263-.327.623-1.028.623-1.563.822-21.634 8.032-38.913 20.453-50.563 38.464-3.45 5.334-5.937 11.01-6.288 17.243-.103 1.81.116 3.606.35 5.425z"/><path d="M276.462 74.5c12.18-5.64 25.07-7.93 38.667-7.124 11.52.684 22.285 3.567 32.114 8.895 6.2 3.362 7.447 8.03 3.844 13.563-.98 1.506-2.25 2.827-3.45 4.197-.797.91-1.327.9-2.293.137-6.39-5.057-13.44-9.3-21.114-12.73-10.25-4.582-20.98-7.786-32.59-8.323-4.707-.218-9.374.004-13.92 1.24-.398.108-.838.1-1.258.146zM470.94 229.924c0-8.686.05-17.373-.044-26.06-.017-1.547.536-1.908 2.18-1.83 2.464.114 4.94.055 7.41.015.865-.015 1.228.205 1.184.997-.06 1.077-.014 2.157-.014 3.237 0 16.564-.022 33.127.04 49.69.005 1.43-.392 1.873-2.038 1.775a59.33 59.33 0 0 0-6.668-.004c-1.595.085-2.107-.284-2.092-1.762.086-8.687.043-17.374.043-26.06zM342.532 283.34c-1.423.772-2.714 1.336-4.266 1.35-3.306.027-5.386-1.26-6.217-4.06-.553-1.862-.554-3.748.186-5.578 1.235-3.056 4.47-4.67 8.086-3.95 1.18.233 2.25.588 3.51.265 1.18-.302 1.72.143 1.69 1.34-.094 3.506-.01 7.015-.04 10.522-.045 5.063-2.878 7.293-8.66 6.843a26.597 26.597 0 0 1-2.2-.277c-1.172-.19-1.847-1.397-1.324-2.29.255-.434.6-.214.933-.152 1.085.2 2.157.507 3.252.59 3.928.3 5.307-.92 5.05-4.604zm.11-5.808c0-.86-.077-1.727.02-2.58.113-1.01-.404-1.413-1.46-1.667-3.733-.9-6.022.374-6.58 3.68-.166.985-.05 1.936.157 2.884.42 1.938 1.868 2.878 4.074 2.707 2.897-.225 3.787-.99 3.788-3.25v-1.775zM482.21 283.367c-1.565.853-3.17 1.422-5.04 1.324-2.332-.12-4.04-1.04-4.954-2.87-1.27-2.542-1.295-5.155.163-7.653 1.294-2.218 3.46-3.312 6.337-3.196 1.836.075 3.583.953 5.508.392.696-.203.94.268.933.855-.05 4.15.074 8.306-.174 12.445-.21 3.517-2.408 5.19-6.424 5.436-1.494.092-2.953-.128-4.418-.316-.84-.108-1.263-.427-1.258-1.27.006-1.036.146-1.516 1.533-1.035.952.33 2.04.437 3.077.49 3.715.188 5.105-1.157 4.717-4.6zm.138-5.696c0-1.023-.02-2.048.008-3.072.014-.535-.147-.855-.772-1.108-3.58-1.454-6.863.08-7.318 3.49-.136 1.02-.088 2.04.232 3.048.614 1.937 1.986 2.762 4.25 2.5 2.906-.336 3.6-.962 3.602-3.24 0-.54 0-1.078-.002-1.617zM545.017 275.556c0 2.697.02 5.394-.02 8.09-.007.454.403 1.24-.585 1.265-.715.02-1.752.484-2.128-.385-.348-.805-.647-.483-1.173-.236-5.01 2.344-9.342.27-9.794-4.693-.132-1.453-.143-2.91.41-4.323 1.358-3.468 4.998-5.127 8.984-3.943 1.325.395 1.59.14 1.513-.96-.075-1.076.06-2.163-.036-3.235-.095-1.076.483-1.22 1.536-1.234 1.113-.014 1.33.37 1.314 1.24-.052 2.806-.02 5.61-.02 8.416zm-2.756 2.216c0-1.025.01-2.05-.003-3.075-.005-.424-.01-.8-.54-1.102-2.67-1.525-6.537-.292-7.322 2.43-.427 1.478-.395 3.01.004 4.495.537 2 2.004 2.794 4.417 2.518 2.503-.286 3.443-1.193 3.445-3.323v-1.943zM394.126 275.583c0 2.693.02 5.386-.018 8.078-.006.457.383 1.242-.602 1.252-.7.007-1.716.51-2.096-.415-.356-.868-.746-.387-1.207-.174-4.803 2.217-8.71.57-9.666-4.116-.316-1.546-.285-3.11.227-4.64 1.22-3.644 4.964-5.446 9.087-4.23 1.337.393 1.6.126 1.527-.973-.072-1.073.057-2.158-.037-3.23-.094-1.073.49-1.21 1.537-1.232 1.18-.027 1.272.47 1.262 1.28-.037 2.8-.015 5.6-.014 8.4zm-2.726 2.108c0-1.02.003-2.04 0-3.06-.003-.435-.067-.78-.604-1.06-2.806-1.454-6.474-.265-7.26 2.476-.452 1.572-.458 3.2.118 4.772.684 1.868 2.08 2.538 4.448 2.205 2.407-.34 3.3-1.215 3.3-3.236 0-.7 0-1.398-.002-2.096zM421.528 266.96c2.785-.373 2.782-.372 3.67 1.835 1.63 4.058 3.266 8.114 4.908 12.17.034.082.157.137.26.225.618-.2.59-.762.76-1.178 1.53-3.747 3.15-7.472 4.474-11.275.627-1.8 1.637-2.33 3.744-1.762-1.132 2.76-2.262 5.523-3.4 8.284-1.126 2.73-2.296 5.45-3.372 8.196-.396 1.01-.84 1.55-2.28 1.566-1.538.018-1.796-.7-2.185-1.653-1.987-4.86-4.03-9.703-6.03-14.56-.246-.597-.665-1.17-.55-1.85zM506.222 273.86c-.3-2.295-.3-2.298 2.047-2.663 1.652-.257 3.325-.27 4.98-.098 2.765.284 4.384 1.598 4.515 3.945.168 3.01.066 6.033.083 9.05.003.472-.09.946-.775.834-.688-.114-1.78.55-2-.5-.184-.885-.493-.62-1.01-.308-1.3.783-2.708 1.236-4.326 1.19-2.61-.074-4.47-1.408-4.93-3.61-.44-2.118.707-3.9 3.094-4.772 1.738-.635 3.606-.66 5.432-.898.573-.075 1.506.31 1.65-.59.14-.88-.303-1.622-1.227-1.998-1.204-.49-2.514-.556-3.81-.343-1.207.2-2.395.485-3.723.76zm8.62 5.672c-.383-.253.96-1.564-.524-1.61-1.808-.058-3.706.072-5.35.917-1.728.887-1.91 3.05-.293 3.874 1.49.758 3.057.52 4.586-.077 1.407-.55 2.15-1.382 1.582-3.105zM440.262 273.853c-.652-1.85.168-2.564 2.134-2.693 1.79-.117 3.578-.28 5.342.006 2.75.448 4.07 1.87 4.13 4.432.06 2.637.038 5.277-.002 7.915-.008.546.444 1.428-.83 1.43-.964.002-2.237.397-2.075-1.32-1.762 1.115-3.45 1.81-5.47 1.685-2.323-.145-4.1-1.416-4.58-3.373-.518-2.12.448-3.885 2.623-4.83 1.874-.814 3.928-.83 5.935-1.077.535-.066 1.373.25 1.53-.524.16-.795-.164-1.52-.99-1.944-1.23-.627-2.6-.663-3.95-.466-1.27.183-2.514.497-3.796.76zm8.665 5.607c-.19-.298.695-1.504-.497-1.53-1.986-.043-4.096.017-5.81 1.143-1.435.942-1.346 2.997.175 3.687 1.585.72 3.168.425 4.752-.23 1.44-.592 1.727-1.537 1.38-3.07zM564.997 283.588c-1.795 1.07-3.39 1.814-5.36 1.724-2.502-.114-4.356-1.41-4.85-3.518-.49-2.083.656-3.923 3-4.823 1.787-.686 3.72-.688 5.603-.946.565-.078 1.515.326 1.61-.61.09-.873-.352-1.617-1.285-1.98-1.335-.517-2.754-.548-4.174-.27-1.078.21-2.15.445-3.227.67-.526-2.245-.51-2.308 2.064-2.654 1.834-.247 3.696-.324 5.52.032 2.432.475 3.704 1.644 3.807 3.79.144 3.01.07 6.03.1 9.048.004.553-.103.948-.9.91-.974-.048-2.204.317-1.907-1.372zm.036-3.945c-.327-.482.593-1.68-.618-1.717-1.937-.06-3.984.026-5.69 1.042-1.635.973-1.502 3.15.168 3.905 2.674 1.21 6.14-.545 6.14-3.23zM259.408 281.645c.233 2.613.24 2.634-2.282 3.213-.89.204-1.814.37-2.728.393-3.038.078-5.877-.467-7.536-2.942-1.745-2.603-1.658-5.393-.167-8.057 1.516-2.706 5.197-3.93 8.73-3.1 2.897.682 4.562 3.057 4.46 6.183-.027.87-.366 1.1-1.302 1.088-2.9-.038-5.804.024-8.704-.03-1.214-.02-1.467.35-1.24 1.344.53 2.306 2.586 3.63 5.59 3.492 1.822-.085 3.455-.687 5.178-1.58zm-6.566-5.068c1.046 0 2.094-.037 3.137.01.95.044 1.13-.304 1.002-1.06-.298-1.776-1.724-2.72-4.128-2.643-2.177.07-4.095 1.47-4.207 2.993-.048.652.33.7.873.7 1.106-.004 2.214 0 3.322 0zM410.765 281.615c.198 2.645.205 2.666-2.315 3.243-.89.204-1.814.37-2.728.393-3.04.076-5.877-.477-7.533-2.953-1.744-2.606-1.653-5.397-.147-8.057 1.54-2.718 5.214-3.93 8.733-3.083 2.923.705 4.535 3.038 4.418 6.19-.033.885-.395 1.083-1.315 1.07-2.84-.038-5.683.032-8.52-.033-1.267-.03-1.62.313-1.38 1.4.498 2.25 2.645 3.595 5.642 3.434 1.817-.096 3.447-.686 5.143-1.603zm-6.683-5.04c1.165 0 2.33-.016 3.495.007.745.015.916-.226.805-.87-.27-1.574-1.302-2.57-3.035-2.78-2.405-.292-4.4.594-5.155 2.26-.454 1-.275 1.52 1.132 1.4.912-.077 1.838-.014 2.758-.016zM365.474 283.575c-1.844 1.1-3.504 1.854-5.528 1.733-2.388-.142-4.246-1.468-4.705-3.472-.47-2.062.582-3.858 2.783-4.78 1.827-.765 3.823-.764 5.764-1.027.58-.08 1.56.304 1.656-.57.1-.9-.35-1.727-1.398-2.084-1.23-.42-2.53-.49-3.826-.26-1.19.213-2.366.488-3.552.736-.376-2.272-.382-2.303 2.033-2.644 1.955-.276 3.934-.38 5.876.066 2.387.55 3.55 1.792 3.598 3.937.063 2.747.05 5.496.008 8.242-.01.578.504 1.51-.924 1.51-.978-.002-2.052.206-1.784-1.387zm-.153-4.08c-.246-.275.983-1.556-.582-1.58-1.82-.03-3.72.07-5.364.933-1.7.893-1.842 3.09-.225 3.9 1.513.757 3.073.492 4.594-.13 1.384-.567 2.168-1.388 1.577-3.124zM329.915 278.193c.043 4.628-2.87 7.266-7.786 7.102-2.9-.097-5.2-1.51-6.197-3.897-.802-1.925-.838-3.914-.237-5.88.97-3.18 3.854-4.804 7.87-4.515 3.486.25 5.93 2.453 6.342 5.74.06.477.007.966.007 1.45zm-2.838-.025c0-1.026-.036-2.05-.508-3.01-.7-1.428-1.92-2.164-3.725-2.206-1.854-.043-3.295.55-4.008 2.062-.977 2.074-.982 4.21.048 6.277.713 1.433 2.094 2.06 3.86 2.038 1.773-.022 3.047-.745 3.783-2.157.497-.952.545-1.976.55-3.002zM292.143 278.002c.01-4.245 2.658-6.904 7-7.04 4.09-.126 6.933 1.975 7.49 5.532.15.964.196 1.92.06 2.895-.546 3.913-3.258 6.018-7.664 5.906-3.93-.1-6.666-2.61-6.885-6.325-.018-.32-.002-.645-.002-.968zm2.882.162c-.002.973.046 1.94.485 2.853.75 1.56 2.105 2.342 4.04 2.31 1.94-.034 3.277-.868 3.896-2.47.71-1.84.71-3.718-.03-5.545-.642-1.59-1.997-2.372-3.965-2.36-1.95.01-3.272.76-3.982 2.352-.41.927-.432 1.89-.443 2.86zM458.63 272.666c1.672-1.057 3.213-1.792 5.114-1.71 2.78.116 4.67 1.617 4.813 4.228.163 2.955.026 5.923.09 8.884.024 1.075-.768.848-1.474.892-.85.052-1.395-.056-1.376-1.006.05-2.476.046-4.955-.024-7.43-.036-1.266.108-2.733-1.758-3.207-1.957-.497-3.623.198-5.135 1.235-.523.36-.34.89-.344 1.356-.015 2.585-.047 5.17.013 7.755.02.943-.227 1.34-1.42 1.326-1.11-.014-1.487-.263-1.47-1.273.067-3.607.003-7.216.052-10.824.008-.568-.553-1.54.864-1.547.97-.005 2.198-.34 2.054 1.32zM276.525 278.144c0-1.887-.018-3.774.014-5.66.006-.42-.298-1.13.585-1.107.707.02 1.758-.52 2.09.416.36 1.022.838.473 1.304.208 1.222-.692 2.525-1.094 4.005-1.04 2.513.094 4.242 1.258 4.65 3.433.614 3.26.183 6.562.25 9.845.02 1.097-1.038.616-1.668.708-.88.13-1.18-.23-1.167-1 .038-2.425.035-4.852-.006-7.277-.022-1.284.09-2.684-1.622-3.324-1.43-.535-4.24.176-5.32 1.218-.49.472-.363 1.006-.366 1.527-.016 2.588-.058 5.177.017 7.763.03.998-.464 1.112-1.42 1.127-1.03.016-1.406-.245-1.37-1.177.073-1.884.022-3.772.022-5.66zM499.07 283.608c-1.615.847-2.913 1.67-4.616 1.7-3.063.05-5.204-1.41-5.363-4.065-.18-3.012-.037-6.038-.097-9.057-.02-.947.636-.86 1.325-.85.727.007 1.496-.16 1.474.902-.05 2.48-.054 4.962.02 7.44.038 1.272-.074 2.777 1.723 3.263 1.924.52 3.625-.175 5.162-1.197.547-.364.385-.876.388-1.34.016-2.48.007-4.96.008-7.44 0-.84-.267-1.68 1.38-1.676 1.526.003 1.49.658 1.482 1.6-.034 3.505.01 7.01-.036 10.516-.008.58.516 1.556-.89 1.54-.953-.013-2.304.457-1.96-1.335zM237.625 276.9c0-2.104-.11-4.214.038-6.31.1-1.41-.482-1.766-1.977-1.65-1.41.11-2.842-.02-4.26.038-1.054.044-1.194-.406-1.203-1.18-.01-.787.32-1.012 1.185-1.008 5.128.025 10.256.027 15.383 0 .907-.006 1.177.29 1.153 1.043-.022.682-.123 1.155-1.09 1.135-1.48-.03-2.97.07-4.445-.027-1.412-.092-1.908.26-1.878 1.58.1 4.314.006 8.63.06 12.947.012 1.03-.14 1.53-1.56 1.533-1.395.003-1.44-.556-1.422-1.467.048-2.208.017-4.42.017-6.633zM273.898 281.777c.196 2.648.196 2.648-2.605 3.226-3.663.757-7.048-.263-8.65-2.607-1.878-2.744-1.472-7.187.86-9.426 2.136-2.048 6.448-2.59 9.645-1.252 1.555.65.54 1.786.902 2.866-3.008-1.388-5.93-2.83-8.576.046-1.673 1.818-1.463 5.586.21 7.302 1.672 1.714 4.117 1.685 8.214-.155zM309.626 275.408c0-2.747.05-5.494-.025-8.24-.027-1.028.41-1.272 1.5-1.263 1.02.01 1.4.248 1.394 1.19-.043 5.546-.05 11.093.005 16.64.01 1.036-.423 1.225-1.498 1.254-1.235.033-1.412-.427-1.395-1.342.053-2.747.02-5.494.02-8.24zM524.59 273.064c1.555-.74 2.78-1.686 4.482-1.74 1.07-.032 1.402.286 1.368 1.195-.03.794-.016 1.38-1.27 1.17-.92-.153-1.827.135-2.693.43-1.382.474-2.154 1.186-2.04 2.665.17 2.196.023 4.41.056 6.614.014.924.078 1.6-1.473 1.607-1.68.007-1.353-.86-1.355-1.674-.008-3.39-.048-6.78.037-10.167.016-.618-.774-1.67.883-1.85 1.482-.16 2.097.366 2.004 1.748zM352.242 278.074c0 1.94-.046 3.884.02 5.824.03.883-.36 1.09-1.292 1.078-.92-.012-1.482-.065-1.464-1.102a335.72 335.72 0 0 0 0-11.486c-.02-1.076.618-1.038 1.49-1.07.966-.037 1.296.236 1.266 1.094-.064 1.886-.02 3.774-.02 5.662zM551.786 278.03c0 1.942-.058 3.886.023 5.825.04 1.014-.503 1.122-1.45 1.12-.9 0-1.325-.15-1.313-1.057.05-3.83.06-7.66-.005-11.49-.017-1.015.49-1.09 1.432-1.118 1.092-.03 1.363.33 1.332 1.22-.064 1.83-.02 3.666-.02 5.5zM355.068 264.72c-1.926 1.414-2.086 4.545-5.87 4.377.81-1.415 1.468-2.685 2.248-3.894.863-1.336 2.336-.39 3.622-.484zM550.493 269.03c-1.253.22-1.716-.12-1.716-1.238 0-1.12.62-1.185 1.598-1.176 1 .01 1.743-.027 1.713 1.23-.027 1.168-.545 1.416-1.595 1.185zM244.588 140.832a9.56 9.56 0 0 0-.097.11c-.04-.083-.09-.165-.11-.25-.007-.025.067-.066.105-.1.033.08.068.16.103.24zM356.822 82.45c-.14-.137-.28-.275-.418-.413.298-.178.528-.125.69.156l-.272.258z"/></svg>