<svg xmlns="http://www.w3.org/2000/svg" viewBox="0 0 344 93.67"><g class="only-light-background"><path d="M308.1 48.42l7.7-7.76L297.2 22l-24.9 24.84 24.9 24.83z" opacity=".25"/><path d="M297.2 71.67L322 46.84l-6.2-6.18-7.7 7.76z"/></g><path d="M38.61 49.58c-1.17 2.35-3.64 4.11-7.33 4.11-5.76 0-9.28-3.82-9.28-9.2 0-5.02 2.94-9.3 8.89-9.3 5.82 0 8.44 3.5 8.56 6.97h-5.97c-.49-1.83-1.64-2.2-2.45-2.2-1.05 0-2.84.73-2.84 4.43 0 3.69 1.79 4.43 2.84 4.43.64 0 1.52-.27 2.13-1.3.19-.32.42-.81.47-1.22h5.82c0 1.12-.37 2.4-.84 3.28m8.64 4.11c-4.36 0-7.22-2.62-7.22-6.91 0-4.33 3.03-6.8 7.22-6.8 4.21 0 7.34 2.55 7.34 6.9 0 4.38-3.16 6.81-7.34 6.81m.1-9.94c-1.52 0-1.66 2.11-1.66 3.21s.17 3.18 1.66 3.18c1.5 0 1.67-2.1 1.67-3.18 0-1.1-.17-3.21-1.67-3.21m40.28 9.37V46.2c0-1.2-.39-1.69-1.24-1.69-.86 0-1.42.79-1.42 1.79v6.83h-5.46v-6.9c0-1.2-.39-1.67-1.25-1.67-.88 0-1.44.76-1.44 1.76v6.81h-5.36v-6.9c0-1.2-.4-1.67-1.25-1.67-.88 0-1.44.76-1.44 1.76v6.81h-5.36v-6.9c0-1.2-.39-1.67-1.25-1.67-.88 0-1.44.76-1.44 1.76v6.81h-5.36V40.72h4.87l.12 1.1c.81-1 2.18-1.74 3.89-1.74s3.45.83 4.04 1.91c.66-1.02 2.32-1.88 4.09-1.88 2.03 0 3.37 1.03 4.01 1.96.59-.93 2.2-1.96 3.91-1.96 2.16 0 3.31.88 4.11 1.96 1.25-1.67 2.89-1.96 3.9-1.96 3.81 0 4.72 2.47 4.72 5.23v7.79h-5.39m13.27.56c-4.32 0-7.18-2.62-7.18-6.91 0-4.33 3.04-6.8 7.18-6.8 4.3 0 7.4 2.55 7.4 6.9 0 4.38-3.2 6.81-7.4 6.81m.1-9.94c-1.47 0-1.62 2.11-1.62 3.21s.17 3.18 1.62 3.18c1.5 0 1.7-2.1 1.7-3.18 0-1.1-.2-3.21-1.7-3.21m16.2 9.37v-6.87c0-1.2-.5-1.67-1.3-1.67-.9 0-1.5.76-1.5 1.76v6.78h-5.3V40.74h4.9l.1 1.25c1-1.25 2.4-1.89 3.9-1.89 1.8 0 4.7 1.03 4.7 4.21v8.81h-5.4m23.4 0h-5.6s-.7-2.18-1-3.55c-.5-1.66-.6-2.38-.6-2.38s0 .71-.4 2.38c-.3 1.27-1.1 3.57-1.1 3.57h-5.6l-3.7-12.38h5.8s.6 2.13.9 3.32c.3 1.38.4 2.18.4 2.18s.1-.78.5-2.18c.3-1.26.9-3.32.9-3.32h4.9s.7 2.06.9 3.32c.5 1.48.5 2.18.5 2.18s.1-.68.5-2.18c.2-1.17.9-3.32.9-3.32h5.5l-3.7 12.38m8.6-5.36c.1 1.25.6 2.33 2.1 2.33.6 0 1.5-.34 1.7-1.1h5.2c-.1.54-.4 1.17-.7 1.59-1.3 2.05-4 3.08-6.5 3.08-4.5 0-7.3-2.71-7.4-6.6-.1-3.46 1.9-7.08 7-7.08 4.8 0 7.7 2.92 7.7 7.78h-9.1zm2-4.62c-1.1 0-1.8.83-1.9 1.88h3.7c-.1-1-.8-1.88-1.8-1.88M168 53.1l-.2-1.1c-.9.93-2.8 1.66-4.2 1.66-.9 0-2.9-.17-4-1.61-.9-1.18-1-3.09-.2-4.31 1-1.64 3.4-2.25 5.7-2.54.9-.1 2.1-.37 2.1-1.13 0-.59-.3-1.1-1.1-1.1s-1.5.66-1.5 1.49h-5.1l.1-.15c.5-2.95 2.6-4.45 6.3-4.45 6.2 0 6.9 2.15 7 5.87v3.48c0 2.37.2 2.91.4 3.89H168zm-.7-5.48s-.7.22-1.4.42c-.4.12-1.5.31-1.5 1.14 0 .42.4.94 1.1.91 1.4-.1 1.8-.85 1.8-2.08v-.39m7-11.99h5.4V53.1h-5.4zm12.2 17.89c-3.6 0-4.5-1.72-4.5-5.02v-4.36h-1.6v-3.42h1.6v-5.09h5.4v5.09h2.1v3.42h-2.1v3.38c0 1.2.3 1.96 1.5 1.96.2 0 .5 0 .7-.1h.1v3.5c-1 .46-2.1.66-3.2.66m17.8-.44H199v-6.85c0-1.2-.6-1.69-1.4-1.69-.9 0-1.5.78-1.5 1.79v6.75h-5.5V35.63h5.1v6.34c.9-1.01 2.4-1.89 3.9-1.89 1.8 0 4.7 1.03 4.7 4.21v8.81m3.2-17.46h-.2v17.5h6.9c3.8 0 6-1.87 6-4.99 0-2.76-2-4-3.3-4.29 1.5-.46 2.5-1.86 2.5-3.71 0-2.82-2-4.51-5.3-4.51h-6.6zm6.6 1.39c1.4 0 3.8.41 3.8 3.16 0 2.03-1.3 3.14-3.7 3.14h-5.3v-6.3h5.2zm.1 7.71c1.7 0 4.5.44 4.5 3.38 0 3.16-2.8 3.63-4.5 3.63h-5.3v-7.01h5.3m18 7.09h-.8c-.3 0-.7-.11-.7-1.14v-6.8c0-2.38-1.5-3.63-4.3-3.63-2.9 0-4.5 1.39-4.8 3.91v.15h1.5v-.12c0-.61.2-1.14.5-1.55.6-.72 1.5-1.1 2.7-1.1 2.8 0 3 1.76 3 2.3v.36c0 .79-.5 1-1.3 1.09-1.7.25-4 .64-5.3 1.42-.2.14-.9.56-1.2 1.21-.6.95-.6 2.43-.1 3.52.5 1.25 1.9 1.94 3.7 1.94 1.9 0 3.4-.83 4.2-2.33v.19c.1 1.26.7 1.87 1.9 1.87l1-.17V51.77zm-2.9-5.36v1.82c0 1-.8 3.85-4.1 3.85-1.6 0-2.7-.98-2.7-2.37 0-1.86 1.4-2.24 2.9-2.64 1.1-.31 2.8-.56 3.9-.66m9.1-6.15c-1.7 0-3.2.92-3.9 2.3v-1.96h-1.4v12.48h1.4v-6.97c0-2.73 1.6-4.56 3.9-4.56 2 0 3 1.21 3 3.69v7.84h1.4V45.3c0-1.23 0-4.98-4.4-4.98m10.8 5.03c.2-.16 4.9-4.69 4.9-4.69h-1.9s-5.9 5.57-6.3 5.99V35.64h-1.4v17.5h1.4v-4.71c.1-.1 2-1.84 2.2-2.02.2.25 4.6 6.73 4.6 6.73h1.8s-5.2-7.61-5.3-7.79"/></svg>