<svg xmlns="http://www.w3.org/2000/svg" viewBox="0 0 600 400"><path fill="#2E2A25" d="M236.955 360.667C149.465 360.667 78.29 289.49 78.29 202S149.465 43.334 236.954 43.334c26.206 0 52.177 6.525 75.108 18.87l-7.465 13.867c-20.645-11.113-44.035-16.986-67.643-16.986C158.15 59.084 94.04 123.196 94.04 202s64.11 142.917 142.915 142.917c.56 0 1.12-.003 1.677-.01l.185 15.75c-.62.007-1.24.01-1.862.01z"/><path fill="#2E2A25" d="M236.955 320.71c-65.457 0-118.71-53.253-118.71-118.71 0-65.458 53.253-118.712 118.71-118.712 19.76 0 39.33 4.957 56.593 14.334l-10.86 19.992c-13.94-7.573-29.754-11.576-45.733-11.576-52.914 0-95.96 43.048-95.96 95.962s43.047 95.96 95.96 95.96v22.75z"/><path fill="#2E2A25" d="M236.955 279.4c-42.68 0-77.402-34.72-77.402-77.4s34.722-77.403 77.402-77.403c12.585 0 25.083 3.092 36.145 8.943l-13.91 26.298c-6.888-3.644-14.37-5.49-22.235-5.49-26.275 0-47.652 21.375-47.652 47.65s21.377 47.653 47.652 47.653v29.75z"/><path fill="#2E2A25" d="M208.324 202.743c0-5.742.86-10.562 2.577-14.458a26.568 26.568 0 0 1 5.248-7.728c2.218-2.28 4.647-3.973 7.287-5.076 3.512-1.486 7.562-2.23 12.15-2.23 8.307 0 14.953 2.576 19.938 7.73 4.987 5.152 7.48 12.317 7.48 21.493 0 9.102-2.475 16.222-7.422 21.36-4.947 5.142-11.56 7.71-19.84 7.71-8.383 0-15.048-2.557-19.995-7.67-4.946-5.115-7.42-12.158-7.42-21.13zm11.728-.384c0 6.382 1.473 11.22 4.42 14.515 2.95 3.293 6.693 4.94 11.23 4.94 4.538 0 8.26-1.633 11.17-4.902 2.91-3.268 4.364-8.17 4.364-14.708 0-6.46-1.415-11.28-4.25-14.458-2.83-3.18-6.592-4.768-11.285-4.768-4.688 0-8.47 1.607-11.342 4.825-2.87 3.216-4.306 8.068-4.306 14.554zM274.172 230.583v-56.37h17.035l10.228 38.45 10.112-38.45h17.073v56.37h-10.573V186.21l-11.19 44.373h-10.96l-11.15-44.374v44.373h-10.575zM342.366 230.583v-56.37h18.266c6.92 0 11.433.28 13.535.845 3.23.846 5.934 2.685 8.114 5.518 2.178 2.832 3.27 6.492 3.27 10.977 0 3.462-.63 6.37-1.884 8.73-1.258 2.357-2.852 4.21-4.79 5.555-1.934 1.347-3.902 2.237-5.902 2.673-2.717.54-6.65.81-11.804.81h-7.422v21.262h-11.382zm11.38-46.835v15.996h6.232c4.484 0 7.484-.294 8.996-.884s2.698-1.512 3.558-2.77c.858-1.255 1.29-2.716 1.29-4.384 0-2.05-.604-3.74-1.81-5.076-1.204-1.33-2.73-2.165-4.576-2.5-1.36-.255-4.088-.384-8.19-.384h-5.5zM442.324 230.583H429.94l-4.92-12.804h-22.532l-4.654 12.803H385.76l21.957-56.37h12.035l22.572 56.37zm-20.957-22.303l-7.767-20.918-7.614 20.918h15.38zM447.917 212.242l11.074-1.077c.668 3.717 2.02 6.446 4.058 8.19 2.037 1.742 4.787 2.614 8.248 2.614 3.666 0 6.427-.777 8.287-2.327 1.858-1.552 2.787-3.365 2.787-5.44 0-1.334-.39-2.47-1.172-3.404-.783-.938-2.148-1.75-4.096-2.443-1.333-.46-4.37-1.282-9.112-2.46-6.1-1.513-10.382-3.37-12.843-5.577-3.46-3.1-5.19-6.882-5.19-11.343 0-2.87.813-5.556 2.44-8.056 1.63-2.498 3.973-4.4 7.038-5.71 3.062-1.306 6.76-1.96 11.093-1.96 7.075 0 12.4 1.55 15.977 4.653 3.575 3.102 5.453 7.243 5.633 12.42l-11.382.5c-.487-2.897-1.53-4.98-3.134-6.248-1.6-1.27-4.006-1.904-7.208-1.904-3.31 0-5.898.68-7.77 2.04-1.204.872-1.805 2.037-1.805 3.498 0 1.333.563 2.475 1.69 3.423 1.437 1.206 4.923 2.462 10.46 3.768 5.537 1.31 9.632 2.66 12.286 4.057 2.652 1.398 4.73 3.307 6.23 5.73 1.498 2.422 2.248 5.416 2.248 8.977 0 3.23-.897 6.257-2.692 9.075-1.794 2.822-4.332 4.917-7.613 6.287-3.282 1.372-7.372 2.058-12.266 2.058-7.128 0-12.6-1.647-16.42-4.94-3.822-3.295-6.103-8.094-6.847-14.4zM295.427 272.407h3.107v.154c0 1.324.467 2.245 1.4 2.763s2.174.776 3.722.776c1.354 0 2.488-.396 3.408-1.185.916-.79 1.376-1.832 1.376-3.126 0-1.047-.395-1.905-1.183-2.57-.79-.657-1.988-1.313-3.594-1.97l-1.246-.51c-1.69-.696-2.95-1.387-3.785-2.07-.836-.683-1.458-1.438-1.866-2.27-.41-.83-.615-1.76-.615-2.786 0-1.805.638-3.33 1.913-4.57 1.275-1.242 3.27-1.863 5.985-1.863 2.49 0 4.24.462 5.255 1.385 1.013.923 1.52 2 1.52 3.23v.154h-3.106v-.155c0-.39-.156-.774-.468-1.154s-.782-.654-1.406-.82a7.78 7.78 0 0 0-2.058-.256c-1.524 0-2.654.383-3.385 1.147-.73.765-1.096 1.635-1.096 2.61 0 .657.174 1.276.523 1.855.347.58.825 1.06 1.436 1.44s1.635.888 3.08 1.523l1.46.63c2.335 1.016 3.895 2.08 4.685 3.2.778 1.117 1.167 2.322 1.167 3.612 0 1.2-.318 2.36-.954 3.483-.635 1.12-1.517 1.972-2.645 2.552s-2.63.868-4.507.868c-1.784 0-3.274-.212-4.47-.637-1.194-.424-2.1-1.12-2.72-2.094a5.797 5.797 0 0 1-.93-3.19v-.155zM327.207 278.482c-2.984 0-5.42-1.097-7.306-3.292s-2.83-5.317-2.83-9.367.944-7.17 2.83-9.358c1.888-2.19 4.323-3.285 7.307-3.285s5.42 1.095 7.314 3.285c1.89 2.19 2.838 5.308 2.838 9.358s-.947 7.173-2.837 9.367c-1.892 2.195-4.33 3.292-7.313 3.292zm.007-2.384c2.177 0 3.876-.937 5.098-2.81s1.832-4.358 1.832-7.458c0-3.088-.61-5.57-1.832-7.45s-2.92-2.815-5.098-2.815c-2.165 0-3.862.938-5.088 2.816-1.227 1.88-1.84 4.362-1.84 7.45 0 3.1.613 5.585 1.84 7.458 1.225 1.873 2.922 2.81 5.088 2.81zM343.854 277.76v-23.872h3.107v21.24h12.52v2.63h-15.626zM364.683 253.888h3.107v15.36c0 2.237.217 3.738.653 4.503.436.765 1.116 1.348 2.04 1.748s1.952.6 3.09.6c1.098 0 2.07-.2 2.917-.6a3.894 3.894 0 0 0 1.89-1.9c.417-.868.624-2.68.624-5.44v-14.27h2.86v15.06c0 2.788-.32 4.747-.96 5.874s-1.566 2.02-2.776 2.676-2.733.984-4.568.984c-1.702 0-3.26-.26-4.676-.784s-2.47-1.335-3.16-2.437c-.694-1.1-1.04-2.97-1.04-5.606v-15.766zM395.173 277.76V256.27h-8.12v-2.384h19.225v2.384h-7.998v21.487h-3.107zM414.91 277.76h-3.107v-23.872h3.107v23.87zM431.542 278.482c-2.984 0-5.42-1.097-7.306-3.292s-2.83-5.317-2.83-9.367.943-7.17 2.83-9.358c1.887-2.19 4.322-3.285 7.306-3.285s5.42 1.095 7.314 3.285c1.89 2.19 2.837 5.308 2.837 9.358s-.947 7.173-2.837 9.367c-1.893 2.195-4.33 3.292-7.314 3.292zm.007-2.384c2.176 0 3.875-.937 5.097-2.81s1.832-4.358 1.832-7.458c0-3.088-.61-5.57-1.833-7.45s-2.92-2.815-5.098-2.815c-2.166 0-3.863.938-5.09 2.816-1.226 1.88-1.84 4.362-1.84 7.45 0 3.1.614 5.585 1.84 7.458 1.227 1.873 2.924 2.81 5.09 2.81zM451.048 277.76h-2.86v-23.872h3.075l10.908 16.962.997 1.895-.062-1.876v-16.98h2.86v23.87h-3.044l-10.94-17.04-.993-1.926.062 1.923v17.042zM472.725 272.407h3.107v.154c0 1.324.467 2.245 1.4 2.763s2.174.776 3.722.776c1.354 0 2.488-.396 3.408-1.185.916-.79 1.376-1.832 1.376-3.126 0-1.047-.395-1.905-1.183-2.57-.79-.657-1.988-1.313-3.594-1.97l-1.245-.51c-1.69-.696-2.95-1.387-3.785-2.07-.836-.683-1.458-1.438-1.866-2.27-.41-.83-.615-1.76-.615-2.786 0-1.805.636-3.33 1.91-4.57 1.276-1.242 3.272-1.863 5.986-1.863 2.49 0 4.24.462 5.255 1.385 1.014.923 1.522 2 1.522 3.23v.154h-3.107v-.155c0-.39-.156-.774-.468-1.154-.313-.378-.78-.654-1.405-.82a7.78 7.78 0 0 0-2.058-.256c-1.524 0-2.654.383-3.385 1.147-.732.765-1.098 1.635-1.098 2.61 0 .657.174 1.276.523 1.855.347.58.825 1.06 1.436 1.44s1.636.888 3.08 1.523l1.46.63c2.336 1.016 3.896 2.08 4.686 3.2.778 1.117 1.167 2.322 1.167 3.612 0 1.2-.318 2.36-.954 3.483a6.3 6.3 0 0 1-2.647 2.552c-1.128.58-2.63.868-4.507.868-1.784 0-3.274-.212-4.47-.637-1.194-.424-2.1-1.12-2.72-2.094a5.797 5.797 0 0 1-.93-3.19v-.155z"/></svg>