<svg xmlns="http://www.w3.org/2000/svg" viewBox="0 0 600 200"><path d="M97.11 134.116H50.757c-1.85 0-3.612-.376-5.21-1.053a13.174 13.174 0 0 1-4.224-2.855 13.076 13.076 0 0 1-2.82-4.21 13.016 13.016 0 0 1-.988-5.13s.032-2.377.097-5.886c.03-1.75.073-3.774.12-5.91a1415.835 1415.835 0 0 1 .372-12.9c.062-1.98.132-3.788.185-5.307.116-3.04.198-5.002.198-5.002l.37-8.06.13-2.518-8.488.48-.786 9.86-.575 8.65s-.12 2.088-.285 5.303c-.085 1.608-.173 3.52-.264 5.598-.087 2.077-.178 4.33-.257 6.62a587.92 587.92 0 0 0-.197 6.807 573.27 573.27 0 0 0-.13 6.05c-.052 3.572-.075 5.975-.075 5.975-.008 3.63 1.432 6.93 3.783 9.332a13.055 13.055 0 0 0 9.26 3.943s2.428.012 6.09.018c1.827.004 3.965.004 6.254 0 2.282 0 4.717-.01 7.14-.028 2.424-.017 4.818-.04 7.048-.065 2.23-.023 4.283-.053 6.026-.08 3.48-.05 5.757-.09 5.757-.09l9.53-.21 5.514-.16c2.74-.078 5.47-.158 5.47-.158l.123-9.014H97.11z"/><path d="M122.775 107.634l-.57-5.158-1.16-7.886s-.3-1.734-.773-4.26a283.2 283.2 0 0 0-1.828-8.98 327.966 327.966 0 0 0-1.977-8.39 237.2 237.2 0 0 0-.933-3.63c-.575-2.06-1.948-4.127-3.732-5.8-1.778-1.665-3.984-2.962-6.196-3.522 0 0-1.526-.355-3.873-.875a272.022 272.022 0 0 0-18.21-3.368c-2.614-.384-4.392-.628-4.392-.628l-7.99-.852s-2.564-.18-5.14-.35c-2.57-.172-5.146-.336-5.146-.336l.346 5.228 2.837.138 8.458.622s1.895.188 4.682.51a285.52 285.52 0 0 1 9.998 1.344c3.544.55 6.977 1.153 9.488 1.628 2.517.472 4.148.807 4.148.807 2.383.528 4.724 1.854 6.59 3.603 1.866 1.748 3.28 3.94 3.82 6.16 0 0 .352 1.536.874 3.91a321.186 321.186 0 0 1 1.82 9.03 298.85 298.85 0 0 1 1.642 9.665c.41 2.725.67 4.583.67 4.583l.955 8.432.26 2.87 5.89.68c.003 0-.273-2.59-.555-5.176m-10.368 7.855l-.75-8.892s-.218-1.97-.57-4.858c-.176-1.45-.393-3.113-.64-4.867-.243-1.757-.51-3.603-.798-5.41a336.44 336.44 0 0 0-1.66-9.624c-.476-2.524-.805-4.16-.805-4.16-.51-2.37-1.948-4.675-3.89-6.496-1.942-1.82-4.4-3.17-6.935-3.655 0 0-1.734-.31-4.4-.74a315.484 315.484 0 0 0-4.62-.704 288.505 288.505 0 0 0-5.432-.736 257.62 257.62 0 0 0-5.583-.643 253.872 253.872 0 0 0-4.97-.475c-2.94-.255-4.923-.396-4.923-.396l-8.822-.4s-2.787-.025-5.57-.043c-2.785-.012-5.567-.012-5.567-.012l-.196 8.483-.15 7.537-.082 4.717c-.02 1.44-.047 3.15-.076 5.02-.03 1.876-.06 3.918-.09 6.012-.028 2.088-.052 4.232-.08 6.277-.02 2.045-.042 3.99-.06 5.686-.035 3.385-.053 5.7-.053 5.7-.03 3.56 1.444 6.817 3.855 9.2a13.495 13.495 0 0 0 4.236 2.833 13.52 13.52 0 0 0 5.193 1.053s2.418.014 6.003.043c1.79.018 3.86.04 6.05.065 2.192.023 4.495.053 6.762.094 2.268.035 4.492.073 6.54.108 2.047.038 3.925.073 5.503.108 3.15.07 5.19.117 5.19.117l8.405.223 9.523.3s-.117-2.88-.255-5.745c-.13-2.866-.283-5.724-.283-5.724m-11.57-3.074c-1.12 1.285-2.753 2.02-4.654 1.895 0 0-1.314-.078-3.327-.19a1099.32 1099.32 0 0 0-15.326-.75c-2.165-.088-3.626-.144-3.626-.144l-6.62-.19-8.466-.153-.117-8.153-.116-6.258-.073-3.362a2777.143 2777.143 0 0 0-.443-17.134c-.052-1.71.746-3.207 2.072-4.25 1.325-1.04 3.18-1.635 5.245-1.538a438.143 438.143 0 0 1 10.65.85c2.63.24 5.21.51 7.14.722 1.926.21 3.194.358 3.194.358l5.337.75 6.378 1.04 1.06 5.95.81 5.035s.682 4.858 1.296 9.948c.304 2.548.592 5.144.797 7.11.208 1.966.34 3.295.34 3.295.163 2.06-.436 3.886-1.55 5.17M171.182 81.18l-1.42 8.704c-1.21-1.047-2.52-1.842-3.943-2.382-1.42-.534-2.9-.804-4.437-.804-2.61 0-4.77.91-6.46 2.734-1.696 1.822-2.54 4.15-2.54 6.977 0 2.557.71 4.53 2.13 5.93 1.425 1.4 3.432 2.102 6.03 2.102 1.116 0 2.272-.135 3.457-.408a23.324 23.324 0 0 0 3.732-1.226l-1.308 8.16c-1.077.345-2.265.603-3.565.785-1.3.182-2.706.273-4.21.273-4.496 0-8.095-1.394-10.803-4.18-2.705-2.782-4.057-6.485-4.057-11.09 0-2.225.35-4.35 1.047-6.364a17.672 17.672 0 0 1 3.063-5.504c1.584-1.926 3.553-3.396 5.915-4.417 2.365-1.02 5.008-1.525 7.933-1.525 1.67 0 3.28.182 4.847.557 1.566.374 3.097.934 4.587 1.68M170.384 101.385c0-3.69 1.21-6.718 3.62-9.09 2.41-2.367 5.498-3.555 9.26-3.555 3.473 0 6.254.986 8.33 2.954 2.084 1.966 3.128 4.597 3.128 7.877 0 3.65-1.22 6.655-3.66 9.005-2.442 2.356-5.587 3.532-9.436 3.532-3.403 0-6.126-.977-8.173-2.925-2.045-1.953-3.07-4.552-3.07-7.797m12.73-6.396c-1.492 0-2.757.627-3.798 1.883-1.045 1.255-1.567 2.79-1.567 4.6 0 1.335.38 2.394 1.144 3.186.76.785 1.772 1.18 3.04 1.18 1.59 0 2.904-.606 3.925-1.818 1.027-1.212 1.54-2.767 1.54-4.662 0-1.35-.384-2.417-1.147-3.198-.774-.78-1.816-1.173-3.136-1.173M195.28 111.225l3.45-21.75h6.736l-.475 3.62c1.052-1.48 2.157-2.568 3.322-3.263 1.162-.7 2.44-1.045 3.832-1.045 1.614 0 2.928.33 3.955.992 1.026.66 1.883 1.736 2.57 3.226 1.108-1.478 2.23-2.552 3.373-3.218 1.138-.666 2.39-1 3.755-1 2.2 0 3.873.606 5.03 1.818 1.155 1.215 1.733 2.98 1.733 5.31a20.943 20.943 0 0 1-.366 3.896l-1.807 11.412h-7.17l1.807-11.518c.03-.173.047-.355.065-.54.017-.188.017-.46.017-.82 0-1.104-.235-1.93-.71-2.486-.475-.554-1.173-.83-2.11-.83-1.246 0-2.214.466-2.895 1.402-.68.933-1.185 2.496-1.52 4.694l-1.508 10.098h-7.188l1.807-11.518c.012-.06.026-.14.04-.26.1-.69.153-1.17.153-1.445 0-.958-.24-1.698-.722-2.202-.48-.51-1.17-.768-2.077-.768-1.238 0-2.183.446-2.846 1.335-.66.895-1.16 2.48-1.504 4.762l-1.593 10.098h-7.153zM231.765 120.832l4.976-31.358h7.24l-.48 3.02c1.08-1.24 2.26-2.163 3.54-2.782a9.238 9.238 0 0 1 4.09-.924c2.51 0 4.564.933 6.157 2.81 1.593 1.873 2.39 4.302 2.39 7.29 0 3.76-1.08 6.885-3.244 9.37-2.16 2.48-4.867 3.725-8.127 3.725-1.467 0-2.787-.317-3.972-.94-1.185-.624-2.3-1.59-3.35-2.895 0 .69-.017 1.323-.053 1.904-.034.584-.087 1.09-.16 1.52l-1.423 9.26h-7.582zm20.026-20.98c0-1.39-.422-2.507-1.278-3.355-.857-.848-1.972-1.273-3.35-1.273-1.53 0-2.808.593-3.82 1.766-1.012 1.18-1.52 2.658-1.52 4.436 0 1.35.422 2.44 1.27 3.265s1.954 1.236 3.318 1.236c1.566 0 2.852-.57 3.867-1.71 1.01-1.14 1.514-2.593 1.514-4.363M264.5 89.474h7.625l-1.423 9c-.17 1.198-.305 2.19-.405 2.987-.103.8-.153 1.315-.153 1.562 0 1.03.247 1.825.74 2.37.498.547 1.22.817 2.164.817 2.212 0 3.708-2.506 4.483-7.517.042-.27.077-.48.107-.622l1.355-8.595h7.645l-1.55 9.843-.064.455c-.763 4.665-1.942 7.78-3.553 9.347-1.018.974-2.268 1.708-3.74 2.203-1.468.496-3.13.742-4.983.742-3.204 0-5.727-.722-7.57-2.17-1.844-1.45-2.77-3.422-2.77-5.904 0-.57.054-1.293.154-2.16.1-.873.3-2.21.605-4.02l1.335-8.336zM293.726 111.225h-4.935l4.137-31.528h6.525c2.51 0 4.318.14 5.427.43a7.826 7.826 0 0 1 2.95 1.465 7.278 7.278 0 0 1 2.172 2.79c.505 1.113.757 2.36.757 3.736 0 1.622-.29 3.074-.875 4.365a8.372 8.372 0 0 1-2.53 3.213c-.947.748-2.06 1.282-3.338 1.596-1.276.314-3.257.475-5.92.475h-2.605l-1.766 13.458zm2.347-17.96h1.658c3.102 0 5.214-.37 6.34-1.11 1.128-.736 1.694-2.012 1.694-3.82 0-1.523-.472-2.594-1.423-3.21-.944-.616-2.775-.93-5.49-.93h-1.59l-1.187 9.07zM328.383 111.225h-4.627l.34-2.238c-.798 1.018-1.73 1.78-2.775 2.28-1.05.504-2.252.757-3.613.757-2.676 0-4.738-.845-6.196-2.53-1.457-1.686-2.182-4.08-2.182-7.18 0-3.662.89-6.617 2.67-8.855 1.778-2.236 4.113-3.36 7-3.36 1.36 0 2.63.284 3.796.854 1.174.566 2.253 1.43 3.245 2.593l.404-2.734h4.635l-2.697 20.412zm-14.255-9.558c0 1.948.452 3.473 1.36 4.562.905 1.093 2.16 1.64 3.765 1.64 1.85 0 3.318-.743 4.392-2.222 1.08-1.48 1.62-3.518 1.62-6.114 0-1.766-.48-3.17-1.444-4.21-.96-1.04-2.264-1.56-3.898-1.56-1.766 0-3.172.706-4.222 2.13-1.047 1.42-1.572 3.346-1.572 5.773M346.775 94.9a3.696 3.696 0 0 0-1.02-.527 3.76 3.76 0 0 0-1.174-.182c-1.648 0-2.95.61-3.898 1.834-.948 1.218-1.587 3.1-1.916 5.642l-1.29 9.558h-4.63l2.692-20.413h4.453l-.342 2.647c.807-1.132 1.687-1.977 2.637-2.53a6.09 6.09 0 0 1 3.092-.83c.5 0 .997.063 1.485.197.49.13.962.33 1.426.6l-1.513 4.007zM351.856 111.225l2.153-16.453h-3.533l.54-3.957h3.49l1.01-7.735h4.63l-.968 7.735h3.7l-.533 3.957h-3.702l-2.157 16.453h-4.632zM377.702 104.958l3.34 2.608c-1.195 1.564-2.49 2.708-3.88 3.424-1.39.72-2.994 1.074-4.8 1.074-3.032 0-5.48-.912-7.345-2.746-1.866-1.825-2.8-4.236-2.8-7.223 0-3.503 1.072-6.378 3.216-8.622 2.147-2.25 4.882-3.374 8.197-3.374 2.775 0 4.98.858 6.622 2.572 1.643 1.72 2.467 4.02 2.467 6.9 0 .246-.013.56-.036.94-.018.38-.053.838-.094 1.366h-15.57c0 1.854.467 3.33 1.4 4.43.932 1.097 2.173 1.643 3.725 1.643 1.077 0 2.098-.26 3.07-.782a7.393 7.393 0 0 0 2.487-2.21m-10.274-6.392h10.532c-.04-1.38-.475-2.467-1.282-3.265-.81-.797-1.898-1.196-3.266-1.196-1.55 0-2.863.405-3.94 1.21s-1.756 1.887-2.044 3.252M386.207 105.216c.76 1.065 1.605 1.878 2.52 2.435.92.562 1.878.84 2.863.84.977 0 1.76-.217 2.347-.654.592-.44.886-1.015.886-1.734 0-1.02-1.09-2.136-3.274-3.34l-.177-.087c-2.08-1.18-3.447-2.195-4.102-3.045-.65-.856-.976-1.886-.976-3.092 0-1.924.71-3.485 2.13-4.682 1.423-1.203 3.27-1.8 5.554-1.8 1.397 0 2.682.26 3.858.776 1.176.52 2.28 1.303 3.318 2.347l-2.863 2.97c-.662-.815-1.4-1.442-2.217-1.87a5.475 5.475 0 0 0-2.587-.647c-.728 0-1.355.217-1.872.666-.516.442-.774.967-.774 1.57 0 .99.915 1.938 2.752 2.844.678.346 1.2.616 1.573.82 1.596.876 2.693 1.745 3.297 2.613.604.87.904 1.942.904 3.22 0 2.037-.71 3.662-2.13 4.877s-3.333 1.822-5.733 1.822c-1.572 0-3.045-.32-4.4-.96-1.356-.64-2.553-1.566-3.59-2.787l2.694-3.104zM216.037 143.395l-1.85-2.47c-1.084 1.053-2.154 1.822-3.21 2.303a8.09 8.09 0 0 1-3.41.728c-1.79 0-3.22-.516-4.295-1.55-1.07-1.032-1.605-2.41-1.605-4.12 0-1.46.443-2.738 1.335-3.84.892-1.107 2.44-2.272 4.65-3.486-.6-.99-1.036-1.845-1.297-2.558-.267-.716-.396-1.39-.396-2.036 0-1.396.44-2.496 1.32-3.31.88-.803 2.085-1.21 3.616-1.21 1.476 0 2.643.366 3.5 1.1.866.732 1.297 1.724 1.297 2.977 0 1.088-.346 2.074-1.033 2.948-.692.875-1.86 1.8-3.503 2.768a65.23 65.23 0 0 0 1.663 2.544c.593.857 1.235 1.754 1.92 2.682l2.7-2.972 1.713 2.01-2.975 3.116 3.303 4.38h-3.443v-.003zm-3.29-4.65a68.31 68.31 0 0 1-1.806-2.634 78.147 78.147 0 0 1-1.894-3.065c-1.655.96-2.822 1.82-3.497 2.59-.676.77-1.01 1.603-1.01 2.49 0 .932.31 1.695.945 2.293s1.438.898 2.41.898c.738 0 1.49-.205 2.266-.61.77-.412 1.632-1.063 2.588-1.96m-2.828-9.078c1.273-.89 2.112-1.573 2.514-2.048.402-.47.6-.945.6-1.426 0-.604-.193-1.07-.58-1.408-.387-.335-.927-.502-1.614-.502-.65 0-1.168.185-1.555.554-.38.367-.57.857-.57 1.473 0 .438.1.934.294 1.477.194.55.5 1.174.91 1.88M257.843 143.395l12.178-21.85 7.676 21.85h-3.415l-1.707-4.97h-8.367l-2.775 4.97h-3.587zm7.68-7.768h6.147l-1.623-5.196a11.8 11.8 0 0 1-.243-.99c-.088-.412-.194-.955-.317-1.624-.21.496-.417.97-.628 1.417-.2.443-.406.863-.608 1.256l-2.728 5.137zM311.68 123.753l-.527 3.588c-.816-.847-1.696-1.486-2.65-1.897-.953-.42-1.985-.628-3.11-.628-1.146 0-2.214.2-3.194.598a6.85 6.85 0 0 0-2.506 1.714 9.234 9.234 0 0 0-1.872 3.007 9.787 9.787 0 0 0-.65 3.524c0 2.165.66 3.925 1.982 5.286 1.326 1.355 3.045 2.036 5.152 2.036a8.5 8.5 0 0 0 3.034-.546c.974-.36 1.916-.9 2.822-1.62l-.734 4.02c-.956.37-1.878.65-2.758.84-.877.187-1.725.277-2.538.277-3.066 0-5.536-.935-7.416-2.804-1.884-1.872-2.82-4.327-2.82-7.373 0-1.684.297-3.286.896-4.802.6-1.516 1.45-2.824 2.55-3.927a10.48 10.48 0 0 1 3.518-2.338c1.32-.537 2.734-.804 4.245-.804 1.36 0 2.587.154 3.67.456a9.2 9.2 0 0 1 2.906 1.397M346.11 123.753l-.532 3.588c-.813-.847-1.696-1.486-2.646-1.897-.957-.42-1.99-.628-3.11-.628-1.147 0-2.215.2-3.198.598a6.874 6.874 0 0 0-2.505 1.714 9.134 9.134 0 0 0-1.873 3.007 9.723 9.723 0 0 0-.65 3.524c0 2.165.662 3.925 1.982 5.286 1.33 1.355 3.044 2.036 5.15 2.036 1.054 0 2.066-.18 3.038-.546.97-.36 1.913-.9 2.82-1.62l-.73 4.02c-.96.37-1.876.65-2.76.84-.876.187-1.724.277-2.537.277-3.065 0-5.535-.935-7.416-2.804-1.878-1.872-2.822-4.327-2.822-7.373 0-1.684.3-3.286.898-4.802.598-1.516 1.446-2.824 2.547-3.927a10.59 10.59 0 0 1 3.52-2.338c1.32-.537 2.734-.804 4.245-.804 1.364 0 2.585.154 3.67.456a9.228 9.228 0 0 1 2.907 1.397M362.347 143.395l2.758-21.02h11.8l-.376 2.975h-8.536l-.677 5.28h8.508l-.385 2.946h-8.537l-.877 6.79h8.534l-.413 3.03h-11.8zM391.78 139.778l2.31-1.913c.576 1.15 1.192 1.98 1.855 2.49.657.514 1.432.772 2.324.772 1.108 0 2.012-.326 2.698-.977.692-.648 1.033-1.5 1.033-2.544 0-.733-.18-1.36-.545-1.872-.36-.51-1.003-1.04-1.918-1.572-.2-.117-.478-.276-.85-.49-1.57-.87-2.63-1.605-3.176-2.206a4.27 4.27 0 0 1-.88-1.493 5.5 5.5 0 0 1-.292-1.842c0-1.847.593-3.35 1.778-4.51 1.185-1.163 2.734-1.747 4.653-1.747 1.29 0 2.422.264 3.396.792.968.525 1.772 1.31 2.4 2.353l-2.007 1.85c-.47-.765-.992-1.337-1.568-1.71a3.46 3.46 0 0 0-1.924-.557c-1.033 0-1.872.303-2.51.908-.64.6-.963 1.385-.963 2.338 0 1.147.92 2.22 2.77 3.215.46.242.81.432 1.05.576 1.414.824 2.417 1.675 3.004 2.56.59.887.885 1.972.885 3.255 0 1.99-.64 3.57-1.924 4.748-1.278 1.167-3.024 1.757-5.227 1.757-1.49 0-2.764-.346-3.82-1.033-1.064-.69-1.915-1.742-2.554-3.144M435.157 121.873c3.198 0 5.738.93 7.634 2.793s2.84 4.35 2.84 7.472c0 1.672-.307 3.254-.926 4.735a11.265 11.265 0 0 1-2.63 3.852 11.488 11.488 0 0 1-3.82 2.374c-1.44.55-2.98.823-4.617.823-3.05 0-5.515-.936-7.387-2.813-1.878-1.878-2.816-4.34-2.816-7.393 0-1.702.305-3.297.904-4.788a10.976 10.976 0 0 1 2.6-3.856 11.337 11.337 0 0 1 3.742-2.368 12.247 12.247 0 0 1 4.477-.833m7.17 10.32c0-2.208-.668-3.992-2.01-5.344-1.345-1.356-3.12-2.034-5.332-2.034a8.11 8.11 0 0 0-3.12.616 7.52 7.52 0 0 0-2.575 1.766 9.01 9.01 0 0 0-1.922 2.946 9.224 9.224 0 0 0-.66 3.456c0 2.194.663 3.972 1.99 5.333 1.325 1.367 3.044 2.048 5.168 2.048 2.4 0 4.412-.835 6.032-2.516 1.623-1.682 2.43-3.767 2.43-6.27M466.02 143.395h-3.26l2.757-21.02h3.79c1.673 0 2.882.096 3.615.29.74.19 1.396.513 1.97.97.64.5 1.13 1.122 1.468 1.873.34.745.516 1.572.516 2.482 0 1.73-.478 3.145-1.426 4.233-.945 1.09-2.288 1.78-4.02 2.054l5.816 9.118h-3.702l-5.557-9.004h-.763l-1.203 9.005zm1.52-11.673h.663c2.065 0 3.47-.258 4.22-.775.744-.516 1.12-1.408 1.12-2.673 0-1.07-.317-1.822-.94-2.256-.633-.428-1.853-.643-3.672-.643h-.527l-.863 6.347zM493.897 143.395l2.758-21.02h3.356l-2.798 21.02h-3.315zM528.865 121.873c3.195 0 5.738.93 7.63 2.793 1.896 1.863 2.847 4.35 2.847 7.472 0 1.672-.31 3.254-.927 4.735a11.366 11.366 0 0 1-2.635 3.852 11.432 11.432 0 0 1-3.814 2.374c-1.45.55-2.987.823-4.62.823-3.055 0-5.52-.936-7.39-2.813-1.876-1.878-2.81-4.34-2.81-7.393 0-1.702.298-3.297.903-4.788a10.93 10.93 0 0 1 2.595-3.856 11.3 11.3 0 0 1 3.744-2.368 12.238 12.238 0 0 1 4.475-.833m7.173 10.32c0-2.208-.675-3.992-2.016-5.344-1.347-1.356-3.12-2.034-5.328-2.034a8.11 8.11 0 0 0-3.12.616 7.53 7.53 0 0 0-2.575 1.766 8.873 8.873 0 0 0-1.925 2.946 9.22 9.22 0 0 0-.657 3.456c0 2.194.663 3.972 1.99 5.333 1.32 1.367 3.044 2.048 5.166 2.048 2.403 0 4.41-.835 6.032-2.516 1.622-1.682 2.432-3.767 2.432-6.27M555.202 139.778l2.312-1.913c.575 1.15 1.19 1.98 1.854 2.49.657.514 1.438.772 2.323.772 1.113 0 2.013-.326 2.703-.977.69-.648 1.03-1.5 1.03-2.544 0-.733-.18-1.36-.546-1.872-.36-.51-1.003-1.04-1.92-1.572-.193-.117-.474-.276-.85-.49-1.567-.87-2.626-1.605-3.174-2.206a4.363 4.363 0 0 1-.88-1.493 5.5 5.5 0 0 1-.294-1.842c0-1.847.592-3.35 1.777-4.51s2.74-1.747 4.653-1.747c1.29 0 2.423.264 3.397.792.968.525 1.772 1.31 2.406 2.353l-2.013 1.85c-.47-.765-.992-1.337-1.564-1.71a3.466 3.466 0 0 0-1.927-.557c-1.034 0-1.867.303-2.513.908-.64.6-.962 1.385-.962 2.338 0 1.147.924 2.22 2.77 3.215.464.242.813.432 1.05.576 1.417.824 2.417 1.675 3.01 2.56.587.887.88 1.972.88 3.255 0 1.99-.64 3.57-1.922 4.748-1.282 1.167-3.025 1.757-5.228 1.757-1.493 0-2.767-.346-3.826-1.033-1.058-.69-1.906-1.742-2.548-3.144"/></svg>