<svg xmlns="http://www.w3.org/2000/svg" viewBox="543 -157.9 1199.94 372.59"><path d="M993.865 22.413c-3.12-8.36-7.477-15.544-12.953-22.02-5.77-6.478-12.482-11.246-19.9-14.604-7.42-3.298-15.31-5.005-23.967-5.005-8.596 0-16.485 1.707-23.904 5.063-7.418 3.357-14.13 8.127-19.902 14.603-5.475 6.242-9.773 13.662-12.658 21.787-3.12 8.42-4.535 17.547-4.535 27.084 0 9.835 1.414 18.667 4.594 26.852 2.825 8.36 7.182 15.543 12.658 22.02 5.77 6.417 12.483 11.245 19.9 14.603 7.42 3.592 15.31 5.24 23.966 5.24 8.36 0 16.25-1.71 23.963-5.3 7.42-3.356 13.838-8.126 19.61-14.602 5.71-6.477 10.067-13.897 12.893-22.08 3.12-8.36 4.534-17.252 4.534-26.79 0-9.6-1.414-18.724-4.3-26.85M951 67.22c-3.592 4.595-8.125 6.714-13.896 6.714-5.71 0-10.54-2.12-13.895-6.654-3.593-4.592-5.24-10.54-5.24-17.96 0-7.417 1.647-13.423 5.24-17.956 3.355-4.594 8.124-6.95 13.894-7.008 5.712 0 10.304 2.414 13.896 6.95 3.593 4.532 5.24 10.538 5.24 17.958.06 7.418-1.647 13.424-5.24 17.957M1388.717-53.836l-43.69 171.753-52.226.06-12.718-65.122c-.295-1.002-.53-2.648-.765-4.59-2.12-11.72-3.356-20.552-3.592-27.028h-2.178c-.236 6.476-1.414 15.308-3.768 27.027-.237 1.943-.768 3.59-1.002 4.59l-12.366 65.122-52.226.06-46.574-181.764-2.415-9.303 2.415-.06h57.7l13.25 84.258c1.178 7.478 1.885 14.13 2.65 20.373.47 6.007.943 11.718 1.177 17.253h1.177c.236-7.654 1.472-17.488 3.59-29.97.236-1.18.472-1.886.472-2.59l15.78-89.382h42.157l15.84 89.324c0 .47.236 1.412.47 2.648 2.18 12.424 3.356 22.258 3.356 29.912h1.472c.237-5.535.47-11.246 1.178-17.252.47-6.242 1.414-12.954 2.592-20.373l13.13-84.318h60.116l-5.003 19.372zM1470.385-12.797h-45.694l-35.858 114.994-4.77 15.838h4.77l39.274-.06 3.59-16.25 15.31-.06h15.545l3.65 16.31 44.04-.058-39.858-130.714zm-23.377 83.375h-8.654l3.59-14.896c1.65-7.655 2.884-13.368 3.59-17.49.474-4.06.945-7.653 1.415-11.245h.236c.234 3.592.763 7.184 1.234 11.246.707 4.12 1.885 9.834 3.594 17.49l3.355 14.895h-8.362zM1592.384 64.807c6.654-.94 12.19-4.533 16.017-10.54 4.062-6.005 5.947-13.66 5.947-22.963 0-14.132-3.827-25.14-11.717-32.796-7.95-7.42-19.43-11.246-34.268-11.246h-51.756l.118 130.773h40.214v-43.1l9.303 20.077 10.6 23.023 45.985-.06-30.44-53.168zm-20.137-21.49c-1.47 1.412-3.592 2.59-6.006 2.824-.94.238-1.942.238-2.884.238l-6.476.06V21h6.476c.942 0 1.885 0 2.885.236 2.357.235 4.536 1.472 5.948 3.12 2.18 2.18 3.122 5.3 3.122 9.598.058 4.062-.942 7.183-3.063 9.363M1630.952 118.035l-.12-130.773 76.43-.06V22.65l-36.156.057v12.66h32.858V68.87l-32.797.058V82.53h37.094l.06 35.444-77.368.06zM1157.73 100.664v17.252l-37.86.06-5.064-51.755c-.236-4.063-.706-7.89-.943-11.952l-.705-11.953c-.53 3.828-1.238 7.654-1.945 11.953-.942 4.063-1.883 8.596-3.356 13.424l-12.894 50.284h-24.436l-13.19-50.284c-1.177-4.768-2.413-9.303-3.12-13.365-.942-4.358-1.707-8.184-1.943-12.012-.47 4.062-.706 8.125-.942 12.012-.234 4.062-.47 7.89-.94 11.953l-4.77 51.755h-40.452l19.55-130.774h42.393l8.184 32.268c.236 1.002.472 2.65.943 4.592 3.59 13.662 5.77 24.908 6.475 33.74h.707c.472-5.477 1.473-11.483 2.65-17.723 1.413-6.242 3.12-13.426 5.004-21.08l8.598-31.855h42.157l15.9 113.462zM706.54 16.893l.17 8.492-1.016 3.567-2.542 2.717-3.56 1.188H681.797l-3.728-1.02-2.713-2.547-1.017-3.565V17.4l.848-3.735 2.542-2.717 3.56-1.02h17.794l3.73.85 2.71 2.548 1.017 3.567zm-39.878-4.446l-3.535-1.02h-17.67l-3.703.85-2.694 2.547-1.01 3.57v8.49l.842 3.567 2.524 2.718 3.535 1.19h17.673l3.703-1.02 2.692-2.548 1.01-3.565.17-.34V18.9l-1.012-3.735-2.524-2.718zm2.356-30.476l-2.692-2.52-3.703-.84H644.95l-3.533 1.008-2.524 2.69-.842 3.7v8.24l1.01 3.533 2.694 2.523 3.702 1.01h17.672l3.534-1.178 2.525-2.69 1.01-3.532-.17-8.41-1.01-3.532zm0 65.874l-2.692-2.53-3.703-.84H644.95l-3.533 1.01-2.524 2.698-.842 3.71v8.26l1.01 3.542 2.694 2.53 3.702 1.01h17.672l3.534-1.18 2.525-2.698 1.01-3.54-.17-8.43-1.01-3.542zm-78.902-33.018l-2.693-2.548-3.703-.85h-17.672l-3.534 1.02-2.525 2.717-.84 3.736v8.325l1.008 3.566 2.694 2.548 3.7 1.02h17.673l3.534-1.19 2.523-2.716 1.01-3.568-.168-8.49-1.01-3.568zM627.55-3.748l-3.536-1.008h-17.672l-3.703.84-2.694 2.523-1.01 3.533v8.407l.842 3.533 2.525 2.69 3.535 1.178h17.67l3.703-1.01 2.694-2.522 1.01-3.532.168-.337V2.644l-1.01-3.7-2.523-2.692zm2.355 35.174l-2.694-2.52-3.7-.843h-17.674l-3.533 1.01-2.525 2.69-.84 3.7v8.24l1.01 3.532 2.692 2.523 3.702 1.01H624.013l3.534-1.178 2.524-2.69 1.01-3.532-.168-8.41-1.01-3.532zM840.365 50.44c-6.005 2.885-11.953 4.358-17.724 4.358-9.596 0-17.25-3.356-22.784-10.07-5.713-6.712-8.598-15.544-8.598-26.79 0-11.54 2.826-20.843 8.832-27.555 5.948-6.95 13.897-10.54 23.67-10.54 6.24 0 12.248 1.414 17.96 4.533 5.77 2.826 11.304 7.42 16.78 13.367v-70.656c-6.242-3.3-12.718-5.713-19.195-7.42-6.713-1.412-13.19-2.355-20.138-2.355-12.422 0-24.376 2.414-35.15 7.477-11.07 4.77-20.608 11.718-28.734 21.314-8.42 9.127-14.603 19.903-18.902 32.09-1.87 5.335-3.316 10.85-4.38 16.55h-15.515l-3.703.84-2.694 2.522-1.01 3.532v8.41l.842 3.53 2.524 2.692 3.535 1.176h13.935c0 .165-.01.326-.01.492.01 3.28.137 6.483.362 9.625h-14.29l-3.533 1.008-2.524 2.692-.842 3.7v8.24l1.01 3.533 2.693 2.52 3.703 1.01h17.597c1.845 6.68 4.29 12.998 7.366 18.958 7.42 14.838 18.723 27.262 33.326 36.86 6.242 3.826 12.953 6.947 20.61 8.83 7.417 2.18 15.308 3.122 23.492 3.122a94.712 94.712 0 0 0 19.37-2.18c6.713-1.472 13.19-3.825 19.608-6.946l1.885-71.894c-6.948 6.24-13.426 10.54-19.372 13.424zm-59.554 7.086l-.167.336-1.01 3.533-2.693 2.522-3.702 1.01h-17.67l-3.536-1.178-2.524-2.69-.843-3.534v-8.408l1.01-3.533 2.694-2.522 3.702-.84h17.67l3.536 1.008 2.523 2.693 1.01 3.7v7.903zm0-34.498l-.167.336-1.01 3.532-2.693 2.524-3.702 1.01h-17.67l-3.536-1.18-2.524-2.69-.843-3.532V14.62l1.01-3.532 2.694-2.523 3.702-.842h17.67l3.536 1.01 2.523 2.69 1.01 3.7v7.905zm0-31.994l-.167.336-1.01 3.53-2.693 2.525-3.702 1.008h-17.67l-3.536-1.176-2.524-2.692-.843-3.53v-8.41l1.01-3.532 2.694-2.522 3.702-.84h17.67l3.536 1.01 2.523 2.69 1.01 3.7v7.904z"/></svg>