<svg xmlns="http://www.w3.org/2000/svg" viewBox="0 0 597.4 184.9"><path class="st0" d="M27.8 121.5v-4.1h7.4V61.3h-7.4v-4.1H68v-2.7h5.3V70H68v-7H47.7v23h15.6v-6.6l5.3-.1v19.2l-5.3.1v-6.8H47.7v24.1h21.1v-7.2h5.3v13H27.8v-.2zm49.8 0h46v-13h-5.3v7.2H97.5V61.3h7.3v-4.1H77.6v4.1H85v56.1h-7.4v4.1zM173.4 122.8c-20.6 0-35.2-13.8-35.2-33.2 0-19.2 14.6-33.5 34.2-33.5 6.3 0 10.7.9 16.4 3.3v-4.1h5.4v17.5h-5.4v-6.2c-5.6-3.9-8.7-5-13.8-5-13.5 0-23 11.3-23 27.5 0 15.8 10.4 28.1 23.9 28.1 4.9 0 8.4-1.1 13-3.9v-7.4h5.5v13c-8.4 2.8-13.6 3.9-21 3.9zm71.5-1.3h12.4v-4.2h-4c-1.9 0-3.1-.9-5.4-4.3l-13.8-21.2c9.2-2.8 13.6-8.5 13.6-17.3 0-5.2-1.6-9.4-4.8-12.6-3.5-3.5-8.2-4.8-16.6-4.8h-28.8v4.1h7.4v56.1h-7.4v4.1H225v-4.1h-7.3V92.9h2.6l14.6 22.9c3.3 5.1 4.3 5.7 10 5.7zm-21.1-58.9c6.9 0 10.9 4.5 10.9 12.3 0 7.7-4.6 13.1-11.3 13.1h-5.8V62.6h6.2zm61.2 60.2c17.9 0 32.3-14.8 32.3-33.4 0-18.6-14.3-33.3-32.3-33.3-17.9 0-32.2 14.7-32.2 33.3 0 18.5 14.3 33.4 32.2 33.4zm0-61.2c9.8 0 18.5 13.1 18.5 27.8 0 14.8-8.7 27.9-18.5 27.9-9.7 0-18.4-13.1-18.4-27.9 0-14.8 8.6-27.8 18.4-27.8zm86.2-.3h8.2v-4.1h-22v4.1h7.7v40.8l-31.6-44.9h-19.4v4.1h7l3.1 5v51.2h-8.1v4.1h22v-4.1h-7.7V74.8l33.9 47.8h6.8V61.3h.1zm11.6 60.2h27.3v-4.1h-7.3V61.3h7.3v-4.1h-27.3v4.1h7.4v56.1h-7.4v4.1zm50.1 1.3c11.4 0 19.5-7.8 19.5-18.9 0-3.8-.9-7-2.7-10-1.7-2.6-3.7-4.8-6-6.3-1.1-.8-3.9-2.5-8.4-5.5-9.4-5.9-11.6-8.4-11.6-12.3 0-4.6 3.9-8.2 9-8.2 3.6 0 6.2 1 10.3 3.6v6.7h5.3V55.2H443v2.9c-3.7-1.6-6.7-2.1-10.5-2.1-11.9 0-19.8 7.1-19.8 17.8 0 4.3 1.3 8.2 3.7 11 2.5 2.9 3.7 3.9 13.3 9.9 9.1 5.8 11.9 9 11.9 13.3 0 5.1-4.4 8.7-10.4 8.7-4.8 0-8.1-1.3-12.5-4.8v-7.2h-5.4v17.5h5.4V119c4.5 2.6 8.6 3.8 14.2 3.8zM503.6 71h5.4V54.5h-5.4v2.7h-46.2v-2.7H452V71h5.4v-8.1h16.9v54.5h-9.4v4.1h31.4v-4.1h-9.4V62.9h16.8V71h-.1zm37.5 50.5h23.8v-4.1h-4.1l-24.2-62.3h-5.9l-25.1 62.3h-6v4.1h20.2v-4.1H512l6.3-15.8H542l6 15.8h-6.8v4.1h-.1zm-10.7-50.2l9.3 24.4h-19.1l9.8-24.4zM147.4 141.5c-3.2 0-5.4-2.1-5.4-5.1 0-3 2.2-5.2 5.3-5.2 1 0 1.7.1 2.5.5v-.6h.8v2.7h-.8v-1c-.9-.6-1.3-.8-2.1-.8-2.1 0-3.5 1.7-3.5 4.2 0 2.4 1.6 4.3 3.7 4.3.7 0 1.3-.2 2-.6v-1.1h.8v2c-1.4.6-2.2.7-3.3.7zm37.6 0c2.7 0 5-2.3 5-5.2 0-2.9-2.2-5.1-5-5.1s-5 2.3-5 5.1c0 3 2.2 5.2 5 5.2zm0-9.4c1.5 0 2.9 2 2.9 4.3s-1.3 4.3-2.9 4.3c-1.5 0-2.8-2-2.8-4.3-.1-2.3 1.3-4.3 2.8-4.3zm42.1 9.2h4.5v-.6h-1.3v-8.6h1.3v-.6h-3l-3.1 7-3.6-7h-2.7v.6h1.3v8.6h-1.3v.6h3.5v-.6h-1.3v-6.3l3.6 7.1 3.3-7.3v6.5H227v.6h.1zm33.9 0h7.1v-2h-.8v1.1H264v-3.7h2.4v1h.8v-3h-.8v1H264v-3.5h3.1v1.1h.8V131h-.8v.4H261v.6h1.1v8.6H261v.7zm44 0h1.9v-.6h-.6c-.3 0-.5-.1-.8-.7l-2.1-3.3c1.4-.4 2.1-1.3 2.1-2.7 0-.8-.3-1.4-.7-1.9-.5-.5-1.3-.7-2.6-.7h-4.4v.6h1.1v8.6h-1.1v.6h4.2v-.6h-1.1v-3.8h.4l2.2 3.5c.5 1 .6 1 1.5 1zm-3.2-9c1.1 0 1.7.7 1.7 1.9s-.7 2-1.7 2h-.9v-3.9h.9zm39.1 9.2c1.1 0 1.9-.2 3.2-.6v-2h-.8v1.1c-.7.4-1.3.6-2 .6-2.1 0-3.7-1.9-3.7-4.3 0-2.5 1.5-4.2 3.5-4.2.8 0 1.3.2 2.1.8v1h.8v-2.7h-.8v.6c-.9-.4-1.6-.5-2.5-.5-3 0-5.3 2.2-5.3 5.2.1 2.9 2.4 5 5.5 5zm32.8-.2h4.2v-.6h-1.1v-8.6h1.1v-.6h-4.2v.6h1.1v8.6h-1.1v.6zm39.3 0h3.7v-.6h-.7l-3.7-9.6h-.9l-3.9 9.6h-.9v.6h3.1v-.6h-1.2l1-2.4h3.6l.9 2.4h-1v.6zm-1.6-7.7l1.4 3.8h-2.9l1.5-3.8zm34.1 7.7h7.1v-2h-.8v1.1h-3.2V132h1.1v-.6h-4.2v.6h1.1v8.6h-1.1v.7zM130.4 141.5h-1.9V55.7h1.9v85.8z"/></svg>