<svg xmlns="http://www.w3.org/2000/svg" viewBox="0 0 1764 607.1"><path d="M566 66c-62 0-120 .8-170 17.5-81 26.7-139 88.6-139 165.7 0 63.9 39 112.2 119 129.2 51 10.9 106 10.3 171 10.3h126l18-64.2H539c-38 0-68-2-98-12.6-32-11.7-52-36.6-52-72.7 0-41.9 27-74.7 68-92.6 39-17 91-16.4 146-16.4h283l-69 258.5h125l69-258.5h157c-35 31-57 72.1-57 119 0 63.9 40 112.2 120 129.2 51 10.9 106 10.3 170 10.3h126l18-64.2h-152c-37 0-68-2-97-12.6-32-11.7-53-36.6-53-72.7 0-41.9 27-74.7 69-92.6 39-17 91-16.4 145-16.4h143l18-64.2H566zM239 471.7l-16 53.6h10l5-18.2c2-8.2 11-14 18-14s9 2.6 9 6.1c0 2.1 0 3.5-1 5l-6 21.1h10l6-21.4c0-1.7 1-4.4 1-6.1 0-7.4-8-10-14-10-8 0-15 2.9-20 7.3l7-23.4h-10zm120 0l-16 53.6h10l15-53.6h-9zm26 0l-16 53.6h10l15-53.6h-9zm1000 0l-15 53.6h9l6-18.2c2-8.2 11-14 18-14 6 0 8 2.6 8 6.1v5l-6 21.1h9l6-21.4c1-1.7 1-4.4 1-6.1 0-7.4-7-10-13-10-9 0-15 2.9-20 7.3l7-23.4h-10zm-162 1.1l-3 18.5h6l7-18.5h-10zm-637 .6c-4 0-7 1.8-7 4.4 0 2.4 2 4.1 6 4.1s6-1.7 6-4.4c0-2.3-2-4.1-5-4.1zm-378 0c-11 0-21 2.4-29 7.1-11 5.5-17 14.9-17 24.6 0 12.9 12 21.1 32 21.1 8 0 15-1.2 19-2.6l-1-5c-4 1.4-10 2-16 2-17 0-23-7.3-23-16.7 0-7.6 4-14.6 11-19.3 6-3.6 14-5.6 22-5.6 7 0 12 .9 15 2l3-4.9c-2-1.2-8-2.7-16-2.7zm1146 0c-11 0-21 2.4-29 7.1-10 5.5-16 14.9-16 24.6 0 12.9 12 21.1 31 21.1 9 0 16-1.2 20-2.6l-1-5c-5 1.4-11 2-16 2-18 0-24-7.3-24-16.7 0-7.6 5-14.6 12-19.3 6-3.6 14-5.6 22-5.6 6 0 12 .9 15 2l3-4.9c-2-1.2-8-2.7-17-2.7zm-605 .9l-1 5.6h22l-13 45.4h10l13-45.4h22l1-5.6h-54zm-667 5l-16 54.8 78-54.8H82zm240 8.5c-24 0-38 13.5-38 26.4 0 6.7 6 12 16 12 8 0 15-2.6 21-10.3h1c-1 3.8-2 7.4-2 9.4h9c0-4.1 1-10.5 3-17l5-19c-4-.9-9-1.5-15-1.5zm104 0c-18 0-30 12.6-30 23.7 0 8 6 14.7 21 14.7 7 0 14-1.5 18-2.9l-2-4.7c-3 1.1-8 2.3-14 2.3s-10-1.4-13-4.7c-1-2-1-5.5-1-7 21 .3 37-2.4 37-12 0-5-6-9.4-16-9.4zm58 0c-7 0-15 2.9-20 8.2l1-7.3h-8c-1 3.2-2 6.7-3 10.5l-7 26.1h9l5-17.9c3-8.8 12-14.3 19-14.3 6 0 9 2.9 9 6.4 0 1.5-1 3.2-1 4.7l-6 21.1h9l6-21.4c1-2 1-4.1 1-5.8 0-7.7-7-10.3-14-10.3zm59 0c-22 0-35 12.3-35 24.9 0 6.5 5 12.6 17 12.6 7 0 14-2.6 19-7.6l-2 5.3c-3 9.9-10 12.9-19 12.9-6 0-12-.9-15-2.4l-3 5c4 1.8 10 2.6 17 2.6 6 0 13-.8 19-4.1 6-3.2 9-8.5 11-16.4l8-30.2c-4-1.4-11-2.6-17-2.6zm87 0c-7 0-15 2.9-20 8.2l1-7.3h-8c-1 3.2-2 6.7-3 10.5l-7 26.1h9l5-17.9c3-8.8 13-14.3 19-14.3s9 2.9 9 6.4c0 1.5-1 3.2-1 4.7l-6 21.1h9l6-21.4c1-2 2-4.1 2-5.8 0-7.7-8-10.3-15-10.3zm59 0c-22 0-35 12.3-35 24.9 0 6.5 6 12.6 17 12.6 8 0 14-2.6 19-7.6l-2 5.3c-3 9.9-10 12.9-19 12.9-6 0-12-.9-15-2.4l-2 5c3 1.8 9 2.6 16 2.6 6 0 13-.8 19-4.1 6-3.2 9-8.5 11-16.4l9-30.2c-5-1.4-12-2.6-18-2.6zm133 0c-18 0-31 11.1-31 23.4 0 8.3 8 15 22 15 18 0 30-11.7 30-23.2 0-7.6-6-15.2-21-15.2zm64 0c-7 0-14 2.6-19 7.9l1-7h-8c-1 3.2-2 6.7-3 10.5l-7 26.1h9l5-18.5c2-7.6 11-13.7 18-13.7s8 3.2 8 6.4c0 1.2 0 2.7-1 4.4l-6 21.4h9l6-18.7c2-8.3 10-13.5 17-13.5 6 0 8 2.6 8 6.4 0 1.5 0 3.2-1 4.7l-5 21.1h8l7-21.7v-6.1c0-6.8-6-9.7-13-9.7-8 .3-15 2.9-20 8.2 0-4.7-4-8.2-13-8.2zm87 0c-18 0-31 11.1-31 23.4 0 8.3 8 15 22 15 19 0 31-11.7 31-23.2 0-7.6-8-15.2-22-15.2zm61 0c-7 0-13 3.8-16 8.8h-1c1-2.7 2-5.3 2-7.9h-8c-1 3.5-2 8.2-3 13.2l-7 23.4h10l4-16.1c3-8.5 10-15 18-15h2l2-6.1c-1-.3-1-.3-3-.3zm37 0c-8 0-13 3.8-17 8.8h-1c1-2.7 2-5.3 2-7.9h-8c-1 3.5-2 8.2-3 13.2l-7 23.4h10l4-16.1c2-8.5 10-15 18-15h3l1-6.1c0-.3-1-.3-2-.3zm33 0c-18 0-31 11.1-31 23.4 0 8.3 8 15 22 15 19 0 31-11.7 31-23.2 0-7.6-7-15.2-22-15.2zm148 0c-12 0-20 5-20 11.4 0 3.8 4 7.1 10 9.4 6 2.1 7 3.8 7 6.7 0 3.3-4 5.9-10 5.9-4 0-9-1.2-12-2.3l-3 4.7c3 1.4 8 2.6 14 2.6 12 0 21-4.4 21-12 0-4.4-4-7.6-10-9.7-5-1.8-7-3.5-7-6.2 0-3.2 3-5.5 9-5.5 4 0 8 .9 10 1.7l2-4.7c-2-1.1-6-2-11-2zm217 0c-24 0-38 13.5-38 26.4 0 6.7 6 12 16 12 7 0 15-2.6 21-10.3 0 3.8-1 7.4-1 9.4h9c0-4.1 0-10.5 2-17l6-19c-4-.9-10-1.5-15-1.5zm58 0c-8 0-15 2.9-20 8.2l1-7.3h-8c-1 3.2-2 6.7-3 10.5l-7 26.1h9l5-17.9c3-8.8 12-14.3 19-14.3s9 2.9 9 6.4c0 1.5-1 3.2-1 4.7l-6 21.1h9l6-21.4c1-2 1-4.1 1-5.8 0-7.7-7-10.3-14-10.3zm59 0c-21 0-35 12.3-35 24.9 0 6.5 6 12.6 17 12.6 7 0 14-2.6 19-7.6l-2 5.3c-3 9.9-10 12.9-19 12.9-6 0-12-.9-15-2.4l-3 5c4 1.8 10 2.6 17 2.6 6 0 14-.8 19-4.1 6-3.2 9-8.5 11-16.4l9-30.2c-4-1.4-11-2.6-18-2.6zm55 0c-18 0-30 12.6-30 23.7 0 8 6 14.7 21 14.7 7 0 14-1.5 18-2.9l-2-4.7c-3 1.1-8 2.3-14 2.3s-10-1.4-13-4.7c-1-2-1-5.5-1-7 21 .3 37-2.4 37-12 0-5-6-9.4-16-9.4zm46 0c-12 0-20 5-20 11.4 0 3.8 3 7.1 10 9.4 5 2.1 7 3.8 7 6.7 0 3.3-4 5.9-10 5.9-5 0-9-1.2-12-2.3l-3 4.7c3 1.4 8 2.6 14 2.6 12 0 21-4.4 21-12 0-4.4-4-7.6-10-9.7-5-1.8-8-3.5-8-6.2 0-3.2 4-5.5 10-5.5 4 0 8 .9 10 1.7l2-4.7c-2-1.1-6-2-11-2zm-1110 .9l-10 36.6h9l11-36.6h-10zm558 0l5 36.6h9l16-19.9c2-3.2 4-6.2 6-9.7h1v10l4 19.6h9l27-36.6h-10l-14 21.1c-3 3.5-4 6.4-6 9.4 0-2.4 0-5.6-1-9.7l-4-20.8h-8l-16 21.1c-3 3.8-5 7-6 9.4v-10l-2-20.5h-10zm-711 4.1c5 0 9 1.7 9 4.7 0 5.5-12 7-27 6.7 3-5.6 10-11.4 18-11.4zm1215 0c5 0 9 1.7 9 4.7 0 5.5-12 7-27 6.7 3-5.6 9-11.4 18-11.4zm-818 0c9 0 12 6.1 12 10.2 0 8.5-8 18.2-19 18.2-8 0-13-4.4-13-10.2 0-8.6 8-18.2 20-18.2zm151 0c10 0 13 6.1 13 10.2 0 8.5-9 18.2-20 18.2-8 0-13-4.4-13-10.2 0-8.6 8-18.2 20-18.2zm131 0c10 0 13 6.1 13 10.2 0 8.5-9 18.2-20 18.2-8 0-13-4.4-13-10.2 0-8.6 8-18.2 20-18.2zm-783 .3c3 0 5 0 6 .3l-3 11.1c-2 9.7-12 16.4-20 16.4-7 0-9-3.8-9-7.9 0-10.3 12-19.9 26-19.9zm1146 0c4 0 6 0 7 .3l-3 11.1c-3 9.7-12 16.4-20 16.4-7 0-9-3.8-9-7.9 0-10.3 11-19.9 25-19.9zm-925 0c4 0 7 .6 9 1.1l-4 12.1c-1 7.3-10 14-18 14s-10-4.7-10-8.8c0-9.1 9-18.4 23-18.4zm146 0c4 0 7 .6 9 1.1l-3 12.1c-2 7.3-10 14-19 14-8 0-10-4.7-10-8.8 0-9.1 9-18.4 23-18.4zm897 0c4 0 8 .6 9 1.1l-3 12.1c-2 7.3-10 14-19 14-8 0-10-4.7-10-8.8 0-9.1 10-18.4 23-18.4z"/></svg>