<svg xmlns="http://www.w3.org/2000/svg" viewBox="0 0 1193.2 410.35"><path d="M246.23 22l-4.7.16-4.53.65-4.45.97-4.29 1.54-4.29 1.78-4.13 2.35-4.14 2.68-3.96 3.15-3.97 3.49-3.81 3.97-3.81 4.29-3.64 4.86-3.65 5.18-3.48 5.66-3.49 5.99-3.24 6.56-3.16 6.56-2.91 6.89-2.67 6.96-2.51 7.2-2.35 7.29-2.19 7.53-1.94 7.69-1.7 7.86-8.89-.66-8.84-.32-8.74-.16-8.58.16-5.19.1-4.94.24-4.86.25-4.62.41-4.61.4-4.38.56-8.49 1.38-4.14.73-3.88.89-3.89.89-3.65 1.06-3.64 1.05-3.4 1.21-3.4 1.21-3.16 1.38-3.15 1.3-2.93 1.46-2.9 1.54-2.68 1.69-2.68 1.7-2.42 1.87-2.43 1.86-2.19 2.02-2.18 1.95-1.95 2.1-1.94 2.19-1.71 2.35-3.15 4.77-1.38 2.51-1.13 2.68-2.19 5.18-1.54 5.42-.57 2.75-.4 2.76-.24 2.83-.08 2.91-.08 2.76.24 2.91.24 2.92.57 3 .57 2.91.72 3.08 2.03 6.23 1.05 3.07 1.38 3.17 3.16 6.39 3.64 6.48 4.29 6.72 4.78 6.72 5.43 6.97 2.84 3.39 3.15 3.57 3.16 3.56 3.48 3.64 6.64 6.81 3.49 3.31 3.64 3.41 7.36 6.55 3.81 3.24 3.97 3.32 3.89 3.08 4.04 3.16 8.35 6.23 4.21 3 4.38 3.08 8.99 5.99 9.14 5.75 9.56 5.67 4.85 2.74 5.03 2.84 5.02 2.67 5.19 2.75 5.09 2.59 5.27 2.68 10.85 5.18 11.09 5.11 5.67 2.42 5.83 2.51-3.47-3.57-3.33-3.72-1.7-2.02-1.62-2.11-3.16-4.37-3.15-4.86-3.08-5.02-3-5.34-2.91-5.67-1.7-3.72-5.59-3.16-5.35-3.16-5.26-3.24-5.03-3.24-5.1-3.4-4.77-3.32-4.78-3.4-4.54-3.4-4.53-3.57-4.29-3.56-4.3-3.64-4.05-3.64-4.04-3.81-3.81-3.72-3.81-3.88-3.48-3.82-4.78-5.5-4.29-5.26-3.97-5.26-3.4-5.11-3.07-5.1-2.6-4.93-2.27-4.86-1.7-4.7-1.45-4.78-.97-4.53-.57-4.54-.08-4.28.24-4.38.73-4.13 1.05-4.13 1.62-3.89 1.78-3.96 2.27-3.65 1.22-1.77 1.37-1.62 1.38-1.63 1.54-1.45 3.24-3 3.64-2.67 1.95-1.3 2.1-1.13 2.11-1.13 2.27-.98 4.61-2.02 5.02-1.7 2.59-.81 2.75-.65 5.84-1.21 6.07-1.06 6.48-.73 3.32-.32 3.48-.16 3.48-.16H158.52l-.89 9.46-.56 9.79-.41 9.96-.1 10.29.1 8.99.25 8.83.4 8.66.73 8.51.32 4.13.49 4.21 1.05 8.17 1.22 8.02 1.54 8.02 1.54 7.68.81 3.73.98 3.81 2.02 7.37 2.19 7.37 2.35 7.04 2.59 6.96 2.84 6.72 3 6.73 1.7 3.72 2.92 5.67 3 5.35 3.08 5.02 3.15 4.86 3.16 4.37 1.62 2.11 1.7 2.02 3.33 3.72 3.48 3.56 2.1 1.94 2.27 1.86 2.27 1.7 2.27 1.7 2.26 1.46 2.27 1.38 2.35 1.21 2.43 1.14 2.35.89 2.43.9 2.43.72 2.51.66 2.43.4 2.59.32 2.59.24 2.59.1 1.3-.1h1.37l1.3-.1h1.38l2.19-.33 2.26-.4 4.37-1.14 2.1-.73 2.19-.81 2.1-.89 2.19-.97 1.94-1.14 2.1-1.21 4.05-2.75 1.94-1.54 2.02-1.62 1.95-1.7 1.94-1.78 3.24-3.48 3.24-3.73.33-.56.4-.49.81-.98 1.62-2.02.73-1.13.81-1.05 1.62-2.19 1.46-2.34.33-.65.16-.32.25-.25.81-1.13 1.46-2.51 1.54-2.43 2.92-5.34 2.91-5.51 1.38-3.07 1.46-3 2.68-6.15.56-1.62.65-1.54 1.3-3.08 1.13-3.24.57-1.62.65-1.54.49-1.7.56-1.62 1.14-3.24.97-3.4.49-1.7.56-1.62 1.86-6.8.81-3.49.89-3.4.32-1.86.41-1.78.81-3.56.65-3.64.73-3.56.57-3.73.65-3.64 1.05-7.45.4-3.89.49-3.8.72-7.77v-1.05l.1-.97.16-1.94.32-3.89.25-4.05v-1.05l.1-.97.16-1.94.24-8.1v-3.16l.1-.97.1-4.05-.1-5.67-.1-5.51-.4-10.77-.56-7.69-.65-7.53-.81-7.45-.89-7.21-1.14-7.2-1.21-6.96-1.38-6.88-1.54-6.64-1.7-6.72-1.86-6.48-2.03-6.4-2.1-6.15-2.35-6.15-2.34-5.91-2.59-5.91-2.72-5.6-3.41-6.56-3.39-5.99-1.79-2.92-1.7-2.75-3.57-5.18-3.72-4.86-3.73-4.29-1.94-2.11-1.86-1.86-3.89-3.49-4.05-3.15-4.05-2.68-4.21-2.35-4.21-1.78-4.38-1.54-4.37-.97-4.54-.65zm-.1 54.8l3.16.1 1.54.16 1.62.32 3.08.65 3.08 1.05 2.91 1.3 2.92 1.62 2.83 1.86 2.92 2.27 1.29 1.13 1.39 1.29 1.29 1.3 1.38 1.46 2.59 2.99 1.29 1.62 1.38 1.78 2.43 3.56 2.5 3.96 1.13 2.02 1.22 2.19 2.43 4.61v-.1l1.38 3 1.46 3.16 1.29 3.15 1.3 3.32 1.13 3.24 1.21 3.4 2.19 6.88 1.86 7.04.81 3.56.89 3.72.64 3.64.73 3.8.57 3.81.65 3.97-14.97-5.91-7.37-2.83-7.29-2.52-14.5-4.93-7.2-2.27-7.05-2.03-14.17-3.96-7.05-1.78-6.88-1.54-6.97-1.54-6.8-1.3-13.49-2.34 1.84-5.93 2.1-5.75 2.27-5.59 2.59-5.43 2.27-4.61 2.43-4.21 2.43-3.96 2.51-3.56 2.51-3.4 2.68-2.99 2.67-2.76 2.83-2.42 2.75-2.27 2.83-1.86 2.92-1.62 2.99-1.3 3-1.05 3.15-.65 3.16-.49zm204.32 52.5l-3.32.24-3.32.24-3.15.49-3.17.48-2.99.65-2.91.73-2.76.89-2.83.89-2.68 1.05-2.59 1.14-2.42 1.38-2.52 1.29-2.34 1.54-2.27 1.62-2.11 1.78-4.21 3.48-3.89 3.81-3.64 3.97-3.32 4.28-3.24 4.46-2.84 4.78-2.66 4.93-2.35 5.27-2.19 5.34-2.03 5.43-1.86 5.42-1.54 5.59-1.45 5.5-1.22 5.59-1.05 5.67-.81 5.75-.81 5.5-.65 5.42-.56 5.27-.41 5.27-.41 5.01-.15 4.94-.1 4.78.1 4.78v4.12l.15 4.38.24 4.46.5 4.69.4 4.7.64 4.94.73 5.02.9 5.25 1.05 5.11 1.21 5.18 1.38 5.1 1.62 5.18 1.7 5.02 1.86 5.02 2.03 4.94 2.34 5.02 2.35 4.7 2.68 4.61 1.37 2.19 1.54 2.19 3.16 4.28 3.32 3.89 3.65 3.8 3.8 3.57 4.13 3.49 2.03 1.53 2.19 1.46 2.17 1.38 2.35 1.29 2.35 1.14 2.43 1.05 5.11 1.94 5.26 1.46 5.59 1.13 2.83.41 3 .32 3.08.24 3.15.16 5.59-.32 5.67-.64 2.83-.49 2.92-.57 2.92-.65 2.91-.73 2.75-.97 2.67-.97 2.6-1.05 2.59-1.05 2.35-1.3 1.13-.65.57-.32.65-.25 2.26-1.37.49-.4.57-.33 1.13-.65v-39.51h-1.13l-1.62 2.02-1.62 2.11-1.79 1.95-1.77 2.02-.33.16-.16.1-.1.16-.48.49-.97.97-.32.16-.17.1-.1.16-.48.49-.97.98-2.11 1.69-2.19 1.78-.65.32-.32.17-.16.1-.1.16-1.13.81-.65.32-.33.17-.16.1-.1.16-1.13.73-1.31.57-.64.24-.56.32-2.59 1.05-1.47.33-.72.16-.65.24-2.92.65-1.53.17-1.47.16-3.07.24-2.1-.16-2.03-.24-3.81-.66-3.64-.96-1.79-.66-1.61-.64-3.32-1.78-3-1.95-1.46-1.13-1.37-1.22-1.38-1.29-1.21-1.3-2.52-2.99-2.34-3.16-2.19-3.32-1.86-3.4-1.87-3.64-1.61-3.81-1.54-3.97-1.21-4.05-2.52-8.34-2.02-8.25-1.54-8.18-.89-8.02-.57-3.97-.4-3.72-.33-3.56-.24-3.32-.24-3.16-.1-2.91-.1-2.76.1-2.51-.1-2.99v-3.08l.1-3.32.16-3.32.16-3.64.32-3.65.33-3.8.48-3.97 1.05-8.42 1.54-8.34 2.03-8.26 2.67-8.25 1.21-4.14 1.54-3.88.74-1.95.89-1.77 1.86-3.49 2.02-3.4 2.19-3.16 2.34-2.99 2.6-2.84 2.67-2.75 3-2.27 1.54-1.05 1.7-.89 1.7-.89 1.86-.73 3.64-1.29 3.97-.98 2.03-.4 2.18-.24 4.46-.17 2.67.1 2.67.25 2.52.4 2.59.65 2.42.73 2.43.89 2.35 1.05 2.35 1.38 4.37 2.35 4.05 2.67 3.73 2.83 1.78 1.54 1.78 1.7v-36.51l-2.35-1.22-2.27-1.05-2.43-1.05-2.35-.9-5.01-1.69-2.6-.73-2.59-.57-5.42-1.22-5.35-.81-5.27-.48-5.1-.16zm357.62 0l-3.08.1-2.91.24-2.92.4-2.75.57-2.75.73-2.59.97-2.6 1.05-2.43 1.38-2.42 1.38-2.19 1.54-2.19 1.61-2.02 1.79-2.03 1.78-1.86 1.94-1.78 1.95-1.62 2.18-3.4 4.21-2.84 4.37-2.51 4.45-1.95 4.54h-1.2v-33.06h-37.26v250.77h37.26v-146.4l-.1-5.1.1-4.85.16-4.78.32-4.62.33-4.53.57-4.29.56-4.22.81-3.96.65-3.97.88-3.72 1.14-3.49 1.37-3.31 1.54-3.16.82-1.54.97-1.38 1.94-2.66 2.27-2.52 1.13-1.21 1.3-1.06 1.29-1.05 1.46-.89 3-1.7 1.62-.73 1.78-.56 1.7-.65 1.87-.49 4.04-.73 2.03-.32 2.18-.17 4.62-.16 7.69.49zm302.73 0l-4.3.1-4 .24-4 .32-3.8.57-3.8.57-3.6.81-3.4.89-3.4 1.13-3.4 1.05-3.1 1.38-3.1 1.38-2.9 1.7-2.9 1.7-2.7 1.86-2.6 1.94-2.4 2.19-2.5 2.18-2.2 2.35-2.2 2.35-1.9 2.51-1.8 2.51-1.6 2.75-1.6 2.76-1.2 2.91-1.3 2.92-1.1 3.07-.8 3.08-.8 3.24-.6 3.24-.4 3.48-.3 3.48-.1 3.65.1 3.56.4 3.56.6 3.4.8 3.4 1 3.24 1.2 3.24 1.4 3.16 1.6 3.08 1.8 2.75 1.9 2.83 2 2.76 2.3 2.83 2.2 2.67 2.4 2.67 2.5 2.59 2.7 2.67 5.4 4.7 5.8 4.7 5.7 4.62 6.1 4.52 6 4.3 5.9 4.45 5.6 4.45 5.5 4.62 2.6 2.19 2.5 2.26 2.4 2.35 2.3 2.43 2.1 2.43 2 2.51 2 2.51 1.8 2.59 1.5 2.51 1.4 2.67 1.1 2.67 1.1 2.83.7 2.76.6 2.91.4 3.01.2 3.07-.1 1.94-.2 2.03-.2.89-.1.97-.3 1.94-.5 1.78-.4 1.87-.7 1.78-.6 1.77-.8 1.63-.9 1.62-1 1.54-1 1.62-1.2 1.45-1.2 1.46-1.3 1.38-1.3 1.45-1.6 1.22-.8.56-.8.65-1.7 1.13-1.6 1.14-1.8.89-1.7.97-1.9.81-1.9.81h-.3l-.2.1-.5.16-1 .33-2 .64-2.1.49-2.1.49-2.3.32-2.3.33-2.3.16-2.4.16-4.2-.24-4-.41-3.9-.65-3.7-.81-3.6-1.13-3.4-1.21-3.3-1.55-3.2-1.61-3.1-1.87-3-1.94-6-4.05-2.9-2.26-2.7-2.27-5.5-4.7v37.09l2.8 1.86 2.9 1.78 3 1.7 3.2 1.62 3.1 1.45 3.4 1.38 3.4 1.3 3.7 1.21 3.4 1.06 3.6 1.05 3.4.8 3.6.74 3.4.56 1.7.17 1.8.24 3.4.25 3.5.23 3-.16 1.5-.1h1.5l2.9-.25 1.5-.16.3-.1H1102.2l2.8-.41.7-.16.3-.1h.4l1.4-.15 2.8-.57 2.7-.49 2.6-.72 2.6-.73 2.5-.81 2.6-.81 2.5-.98 2.4-.97 2.3-1.13 1.2-.56 1.2-.49 2.1-1.3 2.2-1.29.9-.73 1.1-.65 2.1-1.29.9-.81 1-.73 1.9-1.46 1.8-1.54 1.9-1.45 1.6-1.71 1.7-1.62 1.5-1.78 1.6-1.69 1.5-1.87 1.5-1.86 1.3-1.95.7-.97.3-.49.2-.23.2-.17 1.1-2.1 1.2-2.03.9-2.18 1-2.11 1.7-4.37.7-2.27.4-1.13.1-.57.3-.48.4-2.35.6-2.27.4-2.43.2-1.21.2-1.14.5-4.85.2-2.51.1-2.44-.3-4.13-.4-3.96-.6-3.8-.8-3.65-1-3.65-1.1-3.32-1.5-3.31-1.5-3-1.8-2.99-1.9-2.92-2-2.84-2-2.66-2.4-2.75-2.3-2.6-2.5-2.51-2.6-2.43-5.5-4.77-5.7-4.62-5.9-4.62-6-4.45-5.9-4.05-5.8-3.97-5.6-4.04-5.3-4.05-2.8-2.19-2.5-2.11-2.5-2.18-2.3-2.1-2.2-2.28-2-2.18-3.8-4.53-.9-1.3-.8-1.21-1.4-2.52-1.2-2.59-.9-2.58-.8-2.76-.5-2.76-.4-2.9v-2.92l.1-3.56.5-3.32.8-3.16 1.1-2.99 1.3-2.92 1.8-2.67 2-2.59 2.4-2.35 2.5-2.27 1.3-1.05 1.5-.89 3-1.7 1.5-.74 1.7-.56 1.6-.65 1.8-.48 1.8-.41 1.9-.24 1.9-.32 2-.17 4.2-.1 3.8.1 3.8.41 3.6.56 3.6.89 3.4 1.06 3.3 1.38 3.2 1.61 3.2 1.87 3 1.86 3 2.02 2.8 2.03 2.8 2.27 2.5 2.18 2.4 2.43 2.3 2.43 2.2 2.59h.8v-39.43l-2.9-1.87-2.8-1.61-3-1.62-2.9-1.46-3.2-1.46-3.1-1.29-3.1-1.3-3.2-1.05-3.3-1.14-3.2-.88-3.3-.81-3.4-.57-3.5-.57-3.4-.24-3.6-.24zm-594.4 4.12l62.16 125.38-62.16 125.39h41.88l40.44-103.62 40.43 103.62h41.89L618.89 258.8l62.17-125.38h-41.89l-40.43 103.62-40.44-103.62zm327.22 0v184.53l-.1 3.89.25 3.8.32 3.73.56 3.72.57 3.49.82 3.48.89 3.32 1.21 3.31 1.13 3.08 1.38 3.08 1.54 2.92 1.7 2.91 1.78 2.67 2.02 2.67 2.11 2.51 2.35 2.52 2.35 2.18 2.67 2.11 2.83 1.94 3 1.87 2.99 1.69 3.33 1.54 3.48 1.38 3.65 1.37 3.63 1.06 3.98 1.05 3.96.88 4.29.74 4.3.56 4.61.41 4.7.25 4.94.23 2.35-.16 2.42-.1 2.27-.17 1.14-.1h1.21l1.06-.16 1.13-.1 2.27-.17 4.37-.56.97-.25 1.05-.16 2.11-.33 4.05-.88.89-.33.97-.24 1.94-.48.9-.33.96-.24 1.95-.49.81-.41.89-.31 1.78-.65 3.4-1.38 1.54-.81 1.63-.73.73-.49.8-.4 1.62-.8 1.38-.98 1.45-.89 2.84-1.94 2.59-2.11 1.21-1.13 1.3-1.05 1.05-1.31 1.14-1.21 2.11-2.59 1.94-2.67 1.86-2.75 1.71-2.92 1.53-2.91 1.37-3.08 1.31-3.08.52-1.7.6-1.61.9-3.32.4-1.79.1-.89.3-.81.3-1.78.1-.89.3-.81.5-3.64.4-3.72.1-1.94.1-1.87v-3.41l.1-.4V133.42h-37.45v157.41l-.1 4.21-.1 4.21-.16 4.13-.16 4.21-.32 3.97-.34 4.04-.48 3.97-.47 3.97-.41 1.78-.33 1.86-.24.81-.16.9-.41 1.78-.56 1.62-.5 1.7-.64 1.62-.32.8-.16.41-.1.48-.82 1.46-.24.33-.16.4-.32.81-.49.65-.24.32-.16.41-.81 1.45-.97 1.3-.98 1.38-1.05 1.29-.98 1.38-1.13 1.13-1.13 1.13-1.29.97-1.3.98-1.46.81-1.46.89-1.62.73-1.62.72-1.78.49-1.78.57-1.95.4-.97.16-.48.1-.41.16-2.1.24-2.1.25-2.2.16-2.18.16-4.45-.32-2.11-.25-1.94-.24-3.81-.81-1.78-.57-1.62-.49-1.7-.72-1.54-.73-2.83-1.7-1.37-.98-1.23-.97-1.13-1.13-.98-1.13-2.01-2.67-1.87-2.68-.89-1.45-.73-1.38-1.38-3-.72-1.69-.57-1.62-1.06-3.32-.88-3.49-.57-3.64-1.06-7.94-.4-4.04-.24-3.97-.25-4.21-.1-4.13-.1-4.21.1-4.21V133.42zm-657.48 32.55l5.58.57 5.75.89 11.58 2.03 11.73 2.51 12.07 3.15 12.07 3.65 6.16 2.02 6.24 2.19 6.23 2.18 6.32 2.51 6.31 2.51 6.48 2.84 6.56 2.83 6.56 3 6.4 3 6.32 3.15.47-.87v1.1l-.16 6.39-.25 6.31-.24 3.07-.16 3.16-.49 6.15-.41 2.91-.32 3-.82 5.91-.48 2.84-.41 2.91-1.05 5.66-1.29 5.43-.42 1.29-.31 1.38-.65 2.75-.81 2.59-.41 1.29-.32 1.38-1.54 5.17-1.86 5.02-.97 2.43-.49 1.21-.41 1.29-.57 1.14-.49 1.21-.97 2.44-1.13 2.34-1.05 2.43-2.43 4.45-1.22 2.11-1.13 2.1-1.29 1.95-1.21 1.94-2.43 3.73-1.38 1.62-1.29 1.7-2.59 3.08-.73.65-.65.73-1.29 1.38-.41.25-.33.32-.65.65-1.29 1.29-2.92 2.1-1.46.89-1.37.97-2.92 1.62-2.91 1.38-3.08.97-3.08.73-1.62.25-.81.1-.73.16-1.62.1h-1.22l-.33.1-3.32-.16-3.16-.49-3.15-.73-3-.97-2.99-1.38-2.92-1.62-2.83-1.87-2.75-2.1-2.83-2.51-2.67-2.75-2.68-3.08-2.51-3.31-2.51-3.73-2.43-3.89-2.43-4.21-2.27-4.45-2.35-4.77-2.02-4.86-1.94-5.02-1.7-5.1-1.7-5.26-1.46-5.34-1.37-5.43-1.14-5.5-1.13-5.75-.88-5.8-.81-6-.56-5.99-.57-6.23-.32-6.32-.25-6.4.1-6.47-.1-5.1.17-4.94.48-9.63.33-4.78.49-4.61.48-4.61.73-4.46z"/></svg>