<svg xmlns="http://www.w3.org/2000/svg" viewBox="0 0 390 112"><path d="M83.12 65.65c-23.46 7.47-48.26 10.13-60.92 6.8v2.93c0 8.13 6.53 14.67 14.66 14.67h38.39c8 0 14.53-6.54 14.53-14.67V63.39c-2.13.8-4.4 1.46-6.66 2.26m-12-31.19c6.26-1.33 12.13-2.27 17.6-2.8-2.14-5.6-7.47-9.6-13.73-9.6H36.6c-8.14 0-14.67 6.67-14.67 14.67v16.66c10.4-7.33 29.06-14.66 49.19-18.93M281.9 57.65v22.13h-29c-6 0-10.9-4.93-10.9-11.06 0-6.13 4.9-11.07 10.9-11.07h29zm-18.7-35.32h-9.6l-6.3 10.26h15.9c8.8 0 16.5 6.27 18.3 14.8h-28.6c-11.7 0-21.2 9.6-21.2 21.33 0 11.73 9.5 21.33 21.2 21.33h39.2V51.26c0-16-12.9-28.93-28.9-28.93m-36.8 0l-18.8 32.66L189 22.33h-12.8l24.9 43.86-13.7 23.86H200l39.2-67.72h-12.8zm-81.7 11.06h26l-6.3-11.06h-19.7c-15.6 0-28.3 12.8-28.3 28.39v10.93c0 15.6 12.7 28.4 28.3 28.4h19.7l6.3-11.07h-26c-9.5 0-17.2-7.73-17.2-17.33V50.72c0-9.59 7.7-17.33 17.2-17.33m216.6 17.33v39.33h-11V50.72c0-9.59-7.8-17.33-17.2-17.33h-17.4v56.66h-11V22.33h28.4c15.6 0 28.2 12.8 28.2 28.39"/></svg>