<svg xmlns="http://www.w3.org/2000/svg" version="1.2" viewBox="0 0 472.96999 111.98449"><path d="M329.49 65.254c0 3.95-.82 5.943-4.03 5.943-5.19 0-8.81-4.206-8.81-11.22V54c0-7.048 3.7-11.263 8.81-11.263 3.62 0 4.03 1.935 4.03 6.05zm-2.55-24.83c-4.53 0-7.91 1.992-10.29 5.985v-5.986c-4.86.412-10.05.576-15.56.74v2.446h4.53v43.962h-4.45v2.412h21.24v-2.41h-5.76V67.565c2.38 3.985 5.76 5.887 10.29 5.887 8.31 0 14.73-7.106 14.73-16.433 0-9.648-6.33-16.596-14.73-16.596m97.47-14.44c-2.96-.33-5.84 1.35-6.01 4.47 0 2.643 1.65 4.537 3.87 4.636 2.88.082 3.29-2.29 4-2.347.8 0 .8.832.8 2.668 0 2.124-2.16 4.24-4.72 5.82v2.38c4.82-2.667 7.22-5.82 7.62-9.714.9-4.15-1.8-7.46-5.39-7.91M266.18 72.49v-2.444h-3.87V40.424c-5.68.495-11.19.742-16.71.742v2.445h5.6v14.762c0 6.142-3.95 11.42-7.74 11.42-2.31 0-3.21-1.35-3.21-4.25V40.425c-4.86.494-10.21.66-16.05.74v2.446h5.18v20.583c0 2.634 0 4.57 1.32 6.075 1.56 1.993 4.28 3.022 7.9 3.022 5.77 0 9.63-2.536 12.76-8.134v7.878c5.11-.33 9.72-.494 14.82-.576M425.81 60.94h2.06c1.8 6.85 5.8 10.357 11.4 10.357 4.7 0 7.6-2.6 7.6-5.656 0-3.67-3.5-3.35-10-4.312-7.5-1.12-11.14-3.442-11.14-9.707 0-6.947 4.44-11.195 11.24-11.195 2.8 0 5.5.74 7.6 1.836l1.7-1.448h1.6v8.875h-2.1c-1.6-4.89-4.6-7.327-8.9-7.327-4.6 0-7.4 2.058-7.4 4.272 0 2.898 3.4 2.99 10.2 3.862 8 1.03 11.3 3.73 11.3 10.932 0 7.336-4.5 11.93-12.2 11.93-3.7 0-6.8-.93-9-2.602l-2.2 1.737h-1.92V60.94m-34.83 29.045c-3.29 0-5.27-1.77-5.27-4.89 0-2.6 2.14-4.692 4.86-4.692 3.46 0 3.71 2.7 5.02 2.7.99 0 1.49-.823 2.06-2.314l3.54-8.21-14.65-28.97h-3.46v-2.444h19.18v2.445h-3.95l7.9 16.853 5.85-13.633c0-.494.82-1.004.82-1.77 0-.823-.82-1.45-2.14-1.45h-3.04v-2.444h12.51v2.445h-2.22c-1.24 0-2.06.66-2.8 2.413l-15.15 35.664c-2.39 5.565-5.11 8.298-8.73 8.298m-43.79-19.94V25.12h-5.27v-2.19c5.76 0 11.19-.41 16.38-.93v26.56c3.05-5.492 6.83-7.97 12.68-7.97 7.57 0 9.22 3.176 9.22 9.968v19.488h4.61v2.444h-19.6v-2.444h4.2v-21.9c0-2.864-.98-4.115-3.29-4.115-3.79 0-7.82 5.08-7.82 11.255v14.76h4.03v2.446h-19.92v-2.444h4.78m-78.96 0h4.2V43.61h-4.28v-2.444c4.94-.165 10.05-.247 15.07-.74v8.52c2.14-5.4 5.84-8.356 9.71-8.356 4.04 0 7 2.798 7 6.46 0 3.28-2.31 5.724-5.68 5.724-2.8 0-5.1-2.28-5.1-5.335 0-1.516.98-2.158.98-2.932 0-.247 0-.494-.82-.494-1.89 0-6.01 5.5-6.01 11.962V70.03h5.76v2.445h-20.99V70.03m-104.31.016h3.13c2.06 0 3.13-1.483 3.13-3.96v-40.71h-6.26V22.93h21.82l9.06 27.628 9.71-27.628h20.83v2.445h-6.26v44.67h6.26v2.446h-26.1v-2.543h7.08v-43.93L190.94 72.49h-2.72l-15.15-46.95v40.324c0 3.02.99 4.18 3.79 4.18h3.46v2.447H164.1v-2.444m-44.38 0V43.61h-5.27v-2.444c5.19 0 10.54-.165 16.22-.576v7.91c3.05-5.498 6.92-8.01 12.76-8.01 8.32 0 9.22 3.862 9.22 11.354v18.17h4.61v2.444h-19.51V70.01h4.12v-21.93c0-2.867-.99-4.25-3.29-4.25-3.71 0-7.82 5.213-7.82 11.354v14.827h4.03v2.444h-19.84v-2.444h4.77M98.73 56.568c-6.26 0-8.73 1.516-8.73 6.077 0 4.38 1.16 6.272 4.37 6.272 3.04 0 5.27-2.123 5.27-5.622V56.57zM87.86 73.323c-5.43 0-8.39-2.857-8.39-7.813 0-6.464 7.24-11.1 20.17-11.1v-7.58c0-3.252-.91-4.314-5.36-4.314-2.71 0-4.03.66-4.03 1.836 0 .823 1.4 1.926 1.4 4.182 0 3.022-1.89 4.693-5.35 4.693-3.05 0-4.69-1.77-4.69-4.89 0-4.925 5.18-7.88 14.73-7.88 4.53 0 7.91.742 9.88 1.738 3.13 1.605 3.3 3.606 3.3 7.27v15.979c0 2.19.9 4.7 2.88 4.7 0 0 0 3.178-5.11 3.178-3.46 0-6.25-1.993-7.41-5.434-3.13 3.828-6.83 5.434-12.02 5.434M48.1 70.046c4.69 0 7.74-.413 9.96-3.088 2.72-3.375 3.21-7.72 3.21-16.045v-3.638c0-8.488 0-13.445-2.22-17.174-2.22-4.148-5.43-4.692-10.95-4.692h-6.59v44.638zm-19.76 0V25.408H22V22.93h26.68c6.91 0 12.35 1.194 17.2 4.7 6.34 4.53 10.21 11.41 10.21 20.253 0 8.85-3.95 15.535-10.45 20.17-4.37 3.12-10.05 4.438-17.29 4.438H22v-2.444h6.34"/></svg>