<svg xmlns="http://www.w3.org/2000/svg" viewBox="0 0 329.08 84.387"><path d="M50.376 47.808c6.898 7.425 12.99 11.758 19.89 7.953 11.328-6.247 14.072-27.94 30.844-32.9a20.793 20.793 0 0 0-5.948-.86c-16.51 0-32.22 18.805-44.786 25.808M22 32.638C34.58 34.402 28.507 51 40.557 54.57c3.43 1 7.446-.216 11.524-2.49a21.502 21.502 0 0 1-2.452-2.39c-2.31-2.643-4.76-5.584-7.368-8.624-6.614-7.76-12.19-9.46-15.807-9.46-2.823 0-4.453 1.035-4.453 1.035m281.94 16.03h-12.25v13.01h-3.17V33.756h3.17V45.75h12.25V33.756h3.14V61.68h-3.14V48.67zM272 36.26c-5.46 0-9.42 5.49-9.42 11.43 0 6.017 3.94 11.445 9.42 11.445 4.65 0 7.26-3.784 8.23-5.782h2.9c-1.68 4.897-5.85 9.034-11.13 9.034-6.66 0-12.09-6.585-12.09-14.698 0-8.075 5.43-14.68 12.09-14.68 5.28 0 9.43 4.152 11.13 9.052h-2.86c-1.13-2.037-3.54-5.8-8.27-5.8m-33.57-2.506h16.4v2.92h-13.28v9.073h12.95v2.92h-12.95V58.8h13.6v2.878h-16.72V33.756zM226.24 61.68h-3.1V36.676h-6.91v-2.92h16.93v2.92h-6.92V61.68zm-57.2-4.506c-1.31 0-2.39-.548-2.39-2.334V39.322c0-1.726 1.08-2.254 2.39-2.254 1.29 0 2.37.528 2.37 2.254V54.84c0 1.786-1.08 2.334-2.37 2.334m7.04-23.244c-1.22-.666-2.81-1.055-4.67-1.234-.67-.08-1.43-.1-2.19-.1-.92 0-1.77.02-2.57.117-2.16.236-3.78.784-4.84 1.65-1.49 1.193-2.23 2.914-2.23 5.073V54.78c0 2.155.74 3.86 2.23 5.075 1.06.844 2.68 1.412 4.84 1.628.8.1 1.65.154 2.57.154.76 0 1.52-.06 2.19-.118 1.86-.175 3.45-.585 4.67-1.235 1.7-.9 2.54-2.603 2.54-5.075V38.986c0-2.452-.84-4.174-2.54-5.06m31.31-.503h-7.08V54.84c0 1.786-1.06 2.334-2.4 2.334-1.29 0-2.36-.548-2.36-2.334V33.423h-7.08v21.36c0 2.156.74 3.86 2.22 5.075 1.47 1.157 3.97 1.782 7.42 1.782 2.86 0 5.18-.45 6.86-1.35 1.69-.903 2.53-2.605 2.53-5.076V33.423h-.16zm-61.43 0h-9.05l-6.17 27.965h6.36l4.2-23.243 3.05 23.243h7.17l-5.56-27.965zM115.21 46.65v2.096c0 1.51 0 2.785-.15 3.86 0 .513-.1.963-.1 1.292-.12.942-.37 1.69-.71 2.217-.24.393-.67.605-1.21.726-.1.02-.2.04-.3.04h-2.02V37.873h2.02c.1 0 .2.02.3.06.54.1.97.313 1.21.707.34.51.59 1.253.71 2.21 0 .334.1.764.1 1.296.11 1.073.15 2.348.15 3.858v.646zm6.92-6.958c-.38-1.312-.9-2.427-1.57-3.31a6.02 6.02 0 0 0-1.16-1.156c-1.47-1.198-3.44-1.803-6.01-1.803h-10.28v27.965h10.28c2.57 0 4.54-.63 6.01-1.802a6.26 6.26 0 0 0 1.16-1.157c.67-.866 1.19-1.978 1.57-3.294.45-1.607.66-3.488.66-5.684v-4.054c0-2.198-.21-4.098-.66-5.706"/></svg>