<svg xmlns="http://www.w3.org/2000/svg" viewBox="0 0 600 400"><path fill="#2E2A25" d="M391.008 158.143c.435.042.87.12 1.306.12 3.838.007 7.677.002 11.515-.004.376-.002.753-.02 1.128-.052.278-.024.473-.188.49-.473.034-.564.056-1.13.056-1.695 0-6.04-.007-12.082-.01-18.122 0-.503.012-1.006.032-1.51.015-.37.247-.573.595-.6.44-.033.88-.026 1.32-.026 15.92-.006 31.84-.014 47.76-.012 1.13 0 2.257.065 3.388.242-1.54.187-3.085.354-4.624.564-4.566.624-9.02 1.695-13.284 3.466-8.11 3.368-14.674 8.7-19.846 15.76-4.6 6.28-7.636 13.273-9.33 20.858-.11.49-.24.98-.125 1.49-.42 1.136-.493 2.343-.61 3.52-1.498 14.94 2.452 28.304 12.016 39.863 6.663 8.054 15.258 13.167 25.457 15.544 3.064.714 6.17 1.167 9.294 1.494l-.015.452c-2.015-.01-4.03-.028-6.045-.03-17.13-.007-34.262-.01-51.392-.022-2.593-.002-2.276.282-2.28-2.346-.014-6.928-.01-13.856-.01-20.784 0-1.82.05-1.71-1.78-1.71-12.282-.003-24.564 0-36.845-.013-2.552-.003-2.23.306-2.243-2.168-.017-3.276-.006-6.55-.005-9.826 0-.44-.01-.883.02-1.322.02-.348.21-.59.588-.6a56.623 56.623 0 0 1 1.7-.026c12.09-.005 24.184-.003 36.276-.017 2.627-.004 2.273.3 2.278-2.33.013-6.74 0-13.478-.005-20.217 0-.504-.008-1.007-.02-1.51-.01-.37-.213-.578-.577-.594a36.21 36.21 0 0 0-1.51-.026c-21.665-.01-43.33-.017-64.996-.025-.252 0-.504-.006-.756 0-1.167.03-1.192.05-1.215 1.138-.01.504-.003 1.008-.003 1.512 0 19.524.004 39.048 0 58.572-.002 2.606.273 2.272-2.34 2.286-2.833.016-5.667.006-8.5.004-.44 0-.884 0-1.322-.037-.268-.022-.475-.208-.496-.478-.044-.563-.06-1.13-.06-1.694-.002-6.802.002-13.604 0-20.406 0-2.565.153-2.226-2.215-2.232-5.354-.014-10.708 0-16.06-.004-1.702 0-3.403-.026-5.075-.404-.122-.028-.25-.036-.373-.06-3.182-.59-5.2-2.382-5.816-5.625-.234-1.236-.5-2.47-.528-3.734-.03-1.322-.076-2.644-.077-3.966-.005-7.495 0-14.99.002-22.484 0-.504.012-1.008-.007-1.51-.027-.723-.153-.837-.91-.874-.25-.012-.504-.005-.756-.005-8.19.002-16.376.005-24.563.005-1.758 0-1.657-.05-1.656 1.63.008 9.07-.005 18.14.03 27.208.02 4.993.6 9.925 1.91 14.753a31.66 31.66 0 0 0 2.89 7.16c2.862 5.13 7.16 8.528 12.64 10.5 1.48.533 2.99.973 4.542 1.253 1.542.277 3.082.57 5.048.934-1.284.035-2.148.078-3.01.078-9.322.007-18.643.008-27.964.01h-.19c-2.052.022-1.705-.012-2.205-1.592-1.818-5.758-3.592-11.53-5.386-17.297-8.52-27.39-17.04-54.78-25.558-82.17-.203-.65-.382-1.31-.56-1.926.58-.365 1.097-.255 1.59-.255 11.526-.005 23.052 0 34.577.002.126 0 .252-.002.378 0 1.235.03 1.256.03 1.258 1.28.01 6.298-.004 12.596.013 18.894.008 2.62-.345 2.296 2.31 2.295 42.952-.005 85.905-.018 128.858-.032.632-.002 1.26-.03 1.89-.045zM180.3 264.994c-.093-.167-.21-.305-.422-.31-.63-.008-1.258-.022-1.887-.022-35.497.005-70.995.012-106.493.016-.628 0-1.257-.013-1.884-.047a.5.5 0 0 1-.49-.475 9.23 9.23 0 0 1-.05-.94c0-4.532 0-9.063.002-13.595 0-.126-.003-.252.002-.378.036-.903.124-1.01.954-1.04.567-.022 1.134-.01 1.7-.008 31.47.007 62.94.015 94.41.016.75 0 1.51.113 2.25-.124.628.015 1.257.044 1.886.044 100.98.004 201.96.007 302.938.007.818 0 1.635-.03 2.453-.045.74.233 1.5.12 2.25.12 19.828-.007 39.655-.026 59.483-.036 2.73 0 2.43-.28 2.436 2.403.01 3.964-.003 7.93-.007 11.896 0 .503 0 1.007-.018 1.51-.017.452-.284.675-.724.684-.566.012-1.133.014-1.7.013-12.588-.007-25.177-.017-37.766-.017-.688 0-1.386-.1-2.063.114-.756-.015-1.51-.042-2.266-.042-101.366-.002-202.732-.002-304.098 0-3.148 0-6.296.006-9.444.02-.49.003-1.01-.108-1.45.236zM361.88 111.83c.817.032 1.632.095 2.448.094 57.546-.007 115.09-.02 172.637-.024 3.32 0 2.85-.435 2.87 2.93.025 3.84.007 7.68.005 11.522 0 .44-.01.88-.032 1.32-.02.366-.245.582-.594.603-.565.033-1.132.028-1.7.027-41.427-.004-82.855-.006-124.283-.014-15.298-.003-30.598-.018-45.897-.02-.688 0-1.386-.1-2.064.115-1.07-.015-2.14-.042-3.21-.042-96.745 0-193.488.003-290.232.005-.693 0-1.386.002-2.078-.015-.43-.01-.706-.217-.72-.68a33.02 33.02 0 0 1-.015-.945c0-4.41 0-8.818.003-13.227 0-.315.007-.63.02-.944.02-.457.295-.672.723-.69.504-.022 1.008-.02 1.512-.02 13.227.002 26.453.01 39.68.008l247.906-.02c1.008 0 2.016.012 3.023.017zM156.703 235.98c-.478.47-.486 1.146-.73 1.718-.48 1.123-.48 1.155-1.618 1.187-.314.01-.63.003-.944.003-13.212 0-26.425.006-39.638-.006-.67 0-1.384.19-2.01-.222.104-.41.437-.41.74-.463 2.476-.44 4.95-.888 7.384-1.53 6.753-1.78 12.72-5.025 17.96-9.626a59.932 59.932 0 0 0 5.713-5.755c.45-.52.95-1.008 1.227-1.66l.073-.11c.475-.288.81-.682.918-1.24 3.104-3.868 5.388-8.197 7.072-12.837 2.752-7.584 3.58-15.406 2.747-23.424-1.033-9.95-4.532-18.93-10.632-26.855-7.19-9.342-16.55-15.317-28.1-17.812-2.403-.52-4.817-.943-7.266-1.16-.252-.023-.502-.038-.72-.287 1.075-.25 2.144-.173 3.203-.173 10.078-.006 20.155-.002 30.233 0 15.053.004 30.107.004 45.16.016 2.517.002 2.038-.292 2.865 2.034 8.738 24.603 17.467 49.21 26.198 73.814.19.535.403 1.06.574 1.6.225.71.076.92-.65.948-.376.015-.755.006-1.133.007-7.433.002-14.865.007-22.298 0-.615-.002-1.255.137-1.956-.24.173-.642.342-1.304.528-1.962l9.78-34.498c.17-.596.438-1.176.292-1.814-.496-.243-1.01-.152-1.506-.152-7.37-.004-14.738 0-22.108 0-.252 0-.505.02-.756 0-.582-.04-.91.18-1.096.772-.617 1.98-1.29 3.945-1.936 5.918a326707.1 326707.1 0 0 0-17.33 52.906c-.095.297-.16.604-.24.906z"/><path fill="#2E2A25" d="M124.453 198.568c-.582.528-.737 1.297-1.084 1.954-2.744 5.195-6.78 9.027-12.102 11.492-2.304 1.067-4.768 1.613-7.267 1.96-2.243.314-4.5.545-6.772.562-1.29.01-1.324-.016-1.347-1.392-.008-.567 0-1.134 0-1.7 0-11.147.003-22.295.004-33.442 0-.504.01-1.008-.006-1.51-.03-.984-.088-1.058-1.11-1.067-2.204-.018-4.408-.01-6.613-.008-5.794 0-11.588.007-17.382 0-1.666 0-1.68-.017-1.684-1.66-.01-3.905-.002-7.81 0-11.714 0-.126-.004-.252 0-.378.035-1.02.107-1.104 1.05-1.134.44-.013.883-.002 1.323-.002 4.975 0 9.95.006 14.926-.003.497 0 .996-.08 1.494-.124 2.015.017 4.03.068 6.044.04 2.837-.04 5.667.09 8.49.33 2.325.196 4.62.59 6.85 1.294 4.577 1.447 8.362 4.073 11.32 7.833 4.152 5.28 6.273 11.296 6.174 18.03a26.483 26.483 0 0 1-1.68 8.863c-.22.59-.42 1.185-.63 1.778zM457.525 239.02l.015-.45c.262-.367.67-.384 1.02-.29 1.412.378 2.857.293 4.29.366.062.003.14 0 .18.035.077.07.19.17.182.247-.01.102-.1.25-.19.283-.772.282-4.418.23-5.36-.062-.055-.016-.092-.084-.137-.127zM145.778 218.274c-.11.56-.443.953-.918 1.24-.245-.912-.123-1.076.918-1.24zM501.997 214.085c-10.703 0-21.407-.002-32.11 0-2.962.002-5.9-.192-8.835-.666-7.658-1.236-13.275-5.447-17.415-11.808-2.53-3.886-3.754-8.203-3.923-12.837-.164-4.466.365-8.818 2.297-12.884 3.847-8.09 10.024-13.246 19.003-14.76 2.55-.43 5.12-.64 7.703-.64 22.98.006 45.96.024 68.942.037 2.055 0 1.963-.07 1.962 1.953-.002 16.56 0 33.118-.002 49.676 0 .44-.005.88-.03 1.32-.018.352-.202.594-.572.612-.565.027-1.132.037-1.698.037-11.774.002-23.548 0-35.32 0v-.04zm-29.44-13.67l-.172-.388c1.604-1.503 3.207-3.007 4.813-4.51 2.99-2.795 5.985-5.587 8.972-8.387 1.106-1.037 2.12-2.155 2.922-3.45 3.116-5.04 1.803-11.054-3.21-14.187-4.067-2.543-8.463-2.818-12.866-1.097-4.867 1.903-7.337 5.718-7.86 10.854-.06.576.145.83.716.842 1.196.023 2.393.02 3.59.012 1.677-.012 1.766.232 2.033-1.807.632-4.83 5.977-7.016 9.782-5.056 2.052 1.058 3.21 2.747 3.197 5.16-.008 1.66-.58 3.09-1.583 4.35a27.45 27.45 0 0 1-2.29 2.507c-4.19 4.095-8.406 8.163-12.594 12.258-.85.83-2.057 1.482-2.4 2.602-.338 1.1-.143 2.367-.144 3.56 0 1.62.014 1.635 1.697 1.635 7.306 0 14.613-.007 21.92-.012.252 0 .504.006.756-.007.833-.042.938-.14.954-1.045.02-1.133.007-2.268.005-3.4-.002-1.324.006-2.647-.016-3.97-.012-.64-.19-.848-.744-.858-1.26-.023-2.52-.024-3.78-.003-.56.01-.734.216-.752.85-.026.943-.015 1.888-.03 2.833-.008.442-.233.713-.69.714-4.075.004-8.15.002-12.228.002zm32.997-13.99c0 .756-.037 1.513.006 2.265.17 2.972.732 5.87 1.916 8.61 2.194 5.074 6.506 9.054 13.515 8.502 3.38-.266 6.13-1.74 8.337-4.267 1.644-1.88 2.716-4.075 3.398-6.46 1.393-4.872 1.486-9.794.523-14.75-.36-1.86-.907-3.662-1.77-5.355-2.246-4.41-5.696-7.104-10.746-7.524-3.777-.314-7.085.738-9.86 3.343-1.83 1.716-3.018 3.85-3.86 6.186-1.097 3.053-1.542 6.213-1.458 9.45zm-6.617 18.857v-.01c.813 0 1.627.015 2.44-.007.345-.01.606-.225.61-.58.02-1.564.02-3.128.013-4.69-.002-.453-.284-.68-.715-.684-1.627-.008-3.254-.01-4.88.008-.342.004-.6.212-.605.582a333.43 333.43 0 0 0-.02 4.69c0 .45.28.682.716.69.814.01 1.627.002 2.44.002z"/><path fill="#2E2A25" d="M529.294 186.187c-.13 3.952-.784 7.314-2.66 10.355-.602.974-1.326 1.84-2.183 2.592-2.844 2.488-6.6 2.505-9.46.04-1.356-1.172-2.362-2.615-3.084-4.246-1.485-3.35-2.04-6.834-1.606-10.5.293-2.474.93-4.813 2.137-6.99.9-1.62 2.05-3.027 3.66-3.993 2.373-1.424 4.775-1.422 7.158-.03 1.446.845 2.532 2.067 3.393 3.486 1.257 2.073 2.06 4.313 2.34 6.724.114.998.357 1.987.306 2.563z"/></svg>