<svg xmlns="http://www.w3.org/2000/svg" viewBox="0 0 152.8 188.1"><path d="M88.93 133.5l-3.84 3.9-3.84-3.9 3.84-3.8 3.84 3.8m41.17 27.8c0 1.5 0 3.2.7 4.6-1.1-.1-1.7-.3-3.6-.3-1.1 0-1.7.1-2.6.3.2-.6.3-.9.4-1.7.2-1 .2-4.6.2-5.9v-5c0-2.1 0-5.3-.1-6.4-.1-.8-.3-2.9-3-2.9-2.6 0-3.5 1.9-3.9 3.5-.3 1.6-.3 3.4-.3 10.2 0 6 0 6.5.5 8.2-.8-.1-1.8-.2-3.2-.2-1.1 0-1.8 0-2.7.2.3-.8.5-1.2.6-3.8.1-2.5.2-15-.2-18-.2-1.8-.7-2.2-1.2-2.7 3.8-.2 5-.8 6.1-1.4v5c.6-1.5 1.7-4.7 6.4-4.7 5.8 0 5.8 4.2 5.9 7v14m-26.7-8.6c-.1 3-.2 5-.9 6.6-1 2.1-2.65 2.7-3.85 2.7-2.79 0-3.39-2.3-3.39-4.6 0-4.3 3.9-4.7 5.64-4.7h2.5zm-12.77 5.7c0 3 .88 5.9 3.48 7.1 1.15.5 2.31.5 2.68.5 4.31 0 5.71-3.1 6.61-5.1 0 2.1 0 3.3.1 5 .9-.1 1.7-.2 3.1-.2.8 0 1.5.1 2.3.2-.5-.8-.8-1.3-.9-3.1-.1-1.8-.1-3.5-.1-6v-9.4c0-3.6-1-7-7.92-7-4.59 0-7.28 1.4-8.62 2.1.56 1 1.02 1.9 1.43 3.8 1.81-1.5 4.18-2.4 6.58-2.4 3.83 0 3.83 2.6 3.83 6.2-.9 0-1.6-.1-2.8-.1-5.94 0-9.83 2.2-9.83 8.4m-2.04 7.5c-.92-.2-1.57-.3-2.92-.3-1.48 0-2.5.1-3.56.3.46-.9.65-1.3.78-4.4.19-4.1.24-15.1-.1-17.4-.23-1.8-.65-2.1-1.29-2.5 3.79-.4 4.86-.7 6.62-1.5-.37 2-.42 3-.42 6.2-.1 15.9-.14 17.7.88 19.6m-13.8-12.8c0 4.3-.79 10.1-6.17 10.1-.74 0-1.66-.2-2.27-.3-.1-1.7-.1-4.6-.1-7.9 0-4 .42-6.1.74-7.1.97-3.3 3.15-3.3 3.57-3.3 3.52 0 4.22 4.9 4.22 8.5zm-13.3 5c0 3.4 0 5.4-.56 6.9 1.9.7 4.26 1.1 7.09 1.1 1.81 0 7.04 0 9.87-5.8 1.34-2.6 1.81-6.3 1.81-9 0-1.7-.19-5.3-1.53-7.6-1.3-2.2-3.38-3.3-5.61-3.3-4.45 0-5.74 3.7-6.44 5.6 0-2.4.1-10.6.42-14.9-3.01 1.4-4.87 1.7-6.86 1.9 1.81.7 1.81 3.8 1.81 13.7v11.4m-14.29-7.5c.1-3.8.83-7.3 4.12-7.3 3.62 0 3.89 4 3.8 7.3h-7.92zm12.51.5c0-5.4-1.06-10.8-7.92-10.8-9.46 0-9.46 10.5-9.46 12.7 0 9.4 4.22 13.1 11.31 13.1 3.15 0 4.68-.4 5.52-.7-.1-1.6.18-2.7.46-4.1-.97.6-2.23 1.4-5.01 1.4-7.22 0-7.32-6.6-7.32-8.9h12.33l.1-2.7m-24.21-3.6c0 .1 0 7.5-.14 9.5-.1 1.5-.23 4.9-3.57 4.9-3.43 0-4.26-3.9-4.54-5.6-.32-1.9-.32-3.5-.32-4.2 0-2.2.13-8.4 5.37-8.4 1.58 0 2.46.4 3.15.8v3zM22 153c0 13 6.95 13 7.97 13 2.87 0 4.73-1.5 5.51-4.3l.1 4.2c.88-.1 1.76-.2 3.19-.2.51 0 .93 0 1.3.1.37 0 .74 0 1.16.1-.74-1.5-1.3-4.9-1.3-12.1 0-7 0-18.9.61-22.6-1.67.8-3.11 1.3-6.26 1.6 1.25 1.4 1.25 2.1 1.25 8.2-.88-.3-1.99-.6-3.89-.6-8.3 0-9.64 7.2-9.64 12.6M39.74 51.28c.47-1.44.55-2.3.73-3.13-1.29 1.65-.6 2.01-.73 3.13m2.39-9.97c.23 2.15-1.62 2.99.41 1.57 1.09-2.46-.43-.68-.41-1.57M77.6 22.45c1.01-.37 2.48-.21 3.55-.45-1.39.12-2.78.19-4.16.36l.61.1m32.5 40.21l-.3.56c-.4 2.85-1.2 5.68-2.6 8.31 1.5-2.77 2.5-5.8 2.9-8.87M68.98 71.6c-.52-.57-.83-1.26-1.17-1.95.33 1.21 1 2.25 1.63 3.31l-.46-1.36m-2.32.1l-.21 1.04c.98 1.34 1.76 2.78 3.01 3.82-.9-1.76-1.57-2.48-2.8-4.86m37.14-10.74c.1 2.42-.7 3.59-1.5 5.67l-1.3.64c-1.01 2.06.2 1.31-.6 2.94-1.66 1.46-5.01 4.59-6.09 4.87-.78 0 .53-.92.71-1.28-2.21 1.52-1.78 2.28-5.16 3.2l-.1-.22c-8.32 3.92-19.9-3.85-19.74-14.44-.1.67-.26.5-.44.77-.43-5.45 2.52-10.92 7.49-13.16 4.86-2.41 10.56-1.42 14.04 1.83-1.91-2.51-5.72-5.17-10.23-4.92-4.42.1-8.56 2.88-9.94 5.93-2.26 1.43-2.52 5.5-3.51 6.24-1.33 9.76 2.5 13.98 8.97 18.94 1.02.68.29.79.42 1.31-2.15-1-4.12-2.52-5.74-4.39.86 1.26 1.79 2.48 2.99 3.44-2.03-.68-4.74-4.91-5.53-5.08 3.5 6.26 14.18 10.97 19.78 8.63-2.59.1-5.88.1-8.79-1.02-1.22-.63-2.88-1.93-2.59-2.17 7.64 2.85 15.53 2.16 22.13-3.14 1.73-1.31 3.53-3.54 4.03-3.57-.8 1.21.2.58-.5 1.64 1.7-2.7-.7-1.1 1.8-4.66l.9 1.25c-.4-2.25 2.8-4.97 2.5-8.51.7-1.09.8 1.16 0 3.66 1-2.77.2-3.21.5-5.5.3.77.7 1.59.9 2.4-.7-2.68.7-4.51 1-6.06-.3-.15-1 1.18-1.2-1.98 0-1.37.4-.72.5-1.05-.3-.16-1-1.21-1.4-3.23.3-.47.8 1.23 1.3 1.3-.3-1.6-.8-2.83-.8-4.06-1.2-2.59-.4.35-1.4-1.11-1.4-4.11 1.1-.95 1.2-2.82 2 2.89 3.2 7.38 3.7 9.24-.4-2.27-1.1-4.46-1.8-6.59.6.26-1-4.66.7-1.4-1.8-6.95-8-13.44-13.7-16.48.7.64 1.58 1.43 1.26 1.56-2.83-1.68-2.33-1.82-2.74-2.53-2.3-.94-2.46.1-3.98 0-4.35-2.3-5.19-2.06-9.19-3.5l.18.85c-2.88-.96-3.36.36-6.47 0-.19-.15 1-.54 1.98-.68-2.79.37-2.66-.55-5.39.1.68-.47 1.39-.78 2.1-1.18-2.27.14-5.42 1.32-4.45.24-3.7 1.66-10.28 3.98-13.98 7.44l-.11-.77c-1.69 2.03-7.38 6.06-7.84 8.69l-.45.11c-.88 1.49-1.45 3.18-2.15 4.71-1.15 1.97-1.68.76-1.52 1.07-2.27 4.59-3.39 8.45-4.36 11.61.69 1.04 0 6.23.27 10.39-1.13 20.55 14.42 40.47 31.43 45.07 2.49.9 6.19.9 9.34 1-3.71-1.1-4.19-.6-7.82-1.8-2.61-1.3-3.18-2.7-5.04-4.3l.74 1.3c-3.63-1.3-2.11-1.6-5.07-2.5l.79-1.1c-1.18-.1-3.12-1.9-3.65-3l-1.29.1c-1.54-1.88-2.37-3.26-2.31-4.33l-.41.75c-.48-.81-5.7-7.16-2.99-5.68-.5-.46-1.17-.75-1.89-2.07l.55-.63c-1.3-1.68-2.4-3.83-2.32-4.54.7.94 1.18 1.11 1.66 1.27-3.29-8.16-3.48-.45-5.97-8.31h.53c-.41-.7-.65-1.36-.98-2.01l.23-2.28c-2.37-2.74-.66-11.65-.32-16.53.24-1.99 1.98-4.1 3.3-7.42l-.8-.14c1.54-2.69 8.8-10.8 12.16-10.38 1.63-2.05-.32 0-.64-.52 3.58-3.71 4.7-2.62 7.12-3.29 2.6-1.54-2.24.61-1-.59 4.5-1.15 3.19-2.61 9.06-3.19.62.35-1.44.54-1.95 1 3.75-1.84 11.87-1.42 17.14 1.02 6.12 2.86 13.04 11.31 13.24 19.26l.3.1c-.1 3.16.5 6.81-.6 10.17l.8-1.59M78.89 23.61l-.56.11h.53v-.1m-1.56-.46c.8.14 1.73.25 1.59.45.88-.2 1.08-.37-1.59-.45m16.65 36.78c.18-2.69-.53-1.84-.77-.81.28.14.5 1.9.77.81m-2.96 7.71c.89-1.23 1.54-2.58 1.77-3.97-.2.99-.74 1.85-1.25 2.75-2.79 1.76-.26-1.04 0-2.11-3 3.78-.41 2.27-.52 3.33m-8.02 2c-1.49 0 .28.76 2.23 1.06.54-.42 1.03-.84 1.46-1.26-1.21.3-2.44.31-3.69.2"/></svg>