<svg viewBox="0 0 500 500" xmlns="http://www.w3.org/2000/svg"><path class="logotype logotext" d="M360.7 192.4h34.8v65.9h30.6v30.8h-65.6v-96c0-.3 0-.6.2-.7zm-133.6-5.8c7.4 4.9 14.9 9.6 21.8 14.9-15.6 9.8-31 20-46.6 29.9 2.4 1.8 5.1 3.3 7.4 5.1 15.8-10 31.5-19.9 47.1-29.9 7 4.3 14 8.8 20.4 13.7-15.7 9.9-30.8 20.3-46.4 30.3 2.3 1.9 5.2 3.3 7.7 4.9 16.1-9.8 31.7-20 47.5-30.1v-33h34.8v65.7c9.8.5 20.7 0 30.9.2v30.8H286v-31.3c-19.2 11.8-39 25-58.4 37.4-20.2-13.1-39.7-27-59.8-40.1-5.9 18.5-19.8 32.4-42.7 34-14.3 1.1-30.6-.7-47.09 0v-96.7c20.62 1.4 43.29-2.7 59.59 2.4 14.5 4.4 24.7 16 29.5 30.3 20.1-12.6 40-25.6 60-38.5zm-115.9 36.9v34.8c8.3 0 14.6.5 19.5-3.2 7.2-5.7 8.7-19.5 2.3-26.9-4.3-5-11.6-6-21.6-5.4-.3.1-.2.4-.2.7zM241.3 15.48h14.4c69.9 3.94 119.8 30.5 156.7 67.72 37 37.2 64.3 86.3 68 156.5v14c-3.6 71.3-31.4 118.4-68 156.7-38.4 36.4-85.6 64-157 67.5h-14.1c-70-3.9-119.8-30.5-156.8-67.7-36.97-37.2-64.3-86.3-67.95-156.5v-14c.18 0 .27-.1.23-.4 3.5-70 30.98-119.6 67.72-156.33 36.9-36.92 87.3-63.67 156.8-67.49zm-45.5 33.16c-13.8 3.69-26.1 8.38-37.3 13.92-34.1 16.86-62.22 40.94-81.88 71.94-19.19 30.1-35.81 69-33.4 119.9 1.52 32.1 8.84 59 20.41 82.1 22.84 45.4 57.67 78.9 105.77 99.2 23.8 10.1 53.3 17.1 86.5 15.6 31.9-1.6 59.5-8.7 82.3-20.2 44.8-22.6 80.2-57.3 99.8-105.3 9.9-24.3 17.3-52.3 15.7-86.3-3-64.3-29.2-108-63.8-141.23-17-16.46-37.6-30.46-61.9-40.58-23.5-9.82-54.1-17.1-86.9-15.54-16.2.77-31.4 2.77-45.3 6.49z"/></svg>