<svg xmlns="http://www.w3.org/2000/svg" viewBox="0 0 929.5 209"><path d="M864.5 165.2c0-12 9-21.8 22-21.8 12 0 21 9.8 21 21.8 0 12.1-9 21.8-21 21.8-13 0-22-9.7-22-21.8M22.1 184.7h46.5c68.2 0 94.2-40.8 94.2-79.4C162.8 52.25 129 22 67.6 22c-16.8 0-35.4.7-45.6 1.87zM74.5 153c-5.2-.1-10.7.3-13.5.1 0 0-.2-98.29 0-98.31 2.9-.3 8-.57 14-.57 23.1 0 46.8 15.16 46.8 49.88 0 39.8-30.2 49.3-47.3 48.9M502 55.32h39.4V24.69H502zm70.6-20.84v32.06h-15.2v29.22h15.2v48.74c0 25.9 12.2 42.4 39.9 42.4 12 0 26-3.2 28-3.9v-30.6c-2 .4-9 1.9-14 1.9-5.5 0-15.3-1.5-15.3-16.4V95.75h25.3V66.48h-25.3V30.07l-38.6 4.37m90.9 0V66.5h-15v29.22h15v48.78c0 25.9 13 42.4 40 42.4 13 0 26-3.2 28-3.9v-30.6c-1 .4-9 1.9-14 1.9s-15-1.5-15-16.4V95.75h25V66.48h-25V30.07l-39 4.37M502 184.5h39.4V66.56H502zm-78.7-26.8c-12.7 0-21.1-12.6-21.1-32.2 0-15.5 5.6-32.13 21.3-32.13 15.1 0 20.5 17.23 20.5 32.03 0 19.6-8.2 32.3-20.7 32.3zm-.5 29.2c30.7 0 61.8-19.4 61.8-62.5 0-25.72-15.2-60.23-59.8-60.23-46 0-62.7 33.45-62.7 62.13 0 36.1 25 60.6 60.7 60.6m373.7-95.44c15 0 19 13.14 19 20.34h-39c0-10.2 7-20.34 20-20.34zm41 60.74c-6 2.2-15 5.1-28 5.1-17 0-30-5.7-32-19.1h72c1-2.6 2-6.8 2-15.5 0-30.6-15-58.7-54-58.7-38 0-58 29.6-58 62.8 0 38.2 27 60.1 64 60.1 24 0 34-5.5 40-7.7l-6-27M232.2 91.46c14.3 0 18.7 13.14 18.7 20.34h-38.8c0-10.2 7.1-20.34 20.1-20.34zm41.2 60.74c-6.3 2.2-15.8 5.1-28 5.1-17 0-30.3-5.7-32.5-19.1h72.5c.6-2.6 1.5-6.8 1.5-15.5 0-30.6-15.2-58.7-54.1-58.7-37.7 0-57.8 29.61-57.8 62.8 0 38.2 26.7 60.1 64 60.1 23.5 0 33.9-5.5 40.3-7.7l-5.9-27m31.4 32.3h39.4V24.64h-39.4z"/></svg>