<svg xmlns="http://www.w3.org/2000/svg" viewBox="0 0 476 153.77"><path d="M448.73 90.237l1.69 4.732 1.7-4.733H454v6.61h-1.21v-5.334l-1.83 5.335h-1.06l-1.85-5.335v5.335h-1.21v-6.61h1.89zm-8.65 1.103v-1.103h5.64v1.103h-2.16v5.508h-1.32V91.34h-2.16M150.8 116.99c-.71-.7-1.55-1.06-2.57-1.06h-47.62c-.704 0-1.263-.18-1.7-.56-.42-.39-.652-.81-.652-1.33v-3.69h48.292c1.02 0 1.86-.36 2.58-1.07.69-.7 1.07-1.56 1.07-2.56 0-1.02-.38-1.86-1.07-2.58-.72-.69-1.56-1.05-2.58-1.05H94.64c-1.012 0-1.864.36-2.567 1.05-.705.72-1.05 1.56-1.05 2.58v6.56c0 1.52.265 2.88.816 4.09.563 1.21 1.268 2.24 2.133 3.1.834.86 1.823 1.52 2.936 2.01 1.11.47 2.217.71 3.32.71h48c1.02 0 1.86-.35 2.57-1.06.7-.7 1.07-1.57 1.07-2.57 0-1.01-.37-1.86-1.07-2.57M94.64 97.497h53.59c1.02 0 1.86-.36 2.57-1.068.7-.7 1.07-1.562 1.07-2.558 0-1.022-.37-1.858-1.07-2.58-.71-.692-1.55-1.055-2.57-1.055H94.64a3.53 3.53 0 0 0-2.567 1.056c-.705.72-1.05 1.557-1.05 2.58 0 .995.345 1.856 1.05 2.556.703.708 1.555 1.067 2.568 1.067m-65.306 0v18.453h39.27c1.72 0 3.144-.33 4.244-.96 1.137-.62 2.008-1.4 2.648-2.3a8.152 8.152 0 0 0 1.3-2.99c.246-1.08.364-2.07.364-2.98 0-.91-.118-1.9-.363-2.99a8.035 8.035 0 0 0-1.3-2.98c-.64-.9-1.512-1.673-2.65-2.306-1.1-.625-2.522-.947-4.243-.947h-39.27zm54.91 9.223c0 1.86-.298 3.76-.92 5.67-.612 1.92-1.476 3.65-2.63 5.21-1.137 1.57-2.537 2.85-4.165 3.89-1.635 1.03-3.488 1.6-5.565 1.7H25.663c-1.013 0-1.885-.35-2.578-1.06-.724-.71-1.085-1.55-1.085-2.56V93.872a3.45 3.45 0 0 1 1.085-2.568c.693-.71 1.565-1.067 2.578-1.067h44.532c2.183 0 4.152.523 5.87 1.524a15.148 15.148 0 0 1 4.44 3.884 17.74 17.74 0 0 1 2.79 5.286c.642 1.95.95 3.88.95 5.79m349.385-9.984c-2.57 2.26-4.95 4.214-7.11 5.864-2.17 1.64-4.2 3.01-6.12 4.11 1.92 1.12 3.93 2.48 6.05 4.12 2.13 1.64 4.5 3.59 7.18 5.86.4.36.75.78 1.02 1.27.27.52.4 1.05.4 1.6 0 1-.33 1.87-1.04 2.57-.7.71-1.56 1.06-2.57 1.06-.86 0-1.72-.35-2.57-1.06-3.22-2.82-5.93-5.02-8.12-6.61-2.2-1.59-4.17-2.76-5.9-3.51-1.75-.75-3.4-1.22-4.95-1.41-1.58-.16-3.33-.26-5.29-.26h-1.67c-1.67 0-3.2.19-4.6.41-1.42.24-2.95.75-4.58 1.55-1.64.81-3.51 2.01-5.6 3.56-2.08 1.56-4.65 3.66-7.67 6.27-.39.31-.79.56-1.2.77-.41.19-.87.29-1.36.29-1.02 0-1.87-.35-2.57-1.06-.7-.7-1.06-1.57-1.06-2.57 0-.55.14-1.08.39-1.6.29-.49.64-.91 1.05-1.27 2.56-2.27 4.93-4.2 7.1-5.81a63.24 63.24 0 0 1 6.12-4.09c-1.92-1.1-3.93-2.48-6.08-4.11-2.14-1.65-4.52-3.633-7.14-5.944a4.667 4.667 0 0 1-1.05-1.284 3.54 3.54 0 0 1-.39-1.58c0-1.022.36-1.858 1.06-2.58a3.517 3.517 0 0 1 2.57-1.055c.49 0 .95.1 1.36.304.41.2.81.453 1.2.753 3.09 2.725 5.67 4.865 7.8 6.424 2.1 1.566 4.02 2.743 5.69 3.513 1.68.78 3.28 1.29 4.76 1.52 1.49.22 3.12.33 4.87.33h1.16c1.96 0 3.69-.1 5.2-.22 1.51-.15 3.13-.61 4.83-1.36 1.72-.75 3.69-1.94 5.86-3.515 2.2-1.592 4.92-3.823 8.21-6.692.85-.693 1.71-1.056 2.57-1.056 1.01 0 1.87.363 2.57 1.056.71.72 1.04 1.557 1.04 2.58 0 .542-.13 1.078-.4 1.58-.27.508-.62.94-1.02 1.283m-67.94 25.394c-.73.71-1.58 1.06-2.58 1.06-1.01 0-1.87-.35-2.58-1.06-.69-.7-1.05-1.57-1.05-2.57V93.872c0-1.022.36-1.858 1.05-2.58.71-.692 1.57-1.055 2.58-1.055 1 0 1.85.363 2.58 1.056.69.72 1.03 1.557 1.03 2.58v25.687c0 1-.34 1.87-1.03 2.57m-14.82 0c-.69.71-1.57 1.06-2.57 1.06-1.01 0-1.87-.35-2.57-1.06-.71-.7-1.06-1.57-1.06-2.57v-9.22h-44.66v9.22c0 1-.37 1.87-1.08 2.57-.7.71-1.55 1.06-2.55 1.06-1.03 0-1.87-.35-2.57-1.06-.71-.7-1.05-1.57-1.05-2.57V93.872c0-1.022.34-1.858 1.05-2.58.7-.692 1.54-1.055 2.57-1.055 1 0 1.85.363 2.55 1.056.71.72 1.08 1.557 1.08 2.58v9.207h44.66v-9.208c0-1.022.35-1.858 1.06-2.58a3.533 3.533 0 0 1 2.57-1.055c1 0 1.88.363 2.57 1.056.7.72 1.05 1.557 1.05 2.58v25.687c0 1-.35 1.87-1.05 2.57M226.08 93.888c0-1.022.35-1.858 1.05-2.58.72-.692 1.58-1.056 2.57-1.056h45.29c1.4 0 2.73.252 3.96.79 1.23.53 2.32 1.25 3.25 2.162a9.785 9.785 0 0 1 2.2 3.17c.52 1.214.8 2.518.8 3.926 0 1.42-.28 2.73-.8 3.93a9.91 9.91 0 0 1-2.2 3.18c-.93.91-2.02 1.62-3.25 2.15-1.23.53-2.56.79-3.96.79h-39.31c-.65.11-1.21.41-1.67.92-.45.5-.67 1.13-.67 1.89v6.42c0 1-.37 1.87-1.09 2.57-.74.71-1.59 1.06-2.55 1.06-.99 0-1.85-.35-2.57-1.06-.7-.7-1.05-1.57-1.05-2.57v-7.27c0-1.24.23-2.44.67-3.58.46-1.14 1.1-2.12 1.93-2.94.84-.83 1.79-1.5 2.88-1.96 1.08-.49 2.28-.73 3.58-.73h40.15c.75 0 1.42-.25 2-.79.56-.53.87-1.19.87-2.01 0-.75-.31-1.408-.87-1.958-.58-.56-1.25-.828-2-.828H229.7c-.99 0-1.85-.36-2.57-1.07-.7-.7-1.05-1.56-1.05-2.556m1.69 37.882l-67.49-12.21L238.19 22s-37.27 64.062-41.16 83.51c-3.43 17.21 30.74 26.26 30.74 26.26"/></svg>