<svg xmlns="http://www.w3.org/2000/svg" viewBox="0 0 244.62 74.906"><path d="M222.62 49.605h-5.75l-2.41-6.167h-10.02l-2.4 6.167h-5.39l10.3-24.726h5.55m.39 14.44l-3.44-8.74-3.44 8.74zm-22.22-14.334h-22.1v4.274h8.28v20.345h5.53V29.26h8.29m-29.7 16.07h-10.6V24.985h-5.52v24.62h16.12m-43.54-10.673h10.46v-4.275h-10.46V29.26h11.82v-4.274h-17.32v24.618h17.71v-4.276h-12.21m-41.65 4.276h8.7c8.934 0 14.27-4.626 14.27-12.312 0-7.684-5.33-12.306-14.27-12.306h-8.7m5.495 4.274h3.2c5.802 0 8.702 2.86 8.702 8.032 0 5.17-2.9 8.035-8.7 8.035H81.28zM41.345 22L23.417 49.607l17.926-8.628 17.922 8.627zm0 22.732L22 52.906h38.688z"/></svg>