<svg xmlns="http://www.w3.org/2000/svg" viewBox="0 -1 274 36.45"><path d="M234.6 33.29c-1.4-.17-4.3-.85-4.9-1.17-.6-.35-.6-.18.1-3.2l.2-.85 1.6.47c1.3.36 2.3.47 4.9.49h3.5l.6-.69c.6-.57.6-.89.6-2.42 0-.94 0-1.92-.2-2.13-.4-.6-1.3-1-4.4-1.79-6.2-1.5-7-2.4-7-7.46 0-2.94.3-4.03 1.4-5.276 1.5-1.714 4.1-2.358 8.7-2.116 2.6.15 5.5.528 5.8.828.2.238-.3 3.924-.6 3.884-.2 0-1.1-.15-2.1-.28-2.8-.43-6.4-.39-7.3.1-.9.48-1 .77-1 2.88 0 2.21.4 2.51 3.3 3.34 5.7 1.59 6.4 1.89 7.4 3.23 1.4 1.8 1.2 7.97-.3 9.99-1.1 1.75-5.8 2.73-10.3 2.18zM4.106 25.81v-7.42l2.31-1.35c1.16-.73 2.42-1.35 2.51-1.37.21 0 .33 1.44.33 6.53v6.55l2.824-.1c2.21-.11 3.16-.19 3.69-.48 1.26-.68 1.37-1.32 1.37-7.89 0-3.28 0-6.22-.11-6.58-.11-.36-.53-.87-.94-1.19-.73-.54-.94-.54-6.425-.64L4 11.77V7.266l6.18.105c5.91.106 6.44.127 7.69.638.94.346 1.9.946 2.52 1.656 1.79 1.726 1.89 2.396 1.89 10.586 0 7.8-.1 8.58-1.58 10.27-1.78 2.18-3.88 2.66-11.355 2.66H4l.106-7.41zm26.914 7.12c-.11-.16-.11-5.96-.11-12.88l.11-12.564 7.88-.105 7.88-.104v4.514H36.06v5.91l4.94.11 4.94.1v4.27H41l-4.94.11v6.41h10.72v4.51H38.9c-5.99 0-7.88-.11-7.88-.29zm24.06-.83c0-1.83.95-24.113 1.05-24.445.11-.21.84-.284 2.84-.284h2.72l3.06 7.62c1.58 4.23 3.05 7.95 3.25 8.31.21.62.43 0 3.47-7.59l3.26-8.224h5.57l.52 11.024c.32 6.09.53 11.88.53 12.9l.1 1.83h-2.52c-2 0-2.52-.11-2.63-.4 0-.19-.1-2.26-.1-4.56-.11-2.3-.11-5.74-.21-7.63l-.21-3.42-2.21 5.61-2.21 5.63h-6.2l-2.31-5.63-2.21-5.61-.1 3.06c-.11 1.7-.21 4.8-.21 6.93 0 2.11-.11 4.32-.21 4.93l-.11 1.09h-4.94v-1.12zm33.41.83c0-.16 1.79-5.96 4-12.88L96.5 7.486l3.36-.105 3.54-.104 3.8 12.634c2.2 6.94 4 12.78 4 12.95 0 .24-.6.28-2.6.24l-2.5-.1-.8-2.69-.9-2.66h-9.18l-.73 2.73-.85 2.73h-2.52c-1.89 0-2.63-.1-2.63-.28zm14.81-9.63c0-.74-3.33-11.25-3.44-10.97-.2.6-3.25 10.78-3.25 10.97 0 .1 1.45.19 3.36.19 1.83 0 3.33-.11 3.33-.19zm15.5-3.01V7.37h6.8l4.7 9.41 4.7 9.44V7.37h5.1v25.85h-6.8l-4.7-9.45-4.7-9.42V33.22h-5.1V20.29zm30.2 5.52v-7.42l2.4-1.38c1.3-.73 2.4-1.34 2.4-1.34.1 0 .2 2.94.2 6.53v6.55l3.1-.1c2.6-.11 3.1-.17 3.8-.6 1.1-.91 1.2-1.17 1.2-7.9 0-5.41-.1-6.33-.4-6.9-.7-1.22-1.1-1.32-7.1-1.38l-5.6-.1V7.266l6.1.105c4.9.106 6.4.19 7.3.5 1.9.614 3.2 1.694 4 3.36l.8 1.42v15.21l-.8 1.39c-.8 1.67-1.9 2.55-3.7 3.26-1.3.48-2 .53-7.6.62l-6.1.11v-7.46zm26.9-5.52V7.602h6.1c6.5 0 7.6.122 9 1.172 1.4.94 1.7 2.066 1.7 5.466 0 3.3-.3 4.15-1.7 4.94-.7.43-.9.75-.4.75.2 0 .9.32 1.4.7 1.2.96 1.7 2.07 1.7 5.16 0 3.13-.4 4.18-1.6 5.46-1.6 1.59-2.4 1.73-9.9 1.73h-6.3V20.29zm12.2 8.1c.5-.47.6-.77.7-2.22.1-1.02 0-2.02-.1-2.57-.4-1.28-1.2-1.54-4.9-1.54h-3v6.88h3.3c3.1 0 3.3 0 4-.55zm-1.5-10.48c1.1-.43 1.4-1.09 1.4-3.3 0-2.77-.6-3.22-4.8-3.22h-2.4v6.88h2.6c1.6 0 2.7-.11 3.2-.36zm13.5 14.86c0-.17 5.9-19.15 7.4-24.056l.5-1.133 3.4.106 3.5.105 4 12.57 3.9 12.57-2.4.1c-1.5 0-2.7 0-2.8-.17 0-.11-.4-1.3-.8-2.63l-.6-2.38h-4.9l-4.7.11-.7 2.49-.8 2.49-2.5.1c-1.5 0-2.5 0-2.5-.17zm14.7-9.36c0-.19-3.3-11.38-3.4-11.45-.1 0-.8 2.37-1.7 5.41-.9 3.04-1.6 5.64-1.7 5.81-.2.23.7.31 3.3.31 1.9 0 3.5 0 3.5-.11zm39.9-3.12V7.602H270v4.258h-10.5v6.17h9.9v4.27h-9.9v6.43H270v4.28h-15.3V20.29zM66.11 6.255L63.9 1.073 66.11 1h4.31l2.1.105-2.1 4.992c-1.16 2.707-2.1 5.043-2.1 5.153-.11.11-1.06-2.126-2.21-4.964z"/></svg>