<svg xmlns="http://www.w3.org/2000/svg" viewBox="0 0 410 392"><path d="M317.1 365.4c.8-2.1 1.9-5 6.4-19 1-3.2 2.6-8.2 3.7-11.4 1-3.5 2.6-8 3.2-10.3.8-2.4 2.3-6.9 3.1-9.8 1.1-2.9 2.7-8 3.7-10.9 1.1-3.1 3.2-10 4.8-15.1 1.9-5.3 4-11.6 4.8-14.1.8-2.5 2.1-7.2 3.4-10.5 1.1-3.2 2.4-7.6 3.2-9.7.5-2.2 1.6-5.4 2.4-7.3.5-1.9 2.1-7 3.4-11.4 1.6-4.4 2.9-8.8 3.4-9.8.3-1 1.1-3.9 1.9-6.5 1.1-2.5 2.4-7.1 3.4-10.2 1.1-3 3.2-9.8 4.8-15 1.9-5.3 3.4-10 3.4-10.6.3-.6 2.2-5.7 3.7-11.4 1.9-5.7 4-11.8 4.5-13.5.6-1.7 1.1-3.3 1.1-3.5 0-.3-1.9-1.7-9.3-7.1-5.3-3.7-15-10.8-18.7-13.6-1.4-1-3.5-2.4-4.5-3.3-1.4-.9-3-2-3.5-2.5-.8-.6-3.2-2.3-5.3-3.9-2.4-1.5-5.3-3.8-6.9-4.9-1.5-1.1-11.1-8.1-21.1-15.4-10.3-7.43-21.2-15.34-24.4-17.61-3.1-2.28-8.4-6.14-11.7-8.55-3.4-2.43-7.8-5.64-9.8-7.12-2.1-1.48-6.1-4.36-8.9-6.43-2.8-2.06-7.4-5.4-10.2-7.41a987 987 0 0 1-9.6-7.01c-2.6-1.82-6.6-4.75-9-6.49-2.4-1.74-6.3-4.6-8.7-6.36-2.5-1.75-6.4-4.62-8.8-6.37-2.4-1.75-5.7-4.15-7.4-5.34l-2.9-2.15-11 8c-6.1 4.4-12.5 9.03-14.2 10.3-1.8 1.26-3.4 2.41-3.6 2.55-.2.26-3.4 2.58-9.8 7.19-5.9 4.26-9.8 7.11-11.3 8.2-.7.53-3.7 2.75-6.7 4.89-5.1 3.68-11.1 8.05-17.8 12.97-1.6 1.16-3.4 2.48-4.1 2.91-1.3.9-12.9 9.36-17.8 12.96-1.8 1.33-7.2 5.27-11.99 8.67-4.8 3.5-9.6 7-10.6 7.7-1.8 1.4-4 2.9-17.5 12.7-3.8 2.8-7.8 5.7-9 6.6-3.7 2.7-16.7 12.1-19.6 14.2-1.5 1.1-4.7 3.5-7.2 5.3-2.5 1.8-5.5 3.9-6.5 4.7-1.1.8-2 1.5-2 1.7 0 .3 4.1 13 5.9 18.6.5 1.4 2.2 6.5 3.8 11.4 1.5 4.7 2.9 9 3 9.4.1.3 1 2.9 1.8 5.6.9 2.8 2.6 7.9 3.7 11.4 1.2 3.5 3.4 10.3 4.9 15.1 5 15.3 6.3 19.3 7.1 21.6.4 1.2 2 6.3 3.7 11.3 3.6 11.4 9.5 29.4 11.9 36.8 1 2.9 3.1 9.5 4.7 14.6 1.7 5 3.7 11.4 4.7 14.3 2.8 8.7 5.9 18.2 7.3 22.5.7 2.3 2.1 6.6 3.1 9.7 1 3 2.2 6.4 2.6 7.7l.7 2.4H316.6zm-225.39 3.7c-.3-.2-1.4-3.4-2.6-7.1-1.2-3.5-3-9-4-11.9-1-3.2-4.9-15.4-8.7-27-3.8-11.7-7.7-23.6-8.6-26.5-.9-2.9-3.3-10-5.2-15.9-5.4-16.8-9.7-29.8-11.6-35.8-1-3-3.5-10.7-5.6-17.1-2-6.3-4.4-13.4-5.1-15.8-2.5-7.5-5-15.4-8.5-26-1.8-5.6-4.8-14.8-6.6-20.4-2.3-7-3.3-10.5-3.2-10.9.2-.6.8-1.1 11.4-8.7 1.1-.9 3.1-2.3 4.4-3.2 1.2-.9 4.6-3.4 7.6-5.6 3-2.1 6.8-4.9 8.4-6 1.6-1.2 3.4-2.5 3.9-2.9.6-.4 2.1-1.5 3.3-2.4 2.4-1.8 19.5-14.2 21.8-15.8.7-.5 8.6-6.2 17.49-12.7 16.1-11.72 17.4-12.64 24.9-18.12 2.2-1.56 4.8-3.49 5.8-4.23 1.1-.77 5.6-4.1 10.2-7.41 4.6-3.31 9-6.46 9.7-7.01.7-.53 3.7-2.73 6.7-4.9 3-2.14 6-4.36 6.8-4.89.7-.56 5.3-3.88 10.2-7.41 4.8-3.53 9.5-6.95 10.4-7.6.8-.65 2.9-2.12 4.5-3.28 1.6-1.15 4.1-2.95 5.5-4 1.5-1.04 4.1-2.95 5.8-4.23 2.1-1.57 3.4-2.32 3.9-2.32s1.6.65 3.3 1.93c1.4 1.06 4.4 3.22 6.6 4.81 2.2 1.58 5.5 3.96 7.3 5.3 1.8 1.32 4.5 3.26 5.9 4.3 2.3 1.64 11.7 8.44 16.8 12.21 7.7 5.58 13.6 9.84 14.8 10.74.9.58 3 2.11 4.7 3.38 1.7 1.27 4.5 3.31 6.2 4.53 4.1 2.94 16.4 11.91 22.5 16.32 7.1 5.16 22.5 16.28 27 19.68 2.4 1.5 4.7 3.4 5.8 4.1 3.4 2.5 5 3.7 10.3 7.4 2.9 2.1 7.7 5.6 10.6 7.8 2.9 2.1 6.9 5 8.7 6.4 1.9 1.3 5.1 3.7 7.4 5.2 2.2 1.6 6.7 5 10.4 7.5 3.4 2.6 7.9 6 10.3 7.6 2.6 2 4 3 4 3.5.2.4-.3 2.3-1.4 5.5-.8 2.6-3.9 12-6.9 20.8-2.6 8.8-5.8 18.2-6.6 20.9-.8 2.7-2.1 6.1-2.6 7.7-.3 1.5-2.1 6.6-3.7 11.3-1.3 4.8-5 15.8-8 24.5-2.6 8.8-5.8 17.9-6.3 20.3-.8 2.4-3.2 9.1-5 15-1.9 5.9-4.5 13.5-5.6 17.2-1 3.5-3.4 10.6-5 15.9-1.9 5-4.8 14-6.6 19.9-1.9 5.8-5.1 15.3-6.9 21.1-1.9 5.9-3.7 11.4-4 12.2-.2 1.1-.8 1.9-1 2.1-.3.5-4 .5-113 .5-108.39 0-112.59 0-112.99-.5zm220.39-8.7c.5-1.6 5.3-16.2 9-27.8 1.3-4 3.7-11.4 5.3-16.4 1.8-5.3 3.4-10.6 3.7-11.4.5-1 2.1-5.8 3.4-10.6 1.6-5 3.7-11.3 4.8-14.4 1.1-3 3.2-10 5-15.5 1.9-5.4 4.3-13.2 5.6-17.2 1.3-4 2.9-8.8 3.4-10.8 3.7-11.4 8.5-25.8 10.1-30.6 1-3 3.2-9.5 4.5-14.3 1.6-4.8 3.2-9.5 3.7-10.5.2-1.1 1-3.9 1.8-6.4.8-2.5 2.4-7.3 3.5-10.7 1.3-3.4 2.1-6.2 2.1-6.2-.3-.2-13.8-9.9-20.4-14.7-12.4-9.1-14-10.2-16.7-12.1-2.3-1.7-8.7-6.4-15.3-11.2-5.8-4.3-13.2-9.7-15.3-11.1-1.1-.9-3.2-2.3-4.5-3.2-1.4-1-6.4-4.8-11.4-8.42-5.3-3.71-11.8-8.47-14.7-10.59-2.9-2.11-6-4.34-6.8-4.89-.7-.59-2.5-1.83-3.8-2.78-1.3-.98-4.6-3.36-7.3-5.29-2.7-1.96-6.4-4.66-8.3-6.06-1.9-1.38-4.5-3.28-5.8-4.24-1.3-.95-3.5-2.51-4.8-3.46-1.3-.95-2.6-1.91-2.9-2.12-.4-.21-3.8-2.72-7.7-5.55-3.8-2.84-7.4-5.4-7.7-5.69-2.4-1.68-4.2-2.94-6.2-4.42-9.3-6.78-13.5-9.74-13.7-9.74-.3 0-4.1 2.68-16.8 11.97-1.2.85-2.9 2.05-3.7 2.67-1.7 1.18-5.9 4.28-10 7.32-1.4.95-3.2 2.3-4.1 2.99-1 .69-6.1 4.37-11.3 8.18-5.2 3.78-11.7 8.46-14.3 10.34-2.6 1.91-5.6 4.13-6.8 4.92-1.1.82-3 2.25-4.3 3.18-1.3.95-3.9 2.8-5.7 4.13-6.1 4.44-36.29 26.45-37.39 27.15-.6.4-2.9 2-5 3.6-4.7 3.4-8.2 6-13.9 10.1-2.3 1.7-5.4 4-7.1 5.2-1.5 1.1-3.5 2.6-4.3 3.1-.8.6-2.3 1.7-3.3 2.4-1 .8-4.3 3.1-7.2 5.2-13.7 9.9-17.8 13-17.9 13.2-.1.1 1.6 5.5 3.7 11.9 5.8 18 14.3 44.2 20.3 62.6 1.7 5.2 3.4 10.3 3.7 11.4.4 1 2 6.1 3.7 11.3 3 9.3 4.8 14.7 8.6 26.4 1 3.1 3.3 10 5 15.6 1.8 5.3 5.5 16.9 8.4 25.7 2.8 8.7 5.9 18.2 6.8 20.9 2.6 8.2 5.3 16.1 5.6 17.2l.3.7H311.8zm-215.79 2.4c-.3-.6-.6-.8-.6-.8 0-.3-6.1-19.1-7-21.7-.2-.8-1.8-5.6-3.4-10.6-3.8-11.6-9.3-28.8-11.9-36.5-1-3.2-2.5-7.9-3.4-10.6-.9-2.7-1.7-5.2-1.8-5.6-.3-.9-3.4-10.2-7-21.5-1.7-5.3-4-12.2-5.1-15.5-1-3.3-2.3-7.3-2.9-9-.5-1.7-1.2-3.7-1.4-4.5-.5-1.3-5.3-16-9-27.6-3.5-10.9-8.7-26.7-10.9-33.5-1.3-3.9-2.3-7.5-2.3-7.8 0-1-1-.3 11.5-9.3 6.5-4.7 10.3-7.4 14.5-10.6 1-.7 5.1-3.7 9.1-6.6 4-2.9 8.2-5.9 9.2-6.6 2.2-1.7 12.2-8.9 15.7-11.5 2.3-1.6 5.3-3.8 13.89-10.1 1.6-1.1 8.1-5.76 14.3-10.28 6.2-4.56 12.5-9.08 13.9-10.11 3.3-2.49 21.7-15.8 26.4-19.21.9-.66 5.9-4.31 11.1-8.07 5.2-3.78 10.8-7.89 12.6-9.15 1.7-1.25 4.2-3.01 5.4-3.92 2.3-1.65 3.3-2.39 12.1-8.76 3.2-2.32 4.9-3.46 5.4-3.46s2.1 1.05 5 3.18c2.4 1.74 5.4 3.95 6.8 4.9 1.3.95 4.5 3.28 7.1 5.18 2.6 1.9 5.6 4.06 6.6 4.81 1 .74 3.1 2.27 4.6 3.36 1.6 1.11 4.8 3.49 7.3 5.29 2.5 1.8 6.2 4.47 8.2 5.95 5.4 3.86 21.1 15.29 23.5 17.04 1.1.82 3 2.2 4.2 3.07 1.2.87 2.9 2.12 3.8 2.78.9.66 2.4 1.72 3.3 2.38.9.66 2.4 1.72 3.2 2.38 1.1.66 3.7 2.62 6.1 4.37 2.4 1.72 5.8 4.23 7.7 5.57 5.2 3.8 10.8 7.8 11.6 8.4 1.1.8 6.6 4.8 10.6 7.7 1.8 1.4 6.1 4.5 9.2 6.7 3.2 2.3 7.2 5.3 9.3 6.7 1.9 1.3 4.5 3.2 5.8 4.2 4 3 26.2 19.2 28.1 20.5 2.3 1.7 3.1 2.4 3.1 3.2 0 .3-1 3.9-2.3 7.9-2.2 6.2-4.5 13.9-10.9 33.4-.8 2.6-3.2 9.5-5 15.4-1.9 5.9-4 12.4-4.8 14.5-.5 2-2.1 6.7-3.4 10.4-1.1 3.7-3.5 11-5 16.3-1.9 5.2-3.5 10.2-3.7 11-.3.8-1.6 5-3.2 9.4-2.4 7.5-5.3 16.5-9.3 28.9-1 2.9-2.9 9-4.5 13.5-1.3 4.3-2.9 9-3.4 10.6-.3 1.3-1.6 5-2.4 7.9-1.1 2.9-3.2 9.6-5 15.1-1.9 5.3-3.2 9.8-3.2 10.1 0 0-.3.5-.5.8l-.8.5H96.81zm44.39-34.2c14.6-7.9 31.1-12.7 50.2-14.5 4.8-.5 23-.5 27.4 0 11.3 1 18.1 2.4 27.3 5 7.7 2.4 16.4 5.8 22.7 9.3 2.7 1.6 4 1.6 7.3.5 1.8-.5 2.4-.8 3.6-1.9 1.8-1.8 2.5-3.7 1.9-5.8-.1-.5-.4-1.3-.6-1.8-.3-.3-.3-.8-.1-1.3.2-.6.4-.8 1.9-1.1 1.9-.3 2.9-.8 3.9-1.9 1.6-1.3 2.1-3.7 1-6l-.5-1.1-2.9-1.3c-1.5-.6-3.6-1.3-4.6-1.6l-1.8-.8v.5c0 .6.1 1.1.3 1.6.2.8.2 1.1-.4 1.6-.5.5-.7.5-1.4.3-13.5-5.1-24.7-7.4-43.6-9.6-9.7-1-25.5-1.6-35.1-1.3-25.3 1.1-45.5 4.2-61.2 10.1l-3.3 1-.6-.5c-.6-.5-.7-.8-.4-1.6.1-.5.3-1 .3-1.6v-.5l-1.8.8c-1 .3-3.1 1-4.7 1.6-2.8 1-2.8 1.3-3.3 2.4-1.7 3.9.3 6.8 4.9 7.9 1.4.3 1.7.5 1.9 1.1.2.5.1 1-.3 1.8-.7 1.3-.8 2.4-.3 4.2.6 2.2 2.4 4 5.3 4.8 3.1 1.1 4.6 1.1 7-.3zm134.8-25.1c0-1.3.1-2.6.3-3.2l.3-.8h-1.4c-3.6 0-8.6-1-11.7-2.6-9.8-5-13.9-15.6-8.4-21.7.4-.5 4.8-3.5 9.6-6.6 4.8-3.1 8.8-5.9 8.9-6.1.4-.9.6-2.9.3-4.4-.2-1.5-1.3-4.2-2.1-5.2-.5-.6-.3-.8-6.9 5.3-4.6 4.3-4.7 4.4-4.8 5.7-.2 1.2-.9 2.3-1.6 2.3-.1 0-3.3-.5-7-1.1l-6.8-1.1-1 1c-.6.5-1.6 1.4-2.2 1.9-1 .8-1.1 1-1.2 2.5-.1.9-.3 2.2-.4 2.9-.1 1.2-.1 1.2.7 1.6 1.5.5 3.1 2.6 3.7 4.6.6 1.8.6 2.4.5 5.3-.1 3-.2 3.8-.9 5.9l-.8 2.4 1.6 1.9c.9.8 2.4 2.4 3.4 3.4 1.5 1.6 1.8 1.9 3.1 1.9 3.8.5 14.1 3.1 19.5 5 2.4.8 4.7 1.6 4.9 1.6.3 0 .4-.5.4-2.4zm-109.8-5.3c12.9-2.1 35-3.4 49-2.6 11.2.5 21.7 1.5 29 2.6.9.3 1.6.3 1.7 0 .1 0-.8-1.1-2-2.4-1.4-1.6-2.3-2.1-2.7-2.1-.2 0-2.6 0-5.2.3-6.6.2-11.5-.6-17.2-2.4l-2.6-1.1-1.4.8c-.7.6-2.1 1.4-3.1 1.6-1.7.5-2.3.5-6.7.5-4.5 0-4.8 0-6.7-.5-1.1-.5-2.5-1.3-3.1-1.6l-1-.8-1.8.6c-2.6 1-6.5 2.1-9.8 2.3-3.3.6-9.1.6-11.9.3l-1.9-.3-2.1 2.4c-1.9 1.9-2.5 2.7-2.2 2.7 0 0 .8 0 1.7-.3zm74.8-6.9c.6-1 1.5-3.7 1.8-6.1.6-4-.4-7.8-2.4-9.1-1.3-.9-2.1-.8-4.3.3-2.6 1.3-5.3 1.9-9.5 2.2-2.3.2-3.6.4-3.7.6-.2.6-2.2 2.7-4 4.1l-1.8 1.5v2l.1 1.9 1.3.5c2 .8 6.1 1.9 8.5 2.4 1.4 0 4.2.3 7.9.3 5.3 0 5.8-.3 6.1-.6zm-9.4-15.3c1-.3 2.9-1 4.1-1.7l2.2-1.1.1-1.8c.1-1.1.2-1.9.1-2 0 0-1 .5-2.3 1.1-2.7 1.4-5.9 2.5-8.9 3l-2.4.5-.1 1c-.1.5-.2 1.1-.4 1.4-.1.4.1.4 2.8.2 1.6-.1 3.7-.4 4.8-.6zm48.2-6.9l3.9-2.2.4-1.4c.4-2.1.2-4.3-.8-6.1-1-2-1.2-2.2-3-1.4-.8.4-2.1 1-2.8 1.3-1.2.5-1.4.7-1.4 1.4 0 1.3-1 3.5-1.8 4-1.5.9-1.5.8-.7 2s1.7 3.4 1.7 4.1c0 .2.1.4.2.4.2 0 2.1-1 4.3-2.1zm-15.1-13.4c1.1-1 2.8-2.6 3.7-3.4 2.6-2.4 2.7-2.6 2.9-5 .1-2.4-.5-4.6-1.7-5.7l-.6-.6-.3.6c-.2.3-1.9 3-3.9 6-5.3 8.1-5.9 9-5.9 9.1 0 .1.3.8.7 1.7l.7 1.5 1.2-1.2c.7-.6 2.1-2 3.2-3zm-14.4 2.3c1-.4 2-1 3-2.1 1.4-1.3 1.6-1.7 2.3-4 .4-1.4 1.1-3.8 1.7-5.4 6.2-20.2 10.8-40.9 14-63.1 1-6.6 2.4-18.2 2.4-19.3 0-.7-1.2.7-2.4 2.6-1.7 3-1.5 1.8-4.7 20-.9 4.9-2 10.9-2.4 13.3-.4 2.5-1.1 6.1-1.5 8.2-.3 2.2-.8 4.5-.9 5.2-.7 3.9-1.7 9.6-3 17.1-.9 4.6-1.8 9.3-2.1 10.4-1.6 6.4-5.1 13.2-8.4 16.5l-1.2 1.1h.9c.4 0 1.5-.2 2.3-.5zm30.2-2.2c4.5-2.1 4.5-2 4.9-5.2.2-1.9.1-3.8-.6-6-.5-2-.5-2-3.5.7-1.5 1.4-2.7 2.6-2.8 2.6-.1.1-1.2 1.1-2.5 2.2l-2.3 2.1.8 1.4c.4.7.9 1.8 1.1 2.4.5 1.7.5 1.8.7 1.7.1-.1 2-.9 4.2-1.9zm-19-6.8c7.2-11 6.7-10.1 6.5-11.8-.2-2-1.5-4.5-2.8-5.4-.6-.5-1.2-.8-1.3-.8 0 0-.5 1.5-1 3.4-1.1 4.3-3.4 11.8-5 16.5-1.1 3.3-1.2 4.3-.6 4.1.1 0 2-2.7 4.2-6zm16.7-3.6c2-1.7 4.3-3.8 5.1-4.6l1.5-1.4v-1.7c0-1.9-.6-3.5-1.7-4.6l-.6-.6-.8.9c-.4.5-1.9 2.2-3.3 3.8-5.6 6.6-5.5 6.4-5.2 7.3.3.9.2 4.3-.2 5.2-.2.6.3.2 5.2-4.3zm-1.5-9.2l4.4-5.2v-1.4c0-1.9-.4-3.2-1.4-4.3-.9-1.1-1-1.1-1.4-.3-.3.6-2.2 4.2-5.7 10.9l-2 3.7.7.8c.4.5.8.9.8.9.1 0 2.2-2.3 4.6-5.1zm-3-6.7c3.6-6.8 3.6-6.6 2.9-8.7-.4-.9-1.8-2.5-2.3-2.5-.1 0-.9 1.7-1.8 3.8-.7 2-2 5.2-2.7 7.1l-1.3 3.3.5.9c.3.5.6 1.3.6 1.8.1.5.3.8.5.8.1-.1 1.7-3 3.6-6.5zm-3.9-5.9c1.5-3.9 2.6-7.1 2.6-7.6 0-1.2-1-3.3-1.8-3.9-.3-.2-1-.5-1.4-.7-.7-.2-.7-.1-.9.8-.2 1.1-.9 4-2.7 11.5-.6 2.9-1.1 5.3-1 5.4.2 0 .7.3 1.2.7.5.4 1 .6 1.1.6.2-.1 1.5-3.1 2.9-6.8zm8.5 72.2c1-1.8 1-1.6-1-2.1-2.1-.3-4.6-1-7-2.4-3.6-1.8-6-3.9-8.2-7.2-1-1.6-1.1-1.9-.9-2.6.3-1-.3-.7 7.6-3.7 4.4-1.8 4.5-1.8 4.5-5.3 0-1.9-.1-2.4-.8-3.6-1.1-2.2-1.3-2.2-3.6-.7-11.7 7.5-12.8 8.3-13.7 10.5-.9 2-.7 5.2.5 7.9 3 6.3 10.5 10.8 19 10.8h2.6zm-20-32.9c.3-2.1-.5-4.3-2-5.8l-.7-.7-1.1 1.1c-.6.6-1.9 1.5-3 2.1-1.8.8-2.2.9-4.2.9h-2.2v.7c0 .9-.4.7 6.1 1.8 2.7.5 5 .9 5.2.9.1.1.6.1 1 .1.6.1.7 0 .9-1.1zm62.8-.9c4.7-3.6 8.7-8 11.4-12.6.5-1.1 1-2 1-2.1-.3-.1-15.3.7-42.9 2.4l-2.9.2-.5 2.2c-.6 2.7-.8 3.1-2.1 3.8-.6.3-1.1.6-1.1.6 0 .1.4.7.8 1.4.4.6 1 2 1.2 3l.5 1.8 3.9.2c2.4.1 8.4.4 13.7.6 5.1.3 10.6.5 11.9.5l2.4.1zm-28.3-14.5c1.3 0 5.3-.3 9.2-.5 8.2-.5 14.6-.8 19.1-1.2 2.9-.2 3.1-.2 4.2-.9 1.3-1 5.3-4.3 6.1-5.3 3.2-3.6 5.5-7.5 6.9-11.4 1.3-2.6 2.6-8.1 2.4-8.3 0 0-1.6.6-3.5 1.3-3.4 1.5-5 2.2-13.5 5.7-16.7 6.7-24.1 9.7-30.4 12.2-4 1.6-7.1 2.9-7.1 2.9-.1.1.1.8.4 1.6.3.9.6 2.2.6 3l.3 1.4 1.6-.2c.8 0 2.3-.2 3.7-.3zm-1.9-9.6c2.1-.8 5.6-2.3 7.9-3.1 2.2-.9 6.7-2.8 10.4-4.2 3.4-1.4 9.8-4 14.5-5.9 4.5-1.8 8.2-3.4 8.5-3.5 1-.5 3.7-5.8 5-9.7 1.6-4.7 2.1-7.6 2.1-12.6v-4.5c-.2-.2-5 3.1-7.1 4.8-1.3.8-.8.6-7.2 5.1-3.1 2.2-6.6 4.9-7.9 5.9-1.3.9-4 2.7-5.6 3.9-2.9 2.1-10.8 7.9-16.6 12.3-1.6 1.1-4.3 3-5.8 4.2-1.9 1.3-3.2 2.4-3.2 2.6 0 .2.2.8.4 1.3.3.6.4 1.5.4 2.9 0 1.1.2 2.1.2 2.1.3 0 1.9-.7 4-1.6zm-1.8-9.7c.8-.7 2.9-2.2 4.2-3.2 3.2-2.4 9.8-7.1 11.4-8.3 1-.8 6.1-4.5 15.8-11.7 1.4-1 3.2-2.2 4-2.7.5-.5 2.7-2 4.5-3.3 2.9-2.3 3.2-2.3 3.7-4 2.1-6.4.8-17.4-3.2-25.1-.5-.9-1-1.7-1.3-1.8 0 0-.8 1.1-1.8 2.4-.8 1.3-4.3 5.9-7.4 10.1-3.5 4.2-7.2 9.1-8.8 10.8-1.3 1.8-4.2 5.4-6.3 8.1-2.1 2.7-4.5 6-5.6 7.3-1 1.3-2.4 3.2-3.2 4.1-.8 1-2.9 3.6-4.5 5.8-3.1 3.7-5.3 6.7-7.2 9-.6.9-.6 1.1-.4 2 .1.6.2 1.5.2 1.9 0 .6.2 1.1.6 1.4.7.5.3.7 5.3-2.8zm-3-9.1c2.4-2.9 5.1-6.6 6.4-8.2 1.3-1.5 5-6.3 8.2-10.5 3.2-4.1 6.6-8.4 7.4-9.5.8-1 4.5-5.7 8.2-10.4 5.8-7.2 6.9-8.8 6.9-9.5 0-1.6-.8-7-1.3-9.7-.8-3.4-2.2-6.8-3.2-9.3-1.3-2.3-3.7-6.2-4.2-6.2-.3 0-2.7 3.2-3.5 5.3-.5 1.1-2.4 4.6-4 7.8-1.3 3.2-3.1 6.8-3.7 7.9-1.5 3.3-3.9 8.5-5.5 11.8-1.9 4-17.5 36.3-18.7 38.8l-.9 1.9.4 1.3c.3.9.9 1.6 1.8 2.5.8.7 1.4 1.3 1.5 1.3.1 0 2-2.4 4.2-5.3zm-2.4-15.9c1.8-3.7 4.3-8.9 5.6-11.5 1.1-2.6 2.9-6.2 3.7-8.1 1.1-1.8 2.1-4.3 2.9-5.6.6-1.4 2.7-5.8 4.5-10 4.3-8.4 6.4-12.8 8.2-16.9 1.4-2.7 1.4-2.8 1.4-4.6-.6-5.6-3-12.5-6.1-17.2-1.3-1.9-4-4.9-4.5-4.9 0 0-.3.2-.6.6 0 .3-.5 2.4-1.3 4.5-.8 2.2-2.4 8.5-3.9 14.1-3.7 13.9-9 33.5-11.7 43.3-5.7 21.3-7.4 27.8-7.4 28.4 0 .6.2.9.8 1.1.4.2.9.6 1.1.8.4.4.7-.2 7.3-14zm-10.3 7.8c0-.2.3-1.4.7-2.7.7-2.4 7.3-26.9 8.8-32.7.5-1.9 1.6-5.9 2.3-8.9 1.5-5.4 4.7-17.5 5.7-21.2.3-1 1.3-4.4 2.1-7.3.8-2.9 1.3-5.6 1.3-5.9 0-2.2-1.8-8.1-3.7-11.7-2.1-4.3-7.3-11.8-8.2-11.8-.1 0-.2.3-.2.7 0 .4-.3 2.9-.7 5.6-.4 2.7-1.2 9-1.8 14-.7 5.1-1.4 10.5-1.6 12.2-2.3 17.3-2.7 20.5-2.5 20.7.9.6-2.8 27.5-6 43.8-.4 1.8-.6 3.3-.6 3.4.1 0 .6.2 1.3.5.7.2 1.5.8 2 1.2.7.8 1.1.8 1.1.1zm14.6 80.9c6.9-.6 10.8-1.4 14.8-3.5 2.7-1.3 7.2-5 6.9-5.4l-3.4-1.7-3.2-1.7-5.8-.5c-3.2-.3-7.7-.7-10.1-.9-11.4-1-12.6-1-13.1-.6-.3.3-2.7 1.3-5.4 2.4-2.7 1-5 2-5.2 2.1-.3.3 1.6 2.9 3.2 4.5 2.7 2.3 6.5 4.5 10 5 2 .5 5.6.5 11.3.3zm19.6-15.2c6.3-1.5 11.9-4.7 15.1-8.7.8-.9 1.3-1.8 1.3-1.9 0-.1-1.1-.1-2.7 0-1.3.1-9-.2-16.9-.5-8.2-.4-15.3-.8-16.4-.8l-1.7-.1-.3 1.4c-.2.8-.6 1.7-.9 2.1-.3.3-1.9 1.3-3.6 2.2-5.5 3-6.2 3.4-6.2 4.1 0 .6.1.7 1.5.8 3.5.3 7.3.7 10.7 1 1.8.1 6.1.5 9 .7 6.1.6 7.4.6 11.1-.3zM235 254.3c1.6-.5 3.3-1.2 3.7-1.4 1.5-.8 2.8-3 3.6-6 1-3.7 1.2-8.9.3-7.4-.2.5-1.9 1.3-3.3 1.8-1 .3-1.1.3-1.7-.2-.3-.4-.6-1.1-.7-1.7-.2-.6-.4-1.3-.5-1.4-.2-.2-.2-.4-.1-.4s0-.4-.3-.8c-.2-.4-.5-.8-.7-.8-.6 0-2.1 1.6-2.5 2.6-.3.6-.7.9-1.4 1.2-1.2.3-2.1-.1-3.8-1.8-1.4-1.4-1.4-1.4-2.4.9-1.6 4-2.2 8.5-1.3 10.6.5 1.3 2.4 3.1 4.4 4 .7.4 1.7 1.1 2.2 1.4.5.4.9.6 1.2.5.2-.1 1.7-.6 3.3-1.1zm5.4-16.1c.4-.2 1-.8 1.4-1.3.7-.7 1-.9 1.8-.9.7 0 1 .2 1.1.5.2.3.3.3.8-.4 1.4-2.3 2.3-7.1 2-10.2-.1-1.4-.1-1.5-.5-1.1-.3.4-1.7 1.1-3.3 1.7-.8.3-2.2-.4-2.2-1.2 0-.8-.8-2.8-1.3-3.5l-.5-.7-.9.7c-.5.4-1.2 1.1-1.4 1.7-.7 1.2-1.4 1.9-2.1 1.9-.7 0-3.4-1.8-3.9-2.7l-.5-.7-.5.8c-.8 1.6-1.4 3.5-2 6.2-.4 2.4-.5 3-.2 4.6.3 1.7.7 2.5 1.9 3.4.4.4.6.2 1.5-1 1-1.5 2.6-2.4 4-2.4.7-.1 1 .1 1.5.7.8.9 2 3.4 2 4 0 .5.5.5 1.3-.1zm4.7-15c.6-.4 1.2-1 1.4-1.3.4-.7 2.1-1.2 2.4-.6.2.4.3.4 1-1.1.8-1.7 1.6-6.1 1.6-8.7 0-1.2-.1-2.2-.3-2.2-.1 0-.2.1-.2.3 0 .2-2.5 1.6-3.7 1.9-.9.3-2-.6-2.2-1.8-.2-1.2-1.3-3.3-1.7-3.3-.5 0-1.8 1.3-2.4 2.5-.4.7-.8 1.2-1.3 1.4-.8.2-1 .2-2.1-.5-.7-.4-1.6-1.1-2.1-1.5-.4-.5-.8-.8-.9-.8-.3 0-1.4 2.6-1.9 4.7-.3 1.3-.5 3-.6 4.7 0 2.4.1 2.8.7 3.7.4.6 1 1.3 1.4 1.5.7.5.7.5 1.2-.1.3-.4.8-1 1.1-1.4.9-1.1 2.9-2 3.9-1.8.5.2 1 .5 1.2.7.5.6 2 3.7 2 4.1 0 .4.4.3 1.5-.4zm3.2-14.6c.4-.2 1.1-.9 1.6-1.5.8-.8 1.2-1 2-1 .9 0 1-.2 1.4-1.2.3-.6.7-2 .9-3.1.4-2 .6-6.8.4-7.3-.1-.2-.6 0-1.1.4-.5.4-1.5.9-2.3 1.2-1.2.5-1.4.5-2 .1-.6-.4-.8-.7-.9-1.6-.1-.6-.5-1.6-.9-2.3-.5-1-.8-1.2-1.1-1-.7.4-1.6 1.4-2.2 2.6-.3.5-.8 1.2-1.2 1.4-.6.3-.8.3-1.9-.3-.7-.4-1.7-1.1-2.3-1.6-1.1-1.1-1.3-1.2-1.1-.6.1.2 0 .3-.1.2-.2 0-.3-.1-.3 0 0 0-.2.7-.5 1.5-.8 2.3-1.3 5.2-1.3 7.5 0 1.9.1 2.2.8 3.2.9 1.4 2.1 2.5 2.5 2.5.2 0 .5-.4.8-.9.4-1 2-2.4 3.2-2.8 1.2-.5 2.3.1 3.2 1.5.5.7 1 1.8 1.2 2.4.2.6.3 1.1.4 1.1zm4.7-16.5c.6-.8 1-1.1 1.7-1.2.9-.1 1-.3 1.4-1.3.7-1.6 1.3-6.6 1.1-8.7-.1-1-.2-1.9-.2-2-.1 0-.4.2-.7.5-.7.7-3.1 1.9-3.8 1.9-.7 0-1.8-1.1-1.8-1.7 0-.7-1.1-3.2-1.6-3.5-.4-.3-1.8 1.1-2.4 2.4-.3.7-.7 1.3-1.3 1.6-.7.4-.8.4-2.1-.3-.8-.4-1.7-1.2-2.2-1.7-1-1-1.1-.9-1.8 1.2-.9 2.5-1.4 5.7-1.2 7.8.1 2.2 0 2 2.4 4.6l1.2 1.3.6-.9c1.2-2.1 3.6-3.6 5-3.3.8.2 2.2 2 2.8 3.5.2.7.4 1.3.5 1.4.2.4 1.5-.5 2.4-1.6zm1.4-14.3c.6-.4 1.2-1 1.4-1.4.4-.7.7-1 1.5-1 .4 0 .6-.2.7-.7.1-.4.3-1.2.6-1.9.4-1.5.7-6.6.4-8.2l-.2-1.1-.8.6c-1.2 1.1-3.6 2.1-4.2 1.8-.7-.4-1.2-1.1-1.2-1.7 0-.5-1.1-2.9-1.6-3.4-.4-.4-2 1.3-2.5 2.6-.5 1.1-1.3 1.7-2.1 1.7-.6 0-2.4-1.1-3.5-2.1l-1-1-.5 1.3c-1.6 4.7-1.9 11.1-.5 11.1 1.4.5 1.8 3 3.4 3.2.1 0 .5-.6.9-1.2 1-1.7 2.7-2.8 4.1-2.8.9 0 1.2.1 1.7.8.8 1.1 1.8 3.3 1.8 3.8 0 .6.4.5 1.6-.4zm1.7-15.2c.5-.4 1.2-1 1.4-1.4.2-.5.6-.8.9-.9.8-.1 1.5-1.9 1.8-5.4.3-2.3.3-3.4 0-4.8-.1-1.1-.4-1.9-.4-1.9-.1 0-.5.3-.8.6-.3.4-1.3.9-2.1 1.2-1.4.6-1.5.6-2.2.2-.4-.2-.8-.9-1.2-2-.3-.9-.8-1.9-1.1-2.3l-.6-.8-1 1.2c-.6.6-1.2 1.5-1.3 1.9-.2.5-.6 1.1-1 1.3-.9.5-2.5 0-4.2-1.6l-1.3-1.2-.4 1.1c-.9 2.7-1.5 7.3-1.2 9.8.1 1.1.2 1.3 1 1.6.5.2 1 .6 1.2.9.4.8 1 1.4 1.9 1.9.6.5.6.5 1.5-.9 1.3-1.9 3.4-3.2 4.5-2.8 1 .3 3.2 3.5 3.2 4.6 0 .5.3.4 1.4-.3zm2.2-16.5c.3-.4.6-.9.6-1.1 0-.1.2-.3.5-.3 1.3 0 2.1-8 1.2-11.4-.2-.8-.2-.8-.8-.2-.3.3-1.3.9-2.2 1.3-1.6.8-1.6.8-2.4.4-.5-.3-.8-.8-.9-1.3-.2-.9-1.6-3.6-2-3.6-.4 0-2.1 2.3-2.3 3-.2.8-1.1 1.5-1.9 1.5-.8 0-2.4-.8-3.5-2l-1-.9-.3.7c-.1.4-.4 1.1-.5 1.4-.7 1.8-1 7.3-.6 9.4.2.7.3.8 1 .9.6.1 1.1.3 1.5.9.6.9 1.4 1.6 2.1 2.1.3.2.5 0 1-.7.8-1.3 1.6-2.2 2.7-2.8 1.5-.8 2.4-.7 3.3.4.7.9 1.7 2.7 2.1 3.7.1.4.1.4.9 0 .5-.3 1.1-.9 1.5-1.4zm-.3-14.7c1.2-1.1 2.1-2.7 2.4-4.1.5-2.2.6-4.9.3-7.5-.1-1.6-.3-2.8-.4-2.8-.1 0-.6.4-1.2.9-1.3 1-2.6 1.7-3.2 1.7-.7 0-1.7-.8-1.7-1.3s-1.1-2.8-1.7-3.5c-.3-.5-.4-.5-1.3.4-.5.6-1.1 1.5-1.3 2.1-.2.7-.6 1.2-1.2 1.5-.8.4-.9.3-2.2-.3-.8-.3-1.7-1-2.2-1.5-.5-.5-1-.8-1.1-.6 0 .1-.3 1.2-.7 2.5-.4 1.6-.5 3.1-.5 5.3 0 3.9.1 4.3 1.5 4.4.7 0 1.1.2 1.4.6.6.9 2.4 2.6 2.8 2.6.2 0 .4-.3.5-.6.4-1.6 3.5-4.2 4.6-3.8.8.3 1.9 1.2 2.2 1.8.1.3.5 1 .7 1.4.3.4.5 1 .5 1.3.1.6.9.4 1.8-.5zm1.1-16.5c.2-.6.6-.9 1.3-1 1-.2 1-.4 1.5-1.8.3-.9.5-2.4.5-3.3 0-3.3-1.5-4.4-4.7-3.4-.4.2-.7 0-1.1-.3-.5-.5-.6-.8-.4-2.1.3-3-.9-4.54-3.4-4.54-2.6 0-4 1.94-3.4 4.64.2.9.2 1.1-.5 1.6-.5.4-.8.5-1.5.3-3-.8-5.1 2.1-4.4 6.1.3 1.6.5 2 1.7 3.3 1.2 1.3 2.7 2.5 3 2.2 0-.1.3-.6.7-1.3 1-1.6 2.8-3.1 3.8-3.1.9 0 2.1 1.2 3 2.9l.9 1.8c.3.5 2.5-1.1 3-2zM186 251.4c2-1 3.7-2.7 4.6-4.6 1-2.4 1.5-7.6.6-7.6-.6 0-2.6 1.6-3.8 2.9-1.6 1.8-2.8 4.1-3.3 6.4-.3 1.7-.3 3.7.1 3.7.1 0 .9-.4 1.8-.8zm-13.4-5.5c-.5-2.6-2.8-5.8-5.6-7.8-1.3-.9-4.5-2.1-4.7-1.9-.5.8 1.3 5.5 2.7 7.2 1.5 1.9 4.5 3.5 6.7 3.5h1.1zm11.4-11c4.2-2 6.5-7.8 5.3-13.4-.3-1.3-.3-1.4-1-1.2-2.7.6-6.6 5.8-7.5 9.6-.3 1.4-.2 5.2.1 5.8.3.4 1.3.1 3.1-.8zm-13.2-4.3c.2-.8-.4-3.6-1.3-5.4-1.2-2.5-4.1-5.2-6.6-6.4-1.1-.6-2.4-1.1-3-1.2l-1-.1v1c0 1.7.8 4.6 1.7 6.4.9 1.8 2.9 4 4.2 4.7 2.4 1.2 5.6 1.8 6 1zm9.6-12.4c2-.9 4-2.8 5-4.7 1-2 1.6-5.1 1.4-6.9-.2-1.7-.9-4.4-1.2-4.4-.1 0-.7.3-1.4.8-3.8 2.5-6.6 8.3-6.2 12.6.2 1.4.7 3.2.9 3.2.1 0 .7-.3 1.5-.6zm-12.5-5.4c0-5-4.3-10.7-9.3-12.5-2-.7-2.1-.5-1.9 2.2.4 4.7 2.6 8.6 6 10.3 1.6.8 3.1 1.2 4.2 1.2l1 .1zm10.1-11.9c.7-.3 2-1.2 2.7-1.9.8-.8 1.5-1.3 1.6-1.1.2.1.2 0 .1-.1-.1-.2.1-1 .4-1.7 1.4-3 1.6-6.9.5-9.9-.3-.9-.6-1.6-.7-1.7-.6-.6-3.6 2.3-5 4.8s-2 4.6-2 7.3c0 1.9.6 5 .9 5 .1 0 .8-.3 1.5-.7zm-13-4.6c.5-3.2-1.7-8.6-4.6-11-1.6-1.4-4.5-3-5.4-3-1.2 0-.8 5.7.7 8.6.9 2 2.9 4.1 4.5 5 1.2.7 3.9 1.5 4.4 1.4.2-.1.3-.5.4-1zm10.7-12.5c2.7-1.6 4.9-5 5.4-8.1.4-2.8-.4-7.4-1.5-8.7l-.5-.6-1.4 1.3c-3 2.7-4.7 6.7-4.7 10.9 0 2.1.5 4.5 1.2 5.6.2.3.2.3 1.5-.4zm-13.5-4.2c.8-3.7-.9-8.2-4.3-11.6-2.4-2.4-5.2-4-5.7-3.2-.4.7-.3 5.6.2 7.2 1.2 4 4.2 7.1 7.9 8.2 1.3.4 1.7.3 1.9-.6zm11.3-13.2c3.8-2.3 5.8-7.8 4.7-13-.3-1.6-1.8-4.7-2.2-4.7-.6 0-3.3 3.2-4.1 4.8-1.3 2.8-1.7 4.7-1.5 7.8.1 2.2.2 2.9.8 4.3.4.9.8 1.6.9 1.6 0 0 .7-.3 1.4-.8zm-14.1-4.2c.4-1.7.4-2.1-.1-4.4-.5-2.7-1.9-5.3-3.7-7.3-1.5-1.5-4.5-3.6-5.3-3.6-.4 0-.9 2.1-.9 4.2 0 5.3 2.9 10.1 7.3 11.9 2.1.8 2.4.7 2.7-.8zm13.2-14.3c2.8-3 3.9-7.6 2.9-11.9-.5-1.9-1.9-4.7-2.5-4.9-.6-.3-2.7 2-3.8 4.3-1.4 2.9-2 6.1-1.6 8.9.3 2 1 3.8 1.8 5.2.4.5.4.5 1.2.1.5-.3 1.3-1 2-1.7zm-16.1-2.1c.4-1.3.4-4.9-.1-6.6-.9-2.9-2.7-5.9-4.9-7.8-1.2-1.1-3.5-2.3-3.7-2.1-.4.5-.9 3-.9 4.9 0 5.2 2.6 9.7 6.8 11.7 1.1.5 2 .9 2.2.9.1-.1.4-.5.6-1zm12.7-15.4c3.3-3.7 3.9-9.7 1.5-14.6-.9-1.6-1.1-1.7-1.9-.8-2.8 3.6-3.9 9.4-2.6 13.5.5 1.4 1.4 3 1.7 3 .1 0 .7-.5 1.3-1.1zm-16.2-2c.1-.2.2-1.3.3-2.4.3-4.5-2.2-10-5.9-12.5-.7-.5-1.3-.7-1.3-.7-.3.3-.9 3.3-.9 4.6 0 1.8.8 4.7 1.8 6.5 1 1.7 2.8 3.5 4.3 4.4 1.4.7 1.4.7 1.7.1zm6-14.8c1.1-2 1.4-4.3 1-6.5-.4-2.2-1.5-4.5-2.8-5.7l-.9-.9-.6 1.3c-.8 1.9-1.2 4.7-.8 7 .4 2.5 2.3 6 3.2 6 .2 0 .6-.5.9-1.2zm-20 190.7c6.1-2.1 12.3-3.4 20.7-5 .7-.3 1.3-.8 2.3-1.9.7-.8 2.1-2.4 3.1-3.4l1.7-1.9-.8-2.4c-.7-2.1-.8-2.9-.9-5.8-.1-2.9 0-3.6.4-5.3.7-2.1 2.3-4.1 3.8-4.7.8-.4.8-.4.6-2-.4-4-.4-4.1-1.1-4.7-.4-.3-1.4-1.1-2.2-1.9l-1.4-1.3-6.9 1.1c-8.4 1.4-7.9 1.5-8.7-2.1-.1-.4-1.7-2-4.2-4.3-5.8-5.5-6.7-6.3-6.8-6.3-.3 0-1.9 2.9-2.3 4.3-.5 1.7-.6 4.3-.2 5.4.2.4.9 1.1 1.5 1.5 3.9 2.4 16.1 10.5 16.8 11.2 4 3.6 3.9 10.1-.2 15.7-4 5.3-10.4 8.5-18.3 9h-2.6l.3.8c.2.6.3 1.9.3 3.2 0 1.3.1 2.4.2 2.4s2.3-.8 4.9-1.6zm-4.8-12.7c2.5-.8 6.2-2.7 8.1-4.2 1.9-1.7 4.3-4.6 4.1-5.2-.1-.1-2.3-1.1-5.1-2.2-2.7-1.1-5.2-2.1-5.5-2.4-.3-.2-.8-.4-1.4-.3-1 0-2.3.1-18.9 1.6l-8.6.7-3.3 1.7c-1.8.9-3.3 1.7-3.4 1.7-.2.3 2.3 2.4 4.5 3.8 3.4 2.4 7.1 3.7 11.6 4.5 5.6.8 15.1 1.1 17.9.3zm48.4 0c2.9-.5 5.9-1.3 8.4-2.1l1.6-.8.1-1.9.1-2-1.8-1.5c-1.8-1.4-3.5-3.1-4-4-.2-.3-.9-.5-3.8-.6-4.2-.4-6.9-1-9.4-2.3-2.2-1.1-3-1.2-4.3-.3-2.8 1.9-3.4 8.2-1.3 13.6.6 1.6.7 1.9 1.6 1.9 1.8.3 10.1.3 12.8 0zm-66.3-14.8c19.9-1.7 18.4-1.5 18.2-2.4-.1-.6-1.7-1.7-7.3-4.7-2.3-1.2-2.7-1.6-3.2-3.5l-.4-1.5-1.9.1c-1 0-8.2.4-16.1.8-7.79.3-15.49.6-16.99.5-1.5-.1-2.7 0-2.7.1 0 .5 3.4 4.1 5 5.3 1.8 1.4 6 3.6 8.4 4.4 1.59.5 6.39 1.6 7.19 1.6.3.1 4.7-.3 9.8-.7zm69.5-.4c-.1-.3-.3-.9-.3-1.4l-.2-1-2.3-.5c-3.1-.6-6.2-1.6-9-3-1.2-.6-2.2-1.1-2.3-1.1 0 .1 0 .9.2 2l.1 1.8 2.2 1.1c3 1.6 6.2 2.3 10.3 2.4 1.2.1 1.4 0 1.3-.3zm-78.2-13c7.7-.4 14.3-.6 14.9-.6.9 0 .9 0 1.2-1.7.2-.8.8-2.2 1.3-3 .5-.8.9-1.5.9-1.6 0 0-.5-.3-1.1-.6-1.2-.6-1.7-1.6-2.2-4.2-.1-.9-.4-1.8-.5-1.8-.2 0-3.8-.3-8-.5s-10.4-.6-13.6-.8c-3.29-.2-9.39-.6-13.49-.8-4.2-.2-8.3-.4-9.1-.5-.8 0-1.5 0-1.5.1 0 .4 2.7 4.7 4.1 6.5 2.4 3.1 6 6.6 9.4 8.9 1.3 1 1.9 1.2 2.8 1.3.5 0 7.29-.3 14.89-.7zm51.1-.4c6.6-1.1 6.1-.9 6.1-1.8 0-.8 0-.8-1.3-.6-2.6.2-6-1-8.1-3l-1.1-1.2-.7.7c-1.5 1.4-2.3 3.8-1.9 5.9.2 1.3-.6 1.3 7 0zm-36.1-16.5c.1-.7.4-2 .7-2.9.3-.8.4-1.5.4-1.6-.1 0-.7-.3-1.5-.6s-4.8-1.9-8.8-3.5c-7.6-3.1-17.19-7-26.39-10.7-9.5-3.9-11.5-4.7-14.5-6-1.7-.7-3.1-1.3-3.3-1.3-.5 0 1.6 7 3.2 10.4 1.4 2.9 3.9 6.8 6.1 9.1 1.9 2.2 6.6 6.1 7.5 6.3.3 0 5.1.3 10.6.6 5.59.4 13.39.8 17.39 1.1 4 .2 7.5.5 7.8.5.5 0 .6-.1.8-1.4zm.4-8.6c-.1-1 .1-1.9.5-3.1.3-.9.5-1.7.5-1.8 0 0-2.6-2-5.7-4.3-3.2-2.3-5.8-4.2-5.9-4.3-.1-.1-1.1-.9-2.3-1.7-2.4-1.7-4.9-3.6-10.39-7.6-2.1-1.5-5-3.7-6.5-4.7-5.2-3.8-11.4-8.3-13.5-9.9-5.1-3.7-8.9-6.3-9.1-6.1-.1.1-.2 2.1-.1 4.5 0 3.5.1 5 .6 7.1 1.1 5.1 2.7 9.4 5.2 13.3.6 1 1.2 1.9 1.3 1.9 0 0 3 1.2 6.6 2.7 3.6 1.4 9.6 3.9 13.4 5.4 18.29 7.4 23.19 9.4 23.99 9.7 1.5.7 1.5.6 1.4-1.1zm3.8-9.4l.3-2-2.9-3.6c-1.6-2-3.4-4.3-4-5.1-.6-.8-2.2-2.9-3.6-4.7-1.4-1.7-3.4-4.3-4.5-5.7-1.1-1.4-4.7-6-8.1-10.3-18.19-23.3-19.29-24.6-20.89-27-.7-1.1-1.4-2-1.5-2-.4.1-1.9 3.1-2.7 5.2-2.8 7.5-3.5 16.3-1.7 21.6l.6 1.8 4.1 3c2.3 1.6 5.1 3.7 6.3 4.5 6.4 4.7 15.19 11.1 15.99 11.7.5.4 3.1 2.3 5.8 4.3 2.7 2 7.3 5.3 10.2 7.4 5.3 3.9 5.3 3.9 5.8 3.4.4-.4.6-1.2.8-2.5zm2.7-5.4c.9-.9 1.5-1.7 1.8-2.5.4-1.2.4-1.3-.4-2.9-.4-.9-2.3-4.9-4.2-8.9-2-4-4.2-8.6-4.9-10.2-.8-1.6-2.4-4.8-3.5-7.2-1.1-2.3-2.5-5.2-3.2-6.6-.9-2.1-2.5-5.4-9.1-19.2-.9-1.8-2.3-4.7-3.2-6.4-4.29-9-4.99-10.5-6.19-12l-1.2-1.7-.9 1.3c-3.5 4.9-5.7 10.5-7 17.7-.3 1.5-.6 3.9-.7 5.1l-.1 2.3 2.3 2.9c1.3 1.6 2.9 3.6 3.6 4.5 4.1 5.2 11.69 15 18.19 23.2 2.4 3 5.1 6.5 5.9 7.6 4.9 6.3 11.3 14.3 11.4 14.3 0 0 .6-.6 1.4-1.3zm5.7-6.9c.5 0 0-2.3-1.6-8.5-.9-3.3-2.2-7.9-2.8-10.3-.7-2.4-1.8-6.8-2.7-9.8-2.4-9.3-9-33.8-11.8-44.2-1.4-5.4-3.2-11.7-3.9-13.9l-1.5-4.5c-.1-.4-.2-.6-.4-.6-.4 0-3.3 3.1-4.5 5-3.2 4.8-5.5 11.4-6 17l-.1 1.9 3 6.4c1.7 3.5 3.8 7.9 4.8 9.9 4.8 10 5.7 11.9 8 16.7 1.3 2.8 3.4 7.1 4.6 9.6 1.2 2.5 2.7 5.6 3.3 6.9 1.4 2.8 4.7 9.8 7.5 15.5l2 4.2.9-.7c.5-.3 1-.6 1.2-.6zm4.7-6.7c1.2-.3 1.2-.3.8-2-1.4-5.7-4.2-23.4-5.3-32.3-.2-1.4-.4-3.3-.5-4.3-.6-4.2-.9-8.7-.6-8.9.2-.2-.5-6.3-2.6-21.6-.3-2.1-1.5-11.1-2.3-17.2l-.9-7.2c-.3-2.3-.6-4.9-.7-5.7-.1-.9-.3-1.5-.4-1.5-.3 0-3.4 3.9-5.1 6.5-3.4 5.1-5.5 10.1-6.4 14.9l-.4 2.5 2.4 9c1.4 5 2.6 9.6 2.8 10.3.2.8 2 7.4 3.9 14.7 2 7.4 5.2 19.2 7.1 26.3 1.9 7.2 3.7 14.1 4.1 15.5.4 1.4.8 2.7.8 2.9.1.2.4 0 1.1-.6.6-.5 1.6-1.1 2.2-1.3zm132.4 114.6c-.3-.2-.4-.8-.4-2.3 0-1.1-.1-2.2-.1-2.2s-.5 0-.9.3c-.5.3-.9.5-1.3 1.3-.4 1.1-.9 1.4-1.3.8-.2-.5 3.1-7.1 3.5-7.1.7 0 .7.8 0 2.1-.4.8-.7 1.3-.7 1.3 0 .3.9-.2 2.1-.8 1.8-.8 2.1-1 2.7-.5.6.3.6.3-1.2 1.1l-1.8.7.2 3c.2 2.6.1 2.9-.8 2.3zM135 320.7c-.9-1.9-1.6-3.4-1.7-3.4-.1-.3 2.5-1.6 3.4-1.6 1 0 2.6 1.3 3.2 2.6.6 1.3.7 3.2.1 4-.3.5-2.8 1.8-3.2 1.8-.1 0-.9-1.5-1.8-3.4zm3.5 1.3c1-.5 1.1-1.3.3-2.9-.6-1.3-1-1.8-1.6-2.1-.5-.3-2.3.3-2.3.8s2.2 4.8 2.4 4.8c.2 0 .7-.3 1.2-.6zm128-.8c-.3 0-.4-.2-.4-1 0-1.4-.1-1.4-1.2-1.6-1.4-.5-1.4-.5-2.1.2-.4.3-.7.6-1 .3-.3 0-.5-.3-.4-.3.1-.5 5.2-6 5.5-6 1 0 1.1.2.8 3.4-.5 4.8-.6 5.3-1.2 5zm-.1-4.5c.1-.5.2-1.3.2-1.6 0-.5-.1-.5-1.1.6-.5.5-1 1-1 1.3 0 .3 1.1.8 1.6.8.1 0 .2-.5.3-1.1zm-123.8 4c-.1-.3-.9-1.9-1.7-3.4-1-2.7-1.2-3.2-1-3.5.2-.2.5-.2.5-.2.1 0 .9 1.5 1.8 3.7 1.3 2.6 1.6 3.7 1.3 3.7-.5.2-.6.2-.9-.3zm1.3-4c-.7-1.8-1.4-3.4-1.4-3.7-.1-.2.5-.5 1.8-1 2.3-.8 3-.8 3.7.8.4.8.4 1-.1 1.8-.6 1.1-.6 1.1 0 1.3.7 0 2.6 1.9 2.4 2.2-.3.5-1.1.2-2.5-.8-2.2-1.6-3.1-1.4-2.1.8.7 1.5.7 1.8 0 1.8-.4.3-.7-.3-1.8-3.2zm1.9-1.6c.5-.2 1-.5 1.1-.8.3-.5-.1-1.5-.7-1.5-.4-.3-1.8.2-2.3.8-.1 0 .7 1.8.8 1.8.1 0 .6-.3 1.1-.3zm111.6 2.2c-.4-.3-.6-.8-.6-.8 0-1.4 1.3-1.9 1.3-.6 0 .8.5 1.1 1.2.8.2 0 .9-1.3 1.5-3.1.6-1.6 1.2-3 1.3-3 .1 0 .3 0 .5.3.3.3.2.5-.5 2.7-1.5 3.9-1.9 4.5-3.3 4.5-.6 0-1-.3-1.4-.8zm-106 0c-.5-1.1-2.5-6.9-2.5-6.9 0-.3 4-1.6 4.4-1.6.4.3.5 1.1.1 1.1-.1 0-.9.2-1.7.5-1.4.5-1.5.5-1.2 1.3.5 1.1.6 1.1 2.2.5 1.3-.5 1.5-.5 1.6-.2.3.8-.1 1-1.4 1.6-.8 0-1.4.2-1.4.5 0 .2.7 2.1.8 2.1.1 0 .8-.3 1.6-.5 1.5-.6 2.1-.6 2.1 0 0 .2 0 .5-.1.5s-1.1.3-2.2.8c-1.9.8-2.1.8-2.3.3zm103.7-.6c-.3-.2-.4-.5-.4-1 0-1.1-.1-1.1-1.3-1.4l-1.2-.5-.7.8c-.5.5-.8.8-1.1.5-.3 0-.5-.2-.5-.2.1 0 1-1.6 2.2-3.2 1.5-2.4 2.4-3.4 2.8-3.4.3 0 .6 0 .7.2.2.8.4 8.5.2 8.5-.1 0-.4-.3-.7-.3zm-.4-5c0-.8-.1-1.6-.1-1.6-.2 0-1.8 2.4-1.8 2.4 0 .3 1.1.8 1.5.8.3 0 .4-.5.4-1.6zm-97.2 3.7c0-.3-.5-1.8-.9-3.4-.5-1.9-.9-3.5-1-3.7-.1-.3.1-.6.4-.6.5-.2.6 0 1 1.4.2.5.4 1.3.4 1.5 0 .8.5 0 1.2-1.8.6-1.3.9-1.9 1.4-2.1.3-.3.7-.3.7-.3 0 .3-.2 1.1-.6 1.9l-.7 1.8 1.7 1.9c1 1 1.8 1.8 1.8 2.1 0 .2-.3.2-.7.2-.6 0-1-.2-1.9-1.5-.6-.8-1.3-1.4-1.4-1.4-.1 0-.3.3-.5.8-.3.8-.3 1.4.2 2.7.1.5-1 1-1.1.5zm87.7-2.6c.2-1.1 1.7-6.7 1.9-6.9.2 0 2.9.8 3.5 1 .5.6.6.8.6 1.9 0 .8-.1 1.3-.7 1.8-.9.8-1.4.8-3.3.3-.3 0-.5.3-.7 1.3-.3 1.4-.5 1.6-.9 1.6s-.5 0-.4-1zm4.8-3.5c.4-.8 0-1.3-1.1-1.6-1-.2-1.2-.2-1.5 1.1-.2 1.1 0 1.3 1.5 1.3.6 0 .8-.2 1.1-.8zm-85.2.8l-.7-2.9H163c-.8 0-1-.3-1-.5 0-.6 0-.6 4.3-1.6.5-.3.6-.3.6.3 0 .5-.1.7-.3.7-.1 0-.5 0-.9.3l-.6.3.8 2.9c.7 3.2.8 3.7.1 3.7-.3 0-.6-1.1-1.2-3.2zm75.7 2.7c-.1-.3-1-.3-1.9-.6-.9-.2-1.6-.5-1.6-.8 0-.2.9-4.7 1.4-6.8.1-.3.3-.6.7-.3.4 0 .5.3.4.5-.4 1.9-1 5.1-1.1 5.6 0 .5.2.8 1.5.8 1.2.2 1.5.5 1.5 1 .1.6-.2.6-.9.6zm-70.6-1.6c-2-2.1-1.9-6.4.3-7.2 1.7-.5 3.1 0 4.1 1.9.7 1.3.7 4.2 0 5-1.3 1.3-3.1 1.6-4.4.3zm3.2-.8c.9-.8.6-3.7-.3-4.8-.4-.5-1.8-.8-2.4-.2-1.3.7-.7 4.7.8 5.2.6.3 1.4 0 1.9-.2zm61.6.8c0-.3-.1-.8-.2-1.1-.2-.5-.4-.8-1.2-.8-.6-.2-1.2-.2-1.4-.5-.3 0-.5.3-.8.8-.3 1-.9 1.3-1.4.8-.1 0 3.3-6.9 3.7-7.4.1 0 .4 0 .7.2.6.3.7.6 1.1 3.7.3 1.9.5 3.7.6 4 .1.5 0 .5-.4.5-.3 0-.6-.2-.7-.2zm-.9-6.1c-.1-.3-.4 0-.8.8-.8 1.8-.8 1.8.1 2.1l.8.3.1-1.6c.1-.8 0-1.6-.2-1.6zm-57.2 5.3c0-.3-.2-2.1-.4-4-.3-1.6-.4-3.2-.3-3.2.3-.5 3.5-.8 4.1-.5.9.3 1.5 1.9 1.1 2.9-.2.5-.6 1.1-.8 1.1-.5.2-.5.2 0 .5.2.3.8 1.1 1.3 1.6.7 1.1.8 1.3.4 1.3-.7.3-.8.3-1.9-1-.9-1.4-1.2-1.6-1.9-1.6-.8 0-.8 0-.6 1 .3 1.9.3 2.1-.4 2.4-.4 0-.6 0-.6-.5zm3.3-4.8c.3-.2.1-1.3-.4-1.6-.2-.2-.8-.2-1.4-.2-.9.2-.9.2-.9 1.3 0 .5 0 1 .1 1 .2.3 2.2-.2 2.6-.5zm3.2 3.7c1.6-7.4 1.6-7.4 2.3-7.7.5 0 .8 0 .9.6.1.2.8 2.1 1.6 3.7 1.2 2.6 1.4 3.2 1.1 3.4-.6.6-.7.3-1.1-.5-.4-1.1-.8-1.3-2.5-.8-.6 0-.8.3-1 .8-.2 1.1-.5 1.3-1.1 1.3-.2 0-.3-.2-.2-.8zm3.7-2.9s-.2-.8-.6-1.6c-.7-1.6-.8-1.6-1.2.8l-.2 1.1h.9c.5 0 1 0 1.1-.3zm40.5 2.4c-.6-1.3-1.3-2.4-2-2.4-.4 0-.5.3-.6 1.6-.1 1.9-.2 1.9-.8 1.6-.4 0-.5-.3-.3-1.9.1-1 .3-2.6.4-3.7.1-1.3.2-2.1.3-2.1 0-.3 1 0 2.1 0 1.6.3 2 .3 2.4.8.9 1.1.3 3.2-1.1 3.7-.1 0 .1.8.5 1.9 1 1.8 1 1.8.2 1.8-.5 0-.8-.2-1.1-1.3zm.5-4.5c0-.8 0-.8-1.1-1.1-1.4-.2-1.6 0-1.6 1.4v.8h2.7zm-10.5 4.8h-.8l.2-2.7c.1-1.3.2-3.2.3-4l.2-1.3h1.7c1.4.3 1.9.5 2.4.8 1.6 1.6 1.2 6.1-.8 7.2-.7.2-1.6.2-3.2 0zm3.4-1.9c.5-1.3.5-3.4 0-4.2-.3-.3-.8-.6-1.4-.6l-1.1-.2-.1 1.3c-.1.5-.2 1.9-.2 2.9v1.6h1.2c1.1 0 1.2 0 1.6-.8zm-29.6-.5c-.3-4.3-.4-4.3-1.4-4.3-.7 0-.9 0-.9-.5s.7-.8 3.3-.8c1.5 0 1.6 0 1.7.5.1.6 0 .6-.9.6h-1l.2 3.4c.2 3.5.2 3.5-.3 3.5s-.6-.3-.7-2.4zm7.5 1.8c-.3-.2-.6-.5-.8-1-.3-.8-.3-.8 0-1.1.6-.3.8-.3 1.1.5.2.6 1.1.8 1.4.3.1-.3.3-1.8.3-3.4.1-2.9.2-3.2.6-3.2.5 0 .6 0 .6 2.9 0 3.2-.3 4.2-1 5-.6.3-1.6.3-2.2 0zm4.9 0c-.1 0-.1-1.8-.1-3.9v-4h2.3c2.4 0 2.4 0 2.4.8 0 .5 0 .5-1.8.5h-1.9V303.8h1.7c1.7 0 1.8 0 1.8.8 0 .5-.1.5-1.8.5h-1.7l.1 1v1.4h2c1.8 0 1.9 0 1.8.5 0 .5-.2.8-2.3.8-1.2 0-2.4 0-2.5-.3zm6.4-3.7c.1-2.4.2-4.2.2-4.2h.6c.3.3 1 1.3 1.8 2.9 1.3 2.6 1.3 2.6 1.4 1.9.2-3.8.4-4.5.7-4.5.3 0 .4.7.4 3.9v4h-.7c-.6 0-.8-.3-1.9-2.7-1.1-2.3-1.3-2.6-1.4-1.8-.1.3-.2 1.6-.2 2.6 0 1.6-.1 1.9-.6 1.9s-.5 0-.3-4zm-70.1-7.9c6.5-1.3 11.8-5 14.2-10.1 1.1-2.1 1.1-2.3 1.1-4.9 0-4.4-.3-4.8-9.8-10.9-4.9-3.2-6.4-4-6.7-3.9-.2.2-.8 1-1.2 1.9-.7 1.3-.8 1.8-.8 3.7 0 3.3-.1 3.3 5.8 5.6 2.8 1.1 5.3 2 5.6 2.2.3.1.6.5.8 1 .3 1.6-3.5 6.4-7 8.8-2.8 1.8-7.9 3.7-10.1 3.7-.4 0-.8 0-.9.2-.1 0 .3.8.8 1.6l.9 1.6h2.5c1.3 0 3.5-.3 4.8-.5zm-5.1-26.7c.2-1 1-2.6 1.8-3.8.6-.8.6-.8-.9-1.7-.8-.5-1.5-1.9-1.7-3.5-.1-.7-.3-1.3-.5-1.4-.1-.1-1.4-.7-2.9-1.3l-2.6-1.1-.6.7c-1.2 1.5-1.8 3.5-1.6 5.8.1 1.2.2 2.2.5 2.6.4.6 7.4 4.7 8 4.7.2 0 .4-.4.5-1zm15.6-11.9c.9-1.8 1.2-1-3-7.3-7.1-10.9-6.4-10-7-9.5-1 .9-1.7 3-1.7 5 0 2.7.2 3.3 2.3 5.2 2.5 2.3 5.2 4.9 7.1 6.6.8.9 1.6 1.5 1.6 1.5s.3-.6.7-1.5zm11-1.3c-1.8-1.9-2.8-3.2-4.4-6.4-1.6-3-3-6.7-3.8-9.7-.2-1.1-1.3-6.5-2.2-11.9-1.9-10.6-4.3-23.7-5.3-29.6-.4-2.1-1.5-8.1-2.4-13.4-1-5.3-2-10.9-2.3-12.5-.2-1.6-.7-3.5-1.1-4.4-.7-1.6-2.2-4.1-3.1-4.9-.6-.6-.6-.7-.1 3.9 3.5 30.5 8.9 56.3 17.3 82.5 1.4 4 1.4 4.1 2.8 5.5 1.6 1.4 3.6 2.4 5.1 2.4h.9zm-27-.9c.2-.6.7-1.8 1.1-2.5l.8-1.4-2.5-2.2c-1.3-1.2-3.7-3.4-5.2-4.7l-2.7-2.5-.5 1.2c-1 2.2-1.1 6.5-.3 9 .3.9.6 1.1 4.5 2.8 2.3 1.1 4.3 1.8 4.3 1.7.1-.1.3-.7.5-1.4zm2.5-6.8c-.3-.8-.4-4-.1-4.8.3-.9.5-.6-4.4-6.2-1.8-2.2-3.7-4.4-4.1-4.9l-.8-.9-.6.6c-1.1 1.1-1.7 2.7-1.7 4.6v1.7l2.4 2.3c1.4 1.2 3.9 3.5 5.7 5.2 3.1 2.8 4.1 3.4 3.6 2.4zm1.8-8.9l.7-.8-1.9-3.6c-1.1-1.9-2.7-5-3.6-6.7-.9-1.8-1.9-3.6-2.2-4-.5-.9-.5-.9-1.1-.4-1 .7-1.5 2.1-1.6 4.3l-.2 1.9 4.5 5.1c2.4 2.8 4.4 5.1 4.5 5.1.1 0 .5-.4.9-.9zm1.9-5.7c.3-.8.6-1.7.6-2 .1-.5-.9-3.5-5.1-14.1-.5-1.2-2.6 1.3-3.1 3.6-.1.8 0 1.3 1.1 3.4 2.4 4.3 4.2 7.6 5 9.2.4.8.8 1.4.9 1.4 0-.1.3-.8.6-1.5zm3.1-4.6c.1-.2.6-.5 1.1-.7.7-.3.8-.4.6-1-.1-.4-.8-3.7-1.7-7.3-.8-3.7-1.7-7.4-1.9-8.3-.1-.9-.3-1.6-.4-1.6-.1 0-.5.1-1 .3-1.8.8-2.8 2.4-2.8 4.6 0 .5.6 2.3 1.2 4 .7 1.7 1.8 4.5 2.4 6.1.7 1.7 1.3 3.3 1.5 3.7.2.7.5.7 1 .2zm9.4 24.7c.1-.1-.4-1.9-1-3.9-.7-2-1.5-4.6-1.9-5.7-.7-2.4-3.1-10.7-3.6-12.8-.2-.8-.4-1.4-.5-1.4-.1 0-.7.3-1.3.8-1.3.9-2.6 3.5-2.8 5.6l-.2 1.4 3.1 4.8c1.8 2.6 4.2 6.2 5.4 8.1 1.2 1.9 2.3 3.4 2.4 3.4.1 0 .3-.1.4-.3zm54.8 32c-.1-.2-.2-.2-.2 0 0 .3.1.6.1.6.1-.3.2-.3.1-.6zm-2.4-1.5c1.8-2.6 2.5-3.9 2.5-4.6 0-1.5-.1-1.5-3.2-1.5s-3.2 0-3.2 1.5c0 .8 2.7 5.6 3.2 5.6.1 0 .4-.4.7-1zm5-8.4c.8-.5.8-1.8.2-2.6-.4-.4-.9-.4-5.2-.4s-4.7 0-5.2.5c-.7.7-.7 1.3 0 2.2l.5.7h4.6c3.7 0 4.7-.1 5.1-.4zm.5-5.4c.4-.2.9-1.2.9-1.6 0-.2-.3-.6-.6-.9-.7-.7-.7-.7-5.6-.7-4.8 0-5.8.1-6.3.9-.3.5-.2 1.5.4 2 .5.5.8.5 5.7.5 2.9 0 5.4-.1 5.5-.2zm1.1-5.9c.5-.8.5-1.4-.2-2.1-.5-.5-.8-.5-6.4-.5-6.4 0-6.8.1-6.8 1.6 0 1.4.1 1.5 6 1.6 6.4.2 6.9.1 7.4-.6zm.4-5.2c.6-.7.6-1.6 0-2.4-.6-.5-.8-.5-6.9-.5-7.1 0-7.4 0-7.4 1.7 0 1.6.3 1.7 7.4 1.7 6 0 6.4 0 6.9-.5zm.5-5.5c.6-.5.6-1.6.1-2.3-.4-.4-1-.4-7.6-.4-7.8 0-7.9 0-7.9 1.7 0 1.5.4 1.6 8.2 1.5 5.8-.1 6.8-.1 7.2-.5zm.5-5.4c.6-.6.7-1.5.1-2.3-.4-.6-.4-.6-7.9-.6-6.7 0-7.7.1-8.1.5-.6.5-.6 1.8 0 2.5.4.4 1 .5 7.9.5 7.1 0 7.5-.1 8-.6zm.6-5.5c.5-.4.6-1.5.3-2-.6-.8-1.5-.9-8.9-.9-8 0-8.6 0-9 1.3-.2.6-.2.9.2 1.4l.4.7h8.3c7.3 0 8.3-.1 8.7-.5zm.6-5.3c.2-.3.5-.8.5-1.2 0-.4-.3-.9-.5-1.2-.4-.5-.9-.5-9.2-.5-8.3 0-8.7 0-9.2.5-.7.7-.6 1.7.2 2.3.7.6 1 .6 9.2.6 8.1 0 8.6 0 9-.5zm.5-5.4c.2-.2.5-.6.6-1 .1-.6 0-.9-.5-1.4l-.7-.7h-9c-8.7 0-9 0-9.7.6-.7.6-.8 1.4-.2 2.3l.4.5h9.3c7.1 0 9.4 0 9.8-.3zm.3-5.2c.3-.2.7-.6.8-1 .2-.7-.2-1.8-.8-2-.2-.1-4.8-.2-10.1-.2-8.7 0-9.7.1-10.2.5-.6.5-.6 1.7.1 2.4.5.6.6.6 10 .6 6.5 0 9.7-.1 10.2-.3zm.9-5.8c.3-.3.6-.7.6-1 0-.5-.6-1.5-.9-1.7-.2-.1-4.9-.2-10.5-.2-8.8 0-10.3 0-10.8.4-.7.5-.8 1.8-.2 2.5.4.5 1.1.5 10.9.5 10 0 10.4 0 10.9-.5zm.6-5.5c.7-.6.6-1.8-.1-2.3-.5-.4-2-.4-11.5-.4-5.9 0-10.9.1-11.1.2-.5.3-.9 1.3-.7 1.8.4 1.2.1 1.1 11.8 1.1 10 0 11.2 0 11.6-.4zm.4-5.3c.4-.2.6-.6.6-1.3 0-1.7.1-1.7-12.4-1.7-7.4 0-11.4.1-11.7.3-1.1.6-1.2 2.3-.1 2.9.1.1 5.4.3 11.6.3 9.9 0 11.5-.1 12-.5zm.7-5.5c.5-.5.6-1.5.2-2.3-.3-.5-.7-.5-12.7-.5h-12.4l-.4.6c-.3.3-.5.8-.5 1 0 .2.2.7.5 1l.4.6h12.2c10.8 0 12.3-.1 12.7-.4zm.4-5.4c.8-.7.9-1.4.3-2.2l-.6-.7h-12.6c-12.3 0-12.6 0-13.2.5-.3.3-.6.8-.6 1.2 0 .3.3.9.6 1.2.6.5.9.5 13.1.5 11.5 0 12.5 0 13-.5zm.8-5.4c.6-.7.6-1.7.1-2.3l-.5-.7h-13.3c-12.6 0-13.2.1-13.8.5-.6.7-.7 1.4-.1 2.3l.4.5h13.4c10.5 0 13.6 0 13.8-.3zm.4-5.5c.8-.7.9-1.6.2-2.4-.5-.5-.9-.5-14.4-.5-12.4 0-13.8.1-14.3.5-.6.5-.6 1.8.1 2.4.5.5.9.6 14.1.6 13.4 0 13.6 0 14.3-.6zm.7-5.5c.5-.4.7-1.5.3-2-.5-.9-1.4-.9-15.2-.9-10.6 0-14 0-14.5.3-.8.4-1 1.9-.3 2.6.4.5 1 .5 14.8.5 13.1 0 14.5-.1 14.9-.5zm-.1-5.1c1 0 1.5-1.8.7-2.7-.4-.4-1.2-.4-15.4-.4-8.2 0-15.1.1-15.3.2-.9.6-.8 2.5.2 2.9.3.1 22.9.2 29.8 0zm1.2-5.7c.6-.5.6-1.9 0-2.5-.4-.5-1.2-.5-15.8-.5h-15.5l-.7.7c-.5.5-.6.8-.5 1.4.4 1.4-.1 1.4 16.5 1.4 14.1 0 15.6-.1 16-.5zm.4-5.3c.8-.5.9-2.3.1-2.7-.3-.2-6-.3-16.7-.3h-16.1l-.5.7c-.5.8-.2 1.9.6 2.4.8.4 31.9.3 32.6-.1zm.8-5.8c.6-.7.5-1.5-.1-2.3-.4-.4-1.5-.4-17.1-.4-16.3 0-16.6 0-17.1.5-.3.3-.6.8-.6 1.2 0 .4.3.9.6 1.2.5.5.8.5 17.1.5h16.7zm.5-5.2c.6-.7.7-1.7.2-2.3l-.6-.7h-17c-16.9-.1-17.1-.1-17.8.5-.8.6-.9 1.6-.2 2.4.4.4 1.3.4 17.8.4 13.6 0 17.4 0 17.6-.3zm.6-5.5c.7-.8.7-1.7 0-2.4-.5-.5-.8-.5-18.3-.5-19.7 0-18.7-.1-18.7 1.8 0 1.7-.8 1.7 18.8 1.7h17.7zm.6-5.5c.6-.5.6-1.7 0-2.3-.4-.4-2.1-.4-19-.4-13.4 0-18.5.1-18.8.3-.5.4-.4 2 .1 2.5.4.3 2.4.4 18.8.4 16.8 0 18.5 0 18.9-.5zm-30.5-9.3c0-2.5 0-4.5-.1-4.5s-.5.2-1.1.5c-1.1.7-1.4.7-2.5 0-.5-.3-1-.5-1.1-.5-.2 0-.3 8.6 0 8.8.1.1 1.2.2 2.5.2h2.3zm7.1 0c0-2.5 0-4.5-.1-4.5s-.7.3-1.4.6l-1.1.6-1-.6c-1.2-.7-1.6-.6-1.5.3.1.3.1 2.3.1 4.3v3.8h2.5l2.4-.1zm7 0c0-2.5-.1-4.5-.2-4.5 0 0-.5.2-1 .5-1 .7-1.7.7-2.5 0-1.3-1-1.4-.8-1.4 3.8 0 2.4.1 4.4.2 4.5.1.1 1.2.2 2.5.2h2.4zm7.1-.1V132l-1.1.7c-1.2.8-1.7.8-2.7.1-.5-.3-.9-.5-1-.5-.1 0-.2 2-.2 4.5v4.5h5zm7 0c0-2.4 0-4.4-.1-4.4s-.7.3-1.3.6l-1.1.6-1-.5c-.5-.3-1.1-.6-1.2-.6-.1-.1-.2 1.9-.2 4.4v4.5h2.4l2.4-.1zm-29.1-6.4c.9-.5 1.8-.9 2-.9.2 0 1.1.4 1.9.9l1.6 1 1.3-.8c2-1.3 2.4-1.3 4.2-.2l1.5 1 1.6-1c.8-.5 1.7-.9 1.9-.9.3 0 1.1.4 2 .9l1.6 1 1.6-1c.8-.5 1.7-.9 1.9-.9.2 0 1.1.4 1.9 1l1.6.9 1.5-.9c.9-.5 1.9-1 2.4-1.1 1.3-.3 1.9-1.9.9-2.9-.4-.4-1.3-.4-18.9-.4-20.4 0-19.2-.1-19.2 1.7 0 1 .7 1.7 1.7 1.7.3 0 1.1.4 1.8.9s1.4.9 1.5.9c.1.1.9-.4 1.7-.9zm.9-9.9c0-1.9 0-3.4-.1-3.4s-.5.2-1 .5c-1.1.6-1.5.6-2.6 0-.5-.3-1-.5-1.1-.5-.1 0-.2 1.5-.2 3.4v3.4h5zm7.2 0c0-1.9-.1-3.4-.2-3.4s-.6.2-1.1.5c-1.1.6-1.6.6-2.6 0-.4-.3-.9-.5-1-.5-.2 0-.3 5.4-.2 6.8 0 0 1.2.1 2.6.1h2.5zm6.9 0c0-1.9-.1-3.4-.3-3.4-.1 0-.5.2-.9.5-1 .6-1.7.6-2.5 0-1.3-1-1.4-.8-1.4 2.9v3.4h5.1zm7.1 0c0-1.9-.1-3.4-.2-3.4s-.6.2-1.1.5c-1.1.6-1.5.6-2.5 0-.5-.3-.9-.5-1-.5-.1 0-.2 1.5-.2 3.4v3.4h5zm6.9 0c0-1.8-.1-3.3-.1-3.4-.1-.1-.5.1-.9.4-1 .7-1.9.7-2.7 0-.4-.3-.8-.5-.9-.5-.1 0-.2 1.6-.2 3.4v3.5l2.4-.1 2.4-.1zM193 115c.9-.5 1.7-1 1.9-1 .2 0 1.1.5 1.9 1l1.6 1 1.6-1c1.8-1.1 2.2-1.1 4.1.2l1.2.8 1.1-.6c.6-.4 1.4-.8 1.8-1.1.7-.4 1.1-.3 3.4 1.1l.9.5 1.5-.9c1.8-1.1 2.2-1.1 4.1.1l1.4.8 1.2-.7c1.1-.6 1.2-.8 1-1.4-1.1-4.5-6.3-8.5-12.5-9.4-2-.3-2.2-.6-2.9-3.8-.4-1.53-.7-2.88-.8-3.01-.1-.11-.4 1.03-.8 2.51-.7 3.3-1.1 3.9-2.8 4.2-4 .7-8.1 2.7-10.4 5-1 1.1-2.5 4.1-2.4 4.8.1.4.5.8 1.2 1.2.5.3 1 .6 1.1.6 0 0 .7-.4 1.6-.9zm6.7-12.8c-.2-.1-.5-.1-.7 0-.1.1 0 .2.4.2s.5 0 .3-.2z"/></svg>