<svg xmlns="http://www.w3.org/2000/svg" viewBox="0 0 410.84105 154.34911"><path d="M290 19.18h52.2c15.8 0 27.2 3.42 32.7 12.12 5.5 8.68.8 19.48 0 22.13h-41.3c1-3.83 1-7.81-6.5-7.81h-30.7c-10.6 0-13.5 2.07-15.1 6.79-1.7 4.75-.8 9.83 7.7 9.83h48.9c16.8 0 23.2 4.6 27.6 13.84 4.5 9.2-1 34.62-9.6 44.72-8.6 10.2-23.6 14.2-45.6 14.2h-50.8c-15.5 0-26.9-5.6-30.2-12.9-3.2-7.2 0-21.1 2.7-26.03h39.6c-2.8 9.53-.4 12.03 6.5 12.03h34.4c10.5 0 13.5-6.7 14-10.46.5-3.8-.9-9.07-7.1-9.07H266c-25.5 0-26.8-22.4-25.9-28.56.8-6.2 6.2-21.47 16.1-30.04 9.8-8.55 21-10.79 33.8-10.79m-44.1 0h-38L200 45.64h38l7.9-26.46zM173.4 135.1h38L236 52.63h-38l-24.6 82.47zM34.75 108.3l16.79-56.34h36.08L70.81 108.3H94.8c23.2 0 35.7-3.2 46.5-18.43 9-15.26 9.5-28.3 5-34.62-3.9-5.5-8.5-9.52-23.7-9.52H53.4l7.87-26.45h70.83c35 0 42.5 13.96 48.5 23.99 6 10 9 31.05-4 56.6-13 25.53-33.8 35.33-58.5 35.33H62.82c-20.06 0-22.56-2.5-27.19-8.6-4.62-6.1-.88-18.3-.88-18.3"/></svg>