<svg viewBox="0 0 240 160" xmlns="http://www.w3.org/2000/svg"><path d="M208.9 59.5c-.2 7.21-7 11.68-7 18.91.3.25.5.57.8.41 5.4-5.89 10.8-14.27 18.6-16.79 2-.12 4 1.68 4.7 3 2.7 5.49 2.1 13.21-1.7 18.19-4 4.89-10.8 9.79-18.6 8.96-3.3 7.92-5.4 16.32-6.8 25.02-.6 1.8-2.1.2-3.1-.1-6.7-5.4-1.2-19.4-.8-21.19.5-1.79 2.3-6.01 3.6-9.55-3.1-5.63-1.2-12.44 1.4-17.66 1.9-3.43 4.7-6.91 8-9.68.3 0 .7.12.9.48zm13.4 8.96c-1-.17-1.4 1.15-2.2 1.4-3.9 4.32-7.7 8.63-9.6 13.78 2.6.32 4.8-1.34 6.9-2.25 3.9-2.41 6.3-6.38 6.1-10.95-.2-.75-.9-1.32-1.2-1.98M78.13 44.84c7.65 6.25 17.58 16.95 16.34 29.17-1.49 9.71-11.78 17.01-20.49 19.33-8.46 2.48-19.07 2.24-27.7.25-.58 1.57-1.17 3.48-3 4.14-1.15.41-2.64.17-3.55-.57-2.58-2.41-.51-7.06-4.23-8.55-7.31-3.07-15.18-9.12-18.92-16.6-.49-1.49.12-2.98 1-4.14 5.72-4.52 12.93-6.44 20.15-7.77.41.12.25-.48.58-.6.42-4.93.59-10.09 2.16-14.54.36-.6 1.24-.84 1.83-.36 4.55 3.48 2.4 9.97 4.39 14.78 8.71.36 17.42.72 24.31 5.65 2.32 1.92 2.88 5.57 2.15 7.66-.73 2.08-3.15 3.55-5.4 3.72-1.49 0-4.3.15-4.14-.99.17-1.15 5.07-3.01 3.57-4.56-2.17-2.24-13.01-3.57-19.73-4.39-.82-.12-1.59.12-1.59.99-.16 6.3-.66 13.27.42 19.32.12.41.57.92.99 1 11.87 1.9 24.39.83 33.68-5.97 4.32-3.49 5.72-8.38 4.98-13.77C82.19 53.01 66.52 44 53.66 38.23c-12.53-5.53-26.38-8.29-41.23-7.57-2.36.12-6.11.96-6.137 1.8-.02.84 4.247.6 3.727 2.16-.506 1.57-4.847.6-6.133.24-1.286-.36-1.16-2.28-.83-3.36 3.236-5.77 12.263-6.25 16.343-6.49 22.56-.49 44.38 8.05 58.73 19.83zM37.48 67.07c-5.72 0-11.78.64-17.09 2.62-1.07.42-2.41 1.58-1.58 3 2.17 2.89 5.24 5.29 8.14 6.96 2.89 1.68 6.72 3.82 10.2 4.31.83-5.38.83-10.7.75-16.25-.34-.17 0-.5-.42-.64m159.02-3.36c.5.72.9 1.68 0 2.16-3.7 1.67-8.7.96-13.1 1.42-1 1-2 2.66-1.5 4.15.3.25.7.62 1.2.57 2.6.17 6.6-1.23 8.4 1.25.3.74-.1 3.5-1.3 3.57-3.3.41-8.6-.41-10.1.41-2.1 1.34-1.8 3.91-2.6 5.98 1.4.91 2.9 0 4.6-.26 3-.49 6.4-1.4 9.5-.74.6 1.08 1.4 2.25.8 3.57-5.2 4.14-12 8.4-19.2 5.39-2.6-1.21-3.8-5.31-2.9-8.79.5-2.49 3.2-4.9 1.6-7.55-.2-1.17.4-2.15 1.3-2.41 2.8 0 2.2-3.4 3.6-4.97-1.5-1.71-5.5-1.71-5.1-5.19 1.9-.96 4.3-.6 6.3-.96 5-.97 10.5-1.57 15.4-.97 1 .12 2.4 2.17 3.1 3.37m-92.1 1.2c.8 7.93 1.2 15.32 1 23.7-.1 1.07-1.4 1.32-2.2 1.74-1.3.24-3.1 0-3.58-.74-1.92-3.08-1.25-7.22-1.42-10.95.25-5.9.17-12.31 1.8-17.72.3-.84 1.3-1.56 2-1.08 2 1.08 2.3 3.01 2.4 5.05m36.2-3.12c0 1.2-.9 2.76-1.8 2.88-7.9 1.32-16.8.6-24.3 3.04-.2.9.9 1.07 1.4 1.32 6.5 1 13.2 1.24 19.3 2.83 3.4.83 4.6 4.72 4.8 7.95.2 2.55-.8 5.64-3.3 7.38-6.1 3.91-15.5 3.74-21.7.17-2.4-1.33-4.7-3.48-4.9-6.14 0-2.1 1-3.76 2.4-4.55 6-2.41 13.4-1.09 18.5 1.99.4 1.66-1.4 1.56-2.3 2.15-5.7 3.32-10-3.74-15.3-1.16-.8.5-1.3 1.88-.4 2.33 6.5 2.89 13.8.83 20.3-1 .7-.25 1.7-1 1.7-1.74-.2-2.66-3.2-3.24-5.2-3.98-5.5-1.42-11.8-1.42-17.8-2-1.2-.25-2.7-1.05-3-1.99-.7-1.98-.7-4.68.8-6.36 7.7-6.85 19.4-6.25 29.2-4.45.7.24 1.4.48 1.6 1.33m25.2 1.92c2.6 6.49 4.8 16.68 0 22.91-1.4 1.49-3.8 2.87-5.2 1.74-5.5-4.4-7.8-10.7-11.2-16.35-.5-.24-.5.42-.8.68-1.2 5.72 1.1 13.18-2.8 17.66-1.4.24-2.9-.51-3.3-1.99-2-5.89 0-12.03.6-17.92 1-2.98 1.5-6.49 4.2-8.65 4 1.56 6.1 6.25 8.5 9.65 1.7 2.57 3.1 5.48 5.2 7.8 1.6-.75.8-3.03.8-4.4-.7-5.4-2.2-10.41-3.6-15.46-.1-1.44-.8-3.6.6-4.44 3.7 1.68 5.3 5.52 7 8.77m-49.9-28.49c1.6 0 3 .61 4.2 1.57 1.6 1.56 2 4.08 1.2 6.01-2.9 6.01-9.8 9.97-14.5 11.29-2.8.73-6.4.73-8.93-.36-1.25.84-2.29 3.25-3.82 2.17-2.2-1.69-.29-4.33-1.56-6.25-.27-.48-.93-.48-1.25-1.08-1.74-3.85.41-7.46 2.81-10.34 4.02-4.57 15.55-9.5 21.85-3.01zm-13.3 3.01c-2.2.36-4.77 1.32-6.13 2.88-1.37 1.69-2.25 3.25-1.42 4.81 2.91-2.16 4.31-5.05 7.55-6.97 0-.24.5-.48 0-.72zm13.5.72c-5.7-.48-10 3.85-14.1 8.05-.2.6-1.7 1.33-.6 2.17 5.5.48 10.7-1.09 14.7-4.81 1.2-1.08 2-2.4 1.4-3.97-.2-.6-.8-1.08-1.4-1.44"/></svg>