<svg xmlns="http://www.w3.org/2000/svg" viewBox="0 0 202 177"><path d="M78.47 85.21c-1.56 0-2.82 1.26-2.82 2.81a2.815 2.815 0 0 0 5.63 0c0-.38-.1-.75-.21-1.08-.2.36-.58.6-1.01.6a1.144 1.144 0 0 1-.57-2.14c-.32-.12-.66-.19-1.02-.19zm16.76-74v16.42H62.39v16.42H45.97v16.79H31.93l-.23 2.48c-.78 8.29.36 16.58 3.79 24.16l1.47 3 .17.28C47.26 108 65.05 115.2 84.43 115.2c37.57 0 68.47-16.75 82.77-52.16 9.5.49 19.2-2.32 23.8-11.39l1.2-2.32-2.2-1.3c-5.5-3.17-12.9-3.6-19.1-1.77-.8-6.63-5.1-12.44-10.3-16.6l-2.1-1.65-1.7 1.99c-3.4 4.01-4.5 10.68-4 15.8.3 3.77 1.5 7.59 3.8 10.62-1.7 1.06-3.7 1.9-5.5 2.51-3.6 1.23-7.6 1.91-11.4 1.91h-8.3V44.05H115V11.21H95.23zm2.74 2.74h14.23v14.23H97.97V13.95zM65.13 30.37h14.23V44.6H65.13V30.37zm16.42 0h14.23V44.6H81.55V30.37zm16.42 0h14.23V44.6H97.97V30.37zM48.71 46.79h14.23v14.23H48.71V46.79zm16.42 0h14.23v14.23H65.13V46.79zm16.42 0h14.23v14.23H81.55V46.79zm16.42 0h14.23v14.23H97.97V46.79zm16.43 0h14.3v14.23h-14.3V46.79zm-35.93 37.3c2.17 0 3.92 1.76 3.92 3.93s-1.75 3.93-3.92 3.93a3.93 3.93 0 0 1 0-7.86zm-7.59 10.56c.1.18.16.36.24.54 0 .11.1.23.16.35.89 1.89 2.01 3.79 3.16 5.36 3.19 4.4 7.8 8.3 14.46 11.5-1.48 0-2.97.1-4.47.1-20.31-.2-31.28-7-40.19-15.93 2.67.14 5.22.22 7.64.22 2.1 0 4.1-.1 6-.16.63 0 1.25-.1 1.85-.13 2.83-.22 5.42-.57 7.76-1.04.18 0 .36-.1.54-.1a46.573 46.573 0 0 0 2.85-.71zM36.75 136.2v-11.8c0-1.5.97-2.8 2.57-2.8h.44c1.6 0 2.56 1.3 2.56 2.8v24.7c0 6.1-2.98 10.9-8.18 13.9-2.4 1.4-5.06 2.2-7.86 2.2h-1.1c-6.03 0-10.83-3-13.89-8.2-1.42-2.4-2.14-5.1-2.14-7.9V148c0-6 2.98-10.8 8.17-13.9 2.41-1.4 5.07-2.1 7.86-2.1h1.1c4.09 0 7.55 1.6 10.47 4.2m-22.04 12.4c0 4.3 2.11 7.6 5.93 9.7 1.55.9 3.22 1.3 4.98 1.3 4.28 0 7.45-2 9.64-5.6 1.02-1.7 1.49-3.6 1.49-5.5 0-3.8-1.78-6.7-4.83-8.9-1.84-1.4-3.92-2-6.19-2-4.66 0-8.01 2.3-10.03 6.5-.68 1.4-.99 2.9-.99 4.5M61.62 132h.77c6.45 0 11.35 3.1 14.46 8.8 1.24 2.2 1.91 4.7 1.91 7.2v1.1c0 6.1-2.98 10.9-8.18 13.9-2.4 1.4-5.06 2.2-7.86 2.2h-1.1c-6.03 0-10.83-3-13.89-8.2-1.42-2.4-2.14-5.1-2.14-7.9V148c0-6 2.99-10.8 8.17-13.9 2.41-1.4 5.07-2.1 7.86-2.1m-10.47 16.6c0 4.2 2.08 7.3 5.65 9.5 1.68 1 3.53 1.5 5.49 1.5 4.18 0 7.26-2.1 9.42-5.6 1.02-1.7 1.48-3.6 1.48-5.5 0-4-1.89-7-5.13-9.1-1.77-1.2-3.75-1.8-5.89-1.8-4.66 0-8.01 2.3-10.03 6.5-.68 1.4-.99 2.9-.99 4.5M101.9 138c-.8-.4-2.43-.5-3.33-.5-4.65-.2-8.01 2.4-9.98 6.5-.69 1.4-1 2.9-1 4.5 0 4.7 2.51 8.1 6.76 10.1 1.55.8 3.56.9 5.22.9 1.53 0 3.63-.9 5.03-1.5l.2-.2h1l.1.1c1.3.2 2.3 1 2.3 2.4v.5c0 3.4-6.2 4.2-8.63 4.4-8.33.6-14.56-4-16.94-12-.41-1.4-.6-2.7-.6-4.2v-1.1c0-6 2.99-10.8 8.17-13.9 2.41-1.4 5.07-2.1 7.86-2.1h1.11c3.03 0 5.73.8 8.13 2.5l.2.1.2.3c.2.4.5.9.5 1.4v.6c0 1.4-1.1 2.2-2.4 2.4h-.4c-.8 0-2.7-.8-3.5-1.2m18.1 3.8c2.1-2.2 4.3-4.3 6.5-6.5.6-.6 2.9-3.1 3.8-3.1h1.1c1.3.3 2.3 1.1 2.3 2.5v.5c0 1-1.1 2-1.7 2.7-1.3 1.3-2.7 2.6-4 4l-6.7 6.8 8.7 8.7c.8.8 1.6 1.6 2.3 2.5.3.3.7.6 1 1 .2.4.4.8.4 1.3v.5l-.1.2c-.3 1.3-1.1 2.3-2.5 2.3h-.4c-1 0-2-1.1-2.6-1.7-1.3-1.2-2.6-2.5-3.9-3.7l-4.2-4.2v6.7c0 1.5-1 2.8-2.6 2.8h-.4c-1.6 0-2.6-1.3-2.6-2.8v-37.8c0-1.5 1-2.8 2.6-2.8h.4c1.6 0 2.6 1.3 2.6 2.8v17.3zm69.3-9.6h.6c1.6 0 2.8 1.1 2.8 2.8 0 2.3-2.2 2.9-4.1 2.9-2.5 0-4.9 1.5-6.7 3.2-2.1 2.1-3 4.8-3 7.8v13.5c0 1.5-1 2.8-2.6 2.8h-.4c-1.6 0-2.6-1.3-2.6-2.8v-14.3c0-5.4 2.7-9.9 7.1-13 2.6-1.9 5.7-2.9 8.9-2.9m-39.5 26.7c2 .7 4.3.6 6.4.3 1.1-.5 3.8-1.7 4.8-1.5h.1l.2.1c.6.3 1.2.7 1.5 1.3.7 1.5.4 3-1.1 3.8l-.5.3c-5.2 3-10.8 2.6-16.1-.3-2.5-1.3-4.5-3.3-5.9-5.8l-.3-.6c-3.4-5.9-2.9-12 .9-17.6 1.3-1.9 3-3.4 5-4.6l.8-.4c5-2.9 10.3-2.7 15.4-.2 2.8 1.4 5 3.4 6.5 6l.3.5c1.1 1.9-.3 3.6-1.8 4.8-1.8 1.3-3.5 2.9-5.2 4.3-3.6 3.2-7.3 6.4-11 9.6m-4.8-3.3c4.1-3.6 8.3-7.1 12.4-10.7 1.4-1.2 2.9-2.5 4.3-3.7-1.1-1.4-3-2.5-4.6-3.1-3.2-1.2-6.3-.8-9.3.9-3.8 2.2-5.5 5.8-5.3 10.2 0 1.7.5 3.4 1.4 4.9.3.5.7 1 1.1 1.5"/></svg>