<svg xmlns="http://www.w3.org/2000/svg" viewBox="0 0 300 217.28975"><path d="M297.34 162.05c.288 0 .455-.058.455-.39 0-.307-.33-.33-.574-.33h-.445v.72h.564zm-.565 1.767h-.642v-2.99h1.12c.77 0 1.227.215 1.227.9 0 .55-.325.75-.718.78l.76 1.31h-.757l-.688-1.258h-.302v1.257zm.462-3.627c-1.104 0-1.993.852-1.993 2.133 0 1.278.89 2.14 1.993 2.133v.007c1.076 0 1.987-.862 1.987-2.14 0-1.28-.91-2.132-1.987-2.132zm0 4.91c-1.478 0-2.793-1.018-2.793-2.777 0-1.756 1.315-2.778 2.793-2.778 1.472 0 2.787 1.022 2.787 2.778 0 1.76-1.315 2.778-2.787 2.778M205.98 178.69c-4.587 0-7.767-3.85-7.767-9.134 0-5.104 2.996-7.672 6.596-7.672 4.025 0 7.39 3.236 7.39 9.104 0 5.28-2.198 7.702-6.22 7.702zm-110.427-5.933l2.78-5.648h.137l2.826 5.648h-5.743zM56.33 170.15c-.855.416-1.936.505-3.38.505h-.632v-6.804c0-1.182.138-1.484 2.03-1.484 1.757 0 4.507 1.16 4.507 4 0 1.45-.678 2.84-2.524 3.784zm-35.598 8.017c-3.098 0-4.52-.885-4.52-4.41v-15.194c0-.986.065-1.9.386-1.98.456-.156 1.295-.274 2.78-.274 5.49 0 12.53 2.374 12.53 10.882 0 7.004-5.62 10.975-11.176 10.975zm200.17-8.115c0-5.78-6.596-9.69-15.156-9.69-6.73 0-11.24 1.975-13.762 4.583 1.544-2.995 2.574-4.898 2.715-5.127 2.175-3.522 2.752-3.856 6.34-4.177v-1.35h-15.31v1.35l2.432.158c2.753.164 2.947.816 2.114 3.1-.898 2.36-3.265 8.01-5.51 12.697l-.125-.216-9.736-17.063h-4.485l-8.393 17.062-.128.215-6.09-13.458c-.766-1.645-.576-2.136 1.798-2.34l2.05-.156v-1.35h-19.99v1.35c2.948.24 4.102.617 5.83 3.938l.783 1.524h-9.542l-7.14 11.712-8.166-11.712h-10.97v.937c3.69.205 4.062.746 3.735 4.47l-.515 5.98c-.233 2.69-.512 4.255-.744 5.172-.08.312-.13.692-.41.754-.318.05-1.026-1.055-1.633-2.143a963.09 963.09 0 0 1-5.563-10.024l-3.05-5.594-3.097.416-8.97 15.29c-.104.177-.203.334-.3.488-.342.45-.693 1.025-1.043 1.26-1 .712-3.597.892-5.42.892-1.41 0-2.458-.03-3.186-.265-.82-.27-.91-1.222-.91-2.762v-4.82h2.274c3.92 0 4.055.178 4.51 2.783h2.007v-6.982H86.14c-.455 2.25-.59 2.425-4.51 2.425h-2.275v-5.706c0-1.036.09-1.25 1.82-1.25h.776c2.414 0 3.92.178 4.646.68.728.475 1.233 1.516 1.69 2.964l2.002-.088c-.23-2.218-.456-4.377-.502-4.878H68.192v.937c3.052.18 3.416.598 3.416 3.792v9.76c0 2.81-.285 3.31-2.747 3.51a6.752 6.752 0 0 1-1.26-.788c-.723-.593-1.716-1.598-3.247-3.164-1.308-1.363-2.973-3.4-3.606-4.233 3.334-.855 5.816-2.392 5.816-4.996 0-1.742-1.354-3.072-3.157-3.816-1.757-.74-4.1-1.002-7.616-1.002H42.002c-.997-1.294-2.318-2.405-3.764-3.253-4.327-2.573-10.917-3.523-18.86-3.523H.515v1.543c4.2.24 4.717.514 4.717 4.793v13.058c0 4.277-.518 4.768-5.232 5.004v1.327h16.664c14.922 0 27.13-4.235 27.13-14.086 0-1.376-.415-2.67-1.107-3.847 2.137.24 2.42.898 2.42 3.715v9.76c0 3.194-.358 3.617-3.56 3.79v.944H55.79v-.944c-3.11-.173-3.472-.596-3.472-3.79v-3.548h.587c.856 0 1.49.445 1.892 1.065 1.128 1.653 2.39 3.488 3.74 4.762 1.803 1.713 3.292 2.598 9.69 2.69.932-.033 1.52-.138 1.837-.236h26.161v-.944l-1.298-.085c-2.066-.15-2.108-.655-1.482-1.93l1.347-2.84h7.357l1.612 3.017c.583 1.065.495 1.573-1.167 1.724l-1.345.114v.944h19.808v-.944c-3.036-.144-4.062-.625-4.25-1.72-.186-.917-.23-2.335-.09-4.88l.327-6.563h.092l8.54 13.778h2.52l9.007-14.817h.187l.14 10.412c.047 3.28-.094 3.587-3.592 3.79v.944h14.605v-.944c-3.357-.203-3.452-.51-3.593-3.79l-.465-9.907c-.122-2.686.007-3.296 2.33-3.548l9.51 18.47h4.932l8.585-16.262h.128l9.416 16.263h4.93a427.057 427.057 0 0 1 5.25-10.89 7.085 7.085 0 0 0-.054.832c0 5.37 6.128 9.658 15.58 9.658 8.98 0 15.81-3.915 15.81-10.156m11.698-.324c-.872.41-1.973.498-3.442.498h-.642v-6.713c0-1.17.137-1.467 2.068-1.467 1.787 0 4.587 1.143 4.587 3.95 0 1.43-.688 2.798-2.57 3.732zm53.82-1.867l-1.02-.29c-3.01-.82-4.766-1.69-4.766-3.156 0-1.395 1.666-2.535 4.026-2.535 3.655 0 5.275 2.07 6.294 4l2.036-.208c-.508-1.985-.833-3.413-1.02-4.553-.6-.116-1.34-.234-2.406-.408a25.397 25.397 0 0 0-4.255-.353c-7.266 0-11.062 2.688-11.062 5.984 0 3.122 4.26 4.672 8.097 5.75l.695.203c2.87.76 4.63 1.778 4.63 3.505 0 1.894-1.853 2.886-4.26 2.886-4.536 0-7.264-3.24-8.234-4.934l-2.04.38c.5 1.747 1.03 3.188 1.4 4.433-1.53-.183-2.757-.632-4.917-2.477-2.873-2.45-5.88-5.133-8.705-7.908 1.915-1.432 4.193-2.92 6.655-4.436 2.367-1.487 3.78-1.848 6.38-2.02v-.928h-12.215v.927l1.734.114c1.228.088.727.884.087 1.41-2.642 2.22-5.422 4.378-8.75 6.773v-4.554c0-3.152.368-3.572 3.374-3.745v-.927h-14.217v.927c3.19.173 3.554.593 3.554 3.744v9.628c0 1.857-.13 2.905-.84 3.312-1.058.485-1.82.173-2.606-.41-.733-.586-1.74-1.792-3.3-3.338-1.33-1.343-3.03-3.358-3.672-4.174 3.397-.845 5.918-2.365 5.918-4.934 0-1.72-1.374-3.033-3.21-3.764-1.79-.727-4.176-.992-7.753-.992h-14.585l.265.927c3.08.173 3.174.593 3.174 3.744v9.628c0 3.15-.368 3.57-3.626 3.747v.924h14.773v-.925c-3.17-.176-3.537-.596-3.537-3.747v-3.5h.6c.872 0 1.51.436 1.924 1.05 1.147 1.634 2.436 3.442 3.81 4.7 1.835 1.69 3.324 2.782 9.71 2.654.482 0 2.3-.128 2.717-.233h11.133v-.925c-3.235-.176-3.694-.596-3.602-3.747v-4.67h.09c3.33 3.182 8.086 7.47 9.82 9.34h10.48v-.605c.57.15 1.36.33 2.38.55 1.253.26 3.148.492 5 .492 7.173 0 11.756-2.624 11.756-6.215 0-3.413-3.658-4.93-7.914-6.13M68.036 38.507v117.5m-.004-117.502v117.5M65.982 37.93c22.456 2.717 70.52 44.026 70.95 56.608l-1.72.285c-5.29-18.87-56.07-55.604-69.23-55.463m96.17 61.435c.51-.83.357-1.14.61-2.802.1-2.334-.705-4.143-.705-4.143l-3.723 1.052c1.11 1.51 2.425 4.588 3.818 5.893zm-17.042 10.057s-.462 2.245-.023 4.166c1.26-.32 2.252-1.32 3.202-1.714.95-.393 3.558-1.04 5.325-1.914 0 0 .02-.34-.61-1.28-.475-.696-1.497-4.127-2.494-7.798 0 0-.366-2.586-.756-2.418-.265.11-.354 3.17-.478 4.486-.154 1.62-.08 1.068-.08 1.068s1.017.16.863.708c-.198.68-.892 4.516-1.142 5.15-.203.507-.294.303-1.196.113-1.104-.23-2.612-.568-2.612-.568zm17.307-31.09c.285-.708-1.792.26-2.182.455-1.22.61-2.042-.403-1.845-.957.24-.678.08-1.127-.42-1.055-.413.062-.505-.485-.275-.796-.416 0-.603-.32-.695-.542.6-.223.05-.86-.197-.954-.245-.098-.783-.196-.832-.632-.048-.436.398-.996.84-1.285.44-.288.623-.796.125-1.697-.413-.754-.636-2.104-.246-2.593-.883.1-1.322 1.167-1.322 1.167-.59-1.068-.25-2.133-.052-2.664-.292.288-.784 1.16-.784 1.16.636-5.617 7.25-7.967 9.016-8.354 3.27-.718 8.386-.868 7.6 1.695 0 0 1.03-2.03-.882-2.562 1.078-.053 1.96 1.16 1.52 1.933.538-.336 1.52-.58 1.862-.094-.537.05-1.62.63-1.668 1.065.98-.192 1.993.38 2.746 3.685.345 1.498.934 6.34-1.176 7.94 0 0 .098-.288.147-.675 0 0-.295 1.16-1.91 1.16 0 0-.13.51-.033.797 0 0 1.943-.747 2.727-.456 0 0-.88 1.745-1.274 2.42 1.275 0 5.125 2.484 5.378 8.24.59.966 1.274 6.556.59 9.077-5.444 17.29-45.055 27.23-51.823 25.05 0 0-1.903-1.45-.323-2.333.53-.295.157.157 1.317.48.764.212 1.347-.015 2.265-.522 1.018-.564 3.073-1.043 4.498-2.055 1.426-1.016 2.51-1.246 4.025-4.087.318-.596.495-1.416.613-2.425.03-.213-.102-.115-1.495-.616-.802-.293-1.424.087-1.424-1.322 0-1.41.567-3.654.717-4.2.154-.545.66-.62 2.085-.545.612-1.31 1.137-3.63 1.514-4.906 0 0-.397.075-1.278.075-.905 0-1.275.626-2.747 1.11-1.47.49-2.26.35-2.55-.58-.393-1.257-.393-1.84-.786-2.71-.284-.638-1.274-.583-1.077-1.26.197-.68.492-.968.885-1.16.488-.486 1.665-.39 2.743-1.36 1.082-.968 1.708.058 2.062.776.298.61.407.694 1.078 1.55.344.436 1.57.144 2.353 0l.69-2.81c-.493-.097-2.55-.484-4.81-1.644-2.254-1.163-3.922-2.232-4.803-2.133-3.156.348-2.344-.242-3.825-2.52-.88-1.356-.688-1.45-1.763-1.936-1.4-.63-.492-2.036.095-1.937.58.095 1.57-.485 2.45-.68-.277-1.378.12-2.17 1.374-2.034-.293.872.985 2.714 2.453 3.2 1.47.48 2.06 2.902 2.06 3.387 1.374 1.357 7.762 1.262 9.135 1.262.708-1.09.953-1.383 3.634-1.383 1.7 0 3.097.406 4.37 1.89 1.195.38.208-.714 2.263-.94 2.055-.227 3.058-1.11 3.933-1.354.87-.242.858-.76 1.494-1.294.37-.308.682-1.043 1.2-1.3.517-.257.458-1.935.652-2.253m12.564 19.32s9.947-7.39 13.814-28.223c2.333-12.588 1.347-24.766-4.238-36.875-8.216-17.818-28.013-30.347-46.965-32.38 31.614-7.17 60.086 11.354 70.95 34.602 10.57 22.622 9.664 46.313-6.695 68.44-3.373 4.566-22.8 26.677-57.273 25.517-2.43.434-8.45-.763-10.31-1.477 0 0-3.123-1.193-6.908-2.838-3.838-1.668-12.866-6.607-18.123-11.4 4.41 2.617 12.32 5.472 19.812 6.14 4.72-.573 29.485-4.922 45.936-21.505m-41.574 29.473s-.852 1.248-1.632 2.113c-.784.862-1.026 1.315-.475 1.632.553.318 1.025.695 2.208 1.485-.324 1.878-1.655 4.755-2.53 6.466-.875 1.706-1.9 3.51-2.76 4.374-.858.862-2.85 2.576-4.105 3.83-1.26 1.256-2.72 2.177-3.59 2.324-1.572.26-2.054-.924-2.267-.635-.97 1.327-.46 2.694 1.344 2.94.6.08.967.7 2.068 1.173 1.104.468 2.776.075 3.71-.394.937-.468 2.995-1.7 4.496-2.474 1.502-.773 3.036-.71 4.77-.862 1.438-.12 1.592-2.56 1.07-3.756-.766-1.802-.17-3.133.735-5.266s3.25-4.467 3.25-4.467.63-.314 1.685.44c1.013.727 1.223-.436 2.524-1.993 1.058-1.26 2.19-2.615 1.53-3.222-.793-.727-.583-1.032-.583-1.032s.784-1.006 1.594-1.655m-8.5-31.377c.156.335.805 2.003.858 2.284.055.29 1.927.62 1.533-.714-.393-1.33-.875-2.38-.875-2.38m74.206 113.41c.963 1.714 3.667 4.994 8.16 4.994 2.383 0 4.218-1.003 4.218-2.926 0-1.744-1.744-2.776-4.585-3.546l-.69-.207c-3.804-1.094-8.022-2.66-8.022-5.82 0-3.343 3.76-6.06 10.96-6.06 1.418 0 2.886.118 4.214.354 1.055.177 1.79.295 2.385.413.184 1.154.502 2.602 1.006 4.61l-2.015.208c-1.01-1.95-2.612-4.048-6.236-4.048-2.337 0-3.986 1.15-3.986 2.57 0 1.478 1.74 2.366 4.72 3.192l1.01.295c4.217 1.212 7.838 2.75 7.838 6.207 0 3.634-4.54 6.295-11.644 6.295-1.832 0-3.713-.237-4.952-.502-1.373-.295-2.336-.535-2.887-.71-.366-1.358-.962-2.954-1.51-4.937m-21.44-4.638c0 5.35 3.117 9.252 7.61 9.252 3.942 0 6.095-2.455 6.095-7.803 0-5.94-3.3-9.22-7.242-9.22-3.53 0-6.463 2.6-6.463 7.772zm22.232.502c0 6.325-6.692 10.287-15.494 10.287-9.258 0-15.265-4.345-15.265-9.782 0-4.788 4.952-10.316 15.907-10.316 8.39 0 14.852 3.962 14.852 9.812m-31.867 5.086c0 3.192.367 3.4 3.53 3.576v1.153h-14.852v-1.154c3.162-.177 3.53-.384 3.53-3.576v-9.752c0-3.192-.368-3.4-3.53-3.576v-1.153h14.852v1.152c-3.163.177-3.53.384-3.53 3.576m-28.19 9.81c0 2.627 1.01 3.132 3.208 3.132 3.943 0 7.93-2.808 7.93-8.04 0-6.353-4.997-8.126-8.893-8.126-1.055 0-1.652.088-1.97.206-.23.06-.275.738-.275 1.478v11.35zm2.245-14.512c5.64 0 10.313.708 13.387 2.628 2.153 1.33 3.943 3.52 3.943 6.06 0 7.36-8.665 10.523-19.254 10.523H140.89v-1.154c3.345-.177 3.712-.383 3.712-3.575v-9.753c0-3.192-.367-3.4-3.346-3.576v-1.154m-16.967-.054v1.153c-3.026.177-3.393.384-3.393 3.576v6.03c0 4.195 2.29 6.59 6.37 6.59 4.677 0 7.243-2.6 7.243-7.477v-1.773c0-2.897-.18-4.523-.363-5.437-.233-1.036-1.47-1.42-4.493-1.508v-1.153h11.598v1.153c-2.203.06-3.396.472-3.625 1.508-.18.914-.367 2.54-.367 5.437v2.277c0 2.54-.73 5.23-3.297 7.063-2.02 1.42-5.502 2.215-8.71 2.215-3.3 0-6.417-.383-8.666-1.596-2.428-1.273-3.483-3.4-3.483-6.857v-6.472c0-3.19-.367-3.398-3.576-3.575v-1.153m-.237.036c.087 1.35.313 3.414.5 5.22l-2.016.09c-.688-1.778-1.193-2.544-1.878-3.046-.78-.534-2.294-.71-4.493-.71h-1.1v12.944c0 3.192.366 3.402 4.217 3.58v1.15H88.475v-1.15c3.667-.178 4.034-.388 4.034-3.58V199.17h-.78c-3.072 0-4.307.358-5.04.89-.552.442-1.103 1.212-1.7 2.867h-1.923c.158-2.124.36-3.89.48-5.31m-18.472 13.14c.964 1.715 3.668 4.995 8.16 4.995 2.383 0 4.218-1.003 4.218-2.927 0-1.743-1.743-2.775-4.584-3.545l-.69-.207c-3.804-1.094-8.022-2.66-8.022-5.82 0-3.343 3.76-6.06 10.956-6.06 1.422 0 2.887.118 4.217.354 1.057.177 1.79.295 2.384.413.183 1.154.504 2.602 1.01 4.61l-2.016.208c-1.01-1.95-2.612-4.048-6.237-4.048-2.335 0-3.987 1.15-3.987 2.57 0 1.478 1.743 2.366 4.722 3.192l1.01.295c4.217 1.212 7.84 2.75 7.84 6.207 0 3.634-4.54 6.295-11.645 6.295-1.835 0-3.713-.237-4.952-.502-1.373-.295-2.337-.535-2.887-.712-.366-1.356-.963-2.952-1.513-4.935M167.16 190.13H297.3v-.714H167.16v.714zm-163.903.013h130.14v-.713H3.257v.714zm159.504-1.772c-.474-1.436-1.792-1.73-2.82-1.73-1.682 0-3.078 1.143-3.078 3 0 1.69 1.048 3.268 3.234 3.268.397 0 .65-.088.65-.6v-1.045c0-.726-.063-.805-1.725-.89v-.488h5.294v.488c-.81.098-.872.13-.872.89v.785c0 .393.017.74.095.99-.983.186-2.267.435-3.582.435-3.788 0-6.04-1.403-6.04-3.624 0-2.49 2.884-3.776 6.26-3.776 1.222 0 2.474.187 3.028.285.05.37.128.934.256 1.98m-15.71 3.232c-.032 1.176.13 1.252 1.253 1.317v.423h-4.945v-.423c1.03-.065 1.157-.14 1.157-1.317v-3.592c0-1.173-.128-1.252-1.236-1.314v-.425h4.944v.426c-1.045.063-1.173.142-1.173 1.315v1.698a50.797 50.797 0 0 0 3.042-2.524c.223-.198.4-.414-.03-.447l-.602-.042v-.425h4.247v.426c-.9.063-1.393.12-2.22.673-.854.567-1.647 1.12-2.312 1.655a62.08 62.08 0 0 0 3.028 2.95c.855.782 1.14.89 1.793.946v.423h-3.648c-.603-.695-2.107-2.294-3.267-3.48h-.03m-10.602 1.24c.334.63 1.268 1.837 2.82 1.837.827 0 1.46-.37 1.46-1.075 0-.643-.603-1.027-1.586-1.308l-.236-.076c-1.318-.403-2.776-.98-2.776-2.143 0-1.23 1.3-2.232 3.788-2.232.492 0 1 .047 1.46.132.366.066.618.108.825.154.062.423.173.957.347 1.695l-.698.08c-.347-.718-.9-1.492-2.153-1.492-.81 0-1.38.423-1.38.947 0 .544.602.87 1.63 1.174l.352.107c1.455.45 2.707 1.012 2.707 2.287 0 1.337-1.568 2.317-4.026 2.317a8.24 8.24 0 0 1-1.714-.186 11.09 11.09 0 0 1-.996-.26c-.128-.5-.334-1.087-.524-1.817"/></svg>