<svg xmlns="http://www.w3.org/2000/svg" viewBox="0 0 1000 300"><path d="M318.1 127.7c10.7 0 19.4-8.7 19.4-19.4 0-10.69-8.7-19.39-19.4-19.39s-19.4 8.7-19.4 19.39c0 10.8 8.7 19.4 19.4 19.4zM958.3 194c-3-2.1-5-2.4-7 1.6-33 70.5-87.8 35.3-82.3 38.4 12.2-5.6 44.3-31.2 39.3-66.7-3-21.7-21.4-31.3-41.2-27.8-34.5 6-47.1 43.2-40.7 76.1 1.1 5.7 3.1 10.3 5.2 14.9-38.9 31.7-54.4-28.3-56.2-35.5-.1-.4 30.1-25.5 38.5-85.4 8.8-62.69-11.2-74.19-31.7-73.79-37.9.7-48.1 79.79-34.4 145.69-1.1.3-6.5 3.3-15.1 3.6-6.2-19.5-32.7-36.6-39.6-30-17.3 16.5 4.2 48.7 19.4 51.2-9.1 56.1-66.1 42.2-55.5-28.1 18.5-34.4 32.7-85.69 30.1-116.59-.9-10.9-9-25.6-27.3-24.9-35.2 1.4-39 80.49-34.9 136.69-.2-1.4-2.2 6.8-16.6 10.9-3.4-18.9-33.9-38-41.1-28.8-13.4 17.1 9.9 47.6 20.9 49.7-9.1 56.1-66.1 42.2-55.5-28.1 18.5-34.4 32.7-85.69 30.1-116.59-.9-10.9-9-25.6-27.3-24.9-35.2 1.4-39 80.49-34.9 136.69-.2-1.2-2.2 7.3-17.2 11.3-.5-24.6-31.1-35.8-38.5-28-13.1 14 3 42.7 17.9 49.7-9.1 56.1-66.1 42.2-55.5-28.1 18.5-34.4 32.7-85.69 30.1-116.59-.9-10.9-9-25.6-27.3-24.9-35.2 1.4-38 84.49-33.9 140.69-11.6 49.7-50.5 111.7-45.4-12.6.5-8.7 1-12-3.3-15.3-3.3-2.5-10.7-1.3-14.7-1.2-4.9.2-6.2 3.1-7.2 7.4-2.5 11.2-3 22.1-3.4 37-.2 7-.8 10.2-3.5 19.7s-17.9 26.8-26.3 23.9c-11.6-4-7.8-36.7-5.6-59.2 1.8-17.8-4-25.7-18.8-28.6-8.7-1.8-14-1.5-23-4.4-8.6-2.7-10.5-18.9-28.7-13.5-10 3-3.6 24.1-6 39.8-11.8 77.1-36.3 79.2-47.7 41.8C193.8 85.61 157.3 36.11 136 36.11c-22.2 0-47.58 15.3-36.88 113.29-5.2-1.5-6.8-2.3-12.6-2.3-32.4 0-54.5 26.2-54.5 58.5s22.1 58.5 54.5 58.5c19.08 0 32.48-8.7 42.68-22.1 6.6 9.5 14.7 22.3 29.5 21.7 44-1.7 56.8-92 58.3-97.1 4.7.7 9.2 2.1 13.5 2.8 7.2 1.1 7.8 4 7.6 11.2-1.9 61.4 9.4 82.9 35.1 82.9 14.3 0 27.1-14.1 35.9-24.1 6.6 13.6 17 23.7 31.1 24.1 34 .8 47.1-53.4 45.9-46.3-.9 5.6 11 45.9 46.1 46.1 43.4.2 51.5-47.5 52.4-55.5.1-1.6.2-1.4 0 0v.5c13.8-2.6 20.9-9.9 20.9-9.9s11.1 65.7 52 65c42.5-.8 50.6-43.9 51.6-52.3.1-2 .2-1.8 0 0v.2c16.4-6 20.7-11.9 20.7-11.9s8.8 64.4 52 65c38.5.5 52.8-39 52.9-55.5 6.5.1 18.5-3.9 18.2-4.1 0 0 14.1 56.3 53.5 59.2 18.5 1.4 32.4-10.4 40.3-15.8 18.6 15.1 80.6 34.3 119.6-32 6-9.5-6-20.7-8-22.2zM85.02 242.2c-18.9 0-31-17.5-31-36.3 0-18.8 11.1-36.3 30-36.3 8.5 0 13.2.9 19.88 6.7 1.2 4.7 4.6 15.6 6.3 20.6 2.2 6.6 4.9 12.3 7.5 18.4-3.8 15.7-16.3 26.9-32.68 26.9zm46.08-65.4c-.8-1.3-.6-.5-1.5-1.7-3.5-9.4-10.1-30.5-10.9-54.3-.9-26.99 3.6-58.69 16.9-58.69 9 0 18.5 64.19-4.5 114.69zm266-28.2c-2.1-16-2.2-87.49 14.9-85.59 9.5 3.9-6 71.39-14.9 85.59zm125.3 0c-2.1-16-2.2-87.49 14.9-85.59 9.5 3.9-6 71.39-14.9 85.59zm124.3 1c-2.1-16-2.2-87.49 14.9-85.49 9.5 3.8-5.9 71.29-14.9 85.49zM784 58.91c15.7-1.6 15 66.89-16.4 110.09-4.1-15.6-10.3-104.69 16.4-110.09zm65.9 147.39c-5-25.5 8-42.2 21.4-44 4.7-.8 11.5 2.3 12.8 8 2.2 10.7-.3 26.6-30.4 46.7.2.2-2.6-5-3.8-10.7z"/></svg>