<svg xmlns="http://www.w3.org/2000/svg" viewBox="0 0 557.5 212.5"><path d="M476.5 82.78l13.6 26.02-15.7 27.2h12.9l8.9-16 7.9 16h16l-15.9-29.8L518 82.78h-12.8l-6.9 12.3-5.7-12.3h-16.1zm-21 9.18c4.6 0 6.2 3.67 6.2 17.34 0 14.2-1.9 17.4-6.2 17.4-4.4 0-6.3-3.3-6.3-17.4 0-13.02 1.5-17.34 6.2-17.34h.1zm0-10.35c-15.9 0-21.7 11.11-21.7 27.69 0 17.1 6.3 27.8 21.6 27.8 15.6 0 21.8-10.8 21.8-27.8 0-16.58-6-27.69-21.7-27.69m-53.8 19.99c0-2.74 0-5.45 1.8-7.49 1-1.41 2.7-2.26 4.7-2.26 4.3 0 6.5 3.56 6.5 17.55 0 13.7-2.1 17.4-6.8 17.4-6.2 0-6.2-6.9-6.2-13v-12.2zm-14.6-37.54V136h8.8c1.1-3.8 1.7-4.9 2.8-6.9 1.3 2.6 3.8 8 12.2 8 2.9 0 5.8-.6 8.7-2.1 9.7-5.1 10.4-21.1 10.4-26 0-12.85-4.2-26.96-17.1-26.96-6.5 0-9.4 3.45-11.2 5.71V64.06h-14.6zm-32.6 40.04c0-4.72 0-12.25 6.8-12.25 5.6 0 6 7.42 6 16.85 0 11.2-.5 17.7-6.6 17.7-6.2 0-6.2-4.5-6.2-12.1v-10.2zm-14.6-21.32v71.12h14.6v-21.8c1.7 1.6 4.3 4.5 10.2 4.5 17 0 17.9-20.4 17.9-27.9 0-8.98-1.6-17.29-6.9-22.58-2.6-2.58-6.4-4.1-10-4.1-7.3 0-10.2 5.29-12 8.74v-7.98h-13.8zm-26 9.18c4.6 0 6.2 3.67 6.2 17.34 0 14.2-1.9 17.4-6.2 17.4-4.4 0-6.3-3.3-6.3-17.4 0-13.02 1.5-17.34 6.2-17.34h.1zm0-10.35c-15.8 0-21.6 11.11-21.6 27.69 0 17.1 6.2 27.8 21.5 27.8 15.6 0 21.8-10.8 21.8-27.8 0-16.58-5.9-27.69-21.7-27.69M262 82.78V136h14.8v-23c0-4.1 0-16.42 10.9-16.42.6 0 1.2 0 2.5.22V82.35c-.7-.22-1.5-.33-2.6-.33-8.6 0-11.2 9.07-12.5 13.6V82.78H262zm-40-6.3h2.8c6.3 0 15 .69 15 22.85 0 23.47-8.8 24.27-15 24.27H222V76.48zM206.3 136h18.9c5.5 0 13.2 0 19.6-5 7.7-5.9 11.7-18 11.7-31.45 0-35.36-22.3-35.49-33.2-35.49h-17V136zM116 117.2l-28.67 23.9-12.28-8v8.9L116 166.6l41-24.6v-8.9l-12.3 8-28.7-23.9zm69.4-53.14l-40.8-26.78-28.7 24.02 41.3 25.4 28.2-22.64zm-69.5 48.04l28.7 23.9 40.8-26.7-28.2-22.65-41.3 25.45zm-69.42-2.8L87.33 136l28.57-23.9-41.13-25.45-28.29 22.65zm40.85-72.02L46.48 63.92l28.29 22.7 41.13-25.46-28.57-23.88z"/></svg>
