<svg xmlns="http://www.w3.org/2000/svg" viewBox="0 0 1000 1000"><path class="only-light-background" d="M469.943 64.388c-2.445 41.606-19.65 84.518-57.105 106.228-54.317 38.06-120.052 59.168-166.843 107.994-102.367 92.594-140.81 246.03-97.246 376.48 49.41 156.98 214.375 263.628 377.315 251.876 142.93-5.64 281.084-101.064 324.385-239.534 45.804-138.456 5.34-302.09-104.7-399.223-48.067-47.733-111.985-71.904-171.212-101.86-42.886-24.167-72.576-65.77-104.595-101.962zm-44.037 482.437c72.884-1.48 125.277 55.183 184.957 87.512 37.868 18.66 72.753-16.55 103.125-34.607 30.826-18.966 70.886-57.656 107.535-29.34 36.042 37.177 20.88 95.753 4.103 138.42-12.832 34.797-57.27 78.32-90.847 39.263-32.567-26.238-56.14-68.334-98.474-79.395-48.89 6.877-86.976 43.14-130.21 64.564-49.26 29.977-111.69 46.202-166.858 23.107-59.764-27.09-60.787-112.904-21.12-157.61 25.874-32.212 66.494-51.68 107.788-51.915zM608.754 725.51c30.412-9.722 80.4 22.842 57.61 52.836-16.8-19.18-49.8-44.015-82.25-23.76-12.35 8.782-51.895 45.397-43.323 8.452 17.958-18.55 40.446-38.355 67.964-37.53zm77.14 86.786c17.597 31.707-50.79 45.304-74.752 51.964-49.32 4.943-106.58 9.418-147.055-24.987-6.89-46.856 46.398 1.36 70.048-.41 51.466 6.977 107.36 2.458 151.76-26.567z"/></svg>