<svg xmlns="http://www.w3.org/2000/svg" viewBox="0 0 1011.8 417.26"><path d="M911.26 358.59c0-14.41 11.77-26.21 27.5-26.21 14.4 0 26.2 11.8 26.2 26.21 0 15.7-11.79 27.5-26.2 27.5-15.73 0-27.5-11.78-27.5-27.5zm49.75 0c0-11.78-10.48-22.27-22.25-22.27-13.09 0-22.26 10.47-22.26 22.27 0 11.79 9.17 22.27 22.26 22.27 11.8 0 22.25-10.48 22.25-22.27zm-28.79 1.31v14.41h-3.93v-31.43h9.18c6.53 0 11.77 1.31 11.77 7.86 0 3.93-1.3 6.55-6.53 7.86 5.24 1.32 5.73 2.49 6.53 6.55.51 2.57.87 6.1 1.32 9.16h-6.55c-.21-2.65-.32-5.54-.61-7.94-.67-5.63-2.31-5.63-7.25-6.47zm5.25-3.95c5.24 0 6.53-2.61 6.53-5.23 0-2.61-1.29-3.93-5.24-3.93h-6.54v9.16zm-430.9 19.66c269.8 0 464.94-65.48 464.94-167.63-.01-100.85-195.13-166.33-464.94-166.33V22c280.27 0 483.27 73.34 483.27 185.97 0 113.95-203 187.29-483.28 187.29zm0-333.96c-269.79 0-464.93 65.48-464.93 166.33 0 102.15 195.14 167.63 464.93 167.63v19.65C226.31 395.26 22 321.91 22 207.98 22 95.34 226.31 22 506.57 22zM184.4 170v-27.5c0-5.25-3.93-10.48-10.47-7.86-5.25 2.61-20.95 7.86-30.13 13.09v22.25h-27.5V132c18.34-11.77 47.14-23.57 60.25-27.48 14.4-5.233 35.35 2.61 35.35 24.88V170zm27.5 0v117.88c0 18.34-15.7 31.43-30.12 26.18-15.7-5.23-48.45-17.02-65.49-28.8V170h27.5v100.84c9.18 2.63 19.65 7.86 27.5 11.79 10.48 2.63 13.09-1.31 13.09-7.86V170zM342.86 69.14v239.68c0 36.66-24.89 36.66-51.09 32.74-26.19-5.24-49.77-7.86-49.77-40.61V87.49l26.2-6.54v217.4c0 11.8 11.78 13.1 23.57 15.71 11.79 1.32 23.59 3.93 23.59-10.48V73.09zm356.23 273.74c-10.47 2.61-15.71 2.61-27.5 5.24V70.46c11.79 1.31 18.35 1.31 28.83 3.93l45.83 168.95V80.93c11.76 2.62 17.01 3.93 27.5 6.55v243.59c-10.49 2.63-18.34 2.63-28.79 5.25l-45.87-161.09zm167.64-41.93c-9.16 3.93-15.71 6.55-26.18 10.48V134.64c-13.09-5.25-26.18-9.17-37.98-11.8v-27.5c48.45 11.78 73.34 24.89 100.84 41.91V170c-9.17-7.85-22.28-15.71-36.68-22.26zM409.66 170V65.22c18.33-2.61 47.14-3.93 73.34-3.93 13.09 0 30.12 6.55 30.12 30.12v78.57h-28.81V95.34c0-5.25-2.63-6.55-5.25-6.55-2.63 0-39.29 1.32-41.9 1.32V170zm103.46 0v66.79c0 27.5-23.58 34.05-40.6 34.05h-35.36v83.81c-5.25 0-20.96-1.31-27.5-1.31V170h27.5v73.34h36.67c6.55 0 10.48-1.32 10.48-11.8V170zm129.64 0h-27.5v-65.48c0-13.09-11.78-14.41-23.55-14.41-10.48-1.32-23.58 0-23.58 14.41V170h-27.5V96.66c0-31.44 24.88-35.37 51.09-34.05 26.19 1.31 51.08 6.55 51.08 37.98V170zm0 0v145.38c0 32.74-24.87 37.98-51.06 39.27-26.2 1.32-51.09-2.61-51.09-34.04V170h27.5v142.75c0 14.4 13.09 15.7 23.58 15.7 11.76-1.31 23.56-2.61 23.56-15.7V170z"/></svg>