<svg xmlns="http://www.w3.org/2000/svg" viewBox="0 0 316.556 146.358"><path d="M43.003 34.356c-21.145 0-38.766 8.97-38.766 36.036 0 21.442 11.85 34.944 39.312 34.944 32.325 0 34.397-21.294 34.397-21.294H62.284s-3.358 11.466-19.69 11.466c-13.302 0-22.87-8.986-22.87-21.58h59.862v-7.904c0-12.46-7.91-31.668-36.583-31.668zm-.546 10.1c12.662 0 21.295 7.758 21.295 19.384h-43.68c0-12.343 11.266-19.383 22.385-19.383z"/><path d="M79.575 8.148v83.597c0 4.745-.34 11.408-.34 11.408h14.94s.536-4.785.536-9.16c0 0 7.382 11.55 27.452 11.55 21.135 0 35.49-14.675 35.49-35.696 0-19.557-13.186-35.285-35.456-35.285-20.854 0-27.334 11.26-27.334 11.26V8.15H79.575zM118.34 44.9c14.353 0 23.48 10.652 23.48 24.946 0 15.328-10.54 25.355-23.377 25.355-15.317 0-23.58-11.96-23.58-25.218 0-12.354 7.414-25.08 23.477-25.08z"/><path d="M194.78 34.356c-31.81 0-33.85 17.42-33.85 20.202h15.833s.83-10.17 16.926-10.17c10.458 0 18.563 4.788 18.563 13.992v3.276H193.69c-24.646 0-37.675 7.21-37.675 21.84 0 14.398 12.038 22.232 28.307 22.232 22.172 0 29.314-12.25 29.314-12.25 0 4.87.375 9.674.375 9.674h14.077s-.546-5.952-.546-9.76V60.48c.002-21.582-17.406-26.124-32.76-26.124zm17.474 37.13v4.366c0 5.697-3.516 19.86-24.212 19.86-11.333 0-16.192-5.655-16.192-12.216 0-11.935 16.363-12.01 40.404-12.01z"/><path d="M219.015 37.088h17.813l25.565 51.217L287.9 37.088h16.137l-46.46 91.184h-16.926l13.407-25.42-35.042-65.764z"/></svg>