<svg xmlns="http://www.w3.org/2000/svg" viewBox="0 0 513.9 154.3"><path d="M491.9 75.14v4.98H445c.4 7.03 2.5 12.37 6.3 16.05 3.8 3.67 9.1 5.53 15.8 5.53 4 0 7.8-.5 11.4-1.5 3.7-.92 7.4-2.36 11-4.28v9.68c-3.7 1.5-7.4 2.7-11.3 3.5-3.8.8-7.7 1.2-11.7 1.2-9.9 0-17.7-2.8-23.5-8.6-5.8-5.78-8.7-13.57-8.7-23.4 0-10.16 2.8-18.22 8.3-24.19 5.5-5.97 12.9-8.95 22.2-8.95 8.3 0 14.9 2.69 19.8 8.06 4.8 5.37 7.3 12.68 7.3 21.92m-10.2-3c-.1-5.57-1.7-10.03-4.7-13.35-3.1-3.33-7.1-4.99-12.1-4.99-5.7 0-10.3 1.61-13.7 4.82-3.4 3.22-5.4 7.74-5.9 13.58l36.4-.1zm-54-23.66v9.64c-2.9-1.47-5.9-2.58-9-3.32-3.1-.74-6.3-1.11-9.6-1.11-5.1 0-8.9.78-11.4 2.33s-3.8 3.88-3.8 6.98c0 2.36.9 4.22 2.7 5.57 1.8 1.35 5.5 2.63 10.9 3.85l3.5.78c7.3 1.55 12.4 3.74 15.5 6.57 3 2.82 4.5 6.77 4.5 11.83 0 5.76-2.2 10.3-6.8 13.7-4.6 3.3-10.8 5-18.8 5-3.3 0-6.8-.3-10.4-.9-3.6-.7-7.4-1.7-11.4-2.9V95.92c3.8 1.96 7.5 3.43 11.1 4.38 3.7 1 7.3 1.5 10.9 1.5 4.8 0 8.5-.8 11.1-2.47 2.6-1.65 3.9-3.97 3.9-6.96 0-2.77-1-4.89-2.8-6.37-1.9-1.48-6-2.9-12.3-4.27l-3.6-.83c-6.3-1.33-10.8-3.37-13.6-6.12-2.9-2.76-4.3-6.53-4.3-11.34 0-5.84 2.1-10.34 6.3-13.52 4.1-3.18 10-4.77 17.6-4.77 3.7 0 7.3.28 10.6.83 3.3.56 6.4 1.39 9.2 2.5m-93.2 50.93v32.89h-10.3V46.65h10.3v9.42c2.1-3.69 4.8-6.44 8.1-8.23s7.2-2.69 11.7-2.69c7.6 0 13.7 3 18.4 8.98 4.7 5.99 7.1 13.86 7.1 23.61 0 9.76-2.4 17.63-7.1 23.66-4.7 5.9-10.8 8.9-18.4 8.9-4.5 0-8.4-.9-11.7-2.7-3.3-1.7-6-4.5-8.1-8.19m34.7-21.67c0-7.5-1.6-13.38-4.7-17.65-3-4.27-7.3-6.4-12.7-6.4-5.4 0-9.6 2.13-12.7 6.4-3.1 4.27-4.6 10.15-4.6 17.65 0 7.5 1.5 13.39 4.6 17.65 3.1 4.27 7.3 6.41 12.7 6.41 5.4 0 9.7-2.14 12.7-6.41 3.1-4.26 4.7-10.15 4.7-17.65m-67.6-31.09h10.2v62.05h-10.2V46.65zm-23-24.16h10.2v86.21h-10.2zm-9.2 26.55v9.53c-2.9-1.59-5.8-2.78-8.7-3.58-2.9-.79-5.8-1.19-8.8-1.19-6.6 0-11.8 2.1-15.4 6.29-3.7 4.19-5.5 10.08-5.5 17.65 0 7.57 1.8 13.46 5.5 17.65 3.6 4.2 8.8 6.31 15.4 6.31 3 0 5.9-.4 8.8-1.2 2.9-.8 5.8-1.99 8.7-3.58v9.38c-2.9 1.4-5.8 2.4-8.9 3-3 .7-6.3 1-9.7 1-9.4 0-16.8-2.9-22.3-8.8-5.5-5.86-8.3-13.78-8.3-23.76 0-10.12 2.8-18.08 8.4-23.88 5.5-5.8 13.2-8.71 22.8-8.71 3.2 0 6.3.33 9.2.98 3 .64 5.9 1.61 8.8 2.91m-52.9 26.1v4.98h-46.9c.4 7.03 2.5 12.37 6.3 16.05 3.8 3.67 9.1 5.53 15.8 5.53 4 0 7.8-.5 11.4-1.5 3.7-.92 7.4-2.36 11-4.28v9.68c-3.7 1.5-7.4 2.7-11.3 3.5-3.8.8-7.7 1.2-11.7 1.2-9.9 0-17.7-2.8-23.5-8.6-5.8-5.78-8.7-13.57-8.7-23.4 0-10.16 2.8-18.22 8.3-24.19 5.4-5.97 12.8-8.95 22.2-8.95 8.3 0 14.9 2.69 19.8 8.06 4.8 5.37 7.3 12.68 7.3 21.92m-10.2-3c-.1-5.57-1.7-10.03-4.7-13.35-3.1-3.33-7.1-4.99-12.1-4.99-5.7 0-10.3 1.61-13.7 4.82-3.4 3.22-5.4 7.74-5.9 13.58l36.4-.1zM301.6 22h10.2v12.91h-10.2zM30.53 77.17c0-25.83 19.39-47.29 44.63-51.06-.63 0-1.26-.1-1.89-.1C44.96 26.06 22 48.94 22 77.17c0 28.23 22.95 51.13 51.27 51.13.63 0 1.26-.1 1.89-.1-25.23-3.8-44.63-25.2-44.63-51.03zm98.77-14.11c-2.2-7.63-6.4-14.48-12.4-20.54-7.6-7.61-16.5-12.18-26.65-13.72-2.57-.38-5.21-.59-7.94-.59-13.5 0-25.05 4.77-34.65 14.31-6.02 6.06-10.14 12.91-12.35 20.54M33.44 79.9c.1 2.02.31 3.98.63 5.9h96.53c.3-1.92.5-3.88.6-5.9M42.82 68.53h-8.75a51.44 51.44 0 0 0-.63 5.9h97.76c-.1-2.01-.3-3.98-.6-5.9M52.05 91.27H35.31c2.22 7.61 6.33 14.43 12.35 20.43 9.61 9.6 21.15 14.4 34.65 14.4 2.7 0 5.32-.2 7.86-.6 10.13-1.5 19.03-6.1 26.73-13.8 6-6 10.2-12.82 12.4-20.43H52.05z"/></svg>