<svg xmlns="http://www.w3.org/2000/svg" viewBox="0 0 170.34041 120.18078"><path d="M127.938 96.89l.023-1.292 1.54-.023 1.538-.023.26-.244.262-.243v-1.822c0-1.75-.027-2.09-.167-2.09-.035 0-.203.227-.374.504-.455.736-.958 1.345-1.265 1.533-.225.137-.43.164-1.224.164h-.954l.024-1.447.023-1.447.317-.11c.82-.28 1.39-1.008 2.45-3.124.417-.833.847-1.654.955-1.825.188-.296.193-.347.114-1.11-.046-.44-.064-.942-.042-1.117l.04-.317h-1.79c-.985-.002-1.877-.025-1.982-.053-.186-.05-.19-.08-.19-1.227V80.4h3.98v-1.693h3.132v.28c0 .476.234 1.11.506 1.37.213.204.328.246.68.246.5 0 .502-.044-.045 1.062-.256.516-.486.846-.755 1.083-.387.34-.387.342-.387.902v.56h.725c.713 0 .725.004.668.19-.11.364-1.075 2.394-1.212 2.55-.123.14-.142.682-.18 4.96l-.042 4.802-.223.336c-.288.435-1.014.823-1.87 1-.484.098-1.154.133-2.605.133h-1.953l.023-1.29zM23.864 91.885c0-7.21.11-6.49-.985-6.49-.413 0-.715-.04-.777-.102-.07-.068-.102-.463-.102-1.22v-1.12l.276-.058c.844-.18 1.284-.722 1.962-2.424.253-.636.55-1.293.657-1.46l.196-.303 1.63-.002h1.63v.278c0 .176-.247.783-.676 1.658l-.678 1.38v16.072h-3.132v-6.21zm72.023 6.154c-.03-.03-.057-2.832-.057-6.223V85.65h-3.725v-2.54h1.854c2.043 0 1.955.025 1.955-.55 0-.575.088-.55-1.956-.55h-1.855v-2.371h3.537c3.956 0 3.834.017 4-.597l.09-.336h2.787v1.08c0 .92-.026 1.12-.166 1.35-.29.474-.88.683-2.21.78-.492.038-1.007.12-1.143.187-.226.108-.248.158-.248.54v.424l1.75.023c2.235.03 2.146-.11 1.11 1.734l-.465.826H98.88v.307c0 .458-.24 8.922-.297 10.5-.038 1.038-.025 1.377.053 1.403.057.02.075.08.04.135-.066.11-2.682.15-2.79.045zm49.727-.073c-.915-.205-1.487-.545-2.303-1.37-.405-.41-.817-.85-.916-.978-.098-.13-.21-.233-.246-.233-.037 0-.52.46-1.073 1.023-.554.563-1.197 1.134-1.43 1.27l-.423.245h-1.587l-1.588.002V95.514l.466.03c.756.046 1.41-.313 2.413-1.324.45-.453.924-.968 1.056-1.144l.24-.32-.212-.23c-.506-.552-2.886-3.826-3.005-4.134-.037-.098.228-.118 1.562-.118h1.606l.516.624c.644.78 1.252 1.41 1.36 1.41.098 0 .98-1.124 1.598-2.033l.43-.635-3.74-.043-3.74-.042V85.1l1.99-.043 1.99-.042.014-.847c.008-.465.036-.95.06-1.073.044-.22.03-.23-.43-.287-.26-.032-1.135-.04-1.943-.02l-1.47.042V80.32l1.883-.024 1.884-.022v-1.652h3l.023.826.025.826 2.274.022 2.273.023-.06.4c-.085.575-.428 1.245-.79 1.544-.47.39-.987.507-2.227.507-.594 0-1.177.04-1.297.084-.218.083-.218.083-.218 1.143v1.06H148.055l.06.555c.032.305.04.74.02.97-.08.837-.96 2.33-2.932 4.98-.566.76-1.03 1.43-1.03 1.487 0 .056.095.292.21.523.245.49.77.925 1.574 1.3.53.248 1.724.598 2.04.598.308 0 .192.537-.33 1.528-.268.508-.535.942-.592.965-.283.113-.968.115-1.462.004zm-87.735-.015l-.827-.032v-2.088l.334.01c.24.005.39-.047.543-.19.285-.268.39-.547.597-1.605l.177-.904 1.376-.023 1.376-.023v.297c0 .163-.096.748-.212 1.3-.335 1.585-.74 2.65-1.156 3.036-.23.212-.852.275-2.21.223zm5.814-.398c-.376-.393-.62-.93-.882-1.956-.175-.678-.38-2.45-.3-2.58.033-.053.526-.087 1.267-.087h1.21l.313.903c.484 1.403.922 1.892 1.69 1.892h.305v2.202H64.05l-.356-.374zm45.006-.804c0-1.313.016-1.28-.62-1.28-.195 0-1.074.096-1.954.213-.88.116-1.938.212-2.35.212h-.75v-2.447l.276-.04c.152-.022.847-.084 1.545-.137 1.305-.1 2.28-.243 3.28-.483l.572-.137.02-6.908.022-6.908 1.334-.023 1.333-.022v13.678l.722-.03c.398-.017.858-.005 1.024.026.37.07.37.078-.244 1.454-.42.943-.46 1-.73 1.056-.762.156-.94.584-.79 1.913.054.49.078.926.053.967-.025.04-.653.075-1.396.075h-1.35V96.75zm-38.424.963a3.59 3.59 0 0 1-.54-.306c-.767-.547-1.507-2.495-1.507-3.972v-.588h1.216c.886 0 1.242.03 1.307.108.05.06.203.497.34.972.413 1.422.71 1.768 1.503 1.74l.46-.017v2.192l-1.25-.003c-.895-.003-1.328-.04-1.53-.126zM28.238 97.7c-.03-.03-.056-.563-.056-1.183V95.39l2.857-.024 2.857-.022.026-.804c.015-.443.002-1.043-.028-1.334l-.054-.53h-5.32v-2.2h5.42v-2.54H28.18V85.65h5.758v-.877c0-.483-.025-1.054-.055-1.27l-.054-.393H28.52V80.74h5.582l.025-1.08.024-1.08.51-.028c.278-.015.973-.002 1.544.03l1.037.058v2.184h2.668c2.078 0 2.667.023 2.666.106-.002.117-.603 1.258-.96 1.82l-.226.36h-1.942c-1.067 0-1.954.028-1.97.063-.014.035-.014.607.003 1.27l.028 1.207h5.236v.263c0 .174-.18.562-.53 1.137l-.528.873-1.947.028c-1.53.022-2.003.056-2.203.156l-.254.128v2.2l2.69.022 2.687.022v.236c0 .137-.215.6-.51 1.1l-.51.863H39.57c-1.137 0-2.08.03-2.094.064-.015.036-.015.645 0 1.355l.03 1.292h2.702c1.796 0 2.704.03 2.704.087 0 .207-1.038 2.09-1.223 2.218-.11.078-13.374.086-13.452.008zm46.97-.024c-.685-.28-1.503-2.345-1.62-4.09l-.05-.74H76.28l.124.294c.067.162.122.383.122.493 0 .402.26 1.068.51 1.303.14.132.415.316.612.41l.36.17v2.2l-1.312.016c-.722.01-1.392-.016-1.49-.056zm16.897-1.352c0-1.11.01-1.183.172-1.235.407-.13.417-.202.557-4.412.073-2.183.147-4.017.165-4.076.023-.078.334-.105 1.177-.105h1.145l-.002.57c0 .315-.075 2.325-.164 4.467-.17 4.105-.23 4.582-.65 5.3-.312.537-.622.67-1.566.67h-.835v-1.18zm8.594 1.06c-.535-.237-.906-.886-1.048-1.83-.076-.505-.145-5.436-.11-7.978l.014-1.08h2.303l-.05.19c-.25.923-.258 1.166-.106 3.22.197 2.66.252 3.05.66 4.707.348 1.413.36 1.585.183 2.615l-.047.275-.774-.003c-.454-.002-.878-.05-1.027-.116zM57.052 91.11v-1.227h2.365l.302-.265c.564-.495 1.09-1.833 1.862-4.728.216-.81.43-1.542.475-1.627.074-.138.214-.153 1.388-.153 1.635 0 1.59-.043 1.27 1.24-.625 2.493-1.72 5.945-2.19 6.898-.282.574-.6.853-1.144 1.004-.167.047-1.21.086-2.316.086h-2.01v-1.227zm8.467-3.894v-5.122H57.053v-2.622l4.212-.023 4.212-.023.08-.36.08-.36h2.983l.08.36.08.36 4.55.022 4.55.02v.363c0 .29-.105.55-.53 1.29l-.532.928-3.93.023c-3.507.02-3.944.037-4.082.162-.145.13-.154.413-.154 5.12v4.983H65.52v-5.122zm7.408 4.75c-1.088-.415-.993-.273-1.763-2.633-.998-3.056-1.536-5.188-1.48-5.863l.026-.318h2.451l.192.34c.224.394.636 1.613 1.13 3.343.432 1.512.693 2.167.987 2.473l.225.237h3.186v.29c0 .185-.183.658-.51 1.312l-.512 1.022-1.71-.005c-1.574-.004-1.753-.02-2.22-.198zm32.078-.473c-.84-.34-1.898-2.71-1.925-4.32l-.01-.72 1.286-.022c1.477-.026 1.404-.064 1.503.786.128 1.103.384 1.775.772 2.03.23.15.89.153 1.242.004.137-.058.148.027.148 1.132v1.194l-1.418-.005c-.78-.002-1.5-.037-1.598-.077zm.085-6.18c-.86-.348-2.026-2.96-2.125-4.764l-.045-.827h1.228c.89 0 1.254.03 1.318.108.106.128.302.86.473 1.772.23 1.23.58 1.632 1.363 1.566.233-.02.49-.064.57-.098.138-.058.15.027.15 1.13v1.196l-1.376-.005c-.757-.002-1.457-.037-1.556-.077zM24.963 70.467c-1.043-.43-2.06-1.405-2.595-2.484l-.324-.656-.02-20.727L22 25.874l.177-.528c.408-1.22 1.437-2.47 2.436-2.962l.56-.275 16.634-.023c18.22-.024 17.07-.054 17.902.46.873.54 1.96 1.902 2.214 2.777.11.38.124 1.67.105 9.705l-.024 9.267-.29.59c-.432.888-1.426 1.85-2.413 2.336l-.755.372-11.268.043-11.267.042-.35.188a2.45 2.45 0 0 0-.614.505c-.546.66-.52.316-.516 6.432.002 6.357-.033 6.036.716 6.568.842.598.35.566 8.788.57 7.465.003 7.61 0 8.12-.172.287-.096.686-.29.89-.428.67-.463.655-.39.703-3.203l.043-2.5.272-.52c.695-1.33 2.39-2.417 3.77-2.417 1.467 0 3.232 1.117 3.9 2.468l.27.548.025 5.624c.026 6.25.037 6.096-.54 7.05-.422.697-1.335 1.52-2.118 1.906l-.66.326-16.64.02-16.642.02-.468-.194zm27.79-30.47c.166-.127.42-.41.565-.63l.265-.398v-8.5l-.34-.386a3.21 3.21 0 0 0-.862-.647l-.52-.26h-9.955l-9.956.002-.43.2c-.236.11-.552.347-.7.527-.505.61-.522.767-.52 4.937.002 3.546.012 3.795.166 4.134.22.486.58.946.89 1.135.244.15.683.155 10.675.135l10.422-.022.3-.23zM70.22 70.544c-.687-.218-1.286-.597-1.873-1.184-.656-.655-1.052-1.333-1.208-2.066-.07-.325-.096-6.097-.094-21.04.003-19.49.01-20.614.153-21.025.386-1.12 1.442-2.348 2.44-2.84l.575-.282h34.214l.567.28c1.064.523 2.062 1.678 2.485 2.88l.2.565.002 5.72c.002 4.98-.015 5.78-.133 6.18-.33 1.128-1.4 2.19-2.65 2.638-.626.224-1.815.246-2.465.047-1.02-.313-2.158-1.167-2.586-1.94l-.252-.452-.047-3.47c-.052-3.84-.074-4.01-.61-4.71-.23-.3-.358-.38-.823-.51-.517-.142-1.18-.152-10.838-.153-9.908 0-10.3.005-10.64.16-.45.204-1.015.767-1.22 1.22-.15.327-.16.61-.162 4.227-.002 3.235.02 3.925.124 4.176.297.71 1.566 1.79 4.82 4.102.88.626 1.89 1.41 2.244 1.74l.642.605.042 7.658.043 7.66.233.305c.143.187.454.414.802.586l.57.28 6.262.025c4.27.016 6.403-.005 6.706-.068.767-.16 1.363-.728 1.643-1.565.078-.236.117-.937.13-2.328.016-1.76.038-2.045.192-2.476a4.087 4.087 0 0 1 2.298-2.408c.478-.2.67-.23 1.44-.232 1.06-.004 1.59.16 2.48.767.714.487 1.106.93 1.447 1.64l.264.55V67.492l-.288.59c-.413.845-1.352 1.768-2.246 2.208l-.673.332-16.938.016c-13.53.012-17.006-.006-17.276-.093zm46.29-.047c-1.05-.38-2.208-1.39-2.697-2.356l-.245-.484V55.55l.207-.422c.44-.902 1.698-1.852 2.92-2.204 1.632-.472 3.952.666 4.737 2.324l.264.557.026 2.366.026 2.367.29.394a3.2 3.2 0 0 0 .613.62l.325.224H134.322l.345-.295c.19-.164.483-.504.65-.756l.306-.46V48.986l-.345-.375c-.19-.205-.543-.5-.783-.653l-.436-.28-8.768-.042-8.77-.043-.662-.327c-.876-.433-1.724-1.254-2.08-2.016l-.256-.55.022-9.9.022-9.898.23-.49c.455-.97 1.57-1.744 3.157-2.187.628-.176.886-.192 3.556-.22 1.584-.015 7.756 0 13.717.037l10.837.066.55.296c1.043.56 2.15 1.873 2.543 3.013.156.454.167.723.166 4.26 0 4.01-.018 4.214-.42 5.002-.45.874-1.7 1.81-2.72 2.034-.728.16-2.062.08-2.532-.152-.698-.346-1.724-1.148-2.008-1.57-.392-.587-.445-.872-.446-2.394 0-1.13-.028-1.444-.166-1.844-.2-.584-.536-1.066-.927-1.334l-.292-.2-7.69-.023c-7.532-.022-7.697-.02-8.02.146-.394.2-1.11.8-1.253 1.052-.077.134-.103 1.28-.106 4.548l-.002 4.37.19.287c.108.162.377.38.615.5l.423.21 10.88.043 10.88.043.456.194c1.455.618 2.643 1.95 3.016 3.38.192.74.19 22.52-.004 23.26-.33 1.265-1.36 2.505-2.55 3.073l-.665.32-14.013.017c-13.575.018-14.027.014-14.458-.142z"/></svg>