<svg xmlns="http://www.w3.org/2000/svg" viewBox="0 0 200 118"><path d="M193.52 6.49c-2.03 0-3.66 1.58-3.66 3.56 0 2.02 1.62 3.6 3.66 3.6 2.07 0 3.65-1.58 3.65-3.6 0-1.98-1.58-3.56-3.65-3.56zm0 .72c1.58 0 2.73 1.28 2.73 2.86 0 1.56-1.15 2.82-2.71 2.82-1.61 0-2.78-1.26-2.78-2.84 0-1.56 1.17-2.85 2.76-2.84zM6.12 8.23v81.21h47.01V74.6H24.41V56.02h26.56V41.18H24.41V23.12h28.54V8.23zm49.54 0v81.21h28.77c13.1 0 23.59-3.77 31.46-11.32 7.88-7.56 11.81-17.65 11.81-30.3 0-26.4-14.43-39.59-43.27-39.59zm74.74 0v81.21h31.2c9.21 0 16.48-2.18 21.8-6.54 5.33-4.36 7.99-10.26 7.99-17.7 0-5.1-1.72-9.42-5.18-12.97-3.45-3.55-8.06-5.68-13.84-6.4v-.23c4.6-1.29 8.39-3.57 11.35-6.86 2.96-3.28 4.45-7.11 4.45-11.49 0-6.04-2.44-10.72-7.31-14.04-4.87-3.32-11.84-4.98-20.9-4.98zm63.1.02c-.59 0-1.04.04-1.37.11v3.55h.83v-1.44h.39c.45 0 .63.18.73.57.11.41.17.74.28.87h.89c-.1-.13-.15-.35-.26-.89-.11-.48-.3-.74-.65-.87v-.04c.43-.13.74-.43.74-.82 0-.35-.16-.63-.35-.78-.25-.15-.56-.26-1.23-.26zm-.1.59c.52 0 .76.22.76.54 0 .37-.37.52-.83.52h-.39V8.88c.1-.02.24-.04.46-.04zM148.69 21.7h6.85c8.91 0 13.37 2.98 13.37 8.95 0 3.21-1.09 5.73-3.26 7.56-2.17 1.84-5.14 2.75-8.92 2.75h-8.04V21.71zm-74.74 1.43h8.95c8.08 0 14.36 2.21 18.83 6.65 4.47 4.43 6.71 10.52 6.71 18.26 0 8.19-2.26 14.66-6.77 19.42-4.51 4.76-10.73 7.14-18.66 7.14h-9.06zm74.74 31.42h10.03c4.22 0 7.52.93 9.88 2.78 2.36 1.85 3.54 4.39 3.54 7.64 0 3.4-1.2 6.08-3.6 8.04-2.4 1.97-5.71 2.95-9.94 2.95h-9.91zm-12.35 43.07c-.87 0-1.68.09-2.46.28-.77.18-1.45.47-2.04.87-.59.4-1.05.9-1.39 1.51-.34.61-.52 1.34-.52 2.19 0 1.09.31 2.01.94 2.78.62.77 1.57 1.42 2.85 1.95.5.2.97.41 1.4.6.43.2.81.41 1.12.62.32.21.57.44.75.69.18.25.28.53.28.85 0 .24-.1.46-.17.66-.12.21-.29.38-.52.53-.23.15-.52.25-.86.35-.35.12-.75.12-1.22.12a6.8 6.8 0 0 1-2.34-.42c-.77-.28-1.49-.7-2.15-1.25v3.61c.6.3 1.3.53 2.08.68.81.13 1.66.23 2.56.23.87 0 1.7-.1 2.49-.25.79-.17 1.48-.45 2.07-.83a4.29 4.29 0 0 0 1.4-1.5c.35-.61.52-1.38.52-2.29 0-.66-.1-1.24-.29-1.74-.19-.5-.48-.94-.85-1.33-.38-.39-.82-.73-1.34-1.04-.52-.31-1.11-.6-1.76-.87-.48-.19-.91-.39-1.29-.57-.38-.19-.7-.38-.97-.57-.27-.2-.47-.4-.62-.62-.12-.21-.22-.46-.22-.73 0-.25.1-.48.2-.68.13-.2.31-.38.55-.52.23-.14.52-.23.86-.33.35-.12.73-.12 1.14-.12.3 0 .62.1.96.1.34 0 .68.11 1.02.21.35.1.68.22 1 .36.32.14.62.31.89.5v-3.41c-.55-.21-1.15-.37-1.81-.47-.66-.1-1.41-.15-2.26-.15zm-130.15.26v16.34h9.8v-3H9.87v-3.74h5.34v-2.98H9.87v-3.63h5.74v-2.99zm14.4 0v16.34h3.47v-8.97c0-1.18-.03-2.07-.09-2.64h.05c.15.3.42.75.82 1.35l6.73 10.26h3.71V97.88h-3.468v9.03c0 1.11.03 1.86.09 2.24h-.05c-.25-.44-.53-.89-.82-1.33l-6.48-9.94zm35.28 0v16.34h9.8v-3h-6.12v-3.74h5.34v-2.98h-5.34v-3.63h5.74v-2.99zm14.39 0v16.34h3.68v-6.25h.99c.23 0 .44 0 .63.14.2.1.38.23.56.41.18.18.35.39.53.64.18.26.36.54.55.86l2.54 4.2h4.23l-3.11-4.89c-.16-.25-.33-.5-.53-.77-.2-.26-.4-.5-.61-.73-.21-.23-.43-.43-.66-.6-.22-.17-.46-.27-.7-.37a6.06 6.06 0 0 0 1.51-.66c.45-.28.84-.61 1.16-1 .32-.38.57-.82.74-1.3.17-.48.26-1.01.26-1.58 0-2.96-1.98-4.44-5.94-4.44zm17.18 0v16.34h3.68v-5.63h1.75c1.97 0 3.55-.5 4.73-1.52 1.18-1.01 1.77-2.34 1.77-3.98 0-3.47-2.06-5.21-6.17-5.21zm15.84 0v16.34h3.67v-6.25h.99c.23 0 .43 0 .63.14.2.1.38.23.56.41.18.18.36.39.53.64.18.26.36.54.55.86l2.54 4.2h4.23l-3.08-4.89c-.16-.25-.34-.5-.53-.77-.19-.26-.39-.5-.61-.73-.21-.23-.43-.43-.66-.6a3.01 3.01 0 0 0-.71-.37 6.06 6.06 0 0 0 1.51-.66c.45-.28.84-.61 1.16-1 .32-.38.57-.82.74-1.3.16-.48.26-1.01.26-1.58 0-2.96-1.98-4.44-5.95-4.44zm16.49 0v2.85h1.37v10.64h-1.37v2.85h6.41v-2.85h-1.37v-10.64h1.37v-2.85zm25.9 0v16.34h9.8v-3h-6.12v-3.74h5.34v-2.98h-5.34v-3.63h5.74v-2.99zm14.4 0v16.33h5.79c2.64 0 4.74-.76 6.33-2.28 1.58-1.51 2.37-3.55 2.37-6.09 0-5.31-2.9-7.96-8.7-7.96zm18.99 0v16.28h6.26c1.85 0 3.31-.44 4.38-1.32 1.07-.88 1.61-2.06 1.61-3.56 0-1.02-.34-1.89-1.04-2.6-.69-.72-1.62-1.14-2.78-1.29.93-.26 1.7-.72 2.29-1.38.59-.66.89-1.43.89-2.31 0-1.21-.49-2.15-1.47-2.82-.98-.67-2.38-1-4.2-1zm-139.97.01v2.99h4.63v13.34h3.69v-13.34h4.66v-2.99zm143.64 2.7h1.38c1.79 0 2.69.6 2.69 1.8 0 .64-.21 1.15-.65 1.52-.44.37-1.04.55-1.8.55h-1.62zm-108.78 0h1.66c1.71 0 2.56.71 2.56 2.14 0 .68-.25 1.26-.73 1.72-.48.45-1.11.68-1.9.68h-1.59zm33 0h1.67c1.71 0 2.56.71 2.56 2.14 0 .68-.24 1.26-.73 1.72-.48.45-1.11.68-1.9.68h-1.6zm-15.83.1h1.45c1.95 0 2.93.84 2.93 2.52 0 1.71-.97 2.57-2.93 2.57h-1.45zm72.63.17h1.81c1.62 0 2.88.45 3.78 1.34.9.89 1.35 2.11 1.35 3.67 0 1.65-.46 2.95-1.37 3.91-.9.95-2.16 1.43-3.75 1.43h-1.82zm18.98 6.33h2.01c.86 0 1.52.19 1.99.56.48.37.71.88.71 1.54 0 .68-.24 1.22-.72 1.61-.48.39-1.15.59-2 .59h-1.99z"/></svg>