<svg xmlns="http://www.w3.org/2000/svg" viewBox="0 0 563.2 224.2"><path d="M114.5 12v142.2h20.2V12h-20.2zm207 46.2v48.7c.7 26.4 22.3 47.5 48.8 47.5 26.5 0 48.1-21.1 48.9-47.4V58.3h-20.1v48.1c0 .2 0 .3-.1.5-.7 15.2-13.3 27.4-28.7 27.4-15.4 0-27.9-12.1-28.7-27.3V58.2h-20.1zm-131 .2c-26.7 0-48.4 21.39-48.9 48 .5 26.6 22.2 48 48.9 48 15.8 0 29.8-7.5 38.8-19.1 8.9 11.6 23 19.1 38.8 19.1 10.7 0 20.6-3.5 28.8-9.3v67.1h20v-106c-.5-26.5-22.2-47.8-48.8-47.8-15.8 0-29.9 7.52-38.8 19.18-9-11.66-23-19.18-38.8-19.18zm281.2 0c-4.9 0-9.5.7-14 1.99C438 65.9 423.5 83.7 422.9 105c0 .5 0 .9-.1 1.4h.1c0 26.3 21.3 47.7 47.6 47.7 11.3 0 21.8-4.1 30-10.7v11h20.1v-48.2c-.7-26.5-22.3-47.8-48.9-47.8zm-413.28.79c-13.29 0-24.36 4.51-33.19 13.61C16.41 81.8 12 93.19 12 106.9c0 13.4 4.41 24.5 13.28 33.4 8.84 8.9 20.31 13.3 34.39 13.3 9.08 0 16.9-1.6 23.5-4.8 6.63-3.2 12.25-8.2 17.03-14.9l-19-8.9c-6.07 5.9-13.28 8.8-21.7 8.8-7.02 0-12.83-1.8-17.36-5.6-4.54-3.8-7.32-8.8-8.37-15.2h72.33l.1-4.4c0-14.81-4.5-26.8-13.33-35.8-8.83-9.1-20.32-13.61-34.45-13.61zm1.13 19.11c5.78 0 10.85 1.49 15.23 4.7 4.39 3.1 7.32 7.19 8.8 12.22H34.77c2.52-5.63 5.29-9.52 8.25-11.72 4.75-3.5 10.24-5.2 16.53-5.2zm130.95.2c15.5 0 28.3 12.37 28.7 27.9-.4 15.5-13.2 27.9-28.7 27.9-15.6 0-28.3-12.4-28.8-27.9.5-15.53 13.2-27.9 28.8-27.9zm77.6 0c15.5 0 28.1 12.29 28.7 27.6v1.9c-1.3 14.8-13.6 26.3-28.7 26.3-15.6 0-28.3-12.4-28.8-27.9.5-15.53 13.2-27.9 28.8-27.9zm203.6 0c11 0 20.6 6.2 25.4 15.37 1.9 3.75 2.9 8.03 2.9 12.53 0 16-12.9 28.8-28.8 28.8s-28.8-12.8-28.8-28.8c.4-15.53 13.7-27.9 29.3-27.9zm60.1 64.1v1.5h3.1v9.5h1.7v-9.5h3v-1.5h-7.8zm9.7 0v11h1.7v-7.4l2.6 5.4h1.2l2.5-5.4v7.4h1.7v-11h-1.7l-3.1 6.8-3.2-6.8h-1.7z"/></svg>