<svg xmlns="http://www.w3.org/2000/svg" viewBox="0 0 218 77"><path d="M197.54 8.91c6.43-5.98 12.1-3.83 14.09-1.84 1.99 1.99 3.3 6.35-1.37 11.03-2.31 2.3-7.06 5.97-7.06 5.97h7.36c.76-.15 2.11-2.78 2.6-3.52.31-.46.61-.31.61.31v7.81c-2.14-.16-14.85-.16-16.84-.16v-2.6c3.36-2.6 6.58-6.28 9.03-9.34 2.45-3.07 2.05-11.24-6.58-6.44-1.38.77-2.3 0-1.84-1.22m-4.29 21.29l.46-14.1c-6.29-.76-21.79-3.31-34.63 6.13-13.31 9.8-16.94 34.84.31 46.12 11.49 7.5 32.48 2.29 34.01 1.53.61-.31 1.38-.77 1.38-1.38 0-.62.15-13.18.15-13.79 0-.61-.92-.46-1.38.15-.45.62-2.81 9.6-5.05 10.73-4.94 2.49-16.69 4.07-22.83-8.43-4.04-8.23-4.16-19.38 1.68-29.56 6.08-10.59 17.47-7.55 18.85-6.74 2.6 1.53 4.2 4.92 5.36 9.19.46 1.68 1.54 1.38 1.69.15M65.13 16.1l22.21.47 17.01 34.92 17.62-34.46h15.01c1.23 0 5.98-.46 6.74-.62.77-.15.92 1.38.31 1.69-.62.3-7.97 3.37-8.73 4.44l4.44 42.59c.61 1.38 8.1 4.54 9.34 4.75.92.15.64 1.25.15 1.22-4.74-.3-26.17-.3-30.79 0-.46 0-2.39-.72-.3-1.38 2.45-.76 7.35-2.45 8.42-4.29l-3.06-37.07-21.14 42.74h-3.52L79.53 29.28l-3.37 35.85c1.38 2.75 7.82 3.98 8.58 4.29.76.3.76 1.44.15 1.38-4.59-.46-21.76-.16-23.58.15-.93.15-2.59-1.01-.47-1.69 6-1.89 7.97-.15 9.35-14.09l3.68-30.64c.45-5.05-5.97-5.67-8.89-6.74-.43-.16-.92-1.69.15-1.69m-59.28.31l47.64.16v14.09c.15.92-1.05.76-1.23-.15-.46-2.3-4.43-7.82-5.2-8.28H27.14v17.16h16.69c1.23-.46 3.19-3.82 4.45-7.2.46-1.22 1.39-.46 1.38-.15-.31 5.51-.23 15.61-.15 19.76 0 1.54-.77 1.99-1.23.61-.45-1.37-2.76-6.12-4.29-7.35H27.14v19.61h21.6c1.22-.92 4.39-7.84 4.75-9.65.15-.77 1.38-.77 1.38-.16V71.1l-33.86-.46c-6.89 0-8.58 0-15.16.62-1.08.1-1.06-1.49-.31-1.84 7.5-3.52 8.43-1.54 8.43-12.26V27.9c0-7.96-2.29-7.65-8.43-9.96-.64-.24-.3-1.37.31-1.53"/></svg>