<svg xmlns="http://www.w3.org/2000/svg" viewBox="0 0 1920 1080"><path d="M387.3 626.3c38.7 5.9 64.3 16.3 64.3 28.1s-25.6 22.2-64.3 28.2c51-5.3 85.8-15.9 85.8-28.2 0-12.2-34.8-22.8-85.8-28.1zM174 654.4c0-11.8 25.6-22.2 64.3-28.1-51.1 5.3-85.9 15.9-85.9 28.1 0 12.3 34.8 22.9 85.9 28.2-38.7-6-64.3-16.4-64.3-28.2zm268.6-30.5c29.8 8.1 48.1 18.8 48.1 30.7 0 24.8-79.7 44.8-178 44.8-98.2 0-177.9-20-177.9-44.8 0-11.9 18.3-22.6 48.1-30.7-44.3 8.5-72.5 21.2-72.5 35.5 0 25.4 90.6 46.1 202.3 46.1 111.8 0 202.4-20.7 202.4-46.1 0-14.3-28.2-27-72.5-35.5z" opacity=".5"/><path d="M1437 671v-20.6c0-3.7 0-6.3-1-7.8-2-1.5-3-2.2-6-2.2-2 0-4 .8-5 2.4-1 1.6-2 3.9-2 6.9V671h-7v-20.6c0-3.7-1-6.3-2-7.8s-3-2.2-5-2.2-4 .8-5 2.4c-1 1.6-2 3.9-2 6.9V671h-7v-36.5h7v3.5c1-1.4 2-2.4 4-3.2 1-.7 3-1.1 5-1.1s4 .5 6 1.4c1 .9 3 2.2 4 4 0-.8 1-1.6 2-2.2 0-.7 1-1.2 2-1.7s2-.8 3-1.1c1-.3 3-.4 4-.4 4 0 7 1.4 9 4.1 2 2.7 4 6.8 4 12.2v21zm-52-10.3c-1 2.4-2 4.4-4 6-1 1.7-3 2.9-5 3.8-2 .8-4 1.2-7 1.2-2 0-4-.4-6-1.3s-4-2.2-5-3.9c-1-1.6-3-3.6-3-6-1-2.3-2-4.9-2-7.7 0-3 1-5.7 2-8 0-2.4 2-4.4 3-6.1 2-1.6 3-2.9 5-3.7 2-.9 4-1.3 7-1.3 2 0 4 .4 6 1.4 2 .9 4 2.1 5 3.7 2 1.7 3 3.6 4 6 0 2.3 1 4.9 1 7.7 0 3.1-1 5.8-1 8.2zm-9-16.9c-1-2.2-4-3.3-7-3.3-2 0-5 1.1-6 3.3-2 2.2-2 5.2-2 8.8 0 4 0 7.1 2 9.2 2 2.1 4 3.2 7 3.2 1 0 2-.4 3-1 1-.7 2-1.5 3-2.6s2-2.4 2-3.9 1-3 1-4.7c0-3.8-1-6.8-3-9zm-28-1.7c-1-.4-2-.8-3-1-1-.2-2-.4-3-.4-2 0-4 .8-5 2.4-1 1.6-2 3.9-2 7V671h-7v-36.5h7v3.5c1-1.2 2-2.3 3-3.1 2-.8 4-1.2 5-1.2 2 0 3 .1 4 .4 1 .3 2 .6 3 1.1zm-32-15.3c-2 0-2 .2-3 .7 0 .5-1 1.5-1 2.8v4.2h7v6.7h-7V671h-7v-29.8h-5v-6.7h5v-4.8c0-1.7 0-3.1 1-4.2 0-1.2 1-2.2 2-2.9 1-.7 2-1.3 3-1.6 1-.3 2-.5 3-.5s2 .1 3 .2 2 .3 3 .5v6.3c-2-.5-3-.7-4-.7zm436 7.7c0 1.2-1 2.3-2 3.3-1 .9-2 1.6-3 2.2-1 .5-3 .8-4 .8-2 0-3-.3-4-.8-2-.6-3-1.3-4-2.2-1-1-1-2.1-2-3.3 0-1.3-1-2.7-1-4.2s1-2.8 1-4.1c1-1.3 1-2.4 2-3.3 1-1 2-1.7 4-2.2 1-.6 2-.8 4-.8 1 0 3 .2 4 .8 1 .5 2 1.2 3 2.2 1 .9 2 2 2 3.3 1 1.3 1 2.6 1 4.1 0 1.5 0 2.9-1 4.2zm-1-7.6c0-1.1-1-2-2-2.8-1-.8-2-1.4-3-1.9-1-.4-2-.6-3-.6s-3 .2-4 .6c-1 .5-2 1.1-2 1.9-1 .8-2 1.7-2 2.8-1 1-1 2.2-1 3.4 0 1.3 0 2.4 1 3.5 0 1 1 2 2 2.8 0 .7 1 1.4 2 1.8 1 .5 3 .7 4 .7s2-.2 3-.7c1-.4 2-1 3-1.8s2-1.8 2-2.8c0-1.1 1-2.2 1-3.5 0-1.2-1-2.4-1-3.4zm-4 3.2c-1 .5-1 .9-2 1.1l3 4.6h-3l-2-4.4h-2v4.4h-2v-11.4h5s1 .1 1 .2c1 .2 1 .4 1 .6 1 .3 1 .7 1 1.1 1 .4 1 1 1 1.6 0 .9-1 1.6-1 2.2zm-2-3.4c0-.3-1-.4-1-.4h-3v3.2h3s1-.1 1-.3c0-.3 1-.7 1-1.3 0-.5-1-.9-1-1.2zm-23 43.4c-1 .5-2 .9-3 1.2-1 .3-3 .5-4 .5-3 0-5-.8-6-2.4-2-1.6-2-4-2-7.3V641h-6v-6.5h6V624l7-3.7v14.2h9v6.5h-9v19.8c0 1.8 0 2.9 1 3.5 0 .6 1 .9 2 .9s2-.1 3-.4c1-.3 2-.7 3-1zm-35 .9v-3.6c-1 1.2-3 2.3-4 3.1-2 .8-4 1.3-6 1.3-1 0-3-.3-4-.7-2-.4-3-1.1-5-2.1-1-1-2-2.3-2-3.8-1-1.6-2-3.5-2-5.8 0-2 1-3.8 1-5.2 1-1.5 2-2.8 4-3.7 1-1 2-1.7 4-2.2 2-.5 4-.7 6-.7 3 0 6 .5 8 1.4v-2.7c0-2-1-3.5-2-4.6-1-1.1-3-1.6-5-1.6s-3 .2-5 .6c-1 .3-3 .9-4 1.7l-3-5.4c2-1.1 3-1.9 5-2.5 2-.5 5-.8 7-.8 4 0 8 1 10 3 3 2 4 5.1 4 9.2V671zm0-15.6c-1-.5-2-.9-3-1.2-2-.2-3-.4-5-.4-3 0-4 .5-6 1.5-1 1-2 2.3-2 4 0 1.8 1 3.2 2 4.3 1 1.2 3 1.7 5 1.7s4-.5 5-1.5c2-.9 3-2 4-3.2zm-40 15.6v-21.7h-22V671h-8v-48.7h8V642h22v-19.7h7V671zm-67 0v-3.5c-1 1.2-3 2.2-4 3-2 .9-4 1.3-6 1.3s-3-.4-5-1.1c-2-.8-3-2-5-3.5-1-1.6-2-3.6-3-6.1 0-2.5-1-5.5-1-9 0-3.1 1-5.8 2-8.1 0-2.3 1-4.3 3-5.8 1-1.5 3-2.7 4-3.4 2-.7 4-1.1 6-1.1s3 .4 5 1.3c2 .8 3 1.8 4 2.9V624l7-3.7V671zm0-25.9c0-.5-1-1.1-2-1.6 0-.6-1-1.1-2-1.5 0-.5-1-.9-2-1.2-1-.3-2-.4-3-.4-2 0-4 .9-5 2.8-2 2-2 4.9-2 8.7 0 4.7 0 8 2 10.1 1 2.1 3 3.1 6 3.1 1 0 3-.5 4-1.4 2-1 3-2 4-3.2zm-31 8.7v1.5h-24c0 1.7 0 3.2 1 4.5 0 1.2 1 2.3 2 3.1 1 .8 2 1.4 3 1.8 1 .4 2 .6 3 .6s3-.3 4-.8 3-1.2 4-2.1l4 4.6c-2 1.5-3 2.7-5 3.5-2 .8-5 1.3-8 1.3-2 0-4-.4-6-1.3-2-.8-3-2.1-5-3.7-1-1.6-2-3.6-3-6-1-2.3-1-5-1-8 0-3.1 0-5.9 1-8.2 1-2.4 2-4.4 3-6 2-1.6 3-2.8 5-3.6 2-.9 4-1.3 7-1.3 2 0 5 .5 6 1.5 2 .9 4 2.3 5 3.9 2 1.7 3 3.7 3 5.9 1 2.2 1 4.6 1 7v1.8zm-8-8c0-1.1-1-2.1-1-2.9-1-.9-2-1.5-3-2s-2-.7-4-.7-4 .8-6 2.4c-1 1.6-2 3.8-2 6.7h17c0-1.2-1-2.4-1-3.5zm-33 .5c-2 2.4-4 4-8 4.8l10 19.9h-8l-10-19.3h-11V671h-7v-48.7h21c2 0 4 .3 6 .8 2 .6 4 1.5 5 2.7 2 1.2 3 2.7 4 4.5 0 1.8 1 4 1 6.5 0 4-1 7.1-3 9.5zm-7-15.1c-1-1.4-3-2-6-2h-14v15.6h14c3 0 5-.6 6-1.9 2-1.3 3-3.2 3-5.9 0-2.5-1-4.5-3-5.8zm-70-165.3c-2-6.5-6-12.1-11-16.6-5-4.6-11-8.1-18-10.6s-15-3.7-24-3.7c-19 0-34 4.7-44 14.2-10 9.4-15 22.4-15 38.7V582.8c0 1.3 0 2.4 1 3 1 .7 2 1.1 4 1.4 1 .3 3 .5 6 .5s5-.2 7-.5c1-.3 3-.7 4-1.4 0-.6 1-1.7 1-3v-94.6c0-6.7 1-12.3 3-16.8s5-8.1 8-10.8c3-2.7 7-4.6 11-5.7 5-1.2 9-1.7 13-1.6 4-.1 8 .4 12 1.5 5 1.1 8 2.9 12 5.6 3 2.7 6 6.3 8 10.9 2 4.5 3 10.2 3 16.9v94.6c0 1.3 0 2.4 1 3 1 .7 2 1.1 4 1.4 2 .3 4 .5 7 .5s5-.2 6-.5c2-.3 3-.7 4-1.4 1-.6 1-1.7 1-3v-94.9c0-8.2-1-15.5-4-22zm292 39c0 4-1 6.9-3 8.5-2 1.7-4 2.6-7 2.6h-92c0 7.7 1 14.6 3 20.8 1 6.2 4 11.5 7 15.9 4 4.5 9 7.9 15 10.2 5 2.4 12 3.6 21 3.6 6 0 12-.6 18-1.6 5-1.1 9-2.4 13-3.7 4-1.4 7-2.5 9-3.6 3-1.1 5-1.6 6-1.6 0 0 1 .1 2 .5 0 .3 1 .9 1 1.6 0 .8 1 1.7 1 3v8.3c0 .9 0 1.8-1 2.5v2.2c-1 .6-1 1.1-2 1.7 0 .6-2 1.5-5 2.7-3 1.3-6 2.6-11 3.9-4 1.2-9 2.3-15 3.3s-12 1.5-19 1.5c-11 0-21-1.6-30-4.8-8-3.2-15-7.9-21-14.2-6-6.3-11-14.2-14-23.6-3-9.5-4-20.5-4-33.1 0-12 2-22.7 5-32.2 3-9.5 7-17.6 13-24.3 6-6.6 13-11.7 21-15.3 8-3.5 17-5.3 28-5.3s20 1.7 28 5.3c7 3.4 14 8.1 18 14.1 5 5.9 9 12.9 11 20.8 3 8 4 16.5 4 25.6zm-26-7.6c1-13.4-2-23.9-9-31.5-6-7.6-15-11.4-28-11.4-6 0-12 1.1-16 3.5-5 2.4-9 5.5-12 9.4-3 3.9-6 8.5-8 13.7-1 5.2-2 10.6-3 16.3zm-127 61.9v4.6c0 1.3 0 2.3-1 3.2 0 .9 0 1.7-1 2.4 0 .6-1 1.6-2 2.8-1 1.3-3 2.9-7 4.8-3 2-6 3.7-10 5.2s-8 2.7-13 3.6c-4 1-9 1.4-14 1.4-10 0-18-1.7-26-4.9-8-3.3-14-8.1-20-14.5-5-6.4-9-14.1-11-23.4-3-9.1-5-19.8-5-31.8 0-13.7 2-25.5 5-35.3 4-9.8 8-17.9 14-24.2 6-6.3 13-10.9 21-14 8-3 16-4.5 25-4.5 5 0 9 .4 13 1.2 4 .9 8 1.9 12 3.3 3 1.3 6 2.9 9 4.6 3 1.7 5 3.3 6 4.5 1 1.2 2 2.2 3 2.9 0 .7 0 1.6 1 2.6V461.6c0 4 0 6.9-1 8.5-1 1.6-2 2.3-3 2.3-2 0-4-.8-6-2.5s-4-3.6-7-5.7c-3-2-7-3.9-11-5.6-5-1.7-10-2.5-16-2.5-12 0-22 4.7-28 14.1-7 9.4-10 23.1-10 41 0 9 1 16.8 3 23.5 1 6.8 4 12.4 7 17 3 4.5 7 7.8 12 10.1 5 2.2 10 3.3 17 3.3 5 0 11-.9 15-2.8 4-1.8 8-3.9 12-6.1 3-2.1 6-4.2 8-6 2-1.8 4-2.7 5-2.7s1 .3 2 .6c0 .4 1 1.2 1 2.1 0 1 1 2.3 1 3.8v5.2zm-440-118.1v4.4c-1 .7-1 1.3-1 2.1l-47 132c-1 1.2-1 2-2 2.8-1 .7-2 1.3-3 1.7-1 .4-3 .6-5 .9-2 .1-5 .2-8 .2s-6-.1-8-.3c-2-.3-3-.6-5-1-1-.4-2-1-3-1.7 0-.7-1-1.6-1-2.6l-47.6-132.1c-.5-1.2-.8-2.3-1-3.2-.3-.9-.4-1.6-.4-2.1-.1-.5-.1-.8-.1-1.1 0-.9.2-1.6.6-2.2.3-.6 1.1-1.1 2.5-1.5 1-.3 2-.6 3-.7 2 0 4-.1 6-.1 3 0 6 .1 7 .2 2 .2 4 .5 5 .9s1 .9 2 1.5c0 .6 1 1.4 1 2.3l39 114.6 1 1.9v-1.9l39-114.6c0-.9 1-1.7 1-2.3 1-.6 2-1.1 3-1.5 1-.4 2-.7 4-.9 1-.1 4-.2 6-.2 3 0 5 .1 6 .1 2 .1 3 .4 4 .8s1 .9 2 1.5v2.1zm-146.5 68.3c0 11.2-1.6 21.7-4.5 31.2s-7.4 17.7-13.3 24.7c-6 6.8-13.4 12.2-22.3 16-8.9 4-19.2 5.9-31 5.9-11.4 0-21.3-1.7-29.8-5.1-8.5-3.4-15.6-8.4-21.3-14.9-5.6-6.4-9.9-14.3-12.6-23.6-2.8-9.3-4.2-19.8-4.2-31.5 0-11.3 1.4-21.8 4.4-31.3 2.9-9.5 7.4-17.7 13.3-24.6 5.9-6.9 13.3-12.3 22.1-16.1 8.9-3.8 19.3-5.7 31.1-5.7 11.4 0 21.4 1.7 29.9 5.1 8.4 3.4 15.6 8.3 21.2 14.9 5.7 6.4 9.9 14.3 12.8 23.6 2.7 9.2 4.2 19.7 4.2 31.4zM957 511c0-7.5-.6-14.6-2-21.3-1.5-6.7-3.7-12.6-7-17.6-3.2-5-7.6-9-13.1-12-5.5-2.9-12.3-4.4-20.5-4.4-7.6 0-14.2 1.4-19.6 4.1-5.5 2.6-9.9 6.4-13.5 11.3-3.5 4.9-6.1 10.7-7.8 17.4-1.7 6.7-2.6 14-2.6 21.9 0 7.6.7 14.8 2.1 21.5 1.4 6.7 3.7 12.5 7 17.6 3.3 4.9 7.6 8.8 13.1 11.8 5.5 2.9 12.4 4.4 20.6 4.4 7.5 0 14-1.4 19.5-4 5.5-2.7 10-6.5 13.5-11.3 3.6-4.8 6.2-10.6 7.9-17.3 1.7-6.6 2.4-14 2.4-22.1zm-319.7-6.1c0 4-1 6.9-3 8.5-2 1.7-4.3 2.6-6.9 2.6h-91.5c0 7.7.7 14.6 2.3 20.8 1.5 6.2 4.1 11.5 7.8 15.9 3.6 4.5 8.3 7.9 14.1 10.2 5.8 2.4 12.9 3.6 21.2 3.6 6.7 0 12.6-.6 17.7-1.6 5.2-1.1 9.7-2.4 13.5-3.7 3.7-1.4 6.8-2.5 9.3-3.6 2.4-1.1 4.3-1.6 5.5-1.6.7 0 1.4.1 1.9.5.6.3 1 .9 1.3 1.6.3.8.6 1.7.7 3 .2 1.3.3 2.9.3 4.7 0 1.4-.1 2.6-.2 3.6-.1.9-.2 1.8-.4 2.5-.1.8-.4 1.5-.7 2.2-.4.6-.8 1.1-1.4 1.7-.6.6-2.3 1.5-5 2.7-2.8 1.3-6.4 2.6-10.8 3.9-4.5 1.2-9.6 2.3-15.4 3.3-5.8 1-12 1.5-18.6 1.5-11.5 0-21.5-1.6-30.1-4.8-8.6-3.2-15.8-7.9-21.7-14.2-5.8-6.3-10.3-14.2-13.3-23.6-2.9-9.5-4.4-20.5-4.4-33.1 0-12 1.5-22.7 4.6-32.2 3.1-9.5 7.5-17.6 13.4-24.3 5.8-6.6 12.8-11.7 21-15.3 8.3-3.5 17.5-5.3 27.7-5.3 10.9 0 20.2 1.7 27.9 5.3 7.6 3.4 13.9 8.1 18.9 14.1 4.9 5.9 8.6 12.9 10.9 20.8 2.3 8 3.5 16.5 3.5 25.6v4.7zm-25.6-7.6c.3-13.4-2.7-23.9-8.9-31.5-6.3-7.6-15.6-11.4-27.9-11.4-6.3 0-11.9 1.1-16.6 3.5-4.8 2.4-8.8 5.5-12 9.4-3.2 3.9-5.7 8.5-7.5 13.7-1.7 5.2-2.7 10.6-2.9 16.3zm200.8-70.7c-3.3-8.5-8.3-15.8-14.8-21.8-6.6-6-14.5-10.7-23.9-14-9.4-3.2-20-4.9-31.8-4.9-25.3 0-44.6 6.2-57.9 18.7-13.4 12.5-20.1 29.5-20.1 51v125.1c0 1.8.5 3.1 1.5 3.9 1 .9 2.7 1.5 4.9 2 2.2.4 5.2.6 8.9.6 3.8 0 6.8-.2 8.8-.6 2-.5 3.6-1.1 4.7-2 1.2-.8 1.7-2.1 1.7-3.9V456c0-8.8 1.4-16.2 4.1-22.1 2.8-5.9 6.3-10.7 10.8-14.2 4.4-3.6 9.3-6.1 14.8-7.6s11-2.2 16.5-2c5.5-.2 11 .5 16.5 1.9 5.6 1.4 10.6 3.9 15 7.4 4.4 3.5 8 8.3 10.7 14.3 2.8 6 4.1 13.4 4.1 22.3v119.9h.1v4.8c0 1.7.5 3 1.5 3.8 1 .9 2.6 1.5 4.8 2.1 2.2.3 5.2.6 8.9.6 3.9 0 6.8-.3 8.8-.6 2-.6 3.6-1.2 4.8-2.1 1.1-.8 1.7-2.1 1.7-3.8V455.6c0-10.7-1.8-20.4-5.1-29zM1283 478c-3-9.3-7-17.2-13-23.6-3-3.1-6-5.9-9-8.3v-.4.3c-4-2.5-8-4.7-12-6.5-9-3.4-19-5.1-30-5.1-12 0-22 1.9-31 5.7-9 3.8-16 9.2-22 16.1-6 6.9-11 15.1-14 24.6-2 9.6-4 20-4 31.3 0 11.7 2 22.3 4 31.5 3 9.3 7 17.2 13 23.6 6 6.5 13 11.5 21 14.9 9 3.4 19 5.1 30 5.1 12 0 22-1.9 31-5.8 5-2.2 10-5 14-8.2v7.5c0 1.8 0 3.1 1 3.9 1 .9 3 1.5 5 2 2 .4 1 .6 5 .6s7-.2 9-.6c2-.5 3-1.1 4-2 2-.8 2-2.1 2-3.9V509.4c0-11.7-1-22.2-4-31.4zm-25 55.1c-1 6.7-4 12.5-8 17.3-3 4.8-8 8.6-13 11.3-6 2.6-12 4-20 4s-15-1.5-20-4.4c-6-3-10-6.9-13-11.8-4-5.1-6-10.9-7-17.6-2-6.7-2-13.9-2-21.5 0-7.9 0-15.2 2-21.9 2-6.7 4-12.5 8-17.4 4-4.9 8-8.7 13-11.3 6-2.7 12-4.1 20-4.1s15 1.5 21 4.4c5 3 9 7 13 12 3 5.1 5 10.9 7 17.6 1 6.7 2 13.8 2 21.3 0 8.1-1 15.5-3 22.1zm-991 85.5c-67.3-21-123.4-85.4-75.7-122.9 33.1-25.7 115.3-25.8 186.4 2.1 48.9 19.1 77.4 54.4 56.8 84.9-20.4 30.3-76.2 47.2-122.6 44.6-14.2-.7-28.4-3.6-44.9-8.7zm99.3-96.7c10.4 2 22.2 1.7 25.7-1.7s-4.1-9.3-15.7-13.6c-16.9-6.4-35.3-9.3-41.7-7-9.3 3.3 5.5 14.2 21.3 19.5 3.9 1.3 7.2 2.2 10.4 2.8zm-189.5-58.5c-21-3.6-49.8-7.2-42.4-31.7 1.3-4.3 18.1-25.5 64.4-36.9 46.2-11.5 80.9-6.9 91.6-2.8 10.7 4.2 23.1 14.8 28.9 25.5 5.7 10.7 8.8 30.8-13.4 40.5-12.3 5.3-42 7.8-70.8 8.3-23.4.3-46.2-.7-58.3-2.9m82.6-55c3.1.9 8.9 2.3 14.9 3.5 7.4 1.4 15.1 2.6 18.4 2.4 6-.4 5.9-3.7 4.7-5.7-1.1-2-4-4.4-6.6-5.6-2.7-1.2-11.4-3.8-23.7-4.4-12.2-.6-17.2 1.9-17.6 2.4-2.7 3.5 4.6 5.7 9.9 7.4"/></svg>