<svg xmlns="http://www.w3.org/2000/svg" viewBox="0 0 386.5 337.2"><path d="M204.1 22l8.8 24.5h35.4l-60 144.1h96.6L276 166h-52.9l60-144m0 0H167.3c-3.9 0-8.4 3-9.9 6.5L92.67 184c-1.51 3.6.46 6.6 4.41 6.6h59.42c4 0 8.4-3 10-6.6l4.8-11.4c1.5-3.6-.5-6.6-4.4-6.6h-35c-3.9 0-5.9-3-4.4-6.6l14.3-34.2c1.5-3.6 6-6.6 9.9-6.6h34.7c3.9 0 8.4-3 9.9-6.6l4.8-11.4c1.6-3.6-.4-6.6-4.4-6.6h-34.8c-3.9 0-5.9-3-4.4-6.6l14-34.1c1.5-3.8 6-6.8 9.9-6.8h66.9M58.49 266.3c0-.5-.1-.5.21-.5 5.49-.8 10.87-2.4 15.35-5.4 2.23-1.5 4.2-3.3 5.75-5.5 1.56-2.1 2.73-4.6 3.46-7.1.1-.3.1-.3.51-.2l.83.3c.43.1.43.1.36.4-.66 2.7-1.77 5.5-3.39 7.9-1.6 2.5-3.67 4.6-6.05 6.4-4.78 3.6-10.53 5.6-16.34 6.7-.28 0-.28 0-.33-.4m7.03-20.6c-.25.3-.25.3-.3.3-1.09-.8-2.48-1.5-3.82-2.1-1.37-.6-2.81-1.1-4.15-1.4-.1 0-.1 0 0-.5l.18-.8c.1-.4.1-.4.15-.4 1.62 0 3.24.3 4.86.7 1.62.4 3.19.8 4.83 1.7.1.1.1 0-.18.4m193.35.2c0 .2-.2.3-.2.3h-21.5c-.2 0-.3-.1-.3-.3l-.2-1.8c0-.1.1-.2.2-.2h21.8s.2.1.2.2m-118.1 12.7c0 .1-.2.3-.3.3h-21.7c-.1 0-.3-.2-.3-.3l-.4-1.8c0-.2 0-.3.2-.3h22.2c.1 0 .3.1.3.3m58.4-9.6c0 .2-.2.3-.3.3h-21.9c-.2 0-.3-.1-.4-.3l-.2-1.8c0-.1.1-.2.3-.2h22.2c.1 0 .3.1.3.2m129.6-2c0 .1-.3.2-.3.2h-1c-.3 0-.3-.1-.3-.2V239c0-.2 0-.3.3-.3h1s.3.1.3.3m-3.6 3.1c0 .1 0 .2-.2.2h-1c-.3 0-.3-.1-.3-.2V239c0-.2 0-.3.3-.3h1c.2 0 .2.1.2.3m-63.7 3.1c0 .1 0 .2-.3.2h-1c-.3 0-.3-.1-.3-.2V239c0-.2 0-.3.3-.3h1c.3 0 .3.1.3.3m-3.6 3.1c0 .1 0 .2-.2.2h-1s-.3-.1-.3-.2V239c0-.2.3-.3.3-.3h1c.2 0 .2.1.2.3m51.9 16.5c-.3.4-.3.4-.3.3-1-.8-2.5-1.6-3.8-2.2-1.5-.7-2.7-1.3-4-1.5-.3 0-.3 0 0-.5v-.9l.2-.4c1.6 0 3.3.5 4.9.9 1.7.5 3.2 1 4.8 1.8.2.1.2.1 0 .4m-1.8-5.1l-.3.3c-1-.8-2.5-1.6-3.8-2.3-1.5-.6-2.7-1.2-4-1.5-.3 0-.3 0 0-.4v-.9l.2-.4c1.6.1 3.3.4 4.9.9 1.7.4 3.2.9 4.8 1.8.2.1.2 0 0 .4m24.5 20.1c0-.5 0-.5.3-.5 5.3-.8 10.8-2.4 15.1-5.4 2.3-1.5 4.3-3.3 5.9-5.5 1.5-2.1 2.7-4.6 3.5-7.1 0-.3 0-.3.5-.2l.8.3c.5.1.5.1.2.4-.5 2.7-1.8 5.5-3.3 7.9-1.5 2.5-3.5 4.6-6 6.4-4.9 3.6-10.4 5.6-16.2 6.7-.5 0-.5 0-.5-.4m-34.2-2.6c0-.5 0-.5.3-.5 5.3-.8 10.8-2.4 15.4-5.4 2-1.5 4-3.3 5.6-5.5 1.5-2.1 2.7-4.6 3.5-7.1 0-.3 0-.3.5-.2l.8.3c.5.1.5.1.5.4-.8 2.7-1.8 5.5-3.6 7.9-1.5 2.5-3.5 4.6-6 6.4-4.9 3.6-10.4 5.6-16.2 6.7-.3 0-.3 0-.5-.4m-134.6-28.6c-.7 0-1.3.6-1.3 1.3 0 .7.6 1.2 1.3 1.2.7 0 1.3-.5 1.3-1.2s-.6-1.3-1.3-1.3m0 4.1c-1.6 0-2.8-1.3-2.8-2.8 0-1.6 1.2-2.9 2.8-2.9 1.6 0 2.8 1.3 2.8 2.9 0 1.5-1.2 2.8-2.8 2.8m-.5.1c.4 0 .4 0 .4.3-.2 2.7-.6 5.4-1.3 8.1-.8 2.8-2.1 5.5-4.1 7.7-1.9 2.2-4.3 3.9-6.8 5.2-2.5 1.3-5 2.3-7.6 3.1-.2.1-.2.1-.4-.3l-.3-.9c-.1-.4-.1-.4.2-.4 2.4-1 4.9-2.1 7.1-3.4 2.3-1.4 4.3-3 5.9-5 1.5-2 2.4-4.3 3-6.8.5-2.5.7-5 .8-7.6 0-.3 0-.3.5-.2m.3 2.7c0 .1-.2.2-.3.2h-22c-.1 0-.2-.1-.3-.2l-.2-1.8c0-.2.1-.3.3-.3h22.2c.1 0 .3.1.3.3M51.94 268.1c0 .2-.1.3-.25.3h-29.2c-.15 0-.27-.1-.29-.3l-.2-1.8c0-.1.1-.2.23-.2h29.46c.15 0 .25.1.25.2M49.36 247c0 .1-.1.2-.25.2H25.59c-.15 0-.28-.1-.29-.2l-.2-1.8c0-.2.1-.3.23-.3h23.78c.15 0 .25.1.25.3m182.24-1.9c.4.2.4.2.3.4-2.6 3.9-6.2 7-10.1 9.3-4 2.3-8.2 3.9-12.6 4.9-.3.1-.2.1-.3-.4l-.2-.8c-.1-.4-.1-.4.1-.5 4.1-1.3 8.1-3.1 11.7-5.5 3.5-2.4 6.5-5.4 8.5-8.9.1-.2.1-.2.4.1m-6.1 8.9c.1 0 .2.1.2.3v17.8c0 .1-.1.2-.2.2H221c-.1 0-.3-.1-.3-.2v-17.8c0-.2.2-.3.3-.3m-18.1-1c.4.1.4.1.4.3-.5 2.3-1.1 4.7-2.1 7-.9 2.2-2.3 4.4-4.3 6.2-1.8 1.8-4.1 3-6.4 3.9-2.3.9-4.7 1.4-7 1.8-.2 0-.2 0-.3-.4l-.2-.8c-.1-.5-.1-.5.2-.5 2.2-.5 4.4-1.2 6.5-2.2 2.1-.9 4-2.1 5.4-3.7 3.1-3.2 4.2-7.6 4.7-12 0-.2 0-.2.5-.1m.3 2.8c0 .2-.2.3-.3.3h-23c-.1 0-.3-.1-.3-.3l-.2-1.8c0-.1.1-.2.2-.2h23.3c.1 0 .3.1.3.2m144.7-2l-.2.3c-1.3-.8-2.5-1.6-3.8-2.3-1.5-.6-3-1.2-4.3-1.5v-.4l.2-.9c0-.4 0-.4.3-.4 1.5.1 3.3.4 4.8.9 1.5.4 3.3.9 4.8 1.8 0 .1 0 0-.2.4m-85.8-2.2c.5.1.5.1.2.4-.2 2.9-1 5.9-2.2 8.7-1.6 2.8-3.3 5.3-5.6 7.4-2.1 2.1-4.7 3.8-7.3 5.2-2.6 1.4-5.4 2.5-8.1 3.5-.3.1-.3.1-.4-.4l-.3-.8c-.1-.4-.1-.4.1-.5 5.3-2.1 10.4-4.9 14.3-8.9 2-2 3.5-4.3 4.5-6.8s1.5-5.2 1.8-7.9c0-.2 0-.2.5-.2m-220.09 2.2c.15 0 .25.1.25.3v21.1c0 .2-.1.3-.25.3h-2.33c-.15 0-.25-.1-.25-.3v-21.1c0-.2.1-.3.25-.3m76.02 1.1c0 .1-.1.2-.3.2H97.68c-.12 0-.25-.1-.28-.2l-.2-1.8c0-.2.1-.3.23-.3h14.47c.2 0 .3.1.3.3m.7 15.7c-.3.3-.3.3-.4.2-1.8-1.4-3.9-2.6-6-3.5-2.2-1-4.5-1.6-6.82-1.9-.13 0-.13 0-.1-.5l.1-.8c.1-.5.1-.5.17-.5 2.55 0 5.15.5 7.55 1.2 2.5.8 5 1.8 7.3 3.3.1.1.1.1-.2.5m-15.75-18.5c.43.1.43.1.4.2-.4 2.9-1.04 5.8-2.4 8.6-.69 1.3-1.55 2.6-2.58 3.8-1.02 1.1-2.15 2.1-3.32 3-.12.1-.12.1-.38-.2l-.53-.8c-.25-.3-.28-.3-.15-.4 2.05-1.9 3.72-4.1 4.58-6.6.93-2.5 1.21-5.2 1.31-7.8 0-.2 0-.2.43-.1m18.39 4.5c.4.1.4.1.4.3-.5 2.7-1 5.4-1.7 8.1-.7 2.7-1.8 5.5-3.5 7.9-1.8 2.4-4.3 4.3-6.9 5.6-2.6 1.2-5.4 2-8.15 2.5-.28.1-.28.1-.36-.4l-.15-.8c-.1-.5-.1-.5.18-.5 2.63-.6 5.18-1.5 7.48-2.8 2.3-1.3 4.3-3 5.7-5.2 1.4-2.1 2.2-4.6 2.7-7.1.6-2.6.9-5.2 1.2-7.9.1-.2.1-.2.5-.2M262.4 269c-.3.2-.3.2-.3.1-1.3-2-2.8-3.9-4.3-5.5-1.8-1.6-3.8-3.1-5.8-3.9-.1 0-.1 0 0-.4l.4-.8c.1-.4.1-.4.2-.4 2.4.7 4.7 2 7 3.6 2 1.6 4 3.4 5.5 5.7 0 .1 0 .1-.2.3m38.4-49.9c.3.2.3.2-.2.9L256 314.5c-.5.8-.5.8-.7.6l-.8-.4c-.2-.2-.2-.1 0-.9l46.1-96.5c.2-.8.2-.8.7-.6"/></svg>