<svg xmlns="http://www.w3.org/2000/svg" viewBox="0 0 173.539 156.934"><path d="M42.78 126.07h2.872c1.293 0 2.46-.75 2.446-2.17 0-1.26-1.04-2.16-2.37-2.14h-2.95zm-5.01-8.11h9.437c2.563 0 6.133 1.12 6.133 5.12 0 2.56-1.16 4-3.368 4.66.104 0 1.26.5 1.738 1.95.02 0 2.7 7.51 2.73 7.53h-5.564l-1.98-5.79c-.304-.89-.965-1.48-1.903-1.48h-2.097v7.27H37.77zm86.66-.47c5.44 0 9.6 3.19 9.6 10.14 0 6.64-4.18 10.06-9.6 10.06-5.4 0-9.55-3.34-9.55-10.06 0-6.95 4.12-10.14 9.55-10.14zm-4.19 10.14c0 2.93 1.26 6.26 4.19 6.25 2.94 0 4.17-3.32 4.2-6.25 0-2.66-1.26-6.25-4.2-6.25-2.93 0-4.19 3.31-4.19 6.25zm27.8 9.59l-6.68-12.66v12.66h-4.85v-19.26h6.64l6.33 12.42v-12.42h4.81v19.26zm-35.64-18.94l-.35 4.01c-2.64-1.45-7.65-1.49-7.65.79 0 3.38 8.93.94 8.93 8.18 0 7.11-8.51 7.19-14.02 5.54l.393-4.24c3.457 1.61 8.347 1.96 8.347-.83 0-3.07-8.97-1.34-8.97-8.22 0-5.65 6.99-7.16 13.32-5.23zm-15.804 0l-.353 4.01c-2.64-1.45-7.65-1.49-7.65.79 0 3.38 8.933.94 8.933 8.18 0 7.11-8.502 7.19-14.018 5.54l.39-4.24c3.456 1.61 8.35 1.96 8.35-.83 0-3.07-8.97-1.34-8.97-8.22 0-5.65 6.988-7.16 13.318-5.23zm-15.416.3l-.352 4.12c-4.23-2.45-10.715-1.67-10.83 4.75-.118 6.42 6.678 7.35 10.987 5.17l.27 4.21c-7.607 2.37-16.696 0-16.656-9.38.04-9.15 9.2-11.68 16.58-8.87zm-19.104 18.64H56.84v-19.26h5.236zm-28.5-7.63h-9.13v3.59h9.675v4.03H19.25v-19.25h14.72v4h-9.523v3.48h9.13zm33.987-31.366A7.937 7.937 0 0 1 62.1 83.32l43.88-16.087c4.11-1.508 8.67.604 10.18 4.72a7.932 7.932 0 0 1-4.72 10.183zm0-23.75A7.937 7.937 0 0 1 62.1 59.57l43.88-16.086c4.11-1.51 8.67.604 10.18 4.72a7.93 7.93 0 0 1-4.72 10.18zm0-23.75A7.937 7.937 0 0 1 62.1 35.822l43.88-16.087c4.11-1.51 8.67.604 10.18 4.72a7.93 7.93 0 0 1-4.72 10.18z"/></svg>