<svg xmlns="http://www.w3.org/2000/svg" viewBox="0 0 1636 777"><path d="M1111.3 705.87v-4.39c10 .1 20 .15 30.1.14v4.31c-2.1.51-4.2 1.1-6.3 1.75 1.5 7 5.5 13.08 8.3 19.56 2.2-3.94 4.1-7.99 6-12.08.9-2.2 1.9-4.59 1.3-7-1.6-1.26-3.8-1.59-5.7-2.18-.1-1.46-.2-2.91-.2-4.35 8.5 0 17.1-.1 25.7.1v4.3c-3.2.8-6.5 1.35-9.2 3.38-2.7 2.02-4.2 5.15-5.8 8.04-2.6 5.01-5.4 9.92-8 14.94-1.5 2.61-.9 5.73-1 8.61.1 3.31-.5 7.06 1.5 9.95 2.6 2.69 6.7 2.46 10.2 3-.1 1.47 0 2.95 0 4.44-12.1.1-24.2-.18-36.2-.1v-4.44c4-.81 10.6-.21 11.2-5.6.3-5.31 1.6-11.24-1.4-16.02-2.7-5.36-5.4-10.73-7.9-16.16-1.3-2.57-2.6-5.28-4.8-7.15-2.2-1.79-5.1-2.33-7.8-3.04zm172.3-.3c8.5-6.63 20.9-6.31 29.9-.88-.3 5.27-.7 10.54-1 15.82h-4.3c-1.3-4.83-2.2-11.05-7.4-13.26-3.9-1.88-9.4.24-10.2 4.77-.9 3.67 1.4 7.12 4.4 9.08 5.8 4.18 13.2 6.31 18.1 11.86 5.3 5.79 4.6 15.72-1.1 20.99-5.3 4.98-13 6.37-20 5.94-5.2-.44-10.9-1.51-15.1-4.69-1.2-5.73-1.9-11.55-2.9-17.32 1.5-.26 3-.51 4.6-.75 2 5.5 4.7 11.18 9.7 14.54 3.5 2.35 8.5 3.25 12.3.96 4-2.56 4-8.8.6-11.91-6.1-5.89-15.5-7.36-20.9-14.18-5.1-6.31-2.9-16.28 3.3-20.98zm-502.55-4.87c9.11.1 18.22.16 27.33.14v4.26c-1.83.57-3.72 1.01-5.41 1.91-2.04 1.57-.67 4.17-.22 6.19 2.5 7.67 4.41 15.54 7.25 23.1 2.85-8.1 6.02-16.11 8.57-24.3-.28-4.13-4.71-6.04-8.24-6.86-.1-1.41-.1-2.83-.12-4.22 9.34-.2 18.69 0 28.04-.1v4.34c-2.19.8-4.87.91-6.48 2.79-.27 2.66.65 5.27 1.36 7.81 2.24 7.16 4.31 14.37 6.65 21.5 2.66-9.08 6.41-17.93 7.78-27.32.31-3.72-4.51-3.68-6.98-4.76v-4.27c8.01.1 16.02-.14 24.03.13 0 1.37-.1 2.76-.1 4.16-3.82 1.09-7.86 2.97-9.16 7.07-5.95 15.6-11.31 31.44-17.1 47.11-1.65-.37-3.29-.71-4.92-1.04-4.03-12.18-7.27-24.63-11.6-36.7-4.6 12.36-8.91 24.83-13.23 37.29-1.7-.15-3.39-.32-5.08-.47-4.3-13.49-8.44-27.03-12.65-40.54-1.05-3.15-1.71-6.51-3.48-9.35-1.34-2.23-4.04-2.76-6.3-3.54v-4.35zm-159.88-.32c9.25 0 18.5.17 27.76.1 5.86 0 12.13.23 17.3 3.32 6.22 3.84 6.84 13.29 2.46 18.76-1.78 2.4-4.4 3.95-6.91 5.48 5.18 11.45 13.79 23.1 26.73 26-.25 1.41-.5 2.84-.74 4.27-7.71-.49-16.22.4-22.95-4.14-6.6-5.02-10.05-12.83-14.12-19.81-1.16-2.25-3.96-2.23-6.06-2.86 0 5.47-.61 11.07.57 16.46 1.73 4.58 7.61 4.22 11.63 4.76v4.55c-11.92 0-23.84-.19-35.76-.1v-4.43c2.88-.56 6-.62 8.57-2.17 1.83-1.65 1.73-4.4 1.93-6.67.13-9.99 0-19.98.1-29.97-.1-2.36.1-5.06-1.61-6.95-2.52-1.88-5.87-1.63-8.83-2.06v-4.54m23.47 5.31v20.48c2.97-.56 6.11-1.1 8.57-3.01 4.28-3.05 5.39-10.08 1.61-13.93-2.67-2.68-6.66-3-10.18-3.54zm-162.44-5.52h33.94c0 1.44.1 2.88.14 4.33-3.29 1-8.26.34-9.86 4.09-1.36 5.34-.57 10.94-.76 16.4.23 7.64-.83 15.39.52 22.97 1.14 4.28 6.63 3.6 10.03 4.61-.1 1.4-.11 2.81-.16 4.23-11.32.1-22.64 0-33.96 0v-4.38c2.98-.65 6.31-.6 8.9-2.39 1.57-1.98 1.49-4.67 1.63-7.06.1-9.68 0-19.37 0-29.06-.11-2.39 0-5.1-1.6-7.05-2.6-1.73-5.87-1.8-8.83-2.44v-4.29zm497.09 4.33c3.46-1.33 5.95-4.02 8.52-6.54.6-.12 1.79-.37 2.39-.49 6.32 15.88 12.13 31.95 18.43 47.85.8 1.96 1.6 4.09 3.3 5.57 1.9 1.46 4.3 2.09 6.5 2.95v4.28c-9.9-.2-19.72.14-29.56-.21v-4.22c2.4-.5 4.81-1.13 6.92-2.43-.59-5.17-2.78-9.92-4.56-14.75h-15.7c-1.42 4.69-4.25 9.64-2.87 14.63 2.45 2.05 5.89 1.82 8.87 2.44v4.44c-9.08-.36-18.17-.1-27.25-.21 0-1.4 0-2.79.1-4.16 2.77-1.03 6.44-1.49 7.67-4.62 5.84-13.2 11.4-26.53 17.19-39.76.83-1.51.18-3.2.1-4.77m-1.33 24.88h10.59c-1.78-4.55-3.49-9.13-5.34-13.65-2.04 4.45-3.55 9.1-5.25 13.67zm-628.62-32.97h2.88c5.92 15.47 11.74 30.97 17.71 46.42.96 2.27 1.77 4.76 3.61 6.52 1.89 1.59 4.38 2.12 6.65 2.97 0 1.41.1 2.84.13 4.27-9.91.11-19.82-.1-29.73-.1v-4.25c2.2-.82 5.96-.47 6.72-3.19-.32-4.89-2.76-9.29-4.32-13.85-5.29 0-10.58-.1-15.87 0-1.27 4.77-4.53 9.97-2.42 14.9 2.58 1.51 5.67 1.49 8.55 1.91v4.48h-27.12v-4.36c3.02-.91 6.75-1.66 7.85-5.09 5.69-12.98 11.23-26.04 16.9-39.03.95-1.58.41-3.36.1-5.01 3.37-1.36 6.14-3.75 8.33-6.61m-4.8 18.73c-1.87 4.15-3.2 8.51-4.91 12.73 3.56.17 7.12.18 10.69 0-1.76-4.22-3.14-8.59-5.06-12.74h-.72zm577.36-115.16C969.67 550.47 1017.4 501 1065 451.52c10 10.65 20.1 21.26 29.9 32.01-41.1 42.4-82.1 84.89-123.23 127.26 2.41.24 4.84.46 7.27.65.12 3.08.15 6.17.1 9.27-25.45-.13-50.9 0-76.35-.25 5.93-7.27 12.93-13.61 19.3-20.5zm353.71-184.43c54.4 0 108.8.15 163.3.3 23-.17 46.2.13 69 3.64 18 2.75 35.8 7.21 52 15.47 14.4 7.57 27.8 17.33 38.3 29.79 11 13.07 18.5 29.24 20.6 46.28 2.1 16.97-.8 34.74-9.4 49.63-7.6 13.46-19.2 24.32-31.9 32.95-17 11.53-36.5 19.03-56.5 23.22-20.8 4.09-42 4.58-63.1 4.79-50.5-.13-100.9-.19-151.4-.33 0-2.69 0-5.37.1-8.06 2.9-2.41 8.6-3.48 8.2-8.19 0-49.8-.1-99.59-.1-149.39 17.3 0 34.5-.14 51.8.1.1 43.7-.3 87.4-.2 131.11 29.9-.1 59.7.16 89.6.12 19.5 0 39.2-1.31 58-6.75 14.8-4.38 28.7-12.59 38.8-24.36 14.1-16.39 16.8-41.02 8-60.54-7-15.46-20.9-26.86-35.9-34.13-18.8-8.21-39.7-9.77-60-10.56-60.4-.4-120.9-.23-181.4-.55 0-7.19 0-14.39-.1-21.58-2.6-1.73-5.2-3.42-7.7-5.13v-7.81zm-205 30.37c9.8-10.74 20.1-21.05 30.2-31.47 65.5 69.01 131 137.99 196.4 207.04-25.9-.14-51.8 0-77.7-.2.1-3.17.1-6.33.1-9.49 2.9 0 5.7-.14 8.6-.39-19.8-21.81-40.4-42.79-60.4-64.33-1.2-1.02-2.1-2.8-3.9-2.74-31.3-.25-62.7-.12-94-.23-4.7-.36-8.3 2.84-12.3 4.64-2.8-1.4-5.5-2.84-8.3-4.36 8-8.7 15.9-17.39 23.9-26.07 2.6-2.62 4.7-5.82 7.7-8.02 17.3-.24 34.6-.11 51.9 0-12.9-13.16-26.2-25.94-38.7-39.44-7.8-8.32-15.6-16.65-23.5-24.92zm-379.99-31.46c22.85-.15 45.71 0 68.57.1v7.86c-2.88 2.03-6.16 3.53-8.78 5.91-.39 30.35.1 60.73 0 91.1 8.59-10.75 17.19-21.49 25.69-32.3 19.26-.52 38.51.34 57.77.1 25.15-.1 50.29.19 75.44.1-.1-19.6.2-39.19.1-58.79-2.91-1.92-5.87-3.77-8.84-5.59v-8.05c22.89-.1 45.77 0 68.66.1 0 2.7 0 5.39-.1 8.1-2.69 1.69-5.7 2.97-8.04 5.15-.69 1.5-.35 3.23-.45 4.84.44 37.3.37 74.61.47 111.91-17.52 18.57-34.94 37.23-52.54 55.73.14-26.11.47-52.22.7-78.34-18.79-.34-37.59-.1-56.39-.26-27.35.14-54.7-.51-82.04-.17-6.41.32-11.08 5.38-16.76 7.69-1.27-.29-2.51-.64-3.72-1.05-.1 26.15.1 52.29.12 78.43 2.68 1.72 5.36 3.43 8.07 5.13v8.02c-22.77.13-45.55 0-68.32-.15 0-2.55-.18-5.12.1-7.65 2.31-3.09 8.33-3.6 8.18-8.3-.16-58.94 0-117.89-.34-176.83-2.6-1.56-5.13-3.25-7.63-4.96v-7.79zm-83.54-.28c22.65.11 45.3.14 67.95.12 0 2.61 0 5.23.1 7.86-2.83 2.73-8.73 3.93-7.93 8.84 0 58.61.27 117.22.1 175.84 2.44 1.8 4.93 3.54 7.4 5.32v7.92c-22.66-.56-45.34.1-68.01-.41v-7.8c2.78-2.15 6.6-3.39 8.55-6.35.75-25.8 0-51.67.45-77.5-.19-33.28.36-66.57 0-99.84-2.44-2.55-5.79-3.99-8.58-6.1v-7.9zM253.81 452.5c10.36-13.09 20.97-25.99 31.34-39.07 103.77.27 207.54.26 311.3.78-11.1 13.32-22.14 26.69-33.17 40.07-2.01 3.01-6.17 1.42-9.2 1.78-.1-2.24-.19-4.48-.28-6.72-23.59-1.05-47.22-.17-70.83-.62h-35.23c-.17 52.48-.35 104.97-.3 157.46 2.75 1.77 5.54 3.49 8.36 5.16v8.15c-22.8 0-45.6-.19-68.4-.11v-8.08c2.7-1.92 5.9-3.25 8.17-5.68.86-3.13.26-6.44.38-9.63.41-49.12.24-98.26.43-147.38-38.13-.2-76.27-.12-114.4-.36-7.13-.4-12.62 4.97-18.94 7.4a371.01 371.01 0 0 1-9.22-3.17zm-132.68-35.68c18.06-3.52 36.55-3.32 54.87-3.55 31 .18 62 .12 92.99.26-11.43 13.77-22.94 27.49-34.38 41.26-2.84 0-5.69 0-8.53.1.3-2.1.59-4.21.86-6.31-2.6-.48-5.24-.81-7.89-.74-14.69.13-29.38-.1-44.07.12-10.62.64-21.36-.25-31.88 1.75-20.51 2.19-41.26 9.48-56.16 24.22C74 486.22 66.31 504.36 68.65 522.3c7.73-11.14 15.14-22.51 22.96-33.59 29.47 0 58.94.21 88.41.16 19.98.33 39.98-.21 59.96.34 22.69-.1 45.39 0 68.08.15-11.35 13.97-22.62 28-33.96 41.97-2.93 0-5.85 0-8.78-.12.31-2.26.63-4.51.97-6.75-4.67-1.11-9.5-.66-14.26-.81-61.13 0-122.27-.33-183.4-.26 1.66 14.58 9.02 28.32 20.37 37.63 14.11 12.17 32.38 18.08 50.57 20.63 25.95 3.94 52.26 2.49 78.39 2.66 35.04.1 70.07-.13 105.1.14 5.72-.35 9.94-4.93 15.07-6.98 4.27-.42 8.57-.1 12.85-.13-11.58 13.97-23.12 27.97-34.78 41.88-38.39-.1-76.79 0-115.18-.34-25.01 0-50.14.42-75.01-2.8-20.35-2.75-40.34-8.85-58.37-18.76-14.59-7.92-28.25-18.17-38.1-31.69-20.03-26.98-19.9-66.53-1.09-94.11 9.48-14.33 22.85-25.73 37.53-34.47 16.97-9.93 35.61-17.39 55.15-20.19zM389.54 83.8c7.2 4.95 12.64 11.88 18.54 18.21 5.6 6.15 11.06 13.08 19.19 15.93.53 3.43.67 7.59-2.13 10.14-3.12 2.95-7.58 4.76-9.27 9-1.55 3.21-1.55 6.83-1.6 10.32h164.74c5.61-.11 11.64.85 15.98 4.68 4.53 3.89 6.2 10.11 6.26 15.88-.1 3.38-.8 6.7-.76 10.08v96.98c-.1 3.1.45 6.47-1.29 9.24-6.95 13.63-21.28 22.3-36.13 24.58-13.94 2.17-29.25 1.33-41.36-6.58-6.46-4.19-11.64-10.36-14.56-17.49-.8-1.81-.72-3.82-.74-5.75.1-7.23 0-14.47 0-21.7-38.32-.1-76.65 0-114.98 0v-32.56h135.65c.11 14.07-.19 28.14.13 42.2 3.54 6.97 10.95 11.65 18.51 13.25 5.42.92 11.55 1.08 16.26-2.22 4.78-3.3 6.97-9.29 6.93-14.94-.13-25.02 0-50.05-.1-75.07-.11-7.46-8.35-11.46-14.89-11.84-54.83-.1-109.66 0-164.49-.1 0-30.75-.1-61.5 0-92.26zm523.05-18.26c7.43-7.72 15.24-15.07 22.62-22.84 8.12 7.82 16.12 15.78 23.92 23.93-8.04 7.78-15.68 15.97-23.89 23.56-7.25-7.25-14.49-14.5-21.75-21.73-.69-.77-2.22-1.93-.9-2.92zm-27.82-21.85c.84-1.37 2.02.1 2.73.72 7.27 7.26 14.47 14.59 21.83 21.76-2.45 3.56-5.89 6.25-8.82 9.38-4.87 4.73-9.47 9.75-14.48 14.32-.32-.15-.95-.43-1.26-.58-7.67-7.49-15.16-15.18-22.79-22.71 7.47-7.75 15.15-15.3 22.79-22.89zm107.4-20.93c1.48-.15 3.04-1.09 4.51-.56 7.92 11.55 17.22 22.17 27.72 31.39 2.6 2.76 8.3 3.58 7.7 8.4.8 5.81-4.4 9-8.6 11.69-5.2 3.62-5.6 10.55-5.7 16.31-.5 37.33-.1 74.66.2 111.98 11.4 11.6 22.7 23.33 34 34.96 10.9-11.14 21.6-22.46 32.5-33.57 1.3-1.02 1.2-2.77 1.3-4.29.1-34.34.7-68.68.2-103.01-.5-6.23.7-12.99-2.4-18.7-2.6-5-9.5-5.9-11.4-11.38-.5-2.89-1.4-7.25 2-8.77 5.5-3.28 10.1-7.88 14.5-12.51 6.7-7.09 13.3-14.41 18.4-22.71 1.5.2 2.9.39 4.4.59.3 64.3.1 128.62.1 192.92-9.2 9.55-18.3 19.14-27.4 28.7-4.1 4.62-8.8 8.72-12.5 13.67 11 10.95 21.9 21.89 32.8 32.92-17.6 17.47-35 35.14-52.5 52.7-17.7-17.52-35.2-35.11-52.74-52.65 10.94-11.02 21.94-22.03 32.94-32.94-12.9-13.47-26.7-26.04-39.74-39.38-.61-2.45-.23-5.02-.31-7.52V22.76m36.75 268.11c7.7 7.62 15.3 15.35 23.1 22.99 7.6-7.67 15.3-15.33 23-23.03-7.7-7.62-15.2-15.43-23-22.88-8 7.28-15.5 15.18-23.1 22.92zm127-277.36c5.4 10.04 13.8 17.92 22.2 25.42 7.4 6.4 14.9 13.03 23.9 17.17 3.5 1.36 2.5 5.94 2 8.83-2.7 5.75-10.3 6.07-14 10.96-4 5.13-3 12.07-3.3 18.16-.4 54.25-.2 108.51.3 162.76-10.4.1-20.8 0-31.3 0V89c.1-25.17-.2-50.34.2-75.5zM647.42 42.33c9.41-8.25 19.08-16.71 25.05-27.91.3 52.54.2 105.09.36 157.63 0 17.88.17 35.76-.35 53.63 59.75.1 119.49 0 179.24 0-.11-4.59 0-9.17.48-13.73.35-6.87-4.66-12.78-10.59-15.58-9.46-4.63-20.25-5.38-30.61-5.35-18.35.16-36.7.43-55.04.1-3.99-.2-8.1.1-11.96-1.04-6.89-2.62-10.89-9.72-12.36-16.61-1.11-6.17-1-13.03 2.46-18.48 1.55-2.58 4.07-4.31 6.57-5.88 3.74 8.1 13.4 9.73 21.31 10.89 23.6 2.62 47.39.91 71.07.58 13.92 0 28.54 4.76 37.72 15.69 11.51 13.52 14.39 32.21 13.5 49.42h47.88c-.39-21.26-.1-42.53-.62-63.79 0-4.75-1.81-9.8-5.98-12.43-3.57-2.64-8.92-3.84-10.46-8.49-.58-2.85-1.34-7.32 2.21-8.53 6.76-3.19 12.5-8.07 18.11-12.94 9.89-8.88 20.07-18.01 26.17-30.05 0 55.61-.15 111.22 0 166.83-26.04 0-52.08-.11-78.11.1 0 8.85.24 18.07 3.99 26.26 1.38 3.37 4.36 5.58 6.86 8.08-6.47 4.64-14.61 7.2-22.55 5.51-6.52-1.29-12.9-4.87-16.08-10.91-5.02-8.79-4.42-19.25-4.04-29-69.68-.1-139.35 0-209.03 0-.62-56.1.37-112.2-1.05-168.28-.1-4.4-.8-9.24-4.22-12.35-3.72-3.77-9.92-4.49-12.66-9.27-.96-3.06-1.92-8.25 2.03-9.54 7.73-3.52 14.24-9.09 20.7-14.51z"/></svg>