<svg xmlns="http://www.w3.org/2000/svg" viewBox="0 0 151.29 67.147"><g class="logomark"><path d="M112.8 40.577c-.41 0-.76-.07-1.03-.203-1.29-.666-2.3-3.883-2.28-7.19 0-2.158 1.37-3.348 3.41-3.348 1.1 0 2.38.34 3.76 1.053 3.96 2.046 4.99 5.263 2.29 7.19-2.13 1.53-4.59 2.497-6.15 2.497m-.51-14.058c-.58 0-1.12.07-1.57.225-1.78.55-2.48 2.21-2.35 4.525.13 2.31.85 4.71 1.38 6.453.59 1.77.99 2.888 1.72 3.26.21.113.47.164.77.164.69 0 1.63-.27 2.87-.654 1.73-.576 4.1-1.382 6.06-2.607 1.98-1.226 2.92-2.764 2.33-4.535-.54-1.742-2.6-3.72-5.42-5.18-2.09-1.076-4.15-1.65-5.79-1.65m-7.19-1.997c-1.01 1.326-1.04 3.51-.36 6.213.95 3.808 2.59 7.657 3.36 10.227.88 2.628.88 3.978 1.22 4.154 0 .01.1.03.13.03.45 0 1.57-.703 3.97-1.426 2.53-.864 6.62-1.755 10.28-3.183 2.57-1.008 4.34-2.28 4.84-3.864-.82 1.107-2.31 2.036-4.29 2.808-3.66 1.43-7.74 2.322-10.28 3.184-2.39.726-3.52 1.43-3.97 1.43-.1 0-.1-.01-.12-.03-.35-.177-.35-1.523-1.23-4.155-.76-2.568-2.41-6.42-3.36-10.23-.52-2.075-.63-3.844-.19-5.155" opacity=".5"/><path d="M109.47 22c-.78 0-1.46.09-2.03.29-1.22.366-1.97 1.14-2.34 2.233.43-.542 1.01-.942 1.78-1.175.58-.197 1.26-.29 2.04-.29 2.66 0 6.35 1.11 10.19 3.09 4.95 2.556 8.61 5.788 9.38 8.358.26.778.27 1.497.1 2.162.7-.94.9-2.01.49-3.217-.76-2.568-4.41-5.8-9.37-8.356-3.83-1.98-7.54-3.094-10.19-3.094" opacity=".25"/><path d="M112.24 41.147c-.3 0-.56-.04-.77-.163-.73-.373-1.13-1.49-1.72-3.26-.53-1.744-1.25-4.143-1.38-6.454-.13-2.314.57-3.976 2.35-4.525.45-.152.99-.226 1.57-.226 1.63 0 3.7.574 5.79 1.65 2.82 1.46 4.88 3.438 5.42 5.18.59 1.772-.36 3.31-2.33 4.536-1.96 1.225-4.33 2.03-6.06 2.607-1.24.383-2.18.654-2.87.654m-3.32-18.09c-.78 0-1.46.09-2.04.29-.77.234-1.35.634-1.78 1.176-.44 1.31-.33 3.08.19 5.156.95 3.81 2.6 7.66 3.36 10.228.88 2.63.88 3.978 1.23 4.153 0 .01.1.03.12.03.45 0 1.58-.702 3.97-1.43 2.53-.86 6.62-1.754 10.28-3.18 1.98-.773 3.47-1.703 4.29-2.81.22-.663.21-1.383-.1-2.16-.75-2.574-4.41-5.805-9.37-8.363-3.83-1.98-7.52-3.09-10.18-3.09"/></g><path d="M46.636 29.864c.57 0 .87.01 1.184-.277.248-.228.25-.64.25-1.105v-1.197h-1.316c-.885.01-1.03.56-1.03 1.037v1.542h.92m1.434 14.632V30.903h-1.31c-.883.01-1.035.567-1.035 1.04v12.563zm52.212-2.035c-1.782 0-2.442-.07-2.442-1.38v-8.006h2.07c.742 0 1.282-.346 1.282-1.09 0-.742-.54-1.09-1.28-1.09h-2.072V27.29h-1.002c-.2 0-.335 0-.487.02-.95.1-.853 1.022-.853 1.022v2.563h-.64c-.74 0-1.278.346-1.278 1.09 0 .742.538 1.088 1.276 1.088h.64v8.511c0 2.872 1.994 2.908 4.784 2.908h1.39v-.937c0-.66-.54-1.088-1.39-1.088m-57.955 0c-1.783 0-2.446-.07-2.446-1.382v-8.01h2.07c.745 0 1.278-.345 1.278-1.088 0-.743-.533-1.09-1.277-1.09h-2.07V27.29h-1c-.2 0-.336 0-.49.03-.946.1-.853 1.024-.853 1.024v2.563h-.638c-.74 0-1.278.346-1.278 1.09 0 .742.537 1.088 1.277 1.088h.637v8.513c0 2.87 1.996 2.908 4.788 2.908h1.38v-.937c0-.66-.53-1.088-1.38-1.088m36.842-15.276h-1.312c-1.137 0-1.032 1.033-1.032 1.033v16.261h2.35zm13.145 8.477c0-2.366-.64-4.79-4.15-4.79h-4.928c-.77 0-1.278.346-1.278 1.09 0 .747.508 1.094 1.278 1.094h4.58c1.624 0 2.158.372 2.158 1.515v.347c-.1.698-.883.864-1.278.956-3.29.773-7.72-.07-7.72 4.658 0 2.53 2.156 4.02 5.11 4.02.04 0 2.97.145 4.047-1.337v.13c.07.745.43 1.137 1.192 1.137h.975zm-2.34 3.938c0 2.317-1.306 3.143-3.516 3.143-1.996 0-3.14-.717-3.14-2.316 0-1.188 1.01-1.954 2.216-2.167 1.206-.215 3.042-.296 4.44-.615zM74.54 35.68c0-2.366-.642-4.79-4.152-4.79h-4.924c-.773 0-1.28.346-1.28 1.09 0 .747.507 1.094 1.28 1.094h4.578c1.624 0 2.157.372 2.157 1.515v.347c-.1.698-.883.864-1.28.956-3.29.773-7.717-.07-7.717 4.658 0 2.53 2.153 4.02 5.108 4.02.04 0 2.97.145 4.05-1.337v.13c.07.745.43 1.137 1.194 1.137h.97zM72.2 39.62c0 2.317-1.305 3.143-3.517 3.143-1.996 0-3.14-.717-3.14-2.316 0-1.188 1.01-1.954 2.216-2.167 1.207-.215 3.042-.296 4.44-.615zm-12.677-8.723c.744 0 1.28.347 1.28 1.09 0 .747-.536 1.092-1.28 1.092h-5.456c-1.145.09-1.29 1.237-1.197 1.947.04.228.14.424.3.56.356.303.974.41 1.615.52l4.153.73c2.182.4 3.007 1.505 3.007 3.476 0 3.06-1.89 4.194-4.843 4.194h-6.896v-1.09c0-.745.507-1.093 1.276-1.093h5.456c2.13 0 2.678-.652 2.675-1.822 0-1.064-.294-1.452-1.717-1.693l-4.205-.692c-2.126-.346-3.05-1.466-3.167-2.893-.17-2.094.7-4.325 3.57-4.325zm-27.34 7.2l-7.83.804c.308 2.47 2.156 3.396 4.122 3.4h5.02c.715 0 1.19.484 1.19 1.17v1.006h-6.26c-3.492 0-6.425-2.273-6.425-6.923 0-3.965 2.774-6.664 6.713-6.664 2.83 0 5.128 1.728 5.753 4.335.376 1.585-.478 2.67-2.282 2.87M30.74 36.32c.633-.07 1.1-.19 1.328-.42.23-.227.205-.696.05-1.052-.48-1.125-1.778-1.946-3.435-1.946-2.534 0-4.326 1.632-4.326 4.13 0 0 6.067-.677 6.38-.713"/></svg>