<svg xmlns="http://www.w3.org/2000/svg" viewBox="0 0 207 42.4"><path d="M193.9 11.3c.5 0 .9.2 1.3.5.4.4.5.8.5 1.3s-.1.9-.5 1.3c-.3.4-.8.5-1.3.5s-.9-.1-1.3-.5c-.3-.4-.5-.8-.5-1.3s.2-.9.5-1.3c.4-.3.8-.5 1.3-.5zm2.1 1.8c0-.6-.2-1.1-.6-1.5-.4-.4-.9-.6-1.5-.6s-1.1.2-1.5.6c-.4.4-.6.9-.6 1.5s.2 1.1.6 1.5c.4.4.9.6 1.5.6s1.1-.2 1.5-.6c.4-.4.6-.9.6-1.5zm-1.5-.4c0 .1-.1.2-.3.3-.1 0-.2.1-.4.1h-.4v-.9h.4c.2 0 .4.1.5.1.1.1.2.2.2.4zm-1.5-.8v2.4h.4v-.9h.8c.2.1.3.3.3.6V14.3h.4v-.1c-.1 0-.1 0-.1-.1V13.8c0-.1-.1-.3-.1-.4-.1-.1-.2-.2-.4-.2.2 0 .3-.1.3-.1.2-.1.3-.3.3-.5 0-.3-.2-.5-.4-.6-.2 0-.3-.1-.6-.1h-.9zM54.66 22.8v-3.6h-6.68l3.44-5.7-3.09-1.9-3.54 5.9-3.53-5.9-3.09 1.9 3.44 5.7h-6.69v3.6h6.69l-3.44 5.8 3.09 1.8 3.53-5.9 3.54 5.9 3.09-1.8-3.44-5.8zm73.74-8.3l-1.3-2.2c-.5-.6-1.3-1.1-2.1-1.1h-2c-.8 0-1.6.5-2 1.1l-.8 1.3-10.6 17.8h4.9l2.5-4h13.4l2.6 4h5.6l-10.2-16.9zm-9.3 9l4.7-8.1 4.6 8.1h-9.3zm49.2 5.9s-.1.8.4 1.4c.5.6 1.8.5 1.8.5h19.8v-3.8h-17.1v-4.6h11.4v-3.6h-11.4v-4.5h16.6v-3.6h-19.3s-1.3-.1-1.9.5c-.4.6-.3 1.5-.3 1.5v16.2zm-28.4-18.2h13c7.9 0 12.2 3.4 12.2 10 0 4-1.8 6.7-4.8 8.5-2.1 1.3-4.9 1.6-8.7 1.6h-11.7V11.2zm11 16.1c6.3 0 9.3-.9 9.3-6.1 0-4.4-2.6-6.2-7.2-6.2h-8.2v12.3h6.1zM84.12 11.2h18.18c3.3 0 4.8 1.2 4.8 4.1v4.5c0 3-1.5 4.2-4.8 4.2h-.9l7.2 7.3H103L96.6 24h-7.64v7.3h-4.84V11.2zm4.84 3.7v5.4h11.14c1.6 0 2.2-.3 2.2-1.7v-2c0-1.4-.6-1.7-2.2-1.7H88.96zM70.47 31.3h-4.92V15h-9.76v-3.8h24.49V15h-9.81v16.3zm-37.5 0v-3.8H15.96v-4.6H27.4v-3.7H15.96v-4.4H32.6v-3.6H13.21s-1.3-.1-1.81.5-.39 1.4-.39 1.4v16.2s-.13.9.39 1.5c.51.6 1.81.5 1.81.5h19.74z"/></svg>