<svg xmlns="http://www.w3.org/2000/svg" version="1.2" viewBox="0 0 206.08 66.785"><path d="M5 31.065v.48h67.08v-.96H5v.48m95.04.72l.24-3.6.96-3.12 1.44-3 2.16-2.64 2.28-2.4 2.64-2.16 2.88-1.92 2.88-1.68 3-1.44 2.88-1.2 2.64-1.2 2.52-.72 1.92-.84 1.68-.48 1.2-.12h.48-.96l-1.44.12-2.28.48-2.64.6-2.88.96-3.12.96-3.48 1.2-3.36 1.68-3.36 1.92-3.24 2.16-2.88 2.4-2.64 2.76-2.28 3.12-1.44 3.36-.96 3.84-.24 4.44h73.44l-.48 3.36-.72 3.12-1.68 2.88-2.04 2.64-2.4 2.52-2.64 2.16-2.64 1.92-3 1.68-2.88 1.68-2.88 1.2-2.76.96-2.4.96-1.92.72-1.68.36-1.2.36h-.48.96c13.94-2.6 33.68-9.7 35.88-25.92l.24-4.08h-73.32m6 30h-.48l-.96-.36-1.92-.6-2.16-.48-3-.96-3.12-1.2-3.12-1.44-3.48-1.68c-4.74-2.33-11.62-7.69-13.8-12.6l-1.44-3.36-.84-3.84.24-4.2h-5.04l.24 4.56.96 4.2 1.68 3.6 2.52 3.12 2.88 2.88 3.12 2.76 3.36 1.92c7.29 4.15 15.44 6.28 23.64 7.68h.72m6.6 0h-.72l-1.56-.24-2.16-.48-2.64-.48-3-.96-3.36-.72-3.36-1.44-3.48-1.44c-5.6-2.48-12.39-6.11-15.48-11.64l-1.68-3.12-1.2-3.6-.48-4.2.48-4.08 1.2-3.6 1.92-3.36 2.4-3 3-2.64 3.36-2.4 3.36-1.92 3.72-1.68 3.36-1.44 3.6-1.2 3.24-.96 2.88-.72 2.4-.84 1.92-.24 1.2-.12h.6-.6l-1.2.12c-5.04 1.64-10.72 3.4-15.24 6.12l-3 1.68-2.88 2.16c-5.57 4.07-10.74 10.85-10.2 18.12l.24 3.72.96 3.6 1.68 3.12 2.28 2.64 2.4 2.76 2.64 2.4 2.88 1.92 3.24 1.92 3.12 1.44 2.88 1.44 3 .96 2.4.96 2.52.72 1.68.36 1.2.36h.48m6.24 0h-.96c-13.72-2.74-33.22-9-36.96-24.36l-.48-3.96.48-3.84 1.2-3.6 1.8-3.36 2.16-3 2.88-2.28 3-2.52 6.72-3.84 3.48-1.44 3.36-1.2 3.12-.96 3-.96 2.64-.6 1.92-.48 1.44-.12h.72-.72l-1.44.12c-3.77 1.12-8.69 3.09-12.12 4.92l-3 1.44-2.88 1.92c-4.61 3.06-9.05 7.52-10.92 12.84l-.96 3.36-.48 3.6.48 3.72c2.76 14.48 18.99 21.43 31.8 24.6h.72m6.84 0h-1.44c-12.92-2.28-33.76-10.03-36.48-24.6l-.48-3.72.48-3.6.96-3.36c2.44-5.71 7.41-9.64 12.36-13.08l3.48-1.68 3.36-1.68c4.76-1.67 9.42-3.75 14.4-4.68l1.92-.12h1.2-1.44l-1.68.36-2.28.6-2.4.6-2.64 1.32-2.64 1.2-2.88 1.44-2.76 1.68-2.64 1.92-2.76 2.16c-4.86 4.26-8.77 10.24-8.64 16.92l.48 4.2.96 3.84 1.68 3.36 1.92 3.12 2.76 2.76 2.64 2.16 2.88 1.92 3.12 1.68 3 1.44 3.12 1.2 2.64.96 2.4.48 2.28.48 1.68.48.96.24h.48m36-56.52h.48l.96.12 1.68.48 2.16.84 2.76.72 2.88.96 3.12 1.44 3.24 1.44c6.02 3.11 9.93 5.61 14.04 11.16l1.44 2.88 1.2 3.12.24 3.6h5.16l-.72-3.84-1.44-3.6-2.28-3.12c-5.9-8.81-23.78-15.25-34.2-16.2h-.72m-6.36 0h.72l1.44.12 2.28.24 2.64.84 2.88.72 3.24.96 3.6 1.2 3.36 1.44 3.6 1.68 3.48 2.16 3.12 2.16 3 2.64 2.4 3 1.68 3.36 1.2 3.6.48 4.08-.48 4.2-1.2 3.6-1.92 3.36-2.52 3-2.88 2.64-6.72 4.32-3.72 1.68-3.6 1.44c-4.74 1.83-9.27 2.76-14.16 3.84l-1.2.24h-.24.48c11.29-2.88 22.91-7.98 29.76-17.88l1.68-3.12.96-3.6.24-3.72c.57-7.45-4.74-13.8-10.2-18.12l-3.24-2.16-2.88-1.68c-4.84-2.87-10.28-4.45-15.6-6.12l-1.2-.12h-.48m-6.24 0h.6l1.56.12 2.16.48 2.4.6 3.24.72 3.12.96 6.72 2.88 3.72 1.68 3.12 1.92 3.24 2.4 2.88 2.64 2.16 3 2.04 3.36.84 3.36.6 4.08-.6 3.96-.84 3.6-2.04 3.12-2.16 2.88-2.88 2.76-3 2.16-3.36 2.16-3.48 1.68-6.72 2.88-3.36.96-3 .72-2.4.72-1.92.48-1.44.24h-.84.84l1.2-.36c3.68-1.24 9.16-2.84 12.36-4.68l3-1.68 2.88-1.68c5-3.56 8.35-7.21 10.92-12.84l.96-3.36.48-3.72-.48-3.84-.96-3.36c-1.92-5.64-6.48-10.16-11.52-13.08l-2.88-1.92-5.76-2.88-3-.96-2.4-.72-2.16-.84-1.92-.48-1.32-.12h-.6m-6.84 0h1.44l1.92.12c4.69.79 10.13 3.09 14.64 4.68l3.36 1.68 3.24 1.68c5.25 3.08 9.71 7.48 12.24 13.08l1.08 3.36.48 3.6-.48 3.72-1.08 3.36c-2.26 5.44-7.35 9.78-12.24 12.84l-3.48 1.92-3.48 1.44c-5.32 2.63-8.81 3.16-14.28 4.68l-1.92.36h-1.2l1.44-.24 1.68-.12c4.71-1.82 8.35-2.32 12.84-5.4l2.76-1.44 2.64-2.16c3.95-2.31 8.52-8.07 10.2-12.36l.72-3.12.48-3.48-.48-4.32-.96-3.6c-1.25-4.66-7.78-11.59-12.12-13.56l-3-1.68-3.12-1.44c-4.25-1.53-7.45-2.64-11.88-3.6h-1.44m-83.88 6.96v-.48l-.24-.48v-.72l-.24-.24h-.24v-.24l-.96-.48h-.24c-1.08-.15-2.04.16-2.76.96v1.2l.24.24.6.48.72.24 3.84.96 1.92.96 1.08.48.84.48.6.72.48.96.24 1.32v1.08l-.48 2.04-.48 1.44-1.2 1.2-1.32 1.2-1.44.72-1.68.72-1.92.24-2.04.24-2.64-.24-2.16-.48-1.44-.96-1.2-1.2-.96-1.2-.48-1.44-.24-1.44v-1.56h6.72v.72l.36.36v.84l.24.6.36.24.24.24.6.24h.6l.6.24h.48l.48-.24h.48l.24-.24h.48l.24-.24v-.24l.24-.24v-.6l-.24-.96-1.2-.72-1.8-.12-1.8-.6-2.04-.96-1.68-1.2-.96-1.92v-2.64l.24-1.44.72-1.44.96-1.2 1.2-.96 1.32-.84 1.68-.36 1.68-.24h1.92c3.64-.16 6.76.35 7.8 4.32l.24 1.2.24 1.68H58.4m17.52-6.6l-4.8 21.36H63.8l4.8-21.36h7.32m-27.48 0H29.72l-1.2 5.64h5.64l-3.48 15.72h7.08l3.6-15.72h5.88l1.2-5.64m-19.68 0l-1.2 5.64H16.64l-.48 2.4h9.24l-1.2 4.56h-9l-.72 3.24h10.68l-1.2 5.52h-18l4.8-21.36h18"/></svg>