<svg xmlns="http://www.w3.org/2000/svg" viewBox="0 0 627.68842 223.2637"><path d="M604.11 49.648c-.433 0-.433 0-.866.866l-2.165 5.196-2.6-5.196c-.432-.866-.432-.866-.865-.866h-.433c-.866 0-.866.433-.866.866v8.66c0 .433 0 .433.433.433h.432c.433 0 .433 0 .433-.433v-7.36l2.165 4.762c.433.433.433.866 1.3.866.432 0 .432-.433.865-.866l2.165-4.763v7.36c0 .434 0 .434.866.434.433 0 .866 0 .866-.433v-8.66c0-.433-.433-.866-1.3-.866h-.432zm-17.32 0c-.433 0-.866 0-.866.433v.434c0 .433.433.433.866.433h3.03v8.227c0 .433 0 .433.434.433h.433c.433 0 .433 0 .433-.433v-8.227h3.03c.434 0 .434 0 .434-.433v-.433c0-.432 0-.432-.433-.432h-7.36zM42.51 22.368c-11.26 0-20.352 11.26-20.352 25.98v127.303c0 14.723 9.093 25.98 20.35 25.98h.434l517.002-22.082c11.258-.433 20.784-9.96 20.784-20.784V65.236c0-10.825-9.526-20.35-20.784-20.784L43.374 22.37h-.865zm413.514 49.796c5.196 0 8.227 2.598 8.227 6.495 0 4.762-3.463 8.66-8.66 8.66-5.195 0-8.226-2.6-8.226-6.496 0-5.196 3.464-8.66 8.66-8.66zm-109.116 0h1.732c3.897 0 7.794 1.732 6.495 7.36l-4.763 22.95c3.464-5.196 9.093-8.66 16.454-8.66 10.825 0 19.918 7.794 19.918 22.083 0 16.454-10.392 32.042-26.846 32.042-7.36 0-14.29-3.465-17.32-9.96-2.165 6.495-5.196 9.093-11.258 9.093-2.598 0-5.196-1.3-5.196-1.732l13.856-65.815c1.3-5.63 3.03-7.36 6.928-7.36zm-270.192 0h37.67c4.33 0 6.93 1.732 6.93 4.763 0 1.732-.867 5.63-2.6 7.36-1.298 1.3-2.597 1.733-6.06 1.733H81.478l-3.465 16.454h22.95c3.896 0 6.06 1.732 6.06 4.33 0 1.732-.432 5.196-2.164 6.928-.865.866-2.597 1.732-5.628 1.732H74.984L71.52 133.65h30.743c4.33 0 6.495 1.732 6.495 4.33 0 1.732-.866 5.63-2.598 7.36-.866 1.3-2.598 1.733-6.062 1.733H62.86c-6.495 0-9.093-3.464-7.794-9.96L67.19 80.392c.866-5.628 4.33-8.226 9.526-8.226zm233.82 9.526c3.464 0 5.63 1.3 5.63 1.732l-2.6 12.124h8.66c3.465 0 5.63 1.3 5.63 3.897 0 1.3-.433 4.763-2.165 6.062-.865.866-2.164 1.732-5.195 1.732h-9.526l-4.33 21.217c-1.733 6.062.432 8.66 4.762 8.66 2.598 0 4.763-1.3 6.062-2.598.433-.433 2.598 1.3 2.598 4.33 0 2.598-.866 4.33-2.598 6.062-2.165 2.165-6.062 3.464-10.825 3.464-12.125 0-17.32-6.928-14.723-19.485l4.763-21.65h-2.598c-3.464 0-5.63-1.732-5.63-3.897 0-1.732.867-4.763 2.166-6.495 1.3-.866 2.165-1.3 5.196-1.3h3.03l.867-3.03c1.3-7.794 4.33-10.825 10.826-10.825zm177.097 0c3.464 0 5.63 1.3 5.63 1.732l-2.6 12.124h8.66c3.898 0 5.63 1.3 5.63 3.897 0 1.3-.433 4.763-2.165 6.062-.866.866-2.165 1.732-5.196 1.732h-9.526l-4.33 21.217c-1.732 6.062.433 8.66 4.763 8.66 2.597 0 4.762-1.3 6.06-2.598.434-.433 2.6 1.3 2.6 4.33 0 2.598-.867 4.33-2.6 6.062-2.164 2.165-6.06 3.464-10.824 3.464-12.124 0-17.32-6.928-14.722-19.485l4.763-21.65h-2.598c-3.465 0-5.63-1.732-5.63-3.897 0-1.732.866-4.763 2.165-6.495 1.3-.866 2.165-1.3 5.196-1.3h3.032l.866-3.03c1.3-7.794 4.33-10.825 10.825-10.825zM426.58 93.814c5.196 0 9.526 3.03 9.526 7.36 0 7.362-6.495 9.527-6.928 9.527-1.3-1.73-3.464-3.03-6.928-3.03-6.928 0-11.258 7.36-13.423 18.186l-3.03 14.29c-1.3 5.195-3.032 6.927-6.93 6.927h-1.298c-4.33 0-7.795-1.3-6.496-6.928l9.093-44.6c.433-.432 2.165-.865 4.33-.865 4.33 0 8.227 2.165 8.227 9.093 3.03-6.062 7.794-9.96 13.856-9.96zm-162.808.433c10.825 0 16.887 6.928 16.887 16.454 0 3.898-1.3 9.094-3.032 15.156-1.732 5.196-2.598 9.526-2.598 11.69 0 3.032 1.3 3.898 4.33 4.33 0 0-.866 6.063-9.093 6.063-6.928 0-10.392-3.465-10.392-9.094 0-3.03.866-6.928 2.598-12.557 1.3-4.764 2.598-9.094 2.598-11.26 0-5.195-3.03-8.226-8.66-8.226-5.195 0-8.66 2.165-11.69 7.36l-5.63 26.414c-1.298 5.196-3.03 6.928-6.927 6.928h-1.3c-4.33 0-7.793-1.732-6.494-6.928l9.092-44.6c.433-.432 2.165-.865 4.33-.865 4.33 0 8.227 2.165 8.227 9.093 4.33-6.062 9.958-9.96 17.752-9.96zm-61.92 0c12.99 0 20.352 6.062 20.352 15.155 0 10.392-6.928 16.887-29.877 16.887-3.03 0-6.495 0-10.392-.434v.433c0 6.927 4.33 11.69 12.557 11.69 6.928 0 11.69-3.03 15.155-7.794 0 0 6.495.866 6.495 5.63 0 3.03-.866 4.33-3.03 6.494-3.898 3.897-9.96 6.062-19.053 6.062-16.888 0-24.682-9.093-25.115-22.083.433-18.62 14.722-32.043 32.908-32.043zm335.576 0c12.99 0 20.35 6.062 20.35 15.155 0 10.392-6.927 16.887-29.876 16.887-3.03 0-6.495 0-10.392-.434v.433c0 6.927 4.33 11.69 12.557 11.69 6.928 0 11.69-3.03 15.155-7.794 0 0 6.495.866 6.495 5.63 0 3.03-.866 4.33-3.03 6.494-3.898 3.897-9.96 6.062-19.053 6.062-16.887 0-24.68-9.093-25.114-22.083.433-18.62 14.722-32.043 32.908-32.043zm-413.515 0c3.03 0 5.196.866 7.36 3.03 3.032 2.6 4.33 7.362 4.764 14.723l1.732 19.052 21.216-36.805s9.96.433 9.96 7.36c0 2.6-.867 4.33-3.032 7.795l-21.65 33.34c-2.598 3.898-6.495 4.764-9.526 4.764-3.897 0-7.794-1.3-8.227-5.63l-4.33-29.443c-.865-8.227-3.463-9.96-7.793-10.392 0 0 .866-7.793 9.526-7.793zm326.05.433h1.73c3.898 0 7.795 1.732 6.496 7.36l-6.93 32.043c-1.298 5.63 0 7.794 4.33 8.66 0 0-.865 5.196-8.66 5.196-9.958 0-12.123-6.063-10.39-14.29l6.927-31.61c.866-5.628 3.03-7.36 6.495-7.36zm-248.976 9.526c-7.794 0-14.29 5.63-17.32 12.557 2.598 0 5.196.433 7.36.433 14.29 0 18.62-3.464 18.62-7.36 0-2.6-3.03-5.63-8.66-5.63zm335.575 0c-7.794 0-14.29 5.63-17.32 12.557 2.598 0 5.196.433 7.36.433 14.29 0 18.62-3.464 18.62-7.36 0-2.6-3.03-5.63-8.66-5.63zm-174.932 1.3c-5.63 0-10.825 3.463-13.856 8.226l-1.732 7.36c-1.3 8.228 3.03 15.156 11.69 15.156 9.527 0 14.723-9.093 14.723-18.186 0-7.794-4.763-12.557-10.825-12.557z"/></svg>