<svg xmlns="http://www.w3.org/2000/svg" viewBox="0 0 372 350"><path d="M348.3 263.7c-4.6-.1-9 2.9-10.7 7.1-1.9 4.2-.9 9.4 2.3 12.7 3 3.3 8.1 4.5 12.3 2.9 4.4-1.5 7.6-5.8 7.8-10.4.3-4.5-2.3-9-6.3-11-1.7-.9-3.5-1.3-5.4-1.3zm0 1c4.5-.1 8.8 3 10.2 7.3 1.4 4.1 0 8.9-3.4 11.7-3.5 3-9 3.2-12.8.6-3.6-2.4-5.5-7.2-4.4-11.4 1.1-4.5 5.2-8 9.7-8.2h.7zm-4.1 16.4v-11.5c2.2 0 4.3-.1 6.5 0 1.6.1 2.9 1.7 2.7 3.3 0 1.5-1.3 2.7-2.8 2.9-.9 0 .9.6 1 1.1 1.1 1.3 1.9 2.8 2.8 4.2h-1.9c-1-1.5-1.9-3.1-3.1-4.5-.9-.9-2.2-.6-3.4-.6-.5-.1-.2.6-.3 1v4.1h-1.5zm1.5-6.5c1.6 0 3.1.1 4.6-.1 1.5-.1 2.1-2.2 1-3.1-1.1-.8-2.5-.5-3.8-.6h-1.8v3.8zM174.6 12A162.6 162.6 0 0 0 12 174.6a162.6 162.6 0 0 0 33.04 98c6.04-.3 10.17-1.8 10.82-4.4 0-2.9 0-7.3-.73-12.4-2.93-32.2-4.39-66.7-2.93-101.1-8.05.8-15.38.8-22.7 1.5.73-6.6.73-12.5 1.47-19.1 7.32-.7 14.64-1.4 22.7-2.2.73-5.1.73-10.9 1.46-16.1 3.66-32.91 38.81-52.68 67.37-60.74 13.2-2.93 21.2-4.39 27.1-4.39 2.2 0 4.4-.74 6.6 0 5.8 0 12.4 0 16.1 2.93 6.6 5.12 12.4 9.52 19 14.64.8.73 1.5 2.2 0 4.39-2.9 2.93-5.8 6.6-8.8 10.26-2.1 2.19-5.1 1.46-7.3.73-5.1-2.2-10.2-5.13-15.4-7.32-9.5-4.4-19-8.79-29.2-8.06-5.9 0-12.5 6.59-13.2 16.11-.8 13.95-1.5 28.55-2.2 43.95 18.3 0 36.6-.7 55.6-.7V143c-5.8 2.9-11.7 5.9-18.3 8.8-12.4.7-24.9.7-37.3.7-.8 37.4 0 74 1.4 107.7.8 5.1.8 10.2 2.2 13.9 1.5 4.4 11.8 7.3 33.7 8.8v11c-35.9-.8-69.82-4.2-97.12-9a162.6 162.6 0 0 0 119.22 52.2 162.6 162.6 0 0 0 162.5-162.5 162.6 162.6 0 0 0-27-89.67c-1.8 7.89-2.6 15.87-4.5 24.37-24.2-2.9-52.8-5.1-85-6.6-2.9 8.1-5.1 16.1-8 24.9 53.4 3.7 79.8 17.6 95.2 34.4 15.3 16.9 18.3 35.2 17.5 52.8-2.2 28.5-14.6 46.1-31.4 59.3-17.6 12.4-38.1 19-55 20.5-24.1 2.2-57.1-3.7-64.4-8.1-4.4-9.5-8.8-19.7-13.2-30-.7-2.2-1.5-4.4 1.5-7.3 4.4-4.4 8.8-9.5 13.9-13.9 2.2-1.5 5.1-3.7 6.6-.8 6.6 10.3 13.2 19.8 19 29.3 6.6 10.3 17.6 19.8 41 18.3 19.8-1.4 35.2-16.8 36.6-32.9 1.5-30-29.2-52-109.1-58.6 15.4-46.9 30.1-91.53 42.5-126.68 19 .73 36.6 2.2 53.5 4.39 12.5 1.39 23.7 4.08 35.4 5.61A162.6 162.6 0 0 0 174.6 12z"/></svg>