<svg xmlns="http://www.w3.org/2000/svg" viewBox="0 0 1077 361"><path d="M930.783 274.933c0-14.013 6.946-23.434 18.188-25.92-16.028-6.975-18.187-20.3-18.187-33.527V200.51c0-31.63 19.354-39.852 43.073-39.852h34.914c26.052 0 39.857 11.003 39.857 39.984v12.312c.107 5.7-1.57 24.032-17.273 26.728 14.34 2.68 17.38 21.665 17.273 31.564v19.804c0 34.142-21.165 39.41-40.087 39.41h-34.685c-41.907 0-43.073-26.29-43.073-38.646v-16.88zm47.642-44.007h23.073c13.143 0 14.875-6.764 14.875-14.286v-10.86c0-13.75-5.92-16.687-15.08-16.687h-21.72c-10.44 0-16.534 1.53-16.534 16.687v10.86c0 11.886 7.554 14.286 15.385 14.286zm1.147 71.083h21.622c10.033 0 15.18-4.764 15.18-13.814v-15.953c0-9.206-5.116-14.36-14.626-14.36h-23.323c-10.087 0-15.386 4.5-15.386 14.36v15.953c0 9.506 4.523 13.813 16.532 13.813zm-126.658-95.04c11.984 0 36.158.705 56.343 7.247v20.043s-22.017-1.37-42.526-1.37c-14.84 0-21.874.88-21.874 36.95 0 31.32 5.29 35.854 21.875 35.854 21.2 0 44.132-2.155 44.132-2.155v20.247c-17.895 9.103-38.82 7.6-57.947 7.828-22.8 0-40.323-11.93-40.323-62.45 0-50.408 16.822-62.196 40.322-62.196zM760.3 169.52c0-3.46 1.845-5.757 5.52-5.757h24.196c3.46 0 5.172 2.532 5.172 5.757v20.424c0 3.454-1.943 5.297-5.172 5.297H765.82c-3.214 0-5.52-2.07-5.52-5.297v-20.424zm1.16 38.59h32.265v122.35H761.46V208.11zm-95.447 0h27.194l5.07 15.44c8.473-8.187 19.88-16.692 35.09-16.692 5.29 0 10.372.204 13.632 1.457v31.143c-3.26-.313-10.742-.632-17.69-.632-13.345 0-23.06 2.185-31.033 13.62v78.013h-32.264V208.113zm-128.108-58.526h32.05v64.63c11.21-5.103 26.792-7.947 37.162-7.947 33.902 0 39.943 25.55 39.943 63.594 0 37.105-9.836 61.98-39.943 61.98-14.525 0-29.29-7.557-36.934-13.707l-5.736 12.324h-26.542V149.587zm60.85 154.682c10.41 0 16.05-8.387 16.05-35.667 0-31.233-5.88-37.042-16.05-37.042-11.157 0-20.143 1.332-28.57 4.603v60.563c6.877 4.438 16.454 7.545 28.57 7.545zm-184.026-16.51c0-17.797 9.616-33.562 35.853-33.562 0 0 35.94.24 35.94 0 0 0 .23-7.6 0-7.83 0-13.056-6.105-15.103-16.354-15.103-10.634 0-41.33 1.917-51.384 2.64V213.99c16.105-6.26 32.932-8.08 55.743-8.176 26.344-.113 44.25 8.995 44.25 39.273v85.374h-25.475l-6.78-13.478c-1.353 2.663-18.527 15.242-37.216 14.86-23.546-.632-34.58-16.658-34.58-32.57v-11.515zm43.704 18.165c13.5 0 28.09-9.473 28.09-9.473v-22.433l-29.604 2.293c-8.518.796-9.924 7.106-9.924 12.454v5.94c0 10.17 5.506 11.22 11.438 11.22zm-135.4-93.897l19.17-3.914V185.3c0-20.938 8.417-35.94 36.07-35.94 11.3 0 20.84 1.44 30.872 5.53v19.145c-.23 0-22.006-.228-22.006-.228-12.977-.228-12.67 6.27-12.67 19.093v15.213h27.762v24.657H374.47v97.69h-32.266v-97.69h-19.17v-20.744zm-60.65-84.182c-.66 0-1.19-.532-1.19-1.19V85.26c0-.658.53-1.19 1.19-1.19.654 0 1.19.533 1.19 1.19v41.393c0 .66-.536 1.19-1.19 1.19zm0-1.19V85.26m-9.744 42.584c-.655 0-1.19-.532-1.19-1.19V85.26a1.19 1.19 0 0 1 2.38 0v41.393c0 .66-.532 1.19-1.19 1.19zm0-1.19V85.26m-9.738 42.584c-.66 0-1.19-.532-1.19-1.19V85.26c0-.658.53-1.19 1.19-1.19.66 0 1.19.533 1.19 1.19v41.393c0 .66-.53 1.19-1.19 1.19zm0-1.19V85.26m-19.48 42.584c-.66 0-1.19-.532-1.19-1.19V85.26c0-.658.53-1.19 1.19-1.19.654 0 1.19.533 1.19 1.19v41.393c0 .66-.536 1.19-1.19 1.19zm0-1.19V85.26m9.736 42.584a1.188 1.188 0 0 1-1.187-1.19V85.26a1.188 1.188 0 0 1 2.377 0v41.393c.002.66-.53 1.19-1.19 1.19zm0-1.19V85.26m-21.69-8.047v57.5h63.115v-57.5h-63.115zm57.77 52.154h-52.42V82.56h52.42v46.807zM178.3 67.832c-.658 0-1.19-.53-1.19-1.187V25.25a1.19 1.19 0 0 1 2.38 0v41.396c0 .654-.53 1.186-1.19 1.186zm0-1.187V25.25m-9.743 42.582c-.655 0-1.187-.53-1.187-1.187V25.25a1.19 1.19 0 0 1 2.377 0v41.396c0 .654-.53 1.186-1.19 1.186zm0-1.187V25.25m-9.737 42.582a1.19 1.19 0 0 1-1.19-1.187V25.25a1.19 1.19 0 0 1 2.38 0v41.396c0 .654-.53 1.186-1.19 1.186zm0-1.187V25.25m-19.48 42.582c-.66 0-1.19-.53-1.19-1.187V25.25a1.19 1.19 0 0 1 2.38 0v41.396a1.19 1.19 0 0 1-1.19 1.186zm0-1.187V25.25m9.74 42.582c-.66 0-1.19-.53-1.19-1.187V25.25a1.19 1.19 0 0 1 2.38 0v41.396a1.19 1.19 0 0 1-1.19 1.186zm0-1.187V25.25m-21.694-8.045v57.493H190.5V17.205h-63.114zm57.77 52.15h-52.42V22.55h52.42v46.805zM94.217 105.73c-.66 0-1.19-.53-1.19-1.19V63.153a1.19 1.19 0 0 1 2.38 0v41.388c0 .66-.53 1.19-1.19 1.19zm0-1.19V63.153m-9.74 42.58c-.66 0-1.19-.533-1.19-1.19V63.15a1.19 1.19 0 0 1 2.38 0v41.388c0 .66-.535 1.19-1.19 1.19zm0-1.19V63.15m-9.745 42.58c-.65 0-1.19-.533-1.19-1.19V63.15a1.193 1.193 0 0 1 2.384 0v41.388c0 .66-.53 1.19-1.194 1.19zm0-1.19V63.15m-19.477 42.58c-.66 0-1.19-.533-1.19-1.19V63.15c0-.66.532-1.19 1.19-1.19.66 0 1.19.532 1.19 1.19v41.388c0 .66-.53 1.19-1.19 1.19zm0-1.19V63.15m9.74 42.58c-.658 0-1.19-.533-1.19-1.19V63.15a1.19 1.19 0 0 1 2.38 0v41.388c0 .66-.535 1.19-1.19 1.19zm0-1.19V63.15m-21.693-8.056v57.5h63.116v-57.5H43.302zm57.77 52.154h-52.42v-46.8h52.42v46.8zM47.78 122.357c-4.02.056-6.905 1.832-6.905 1.832l5.26 5.26s1.753-4.56 5.96-.352c4.212 4.208-1.75 10.867-3.503 12.62-1.756 1.754-5.613 5.61-9.82 4.21-4.212-1.403-.352-10.166-.352-10.166l-10.877-4.56c-3.856 3.86-2.104 13.323 2.46 17.886 4.56 4.56 10.52 6.312 10.52 6.312-10.523 10.523 9.467 24.9 16.13 31.565 6.114 6.113 27.26 18.99 41.277 23.517 3.645 29.26 5.67 66.862 5.67 66.862 3.968 0 14.55 6.617 14.55 6.617.25.075.49.137.74.21-.187 8.084-.8 23.552-2.888 37.478 0 0 15.87 4.962 19.344 10.913 0 0 28.266-2.977 32.732-1.984v-9.422l-13.39-5.95.84-23.92c9.132.873 17.512 1.01 24.972.71.387 5.882.66 16.134-.564 29.63 0 0 9.426 4.46 16.86 9.42 0 0 21.33-1.983 26.784-.99v-7.443l-12.894-7.436v-27.176c4.726-1.133 7.316-2.06 7.316-2.06 5.996-20.607 8.378-45.87 9.32-63.913 11.898-4.116 29.036-14.61 34.088-19.664 5.668-5.663 22.66-17.886 13.717-26.83 0 0 5.067-1.492 8.94-5.366 3.88-3.878 5.37-11.928 2.095-15.207l-9.246 3.875s3.28 7.458-.3 8.652c-3.575 1.19-6.854-2.09-8.348-3.584-1.49-1.49-6.556-7.152-2.98-10.728 3.578-3.583 5.07.293 5.07.293l4.472-4.475s-7.755-4.77-14.908 2.39c-7.154 7.156-5.067 14.015-5.067 14.015L227.12 198.14c-9.573-6.093-19.123-10.873-28.47-14.59-1.83-15.74-18.15-28.054-38.01-28.054-14.65 0-27.366 6.697-33.773 16.524-16.89.944-29.12 4.11-33.687 5.466l-28.81-34.013s2.456-8.065-5.96-16.48c-3.683-3.682-7.5-4.68-10.63-4.636zm7.866 30.862s-4.724 14.992 10.247 28.202c14.973 13.21 29.226 22.18 29.226 22.18-11.448-2.64-32-14.972-37.577-20.55-5.578-5.577-22.307-17.615-13.502-26.42 0 0 8.375-.187 11.606-3.413zm95.012 5.38c-10.06 3.45-13.084 11.527-13.084 11.527h-6.695c9.55-9.545 19.778-11.527 19.778-11.527zm15.303 8.048a19.56 19.56 0 0 1 3.73.286c6.817 1.172 11.752 5.566 11.023 9.822a4.96 4.96 0 0 1-.2.78 167.58 167.58 0 0 0-24.517-4.682c.012-.115.012-.228.03-.342.59-3.453 4.743-5.752 9.935-5.864zm-63.923 13.14c7.72.2 13.183 3.398 16.988 8.388 15.45-.16 77.545.086 96.168 13.943 0 0-43.39-11.996-92.316-7.06 9.355 22.934-.43 63.6-.43 63.6 0-80.346-22.318-78.86-22.318-78.86.65-.022 1.286-.027 1.907-.01zm54.47 21.942c17.494.13 35.114 2.385 52.51 5.995 5.557 1.224 9.533 7.315 9.028 13.398-1.13 12.204-2.265 24.662-3.4 37.344-.426 5.418-4.75 10.52-9.79 11.217-.008 0-.013.004-.02.004a230.128 230.128 0 0 1-58.13.037c-6.427-.865-11.98-6.923-12.316-13.155a25534.5 25534.5 0 0 0-2.355-40.23c-.38-6.825 4.68-13.237 11.393-14.252.325-.048.654-.078.99-.098 4.02-.206 8.05-.29 12.088-.26zm-4.5 6.53c-2.688-.014-5.374.016-8.054.092a6.043 6.043 0 0 0-4.527 2.238c-1.06 1.295-1.583 2.982-1.49 4.768a41358.8 41358.8 0 0 1 2.36 41.478c.166 3.14 3.1 6.155 6.42 6.51a283.68 283.68 0 0 0 16.288 1.187c-3.028-3.692-4.887-8.567-4.887-13.8-.004-15.32 10.28-21.874 10.283-21.88-3.692 8.793-.347 6.133-.347 6.14 12.113-6.487 7.04-21.89 7.037-21.893 17.512 13.113 5.004 32.47 5.004 32.537-.75 1-1.198 2.286-1.198 3.686 0 3.178 2.296 5.734 5.122 5.672 2.83-.064 5.12-2.687 5.12-5.82a6.096 6.096 0 0 0-.64-2.733v-.093c2.202 3.07 5.486 9.58.266 18.17 5.373-.246 10.74-.63 16.086-1.186 1.94-.21 3.716-2.38 3.896-4.7a.11.11 0 0 1 .006-.038v-.04a13315.4 13315.4 0 0 1 3.408-38.445c.127-1.715-.34-3.398-1.287-4.652-.453-.598-1.218-1.36-2.316-1.554-18.737-3.347-37.73-5.552-56.55-5.646zm20.62 43.765c-1.48 0-6.104 6.61-6.522 12.63a283.4 283.4 0 0 0 9.252.177 7.18 7.18 0 0 0-.568-1.838c-1.78-3.52-2.167-10.97-2.163-10.97zm-38.938 47.803c2.313 3.635 4.63 19.175 4.63 19.176 5.95 0 18.512 2.978 18.512 2.978-6.278 0-21.82 1.65-21.82 1.65l-1.323-23.804zm64.456 8.324l3.137 12.73c9.924.003 16.04 2.15 16.04 2.15-4.96-.66-18.848.33-18.848.33l-.33-15.21z"/></svg>