<svg xmlns="http://www.w3.org/2000/svg" viewBox="0 0 771.66522 134.48984"><path d="M101.965 112.454c-.062-.055-1.656-.174-3.542-.264-4.074-.195-6.343-.726-9.428-2.207-3.96-1.902-6.756-5.027-8.167-9.13-.75-2.182-1.08-7.994-.6-10.572 1.014-5.44 4.3-9.712 9.34-12.142 3.686-1.78 11.477-3.638 19.764-4.717 8.855-1.152 12.43-2.62 13.7-5.628.52-1.225.494-4.48-.046-6.302-.833-2.805-3.435-5.293-6.478-6.197-4.124-1.225-11.35-1.103-15.377.26-4.807 1.626-7.33 4.594-7.907 9.3l-.228 1.858-5.12.08c-2.818.042-5.216-.022-5.33-.143-.38-.405.56-5.735 1.388-7.867 2.625-6.76 8.404-11.107 17.213-12.946 2.584-.54 11.96-.777 15.276-.387 9.147 1.078 14.8 4.99 16.803 11.633.542 1.797.585 2.835.674 16.488.197 30.44.094 28.52 1.577 29.313.727.39 3.302.378 4.348-.02l.738-.28v8.3l-.974.407c-2.494 1.042-7.343 1.414-9.757.748-3.206-.884-5.307-3.585-5.71-7.34l-.2-1.872-2.036 1.96c-1.12 1.08-2.657 2.385-3.415 2.9-3.287 2.24-8.693 4.092-12.956 4.442-1.23.1-2.506.24-2.836.306-.33.07-.652.08-.715.024zm9.612-10.293c5.698-1.81 9.792-5.58 11.277-10.39.49-1.582.568-2.657.568-7.804 0-3.284-.054-5.97-.12-5.97s-.753.318-1.528.708c-1.965.987-4.04 1.432-11.996 2.57-3.812.546-7.726 1.2-8.698 1.45-4.38 1.136-7.83 3.598-9.11 6.5-.94 2.13-.97 6.653-.055 8.375 1.91 3.596 4.763 5.13 10.222 5.49 3.575.238 6.75-.075 9.44-.93zM270.41 112.2c-3.626-.313-6.994-1.2-10.098-2.657-9.556-4.487-14.828-12.85-16.46-26.11-.547-4.444-.55-6.227-.015-10.17.477-3.51.54-3.81 1.354-6.41 3.623-11.562 12.136-19.332 23.33-21.292 2.825-.494 7.102-.54 10.227-.112 11.593 1.592 20.416 10.842 23.24 24.365.568 2.72 1.13 8.013 1.134 10.683l.003 1.5H254.84l-.024.643c-.182 4.81 1.105 9.433 3.608 12.952 2.118 2.978 4.89 5.016 8.814 6.478 2.064.77 2.755.878 6.358 1 3.147.107 4.524.03 6.215-.346 5.704-1.27 9.575-4.838 11.33-10.443l.49-1.57 5.208-.078 5.208-.078-.19 1.014c-.34 1.808-1.592 5.335-2.63 7.404-1.353 2.694-2.555 4.286-4.932 6.528-5.612 5.295-13.745 7.576-23.883 6.7zm21.286-40.3c0-1.587-1.083-5.31-2.21-7.6-2.103-4.272-6.835-8.106-11.54-9.348-2.454-.65-7.212-.636-9.677.025-4.688 1.257-8.826 4.6-11.095 8.96-1.28 2.46-2.334 5.993-2.334 7.82v1.097h36.856V71.9zm170.44 40.31c-11.127-.926-20.172-7.725-23.912-17.974-3.752-10.28-3.746-21.694.016-30.696 3.02-7.227 8.907-13.29 15.65-16.116 3.58-1.5 6.18-2.038 10.65-2.198 6.79-.244 11.515.914 16.202 3.97 8.542 5.57 13.543 15.777 14.007 28.586l.152 4.214h-48.444l.186 2.654c.39 5.527 2.156 9.672 5.58 13.086 3.847 3.837 8.013 5.39 14.46 5.392 5.65 0 9.393-1.285 12.456-4.282 1.708-1.67 3.406-4.632 3.993-6.963l.332-1.316h10.453l-.39 1.642c-3 12.69-12.255 19.827-26.13 20.15-1.492.034-3.86-.033-5.26-.15zm21.394-40.713c-1.122-8.116-5.606-13.78-12.85-16.23-1.915-.648-2.788-.774-5.425-.786-5.585-.025-9.15 1.383-12.872 5.086-3.22 3.2-5.13 7.116-5.682 11.645l-.2 1.644h37.217l-.187-1.357zM22 66.567V22h58.567v10H34v28.283H74.852v10H34v40.854H22v-44.57zm123.99 0V22h10.572v34.107l1.018-1.697c3.674-6.127 11.624-9.56 21.266-9.183 6.77.265 11.082 1.86 14.718 5.45 2.5 2.467 4.146 5.615 5.056 9.663.575 2.556.602 3.573.715 26.727l.116 24.07h-10.604l-.005-22.5c-.004-24.502-.025-24.856-1.623-28.013-1.038-2.053-3.625-4.413-5.676-5.18-2.52-.943-5.406-1.24-8.6-.884-8.096.903-13.13 5.156-15.563 13.15-.65 2.134-.653 2.24-.746 22.785l-.092 20.642H145.99v-44.57zm64.283 12.286V46.57h10v13.832l1.356-2.36c2.987-5.192 6.382-8.617 10.562-10.654 2.764-1.348 6.67-2.238 9.843-2.243l2.192-.004.03 5.572.032 5.57-1.225.038c-1.313.04-1.496.056-4.024.372-8.207 1.027-13.923 5.6-16.453 13.165-1.546 4.625-1.744 7.49-1.744 25.295v15.985h-10.57V78.853zm99.707 0V46.57h9.986l.078 5.193.078 5.193 1.1-1.784c2.138-3.464 5.92-6.61 9.854-8.2 3.675-1.484 4.984-1.69 10.616-1.664 4.9.022 5.472.08 7.85.803 8.02 2.44 12.09 7.38 13.43 16.316.355 2.358.43 6.86.43 25.784l.004 22.927H352.837l-.004-22.784c-.005-24.824-.007-24.867-1.633-27.854-1.082-1.987-3.7-4.32-5.682-5.06-4.926-1.844-11.885-1.173-16.435 1.585-3.466 2.1-6.463 6.314-7.742 10.886-.608 2.18-.624 2.686-.72 22.728l-.1 20.5h-10.538V78.852zm64.28-12.285V22h10.867l-.01 16.5c-.004 9.073-.003 16.755.004 17.07.008.354.352-.055.91-1.082 2.042-3.766 7.004-7.118 12.658-8.552 2.22-.563 3.254-.65 7.57-.627 5.6.026 7.75.435 11.246 2.14 5.39 2.628 8.356 6.897 9.81 14.12.393 1.958.475 5.66.576 25.925l.117 23.642h-10.88l-.077-23.784-.078-23.784-.673-1.67c-1.345-3.334-4.193-5.893-7.756-6.97-2.098-.633-7.452-.617-10 .03-6.222 1.58-10.375 5.64-12.61 12.323l-.67 2-.084 20.927-.084 20.927H374.26v-44.57zm127.707 12.285V46.57h10.856V111.137h-10.856V78.853zm36.624 31.967c-6.775-.84-9.296-3.52-10.057-10.683-.15-1.414-.275-11.924-.277-23.355l-.005-20.784h-10.856V46.57H528.242l.075-9.642.075-9.643h10.57l.075 9.643.075 9.642h12.87l-.036 4.714-.037 4.714h-12.806V77.31c0 23.513-.07 22.57 1.79 23.697.794.48 1.627.58 5.924.702l5 .142.08 4.65.077 4.653-5.792-.056c-3.186-.03-6.603-.157-7.594-.28zm24.358-1.04c.073-.747.205-2.326.294-3.51.59-7.866 4.594-15.692 11.325-22.14 3.44-3.294 10.11-8.227 20.536-15.187 5.724-3.82 8.058-5.778 10.1-8.468 2.77-3.654 3.605-5.943 3.61-9.917.008-5.816-2.355-9.823-7.14-12.103-1.79-.854-1.99-.885-5.713-.885-3.683 0-3.926.037-5.394.81-4.844 2.55-7.212 6.894-8.436 15.475-.067.47-.132 1.468-.145 2.214l-.024 1.356H564.74l.188-3.62c.867-16.66 9.572-27.936 24.035-31.132 2.842-.628 9.292-.832 12.503-.396 12.834 1.742 22.16 9.775 24.68 21.26.594 2.704.593 9.328-.003 12.03-1.253 5.697-3.95 10.446-8.38 14.75-2.95 2.866-4.676 4.16-12.63 9.463-7.9 5.267-9.51 6.426-13.06 9.407-2.022 1.698-5.5 5.462-5.777 6.25-.06.17 7.526.272 20.356.272h20.45v15.427h-64.285l.132-1.357zm91.58-26.924v-28.28L643.6 54.5l-10.928-.074V41l3.714-.188c7.66-.385 12.508-2.25 16.608-6.39 2.354-2.377 4.17-5.683 4.78-8.708l.375-1.857 7.045-.076 7.046-.076V111.137H654.53v-28.28zm30.954 25.46c.362-5.537 1.43-9.496 3.787-14.062 4.06-7.862 10.606-13.674 29.11-25.846 6.77-4.453 10.975-9.064 12.36-13.553.645-2.097.637-6.71-.017-8.892-1.112-3.712-4.26-6.874-7.968-8-1.608-.49-2.528-.58-5.03-.493-2.675.092-3.274.21-4.773.94-4.778 2.324-7.806 8.152-8.374 16.117l-.197 2.756-8.498.076-8.5.075.004-2.79c.007-11.59 5.24-22.24 13.61-27.696 5.646-3.682 11.567-5.162 19.49-4.873 8.666.316 15.428 3.06 20.922 8.494 4.11 4.065 6.323 8.244 7.285 13.76.618 3.542.415 9.426-.436 12.668-1.18 4.49-3.708 8.856-7.224 12.47-3.116 3.205-5.067 4.704-13.067 10.038-4.014 2.676-8.79 6-10.61 7.384-3.16 2.402-6.796 5.897-8.21 7.89l-.66.93h41.18v15.427h-64.368l.185-2.82zM502.172 34.49c-.077-.204-.162-3.096-.188-6.43l-.047-6.06h10.886v12.856h-5.255c-4.02 0-5.288-.086-5.396-.367z"/></svg>