<svg xmlns="http://www.w3.org/2000/svg" viewBox="-1.772 -1.772 189 63.27"><path d="M167.6 2.465c-8.4 0-15.2 6.832-15.2 15.265v11.81c0 1.92 1.5 3.46 3.4 3.46h11.8c8.4 0 15.3-6.84 15.3-15.26 0-8.436-6.9-15.273-15.3-15.273zm4.5 3.626c4 0 7.1 3.21 7.1 7.17 0 3.95-3.1 7.13-7.1 7.13h-3.8v3.8c0 3.97-3.1 7.18-7.1 7.18-4 0-7.2-3.21-7.2-7.18 0-3.96 3.2-7.13 7.2-7.13h3.8v-3.8c0-3.96 3.1-7.17 7.1-7.17zm0 3.367c-2 0-3.8 1.713-3.8 3.803v3.25c0 .29.3.55.6.55h3.2c2.1 0 3.8-1.71 3.8-3.8s-1.7-3.803-3.8-3.803zM161.2 20.39c-2.1 0-3.8 1.72-3.8 3.8 0 2.1 1.7 3.8 3.8 3.8 2.1 0 3.8-1.72 3.8-3.8v-3.28c0-.29-.3-.52-.6-.52h-3.2z" opacity=".333"/><path d="M164.9 17.05v-3.79c0-3.962 3.2-7.17 7.1-7.17.6 0 1.1.06 1.6.214.9.212 1.5.876 1.5 1.648 0 .935-.7 1.614-1.7 1.614-.5 0-.7-.09-1.4-.09-2.1 0-3.7 1.684-3.7 3.774v3.27c0 .29.2.53.5.53h2.5c.9 0 1.7.74 1.7 1.67 0 .93-.8 1.67-1.7 1.67h-3v3.81c0 3.95-3.2 7.16-7.2 7.16-.6 0-1-.1-1.6-.21-.8-.21-1.4-.88-1.4-1.65 0-.94.6-1.62 1.7-1.62.4 0 .6.1 1.3.1 2.1 0 3.8-1.69 3.8-3.78v-3.28c0-.3-.3-.54-.5-.54h-2.5c-.9 0-1.7-.74-1.7-1.66 0-.94.8-1.67 1.7-1.67h3m-24.1 19.58c4.5 0 7.4 3.58 7.4 7.91 0 4.34-2.9 7.89-7.4 7.89-4.4 0-7.3-3.55-7.3-7.89 0-4.33 2.9-7.91 7.3-7.91zm-47.14 0c4.45 0 7.34 3.58 7.34 7.91 0 4.34-2.89 7.89-7.34 7.89-4.46 0-7.37-3.55-7.37-7.89 0-4.33 2.91-7.91 7.37-7.91zm-29.87 0c4.45 0 7.27 3.41 7.27 7.91 0 4.51-2.82 7.89-7.27 7.89-4.45 0-7.28-3.55-7.28-7.89 0-4.33 2.83-7.91 7.28-7.91zm-29.53-.26c3.68 0 6.35 2.6 6.84 6H27.42c.55-3.56 3.11-6 6.84-6zm106.54-4.59c-7 0-12.8 5.7-12.8 12.76 0 7.07 5.6 12.73 12.3 12.73 3.4 0 6.4-1.72 7.7-3.53l.7 1.68c.4.94 1.3 1.62 2.3 1.62 1.4 0 2.5-1.11 2.5-2.49V44.54c.1-6.84-4.8-12.76-12.7-12.76zm-16 0c-3.8 0-6.2 1.12-8.4 3.89l-.2-1.3c-.2-1.34-1.3-2.38-2.7-2.38a2.7 2.7 0 0 0-2.7 2.72v19.58c0 1.5 1.2 2.72 2.7 2.72 1.5 0 2.7-1.22 2.7-2.72v-10.5c0-4.78 4.2-7.19 8.6-7.19 1.3 0 2.4-1.1 2.4-2.43 0-1.34-1.1-2.42-2.4-2.42zm-31.14 0c-7.07 0-12.76 5.7-12.76 12.76 0 7.07 5.69 12.73 12.76 12.73 7.04 0 12.74-5.66 12.74-12.73 0-7.06-5.7-12.76-12.74-12.76zm-59.4 0c-7.06 0-12.55 5.7-12.55 12.76 0 7.07 5.66 12.73 12.73 12.73 3.89 0 7.84-1.67 10.18-4.17.5-.5.78-1.15.78-1.77 0-.44-.16-.89-.44-1.28-.44-.55-1.13-.9-1.8-.9-.5 0-.93.11-1.32.5-1.95 1.89-4.39 3.08-7.23 3.08-4 0-7-2.81-7.28-6.53H44.5c1.06 0 2.03-.71 2.03-1.77 0-7.17-5.26-12.65-12.27-12.65zm-16-12.67c-5.64 0-10.21 4.58-10.21 10.21v3.19H4.72c-1.23 0-2.24 1.01-2.24 2.23 0 1.23 1.01 2.47 2.24 2.47h3.33v17.11a2.725 2.725 0 0 0 5.45 0V37.21h3.68c1.22 0 2.24-1.24 2.24-2.47 0-1.22-1.02-2.23-2.24-2.23H13.5v-3.19c0-2.62 2.13-5.1 4.76-5.1h.72c1.49.22 2.89-.46 3.1-1.94.22-1.5-.83-2.86-2.32-3.08-.49-.1-1-.11-1.5-.11zm55.53-.1c-1.5 0-2.73 1.17-2.73 2.67v14.36c-1.39-2.56-4.38-4.3-7.94-4.3-7.23 0-12.07 5.48-12.07 12.76 0 7.3 5 12.73 12.07 12.73 3.15 0 5.87-1.3 7.51-3.56l.61 1.54c.37 1.05 1.4 1.79 2.58 1.79 1.5 0 2.7-1.2 2.7-2.69v-32.6c0-1.53-1.23-2.7-2.73-2.7z"/></svg>
