<svg xmlns="http://www.w3.org/2000/svg" viewBox="0 0 944.03 365.64"><path d="M901.47 313.95l6.26 18.41h.1l5.93-18.41h8.27v26.77h-5.5v-18.98h-.1l-6.55 18.98h-4.54l-6.56-18.78h-.1v18.78h-5.53v-26.77zm-33.12 4.88v-4.95h21.95v4.95h-8.03v21.82h-5.88v-21.82zm-107.09-40.5c-52.71 0-95.46-42.72-95.46-95.44 0-52.71 42.75-95.435 95.46-95.435 52.71 0 95.44 42.725 95.44 95.435 0 52.72-42.73 95.44-95.44 95.44m0-256.175c-88.81 0-160.74 71.975-160.74 160.735 0 88.78 71.93 160.75 160.74 160.75 88.8 0 160.75-71.97 160.75-160.75 0-88.76-71.95-160.735-160.75-160.735M582.16 251.95c-17.09 16.24-40.21 26.25-65.68 26.25-52.7 0-95.42-42.75-95.42-95.46 0-52.7 42.72-95.427 95.42-95.427 25.13 0 47.95 9.712 65.02 25.587a193.194 193.194 0 0 1 33.83-56.85C588.07 34.75 553.77 22 516.48 22c-88.78 0-160.73 71.975-160.73 160.74 0 88.77 71.95 160.73 160.73 160.73 37.87 0 72.64-13.11 100.1-35-14.5-16.58-26.22-35.67-34.42-56.52m-250.15 88.5h-66.74V29.08h66.74zM244.46 95.83V29.093H22V340.52h66.75V229.29h133.47v-66.72H88.75V95.83z"/></svg>