<svg xmlns="http://www.w3.org/2000/svg" viewBox="0 0 1547 605"><path d="M865.5 123.3l-4 .8c-2.2.5-24.7 4.7-50 9.4s-47 8.7-48.2 9c-1.8.4-2.2 1.1-2 4.3.2 3.4.5 3.8 4.2 4.6 12.7 2.8 15 3.8 19.7 8.6 5.7 6 8.4 13.6 10.1 29.5 1.3 12.7 1.6 230.9.3 263.1l-.7 19.1 10.3 2.2c39 8.4 77.9 11.3 102.3 7.6 30.4-4.5 52.6-15 71.5-33.5 27-26.7 40-64.5 39-111-1-23.9-5-39.6-15-59-13.6-26.3-36.5-44.7-62.7-50.1-19.5-4.1-44.8-.9-63.9 8.1-4.8 2.2-9.4 4-10.2 4-1.3 0-1.4-7.4-1.1-58.3l.4-58.4zM77.9 130l.3 6.3.3 6.2 9 1.1c12.01 1.5 16.4 2.8 21.2 6.3 7.4 5.3 11.9 13.1 14.7 25.4 4.4 19.1 6 62.2 5.3 142.7-.8 85.1-1.9 102.8-7.3 120-4.5 14.1-12.8 21.6-26.49 23.9-3.78.6-9.13 1.6-11.89 2.2L78 465.2V476h179v-5.5c0-3-.3-5.5-.6-5.5-4.8 0-27-4.8-30.6-6.6-12.7-6.4-18.5-21.6-20.8-53.9-1.6-23-3.2-90.7-2.2-91.7s43.2.7 48.2 1.9c13.6 3.3 24.2 16.7 29.4 37.6l2.4 9.2 6.1.3 6.1.3V246h-6.5c-6.1 0-6.5.2-6.5 2.3 0 3.8-3.8 15.8-7.4 23.3-5.6 11.9-13.5 19-23.6 21.3-2.5.6-14.2 1.5-26 2.1-16.6.7-21.6.7-22.3-.3-1.1-1.7 1.5-133.4 2.8-139.5l.5-2.3 36.8.3 36.7.3 8.5 3.1c19.8 7.1 34.1 21.5 46 46.6 2.6 5.7 6.1 13.9 7.6 18.3s2.8 8.2 2.9 8.3c.2.2 3.5-.6 7.3-1.8l7.1-2.2-.5-32.6c-.3-18-.7-39.6-1.1-47.9l-.5-15.3H77.9zm670.5 92.2c-1.1 0-2.2 0-3.4.1-24.8 1.4-46.9 17.9-62.7 46.9-2.7 4.9-5.4 8.8-6.1 8.8-1 0-1.1-5.5-.6-27.5l.7-27.6-2.4.6c-1.3.3-21.3 4.3-44.4 9-49.6 9.9-56.5 11.4-57.6 12.1-.5.3-.9 2.1-.9 4 0 3.7-.5 3.5 10.8 5.3 15.5 2.5 20.9 10.1 23.2 32.1 3.1 28.8 1.9 140.9-1.6 156.2-1.8 7.8-6.4 15.4-11 18-1.8 1-7.2 2.6-12 3.6l-8.9 1.7-.3 5.3-.3 5.2H718v-10.8l-7.8-.7c-17.8-1.5-22.7-3.3-27.4-10-6.8-9.8-8.3-27.9-8.3-101.1v-57.2l2.5-2.7c3.1-3.3 12.9-7.9 19.8-9.4 14-2.9 32-.4 46 6.5 4 2 7.5 3.4 7.7 3.2.4-.4 23.5-61.3 24.2-63.9.3-1.1-1-2.2-4.9-3.7-7.3-2.9-13.7-4.2-21.4-4zm-298.9.8c-35.9 0-64.8 11.2-87.1 33.5-23.8 24-36.4 57.5-36.4 96.7 0 40.8 11.4 73.7 33.5 96.7 12.1 12.7 24 20.3 41 26.4 6 2.1 10.4 3.1 26.5 6.1 1.4.3 10.6.3 20.5.1 13.4-.3 20.2-.9 26.5-2.3 17.7-4.2 31.9-10.5 44.5-19.9 30.8-23 47.6-58.2 49.2-102.8 1.5-43.9-11.7-81.3-37.4-105.5-20.7-19.6-46.9-29-80.8-29zm712.5 0c-34 0-62 11.3-84 33.9-18 18-28 38.2-34 66.6-2 8.6-2 13-2 31 0 17.9 0 22.5 2 30.7 11 52.5 46 87 96 95.9 12 2.2 31 2.4 43 .4 23-3.8 46-14.9 62-30.4 9-8.5 12-12.6 11-14.8-3-5.7-3-5.7-12-.5-13 8.3-20 10.6-36 12.3-18 1.9-36-1.2-51-9.4-11-5.4-24-17.8-30-29-8-15.3-13-33.1-14-56-1-9.7-1-12.1 0-12.8 1-.5 34-.9 75-.9h73v-2.9c0-6.6-2-24.2-4-33.5-8-37.3-28-63.8-58-74.5-11-4.3-22-6.1-37-6.1zm219 .6c-22 0-24 .2-33 2.6-27 7.3-47 22.3-57 43.2-5 11.2-7 19.7-7 33.1 0 19 5 33.1 17 45.4 9 10.5 22 18 44 26.1 17 6.4 35 15.2 42 20.8 4 3.3 7 7.1 9 11.3 3 6.1 4 6.9 4 16.4 0 9.2-1 10.6-4 16.7-7 16.1-22 24-42 22.4-27-2.2-46-20.1-62-57.9-4-9.8-4-10-10-7.7l-3 1.1 1 35.2c0 31.3 0 35.4 2 36.5 4 3.4 33 10.2 53 12.6 16 1.9 39 1.9 51 .2 43-6.5 70-29.3 77-64.1 4-16.8 2-35.5-4-48-8-17.5-23-28-58-43-26-11-42-20.4-48-28.9-6-6.9-7-12.3-7-21.6 0-14 5-24.7 15-31.4 9-5.6 19-7 32-4.1 15 3.6 26 12.7 36 29.7 3 5.4 10 20.6 13 30 1 1.4 1 1.5 5 .5 2-.7 4-1.5 5-1.9V267l-1-31.2-4-1.5c-6-2.6-22-7-32-8.9-8-1.5-15-1.8-34-1.8zM443.6 240c9.6 0 14.9 2.4 22.4 9.9 17.9 18.1 26.4 52.5 26.3 106.6-.1 43.2-4.4 70.4-14 88.8-4.7 8.9-13.4 17.1-20.5 19.2-27.4 8.1-46.9-17.9-54.5-72.5-2.5-17.6-2.4-65.6 0-85.8 5.4-43.9 18.9-66.1 40.3-66.2zm713.4.1c17-.1 28 23.8 30 67.3v12.4l-17 .6c-10 .3-26 .7-36 .9l-19 .3v-4c0-2.3 1-8.1 2-13.1 6-40.3 21-64.4 40-64.4zm-267.5 13.4c8.5 0 9.6.3 16.7 3.8 17.2 8.5 29 29.6 34.5 61.7 2 11.9 2.3 44.3.4 58.5-4.5 34.9-15.9 63.1-31.1 76.8-6 5.4-11.7 8.3-18.9 9.7-5.3 1-6.9 1-16.4.3-4.1-.3-5-.8-5.8-2.9-1.3-3.4-2.8-120.6-2.2-167.4l.5-36.6 6.7-1.9c4.4-1.3 9.6-2 15.6-2z"/></svg>