<svg xmlns="http://www.w3.org/2000/svg" viewBox="0 0 287.94 106.26"><path d="M244 46.55v37.63h-7.93V22h6.66l15.19 37.63V22h8.02v62.18h-6.75L244 46.55m-36.66 37.71h-8.18l14.34-62.18h6.33l14.51 62.18h-8.27l-3.97-17.38h-10.79l-3.97 17.38m9.37-40.58l-3.55 15.27h7.09l-3.54-15.27M161.77 54.4v29.78h-7.93V22h7l12.57 43.79L185.9 22h7v62.18h-7.93V54.4l-8.61 29.78h-5.99l-8.6-29.78m-13.51-24.39h-17.8v19.15h17.8v7.94h-17.8v19.23h17.8v7.93h-25.73V22.08h25.73v7.93m-36.7 23.63c1.51 1.46 2.67 3.2 3.46 5.23.84 2.02 1.26 4.33 1.26 6.92v18.39h-8.01V65.79c0-5.46-2.65-8.19-7.94-8.19h-4.97v26.58h-7.94V22h12.91c5.35 0 9.37 1.57 12.07 4.72 2.47 2.87 3.71 7.2 3.71 12.99 0 5.74-1.24 10.1-3.71 13.08-.11.11-.25.26-.42.42-.11.17-.26.31-.42.43m-11.23-4.05c2.14 0 3.6-.26 4.39-.76.85-.51 1.38-.9 1.6-1.18 1.24-1.58 1.86-4.22 1.86-7.94 0-2.08-.17-3.74-.51-4.97-.33-1.3-.84-2.28-1.51-2.96-.62-.73-1.44-1.21-2.45-1.43-.96-.23-2.08-.34-3.38-.34h-4.97v19.58h4.97M68.08 84.18c-2.98 0-5.37-.54-7.17-1.6-1.8-1.07-3.15-2.17-4.05-3.29-2.37-3.04-3.55-7.32-3.55-12.83V39.71c0-5.51 1.18-9.78 3.55-12.82.45-.56.98-1.13 1.6-1.69.67-.56 1.46-1.07 2.36-1.52.96-.5 2.03-.9 3.21-1.18 1.18-.34 2.53-.5 4.05-.5 3.04 0 5.43.53 7.17 1.6 1.8 1.07 3.15 2.16 4.05 3.29 2.36 3.04 3.54 7.31 3.54 12.82v26.75c0 5.51-1.18 9.79-3.54 12.83-.9 1.12-2.25 2.22-4.05 3.29-1.74 1.06-4.13 1.6-7.17 1.6m0-54.17c-.62 0-1.32.1-2.11.17-.73.11-1.46.48-2.2 1.1-.73.56-1.35 1.52-1.85 2.87-.45 1.29-.68 3.15-.68 5.56v26.75c0 2.48.23 4.39.68 5.74.5 1.29 1.12 2.25 1.85 2.87.74.56 1.47.9 2.2 1.01.79.11 1.49.17 2.11.17.56 0 1.24-.1 2.02-.17.79-.11 1.55-.45 2.28-1.01.73-.62 1.32-1.58 1.77-2.87.51-1.35.76-3.26.76-5.74V39.71c0-2.41-.25-4.27-.76-5.56-.45-1.35-1.04-2.31-1.77-2.87-.73-.62-1.49-.99-2.28-1.1-.78-.11-1.46-.17-2.02-.17m-20.34 0H29.93v19.15h17.81v7.94H29.93v27.16H22V22.08h25.74v7.93"/></svg>