<svg xmlns="http://www.w3.org/2000/svg" viewBox="0 0 303.2 128.3"><path d="M151.6 22C80.03 22 22 40.87 22 64.15c0 23.28 58.03 42.15 129.6 42.15 71.6 0 129.6-18.87 129.6-42.15 0-23.28-58-42.15-129.6-42.15zM53.95 48.05c.1 0 .13 0 1.24.1 1.15 0 3.32.1 7.71.1h.53c4.6 0 6.9-.1 8.05-.1 1.2 0 1.24-.1 1.29-.1.71 0 .75.22.75.8v4.69c0 .13 0 .84-.49.84-.48 0-.79-.66-.88-.88-1.06-2.44-1.77-3.9-8.28-3.9-1.51 0-2.26.1-2.26 2.17v5.89c0 2.39.13 2.43.71 2.52.66.1 2.04.1 2.7.1 3.59 0 4.07-1.02 4.78-3.27.1-.36.27-.72.71-.72.44 0 .53.32.53.76 0 .62-.13 3.63-.13 4.29 0 .4 0 1.16.1 2.17l.18 2.09c0 .3 0 .83-.54.83-.44 0-.66-.4-.71-.71-.1-.21-.39-1.45-.48-1.68-.62-2.39-3.46-2.39-4.56-2.39-3.28 0-3.28 0-3.28 2.08v7.53c0 1.73 0 3.05 2.04 3.19 1.28 0 1.9.1 1.9.75 0 .62-.58.62-.93.62-1.51 0-3.85-.18-5.35-.18-1.47 0-3.82.18-5.28.18-.35 0-.93 0-.93-.66 0-.62.67-.66 1.6-.71 2.21-.18 2.21-1.33 2.21-3.15V52.58c0-1.82 0-3.02-2.21-3.15-.93-.1-1.6-.13-1.6-.75s.58-.62.89-.62zm151.25 2.53c.5 0 .5.61.5 1.51l-.3 4.61c0 .75-.1 1.2-.6 1.2-.2 0-.4 0-.6-.83-.6-3.62-2.5-3.62-4.9-3.62-2.2 0-2.4 0-2.4 1.25v17.2c0 1.55.1 2.56 1.9 2.68.8 0 1.4.1 1.4.64 0 .57-.5.56-.8.56-1.3 0-3.2-.14-4.5-.14-.6 0-3.7.14-4.4.14-.3 0-.8 0-.8-.56 0-.53.5-.57 1.3-.64 1.9-.12 1.9-1.13 1.9-2.61V54.43c0-.98-.3-.98-1-.98-2.3 0-4.8 0-6.7 3.58-.4.61-.5.76-.9.76-.3 0-.5-.26-.5-.49 0-.19.1-.42.1-.61l1.6-5.31c.1-.46.2-.68.5-.68s.5.18.5.53c.2 1.01.9 1.05 1.7 1.05h12.1c3.9 0 4.1-.49 4.3-1.17.2-.3.3-.53.6-.53zM87.03 51.9c7.06 0 12.75 5.17 12.75 11.66 0 7.32-6.45 12.45-12.87 12.45-6.6 0-12.89-4.9-12.89-12.11 0-6.79 5.69-12 13.01-12zm89.37 0c2.2 0 4.4.61 5 .87.4.26.4.6.4 3.92 0 .84 0 1.14-.5 1.14-.4 0-.5-.23-.9-1.4-.5-1.47-1.1-3.62-4.3-3.62-3.1 0-4.1 2.15-4.1 3.62 0 2.68 2.2 3.62 5.2 4.87 2.1.9 6.1 2.75 6.1 7.02 0 4.18-3.1 7.69-8.1 7.69-3 0-5.3-1.02-6-1.51-.4-.3-.5-.83-.5-1.77 0-.15 0-2.03.1-3.39 0-.16.1-.68.5-.68s.5.29.6.63c.7 3.36 3.2 5.74 5.9 5.74 1.6 0 4.5-1.13 4.5-4.19 0-2.94-2.6-4.38-5.3-5.62-3-1.36-6-2.83-6-6.83 0-3.47 2.6-6.49 7.4-6.49zm-75.5.23c.4 0 2.2.15 2.7.15 1 0 6-.15 7.2-.15 6.6 0 7.2 4.6 7.2 5.92 0 4.42-3.9 5.32-5.2 5.59.5.3 1 .52 1.9 2.11l3.6 6.49c.8 1.32 1.3 2.26 2.3 2.41 1.3.16 1.6.19 1.6.68 0 .42-.4.45-.6.45-.5 0-3-.15-3.6-.15-.3 0-1.6.15-2 .15-.7 0-.8-.33-1.2-1.13l-4.6-8.6c-.8-1.62-1-1.77-2.7-1.77-.7 0-.7.22-.7.87v6.79c0 1.58 0 2.6 1.8 2.71.9 0 1.4.1 1.4.64 0 .53-.5.49-.8.49-.7 0-4.4-.15-4.5-.15-.7 0-3.7.15-4.4.15-.3 0-.78 0-.78-.52 0-.53.58-.57 1.38-.61 1.8-.15 1.8-1.13 1.8-2.71v-16c0-1.55 0-2.57-1.8-2.68-.9 0-1.38-.1-1.38-.6 0-.53.15-.53 1.38-.53zm24.3 0c.3 0 2.2.15 2.7.15 1 0 6-.15 7.1-.15 6.7 0 7.3 4.6 7.3 5.92 0 4.42-3.9 5.32-5.2 5.59.5.3.9.52 1.8 2.11l3.7 6.49c.7 1.32 1.2 2.26 2.3 2.41 1.2.16 1.5.19 1.5.68 0 .42-.3.45-.6.45-.5 0-2.9-.15-3.5-.15-.3 0-1.7.15-2 .15-.7 0-.9-.33-1.3-1.13l-4.5-8.6c-.9-1.62-1.1-1.77-2.8-1.77-.6 0-.7.22-.7.87v6.79c0 1.58 0 2.6 1.9 2.71.8 0 1.4.1 1.4.64 0 .53-.5.49-.8.49-.7 0-4.4-.15-4.6-.15-.6 0-3.7.15-4.3.15-.3 0-.8 0-.8-.52 0-.53.5-.57 1.3-.61 1.9-.15 1.9-1.13 1.9-2.71v-16c0-1.55 0-2.57-1.9-2.68-.8 0-1.3-.1-1.3-.6 0-.53.1-.53 1.4-.53zm105.1 0c.4 0 2.2.15 2.7.15 1 0 6-.15 7.2-.15 6.6 0 7.2 4.6 7.2 5.92 0 4.42-3.9 5.32-5.2 5.59.5.3 1 .52 1.9 2.11l3.6 6.49c.8 1.32 1.3 2.26 2.4 2.41 1.2.16 1.5.19 1.5.68 0 .42-.4.45-.6.45-.5 0-3-.15-3.6-.15-.3 0-1.6.15-2 .15-.7 0-.8-.33-1.2-1.13l-4.6-8.6c-.8-1.62-1-1.77-2.7-1.77-.7 0-.7.22-.7.87v6.79c0 1.58 0 2.6 1.9 2.71.8 0 1.3.1 1.3.64 0 .53-.5.49-.8.49-.7 0-4.4-.15-4.5-.15-.6 0-3.7.15-4.4.15-.3 0-.8 0-.8-.52 0-.53.6-.57 1.4-.61 1.8-.15 1.8-1.13 1.8-2.71v-16c0-1.55 0-2.57-1.8-2.68-.8 0-1.4-.1-1.4-.6 0-.53.2-.53 1.4-.53zm-81.9 0s.1 0 .9.1c.8 0 2.5.1 5.7.1h1.8c3.9 0 5.8 0 6.8-.1 1 0 1-.1 1.1-.1.5 0 .5.3.5 1.17v3.47c0 .19 0 .64-.4.64s-.5-.15-1.2-1.55c-.4-.98-1.3-2.41-6.7-2.41-1.9 0-2 .26-2 2.15v5.47c0 1.21 0 1.51 2.2 1.51 4.2 0 4.5-.83 5.2-2.83.2-.49.4-.57.6-.57.2 0 .4.12.4.53 0 .53-.3 4.42-.3 5.25 0 .26.1 1.58.1 1.88 0 .23 0 .75-.4.75-.3 0-.6-.18-.8-.9-.7-2.9-1.8-2.94-4.9-2.94-1.8 0-2.1 0-2.1 1.13v6.49c0 2.68.8 3.09 4 3.09 1.6 0 4 0 5.6-3.2.7-1.32.8-1.47 1.1-1.47.3 0 .5.34.5.56 0 .49-.5 2.91-.6 4.3 0 .72-.4 1.13-1.5 1.13-1.9 0-4.5 0-6.7-.1-2.2 0-4-.1-4.2-.1h-.4c-1.6 0-2.5 0-3.1.1-.6 0-.9.1-1.2.1-.3 0-.8 0-.8-.56 0-.53.6-.57 1.4-.64 1.9-.12 1.9-1.13 1.9-2.68V55.98c0-1.55 0-2.57-1.9-2.68-.9 0-1.4-.1-1.4-.64 0-.53.5-.53.8-.53zm60.2 0c.1 0 .1 0 .9.1.9 0 2.5.1 5.7.1h1.8c3.9 0 5.8 0 6.8-.1 1 0 1.1-.1 1.2-.1.4 0 .4.3.4 1.17v3.47c0 .19 0 .64-.4.64s-.4-.15-1.1-1.55c-.5-.98-1.4-2.41-6.7-2.41-1.9 0-2.1.26-2.1 2.15v5.47c0 1.21 0 1.51 2.2 1.51 4.2 0 4.5-.83 5.2-2.83.2-.49.4-.57.6-.57.2 0 .4.12.4.53 0 .53-.3 4.42-.3 5.25 0 .26.2 1.58.2 1.88 0 .23 0 .75-.5.75-.3 0-.5-.18-.7-.9-.8-2.9-1.9-2.94-5-2.94-1.8 0-2.1 0-2.1 1.13v6.49c0 2.68.8 3.09 4 3.09 1.6 0 4 0 5.6-3.2.7-1.32.8-1.47 1.1-1.47.4 0 .5.34.5.56 0 .49-.4 2.91-.5 4.3-.1.72-.5 1.13-1.5 1.13-2 0-4.6 0-6.8-.1-2.2 0-3.9-.1-4.1-.1h-.5c-1.5 0-2.5 0-3.1.1-.6 0-.9.1-1.2.1-.3 0-.8 0-.8-.56 0-.53.6-.57 1.4-.64 1.9-.12 1.9-1.13 1.9-2.68V55.98c0-1.55 0-2.57-1.9-2.68-.8 0-1.4-.1-1.4-.64 0-.53.5-.53.8-.53zm-122.03.76c-5.28 0-8.03 4.86-8.03 10.22 0 6.11 3.58 11.92 8.68 11.92 5.28 0 8.03-5.85 8.03-11.32 0-4.49-2.68-10.82-8.68-10.82zm21.93.3c-1.7 0-1.7.9-1.7 2.38v6.33c0 1.32 0 1.4 1.8 1.4 1.4 0 5.1 0 5.1-4.72 0-1.36-.5-5.39-5.2-5.39zm24.3 0c-1.7 0-1.8.9-1.8 2.38v6.33c0 1.32 0 1.4 1.9 1.4 1.4 0 5.1 0 5.1-4.72 0-1.36-.5-5.39-5.2-5.39zm105.1 0c-1.7 0-1.7.9-1.7 2.38v6.33c0 1.32 0 1.4 1.9 1.4 1.3 0 5.1 0 5.1-4.72 0-1.36-.6-5.39-5.3-5.39z"/></svg>
