<svg xmlns="http://www.w3.org/2000/svg" viewBox="0 0 1043.01 221.223"><path d="M351.002 108.092V29.344h19.037c24.112 0 30.402 14.007 30.402 37.497 0 25.138-3.78 41.252-30.403 41.252zm-123.38 85.693c-31.644 0-41.493-20.1-41.493-83.814 0-62.83 9.434-82.532 40.224-82.532 31.452 0 40.64 20.13 40.64 82.335 0 62.633-9.188 84.012-39.37 84.012m-1.38 5.438c49.22 0 69.994-37.295 69.994-90.077 0-51.73-19.92-87.146-69.36-87.146-50.268 0-70.187 36.868-70.187 89.453 0 51.758 19.92 87.77 69.554 87.77m243.613-1.05h80.23v-4.612l-26.596-1.24V29.132h28.914l17.602 54.263h4.828l-1.655-59.7H446.874l-1.93 59.7h5.048l17.822-54.263h29.107V192.32l-27.037 1.24zm389.837.636h4.414V30.607l24.527-2.318v-4.613h-56.337v4.613l24.5 2.318V143.52L783.684 23.69H737.17v4.614l18.21 2.318 3.144 4.81V191.08l-25.768 2.51v4.614h57.634v-4.613l-24.527-2.512V47.363zM22 198.173h80.23v-4.613l-27.645-1.047V108.1h28.086l3.753 36.242h4.828V68.527h-4.827l-3.752 34.335H74.586v-73.51h46.93l17.602 54.037h4.8l-1.38-59.7H22.084v4.61l25.575 1.05v163.16l-25.575 1.05zm871.436 0h122.774l4.8-65.138h-4.61l-21.16 59.472-48.778.275v-84.64h28.06l3.116 36.24h4.828V68.57h-4.828l-3.117 34.335h-28.058v-73.51h48.778l16.36 53.212h4.8l-1.1-58.875H893.574v4.613l25.768 1.048v163.162l-25.768 1.048zm-235.254 1.05c43.177 0 50.68-19.672 50.68-40.428v-128.2l22.652-2.317v-4.614h-51.316v4.613l20.94 2.317v128.2c0 21.778-10.677 30.576-33.714 30.576-32.5 0-38.542-10.903-38.542-32.028v-128l26.568-1.05v-4.612h-77.057v4.613l23.037 1.048v124.842c0 31.2 17.16 45.037 56.752 45.037m-359.24-1.05h76.67v-4.612l-24.72-1.047V113.34h15.284c19.48 0 25.355 3.16 28.914 26.59l8.8 58.25h47.124v-4.613l-21.768-1.048-8.8-55.29c-3.174-20.1-14.65-24.91-33.936-26.817 24.278-4.186 40.004-16.34 40.004-43.986 0-27.217-9.242-42.733-54.682-42.733h-73.084v4.613l25.548 1.048v163.16l-25.355 1.05z"/></svg>