<svg xmlns="http://www.w3.org/2000/svg" viewBox="0 0 313.1 98.38"><path d="M258.1 22.03c-4.5 0-8.2 3.7-8.2 8.2v43.3c0 .8.3 1.5.8 2s1.3.8 2 .8h11.2c15 0 27.2-12.2 27.2-27.1 0-15-12.2-27.2-27.2-27.2h-5.8zm0 5.6h5.8c12 0 21.6 9.6 21.6 21.6 0 11.9-9.6 21.5-21.6 21.5H258c-1.4 0-2.5-1.1-2.5-2.5v-38c0-1.5 1.1-2.6 2.6-2.6zm-31.9-5.6c-1.9.2-3.8.6-5.7 1.4-5.5 2.2-8.8 6.7-8.9 11.6-.1 4.8 2.8 9.6 8.3 12.5l15 8c4 2.1 5.3 5 5.1 7.7-.3 2.7-2.2 5.6-6.3 7.3-5.3 2.1-12.2-.8-15.8-2.8-.8-.6-1.8-.6-2.7-.2-.8.5-1.3 1.4-1.3 2.4 0 .9.6 1.8 1.5 2.2 4.1 2.3 12.3 6.3 20.2 3 5.5-2.2 9-6.6 9.4-11.4.5-4.9-2.3-9.9-7.7-12.7l-15.1-8c-4.1-2.2-5.6-5.2-5.6-7.9.1-2.7 1.8-5.4 5.8-7 5.5-2.3 11.5-.1 15 1.9.8.5 1.8.6 2.6.1.9-.5 1.3-1.3 1.3-2.3 0-.9-.5-1.7-1.3-2.2-3.2-1.8-8.2-3.9-13.8-3.6zm-82.7 15c-10.3.5-18.6 9.2-18.6 19.7 0 10.8 8.8 19.6 19.6 19.6 4.9 0 9.1-1.6 12.5-4.5.5-.5.8-1.1.8-1.8 0-1.4-1.2-2.5-2.6-2.5-.7 0-1.3.2-1.7.7-2.5 1.9-5.6 3-9 3-5.8 0-10.8-3.4-13.1-8.4-.2-.3-.3-.7-.3-1.1 0-1.4 1.1-2.5 2.5-2.5h28.1c1.4 0 2.5-1.1 2.5-2.5 0-10.9-8.8-19.7-19.7-19.7h-1zm1 5.1c5.9 0 11 3.5 13.3 8.5.1.3.2.6.2 1 0 1.4-1.2 2.5-2.6 2.5h-21.8c-1.4 0-2.5-1.1-2.5-2.5 0-.4.1-.8.3-1.1 2.3-5 7.3-8.4 13.1-8.4zm42.3-20.1c-7.8 0-14.2 6.4-14.2 14.2v37.6c0 1.4 1.1 2.5 2.5 2.5h21.8c8.5 0 15.5-6.9 15.5-15.5 0-6.8-4.4-12.6-10.6-14.7 2.5-2.6 4.1-6.1 4.1-9.9 0-7.8-6.3-14.1-14.1-14.2h-.1H186.8zm0 5.1H191.7c5 0 9.1 4 9.1 9.1 0 5-4.1 9.1-9.1 9.1h-11.5c-1.4 0-2.5-1.2-2.5-2.6v-6.5c0-5.1 4-9.1 9.1-9.1zm-6.6 23.3h16.7c5.7 0 10.4 4.6 10.4 10.4 0 5.8-4.7 10.4-10.4 10.4h-19.2v-18.3c0-1.4 1.1-2.5 2.5-2.5zm-36.7-13.4c-10.3.5-18.6 9.2-18.6 19.7 0 10.8 8.8 19.6 19.6 19.6 4.9 0 9.1-1.6 12.5-4.5.5-.5.8-1.1.8-1.8 0-1.4-1.2-2.5-2.6-2.5-.7 0-1.3.2-1.7.7-2.5 1.9-5.6 3-9 3-5.8 0-10.8-3.4-13.1-8.4-.2-.3-.3-.7-.3-1.1 0-1.4 1.1-2.5 2.5-2.5h28.1c1.4 0 2.5-1.1 2.5-2.5 0-10.9-8.8-19.7-19.7-19.7h-1zm1 5.1c5.9 0 11 3.5 13.3 8.5.1.3.2.6.2 1 0 1.4-1.2 2.5-2.6 2.5h-21.8c-1.4 0-2.5-1.1-2.5-2.5 0-.4.1-.8.3-1.1 2.3-5 7.3-8.4 13.1-8.4zm-79.7-5.1c-7.9 0-14.8 6.3-14.8 14v22.8c0 1.4 1.1 2.5 2.5 2.5s2.5-1.1 2.5-2.5v-22.8c0-5.1 4.6-8.9 9.8-8.9 3.5 0 6.2 1.8 8.2 4.1.5.4 1.1.7 1.7.7 1.3 0 2.4-1.1 2.4-2.4 0-.5-.1-.9-.3-1.2-2.1-3.4-7.4-6.3-12-6.3zm-28.7-15c-7.8 0-14.1 6.9-14.1 14.8v37c0 1.4 1.1 2.5 2.5 2.5s2.6-1.1 2.6-2.5v-17.7c0-2 1.6-3.6 3.6-3.6h11.6c1.4 0 2.5-1.1 2.5-2.5 0-1.5-1.1-2.6-2.5-2.6H30.7c-2 0-3.6-1.6-3.6-3.6v-7c0-5.1 4-9.7 9-9.7h12c1.4 0 2.6-1.2 2.6-2.6 0-1.4-1.2-2.5-2.6-2.5h-12zm62.2 15c-10.4.5-18.7 9.2-18.7 19.7 0 10.8 8.8 19.6 19.7 19.6 4.8 0 9.1-1.6 12.5-4.5.5-.5.7-1.1.7-1.8 0-1.4-1.1-2.5-2.5-2.5-.7 0-1.3.2-1.8.7-2.5 1.9-5.5 3-8.9 3-5.8 0-10.9-3.4-13.2-8.4-.2-.3-.2-.7-.2-1.1 0-1.4 1.1-2.5 2.5-2.5h28c1.4 0 2.6-1.1 2.6-2.5 0-10.9-8.9-19.7-19.7-19.7h-1zm1 5.1c5.9 0 10.9 3.5 13.2 8.5.1.3.2.6.2 1 0 1.4-1.1 2.5-2.5 2.5H88.4c-1.4 0-2.5-1.1-2.5-2.5 0-.4 0-.8.2-1.1 2.3-5 7.4-8.4 13.2-8.4z"/></svg>