<svg xmlns="http://www.w3.org/2000/svg" viewBox="0 0 752 385"><path class="logotype logotext" d="M332.5 88c5.6 6 13.4 10 22 10 17.3 0 31.2-14 31.2-32 0-17-13.9-31-31.2-31 0 0-24-2-34.8 29V41c8-11 20.5-19 34.8-19 24.4 0 44 20 44 44 0 25-19.6 44-44 44-12.1 0-23.1-5-31.1-12l-15.2-17c-4.1-5-9.8-7-16.1-7-12.6 0-22.8 10-22.8 23 0 12 10.2 22 22.8 22 0 0 16.9 3 27.6-18v18c-6.6 8-16.5 13-27.6 13-19.6 0-35.6-16-35.6-35 0-20 16-36 35.6-36 9.9 0 18.7 4 25.2 10l15.2 17m55.2 55l-8.6 29c6.9-13 17.8-13 17.8-13h27.5v127c0 7-5.4 15-12.4 15h51.8c-7 0-12.4-8-12.4-15V159h22.9c7.1 0 12.8 6 12.8 13l8.5-29H387.7m192.4 26c-8.5-14-28.4-13-28.4-13-31.6 0-30.2 25-30.2 25s-2.1 13 13.7 21l31.8 17c30.6 17 27 41 27 41s1.4 45-62.6 45c0 0-18.6 1-29.1-3l-9.3-30c9.5 15 38.7 17 38.7 17 35.8-1 36.1-27 36.1-27s1.7-10-12.4-18l-31.6-18c-33-18-29.2-42-29.2-42s-.8-44 55.9-44c0 0 25.5 1 29.6 5v24m51.6 90c0 16 13.4 30 29.8 30s29.7-14 29.7-31V158c0-7-5.4-15-12.4-15h51.8c-7 0-12.4 8-12.4 15v98c0 31-25.3 49-56.5 49-31.4 0-57-18-57-49l.1-98c0-7-5.4-15-12.5-15h52c-7.1 0-12.6 8-12.6 15v101m-323-101c0-7 5.4-15 12.6-15h-52c7.1 0 12.5 8 12.5 15v160s-.5 29-22.9 45c0 0 50-7 50-54l-.2-151M165.2 259c0 16 13.3 30 29.6 30 16.4 0 29.8-14 29.8-31V158c0-7-5.4-15-12.5-15H264c-7.1 0-12.5 8-12.5 15v98c0 31-25.2 49-56.5 49-31.4 0-56.9-18-56.9-49v-98c0-7-5.4-15-12.4-15h51.8c-7.1 0-12.3 8-12.3 15v101M61.4 224h36.1c7 0 13.6 5 13.6 12l-.1-28H61.4v-49h48.1c7.1 0 13.6 6 13.6 13v-29H22c7.1 0 12.4 8 12.4 15v128c0 7-5.3 15-12.4 15h51.9c-7.1 0-12.5-8-12.5-15v-62m277.7-66c0-7-5.4-15-12.4-15h51.8c-7 0-12.4 8-12.4 15v128c0 7 5.4 15 12.4 15h-51.8c7 0 12.4-8 12.4-15V158"/></svg>