<svg xmlns="http://www.w3.org/2000/svg" viewBox="212 184 1024 233"><path class="st0" d="M329 184.07c-67.5 1.1-117 46.4-117 117.3 0 71.2 49.1 113.5 117 115.6 36.6 1.1 64.3-7.5 92.1-22.4v-110.2h-86l-3.2 38.4h45.9v46.9c-12.9 5.8-27.6 8.7-48.4 8.2-44.1-1.2-72.4-33-71.8-78.9.6-42.4 26.2-73.4 68.6-75.4 26-1.2 47.8 6.2 62.6 18.8l28.8-29.2c-24-21.1-54.4-29.6-88.6-29.1zm380.1 33.1v143.6c0 35.5 11.2 53.3 49.8 53.3 10.5 0 19-1.3 28.8-3.9l2.8-34.1c-8.8 2.9-15.7 3.6-22 3.6-14.6 0-18.5-7.8-18.5-22v-62.6h37.7l2.8-35.2H750v-42.7h-40.9zm-196.7 38.7c-23.8 0-46.1 6.8-67.6 24.2l23.5 23.8c10.9-10.2 25.6-16 40.5-16 20.7 0 31.6 9 31.6 25.6v1.8h-7.1c-36.1 0-93.6 3.7-92.8 54 .6 32 26.9 45.9 54.8 45.9 18.5 0 36.6-5.1 47.6-18.8l.7 14.9H580v-99.2c0-34.3-20.6-56.2-67.6-56.2zm380.5 0c-22.3 0-37.4 10.1-45.5 23.1l-1.1-19.2h-37.7v151.5h40.9v-82.5c0-19.1 8.9-35.6 31.6-35.6 23.6 0 24.9 21.3 24.9 38v80h41.2v-95.3c.1-30.5-13.1-60-54.3-60zm150.7 0c-44.1 0-77.9 32.1-77.9 79.6 0 47.6 34 79.6 79.6 79.6 26 0 48.6-8.6 67.6-32l-26.7-20.3c-13.5 13.7-23.5 19-42 18.5-19-.5-34.5-12.3-37.7-31.6H1119v-12.1c0-52.2-26.8-81.7-75.4-81.7zm-438 3.9v151.5h41.2v-80c0-17.7 11.5-36.3 34.5-36.3h11l3.2-35.2h-10.3c-17.6 0-31.7 5.9-39.8 18.8l-1.1-18.8h-38.7zm531.9 0v151.5h40.9v-80c0-17.7 11.8-36.3 34.8-36.3h14.6l2.8-35.2h-13.9c-17.5 0-31.7 5.9-39.8 18.8l-.7-18.8h-38.7zm-94.9 28.1c19.8-.8 34.3 11.1 35.6 30.2h-71.5c2.7-16.8 16-29.4 35.9-30.2zm-507.8 57.3h5.7v6.4c0 34.4-58.8 43.5-59 14.9-.1-20.3 34-21.3 53.3-21.3zm680.6 28.1c-11.2 0-20.6 8.6-20.6 20.3 0 11.8 9.4 20.6 20.6 20.6 11.1 0 20.6-8.8 20.6-20.6s-9.5-20.3-20.6-20.3zm0 3.5c9.2 0 16.7 7.1 16.7 16.7 0 9.8-7.5 17.1-16.7 17.1-9.3 0-16.7-7.3-16.7-17.1 0-9.6 7.3-16.7 16.7-16.7zm-7.8 5.3v23.5h3.6v-10.3h3.9l6.4 10.3h3.9l-6.8-10.3c3.4-.4 6.4-2.5 6.4-6.8 0-4.7-3-6.4-8.5-6.4h-8.9zm3.5 2.9h5c2.5 0 5 .6 5 3.6 0 3.6-2.7 3.9-5.7 3.9h-4.3v-7.5z"/></svg>