<svg xmlns="http://www.w3.org/2000/svg" viewBox="0 0 101.6 32.06"><path d="M16.08 5.795C10.15 5.888 5.8 9.875 5.8 16.11c0 6.26 4.31 9.98 10.28 10.16 3.22.1 5.66-.66 8.09-1.97v-9.69h-7.56l-.28 3.38h4.03v4.12c-1.13.51-2.42.77-4.25.72-3.87-.1-6.358-2.89-6.31-6.94.05-3.73 2.3-6.452 6.03-6.625 2.29-.104 4.2.547 5.5 1.655l2.53-2.56c-2.1-1.857-4.77-2.61-7.78-2.565zm33.41 2.907V21.33c0 3.13.98 4.69 4.37 4.69.93 0 1.67-.11 2.53-.35l.25-3c-.77.26-1.37.32-1.93.32-1.29 0-1.63-.69-1.63-1.94v-5.5h3.31l.25-3.1h-3.56V8.702h-3.59zM32.21 12.11c-2.09 0-4.06.59-5.94 2.13l2.06 2.09c.96-.9 2.25-1.41 3.56-1.41 1.82 0 2.78.79 2.78 2.26v.15h-.62c-3.17 0-8.23.33-8.16 4.75.1 2.81 2.37 4.03 4.82 4.03 1.62 0 3.21-.45 4.18-1.65l.1 1.31h3.18v-8.72c0-3.02-1.81-4.94-5.93-4.94zm33.43 0c-1.96 0-3.28.89-4 2.03l-.1-1.69h-3.31v13.32h3.59v-7.25c0-1.68.78-3.13 2.78-3.13 2.08 0 2.19 1.87 2.19 3.35v7.03h3.62v-8.38c0-2.69-1.15-5.28-4.78-5.28zm13.25 0c-3.87 0-6.84 2.82-6.84 7 0 4.19 2.99 7 7 7 2.28 0 4.27-.76 5.94-2.81l-2.35-1.78c-1.18 1.2-2.06 1.67-3.68 1.62-1.67 0-3.03-1.08-3.32-2.78h9.88V19.3c0-4.59-2.36-7.19-6.63-7.19zm-38.5.34v13.32h3.63v-7.03c0-1.56 1.01-3.19 3.03-3.19h.97l.28-3.1h-.91c-1.54 0-2.78.52-3.5 1.66l-.1-1.66h-3.41zm46.75 0v13.32h3.6v-7.03c0-1.56 1.03-3.19 3.06-3.19h1.28l.25-3.1h-1.22c-1.54 0-2.79.52-3.5 1.66l-.1-1.66H87.1zm-8.34 2.47c1.74-.1 3.01.98 3.12 2.66h-6.28c.24-1.47 1.41-2.59 3.16-2.66zm-44.63 5.04h.5v.56c0 3.03-5.17 3.82-5.18 1.31 0-1.78 2.98-1.87 4.68-1.87zm59.82 2.46c-.99 0-1.82.76-1.82 1.79s.83 1.81 1.82 1.81c.97 0 1.81-.78 1.81-1.81s-.83-1.79-1.81-1.79zm0 .32c.81 0 1.47.62 1.47 1.47 0 .86-.66 1.5-1.47 1.5-.82 0-1.47-.64-1.47-1.5 0-.85.65-1.47 1.47-1.47zm-.69.47v2.06h.31v-.91h.35l.56.91h.34l-.59-.91c.3 0 .56-.22.56-.59 0-.41-.26-.56-.75-.56h-.78zm.31.25h.44c.22 0 .44.1.44.31 0 .32-.24.34-.5.34h-.38v-.65z"/></svg>
