<svg xmlns="http://www.w3.org/2000/svg" viewBox="0 0 144 144" class="icon stroked icon-gears"><path fill="none" stroke="#666" stroke-width="2" class="long" d="M103.4 48.6c-.5-.8-1.1-1.5-1.7-2.1l2.1-5.1c-1.2-.8-2.4-1.4-3.7-2l-3 4.8c-1.8-.4-3.7-.4-5.4.2L88.2 40c-1.2.6-2.4 1.4-3.5 2.2l2.6 5c-1.3 1.4-2.1 3-2.5 4.8l-5.5.8c-.1 1.4 0 2.8.1 4.2l5.7.2c.2.8.6 1.7 1.1 2.5.5.8 1.1 1.4 1.8 2l-2.2 5.2c1.2.8 2.5 1.4 3.8 2l3-4.8c1.7.4 3.6.3 5.4-.2l3.4 4.4c1.3-.6 2.4-1.4 3.6-2.2l-2.7-5c1.3-1.4 2.2-3.1 2.5-4.8l5.6-.8c.1-1.4 0-2.8-.2-4.2l-5.6-.2c-.3-.8-.6-1.7-1.2-2.5zM89.8 96.2c.1-1.4.1-2.9 0-4.3l-5.6-.4c-.4-2-1.1-3.8-2.2-5.4l3.6-4.3c-.9-1.1-1.9-2.1-3-3l-4.3 3.6c-1.6-1.1-3.4-1.8-5.4-2.2l-.5-5.6c-1.4-.1-2.8-.1-4.2 0l-.5 5.6c-1.9.4-3.8 1.1-5.3 2.2l-4.3-3.6c-1.1.9-2.1 1.9-3 3l3.6 4.3c-1.1 1.6-1.9 3.4-2.2 5.4l-5.6.4c-.2 1.4-.2 2.9 0 4.3l5.6.4c.3 2 1.1 3.8 2.2 5.4l-3.6 4.3c.9 1.1 1.9 2.1 3 3l4.3-3.6c1.5 1.1 3.4 1.8 5.3 2.2l.5 5.6c1.4.1 2.8.1 4.2 0l.5-5.6c2-.4 3.8-1.1 5.4-2.2l4.3 3.6c1.1-.9 2.1-1.9 3-3L82 102c1.1-1.6 1.8-3.4 2.2-5.4l5.6-.4zM78.3 55.4c0-.9-.1-1.7-.2-2.6l5.3-1.9c-.2-1.4-.6-2.8-1-4.1l-5.6 1c-.7-1.6-1.6-3.1-2.6-4.4l3.6-4.4c-.9-1.1-1.9-2.1-2.9-3l-4.4 3.7c-1.4-1.1-2.8-1.9-4.5-2.6l1-5.6c-1.3-.5-2.6-.8-4-1.1l-2 5.4c-.8-.1-1.7-.2-2.5-.2-.9 0-1.8.1-2.6.2L54 30.4c-1.5.3-2.8.6-4.1 1.1l1 5.6c-1.6.7-3.1 1.5-4.5 2.6L42.1 36c-1.1.9-2.1 1.9-3 3l3.6 4.4c-1 1.3-1.9 2.8-2.5 4.4l-5.6-1c-.5 1.3-.9 2.7-1.1 4.1l5.3 1.9c-.1.9-.2 1.7-.2 2.6 0 .9.1 1.7.2 2.6l-5.3 1.9c.2 1.4.6 2.8 1.1 4.1l5.6-1c.6 1.6 1.5 3.1 2.5 4.4l-3.6 4.4c.9 1.1 1.9 2.1 3 3l4.3-3.7c1.4 1.1 2.9 1.9 4.5 2.6l-1 5.6c1.3.5 2.6.8 4 1.1l2-5.4c.8.1 1.7.2 2.6.2.8 0 1.7-.1 2.5-.2l2 5.4c1.4-.3 2.7-.6 4-1.1l-1-5.6c1.7-.7 3.1-1.5 4.5-2.6l4.4 3.7c1-.9 2-1.9 2.9-3l-3.6-4.4c1-1.3 1.9-2.8 2.6-4.4l5.6 1c.4-1.3.8-2.7 1-4.1L78.1 58c.1-.9.2-1.7.2-2.6z"/><path fill="none" stroke="#666" stroke-width="2" class="short" d="M77.1 100.2c-1.7 1.8-4.1 3-6.8 3-5 0-9.1-4.1-9.1-9.1 0-5.1 4.1-9.2 9.1-9.2 5.1 0 9.1 4.1 9.1 9.2 0 .6 0 1.2-.1 1.8m-24.2-49c1-.4 2.2-.6 3.4-.6 5 0 9.1 4.1 9.1 9.1s-4.1 9.1-9.1 9.1c-5.1 0-9.2-4.1-9.2-9.1 0-1.8.6-3.6 1.5-5m24.1 43.7c0 2.6-2 4.6-4.6 4.6-2.6 0-4.6-2-4.6-4.6 0-2.6 2-4.6 4.6-4.6 2.6 0 4.6 2 4.6 4.6zm24.5-40c0 2.6-2 4.6-4.6 4.6-2.6 0-4.6-2-4.6-4.6 0-2.6 2-4.6 4.6-4.6 2.6 0 4.6 2 4.6 4.6zm-36.3 1.3c0 2.6-2 4.6-4.6 4.6-2.6 0-4.6-2-4.6-4.6 0-2.6 2-4.6 4.6-4.6 2.6 0 4.6 2 4.6 4.6z"/></svg>