<svg xmlns="http://www.w3.org/2000/svg" viewBox="0 0 412 102.5"><path d="M185 66.56v-33h8.6l15.6 20.05.1-20.05h8.5v33h-8.5l-15.7-20.19v20.19H185m-35.8 0v-33h18.9v7.4h-10.3v5.41h9.6v7.18h-9.6v5.78h10.3v7.23h-18.9m-33.9-11.71v-6.72h16.9v1.99c0 5.81-1.6 9.54-4.7 12.76-3.1 3.18-6 4.78-11.6 4.78-2.8 0-5.4-.41-7.6-1.22-2.1-.83-4.1-2.08-5.7-3.76-1.6-1.62-2.9-3.54-3.81-5.73-.88-2.19-1.1-4.52-1.1-6.94 0-2.5.44-4.82 1.3-6.91.85-2.14 1.91-4.04 3.71-5.72 1.7-1.66 3.6-2.9 5.8-3.72 2.2-.87 4.8-1.3 7.4-1.3 6.4 0 12.1 3.94 14.6 9.22l-8 3.46c-1.6-2.78-3.8-5.1-6.9-5.1-2.8 0-5 1.04-6.6 2.86-1.6 1.85-2.4 4.36-2.4 7.53 0 3.22.8 5.74 2.4 7.57 1.6 1.86 4.1 2.68 6.9 2.83 3.1.19 6.3-3.09 6.4-5.88h-7m127.6-1.65h.8c2.8 0 7.2-.39 7.2 3.63 0 3.65-4.4 3.51-7 3.51h-1V53.2m4.6 13.77c6.2 0 12-2.29 12-9.28 0-4.62-2-7.84-6.8-8.46v-.14c2.7-1.36 3.8-3.8 3.8-6.78 0-6.36-4-8.65-10-8.65h-12.3v33.27h13.3zm-4.6-26.66h.5c2.4 0 5.1.17 5.1 3.23 0 2.81-2.4 3.22-4.7 3.22h-.9v-6.45zm51 20.87l2.2 5.79h9.2L292.7 33.7h-9.4l-12.8 33.27h9.2l2.4-5.79h11.8m-2.4-6.62h-7.2l3.6-10.59h.2l3.4 10.59zm26.8 12.41h8.6V46.59h.1l15.9 20.38h8.6V33.7h-8.6v20.34h-.2L326.9 33.7h-8.6v33.27m49.1 0h12.2c9.2 0 17-7.28 17-16.64 0-9.35-7.6-16.63-17-16.63h-12.2v33.27m8.6-25.94h2c5.6 0 9.5 3.34 9.5 9.3 0 6.5-4.4 9.31-9.5 9.31h-2V41.03zm18.2-7.33v-3.35h-1.4v-.4h3.2v.4h-1.3v3.35h-.5m2.4 0v-3.75h.8l.9 2.89 1.1-2.89h.6v3.75h-.4v-3.06l-1 2.8h-.6l-1-2.8v3.06h-.4M44.26 12c17.77 0 32.26 14.47 32.26 32.24 0 4.75-1.04 9.24-2.9 13.3v-.98c0-2.8-.4-5.51-1.13-8.07v-1.58c.1-15.64-12.68-28.38-28.3-28.38-15.63 0-28.38 12.74-28.38 28.38 0 .8 0 1.58.1 2.37-.59 2.33-.91 4.77-.91 7.28v1.3c-1.92-4.15-3-8.75-3-13.62C12 26.47 26.49 12 44.26 12m.1 23.95c12.87 0 23.36 10.48 23.36 23.33 0 1.22-.14 2.42-.28 3.58.54 1.98.82 4.07.82 6.22v.13a26.84 26.84 0 0 0 3.08-10.99v-.17-.19-.14-.14-.13-.15-.13-.13-.13-.15-.13-.18-.62-.16-.5c-.73-14.29-12.58-25.72-27.04-25.72-14.7 0-26.73 11.86-27 26.51V57.45c.16 3.93 1.17 7.67 2.85 11.01 0-2.24.38-4.38.98-6.42-.11-.96-.17-1.94-.17-2.95 0-12.85 10.49-23.33 23.33-23.33zm-.24 11.72A21.43 21.43 0 0 0 22.69 69.1a21.43 21.43 0 0 0 21.43 21.43A21.43 21.43 0 0 0 65.55 69.1a21.43 21.43 0 0 0-21.43-21.43zm0 5.28c9.22 0 16.88 6.87 18.18 15.77-4.92 4.09-11.25 5.93-18.12 5.93-6.93 0-13.3-1.88-18.25-6.05 1.32-8.83 8.99-15.65 18.19-15.65zM25.74 70.63c5.23 3.7 11.61 5.87 18.49 5.87 6.75 0 13.04-2.09 18.22-5.67v.51c0 .96-.13 1.91-.21 2.83-4.28 5.16-10.75 7.77-17.96 7.77-7.48 0-14.15-2.88-18.42-8.39-.13-.73-.15-1.46-.15-2.21v-.71zm.88 6.32c4.76 4.12 10.93 6.62 17.69 6.62 6.51 0 12.45-2.31 17.13-6.14-2.52 7.13-9.33 11.53-17.31 11.53-8.18 0-15.12-4.63-17.51-12.01z"/></svg>