<svg xmlns="http://www.w3.org/2000/svg" viewBox="0 0 485.26 485.26"><path d="M243.02 22c-5.46 0-10.92.203-16.36.617-43.45 3.015-85.82 19.454-120.01 46.414-29.492 23.16-53.052 53.86-67.52 88.48-15.585 37.23-20.866 78.84-14.48 118.74 6.494 44.78 27.746 87.12 59.146 119.64 29.624 30.76 68.364 52.69 110.054 61.98 39.76 8.91 81.99 6.82 120.52-6.52 43.39-14.74 81.83-43.57 108.27-81 26.06-36.49 40.33-81.14 40.61-125.96.36-42.88-12.07-85.82-35.56-121.7-18.92-29.352-45.05-53.938-75.28-71.366-33.07-19.12-71.21-29.3-109.39-29.324zm-1.34 10.545c35.17-.224 70.4 8.697 101.2 25.672 60.02 32.347 102.56 95.443 108.6 163.533 4.54 41.96-4.42 85.2-24.83 122.11-20.43 37.17-52.39 67.96-90.43 86.79-29.85 15.05-63.45 22.65-96.89 21.92-45.8-.39-91.15-16.78-127-45.22-30.854-24.48-54.72-57.65-67.786-94.84C24.17 255.33 30.17 189.22 61.25 136.98c20.866-36.22 53.04-65.683 90.67-83.816 23.38-11.187 48.82-18.107 74.69-19.96 5.01-.41 10.03-.627 15.07-.66zm.68 13.316c-17.84.05-35.7 2.504-52.88 7.304-36.15 9.76-69.9 31.028-91.335 62.096-14.44 20.43-22.747 44.61-27.014 69.09-2.024 15.28-2.865 31.95 4.775 45.91 3.532 6.93 9.706 12.17 12.746 19.37 2.894 6.39.84 15.03-5.386 18.67-5.84 4.19-14.093 2.59-19.373-1.77-7.612-5.98-10.84-15.72-12.466-24.92-3.213-20.72.963-41.68 6.243-61.68-4.135 1.72-3.536 7.44-5.096 11.06-9.026 35-8.958 72.42.936 107.23 9.346 33.25 28.425 64.13 55.974 85.31 20.74 16.41 46.17 25.74 71.9 30.8 15.52 2.61 32.4 3.65 46.95-3.42 7.21-3.61 12.61-9.9 19.68-13.73 5.95-3.09 13.69-2.08 18.35 2.83 5.37 5.36 5.46 14.54 1.09 20.54-4.72 6.43-12.32 10-19.83 12.07-16.56 4.15-33.88 2.28-50.45-.73-6.07-.96-11.81-3.66-18.01-3.64 3.32 3.28 8.18 3.85 12.46 5.13 32.52 8.01 67.04 8.07 99.62.28 37.48-9.01 72.94-30.11 95.21-62.07 14.43-19.84 22.37-43.54 27.28-67.36 2.61-17.58 3.93-37.46-6.75-52.8-4.97-7.32-12.96-14.36-11.36-24.13.68-9.13 10.91-14.91 19.31-11.93 10.97 3.56 16.11 15.32 18.35 25.74 4.26 21.6 0 43.8-5.68 64.72 1.49-.22 2.41-1.06 2.76-2.5 9.84-30.72 11.54-63.86 5.86-95.56-6.52-37.16-23.69-73.4-52.26-98.64-17.15-15.647-38.28-26.674-60.63-32.77-18.61-5.53-38.76-9.356-57.97-4.596-9.46 2.066-16.8 8.694-24.38 14.254-6.41 4.945-16.68 5.28-22.46-.84-5.22-5.548-4.74-14.72-.24-20.56 5.97-7.867 15.85-11.51 25.26-13.202 15.03-2.24 30.39-.772 45.22 2.188 5.88 1.013 11.37 3.72 17.36 4.16-1.24-1.04-2.46-2.2-4.03-2.694-19.27-6.22-39.49-9.26-59.73-9.21zm-32.9 77.77c4.06 0 8.08.86 11.69 2.83 6.61 3.79 9.2 11.99 8.55 19.23-1.18 14.37-8.12 27.62-16.86 38.85-9.44 11.41-21.08 21.52-35.02 26.93 1.06 4.46 4.42 9.2 9.46 9.18 8.83.32 16.48-5.26 22.83-10.8 4.56-3.47 4.8-9.54 6.93-14.43 3.11-7.65 7.34-15.81 15.04-19.68 3.62-1.92 9.14-2.29 11.63 1.56 2.72 5.2.25 11.16-2.36 15.87-3.57 6.82-9.23 12.17-13.72 18.32-1.69 5.7-2 11.7-2.11 17.62 6.24-2.76 11.84-6.69 17.72-10.1 10.23-6.62 20.84-12.78 30.34-20.43 1.09-3.69-.4-7.72-.23-11.56-.59-18.59 5.84-37.64 18.51-51.39 7.88-8.3 19.74-14.16 31.34-11.24 6.96 1.27 12.42 6.92 14.38 13.58 2.48 10.04-.96 20.53-6.24 29.08-9.1 14.22-22.32 25.09-35.71 35.09 1.79 4.45 4.33 9.51 9.15 11.16 6.89-1.32 13.9-3.2 20.96-1.8 4.72.99 10.38 2.4 12.69 7.11 2.13 4.58-1.95 9.28-6.13 10.7-8.91 2.91-18.34 1.27-27.43.58-10.83 2.58-20.24 9.74-26.99 18.46-10.48 13.78-13.72 32-11.44 48.9 2.18 14.01 9.22 28.13 21.59 35.74 13.93 8.92 34.01 7.03 45.56-5.01 10.89-11.24 14.33-29.13 8.27-43.57-2.58-6.35-8.11-11.76-15.04-12.84-8.1-1.83-17.71 3.44-18.88 12.04-1.18 6.61 3.46 12.09 7.38 16.82 3.03 3.14 3.39 8.92-.37 11.63-5.83 3.99-13.91 1.19-18.55-3.44-11.45-11.31-11.09-31.72-.13-43.27 13.95-16 41.72-16.3 55.99-.54 15.25 16.89 17.17 43.97 5.44 63.33-8.8 15.2-24.67 26.17-42.11 28.65-18.97 2.82-39.47-3.2-52.8-17.26-26.08-26.56-25.67-73.27-.79-100.48 6.66-7.96 15.44-13.63 24.26-18.88-1.91-2.58-3.91-5.08-5.94-7.58-17.12 12.42-35.02 23.7-53.45 34.06-3.12 1.14-2.56 4.9-3.01 7.56-1.64 22.68-3.58 46.32-14.86 66.58-7.62 14.32-19.16 27.44-34.62 33.34-12.27 4.62-27.11 5.04-38.36-2.42-10.77-6.76-15.67-20.25-14.84-32.54 1.71-15.64 10.6-29.76 21.91-40.38 15.51-14.17 34.33-23.97 52.79-33.7 3.76-2.1 7.86-3.68 11.22-6.39 1.24-3.39 1.42-7.03 1.77-10.57-9.57 5.78-21.67 10.44-32.68 6-9-3.47-14.6-12.08-17.47-20.91-8.49-.91-17.03-4.29-22.45-11.15-9.44-11.32-10.04-28.53-3.21-41.29 2.28-4.6 7.4-7.07 12.41-6.76.97 1.97 2.8 3.93 2.13 6.33-1.49 8.28-4.39 16.88-1.65 25.27 1.36 5.73 6.11 10.31 12 11.09 1.25-13.57 3.89-27.2 10.28-39.4 6.01-11.86 14.23-23.37 26.17-29.81 4.56-2.4 9.83-3.85 15.04-3.87zm-2.82 15.83c-1.49 0-3 .4-4.22 1.32-8.05 5.48-12.96 14.24-17.2 22.76-4.56 9.61-8.24 19.95-8.65 30.67 3.08-1.36 5.99-3.14 8.48-5.42 10.08-8.77 18.89-19.22 24.8-31.28 2.08-4.36 3.88-9.3 2.69-14.18-.96-2.48-3.4-3.81-5.9-3.87zm108.84.41c-3.37.14-6.68 2.62-8.83 5.1-9.41 10.96-14.59 25.49-14.43 39.93 10.62-8.76 20.4-19.03 27-31.2 1.9-3.89 4.4-10.25-.4-13.09a6.59 6.59 0 0 0-3.34-.74zM204.93 258.75c-14.77 6.83-28.57 15.82-41.01 26.28-9.26 8.31-18.28 17.99-21.64 30.27-1.62 6.59-1.99 14.91 3.54 19.81 5.84 5.34 14.64 3.75 21.39 1.22 13.01-5.02 20.87-17.62 26.16-29.86 6.17-15.2 10-31.38 11.56-47.72z"/></svg>
