<svg xmlns="http://www.w3.org/2000/svg" viewBox="0 0 296.97 138.01"><path d="M123.78 63.978l-49.745-49.74a7.335 7.335 0 0 0-10.374 0L53.333 24.57l13.102 13.103c3.046-1.027 6.537-.338 8.964 2.09a8.72 8.72 0 0 1 2.07 9.02l12.628 12.627c3.055-1.053 6.58-.373 9.02 2.07a8.718 8.718 0 0 1 0 12.346 8.73 8.73 0 0 1-12.35 0 8.734 8.734 0 0 1-1.9-9.494L73.09 54.55v30.99c.83.413 1.615.962 2.308 1.652 3.41 3.41 3.41 8.933 0 12.348-3.41 3.408-8.938 3.408-12.345 0-3.41-3.415-3.41-8.94 0-12.348a8.743 8.743 0 0 1 2.86-1.905V54.01a8.608 8.608 0 0 1-2.86-1.905c-2.584-2.58-3.206-6.372-1.882-9.544L48.256 29.644 14.15 63.748a7.34 7.34 0 0 0 0 10.378l49.74 49.734a7.328 7.328 0 0 0 10.377 0l49.513-49.5a7.35 7.35 0 0 0 0-10.378m161.19 28.545c-4.68 2.282-11.53 4.35-17.74 4.35-12.94 0-17.83-5.218-17.83-17.516v-28.5c0-.65 0-1.087-.88-1.087h-7.61V40.09c9.57-1.09 13.38-5.877 14.58-17.735h10.33v15.453c0 .76 0 1.087.87 1.087h15.34v10.878h-16.21v26c0 6.418 1.53 8.918 7.4 8.918 3.05 0 6.2-.758 8.81-1.738l2.94 9.576m-59.99-61.16c-6.2 0-9.79-3.594-9.79-9.798 0-6.195 3.59-9.57 9.79-9.57 6.31 0 9.9 3.375 9.9 9.57 0 6.204-3.59 9.797-9.9 9.797zm-14.04 65.375v-8.59l5.55-.76c1.53-.22 1.74-.544 1.74-2.18V53.232c0-1.194-.32-1.958-1.41-2.282l-5.88-2.07 1.2-8.808h22.52v45.144c0 1.744.11 1.96 1.74 2.18l5.55.76v8.59h-31.01m-35.35-45.937c-5.99 0-10.44 2.94-10.44 10.012 0 5.328 2.94 9.027 10.12 9.027 6.09 0 10.22-3.587 10.22-9.248 0-6.417-3.7-9.793-9.9-9.793zm-11.97 49.943c-1.42 1.73-2.83 3.58-2.83 5.76 0 4.35 5.55 5.66 13.16 5.66 6.31 0 14.91-.44 14.91-6.31 0-3.49-4.14-3.7-9.36-4.03zm32.2-49.614c1.96 2.503 4.03 5.985 4.03 10.99 0 12.074-9.47 19.145-23.17 19.145-3.49 0-6.64-.433-8.6-.976l-3.59 5.765 10.66.65c18.82 1.2 29.91 1.744 29.91 16.21 0 12.51-10.98 19.58-29.91 19.58-19.69 0-27.2-5.01-27.2-13.6 0-4.9 2.18-7.5 5.99-11.097-3.59-1.518-4.79-4.236-4.79-7.175 0-2.395 1.2-4.57 3.16-6.638 1.95-2.065 4.13-4.135 6.74-6.528-5.33-2.61-9.36-8.267-9.36-16.32 0-12.508 8.27-21.1 24.91-21.1 4.68 0 7.51.432 10.02 1.09h21.21v9.243l-10.01.762"/></svg>