<svg xmlns="http://www.w3.org/2000/svg" viewBox="0 0 524.24 173.88"><path d="M221.05 65.64h-17.04V43.12c0-.86-.44-1.28-1.43-1.28h-23.23c-.9 0-1.39.4-1.39 1.26v23.27s-11.64 2.81-12.42 3.04c-.79.23-1.36.95-1.36 1.82v14.62c0 1.05.83 1.89 1.87 1.89h11.91v35.18c0 26.13 18.33 28.7 30.7 28.7 5.65 0 12.41-1.81 13.53-2.23.67-.24 1.07-.94 1.07-1.7V131.6c0-1.05-.88-1.9-1.88-1.9-.99 0-3.54.41-6.15.41-8.37 0-11.21-3.9-11.21-8.94V87.74h17.04c1.04 0 1.89-.84 1.89-1.89V67.53c0-1.05-.85-1.89-1.89-1.89m240.51 64.51c-7.83-.24-13.13-3.79-13.13-3.79V88.71s5.23-3.21 11.65-3.79c8.12-.72 15.95 1.73 15.95 21.1 0 20.43-3.53 24.46-14.47 24.13m8.89-67c-12.81 0-21.52 5.72-21.52 5.72V28.6c0-1.05-.84-1.89-1.87-1.89h-22.79c-1.04 0-1.88.84-1.88 1.89v118.91c0 1.05.84 1.9 1.88 1.9h15.81c.71 0 1.25-.37 1.65-1.01.39-.64.96-5.48.96-5.48s9.32 8.83 26.96 8.83c20.71 0 32.58-10.51 32.58-47.16s-18.96-41.44-31.78-41.44m-61.63 2.68h-22.55c-1.03 0-1.87.85-1.87 1.9v58.3s-5.73 4.19-13.86 4.19c-8.13 0-10.29-3.69-10.29-11.65V67.73c0-1.05-.84-1.9-1.88-1.9H335.5c-1.04 0-1.88.85-1.88 1.9v54.69c0 23.64 13.18 29.43 31.31 29.43 14.87 0 26.86-8.21 26.86-8.21s.57 4.32.83 4.84c.26.51.93 1.03 1.66 1.03l14.56-.1c1.03 0 1.88-.85 1.88-1.89V67.7c0-1.05-.84-1.9-1.88-1.9m-253.09 56.62V67.54c0-1.04-.84-1.89-1.88-1.89h-22.65c-1.04 0-1.97 1.07-1.97 2.11v78.64c0 2.31 1.44 2.99 3.3 2.99h20.41c2.24 0 2.79-1.1 2.79-3.03zm1.62-78.21c0-8.18-6.55-14.8-14.65-14.8-8.08 0-14.65 6.62-14.65 14.8 0 8.17 6.57 14.8 14.65 14.8 8.1 0 14.65-6.63 14.65-14.8m165.1-15.61c0-1.05-.83-1.89-1.87-1.89h-22.72c-1.04 0-1.89.84-1.89 1.89v43.92h-35.42V28.6c0-1.05-.84-1.89-1.87-1.89h-22.72c-1.04 0-1.88.84-1.88 1.89v118.91c0 1.05.84 1.9 1.88 1.9h22.72c1.03 0 1.87-.85 1.87-1.9V96.65h35.42l-.1 50.86c0 1.05.84 1.9 1.88 1.9h22.78c1.04 0 1.87-.85 1.87-1.9zM114.49 77.59H74.14a1.89 1.89 0 0 0-1.886 1.89v19.73c0 1.04.844 1.89 1.887 1.89h15.74v24.51s-3.53 1.2-13.31 1.2c-11.523 0-27.633-4.21-27.633-39.63S65.71 47.1 81.46 47.1c13.62 0 19.5 2.39 23.23 3.55 1.18.36 2.26-.81 2.26-1.85l4.51-19.06c0-.49-.17-1.08-.73-1.48C109.22 27.18 99.96 22 76.57 22 49.634 22 22 33.47 22 88.56c0 55.11 31.64 63.32 58.3 63.32 22.08 0 35.47-9.44 35.47-9.44.55-.3.61-1.07.61-1.43V79.48c0-1.04-.85-1.89-1.89-1.89"/></svg>