<svg xmlns="http://www.w3.org/2000/svg" viewBox="0 0 300 72"><path d="M260.01 41.88v17.25h-10.82V12.51h15.17q5.05 0 8.61 1.05 3.58 1.03 5.82 2.88 2.27 1.86 3.3 4.39 1.02 2.53 1.02 5.5 0 2.27-.61 4.29t-1.82 3.74q-1.19 1.7-2.95 3.04-1.72 1.35-4 2.21 1.09.55 2.02 1.35.96.8 1.66 1.95l9.92 16.22h-9.79q-2.72 0-3.9-2.05l-7.75-13.53q-.51-.9-1.21-1.28-.67-.39-1.92-.39zm0-7.45h4.35q2.21 0 3.74-.55 1.57-.57 2.56-1.56.99-1 1.44-2.31.45-1.34.45-2.88 0-3.07-2.02-4.8-1.98-1.73-6.17-1.73h-4.35zm-16.93-21.92v8.32h-19.14v10.88h14.66v8h-14.66v11.1h19.14v8.32h-30.02V12.51zm-34.41 0v8.57h-13.12v38.05h-10.82V21.08h-13.12v-8.57zm-42.62 9.47q-.48.77-1.02 1.15-.52.39-1.35.39-.74 0-1.6-.45-.83-.48-1.92-1.06-1.06-.57-2.43-1.02-1.38-.48-3.14-.48-3.04 0-4.54 1.31-1.47 1.28-1.47 3.49 0 1.41.89 2.33.9.93 2.34 1.6 1.47.68 3.33 1.25 1.89.55 3.84 1.25 1.95.67 3.8 1.6 1.89.93 3.33 2.37 1.48 1.44 2.37 3.52.9 2.05.9 4.96 0 3.23-1.12 6.05-1.12 2.81-3.27 4.92-2.11 2.08-5.24 3.3-3.11 1.18-7.08 1.18-2.17 0-4.45-.44-2.24-.45-4.35-1.25-2.11-.83-3.96-1.95-1.86-1.12-3.24-2.5l3.2-5.06q.35-.57.99-.92.64-.36 1.38-.36.96 0 1.92.61.99.61 2.21 1.35 1.25.73 2.85 1.34 1.6.61 3.77.61 2.95 0 4.58-1.28 1.63-1.31 1.63-4.13 0-1.63-.89-2.66-.9-1.02-2.37-1.69-1.44-.67-3.3-1.19-1.86-.51-3.81-1.12-1.95-.64-3.8-1.53-1.86-.93-3.33-2.4-1.44-1.51-2.34-3.71-.89-2.24-.89-5.51 0-2.62 1.05-5.12 1.06-2.49 3.11-4.45 2.04-1.95 5.02-3.1 2.98-1.18 6.82-1.18 2.14 0 4.16.35 2.04.32 3.87.99 1.82.64 3.39 1.57 1.6.89 2.85 2.05zm-53.22 28.61q2.18 0 3.87-.71 1.73-.73 2.92-2.08 1.18-1.34 1.79-3.26.64-1.95.64-4.42V12.51h10.81v27.61q0 4.29-1.4 7.88-1.38 3.58-3.97 6.17-2.59 2.59-6.31 4.03-3.71 1.44-8.35 1.44-4.67 0-8.38-1.44-3.72-1.44-6.308-4.03-2.592-2.59-3.968-6.17-1.376-3.59-1.376-7.88V12.51h10.822v27.58q0 2.47.6 4.42.64 1.92 1.83 3.29 1.18 1.35 2.88 2.08 1.73.71 3.9.71zm-41.826-.1h17.28v8.64H60.188V12.51h10.816zm-34.364.83q2.24 0 3.968-.38 1.728-.38 3.264-1.02v-7.08h-4.608q-1.024 0-1.6-.54-.576-.54-.576-1.38v-5.95h16.576v19.68q-1.792 1.31-3.744 2.27-1.92.93-4.128 1.54-2.176.61-4.672.9-2.464.28-5.312.28-5.12 0-9.472-1.79-4.352-1.82-7.552-4.99-3.168-3.2-4.992-7.55Q12 40.92 12 35.8q0-5.21 1.728-9.56 1.728-4.39 4.928-7.56 3.232-3.16 7.776-4.92Q31.008 12 36.64 12q2.912 0 5.472.48 2.56.48 4.704 1.31 2.176.83 3.968 1.98 1.792 1.15 3.2 2.5l-3.136 4.77q-.448.67-1.088 1.05-.608.39-1.344.39-.96 0-1.984-.64-1.28-.77-2.432-1.32-1.12-.57-2.304-.92-1.184-.36-2.496-.52-1.312-.16-2.944-.16-3.04 0-5.472 1.09-2.432 1.06-4.16 3.01-1.696 1.95-2.624 4.7-.928 2.72-.928 6.08 0 3.72 1.024 6.6 1.024 2.88 2.816 4.86 1.824 1.98 4.288 3.04 2.496 1.02 5.44 1.02z"/></svg>