<svg xmlns="http://www.w3.org/2000/svg" viewBox="0 0 1150 410"><path d="M1102.7 121.85h5.9l7.3 19.66 7.5-19.66h5.8v28.84h-3.8v-25.34l-7.4 19.78h-4l-7.5-19.78v25.34h-3.8zm-28.7 0h24.6v3.24h-10.4v25.6h-3.8v-25.6H1074zm-119.03 30.01h89.73v29.61h-56.5v31.68h43.4v26.39h-43.4v34.91h58.3v29.75h-91.53V151.86m-176 0h42.41l29.36 95.05 29.48-95.05h35.82l16.17 152.34h-31.43l-9.69-95.31-29.75 95.69h-21.08l-29.74-98.93-9.7 98.55h-31.55l16.16-152.34m-294.98 0h20.95l66.34 91.56v-91.56h28.32V304.2h-20.95l-66.34-91.56v91.56h-28.32V151.86m-22.76 140.96c-17.2 14.48-42.8 14.35-53.41 14.35-21.46 0-38.53-7.11-51.08-21.34-12.54-14.09-18.88-33.36-18.88-57.67 0-24.57 6.47-43.84 19.27-57.94 12.67-14.1 30.26-21.21 52.5-21.21 8.54 0 16.81 1.04 24.57 2.85 7.89 1.94 15.39 4.78 22.38 8.53l-9.06 26.38c-3.88-2.07-8.4-4.13-12.54-5.69-7.11-2.32-14.23-3.62-21.34-3.62-13.19 0-23.4 4.4-30.65 13.19-7.11 8.8-10.73 21.21-10.73 37.51 0 16.16 3.49 28.58 10.35 37.37 6.98 8.79 17.32 13.06 29.48 13.06 12.42 0 20.04-3.1 24.05-6.34v-26.38h-26.77v-26.25h51.86m220.75-70.61c-19.53.52-34.92 7.63-46.3 21.08-11.76 13.97-17.71 33.37-17.71 58.07 0 24.57 5.95 43.96 17.71 57.93 11.77 13.97 28.07 21.08 48.63 21.08 20.82 0 36.98-7.11 48.75-21.08 11.77-13.97 17.72-33.36 17.72-57.93 0-24.7-5.95-44.1-17.72-58.07-11.77-13.97-27.93-21.08-48.75-21.08h-2.33zm1.42 28.45h.91c10.22 0 18.1 4.53 23.79 13.32 5.56 8.8 8.41 21.34 8.41 37.38 0 16.03-2.85 28.32-8.41 37.24-5.69 8.79-13.57 13.32-23.79 13.32-10.09 0-17.98-4.53-23.54-13.32-5.56-8.92-8.4-21.21-8.4-37.24 0-16.04 2.84-28.58 8.4-37.38 5.43-8.53 12.93-13.06 22.63-13.32zM206.17 314.69c3.49 26.67-19.56 39.82-42.14 22.64-71.86-54.71 118.99-82 106.41-156.75-10.45-62.05-200.815-42.94-222.493 54.14-14.674 65.66 60.403 156.75 138.743 156.75 38.53 0 82.98-34.78 91.3-78.88 6.35-33.61-74.74-20.14-71.82 2.1zM103.42 134.08c19.68-4.01 20.76-84.715-14.33-70.237-35.094 14.48-5.327 74.257 14.33 70.237zm-46.567 37.25c16.528-7.28 2.13-78.436-25.976-59.03-28.092 19.41 9.448 66.3 25.976 59.03zm106.507-55.99c23.24 1.42 48.73-88.684 5.06-83.017-43.66 5.667-28.31 81.597-5.06 83.017zm128.83-96.81c-77.59 0-92.14 110.5-48.5 110.5s126.08-110.5 48.5-110.5z"/></svg>