<svg xmlns="http://www.w3.org/2000/svg" viewBox="0 0 165.1 165.1"><path d="M0 0v165.1h165.1V0zm21.54 9.93h7.74v9.59H28.1c-1.01-4.71-3.19-8.24-6.22-8.41-2.02-.17-3.2 1.01-4.21 2.69-1.01 2.02-1.52 6.23-1.52 11.28 0 4.71.17 8.24.68 10.76.33 1.18 1.18 3.03 3.36 3.03 1.18 0 2.02-.33 2.53-1.01.84-1.01 1.01-3.02 1.01-4.37v-4.54c0-1.69-.51-2.7-1.35-3.2-.67-.34-1.68-.34-2.19-.51v-1.17h9.43v24.06h-1.18c-.5-1.85-.84-3.2-1.68-4.71-.84-1.52-2.36-3.2-4.88-3.2-2.7-.17-4.72 1.52-4.72 4.04 0 3.37 2.02 4.21 5.73 6.22 3.53 2.02 8.07 3.71 8.07 9.6 0 5.72-4.88 9.25-10.43 9.25h-8.92V57.72h1.18c1.51 8.75 5.22 10.27 7.74 10.27 3.2 0 4.71-2.02 4.71-4.88-.17-3.71-2.69-5.05-6.22-6.9-5.05-2.86-7.41-4.21-7.41-8.92.17-4.04 3.37-6.57 6.9-7.57-7.4-.85-9.59-7.58-9.422-14.81 0-7.24 4.202-14.98 12.452-14.98zm33.32.5h5.89v27.26h-5.89zm20.86 0h5.89v27.26h-5.55V35.5c-.5 1.18-1.85 2.53-4.2 2.53-5.89 0-7.41-7.57-7.24-12.12.17-6.73 3.53-11.11 7.74-11.11 1.68 0 2.86.85 3.36 2.02zm22.18 4.2c2.2.11 3.7 1.15 4.4 3.21.7-1.35 2.2-3.03 4.7-3.2 3.7-.17 6.2 2.02 6.2 6.73v16.32h-5.7V20.7c0-2.02-.1-3.71-1.5-4.04-.5-.17-1.2 0-1.8.5-.9.84-1.2 1.85-1.2 3.37v17.16h-5.73V20.7c0-2.02 0-3.71-1.35-4.04-.5-.17-1.18 0-1.85.5-1.01.84-1.18 1.85-1.18 3.54v16.99h-5.72V15.14h5.22v2.53c.67-1.52 2.35-2.86 4.54-3.03h.97zm51.4 0c3.3.12 5.5 2.32 5.5 6.74v16.32H149V20.7c0-2.02 0-3.71-1.4-4.04-.5-.17-1.3 0-2 .5-.9.84-1.2 1.85-1.2 3.54v16.99h-5.7V15.14h5.4v2.53c.6-1.52 2.3-2.86 4.5-3.03h.7zm-107.23 0c2.02 0 3.7.84 5.05 2.02 2.52 2.02 3.87 5.72 3.87 9.76 0 4.21-1.35 7.74-3.87 9.76-1.35 1.18-3.03 2.02-5.05 2.02s-3.53-.84-5.05-2.02c-2.36-2.02-3.87-5.55-3.87-9.76 0-4.04 1.51-7.74 3.87-9.76 1.52-1.18 3.03-2.02 5.05-2.02zm83.93 0c2.2 0 3.5.51 4.7 1.18 1.5.84 2.5 2.19 2.5 5.22v16.65h-5.5v-2.52c-.7 1.85-2.5 3.03-5.1 3.03-2 0-5.5-1.01-5.5-6.23 0-4.88 3.2-5.89 6.7-7.4 3.2-1.35 3.6-1.52 3.6-2.86V18c0-1.52-.9-2.19-2.6-2.19-.7.17-1.8.5-1.8 1.34-.2 1.01 1 1.01 1.1 2.53.2 2.36-1.6 3.2-3.3 3.03-1.2 0-2.5-.67-2.7-2.52-.2-3.04 3.2-5.56 7.9-5.56zm-83.93 1.18c-1.01 0-1.68.5-2.02 1.34-.84 1.69-.84 5.22-.84 9.26 0 4.21 0 7.57.84 9.26.34.84 1.01 1.34 2.02 1.34 1.18 0 1.68-.5 2.19-1.34.67-1.69.67-5.05.67-9.26 0-4.04.17-7.57-.67-9.26-.51-.84-1.01-1.34-2.19-1.34zm30.96.33c-2.18 0-2.52 5.05-2.52 9.59 0 2.7 0 5.22.17 7.24.33 2.19 1.01 3.53 2.19 3.53.84 0 1.34-.33 1.84-1.01 1.35-1.85 1.18-6.22 1.18-9.59 0-3.2 0-7.23-1.18-8.92-.5-.5-.83-.84-1.68-.84zm54.37 8.08l-1.9 1.18c-1.9 1.18-2.2 2.69-2.4 4.38-.1 1.34-.1 2.52 0 4.54.2 1.85 1.4 2.19 2.4 1.85 1.2-.5 1.9-2.69 1.9-5.05zM72.02 41.9h5.72v6.56c.85-1.17 2.36-2.02 4.21-2.18 3.7-.34 6.23 2.01 6.23 6.73v16.32h-5.89v-17c0-2.02 0-3.7-1.35-4.04-.5-.16-1.34 0-2.02.51-.84.84-1.18 1.85-1.18 3.53v17h-5.72v-6.06c-1.01 2.86-4.54 6.4-8.58 6.4-3.53 0-9.76-1.69-9.76-11.45 0-9.08 6.06-11.94 9.26-11.94 2.52 0 4.2.67 5.21 2.35.84 1.35 1.01 3.53-.17 4.88-1.51 1.52-4.71 1.18-5.21-.84-.51-1.85.5-2.69 1.17-3.53.68-.68.51-1.69-1-1.69-2.02 0-2.7 2.19-3.03 4.88-.34 4.21-.34 8.08.17 11.45.33 2.35 1 4.54 3.86 4.54 4.04.17 8.08-5.22 8.08-10.94zm-29.28 4.38c2.19 0 3.53.34 4.71 1.01 1.52 1.01 2.36 2.19 2.36 5.22v16.82h-5.39v-2.52c-.67 1.68-2.52 2.86-5.05 2.86-2.18 0-5.55-.84-5.55-6.06 0-4.88 3.2-5.89 6.56-7.4 3.37-1.51 3.71-1.68 3.71-2.86v-3.7c0-1.69-.84-2.36-2.53-2.19-.67 0-1.85.34-1.85 1.18-.17 1.18 1.01 1.18 1.18 2.69.17 2.19-1.68 3.03-3.37 3.03-1.17-.17-2.52-.84-2.69-2.69-.17-2.86 3.2-5.39 7.91-5.39zm57.22 0h5.84v6.06h-1.1c-.7-2.52-1.7-4.71-4.4-4.88-1.69-.17-3.21.84-3.37 2.36-.17 1.51.33 2.86 3.37 4.54 3.9 2.18 6.9 3.19 6.9 7.74 0 4.88-4.2 7.23-7.75 7.23h-6.73v-8.41h1.18c.84 4.38 2.19 7.07 5.38 7.24 2.02 0 3.52-1.18 3.52-3.37 0-2.19-1.3-3.53-4.53-5.38-3.53-2.19-5.72-3.54-5.72-6.57 0-4.03 2.86-6.56 7.41-6.56zm-55.87 9.43l-1.85 1.17c-1.86 1.18-2.19 2.69-2.36 4.38-.17 1.34-.17 2.69 0 4.54 0 2.02 1.18 2.36 2.19 1.85 1.34-.5 2.02-2.52 2.02-5.05z"/></svg>
