<svg xmlns="http://www.w3.org/2000/svg" viewBox="0 0 231.333 246"><path d="M129.128 225.713c-.46.253-.938.554-1.408.767-1.415.645-2.86.812-4.145.812-1.37 0-3.503-.088-5.684-1.662-3.035-2.14-4.358-5.816-4.358-9.023 0-6.63 5.39-9.877 9.785-9.877 1.54 0 3.125.386 4.402 1.2 2.135 1.405 2.692 3.248 2.99 4.232l-10.047 4.058-3.283.265c1.067 5.42 4.738 8.584 8.8 8.584 2.18 0 3.762-.766 5.216-1.497l-2.268 2.14zm-4.014-12.74c.81-.296 1.24-.554 1.24-1.156 0-1.707-1.925-3.677-4.235-3.677-1.71 0-4.916 1.33-4.916 5.95 0 .725.088 1.494.132 2.262l7.778-3.378"/><path d="M112.505 226.648h-7.564c.983-1.276 1.154-1.407 1.154-2.256v-6.97c0-3.333.046-8.083.175-12.526.04-2.184.21-4.916.25-6.884h-3.33l3.205-1.543h6.11c-1.322.77-1.75 1.028-1.92 2.527-.345 3.288-.387 8.504-.387 14.577v9.87c0 1.666.3 1.927 1.71 2.05.72.094 1.454.137 2.178.22l-1.58.934"/><path d="M98.49 208.824c.98.812 3.03 2.524 3.03 5.776 0 3.162-1.795 4.66-3.587 6.068-.557.556-1.203 1.16-1.203 2.098 0 .935.646 1.453 1.115 1.834l1.54 1.194c1.878 1.585 3.59 3.037 3.59 5.982 0 4.02-3.89 8.082-11.24 8.082-6.193 0-9.187-2.947-9.187-6.112 0-1.54.77-3.72 3.29-5.22 2.65-1.615 6.236-1.838 8.16-1.96-.598-.772-1.28-1.58-1.28-2.904 0-.732.216-1.152.43-1.672-.472.046-.94.087-1.367.087-4.53 0-7.094-3.377-7.094-6.71 0-1.966.895-4.15 2.732-5.73 2.438-2.01 5.345-2.354 7.65-2.354h8.804l-2.734 1.54H98.49zm-3.035 18.98c-.344-.042-.557-.042-.983-.042-.385 0-2.69.086-4.486.686-.942.34-3.68 1.366-3.68 4.4 0 3.032 2.952 5.214 7.522 5.214 4.106 0 6.285-1.97 6.285-4.613 0-2.184-1.415-3.335-4.658-5.646m1.243-8.12c.98-.983 1.062-2.35 1.062-3.12 0-3.07-1.835-7.867-5.38-7.867-1.116 0-2.313.558-2.994 1.41-.73.897-.943 2.06-.943 3.168 0 2.865 1.668 7.61 5.345 7.61 1.07 0 2.223-.52 2.91-1.202M72.04 227.206c-6.797 0-10.43-5.295-10.43-10.083 0-5.607 4.57-10.39 11.064-10.39 6.284 0 10.222 4.912 10.222 10.088 0 5.052-3.895 10.386-10.857 10.386m5.34-3.466c1.02-1.36 1.28-3.07 1.28-4.74 0-3.76-1.795-10.942-7.094-10.942-1.41 0-2.82.56-3.847 1.445-1.663 1.502-1.966 3.39-1.966 5.228 0 4.23 2.095 11.195 7.267 11.195 1.668 0 3.375-.814 4.36-2.185M49.297 227.206c-6.794 0-10.427-5.295-10.427-10.083 0-5.607 4.57-10.39 11.07-10.39 6.28 0 10.212 4.912 10.212 10.088 0 5.052-3.888 10.386-10.855 10.386m5.344-3.466c1.023-1.36 1.283-3.07 1.283-4.74 0-3.76-1.794-10.942-7.093-10.942-1.413 0-2.823.56-3.847 1.445-1.67 1.502-1.973 3.39-1.973 5.228 0 4.23 2.1 11.195 7.272 11.195 1.665 0 3.374-.814 4.36-2.185M36.115 225.72l-5.737 1.316c-2.322.36-4.408.683-6.608.683-11.06 0-15.268-8.137-15.268-14.505 0-7.78 5.973-14.99 16.193-14.99 2.158 0 4.242.318 6.125.843 3.007.84 4.412 1.878 5.295 2.48l-3.33 3.167-1.4.322.998-1.6c-1.358-1.328-3.845-3.774-8.574-3.774-6.326 0-11.1 4.815-11.1 11.822 0 7.535 5.453 14.63 14.185 14.63 2.566 0 3.89-.52 5.088-1.006v-6.447l-6.05.322 3.208-1.72h8.492l-1.04.998c-.28.24-.322.317-.402.638-.038.364-.074 1.526-.074 1.924v4.895M147.498 226.648h-3.04l-4.437-19.354h2.4l3.64 17.354 3.798-17.354h3.08l3.84 17.354 3.558-17.354h2.358l-4.396 19.354h-3.04l-3.837-17.277-3.922 17.278M176.816 213.212c0-3.16-1.398-4.358-4.597-4.358-2.48 0-3.96 1.36-4.32 3.597l-2.16-.317c.44-3.16 2.918-5.278 6.557-5.278 4.28 0 6.68 1.84 6.68 6.117v9.88c0 1.678.12 2.838.362 3.797h-2.243c-.2-.522-.28-1.48-.28-2.04-.917 1.357-3.08 2.478-5.115 2.478-3.562 0-6.357-2.16-6.357-6.477 0-3.96 2.84-6.158 6.876-6.158 1.96 0 3.56.36 4.598.84v-2.08h-.002zm0 4.16c-1.078-.522-2.596-.96-4.636-.96-2.72 0-4.642 1.358-4.642 4.198 0 2.997 1.8 4.438 4.28 4.438 2.2 0 4.198-1.6 4.997-3.32v-4.357M183.38 199.055h2.2v27.593h-2.2v-27.593zM190.26 199.055h2.2v27.593h-2.2v-27.593zM203.38 225.007c2.358 0 4.08-1.4 4.52-5.038l2.235.32c-.558 4.676-3.238 6.796-6.756 6.796-4.6 0-7.32-3.36-7.32-10.276 0-6.196 2.318-9.956 7.08-9.956 5 0 6.995 4.157 6.995 9.794v.723H198.34c0 5.317 2 7.637 5.04 7.637m4.397-9.635v-.08c-.12-3.6-1.56-6.4-4.638-6.4-3.002 0-4.642 2.522-4.8 6.48h9.437M220.337 226.53c-.48.2-1.36.358-2.32.358-2.877 0-3.796-1.44-3.796-4.2v-13.395h-2.515v-2h2.516v-6.24l2.24-.88v7.12h3.877v2h-3.876v13.115c0 1.838.36 2.36 1.918 2.36.764 0 1.44-.16 1.96-.44v2.2M88.782 86.355c.336 2.882.54 5.782.54 8.703 0 13.928-3.797 27.546-10.98 39.377-.277.457-.5.873-.686 1.266-1.396 2.817-1.887 5.776-1.626 8.805l.005.07C74.29 117.406 59.435 93.9 36.4 81.578c-7.634-4.094-10.517-13.62-6.432-21.258a15.673 15.673 0 0 1 13.858-8.29c2.567 0 5.12.638 7.398 1.855 14.924 7.992 28.1 19.42 37.558 32.468m91.17-29.557a170.83 170.83 0 0 0-12.253-35.278c-2.867-6.017-9.02-9.904-15.692-9.904-2.58 0-5.09.568-7.438 1.688-8.642 4.113-12.32 14.516-8.213 23.133 8.816 18.586 13.172 38.225 13.172 58.622 0 20.396-4.38 40.01-13.027 58.29-.13.28-1.643 3.518-1.643 7.256a17.84 17.84 0 0 0 .443 4.02c1.12 4.914 4.333 9.372 9.474 11.838a17.24 17.24 0 0 0 7.408 1.67c6.328 0 12.192-3.502 15.218-9.003 3.464-6.5 6.96-15.036 10.008-26.026.964-3.31 1.772-6.42 2.53-9.78a172.297 172.297 0 0 0 4.298-38.265c0-12.918-1.477-25.89-4.287-38.262m-73.283-18.16c-.304-.512-.658-.987-1.013-1.456a16.318 16.318 0 0 0-4.075-3.79c-2.623-1.716-5.774-2.714-8.97-2.714-2.65 0-4.008.322-5.915 1.086-1.956.78-4.033 1.847-5.91 3.828-1.86 1.965-2.98 3.968-3.76 6.058-1.572 4.19-1.383 9.698 1.36 14.108 5.763 9.265 9.154 19.774 10.397 30.597.335 2.882.54 5.782.54 8.703 0 13.928-3.798 27.546-10.98 39.377-.252.415-.474.842-.687 1.266a16.408 16.408 0 0 0-1.623 8.842c.476 5.03 3.216 9.79 7.854 12.605a16.913 16.913 0 0 0 3.777 1.668c1.556.47 3.16.734 4.788.734 5.83 0 11.12-2.974 14.145-7.954 9.1-14.984 14.41-31.937 15.547-49.423.15-2.364.23-4.734.23-7.114.002-19.935-5.427-39.443-15.705-56.423m29.83 114.713c8.65-18.28 13.03-37.895 13.03-58.292 0-7.012-.48-12.124-.843-15.36-11.364-18.18-27.848-34.432-47.145-46.33.016.01.445.3.478.32 1.337.962 2.462 1.97 3.636 3.494.286.375.685.904 1.013 1.455 10.278 16.98 15.707 36.488 15.707 56.42 0 2.38-.08 4.75-.23 7.115 8.242 15.683 12.738 33.51 12.738 52.215 0 1.487.026 3.878-.01 5.623.08-1.955.57-4.02 1.276-5.823.113-.286.223-.567.348-.837"/></svg>