<svg xmlns="http://www.w3.org/2000/svg" viewBox="0 0 306.59 117.6"><path fill="#231F20" d="M92.217 66.044h15.778l-2.158 6.338-84.42.27 79.7-41.805h5.21l-14.11 35.197z"/><path fill="#231F20" d="M111.906 22.486h16.587l61.36 40.052H96.666l15.24-40.052zM145.08 17.362l135.933 40.052h-88.195l-64.46-40.187 16.722.135zM189.408 96.387c-.586.462-.98 1.043-1.384 1.05-3.73.07-7.465.04-11.198.04l-.258-.466c.44-.434.81-1.113 1.332-1.26 2.132-.606 3.177-2.15 3.724-4.09 1.54-5.465 3.04-10.942 4.5-16.43.91-3.41.51-4.17-3.08-5.71.673-.472 1.14-1.086 1.602-1.08 5.04.054 10.09.047 15.114.388 3.16.214 5.38 2.49 6.054 5.424.606 2.634-.413 5.13-3.29 6.81-1.903 1.11-4.113 1.695-6.438 2.614 2.975 4.03 3.16 10.218 9.395 12.362-.344.528-.607 1.322-.916 1.34-1.867.112-3.8.303-5.594-.077-.794-.167-1.472-1.535-1.94-2.487-1.588-3.24-3.14-6.506-4.543-9.832-.704-1.67-2.002-1.845-3.298-1.467-.663.193-1.26 1.236-1.53 2.018-.608 1.764-1.025 3.597-1.464 5.414-.754 3.128-.172 4.204 3.212 5.443zm-.57-15.07l.394.718c2.87-.51 5.807-.798 8.594-1.6 2.203-.636 3.445-3.012 3.317-5.154-.14-2.368-1.567-4.197-4.077-4.735-1.66-.356-3.407-.3-5.13-.428l-3.097 11.2zM123.71 97.317l-3.534-23.022c-.386.755-.676 1.224-.876 1.728-1.927 4.857-3.925 9.688-5.723 14.592-1.164 3.177-.592 4.25 2.76 5.825-.6.423-1.026.98-1.465.99-3.02.078-6.04.042-9.063.042-.095-.17-.19-.342-.283-.514.505-.44 1.018-.874 1.515-1.325.976-.886 2.348-1.598 2.85-2.702 2.9-6.404 5.65-12.88 8.33-19.382.83-2.018.347-2.593-2.833-3.985.746-.5 1.23-1.102 1.742-1.124 2.38-.104 4.768-.047 6.846-.047l2.677 22.34.62.12c4.392-7.583 10.766-13.906 14.005-22.393h8.908c-.702.758-1.07 1.527-1.544 1.602-2.283.358-3.155 1.973-3.488 3.886-.63 3.618-1.084 7.268-1.565 10.91-.294 2.24-.534 4.49-.74 6.74-.264 2.862.283 3.685 3.47 4.798-.77.485-1.24 1.035-1.722 1.045-3.42.076-6.842.04-10.83.04.664-.747.96-1.405 1.373-1.49 1.928-.394 2.98-1.65 3.23-3.423.826-5.84 1.518-11.7 1.846-17.694-.598.887-1.21 1.766-1.794 2.662-4.022 6.162-8.103 12.287-12.002 18.526-.763 1.227-1.394 1.708-2.71 1.257zm39.372-25.182c.086-.31.107-.697.307-.907.385-.405.867-.99 1.327-1.008 2.26-.084 4.532-.096 6.79.042 2.277.14 3.176 1.19 3.296 3.484l.09 1.808c.75-.436 1.573-.625 1.72-1.048.667-1.928 1.144-3.922 1.75-6.11-7.57 0-14.868-.02-22.167.042-.454.004-.903.633-1.55 1.117 3.717 1.596 4.178 2.38 3.314 5.585a1148.25 1148.25 0 0 1-4.567 16.407c-.574 2.01-1.673 3.594-3.844 4.25-.522.158-.904.777-1.465 1.288.496.248.605.35.714.35 7.503.02 15.008.043 22.512.016.42 0 1.055-.31 1.225-.656.984-2.008 1.86-4.07 2.77-6.112l-.47-.526c-.743.515-1.607.918-2.208 1.565-3.442 3.703-7.68 4.825-12.518 3.93-2.247-.416-2.938-1.526-2.453-3.756.355-1.636.854-3.24 1.314-4.854 1.147-4.02 1.153-4.035 5.382-3.926 2.86.074 4.743.418 5.24 3.63.055.345.486.633.742.95.347-.306.897-.55 1.01-.926.88-2.948 1.68-5.922 2.504-8.888l-.36-.434c-.597.376-1.206.736-1.79 1.132-1.248.846-2.393 2.216-3.743 2.455-2.306.408-4.737.113-7.352.113.873-3.178 1.672-6.095 2.474-9.01zM242.828 69.388c.467-.33.932-.947 1.402-.95 7.3-.062 14.6-.044 21.918-.044-.506 4.596-1.465 6.673-3.135 6.714-.045-.497-.076-1.002-.138-1.503-.276-2.237-1.243-3.24-3.507-3.358-2.194-.114-4.4-.102-6.596-.04-.444.012-1.156.407-1.268.772-1.02 3.315-1.936 6.664-2.922 10.144 2.665 0 5.136.253 7.515-.105 1.226-.185 2.296-1.447 3.423-2.24.635-.447 1.245-.93 1.866-1.396l.47.427c-.857 3.084-1.7 6.17-2.6 9.242-.078.268-.586.637-.807.585-.342-.08-.76-.427-.882-.758-1.294-3.506-1.522-3.686-5.25-3.77-4.294-.094-4.306-.097-5.39 3.958-.466 1.743-.956 3.486-1.278 5.257-.35 1.92.372 2.96 2.318 3.31 4.973.894 9.352-.122 12.798-4.114.5-.58 1.345-.865 2.03-1.288l.52.485c-.95 2.066-1.87 4.146-2.88 6.182-.15.3-.72.557-1.096.558-7.626.032-15.253.024-23.17-.422.48-.44.89-1.096 1.456-1.283 1.898-.626 3.06-1.88 3.587-3.744 1.664-5.9 3.362-11.788 4.92-17.714.663-2.516-.18-3.585-3.305-4.908zm-32.9 9.434c-3.978 6.988-1.4 15.12 5.503 17.97 5.666 2.34 11.014 1.132 16.018-2.094.36-.232.757-.604.872-.99.633-2.125 1.183-4.275 1.754-6.39-1.686-.636-2.486-.048-3.004 1.36-.375 1.02-.947 1.978-1.514 2.915-1.935 3.202-4.743 4.834-8.536 4.572-3.68-.254-6.4-2.113-7.242-5.65-.592-2.485-.697-5.307-.164-7.795 1.206-5.638 3.915-10.437 9.782-12.523 5.57-1.98 9.637.376 10.936 6.098.124.545.84.956 1.64 1.818l1.497-7.096c-11.353-6.312-21.692-2.478-27.543 7.805zm81.64 11.16c-.687.325-1.64.465-2.018 1.007-3.104 4.444-7.617 5.14-12.51 4.872-3.082-.17-4.048-1.34-3.285-4.24a628.42 628.42 0 0 1 4.673-16.775c.617-2.104 1.877-3.78 4.027-4.693.536-.227.876-.916 1.637-1.76-4.094 0-7.52-.022-10.944.03-.414.005-.896.346-1.19.673-.097.108.218.87.486.977 2.3.925 2.11 2.824 1.647 4.585-1.504 5.737-3.17 11.433-4.75 17.152-.535 1.933-1.696 3.27-3.5 4.132-.447.214-.75.73-1.118 1.106 7.948.428 15.635.44 23.322.392.382-.002.932-.445 1.113-.822.973-2.026 1.855-4.097 2.768-6.152l-.358-.487zM48.117 90.12c2.596 5.408 2.596 5.408 4.737 6.642-1.178 1.31-3.426 1.174-4.235-.356-.78-1.475-1.278-3.103-2.098-4.552-.417-.736-1.27-1.226-1.926-1.827-.462.673-.974 1.318-1.37 2.03-.243.44-.29.984-.456 1.47-.533 1.556-.096 2.744 1.33 3.804h-6.364c-.01-.074-.076-.288-.04-.306 2.13-1.073 2.682-3.076 3.164-5.173.418-1.817.948-3.613 1.503-5.396.51-1.635.802-3.156-1.2-4.294 3.44-.173 6.85-.972 10.047.408 2.85 1.23 2.81 4.612.048 6.282-.954.576-2.088.854-3.14 1.27zm-4.082-.95c1.768-.252 3.206-.267 4.51-.69 1.488-.484 2.233-1.708 1.96-3.347-.277-1.668-1.525-1.972-2.965-2.194-1.7-.263-2.087.684-2.36 2.017-.258 1.25-.663 2.467-1.145 4.212zM36.503 86.897c-.527-.344-.692-.39-.724-.48-1.496-4.337-6.327-5.197-9.397-1.638-2.058 2.385-2.957 5.25-2.306 8.28.265 1.233 1.485 2.78 2.622 3.173 1.332.463 3.283.258 4.54-.434 1.92-1.06 1.466-4.586-1.007-6.094h7.348c-.177.243-.326.468-.497.676-.733.895-1.598 1.71-2.178 2.696-.715 1.214-.86 3.235-1.84 3.727-2.356 1.18-5.094 1.465-7.717.55-3.79-1.322-5.366-5.557-3.59-9.434 2.65-5.79 9.89-8.01 15.773-4.692-.32 1.156-.655 2.342-1.027 3.67zM103.183 88.34c.022 5.29-5.674 10.216-10.86 9.393-4.11-.653-6.445-5.05-4.702-9.306 1.384-3.375 3.895-5.78 7.54-6.662 4.245-1.03 8.005 2.107 8.023 6.575zm-2.156-.618c-.41-2.195-1.067-3.872-2.954-4.814-1.6-.798-3.972-.147-5.454 1.396-1.927 2.006-2.71 4.48-2.91 7.18-.188 2.512.84 4.45 2.65 5.078 2.03.705 4.563.014 5.732-2.04 1.213-2.133 1.975-4.523 2.935-6.8zM67.243 82.08h6.198c-4.17 2.595-3.54 6.937-4.712 10.513-1.296 3.953-3.93 5.795-8.025 5.15-3.337-.526-5.048-2.995-4.27-6.267.43-1.817.947-3.615 1.484-5.404.465-1.55.798-3-1.662-3.483l.344-.432h6.613c0 .008.034.227-.005.24-2.188.786-2.71 2.67-3.17 4.65-.394 1.694-.963 3.346-1.385 5.033-.567 2.27.26 3.58 2.543 4.165 3.014.773 5.383-.53 6.263-3.537.54-1.853.96-3.743 1.416-5.62.458-1.88.94-3.785-2.034-4.456l.4-.55zm11.778 8.335c1.403-.1 2.863.01 4.196-.347 2.55-.685 3.873-2.523 3.632-4.572-.236-2.01-1.997-3.372-4.647-3.545-1.095-.07-2.196-.078-3.294-.09-1.417-.015-2.834-.004-4.25-.004-.06.186-.117.372-.174.558 1.65.706 2.248 1.888 1.58 3.447-1.63 3.802-.89 8.603-5.07 11.444h6.56c-.495-1.09-1.484-2.197-1.304-3.06.723-3.46 1.79-6.854 2.786-10.255.117-.4.538-.906.912-1.004 1.81-.474 3.743.667 4.097 2.31.4 1.852-.808 3.483-2.862 3.848-.718.128-1.442.22-2.164.33 0 .314.003.628.005.94z"/></svg>
