<svg xmlns="http://www.w3.org/2000/svg" viewBox="0 0 261 219.9"><path class="st0" d="M141.9 51.7c-1.5-1.5-2.6-2.6-3.5-3.3-.8-.8-1.7-1.4-2.6-1.9-.9-.5-1.8-.8-2.6-.8-2.2-.1-4.2.8-6.1 2.6l-4.7 4.7 18.5 18.5 4.7-4.7c1.9-1.9 2.7-3.9 2.6-6-.1-1.3-.6-2.6-1.6-3.8-.9-1.4-2.5-3.1-4.7-5.3z"/><path class="st0" d="M193.8 85.2c0-.3 0-.6-.1-.9v-.4c0-.3-.1-.6-.1-.8 0-.1-.1-.3-.1-.4-.1-.3-.1-.5-.2-.8 0-.1-.1-.3-.1-.4-.1-.2-.2-.5-.3-.7-.1-.1-.1-.3-.2-.4-.1-.2-.2-.5-.4-.7-.1-.1-.1-.3-.2-.4-.2-.2-.3-.5-.5-.7-.1-.1-.1-.2-.2-.3-.3-.3-.5-.7-.9-1l-49-49c-4.7-4.7-12.4-4.5-17.2.3L76.2 76.7l-.9.9c-.2.2-.3.4-.5.6-.1.1-.2.3-.3.4-.2.3-.3.6-.5.8 0 .1-.1.1-.1.2-.2.3-.3.6-.4.9 0 .1-.1.2-.1.2-.1.3-.2.6-.3.8 0 .1-.1.2-.1.3-.1.2-.1.5-.2.7 0 .1-.1.3-.1.4 0 .2-.1.4-.1.6 0 .2-.1.4-.1.6v1.1c0 12.7 0 14.1 3.2 17.4l49 48.6c2.3 2.3 5.4 3.4 8.5 3.4 3.1 0 6.1-1.1 8.5-3.4l49-48.6c3.1-3.2 3.2-4.6 3.2-16.1v-.1-1.1c-.1.1-.1 0-.1-.1zm-62.9 2.2c-.7 1.6-1.7 3.1-3 4.4-1.3 1.3-2.7 2.2-4.2 2.9-1.6.7-3.2 1-4.9 1-1.2 0-2.3-.2-3.2-.5-1-.3-1.9-.8-2.9-1.5-1-.6-2-1.5-3-2.5s-2.2-2.2-3.6-3.5c-1.4-1.4-2.5-2.6-3.5-3.6s-1.8-2-2.5-3c-.6-1-1.1-1.9-1.4-2.9-.3-1-.5-2-.5-3.2 0-3.5 1.3-6.6 3.9-9.2 1.2-1.2 2.5-2.1 3.9-2.8 1.4-.6 2.8-1 4.3-1.1 1.4-.1 2.9.1 4.3.5s2.8 1.1 4.1 2.1l-2.7 2.7c-2-1.3-4-1.8-6-1.6-2 .2-3.8 1-5.4 2.6-.8.8-1.5 1.8-1.9 2.9-.5 1.1-.7 2.2-.6 3.3 0 .8.1 1.6.3 2.3.2.7.6 1.4 1.1 2.2.5.8 1.2 1.6 2.1 2.6.9 1 2 2.1 3.3 3.4 1.3 1.3 2.5 2.4 3.4 3.3 1 .9 1.8 1.6 2.6 2.1s1.5.9 2.2 1.1c.7.2 1.5.3 2.3.3 1.1 0 2.2-.2 3.3-.7 1.1-.5 2-1.1 2.9-2 .9-.9 1.6-2 2.1-3.2.5-1.2.7-2.5.5-3.8-.1-1.1-.4-2.2-.9-3.1-.5-.9-1.3-1.9-2.3-2.9l-1.9-1.9-6.3 6.3-2.4-2.4 9-9 4.1 4c1.5 1.5 2.6 2.9 3.3 4.3.7 1.4 1.1 2.9 1.1 4.5 0 2.2-.3 4-1 5.6zm18.6-17.5l-9 9L115 53.4l9-9c2.8-2.8 5.8-4.2 9-4.2 1.5 0 2.9.3 4.3.8 1.3.6 2.5 1.3 3.6 2.2 1.1.9 2.3 2 3.6 3.3l1.3 1.3 1.3 1.3c1.4 1.4 2.5 2.6 3.4 3.8.9 1.1 1.7 2.4 2.3 3.8.6 1.4.9 2.8.9 4.3 0 3.1-1.4 6.1-4.2 8.9z"/><g><path class="st0" d="M54.3 191.5c-.3.9-.7 1.6-1.4 2.3-.7.8-1.6 1.4-2.5 1.8-1 .4-2 .6-3 .6s-2-.2-2.9-.6c-.9-.4-1.7-.9-2.4-1.6-.5-.5-.9-1-1.1-1.5-.3-.5-.5-1.1-.6-1.8-.1-.7-.2-1.4-.2-2.2v-2.9-2.9c0-.8.1-1.6.2-2.2.1-.7.3-1.2.6-1.8.3-.5.6-1 1.1-1.5 1.5-1.4 3.2-2.2 5.3-2.2 1 0 1.9.2 2.8.5.8.3 1.6.7 2.2 1.3.6.6 1.1 1.2 1.6 2 .4.8.7 1.6.8 2.5h-2.2c-.3-1.3-.9-2.4-1.8-3.1-.9-.8-2-1.1-3.3-1.1-.7 0-1.3.1-2 .4-.6.3-1.2.6-1.6 1.1-.3.3-.6.7-.8 1.1-.2.4-.3.8-.4 1.4-.1.5-.2 1.2-.2 1.9 0 .8-.1 1.7-.1 2.8 0 1.1 0 2 .1 2.8 0 .8.1 1.4.2 1.9s.2 1 .4 1.4.5.7.8 1.1c.5.5 1 .8 1.6 1.1.6.3 1.3.4 2 .4.8 0 1.5-.2 2.2-.5.7-.3 1.3-.7 1.8-1.3.4-.5.7-1.1.9-1.7.2-.6.3-1.3.3-2.1v-1.6h-5.1v-2H55v3.3c-.3 1-.5 2.1-.7 2.9zM72.8 196.1l-4.8-9.3h-5v9.3h-2.2v-20.9h8c.9 0 1.7.1 2.5.4.8.3 1.4.6 2 1.1.5.5 1 1.1 1.3 1.8.3.7.5 1.5.5 2.4 0 1.5-.4 2.8-1.3 3.7-.8 1-1.9 1.6-3.3 1.9l5 9.5h-2.7zm-1.2-18c-.8-.6-1.8-1-3-1H63v7.7h5.6c1.2 0 2.2-.3 3-.9.8-.6 1.2-1.6 1.2-2.9-.1-1.3-.5-2.3-1.2-2.9zM94.1 192c-.4.9-.9 1.6-1.5 2.2-.7.6-1.4 1.1-2.3 1.5-.9.3-1.9.5-2.9.5-1.1 0-2-.2-2.9-.5-.9-.3-1.7-.8-2.3-1.5-.6-.6-1.2-1.4-1.5-2.2-.4-.9-.5-1.8-.5-2.9v-14h2.2V189c0 .8.1 1.5.4 2.2.2.6.6 1.2 1 1.6.4.5 1 .8 1.6 1.1.6.3 1.3.4 2.1.4s1.5-.1 2.1-.4c.6-.3 1.2-.6 1.6-1.1.4-.4.8-1 1-1.6.2-.6.4-1.4.4-2.2v-13.8h2.2v14c-.2 1-.4 2-.7 2.8zM113.8 183.8c-.3.8-.8 1.4-1.3 1.9-.6.5-1.2.9-2 1.2-.8.3-1.7.4-2.6.4h-5.5v8.6h-2.2V175h7.8c1 0 1.8.1 2.6.4.8.3 1.5.7 2 1.2.6.5 1 1.2 1.3 1.9.3.8.5 1.6.5 2.5s-.2 2.1-.6 2.8zm-3-5.6c-.8-.7-1.9-1-3.2-1h-5.3v8.3h5.3c1.3 0 2.4-.3 3.2-1 .8-.7 1.2-1.7 1.2-3.1s-.3-2.5-1.2-3.2zM132.7 188.5c0 .8-.1 1.6-.2 2.2-.1.7-.3 1.2-.6 1.8-.3.5-.6 1-1.1 1.5-.7.7-1.5 1.2-2.4 1.6-.9.4-1.9.6-2.9.6-2.1 0-3.9-.7-5.3-2.2-.5-.5-.9-1-1.1-1.5-.3-.5-.5-1.1-.6-1.8-.1-.7-.2-1.4-.2-2.2v-2.9-2.9c0-.8.1-1.6.2-2.2.1-.7.3-1.2.6-1.8.3-.5.6-1 1.1-1.5 1.5-1.4 3.2-2.2 5.3-2.2 2.1 0 3.9.7 5.4 2.2.5.5.9 1 1.1 1.5.3.5.5 1.1.6 1.8.1.7.2 1.4.2 2.2v2.9c0 1.1-.1 2.1-.1 2.9zm-2.3-5.7c0-.8-.1-1.4-.2-1.9s-.2-1-.4-1.4c-.2-.4-.5-.7-.8-1.1-.5-.5-1-.8-1.6-1.1-.6-.3-1.3-.4-2-.4s-1.3.1-2 .4c-.6.3-1.2.6-1.6 1.1-.3.3-.6.7-.8 1.1-.2.4-.3.8-.4 1.4-.1.5-.2 1.2-.2 1.9 0 .8-.1 1.7-.1 2.8 0 1.1 0 2 .1 2.8 0 .8.1 1.4.2 1.9s.2 1 .4 1.4c.2.4.5.7.8 1.1.5.5 1 .8 1.6 1.1.6.3 1.3.4 2 .4s1.4-.1 2-.4c.6-.3 1.2-.6 1.6-1.1.3-.3.6-.7.8-1.1.2-.4.3-.8.4-1.4.1-.5.2-1.2.2-1.9v-2.8-2.8zM154 187.9c0 .8-.1 1.5-.2 2.2-.1.7-.3 1.4-.6 2.1-.3.7-.7 1.3-1.3 1.9-.7.7-1.5 1.2-2.5 1.5-1 .3-2 .5-3.1.5h-7.6v-20.9h7.6c1.1 0 2.1.2 3.1.5.9.3 1.8.8 2.5 1.5.6.6 1 1.2 1.3 1.8.3.6.5 1.3.6 2 .1.7.2 1.4.2 2.2V187.9zm-4.1-4.4c0-.6-.1-1.1-.1-1.5-.1-.4-.1-.8-.3-1.1-.1-.3-.3-.6-.5-.8-.4-.4-.8-.8-1.3-1-.5-.2-1.1-.3-1.8-.3h-3.1v13.6h3.1c.7 0 1.3-.1 1.8-.3.5-.2.9-.5 1.3-1s.6-1.1.7-2c.1-.8.2-2.1.2-3.6v-2zM170.1 196.1l-1.2-3.7h-7.4l-1.3 3.7h-4.3l7.6-20.9h3.2l7.6 20.9h-4.2zm-4.9-14.8l-2.6 7.6h5.2l-2.6-7.6zM182.8 178.8v17.3h-4.1v-17.3h-5.5v-3.6h15v3.6h-5.4zM205.6 192.5c-.5.8-1 1.5-1.7 2.1-.7.6-1.4 1-2.3 1.2-.9.3-1.8.4-2.7.4-1.2 0-2.2-.2-3.1-.6-.9-.4-1.8-1-2.5-1.7-.5-.5-.9-1.1-1.2-1.7-.3-.6-.5-1.2-.6-1.9-.1-.7-.2-1.4-.2-2.2v-2.5-2.5c0-.8.1-1.5.2-2.2.1-.7.3-1.3.6-1.9.3-.6.7-1.2 1.2-1.7.7-.7 1.6-1.3 2.5-1.7.9-.4 2-.6 3.1-.6 1 0 1.9.1 2.7.4.8.3 1.6.7 2.3 1.2.7.6 1.2 1.2 1.7 2.1.5.8.8 1.8 1 2.9h-4.1c-.2-.8-.6-1.5-1.1-2.1-.6-.6-1.3-.9-2.4-.9-.6 0-1.1.1-1.5.3-.4.2-.8.5-1.1.8-.2.2-.4.5-.5.7-.1.3-.3.6-.3 1-.1.4-.1 1-.2 1.6v5c0 .7.1 1.2.2 1.6.1.4.2.8.3 1 .1.3.3.5.5.7.3.3.7.6 1.1.8.5.2 1 .3 1.5.3 1 0 1.8-.3 2.4-.9.5-.6.9-1.3 1.1-2.1h4.1c-.2 1.3-.5 2.3-1 3.1zM226.3 188.1c0 .8-.1 1.5-.2 2.2-.1.7-.3 1.3-.6 1.9-.3.6-.7 1.2-1.2 1.7-.7.7-1.6 1.3-2.5 1.7-.9.4-2 .6-3.2.6-1.2 0-2.3-.2-3.2-.6-.9-.4-1.7-1-2.5-1.7-.5-.5-.9-1.1-1.2-1.7-.3-.6-.5-1.2-.6-1.9-.1-.7-.2-1.4-.2-2.2v-2.5-2.5c0-.8.1-1.5.2-2.2.1-.7.3-1.3.6-1.9.3-.6.7-1.2 1.2-1.7.7-.7 1.6-1.3 2.5-1.7.9-.4 2-.6 3.2-.6 1.2 0 2.2.2 3.2.6.9.4 1.7 1 2.5 1.7.5.5.9 1.1 1.2 1.7.3.6.5 1.2.6 1.9.1.7.2 1.4.2 2.2v5zm-4.1-5c0-.7-.1-1.2-.2-1.6-.1-.4-.2-.8-.3-1-.1-.3-.3-.5-.5-.7-.3-.3-.7-.6-1.1-.8-.4-.2-.9-.3-1.5-.3s-1.1.1-1.5.3c-.5.2-.8.5-1.1.8-.2.2-.4.5-.5.7-.1.3-.2.6-.3 1-.1.4-.1 1-.2 1.6 0 .7-.1 1.5-.1 2.5s0 1.8.1 2.5c0 .7.1 1.2.2 1.6.1.4.2.8.3 1 .1.3.3.5.5.7.3.3.7.6 1.1.8.5.2 1 .3 1.5.3.6 0 1.1-.1 1.5-.3.4-.2.8-.5 1.1-.8.2-.2.4-.5.5-.7.1-.3.2-.6.3-1 .1-.4.1-1 .2-1.6 0-.7.1-1.5.1-2.5-.1-1-.1-1.8-.1-2.5z"/></g></svg>