<svg xmlns="http://www.w3.org/2000/svg" viewBox="0 0 280.22 69.387"><path d="M43.72 34.1c-5.56 0-13.69-4.5-21.62-4.5-7.93 0-12.665 4.5-13.49 5.11-.822.61-1.337 2.96 1.133 2.24 2.467-.71 4.527-.71 8.447-.71 3.91 0 13.28 5.31 22.75 5.31s17.4-7.25 19.15-9.8c1.76-2.55.11-3.37-1.23-2.76-1.34.61-9.99 5.11-15.14 5.11zm30.85-14.29c-5.36 0-13.2-4.15-20.85-4.15-7.64 0-12.2 4.15-13.01 4.72-.79.56-1.29 2.74 1.1 2.08 2.39-.67 4.37-.67 8.14-.67 3.77 0 12.81 4.92 21.94 4.92 9.14 0 16.78-6.71 18.47-9.07 1.68-2.37.1-3.12-1.19-2.55-1.3.57-9.63 4.72-14.6 4.72zM52.4 6.868c-5.1 0-12.56-4.158-19.85-4.158-7.27 0-11.61 4.158-12.37 4.725-.76.567-1.23 2.735 1.04 2.078 2.27-.66 4.15-.66 7.75-.66 3.59 0 12.19 4.907 20.89 4.907 8.68 0 15.97-6.703 17.57-9.066 1.61-2.363.1-3.12-1.13-2.55-1.24.566-9.17 4.724-13.9 4.724zM89.1 31.6c-.94-.88-1.65.3-3.77 1.18-2.13.88-2.83.77-4.96.48-3.48-.78-9.59-.54-11.19.23-10.75 4.31-4.98 12.29-3.23 13.89 0 0-2.62 1.37-3 3.52-.49 2.76.78 4.26.82 4.3-3.51.18-5.76 3.72-5.22 6.6.59 3.12 4.3 5.6 9.61 5.62 11.22.24 11.81-6.94 11.81-6.94 1.54-8.73-5.87-9.14-11.15-8.72-1.91-1.71-.42-3.31-.5-3.31 17.84.43 13.35-11.47 13.35-11.47 3.01-.73 8.9-3.96 7.43-5.38zM65.21 56.62c6.99 1.27 9.81-.34 10.28 3.22.21 3.48-2.74 4.47-6.17 4.68-3.44.22-5.94-1.52-6.07-3.75-.14-2.22 1.81-2 1.96-4.15zm10.8-15.19c-.64 2.85-2.63 4.84-4.43 4.44-1.79-.41-2.72-3.05-2.08-5.91.65-2.86 2.62-4.85 4.42-4.44 1.79.41 2.73 3.06 2.09 5.91zm24.59-.99l2.2-3.71s-1.8-3.81-7.05-3.81c-5.29 0-8.34 3.81-8.34 8.35 0 4.52 10.08 7.93 7.63 12.41-4.07 4.17-8.36-2.63-8.28-3.08-.31.44-2.41 3.34-2.32 3.34.51 1.02 2.36 4.25 8.26 4.32 4.88.1 7.8-3.56 7.9-8.04.1-6-8.61-9.06-8.72-11.8-.1-2.76 5.81-5.91 8.72 2.02zm83.8 16.89c1-.77.3-2.32-.4-2.51-1-1.89 1.9-12.98 1.9-16.02 0-3.03-5.1-9.12-15.6-3.39-1 .65-.7 1.7-.4 2.05.2.36.7.6 1 .36.9-1.07 5.2-2.2 7.2-.1 1.4 1.28 1.3 3.73.4 4.7-1.2.1-12.7-.24-14.1 7.08-2.3 12.99 12.2 6.15 13 5.62.7-.53.6 1.53 1.9 2.41 3.3.28 4.5.32 5.1-.22zm-7.2-5.42c-1.2 3.1-5.6 2.62-5.9.42-.9-7.35 6.7-6.79 6.7-6.79s.3 3.25-.8 6.37zM118.5 25.2l-6.3 2.2-1.4 5.88h-4.1v3.88h3.2s-3.4 12.14-2.7 15.86c.5 4.03 4.5 4.88 6.9 4.77 2.2-.1 2.9-1.8 2.8-2.44-.1-.63-3.3.61-3.6-2.25-.2-1.7 2.7-15.94 2.7-15.94h5v-3.88h-4zm9.4 32.51h-7.7s4.5-16.22 4.9-24.17c0 .1 6.7 0 6.7 0s-.6 1.79-.8 3.36c1.9-2.13 2.6-4.04 7.8-4.04.1 0 0 6.71 0 6.71s-4.9-1.2-6.6.54c-1.8 1.75-3.6 3.15-4.3 17.6zm133.5 0h-7.7s4.5-16.22 4.9-24.17c0 .1 6.7 0 6.7 0s-.6 1.79-.8 3.36c1.9-2.13 2.6-4.04 7.8-4.04.1 0 0 6.71 0 6.71s-4.9-1.2-6.6.54c-1.8 1.75-3.6 3.15-4.3 17.6zM154.1 32.87c-9.7 0-13.9 6.77-13.9 13.69 0 6.91 4.1 11.48 12.4 11.48 3.9 0 6.2-3.62 6.2-3.62s.1-.99-.7-.58c-.7.42-2.7 1.27-5.4 1.27-2.6 0-5.4-2.5-5.4-8.71h15.1c.7-2.51 1.3-13.53-8.3-13.53zm1.4 10.73h-7.4c0-5.06 3.4-8.33 6.2-6.98 2.5 1.16 1.2 6.98 1.2 6.98zm88.7-10.73c-9.7 0-13.9 6.77-13.9 13.69 0 6.91 4 11.48 12.4 11.48 3.9 0 6.2-3.62 6.2-3.62s.1-.99-.7-.58c-.7.42-2.7 1.27-5.4 1.27-2.6 0-5.4-2.5-5.4-8.71h15.1c.7-2.51 1.3-13.53-8.3-13.53zm1.4 10.73h-7.4c0-5.06 4.1-8.88 6.8-7.52 2.6 1.17.6 7.52.6 7.52zm-49.4 13.72c-.3-6.44 2.5-21.45 8.9-20.04 2.7.61 2 4.39 1.1 8.49-1.2 5.52-3.3 11.54-3.3 11.54s7.9.32 7.8 0c.7-9.9 2.8-20.68 8.6-19.88 4.8.67-1.4 19.88-1.4 19.88h7.2c-.3-3.25 1.5-10.84 2.5-16.33.9-5.48-1.2-7.88-5.6-7.92-4.4-.1-8.8 3.81-8.8 3.81.2-3.3-4.1-3.82-4.1-3.82-4.7-.29-9.2 2.84-9.2 2.84l.5-2.43h-7s-.4 3.86-1.8 10.9c-1.4 7.04-3.3 12.95-3.3 12.95z"/></svg>