<svg xmlns="http://www.w3.org/2000/svg" viewBox="0 0 252.536 153.165"><path d="M245.9 76.39c.6-.42 1.2-.76 1.7-1.02.6-.26 1.1-.39 1.5-.39 1 0 1.7.43 2.2 1.29.5.86.7 1.91.7 3.16 0 1.35-.3 2.73-.9 4.13-.5 1.41-1.4 2.58-2.6 3.51-4.7 4.16-8.9 7.96-12.6 11.39-3.7 3.44-7.2 6.34-10.4 8.84-3.3 2.5-6.5 4.4-9.6 5.7-3.1 1.4-6.5 2.1-10 2.1-3.4 0-5.9-.8-7.8-2.2-1.8-1.5-2.7-3.5-2.7-6v-.6c0-.2 0-.4.1-.7.1-1.5.8-3.3 2-5.3 1.2-2.08 2.6-4.18 4.3-6.36 1.7-2.19 3.4-4.4 5.3-6.63 1.9-2.24 3.7-4.36 5.3-6.36 1.6-2 2.9-3.83 3.9-5.5 1.1-1.66 1.6-3.01 1.6-4.05 0-.63-.2-1.12-.6-1.49-.5-.36-1.2-.54-2.2-.54-1.8 0-3.6.45-5.4 1.36-1.9.91-3.7 2.13-5.6 3.67-1.8 1.53-3.6 3.29-5.3 5.26-1.7 1.98-3.4 4.03-4.9 6.16-1.5 2.14-2.9 4.28-4.1 6.44-1.3 2.16-2.3 4.15-3.2 5.97-.3.57-.7 1.37-1.1 2.37-.5 1.1-1 2.3-1.6 3.6-.6 1.3-1.2 2.6-1.8 4-.7 1.3-1.2 2.6-1.8 3.9-.5 1.2-1 2.3-1.4 3.2-.4 1-.7 1.7-.9 2-.2.5-.6 1.4-1.1 2.7-.5 1.3-1 2.8-1.7 4.5-.7 1.8-1.4 3.6-2.1 5.5-.7 2-1.4 3.8-2 5.5-.7 1.7-1.2 3.2-1.7 4.5-.5 1.3-.8 2.2-.9 2.7-.5 1.3-1 2.6-1.6 3.8-.6 1.2-1.2 2.2-2 3.2-.8.9-1.7 1.6-2.6 2.1-1 .6-2.1.9-3.4.9-1.6 0-2.9-.4-3.9-1.2-1-.7-1.5-2.2-1.5-4.3 0-1 .1-2.1.4-3.2.2-1.1.6-2.2.9-3.2.4-1.1.8-2.1 1.3-3.1.4-1.1.8-2 1.1-3 2.4-5.2 4.8-10.4 7.3-15.6 2.4-5.2 4.8-10.4 7-15.5 2.3-5.16 4.4-10.19 6.3-15.13 2-4.94 3.6-9.67 4.8-14.19.4-.94.9-2.26 1.5-3.98.6-1.71 1.3-3.4 2.1-5.07.8-1.66 1.7-3.1 2.7-4.33.9-1.22 2-1.83 3.1-1.83 1.8 0 3.1.4 3.9 1.21.8.81 1.2 1.99 1.2 3.55 0 .31-.1.81-.2 1.48-.1.68-.2 1.39-.3 2.15-.1.75-.3 1.46-.4 2.14-.2.68-.3 1.17-.5 1.48 1.7-1.77 3.4-3.52 5.3-5.26 1.9-1.74 3.8-3.32 5.9-4.72 2-1.4 4-2.55 6.2-3.43 2.1-.89 4.2-1.33 6.3-1.33 1.4 0 2.9.21 4.3.62 1.4.42 2.7 1.03 3.8 1.84 1.1.8 2 1.82 2.7 3.04.7 1.22 1.1 2.64 1.1 4.25 0 2.13-.5 4.41-1.6 6.82-1.1 2.42-2.4 4.85-4.1 7.3-1.6 2.44-3.4 4.82-5.2 7.13-1.9 2.32-3.7 4.42-5.3 6.32-1.7 1.9-3.1 3.51-4.2 4.83-1.1 1.33-1.7 2.21-1.7 2.71 0 .6.2 1.1.6 1.5.4.4 1 .6 1.9.6.8 0 1.9-.4 3.3-1.3 1.5-.8 3.5-2.23 6.1-4.28 2.6-2.06 5.9-4.81 10-8.27 4-3.45 8.9-7.81 14.8-13.06zM152.6 90.5c-.5 1.2-.9 2.59-1.4 4.18-.5 1.58-.7 3-.7 4.25 0 .78.1 1.37.4 1.87.3.5.8.7 1.5.7.9 0 2.1-.3 3.5-1 1.3-.62 2.8-1.48 4.4-2.55 1.6-1.06 3.3-2.28 5-3.66 1.8-1.38 3.5-2.81 5.2-4.29 1.7-1.49 3.4-2.97 4.9-4.45 1.6-1.48 3-2.85 4.2-4.09.4-.37.8-.63 1.3-.78.4-.16.9-.24 1.2-.24.9 0 1.6.37 2.2 1.1.6.72.8 1.68.8 2.88 0 1.09-.3 2.32-.9 3.67-.6 1.35-1.7 2.68-3.2 3.97-2.8 3.07-5.7 5.98-8.5 8.74-2.9 2.8-5.7 5.2-8.5 7.3-2.9 2.1-5.7 3.8-8.5 5-2.8 1.3-5.5 1.9-8.1 1.9-1.8 0-3.3-.3-4.5-.9-1.2-.5-2.2-1.3-2.9-2.3-.7-1-1.2-2.2-1.5-3.5-.4-1.4-.5-2.8-.5-4.3 0-2.5.3-5.16.9-7.84.7-2.68 1.4-5.14 2.3-7.37 1.6-4.06 3.1-8.08 4.7-12.09 1.6-4 3-7.67 4.3-11l20-50.3c.8-2.03 1.8-3.46 3.2-4.29 1.3-.83 2.7-1.25 4-1.25 1.4 0 2.6.44 3.8 1.33 1.1.88 1.6 2.31 1.6 4.29 0 .93-.2 1.92-.5 2.96-.4 1.04-.9 2.16-1.4 3.35-1.1 2.45-2.4 5.44-4 8.97-1.5 3.54-3.1 7.38-4.8 11.54-1.8 4.16-3.5 8.49-5.4 12.99-1.8 4.5-3.6 8.88-5.3 13.14-1.7 4.27-3.4 8.31-4.9 12.13-1.5 3.82-2.8 7.14-3.9 9.94zm-2 3.9c-2 2.6-4.2 5.14-6.8 7.6-2.6 2.5-5.2 4.7-7.9 6.6-2.7 1.9-5.4 3.5-8.1 4.6-2.6 1.2-5 1.8-7.1 1.8-2.1 0-3.8-.7-5.1-2.1-1.3-1.4-2-3.8-2-7.2 0-2.4.4-5.2 1.1-8.33-1.2 2.03-2.6 4.13-4.3 6.13-1.7 2.1-3.7 4-5.9 5.7-2.2 1.7-4.62 3.1-7.34 4.2-2.72 1.1-5.68 1.6-8.89 1.6-1.44 0-2.84-.2-4.18-.6a7.74 7.74 0 0 1-3.52-1.8c-1.01-.9-1.82-2.1-2.44-3.6-.61-1.5-.92-3.3-.92-5.5 0-.1.1-.9.26-2.4.18-1.56.74-3.98 1.68-7.28.95-3.3 2.41-7.58 4.38-12.83 1.98-5.25 4.77-11.62 8.36-19.11.93-1.97 1.99-3.39 3.2-4.25 1.21-.86 2.51-1.29 3.92-1.29.61 0 1.29.1 1.89.28.7.18 1.3.46 1.9.85.5.39 1 .89 1.3 1.49.4.59.6 1.28.6 2.06 0 .52-.1 1.02-.2 1.48-.2.89-.7 2.04-1.4 3.47-.8 1.43-1.6 3.07-2.6 4.92-.95 1.84-1.97 3.83-3.04 5.97a88.72 88.72 0 0 0-3 6.62c-.92 2.29-1.71 4.62-2.37 6.98-.66 2.37-1.03 4.67-1.12 6.91 0 .93.22 1.79.66 2.57.44.76 1.16 1.16 2.18 1.16 2.85 0 5.57-.9 8.19-2.8 2.6-1.87 5-4.2 7.1-6.98 2.2-2.78 4.2-5.77 6-8.97 1.8-3.2 3.3-6.12 4.5-8.77.8-1.77 1.5-3.67 2.2-5.7.6-2.02 1.3-3.89 2-5.61.8-1.72 1.6-3.15 2.6-4.29 1-1.14 2.2-1.72 3.6-1.72 1.6 0 2.9.6 3.8 1.8.9 1.19 1.4 2.62 1.4 4.29 0 .93-.3 2.22-.9 3.86-.6 1.64-1.4 3.51-2.3 5.61-.9 2.11-1.8 4.36-2.9 6.75-1.1 2.39-2 4.82-2.9 7.29-.9 2.47-1.7 4.89-2.3 7.26-.6 2.36-.9 4.56-.9 6.59 0 1.89 1 2.79 2.9 2.79 1.4 0 3.1-.5 5.1-1.4 2-.9 4.1-2.24 6.4-3.93 2.2-1.69 4.4-3.68 6.6-5.96 2.2-2.29 4.2-4.76 5.9-7.41l.7 10.6zM67.53 79.12c-.17.26-.49 1.08-.95 2.45a388.2 388.2 0 0 0-1.68 5.19c-.66 2.08-1.37 4.41-2.14 6.98-.77 2.57-1.56 5.2-2.37 7.86-.82 2.7-1.59 5.3-2.34 7.9-.75 2.6-1.42 4.9-2.01 7-.59 2.1-1.08 3.8-1.48 5.2-.4 1.4-.64 2.2-.72 2.5-.22.8-.58 1.8-1.06 2.8-.48 1-1.05 1.9-1.71 2.9-.66.9-1.38 1.6-2.17 2.2-.79.6-1.61.9-2.44.9-1.4 0-2.42-.5-3.06-1.4-.64-.9-.96-2.6-.96-5.1v-1.1c0-.4 0-.8.1-1.2 0-.8.37-2.4.99-4.7.61-2.3 1.35-4.9 2.21-7.7.85-2.9 1.77-5.9 2.76-9 .99-3.1 1.88-5.87 2.67-8.32-2.33 2.6-4.85 5.19-7.57 7.72-2.73 2.6-5.51 4.9-8.37 7-2.85 2-5.73 3.7-8.62 5-2.9 1.3-5.69 2-8.37 2-3.07 0-5.71-.7-7.93-2.1-2.248-1.3-4.08-3.1-5.53-5.3-1.448-2.2-2.524-4.6-3.226-7.4A32.998 32.998 0 0 1 .5 93.16v-1.02c0-.31.02-.62.066-.93.263-5 .976-10.12 2.14-15.37a125.227 125.227 0 0 1 4.577-15.68 142.412 142.412 0 0 1 6.557-15.24c2.47-4.97 5.17-9.66 8.09-14.08s6.03-8.49 9.32-12.21c3.29-3.71 6.67-6.91 10.14-9.59 3.47-2.678 6.97-4.77 10.5-6.28C55.43 1.255 58.93.5 62.4.5c3.99 0 7.85 1.092 11.58 3.275 3.73 2.184 7.22 5.72 10.47 10.605.75 1.09 1.22 2.2 1.42 3.32.2 1.11.3 2.17.3 3.15 0 2.34-.56 4.19-1.68 5.54-1.12 1.36-2.45 2.03-3.99 2.03-1.4 0-2.71-.74-3.91-2.22-1.21-1.48-2.56-3.6-4.05-6.36-1.41-2.49-2.96-4.3-4.65-5.42-1.69-1.12-3.52-1.67-5.5-1.67-3.07 0-6.35 1.27-9.84 3.82s-6.95 5.91-10.37 10.1c-3.43 4.18-6.71 8.97-9.85 14.35C29.2 46.4 26.42 51.91 24 57.55c-2.41 5.65-4.33 11.21-5.76 16.69-1.42 5.49-2.14 10.41-2.14 14.78 0 1.46.1 2.95.3 4.49.2 1.53.57 2.92 1.12 4.17.55 1.25 1.29 2.27 2.24 3.12.94.8 2.14 1.2 3.59 1.2 1.62 0 3.47-.6 5.53-1.7 2.06-1.06 4.2-2.49 6.42-4.26a81.72 81.72 0 0 0 6.68-6.01c2.24-2.23 4.33-4.49 6.26-6.78 1.93-2.29 3.64-4.49 5.13-6.59 1.5-2.11 2.61-3.94 3.36-5.5l6.13-18.33c.74-1.97 1.72-3.38 2.93-4.21 1.2-.83 2.44-1.25 3.72-1.25.61 0 1.22.11 1.84.32.61.2 1.16.53 1.65.97.48.44.86 1.01 1.15 1.72.28.7.43 1.52.43 2.45 0 2.5-.22 4.84-.66 7.02-.44 2.19-1 4.32-1.68 6.4-.68 2.08-1.44 4.17-2.27 6.28-.84 2.1-1.65 4.3-2.44 6.59z"/></svg>