<svg viewBox="0 0 664 173" xmlns="http://www.w3.org/2000/svg"><path class="only-light-background" d="M286.8 110.7h32.3l-2.1 9.5h-32.4c-2.5-.1-4.1-2.2-3.6-4.7.6-2.7 3.2-4.8 5.8-4.8zm308.7-24.37h26.6c3.9 0 6.4 3.21 5.5 7.13l-4.4 20.14c-.9 3.9-4.8 7.1-8.7 7.1h-26.7l7.7-34.37zm-71 0h23.4c3.9 0 6.4 3.2 5.6 7.11L549 113.6c-.9 3.9-4.8 7.1-8.7 7.1h-23.4c-3.9 0-6.4-3.2-5.6-7.1l4.5-20.16c.9-3.91 4.8-7.11 8.7-7.11zm-78.1 0h23.4c3.9 0 6.4 3.2 5.5 7.11l-4.4 20.16c-.9 3.9-4.8 7.1-8.7 7.1h-23.4c-4 0-6.4-3.2-5.6-7.1l4.5-20.16c.9-3.91 4.8-7.11 8.7-7.11zm-74.2-.5h26.6l-7.6 34.37h-26.7c-3.9 0-6.3-3.2-5.5-7.1l4.5-20.18c.9-3.91 4.8-7.09 8.7-7.09zm143.7-14.81c-7.4 0-14.8 6.05-16.4 13.44L491 122.6c-1.6 7.4 3.1 13.4 10.5 13.4h47.4c7.4 0 14.8-6 16.4-13.4l8.4-38.13c1.7-7.39-3-13.44-10.4-13.44h-47.4zm-78.1 0c-7.4 0-14.8 6.05-16.4 13.44l-8.5 38.14c-1.6 7.4 3.1 13.4 10.5 13.4h47.4c7.4 0 14.8-6 16.4-13.4l8.4-38.14c1.7-7.39-3-13.44-10.4-13.44h-47.4zm142.8 0l-11.9 53.48-2.5 11.5-4.8 21.8h18.2l4.9-21.8h38.6c7.4 0 14.7-6 16.4-13.4l8.4-38.11c1.7-7.4-3.1-13.47-10.4-13.47h-56.9zM272 70.53l-3.4 15.29h49.2c3.7.15 6 3.13 5.3 6.82l-.6 2.82H280c-7.4 0-14.8 6.04-16.5 13.44l-.4 2.1-2.5 11.1c-1.6 7.4 3.1 13.4 10.5 13.4h60.8l1.7-7.7 7.2-32.31h-.1l1.4-6.3 1.2-5.19c1.6-7.3-3-13.29-10.2-13.44H272zm-69.2-21.76l-7.4 33.25h.1l-.3 1.31c-.1.38-.2.77-.3 1.16l-6.1 27.61-5.2 23.4h18.2l5.2-23.4h.1l4.1-18.64v-.1l1.6-7.03h26.6c3.9 0 6.4 3.21 5.6 7.13l-4.2 18.84-5.2 23.2h18.3l5.1-23.2h.1l6.1-27.81c1.7-7.4-3-13.47-10.4-13.47h-38.7l4.9-22.25h-18.2zm204.2 0l-4.8 21.78h-38.6c-7.4 0-14.8 6.04-16.4 13.44l-8.5 38.11c-1.6 7.4 3.1 13.4 10.5 13.4H406l14.5-64.92 4.8-21.78H407zM126.7 8.066a6.06 6.06 0 0 0-1.3.09c-7-.03-13.8 2.084-21.4 5.384-7.2 3.11-10.85 7.27-14.71 12.19a6.06 6.06 0 0 0-.1.1c-.8.16-1.6.31-2.52.64-2.29.8-4.41 2.33-6.42 4.29-1.99 1.93-3.68 3.92-5.47 5.9a6.06 6.06 0 0 0-2.53-.16c-12.33 1.87-21.56 5.35-30.4 13.11-2.63 2.3-4.78 4.88-6.71 7.58-.1-.4 0-.66-.24-1.11-.32-.82-.93-1.7-1.66-2.51a6.06 6.06 0 0 0-8.99-3.67c-2.56 1.54-5.58 3.86-7.95 7.47-1.19 1.8-2.26 4.02-2.38 6.81-.1 2.05.72 4.2 1.9 6.12.44 1.61.87 3.22 1.72 5.01 1.6 3.34 5.49 5.19 8.33 5.39-.24 3.15-.18 6.59.23 10.57.17 1.6.6 3.19.92 4.78a6.06 6.06 0 0 0-1.33 2.05c-.25.64-.48 1.24-.72 1.86-1.43 1.44-2.87 2.94-4.32 4.44-.52.5-1.4.9-2.42 3-1.03 2.1-.78 4.1-.61 5.3.6 4.3 2.83 8 5.8 11 1.63 1.7 4.05 3.7 7.38 5.4 1.33.6 2.89 1.1 4.69 1.4-.92 2.4-.73 5.7.57 7.9 1.3 2.2 3.02 3.3 4.48 4.1 2.92 1.5 5.68 2 6.86 2.3a6.06 6.06 0 0 0 .1 0c1.31.4 4.56 1.3 8.08 1.7 1.76.2 3.57.3 5.75-.1 2.18-.5 5.68-2.3 6.68-5.9.57-2 .67-3.8.66-5.6.91-1.7 1.46-2.5 2.54-4.3 1.18-1.9 1.72-4.1 2.02-6.3.85.1 1.71.1 2.56.2-.28.7-.69 1.4-.75 2-.23 2.3.25 3.9.75 5.4 1 2.9 2.46 5.1 3.13 6.2 1.42 2.3 3.08 5.2 6.1 7.7 3.01 2.6 8.85 4 13.4 1.6 4.08-2.1 5.08-4.8 5.68-5.8.4-.3.9-.6 1.4-1 1.1-.9 2.3-1.9 3.5-2.8.6-.5 1-.9 1.6-1.3 1.8.8 3.3 1 5.1 1.1a6.06 6.06 0 0 0 .2 0c2.2.2 7.3.3 9.1.3 1.8 0 4.1.4 7-1.6 2.9-2 3.6-5.3 3.8-7.7.2-1.6-.2-3.5-.8-5.2l-.2-7.7c-.1-2.8-.8-5.1-1.6-7.3 2.2 1.5 4.9 2.9 8.4 3 7.3.1 13.5-4 15.7-11.1.2-.75.4-1.3.6-1.96 6.7.91 13.9.56 20.7-3.26a6.06 6.06 0 0 0 .1 0c10.2-5.75 15-17.2 16-27.54 1.1-9.35-.4-21.72-4.2-30.98a6.06 6.06 0 0 0-.1-.17c-1-2.44-2.4-3.96-4.7-5.39-1.2-.72-2.7-1.4-4.7-1.49-2-.1-4.4.78-6 2.32-2.9 2.82-4.3 5.17-4.9 5.68a6.06 6.06 0 0 0-.1 0c.1 0-.6.26-.7.27-1-2.01-2.1-4-3.5-5.91-2-2.91-4.6-4.55-6.8-5.84a6.06 6.06 0 0 0-.1 0c-.4-.24-.9-.53-1.4-.83a6.06 6.06 0 0 0-.5-.26 6.06 6.06 0 0 0-.7-.6c-2.7-1.94-5.3-4.38-8.7-7.14-6.7-5.67-13.7-8.808-20.9-9.134zm-.3 6.054c5.8.26 11.3 2.62 17.3 7.7 3.2 2.63 5.9 5.19 9.1 7.46-1.2.1-2.2.3-3.5.82 1.6-.31 3.5 0 5.1.3.5.3 1 .6 1.5.89 2.2 1.32 3.5 2.05 5 4.16 1.6 2.23 2.9 4.46 4.1 6.92-.8-.27-1.4-.51-2-.68-.4-.19-.9-.37-1.4-.37-.9-.1-1.9.15-2.6.62l-.1.1c-1.3.6-3.2 1.29-4.5 1.5.7.18 2.1.27 2.8 0 .1 0 .2-.1.3-.1-.3.53-.5 1.12-.6 1.77-.1.85.1 1.67.5 2.38 0 .1.1.1.1.19-.2-.36-.3-.78-.3-1.15.1-.97.9-1.69 1.9-1.59 1 .1 1.7.96 1.6 1.93 0 .21-.1.4-.2.58-.9.15-1.7.41-2.7.75-.5.21-1.1.46-1.8.73 2.9-.44 5.5-.51 8.3-.14.2.88.4 1.81.5 2.77-.3 0-.7.1-1 .1h-.1c-1.3-1.06-2.8-.88-4.8-.42-6.1 1.4-4.7 4.84-7.5 10.02 2.9-3.58 2.7-7.32 7.5-8.45 1.1-.26 1.8-.59 2.6-.48-1.4.68-2.5 1.81-3 3.12-1.3 3.7-.5 6.82-1.9 10.27 1.7-3.09 1.9-6.1 3.4-9.35.6-1.17 2.7-3.06 4-3.06h1.1c.3 2.06.5 4.1.4 5.79-.2 3.09-1 7.68-1.5 9.43 1.6-2.07 2.3-6.47 3.1-9.56.7-3.23.5-7.09-.1-10.55-.9-4.75 4-3.98 6.8-6.22 2.1-1.64 3.5-4.27 5.4-6.13 1.9-1.84 4.9.87 5.7 2.67 3.2 7.83 4.7 20.15 3.8 28.05-.9 8.86-5.2 18.53-13 22.89-10 5.56-21.7 2.16-31.6-1.17-2.1-.71-3.6-1.75-5.5-2.92.6 2.28.8 4.69.1 6.96-1.1 3.61-2.8 9.55 2.1 10.55 1.9.5 2.7.4 5.4-1-2.2.5-3.3.4-4.7.1-1.3-.2-2-1.1-2.4-2 .4.3 1.2.5 2.5.8 3.6.9 7.1-.9 7.8-3.41.4-1.47.3-2.24 1.1-4.24.8.23 1.6.44 2.4.63-.5 1.47-.9 2.93-1.4 4.4-1.2 3.82-5.7 6.92-9.7 6.82-3.7-.1-6.1-2.4-8.6-4.7-1.8-1.56-3.5-3.06-5.2-4.55-4.6-1.45-8.3-3.15-12.6-6.33 3 3.59 5.1 5.57 9.4 7.35-.6 6.33-2.8 10.93-4.7 16.93-.9 2.8-7.5 13.7-9.4 14.8-1.3.7-9.6 7.7-11.15 8.6-1.16 1.5-2.18 3.7-3.92 4.6-5.31 2.8-8.72-2.6-11.57-7.1-1.3-2.1-4.91-8-1.77-9.7 2.98-1.6 4.65-2.7 7.68-4.7.45.8 1.21 1.6 1.71 2.4l-.33-2.7c-.24-1.6-.23-2.9-.1-4.5.12-1.6.24-3.1.37-4.7-.46 1.6-1.37 3.2-1.83 4.8-.18.6-.32 1.1-.42 1.6-6.81 1.4-13.58 1.5-20.39.3-.44-2.5-.97-5.2-1.41-7.1-.2 2.2-.1 8-.1 11.3 0 2.5-.12 3.4-1.42 5.5-1.22 2-1.74 2.5-3.45 5.9.14 2.1.14 3.6-.43 5.6-.95 3.4-10.53.8-13.06.1-3.11-.9-9.54-2.1-7.93-6.3 1.43-3.6 2.33-7.5 3.03-12.6-5.71-8.2-11.01-19.5-12.03-29.45-.79-7.75-.31-12.52 1.36-17.25 2.66-7.51 6.37-14.01 12.34-19.24 8.04-7.06 15.55-9.89 27.32-11.68-2.83 3.17-5.63 6.52-8.68 10.11-3.09 3.64-4.93 7.31-6.89 11.29-2.71 5.49-2.65 7.58.94 12.41 3.1 4.15 4.77 6.02 6.12 10.09-1.11 2.3-1.52 4.25-1.9 7.39 3.8 4.14 6.61 7.03 10.29 7.83 3.61.9 6.63.7 9.86-.9 7.17-3.7 13.81-8.44 21.86-8.63 3.8-9.21 3.4-16.9 1.6-25.8-1.2-6.08-1.7-11.84-2.1-18.04-1.5 6.38-1.8 12-.7 18.36 1.4 7.67 2.4 16.13-1.3 22.87-7.35.56-13.62 5.01-20.21 8.43-2.65 1.37-5.42 1.5-8.35.7-2.72-.75-4.56-2.55-7.5-5.94 0-3.39.73-4.96 2.29-8.04 2.5-4.94 5.27-9.54 8.31-14.4-3.72 4.49-7.24 8.24-10.17 12.75-1.12-3.19-2.72-4.81-5.37-8.4-2.59-3.5-2.86-5.04-.92-9.09 1.94-4.08 3.59-7.66 6.91-11.24 5.72-6.17 10.96-13.05 17.22-19.14 3.39-3.3 4.77-3.19 9.28-3.87 4.07-.62 8.01-1.4 12.21-2.36-4 .37-7.91.51-11.82.61h-.12c3.85-4.91 6.04-7.65 12.34-10.37 7.7-3.34 14-5.19 19.9-4.94h.1zm3 21.25c-8.4 2.09-10 5.61-8.9 11.01.9-4.06 2.6-7.98 8.9-11.01zm-24.8.46c-3.4.38-6.79.73-10.18 1.05-2.85.27-3.31.23-5.33 2.22-3.07 3.04-6.05 13.45-7 17.61 1.5-3.46 5.26-13.14 8.14-15.6.79-.68 1.35-1.1 1.95-1.4-2.07 3.46-1.92 4.32-1.19 8.95.61-4.71 2.24-6.53 4.91-10.04 2.93-.74 5.7-1.62 8.7-2.79zm77.7.39c-1.9 3.93-4.9 7.22-9 9.23-2.2 1.08-3.6.71-6 .48 2.5.74 4 1.6 6.5.74 4.9-1.77 7.3-5.76 8.5-10.45zM165 42.53c.2.36.3.73.5 1.1-.1.1-.3.2-.4.31-.2-.52-.5-.99-.9-1.38h.8zm-24.8 3.08c-2.7 1.26-5.9.95-8.3 2.53-2 1.4-4.9 5.81-7 7.68 1.6-.59 3-1.61 4.4-2.68 0 .8.1 1.61.5 2.37.4.78.9 1.43 1.6 1.94-.2-.18-.4-.39-.5-.63-.6-1.17-.1-2.58 1.1-3.13 1.2-.56 2.6-.1 3.2 1.11 0 .11.1.22.1.34-1.1.83-2.2 1.8-3 2.94-.8.99-1.4 2.11-1.8 3.34 3.9-4.73 9.7-8.3 15.2-9.83-1.5 0-3.3.26-5.2.87 0-.62-.2-1.23-.5-1.81-.7-1.38-1.8-2.38-3.1-2.87 1.2-.65 2.4-1.33 3.3-2.17zM27.42 55.08c-.53 1.14-.91 2.01-1.17 2.9-1.11 3.86.51 7.31-3 10.11 1.65 3.32 1.58 4.65 5.41 3.11 1.48-.59 2.7-1.42 3.78-2.41-.52 1.35-1 2.73-1.45 4.16-.1.23-.12.47-.22.71-2.74 1.16-6.34 1.9-7.72-.98-.67-1.4-1.05-2.77-1.54-4.54-4.51-4.67 2.24-10.85 5.91-13.06zm.94 2.09c.93.54 1.18 1.53 1.28 2.86-.56-.56-1-.95-1.72-.85.1-.47.14-.93.25-1.36.1-.22.1-.44.19-.65zM141.4 82.01c-1 .17-2.8.53-3.8.7-2.6.45-2.9 1.08-3.3 3.68-.2 1.23-.5 2.75-.7 3.98.5-1.39 1.2-3 1.8-4.32.6-1.4 1-1.53 2.3-2.27 1-.52 2.7-1.24 3.7-1.77zM31.39 100.3c2.08 7.1 5.61 14.2 9.54 20.1v.2c-.25 1-.54 2-1.13 2.8-2.8 3.7-9.94-1.8-12-3.9-2.26-2.3-3.77-5-4.13-7.6-.26-1.9 0-1.9 1.3-3.2 1.75-1.8 3.51-3.6 5.26-5.4.39-1 .77-2 1.16-3zm94.31 4.7c.4 1.4.8 2.7 1.4 4.2 1 2.5 1.5 4 1.6 6.7l.3 8.4c.8 1.5 1 1.9.8 3.7-.3 3.6-1.5 3.9-4.7 3.8-1.5 0-7.3-.1-8.8-.2-2-.2-3.2-.4-3.9-.8 3.3-2.4 8.9-12.3 10-15.8 1.1-3.6 2.4-6.7 3.3-10zm14.5 3.2H140.5h-.3z"/></svg>