<svg xmlns="http://www.w3.org/2000/svg" version="1" viewBox="0 0 800 81.152"><path d="M736.5 29.7c2.2.116 4.92.3 8.47.28 3.19 0 6.4-.17 9.24-.28l.29 1.906-3.01.45c-1.89.143-2.13.838-1.75 2.497 1.77 8.455 5.15 21.777 8.08 35.03 2.68-9.12 7.56-30.32 9.84-39.604 1.3.144 2.18.144 3.54-.04 1.54 6.94 7.51 29.36 10.21 40.183 4.21-15.43 7.35-29.687 8.16-35.208.26-1.844.14-2.607-1.82-2.86l-3.75-.452.43-1.907c2.23 0 5.12.28 8.24.28 3.19 0 5.42-.28 7.15-.28l.18 1.76c-4.78.55-5.4 1.223-7.06 6.15-2.97 9.078-8.1 27.856-11.76 42.948-1.13.02-1.62.134-2.04.16-.45.1-.79.14-1.71.28-2.18-9.227-6.25-23.948-10.23-38.476-4.43 17.21-7.62 28.24-9.87 38.475-.73-.135-1.48-.176-2.17-.28-.62-.05-1.14-.07-1.54-.144-3.65-16.523-9.13-37.85-11.56-45.388-.92-2.866-1.67-3.298-5.74-3.58l.18-1.906m-1.35 42.806l-.86-.283c-1.78 3.15-4.52 5.37-8.82 5.37-3.57 0-6.61-1.62-8.54-5.263-1.74-3.157-3.46-9.614-2.98-19.185 2.89 0 6.15-.02 8.46-.06 4.74 0 10.07-.47 12.61-1.178 1.15-.334 1.53-2.755 1.53-4.71.11-6.154-1.85-18.62-13.14-18.62-12.79 0-17.4 15.667-17.4 28.158 0 6.277 1.25 12.813 3.34 16.59 2.67 4.864 7.03 7.674 13.45 7.674 5.8 0 9.61-2.737 11.81-5.495l.54-2.995M722.81 30.68c6.69 0 6.64 10.593 6.64 14.9 0 3.242-.66 4.45-2.1 4.688-1.62.33-4.32.605-7.21.605h-5.98c.11-7.61 2.53-20.193 8.53-20.193h.12zm-24.49-1.977c-.1 2.14-.45 8.404-.45 17.728v13.333c0 8.645.27 12.618.4 15.21.11 2.382.95 2.67 5.03 2.915l-.27 1.96c-2.27 0-5.24-.253-9.4-.253-4.03 0-6.68.254-8.73.254l.1-1.962c4.66-.135 5.4-.906 5.53-3.007.12-2.172.41-6.85.41-15.864V46.674c0-6.36-.21-11.3-.27-13.127 0-1.708-.89-1.993-5.93-1.724v-1.98c1.78-.192 4.54-.144 7.19-.457a180.9 180.9 0 0 1 6.41-.683m-4.43-22.307c2.84 0 4.17 1.806 4.17 4.885 0 2.75-2.08 4.495-4.66 4.495-2.24 0-4.02-1.793-4.02-4.548 0-2.67 1.75-4.83 4.4-4.83h.11zM647.1 29.71c2.15.152 5.31.273 8.1.258 2.8 0 6.78-.164 8.87-.26l.31 1.967-2.54.285c-1.9.233-2.24.753-1.75 2.73 2.79 12.584 6.84 27.463 8.52 34.96 2.88-10.597 6.09-22.73 8.57-35.04.28-1.633.1-2.236-1.29-2.31l-3.51-.625.18-1.966c2.34 0 4.82.258 7.15.258 2.79 0 5.14-.26 6.94-.26l-.18 1.967c-4 .613-4.67 1.022-6.26 5.664-2.12 6.532-5.2 17.205-8.48 29.19-1.62 5.965-2.83 11.145-3.55 14.007-.59.02-1.32.06-2.02.18-.61.115-1.27.14-1.73.26-2.92-12.284-8.94-35.647-11.54-44.274-1.39-4.333-1.92-4.763-5.64-5.027l-.15-1.967m-.47 42.795l-.86-.283c-1.78 3.15-4.51 5.37-8.82 5.37-3.57 0-6.61-1.62-8.54-5.262-1.74-3.157-3.46-9.614-2.98-19.185 2.88 0 6.15-.02 8.46-.06 4.74 0 10.08-.47 12.61-1.178 1.14-.334 1.53-2.755 1.53-4.71.12-6.154-1.85-18.62-13.15-18.62-12.78 0-17.39 15.667-17.39 28.158 0 6.277 1.25 12.813 3.35 16.59C623.5 78.19 627.86 81 634.27 81c5.81 0 9.62-2.738 11.81-5.496l.55-2.996M634.29 30.68c6.69 0 6.64 10.593 6.64 14.9 0 3.242-.66 4.45-2.1 4.688-1.62.33-4.32.605-7.21.605h-5.97c.1-7.61 2.52-20.193 8.52-20.193h.12zm-58.02 19.763c0 16.345-.18 21.51-.46 24.21-.3 2.37-1.03 3.063-5.93 3.234v1.96c4.01 0 7.29-.253 10.79-.253 3.58 0 7.44.254 10.06.254l.24-1.96c-6.27-.51-6.69-.875-6.88-3.93-.27-4.683-.34-9.205-.34-20.485V41.197h1.39c10.87 0 16.2 4.238 16.37 14.708 0 4.378.12 11 .13 14.536 0 7.954 3.29 10.117 8.55 10.117 2.24 0 4.53-.44 5.88-1.18l.42-2.143c-1.17.527-2.56.652-3.8.652-1.61 0-2.51-1.056-2.51-3.167 0-5.802-.11-16.552-1.53-21.734-1.43-6.248-6.45-10.592-15.66-13.094v-.318c8.83-2.7 15.06-7.667 15.06-18.725 0-4.585-.93-9.035-3.78-12.215-2.67-3.01-6.85-4.802-14.96-4.802-4.24 0-8.11.223-11.66.323-3.43.106-5.57.24-7.46.26l-.38 1.887 4.28.153c1.52.015 1.87.455 1.98 1.98.1 3.08.2 9.238.2 21.584v20.423m7.48-24.863c.16-11.893.25-15.75.45-17.156.1-1.304.45-1.754 1.2-1.966.66-.158 1.99-.35 3.66-.35 5.14 0 7.81 2.18 9.17 5.462 1.07 2.5 1.58 6.03 1.58 9.943 0 10.64-3.28 17.575-14.69 17.575h-1.38V25.58zm-39.41 18.334c-.56-7.045-3.33-13.082-8.4-13.082-4.19 0-6.52 3.275-6.52 8.727 0 2.462.59 4.57 2.36 6.33 2.27 2.12 8.99 6.656 12.14 9.19 3.74 3.14 5.39 6.876 5.39 11.07 0 9.05-6.42 14.846-15.32 14.846-4.3 0-8.74-1.087-10.74-2.267 0-1.998.11-10.914-.1-14.55l1.69-.444c.17 2.32.78 5.11 1.74 7.847 1.74 4.854 4.9 7.142 8.7 7.142 4.88 0 8.12-3.115 8.05-9 0-2-.62-4.542-2.52-6.358-2.51-2.405-8.67-6.87-11.38-9.114-3.49-2.822-5.29-6.3-5.29-11.656 0-7.563 4.68-14.038 12.62-14.038 3.07 0 5.43 1.17 6.64 2.273l.89-3.042 1.69.653c-.39 5.242-.35 10.42 0 14.916l-1.69.554m-30.36 0c-.57-7.045-3.34-13.082-8.4-13.082-4.19 0-6.52 3.275-6.52 8.727 0 2.462.58 4.57 2.36 6.33 2.26 2.12 8.99 6.656 12.13 9.19 3.75 3.14 5.39 6.876 5.39 11.07 0 9.05-6.42 14.846-15.31 14.846-4.31 0-8.75-1.087-10.75-2.267 0-1.998.12-10.914-.1-14.55l1.68-.444c.17 2.32.78 5.11 1.74 7.847 1.75 4.854 4.9 7.142 8.71 7.142 4.87 0 8.12-3.115 8.04-9 0-2-.62-4.542-2.51-6.358-2.51-2.405-8.68-6.87-11.4-9.114-3.47-2.822-5.28-6.3-5.28-11.656 0-7.563 4.69-14.038 12.63-14.038 3.06 0 5.41 1.17 6.64 2.273l.89-3.042 1.68.653c-.38 5.242-.35 10.42 0 14.916l-1.68.554m-26.92 28.59l-.85-.282c-1.78 3.15-4.51 5.37-8.82 5.37-3.57 0-6.62-1.62-8.54-5.262-1.74-3.157-3.46-9.614-2.98-19.185 2.89 0 6.16-.02 8.46-.06 4.74 0 10.08-.47 12.6-1.178 1.16-.334 1.54-2.755 1.54-4.71.12-6.154-1.85-18.62-13.14-18.62-12.79 0-17.39 15.667-17.39 28.158 0 6.277 1.24 12.813 3.33 16.59C463.83 78.19 468.19 81 474.61 81c5.79 0 9.61-2.738 11.81-5.496l.53-2.996M474.73 30.68c6.69 0 6.64 10.593 6.64 14.9 0 3.242-.66 4.45-2.09 4.688-1.63.33-4.32.605-7.22.605h-5.97c.1-7.61 2.52-20.193 8.52-20.193h.12zm-60.26 47.208c4.33-.16 4.83-.6 4.98-3.638.24-3.685.35-7.664.35-15.626v-9.51c0-6.673-.1-11.467-.24-14.706-.1-1.73-.66-1.992-5.13-1.87v-1.843c1.79-.02 4.31-.232 6.29-.48 2.25-.273 4.31-.734 5.56-1.083.2 2.473.49 5.218.52 6.967 3.3-3.362 7.29-7.538 12.95-7.538 5.13 0 7.97 2.662 9.29 5.946.69 1.658.97 3.65.97 5.904v34.452c0 2.39.46 2.618 5.31 3.022l-.28 1.96c-2.27 0-5.11-.253-9.17-.253-3.81 0-6.27.254-7.84.254l.25-1.96c3.53-.136 4.14-.875 4.37-2.972.13-2.287.43-7.984.43-18.036 0-16.528 0-17.555-.58-19.214-.95-2.967-2.89-4.706-6.17-4.706-3.86 0-6.88 2.518-8.68 6.502-.79 1.586-.94 2.745-.94 4.858v19.674c0 4.276 0 7.82.23 10.346.31 2.873.74 3.25 4.76 3.546l-.36 1.96c-1.56 0-6.19-.253-8.9-.253-2.82 0-5.99.176-8 .254v-1.96m-3.37 1.962c-2.29 0-5.25-.255-9.41-.255-4.03 0-6.68.254-8.73.254l.1-1.962c4.65-.135 5.39-.906 5.53-3.007.12-2.172.41-6.85.41-15.864V46.674c0-6.36-.22-10.734-.27-12.56 0-1.71-.89-1.993-5.94-1.724v-1.834c1.78-.194 4.54-.427 7.2-.746 2.75-.35 5.21-.763 6.39-1.107 0 2.14-.44 8.404-.44 17.728v13.333c0 8.645.28 12.618.4 15.21.11 2.382.94 2.67 5.03 2.915l-.26 1.96m-9.11-73.452c2.83 0 4.16 1.806 4.16 4.885 0 2.75-2.07 4.495-4.65 4.495-2.23 0-4.01-1.793-4.01-4.548 0-2.67 1.75-4.83 4.4-4.83h.1zm-16.13 37.518c-.56-7.045-3.34-13.082-8.41-13.082-4.18 0-6.51 3.275-6.51 8.727 0 2.462.59 4.57 2.36 6.33 2.27 2.12 8.99 6.656 12.14 9.19 3.74 3.14 5.39 6.876 5.39 11.07 0 9.05-6.43 14.846-15.32 14.846-4.31 0-8.74-1.087-10.74-2.267 0-1.998.11-10.914-.1-14.55l1.68-.444c.18 2.32.79 5.11 1.75 7.847 1.74 4.854 4.89 7.142 8.7 7.142 4.88 0 8.12-3.115 8.05-9 0-2-.62-4.542-2.52-6.358-2.51-2.405-8.68-6.87-11.39-9.114-3.49-2.822-5.29-6.3-5.29-11.656 0-7.563 4.69-14.038 12.63-14.038 3.06 0 5.42 1.17 6.63 2.273l.9-3.042 1.69.653c-.39 5.242-.36 10.42 0 14.916l-1.69.554M343.6 29.842c2.19 0 5.11-.122 7.48-.244 2.43-.145 4.24-.377 5.27-.465-.26 3.627-.28 9.536-.38 16.377v15.34c0 9.565.1 12.826.35 15.05.2 1.703.58 1.854 5.22 1.692v1.698c-1.62.118-3.79.377-6.23.797-2.43.2-4.43.568-6.11.93 0-2.633-.19-6.22-.15-9.447-2.86 4.336-7.98 9.428-15.01 9.428-4.44 0-6.89-1.977-7.88-4.3-.56-1.423-.84-3.136-.84-5.656 0-6.904.28-18.732.3-27.56 0-5.96-.1-8.416-.18-9.974-.11-1.87-.75-2.03-5.33-2.03l.4-1.707c2.02 0 4.82-.09 7.32-.343 2.45-.207 4.46-.44 5.43-.672-.28 2.618-.58 11.165-.7 24.522 0 13.366 0 17.48.31 19.808.34 2.536 1.69 4.218 4.35 4.218 4.81 0 8.81-3.922 10.91-10.162.94-2.75.94-4.36.94-6.55V46.947c0-7.28-.13-11.017-.28-13.535-.14-1.673-.76-1.805-5.06-1.864l-.1-1.704m-53.58 9.854c1.15-.158 2.64-.35 4.28-.35 6.41 0 10.01 2.6 11.95 5.12 2 2.915 2.96 7.308 2.96 13.635 0 5.214-.73 9.898-2.23 12.968-2.05 4.232-6.35 6.38-12.34 6.38-3.06 0-4.05-.61-4.16-1.806-.3-4.844-.46-9.143-.46-18.618V39.696m-14.24 40.22c2.6-.26 6.06-.353 7.87-.353 1.92.08 3.25.1 4.97.197 1.91.1 3.41.1 5.99.1 5.55 0 11.53-1.07 16.09-4.543 5.14-3.886 7.46-9.338 7.46-17 0-7.628-2.65-12.158-5.74-14.883-3.07-2.73-7.56-4.187-12.01-5.172v-.45c1.88-.572 3.44-1.36 5.18-2.184 3.98-2.297 8.45-6.85 8.45-15.332 0-5.316-1.34-9.22-3.98-12.12-2.69-2.9-6.89-4.34-14.47-4.34-4.75 0-8 .186-11.09.308-3.54.064-5.88.175-8.42.276v2.108c5.58-.243 5.9.11 6.1 1.62.23 4.716.32 10.228.32 17.206v32.54c0 7.372-.19 13.03-.41 17.43-.19 2.053-.86 2.42-6.31 2.69v1.904zm14.26-57.91c0-6.842.24-10.185.37-13.8 0-1.63 1.05-2.24 4.64-2.24 4.54 0 7.15 1.51 8.69 4.37 1.12 2.286 1.91 5.76 1.91 11.113 0 12.266-4.45 15.794-11.72 15.794-1.39 0-2.41-.02-3.89-.137V22.005zM237.82 3.398c5.06-.355 5.83-.26 5.94 1.69.26 4.88.35 11.87.35 25.317-1.88-1.265-4.59-1.85-7.16-1.85-14.21 0-19.99 14.308-19.99 28.58 0 6.572 1.22 12.806 3.94 17.44 2.27 3.774 5.93 6.418 10.93 6.418 4.16 0 8.08-2.447 11.97-6.303l.23.03c.1.946.4 3.487.87 6.432 1.33-.444 3.43-.874 5.75-1.153 2.38-.14 4.85-.378 5.91-.42l.56-2.037-3.12.186c-1.17-.02-2.24-.32-2.53-2.215-.4-3.132-.43-7.07-.43-17.53V25.648c0-12.63.41-20.624.58-25.645-3.9.512-9.59 1.33-13.27 1.557l-.56 1.843m-13.21 52.194c0-13.278 4.1-24.897 12.13-24.897 3.64 0 5.63 2.225 6.69 4.404.66 1.325.68 3.358.68 14.952 0 18.212-.32 19.95-1.16 21.58-2 3.81-5.19 5.247-8.08 5.247-2.62 0-5.2-1.392-7.17-4.988-1.82-3.115-3.09-9.153-3.09-16.18zm-28.7-6.624c0-8.085-.54-12.858-.79-14.765-.21-1.157-.78-1.643-1.88-1.667h-3.28l.47-1.704c2.41-.253 4.44-.51 6.5-.87 2.17-.35 3.69-.742 4.4-.946l.35.396c.37 3.45.71 8.892.72 10.7h.34c1.94-4.824 5.04-11.553 11.15-11.553 2.08 0 3.46 1.192 3.9 2.406-.21.95-1.67 5.712-2 6.532h-1.11c-.9-1.18-2.9-2.543-4.92-2.543-2.62 0-4.89 4.043-6.01 7.937-.68 2.306-.91 4.075-.91 7.185 0 17.02 0 21.643.23 24.706.13 2.323.67 2.873 6.85 3.105l-.27 1.96c-2.39-.02-6.94-.253-10.66-.253-3.65 0-6.59.233-8.96.254l.29-1.96c4.19-.162 4.85-.86 5.05-2.826.31-2.702.54-7.665.54-14.27v-11.83m-20.63-.645c-2.88 1.62-5.94 3.213-9.8 5.276-3.28 1.765-5.59 3-7.73 4.7-2.92 2.215-4.21 5.67-4.21 9.677 0 6.847 3.8 13.01 10.13 13.01 3.96 0 8.42-2.976 11.76-7.606.66 4.906 3.37 7.607 7.5 7.607 2.68 0 4.66-.927 5.5-1.843l.15-1.67c-.67.278-1.29.396-2.16.396-2.13 0-4.2-1.51-4.2-6.473V38.87c0-1.723-.32-3.858-1.24-5.283-1.28-2.072-4.19-5.012-10.28-5.012-8.87 0-14.75 7-14.75 11.64 0 1.633.8 2.47 2.01 3.02 1.21.574 2.43.748 3.38.652l1-.835c.32-7.133 2.75-12.373 7.46-12.373 4.17 0 5.48 3.543 5.48 8.565v9.078m-13.95 18.2c0-5.743 2.15-8.35 4.4-10.007 3.67-2.767 7.01-4.208 9.55-5.555l.1 13.53c0 1.33-.1 3.27-.31 4.216-1.8 5.3-4.63 7.897-7.78 7.897-3.91 0-5.93-4.486-5.93-9.96v-.12zM116.48 29.71c2.15.152 5.3.273 8.1.258 2.8 0 6.78-.164 8.86-.26l.32 1.967-2.54.285c-1.9.233-2.24.753-1.76 2.73 2.8 12.584 6.84 27.463 8.53 34.96 2.88-10.597 6.08-22.73 8.56-35.04.29-1.633.1-2.236-1.28-2.31l-3.51-.625.18-1.966c2.34 0 4.82.258 7.15.258 2.79 0 5.14-.26 6.94-.26l-.17 1.967c-4.01.613-4.69 1.022-6.27 5.664-2.12 6.532-5.2 17.205-8.48 29.19-1.62 5.965-2.83 11.145-3.55 14.007-.59.02-1.32.06-2.03.18-.6.115-1.26.14-1.73.26-2.92-12.284-8.94-35.647-11.54-44.274-1.39-4.333-1.92-4.763-5.63-5.027l-.15-1.967M96.456 48.97c0-8.086-.536-12.86-.784-14.766-.207-1.157-.78-1.643-1.875-1.667h-3.283l.47-1.705c2.407-.253 4.44-.51 6.498-.87 2.166-.35 3.698-.742 4.398-.946l.35.396c.37 3.45.71 8.892.72 10.7h.34c1.94-4.824 5.04-11.553 11.15-11.553 2.09 0 3.46 1.19 3.91 2.405-.21.95-1.68 5.713-2 6.533h-1.12c-.9-1.18-2.9-2.543-4.92-2.543-2.62 0-4.89 4.044-6 7.938-.69 2.306-.91 4.075-.91 7.185 0 17.02 0 21.643.22 24.706.13 2.323.66 2.873 6.85 3.105l-.28 1.96c-2.38-.02-6.93-.254-10.653-.254-3.65 0-6.59.233-8.955.254l.292-1.96c4.186-.162 4.853-.86 5.047-2.826.304-2.702.537-7.665.537-14.27V48.968m-20.516-.647c-2.876 1.62-5.945 3.213-9.802 5.276-3.275 1.765-5.586 3-7.726 4.7-2.926 2.215-4.207 5.67-4.207 9.677 0 6.847 3.792 13.01 10.124 13.01 3.968 0 8.413-2.976 11.758-7.606.658 4.906 3.37 7.607 7.498 7.607 2.686 0 4.662-.927 5.5-1.843l.148-1.67c-.662.278-1.278.396-2.153.396-2.128 0-4.2-1.51-4.2-6.473V38.87c0-1.723-.316-3.858-1.234-5.283-1.28-2.072-4.196-5.012-10.284-5.012-8.875 0-14.758 7-14.758 11.64 0 1.633.802 2.47 2.025 3.02 1.197.574 2.42.748 3.368.652L63 43.052c.324-7.133 2.75-12.373 7.457-12.373 4.17 0 5.485 3.543 5.485 8.565v9.078m-13.948 18.2c0-5.743 2.153-8.35 4.398-10.007 3.677-2.767 7.003-4.208 9.55-5.555l.07 13.53c0 1.33-.06 3.27-.314 4.216-1.806 5.3-4.63 7.897-7.777 7.897-3.908 0-5.93-4.486-5.93-9.96v-.12zM6.528 26.53c0-8.293 0-11.943-.11-15.86-.092-3.847-.82-4.47-6.17-4.566l.058-1.977c1.876 0 5.172.272 9.232.272 3.438 0 7.69-.273 10.708-.273l-.05 1.977c-4.916.08-5.487 1.14-5.705 4.393-.22 2.872-.276 8.212-.44 14.657v13.78c2.4.116 6.656.145 11.05.145 4.482 0 9.18-.03 12.552-.146v-13.75c0-7.942-.02-12.266-.217-15.425-.165-2.54-1.016-3.535-5.818-3.657l.04-1.977c3.902.264 7.604.272 10.253.272 3.478 0 7.64-.225 9.623-.272v1.977c-5.133.122-5.982.905-6.093 4.56-.153 3.763-.264 8.227-.264 15.178V55.26c0 9.236.126 14.855.274 18.655.17 3 .813 3.58 6.01 3.974l-.08 1.96c-2.473-.09-6.74-.253-10.38-.253-3.317 0-7.402.07-9.537.254v-1.96c5.054-.167 5.744-1.063 5.902-4.084.1-2.675.282-6.334.282-17.697V41.774c-2.968-.117-7.69-.28-12.26-.28-4.575 0-8.942.163-11.34.28V55.96c0 9.032.196 13.995.385 17.643.135 3.72 1.056 4.222 5.915 4.285v1.96c-2.468 0-6.205-.253-11.063-.253-3.674 0-7.224.254-9.283.254v-1.962c5.284-.114 5.874-1.004 6.132-3.99.132-2.79.4-7.25.4-19.337V26.53"/></svg>