<svg xmlns="http://www.w3.org/2000/svg" viewBox="0 0 502.7 222.6"><path d="M179.5 74.58V26.39H193v17.9h16.6v-17.9H223v48.19h-13.4V55.92H193v18.66zm266.1-50.62H459v50.62h-12l-1.4-6.52c-1.3 5.02-5.5 7.53-11.5 7.53-8.7 0-15.2-6.87-15.2-19.16 0-12.72 6-20.5 16.6-20.5 5.1 0 8.8 2.09 10.1 5.77zm0 29.03c0-4.85-2.2-7.44-5.9-7.44-4.2 0-7.5 2.84-7.5 10.37 0 6.19 2.8 9.46 7 9.46 3.7 0 6.4-2.51 6.4-7.62zm-31.8-1.33c-1.3-.59-2.3-1.01-4.6-1.01-2.7 0-6.9 1.26-6.9 7.95v15.98h-12.9V36.76h11l1.5 9.37c.9-6.36 6.4-9.37 12.8-9.37zm-35 10.45c0 1.85.5 2.85 1.8 2.85.9 0 1.8-.5 2.3-.75v9.28c-1.8 1.34-3.2 1.84-6.4 1.84-5.1 0-7.9-2.25-9.2-5.94-2.3 3.94-5.6 6.11-11.1 6.11-6.9 0-11.1-4.1-11.1-10.54 0-8.12 5.5-12.22 17.1-12.22h3.7v-2.59c0-2.43-.5-4.1-3.3-4.1-2.2 0-3.2 1.34-3.2 4.43l-12.9-1.92c1-7.78 6.9-12.63 16.6-12.63 11.1 0 15.7 4.68 15.7 12.96zm-12.9-2.67h-1.4c-5.1 0-6.5 1.5-6.5 3.93 0 1.84.9 3.18 3.3 3.18 2.2 0 4.6-1.17 4.6-4.69zm-63.2-22.68h13.8l4.7 15.23c1.3 5.52 2.3 9.29 2.3 9.29h.5s.4-3.77 2.2-9.29l5.1-15.23h12.9l-13.8 37.82h-14.3zm-4.6 14.9c-1.3-.59-2.3-1.01-4.6-1.01-2.8 0-6.9 1.26-6.9 7.95v15.98h-12.9V36.76h11l1.4 9.37c1.4-6.36 6.5-9.37 12.9-9.37zM263 62.11c0 1.85.5 2.85 1.9 2.85.9 0 1.8-.5 2.3-.75v9.28c-1.8 1.34-3.2 1.84-6.4 1.84-5.1 0-7.9-2.25-9.2-5.94-2.4 3.94-5.6 6.11-11.1 6.11-6.9 0-11.1-4.1-11.1-10.54 0-8.12 5.5-12.22 17.1-12.22h3.7v-2.59c0-2.43-.5-4.1-3.3-4.1-1.8 0-3.2 1.34-3.2 4.43l-12.4-1.92c.5-7.78 6.4-12.63 16.1-12.63 11 0 15.6 4.68 15.6 12.96zm-12.8-2.67h-1.5c-5 0-6.4 1.5-6.4 3.93 0 1.84 1.4 3.18 3.3 3.18 2.2 0 4.6-1.17 4.6-4.69zm148.4 94.06l2.8 13.2c1.4 6.9 2.3 11.9 2.3 11.9s.9-5 2.3-11.7l3.2-13.4h12.9l-10.6 37.9h-14.7l-2.3-11.1c-.9-5.6-1.8-12.1-1.8-12.1h-.6s-.4 6.5-1.8 12.1l-2.3 11.1h-14.8l-10.1-37.9h13.4l2.8 13.4c1.8 6.7 2.7 11.7 2.7 11.7s.9-5 2.3-11.9l2.3-13.2zm-49.3 24.2l11.1 3.4c-2.4 8.1-9.2 11.2-16.6 11.2-11.1 0-19.4-7.1-19.4-19.4 0-12.8 7.3-20.3 18.9-20.3 11.5 0 17.1 7.2 17.1 17.7v4.8h-23.1c0 4.7 2.3 7.2 6.5 7.2 2.7 0 4.6-1.3 5.5-4.6m-1.4-9.3c0-3.3-.9-6.1-4.6-6.1-3.3 0-5.5 2.5-6 6.1zm-36-31.2c3.7 0 7.4 2.6 7.4 6.9 0 4.3-3.7 7-7.4 7-4.1 0-7.4-2.7-7.4-7s3.3-6.9 7.4-6.9m6.5 54.2h-12.9v-37.8h12.9zm-58.5-37.9h13.8l4.6 15.3c1.4 5.4 2.3 9.2 2.3 9.2s.9-3.8 2.8-9.2l5-15.3h12.5l-13.4 37.9h-14.3zm-13 24.2l11.1 3.4c-2.3 8.1-9.3 11.2-16.6 11.2-11.1 0-19.4-7.1-19.4-19.4 0-12.8 7.4-20.3 19-20.3 11.5 0 17 7.2 17 17.7v4.8h-23.1c0 4.7 2.4 7.2 6.5 7.2 2.7 0 4.6-1.3 5.5-4.6m-1.3-9.3c0-3.3-1.5-6.1-4.6-6.1-3.3 0-5.6 2.5-6.1 6.1zm-39 23c-1.5-1.4-2.2-3.2-2.7-5.5l-1.5-5.9c-.9-3.5-2.2-4.1-5.3-4.1h-4.2v15.5h-13.4v-48.3h20.7c10.8 0 18.3 4.3 18.3 15.2 0 7.6-5 11.3-10.3 12.3 4.4.9 6.7 2.8 7.8 7l2.3 8.3c.6 2.1 1.2 3.7 2.9 5.5zm-13.7-26.3h5.1c4.7 0 6.7-1.9 6.7-5.3 0-3.5-2-5.4-6.7-5.4h-5.1zm25.9-45.2c0 7.8-5.4 13.1-17.2 13.1h-22.1V84.79H201c10.3 0 15.7 4.68 15.7 12.55 0 5.66-3.3 9.66-8.4 10.86 6.8 1.4 10.5 6 10.5 11.7m-26-15h5.2c3.5 0 5.6-1.4 5.6-4.6 0-3.38-2.1-4.63-5.6-4.63h-5.2zm0 17h7c3.3 0 5.3-1.5 5.3-4.2 0-2.8-2-4.3-5.3-4.3h-7zm264.8-2c.5 3.2 3.2 4.8 6 4.8 2.3 0 3.7-.8 3.7-2.4 0-1.7-1.4-2.4-3.7-3l-5-1c-7-1.5-10.6-5.1-10.6-11.3 0-9.16 7.7-12.76 16.1-12.76 9.2 0 14.7 3.77 16.1 10.76l-12 1.9c-.4-2.2-1.8-3.4-4.6-3.4-1.8 0-3.2 1-3.2 2.4 0 1.5 1.4 2.2 3.2 2.6l5.1.8c8.3 1.4 12 5.9 12 12.3 0 8.9-7.9 12.4-17.1 12.4-8.8 0-14.3-3.2-16.6-9.9zm-38.3 0c1 3.2 3.3 4.8 6.1 4.8 2.2 0 4.1-.8 4.1-2.4 0-1.7-1.4-2.4-4.1-3l-5.1-1c-6.9-1.5-10.7-5.1-10.7-11.3 0-9.16 7.9-12.76 16.7-12.76 8.7 0 14.3 3.77 15.6 10.76l-11.9 1.9c-.5-2.2-1.9-3.4-4.2-3.4-1.9 0-3.2 1-3.2 2.4 0 1.5.9 2.2 2.8 2.6l5 .8c8.8 1.4 12 5.9 12 12.3 0 8.9-7.8 12.4-17 12.4-8.8 0-14.3-3.2-16.7-9.9zm-26.2-.6l11 3.4c-2.2 8.1-8.7 11.3-16.6 11.3-11 0-19.3-7.2-19.3-19.5 0-12.7 7.4-20.26 19.3-20.26 11.1 0 17.1 7.16 17.1 17.66 0 1.4 0 3.1-.5 4.8h-23c.4 4.7 2.8 7.2 6.4 7.2 2.8 0 4.6-1.2 5.6-4.6m-1.4-9.3c0-3.3-.9-6.1-4.7-6.1-3.1 0-5 2.6-5.5 6.1zm-51.7-7.6c1.9-5.56 6-8.16 12.1-8.16 5.5 0 11 3.43 11 12.16V133h-13.4v-21.6c0-3.8-.9-6.1-4.6-6.1-2.7 0-5.1 1.7-5.1 7.4V133h-13.3V95.16h12zm-27.6-23.64c4.1 0 7.4 2.77 7.4 6.95 0 4.35-3.3 7.03-7.4 7.03-3.7 0-6.9-2.68-6.9-7.03 0-4.18 3.2-6.95 6.9-6.95m6.9 54.24H306V95.16h13.3zm-41.9-13.1c.9 3.2 3.2 4.8 6 4.8 2.2 0 4.1-.8 4.1-2.4 0-1.7-1.4-2.4-4.1-3l-5.1-1c-7-1.5-10.7-5.1-10.7-11.3 0-9.16 7.9-12.76 16.7-12.76 8.7 0 14.3 3.77 15.6 10.76l-11.9 1.9c-.5-2.2-1.9-3.4-4.2-3.4-1.8 0-3.2 1-3.2 2.4 0 1.5.9 2.2 2.8 2.6l5 .8c8.3 1.4 12 5.9 12 12.3 0 8.9-7.8 12.4-17 12.4-8.8 0-14.3-3.2-16.7-9.9zm-29.6 6.1c-.9 4.9-5 8-11.4 8-7 0-11.7-4.3-11.7-13.2V95.16h13.5V118c0 3.8.9 6 4.1 6 3.3 0 5.5-3.1 5.5-9.2V95.16h13V133h-11.6zm0 0"/><path class="only-light-background" d="M118.5 77.84c.9 1.34 1.5 2.85 1.7 4.44.8 4.35-1.4 8.95-9.4 9.37 0 6.61-1.8 9.25-10.1 9.35.7 7-2.9 9.3-6.83 9.3-3.94 0-7.62-2.3-6.95-9.3-8.28 0-9.96-2.74-10.04-9.35-8.03-.5-10.12-5.02-9.45-9.37 0-1.59.83-3.1 1.75-4.44H26.34v2.18c0 80.38 66.61 115.08 66.77 115.08l.92.6 1.09-.6s66.58-34.7 66.68-115.08v-2.18zM62.99 151.6c1.59-.8 2.85-3.3 3.1-5 .5-2.1.83-3 2.01-3.1 1.17 0 1.59 1 2 3.1.42 1.7 1.51 4.2 3.1 5 1 .5 4.18.6 3.51 2.6-.41.8-1 2.5-1.84 1.7-.92-.7-2.42-2.8-3.01-2.9-.59 0-.5.7 0 1.1.42.5 1.34 1.8 1.92 2.5.76.8.93 2.3-.5 3-1.25.6-2.59 0-2.59-.9 0-1-.5-4-1.09-4-.42 0-.42.8-.42 1.6 0 1.8.92 3.2.84 4 0 .9-.42 1.8-1.84 1.8-1.59 0-1.76-.9-1.93-1.8 0-.8 1.09-2.2.92-4 0-.8 0-1.6-.5-1.6-.58 0-1.17 3-1.08 4 0 .6-1.34 1.5-2.6.9-1.25-.7-1.09-2.2-.5-3 .59-.7 1.59-2.2 2.01-2.5 0-.5.42-1.2-.5-1.1-.59 0-2.1 2.2-2.93 2.9-.92.8-1.51-.9-1.96-1.7-.68-2 2.63-2.1 3.63-2.6m1.09-5.5c1 0 .5.9.42 1.9 0 .9-.42 1-1.34-.5-1.01-1.3 0-1.5 1-1.5m7.95 0c1 0 1.92.4.92 1.5-1 1.4-1.25 1.2-1.34.5 0-1-.67-2 .42-1.9m47.24 8.6c-.6 0-1.1 2.9-1.1 3.9 0 .7-1.3 1.5-2.5.9-1.3-.7-1.1-2.2-.5-3 .6-.7 1.6-2.2 2-2.5.4-.5.4-1.2-.5-1.1-.6 0-2.1 2.2-3 2.9-.9.8-1.5-1-1.9-1.8-.6-1.9 2.6-1.9 3.6-2.4 1.5-.9 2.8-3.4 3.1-5.1.4-2.1.8-3 1.9-3.1 1.1 0 1.7 1 2 3.1.4 1.7 1.5 4.2 3.1 5.1 1 .5 4.2.5 3.5 2.4-.4.8-1 2.6-1.8 1.8-.9-.7-2.4-2.8-3-2.9-.6 0-.5.7 0 1.1.4.4 1.3 1.8 1.9 2.5.8.8 1 2.3-.4 3-1.3.6-2.7 0-2.6-.9 0-1-.6-3.9-1.2-3.9-.4 0-.4.7-.4 1.5 0 1.8 1 3.1.8 4.1 0 .8-.5 1.7-1.8 1.7-1.5 0-1.8-.9-1.8-1.7 0-1 .9-2.3.8-4.1 0-.8 0-1.5-.5-1.5m-2.6-8.7c1.1 0 .5 1 .5 1.9 0 .9-.5 1-1.3-.4-1-1.4 0-1.5.9-1.7m7.9 0c1.1 0 2 .5 1 1.7-1 1.3-1.3 1.1-1.4.4 0-.9-.6-1.9.5-1.9m.9-51.42c-1 1.34-1.2 1.25-1.3.5 0-.92-.7-2.01.4-1.92 1.2 0 1.9.5.9 1.59m-8.8-1.68c1.1 0 .5.92.4 1.93 0 .92-.4 1-1.3-.51-1.1-1.25 0-1.42 1-1.58m-1.1 5.6c1.6-.92 2.7-3.35 3.1-5.02.4-2.17.8-3.01 1.9-3.09 1.2 0 1.7.92 2 3.09.5 1.67 1.5 4.1 3.1 5.02 1 .5 4.2.5 3.6 2.39-.5 1-1.1 2.6-1.9 1.9-1-.9-2.5-2.87-3-2.95-.6 0-.5.75 0 1.05.5.5 1.3 1.9 1.9 2.5.7.9 1 2.4-.4 3-1.4.6-2.7 0-2.6-.9 0-1-.6-4-1.1-4-.5 0-.5.9-.5 1.7 0 1.7 1 3.1.8 4 0 .9-.4 1.8-1.8 1.8-1.5 0-1.7-.9-1.9-1.8 0-.9 1-2.3.9-4 0-.8 0-1.7-.5-1.7s-1.2 3-1.1 4c0 .7-1.3 1.5-2.6.9s-1-2.1-.4-3c.6-.6 1.6-2.1 1.9-2.5.4-.5.4-1.22-.5-1.05-.5 0-2 2.05-2.9 2.95-.9.7-1.5-.9-1.9-1.9-.6-1.89 2.5-1.89 3.5-2.39m5.1 21.09c-.7-7.4 4-9.5 9.5-9.1-.8-7.4 3-9.9 9.7-9.6-.9-8.66 4.9-9.67 9.5-9.33-.7-6.53 3.9-9.12 7-9.46h1c-.4 29.69-10.4 52.69-22.3 69.89-4.9-1.3-5.7-5.3-5.3-8.9-7.3.8-10.2-4.3-9.2-9.4-2.8 1-8.8-.4-9.6-5.7-.6-5.2 3.5-8.4 9.7-8.4m-22.39 0c1.09 0 1.93.5.92 1.7-1 1.3-1.17 1.1-1.33.4 0-.9-.59-1.9.5-1.9m-7.95 0c1 0 .5 1 .5 1.9 0 .9-.5 1-1.34-.4-1-1.4 0-1.5.92-1.7m-1.08 5.6c1.59-.9 2.84-3.3 3.09-5 .42-2.2.84-3 2.01-3.1 1.09 0 1.59.9 1.92 3.1.51 1.7 1.51 4.1 3.1 5 1 .5 4.23.5 3.63 2.4-.5.9-1 2.6-2 1.9-.79-.9-2.38-2.9-2.89-3-.58 0-.5.8-.5 1.1.5.4 1.42 1.9 1.93 2.5.75.9.96 2.4-.42 3-1.26.6-2.6 0-2.6-.9 0-1-.58-4-1.08-4-.5 0-.5.8-.5 1.6 0 1.8 1 3.2.92 4.1 0 .9-.51 1.8-1.93 1.8-1.51 0-1.67-.9-1.84-1.8 0-.9 1-2.3.84-4.1 0-.8 0-1.6-.42-1.6-.59 0-1.26 3-1.17 4 0 .7-1.26 1.5-2.51.9-1.34-.6-1.09-2.1-.5-3 .58-.6 1.58-2.1 1.92-2.5 0-.5.5-1.2-.42-1.1-.58 0-2.09 2.1-3.01 3-.84.7-1.42-1-1.84-1.9-.67-1.9 2.51-1.9 3.51-2.4m-2.34 27.9c-.67-5.6 2.76-9.2 7.28-9.2 4.52 0 7.87 3.6 7.37 9.2 4.9-1.4 11.5 1.1 9.9 9.6 5.7-1.9 10 1.1 10.3 5.7-12.5 13.1-24.39 20.4-27.82 22.4-3.43-2-15.06-9.1-27.36-21.9 0-5 4.52-8.2 10.37-6.2-1.59-8.5 5.02-11 9.96-9.6m-9.37-24.9c-.75 5.3-6.78 6.7-9.54 5.7 1 5-1.84 10.3-9.24 9.5.46 3.6-.46 7.8-5.85 8.9-11.89-17.1-21.85-40.2-22.31-70.02h1.33c3.14.5 7.75 2.93 7.05 9.45 4.52-.41 10.38.67 9.5 9.37 6.59-.5 10.43 2.2 9.69 9.6 5.56-.5 10.25 1.7 9.5 9.1 6.19 0 10.37 3.1 9.7 8.4M61.9 95c0 .92-.41 1-1.33-.42-1.01-1.34 0-1.51.92-1.59 1 0 .5.92.5 1.92m7.53-1.84c1.09 0 1.92.5.92 1.59-1.01 1.34-1.26 1.26-1.34.5 0-.92-.67-2 .5-1.92m-2.01.5c.51 1.68 1.51 4.1 3.1 4.94 1 .5 4.27.58 3.6 2.42-.51 1-1.09 2.7-1.93 1.9-.83-.8-2.34-2.8-2.93-2.9-.67 0-.5.8 0 1 .42.5 1.26 1.9 1.93 2.6.67.8.92 2.3-.5 2.9-1.26.6-2.6 0-2.6-.8 0-1.1-.5-4-1.09-4-.5 0-.5.8-.5 1.6 0 1.7 1.01 3.1.84 4 0 .9-.5 1.8-1.84 1.8-1.59 0-1.76-.9-1.93-1.8 0-.9 1.01-2.3.84-4 0-.8 0-1.6-.42-1.6-.58 0-1.25 2.9-1.17 4 0 .7-1.25 1.4-2.51.8-1.37-.6-1.2-2.1-.5-2.9.59-.7 1.59-2.2 1.92-2.6.51-.4.51-1.17 0-1-.58 0-2.09 2.1-2.96 2.9-.88.8-1.47-.9-1.89-1.9-.69-1.84 2.59-1.92 3.52-2.42 1.67-.84 2.84-3.26 3.17-4.94.42-2.17.84-3.09 1.93-3.09 1.17 0 1.59.92 2.01 3.09M26.34 26.39v47.1H161.8v-47.1zM143.1 39.11h1.3c.5 0 .5 0 .5.41v21l-1.8-1.5V39.36v-.51m1.2 21.84h-10.7c0-.58-.4-1.09-.9-1.42h10zm-23.1-21.5s.8-.5.9-.5h.5c2 0 4.2 0 6.1.83 1.7.67 2.9 1.76 2.9 3.85h.7c0-2.09 1.2-3.18 3-3.85 1.7-.67 4.1-.83 6-.83h1v19.16s0 .5-.4.5h-20.3s-.5 0-.5-.5zm.5 20.08h9.1c-.5.5-.9.84-1 1.42h-10.2l1.7-1.5h.5m-2.5-20s0-.5.4-.5h1.3v20.16l-1.7 1.42zm-12.2-.5s.5 0 .5.5v20.83l-1.8-1.42V38.85h1.3m0 21.84H96.29c0-.58-.5-1.09-.92-1.42h10.03zm-12.23-17.9c0-1.76.92-2.68 2.34-3.27 1.42-.58 3.19-.75 4.79-.75h3.4v19.24s0 .51-.5.51H94.87zm-10.96-3.6h3.43c1.51 0 3.35 0 4.68.67 1.43.58 2.35 1.5 2.35 3.35v15.81H84.24s-.41 0-.41-.5zm.5 20.08h8.95c-.41.42-.83.84-.83 1.42H82.24l1.84-1.5h.41M81.4 39.52s0-.5.5-.5h1.26v19.75l-1.68 1.42zm-13.47-.5h1.25c.51 0 .51 0 .51.5v20.92l-1.76-1.42V39.27m1.34 21.76H58.43c0-.59-.46-1.09-.87-1.43h10.03zM57.05 43.21c0-1.85.92-2.77 2.34-3.35 1.43-.59 3.27-.67 4.77-.67H67.17v19.16s0 .5-.5.5H56.59zm-10.97-3.69h3.41c1.52 0 3.32 0 4.7.67 1.39.67 2.31 1.59 2.31 3.35v15.81H46.36s-.46 0-.46-.41zm.46 20.08h8.99c-.5.51-.83.84-.88 1.43H44.37l1.8-1.51h.51m-2.58-20s0-.41.46-.41h1.25v19.66l-1.71 1.42zm-2.26 23.01c-.46 0-.6-.5-.6-.67v-3.09c-.88 0-1.57-.67-1.57-1.34 0-.59.69-1.17 1.57-1.34V45.88c-.88 0-1.57-.67-1.57-1.25 0-.76.69-1.26 1.57-1.34v-4.02c0-.5.46-.58.6-.58l1.8.42v21.5c0 .67.5 1.09 1.05 1.09h10.29c0 .41 0 .58.46.83zm15.54 0h-1.21c-.46-.5-.78-.75-.78-1.25 0-.76.6-1.42 1.38-1.42.74 0 1.39.66 1.39 1.42 0 .5-.46 1-.78 1.25m16.32-5.1c0 .67-.67 1.17-1.5 1.34v3.09c0 .51-.51.67-.67.67H58.34c0-.5.43-.58.43-.92H69.6c.59 0 1.09-.42 1.09-1V39.52v-.58h1.17c.42 0 .59.42.59.58v4.1c.83 0 1.59.59 1.59 1.26s-.76 1.17-1.59 1.25v10.21c.83 0 1.59.67 1.59 1.34m5.69 5.02c-.51 0-.59-.42-.59-.59v-3.09c-.92 0-1.51-.67-1.51-1.34s.59-1.25 1.51-1.34V45.88c-.92 0-1.51-.67-1.51-1.25 0-.76.59-1.26 1.51-1.34v-4.02c0-.5 0-.58.59-.58l1.75.42v21.5c0 .67.5 1.09 1.09 1.09h10.21c0 .41 0 .58.5.83zm15.56 0h-1.26c-.42-.42-.75-.67-.75-1.25 0-.67.59-1.34 1.34-1.34.84 0 1.42.67 1.42 1.34 0 .58-.5 1.08-.75 1.25m16.31-5.02c0 .67-.7 1.17-1.6 1.34v3.09c0 .51-.5.59-.6.59H96.29c0-.42.42-.5.42-.84h10.79c.6 0 1.1-.5 1.1-1V39.77v-.58h1.1c.5 0 .6.42.6.58v4.02c.9 0 1.6.67 1.6 1.34 0 .59-.7 1.17-1.6 1.25v10.21c.9 0 1.6.67 1.6 1.34m5.7 5.02c-.5 0-.6-.42-.6-.58v-3.18c-.9 0-1.5-.59-1.5-1.26s.6-1.25 1.5-1.34V45.88c-.9 0-1.5-.67-1.5-1.25 0-.76.6-1.26 1.5-1.34v-4.02c0-.5.5-.58.6-.58l1.8.42v21.5c0 .58.5 1 1 1h10.3c0 .5 0 .67.4.92zm15.5 0h-1.2c-.5-.42-.8-.67-.8-1.25 0-.76.7-1.34 1.4-1.34.8 0 1.4.58 1.4 1.34 0 .58-.5 1-.8 1.25m16.3-5.02c0 .67-.6 1.17-1.6 1.26v3.18c0 .41 0 .58-.5.58h-13.2c0-.42.5-.58.5-.92h10.8c.6 0 1.1-.5 1.1-1v-21-.67h1.1c.5 0 .6.5.6.67v4.01c.9 0 1.5.59 1.5 1.34 0 .59-.6 1.17-1.5 1.26v10.2c.9 0 1.5.67 1.5 1.34M63.49 54.5c-.67 0-.83 0-.83-.75V50.4c1 0 1.5.42 1.59 2.09h.5v-4.68h-.5c0 1.75-.59 2.09-1.59 2.09v-4.02c0-.5 0-.67.75-.67 1.34 0 2.09.51 2.26 2.43v-2.85H59.9v.42c.5 0 .83 0 .83 1.01v6.77c0 .84-.42.84-.83 1.01v.42h5.94l.41-2.93h-.41c-.67 2.17-1.68 2.51-2.68 2.51m74.54-.42c.4 0 .8.42 1.7.42 1.9 0 2.5-1.67 2.5-2.93 0-1.51-.8-2.34-1.1-2.51l-1.5-1.09c-.8-.5-1-.83-1-1.59 0-.92.6-1.34 1.1-1.34 1.2 0 1.7 1.59 2 2.6h.4v-3.1h-.4c0 .5 0 .5-.5.5-.4 0-.8-.5-1.6-.5-1.9 0-2.3 1.93-2.3 2.76 0 .59 0 1.84 1.8 2.93l.7.5c.6.42 1.1.76 1.1 1.68 0 0 0 1.59-1.2 1.59-1.3 0-1.9-1.59-2.1-3.02h-.4v3.43h.4s0-.41.5-.41m-89.55-7.62l2.58 8.37h.46l2.31-8.2c.46-.67.46-1 .92-1.09v-.42h-2.17v.42c.55 0 .88 0 .88.59v1l-1.34 4.6-1.29-4.43c0-.42-.46-.92-.46-1.17 0-.5.46-.5.87-.59v-.42H47.6v.42c.46 0 .6 0 .87.92m40.46 7.7c-.67 0-.84 0-.84-1.25v-2.77h.42L90.6 54h2.09v-.5s-.5 0-.5-.42l-2.01-4.02c.59 0 1.59-.67 1.59-2.34 0-2.43-2.17-2.51-2.84-2.51h-3.26v.5c.58 0 .83 0 .83 1.26v6.19c0 1.09 0 1.09-.83 1.25v.42h3.43zm-.84-8.03c0-.42 0-.59.59-.59.83 0 1.25.67 1.25 2.01 0 1.84-.5 2.18-1.84 2.18zm36.31-.59v7.37c0 1.17 0 1.17-1 1.25v.5h3.7v-.5c-.8 0-1 0-1-1.25v-7.37c.7 0 1.7 0 1.9 2.34h.5v-2.76H122v2.76h.5c0-2.17 1.2-2.25 1.9-2.34m6.1 8.62c-.4 0-.8 0-.8-.59 0 0 0-.83.5-1.84h2.2c0 .42.5 1.51.5 1.93 0 .42 0 .42-.8.5v.5h3.3v-.5c-.5 0-.7-.42-1.1-1.92l-2.3-7.37h-.5l-2.2 7.62c-.5 1.08-.5 1.59-1 1.67v.5h2zm.8-6.36l1 3.43h-2zm-33.25-2.34c.5 0 .92 0 .92 1v6.7c0 .92-.42.92-.92 1v.5h3.55v-.5c-.5 0-1 0-1-1v-6.7c0-.92.5-.92 1-1v-.42h-3.55zm0 0"/></svg>