<svg xmlns="http://www.w3.org/2000/svg" viewBox="0 0 502.7 222.6">
    <path d="M 179.5,74.58 V 26.39 H 193 v 17.9 h 16.6 V 26.39 H 223 V 74.58 H 209.6 V 55.92 H 193 v 18.66 z m 0,0 M 445.6,23.96 H 459 v 50.62 h -12 l -1.4,-6.52 c -1.3,5.02 -5.5,7.53 -11.5,7.53 -8.7,0 -15.2,-6.87 -15.2,-19.16 0,-12.72 6,-20.5 16.6,-20.5 5.1,0 8.8,2.09 10.1,5.77 z m 0,29.03 c 0,-4.85 -2.2,-7.44 -5.9,-7.44 -4.2,0 -7.5,2.84 -7.5,10.37 0,6.19 2.8,9.46 7,9.46 3.7,0 6.4,-2.51 6.4,-7.62 z m 0,0 m -31.8,-1.33 c -1.3,-0.59 -2.3,-1.01 -4.6,-1.01 -2.7,0 -6.9,1.26 -6.9,7.95 V 74.58 H 389.4 V 36.76 h 11 l 1.5,9.37 c 0.9,-6.36 6.4,-9.37 12.8,-9.37 z m 0,0 m -35,10.45 c 0,1.85 0.5,2.85 1.8,2.85 0.9,0 1.8,-0.5 2.3,-0.75 v 9.28 c -1.8,1.34 -3.2,1.84 -6.4,1.84 -5.1,0 -7.9,-2.25 -9.2,-5.94 -2.3,3.94 -5.6,6.11 -11.1,6.11 -6.9,0 -11.1,-4.1 -11.1,-10.54 0,-8.12 5.5,-12.22 17.1,-12.22 h 3.7 v -2.59 c 0,-2.43 -0.5,-4.1 -3.3,-4.1 -2.2,0 -3.2,1.34 -3.2,4.43 l -12.9,-1.92 c 1,-7.78 6.9,-12.63 16.6,-12.63 11.1,0 15.7,4.68 15.7,12.96 z m -12.9,-2.67 h -1.4 c -5.1,0 -6.5,1.5 -6.5,3.93 0,1.84 0.9,3.18 3.3,3.18 2.2,0 4.6,-1.17 4.6,-4.69 z m 0,0 M 302.7,36.76 h 13.8 l 4.7,15.23 c 1.3,5.52 2.3,9.29 2.3,9.29 h 0.5 c 0,0 0.4,-3.77 2.2,-9.29 l 5.1,-15.23 h 12.9 l -13.8,37.82 h -14.3 z m 0,0 m -4.6,14.9 c -1.3,-0.59 -2.3,-1.01 -4.6,-1.01 -2.8,0 -6.9,1.26 -6.9,7.95 V 74.58 H 273.7 V 36.76 h 11 l 1.4,9.37 c 1.4,-6.36 6.5,-9.37 12.9,-9.37 z m 0,0 M 263,62.11 c 0,1.85 0.5,2.85 1.9,2.85 0.9,0 1.8,-0.5 2.3,-0.75 v 9.28 c -1.8,1.34 -3.2,1.84 -6.4,1.84 -5.1,0 -7.9,-2.25 -9.2,-5.94 -2.4,3.94 -5.6,6.11 -11.1,6.11 -6.9,0 -11.1,-4.1 -11.1,-10.54 0,-8.12 5.5,-12.22 17.1,-12.22 h 3.7 v -2.59 c 0,-2.43 -0.5,-4.1 -3.3,-4.1 -1.8,0 -3.2,1.34 -3.2,4.43 l -12.4,-1.92 c 0.5,-7.78 6.4,-12.63 16.1,-12.63 11,0 15.6,4.68 15.6,12.96 z m -12.8,-2.67 h -1.5 c -5,0 -6.4,1.5 -6.4,3.93 0,1.84 1.4,3.18 3.3,3.18 2.2,0 4.6,-1.17 4.6,-4.69 z m 0,0 m 148.4,94.06 2.8,13.2 c 1.4,6.9 2.3,11.9 2.3,11.9 v 0 c 0,0 0.9,-5 2.3,-11.7 l 3.2,-13.4 h 12.9 l -10.6,37.9 h -14.7 l -2.3,-11.1 c -0.9,-5.6 -1.8,-12.1 -1.8,-12.1 h -0.6 c 0,0 -0.4,6.5 -1.8,12.1 l -2.3,11.1 h -14.8 l -10.1,-37.9 h 13.4 l 2.8,13.4 c 1.8,6.7 2.7,11.7 2.7,11.7 v 0 c 0,0 0.9,-5 2.3,-11.9 l 2.3,-13.2 z m 0,0 m -49.3,24.2 11.1,3.4 c -2.4,8.1 -9.2,11.2 -16.6,11.2 -11.1,0 -19.4,-7.1 -19.4,-19.4 0,-12.8 7.3,-20.3 18.9,-20.3 11.5,0 17.1,7.2 17.1,17.7 0,1.4 0,3 0,4.8 h -23.1 c 0,4.7 2.3,7.2 6.5,7.2 2.7,0 4.6,-1.3 5.5,-4.6 m -1.4,-9.3 c 0,-3.3 -0.9,-6.1 -4.6,-6.1 -3.3,0 -5.5,2.5 -6,6.1 z m 0,0 m -36,-31.2 c 3.7,0 7.4,2.6 7.4,6.9 0,4.3 -3.7,7 -7.4,7 -4.1,0 -7.4,-2.7 -7.4,-7 0,-4.3 3.3,-6.9 7.4,-6.9 m 6.5,54.2 h -12.9 v -37.8 h 12.9 z m 0,0 m -58.5,-37.9 h 13.8 l 4.6,15.3 c 1.4,5.4 2.3,9.2 2.3,9.2 v 0 c 0,0 0.9,-3.8 2.8,-9.2 l 5,-15.3 h 12.5 l -13.4,37.9 h -14.3 z m 0,0 m -13,24.2 11.1,3.4 c -2.3,8.1 -9.3,11.2 -16.6,11.2 -11.1,0 -19.4,-7.1 -19.4,-19.4 0,-12.8 7.4,-20.3 19,-20.3 11.5,0 17,7.2 17,17.7 0,1.4 0,3 0,4.8 h -23.1 c 0,4.7 2.4,7.2 6.5,7.2 2.7,0 4.6,-1.3 5.5,-4.6 m -1.3,-9.3 c 0,-3.3 -1.5,-6.1 -4.6,-6.1 -3.3,0 -5.6,2.5 -6.1,6.1 z m 0,0 m -39,23 c -1.5,-1.4 -2.2,-3.2 -2.7,-5.5 l -1.5,-5.9 c -0.9,-3.5 -2.2,-4.1 -5.3,-4.1 h -4.2 v 15.5 h -13.4 v -48.3 h 20.7 c 10.8,0 18.3,4.3 18.3,15.2 0,7.6 -5,11.3 -10.3,12.3 4.4,0.9 6.7,2.8 7.8,7 l 2.3,8.3 c 0.6,2.1 1.2,3.7 2.9,5.5 z m -13.7,-26.3 h 5.1 c 4.7,0 6.7,-1.9 6.7,-5.3 0,-3.5 -2,-5.4 -6.7,-5.4 h -5.1 z m 0,0 m 25.9,-45.2 c 0,7.8 -5.4,13.1 -17.2,13.1 H 179.5 V 84.79 H 201 c 10.3,0 15.7,4.68 15.7,12.55 0,5.66 -3.3,9.66 -8.4,10.86 6.8,1.4 10.5,6 10.5,11.7 m -26,-15 h 5.2 c 3.5,0 5.6,-1.4 5.6,-4.6 0,-3.38 -2.1,-4.63 -5.6,-4.63 h -5.2 z m 0,17 h 7 c 3.3,0 5.3,-1.5 5.3,-4.2 0,-2.8 -2,-4.3 -5.3,-4.3 h -7 z m 0,0 m 264.8,-2 c 0.5,3.2 3.2,4.8 6,4.8 2.3,0 3.7,-0.8 3.7,-2.4 0,-1.7 -1.4,-2.4 -3.7,-3 l -5,-1 c -7,-1.5 -10.6,-5.1 -10.6,-11.3 0,-9.16 7.7,-12.76 16.1,-12.76 9.2,0 14.7,3.77 16.1,10.76 l -12,1.9 c -0.4,-2.2 -1.8,-3.4 -4.6,-3.4 -1.8,0 -3.2,1 -3.2,2.4 0,1.5 1.4,2.2 3.2,2.6 l 5.1,0.8 c 8.3,1.4 12,5.9 12,12.3 0,8.9 -7.9,12.4 -17.1,12.4 -8.8,0 -14.3,-3.2 -16.6,-9.9 z m 0,0 m -38.3,0 c 1,3.2 3.3,4.8 6.1,4.8 2.2,0 4.1,-0.8 4.1,-2.4 0,-1.7 -1.4,-2.4 -4.1,-3 l -5.1,-1 c -6.9,-1.5 -10.7,-5.1 -10.7,-11.3 0,-9.16 7.9,-12.76 16.7,-12.76 8.7,0 14.3,3.77 15.6,10.76 l -11.9,1.9 c -0.5,-2.2 -1.9,-3.4 -4.2,-3.4 -1.9,0 -3.2,1 -3.2,2.4 0,1.5 0.9,2.2 2.8,2.6 l 5,0.8 c 8.8,1.4 12,5.9 12,12.3 0,8.9 -7.8,12.4 -17,12.4 -8.8,0 -14.3,-3.2 -16.7,-9.9 z m 0,0 m -26.2,-0.6 11,3.4 c -2.2,8.1 -8.7,11.3 -16.6,11.3 -11,0 -19.3,-7.2 -19.3,-19.5 0,-12.7 7.4,-20.26 19.3,-20.26 11.1,0 17.1,7.16 17.1,17.66 0,1.4 0,3.1 -0.5,4.8 h -23 c 0.4,4.7 2.8,7.2 6.4,7.2 2.8,0 4.6,-1.2 5.6,-4.6 m -1.4,-9.3 c 0,-3.3 -0.9,-6.1 -4.7,-6.1 -3.1,0 -5,2.6 -5.5,6.1 z m 0,0 M 340,102.4 c 1.9,-5.56 6,-8.16 12.1,-8.16 5.5,0 11,3.43 11,12.16 V 133 h -13.4 v -21.6 c 0,-3.8 -0.9,-6.1 -4.6,-6.1 -2.7,0 -5.1,1.7 -5.1,7.4 V 133 H 326.7 V 95.16 h 12 z m 0,0 M 312.4,78.76 c 4.1,0 7.4,2.77 7.4,6.95 0,4.35 -3.3,7.03 -7.4,7.03 -3.7,0 -6.9,-2.68 -6.9,-7.03 0,-4.18 3.2,-6.95 6.9,-6.95 M 319.3,133 H 306 V 95.16 h 13.3 z m 0,0 m -41.9,-13.1 c 0.9,3.2 3.2,4.8 6,4.8 2.2,0 4.1,-0.8 4.1,-2.4 0,-1.7 -1.4,-2.4 -4.1,-3 l -5.1,-1 c -7,-1.5 -10.7,-5.1 -10.7,-11.3 0,-9.16 7.9,-12.76 16.7,-12.76 8.7,0 14.3,3.77 15.6,10.76 l -11.9,1.9 c -0.5,-2.2 -1.9,-3.4 -4.2,-3.4 -1.8,0 -3.2,1 -3.2,2.4 0,1.5 0.9,2.2 2.8,2.6 l 5,0.8 c 8.3,1.4 12,5.9 12,12.3 0,8.9 -7.8,12.4 -17,12.4 -8.8,0 -14.3,-3.2 -16.7,-9.9 z m 0,0 m -29.6,6.1 c -0.9,4.9 -5,8 -11.4,8 -7,0 -11.7,-4.3 -11.7,-13.2 V 95.16 h 13.5 V 118 c 0,3.8 0.9,6 4.1,6 3.3,0 5.5,-3.1 5.5,-9.2 V 95.16 h 13 V 133 h -11.6 z m 0,0" style="stroke-width:1"></path>
    <path class="only-light-background" d="m 118.5,77.84 c 0.9,1.34 1.5,2.85 1.7,4.44 0.8,4.35 -1.4,8.95 -9.4,9.37 0,6.61 -1.8,9.25 -10.1,9.35 0.7,7 -2.9,9.3 -6.83,9.3 -3.94,0 -7.62,-2.3 -6.95,-9.3 -8.28,0 -9.96,-2.74 -10.04,-9.35 -8.03,-0.5 -10.12,-5.02 -9.45,-9.37 0,-1.59 0.83,-3.1 1.75,-4.44 H 26.34 v 2.18 c 0,80.38 66.61,115.08 66.77,115.08 l 0.92,0.6 1.09,-0.6 c 0,0 66.58,-34.7 66.68,-115.08 V 77.84 Z M 62.99,151.6 c 1.59,-0.8 2.85,-3.3 3.1,-5 0.5,-2.1 0.83,-3 2.01,-3.1 1.17,0 1.59,1 2,3.1 0.42,1.7 1.51,4.2 3.1,5 1,0.5 4.18,0.6 3.51,2.6 -0.41,0.8 -1,2.5 -1.84,1.7 -0.92,-0.7 -2.42,-2.8 -3.01,-2.9 -0.59,0 -0.5,0.7 0,1.1 0.42,0.5 1.34,1.8 1.92,2.5 0.76,0.8 0.93,2.3 -0.5,3 -1.25,0.6 -2.59,0 -2.59,-0.9 0,-1 -0.5,-4 -1.09,-4 -0.42,0 -0.42,0.8 -0.42,1.6 0,1.8 0.92,3.2 0.84,4 0,0.9 -0.42,1.8 -1.84,1.8 -1.59,0 -1.76,-0.9 -1.93,-1.8 0,-0.8 1.09,-2.2 0.92,-4 0,-0.8 0,-1.6 -0.5,-1.6 -0.58,0 -1.17,3 -1.08,4 0,0.6 -1.34,1.5 -2.6,0.9 -1.25,-0.7 -1.09,-2.2 -0.5,-3 0.59,-0.7 1.59,-2.2 2.01,-2.5 0,-0.5 0.42,-1.2 -0.5,-1.1 -0.59,0 -2.1,2.2 -2.93,2.9 -0.92,0.8 -1.51,-0.9 -1.96,-1.7 -0.68,-2 2.63,-2.1 3.63,-2.6 m 1.09,-5.5 c 1,0 0.5,0.9 0.42,1.9 0,0.9 -0.42,1 -1.34,-0.5 -1.01,-1.3 0,-1.5 1,-1.5 m 7.95,0 c 1,0 1.92,0.4 0.92,1.5 -1,1.4 -1.25,1.2 -1.34,0.5 0,-1 -0.67,-2 0.42,-1.9 m 47.24,8.6 c -0.6,0 -1.1,2.9 -1.1,3.9 0,0.7 -1.3,1.5 -2.5,0.9 -1.3,-0.7 -1.1,-2.2 -0.5,-3 0.6,-0.7 1.6,-2.2 2,-2.5 0.4,-0.5 0.4,-1.2 -0.5,-1.1 -0.6,0 -2.1,2.2 -3,2.9 -0.9,0.8 -1.5,-1 -1.9,-1.8 -0.6,-1.9 2.6,-1.9 3.6,-2.4 1.5,-0.9 2.8,-3.4 3.1,-5.1 0.4,-2.1 0.8,-3 1.9,-3.1 1.1,0 1.7,1 2,3.1 0.4,1.7 1.5,4.2 3.1,5.1 1,0.5 4.2,0.5 3.5,2.4 -0.4,0.8 -1,2.6 -1.8,1.8 -0.9,-0.7 -2.4,-2.8 -3,-2.9 -0.6,0 -0.5,0.7 0,1.1 0.4,0.4 1.3,1.8 1.9,2.5 0.8,0.8 1,2.3 -0.4,3 -1.3,0.6 -2.7,0 -2.6,-0.9 0,-1 -0.6,-3.9 -1.2,-3.9 -0.4,0 -0.4,0.7 -0.4,1.5 0,1.8 1,3.1 0.8,4.1 0,0.8 -0.5,1.7 -1.8,1.7 -1.5,0 -1.8,-0.9 -1.8,-1.7 0,-1 0.9,-2.3 0.8,-4.1 0,-0.8 0,-1.5 -0.5,-1.5 m -2.6,-8.7 c 1.1,0 0.5,1 0.5,1.9 0,0.9 -0.5,1 -1.3,-0.4 -1,-1.4 0,-1.5 0.9,-1.7 m 7.9,0 c 1.1,0 2,0.5 1,1.7 -1,1.3 -1.3,1.1 -1.4,0.4 0,-0.9 -0.6,-1.9 0.5,-1.9 m 0.9,-51.42 c -1,1.34 -1.2,1.25 -1.3,0.5 0,-0.92 -0.7,-2.01 0.4,-1.92 1.2,0 1.9,0.5 0.9,1.59 m -8.8,-1.68 c 1.1,0 0.5,0.92 0.4,1.93 0,0.92 -0.4,1 -1.3,-0.51 -1.1,-1.25 0,-1.42 1,-1.58 m -1.1,5.6 c 1.6,-0.92 2.7,-3.35 3.1,-5.02 0.4,-2.17 0.8,-3.01 1.9,-3.09 1.2,0 1.7,0.92 2,3.09 0.5,1.67 1.5,4.1 3.1,5.02 1,0.5 4.2,0.5 3.6,2.39 -0.5,1 -1.1,2.6 -1.9,1.9 -1,-0.9 -2.5,-2.87 -3,-2.95 -0.6,0 -0.5,0.75 0,1.05 0.5,0.5 1.3,1.9 1.9,2.5 0.7,0.9 1,2.4 -0.4,3 -1.4,0.6 -2.7,0 -2.6,-0.9 0,-1 -0.6,-4 -1.1,-4 -0.5,0 -0.5,0.9 -0.5,1.7 0,1.7 1,3.1 0.8,4 0,0.9 -0.4,1.8 -1.8,1.8 -1.5,0 -1.7,-0.9 -1.9,-1.8 0,-0.9 1,-2.3 0.9,-4 0,-0.8 0,-1.7 -0.5,-1.7 -0.5,0 -1.2,3 -1.1,4 0,0.7 -1.3,1.5 -2.6,0.9 -1.3,-0.6 -1,-2.1 -0.4,-3 0.6,-0.6 1.6,-2.1 1.9,-2.5 0.4,-0.5 0.4,-1.22 -0.5,-1.05 -0.5,0 -2,2.05 -2.9,2.95 -0.9,0.7 -1.5,-0.9 -1.9,-1.9 -0.6,-1.89 2.5,-1.89 3.5,-2.39 m 5.1,21.09 c -0.7,-7.4 4,-9.5 9.5,-9.1 -0.8,-7.4 3,-9.9 9.7,-9.6 -0.9,-8.66 4.9,-9.67 9.5,-9.33 -0.7,-6.53 3.9,-9.12 7,-9.46 h 1 c -0.4,29.69 -10.4,52.69 -22.3,69.89 -4.9,-1.3 -5.7,-5.3 -5.3,-8.9 -7.3,0.8 -10.2,-4.3 -9.2,-9.4 -2.8,1 -8.8,-0.4 -9.6,-5.7 -0.6,-5.2 3.5,-8.4 9.7,-8.4 m -22.39,0 c 1.09,0 1.93,0.5 0.92,1.7 -1,1.3 -1.17,1.1 -1.33,0.4 0,-0.9 -0.59,-1.9 0.5,-1.9 m -7.95,0 c 1,0 0.5,1 0.5,1.9 0,0.9 -0.5,1 -1.34,-0.4 -1,-1.4 0,-1.5 0.92,-1.7 m -1.08,5.6 c 1.59,-0.9 2.84,-3.3 3.09,-5 0.42,-2.2 0.84,-3 2.01,-3.1 1.09,0 1.59,0.9 1.92,3.1 0.51,1.7 1.51,4.1 3.1,5 1,0.5 4.23,0.5 3.63,2.4 -0.5,0.9 -1,2.6 -2,1.9 -0.79,-0.9 -2.38,-2.9 -2.89,-3 -0.58,0 -0.5,0.8 -0.5,1.1 0.5,0.4 1.42,1.9 1.93,2.5 0.75,0.9 0.96,2.4 -0.42,3 -1.26,0.6 -2.6,0 -2.6,-0.9 0,-1 -0.58,-4 -1.08,-4 -0.5,0 -0.5,0.8 -0.5,1.6 0,1.8 1,3.2 0.92,4.1 0,0.9 -0.51,1.8 -1.93,1.8 -1.51,0 -1.67,-0.9 -1.84,-1.8 0,-0.9 1,-2.3 0.84,-4.1 0,-0.8 0,-1.6 -0.42,-1.6 -0.59,0 -1.26,3 -1.17,4 0,0.7 -1.26,1.5 -2.51,0.9 -1.34,-0.6 -1.09,-2.1 -0.5,-3 0.58,-0.6 1.58,-2.1 1.92,-2.5 0,-0.5 0.5,-1.2 -0.42,-1.1 -0.58,0 -2.09,2.1 -3.01,3 -0.84,0.7 -1.42,-1 -1.84,-1.9 -0.67,-1.9 2.51,-1.9 3.51,-2.4 m -2.34,27.9 c -0.67,-5.6 2.76,-9.2 7.28,-9.2 4.52,0 7.87,3.6 7.37,9.2 4.9,-1.4 11.5,1.1 9.9,9.6 5.7,-1.9 10,1.1 10.3,5.7 -12.5,13.1 -24.39,20.4 -27.82,22.4 -3.43,-2 -15.06,-9.1 -27.36,-21.9 0,-5 4.52,-8.2 10.37,-6.2 -1.59,-8.5 5.02,-11 9.96,-9.6 m -9.37,-24.9 c -0.75,5.3 -6.78,6.7 -9.54,5.7 1,5 -1.84,10.3 -9.24,9.5 0.46,3.6 -0.46,7.8 -5.85,8.9 C 39.86,135.2 29.9,112.1 29.44,82.28 c 0,0 0,0 0,0 h 1.33 c 3.14,0.5 7.75,2.93 7.05,9.45 4.52,-0.41 10.38,0.67 9.5,9.37 6.59,-0.5 10.43,2.2 9.69,9.6 5.56,-0.5 10.25,1.7 9.5,9.1 6.19,0 10.37,3.1 9.7,8.4 M 61.9,95 c 0,0.92 -0.41,1 -1.33,-0.42 -1.01,-1.34 0,-1.51 0.92,-1.59 1,0 0.5,0.92 0.5,1.92 m 7.53,-1.84 c 1.09,0 1.92,0.5 0.92,1.59 -1.01,1.34 -1.26,1.26 -1.34,0.5 0,-0.92 -0.67,-2 0.5,-1.92 m -2.01,0.5 c 0.51,1.68 1.51,4.1 3.1,4.94 1,0.5 4.27,0.58 3.6,2.42 -0.51,1 -1.09,2.7 -1.93,1.9 -0.83,-0.8 -2.34,-2.8 -2.93,-2.9 -0.67,0 -0.5,0.8 0,1 0.42,0.5 1.26,1.9 1.93,2.6 0.67,0.8 0.92,2.3 -0.5,2.9 -1.26,0.6 -2.6,0 -2.6,-0.8 0,-1.1 -0.5,-4 -1.09,-4 -0.5,0 -0.5,0.8 -0.5,1.6 0,1.7 1.01,3.1 0.84,4 0,0.9 -0.5,1.8 -1.84,1.8 -1.59,0 -1.76,-0.9 -1.93,-1.8 0,-0.9 1.01,-2.3 0.84,-4 0,-0.8 0,-1.6 -0.42,-1.6 -0.58,0 -1.25,2.9 -1.17,4 0,0.7 -1.25,1.4 -2.51,0.8 -1.37,-0.6 -1.2,-2.1 -0.5,-2.9 0.59,-0.7 1.59,-2.2 1.92,-2.6 0.51,-0.4 0.51,-1.17 0,-1 -0.58,0 -2.09,2.1 -2.96,2.9 -0.88,0.8 -1.47,-0.9 -1.89,-1.9 -0.69,-1.84 2.59,-1.92 3.52,-2.42 1.67,-0.84 2.84,-3.26 3.17,-4.94 0.42,-2.17 0.84,-3.09 1.93,-3.09 1.17,0 1.59,0.92 2.01,3.09 M 26.34,26.39 v 47.1 H 161.8 V 26.39 Z M 143.1,39.11 c 0.5,0 1,0 1.3,0 0.5,0 0.5,0 0.5,0.41 v 21 l -1.8,-1.5 c 0,0 0,-0.42 0,-0.42 V 39.36 c 0,0 0,0 0,-0.51 m 1.2,21.84 h -10.7 c 0,-0.58 -0.4,-1.09 -0.9,-1.42 h 9.6 c 0,0 0,0 0.4,0 z m -23.1,-21.5 c 0,0 0.8,-0.5 0.9,-0.5 0,0 0.5,0 0.5,0 v 0 c 2,0 4.2,0 6.1,0.83 1.7,0.67 2.9,1.76 2.9,3.85 h 0.7 c 0,-2.09 1.2,-3.18 3,-3.85 1.7,-0.67 4.1,-0.83 6,-0.83 v 0 c 0,0 0,0 0,0 0,0 0.5,0 0.6,0 0,0 0,0 0.4,0 0,0 0,0 0,0 v 19.16 c 0,0 0,0.5 -0.4,0.5 h -20.3 c 0,0 -0.5,0 -0.5,-0.5 z m 0.5,20.08 h 9.1 c -0.5,0.5 -0.9,0.84 -1,1.42 h -10.2 c 0,0 0,0 0,0 l 1.7,-1.5 c 0,0 0.5,0 0.5,0 m -2.5,-20 c 0,0 0,-0.5 0.4,-0.5 0.5,0 0.8,0 1.3,0 0,0 0,0 0,0.5 v 19.16 c 0,0 0,0 0,0.5 l -1.7,1.42 z m -12.2,-0.5 c 0,0 0.5,0 0.5,0.5 v 20.83 l -1.8,-1.42 c 0,0 0,0 0,-0.42 V 38.85 c 0,0 0,0 0,0 0.5,0 1,0 1.3,0 m 0,21.84 H 96.29 c 0,-0.58 -0.5,-1.09 -0.92,-1.42 h 9.53 c 0,0 0.5,0 0.5,0 z M 94.87,42.79 c 0,-1.76 0.92,-2.68 2.34,-3.27 1.42,-0.58 3.19,-0.75 4.79,-0.75 0.9,0 1.8,0 2.3,0 0,0 0.5,0 0.6,0 0,0 0,0 0.5,0 0,0 0,0 0,0 v 19.24 c 0,0 0,0.51 -0.5,0.51 H 94.87 Z m -10.96,-3.6 c 0,0 0,0 0.5,0 0,0 0.42,0 0.5,0 0.59,0 1.43,0 2.43,0 1.51,0 3.35,0 4.68,0.67 1.43,0.58 2.35,1.5 2.35,3.35 V 59.02 H 84.24 c 0,0 -0.41,0 -0.41,-0.5 z m 0.5,20.08 h 8.95 c -0.41,0.42 -0.83,0.84 -0.83,1.42 H 82.24 c 0,0 0,0 0,0 l 1.84,-1.5 c 0,0 0.41,0 0.41,0 M 81.4,39.52 c 0,0 0,-0.5 0.5,-0.5 0.42,0 0.75,0 1.26,0 0,0 0,0 0,0 v 19.25 c 0,0 0,0 0,0.5 l -1.68,1.42 z m -13.47,-0.5 c 0.5,0 0.92,0 1.25,0 0.51,0 0.51,0 0.51,0.5 v 20.92 l -1.76,-1.42 c 0,0 0,-0.5 0,-0.5 V 39.27 c 0,0 0,0 0,0 m 1.34,21.76 H 58.43 c 0,-0.59 -0.46,-1.09 -0.87,-1.43 h 9.61 c 0,0 0.42,0 0.42,0 z M 57.05,43.21 c 0,-1.85 0.92,-2.77 2.34,-3.35 1.43,-0.59 3.27,-0.67 4.77,-0.67 0.92,0 1.84,0 2.35,0 0,0 0.5,0 0.66,0 0,0 0,0 0,0 0,0 0,0 0,0 v 19.16 c 0,0 0,0.5 -0.5,0.5 H 56.59 Z M 46.08,39.52 c 0,0 0,0 0.46,0 0,0 0.46,0 0.5,0 0.61,0 1.43,0 2.45,0 1.52,0 3.32,0 4.7,0.67 1.39,0.67 2.31,1.59 2.31,3.35 V 59.35 H 46.36 c 0,0 -0.46,0 -0.46,-0.41 z m 0.46,20.08 h 8.99 c -0.5,0.51 -0.83,0.84 -0.88,1.43 H 44.37 c 0,0 0,0 0,0 l 1.8,-1.51 c 0,0 0.46,0 0.51,0 m -2.58,-20 c 0,0 0,-0.41 0.46,-0.41 0.46,0 0.78,0 1.25,0 0,0 0,0 0,0 v 19.24 c 0,0 0,0 0,0.42 l -1.71,1.42 z m -2.26,23.01 c -0.46,0 -0.6,-0.5 -0.6,-0.67 v -3.09 c -0.88,0 -1.57,-0.67 -1.57,-1.34 0,-0.59 0.69,-1.17 1.57,-1.34 V 45.88 c -0.88,0 -1.57,-0.67 -1.57,-1.25 0,-0.76 0.69,-1.26 1.57,-1.34 v -4.02 c 0,-0.5 0.46,-0.58 0.6,-0.58 l 1.8,0.42 c 0,0 0,0.5 0,0.5 v 21 c 0,0.67 0.5,1.09 1.05,1.09 h 10.29 c 0,0.41 0,0.58 0.46,0.83 z m 15.54,0 h -1.21 c -0.46,-0.5 -0.78,-0.75 -0.78,-1.25 0,-0.76 0.6,-1.42 1.38,-1.42 0.74,0 1.39,0.66 1.39,1.42 0,0.5 -0.46,1 -0.78,1.25 m 16.32,-5.1 c 0,0.67 -0.67,1.17 -1.5,1.34 v 3.09 c 0,0.51 -0.51,0.67 -0.67,0.67 H 58.34 c 0,-0.5 0.43,-0.58 0.43,-0.92 H 69.6 c 0.59,0 1.09,-0.42 1.09,-1 V 39.52 c 0,0 0,-0.41 0,-0.58 h 1.17 c 0.42,0 0.59,0.42 0.59,0.58 v 4.1 c 0.83,0 1.59,0.59 1.59,1.26 0,0.67 -0.76,1.17 -1.59,1.25 v 10.21 c 0.83,0 1.59,0.67 1.59,1.34 m 5.69,5.02 c -0.51,0 -0.59,-0.42 -0.59,-0.59 v -3.09 c -0.92,0 -1.51,-0.67 -1.51,-1.34 0,-0.67 0.59,-1.25 1.51,-1.34 V 45.88 c -0.92,0 -1.51,-0.67 -1.51,-1.25 0,-0.76 0.59,-1.26 1.51,-1.34 v -4.02 c 0,-0.5 0,-0.58 0.59,-0.58 l 1.75,0.42 c 0,0 0,0.5 0,0.5 v 21 c 0,0.67 0.5,1.09 1.09,1.09 h 10.21 c 0,0.41 0,0.58 0.5,0.83 z m 15.56,0 h -1.26 c -0.42,-0.42 -0.75,-0.67 -0.75,-1.25 0,-0.67 0.59,-1.34 1.34,-1.34 0.84,0 1.42,0.67 1.42,1.34 0,0.58 -0.5,1.08 -0.75,1.25 m 16.31,-5.02 c 0,0.67 -0.7,1.17 -1.6,1.34 v 3.09 c 0,0.51 -0.5,0.59 -0.6,0.59 H 96.29 c 0,-0.42 0.42,-0.5 0.42,-0.84 h 10.79 c 0.6,0 1.1,-0.5 1.1,-1 V 39.77 c 0,0 0,-0.5 0,-0.58 h 1.1 c 0.5,0 0.6,0.42 0.6,0.58 v 4.02 c 0.9,0 1.6,0.67 1.6,1.34 0,0.59 -0.7,1.17 -1.6,1.25 v 10.21 c 0.9,0 1.6,0.67 1.6,1.34 m 5.7,5.02 c -0.5,0 -0.6,-0.42 -0.6,-0.58 v -3.18 c -0.9,0 -1.5,-0.59 -1.5,-1.26 0,-0.67 0.6,-1.25 1.5,-1.34 V 45.88 c -0.9,0 -1.5,-0.67 -1.5,-1.25 0,-0.76 0.6,-1.26 1.5,-1.34 v -4.02 c 0,-0.5 0.5,-0.58 0.6,-0.58 l 1.8,0.42 c 0,0 0,0.5 0,0.5 v 21 c 0,0.58 0.5,1 1,1 h 10.3 c 0,0.5 0,0.67 0.4,0.92 z m 15.5,0 h -1.2 c -0.5,-0.42 -0.8,-0.67 -0.8,-1.25 0,-0.76 0.7,-1.34 1.4,-1.34 0.8,0 1.4,0.58 1.4,1.34 0,0.58 -0.5,1 -0.8,1.25 m 16.3,-5.02 c 0,0.67 -0.6,1.17 -1.6,1.26 v 3.18 c 0,0.41 0,0.58 -0.5,0.58 h -13.2 c 0,-0.42 0.5,-0.58 0.5,-0.92 h 10.8 c 0.6,0 1.1,-0.5 1.1,-1 v -21 c 0,0 0,-0.51 0,-0.67 h 1.1 c 0.5,0 0.6,0.5 0.6,0.67 v 4.01 c 0.9,0 1.5,0.59 1.5,1.34 0,0.59 -0.6,1.17 -1.5,1.26 v 10.2 c 0.9,0 1.5,0.67 1.5,1.34 M 63.49,54.5 c -0.67,0 -0.83,0 -0.83,-0.75 V 50.4 c 1,0 1.5,0.42 1.59,2.09 h 0.5 v -4.68 h -0.5 c 0,1.75 -0.59,2.09 -1.59,2.09 v -4.02 c 0,-0.5 0,-0.67 0.75,-0.67 1.34,0 2.09,0.51 2.26,2.43 v 0 -2.85 H 59.9 v 0.42 c 0.5,0 0.83,0 0.83,1.01 v 6.77 c 0,0.84 -0.42,0.84 -0.83,1.01 v 0.42 h 5.94 l 0.41,-2.93 H 65.84 C 65.17,53.66 64.16,54 63.16,54 m 74.54,-0.42 c 0.4,0 0.8,0.42 1.7,0.42 1.9,0 2.5,-1.67 2.5,-2.93 0,-1.51 -0.8,-2.34 -1.1,-2.51 l -1.5,-1.09 c -0.8,-0.5 -1,-0.83 -1,-1.59 0,-0.92 0.6,-1.34 1.1,-1.34 1.2,0 1.7,1.59 2,2.6 h 0.4 v -3.1 h -0.4 c 0,0.5 0,0.5 -0.5,0.5 -0.4,0 -0.8,-0.5 -1.6,-0.5 -1.9,0 -2.3,1.93 -2.3,2.76 0,0.59 0,1.84 1.8,2.93 l 0.7,0.5 c 0.6,0.42 1.1,0.76 1.1,1.68 0,0 0,1.59 -1.2,1.59 -1.3,0 -1.9,-1.59 -2.1,-3.02 h -0.4 v 3.43 h 0.4 c 0,0 0,-0.41 0.5,-0.41 m -89.55,-7.62 2.58,8.37 h 0.46 l 2.31,-8.2 c 0.46,-0.67 0.46,-1 0.92,-1.09 v -0.42 h -2.17 v 0.42 c 0.55,0 0.88,0 0.88,0.59 0,0.5 0,0.67 0,1 l -1.34,4.6 -1.29,-4.43 c 0,-0.42 -0.46,-0.92 -0.46,-1.17 0,-0.5 0.46,-0.5 0.87,-0.59 V 44.54 H 47.6 v 0.42 c 0.46,0 0.6,0 0.87,0.92 m 40.46,7.7 c -0.67,0 -0.84,0 -0.84,-1.25 v -2.77 h 0.42 L 90.6,54 h 2.09 v -0.5 c 0,0 -0.5,0 -0.5,-0.42 l -2.01,-4.02 c 0.59,0 1.59,-0.67 1.59,-2.34 0,-2.43 -2.17,-2.51 -2.84,-2.51 h -3.26 v 0.5 c 0.58,0 0.83,0 0.83,1.26 v 6.19 c 0,1.09 0,1.09 -0.83,1.25 v 0.42 h 3.43 z m -0.84,-8.03 c 0,-0.42 0,-0.59 0.59,-0.59 0.83,0 1.25,0.67 1.25,2.01 0,1.84 -0.5,2.18 -1.84,2.18 z m 36.31,-0.59 v 7.37 c 0,1.17 0,1.17 -1,1.25 v 0.5 h 3.7 v -0.5 c -0.8,0 -1,0 -1,-1.25 v -7.37 c 0.7,0 1.7,0 1.9,2.34 h 0.5 V 44.54 H 122 v 2.76 h 0.5 c 0,-2.17 1.2,-2.25 1.9,-2.34 m 6.1,8.62 c -0.4,0 -0.8,0 -0.8,-0.59 0,0 0,-0.83 0.5,-1.84 h 2.2 c 0,0.42 0.5,1.51 0.5,1.93 0,0.42 0,0.42 -0.8,0.5 v 0.5 h 3.3 v -0.5 c -0.5,0 -0.7,-0.42 -1.1,-1.92 L 132,44.29 h -0.5 l -2.2,7.62 c -0.5,1.08 -0.5,1.59 -1,1.67 v 0.5 h 2 z m 0.8,-6.36 1,3.43 h -2 z M 98.05,44.88 c 0.5,0 0.92,0 0.92,1 v 6.7 c 0,0.92 -0.42,0.92 -0.92,1 v 0.5 h 3.55 v -0.5 c -0.5,0 -1,0 -1,-1 v -6.7 c 0,-0.92 0.5,-0.92 1,-1 v -0.42 h -3.55 z m 0,0" style="stroke-width:1"></path>
    <path class="only-dark-background" style="display:none" d="M 22,22 V 80.05 C 22.19,163.1 90.49,199 90.94,199 l 1.05,0.5 2.03,1.1 3.14,-1.6 C 97.61,198.8 166.1,163.1 166.1,80.05 V 22 Z m 4.37,4.43 H 161.8 V 73.52 H 26.37 Z m 15.52,12.22 c -0.15,0 -0.62,0.15 -0.62,0.6 v 4.05 c -0.88,0.1 -1.56,0.6 -1.56,1.35 0,0.6 0.68,1.2 1.56,1.2 v 10.28 c -0.88,0.14 -1.56,0.75 -1.56,1.27 0,0.67 0.68,1.35 1.56,1.35 v 3.15 c 0,0.15 0.14,0.6 0.62,0.6 H 55.47 C 55.02,62.27 55.02,62.13 55.02,61.68 H 44.74 c -0.6,0 -1.05,-0.38 -1.05,-1.05 v -21 -0.53 z m 37.8,0 c -0.53,0 -0.53,0.15 -0.53,0.6 v 4.05 c -0.97,0.1 -1.5,0.6 -1.5,1.35 0,0.6 0.53,1.2 1.5,1.2 v 10.5 c -0.97,0.1 -1.5,0.67 -1.5,1.35 0,0.68 0.53,1.35 1.5,1.35 v 3.08 c 0,0.15 0.1,0.6 0.53,0.6 L 93.26,62.5 c -0.52,-0.22 -0.52,-0.37 -0.52,-0.82 h -10.2 c -0.52,0 -1.05,-0.38 -1.05,-1.05 v -0.45 l -0.1,-20.63 c 0,0 0,-0.15 0.1,-0.3 V 39.1 Z m 1.8,0.6 v 0.38 20.55 l 1.65,-1.43 V 58.3 39.02 h -1.28 c -0.22,0 -0.3,0.1 -0.37,0.23 z m 25.61,-0.6 v 0.23 h -1.2 v 19.27 0.45 l 1.7,1.42 V 39.18 c 0,-0.53 -0.5,-0.53 -0.5,-0.53 z m 10.5,0 c -0.1,0 -0.6,0.15 -0.6,0.6 v 4.05 c -0.9,0.1 -1.5,0.6 -1.5,1.35 0,0.6 0.6,1.2 1.5,1.2 v 10.73 c -0.9,0.1 -1.5,0.67 -1.5,1.35 0,0.67 0.6,1.27 1.5,1.27 v 3.15 c 0,0.15 0.1,0.6 0.6,0.6 l 13.5,-0.45 c -0.4,-0.23 -0.4,-0.37 -0.4,-0.9 h -10.3 c -0.5,0 -1,-0.37 -1,-0.97 v -0.45 l -0.1,0.1 v -21.1 c 0,0 0,0 0,-0.1 z m 1.7,0.45 h 0.1 v 0.53 20.55 l 1.5,-1.36 V 58.38 39.17 38.65 h -1.2 c -0.3,0 -0.3,0.3 -0.4,0.45 z m 2.8,-0.45 c -0.1,0 -0.9,0.53 -0.9,0.53 l -0.1,18.67 c 0,0.53 0.4,0.53 0.4,0.53 h 20.4 c 0.4,0 0.4,-0.53 0.4,-0.53 v -19.2 h -0.4 -0.6 c -1.9,0 -4.2,0.23 -6,0.9 -1.8,0.67 -3,1.72 -3,3.83 h -0.7 c 0,-2.11 -1.1,-3.15 -2.9,-3.83 -1.8,-0.9 -4.2,-0.9 -6.1,-0.9 z M 102,38.8 c -1.6,0 -3.34,0.15 -4.76,0.75 -1.43,0.52 -2.4,1.5 -2.4,3.22 v 15.75 h 10.06 c 0.5,0 0.5,-0.52 0.5,-0.52 V 38.8 h -0.5 -0.6 z m -31.31,0.15 v 0.6 21.08 c 0,0.6 -0.53,0.97 -1.13,0.97 H 58.84 c 0,0.38 -0.45,0.45 -0.45,0.9 h 13.13 c 0.14,0 0.67,-0.15 0.67,-0.6 v -3.15 c 0.83,-0.15 1.5,-0.67 1.5,-1.35 l 0.38,0.3 c 0,-0.68 -0.75,-1.35 -1.65,-1.35 v -10.2 c 0.9,-0.1 1.65,-0.6 1.65,-1.27 0,-0.68 -0.75,-1.28 -1.65,-1.28 v -4.05 c 0,-0.23 -0.15,-0.6 -0.53,-0.6 z m -2.78,0.1 v 0.23 19.27 0.53 l 1.8,1.42 V 39.55 c 0,-0.53 0,-0.53 -0.52,-0.53 z m -23.32,0.1 c -0.45,0 -0.45,0.45 -0.45,0.45 V 60.23 L 45.87,58.8 V 58.38 39.1 Z m 98.51,0 v 0.23 19.27 0.45 l 1.8,1.5 v -21 c 0,-0.45 0,-0.45 -0.5,-0.45 z m -78.93,0.1 c -1.5,0 -3.38,0.1 -4.8,0.67 -1.35,0.6 -2.25,1.5 -2.25,3.38 l -0.53,15.6 h 10.05 c 0.52,0 0.52,-0.45 0.52,-0.45 v -19.2 h -0.67 z m 19.72,0 -0.1,19.35 c 0,0.52 0.45,0.52 0.45,0.52 H 94.39 V 43.23 c 0,-1.88 -0.97,-2.78 -2.4,-3.38 -1.27,-0.67 -3.15,-0.67 -4.65,-0.67 h -2.4 -0.52 z m 24.71,0 v 0.6 21.07 c 0,0.53 -0.5,1.05 -1.1,1.05 H 96.72 c 0,0.3 -0.45,0.38 -0.45,0.83 h 13.13 c 0.1,0 0.6,-0.1 0.6,-0.6 v -3.08 c 1,-0.22 1.6,-0.67 1.6,-1.35 l 0.3,0.23 c 0,-0.68 -0.7,-1.35 -1.6,-1.35 v -10.2 c 0.9,-0.1 1.6,-0.68 1.6,-1.28 0,-0.67 -0.7,-1.27 -1.6,-1.27 v -4.05 c 0,-0.15 -0.1,-0.6 -0.6,-0.6 z m 37.9,0.15 V 40 61 c 0,0.52 -0.5,1.05 -1.1,1.05 h -10.8 c 0,0.3 -0.5,0.45 -0.5,0.9 h 13.2 c 0.6,0 0.6,-0.15 0.6,-0.6 V 59.2 c 0.9,-0.1 1.5,-0.6 1.5,-1.27 l 0.3,0.22 c 0,-0.6 -0.6,-1.27 -1.5,-1.27 V 46.6 c 0.9,-0.1 1.5,-0.6 1.5,-1.2 0,-0.75 -0.6,-1.35 -1.5,-1.35 V 40 c 0,-0.15 -0.1,-0.67 -0.6,-0.67 z M 46.09,39.55 45.94,58.9 c 0,0.45 0.45,0.45 0.45,0.45 H 56.52 V 43.53 c 0,-1.73 -0.9,-2.7 -2.33,-3.3 -1.35,-0.68 -3.15,-0.68 -4.65,-0.68 h -2.47 -0.53 z m 93.21,4.5 c 0.8,0 1.1,0.53 1.6,0.53 0.5,0 0.5,0 0.5,-0.53 h 0.4 v 3.08 h -0.4 c -0.3,-0.98 -0.8,-2.55 -2,-2.55 -0.5,0 -1.1,0.37 -1.1,1.27 0,0.75 0.2,1.13 1,1.65 l 1.5,1.05 c 0.3,0.15 1.1,1.05 1.1,2.55 0,1.2 -0.6,2.92 -2.5,2.92 -0.9,0 -1.3,-0.45 -1.7,-0.45 l 0.1,-0.1 c -0.5,0 -0.5,0.45 -0.5,0.45 h -0.5 V 50.5 h 0.5 c 0.1,1.42 0.8,3 2.1,3 1.3,0 1.3,-1.58 1.3,-1.58 0,-0.97 -0.6,-1.27 -1.2,-1.72 l -0.7,-0.45 c -1.7,-1.13 -1.7,-2.33 -1.7,-2.93 0,-0.82 0.3,-2.77 2.2,-2.77 z M 85.69,44.2 h 3.23 c 0.67,0 2.85,0.1 2.85,2.55 0,1.65 -0.98,2.33 -1.58,2.33 l 2.03,3.97 c 0,0.45 0.45,0.45 0.45,0.45 v 0.53 h -2.1 L 88.54,49.6 h -0.45 v 2.7 c 0,1.28 0.15,1.28 0.82,1.28 l 0.15,0.22 h -3.37 v -0.37 c 0.82,-0.15 0.82,-0.15 0.82,-1.28 V 46 c 0,-1.27 -0.3,-1.27 -0.82,-1.27 z m 45.81,0.1 h 0.5 l 2.3,7.35 c 0.4,1.5 0.6,1.95 1,1.95 v 0.52 h -3.2 V 53.6 c 0.8,-0.1 0.8,-0.1 0.8,-0.53 0,-0.37 -0.5,-1.5 -0.5,-1.87 h -2.2 c -0.6,0.97 -0.6,1.8 -0.6,1.8 0,0.6 0.5,0.6 0.9,0.6 l -0.2,0.52 h -1.9 V 53.6 c 0.4,-0.1 0.4,-0.6 0.9,-1.65 z m -33.43,0.15 h 3.63 v 0.45 c -0.6,0.1 -1.1,0.1 -1.1,0.97 v 6.75 c 0,0.98 0.5,0.98 1.1,0.98 v 0.52 H 98.07 V 53.6 c 0.45,-0.1 0.89,-0.1 0.89,-0.98 v -6.75 c 0,-0.97 -0.44,-0.97 -0.89,-0.97 z m -50.4,0.15 h 3.37 v 0.37 c -0.37,0.1 -0.9,0.1 -0.9,0.6 0,0.23 0.53,0.75 0.53,1.2 l 1.27,4.43 1.35,-4.65 v -0.98 c 0,-0.6 -0.37,-0.6 -0.9,-0.6 V 44.6 h 2.18 v 0.37 c -0.45,0.1 -0.45,0.45 -0.9,1.13 l -2.33,8.17 h -0.45 l -2.62,-8.4 h 0.22 c -0.22,-0.9 -0.37,-0.9 -0.82,-0.9 z m 74.33,0 h 6.5 v 2.7 H 128 c -0.2,-2.33 -1.1,-2.33 -1.9,-2.33 v 7.35 c 0,1.28 0.2,1.28 1,1.28 v 0.52 h -3.7 V 53.6 c 1,-0.1 1,-0.1 1,-1.28 v -7.35 c -0.7,0.1 -1.9,0.15 -1.9,2.33 H 122 Z m -62.11,0.2 h 5.77 v 2.85 c -0.14,-1.95 -0.89,-2.4 -2.25,-2.4 -0.75,0 -0.75,0.15 -0.75,0.6 v 4.05 c 0.98,0 1.58,-0.3 1.58,-2.1 h 0.52 v 4.73 h -0.52 c -0.1,-1.73 -0.6,-2.1 -1.58,-2.1 v 3.3 c 0,0.45 0.1,0.6 0.16,0.67 h 0.59 l -0.22,-0.38 c 0.97,0 1.95,-0.37 2.62,-2.54 h 0.45 l -0.45,2.92 h -2.4 l 0.1,0.1 c -0.3,0 -0.52,0 -0.67,-0.1 h -2.93 v -0.38 c 0.45,-0.22 0.82,-0.22 0.82,-1.04 v -6.75 c 0,-0.98 -0.3,-0.98 -0.82,-0.98 z m 28.8,0.15 c -0.6,0 -0.6,0.15 -0.6,0.6 v 3.6 c 1.35,0 1.87,-0.37 1.87,-2.17 0,-1.35 -0.45,-2.03 -1.27,-2.03 z m 42.61,2.25 -1.1,3.45 h 2.1 z m -47.26,12 -1.8,1.5 h 10.27 c 0,-0.6 0.45,-0.97 0.83,-1.42 h -8.93 l 0.1,-0.1 z m 37.26,0 -1.6,1.5 h 10.2 c 0,-0.6 0.3,-0.9 0.9,-1.42 h -9.1 l 0.1,-0.1 z m -25.94,0.1 c 0.45,0.3 0.9,0.82 0.9,1.42 h 10.84 l -1.7,-1.42 h -0.5 z m 37.34,0 c 0.5,0.3 0.9,0.82 0.9,1.42 h 10.7 l -1.5,-1.42 h -0.5 z m -86.46,0.2 -1.8,1.5 h 10.27 c 0,-0.52 0.38,-0.9 0.83,-1.42 h -9 l 0.15,-0.1 z m 11.32,0.1 c 0.45,0.37 0.9,0.9 0.9,1.42 h 10.8 L 67.61,59.6 h -0.45 z m -0.75,0.3 c -0.82,0 -1.42,0.67 -1.42,1.42 0,0.45 0.37,0.75 0.82,1.2 h 1.2 c 0.3,-0.22 0.75,-0.75 0.75,-1.2 0,-0.75 -0.6,-1.42 -1.35,-1.42 z m 37.8,0.22 c -0.75,0 -1.35,0.68 -1.35,1.35 0,0.6 0.38,0.83 0.75,1.28 h 1.28 c 0.22,-0.23 0.75,-0.68 0.75,-1.28 0,-0.67 -0.6,-1.35 -1.43,-1.35 z m 37.89,0.23 c -0.8,0 -1.4,0.6 -1.4,1.35 0,0.6 0.3,0.82 0.9,1.27 h 1.1 c 0.4,-0.22 0.8,-0.67 0.8,-1.27 0,-0.75 -0.7,-1.35 -1.4,-1.35 z M 26.37,77.87 h 42.82 c -0.9,1.28 -1.8,2.86 -1.8,4.43 -0.6,4.35 1.43,8.85 9.52,9.38 0.1,6.59 1.73,9.42 9.98,9.42 -0.68,6.9 3.07,9.2 6.98,9.2 3.9,0 7.53,-2.3 6.83,-9.2 8.3,-0.2 10,-2.83 10,-9.42 8.1,-0.46 10.2,-5.03 9.5,-9.38 -0.2,-1.58 -0.8,-3.15 -1.7,-4.43 h 43.3 v 2.18 C 161.7,160.5 95.14,195.2 95.14,195.2 l -1.12,0.5 -0.9,-0.5 C 92.96,195.1 26.37,160.5 26.37,80.05 Z m 129.43,4.21 c -3.1,0.37 -7.7,3 -7,9.52 -4.5,-0.37 -10.4,0.6 -9.5,9.3 -6.7,-0.3 -10.5,2.2 -9.7,9.6 -5.5,-0.5 -10.2,1.7 -9.5,9.1 -6.1,0 -10.3,3.2 -9.7,8.4 0.8,5.3 6.8,6.7 9.6,5.8 -1,5 1.9,10.2 9.2,9.3 -0.5,3.6 0.4,7.6 5.3,8.9 11.9,-17.2 21.8,-40.2 22.3,-69.93 z M 29.47,82.3 c 0.47,29.8 10.42,52.9 22.32,70 5.4,-1.1 6.3,-5.3 5.85,-8.9 7.35,0.8 10.2,-4.5 9.23,-9.5 2.7,1 8.77,-0.4 9.52,-5.7 h -0.15 c 0.68,-5.3 -3.52,-8.3 -9.75,-8.3 0.75,-7.5 -3.9,-9.7 -9.45,-9.2 0.75,-7.4 -3.07,-10.1 -9.67,-9.6 0.9,-8.68 -5.03,-9.8 -9.51,-9.35 0.69,-6.53 -3.92,-9 -7.05,-9.45 z m 90.93,8.1 c -1.1,0.1 -1.5,0.9 -1.9,3.08 -0.3,1.72 -1.5,4.12 -3.1,5.02 H 115 c -1,0.53 -4.2,0.53 -3.5,2.4 0.4,1 1,2.6 1.9,1.9 0.9,-0.8 2.4,-2.95 2.9,-2.95 0.9,-0.15 0.9,0.65 0.5,1.05 -0.4,0.4 -1.3,1.9 -1.9,2.6 -0.6,0.8 -0.9,2.3 0.4,2.9 1.3,0.6 2.6,-0.2 2.6,-0.8 -0.1,-1.1 0.6,-4.1 1.1,-4.1 0.4,0 0.4,0.8 0.4,1.7 0.3,1.7 -0.8,3.1 -0.8,4 0.2,0.9 0.4,1.8 1.9,1.8 1.4,0 1.8,-0.9 1.8,-1.8 0.2,-0.9 -0.8,-2.3 -0.8,-4 0,-0.9 0,-1.7 0.5,-1.7 0.5,0 1,3 1,4.1 0,0.8 1.3,1.4 2.7,0.8 1.4,-0.6 1.2,-2.1 0.4,-2.9 -0.6,-0.7 -1.4,-2.1 -1.9,-2.6 -0.5,-0.3 -0.6,-1.05 0,-1.05 0.6,0.1 2.1,2.15 3,2.95 0.8,0.7 1.4,-0.9 1.9,-1.9 0.5,-1.87 -2.6,-1.87 -3.6,-2.4 -1.6,-0.9 -2.6,-3.3 -3.1,-5.02 -0.3,-2.18 -0.9,-3.08 -2,-3.08 z m -54.73,0.23 c -1.05,0 -1.5,0.97 -1.95,3.15 -0.3,1.65 -1.5,4.05 -3.15,4.87 -0.9,0.53 -4.2,0.6 -3.45,2.45 0.37,1 0.97,2.7 1.87,1.9 0.83,-0.8 2.33,-2.9 2.93,-2.9 0.52,-0.17 0.52,0.6 0,1 -0.38,0.4 -1.35,1.9 -1.95,2.6 -0.68,0.8 -0.83,2.4 0.52,2.9 1.28,0.6 2.48,-0.2 2.48,-0.8 -0.1,-1.1 0.6,-4 1.2,-4 0.45,0 0.45,0.8 0.45,1.6 0.15,1.7 -0.9,3 -0.9,3.9 0.22,1 0.37,1.9 1.95,1.9 1.35,0 1.87,-0.9 1.87,-1.9 0.15,-0.9 -0.9,-2.2 -0.9,-3.9 0,-0.8 0,-1.6 0.53,-1.6 0.6,0 1.12,2.9 1.12,4 0,0.8 1.28,1.4 2.55,0.8 1.43,-0.5 1.2,-2.1 0.53,-2.9 -0.68,-0.7 -1.5,-2.1 -1.95,-2.6 -0.45,-0.3 -0.68,-1 0,-1 0.6,0 2.1,2.1 2.92,2.9 0.83,0.7 1.43,-0.9 1.95,-1.9 0.68,-1.85 -2.62,-1.93 -3.6,-2.45 -1.57,-0.83 -2.62,-3.23 -3.07,-4.88 h 0.1 C 67.24,91.6 66.87,90.62 65.67,90.63 Z m 50.73,2.25 c -0.9,0.22 -2,0.37 -0.9,1.65 0.9,1.5 1.3,1.42 1.3,0.45 0.1,-0.98 0.7,-1.88 -0.4,-1.88 z m -54.93,0.15 c -0.9,0.1 -1.88,0.22 -0.9,1.57 0.9,1.43 1.35,1.35 1.35,0.38 l 0.1,-0.1 c 0,-0.97 0.53,-1.87 -0.52,-1.87 z m 8.02,0.1 0.1,0.15 c -1.13,-0.1 -0.45,0.98 -0.45,1.95 0.1,0.75 0.3,0.83 1.35,-0.52 0.97,-1.13 0.15,-1.58 -0.98,-1.58 z m 54.81,0.1 c -1,-0.1 -0.4,0.97 -0.4,1.87 0.1,0.75 0.3,0.9 1.3,-0.45 v 0.15 c 1.1,-1.12 0.3,-1.57 -0.9,-1.57 z M 93.94,117.1 c -1.2,0.1 -1.57,0.9 -2.02,3.1 -0.23,1.6 -1.5,4.1 -3.08,5 h -0.75 c -0.97,0.5 -4.2,0.5 -3.52,2.4 0.45,1 1.05,2.6 1.87,1.9 0.9,-0.8 2.4,-2.9 3,-2.9 0.9,-0.2 0.38,0.6 0.38,1 -0.3,0.4 -1.28,1.9 -1.88,2.6 -0.6,0.8 -0.82,2.3 0.45,2.9 1.28,0.7 2.55,-0.2 2.55,-0.8 -0.1,-1.1 0.6,-4.1 1.2,-4.1 0.38,0 0.38,0.8 0.38,1.6 0.15,1.9 -0.83,3.2 -0.83,4.1 0.15,0.9 0.3,1.7 1.88,1.7 1.42,0 1.87,-0.8 1.87,-1.7 0.1,-0.9 -0.9,-2.2 -0.9,-4.1 0,-0.8 0,-1.6 0.53,-1.6 0.45,0 1.05,3 1.05,4.1 0,0.8 1.35,1.5 2.62,0.8 1.46,-0.6 1.13,-2.1 0.38,-2.9 -0.45,-0.7 -1.43,-2.1 -1.88,-2.6 0,-0.3 -0.1,-1 0.45,-1 0.53,0 2.1,2.1 2.91,2.9 1,0.7 1.4,-0.9 2,-1.9 0.6,-1.9 -2.66,-1.9 -3.63,-2.4 -1.58,-0.9 -2.63,-3.4 -3.08,-5 -0.37,-2.2 -0.82,-3.1 -1.95,-3.1 z m -3.98,2.5 c -0.97,0.2 -1.94,0.3 -0.97,1.7 0.82,1.4 1.35,1.3 1.35,0.4 0,-0.9 0.52,-1.8 -0.52,-1.8 z m 7.73,0 0.1,0.3 c -1.06,-0.1 -0.45,0.9 -0.45,1.8 0.14,0.7 0.3,0.9 1.35,-0.4 0.97,-1.2 0.15,-1.7 -0.98,-1.7 z m 22.51,23.8 c -1.1,0.1 -1.5,1.1 -1.9,3.1 -0.4,1.7 -1.6,4.2 -3.1,5 -1,0.6 -4.2,0.6 -3.6,2.5 0.4,0.8 1,2.5 1.9,1.8 0.8,-0.8 2.3,-2.9 2.9,-2.9 0.9,-0.1 0.9,0.6 0.6,1.1 -0.4,0.3 -1.4,1.8 -2.1,2.5 -0.6,0.8 -0.7,2.3 0.6,3 1.2,0.6 2.5,-0.2 2.5,-0.9 -0.1,-0.9 0.5,-3.5 1,-3.9 -0.1,0 -0.2,0 -0.2,0 h 0.3 c 0,0 0,0 -0.1,0 0.3,0.2 0.3,0.8 0.3,1.5 0.1,1.8 -0.8,3.1 -0.8,4 0,0.9 0.3,1.8 1.8,1.8 1.3,0 1.8,-0.9 1.8,-1.8 0.2,-0.9 -0.8,-2.2 -0.8,-4 0,-0.8 0,-1.5 0.4,-1.5 0.6,0 1.2,2.9 1.2,3.9 -0.1,0.9 1.3,1.5 2.6,0.9 1.4,-0.7 1.1,-2.2 0.4,-3 -0.6,-0.7 -1.5,-2.1 -1.9,-2.5 -0.5,-0.4 -0.6,-1.1 0,-1.1 0.5,0.1 2,2.1 3,2.9 0.8,0.7 1.4,-1 1.8,-1.8 0.7,-1.9 -2.5,-2 -3.5,-2.5 -1.6,-0.8 -2.6,-3.3 -3.1,-5 -0.3,-2 -0.9,-3.1 -2,-3.1 z m -52.13,0.1 c -1.13,0.1 -1.5,1 -1.95,3.1 -0.3,1.7 -1.5,4.2 -3.15,5.1 h -0.23 c -0.97,0.4 -4.27,0.5 -3.6,2.4 0.45,0.9 0.98,2.5 1.95,1.8 0.83,-0.8 2.33,-2.9 2.93,-2.9 0.89,-0.1 0.44,0.6 0.44,1.1 -0.37,0.3 -1.42,1.8 -1.94,2.4 -0.6,1 -0.75,2.5 0.45,3.1 1.27,0.5 2.62,-0.3 2.62,-1 -0.1,-0.9 0.52,-3.8 1.05,-3.8 0.52,0 0.52,0.7 0.52,1.5 0.15,1.7 -0.89,3.2 -0.89,4.1 0.14,0.8 0.3,1.7 1.94,1.7 1.36,0 1.81,-0.9 1.81,-1.7 0.1,-0.9 -0.83,-2.4 -0.83,-4.1 0,-0.8 0,-1.5 0.38,-1.5 0.6,0 1.12,2.9 1.12,3.8 0,1 1.35,1.5 2.63,1 1.42,-0.6 1.2,-2.1 0.45,-3.1 -0.61,-0.6 -1.5,-1.9 -1.88,-2.4 -0.52,-0.4 -0.6,-1.1 0,-1.1 0.52,0.1 2.02,2.1 3,2.9 0.82,0.7 1.43,-0.9 1.8,-1.8 0.68,-1.9 -2.48,-2 -3.52,-2.4 -1.58,-0.9 -2.63,-3.4 -3.08,-5.1 -0.37,-2 -0.82,-3.1 -2.02,-3.1 z m 24.97,0.5 c -4.5,0 -7.95,3.5 -7.27,9.2 -4.95,-1.4 -11.55,0.9 -9.98,9.5 -5.85,-2 -10.35,1.3 -10.35,6.2 12.3,12.8 23.93,19.9 27.3,21.9 3.45,-2 15.36,-9.3 27.86,-22.4 -0.3,-4.6 -4.6,-7.6 -10.3,-5.7 1.6,-8.6 -5,-10.9 -9.9,-9.5 0.5,-5.7 -2.86,-9.2 -7.36,-9.2 z m 23.26,1.8 c -0.9,0.2 -2,0.3 -0.9,1.7 0.8,1.4 1.3,1.3 1.3,0.3 0,-0.9 0.6,-1.8 -0.5,-1.8 z m 7.9,0 0.1,0.2 c -1,0 -0.5,1 -0.5,1.8 0.1,0.8 0.4,1 1.3,-0.3 1.1,-1.2 0.2,-1.7 -0.9,-1.7 z M 63.94,146 c -1.05,0 -2.02,0.2 -1.05,1.5 0.9,1.5 1.35,1.4 1.35,0.4 0.1,-0.9 0.6,-1.8 -0.37,-1.8 z m 7.95,0 v 0.1 c -1.12,-0.1 -0.45,0.9 -0.45,1.8 0.1,0.9 0.3,1 1.35,-0.4 0.98,-1.2 0.1,-1.5 -0.9,-1.5 z"></path>
  </svg>