<svg xmlns="http://www.w3.org/2000/svg" viewBox="0 0 2560 900"><path d="M2260 612.5c-1-11.2-1-24.8-1-40.8v-56.6c0-27.2-8-48-21-62.7-14-14.8-34-22.1-60-22.1-8 0-18 .9-28 2.8-9 1.6-21 5.2-33 10.8l9 24.5c9-3.3 17-5.7 24-7.3 6-1.5 14-2 21-2 19 0 31 4.8 39 14.8s12 22.8 12 38.4v74.2s0 25.2 2 33.5c0 4.1 3 7.7 6 11.2 1 3.6 4 6.4 8 8.5h26c-1-6.8-2-16-4-27.2m-64-4.1c-9 4.5-18 6.8-26 6.8-11 0-19-3.1-24-9-7-6-9-13-9-21.3 0-3.7 1-7.3 1-10.9 1-3.6 4-7 6-9.9 3-3.1 8-5.9 14-8.3 5-2.2 12-4 21-5.4 5-.8 9-2.4 13-4.8 3-2.4 6-4.9 8-8.1 3-3.1 4-6 6-9.2 0-3.2 1-6 1-8.4-20 2.4-37 5.2-52 8.8-13 3.6-25 8-33 13.3-9 5.4-15 11.8-19 19-4 7.5-5 16.2-5 26.3 0 8 1 15.3 4 22.3 3 6.9 8 12.8 13 17.8 6 5.1 14 9.1 22 11.9 7 2.9 17 4.4 27 4.4s19-1.5 27-4.5c9-3.1 16-8.4 19-13.5 5-8.8 9-39.2 9-39.2-8 10.1-13 17.3-23 21.9m-966 4.1c-3-11.2-3-24.8-3-40.8v-56.6c0-27.2-7-48-21-62.7-14-14.8-34-22.1-59-22.1-10 0-19 .9-28 2.8-11 1.6-22 5.2-35 10.8l9 24.5c10-3.3 18-5.7 24-7.3 8-1.5 15-2 22-2 19 0 31 4.8 39 14.8s12 22.8 12 38.4v74.2s0 25.2 2 33.5c2 4.1 3 7.7 6 11.2 2 3.6 5 6.4 8 8.5h28c-3-6.8-4-16-4-27.2m-66-4.1c-9 4.5-18 6.8-27 6.8-10 0-18-3.1-24-9-6-6-9-13-9-21.3 0-3.7 1-7.3 1-10.9 2-3.6 4-7 7-9.9 4-3.1 8-5.9 13-8.3 6-2.2 12-4 22-5.4 5-.8 9-2.4 13-4.8 3-2.4 6-4.9 8-8.1 3-3.1 4-6 6-9.2 0-3.2 1-6 1-8.4-20 2.4-38 5.2-52 8.8-14 3.6-26 8-34 13.3-8 5.4-14 11.8-18 19-4 7.5-6 16.2-6 26.3 0 8 2 15.3 4 22.3 3 6.9 8 12.8 14 17.8 5 5.1 13 9.1 21 11.9 8 2.9 17 4.4 28 4.4 10 0 19-1.5 27-4.5 9-3.1 16-8.4 19-13.5 5-8.8 9-39.2 9-39.2-8 10.1-13 17.3-23 21.9m1166-174.1c4 4.5 6 9.3 9 14.5 1 5.2 3 11.1 4 17.5v6.9l4-6.9c4-10.3 12-18.4 21-25.1 10-6.4 20-9.7 31-9.7 5 0 12 1.2 20 3.2l-5 31.2c-4-1.2-8-1.9-11-2-3-.4-5-.4-8-.4-7 0-12 1.2-19 3.6-5 2.5-10 6.4-16 11.7-5 5.5-9 12.3-12 20.7-2 8.5-4 18.8-4 30.5v109.7h-36V503.9c0-12.3 0-24.4-1-37.1-1-12.4-3-23.2-5-32.5h28zm-268 205.4h-36v-301h36v301zm-113 0c-7-7.2-11-14.3-12-21.3-3-7-4-14.4-4-22.4V434.3h37v155.3c0 7.4 0 15.3 1 23.7 2 8.3 3 17.1 6 26.4h-28zm-106-56c0 9.3 0 16.8 4 22.7 4 5.8 12 8.6 20 8.6 4 0 6-.2 8-.9s4-1.3 8-2.1c8-1.9 15-2 22-.4 6 1.6 13 5.2 18 11-14 8.6-26 14.2-36 17-9 2.8-16 4.1-24 4.1s-16-.9-22-2.9c-8-2-14-5.5-18-10.6-6-5-10-11.6-14-19.7-2-8-4-18.3-4-30.8V434.3h38v149.4zm-136-77l76 133.1h-40l-60-107.1-32 34.3c0-4 0-8.4-2-13 0-4.8 0-9.7 2-14.9 0-5.2 2-10.4 4-15.5 2-5.2 4-9.7 8-14.1l64-75.2h44l-64 72.4zm-76 133h-36v-301h36v301zm-178 0l-72-205.4h40l50 160.1 4 10 2-10 50-160.1h38l-72 205.4h-40zm-94 0h-37l-72-205.4h39l50 160.1 3 10 3-10 36-96.9c4 3.2 6 7.2 8 12.4 2 4.9 4 10.4 5 16.4 0 6 1 12.1 0 18.7 0 6.4-1 12.8-3 19.2l-32 75.5zM986.4 474.4V351h37.6v288.7h-37.6V502.3H857.1c2.7-7.6 6.7-14.3 12-19.6 5.4-5.6 12-8.3 21.3-8.3h96zM803.8 351h37.3v288.7h-37.3V351zM629.2 211.4c-5.4 0-10.7 0-17.4 1.3-13.3 1.4-26.6 5.4-39.9 12H229c-52.8 0-92.3 42.7-87.9 95.1l19 228c4.4 52.6 51.2 95.5 104 95.5h160.3c3 21.3 4.4 35 18.6 45.3 12.9-10.3 15.6-24 18.2-45.3h162.6c53.4 0 100-42.9 104-95.5l9.4-109.4c4 3.5 9.3 5.5 15.9 4.7 10.7-1.6 18.7-11.6 17.4-22.8-1.4-8-6.7-14.4-14.7-16.5 10.7-22.3 14.7-47.5 10.7-73.2-9.4-69.9-69.3-119.2-137.3-119.2zm0 16c60 0 112 44 119.9 105.3 9.4 66-37.3 126.8-102.6 135.6-66.6 8.8-126.6-37.6-136-103.6-9.3-66.7 37.4-126.6 104-136 5.3 0 9.3 0 14.7-1.3zm18.6 53.3c-12 0-25.3 2.7-38.6 6.7-21.3 5.3-72 33.3-66.7 52 1.4 6.9 1.4-7.5 6.7-11.5 29.3-21.9 52-27.2 73.3-31.2 30.7-5.3 76-2.6 86.7 10.7 33.3 41.7-8 104.9-8 104.9s21.3-29.7 22.6-41.3c2.7-18.8 0-58.3-2.6-66.3 0-4-29.4-24-73.4-24zm-206.6 9.4h2.7c20-1.4 36 9.3 50.6 41.8-2.6 11.5-2.6 23.2 0 35.1 8 59.8 53.4 105.8 110.7 116.6 14.6 9.1 25.3 14 25.3 14s5.3 6-10.7 5.2c-14.6-.9-26.6-8.9-74.6 0-33.3 6.3-20 23.1-41.3 35.6 4-8.4 6.6-16.5 9.3-22.5 4-8.3 8-16.4 12-24.3-2.7 3.5-4 6.8-6.7 10.3l-1.3 2c-4 10.4-13.3 28.4-26.7 40l-1.3.4c-1.3 1.5-4 3.5-5.3 5.5-4 6.6-6.7 12.7-9.3 18.7-16 39.2-10.7 60.5-24 74.8-2 2.1-4.6 4.1-7.6 5.9-2.3-1.4-4.3-2.7-6-4.2-.6-.6-1.2-1.2-1.8-1.7-14.2-14.3-7.6-35.5-24.1-74.3-2.5-6.2-5.9-12.6-9.9-19.4l-.1-.2c-1.5-2-3.3-3.8-5.3-5.5-2-1.6-4-3.6-6-5.6v-.4c-.8-.7-1.4-1.2-2-2-.2-.3-.3-.4-.6-.4-.4-.8-1-1.5-1.4-2-.3-.4-.6-.7-.7-.8-.4-.7-.9-1.2-1.3-1.9-.3-.1-.6-.5-.7-.9-.4-.4-.8-1.1-1.3-1.6-.2-.4-.3-.8-.6-1.1l-1.2-1.7c-.1-.3-.2-.4-.5-.8-.4-.8-.8-1.2-1.2-2-.1 0-.1-.3-.3-.3-4.1-6.9-7.3-13.7-9.3-18.5-1.3-2-2.5-3.6-3.7-5.5-.4-.5-1-.9-1.2-1.6-1.1-1.6-2.2-3.2-3.2-4.5 3.6 7.3 8 15.3 12.5 23.6 1.7 5.2 4.3 12.5 7.9 20-18.7-13.2-8.6-30-38.7-33.1-48.8-4.9-59.2-.9-74.9 0-15.9.8-9.9-5.2-9.9-5.2s33.1-15.6 65.9-41.3c21.4-16.8 42.4-34.3 51.2-67.2 20-73.7 38.6-99 66.6-99zm-204.2 4c36.4 0 75.6 18.6 85.6 42.2 2.5 6 7.3 24.4 7.3 24.4s-8.4 11.1-9.2 14.4c-.5 3.6-43.2 90.8-123.3 25.1 0 0-26-32-15.2-73.1 1-3.2-1-11.7 1.5-14.4 13.2-13.3 32.8-18.6 53.3-18.6zm4.7 6.6c-30.3 0-50.1 14.7-50.8 16-1.5 6-3.7 33.6-1.7 46.8 1.2 8 16.2 28.7 16.2 28.7s-28.6-43.9-5.6-72.7c7.5-9.5 38.4-10.8 60.4-8.1 14.5 2.6 30.4 7.2 50.4 22.1 3.6 2.8 3.7 12.8 5.2 8 3.6-12.9-31.6-32.8-46.4-36.8-10-2.7-19.3-4-27.7-4zm375.5 5.3c-26.7 0-48 22.3-48 49 0 26.5 21.3 48.1 48 48.1 25.3 0 46.6-21.6 46.6-48.1 0-5.1-1.3-9.6-2.6-14-1.4.9-4 2.1-5.4 3.3-12 6.8-47.9 8.4-70.6-4.9-1.3-1.1 21.3-18.3 49.3-29.4-5.3-2.6-12-4-17.3-4zm-353.4 12.7c-5.7 0-10.9 1.5-15.7 4 17.3 7.9 31.3 18.3 30.1 18.8-14 8.4-36.5 8.3-46.4 4.4-.4 2-.7 4-.7 6.4 0 18.4 14.7 33.6 32.7 33.6 18.1 0 32.8-15.2 32.8-33.6 0-18.5-14.7-33.6-32.8-33.6zm488 93.6c4 .8 8 4.4 9.3 9.2 0 6-4 11.6-9.3 12.4-4 .4-8-1.2-10.6-4.4 3.9-5.5 7.9-11.2 10.6-17.2z"/></svg>