<svg xmlns="http://www.w3.org/2000/svg" viewBox="0 0 385.4 457.1"><path d="M319.3 32.79C305.3 25.63 290.8 22 276.1 22c-37.2 0-66.9 23.17-83.4 39.79C176.3 45.17 146.6 22 109.4 22c-14.71 0-29.26 3.63-43.2 10.79-33.84 17.38-49.06 52.68-42.84 99.31 2.95 22.1 16.84 45.7 36.7 70v88.6c0 7.6 6.17 13.8 13.78 13.8 7.6 0 13.75-6.2 13.75-13.8v-58.1c4.1 4.2 8.2 8.3 12.51 12.5v146.6c0 2.8 2.2 5 5 5s5-2.2 5-5V254.8c1.8 1.8 3.6 3.5 5.4 5.2v100.7c0 6.2 5.1 11.3 11.3 11.3 6.2 0 11.3-5.1 11.3-11.3V281c6.1 5.6 12.3 11.2 18.4 16.8 8.5 7.7 16.5 15 24.3 22.2l11.9 11 11.9-11c1.1-.9 2.1-1.9 3.2-2.9v113c0 2.8 2.2 5 5 5 2.7 0 5-2.2 5-5V308c1.9-1.8 3.8-3.6 5.8-5.4V380c0 4.2 3.4 7.5 7.5 7.5 4.2 0 7.5-3.3 7.5-7.5v-91c59-53.8 117.1-108.8 123.5-156.9 6.2-46.63-9-81.93-42.8-99.31zm8 94.71c-5 38-69.8 97-121.9 144.3-4.2 3.8-8.4 7.7-12.7 11.6-4.2-3.9-8.4-7.7-12.6-11.5C128 224.5 63.18 165.5 58.11 127.5c-1.91-14.4-1.27-26.8 1.91-37.13 3.74-12 11-20.7 22.19-26.4 8.98-4.59 18.09-6.91 27.19-6.91 38.6 0 68.8 41.21 69.1 41.61l14.2 19.83L207 98.67c.3-.4 30.5-41.61 69.1-41.61 9.1 0 18.2 2.32 27.1 6.91 11.2 5.8 18.5 14.4 22.2 26.4 3.2 10.33 3.9 22.73 1.9 37.13z"/></svg>