<svg xmlns="http://www.w3.org/2000/svg" viewBox="-376 253.3 89 89"><path d="M-304.8 289c-2.6-8.4-10.4-14.2-19.2-14.2-8.8 0-16.6 5.8-19.2 14.1-1.4-.5-2.9-.8-4.5-.8-6.3 0-11.6 4.3-13.1 10.3-5.6.2-10.3 4.1-11.5 9.6-.1.2 0 .5.2.7.2.2.4.3.7.3h35.6c-.2 1.5-1 9.3 9 12.3h.2c.1 0 .2 0 .3-.1.2-.1 5.6-2.3 7.4-7.2.6-1.6.8-3.3.5-5h25.9c.4 0 .8-.3.8-.7.2-1 .3-2 .3-2.9-.1-7.9-5.7-14.7-13.4-16.4zm-15.6 24.6c-1.4 3.8-5.4 5.8-6.4 6.3-9.4-3-7.7-10.4-7.7-10.6.2-.6.3-1.2.4-1.8.3-1.9.2-3.4 0-4.5 2.2 2 2.5 5.3 2.5 5.3 0 .3.2.5.4.6.2.1.5.1.7 0 2.4-1.3 2.1-4.2 1.6-5.5-.9-2.4-1.1-3.8-1.1-3.8-.1-2.8 1.1-4.7 2.3-5.9-1.9 6.7 2.6 9.9 2.7 10 .2.1.5.2.7.1.2-.1.4-.3.4-.6.2-1.8 1-3 1.9-3.8-1 3.6.7 6.4.8 6.4.3.6.5 1.1.7 1.7.1.3.2.5.2.8v.1c.1.3.1.5.2.8.3 1.5.2 3-.3 4.4zm27.1-6.2h-25.6c-.2-.8-.6-1.6-1-2.4-.1-.1-2.1-3.4.2-7.2.2-.3.1-.6-.1-.8-.2-.2-.5-.3-.8-.2-.2 0-3.3 1.1-4.4 4.8-1.2-1.4-2.7-4.5-.4-9.7.1-.3.1-.6-.2-.9-.2-.2-.6-.3-.9-.1-.2.1-5.3 2.7-5 8.8 0 .1.2 1.6 1.1 4.1 0 .1.6 1.7 0 2.8-.4-1.8-1.6-4.8-4.9-6.2-.3-.1-.6 0-.9.2-.2.2-.2.6-.1.9.1.1 1.3 2.1.5 5.8h-34.9c1.4-4.3 5.5-7.3 10.2-7.3h.1c.4 0 .8-.3.8-.7 1-5.6 5.9-9.7 11.6-9.7 1.5 0 3 .3 4.4.9.9.4 2.7 1.5 3.9 3.4.1.2.4.3.6.3.1 0 .1 0 .2-.1.3-.2.4-.6.2-.9-1-1.7-2.4-2.8-3.5-3.4 2.2-8 9.5-13.6 17.8-13.6 8 0 15.1 5.1 17.5 12.7-2.2 0-3.8.8-3.8.8-.3.1-.5.5-.3.8.1.3.5.5.8.3 0 0 2.2-.9 4.7-.5 7 1.5 12 7.7 12 14.9.3.9.3 1.6.2 2.2z"/></svg>