<svg xmlns="http://www.w3.org/2000/svg" viewBox="0 0 144 144" class="icon stroked icon-helpdesk icon-reception"><path fill="none" stroke="#666" stroke-width="2" class="long" d="M116.1 78.89v38.01H36.57V78.89m-8.73-6.14h88.26v6.13H27.84z"/><path fill="none" stroke="#666" stroke-width="2" class="short" d="M98.35 62.9l-.57 9.38m-21.5-9.38l.57 9.38m-7.46.24l-.23-9.09c0-7.55 6.73-12.79 12.1-12.79h12.11c5.05 0 12.23 5.71 12.13 12.79l-.2 9.21m-24.03-30.4a8.72 8.72 0 0 0 12.34 0 8.733 8.733 0 0 0 0-12.35 8.72 8.72 0 0 0-12.34 0 8.733 8.733 0 0 0 0 12.35z"/></svg>