<svg xmlns="http://www.w3.org/2000/svg" viewBox="0 0 635 207"><path d="M104.55 170.55V97.08s4.7-17.58-58.88 7.19c-.12.31-.12-67.94-.12-67.94l20.8-.12v43.73s58.2-22.94 58.2 17.38v73.23h-20zm11.8-107.88h-22c7.9-9.71 15.1-26.34 15.1-26.34h22.8s-3.9 10.84-15.9 26.34zM45.91 170.42v-41.84l20.94 20.91-20.94 20.93zM142.55 196H28.67C18.91 196 11 188.11 11 178.36V28.65C11 18.9 18.91 11 28.67 11h113.88c9.8 0 17.7 7.9 17.7 17.65v149.71c0 9.75-7.9 17.64-17.7 17.64zm11.6-166.35c0-6.96-5.6-12.6-12.6-12.6H29.67c-6.97 0-12.6 5.64-12.6 12.6v147.7c0 6.96 5.63 12.61 12.6 12.61h111.88c7 0 12.6-5.65 12.6-12.61V29.65zm88.8 126.43V97.97c0-4.09-3-5.86-6.5-5.86-7.1 0-16 1.77-24 5.31v58.66h-16.4V48.2h16.4v35.59c7.7-2.86 17-5.32 26.3-5.32 14.9 0 20.4 9.14 20.4 21.68v55.93h-16.2zm46.8-35.18c.5 19.48 4.3 23.31 16.4 23.31 9.4 0 20-3.14 28.2-6.29l2.7 12.28c-8.7 3.96-19.3 7.77-32 7.77-27.3 0-31.5-14.99-31.5-38.87 0-13.08.9-24.94 4.1-35.86 8.1-3.13 19.1-4.77 32.8-4.77 22.4 0 29.2 12.41 29.2 34.1v8.33h-49.9zm20.7-28.79c-4.9 0-12.7.14-19.1 1.36-.6 3.27-1.5 7.77-1.7 16.1h34.1c0-11.33-2.1-17.46-13.3-17.46zm59.9 5.31v58.66h-16.4V90.06c13.8-7.5 28.4-9.82 37.9-10.5V93.2c-6.7.55-15.1 1.36-21.5 4.22zm64.7 60.55c-24.4 0-35.4-11.99-35.4-39.41 0-29.04 14.6-40.09 35.4-40.09 24.5 0 35.5 12 35.5 39.43 0 29.04-14.6 40.07-35.5 40.07zm0-65.86c-12.5 0-19.5 7.23-19.5 26.45 0 21.01 5.9 25.65 19.5 25.65 12.6 0 19.6-7.1 19.6-26.31 0-21.02-5.9-25.79-19.6-25.79zm114.5 63.97h-19.3c-4.5-12.02-10.8-24.28-20.4-34.94h-8.6v34.94h-16.4V48.2h16.4v61.91h7.6c8.3-8.59 14.7-19.23 19.2-29.73h18.4c-6.2 12.68-14.3 23.87-23.3 33 10.8 13.63 19.3 28.1 26.4 42.7zm30.6 1.89c-14.8 0-20.4-9.14-20.4-21.67V80.38h16.2v57.96c0 4.1 3 5.87 6.6 5.87 7 0 16.7-1.77 24.8-5.33v-58.5h16.3v65.72c-19.3 10.64-34.2 11.87-43.5 11.87z"/></svg>