<svg xmlns="http://www.w3.org/2000/svg" viewBox="0 0 1055 504.5"><path d="M579.4 385.4h32.3c0-9.9-4.9-17-14.8-17-9.8 0-15.9 7.1-17.5 17m19.7 40.5c-19.2 0-32.3-12.6-32.3-33.4 0-20.3 12-34.5 29.6-34.5 18.1 0 27.4 12.6 27.4 31.8v6h-45c1.7 13.1 9.9 19.2 22 19.2 7.1 0 12-1.7 18-6.1h.6v11c-5.5 4.4-12.6 6-20.3 6m-63-39.4c9.3 2.7 19.7 6.6 19.7 19.2 0 13.1-10.9 20.2-25.2 20.2-8.2 0-17-2.2-21.9-6v-11.5h.5c5.5 4.9 13.7 7.1 21.4 7.1 7.1 0 13.2-2.7 13.2-8.2 0-6-5-7.1-15.4-11-9.3-2.7-19.2-6-19.2-18.6 0-12.6 10.5-19.7 23.6-19.7 7.7 0 14.3 1.6 19.7 4.9V375h-.5c-4.9-4.4-11.5-6.6-19.2-6.6-7.7 0-12 3.3-12 7.7 0 5.5 4.9 6.5 15.3 10.4m-56.4-27.4h12.6v65.2h-12.6v-65.2zm6.5-26.3c3.9 0 7.7 3.3 7.7 7.6 0 4.4-3.8 7.7-7.7 7.7-4.4 0-8.2-3.3-8.2-7.7 0-4.3 3.8-7.6 8.2-7.6m-40.5 36.7c2.7-7.1 8.7-11.5 15.9-11.5 3.3 0 5.4.5 6.5 1.1v12h-.5c-1.6-.5-4.4-1.1-7.7-1.1-6.6 0-12 4.4-14.2 12.1v42.2h-12.6v-65.2h12.6v10.4zM386.5 415c12.6 0 19.7-9.9 19.7-23 0-13.2-7.1-23.1-19.7-23.1-6.6 0-12.6 3.9-15.9 10.5v25.2c3.3 6 9.3 10.4 15.9 10.4m2.2-57c19.7 0 30.1 15.9 30.1 34s-10.4 33.9-30.1 33.9c-7.7 0-14.8-4.3-18.1-8.7v32.3H358v-90.4h12.6v7.7c3.3-5 10.4-8.8 18.1-8.8m-64.1 11.5c2.7-7.1 8.7-11.5 15.9-11.5 2.7 0 5.4.5 6.5 1.1v12h-.5c-1.7-.5-4.9-1.1-7.7-1.1-6.6 0-12.6 4.4-14.2 12.1v42.2H312v-65.2h12.6v10.4zm-71.3 15.9h32.4c-.6-9.9-5.5-17-15.4-17-9.3 0-15.3 7.1-17 17m19.2 40.5c-19.2 0-32.3-12.6-32.3-33.4 0-20.3 12-34.5 30.1-34.5 17.6 0 27.4 12.6 27.4 31.8v6h-44.9c1.1 13.1 9.8 19.2 21.3 19.2 7.2 0 12.7-1.7 18.1-6.1h.6v11c-5.5 4.4-12.1 6-20.3 6m-57-66.8h17v10.4h-17v35.6c0 7.1 3.9 9.9 11 9.9 2.2 0 3.8-.6 5.5-1.1h.5v10.4c-1.6 1.1-4.4 1.6-7.7 1.6-15.3 0-21.3-7.1-21.3-19.7v-36.7H192v-10.4h11.5v-17.6h12v17.6zm-55.9-1.1c14.8 0 23 9.3 23 25.2v41.1H170v-40.6c0-8.7-4.4-14.8-13.7-14.8-7.6 0-14.2 5-16.4 12.1v43.3h-12.1v-65.2h12.1v9.3c3.8-6 10.4-10.4 19.7-10.4M55 331.7h57.5v11.5H67.6v27.9h40.5v11H67.6v31.2h44.9v11H55v-92.6zm925-52.6v-21.4c-3.3-4.9-7.7-7.1-12.6-7.1-8.8 0-14.3 6.6-14.3 17.5 0 11.5 5.5 17.6 14.3 17.6 4.9 0 9.3-2.2 12.6-6.6m.5 15.3c-4.4 5.5-10.9 8.2-19.7 8.2-17 0-28-15.3-28-34.5 0-18.6 11-34.5 28-34.5 8.8 0 14.8 2.8 19.2 7.7v-32.9h19.7v93.1h-19.2v-7.1zm-75.1-48.2c3.9-7.7 8.8-11.5 15.9-11.5 2.8 0 5.5.6 6.6 1.1v18.6h-.5c-2.2-1.1-5-1.6-8.8-1.6-6 0-11 3.8-12.6 10.4v38.3h-19.7v-66.2h19.1v10.9zm-52.6 34.5v-6c-2.7-1.6-6.5-2.2-10.9-2.2-6 0-9.9 2.8-9.9 7.7 0 5.5 3.9 8.2 9.3 8.2 5.5 0 9.9-2.7 11.5-7.7m.6 14.3c-4.4 4.9-10.4 7.6-17.5 7.6-12.7 0-23.6-8.2-23.6-21.9 0-13.1 10.9-21.3 25.7-21.3 5 0 9.9.5 14.8 2.2v-1.1c0-7.2-3.8-10.4-14.8-10.4-6.5 0-12.6 1.6-18 4.9h-1.1v-15.9c4.9-2.7 14.2-5.5 23-5.5 19.7 0 30.7 9.9 30.7 26.3v41.6h-19.2V295zm-86.6-23.6v30.1h-19.7v-93.1h19.7v53.2l19.7-26.3H809v.5l-24.1 30.1 24.1 34.5v1.1h-22.5l-19.7-30.1zm-84.9-3.3c0-20.8 14.8-34.5 34.5-34.5 7.1 0 13.7 1.7 18.6 5.5v16.4h-1.1c-3.8-3.3-9.3-4.9-14.8-4.9-9.8 0-17.5 6.6-17.5 17.5 0 11.5 7.7 18.1 17.5 18.1 5.5 0 11-2.2 14.8-4.9h1.1v16.4c-4.9 3.8-11.5 4.9-18.6 4.9-19.7 0-34.5-13.1-34.5-34.5m-29.6 12.6v-6c-2.8-1.6-6.6-2.2-11-2.2-6 0-9.9 2.8-9.9 7.7 0 5.5 3.9 8.2 9.4 8.2 5.4 0 9.8-2.7 11.5-7.7m.5 14.3c-4.4 4.9-10.4 7.6-17.5 7.6-12.6 0-23.6-8.2-23.6-21.9 0-13.1 11-21.3 25.8-21.3 4.9 0 9.8.5 14.8 2.2v-1.1c0-7.2-3.9-10.4-14.3-10.4-7.1 0-13.1 1.6-18.6 4.9h-1.1v-15.9c5.5-2.7 14.2-5.5 23-5.5 19.7 0 30.7 9.9 30.7 26.3v41.6h-19.2V295zm-79.4-41.1c10.4 0 15.3-5.5 15.3-13.7 0-8.8-4.9-14.8-15.3-14.8h-12.6v28.5h12.6zm35.6-13.7c0 20.3-13.2 31.2-34 31.2h-14.2v30.1h-20.3v-93.1H575c20.8 0 34 11 34 31.8m-116.2-4.9h14.8v15.8h-14.8V278c0 5.5 2.2 8.2 8.2 8.2 1.7 0 3.9 0 6.1-.5h.5V301c-2.7.5-6.6 1.6-12.1 1.6-15.8 0-21.9-7.1-21.9-24.1v-27.4h-25.2V278c0 5.5 2.2 8.2 8.2 8.2 1.7 0 3.3 0 5.5-.5h.6V301c-2.2.5-6.1 1.6-12.1 1.6-15.9 0-21.9-7.1-21.9-24.1v-27.4h-10.4v-15.8h10.4v-18.1h19.7v18.1h25.2v-18.1h19.2v18.1zm-122.7 25.2h24.1c-.6-6.6-3.3-11.5-11-11.5-6 0-11 2.7-13.1 11.5m15.3 42.1c-20.3 0-34.5-12.5-34.5-33.9 0-20.8 13.7-35.1 31.8-35.1 19.7 0 29.5 13.2 29.5 32.9v7.7h-42.1c2.7 10.4 10.4 13.1 18.6 13.1 7.1 0 12-1.6 18.1-5.5h1.1v15.4c-5.5 3.8-13.2 5.4-22.5 5.4m-47.1 0c-15.9 0-22.5-6-22.5-21.3v-72.9H335v71.8c0 4.4 2.2 6 6 6 1.1 0 3.3-.5 4.4-.5v15.8c-1.6.6-4.4 1.1-7.1 1.1m-81.1-39.9l-10.4 38.8h-18.1l-20.3-65.7v-.5h19.7l11 38.9 10.4-38.9h15.3l11 38.9 11-38.9h18.6v.5l-20.3 65.7h-17.5l-10.4-38.8zm-95.4-2.2h24.1c-.5-6.6-3.3-11.5-10.9-11.5-6.1 0-11 2.7-13.2 11.5m15.4 42.1c-20.3 0-34.6-12.5-34.6-33.9 0-20.8 13.7-35.1 31.8-35.1 19.7 0 29.6 13.2 29.6 32.9v7.7h-42.2c2.8 10.4 10.4 13.1 18.6 13.1 7.2 0 12.1-1.6 18.1-5.5h1.1v15.4c-5.5 3.8-13.1 5.4-22.4 5.4m-102-1.1H55v-93.1h20.2v36.7h36.2v-36.7h20.3v93.1h-20.3v-38.8H75.2M358 127.8H75.2V75.2H358v52.6zM55 55v93.1h323.3V55"/></svg>