<svg xmlns="http://www.w3.org/2000/svg" viewBox="0 0 739.34668 204.09332"><path d="M28.34 41.138L4.91 81.718l23.418 40.637 23.438-40.638-23.427-40.58zm.012 0l23.43 40.58h46.867l-23.44-40.58H28.352zm396.36 0c-9.027 0-15.675.118-21.494.475v80.16h12.943V87.095h.594l24.94 34.676h16.268l-21.137-27.907c-2.02-2.612-4.513-5.7-6.77-8.55 13.063-1.424 22.682-9.62 22.682-22.445 0-15.912-11.4-21.732-28.026-21.732zm-131.196.12c-9.738 0-18.882.235-25.177.355v80.16c8.906.118 16.98.355 21.85.355 24.582 0 31.47-14.13 31.47-24.58 0-8.314-4.868-16.272-15.32-18.29v-.238C314.537 76.17 320 68.927 320 60.733c0-12.35-9.024-19.476-26.482-19.476zm-150.16.355v80.16h12.94V85.788h37.885v35.982h12.825v-80.16H194.18v33.133h-37.883V41.613h-12.942zm87.847 0v80.16h12.946v-80.16h-12.947zm109.57 0v80.16h42.28v-11.044l-29.332-.002v-24.94h27.908V75.223H353.72V52.42h29.332V41.613h-42.278zm133.18 0v80.16h12.588v-26.96c0-11.4-.237-27.668-.713-35.506 2.493 5.344 5.345 11.045 8.91 16.864l27.432 45.602h16.742v-80.16h-12.59v23.752c0 11.757.36 28.975.834 38.12-2.97-5.82-6.177-12.23-9.74-18.17l-26.48-43.7h-16.983zm107.096 0l-28.737 80.16h13.06l6.177-17.697h32.418l6.176 17.696h14.37l-29.094-80.16h-14.37zm40.718 0v10.925h21.97v69.234h12.944V52.538h22.088V41.613h-57.002zm70.393 0v80.16h42.277v-11.044l-29.332-.002v-24.94h27.906V75.223h-27.905V52.42h29.332V41.613H692.16zm-400.78 9.974c11.398 0 15.08 4.634 15.08 11.165 0 8.075-6.294 12.944-18.29 12.944-2.73 0-4.747 0-6.885-.118V51.826c3.087-.118 6.532-.24 10.095-.24zm131.55.12c10.806 0 16.27 3.8 16.27 12.587 0 7.957-6.294 13.3-16.745 13.3-2.85 0-5.107-.118-6.294-.237V51.943c1.9-.12 4.276-.235 6.77-.235zm164.65 4.513h.238c.952 4.395 2.02 8.193 3.564 12.35l9.143 25.176h-25.65l9.024-24.82c1.544-4.276 2.85-8.67 3.68-12.706zM98.636 81.736l-23.438 40.64 23.427 40.58 23.43-40.58-23.42-40.64zm189.892 3.578c11.282 0 19.475 3.326 19.475 12.47 0 8.076-5.58 13.775-17.338 13.775-4.156 0-7.36-.238-9.38-.594V85.433c1.783-.12 5.937-.12 7.243-.12zM75.182 122.372l-46.868.004 23.44 40.577H98.61l-23.428-40.58z"/></svg>