<svg xmlns="http://www.w3.org/2000/svg" viewBox="0 0 600 200"><path d="M17.395 183.68c.078-.54.276-1.012.73-1.344 31.817.525 63.634.08 95.45.233 1.923.008 3.842-.022 5.748-.293.75.347.463.88.258 1.403H17.396zM211.218 181.85c.38.612.76 1.22 1.148 1.83h-71.83c-.154-.103-.203-.195-.148-.288.055-.092.11-.135.166-.135l.83-2.155c1.675 1.658 3.8 1.48 5.912 1.48 19.783-.018 39.572-.006 59.355-.012 1.56 0 3.138.116 4.568-.72z"/><path d="M211.218 181.85c-.295 1.604-1.53 1.395-2.665 1.395h-46.467c-5.753 0-11.512-.05-17.266.03-1.732.025-3.174-.043-3.44-2.174.284-1.954.628-3.904.842-5.87 1.228-11.34-3.2-20.826-9.738-29.627-4.936-6.646-11.525-11.565-17.634-16.992-5.167-4.592-10.162-9.356-13.434-15.582-4.23-8.034-4.157-15.89.988-23.58 4.295-6.422 9.615-11.94 14.994-17.422.276-.083.587-.19.725-.424 1.412-2.45 3.72-2.345 6.115-2.315 6.312.074 12.636.074 18.948-.012 1.547-.022 2.77.356 3.782 1.48 4.347 7.417 8.73 14.813 13.03 22.25 16.313 28.208 32.602 56.42 48.89 84.637.216.365.37.765.553 1.145.43 1.11.64 2.35 1.77 3.058l.008.006z"/><path d="M120.01 182.385a.652.652 0 0 0-.26.074c-.808.637-1.717.803-2.755.803-32.063-.02-64.128-.018-96.194 0-1.04 0-1.96-.108-2.676-.927 4.884-8.516 9.748-17.038 14.654-25.536 16.576-28.723 33.172-57.433 49.735-86.165.706-1.23 1.48-1.815 2.993-1.778 4.338.117 8.68.043 13.047.043.064.946-.715 1.07-1.157 1.418-5.772 4.51-10.978 9.572-14.586 16.007-6.693 11.933-5.72 24.105-.298 36.103 4.052 8.986 11.033 15.617 18.72 21.557 5.367 4.144 10.353 8.688 14.687 13.944 6.11 7.398 8.572 15.325 4.09 24.455zM114.803 14.842c7.012 12.123 13.82 23.9 20.76 35.9h-41.5c6.92-11.976 13.725-23.755 20.74-35.9zM146.97 70.755c-3.37-2.094-7.11-1.078-10.696-1.197-4.402-.14-8.81.012-13.22-.055-1.657-.03-3.06.126-4.008 1.75-.243.42-.75 1.286-1.646.774 1.308-2.51 3.282-3.288 6.158-3.187 6.864.236 13.74.11 20.612.037 1.498-.02 2.45.374 2.8 1.878zM211.212 181.845c-1.7-.375-1.73-1.716-1.768-3.058.786.906 1.345 1.94 1.768 3.058zM291.27 99.19c-1.282-1.402-4.29-.257-6.538-.472-1.597-.153-2.64.123-2.186 2.493-2.93-3.006-5.342-3.814-8.252-3.01-2.616.726-4.206 2.605-4.556 5.134-.792 5.65-.89 11.37-.012 17.008.725 4.672 4.87 6.778 9.357 5.148 1.013-.368 1.94-.98 2.996-1.52 0 1.67.024 3.162-.013 4.648-.02.83-.534 1.295-1.332 1.412-.804.123-1.596-.196-1.64-.97-.122-2.124-1.503-1.943-2.946-1.866-1.063.055-2.138-.055-3.2.03-1.074.093-2.683-.604-3.113.406-.547 1.265.21 2.775 1.025 3.98 1.093 1.62 2.745 2.424 4.587 2.88 1.884.466 3.8.515 5.72.404 7.148-.405 10.414-3.81 10.457-10.966.037-6.12.02-12.243 0-18.358-.006-2.195.755-5.157-.356-6.38zM282.13 117.5c-.018 1.124-.52 1.97-1.737 1.996-1.208.024-1.804-.768-1.816-1.91-.03-3.61-.037-7.22-.02-10.83.007-1.127.554-1.97 1.757-1.99 1.34-.025 1.82.884 1.825 2.112v5.31c0 1.77.024 3.544-.007 5.312zM267.092 128.39c.025 1.4-.214 2.046-1.817 1.926-2.05-.157-4.12-.08-6.183-.025-1 .028-1.53-.116-1.523-1.347.042-9.603.036-19.202-.013-28.802 0-1.165.436-1.444 1.504-1.414 2.132.065 4.27.095 6.4-.01 1.368-.067 1.644.467 1.626 1.73-.068 4.693-.03 9.384-.03 14.08h.01c0 4.62-.054 9.245.026 13.865zm-.012-35.157c.153-1.18-.4-1.467-1.473-1.437-1.922.062-3.856.157-5.765-.025-1.922-.183-2.296.492-2.358 2.346-.074 2.223.614 2.953 2.732 2.622.694-.104 1.418-.015 2.13-.012 1 0 2.007-.09 2.99.022 1.467.172 1.928-.44 1.744-1.808a6.59 6.59 0 0 1 0-1.707zM255.23 128.568c.018 1.446-.448 1.81-1.8 1.74-1.988-.097-3.99-.128-5.98.004-1.553.1-2.123-.307-2.068-1.974.123-4.055-.068-8.123.092-12.178.068-1.737-.602-1.873-2.05-1.95-1.75-.088-1.733.766-1.72 2.037.055 4.132-.037 8.264.05 12.396.024 1.345-.4 1.722-1.702 1.664-2.204-.098-4.415-.074-6.62-.006-1.06.035-1.497-.195-1.49-1.38.042-11.9.036-23.793.005-35.692-.006-1.127.35-1.474 1.467-1.43 2.13.085 4.28.113 6.41 0 1.467-.08 1.983.343 1.934 1.875-.11 3.488.08 6.984-.08 10.47-.08 1.773.804 1.663 2.045 1.733 1.46.08 1.756-.445 1.72-1.814-.105-3.558.005-7.125-.056-10.684-.018-1.206.368-1.63 1.59-1.58 2.204.085 4.42.122 6.625-.004 1.424-.083 1.62.513 1.615 1.728-.055 5.84-.024 11.684-.024 17.523s-.055 11.68.037 17.523zM303.103 98.216c.006-.157.49-.556.227-.44-.043.02-.08-.036-.074-.165.058-.652-.003-1.313-.047-1.973.006.765.01 1.587-.107 2.58zM303.238 128.162c-.024-.408-.02-.818-.024-1.228-.035.693-.077 1.388-.005 2.077.04-.24.046-.522.028-.848zM303.21 95.637c-.006-.492-.012-.965.01-1.43.003-.064-.003-.118-.003-.18-.063.533-.044 1.07-.008 1.61z"/><path d="M316.05 128.337c.05 1.667-.478 2.076-2.038 1.968a44.01 44.01 0 0 0-5.765 0c-1.406.086-1.81-.35-1.793-1.765.074-6.557.03-13.115.03-19.666 0-.645.026-1.283-.005-1.928-.057-1.05.09-2.413-1.407-2.422-1.578-.006-1.314 1.433-1.32 2.434-.03 7.055-.006 14.11-.037 21.165-.006.656.367 1.41-.268 2v-22.945h-.442v2.08c0 6.052-.092 12.11.055 18.157.056 2.094-.705 2.655-2.56 2.395-1.05-.147-2.18-.583-3.13-.344-2.278.57-2.505-.528-2.5-2.34.044-9.4.026-18.8.02-28.2-.007-6.358-.013-6.28 6.385-6.214 1.45.012 1.744.516 1.737 1.695-.012 1.67-.006 3.346-.006 5.016h.614v-6.7c.036 1.258.09 2.52.108 3.78.018 1.276.006 2.553.006 3.873.78.123.92-.578 1.326-.857 2.186-1.52 4.53-2.06 7.067-1.097 2.518.96 3.518 3.12 3.672 5.554.226 3.622.158 7.263.183 10.895.03 4.49-.068 8.983.067 13.465z"/><path d="M303.213 107.795v15.878c0 1.09-.015 2.176 0 3.26.017-.344.032-.69.03-1.032-.036-6.034-.018-12.07-.03-18.105z"/><path d="M303.21 129.012c-.127.726-.582 1.066-1.716 1.047-1.768-.03-3.524-.338-5.317-.154-1.332.142-1.516-.9-1.51-2.026.024-5.842.012-11.684.012-17.526 0-5.203-.013-10.403 0-15.604.005-2.308.244-2.532 2.602-2.566 1.357-.015 2.708.037 4.06.04 1.32.003 1.872.608 1.875 1.804a3.89 3.89 0 0 1 .4-1.363l.003.06v-.056c.256-1.217-.696-.818-1.2-.827-2.13-.046-4.266.083-6.384-.052-1.467-.09-1.775.434-1.762 1.797.06 6.533.025 13.07.025 19.602 0 5.18-.007 10.366 0 15.552 0 .743-.228 1.602 1.08 1.553 2.683-.11 5.372-.117 8.068-.166v-.007s0 .002-.002.002a4.97 4.97 0 0 1-.237-1.113zM405.42 123.08l.004 4.002c.04-1.333.022-2.667-.003-4.002zM405.42 123.08c-.002-2.893-.006-5.786-.006-8.68-.003 1.72-.005 3.437-.025 5.154-.017 1.176.008 2.35.03 3.526zM405.39 105.734c-.002-.087-.002-.174-.002-.26-.006-.286-.037.112-.068-.17-.017-.11-.06-.136-.115-.122l.005.005c.097.176.147.36.18.547zM405.41 109.825c0 1.526.003 3.05.003 4.576.003-1.525.003-3.05-.004-4.575zM394.003 99.226c-.068 2.916-.08 5.833-.037 8.75.018.973-.19 1.326-1.265 1.387-3.327.19-4.297 1.317-4.303 4.722-.012 4.838-.043 9.68.02 14.515.018 1.262-.26 1.787-1.634 1.713-2.125-.116-4.268-.074-6.398-.012-1.038.025-1.572-.184-1.566-1.38.03-9.604.03-19.21-.013-28.816-.006-1.213.528-1.412 1.547-1.382 1.78.052 3.568.117 5.336-.012 1.744-.122 2.788.228 2.364 2.27-.055.238.037.508.116 1.4 1.19-2.334 2.603-3.467 4.402-4.13.91-.332 1.462-.234 1.43.976zM344.296 91.836c-3.77-.07-7.546.046-11.316-.046-1.37-.037-1.652.43-1.633 1.707.06 5.833.025 11.672.025 17.51h.01c0 5.908.032 11.82-.023 17.727-.013 1.176.25 1.64 1.528 1.57 2.13-.114 4.273-.102 6.404-.004 1.24.06 1.572-.368 1.54-1.56-.073-3.13-.03-6.263-.03-9.397.006-4.544.006-4.544 4.6-4.72 4.868-.183 7.428-2.667 7.68-7.566.104-2.06.086-4.13.068-6.192-.055-6.04-2.85-8.915-8.854-9.03zm.563 14.046c-.11 1.826-1.77 2.86-3.476 2.253-.767-.276-.59-.86-.59-1.394-.012-2.126-.054-4.254.013-6.372.025-.844-.595-2.18 1.173-2.1 1.425.062 2.77.258 2.874 2.088.055.988.006 1.983.01 2.978 0 .847.044 1.7-.005 2.548zM366.074 114.993c2.984.098 5.98-.012 8.97.058 1.124.026 1.688-.15 1.615-1.47-.11-2.13.03-4.273-.05-6.41-.153-4.107-2.628-7.31-6.52-8.59-2.365-.774-4.772-.774-7.173-.298-4.936.973-7.687 4.178-7.87 9.2-.087 2.346-.02 4.698-.02 7.05h-.01c0 2.064-.013 4.133.005 6.196.05 5.848 2.788 9.24 8.535 10.162 6.963 1.108 13.532-1.744 13.072-10.776-.026-.497-.044-1 .005-1.492.086-.946-.307-1.222-1.234-1.194-2.203.058-4.414.07-6.618-.01-1.105-.042-1.314.43-1.277 1.385.055 1.495.037 2.99 0 4.485-.018 1.007-.344 1.88-1.54 1.916-1.284.037-1.468-.872-1.475-1.882-.012-2.207.043-4.417-.074-6.622-.06-1.302.307-1.75 1.658-1.707zm-1.627-7.223c.006-.212 0-.427 0-.64h.043c0-.493-.006-.99 0-1.488.007-1.02.26-1.922 1.505-1.848 1.14.074 1.51.912 1.522 1.947.006.64.043 1.28 0 1.916-.06 1.007.51 2.232-1.492 2.24-1.885.014-1.615-1.01-1.578-2.126zM405.19 105.168v.02l.015-.006c-.005-.007-.01-.01-.014-.014zM405.425 128.034v-.95a31.017 31.017 0 0 1-.234 3.098c.154-.023.308-.048.455-.066v-.003c-.43-.652-.214-1.386-.22-2.08zM405.407 107.12c0-.457.06-.933-.018-1.386.01 1.363.013 2.727.02 4.09-.002-.9 0-1.8-.003-2.703zM558.313 118.565c-.037 1.86-.13 3.697-.614 5.5-1.45 5.445-6.086 7.968-12.637 6.9-5.796-.946-8.706-4.326-8.743-10.22-.03-4.273-.043-8.546.006-12.814.073-5.525 3.04-8.905 8.48-9.76a16.796 16.796 0 0 1 4.26-.112c7.312.712 9.295 5.925 8.872 11.887-.055.73-.454.774-.982.774-.853 0-1.707.01-2.566.002-1.774-.02-3.997.574-5.188-.273-1.166-.824-.282-3.185-.368-4.87-.06-1.087-.4-1.817-1.596-1.8-1.252.026-1.467.904-1.467 1.917v8.756h.012c0 2.922-.006 5.84 0 8.755.006 1.1.283 2 1.652 1.99 1.35-.013 1.645-.96 1.688-2.015.06-1.563.073-3.13.012-4.697-.037-.92.24-1.238 1.19-1.21 2.205.064 4.416.064 6.62 0 .995-.03 1.387.23 1.37 1.29zM533.693 128.774c.098 1.317-.424 1.563-1.578 1.526-2.063-.074-4.138-.108-6.195.01-1.412.08-1.817-.38-1.8-1.788.068-6.91.056-13.824.007-20.735-.006-1.243.54-3.238-1.394-3.226-2 .014-1.283 2.046-1.295 3.243-.068 6.84-.098 13.68 0 20.52.025 1.652-.46 2.09-2.038 1.986-2.057-.133-4.132-.078-6.195-.01-1.043.033-1.326-.344-1.326-1.35.036-9.623.048-19.24 0-28.86-.007-1.23.503-1.4 1.528-1.37 2.063.058 4.132.012 6.2.024 1.585.01 1.585.02 1.953 2.004 1.07-1.07 1.99-1.928 3.23-2.37 4.41-1.578 8.406.792 8.645 5.612.326 6.54.197 13.103.252 19.657.012 1.71-.123 3.43.006 5.127zM509.333 116.345c-.1-2.837.243-7.037-.174-11.23-.247-2.396-1.137-4.566-3.347-5.625-4.593-2.195-9.443-2.345-13.993-.123-3.985 1.947-3.776 5.98-3.77 9.723 0 .144.02.29-.006.427-.153 1.08.227 1.514 1.388 1.46a61.8 61.8 0 0 1 5.98.007c1.185.062 1.443-.4 1.4-1.467a64.793 64.793 0 0 1 .037-5.12c.036-.836.44-1.563 1.43-1.536.926.028 1.417.658 1.473 1.53.068 1.133-.074 2.287.068 3.408.253 2.063-.767 3.2-2.523 3.923-2.1.867-4.212 1.714-6.275 2.654-1.99.91-3.052 2.438-2.965 4.718.074 1.99-.05 3.988.037 5.977.19 4.365 3.457 6.833 7.75 5.88a8.762 8.762 0 0 0 3.278-1.485c.276-.202.83-.816.94-.147.263 1.578 1.393.884 2.142.927 1.7.104 3.42-.06 5.12.068 1.524.117 2.12-.24 2.052-1.934-.14-3.556-.043-7.117-.043-12.035zm-9.525 6.95c-.007.97-.412 1.657-1.43 1.78-.89.11-1.253-.543-1.487-1.237-.988-2.935.13-6.395 2.918-8.446v7.902zM580.044 117.418a59.816 59.816 0 0 1-5.974.003c-1.27-.06-1.817.256-1.7 1.637.122 1.486.067 2.99.005 4.482-.037.932-.436 1.663-1.535 1.67-1.148.008-1.425-.753-1.443-1.7-.02-1.21-.006-2.42-.006-3.63-.005-4.86 0-4.81 4.858-4.88 2.388-.033 5.747 1.09 6.9-.432 1.21-1.597.443-4.777.363-7.257-.152-4.558-2.983-7.996-7.404-9-2.382-.54-4.808-.51-7.184.178-4.445 1.29-6.89 4.427-6.993 9.057-.05 2.35-.007 4.7-.007 7.05h.013c0 2.418-.068 4.843.012 7.262.147 4.218 2.48 7.27 6.484 8.565 2.85.92 5.765.99 8.62.135 3.696-1.105 5.84-3.665 6.318-7.51.166-1.334.055-2.703.184-4.045.11-1.19-.24-1.65-1.51-1.584zm-10.646-12.002c0-.884.307-1.55 1.277-1.62 1.038-.075 1.572.533 1.67 1.506.067.63.012 1.267.012 1.903h.038c0 .636.056 1.278-.012 1.907-.123 1.15-1.056.64-1.658.694-.565.05-1.35.283-1.333-.786.024-1.204.012-2.4.006-3.604zM424.14 98.187a16.133 16.133 0 0 0-6.367.14c-4.722 1.063-7.38 4.207-7.565 9.033-.092 2.345-.018 4.7-.018 7.05h.042c0 2.637-.135 5.28.03 7.902.265 4.19 2.832 7.178 6.86 8.273 2.16.586 4.365.685 6.563.365 5.25-.75 8.295-3.622 8.664-8.94.343-5.03.318-10.118.024-15.153-.295-4.9-3.29-7.792-8.234-8.67zm-1.186 24.488c-.006 1.096-.546 2.026-1.8 1.925-1.098-.09-1.473-.974-1.48-2-.005-2.848 0-5.697 0-8.546 0-2.702.013-5.41-.005-8.114-.007-1.127.35-2.08 1.565-2.14 1.24-.06 1.744.92 1.744 2.002.03 5.625.023 11.25-.026 16.873z"/><path d="M408.452 99.16c.448 1.268.19 2.797.172 4.215-.006.59-.56.627-.958.553-1.744-.326-1.73.706-1.725 1.98.044 7.543.025 15.09.013 22.632-.006.53.27 1.142-.307 1.575v-.002-25.085h-.455v.14c-.166-.196-.267.233-.066.047.028-.026.045-.02.067-.028v24.995c-2.344.03-4.696-.025-7.035.132-1.443.095-1.774-.383-1.762-1.77.062-7.54.018-15.087.03-22.633 0-.994.265-2.093-1.368-1.97-.583.043-.62-.467-.62-.91 0-1.138 0-2.277.012-3.416.006-.205.074-.583.13-.586 2.78-.113 1.75-2.56 2.37-3.948.693-1.572 1.773-2.52 3.425-2.873 2.32-.497 4.673-.36 7.018-.4.848-.01 1.137.376 1.118 1.162-.025.78-.05 1.57.006 2.347.073.973-.234 1.476-1.302 1.418-.558-.027-1.135.07-1.682.2-.67.166-1.252.605-1.19 1.308.08.87.89.392 1.374.5.933.205 2.4-.538 2.738.417zM464.418 127.56c.006-6.532.012-13.065-.012-19.598-.006-.526.184-1.098-.016-1.617-.063-.108-.138-.23-.237-.39-.012 7.62-.03 15.233-.02 22.853 0 .595-.386 1.59.922 1.37v-.003c-.668-.76-.644-1.68-.637-2.614z"/><path d="M485.5 108.95c0-1.924-.005-3.846-.36-5.743-.928-4.915-5.92-6.892-9.972-3.945-.83.602-1.57 1.327-2.42 2.048-1.4-2.014-3.07-3.3-5.52-3.33-2.326-.032-4.144 1.043-6.047 2.897.418-1.92-.294-2.24-1.645-2.17-2.125.11-4.267.07-6.404.015-1.03-.025-1.337.362-1.33 1.375.03 9.612.042 19.224-.007 28.836-.006 1.243.534 1.39 1.535 1.366 1.78-.05 3.574-.16 5.336.014 2.044.203 2.756-.303 2.695-2.563-.18-6.97-.068-13.952-.062-20.93 0-.92-.11-1.983 1.044-2.302 1.135-.313 1.338.786 1.81 1.437.116.125.187.256.238.39.234.403.242.545.242 1.2 0 5.765-.013 11.53.006 17.296 0 1.787-.197 3.592.416 5.335l.002.002c2.063.034 4.126-.02 6.183.132 1.54.113 2.05-.286 2.025-1.95-.11-6.904-.074-13.812-.025-20.72.012-1.15-.614-3.072 1.246-3.072 1.91-.006 1.455 1.952 1.467 3.205.043 6.907.05 13.815-.012 20.722-.01 1.317.24 1.925 1.733 1.82a46.158 46.158 0 0 1 5.974-.01c1.523.1 1.903-.426 1.885-1.915-.086-6.478-.05-12.962-.03-19.44zM450.165 99.158c-.06 2.984-.05 5.974-.006 8.964.01.903-.246 1.173-1.192 1.228-3.31.21-4.408 1.376-4.44 4.67-.035 4.835-.066 9.677.026 14.515.024 1.427-.4 1.845-1.793 1.77-2.056-.11-4.125-.067-6.188-.005-1.02.03-1.516-.147-1.51-1.357.05-9.61.05-19.212.006-28.82-.006-1.195.454-1.432 1.498-1.395 1.848.06 3.708.11 5.55-.02 1.62-.118 2.426.315 2.094 2.068-.06.317-.006.654-.007.98 1.388-1.64 2.763-2.914 4.68-3.53.87-.28 1.3-.136 1.282.932zM375.76 152.25c.002-3.272-.09-6.55.033-9.817.074-1.842-1.087-1.378-2.082-1.45-1.092-.073-1.853-.06-1.835 1.487.086 6.545.092 13.096.006 19.64-.024 1.812 1.094 1.407 2.113 1.48 1.124.08 1.86-.01 1.805-1.52-.11-3.268-.03-6.547-.037-9.82zM395.63 140.953c-1.202-.003-1.933.04-1.94 1.624-.005 1.68.75 1.894 2.193 1.624 1.228.382 1.744-.03 1.805-1.534.068-1.735-.81-1.707-2.057-1.713zM388.46 161.044c-1.774.23-2.364-.835-2.345-2.465.037-2.558.08-5.122-.02-7.676-.048-1.29.467-1.633 1.61-1.517.424.046.854-.012 1.277.01.792.04 1.173-.268 1.18-1.103.005-.878-.462-1.013-1.204-1.08-2.83-.253-2.825-.277-2.837-3.224v-2.247c-2.585.582-4.457 1.328-3.88 4.232.264 1.308-.718 1.308-1.615 1.252-.768-.043-1.18.18-1.167 1.062.012.822.3 1.227 1.124 1.104 1.51-.218 1.713.59 1.7 1.857-.024 2.982.118 5.966.118 8.95 0 2.266 1.382 3.137 3.322 3.42.902.135 1.866.19 2.757.034.662-.117 1.89.636 1.927-.866.03-1.292-.49-1.93-1.947-1.744zM397.62 155.234h-.005c0-2.272-.05-4.54.018-6.81.037-1.147-.56-1.38-1.437-1.166-.854.212-2.39-.84-2.407 1.062-.05 4.68-.013 9.357-.013 14.036 0 1.885 1.437 1.056 2.327 1.216.988.172 1.584-.098 1.54-1.32-.08-2.34-.024-4.68-.024-7.018zM364.085 147.24c-.94 0-2.05-.363-1.958 1.35.117 2.2.043 4.415.03 6.62-.018 4.644-2.167 6.606-6.79 6.213-2.493-.212-3.66-1.277-3.758-3.745a134.61 134.61 0 0 1-.075-9.185c.037-1.357-.676-1.394-1.566-1.234-.873.156-2.352-.762-2.334 1.178.03 3.414.043 6.834.123 10.248.054 2.358 1.374 3.816 3.548 4.525 3.893 1.266 7.57.925 11.445-1.973-.713 2.5.6 2.31 1.92 2.372 1.708.08 1.334-1.076 1.334-1.997.025-4.347-.043-8.694.05-13.035.036-1.694-1.04-1.34-1.972-1.34zM272.237 156.39c-1.142-.34-2.855-1.812-3.886.263-1.497 3.015-4.094 4.316-7.195 4.605-3.9.356-7.657-.227-10.088-3.73-2.726-3.92-1.676-9.95 1.897-12.492 3.647-2.594 12.163-2.763 14.552 1.522.65 1.167 3.825 1.633 4.384.627.62-1.114-.57-1.916-1.203-2.653-1.424-1.658-3.31-2.67-5.415-3.23-4.25-1.13-8.455-.908-12.58.6-5.054 1.845-7.657 5.747-7.387 10.966.258 4.958 3.586 9.023 8.467 10.312 1.934.512 3.91.675 5.913.76 4.855-.134 9.38-1.05 12.223-5.56.35-.555 1.523-1.635.32-1.99zM341.078 155.452c-.81-.414-1.725-.672-2.622-.875-2.56-.59-5.145-1.093-7.712-1.676-.915-.205-1.91-.564-1.897-1.69.012-1.103.982-1.57 1.903-1.717 2.806-.457 5.588-1.025 7.792 1.753.854 1.07 2.59.684 3.475-.003.657-.51-.3-1.62-.903-2.302a2.416 2.416 0 0 0-.847-.63c-4.31-1.93-8.67-2.113-12.98-.11-1.394.65-2.333 1.865-2.192 3.602.14 1.713 1.216 2.69 2.683 3.273.982.39 2.032.642 3.07.872 2.223.49 4.457.91 6.68 1.4.792.175 1.492.608 1.67 1.467.172.795-.374 1.34-.927 1.8-1.847 1.522-7.705 1.417-8.957-.56-1.332-2.106-2.88-1.747-4.8-1.415.227 1.38.847 2.3 1.706 3.084 3.284 2.984 12.408 2.922 15.644-.114 2.143-2.01 1.81-4.817-.786-6.158zM320.084 152.165c-.043-2.32-1.234-3.862-3.457-4.586-3.93-1.278-7.675-1.008-11.457 1.648.487-2.57-1.134-1.963-2.32-1.982-1.798-.034-1.086 1.37-1.098 2.174-.074 4.058.037 8.123-.074 12.175-.05 1.615.46 2.014 2.038 2.057 1.75.052 1.99-.657 1.91-2.124-.105-1.99-.032-3.988-.032-5.98.012-4.68 2.08-6.576 6.754-6.2 2.665.217 3.85 1.43 3.886 4.094.037 2.92.074 5.842-.012 8.762-.055 1.652.99 1.378 1.965 1.37.964-.007 2.014.3 1.965-1.367-.098-3.343-.006-6.696-.068-10.042zM291.865 147.722c-1.615-.61-3.28-.91-5.004-.844-1.79-.074-3.528.184-5.223.792-3.696 1.323-5.58 3.883-5.594 7.663-.02 3.776 1.866 6.514 5.5 7.748 3.47 1.18 6.982 1.192 10.44-.13 3.628-1.392 5.26-3.786 5.28-7.636.01-3.622-1.868-6.263-5.398-7.592zm-5.1 13.842c-4.195.05-6.755-2.3-6.755-6.2 0-3.703 2.677-6.22 6.613-6.214 3.997.006 6.582 2.43 6.594 6.176.02 3.917-2.333 6.19-6.453 6.238zM486.312 152.03c-.14-.013-.283 0-.424 0-1.78.005-3.56.036-5.335-.01-.952-.026-1.406.213-1.425 1.294-.024 1.166.43 1.455 1.505 1.418a81.317 81.317 0 0 1 5.76.012c.668.024 1.927-.516 1.853.675-.086 1.325 1.026 3.09-.945 3.968-4.825 2.155-9.743 2.526-14.692.457-3.156-1.32-4.673-3.86-4.777-7.202-.104-3.37 1.118-6.232 4.188-7.835 4.133-2.155 8.46-2.186 12.79-.485 1.167.46 1.983 1.34 2.67 2.37.75 1.136 3.188 1.62 3.98.633.804-.992-.368-1.74-.835-2.487a6.077 6.077 0 0 0-2.88-2.457c-6.33-2.58-12.66-2.572-18.74.614-3.873 2.026-5.635 5.587-5.45 9.91.177 4.313 2.492 7.392 6.41 9.056 7.183 3.05 14.28 2.474 21.225-.906.577-.282 1.234-.513 1.21-1.317-.075-2.474.86-5.34-.4-7.288-.866-1.344-3.72-.25-5.686-.423zM527.596 148.026c-1.83-.847-3.776-1.203-6.122-1.148-1.773-.135-3.775.307-5.678 1.142-2.763 1.21-4.39 3.285-4.636 6.352-.258 3.282.57 6.106 3.61 7.82 4.046 2.283 8.277 2.222 12.538.632 3.29-1.234 4.863-3.635 4.967-7.172.11-3.63-1.443-6.128-4.68-7.626zm-5.845 13.54c-4.24 0-6.672-2.29-6.648-6.263.03-3.77 2.535-6.085 6.637-6.128 3.947-.044 6.57 2.44 6.55 6.207-.012 3.868-2.455 6.176-6.54 6.184zM418.705 147.692c-3.99-1.434-7.804-1.176-11.74 1.507.332-2.515-1.252-1.954-2.437-1.96-1.627-.018-1.025 1.26-1.038 2.023-.05 4.203.043 8.41-.055 12.608-.03 1.48.504 1.8 1.854 1.74 1.233-.063 2.19.048 2.093-1.733-.147-2.554-.092-5.13-.012-7.693.105-3.23 2.285-4.98 5.98-4.924 3.378.05 4.643 1.366 4.673 4.906.02 2.708.068 5.415-.006 8.123-.043 1.737 1.167 1.24 2.057 1.283.884.04 1.89.313 1.854-1.244-.092-3.49 0-6.985-.11-10.472-.062-2.032-1.167-3.47-3.113-4.166zM578.902 150.058c-3.156-3.718-8.626-4.19-14.373-1.13.257-2.253-1.34-1.694-2.5-1.676-1.627.022-.933 1.345-.94 2.082-.067 6.33-.005 12.66-.103 18.99-.025 1.493.774 1.444 1.725 1.358.91-.086 2.272.617 2.174-1.314-.098-1.965-.025-3.936-.025-6.143 5.974 2.588 11.396 1.802 14.128-1.855 2.247-3.006 2.21-7.61-.086-10.312zm-8.338 11.507c-3.825.024-6.047-2.242-6.023-6.128.025-3.788 2.548-6.373 6.208-6.367 3.574.012 5.876 2.407 5.888 6.122.02 4.018-2.198 6.342-6.072 6.373zM555.005 148.75c.037-1.497-.657-1.595-1.805-1.528-1.062.06-2.087-.236-2.026 1.535a70.42 70.42 0 0 1-.166 8.534c-.24 2.917-2.745 4.385-6.582 4.13-2.72-.18-3.83-1.464-3.862-4.534-.03-2.775-.06-5.557 0-8.332.037-1.89-1.32-1.203-2.24-1.314-1.002-.117-1.72-.067-1.665 1.382.134 3.125.005 6.263.067 9.394.055 3.11 1.148 4.556 4.15 5.37 3.746 1.015 7.32.684 10.746-2.116-.418 2.333.773 2.47 2.29 2.32 1.915-.186.988-1.632 1.006-2.45.11-4.13-.02-8.263.085-12.39zM444.07 147.22c-.664.096-1.407-.208-1.48.97-.062.867-.683.34-1.063.118-2.806-1.652-5.79-1.777-8.866-1.03-3.916.95-6.44 4.125-6.41 7.996.026 3.767 2.5 6.855 6.325 7.85 3.303.863 6.46.54 9.615-1.45.166 3.188-.608 4.812-2.53 5.598-2.658 1.087-7.048.752-8.25-.924-.805-1.114-1.75-1.207-2.856-1.388-1.775-.29-1.762.497-1.18 1.762.72 1.575 2.1 2.296 3.623 2.735 2.916.844 5.907.912 8.866.28 4.617-.983 6.367-3.206 6.373-7.906.006-4.195-.098-8.395.043-12.59.054-1.804-.633-2.24-2.21-2.02zm-7.786 14.038c-3.93-.068-6.165-2.456-6-6.41.143-3.534 2.654-5.775 6.356-5.683 3.677.095 6.005 2.61 5.894 6.377-.098 3.616-2.474 5.784-6.25 5.716zM508.803 147.227c-2.665-.767-5.078-.497-7.245 2.026.343-2.307-1.08-1.97-2.36-2.03-1.78-.084-1.233 1.187-1.24 2.037-.036 4.344.03 8.688-.042 13.03-.025 1.522.927 1.338 1.83 1.27.866-.06 2.143.528 2.088-1.234-.055-1.848-.012-3.703-.012-5.55.006-6.086.485-6.595 6.515-6.687 1.19-.02 1.197-1.07 1.522-1.74.466-.963-.517-.963-1.057-1.123z"/></svg>