<svg xmlns="http://www.w3.org/2000/svg" viewBox="0 0 667 222.7"><path d="M623.5 137.2h-10.6l12.8-14.9h10.7l-12.9 14.9m-20.1 23.4l10.3-12h-10.6l-9.8 11.4-8.7-11.4h-15.4v2.9h.7c5.2.4 6.4 1.3 9.6 5.6l6.3 8.4-10.3 11.9h10.7l4.6-5.4 9.9 13.2h11.9l-18.9-24.7h9.7m20.2-23.3v11.4h-6.7v4.5h6.7v22.5c0 9.7 6.3 10.5 13.9 10.5 1.9 0 3.8-.3 5.9-.6l.6-.1v-4.5l-.9.2c-.9.1-1.9.2-3 .2-6.1 0-6.4-1.7-6.4-6.9v-21.3H645v-4.5h-11.3v-11.4h-10.1M568.2 163c0-10.1-5.7-15.2-16.7-15.2-12.5 0-18.9 6-18.9 17.9 0 12.8 8.2 20.4 21.9 20.4 5.9 0 10.6-1.5 12.3-2l.6-.2V179l-1 .4c-1.6.6-4.6 1.2-7.9 1.2-10.7 0-14.7-9-14.9-16.9h24.6v-.7zm-17.1-11.2c5.4 0 6.8 3.9 7 7.4h-14.5c.2-2.6 1.9-7.4 7.5-7.4m-28.7-19h-10.1v39.8c-2-3.1-26.2-39.8-26.2-39.8h-23.3v3l2 .4c6.2 1 6.7 1.1 6.7 7v42.1h10.8v-41.7c2.1 3.1 27.5 41.7 27.5 41.7h13.3v-52.5h-.7m-198 4.4v11.4h-6.7v4.5h6.7v22.5c0 9.7 6.3 10.5 13.8 10.5 1.9 0 3.8-.3 5.9-.6l.6-.1v-4.5l-.8.1c-.9.2-1.9.3-3.1.3-6 0-6.3-1.8-6.3-6.9v-21.3h11.3v-4.5h-11.3v-11.4h-10.1m113 25.8c0-10.1-5.7-15.2-16.7-15.2-12.5 0-18.9 6-18.9 17.9 0 12.8 8.2 20.4 21.9 20.4 6 0 10.6-1.5 12.3-2.1l.6-.1V179l-1 .3c-1.6.6-4.6 1.3-7.8 1.3-10.8 0-14.8-9-15-16.9h24.6v-.7zm-17.1-11.2c5.4 0 6.8 3.9 7 7.4h-14.5c.3-2.6 1.9-7.4 7.5-7.4m-39.5-4c-7.4 0-11.7 4.6-13.8 8v-25.1l-.8.1-16 2v2.8h.7c5 .2 6 1.3 6 6.2v43.4H367v-18.7c0-6.9 5.1-12.2 9.5-12.2 5.6 0 5.6 4.2 5.6 8v22.9h10v-24.1c0-4 0-13.4-11.3-13.4M289.1 163c0-10.1-5.6-15.2-16.7-15.2-12.5 0-18.9 6-18.9 17.9 0 12.8 8.2 20.4 21.9 20.4 6 0 10.6-1.5 12.3-2.1l.6-.1V179l-1 .3c-1.6.6-4.6 1.3-7.8 1.3-10.8 0-14.8-9-15-16.9h24.6v-.7zM272 151.8c5.4 0 6.8 3.9 7 7.4h-14.5c.3-2.6 1.9-7.4 7.5-7.4m-22.7 4.3v-7.9l-.6-.1c-1.7-.2-3.3-.3-4.8-.3-5.7 0-8.7 4.1-10.2 7.4v-7.6l-.9.2-16 2.5v2.8h.7c5.1.2 6.1 1.2 6.1 6v26.1h10.1v-18.8c0-3.2 1-10.5 10.5-10.5 1.1 0 2.3.3 3.5.6l1.6.5v-1m-47.1-12.8c3.5 0 6.3-2.5 6.3-5.5s-2.8-5.4-6.2-5.4c-3.4 0-6.2 2.4-6.2 5.4 0 3 2.8 5.5 6.1 5.5m-11.8 7.1v2.8h.7c5 .2 6 1.2 6 6v26.1h10v-37.6l-.8.2-15.9 2.5m-22.7-2.5c-3.8 0-7.4 1.8-10.6 5.2v-5.3l-.9.1-16 2.5v2.8h.7c5 .2 6 1.2 6 6v41.6H157v-18.9c1.8 2.2 4.8 4.3 10.3 4.3 10.5 0 16.1-6.8 16.1-19.7 0-11.9-5.7-18.6-15.7-18.6zm-2.9 5.5c6.9 0 7.7 7.5 7.7 13.1 0 9.5-2.5 14.2-7.6 14.2-6.5 0-7.9-6.2-7.9-11.3v-3.1c0-3.9.7-12.9 7.8-12.9m-41.4 9c-3.9-1.9-7.4-3.6-7.4-6.3 0-3.1 3.8-3.5 5.4-3.5 4.1 0 7.8 2.3 9.4 3.3l1.6.9v-7.5l-1.3-.3c-1.8-.4-5.2-1.1-9.1-1.1-9.5 0-15.2 4-15.2 10.8 0 6.2 5.9 9 11.1 11.6 4 2 7.9 3.8 7.9 6.8 0 2.7-2.5 4.3-6.8 4.3-4.6 0-8.6-2.4-11-3.8l-1.1-.7v7.8l.8.1c2 .5 5.8 1.4 11 1.4 10.2 0 16.3-4.2 16.3-11.2 0-6.9-6.2-9.9-11.6-12.6m-39.32-14.5c-7.43 0-11.85 5-13.87 8v-8.1l-.83.1-16.14 2.5v2.8h.69c5.11.2 6.22 1.2 6.22 6.1v26h10.06V166c0-5.1 4.8-11.7 9.9-11.7 4.83 0 5.08 4.1 5.08 10.6v20.3h10.06v-26c0-7.4-3.96-11.4-11.17-11.4M41.88 132L22 133.8v3h.63c8 1 8 1 8 6.8v41.7h12.04v-53.4l-.79.1M376.3 85.1c-1.9-5.7-3-11.7-3-18 0-8.8 1.6-17.4 5.8-24.5 4.4-7.4 11.1-13.1 19.2-16.1 7.7-2.9 16-4.5 24.7-4.5 10.1 0 19.6 2.2 28.2 6 8.1 3.4 14.2 10.7 16 19.4.3 1.8.6 3.6.7 5.4h-23.4c-.1-2.3-.4-4.5-1.2-6.5-1.8-4.7-5.7-8.3-10.5-9.7-3.1-1-6.4-1.5-9.8-1.5-3.8 0-7.6.7-11 1.9-5.7 2-10.2 6.6-12.2 12.4-2 5.5-3.1 11.5-3.1 17.7 0 5.2.9 10.1 2.2 14.8 1.7 6.2 6.3 11.1 12.2 13.3 3.7 1.4 7.7 2.3 11.9 2.3 3.6 0 7.1-.6 10.4-1.6 4.3-1.4 7.9-4.6 9.7-8.8 1.3-2.8 1.9-5.8 1.9-9h23.5c-.1 2.7-.5 5.4-1.1 8-2 8.3-7.9 15.3-15.6 18.5-8.9 3.8-18.6 5.9-28.8 5.9-7.9 0-15.5-1.2-22.6-3.5-10.9-3.4-20.3-11.2-24.1-21.9m-206.9 23.3h22.3V24.1h-22.3v84.3zM84.23 24.1v33.7h45.07V24.1h22.4v84.3h-22.4V71.3c0 .1-45.07 0-45.07 0v37.1H61.89s.12-84.3 0-84.3h22.34m503.17 84.3h22.3V24.1h-22.3v84.3zm-210.3 0h-24.9c.1 0-7.3-18.1-7.3-18.1h-41.8s-7.2 18.2-7.3 18.1h-24.9l39.4-84.3c0 .1 27.4 0 27.4 0l39.4 84.3zM324 38.5l-15.5 38.3h31.1L324 38.5m-33.7-14.4v14.4h-34.1v69.9h-22.4V38.5h-34.1V24.1h90.6m212 0v33.7h45.1c0 .2-.1-33.7 0-33.7h22.3s.1 84.2 0 84.3h-22.3V71.3c0 .1-45.1 0-45.1 0v37.1h-22.4s.2-84.3 0-84.3h22.4"/></svg>