<svg xmlns="http://www.w3.org/2000/svg" viewBox="0 0 722 164"><path d="M626.49 87.515c.21-1.49.31-3.57.31-5.114 0-19.666-17.38-35.61-38.83-35.61-21.44 0-38.82 15.944-38.82 35.61 0 19.67 17.38 35.62 38.82 35.62 14.74 0 27.56-7.53 34.14-18.624l-8.58-3.173c-5.18 7.917-14.69 13.227-25.56 13.227-5.33 0-9.65-5.05-9.65-10.387V87.518h48.17zm-48.17-21.773c0-5.332 4.32-9.652 9.65-9.652 5.34 0 9.66 4.32 9.66 9.652v12.686h-19.31zM367.08 87.515c.2-1.49.31-3.57.31-5.114 0-19.666-17.38-35.61-38.83-35.61-21.44 0-38.83 15.944-38.83 35.61 0 19.67 17.39 35.62 38.83 35.62 14.74 0 27.55-7.53 34.13-18.624l-8.57-3.173c-5.19 7.917-14.69 13.227-25.56 13.227-5.33 0-9.66-5.05-9.66-10.387V87.518h48.18zM318.9 65.742c0-5.332 4.33-9.652 9.66-9.652 5.34 0 9.66 4.32 9.66 9.652v12.686H318.9zM159.28 46.79c-21.45 0-38.83 15.944-38.83 35.61 0 19.67 17.38 35.62 38.83 35.62 21.44 0 38.83-15.95 38.83-35.62 0-19.666-17.39-35.61-38.83-35.61zm9.66 52.273c0 5.337-4.33 9.657-9.66 9.657s-9.66-4.32-9.66-9.657v-33.32c0-5.333 4.33-9.653 9.66-9.653s9.66 4.32 9.66 9.652zm355.79-12.115l-13.06-36.924h-19.13l-13.07 38.44-13.63-38.44h-37.49L414.9 82.4l-18.93-32.376h-32l37.68 64.386-4.92 12.11c-1.71 3.79-5.79 3.98-6.59.38 0-6.51-5.27-11.78-11.78-11.78s-11.78 5.27-11.78 11.78c0 6.82 6.86 15.72 20.3 15.15 13.45-.57 19.12-11.74 21.02-16.47l31.14-75.308 22.45 63.378h20.45l12.49-36.55 12.88 36.55h19.31l21.78-63.626h-11.17zM236.91 56.082l-2.08-6.058h-28.02v63.626h28.02V75.398c0-8.333 5.3-12.876 9.85-12.876 3.78 0 8.71.757 8.71 9.09v42.038h28.02V72.37c0-23.102-25.94-32.19-44.5-16.288zM56.082 22H22v91.65h34.082V68.205H76.91v45.445H111V22H76.91v35.597H56.082zm618.048 91.65V22h25.75v91.65zM662.01 22h-25.75v91.65h25.75z"/></svg>