<svg xmlns="http://www.w3.org/2000/svg" viewBox="0 0 300.00001 56.179805"><path d="M222.234 2.79L196.98 28.046l25.254 25.252V2.79zm.006 0l25.25 25.255-25.252 25.25h50.506l-25.252-25.25L272.746 2.79H222.24zm50.506 0v50.507L298 28.045 272.746 2.79zm-93.16.842l.73 17.12-1.028.038c-.497-4.328-2.128-7.375-4.184-9.36-.592-.572-1.715-1.728-3.334-2.75-2.7-1.7-6.713-3.203-11.482-2.354-7.16 1.276-10.848 6.008-12.69 10.563-2.27 5.598-3.707 15.175.143 23.255 3.122 6.557 9.123 9.29 13.752 9.994 3.945.6 12.69.414 19.355-8.577l1.063.707c-5.177 7.303-12.052 11.98-19.92 11.91-10.067-.09-16.393-5.637-19.284-8.933-3.05-3.473-5.39-10.066-5.42-15.81-.022-5.104 1.103-10.785 2.937-14.108 3.155-5.707 9.748-11.378 18.43-12.23 6.506-.635 10.78.64 14.432 2.73 1.824 1.046 2.85 1.167 3.843.744.99-.427 1.792-1.276 1.792-2.942h.867zm-73.594 46.806c3.5 1.084 10.168 1.917 14.814-1.413 5.574-3.99 6.748-13.738-1.12-18.817-3.166-2.047-11.07-1.905-13.694-1.288v21.518zm0-24.368c2.48.636 9.785.808 12.62-.993 4.44-2.82 5.98-7.344 5.162-11.345-.492-2.404-1.764-4.622-3.96-6.165-4.322-3.05-10.56-2.555-13.822-1.562V26.07zm16.306 1.416c9.01 3.093 11.58 9.454 9.906 16.007-1.963 7.704-10.65 9.27-13.468 9.644-1.272.164-4.518.15-7.727.15-5.728.007-12.973-.01-18.79-.01v-.922h2.98c1.893 0 4.055-1.597 4.055-4.006V7.99c0-2.41-2.162-4.04-4.04-4.04h-2.977v-.924c5.138 0 12.62-.002 17.972 0 4.324 0 6.672.415 8.19.71 2.55.494 9.996 2.694 11.767 9.64 1.37 5.378-1.31 12.16-7.87 14.108M89.514 40.07c.18 2.97-1.664 7.48-4.22 9.78C82.84 52.07 79.34 54 74.664 54c-5.318 0-9.89-2.836-11.557-3.474-1.01-.387-2.332-.346-3.12.142-.923.568-1.49 1.487-1.702 3.19h-.78V36.346h.78c.71 5.388 3.225 8.553 4.787 10.35 2.553 2.944 7.373 4.61 12.016 3.865 3.69-.59 7.728-4.594 7.284-9.553-.157-1.79-.55-4.392-4.27-6.822-2.334-1.527-5.65-3.692-8.792-5.778-3.965-2.63-7.564-5.476-8.576-6.63-1.327-1.51-2.98-3.684-2.98-7.16 0-2.978 1.135-6.38 3.546-8.65C63.708 3.702 66.968 2 71.648 2s8.226 2.48 9.43 3.047c1.204.566 2.536.434 3.295 0 .745-.427 1.24-1.065 1.455-2.766h.78v16.592h-.78c-.71-5.39-3.05-9.428-4.68-10.918-1.63-1.49-4.82-3.545-9.57-2.624-4.558.884-6.776 2.945-7.196 6.592-.32 2.78 1.188 4.49 2.056 5.53 1.773 2.126 13.02 8.5 18.114 12.904 2.624 2.268 4.68 4.964 4.96 9.714m-49.23-9.992c-.033 0 0 18.042 0 18.042 0 2.27-1.948 4.258-4.5 4.258h-2.446v.92h20.7v-.92h-2.445c-2.517 0-4.5-2.022-4.5-4.258V7.925c0-2.2 1.95-4.254 4.5-4.254h2.447v-.923h-20.7v.924h2.445c2.587 0 4.5 2.054 4.5 4.254v19.6H15.757v-19.6c0-2.2 1.984-4.253 4.502-4.253H22.7v-.923H2v.924h2.448c2.55 0 4.502 2.054 4.502 4.254V48.12c0 2.236-1.952 4.258-4.502 4.258H2v.92h20.7v-.92H20.26c-2.518 0-4.502-2.022-4.502-4.258 0 0 .032-18.042 0-18.042h24.527z"/></svg>