<svg xmlns="http://www.w3.org/2000/svg" viewBox="0 0 237.8 87.15"><path d="M215.8 22.05c-.3-.1-1.4.15-3.8.85-8.1 2.3-20.3 5.1-29.7 12.9-9.7-8.5-25.3-12.2-29-12.9-3.2-.7-8.5-1.5-3.9.2 11.2 3.6 29.1 18.6 32.2 23.4.4.6.8.6 1.3 0 3.7-4.7 13.5-13.4 31.7-23.5 1-.5 1.5-.87 1.2-.95zM22 32.5v32.4h7.5V52h12.6v12.9h7.4V39.3h5.7v25.6h7.9V39.3h7.1c-1.72 2.66-2.64 5.94-2.64 9.55 0 8.9 5.8 16 15.7 16 7.8 0 13.3-4.9 14-12.6h-6.8c-.5 4.1-2.9 6.9-7.2 6.9-6.3 0-8.7-5.2-8.7-10.3 0-5.4 2.4-10.5 8.7-10.5 3.5 0 6.5 2.3 7 5.3h6.8c-.9-7.1-6.8-11-13.8-11-.4 0-.78 0-1.16.1l.2-.2H42.1v12.8H29.5v-12.8H22zm142.5 1.45v11.7h-.1c-1.2-3.3-4.6-5.1-8.1-5.1-7 0-10.4 5.7-10.4 12.3 0 6.6 3.4 12.3 10.4 12.3 3.4 0 7.1-2.1 8.3-5.1h.1v4.4h2.6v-28.4l-2.8-2.1zm-53.4 6.6c-7.1 0-11 5.7-11 12.3 0 6.7 3.9 12.3 11 12.3s11-5.6 11-12.3c0-6.6-3.9-12.3-11-12.3zm23.7 0c-3.3 0-6.4 1.9-7.4 4.7h-.1v-4h-2.8v23.2h2.8v-13.5c.1-4.6 2.8-8 7.3-8 4.6 0 5.9 3 5.9 7v14.5h2.8v-14.9c0-5.6-1.9-9-8.5-9zm71.7.39c-3.8.1-6.6 2.25-8 5.81h-.1v-5.5h-2.6v23.2h2.9v-12.3c0-4.9 3.5-8.6 8.6-8.4v-2.8h-.8zm-31.3 1.71c-2.9 2.3-4.5 6-4.5 10.2 0 6.7 3.9 12.3 11 12.3s11-5.6 11-12.3c0-3.8-1.3-7.3-3.7-9.6l-1.9 1.9c1.8 1.9 2.8 4.8 2.8 7.7 0 5-2.7 9.9-8.2 9.9-5.4 0-8.1-4.9-8.1-9.9 0-3.3 1.2-6.5 3.5-8.4l-1.9-1.8zm-64.1.3c5.5 0 8.2 5 8.2 9.9 0 5-2.7 9.9-8.2 9.9-5.4 0-8.1-4.9-8.1-9.9 0-4.9 2.7-9.9 8.1-9.9zm45.2 0c6.1 0 8.2 5.1 8.2 9.9 0 4.8-2.1 9.9-8.2 9.9-5.4 0-7.6-5.1-7.6-9.9 0-4.8 2.2-9.9 7.6-9.9z"/></svg>