<svg xmlns="http://www.w3.org/2000/svg" viewBox="0 0 298 420"><path d="M27.99.135V56.75h18.92V37.8h17.31v18.95h18.93V.135H64.22V18.83H46.91V.135H27.99zm63.38 0V18.91H108v37.84h19V18.91h16.6V.135H91.37zm60.53 0V56.75h18.5V28.69l13.1 20.13h.3l13-20.13v28.06h18.9V.135h-19.8L183.8 20.03 171.7.135h-19.8zm73.2 0V56.75h45.5V38.04H244V.135h-18.9zM.313 82.65L27.38 386.3 148.9 420l121.8-33.8 27.1-303.55H.312zM149 107.5h121.6l-23.1 259.4-98.5 27.3v-38.6h-.1l-76.31-21.2-5.22-58.5h37.43l2.6 29.7 41.5 11.2h.1v-59.5H65.71l-9.15-102.6-.9-10H149v-37.2zm-52.64 74.4l3.4 38.2H149v-38.2H96.36z"/><path d="M149 107.5v37.2h93.2l-.9 10-1.7 18.9-.7 8.3H149v38.2h86.5l-.9 10-8.8 98-.6 6.3-76.2 21.2v38.6l98.5-27.3 23.1-259.4H149zm0 149.8v59.5l41.4-11.2 4.4-48.3H149z" opacity=".5"/></svg>