<svg xmlns="http://www.w3.org/2000/svg" viewBox="0 0 425 425" class="partner"><path class="logotype logotext" d="M190.7 240.3s.5-.4.3-1.1c-37.1-81.1-87.7-142.39-87.7-142.39S75.71 123 77.69 149.2c1.07 19.9 15.95 31.6 15.95 31.6 24.06 23.3 82.16 53.1 95.76 59.8 0 0 .9 0 1.3-.3zm-9 19.8c-.4-.7-1.3-.7-1.3-.7l-96.82 3.2c10.52 18.8 28.22 33.3 46.62 29.1 12.8-3.2 41.5-23.4 51-30.2.8-.7.5-1.4.5-1.4zm1.4-8.5c.5-.7-.4-1.4-.4-1.4-42.5-28.7-124.92-73-124.92-73-7.51 23.4 2.58 42.2 2.58 42.2 10.53 22 30.59 28.7 30.59 28.7 9.25 3.9 18.45 4.2 18.45 4.2 1.5.4 57.7 0 72.7 0 .6 0 1-.7 1-.7zm38.7-19.1c.7.3 1.4-.7 1.4-.7 9.2-13.5 51-75.5 59.5-113.4 0 0 4.6-18.4 0-30.81 0 0-6-23.38-31.9-29.76 0 0-7.4-1.77-15.2-2.83 0 0-28.7 36.85-14.9 176.4h.3c0 1.1.8 1.1.8 1.1zm22.6 26.9s-.7 0-1 .7c0 0 0 1.1.3 1.4 9.2 6.8 37.6 26.3 51 30.2 0 0 25.2 8.5 46.8-28.7l-97.1-3.6zm-9.9-19.1s.7.3 1.4 0c13.8-6.7 71.6-36.2 95.7-59.5 0 0 14.9-12.1 15.9-31.9C349 122 322 96.81 322 96.81s-50.6 60.89-87.8 142.09h.3s-.7.7 0 1.4zM367 177.2c-6 3.3-12.2 6.3-18 10-7.6 4-15 8.2-22.5 12.4-12.7 7.1-25.3 14.4-37.8 21.8-4.8 2.4-9.2 5.5-13.9 8.2-2.5 1.6-11 7-12.9 7.7-3.1 2.6-6.9 4.1-10 6.6-3.4 1.5-6.1 4.3-9.3 6-1.8 1.7.5 2.6 2.1 2.1h75.2c12.6-2 24.8-7.4 33.7-16.7 3.6-3.7 6.7-8 9.3-12.5 2.6-4.4 4.4-9.3 5.5-14.2.7-2.8 1.1-5.7 1.5-8.6 0-3.1.7-6.1 0-9.2.1-2.2-.2-4.4-.8-6.5-.5-2.4-.9-5.3-2-7.1zm-163.8 55.3c-.7.3-1.4-.7-1.4-.7-9.2-13.5-50.9-75.5-59.4-113.4 0 0-4.6-18.4 0-30.81 0 0 6-23.38 31.8-29.76 0 0 7.4-1.77 15.2-2.83 0 0 28.7 36.85 14.9 176.4h-.3c0 1.1-.8 1.1-.8 1.1zm167 137.5v-50.7h-12V370zM316 339.8h31.9v8.9H316c0 9.2 3.9 12.4 13.1 12.4h18.8v8.9h-19.5c-6.4 0-11.7-.4-17-4.3-5.7-4.2-8.5-11-8.5-20.2 0-17.7 8.1-26.2 25.9-26.2h19.1v8.9h-18.8c-8.5 0-12.7 3.9-13.1 11.6zm-88.6-20.5l12.8 39 10.6-39h13.8l12.1 39 12-39h11.7l-17 50.7h-14.2l-11.7-37.9-10.2 37.9h-13.9L215 319.3zm-28.6 0l23.3 50.7h-12.7l-5-12.1h-23.9l-4.9 12.1h-12.2l23.2-50.7h12.2zm-14.6 29.8h16.3l-8.3-19.5-8 19.5zm-59.3.7c0 8.8 2.8 12.7 12.3 12.7 9.6 0 12.4-3.9 12.4-12.7v-30.5h11.5v30.8c0 6.4-.8 11-3.2 13.5-4.5 4.9-11.1 7.1-20.7 7.1-9.5 0-16.1-2.2-20.6-7.1-2.6-2.8-3.2-7.1-3.2-13.5v-30.8h11.5v30.5zm-32.5-10v-20.5h11.5V370H92.4v-20.9H66.68V370H55.12v-50.7h11.56v20.5z"/></svg>