<svg xmlns="http://www.w3.org/2000/svg" viewBox="0 0 339 141.2"><path d="M317 52.32h-23.5v39.19c0 1.78-.7 3.28-1.8 4.51-1.1 1.1-2.6 1.64-4.3 1.77h-13.7c-1.9-.13-3.4-.68-4.5-1.77-1.1-1.23-1.8-2.73-1.8-4.51V52.32h-23.5v41.24c.2 5.47 1.1 10.24 3.5 14.04 2.3 3.9 5.3 6.7 9.2 8.6 4.1 1.9 8.8 3 14.1 3h22.8v-.2c4.9 0 9.2-1.1 12.7-3.2 3.4-2.2 6.2-5.2 7.9-9 1.9-3.8 2.9-8.33 2.9-13.24V52.32zM81.96 54.78c-4.1-1.78-8.61-2.6-13.52-2.46H53.28L47.4 53c-1.36.41-2.05.69-2.05.69V22H22v97.2h23.35V79.91c.14-1.64.69-3.28 1.92-4.37 1.22-1.1 2.59-1.78 4.5-1.78h13.66c1.64 0 3.14.69 4.37 1.78s1.77 2.73 1.91 4.37v39.29h23.36V76.9c0-5.87-1.23-10.65-3.56-14.34-2.45-3.55-5.59-6.14-9.55-7.78zm79.44 36.73c-.1 1.78-.6 3.28-1.7 4.51-1.3 1.1-2.8 1.64-4.5 1.77h-13.7c-1.8-.13-3.3-.68-4.4-1.77-1.2-1.23-1.7-2.73-1.9-4.51V52.32h-23.3v41.24c0 5.47 1.1 10.24 3.2 14.04 2.2 3.9 5.4 6.7 9.3 8.6 4.1 1.9 8.6 3 14.1 3h22.9v-.2c5 0 9.2-1.1 12.6-3.2 3.4-2.2 6.2-5.2 8.1-9 1.7-3.8 2.7-8.33 2.8-13.24V52.32h-23.5v39.19zm41.3 27.69H226V22h-23.3v97.2z"/></svg>