<svg xmlns="http://www.w3.org/2000/svg" viewBox="0 0 100 100"><path d="M35.28 8.527v8.943c-5.46.15-9.77 1.29-12.84 3.6-3.31 2.49-5 6.35-5 11.1v1.23l-2.17-2.17a1.338 1.338 0 0 0-.96-.41 1.338 1.338 0 0 0-.93 2.3l2.18 2.16H8.53v20.53h7.03l-2.18 2.16a1.34 1.34 0 1 0 1.89 1.9l2.17-2.17v1.22c0 10.59 2.26 18.76 7.03 24.29 4.73 5.54 11.9 8.26 21.08 8.26 9.2 0 16.41-3.15 21.13-9.44 2.15-2.87 3.79-6.34 4.93-10.41 4.08-1.15 7.55-2.78 10.41-4.93 6.29-4.72 9.45-11.94 9.45-21.14 0-9.18-2.72-16.34-8.25-21.09-5.55-4.75-13.7-7.01-24.3-7.01h-1.23l2.18-2.18a1.338 1.338 0 0 0-.98-2.3 1.338 1.338 0 0 0-.92.41l-2.16 2.18V8.527H35.28zm2.68 2.673h15.16v7.04l-.55.55.55.56v7.01h-7.37a1.338 1.338 0 0 0-.23 0 1.338 1.338 0 0 0-.18 0h-7.38V11.2zm19.73 8.92h1.23c10.22 0 17.69 2.2 22.55 6.38 4.86 4.17 7.34 10.39 7.34 19.05 0 8.62-2.79 14.8-8.4 19-2.21 1.66-4.9 3.01-8.07 4.04.8-3.82 1.22-8.07 1.3-12.78h8.92V35.28H62.04v7.04l-2.17-2.18a1.338 1.338 0 0 0-.97-.41 1.338 1.338 0 0 0-.93 2.31l2.19 2.16h-3.47c-3.36 0-5.58-1.18-7.22-3.81-1.53-2.44-2.43-6.22-2.56-11.35h8.9v-7.03l2.16 2.19a1.34 1.34 0 1 0 1.9-1.89l-2.18-2.19zm-22.41 0v8.89h8.95c.13 5.44 1.04 9.7 2.96 12.75 2.09 3.33 5.42 5.1 9.5 5.1h3.47l-2.19 2.17a1.344 1.344 0 1 0 1.9 1.9l2.17-2.19V55.78h8.91c-.1 5.15-.6 9.69-1.54 13.6-3.92.95-8.45 1.46-13.6 1.55v-8.91H35.28v20.53h20.53v-8.94c4.7-.1 8.96-.5 12.77-1.29-1.03 3.16-2.38 5.86-4.03 8.08-4.2 5.6-10.37 8.38-19 8.38-8.66 0-14.88-2.44-19.06-7.3-4.17-4.87-6.37-12.34-6.37-22.56V57.7l2.19 2.17a1.34 1.34 0 1 0 1.88-1.9L22 55.81h7.04V35.28h-7.02l2.17-2.16a1.338 1.338 0 1 0-1.88-1.89l-2.19 2.17v-1.23c0-4.16 1.3-7 3.93-8.96 2.42-1.82 6.15-2.9 11.23-3.06zM11.2 37.94h7.03l.55.55.56-.55h7.03V53.1h-7.03l-.56-.56-.55.56H11.2V37.94zm53.53 0h15.16V53.1H64.73v-7.03l.55-.55-.55-.55v-7.03zM37.96 64.7h15.16v15.16H37.96V64.7z"/></svg>