<svg xmlns="http://www.w3.org/2000/svg" viewBox="0 0 434 65"><path d="M228.5 53.48H258c6 0 9-1.7 8-10.3v-32.1h-9v30.3c0 3.6 0 4-3 4h-16.2v-34.3h-9.3v42.4zm199.6-42.4v42.4h-9v-42.4h9zm-152.1 0h29c5 0 9 .6 9 9.1v33.3h-10v-30.2c0-3.7 0-4.5-3-4.5h-16v34.7h-9v-42.4zm-86.2 0l11.5 17.3 11.4-17.3H224l-18 27.1v15.3h-9.3v-15.3l-18.2-27.1h11.3zm-55 0h9.3v16.8h20.6v-16.8h9.2v42.4h-9.2v-17.3h-20.6v17.3h-9.3v-42.4zM352 22.78c0-2.4-2-4-4-4h-16v26.6h16c4-.2 4-2.4 4-4.1v-18.5zm9-2.6v23c0 7.3-4 10.3-9 10.3h-29v-42.4h29c8 0 9 5 9 9.1zm49.1-9.1v42.4h-9v-12.2h-21v12.2H371v-33.3c0-5.8 2-9.1 9.1-9.1h30zm-9 7.7h-18c-2 .3-3 1-3 4.5v9.7h21v-14.2zM57.84 5.002c-3.6.03-7.19.255-10.74.68-13.3 1.9-25.9 4.898-35.9 14.098-4.798 4.4-7.697 11.1-5.397 17.5 3.1 7.8 11.297 13 18.497 16 21.5 8.8 50.7 8.4 71.4-1.5 7.2-3.7 15.2-9.6 16.1-18.1.9-9.3-7.3-16.2-14.5-20.1-2.6-1.5-5.4-2.6-8.3-3.6-9.6-3.375-20.38-5.062-31.16-4.978zm.86 4.478c9.5-.1 18.5 1.4 26.9 3.8.6.3 1.1.3 1.5.9.2.5-.4.9-.6 1.3-7.1 5.5-15 8.6-23.2 11.2-4.3 1-8.5 2.9-13.2 1.8-1-.2-2-1-2.6-2-1.1-3.2.4-6.5 1.7-9.2 1.9-3.6 5-7.7 9.5-7.8zm-18.31 1.79c.39 0 .79 0 1.01.41l-.1.4c-9.1 10.2-14.9 22-20.5 33.7-1 1-2.1-.4-3-.8-5-3.2-9.496-8.5-8.196-14.8C11.7 22.18 20 17.78 27 14.88c4.2-1.6 8.4-2.9 13-3.6h.39zm56.41 7.21c1.4.1 2.6 1.3 3.7 2.2 4.2 3.4 8 8.1 6.8 13.8-2.1 8.4-11.3 12.8-18.6 15.7-3.9 1.4-8 2.7-12.3 3.1-.3 0-.7 0-.8-.4l.1-.4c6.2-7 10.9-14.8 15-22.7 1.9-3.5 3.7-7.2 5.3-10.8.2-.3.4-.4.8-.5zM64.69 35.79c.47 0 .93 0 1.41.1 1.5.2 3 1.3 3.5 2.7.8 4.2-1.3 7.7-3.2 11.1-2 3.1-5.3 5.9-9.4 5.4-9-.1-17.9-1.5-26.1-4-.4-.1-.8-.3-.9-.7-.3-.4.1-.9.3-1.1 7.5-6.2 16.4-8.9 25.3-11.9 2.8-.87 5.83-1.67 9.09-1.59z"/></svg>