<svg xmlns="http://www.w3.org/2000/svg" viewBox="0 0 870 414"><path class="logotype logotext" d="M55 55v20.8h147.9V55H55zm168.9 0v20.8h210.8S413.2 55 384.6 55H223.9zm252.2 0v20.8h127.5L596 55H476.1zM695 55l-7.5 20.8h126.3V55H695zM55 95.45v20.75h147.9V95.45H55zm168.9 0v20.75h235.3s-2.8-16-7.6-20.75H223.9zm252.2 0v20.75h141.5l-7-20.75H476.1zm203.8 0l-7 20.75h140.9V95.45H679.9zM97.5 135.9v20.8h64.1v-20.8H97.5zm168.9 0v20.8h64.1v-20.8h-64.1zm126.4 0v20.8h64c.1 0 4.1-11 4.1-20.8h-68.1zm125.8 0v20.8h113.6l-7.6-20.8h-106zm147.3 0l-7.6 20.8h114.2v-20.8H665.9zM97.5 176.4v20.8h64.1v-20.8H97.5zm168.9 0v20.8H430s13.7-10.7 18.1-20.8H266.4zm252.2 0v20.8h64v-11.6l4.1 11.6h117.4l4.3-11.6v11.6h64.1v-20.8H652.2l-6.4 17.6-6.4-17.6H518.6zM97.5 216.8v20.8h64.1v-20.8H97.5zm168.9 0v20.8h181.7c-4.4-10.1-18.1-20.8-18.1-20.8H266.4zm252.2 0v20.8h64v-20.8h-64zm75.7 0l7.7 20.8h88l7.4-20.8H594.3zm114.1 0v20.8h64.1v-20.8h-64.1zM97.5 257.3v20.8h64.1v-20.8H97.5zm168.9 0v20.8h64.1v-20.8h-64.1zm126.4 0v20.8h68.1c0-9.8-4.1-20.8-4.1-20.8h-64zm125.8 0v20.8h64v-20.8h-64zm90.2 0l7.5 20.8h59l7.6-20.8h-74.1zm99.6 0v20.8h64.1v-20.8h-64.1zM56.2 297.7v20.9h147.9v-20.9H56.2zm167.7 0v20.9h227.7c4.8-4.8 7.6-20.9 7.6-20.9H223.9zm253.3 0v20.9h105.4v-20.9H477.2zm146.2 0l7.7 20.9h30l7.3-20.9h-45zm85 0v20.9H815v-20.9H708.4zM56.2 338.2V359h147.9v-20.8H56.2zm167.7 0V359h160.7c28.6 0 50.1-20.8 50.1-20.8H223.9zm253.3 0V359h105.4v-20.8H477.2zm160.8 0l7.5 20.7 1.2.1 7.6-20.8H638zm70.4 0V359H815v-20.8H708.4z"/></svg>