<svg xmlns="http://www.w3.org/2000/svg" viewBox="0 0 600 200"><path d="M76.688 171.416v1.923h-5.444v14.23h-2.21v-14.23H63.59v-1.923h13.098zM78.91 171.416H90.63v1.98h-9.59v4.902h8.864v1.872h-8.864v5.474h9.755v1.926H78.91v-16.154zM105.15 172.592c1.115 1.078 1.734 2.302 1.858 3.673h-2.133c-.237-1.04-.71-1.865-1.42-2.473-.71-.61-1.705-.914-2.986-.914-1.564 0-2.826.56-3.787 1.68-.962 1.118-1.442 2.834-1.442 5.143 0 1.895.435 3.43 1.302 4.608.87 1.178 2.163 1.767 3.884 1.767 1.584 0 2.79-.618 3.618-1.857.44-.653.767-1.51.984-2.576h2.133c-.187 1.703-.81 3.128-1.87 4.28-1.267 1.385-2.978 2.08-5.13 2.08-1.856 0-3.414-.57-4.675-1.707-1.66-1.505-2.49-3.827-2.49-6.967 0-2.383.624-4.338 1.87-5.865 1.35-1.657 3.207-2.485 5.577-2.485 2.022-.002 3.59.536 4.707 1.614zM110.043 171.416h2.21v6.674h8.303v-6.674h2.21v16.154h-2.21v-7.556h-8.303v7.556h-2.21v-16.154zM126.253 171.416h2.578l8.057 13.053v-13.054h2.09v16.154h-2.46l-8.176-13.038v13.038h-2.088v-16.154zM155.825 173.723c1.07 1.432 1.606 3.26 1.606 5.49 0 2.41-.61 4.417-1.836 6.016-1.437 1.876-3.486 2.814-6.148 2.814-2.485 0-4.44-.82-5.862-2.463-1.268-1.583-1.903-3.587-1.903-6.006 0-2.182.544-4.052 1.63-5.606 1.392-1.994 3.452-2.99 6.18-2.99 2.852-.002 4.964.915 6.335 2.745zm-1.93 10.3c.86-1.384 1.292-2.975 1.292-4.77 0-1.902-.497-3.432-1.49-4.59-.994-1.162-2.352-1.74-4.075-1.74-1.672 0-3.035.573-4.09 1.722-1.057 1.15-1.585 2.842-1.585 5.078 0 1.79.452 3.302 1.36 4.53.903 1.23 2.372 1.844 4.403 1.844 1.928 0 3.323-.692 4.184-2.075zM160.037 171.416h2.188v14.228h8.105v1.926h-10.294v-16.154zM185.87 173.723c1.07 1.432 1.605 3.26 1.605 5.49 0 2.41-.612 4.417-1.837 6.016-1.437 1.876-3.486 2.814-6.148 2.814-2.485 0-4.44-.82-5.862-2.463-1.268-1.583-1.903-3.587-1.903-6.006 0-2.182.543-4.052 1.628-5.606 1.393-1.994 3.453-2.99 6.18-2.99 2.854-.002 4.965.915 6.336 2.745zm-1.93 10.3c.86-1.384 1.292-2.975 1.292-4.77 0-1.902-.497-3.432-1.49-4.59-.994-1.162-2.352-1.74-4.075-1.74-1.672 0-3.035.573-4.09 1.722-1.057 1.15-1.585 2.842-1.585 5.078 0 1.79.452 3.302 1.36 4.53.903 1.23 2.372 1.844 4.403 1.844 1.928 0 3.322-.692 4.184-2.075zM200.835 171.876c1.582.846 2.55 2.322 2.905 4.433h-2.166c-.258-1.18-.793-2.042-1.604-2.58-.81-.54-1.834-.808-3.07-.808-1.464 0-2.697.562-3.7 1.68-1 1.125-1.5 2.797-1.5 5.016 0 1.923.412 3.485 1.238 4.692.826 1.205 2.174 1.808 4.042 1.808 1.43 0 2.614-.423 3.55-1.27.938-.847 1.418-2.215 1.44-4.107h-5.06v-1.815h7.094v8.644h-1.408l-.528-2.078c-.728.81-1.373 1.378-1.937 1.69-.944.544-2.145.817-3.6.817-1.883 0-3.503-.622-4.858-1.86-1.48-1.555-2.218-3.69-2.218-6.4 0-2.706.722-4.857 2.168-6.458 1.373-1.523 3.15-2.287 5.332-2.287 1.496 0 2.79.297 3.88.88zM206.354 171.416h2.55l4.646 7.762 4.645-7.762h2.573l-6.118 9.643v6.51h-2.188v-6.51l-6.108-9.644zM230.02 176.607c-.233-.535-.348-1.053-.348-1.552 0-1.04.35-1.904 1.052-2.59.703-.684 1.64-1.03 2.82-1.03 1.117 0 1.99.32 2.62.96.628.637.942 1.4.942 2.284 0 1.033-.325 1.937-.974 2.714-.38.455-1.015.98-1.905 1.57l2.934 3.525c.197-.588.33-1.025.407-1.316.073-.288.152-.694.232-1.215h1.878a11.94 11.94 0 0 1-.743 2.973c-.37.95-.557 1.332-.557 1.15l2.864 3.486h-2.55l-1.512-1.85c-.598.654-1.145 1.13-1.642 1.43-.87.53-1.87.793-3.002.793-1.673 0-2.89-.452-3.65-1.36-.76-.903-1.14-1.925-1.14-3.06 0-1.225.37-2.247 1.108-3.07.453-.496 1.298-1.12 2.533-1.867-.682-.784-1.14-1.444-1.368-1.98zm4.753 9.037c.584-.37 1.033-.792 1.347-1.25l-3.638-4.456c-1.028.69-1.698 1.217-2.013 1.584-.48.55-.722 1.22-.722 2.01 0 .86.312 1.52.936 1.98.624.465 1.29.695 1.998.695.81 0 1.507-.186 2.09-.563zm-.156-9.154c.428-.5.642-1.05.642-1.657 0-.477-.157-.887-.47-1.23-.314-.344-.737-.515-1.268-.515-.81 0-1.37.27-1.684.81a1.8 1.8 0 0 0-.24.913c0 .446.122.873.368 1.284s.656.94 1.23 1.59c.686-.488 1.16-.886 1.42-1.194zM249.71 171.416h6.985c1.904 0 3.258.565 4.062 1.69.472.67.71 1.44.71 2.313 0 1.018-.292 1.854-.87 2.506-.302.345-.734.66-1.296.943.827.317 1.448.67 1.858 1.067.726.704 1.09 1.676 1.09 2.916 0 1.04-.33 1.982-.985 2.825-.982 1.26-2.542 1.892-4.682 1.892h-6.87v-16.154zm6.166 6.828c.934 0 1.66-.127 2.177-.386.816-.4 1.222-1.127 1.222-2.175 0-1.056-.433-1.767-1.298-2.136-.49-.203-1.217-.308-2.18-.308h-3.944v5.004h4.023zm.74 7.457c1.354 0 2.32-.388 2.896-1.165.364-.49.545-1.085.545-1.782 0-1.173-.53-1.972-1.59-2.397-.56-.227-1.304-.342-2.23-.342h-4.384v5.687h4.763zM267.152 171.416v9.986c0 1.173.22 2.148.665 2.923.657 1.175 1.764 1.76 3.324 1.76 1.87 0 3.144-.633 3.816-1.9.362-.69.543-1.62.543-2.782v-9.986h2.21v9.072c0 1.986-.268 3.516-.805 4.584-.987 1.953-2.847 2.928-5.584 2.928s-4.593-.975-5.57-2.928c-.54-1.068-.807-2.598-.807-4.585v-9.073h2.21zM282.482 182.357c.05.916.257 1.66.626 2.23.7 1.074 1.93 1.61 3.698 1.61.79 0 1.51-.118 2.16-.353 1.256-.455 1.887-1.268 1.887-2.444 0-.88-.266-1.505-.8-1.88-.54-.366-1.385-.683-2.536-.955l-2.12-.496c-1.385-.324-2.365-.678-2.94-1.07-.996-.67-1.492-1.68-1.492-3.022 0-1.452.49-2.642 1.466-3.575.98-.93 2.362-1.395 4.153-1.395 1.647 0 3.047.408 4.2 1.227 1.152.816 1.73 2.124 1.73 3.92h-2.056c-.108-.865-.332-1.527-.677-1.992-.638-.84-1.725-1.263-3.258-1.263-1.237 0-2.126.27-2.666.814-.543.543-.814 1.173-.814 1.892 0 .792.32 1.37.96 1.738.418.235 1.366.528 2.845.88l2.195.516c1.058.252 1.877.59 2.45 1.024.996.755 1.492 1.852 1.492 3.287 0 1.792-.633 3.07-1.9 3.84-1.272.77-2.745 1.156-4.427 1.156-1.958 0-3.492-.513-4.6-1.54-1.108-1.02-1.653-2.402-1.63-4.147h2.055zM296.567 171.416h2.212v16.154h-2.213v-16.154zM302.332 171.416h2.578l8.057 13.053v-13.054h2.087v16.154h-2.458l-8.175-13.038v13.038h-2.09v-16.154zM318.806 171.416h11.72v1.98h-9.59v4.902h8.867v1.872h-8.866v5.474h9.756v1.926h-11.887v-16.154zM335.05 182.357c.05.916.258 1.66.627 2.23.7 1.074 1.93 1.61 3.698 1.61.79 0 1.51-.118 2.16-.353 1.256-.455 1.887-1.268 1.887-2.444 0-.88-.266-1.505-.8-1.88-.54-.366-1.385-.683-2.536-.955l-2.12-.496c-1.385-.324-2.365-.678-2.94-1.07-.996-.67-1.492-1.68-1.492-3.022 0-1.452.49-2.642 1.466-3.575.978-.93 2.36-1.395 4.152-1.395 1.647 0 3.047.408 4.2 1.227 1.152.816 1.73 2.124 1.73 3.92h-2.056c-.108-.865-.332-1.527-.677-1.992-.64-.84-1.726-1.263-3.26-1.263-1.236 0-2.125.27-2.665.814-.543.543-.814 1.173-.814 1.892 0 .792.32 1.37.96 1.738.42.235 1.367.528 2.846.88l2.195.516c1.06.252 1.878.59 2.452 1.024.995.755 1.49 1.852 1.49 3.287 0 1.792-.632 3.07-1.9 3.84-1.27.77-2.744 1.156-4.426 1.156-1.958 0-3.492-.513-4.6-1.54-1.108-1.02-1.653-2.402-1.63-4.147h2.055zM350.07 182.357c.05.916.257 1.66.626 2.23.7 1.074 1.93 1.61 3.698 1.61.79 0 1.51-.118 2.16-.353 1.256-.455 1.887-1.268 1.887-2.444 0-.88-.265-1.505-.798-1.88-.54-.366-1.386-.683-2.537-.955l-2.12-.496c-1.385-.324-2.365-.678-2.94-1.07-.996-.67-1.492-1.68-1.492-3.022 0-1.452.49-2.642 1.466-3.575.977-.93 2.36-1.395 4.15-1.395 1.648 0 3.048.408 4.202 1.227 1.15.816 1.728 2.124 1.728 3.92h-2.055c-.108-.865-.332-1.527-.677-1.992-.638-.84-1.725-1.263-3.258-1.263-1.237 0-2.126.27-2.666.814-.543.543-.814 1.173-.814 1.892 0 .792.32 1.37.96 1.738.418.235 1.366.528 2.845.88l2.195.516c1.058.252 1.877.59 2.45 1.024.996.755 1.492 1.852 1.492 3.287 0 1.792-.633 3.07-1.9 3.84-1.272.77-2.745 1.156-4.427 1.156-1.958 0-3.492-.513-4.6-1.54-1.108-1.02-1.653-2.402-1.63-4.147h2.055zM370.132 171.416h7.23c1.426 0 2.582.403 3.46 1.215.88.81 1.32 1.95 1.32 3.415 0 1.26-.393 2.358-1.178 3.294-.784.933-1.984 1.402-3.6 1.402h-5.044v6.828h-2.187v-16.154zm8.488 2.22c-.48-.226-1.14-.34-1.977-.34h-4.323v5.598h4.323c.975 0 1.767-.21 2.375-.628.61-.418.912-1.156.912-2.212 0-1.187-.438-1.99-1.31-2.42zM385.154 171.416h11.72v1.98h-9.59v4.902h8.867v1.872h-8.865v5.474h9.756v1.926h-11.886v-16.154zM400.23 171.416h7.345c1.21 0 2.207.178 2.99.538 1.492.69 2.237 1.962 2.237 3.817 0 .97-.2 1.76-.6 2.376-.4.616-.96 1.11-1.677 1.483.63.256 1.105.593 1.425 1.01.318.42.496 1.098.533 2.037l.076 2.165c.023.616.072 1.075.155 1.373.132.516.364.846.704.992v.362h-2.684a1.916 1.916 0 0 1-.176-.54c-.044-.22-.083-.644-.112-1.275l-.132-2.696c-.05-1.057-.43-1.763-1.14-2.125-.41-.195-1.045-.296-1.915-.296h-4.838v6.927h-2.19v-16.15zm7.11 7.4c.997 0 1.786-.205 2.368-.616s.87-1.15.87-2.22c0-1.152-.406-1.937-1.217-2.354-.434-.22-1.016-.33-1.744-.33h-5.196v5.52h4.92zM416.443 171.416h11.205v1.98h-9.018v4.902h7.93v1.926h-7.93v7.346h-2.187v-16.154zM443.296 173.723c1.07 1.432 1.606 3.26 1.606 5.49 0 2.41-.613 4.417-1.838 6.016-1.437 1.876-3.485 2.814-6.146 2.814-2.485 0-4.44-.82-5.863-2.463-1.268-1.583-1.9-3.587-1.9-6.006 0-2.182.542-4.052 1.627-5.606 1.393-1.994 3.453-2.99 6.18-2.99 2.852-.002 4.963.915 6.334 2.745zm-1.93 10.3c.862-1.384 1.292-2.975 1.292-4.77 0-1.902-.496-3.432-1.49-4.59-.993-1.162-2.352-1.74-4.075-1.74-1.672 0-3.035.573-4.09 1.722-1.057 1.15-1.585 2.842-1.585 5.078 0 1.79.452 3.302 1.36 4.53.903 1.23 2.372 1.844 4.403 1.844 1.93 0 3.325-.692 4.185-2.075zM447.773 171.416h7.344c1.21 0 2.207.178 2.99.538 1.492.69 2.237 1.962 2.237 3.817 0 .97-.2 1.76-.6 2.376-.4.616-.96 1.11-1.677 1.483.63.256 1.105.593 1.425 1.01.318.42.496 1.098.533 2.037l.076 2.165c.025.616.074 1.075.157 1.373.132.516.364.846.704.992v.362h-2.682a1.916 1.916 0 0 1-.176-.54c-.044-.22-.083-.644-.112-1.275l-.132-2.696c-.05-1.057-.43-1.763-1.14-2.125-.41-.195-1.045-.296-1.915-.296h-4.84v6.927h-2.19v-16.15zm7.11 7.4c.996 0 1.785-.205 2.367-.616s.87-1.15.87-2.22c0-1.152-.406-1.937-1.217-2.354-.435-.22-1.017-.33-1.745-.33h-5.196v5.52h4.92zM463.72 171.416h3.132l4.646 13.656 4.614-13.656h3.11v16.154h-2.086v-9.536c0-.327.005-.875.02-1.637s.024-1.58.024-2.454l-4.614 13.627h-2.168l-4.656-13.627v.496c0 .395.01 1 .032 1.807.022.81.032 1.408.032 1.786v9.536h-2.087v-16.154zM487.25 171.416h2.47l5.863 16.154h-2.397l-1.686-4.84h-6.337l-1.752 4.84h-2.242l6.08-16.154zm3.628 9.534l-2.488-7.138-2.583 7.138h5.07zM497.557 171.416h2.578l8.057 13.053v-13.054h2.087v16.154h-2.46l-8.175-13.038v13.038h-2.09v-16.154zM525.246 172.592c1.117 1.078 1.738 2.302 1.86 3.673h-2.133c-.237-1.04-.71-1.865-1.42-2.473-.71-.61-1.706-.914-2.986-.914-1.562 0-2.825.56-3.786 1.68-.96 1.118-1.44 2.834-1.44 5.143 0 1.895.434 3.43 1.302 4.608.868 1.178 2.16 1.767 3.883 1.767 1.584 0 2.79-.618 3.62-1.857.436-.653.766-1.51.98-2.576h2.134c-.19 1.703-.812 3.128-1.87 4.28-1.27 1.385-2.98 2.08-5.133 2.08-1.855 0-3.412-.57-4.673-1.707-1.66-1.505-2.49-3.827-2.49-6.967 0-2.383.623-4.338 1.87-5.865 1.347-1.657 3.206-2.485 5.577-2.485 2.022-.002 3.59.536 4.706 1.614zM530.297 171.416h11.72v1.98h-9.59v4.902h8.867v1.872h-8.866v5.474h9.756v1.926h-11.887v-16.154z"/><g><path d="M544.09 75.423c-1.576 1.584-3.483 2.375-5.72 2.375-2.235 0-4.138-.792-5.707-2.375-1.562-1.576-2.342-3.485-2.342-5.728 0-2.224.79-4.12 2.365-5.7 1.57-1.566 3.464-2.35 5.686-2.35 2.237 0 4.143.784 5.72 2.35 1.576 1.572 2.364 3.47 2.364 5.7 0 2.236-.788 4.144-2.364 5.728zm-10.623-10.636c-1.35 1.36-2.023 2.996-2.023 4.917 0 1.936.67 3.585 2.013 4.95 1.35 1.363 2.988 2.045 4.916 2.045 1.928 0 3.567-.683 4.916-2.047 1.348-1.364 2.023-3.013 2.023-4.95 0-1.92-.674-3.557-2.024-4.916-1.357-1.364-2.996-2.043-4.917-2.043-1.915 0-3.55.68-4.906 2.043zm4.75.452c1.1 0 1.907.107 2.42.32.916.38 1.375 1.128 1.375 2.245 0 .792-.288 1.376-.865 1.75-.307.198-.733.34-1.28.428.692.11 1.2.4 1.52.87.32.467.48.926.48 1.37v.65c0 .206.008.424.023.658.015.236.04.39.077.463l.055.11h-1.463l-.023-.088a1.7 1.7 0 0 1-.022-.098l-.033-.286v-.7c0-1.024-.28-1.698-.836-2.028-.33-.19-.91-.283-1.738-.283h-1.232v3.484h-1.562V65.24h3.104zm1.687 1.395c-.393-.22-1.024-.327-1.892-.327h-1.334v3.21h1.41c.663 0 1.16-.067 1.49-.2.61-.24.916-.703.916-1.382 0-.646-.197-1.08-.59-1.3z"/></g><path d="M70.277 14.826c-15.34 0-27.776 12.436-27.776 27.776s12.437 27.776 27.777 27.776 27.776-12.436 27.776-27.776-12.436-27.776-27.776-27.776zm0 38.358c-5.844 0-10.58-4.737-10.58-10.58s4.736-10.582 10.58-10.582 10.58 4.737 10.58 10.58-4.736 10.582-10.58 10.582z"/><g><path d="M54.496 156.61v-4.016H66.22V97.016H54.497V93c9.476.322 19.275-.32 29.074-.64v60.235h11.887v4.015h-40.96zM145.48 144.686h-.322c-3.855 8.513-11.404 13.332-21.524 13.332-8.514 0-12.85-3.052-18.955-8.354-6.426-5.62-9.638-16.384-9.638-24.735 0-15.904 13.974-33.896 30.68-33.896 10.44 0 17.508 6.106 19.436 13.656h.32V52.322h-11.564v-4.015c9.797.32 19.436-.642 28.913-2.41v105.696h11.565v4.015c-9.316 0-18.633-.483-28.913 1.284v-12.206zm-30.842-4.336c0 7.71 2.73 14.455 11.566 14.455 9.797 0 19.275-10.44 19.275-20.078V117.7c0-10.12-6.586-23.452-18.955-23.452-10.6 0-11.887 8.354-11.887 17.51v28.592zM195.58 121.11v12.85c0 11.244.642 21.845 14.296 21.845 11.565 0 20.4-8.35 23.612-19.274h4.016c-4.177 15.58-15.26 22.488-30.84 22.488-17.51 0-30.2-16.867-30.2-33.25 0-17.67 14.457-33.734 31.965-33.734 14.938 0 28.753 10.28 28.753 26.184 0 3.373-1.446 2.892-4.016 2.892H195.58zm23.452-4.017c0-10.76 2.73-21.845-11.566-21.845-13.332 0-11.887 11.727-11.887 21.845h23.452zM289.228 101.03c0-4.176-7.87-5.78-10.6-5.78-6.104 0-13.654 3.05-11.245 6.102.963 1.287 2.25 4.66 2.25 7.71 0 4.178-4.018 7.068-7.71 7.068-4.5 0-8.353-2.41-8.353-7.55 0-12.207 15.743-16.546 25.54-16.546 6.908 0 14.295 1.125 20.56 4.34 4.5 2.247 5.945 4.818 5.945 9.796v42.727c0 2.088 1.927 3.054 3.853 3.054 1.93 0 4.34-2.41 5.623-3.695l1.928 2.25c-4.177 5.14-8.513 8.513-15.26 8.513-7.068 0-11.564-4.336-12.53-11.405-5.782 7.07-14.455 11.405-23.45 11.405-9.64 0-16.707-5.302-16.707-15.582 0-19.114 25.703-23.13 40.158-22.326v-20.08zm0 23.454c-9.96 0-23.29 1.284-23.29 14.295 0 7.066 2.89 12.368 10.44 12.368 5.622 0 9.798-4.336 11.728-9.476.963-2.41 1.123-5.302 1.123-8.354v-8.834zM330.52 156.61h-2.572v-22.97h4.336c1.608 11.404 8.194 22.165 20.4 22.165 7.068 0 14.618-4.82 14.618-12.85 0-8.032-7.388-8.833-15.742-9.958-16.546-2.25-22.808-8.996-22.808-21.365 0-12.207 8.35-19.597 20.24-19.597 5.62 0 11.244 1.767 15.742 5.14l2.57-4.174h2.73v18.954h-4.177c-.963-8.672-7.87-16.705-16.864-16.705-6.265 0-13.01 3.693-13.01 11.083 0 4.82.8 6.586 15.258 8.993 14.618 2.41 22.97 4.98 22.97 21.526 0 15.42-8.512 22.166-22.97 22.166-5.298 0-12.206-3.052-16.062-6.746l-4.66 4.337zM419.793 92.035c18.15 0 33.73 15.903 33.73 33.895 0 17.99-15.58 33.09-33.73 33.09s-33.733-15.1-33.733-33.09c0-17.992 15.582-33.895 33.733-33.895zm0 3.213c-15.742 0-14.62 12.528-14.62 30.682 0 20.882.325 29.875 14.62 29.875s14.616-8.993 14.616-29.875c0-18.154 1.125-30.682-14.617-30.682zM486.473 93h15.26v4.016h-15.26v55.58h13.815v4.014h-43.693v-4.015h12.53v-55.58h-12.85v-4.014h12.85c0-16.064 3.053-37.748 21.042-44.496 2.57-.963 5.302-1.606 8.194-1.606 7.39 0 16.223 4.015 16.223 12.69 0 4.98-3.694 8.354-8.672 8.354-4.338 0-7.55-2.892-7.55-7.23 0-3.05 1.766-4.98 4.175-6.585 1.287-.804 0-4.015-4.336-4.015-7.55 0-11.728 12.37-11.728 17.83v25.06z"/><path d="M511.684 74.292c5.782 0 11.565-.642 17.347-.963v19.596h15.262v4.82h-15.26v44.172c0 5.14.16 8.834 6.264 8.834 5.14 0 8.192-4.015 9.797-8.513l3.214 1.605c-3.373 8.996-10.28 13.173-19.597 13.173-14.616 0-17.026-4.978-17.026-13.815V97.745h-10.28v-4.82h10.28V74.293z"/></g></svg>