<svg xmlns="http://www.w3.org/2000/svg" viewBox="0 0 600 200"><path d="M435.13 129.804c-.116-9.343.064-18.692-.114-28.032-.056-2.975.79-5.24 2.775-7.38 4.187-4.514 9.288-6.427 13.793-4.636 5.437 2.166 6.165 6.93 6.17 11.974.013 9.456.05 18.91-.033 28.363-.016 1.926.384 2.77 2.528 2.69 4.172-.16 8.354-.1 12.53-.017 1.606.03 2.406-.304 2.39-2.147-.09-11.43.164-22.872-.192-34.293-.342-10.998-8.63-18.67-19.657-19.065-8.434-.3-15.008 3.414-20.708 9.18-1.036 1.046-1.743 2.196-3.077.03-3.988-6.474-10.16-9.003-17.546-9.213-7.192-.203-13.134 2.793-19.07 7.525 0-1.337-.086-2.008.016-2.646.448-2.79-.412-3.936-3.49-3.673-3.71.318-7.474.18-11.206.034-2.098-.08-2.864.48-2.853 2.725.09 16.27.086 32.54 0 48.81-.01 2.236.766 2.823 2.87 2.74 3.73-.143 7.482-.2 11.208.015 2.648.152 3.576-.54 3.525-3.38-.18-10.11-.08-20.228-.058-30.34.003-1.17-.304-2.402.646-3.452 2.786-3.08 5.932-5.597 10.14-6.336 5.597-.986 9.93 1.926 11.41 7.434.465 1.737.43 3.482.433 5.232.02 9.343.072 18.69-.035 28.032-.024 2.165.6 2.89 2.795 2.8 3.95-.162 7.918-.176 11.868.006 2.354.11 2.97-.704 2.94-2.982zM302.413 126.346c11.314 10.528 34.27 9.362 45.7 1.155.52-.375 1.137-.745 1.118-1.507-.075-3.24.306-6.504-.275-10-.718.368-1.21.554-1.63.844-4.476 3.09-9.27 5.384-14.67 6.393-9.832 1.837-18.408-3.103-20.595-11.818-.598-2.386-.018-3.02 2.422-2.996 10.986.11 21.975-.016 32.96.1 2.337.027 2.973-.672 2.9-2.967-.573-17.72-12.558-28.967-30.262-28.265-11.268.446-21.004 7.57-24.78 18.127-3.934 11.014-.94 23.436 7.113 30.934zm10.025-29.766c1.23-5.748 5.186-8.874 11.32-8.793 5.663.075 9.657 3.59 10.706 9.202.34 1.82-.185 2.29-1.942 2.227-3.063-.114-6.135-.033-9.203-.033-2.96 0-5.93-.167-8.872.053-2.39.18-2.402-.824-2.01-2.657zM125.284 56.625c11.107 1.766 22.7-4.688 26.772-14.902 6.155-15.447-5.724-31.72-23.17-31.733-14.55-.01-26.007 11.3-25.024 24.7.844 11.49 9.136 19.98 21.422 21.935zM209.024 51.745c-10.986-1.518-20.38 2.56-24.917 10.864-2.27 4.153-3.163 8.653-2.95 13.342.087 2-.53 2.646-2.583 2.642-5.09-.01-5.09.097-5.09 5.26v1.98c0 4.625.002 4.755 4.74 4.642 2.33-.054 3.005.667 2.948 2.97-.15 6.04-.05 12.086-.05 18.13 0 6.043.122 12.09-.06 18.127-.076 2.556.814 3.202 3.214 3.082 3.727-.185 7.48-.216 11.202.01 2.56.153 3.098-.758 3.075-3.165-.12-12.086-.017-24.174-.092-36.26-.01-2.01.325-2.93 2.66-2.903 5.225.064 5.226-.075 5.226-5.167v-1.32c0-5.29 0-5.4-5.31-5.385-2.057.005-2.58-.616-2.587-2.624-.025-7.27 2.708-9.932 10.22-10.018 2.235-.028 5.21 1.608 6.432.017 1.13-1.47.363-4.423.368-6.723.02-6.61.008-6.61-6.446-7.502zM152.39 106.69c0-1.215-.015-2.348-.912-3.384-5.394-6.23-10.773-12.476-16.06-18.795-1.243-1.483-1.922-1.097-3.014.11-5.085 5.627-10.22 11.202-15.403 16.736-1.064 1.133-1.486 2.336-1.482 3.843.025 8.795.055 17.593-.03 26.39-.018 2.055.743 2.63 2.713 2.588 5.277-.11 10.556-.037 15.834-.037 5.06 0 10.12-.11 15.172.05 2.386.076 3.284-.54 3.236-3.093-.152-8.133-.06-16.27-.053-24.408zM233.156 132.77c4.06-.105 8.13-.155 12.184.014 2.274.096 2.77-.778 2.713-2.864-.133-4.938.33-9.917-.132-14.815-.642-6.816 2.514-12.1 6.1-17.23 2.788-3.99 6.622-4.928 10.99-3.677 2.446.7 5.09 3.752 6.853 2.393 1.768-1.364 1.832-4.94 2.645-7.548.032-.103.093-.198.126-.303 2.298-7.156 1.76-8.222-5.417-10.747-.206-.073-.42-.126-.63-.185-6.355-1.855-10.868 1.197-14.61 5.76-2.1 2.565-3.758 5.497-5.966 8.79 0-4.18-.07-7.76.03-11.334.05-1.748-.32-2.59-2.33-2.524-4.277.142-8.566.126-12.845.003-1.765-.05-2.2.532-2.194 2.235.06 16.58.07 33.16-.01 49.74-.006 2 .757 2.336 2.496 2.292z"/><path d="M149.857 65.362c-13.294 0-26.587.04-39.88-.04-2.063-.014-2.827.444-2.818 2.698.086 21.094.043 42.188.07 63.28.002 1.084-.52 2.604 1.464 2.682 2.228.088 1.687-1.58 1.694-2.776.03-8.9.087-17.8-.03-26.696-.032-2.45.563-4.35 2.217-6.217 6.478-7.312 12.88-14.696 19.15-22.188 1.643-1.964 2.423-2.047 4.058.017 5.17 6.518 10.564 12.856 15.87 19.265l.765-.22c0-9.313-.047-18.627.033-27.94.02-2.14-1.288-1.865-2.593-1.865zM319.182 152.76c-.008-.812.275-2.02-.978-2.07-1.336-.052-1.008 1.19-1.022 1.986-.043 2.74-.016 5.484-.016 9.046-3.332-3.736-6.15-6.91-8.99-10.067-.508-.567-1.078-1.25-1.948-.904-.872.348-.77 1.245-.775 1.997-.014 3.514-.018 7.026.006 10.54.004.843-.147 1.974 1.09 2.02 1.266.047 1.122-1.082 1.185-1.935.196-2.64-.354-5.338.51-8.518 2.826 3.3 5.307 6.2 7.792 9.098.578.675 1.18 1.383 2.197 1.165 1.235-.266.94-1.33.947-2.143.038-3.406.038-6.81.002-10.213zM305.688 175.532c-4.59.36-1.43 4.1-2.338 6.1-.123.272-.016.65-.016.98 0 8.22.487 8.703 7.5 7.447 3.752-.672 6.51-4.185 6.127-7.804-.523-4.942-4.223-7.28-11.272-6.724zm8.167 10.255c-1.208 2.045-4.922 3.137-7.07 2.34-.962-.353-.977-1.067-.995-1.828-.027-1.205-.006-2.41-.006-3.616h-.017c0-.22-.044-.45.008-.655.374-1.47-1.022-3.73 1.013-4.326 2.435-.71 5.118-.4 6.862 1.92 1.454 1.93 1.41 4.12.205 6.163zM266.367 175.495c-5.08.22-1.59 4.195-2.617 6.205-.134.26-.02.65-.02.98 0 8.234.25 8.486 7.263 7.427 3.91-.588 6.764-4.147 6.35-7.914-.53-4.824-4.027-7-10.976-6.698zm7.307 10.964c-1.745 1.944-4.243 2.31-6.352 1.548-2.408-.872-.546-3.483-1.125-4.957 0-.48-.05-.714.008-.916.44-1.518-1.196-3.923 1.182-4.49 2.582-.618 5.403-.246 6.93 2.443 1.22 2.146 1.1 4.43-.643 6.372zM349.183 175.682c-.8-.37-1.5.025-2.026.654-1.33 1.596-2.64 3.21-4.183 5.093-1.42-1.732-2.575-3.18-3.775-4.587-.56-.657-1.14-1.47-2.16-1.215-1.18.296-.887 1.368-.896 2.185a501.44 501.44 0 0 0 0 10.188c.01.824-.2 2.017 1.055 2.01 1.254-.006 1.036-1.19 1.044-2.02.03-2.65.012-5.3.012-8.858 1.915 2.155 2.944 4.37 4.402 4.703 2.107.483 2.385-2.702 4.084-3.626.16-.087.395-.038.85-.072 0 2.726-.015 5.44.007 8.15.004.743-.104 1.705.964 1.773 1.224.08 1.346-.93 1.353-1.82.03-3.613.015-7.23.002-10.845-.003-.664-.07-1.405-.737-1.713zM287.193 175.39c-4.605-.012-7.803 3.032-7.805 7.427 0 4.527 3.033 7.5 7.66 7.503 4.696.005 8.238-3.267 8.173-7.55-.064-4.154-3.564-7.37-8.027-7.38zm-.07 12.887c-3.292-.017-5.686-2.416-5.587-5.602.093-3.032 2.443-5.177 5.648-5.16 3.22.02 5.518 2.172 5.58 5.226.064 3.183-2.35 5.555-5.64 5.537zM406.418 175.413c-4.576-.025-7.908 3.085-7.922 7.4-.016 4.4 3.212 7.496 7.808 7.49 4.643-.004 7.887-3.033 7.906-7.385.02-4.413-3.163-7.48-7.792-7.505zm-.137 12.873c-3.218-.02-5.434-2.144-5.497-5.274-.067-3.274 2.17-5.48 5.587-5.507 3.353-.028 5.773 2.257 5.73 5.41-.04 3.157-2.458 5.39-5.82 5.37zM342.197 157.938c.002 4.46 3.264 7.693 7.712 7.645 4.42-.047 8.013-3.445 7.996-7.564-.02-4.34-3.358-7.538-7.89-7.55-4.615-.015-7.824 3.047-7.82 7.468zm13.364-.093c.033 3.245-2.304 5.698-5.47 5.74-3.113.043-5.792-2.465-5.85-5.477-.065-3.213 2.247-5.53 5.57-5.59 3.386-.062 5.716 2.098 5.75 5.327zM208.477 157.917c-.035-4.384-3.323-7.49-7.898-7.457-4.59.033-7.735 3.14-7.684 7.598.05 4.405 3.397 7.63 7.822 7.536 4.495-.096 7.79-3.36 7.76-7.677zm-7.76 5.676c-3.063.03-5.65-2.555-5.662-5.657-.014-3.22 2.348-5.456 5.72-5.412 3.187.044 5.48 2.25 5.508 5.302.03 3.096-2.52 5.74-5.565 5.767zM122.603 152.203c-.005-.65-.016-1.435-.888-1.504-1.15-.094-1.1.833-1.105 1.588-.02 2.805-.008 5.61-.008 8.624-1.88-.635-2.526-1.99-3.456-2.988-1.868-2.008-3.615-4.128-5.444-6.176-.495-.555-1.03-1.294-1.92-.96-.957.364-.62 1.31-.63 2.016a464.41 464.41 0 0 0 0 10.222c.01.81-.257 2.05 1.036 2 1.237-.05.907-1.268.972-2.088.206-2.615-.37-5.296.45-8.194 2.844 3.275 5.423 6.262 8.027 9.228.575.655 1.195 1.405 2.22 1.073.978-.32.752-1.234.757-1.963.018-3.624.01-7.25-.01-10.88zM362.518 154.806c1.085.945 1.608 1.31 2.02 1.775 2.263 2.542 4.49 5.114 6.744 7.662.513.58 1.104 1.14 1.982.84.81-.275.697-1.027.7-1.656.013-3.734.015-7.466-.007-11.2-.004-.625.076-1.44-.826-1.524-1.128-.103-1.137.782-1.14 1.56-.013 2.922-.005 5.842-.005 9.466-3.15-3.543-5.793-6.563-8.5-9.523-.616-.673-1.16-1.876-2.34-1.387-1.013.416-.58 1.544-.592 2.36-.05 3.183-.06 6.37.01 9.55.018.854-.5 2.32 1.044 2.26 1.136-.045.89-1.325.9-2.154.035-2.454.01-4.91.01-8.028zM185.52 176.903c-2.933-2.002-6.33-1.528-9.594-1.213-1.07.1-.828 1.393-.84 2.23-.033 2.748.204 5.52-.073 8.24-.35 3.425.902 4.727 3.727 4.045 6.083-.026 9.33-2.257 9.75-6.383.29-2.845-.592-5.298-2.97-6.92zm-2.74 11c-4.402 1.442-5.468.403-5.467-5.327 0-.11-.033-.235.005-.327.67-1.548-1.597-4.224 1.74-4.724 3.656-.55 6.596 1.164 7.26 4.108.603 2.665-.953 5.424-3.54 6.27zM230.37 156.77c-.826-4.63-4.728-6.878-11.436-6.175-4.067.426-1.244 3.817-2.05 5.688-.2.462-.03 1.087-.03 1.636.002 7.763 1.038 8.676 8.068 7.1.106-.026.22-.027.325-.055 3.4-.922 5.75-4.683 5.124-8.195zm-4.597 5.76c-1.438.886-3.09 1.026-4.77 1.013-1.376-.013-2.017-.6-1.98-1.984.034-1.207.007-2.415.007-3.623h-.01c0-.22-.054-.456.008-.655.483-1.574-1.252-3.948 1.37-4.702 3.076-.883 6.78.77 7.494 3.284.738 2.59.455 5.082-2.12 6.666zM458.36 156.873c1.323-1.473.995-3.34-.314-4.794-1.665-1.847-3.993-1.818-6.13-1.44-2.233.398-1.148 2.464-1.336 3.823-.15 1.077-.03 2.19-.03 3.283 0 .985-.16 2.003.036 2.95.32 1.538-1.157 4.283 1.168 4.366 2.17.08.78-2.64 1.173-4.067.165-.6-.13-1.388.592-1.734.84-.405 1.477.144 2.016.694.532.543.96 1.188 1.468 1.754 1.093 1.218 1.793 4.306 3.36 3.18 1.697-1.223-.99-3.024-1.81-4.465-.743-1.308-1.53-2.063-.194-3.55zm-4.04.052c-1.967-.078-1.184-1.664-1.34-2.374-.156-1.588.39-2.174 1.67-1.982 1.348.202 2.282.92 2.17 2.35-.107 1.42-1.144 2.06-2.5 2.007zM419.5 159.358c0-1.438-1.012-1.543-2.04-1.448-.9.084-2.185-.55-2.573.74-.4 1.338.94 1.14 1.668 1.43.76.3.804.95.817 1.625.02.91-.505 1.36-1.29 1.683-2.955 1.21-6.858-.962-7.352-4.113-.76-4.844 2.677-7.727 7.792-6.55.872.2 2.14 1.25 2.55-.02.48-1.477-1.224-1.502-2.174-1.807-3.49-1.118-7.215-.08-9.177 2.638-1.905 2.64-2.16 5.5-.43 8.323 1.832 2.99 5.167 4.15 8.88 3.547 2.454-.398 3.944-1.308 3.33-3.867v-2.182zM179.13 159.21c.025-.984.005-1.97.005-2.954h.01c0-1.205.022-2.41-.008-3.613-.02-.845.155-1.94-1.107-1.993-1.548-.068-1.26 1.206-1.278 2.127-.043 2.08-.09 4.164 0 6.24.116 2.767-.972 4.45-3.87 4.558-2.74.1-4.094-1.435-4.166-4.68-.05-2.19-.005-4.38-.03-6.568-.008-.76.017-1.687-1.076-1.66-1.074.028-1.02.964-1.027 1.714-.025 2.3-.04 4.6-.006 6.897.06 4.092 2.36 6.405 6.253 6.335 3.925-.067 6.197-2.37 6.3-6.402zM238.51 165.484c.994-.142 2.64.324 2.652-1.122.013-1.517-1.624-.992-2.616-1.102-1.515-.17-3.42.543-3.36-2.232.055-2.564 1.813-1.85 3.217-2.04.966-.133 2.64.588 2.642-.997.002-1.59-1.68-.977-2.634-.985-1.9-.012-3.488.056-3.244-2.702.24-2.692 2.148-1.44 3.407-1.763.925-.238 2.555.65 2.565-1.05.01-1.408-1.48-.962-2.362-.957-7.358.043-5.797-.746-5.98 5.763-.014.437-.003.876-.003 1.314 0 1.423.142 2.862-.028 4.264-.33 2.705.747 3.88 3.45 3.645.763-.07 1.545.074 2.295-.036zM385.2 161.857c.098-.296-.003-.653.024-.978.05-.627-.148-1.384.655-1.68.81-.3 1.52.022 2.066.617.588.64 1.07 1.38 1.652 2.028 1.085 1.216 1.722 4.173 3.48 3.017 1.43-.94-1.19-2.713-1.687-4.25-.324-1.006-2.05-1.294-1.118-2.998 2.446-4.464.67-7.123-4.548-7.076-2.498.02-2.538.02-2.578 2.58-.045 2.954-.077 5.91.026 8.86.037 1.07-.678 2.99.918 3.005 2.004.02.754-2.037 1.11-3.126zm1.73-9.35c1.398.12 2.27.705 2.28 2.208.015 1.528-.96 2.136-2.284 2.238-1.825.142-1.76-1.192-1.742-2.536-.124-1.18.185-2.046 1.746-1.91zM326.532 188.205c-.986-.025-1.975-.08-2.958-.023-1.773.098-1.88-1.02-1.875-2.344.004-1.22.162-2.045 1.723-2.184 1.393-.126 3.96.872 3.962-.783.002-2.227-2.578-.903-3.99-1.12-1.512-.232-1.68-1.018-1.7-2.235-.026-1.345.41-2.08 1.872-1.996.874.05 1.753.008 2.63-.014.662-.02 1.392-.047 1.466-.92.077-.895-.62-.968-1.295-1.104-5.837-1.168-7.08-.176-7.083 5.693 0 .547 0 1.097.002 1.643.004 1.645.058 3.292-.012 4.934-.077 1.837.728 2.59 2.55 2.484 1.53-.09 3.07-.02 4.602-.033.69-.005 1.424-.137 1.467-.96.043-.842-.665-1.02-1.362-1.038zM301.583 150.645c-1.125.078-.937 1.04-.947 1.762-.03 2.418-.005 4.838-.016 7.256-.012 2.6-1.514 3.794-3.93 3.906-2.42.11-4.06-.937-4.23-3.545-.125-1.86-.01-3.742-.206-5.593-.135-1.277.87-3.537-.96-3.604-2.11-.077-.792 2.22-1.104 3.433-.158.62-.028 1.313-.028 1.973h.025c0 1.43-.113 2.87.023 4.286.295 3.052 2.87 5.078 6.27 5.07 3.53-.008 5.992-1.932 6.177-5.086.16-2.74.052-5.498.03-8.247-.007-.746.05-1.69-1.104-1.612zM374.425 187.014c-.32-.564-.74-1.11-1.228-1.53-2.357-2.027-2.085-3.79.06-5.925.974-.97 3.38-2.69 2.064-3.647-1.72-1.255-2.784 1.44-3.665 2.756-1.627 2.43-2.74 1.956-4.23-.098-.998-1.378-1.775-3.41-4.555-2.856.336.65.443.962.637 1.202 1.434 1.787 3.764 3.406 4.108 5.374.403 2.315-2.686 3.656-3.886 5.69-.35.593-1.478 1.092-.684 1.86.807.78 1.6.023 2.232-.61.388-.387.757-.792 1.115-1.205 3.195-3.675 3.16-3.65 6.353.023.845.972 1.708 3.062 3.225 1.726 1.01-.89-1-1.8-1.545-2.762zM270.12 163.814c.183.747.636 1.452 1.614 1.278.52-.093.61-.532.486-1.578-1.704-3.764-3.474-8.126-5.666-12.265-.77-1.456-1.85-.26-2.33.83a631.364 631.364 0 0 0-4.536 10.535c-.324.777-1.39 1.838.044 2.427 1.08.445 1.52-.71 1.745-1.505.64-2.246 2.172-2.545 4.257-2.57 2.268-.028 3.802.476 4.385 2.847zm-4.652-9.13c1.132 1.316 2.65 2.492 1.612 4.13-.45.714-2.134.67-2.685.085-1.597-1.694.82-2.696 1.073-4.215zM255.846 176.176c-.774-1.484-1.827-.334-2.322.79-1.64 3.724-3.285 7.44-4.876 11.183-.253.594-1.085 1.444.133 1.897.907.336 1.38-.403 1.773-1.097.717-1.272.872-2.85 2.96-3.07 2.727-.287 5.056-.42 5.88 2.938.177.714.658 1.45 1.66 1.245.527-.107.642-.51.583-1.18-1.85-4.138-3.614-8.53-5.79-12.707zm.55 7.653c-.346.6-2.264.62-2.704-.035-1.1-1.63.444-2.8 1.368-4.65.68 1.91 2.266 3.067 1.336 4.684zM469.84 151.262c-.837-1.59-1.812-.2-2.27.834a718.056 718.056 0 0 0-4.7 10.885c-.27.638-1.013 1.527-.054 2.018 1.005.516 1.738-.323 1.933-1.213.59-2.703 2.472-2.725 4.723-2.84 2.445-.123 3.313 1.11 3.926 3.04.205.648.635 1.19 1.428 1.1.732-.087.77-.634.654-1.45-1.79-4.007-3.495-8.308-5.64-12.373zm.412 7.588c-.432.62-2.266.648-2.7-.044-.95-1.522.885-2.628 1.266-4.136.927 1.366 2.554 2.566 1.434 4.18zM222.103 177.5c1.094.06 2.194.012 3.29-.02.574-.013 1.12-.18 1.184-.862.087-.906-.59-.98-1.266-1.12-5.79-1.19-7.1-.155-7.1 5.646v1.644c0 1.208.135 2.435-.028 3.618-.41 2.965.654 4.387 3.736 3.783 1.58-.312 4.362 1.037 4.478-1.005.1-1.822-2.68-.79-4.162-.937-1.384-.14-1.992-.582-1.916-1.986.065-1.21-.14-2.4 1.68-2.606 1.49-.17 4.202.862 4.2-.883-.003-1.933-2.685-.852-4.17-1-1.56-.156-1.694-1-1.716-2.21-.025-1.282.25-2.148 1.79-2.064zM195.03 177.505c.987.05 1.976.008 2.966-.014.67-.013 1.413-.057 1.473-.925.058-.88-.666-.943-1.335-1.07-5.9-1.137-7.047-.208-7.044 5.748v1.318c0 1.21.14 2.437-.027 3.622-.434 3.08.622 4.654 3.88 4 1.55-.31 4.302 1.144 4.38-1.072.064-1.754-2.723-.72-4.218-.867-1.43-.14-1.93-.69-1.886-2.042.04-1.263 0-2.368 1.773-2.547 1.41-.145 4.015.825 3.996-.796-.025-2.147-2.61-.897-4.04-1.08-1.535-.194-1.713-.99-1.736-2.213-.024-1.298.3-2.14 1.817-2.06zM332.055 163.22c-4.478 1.118-7.8-1.045-7.814-5.258-.012-4.12 3.13-6.125 7.92-5.11.834.175 2.088 1.165 2.415-.34.28-1.29-1.192-1.33-2.074-1.608-3.494-1.11-7.213-.086-9.21 2.606-1.96 2.642-2.182 5.49-.46 8.323 1.958 3.222 5.384 4.375 9.505 3.353 1.136-.28 2.885-.333 2.426-1.952-.488-1.726-1.864-.223-2.705-.014zM358.692 188.203a8.734 8.734 0 0 0-1.64-.006c-1.73.176-2.282-.604-2.264-2.29.02-1.75.773-2.23 2.4-2.268 1.17-.03 3.327.706 3.32-.812-.01-2.043-2.25-.72-3.453-1.1-.1-.03-.22-.015-.327-.007-1.725.144-1.902-.91-1.924-2.284-.023-1.413.518-2.013 1.922-1.93.873.05 1.752.01 2.627-.018.683-.023 1.397-.14 1.367-1.02-.027-.863-.767-.874-1.426-.983-5.734-.965-6.585-.258-6.587 5.52-.002.548 0 1.095-.002 1.642-.004 7.746-.004 7.764 5.872 7.545.89-.034 2.356.47 2.417-.9.064-1.363-1.385-1.01-2.302-1.09zM394.023 187.943c-.972.123-1.954.346-2.923.3-3.26-.16-5.378-2.395-5.31-5.48.067-3.056 2.28-5.19 5.57-5.214 1.073-.01 2.15.29 3.22.475.624.108 1.375.492 1.686-.352.346-.95-.416-1.318-1.14-1.673-2.544-1.24-6.833-.627-8.98 1.313-2.45 2.21-3.225 5.36-2.006 8.375 1.303 3.22 3.716 4.766 7.202 4.69.98-.1 1.973-.135 2.937-.318 1.19-.223 2.767-.592 2.3-2.1-.385-1.248-1.667-.13-2.557-.017zM400.14 152.512c.98.09 1.974.012 2.96-.025.59-.022 1.095-.265 1.07-.95-.02-.652-.52-.823-1.095-.98-5-1.353-6.964.08-6.966 5.127-.002.66 0 1.318-.002 1.977v3.293c.005 4.306.008 4.373 4.21 4.263 1.277-.033 3.602.782 3.607-.818.003-1.66-2.32-.825-3.578-.83-1.845-.007-2.177-.86-2.164-2.44.01-1.5.464-2.138 2.065-2.2 1.255-.048 3.57.858 3.512-1.054-.05-1.682-2.353-.798-3.628-.843-1.71-.058-1.935-.927-1.948-2.316-.013-1.416.227-2.362 1.956-2.202zM280.2 163.76c.006.725.3 1.31 1.1 1.384 1.005.097 1.346-.54 1.378-1.42.025-.658.1-1.328.016-1.975-.31-2.34.408-3.564 3.025-3.23.843.105 2.327.466 2.293-1.022-.032-1.473-1.504-1.02-2.352-.946-2.23.197-3.456-.493-2.894-2.897.47-2.003 2.186-.78 3.306-1.1.754-.215 2.02.35 1.978-1.03-.04-1.29-1.238-.95-2.05-1.003-5.836-.39-5.84-.382-5.836 5.328v1.977h.03c0 1.978-.01 3.956.006 5.933zM447.114 150.52a879.708 879.708 0 0 0-8.898 0c-.776.004-1.69.032-1.59 1.138.105 1.115 1.137.96 1.807.855 2.75-.427 3.14 1.08 2.916 3.275-.102.98-.017 1.977-.017 2.965h.018c0 1.648-.015 3.295.008 4.944.01.79.11 1.65 1.15 1.655 1.04.007 1.168-.845 1.177-1.638.03-2.526.156-5.062-.01-7.58-.16-2.458.182-4.124 3.247-3.62.653.106 1.714.326 1.796-.828.074-1.056-.808-1.164-1.604-1.167zM144.342 150.52c-2.63-.034-5.263-.036-7.894 0-.817.012-2.023-.25-2.058 1-.036 1.317 1.222 1.078 1.992.992 2.193-.238 2.975.668 2.74 2.8-.133 1.193-.024 2.41-.024 3.617h.013c0 1.533-.02 3.07.01 4.604.017.897.097 1.897 1.34 1.81 1.005-.074 1.054-.958 1.057-1.746.012-2.63.146-5.272-.03-7.89-.155-2.314.357-3.6 2.996-3.194.668.103 1.727.265 1.77-.867.053-1.346-1.094-1.116-1.91-1.128zM431.518 156.607c-1.098-.67-2.653-1.256-2.128-2.877.602-1.858 2.24-1.292 3.62-.978.6.135 1.263.665 1.566-.328.182-.595-.113-1.065-.67-1.324-2.198-1.026-4.35-1.076-5.913.99-1.38 1.82-1.118 3.726.687 5.217.922.762 2.024 1.303 2.984 2.024 1.075.81 2.19 1.74 1.182 3.252-.908 1.37-2.214 1.172-3.498.537-.578-.287-1.126-.636-1.866-1.057-.717 2.606.97 2.916 2.434 3.325 2.017.563 3.752-.04 4.878-1.764.974-1.49.833-3.146-.184-4.633-.762-1.115-1.97-1.7-3.092-2.383zM232.177 181.34c-1.006-.6-2.428-1.208-1.87-2.685.588-1.555 2.117-1.202 3.433-1.077.7.065 1.74 1.277 1.997-.364.17-1.076-.79-1.502-1.687-1.65-2.284-.37-4.467-.318-5.533 2.263-1.097 2.66.6 4.032 2.515 5.337 1.536 1.048 4.257 1.894 2.69 4.316-1.275 1.977-3.314.458-4.93-.42-.08-.04-.205-.004-.507-.004-.388 2.148.843 2.823 2.326 3.11 1.886.36 3.77.35 5.063-1.435.98-1.353 1.206-2.807.273-4.297-.91-1.45-2.35-2.248-3.77-3.094zM128.825 156.37c-1.008-.7-2.22-1.422-1.623-2.85.588-1.4 1.97-1.03 3.182-.937.66.05 1.667 1.47 1.968-.285.2-1.17-.9-1.418-1.708-1.626-2.245-.572-4.31-.124-5.322 2.094-1.127 2.463.272 4.064 2.307 5.443 1.556 1.056 4.604 1.805 2.938 4.478-1.46 2.343-3.467.138-5.296-.514-.376.922-.377 1.576.1 2.115 1.377 1.562 4.788 1.754 6.336.258 1.877-1.816 1.962-3.93.288-5.87-.832-.963-2.094-1.56-3.17-2.31zM249.643 176.642c.115-.9-.567-1.095-1.24-1.114-1.532-.04-3.064-.012-4.595-.012v-.024c-1.422 0-2.845-.033-4.265.013-.707.024-1.76-.258-1.85.81-.11 1.31 1.067 1.277 1.866 1.143 2.964-.493 3.147 1.206 3.023 3.45-.128 2.288-.08 4.592 0 6.886.027.85-.504 2.28 1.077 2.223 1.258-.045.874-1.297.898-2.088a94.24 94.24 0 0 0 .01-5.577c-.076-2.728-.613-5.747 3.858-4.9.54.103 1.133-.14 1.217-.81zM192.742 151.525c-.097-.795-.776-.97-1.478-.973-1.533-.006-3.067-.002-4.6-.002v-.012c-1.313-.005-2.63-.04-3.94.01-.814.03-2.034-.24-1.993 1.047.043 1.303 1.318 1.003 2.06.894 2.72-.402 3.077 1.03 2.93 3.252-.152 2.29-.084 4.6-.005 6.897.028.87-.488 2.355.907 2.388 1.717.042 1.046-1.59 1.1-2.532.105-1.857.09-3.724.017-5.584-.105-2.624-.35-5.25 3.69-4.42.612.125 1.427-.015 1.312-.967zM163.46 150.566c-1.533-.035-3.066-.01-4.603-.01v-.02c-1.315 0-2.632-.038-3.945.013-.81.032-2.017-.297-2.097.945-.086 1.387 1.215 1.084 1.95.99 2.5-.324 2.914.932 2.787 3.056-.153 2.513-.058 5.04-.017 7.565.012.81-.256 2.02 1.065 1.964 1.286-.06.925-1.274.95-2.065.058-1.972.13-3.954-.005-5.918-.196-2.86-.24-5.408 3.877-4.603.49.096 1.146-.012 1.235-.746.107-.877-.488-1.154-1.196-1.172zM208.265 188.242c-4.447-.255-4.447-.238-4.448-4.698 0-.548 0-1.094-.004-1.642-.004-1.425.04-2.852-.02-4.274-.033-.8.25-2.033-1.082-1.94-1.25.085-.914 1.286-.932 2.094-.044 2.08-.016 4.163-.016 6.245 0 6.454 0 6.465 6.612 6.135.79-.04 2.1.4 2.15-.815.056-1.475-1.37-1.053-2.26-1.105zM256.54 165.25c.692-.06 1.75.254 1.793-.856.054-1.315-1.097-1.05-1.92-1.124-.323-.028-.66-.05-.98 0-2.78.43-4.018-.523-3.705-3.538.256-2.484.054-5.018.032-7.53-.007-.794-.114-1.616-1.21-1.504-.872.09-.884.845-.893 1.49-.022 1.858-.008 3.714-.008 5.57-.02 8.092-.02 8.097 6.89 7.49zM483.97 163.537a1.775 1.775 0 0 0-.655-.003c-2.875.5-3.565-.912-3.354-3.51.195-2.388.068-4.805.027-7.208-.012-.807.32-2.037-.92-2.09-1.555-.068-1.084 1.338-1.126 2.208-.078 1.635-.022 3.277-.024 4.916-.002 7.558 0 7.578 6.01 7.365.867-.03 2.385.493 2.405-.807.024-1.347-1.504-.687-2.36-.87zM380.283 175.76c-1.118-.084-1.16.77-1.17 1.546-.024 1.858-.01 3.714-.012 5.57 0 1.856-.023 3.713.01 5.57.014.724-.118 1.656.97 1.75 1.087.092 1.177-.75 1.18-1.537.012-3.823.01-7.646-.005-11.468-.002-.67-.117-1.368-.972-1.432zM339.574 151.964c-.01-.7-.232-1.335-1.09-1.322-.866.012-1.04.676-1.043 1.358-.014 3.93-.012 7.86.003 11.79.004.697.225 1.342 1.083 1.326.853-.016 1.046-.67 1.05-1.364.02-1.965.008-3.93.007-5.896-.002-1.964.013-3.93-.01-5.892zM424.862 152.217c-.01-.7-.233-1.334-1.09-1.322-.866.012-1.04.68-1.043 1.36-.016 3.93-.015 7.86 0 11.788.005.697.226 1.34 1.083 1.325.854-.015 1.047-.67 1.052-1.363.02-1.965.007-3.93.006-5.895 0-1.964.015-3.93-.008-5.893zM150.196 151.964c-.01-.7-.23-1.335-1.09-1.322-.864.012-1.038.676-1.043 1.358-.014 3.93-.013 7.86.002 11.79.003.697.225 1.342 1.082 1.326.854-.016 1.046-.67 1.05-1.364.02-1.965.01-3.93.007-5.896 0-1.964.014-3.93-.008-5.892zM105.485 151.82c-.01-.698-.232-1.334-1.09-1.322-.865.013-1.04.68-1.043 1.36-.015 3.93-.014 7.86.002 11.79.003.697.225 1.34 1.083 1.325.853-.015 1.046-.67 1.052-1.362.018-1.965.006-3.93.005-5.894-.003-1.966.012-3.93-.01-5.895zM150.21 165.055zM348.926 148.362c-.21.487-.21 1.08.562 1.29 1.197-.284 1.515-1.438 2.096-2.3.37-.55.037-1.14-.608-1.162-1.424-.054-1.638 1.215-2.05 2.172zM357.41 171.152c-1.378.55-1.69 1.68-1.694 3.505 1.46-.885 2.413-1.663 2.646-3.002.09-.512-.56-.66-.952-.503zM150.21 165.052c-.026-.06-.047-.12-.074-.18.026.06.047.122.074.183v-.003zM150.21 165.055z"/></svg>