<svg xmlns="http://www.w3.org/2000/svg" viewBox="0 0 244.906 65.0464"><path d="M76.917 14.733h3.44v34.493h-3.44V14.733zm-6.29 3.055V14.83h-10.24v2.958H63.8v28.594h-3.413v2.958h10.241v-2.958h-3.413V17.788h3.413zm145.224 28.38l1.816-2.53c2.34 1.958 4.777 3.01 7.262 3.01 2.723 0 4.634-1.53 4.634-3.87v-.05c0-2.196-2.054-3.343-5.4-4.73-3.964-1.718-7.117-3.295-7.117-7.165v-.095c0-4.06 3.296-6.784 7.74-6.784 2.818 0 5.732 1.1 7.834 2.675l-1.673 2.627c-1.91-1.385-4.06-2.34-6.258-2.34-2.63 0-4.3 1.528-4.3 3.486v.096c0 2.1 2.15 3.152 5.54 4.585 4.11 1.816 6.976 3.536 6.976 7.31v.095c0 4.443-3.583 7.166-8.074 7.166-3.058 0-6.354-1.194-8.98-3.487m-6.832-5.59v-3.106c-1.576-.574-3.582-1.004-6.02-1.004-3.964 0-6.162 2.055-6.162 5.208v.143c0 3.106 2.34 5.065 5.303 5.065 3.822.048 6.88-2.675 6.88-6.306m-15.622 1.432v-.19c0-5.113 3.68-8.027 9.173-8.027 2.63 0 4.54.43 6.403 1.003v-1.48c0-4.014-2.34-6.164-6.354-6.164-2.486 0-4.636.765-6.355 1.672l-1.1-2.82c2.34-1.145 4.778-2.005 7.836-2.005 3.01 0 5.35.86 6.976 2.485 1.53 1.53 2.388 3.822 2.388 6.737v16.004h-3.39v-3.63c-1.482 2.34-3.92 4.156-7.597 4.156-4.157 0-7.98-2.82-7.98-7.74m-23.07-17.676h3.438v4.06c1.386-2.484 3.632-4.538 7.358-4.538 5.064 0 8.122 3.488 8.122 9.077v16.29h-3.44V33.892c0-4.442-2.102-6.927-5.733-6.927-3.63 0-6.307 2.867-6.307 7.12v15.143h-3.44v-24.89zm-9.842 0h3.44v24.89h-3.44v-24.89zm-.19-9.173h3.82v4.06h-3.82v-4.06zm-38.84 9.173h3.44V28.3c1.386-2.34 3.393-4.442 6.976-4.442 3.345 0 5.686 1.815 6.88 4.54 1.53-2.438 3.822-4.54 7.644-4.54 4.825 0 7.93 3.344 7.93 9.125v16.243h-3.44V33.89c0-4.538-2.006-6.927-5.397-6.927-3.25 0-5.877 2.58-5.877 7.07v15.193h-3.44V33.843c0-4.443-2.006-6.88-5.398-6.88-3.344 0-5.877 2.915-5.877 7.12v15.143h-3.44v-24.89zm-25.03 16.34v-16.34h3.44v15.336c0 4.442 2.102 6.927 5.733 6.927 3.63 0 6.307-2.82 6.307-7.072V24.336h3.44v24.89h-3.44v-4.06c-1.387 2.484-3.632 4.538-7.358 4.538-5.064 0-8.122-3.487-8.122-9.03m-9.506-25.94h3.438v34.492h-3.44V14.733zM12 12v41.046h41.043V12H12zm8.92 7.267c.24.012.476.088.682.224l10.836 7.3 10.828-7.3a1.36 1.36 0 0 1 1.384-.068c.44.232.707.686.707 1.185v23.68c0 .5-.268.957-.707 1.19-.44.236-.97.202-1.384-.073L32.438 38.11l-10.836 7.294a1.35 1.35 0 0 1-1.387.072 1.35 1.35 0 0 1-.71-1.188v-23.68c0-.5.278-.954.71-1.186.222-.116.466-.167.706-.155zm1.277 3.87v18.62c1.573-1.057 4.816-3.243 7.832-5.274l-4.347-2.92a1.35 1.35 0 0 1 0-2.23l4.346-2.925-7.833-5.273zm20.474 0c-1.573 1.06-4.81 3.243-7.83 5.272l4.345 2.922c.378.252.593.672.593 1.117 0 .445-.215.863-.593 1.113l-4.345 2.92c3.02 2.03 6.257 4.217 7.83 5.275v-18.62zM32.44 30.032c-1.558 1.043-2.87 1.93-3.598 2.417l3.598 2.416c1.546-1.047 2.864-1.928 3.588-2.417-.724-.49-2.042-1.375-3.588-2.418z"/></svg>
