<svg xmlns="http://www.w3.org/2000/svg" viewBox="0 0 410 300"><path fill-rule="evenodd" clip-rule="evenodd" fill="#1A171B" d="M49.412 276.2a1.552 1.552 0 0 1-.476.842c-.238.254-.62.46-1.127.603-.525.16-1.176.27-1.985.35-.81.078-1.794.126-2.984.126-1.206 0-2.19-.047-2.952-.126-.746-.08-1.35-.19-1.778-.35-.445-.142-.73-.348-.89-.602-.158-.238-.19-.524-.094-.84l11.397-56.906c.032-.318.175-.603.444-.84.254-.255.65-.46 1.16-.604.507-.158 1.158-.27 1.95-.35.795-.08 1.78-.126 2.953-.126 1.175 0 2.143.048 2.905.127.762.08 1.365.19 1.81.35.46.142.746.348.89.602.142.238.174.524.11.84l-11.333 56.906zm53.614-1.885a4.274 4.274 0 0 1-.6 1.578 4.106 4.106 0 0 1-1.03 1.134 3.83 3.83 0 0 1-1.29.678c-.47.13-.966.21-1.475.21h-4.276c-.926 0-1.67-.092-2.256-.275a3.262 3.262 0 0 1-1.513-.952c-.417-.456-.795-1.082-1.12-1.865-.34-.795-.68-1.8-1.03-3.025L81.13 249.72c-.56-1.707-1.07-3.428-1.552-5.163-.47-1.734-.913-3.442-1.356-5.15h-.065c-.262 2.007-.55 3.99-.888 5.932a153.156 153.156 0 0 1-1.11 5.867l-5.046 25.26c-.04.247-.17.482-.352.677-.195.21-.483.378-.86.496-.392.13-.875.235-1.474.313-.6.078-1.343.117-2.23.117-.9 0-1.63-.04-2.204-.117-.574-.078-1.017-.182-1.317-.313-.3-.117-.51-.287-.588-.496a.928.928 0 0 1-.026-.678l8.906-44.48c.222-1.186.743-2.086 1.565-2.685.81-.6 1.734-.9 2.752-.9h5.228c.847 0 1.565.092 2.164.288s1.108.496 1.526.913c.417.418.782.966 1.108 1.63.313.666.613 1.474.9 2.44l7.368 22.27a87.158 87.158 0 0 1 1.317 4.24c.392 1.407.81 2.802 1.24 4.21h.078c.287-1.838.6-3.728.94-5.67.338-1.957.69-3.848 1.055-5.673l4.695-23.302c.052-.26.17-.483.34-.678.182-.183.456-.34.82-.456.38-.116.85-.208 1.435-.26.587-.065 1.33-.104 2.217-.104s1.63.04 2.217.104c.587.052 1.03.143 1.343.26.3.118.508.275.6.457.104.195.13.417.078.678l-8.932 44.57zm47.18-44.31c0 .157-.014.43-.053.822-.04.39-.104.835-.196 1.317-.078.482-.196.99-.326 1.513a7.84 7.84 0 0 1-.468 1.447 4.394 4.394 0 0 1-.665 1.096c-.26.273-.548.417-.887.417h-16.157l-2.673 13.287h15.204c.352 0 .613.143.756.43.156.274.235.64.235 1.11 0 .17-.026.455-.078.847-.052.405-.117.836-.21 1.305-.09.47-.208.965-.338 1.487a10.634 10.634 0 0 1-.496 1.422c-.196.417-.417.77-.678 1.043-.248.287-.548.43-.874.43h-15.087l-3.664 18.452a1.3 1.3 0 0 1-.39.716c-.196.21-.51.378-.94.496-.417.13-.95.235-1.616.313-.665.078-1.474.117-2.45.117-.992 0-1.8-.04-2.427-.117-.613-.078-1.108-.182-1.46-.313-.365-.117-.6-.287-.73-.496-.13-.196-.157-.443-.078-.717l8.945-44.86c.222-1.12.678-1.93 1.37-2.424a3.833 3.833 0 0 1 2.294-.743h23.145c.43 0 .704.143.822.417.115.286.168.677.168 1.185zm47.83 14.944c0 2.23-.197 4.628-.6 7.17a42.992 42.992 0 0 1-1.97 7.59 36.317 36.317 0 0 1-3.573 7.198 26.197 26.197 0 0 1-5.385 6.05c-2.112 1.748-4.603 3.143-7.46 4.187-2.842 1.043-6.09 1.565-9.74 1.565-3.077 0-5.802-.34-8.15-1.03-2.36-.678-4.342-1.747-5.96-3.17-1.616-1.42-2.84-3.22-3.663-5.384-.835-2.164-1.252-4.707-1.252-7.64 0-2.4.21-4.89.64-7.512a40.478 40.478 0 0 1 2.02-7.667 34.084 34.084 0 0 1 3.65-7.172 26.953 26.953 0 0 1 5.426-5.998c2.11-1.734 4.576-3.104 7.406-4.108 2.83-1.005 6.037-1.5 9.623-1.5 3.09 0 5.802.338 8.162 1.042 2.36.704 4.33 1.774 5.933 3.208 1.604 1.447 2.83 3.26 3.65 5.45.836 2.19 1.24 4.76 1.24 7.72zm-10.615.95c0-1.55-.17-2.96-.52-4.224-.34-1.265-.888-2.32-1.657-3.195-.77-.86-1.76-1.525-3-1.994-1.237-.483-2.737-.717-4.524-.717-2.218 0-4.16.43-5.843 1.29a14.776 14.776 0 0 0-4.395 3.338c-1.252 1.37-2.295 2.947-3.143 4.72a33.675 33.675 0 0 0-2.022 5.386 35.652 35.652 0 0 0-1.082 5.32c-.222 1.734-.326 3.26-.326 4.55 0 1.58.17 3 .51 4.24.35 1.25.912 2.307 1.68 3.155.784.847 1.788 1.512 3.026 1.968 1.226.456 2.75.69 4.564.69 2.19 0 4.12-.43 5.803-1.264a14.8 14.8 0 0 0 4.38-3.3 19.76 19.76 0 0 0 3.105-4.68 32.624 32.624 0 0 0 2.034-5.36c.508-1.798.86-3.572 1.083-5.306.22-1.735.326-3.274.326-4.617zm65.256-26.287c0 .222-.032.57-.08 1.048-.047.477-.11 1.017-.22 1.604-.112.587-.255 1.206-.43 1.84-.16.636-.365 1.207-.603 1.747a4.57 4.57 0 0 1-.826 1.303c-.333.333-.683.508-1.048.508h-15.112l-9.683 48.51a1.883 1.883 0 0 1-.508.824c-.254.254-.635.46-1.143.603-.508.16-1.16.286-1.952.38-.794.096-1.794.144-3 .144-1.175 0-2.16-.047-2.92-.142-.78-.095-1.382-.222-1.795-.38-.43-.144-.698-.35-.84-.604-.144-.238-.176-.524-.112-.825l9.667-48.51h-14.968c-.476 0-.794-.174-.952-.507-.175-.35-.254-.81-.254-1.397 0-.254.016-.62.064-1.095a20.59 20.59 0 0 1 .238-1.634c.095-.603.238-1.222.413-1.857.174-.636.38-1.207.62-1.747.253-.524.54-.952.84-1.27.318-.333.65-.492 1.032-.492h42.413c.365 0 .65.176.857.51.19.348.3.824.3 1.443zm33.79 10.236c0-.966-.34-1.448-.99-1.448h-24.607c-.85 0-1.605.248-2.296.743-.69.495-1.148 1.304-1.37 2.425l-8.632 43.097c-.104.56-.117 1.03-.04 1.434.066.393.223.718.432.992.22.26.495.456.82.574.34.117.705.17 1.11.17h24.84c.326 0 .613-.13.874-.38.247-.26.482-.6.665-1.016a8.33 8.33 0 0 0 .483-1.356c.13-.483.235-.965.326-1.434.09-.47.143-.9.17-1.278.025-.378.038-.665.038-.835 0-.51-.078-.9-.235-1.174a.746.746 0 0 0-.69-.405h-17.88l2.83-13.94h14.945c.3 0 .587-.13.835-.377.26-.26.483-.586.665-.99.195-.417.352-.86.482-1.343s.235-.965.3-1.434c.078-.47.143-.887.183-1.252.04-.377.052-.65.052-.82 0-.47-.078-.823-.235-1.07-.143-.26-.404-.39-.756-.39h-14.983l2.45-12.076h17.644c.313 0 .6-.13.86-.417.275-.274.497-.626.692-1.043.195-.43.35-.887.482-1.395.13-.51.222-1.005.3-1.474.078-.47.13-.9.17-1.278a10 10 0 0 0 .064-.81zm40.228 3.324c0 .717-.13 1.67-.365 2.87-.25 1.2-.55 2.15-.927 2.88-.365.73-.782 1.096-1.24 1.096-.325 0-.73-.222-1.186-.64-.456-.416-1.056-.873-1.787-1.355-.743-.483-1.682-.94-2.83-1.356-1.147-.418-2.57-.627-4.277-.627-1.89 0-3.612.378-5.164 1.12a15.136 15.136 0 0 0-4.16 2.987 19.966 19.966 0 0 0-3.21 4.264 28.71 28.71 0 0 0-2.28 4.995c-.588 1.733-1.044 3.454-1.33 5.176-.3 1.72-.444 3.325-.444 4.798 0 1.786.222 3.35.665 4.695.457 1.355 1.096 2.476 1.93 3.363a7.99 7.99 0 0 0 3.104 2.008c1.213.445 2.595.666 4.12.666 1.814 0 3.352-.183 4.643-.574 1.29-.378 2.386-.795 3.286-1.252.9-.47 1.656-.887 2.256-1.265.6-.378 1.133-.574 1.616-.574.34 0 .56.118.678.366.104.235.17.574.17 1.004 0 .183-.026.456-.078.81-.052.35-.117.755-.196 1.2-.065.442-.156.938-.26 1.46a16.812 16.812 0 0 1-.353 1.446 9.652 9.652 0 0 1-.43 1.226c-.17.365-.39.69-.665.965-.287.287-.835.652-1.643 1.096-.823.443-1.813.86-2.987 1.24a31.72 31.72 0 0 1-3.977.977 27.1 27.1 0 0 1-4.733.404c-2.777 0-5.28-.378-7.51-1.108-2.23-.743-4.122-1.865-5.673-3.364-1.552-1.5-2.752-3.39-3.586-5.66-.848-2.27-1.265-4.916-1.265-7.94 0-2.374.247-4.84.73-7.395a40.478 40.478 0 0 1 2.19-7.51c.99-2.44 2.23-4.76 3.73-6.95a26.302 26.302 0 0 1 5.332-5.752c2.047-1.643 4.382-2.947 6.99-3.912 2.607-.965 5.502-1.46 8.684-1.46 1.787 0 3.47.196 5.073.56 1.59.366 2.972.862 4.16 1.474 1.186.613 2.007 1.16 2.477 1.656.47.496.717 1.135.717 1.89zm37.464 43.32l9.363-46.75a1.02 1.02 0 0 0-.09-.69c-.118-.21-.352-.378-.717-.495-.352-.13-.848-.223-1.487-.288a24.08 24.08 0 0 0-2.4-.104c-.977 0-1.786.04-2.45.104-.666.065-1.2.156-1.605.287-.403.116-.716.286-.912.494-.21.196-.34.43-.39.69l-3.587 18.178h-18.53l3.626-18.177c.052-.26.026-.496-.09-.69-.118-.21-.353-.38-.705-.496-.35-.13-.847-.223-1.486-.288a24.366 24.366 0 0 0-2.412-.104c-.965 0-1.786.04-2.438.104-.665.065-1.2.156-1.604.287-.417.116-.717.286-.926.494-.196.196-.313.43-.34.69l-9.362 46.75c-.078.26-.052.494.078.69.13.21.365.378.73.495.352.13.848.22 1.46.286.627.065 1.435.104 2.426.104.978 0 1.786-.04 2.438-.104.64-.065 1.174-.156 1.604-.287.417-.118.73-.288.926-.496.208-.196.34-.43.39-.69l3.965-20.017h18.49l-3.964 20.016c-.078.26-.052.495.065.69.13.21.366.38.718.496.34.13.835.22 1.46.286.64.065 1.448.104 2.413.104.966 0 1.787-.04 2.452-.104.652-.065 1.187-.156 1.604-.287.404-.118.704-.288.913-.496.208-.196.326-.43.378-.69z"/><path d="M281.762 90.012l-20.21-20.033c.652-.102 1.2-.664 1.69-1.17l.268-.275c.505-.555 1.01-1.423 1.496-2.574.4-.907.767-2.002 1.055-3.157a41.77 41.77 0 0 0 .74-3.237c.197-1.04.306-2.002.386-2.806.086-.846.14-1.45.14-1.852 0-1.19-.242-1.63-.577-2.244l-.062-.1c-.407-.66-.966-1.566-1.84-1.566h-22.34l-22.47-22.678c-8.33-8.33-21.96-8.44-30.29-.11l-61.725 61.67c-8.33 8.332-8.33 21.936 0 30.266l35.43 35.417-4.33 23.187c-.196.656-.123 1.27.207 1.763.334.535.92.94 1.728 1.198.735.273 1.772.48 3.17.628 1.41.147 3.145.222 5.154.222 1.958 0 3.71-.074 5.207-.222 1.458-.144 2.606-.346 3.5-.617.944-.265 1.66-.65 2.108-1.132.51-.476 1.216-1.99 1.334-2.583l.858-3.52 7.357 7.358c8.33 8.33 21.962 8.33 30.292 0l61.723-61.632c8.33-8.328 8.33-21.867 0-30.198zm-100 83.847l.006.006-.97 3.977c-.104.527-.755 1.862-1.13 2.216-.367.39-.982.715-1.788.94-.854.26-1.955.453-3.365.592-1.473.145-3.2.218-5.133.218-1.983 0-3.69-.073-5.075-.218-1.334-.142-2.312-.333-3.004-.59-.65-.208-1.1-.506-1.343-.896-.21-.315-.25-.7-.108-1.18l4.768-25.525-.034-.005 14.64-73.11c.056-.55.304-1.05.77-1.462.44-.44 1.128-.8 2.008-1.047.88-.275 2.007-.468 3.382-.606 1.375-.137 3.08-.22 5.115-.22 2.036 0 3.713.082 5.033.22 1.32.138 2.365.33 3.135.605.797.247 1.292.605 1.54 1.045.247.412.302.907.192 1.457l-18.64 93.582zm37.273-22.254c-.163.515-.433.91-.867 1.316-.434.433-1.084.74-1.95.983-.868.27-1.98.465-3.333.627-1.355.163-3.06.232-5.12.232-2.005 0-3.685-.087-4.985-.25-1.327-.162-2.357-.382-3.06-.653-.732-.243-1.193-.597-1.437-1.03-.244-.406-.298-.71-.19-1.225L214.593 69h-29.548c-.813 0-1.355-.482-1.626-1.05-.3-.597-.434-1.475-.434-2.478 0-.433.027-1.102.108-1.915.08-.812.217-1.784.406-2.813.162-1.03.406-2.098.704-3.18.298-1.084.634-2.073 1.057-2.987.418-.902 1.437-1.952 1.437-1.952l1.76-.625h76.389c.316 0 .755.71 1.024 1.146.31.57.453.83.453 1.764 0 .357-.054.958-.133 1.75a31.21 31.21 0 0 1-.373 2.72 40.25 40.25 0 0 1-.726 3.17c-.276 1.11-.622 2.15-1.003 3.014-.44 1.038-.896 1.833-1.303 2.28l-.265.272c-.38.394-.854.884-1.17.884H235.56l-16.525 82.606z"/></svg>