<svg xmlns="http://www.w3.org/2000/svg" viewBox="0 0 600 400"><path fill="#2E2A25" d="M140.603 214.887c1.4-.397 2.854-.313 4.28-.416 3.227-.233 6.463-.374 9.698-.474 6.634-.205 13.27-.312 19.903-.546 6.477-.228 12.958-.107 19.43-.304 5.96-.182 11.917-.11 17.875-.19 33.717-.452 67.435-.236 101.152-.113 10.437.038 20.878-.026 31.313.22 8.64.204 17.278.007 25.914.21 7.678.18 15.36.065 23.033.27 6.64.18 13.277.09 19.914.19 12.115.182 24.232.275 36.345.52 9.994.2 19.99.296 29.985.482 8.835.164 17.67.297 26.505.483 7.475.158 14.95.315 22.425.464 8.113.16 16.224.45 24.335.704 2.716.085 4.083 1.503 3.857 3.91-.114 1.22-.716 1.857-1.93 1.817-4.992-.168-9.984-.38-14.976-.58-.638-.026-1.275-.09-1.914-.102-9.194-.19-18.39-.32-27.583-.573-8.794-.24-17.59-.31-26.385-.476-12.355-.234-24.71-.308-37.066-.513-6.518-.108-13.04-.013-19.553-.213-9.118-.28-18.24-.004-27.354-.25-9.078-.246-18.158-.042-27.234-.23-14.877-.305-29.756-.09-44.634-.23-43.397-.407-86.794-.23-130.19-.11-9.398.026-18.797.082-28.194.213-8.036.112-16.07.297-24.105.473-1.518.033-3.03.26-4.553.154-.832-.405-1.728-.44-2.627-.444-1.4-.008-1.837-.652-1.588-2.054.193-1.086.644-1.555 1.807-1.65.676-.06 1.565.065 2.113-.64zM184.772 184.028c0-5.32.006-10.637-.003-15.956-.003-1.444.08-2.877.367-4.293 1.068-5.267 4.345-8.276 9.538-9.333 2.2-.448 4.43-.684 6.67-.69 7.757-.026 15.515-.025 23.273-.003 2.28.006 4.55.22 6.787.702 5.657 1.218 8.973 4.906 9.55 10.668.127 1.27.193 2.553.195 3.83.015 10.957-.005 21.914.03 32.87.004 1.022-.208 1.373-1.307 1.353-4.038-.072-8.078-.07-12.116 0-1.124.018-1.475-.223-1.468-1.42.054-9.517.026-19.035.033-28.553 0-1.407-.11-2.797-.514-4.15-.547-1.827-1.717-3.047-3.597-3.494-.814-.194-1.646-.378-2.477-.418-4.593-.22-9.197-.394-13.776.07-4.19.425-6.18 2.692-6.257 6.91-.07 3.798-.023 7.598-.024 11.397-.003 6.117-.02 12.236.02 18.354.005.944-.16 1.316-1.22 1.3a468.043 468.043 0 0 0-12.595-.005c-.91.01-1.138-.26-1.133-1.147.037-5.998.02-11.996.02-17.995zM282.94 153.74c6.64 0 13.278.02 19.916-.023.998-.007 1.29.262 1.268 1.264-.066 2.88-.068 5.76 0 8.638.025 1.06-.22 1.41-1.36 1.403-10.318-.047-20.636-.023-30.954-.03-1.567 0-3.12.113-4.633.528-2.752.755-4.818 3.755-4.596 6.574.033.404.158.583.56.573.36-.01.72.003 1.08.003 12.84 0 25.676.013 38.514-.023 1.074-.003 1.428.246 1.395 1.37a132.89 132.89 0 0 0 .002 8.516c.042 1.217-.375 1.422-1.485 1.42-12.838-.04-25.675-.028-38.513-.02-1.774 0-1.56-.225-1.562 1.624-.01 5.48-.03 10.958.02 16.437.01.972-.29 1.19-1.21 1.18-4.12-.047-8.24-.044-12.357 0-.897.008-1.245-.188-1.245-1.168.004-11.558-.04-23.116-.055-34.673-.002-1.402.194-2.793.524-4.157 1.207-4.992 4.507-7.733 9.424-8.727a36.376 36.376 0 0 1 7.15-.697c6.038-.016 12.077-.007 18.116-.01zM163.45 178.436c0-7.836.016-15.672-.02-23.508-.003-.934.237-1.22 1.195-1.21 4.197.053 8.396.042 12.593.007.823-.007 1.1.22 1.097 1.074-.05 15.75-.076 31.503-.088 47.255 0 .776-.145 1.126-1.044 1.115a579.302 579.302 0 0 0-12.713 0c-.886.01-1.037-.314-1.035-1.106.026-7.876.016-15.752.016-23.628zM44.87 211.194c-3.093-2.374-5.68-5.246-8.04-8.32-6.984-9.107-9.698-19.432-8.835-30.815 1.013-13.35 6.728-24.395 16.218-33.635.826-.804 1.538-1.742 2.585-2.3.45.285.35.646.165 1.04-.45.955-.748 1.928-1.703 2.646-1.183.89-1.828 2.178-1.485 3.79.13.61-.072 1.265.083 1.938 1.17-.508 1.996-1.345 2.83-2.195.69-.704.92-.65 1.353.09-6.068 7.63-9.987 16.17-11.112 25.936-.933 8.096-.307 16.01 2.413 23.723 1.162 3.29 2.803 6.34 4.653 9.283a.454.454 0 0 1-.195.25c-.282.12-.504-.004-.71-.18-.2-.173-.385-.223-.532.066a.78.78 0 0 1-.227.217c-.11.05-.31.1-.305.16.072 1.087-.28 2.095-.537 3.122-.046.18.096.437.263.507 1.33.556 1.72 2.12 3.042 2.738.817.382.763 1.165.078 1.936zM89.975 151.558c.006 5.48-.005 10.958.034 16.437.006.94-.316 1.264-1.247 1.26-5.32-.03-10.638-.038-15.957-.006-1.02.005-1.29-.4-1.284-1.354.035-4.88.34-9.746.75-14.607.072-.87.442-1.21 1.33-1.32 3.375-.416 6.76-.693 10.147-.94.32-.42.785-.48 1.263-.522 1.352-.122 2.675.148 4.006.3.447.05.832.25.955.75zM108.506 156.352c.17 3.825.44 7.646.47 11.48.01 1.12-.38 1.428-1.45 1.42-5.227-.044-10.455-.025-15.683-.024-.702 0-1.354.055-1.346-1.003.046-5.546.05-11.093.067-16.64.517-.514 1.107-.23 1.678-.152 2.886.322 5.733.82 8.468 1.842.333.124.697.146 1.056.1 2.185.8 4.548 1.14 6.536 2.47.147.136.22.303.204.507zM108.464 179.615c-.212.65-.47 1.203-1.16 1.56-5.05 2.607-10.278 4.76-15.722 6.387-.34.1-.7.13-1.05.192-.006-5.596.01-11.193-.035-16.79-.008-.986.367-1.2 1.264-1.196a1229 1229 0 0 0 15.95-.01c.954-.007 1.272.295 1.21 1.238-.182 2.87-.308 5.746-.456 8.62zM91.177 145.355c-.654-.083-.672-.562-.67-1.064.004-3.784.022-7.57-.006-11.354-.005-.865.368-1.105 1.154-1.073 1.034.043 2.07.02 3.106.027.868.36 1.818-.225 2.677.233 2.18.484 4.412.724 6.562 1.365.576.172 1 .364 1.152 1.03a164.35 164.35 0 0 1 2.44 13.432c.145 1.034-.114 1.142-1.032.854-4.234-1.325-8.53-2.41-12.93-3.024-.47-.313-.886.11-1.333.096a1.53 1.53 0 0 1-1.12-.52zM80.74 169.776c2.678 0 5.356.034 8.032-.018.952-.02 1.234.31 1.228 1.242-.033 5.114-.01 10.23-.016 15.343 0 .31.138.722-.14.9-.373.24-.654-.17-.934-.356-6.082-4.045-11.608-8.743-16.53-14.144-.19-.206-.4-.404-.54-.64a2.27 2.27 0 0 1-.162-1.968c.23-.614.912-.334 1.392-.34 2.557-.025 5.114-.01 7.67-.01v-.01zM75.092 144.574l-1.608.006c-.28-.32.18-.78.236-1.22.318-2.562 1.052-5.045 1.4-7.598.105-.763-.01-1.07.703-1.334 2.69-.993 5.477-1.613 8.273-2.213 1.66-.357 3.322-.346 4.995-.328.872-.035.908.538.907 1.19-.006 3.988.004 7.975.008 11.96-.772.505-1.597.57-2.507.463-1.226-.143-2.45-.33-3.69-.348-.483-.007-.97-.057-1.237-.563-.226-.007-.452-.012-.68-.018a45.25 45.25 0 0 0-6.798.002zM134.028 186.138c-.918-.266-1.107-.943-.968-1.774.105-.63.27-1.252-.092-1.854-.448-.39-.272-.77.017-1.147 1.493-1.944 2.505-4.15 3.477-6.377.13-.296.22-.606.602-.664.508-.168.553-.648.687-1.052 1.984-5.99 2.358-12.118 1.584-18.348-.735-5.91-2.8-11.294-6.312-16.114-.17-.893-.79-1.424-1.507-1.876l-.46-.504c-.074-.562-.414-.866-.95-.98l-.475-.47a3.314 3.314 0 0 0-.11-.463c-.16-.55-.34-1.153.323-1.456.68-.312.82.333 1.09.753.37.574 1.08.727 1.564 1.168 6.086 6.118 9.55 13.518 10.49 22.05 1.076 9.803-.568 18.945-7.122 26.75-.64.763-1.226 1.57-1.837 2.358z"/><path fill="#2E2A25" d="M48.04 143.43c-.906-.28-1.2.504-1.533 1.01-.352.533-.712.894-1.334 1.087-.523.162-1.03.456-1.106 1.13-.03.287-.155.596-.51.536-.305-.05-.2-.366-.254-.59-.345-1.476.18-3.022-.37-4.483-.058-.153 0-.45.116-.55.98-.858 1.265-2.235 2.5-2.988.667-.407.847-1.612 1.247-2.457 4.292-3.998 9.147-7.17 14.38-9.783 2.03-1.014 4.082-1.992 6.27-2.64.964.977.972 1.516.024 2.73.524-.17.953-.51 1.44-.675.552-.185 1.277-.497 1.39.553-7.727 3.643-14.424 8.68-20.236 14.92-.678.73-1.348 1.467-2.023 2.2zM85.424 195.438c.816-.156 1.65-.25 2.442-.487.79-.237 1.478-.135 2.154.283-.01 3.478-.057 6.956-.012 10.433.013 1.027-.23 1.45-1.334 1.34-3.993-.4-7.896-1.183-11.703-2.46-.666-.225-.935-.67-1.07-1.295-.422-1.95-.856-3.9-1.286-5.85-.186-.545.065-.923.572-.956 3.424-.222 6.763-1.32 10.238-1.006zM140.603 214.887l1.007.094c-1.118.738-2.218.8-3.242 1.015-1.17.247-1.083 1.234-1.15 1.938-.074.777.734.648 1.333.752.83.145 1.847.004 2.346.986-4.018.307-8.06.212-12.063.764-.433.06-.894.08-1.286.25-4.837 2.096-10.017 2.622-15.155 3.34-1.382.192-2.776.296-4.164.44-.873-.167-1.746-.155-2.63-.076-.462.04-1.006.01-1.084-.635-.07-.578.418-.69.82-.87.784-.346 1.788-.006 2.434-.78 5.708-2.22 11.606-3.778 17.588-5.04 5.034-1.063 10.122-1.754 15.247-2.176zM44.87 211.194c-.036-.805-.044-1.574-1.12-1.792-.512-.104-.698-.728-1.003-1.133-.288-.384-.558-.728-1.018-.952-1.158-.565-1.394-1.306-.71-2.408.348-.56.43-.943.148-1.604-.486-1.142.58-.74 1.082-.874.7.828.7.828 1.933.216 4.242 5.84 9.47 10.594 15.74 14.177a51.47 51.47 0 0 0 10.636 4.584c.097.986-.564.98-1.23.908-.378-.04-.71-.325-1.377-.29.97.552 1.766.856 2.638.934.527.047 1.035.145 1.47.452.242.17.377.44.265.736-.11.29-.346.277-.586.138-2.8-.29-5.42-1.275-8.047-2.184-6.588-2.28-12.534-5.718-17.944-10.1-.31-.25-.588-.54-.88-.81zM125.314 166.677c-1.07 1.988-2.692 2.587-4.943 2.46-3.623-.203-7.265-.075-10.9-.087-.018-3.673-.033-7.347-.294-11.014-.138-.26-.09-.542-.082-.813.027-.92.293-1.145 1.172-.857 1.312.43 2.56 1.023 3.78 1.666.768.58 1.722.786 2.548 1.275 1.056.624 2.108 1.24 3.066 2.006 1.83.908 3.418 2.157 4.936 3.502.417.37.792.784.903 1.364-.027.18-.096.342-.186.497zM71.72 153.34c-.47 4.88-.74 9.857-.672 14.852.005.382.103.87-.434.986-.643.138-1.28.128-1.734-.48-.977-1.314-1.99-2.6-2.923-3.944a53.49 53.49 0 0 1-5.217-9.41c-.34-.79-.204-1.165.662-1.316 3.143-.55 6.283-1.12 9.42-1.698.795-.148 1.026.204.897 1.01zM104.94 201.224c-.062 1.247-.505 2.414-.753 3.623-.107.52-.45.696-.906.812-3.884.993-7.826 1.475-11.84 1.398-.874-.017-.94-.476-.936-1.15.02-3.39.02-6.78.027-10.172.608-.69 1.196-.185 1.723.086 3.136 1.61 6.37 2.972 9.744 4.004.612.187 1.225.37 1.843.528.51.13.867.383 1.024.892l.077-.022zM72.958 144.343c-1.167.633-2.485.502-3.73.676-3.21.448-6.352 1.148-9.438 2.13-.404.13-.927.62-1.28.035-.32-.527-.282-1.155.118-1.693a29.48 29.48 0 0 1 2.81-3.263c3.203-2.654 6.917-4.442 10.61-6.265.36-.177.733-.31 1.113-.437 1.384-.463 1.737-.225 1.443 1.146-.486 2.26-.914 4.53-1.3 6.808-.047.286-.047.65-.345.86z"/><path fill="#2E2A25" d="M70.3 126.31c-.47-.266-.957-.224-1.347.102-.86.72-1.897.46-2.863.587-.245.03-.513-.046-.556-.33-.044-.295.218-.39.448-.47 1.628-.564 1.628-.563 1.467-2.497l.494-.21c1.32-.263 2.66-.464 3.825-1.217 3.72-1.273 7.578-1.898 11.46-2.385 3.493-.437 7.007-.653 10.52-.487 3.326.158 6.67.24 9.952.928.2 1.15-.648.777-1.13.846.296.062.686-.048 1.042.083.28.102.464.343.372.65-.09.303-.335.265-.567.137-2.616-.242-5.227-.613-7.848-.704-8.8-.305-17.23 1.37-25.27 4.968zM71.74 224.287c-.074-.51-.094-.613-.664-.64-.964-.044-1.842-.415-2.768-.584-.59-.107-.89-.462-1.057-.988-.098-.31-.15-.62.07-.904.304-.388.555-.023.83.06.79.236 1.544.982 2.41.178 5.98 1.737 12.104 2.543 18.312 2.516 6.345-.028 12.678-.386 18.898-1.82-.13.55-.5.766-1.037.825a8.24 8.24 0 0 0-1.286.27c-.224.062-.52.17-.49.45.043.384.393.357.66.298.953-.21 1.79.103 2.614.518-5.996.677-12.01 1.064-18.042 1.32-5.54.235-11.022-.078-16.477-1.016-.67-.115-1.348-.187-1.97-.483zM72.142 185.823c-.19-1.338-.266-2.69-.39-4.038.312-.592-.058-.978-.422-1.354-1.273-1.31-2.575-2.59-3.87-3.878-.262-.262-.54-.482-.886-.53a.815.815 0 0 0-.076-.334c-1.217-1.77-2.58-3.428-3.914-5.107-.39-.49-.754-1.21-1.627-.828-2.28.01-4.558.067-6.835.01-1.043-.026-1.43.282-1.35 1.36.28 3.81 1.126 7.493 2.227 11.137.306 1.016.83 1.593 1.897 1.635 4.733 1.256 9.554 2.05 14.388 2.787.8.123.967-.08.857-.86zM122.617 169.815a51.524 51.524 0 0 1-13.64 10.287c.145-3.153.504-6.296.458-9.457-.01-.71.32-.876.95-.872 4.077.026 8.154.03 12.232.042zM125.45 153.05c-1.27-4.54-3.72-8.348-7.086-11.602-.086-.884-.873-1.055-1.457-1.432-.615-.32-.96-1.03-1.696-1.178-2.408-2.59-5.68-3.533-8.862-4.645-.62-.217-.684.052-.566.582.278 1.247.552 2.495.78 3.752.534 2.956 1.046 5.917 1.565 8.876a.948.948 0 0 0 .104.592c.058.528-.18 1.184.522 1.454 2.455.944 4.86 2.094 7.395 2.738 2.81.715 5.722 1.06 8.556 1.73.918.217.98-.038.748-.867z"/><path fill="#2E2A25" d="M103.418 122.047c.505-.46-.05-.355-.23-.406-.847-.238-1.766-.212-2.793-.693 1.202-.535 2.455.43 3.307-.615 4.007.408 7.8 1.636 11.52 3.1 6.09 2.394 11.49 5.887 16.22 10.408.375.357.705.76 1.055 1.14-.81-.283-1.877-.19-2.037-1.422-.02-.156-.218-.274-.364-.15-.096.084-.175.308-.13.414.21.493.04.847-.336 1.155-5.723-5.163-12.298-8.846-19.623-11.18-2.163-.69-4.39-1.173-6.59-1.75zM72.766 190.415c-.4.618-1.04.502-1.61.465-1.645-.108-3.287-.27-4.93-.41-2.31-.272-4.546-.842-6.768-1.526-1.536-.473-2.613-1.274-3.02-2.882-.136-.53-.392-1.032-.686-1.784 1.904.41 3.6.756 5.286 1.14 3.314.753 6.663 1.32 10.026 1.776 1.06.144 1.472.534 1.47 1.56-.003.555.15 1.108.232 1.66zM60.494 168.588c.057.468-.25.523-.598.516-2.427-.05-4.857.114-7.282-.092-.1-3.945.43-7.827 1.16-11.69.683.155.71.806.927 1.283 1.6 3.523 3.47 6.884 5.794 9.983zM62.138 196.682c.882-.47 1.763.224 2.644 0 2.582.515 5.197.485 7.81.447.666-.01 1.285-.007 1.562.752.38 1.71.76 3.422 1.135 5.135.1.465.194.975-.58.67-4.32-1.705-8.41-3.836-12.184-6.553-.158-.112-.26-.3-.388-.452zM88.816 131.432c-4 .22-7.868 1.094-11.67 2.317-.495.158-1.144.728-1.492.24-.314-.438.09-1.132.46-1.627 4.093-1.415 8.266-2.418 12.624-2.485.51-.008 1.17-.346 1.244.603.07.912-.552.913-1.166.952zM76.47 205.045c1.8.49 3.51 1.01 5.246 1.418 2.334.547 4.695.96 7.1 1.046.625.022 1.22.057 1.164.963-.058.943-.747.678-1.237.66-3.573-.12-7.053-.772-10.482-1.783-1.16-.34-1.782-.936-1.79-2.305zM50.606 171.695l.04-1.923c.998-.124 1.483.184 1.56 1.32.254 3.703.998 7.32 2.117 10.863.124.393.658 1.054.12 1.208-.592.168-1.437.05-1.76-.827-.272-.744-.394-1.546-.84-2.224-.02-.75-.16-1.474-.472-2.16-.87-1.552-1.154-3.25-1.243-4.996-.023-.483.017-.956.48-1.26zM78.47 188.057c.914.166 1.677.638 2.408 1.177l.656.683-4.784.717c-1.092.1-2.215-.166-3.28.27-.808-3.425-.808-3.426 2.632-3.09l2.37.243zM96.725 131.635c-1.785-.166-3.566-.392-5.364-.307-.716.034-.877-.365-.86-.98.024-.862.62-.39.957-.396 4.17-.09 8.17.8 12.08 2.16.41.144.975.15 1.133.89-2.052-.357-3.975-1.027-5.992-1.144-.617-.377-1.347.245-1.953-.223zM76.01 206.51c-4.69-1.762-8.74-4.334-12.28-7.785.338.194.68.38 1.012.585 3.125 1.936 6.375 3.632 9.826 4.902 1.096.403 1.448 1.084 1.44 2.3zM91.824 209.144c-.014 0-.293-.01-.572.002-.484.02-.73-.16-.738-.69-.008-.57.234-.776.785-.773 3.926.02 7.8-.415 11.62-1.34.24-.057.616-.237.697.163.09.438-.35.46-.634.558-3.526 1.234-7.17 1.865-11.16 2.08zM126.813 158.716c-2.783-2.08-5.57-3.745-8.46-5.244.03-.094.06-.188.092-.282 1.527.31 3.056.612 4.582.927 3.338.69 3.44.81 3.786 4.6zM105.575 201.473l6.745.95a48.264 48.264 0 0 1-7.638 2.832l.893-3.782zM72.287 182.32c.61.116.913.675 1.397.973 1.418 1.59 3.228 2.737 4.747 4.212-1.67.053-3.284-.41-4.934-.548-.375-.032-.704-.22-.727-.654-.07-1.34-.596-2.623-.483-3.984zM52.092 169.075c-1.086.22-1.585-.16-1.464-1.323.078-.752.034-1.517.045-2.276.36-1.995.618-4.01 1.146-5.973.17-.64.424-1.172 1.25-1.58-.7 3.8-1.127 7.455-.978 11.152zM75.123 132.85c-.056 1.306-.73 1.983-1.973 2.462-2.894 1.118-5.627 2.592-8.265 4.235-.304.19-.606.59-1.052.24 3.102-2.63 6.475-4.835 10.19-6.505.36-.162.733-.288 1.1-.43zM61.145 153.488c1.97-1.038 4.098-1.497 6.233-1.91 1.213-.236 2.447-.374 3.675-.52.275-.034.74-.23.796.226.046.387-.396.433-.708.483-2.09.337-4.182.653-6.268 1.006-1.248.21-2.486.475-3.73.715zM56.36 187.368c-1.85-.393-2.482-1.677-2.948-3.113-.086-.266-.045-.53.28-.498.544.056 1.186.047 1.458.64.43.93.78 1.897 1.21 2.97zM72.526 150.896c2.443-.01 4.88-.585 7.328-.09-2.155.2-4.31.398-6.465.605-.43.043-.922.238-.864-.514zM71.77 122.276c-.092.17-.147.456-.278.496-1.157.355-2.263.993-3.548.72 1.247-.493 2.506-.947 3.825-1.216zM131.515 136.93c.27-.17.542-.19.698.12.298.588.772.825 1.432.64-.048.59-.333.856-.623 1.117l-1.507-1.876zM44.183 202.646c-.036.07-.07.14-.108.208-.273.497-.608 1.008-1.246.85-.623-.152-.532-.78-.58-1.274.558-.542 1.113.544 1.67.004l.074-.06c.062.09.125.182.19.272zM104.492 206.27c.787-.78 1.83-.794 2.765-1.11-.832.618-1.72 1.088-2.765 1.11zM70.97 171.006c-.482-.318-.778-.61-.896-1.058.94-.123.94-.123.895 1.058zM130.105 135.446c.882-.22 1.202.104.948.98-.315-.326-.63-.653-.948-.98z"/><g fill="#2E2A25"><path d="M540.35 186.38l.138-.284c.915 0 1.83.03 2.743-.005 6.28-.243 10.93-3.814 12.09-9.52.89-4.385.913-8.847-.002-13.227-.9-4.315-3.458-7.286-7.832-8.53-2.6-.738-5.258-1.054-7.937-1.062-12.957-.036-25.914-.013-38.87-.04-.876-.002-1.178.228-1.176 1.14.024 15.756.024 31.512.003 47.267 0 .867.31 1.065 1.114 1.058 4.12-.033 8.24-.06 12.357.015 1.16.02 1.365-.383 1.354-1.424-.047-4.838 0-9.677-.037-14.516-.007-.88.222-1.184 1.136-1.158 2.237.063 4.478.056 6.716.003.907-.022 1.55.236 2.192.908 4.884 5.122 9.817 10.196 14.71 15.31.566.59 1.123.875 1.965.868 4.678-.04 9.357-.015 14.036-.025.375 0 .786.132 1.247-.22-5.334-5.538-10.64-11.046-15.948-16.554zm-6.474-11.597c-3.073.103-6.152.024-9.228.024v.042c-3.036 0-6.073-.027-9.11.016-.885.013-1.277-.168-1.25-1.172.07-2.555.045-5.114.01-7.67-.01-.755.19-1.048 1-1.043 5.914.036 11.827.01 17.74.047 1.315.008 2.62.213 3.906.542 1.813.464 2.933 1.698 3.76 3.274.424.812.3 1.598-.103 2.403-1.398 2.8-3.96 3.443-6.724 3.536zM357.652 154.58c-2.418-.612-4.888-.817-7.368-.825-7.635-.026-15.27-.02-22.906-.003a35.4 35.4 0 0 0-6.906.695c-5.25 1.057-8.532 4.107-9.573 9.427a19.124 19.124 0 0 0-.354 3.694c.008 7.236.006 14.47 0 21.707 0 1.123.083 2.237.28 3.34.803 4.517 3.092 7.827 7.616 9.29 1.64.532 3.323.856 5.04 1.015 5.108.475 10.228.092 14.34.227 4.8 0 8.596-.004 12.394.002 2.004.002 3.99-.188 5.967-.498 5.276-.827 8.9-3.55 10.197-8.92.406-1.677.555-3.387.555-5.11 0-6.517-.006-13.033.005-19.55a38.018 38.018 0 0 0-.2-3.948c-.577-5.592-3.65-9.168-9.088-10.544zm-5.774 31.51c-.547 3.682-1.924 5.196-5.61 5.554-4.893.476-9.823.5-14.71.004-4.078-.413-5.944-2.667-6.083-6.804-.07-2.115-.013-4.235-.013-7.025.115-1.92-.26-4.526.182-7.104.57-3.33 2.263-5.112 5.593-5.445a75.688 75.688 0 0 1 15.428.02c3.316.348 4.71 1.893 5.24 5.243.363 2.305.18 4.627.166 6.94-.017 2.873.233 5.754-.192 8.617zM420.85 154.624c-2.662-.636-5.36-.888-8.084-.89-12.6-.016-25.198.007-37.797-.034-1.135-.004-1.408.352-1.403 1.423.037 7.76.02 15.518.02 23.278-.002 7.84.015 15.68-.022 23.52-.005 1.01.31 1.275 1.295 1.262 4.12-.052 8.24-.047 12.36 0 .89.01 1.155-.233 1.147-1.138-.043-4.88.015-9.76-.047-14.638-.014-1.082.307-1.322 1.342-1.316 7.64.043 15.28.022 22.918.023 2.524 0 5.027-.192 7.51-.684 5.033-.998 8.284-3.908 9.276-8.968.875-4.464.918-9.007-.088-13.456-1.013-4.494-3.895-7.3-8.427-8.382zM411.97 173.9c-1.283.76-2.815.868-4.3.91-1.478.042-2.958.032-4.437.038s-2.957 0-4.436 0c-3.118 0-6.236-.02-9.354.016-.804.01-1.127-.19-1.11-1.06.052-2.598.045-5.198.003-7.795-.013-.782.226-1.03 1.015-1.025 5.876.032 11.752.01 17.63.04a15.14 15.14 0 0 1 3.795.49c.932.246 1.81.605 2.525 1.302 2.826 2.754 1.903 5.17-1.33 7.084zM492.43 201.438c-2.7-9.98-5.454-19.947-8.083-29.946-1.435-5.457-3.92-10.278-7.91-14.287-2.304-2.313-5.045-3.58-8.376-3.49-2.276.06-4.557.047-6.835.002-2.376-.047-4.54.597-6.357 2.088-4.352 3.57-7.774 7.89-9.37 13.338-3.185 10.88-5.874 21.9-8.747 32.866-.28 1.07.064 1.172.972 1.165 4.198-.033 8.396-.04 12.593.007.84.01 1.177-.256 1.372-1.058 1.122-4.617 2.32-9.215 3.426-13.835.24-.998.654-1.344 1.694-1.334 5.197.052 10.395.054 15.592 0 1.053-.012 1.426.36 1.67 1.34 1.138 4.57 2.378 9.116 3.53 13.684.22.872.543 1.248 1.513 1.208 2.076-.084 4.157-.026 6.236-.026 2.078 0 4.16-.055 6.235.022 1.096.04 1.37-.298.947-1.278-.06-.145-.06-.314-.103-.468zm-22.066-25.688c-1.877-.01-3.754-.004-5.63-.005-1.878 0-3.756-.028-5.632.013-.78.017-.96-.186-.728-.96.627-2.104 1.12-4.276 2.367-6.113 2.914-4.296 5.18-4.093 7.935.07 1.246 1.88 1.706 4.114 2.425 6.225.256.753-.192.774-.736.77z"/></g><path fill="#2E2A25" d="M43.92 202.434c-.56.74-1.115.224-1.67-.004-.004-.556-.797-1.208-.15-1.588.444-.26.585.672.978.973.276.213.475.527.842.62zM109.465 187c6.25-3.165 12.042-6.985 17.094-11.874.186-.18.35-.473.7-.284.38.352.31.78.22 1.222-.544 2.74-1.363 5.398-2.26 8.04-.2.59-.575.803-1.11.916-4.233.895-8.48 1.722-12.79 2.172-.617.064-1.316.606-1.855-.193zM107.302 188.007c.197 1.69-.34 3.296-.587 4.932-.312 2.078-.357 2.06-2.342 1.456-2.106-.64-4.14-1.466-6.168-2.313.263-.475.78-.522 1.21-.69 2.67-1.032 5.34-2.063 7.887-3.386z"/><path fill="#2E2A25" d="M108.952 195.51c-2.274-.494-2.057-.222-1.675-2.404.26-1.49.5-2.988.71-4.487.07-.498.213-.785.78-.85 5.07-.59 10.1-1.433 15.09-2.495.105-.022.224.024.452.053-1.35 3.517-3.096 6.764-5.058 9.904l-3.58.693c-2.264.263-4.514.285-6.72-.415zM129.87 171.967l-.755 5.98-.9 2.936c-.25.794-.493 1.59-.756 2.38-.1.297-.2.62-.576.695-.383.077-.804.383-1.145.15-.443-.304-.053-.743.06-1.076.97-2.867 1.725-5.786 2.132-8.785.156-1.148 1.113-1.695 1.687-2.53.083.085.166.167.25.25zM120.243 194.744c1.712-2.882 3.258-5.848 4.526-8.955.09-.22.157-.49.324-.63.438-.366 1.06-.624 1.52-.373.382.207-.066.71-.215 1.042a37.517 37.517 0 0 1-3.734 6.528c-.436.614-.823 1.273-1.33 1.823-.257.28-.548.737-1.093.564z"/><g fill="#2E2A25"><path d="M373.82 240.378c2.998-.01 5.998.015 8.997-.01 2.366-.02 2.038.41 2.13-2.078.036-1.01-.302-1.295-1.29-1.278-3.198.055-6.398.03-9.598.01-.402-.004-1.028.25-1.167-.265-.158-.59.167-1.168.69-1.553.512-.38 1.12-.39 1.722-.393 2.44-.004 4.88.022 7.318-.014 2.608-.04 2.252.525 2.318-2.372.02-.826-.322-1.01-1.067-.994-1.88.04-3.76.013-5.64.013v.012h-5.398c-.12 0-.24.004-.36.012-2.432.153-3.746 1.16-3.932 3.367-.23 2.705-.27 5.436.04 8.14.196 1.73 1.14 2.606 2.862 2.92.743.134 1.507.2 2.262.205 3.04.022 6.08.028 9.118.003 2.365-.02 2.027.417 2.12-2.08.035-.99-.254-1.31-1.268-1.288-2.798.064-5.598.023-8.398.015-.913-.003-1.777-.145-2.237-1.078-.475-.965-.285-1.29.776-1.294zM314.96 237.007c-3.195.073-6.394.03-9.592.022-1.09-.004-1.263-.31-.745-1.255.45-.82 1.224-.967 2.05-.97 2.48-.013 4.958.016 7.436-.022 2.59-.04 2.268.557 2.33-2.355.016-.82-.31-1.007-1.058-.99-1.878.04-3.757.013-5.636.013v.03c-1.92 0-3.84-.065-5.755.016-2.464.105-3.847 1.295-3.937 3.486-.104 2.514-.09 5.037-.004 7.553.064 1.92 1.084 2.958 2.97 3.377.71.158 1.423.198 2.143.198h9.114c2.18 0 2.138 0 2.168-2.144.013-.915-.227-1.247-1.2-1.226-2.838.062-5.677.024-8.515.01-.867-.003-1.684-.15-2.128-1.04-.51-1.023-.33-1.332.812-1.334 3.238-.006 6.477-.05 9.713.024 1.083.025 1.46-.32 1.306-1.35a2.03 2.03 0 0 1 0-.598c.185-1.18-.343-1.47-1.472-1.445zM554.054 239.563c-3.09-1.2-6.188-2.38-9.27-3.6-.356-.14-1.026-.12-.868-.763.124-.505.666-.33 1.038-.332 3.04-.012 6.08-.007 9.12-.007 2.292 0 2.255 0 2.286-2.26.012-.85-.166-1.19-1.11-1.178-3.76.054-7.518.028-11.278.022-1.018-.002-1.974.235-2.905.632-1.644.7-1.9 2.163-1.945 3.67-.04 1.423.808 2.225 2.12 2.7 2.927 1.064 5.83 2.194 8.742 3.305.356.137.896.213.785.73-.1.46-.606.268-.93.27-2.88.016-5.76-.01-8.64.017-2.382.024-2.043-.447-2.12 2.197-.026.872.212 1.197 1.136 1.168 2.118-.065 4.24-.02 6.358-.02v-.008c2.12 0 4.24.03 6.36-.01 1.71-.032 3.122-1.192 3.387-2.683.308-1.73-.537-3.176-2.266-3.847zM333.318 239.604c-3.126-1.214-6.26-2.407-9.38-3.633-.362-.14-1.018-.144-.862-.775.125-.506.667-.328 1.04-.33 2.997-.012 5.996-.006 8.994-.006 2.492 0 2.46 0 2.42-2.484-.01-.753-.266-.942-.974-.937-3.878.03-7.756.016-11.634.025-.974.002-1.89.26-2.774.664-1.57.717-1.802 2.135-1.848 3.6-.044 1.436.793 2.234 2.1 2.712 2.962 1.08 5.902 2.223 8.85 3.344.328.125.794.206.723.66-.078.505-.573.304-.886.306-2.838.017-5.677.01-8.516.01-2.408 0-2.383 0-2.31 2.47.02.676.224.9.9.89 2.158-.033 4.318-.012 6.476-.012v-.008c2.2 0 4.398.037 6.596-.012 1.65-.037 3.067-1.308 3.272-2.808.23-1.672-.58-3.055-2.186-3.678zM180.066 239.566c-3.13-1.21-6.264-2.407-9.388-3.63-.333-.13-.918-.143-.8-.705.114-.532.643-.364 1.015-.366 3.08-.01 6.16-.006 9.24-.006 2.265 0 2.232 0 2.24-2.318.004-.81-.198-1.117-1.064-1.108-3.8.044-7.6.024-11.4.022-.934 0-1.83.19-2.68.56-1.47.637-2.138 1.827-2.096 3.687.033 1.47.554 2.132 2.2 2.758 2.8 1.065 5.606 2.11 8.4 3.19.418.16 1.145.2 1.07.77-.085.653-.785.322-1.194.327-2.72.034-5.44.018-8.16.018-2.4 0-2.363 0-2.34 2.432.01.763.262.942.972.93 2.12-.04 4.24-.015 6.36-.017 2.16-.002 4.32.025 6.478-.01 1.76-.03 3.167-1.212 3.42-2.79.265-1.654-.605-3.096-2.274-3.742zM197.01 231.544a94.826 94.826 0 0 0-9.22.003c-2.29.112-3.396 1.24-3.564 3.445a47.768 47.768 0 0 0 .012 7.66c.17 2 1.1 2.88 3.06 3.28 1.665.338 3.348.093 5.02.192 1.635-.08 3.28.134 4.905-.137 2.272-.38 3.292-1.48 3.37-3.79.076-2.273.073-4.553 0-6.828-.074-2.383-1.222-3.71-3.583-3.826zm-.736 9.08c-.12 1.532-.664 2.05-2.18 2.122-.558.026-1.118.004-1.677.004-3.712.01-3.908-.187-3.918-3.92-.01-3.878.15-4.04 4.044-4.038 3.583 0 3.753.172 3.752 3.795 0 .678.03 1.36-.022 2.036zM275.934 231.49c-1.394-.075-2.795-.012-4.192-.01-1.438 0-2.88-.067-4.312.015-2.712.154-3.896 1.405-3.938 4.102a191.16 191.16 0 0 0 .003 6.47c.045 2.417.976 3.632 3.344 3.884 3.214.344 6.466.336 9.68.006 2.354-.242 3.308-1.49 3.345-3.887.034-2.157.03-4.315.002-6.47-.035-2.682-1.245-3.963-3.933-4.11zm-.39 7.33c.01 3.838-.092 3.94-3.954 3.94-3.552 0-3.767-.215-3.767-3.806 0-.76-.028-1.52.03-2.275.09-1.183.705-1.793 1.937-1.848a42.958 42.958 0 0 1 3.832.002c1.335.06 1.848.613 1.914 1.95.034.678.007 1.358.007 2.037zM435.61 231.473c-1.357-.056-2.718-.01-4.076-.01v.007c-1.438 0-2.88-.067-4.314.015-2.653.15-3.85 1.387-3.905 4.01-.046 2.238-.047 4.477.006 6.713.055 2.302.984 3.46 3.235 3.72 3.257.377 6.546.346 9.804.024 2.306-.228 3.306-1.54 3.34-3.904.03-2.117.022-4.236.003-6.353-.026-2.78-1.298-4.106-4.094-4.222zm-.254 7.33c.007 3.84-.112 3.96-3.933 3.957-3.58-.004-3.773-.197-3.773-3.784 0-.678-.015-1.357.014-2.033.062-1.44.632-2.052 2.043-2.105a47.733 47.733 0 0 1 3.707.005c1.32.052 1.87.622 1.936 1.928.034.676.006 1.355.006 2.033zM473.316 231.642c-1.736-.41-3.505-.093-4.558-.17-2.136 0-3.578-.067-5.01.016-2.678.155-3.895 1.47-3.918 4.14-.02 2.198-.03 4.396.01 6.593.04 2.178 1.025 3.45 3.15 3.69 3.374.38 6.78.396 10.155-.01 2.028-.242 3.005-1.45 3.048-3.506.052-2.436.05-4.875-.003-7.312-.043-1.923-.976-2.993-2.874-3.44zm-5.39 11.118c-3.498 0-3.75-.25-3.75-3.705 0-.558-.006-1.117 0-1.675.018-1.927.584-2.527 2.467-2.565a52.67 52.67 0 0 1 3.23.02c1.426.057 1.932.567 1.998 1.97.032.676.006 1.355.006 2.033.017 3.83-.078 3.922-3.95 3.922zM484.804 234.823c2.478-.035 4.956.01 7.434-.024 2.515-.034 2.21.476 2.277-2.307.02-.87-.312-1.084-1.118-1.063-1.837.048-3.677.015-5.515.015v.024c-1.918 0-3.84-.065-5.755.015-2.712.113-3.996 1.48-4.032 4.182-.026 1.918-.01 3.837-.006 5.755.007 3.278 1.245 4.606 4.54 4.666 3.636.067 7.274.004 10.91.038.738.007.98-.247.97-.964a227.35 227.35 0 0 1-.004-6.235c.01-.697-.19-1.035-.95-.98a14.78 14.78 0 0 1-2.277-.003c-.882-.075-1.102.33-1.065 1.12.044.957 0 1.918.007 2.877.003.506-.115.836-.73.825-1.68-.03-3.36.03-5.036-.044-1.296-.057-1.934-.756-1.997-2.085-.056-1.157-.04-2.318-.013-3.477.04-1.668.67-2.312 2.357-2.335zM421.452 240.265c0-1.48.01-2.96-.002-4.438-.025-2.92-1.312-4.29-4.223-4.357a184.82 184.82 0 0 0-7.915-.003c-2.966.06-4.22 1.302-4.297 4.268-.064 2.437-.023 4.877-.024 7.316 0 3.072.003 3.01 3.038 3.092 1.174.03 1.386-.404 1.364-1.437a196.37 196.37 0 0 1 .002-7.675c.026-1.542.62-2.14 2.086-2.2a51.473 51.473 0 0 1 3.357-.008c1.72.045 2.254.602 2.27 2.363.017 1.88.004 3.758.004 5.637 0 3.4 0 3.38 3.39 3.307.713-.016.99-.197.967-.947-.048-1.64-.015-3.28-.015-4.918zM298.144 240.11h-.01c0-1.56.035-3.12-.007-4.677-.067-2.51-1.217-3.812-3.736-3.914-2.952-.12-5.918-.126-8.87.004-2.574.114-3.733 1.456-3.764 4.02-.03 2.437-.024 4.877-.003 7.315.01 1.03-.438 2.372.184 3.01.68.698 2.05.123 3.107.247.87.102 1.068-.265 1.054-1.08a275.984 275.984 0 0 1-.004-8.037c.018-1.48.652-2.12 2.123-2.182a45.296 45.296 0 0 1 3.477 0c1.557.054 2.083.576 2.112 2.128.037 1.958.015 3.918.015 5.877 0 3.41 0 3.385 3.403 3.304.76-.018.948-.28.933-.98-.037-1.678-.012-3.357-.012-5.037zM237.14 237.362v-2.756c0-3.22 0-3.19-3.27-3.176-.842.003-1.088.246-1.072 1.083.05 2.635.032 5.272.013 7.908-.01 1.73-.567 2.286-2.306 2.33a47.767 47.767 0 0 1-3.234-.008c-1.538-.063-2.153-.69-2.18-2.247-.035-1.917-.014-3.834-.014-5.75 0-3.516 0-3.5-3.514-3.307-.615.034-.842.22-.837.837.027 3.394-.028 6.79.058 10.183.053 2.087 1.02 3.207 3.11 3.453 3.332.393 6.7.385 10.033.013 2.19-.244 3.156-1.532 3.203-3.768.033-1.597.006-3.195.006-4.793h.003zM401.866 242.738c-2.795.065-5.594.04-8.39.007-1.673-.02-2.323-.645-2.42-2.31a32.32 32.32 0 0 1-.012-3.234c.07-1.735.707-2.358 2.457-2.38 2.478-.032 4.956.016 7.433-.023 2.575-.04 2.215.54 2.274-2.402.015-.733-.234-.978-.962-.963-1.877.038-3.756.013-5.634.013v.025c-1.957 0-3.917-.064-5.872.016-2.562.105-3.838 1.25-3.965 3.712-.133 2.588-.22 5.194.08 7.78.19 1.64 1.128 2.562 2.74 2.908.783.168 1.577.23 2.38.228 3.076-.008 6.153-.003 9.23-.003 2.006 0 1.94-.002 2.018-2.056.044-1.093-.325-1.34-1.354-1.316zM245.737 234.806c2.437-.034 4.874-.014 7.31-.015 2.517 0 2.492.002 2.367-2.54-.032-.642-.258-.816-.856-.808-1.917.025-3.835.01-6.184.01-1.917.135-4.29-.276-6.618.243-1.657.37-2.627 1.397-2.683 3.084a114.25 114.25 0 0 0 .004 8.025c.062 1.676 1.078 2.677 2.72 3.066.782.186 1.576.242 2.378.24 3.036-.006 6.073-.002 9.11-.002 2.135 0 2.09 0 2.136-2.154.02-.923-.222-1.24-1.19-1.216-2.755.065-5.513.034-8.27.016-2.023-.014-2.61-.622-2.636-2.674-.012-.96-.018-1.918.003-2.876.04-1.743.647-2.373 2.41-2.398zM517.648 242.737c-2.755.07-5.513.042-8.27.01-1.816-.02-2.45-.682-2.478-2.475-.016-1-.014-1.998 0-2.996.022-1.806.635-2.438 2.47-2.46 2.438-.028 4.876.017 7.312-.018 2.55-.036 2.254.53 2.3-2.392.013-.713-.215-.99-.957-.974-1.877.04-3.755.013-5.633.013v.02c-1.918 0-3.838-.058-5.753.014-2.523.094-3.952 1.302-4.042 3.52a97.927 97.927 0 0 0 0 7.55c.072 1.95 1.144 3.03 3.106 3.37.704.122 1.427.177 2.143.182 3.036.02 6.073.028 9.11.002 2.258-.02 1.937.397 2.04-2.038.048-1.07-.3-1.356-1.35-1.33zM534.7 236.384a8.802 8.802 0 0 0-1.97-3.656c-1.508-1.682-5.228-1.9-6.9-.38-.925.84-1.73 1.82-2.124 3.007-1.16 3.48-1.914 7.073-2.868 10.758 1.07 0 2.03-.088 2.97.023 1.125.133 1.545-.355 1.74-1.38.214-1.13.163-2.6.966-3.246.81-.653 2.232-.177 3.385-.195 1.773-.028 1.774-.007 2.233 1.763.8 3.088.8 3.067 4.002 3.048.825-.005 1.154-.124.884-1.07-.82-2.877-1.55-5.78-2.32-8.672zm-3.957 1.374c-.238.5-1.097.097-1.683.22-.578-.16-1.477.314-1.714-.286-.24-.61.256-1.373.665-1.967.7-1.02 1.464-1.002 2.127.065.373.6.908 1.337.606 1.968zM365.527 231.43c-2.358.04-4.717.014-7.075.014-2 0-3.998-.03-5.996.007-2.624.05-2.205-.55-2.272 2.387-.016.718.21 1.003.954.98 1.318-.045 2.64.034 3.956-.028.86-.04 1.087.284 1.07 1.103-.045 2.358-.015 4.717-.015 7.075 0 3.184 0 3.138 3.173 3.17 1.018.012 1.177-.378 1.165-1.254-.04-2.997.01-5.996-.032-8.994-.01-.823.22-1.155 1.077-1.1.955.064 1.918.035 2.877.01 2.448-.06 2.204.554 2.255-2.323.015-.885-.352-1.06-1.138-1.047zM217.84 242.743c-2.836.05-5.674.032-8.51.01-1.903-.015-2.5-.615-2.527-2.53-.027-1.837-.008-3.675-.008-5.514 0-3.333 0-3.303-3.314-3.28-.853.005-1.082.285-1.07 1.102.04 3.036-.01 6.074.026 9.11.036 3.09 1.275 4.346 4.388 4.445 1.796.057 3.596.01 5.394.01v.013h4.436c2.265 0 2.23 0 2.246-2.276.008-.82-.2-1.106-1.06-1.09zM456.897 242.743c-2.837.045-5.676.033-8.514.005-1.843-.018-2.447-.64-2.462-2.46-.015-1.878-.004-3.757-.004-5.635 0-3.33 0-3.31-3.37-3.223-.692.018-1 .17-.992.936.036 3.317-.01 6.636.035 9.953.028 2.12 1.037 3.244 3.108 3.608 2.224.39 4.47.07 6.318.183h4.7c2.3.002 2.263.002 2.266-2.282 0-.83-.24-1.098-1.085-1.085zM500.672 238.894h.01V234.7c0-3.424.003-3.4-3.426-3.275-.773.028-.92.332-.917 1.01.02 4.234.027 8.466-.007 12.7-.007.816.3 1.038 1.054.987a16.13 16.13 0 0 1 2.274 0c.772.058 1.046-.203 1.028-1-.048-2.075-.016-4.152-.016-6.228zM261.59 238.792h.013v-4.076c0-3.332 0-3.3-3.284-3.288-.87.003-1.06.295-1.05 1.1.037 3.476.014 6.953.014 10.43 0 3.215 0 3.182 3.272 3.172.873-.003 1.07-.3 1.052-1.105-.05-2.076-.017-4.155-.017-6.233z"/></g></svg>