<svg xmlns="http://www.w3.org/2000/svg" viewBox="0 0 211 58"><path class="only-light-background" d="M149 21.8c0 .3 0 .6.4.9.4-.5 1.1-.6 1.2-.6-.3-.5-.9 0-1.6-.3zm-.4-6.8c0 .5.4.7.5.8.4.3.6.3 1 0 .4.3.5-.3.6 0 0 .8 0 1.2-.1 1.9-.1.9-.9.8-1.6 1.2 0 .4-.4 1.1 0 1.5.4-.3.7-.4 1.3-.7 0-.4.4-.8 1-1.1 0-1.2.4-2.4.4-3.6 0-.3-.3-.6-.7-.8h-3.2c0 .5.4.8.8.8zm7.7 7.2l1.4.6v-.7h-1.3l-.1.1zM147.2 12c.6-.4 1.9-1.3 2.6-1.6-.1-1.3-1.6-1.5-2.3-2h-.5c-1.1.4-1.4 1.5-1.5 2.4.4 1.2 1.2.4 1.7 1.2zm5.6-.1c-.3-.3-1.1.1-1.5.3-.6.1-1 .5-1 .9h1.5c.2-.4.7-.9 1-1.2zm2.8 3.1h-.3c.3 1.1.3 2.3.3 3.5.5.1 1.1.4 1.1 1.2.5.3 1 .4 1.6.8.2-.1.4-.5.5-.9-.5-.7-1.7-.3-1.7-1.5l-.8-.3c0-.8 0-1.6-.2-2.1l.2-.2c0 .2.1.3.4.6.5 0 1 .1 1.6-.3.2-.1.2-.8.5-.8s.5 0 .7-.3c0 0 .3 0 0-.1l-3-.4c-.2.4-.9.4-.9.8zm-.4-3c.6 0 .4 1 .9 1.1h1.2c0-.4-.1-.4-.2-.4-.7 0-.7-1.1-1.3-.8-.2 0-.5-.3-.9 0 0 .1 0 .1.3.1zm5.4.7h.4c.4-.4.6 0 .9-.4.3-.7.3-1.9-.3-2.6-.2-.5-.9-.8-1.6-1.3l-.9.5c-.6.3-.8.8-.8 1.5.9.4 1.9 1.5 2.3 2.3zm-5.8 34.8l-1.5.3c-.4.5-.5.8-.5 1.1l.6-.3c.2 0 .3.3.4.5-.1.7-.9.7-1.2 1-.4 1.3.8 2.1 1 3.2h1.6c-.7-1.2-.8-3.1-.8-3.5 0-.7 0-1.6.4-2.3zm1.5 1.1c-.3 0-.7.8-.7 1.1 0 1.1.2 2.5.7 3.6h1c0-1.2.2-2.5.2-3.6-.2 0 .1.2-1.2-1.1zm3.2.5c-.3 0-1 .4-1 .7 0 .6-.2 3.5-.2 3.5h.9c.4-1.2 1.2-2.8 1.2-3.5 0-.5-.4-.7-.9-.7zm17.3-.8c.6.3.6 1 .6 1.1 0 .4-.3.8-.6 1.1-.2-.3-.2-.7-.5-1.1-.3 0-.4.7-.4 1 0 1.2.5 2.1.9 2.9h1.2c-.1-1.1-.4-2-.4-3.2 0-.7.4-1.5.6-1.9l-1.4.1zm13.2-2.8l-.8-1.2c.3-.4.3-.9.7-1.6.1 0 .5.9.5 1.1 0 .8 0 1-.4 1.7zm-.9 2.7c0-.7-.8-1.1-1.4-2.3l.6-.9c.4.2.9.6.9 1.3 0 0-.1.4 0 .7 0 .1.3.1.3.4-.3.4-.3.4-.4.8zm-1.9-6.2c-1 0-.4-1.9-2.4-1.9-.4 0-.7.7-1.2.8 0-.1.1-.9.1-.9 0-.3.1-.8.7-1.1 1 0 .8.4 1.6.7.4.1.7.4 1.2.4v2zm-.7 2.8c-.9-.1-.9-1.2-1.1-1.3-.6-.8-1.6-.1-2.2-.1-.3-.8.1-.8.1-1.4.4 0 .8-.3 1.2 0 .7-.3 1.1.4 1.7.4.2.3.5 1 .6 1.1 0 .5-.1.7-.3 1.3zm-1.3 1.9c-.7-.4-1.1-.5-1.9-.5 0-.6-.4-1.2-.7-1.2-.8 0-.7.5-1.3.5l1.2-1.2c.1-.3.1-.3.4-.3.4.3.5.4.9.4 0 .3 0 .4-.1.8.4.3.7-.1.9.3.4.1.8.3.8.8 0 .2-.2.4-.2.4zm-2.6-20.4c.6-.3.8-.2 1.1 0 0 .8.9.4 1.5.7.2.4.4.6.5 1.2-.9-.3-1.5-.7-2.3-.7-.2 0-1.5.4-1.6.7-.4-.6.3-1.7.8-1.9zm-.4 3.5c.4-.4 1.1-1 1.6-1 1 0 1.8.7 1.8 1.4-.8 0-1-.2-1.5-.2-.7 0-1.5.3-1.9 1-.3-.5-.1-.8 0-1.2zm4.2 1.7c.4 0 .7-.2.9-.2.7 0 1.2 1 1.4 1.8-1.1-.6-2.7-1-3.7-1-.5 0-2.1.6-2.7 1.2l-.2-1.2c.8-.2.8-.8 1.3-.8.4 0 1-.2 1.4-.2.4 0 .6-.2.8-.2.6 0 .4.6.8.6zm1.5 7.6c-.4-.2-1.4-.3-1.4-.7 0-.6-.3-.7-.9-.7-.6 0-1 .1-1.8.4 0 0-.4-.5-.5-1.1.3-.1 1.3-.4 1.9-.4.9 0 1.9 0 1.9.4 0 .6.8.7.8 2.1zm-.8-3.7c-.3-.2 0-.8-.7-.8-.3 0-.7.4-.7.4-.3.2-1.1-.4-1.1 0 0 .7-.5 1-1.2 1-.2 0-.5 0-.8-.2v-1.3c1.8 0 1.6-.6 2.4-.6.6 0 1 .3 1.4.3.7 0 .3-.3.9-.3.7 0 1 .6 1.4.7 0 .4.4 1 .4 1.5-1 0-1.9-.3-2-.7zm-7.3 4.1c-.3-.8-.8-1.7-1.1-2.5 0-.1-.1-.1.1-.2.2 0 .7 0 .7.1.2.3.4.7.4 1.1 0 .5-.2.9-.1 1.5zm-1.9 1.3c-.4 0-.4-.3-.4-.8-.1-.8-.4-1.5-.7-2.3-.2-1.1-.9-2-1.5-3.2-.1-.6-.8-.8-1.3-1.2.7 0 1.3 0 1.9.5 0 .3.1.4.5.8 1 0 .7 1.2 1.5 1.8-.4.4-.5.6-.8.9.4.3.8.4.9.8 0 .8-.1 1.8-.1 2.7zm-2.1 3.2c.2-.6.2-2 0-2-.3-.1-.9 0-.9-.3 0-.4.2-.9.2-1.2 0-.5-.4-.8-.4-1 0-.8.9-1 1.2-1.5.1.5.1 1.1.1 1.7 0 .3.4 1.1 0 1.8 0 .4.8.1.8.5 0 .7-.8 1.5-1 2zm-1.3-7c0 .3-.4.6-.5.6 0 0-.7-.7-.8-1.4-.1-.5.4-1.4.4-1.4.1 0 .3.2.4.2.1.2 0 .6.1 1 .4.2.7.8.4 1zm-1.4 5.8c0-.8-.2-1.5-.7-2 0-.3.4-.3.1-.7 0 0-.8-.4-.8-.9s.6-1 .8-1.4c0-.1.6.3.6 1.1 0 .2 0 .6-.2.8-.1.4.8.4.8.8 0 .8-.5 1.5-.6 2.3zm-1.2-10.1c.4.4.9 1 .9 1.4 0 .4-.3.5-.5.8 0 0-.6-.7-.6-1 0-.5 0-.8.2-1.2zm6-.2c.3.2.5.4.8.8v1.1c-1.2-.7-1.9-1.9-2.9-3.1 1 0 1.3 1 2.1 1.2zm-9.1-2.2l1-.5c.4.4 1 .5 1.2.7-.4.4-1.4.5-2.2-.2zm1.3 16.8c-.3-.4-.4-.8-.7-.8.4-1.5-.4-2.7-.6-3.9V42c.4.7 1.4 1.4 1.3 2 .1 1.2.1 2.3.1 3.1h-.1zm-1.9 2c-.2-.8-.5-2-1.5-2-.1-.5-.2-.8-.8-1.2l-1-.1c.1.5.9.5.4 1.3.5.4.9.4 1.2 1.1.2.4 0 .9.1 1.2l-.8.4c0-.7.1-2-.8-2.3-.8.3-.9-.8-1.5-1.2-.3 0-.3-.7-.7-.4-.6.4-1.4 0-2.1.4l.7-1.1c.5-.4 1-.2 1.6-.4l1.1-.1c1 0 2 .5 3.1.9.5.3.8.7.8 1.4.2.1.8.1.8.5-.2.3-.4 1.1-.6 1.6zm-4.1.3l-.4.4c-.5-.4-.2-1.5-.9-1.6-.6 0-1.2-.7-1.4-.8l.5-.3s.3-.1.5 0c.3.3.6.4.6.7.2.4.7 0 .9.4.2.4.3.9.2 1.2zm-4.3-5l.6-1.6c.6 0 1-.2 1.2-.2.6-.2 1-.2 1.4-.2v.2c1.5 0 3.2-.2 4.3 1l.1 1.1c-.5-.4-1.3-.4-1.6-1.1-.5-.1-.9-.1-1.6-.1-.5.1-1.2.1-1.8.1-.1 0 0-.1-.2-.2-.8.2-1.6.2-2.4 1zm-.6-11.9c-.8-1.2-.4-2.3 0-3.3.3.8.4 1.7.6 2.3.1.6.9.8 1.2 1.2-.6.2-1.5.4-1.8-.2zm-1.5 5.1c-.8-.7-1.3-1.5-2.1-2.6l2.1.4c.4.3 1.2 1.2 1.6 1.6-.2.3-1 .6-1.6.6zm0 3.6c-.1 0-1-.4-1.3-.7-.1-.4-.1-.8-.1-.8h1l.7 1.5h-.3zm-2.4-14.5c-.1 0 0 .4-.1.4 0 .3-.3.8-.3 1.3-.3.2-.8.4-1.3.2v-.4c-.2-.3-.2-.8-.2-1.1l-.1-.1c-.4.1-.4.4-.4.6-.1.3-.4.6-.4 1-.5 0-.8-.2-1.2-.4V27c0-.3 0-.3-.2-.3l-.6.7c-.6-.4-.7-1.5-.7-2.2 2.2-1.2 4.8-.8 6.5-.1.2.1.5.1.8.2-.2.8-.4 2.1-1.3 2.6 0-.5-.2-.8-.5-1.2zm-1.6 7l-.3-1.4c.4-.2.8-.5 1.4-1.2 0 1-.2 2.2-1.1 2.6zm-.9 7.9l-.8-1.1h2l.4.8c-.6.4-1 .4-1.6.3zm-1.9-2.5c.1-.4.5-.6.8-1 .3-.4.8-1.1.9-1.5.7-.4 1-.4 1.5-.4-.1.8-.5 1.1-1.2 2-.4.3-1.2.5-2 .9zm-.4-8.1c.4 0 .8 0 1.2.3 0 .6.3 1.2.3 2-.9-.8-1.5-1.5-1.5-2.3zm-.4 6c-.4 0-1.1.3-1.9 0 .4-.2.8-.4 1.3-.8l1.1-1h1.1c-.4.8-.8 1.6-1.6 1.8zm-1.5 6.6c-.3-.9-.9-1.9-1.8-1.9-.4-.4-.8-.8-.9-1.2-.4-.4-.8 0-1.3-.4-.6 0-1.3 0-1.8.4v-.4l.9-1c1 .1 2.2 0 2.5.6.6.4 1.3.8 1.5 1.1v.4c.2.1.8.3 1 .4 0 .4-.1 2-.1 2zm-1.5 3.1c-.3-.4 0-1.1-.4-1.5 0-.2.3-.4.1-.5-.1-.3-1.7-.8-1.7-.8-.5-.4-1.2-.8-1.8-1.3-.5-.2-.9.1-1.6.2v-.2c.3-.6.3-1.3 1.1-1.3.4 0 .9 0 1.2.4.6 0 .8.6 1.2.7.7.7 1.2 1 1.6 1.2 0 .4.2.7.4.8.9 0 .6.8.9 1.4l-1 .9zm-1.5 2.4l-.9-2.4c-1.1-1.1-2.3-1.2-3-1.7-.5-.2-.5.2-.8 0 0-.3 0-.7.4-1.1h.8l.8.4c.4.4 1.4.4 1.4 1.2 0 .1-.1.3.3.8l1.3.4.1 1.1-.4 1.3zm-5.1 2.6c0-.7.4-1.5.4-2.3 0 0-.5-.5-1.1-.5-.4.2-.4.5-.5.9-.4.8-1.2 1.6-1.3 2.4-.2 0-.2-.1-.2-.1 0-1.3.2-3.6 1-4.6.6-.8 1.2-.8 2-.9l.7.1-.6.8c.6.3 1.4.8 1.4 1.6 0 1.1-1.8 2.6-1.8 2.6zm-3.3-1.9c-.2-.5-.6-1.2-1.3-1.2-.5 1.1-.6 1.5-.1 3.1-.4.4-.7.5-1.2.8-.3-.5-.3-1.5-.3-2 0-1 .2-1.9.4-2.7.4-.4.7-1.1 1.1-1.5h1.5c-.7 0-.7.7-.7 1.1.4.1 1 .3 1 .9 0 .6-.2 1.1-.4 1.5zm-3.1 0c-.2 0-.6-.4-1-.4-.4.8 0 1.4 0 2.3 0 .4-.1.8-.1.8-.3 0-.8-.5-.9-1.1v-2.1l1.2-1.5c.8.5 1 1.3.8 2zm8.6-18c.1-.5.5-.8.6-.9.4.1.7.1 1.3.2-.7.7-1.4 1-1.7 1.8 0-.4-.1-.8-.2-1.1zm.1-15.6l1.1-.4-.7.8c.1 1.3-.4 2.3-.4 3.5l-.7-2.2c.2-.5.3-1 .7-1.7zm0-2.7c.3-.4.4-.8.8-1.2v1.6l-.9.3.1-.7zm4.7 21.3c.2-.2.3 0 .6 0l-.6 2c-.7.5-1.6.2-2.4.2 1.1-.2 1.9-1.4 2.4-2.2zm-1.3-1.7c0 .6-.3 1.3-1 1.9-.1.2-.5.4-.5.4 0-.8.4-1.5.4-2.1.4-.2.8-.4 1.1-.2zm1.5-1.6c-.9-.2-1.8-1-2.2-1.7-.3-.6-.4-1.2-.4-1.6.5 0 .9.4 1.1.6v.2c.6.8 1.3 1.5 1.5 2.5zm1.7-2.1l-.4 1.7c-.4-.8-.8-1.6-.9-2.5l1.3.8zm8.3 3.9c-.6-.4-1.9-.6-1.6-1.4.3-.6.7-.8 1-1 .1.9.2 1.6.6 2.4zM145.2 8.1c.3 0 .7-.1.8-.4.7-.1 1.1-.8 1.9-.4.6 0 1.1.3 1.5.4 0 .3 0 .4.3.7.8 0 .8.8 1.2 1.5.4.1.8.1 1.1.1.8.3 1.4.3 1.7.7 1.1-.7 2.1-.8 3.4-.7.1-.4.4-.9.5-1.6.1.4.1 0 .4 0 .5-.4 1.2-1.1 2.2-.8.5.4 1.4.1 2 .8.4.5.6 1.3 1 2-.4.8 0 1.9-.8 2.3l-.8.8c-.2 0-.2.3-.6.3.4.9.1 2.3-.3 3.2.3-.1.7-.1.7-.5.1.1 0 .4 0 .5v.4c0 .7-.4 1.4-1 1.9-.2.8-.9 1.9-1.9 2v.3c2.1 0 3.7.5 5.6 1.5v.9c-1.7-.9-3.4-1.6-5.4-1.8 0 .5 0 .9-.2 1 1.7.8 3.1 1.5 4.5 2.7v1.2c-1.4-1.4-2.8-2.7-4.6-3.1-.1.3-.7.5-.8 1.1-.9-.7-2-1.4-3.1-1.5-.4 0-.7-1.5-.7-1.5.7-.3 1.1-.7 1.4-1.3h.5c.4 0 .4-.3.4-.7 0-.8-1.7-.8-2.5-.8-1 0-1.6 0-2.2.4-.3 0-.1.4-.1.7 0 .1.4.4.4.4.3 0 .5-.3.8-.3-.1.8.1 1.2.9 1.6l-.1 1.4c-1.6 0-2.7.6-3.9 1.2-.4-.3-.7-.7-.9-1.1-1.7.5-4.5 2.7-4.5 2.7v-1c1.2-1 2.8-1.6 4.1-2.2v-1c-.6-.3-1.1 0-1.7 0-1.2.1-2.4.7-3.2 1.4 0-.4-.1-1-.1-1 1.5-.8 3.3-1.5 5.1-1.2v-.5c-.1-.3-.1-.7-.4-.7-.8-.8-1.6-2-1.6-2.8l.5-.3c-.3-.8-.5-2.8 0-3.5-.8-.4-1.6-1.1-1.9-1.6-.2-.7-.5-1.1-.6-1.9.4-.8.6-1.1 1-1.9zm19.1 9.8c0 .2-.2 1.4-.2 1.4l-1.1.3.7-3c.2.5.6 1.1.6 1.3zm.2 10.3l1.3 1.2c-.8 0-1.7.4-2.1-.4.2-.2.5-.6.8-.8zm1-6.6c.3.5.3.8.6 1.1.5-.3.5.4.6.5.2.4.5.8.5 1.2-.9 0-1.3-.4-1.7-1.2 0-.4-.1-1 0-1.6zm2.6 5.8c-.1.5-.7 0-.8 0h-1.2c-.2-.3-.3-.4-.3-.7.5-.2.9-.4 1.4-.2.2.5.5.9.9.9zm-6.7 14.2c0-.4.2-.8.8-1.1.8.3 1.5-1.4 2.3-.5.4.1.8.1 1 .1 1 .4 1.2 1.2 1.7 1.9-.7 0-1.3 0-1.7-.7-.1 0-.4-.4-.5-.1-.7.5-1.3-.4-2.2-.3-.4.4-.8.7-1.4.8v-.1zm1.4-8.3c.6-.4 1.3-.4 1.5-.6.6.6 1.1 1.5 2 2.1-.5 0-1.4 0-2-.4-.8-.5-1.1-.7-1.5-1.1zm-.2 2.1c.4.2 1.1.6 1.5.8h-.4c-1.5.6-2.7-.4-3.9-1.2.6-.2 1.6-.4 2.4-.4l.4.8zm0-4.4c-.7.1-1.2-.5-1.9-.8-.3-.8-.3-1.6-.5-2 .5.4 1.7.4 1.4 1.6 0 .4.6.7 1 1.2zm7 1.5l-.7.2c-1.5 0-2.2-.4-2.8-.9.5 0 1.2-.7 1.2-.7.7.7 1.6 1.2 2.3 1.4zm22.2-17.8c-.4-.5-1-1.2-1.5-1.2.4 0 .9-.4 1.6-.4.3.7.8 1.1.9 1.6l.2.8c-.3-.5-.8-.8-1.2-.8zm-4.3-2c-.3-.4-.7 0-1 0-.3 0-.4 0-.9-.4.8 0 1.2-.4 1.9-.7.5.4 1 .6 1.4 1.1h-1.4zm13.1 7c-1.9-1.9-4-2.8-5.6-4.7-.8-.8-1.5-1.6-2-2.7-.7-.7-1.1-1.1-1.9-1.5.1.4.3.8.4 1.2h-.1c-.7 0-1.4-.4-1.9-.8l.5-.5c-.1-.3-.5-.3-.8-.3-2.1-.4-4.2.8-6.3 1.2v.3c1.3.4 1.6 2 2.4 2.8h.8c.3 0 .7.3 1 .3 0-.3-.3-.8-.3-.8.3-.3.5-.3.8 0 .7.4 1.6-.3 2.3.8-.8 0-1.6 0-2.3.4 0 .1.4.4.3.7-.7-.3-1.5 0-1.8-.6l-.1.2c.8.9 2 1.7 3.2 2.1 1.8.3 3.2-.5 5-.1 6.2 2.9 10.5 9.9 10.5 16.9 0 10-5.7 14-9.3 14-.7 0-1.8-.4-2.2-.8.4-1.5.7-3.1.7-5.5 0-5.8-2.3-12-5.4-15.2-1.4-1.5-3.1-2.7-4.8-2.7-.8 0-1.6 0-2.2.7-.6.5-1 1.6-.9 2.3-1.1.8-2.8 1.2-4.2 1.2-1.5 0-3.3-.6-5.1-1.9v-2c-.4-.2-1.7-1-1.1-1.6.4.1.7.4.8.5-.1-.9-.1-2-.8-2.8-.2 0-.6 0-1-.3-.4-.4-.8-.9-.8-1.6.4.7 1 .4 1.4.8-.6-1.6-.4-2.3-1.6-4.7-.2-1.2-1.5-1.9-2.3-2.7-.4-.3-.5-.7-1-.7-.6-.1-.6-.8-.6-1.2.2 0 .6.3.8.4-.8-1.9-1.3-3.9-3.1-5l-.4.3h-2.1c.3-.3.8-.4 1.2-.7-.4-.4-.7-.5-1.5-.5-.4.1-.9.5-1.5.5h-.1c0-.4-.1-.9.7-1.2-.8-.1-1.5-.1-2.5 0-.1.7-.5 1.1-.5 1.6-.4.3-.5.7-.9 1.1 0-.8.4-1.6.5-2.4-.5.1-1.2.5-1.5.5-1-.5-2.4-1-2.9-1 .8.5.4 1.4.5 2.1l-.5-.3c-.2-.5-.8-.9-1-1.6-.8 0-1.3.3-2 .7V5c.4 0 1 .4 1.2.8-.9 0-1.6-.4-2.5-.4 0 0 0-.1-.2-.1-.4.1-.8.5-1 .8-1 .8-1.7 1.5-2.1 2.7.3 0 .7 0 .8.1-.5.2-.8.8-1.3 1v2c-.4.4-.9.8-1.2 1.6-.7 2.2-.8 4.6-.8 7.3-.2.5-.4.6-.7.8v2.1s.8-.8 1.2-1v1.7c-.5 0-.9.7-.9 1.1 0 .5.1 1 .1 1.6 0 .3 0 .3.1.5 0-.2.3-.5.7-.6 0 0 .3-.3.8-.3-.4.4-.5.9-.8 1.5l-.4.4s-.1.2-.1.4c.5 2.8 1.3 5.2 2.4 7.9-1.1 1.8-2.3 5.1-3.1 8.3-.7-.6-1.6-.8-2.4-.8-.8.2-1.6.4-2.2 1.2-.8-.4-1.8-.2-2.4.3-1.2 1.1-1.2 1.6-1.2 2.4-.3.3-.8 1-.8 1.9 0 1.2.1 2 .8 3.1H152c-.2-.4-.5-.9-.7-1.2-.4-.8-.2-1.9-.2-2.7.4-.8.9-1.6 1.4-2.3.1-.4 0-.4.1-.5l1-.3c.5 0 .9-.4 1.6-.4.4.7.4-.4 1.1-.7 1.4-.2 2.9 0 3.7 1.1 0 .3.2.3.2.4h-.7c-.8-.4-1.8-.8-2.7-.4 0 .4-.1.4-.1.8v.7c.5 0 .9.5 1.4.8.3-.4 1.1-.8 1.7-.8.6 0 1.6.4 1.6 1.5v1.5c.5.5 1.2.6 1.8.9-.2.5-.6.5-1 .5h-1.1c-.1-.1-.4-.1-.4-.5-.4.5-.7 1.1-.9 1.6h15.7c-.3-.5-.6-.9-.7-1.2-.3-.8-.3-1.9-.3-2.7l1.5-2c.8 0 1.5-.3 3-.4.2-.4 0-.7 1.2-.7.9 0 1.6.3 1.9.4.1.3.1.3 0 .6-.3.2-.8-.3-1.2-.2-.3.3.1.4.1.7.3.3-1.2-.3-1.2-.3s-.3.8-.4 1.1l.8.8c.3.4-.4.8-.4 1.2-.3-.1-.8-.5-.8-.4-.3 1.1 0 2-.2 3.1h1.5l.2-2.3c.1-1.3 1.7-3.7 2.7-3.7.5 0 .9.2 1.3.5.3.5.9.8.9 1.1 0 .2-.4.4-1 .4-.3 0-.3-.4-.7-.7l-.8.8s.9.8.9 1.4c0 .6-.1.9-.5 1.3l-.8-1.6c-.4 0-1.1.8-1.1 1.2 0 .5-.3.8-.3 1.6h8.4c.9 0 1.7-.3 2.7-.8h1.6c3.3 0 6-.9 8.4-3.4 3.3-3.2 5.2-8.3 5.2-13.3 0-5.9-2.5-11.8-6.8-16.1M4 53.3v-1.5c3.24 0 5.54-.2 5.54-5v-25c0-4.8-1.76-5-5.54-5v-1.4h19.18v1.4c-3.92 0-5.54.2-5.54 5v25c0 4.8 2.03 5 5.54 5v1.5H4zm66.06-28.8v29.1h-2.29l-29.05-30c.14.8.14 1.5.14 2.3v18.2c0 5.7 0 7.7 5.13 7.7v1.5H30.34v-1.5c5.14 0 5.14-2.4 5.14-7.7V23.3c0-3.1 0-6.5-5.4-6.5v-1.4h12.83l23.91 24.5c-.13-.6-.13-1-.13-2V24.5c0-5.4.13-7.7-5-7.7v-1.4h13.65v1.4c-5 0-5.28 2.2-5.28 7.7zm47.14 16v9.7c-5.4 2.7-10.5 4.1-15.6 4.1-14.18 0-22.75-8.4-22.75-19 0-11.3 9.77-20.8 22.15-20.8 3.1 0 5.4.6 7.9 1.4 1.7.5 2.8 1.2 3.9 1.2.9 0 1.2-1.6 1.3-2.6h1.4l1.2 13.1h-1.6c-.7-2.5-1.9-4.7-3.5-6.2-2.6-2.5-6.1-3.9-10.2-3.9-8.48 0-13.48 6.8-13.48 16.9 0 10 6.1 16.9 14.18 16.9 2.4 0 4.6-.6 7.3-1.8v-10c0-3.2-.5-4.4-5.1-4.4v-1.5h17.1v1.5c-4.3 0-4.2 1.3-4.2 5.4"/></svg>