<svg xmlns="http://www.w3.org/2000/svg" viewBox="0 0 750.4 150.3"><path d="M704.6 53.85c-2.5 0-4.7-.31-6.4-1.07-1.2-.46-2.4-1.22-3.3-2.14-1.1-.91-1.8-1.82-2.3-2.89-.6-1.37-.9-3.05-.9-4.88 0-3.36 1.1-5.95 3.3-8.08 2.3-1.99 5.5-3.05 9.5-3.05s7.2 1.06 9.4 3.05c2.3 1.98 3.4 4.72 3.4 7.92 0 3.36-1.1 6.11-3.4 8.09-2.2 1.98-5.3 3.05-9.3 3.05zm-.1-4.73c2.9 0 5-.61 6.4-1.83 1.5-1.22 2.1-2.75 2.1-4.58s-.7-3.35-2.1-4.57c-1.4-1.22-3.7-1.83-6.6-1.83-2.9 0-5 .61-6.4 1.68-1.3 1.06-2.1 2.59-2.1 4.57 0 1.83.8 3.36 2.1 4.58 1.6 1.37 3.7 1.98 6.6 1.98zM717 78.4h-25v-9.61c0-2.44.1-4.12.6-5.34.5-1.06 1.2-1.98 2.4-2.59 1.3-.61 2.5-.91 4-.91 1.8 0 3.4.45 4.6 1.52 1.2 1.07 2 2.44 2.3 4.42.6-.91 1.3-1.83 2.1-2.44.8-.61 2.1-1.52 4.1-2.59l4.9-2.74v5.49l-5.5 3.35c-2 1.22-3.2 1.98-3.6 2.44-.5.46-1 .92-1.1 1.37-.2.46-.3 1.22-.3 2.29v.92h10.3v4.42zm-14.5-4.58v-3.35c0-2.13-.1-3.51-.3-4.12-.1-.61-.6-.91-1.1-1.22-.4-.3-1-.46-1.8-.46-.9 0-1.5.16-2 .61-.4.46-.9.92-.9 1.68 0 .31-.1 1.53-.1 3.36v3.5h6.2zm5.2 15.41l1.5-4.42c2.8.61 4.7 1.82 6.1 3.35 1.4 1.52 2 3.66 2 6.1 0 3.05-1.1 5.49-3.4 7.44-2.2 2-5.3 2.9-9.3 2.9-4.1 0-7.3-.9-9.6-2.9-2.2-1.95-3.5-4.54-3.5-7.59 0-2.75.9-5.04 2.8-6.71 1-1.07 2.6-1.83 4.6-2.29l1.2 4.57c-1.2.31-2.3.77-3.1 1.68-.7.92-1 1.83-1 3.05 0 1.68.6 3.05 1.9 4.12 1.4 1.07 3.5 1.57 6.4 1.57 3.2 0 5.4-.5 6.8-1.57 1.3-1.07 1.9-2.44 1.9-3.97 0-1.22-.4-2.28-1.2-3.2-.7-.91-2.3-1.68-4.1-2.13zm9.3 26.07h-25v-4.6h25v4.6zm0 28.8h-25v-6.8l17.1-4.2L692 129v-6.8h25v4.2h-19.7L717 131v4.4l-19.7 4.5H717v4.2zM631.1 32.95H597.4l-14 61.92-15.7-61.92H502.9v69.85l-26.5-69.69h-57.7l-27.1 73.19c-3.8-8.84-19.9-14.33-19.9-14.33 24.4-7.32 29.2-24.7 24.1-40.87-6.2-19.98-50.4-17.99-50.4-17.99l-69-.16 6.9 18.76s-26.2-6.25-42.6 3.81C224.4 65.59 218.6 80.53 224.1 97c5.8 17.4 20.2 19.8 24 19.8 3.8 0 16.3-5.5 16.3-5.5l-8.9-27.41 36.5-9 14 48.21s-4.4 11.4-42.2 21.3h63.1v-41h11c12.9 0 14.2 11.3 14.2 11.3v29.7h67.4l8.5-23.9h36l8.5 24.8h67.6V60.1l24.2 85.1h33.9l25.5-86.93v86.93h37.2V33.11h-29.8zM326.9 83.13V57.2s27.9-4.57 27.9 11.29c0 0 3.4 17.69-27.9 14.64zM435 93.65l12.8-34.92 12.8 34.92H435zM212.7 144.3h-1.1c.5.1.8.1 1.1 0zm-23.5-15c-9-10.2-14.6-24.1-14.5-40.23 0-10.06 4.1-25.77 15.7-39.04V32.95h-37.2v79.35l-23-79.35H67.65V145H102V64.37l23.6 79.93h85.9c-8-.5-21.4-14.1-22.3-15zM4.978 32.96H47.99V145.1H4.978zM733.9 26.55c-5.3 0-9.9-4.58-9.9-9.91 0-5.64 4.6-9.915 9.9-9.915 5.4 0 9.9 4.275 9.9 9.915 0 5.33-4.5 9.91-9.9 9.91zm0 1.37c6.3 0 11.5-5.18 11.5-11.44 0-6.25-5.1-11.433-11.5-11.433-6.2 0-11.4 5.183-11.4 11.433 0 6.41 5 11.44 11.4 11.44zm1.7-10.98c2.4 0 4.3-.91 4.3-3.35 0-1.22-.6-2.14-1.6-2.75-.9-.61-2.1-.61-3.3-.61h-5.3v12.66h1.5v-5.95h3l3.7 5.95h1.8l-4.1-5.95zm-4.4-1.22v-4.57h3.6c1.9 0 3.4.3 3.4 2.44 0 2.44-2.7 2.13-4.6 2.13h-2.4z"/></svg>