<?xml version="1.0"?>

<svg xmlns="http://www.w3.org/2000/svg" viewBox="0 0 390 390" width="390" height="390">
    <path class="only-light-background" d="M 193.62 15.5 C 182.37 15.478 171.23 19.565 163.15 27.83 L 28.811 165.3 C -16.579 221.51 59.7 214.97 92.4 231.16 C 104.13 243.15 47.44 252 59.17 264 C 70.9 275.99 130.1 287.1 141.85 299.09 C 153.58 311.08 117.84 323.8 129.57 335.79 C 141.3 347.78 168.43 336.42 173.51 364.1 C 177.13 383.88 222.4 372.6 244.54 356.4 C 256.27 344.4 222.1 345.53 233.83 333.54 C 263 303.71 290.16 322.7 300.14 292.81 C 305.07 278.04 257.2 270.04 268.95 258.05 C 302.7 238.34 419.35 225.51 364 170.16 L 224.75 27.83 C 216.24 19.655 204.87 15.522 193.62 15.5 z M 194.83 28.582 C 202.86 28.625 210.87 31.631 216.63 37.471 L 269.78 91.449 C 274.82 96.599 274.75 106.58 271.93 109.45 L 245.54 88.34 L 240.35 119.6 L 218.3 107.96 L 182.99 130.27 L 171.3 83.24 L 152.33 116.06 L 123.33 116.06 C 111.51 116.06 110.12 101.06 120.86 90.32 C 139.62 70.07 161.15 49.431 172.85 37.471 C 178.73 31.461 186.79 28.54 194.83 28.582 z M 131 238.6 C 134.59 240.83 188.89 251.86 202.16 254.06 C 206.76 255.03 203.5 259.77 197.16 262.97 C 182.86 266.77 113.5 238.6 131 238.6 z M 344.18 276.38 C 332.58 276.08 320.62 281.69 317.46 292.81 C 317.46 299.63 367.71 304.1 367.71 291.2 C 364.35 281.49 354.41 276.64 344.18 276.38 z M 111.74 305.92 C 95.992 305.78 77.515 317.28 91.1 329.05 C 103 339.34 121.38 326.49 126.89 312.13 C 123.65 307.82 117.9 305.98 111.74 305.92 z M 311.16 306.82 C 295.82 320.58 312.88 334.54 328 325.65 C 331.37 322.23 327.9 310.24 311.16 306.82 z "></path>
    <path style="display:none" class="only-dark-background" d="m 216.63,37.47 53.15,53.98 c 5.04,5.15 4.97,15.13 2.15,18 L 245.54,88.34 240.35,119.6 218.3,107.96 182.99,130.27 171.3,83.24 152.33,116.06 h -29 c -11.82,0 -13.21,-15 -2.47,-25.74 18.76,-20.25 40.29,-40.89 51.99,-52.85 11.76,-12.02 32.25,-11.68 43.78,0 z M 131,238.6 c 3.59,2.23 57.89,13.26 71.16,15.46 4.6,0.97 1.34,5.71 -5,8.91 C 182.86,266.77 113.5,238.6 131,238.6 Z M 193.03,8.5312 c -0.86,0 -1.71,0.027 -2.57,0.07 -1.95,0.099 -3.91,0.3031 -5.85,0.6152 C 168.03,11.515 156.32,24.154 145.52,35.764 104.57,77.878 63.17,119.6 22.502,161.96 13.397,173.8 2.7495,190.04 10.445,205.19 c 10.794,16.76 32.548,18.87 50.196,23.63 7.833,2.07 15.832,3.61 23.423,6.49 -10.569,7.2 -25.495,9.31 -32.515,20.86 -4.227,10.96 8.074,18.01 16.635,21.2 21.98,10.03 46.656,13.74 67.636,25.92 1.47,2.18 -0.36,4.42 -2.61,6.59 -0.72,-2.03 -2.16,-3.86 -3.92,-5.19 -5.57,-4.85 -13.39,-6.08 -20.56,-5.73 -10.374,0.98 -21.75,4.88 -27.345,14.27 -3.418,6.04 -2.226,14.04 2.929,18.75 6.596,8.55 19.406,9.67 28.576,4.89 2.7,-1.29 5.18,-2.98 7.53,-4.85 0.23,3.14 1.41,6.17 4.15,8.7 10.08,11.09 28.01,5.87 38.43,15.91 4.43,6.93 3.87,17.21 12.41,21.25 15.73,7.73 34.07,2.06 49.65,-3.33 9.79,-4.54 21.5,-8.26 27.71,-17.6 4.88,-9.41 -5.04,-16.54 -12.75,-19.51 12.11,-13.41 30.63,-15.5 46.89,-20.63 11.73,-4.27 21.8,-16.84 20.07,-29.62 -4.77,-13.54 -20.72,-16.74 -30.98,-24.77 31.53,-14.48 67.79,-19.12 96.09,-40.27 11.17,-8.31 17.4,-23.76 11.15,-36.92 -8.07,-17.71 -24.68,-29.29 -37.27,-43.6 C 306.71,101.68 267.8,61.352 228.32,21.646 218.68,12.976 205.89,8.4865 193.03,8.5312 Z m 0.59,6.9688 c 11.25,0.02 22.62,4.155 31.13,12.33 L 364,170.16 c 55.35,55.35 -61.3,68.18 -95.05,87.89 -11.75,11.99 36.12,19.99 31.19,34.76 -9.98,29.89 -37.14,10.9 -66.31,40.73 -11.73,11.99 22.44,10.86 10.71,22.86 -22.14,16.2 -67.41,27.48 -71.03,7.7 -5.08,-27.68 -32.21,-16.32 -43.94,-28.31 -11.73,-11.99 24.01,-24.71 12.28,-36.7 C 130.1,287.1 70.9,275.99 59.17,264 47.44,252 104.13,243.15 92.4,231.16 59.7,214.97 -16.579,221.51 28.811,165.3 L 163.15,27.83 c 8.08,-8.265 19.22,-12.352 30.47,-12.33 z M 343.5,269.32 c -0.82,0 -1.64,0 -2.45,0.1 -9.11,0.74 -18.45,3.89 -24.56,11 -3.69,4.4 -7.69,10.8 -4.9,16.56 1.03,1.58 2.34,2.81 3.8,3.79 -1.11,-0.28 -2.23,-0.6 -3.35,-0.7 -1.04,0 -2.08,0 -3.12,0.1 -7.2,4.15 -12.31,13.03 -10.36,21.42 1.8,7.04 8.23,12.35 15.34,13.42 4.95,1 10.26,0.22 14.81,-1.97 3.92,-1.32 6.99,-4.85 7.33,-9.05 0.91,-8.74 -5.56,-16.32 -13.01,-20.15 2.52,0.63 5.09,1.12 7.5,1.58 11.56,1.5 23.74,1.93 34.89,-1.98 6.3,-2.23 11.28,-9.54 8.28,-16.08 -4.47,-11.13 -16.15,-17.16 -27.72,-17.91 v -0 c -0.83,-0 -1.66,-0.1 -2.48,-0.1 z m 0.68,7.06 c 10.23,0.26 20.17,5.11 23.53,14.82 0,12.9 -50.25,8.43 -50.25,1.61 3.16,-11.12 15.12,-16.73 26.72,-16.43 z m -232.44,29.54 c 6.16,0.1 11.91,1.9 15.15,6.21 -5.51,14.36 -23.89,27.21 -35.79,16.92 -13.585,-11.77 4.892,-23.27 20.64,-23.13 z m 199.42,0.9 c 16.74,3.42 20.21,15.41 16.84,18.83 -15.12,8.89 -32.18,-5.07 -16.84,-18.83 z"></path>
</svg>
