<svg xmlns="http://www.w3.org/2000/svg" viewBox="0 0 1124 286.7" class="partner silver"><path class="logotype logotext" d="M365.7 231c0-1 17.7-113 18.4-116 .3-2 2-3 12.4-8 6.7-4 12.3-7 12.6-7 .3 0-4.3-4-10-8-9.8-6-10.6-7-10.3-8 .4-2 3.3-21 3.3-21h97l4.5 2c2.4 1 5.6 3 6.9 4 3.3 3 6.7 8 8.1 13 2.3 6 2.2 8-2.6 38-3.9 24-4.9 29-6.5 33-4.3 10-13.8 20-23.7 23-6.6 2-8.5 3-32.3 2-19.3 0-24.1 0-27.2-1h-4.1c-.1 0-1.7 10-3.4 21l-3.1 22-12.7 4c-6.9 2-15.9 5-19.9 6-6.2 2-7.4 2-7.4 1zm90.3-76c2.6-2 5.7-5 7-7 1.5-3 9.3-52 8.7-55-.4-3-2.7-5-5.4-7-1.6-1-4.2-1-20.6-1-15.1 0-18.8 0-19 1-.3 0-11.1 68-11.1 69 0 0 4.2 1 19.2 1 16.5 0 19.5 0 21.2-1zM73.52 179c-17.5-1-18.7-1-18.5-2 .2 0 2.6-15 5.3-32 2.7-17 5.2-31 5.6-32 .3 0 6.1-3 12.8-7l12.2-6-3.5-3c-1.9-1-6.6-4-10.5-7-3.9-2-7.1-5-7.1-5s3-19 3.4-21l.3-1h18.9c12.28-1 18.78 0 18.78 0 0 2-18.28 115-18.58 116h-19.1zm35.28-1s18-113 18.3-114c.3-2 .6-2 45.5-1h45.2l4.7 2c5.9 3 10.5 8 13.3 13 2.8 6 3.4 11 2.3 19-.6 5-11.2 72-12.5 80l-.3 2h-37.8c0-1 3-19 6.6-42 3.9-25 6.5-43 6.3-44-.4-2-2.9-6-5.3-7-1.6-1-4.1-1-17.3-1-12.2 0-15.4 0-15.9 1-.4 0-3.7 20-7.4 43-3.7 24-7.1 45-7.4 46l-.5 4h-18.9c-10.4 0-18.9 0-18.9-1zm132.8 0c0-1 .7-6 1.6-12l1.7-10H282c41.2-1 38.7 0 42.7-5 6.8-7 4.5-17-4-19H296c-19.9 0-22.3 0-25.6-1-6.6-3-12.3-7-15.9-13-4.9-9-4.8-22 .2-32 4.1-8 10.9-15 18.7-19 8.7-4 7.9-4 58.1-4h44.7l-1.8 11-1.8 11H336c-36.3 0-36.6 0-39 1-1.4 1-3.4 3-4.5 4-5.3 6-4.8 13 1.1 17 1.9 2 2.5 2 26.1 2 22.9 0 24.3 0 28.2 2 7.9 2 15.3 10 17.7 18 1.6 5 1.5 15-.3 20-4.4 13-13 22-26 27l-4.5 2h-46.7c-46.3 1-46.6 1-46.5 0zm342.3 0c-50.2 0-46.4 0-53.6-4-8.3-6-13.5-16-12.5-26 .3-4 12.7-82 13.3-84 .2-2 .7-2 19.2-1h18.9l-.3 1c-1.5 7-12.9 81-12.7 83 .3 3 1.7 5 4.6 7 1.9 2 2.4 2 18.1 2h16l.4-2c.3-1 13.8-87 14.3-90l.1-1H647.8l-18.6 115c0 1-20.5 1-45.3 0zm62.1 0c-.6 0 13.2-84 13.9-87 4.8-12 13.8-22 27-26l4.8-2h29.4c16.8-1 30-1 30-1 0 1-2.4 5-5.4 10l-6.6 11-1.2 2h-15.6c-13.8 0-15.6 0-17.4 1-3 2-6 5-7.2 7-.6 1-3.6 19-7.2 44l-7.2 42h-18.6c-10.3 0-18.7 0-18.7-1zm186.7 0c-2.4 0-6-3-7.2-5-.6-2-1.2-6-1.2-56V63h16.2l16.8-1v-7H879.5v4l.6 3 12.6 1c7.8 0 12.6 0 13.8 1 1.8 1 4.8 5 5.4 7 .6 2 .6 9 .6 21-.6 20-.6 20-3.6 23-3.6 3-3.6 3-33.6 3h-28.2v6h15l7.2 7 6.6 7 3-3c1.2-1 4.8-4 6.6-7l4.2-4h22.8c-.6 2-9 12-15.6 19l-7.8 8 16.2 14 16.2 14h-29.4l-14.4-14c-7.8-8-17.4-18-21.6-23-4.2-4-7.8-9-8.4-9-1.2-1-1.2 32 0 34 1.2 1 1.8 1 9 1l8.4 1-1.8 5-2.4 5h-13.2c-7.2 0-13.8 0-15-1zm55.8-72c1.2-1 1.2-2 1.2-15s0-15-1.2-16c-.6-2-.6-2-21-2h-20.4v12h18c9.6 0 17.4 1 17.4 1s-.6 2-1.8 5l-1.2 5h-32.4v12h20.4c19.2 0 19.8 0 21-2zm157.5 68v-6h3c2 0 3 0 4-1s1-2 1-17v-15h-13v5c0 3 0 11-1 18v14c0 1-1 2-8 4-3 1-7 2-7 2v-7c0-4 0-15 1-24v-26-43h15v15h13V73h-28V62l19 1c18 0 19 0 21 1 0 1 1 2 2 3 1 2 1 5 1 53 0 55 0 52-3 56-3 2-6 3-14 3h-6v-5zm8-60v-10h-13v20h13v-10zm-269.9 53v-12l6-4c6-5 16.8-15 22.8-22l3.6-4-.6 14v13l-6 6c-7.8 8-24 20-25.2 20-.6 0-.6-5-.6-11zm147.4 0v-12l4-4c5-3 20-18 25-23l2-3v28l-7 6c-8 7-19 16-23 18l-1 2v-12zm55 2v-10h-16v-10l8-1h8v-11h-16V83l8-1h8v-9h-16V63h8l8-1v-7h15.5v4l1 3h15v11h-16v9l5 1c5 0 7 1 9 4 1 1 2 2 2 26v24h-16v11h16v11h-16v14l-7.5 3c-3 1-7 2-7 2-1 0-1-4-1-9zm16.5-48v-6h-16.5v11h16.5v-5zm0-22v-6h-16.5v11c0 1 2 1 8 1l8.5-1v-5zm-190.1 19c-4.2-3-18-11-23.4-13l-5.4-3v-9c0-6 0-10 .6-10 1.2 0 18 9 24.6 13l6.6 4v20s-1.8-1-3-2zm143.6-2c-4-2-11-6-16-9l-10-5V82l10 6c6 2 13 6 16 8l6 4v20l-6-4zM809.9 88l-16.2-9-9.6-5V55l9.6 5c4.8 2 12 6 15.6 9l6.6 4v19l-6-4zm146.6 0c-3-2-10-6-16-8l-10-6V55l10 5c6 3 13 7 16 9l6 4v19l-6-4z"/></svg>