<svg xmlns="http://www.w3.org/2000/svg" viewBox="0 0 600 200"><path d="M225.127 97.728c0 9.504-.105 17.354.054 25.198.06 2.965-.38 4.363-3.94 4.424-12.132.208-12.13.374-12.13-11.886 0-12.694.152-25.392-.09-38.08-.072-3.854 1.224-4.418 4.824-4.854 8.23-.996 13.606 1.59 17.54 9.118 3.406 6.523 8.185 12.33 13.37 19.938 0-9.49.116-17.263-.06-25.027-.067-2.934.714-3.87 3.804-3.94 12.274-.28 12.27-.408 12.27 11.67 0 12.887-.084 25.775.06 38.66.036 3.118-.734 4.1-4.08 4.44-8.41.852-14.473-1.054-18.443-9.477-3.15-6.684-8.08-12.53-13.178-20.185zM309.757 128.07c-13.97.134-20.444-3.506-23.817-12.862-1.57-4.35-1.52-7.106 4.238-6.66 2.096.164 4.27.11 6.334-.26 3.133-.56 4.78.197 5.66 3.57.835 3.196 3.6 4.95 6.955 5.223 3.62.294 7.396-.033 8.36-4.275.954-4.206-2.488-5.602-5.723-6.58-5.323-1.61-10.838-2.55-15.914-5.007-5.95-2.88-9.502-7.503-9.118-14.094.39-6.694 4.096-11.564 10.632-13.712 8.477-2.786 17.01-2.718 25.48.186 2.43.834 4.465 2.288 6.057 4.27 2.086 2.59 4.356 5.82 3.43 8.835-.98 3.202-5.047 1.586-7.686 1.88-3.905.434-8.348 1.793-10.25-4.163-.734-2.298-4.1-2.635-6.685-2.376-2.178.22-4.314.963-4.732 3.458-.472 2.826 1.897 3.57 3.877 4.147 4.24 1.233 8.608 2.036 12.826 3.337 10.82 3.336 15.717 9.222 14.997 17.677-.8 9.39-7.91 16.104-18.573 17.374-2.088.246-4.23.032-6.347.032zM360.8 111.827c2.49-7.682 4.69-13.817 6.423-20.08.945-3.414 2.678-4.342 6.09-4.294 9.417.133 9.36-.01 12.413 9 1.578 4.66 2.6 9.547 5.33 14.373 1.653-6.48 3.446-12.338 4.568-18.322.76-4.05 2.523-5.18 6.566-5.073 9.903.266 9.92.047 6.403 9.55-2.93 7.917-6.272 15.71-8.708 23.777-1.532 5.07-3.796 6.818-9.237 6.725-5.417-.092-8.39-1.274-9.578-6.925-1.09-5.186-3.205-10.157-5.227-16.315-2.322 7.06-4.398 13.03-6.226 19.077-.818 2.705-1.925 4.007-5.12 4.03-10.104.074-10.1.245-13.616-9.228-3.715-10.01-7.435-20.017-11.165-30.06.854-.25 1.216-.432 1.586-.453 13.27-.718 13.273-.715 16.48 12.09.887 3.53 1.76 7.062 3.02 12.127zM549.717 91.527c2.52-1.558 4.048-2.728 5.75-3.515 10.536-4.87 20.324.834 20.882 12.416.378 7.872.016 15.777.192 23.663.057 2.598-.906 3.103-3.307 3.245-12.42.73-12.41.806-12.42-11.53-.004-3.654.038-7.314-.13-10.962-.14-3.093-1.044-5.856-4.88-5.876-3.825-.02-5.628 2.48-5.815 5.862-.316 5.756-.45 11.548-.183 17.302.18 3.862-.707 5.32-4.94 5.25-10.626-.18-10.63.047-10.63-10.47 0-13.084.17-26.174-.098-39.253-.086-4.133 1.22-5.117 5.177-5.048 10.4.182 10.404-.01 10.404 10.67-.003 2.47-.003 4.943-.003 8.245zM526.418 113.373c-4.075 12.512-14.192 17.334-29.554 14.466-10.31-1.926-16.195-8.834-16.33-19.173-.153-11.89 5.174-19.08 15.818-21.345 5.546-1.18 11.054-1.002 16.556.348 3.26.8 6.113 2.33 8.44 4.702 2.033 2.076 4.48 4.813 3.73 7.385-.583 2.008-4.36 1.58-6.772 1.788-3.36.29-7.283 2.296-9.34-2.603-.267-.636-1.62-.925-2.526-1.165-4.338-1.154-7.55.382-9.5 4.357-2.528 5.16-1.144 12.268 2.99 14.532 4.07 2.228 7.994 1.724 10.5-2.424 1.404-2.325 3.084-2.492 5.272-2.21 3.422.436 6.848.856 10.716 1.34zM464.57 72.524c0 2.97.1 5.08-.02 7.18-.256 4.572-.844 8.53 6.35 8.144 4.26-.23 1.535 4.557 2.084 7 .427 1.905.618 4.76-2.8 4.22-5.307-.834-6.136 1.858-5.662 6.23.288 2.664-.017 5.385.123 8.07.126 2.425 1.28 4.213 4.005 3.67 6.53-1.3 3.71 4.118 4.652 6.583 1.405 3.675-1.615 4.07-4.108 4.297-2.865.26-5.764.342-8.64.262-7.228-.204-10.88-3.79-11.175-11.124-.194-4.802-.1-9.618-.03-14.426.033-2.122-.016-3.668-2.936-3.568-4.96.168-2.64-3.808-2.71-5.907-.067-2.063-2.066-5.91 2.94-5.636 1.138.062 2.823.014 2.538-1.487-1.475-7.78 5.29-8.052 9.476-10.63 1.6-.982 3.387-1.663 5.913-2.88zM199.7 100.342c0 7.674-.11 15.35.056 23.022.062 2.84-.53 3.913-3.72 4.002-13.167.373-13.164.507-13.164-12.47 0-12.663.088-25.326-.06-37.987-.037-3.154.76-4.24 4.132-4.294 12.758-.21 12.757-.35 12.757 12.185v15.542zM434.325 107.38c0 5.37-.17 10.744.065 16.102.137 3.09-.974 3.774-3.91 3.843-11.4.27-11.398.384-11.398-10.715 0-8.245.196-16.495-.09-24.73-.125-3.672 1.123-4.43 4.556-4.428 10.777.002 10.777-.148 10.777 10.724v9.204zM42.47 127.07c.83 6.45 4.833 11.89 5.806 18.295H23.99c6.62-6.557 12.55-12.427 18.48-18.295zM426.653 83.173c-3.612-.41-8.155 1.912-7.764-4.96.247-4.37 1.144-6.285 5.675-5.538 1.3.214 2.663.03 3.997.034 5.16.01 8.19 4.605 5.577 9.133-1.745 3.025-5.25.473-7.487 1.33zM75.525 86.747c-1.234-1.254-2.658-1.33-4.213-1.32-9.616.072-19.234.126-28.852.186H25.41L37.86 99.32l15.72 16.243 50.1-.063c-8.63-10.324-18.748-19.19-28.153-28.753z"/><path d="M53.577 115.563c-3.702 3.836-7.405 7.67-11.11 11.507.832 6.45 4.837 11.89 5.808 18.295 3.646.054 7.31-.108 10.935.202 9.357.8 17.548-.156 24.062-8.58 6.013-7.775 14.666-13.29 20.408-21.486-16.702.02-33.403.043-50.103.063zM36.764 70.35c1.808 4.104 4.013 8.06 4.7 12.58H24.32c3.974-4.864 7.943-8.972 12.444-12.58zM74.962 23.675c-.905-.937-2.09-.834-3.218-.828-10.9.06-21.8.137-32.7.21-4.765-.24-9.535-.598-15.06.29 4.258 4.056 7.94 7.558 11.62 11.06l18.26 18.59c16.61.013 33.217.025 49.826.036-8.503-10.835-19.22-19.506-28.728-29.358z"/><path d="M36.766 70.35c1.806 4.104 4.013 8.058 4.7 12.58 5.36.06 10.718.186 16.076.164 8.855-.037 18.554 2.367 24.003-7.99.136-.257.752-.22 1.006-.462 7.262-6.99 14.84-13.674 21.14-21.607-16.608-.012-33.216-.026-49.824-.04-5.7 5.786-11.402 11.57-17.1 17.355zM127.655 146.795l-50.11-.106c.02.346-.106.836.076 1.02 9.24 9.247 18.528 18.445 27.74 27.718 1.395 1.404 2.965 1.536 4.722 1.52 10.19-.104 20.377-.183 30.567-.27-.076-4.584 3.493-8.15 3.54-12.7l-16.535-17.183zM143.354 130.252c-.484-4.323-3.563-7.858-3.725-12.28-.86-.383-1.72-1.09-2.582-1.098-9.402-.077-18.805-.028-28.21-.06-1.465-.005-2.574.562-3.553 1.56-9.245 9.44-18.49 18.877-27.737 28.315l50.11.105c4.96-5.77 11.178-10.35 15.696-16.543z"/><path d="M144.19 163.978c-.05 4.55-3.618 8.118-3.542 12.7h14.914l-11.373-12.7z"/><g><path d="M144.25 66.94c4.588-3.567 8.593-7.692 12.695-12.532H138.49c-9.594-.06-19.19-.12-28.784-.183-1.538-.01-3.003-.03-4.22 1.26-9.183 9.728-19.387 18.458-27.982 28.76 16.73.03 33.46.055 50.192.083A87039.99 87039.99 0 0 1 144.25 66.94z"/><path d="M144.275 101.4c-5.526-5.69-11.054-11.38-16.58-17.072l-50.192-.083c8.682 10.428 18.802 19.445 28.398 28.978 1.285 1.276 2.772 1.11 4.274 1.103 10.157-.048 20.313-.122 30.47-.187h15.788c-4.25-4.453-8.203-8.6-12.157-12.742v.002z"/></g><path d="M143.354 130.254c-.484-4.323-3.563-7.86-3.725-12.28h16.912l-13.188 12.28z"/></svg>