<svg xmlns="http://www.w3.org/2000/svg" viewBox="0 0 293 194"><path d="M252.2 45.15q1.4 0 2.6.66 1.2.67 1.9 1.89.7 1.23.7 2.57 0 1.32-.7 2.54-.6 1.23-1.9 1.9-1.2.67-2.6.67-1.4 0-2.6-.67-1.2-.67-1.9-1.9-.7-1.22-.7-2.54 0-1.34.7-2.57.7-1.22 1.9-1.89 1.3-.66 2.6-.66zm0 .85q-1.1 0-2.2.56-1 .54-1.6 1.58-.6 1.02-.6 2.13 0 1.1.6 2.12.6 1.01 1.6 1.59 1 .55 2.2.55 1.2 0 2.2-.55 1-.58 1.6-1.59.6-1.02.6-2.12 0-1.11-.6-2.13-.6-1.04-1.6-1.58-1.1-.56-2.2-.56zm-2.3 7.1v-5.5h1.9q1.1 0 1.5.14.5.16.7.54.3.37.3.81 0 .59-.5 1.05-.4.44-1.2.49.4.13.6.3.3.33.8 1.09l.7 1.08h-1.1l-.5-.87q-.7-1.02-1.1-1.28-.2-.19-.7-.19h-.5v2.34h-.9zm.9-3.1h1.1q.8 0 1.1-.23.3-.24.3-.61 0-.25-.1-.44t-.5-.28q-.2-.1-.9-.1h-1V50zM98.59 82.33c4.41 0 6.21 2.17 6.21 5.72v41.75h15.1V87.99c0-8.49-4.5-17.86-17.7-17.86H71.14v59.67h15V82.33m102.36-.74c-5.2 0-9.1 2.66-10.8 6.26-1 2.17-1.3 3.82-1.5 6.49h23.3c-.4-6.52-3.4-12.75-11-12.75m-12.3 23.01c0 7.7 4.9 13.4 13.4 13.4 6.6 0 10-1.9 13.8-5.7l9.3 9c-6 5.8-12.2 9.4-23.2 9.4-14.4 0-28.2-7.8-28.2-30.88 0-19.61 12-30.71 27.9-30.71 15.9 0 25.1 13 25.1 30.02v5.47h-38.1m-27.6 25.1c-12.3 0-17.5-8.6-17.5-17V53.84h15v16.29h11.4v12.2h-11.4v29.47c0 3.5 1.7 5.3 5.2 5.3h6.2v12.6h-8.9M42.58 47.41h15.16v14.42H42.58zm15.16 22.72H42.58v44.37c0 7.9 3.8 14.8 15.16 15.9M238.4 45.35h-15.2v67.85c0 7.9 3.8 14.8 15.2 15.9m53-74.05C277.5-12.12 147.5-16.37 63.75 34.8v5.66C147.4-2.73 266.2-2.456 277 59.42c3.7 20.5-7.8 41.78-28.4 54.08v16.1c24.8-9.1 50-38.52 42.8-74.55M138.9 172.6c-57.78 5.4-118.04-3-126.47-48.3-4.198-22.4 6-46.11 19.46-60.82v-7.87C7.625 76.96-5.552 104 2.056 135.8c9.704 41 61.414 64.1 140.344 56.4 31.3-3 72.2-13.1 100.5-28.8v-22.2c-25.7 15.4-68.4 28.2-104 31.4z" class="logotype logotext"/></svg>