<svg xmlns="http://www.w3.org/2000/svg" viewBox="-40 0 518 200"><path d="M130.02 88.332h9.52v47.065h-9.52V88.332zM179.438 135.396h-9.018v-17.394c0-3.678-.19-6.056-.572-7.138-.383-1.08-1.008-1.92-1.868-2.517-.86-.6-1.904-.9-3.118-.9-1.55 0-2.94.423-4.185 1.286-1.226.858-2.075 1.992-2.534 3.395-.46 1.412-.684 4.03-.684 7.836v15.43h-9.013v-34.097h8.334v5.004c2.966-3.84 6.71-5.758 11.218-5.758 1.98 0 3.796.354 5.44 1.08 1.65.712 2.894 1.626 3.737 2.746a9.866 9.866 0 0 1 1.762 3.775c.33 1.42.5 3.44.5 6.074v21.18zM204.246 101.3v7.155h-6.148v13.807c0 2.806.053 4.43.17 4.895a2 2 0 0 0 .79 1.143c.408.3.903.454 1.498.454.813 0 2.004-.295 3.56-.872l.802 7.008c-2.086.908-4.438 1.356-7.073 1.356-1.615 0-3.07-.277-4.362-.825-1.297-.55-2.246-1.254-2.847-2.127-.607-.875-1.03-2.045-1.26-3.528-.19-1.052-.29-3.183-.29-6.386v-14.925h-4.12V101.3h4.12V94.56l9.012-5.305V101.3h6.148zM230.25 124.622l9.007 1.52c-1.155 3.293-2.977 5.804-5.47 7.52-2.487 1.723-5.605 2.583-9.342 2.583-5.918 0-10.297-1.945-13.144-5.823-2.245-3.11-3.364-7.038-3.364-11.77 0-5.66 1.474-10.092 4.432-13.298 2.947-3.206 6.678-4.81 11.187-4.81 5.075 0 9.07 1.68 12 5.034 2.935 3.363 4.338 8.5 4.21 15.422h-22.57c.065 2.688.79 4.774 2.175 6.262 1.38 1.49 3.1 2.24 5.17 2.24 1.402 0 2.575-.377 3.536-1.155.96-.766 1.686-2.01 2.175-3.725m.59-9.172c-.064-2.617-.736-4.603-2.026-5.965-1.28-1.36-2.847-2.036-4.686-2.036-1.963 0-3.59.71-4.874 2.147s-1.916 3.383-1.892 5.853h13.48zM255.68 135.396h-9.013v-34.098h8.346v4.845c1.438-2.287 2.735-3.79 3.89-4.512 1.15-.727 2.458-1.087 3.925-1.087 2.07 0 4.067.566 5.983 1.7l-2.822 7.855c-1.52-.984-2.94-1.47-4.255-1.47-1.267 0-2.334.35-3.218 1.042-.884.693-1.568 1.948-2.08 3.772-.508 1.824-.755 5.632-.755 11.42v10.534zM279.16 135.396L268.2 88.332h9.772l6.938 32.335 8.593-32.335h11.365l8.164 32.883 7.16-32.883h9.554l-11.28 47.064h-10.24l-9.26-35.188-9.335 35.188h-10.47zM338.88 111.743l-8.075-1.52c.92-3.287 2.51-5.724 4.768-7.31 2.252-1.577 5.6-2.37 10.05-2.37 4.032 0 7.044.477 9.018 1.432 1.987.95 3.366 2.157 4.168 3.62.808 1.472 1.22 4.16 1.22 8.074l-.17 10.532c0 2.988.134 5.204.418 6.628.29 1.423.813 2.944 1.59 4.568h-8.923c-.23-.586-.525-1.456-.866-2.608a35.444 35.444 0 0 0-.312-1.038c-1.545 1.497-3.195 2.623-4.945 3.37a14.314 14.314 0 0 1-5.617 1.12c-3.507 0-6.277-.954-8.293-2.863-2.016-1.908-3.036-4.324-3.036-7.245 0-1.927.466-3.642 1.385-5.157.925-1.52 2.21-2.67 3.877-3.475 1.656-.807 4.043-1.515 7.18-2.113 4.225-.79 7.148-1.527 8.775-2.216v-.908c0-1.733-.424-2.97-1.297-3.713-.866-.737-2.5-1.105-4.898-1.105-1.633 0-2.894.315-3.802.952-.918.638-1.643 1.75-2.215 3.343m12.213 7.32c-1.16.396-2.994.85-5.51 1.398-2.506.54-4.15 1.068-4.922 1.58-1.178.84-1.78 1.91-1.78 3.2 0 1.277.484 2.374 1.433 3.296.937.93 2.14 1.397 3.607 1.397 1.62 0 3.183-.542 4.656-1.62 1.096-.814 1.815-1.822 2.163-3.007.235-.772.353-2.252.353-4.427v-1.816zM377.363 135.396h-9.006v-34.098h8.334v4.845c1.445-2.287 2.742-3.79 3.89-4.512 1.162-.727 2.476-1.087 3.944-1.087 2.063 0 4.055.566 5.97 1.7l-2.81 7.855c-1.538-.984-2.947-1.47-4.26-1.47-1.268 0-2.34.35-3.225 1.042-.873.693-1.575 1.948-2.076 3.772-.5 1.824-.76 5.632-.76 11.42v10.534zM414.048 124.622l9.006 1.52c-1.15 3.293-2.97 5.804-5.464 7.52-2.493 1.723-5.606 2.583-9.348 2.583-5.918 0-10.303-1.945-13.138-5.823-2.246-3.11-3.366-7.038-3.366-11.77 0-5.66 1.474-10.092 4.42-13.298 2.954-3.206 6.69-4.81 11.2-4.81 5.07 0 9.065 1.68 12.006 5.034 2.93 3.363 4.332 8.5 4.197 15.422h-22.556c.06 2.688.778 4.774 2.163 6.262 1.385 1.49 3.1 2.24 5.163 2.24 1.414 0 2.587-.377 3.537-1.155.967-.766 1.692-2.01 2.18-3.725m.59-9.172c-.064-2.617-.736-4.603-2.02-5.965-1.286-1.36-2.854-2.036-4.693-2.036-1.963 0-3.584.71-4.87 2.147-1.29 1.438-1.92 3.383-1.897 5.853h13.48zM446.755 88.402c2.04 0 4.032.524 5.97 1.568 1.94 1.05 3.45 2.552 4.534 4.49 1.084 1.946 1.62 3.982 1.62 6.095 0 2.087-.53 4.102-1.597 6.036-1.06 1.928-2.564 3.426-4.485 4.498-1.927 1.067-3.937 1.594-6.042 1.594-2.098 0-4.12-.528-6.04-1.594a11.383 11.383 0 0 1-4.498-4.497c-1.067-1.932-1.603-3.948-1.603-6.035 0-2.113.536-4.15 1.627-6.094 1.09-1.938 2.61-3.44 4.55-4.49 1.937-1.043 3.924-1.568 5.963-1.568m0 2.016c-1.703 0-3.36.436-4.98 1.31a9.422 9.422 0 0 0-3.79 3.75c-.91 1.63-1.357 3.318-1.357 5.078 0 1.745.442 3.42 1.332 5.028a9.597 9.597 0 0 0 3.76 3.748c1.61.89 3.29 1.344 5.034 1.344s3.425-.454 5.04-1.344a9.483 9.483 0 0 0 3.742-3.748c.89-1.61 1.332-3.283 1.332-5.028 0-1.76-.448-3.448-1.356-5.078-.908-1.624-2.175-2.88-3.79-3.75-1.62-.874-3.275-1.31-4.967-1.31m-5.334 16.875V94.18h4.504c1.538 0 2.647.123 3.342.37.69.242 1.232.66 1.64 1.26s.618 1.245.618 1.922c0 .955-.342 1.786-1.026 2.5-.684.706-1.603 1.107-2.73 1.193.46.192.838.427 1.115.7.524.512 1.173 1.375 1.933 2.592l1.603 2.576h-2.57l-1.174-2.075c-.92-1.615-1.656-2.635-2.21-3.053-.39-.295-.955-.448-1.698-.448h-1.25v5.576h-2.097zm2.1-7.374h2.6c1.237 0 2.09-.178 2.54-.55.447-.364.683-.854.683-1.467 0-.383-.112-.734-.33-1.043a1.963 1.963 0 0 0-.908-.69c-.395-.156-1.102-.23-2.15-.23h-2.435v3.98zM70.072 43.094v30.91c0 15.73-.513 27.53-1.52 35.405-1.003 7.856-2.677 14.734-5.017 20.634-2.346-5.79-4.026-12.784-5.028-20.99-1.002-8.198-1.51-19.88-1.51-35.05v-30.91H31.872v30.91c0 15.887-.506 27.763-1.53 35.623-.65 4.992-1.563 9.546-2.754 13.674.984 3.608 3.696 12.108 9.684 23.047a128.637 128.637 0 0 0 3.106-7.002c1.515-3.74 2.888-7.53 4.102-11.382 1.05 3.592 2.38 7.267 3.984 11.037 1.592 3.766 3.425 7.648 5.47 11.644h23.1c6.412-8.765 11.045-18.867 13.886-30.325 2.853-11.454 4.28-26.383 4.28-44.785v-32.44H70.07z"/><path d="M25.265 130.044c-1.267-3.283-3.978-12.537-4.97-20.252-.995-7.72-1.484-19.648-1.484-35.79V43.095H-6.32v32.44c0 18.408 1.42 33.332 4.244 44.78 2.83 11.463 7.427 21.566 13.804 30.33h23.347c-4.928-8.605-8.553-17.328-9.808-20.6M-5.904 23.43c0 7.375 5.982 13.342 13.344 13.342 7.368 0 13.338-5.968 13.338-13.34 0-7.37-5.97-13.34-13.338-13.34-7.36 0-13.344 5.97-13.344 13.34M-6.234 175.653l4.433-.43c.264 1.488.8 2.582 1.62 3.28.82.7 1.916 1.046 3.3 1.046 1.47 0 2.577-.31 3.32-.932.742-.62 1.113-1.344 1.113-2.178 0-.533-.153-.987-.466-1.36-.318-.375-.86-.702-1.644-.977-.53-.186-1.745-.513-3.642-.987-2.44-.604-4.155-1.347-5.145-2.23-1.38-1.245-2.075-2.76-2.075-4.545 0-1.145.324-2.218.972-3.22.654-1 1.597-1.76 2.823-2.284 1.22-.524 2.705-.784 4.438-.784 2.835 0 4.963.62 6.395 1.86s2.18 2.903 2.258 4.972l-4.556.2c-.194-1.16-.613-1.992-1.255-2.5-.642-.512-1.603-.765-2.888-.765-1.326 0-2.358.27-3.106.818-.482.348-.724.813-.724 1.397 0 .536.224.99.678 1.373.572.48 1.97.984 4.185 1.51 2.215.518 3.86 1.06 4.915 1.62 1.067.56 1.892 1.323 2.493 2.293.6.973.902 2.17.902 3.596 0 1.29-.36 2.505-1.08 3.63-.718 1.133-1.732 1.97-3.046 2.518-1.31.548-2.947.825-4.904.825-2.86 0-5.05-.66-6.572-1.98-1.533-1.32-2.447-3.238-2.742-5.767M16.488 174.592c0-1.432.354-2.823 1.06-4.173.708-1.342 1.71-2.37 3.007-3.075 1.302-.71 2.753-1.064 4.35-1.064 2.476 0 4.497.803 6.083 2.41 1.58 1.608 2.37 3.636 2.37 6.088 0 2.472-.796 4.524-2.393 6.15-1.597 1.625-3.6 2.435-6.03 2.435a9.517 9.517 0 0 1-4.285-1.01c-1.36-.68-2.393-1.672-3.1-2.98s-1.062-2.9-1.062-4.78m4.433.23c0 1.623.384 2.864 1.156 3.73.772.858 1.72 1.288 2.847 1.288 1.132 0 2.075-.43 2.84-1.287.76-.866 1.144-2.116 1.144-3.76 0-1.597-.383-2.832-1.143-3.696-.766-.86-1.71-1.29-2.84-1.29-1.127 0-2.076.43-2.848 1.29-.772.864-1.155 2.104-1.155 3.725M38.32 160.434h4.32v22.563h-4.32v-22.563zM59.41 182.997v-2.446c-.595.87-1.38 1.563-2.346 2.064s-1.992.752-3.07.752c-1.097 0-2.082-.24-2.954-.725-.878-.48-1.503-1.157-1.892-2.03-.395-.865-.59-2.074-.59-3.618v-10.338h4.327v7.51c0 2.298.077 3.706.242 4.225.16.517.442.93.866 1.23.424.302.955.455 1.597.455.743 0 1.403-.203 1.986-.613.583-.404.99-.902 1.202-1.503.212-.602.324-2.076.324-4.41v-6.896h4.326v16.344H59.41zM83.734 171.486l-4.26.767c-.148-.85-.472-1.49-.98-1.922-.506-.43-1.166-.647-1.98-.647-1.078 0-1.933.37-2.575 1.12-.644.743-.962 1.986-.962 3.728 0 1.943.324 3.31.978 4.112.65.802 1.527 1.197 2.623 1.197.818 0 1.49-.23 2.015-.696.524-.466.89-1.27 1.108-2.41l4.25.724c-.442 1.95-1.29 3.42-2.546 4.415-1.244.996-2.924 1.494-5.028 1.494-2.394 0-4.298-.752-5.718-2.26s-2.134-3.602-2.134-6.266c0-2.7.713-4.8 2.14-6.3 1.426-1.503 3.354-2.258 5.788-2.258 1.992 0 3.572.43 4.745 1.285 1.18.854 2.022 2.163 2.534 3.92M88.59 160.434h4.327v3.996H88.59v-3.996zm0 6.22h4.327v16.343H88.59v-16.344zM97.922 174.592c0-1.432.354-2.823 1.06-4.173.708-1.342 1.716-2.37 3.013-3.075 1.297-.71 2.747-1.064 4.344-1.064 2.474 0 4.502.803 6.082 2.41 1.58 1.608 2.37 3.636 2.37 6.088 0 2.472-.796 4.524-2.393 6.15-1.593 1.625-3.602 2.435-6.03 2.435a9.496 9.496 0 0 1-4.28-1.01c-1.367-.68-2.4-1.672-3.106-2.98-.71-1.31-1.062-2.9-1.062-4.78m4.432.23c0 1.623.383 2.864 1.155 3.73.77.858 1.72 1.288 2.846 1.288 1.132 0 2.075-.43 2.84-1.287.76-.866 1.145-2.116 1.145-3.76 0-1.597-.382-2.832-1.143-3.696-.766-.86-1.71-1.29-2.84-1.29-1.127 0-2.076.43-2.848 1.29-.773.864-1.156 2.104-1.156 3.725M134.625 182.997H130.3v-8.34c0-1.768-.095-2.906-.278-3.427-.19-.516-.49-.92-.902-1.205-.413-.29-.92-.433-1.503-.433-.75 0-1.42.206-2.016.616a3.086 3.086 0 0 0-1.22 1.63c-.223.68-.33 1.93-.33 3.757v7.403h-4.325v-16.344h4.014v2.4c1.43-1.846 3.223-2.77 5.386-2.77.955 0 1.827.17 2.617.518.79.342 1.39.778 1.798 1.312.402.536.685 1.14.844 1.818s.242 1.644.242 2.91v10.155zM150.056 177.793l4.303.725c-.555 1.58-1.428 2.782-2.624 3.607s-2.688 1.24-4.485 1.24c-2.84 0-4.944-.927-6.312-2.784-1.073-1.49-1.615-3.364-1.615-5.634 0-2.708.707-4.83 2.128-6.36 1.416-1.538 3.207-2.305 5.37-2.305 2.435 0 4.35.803 5.754 2.41 1.41 1.605 2.08 4.07 2.016 7.375h-10.834c.03 1.29.377 2.284 1.05 3 .665.713 1.496 1.073 2.486 1.073.678 0 1.25-.19 1.715-.56.46-.368.807-.96 1.05-1.785m.24-4.368c-.03-1.252-.354-2.204-.973-2.858-.613-.65-1.362-.976-2.246-.976-.943 0-1.72.346-2.34 1.036-.62.684-.92 1.618-.908 2.8h6.467zM158.172 178.33l4.338-.66c.183.842.554 1.484 1.12 1.917.566.436 1.356.657 2.37.657 1.12 0 1.962-.206 2.528-.62a1.38 1.38 0 0 0 .566-1.154c0-.324-.1-.595-.307-.813-.212-.206-.695-.395-1.444-.572-3.495-.77-5.7-1.474-6.637-2.107-1.29-.88-1.94-2.107-1.94-3.675 0-1.42.56-2.605 1.68-3.575 1.12-.964 2.854-1.447 5.2-1.447 2.24 0 3.9.366 4.986 1.092 1.09.73 1.845 1.81 2.252 3.236l-4.08.754c-.176-.636-.506-1.126-.995-1.462-.484-.342-1.18-.51-2.08-.51-1.144 0-1.958.162-2.453.474-.324.23-.49.525-.49.878 0 .31.142.572.43.79.39.283 1.74.69 4.04 1.214 2.304.522 3.913 1.164 4.826 1.924.902.77 1.356 1.842 1.356 3.215 0 1.497-.626 2.785-1.875 3.86-1.256 1.08-3.106 1.616-5.564 1.616-2.22 0-3.983-.447-5.28-1.35-1.3-.9-2.153-2.128-2.548-3.68M193.442 160.434v8.293c1.397-1.63 3.06-2.446 4.998-2.446 1.002 0 1.898.187 2.694.555.802.37 1.41.843 1.815 1.418.4.575.677 1.21.824 1.907.153.7.224 1.783.224 3.248v9.59h-4.326v-8.635c0-1.715-.077-2.8-.242-3.266a2.13 2.13 0 0 0-.872-1.096c-.42-.276-.93-.412-1.562-.412-.72 0-1.356.177-1.92.528-.567.345-.98.875-1.24 1.577-.264.7-.394 1.742-.394 3.115v8.19h-4.326v-22.563h4.326zM208.962 174.592c0-1.432.354-2.823 1.06-4.173.708-1.342 1.716-2.37 3.007-3.075 1.3-.71 2.752-1.064 4.35-1.064 2.474 0 4.502.803 6.082 2.41 1.58 1.608 2.37 3.636 2.37 6.088 0 2.472-.796 4.524-2.393 6.15-1.598 1.625-3.602 2.435-6.03 2.435a9.536 9.536 0 0 1-4.286-1.01c-1.356-.68-2.393-1.672-3.1-2.98-.71-1.31-1.062-2.9-1.062-4.78m4.432.23c0 1.623.383 2.864 1.155 3.73.77.858 1.714 1.288 2.846 1.288s2.075-.43 2.84-1.287c.76-.866 1.144-2.116 1.144-3.76 0-1.597-.383-2.832-1.143-3.696-.766-.86-1.71-1.29-2.84-1.29s-2.076.43-2.848 1.29c-.773.864-1.156 2.104-1.156 3.725M245.66 182.997h-4.32v-8.34c0-1.768-.1-2.906-.284-3.427-.183-.516-.483-.92-.896-1.205-.418-.29-.913-.433-1.503-.433-.75 0-1.42.206-2.016.616a3.128 3.128 0 0 0-1.225 1.63c-.218.68-.324 1.93-.324 3.757v7.403h-4.325v-16.344h4.014v2.4c1.426-1.846 3.223-2.77 5.386-2.77.955 0 1.827.17 2.617.518.79.342 1.385.778 1.792 1.312.407.536.69 1.14.85 1.818s.235 1.644.235 2.91v10.155zM261.09 177.793l4.308.725c-.554 1.58-1.432 2.782-2.623 3.607-1.197.825-2.694 1.24-4.486 1.24-2.842 0-4.952-.927-6.314-2.784-1.08-1.49-1.615-3.364-1.615-5.634 0-2.708.708-4.83 2.123-6.36 1.42-1.538 3.206-2.305 5.376-2.305 2.427 0 4.343.803 5.752 2.41s2.075 4.07 2.016 7.375h-10.834c.03 1.29.377 2.284 1.043 3 .672.713 1.503 1.073 2.493 1.073.678 0 1.25-.19 1.71-.56.466-.368.814-.96 1.05-1.785m.24-4.368c-.023-1.252-.347-2.204-.966-2.858-.62-.65-1.36-.976-2.245-.976-.944 0-1.722.346-2.34 1.036-.62.684-.914 1.618-.91 2.8h6.46zM269.206 178.33l4.344-.66c.183.842.554 1.484 1.12 1.917.566.436 1.356.657 2.37.657 1.12 0 1.962-.206 2.528-.62a1.38 1.38 0 0 0 .566-1.154c0-.324-.1-.595-.306-.813-.218-.206-.696-.395-1.45-.572-3.483-.77-5.694-1.474-6.63-2.107-1.292-.88-1.94-2.107-1.94-3.675 0-1.42.56-2.605 1.68-3.575 1.114-.964 2.853-1.447 5.198-1.447 2.24 0 3.902.366 4.987 1.092 1.09.73 1.833 1.81 2.246 3.236l-4.08.754c-.17-.636-.507-1.126-.99-1.462-.49-.342-1.184-.51-2.086-.51-1.137 0-1.95.162-2.446.474-.33.23-.49.525-.49.878 0 .31.143.572.43.79.39.283 1.734.69 4.038 1.214 2.305.522 3.914 1.164 4.828 1.924.902.77 1.35 1.842 1.35 3.215 0 1.497-.625 2.785-1.874 3.86-1.255 1.08-3.106 1.616-5.558 1.616-2.228 0-3.99-.447-5.287-1.35-1.3-.9-2.15-2.128-2.55-3.68M297.332 166.653v3.448h-2.953v6.585c0 1.338.023 2.11.082 2.334.06.22.183.4.383.547.2.142.448.215.73.215.402 0 .985-.14 1.746-.416l.366 3.354c-1.002.43-2.14.642-3.42.642-.777 0-1.478-.127-2.103-.39-.625-.26-1.085-.6-1.38-1.013-.294-.42-.494-.98-.606-1.69-.094-.497-.14-1.517-.14-3.046V170.1h-1.987v-3.447h1.986V163.4l4.344-2.523v5.776h2.952zM305.142 171.64l-3.925-.71c.442-1.578 1.202-2.75 2.275-3.51 1.084-.758 2.682-1.14 4.804-1.14 1.927 0 3.365.23 4.314.685.937.454 1.603 1.037 1.992 1.742.383.702.578 1.995.578 3.87l-.053 5.048c0 1.438.07 2.496.212 3.177.14.687.394 1.41.777 2.195h-4.28a14.225 14.225 0 0 1-.412-1.28c-.077-.252-.13-.424-.16-.506-.736.72-1.525 1.26-2.368 1.616-.837.36-1.74.536-2.694.536-1.68 0-3.006-.454-3.98-1.367-.966-.908-1.455-2.066-1.455-3.46 0-.926.224-1.75.66-2.47a4.305 4.305 0 0 1 1.857-1.662c.796-.39 1.945-.725 3.442-1.014 2.016-.378 3.425-.732 4.203-1.06v-.432c0-.83-.206-1.423-.62-1.777-.405-.35-1.184-.533-2.32-.533-.767 0-1.368.156-1.805.46-.424.302-.778.832-1.043 1.592m5.788 3.506c-.56.183-1.432.407-2.635.663-1.197.255-1.986.51-2.352.753-.566.4-.85.91-.85 1.523 0 .604.225 1.13.68 1.568.453.445 1.025.663 1.726.663.777 0 1.52-.257 2.227-.77.525-.388.866-.865 1.03-1.43.113-.37.172-1.07.172-2.108v-.864zM319.495 178.33l4.344-.66c.176.842.553 1.484 1.12 1.917.565.436 1.355.657 2.37.657 1.113 0 1.956-.206 2.528-.62a1.38 1.38 0 0 0 .566-1.154c0-.324-.1-.595-.307-.813-.218-.206-.7-.395-1.45-.572-3.483-.77-5.7-1.474-6.63-2.107-1.292-.88-1.94-2.107-1.94-3.675 0-1.42.56-2.605 1.674-3.575 1.12-.964 2.86-1.447 5.205-1.447 2.24 0 3.896.366 4.987 1.092 1.09.73 1.833 1.81 2.246 3.236l-4.08.754c-.17-.636-.506-1.126-.99-1.462-.488-.342-1.178-.51-2.086-.51-1.138 0-1.95.162-2.446.474-.33.23-.495.525-.495.878 0 .31.143.572.437.79.39.283 1.733.69 4.038 1.214 2.3.522 3.908 1.164 4.822 1.924.908.77 1.356 1.842 1.356 3.215 0 1.497-.625 2.785-1.874 3.86-1.256 1.08-3.107 1.616-5.56 1.616-2.227 0-3.99-.447-5.286-1.35-1.3-.9-2.15-2.128-2.55-3.68M350.333 166.653h4.032v2.4a6.082 6.082 0 0 1 2.122-2.002 5.91 5.91 0 0 1 2.977-.768c1.898 0 3.507.743 4.827 2.23 1.327 1.49 1.987 3.564 1.987 6.222 0 2.73-.66 4.845-1.998 6.366-1.333 1.51-2.948 2.263-4.846 2.263-.908 0-1.72-.177-2.458-.536-.737-.357-1.51-.973-2.316-1.845v8.234h-4.326v-22.563zm4.285 7.892c0 1.84.36 3.195 1.084 4.073.73.878 1.62 1.315 2.664 1.315 1.008 0 1.845-.4 2.51-1.208.667-.802.997-2.122.997-3.96 0-1.716-.342-2.99-1.026-3.82-.69-.828-1.538-1.244-2.558-1.244-1.056 0-1.935.408-2.63 1.224-.695.815-1.042 2.024-1.042 3.62M374.522 171.64l-3.926-.71c.436-1.578 1.202-2.75 2.275-3.51 1.08-.758 2.683-1.14 4.805-1.14 1.927 0 3.365.23 4.31.685s1.608 1.037 1.997 1.742c.377.702.572 1.995.572 3.87l-.04 5.048c0 1.438.064 2.496.205 3.177.134.687.394 1.41.777 2.195h-4.28c-.117-.286-.253-.713-.418-1.28a9.54 9.54 0 0 0-.154-.506c-.737.72-1.527 1.26-2.375 1.616a6.745 6.745 0 0 1-2.687.536c-1.686 0-3.006-.454-3.978-1.367-.973-.908-1.456-2.066-1.456-3.46 0-.926.223-1.75.66-2.47a4.27 4.27 0 0 1 1.856-1.662c.796-.39 1.94-.725 3.442-1.014 2.016-.378 3.424-.732 4.202-1.06v-.432c0-.83-.206-1.423-.62-1.777-.412-.35-1.184-.533-2.32-.533-.773 0-1.374.156-1.804.46-.43.302-.778.832-1.044 1.592m5.788 3.506c-.56.183-1.432.407-2.635.663-1.202.255-1.986.51-2.352.753-.566.4-.85.91-.85 1.523 0 .604.225 1.13.68 1.568.447.445 1.024.663 1.72.663.778 0 1.526-.257 2.234-.77.525-.388.866-.865 1.03-1.43.113-.37.172-1.07.172-2.108v-.864zM394.533 182.997h-4.32v-16.344h4.014v2.322c.69-1.1 1.302-1.818 1.857-2.17.548-.35 1.173-.524 1.868-.524.984 0 1.934.272 2.847.817l-1.34 3.77c-.73-.472-1.402-.707-2.032-.707-.6 0-1.12.168-1.538.5-.418.334-.754.938-.996 1.81-.236.872-.36 2.7-.36 5.48v5.047zM407.465 171.64l-3.92-.71c.436-1.578 1.202-2.75 2.28-3.51 1.074-.758 2.677-1.14 4.8-1.14 1.926 0 3.364.23 4.308.685.95.454 1.61 1.037 1.998 1.742.384.702.573 1.995.573 3.87l-.047 5.048c0 1.438.077 2.496.212 3.177.136.687.395 1.41.772 2.195h-4.273c-.118-.286-.254-.713-.42-1.28a9.54 9.54 0 0 0-.152-.506c-.737.72-1.526 1.26-2.37 1.616a6.795 6.795 0 0 1-2.693.536c-1.686 0-3.012-.454-3.98-1.367-.966-.908-1.455-2.066-1.455-3.46 0-.926.224-1.75.666-2.47.436-.728 1.06-1.282 1.85-1.662.797-.39 1.94-.725 3.437-1.014 2.022-.378 3.43-.732 4.203-1.06v-.432c0-.83-.206-1.423-.613-1.777-.413-.35-1.185-.533-2.322-.533-.766 0-1.373.156-1.804.46-.43.302-.778.832-1.05 1.592m5.79 3.506c-.55.183-1.428.407-2.63.663-1.197.255-1.986.51-2.352.753-.572.4-.85.91-.85 1.523 0 .604.225 1.13.68 1.568.453.445 1.025.663 1.72.663.784 0 1.527-.257 2.234-.77.518-.388.866-.865 1.03-1.43.113-.37.166-1.07.166-2.108v-.864zM438.792 182.997V164.25h-6.696v-3.816h17.93v3.817h-6.678v18.747h-4.556zm15.608-22.563h4.556v22.563H454.4v-22.563z"/></svg>