<svg xmlns="http://www.w3.org/2000/svg" viewBox="0 0 400 117"><path d="M394.565 104.618c2.917 0 5.357 2.3 5.357 5.315 0 3.07-2.44 5.374-5.357 5.374-2.93 0-5.387-2.305-5.387-5.374 0-3.016 2.458-5.315 5.387-5.315zm0 9.905c2.475 0 4.388-1.97 4.388-4.59 0-2.556-1.913-4.53-4.388-4.53-2.502 0-4.418 1.975-4.418 4.53 0 2.62 1.916 4.59 4.418 4.59zm-2.086-7.69h2.41c1.49 0 2.19.585 2.19 1.788 0 1.124-.71 1.603-1.644 1.7l1.79 2.76h-1.047l-1.7-2.69h-1.03v2.69h-.972v-6.248zm.97 2.77h1.016c.858 0 1.642-.04 1.642-1.025 0-.83-.71-.957-1.37-.957h-1.288v1.984zm-4.114-74.98c1.975 0 3.13.656 3.13 2.804v11.62c0 1.98-1.316 3.136-3.302 3.136H370.04v58.48c0 2.97-1.316 4.125-4.29 4.125h-11.485c-2.972 0-4.288-1.154-4.288-4.125l-.004-58.48h-19.12c-1.984 0-3.305-1.156-3.305-3.135v-11.62c0-2.15 1.16-2.806 3.133-2.806h58.656zm-17.222-22.518C372.114 5.42 366.694 0 360.01 0c-6.683 0-12.103 5.42-12.103 12.105 0 6.685 5.42 12.1 12.102 12.1 6.684 0 12.104-5.415 12.104-12.1zM184.556 34.622c1.98 0 3.135.657 3.135 2.805v11.62c0 1.98-1.317 3.136-3.3 3.136h-19.126v58.48c0 2.97-1.32 4.125-4.292 4.125H149.49c-2.972 0-4.29-1.154-4.29-4.125v-58.48h-19.13c-1.978 0-3.298-1.156-3.298-3.135v-11.62c0-2.15 1.154-2.806 3.136-2.806h58.648zm-17.223-22.517c0-6.685-5.415-12.105-12.1-12.105-6.683 0-12.106 5.42-12.106 12.105 0 6.685 5.424 12.1 12.105 12.1 6.686 0 12.1-5.415 12.1-12.1zM108.52 114.79H96.64c-2.97 0-3.958-1.484-3.958-4.293V65.61c0-9.07-2.47-15.51-12.543-15.51-6.44 0-14.356 3.473-19.47 7.922v52.64c0 2.814-1.157 4.126-3.957 4.126h-12.05c-2.477 0-3.964-1.312-3.964-3.96V38.77c0-2.643 1.162-4.126 4.128-4.126h10.72c2.31 0 3.804.657 3.964 3.132l.163 4.405c7.597-6.102 17.168-9.565 26.74-9.565 18.482 0 26.07 11.55 26.07 29.536v48.347c0 2.81-.987 4.292-3.965 4.292zm184.974-76.872c0-1.975.997-3.296 2.972-3.296h13.96c1.982 0 3.137 1.156 3.137 3.296v72.746c0 2.97-1.322 4.125-4.13 4.125h-11.647c-2.962 0-4.292-1.155-4.292-4.126V37.918zM0 37.918c0-1.975.992-3.296 2.97-3.296h13.96c1.978 0 3.133 1.156 3.133 3.296v72.746c0 2.97-1.326 4.125-4.125 4.125H4.292c-2.96 0-4.292-1.155-4.292-4.126V37.918zm268.553 76.87H257.99c-2.146 0-3.79-1.153-3.952-3.295l-.168-4.13c-7.596 6.114-16.672 9.41-26.244 9.41-18.48 0-26.067-11.71-26.067-29.54v-48.81c0-2.806 1.648-3.797 4.28-3.797h11.557c2.643 0 4.13.82 4.13 3.798v45.34c0 9.08 2.31 15.348 12.214 15.348 6.262 0 14.19-3.46 19.14-7.917v-52.77c0-2.808 1.488-3.8 4.12-3.8h11.717c2.644 0 4.132.822 4.132 3.8v71.747c-.003 3.463-1 4.617-4.297 4.617z"/></svg>