<svg xmlns="http://www.w3.org/2000/svg" viewBox="0 0 791.5 268">
  <path d="M26 2C12.6 2 2 12.7 2 26v216c0 13.3 10.7 24 24 24h216c13.3 0 24-10.7 24-24v-98.7l26.3 64.5H315l45.2-111h-26.5l-30 81-29.6-81h-8v-71C266 13 255.3 2 242 2H26zM90 53.3c8.8 0 16.2 7 16.2 16S99 85 90.2 85c-8.8 0-16-6.8-16-15.8s7.2-16 16-16zm526.4 41c-33.8 0-59 26.2-59 58 0 31.5 25 57.2 58.6 57.2 34 0 59-26 59-57.7 0-31.7-24.8-57.4-58.6-57.4zm133.6 0c-17 0-27.3 9-34.4 19.5v-17h-25.3v110h25.3v-62c0-17.2 10.2-27.4 24.8-27.4 15 0 23.6 9.8 23.6 27v62.5h25.3v-70.2c0-25.7-14.4-42.4-39.3-42.4zm-294 .5c-22 0-39.2 12.7-39.2 33.6v.5c0 21 18 27.6 34.4 32.2 13 4 24.7 7 24.7 15.5v.4c0 7.4-6.2 12-17 12-7.3 0-15.2-2-23-5.6-2.3-1-14-5-24.2 9.3 13.7 10.8 31 16.3 46.5 16.3 23 0 41-11.4 41-34.6v-.4c0-20-18.2-27.2-34.3-32.2-13-4.2-25-7.5-25-15.5v-.4c0-6.5 5.8-11 15.6-11 4.8 0 10 1 15.7 3 .6 0 1 .3 1.6.5 4 1.3 14.7 3 23.7-11.2-11.7-7.7-26.7-12.5-40.5-12.5zm-83.5 2v110H398V97h-25.3zm143.2 0v110H541V97H516zm-331.6 1c15 0 27.2 10.5 27.2 31 0 5-.7 10.8-2.6 17.2l-7.6 27.3c-.7 2.8-1 5.2-1 7.3 0 4.8 1.8 7.2 5.3 7.2 3.6 0 8-2.7 13.3-17l10.4 4c-6 21.5-17.3 30.5-31.3 30.5-16.2 0-24-9.7-24-23 0-3.8.4-7.8 1.6-12l7.8-27.8c1-3 1.2-6 1.2-8.6 0-9-5.4-14.6-14.2-14.6-11.2 0-18.5 8-22.3 23.5l-15 60.7h-26.7l4.8-19c-7.7 12.7-18.5 20.7-32 20.7-16 0-23.6-9.3-23.6-23.3 0-3.5.4-7.8 1.4-11.8l12-49.5H50.3l5.6-21h45l-17.7 70.6c-1 4.5-1.5 8.3-1.5 11 0 4.4 2.2 5.7 5.7 6.5 2 .5 19 0 28-20.3l11.8-46.8h-19l5.7-21h40.5l-5.2 24c7-13.4 21.4-26 35.4-26zm431.8 18.7c19.8 0 33.8 16 33.8 35.7 0 19.5-13 35.3-33.4 35.3-19.6 0-33.6-16-33.6-35.7 0-19.4 13-35.3 33.2-35.3z" style="fill-rule:evenodd;stroke:none;stroke-width:1"/>
</svg>
