<svg xmlns="http://www.w3.org/2000/svg" viewBox="0 0 247.1 292.5"><path d="M205.3 124.9h.1a145.89 145.89 0 0 1-36.9-66.06s-.1.1-.2.1l-1.4-5.23c-3.8 22.65 1 49.19 16.1 74.99-26.5-36.52-32.8-74.99-24.4-103.91-1.9-4.71-10.8-13.47-35.1-13.47-26.91 0-33.03 10.36-34.54 14.13L77.75 64.3h-.1c-7.07 24.21-20.44 46.6-39.28 64.5.1 0 .1 0 .19.1l-2.17 2.2c24.77-9.5 47-32.42 59.15-65.76-13.56 53.06-48.69 85.06-82.67 90.16-3.104 4.1-6.44 16.2 5.92 37.4 13.58 23.2 25.7 23.2 29.66 22.6l38.43-9.6c23.92-6.5 49.62-7 74.52-.6l2.2.4c-22.2-16.3-55.4-21.9-91.22-11.6 54.82-21.7 104.42-8.9 126.52 19.8l.7.2c4.7.8 17.3-2.2 29.5-24.4 13-23.6 6.8-34 4.2-37.1l-28-27.9zm-31.4 129.2v4.6h-1.3v-4.6h-1.4V253h4.1v1.1h-1.4zm6.2 4.6v-3.5l-.1.4-1.4 3.3-1.5-3.3-.1-.4v3.5h-1.3V253h1.6l1.1 2.7.1.2.2-.2 1.1-2.7h1.6v5.7h-1.3zm-20.6 22.6l-2.1-5.5h-10.2l-2 5.5h-5.5l10.2-26.4h4.9l10.1 26.4h-5.4zm-6.3-17q-.2-.6-.5-1.2-.2-.7-.4-1.3-.2.6-.4 1.3l-.4 1.2-2.7 6.8h6.9l-2.5-6.8zm-42.6 17v-26.4h11.3q2.5 0 4.2.7 1.7.7 2.8 1.9 1.1 1.2 1.6 2.7.4 1.5.4 3 0 .9-.2 2-.2.9-.7 1.8-.5 1-1.1 1.7-.8.9-1.8 1.6-1 .5-2.3.9-1.3.3-2.9.3h-6.2v9.8h-5.1zm11.6-14.6q.9 0 1.6-.3.6-.4 1-.9.5-.4.7-1.1.2-.6.2-1.2t-.2-1.1q-.2-.7-.6-1.3-.4-.4-1-.8-.8-.3-1.7-.3h-6.5v7h6.5zm-32.96 14.6v-26.4h5.09v26.4h-5.09z"/></svg>