<svg xmlns="http://www.w3.org/2000/svg" viewBox="58 0 484 200"><path d="M524.177 121.722h-17.11c1.987-7.634.676-15.3.994-22.9.05-1.137-.58-1.706-1.82-1.896-6.055-.943-7.11-.184-6.96 5.95.154 6.174-.942 12.453 1.446 18.73h-16.97c1.875-7.572.673-15.258.927-22.876.04-1.174-.68-1.82-1.913-1.782-.446.014-.893 0-1.333-.008-5.55-.08-5.68-.078-5.52 5.37.187 6.397-.996 12.9 1.442 19.35h-16.714c1.063-10.28 1.317-20.564-.212-31.17 4.078 0 8.468.032 12.852-.018 1.894-.022 1.567 1.495 2.036 2.84 1.244-2.293 3.107-2.94 5.472-2.867 4.11.128 8.225.064 12.337.022 2.224-.022 4.17.466 5.51 2.41 1.32-1.467 2.727-2.558 4.94-2.438 3.215.166 6.445-.012 9.666.05 6.047.116 8.967 2.833 9.26 8.98.254 5.322.117 10.666.248 16 .048 2.085.483 4.138 1.423 6.252zM409.533 94.07c-6.406-2.127-12.964-1.16-19.446-1.215-2.13-.014-3.2 1.3-3.2 3.445.004 4.89.023 9.78-.007 14.668-.017 2.326 1.077 3.548 3.392 3.587 6.298.11 12.635.714 18.88-1.32.06.316.203.623.165.908-1.032 7.715-1.038 7.715-8.987 7.715-7 0-14.004.045-21.005-.01-7.188-.057-10.847-3.744-10.914-10.934-.044-4.67-.02-9.338-.002-14.004.028-7.65 3.606-11.285 11.182-11.307 8.557-.025 17.12.112 25.67-.075 2.61-.06 3.677.837 3.705 3.266.02 1.757 1.06 3.408.568 5.277zM287.81 85.597c5.6 0 11.697.022 17.788-.017 1.386-.006 1.668.714 1.668 1.88-.017 10.79-.033 21.576.017 32.368.008 1.648-.672 2.067-2.19 2.05-5.884-.056-11.772-.022-17.406-.022 1.863-12.133 1.673-24.065.122-36.26zM298.296 72.35c1.113 0 2.223-.006 3.336 0 4.605.013 5.576 1.13 5.378 5.795-.1 2.446-1.286 3.8-3.632 3.883-3.55.13-7.115.145-10.666.01-3.247-.122-3.838-2.353-3.782-5.12.05-2.76 1.046-4.51 4.033-4.563 1.777-.034 3.554-.006 5.333-.006zM211.523 92.966c0-8.454.017-16.91-.008-25.365-.01-3.865-.848-4.696-4.714-4.7-15.35-.013-30.702-.013-46.056 0-3.868.004-4.69.852-4.736 4.678-.008.887-.008 1.78-.003 2.672.042 3.846 1.037 4.853 4.998 4.864 7.9.028 15.798.005 23.696.01 4.445.007 5.346.87 5.35 5.166.007 12.797-.085 25.593.072 38.384.033 2.717-.817 3.286-3.347 3.238-8.345-.153-16.687-.11-25.032-.017-1.82.02-3.174-.522-4.432-1.77-17.283-17.193-23.39-37.766-16.254-61.03 7.257-23.67 23.975-37.97 48.587-41.472 37.72-5.372 69.87 24.58 67.66 62.61-.922 15.87-7.507 29.306-19.23 40.165-1.155 1.07-2.32 1.495-3.866 1.484-6.563-.06-13.13-.165-19.686.04-2.665.083-3.084-.91-3.05-3.26.13-8.56.053-17.128.053-25.696zm-.01-62.387c-.03-2.436-1.32-3.696-3.727-3.716-4.55-.036-9.095-.01-13.645-.01-2.568 0-3.982 1.366-4.04 3.854-.106 4.546-.1 9.098-.01 13.644.046 2.488 1.477 3.913 4 3.944 4.545.056 9.097.075 13.643-.017 2.527-.048 3.818-1.48 3.793-4.056-.025-2.215-.005-4.435-.008-6.655-.003-2.33.02-4.66-.006-6.99zM114.657 158.466c17.686 0 35.37-.028 53.052.04 1.896.01 3.137-.96 4.423-1.976 11.24-8.892 22.58-17.664 33.634-26.784 4.627-3.818 9.62-1.955 14.858-2.57-.64 2.27-3.023 2.51-3.464 4.68h23.084c-2.527 4.213-6.7 6.064-9.344 10.03h11.717c-.803 2.63-2.954 3.42-4.36 4.846-5.232 5.302-10.632 10.445-15.84 15.772-1.456 1.492-2.937 2.017-4.98 2.01-12.344-.03-12.422-.07-21.523 8.567-2.998 2.846-6.01 4.36-10.317 4.118-6.65-.38-13.35.128-20.01-.115-3.78-.137-7.01.572-9.686 3.294-2.83 2.88-6.208 3.587-10.232 3.545-18.018-.204-36.038-.087-54.06-.087h-3.18l-.178-.63 14.62-9.338c-.05-.206-.105-.413-.158-.617H81.75c-.068-.226-.132-.454-.196-.68l12.797-7.907H75.26c-.065-.24-.127-.477-.19-.72 6.56-3.826 13.12-7.658 19.68-11.48 4.13-2.41 8.36-4.65 12.37-7.245 3.873-2.505 7.895-3.927 12.54-3.297 4.406.6 8.347-.523 11.79-3.343 6.774-5.553 14.452-7.874 23.193-6.697 1.746.234 3.57-.134 5.327.067 4.424.497 8.345-.42 11.664-3.514 1.032-.957 2.326-1.216 3.715-1.2 2.877.028 5.76.006 8.65.006.277 1.304-.763 1.608-1.405 2.07-9.014 6.492-18.08 12.92-27.068 19.45-1.623 1.177-3.255 1.685-5.24 1.66-6.343-.08-12.69.117-19.023-.09-3.503-.114-6.504.634-9.324 2.73-2.376 1.767-4.987 3.217-7.494 4.804l.21.602zm45.482 6.086c-8.932 0-17.865-.005-26.8.01-.423.004-.914.09-1.26.313-5.877 3.87-11.734 7.765-17.594 11.653 8.5.564 16.782.396 25.046.647 3.453.103 6.192-.848 8.828-2.912 3.952-3.1 8.036-6.027 12.07-9.025-.095-.228-.193-.457-.29-.686z"/><path d="M331.816 88.96c1.84-3.09 3.877-3.43 6.253-3.368 5.11.134 10.224-.003 15.334.056 6.036.073 9.952 3.657 10.152 9.59.19 5.66.193 11.337-.003 16.996-.198 5.762-4.052 9.42-9.882 9.55-5.332.12-10.668-.022-16 .06-1.696.03-2.976-.657-4.49-1.985.074 2.108-1.21 3.114-2.408 4.18-1.328 1.177-3.02 2.133-3.91 3.584-2.863 4.658-7.083 5.196-11.955 4.797-3.592-.29-7.227-.055-11.385-.055 2.834-3.49 5.852-5.89 8.755-8.384 1.57-1.35 2.16-2.84 2.134-4.913-.105-9.667.012-19.334-.105-29-.056-4.436-.217-4.433 4.282-4.433 3.224 0 6.448.075 9.667-.03 1.878-.062 3.322.23 3.562 3.357zm13.265 14.79c0-.776.012-1.552 0-2.327-.138-9.795 1.41-8.373-8.723-8.557-2.446-.045-3.42.998-3.386 3.347.05 3.322-.01 6.644.015 9.966.075 9.493-1.23 8.305 8.953 8.37.11 0 .22-.006.332-.006 1.936.056 2.836-.887 2.81-2.823-.035-2.654-.01-5.315-.01-7.97h.01zM435.438 121.856c-4.337 0-8.674.05-13.01-.01-5.6-.085-7.993-2.333-8.132-7.85a306.8 306.8 0 0 1 .01-15.674c.135-4.937 2.115-7.447 6.996-7.614 9.433-.335 18.894-.324 28.332-.04 4.722.146 6.6 2.16 7.05 6.85.576 5.973.668 12-.083 17.963-.546 4.352-2.732 6.21-7.156 6.33-4.664.125-9.338.024-14.007.024v.022zm5.623-17.254c-.105-8.87 1.156-7.49-7.825-7.692-2.28-.053-3.252.72-3.163 3.046.106 2.873.022 5.757.022 8.635 0 7.62 0 7.57 7.768 7.18 2.187-.112 3.294-.91 3.213-3.197-.075-2.1-.014-4.206-.014-6.31 0-.553.007-1.108 0-1.66z"/></svg>