<svg xmlns="http://www.w3.org/2000/svg" viewBox="0 0 600 200"><path d="M201.343 114.12c4.12-3.185 3.84-7.138 4.72-10.46 4.477-16.853 8.706-33.77 13.04-50.66 1.55-6.036 10.883-9.855 16.436-6.867 2.374 1.278.933 2.798.536 4.234-6.694 24.113-13.42 48.218-20.127 72.328-1.853 6.66-6.483 9.783-13.112 9.687-6.987-.102-11.45-3.574-13.328-10.62-4.706-17.654-9.697-35.233-14.545-52.85-.442-1.602-.418-3.398-3.2-4.7-4.642 16.74-9.294 33.285-13.807 49.87-4.05 14.883-7.125 18.646-15.89 18.326-11.73-.43-12.924-9.76-15.232-18.226-5.473-20.084-11.168-40.108-16.475-60.234-.636-2.416-4.968-7.293 1.245-7.596 4.615-.225 11.76-4.43 14.03 4.374 4.496 17.435 8.997 34.868 13.522 52.296.9 3.462 1.915 6.895 3.1 11.143 2.875-1.796 3.183-3.877 3.73-5.896 4.43-16.285 9.033-32.52 13.31-48.844 1.933-7.378 3.58-14.352 13.487-14.312 10 .04 11.435 7.418 13.37 14.57 4.117 15.208 8.2 30.424 12.35 45.62.775 2.822 1.79 5.58 2.84 8.815zM47.978 112.267c-.002-10.977-.102-21.955.03-32.93.108-9.01 3.235-12.17 12.192-12.334 8.16-.15 16.33-.198 24.484.04 13.29.39 21.974 7.722 23.52 20.725.856 7.203.856 14.69-.064 21.882-1.86 14.552-10.393 21.567-25.18 21.913-1.407.032-2.815.008-4.222.012-14.865.024-15.205.012-15.74 14.985-.226 6.37-3.935 5.41-7.84 5.6-4.46.22-7.508-.213-7.298-6.12.404-11.246.12-22.514.118-33.773zm14.88-12.698c0 5.05-.02 10.102.008 15.154.014 2.55-.02 4.696 3.553 5.478 18.98 4.16 27.28-2.297 27.26-21.576 0-1.403.026-2.807-.023-4.208-.474-13.448-5.246-16.587-22.195-16.93-13.585-.276-7.2 9.507-8.537 15.366-.487 2.13-.077 4.47-.067 6.715zM451.58 131.483c-5.917 0-11.853.284-17.75-.063-10.46-.616-16.556-5.834-18.93-16.07-2.318-10.007-2.042-20.11-.387-30.198.227-1.386.532-2.775.953-4.115 4.757-15.116 24.518-16.92 44.53-13.28 11.69 2.127 17.865 13.527 16.005 26.92-.876 6.317-4.42 9.508-10.773 9.53-9.302.03-18.618-.284-27.897.19-2.903.15-8.124-3.194-8.66 2.963-.527 6.044 1.38 11.644 8.448 12.482 6.4.758 12.928.486 19.4.598 4.227.073 8.468.218 12.68-.04 4.352-.263 5.066 1.924 5.056 5.647-.01 3.618-.394 5.874-4.92 5.614-5.9-.34-11.834-.082-17.754-.082v-.095zm-7.692-38.635c3.365 0 6.74.157 10.09-.054 2.324-.147 5.467 1.27 6.68-1.816 1.194-3.04.182-6.077-1.807-8.66-5.39-6.994-22.69-6.82-28.138.223-2.035 2.632-2.92 5.77-1.888 8.69 1.09 3.09 4.368 1.318 6.656 1.552 2.778.28 5.605.066 8.408.066zM305.448 99.4c-.124 24.31-9.663 33.28-35.178 33.083-24.442-.188-34.14-9.853-33.812-33.687.337-24.408 9.66-33.135 35.29-33.035 24.626.098 33.824 9.28 33.7 33.64zm-14.813-1.58c-.15-6.425.12-14.502-8.53-18.87-15.383-7.77-30.235.768-30.8 17.808-.112 3.34-.024 6.76.567 10.037 1.76 9.74 6.707 13.93 16.61 14.542 15.76.975 22.087-5.317 22.153-23.516zM547.635 131.574c-6.48 0-12.978-.29-19.434.098-4.617.278-4.847-2.026-4.82-5.57.025-3.52.26-5.862 4.845-5.733 9.853.277 19.72.092 29.58.07 3.484-.008 7.052-.19 7.843-4.58.81-4.5-1.877-6.765-5.81-7.91-8.097-2.355-16.314-4.35-24.284-7.073-10.508-3.59-14.41-10.958-12.43-21.738 1.355-7.394 5.704-11.702 13.112-11.94 12.382-.395 24.787-.087 37.172-.402 4.207-.107 4.413 2 4.337 5.165-.076 3.19.428 6.032-4.52 5.844-9.284-.35-18.59-.135-27.888-.08-3.662.02-7.64-.226-8.434 4.808-.8 5.065 2.52 7.047 6.558 8.28 8.328 2.543 16.804 4.652 24.998 7.564 10.89 3.87 15.292 14.732 10.62 25.257-2.27 5.114-6.46 7.73-12.004 7.855-6.477.146-12.96.034-19.438.034v.048zM484.064 108.046c0-7.03-.535-14.108.117-21.078 1.194-12.774 7.944-18.93 20.8-19.868 3.365-.245 6.765-.007 10.128-.26 3.61-.274 5.185.998 4.808 4.764-.295 2.94.8 5.788-4.247 6.26-15.178 1.413-17.51 4.345-17.536 19.55-.015 9.296-.506 18.628.168 27.875.48 6.6-2.934 6.24-7.505 6.405-5.118.185-7.882-.723-7.29-6.76.544-5.58.116-11.256.116-16.89h.44zM313.582 107.202c0-6.182-.266-12.38.05-18.545.837-16.255 18.523-27.513 33.777-21.745 3.59 1.358 1.63 4.244 1.98 6.43.367 2.27.157 3.936-3.197 4.496-17.115 2.858-18.13 4.244-18.138 21.427-.005 8.713-.504 17.464.16 26.126.524 6.86-3.372 6.177-7.754 6.255-4.27.078-7.658.27-7.048-5.905.604-6.123.132-12.353.132-18.537h.038zM368.066 88.986c0 12.39-.308 24.792.137 37.167.205 5.707-2.72 5.757-6.697 5.43-3.545-.294-7.846 1.672-7.752-5.213.34-24.777.327-49.562-.01-74.34-.08-5.91 2.624-6.256 7.13-6.148 4.206.102 7.56-.237 7.33 5.94-.46 12.372-.136 24.774-.138 37.164z"/><path d="M411.852 68.07c-6.43 6.93-12.85 13.872-19.294 20.793-7.708 8.28-7.7 9.494.257 17.895 7.334 7.742 14.674 15.476 22.834 24.08-9.073 1.04-16.733 2.742-22.848-5.795-4.38-6.113-10.34-11.075-15.43-16.7-6.56-7.25-6.706-12.786-.41-20.096 5.317-6.17 11.017-12.01 16.368-18.154 5.384-6.18 12.028-1.733 18.522-2.024zM24.07 98.378c-.003-8.706.35-17.433-.12-26.114-.34-6.235 3.3-5.84 7.427-5.85 4.24-.013 7.652-.038 7.557 5.99-.283 17.97-.26 35.95-.024 53.923.088 6.665-4.368 5.026-8.024 5.243-3.87.23-7.16.318-6.92-5.392.388-9.25.105-18.53.103-27.8zM31.366 45.772c4.26-.39 7.582-.413 7.654 5.72.076 6.555-3.597 6.255-8.104 6.41-4.705.16-7.09-.67-7.05-6.343.04-6.074 3.234-6.22 7.5-5.788z"/></svg>