<svg xmlns="http://www.w3.org/2000/svg" viewBox="-218 23.7 841.9 595.3"><path class="st0" d="M58.3 375.2h4l-5.6 29.3H70l-.7 3.5H52.1l6.2-32.8zM73.5 408.1l4.5-23.6h4l-4.5 23.6h-4zm14.3-33.5l-6.5 7h-3.1l4.8-7h4.8zM109.7 373.5l-5.2 27.1c-.4 2.4-.8 5.2-1 7.5h-3.7l.6-4.7h-.1c-2.1 3.4-5.1 5.2-8.5 5.2-4.5 0-7-3.8-7-8.6 0-8.4 6.2-16.1 14.6-16.1 1.5 0 3.2.3 4.2.8l2.1-11.3h4v.1zm-6.8 14.7c-.8-.6-2.1-1-3.8-1-5.7 0-10 6-10 12.3 0 2.8 1 5.8 4.4 5.8 3.1 0 6.9-3.6 7.9-8.9l1.5-8.2zM127.2 406.7c-1.8 1-4.6 1.9-7.8 1.9-6.2 0-9-4.3-9-9.5 0-7.1 5.3-15.1 12.9-15.1 4.5 0 6.9 2.7 6.9 6.1 0 6.2-7 7.8-15.7 7.6-.2 1 0 3.2.5 4.5.9 2.1 2.8 3.2 5.3 3.2 2.8 0 4.9-.8 6.3-1.6l.6 2.9zm-.9-16.6c0-1.9-1.5-3-3.6-3-3.8 0-6.7 3.8-7.7 7.5 6.3.1 11.3-.8 11.3-4.5zM132.3 408.1l2.9-15.2c.6-3.1.9-6.2 1.2-8.4h3.6c-.1 1.7-.3 3.3-.6 5.1h.1c1.6-3.2 4-5.7 7.2-5.7.4 0 .8 0 1.2.1l-.8 4c-.3 0-.7-.1-1.1-.1-3.5 0-6.6 4.2-7.6 9.7l-1.9 10.4h-4.2v.1zM173.6 406.7c-1.8 1-4.6 1.9-7.8 1.9-6.2 0-9-4.3-9-9.5 0-7.1 5.3-15.1 12.9-15.1 4.5 0 6.9 2.7 6.9 6.1 0 6.2-7 7.8-15.7 7.6-.2 1 0 3.2.5 4.5.9 2.1 2.8 3.2 5.3 3.2 2.8 0 4.9-.8 6.3-1.6l.6 2.9zm-.9-16.6c0-1.9-1.5-3-3.6-3-3.8 0-6.7 3.8-7.7 7.5 6.4.1 11.3-.8 11.3-4.5zM178.7 408.1l3.1-16.7c.5-2.6.9-4.9 1.1-6.9h3.7l-.6 4.6h.1c2.1-3.3 5.3-5.2 8.8-5.2 2.8 0 5.9 1.6 5.9 6.5 0 1.1-.2 2.6-.4 3.8l-2.6 13.8h-4l2.6-13.6c.1-.9.3-2 .3-3 0-2.3-.9-4.1-3.7-4.1-2.9 0-7 3.5-8 9.3l-2.1 11.4h-4.2v.1zM229.7 407.1c-1.2.6-3.7 1.5-6.8 1.5-6.1 0-9.1-4.1-9.1-9.1 0-8.1 5.9-15.5 14.4-15.5 2.2 0 4.2.6 4.9 1.1l-1.2 3.2c-.9-.4-2.2-.9-4-.9-6.1 0-10 6-10 11.6 0 3.8 2 6.3 5.8 6.3 2.4 0 4.2-.7 5.5-1.3l.5 3.1zM250.7 406.7c-1.8 1-4.6 1.9-7.8 1.9-6.2 0-9-4.3-9-9.5 0-7.1 5.3-15.1 12.9-15.1 4.5 0 6.9 2.7 6.9 6.1 0 6.2-7 7.8-15.7 7.6-.2 1 0 3.2.5 4.5.9 2.1 2.8 3.2 5.3 3.2 2.8 0 4.9-.8 6.3-1.6l.6 2.9zm-.9-16.6c0-1.9-1.5-3-3.6-3-3.8 0-6.7 3.8-7.7 7.5 6.3.1 11.3-.8 11.3-4.5zM255.7 408.1l2.9-15.2c.6-3.1.9-6.2 1.2-8.4h3.6c-.1 1.7-.3 3.3-.6 5.1h.1c1.6-3.2 4-5.7 7.2-5.7.4 0 .8 0 1.2.1l-.8 4c-.3 0-.7-.1-1.1-.1-3.5 0-6.6 4.2-7.6 9.7l-1.9 10.4h-4.2v.1zM282.6 378.8l-1.1 5.7h5.7l-.6 3.2H281l-2.1 11.5c-.3 1.3-.5 2.5-.5 3.8 0 1.4.7 2.3 2.2 2.3.7 0 1.4 0 1.9-.2l-.2 3.2c-.7.3-1.9.4-3.1.4-3.6 0-5-2.1-5-4.6 0-1.4.2-2.7.5-4.4l2.3-11.9h-3.4l.6-3.2h3.4l.8-4.3 4.2-1.5zM287.4 408.1l4.5-23.6h4l-4.5 23.6h-4zm7.5-27.9c-1.4 0-2.4-1.1-2.4-2.6 0-1.6 1.3-2.9 2.8-2.9s2.5 1.1 2.5 2.6c0 1.7-1.2 2.9-2.9 2.9zM299.1 408.1l3.8-20.4h-3.1l.6-3.2h3.2l.2-1.3c.6-3.3 1.8-6.3 3.8-8.2 1.5-1.4 3.6-2.1 5.6-2.1 1.7 0 2.7.3 3.3.6l-.9 3.2c-.6-.3-1.5-.4-2.4-.4-3.2 0-4.8 3.1-5.5 7l-.2 1.1h5.3l-.6 3.2H307l-3.8 20.4-4.1.1zM312.3 408.1l4.5-23.6h4l-4.5 23.6h-4zm7.6-27.9c-1.4 0-2.4-1.1-2.4-2.6 0-1.6 1.3-2.9 2.8-2.9s2.5 1.1 2.5 2.6c-.1 1.7-1.3 2.9-2.9 2.9zM339.6 407.1c-1.2.6-3.7 1.5-6.8 1.5-6.1 0-9.1-4.1-9.1-9.1 0-8.1 5.9-15.5 14.4-15.5 2.2 0 4.2.6 4.9 1.1l-1.2 3.2c-.9-.4-2.2-.9-4-.9-6.1 0-10 6-10 11.6 0 3.8 2 6.3 5.8 6.3 2.4 0 4.2-.7 5.5-1.3l.5 3.1zM359 408.1c0-1.4.2-3.7.5-6.1h-.1c-2.6 4.9-5.8 6.6-9.2 6.6-4.2 0-6.8-3.3-6.8-7.8 0-8.2 6-16.9 16.3-16.9 2.2 0 4.7.4 6.3.9l-2.4 12.3c-.8 4.1-1.1 8.3-1 10.9H359v.1zm2.6-20.6c-.6-.2-1.4-.3-2.8-.3-6.1 0-11.1 6.3-11.1 12.9 0 2.6.9 5.2 4 5.2 3.4 0 7.4-4.4 8.5-10.7l1.4-7.1zM384.9 407.1c-1.2.6-3.7 1.5-6.8 1.5-6.1 0-9.1-4.1-9.1-9.1 0-8.1 5.9-15.5 14.4-15.5 2.2 0 4.2.6 4.9 1.1l-1.2 3.2c-.9-.4-2.2-.9-4-.9-6.1 0-10 6-10 11.6 0 3.8 2 6.3 5.8 6.3 2.4 0 4.2-.7 5.5-1.3l.5 3.1zM389.4 408.1l4.5-23.6h4l-4.5 23.6h-4zm7.5-27.9c-1.4 0-2.4-1.1-2.4-2.6 0-1.6 1.3-2.9 2.8-2.9s2.5 1.1 2.5 2.6c0 1.7-1.2 2.9-2.9 2.9zM410 408.6c-5.9 0-9.2-4.4-9.2-9.7 0-7.8 5.4-15 13.1-15 6.4 0 9.3 4.8 9.3 9.8-.1 7.3-5.2 14.9-13.2 14.9zm.5-3.2c4.8 0 8.4-6.1 8.4-11.6 0-2.7-1.3-6.6-5.5-6.6-5.1 0-8.4 6.2-8.4 11.6 0 3.8 2.1 6.6 5.5 6.6zm11.4-30.8l-6.5 7h-3.1l4.8-7h4.8zM426 408.1l3.1-16.7c.5-2.6.9-4.9 1.1-6.9h3.7l-.6 4.6h.1c2.1-3.3 5.3-5.2 8.8-5.2 2.8 0 5.9 1.6 5.9 6.5 0 1.1-.2 2.6-.4 3.8l-2.7 13.9h-4l2.6-13.6c.1-.9.3-2 .3-3 0-2.3-.9-4.1-3.7-4.1-2.9 0-7 3.5-8 9.3l-2.2 11.4h-4zM154.1 422.2l-5.2 27.1c-.4 2.4-.8 5.2-1 7.5h-3.7l.6-4.7h-.1c-2.1 3.4-5.1 5.2-8.5 5.2-4.5 0-7-3.8-7-8.6 0-8.4 6.2-16.1 14.6-16.1 1.5 0 3.2.3 4.2.8l2.1-11.3h4v.1zm-6.8 14.7c-.8-.6-2.1-1-3.8-1-5.7 0-10 6-10 12.3 0 2.8 1 5.8 4.4 5.8 3.1 0 6.9-3.6 7.9-8.9l1.5-8.2zM171.6 455.5c-1.8 1-4.6 1.9-7.8 1.9-6.2 0-9-4.3-9-9.5 0-7.1 5.3-15.1 12.9-15.1 4.5 0 6.9 2.7 6.9 6.1 0 6.2-7 7.8-15.7 7.6-.2 1 0 3.2.5 4.5.9 2.1 2.8 3.2 5.3 3.2 2.8 0 4.9-.8 6.3-1.6l.6 2.9zm-.9-16.7c0-1.9-1.5-3-3.6-3-3.8 0-6.7 3.8-7.7 7.5 6.3.1 11.3-.8 11.3-4.5zM183.4 466.4l4.7-24.8c.5-2.8 1-6 1.3-8.4h3.7l-.6 4.5h.1c2.1-3.1 5.2-5 8.5-5 5.1 0 7.2 4.2 7.2 8.5 0 8.3-5.9 16.1-13.8 16.1-2.5 0-4.1-.5-5.1-1.1h-.1l-1.9 10.2h-4zm6.6-13.6c1.1.8 2.6 1.3 4.5 1.3 5.2 0 9.5-6.5 9.5-12.7 0-2.5-1.1-5.5-4.5-5.5-3.2 0-7.1 3.6-8.3 10.2l-1.2 6.7zM211.2 456.8l2.9-15.2c.6-3.1.9-6.2 1.2-8.4h3.6c-.1 1.7-.3 3.3-.6 5.1h.1c1.6-3.2 4-5.7 7.2-5.7.4 0 .8 0 1.2.1l-.8 4c-.3 0-.7-.1-1.1-.1-3.5 0-6.6 4.2-7.6 9.7l-1.9 10.4h-4.2v.1zM235.9 457.3c-5.9 0-9.2-4.4-9.2-9.7 0-7.8 5.4-15 13.1-15 6.4 0 9.3 4.8 9.3 9.8-.1 7.4-5.3 14.9-13.2 14.9zm.5-3.2c4.8 0 8.4-6.1 8.4-11.6 0-2.7-1.3-6.6-5.5-6.6-5.1 0-8.4 6.2-8.4 11.6-.1 3.8 2.1 6.6 5.5 6.6zM252.4 456.8l3.8-20.4h-3.1l.6-3.2h3.2l.2-1.3c.6-3.3 1.8-6.3 3.8-8.2 1.5-1.4 3.6-2.1 5.6-2.1 1.7 0 2.7.3 3.3.6l-.9 3.2c-.6-.3-1.5-.4-2.4-.4-3.2 0-4.8 3.1-5.5 7l-.2 1.1h5.3l-.6 3.2h-5.2l-3.8 20.4-4.1.1zM282.6 455.5c-1.8 1-4.6 1.9-7.8 1.9-6.2 0-9-4.3-9-9.5 0-7.1 5.3-15.1 12.9-15.1 4.5 0 6.9 2.7 6.9 6.1 0 6.2-7 7.8-15.7 7.6-.2 1 0 3.2.5 4.5.9 2.1 2.8 3.2 5.3 3.2 2.8 0 4.9-.8 6.3-1.6l.6 2.9zm-.9-16.7c0-1.9-1.5-3-3.6-3-3.8 0-6.7 3.8-7.7 7.5 6.3.1 11.3-.8 11.3-4.5zM287.9 452.7c1.1.7 3.1 1.5 5.1 1.5 2.7 0 4.5-1.8 4.5-3.8 0-1.9-.8-3-3.3-4.4-2.7-1.5-4.2-3.6-4.2-6 0-4.1 3.6-7.3 8.6-7.3 2.1 0 4 .6 4.9 1.2l-1.1 3.1c-.8-.5-2.3-1.1-4-1.1-2.5 0-4.2 1.6-4.2 3.6 0 1.7 1.1 2.8 3.3 3.9 2.6 1.5 4.4 3.6 4.4 6.2 0 5-4 7.7-9 7.7-2.5 0-4.8-.8-5.8-1.6l.8-3zM305.8 456.8l4.5-23.6h4l-4.5 23.6h-4zm7.5-27.9c-1.4 0-2.4-1.1-2.4-2.6 0-1.6 1.3-2.9 2.8-2.9s2.5 1.1 2.5 2.6c0 1.7-1.2 2.9-2.9 2.9zM326.4 457.3c-5.9 0-9.2-4.4-9.2-9.7 0-7.8 5.4-15 13.1-15 6.4 0 9.3 4.8 9.3 9.8-.1 7.4-5.2 14.9-13.2 14.9zm.5-3.2c4.8 0 8.4-6.1 8.4-11.6 0-2.7-1.3-6.6-5.5-6.6-5.1 0-8.4 6.2-8.4 11.6 0 3.8 2.1 6.6 5.5 6.6zM342.4 456.8l3.1-16.7c.5-2.6.9-4.9 1.1-6.9h3.7l-.6 4.6h.1c2.1-3.3 5.3-5.2 8.8-5.2 2.8 0 5.9 1.6 5.9 6.5 0 1.1-.2 2.6-.4 3.8l-2.6 13.8h-4l2.5-13.6c.1-.9.3-2 .3-3 0-2.3-.9-4.1-3.7-4.1-2.9 0-7 3.5-8 9.3l-2.1 11.4h-4.1v.1zM384.1 456.8c0-1.4.2-3.7.5-6.1h-.1c-2.6 4.9-5.8 6.6-9.2 6.6-4.2 0-6.8-3.3-6.8-7.8 0-8.2 6-16.9 16.3-16.9 2.2 0 4.7.4 6.3.9l-2.4 12.3c-.8 4.1-1.1 8.3-1 10.9h-3.6v.1zm2.5-20.6c-.6-.2-1.4-.3-2.8-.3-6.1 0-11.1 6.3-11.1 12.9 0 2.6.9 5.2 4 5.2 3.4 0 7.4-4.4 8.5-10.7l1.4-7.1zM393.9 456.8l6.6-34.6h4l-6.6 34.6h-4zM422 455.5c-1.8 1-4.6 1.9-7.8 1.9-6.2 0-9-4.3-9-9.5 0-7.1 5.3-15.1 12.9-15.1 4.5 0 6.9 2.7 6.9 6.1 0 6.2-7 7.8-15.7 7.6-.2 1 0 3.2.5 4.5.9 2.1 2.8 3.2 5.3 3.2 2.8 0 4.9-.8 6.3-1.6l.6 2.9zm-.9-16.7c0-1.9-1.5-3-3.6-3-3.8 0-6.7 3.8-7.7 7.5 6.3.1 11.3-.8 11.3-4.5zM427.3 452.7c1.1.7 3.1 1.5 5.1 1.5 2.7 0 4.5-1.8 4.5-3.8 0-1.9-.8-3-3.3-4.4-2.7-1.5-4.2-3.6-4.2-6 0-4.1 3.6-7.3 8.6-7.3 2.1 0 4 .6 4.9 1.2l-1.1 3.1c-.8-.5-2.3-1.1-4-1.1-2.5 0-4.2 1.6-4.2 3.6 0 1.7 1.1 2.8 3.3 3.9 2.6 1.5 4.4 3.6 4.4 6.2 0 5-4 7.7-9 7.7-2.5 0-4.8-.8-5.8-1.6l.8-3zM447 457.3c-1.6 0-2.7-1.3-2.7-2.9 0-1.8 1.3-3.3 3.1-3.3 1.7 0 2.7 1.3 2.7 2.9.1 1.9-1.2 3.3-3.1 3.3z"/><g><path class="st0" d="M-33 223.6c0-1.5 1-2.9 3.4-3.8 2.4-1.1 5.1-1.7 8-1.7 3.3 0 6.5.6 8.7 1.5 2.4 1 3.4 2.4 3.4 3.9 0 1.3-1 2.7-3.4 3.6-2.3 1-5.4 1.7-8.4 1.7-3.3 0-5.9-.6-8.4-1.5-2.2-1-3.3-2.4-3.3-3.7zm0 23.4h-4.9c-.5 0-1.1-.2-1.1-.3-.3 0-.8-.3-.8-.5 0-.3.4-.6.8-.8 0-.2.5-.3 1.1-.3h28.4v62.2h6.7c.5 0 1.3.2 1.6.4 0 .1.3.4.3.7 0 .3 0 .6-.3.6-.3.2-1.1.3-1.3.3h-36c-.5-.3-1.3-.6-1.3-1 0-.3.8-.7 1.3-1h5.4V247h.1zm41.9 0H2.8c-.9 0-1.7-.2-1.9-.3-.3 0-.8-.3-.8-.5s.8-.6 1.4-1c7.8-2.6 13.1-5.3 16.5-8 3.6-2.7 6.7-5.8 9-9.4 2.1-2.5 3.4-4.5 3.4-5.3v-2.8c.3-.3.6-.3 1-.3.3 0 .6 0 .9.2 0 .2.4.3.4.4v25.1h19.1c.6 0 1.3.1 1.7.3.3.2.6.4.6.8 0 .3-.4.4-.4.5-.6.2-1.3.3-1.9.3H32.7v55.2c0 1.7.4 2.9 1.4 3.5.6.4 1.9.7 3.2.7 2.7 0 5.4-.9 7.8-2.4 3-2.3 5-5.8 5-10.5v-8.6c0-.4.4-1 .7-1.3.3-.2 1-.4 1.3-.4.4 0 1 .2 1.4.4.3.3.6.9.6 1.3v6.7c0 6.7-2.3 11.6-7.1 14.3-4.6 2.8-10.2 4.2-17.4 4.2-6.7 0-11.7-.8-14.3-2.4-4-2.2-6.5-5.1-6.5-9.2l.1-51.5z"/><path class="st0" d="M.6 361.9v-37.2c-40.8 7-80.8-16.9-89.4-57-2 28.3 14.5 83.7 89.4 94.2zM99 271.7H61.8c7 40.8-16.8 80.8-57 89.4 28.2 2 83.6-14.5 94.2-89.4zM-90.2 265H-53c-7-40.8 16.9-80.7 57-89.3-28.2-2-83.6 14.5-94.2 89.3zM8.4 174.8v37.1c40.8-6.9 80.8 16.9 89.3 57.1 2-28.3-14.5-83.8-89.3-94.2zM108.9 265c0-4.1.9-8.6 2.4-13.4 1.7-5.1 4.1-10 7.4-14.4 3.1-4.5 7.1-8.2 11.6-11s9.8-4.3 15.5-4.3c4.3 0 8.9 1.1 13.6 3.2 4.8 2.2 8.9 5.2 12.5 9.4 3.9 3.9 6.5 8.6 7.9 13.7h-15.1c-5.5-7-11.8-10.8-18.7-10.8-4.3 0-8.4 1.5-12 4.1-3.7 2.8-6.6 6.6-9 11-1.7 3.9-2.9 8-3.2 12.5h-12.9zM181.7 265c1.3-3.4 3-6.7 5.1-9.7 2.3-2.6 4.6-4.7 7.1-6.4 2.4-1.7 4.7-3 7.2-3.8 2.4-.9 4.9-1.1 7.3-1.1 5.1 0 9.7 1.4 14.1 4.5 4.3 3.1 7.9 7.4 10.5 12.7.7 1.1 1.1 2.4 1.7 3.8h-15.9c-1-1.1-2-2.1-3.1-3-2.3-1.6-5.1-2.4-8-2.4-4.3 0-8 1.8-11 5.4h-15zM274.5 265c1-3.2 2.7-6.4 4.8-9.3 2.3-3.4 5.1-6.4 8.9-8.6 3.4-2.1 7.5-3.1 12.1-3.1 4.5 0 9 1.3 13.3 4.2 4.3 2.8 7.9 6.8 10.5 12 .9 1.5 1.5 3.1 2 4.7h-14c-1.3-1.7-2.8-3.2-4.6-4.5-2.1-1.3-4.4-1.9-7-1.9-4 .2-7.1 1.5-9.7 4.1-.7.6-1.3 1.5-2 2.3l-14.3.1zM330.8 265c.6-2.3 1.5-4.3 2.4-6 2.8-5.1 6.3-8.7 10.2-11.2 4.3-2.6 8.5-3.8 12.6-3.8 4 0 7.4.8 10.6 2.8 3.1 1.7 5.4 4.5 6.7 8v-9.1h11.6v19.2h-16.2c-1-1.3-2.3-2.6-3.6-3.6-2.3-1.8-5.1-2.8-7.9-2.8-3.1 0-5.9 1-8.2 2.8-1.3 1-2.5 2.3-3.5 3.6l-14.7.1zM390 265c1-3.2 2.6-6.4 4.8-9.3 2.3-3.4 5.1-6.4 8.8-8.6 3.5-2.1 7.6-3.1 12.1-3.1 4.6 0 9.1 1.3 13.4 4.2 4.3 2.8 7.9 6.8 10.5 12 .8 1.5 1.5 3.1 2 4.7h-14c-1.3-1.7-2.8-3.2-4.6-4.5-2.1-1.3-4.4-1.9-7.1-1.9-3.9.2-7.1 1.5-9.7 4.1-.6.6-1.3 1.5-1.9 2.3l-14.3.1z"/><path class="st0" d="M110.5 278.3c-.9-3.9-1.3-8.4-1.5-12.9v-.5h12.9v2c0 4.1.7 8 1.8 11.4h-13.2zM179.2 278.3v-.4c.2-4.5 1-9 2.4-13.1h15c-.2.2-.2.2-.3.4-2.3 3.9-3.8 8.4-4.1 13.1h-13zM223.3 278.3c0-3.2-.7-6.4-2.2-9.2-.6-1.7-1.5-3.1-2.4-4.3h16c1.5 4.1 2.3 8.6 2.3 13.1v.4h-13.7zM238.5 264.9h12.9v13.4h-12.9v-13.4zm17.7 0h12.9v13.4h-12.9v-13.4zM272.2 278.3v-.8c0-3.5.5-7.1 1.8-11 .2-.5.3-1.1.5-1.7h14.2c-1.5 2-2.5 4.1-3.1 6.4h29.8c-.7-1.9-1.5-3.9-3-5.8-.2-.2-.3-.3-.3-.5h14c1.3 3.9 2 8.4 2 13v.4h-55.9zM328.7 278.3v-1.7c.2-4.3.8-8.4 1.9-11.8h14.8c-.9 1.1-1.5 2.4-2 3.9-1.1 3-1.8 6.3-1.8 9.5h-12.9v.1zM372.9 278.3c0-3.4-.7-6.7-2.2-9.7-.6-1.3-1.3-2.6-2.1-3.8h16.2v13.4h-11.9v.1zM387.7 278.3v-.8c0-3.5.5-7.1 1.8-11 .2-.5.3-1.1.4-1.7h14.3c-1.5 2-2.4 4.1-3.1 6.4h29.8c-.7-1.9-1.5-3.9-3-5.8-.2-.2-.3-.3-.3-.5h14c1.3 3.9 1.9 8.4 1.9 13v.4h-55.8z"/><path class="st0" d="M110.5 278.3c1 4.1 2.1 8 3.8 11.5 3.1 6.9 7.5 12.3 12.8 16.2 5.2 3.8 11.2 6.1 17.6 6.5 3 0 6-.4 9.5-1.3 3.1-.8 6.4-2.3 9.7-4.5 3.4-1.9 6.4-4.5 9-8 2.8-3.2 5.1-7.2 6.7-11.8h-15.5c-5 6.4-11 9.9-17.9 10-3.1 0-6.1-.9-9.2-2.4-2.8-1.3-5.4-3.4-7.6-6-2.3-2.8-4.1-5.9-5.4-9.7 0-.2-.2-.5-.2-.7h-13.3v.2zM179.2 278.3c.2 6.1 1.5 12 4.1 17.1 2.6 5.2 6.1 9.5 10.6 12.6 4.3 3.1 9.2 4.5 14.2 4.5 5.4 0 10-1.5 14.5-4.5 4.4-3.1 8-7.4 10.5-12.8 2.6-5.1 3.9-10.8 3.9-16.9h-13.6v.5c0 3.6-.6 6.7-1.9 9.7-1.3 2.8-3.1 5.1-5.6 6.7-2.3 1.7-5 2.6-8.1 2.8-2.9-.2-5.4-1.1-7.7-3-2.3-1.7-4.3-4.1-5.6-6.9-1.3-3-2.1-6.1-2.3-9.3v-.5h-13zM238.5 224.7h12.9V265h-12.9v-40.3zm17.7 0h12.9V265h-12.9v-40.3zm-17.7 53.6h12.9v32.5h-12.9v-32.5zm17.7 0h12.9v32.5h-12.9v-32.5zM272.2 278.3c-.2.9-.2 1.5-.3 2.2.2 3.9.9 8 2.4 11.8 1.5 3.9 3.8 7.4 6.2 10.5 2.8 3.1 5.9 5.6 9.3 7.2 3.7 1.8 7.2 2.6 11.2 2.6 4.1-.2 7.8-1.1 11.2-2.8 3.5-1.7 6.3-4.3 8.7-7.2 2.4-3.1 4.1-6.5 5.6-10.5H312c-2.8 3.6-6.7 5.6-11.4 5.9-2.2-.2-4.4-.7-6.5-1.8-1.9-1-3.8-2.4-5.2-4.5-1.5-1.7-2.5-4.1-3-6.7h41.9c.4-2.4.4-4.7.4-6.7h-56zM328.7 278.3c.2 6.3 1.5 12.1 3.9 17.1 2.6 5.6 6.1 9.9 10.2 12.7 4.1 3 8.3 4.4 12.9 4.4 3.3 0 6.5-.8 9.7-2.6 3-1.8 5.6-4.6 7.7-8-.3 6.7-2.1 11.8-5.4 15.1-3.1 3.1-7 4.7-11.3 4.7-2.6 0-5-.6-7.2-1.7-2.3-1.1-4.1-2.6-5.1-4.3h-14.8c2.2 6.9 5.6 12.3 10.6 16.1 4.9 3.7 10.3 5.6 16.1 5.6 3.8 0 7.4-.6 10.8-2.1 3.5-1.7 6.5-3.8 9.3-6.9 2.6-3 4.8-6.7 6.5-11.2 1.6-4.5 2.3-9.5 2.3-15.1v-23.8h-12c0 3.5-.7 6.5-2 9.7-1.1 3-3 5.4-5.2 7.2-2.4 1.8-5.2 2.8-8.6 2.8-3-.2-5.8-1.1-8-3-2.3-1.8-4.1-4.1-5.4-7.1-1.1-2.8-1.8-6-2-9.3v-.3h-13zM387.7 278.3c-.2.9-.2 1.5-.3 2.2.2 3.9.9 8 2.4 11.8 1.4 3.9 3.8 7.4 6.2 10.5 2.8 3.1 5.9 5.6 9.3 7.2 3.7 1.8 7.2 2.6 11.2 2.6 4.1-.2 7.7-1.1 11.2-2.8 3.4-1.7 6.2-4.3 8.7-7.2 2.4-3.1 4.1-6.5 5.6-10.5h-14.5c-2.8 3.6-6.7 5.6-11.5 5.9-2.1-.2-4.4-.7-6.4-1.8-1.9-1-3.8-2.4-5.2-4.5-1.5-1.7-2.4-4.1-3-6.7h41.9c.3-2.4.3-4.7.3-6.7h-55.9z"/></g></svg>