<svg xmlns="http://www.w3.org/2000/svg" viewBox="0 0 605.3 131.9"><path d="M542.6 68.2c0-7.7 7.6-15.9 22.5-15.9 3.7 0 10.9.9 13.6 2 1.3.5 1.5 1.7 1.5 2.7 0 1.2-.1 2.3-.1 3.3s.1 2.3.1 3.3c0 1.2-.3 2.8-1.7 2.8-1.9 0-2.2-3.7-4.9-7.1-2-2.5-5.1-4.3-10-4.3-4.8 0-10.7 3.3-10.7 8.6 0 6.7 7.2 8.6 14.8 11.3 7.6 2.7 15.6 6.2 15.6 16.3 0 11.9-13 18.7-24.7 18.7-4 0-11.9-1.4-16.2-3.7-.9-.4-1.3-.8-1.6-1.6-.3-.6-.4-1.6-.4-3 0-2.7.3-5.5.3-8.2 0-1.5.2-3.1 2-3.1 2.4 0 2.4 3.9 4 8.3 1.3 4 4.4 8.4 12.3 8.4 6.8 0 14-3.9 14-11.3 0-6.8-5.7-9.4-11.8-11.6-7.6-2.6-18.6-5.9-18.6-15.8v-.1zm-39.9 4.7c0-7.4-.6-8.8-4.8-8.9-2.4-.2-3.3-.2-3.3-1.4 0-1.6 1.5-1.8 3.6-2.3 3.1-.8 8.7-3.8 11.1-6.4 1.2-1 1.7-1.9 2.8-1.9 1.3 0 1.3 1 1.3 2.3v5.9c0 1.8 0 2.5.6 2.5s2.1-2.4 4.4-4.6c2.3-2.4 5.8-5.2 10.4-5.2 4.2 0 7.6 2.7 7.6 6.7 0 3.6-2.6 5.9-5.9 5.9-2.2 0-3.5-1.3-4.7-2.6-1.1-1.3-2.2-2.5-3.9-2.5-2.6 0-4.6 2.5-6 4.4-2.5 3.8-2.5 6.7-2.5 11.7v19.2c0 6.2.1 9.7 6.3 9.8 1.5.1 4.3.1 4.3 1.8 0 1.2-.9 1.5-2.5 1.5-3.5 0-8.2-.4-13.2-.4-5.1 0-9.2.4-12.9.4-.9 0-1.9-.2-1.9-1.4 0-1.8 2-1.8 3.5-1.9 5.7-.1 5.7-3.4 5.7-10.6v-22zM444.8 70c0 1.4 1 1.6 4 1.6h9.3c3.7-.1 9.9-.3 13.2-1.3 2.4-.7 4-2 4-4.8 0-2.3-1.9-10.4-12.8-10.4-11.5 0-17.7 10.4-17.7 14.7v.2zm4 5.2c-4.2 0-4.9.1-4.9 3.7 0 13.1 8.6 24.7 22.9 24.7 6.4 0 10.7-2.4 13.7-4.7 2.2-1.7 3.3-3.1 4.1-3.1.7 0 1.2.6 1.2 1.2 0 1.5-3.6 4.7-4.8 5.8-5.5 4.8-11.8 7.1-20 7.1-17 0-28.7-13.3-28.7-28.5 0-20.3 17.9-29.1 31.5-29.1 15.1 0 22.8 10.1 22.8 20.1 0 1.9-.6 2.8-2.1 2.8h-35.7zm-75.3 4.2c0 12.7 5.9 24.3 20.1 24.3 4.5 0 9.9-1.5 13-5.1 1.2-1.4 1.3-2 1.3-5.8V70.4c0-4.6 0-8.2-2.6-10.9-2.5-2.6-6.9-4-10.8-4-10.5 0-21 9.2-21 23.8v.1zm45.2 17.2c0 3.7 0 6.1 1.9 6.1 2.4 0 5.6-5.6 6.9-5.6.8 0 1 .5 1 1.3 0 3.6-.7 5.2-2.7 5.9-2.2.8-6.1 1.8-8.3 2.6-2.2.8-6 2.5-7.3 2.5-1.2 0-1.3-2.3-1.4-3.7-.1-1.2-.1-3.8-1.3-3.8-.8 0-3.4 2.2-6.3 4-3.5 2.1-7.8 4-12.5 4-15.8 0-26.7-12.2-26.7-28.6 0-18 16.4-29 29-29 2.2 0 7.5.1 13.6 2.5.7.3 1.8.8 2.4.8.8 0 .9-1.3.9-2.6V37c0-5.7-1.8-5.8-5.9-6-1.3-.2-2.3-.3-2.3-1.5 0-1.1 1-1.5 2.8-1.7 3.9-.6 8.8-2.5 12.2-4.5.6-.4 2-1.3 2.8-1.3 1.2 0 1.2.7 1.2 2.4v72.2zm-103.8-.2c0 4.6 3.6 7 7.9 7 4.1 0 8.1-1.9 10.8-4.7 2.6-2.9 2.7-5 2.7-8.6v-8.4c0-2.4 0-3.3-.6-3.3-.7 0-1.6.6-2.9 1.2-2.9 1.5-6.3 3.1-9.2 4.7-4.4 2.4-8.7 6.5-8.7 11.9v.2zm21.4-30.7c0-5.6 0-10.4-7.1-10.4-6.9 0-10.4 3.9-13.2 10-1 2.1-1.9 4-4.2 4.9-1.3.6-3.8 1.5-5.3 1.5-1.4 0-2.2-.6-2.2-2.1 0-6.8 12.4-17.3 27.9-17.3 4.1 0 9.2.7 12.3 3.4 2.4 2.2 2.6 4 2.6 9.5v28.5c0 3.3.1 9.2 4.1 9.2 1.5 0 2.7-.6 3.6-1.5.9-.8 1.5-1.6 2.1-1.6.5 0 .8.7.8 1.7 0 2.4-7.3 7.8-12.6 7.8-4.5 0-6.1-4.2-7.7-6.7-.6-1-1-1.7-1.5-1.7-.6 0-3.2 2.5-6.7 4.8-3.5 2.2-8.2 4.2-13.4 4.2-6.3 0-12-3.9-12-10.2 0-8.7 10.4-14.6 18.1-18.3 3.2-1.5 6.5-3 9.8-4.5 4.5-2.1 4.6-2.3 4.6-6.7v-4.5zM251.2 70c0 1.4 1 1.6 3.9 1.6h9.4c3.6-.1 9.9-.3 13.1-1.3 2.4-.7 4.1-2 4.1-4.8 0-2.3-1.9-10.4-12.8-10.4-11.5 0-17.7 10.4-17.7 14.7v.2zm4 5.2c-4.3 0-5 .1-5 3.7 0 13.1 8.7 24.7 22.9 24.7 6.5 0 10.8-2.4 13.8-4.7 2.2-1.7 3.3-3.1 4-3.1.8 0 1.3.6 1.3 1.2 0 1.5-3.6 4.7-4.8 5.8-5.6 4.8-11.8 7.1-20 7.1-17.1 0-28.8-13.3-28.8-28.5 0-20.3 18-29.1 31.6-29.1 15.1 0 22.8 10.1 22.8 20.1 0 1.9-.6 2.8-2.2 2.8h-35.6zm-49 29.6c1.7 0 5.3-.1 6.1-.2 9.8-.7 13.4-5.9 16-12 .9-2.2 1.6-4 3-4 1.5 0 1.6 1.2 1.6 2.5-.1 4.3-1.2 8.8-1.4 13.2-.1 3.2.1 4.5-3.1 4.5-11.3 0-31.7-.4-42.9-.4-4.7 0-9.1.4-13.8.4-1.2 0-2.5-.4-2.5-1.9 0-1.8 2.1-1.9 3.6-1.9 7.5 0 7.5-1.3 7.5-10.4V45.5c0-9.1 0-10.4-7.6-10.5-1.4 0-3.5 0-3.5-1.8 0-1.7 1.2-2 2.4-2 4.4 0 8.5.5 14.2.5 5.7 0 11.2-.5 15.5-.5 1.2 0 2.4.3 2.4 2 0 1.8-2.2 1.8-3.5 1.8-7.6.1-7.7 1.4-7.7 10.4v46.5c0 8.4-.5 12.3 7.9 12.8.7 0 4 .1 5.8.1M92.19 39c0-3.3-.75-3.8-2.8-3.8-12.89 0-17.01.7-22.82 10.3-.94 1.6-1.95 3.6-3.52 3.6-1.12 0-1.65-.7-1.65-1.7 0-.9.49-2.5.74-3.1 1.54-5.3 3.08-10.4 4.61-15.6.35-1.2.75-2.5 2.2-2.5.95 0 1.37.7 1.75 1.7.38 1.6.65 3.4 5.34 3.4h46.76c5.1 0 6.6-.1 7.7-2.8.8-1.3 1.1-2.4 2.4-2.4 1.3 0 1.7 1.3 1.7 2.7 0 .8-.1 1.7-.1 2.2-.2 4.9-.4 9.9-.6 14.9 0 1.4-.4 2.7-2 2.7-1.2 0-1.6-1.1-2-2.4-2.8-8.4-3.7-10.9-12.9-10.9h-7.7c-4.4 0-4.4.3-4.4 5.8v53.6c0 9.2.1 10.5 8.1 10.5 1.3.1 3.1.2 3.1 1.8s-1.2 1.8-2.4 1.8c-4.2 0-8.9-.4-14.86-.4-5.18 0-11.07.4-15.34.4-1.16 0-2.41-.2-2.41-1.8 0-1.7 1.79-1.7 3.47-1.8 7.6 0 7.63-1.4 7.63-10.5V39zM45.31 94.7c0 9 0 10.5 8.05 10.5 1.35.1 3.16.2 3.16 1.8s-1.26 1.8-2.42 1.8c-4.13 0-8.17-.4-14.42-.4-6.38 0-10.9.4-15.26.4-1.16 0-2.42-.2-2.42-1.8 0-1.7 1.82-1.7 3.47-1.8 7.61 0 7.63-1.4 7.63-10.5V45.4c0-9 0-10.3-7.62-10.4-1.37 0-3.48 0-3.48-1.9 0-1.6 1.16-1.9 2.42-1.9 4.35 0 9.32.5 14.94.5 5.7 0 10.46-.5 14.74-.5 1.16 0 2.42.3 2.42 2 0 1.8-2.23 1.8-3.58 1.8-7.6.1-7.63 1.3-7.63 10.4v49.3z"/></svg>