<svg xmlns="http://www.w3.org/2000/svg" viewBox="0 0 595.28 558.973"><path d="M282.12 391.29c0 5.665 2.596 14.4 14.87 14.4 12.275 0 22.897-12.51 23.13-14.87.236-2.362.238-17.232.238-17.232s-2.36-.235-16.995-.235-21.243 12.273-21.243 17.937z"/><path d="M447.816 64.03h-296.93c-37.348 0-67.625 30.276-67.625 67.623V427.64c0 37.347 30.278 67.624 67.625 67.624h296.93c37.35 0 67.625-30.277 67.625-67.624V131.653c0-37.348-30.276-67.624-67.624-67.624zm-12.98 213.492l29.74.472-27.38 31.865H413.59l21.244-32.338zm-280.53 147.994h-37.174V278.23h37.175v147.286zm84.385-84.264h-21.36v46.173c1.31 6.175 5.83 12.99 19.708 11.656v25.02s-7.083 3.07-25.73 2.832c-15.847-.2-24.85-17.607-27.2-30.803h-.415v-2.85c-.14-1.275-.235-2.51-.235-3.64l.235-.08v-48.31H167.17v-25.728h16.523v-36.94h33.635v36.94h21.362v25.73zm114.004 84.5h-32.336v-9.678s-13.926 11.566-33.28 11.566c-19.357 0-38.71-17.703-38.71-33.99 0-16.285 11.564-40.36 50.51-41.07h19.826s3.306-15.34-21.007-15.578c-24.31-.236-30.92 7.79-30.92 7.79l-9.205-20.3s21.007-14.87 45.79-13.454c24.784 1.416 49.095 12.98 49.33 39.89.238 26.91.002 74.825.002 74.825zm129.11.236h-31.863v-16.995s-5.428 16.995-33.752 16.995-44.374-14.162-44.61-34.46c-.236-20.3-.236-75.532-.236-75.532h34.226v66.562c0 6.844 6.843 18.175 17.23 17.94 10.385-.238 23.366-3.307 23.366-17.47v-67.032h35.642v109.992z"/></svg>