<svg xmlns="http://www.w3.org/2000/svg" viewBox="0 0 265.48 222.72"><path d="M75.688 33l-13.71 19.38v85.98h13.71V74.175h6.757l11.348-15.743H75.688zM33.005 55.05v23.123L49.378 55.05zm77.755 3.75c-6.59 0-11.785 1.912-15.61 5.73-3.818 3.825-5.73 9.075-5.73 15.75v13.718c0 8.992 3.87 15.482 11.61 19.442-2.512.58-3.802 2.82-4.222 6.51-.473 4.15 2.805 5.07 4.352 5.55-4.645 1.16-8.252 3.24-10.81 6.24-2.565 3-3.847 6.99-3.847 11.34 0 5.43 1.642 9.41 4.935 12.6 3.285 3.2 9.762 4.79 15.852 4.79h10.91c9.63 0 20.17-8.21 20.17-17.39 0-11.93-9.83-18.45-18.37-18.45h-7.96c-3.07 0-4.63-2.7-4.06-4.94.54-2.11.87-4.42 5.1-4.8 7.35-.64 12.62-2.8 15.82-6.38 3.2-3.58 4.79-8.42 4.79-14.513V70.702l7.02-9.727h-16.6c-1.07-.578-2.71-1.08-4.94-1.523-2.23-.435-5.03-.652-8.41-.652zm.73 11.752c2.5 0 4.73.75 6.67 2.25 1.93 1.5 2.9 3.9 2.9 7.186v14.294c0 3.098-.97 5.423-2.9 6.978-1.94 1.54-4.17 2.31-6.67 2.31-2.62 0-4.87-.77-6.75-2.31-1.89-1.555-2.84-3.88-2.84-6.978V79.988c0-3.286.95-5.686 2.84-7.186 1.88-1.5 4.13-2.25 6.75-2.25zm33.13 1.41v38.748l27.74-38.748zm-97.905 2.73l-13.71 19.155v44.993h13.71zm59.255 62.718h14.28c4.21 0 6.01 2.64 6.01 5.22 0 2.58-3.96 5.22-7.08 5.22h-13.37c-2.57 0-6.94-1.2-6.828-5.22.113-4.04 3.848-5.22 6.988-5.22zM178 169.68v19.73h2.45v-8.11c0-.48 0-.84.16-1.17.48-1.33 1.7-2.45 3.29-2.45 2.3 0 3.11 1.81 3.11 4.01v7.72h2.44v-8c0-4.64-2.88-5.75-4.69-5.75-.92 0-1.78.25-2.51.69-.75.39-1.35 1.03-1.74 1.72h-.1v-8.39zm51.93 0v8h-.1c-.6-1.05-1.98-2.02-4.07-2.02-3.25 0-6.06 2.72-6.03 7.22 0 4.09 2.53 6.84 5.79 6.84 2.19 0 3.8-1.14 4.55-2.64h.1l.12 2.33h2.19c-.1-.91-.11-2.27-.11-3.47v-16.26zm-167.803 1l6.143 18.73h2.67l6.697-18.73H75.05l-3.165 9.26c-.863 2.44-1.613 4.81-2.138 6.97h-.08c-.525-2.16-1.222-4.47-2.002-7l-2.918-9.23zm103.973 0l-6.36 18.73h2.5l1.95-5.89h6.64l2 5.89h2.59l-6.4-18.73zm-55.35 2.06l-2.38.74v2.48h-2.09v1.86h2.09v7.34c0 1.59.27 2.78.94 3.53.58.64 1.5 1.03 2.64 1.03.94 0 1.69-.17 2.17-.33l-.12-1.87c-.36.11-.75.17-1.41.17-1.36 0-1.84-.94-1.84-2.61v-7.26h3.5v-1.86h-3.5zm56.69.1h.1c.28 1.09.55 2.2.94 3.42l1.86 5.39h-5.64l1.84-5.42c.36-1.14.67-2.3.92-3.39zm-83.51 2.81c-3.923 0-6.345 3.19-6.345 7.28 0 4.03 2.505 6.79 6.622 6.79 2.146 0 3.638-.48 4.5-.87l-.442-1.72c-.893.36-1.972.67-3.728.67-2.445 0-4.53-1.37-4.59-4.68h9.428c.08-.27.08-.66.08-1.17 0-2.47-1.14-6.33-5.527-6.33zm62.69 0c-3.92 0-6.34 3.19-6.34 7.28 0 4.03 2.5 6.79 6.61 6.79 2.14 0 3.65-.48 4.51-.87l-.44-1.72c-.9.36-1.98.67-3.73.67-2.45 0-4.53-1.37-4.59-4.68h9.43c.1-.27.1-.66.1-1.17 0-2.47-1.14-6.33-5.53-6.33zm52.18 0c-3.92 0-6.34 3.19-6.34 7.28 0 4.03 2.5 6.79 6.62 6.79 2.14 0 3.64-.48 4.5-.87l-.45-1.72c-.89.36-1.97.67-3.72.67-2.45 0-4.53-1.37-4.59-4.68h9.43c.1-.27.1-.66.1-1.17 0-2.47-1.13-6.33-5.53-6.33zm-99.615 0c-2.22 0-3.78 1.25-4.447 2.5h-.08l-.135-2.2h-2.175c.09 1.12.112 2.23.112 3.64v9.81h2.445v-8.11c0-.39.08-.84.165-1.14.45-1.36 1.703-2.5 3.285-2.5 2.315 0 3.105 1.83 3.105 4v7.75h2.46v-8.03c0-4.61-2.89-5.72-4.762-5.72zm39.155 0c-1.65 0-3.15 1.14-3.76 2.94h-.1l-.12-2.64h-2.13c.1 1.26.11 2.61.11 4.2v9.25h2.44v-7.17c0-.41 0-.8.1-1.17.33-1.8 1.56-3.11 3.27-3.11.34 0 .59 0 .87.1v-2.28c-.22-.1-.42-.1-.66-.1zm73.35 0c-1.68 0-3.33.46-4.44 1.16l.55 1.64c.95-.64 2.26-1 3.54-1 2.75 0 3.05 2.01 3.05 3.12v.27c-5.19 0-8.09 1.75-8.09 5.01 0 1.94 1.4 3.86 4.12 3.86 1.92 0 3.39-.95 4.12-2h.1l.22 1.69h2.19c-.14-.91-.19-2.05-.19-3.22v-5.03c0-2.7-1-5.5-5.15-5.5zm-94.77.3v7.86c0 4.71 2.54 5.9 4.65 5.9 2.39 0 3.84-1.42 4.45-2.5h.1l.13 2.19h2.17c-.1-1.05-.11-2.27-.11-3.67v-9.75h-2.45v8.23c0 .47-.1.92-.22 1.25-.45 1.11-1.59 2.25-3.22 2.25-2.2 0-3-1.75-3-4.31v-7.42zm-33.185 1.42c2.723 0 3.39 2.45 3.368 3.98h-7.118c.188-1.7 1.245-3.98 3.75-3.98zm62.685 0c2.72 0 3.39 2.45 3.37 3.98h-7.12c.2-1.7 1.25-3.98 3.75-3.98zm52.19 0c2.72 0 3.39 2.45 3.36 3.98h-7.12c.19-1.7 1.25-3.98 3.76-3.98zm27.68.2c1.84 0 3.17 1.27 3.53 2.8.1.33.11.72.11 1.06v2.33c0 .39 0 .73-.11 1.06-.45 1.81-1.95 2.92-3.58 2.92-2.62 0-3.99-2.25-3.99-5.01 0-2.94 1.51-5.16 4.04-5.16zm-11.84 4.97v2.33c0 .25 0 .53-.11.78-.39 1.14-1.54 2.25-3.31 2.25-1.23 0-2.28-.72-2.28-2.33 0-2.62 3.03-3.09 5.7-3.03z"/></svg>