<svg xmlns="http://www.w3.org/2000/svg" viewBox="0 0 1920 810"><path class="st0" d="M1438.7 321v49.3h-11.2V321h11.2zM1448.8 344.5c0-3.7-.1-6.7-.3-9.6h5.7l.4 5.8h.1c1.8-3.4 5.9-6.7 11.7-6.7 4.9 0 12.5 2.9 12.5 15.1v21.1h-6.4v-20.4c0-5.7-2.1-10.5-8.2-10.5-4.2 0-7.5 3-8.6 6.6-.3.8-.4 1.9-.4 3v21.3h-6.4v-25.7zM1496.9 324.7v10.2h9.2v4.9h-9.2v19.1c0 4.4 1.2 6.9 4.8 6.9 1.7 0 2.9-.2 3.7-.4l.3 4.8c-1.2.5-3.2.9-5.7.9-3 0-5.4-1-6.9-2.7-1.8-1.9-2.5-5-2.5-9.2v-19.3h-5.5V335h5.5v-8.5l6.3-1.8zM1516.5 353.8c.1 8.7 5.7 12.3 12.1 12.3 4.6 0 7.4-.8 9.8-1.8l1.1 4.6c-2.3 1-6.1 2.2-11.8 2.2-10.9 0-17.4-7.2-17.4-17.8 0-10.7 6.3-19.1 16.6-19.1 11.6 0 14.6 10.2 14.6 16.7 0 1.3-.1 2.3-.2 3h-24.8zm18.8-4.6c.1-4.1-1.7-10.5-8.9-10.5-6.5 0-9.4 6-9.9 10.5h18.8zM1580 334.9c-.1 2.6-.3 5.4-.3 9.7v20.5c0 8.1-1.6 13.1-5 16.2-3.4 3.2-8.4 4.2-12.9 4.2-4.2 0-8.9-1-11.8-2.9l1.6-4.9c2.3 1.5 6 2.8 10.4 2.8 6.6 0 11.4-3.4 11.4-12.4v-3.9h-.1c-2 3.3-5.8 5.9-11.3 5.9-8.8 0-15.1-7.5-15.1-17.3 0-12 7.8-18.8 15.9-18.8 6.1 0 9.5 3.2 11 6.1h.1l.3-5.3h5.8zm-6.7 14c0-1.1-.1-2-.4-2.9-1.2-3.7-4.3-6.8-9-6.8-6.1 0-10.5 5.2-10.5 13.4 0 6.9 3.5 12.7 10.5 12.7 4 0 7.5-2.5 8.9-6.6.4-1.1.5-2.3.5-3.4v-6.4zM1589.9 346c0-4.2-.1-7.8-.3-11h5.6l.2 6.9h.3c1.6-4.8 5.5-7.8 9.8-7.8.7 0 1.2.1 1.8.2v6.1c-.7-.1-1.3-.2-2.2-.2-4.5 0-7.7 3.4-8.6 8.3-.1.9-.3 1.9-.3 3v18.9h-6.4V346zM1633.1 370.3l-.5-4.5h-.2c-2 2.8-5.8 5.3-10.8 5.3-7.2 0-10.8-5-10.8-10.2 0-8.6 7.6-13.2 21.3-13.2v-.7c0-2.9-.8-8.2-8-8.2-3.3 0-6.7 1-9.2 2.6l-1.5-4.2c2.9-1.9 7.2-3.1 11.6-3.1 10.8 0 13.5 7.4 13.5 14.5v13.2c0 3.1.1 6.1.6 8.5h-6zm-1-18.1c-7-.1-15 1.1-15 8 0 4.2 2.8 6.1 6.1 6.1 4.6 0 7.5-2.9 8.6-5.9.2-.7.4-1.4.4-2v-6.2zM1656.2 324.7v10.2h9.2v4.9h-9.2v19.1c0 4.4 1.2 6.9 4.8 6.9 1.7 0 2.9-.2 3.7-.4l.3 4.8c-1.2.5-3.2.9-5.7.9-3 0-5.4-1-6.9-2.7-1.8-1.9-2.5-5-2.5-9.2v-19.3h-5.5V335h5.5v-8.5l6.3-1.8zM1679.8 325c.1 2.2-1.5 4-4.1 4-2.3 0-3.9-1.8-3.9-4 0-2.3 1.7-4 4-4 2.5-.1 4 1.7 4 4zm-7.2 45.3v-35.4h6.4v35.4h-6.4zM1721.8 352.3c0 13.1-9.1 18.8-17.6 18.8-9.6 0-17-7-17-18.2 0-11.8 7.7-18.8 17.5-18.8 10.2 0 17.1 7.4 17.1 18.2zm-28.1.4c0 7.8 4.5 13.6 10.7 13.6 6.1 0 10.7-5.8 10.7-13.7 0-6-3-13.6-10.6-13.6s-10.8 7-10.8 13.7zM1729.9 344.5c0-3.7-.1-6.7-.3-9.6h5.7l.4 5.8h.1c1.8-3.4 5.9-6.7 11.7-6.7 4.9 0 12.5 2.9 12.5 15.1v21.1h-6.4v-20.4c0-5.7-2.1-10.5-8.2-10.5-4.2 0-7.5 3-8.6 6.6-.3.8-.4 1.9-.4 3v21.3h-6.4v-25.7zM1437 418.1h-13.2v-9.4h37.9v9.4h-13.5V458H1437v-39.9zM1471.6 441.5c.1 8.7 5.7 12.3 12.1 12.3 4.6 0 7.4-.8 9.8-1.8l1.1 4.6c-2.3 1-6.1 2.2-11.8 2.2-10.9 0-17.4-7.2-17.4-17.8 0-10.7 6.3-19.1 16.6-19.1 11.6 0 14.6 10.2 14.6 16.7 0 1.3-.1 2.3-.2 3h-24.8zm18.9-4.6c.1-4.1-1.7-10.5-8.9-10.5-6.5 0-9.4 6-9.9 10.5h18.8zM1529.9 456.7c-1.7.9-5.4 2-10.2 2-10.7 0-17.6-7.2-17.6-18.1 0-10.9 7.5-18.8 19-18.8 3.8 0 7.2 1 8.9 1.8l-1.5 5c-1.5-.9-3.9-1.7-7.5-1.7-8.1 0-12.5 6-12.5 13.4 0 8.2 5.3 13.2 12.3 13.2 3.7 0 6.1-1 7.9-1.8l1.2 5zM1537.4 406.1h6.4v22.1h.1c1-1.8 2.6-3.4 4.6-4.5 1.9-1.1 4.2-1.8 6.6-1.8 4.8 0 12.4 2.9 12.4 15.1v21h-6.4v-20.3c0-5.7-2.1-10.5-8.2-10.5-4.2 0-7.5 2.9-8.6 6.4-.4.9-.4 1.8-.4 3.1V458h-6.4v-51.9zM1578 432.2c0-3.7-.1-6.7-.3-9.6h5.7l.4 5.8h.1c1.8-3.4 5.9-6.7 11.7-6.7 4.9 0 12.5 2.9 12.5 15.1V458h-6.4v-20.4c0-5.7-2.1-10.5-8.2-10.5-4.2 0-7.5 3-8.6 6.6-.3.8-.4 1.9-.4 3V458h-6.4v-25.8zM1650.6 440.1c0 13.1-9.1 18.8-17.6 18.8-9.6 0-17-7-17-18.2 0-11.8 7.7-18.8 17.5-18.8 10.2-.1 17.1 7.3 17.1 18.2zm-28.1.3c0 7.8 4.5 13.6 10.7 13.6 6.1 0 10.7-5.8 10.7-13.7 0-6-3-13.6-10.6-13.6s-10.8 7-10.8 13.7zM1658.7 406.1h6.4V458h-6.4v-51.9zM1708 440.1c0 13.1-9.1 18.8-17.6 18.8-9.6 0-17-7-17-18.2 0-11.8 7.8-18.8 17.5-18.8 10.2-.1 17.1 7.3 17.1 18.2zm-28.1.3c0 7.8 4.5 13.6 10.7 13.6 6.1 0 10.7-5.8 10.7-13.7 0-6-3-13.6-10.6-13.6s-10.8 7-10.8 13.7zM1746.6 422.7c-.1 2.6-.3 5.4-.3 9.7v20.5c0 8.1-1.6 13.1-5 16.2-3.4 3.2-8.4 4.2-12.9 4.2-4.2 0-8.9-1-11.8-2.9l1.6-4.9c2.3 1.5 6 2.8 10.4 2.8 6.6 0 11.4-3.4 11.4-12.4V452h-.1c-2 3.3-5.8 5.9-11.3 5.9-8.8 0-15.1-7.5-15.1-17.3 0-12 7.8-18.8 15.9-18.8 6.1 0 9.5 3.2 11 6.1h.1l.3-5.3h5.8zm-6.6 13.9c0-1.1-.1-2-.4-2.9-1.2-3.7-4.3-6.8-9-6.8-6.1 0-10.5 5.2-10.5 13.4 0 6.9 3.5 12.7 10.5 12.7 4 0 7.5-2.5 8.9-6.6.4-1.1.5-2.3.5-3.4v-6.4zM1759.3 422.7l7.7 20.9c.8 2.3 1.7 5.1 2.3 7.2h.1c.7-2.1 1.4-4.8 2.3-7.4l7-20.8h6.8l-9.7 25.2c-4.6 12.1-7.8 18.4-12.1 22.2-3.1 2.8-6.3 3.9-7.9 4.2l-1.6-5.4c1.6-.5 3.7-1.5 5.6-3.1 1.8-1.4 4-3.9 5.4-7.2.3-.7.5-1.2.5-1.5 0-.4-.1-.9-.4-1.7l-13.1-32.6h7.1zM1469.6 554.3c-7-2-12.9-4.2-19.4-6.9-1.1-.4-2.3-.7-3.4-.7-11.1-.7-21.5-8.9-21.5-25 0-14.8 9.4-25.9 24.1-25.9 15.1 0 23.3 11.4 23.3 24.9 0 11.2-5.2 19.1-11.7 22v.3c3.8 1.1 8 2 11.9 2.8l-3.3 8.5zm-8.8-33.3c0-9-4.2-16.4-11.8-16.4s-12 7.5-12 16.7c-.1 9.4 4.5 16.5 11.9 16.5 7.5-.1 11.9-7.2 11.9-16.8zM1510 536.1c0 3.7.1 6.9.3 9.7h-5.7l-.4-5.8h-.1c-1.7 2.8-5.4 6.6-11.7 6.6-5.6 0-12.2-3.1-12.2-15.5v-20.7h6.4V530c0 6.7 2 11.3 7.9 11.3 4.3 0 7.3-3 8.5-5.8.4-1 .6-2.1.6-3.3v-21.7h6.4v25.6zM1540.3 545.8l-.5-4.5h-.2c-2 2.8-5.8 5.3-10.8 5.3-7.2 0-10.8-5-10.8-10.2 0-8.6 7.6-13.2 21.3-13.2v-.7c0-2.9-.8-8.2-8-8.2-3.3 0-6.7 1-9.2 2.6l-1.5-4.2c2.9-1.9 7.2-3.1 11.6-3.1 10.8 0 13.5 7.4 13.5 14.5v13.2c0 3.1.1 6.1.6 8.5h-6zm-1-18.1c-7-.1-15 1.1-15 8 0 4.2 2.8 6.1 6.1 6.1 4.6 0 7.5-2.9 8.6-5.9.2-.7.4-1.4.4-2v-6.2zM1555.9 493.9h6.4v51.9h-6.4v-51.9zM1580.4 500.4c.1 2.2-1.5 3.9-4.1 3.9-2.3 0-3.9-1.8-3.9-3.9 0-2.3 1.7-4 4-4 2.4 0 4 1.8 4 4zm-7.2 45.4v-35.4h6.4v35.4h-6.4zM1598 500.2v10.2h9.2v4.9h-9.2v19.1c0 4.4 1.2 6.9 4.8 6.9 1.7 0 2.9-.2 3.7-.4l.3 4.8c-1.2.5-3.2.9-5.7.9-3 0-5.4-.9-6.9-2.7-1.8-1.9-2.5-5-2.5-9.2v-19.3h-5.5v-4.9h5.5V502l6.3-1.8zM1617.5 510.4l7.7 20.9c.8 2.3 1.7 5.1 2.3 7.2h.1c.7-2.1 1.4-4.8 2.3-7.4l7-20.8h6.8l-9.6 25.2c-4.6 12.1-7.8 18.3-12.1 22.1-3.1 2.8-6.3 3.9-7.9 4.2l-1.6-5.4c1.6-.5 3.7-1.5 5.6-3.1 1.8-1.4 4-3.9 5.4-7.2.3-.7.5-1.2.5-1.5s-.1-.9-.4-1.7l-13.1-32.6h7zM1389.6 340.9c0 4.6-3.7 8.3-8.3 8.3s-8.3-3.7-8.3-8.3 3.7-8.3 8.3-8.3 8.3 3.7 8.3 8.3zm-8.3 83.4c-4.6 0-8.3 3.7-8.3 8.3 0 4.6 3.7 8.3 8.3 8.3s8.3-3.7 8.3-8.3c0-4.6-3.7-8.3-8.3-8.3zm0 91.8c-4.6 0-8.3 3.7-8.3 8.3s3.7 8.3 8.3 8.3 8.3-3.7 8.3-8.3-3.7-8.3-8.3-8.3zM748.8 316.3h-90v-63.6h257.5v63.6h-91.5v271.4h-76V316.3z"/><path class="st0" d="M1191.1 645.3c-47.7-13.9-87.5-28.3-132.2-47.2-7.5-3-15.4-4.5-23.4-5-75.6-5-146.1-60.6-146.1-170 0-100.4 63.6-176 163.5-176 102.4 0 158.6 77.5 158.6 169 0 76-35.3 129.7-79.5 149.6v2c25.8 7.5 54.7 13.4 81 18.9l-21.9 58.7zm-59.6-226.2c0-61.1-28.8-111.8-80.5-111.8s-81.5 50.7-81.5 113.3c-.5 63.6 30.3 112.3 81 112.3 51.2.1 81-48.2 81-113.8zM636.2 587.6h-65.3c2.3-33.5 3.4-71.9 3.4-115.3 0-43-2.8-80.7-8.2-113.1l69.9-7c-2.1 31.4-3.2 71.4-3.2 120.1 0 41.6 1.1 80.1 3.4 115.3z"/><path class="st0" d="M566.4 289.2c.2 1.5.4 2.9.7 4.3l-340.8 36.1c-7.3 17-24.3 28.9-44 28.9-26.4 0-47.9-21.4-47.9-47.9s21.4-47.9 47.9-47.9c18.7 0 34.9 10.7 42.8 26.4h341.3zm40.5-45.1c-17 0-31.5 10.4-37.6 25.1L368 203.6v-1.8c0-20.1-16.3-36.3-36.3-36.3-20.1 0-36.3 16.3-36.3 36.3s16.3 36.3 36.3 36.3c12.4 0 23.4-6.2 29.9-15.7l206.7 49.5c-1.4 4.1-2.1 8.4-2.1 13 0 1.5.1 3 .2 4.4.2 1.5.4 2.9.7 4.3.9 3.9 2.3 7.7 4.2 11.1L520 331.2c-7.5-8.2-18.2-13.3-30.1-13.3-22.5 0-40.7 18.2-40.7 40.7s18.2 40.7 40.7 40.7c22.5 0 40.7-18.2 40.7-40.7 0-4.9-.9-9.5-2.4-13.8l46.3-35.3c7.4 9.8 19.2 16.1 32.4 16.1 22.5 0 40.7-18.2 40.7-40.7s-18.2-40.8-40.7-40.8zM1308 594.9h-7.5V250.6h7.5v344.3z"/></svg>