<svg xmlns="http://www.w3.org/2000/svg" viewBox="0 0 1282.6 360"><path d="M172.4 266.4c0-.3 3.7-9.7 8.2-21.1 7.1-18 8.2-20.6 8.8-20.8.7-.2 752.7-1.6 837.6-1.6 21 0 28 .1 28 .4 0 .5-17 42.6-17 43.1 0 .6-865.6.6-865.6 0zM516.5 215.8c-.2-.3 6.6-18.8 22.7-62 12.6-33.9 23.1-61.87 23.3-62.18.3-.52.5 0 .6.42.1.26 6.8 16.26 15.1 35.56 8.3 19.4 15 35.3 15 35.5-.1.1-17.2 11.9-38 26.2-20.9 14.3-38 26.1-38.1 26.2-.1.2 9.3.4 26.8.4l26.8.1-26.9.1c-21.3.1-27 0-27.3-.3z" opacity=".5"/><path d="M831.6 218.1c-13.6-1.3-27.2-8.6-36.8-19.7-4.5-5.2-8.4-10.9-10.5-15.2-.5-.9-.9-1.5-1.1-1.5-.2 0-1.6 1.6-3.1 3.6-8.8 11.8-22.1 20.6-37.5 25.1-9.1 2.7-17.4 3.9-28.7 4.1-17.4.4-32.5-1.7-53.2-7.3-1.5-.4-2.9-.6-3-.5-.1.1.8 2.1 1.9 4.5 1.2 2.5 2 4.6 1.9 4.7-.2.4-62.7.4-62.9 0-.1-.1-2.6-8.8-5.5-19.3-2.9-10.4-5.5-19.3-5.6-19.8-.4-.6-.5-.7-.7-.3-.2.3-3.8 9.2-8.1 19.9l-7.7 19.3-27 .1c-14.8 0-26.9 0-26.9-.2 0-.1 17.1-11.9 38.1-26.3 32.8-22.4 38-26.1 37.9-26.7-.1-.3-6.9-16.4-15.2-35.7-8.5-19.7-14.9-35.13-14.7-35.29.3-.39 59.9-.31 74.8.11 18.7.52 22.5.99 28.7 3.55 8.3 3.46 15.6 11.53 18.5 20.43.3.9.7 1.7.9 1.8.2.1 1.9-1.3 3.9-3.3 12.5-12.2 27.2-19.69 45-22.92 12.4-2.25 26.4-2.15 40.9.3 8.5 1.44 19.8 4.53 27.4 7.48 3.3 1.24 3.5 1.44 3.2 2.04-.4.6-26.2 28.1-27.1 28.8-.7.5-.8.5-4.2-.9-7.7-3.2-17.1-6-22.6-6.9-1.3-.2-4-.3-6-.2-4.2.1-5.6.6-7.3 2.6-2.2 2.5-2.1 4.7.4 6.9 2.8 2.4 7.5 3.9 16.7 5.1 8.8 1.2 17.2 3.7 22.4 6.7 2.5 1.5 5.5 4.1 6.4 5.7.4.6.9 1.1 1.1 1.1.2 0 1.4-2 2.6-4.4 12.8-25.8 33.1-44.2 59.4-53.75 5-1.82 12.4-3.74 17.3-4.46 4.4-.65 15.3-.48 20.8.33 11.9 1.75 21.5 6.05 28.8 12.88 6.7 6.3 11.5 15.7 13.3 25.8.2 1.6.4 3.3.4 3.9 0 1.4.5 1.7 1 .7.2-.4 3.8-9.4 8-19.9l7.5-19.21 27.6-.1 28-.1 4 11.31c2 6.2 8 20 12 30.7 4 10.6 8 19.5 8 19.8 1 .6-1 3.7 12-31 6-16.1 11-29.58 11-29.84 1-.42 4-.5 28-.58 15-.1 27 0 27 .16 1 .3-48 123.66-48 124.06 0 .1-13 .2-28 .2-21 0-27-.1-27-.4-.1-.2-5.1-14.4-11.1-31.6-6.6-18.8-11.1-31.2-11.4-31.2-.3-.1-4.1 9.6-12.4 31.2-6.6 17.3-12.2 31.5-12.4 31.6-.3.1-12.5.1-27.2.1-21 0-26.7-.1-26.8-.4-.1-.2 2.1-7 4.8-15.1 6-17.6 5.9-17.4 5.7-17.6-.2-.1-2.2 1.5-4.6 3.5-26.7 22.9-51.4 33.6-73 31.5zm-165.7-35c6.2-7.2 11.6-13.5 12.1-14l.8-.9 3.9 2.6c7.1 4.7 15.6 8.5 22.7 9.9 4.4.9 10.5.9 14 0 2.8-.7 5.6-2.3 7.2-3.9 2.1-2.3 2.3-3.8.4-5.8-2.5-2.8-6.5-4.1-16.1-5.5-10.4-1.5-14.9-2.8-19.5-5.5-2.9-1.7-6.5-4.9-8.4-7.6-1.4-2.1-4-6.9-4.6-8.9-.2-.7-.6-1.2-.8-1.2-.2 0-1.1 1.2-2.1 2.6-2.2 3.3-7 8.1-10.7 10.7-3.4 2.4-8.9 5.2-13 6.5-3 1-8.5 2.2-9.8 2.3-.4 0-.8.1-1 .4-.2.3 1.4 4.5 6 15.4 3.4 8.3 6.4 15.3 6.5 15.6.1.3.4.6.7.5.2-.1 5.5-6 11.7-13.2zm187 6.2c12.7-4 25-17.8 30.5-34.1 6.5-19.6 1.5-36.6-11.7-39.2-14.4-2.8-33.4 14.1-40.4 35.7-1.9 6-2.3 9.1-2.3 15.6 0 5 .1 6.2.7 8.4 2 7.5 6.3 12.5 12.2 14.1 2.5.7 8.1.5 11-.5zm-242.1-41.7c10-2.2 15.9-6.8 17.8-14 1-4-1.1-7.7-5.4-9.7-2.9-1.4-5.7-1.8-10.6-1.7l-4.5.1-5.6 12.6c-4.4 9.8-5.6 12.8-5.3 13.1.5.6 10.3.3 13.6-.4zm-418.1 68.7c-.4-.3 6.9-20.3 31.4-87.5 17.5-47.88 32-87.34 32.2-87.66.2-.31.6-.64.9-.73.3-.1 14-.27 30.5-.39 26-.19 30-.16 30 .24 0 .25-4 11.94-8.9 25.97-5 14.03-8.9 25.65-8.8 25.82.1.2 9.3.31 25.4.31 13.9 0 25.3.11 25.4.24.1.14-.3 14.6-.8 32.2-1 36-1 39-.6 38.9.2-.1 12.1-16.1 26.5-35.7l26.2-35.48 77.5-.1c47.7 0 77.5 0 77.5.22 0 .34-12 30.76-12.5 31.76-.3.6-.9.6-24.7.6-13.4 0-24.6.1-24.8.3-.5.2-4.3 10.8-4.3 11.7 0 .6-1.6.6 24.5.1 10.6-.2 19.4-.4 19.6-.3.3.1.4.4.2.8-.1.4-3 7.4-6.5 15.6l-6.3 14.9-21.3.1-21.3.1-2.9 6.7c-1.6 3.7-2.9 7-2.8 7.2.2.4.6.5 2.3.3 3.9-.3 46.8-.5 47-.2.1.1-2.7 7.6-6.2 16.7l-6.3 16.5-52.8.1c-29 0-52.8 0-52.9-.2-.2-.1 7.9-21.7 17.9-48.1 10.1-26.3 18.3-48.1 18.4-48.5.2-.4.1-.7-.1-.7-.1 0-18.7 21.6-41.2 48.1-22.4 26.5-41.2 48.5-41.6 48.9l-.8.9h-52.5l-.1-.7c-.1-.4-3.1-23.1-6.8-50.3-3.6-27.3-6.6-49.7-6.7-49.8-.1-.1-.3 0-.4.2-.2.1-8.9 22.8-19.3 50.3-10.4 27.6-19.1 50.3-19.4 50.5-.4.3-6.9.4-30 .4-16.2 0-29.6-.1-29.9-.3z"/></svg>