<svg xmlns="http://www.w3.org/2000/svg" viewBox="0 0 529.3 269.02"><path d="M315.93 22c2.02 0 2.74 1.37 1.63 3.05l-8.81 13.383c-1.1 1.663-3.67 3.026-5.63 3.026h-32.98c-2.02 0-2.73-1.345-1.63-3.027l8.93-13.407c1.11-1.657 3.68-3.026 5.68-3.026zM71.443 22c2 0 2.738 1.37 1.638 3.05l-8.838 13.383c-1.1 1.663-3.637 3.026-5.644 3.026h-32.96c-2 0-2.73-1.345-1.613-3.027l8.914-13.407C34.063 23.37 36.6 22 38.626 22zM447.74 222.67c-9.5 7.24-20.13 13.12-32.02 17.61-11.83 4.5-24.12 6.74-36.86 6.74-9.98 0-18.27-1.29-24.89-3.93-6.61-2.61-11.86-6.23-15.72-10.87-3.86-4.61-6.63-10.15-8.24-16.65-1.63-6.47-2.41-13.72-2.41-21.68-.25-21.98 5.47-37.87 17.19-47.76 11.74-9.84 29.44-14.77 53.17-14.77h47.9v-9.82c0-5.54-.63-10.28-1.69-14.16-1.13-3.91-3.19-7.13-6.19-9.615-3-2.54-7-4.29-11.94-5.3-5.03-1.03-11.38-1.54-19.11-1.54-3 0-6.67.13-11.04.38-4.37.25-8.87.5-13.48.75-4.61.25-9.23.63-13.87 1.1-4.61.5-8.79.88-12.52 1.12-3.74.5-6.3.56-7.67.25-1.39-.37-2.32-1.95-2.81-4.69l-3.37-13.672c-.5-2.488-.25-4.52.76-6.126.98-1.588 3.61-3.276 7.86-5.007 4-1.47 8.72-2.713 14.21-3.688 5.5-1 11.08-1.78 16.85-2.42 5.74-.63 11.41-1.118 17.04-1.462 5.62-.375 10.65-.562 15.14-.562 16.2 0 29.14 1.638 38.76 4.832 9.57 3.275 16.88 7.838 21.88 13.676 5 5.882 8.25 13.04 9.75 21.53 1.44 8.504 2.25 17.944 2.25 28.444v72.25c0 3.74 0 6.67.63 8.77.62 2.15 1 3.76 1.87 4.88.88 1.12 2.13 1.96 3.94 2.44 1.69.5 4.06.88 7.06 1.1 2.75.25 4.63.76 5.63 1.52 1 .73 1.5 2.12 1.5 4.1v15.75c0 4.22-3 6.83-9 7.84-3 .5-6 .92-9 1.31-3 .37-5.82.56-8.57.56-8.75 0-15.81-1.63-21.12-4.88-5.44-3.23-9.07-9.21-11.07-17.95zm-2.25-62.11h-45.66c-9.5 0-16.97 2.18-22.46 6.55-5.49 4.36-8.23 12.67-8.23 24.9 0 8.21 1.69 13.89 5.05 17.02 3.37 3.12 9.41 4.69 18.14 4.69 3.99 0 8.38-.5 13.12-1.49 4.74-1.01 9.47-2.4 14.21-4.13 4.7-1.76 9.33-3.71 13.89-5.81 4.44-2.1 8.44-4.18 11.94-6.18zm-138.2 76.35c0 2-.43 3.69-1.29 5.05-.88 1.37-2.69 2.08-5.44 2.08h-26.57c-4.99 0-7.5-2.39-7.5-7.13V67.755c0-4.756 2.51-7.125 7.5-7.125h26.57c2.75 0 4.56.68 5.44 2.05.85 1.387 1.29 3.05 1.29 5.075zm-119.91-86.46l59.51 85.71c1.24 2 1.51 3.8.73 5.44-.73 1.61-2.37 2.42-4.84 2.42h-31.83c-2.47 0-4.42-.44-5.79-1.29-1.37-.89-2.72-2.33-3.96-4.33l-37.4-58.38-37.44 58.38c-2.24 3.74-5.59 5.62-10.11 5.62H84.826c-2.52 0-4.057-.76-4.688-2.25-.625-1.49-.313-3.37.925-5.61l59.497-85.71L84.432 68.1c-1.244-1.732-1.562-3.42-.925-5.033.63-1.63 2.175-2.437 4.688-2.437h31.795c2.76 0 4.56.437 5.44 1.293.88.876 2.06 2.32 3.53 4.32l35.19 54.277 34.8-54.277c1.27-2 2.38-3.444 3.39-4.32 1-.856 2.61-1.293 4.86-1.293h33.33c2.95 0 4.71.756 5.22 2.244.5 1.487.13 3.225-1.12 5.225zM62.774 236.91c0 2-.438 3.69-1.294 5.05-.875 1.37-2.682 2.08-5.445 2.08h-26.59c-4.957 0-7.445-2.39-7.445-7.13V67.755c0-4.756 2.488-7.125 7.445-7.125h26.59c2.763 0 4.57.68 5.445 2.05.88 1.387 1.294 3.05 1.294 5.075zm0 0"/></svg>