<svg xmlns="http://www.w3.org/2000/svg" viewBox="0 0 732 381"><path d="M91.17 189.26c6.4-3.72 112.87-66.82 117.28-69.39 5.72-3.33 11.98 1.89 10.62 7.25-1.09 4.29-20.14 86.86-22.06 94.21-1.25 4.83-6.53 8.74-11.32 7.51-5.35-1.38-90.36-25.26-96.45-27.03-4.46-1.29-4.37-8.88 1.93-12.55m350.7 7.32v-14.72H362.2l7.58-8.77 70.05-86.56V71.81h-89.37v14.72h69.62c-4.09 4.2-8.4 9.14-12.94 14.81l-63.92 79.92v15.32zM328.27 71.81h-16.12v17.62h16.12zm0 32.11h-16.12v92.66h16.12zm193.4 92.51v-16.02H472.9v-25.6h43.75v-16.02H472.9V117.9h47.07v-16.02h-64.69v94.55zm31.42 0v-62.05l35.37 62.05h17.66v-94.55h-16.35v63.34l-35.9-63.34h-17.12v94.55zm79.53-11.21c7.68 8.57 18.01 12.86 31 12.86 12.84 0 23.09-4.3 30.77-12.93 7.67-8.62 11.5-20.56 11.5-35.82 0-15.39-3.86-27.41-11.59-36.05-7.74-8.65-18.04-12.97-30.91-12.97-7.12 0-13.4 1.25-18.84 3.75-4.1 1.84-7.86 4.68-11.3 8.51-3.44 3.83-6.15 8.15-8.14 12.96-2.66 6.54-3.99 14.62-3.99 24.25 0 15.05 3.83 26.86 11.5 35.44m13.39-60.51c4.45-5.4 10.31-8.1 17.58-8.1 7.28 0 13.11 2.67 17.5 8 4.39 5.34 6.59 13.43 6.59 24.27 0 10.97-2.26 19.2-6.77 24.68-4.51 5.49-10.28 8.23-17.32 8.23-7.03 0-12.83-2.76-17.4-8.3-4.57-5.52-6.86-13.64-6.86-24.36 0-10.88 2.23-19.02 6.68-24.42m56.82 226.43v7.3h-3.5v-7.32l-6.38-10.09h4.12l4.1 6.89 4.01-6.89h4.05zm-18.24 7.3l-7.02-11.35v11.35h-3.27v-17.41h3.42l7.13 11.63v-11.63h3.27v17.41zm-23.98-13.35l-2.35 6.46h4.75zm5.05 13.35l-1.52-3.95h-6.96l-1.44 3.95h-3.73l6.79-17.41h3.71l6.98 17.41zm-21.86-13.57c-.38-.42-.84-.67-1.41-.77-.43-.1-1.27-.13-2.54-.13h-1.7v4.95h1.93c1.39 0 2.31-.1 2.78-.28.47-.18.83-.46 1.1-.85.26-.39.39-.84.39-1.35 0-.64-.18-1.16-.55-1.57m3.6 4.21c-.39.73-.89 1.3-1.48 1.72-.6.42-1.21.69-1.82.83-.84.16-2.06.24-3.65.24h-2.3v6.57h-3.51v-17.41h5.64c2.14 0 3.53.1 4.18.26 1 .26 1.84.83 2.51 1.7.67.88 1.01 2.01 1.01 3.4 0 1.06-.2 1.96-.58 2.69m-22.44 9.36v-13.7l-3.45 13.7h-3.39l-3.44-13.7v13.7h-3.27v-17.41h5.26l3.16 11.88 3.13-11.88h5.27v17.41zm-24.11-13.23c-.88-.98-2.04-1.47-3.49-1.47-1.45 0-2.62.5-3.5 1.49-.89.99-1.33 2.49-1.33 4.49 0 1.98.45 3.47 1.36 4.49.91 1.01 2.07 1.53 3.47 1.53 1.4 0 2.55-.51 3.45-1.52.9-1.01 1.35-2.52 1.35-4.54 0-2-.44-3.49-1.31-4.47m2.65 11.15c-1.53 1.59-3.57 2.38-6.13 2.38-2.59 0-4.65-.79-6.17-2.37-1.53-1.58-2.3-3.75-2.3-6.53 0-1.77.27-3.26.8-4.46.4-.89.94-1.69 1.62-2.39.69-.71 1.44-1.23 2.25-1.57 1.09-.46 2.34-.69 3.76-.69 2.56 0 4.61.8 6.16 2.39 1.54 1.59 2.31 3.8 2.31 6.64 0 2.81-.77 5.01-2.3 6.6m-27.37-19.16c-1.1-.83-2.48-1.24-4.14-1.24-1.91 0-3.51.46-4.8 1.37-1.28.92-2.18 2.15-2.7 3.7a14.81 14.81 0 0 0-.78 4.77c0 2.12.3 3.96.92 5.54.62 1.58 1.58 2.76 2.88 3.54 1.3.78 2.71 1.17 4.22 1.17 1.85 0 3.41-.53 4.69-1.6 1.27-1.06 2.14-2.64 2.59-4.73l3.29.83c-.69 2.71-1.93 4.77-3.72 6.19-1.79 1.42-3.98 2.13-6.57 2.13-2.69 0-4.87-.55-6.55-1.64-1.68-1.09-2.95-2.67-3.83-4.74-.88-2.07-1.32-4.3-1.32-6.67 0-2.59.5-4.85 1.49-6.78.99-1.93 2.4-3.39 4.22-4.39 1.83-1.01 3.84-1.51 6.04-1.51 2.49 0 4.58.64 6.27 1.9 1.7 1.27 2.88 3.05 3.55 5.35l-3.24.76c-.58-1.81-1.42-3.12-2.51-3.95m-39.76 21.24l-7.02-11.35v11.35h-3.27v-17.41h3.42l7.13 11.63v-11.63h3.26v17.41zm-20.94-13.23c-.87-.98-2.03-1.47-3.48-1.47-1.45 0-2.62.5-3.51 1.49-.88.99-1.33 2.49-1.33 4.49 0 1.98.46 3.47 1.37 4.49.91 1.01 2.07 1.53 3.47 1.53 1.4 0 2.55-.51 3.45-1.52.9-1.01 1.34-2.52 1.34-4.54 0-2-.43-3.49-1.31-4.47m2.66 11.15c-1.53 1.59-3.57 2.38-6.13 2.38-2.59 0-4.65-.79-6.18-2.37-1.52-1.58-2.29-3.75-2.29-6.53 0-1.77.27-3.26.8-4.46.39-.89.93-1.69 1.61-2.39.69-.71 1.44-1.23 2.26-1.57 1.08-.46 2.33-.69 3.75-.69 2.56 0 4.62.8 6.16 2.39s2.31 3.8 2.31 6.64c0 2.81-.76 5.01-2.29 6.6m-23.67-15.33h3.52v17.41h-3.52zm-10.24 2.94v14.47h-3.51v-14.47h-5.17v-2.94h13.84v2.94zm-21.09 1.12l-2.35 6.46h4.75zm5.05 13.35l-1.52-3.95h-6.96l-1.44 3.95h-3.73l6.78-17.41h3.72l6.97 17.41zm-22.63-13.92c-.65-.52-1.45-.78-2.38-.78-1.29 0-2.34.46-3.14 1.39-.81.92-1.21 2.43-1.21 4.5 0 2.2.4 3.77 1.19 4.7.79.94 1.82 1.41 3.09 1.41.93 0 1.74-.3 2.41-.89.67-.6 1.15-1.54 1.45-2.81l3.41 1.08c-.53 1.9-1.39 3.32-2.61 4.24-1.22.92-2.76 1.38-4.63 1.38-2.31 0-4.21-.79-5.7-2.37-1.49-1.58-2.23-3.74-2.23-6.48 0-2.9.75-5.15 2.24-6.75 1.5-1.61 3.47-2.41 5.91-2.41 2.13 0 3.86.63 5.19 1.89.79.75 1.38 1.82 1.78 3.21l-3.48.83c-.21-.9-.64-1.62-1.29-2.14m-19.52-3.49h3.52v17.41h-3.52zm-17.57 17.41v-17.27h3.51v14.34h8.74v2.93zm-10.11-13.57c-.37-.42-.84-.67-1.41-.77-.42-.1-1.26-.13-2.53-.13h-1.7v4.95h1.93c1.38 0 2.31-.1 2.78-.28.47-.18.83-.46 1.09-.85.27-.39.4-.84.4-1.35 0-.64-.18-1.16-.56-1.57m3.61 4.21c-.39.73-.89 1.3-1.48 1.72-.6.42-1.21.69-1.83.83-.83.16-2.05.24-3.64.24h-2.3v6.57h-3.51v-17.41h5.64c2.14 0 3.53.1 4.18.26 1 .26 1.83.83 2.51 1.7.67.88 1.01 2.01 1.01 3.4 0 1.06-.2 1.96-.58 2.69m-22.75-4.21c-.37-.42-.84-.67-1.41-.77-.42-.1-1.27-.13-2.53-.13h-1.7v4.95h1.93c1.38 0 2.31-.1 2.77-.28.47-.18.84-.46 1.1-.85.27-.39.4-.84.4-1.35 0-.64-.18-1.16-.56-1.57m3.6 4.21c-.38.73-.88 1.3-1.48 1.72-.6.42-1.2.69-1.82.83-.84.16-2.06.24-3.65.24h-2.29v6.57h-3.52v-17.41h5.65c2.14 0 3.53.1 4.18.26.99.26 1.83.83 2.51 1.7.67.88 1 2.01 1 3.4 0 1.06-.19 1.96-.58 2.69m-28.91-7.74c-.79-2.1-1.38-3.81-1.76-5.16-.32 1.6-.77 3.18-1.34 4.75l-2.74 7.3h8.44zm6.52 17.1l-2.91-7.53h-10.4l-2.73 7.53h-3.49l9.55-24.87h3.54l10.19 24.87zm148.01-50.71c-.49-.4-1.24-.59-2.23-.59-1.02 0-1.82.21-2.4.63-.37.27-.55.63-.55 1.08 0 .41.17.77.52 1.06.44.37 1.52.76 3.23 1.16 1.71.41 2.97.83 3.79 1.26.82.43 1.46 1.02 1.93 1.77.46.75.69 1.67.69 2.77 0 1-.27 1.93-.83 2.8-.55.87-1.34 1.52-2.35 1.95-1.02.42-2.28.63-3.79.63-2.2 0-3.89-.51-5.07-1.53-1.18-1.02-1.89-2.5-2.12-4.44l3.43-.34c.2 1.15.62 2 1.25 2.53.63.54 1.48.81 2.55.81 1.13 0 1.98-.24 2.55-.72.58-.48.87-1.04.87-1.68 0-.41-.12-.76-.37-1.05-.24-.29-.66-.54-1.26-.75-.41-.15-1.35-.4-2.82-.77-1.88-.46-3.2-1.03-3.96-1.72-1.07-.96-1.61-2.12-1.61-3.5 0-.89.26-1.72.76-2.49.5-.77 1.23-1.36 2.17-1.77.95-.4 2.09-.6 3.43-.6 2.19 0 3.83.48 4.94 1.44 1.1.96 1.68 2.23 1.73 3.83l-3.51.16c-.15-.9-.47-1.54-.97-1.93m-19.15 0c-.49-.4-1.23-.59-2.22-.59-1.02 0-1.82.21-2.4.63-.37.27-.56.63-.56 1.08 0 .41.18.77.52 1.06.45.37 1.52.76 3.23 1.16 1.72.41 2.98.83 3.8 1.26.82.43 1.46 1.02 1.92 1.77.47.75.7 1.67.7 2.77 0 1-.28 1.93-.83 2.8-.56.87-1.34 1.52-2.35 1.95-1.02.42-2.28.63-3.79.63-2.2 0-3.89-.51-5.07-1.53-1.18-1.02-1.89-2.5-2.12-4.44l3.42-.34c.21 1.15.63 2 1.25 2.53.63.54 1.48.81 2.55.81 1.13 0 1.99-.24 2.56-.72.58-.48.86-1.04.86-1.68 0-.41-.12-.76-.36-1.05-.24-.29-.66-.54-1.26-.75-.42-.15-1.35-.4-2.82-.77-1.88-.46-3.21-1.03-3.97-1.72-1.06-.96-1.6-2.12-1.6-3.5 0-.89.25-1.72.76-2.49.5-.77 1.22-1.36 2.17-1.77.94-.4 2.09-.6 3.42-.6 2.19 0 3.84.48 4.94 1.44 1.11.96 1.68 2.23 1.74 3.83l-3.52.16c-.15-.9-.47-1.54-.97-1.93m-14.18 11.28v2.93h-13.24v-17.41h12.91v2.94h-9.4v3.86h8.75v2.94h-8.75v4.74zm-23.41 2.93l-7.01-11.36v11.36h-3.27v-17.41h3.42l7.13 11.63v-11.63h3.26v17.41zm-20.1-17.41h3.51v17.41h-3.51zm-10.75 3.2c-.5-.4-1.24-.59-2.23-.59-1.02 0-1.82.21-2.4.63-.37.27-.56.63-.56 1.08 0 .41.18.77.53 1.06.44.37 1.51.76 3.23 1.16 1.71.41 2.97.83 3.79 1.26.82.43 1.46 1.02 1.92 1.77.47.75.7 1.67.7 2.77 0 1-.28 1.93-.83 2.8-.56.87-1.34 1.52-2.35 1.95-1.02.42-2.28.63-3.79.63-2.21 0-3.89-.51-5.08-1.53-1.17-1.02-1.88-2.5-2.11-4.44l3.42-.34c.21 1.15.63 2 1.26 2.53.62.54 1.47.81 2.54.81 1.13 0 1.99-.24 2.56-.72.57-.48.86-1.04.86-1.68 0-.41-.12-.76-.36-1.05-.24-.29-.66-.54-1.26-.75-.42-.15-1.35-.4-2.82-.77-1.88-.46-3.2-1.03-3.97-1.72-1.07-.96-1.6-2.12-1.6-3.5 0-.89.25-1.72.76-2.49.5-.77 1.22-1.36 2.17-1.77.94-.4 2.09-.6 3.42-.6 2.19 0 3.84.48 4.94 1.44 1.1.96 1.68 2.23 1.74 3.83l-3.52.16c-.14-.9-.47-1.54-.96-1.93m-15.2 10.37c-.19.87-.54 1.6-1.05 2.19-.51.59-1.19 1.07-2.05 1.42-.85.35-1.97.53-3.35.53-1.66 0-2.92-.2-3.78-.58-.86-.38-1.54-.88-2.04-1.49-.5-.62-.82-1.26-.98-1.93-.23-1-.35-2.48-.35-4.43v-9.28h3.52v9.43c0 1.49 0 2.46.13 2.91.15.71.51 1.28 1.07 1.71.57.44 1.34.65 2.33.65s1.75-.2 2.25-.61c.51-.41.82-.91.92-1.5.1-.59.15-1.58.15-2.96v-9.63h3.52v9.14c0 2.09-.1 3.57-.29 4.43m-26.4-16.46c-.4-.63-.96-1.06-1.7-1.29-.74-.23-2-.35-3.78-.35h-4.98v7.52h5.38c1.46 0 2.51-.1 3.14-.29.84-.25 1.47-.66 1.89-1.24.43-.58.64-1.3.64-2.17 0-.83-.2-1.55-.59-2.18m-10.46 17.37h6.2c1.06 0 1.81 0 2.24-.13.76-.13 1.39-.35 1.9-.67.51-.32.93-.78 1.25-1.38.33-.61.5-1.31.5-2.1 0-.93-.24-1.74-.72-2.42-.47-.68-1.13-1.16-1.97-1.44-.84-.28-2.06-.42-3.64-.42h-5.76zm10.81-10.31c1.51.45 2.66 1.2 3.47 2.26.81 1.07 1.22 2.32 1.22 3.77 0 1.17-.25 2.25-.74 3.25s-1.1 1.77-1.83 2.31c-.72.55-1.63.96-2.72 1.24-1.09.27-2.43.41-4.01.41h-9.49v-24.88h9.34c1.9 0 3.42.26 4.57.76 1.15.51 2.04 1.28 2.7 2.33.65 1.04.97 2.14.97 3.28 0 1.06-.29 2.06-.86 3-.58.94-1.45 1.7-2.62 2.27m-34.6 10.31v2.93h-13.24v-17.41h12.91v2.94h-9.4v3.86h8.75v2.94h-8.75v4.74zm-23.99-10.99c-.66-.52-1.45-.78-2.38-.78-1.29 0-2.34.46-3.14 1.38-.81.93-1.21 2.43-1.21 4.51 0 2.2.39 3.77 1.19 4.7.79.93 1.82 1.4 3.09 1.4.93 0 1.73-.29 2.41-.89.67-.59 1.15-1.53 1.45-2.8l3.41 1.08c-.53 1.9-1.4 3.31-2.61 4.23-1.22.93-2.76 1.39-4.63 1.39-2.31 0-4.21-.79-5.7-2.37-1.49-1.58-2.23-3.74-2.23-6.48 0-2.9.74-5.15 2.24-6.75 1.5-1.61 3.46-2.41 5.9-2.41 2.14 0 3.87.63 5.19 1.89.8.75 1.39 1.81 1.79 3.21l-3.49.83c-.2-.9-.63-1.62-1.28-2.14m-20.06.2c-.32-.36-.75-.59-1.32-.69-.29 0-1.14-.1-2.57-.1h-2.75v4.42h2.61c1.68 0 2.74-.1 3.16-.21.42-.14.75-.39.98-.74.24-.35.36-.78.36-1.31 0-.58-.16-1.05-.47-1.41m-.51 6.04c.76.44 1.39.93 1.89 1.46.49.53 1.16 1.47 2 2.82l2.12 3.4h-4.2l-2.54-3.79c-.9-1.35-1.52-2.21-1.86-2.56-.33-.35-.68-.59-1.05-.72s-.96-.2-1.77-.2h-.72v7.27h-3.51v-17.41h7.4c1.86 0 3.21.16 4.06.47.84.31 1.51.87 2.02 1.67.51.8.76 1.71.76 2.74 0 1.31-.38 2.38-1.15 3.24-.77.85-1.92 1.38-3.45 1.61m-16.56 3.84c-.19.87-.54 1.6-1.05 2.19-.52.59-1.2 1.07-2.05 1.42-.86.35-1.97.53-3.35.53-1.66 0-2.92-.2-3.78-.58-.86-.38-1.54-.88-2.04-1.49-.5-.62-.83-1.26-.99-1.93-.23-1-.34-2.48-.34-4.43v-9.28h3.51v9.43c0 1.49.1 2.46.13 2.91.16.71.52 1.28 1.08 1.71.56.44 1.34.65 2.32.65 1 0 1.75-.2 2.26-.61.51-.41.81-.91.91-1.5.11-.59.16-1.58.16-2.96v-9.63h3.52v9.14c0 2.09-.1 3.57-.29 4.43m-24.19-9.39c-.87-.98-2.03-1.47-3.48-1.47-1.45 0-2.62.49-3.51 1.48-.89 1-1.33 2.5-1.33 4.5 0 1.97.46 3.47 1.37 4.48.91 1.02 2.07 1.53 3.47 1.53 1.4 0 2.55-.5 3.45-1.51.9-1.01 1.35-2.53 1.35-4.55 0-1.99-.44-3.48-1.32-4.46m2.66 11.15c-1.53 1.58-3.58 2.38-6.13 2.38-2.59 0-4.65-.79-6.18-2.37-1.53-1.58-2.29-3.76-2.29-6.53 0-1.77.26-3.26.79-4.47a8.2 8.2 0 0 1 1.63-2.38c.68-.71 1.43-1.23 2.25-1.57 1.08-.46 2.33-.69 3.75-.69 2.57 0 4.62.8 6.16 2.39s2.31 3.8 2.31 6.64c0 2.81-.76 5.01-2.29 6.6m-27.27-19.11c-.98-.81-2.42-1.21-4.33-1.21-1.99 0-3.44.37-4.35 1.1-.91.73-1.37 1.61-1.37 2.64 0 .89.32 1.62.97 2.2.63.58 2.29 1.17 4.96 1.77 2.67.61 4.51 1.14 5.51 1.59 1.45.67 2.51 1.51 3.2 2.54.69 1.02 1.04 2.2 1.04 3.54 0 1.32-.38 2.57-1.14 3.74-.76 1.17-1.85 2.08-3.27 2.73-1.42.65-3.01.98-4.79.98-2.25 0-4.14-.33-5.66-.99-1.52-.66-2.71-1.64-3.58-2.96-.86-1.32-1.32-2.81-1.36-4.47l3.1-.27c.15 1.24.49 2.26 1.03 3.06.54.8 1.37 1.44 2.5 1.93 1.13.5 2.4.74 3.82.74 1.25 0 2.36-.19 3.33-.56.96-.37 1.67-.88 2.14-1.53.47-.65.71-1.37.71-2.13 0-.78-.23-1.47-.68-2.05-.46-.58-1.2-1.07-2.25-1.47-.66-.25-2.14-.66-4.42-1.21-2.29-.55-3.89-1.06-4.81-1.55-1.18-.62-2.07-1.4-2.65-2.32-.58-.92-.87-1.95-.87-3.09 0-1.26.35-2.43 1.06-3.53.72-1.09 1.76-1.91 3.13-2.48 1.37-.57 2.89-.85 4.56-.85 1.84 0 3.47.3 4.88.89 1.41.59 2.49 1.47 3.25 2.62.76 1.16 1.16 2.47 1.22 3.92l-3.15.24c-.18-1.57-.75-2.76-1.73-3.56m-37.95 21.23l-7.02-11.36v11.36h-3.27v-17.41h3.42l7.13 11.63v-11.63h3.26v17.41zm-16.23-2.93v2.93h-13.24v-17.41h12.91v2.94h-9.39v3.86h8.74v2.94h-8.74v4.74zm-23.23-10.64c-.37-.42-.84-.67-1.41-.78-.42-.1-1.26-.12-2.53-.12h-1.7v4.95h1.93c1.38 0 2.31-.1 2.78-.28.46-.18.83-.47 1.09-.85.27-.39.4-.84.4-1.36 0-.63-.18-1.15-.56-1.56m3.6 4.21c-.39.73-.88 1.3-1.48 1.72-.59.41-1.2.69-1.82.82-.84.17-2.05.25-3.64.25h-2.3v6.57h-3.51v-17.41h5.64c2.13 0 3.53.1 4.18.26 1 .26 1.83.83 2.51 1.7.67.88 1.01 2.01 1.01 3.39 0 1.07-.2 1.97-.59 2.7m-24.67-8.36c-.69-1.51-1.69-2.68-3.01-3.52-1.32-.83-2.8-1.24-4.43-1.24-2.33 0-4.34.8-6.02 2.4-1.68 1.6-2.52 4.27-2.52 8.02 0 2.99.81 5.36 2.42 7.08 1.61 1.73 3.63 2.59 6.06 2.59 2.48 0 4.52-.87 6.12-2.61 1.6-1.75 2.4-4.22 2.4-7.42 0-2.03-.34-3.79-1.02-5.3m2.89 12.09c-1.02 1.99-2.46 3.5-4.33 4.52a12.416 12.416 0 0 1-6.04 1.54c-2.34 0-4.43-.57-6.28-1.7a10.968 10.968 0 0 1-4.19-4.63c-.95-1.96-1.42-4.03-1.42-6.21 0-4.13 1.11-7.37 3.32-9.7 2.22-2.34 5.08-3.51 8.59-3.51 2.3 0 4.37.55 6.21 1.65 1.84 1.1 3.25 2.63 4.21 4.59.97 1.96 1.46 4.19 1.46 6.68 0 2.52-.51 4.77-1.53 6.77m-41.9 2.7v2.93H84.3v-17.41h12.91v2.94h-9.4v3.86h8.75v2.94h-8.75v4.74zm-23.31 2.93v-7.61h-6.89v7.61h-3.51v-17.41h3.51v6.85h6.89v-6.85h3.51v17.41zM48.95 300v21.94h-3.29V300h-8.2v-2.94h19.72V300zm11.93-152.77c6.33-3.83 112.74-67.03 117.11-69.66 5.66-3.43 4.08-11.42-1.27-12.8-4.29-1.1-85.89-23.96-93.26-25.8-4.84-1.21-10.81 1.54-12.02 6.34-1.35 5.35-21.14 91.41-22.51 97.59-1 4.54 5.71 8.1 11.95 4.33M47 22c-13.81 0-25 11.19-25 25v174.59c0 13.81 11.19 25 25 25h172.47c13.81 0 25-11.19 25-25V47c0-13.81-11.19-25-25-25zm0 4.75h172.47a20.208 20.208 0 0 1 14.32 5.93 20.28 20.28 0 0 1 4.34 6.43c1.05 2.5 1.59 5.15 1.59 7.89v174.59a20.208 20.208 0 0 1-5.93 14.32 20.212 20.212 0 0 1-6.44 4.34 20.03 20.03 0 0 1-7.88 1.59H47c-2.73 0-5.39-.53-7.88-1.59a20.212 20.212 0 0 1-6.44-4.34 20.208 20.208 0 0 1-5.93-14.32V47c0-2.74.54-5.39 1.59-7.89a20.28 20.28 0 0 1 4.34-6.43A20.208 20.208 0 0 1 47 26.75z"/></svg>