<svg xmlns="http://www.w3.org/2000/svg" viewBox="0 0 600 400"><path fill="#2E2A25" d="M305.41 162.176c0-9.317.21-18.642-.097-27.95-.14-4.204 1.39-6.29 5.234-7.72 9.957-3.702 20.055-6 30.723-4.37 13.625 2.084 21.453 10.152 21.888 23.842.487 15.358-.016 30.746.227 46.116.073 4.598-2.35 4.47-5.666 4.66-4.083.232-5.106-1.345-5.052-5.196.19-13.507.145-27.02.043-40.53-.098-13.102-5.17-18.125-18.232-18.364-16.58-.303-18.32 1.388-18.32 17.81 0 13.744-.138 27.49.086 41.23.065 4-1.2 5.115-5.118 5.077-3.92-.038-5.982-.547-5.816-5.257.344-9.772.103-19.563.1-29.347zM199.926 158.767c0-6.754-.276-13.523.098-20.256.247-4.44-1.354-5.79-5.548-5.374-3.535.35-6.83.654-6.846-4.976-.016-5.383 2.83-5.717 6.614-5.224 4.688.61 6.282-1.34 5.73-5.834-.255-2.062-.295-4.237.07-6.27.83-4.608 5.07-4.517 8.233-4.772 3.895-.314 1.847 3.322 2.377 5.228.18.648.02 1.39.03 2.088.16 10.886-1.35 9.205 9.788 9.62 2.833.106 6.83-2.087 8.293 2.537 1.638 5.18-.31 7.543-6.04 7.65-12.054.225-12.052.225-12.05 12.16.003 10.013-.06 20.028.02 30.042.085 10.46 2.695 12.657 13.118 11.62 1.853-.183 5.022-2.483 4.998 1.98-.017 3.232 1.332 6.894-3.734 8.39-11.962 3.532-23.87-3.84-24.823-16.264-.57-7.406-.104-14.892-.104-22.342h-.224zM86.876 167.13c0 12.813.292 25.634-.08 38.436-.386 13.235-7.872 21.074-19.912 21.67-1.893.095-4.77 1.055-4.45-2.44.26-2.835-2.057-6.603 2.735-8.16 10.244-3.33 11.098-4.507 11.122-15.14.054-23.995.183-47.992-.112-71.983-.064-5.223 1.48-6.907 6.582-6.93 5.836-.027 4.036 4.03 4.07 6.81.156 12.578.068 25.158.068 37.738h-.024zM177.92 151.856c.002 13.285-.138 26.57.087 39.852.07 4.073-1.364 5.062-5.22 5.07-3.88.01-5.172-1.044-5.146-5.066.166-26.102.167-52.206.002-78.308-.025-4.007 1.455-5.748 5.128-6.925 4.33-1.39 5.25.084 5.207 4.124-.15 13.75-.057 27.502-.056 41.252zM87.542 110.91c.854 5.066.246 8.065-5.347 7.447-3.46-.382-6.774.637-6.66-5.097.132-6.686 4.945-6.608 9.01-7.285 5.202-.866 2.387 3.636 2.997 4.936zM433.188 150.545c-1.193-20.034-12.698-30.173-32.467-28.99-3.48.21-6.977.667-10.395 1.36-9.36 1.9-9.38 2.027-8.196 12.773 29.373-5.883 38.67-2.51 40.032 14.877-2.816-.133-5.567-.306-8.32-.385-7.95-.226-15.846-.03-23.424 2.876-11.18 4.29-15.724 10.77-15.456 22.18.245 10.447 5.702 17.374 16.49 20.8 8.483 2.693 17.005 2.62 25.46-.076 10.806-3.444 15.838-9.692 16.305-20.926.338-8.152.455-16.352-.03-24.49zm-10.66 21.51c.108 9.59-4.01 13.98-13.618 14.958-4.864.495-9.72.553-14.487-1.016-5.452-1.796-8.522-5.213-8.744-11.17-.22-5.848 2.336-9.74 7.52-12.155 4.043-1.884 10.26-2.924 17.76-2.872 13.842 1.034 11.412-1.882 11.57 12.254zM156.09 149.697c-1.214-19.364-13.052-29.446-32.504-28.152-3.018.2-6.036.616-9.017 1.142-10.334 1.823-10.328 1.86-9.436 13.274 9.16-2.445 18.025-4.315 27.205-2.477 6.224 1.246 10.388 4.555 12.313 10.896 1.583 5.214-.034 6.594-5.134 6.105-10.074-.966-20.016-.49-29.402 3.988-8.533 4.072-12.422 10.924-12.212 20.205.208 9.207 4.163 16.18 12.8 19.915 9.824 4.25 19.82 4.357 30.033 1.094 9.937-3.174 15.017-10.002 15.453-20.107.37-8.612.437-17.284-.102-25.883zm-10.636 21.953c.17 10.475-3.852 14.564-14.48 15.432-4.887.4-9.754.44-14.427-1.4-4.75-1.868-7.49-5.174-7.876-10.43-.4-5.5 1.83-9.42 6.547-12.06 3.815-2.138 10.42-3.36 18.31-3.407 14.826.93 11.715-1.302 11.927 11.865zM245.326 124.678c-4.208 2.327-2.603 6.344-2.03 9.317.74 3.844 3.81.796 5.558.447 7.378-1.475 14.72-2.47 22.172-.827 5.908 1.302 10.06 4.518 11.7 10.66 1.224 4.59.437 6.836-5.024 6.228-9.35-1.04-18.628-.506-27.503 3.07-9.45 3.804-14.167 10.577-14.232 20.324-.067 10.1 4.75 17.43 14.086 21.22 8.51 3.454 17.24 3.658 26.068 1.405 12.614-3.22 17.9-9.972 18.022-22.964.035-3.732.005-7.465.01-11.197.005-3.265.02-6.53.003-9.797-.13-25.714-26.03-40.495-48.83-27.885zm38.183 47.18c.13 10.31-3.648 14.275-13.91 15.192-5.11.456-10.19.488-15.116-1.408-5.194-1.998-7.688-5.947-7.816-11.244-.12-5.015 2.135-8.945 6.752-11.296 5.78-2.944 12.057-3.132 18.605-3.29 14.027.89 11.31-1.47 11.484 12.047zM523.724 117.027c-19.438 3.202-39.032 2.055-58.576 2.194-17.69.127-18.92 1.31-18.305 19.157.008.233.025.47-.002.7-.44 3.672 1.252 4.842 4.835 4.813 17.01-.14 34.037.4 51.025-.22 20.883-.762 37.028-13.274 43.266-33.348-7.785 3.594-14.906 5.496-22.242 6.705zM461.2 134.613c-1.818.18-3.177-.9-3.478-2.73-.338-2.063 1.31-2.7 2.544-3.352 2.23.184 3.306 1.244 3.35 3.136.04 1.583-.892 2.796-2.416 2.947zM515.43 147.812c-17.053 3.088-34.3 2.138-51.493 2.213-18.116.08-18.022.017-17.18 18.338.162 3.497 1.06 5.022 4.775 4.938 13.25-.3 26.59.486 39.74-.774 17.336-1.66 29.792-11.195 37.876-28.006-5.296 1.287-9.464 2.522-13.717 3.292zm-54.95 16.642c-1.867-.17-2.878-1.424-2.636-3.226.19-1.41 1.23-2.356 2.793-2.452 2.027-.125 2.822 1.004 2.917 2.875-.24 1.79-1.13 2.982-3.074 2.804zM486.093 178.945c-11.41.154-22.82.365-34.23.487-2.75.03-5.208.032-5.035 3.893.328 7.325-1.954 13.587-8.8 18.104 35.555 5.27 64.766-5.93 69.282-26.468-6.91 2.95-13.99 3.885-21.217 3.983zm-24.847 14.727c-1.774.24-3.11-.784-3.426-2.532-.35-1.932.963-2.802 2.67-3.188 1.903-.02 2.996.87 3.01 2.8.008 1.51-.77 2.72-2.254 2.92z"/><g fill="#2E2A25"><path d="M99.932 219.467c0-.93.13-1.808.39-2.628s.642-1.54 1.142-2.154 1.117-1.1 1.853-1.455c.735-.353 1.577-.53 2.525-.53s1.794.177 2.538.53 1.367.84 1.872 1.456.89 1.333 1.154 2.153a8.5 8.5 0 0 1 .397 2.627c0 .932-.132 1.808-.397 2.628a6.374 6.374 0 0 1-1.154 2.142 5.454 5.454 0 0 1-1.872 1.442c-.744.353-1.59.53-2.538.53s-1.79-.177-2.525-.53a5.43 5.43 0 0 1-1.853-1.443c-.5-.607-.88-1.32-1.14-2.142a8.625 8.625 0 0 1-.392-2.628zm1.91 0c0 .692.092 1.347.276 1.962.184.614.45 1.148.795 1.602a3.85 3.85 0 0 0 1.263 1.076c.496.266 1.05.397 1.667.397s1.17-.132 1.667-.397c.496-.265.917-.623 1.263-1.076s.613-.987.8-1.603.283-1.27.283-1.963-.094-1.346-.282-1.96-.455-1.155-.8-1.616c-.347-.46-.768-.824-1.264-1.09s-1.05-.396-1.667-.396-1.17.133-1.667.397a3.8 3.8 0 0 0-1.263 1.09c-.346.462-.61 1-.795 1.616a6.804 6.804 0 0 0-.276 1.96zM115.426 212.93h1.91l-.077 2c.4-.728.877-1.28 1.43-1.66.55-.38 1.193-.57 1.928-.57.137 0 .29.012.455.037.167.026.314.064.442.116v1.974c-.41-.146-.727-.218-.95-.218-.512 0-.967.095-1.364.287s-.734.45-1.012.77-.49.692-.635 1.115-.218.865-.218 1.327v7.87h-1.91v-13.05zM135.855 231.338h-1.95v-7.333c-.23.36-.503.678-.82.955-.315.278-.646.51-.993.692a4.774 4.774 0 0 1-1.07.417c-.368.093-.718.14-1.05.14-.89 0-1.676-.177-2.36-.53a5.063 5.063 0 0 1-1.724-1.456 6.67 6.67 0 0 1-1.064-2.16c-.244-.825-.366-1.707-.366-2.647s.124-1.82.372-2.64c.248-.822.61-1.537 1.083-2.148a5.208 5.208 0 0 1 1.744-1.45c.688-.354 1.476-.53 2.365-.53a4.1 4.1 0 0 1 1.058.145c.363.1.718.244 1.064.437s.67.43.974.71c.304.283.566.604.79.963v-1.975h1.948v18.408zm-1.948-11.922a6.9 6.9 0 0 0-.275-1.975 5.248 5.248 0 0 0-.776-1.607 3.815 3.815 0 0 0-1.2-1.084 3.095 3.095 0 0 0-1.557-.398c-.565 0-1.076.133-1.533.397-.458.265-.85.626-1.18 1.083-.328.457-.58.993-.755 1.608a7.185 7.185 0 0 0-.263 1.976c0 .7.087 1.36.262 1.98.175.62.427 1.16.756 1.622.33.46.722.824 1.18 1.09a2.99 2.99 0 0 0 1.53.396c.557 0 1.065-.128 1.527-.384.46-.257.86-.605 1.192-1.045.333-.44.594-.957.782-1.552.187-.594.29-1.23.307-1.903v-.204zM149.926 225.75h-1.91v-1.976c-.675.778-1.408 1.34-2.2 1.686-.79.347-1.6.52-2.428.52-.607 0-1.152-.09-1.635-.27a3.317 3.317 0 0 1-1.23-.78 3.452 3.452 0 0 1-.776-1.232c-.18-.48-.27-1.02-.27-1.628v-9.37h1.937v9.127c0 .453.053.833.16 1.14s.263.56.468.758c.205.196.455.337.75.423.295.085.626.128.993.128.582 0 1.128-.104 1.64-.314.514-.21.962-.486 1.347-.833.384-.347.688-.744.91-1.193.222-.448.333-.912.333-1.39V212.7h1.91v13.05zM155.6 219.813a5.43 5.43 0 0 0 .32 1.77c.205.572.485 1.078.84 1.52.354.44.77.792 1.25 1.057.48.265.995.397 1.55.397 1.88 0 3.125-.872 3.73-2.615h1.757a5.222 5.222 0 0 1-2.006 3.173c-.49.362-1.034.64-1.628.832-.594.192-1.21.29-1.853.29-.915 0-1.74-.19-2.48-.565s-1.368-.883-1.884-1.52a7 7 0 0 1-1.2-2.218 8.357 8.357 0 0 1-.422-2.673c0-.87.14-1.705.417-2.5.278-.794.676-1.493 1.193-2.096s1.143-1.08 1.878-1.436c.736-.354 1.56-.532 2.475-.532.88 0 1.677.16 2.39.48.715.32 1.322.763 1.822 1.327a5.9 5.9 0 0 1 1.153 2.013c.27.777.404 1.62.404 2.525v.77H155.6zm7.717-1.5a4.68 4.68 0 0 0-.3-1.538 3.653 3.653 0 0 0-.783-1.244 3.62 3.62 0 0 0-1.218-.826c-.474-.2-1.01-.3-1.61-.3a3.49 3.49 0 0 0-1.492.32c-.458.213-.857.5-1.2.864s-.61.78-.807 1.25c-.197.47-.3.962-.308 1.475h7.717zM170.94 221.94c.008.48.09.886.25 1.22.158.332.37.602.634.807.265.205.58.354.942.448.363.095.758.142 1.186.142.35 0 .716-.032 1.096-.097a3.91 3.91 0 0 0 1.05-.326c.322-.154.586-.363.796-.63.21-.264.314-.602.314-1.012 0-.367-.11-.684-.333-.948a3.06 3.06 0 0 0-.885-.7c-.368-.2-.784-.38-1.25-.537s-.942-.324-1.43-.5c-.486-.175-.963-.365-1.43-.57s-.88-.45-1.25-.737c-.366-.286-.66-.624-.883-1.013s-.333-.856-.333-1.403c0-.573.126-1.073.378-1.5.252-.428.587-.78 1.006-1.058.418-.278.9-.485 1.45-.622a6.99 6.99 0 0 1 1.704-.205c.667 0 1.29.07 1.866.21.577.142 1.08.357 1.506.648.427.29.767.66 1.02 1.108.252.45.39.98.417 1.596-.162 0-.34-.004-.538-.013-.197-.01-.36-.014-.487-.014h-.923c-.043-.35-.147-.643-.314-.878s-.376-.423-.628-.564c-.252-.14-.543-.24-.872-.3s-.677-.09-1.045-.09c-.846 0-1.49.155-1.936.467-.444.313-.667.726-.667 1.238 0 .342.11.64.333.89.222.254.517.478.885.674.367.197.784.38 1.25.552s.944.344 1.436.52c.492.175.97.365 1.436.57s.882.444 1.25.718c.367.273.662.592.884.955s.333.793.333 1.288c0 .71-.14 1.314-.423 1.814-.282.5-.66.91-1.134 1.23s-1.028.553-1.66.697a8.814 8.814 0 0 1-1.987.22c-.667 0-1.3-.09-1.897-.265-.6-.175-1.124-.44-1.577-.8s-.817-.81-1.09-1.347c-.274-.54-.423-1.167-.45-1.885h2zM185.715 209.045v3.884h2.025v1.653h-2.025v8.46c0 .29.036.533.11.726.07.19.172.345.3.46.128.115.28.2.455.25.175.052.37.077.583.077a3.807 3.807 0 0 0 .897-.103v1.577c-.24.068-.502.12-.788.154a7.347 7.347 0 0 1-.866.052c-.35 0-.684-.045-1-.135a2.28 2.28 0 0 1-.84-.436c-.244-.2-.436-.46-.577-.775-.142-.316-.212-.706-.212-1.167v-9.14h-2.025v-1.655h2.025v-3.884h1.937zM191.98 216.43c.033-.642.208-1.197.525-1.667.316-.47.715-.86 1.198-1.167s1.02-.534 1.61-.68a7.285 7.285 0 0 1 1.755-.218c.64 0 1.265.07 1.872.212.606.14 1.145.365 1.615.673.47.308.846.707 1.128 1.198.282.493.423 1.084.423 1.776v6.872a1.31 1.31 0 0 0 .282.775c.085.106.186.192.3.256a.74.74 0 0 0 .366.096c.094 0 .19-.01.29-.032s.21-.054.34-.096v1.576a9.32 9.32 0 0 1-.7.173c-.192.04-.404.06-.635.06a1.758 1.758 0 0 1-1.38-.617c-.362-.41-.57-1.042-.62-1.896-.412.538-.817.972-1.22 1.3s-.8.584-1.197.764c-.397.18-.8.3-1.205.36-.406.06-.82.09-1.237.09a4.39 4.39 0 0 1-1.512-.258c-.47-.17-.878-.417-1.224-.737s-.62-.707-.82-1.16-.302-.957-.302-1.513.122-1.032.366-1.43c.243-.397.566-.736.968-1.02a6.3 6.3 0 0 1 1.372-.717 19.664 19.664 0 0 1 1.564-.526c.53-.153 1.05-.3 1.564-.436s.97-.29 1.372-.46c.4-.17.724-.37.968-.597s.365-.502.365-.827c0-.76-.277-1.31-.832-1.646-.556-.338-1.33-.507-2.32-.507-.384 0-.75.038-1.096.115a2.99 2.99 0 0 0-.917.36 2.22 2.22 0 0 0-.667.627c-.18.256-.295.564-.346.923h-2.013zm8.19 2.178c-.265.282-.613.517-1.045.705-.432.188-.893.356-1.384.506-.49.15-.986.292-1.486.43s-.95.3-1.353.492c-.4.192-.728.426-.98.7-.25.272-.377.614-.377 1.024 0 .376.064.694.192.955.128.262.3.478.513.648.214.17.455.295.725.372.27.076.54.115.814.115.803 0 1.587-.24 2.353-.725.765-.482 1.442-1.23 2.032-2.237v-2.985zM207.306 212.93h1.936v1.974c.675-.777 1.406-1.34 2.192-1.686a5.91 5.91 0 0 1 2.41-.52c.615 0 1.164.09 1.647.27.483.18.894.438 1.23.775.338.338.595.748.77 1.23.175.483.263 1.028.263 1.635v9.37h-1.91v-9.14c0-.444-.054-.822-.16-1.135-.108-.312-.264-.563-.47-.756s-.454-.33-.75-.417a3.586 3.586 0 0 0-.993-.128c-.59 0-1.14.104-1.653.314-.513.21-.962.486-1.346.833a3.856 3.856 0 0 0-.903 1.19 3.144 3.144 0 0 0-.327 1.392v7.846h-1.936v-13.05zM232.375 225.98h-1.91v-1.976c-.453.753-1.004 1.318-1.653 1.7-.65.38-1.316.57-2 .57-.89 0-1.67-.18-2.346-.533s-1.24-.836-1.7-1.447c-.456-.61-.802-1.33-1.037-2.154a9.614 9.614 0 0 1-.354-2.647c0-.94.113-1.823.34-2.647.226-.825.566-1.545 1.02-2.16.452-.615 1.014-1.1 1.685-1.455s1.452-.53 2.34-.53c.317 0 .644.053.98.16.34.106.67.254.995.44.325.19.637.413.936.674.3.26.565.545.795.853v-7.115h1.91v18.267zm-1.91-6.692c-.017-.676-.11-1.31-.275-1.904s-.402-1.11-.705-1.55a3.49 3.49 0 0 0-1.11-1.046 2.873 2.873 0 0 0-1.486-.385c-.565 0-1.07.133-1.514.397s-.818.628-1.122 1.09a5.437 5.437 0 0 0-.7 1.62 7.763 7.763 0 0 0-.243 1.982c0 .7.082 1.358.245 1.974.162.615.396 1.152.7 1.61s.676.817 1.12 1.082.95.397 1.514.397c.572 0 1.08-.133 1.525-.397.444-.265.818-.626 1.122-1.083s.534-.994.692-1.61a7.91 7.91 0 0 0 .236-1.973v-.204zM236.024 219.467c0-.93.13-1.808.39-2.628s.642-1.54 1.142-2.154 1.117-1.1 1.853-1.455c.734-.353 1.576-.53 2.524-.53s1.794.177 2.538.53 1.367.84 1.872 1.456.89 1.333 1.154 2.153a8.5 8.5 0 0 1 .397 2.627c0 .932-.132 1.808-.397 2.628a6.374 6.374 0 0 1-1.154 2.142 5.454 5.454 0 0 1-1.872 1.442c-.744.353-1.59.53-2.538.53s-1.79-.177-2.525-.53a5.43 5.43 0 0 1-1.854-1.443c-.5-.607-.88-1.32-1.14-2.142a8.625 8.625 0 0 1-.392-2.628zm1.91 0c0 .692.092 1.347.276 1.962.184.614.45 1.148.795 1.602a3.85 3.85 0 0 0 1.263 1.076c.496.266 1.05.397 1.667.397s1.17-.132 1.667-.397c.496-.265.917-.623 1.263-1.076s.613-.987.8-1.603.283-1.27.283-1.963-.094-1.346-.282-1.96-.455-1.155-.8-1.616c-.347-.46-.768-.824-1.264-1.09s-1.05-.396-1.667-.396-1.17.133-1.667.397a3.8 3.8 0 0 0-1.263 1.09c-.346.462-.61 1-.795 1.616a6.804 6.804 0 0 0-.276 1.96zM262.255 221.94c.008.48.092.886.25 1.22s.37.602.635.807c.265.205.578.354.94.448.364.095.76.142 1.188.142.35 0 .716-.032 1.096-.097.38-.063.73-.173 1.052-.326a2.21 2.21 0 0 0 .794-.63c.21-.264.314-.602.314-1.012 0-.367-.11-.684-.333-.948a3.06 3.06 0 0 0-.884-.7c-.367-.2-.784-.38-1.25-.537s-.942-.324-1.43-.5c-.486-.175-.963-.365-1.43-.57s-.882-.45-1.25-.737a3.427 3.427 0 0 1-.884-1.013c-.223-.39-.333-.856-.333-1.403 0-.573.125-1.073.377-1.5.252-.428.587-.78 1.006-1.058.42-.278.902-.485 1.45-.622s1.114-.205 1.704-.205c.666 0 1.288.07 1.865.21.576.142 1.08.357 1.506.648.428.29.768.66 1.02 1.108.252.45.39.98.416 1.596-.162 0-.342-.004-.538-.013a12.606 12.606 0 0 0-.487-.014h-.924c-.043-.35-.147-.643-.313-.878a1.9 1.9 0 0 0-.63-.564 2.807 2.807 0 0 0-.87-.3c-.33-.06-.678-.09-1.045-.09-.847 0-1.492.155-1.937.467-.443.313-.665.726-.665 1.238 0 .342.11.64.333.89.223.254.518.478.885.674.367.197.784.38 1.25.552s.944.344 1.436.52c.49.175.97.365 1.435.57s.883.444 1.25.718c.368.273.662.592.885.955s.333.793.333 1.288c0 .71-.14 1.314-.423 1.814s-.66.91-1.135 1.23a4.865 4.865 0 0 1-1.66.697 8.798 8.798 0 0 1-1.986.22 6.68 6.68 0 0 1-1.898-.265c-.6-.175-1.124-.44-1.577-.8s-.816-.81-1.09-1.347c-.273-.54-.423-1.167-.448-1.885h1.998zM274.095 219.467c0-.93.13-1.808.392-2.628.26-.82.64-1.54 1.14-2.154s1.118-1.1 1.854-1.455c.735-.353 1.577-.53 2.526-.53.948 0 1.795.177 2.538.53.744.355 1.367.84 1.872 1.456.504.615.89 1.333 1.153 2.153s.396 1.696.396 2.627c0 .932-.133 1.808-.397 2.628a6.39 6.39 0 0 1-1.154 2.142 5.464 5.464 0 0 1-1.872 1.442c-.743.353-1.59.53-2.538.53-.95 0-1.79-.177-2.525-.53a5.43 5.43 0 0 1-1.852-1.443 6.33 6.33 0 0 1-1.14-2.142 8.625 8.625 0 0 1-.393-2.628zm1.91 0c0 .692.092 1.347.275 1.962s.45 1.148.795 1.602a3.87 3.87 0 0 0 1.263 1.076c.496.266 1.052.397 1.667.397s1.17-.132 1.666-.397a3.876 3.876 0 0 0 1.265-1.076c.346-.453.612-.987.8-1.603.19-.616.283-1.27.283-1.963s-.095-1.346-.282-1.96a5.194 5.194 0 0 0-.8-1.616 3.813 3.813 0 0 0-1.265-1.09c-.494-.264-1.05-.396-1.665-.396s-1.17.133-1.667.397a3.82 3.82 0 0 0-1.263 1.09c-.346.462-.61 1-.795 1.616s-.275 1.268-.275 1.96zM292 207.71v18.27h-1.91v-18.27H292zM306.468 225.75h-1.91v-1.976c-.676.778-1.408 1.34-2.2 1.686-.79.347-1.6.52-2.428.52-.607 0-1.152-.09-1.635-.27a3.31 3.31 0 0 1-1.23-.78 3.423 3.423 0 0 1-.775-1.232c-.18-.48-.27-1.02-.27-1.628v-9.37h1.936v9.127c0 .453.054.833.16 1.14.107.31.263.56.468.758.205.196.455.337.75.423.295.085.626.128.994.128a4.29 4.29 0 0 0 1.64-.314c.514-.21.963-.486 1.347-.833a3.94 3.94 0 0 0 .91-1.193c.223-.448.334-.912.334-1.39V212.7h1.91v13.05zM319.064 216.94a4.755 4.755 0 0 0-.487-1.18 2.778 2.778 0 0 0-.692-.787c-.265-.2-.568-.346-.91-.436s-.722-.135-1.14-.135c-.608 0-1.147.13-1.616.39-.47.262-.868.614-1.193 1.06-.325.444-.572.96-.743 1.544-.17.586-.257 1.2-.257 1.84 0 .667.086 1.32.257 1.96a5.8 5.8 0 0 0 .743 1.706c.325.496.72.896 1.186 1.2s.99.454 1.57.454c.47 0 .887-.083 1.25-.25s.68-.396.95-.686c.27-.29.49-.626.665-1.007.176-.38.306-.788.392-1.225h2.103a6.562 6.562 0 0 1-.577 2.045 5.04 5.04 0 0 1-1.128 1.54 4.736 4.736 0 0 1-1.635.967c-.628.222-1.327.333-2.096.333-.65 0-1.237-.097-1.763-.288a4.905 4.905 0 0 1-1.41-.79 5.27 5.27 0 0 1-1.077-1.178c-.304-.453-.554-.94-.75-1.462s-.344-1.064-.442-1.628a9.767 9.767 0 0 1-.147-1.692c0-.923.135-1.782.404-2.577a6.22 6.22 0 0 1 1.153-2.07 5.408 5.408 0 0 1 1.814-1.384c.708-.338 1.5-.507 2.37-.507.76 0 1.44.107 2.038.32.6.214 1.116.51 1.552.892.436.38.79.828 1.063 1.345a6.45 6.45 0 0 1 .603 1.686h-2.052zM327.148 207.71v2.258h-1.91v-2.257h1.91zm0 5.22v13.05h-1.91v-13.05h1.91zM331.193 219.467c0-.93.13-1.808.392-2.628.26-.82.64-1.54 1.14-2.154s1.118-1.1 1.854-1.455c.733-.353 1.575-.53 2.524-.53.948 0 1.795.177 2.538.53.744.355 1.367.84 1.872 1.456.504.615.89 1.333 1.153 2.153s.397 1.696.397 2.627c0 .932-.133 1.808-.397 2.628a6.39 6.39 0 0 1-1.153 2.142 5.464 5.464 0 0 1-1.872 1.442c-.743.353-1.59.53-2.538.53-.95 0-1.79-.177-2.525-.53a5.43 5.43 0 0 1-1.854-1.443 6.33 6.33 0 0 1-1.14-2.142 8.625 8.625 0 0 1-.393-2.628zm1.91 0c0 .692.093 1.347.276 1.962s.448 1.148.794 1.602a3.87 3.87 0 0 0 1.263 1.076c.496.266 1.052.397 1.667.397s1.17-.132 1.666-.397a3.876 3.876 0 0 0 1.264-1.076c.346-.453.612-.987.8-1.603.19-.616.283-1.27.283-1.963s-.095-1.346-.282-1.96a5.194 5.194 0 0 0-.8-1.616 3.813 3.813 0 0 0-1.265-1.09c-.495-.264-1.05-.396-1.666-.396s-1.17.133-1.667.397a3.82 3.82 0 0 0-1.263 1.09c-.346.462-.61 1-.795 1.616s-.276 1.268-.276 1.96zM346.688 212.93h1.936v1.974c.675-.777 1.406-1.34 2.192-1.686a5.914 5.914 0 0 1 2.41-.52c.615 0 1.164.09 1.647.27.482.18.893.438 1.23.775s.594.748.77 1.23c.175.483.263 1.028.263 1.635v9.37h-1.91v-9.14c0-.444-.054-.822-.16-1.135a1.83 1.83 0 0 0-.468-.756 1.837 1.837 0 0 0-.75-.417 3.59 3.59 0 0 0-.994-.128c-.59 0-1.14.104-1.653.314a4.56 4.56 0 0 0-1.346.833 3.853 3.853 0 0 0-.903 1.19 3.144 3.144 0 0 0-.326 1.392v7.846h-1.936v-13.05zM362.81 219.813c.01.606.115 1.196.32 1.77.206.572.485 1.078.84 1.52s.77.792 1.25 1.057.996.397 1.552.397c1.88 0 3.123-.872 3.73-2.615h1.756c-.146.684-.393 1.293-.743 1.827s-.77.98-1.263 1.345a5.648 5.648 0 0 1-1.628.833 5.994 5.994 0 0 1-1.853.29c-.914 0-1.74-.19-2.48-.565a5.76 5.76 0 0 1-1.884-1.52 7 7 0 0 1-1.2-2.218 8.385 8.385 0 0 1-.422-2.673c0-.87.14-1.705.417-2.5a6.45 6.45 0 0 1 1.193-2.096 5.717 5.717 0 0 1 1.878-1.436c.735-.354 1.56-.532 2.475-.532.88 0 1.678.16 2.392.48.713.32 1.32.763 1.82 1.327s.885 1.235 1.153 2.013c.27.777.404 1.62.404 2.525v.77h-9.704zm7.717-1.5a4.654 4.654 0 0 0-.302-1.538 3.665 3.665 0 0 0-.78-1.244 3.64 3.64 0 0 0-1.22-.826 4.11 4.11 0 0 0-1.608-.3 3.49 3.49 0 0 0-1.493.32c-.457.213-.857.5-1.2.864s-.61.78-.807 1.25c-.196.47-.3.962-.308 1.475h7.717zM378.15 221.94c.007.48.09.886.25 1.22s.368.602.634.807c.265.205.578.354.94.448.364.095.76.142 1.188.142.35 0 .716-.032 1.096-.097.38-.063.73-.173 1.052-.326a2.21 2.21 0 0 0 .794-.63c.21-.264.314-.602.314-1.012 0-.367-.11-.684-.333-.948a3.06 3.06 0 0 0-.885-.7c-.367-.2-.784-.38-1.25-.537s-.942-.324-1.43-.5c-.486-.175-.963-.365-1.43-.57s-.882-.45-1.25-.737a3.427 3.427 0 0 1-.884-1.013c-.223-.39-.333-.856-.333-1.403 0-.573.126-1.073.378-1.5.253-.428.588-.78 1.007-1.058.42-.278.902-.485 1.45-.622s1.114-.205 1.704-.205c.667 0 1.29.07 1.866.21.576.142 1.08.357 1.506.648.428.29.768.66 1.02 1.108.252.45.39.98.416 1.596-.162 0-.342-.004-.538-.013a12.606 12.606 0 0 0-.487-.014h-.923c-.043-.35-.147-.643-.313-.878a1.9 1.9 0 0 0-.63-.564 2.807 2.807 0 0 0-.87-.3c-.33-.06-.678-.09-1.045-.09-.847 0-1.492.155-1.937.467-.444.313-.666.726-.666 1.238 0 .342.11.64.332.89.223.254.518.478.885.674.367.197.784.38 1.25.552s.944.344 1.436.52c.49.175.97.365 1.436.57s.882.444 1.25.718c.367.273.66.592.884.955s.333.793.333 1.288c0 .71-.14 1.314-.423 1.814s-.66.91-1.135 1.23a4.865 4.865 0 0 1-1.66.697 8.798 8.798 0 0 1-1.987.22 6.68 6.68 0 0 1-1.897-.265c-.6-.175-1.124-.44-1.577-.8s-.817-.81-1.09-1.347c-.274-.54-.424-1.167-.45-1.885h2zM412.406 207.813v1.757h-6.013v16.41h-1.936v-16.41h-6.013v-1.757h13.962zM414.63 223.454v2.525h-2.46v-2.526h2.46zM421.036 207.813v18.166H419.1v-18.167h1.936zM428.068 223.454v2.525h-2.46v-2.526h2.46z"/></g></svg>