<svg xmlns="http://www.w3.org/2000/svg" viewBox="0 0 442.1 274.7"><path d="M205.4 222.5l5-6.3.3 6.3h-5.3zm13-12h-8.3c-1.1 0-2.2.6-2.9 1.5l-15.7 18.1h7.8l3.1-3.8h8.4l.2 3.8h9.3m-86.2-7.6l5-6.3.3 6.3h-5.3zm13-12h-8.4c-.9 0-2.1.6-2.8 1.5l-15.7 18.1h7.8l3.1-3.8h8.4l.3 3.8h9.3m-71.6-7.6l5-6.3.3 6.3h-5.3zm13-12h-8.3c-1.1 0-2.2.6-2.9 1.5l-15.7 18.1h7.7l3.2-3.8h8.4v3.8h9.3m188.2-4.2l5.9-15.4H277l-7.6 19.6h21.2l1.6-4.2m-31.6-9.1c-.6 1.4-2.3 2.5-4 2.5h-5.2l1.9-5h5.2c1.7 0 2.6 1.1 2.1 2.5m-.7-6.2h-14.5l-7.5 19.5h9.3l2.8-7.1h2.8l1.8 7.1h10.2l-2.5-7.8c4.2-.9 6.6-2.8 7.6-5.5 1.6-3.9-1.3-6.2-10-6.2m-142.5 6.2c-.6 1.4-2.3 2.5-4 2.5h-5.2l1.9-5h5.2c1.7 0 2.6 1.1 2.1 2.5m-.7-6.2h-14.5l-7.5 19.5h9.3l2.8-7.1h5.1c8.7 0 13.3-2.3 14.8-6.2 1.6-3.9-1.3-6.2-10-6.2m-52.9 12.9c-2.6 6.7-8.9 7.2-13.3 7.2-2.6 0-4.7-.2-6.5-.6l1.5-4.2c4.3.5 8 .1 9.4-3.6l4.6-11.8h9.3m265.7 19.7h-7.6l-6.3-11.6-4.4 11.6h-7.6l7.5-19.6h8.8l5.6 10.3 4-10.3h7.5m-164.8 19.6h-7.5l-6.4-11.6-4.4 11.6h-7.6l7.5-19.6h8.8l5.6 10.3 4-10.3h7.5m178.2 19.6h-22.7l7.5-19.6h22.7l-1.4 3.8h-13.4l-1.5 3.9h11.1l-1.4 3.8h-11.2l-1.5 3.9h13.4m-61.8 4.2h-9.3l7.5-19.6h9.3m-78 19.6h-9.3l7.5-19.6h9.3M395.5 224c-2 5.1-8.8 6.7-16.1 6.7-7.4 0-12.1-1.6-11-6.7h9.3c-.3 1.4.6 2.2 3.4 2.2 2.7 0 4.5-.9 5-2.2 1.3-3.3-17.1-.1-14.2-7.7 1.7-4.3 8.1-6.3 15.4-6.3 7.4 0 11.5 1.5 10.7 6.3h-9.2c0-1.3-.3-2.3-3-2.3-2.8 0-4.2 1-4.7 2.3-1.4 3.4 17.3 0 14.4 7.7M253.7 121.1c-14 13.6-35 4.9-32.8-11.8 1.6-12.9 17.4-25.8 29.4-32.8v-.3c-1.5-1.5-4.8-4.9-6.9-7.4-5.8-7-16-7.3-22 .4l-34.5 3.2v.3l36.9 2.1c6.6.4 8.7 6.4 2.4 11.2-23.5 17.8-27.6 36.6-22.4 51.6h-.3c-2.1-3.1-3.8-6.9-4.6-10.8-11.3-7.1-20.5-20.5-20.5-37.2 0-24.2 19.8-44.1 44.2-44.1 24.4 0 44.1 19.9 44.1 44.1 0 13.1-5.6 24.2-13 31.4m8.6 41.4h-21.2l7.5-19.6h9.4l-6 15.5h11.9l-1.6 4.1zm-33.1 0l-.1-3.8h-8.5l-3.1 3.8h-7.7l15.7-18.1c.7-.9 1.8-1.5 2.8-1.5h8.4l1.9 19.6h-9.4zm-32 .8c-2.5 0-4.7-.3-6.4-.7l1.5-4.1c4.3.5 8 0 9.4-3.7l4.6-11.8h9.3l-5 13.1c-2.6 6.6-8.9 7.2-13.4 7.2m93.8-44.7c.4-4.4.3-10.6-.4-15.2-1.5 6.7-5.8 15.7-15.1 23.1 8.2-8.8 13.1-19.5 13.8-30.6-1.6-6.1-3.9-12-7-17.3 1.5 11.2-1.2 26-12 38h-.3c9.3-13.5 11.8-29.9 7.7-44.7C265.2 54.9 245.2 44 222.5 44c-22.6 0-42.6 10.9-55.1 27.8-4.1 14.8-1.7 31.2 7.7 44.7-10.9-12-13.5-26.8-11.9-38-3 5.2-5.4 11.1-6.9 17.2.7 11.1 5.6 21.9 13.8 30.6-9.4-7.4-13.7-16.4-15.1-23.1-.6 4.6-.7 10.8-.3 15.2 2.3 7.3 7.4 13.5 12.5 18v.3c-5.7-3.6-8.9-7.1-11.1-10.2 6.3 30.8 33.9 54.5 67.1 54.5 33.2 0 60.8-23.7 67.1-54.5-2.8 3-6 6.5-11.8 10.1v-.3c5.2-4.4 10.2-10.6 12.6-18m-67.3 36.8h5.3l-.3-6.3"/></svg>