<svg xmlns="http://www.w3.org/2000/svg" viewBox="0 0 630 630"><path d="M0 0v630h630V0H0zm479.5 285.9c37.6 0 64.7 13.1 84.2 47.4l-46.1 29.6c-10.2-18.2-21.1-25.4-38.1-25.4-17.3 0-28.3 11-28.3 25.4 0 17.8 11 24.9 36.4 35.9l14.8 6.4c50.3 21.5 78.7 43.5 78.7 93 0 53.3-41.9 82.5-98.1 82.5-55 0-90.5-26.2-107.9-60.6l48.1-27.9c12.7 20.7 29.2 35.9 58.4 35.9 24.5 0 40.2-12.2 40.2-29.2 0-20.3-16.1-27.4-43.1-39.3l-14.8-6.3c-42.7-18.2-71.1-41-71.1-89.2 0-44.4 33.8-78.2 86.7-78.2zm-195.6 3.4h59.2v202.1c0 61.3-36 89.2-88.4 89.2-47.4 0-74.9-24.6-88.8-54.1l48.2-29.2c9.3 16.5 17.7 30.5 38.1 30.5 19.4 0 31.7-7.6 31.7-37.2V289.3z"/></svg>
