<svg xmlns="http://www.w3.org/2000/svg" viewBox="0 0 500 70"><path d="M18.64 3.284V39.26c.16-.22.25-.51.47-.66.49 1.65.1-1.31.73-.88 1.02 2.29-1.13 2.63.73 3.53-1.16.51-.98-.12-1.83.46.25-.77.1-1.01-.2-1.19-.1.61-.15 1.19-.28 1.73.71-.19 1.66-.64 1.99.48-1.43-.71-.12 1.92-1.09 1.78-.25-.62-1.02-.63-1.14-1.41-.15.45-.33.88-.53 1.27.73.18 1.38.72 1.84 1.81 0-.26.3-.51.38 0-.74.88-.98.11-1.46-.45.14 2.98-2.09 3.07-2.56 5.32.3.1.72 0 .73.44-2 1.06-.35-3.5-1.81-1.77 0-.7.1-1.25.23-1.73-.1-.1-.17-.13-.26-.24.39 0 .35-.54.57-.78 0-.1.1-.17.1-.27-.84.47-1.88.78-3.11.93 0 0-.65.13-.98.1h-.59c-1.364 0-2.936-.14-4.507-.72v6.15c1.498.56 3.5.84 5.777.84 10.79 0 14.02-6.71 14.02-13.72v-18c-.3.61-.68 1.13-1.47 1.14-1.01-1.29 1.2-1.14.74-3.1.31.19.53.22.73.21V20c-.31-.13-.71-.26-1.26 0 .1.1.11.16.16.31-.87-.17.2 2.02-1.1 1.33-.1-.48.24-1.39.56-1.67-.44-.85-1.31-1.18-1.73-2.03.45 0 .86-.13.73-.88-.45.1-.74.69-.73-.46 1.87-.11 2.22.68 3.37.65V6.564h-1.23c.41-1.395-.57-1.075-.73-1.773.68-.104-.21-.727.36-.885.23.78.97.948 1.52 1.337V3.284zm13.86 0V46.62c.52.1.72-.28.96.26-.35.32-.57.83-.96 1.11v5.15h7.71c0-.54.17-.96.39-1.31-1.82-1.73-3.21.82-2.56-1.33-.46 0-.49.57-1.08.44-.6-.9-1.2-1.8-1.46-3.1 1.4.1.12-.36.36-1.33 1.63-.65 1.12 1.3 2.55.88 0-1.24.7-1.68 1.22-2.3V30.43h4.65c3.72 0 7.68.4 10.22 2.42 0-.1.1-.1.1-.15h.73c-.1.64.21.86.32 1.31.5.64.89 1.4 1.16 2.28.19 0 .42 0 .66.42-.19.14-.35.23-.48.28.15.68.24 1.4.24 2.23 0 3.36-1.47 5.39-3.74 6.56 0 .48 0 1.04-.35 1.1 0-.32 0-.68.1-.97-1.59.75-3.52 1.14-5.64 1.29 0 .39-.1.67-.41.64 0-.12-.15-.37-.29-.61h-.59c.46.6 1 1.07.88 2.36-1.47-.18-1.62.82-2.18-.44-.76 1.31.79 4.02 0 3.54-1.73-1.45-1.17-2.02-3.28-.89.44.24.64.75.8 1.32h4.88c-1.08-.93-1.75-2.1-.95-1.18 1.77-1.76 3-.24 4.66-1.89-.91 1.65-.29 1.08 1.05.22v.58h.1c.1 0 .17 0 .29-.1.13-.11.25-.24.25-.24l.34-.33-.23-.39.57.14s0 .28.26 0c.25-.25.1-.53.1-.53s.59-.31.61-.26l.11.33c.1 0 1.27.26 1.27.26l2.12-.63v-.85c.38-1.15-.68-.64.57-1.21.66.2 1.18.99 1.06 1.49.15.1.32-.19.46-.12.12-.85-.46-.69.33-1.73.39.25 1.19.75 1.85 1.27 1.69-1.97 2.69-4.62 2.69-8.19 0-6.39-4-10.63-9.88-11.76-.73.2-.91.45-1.24.42 0 .15-1.42.42-1.53-1.13.29-.1.72 0 .73-.44-.69-.19-.91-.96-1.82-.89-.8 2.15-2 1.72-2.9 3.55-.3-1.74-.67-1.3-1.46-1.77.75-.25.77-.69.36-1.33 1.07.11 1.35.61 1.83 0-.58-.25-.11-1.76-.58-2.13-.26 0-.55.1-.83.1.56 1.32-.61 1.07-1.05.11h-.18c-.31.96-.57 2.03-.65 3.3.45 0 .86.13.73.88h-1.1c-.1-.82-.22-1.48-.72-1.77.25 1.19-.76.86-1.09 1.33-1.03-.93.1-1.66-1.1-2.2.32-.56.46-1.04.48-1.49h-3.29V9.14h7.5c4.16 0 9.22 1.51 9.22 7.43 0 3.3-1.18 5.23-3.1 6.39.16.31.28.4.71-.45 0 1.22.6.89 0 1.77 1.35 0 1.17.67 1.82-.44-.12 1.03.1 1.7.36 2.22-.55.1-.76.52-.91 1.05 3.03-1.06 5.37-2.69 6.78-5.1-.65-.15-1.34-.23-1.24-1.27.64 0 1.12-.1 1.46-.45.11-.28.52.14.52.14.49-1.31.74-2.83.74-4.58 0-9.21-7.14-12.564-17.49-12.564zM21.18 7.807c1.11.05.96 1.574 1.64.09.14 1.062-.67.96-.38 2.213.55-.704 1.49-.326 1.82.44-2.74-.593-.66 1.92-2.55 2.21.82-1.68-.51-1.93-1.08-3.096 1.48-.474.85-1.004 0-1.77.21-.07.39-.09.55-.09zm3.51 5.863c.32 1.56-.89 2.35-1.08.89.72.14.72-.59 1.08-.89zm95.91 2.18c-7.3 0-13 3.64-13 11.22v.68c.1 0 .3 0 .4.1-.1 1.38.9 2.51 1.4 1.77.2.55.3 1.19.4 1.78.6-.14 1.9-1.27 1.9-.44-.5 0-1.4 1.42-1.9.66.3.75.6 1.37 1.2 1.55.7-.56 2.6-1.81 2.6.43-1.1-.22-1.8 0-2.4.36.5.4 1 .79 1.6 1.14.1 0 .2 0 .3.15.1.11.3.22.5.33.1 0 .2-.1.2-.15 0 .11.1.22.1.31 1.9 1.1 4.2 2 5.9 3.01 0-.1-.1-.15-.1-.25.4-.1.6-.5.7-.89.7-.18 1 .65 1.1 0-.2 0-.4-.11-.3-.44.7-.33 1.4 1.62.7 1.76-.1-.9-1-.2-1.4.26 1.7 1.1 2.9 2.39 2.9 4.2 0 3.93-3.7 5.22-6.9 5.22-.9 0-2-.17-3.3-.52-.3.25-.6.26-.7-.2-.3-.1-.5-.15-.8-.23-.1.59-.8 1.14-1.5 1.37v.11s0-.11-.1-.11c-1 .28-1.9 0-1.8-1.25.4.62 1.3.69 1.8 1.25-.2-.59-1.2-1.56-.4-1.68.1.56.5.91 1.2.89 0-.22-.1-.53-.2-.91-1-.35-1.9-.78-2.7-1.28l-.1 3.04v.47l-.2 2.43c3.2 1.64 6.7 2 10.1 2 6.4 0 12.6-3.58 12.6-11.37 0-6.28-4.5-8.55-8.7-10.48v-.1h-.2c.1 0 .1.1.2.1 0 .22.2.48-.1.57-.3-.85-1.1-.98-1.7-1.46-2.9-1.32-5.1-2.76-5.1-5.55v-.61c-.2-.35-.5-.54-.8-.77-.1 2.65 1.3 3.27 1.4 5.76-.7-3.01-2.5-2.57-3.2-4.88 2 .53 2-1.72 1.4-3.1 1.1-.21 1-1.99 1.8-2.66-.4 2.08.9-.61 1.1.89-.3.1-1.1 1.46-.4 1.33.4-1.11 1.3-1.7 1.1-3.55h1.5c.4 1.42-2.2 1.47-.7 2.67.2 0 .4-.1.4-.45-1 .25 1.6-1.79 1.8 0-.7.37-1.1.76-1.3 1.21.7-.18 1.5-.26 2.4-.26 1.4 0 5.5.94 7 1.86l.6-5.86c-2.6-.79-5.3-1.43-8.3-1.43zm-34.23 0c-2.27 0-3.33.22-4.85.57.22.45.55.72 0 .79-.35-1.22-.95.58-1.43-.38-.23.1-.45.15-.67.23.2.21.31.56.29 1.04-.27-.36-.69-.54-1.09-.75-.14.1-.28.13-.41.21.27.46.57.91 0 .99-.11-.37-.29-.62-.56-.76-.16.1-.33.14-.49.22.12.83.31 2.2 0 2.75-.1-.67-1.56-1.87-.73-2.21v-.1c-5.2 3.12-8.39 8.8-8.57 15.79.51.28.97.61.97 1.51h-.96c.42 10.03 7.84 18.2 18.54 18.2 6.62 0 11.99-3.18 15.09-8 0-.23.2-.51.4-.91-1.2-.61-1.96-1.57-2.79-2.65-.34-.36-.55-.86-.81-1.31.56 0 .9.31 1.17.68-.1-.55-.65-1.21 0-1.57-1.34 0-.91-.65-.73-1.77-.29 0-.59-.22-.86-.49-.1.14-.16.31-.28.51-.1-.1-.1-.19-.13-.28-.22 1.18-.56 2.31-1.01 3.41-1.66 3.92-4.91 6.98-10.05 6.98-7.93 0-11.43-7.14-11.43-13.65 0-1.46.21-2.9.56-4.29-.24.24-.45.27-.51-.16.22 0 .43-.1.36-.44-.5 0-.8.21-1.08.44-.59-1.74 1.57-.15 1.44-1.32-.22 0-.43-.1-.36-.45.39-.1.6.1.7.25 0-.1.1-.16.1-.23-.1-.9.12-1.99-.73-1 0-2.5 1.46-3.27 0-4.43.88-.68 1.85-1.06 2.74-.93-.17-.31-.49-.42-.65-.72.68 0 .77-.34.37-.88.92 0 1.41.64 1.45 1.77-.18 0-.33 0-.45.1.35.2.68.52.96.98 1.76-1.42 3.96-2.3 6.55-2.3 2.36 0 4.41.74 6.08 1.98 0-.22.11-.37.38-.31.28.26.38.6.38.93 1.57 1.4 2.76 3.26 3.52 5.36.51-.52 1.2-.75 1.56-.1-.49 0-.35.77-.73.88 0-.52-.31-.4-.6-.14.1.26.14.52.21.79.37.31.57.89.3 1.31.1.48.14.96.18 1.44 0-.15.12-.27.26-.3 0 .7 1.37 1.3 1.05 1.91.31-.4.6-.82.83-1.03 1.55.46 3.25.53 4.05-.45.4.18.7.41 1.1.62v-.81c-.7-.39-1.3-.94-1.8-1.58 1-.73-.2-.92.6-3.06h-.8c0-.77-.1-1.38-.3-1.77.3 0 .5-.1.7-.1-.5-1.42-1.4-2.72-2.2-3.9h-.1c0-.11-.1-.14-.1-.2-.4-.46-.8-.93-1.15-1.35-.2-.11-.39-.28-.5-.56-1.95-1.92-13.01-5.02-13.01-5.02zm59.03 0c-4.4 0-8.3 1.4-10.5 4.26 0 .1-.1.12-.1.15-1.4 1.74-2.3 4-2.3 6.81v.82c1 .22 2.2 1.57 1.4 2.17-.1-.53-.4-.28-.9 0 1 2.12 2.6 3.62 4.4 4.86.2.1.3.14.4.22.1-.1.2-.14.4-.24v.42c1.9 1.15 4.2 2.06 6 3.05 2.2-2.3 2.3-2.42 4.2-4.8.2 1.31-.7 1.53-1.1 2.22.4 0 .4.37.7.45 0-.54.1-1.05.8-.88-.6 1.38-.1 1.52 1.1 1.77 0 2.23-.7 3.42-1.7 5.19.1.31.1.66.1 1.02 0 1.36-.5 2.39-1.2 3.17.6.57 1.1 1.15 2.5.81.5.77.3 3.38-.4 2.21 1-1.37-1.6 1.52-1.6.44.7-.54 1.2-1.37 2-1.77-1.3-.62-2.7 1.52-2 .45 0-.45.3-.53.4-.89-.6-.72-1.1-.59-1.6-.59-.5.4-1.2.68-1.8.9.2.26.4.47.5.58-.3.1-.7 0-.7.45 1.3-.52 2.1-2.3 2.5.43-2.4-.48.1 2.23-.7 2.22-.1-.83-.6.25-.7-.45 1-.22-2.5-.51-1.1-.44.4 0 .8-.13.7-.89h-1c0 1.19-.6.88 0 1.76-1.4.32-.4-1.6 0-1.76.1-.68 0-1.22-.1-1.7-.8.2-1.7.28-2.4.28-2.1 0-5.8-.85-8.4-2.57l-.5 6c3.2 1.65 6.6 2 10.1 2 6.5 0 12.7-3.57 12.7-11.36 0-4.84-2.8-7.29-5.9-9.06h-.1.1-.1c-2.3-1.21-4.8-2.1-6.6-3.23-.2.12-.3.22-.6.2v-.64c-1.7-1.03-2.7-2.29-2.7-4.17 0-3 3.1-4.43 6.5-4.43 1.5 0 5.6.94 7 1.86l.6-5.86c-2.5-.78-5.1-1.43-8.3-1.43zm-61.37.92c-.38 1.25.6 3.04 0 3.11 0-.28-.1-.54-.37-.45-.48-.1-1.35 1.49-1.46.45.49 0 .34-.78.73-.9.94.74-.1-2.29 1.1-2.21zm4.37.56c1.09 1.49-1.35 1.34 0 0zm54.6 1.1c.6 0 .7 1.6.1 1.45 0-.57-.5-.61-.4-1.33.1-.1.2-.11.3-.12zm-5.6 1.3s.1.1.1.15c-.2.92-1 1.42-.4 2.21-.4-.1-1.2.17-1.3-.45.5-.27 1.2-1.96 1.6-1.91zm-57.02.15c1 0 .74.73 1.46 0-.24 1-1.33 1.92-1.82 1.32-.1.36 0 .88-.36.89-.1-1.1.57-1.36.72-2.21zm14.98 1.29c-.33 1.42.93.92 1.08 1.78-1.54.63-2.52-1.36-1.08-1.78zm4.05 0c.44 0 .53 1.12-.1 1.29 0-.44-.28-.53-.35-.89.14-.3.28-.41.41-.4zm-2.54 1.52h.22c.34.1.68.34.1.66-.53-.41-.49-.61-.3-.66zm1.1.4c.26 0 .58.85-.12 1.17-.14-.88 0-1.17.12-1.17zm-44.74 1.15c-.1.83-.6-.25-.73.45-.1.64.57 1.97.71 2.98.29-.1.57-.15.84-.23-.19-.42-.31-.25.27-1.41-1.26 1.56-.21-1.64-1.09-1.79zm-29.62 0c.1.35 0 .88.35.89 0-.27.1-.52.38-.44v.88c-.38 0-.45.36-.73.46 0-.74-1.02-.26-1.1-.9.52-.1.61-.73 1.1-.89zm74.66 1.74c.63 0 .92.34 1.08.89-.62 0-.93-.34-1.08-.89zm1.58 3.14c.1 0 .1.12.15.44-.33-.1-.7 1.92-1.04.45.38.17.68-.89.89-.89zm38.05 1.3c.6 0 .9.34 1.1.88-.6 0-.9-.34-1.1-.88zm3.7 0c.7.1 1.2.29 1.4.88-1.2.11.8 1.47-.3 1.34-.2-.76-.5.1-1.1 0zm-39.2.6c.2 0 .5.85-.2 1.18-.2-.9 0-1.18.2-1.18zm.7.78s.2.14.2.4c0 .61 1.1.5.4.88-.7.32-.8-1.37-.6-1.28zm-2 1.48c.1.1.2.24-.3.66-.7-.34-.3-.6.1-.66h.2zm-3.21.67c0 .32-.1.59-.2.72v1.29c.36 0 .76-.37 1.13-.83 0 0-.11.11-.17.14-.18-.52-.38-1-.72-1.32zm24.61 0c.4.95 1 1.74 1.3 2.74 0 0 .1-.11.2-.13 0 .6.7.42.7.89-.5.11-.6.7-1 .88v-1.19c-.7.1-.1-1.47-1.2-.98.9-1.3-.6-1.64 0-2.21zm20.6 1.74c.4 0 .4.78 0 .87 0-.48-.5-.69 0-.87zm-73.65.47c0 .77-.27 1.13-.73 1.32 0-.76.29-1.12.73-1.32zm76.45.53c.3 1.07-.5 1.9-1.1 2.06.5.31 1 .64 1.5.96 0-.35.3-.46.3-.8-1.8-.25.6-1.58.7-2.22zm3.4.45c-1.2.64-2 1.68-2.6 2.91.2.21.5.44.7.69.6-1 1.4-2.06 1.9-3.6zm-25.2 3.18c.5 0 1 .97.3 1.27 0-.59-.7-.41-.8-.89.2-.28.3-.38.5-.38zm-99.35.25c.1 0 .21 0 .35.11.1 1.01-.11 1.67-.73 1.78.1-.7-.27-1.88.38-1.87zm-3.14.51c.68.1 1.23.29 1.46.88-2.09.69.95 2.62.36 2.67-1.03-.47-1.51-.47-2.54 0 .11-1.03-1.05-.5-1.09-1.34.92.34 1.67.66 2.18-.44-.98.31-.7-.92-1.09-1.32 1 .1 1.25.85.72-.45zm106.99.26c.3-.1.6.11-.1.65-.6-.31-.3-.59.1-.65zm-29.98.65c0 .76-.28 1.15-.73 1.33 0-.76.29-1.12.73-1.33zm-74.51.86c1.07.13 1.8 1.51.62 1.81.1-1.17-1.41-.36-1.09-1.78h.47zm47.51.45c1.53-.12-.19 1.86-.34 0h.34zm54.28.51c.7.18 1.6.16 1.5 1.32-.7 0-1.2.11-1.5.44 0-1.21.6-.88 0-1.76zm24.4.36c.2 0 .4.1.4.53-.7-.44-1.2 1.32-1.5 0 .2-.1.7-.51 1.1-.53zm-71.04 2.57c.63 0 .68 1.62.1 1.46 0-.27 0-.52-.36-.45v-.87c.11-.1.21-.14.3-.14zm1.25.46c.1 0 .16 0 .27.11 0 .45-.29.53-.36.89 1.01 1.09 2.45-.34 2.55 0-.44 1.41 0 1.32-.73 2.66.46 0 .5-.57 1.09-.44-.46 1.1.19 1.38-.36 1.78-.34-1.35-1.64-.84-.37 0-1.04 1.28-1.13-.88-2.54-.45.1-.67-.14-1.64.36-1.78-.32.91.94 1.99 1.09.89-1.69-.23 2.52-1.88-.73-1.33-.39-.86-.77-2.37-.27-2.33zm-34.69.1H44.43c.22.39.51.83.89 1.44.46-.18.75-.57.74-1.33-.1 0-.16-.1-.24-.12zM134 48.56c.1 0 .2 0 .3.1.1 1.01-.1 1.66-.7 1.77.1-.69-.2-1.87.4-1.86zm-54.47 1.2s-.1.11-.2.21c-.2.79-.19 1.85-.73 2.23-1.13-.8 1.03-2.62.93-2.44zM429.5 2.615v8.725h5.8c-.1-.79-1-.56-.8-1.836.8.148.9-.67 1.3-.995.6.95 3 1.35 1.2 0 .8.11.9-.56 1.6-.497V2.615zm-230.4 1.85c-.5.17-.9.365-1.2.04v-.02c-15.7.33-25.3 9.405-25.3 25.395 0 3.67.6 6.89 1.7 9.69 1.2-.4.1-1.48-.2-2.44.9.15.9-.67 1.3-.99-.6 2.78 2.1 1.66 3.2 2.48.4-.92-1.2-1.66 0-1.98 1.5 1.28 0 3.18-.8 4.47.6 0 .4.87.8.99.2-1.22 2.8 1.21 1.3 1.99-1-.84-.8 2.19-1.1 2.68 4.7 4.63 11.6 6.91 19.9 6.91 3.7 0 7.4-.68 10.9-1.5l-.4-7.98c-2.3 1.16-6.7 1.98-10.4 1.98-4.4 0-7.9-1.34-10.6-3.63 0 .11-.2.23-.3.37-1.7-1.61.3 1.68-.4 1.49-.1-.39-.4-.58-.8-.49 0 .69-.1 1.9-.4.99-.2-1.15.1-1.91.4-2.49-1.6-.14 0-.52.9-.41-2.4-2.25-3.9-5.27-4.6-8.79-.9-1.1-1.5-3.59-2.6-2.52.6-.14 1.1.67.4 1-.2-.85-.5.1-1.2 0-.3-2.88 1.7-2.62.4-5.47-1.4.15 0 1.35-.8 1.49-.1-.6-.5-.3-.9 0-.5-1.61 1.4-.38.9-1.99-1.2 1.85-.8-3.68-.4-2.48.1.39 0 .98.4.99 1.4-.36.2-1.49 0-2.48.8.15.8-.67 1.2-1-.5 2.67 1.9 1.76 3.1 2.4.1-.17.1-.35.2-.52-.3-.64-1-1.13 0-1.38.1.14.2.28.3.43 2.3-5.83 7.5-9.74 14.6-9.74 3.4 0 6.7.48 10.3 2.53l.7-8.048c-2.4-.913-5-1.482-7.4-1.764-.3.682-.8 1.055-1.5 1.326 0-.81-.1-1.257-.3-1.486-.5-.02-.9-.04-1.3-.04zm2.9 1.53c0 .784.1 1.725-.9 1.493 0-.854.4-1.273.9-1.492zm2.2.618c.2.02.4.13.6.38 0-.755.8 1.192 1.2 2.483-.8.147-1 .994-1.6 1.494.9-1.867-.8-1.087 0-2.486h-1.2c0 .635.5.687.4 1.49-1.3.496-1.2-4.603-.8-2.98.7 1.107.7-.47 1.4-.38zm-7.1.25c.8-.12.6.936 1.2 1.125 0-.28.3-.565.4 0-.6.792-1.7-.01-2-.994.1-.07.3-.114.4-.13zm257.8.934l-9.1 2.933v7.02h-6.7c.7 1.33 2.1 2.21 2.8 2.56.6.26.4.26 0 0-.9 1.15 0 2.49 1 4.12h2.9v5.16c1.3-.14 2.3 1 2.4-2.19.5-1.17 3.7 5.01 1 6.45-1.5-.85.1-1.63.4-2.67-2.1-.89-2.9-.13-3.8.54V42.3c0 6.95 3.9 11.38 11.1 11.38 2.7 0 4.8-.27 6.7-.81l-.2-7.23c-1 .61-2.6.95-4.2.95h-.1c-1.7.44-2.2 2.15-3.4 3.18 1.9-3.96-1.6-2.46-.1-5.19 0-.1-.1-.15-.1-.22h-2.4c0 1.38 1.1 1.49.9 3.25-2.8 1.07-2.7-10.04-1.8-6.5 1.4 2.19 1.6-.42 2.7-.79v-2.3c-.6 0-1.4-.14-1.5.49.2 1.4 1.5 1.15.8 1.49.2.2-3.1-.55-2-.5 1.4-.83.9-1.76 2.4-2.98 0 .26.1.49.3.5V24.43h3.7c-.1-.11-.3-.26-.5-.46 1.3-1.35 2.4-1.2 3.6-1.31l-1.8-4.91h-5zm-259.7.556c.8-.12 1.5.935.5 1.123 0-.302-.1-.59-.4-.498 1 1.152-.3 1.712-.8 2.492-.7-.78.1-1.943.4-2.988.1-.07.2-.112.3-.13zm-13.6 2.997c.4-.1.7.12-.1.74-.6-.36-.2-.67.1-.74zm7.1 1.96c0 .85-.3 1.28-.8 1.49 0-.85.3-1.27.8-1.49zm-7.5 2.55c.4 0 .7.44-.1 1.2-.6-.84-.2-1.22.1-1.2zm139.5 1.07c-.4 0-.8 0-1.1.1-.3.72.1 1.42-.2 3.07-1 .3-1.9.72-3.3.5-.1-2.04 1.8-.93.8-2.98.8-.48 1.4 1.49 1.6 0-.5.12-.7 0-.6-.31-1.4.31-2.8.87-4.1 1.76 0 .52 0 1.07-.4 1.14v-.9c-1.1.85-2.2 1.96-3.2 3.4h-.1V17.8h-3.5c0 .1.1.19.1.32-1-.68-1.6 1.28-1.7 0 .2-.1.3-.2.4-.32h-3.8v4.75c1.6.98 2.6-.95 3.6-2.49 1.3 1.93-2.4 2.74-2.6 4.89-.1 1.96 1.6 2.62 3 3.45-1 3.41-1 3.76-2.2 6.14-.5 1.55 2.1.9 2 2.11 1.9.26 1-3.37 3.4-2.4.3 1.43-.1 2.18-.8 3.22 1.3 0 1.6.6 2.7.1v-1.66c0-4.57.8-11.8 6.8-11.8 3.6 0 4.7 2.16 5.1 4.57.5-.33 1-.62 1.2-.82v-.26c.1 0 .1.14 0 .26-.2 1.6.7 1.97.4 3.72-.5 0-1-.1-1.4-.26v21.63h9.1V35.82c0-1.08.1-2.31.2-3.56-.6.45-1.4 1.07-.9 3.23-.7-.72-4.1-1.68-4.7 0-1-.18 0-1.65.9-1.28.1-.69-.4-.73-.4-1.28-1.2-.35-1.1.6-2.2.43.8-1.51-.2-1.05-.4-2.56 1.3-.72 2.4-1.59 3.8-2.12 0-1.07-.7-1.32 0-2.13.9.1.3 1.4 1.3 1.27-.3.4-.7.65-1.3.86.3 1.27 1-.41 1.8 0-1 1.37.1 2.22-1.8 2.55.1.34.5.42.5.85 1.1.13.3-1.65 1.7-1.28-.4.38-.5.97-.4 1.71 1 0 1.7-2.49 1.2-2.56.5-.3 1.1-.6 1.5-.94.9-2.76 2.6-4.99 6-4.99 5.3 0 5.3 4.64 5.3 7.91v11.84c.5-1.39 1.1-2.82 1.4-4.19 2.8-1.86 6.4 2.54 2.7 3.24-.1-.98-.2-1.92-1.3-1.62 3.2 3.76-1.1 5.59-2.7 8.1-.1-.1-.1-.14-.1-.21v3.77h9.1V30.71c0-5.62-1.3-10.24-5.2-12.42-.1.23-.3.39-.6.5 0-.32.1-.56.2-.77-1.5-.7-3.3-1.09-5.5-1.09-4 0-8.2 1.73-10.4 5.34h.3c.3 1.53-1.1.95-.8 2.48 1.2-.31.8-2.67 2-2.98-.2 1.3.2 1.79 1.3 1.5-.2 2.69-1.1 1.83-2.1 3.97-1-.88-1.4-2.08-4-1.99-.5-2 .6-2.21 1.2-2.98-.3 0-.5-.1-.4-.49.5-.38.8-.39 1-.25-.7-1.11-1.5-1.98-2.5-2.67 0 .12-.1.3-.5.57-.7-.41-.2-.74.2-.75-1.8-1.18-4-1.73-6.6-1.73zm27.2 1.36zm-121.4-1.36c-5.6 0-10.5 2.07-13.9 5.79.8 1.29 2.5 1.35 2.2 3.8-1.2.1-1.3.4-1.2 2.98-2.6-.37.1-3.55 0-5.46-.4.84-1.2.15-1.5-.67-2.5 3.09-4 7.21-4 12.18 0 10.09 6.8 18.13 18.4 18.13 11.6 0 18.4-8.04 18.4-18.13 0-11.59-8-18.62-18.4-18.62zm186.9 0c-4.8 0-8.7 1.57-11.5 5.59h-.2v-4.77h-8.6v11.1c1.2-.11 1.8-.64 2.7 0-.7.28-2 1.24-2.7.88V30c.9 0 .7.78 1.5 0-.3 1.13 1.9 2.89.8 1.98-.8-.52-1.9-.59-2.3-1.55v22.44h9.1V39.28c-.2.2-.6.22-1.2-.29.6-.83 1-.91 1.2-.73v-.87c-1.3.54-2.5 1.14-3.2 2.32-2.9-3.33-4.5-2.3-2.9-8.12 2.9.17 4.3 1.78 6.1 3.06.2-3.63 1.3-8.34 5-10-.2-.15-.4-.34-.5-.61.6.1 1.4-.24 1.7.22.5-.14 1.1-.24 1.8-.24 5.9 0 6 5.8 6 10.1v10.87c.1-.13.4-.26.7-.38 2 0 2.5 4.19 0 4.77.1-1.11-.4-1.93-.7-2.6v6.08h9.1V30.71c0-6.06-2.1-10.91-6.9-12.85.1.24.1.54 0 .95-.8-.13-2 .15-2.1-.87.3 0 .7-.12.7-.55-1.1-.29-2.3-.46-3.6-.46zm5 .93zm-152.9-.93c-3.4 0-7.5 1.44-10.4 5.73h-.1v-4.91h-8.6v14.48c.6-.11 1-.14 1.5.26-.4.15-.9.51-1.5.75v12.95c.6 0 1.2.1 1.1.92h-1.1v5.77h9.2V48.8c-.6.37-1.3.4-1.6-.19.7 0 1.2-.36 1.6-.76V36.66c-2 0-2.1-2.19-3.2-3.09-.1.92-.2 1.8-1.3 1.52-.3-5.67 3.2-4.6 4.5-1.42.3-4.39 1.6-9.65 6.8-9.65 3 0 4.3 1.52 4.8 3.43 0-.1.1-.1.2-.1.3 1.09 1.4-.94 1.6-1.49 0-.99-1.1-.63-.8-1.99.8.15.8-.67 1.2-.99.7.95 3 1.35 1.3 0 .7.11.9-.56 1.6-.5 1.2 1.15.8 4.19.4 4.98-.6-.58-1-1.44-2-1.5-.6 1.18-.9.93-.4 2.49-.9.65-1.9 1.2-2.7 1.27.1.78.1 1.57.1 2.29v20.94h9.1V40.58c-.3-.35-.7-.64-1.3-.67-.6 1.17-.9.92-.4 2.48-1.3.96-2.9 1.73-3.7 1 1.5 0 0-1.94.8-1.99.3 1.09 1.4-.94 1.7-1.49 0-.99-1.1-.63-.8-1.99.8.15.8-.67 1.2-.99.6.95 3 1.35 1.2 0 .6.1.8-.34 1.3-.47v-1.09c-.2.2-.5.35-.8.45.4-2.8-1.9-3.89.8-4.47.3.88-1.2 2.06 0 2.48v-.11c.1-1.16.2-2.39.5-3.57-.1-.14-.2-.43-.3-.93 2.7-2.74-4.1-1.77-3.1-5.56 1.5-.1 1.7.71.8 1.85 2.4-.32 3.3.48 4.5.48 1-1.19 2.4-1.97 4.4-1.97 5.2 0 5.2 4.64 5.2 7.91v20.93h9.2V42.2c-.1.21-.1.39-.2.51-.6-.58-1-1.44-2.1-1.49-.6 1.17-.8.92-.4 2.48-1.3.96-2.8 1.73-3.6.99 1.5 0 0-1.94.8-1.98.3 1.08 1.3-.94 1.6-1.49 0-.99-1.1-.64-.8-1.99.8.15.8-.67 1.2-1 .6.95 3 1.35 1.2 0 .8.11.9-.56 1.7-.49.3.27.4.65.6 1.07v-8.1c0-7.84-2.5-13.77-11.1-13.77-4.3 0-8.9 1.97-11 6.2-2-4.37-5.5-6.2-10.4-6.21zm114.5.82v2.1c.3-.18.7-.11.7.77-.3.1-.6.1-.7 0v14.27c0 3.92-1.1 9.85-5.8 11.32.1.25.1.46 0 .6 2.1-.73 2.6 2.43-.4 2.48-1.3-1.65-3.5-.14-3.6 0v-.1c.1-.55-1.3-.27-1.7.59-.1-2.07-.2-.11-.8 0-.6-2.41-3.8-5.89-5.3-3.98-.1-1.01-1.1-.97-1.2-1.99.7-.19 1 .74 1.2 0-1.4-1.08-1.9-3.28-3.7-3.97.3-1.53.3-.96 0-2.49 1.2-.84 2.2-1.97 3.7-2.48.9 1.46 2.2 2.51 3.6 3.34v-1.17c-.9-.34-1.5-1.65-.3-1.91-.2.72 0 .87.3.97V17.7h-1.1c0 .57.2.94.4 1.3h-.8c-.4-.57-.4-1.01 0-1.3h-4.4c-.2 1.11-.9 1.61-1.6 1.95-.1-2.02-.9-1.79-1.7-1.52v21.73c0 7.91 3.6 13.77 12 13.77 4 0 7.5-1.57 10.1-4.13-.5-1.18.5-2.78.9-4.24 1.3-.89 3 1.22 1.3 1.55 0-.47-.1-.91-.7-.77 1 1.06.6 1.8 0 2.47v4.3h8.7v-12.8c-.6.33-1.5-.38-1.8-1.23 1.3-.57 1 .78 1.7.99 0-.12.1-.23.1-.29V22.13c-.4-.45-.5-1.14-.9.28-1.9-.12-3.2-4.46-1.7-3.48.2-.49-.1-.86-.3-1.18zm49.5 0v35.11h9.1V25.23l-.1.1c-.8-.69-.7-2.16-2.4-2.11h.1c.4-.95 1.2-1.56 2.5-1.48v-.35c-1.3-.97-3.2.13-4.8-2.06.1-.51.2-1.02.2-1.53zm33.5 0v4.55c.4-.16.7-.39 1.1-.76-.8 3.42-.4 1.91 1.3.81 0 2.28-1.1 3.27-2.4 3.91l1 2.75c.1-1.34.7-2.05 1.6-2.44-.1 1.52.2 3.31-1.4 3.11l1.6 4.41c1.3-.34 2.8.54 3.4 1.96-1.6-.14-1.5 1.84-1.4 3.37l5.5 15.22c0 3.75-2.2 6.27-5.9 6.27-2.3 0-3.6-.21-4.7-.62l-.6 6.75c2.1.62 4.3.96 6.4.96 8.2 0 11-5.62 13.4-12.13-.8.26-1 1.72-2.5 1.77.8-2.62-.1-2.14-1.1-.67-1.5-1.77.9-.53.5-2.69-1.1.2-1.1 1.82-2.2 2.02.1-2.12.4-4.01 2.2-4.03.8.41.1 2.59 1.1 2.69.7-.97 2.1-1.02 2.8-2.02-.4.97-.4 1.35-.3 1.58.3-.64.5-1.28.7-1.93l.3-.68c-.3-.45-.6-.91-.7-1.53.8-.34 1 0 1.1.38l1.2-3.07c-1.8-.7.6-3.57.4-5.35-.6 1.35-2.4-1.23-1.2-1.99.3 1.61 1.9 1.71 2.4 3.15l9.7-25.75H487l-8.4 25.64h-.2l-3-9.35c-.8.23-1.5-1.65-.8-1.5 0 .33.2.45.4.56l-5-15.35zm-175.7.46c.2 0 .5.21.6.85-.6 0-.9.24-1.2.5v-.99c.2-.21.4-.34.6-.36zm33.3.85c.9.73 3-.1 3.2 1.49h-1.2c0 .5.4.6.4 1-1-.5-2.3-.82-2.4-2.49zm61.7.23c.7 0 1.1.46-.5 1.66-1.7-.9-.3-1.66.5-1.66zm14.6.27c.5 0 .6.87 0 .99.1-.55-.6-.77 0-.99zm-171.2.1c0 1.27.7 1.74 1.2 2.48v-1.49c3.4 2.55 9.5 4.34 9.8 8.95 1.6 1.33 2.9 3.13 4.9 3.98 0-.28.3-.57.4 0-.5.24-.9.53-1.2.99 1.5.39 1.2 2.75 1.2 3.48-.8-2.56-2.6-1.01-3.7-3.48h-.1c-1.2 1-1.4 1.76-1.6 2.99-.5 0-1-.23-1.5-.44-.5 4.95-2.7 9.48-8.7 9.48-1.8 0-3.3-.46-4.5-1.23.1.2.2.37.2.54h-1.2V44.9c.1 0 .2 0 .3-.1-2-1.7-3-4.46-3.4-7.39-1.3-.33-1.3 1.83-3.2 1.9.8-2.8-.2-2.29-1.2-.72-1.5-1.88.9-.56.6-2.87-1.2.21-1.2 1.94-2.4 2.16.1-2.27.4-4.29 2.4-4.32.8.45.6-1.65 1.7-1.54.5-.75 1.4.4 2 1.36.1-2.18.8-4.27 1.9-5.93-.4-.34-1.2-.27-1-1.38h.9c0-.31 0-.59.4-.5.1.85-.7 1.27 0 1.49h.1c.1-.2.3-.39.5-.58-.4-1.12-.1-2.98-.2-4.39 1.1.66 1.4.17 1.6-1.03-.7-.1-.4-.73.1-.87v-.1c2.1-.64 1.7.86 3.6-.5zm136.1.26c.2 0 .4.12.6.37 0-.75.8 1.2 1.3 2.49-.9.15-1.1 1-1.7 1.49.9-1.86-.8-1.08 0-2.48h-1.2c0 .63.5.68.4 1.49-1.2.49-1.2-4.61-.8-2.99.7 1.11.7-.46 1.4-.37zm-2.1 1.48c0 .78.1 1.73-.9 1.49 0-.85.4-1.27.9-1.49zm-42 .32c.1 0 .2.17.3.56-.8-.44-.8 2.52-1.2.99.1-.33.5-1.59.9-1.55zm-140.6.1c0 .31.1.59.4.5v.99c-.6.1-1.5-.18-1.6.5.2 1.4 1.5 1.15.8 1.49.2.2-3.1-.56-2-.5 1.4-.83.9-1.76 2.4-2.98zm135.8 0c.4-.1.7.12-.1.74-.7-.36-.3-.67.1-.74zm11.8.24c-.5 1.56 0 1.12 0 2.98-1.8.36.3-.99-.8-.99 0 .3-.1.59-.5.49.4-.86 0-2.66 1.3-2.48zm110.4.31c.4-.1.7.11-.1.73-.7-.36-.3-.67.1-.73zm-127.7.29c.2 0 .4.1.6.14-.8.11.2.81-.4.99-.2-1.04-1.1.72-1.7-.49v1.98c-1-.25-1.7-.94-2.4-1.49 1.4.1 2.7-1.23 3.9-1.13zm-20.3.4c.4 0 .5.87 0 .99 0-.56-.6-.77 0-.99zm39.6 1.48c.7 0 2.2 1.52 1.2 1.99.2-1.55-1.1 1.27-1.2-.49.3-.11.8 0 .8-.5-.5-.1-.9-.15-.8-1zm126.3 0c0 .86-.3 1.28-.8 1.49 0-.85.3-1.27.8-1.49zm17.1.5c0 .68.2 1.09.5 1.49h-.9c-.4-.71-.4-1.21.4-1.49zm-36.6.54c.7-.12 1.5.93.5 1.12 0-.3-.1-.59-.5-.5 1 1.16-.3 1.71-.8 2.49-.6-.78.2-1.94.4-2.98.1-.1.2-.12.4-.13zm-183.1.73c1.2.87-.6 3.08-1.3 1.49 1 .16.5-1.43 1.3-1.49zm180.3.15c.9-.12.7.94 1.3 1.13 0-.28.3-.57.4 0-.6.79-1.7 0-2.1-1 .2-.1.3-.11.4-.13zm4 .37c.4 0 .7.44-.1 1.19-.6-.84-.2-1.21.1-1.19zm-219.9.85c0 .66.7.46.8 1-.6 0-.4.87-.8.99.4-.93-1.3-1.66 0-1.99zm132.9 0c.5 0 .6.87 0 .99 0-.55-.5-.77 0-.99zm-92.3.18c.3 0 .6.22.6.93-1.7.27-1.1-.91-.6-.93zm-5.1 1.1c0 .82 1.2.27 1.3.99-.4.11-.5.42-.5.99 1.1-.25-.6 2.75-.8 1 .5-.11.7-.55.8-1-.7-.19-1 .74-1.2 0 .3 0 .5-.1.4-.49-.1-.59-.7-1.13 0-1.49zm3.6.1h.1c0 .78 1 .39.8 1.49-.8.41-1.5-1.39-.9-1.5zm131.9.1c.4 2 2.8 1.66 2.5 4.48-1.2.1-1.4.39-1.2 2.98-2.6-.38.1-3.56 0-5.47-.7 1.35-2.5-1.23-1.3-1.99zm-36 0c0 .31.1.59.4.5v1c-.6.1-1.5-.18-1.6.49.2 1.4 1.5 1.16.8 1.49.2.2-3.2-.55-2.1-.49 1.4-.84 1-1.76 2.5-2.99zm-173.6.1c.8 0 1.8.14.9.93-1.7-1.61.4 1.68-.4 1.49-.1-.39-.3-.58-.8-.49 0 .69-.1 1.89-.4.99-.1-1.16.1-1.91.4-2.49-1.2-.11-.5-.38.3-.43zm221.3 0c.3 0 .6.33.9 1.21-1.3-.41-1.2-1.23-.9-1.21zm-1.2.11c.1 0 .2.19.2.56-.2.14-1.5 1.24-1.6 0 .6.36 1-.66 1.4-.56zm-33.9.86c.5 0 1 .37 1.3.91-1.4-.13.1 3.28-1.3 1.99.3 0 .5-.1.5-.5-1.1.15-1.1-1.04-1.3-1.99.3-.29.5-.42.8-.41zm-87.7.1c.6.1 1.5-.18 1.7.49-.6.65-1.6.66-1.7-.49zm122.7 0c0 .93 1.3.34 1.2 1.49-.7.12-2.4-.94-1.2-1.49zm-186.3.1c.2 0 .4.11.5.55-.7.13-.3 1.09 0 1.49h-.8c-1-.21-.3-1.94.3-2.04zm188.3.16c-.1.58.1 1.41-.5 1.49.1-.59-.1-1.41.5-1.49zm-13.7.57c.1.71.6.84.8 1.5-1.1-.64-1.3.25-1.7-.5.6 0 .4-.87.9-1zm-34.5.34c-.3 1.28-.4 2.82-1.2 3.48-.1-1.76.3-2.97 1.2-3.48zm-172.9.18v1c.6-.16.8-.71 1.7-.5-.1.74-.5 3.59-1.2 1.99 1.3-.41-2.1-1.74-.5-2.49zm96.4 1.34c-.6.34 0 2.14-1.1 1.93-.2-.71-.6-1.21-1.2-1.49-.4 1.47-1.6 1.63-2.1 1 2-1.49 3.1-.97 4.4-1.44zm-26.4.74c.9.17 1.9.32 1.6 1.98-1.6.64-1-1.36-1.6-1.98zM360 34c.1 0 .2.15.4.62-.6-.1-.5 2.88-1.2 1 .4.1.5-1.59.8-1.62zm22.9.19c.5.3.1 1.91.8 1.99.5-.72 1.5-.76 2-1.5-.7 1.86.3.79.4 2.49-1.6-1.17-1.2.94-2.8.99.6-1.93-.1-1.58-.9-.49-1-1.31.7-.39.5-1.99-.9.14-.8 1.34-1.7 1.49.1-1.57.3-2.97 1.7-2.98zm-81.3.13v18.54h8.7v-.49c-.6-.1-1.5.17-1.6-.5 1.1.36.8-.99 1.6-.99.1.34.2.6.4.85V38.51c-.1.21-.2.37-.3.42 0-.29-.1-.57-.4-.48 0 .5.3.59.4.99-.8-.47-1.4 1.49-1.7 0 1-.93-.2-1.06-1-1.56-.1.1-.1.16-.1.25 0-.2-.1-.38-.2-.53 0 0 0-.1-.1-.1-.7-.94-2.2-.71-3.2 0-.7-1.21-1.1-2.6-2.5-3.24zm-27.2.54c0 .66.8.46.9.99-.3.15-1.6 1.24-1.7 0 .6 0 .4-.86.8-.99zm178.2.15c.4 0 .5.87 0 1 0-.56-.6-.78 0-1zm21.2 0c.1.39 0 .98.4 1 0-.31.1-.59.4-.5-.1.93-.2 1.66-.8 1.99.5-1.24-1.2-2.06 0-2.49zm-73.5 4.18c.5 2.63-1.2.58 0 0zm-183.8.24c.1.71.6.85.8 1.5-1-.64-1.3.25-1.6-.5.5 0 .3-.87.8-1zm90.2.5c.6.1 1.5-.18 1.6.5-.5.64-1.5.65-1.6-.5zm-51.6 0c0 .31.1.59.4.5v1c-.6.1-1.5-.18-1.6.49.2 1.4 1.5 1.15.8 1.49.2.2-3.1-.55-2-.49 1.4-.84.9-1.76 2.4-2.99zm53.6.97c.3.89-1.1 2.07 0 2.49.2-.59.5-1.13.9-1.49.1 1.93-.5 3.11-1.7 3.48.4-2.8-1.9-3.89.8-4.48zm174.5.55c.1.71.7.84.8 1.49-1-.63-1.3.25-1.6-.5.5 0 .4-.87.8-.99zm-123.7.15c.8 0 1.3 2.4.6 2.51-.4-.65-.4-1.83-.8-2.49h.2zm111.1.86c-.6 1.61 1.3.38.8 1.99-1.2.1-2.3-1.68-.8-1.99zm12.1.8c.2 0 .5.17.5.85-1.6.36-1.1-.79-.5-.85zm1.2.24c.4-.1.7.11-.1.73-.6-.36-.2-.67.1-.73zm-247.3 0c0 .65.7.45.8.99-.5 0-.3.87-.8.99.4-.92-1.2-1.66 0-1.98zm68.6.32c.9-.1 1.5 1.88.7 2.02-.2-.73-.6-1.25-.8-1.98h.1zm-116.1.58v1c.6-.16.8-.71 1.7-.5-.2.74-.6 3.59-1.3 1.99 1.4-.41-2-1.74-.4-2.49zm84.1 0c.4 0 .5.87 0 1 0-.56-.6-.77 0-1zm-66.2.79c.5 0 1 .38 1.2.92-1.3-.13.2 3.27-1.2 1.98.3 0 .5-.1.4-.5-1 .15-1-1.03-1.2-1.98.2-.3.5-.42.8-.42zm13.1.21c.1 1.08-.3 1.58-1.2 1.49-.3-1.34.9-.96 1.2-1.49zm143.8.4c.7 0 1.1.38 1.2.99-.7 0-1-.38-1.2-.99zm-54.6 0c.9-.1 1.2 2.27.7 2.04-.2-.74-.6-1.25-.8-1.99h.1zm-58.4.7c.1 0 .2.19.2.56-1.5.65.7 2.99-1.6 2.98 0-1.85.5-1.41 0-2.98.6.35 1.1-.66 1.4-.56zm80 .49c.2 0 .3.12.3.35-.8 0-.3 1.65-1.2 1.49-.4-1.02.4-1.88.9-1.84zm118.6.61c.4.1.8.37.1.74-.8-.62-.4-.8-.1-.74zm-261.6.24c0 .5.3.59.4.99-.7 1.36-1.4-.72-.4-.99zm1.2 0c.1 1.23-.2 2.06-.8 2.48-.8-.91.3-1.68.8-2.48zm33.5.34c.6.31.1 1.91.8 1.99.5-.72 1.6-.75 2.1-1.49-.7 1.85.2.78.4 2.48-1.6-1.16-1.3.94-2.9.99.6-1.93-.1-1.58-.8-.49-1.1-1.31.7-.39.4-1.99-.8.15-.8 1.35-1.6 1.49.1-1.57.3-2.96 1.6-2.98zm-14.6.95c.3-.1 1.2.28.3.74-.6-.47-.5-.69-.3-.74zm87.9.63s.1 0 .1.1c.4.17.5 1.32 0 1.49-.9.31-.9-1.66-.1-1.54zm-101.6 1.1c-.5 1.61 1.3.38.8 1.99-1.1.1-2.2-1.68-.8-1.99zm100.2 0c.4.1.8.38.1.74-.8-.62-.5-.8-.1-.74zm-88.9.31c0 .68.2 1.09.4 1.49h-.8c-.5-.72-.4-1.21.4-1.49zm123.5.4c.3.1.7.37.1.73-.8-.62-.5-.8-.1-.73z"/></svg>