<svg xmlns="http://www.w3.org/2000/svg" viewBox="0 0 542.9 356.6"><path d="M446.1 47.3c22.9 0 33.3 16.17 35.4 27.49h3.9c5.1-12.25 8.9-19.68 14.3-27.13C488.6 37.36 473 32 452.4 32c-43.9 0-74.8 25.71-81.9 61.44-15 75.66 101.6 52.36 81.9 109.46-5.2 15.5-21.5 37.1-53.1 40.6-24.1 2.7-44.3-12.2-48.5-27.3h-3.9c-3.8 12.1-9.5 21.4-15.6 27.6 9.7 9.2 26.9 19.4 54.2 19.4 50.7 0 87.2-33.2 95.1-72.5 14.1-71.2-94.6-46-82.6-106.26 5-25.29 28.5-37.14 48.1-37.14zm-171.9 91.6v-.7c34.4-7.3 60.3-25.4 66.5-57.58 7.2-37.28-22.7-47.39-60.2-47.39l-35.2 1.67s-23.3-.7-34.5-1.67c-4.1 27.94-8.4 56.61-13.9 84.87l-11.1 56.6c-5.4 28.3-12.3 56.9-19.2 85.5 10.8-.9 21.7-1.6 32.2-1.6l31.6 1.6c38.2 0 86.7-17.4 96.2-66.1 7.2-37.5-13.7-53.3-52.6-55.3zm-48.5-29.2c4-20.8 9.4-41.9 14.1-62.57 6.4-1.06 14.1-1.67 25.3-1.67 25 0 52.5 5.89 45.5 41.43-7.1 36.51-41 47.41-71.9 47.41h-17.9l4.9-24.6zm71 83.2c-6.9 35.5-35.4 55.2-63.7 55.2-11.9 0-24-.7-32-1.5 3.6-22.1 6.6-44.6 10.9-66.6l6.5-33.6h14.9c43.7 0 70.6 8.9 63.4 46.5zM134.5 33.32l-18.7 90.98L98.27 221c-9.77 53.2-17.33 90.6-51.82 93.6v10c40.47 0 66.95-25.4 74.55-67.2 6.1-33.7 19.6-90.9 27.3-133.1l18.3-90.98c-5.7 1.05-11.1 1.67-16.3 1.67-5.3 0-10.4-.71-15.8-1.67z"/><path d="M152.3 302L43.21 192.8 152.3 83.7l109.2 109.1z" opacity=".2"/></svg>