<svg viewBox="0 0 830 270" xmlns="http://www.w3.org/2000/svg"><path d="M323.69 93.49q-2.81.35-4.78.7-1.97.35-4.43.98-2.88.78-3.73 2.75-.77 1.97-.77 4.5v54.98q0 7.6-3.1 13.92-3.02 6.33-8.36 10.62-5.42 4.22-12.1 6.33-6.68 2.18-14.27 2.18-13.15 0-21.23-6.33-8.02-6.33-8.02-17.37 0-6.54 3.66-10.83 3.72-4.28 10.19-4.28 6.12 0 9.71 3.58 3.65 3.59 3.65 8.86 0 4.5-3.16 8.37-3.1 3.8-7.1 7.03v.91q.63 1.41 2.74 2.4 2.11.98 4.29.98 8.43 0 13.22-6.05 4.85-6.04 4.85-18.28v-56.32q0-2.53-.78-4.22-.77-1.69-3.72-2.95-2.11-.92-5.14-1.55-2.95-.63-4.92-.91V88h53.3zm56.32 50.76q0-4.22-.42-8.65-.42-4.43-1.48-7.24-1.19-3.3-3.3-4.99-2.04-1.69-5.21-1.69-5.41 0-8.64 5.49-3.24 5.48-3.52 17.36zm26.86 26.72q-2.46 4.01-5.98 7.6-3.44 3.51-7.87 6.04-4.71 2.68-9.56 4.01-4.79 1.41-11.04 1.41-10.41 0-18-2.96-7.53-2.95-12.45-7.94-4.92-4.99-7.38-11.74-2.39-6.82-2.39-14.77 0-7.17 2.6-13.71 2.67-6.61 7.52-11.74 4.78-5 12.03-8.09 7.31-3.09 16.31-3.09 9.84 0 16.17 2.39 6.33 2.39 10.48 6.61 4 4 5.83 9.49 1.83 5.41 1.83 11.39v4.57h-47.53q0 14.42 5.55 21.94 5.56 7.52 17.65 7.52 6.61 0 11.89-3.58 5.27-3.66 9-9.21zm99.63 16.81h-42.33v-5.14q1.34-.14 3.24-.35 1.9-.21 2.88-.7 1.48-.77 2.11-2.25.63-1.48.63-4.36v-32.91q0-7.17-2.67-10.76-2.6-3.65-7.73-3.65-2.82 0-5.28.84-2.39.85-4.71 2.46-2.04 1.41-3.3 2.89-1.2 1.47-2.04 2.6v37.76q0 2.46.7 4.15.71 1.61 2.32 2.46 1.13.63 2.81 1.12 1.69.49 3.31.7v5.14h-42.75v-5.14q1.76-.14 3.52-.35 1.82-.28 3.09-.7 2.25-.77 3.09-2.39.85-1.62.85-4.22v-40.92q0-2.18-1.13-4.29-1.12-2.11-2.95-3.45-1.27-.84-3.24-1.4-1.89-.57-4.21-.78v-5.13l33.53-1.83 1.06 1.06v10.19h.28q1.97-1.76 4.78-4.22 2.81-2.46 5.2-4 2.61-1.69 6.82-2.89 4.22-1.19 9-1.19 11.47 0 17.16 6.54 5.77 6.47 5.77 17.22v34.46q0 2.6.77 4.15.77 1.54 2.88 2.46 1.13.49 2.75.98 1.68.49 3.79.7zm96.96 0h-33.11q-6.12-10.76-11.18-18.21-5.07-7.53-9.57-13.93l-4.22 3.59v15.33q0 2.53.71 4.15.77 1.61 2.88 2.39 1.27.56 2.95.98 1.69.42 3.38.56v5.14h-43.52v-5.14q1.75-.14 3.51-.35 1.76-.28 3.09-.7 2.25-.77 3.03-2.39.84-1.62.84-4.22v-78.4q0-2.32-1.05-4.78-.99-2.53-2.96-3.8-1.33-.84-4-1.4-2.68-.57-4.86-.71v-5.13l34.95-1.83 1.05 1.13v72.56q5.21-4.64 11.68-10.76 6.54-6.12 10.47-10.12 2.32-2.39 2.53-3.59.29-1.26.29-1.55 0-1.26-2.25-2.11-2.18-.84-6.61-1.47v-4.99h35.72v4.85q-7.04 1.97-10.76 3.72-3.66 1.69-8.02 4.57-2.88 1.9-5.62 4.01-2.68 2.04-6.19 5.13 6.89 9.99 12.73 18.5 5.83 8.51 12.23 18 2.18 3.3 5.41 4.43 3.24 1.12 6.47 1.4zm34.81-95.91q0 5.34-4.15 9.14-4.08 3.73-9.7 3.73-5.7 0-9.85-3.73-4.08-3.8-4.08-9.14 0-5.34 4.08-9.14 4.15-3.8 9.85-3.8 5.69 0 9.77 3.8 4.08 3.8 4.08 9.14zm10.26 95.91H604.1v-5.14q1.82-.14 3.58-.35 1.76-.21 3.03-.7 2.25-.84 3.16-2.39.91-1.62.91-4.22v-40.92q0-2.46-1.12-4.29-1.13-1.9-2.81-3.03-1.27-.84-3.87-1.61-2.53-.78-4.64-.99v-5.13l34.45-1.83 1.06 1.06v55.83q0 2.46 1.05 4.22 1.06 1.68 3.02 2.53 1.41.63 3.1 1.12 1.69.49 3.51.7zm99.28 0h-42.32v-5.14q1.33-.14 3.23-.35 1.9-.21 2.88-.7 1.48-.77 2.11-2.25.64-1.48.64-4.36v-32.91q0-7.17-2.68-10.76-2.6-3.65-7.73-3.65-2.81 0-5.27.84-2.39.85-4.71 2.46-2.04 1.41-3.31 2.89-1.19 1.47-2.04 2.6v37.76q0 2.46.7 4.15.71 1.61 2.32 2.46 1.13.63 2.82 1.12 1.68.49 3.3.7v5.14H655v-5.14q1.76-.14 3.52-.35 1.83-.28 3.09-.7 2.25-.77 3.1-2.39.84-1.62.84-4.22v-40.92q0-2.18-1.13-4.29-1.12-2.11-2.95-3.45-1.26-.84-3.23-1.4-1.9-.57-4.22-.78v-5.13l33.54-1.83 1.05 1.06v10.19h.28q1.97-1.76 4.78-4.22 2.82-2.46 5.21-4 2.6-1.69 6.82-2.89 4.22-1.19 9-1.19 11.46 0 17.15 6.54 5.77 6.47 5.77 17.22v34.46q0 2.6.77 4.15.78 1.54 2.89 2.46 1.12.49 2.74.98 1.69.49 3.79.7zm39.31 2.39q-6.82 0-13.36-2.04-6.47-1.97-10.05-4.22l-2.11 4.78h-5.49l-.91-26.23h5.13q1.05 3.17 3.52 7.18 2.46 3.93 5.62 7.1 3.31 3.16 7.52 5.34 4.29 2.18 9.14 2.18 6.4 0 9.5-2.46 3.16-2.53 3.16-7.73 0-2.82-1.41-4.64-1.4-1.83-3.86-3.17-2.74-1.4-6.05-2.39-3.23-.98-8.01-2.39-4.79-1.41-8.23-2.81-3.38-1.48-7.03-4.57-3.17-2.75-5.07-6.61-1.89-3.87-1.89-9.21 0-9.92 8.29-16.04 8.37-6.11 21.87-6.11 6.4 0 11.74 1.33 5.42 1.27 9.07 2.82l1.48-4.15h5.34l1.13 23.97h-4.99q-2.46-7.31-8.44-12.58-5.98-5.35-12.87-5.35-5.41 0-8.51 2.25-3.09 2.25-3.09 6.26 0 5.35 4.5 7.74 4.57 2.39 12.73 4.5 12.58 3.23 18.42 8.86 5.83 5.55 5.83 14.2 0 11.53-9.07 17.86-9 6.33-23.55 6.33zM138.1 222.1c.2 0 .39 0 .56.1.68 5.94 3.03 11.94 2.74 18.45-2.61.88-4.11 1.65-7.62 1.65-.24-5.53-.98-13.97-.76-19.24 1.51.1 3.64-.92 5.08-.92zm28.03-20.87c-2.2 0-4.14.44-5.14 1.52 4.5.36 10.37.47 15.1.36-1.92-.89-6.3-1.92-9.96-1.88zm1.2-6.32c-2.65 0-5.1.48-6.11 2.01 4.26.35 9.2-.33 13.41-.77-1.81-.62-4.65-1.2-7.3-1.24zm-28.73-4.48c1.35 4.89 1.8 10.62 2.21 16.38-2.83 1.58-5.76 3-8.78 4.25.12 1.89.26 3.79.4 5.69a86.89 86.89 0 0 0 8.83-4.03v-.49c.12 1.57.27 3.13.45 4.65-3.25.71-5.62 1.07-9.12 1.59-.19-2.48-.37-4.95-.52-7.41-.41-6.61-.68-13.19-.59-19.82 2.48-.83 4.67-.78 7.16-.81zm-25.66-.75c5.36.1 10.5.48 15.06 1.43 1.33 8.68.83 17.24 1.81 25.75 1.29 11.31.32 24.23 2.53 34.83-12.03 3.74-28.44 3.38-42.052-.76-6.128-18.79-9.474-36.63-11.782-57.85 9.838-1.84 22.654-3.52 34.434-3.4zm34.97-.1c.44 0 .87.1 1.29.16 3.3 5.67 4 15.11 3.89 21.95-2.05.4-3.38 1.58-5.88 1.5-.64-7.8-2.45-16-3.19-23.42 1.19 0 2.57-.25 3.89-.19zm24.44-1.53c-6.2.18-11.05 1.83-13.82 5.72 5.04.32 8.66-4.69 13.82-5.72zm.42-6.97c2.37.1 4.73 1.97 5.75 3.54 1.87 2.81 3.61 11.1 4.58 15.5 1.46 6.54-1.81 12.92-7.02 14.18-3.79.91-9.6 1.16-12.08 0 3.04-1.66 7.6-1.67 11.11-2.81-5.03-2.16-12.48-.12-18.54-.5-.73-7.47-1.28-15.58-3.05-21.48 3.54-3.75 12.07-4.66 16.92-7.76a4.02 4.02 0 0 1 2.33-.64zm2.96-4.24c.12 0 .23.1.34.1-.11 0-.22-.1-.34-.1zm-.8-.14c.11 0 .23 0 .34.1-.11 0-.23 0-.34-.1zm-.78-.1h.28-.28zm-44.43-10.37c-1.02 0-1.84.81-1.84 1.83 0 1.01.82 1.83 1.84 1.83a1.83 1.83 0 0 0 0-3.66zm-14.48-8.03c5.46 6.92 8.78 15.83 12.44 24.43-8.64-2.6-17.47-6.83-25.04-11.11 1.49-6.44 7.31-9.77 12.6-13.32zm12.64-.48c-1.01 0-1.83.82-1.83 1.83a1.835 1.835 0 1 0 1.83-1.83zm12.26-2.54c3.27 0 5.94 2.12 7.42 4.49-4.61 7.88-9.02 15.99-14.49 22.96 2.29-6.75 3.27-18.03 3.62-26.62 1.2-.56 2.36-.82 3.45-.83zm-14.04-2.81h.38c2.37.25 4.25 3.52 7.64 3.31-.55 8.83-.26 17.7-2.73 25.79-4.59-8.42-7.3-18.59-13.24-25.76.63-.67 1.19-1.41 1.8-2.09 2.53 1.06 4.23-1.17 6.15-1.26zm-3.13-9.78c4.65 0 4.59 9.31-2.22 7.19-.49-2.82-1.07-3.62-.84-6.08 1.17-.77 2.19-1.1 3.06-1.11zm-26.178-6.74c.304 0 .624 0 .976.1 4.492.86 9.712 2.93 13.192 4.83h.1c2.12 1.16 3.35 2.6 6.58 2.84-.1.43-.1.85-.1 1.29-1.77 1.16-4.62 1.15-6.56 2.13 2.86.12 5.11.81 7.05 1.78 0 1.08-.12 2.15-.12 3.23-3.24 2.22-6.2 5.52-10.01 7.59-1.8.99-8.122 3.52-10.042 3.07-1.088-.25-1.184-1.59-1.616-2.87-.928-2.71-3.048-7.04-3.24-11.13-.216-4.84-.688-12.76 3.84-12.85zm-19.048-1.11c2.82 1.95 8.28 1.47 12.432 2.2.216 1.32-.864 3.08-.84 4.93-3.496-.21-14.478-4.21-11.592-7.13zm53.306-.1c-2.38 1.54-4.4 3.48-6.68 5.14-5.05.25-7.81-.35-11.52-3.25.1-.24.45-.13.45-.43 5.41 2.42 12.28-.97 17.75-1.46zm9.66-.25c.79 0 1.53.11 2.19.5 2.02 1.17 2.87 7.85 3.03 11.12.13 2.69-.25 5.41-1.35 6.85-5.65-.17-10.76-.84-15.24-2.1.31-1.83-.26-3.63.19-4.95 1.25-.91 3.34-.89 5.23-1.11-1.63-.8-3.92-1.12-5.8-.64 0-1.28-.62-2.07-.97-3.06 2.68-.96 8.45-6.41 12.72-6.61zm-75.608-5.12c1.124.17 6.904 7.67 7.782 8.3 4.97 3.53 11.145 6.31 16.913 9.07.352 2.65 1.168 6.08 2.608 10.66 1.584 5.08 2.896 12.24 9.595 8.58-.64 2.9-4.363 4.7-3.33 8.07.64 2.12 7.67 4.74 9.9 6 4.12 2.32 7.87 3.6 11.03 4.96-14.36.4-27.85 1.56-41.125 3.36-1.59-2.45-.948-6.25-1.116-10.18-.19-4.26 1.584-13.86-.09-14.46-1.894-.67-2.247 3.16-2.317 4.01-.35 4.5 2.142 14.03-.318 19.41-2.695-.76-4.02-2.79-6.546-3.7-.99 3.11 2.05 3.26 1.738 5.24-.413 2.62-5.377.43-5.347 4.32 3.232.52 8.183-1 11.635.45.904 10.59 2.355 20.63 3.944 31.87-13.74-.71-22.632-7.53-32.757-12.27-.63-22.39-4.198-45.62-13.036-64.59 9.27-7.15 19.644-14.72 30.738-19.09h.09zm81.228-4.83c3.9 3.14 6.25 6.1 9.99 9.46 2.03 1.81 6.02 3.99 6.42 6.93.23 1.65-.78 5.67-1.15 7.51-1.64 8.1-5.32 18.8-8.83 27.28-1.27 3.09-2.49 6.93-4.17 7.61-4.61 1.82-10.2-.18-14.12 2.25 5.27-9.13 10.99-17.75 16.15-26.99-.78-1.84-2.71-2.62-3.27-4.66 3.62-6.84 1.96-28.07-7.29-23.59 1.3-1.9 4.69-3.46 6.27-5.8zm-37.88-19.18c-5.02 0-.79 2.8.1 3.89 1.76 2.26 3.82 6.12 7.04 7.82 5.06 2.71 15.12 1.59 18.76.1 1.35-.54 2.44-2.06 2.94-3.34-11.38.27-24.88 1.41-28.81-8.45zm1.08-5.56c2.6 6.98 14.33 9.43 24.25 8.94 0-2.07 0-4.15-.42-5.86-7.72.24-18.16-.1-23.83-3.08zm42.64-3.73c-5.21 2.38-9.41 5.84-16.22 6.49-.32 1.12-.18 3.96 0 5.83 8.9-.19 13.2-6.55 16.23-12.32zm-97.544-20.2c-2.47 0-4.708 1.59-5.236 5.43 1.096-.72 1.978-2.76 3.954-1.79-1.734 3.39-1.32 9.98 1.04 12.12-.01-4.01-.638-10.88 2.79-10.68 2.397.15 2.884 5.29 4.928 6.45 1.408-6.78-3.358-11.47-7.476-11.53zm107.194-5.18v.33C176.18 86.47 185 107.45 185 130.56c0 16.9-4.74 32.67-12.9 46.01h.1c-6.05.26-13.05 3.49-17.71 5.8 3.93-10.32 7.3-21.02 10.76-32.6 1.04-3.46 3.08-8.39 2.62-11.99-.43-3.37-5.7-6.92-8.47-9.6-1.54-1.48-8.73-6.94-9.15-8.98-.4-1.98 2.93-6.46 4.01-8.7 1.53-3.2 2.64-7.12 3.4-9.8 2.58-9.07 4.09-19.69 4.21-30.11zM43.387 66.15c.31 1.41.626 2.84.387 4.04-.2 1.01-1.566 2.3-1.84 2.95-3.487 8.32-.692 19.25 3.34 25.16 2.436 3.57 6.47 6.74 11.792 7.58.21 3.19.98 5.93 2.45 9.16.93 2.04 4.41 5.7 3.13 8.32-.644 1.3-6.31 4.17-8.19 5.29-6.344 3.81-10.94 6.13-16.798 10.36-3.79 2.73-9.715 3.08-8.78 9.37.63 4.24 3.045 9.51 4.428 13.77 1.496 4.59 3.64 8.8 4.872 13.56 1.496 5.8 2.336 11.42 2.906 17.02-.264-.26-.535-.52-.797-.78-15.352-15.71-24.85-37.41-24.85-61.39 0-23.99 9.498-45.68 24.85-61.4a88.91 88.91 0 0 1 3.1-3.01zm-.315-1.61l.06.36-.06-.36zm-.114-1.06c0 .24.03.47.06.72-.03-.25-.05-.48-.06-.72zm87.642-4.54c-.26 0-.58.1-.95.34-.24 8.99 6.44 16.44 11.43 22.45 2.43 2.93 5.37 4.61 2.67 9.16-4.36 1.65-11.42 6.41-17.48 5.37-3.21-.56-2.49-4.2-3.64-6.18-2.22 2.91-1.35 7.33.93 9.3 10.68 1.07 17.95-3.48 24.47-7.68-.26-1.64 1.97-4.6 1.35-7.06-.21-.86-2.14-2.08-3.32-3.37-4.78-5.21-11.33-13-13.93-19.09-.23-.55-.4-3.09-1.53-3.24zm-20.56-3.53c-1.35 3.83 2.31 10.33 4.37 13.62-2.68 2.6-7.49.44-11.07.27-3.412 5.4 6.67 6.41 11 5.13 1.19-.34 3.24-2.12 3.52-2.92 1.2-3.38-1.22-4.86-2.47-6.07-2.77-2.7-3.4-6.45-5.35-10.02zm39.61-.11c-.27 4.9 1.54 7.84 2.8 11.31-2.18 1.38-6.44.52-8.91 1.6-.17 7.26 11.23 3.68 12.97-.36-2.59-3.77-4.37-8.28-6.42-12.55zM68.23 40.5c3.512 8.94-2.52 19.56-.274 29.33.688 3 3.07 7.64-.73 7.74.1-8.51-10.468-13.92-18.43-8.91-.532-6.46-1.454-15.54 2.95-20.39 4.064-4.47 9.666-7.26 16.485-7.77zm32.47-.94c-5.14 0-10.996 5.5-12.524 9.69-.624 1.71-1.6 5.05.856 5.65 2.76-6.14 7.272-12.06 16.358-9.94 1.75-2.87-1.37-4.98-3.68-5.32-.33-.1-.67-.1-1.01-.1zM83.464 20.11c.464 0 .88.31 1.28.74-.06 1.58-1.616 1.55-2.672 2.06-1.637 2.01-4.03 2.95-6.023 5.16-2.045 2.26-4.332 8.33-7.04 9-1.36.34-2.908-.25-4.092-.15-3.13.19-5.332 1.79-8.505 2.26 4.097-8.96 16.875-16.21 26.843-19.03h.208zm24.636-4.56c9.44-.1 19.94 3.24 27.06 7.26 5.95 3.35 10.34 9.83 14.52 15.23-5.87-1.74-10.86 1.25-9.95 6.09 4.91-4.5 13.3 0 15.78 4.93 2.37 4.75 2.36 11.8 2.72 18.87.88 17.15-3.14 34.84-11.75 47.24-2.31 3.31-4.24 6.93-7.48 9.2-7.81 5.49-19.68 10.46-29.84 7.05-13.432-4.51-19.528-13.46-26.92-23.7.2 5.63 4.16 10.25 8.072 14.55 3.4 3.75 7.504 7.99 11.918 9.74-3.678-.87-9.334-1.13-10.87 2.17-8.592-.57-16.585-1.45-20.65-7.28-3.204-4.58-6.46-12.39-7.92-18.43-.297-1.23-.808-3.88-.684-4.55.48-2.62 5.142-3.78 3.308-7.43-3.383 0-4.145 3.08-7.252 3.39-8.04.8-13.712-10.66-13.346-17.56.31-5.88 5.275-11.5 12.068-10.76 4.802.53 6.433 5.77 7.365 10.43 2.767.15 6.764-.12 8.072-2.28-.187-5.27-2.634-9.49-2.466-14.33.316-9.1 5.273-17.31 1.45-26.27 4.092-9.29 16.102-16.62 24.982-21.05 3.44-1.72 7.512-2.47 11.812-2.51zm.81-5.55c-7.59 0-15.11 1.13-21.286 3.41-4.24 1.56-8.347 2.96-12.07 5.15-9.963 5.84-20.536 9.76-23.492 21.53-6.32 2.83-8.804 10.23-9.11 19.21a89.96 89.96 0 0 0-6.55 6.06C20.086 82.06 10 105.12 10 130.56c0 25.44 10.086 48.5 26.402 65.19a89.332 89.332 0 0 0 5.354 5.02c.138 1.98.27 3.96.398 5.95.263 4.07-.17 8.37.885 10.61 1.087 2.32 5.116 3.06 8.03 4.42 8.408 3.88 17.33 9.82 28.36 8.64 2.626 8.84 5.114 18.26 8.274 26 11.312 4.07 29.166 3.44 40.926 2.02 3.57-.43 7.34-2.19 8.18-5.29-.25-1.91-.53-3.8-.41-6.06 3.68-.76 8.68-1.39 9.49-5.46 1.14-5.7-3.6-13.88-2.02-20.14 2.13-.69 4.4-1.23 4.06-4.59 3.59-1.87 7.84-2.29 12.38-2.12.59 1.14 1.42 2.23 2.17 2.84 6.36 1.28 12.52 1.39 17.8-.33 5.98-1.95 8.83-14.18 7.47-20-.97-4.12-3.17-10.87-5.04-14.87-1.16-2.47-2.84-4.01-4.83-4.89 7.98-13.76 12.55-29.81 12.55-46.94 0-25.44-10.08-48.5-26.4-65.2-.77-.79-1.57-1.57-2.37-2.33-.55-9.67-2.42-18.77-5.91-25.83-3.06-6.19-11.61-14.74-16.97-18.78-7.49-5.67-18.76-8.35-29.87-8.42z"/></svg>
