<svg xmlns="http://www.w3.org/2000/svg" viewBox="0 0 1000 1000"><path d="M984 447.8L789.9 461s2.2 33.4 40.2 47.1c40.8 14.7 97.4-2 97.4-2l49.3 64.6s-36.9 20-109.5 20.7c-94.7.9-166-54.5-171.7-152.2-.8-13.9 0-27.7 2.4-41.1 123.1-3.5 205.8-12.9 205.8-12.9s1.4-26.6-22.3-40c-13.6-7.7-35.5-9.6-45-8.5-5.9.7-53.7 5.8-120.9 10.4 24.7-46.3 70.8-79.7 130.8-80.2 91.4-.9 124.5 59.7 135.1 113.3 5.4 27.1 2.5 67.6 2.5 67.6zM593.5 274L535 458.8l-19.2-60.5c-34.9-.9-68.4-2.4-100.3-4.1l73.1 195.5h88.9L698 274H593.5zm-117.3 0H370.5l29.5 78.9c32.9.8 67 1.3 101.7 1.3L476.2 274zm-148.5 76.5V274h-98.2v71.5c30.2 1.8 63.2 3.6 98.2 5zm-98.2 28.3v210.7h98.2V388.1c-35.7-2.8-68.5-6-98.2-9.3zM160 340.7V274H61.8v58.1c17.5 1.8 51.9 5.1 98.2 8.6zm0 29.7c-49.5-6.6-83.5-12.4-98.2-15.1v243.5s1.4 19.9-9.7 33.4C37 650.5 15.3 653 15.3 653L51 733.1s20.5-3.7 40.7-13.4c25-12 42.3-24.7 55.7-48.8 13.4-24.1 12.6-51 12.6-51V370.4z"/></svg>