<svg xmlns="http://www.w3.org/2000/svg" viewBox="0 0 277.9 92.13"><path d="M199.3 30.1c-.7.2-1.2.9-1.4 1.9-.2 1-.6 1.6-1.1 1.7-.5.2-1.3.2-1.7-.1-1.2-1.1-3.6-2.5-7.8-2.5-6.7 0-9.6 4.8-9.6 9.1 0 5.1 2 7.6 6.3 8.5.2 0 .2.3 0 .4-3.7.7-6.9 1.8-6.9 5.3 0 2.1 1.2 3.2 2.7 3.9 1.7.7 4.1 1 7.1 1.1 2.7 0 4.5.1 5.8.2 1.3.2 2.3.6 3.1 1.1.8.6 1.2 1.6 1.2 2.7 0 1.7-.9 3-2.6 3.9-1.6.9-3.8 1.4-6.5 1.4-2.3 0-4.3-.3-6-1.4-1.3-.8-1.5-2.3-1.3-3.4.3-1.2-.1-2.3-1.4-2.6-.8 0-1.7.3-2.1 1-.4.6-.5 1.3-.5 2.2 0 2.8 2.2 4.2 3.9 4.7 2.6.7 4.3 1 6.7 1 3.1 0 5.7-.5 7.5-1.5 1.8-.9 3.1-2 3.8-3.3.7-1.3 1.1-2.7 1.1-3.9 0-1.8-.4-3.2-1.2-4.3-2.3-3.2-5.7-2.8-13.4-3.2-3.7 0-4.4-.6-4.4-1.8 0-1.6 1.4-2.3 6.7-3.1 5.2-.8 10.1-2.7 10.1-9.1 0-1.9-.4-3.4-.9-4.5 1.1.2 2.1.2 3-.1 1-.3 1.7-.9 2.1-1.6.4-.8.6-1.6.4-2.3-.3-1.5-1.4-1.8-2.7-1.4m-11.8 17.6c-3.2 0-4.9-1.1-4.9-7.5 0-4.5 1.5-7.8 4.9-7.8 3.9 0 5 3 5 7.7 0 6.7-2.1 7.6-5 7.6m65.5 5.5c.6.7 1.5 1 2.9 1.1v1.5h-11.4v-1.5c.8-.1 1.4-.2 1.9-.5.5-.4.7-1 .8-1.7 0-.7.3-1.6.3-2.9v-7.9c0-1.9 0-4.3-.8-5.6-.5-1.2-1.5-1.8-3.3-1.8-2 0-3.8 1-4.8 2.7-.9 1.6-.9 4.2-.9 6.9v6.3c0 1.7.3 2.8.7 3.5.4.6 1.2.9 2.4 1v1.5h-12v-1.5c.9 0 1.6-.2 2-.4.8-.3 1.2-.8 1.4-1.5.3-.6.3-1.5.3-2.8V32.9h-3.7v-1.2h7.5l.8 4.4h.4c.9-1.9 3-4.7 7.9-4.7 1.3 0 2.5.3 3.6.8 1 .5 1.9 1.4 2.5 2.4.6 1.1.8 2.5.8 4.1v10.9c0 1.2 0 2.8.7 3.6m-28.1.2c-1.5 0-1.9-.8-2-2.2l-.1-3.1V38c0-2.2-.4-3.6-1.7-4.9-1.2-1.3-3.7-2-7.2-2-3.4 0-6 .7-7.6 1.9-1.5 1.2-2.1 2.3-2.1 3.9 0 .7.1 1.2.6 1.6.4.3.9.5 1.5.5 1.3 0 2.1-.7 2.4-2.5.2-1.3.5-2.1 1.1-2.8.7-.7 1.8-1.1 3.3-1.1 1.7 0 3 .5 3.6 1.4.7.9 1 2.1 1 3.5v4.1c-4.4.4-14.8 1.2-14.3 9.1.1 3.1 2.9 5.9 6.4 5.9 3.9 0 6.4-2.3 8.1-4 .2 1.6 1.8 3.7 4.6 3.7 3.2 0 5.1-1.6 5.4-5.5h-.9c-.2 1.7-1.2 2.6-2.1 2.6m-7.2-2.6c0 .1 0 .2-.1.2l-.1.1c-2.3 2.2-4.1 2.9-5.5 2.9-3.3 0-3.8-2.8-3.8-4.2 0-4.5 6.1-6.7 9.5-6.7v7.7m-47.6-19.3c-4.2 0-5.7 2.5-6.9 5.1 0 0-.3-.1-.3 0l-.8-4.9H154V33h4.4v16.6c0 1.7 0 3-.5 3.6-.5.8-1.5 1.2-3.2 1.2h-.7v1.5h13.8v-1.6h-.8c-1.8 0-2.7-.4-3.2-1.1-.4-.7-.6-1.9-.6-3.6V41c0-2.9 2.3-6.2 4.9-6.2 2.8 0 2.9 3.9 5.9 2.5 2.1-1 1.6-5.8-3.9-5.8m-29.9-.4c-7.1 0-11.5 4.7-11.5 12.9 0 12 9.3 12.8 11.3 12.8 4 0 11.6-2.5 11.6-13 0-8.2-4.8-12.7-11.4-12.7m0 24.2c-5.3 0-6.1-2.6-6.1-11.2 0-6.5.3-11.5 6.1-11.5 6.2 0 6.2 5.1 6.2 11.1 0 8.7-1.5 11.6-6.2 11.6m-17.8-3.1c-.3-.6-.3-1.3-.3-2.3V23.2h3.5V22H117c0 .3-10.3 25.8-10.3 25.8 0 .1-.3.2-.3.2s-.3-.1-.3-.2c0 0-10.9-25.5-11-25.8h-9.6v1.2h4V51.3c0 .6-.3 1.1-.6 1.6s-.9.8-1.5 1.1c-.5.1-1.2.2-2 .3v1.5h9.7v-1.5c-.8-.1-1.2-.1-1.6-.3-.7-.2-1.2-.6-1.6-1.1-.3-.4-.5-1-.6-1.6V26.8h.6s12.3 28.7 12.4 29h1.1L117 27.1h.3v22.8c0 1 0 1.8-.3 2.4-.3.7-.7 1.2-1.5 1.6-.5.2-1.3.3-2.4.4v1.5h13.3v-1.5c-1.3-.1-2.1-.2-2.6-.5-.8-.3-1.3-.9-1.5-1.6M68 22.1H54.4v1.2h3.9v26.3c0 2.1 0 2.2-.3 2.8-.3.7-.8 1.2-1.7 1.5-.5.3-1.5.4-2.7.5v1.5h14.6v-1.5c-1.2 0-2.2-.3-2.8-.4-.9-.4-1.4-.9-1.7-1.6-.3-.6-.4-1.1-.4-2.1v-8.6h3.6c10.6 0 13.5-4.1 13.5-9.8 0-5.8-1.8-9.8-12.4-9.8m-1.9 18.3h-2.8V23.5l2.5-.1c8.2 0 10 3.4 10 8.8s-3.3 8.2-9.7 8.2m10.5 10.9c-.8 0-1.4.3-2 .8-.5.5-.7 1.2-.7 1.9 0 .8.3 1.4.7 1.9.6.6 1.2.8 2 .8.7 0 1.4-.2 1.9-.8.6-.5.8-1.1.8-1.9 0-.7-.3-1.4-.8-1.9s-1.1-.8-1.9-.8m-29.8 0c-.8 0-1.4.3-2 .8-.5.5-.8 1.2-.8 1.9 0 .8.3 1.4.8 1.9.6.6 1.2.8 2 .8.7 0 1.4-.2 1.9-.8.6-.5.8-1.1.8-1.9 0-.7-.3-1.4-.8-1.9s-1.1-.8-1.9-.8m-.9-29.2H32v1.2h4.4v23.1c0 6.9-1.9 8.8-6.2 8.8-2.7 0-3.1-2-3.1-3.1 0-2.5-.3-4-2.5-4-2.3 0-2.6 2.3-2.6 3 0 3.2 2.5 5.6 8.8 5.6 7.5 0 10.5-2.5 10.5-11V23.3h4.6v-1.2"/></svg>