<svg xmlns="http://www.w3.org/2000/svg" viewBox="0 0 330 100"><path d="M312.42 65.318c.61 0 .96-.175.96-.825 0-.64-.34-.788-.98-.788h-1.36v1.613zm-.14.555h-1.24v1.708h-.59v-4.44h1.98c1.12 0 1.56.462 1.56 1.34 0 .716-.31 1.21-1.08 1.352l1.01 1.75h-.64zm-.25-3.86a3.37 3.37 0 0 0-3.37 3.366 3.37 3.37 0 0 0 3.37 3.364c1.85 0 3.36-1.51 3.36-3.365a3.37 3.37 0 0 0-3.36-3.367m0 7.23a3.874 3.874 0 0 1-3.87-3.864c0-2.13 1.74-3.867 3.87-3.867s3.86 1.736 3.86 3.866a3.865 3.865 0 0 1-3.86 3.864M7.583 82.23c23.742 0 24.753-10.64 24.753-25.648V7.697h-5.6v48.885c0 11.31.446 20.385-19.153 20.385-.742 0-1.444-.03-2.13-.05v5.28c.688.02 1.397.03 2.13.03M238.97 34.023h41.66c-.56-12.207-1.34-22.623-19.15-22.623-17.13 0-21.84 9.296-22.51 22.622m-5.6 4.146c0-18.03 5.15-31.92 28.23-31.92 23.85 0 24.63 16.014 24.52 32.925h-47.26c.11 14.898 3.8 25.986 23.18 25.986 10.31 0 15.01-2.803 20.05-6.496l3.13 4.143c-5.6 4.143-12.2 7.392-23.18 7.392-24.19 0-28.67-14.002-28.67-32.032m-26.94 4.046c9.89 0 14.81-4.82 14.81-14.56 0-9.732-5.31-14.356-15.05-14.356H183.2v28.916zM177.72 7.81h28.63c14.19 0 20.63 7.057 20.63 19.6 0 12.627-6.35 20.302-20.71 20.302H183.2v21.25h-5.48zm-15.75 0h5.47v61.145h-5.47zm-10.39 23.85V68.96h-5.71V31.55c0-10.752.11-19.824-19.6-19.824-19.6 0-19.15 9.072-19.15 20.385V68.96h-5.6V32.11c0-15.008 1.01-25.647 24.75-25.647 23.85 0 25.31 10.64 25.31 25.198M41.972 44.99V7.695h5.712v37.408c0 10.752-.11 19.824 19.6 19.824 19.6 0 19.152-9.072 19.152-20.385V7.695h5.6v36.847c0 15.01-1.01 25.65-24.753 25.65-23.856 0-25.31-10.64-25.31-25.2M318.92 6.476c-23.75 0-24.75 10.638-24.75 25.647V68.97h5.59V32.12c0-11.313-.44-20.385 19.16-20.385 2.1 0 3.96.11 5.64.308V6.71c-1.73-.152-3.6-.235-5.64-.235m-31.41 85l.91-1.365c2.03 1.274 4.01 1.708 6.04 1.708 3.49 0 5.04-.98 5.04-3.305 0-2.394-2.01-2.735-5.04-3.282-3.65-.638-6.11-1.254-6.11-4.67 0-3.263 2.1-4.537 6.11-4.537 2.65 0 4.54.59 5.88 1.505l-.96 1.458c-1.2-.797-3-1.322-4.92-1.322-3.03 0-4.33.844-4.33 2.85 0 2.143 1.76 2.55 4.77 3.098 3.69.66 6.35 1.208 6.35 4.832 0 3.35-2.14 4.967-6.74 4.967-2.55 0-4.86-.52-7-1.934m-9.58-7.248l-3.37 3.69v5.268h-1.76v-16.89h1.76v9.323l8.54-9.323h2.08l-6.06 6.63 6.88 10.26h-2.03zm-14.63.417c2.39 0 3.87-.73 3.87-3.396 0-2.623-1.43-3.306-3.94-3.306h-5.49v6.7zm-.5 1.64h-5.06v6.885h-1.76V76.28h7.3c3.92 0 5.7 1.573 5.7 4.924 0 2.916-1.4 4.627-4.34 5.013l4.08 6.953h-1.91zm-12.27-1.557c0-4.56-2.12-7.02-6.73-7.02-4.58 0-6.67 2.46-6.67 7.02 0 4.582 2.09 7.045 6.67 7.045 4.61 0 6.73-2.463 6.73-7.045m-15.2-.02c0-6.018 3.07-8.706 8.47-8.706 5.43 0 8.53 2.688 8.53 8.706 0 6.04-3.1 8.73-8.53 8.73-5.4 0-8.47-2.69-8.47-8.73M210.6 76.43h1.85l4.44 13.972 4.54-13.97h1.55l4.51 13.97 4.47-13.97h1.73l-5.43 17.002h-1.54l-4.56-14.062-4.54 14.062h-1.57zm-10.33 1.71h-6.34v-1.71h14.48v1.71h-6.34v15.182h-1.8zm-20.21-1.71h11.17v1.712h-9.37v5.58H191v1.69h-9.14v6.267h9.46v1.64h-11.26zm-18.11 0h1.96l10.1 13.927V76.43h1.73v16.89h-1.64l-10.42-14.337V93.32h-1.73z"/></svg>