<svg xmlns="http://www.w3.org/2000/svg" viewBox="0 0 2722 2169"><path d="M734.2 22.2v254.7L863.1 513l-209 940c-47.3 3-94.8-1-140.9-12-88.3-21-170.4-67-234.1-131 48.3 53 107.5 96 173 126 145.1 66 312.1 64 470.3 43 182.6-24 363.6-72 547.6-73 122-1 243 18 358 56l-210-949 128-236.1V22.2h-227v136.5h-162V22.2h-247v136.5H943.7V22.2zM2620 308.1a80.22 82.44 61.68 0 0-83 65.8 80.22 82.44 61.68 0 0 63 94.2 80.22 82.44 61.68 0 0 97-64.3 80.22 82.44 61.68 0 0-63-94.3 80.22 82.44 61.68 0 0-14-1.4zm-163 108.5c-21-.1-42 .7-62 2.2-140 10.3-277 57.9-393 136.6-116 78.8-211 188.3-273 314.5l846 629.1-748-642.4c74-147.3 195-270.8 340-347.9 101-53.2 213-84.6 327-91.1-12-.6-25-.9-37-1zM1250 687.8h1c8 0 17 1.7 24 5.2 8 3.6 15 9.2 20 15.9 5 6.8 8 14.9 10 23.2 1 8.3 2 16.8 2 25.2v157.5h-112V757.3c0-8.4 0-16.8 2-25.1 1-8.2 4-16.2 9-23 5-6.8 12-12.3 20-16 7-3.6 16-5.3 24-5.4zM2592 1817v12h15v46h13v-46h14v-12zm46 0v58h13v-36l1 4 15 33 14-33 1-3v35h13v-58h-16l-11 27-1 3-2-3-11-27zm-256 1c-17 0-32 3-46 7-14 5-26 11-36 19-10 7-19 16-26 27-8 10-14 22-19 34-4 12-7 25-10 38-2 13-3 26-3 39s1 26 3 39c3 13 6 26 10 38 5 12 11 24 19 34 7 11 16 20 26 28 10 7 22 13 36 18 14 4 29 7 46 7s32-3 46-7c13-5 25-11 35-18 11-8 19-17 27-28 7-10 13-22 18-34 4-12 8-25 10-38s3-26 3-39-1-26-3-39-6-26-10-38c-5-12-11-24-18-34-8-11-16-20-27-27-10-8-22-14-35-19-14-4-29-7-46-7zm-2360 6v316h61v-79l59-72 81 151h71.5L183 1937l92.1-113H203L83 1975v-151zm512.5 0l-121.1 316h65.5l24.3-65h122l24.5 65h65.5l-121.1-316zm265.8 0v59h90.4v257h60.9v-257h90.4v-59zm386.7 0v316h226v-58h-165v-76h91v-58h-91v-66h155v-58zm376 0v316h213v-59h-152v-257zm345 0v316h214v-59h-153v-257zm474 53c9 0 18 2 25 5 8 2 14 7 20 12 5 5 10 11 14 18 4 6 7 14 10 21 2 8 4 16 5 24 1 9 2 17 2 25 0 11-2 23-4 36-3 12-7 23-13 33-6 11-14 19-24 26-9 6-21 10-35 10s-26-3-36-10c-10-6-18-14-24-24-6-11-10-22-12-34-3-13-4-25-4-37 0-8 0-16 1-24s3-16 6-24c2-7 5-15 9-22 4-6 9-13 15-18 5-5 12-9 19-12 8-3 16-5 26-5zm-1817.7 31c1.3 5 2.9 10 4.6 15 1.9 5 3.7 10 5.3 14l31.1 82H523l31.4-82c1.6-4 3.3-9 5.3-14 1.9-5 3.4-10 4.6-15z"/></svg>