<svg xmlns="http://www.w3.org/2000/svg" viewBox="0 0 315.6 266.2"><path class="only-light-background" d="M153.1 22c-1.8 0-3.6.4-5.2 1.2L97.3 47.4c-3.3 1.6-5.7 4.5-6.5 8.1l-12.5 54.3c-.9 3.6 0 7.3 2.3 10.2l35 43.5c2.3 2.9 5.7 4.5 9.3 4.5l56.4-.1c3.6 0 7-1.7 9.3-4.5l35-43.5c2.3-2.9 3.1-6.6 2.3-10.2l-12.5-54.3c-.8-3.6-3.2-6.5-6.5-8.1l-50.6-24.1c-1.6-.8-3.4-1.2-5.2-1.2zm0 20.9c1.7 0 3.1 1.5 3.1 3.3V47.1c-.1.7-.2 1.3-.3 1.9-.1.3-.2.7-.2 1v.1c-.2 2-.4 3.8-.3 5.4.1.7.5 1 .8 1.3l.2.2.1 1.3c7.6.7 14.9 3.6 20.9 8.3 1.4 1.2 2.8 2.4 4.1 3.8l1.2-.8h.2c.2.1.4.1.6.1.3 0 .6-.1.9-.3 1.3-.9 2.6-2.1 4-3.6.3-.2.5-.5.7-.7.4-.5.8-.9 1.3-1.4.2-.1.3-.3.5-.4l.2-.2c.7-.5 1.4-.8 2.2-.8.9 0 1.8.4 2.3 1.1 1 1.3.7 3.3-.7 4.5 0 .1-.1.1-.2.2-.2.2-.4.3-.5.4-.6.4-1.1.7-1.7 1-.3.2-.6.3-.9.5-1.8 1.1-3.3 2-4.5 3.1-.4.5-.5 1-.5 1.5v.2l-1 .9c2.6 4 4.5 8.4 5.6 13.1 1.1 4.7 1.3 9.5.7 14.1l1.3.4c0 .1.1.1.1.2.2.4.4.8 1.1 1.1 1.6.5 3.3.7 5.4.9h.1c.4.1.7.1 1 .1.6 0 1.2.1 1.9.2.2 0 .4.1.6.1 0 .1.1.1.2.1h.1c1.8.5 2.9 2.1 2.9 3.3-.4 1.3-1.7 2.3-3.2 2.3-.3 0-.5 0-.8-.1-.1-.1-.2-.1-.3-.1-.2 0-.4-.1-.6-.1-.7-.2-1.2-.4-1.8-.7-.3-.1-.6-.3-.9-.4h-.1c-1.9-.7-3.6-1.3-5.2-1.5h-.2c-.6 0-.9.3-1.3.5-.1 0-.1.1-.2.1l-1.2-.2c-1 3.1-2.4 6.2-4.2 9-3.4 5.4-7.9 9.8-13.2 12.9l.5 1.2c0 .1-.1.1-.1.2-.1.5-.3.9-.1 1.6.5 1.5 1.5 3 2.6 4.7v.1c.2.3.4.5.6.8.4.5.8 1 1.1 1.6.1.1.2.3.3.5 0 .1.1.1.1.2.4.8.4 1.7.2 2.5s-.8 1.4-1.5 1.8c-.4.2-.8.3-1.2.3-1.2 0-2.4-.7-3-1.9 0 0-.1-.1-.1-.2-.1-.2-.2-.3-.3-.5-.3-.6-.4-1.2-.6-1.8l-.3-.9v-.1c-.7-1.9-1.3-3.6-2.1-5-.4-.6-.8-.8-1.3-.9-.1-.1-.1-.1-.2-.1l-.6-1.1c-1.7.6-3.4 1.1-5.2 1.5-2.8.7-5.8 1-8.7 1-4.8 0-9.6-.9-14-2.6l-.7 1.3c-.1.1-.1.1-.2.1-.4.2-.9.3-1.3.9-.9 1.4-1.4 3-2.1 5l-.3.9c-.2.6-.3 1.1-.6 1.8-.1.1-.2.3-.3.5 0 0-.1.1-.1.2-.6 1.1-1.8 1.9-3 1.9-.4 0-.8-.1-1.2-.3-1.5-.7-2.1-2.6-1.3-4.3 0 0 .1-.1.1-.2.1-.2.2-.4.3-.5.4-.6.7-1.1 1.1-1.6.2-.3.4-.5.6-.8v-.1c1.1-1.7 2-3.2 2.6-4.7.2-.7 0-1.2-.2-1.6 0-.1-.1-.1-.1-.2l.6-1.3c-1.5-.9-2.9-1.8-4.3-2.9a39.55 39.55 0 0 1-13.1-18.8l-1.4.2c-.1 0-.1-.1-.2-.1-.3-.2-.7-.5-1.3-.5h-.2c-1.6.2-3.3.8-5.2 1.5h-.1c-.3.1-.6.3-.9.4-.6.3-1.1.5-1.8.7-.2 0-.4.1-.6.1 0 .1-.1.1-.2.1-.3.1-.5.1-.8.1-1.6 0-2.9-.9-3.2-2.3-.3-1.6.8-3.3 2.6-3.7.1-.1.2-.1.3-.1.2 0 .4-.1.6-.1.7-.1 1.3-.2 1.9-.2.3-.1.7-.1 1-.1h.1c2.1-.2 3.9-.4 5.4-.9.6-.3.9-.7 1.1-1.1 0-.1.1-.1.1-.2l1.3-.4c-1.3-9.2.6-18.5 5.6-26.4.1-.3.3-.5.5-.8l-1-.9v-.2c0-.5 0-1-.5-1.5-1.2-1.1-2.7-2-4.5-3.1-.3-.2-.6-.4-.9-.5-.6-.3-1.1-.6-1.7-1-.2-.1-.3-.3-.5-.4-.1 0-.1-.1-.2-.1-1.4-1.2-1.7-3.2-.7-4.5.5-.7 1.4-1.1 2.3-1.1.8 0 1.6.3 2.2.8 0 .1.1.1.2.2.2.2.4.3.5.4.5.5.9.9 1.3 1.4.3.2.5.5.7.7 1.4 1.5 2.7 2.8 4 3.7.3.2.6.3.9.3.2 0 .4-.1.6-.1h.2l1 .7c5.3-5.6 12.1-9.5 19.8-11.2 1.8-.4 3.6-.6 5.4-.8l.1-1.3.2-.2c.3-.3.7-.6.8-1.3.2-1.6-.1-3.4-.3-5.4v-.1c-.1-.4-.1-.7-.2-1-.2-.6-.3-1.2-.3-1.9v-.8c0-.9.3-1.7.9-2.3.6-.6 1.4-1 2.2-1zm-4 23.5c-1.1.2-2.1.4-3.2.6-5.7 1.3-10.8 4.1-14.9 8.2l13.3 9.5c.3.2.8.3 1.2.3 1.5 0 2.6-1.2 2.7-2.6zm7.8.1l.9 16.3c.1.4.2.8.5 1.1.9 1.1 2.4 1.3 3.5.6l13.1-9.3c-4.8-4.8-11.1-7.9-18-8.7zm-30.7 14.7c-3.6 5.9-5.1 12.8-4.5 19.6l15.5-4.5c.5-.1.9-.4 1.2-.8.9-1.1.8-2.8-.3-3.7zm53.5 0l-12.1 10.9c-.3.3-.5.7-.6 1.1-.3 1.4.5 2.8 1.9 3.2l15.3 4.4c.3-3.3.1-6.7-.7-10.1-.8-3.5-2.1-6.7-3.8-9.5zm-29.2 11.4l-3 3.8 1.1 4.7 4.4 2.1 4.4-2.1 1-4.7-3-3.8zm15.9 12.9c-.5 0-1 .1-1.4.3-1.2.6-1.7 1.9-1.4 3.1l6.3 15.1c3.8-2.5 7.1-5.7 9.6-9.7 1.3-1.9 2.3-3.9 2.9-6.1zm-27 .1l-15.9 2.7c2.4 6.6 6.9 12.1 12.5 15.7l6.1-14.7c.2-.5.2-1 .1-1.6-.3-1.3-1.5-2.2-2.8-2.1zm13.3 6.5c-.7 0-1.4.4-1.9 1l-7.9 14.3c3.2 1 6.6 1.6 10.1 1.6 2.4 0 4.7-.3 7-.8 1-.3 2-.5 2.9-.8l-7.7-13.9c-.3-.4-.7-.8-1.2-1.1-.4-.2-.9-.3-1.3-.3z"/><path d="M28.9 227.8c.7-.8 1.3-1.6 2-2.5.7-.9 1.4-1.8 2-2.7.6-.9 1.3-1.8 1.9-2.7.6-.9 1.1-1.7 1.6-2.5h8.2c-.7.9-1.4 1.8-2.3 2.8-.9 1-1.7 2-2.6 3.1l-2.7 3c-.9 1-1.7 1.9-2.5 2.7.9.9 1.9 2 3 3.2 1.1 1.2 2.1 2.5 3.2 3.9 1 1.3 2 2.7 2.9 4 .9 1.3 1.6 2.5 2.1 3.6h-7.9c-.4-.9-1-2-1.8-3.1-.7-1.2-1.5-2.3-2.3-3.5-.8-1.1-1.6-2.2-2.5-3.2-.8-1-1.6-1.9-2.3-2.5v12.4H22v-37.5l6.9-1.2zm41.8 14.9v-25.3h-6.9V238c-1 .2-2.1.3-3.1.3-1.7 0-2.8-.6-3.4-1.8-.6-1.2-.9-3-.9-5.4v-13.7h-6.9V232c0 1.8.1 3.4.4 4.9.3 1.5.8 2.8 1.6 3.9s1.9 1.9 3.3 2.5c1.4.6 3.1.9 5.3.9 2.1 0 4.1-.2 5.9-.5 1.9-.3 3.5-.7 4.7-1zm22.7-12.4c0 2.9-.5 4.9-1.6 6.2-1.1 1.3-2.5 1.8-4.2 1.8-.4 0-.9 0-1.5-.1-.6 0-1.1-.1-1.6-.2v-14.2c.5-.3 1.1-.5 1.9-.8.7-.2 1.5-.3 2.2-.3 1.6 0 2.9.7 3.6 2 .8 1.3 1.2 3.2 1.2 5.6zm7 .2c0-2-.2-3.9-.7-5.6-.4-1.7-1.1-3.1-2-4.3-.9-1.2-2-2.1-3.3-2.8-1.3-.6-2.8-1-4.5-1-.9 0-1.8.1-2.7.3-.9.2-1.8.5-2.8.9v-13.1l-6.9 1.2v36.7c1.3.4 2.8.7 4.7 1 1.9.3 3.7.4 5.5.4 2 0 3.8-.3 5.3-1 1.6-.6 2.9-1.6 4-2.8 1.1-1.2 1.9-2.6 2.5-4.3.6-1.6.9-3.5.9-5.6m3.4.2c0 2.2.3 4.2 1 5.8.7 1.7 1.6 3.1 2.9 4.2 1.2 1.1 2.7 2 4.5 2.6 1.8.6 3.8.9 6 .9 1.7 0 3.2-.1 4.5-.4 1.3-.3 2.6-.6 3.8-1l-.9-5.8c-.9.3-1.9.6-3.1.9-1.2.3-2.6.4-3.9.4-2.2 0-4-.5-5.5-1.5-1.4-1-2.1-2.3-2.1-4h17c0-.3.1-.7.1-1.2v-1.4c0-4.4-1-7.7-3-10s-4.9-3.4-8.8-3.4c-1.6 0-3.1.3-4.6.9-1.5.6-2.8 1.5-4 2.6-1.2 1.2-2.1 2.6-2.8 4.4-.8 1.7-1.1 3.7-1.1 6zm17.5-2.7h-10.5c.1-.7.2-1.4.5-2.1.2-.7.6-1.3 1-1.8s1-.9 1.6-1.2c.6-.3 1.4-.4 2.3-.4.9 0 1.7.2 2.3.5.6.3 1.2.7 1.6 1.3.4.5.7 1.1.9 1.8.2.5.3 1.2.3 1.9zm32.9-3.6l1.2-6.4c-.6-.2-1.3-.4-2.1-.5l-2.4-.3c-.8-.1-1.5-.2-2.2-.2-.7 0-1.2-.1-1.6-.1-2.6 0-4.8.2-6.7.6-1.9.4-3.8.9-5.6 1.6v24.5h6.9v-19.4c1-.3 1.9-.4 2.8-.5.9-.1 1.9-.1 2.8-.1.4 0 .9 0 1.5.1.6 0 1.2.1 1.8.2.6.1 1.3.2 1.9.3.8 0 1.3.1 1.7.2zm7.1 19.2h6.9V223c.6-.1 1.1-.1 1.6-.2.5 0 1-.1 1.5-.1 1.7 0 2.8.5 3.4 1.6.6 1.1.8 2.8.8 5.3v13.9h6.9v-14.8c0-1.8-.2-3.4-.5-4.9-.3-1.5-.9-2.7-1.7-3.8-.8-1.1-1.9-1.9-3.3-2.5-1.4-.6-3.1-.9-5.2-.9s-4.1.1-5.9.4c-1.8.3-3.3.6-4.5.9zm26-12.9c0 2.2.3 4.2 1 5.8.7 1.7 1.6 3.1 2.9 4.2 1.2 1.1 2.7 2 4.5 2.6 1.8.6 3.8.9 6 .9 1.7 0 3.2-.1 4.5-.4 1.3-.3 2.6-.6 3.8-1l-.9-5.8c-.9.3-1.9.6-3.1.9-1.2.3-2.6.4-3.9.4-2.2 0-4-.5-5.5-1.5-1.4-1-2.1-2.3-2.1-4h17c0-.3.1-.7.1-1.2v-1.4c0-4.4-1-7.7-3-10s-4.9-3.4-8.8-3.4c-1.6 0-3.1.3-4.6.9-1.5.6-2.8 1.5-4 2.6-1.2 1.2-2.1 2.6-2.8 4.4-.7 1.7-1.1 3.7-1.1 6zm7.1-2.7c.1-.7.2-1.4.5-2.1.2-.7.6-1.3 1-1.8s1-.9 1.6-1.2c.7-.3 1.4-.4 2.3-.4.9 0 1.7.2 2.3.5.6.3 1.2.7 1.6 1.3.4.5.7 1.1.9 1.8.2.6.3 1.3.3 2h-10.5zm27-4.9v10.8c0 2.2.2 4 .7 5.3.4 1.4 1.1 2.4 2 3.1.9.7 1.9 1.2 3.1 1.5 1.2.3 2.6.4 4.2.4 1.4 0 2.8-.1 4.3-.3 1.5-.2 2.8-.6 4.1-1.1l-.9-5.9c-.6.3-1.2.5-1.8.7-.5.2-1.1.3-1.6.4-.5.1-1 .2-1.6.2-.5 0-1.1.1-1.8.1-.6 0-1.1-.1-1.6-.2s-.9-.3-1.2-.7c-.3-.3-.6-.8-.8-1.4-.2-.6-.3-1.4-.3-2.3v-10.6h11v-5.7h-11v-7.7l-6.9 1.1v6.6h-6v5.7zm21.6 7.6c0 2.2.3 4.2 1 5.8.7 1.7 1.6 3.1 2.9 4.2 1.2 1.1 2.7 2 4.5 2.6 1.8.6 3.8.9 6 .9 1.7 0 3.2-.1 4.5-.4 1.3-.3 2.6-.6 3.8-1l-.9-5.8c-.9.3-1.9.6-3.1.9-1.2.3-2.6.4-3.9.4-2.2 0-4-.5-5.5-1.5-1.4-1-2.1-2.3-2.1-4h17c0-.3.1-.7.1-1.2v-1.4c0-4.4-1-7.7-3-10s-4.9-3.4-8.8-3.4c-1.6 0-3.1.3-4.6.9-1.5.6-2.8 1.5-4 2.6-1.2 1.2-2.1 2.6-2.8 4.4-.7 1.7-1.1 3.7-1.1 6zm17.6-2.7h-10.5c.1-.7.2-1.4.5-2.1.2-.7.6-1.3 1-1.8s1-.9 1.6-1.2c.6-.3 1.4-.4 2.3-.4.9 0 1.7.2 2.3.5.6.3 1.2.7 1.6 1.3.4.5.7 1.1.9 1.8.2.5.3 1.2.3 1.9zm21.3 10.4c-1.5 0-3-.2-4.5-.7-1.5-.4-2.9-.9-4.2-1.4l-1.1 5.7c1 .4 2.2.9 3.8 1.4 1.6.5 3.5.8 5.8.8 2.2 0 4.1-.2 5.6-.6 1.5-.4 2.8-1 3.7-1.7.9-.7 1.6-1.5 2-2.5.4-1 .6-2 .6-3.1 0-1.4-.3-2.5-.8-3.5-.6-.9-1.3-1.7-2.1-2.3-.9-.6-1.8-1.1-2.9-1.5-1.1-.4-2.1-.8-3.1-1.1-.7-.2-1.4-.5-2-.7-.6-.2-1.2-.5-1.6-.8-.5-.3-.8-.5-1.1-.9-.3-.3-.4-.7-.4-1.1 0-.5.3-.9.9-1.4.6-.4 1.8-.6 3.5-.6s3.2.2 4.5.6c1.3.4 2.3.7 3 .9l1.1-5.8c-1.1-.5-2.3-.9-3.8-1.1-1.5-.3-3.1-.4-4.8-.4-2 0-3.7.2-5.1.6-1.4.4-2.6 1-3.5 1.8-.9.8-1.6 1.6-2 2.6-.4 1-.6 2-.6 3.1 0 1.4.3 2.5.8 3.4.6.9 1.3 1.7 2.1 2.3.9.6 1.8 1.1 2.8 1.5 1 .4 2.1.7 3.1 1 .7.2 1.4.4 2 .7.6.2 1.2.5 1.7.7.5.2.9.5 1.2.9.3.3.4.7.4 1.2 0 .7-.4 1.2-1.3 1.5-.8.4-2.1.5-3.7.5"/></svg>