<svg xmlns="http://www.w3.org/2000/svg" viewBox="0 0 600 400"><path d="M436.535 336.987c-4.662 0-9.092.047-13.518-.067-.488-.013-1.17-.863-1.395-1.463-4.048-10.76-8.09-21.522-11.995-32.334-.7-1.938-1.574-2.65-3.68-2.554-4.306.195-8.627.058-13.2.058v36.266h-13.142v-83.608c.452-.042.858-.113 1.263-.113 10.56-.002 21.12-.11 31.677.04 11.26.158 19.854 7.8 21.86 18.876 1.91 10.536-3.354 21.258-12.554 25.868 4.868 12.935 9.744 25.896 14.685 39.03zm-43.808-70.198c0 6.7.006 13.105-.005 19.51-.002 1.233.86 1.065 1.626 1.066 5.994.004 11.988.008 17.982-.005.714 0 1.446-.022 2.14-.17 4.402-.943 7.134-4.684 7.25-9.868.114-5.064-2.727-9.1-7.41-10.123-1.9-.417-3.92-.374-5.89-.392-5.145-.05-10.29-.02-15.693-.02zM515.974 336.987c-4.474 0-8.785.04-13.093-.06-.45-.012-1.09-.788-1.287-1.337-2.442-6.756-4.858-13.52-7.175-20.32-.446-1.31-1.05-1.723-2.41-1.712-7.557.064-15.117.06-22.675 0-1.27-.01-1.868.338-2.295 1.585-2.324 6.797-4.78 13.55-7.12 20.34-.396 1.154-.92 1.566-2.166 1.54-4.076-.09-8.154-.034-12.5-.034.814-2.418 1.572-4.705 2.355-6.985 8.575-24.967 17.17-49.93 25.697-74.912.512-1.5 1.157-2.046 2.766-1.97 3.112.15 6.242.148 9.354 0 1.512-.072 2.06.524 2.506 1.834 5.87 17.226 11.788 34.437 17.695 51.65 3.245 9.457 6.495 18.91 9.738 28.367.212.613.378 1.24.61 2.013zm-35-59.99l-.44.012-8.276 22.907h16.762l-8.046-22.92zM292.577 343.584c75.23 0 150.462-.004 225.693.026 1.857 0 3.135-.16 4.074-2.21 1.355-2.956 4.983-4.028 8.06-2.913 3.062 1.11 4.846 4.32 4.262 7.67-.506 2.904-3.553 5.566-6.565 5.424-2.806-.13-5.132-1.376-6.2-4.144-.485-1.257-1.208-1.646-2.43-1.53-.534.052-1.078.01-1.618.01H66.827c-.72 0-1.487.147-2.145-.055-.575-.175-1.028-.75-1.535-1.147.527-.373 1.007-.91 1.592-1.076.666-.19 1.427-.053 2.146-.053h225.69zm231.31 1.116c-.033 2.42 1.71 4.283 4.072 4.355 2.243.068 4.29-1.89 4.356-4.166.065-2.24-1.9-4.295-4.17-4.362-2.324-.07-4.228 1.796-4.26 4.172zM300.548 337.01l-19.097-47.707-.362.075v47.48H267.96v-83.674c4.237 0 8.413-.038 12.585.062.4.01.92.824 1.143 1.364 5.937 14.327 11.842 28.667 17.755 43.004.29.706.614 1.4 1.048 2.383.336-.637.57-1.006.733-1.403 6.01-14.556 12.033-29.107 17.988-43.685.533-1.303 1.127-1.83 2.592-1.783 3.708.122 7.423.04 11.26.04v83.684h-13.034v-47.31l-.468-.1-19.012 47.57zm-195.966-83.87c-1.145-.013-1.83.37-2.53 1.26-7.945 10.08-15.936 20.12-23.916 30.17-.39.49-.79.968-1.187 1.45l-.424-.146V253.27H63.522v83.613h13.03v-2.044c0-5.88-.006-11.758.004-17.637.005-2.938-.674-6.132.262-8.742.96-2.674 3.503-4.786 5.37-7.13 1.017-1.274 2.072-2.518 3.204-3.892.424.764.722 1.28 1.002 1.806 6.263 11.73 12.58 23.433 18.734 35.22 1.032 1.976 2.163 2.688 4.368 2.58 4.034-.195 8.085-.055 12.388-.055-.523-1.013-.89-1.752-1.283-2.478-8.484-15.705-16.957-31.417-25.488-47.097-.65-1.192-.6-1.96.258-3.003 2.78-3.38 5.453-6.85 8.165-10.284l16.548-20.96c-5.45 0-10.477.036-15.5-.027zm64.324 70.78a50.65 50.65 0 0 0 3.468 4.588c10.745 12.634 32.338 13.624 43.85.558 10.06-11.42 9.192-28.322-2.45-37.79-4.816-3.916-10.546-5.8-16.505-7.148-3.262-.738-6.644-1.262-9.694-2.543-6.62-2.78-7.356-9.9-1.716-14.38 4.652-3.693 12.332-3.35 16.735.84 1.246 1.184 2.27 2.6 3.497 4.03l10.893-5.542c-5.51-10.166-13.78-15.322-25.17-14.71-10.5.566-17.398 6.523-20.98 16.03-3.878 10.298-1.144 19.488 8.947 24.94 3.32 1.792 7.088 2.885 10.77 3.838 4.22 1.093 8.62 1.483 12.543 3.62 6.946 3.783 8.818 11.606 4.302 18.075-5.706 8.174-17.116 8.834-23.962 1.266-1.826-2.018-3.238-4.413-4.944-6.78l-12.418 6.263c1.02 1.76 1.84 3.363 2.834 4.848zm180.658 12.938h13.14v-83.6h-13.14v83.6zm-98.454.005v-83.56h-13.196v83.56h13.196zm-100.117-83.588h-13.08v83.614h13.08v-83.615zM143.458 155.75c.19-16.137 5.474-29.2 14.567-40.78 12.273-15.63 27.99-26.043 47.524-30.245 4.762-1.025 9.69-1.48 14.567-1.74 11.458-.61 22.375 1.587 32.47 7.214 7.132 3.974 12.73 9.5 16.65 16.718 5.06 9.32 10.213 18.617 12.86 28.98 1.058 4.147 1.64 8.44 2.137 12.7.33 2.832-.238 3.107-2.995 2.674-12.58-1.975-25.163-3.91-37.74-5.88-11.1-1.742-22.196-3.518-33.294-5.273-4.723-.748-9.435-1.6-14.182-2.14-1.3-.15-2.844.402-4.045 1.056-15.047 8.195-30.05 16.467-45.065 24.72-2.137 1.176-2.644.944-2.91-1.532-.273-2.56-.436-5.13-.547-6.474zm168.03-11.418c1.004 2.41 1.474 2.677 3.963 1.848 10.943-3.643 21.914-7.21 32.78-11.067 5-1.775 10.003-3.767 14.616-6.353 7.375-4.135 10.3-11.354 8.367-19.24-1.212-4.947-3.97-9.04-7.404-12.755-6.756-7.31-14.893-9.077-23.704-4.523-10.75 5.556-19.312 13.71-26.033 23.706-3.334 4.958-4.82 10.643-4.86 17.386.032 3.325.714 7.25 2.275 10.998zm99.015-69.306c-7.523-9.643-18.752-12.27-29.106-6.854-7.02 3.672-10.18 10.36-8.488 18.024 1.495 6.775 5.51 11.878 10.86 16.02 5.927 4.59 12.972 6.9 19.914 9.327 3.538 1.237 7.23 2.095 10.908 2.846 2.41.49 3.112-.114 3.478-2.426.55-3.476.956-6.976 1.423-10.466-.266-9.814-2.934-18.71-8.99-26.472zm-132.676 90.608c.36 0 .72.007 1.08 0 2.182-.05 2.98-.73 3.344-2.93.305-1.832-.85-2.615-2.343-3.063-1.316-.394-2.64-.798-3.99-1.032-7.476-1.3-14.958-2.57-22.445-3.806-9.904-1.635-19.815-3.23-29.724-4.838-9.144-1.483-18.297-2.91-27.426-4.48-2.05-.35-3.675-.013-5.353 1.225-14.622 10.788-29.287 21.518-43.94 32.266-26.883 19.72-53.77 39.44-80.64 59.177-.963.706-2.635 1.55-1.707 2.877.993 1.42 2.36.115 3.398-.597 22.8-15.62 45.52-31.362 68.41-46.846 13.06-8.833 26.507-17.09 39.562-25.928 5.54-3.752 10.56-8.283 15.745-12.546 1.693-1.392 3.43-1.78 5.5-1.226 1.325.355 2.676.652 4.035.838 4.323.592 8.66 1.072 12.98 1.684 7.694 1.09 15.378 2.24 23.065 3.372 7.744 1.14 15.487 2.292 23.23 3.438 5.734.85 11.467 1.696 17.2 2.545l.02-.13zm177.874 61.3c-8.184-12.62-16.394-25.223-24.602-37.828-13.048-20.04-26.112-40.067-39.125-60.13-1.02-1.57-1.938-1.807-3.68-1.04-24.657 10.86-49.35 21.64-74.03 32.443-.658.287-1.445.48-1.904.967-.564.597-1.204 1.5-1.127 2.194.054.492 1.233 1.182 1.93 1.21 1.406.053 2.91-.043 4.228-.5 14.075-4.87 28.176-9.668 42.15-14.813 7.29-2.683 14.365-5.954 21.482-9.088 2.236-.986 4.25-2.462 6.436-3.574 2.187-1.112 2.913-.776 3.87 1.436 3.53 8.16 7.61 16.053 12.82 23.25 5.445 7.52 11.47 14.62 16.944 22.12 10.67 14.62 21.14 29.386 31.668 44.11 1.062 1.487 2.255 2.598 4.718 2.686-.698-1.367-1.144-2.466-1.777-3.443zm-160.506-125.73c-.653 6.723-1.486 13.43-2.27 20.138-.784 6.71-1.6 13.414-2.4 20.12-.674 5.64-1.375 11.28-2.008 16.925-.39 3.488-1.13 6.96-.25 10.507.263 1.066.097 2.275-.04 3.4-1.01 8.248-2 16.5-3.115 24.736-1.195 8.828-2.53 17.636-3.787 26.456-.573 4.024-1.16 8.05-1.586 12.09-.064.604.605 1.73 1.123 1.86 1.073.268 1.404-.652 1.568-1.67 1.498-9.325 3.073-18.638 4.567-27.964 1.39-8.677 2.684-17.37 4.07-26.05.846-5.297 1.216-10.72 4.03-15.527.466-.8.62-1.81.8-2.744.787-4.046 1.533-8.102 2.288-12.155 2.483-13.335 4.99-26.667 7.428-40.01.633-3.46 1.325-6.95 1.493-10.448.188-3.93-1.668-5.643-5.297-5.663-3.994-.022-6.24 2.172-6.612 6zm114.67-35.73c13.09-4.013 26.17-8.068 39.288-11.984 1.315-.392 3.026-.325 4.307.17 18.723 7.216 38.026 10.956 58.128 9.58 4.192-.288 8.34-1.464 12.46-2.437 2.02-.477 2.758-1.95 2.314-3.622-.433-1.632-2.125-2.588-4-2.055-5.833 1.658-11.752 2.72-17.81 3.122-6.894.458-13.768.592-20.6-.59-10.402-1.8-20.48-4.8-30.395-8.374-1.732-.624-3.343-.594-5.065.02-8.454 3.01-16.93 5.962-25.395 8.94-4.007 1.41-8.023 2.795-12.01 4.263-1.43.527-2.857 1.198-2.935 3.42.804-.21 1.263-.316 1.71-.453z"/><path fill="#FFF" d="M523.886 344.7c.032-2.376 1.936-4.24 4.26-4.173 2.272.067 4.237 2.122 4.17 4.36-.065 2.278-2.113 4.235-4.356 4.167-2.363-.07-4.106-1.935-4.074-4.354z"/></svg>