<svg xmlns="http://www.w3.org/2000/svg" viewBox="0 0 347.19 73.943"><path d="M312.57 49.76V30.27h-5.69v-5.996h18.31v5.996h-5.69v19.49h-6.93zm-17.38-25.487h7.04V49.76h-7.04V24.272zM263.54 49.76V24.274h6.67l9.65 13.096c.19.275.49.802.92 1.624.43.8.9 1.752 1.41 2.866-.15-1.05-.25-1.984-.31-2.823-.1-.817-.1-1.54-.1-2.177V24.274h6.69V49.76h-6.69l-9.64-13.18c-.19-.247-.51-.786-.93-1.605-.43-.802-.88-1.755-1.39-2.835.15 1.066.24 2.016.29 2.835.1.82.1 1.554.1 2.197V49.76h-6.67zm-21.28 0V24.274h15.64v5.553h-8.85v4.46h8.34v5.44h-8.34v4.325h8.85v5.708h-15.64zm-18.83-5.216h2.44c1.66 0 2.82-.195 3.51-.604.69-.428 1.05-1.1 1.05-2.066 0-1.08-.32-1.822-.95-2.246-.64-.427-1.81-.635-3.52-.635h-2.53v5.55zm0-10.128h1.39c1.72 0 2.89-.193 3.53-.554.64-.38.96-1.017.96-1.938 0-.966-.3-1.624-.9-2.015-.6-.378-1.76-.574-3.49-.574h-1.49v5.08zM217 49.76V24.272h6.97c2.88 0 4.89.08 6.05.278 1.13.18 2.12.49 2.95.95.93.525 1.66 1.214 2.15 2.1.5.868.74 1.883.74 3.014 0 1.458-.37 2.606-1.1 3.46-.75.85-1.91 1.49-3.52 1.932 1.81.133 3.23.788 4.26 1.92 1.02 1.13 1.53 2.636 1.53 4.537 0 1.36-.28 2.557-.86 3.59-.57 1.036-1.4 1.833-2.47 2.408-.87.463-1.95.79-3.22.985-1.29.2-3.4.314-6.31.314H217zM28.22 24.4C27.53 23.206 28.5 22 29.613 22h18.965c1.565 0 1.98 1.476 1.344 2.476l-3.41 5.916c-.553 1.108-1.918 1.076-2.524.06l-3.297-5.755c-.917-1.54-2.195-1.57-3.13 0l-3.235 5.59c-.46.853.254 2.1 1.393 2.1h18.956c1.32 0 1.96 1.458 1.43 2.393L46.7 51.054c-.615 1.21-2.353 1.15-3.04.02l-3.328-5.672c-.68-1.216.245-2.62 1.362-2.62h7.064c1.064 0 1.687-1.1 1.08-2.165l-3.105-5.457c-.815-1.378-2.115-1.46-2.975-.06l-9.244 15.922c-.597 1.213-2.04 1.223-2.737.06l-9.523-16.26c-.752-1.33.295-2.46 1.46-2.46h6.57c1.623 0 2.065 1.445 1.427 2.477l-3.392 5.9c-.5.902.297 2.048 1.395 2.048h6.86c1.038 0 1.727-.97 1.126-2.033l-9.48-16.353zm146.1-.163h6.63l12.14 15.6h.1v-15.6h6.63v25.52h-6.63l-12.15-15.637h-.1V49.76h-6.63V24.24zm-20.01-.85c-7.34 0-14.1 5.422-14.1 13.124 0 8.26 5.92 14.08 14.1 14.08 8.19 0 14.1-5.82 14.1-14.08 0-7.702-6.75-13.125-14.1-13.125m0 6.437c3.97 0 7.21 3.214 7.21 6.738 0 4.393-3.24 7.605-7.21 7.605-3.96 0-7.2-3.212-7.2-7.605 0-3.524 3.24-6.738 7.2-6.738m-24.72 14.31h7.95v5.623h-14.57V24.24h6.62v19.896zm-26.6-20.748c-7.336 0-14.106 5.422-14.106 13.124 0 8.26 5.92 14.08 14.106 14.08 8.19 0 14.1-5.82 14.1-14.08 0-7.702-6.77-13.125-14.1-13.125m0 6.437c3.96 0 7.21 3.214 7.21 6.738 0 4.393-3.25 7.605-7.21 7.605-3.956 0-7.196-3.212-7.196-7.605 0-3.524 3.24-6.738 7.196-6.738M79.704 24.24h8.22l-10.15 12.078 11.06 13.44h-8.6l-8.55-11.08h-.1v11.08h-6.63V24.24h6.63v10.523h.1l8.02-10.52z"/></svg>