<svg xmlns="http://www.w3.org/2000/svg" viewBox="-9 74 580 154"><path d="M23.95 153.17c1.05.48 1.288-.572 1.75-1.018 14.495-14.027 28.98-28.066 43.406-42.165 1.253-1.225 2.472-1.72 4.194-1.628 6.967.37 13.94.628 21.545.956-.965.87-1.56 1.39-2.136 1.928-16.972 15.844-33.923 31.708-50.947 47.495-1.307 1.21-1.188 1.74-.062 2.928 16.96 17.905 33.87 35.86 50.784 53.806.36.382.668.81 1 1.22-.535 1.21-1.64.918-2.58.92-6.17.017-12.337.033-18.505 0l-.43-.03c-11.55-11.64-23.106-23.278-34.652-34.924-4.17-4.206-8.318-8.433-12.476-12.65-.365-.372-.653-.86-1.28-.823-.683 2.05-.25 4.162-.274 6.24-.03 2.632-.24 5.275.137 7.902.082 9.646.106 19.292-.33 28.933-.623-3.066-.14-6.165-.27-9.247-.062-1.415-.02-2.834-.008-4.25-.13 6.158.197 12.32-.186 18.478-2.718.808-5.5.33-8.25.34-2.138.01-4.342.52-6.43-.41 0-44.802.01-89.604-.045-134.405-.002-1.566.3-1.924 1.874-1.877 4.567.134 9.14.048 13.712.048.13 8.037.302 16.072.377 24.108.062 6.75.01 13.502.01 20.254-.38 3.52-.062 7.052-.166 10.577 0 5.02-.01 10.042.01 15.064.003.74-.21 1.52.227 2.226zm364.358 65.438l-4.127.008c-18.114-1.987-29.934-12.543-37.912-28.122-3.63-7.09-5.52-14.73-5.9-22.715.27-3.342.273-6.683 0-10.025-.088-.972-.124-1.937.352-2.838.507-.545.265-1.14.12-1.73 2.144-14.976 8.482-27.684 20.617-37.028 16.915-13.026 38.362-10.858 52.63 5.093 6.058 6.774 9.958 14.636 12.036 23.453.327 1.39.133 2.2-1.335 2.803-3.437 1.41-6.79 3.025-10.194 4.516-.557.244-1.39 1.096-1.58-.443-.955-7.85-5.37-13.742-10.913-18.936-1.657-1.553-3.565-2.84-5.36-4.246-6.596-5.173-13.77-5.432-21.274-2.405-12.273 4.95-18.726 14.435-21 27.14-.092.514-.25 1.016-.376 1.523-.552.683-.327 1.42-.145 2.152v8.262c-.134.736-.46 1.482.122 2.178 1.064 5.515 2.33 10.97 5.045 15.958 4.886 8.982 11.51 15.997 21.643 19.012.863.257 1.734.487 2.6.73 1.326.465 2.654.42 3.983.02 12.104-4.194 20.613-12.185 25.342-24.113.704-1.776 1.14-3.66 1.702-5.492a8.744 8.744 0 0 0 3.62-.004h10.04c-4.175 11.237-7.645 22.3-15.017 31.497-5.48 6.838-12.167 11.798-21.084 13.157-1.053-.258-1.21-.243-1.673.154-.653.148-1.306.294-1.96.44zM228.284 107.982c4.372 1.954 7.368 5.42 10.004 9.237 1.84 2.664 3.472 5.46 4.534 8.55-.225.668-.127 1.36-.127 2.04-.005 29.257-.005 58.513 0 87.768 0 .68-.118 1.373.156 2.034-1.364.874-2.874.33-4.31.39-2.5.103-5.015-.068-7.514.065-1.532.082-2.12-.298-2.116-1.933.022-9.26-.052-18.52-.093-27.78.277-.577.17-1.194.17-1.795.005-17.233.005-34.464 0-51.696 0-.6.106-1.218-.17-1.795-.022-.448-.152-.92-.05-1.337.71-2.958-.795-4.65-3.246-5.833-.32-.66-.928-.382-1.406-.382-12.583-.016-25.165-.015-37.748-.004-.502 0-1.077-.2-1.473.328-.047.987-.135 1.973-.135 2.96-.007 28.418-.028 56.835.04 85.253.005 2.044-.425 2.803-2.59 2.644-2.805-.206-5.636-.026-8.454-.073-.53-.01-1.228.394-1.61-.37 3.403-.487 6.824-.165 10.235-.185 1.364-.008 1.84-.34 1.838-1.786-.04-28.467-.03-56.933-.043-85.4v73.267c0 3.96-.073 7.924.035 11.882.045 1.647-.545 2.08-2.096 2.018-2.738-.108-5.484-.068-8.225-.012-1.16.024-1.726-.344-1.592-1.56.04-.375.005-.76.005-1.14V110.966c0-3.035.005-3.05 2.987-3.05 16.757-.006 33.515 0 50.272-.014.91-.003 1.81.188 2.722.08zm235 110.643h-3.676c-1.23-.24-2.543.136-3.717-.508a.45.45 0 0 0 .23-.345c-.482.226-1.05-.086-1.516.24-8.203-1.47-14.818-8.424-16.472-17.442-1.603-8.74-1.154-17.6-1.364-26.417-.384-16.138-.664-32.278-.918-48.42-.023-1.45-.473-1.81-1.836-1.768-2.962.09-5.928.028-9.272.028 2.592-5.836 5.182-11.666 7.77-17.496.916-.435 1.95.083 2.863-.36 1.543.13 1.605-.813 1.597-2.01-.04-6.545-.03-13.09-.007-19.636.002-.737-.237-1.52.23-2.217.497 1.246.22 2.547.227 3.818.035 6.267.016 12.532.023 18.798.004-7.254.01-14.508.007-21.762 0-.314-.053-.6-.262-.842.51-.72 1.26-.347 1.885-.356 3.043-.044 6.087-.02 9.13-.02 3.765 0 3.73 0 3.78 3.668.087 6.768.264 13.536.295 20.304.007 1.43.437 1.792 1.81 1.78 6.695-.062 13.392-.05 20.088.026.4.004 1.637-.888 1.44.682-2.024-.493-4.08-.202-6.117-.22-5.37-.048-10.74-.015-16.11 0 4.802-.024 9.604.008 14.405 0 1.897-.005 3.794-.025 5.69.01.71.013 1.567-.3 1.994.642-2.19 4.893-4.15 9.892-6.745 14.598-3.645-.266-7.29-.308-10.935-.012-.15.02-.3.037-.45.062-1.676.282-3.92-.9-4.91.46-.81 1.113-.266 3.21-.322 4.87-.116 3.467.234 6.942-.187 10.403-.686-2.07-.213-4.2-.285-6.3-.09-2.62-.023-5.248-.008-7.872-.25 22.06.462 44.124-.56 66.182.186-3.34-.124-6.682.28-10.022.008-.067.257-.087.415-.102.025 3.027.33 6.082.013 9.073-.517 4.893 4.277 11.115 9.176 11.596.21.02.406.187.608.285.898.63 1.902.154 2.85.273.038.005.117-.053.122-.088.01-.067-.023-.14-.038-.21 3.404-.805 6.664-2.012 9.796-3.56 1.183-.585 1.877-.766 1.804 1.056-.214 5.32-.32 10.648-.365 15.973-.01 1.27-.766 1.453-1.645 1.747-3.51 1.178-7.162 1.266-10.807 1.415zM555.648 133.038c-3.04-12.146-9.983-20.654-22.405-24.017-5.5-1.488-11.127-1.633-16.763-1.113-8.905.823-17.272 3.34-24.842 8.224-.684.442-1.448.77-1.398 1.857.256 5.518.456 11.038.684 16.758 2.467-1.394 4.633-2.786 6.936-3.89 8.683-4.158 17.455-7.845 27.5-6.515 7.46.988 12.262 5.02 13.958 12.335.29 1.25.48 2.526.716 3.79.235.047.058-.502.274-.26l.046.046c-.02.006-.04.037-.046.143-.14 2.73.302 5.477-.238 8.195-3.262-.077-6.526-.247-9.787-.207-3.772.048-7.567-.15-11.303.616-.02.09-.04.237.11.15l-.013.21c-.597-.218-1.266.125-1.843-.24-2.593.108-5.104.71-7.6 1.336-14.22 3.57-22.99 13.295-24.357 26.958.28.63.184 1.26.153 1.838-.02-.218-.075-.412-.25-.56-.85 5.092-.997 10.183-.016 15.275.21-.16.31-.353.182-.614.144.182.11.4.102.606-.017.422.09.862-.163 1.253.148.89.226 1.798.456 2.666 2.81 10.635 8.86 18.09 20.104 20.452.458.096 1.12-.017 1.316.67h11.886c1.117-.805 2.315-.436 3.5-.242 1.37-.294 2.856.075 4.13-.74 2.603-.457 5.235-.193 7.853-.18 2.692.01 5.413-.374 8.077.338 4.01.292 8.026.075 12.04.115.703.006 1.348-.185 1.886-.664v-81.374c-.685-.96-.615-2.138-.885-3.214zM541.07 194.3c-.034 2.358-.08 4.715-.1 7.072-.018 2-1.08 2.57-2.975 2.63-3.326.104-6.643.482-9.963.745-4.457.493-8.914.51-13.37-.013-7.908-1.522-12.207-6.556-13.826-14.2-.513-.53-.31-1.113-.134-1.695l-.01-4.6c-.166-.736-.376-1.475.128-2.17.555-.712.377-1.602.575-2.4 2.047-8.273 7.892-12.112 15.77-13.69 5.774-1.157 11.616-.844 17.44-.993 1.933-.102 3.878-.516 5.782.18l-.01-.052.117.09c-.036-.015-.07-.025-.107-.038.766 3.614.525 7.28.288 10.9-.205 3.12.006 6.186.285 9.27.108 1.224-.126 2.473.235 3.683-.187 1.756.456 3.533-.124 5.28z"/><path d="M518.945 149.004l.038-.007c.014-.068.026-.107-.038.007zM337.685 169.417c-.11-3.268-.017-6.543-.16-9.81-.104-2.336-.154-4.7-.844-6.974-.195.114-.21.35-.342.507.11-.156.055-.334.07-.503.033-.43-.09-.877.165-1.278-1.56-10.513-5.06-20.265-11.613-28.733-5.885-7.603-13.5-12.52-23.077-14.174-.524.217-1.074.22-1.604.09-.282-.07.074-.325.176-.038s.3-.432.144-.17c-4.636-.965-9.275-.924-13.916-.033.122.187.287.28.515.23-.156.12-.34.072-.507.066-.417-.015-.855.097-1.237-.175-1.187.21-2.39.356-3.56.644-20.106 4.953-31.976 22.26-34.326 40.918.22.77.216 1.53.153 2.175a.96.96 0 0 0-.28-.473c-.493.91-.42 1.89-.34 2.868.286 3.19.286 6.38 0 9.57-.014 2.216.218 4.404.782 6.552a.74.74 0 0 0 .27-.368c.066.623.12 1.33-.116 2.038a68.502 68.502 0 0 0 4.263 16.23c7.568 18.958 22.93 33.312 49.972 28.598 11.57-2.017 18.866-9.43 24.824-18.76.532-.836.197-1.17-.384-1.646-1.882-1.545-3.732-3.128-5.602-4.688-4.747-3.96-4.837-4.054-9.527.21-4.34 3.944-8.948 7.266-14.863 8.333-1.138.66-2.32.32-3.495.156h-.49c-1.347.198-2.696.393-4.027-.1-.584-.14-1.162-.327-1.754-.416-8.052-1.213-14.34-5.13-18.617-12.126-2.605-4.263-4.004-8.95-5.034-13.807-.402-1.89-.182-2.463 1.89-2.447 10.802.08 21.604.035 32.406 0 12.625-.038 25.25-.16 37.875-.115 1.943.006 2.26-.722 2.205-2.35zm-16.16-15.46c-.47.59-1.13.337-1.703.337-18.105.014-36.21.013-54.316.007-.523 0-1.072.114-1.55-.223-.073-5.488 1.705-10.508 4.05-15.34 3.683-7.587 9.548-12.52 17.918-14.265.706-.606 1.482-.31 2.245-.174 1.228 0 2.456 0 3.685.002.87-.155 1.743-.398 2.57.15 3.46.795 6.97 1.372 10.238 2.88 8.556 3.95 12.923 11.17 15.458 19.784.657 2.227 1.643 4.42 1.406 6.844zM166.633 153.978c-.15.1-.257.195-.24.26.083.294-.1.117-.063-.178.077-.593-.132-1.214.17-1.783-1.69-11.48-6.11-21.746-13.798-30.486-14.88-16.917-38.07-18.898-54.578-4.63-10.324 8.92-16.027 20.424-18.33 33.74.227.545.208 1.097.12 1.712a.556.556 0 0 0-.238-.45c-.618 2.127-.8 4.307-.798 6.51a41.404 41.404 0 0 1-.002 8.195c-.028 2.214.2 4.396.787 6.536.186-.128.274-.297.225-.525.113.16.07.344.064.516-.015.42.092.86-.166 1.247 2.09 12.506 7.26 23.506 16.56 32.23 15.82 14.835 37.783 14.834 53.222.153 9.678-9.204 14.96-20.66 16.937-33.752-.31-.632-.093-1.31-.164-1.963-.008-.08-.055-.153-.042-.237.106.177.146.4.345.513a49.107 49.107 0 0 0-.01-17.605zm-86.784-.95c.008.187-.22-.345.05-.316a9.84 9.84 0 0 1-.05.316zm72.49 13.718c-.424.77-.38 1.604-.32 2.438.18.448.283.89-.096 1.297-1.04 4.326-2.04 8.665-4.102 12.66-4.15 8.043-9.945 14.23-18.943 16.808-.866.248-1.732.49-2.597.736-.558.424-1.152.275-1.746.107l-3.69.002c-.72.14-1.45.415-2.11-.175-14.67-3.71-21.52-14.328-24.795-28.094-.227-.956-.38-1.93-.566-2.896a2.29 2.29 0 0 1-.33-.654c-.07-.868-.092-1.74-.29-2.595.16-2.22-.33-4.467.288-6.666.375-.778.403-1.603.324-2.44-.183-.45-.286-.89.095-1.296 1.01-3.96 1.88-7.966 3.69-11.676 4.06-8.327 9.857-14.92 19.046-17.493 9.893-2.77 18.325.422 25.272 7.616 6.295 6.52 9.46 14.557 10.49 23.492.086.75.257 1.488.39 2.232.443 2.2.457 4.4-.01 6.6z"/></svg>