<svg xmlns="http://www.w3.org/2000/svg" viewBox="0 0 617.7 243.7"><path d="M584.7 75.89c-28.6-59.33-82.2-53.61-82.2-53.61-35.9-2.86-49.2 17.15-49.2 17.15-39 10-50 45.06-50 45.06-20.1 49.21 10.4 92.11 10.4 92.11 26.1 43.6 76.7 45.1 76.7 45.1 37.1.7 48.1-17.2 48.1-17.2 31.2-7.9 46.9-37.9 46.9-37.9 23.6-46.4-.7-90.71-.7-90.71zM451.4 44.43c85.9-30.01 123.3 20.73 123.3 20.73l-2.9-.72c-54.1-46.45-121.6-15.01-121.6-15.01-3.6-2.14 1.2-5 1.2-5zm-3.1 17.15c98.1-39.3 137.8 23.61 137.8 23.61C522.6 25.14 449 68.02 449 68.02c-4.9 0-.7-6.44-.7-6.44zm142.1 45.02C542.1 43 450.2 81.59 450.2 81.59c-3-.7 0-6.4 0-6.4 115.9-39.34 140.2 31.41 140.2 31.41zm-48.3 92.9c-85.8 30.2-123.6-20.7-123.6-20.7l3.1.7c54.2 46.5 121.7 15 121.7 15 3.7 2.1-1.2 5-1.2 5zm3.1-17.2c-98 39.4-137.6-23.5-137.6-23.5 63.3 60 136.9 17.1 136.9 17.1 4.9 0 .8 6.4.8 6.4zm-141.9-45c48.1 63.6 140 25 140 25 3.1.8 0 6.5 0 6.5-116.3 39.3-140-31.5-140-31.5zm187.1 12.2s-13.6-69.31-108-46.4c0 0 9.2 2.1 12.8 1.4 0 0 61.5-13.61 83.1 27.8 0 0-10.7 19.3-34.4 27.9l-5.4-4.3s-116.3 42.2-137.6-42.1c0 0 26.1 72.1 131.5 36.4 0 0-1.2-5.7-8.6-4.3 0 0-110.6 36.4-119.8-53.61 0 2.9 9.9 71.51 108.3 47.91 0 0 0-2.9-12.8-2.2 0 0-63.9 16.5-84.6-28.5 0 0 15.2-19.31 33.4-27.21l6.8 5.7s110.3-41.42 137.5 38.61c0 0-29.8-65.73-131.5-32.11l7.3 5s89.5-31.47 119.2 32.81c0 0 4.3 8.6 2.8 17.2M363.7 64.44l-70.7-.71s-33.7 2.14-33.3 35.06c0 32.81 37.4 32.11 38.8 32.81l22.6-.7s18.3 0 21.6 13.6c3.3 13.5-9.7 20.7-9.7 20.7l-5.8 1.4-62.1-.7v19.3h72.2s30.8-.7 35.3-31.4c4.4-30.8-26.8-40.7-26.8-40.7l-13.9-.8-30.8-.7s-13-2.1-12.5-14.31c.8-12.8 15-14.3 15-14.3h60.1V64.44M234 120.2s12.1-7.9 12.2-23.61v-2.8c-2.2-27.92-30.7-30.06-30.7-30.06l-72.7-.72-.7 122.19 76.9.7s29.4-1.4 32.9-35V148c0-15.7-18.1-27.8-18.1-27.8zm-66.6-37.21s25-1.4 38.4 0c13.5 1.5 13.4 14.3 13.4 14.3-2.9 15.01-13.5 13.61-13.5 13.61h-38.5V82.99zm40 82.91h-40.5v-35h40s17.8.7 16.7 17.9c-.9 15.7-16.4 17.1-16.4 17.1M47.8 122.3l46.83 62.9h34.17L78.63 123l48.87-59.27-32.77-.72L47.8 122.3M23 63.73L22 184.5h26V63.73H22.9"/></svg>