<?xml version="1.0"?>

<svg xmlns:dc="http://purl.org/dc/elements/1.1/" xmlns:cc="http://creativecommons.org/ns#" xmlns:rdf="http://www.w3.org/1999/02/22-rdf-syntax-ns#" xmlns:svg="http://www.w3.org/2000/svg" xmlns="http://www.w3.org/2000/svg" height="266.2" width="315.6" xml:space="preserve" enable-background="new 0 0 568 232" viewBox="0 0 315.6 266.2" y="0" x="0" id="Layer_1" version="1.1"><defs id="defs15"></defs><path class="only-light-background" id="path4180" d="m 153.1,22 c -1.8,0 -3.6,0.4 -5.2,1.2 L 97.3,47.4 C 94,49 91.6,51.9 90.8,55.5 l -12.5,54.3 c -0.9,3.6 0,7.3 2.3,10.2 l 35,43.5 c 2.3,2.9 5.7,4.5 9.3,4.5 l 56.4,-0.1 c 3.6,0 7,-1.7 9.3,-4.5 l 35,-43.5 c 2.3,-2.9 3.1,-6.6 2.3,-10.2 L 215.4,55.4 c -0.8,-3.6 -3.2,-6.5 -6.5,-8.1 L 158.3,23.2 C 156.7,22.4 154.9,22 153.1,22 Z m 0,20.9 c 1.7,0 3.1,1.5 3.1,3.3 v 0.3 0.6 c -0.1,0.7 -0.2,1.3 -0.3,1.9 -0.1,0.3 -0.2,0.7 -0.2,1 v 0.1 c -0.2,2 -0.4,3.8 -0.3,5.4 0.1,0.7 0.5,1 0.8,1.3 l 0.2,0.2 0.1,1.3 c 7.6,0.7 14.9,3.6 20.9,8.3 1.4,1.2 2.8,2.4 4.1,3.8 l 1.2,-0.8 h 0.2 c 0.2,0.1 0.4,0.1 0.6,0.1 0.3,0 0.6,-0.1 0.9,-0.3 1.3,-0.9 2.6,-2.1 4,-3.6 0.3,-0.2 0.5,-0.5 0.7,-0.7 0.4,-0.5 0.8,-0.9 1.3,-1.4 0.2,-0.1 0.3,-0.3 0.5,-0.4 l 0.2,-0.2 c 0.7,-0.5 1.4,-0.8 2.2,-0.8 0.9,0 1.8,0.4 2.3,1.1 1,1.3 0.7,3.3 -0.7,4.5 0,0.1 -0.1,0.1 -0.2,0.2 -0.2,0.2 -0.4,0.3 -0.5,0.4 -0.6,0.4 -1.1,0.7 -1.7,1 -0.3,0.2 -0.6,0.3 -0.9,0.5 -1.8,1.1 -3.3,2 -4.5,3.1 -0.4,0.5 -0.5,1 -0.5,1.5 v 0.2 l -1,0.9 c 2.6,4 4.5,8.4 5.6,13.1 1.1,4.7 1.3,9.5 0.7,14.1 l 1.3,0.4 c 0,0.1 0.1,0.1 0.1,0.2 0.2,0.4 0.4,0.8 1.1,1.1 1.6,0.5 3.3,0.7 5.4,0.9 h 0.1 c 0.4,0.1 0.7,0.1 1,0.1 0.6,0 1.2,0.1 1.9,0.2 0.2,0 0.4,0.1 0.6,0.1 0,0.1 0.1,0.1 0.2,0.1 h 0.1 c 1.8,0.5 2.9,2.1 2.9,3.3 -0.4,1.3 -1.7,2.3 -3.2,2.3 -0.3,0 -0.5,0 -0.8,-0.1 -0.1,-0.1 -0.2,-0.1 -0.3,-0.1 -0.2,0 -0.4,-0.1 -0.6,-0.1 -0.7,-0.2 -1.2,-0.4 -1.8,-0.7 -0.3,-0.1 -0.6,-0.3 -0.9,-0.4 h -0.1 c -1.9,-0.7 -3.6,-1.3 -5.2,-1.5 h -0.2 c -0.6,0 -0.9,0.3 -1.3,0.5 -0.1,0 -0.1,0.1 -0.2,0.1 l -1.2,-0.2 c -1,3.1 -2.4,6.2 -4.2,9 -3.4,5.4 -7.9,9.8 -13.2,12.9 l 0.5,1.2 c 0,0.1 -0.1,0.1 -0.1,0.2 -0.1,0.5 -0.3,0.9 -0.1,1.6 0.5,1.5 1.5,3 2.6,4.7 v 0.1 c 0.2,0.3 0.4,0.5 0.6,0.8 0.4,0.5 0.8,1 1.1,1.6 0.1,0.1 0.2,0.3 0.3,0.5 0,0.1 0.1,0.1 0.1,0.2 0.4,0.8 0.4,1.7 0.2,2.5 -0.2,0.8 -0.8,1.4 -1.5,1.8 -0.4,0.2 -0.8,0.3 -1.2,0.3 -1.2,0 -2.4,-0.7 -3,-1.9 0,0 -0.1,-0.1 -0.1,-0.2 -0.1,-0.2 -0.2,-0.3 -0.3,-0.5 -0.3,-0.6 -0.4,-1.2 -0.6,-1.8 l -0.3,-0.9 v -0.1 c -0.7,-1.9 -1.3,-3.6 -2.1,-5 -0.4,-0.6 -0.8,-0.8 -1.3,-0.9 -0.1,-0.1 -0.1,-0.1 -0.2,-0.1 l -0.6,-1.1 c -1.7,0.6 -3.4,1.1 -5.2,1.5 -2.8,0.7 -5.8,1 -8.7,1 -4.8,0 -9.6,-0.9 -14,-2.6 l -0.7,1.3 c -0.1,0.1 -0.1,0.1 -0.2,0.1 -0.4,0.2 -0.9,0.3 -1.3,0.9 -0.9,1.4 -1.4,3 -2.1,5 l -0.3,0.9 c -0.2,0.6 -0.3,1.1 -0.6,1.8 -0.1,0.1 -0.2,0.3 -0.3,0.5 0,0 -0.1,0.1 -0.1,0.2 -0.6,1.1 -1.8,1.9 -3,1.9 -0.4,0 -0.8,-0.1 -1.2,-0.3 -1.5,-0.7 -2.1,-2.6 -1.3,-4.3 0,0 0.1,-0.1 0.1,-0.2 0.1,-0.2 0.2,-0.4 0.3,-0.5 0.4,-0.6 0.7,-1.1 1.1,-1.6 0.2,-0.3 0.4,-0.5 0.6,-0.8 v -0.1 c 1.1,-1.7 2,-3.2 2.6,-4.7 0.2,-0.7 0,-1.2 -0.2,-1.6 0,-0.1 -0.1,-0.1 -0.1,-0.2 l 0.6,-1.3 c -1.5,-0.9 -2.9,-1.8 -4.3,-2.9 -6.1,-4.8 -10.7,-11.4 -13.1,-18.8 l -1.4,0.2 c -0.1,0 -0.1,-0.1 -0.2,-0.1 -0.3,-0.2 -0.7,-0.5 -1.3,-0.5 h -0.2 c -1.6,0.2 -3.3,0.8 -5.2,1.5 h -0.1 c -0.3,0.1 -0.6,0.3 -0.9,0.4 -0.6,0.3 -1.1,0.5 -1.8,0.7 -0.2,0 -0.4,0.1 -0.6,0.1 0,0.1 -0.1,0.1 -0.2,0.1 -0.3,0.1 -0.5,0.1 -0.8,0.1 -1.6,0 -2.9,-0.9 -3.2,-2.3 -0.3,-1.6 0.8,-3.3 2.6,-3.7 0.1,-0.1 0.2,-0.1 0.3,-0.1 0.2,0 0.4,-0.1 0.6,-0.1 0.7,-0.1 1.3,-0.2 1.9,-0.2 0.3,-0.1 0.7,-0.1 1,-0.1 h 0.1 c 2.1,-0.2 3.9,-0.4 5.4,-0.9 0.6,-0.3 0.9,-0.7 1.1,-1.1 0,-0.1 0.1,-0.1 0.1,-0.2 l 1.3,-0.4 c -1.3,-9.2 0.6,-18.5 5.6,-26.4 0.1,-0.3 0.3,-0.5 0.5,-0.8 l -1,-0.9 v -0.2 c 0,-0.5 0,-1 -0.5,-1.5 -1.2,-1.1 -2.7,-2 -4.5,-3.1 -0.3,-0.2 -0.6,-0.4 -0.9,-0.5 -0.6,-0.3 -1.1,-0.6 -1.7,-1 -0.2,-0.1 -0.3,-0.3 -0.5,-0.4 -0.1,0 -0.1,-0.1 -0.2,-0.1 -1.4,-1.2 -1.7,-3.2 -0.7,-4.5 0.5,-0.7 1.4,-1.1 2.3,-1.1 0.8,0 1.6,0.3 2.2,0.8 0,0.1 0.1,0.1 0.2,0.2 0.2,0.2 0.4,0.3 0.5,0.4 0.5,0.5 0.9,0.9 1.3,1.4 0.3,0.2 0.5,0.5 0.7,0.7 1.4,1.5 2.7,2.8 4,3.7 0.3,0.2 0.6,0.3 0.9,0.3 0.2,0 0.4,-0.1 0.6,-0.1 h 0.2 l 1,0.7 c 5.3,-5.6 12.1,-9.5 19.8,-11.2 1.8,-0.4 3.6,-0.6 5.4,-0.8 l 0.1,-1.3 0.2,-0.2 c 0.3,-0.3 0.7,-0.6 0.8,-1.3 0.2,-1.6 -0.1,-3.4 -0.3,-5.4 v -0.1 c -0.1,-0.4 -0.1,-0.7 -0.2,-1 C 150.1,48.3 150,47.7 150,47 v -0.6 -0.2 c 0,-0.9 0.3,-1.7 0.9,-2.3 0.6,-0.6 1.4,-1 2.2,-1 z m -4,23.5 c -1.1,0.2 -2.1,0.4 -3.2,0.6 -5.7,1.3 -10.8,4.1 -14.9,8.2 l 13.3,9.5 c 0.3,0.2 0.8,0.3 1.2,0.3 1.5,0 2.6,-1.2 2.7,-2.6 z m 7.8,0.1 0.9,16.3 c 0.1,0.4 0.2,0.8 0.5,1.1 0.9,1.1 2.4,1.3 3.5,0.6 l 13.1,-9.3 c -4.8,-4.8 -11.1,-7.9 -18,-8.7 z m -30.7,14.7 c -3.6,5.9 -5.1,12.8 -4.5,19.6 l 15.5,-4.5 c 0.5,-0.1 0.9,-0.4 1.2,-0.8 0.9,-1.1 0.8,-2.8 -0.3,-3.7 z m 53.5,0 -12.1,10.9 c -0.3,0.3 -0.5,0.7 -0.6,1.1 -0.3,1.4 0.5,2.8 1.9,3.2 l 15.3,4.4 c 0.3,-3.3 0.1,-6.7 -0.7,-10.1 -0.8,-3.5 -2.1,-6.7 -3.8,-9.5 z m -29.2,11.4 -3,3.8 1.1,4.7 4.4,2.1 4.4,-2.1 1,-4.7 -3,-3.8 z m 15.9,12.9 c -0.5,0 -1,0.1 -1.4,0.3 -1.2,0.6 -1.7,1.9 -1.4,3.1 l 6.3,15.1 c 3.8,-2.5 7.1,-5.7 9.6,-9.7 1.3,-1.9 2.3,-3.9 2.9,-6.1 z m -27,0.1 -15.9,2.7 c 2.4,6.6 6.9,12.1 12.5,15.7 l 6.1,-14.7 c 0.2,-0.5 0.2,-1 0.1,-1.6 -0.3,-1.3 -1.5,-2.2 -2.8,-2.1 z m 13.3,6.5 c -0.7,0 -1.4,0.4 -1.9,1 l -7.9,14.3 c 3.2,1 6.6,1.6 10.1,1.6 2.4,0 4.7,-0.3 7,-0.8 1,-0.3 2,-0.5 2.9,-0.8 l -7.7,-13.9 c -0.3,-0.4 -0.7,-0.8 -1.2,-1.1 -0.4,-0.2 -0.9,-0.3 -1.3,-0.3 z"></path><path class="only-dark-background" style="display:none" id="path2" d="m 153.1,22 c -1.8,0 -3.6,0.4 -5.2,1.2 L 97.3,47.4 C 94,49 91.6,51.9 90.8,55.5 l -12.5,54.3 c -0.9,3.6 0,7.3 2.3,10.2 l 35,43.5 c 2.3,2.9 5.7,4.5 9.3,4.5 l 56.4,-0.1 c 3.6,0 7,-1.7 9.3,-4.5 l 35,-43.5 c 2.3,-2.9 3.1,-6.6 2.3,-10.2 L 215.4,55.4 c -0.8,-3.6 -3.2,-6.5 -6.5,-8.1 L 158.3,23.2 C 156.7,22.4 154.9,22 153.1,22 Z m 0,3.79 c 1.7,0 3.4,0.38 4.9,1.14 l 48,22.85 c 3.1,1.51 5.4,4.26 6.2,7.68 L 224,108.9 c 0.8,3.4 0,7 -2.2,9.7 l -33.1,41.3 c -2.2,2.6 -5.4,4.2 -8.9,4.2 l -53.4,0.1 c -3.4,0 -6.7,-1.5 -8.8,-4.3 L 84.4,118.7 C 82.2,116 81.3,112.4 82.2,109 L 94,57.55 c 0.8,-3.41 3.1,-6.16 6.2,-7.68 l 48,-22.94 c 1.5,-0.76 3.2,-1.14 4.9,-1.14 z m 0,17.11 c -0.8,0 -1.6,0.4 -2.2,1 -0.6,0.6 -0.9,1.4 -0.9,2.3 v 0.2 0.6 c 0,0.7 0.1,1.3 0.3,1.9 0.1,0.3 0.1,0.6 0.2,1 V 50 c 0.2,2 0.5,3.8 0.3,5.4 -0.1,0.7 -0.5,1 -0.8,1.3 l -0.2,0.2 -0.1,1.3 c -1.8,0.2 -3.6,0.4 -5.4,0.8 -7.7,1.7 -14.5,5.6 -19.8,11.2 l -1,-0.7 h -0.2 c -0.2,0 -0.4,0.1 -0.6,0.1 -0.3,0 -0.6,-0.1 -0.9,-0.3 -1.3,-0.9 -2.6,-2.2 -4,-3.7 -0.2,-0.2 -0.4,-0.5 -0.7,-0.7 -0.4,-0.5 -0.8,-0.9 -1.3,-1.4 -0.1,-0.1 -0.3,-0.2 -0.5,-0.4 -0.1,-0.1 -0.2,-0.1 -0.2,-0.2 -0.6,-0.5 -1.4,-0.8 -2.2,-0.8 -0.9,0 -1.8,0.4 -2.3,1.1 -1,1.3 -0.7,3.3 0.7,4.5 0.1,0 0.1,0.1 0.2,0.1 0.2,0.1 0.3,0.3 0.5,0.4 0.6,0.4 1.1,0.7 1.7,1 0.3,0.1 0.6,0.3 0.9,0.5 1.8,1.1 3.3,2 4.5,3.1 0.5,0.5 0.5,1 0.5,1.5 v 0.2 l 1,0.9 c -0.2,0.3 -0.4,0.5 -0.5,0.8 -5,7.9 -6.9,17.2 -5.6,26.4 l -1.3,0.4 c 0,0.1 -0.1,0.1 -0.1,0.2 -0.2,0.4 -0.5,0.8 -1.1,1.1 -1.5,0.5 -3.3,0.7 -5.4,0.9 h -0.1 c -0.3,0 -0.7,0 -1,0.1 -0.6,0 -1.2,0.1 -1.9,0.2 -0.2,0 -0.4,0.1 -0.6,0.1 -0.1,0 -0.2,0 -0.3,0.1 -1.8,0.4 -2.9,2.1 -2.6,3.7 0.3,1.4 1.6,2.3 3.2,2.3 0.3,0 0.5,0 0.8,-0.1 0.1,0 0.2,0 0.2,-0.1 0.2,0 0.4,-0.1 0.6,-0.1 0.7,-0.2 1.2,-0.4 1.8,-0.7 0.3,-0.1 0.6,-0.3 0.9,-0.4 h 0.1 c 1.9,-0.7 3.6,-1.3 5.2,-1.5 h 0.2 c 0.6,0 1,0.3 1.3,0.5 0.1,0 0.1,0.1 0.2,0.1 l 1.4,-0.2 c 2.4,7.4 7,14 13.1,18.8 1.4,1.1 2.8,2 4.3,2.9 l -0.6,1.3 c 0,0.1 0.1,0.1 0.1,0.2 0.2,0.4 0.4,0.9 0.2,1.6 -0.6,1.5 -1.5,3 -2.6,4.7 v 0.1 c -0.2,0.3 -0.4,0.5 -0.6,0.8 -0.4,0.5 -0.7,1 -1.1,1.6 -0.1,0.1 -0.2,0.3 -0.3,0.5 0,0.1 -0.1,0.2 -0.1,0.2 -0.8,1.7 -0.2,3.6 1.3,4.3 0.4,0.2 0.8,0.3 1.2,0.3 1.2,0 2.4,-0.8 3,-1.9 0,-0.1 0.1,-0.2 0.1,-0.2 0.1,-0.2 0.2,-0.4 0.3,-0.5 0.3,-0.7 0.4,-1.2 0.6,-1.8 l 0.3,-0.9 c 0.7,-2 1.2,-3.6 2.1,-5 0.4,-0.6 0.9,-0.7 1.3,-0.9 0.1,0 0.1,0 0.2,-0.1 l 0.7,-1.3 c 4.4,1.7 9.2,2.6 14,2.6 2.9,0 5.9,-0.3 8.7,-1 1.8,-0.4 3.5,-0.9 5.2,-1.5 l 0.6,1.1 c 0.1,0 0.1,0 0.2,0.1 0.5,0.1 0.9,0.3 1.3,0.9 0.8,1.4 1.4,3.1 2.1,5 v 0.1 l 0.3,0.9 c 0.2,0.6 0.3,1.2 0.6,1.8 0.1,0.2 0.2,0.3 0.3,0.5 0,0.1 0.1,0.2 0.1,0.2 0.6,1.2 1.8,1.9 3,1.9 0.4,0 0.8,-0.1 1.2,-0.3 0.7,-0.4 1.3,-1 1.5,-1.8 0.2,-0.8 0.2,-1.7 -0.2,-2.5 0,-0.1 -0.1,-0.1 -0.1,-0.2 -0.1,-0.2 -0.2,-0.4 -0.3,-0.5 -0.3,-0.6 -0.7,-1.1 -1.1,-1.6 -0.2,-0.3 -0.4,-0.5 -0.6,-0.8 v -0.1 c -1.1,-1.7 -2.1,-3.2 -2.6,-4.7 -0.2,-0.7 0,-1.1 0.1,-1.6 0,-0.1 0.1,-0.1 0.1,-0.2 l -0.5,-1.2 c 5.3,-3.1 9.8,-7.5 13.2,-12.9 1.8,-2.8 3.2,-5.9 4.2,-9 l 1.2,0.2 c 0.1,0 0.1,-0.1 0.2,-0.1 0.4,-0.2 0.7,-0.5 1.3,-0.5 h 0.2 c 1.6,0.2 3.3,0.8 5.2,1.5 h 0.1 c 0.3,0.1 0.6,0.3 0.9,0.4 0.6,0.3 1.1,0.5 1.8,0.7 0.2,0 0.4,0.1 0.6,0.1 0.1,0 0.2,0 0.3,0.1 0.3,0.1 0.5,0.1 0.8,0.1 1.5,0 2.8,-1 3.2,-2.3 0,-1.2 -1.1,-2.8 -2.9,-3.3 h -0.1 c -0.1,0 -0.2,0 -0.2,-0.1 -0.2,0 -0.4,-0.1 -0.6,-0.1 -0.7,-0.1 -1.3,-0.2 -1.9,-0.2 -0.3,0 -0.6,0 -1,-0.1 h -0.1 c -2.1,-0.2 -3.8,-0.4 -5.4,-0.9 -0.7,-0.3 -0.9,-0.7 -1.1,-1.1 0,-0.1 -0.1,-0.1 -0.1,-0.2 l -1.3,-0.4 c 0.6,-4.6 0.4,-9.4 -0.7,-14.1 -1.1,-4.7 -3,-9.1 -5.6,-13.1 l 1,-0.9 v -0.2 c 0,-0.5 0.1,-1 0.5,-1.5 1.2,-1.1 2.7,-2 4.5,-3.1 0.3,-0.2 0.6,-0.3 0.9,-0.5 0.6,-0.3 1.1,-0.6 1.7,-1 0.1,-0.1 0.3,-0.2 0.5,-0.4 0.1,-0.1 0.2,-0.1 0.2,-0.2 1.4,-1.2 1.7,-3.2 0.7,-4.5 -0.5,-0.7 -1.4,-1.1 -2.3,-1.1 -0.8,0 -1.5,0.3 -2.2,0.8 l -0.2,0.2 c -0.2,0.1 -0.3,0.3 -0.5,0.4 -0.5,0.5 -0.9,0.9 -1.3,1.4 -0.2,0.2 -0.4,0.5 -0.7,0.7 -1.4,1.5 -2.7,2.7 -4,3.6 -0.3,0.2 -0.6,0.3 -0.9,0.3 -0.2,0 -0.4,0 -0.6,-0.1 h -0.2 l -1.2,0.8 c -1.3,-1.4 -2.7,-2.6 -4.1,-3.8 -6,-4.7 -13.3,-7.6 -20.9,-8.3 l -0.1,-1.3 -0.2,-0.2 c -0.3,-0.3 -0.7,-0.6 -0.8,-1.3 -0.1,-1.6 0.1,-3.4 0.3,-5.4 V 50 c 0,-0.3 0.1,-0.7 0.2,-1 0.1,-0.6 0.2,-1.2 0.3,-1.9 v -0.6 -0.3 c 0,-1.8 -1.4,-3.3 -3.1,-3.3 z m -4,23.5 -0.9,16 c -0.1,1.4 -1.2,2.6 -2.7,2.6 -0.4,0 -0.9,-0.1 -1.2,-0.3 L 131,75.2 c 4.1,-4.1 9.2,-6.9 14.9,-8.2 1.1,-0.2 2.1,-0.4 3.2,-0.6 z m 7.8,0.1 c 6.9,0.8 13.2,3.9 18,8.7 l -13.1,9.3 c -1.1,0.7 -2.6,0.5 -3.5,-0.6 -0.3,-0.3 -0.4,-0.7 -0.5,-1.1 z m -30.7,14.7 11.9,10.6 c 1.1,0.9 1.2,2.6 0.3,3.7 -0.3,0.4 -0.7,0.7 -1.2,0.8 l -15.5,4.5 c -0.6,-6.8 0.9,-13.7 4.5,-19.6 z m 53.5,0 c 1.7,2.8 3,6 3.8,9.5 0.8,3.4 1,6.8 0.7,10.1 l -15.3,-4.4 c -1.4,-0.4 -2.2,-1.8 -1.9,-3.2 0.1,-0.4 0.3,-0.8 0.6,-1.1 z m -29.2,11.4 h 4.9 l 3,3.8 -1,4.7 -4.4,2.1 -4.4,-2.1 -1.1,-4.7 z m 15.9,12.9 16,2.7 c -0.6,2.2 -1.6,4.2 -2.9,6.1 -2.5,4 -5.8,7.2 -9.6,9.7 l -6.3,-15.1 c -0.3,-1.2 0.2,-2.5 1.4,-3.1 0.4,-0.2 0.9,-0.3 1.4,-0.3 z m -27,0.1 c 1.3,-0.1 2.5,0.8 2.8,2.1 0.1,0.6 0.1,1.1 -0.1,1.6 L 136,124 c -5.6,-3.6 -10.1,-9.1 -12.5,-15.7 z m 13.3,6.5 c 0.4,0 0.9,0 1.3,0.3 0.5,0.3 0.9,0.7 1.2,1.1 l 7.7,13.9 c -0.9,0.3 -1.9,0.5 -2.9,0.8 -2.3,0.5 -4.6,0.8 -7,0.8 -3.5,0 -6.9,-0.6 -10.1,-1.6 l 7.9,-14.3 c 0.5,-0.6 1.2,-0.9 1.9,-1 z"></path><path id="path8" d="m 28.9,227.8 c 0.7,-0.8 1.3,-1.6 2,-2.5 0.7,-0.9 1.4,-1.8 2,-2.7 0.6,-0.9 1.3,-1.8 1.9,-2.7 0.6,-0.9 1.1,-1.7 1.6,-2.5 h 8.2 c -0.7,0.9 -1.4,1.8 -2.3,2.8 -0.9,1 -1.7,2 -2.6,3.1 -0.9,1 -1.8,2 -2.7,3 -0.9,1 -1.7,1.9 -2.5,2.7 0.9,0.9 1.9,2 3,3.2 1.1,1.2 2.1,2.5 3.2,3.9 1,1.3 2,2.7 2.9,4 0.9,1.3 1.6,2.5 2.1,3.6 h -7.9 c -0.4,-0.9 -1,-2 -1.8,-3.1 -0.7,-1.2 -1.5,-2.3 -2.3,-3.5 -0.8,-1.1 -1.6,-2.2 -2.5,-3.2 -0.8,-1 -1.6,-1.9 -2.3,-2.5 v 12.4 H 22 v -37.5 l 6.9,-1.2 z m 41.8,14.9 V 217.4 H 63.8 V 238 c -1,0.2 -2.1,0.3 -3.1,0.3 -1.7,0 -2.8,-0.6 -3.4,-1.8 -0.6,-1.2 -0.9,-3 -0.9,-5.4 V 217.4 H 49.5 V 232 c 0,1.8 0.1,3.4 0.4,4.9 0.3,1.5 0.8,2.8 1.6,3.9 0.8,1.1 1.9,1.9 3.3,2.5 1.4,0.6 3.1,0.9 5.3,0.9 2.1,0 4.1,-0.2 5.9,-0.5 1.9,-0.3 3.5,-0.7 4.7,-1 z m 22.7,-12.4 c 0,2.9 -0.5,4.9 -1.6,6.2 -1.1,1.3 -2.5,1.8 -4.2,1.8 -0.4,0 -0.9,0 -1.5,-0.1 -0.6,0 -1.1,-0.1 -1.6,-0.2 v -14.2 c 0.5,-0.3 1.1,-0.5 1.9,-0.8 0.7,-0.2 1.5,-0.3 2.2,-0.3 1.6,0 2.9,0.7 3.6,2 0.8,1.3 1.2,3.2 1.2,5.6 z m 7,0.2 c 0,-2 -0.2,-3.9 -0.7,-5.6 -0.4,-1.7 -1.1,-3.1 -2,-4.3 -0.9,-1.2 -2,-2.1 -3.3,-2.8 -1.3,-0.6 -2.8,-1 -4.5,-1 -0.9,0 -1.8,0.1 -2.7,0.3 -0.9,0.2 -1.8,0.5 -2.8,0.9 v -13.1 l -6.9,1.2 v 36.7 c 1.3,0.4 2.8,0.7 4.7,1 1.9,0.3 3.7,0.4 5.5,0.4 2,0 3.8,-0.3 5.3,-1 1.6,-0.6 2.9,-1.6 4,-2.8 1.1,-1.2 1.9,-2.6 2.5,-4.3 0.6,-1.6 0.9,-3.5 0.9,-5.6 m 3.4,0.2 c 0,2.2 0.3,4.2 1,5.8 0.7,1.7 1.6,3.1 2.9,4.2 1.2,1.1 2.7,2 4.5,2.6 1.8,0.6 3.8,0.9 6,0.9 1.7,0 3.2,-0.1 4.5,-0.4 1.3,-0.3 2.6,-0.6 3.8,-1 l -0.9,-5.8 c -0.9,0.3 -1.9,0.6 -3.1,0.9 -1.2,0.3 -2.6,0.4 -3.9,0.4 -2.2,0 -4,-0.5 -5.5,-1.5 -1.4,-1 -2.1,-2.3 -2.1,-4 h 17 c 0,-0.3 0.1,-0.7 0.1,-1.2 0,-0.5 0,-0.9 0,-1.4 0,-4.4 -1,-7.7 -3,-10 -2,-2.3 -4.9,-3.4 -8.8,-3.4 -1.6,0 -3.1,0.3 -4.6,0.9 -1.5,0.6 -2.8,1.5 -4,2.6 -1.2,1.2 -2.1,2.6 -2.8,4.4 -0.8,1.7 -1.1,3.7 -1.1,6 z m 17.5,-2.7 h -10.5 c 0.1,-0.7 0.2,-1.4 0.5,-2.1 0.2,-0.7 0.6,-1.3 1,-1.8 0.4,-0.5 1,-0.9 1.6,-1.2 0.6,-0.3 1.4,-0.4 2.3,-0.4 0.9,0 1.7,0.2 2.3,0.5 0.6,0.3 1.2,0.7 1.6,1.3 0.4,0.5 0.7,1.1 0.9,1.8 0.2,0.5 0.3,1.2 0.3,1.9 z m 32.9,-3.6 1.2,-6.4 c -0.6,-0.2 -1.3,-0.4 -2.1,-0.5 -0.8,-0.1 -1.6,-0.2 -2.4,-0.3 -0.8,-0.1 -1.5,-0.2 -2.2,-0.2 -0.7,0 -1.2,-0.1 -1.6,-0.1 -2.6,0 -4.8,0.2 -6.7,0.6 -1.9,0.4 -3.8,0.9 -5.6,1.6 v 24.5 h 6.9 v -19.4 c 1,-0.3 1.9,-0.4 2.8,-0.5 0.9,-0.1 1.9,-0.1 2.8,-0.1 0.4,0 0.9,0 1.5,0.1 0.6,0 1.2,0.1 1.8,0.2 0.6,0.1 1.3,0.2 1.9,0.3 0.8,0 1.3,0.1 1.7,0.2 z m 7.1,19.2 h 6.9 V 223 c 0.6,-0.1 1.1,-0.1 1.6,-0.2 0.5,0 1,-0.1 1.5,-0.1 1.7,0 2.8,0.5 3.4,1.6 0.6,1.1 0.8,2.8 0.8,5.3 v 13.9 h 6.9 v -14.8 c 0,-1.8 -0.2,-3.4 -0.5,-4.9 -0.3,-1.5 -0.9,-2.7 -1.7,-3.8 -0.8,-1.1 -1.9,-1.9 -3.3,-2.5 -1.4,-0.6 -3.1,-0.9 -5.2,-0.9 -2.1,0 -4.1,0.1 -5.9,0.4 -1.8,0.3 -3.3,0.6 -4.5,0.9 z m 26,-12.9 c 0,2.2 0.3,4.2 1,5.8 0.7,1.7 1.6,3.1 2.9,4.2 1.2,1.1 2.7,2 4.5,2.6 1.8,0.6 3.8,0.9 6,0.9 1.7,0 3.2,-0.1 4.5,-0.4 1.3,-0.3 2.6,-0.6 3.8,-1 l -0.9,-5.8 c -0.9,0.3 -1.9,0.6 -3.1,0.9 -1.2,0.3 -2.6,0.4 -3.9,0.4 -2.2,0 -4,-0.5 -5.5,-1.5 -1.4,-1 -2.1,-2.3 -2.1,-4 h 17 c 0,-0.3 0.1,-0.7 0.1,-1.2 0,-0.5 0,-0.9 0,-1.4 0,-4.4 -1,-7.7 -3,-10 -2,-2.3 -4.9,-3.4 -8.8,-3.4 -1.6,0 -3.1,0.3 -4.6,0.9 -1.5,0.6 -2.8,1.5 -4,2.6 -1.2,1.2 -2.1,2.6 -2.8,4.4 -0.7,1.7 -1.1,3.7 -1.1,6 z m 7.1,-2.7 c 0.1,-0.7 0.2,-1.4 0.5,-2.1 0.2,-0.7 0.6,-1.3 1,-1.8 0.4,-0.5 1,-0.9 1.6,-1.2 0.7,-0.3 1.4,-0.4 2.3,-0.4 0.9,0 1.7,0.2 2.3,0.5 0.6,0.3 1.2,0.7 1.6,1.3 0.4,0.5 0.7,1.1 0.9,1.8 0.2,0.6 0.3,1.3 0.3,2 h -10.5 z m 27,-4.9 v 10.8 c 0,2.2 0.2,4 0.7,5.3 0.4,1.4 1.1,2.4 2,3.1 0.9,0.7 1.9,1.2 3.1,1.5 1.2,0.3 2.6,0.4 4.2,0.4 1.4,0 2.8,-0.1 4.3,-0.3 1.5,-0.2 2.8,-0.6 4.1,-1.1 l -0.9,-5.9 c -0.6,0.3 -1.2,0.5 -1.8,0.7 -0.5,0.2 -1.1,0.3 -1.6,0.4 -0.5,0.1 -1,0.2 -1.6,0.2 -0.5,0 -1.1,0.1 -1.8,0.1 -0.6,0 -1.1,-0.1 -1.6,-0.2 -0.5,-0.1 -0.9,-0.3 -1.2,-0.7 -0.3,-0.3 -0.6,-0.8 -0.8,-1.4 -0.2,-0.6 -0.3,-1.4 -0.3,-2.3 v -10.6 h 11 v -5.7 h -11 v -7.7 l -6.9,1.1 v 6.6 h -6 v 5.7 z m 21.6,7.6 c 0,2.2 0.3,4.2 1,5.8 0.7,1.7 1.6,3.1 2.9,4.2 1.2,1.1 2.7,2 4.5,2.6 1.8,0.6 3.8,0.9 6,0.9 1.7,0 3.2,-0.1 4.5,-0.4 1.3,-0.3 2.6,-0.6 3.8,-1 l -0.9,-5.8 c -0.9,0.3 -1.9,0.6 -3.1,0.9 -1.2,0.3 -2.6,0.4 -3.9,0.4 -2.2,0 -4,-0.5 -5.5,-1.5 -1.4,-1 -2.1,-2.3 -2.1,-4 h 17 c 0,-0.3 0.1,-0.7 0.1,-1.2 0,-0.5 0,-0.9 0,-1.4 0,-4.4 -1,-7.7 -3,-10 -2,-2.3 -4.9,-3.4 -8.8,-3.4 -1.6,0 -3.1,0.3 -4.6,0.9 -1.5,0.6 -2.8,1.5 -4,2.6 -1.2,1.2 -2.1,2.6 -2.8,4.4 -0.7,1.7 -1.1,3.7 -1.1,6 z m 17.6,-2.7 h -10.5 c 0.1,-0.7 0.2,-1.4 0.5,-2.1 0.2,-0.7 0.6,-1.3 1,-1.8 0.4,-0.5 1,-0.9 1.6,-1.2 0.6,-0.3 1.4,-0.4 2.3,-0.4 0.9,0 1.7,0.2 2.3,0.5 0.6,0.3 1.2,0.7 1.6,1.3 0.4,0.5 0.7,1.1 0.9,1.8 0.2,0.5 0.3,1.2 0.3,1.9 z m 21.3,10.4 c -1.5,0 -3,-0.2 -4.5,-0.7 -1.5,-0.4 -2.9,-0.9 -4.2,-1.4 l -1.1,5.7 c 1,0.4 2.2,0.9 3.8,1.4 1.6,0.5 3.5,0.8 5.8,0.8 2.2,0 4.1,-0.2 5.6,-0.6 1.5,-0.4 2.8,-1 3.7,-1.7 0.9,-0.7 1.6,-1.5 2,-2.5 0.4,-1 0.6,-2 0.6,-3.1 0,-1.4 -0.3,-2.5 -0.8,-3.5 -0.6,-0.9 -1.3,-1.7 -2.1,-2.3 -0.9,-0.6 -1.8,-1.1 -2.9,-1.5 -1.1,-0.4 -2.1,-0.8 -3.1,-1.1 -0.7,-0.2 -1.4,-0.5 -2,-0.7 -0.6,-0.2 -1.2,-0.5 -1.6,-0.8 -0.5,-0.3 -0.8,-0.5 -1.1,-0.9 -0.3,-0.3 -0.4,-0.7 -0.4,-1.1 0,-0.5 0.3,-0.9 0.9,-1.4 0.6,-0.4 1.8,-0.6 3.5,-0.6 1.7,0 3.2,0.2 4.5,0.6 1.3,0.4 2.3,0.7 3,0.9 l 1.1,-5.8 c -1.1,-0.5 -2.3,-0.9 -3.8,-1.1 -1.5,-0.3 -3.1,-0.4 -4.8,-0.4 -2,0 -3.7,0.2 -5.1,0.6 -1.4,0.4 -2.6,1 -3.5,1.8 -0.9,0.8 -1.6,1.6 -2,2.6 -0.4,1 -0.6,2 -0.6,3.1 0,1.4 0.3,2.5 0.8,3.4 0.6,0.9 1.3,1.7 2.1,2.3 0.9,0.6 1.8,1.1 2.8,1.5 1,0.4 2.1,0.7 3.1,1 0.7,0.2 1.4,0.4 2,0.7 0.6,0.2 1.2,0.5 1.7,0.7 0.5,0.2 0.9,0.5 1.2,0.9 0.3,0.3 0.4,0.7 0.4,1.2 0,0.7 -0.4,1.2 -1.3,1.5 -0.8,0.4 -2.1,0.5 -3.7,0.5"></path><metadata id="metadata4192"><rdf:rdf><cc:work rdf:about=""><dc:title></dc:title></cc:work></rdf:rdf></metadata></svg>