<svg xmlns="http://www.w3.org/2000/svg" viewBox="39 0 522 200"><path d="M332.415 89.73c-9.218 0-15.9 6.518-15.9 15.79 0 8.856 7.082 15.792 16.12 15.792 9.216 0 15.903-6.698 15.903-15.793 0-8.853-7.086-15.79-16.123-15.79zM459.42 89.73c-9.213 0-15.9 6.518-15.9 15.79 0 8.856 7.086 15.792 16.13 15.792 9.205 0 15.898-6.698 15.898-15.793 0-8.853-7.086-15.79-16.13-15.79zM196.676 88.788c-5.408 0-9.88 2.067-12.693 5.592-2.565 3.21-4.134 7.69-3.338 13.42l28.814-11.164c-2.332-4.68-6.84-7.848-12.784-7.848z"/><path d="M65.313 27.42v145.73H533.58V27.42H65.314zm97.676 106.14h-54.215V60.706h16.72v58.72h37.494v14.136zm35.444-11.296c6.332 0 10.3-1.15 17.243-5.945l10.43 7.486c-5.34 5.772-16.748 10.71-27.914 10.71-19.928 0-33.634-12.064-33.634-28.99 0-16.497 13.676-28.993 31.816-28.993 9.985 0 18.185 3.178 23.724 9.188 3.816 4.137 6.285 9.567 7.2 15.656l-42.17 16.334c3.147 2.897 7.607 4.554 13.304 4.554zm95.277 11.297h-16.494v-31.91c0-7.42-7.064-11.852-13.89-11.852-8.83 0-13.6 6.106-13.6 11.852v31.91h-16.494V77.478h16.498l-.003 8.036h.003l-.003.008c4.805-5.99 12.67-8.987 19.588-8.987 14.51 0 24.397 9.36 24.397 22.26v34.768zm38.705.945c-18.04 0-32.18-12.54-32.18-28.986 0-16.253 14.234-28.987 32.4-28.987 18.046 0 32.18 12.55 32.18 28.986 0 16.25-14.235 28.985-32.4 28.985zm54.596-.96L362.29 77.476h18.846l14.91 38.207 14.914-38.207h18.85l-24.727 56.067h-18.07zm72.41.96c-18.042 0-32.17-12.54-32.17-28.986 0-16.253 14.234-28.987 32.4-28.987 18.04 0 32.168 12.55 32.168 28.986 0 16.25-14.228 28.985-32.4 28.985zm38.978-7.597h-2.67v6.653h-1.654v-6.652h-2.666v-1.42h6.99v1.42zm10.556 6.653h-1.603v-5.735l-2.66 3.878h-.173l-2.666-3.878v5.736h-1.602v-8.07h1.766l2.615 3.823 2.614-3.824h1.71v8.07z"/></svg>