<svg xmlns="http://www.w3.org/2000/svg" viewBox="0 0 400 80"><path d="M52.5 73.2c15.7 0 29.6-5.5 38.2-14l-7.7.1c-7.4 6.2-18.2 10-30.4 10-22.7 0-40.4-13.5-40.4-30.2 0-19.3 17.7-30.2 40.4-30.2 1.5 0 2.6.5 1.8 1.9-4.7 5.7-18.2 23.9-20.7 27.9-4.8 7.8-4.6 17.4 7.2 18.1h49.8c2.6 0 3.3-1.2 4.1-2.4 3.4-4.5 5-9.8 5-15.3 0-14.4-10-25.1-24.9-30.4l-2.3 3.4c12.4 4.5 20.5 13.7 20.5 27 0 2.3-.3 4.5-1 6.6-.5 1.9-1.6 3.4-3.6 3.4H48.7c-5.1 0-3.2-5.2-1.3-7.7 2.8-4.9 17.8-25.4 21.3-29.2 1.1-1.4 3.6-4.3 0-5.4C63.7 5.7 58.1 5 52.5 5 26.2 5 5 18.5 5 39.1c0 20.8 21.2 34.1 47.5 34.1m322.4-36h-28.3c.3-3.6 2.9-7.1 7.4-7.1h33.4v-6.8h-34.9c-13.9 0-19.7 10.5-19.7 20.7h39c1.3 0 4.4.3 4.4 3.5s-2.7 3.5-7.4 3.5h-40.6V23.3h-11.9V51h-22.8c-7 0-7.7-5-7.7-7.7v-20h-21.7l-17.7 11.8-16.1-11.8h-46.6c-13.9 0-22.3 9.7-23.5 18.1h9.6c-3.8 2.5-6.5 6.1-8 9.6h-27.1c-6.9 0-7.6-5-7.6-7.7v-20h-12v19c0 13 9.1 15.6 13.6 15.6h95.6L242.2 46l16.2 11.9h18.8l-25.1-18.5 20.7-13.8v18.3c0 11.7 11.5 14 14.7 14h87.3c4.2 0 16.2-.6 16.2-10 0-9.5-8.8-10.7-16.1-10.7M222.3 51h-44.9c.3-3.5 4.2-7 8.7-7h26.6v-6.8h-36.3c.3-3.6 4.2-7.1 8.7-7.1h30.4v-4l21 15.6-14.2 9.3z"/></svg>