<svg xmlns="http://www.w3.org/2000/svg" viewBox="0 0 470 150"><path d="M33.97 37.52a1.918 1.918 0 0 0-1.9 2v73.98a1.918 1.918 0 0 0 1.9 2h60.66a1.918 1.918 0 0 0 1.9-2V65.52a1.918 1.918 0 0 0-.6-1l-26.16-27a1.918 1.918 0 0 0-1.4 0h-34.4zm1.9 4h31.7l25.06 25v44.98H35.87V41.52zm42.6-4c-.7 0-1.5 0-1.8 1-.3 1-.1 1 .4 2l16.16 16c.6 1 1.4 1 2.1 1 .7-1 1.2-1 1.2-2v-16c0-1-.9-2-1.9-2H78.47zM428.9 103.5v-2h-3v13h3v-7c0-3 1-5 4-5 2 0 2 2 2 4v8h3v-9c0-3-2-5-5-5-2 0-3 1-4 3m-12-3c-4 0-7 3-7 8 0 4 3 7 7 7s6-3 6-7c0-5-2-8-6-8m0 13c-3 0-4-3-4-5 0-3 1-6 4-6s4 3 4 6c0 2-1 5-4 5m-12 1h2v-13h-2v13m1-15.01c1 0 1-1 1-2s0-1-1-1-1 0-1 1 0 2 1 2m-4 2.01h-4v-3.01h-2v3.01h-2v1h2v9c0 3 1 4 3 4s2 0 3-1v-1h-2c-1 0-2-1-2-3v-8h4v-1m-16-1c-1 0-2 1-4 1v2c2-1 3-1 4-1 2 0 3 1 3 3v1h-2c-4 0-6 1-6 4s2 5 4 5 3-1 4-3v2h2v-9c0-3-2-5-5-5m3 9c0 2-1 4-3 4s-3-1-3-3 1-3 4-3h2v2m-14-6c-1-2-2-3-4-3-4 0-6 3-6 8 0 4 2 7 6 7 2 0 3-1 4-3v2h3V94.49h-3v9.01m0 5c0 3-1 5-4 5-2 0-4-2-4-5 0-4 2-6 4-6s4 2 4 5v1m-22-5v-2h-2v13h2v-7c0-3 2-5 4-5s2 2 2 4v8h3v-9c0-3-2-5-5-5-2 0-3 1-4 3m-9 9v2h3v-13h-3v7c0 3-1 5-3 5-3 0-3-1-3-4v-8h-2v9c0 3 1 5 4 5 2 0 3-1 4-3m-18-12c-4 0-6.4 3-6.4 8 0 4 2.4 7 6.4 7s6-3 6-7c0-5-2-8-6-8m0 13c-2.7 0-4-3-4-5 0-3 1.3-6 4-6 2.8 0 4 3 4 6 0 2-1.2 5-4 5m-15.9 1v-8h6.6v-2H310v-7.01h7.6v-2h-9.9v19.01h2.3m-11.9-13h-3.2v-3.01h-2.3v3.01h-2.2v1h2.2v9c0 3 1.3 4 3.4 4 1.1 0 1.9 0 2.5-1l-.3-1h-1.5c-1.3 0-1.8-1-1.8-3v-8h3.2v-1m-19.1 2v-2h-2.3v13h2.3v-7c0-3 1.7-5 3.8-5 2.1 0 2.6 2 2.6 4v8h2.3v-9c0-3-1.4-5-4.3-5-1.9 0-3.4 1-4.3 3h-.1m-5.6 5l.1-1c0-4-1.8-7-5.3-7-3.7 0-6.4 4-6.4 8s2.7 7 6.4 7c1.7 0 2.9-1 4.2-1l-.2-2c-1 1-2.5 1-3.6 1-2.7 0-4.4-2-4.5-5h9.3m-5.4-6c2.1 0 3.2 2 3.2 4h-7c.3-2 1.6-4 3.8-4m-11.6 4v8h2.3v-9c0-3-1.3-5-4-5-1.9 0-3.4 2-4.3 3-.6-1-1.7-3-3.8-3-1.9 0-3.1 1-4 3h-.1l-.1-2h-2.2v13h2.3v-7c0-3 1.3-5 3.4-5 1.7 0 2.4 2 2.4 4v8h2.3v-7c0-3 1.3-5 3.4-5 1.7 0 2.4 2 2.4 4m-22.7 6l.1 2h2.2v-13h-2.3v7c0 3-1.7 5-3.7 5-2.2 0-2.7-1-2.7-4v-8H225v9c0 3 1.5 5 4.3 5 2 0 3.4-1 4.3-3h.1m-19.9-5c0-3 2-5 4.6-5 1.4 0 2.6 1 3.6 1l.2-2c-.8 0-2.1-1-3.6-1-4.1 0-7.2 3-7.2 8 0 4 2.8 7 6.5 7 1.6 0 2.8 0 4.2-1l-.2-2c-1.2 1-2.4 1-3.6 1-2.7 0-4.5-2-4.5-6m-11.1-7c-4 0-6.4 3-6.4 8 0 4 2.4 7 6.4 7s6.4-3 6.4-7c0-5-2.4-8-6.4-8m0 13c-2.8 0-4-3-4-5 0-3 1.2-6 4-6s4 3 4 6c0 2-1.2 5-4 5m-24.3-18.01v19.01c1.3 0 3.3 1 4.8 1 5.6 0 10.9-4 10.9-11 0-6.01-4.1-9.01-10.9-9.01h-4.8m2.3 2h2.8c5.2 0 8.1 3.01 8.1 7.01 0 6-3.7 9-8.2 9h-2.7V97.49m-11.9 11.01l.1-1c0-4-1.8-7-5.3-7-3.7 0-6.4 4-6.4 8s2.7 7 6.4 7c1.7 0 2.9-1 4.2-1l-.2-2c-1 1-2.5 1-3.6 1-2.7 0-4.4-2-4.5-5h9.3m-5.4-6c2.1 0 3.2 2 3.2 4h-7c.3-2 1.6-4 3.8-4m-18 1v-9.01h-2.3v20.01h2.3v-7c0-3 1.7-5 3.7-5 2.2 0 2.7 2 2.7 4v8h2.3v-9c0-3-1.5-5-4.3-5-2 0-3.4 1-4.4 3m-4.5-8.01h-13.5v2h5.6v17.01h2.3V97.49h5.6v-2m296-25.97c0-2 1-3 1-4 0-8-5-15-13-15-9 0-16 8-16 18 0 11 7 16 16 16 4 0 7 0 10-2l-1-4c-2 1-6 2-9 2-6 0-10-4-10-11h22m-13-14c5 0 8 4 8 9h-17c1-6 4-9 9-9m-39 12c0-8 5-12 11-12 3 0 6 0 9 2v-5c-2-1-5-2-8-2-11 0-18 6-18 18 0 11 7 16 16 16 4 0 7 0 10-2l-1-4c-2 1-5 2-8 2-7 0-11-4-11-13m-18 17h6v-33h-6v33m3-38c2 0 4-1 4-3s-2-4-4-4-3 2-3 4 1 3 3 3m-23 3v2h-6v4h6v29h5v-29h9v-4h-9v-3c0-6 3-9 7-9h5l1-4c-2 0-4-1-6-1-8 0-12 5-12 15m-19.1 0v2h-5.4v4h5.4v29h6.1v-29h8v-4h-8v-3c0-6 2-9 7-9h4l1-4c-1 0-4-1-6-1-8 0-12.1 5-12.1 15m-30.8-12c-12.1 0-22.1 9-22.1 24 0 14 10 23 22.1 23 12.2 0 22.1-9 22.1-23 0-15-9.9-24-22.1-24m0 5c9.1 0 15.9 6 15.9 19 0 12-6.8 19-15.9 19-9 0-15.9-7-15.9-19 0-13 6.9-19 15.9-19m-27.4 23c0-8-5-15-13.6-15-10.4 0-17.1 7-17.1 18s6.9 16 17.1 16c4.8 0 8.1 0 11.3-2l-.9-7c-3 2-6 2-9.3 2-5.4 0-8.9-2-9.3-7h21.4c.3-1 .4-3 .4-5m-14.6-8c3.9 0 5.8 3 5.9 7h-12.7c.6-4 3.3-7 6.8-7m-18.7-7c-4.3 0-8.4 3-10.3 7h-.1l-.2-6h-8.8v33h9v-13c0-6 1.2-9 3.3-10 1.8-2 4-2 6.9-2l.2-9m-49.1 5h-.1v-20h-9v49h8.8l.2-4h.1c2.9 3 5.7 4 10.3 4 8.8 0 14.6-8 14.6-17 0-10-5.2-17-14.2-17-4.7 0-7.6 1-10.7 5m-.1 11c0-5 2.6-9 7.4-9 5.4 0 8.1 4 8.1 10s-2.6 10-8 10c-4.6 0-7.5-3-7.5-9v-2m-24.6 18h9v-33h-9v33m4.5-36c2.8 0 5.2-2 5.2-5s-2.4-6-5.2-6c-2.9 0-5.2 3-5.2 6s2.3 5 5.2 5m-39.6-10v46H157v-7h-20.6v-39h-9"/></svg>