<svg xmlns="http://www.w3.org/2000/svg" viewBox="0 0 256 256"><path d="M45.98 10.51c-19.6 0-35.48 15.88-35.48 35.48V210c0 19.6 15.88 35.5 35.48 35.5H210c19.6 0 35.5-15.9 35.5-35.5V45.99c0-19.6-15.9-35.48-35.5-35.48H45.98zm18.2 39.8c12.08 0 19.52 7.93 19.75 18.36 0 10.2-7.67 18.36-19.98 18.36h-.23c-11.86 0-19.52-8.16-19.52-18.36 0-10.43 7.89-18.36 19.98-18.36zM168.3 99.04c23.2 0 40.7 15.16 40.7 47.76v61h-35.3v-56.9c0-14.3-5.2-24-17.9-24-9.8 0-15.6 6.5-18.2 12.9-.9 2.3-1.1 5.4-1.1 8.6v59.4h-35.3s.4-96.3 0-106.3h35.3v15c4.7-7.2 13.1-17.46 31.8-17.46zM46.29 101.5H81.6v106.3H46.29V101.5z"/></svg>