<svg xmlns="http://www.w3.org/2000/svg" viewBox="0 0 521.2 157.4">&gt;<path d="M229.5 44H203V24.5h26.5V44zm-118.4 83.1l-5.1-6h3.6l3.4 4.5 3.5-4.5h3.2l-5 6 5.5 6.6h-3.6l-3.8-5-3.9 5h-3.4l5.6-6.6zm-14.53 6.6h-2.8v-2c-.9 1.4-3 2.2-5.2 2.2-4 0-5.9-2-5.9-5.3v-7.5h2.9v6.5c0 2.9.8 4.3 3.4 4.5 3.3 0 4.7-2.1 4.7-5.2v-5.8h2.9v12.6zm-38.71-12.6h2.81v2h.1c.86-1.4 2.96-2.3 5.1-2.3 4.1 0 5.9 2.1 5.9 5.4v7.5h-2.9v-6.5c0-2.9-.8-4.4-3.3-4.5-3.29 0-4.77 2.1-4.77 5.2v5.8h-2.9v-12.6zm-11.14-2.8h-3.25v-2.6h3.25v2.6zm-3.09 2.8h2.9v12.6h-2.9v-12.6zm-21.52-4.6h3.06v15h8.98v2.2H22.11v-17.2zm92.59-24.4h3.1v17.2h-3.1V92.1zm-17.73 0h12.13v2.2h-9v5h8.2v2.2h-8.2v5.6h9v2.2H96.97V92.1zm-21.2 0h3.1v7.6l9.1-7.6h4.1l-10.1 8.1 10.9 9.1h-4.5l-9.5-8.4v8.4h-3.1V92.1zm-21.25 0h3.06v7.6l9.19-7.6h4.1l-10.12 8.1 10.92 9.1h-4.5l-9.59-8.4v8.4h-3.06V92.1zm-9.44 0h3.06v17.2h-3.06V92.1zm-22.97 0h4.17l9.48 13.8h.1V92.1h3.06v17.2h-3.93l-9.73-14.1h-.1v14.1H22.1V92.1zM203 56.7h26.5v77H203v-77zM86.47 59.4c.7 3.1 1.1 6.2 1.8 14.1l-4.9 1.6c0-5-.4-9.4-1.2-14.4l4.3-1.3zm-13.5 1.5c-.3 8.6-.7 13.5-2 20l-5.3-2.5c1.4-4.9 2.1-10.9 2.3-18.6l5 1.1zm23.4-29.1c1.4 3 3.2 5.3 5.63 7.6 2.6-2.6 4.2-4.7 5.9-7.6H96.37zM116.6 29c-5.5 9.4-5.6 9.5-9.6 14.2 3.6 2.3 7.8 3.9 12.3 4.9-1.2 2.3-1.9 4.2-2.7 7.2-5.6-1.9-10.8-4.5-14.4-7.5-3.63 2.8-6.63 4.6-10.83 6.6-.8-2.1-2-4.2-3.7-6.2 3.3-1.1 6.8-2.9 9.7-4.9-3-3.3-5.6-7.4-7.2-11.5-1.4.1-2.3.1-3.1.3V25c1.3.2 3.3.3 6.3.3h15.03c2.2 0 3.4-.1 4.5-.3l3.7 4zm-6.3 30.7c2.5 0 4.1-.1 5.6-.4v7.1c-1.8-.2-3.4-.3-5.6-.3h-5.2v9.2h7.1c3 0 4.7-.1 6.2-.4v7.2c-1.9-.3-3.7-.4-6.3-.4H93.17c-2.6 0-4.5.1-6.4.4v-7.2c1.6.3 3 .4 5.6.4h6.7v-9.2h-3.9c-2.1 0-3.9.1-5.7.3v-7c1.5.3 2.9.3 5.7.3h3.9v-1.3c0-3.3-.1-5-.3-6.4h6.63c-.2 1.7-.3 3.3-.3 6.4v1.3h5.2zm-44.73-9.1c.9.2 1.6.2 2.9.2h2c.8-1.2 1.7-2.5 2.8-4.3-2.1-3.4-5.5-7.9-7.85-10.3l2.95-5.6 2.3 2.6c1.8-3.5 4-9 4.4-11.2l5.8 2.8c-.5.9-.5 1-2.1 4.5-1.4 3.1-3 6.2-4.4 8.6.4.5.7 1 1.1 1.5l1 1.5c3.4-6 4.5-8.5 5.5-11.5l5.1 3.5c-.3.4-.4.6-.7 1.2-1 1.6-1.9 3.3-2.7 4.9-2.4 4.1-5.5 9.2-7.1 11.6 2.6-.2 4.6-.4 6.2-.6-.6-1.8-.9-2.7-1.8-5.3l3.8-2.2c2.2 5.6 3.5 9.2 4.6 13.8l-4.4 2.6c-.3-1.8-.4-2.4-.7-3.3-1.7.3-2.6.4-3.8.5v21c0 3.3 0 4.9.3 7h-6.3c.3-2.1.3-3.8.3-7.1V56.7l-2.2.2c-3.4.2-5.5.5-6.3.6l-.7-6.9zM28.86 72.3h26.79v-17H28.86v17zm0-23.9h26.79V33H28.86v15.4zm-6.51-15.7c0-2.6-.12-4.9-.29-7.1 1.84.3 3.74.4 6.39.4h27.89c2.76 0 4.49-.1 6.22-.4-.23 2.6-.29 4.5-.29 6.8v42.9c0 3.4.12 5.6.35 8h-6.97v-4H28.86v4H22c.23-2.3.35-5 .35-8V32.7zM437.6 94.5l-24.1-37.8H445l11.4 23 12-23h29.1l-24.1 37.5 25.8 39.5h-32.1l-12.9-23.9-12.8 23.9h-30l26.2-39.2zm-28.5 39.2h-24.2v-14.3h-.3c-5.3 11.1-16 16-28.1 16-21 0-29.4-14.8-29.4-30.7v-48h26.5v37.2c0 14.5 5.1 19.3 12.4 19.3 10.9 0 16.6-7.5 16.6-24V56.7h26.5v77zm-170.3-77H263v14.2h.3c5.3-11.1 16-16 28.1-16 21 0 29.4 14.8 29.4 30.8v48h-26.5V96.5c0-14.5-5.1-19.4-12.4-19.4-10.9 0-16.6 7.6-16.6 24.1v32.5h-26.5v-77zM126.2 24.6h27.4v88.7h42.6v20.4h-70V24.6z"/></svg>