<svg xmlns="http://www.w3.org/2000/svg" viewBox="0 0 584.64504 127.94199" version="1"><path d="M192.35 32.814v49.13h25.9v12.108h-41.23V32.814h15.33m57.93 61.238l-.45-4.307c-3.59 3.764-7.63 5.508-12.67 5.508-6.25 0-11.29-2.572-13.87-6.97-1.93-3.313-2.2-4.968-2.2-12.222V49.99h14.41v25.517c0 6.438 1.84 9.098 6.34 9.098 4.77 0 7.16-3.123 7.16-9.098V49.99h14.41V94.05zm45.83-51.503h-2.4c-5.33 0-6.7 1.28-6.7 6.147v1.29h8.53v9.727h-8.53V94.05H272.6V59.715h-6.24V49.99h6.24v-1.292c0-11.563 4.31-15.884 15.6-15.884h7.91zm22.12-6.337V49.99h8.18v9.725h-8.18v17.447c.1 6.43.47 6.8 5.97 6.8h2.85v10.09h-10.83c-8.55 0-12.41-3.942-12.41-12.933V59.713h-6.05V49.99h6.05V36.212zm26.44-3.4v22.128c2.68-4.315 6.43-6.242 12.04-6.242 6.05 0 10.93 2.572 13.58 7.253 1.93 3.4 2.21 5.238 2.21 12.584v25.518h-14.33v-24.96c0-6.342-1.93-9.185-6.34-9.185-4.77 0-7.16 3.12-7.16 9.184v24.962h-14.41V32.814zm33.97 31.223c0-10.002 7.82-15.885 20.85-15.885 13.68 0 20.47 5.692 20.47 17.255v22.502c0 3.852 0 3.852 1.19 6.145h-13.3l-.83-3.662c-4.59 4.035-8.54 5.498-14.32 5.498-9.74 0-16.8-5.78-16.8-13.76 0-6.62 4.31-11.303 12.76-13.69 1.29-.366 5.51-1.194 12.76-2.57 3.13-.644 4.31-1.65 4.31-3.758 0-2.483-2.57-4.138-6.42-4.138-4.69 0-7.43 2.207-7.53 6.065h-13.14zm27.45 8.9c-1.83.556-2.38.73-3.85 1.2-1.74.453-3.3.812-5.23 1.188-4.68 1.193-6.99 3.04-6.99 5.873 0 2.857 2.21 4.504 5.81 4.504 6.97 0 10.27-3.118 10.27-9.638v-3.127zm32.06-22.947l.46 4.95c3.39-4.315 7.42-6.242 12.75-6.242 6.16 0 11.13 2.66 13.7 7.253 1.82 3.4 2.2 5.332 2.2 12.584v25.518h-14.42v-24.96c0-6.52-1.84-9.185-6.33-9.185-4.7 0-7.07 3.12-7.07 9.184v24.962h-14.43V49.99zm60.78 13.77c-.38-4.134-2.12-5.69-6.51-5.69-3.59 0-5.79 1.374-5.79 3.675 0 2.108 2.1 3.39 6.88 4.124l4.97.92c10.46 1.745 15.33 6.146 15.33 13.772 0 9.365-7.99 15.326-20.48 15.326-14.78 0-22.86-5.873-22.86-16.514h14.04v.54c0 3.677 3.04 5.978 7.9 5.978 4.22 0 6.79-1.566 6.79-4.05 0-2.57-2.39-4.036-7.99-5.046l-4.58-.734c-10.47-1.836-14.98-5.602-14.98-12.573 0-9.56 7.98-15.34 21.13-15.34 9.17 0 14.87 2.475 17.81 7.8 1.28 2.213 1.46 2.947 1.84 7.81zm20.1.276c.1-9.923 7.9-15.885 21.03-15.885 13.69 0 20.38 5.692 20.38 17.255v22.502c0 3.764 0 3.764 1.2 6.145h-13.4l-.73-3.662c-5.33 4.307-8.46 5.498-14.32 5.498-9.84 0-16.9-5.78-16.9-13.76 0-6.62 4.32-11.303 12.75-13.69 1.29-.366 5.52-1.282 12.77-2.57 3.03-.644 4.31-1.65 4.31-3.758 0-2.483-2.57-4.138-6.33-4.138-4.69 0-7.53 2.3-7.53 6.065h-13.23zm27.56 8.9c-1.84.556-2.49.73-3.96 1.2-1.57.27-3.3.646-5.23 1.188-4.68 1.193-6.98 3.04-6.98 5.873 0 2.857 2.2 4.504 5.89 4.504 6.97 0 10.28-3.118 10.28-9.638zM115.8 63.488c0 25.427-20.478 45.81-46.01 45.81-25.254 0-45.8-20.477-45.8-45.732 0-25.788 20.545-46.09 46.628-46.09 24.793 0 45.182 20.843 45.182 46.01m-87.05 0c0 22.675 18.367 41.042 41.04 41.042 22.772 0 41.24-18.278 41.24-40.962 0-23.137-18.19-41.307-41.506-41.307-22.308 0-40.775 18.624-40.775 41.23zm31.04-1.847l-.563 1.11c-2.11-.463-5.96-1.936-10.002-3.774l-.552 1.02 1.656.91c5.87 3.036 7.803 3.67 11.202 3.67 6.79 0 11.934-3.852 14.327-10.645 4.217-.822 9.637-1.187 16.06-1.187 5.51 0 10.29.27 16.44 1.01l-1.56 1.927c-2.85-.375-8.09-.74-11.854-.74-4.493 0-7.342.09-8.81.183l-.73 1.656c3.766-.184 5.135-.184 8.08-.184 4.958 0 8.894.183 12.114.454l-1.56 2.02c-5.784-.172-8.444-.27-12.75-.27-2.396 0-4.14.1-6.987.176l-.74 1.655c2.475-.176 5.874-.27 9.46-.27 3.4 0 7.427.09 9.827.183l-1.57 2.03c-1.634-.104-4.856-.104-7.34-.104-3.94 0-8.897.18-11.47.556l-.74 1.463c4.683-.455 7.618-.637 12.763-.637 2.02 0 3.3 0 5.607.183l-1.755 2.11c-3.124-.184-4.12-.184-5.32-.184-8.722 0-14.407 1.28-20.113 4.498 5.232 5.23 13.953 8.81 21.768 8.81.64 0 1.005 0 2.66-.09l-3.773 3.776c-20.74-5.42-24.417-6.894-43.425-18.185-7.52-4.316-13.678-7.252-18.644-8.726l.65-2.29c1.202.177 3.764.916 6.16 1.743l1.093-2.483z"/></svg>