<svg xmlns="http://www.w3.org/2000/svg" viewBox="0 0 506 135"><path d="M95.393 29.89c-2.17 7.62-10.11 12.036-17.725 9.866-7.614-2.178-12.026-10.108-9.854-17.727 2.17-7.61 10.1-12.02 17.715-9.846 7.616 2.175 12.033 10.1 9.863 17.707M58.364 45.374c-1.958 6.873-9.12 10.864-15.997 8.903-6.88-1.96-10.86-9.133-8.903-16.004 1.96-6.882 9.127-10.864 16.006-8.903 6.882 1.962 10.855 9.13 8.894 16.004M42.7 78.404c-1.752 6.145-8.155 9.698-14.293 7.95-6.138-1.753-9.7-8.15-7.95-14.292 1.75-6.14 8.152-9.693 14.29-7.943 6.142 1.75 9.702 8.15 7.954 14.284M60.345 59.012h9.947l20.59 35.707 21.172-35.708h9.39v41.902h-4.375V62.317h-2.366L92.19 100.914h-2.986l-22.12-38.597h-2.36v38.597h-4.38V59.012zM136.438 82.71h18.54c1.568 0 2.816.224 3.755.692.936.464 1.52 1.055 1.754 1.778v-4.225c0-1.844-.555-3.298-1.672-4.343-1.257-1.203-3.145-1.81-5.67-1.81H140.53c-2.443 0-4.29.382-5.532 1.15-1.243.76-1.862 1.783-1.862 3.076v.72h-4.495v-.718c0-2.45.944-4.38 2.826-5.797 1.88-1.406 4.526-2.107 7.94-2.107h14.283c3.912 0 6.813.945 8.695 2.836 1.727 1.728 2.59 4.282 2.59 7.655v19.297H160.6v-2.352a6.982 6.982 0 0 1-2.187 1.718c-.842.417-1.918.634-3.223.634h-18.972c-6.087 0-9.13-2.533-9.13-7.602v-3.614c0-2.12.72-3.8 2.183-5.003 1.604-1.327 3.99-1.986 7.168-1.986zm17.493 3.674h-15.913c-2.568 0-4.3.334-5.206 1.027-.895.687-1.345 1.784-1.345 3.316v2.17c0 1.405.486 2.477 1.458 3.223.987.74 2.68 1.11 5.095 1.11h15.914c2.337 0 4.01-.417 5.03-1.264 1.013-.842 1.526-2.226 1.526-4.155 0-3.617-2.188-5.426-6.557-5.426zM183.908 71.125h12.59c2.577 0 4.585.337 6.007 1.024.81.406 1.68 1.143 2.604 2.228v-3.253h4.262v32.078c0 3.503-.945 6.075-2.828 7.716-2.03 1.812-5.352 2.713-9.953 2.713H184.55c-3.493 0-6.275-.727-8.347-2.168-2.065-1.45-3.106-3.376-3.106-5.788h4.72c0 1.206.608 2.222 1.823 3.042 1.215.827 3.03 1.244 5.467 1.244h11.272c5.824 0 8.733-2.335 8.733-7.004v-5.544c-.425 1.04-1.154 1.858-2.198 2.413-1.39.72-3.467 1.083-6.238 1.083h-12.308c-8.477 0-12.71-3.7-12.71-11.098v-6.872c0-3.862 1-6.796 3.006-8.8 2-2.012 5.082-3.018 9.246-3.018zm11.955 3.618h-9.947c-3.604 0-6.15.668-7.643 1.993-1.5 1.323-2.244 3.51-2.244 6.57v5.972c0 5.35 3.29 8.017 9.886 8.017h9.947c2.985 0 5.268-.737 6.858-2.23 1.59-1.492 2.39-3.41 2.39-5.787V83.55c0-2.734-.777-4.885-2.333-6.45-1.548-1.568-3.853-2.357-6.914-2.357zM273.176 71.125c4.064 0 7.306 1.05 9.724 3.13 2.26 1.972 3.4 4.47 3.4 7.49v19.167h-4.377V82.71c0-2.623-.843-4.586-2.53-5.925-1.688-1.314-4.135-1.982-7.358-1.982h-8.733c-3.332 0-5.883.668-7.67 1.982-1.783 1.338-2.67 3.39-2.67 6.158v17.97h-4.373V82.82c0-2.645-.892-4.65-2.662-5.994-1.76-1.346-4.124-2.023-7.08-2.023h-9.038c-3.417 0-6.048.872-7.887 2.59-1.54 1.455-2.298 3.225-2.298 5.316v18.203h-4.38V71.125h4.38v4.586c.646-1.453 1.646-2.533 2.984-3.248 1.62-.886 3.783-1.336 6.512-1.336h10.246c3.61 0 6.36.607 8.233 1.813 1.382.883 2.48 2.247 3.284 4.094.846-1.847 1.886-3.194 3.116-4.034 1.84-1.25 4.528-1.875 8.06-1.875h11.116zM300.31 82.71h18.543c1.566 0 2.82.224 3.753.692.938.464 1.523 1.055 1.758 1.778v-4.225c0-1.844-.565-3.298-1.667-4.343-1.267-1.203-3.15-1.81-5.674-1.81h-12.617c-2.45 0-4.292.382-5.537 1.15-1.24.76-1.856 1.783-1.856 3.076v.72h-4.5v-.718c0-2.45.94-4.38 2.824-5.797 1.883-1.406 4.53-2.107 7.94-2.107h14.292c3.912 0 6.81.945 8.693 2.836 1.723 1.728 2.587 4.282 2.587 7.655v19.297h-4.384v-2.352a6.894 6.894 0 0 1-2.173 1.718c-.846.417-1.922.634-3.225.634H300.1c-6.095 0-9.137-2.533-9.137-7.602v-3.614c0-2.12.72-3.8 2.18-5.003 1.604-1.327 3.99-1.986 7.167-1.986zm17.5 3.674h-15.914c-2.576 0-4.312.334-5.215 1.027-.892.687-1.344 1.784-1.344 3.316v2.17c0 1.405.486 2.477 1.466 3.223.982.74 2.665 1.11 5.094 1.11h15.915c2.335 0 4.01-.417 5.025-1.264 1.015-.842 1.527-2.226 1.527-4.155 0-3.617-2.185-5.426-6.55-5.426zM348.19 59.012h22c9.523 0 14.288 3.96 14.288 11.87h-4.382c0-2.508-.772-4.355-2.3-5.518-1.727-1.35-4.573-2.015-8.53-2.015h-21.25c-3.215 0-5.45.58-6.67 1.76-1.073 1.052-1.608 2.786-1.608 5.207 0 2.664.773 4.442 2.326 5.358 1.553.908 4.962 1.358 10.222 1.358l12.947.304c7.565 0 12.72.867 15.47 2.604 2.743 1.718 4.114 4.774 4.114 9.155 0 4.348-1.067 7.394-3.193 9.163-2.13 1.77-5.676 2.655-10.63 2.655h-21.59c-4.338 0-7.704-.99-10.103-2.954-2.395-1.966-3.597-4.947-3.597-8.926h4.373c0 2.537.75 4.382 2.248 5.555 1.69 1.316 4.53 1.98 8.52 1.98h19.924c3.415 0 5.878-.568 7.4-1.688 1.52-1.123 2.273-3.098 2.273-5.908 0-2.777-.85-4.643-2.53-5.606-1.963-1.132-5.776-1.688-11.463-1.688l-14.682-.37c-6.565 0-11.013-.883-13.364-2.653-2.03-1.537-3.053-4.33-3.053-8.41 0-3.903 1.05-6.754 3.15-8.546 2.083-1.8 5.32-2.688 9.694-2.688zM403.064 71.004h12.04c4.604 0 8.005 1.188 10.19 3.548 1.884 2.013 2.822 4.734 2.822 8.188v6.502c0 3.454-.963 6.18-2.877 8.184-2.228 2.32-5.608 3.488-10.137 3.488h-12.04c-8.71 0-13.067-3.892-13.067-11.672V82.74c0-3.605.997-6.418 2.998-8.422 2.188-2.204 5.55-3.314 10.07-3.314zm-8.685 18.238c0 5.328 3.02 7.99 9.06 7.99h11.25c2.885 0 5.066-.605 6.562-1.803 1.662-1.324 2.49-3.39 2.49-6.19v-6.558c0-2.568-.78-4.528-2.333-5.897-1.563-1.356-3.806-2.043-6.72-2.043h-11.252c-3.072 0-5.363.62-6.838 1.87-1.484 1.246-2.222 3.28-2.222 6.13v6.5zM452.417 70.88v4.35H439.63v38.17h-4.372V75.23h-3.68v-4.35h3.68v-.726c0-3.715.92-6.5 2.76-8.362 1.84-1.86 4.512-2.78 8.013-2.78h6.322v4.337h-6.32c-2.2 0-3.8.507-4.847 1.518-1.033 1.02-1.554 2.82-1.554 5.416v.597h12.787zM469.39 97.23h8.204c2.256 0 3.947-.52 5.05-1.566.85-.798 1.267-1.7 1.267-2.717h4.722c0 2.015-.78 3.763-2.36 5.26-1.927 1.8-4.686 2.707-8.277 2.707h-8.65c-3.42 0-6.022-.885-7.828-2.655-1.918-1.893-2.88-4.708-2.88-8.443V75.472h-3.74v-4.346h3.74v-5.728h4.373v5.728h22.465v4.346H463.01v14.89c0 2.334.585 4.062 1.753 5.18 1.17 1.128 2.704 1.69 4.626 1.69z"/><g><path d="M215.55 106.1h.536v7.2h-.535v-7.2zM222 106.1h.505l4.968 6.263V106.1h.514v7.2h-.4l-5.072-6.398v6.397H222v-7.2zM233.83 106.1h.503l4.968 6.263V106.1h.515v7.2h-.4l-5.07-6.398v6.397h-.516v-7.2zM248.95 113.422a3.52 3.52 0 0 1-2.623-1.116c-.315-.34-.56-.73-.73-1.178a3.9 3.9 0 0 1-.258-1.41v-.02c0-.493.087-.965.26-1.413.176-.45.42-.846.737-1.188a3.502 3.502 0 0 1 1.14-.818 3.572 3.572 0 0 1 1.493-.305c.54 0 1.035.102 1.48.304.447.202.827.473 1.143.81.315.34.56.733.73 1.18.17.445.257.915.257 1.41.007.006.007.012 0 .02 0 .494-.088.965-.262 1.414-.175.45-.42.846-.736 1.188a3.445 3.445 0 0 1-1.146.817c-.45.202-.945.302-1.487.302zm.02-.483a2.95 2.95 0 0 0 2.196-.942c.27-.29.48-.632.632-1.022.15-.39.226-.81.226-1.255v-.02c0-.445-.077-.865-.23-1.26a3.213 3.213 0 0 0-.64-1.028 3.03 3.03 0 0 0-.97-.694 2.958 2.958 0 0 0-1.235-.257 2.963 2.963 0 0 0-2.197.94c-.27.293-.482.634-.633 1.025-.15.392-.227.81-.227 1.256v.02c0 .447.078.867.232 1.262.154.395.367.737.638 1.028a2.97 2.97 0 0 0 2.207.95zM257.485 106.1h.598l2.818 6.623 2.83-6.624h.564l-3.168 7.25h-.473l-3.168-7.25zM272.256 106.048h.515l3.354 7.25h-.587l-.915-2.015h-4.248l-.915 2.016h-.558l3.354-7.252zm2.14 4.752l-1.893-4.166-1.903 4.166h3.796zM281.35 106.1h.504l4.968 6.263V106.1h.514v7.2h-.4l-5.07-6.398v6.397h-.516v-7.2zM293.177 106.1h2.397c.56 0 1.078.09 1.548.272.47.18.874.434 1.214.755.34.322.602.7.787 1.137.185.437.277.907.277 1.415v.02c0 .507-.093.98-.277 1.42-.186.437-.447.818-.787 1.14a3.73 3.73 0 0 1-1.214.762 4.17 4.17 0 0 1-1.548.278h-2.397v-7.2zm2.396 6.716c.5 0 .953-.08 1.357-.242.405-.16.747-.382 1.03-.66a2.93 2.93 0 0 0 .65-.98c.156-.375.232-.78.232-1.213v-.02c0-.427-.076-.828-.23-1.207a3.008 3.008 0 0 0-.653-.99 3.088 3.088 0 0 0-1.03-.67 3.562 3.562 0 0 0-1.357-.25h-1.86v6.234h1.86zM308.215 113.422a3.52 3.52 0 0 1-2.622-1.116c-.315-.34-.56-.73-.73-1.178a3.88 3.88 0 0 1-.258-1.41v-.02a3.853 3.853 0 0 1 .998-2.6 3.51 3.51 0 0 1 1.142-.82 3.57 3.57 0 0 1 1.49-.303c.543 0 1.036.102 1.482.304.445.202.826.473 1.142.81.314.34.56.733.73 1.18.17.445.256.915.256 1.41.007.006.007.012 0 .02 0 .494-.087.965-.262 1.414-.175.45-.42.846-.736 1.188a3.435 3.435 0 0 1-1.146.817c-.45.202-.945.302-1.487.302zm.02-.483a2.95 2.95 0 0 0 2.196-.942c.272-.29.482-.632.634-1.022.15-.39.226-.81.226-1.255v-.02c0-.445-.077-.865-.23-1.26a3.196 3.196 0 0 0-.64-1.028 3.03 3.03 0 0 0-.97-.694 2.955 2.955 0 0 0-1.235-.257 2.958 2.958 0 0 0-2.195.94c-.27.293-.482.634-.633 1.025-.15.392-.227.81-.227 1.256v.02c0 .447.077.867.232 1.262s.367.737.638 1.028a2.964 2.964 0 0 0 2.205.95zM326.152 106.583h-2.51v-.483h5.555v.483h-2.51v6.717h-.535v-6.717zM334.525 106.1h5.122v.482h-4.588v2.85h4.123v.483h-4.124v2.9h4.638v.483h-5.173v-7.2zM348.38 113.422c-.514 0-.99-.096-1.43-.287a3.53 3.53 0 0 1-1.137-.787 3.583 3.583 0 0 1-.745-1.178 3.908 3.908 0 0 1-.268-1.45v-.02c0-.508.09-.987.273-1.44a3.77 3.77 0 0 1 .75-1.188 3.485 3.485 0 0 1 2.578-1.097c.323 0 .614.028.875.083a3.47 3.47 0 0 1 1.352.6c.196.142.387.298.57.47l-.38.39a5.97 5.97 0 0 0-.493-.42 3.173 3.173 0 0 0-1.934-.638 2.916 2.916 0 0 0-2.165.93c-.27.29-.483.633-.638 1.023a3.424 3.424 0 0 0-.232 1.266v.02c0 .452.08.876.237 1.27.158.396.372.737.643 1.028.27.292.592.52.962.69.37.168.772.25 1.204.25.522 0 .975-.095 1.358-.286a4.36 4.36 0 0 0 1.12-.834l.36.35c-.19.186-.39.355-.59.51-.203.154-.42.287-.648.396a3.682 3.682 0 0 1-1.62.348zM356.413 106.1h.505l4.968 6.263V106.1h.514v7.2h-.4l-5.07-6.398v6.397h-.516v-7.2zM371.533 113.422a3.512 3.512 0 0 1-2.623-1.116c-.315-.34-.56-.73-.73-1.178a3.9 3.9 0 0 1-.257-1.41v-.02a3.852 3.852 0 0 1 .998-2.6 3.49 3.49 0 0 1 2.633-1.123c.542 0 1.035.102 1.48.304.446.202.827.473 1.143.81.316.34.56.733.73 1.18.172.445.258.915.258 1.41.007.006.007.012 0 .02a3.86 3.86 0 0 1-.998 2.602 3.45 3.45 0 0 1-1.147.817 3.57 3.57 0 0 1-1.487.302zm.02-.483a2.947 2.947 0 0 0 2.196-.942c.27-.29.48-.632.632-1.022.15-.39.226-.81.226-1.255v-.02c0-.445-.076-.865-.23-1.26a3.213 3.213 0 0 0-.638-1.028 3.03 3.03 0 0 0-.972-.694 2.958 2.958 0 0 0-1.234-.257 2.963 2.963 0 0 0-2.196.94 3.13 3.13 0 0 0-.633 1.025c-.15.392-.227.81-.227 1.256v.02c0 .447.077.867.232 1.262.154.395.366.737.638 1.028a2.958 2.958 0 0 0 2.205.95zM380.688 106.1h.535v6.716h4.227v.483h-4.762v-7.2zM394.048 113.422a3.52 3.52 0 0 1-2.622-1.116c-.315-.34-.56-.73-.73-1.178a3.88 3.88 0 0 1-.258-1.41v-.02a3.853 3.853 0 0 1 .998-2.6 3.51 3.51 0 0 1 1.142-.82 3.57 3.57 0 0 1 1.49-.303c.543 0 1.036.102 1.483.304.446.202.827.473 1.143.81.315.34.56.733.73 1.18.17.445.257.915.257 1.41.007.006.007.012 0 .02 0 .494-.088.965-.262 1.414-.175.45-.42.846-.736 1.188a3.43 3.43 0 0 1-1.147.817c-.45.202-.945.302-1.487.302zm.02-.483a2.95 2.95 0 0 0 2.196-.942c.27-.29.48-.632.633-1.022.15-.39.226-.81.226-1.255v-.02c0-.445-.077-.865-.23-1.26a3.196 3.196 0 0 0-.64-1.028 3.03 3.03 0 0 0-.97-.694 2.955 2.955 0 0 0-1.235-.257 2.955 2.955 0 0 0-2.195.94 3.146 3.146 0 0 0-.633 1.025c-.15.392-.227.81-.227 1.256v.02c0 .447.077.867.232 1.262s.367.737.638 1.028a2.96 2.96 0 0 0 2.205.95zM406.505 113.422c-.57 0-1.078-.098-1.528-.293a3.323 3.323 0 0 1-1.136-.798 3.495 3.495 0 0 1-.71-1.178 4.153 4.153 0 0 1-.246-1.435v-.022c0-.486.084-.954.252-1.403.168-.448.408-.846.72-1.188a3.503 3.503 0 0 1 1.127-.823c.44-.206.926-.31 1.46-.31.295 0 .565.02.808.062.244.04.472.104.68.186.21.08.408.18.597.298.19.117.372.25.55.4l-.35.402a3.908 3.908 0 0 0-.96-.617c-.36-.165-.813-.247-1.354-.247-.44 0-.84.086-1.203.257a2.92 2.92 0 0 0-.94.698 3.11 3.11 0 0 0-.612 1.026c-.145.39-.217.8-.217 1.232v.02c0 .466.07.897.212 1.294.14.397.345.74.612 1.027.267.287.59.514.972.678.38.166.81.247 1.29.247.227 0 .45-.02.67-.066a3.822 3.822 0 0 0 1.172-.44c.172-.1.322-.203.452-.312v-2.06h-2.406v-.484h2.92v2.77c-.328.288-.734.54-1.218.755a3.916 3.916 0 0 1-1.61.322zM415.04 106.1h.535v7.2h-.534v-7.2zm.978-2.038l.627.31-1.1 1.06h-.433l.906-1.37zM424.225 106.048h.515l3.353 7.25h-.586l-.916-2.015h-4.247l-.915 2.016h-.557l3.355-7.252zm2.14 4.752l-1.893-4.166-1.902 4.166h3.795z"/></g></svg>