<svg xmlns="http://www.w3.org/2000/svg" viewBox="0 0 568.2 157.3"><path d="M552.3 107.4h-.6v-1.5h.9c.5 0 1.1.1 1.1.7 0 .8-.7.8-1.4.8zm1.9-.8c0-.8-.4-1.2-1.3-1.2h-1.8v4.4h.6v-2h.8l1.3 2h.5l-1.2-2c.6 0 1.1-.4 1.1-1.2m-1.7 4.2c-1.8 0-3.2-1.4-3.2-3.2 0-1.8 1.4-3.3 3.2-3.3 1.8 0 3.2 1.5 3.2 3.3 0 1.8-1.4 3.2-3.2 3.2zm0-7c-2 0-3.8 1.7-3.8 3.8 0 2 1.8 3.8 3.8 3.8 2.1 0 3.7-1.8 3.7-3.8 0-2.1-1.6-3.8-3.7-3.8M402.8 46.7c-3.1 0-5.6 2.4-5.6 5.3 0 3.1 2.4 5.5 5.4 5.5v.4-.4c3.1 0 5.5-2.4 5.6-5.3 0-3.1-2.5-5.5-5.4-5.5m-192.4 0c-3.1 0-5.6 2.4-5.6 5.3 0 3.1 2.4 5.5 5.5 5.5v.4-.4c3 0 5.4-2.4 5.6-5.3 0-3.1-2.6-5.5-5.5-5.5M171.9 82c-2.4 9.8-6.9 21.4-15.2 22h-.7c-3.4 0-5.4-2.2-5.7-6.6-.5-5.6 1.9-12.2 6-16.7 2.7-2.8 5.7-4.4 8.4-4.4h.1c3.5 0 6 2.8 7.1 5.5l.1.1-.1.1zm76-53.8l.1-.2c.8 0 1.5.4 2.1 1.2 2.7 3.8 2.7 17.2-2 32.4-2.6 8.8-6.2 17-10.4 23.9l-.6 1.1-.2-1.2c-.5-3.8-.6-7.6-.9-11-1.2-23 5.9-46 11.9-46.2zm-63.1 80c8-.7 14.4-11.6 16.7-16.2l.6-1.2.3 1.2c1.1 6.7 4.7 17.6 15.7 17.8h.2c4.8 0 10.2-3 15.8-8.6l.4-.4.3.4c3.7 6.3 8.7 9.6 14 9.4 7.9-.4 12.5-6 12.9-9.9.2-.9-.1-1.9-.6-2.5-.7-.7-1.8-.8-2.4-.2l-.4.4c-1.9 1.8-5.2 5-9 5.2-4.5.2-7.8-2.5-10-8.1l-.1-.3.1-.1c12.6-16.3 21.2-41.1 20.4-57.7-.4-7.8-2.6-17-11-17h-.7c-3.2.2-6.1 1.8-8.7 4.6-7.8 8.8-12 30.2-10.5 54.8.4 5.2 1.2 9.8 2.7 14.2l.1.2-.1.2c-4.7 5.4-9.2 8.4-13 8.4-8.8 0-8.4-14.8-7.7-27 .1-2.6.4-4.3-.4-5.2-.5-.7-1.5-1.1-2.9-1.1h-.2c-3 0-3.7.7-5.3 5.3-3.3 9.6-9.9 25.9-16.5 25.9-1.9-.1-3.2-.7-4.3-1.9-3.2-4.1-.7-14.4 1.2-22.5.4-1.5.8-2.9 1.1-4.3.4-1.8.2-3.3-.4-4.2-.7-.8-2.2-1.2-3.9-1.1-2.9.3-4.6 1.5-5.6 6.8l-.1 1.2-.7-.8c-1.2-1.9-3.6-4-8.1-4h-1.2c-4.8.4-10.3 3.7-14.3 8.7-4.6 5.8-6.8 13.2-6.2 20.8.1.2.1.6.2 1v.3l-.1.1c-2.8 3.1-5.6 4.6-8.4 4.6-4.4 0-6.9-3.2-6.9-8.6 0-9 6.1-36.2 6.1-46.1 0-10.5-4.7-16.3-12.8-16.3h-.1c-11.8 0-21.1 13.5-29.9 41.1-.8 2.5-1.8 5.5-2.4 8l-1.4 4.1.4-4.2c.8-9.6 1.4-19.1 1.8-27.9.4-13.5-1.5-22-5.6-26.4-2.3-2.3-5.2-3.5-9.1-3.5h-.1c-14.4 0-21.5 24.6-26.5 41.8-1.5 5.2-4.6 16.9-6.6 24.9l1.2-1.9c1-10.1 3.5-35.4 3.4-49.2-.2-14.8-5.1-21.3-15.9-21.4h-.1c-5.9 0-9.9 2.9-12.2 5.3-3.8 3.9-6.1 9.5-6 14.4.1 2.9 1.9 5.6 3.3 5.6.9 0 1.4-1.2 1.6-1.9 3.3-11.2 7.7-16.5 13.3-16.5 2.2 0 4 .7 5.3 2.1C39.8 33.5 39 46 37.6 69c-.5 7.3-1 15.7-1.4 25.2-.2 1.6-.2 3.2-.3 4.6-.4 6.7-.8 11.9 1.7 12.3 3.2.4 5.4-.9 6.4-4.1 1.6-4.8 5.2-17.9 12.3-41.8C63 42.3 68 34 74.4 34c7.6 0 8.1 12.8 6.7 39.9-.3 5.9-.7 12.3-1 19.3 0 1.1-.1 2-.1 3-.2 5.8-.5 10.5 1.2 12.2.5.6 1.2.8 2.1.8 3.2 0 4.3-2.8 5.9-7.4.3-1 .5-1.8.9-2.7 11.1-30.7 19.4-57.2 30.3-57.2 3.4 0 5.9 2.7 5.9 7.9 0 12.1-5.9 35.4-5.9 47.3 0 4.3 1.2 8 3.5 10.7 2.4 2.8 5.7 4.2 9.6 4.2h.1c3.8 0 7.5-1.7 11.5-5.3l.3-.3.4.4c2.5 3.4 6.6 5.2 11 5 7-.6 12.7-6.7 14.8-12.4l.4-1.2.4 1.2c1.6 4.2 5.1 9.3 12.4 8.8M515.7 96v-.1l-.3-.5.1-.2c5.2-10.6 11.1-16.8 16.3-16.8h.1c5.9 0 9.9 5.4 9.8 12.8 0 5-2.2 7.9-4 9.4-2.2 1.7-5 2.8-7.8 2.8-6.8 0-11.4-4-14.2-7.4zm-1.4 40.4c-.9 1.2-2 1.7-3.4 1.7-1.8 0-3-.7-3.9-1.7-2.4-3.2-1.7-10.8 2.3-24.4.4-1.6.9-3.3 1.4-4.9l.4-1.3.4 1.3c4.7 15.8 5.5 25.7 2.8 29.3zM347 63.9c.2-3.5.4-6.8.8-9.9 2.7-20.1 8.2-34.2 13.5-34.2 2.5 0 3.7 1.8 3.7 5.6-.1 9-5.8 22.1-17.2 38.8l-.9 1.3.1-1.6zm183.6 46h.1c11.1 0 18.8-7.6 19-18.5 0-5.5-1.6-10.4-4.4-13.9-3.1-3.9-7.4-5.9-12.4-5.9h-.2c-6.6 0-13 5.1-19.2 15.8l-.5.8-.3-1c-1.6-4.5-2.9-8.2-3.7-10.5-.7-1.6-.8-2.3-.9-2.5-.3-1.2-1.2-1.9-2.6-1.9-.8 0-1.6.3-2.4.8-.8.4-1.2 1.1-1.4 1.9v.1c-6.2 19.2-11.2 28.7-15.6 28.7-.6 0-1.1-.3-1.5-.7-1.1-1.2-.8-4.3-.4-8.4.3-2.9.5-6.4.4-10-.3-6.9-4-11.2-10.1-11.2-7.9 0-13 8.3-15.2 13.2l-.7 1.5-.1-1.6c-.7-6.2-2.7-13.5-9.2-13.5-7.6 0-13.3 8.9-16.8 16.4l-.9 2v-2.3c.4-10 .8-15.8 1-17.4.3-1.6.2-2.7-.4-3.4-.5-.5-1.4-.8-2.9-.6-2.4.1-3.6 1.6-5.5 6.5-3 8.1-10.8 26.9-17 26.9-1.2 0-2.3-.4-3-1.2-2.6-2.9-1.6-11-.1-22.2l.1-.8c.7-5.4-.5-6.6-3.3-7-.4-.1-.7-.1-.9-.1-2.3 0-3.4 2.1-5.5 8.3-3.9 10.9-8.8 22.4-14.5 22.4-.2 0-.4 0-.7-.2-2.9-.4-2.9-4.9-2.8-10.6 0-3.1 0-6.7-.4-9.9-.9-5.6-4.3-9.2-8.8-9.2-9.1 0-15.1 11.6-18 18.5l-.5 1.5-.3-1.6c-.4-3.1-.9-7.7-1.1-13.3v-.4c17-21.2 24.6-36.7 24.7-49.9.1-8.4-3.7-13.5-10.4-13.5-4.8 0-16.1 4-20.1 41.1C340.4 60 340 67 340 74v.2l-.2.1c-7.7 11.2-24.2 30.5-40.3 30.5-14.7 0-26.3-11.8-26.3-32.8 0-28 19.7-45.2 34.7-45.2h.1c3.2.2 6 1 8 2.7 2.1 1.7 3.2 4.3 3.2 7.1 0 3.8-1.4 5.8-2.6 7.8-.2.4-.5 1-.9 1.5-.3.5-.5 1.3-.1 1.9.4.6 1.4 1.2 2.6 1.2 3.5 0 9-5.2 9-13 .1-8.1-6.8-16.4-18.9-16.4-18.4 0-43.2 20.3-43.2 53.1 0 23.2 14.5 39.2 34.2 39.2 14 0 27.7-10 40-26.8l.8-.9v1.2c.3 6.1.8 10.9 1.1 14.5.2 2.3.4 3.9.4 4.8 0 2 .2 3.3.9 4.1.7 1 1.7 1.4 3.5 1.4 2.6 0 3.2-1.9 4.4-6.6l.2-1.3c1.4-5.6 6.4-23.9 13.9-23.9 1.2 0 2.1.3 2.8 1.1 1.7 1.7 1.6 5.3 1.3 9.6-.1 2.5-.2 5.2 0 7.9.7 7 3.8 10.5 9.4 10.6 5.7 0 11.7-6.2 14.9-12l.7-1 .1 1.2c.7 3 3.2 13.2 11.5 13.2 7.3 0 13.7-7.9 20.6-23.9l1-2.1v2.2c-.2 6.2-.6 13.6-.6 19.4 0 4.4.4 6.1 2.6 6.1h.4c2 0 3.3-1.2 4-3.5 5.3-18.2 9.8-26.8 14.2-26.8 4.4 0 4.8 8 5.2 22.3v1.1c.1 4.9.3 7 3.5 7.2 2.2 0 2.8-1.9 4.1-6.4.1-1 .4-1.9.7-3C465.1 87 468.7 81 473 81c3.7 0 4 3.8 4 5.2.3 2.6-.1 5.6-.4 8.2-.1 2.6-.4 5.2-.4 7.8.3 5.7 3.5 8.9 8.9 8.9 7.1 0 13.5-8.4 19.2-24.8l.4-1.1.4 1.1c1.1 2.5 2.4 6.1 3.6 10.3v.2c-5.4 12.2-9.3 25.6-9.3 32.8-.1 9.4 4.1 15.6 10.9 15.7 3.8 0 12.3-1.5 12.4-15.1.2-5.6-1.2-13.4-3.8-23.2l-.4-1.2 1 .6c3.4 2.3 7.2 3.5 11.1 3.5M164.7 76.7"/></svg>