<svg xmlns="http://www.w3.org/2000/svg" viewBox="-504 217.5 270.7 206.5"><path class="st0" d="M-391.5 352.1c-7.1 0-10.7 3.5-13.5 5.9s-2.4 4.6.4 4.6 6.2-8.8 12.4-8.8c5.3 0 5.3 4.6 5.3 8.5v3.6c0 4.3-5.2 2.9-12.1 5.4-5.1 1.8-10.7 4.8-10.7 12.4s6.6 10 11.2 10 8.6-2.4 9.8-3.5c1.3-1.1 1.8-.7 2.3.1.5.8.6 3.1 2.8 3.1 2.3 0 2.6-1.4 2.6-1.4v-29.7c0-5.6-3.4-10.2-10.5-10.2zm4.6 19.4v14.4c0 2.3-5.4 5.1-8.6 5.1s-8.2-1.3-8.2-7.2 5-9 7.5-10.3c3.8-2 6.6-3 8-3 1.3 0 1.3 1 1.3 1zM-314.1 352.1c-7.1 0-10.7 3.5-13.5 5.9s-2.4 4.6.4 4.6 6.2-8.8 12.4-8.8c5.3 0 5.3 4.6 5.3 8.5v3.6c0 4.3-5.2 2.9-12.1 5.4-5.1 1.8-10.7 4.8-10.7 12.4s6.6 10 11.2 10 8.6-2.4 9.8-3.5c1.3-1.1 1.8-.7 2.3.1.5.8.6 3.1 2.8 3.1 2.3 0 2.6-1.4 2.6-1.4v-29.7c0-5.6-3.4-10.2-10.5-10.2zm4.5 19.4v14.4c0 2.3-5.4 5.1-8.6 5.1s-8.2-1.3-8.2-7.2 5-9 7.5-10.3c3.8-2 6.6-3 8-3 1.4 0 1.3 1 1.3 1zM-417.8 348.2v-.7c0-2.4-1-6-5.1-6s-4.7 3.3-4.7 3.3-12.1 39.4-12.6 40.8-1.1.4-1.1.4-10.2-37-10.9-38.5c-.7-1.6-1.8-6-6.7-6s-4.6 4.7-4.6 4.7v46c0 .7.5 1.2 1.2 1.2h.8c.6 0 1.2-.5 1.2-1.2v-41.1-.1c0-3.5.2-3.9.9-3.9s1.2 1.8 1.2 1.8 9.8 32.9 11.6 38.4c1.8 5.4 2.6 6.1 4.4 6.1s3.3-3.3 3.3-3.3 8.8-28 10.5-33.8c1.4-4.7 2.6-9.1 3.7-9.1.3 0 .9.1.9 2.3V391.7c0 .7.8 1.8 3 1.8 2.7 0 3-1.4 3-2v-43.3zM-339.7 364.2c0-11.5-8.6-12.1-11.9-12.1s-10.3 3.9-11.1 3.9c-.4 0-.5-.3-.6-.6v-.5c0-1.6-1.3-2.9-3-2.9s-3 1.3-3 2.9v35.8c0 1.6 1.3 2.9 3 2.9 1.6 0 3-1.3 3-2.9v-30.5c0-.1.1-.2.1-.3 0-1.7 5.6-5.3 11.4-5.3s6.1 6.4 6.1 6.4v29.7c0 1.6 1.3 2.9 3 2.9s3-1.3 3-2.9v-24.5-2zM-279 370.1s-9.1-2.6-9.1-8.4c0-7 4.4-7.9 6.4-7.9 0 0 2.5-.3 4.7 1.7 2.1 2.1 2.6 3.5 4.3 3.5s2.7-2.9-.4-4.9c-3.1-2.1-5.5-2.1-8.6-2.1s-11.9 2-11.9 10.4 9.3 11.4 10.7 12.1c0 0 8 3.1 8 8.5 0 5.8-3.7 8.6-6.9 8.6-4.1 0-5.4-1.5-7.5-3.6s-2.3-3.3-4-3.3-2.8 2.3-.1 4.9c2.1 2 5.1 4.1 12.1 4.1 3.1 0 11.9-3 11.9-11.4-.1-8.6-9.6-12.2-9.6-12.2zM-379.6 262.1s-20.3-22.5-47.4-22.5-44.2 20.2-44.2 44.1v4.8s2-18.5 24.7-30.6c22.7-12.1 59.4-1.8 66.9 4.2zM-352.3 306.3s20.3 22.5 47.4 22.5 44.2-20.2 44.2-44.1V280s-2 18.5-24.7 30.6c-22.7 12-59.4 1.7-66.9-4.3z"/><path class="st0" d="M-303.6 240c-12.7 0-27.8 2.7-59.4 17.6-31.7 14.8-50.1 25.1-70.3 25.1-20.2 0-22.9-12.4-22.9-12.4s-11.2 8.5-11.1 24.2c0 15.7 15.4 34.1 38.6 34.1s49.5-14.2 63.9-20.9c14.5-6.7 46.5-22.7 65.5-22.7s22.6 13 22.6 13 11.2-5.7 11.1-23.5c0-25.4-25.3-34.5-38-34.5zm-46.5 28.3c2.8 2 3.1 6.2 1.3 6.4-1.8.2-2.6-2.6-3.5-4.3-.9-1.7-4.3-5.1-4.3-5.1 2 .2 3.7 1 6.5 3zm-19.3.1c.3 1 .9 2.3 1.6 1.7s1.6-1.9 1.6-1.9 1 2.4 1.5 3.3.5 4.9-1.6 4.6c-2-.2-4-3.6-4.3-5.4s-.3-4.3-.3-4.3 1.1 1 1.5 2zm-20.7 25.2c-1.6-1.8.8-4.7 1.9-6.9 1.1-2.2 2.2-8.4 2.2-8.4 1.4 2.2 1.8 4.6 1.8 9.2-.1 4.5-4.3 7.9-5.9 6.1zm40.6-2.1c-3.3 1.1-17.8 4.9-23.3 1-4.1-2.8-5.5-5.9-4.9-13.6.7-7.7 2.1-5.9 2-1 0 0-.1 8.3 1.8 10s6.3 2.6 12 2.6 9.1-2.4 8.3-5.5c-.8-3.2-1.1-5-1.1-5s2.5 2.6 4.6 5.4c2.2 2.8 3.9 5 .6 6.1z"/></svg>