<svg xmlns="http://www.w3.org/2000/svg" viewBox="0 0 244 60"><path d="M32.1 8c-10.54 0-19.06 8.52-19.06 19.06 0 3.97 1.21 7.64 3.28 10.69l-4.16 4.16 5.34 5.34 4.21-4.21c2.99 1.95 6.56 3.09 10.39 3.09 3.82 0 7.37-1.14 10.35-3.07l3.95 3.95 5.34-5.35-3.88-3.87c2.08-3.05 3.3-6.75 3.3-10.73C51.16 16.69 42.9 8.26 32.6 8h-.5zm0 6.31c7.03 0 12.76 5.72 12.76 12.75S39.13 39.81 32.1 39.81c-2.07 0-4.03-.51-5.77-1.39l4.12-4.12-5.34-5.34-.35.35-3.85 3.85c-.99-1.81-1.56-3.89-1.56-6.1 0-7.03 5.73-12.75 12.75-12.75zm0 9.1c-2.02 0-3.65 1.63-3.65 3.65s1.63 3.65 3.65 3.65 3.66-1.63 3.66-3.65-1.64-3.65-3.66-3.65zm186.2-9.34c-4 0-7.3 1.32-9.8 3.97-2.5 2.62-3.8 6.07-3.8 10.35 0 4.28 1.3 7.74 3.8 10.39 2.5 2.62 5.8 3.93 9.8 3.93 3.1 0 5.7-.8 7.9-2.4l2.7 2.25 2.9-3.51-2.4-2c1.6-2.47 2.4-5.35 2.4-8.66 0-4.28-1.2-7.73-3.8-10.35-2.5-2.65-5.7-3.97-9.7-3.97zm-148.39.55l-3.7 27.54h3.93l2.6-20.81 7.63 14.28 7.48-14.28 2.6 20.81h3.93l-3.66-27.54H87.5l-7.16 13.65-7.24-13.65h-3.19zm126.89 0v27.54h5V14.62h-5zm21.5 4.29c2.6 0 4.6.86 6 2.59 1.3 1.74 2 4.03 2 6.89 0 1.99-.3 3.73-1 5.19l-3.5-2.91-2.9 3.5 3.3 2.8c-1.1.6-2.4.9-3.9.9-2.6 0-4.6-.86-6-2.59-1.4-1.74-2.1-4.03-2.1-6.89 0-2.86.7-5.15 2.1-6.89 1.4-1.73 3.4-2.59 6-2.59zm-114 3.58c-2.6 0-4.76.67-6.49 2l.51 2.88c1.68-1.16 3.38-1.74 5.08-1.74 1.5 0 2.5.32 3.2.95.7.6 1 1.77 1 3.5-1.4 0-2.7.16-3.9.39-1.3.21-2.5.56-3.7 1.03-1.17.47-2.12 1.18-2.86 2.12-.71.95-1.06 2.06-1.06 3.35 0 1.63.54 2.96 1.61 4.01 1.1 1.05 2.51 1.58 4.31 1.58 2.3 0 4.3-.95 5.9-2.84.5 1.03 1 1.76 1.6 2.21.7.42 1.8.63 3.4.63h.3l.5-2.84h-.3c-1 0-1.6-.29-1.9-.86-.2-.61-.4-1.67-.4-3.19v-3.94c0-3.43-.5-5.83-1.5-7.2-1-1.36-2.8-2.04-5.3-2.04zm21 0c-2.4 0-4.5.81-6.3 2.44l-.4-2.05h-2.8v19.28h3.5V28.15c1-1.67 2.7-2.52 5.3-2.52 1.8 0 3.1.48 3.9 1.42.8.92 1.2 2.41 1.2 4.49v10.62h3.5V31.54c0-6.04-2.6-9.05-7.9-9.05zm18.5 0c-2.6 0-4.8.67-6.5 2l.5 2.88c1.6-1.16 3.3-1.74 5-1.74 1.5 0 2.6.32 3.2.95.7.6 1 1.77 1 3.5-1.3 0-2.6.16-3.9.39-1.2.21-2.4.56-3.6 1.03-1.2.47-2.2 1.18-2.9 2.12-.7.95-1.1 2.06-1.1 3.35 0 1.63.6 2.96 1.6 4.01 1.1 1.05 2.6 1.58 4.4 1.58 2.3 0 4.2-.95 5.9-2.84.4 1.03.9 1.76 1.6 2.21.6.42 1.7.63 3.3.63h.3l.5-2.84h-.3c-1 0-1.6-.29-1.8-.86-.3-.61-.4-1.67-.4-3.19v-3.94c0-3.43-.5-5.83-1.6-7.2-1-1.36-2.8-2.04-5.2-2.04zm18.5 0c-2.5 0-4.4.73-5.8 2.2-1.4 1.47-2.1 3.32-2.1 5.55 0 2.57 1.1 4.67 3.4 6.3-.8.39-1.4.86-1.8 1.41-.3.53-.5 1.01-.5 1.46 0 1 .7 1.81 2 2.44-2.3.81-3.5 2.25-3.5 4.33 0 1.52.8 2.87 2.2 4.05 1.5 1.18 3.8 1.77 6.9 1.77 3 0 5.3-.6 7-1.81 1.8-1.18 2.6-2.6 2.6-4.25 0-.71-.2-1.36-.5-1.97-.4-.57-.8-1.05-1.4-1.41-.5-.34-1.1-.66-1.9-.95-.8-.29-1.5-.5-2-.63-.6-.13-1.3-.26-2-.39-2.5-.42-4.2-.75-4.9-.98-.8-.24-1.1-.59-1.1-1.07 0-.42.3-.81.9-1.18.8.24 1.8.36 2.8.36 2.4 0 4.3-.76 5.6-2.29 1.5-1.52 2.2-3.31 2.2-5.39 0-1.65-.6-3.18-1.8-4.6.8-.18 1.5-.28 2.3-.28h.9l.4-2.36h-.3c-1.7 0-3.3.37-4.7 1.1a8.97 8.97 0 0 0-4.9-1.41zm19.6 0c-2.8 0-5.1.94-6.8 2.83-1.7 1.89-2.6 4.24-2.6 7.05 0 2.91.9 5.33 2.8 7.27 1.8 1.95 4.4 2.92 7.6 2.92 2.1 0 4.3-.5 6.5-1.5l-.5-2.79c-1.7.76-3.5 1.14-5.5 1.14-4.4 0-6.8-2.3-7.3-6.89h14c.1-.6.1-1.23.1-1.89 0-2.54-.7-4.53-2.3-5.98-1.5-1.44-3.5-2.16-6-2.16zm-19.6 2.83c1.4 0 2.5.42 3.4 1.26.9.81 1.3 1.95 1.3 3.42 0 1.45-.4 2.64-1.2 3.58-.8.95-2 1.42-3.4 1.42-1.3 0-2.5-.43-3.3-1.3-.9-.89-1.3-2.08-1.3-3.58 0-1.44.4-2.6 1.2-3.46.8-.89 1.9-1.34 3.3-1.34zm19.6.31c1.5 0 2.7.4 3.5 1.19.8.78 1.2 1.87 1.2 3.26h-10.2c.8-2.96 2.6-4.45 5.5-4.45zm-74.3 6.89v4.61c-.6.78-1.3 1.41-2.2 1.88-.9.48-1.8.71-2.7.71-2 0-3-.98-3-2.95 0-1.44.6-2.48 1.8-3.11 1.2-.65 3.3-1.03 6.1-1.14zm39.4 0v4.61c-.5.78-1.3 1.41-2.2 1.88-.8.48-1.7.71-2.7.71-2 0-3-.98-3-2.95 0-1.44.6-2.48 1.8-3.11 1.3-.65 3.3-1.03 6.1-1.14zm13.5 10.19c1.9.32 3.1.48 3.5.48 3.4.63 5.2 1.62 5.2 2.99 0 .81-.6 1.52-1.6 2.12-1.1.63-2.5.95-4.4.95-1.8 0-3.2-.31-4.2-.91-1.1-.58-1.6-1.32-1.6-2.24 0-.68.3-1.35.9-2.01.6-.66 1.3-1.11 2.2-1.38z"/></svg>