<svg xmlns="http://www.w3.org/2000/svg" viewBox="0 0 241.87 92.502"><path d="M215.39 63.403c-.51 0-.9.09-1.18.26-.24.08-.45.19-.63.34v-.475h-1.17v6.78h1.17v-3.484c0-.4 0-.78.1-.94l.18-.52c.17-.298.33-.446.59-.548v-.02c.19-.14.49-.213.89-.213.53 0 .94.146 1.23.434.28.334.39.786.39 1.563v3.733h1.18v-3.856c0-1.008-.22-1.718-.68-2.248-.54-.54-1.21-.803-2.06-.803m-7.67 5.974c-.68 0-1.19-.212-1.67-.686a2.582 2.582 0 0 1-.64-1.744 2.6 2.6 0 0 1 .63-1.738c.47-.466.98-.693 1.56-.693.68 0 1.26.216 1.67.63.47.466.7 1.034.7 1.737 0 .675-.22 1.262-.64 1.747-.46.508-.96.747-1.61.747m-.1-6.04c-.97 0-1.81.367-2.44 1.058-.69.763-1.04 1.62-1.04 2.552 0 .944.36 1.807 1.04 2.49.64.7 1.48 1.055 2.5 1.055.97 0 1.81-.364 2.44-1.056.69-.764 1.05-1.622 1.05-2.553 0-.946-.37-1.807-1.05-2.496-.72-.714-1.51-1.05-2.5-1.05m-5.62-.192h1.18v-1.675h-1.18v1.675zm0 7.16h1.18v-6.78h-1.18v6.78zm-2-8.835h-1.24v2.055h-1.18v1.24h1.18v5.54h1.24v-5.54h1.19v-1.24h-1.19v-2.055zm-4.6 5.415c0 .55 0 .912-.1 1.137-.1.227-.11.384-.2.475v.06c-.1.25-.3.473-.52.582-.3.123-.59.237-.92.237-.56 0-.95-.16-1.23-.495-.28-.33-.4-.782-.4-1.5v-3.86h-1.18v3.92c0 1.015.25 1.75.74 2.237.47.546 1.15.81 2.07.81.51 0 .9-.09 1.21-.276.2-.123.38-.253.53-.394v.485h1.18v-6.78h-1.18v3.358zm-7.1 3.42h1.18v-8.835h-1.18v8.836zm-4.49-.927c-.65 0-1.22-.243-1.61-.692-.47-.467-.7-1.033-.7-1.738 0-.7.23-1.274.71-1.75.4-.46.9-.68 1.54-.68.63 0 1.21.22 1.61.63.47.466.7 1.034.7 1.737 0 .675-.22 1.262-.64 1.747-.46.508-.97.747-1.61.747m-.1-6.04c-.97 0-1.81.367-2.44 1.058-.69.763-1.05 1.62-1.05 2.552 0 .944.37 1.807 1.05 2.49.63.7 1.48 1.055 2.5 1.055 1 0 1.79-.344 2.44-1.05.7-.704 1.05-1.542 1.05-2.558 0-.946-.37-1.807-1.05-2.49-.64-.7-1.48-1.057-2.5-1.057m-5.22 3.14c-.1-.07-.27-.122-.59-.198-.1-.03-.16-.06-.24-.09-.17-.06-.32-.116-.38-.178l-.1-.04a.396.396 0 0 1-.27-.22c0-.05-.11-.227-.11-.415a.9.9 0 0 1 .2-.556c.13-.13.32-.197.56-.197.28 0 .45.06.53.17v.05c.14.1.23.297.23.534v.187h1.24v-.186c0-.58-.19-1.078-.55-1.437-.34-.33-.8-.49-1.44-.49-.56 0-1.1.206-1.44.552-.41.406-.62.89-.62 1.44 0 .518.18.873.35 1.166.21.274.71.54 1.51.808l.1.02c.37.158.63.274.72.452v.07c.12.07.17.248.17.53 0 .333-.1.542-.26.68-.17.177-.39.258-.68.258-.23 0-.49-.14-.68-.382-.22-.22-.32-.488-.32-.866v-.185h-1.25v.2c.1.746.28 1.28.66 1.66.39.457.92.687 1.57.687.64 0 1.12-.18 1.63-.613.41-.413.61-.905.61-1.502 0-.454-.12-.87-.33-1.15-.21-.334-.47-.545-.94-.752m-7.71-2.812c-.16.08-.29.195-.42.325v-.472h-1.11v6.78h1.17v-4.043c0-.522.11-.906.35-1.153.14-.227.42-.345.99-.408l.16-.02v-1.22h-.19c-.38 0-.66.06-.95.208m-6.27.847c.64 0 1.16.173 1.51.523.36.258.62.71.76 1.288h-4.35c.13-.535.35-.943.71-1.305.34-.34.79-.506 1.37-.506m.1-1.18c-.93 0-1.73.344-2.43 1.052-.66.653-.99 1.514-.99 2.558 0 .974.33 1.835.99 2.557.67.675 1.46.988 2.49.988a3.5 3.5 0 0 0 1.98-.596c.53-.398.98-.985 1.3-1.69l.12-.262h-1.33v.09c-.25.443-.54.777-.87.995-.34.23-.75.343-1.21.343-.58 0-1.15-.238-1.5-.64-.41-.362-.64-.807-.67-1.36h5.72v-.245c0-1.1-.33-2.02-.99-2.743a3.508 3.508 0 0 0-2.56-1.052m-5.32-1.862h-1.18v2.055h-1.24v1.24h1.24v5.54h1.18v-5.54h1.25v-1.24h-1.25v-2.055zm-4.05 0H154v2.055h-1.24v1.24H154v5.54h1.18v-5.54h1.24v-1.24h-1.24v-2.055zm-6.54 3.046c.59 0 1.1.178 1.51.523.32.23.55.63.74 1.288h-4.41c.1-.52.29-.927.66-1.296.4-.336.91-.515 1.5-.515m.1-1.18c-.97 0-1.79.344-2.49 1.044-.71.648-1.06 1.485-1.06 2.566 0 1.014.35 1.85 1.06 2.557.64.647 1.5.988 2.49.988.72 0 1.38-.197 1.97-.592.54-.357.94-.88 1.31-1.693l.12-.262h-1.34l-.1.113c-.17.398-.46.746-.8.978-.34.23-.75.343-1.21.343-.6 0-1.13-.208-1.61-.63-.36-.36-.59-.818-.67-1.368h5.77v-.246c0-1.072-.31-1.99-.93-2.744a3.508 3.508 0 0 0-2.56-1.052m-5.58 3.548c0 .666-.21 1.26-.63 1.8-.48.48-1 .694-1.68.694-.57 0-1.09-.237-1.48-.687-.48-.543-.7-1.065-.7-1.682 0-.673.21-1.262.64-1.747.45-.51.96-.747 1.6-.747.63 0 1.15.217 1.61.68.42.48.64 1.064.64 1.688m-2.25-3.484c-.54 0-1.07.136-1.53.405-.21.14-.47.327-.71.59v-2.927h-1.18v8.837h1.19l-.1-.826c.22.218.46.42.76.614.45.26.98.397 1.52.397.99 0 1.78-.332 2.5-1.048.66-.664.99-1.464.99-2.434 0-1.042-.34-1.902-.99-2.554-.65-.72-1.44-1.056-2.5-1.056m77.96-26.782c-.7-1.663-1.8-2.995-3.36-4.08-1.54-1.003-3.3-1.51-5.25-1.51-1.88 0-3.66.46-5.28 1.368-1.32.735-2.49 1.696-3.57 2.91V22h-4.21v35.66h4.21v-9.64c0-3.41.14-5.59.42-6.666.47-1.814 1.42-3.3 2.88-4.532 1.56-1.246 3.12-1.826 4.93-1.826 1.54 0 2.82.385 3.79 1.125.96.843 1.62 2.015 1.96 3.488.24.953.36 2.86.36 5.672v12.38h4.22V44.286c0-3.383-.38-6.037-1.1-7.663m-26.32 16.15l.27-.41-3.34-2.196-.28.355c-2.21 2.806-5.01 4.172-8.58 4.172-1.9 0-3.65-.42-5.19-1.25-1.52-.82-2.7-1.98-3.6-3.55a9.68 9.68 0 0 1-1.31-4.923c0-2.652.96-4.92 2.84-6.75 1.98-1.918 4.35-2.85 7.26-2.85 3.6 0 6.49 1.422 8.58 4.224l.26.364 3.34-2.118-.24-.408c-.74-1.224-1.7-2.3-2.86-3.187-1.07-.817-2.4-1.474-4.07-2.005-1.52-.505-3.2-.772-4.89-.772-2.8 0-5.22.59-7.38 1.8-2.17 1.15-3.93 2.82-5.25 4.985-1.25 2.253-1.86 4.55-1.86 7.027 0 3.67 1.36 6.867 4.07 9.505 2.63 2.57 6.06 3.874 10.17 3.874 2.64 0 5.02-.52 7.07-1.546 2.11-1.058 3.79-2.517 4.99-4.343m-52.06-10.72c.6-1.892 1.47-3.342 2.6-4.314 1.67-1.487 3.69-2.24 6.03-2.24 1.37 0 2.73.298 4.03.89a8.33 8.33 0 0 1 3.07 2.366c.71.814 1.26 1.923 1.62 3.3h-17.35zm8.75 16.61c1.98 0 3.65-.277 5.09-.843 1.53-.574 2.88-1.397 4.15-2.53 1.2-1.13 2.29-2.644 3.15-4.37l.22-.424-3.51-1.875-.24.39c-.93 1.508-1.84 2.703-2.62 3.422-.99.772-1.93 1.3-2.98 1.67-1.09.4-2.25.592-3.57.592-2.48 0-4.59-.872-6.25-2.592-1.6-1.656-2.49-3.765-2.64-6.27h22.53v-.497c-.1-3.516-1.05-6.507-2.91-8.89-2.66-3.3-6.22-4.975-10.6-4.975-4.31 0-7.77 1.633-10.28 4.85-2.01 2.52-3.03 5.47-3.03 8.774 0 3.512 1.19 6.68 3.54 9.412 2.41 2.795 5.66 4.155 9.96 4.155m-33.56-26.123a9.616 9.616 0 0 0-5.24-1.505c-1.91 0-3.65.424-5.35 1.306-1.3.733-2.47 1.696-3.5 2.876v-3.56h-4.22V57.6h4.22v-9.643c0-3.354.14-5.532.42-6.66.48-1.83 1.46-3.336 2.9-4.49 1.37-1.2 3-1.81 4.84-1.81 1.6 0 2.87.375 3.88 1.143.95.73 1.58 1.858 1.94 3.475.24.89.36 2.773.36 5.603V57.6h4.21V44.286c0-3.406-.36-6.006-1.1-7.732-.74-1.696-1.87-3.046-3.36-4.016m-31 5.3c1.77 1.827 2.667 4.145 2.667 6.884 0 1.913-.386 3.5-1.184 4.868a8.657 8.657 0 0 1-3.424 3.422c-3.08 1.726-6.36 1.75-9.36 0-1.432-.8-2.573-1.963-3.483-3.54-.83-1.54-1.25-3.157-1.25-4.81 0-1.69.43-3.35 1.243-4.8.874-1.514 1.997-2.66 3.444-3.504 1.378-.86 2.947-1.297 4.663-1.297 2.63 0 4.816.91 6.684 2.776m2.54-2.496c-1.065-1.228-2.284-2.216-3.643-2.95-1.743-.9-3.704-1.358-5.83-1.358-3.71 0-6.887 1.327-9.436 3.94-2.614 2.614-3.94 5.854-3.94 9.624 0 3.726 1.302 6.983 3.874 9.68 2.555 2.62 5.73 3.947 9.44 3.947 2.11 0 3.972-.404 5.707-1.237a14.447 14.447 0 0 0 3.83-2.88v3.495h4.217V31.654H87.13v3.687zM56.2 32.42c-1.364-.91-3.03-1.39-4.818-1.39-1.974 0-3.8.528-5.436 1.574-1.427.933-2.623 2.18-3.64 3.796-.497-1.137-.975-1.952-1.51-2.583-.68-.802-1.61-1.477-2.874-2.07-1.26-.488-2.422-.716-3.663-.716-1.802 0-3.652.518-5.366 1.507-.892.564-1.774 1.376-2.674 2.466v-3.35H22V57.6h4.216V46.526c0-3.034.3-5.295.896-6.722.613-1.473 1.517-2.615 2.693-3.4 2.162-1.51 4.91-1.71 6.92-.37.824.552 1.39 1.325 1.74 2.373.354 1.002.534 3 .534 5.94V57.6h4.215V47.337c0-3.47.3-5.988.902-7.487.533-1.423 1.418-2.585 2.616-3.44 1.282-.855 2.635-1.29 4.024-1.29 1.163 0 2.182.29 3.017.843.843.604 1.435 1.346 1.756 2.202.24.645.53 2.102.53 5.37V57.6h4.216V43.476c0-3.185-.317-5.524-.97-7.157-.66-1.65-1.707-2.964-3.108-3.897m80.982-9.545h-19.41v4.275h7.53v43.338h4.34V27.15h7.54v-4.275z"/></svg>