<svg xmlns="http://www.w3.org/2000/svg" viewBox="0 0 599 183"><path d="M16 14v122.4h18V35.6l36 61.2 36-61.2v100.8h18V14h-14.4c-7.2 0-12.9 1.8-16 7.2L70 61.3l-23.6-40c-3.2-5.4-8.8-7.2-16-7.2C30.4 14 16 14 16 14zm315 0v124.2h34.2c25.2 0 45-19.8 45-46.8 0-27-19.8-46.8-45-46.8-5.7 0-10.3-.2-16.2-.2V14h-18zM181.6 44.6c-25.2 0-43.2 19.8-43.2 46.8s18 46.8 43.2 46.8h43.2V91.4c0-27-18-46.8-43.2-46.8zm57.6 0v124.2h18v-30.5c5.9 0 10.5-.1 16.2-.1 25.2 0 45-19.8 45-46.8s-19.8-46.8-45-46.8h-34.2zm226.8 0c-24.9 0-45 21-45 46.8s20.1 46.8 45 46.8 45-21 45-46.8-20.1-46.8-45-46.8zm43.1 1.8L540.4 90l-33 46.3h22l22-30.9 22.1 30.9h22l-33-46.3 31.3-43.7h-22.2l-20.2 28.2-20.2-28.2c0 .1-22.1.1-22.1.1zM181.6 62.6c14.4 0 25.2 12.4 25.2 28.8v28.8h-25.2c-14.4 0-25.2-12.6-25.2-28.8 0-16.2 10.8-28.8 25.2-28.8zm75.6 0h16.2c16.4 0 27 13.7 27 28.8 0 15.1-11.8 28.8-27 28.8h-16.2V62.6zm91.8 0h16.2c15.2 0 27 13.7 27 28.8 0 15.1-10.6 28.8-27 28.8H349V62.6zm117 0c14.9 0 27 12.9 27 28.8s-12.1 28.8-27 28.8-27-12.9-27-28.8 12.1-28.8 27-28.8z"/></svg>