<svg xmlns="http://www.w3.org/2000/svg" viewBox="0 0 1097 489"><path d="M1036.5 372.57c2 2.12 3.1 4.62 3.1 7.51 0 2.97-1.1 5.51-3.2 7.63-2.1 2.11-4.6 3.16-7.5 3.16-3 0-5.5-1.05-7.6-3.15-2.1-2.1-3.1-4.65-3.1-7.65 0-2.89 1-5.4 3.1-7.51 2.1-2.16 4.6-3.23 7.6-3.23 2.9 0 5.4 1.08 7.6 3.24zm1.5-1.65c-2.5-2.53-5.5-3.8-9.1-3.8-3.4 0-6.4 1.17-8.9 3.52-2.7 2.51-4.1 5.65-4.1 9.44 0 3.64 1.3 6.71 3.8 9.21 2.5 2.5 5.5 3.74 9.2 3.74 3.5 0 6.5-1.22 9.1-3.66 2.5-2.52 3.8-5.62 3.8-9.3 0-3.57-1.2-6.62-3.8-9.15zm-7.5 8.17c-.5.35-1.2.53-2.1.53h-1.4v-4.17h.9c.9 0 1.6.1 2.2.3.7.31 1.1.85 1.1 1.63 0 .79-.2 1.36-.7 1.71zm-3.5 3.11h.8l.8.1c.6 0 1 .11 1.3.23.5.2.8.55 1 1.05.1.3.2.89.3 1.76 0 .87.1 1.53.2 1.99h3.6l-.1-.41c-.1-.14-.1-.28-.1-.42-.1-.14-.1-.28-.1-.42v-1.28c0-1.46-.4-2.54-1.2-3.22-.5-.36-1.2-.64-2.1-.83 1-.1 1.8-.43 2.5-.97s1-1.41 1-2.62c0-1.58-.6-2.72-1.9-3.43-.8-.41-1.7-.65-2.8-.74h-7v14.36h3.8zm-680.82-41.71c1.12-15.48 9.57-30 23.94-37.81 14.2-8.78 30.79-12.29 45.47-19.95 2.55-2.07 5.74-4.63 5.9-7.98.16-4.15-1.92-7.34-5.58-8.78-22.34-4.79-40.85 9.25-57.12 23.14 2.07-10.21 3.67-21.38 8.46-30.95 2.39-2.55 3.83-6.06 7.02-7.98 15.8-7.82 35.58-10.05 53.29-8.78 14.52.96 27.92 11.33 32.87 24.57 2.55 6.22 2.39 13.24 2.87 19.63l.16 86.48c.16 7.5 3.67 14.52 8.14 20.58h-41.33c-4.95-4.47-7.38-10.05-8.77-17.07-11.57 10.21-35.7 25.37-50.1 15.32-14.93-6.69-28.57-29.19-25.22-50.42zm73.23-30.07c-.32-5.98-4.63-6.62-7.66-6.62-9.89 1.44-18.41 9.71-23.14 18.19-4.23 7.58-5.23 13.96-5.58 20.58 0 7.14-.48 12.45 2.39 17.87 1.6 3.51 5.11 5.11 8.46 6.06 6.38 1.28 12.29-.48 17.23-3.83 11.65-6.54 9.57-19.63 9.73-31.27zm-251.62-7.58l-15.1 30.89c-10.25 18.23-24.64 40.59-46.71 46.14-8.54 2.99-16.09.29-24.35-.29L55 423.16c1.99 2.14 4.8 3.94 7.55 4.99 46.85 17.87 65.72-1.35 111.86-105.6l43.58 92.85h58.03l-27.41-62.66 15.52-32.4L307 413.97l55.54.36-97.19-213.61-44.77 22.25 35.09 79.71-15.38 31.33-64.3-138.81-47.17 24.03zm312.58-41.89c-.26-8.59-1.84-12.37-5.27-17.15l41.33.16c3.35 2.39 3.51 6.54 5.27 9.73l7.02-5.59c7.98-6.7 22.02-6.86 31.11-2.55 3.83 1.92 7.5 4.47 9.89 7.82l-17.55 27.28c-2.24-1.76-3.83-2.55-6.7-3.99-8.7-3.75-17.87-1.56-23.14 3.19v79.62c-.12 13.76 2.28 26.33 9.42 32.87h-39.89c-8.3-6.38-10.66-15.89-11.17-25.53zm398.26 131.72c-12.37-6.46-14.28-24.73-14-69.13l.28-68.05h-23.46l5.27-12.6h18.19v-32.23l43.56-16.12v47.27h19.97l-5.27 13.96h-14.68l-.1 117.78c.96 9.49 4.15 15.08 8.7 19.15h-38.46zM737.9 275.4c4.15-11.49 17.07-17.24 26.49-23.46 14.36-5.27 30.16-18.35 46.27-7.66 13.4 8.78 25.21 18.67 33.67 32.23 2.07 5.26 3.03 11.17 4.47 16.75 0 7.5 1.59 13.09 1.44 20.58.48 8.14.48 15.48 0 23.46-.48 13.56-6.86 25.69-17.55 35.1-15.96 14.2-36.06 30.32-57.76 19.31-19.46-9.1-42.44-27.13-41.01-51.86-.8-17.55-1.59-32.71.8-49.79.94-4.93.47-10.36 3.18-14.66zm39.89 79.77c1.92 7.02 5.59 15.64 14.04 16.59 4.95.16 8.62-3.99 11.49-7.5 8.94-17.55 7.66-36.7 7.66-56.64-2.87-14.84.64-35.1-15.32-44.2-5.58-2.08-9.89 1.76-13.4 5.26-6.22 9.42-6.94 20.19-7.34 32.15-2.08 19.16.16 35.04 2.87 54.34zm-100.53-80.89c-.32-10.05 1.92-22.1-4.67-30.79h38.33c2.55 1.91 3.99 5.1 4.78 8.14 2.08 2.71 1.92 6.54 2.87 9.73l.32 112.81c1.6 6.7 4.15 13.48 9.1 18.75l-41.01.1c-13.4-12.97-9.01-34.31-10.05-56.33zm-50.42-26.17c7.98-6.7 22.02-6.86 31.11-2.55 3.83 1.92 7.5 4.47 9.89 7.82l-17.55 27.28c-2.23-1.76-3.83-2.55-6.7-3.99-8.7-3.75-17.87-1.56-23.14 3.19v79.62c-.12 13.76 2.27 26.33 9.42 32.87h-39.89c-8.3-6.38-10.37-16.59-11.17-25.53l-.32-105.87c.36-8.58-1.84-12.37-5.27-17.15l41.33.16c3.35 2.39 3.51 6.54 5.27 9.73zm5.59-82.58c25.33-38.35 3.98-101.312-50.58-110.142zm-26.77 28.04c2.53-1.12 7.64-3.66 8.9-9.08L555 55.318c-3.98-.51-6.87-.87-11.94 2.75zm-22.65 2.42c-5.57 18.74-60.93 6.44-78.29-24.31 22.79 2.53 48.48-17.66 48.92-40.67zm-43.2-94.36c3.33 9.12 10.85 18.52 5.5 29.09-2.6 10.71-12.74 19.39-23.45 21.13-11.15 1.01-21.85-.87-30.1-7.67-5.93-30.97 6.66-59.632 31.12-76.702zm428.02 291.04c-12.37-6.46-14.28-24.73-14-69.13l.28-68.05h-23.46l5.27-12.6h18.19v-32.23l43.56-16.12v47.27h19.93l-5.2 13.96h-14.71l-.1 117.78c.96 9.49 4.11 15.08 8.71 19.15h-38.47z"/></svg>