<svg xmlns="http://www.w3.org/2000/svg" viewBox="0 0 384 69"><path d="M222.6 17.61c-8.1 0-13.6 6.34-13.6 15.04 0 8.33 5 13.56 12.9 13.56 5.1 0 9.1-2.54 10.6-4.96l-.7-.86c-1.7 2.19-5.1 3.79-8.7 3.79-6.4 0-10.2-5.34-10.2-13.29 0-7.65 3.7-11.95 9.8-11.95 4.7 0 7.4 2.4 8.8 7.11h.8l-.3-8.12h-.8c-.3.57-.8.82-1.5.82-1.6 0-3.1-1.14-7.1-1.14zm-201.07.67v.82c1.43.28 3.5.65 3.36 3.79l-.86 16.68c-.19 3.56-1.2 4.87-3.67 5.15v.82h8.75v-.82c-2.66-.47-3.42-1.4-3.28-4.92l.78-16.76 8.75 22.31h1.09l8.56-22.31.82 17.85c.14 2.77-.61 3.6-2.66 3.83v.82h9.85v-.82c-2.43-.23-3.38-1.37-3.52-4.65L48.68 23c-.1-2.47.95-3.52 3.09-3.71v-.86h-6.8l-8.05 20.98-8.2-21.13zm48.71 0v.82c2.95.23 3.13.85 3.13 7.89v9.41c0 7.61-.32 8.09-3.13 8.32v.82h9.77v-.82c-3.1-.42-3.09-.65-3.09-8.83v-1.52l1.29-1.44c3.24 3.99 6.71 8.38 10.47 12.61h15.52v-.82c-2.7-.18-2.8-.14-2.8-6.13V28.55h-6.35v.82c2.75.1 3.08.24 3.08 5v4.18c0 5.98-.1 6.04-2.97 6.17-1.52-.14-3.04-.57-7.85-6.13-1.85-2.19-4.91-5.87-6.72-8.2l5.82-6.49c2.86-3.14 4.41-4.71 7.07-4.8v-.82h-9.14v.82c1.19.23 1.64.67 1.64 1.52 0 .57-.11 1.58-1.87 3.48l-7.19 7.93v-5.12c0-6.99.33-7.43 3.09-7.81v-.82zm29.38 1.09c-1.24 0-2.15.95-2.15 2.19s.91 2.19 2.15 2.19c1.28 0 2.18-.95 2.18-2.19s-.9-2.19-2.18-2.19zm89.68.31c-2.5 0-5.2 1.6-5.2 5.12 0 1.34.4 2.56 1.1 3.99-3.5 1.09-5.3 4.14-5.3 7.61 0 6.33 4.8 9.77 10.2 9.77 3.4 0 6-1.07 8.5-3.17 1.5 1.1 3 2.16 3.9 2.54h5.9v-.82c-1.9-.19-4.8-1.75-7.8-3.98 1.1-1.81 1.4-4.42 1.6-6.37.3-1.66 1.5-1.62 2.3-1.72v-.74h-7.7v.74c1.8.24 3.6.48 3.6 3.28 0 1.48-.3 2.95-.9 3.95-6.8-5.28-13-12.59-13-16.25 0-1.81 1.1-2.66 2.8-2.66 2.2 0 4.3 1.44 5.3 4.3h.8l-.1-5.12h-.8c0 .33-.4.55-.5.55-1 0-2.3-1.02-4.7-1.02zm-55.4 8.52c-3.5 0-5.5 2.19-5.5 4.8 0 5.71 9.7 4.56 9.7 9.22 0 1.57-1.4 2.5-3.9 2.5-2.4 0-4.5-1.29-5.2-4.33h-1c0 1.24.2 3.52.4 3.9.7 1.1 3.4 1.68 5.7 1.68 4 0 6.5-2.35 6.5-5.15 0-6.28-9.7-5.29-9.7-9.34 0-1.43 1.3-2.15 2.9-2.15 3.1 0 4.6 2.95 4.8 3.95h.8c0-2.48-.3-4.03-.5-4.22-.2-.19-2.6-.86-5-.86zm17.9 0c-4.9 0-8.3 3.94-8.3 9.41 0 4.28 2.2 8.4 8.1 8.4 2.4 0 5.3-.98 7-2.73l-.4-.82c-1.6.95-3.3 1.4-5 1.4-4.7 0-6.7-4.23-6.5-8.08h11.9c.2-3.9-1.9-7.58-6.8-7.58zm91.8 0c-5.3 0-9.1 3.87-9.1 8.87 0 3.33 1.4 6.09 3.8 7.61 1.4.91 3.3 1.29 5.3 1.29 5.2 0 9-3.81 9-8.9 0-3.28-1.3-6.02-3.7-7.54-1.5-.91-3.3-1.33-5.3-1.33zm-180.66.12c-5.09 0-8.91 4.56-8.91 9.61 0 3.99 2.24 8.08 8.09 8.08 2.42 0 5.33-.97 6.95-2.73l-.39-.82c-1.57.95-3.3 1.4-4.96 1.4-4.71 0-6.49-3.97-6.49-8.16 0-1.95.47-3.36 1.33-4.22.81-.81 1.95-1.09 3.09-1.09 1.66 0 3.58.65 4.96 2.46h.31c.53-.67 1.05-2.01 1.1-3.01-1.19-.95-2.99-1.48-5.08-1.48zm55.16 0c-2.2 0-4.5 1.04-6.3 3.28v-3.05h-6.4v.82c2.8.1 3.1.24 3.1 5v4.18c0 6.04 0 6.03-3 6.17v.82h9.1v-.82c-2.7-.18-2.8-.14-2.8-6.13v-4.61c0-1.57 2.2-3.52 4.7-3.52 2.1 0 3.8.91 3.8 5v3.4c0 5.67-.2 5.72-2.6 5.86v.82h8.9v-.82c-3-.14-3-.19-3-5.86v-3.79c0-5.13-2.8-6.75-5.5-6.75zm148.4 0c-2.3 0-4.6 1.47-5.9 3.28v-3.05h-6.4v.82c2.8.1 3.1.24 3.1 5v4.84c0 5.48-.1 5.47-2.9 5.51v.82h9v-.82c-2.6-.23-2.8-.24-2.8-5.66v-4.92c0-1.76 2.2-3.68 4.6-3.68 2.6 0 3.7 1.43 3.7 4.81v3.44c0 5.61-.1 5.87-2.5 6.01v.82h8.4v-.82c-2.8-.23-2.7-.48-2.7-5.86V34.1c0-1.71 2.1-3.64 4.7-3.64 2.1 0 3.5 1.29 3.5 4.81v3.91c0 5.13 0 5.36-2.5 5.54v.82h8.9v-.82c-3.1-.14-2.9-.56-2.9-5.51V34.8c0-4.71-2.6-6.48-5.6-6.48-2.7 0-4.9 1.52-6.5 3.71-.6-2.33-2.3-3.71-5.2-3.71zm32.6 0c-2.5 0-4.5 1.15-5.9 2.77v-2.54H287v.82c2.6.1 2.9.26 2.9 5.82v11.6c0 6.05.2 6.5-2.8 6.64v.82h9.1v-.82c-3.2-.1-3-.62-3-6.95v-2.3c1.3 1.28 3.3 1.79 5.1 1.79 5.2 0 8.4-3.84 8.4-8.98 0-4.95-3.2-8.67-7.6-8.67zm16.6 0c-1.9 0-4.6.67-6.1 1.95.1.81.8 2.38 1.3 2.85l.4-.1c.8-1.85 2.1-3.2 4.1-3.2 2.3 0 3.2 1.58 3.2 3.44v1.95c0 1.28-5.7 1.53-8 3.48-.8.71-1.4 1.61-1.4 2.85 0 2.66 1.9 4.41 4.7 4.41 1.7 0 3.2-.58 4.8-2.34.3 1.23 1.3 1.91 2.9 1.91h12.9v-.82c-2.7-.18-2.8-.14-2.8-6.13v-4.61c0-1.57 2.1-3.52 4.7-3.52 2.1 0 3.8.91 3.8 5v3.4c0 5.67-.2 5.72-2.7 5.86v.82h9v-.82c-3-.14-3.1-.19-3.1-5.86v-3.79c0-5.13-2.7-6.75-5.5-6.75-2.1 0-4.5 1.04-6.2 3.28v-3.05h-6.4v.82c2.8.1 3.1.24 3.1 5v4.18c0 6.04 0 6.03-3 6.17h-.7c-2.4 0-2.7-.8-2.7-4.18v-5.7c0-1.09-.1-2.08-.4-2.89-.8-2.66-2.9-3.63-5.9-3.63zm-156.3.47v.82c1.9.1 2.1.37 4.7 6.17l4.5 9.84c-1.6 3.9-3.9 6.02-8.7 7.11.2.81 1.1 2.23 1.6 2.66 6.3-2.57 7.5-6.76 9.8-13.09l3.3-9.61c.8-2.19 2-3.08 3.2-3.08v-.82h-6.2v.82c1.5.1 2.3.91 1.7 2.57l-3.3 9.65-3.1-7.46c-.9-2.04-1.2-2.84-1.2-3.55 0-.67.4-1.07 1.6-1.21v-.82zm185.8 0v.82c2 .1 2.2.37 4.8 6.17l4.4 9.84c-1.5 3.9-3.9 6.02-8.7 7.11.3.81 1.1 2.23 1.6 2.66 6.3-2.57 7.6-6.76 9.8-13.09l3.4-9.61c.8-2.19 2-3.08 3.1-3.08v-.82h-6.1v.82c1.5.1 2.3.91 1.7 2.57l-3.3 9.65-3.2-7.46c-.8-2.04-1.1-2.84-1.1-3.55 0-.67.3-1.07 1.6-1.21v-.82zm-194.1.82c2.7 0 4.3 1.74 4.4 4.88h-8.8c.3-3.14 1.7-4.88 4.4-4.88zm92.1 0c3 0 6 2.94 6 8.55 0 3.95-1.7 6.37-5.3 6.37-3.1 0-6-2.84-6-8.6 0-4.09 2-6.32 5.3-6.32zm-57.3.43c2.3 4.23 6.8 8.72 11.5 12.14-1.5 1.1-3.9 1.41-5.8 1.41-5 0-9-3.53-9-8.24 0-2.95 1.3-4.79 3.3-5.31zm111.6.42c3.6 0 5.8 2.63 5.8 6.96 0 4.42-1.9 7.26-5.4 7.26-2.2 0-4.7-1.26-4.7-2.93v-8.43c0-1.43 2.1-2.86 4.3-2.86zm21.1 6.37v4.69c0 1.43-1.9 2.58-3.4 2.58-1.4 0-2.6-.9-2.6-2.85 0-3.47 3.6-3.09 6-4.42z"/></svg>