<svg xmlns="http://www.w3.org/2000/svg" viewBox="41.5 29.5 736 573"><path d="M416.7 513.7l10.6 26.2h-21.1zM276 509.6h9.3c3.1 0 6.3.5 9.5 1.6 3.1 1.1 5.8 3.3 8 6.6 2.2 3.2 3.3 7.8 3.3 13.6 0 8.4-2 14-6.2 16.7-4.1 2.6-9 4-14.6 4H276zm128.7-14.5l-31.8 71.8h22.2l6-14.5h31.1l5.9 14.5h22.2l-31.7-71.8zm-63.1 0v71.8h21.7v-71.8zm-87.2 0v71.8h38.7c9.3 0 16.5-2 21.6-6 3.6-2.8 6.8-6.3 9.4-10.8 2.8-4.5 4-10.4 4-17.8 0-4.2-.5-8.1-1.6-11.6-1.1-3.7-2.5-6.8-4.4-9.5-1.8-2.7-4-5.1-6.4-7.1-1.4-1.3-3-2.4-4.9-3.5-1.7-1-3.9-2-6.4-2.8-2.6-.8-5.5-1.5-8.7-2-3.2-.4-7-.7-11.4-.7zm-68.7 0v71.8h54.1v-14.4h-32.4v-15.3h30.1v-14.5h-30.1v-13.1H239v-14.5zm-101.63 0v71.8h21.03v-41.6l19.6 24.2h1.7l19.5-24.2v41.6h21.6v-71.8h-19.6L125.8 522l-22.1-26.9zm629.93-.5v71.9h21.6v-71.9zm-85 0v71.9h21.6v-33.6l27.4 33.6h26.5l-31.1-38.2 26.7-33.7h-23.5l-26 32.2v-32.2zm-39.9 0v71.9h21.7v-71.9zm-134.5 0l30.4 72.8h12.7l19.1-42.3 18.7 42.3h12.6l31-72.8h-22.2l-15.6 39.8-16.7-39.8h-15.5L492 534.4l-15-39.8zM207.1 263v8.4l.8-.3c2.7-.9 5.4-.3 8.4.4 1.4.2 2.6.5 3.8.9-4.4-2.8-8.9-6-13-9.4zM108 134v275.4h62.4V398c-34.8-2.9-35.5-4.8-35.5-29.3V175.4c0-24.9 1.4-27.1 35.5-30V134zm99.1 0v106c8.9-3.4 17.9-5.9 27.1-7.2v-57.4c0-24.9 1.3-27.1 35.4-30V134zm332.7 0l.8.2-2.8 2.6c-.1.1-.3.2-.4.3v8.3c33.8 2.9 35.4 4.9 35.4 29.6v11.5c9.3.8 18.5 3 27.1 6.7V134zm97.4 0v11.4c33.7 2.9 35.4 4.9 35.4 29.6v193.4c0 24.8-1.7 26.7-35.4 29.6v11.4h62.5V134zm-37.3 69.7c-6.8 9.9-16.5 17.4-27.1 23.3v17.1c4.2 2.9 8 6 11.2 10 4.7 6 7.7 13.6 7.9 23.6l.1 2.9-2.8-.6c-5.5-1.2-10.9-1.3-16.4-.7v40c.1 1.7.2 3.4 0 5.1v44c0 24.1-1.6 26.6-32.6 29.4-.8 1.5-1.7 3-2.8 4.3v7.3h62.5zm-392.8 71.2v134.5h41.5c1.3-4.5 3-8.8 4.9-13-18.9-2.7-19.3-7.8-19.3-27.7V352c-3.5-3.2-6.3-7.2-8.3-11.9l-.8-1.9 1.8-1c2.4-1.5 4.9-2.3 7.3-3v-4.1c-3.8-2-7.2-4.7-9.9-8-4-5.2-6.1-11.9-4-19.1l1.1-4 2.8 3c2.3 2.6 6 4.9 10 6.1v-7.7c-5.5-2.9-10.2-6.7-14.2-10.5-7.5-7-12-13.5-12.9-15zm197-78.9c-42.4 0-76.8 34.4-76.8 76.8 0 42.5 34.3 76.9 76.8 76.9s76.8-34.4 76.8-76.9c0-42.4-34.4-76.8-76.8-76.8zm-39-128.96c-11.5 16.73-14.4 37.86-10.9 57.56 0 .2.1.4.2.5l-.1-.1c5.2 21.1 17.7 49.1 31.8 66l6.9-1.2c-1.9-19.4-2.7-50.3 2.1-70.5-5.1-19.3-15.2-39.12-30-52.26zm73.8 20.06c-9.8-.14-17.6 3.62-23.8 9.63-6.1 5.87-10.5 13.97-13.4 22.47.1.5.2 1.1 0 1.6-4.4 18.2-3.9 49.5-2 68.4 1.5-.1 2.9-.2 4.4-.2 2.1 0 4.2.1 6.4.3 6-20.8 15.8-47.4 29.4-65.1-.6-11.9-2.4-24.66 1-36.96-.7 0-1.4-.14-2-.14zm-99 11.24c-8.1 2.06-12.8 7.16-14.9 14.06-2.3 7.5-1.4 16.9 1.8 24.8 16.4 13.6 36.2 37.1 43.4 59 2.9-1.2 5.8-2.3 8.9-3.2-13.9-17.5-24.9-42.7-30.5-63.2-3.4-1.2-6.1-3-7.8-5.5-1.9-2.8-2.8-6.1-3-9.4-.5-5.6.7-11.4 2.1-16.56zm138.3 11.16c-11 .1-23.4 8.3-31.7 16.9-.1.2-.1.4-.3.6h.1c-12.9 15.8-22.9 42.4-29.1 63.2 6.1 1 12.1 2.6 17.8 4.9 12.3-16 26.3-34.4 40.2-49.4l-.1.2.3-.3c2.9-11.2 8.2-22.6 17.1-30.6-4.4-4-9.1-5.6-14.3-5.5zm-83 9.6l-.1.1c.1 0 .1-.1.1-.1zm-96.3 3.8c-3.1 7-5.3 14.4-5.6 21.9 7.6 9.1 20.8 18 30.5 25.8v.1c6.4 5.3 11 13.9 14.7 22.6 2.9 6.9 5.2 13.7 7.1 19.6 5.5-5.4 11.8-10 18.6-13.6-6.3-20.1-26.1-44-41.9-57.1l.2.2c-.5-.3-.8-.8-1.1-1.3-7.4-6.1-15.1-12.2-22.5-18.2zm219.2 11.3c-15.2.1-30.5 6.7-40.6 19l-3.5 4.3v-.3c-11.2 12.9-22.4 27.4-32.7 40.6 7.2 3.6 13.9 8.2 19.7 13.6 21.5-9 43.6-29.7 55.8-49l.1-.1.2-.2c4.9-7.9 9.1-18.5 15.5-25.8-4.7-1.3-9.5-2.1-14.5-2.1zm-234.7 7.1c-7.9 5-10.7 12.4-10.7 20.8.1 8.9 3.5 18.7 8 26.5 0 .1 0 .1.1.1v.1l.1.1c10.1 15.6 31.7 36 48.4 46.5 3-6.1 6.7-11.8 11.1-17-2.3-6.6-4.8-14.7-8-22.4-3.7-8.3-8.2-16.1-13-20.1-8.6-7.2-21.2-15.7-30-25.2-.5-.4-.9-.9-1.3-1.5h-.2l-.6-.6c-.3-.3-.4-.7-.6-1.1-1.4-2.4-2.3-4.6-3.3-6.2zm256.5 20c-5.8 0-11.9 1.5-17.1 4-.1.3-.2.6-.3.8-12.5 19.7-34 40.2-56.6 50.5 3.5 3.7 6.6 7.8 9.3 12.2 14.7-16.6 34-29.6 54.4-37.9 2.1-10 7.2-15.1 13.5-16.9 5.6-1.6 12-.9 18.3-.4-4.3-8.9-12.4-12.3-21.5-12.3zm-298.4 20.6c-3.6 8.3-2.8 17.4.9 25.9 4.1 9.2 11.3 17.5 19.3 23 .3.1.6.1.9.3v-.1c15.3 8.4 41.9 16.2 60.4 21 .9-3.5 2.1-7 3.4-10.4-17.4-10.8-38.5-30.6-50.1-47.3-11.7-2.8-24.1-5.6-34.8-12.4zm324.9 8.6c-11-.1-22.2 1.8-32.7 5.7-.2.2-.4.5-.6.6h-.1l-.1.1c-20.5 8-39.7 21.2-54.2 38l2.1 4.5c16-3.4 35.4-6.5 53.5-6.8 5.4-.1 10.5.1 15.6.5 18.8-7.7 38.9-18 48.7-35.6-10.1-4.6-21-6.8-32.2-7zm-315.8 45.4c-18.1 0-34.6 4.2-51.3 12.4 6 8.6 17.3 17.5 27.6 23.1 1.4.4 2.6.9 3.4 1.2h.1l.1.1c1.3.5 2.1.8 3.9.8H235.2l.1.1c3.9.9 18.4 2.7 35.4 2.1 16-.5 34.6-3.1 50-10 .2-2.4.5-4.7.9-7-18.6-5.1-45.5-12.7-62.3-21.8v-.1h-.1c-.1-.1-.2-.4-.4-.5-2.8-.2-5.5-.4-8.2-.4zm288.1 3.4c-18.2-.1-38.6 2.9-55.3 6.5 1 3 1.9 6.2 2.5 9.5 22.2 3 46.1 12.1 65.3 23.4 11.7-2.2 23.6-5.4 36.3-3.3-.7-8-3.1-13.9-6.8-18.6-4.1-5.2-9.7-9-15.9-12.5-5-1.3-9.5-3.2-14.1-4.4-3.8-.4-7.8-.6-12-.6zm-51.5 23c.4 3.4.7 6.9.7 10.5 0 5.9-.7 11.6-1.9 17.1 18.6 8 41.9 17.6 59.1 28.6v.1c7.8 2.2 15.3 6.9 21 12.1 1.2-1.4 2-3.1 2.3-5.3.5-2.9.3-6.4-.3-9.8-1.2-6.8-4.1-13.6-5.4-15.5-3.1-4.5-8.4-10.1-14-15h-.1l-.1-.1c-17.9-10.8-40.6-19.5-61.3-22.7zM320.3 273c-16 6.4-33.8 8.8-49.3 9.5-17.7.6-31.9-1.1-37.1-2.2-2.6-.2-4.5-.7-6-1.4-1.5-.5-2.6-1-3.1-1.1l-1.6-.4v-.1c-2.6-.5-5.3-1.1-7.7-1.6-1-.2-1.9-.3-2.8-.4.5.7.5.7 1.3 1.7 2.1 2.7 5.1 6.3 8.9 9.8 7.4 7 17.7 14 29 14.6 20.5-.6 49.5-8.3 70.2-11.6-1.1-5.5-1.8-11.1-1.8-16.8zm3.4 23.3c-19 3-46.7 10.4-68.3 11.7-4.6 4.8-11.2 6.2-17.5 5.4-5.2-.7-10.1-2.9-14-5.9-.3 4.4 1.1 8.4 3.9 11.9 3.3 4.3 8.4 7.6 13.6 9.1 12.5.2 27.5-3 42.6-7.2 15.6-4.5 31.1-10 44-13.6-1.7-3.7-3.1-7.5-4.3-11.4zm160.6.3c-2.4 8.6-6.3 16.5-11.2 23.6 12.3 13.6 37.7 27.7 54.4 33.8l-.5-.1c.7.1 1.3.4 1.8.7 9.3 3 19 5.9 28.4 9.1.8-14.1-5.1-29.4-15.5-39.4h-.2l-.1-.1c-16-10.3-38.6-19.6-57.1-27.6zm-153.2 17.1c-12.9 3.8-28.8 9.4-45.2 14h-.1c-14.4 4.2-29.2 7.5-42.4 7.6-4.3 2.5-8.8 3.3-12.6 4.8 4 7.9 10.5 13.3 18.3 16.4 8.3 3.4 18.1 4.1 27.1 2.6 17.6-6.8 46.5-22 62.5-34-2.8-3.5-5.4-7.4-7.6-11.4zm137.8 11.9c-3.4 4.2-7.2 8.1-11.3 11.5 15.4 9.9 33.6 25.9 44.7 40 7 .3 15.2.7 20.8 6.7 5.1 5.5 5.6 13.3 6.4 19.8 7.5-5 9.5-12 8.5-19.7-1.2-8.4-6.5-17.4-12.9-23.7-17.2-6.4-42.3-19.7-56.2-34.6zm-125.7 4.7c-15.6 11.7-41.8 25.6-60.2 33.5-15.2 14.4-27.8 32.2-31.5 52.7.2 0 .3.1.5.1 1.1 0 2.4 0 3.8.2 18.9.1 37.1-8.6 52.1-20.6 14.6-15.2 31.3-42 39.2-62.1-1.3-1.3-2.6-2.5-3.9-3.8zm9.2 8.4c-8.3 20.1-23.5 44.7-38.1 60.5.6 3.4.3 6.5-1 9.2-1.5 2.9-3.9 5.4-6.6 7.3-4.6 3.2-10.3 4.9-15.5 6 5.4 6 12 7.7 19 6.3 7.7-1.5 15.5-6.7 20.8-13.4 4.3-20.9 16.8-51.1 32.2-68.8-3.8-2.1-7.4-4.5-10.8-7.1zm99.6 2.8c-2.3 1.7-4.8 3.1-7.2 4.5 7.8 17.2 19.4 44.1 22.7 63.1 11.6 16 27.1 30.3 45.7 36 5.7-22.1-3.6-46.7-17.1-65l-.4-.6c-11.1-13.5-29.3-29.2-43.7-38zm-82.6 7.5c-14.5 15.8-28 47.2-31.9 67.5-1.3 9.7-2.8 19.5-4.9 29.1 18.4-.9 34.5-12.5 42.2-29.3l-.2.4c.1-.3.2-.5.3-.7l-.1.2c5.4-17.5 12.7-42.3 16.1-60.7-7.5-1.2-14.7-3.5-21.5-6.5zm69.4 0c-3.9 1.7-7.8 3.2-11.9 4.3 2.6 20.4 1.1 47.3-4.6 66.8 5.4 10.9 11.1 22.2 12.5 34.7 9.6-2.4 16-9 20-17.4 4.4-9 6-20.1 5.6-29.6-3.6-17.3-14.3-42.4-21.6-58.8zm-18.5 5.9c-5.2 1.1-10.6 1.7-16.2 1.7-2.1 0-4.3-.1-6.4-.3-3.5 18.6-10.7 43.2-16.3 61 1.5 10.4-.3 21.2-4.5 30.7 3.2 1.6 8 2 12.9 1.1 5.5-1 10.8-3.6 13.2-6.4 4.9-6.1 9.2-14.2 12.3-21.9 0-.4.1-.8.3-1.2l-.1.2c5.7-17.8 7.1-45.1 4.8-64.9z"/></svg>