<svg xmlns="http://www.w3.org/2000/svg" viewBox="0 0 708.66 141.73"><path d="M63.66 35.46h30.48v49.19h.84L115 35.46h30.4v70.84h-18V51.29c-.4-.27-1.3 0-1.8-.12l-22 55.13H76.98V52.37v-1.2h-.84L49.38 106.3c-6.92-.1-14.16.1-20.88-.2zM190.1 61.77H230l-6.6 14.76h-40.9zm-28.5-6.84v51.17h64.7l6.4-13.73c-17.4-.28-35.4 0-53-.12V58.89s-.4-9.77 8.8-9.84c11.7-.1 24.5 0 36.8 0l6.6-13.8h-45.6c-24.7 0-24.7 19.68-24.7 19.68m158.7 4.89v20.64s0 25.54-23.7 25.54h-51.4V35.22h51.4c23.7 0 23.7 24.62 23.7 24.62zm-32.2-10.68c-7.5 0-16.6 0-24.8-.12v43.2h21.8c17.4-.1 16.3-15 16.3-15v-14.4s.1-13.69-13.3-13.68zm46.5-13.89h18v70.85c-6.3-.1-12.9.1-18.9-.2V39.81c0-1.73-.5-5.25.9-4.56zm83.7 14.88c-.6 0-1.2.1-1.9 0l-35.2 55.97h-23.8V105L404 35.25h33.2v70.85h-18.9m100.6-56.09h-23.7v56.09h-19.9V50.01h-28.6l6.7-14.76h72.3zm38.3 11.73H597l-6.6 14.76h-40.9zm-28.6-6.84V106h64.7l6.5-13.66c-17.5-.28-35.4 0-53.1-.12V58.86s-.4-9.77 8.8-9.84c11.7-.1 24.6 0 36.8 0l6.6-13.8h-45.6c-24.7 0-24.7 19.68-24.7 19.68m99.7 15.22V106h-19V35.25h19zM658.8 106l-30.5-33.39v-2.49l32.4-34.87h19.9v1.92l-31.3 33.45L681.5 105v1z"/></svg>