<svg xmlns="http://www.w3.org/2000/svg" viewBox="0 0 404 130"><path d="M354.9 82.27v-.26c0-.87-.2-1.27-.4-1.94l-2 .54c.2.84.4 1.38.4 2.86v9.89h2.1v-8.13c0-1.06.1-1.45.6-2.05.7-.6 1.5-.93 2.2-.93.2 0 .4 0 .6.13v-.13l.8-2.15s-.4-.15-.6-.15c-1.4 0-2.8.84-3.7 2.16m-18.2-1.57h-2.1l-2 8.7c-.1.47-.4 1.76-.4 1.8 0 0-.4-1.16-.5-1.88l-2.3-8.7h-2.3l-2.2 8.6c-.3.93-.6 1.88-.6 1.88s-.1-.96-.5-2.16l-2-8.56-2.1.43 3.6 12.95h2l2.5-9.22c.1-.43.3-1.33.3-1.33h.1l2.9 10.53h2l3.6-13.05m25.9-6.03l-2.2.48c.2.33.2.47.2.83.1.78.2 2.05.2 2.86v14.79h2.2V78.22c0-.81-.2-2.09-.3-2.75 0-.3 0-.54-.1-1.01m15.8 11.52l-1.7-.37c-.7-.16-1.2-.36-1.5-.72-.2-.28-.4-.67-.4-1.14 0-1.28 1.1-2.13 2.6-2.13 1 0 2.1.4 3.2.95l.8-1.52c-1.1-.63-2.7-1.06-4-1.06-2.7 0-4.6 1.66-4.7 4 0 .87.4 1.66.9 2.28.6.68 1.2 1.04 2.4 1.31l1.6.33c1.5.32 2.2.96 2.2 2.12 0 1.37-1.1 2.23-2.6 2.23-1.4 0-2.8-.42-4.1-1.22l-.8 1.5c1.3.82 3.1 1.3 4.8 1.3 2.9 0 4.8-1.72 4.8-4.25 0-1.93-1.1-3.1-3.5-3.62m-9 4.89l-4-4.73.4-.46 4.6-5.14h-2.5l-4.9 5.61 6 7.37h2.6l-2.2-2.63m-51.5-8.78l.7-1.6h-3.3c0-1.71.2-3.65.2-3.67l-.5.14-1.6.33v.36c-.1 1.32-.3 2.05-.3 2.71v.16h-1.6v1.6h1.8l-.2 8.86c0 1.29.4 2.13 1.4 2.59.5.22.9.36 1.7.36.8 0 1.6-.18 2.3-.52l-.3-1.32h-.1c-.3.16-.7.24-1.2.24-1.4 0-1.8-.48-1.8-1.91V82.1h2.8m29 8.18c-.6 1.24-1.5 1.94-2.8 1.94-1.2 0-2.2-.52-2.7-1.3-.5-.8-.8-2.41-.8-4.23 0-1.54.3-2.58.7-3.38.4-.82 1.4-1.4 2.6-1.4 1.1 0 2.2.52 2.7 1.66.4.86.7 2.08.7 3.9 0 1.28-.2 2-.4 2.81zm-3-10.06c-3.4 0-5.6 2.59-5.6 6.81 0 4.27 2.2 6.91 5.6 6.91 1.5 0 2.6-.36 3.6-1.26 1.5-1.25 2-2.84 2-5.37 0-2.1-.4-3.65-1.2-4.82-.8-1.28-2.2-2.27-4.4-2.27m-49.2-4.55v.14l.2 9.62c0 2.23.2 5.11.2 5.37 0 0-.1-.13-.1-.26-.3-.7-1.1-2.42-1.6-3.43l-5.9-11.37H285v17.81h2.3l-.2-10.34c0-1.76-.1-3.31-.2-4.82.1.22.2.47.4.74.4.97 1 2.25 1.6 3.5l5.7 10.92h2.3V75.73h-2.2m12.8 10.08h-5.6c.2-2.67 1.1-4.02 3-4.02 1 0 1.8.44 2.4 1.15.4.61.5 1.47.5 2.88h-.3zm-2.5-5.67c-1.6 0-2.8.6-3.9 1.83-1.2 1.28-1.6 2.72-1.6 4.9 0 4.29 2.2 6.91 5.8 6.91 1.7 0 3.3-.58 4.4-1.62l-.8-1.32c-1 .83-1.9 1.23-3.2 1.23-1.2 0-2.4-.47-3.2-1.59-.4-.68-.6-1.61-.6-2.82v-.32h8v-.27c0-3.1-.2-4.33-1.4-5.48-.8-.94-2.2-1.44-3.5-1.44m-63.5 1.58c-.2-.18-.6-.35-1-.5-.4-.17-.7-.13-.3.2.5.4.9.96 1.1 1.39.2.51.1 1.03-.2 1.51-.5.49-1.2.97-2.1 1.37-2.8 1.13-6 1.4-9.1 1.4-1.7 0-3.6-.13-5-.39-1.6-.24-2.8-.6-3.9-1.01-1-.4-1.7-.88-2.1-1.37-.4-.48-.5-1-.3-1.51.3-.41.7-.97 1.2-1.37.3-.22-.1-.35-.4-.22-.4.15-.6.31-1 .5-1 .48-1.6 1.05-1.9 1.66-.4.67-.4 1.32 0 1.96.4.67 1.2 1.3 2.4 1.84 1.2.58 2.8 1.04 4.6 1.39 2 .34 4.2.54 6.4.54 2.4 0 4.6-.2 6.4-.54 1.9-.35 3.5-.81 4.7-1.39 1.2-.54 2-1.17 2.4-1.84.4-.64.5-1.29.1-1.96-.4-.61-1-1.18-2-1.66-.2-.18 1 .48 0 0m9.1-2.48c-.5-.24-1.1-.47-1.7-.68-1-.31-1.4 0-.3.4.8.37 1.6.78 2.3 1.21.6.45 1.3.95 1.8 1.48.6.55.8 1.11 1.1 1.68.3.59.3 1.19.1 1.79-.1.61-.4 1.22-.9 1.84-.5.62-1.3 1.23-2.3 1.81-.9.61-2 1.17-3.4 1.68-1.4.53-3 1-4.7 1.4-1.9.4-3.9.72-5.9.93-2.1.23-4.4.35-6.8.35-2.2 0-4.5-.14-6.6-.35-2.1-.21-4.1-.53-5.9-.93-1.7-.4-3.3-.87-4.8-1.4-1.3-.51-2.5-1.07-3.4-1.68-1-.58-1.6-1.19-2.2-1.81-.5-.62-.8-1.23-.9-1.84-.1-.6-.1-1.2.1-1.79.2-.57.6-1.13 1.1-1.68.4-.53 1.1-1.03 1.7-1.48.8-.43 1.5-.84 2.4-1.21.2 0 .2-.14.3-.15.7-.25 0-.48-.5-.27-.7.22-1.4.44-1.9.7-2 .84-3.7 1.84-4.9 2.98-1.4 1.28-2 2.63-1.9 3.99.1 1.49 1.2 2.98 3.1 4.37 2.1 1.49 5.3 2.83 9.4 3.8 4.3 1.03 9.5 1.63 14.9 1.63 5.6 0 10.7-.6 15.1-1.63 4.1-.97 7.2-2.31 9.3-3.8 2-1.39 3.1-2.88 3.2-4.37 0-1.36-.5-2.71-1.8-3.99-1.4-1.14-3.1-2.14-5.1-2.98-.5-.24 2 .84 0 0m24 7.92c0-.14 0-.26-.4-.95l-.1-.51c-.2-.16-.2-.28-.3-.33-1.2-2.11-3.2-4.03-6.1-5.85-2.7-1.74-5.9-3.16-9.4-4.3l-.2-.13c-.2-.13-.4-.19-.7-.19-.1 0-.3 0-.4.14l-.3.14v.23c0 .31.3.44 1 .69.9.34 1.7.68 2.6 1.08 1.8.79 3.2 1.63 4.4 2.54 2.6 1.76 5.4 4.57 5 8.09-.4 2.53-2.3 4.93-5.6 7.14-2.4 1.58-5.2 2.86-9 4.03-6 1.91-12.8 3.01-20.6 3.41-1.5.1-3.1.1-4.7.1-6 0-11.7-.5-17.3-1.6-3.6-.6-6.8-1.52-9.7-2.6-3.6-1.32-6.3-2.75-8.4-4.5-1.9-1.42-4.8-4.37-4-8.02.6-2.59 2.8-4.92 6.5-7.15 1.3-.81 2.9-1.56 4.7-2.25.4-.16.8-.32 1.2-.47.1 0 .5-.21.5-.58 0-.14-.1-.35-.5-.35-.7 0-1.5.31-2.2.57-.1.14-.4.16-.5.23-3.7 1.35-6.8 2.88-9.3 4.68-3.1 2.24-5 4.57-5.6 7.15-.7 2.81.2 5.82 2.6 8.47 4.2 4.42 10.3 6.72 15.2 8.32 5.8 1.7 12 2.8 19.1 3.3 2.6.2 5.3.3 8 .3 4.6 0 9.2-.3 13.6-.9 7-.9 13-2.4 18.4-4.6 3-1.3 5.6-2.68 7.7-4.3 2.5-1.97 4.1-4.1 4.8-6.33.5-1.53.5-3.17 0-4.72m-98.5-33.67c-1.2-1.51-2.7-2.85-6.7-3.84l-3.8-1c-3-.8-3.5-1.4-3.6-2.61 0-1.43 1.2-2.43 3.4-2.47 2.3 0 4.4.64 7.6 2.24l.6.3 3.3-6.8-.5-.3c-3-1.44-6.6-3.06-11.8-3.05-3.8 0-7 1.08-9.4 3.03-2.3 1.93-3.6 4.76-3.6 8.05 0 2.2.7 4.6 2 6.16 1.2 1.54 4 3.04 6.2 3.46l3.8.7c3.3.66 4.4 1.53 4.4 3.29 0 1.62-1.5 2.94-3.6 2.96-3.4 0-7.8-2-10.3-3.52l-.6-.37-3.6 7.33.6.29c4.7 2.47 9.1 3.76 13.2 3.76s7.7-1.16 10.3-3.23c2.5-2.05 4-5.05 4-8.53 0-2.24-.6-4.22-1.9-5.85m-40.7 8.82c-1.1 1.2-2.5 1.88-3.9 1.88-1.8 0-3.1-1.38-3.1-3.67 0-1.83.4-2.79 1.4-3.43 1.1-.64 2.9-.93 5.7-.93l-.1 6.15zm9.3-2.73v-.56l.1-10.69c0-3.42-.1-4.52-.5-5.89-1.4-3.81-5.3-5.88-10.8-5.88-3 0-5.7.59-8.9 1.91-2.2.86-3.1 1.34-5.2 2.66l-.4.26.2.41 3.8 6.42.5-.29c3.4-2.28 6.4-3.53 8.9-3.53 1.5 0 2.2.28 2.6.84.5.56.7 1.65.7 3.4v.77h-1.4c-5.2 0-9.1.87-11.8 2.76-2.7 1.89-4 4.84-4 8.69 0 3.27 1 5.92 3 7.72 1.9 1.8 4.8 2.73 8.4 2.73 2.7 0 5-.64 6.7-1.84.6-.37.8-.56 1.5-1.29 1 1.51 2.7 2.76 4.4 3.52l.4.15 5-5.79-.5-.32c-2.3-1.79-2.7-2.73-2.7-6.13m64.9-2.76L205 37.1h-8.5l-4.9 19.89-4-19.95-9.4.14 9 32.67h8.5l4.8-20.18 4.7 20.18h8.5l9.3-32.73h-9.7l-3.7 19.75m68.3 4.14c-2 1.76-3.6 2.48-5.3 2.48-1.3 0-2.7-.61-3.5-1.6-.9-1.2-1.4-3.6-1.4-7.73 0-3.69.4-6.3 1.3-7.93.8-1.6 1.9-2.25 3.6-2.28 1.3 0 3.1.85 4.7 2.36l.4.37 4.6-6.28-.2-.3c-1.5-1.19-2-1.67-3.2-2.31-2-.91-4.3-1.48-6.4-1.48-2.8 0-6 .95-8.3 2.45-3.9 2.64-6.7 7.7-6.7 15.16 0 5.24 1.2 9.46 3.8 12.4 2.4 2.93 6.1 4.52 10.5 4.52 3.2 0 5.7-.71 8.1-2.07 1.1-.69 1.8-1.19 3-2.44l.4-.31-4.4-5.79-1 .78m-21.8 2.44c-1.5.44-2.2.61-2.8.61-1.5 0-2.2-.25-2.6-.82-.4-.59-.6-1.79-.6-3.79V43.71h5.2l2.5-6.53h-7.7v-1.42c0-3.06-.2-6.06-.6-7.87l-.1-.5-9.2 2.23.1.49c.3 1.35.6 1.58.6 4.56v2.63h-3.2v6.41h3.2v17.05c0 2.9 0 3.66.5 5.08 1.1 3.09 4.8 5 9.1 5 2.2 0 4.5-.46 7-1.47l.3-.16-1.2-5.91-.5.15m-31 5.85l9.4 1.47V37.1h-9.4v32.2m-176.6.79l7.1-27.18c0 1.35.14 2.71.24 4.13l.67 23.05h9.77L63 25.86H50.91l-6.72 26.5h-.13l-6.7-26.5H25.25L22 70.09h9.78l.67-23.05c.1-1.42.18-2.78.23-4.13l7.1 27.18h8.72m263.3-29.41c-1.2-2.96-4.7-4.88-8.8-4.88-2.9 0-6.1 1.08-8.4 2.8v-7.9c0-3.07-.1-6.07-.5-7.88l-.2-.49-9.4 2.22.1.5c.3 1.2.5 4.2.5 7.14v37.33h9.5v-23.1c1.7-1.54 4.3-2.67 6.1-2.66 2.2.14 2.7.72 2.7 3.87v21.89h9.2V46.75c0-3.6-.3-4.27-.8-6.07M115.6 63.45c-1.5.44-2.2.61-2.8.61-1.4 0-2.1-.25-2.5-.82-.4-.59-.7-1.79-.6-3.79V43.71h5.2l2.4-6.53h-7.7v-1.42c0-3.06-.1-6.06-.5-7.87l-.1-.5-9.37 2.23.14.49c.33 1.35.63 1.58.63 4.56v2.63h-3.21v6.41h3.21v17.05c0 2.9 0 3.66.6 5.08 1 3.09 4.6 5 9 5 2.3 0 4.5-.46 7-1.47l.4-.16-1.3-5.91-.5.15m-37.59-13.7c.14-4.08 1.71-6.01 4.47-6.04 1.56 0 2.52.53 3.26 1.64.67 1.05.9 2.13.91 4.4h-8.64zm4.35-13.13c-4.33 0-7.69 1.44-10.39 4.45-2.9 3.21-4.11 7.18-4.1 12.97 0 5.09 1.5 9.36 4.22 12.33 2.72 2.97 6.64 4.65 11.32 4.65 4.59 0 8.57-1.48 12.3-4.53l.35-.28-3.78-5.81-.43.35c-2.49 2.06-5.04 3.06-7.77 3.06-3.97 0-6.09-2.37-6.23-6.97h18.41v-2.43c0-6.71-1.32-11.17-4.37-14.29-2.19-2.24-5.77-3.49-9.56-3.5M229.9 85.15c1.5 0 3.1-.13 4.6-.64.9-1.08 1.4-2.45 1.4-3.97 0-3.39-2.6-6.14-6.1-6.14-3.3 0-6.1 2.75-6.1 6.14 0 1.45.5 2.76 1.3 3.81.5.18 1.1.35 1.6.47 1.1.21 2.3.33 3.3.33"/></svg>