<svg xmlns="http://www.w3.org/2000/svg" viewBox="0 0 448.11 136.48"><path d="M425.85 117.51V99.79c0-2.473-1.89-4.478-4.39-4.478h-30.5V86.15h26.16v4.678l8.73 1.004v-9.897c0-2.543-1.89-4.482-4.39-4.482h-34.9c-2.42 0-4.32 1.94-4.32 4.482V99.59c0 2.47 1.9 4.49 4.32 4.49h30.56v9.16h-26.16v-4.62l-8.72-1.07v9.97c0 2.47 1.9 4.41 4.32 4.41h34.9c2.5 0 4.39-1.94 4.39-4.42zm-59.23 0V77.448h-8.74v35.782h-26.16V77.448h-8.73v40.062c0 2.47 1.91 4.42 4.34 4.42h34.9c2.47 0 4.39-1.94 4.39-4.42zm-59.24 0v-9.96l-8.73 1.07v4.61h-26.19V86.147h26.19v4.68l8.73 1.003v-9.897c0-2.544-1.91-4.482-4.41-4.482h-34.9c-2.43 0-4.32 1.94-4.32 4.483v35.577c0 2.48 1.89 4.42 4.32 4.42h34.9c2.5 0 4.41-1.94 4.41-4.42zm-59.25 0V81.933c0-2.544-1.9-4.482-4.4-4.482h-34.89c-2.43 0-4.33 1.94-4.33 4.483v35.577c0 2.48 1.9 4.42 4.33 4.42h34.89c2.5 0 4.4-1.94 4.4-4.42zm-34.9-31.363h26.17v27.083h-26.17zm-20.87 0v-8.7h-43.62v44.483h8.72v-17.86h26.17v-8.76h-26.17v-9.163zM425.85 59.17V23.584c0-2.544-1.89-4.483-4.39-4.483h-34.9c-2.42 0-4.32 1.94-4.32 4.483V59.17c0 2.472 1.9 4.413 4.32 4.413h34.9c2.5 0 4.39-1.94 4.39-4.414zm-34.89-31.372h26.18v27.09h-26.18zm-31.12 35.785L346.72 45.79h8.73c2.5 0 4.39-1.94 4.39-4.414v-17.79c0-2.545-1.89-4.484-4.39-4.484h-39.22v44.48h8.72V45.788h10.81l13.06 17.79h11.02zm-34.89-35.785h26.18v9.297h-26.18zm-31.12 31.37v-9.967l-8.73 1.07v4.617h-26.16v-27.09h26.16v4.684l8.73 1.005v-9.9c0-2.544-1.91-4.483-4.41-4.483h-34.9c-2.4 0-4.32 1.94-4.32 4.483V59.17c0 2.472 1.92 4.413 4.32 4.413h34.9c2.5 0 4.41-1.94 4.41-4.414zm-74.75 4.415h8.73V19.105h-8.73zm-22.39 0V19.105h-8.53L172.81 41.24l-15.35-22.135h-8.72v44.478h8.72V34.42l12.66 18.463h5.25l12.6-18.464v29.163zM104.37 39.13h20.06v83.12H41.31v-20.06h63.06zM21.25 19.065h83.12V39.13H41.31v63.06H21.25z"/></svg>