<svg xmlns="http://www.w3.org/2000/svg" viewBox="0 0 343.12 267.74"><path d="M22 245.5v-13.59h2.72l3.23 9.62c.3.9.52 1.57.65 2.01.16-.49.4-1.22.73-2.18l3.27-9.46h2.43v13.59h-1.74v-11.38l-3.97 11.38h-1.63l-3.95-11.57v11.57H22zm16.25 0v-13.59h1.81v13.59zm8.46 0v-11.99h-4.5v-1.6h10.82v1.6h-4.52v11.99zm8.2 0v-13.59h6.05c1.22 0 2.14.12 2.77.37.63.24 1.14.67 1.52 1.29.38.62.57 1.3.57 2.05 0 .97-.31 1.78-.94 2.44-.63.66-1.6 1.08-2.9 1.26.48.23.84.45 1.09.68.53.48 1.03 1.09 1.5 1.81l2.37 3.7h-2.27l-1.81-2.83c-.53-.81-.96-1.44-1.31-1.87-.34-.43-.65-.74-.92-.91-.27-.17-.54-.29-.82-.36-.21 0-.54-.1-1.01-.1h-2.09v6.03h-1.8zm1.81-7.59h3.88c.82 0 1.47-.1 1.94-.26.47-.17.82-.44 1.06-.82.24-.37.36-.78.36-1.22 0-.64-.23-1.17-.7-1.59-.47-.41-1.21-.62-2.22-.62h-4.32zm10.43 7.59l5.24-13.59h1.95l5.59 13.59h-2.06l-1.59-4.12h-5.71l-1.5 4.12zm3.94-5.58h4.63l-1.43-3.76c-.43-1.14-.76-2.08-.97-2.82-.17.87-.42 1.74-.74 2.6zm14.84 5.58v-13.59h1.81v13.59zm4.97 0v-13.59h1.85l7.17 10.67v-10.67h1.73v13.59H99.8l-7.17-10.68v10.68zm17.26 0v-11.99h-4.5v-1.6h10.82v1.6h-4.52v11.99zm8.21 0v-13.59h9.87v1.6h-8.06v4.16h7.55v1.59h-7.55v4.63h8.38v1.6h-10.19zm19.07-5.33v-1.59h5.78v5.04c-.89.71-1.8 1.23-2.75 1.59-.94.35-1.91.53-2.9.53-1.34 0-2.56-.28-3.65-.86-1.1-.57-1.92-1.4-2.48-2.48s-.84-2.29-.84-3.63c0-1.32.28-2.56.84-3.7.55-1.15 1.35-2 2.4-2.56 1.04-.55 2.24-.83 3.6-.83.98 0 1.88.16 2.68.48.8.32 1.42.76 1.88 1.33.45.57.8 1.31 1.04 2.22l-1.63.45c-.21-.69-.46-1.24-.76-1.63-.31-.4-.74-.71-1.31-.95-.56-.24-1.19-.36-1.88-.36-.83 0-1.54.13-2.14.38-.6.25-1.09.58-1.46.99-.37.41-.65.85-.86 1.34-.35.84-.52 1.75-.52 2.73 0 1.21.21 2.22.63 3.04a4.03 4.03 0 0 0 1.83 1.82c.8.4 1.65.59 2.55.59.78 0 1.55-.15 2.29-.45.75-.3 1.31-.62 1.69-.96v-2.53zm8.47 5.33v-13.59h6.05c1.22 0 2.14.12 2.77.37.63.24 1.14.67 1.52 1.29.38.62.57 1.3.57 2.05 0 .97-.31 1.78-.94 2.44-.63.66-1.6 1.08-2.9 1.26.48.23.84.45 1.09.68.53.48 1.03 1.09 1.5 1.81l2.37 3.7h-2.27l-1.81-2.83c-.53-.81-.96-1.44-1.31-1.87-.34-.43-.65-.74-.92-.91-.27-.17-.54-.29-.82-.36-.21 0-.54-.1-1.01-.1h-2.09v6.03h-1.8zm1.8-7.59h3.88c.82 0 1.47-.1 1.94-.26.47-.17.82-.44 1.06-.82.24-.37.36-.78.36-1.22 0-.64-.23-1.17-.7-1.59-.47-.41-1.21-.62-2.22-.62h-4.32zm10.44 7.59l5.24-13.59h1.94l5.59 13.59h-2.06l-1.59-4.12h-5.71l-1.5 4.12zm3.94-5.58h4.63l-1.43-3.76c-.43-1.14-.76-2.08-.97-2.82-.18.87-.42 1.74-.74 2.6zm9.66 1.21l1.7-.15c.1.68.27 1.24.56 1.67.3.44.75.79 1.37 1.06.62.27 1.32.4 2.09.4.69 0 1.3-.1 1.82-.3.53-.21.92-.48 1.18-.84.26-.36.39-.74.39-1.16 0-.43-.12-.8-.38-1.12-.25-.32-.66-.59-1.23-.8-.37-.14-1.18-.36-2.43-.66-1.25-.3-2.13-.58-2.63-.85-.65-.34-1.14-.76-1.46-1.27-.32-.5-.48-1.07-.48-1.69 0-.68.19-1.33.58-1.92.39-.6.96-1.05 1.71-1.36.75-.31 1.59-.46 2.5-.46 1.01 0 1.9.16 2.68.49.77.32 1.37.8 1.78 1.43.41.63.64 1.34.67 2.14l-1.73.13c-.1-.86-.41-1.51-.95-1.95-.54-.44-1.33-.66-2.38-.66-1.09 0-1.89.2-2.39.6-.5.4-.75.88-.75 1.44 0 .49.18.89.53 1.21.35.32 1.26.64 2.72.97 1.47.33 2.48.62 3.02.87.79.37 1.38.83 1.76 1.39.38.56.57 1.21.57 1.93a3.7 3.7 0 0 1-.62 2.04c-.42.64-1.01 1.14-1.79 1.49-.78.35-1.66.53-2.63.53-1.24 0-2.27-.18-3.1-.54-.84-.36-1.49-.9-1.97-1.62-.43-.71-.68-1.53-.71-2.44zm13.64 4.37v-13.59h1.8v13.59zm10.6 0v-13.59h1.81v13.59zm4.97 0v-13.59h1.85l7.17 10.67v-10.67h1.73v13.59h-1.85l-7.17-10.68v10.68zm13.88 0v-13.59h9.21v1.6h-7.4v4.21h6.4v1.6h-6.4v6.17h-1.81zm11-6.62c0-2.26.61-4.02 1.82-5.3 1.22-1.28 2.79-1.91 4.71-1.91 1.26 0 2.4.3 3.41.9 1.01.6 1.78 1.44 2.31 2.51.53 1.07.79 2.29.79 3.65 0 1.38-.28 2.61-.84 3.7-.56 1.09-1.35 1.91-2.37 2.47-1.03.56-2.13.84-3.31.84-1.29 0-2.43-.31-3.45-.93a5.982 5.982 0 0 1-2.3-2.53 7.863 7.863 0 0 1-.77-3.4zm1.87 0c0 1.64.44 2.93 1.33 3.87.89.94 2 1.41 3.33 1.41 1.36 0 2.48-.47 3.36-1.43.88-.95 1.32-2.3 1.32-4.05 0-1.1-.19-2.07-.57-2.9-.38-.83-.92-1.47-1.65-1.92-.72-.45-1.53-.68-2.43-.68-1.28 0-2.38.44-3.3 1.31-.93.88-1.39 2.34-1.39 4.39zm13.54 6.59v-13.59h6.05c1.22 0 2.14.12 2.77.37.63.24 1.14.67 1.52 1.29.38.62.57 1.3.57 2.05 0 .97-.31 1.78-.94 2.44-.63.66-1.59 1.08-2.9 1.26.48.23.84.45 1.09.68.53.48 1.03 1.09 1.5 1.81l2.37 3.7h-2.27l-1.81-2.83c-.53-.81-.96-1.44-1.31-1.87-.34-.43-.65-.74-.92-.91-.27-.17-.54-.29-.82-.36-.21 0-.54-.1-1.01-.1h-2.09v6.03h-1.8zm1.81-7.59h3.88c.82 0 1.47-.1 1.94-.26.47-.17.82-.44 1.06-.82.24-.37.36-.78.36-1.22 0-.64-.23-1.17-.7-1.59-.47-.41-1.21-.62-2.22-.62h-4.32zm11.88 7.59v-13.59h2.72l3.23 9.62c.3.9.52 1.57.65 2.01.16-.49.4-1.22.73-2.18l3.27-9.46h2.43v13.59h-1.74v-11.38l-3.97 11.38h-1.63l-3.95-11.57v11.57h-1.74zm14.44 0l5.24-13.59h1.95l5.59 13.59h-2.06l-1.59-4.12h-5.71l-1.5 4.12zm3.93-5.58h4.63l-1.43-3.76c-.43-1.14-.76-2.08-.97-2.82-.17.87-.42 1.74-.74 2.6zm12.34 5.58v-11.99h-4.5v-1.6h10.82v1.6h-4.52v11.99zm8.49 0v-13.59h1.81v13.59zm4.91 0v-13.59h1.81v6.74l6.78-6.74h2.45l-5.73 5.51 5.98 8.09h-2.38l-4.86-6.88-2.23 2.17v4.71h-1.82zm11.29 0l5.24-13.59h1.95l5.59 13.59h-2.06l-1.59-4.12h-5.71l-1.5 4.12zm3.94-5.58h4.63l-1.43-3.76c-.43-1.14-.76-2.08-.97-2.82-.17.87-.42 1.74-.74 2.6zM187.21 132.1c9.06 0 16.45 7.39 16.45 16.45 0 9.06-7.39 16.45-16.45 16.45-9.06 0-16.45-7.39-16.45-16.45 0-9.06 7.39-16.45 16.45-16.45zM92.39 22c-2.62 0-5.43.69-8.62 2.5-71.3 86.86 52.17 80.21 70.12 136.7l14.76-13.08c-27.99-59.6-103.23-40.32-94.1-109.63 5.72-6.33 18.85-9.45 20.28-.89L102 24.95c-3.17-1.68-6.24-2.92-9.61-2.95zm152.66 2.68L226.1 42.11c29.93-11.66 45.77 21.02 35.34 46.14 21.44-18.47 18.92-62.66-16.39-63.58zm16.39 63.58c-3.82 3.29-8.4 5.77-13.69 7.04-25.49 6.1-41.97 8.05-54.75 27.5 24.44-8.94 35.65-7.75 47.95-13.45 10.23-4.74 16.9-12.46 20.48-21.06zM103.67 27.48l-8.9 14.62c-.59-3.5-2.9-5.89-5.85-6.75v45.99c10.85 9.73 26.28 15.75 41.34 24.35V27.48zm108.43 0v75.42c9.88-5.2 21.81-7.36 36.9-10.97 1.54-.37 3.02-.85 4.44-1.42v-42.5c-7.62-6-18.65-8.08-32.5-2.87l18.15-17.66zm41.34 76.77c-3.11 2.99-6.85 5.6-11.24 7.64-8.82 4.09-17.11 4.65-30.1 7.93v83.47h41.34zm-164.52 5.54v93.5h41.34v-68.43c-12.95-9.33-28.44-16.79-41.34-25.07z"/></svg>