<svg xmlns="http://www.w3.org/2000/svg" viewBox="0 0 792.2 327.7"><path d="M623.8 107.3H653v11.9c4.2-5 8.5-8.5 12.7-10.6 4.4-2.2 9.5-3.2 15.6-3.2 6.5 0 11.7 1.1 15.5 3.5 3.8 2.3 6.9 5.7 9.3 10.3 5-5.3 9.4-9 13.5-10.9 4-2 9-2.9 15-2.9 8.7 0 15.6 2.6 20.5 7.8 4.9 5.2 7.4 13.4 7.4 24.5v51.4h-31.4v-46.8c0-3.6-.7-6.4-2.1-8.2-2.1-2.8-4.8-4.2-7.9-4.2-3.7 0-6.7 1.3-8.9 4-2.3 2.6-3.4 6.9-3.4 12.9v42.3h-31.3V144c0-3.5 0-6-.8-7.3-.7-2.1-1.9-3.7-3.5-5-1.6-1.2-3.6-1.8-5.8-1.8-3.7 0-6.6 1.3-8.9 4-2.4 2.8-3.5 7.2-3.5 13.4v41.8h-31.4v-81.8zM529.4 181c8.1 6.7 18.7 10.1 31.9 10.1 14.8 0 26.3-4.1 34.6-12.1 8.4-8.1 12.6-18.5 12.6-31 0-11.2-3.4-20.7-10.1-28.4-8.4-9.5-20.8-14.2-37.1-14.2-14.4 0-25.8 4.1-34.2 12.1-8.5 8.1-12.7 18.4-12.7 31 0 13.4 5.1 24.2 15 32.5m20.8-48.7c3.1-3.5 6.8-5.2 11.4-5.2 4.4 0 8 1.7 10.9 5.1 3 3.5 4.4 8.8 4.4 15.9 0 7.6-1.4 13.1-4.4 16.5-2.9 3.5-6.6 5.2-11.2 5.2-4.4 0-8.1-1.8-11.1-5.2-2.9-3.5-4.4-8.9-4.4-16.2 0-7.2 1.5-12.6 4.4-16.1M474 157.1l29.8 3.4c-1.7 6.3-4.4 11.6-8 16.2-3.8 4.5-8.6 8-14.4 10.6-5.9 2.5-13.2 3.8-22.2 3.8-8.7 0-15.9-.9-21.7-2.5-5.7-1.6-10.7-4.2-14.8-7.8-4.2-3.7-7.5-7.9-9.8-12.8-2.4-4.8-3.6-11.3-3.6-19.5 0-8.3 1.5-15.4 4.3-21 2.1-4.1 5-7.8 8.6-11 3.7-3.3 7.4-5.8 11.3-7.3 6.1-2.6 13.9-3.8 23.4-3.8 13.3 0 23.5 2.3 30.4 7.1 7.1 4.9 12 11.8 14.8 21l-29.5 3.9c-.9-3.5-2.5-6.1-5-7.9-2.4-1.7-5.6-2.6-9.8-2.6-5.1 0-9.3 1.8-12.5 5.6-3.2 3.6-4.9 9.2-4.9 16.8 0 6.7 1.7 11.8 4.8 15.3 3.2 3.4 7.3 5.2 12.1 5.2 4.1 0 7.6-1 10.4-3.1 2.8-2.1 4.9-5.3 6.3-9.6m-132.9-30.5c2.6-1.7 6.4-2.6 11.5-2.6 4.1 0 6.9.8 8.5 2.4 1.5 1.6 2.4 4.3 2.4 8.2-3.9 1.5-7.7 2.7-11.2 3.7-3.5 1-11.1 2.6-22.8 5-9.9 1.9-16.6 4.9-20.2 9-3.7 3.9-5.6 9.1-5.6 15.3 0 6.5 2.6 12.1 7.7 16.6 5 4.6 12.4 6.8 22.2 6.8 7.4 0 13.8-1.1 19.4-3.3 4-1.8 8.1-4.6 12.3-8.6.7 2.4.7 4.1 1 5.2.8 1.1 1.1 2.7 2.3 4.8h29.5c-1.6-3.4-2.7-6.1-3.2-8.4-.7-2.2-.7-5.1-.7-9v-36.2c0-3.8-.8-7.9-2.4-12.1-1.5-4.3-3.6-7.5-6.3-9.9-3.8-3.3-8.5-5.5-14.3-6.6-5.7-1-13.3-1.5-22.7-1.5-5.9 0-11.3.7-16.3 1.2-5.1.9-9 2.2-12 3.8-4 2.3-7.1 4.8-9.1 7.9-2.2 3-3.9 7.2-5 12.4l30.1 3.3c1.2-3.7 2.9-6.2 4.9-7.4m22.4 28.9c0 3.9-.8 7-1.9 9.5-1.3 2.3-3.4 4.4-6.5 6.1-3 1.7-6.3 2.5-9.8 2.5-3.3 0-5.9-.7-7.6-2.3-1.7-1.6-2.6-3.6-2.6-6 0-2.2.9-4.1 2.7-5.8 1.6-1.6 5.7-3.3 12.2-4.9 4.6-1.2 9.1-2.6 13.5-4.1v5zm-128.2-48.2h29.5v13.3c2.8-5.7 5.6-9.8 8.7-11.9 3-2.2 6.7-3.3 11.1-3.3 4.7 0 9.7 1.5 15.2 4.4l-9.7 22.2c-3.8-1.5-6.7-2.4-8.8-2.4-4.1 0-7.3 1.8-9.5 5.1-3.3 4.8-4.9 13.8-4.9 26.9v27.5h-31.6v-81.8zm-51.6 0H215v81.8h-31.3v-81.8zm0-31.13H215v21.28h-31.3V76.17zm-148.63 0h46.07l17.55 68.73 17.61-68.73h45.9V189.1h-28.6v-86.2l-22.1 86.2H85.69l-22.02-86.2v86.2h-28.6V76.17zM746.7 290.8c1 .8 2.2 1 3.6 1 2 0 3.8-1 5.3-3 1.5-2.1 2.1-5 2.1-8.6 0-3.5-.7-6.2-2.2-7.9-1.6-1.7-3.3-2.6-5.3-2.6-1.4 0-2.8.8-3.9 1.4-1.2.8-1.8 1.7-1.8 2.5v14.3c.8 1.3 1.3 2.3 2.2 2.9M735.5 305c1.8 0 3-.7 3.4-1.1.8-.7.8-1.7.8-3.1v-27.3c0-1.5 0-2.4-.8-2.9-.7-.7-1-.7-2-.7h-.8-.8v-1l2.8-.9s1.9-.7 5.7-1.9v3.8c1.3-1.2 2.4-2.2 3.4-2.8 1.7-1 3.4-1.6 5.3-1.6 2.6 0 4.9 1.1 6.8 3.3 1.9 2.3 2.8 5.3 2.8 9.2 0 3.8-1.1 7.3-3.4 10.4-2.2 3.1-5.2 4.6-8.6 4.6-1 0-2 0-2.8-.7-1.2 0-2.3-1.2-3.4-2.2v9.3c0 2 0 3.2 1 3.6.7.8 2 .8 4.1.9v1h-14.1v-1zm-33.1-38.3v.9c1.3 0 2.2.7 2.7.7.7.7 1 1.5 1 3v14.9c0 2.7.7 4.7 2.2 5.8 1.5 1.2 3.1 1.8 4.7 1.8 1.9 0 3.6-.7 5.2-1.7 1.1-.7 2.3-1.8 3.6-3.4v4.6c1.7-.7 2.8-1 3.2-1.2 1.1-.7 2-.7 2.5-.8.7 0 1.3-.7 2.3-.7v-.8c-1.5 0-2.5 0-3-.7-.7-.8-.7-1.5-.7-2.7v-20.1H717v.9c1.7 0 2.7.7 3.3.8.8.7.9 1.5.9 2.9v15.8c-.7.8-1.5 1.5-2.1 1.9-1.3.8-2.6 1.3-3.9 1.3-1.9 0-3.2-.8-3.9-2.2-.8-.7-.8-1.8-.8-3.1v-18.3H702zm-24.3 2.9c-1.8 1.7-2.8 4.7-2.8 8.9 0 3.5.7 6.6 2.2 9.6 1.6 2.9 3.8 4.4 6.5 4.4 2.1 0 3.8-1 5-3 1.1-1.9 1.7-4.5 1.7-7.7 0-3.3-.8-6.4-2.2-9.3-1.5-2.9-3.7-4.4-6.4-4.4-1.6 0-2.9.7-4 1.5m-4.5.7c2.4-2.6 5.5-3.9 9.3-3.9 3.7 0 6.9 1.2 9.4 3.7s3.7 5.8 3.7 9.9c0 3.8-1.2 7.1-3.6 10-2.4 2.7-5.5 4.1-9.3 4.1-3.7 0-6.8-1.3-9.4-4-2.4-2.7-3.8-6-3.8-10.2 0-3.8 1.3-7 3.7-9.6m-28.5 22.9h14.1v-.9c-1.8 0-3 0-3.8-.9-.7-.8-1.1-1.8-1.1-3.5V275c0-1.1.8-2.2 1.4-3.3 1-1.1 1.8-1.6 2.5-1.6s1 0 1.7 1c.8.7 1.5.9 2.2.9.8 0 1.3 0 1.8-.7.7-.8.7-1.2.7-2 0-.9-.7-1.6-1-2.2-.7-.7-1.4-.9-2.3-.9-1.2 0-2.4.8-3.6 1.4-1.1 1-2.3 2.3-3.5 4.1V267v-.8c-1 .8-2 .9-3 1.3 0 0-1.2.7-2.3.8-1.2.7-2.3.7-3.3 1.1v1h1.7c1 0 1.6.7 1.9 1.3.8.8.8 2.1.8 4.1v12.9c0 1.5 0 2.5-.9 3-.8.7-1.7.8-3.4.9v.9zm-18.3-38.4c2.2.7 3.5 1 3.8 1 .9 0 1.5 0 1.8-.8.7 0 .7-.8.8-1.4h1.3l.8 12.3h-1.4c-1.2-2.8-2.4-4.9-3.6-6.3-2.4-2.4-5.4-3.7-9.1-3.7-3.7 0-7.1 1.4-9.9 4.3-2.8 2.9-4.3 7.5-4.3 14.1 0 5.3 1.5 9.5 4.3 12.6 2.8 3 6.3 4.5 10.5 4.5h2.5c1 0 1.9 0 2.8-.7 1.3-.7 2.2-.8 2.6-1.1 0-.8.7-.8.7-1.5v-9.3c0-2.3 0-3.7-.9-4.2-.7-.8-2-.9-4.2-1.1v-1.1h14.9v1.1c-1.4 0-2.4 0-2.9.8-.8.7-1.2 1.8-1.2 3.8v11.5c0 .7-1.6 1.5-5 2.7-3.4 1.2-6.6 1.7-9.7 1.7-5.7 0-10.6-1.7-14.4-4.9-4.4-3.8-6.5-8.7-6.5-14.8 0-5.5 1.7-10.2 5.1-14.1 3.8-4.2 8.8-6.4 15.1-6.4 2.3 0 4.5.8 6.7 1m-80.2 12.1h12.1v.8h-2.1c-.9 0-1.4.7-1.4 1.5v.8s0 .8.8 1.3l6.6 14.2 5.5-14.3v-1-1.2c0-.7 0-.9-.8-1.1-.7 0-.8-.7-1.3-.7h-.9v-.8h7.9v.8c-.8 0-1.4 0-1.8.8-.8.7-.8 1-1 1.9l-9 23.7c-1.6 4.2-3.1 7.2-4.5 9-1.4 1.8-3.2 2.8-5.4 2.8-1.1 0-2.1 0-3-.8-.9-.8-1.4-1.4-1.4-2.5 0-.9 0-1.5.8-2 .7-.7 1.2-.7 2.1-.7.8 0 1.2 0 2.2.7 1 .8 1.6.8 2.1.8 1 0 2.2-1.3 3.3-3.9 1.2-2.6 1.8-4.3 1.8-5.1v-.8-.7l-9-19.4c-.7-1.4-1.3-2.4-1.7-2.9-.8-.7-1.2-.7-2.2-.8v-.8zm-16.5 15.3c1.1-.9 1.7-2.5 1.7-4.8 0-1.8-.8-3.8-1.4-6.1-.9-2.3-2.5-3.4-4.6-3.4-1.9 0-3.2.9-3.9 2.7-.7.9-.7 2-.7 3.4 0 2.4.7 4.5 1.7 6.2 1.1 1.9 2.6 2.8 4.4 2.8 1 0 1.9 0 2.6-.8m-9.1 19.7c1.8.7 3.9.9 6.2.9 3.1 0 5.7-.7 7.7-1.6 2-1.2 3-2.5 3-4.2 0-1.2-.8-2-2.4-2.5-1 0-2.8-.7-5.6-.7h-6.4c-1 0-1.7 0-2.1-.8 0 0-.8.8-1.7 1.9-.9 1.2-1.4 2.3-1.4 3.3 0 1.7.9 2.8 2.7 3.4m-3-21.4c-1-1.4-1.5-3-1.5-4.9 0-2.2.9-4.3 2.7-6.3 1.7-2 4.3-3 7.6-3 1.3 0 2.9 0 4.5 1 1.7.7 3.3.9 4.9.9h3.5v2.3h-4.9c.8.9.8 1.5.8 2.1 0 1.2.8 2.2.8 3.2 0 2.2-.9 4.1-2.7 6-1.8 1.8-4.2 2.7-7.3 2.7h-2.6c-.7 0-1.2.8-2.1 1.4-.9.9-1.4 1.7-1.4 2.3 0 .7.8 1 2 1.3h2.9c4.9 0 8.3 0 10 .8 2.9.9 4.3 2.9 4.3 5.8 0 3-1.7 5.4-5 7.2-3.4 1.7-6.8 2.7-10.2 2.7-3.2 0-5.6-.7-7.5-1.9-1.8-1.3-2.8-2.6-2.8-4 0-.7 0-1.3.8-2 .7-.8 1.5-1.6 2.9-2.9l1.9-1.7.7-.8c-.9 0-1.5-.7-1.9-1-.8-.7-1.2-1.2-1.2-2 0-.7.7-1.5 1-2.3.7-.9 2-2.2 4.2-4.2-1.8-.7-3.1-1.5-4-3m-29.4-10.3c-2 1.7-2.9 4.7-2.9 8.9 0 3.5.8 6.6 2.3 9.6 1.5 2.9 3.7 4.4 6.5 4.4 2 0 3.8-1 4.9-3 1.2-1.9 1.7-4.5 1.7-7.7 0-3.3-.7-6.4-2.2-9.3-1.5-2.9-3.6-4.4-6.4-4.4-1.6 0-2.8.7-3.9 1.5m-4.6.7c2.4-2.6 5.5-3.9 9.3-3.9 3.8 0 6.9 1.2 9.4 3.7s3.7 5.8 3.7 9.9c0 3.8-1.2 7.1-3.6 10-2.4 2.7-5.5 4.1-9.3 4.1-3.7 0-6.7-1.3-9.3-4-2.6-2.7-3.8-6-3.8-10.2 0-3.8 1.2-7 3.6-9.6m-24.3 22.9h13.8v-.9c-1.7 0-2.9-.7-3.5-.9-.7-.7-.8-1.5-.8-3.2V254v-.8c-3.6 1.1-6.7 2-9.3 2.7v1h2.1c1.2 0 1.9.7 2.3 1.2v30.5c0 1.6 0 2.7-.9 3.2-.8.8-1.9.9-3.7 1.1v.8zm-24.8-23.6c-2 1.7-2.9 4.7-2.9 8.9 0 3.5.8 6.6 2.3 9.6 1.5 2.9 3.7 4.4 6.4 4.4 2.2 0 3.8-1 5-3 1.1-1.9 1.7-4.5 1.7-7.7 0-3.3-.7-6.4-2.2-9.3-1.4-2.9-3.6-4.4-6.4-4.4-1.5 0-2.8.7-3.9 1.5m-4.6.7c2.4-2.6 5.5-3.9 9.3-3.9 3.8 0 6.9 1.2 9.4 3.7s3.7 5.8 3.7 9.9c0 3.8-1.2 7.1-3.6 10-2.4 2.7-5.5 4.1-9.3 4.1-3.7 0-6.8-1.3-9.3-4-2.6-2.7-3.8-6-3.8-10.2 0-3.8 1.2-7 3.6-9.6m-37.4 22.1c1.4 0 2.3-.7 2.9-1 .7-.7.8-1.6.8-3.3v-14.5c0-1.3 0-2.1-.8-2.6-.7-.8-1-1.1-2.2-1.1h-.8-.7v-.9c.8 0 2.7-.9 5.6-1.8l2.7-.9v4.9c1.7-1.6 3.1-2.8 4.1-3.3 1.5-.9 3-1.4 4.6-1.4 1.3 0 2.5.8 3.5 1.1 2.1 1.4 3.1 4 3.1 7.7v13.4c0 1.3 0 2.3.9 3 .7.7 1.4.9 2.7.9v.8h-12.2v-.8c1.4 0 2.4-.8 2.9-1.2.8-.7.8-1.8.8-3.8v-12.1c0-1.7 0-3-.9-4.1-.7-1.1-1.7-1.6-3.3-1.6-1.1 0-2.3.7-3.5 1.1-.7.8-1.4 1.1-2.4 2.2v16c0 1.3 0 2.3.9 2.7.7.8 1.5.8 2.8.8v.8h-12.5v-.8zm-33.9.8h12.6v-.9c-1.7 0-2.7-.7-3.2-1.1-.7-.7-.7-1.8-.7-4v-14s.7-1 2.1-2.1c1.3-1.1 2.8-1.6 4.3-1.6 1.7 0 2.8.7 3.5 1.7.8 1.1.9 2.6.9 4.5v11.5c0 2.1 0 3.4-.7 4-.8.8-1.6.9-3.3 1.1v.9h12.4v-.9c-1.5 0-2.4-.7-2.9-1.2-.7-.7-.7-1.9-.7-3.9v-11.7c0-2.1-.8-3.9-1-5.3-1.1-2.6-3.2-3.8-6.3-3.8-1.9 0-3.7.7-5.3 1.7-1 .7-2.1 1.6-3.2 3v-17.7l-2.8.9c-.8 0-1.4.8-2.5.8-1.3.7-2.4.7-3.2.9v1h1.5c1.1 0 1.7 0 2 .8 0 .7.8 1.3.8 2.4v27.4c0 2.1 0 3.4-.8 4-.7.7-1.5 1-3 1.1v.8zm-9.9-25.1c1.7 1.2 2.6 2.6 2.6 4 0 .8 0 1.2-.7 1.8-.8.7-1.2.8-2.1.8-.7 0-1.2 0-1.8-.7-.7-.8-.8-1.1-1-2l-.7-1.4c0-1-.8-1.7-1.3-2.2-.8-.7-1.5-.7-2.6-.7-2.1 0-3.9 1-5.4 2.8-1.5 2-2.2 4.5-2.2 7.7 0 2.8.8 5.4 2.4 7.6 1.7 2.4 3.9 3.5 6.7 3.5 1.9 0 3.7-.8 5.3-2 .8-.7 1.8-1.8 2.9-3.5l.8.8c-1 2.3-2.2 4.1-3.4 5.4-2.4 2.6-5 3.9-8 3.9s-5.6-1.2-7.9-3.6c-2.3-2.3-3.4-5.5-3.4-9.5 0-3.9 1.2-7.3 3.7-10.2 2.5-2.8 5.6-4.2 9.4-4.2 2.4 0 4.5.7 6.2 1.8m-43.4 3.1c-.8 1-1.1 2.3-1.4 3.9h12.1c0-2-.8-3.4-1.2-4.3-.9-1.6-2.4-2.5-4.6-2.5-2.2 0-3.8.9-4.9 2.9m13.6-2.2c2 1.9 3 4.5 3 7.9h-18c0 4.4 1.2 7.7 2.9 9.7 1.8 2 4 3 6.5 3 1.9 0 3.6-.8 5-1.6 1.3-1.1 2.6-2.6 3.8-4.5h.9c-.7 2.5-2.2 4.7-4.3 6.7-2.1 2.1-4.8 3.2-7.9 3.2-3.6 0-6.3-1.4-8.3-4.1-1.9-2.7-2.9-5.9-2.9-9.4 0-3.8 1.1-7.1 3.4-9.9 2.3-2.8 5.2-4.1 8.8-4.1 2.7 0 5.1.9 7.1 2.7m-55.4-4.4h1.4c.7-3.1 1.5-5.1 2.6-6.1 1.2-.9 3.4-1.3 6.6-1.3h3.4v29.2c0 2.6 0 4.2-.9 4.7-.7.8-2.2 1.1-4.7 1.3v1.1h17.1v-1.1c-2.3 0-3.9-.7-4.6-1.1-.8-.7-1.1-1.9-1.1-4.2v-29.9h3.3c3.4 0 5.6.7 6.7 1.3 1 1 1.8 3 2.6 6.1h1.3v-9.9h-33.1v9.9zm-34.4 17.9c1.1-.9 1.7-2.5 1.7-4.8 0-1.8-.7-3.8-1.3-6.1-1-2.3-2.6-3.4-4.6-3.4-1.9 0-3.3.9-3.9 2.7 0 .9-.8 2-.8 3.4 0 2.4.8 4.5 1.7 6.2 1.2 1.9 2.7 2.8 4.5 2.8 1 0 1.9 0 2.6-.8m-9.1 19.7c1.7.7 3.8.9 6.2.9 3.1 0 5.7-.7 7.6-1.6 2.1-1.2 3-2.5 3-4.2 0-1.2-.8-2-2.4-2.5-1 0-2.9-.7-5.6-.7H223c-1 0-1.6 0-2.1-.8 0 0-.8.8-1.7 1.9-.9 1.2-1.3 2.3-1.3 3.3 0 1.7.9 2.8 2.7 3.4m-3-21.4c-1-1.4-1.5-3-1.5-4.9 0-2.2.9-4.3 2.7-6.3 1.7-2 4.2-3 7.5-3 1.3 0 2.9 0 4.6 1 1.7.7 3.2.9 4.8.9h3.6v2.3h-4.9c0 .9.7 1.5.8 2.1 0 1.2.7 2.2.7 3.2 0 2.2-.9 4.1-2.7 6-1.7 1.8-4.1 2.7-7.2 2.7h-2.6c-.8 0-1.3.8-2.2 1.4-.9.9-1.3 1.7-1.3 2.3 0 .7.7 1 1.9 1.3h3c4.9 0 8.2 0 9.9.8 3 .9 4.4 2.9 4.4 5.8 0 3-1.7 5.4-5.1 7.2-3.4 1.7-6.7 2.7-10.2 2.7-3.1 0-5.6-.7-7.4-1.9-1.8-1.3-2.8-2.6-2.8-4 0-.7 0-1.3.8-2 .7-.8 1.5-1.6 2.9-2.9l1.8-1.7.8-.8c-.9 0-1.5-.7-2-1-.8-.7-1.2-1.2-1.2-2 0-.7.8-1.5 1-2.3.8-.9 2.1-2.2 4.3-4.2-1.7-.7-3.2-1.5-4.1-3m-38 12.5c1.4 0 2.3-.7 2.9-1 .7-.7.8-1.6.8-3.3v-14.5c0-1.3 0-2.1-.8-2.6 0-.8-1-1.1-2.2-1.1h-.7-.8v-.9c.8 0 2.7-.9 5.6-1.8l2.7-.9v4.9c1.8-1.6 3.1-2.8 4.1-3.4 1.5-.9 3.1-1.4 4.7-1.4 1.3 0 2.4.8 3.5 1.1 2.1 1.5 3.1 4 3.1 7.7v13.4c0 1.4 0 2.3.9 3 .7.7 1.4.9 2.7.9v.8h-12.2v-.8c1.4 0 2.4-.8 2.9-1.1.8-.8.8-1.9.8-3.8v-12.2c0-1.7 0-3-.9-4.1-.7-1.1-1.7-1.6-3.3-1.6-1.1 0-2.3.8-3.5 1.1-.7.8-1.4 1.2-2.4 2.2v16c0 1.3 0 2.3.9 2.7.7.8 1.5.8 2.8.8v.8H179v-.8zm-15.7-38.3c.7-.7 1.2-.9 2.1-.9.9 0 1.5 0 2.1.9.8.8.9 1.3.9 2.1s0 1.6-.9 2.1c-.7.7-1.2.9-2.1.9-.9 0-1.5 0-2.1-.9-.8-.8-.8-1.3-.8-2.1s0-1.5.8-2.1m-4.5 38.2c2 0 3.4-.7 3.9-1 .7-.7.7-1.9.7-4.1v-13.5-2.6c0-.7-.9-1.2-1.8-1.2h-.7s-.8 0-1.7.8v-.9l1.2-.8c3.3-1.1 5.6-1.9 6.9-2.5h1.1v21.3c0 2.2 0 3.5.7 4 .7.8 1.7 1 3.6 1.1v.8h-13.9v-.8zm-16-2.9c.9-.9 1.4-1.8 1.4-2.5v-12.3c0-2.5-.8-4.2-2-5.2-1.3-1-2.6-1.5-3.9-1.5-2.4 0-4.2 1-5.6 3.2-1.2 2.1-1.9 4.7-1.9 7.8 0 3.1.7 5.8 2.1 8.1 1.4 2.4 3.5 3.7 6.3 3.7 1.5 0 2.7-.7 3.6-1.3m-.8-22.3c.7.8 1.5 1 2.2 1.7v-9.2-2.4c0-.7-.9-.7-1.8-.7h-.8-1.2v-.9l2.4-.7c.8 0 1.7-.8 2.6-.8.8 0 1.5-.7 2.2-.7 0 0 .8 0 1.5-.8v33.2c0 1.2 0 2.1.7 2.6 0 .7 1.2.7 2.5.7h1.5v1s-1.5.7-4.2 1.4l-4.5 1.7v-3.6c-1 1.2-1.9 2-2.7 2.5-1.4.9-3 1.3-4.8 1.3-3.3 0-5.9-1.3-7.9-3.7-2-2.6-3-5.5-3-8.8 0-4.1 1.2-7.7 3.6-10.6 2.4-3 5.3-4.5 8.9-4.5 1.3 0 2.6 0 3.8.9m-32 10.6c-2.2.8-4 1.5-5.4 2.4-2.8 1.7-4.1 3.7-4.1 5.8 0 1.8.7 3 1.7 3.9.7.7 1.5.7 2.4.7 1.3 0 2.5 0 3.7-1 1.1-.8 1.7-1.6 1.7-2.7v-9.1zm-10.4 3.3c1.7-1.2 5.2-2.7 10.4-4.7v-2.4c0-1.9 0-3.3-.7-4.1-.8-1.3-2.1-1.9-4.1-1.9-.9 0-1.8 0-2.7.8-.9.7-1.4 1.2-1.4 2.1v2.2c0 1.1 0 1.8-1 2.2-.8 0-.9.7-1.4.7-.87 0-1.54 0-1.99-.8-.74-.7-.74-1.2-.74-1.8 0-1.4.82-2.7 2.43-4.2 1.7-1.4 4.1-2.2 7.3-2.2 3.6 0 6.2 1.2 7.4 3.6.8 1.3 1.2 3.2 1.2 5.7v13.7c0 .8.7 1.3 1.5 1.3h1.1s.7-.8 1.5-1.1v1.6c-.8.7-1.4 1.3-2 1.8-1.1.7-2.2 1-3.3 1-1.3 0-2.3-.7-2.8-1.2-.7-.9-.9-1.9-1-3-1.5 1.2-2.7 2.1-3.7 2.7-1.7 1.1-3.4 1.6-4.9 1.6-1.7 0-3.09-.7-4.29-1.7-1.19-1.2-1.79-2.6-1.79-4.4 0-2.8 1.42-5.1 4.18-6.9m-28.82-9.9c-.75 1-1.04 2.3-1.27 3.9h11.95c0-2-.75-3.4-1.12-4.3-.9-1.6-2.47-2.5-4.63-2.5-2.17 0-3.81.9-4.93 2.9m13.59-2.2c2.02 1.9 3.06 4.5 3.06 7.9H70.46c0 4.4 1.2 7.6 2.99 9.7 1.79 2 3.96 2.9 6.42 2.9 1.94 0 3.66-.7 5-1.5 1.35-1.1 2.62-2.6 3.81-4.5h.97c-.75 2.5-2.24 4.7-4.33 6.7-2.16 2.1-4.78 3.2-7.91 3.2-3.59 0-6.35-1.4-8.29-4.1-1.94-2.7-2.91-5.9-2.91-9.4 0-3.8 1.12-7.1 3.36-9.9 2.31-2.8 5.22-4.1 8.88-4.1 2.69 0 5 .9 7.02 2.7m-59.59 23.4c2.17 0 3.51-.7 4.18-1.1.75-.8.98-2 .98-4.1v-26.2c0-2-.75-3.4-.98-4-.74-.7-2.01-1-4.18-1.2v-1.1h16.51v1.1c-2.1 0-3.59.8-4.34 1.1-.74.7-1.04 1.8-1.04 3.8V290c0 .8.75.8 1.42.8h4.1c5.23 0 8.74-.8 10.61-1.3 1.79-.9 3.58-3.1 5.3-6.6h1.49l-2.91 10.2H25.58V292zM22 223.8h748.2v-3H22v3z"/><path d="M619.37 239.1C583.75 109.02 451.73 15.757 298.58 22.327c-28.67 1.19-56.15 5.9-82.21 13.44 2.84 0 5.67 0 8.51-.75 169.58-7.24 319.89 76.473 394.49 203.853" opacity=".5"/></svg>