<svg xmlns="http://www.w3.org/2000/svg" viewBox="0 0 184 90"><path d="M153.06 83.523c.11.05.21.102.31.15a12.166 12.166 0 0 0 2.48 1.064c.23.038.47.088.72.13.25.03.49.06.72.06h.37c.51-.06 1.01-.228 1.48-.52.47-.305.82-.752 1.06-1.344.1-.136.13-.262.17-.397 0-.134.1-.27.11-.425v-.39-.386c0-.908-.32-1.754-.93-2.52a15.85 15.85 0 0 0-2.06-2.122c-.26-.207-.51-.41-.74-.603-.23-.193-.47-.383-.71-.574a17.29 17.29 0 0 1-2.35-2.404 7.115 7.115 0 0 1-1.4-3.086v-.312-.31-.1c0-.105-.1-.227-.1-.36v-.346c0-.946.21-1.88.61-2.768a6.88 6.88 0 0 1 1.7-2.31c.53-.492 1.1-.86 1.72-1.092a7.24 7.24 0 0 1 1.92-.426h.48c.33 0 .67.01 1.01.05.35.04.7.102 1.06.178.43.1.83.22 1.23.35.41.13.81.294 1.2.47v3.414c0-.02-.11-.05-.18-.09-.1-.05-.12-.08-.17-.105-.35-.175-.71-.355-1.12-.518-.4-.177-.81-.306-1.23-.41-.24-.06-.48-.103-.71-.142-.23-.04-.47-.06-.7-.06h-.24a3.73 3.73 0 0 0-1.53.435c-.49.256-.88.682-1.18 1.277-.1.16-.14.332-.21.528-.1.19-.11.39-.14.6V69.314c0 .208.1.408.14.61.1.192.14.372.21.55.43.805.95 1.5 1.61 2.087.66.586 1.33 1.16 2.04 1.734.78.622 1.54 1.28 2.25 1.946a7.075 7.075 0 0 1 1.67 2.46c.1.23.17.493.24.796 0 .302.1.59.11.88v1.381c0 .17 0 .344-.1.527 0 .436-.14.88-.25 1.322-.12.443-.27.848-.46 1.2-.57 1.173-1.38 1.997-2.43 2.483a7.68 7.68 0 0 1-4.01.678c-.24-.02-.5-.05-.76-.07a7.368 7.368 0 0 1-1.65-.353c-.55-.182-1.06-.395-1.53-.625v-3.543c.1.05.18.103.27.16m-11.7-21.2h3.52v25.495h-3.52zm-19.95-.02h12.93v3.173h-4.75v22.342h-3.49V65.494h-4.69zm-11.25 17.69v-17.67h3.21v25.495h-3.21l-6.74-17.863V87.83h-3.33V62.338h3.25zM82.104 62.323h3.252l5.952 25.51h-3.404l-1.293-5.07h-5.84l-1.212 5.07h-3.49zm1.647 6.592L81.4 79.922h4.66zM60.32 87.832h-3.49v-25.51h4.198c2.353 0 4.216.428 5.602 1.303 1.388.878 2.074 2.62 2.074 5.215 0 1.768-.35 3.21-1.037 4.325-.696 1.117-1.955 1.808-3.776 2.103L70 87.832h-3.764l-5.833-12.398h-.09v12.398zm0-14.39c1.44 0 2.607-.188 3.513-.603.894-.402 1.354-1.473 1.388-3.22v-.47c0-1.797-.387-2.875-1.18-3.237-.78-.37-2.018-.554-3.72-.554zM44.77 62.34h3.527v25.494H44.77zM27.607 80.012l3.522-17.674h2.98l2.232 25.494h-3.215l-1.01-17.916-3.452 17.916h-2.35l-3.37-17.916-1.057 17.916h-3.14l2.162-25.494h3.136zM151.23 2l.53 3.604c-12.19.07-23.89 1.996-35.07 5.68-9.34 3.11-19.8 8.078-31.393 14.966-14.51 8.802-24.58 14.435-30.09 17.015-11.855 5.567-23.853 8.737-36.03 9.475 14.036.527 27.363-1.26 40.14-5.432 9.41-3.11 20.01-8.15 31.735-15.168 12.858-7.547 22.798-12.848 29.818-15.963 10.1-4.334 20.4-7.587 31-9.74l.53 3.576 11.49-5.76zM182 22.66C151.22 61.376 96.992 58.748 80.61 38.58c9.786 6.453 28.21 13.74 39.3 11.352-17.49-2.98-27.367-11.934-30.006-15.783 6.084 4.362 22.026 14.26 37.956 11.37-11.19-1.37-24.22-7.04-29.59-16.324 9.01 6.61 24.45 15.443 38.78 12.263-12.35-1.75-25.02-7.404-30.66-17.53 10.07 6.924 47.32 21.68 75.61-1.27M2 32.566C32.808-6.066 85.788-3.797 102.17 16.36 92.387 9.92 77.99 5.008 66.728 6.62c17.766 2.204 23.42 10.354 26.146 14.18C86.698 16.46 71.03 6.96 55.1 9.85c11.19 1.37 24.046 6.617 29.32 15.93-9.01-6.622-24.09-15.077-38.41-11.81 12.34 1.665 24.74 6.917 30.286 17.067C66.32 24.093 30.31 9.7 2 32.565"/></svg>