<svg xmlns="http://www.w3.org/2000/svg" viewBox="0 0 1043 279.9"><path d="M245.5 93.9h46.4v152.2h-46.4zm75.4.3h46.5v151.9h-46.5zm-148-70.5h43.6v222.4h-43.6zM22 23.7h46.5v222.4H22zm75.5 0h46.4v152.1H97.5zm223.4 0h121.9v44.6H320.9zm-75.4 0h46.4v44.6h-46.4zm647.4 183.5l-12.8 40.4c-.9 2.5-1.7 4.7-3.5 6.8-2.5 2.8-4.9 3-7.7 3h-7.8v-8.7h3.8c1.7 0 4.5 0 4.5-2.7 0-1-.3-1.9-.5-2.7L858 207.2h11.4l6 26.8 6-26.8h11.5m-49.8 32.4c-2.1 1.4-4.7 3.2-9.6 3.2-3 0-6-.8-8.3-2.5-4.9-3.2-6.8-9-6.8-15.5 0-7.5 3.4-18.3 15.5-18.3 5.6 0 8.1 2.5 9.8 4.1v-3.5h10V243c-.1 4.1-.3 8.9-5.6 12.1-3.7 2.3-9.1 2.8-12.4 2.8-7.3 0-12-2.5-14-4.6-2.8-3-2.8-6.7-2.8-8.8H830c.2 1.7.3 4.1 3.2 5.4.7.4 1.7.7 3.4.7 6.5 0 6.5-3.9 6.5-7zm-13.6-14.8c0 3.1.2 9.6 6.8 9.6 5.5 0 6.7-4.3 6.7-9.6 0-1.8-.1-5.5-1.3-7.3-.8-1.4-2.8-2.9-5.9-2.8-5.1.3-6.3 4.8-6.3 10.1m-13 1.2c0 9.5-5.3 19.8-19.6 19.8-10.2 0-19.6-6-19.6-19.8 0-11.5 7.1-20.6 21-19.8 14.9.9 18.2 13 18.2 19.8m-26.5-7.4c-1.4 2.2-1.8 4.7-1.8 7.3 0 6 2.7 11.2 8.7 11.2 5.8 0 8.7-4.8 8.7-10.7 0-4.1-1-7.4-3-9.4-2.2-2.1-4.7-2.2-6.3-2-3.1.2-4.9 1.3-6.3 3.6m-20.1 26.2h-13.3v-50.5h13.3zM750 226c0 9.5-5.3 19.8-19.6 19.8-10.2 0-19.6-6-19.6-19.8 0-11.5 7.1-20.6 21-19.8 14.9.9 18.2 13 18.2 19.8m-26.5-7.4c-1.4 2.2-1.8 4.7-1.8 7.3 0 6 2.7 11.2 8.7 11.2 5.8 0 8.7-4.8 8.7-10.7 0-4.1-1-7.4-3-9.4-2.2-2.1-4.7-2.2-6.3-2-3.1.2-4.9 1.3-6.3 3.6m-40-8c1.1-1.1 1.7-2 3.6-2.9 1.7-.8 4.1-1.4 6.7-1.4 2.1 0 4.6.4 6.5 1.5 3.8 2.1 4.8 5.5 4.8 11.3v25.5h-10.7v-21c0-3.4-.1-4.6-.5-5.6-.8-2-2.7-2.9-4.8-2.9-5.7 0-5.7 4.7-5.7 9.3v20.2h-10.7v-37.3h10.8v3.3m-43.3-16.7v17.2c1.5-1.6 4.7-4.9 10.5-4.9 2.6 0 5.6.7 7.7 2.6 3.2 2.8 3.8 6.3 3.8 11.2v24.6h-10.7V225c0-3-.1-4.4-.5-5.7-1-3.4-3.9-3.8-5-3.8-1.9 0-3.5 1-4.4 2.2-1.4 1.9-1.4 5-1.4 8.2v18.7h-10.7v-50.7h10.7m-13.3 42c-1.3 2.1-2.8 4.5-5.7 6.7-2.8 2-6.4 3.3-10.5 3.3-7 0-18.1-4.3-18.1-19.5 0-10.9 6.2-20.1 18.3-20.1 4.1 0 11 1.2 15.6 9l-8 4.6c-.6-1.3-1.3-2.6-3.1-3.9-1-.7-2.3-1.3-4-1.3-5.8 0-7.8 6.8-7.8 11.3 0 5 2.4 11.2 8.1 11.2.6 0 3.3 0 5.5-2.6.9-1.1 1.3-1.9 1.6-3l8.1 4.3m-36.5-.7c-1.3 1.9-2.5 3.8-4.4 5.6-3.1 3-7.9 5.3-13.8 5.3-10.8 0-18.4-7.1-18.4-19.4 0-9 4.3-20.6 18.7-20.6 2.2 0 8.5.2 13.1 5.4 4.8 5.2 5.1 12.5 5.2 16.7h-26c-.1 4.7 2.5 9.4 8.3 9.4 5.8 0 7.9-4 9.2-6.6zm-10.7-13.8c-.2-1.6-.5-3.7-2-5.3-1.3-1.4-3.4-2.1-5.2-2.1-2.6 0-4.4 1.3-5.5 2.4-1.5 1.7-1.8 3.4-2.2 5h14.9m-62.5-27.5h38v10h-12.8v40.7h-12.3v-40.7h-12.9zM873 117.5c0-1.9.1-4.4 1.5-6.4 1.4-1.8 4.4-3.8 9.4-3.8 2.2 0 4.3.4 6.4.7v8.2h-2.6c-4 0-4.2.9-4.2 5.9h7.2v6.7h-7.1v29.8h-10.7v-29.8h-5.7v-6.7h5.8v-4.6M863 140c0 9.5-5.3 19.8-19.5 19.8-10.3 0-19.7-6-19.7-19.8 0-11.5 7.1-20.6 21-19.8 14.9.9 18.2 13 18.2 19.8m-26.5-7.4c-1.4 2.2-1.8 4.7-1.8 7.3 0 6 2.7 11.2 8.8 11.2 5.7 0 8.6-4.8 8.6-10.7 0-4.1-1-7.4-3-9.4-2.2-2.1-4.7-2.2-6.3-2-3.1.2-4.9 1.2-6.3 3.6m-33.3 16.6c-1.3 1.9-2.5 3.8-4.4 5.6-3.1 3-7.9 5.3-13.8 5.3-10.8 0-18.4-7.1-18.4-19.4 0-9 4.3-20.6 18.7-20.6 2.2 0 8.5.2 13.2 5.4 4.7 5.2 5 12.5 5.1 16.7h-26c-.1 4.7 2.5 9.4 8.3 9.4 5.8 0 7.9-4 9.2-6.6zm-10.7-13.8c-.2-1.6-.5-3.7-2-5.3-1.3-1.4-3.4-2.1-5.2-2.1-2.6 0-4.4 1.3-5.5 2.4-1.5 1.7-1.8 3.4-2.2 5h14.9m-49.2-24.7H754v11.7h7v6.7h-7.1v16.8c-.1 2.4-.1 4.3 2.8 4.3h3.9v8.6c-2.4.3-3.8.4-5.7.4-3.7 0-7.8-.3-10.1-3.6-1.4-2.3-1.5-4.9-1.5-8.5V129H738v-6.7h5.3v-11.6m-19.9 10.6h10.8v37.4h-10.8v-3.6c-1 1.2-1.7 2-3.6 2.9-2.2 1.2-4.6 1.8-6.9 1.8-2.4 0-6.8-.4-9.3-4-1.9-2.7-2.3-4.9-2.3-11v-23.5h10.9v23.2c0 1.7 0 3.3.8 4.5.6.8 2.1 1.8 4.3 1.8.6 0 2.1 0 3.7-.9 2.3-1.4 2.3-3.3 2.4-5.3v-23.3m-46.6-10.6h10.7v11.7h7v6.7h-7.1v16.8c-.1 2.4-.1 4.3 2.8 4.3h3.8v8.6c-2.3.3-3.7.4-5.6.4-3.7 0-7.8-.3-10.1-3.6-1.4-2.3-1.5-4.9-1.5-8.5V129h-5.3v-6.7h5.3v-11.6m-19.9-2.8h9.9v8.6h-9.9zm0 13.4h9.9v37.5h-9.9zm-23.3-10.6h10.7v11.7h7v6.7h-7.1v16.8c-.1 2.4-.1 4.3 2.8 4.3h3.8v8.6c-2.3.3-3.7.4-5.6.4-3.7 0-7.8-.3-10.1-3.6-1.4-2.3-1.5-4.9-1.5-8.5V129h-5.3v-6.7h5.3v-11.6M597 146.2c2.9 2.9 6.6 5.2 10.6 5.2 2.6 0 6.5-.9 6.5-3.7 0-1.3-.8-1.8-1.4-2.1-1.6-.9-4.1-1.1-6.2-1.5-1.6-.3-3.3-.6-4.9-1.1-2.2-.7-4.5-1.6-6.1-3.2-1.6-1.7-2.7-4.3-2.7-7.1 0-6.1 5.2-12.5 15.4-12.5 8.6 0 13.7 3.8 16.2 5.6l-6.6 6.3c-3.4-2.7-6.6-3.7-9.1-3.7-4.2 0-5.2 1.7-5.2 2.8 0 2.1 2.3 2.5 5.8 3.2 7.3 1.3 15.8 3.3 15.8 12.2 0 8.8-8.6 13.1-17.2 13.1-10.1 0-15.4-5-17.7-7.2l6.8-6.3m-33.2-21.5c1-1.1 1.7-2 3.6-2.9 1.7-.8 4.1-1.4 6.7-1.4 2.1 0 4.6.4 6.5 1.5 3.8 2.1 4.8 5.5 4.8 11.3v25.5h-10.7v-21c0-3.4-.1-4.6-.5-5.6-.8-2-2.7-2.9-4.8-2.9-5.7 0-5.7 4.7-5.7 9.3v20.2H553v-37.3h10.8v3.3m-20 34.1h-13.3v-50.5h13.3zm448.9-98.6c2.9 2.9 6.6 5.2 10.3 5.2 3 0 7-.9 7-3.7 0-1.3-1-1.8-2-2.1-1-.9-4-1.1-6-1.5-1-.3-3.1-.6-4.7-1.1-2.2-.7-4.5-1.6-6.1-3.3-1.6-1.6-2.7-4.2-2.7-7 0-6.1 5.2-12.5 15.5-12.5 8 0 14 3.8 16 5.6l-7 6.3c-3-2.7-6-3.7-9-3.7-4 0-4.8 1.7-4.8 2.8 0 2.1 1.8 2.5 5.8 3.2 7 1.3 16 3.3 16 12.2 0 8.8-9 13.1-17 13.1-10.5 0-15.8-5-18.1-7.2l6.8-6.3m-26.6-35.5h10.7v11.7h7v6.7h-7.1v16.8c-.1 2.3-.1 4.3 2.8 4.3h3.8v8.6c-2.3.3-3.7.6-5.6.6-3.7 0-7.8-.4-10.1-3.7-1.4-2.4-1.5-5-1.5-8.6V43h-5.3v-6.7h5.3V24.7m-20 0h10.7v11.7h7v6.7h-7.1v16.8c0 2.3 0 4.3 2.8 4.3h3.9v8.6c-2.4.3-3.8.6-5.7.6-3.7 0-7.8-.4-10.1-3.7-1.4-2.4-1.5-5-1.5-8.6V43h-5.3v-6.7h5.3V24.7m-9.9 38.5c-1.3 1.9-2.5 3.8-4.4 5.6-3.1 3-7.9 5.3-13.8 5.3-10.8 0-18.4-7.1-18.4-19.4 0-9 4.3-20.6 18.7-20.6 2.2 0 8.5.2 13.1 5.4 4.8 5.2 5.1 12.5 5.2 16.7h-26c-.1 4.7 2.5 9.4 8.3 9.4 5.8 0 7.9-4 9.2-6.6zm-10.7-13.8c-.2-1.6-.5-3.7-2-5.3-1.3-1.4-3.4-2.1-5.2-2.1-2.6 0-4.4 1.3-5.5 2.4-1.5 1.7-1.8 3.4-2.2 5h14.9m-55.8 10.8c2.9 2.9 6.6 5.2 10.6 5.2 2.6 0 6.5-.9 6.5-3.7 0-1.3-.8-1.8-1.4-2.1-1.6-.9-4.1-1.1-6.2-1.5-1.6-.3-3.3-.6-4.9-1.1-2.2-.7-4.5-1.6-6.1-3.3-1.6-1.6-2.7-4.2-2.7-7 0-6.1 5.2-12.5 15.4-12.5 8.6 0 13.7 3.8 16.2 5.6l-6.6 6.3c-3.4-2.7-6.6-3.7-9.1-3.7-4.2 0-5.2 1.7-5.2 2.8 0 2.1 2.3 2.5 5.8 3.2 7.3 1.3 15.8 3.3 15.8 12.2 0 8.8-8.6 13.1-17.2 13.1-10.1 0-15.4-5-17.7-7.2l6.8-6.3m-23.3-24.9h10.8v37.4h-10.8v-3.6c-1 1.2-1.7 2-3.6 2.9-2.2 1.2-4.6 1.8-6.9 1.8-2.4 0-6.8-.4-9.3-4-1.9-2.7-2.3-4.9-2.3-11V35.3h10.9v23.2c0 1.7 0 3.3.8 4.5.6.8 2.1 1.8 4.3 1.8.6 0 2.1 0 3.7-.9 2.3-1.4 2.3-3.3 2.4-5.3V35.3M793.2 22v17.2c1.5-1.6 4.7-5 10.5-5 2.6 0 5.6.8 7.7 2.7 3.2 2.8 3.8 6.3 3.8 11.2v24.6h-10.7V53.1c0-3-.1-4.4-.5-5.7-1-3.4-3.9-3.8-5-3.8-1.9 0-3.5 1-4.4 2.2-1.4 1.9-1.4 5-1.4 8.2v18.7h-10.7V22h10.7m-13.3 41.9c-1.3 2.1-2.8 4.5-5.7 6.7-2.8 2-6.4 3.3-10.5 3.3-7 0-18.1-4.3-18.1-19.5 0-10.9 6.2-20.1 18.3-20.1 4.1 0 11 1.2 15.6 9l-8 4.6c-.6-1.3-1.3-2.6-3-3.9-1.1-.7-2.4-1.3-4.1-1.3-5.8 0-7.7 6.8-7.7 11.3 0 5 2.3 11.2 8.1 11.2.5 0 3.2 0 5.4-2.6.9-1.1 1.3-1.9 1.6-3l8.1 4.3m-73.2-18.1c.2-2.6.6-5.7 3.8-8.3 3.4-2.7 7.7-3.3 12-3.3 4.5 0 15.3 1.1 15.3 10.7v21.8c0 4 .2 4.6 1 5.9h-10.5v-3.4c-2.7 2-5.8 4.4-11.2 4.4-8.4 0-11.9-6.2-11.9-11.4 0-6 4.6-9.4 7.6-10.7 3-1.3 9.9-2.6 14.4-3.5v-2c-.1-1.7-.2-4.6-4.1-4.6-4.7 0-5.4 3-5.7 4.4zM720.3 57c-1.8.8-4.6 1.8-4.6 4.7 0 1.8 1.5 3.8 4.1 3.8 1.3 0 2.5-.5 3.7-1.2 3.5-2.3 3.7-5.7 3.7-9.6l-6.9 2.3m-46.8 3.2c2.9 2.9 6.6 5.2 10.6 5.2 2.6 0 6.5-.9 6.5-3.7 0-1.3-.8-1.8-1.4-2.1-1.6-.9-4.1-1.1-6.2-1.5-1.6-.3-3.3-.6-4.9-1.1-2.2-.7-4.5-1.6-6.1-3.3-1.6-1.6-2.7-4.2-2.7-7 0-6.1 5.2-12.5 15.4-12.5 8.6 0 13.7 3.8 16.2 5.6l-6.6 6.3c-3.4-2.7-6.6-3.7-9.1-3.7-4.2 0-5.2 1.7-5.2 2.8 0 2.1 2.3 2.5 5.8 3.2 7.3 1.3 15.8 3.3 15.8 12.2 0 8.8-8.6 13.1-17.2 13.1-10.1 0-15.4-5-17.7-7.2l6.8-6.3m-36.6 0c2.9 2.9 6.6 5.2 10.6 5.2 2.6 0 6.5-.9 6.5-3.7 0-1.3-.8-1.8-1.4-2.1-1.6-.9-4.1-1.1-6.2-1.5-1.6-.3-3.3-.6-4.9-1.1-2.2-.7-4.5-1.6-6.1-3.3-1.6-1.6-2.7-4.2-2.7-7 0-6.1 5.2-12.5 15.4-12.5 8.6 0 13.7 3.8 16.2 5.6l-6.6 6.3c-3.4-2.7-6.6-3.7-9.1-3.7-4.2 0-5.2 1.7-5.2 2.8 0 2.1 2.3 2.5 5.8 3.2 7.3 1.3 15.8 3.3 15.8 12.2 0 8.8-8.6 13.1-17.2 13.1-10.1 0-15.4-5-17.7-7.2l6.8-6.3m-43.2-14.4c.2-2.6.6-5.7 3.8-8.3 3.4-2.7 7.7-3.3 12-3.3 4.4 0 15.3 1.1 15.3 10.7v21.8c0 4 .2 4.6 1 5.9h-10.5v-3.4c-2.7 2-5.8 4.4-11.2 4.4-8.4 0-11.9-6.2-11.9-11.4 0-6 4.6-9.4 7.6-10.7 3-1.3 9.9-2.6 14.4-3.5v-2c-.1-1.7-.3-4.6-4.1-4.6-4.7 0-5.4 3-5.7 4.4zM607.3 57c-1.8.8-4.6 1.8-4.6 4.7 0 1.8 1.5 3.8 4.1 3.8 1.3 0 2.5-.5 3.7-1.2 3.5-2.3 3.7-5.7 3.7-9.6l-6.9 2.3m-23.6-34.7v50.6h-11.8l.8-36.1.1-5-.4 1.8c-.6 2.8-.7 3.2-1.3 5.3l-9.3 34h-10.6l-8.9-32.5-2.2-9.1c.3 4 .3 4.9.4 9.7l.7 31.9h-12V22.3h18.1l7.5 28.4 1.7 8.1c.7-3.5.8-3.9 1.4-6.3l7.9-30.2h17.9"/></svg>