<svg xmlns="http://www.w3.org/2000/svg" viewBox="0 0 235.637 86.9219"><path d="M41.18 33.236c-.965 1.354-4.444 6.696-8.103 12.234l-4.347-8.038-5.22 13.94c3.15 7.935 10.892 13.55 19.95 13.55 2.77 0 5.415-.53 7.85-1.488-1.088-5.78-4.403-21.262-10.13-30.198m-12.736-1.373l4.62 7.732s2.916-5.508 8.097-14.903c0 0 9.085 8.692 16.974 34.42 4.175-3.917 6.786-9.477 6.786-15.65C64.92 31.61 55.31 22 43.46 22 31.607 22 22 31.61 22 43.46c0 2.318.37 4.544 1.05 6.633.56-1.884 3.917-13.22 5.394-18.23M212.33 37.26c.228 0 .385-.06.385-.25 0-.18-.15-.238-.392-.238h-.3v.49h.306zm-.578-.723h.57c.397 0 .65.143.65.462 0 .338-.308.44-.345.448l.34.62h-.31l-.29-.575h-.345v.575h-.27v-1.53zm.583 1.878c.627 0 1.065-.456 1.065-1.087 0-.632-.438-1.083-1.065-1.083-.62 0-1.07.45-1.07 1.083 0 .63.45 1.087 1.07 1.087m0-2.383c.758 0 1.302.538 1.302 1.296 0 .763-.544 1.3-1.302 1.3-.752 0-1.296-.537-1.296-1.3 0-.758.543-1.296 1.295-1.296m-74.982-.67c0 .824-.672 1.464-1.498 1.464-.854 0-1.494-.64-1.494-1.496 0-.853.64-1.494 1.495-1.494.856 0 1.498.67 1.498 1.526m42.69 5.472v-2.59h-.616c-1.088 0-2.18.342-2.96.955-.613.475-1 .953-1.477 2.077V38.63h-2.543v15.69h2.543v-7.968c0-1.806.282-2.726.966-3.713.783-1.16 1.973-1.808 3.37-1.808l.716.002m21.455-2.31v2.31c1.363-1.84 2.627-2.59 4.57-2.59 1.43 0 2.725.48 3.644 1.295.99.953 1.33 2.043 1.33 4.19v10.59h-2.545V44.307c0-1.396-.214-2.146-.623-2.69-.442-.65-1.398-1.056-2.45-1.056-1.16 0-2.216.443-3 1.328-.75.817-.925 1.57-.925 2.863v9.57h-2.757V38.523h2.757m-36.05 15.797h2.862v-21.4h-2.862v21.4zm-16.753-8.788c.202-1.235.4-1.868.87-2.602.9-1.337 2.435-2.138 4.138-2.138 1.702 0 3.272.8 4.24 2.103.534.77.833 1.437.933 2.637h-10.18zm12.82.87c0-4.507-3.34-7.88-7.812-7.88-4.507 0-7.745 3.373-7.745 8.115 0 4.67 3.27 8.01 7.843 8.01 2.937 0 5.575-1.567 6.843-4.136l-2.3-.733c-.92 1.543-2.68 2.534-4.543 2.534-2.803 0-4.805-2.014-5.14-4.988h12.82c.035-.366.035-.685.035-.92m-20.77 7.9V32.876l2.536-.81v22.238h-2.535m-6.15.017h2.537V38.523h-2.537V54.32zm-9.982-1.78c-3.004 0-5.007-2.337-5.007-5.84 0-3.37 2.17-5.81 5.106-5.81 2.906 0 4.976 2.47 4.976 5.91s-2.037 5.74-5.075 5.74m.434-13.92c-2.238 0-3.873.903-5.407 3.005V32.14l-2.538.898V54.32h2.538v-2.58c1.5 2.103 3.17 3.004 5.54 3.004 4.206 0 7.178-3.303 7.178-8.01 0-4.776-3.003-8.114-7.31-8.114M102 46.7c0 3.405 2.103 5.71 5.24 5.71 3.038 0 5.21-2.372 5.21-5.71 0-3.438-2.07-5.743-5.177-5.743-3.17 0-5.273 2.305-5.273 5.743m13.052.033c0 4.505-3.438 8.012-7.877 8.012-4.574 0-7.78-3.338-7.78-8.078 0-4.774 3.206-8.045 7.878-8.045 4.54 0 7.78 3.37 7.78 8.11M94.65 37.02V54.32h2.837V32.905h-2.842l-7.406 9.467-7.405-9.466h-2.81V54.32h2.862V37.02l7.352 9.48 7.41-9.48m88.66 9.608c0 3.405 2.103 5.708 5.242 5.708 3.04 0 5.208-2.37 5.208-5.708 0-3.438-2.07-5.742-5.177-5.742-3.17 0-5.272 2.304-5.272 5.742m13.052.033c0 4.505-3.438 8.012-7.877 8.012-4.573 0-7.778-3.34-7.778-8.08 0-4.772 3.205-8.044 7.876-8.044 4.54 0 7.78 3.37 7.78 8.11"/></svg>