<svg xmlns="http://www.w3.org/2000/svg" viewBox="0 0 187.7 151" version="1"><path d="M108.9 5c-8.3 8.25-15.56 18.26-21.11 29.74-.39.82-.78 1.65-1.16 2.48a111.74 111.74 0 0 0-3.99 10.06c-.17.49-.33.99-.49 1.48-.11.33-.22.66-.33 1-.49-.37-.99-.74-1.49-1.1-1.14-.8-2.29-1.58-3.47-2.33a91.055 91.055 0 0 0-6.67-3.85c-.21-.11-.42-.22-.64-.34-.63-.32-1.27-.63-1.9-.94-.63-.3-1.28-.6-1.93-.9a98.91 98.91 0 0 0-3.94-1.66c-1.33-.52-2.68-1.02-4.05-1.48-.68-.23-1.37-.45-2.06-.67-.2-.1-.41-.12-.62-.18-.99-.3-1.99-.59-3-.86-.19-.1-.38-.1-.57-.15-.17-.1-.35-.1-.52-.13-1.24-.32-2.5-.61-3.76-.87-5.64 18.63-9.6 62.24 20.49 78.5-4.56-10.7-7.27-22.92-7.54-35.98h.22c5.76 0 11.33 1.12 16.58 3.2.1 0 .15.1.22.1.29.11.57.23.85.35.3.13.6.25.89.38 0 0 .11 0 .17.1.22.1.45.21.68.32.1 0 .17.1.26.13.1 0 .12 0 .18.1l.63.3c.36.18.72.38 1.07.57.28.15.56.29.84.44.1.1.18.11.27.17.4.22.8.45 1.2.69.13.1.26.15.39.23.41.25.82.52 1.23.79.19.12.39.24.58.37a42.07 42.07 0 0 1 3.18 2.31c.14.11.28.21.42.32l.48.39.1.1c.38.32.77.63 1.15.96.32-.84.65-1.67.99-2.49.14-.34.29-.68.43-1.01.21-.47.41-.95.61-1.41.36-.8.72-1.58 1.1-2.35.12-.23.23-.45.34-.67.27-.54.54-1.08.82-1.6.19-.35.38-.7.57-1.04.13-.22.24-.44.37-.66.1-.18.2-.37.3-.55 0-.1.1-.11.1-.17.18-.31.36-.6.54-.9v-.1c0-.1.1-.12.11-.19.17-.29.34-.58.52-.87v-.1l.1-.1c.41-.67.84-1.34 1.27-2 .19-.25.39-.5.49-.75.3-.47.7-.93 1-1.39 3.8-5.37 8.2-10.01 13.1-13.75 7.2 12.9 11.5 28.91 11.5 46.26 0 3.2-.1 6.3-.4 9.4 34.3-40.16-.3-91.61-16.7-107.7zM47.57 129.2c-4.67 0-8.43 3.7-8.43 8.4s3.76 8.4 8.43 8.4 8.43-3.7 8.43-8.4-3.76-8.4-8.43-8.4zm126.73 0c-4.7 0-8.4 3.7-8.4 8.4s3.7 8.4 8.4 8.4c2.3 0 4.5-1 6-2.5v1.3c0 .7.5 1.2 1.2 1.2s1.2-.5 1.2-1.2v-14.4c0-.7-.5-1.2-1.2-1.2s-1.2.5-1.2 1.2v1.3c-1.5-1.6-3.7-2.5-6-2.5zm-58.7 0c-2.8 0-6.5.7-6.5 6.7v3.4c0 3.8-1.9 4.3-4.1 4.3-.7 0-1.2.5-1.2 1.2s.5 1.2 1.2 1.2c2.8 0 6.5-.7 6.5-6.7v-3.4c0-3.9 1.8-4.3 4.1-4.3.6 0 1.2-.6 1.2-1.2 0-.7-.6-1.2-1.2-1.2zm-28.98.1c-.42-.1-.89.1-1.19.4l-5.4 6.3h-4.04v-5.5c0-.7-.53-1.2-1.21-1.2-.67 0-1.2.5-1.2 1.2v14.2c0 .6.53 1.2 1.2 1.2.68 0 1.21-.6 1.21-1.2v-6.4h3.22l6.7 7.1c.48.5 1.39.7 1.88.2.48-.5.33-1.2-.1-1.7l-6.02-6.3 5.54-6.4c.43-.5.58-1.2.1-1.7-.18-.1-.42-.2-.68-.2zm-80.417 0c-.675 0-1.203.5-1.203 1.2v14.2c0 .6.528 1.2 1.203 1.2.674 0 1.205-.6 1.205-1.2v-11.3l4.722 4.8c.48.4.72.6 1.2.6s.72-.2 1.21-.6l4.62-4.8v11.3c0 .6.53 1.2 1.2 1.2.68 0 1.21-.6 1.21-1.2v-14.2c0-.7-.53-1.2-1.21-1.2-.48 0-.72.1-1.2.6l-5.88 6-5.872-6c-.48-.5-.723-.6-1.205-.6zm128.397 0c-.7 0-1.2.5-1.2 1.2v14.2c0 .6.5 1.2 1.2 1.2.6 0 1.2-.6 1.2-1.2v-6.4h11v6.4c0 .6.6 1.2 1.2 1.2.7 0 1.3-.6 1.3-1.2v-14.2c0-.7-.6-1.2-1.3-1.2-.6 0-1.2.5-1.2 1.2v5.5h-11v-5.5c0-.7-.6-1.2-1.2-1.2zm-87.03 2.3c3.33 0 6.02 2.7 6.02 6s-2.69 6-6.02 6c-3.32 0-6.02-2.7-6.02-6s2.7-6 6.02-6zm126.73 0c3.3 0 6 2.7 6 6 0 3.4-2.8 6-6 6-3.3 0-6-2.7-6-6s2.7-6 6-6z"/></svg>