<svg  viewBox="0 0 677 201" xmlns="http://www.w3.org/2000/svg">
  <path  d="M45.54 5c-.28 3.776-.43 5.25-4.02 9.08-5.56 4.34-34.085 28.24-36.414 76.87C2.783 139.6 39.53 162.4 39.53 162.4c1.39-3.1 5.92-15.7 6.9-35 .68-13.1.5-35.96.99-44.83.49-8.8.64-72.17-1.88-77.57zm3.12 5.84c3.2 35.25 3.69 72.72 3.69 72.72s1.06 30.84.49 43.34c-.24 5.5-1.68 29.5-7.6 46 .99 5.2.7 9.5.7 15.2-.15 1.3 1.98.7 4.69 1.2 6.85 1.3 2.31-23.9 2.7-23.8 0 0 43.06-28.3 32.97-87.23-9.72-42.79-32.65-56.85-35.12-62.23-2.72-3.8-2.28-3.49-2.52-5.2zM504.8 78.56c-.7.8-2.8 4.44-2.5 5.24 3.4.41 5.8.81 7.6 1.21 3.5.81 5.3 1.89 5.7 6.06.3 4.98.1 20.73.1 28.83 0 11.3.2 21.2-.2 29.6-.3 4.4-.9 5.7-3.4 6.7-1.4.6-2.3.7-5.4 1.1-1 .1-2.6 4.3-2 5.3h.1c11.8.2 25.8.4 34 .4 15.4 0 26.1-3.4 34.4-9.6 8.4-6 16.7-16.5 16.7-34.6 0-12.8-4.7-23.29-13.4-30.83-7.2-6.18-17.3-9.41-29.3-9.41-14.3 0-19.6.4-27.2.4-4.1 0-12.9-.4-15.2-.4zm96.5 0c-.6.53-2.7 4.57-2.1 5.24 2.8.41 6.2.81 8.2 1.21 2.6.68 4 1.89 4.1 5.66.1 4.84 0 14.63 0 29.23 0 10.6 0 25.5-.3 29.7-.4 4.8-.8 5.9-4 6.7-2.4.7-4 .8-6.2 1-.8.6-2.7 4.9-1.7 5.3 9.1-.1 25.5.6 31.7.6 8 0 15.9-1 22.3-3.8 10.5-4.6 17.7-11.8 17.7-23.4 0-11.8-8.8-18-18.9-20.6-.4-.1-.4-.4 0-.5 7.1-3 12.5-9.2 12.5-16.83 0-15.61-14.4-19.38-24.9-19.38-8.4 0-15.5.27-24.3.27-9.2 0-12.8-.4-14.1-.4zm-64.2 6.05c8.9 0 16.7 1.48 22.7 5.25 10.6 6.46 15.8 17.44 15.8 31.04 0 14.2-4.4 23-10.8 28.8-6.3 5.7-12.7 6.9-19.2 6.9-5.1 0-10.8-.9-13.6-3.2-1.8-1.2-2.6-4.1-2.8-5.7-.2-1.9-.2-17.5-.2-28.6 0-10.9 0-29.38.2-31.8 0-.54.9-1.61 1.3-1.88 1.5-.67 4-.81 6.6-.81zm93.7.27c12.2 0 20.3 4.44 20.3 16.12 0 5.1-2 9.8-6.4 12-1.6.8-4.6 1.5-9.8 1.5-3.6 0-8-.2-9.8-.3-.3 0-.7-.4-.7-.7 0-8.7.2-21.35.3-26.2 0-.67.7-2.02 1.2-2.15 1.8-.27 4.1-.27 4.9-.27zM332.6 106.5c-5.3 0-12.4 3.6-18.2 8.6-.2.2-1.1 1-1.1-.3.1-1.3.3-4 .4-5.7.1-1.7-.9-2.5-.9-2.5-3.8 1.9-14.6 4.4-18.5 4.8-2.9.6-3.8 3.4-.6 4.3h.1c3.2 1 5.4 2.1 7 3.1 1.2 1 1.1 2.3 1.1 3.4.1 9 .1 22.9-.3 30.4-.1 3-.9 4-3.1 4.6l.2-.1c-1.6.4-3 .7-5.1.9-.6.7-.6 4.6 0 5.4 1.4 0 8.4-.4 14.1-.4 7.9 0 12 .4 14 .4.8-.9 1.1-4.5.6-5.4-2.4-.1-4-.4-5.6-.8-2.2-.5-2.8-1.6-2.9-4-.3-6.3-.3-19.8-.3-28.9 0-2.6.7-3.8 1.5-4.5 2.8-2.4 7.3-4 11.2-4 3.8 0 6.4 1.2 8.3 2.8 2.6 2.2 3.6 5.3 3.8 7.6.6 5.1.4 15.3.4 24.2 0 4.8-.4 6-2.1 6.6-.9.4-3 .8-5.6 1-.8.9-.6 4.6 0 5.4 3.5 0 7.6-.4 13.6-.4 7.5 0 12.3.4 14.2.4.8-.9 1.1-4.4.5-5.4-3-.4-5.2-.8-7.8-2-.4-.2-.9-1.5-.9-1.9-.3-4.1-.3-16.2-.3-24.2 0-6.4-1.1-12.1-3.8-16.1-3.3-4.6-7.9-7.3-13.9-7.3zm-199.3.4c-4.1 1.9-14.4 4.3-18.4 4.8-1.5.2-2.2 1.1-2.2 1.8s.6 1.3 1.7 1.6c3 .9 5.4 1.9 7.3 3.2 1.2 1 1.2 2.4 1.2 3.4v.3c.2 9.6.1 23.2-.3 30.4-.1 3.1-1 4.4-3.4 5-1.5.4-2.7.7-5.2 1.1-.2.2-.4.8-.5 1.8 0 1.3.2 2.3.5 2.7 1.3 0 2.7-.1 4.3-.2 2.4-.1 5.4-.2 9.6-.2 3.6 0 6.8.1 9.4.2 1.6.1 3.1.2 4.3.2.4-.9.6-3.8.3-4.6-.7-.1-1.5-.2-2.2-.3-1.1-.2-2.2-.4-2.8-.6-2.7-.6-3.2-2.3-3.3-3.7-.2-4.7-.2-15.5-.1-24.2v-7.1c0-1.1.5-2.3 1.1-2.7 3.8-2.9 8.5-4.7 12.3-4.7 6.3 0 10.3 3.5 11.7 10.4.8 4.4.5 21.6.1 27.6-.1 2.6-.9 3.7-2.9 4.3-1.2.3-2.4.5-3.8.8-.6.1-1.1.1-1.7.3-.2.2-.4 1-.4 2.1 0 1.3.2 2.1.4 2.4 1.2 0 3.2-.1 5.4-.1 2.6-.1 5.7-.2 7.5-.2 6.1 0 10.3.1 14.5.3.1-.1.3-.4.4-1.2.3-1.3.3-2.8.1-3.4-1.6-.2-2.8-.5-3.8-.7-.6-.2-1.1-.3-1.8-.5-1.3-.5-2.9-1.1-2.9-3.7-.1-3.9-.1-9 0-14.4v-7.8c0-4.5 0-7.4-.5-9.9v-.1c0-.3.1-.9.4-1.1 4.6-3.5 9.3-4.7 12.3-4.7 7.9 0 11.6 5.6 12.3 10.5.7 4.6.3 24.2.2 26.4-.1 3.1-.8 4.2-3.1 5-1.3.4-2.4.6-4.6 1-.3.7-.2 3.6.1 4.6 3.7-.3 7.5-.4 15-.4 3.7 0 6.8.1 9.1.3 1.3 0 2.3.1 3.1.1.4-.6.9-3.8.7-4.6h-.1c-3-.5-5.4-.9-7-1.7-1.3-.4-2.2-2.2-2.2-2.8 0-2.7 0-6.6.1-10.8v-13.8c0-14-6.6-22.4-17.8-22.4-4.7 0-11.7 3.3-18.8 8.7-.2.2-.5.3-.8.3-.3 0-.6-.1-.8-.4-3.5-5.8-8.1-8.6-13.9-8.6-3.6 0-10.5 2.2-18.2 8.3-.2.2-.5.3-.7.3-.5 0-1-.5-1-.9 0-1.5.1-3.1.2-4.4.1-.5.1-.9.1-1.4.1-1-.3-1.6-.5-1.9zm263 0c-5.4 0-13.9 3.2-17.2 5.9-4.9 3.5-7.7 9-7.7 15.1 0 9.4 4.2 15.6 12.5 18.5.3.1.4.3.5.6 0 .3-.1.6-.3.7-1.2 1.1-3.5 2.4-5.4 3.6-1.4.8-2.7 1.6-3.4 2.1-1.1.8-.9 1.5-.7 2.2v.3c.5 1.9 2.2 5.5 7.9 7.6.2.1.4.3.4.6s-.1.5-.4.5c-6.8 4.7-9.8 7.5-11.1 8.9-2.1 2.5-2.4 5.1-2.4 6.1 0 3.4 2 8.5 6.4 11.9 4.5 3.4 9.8 5 17.2 5 5.6 0 10.8-1.2 16-3.6 10.6-5.1 16.9-13.5 16.9-22.3 0-6-3.5-10.9-9-12.9-4-1.4-12.5-2-19.4-2.5-1.2-.1-2.3-.1-3.3-.2-5.2-.4-6.3-2.6-6.3-4.4 0-2.1 2.4-3.2 3.3-3.5h.1c.2 0 1-.1 1.6-.1 1-.1 1.5-.2 1.7-.2 5.3-.5 10-2.3 14-5.4 4.2-3.2 8.2-7.5 8.2-17.4 0-.9-.5-4.1-.8-5.2 0 0 0-.1-.1-.2-.1-.3-.2-.6-.1-.8l.6-.2s1 .3 3.1.5c.2.1.4.1.6.1 2.1 0 4.3-1 5.3-2.3 1.2-1.7 1.6-4 1.5-5.5-.1-1.6-.4-2.2-.5-2.4-1.7 1.6-3.7 3.1-8.4 3.1-3.1 0-5.4-.3-7.8-1.2-4.4-1.6-7.5-2.8-13.2-2.9l-.3-.1zm-142.4 0c-6.1 0-12.8 2-18.4 5.5-8 5.3-12 13-12 22.8 0 14 7.3 29 27.8 29 5.7 0 12.5-2.6 16.5-5 8.2-5.4 12.6-14 12.6-25 0-16-10.9-27.3-26.5-27.3zm211.9 0c-6 0-12.8 2-18.4 5.5-7.9 5.3-11.9 13-11.9 22.8 0 14 7.3 29 27.7 29 5.7 0 12.6-2.6 16.6-5 8.2-5.4 12.6-14 12.6-25 0-16-10.9-27.3-26.6-27.3zm-73.2 5.2c8.2 0 13.1 6 13.1 16.1 0 4.6-1.5 8.9-3.8 11-1.6 1.7-4.6 2.5-6.3 2.5-9.9 0-13.4-9.1-13.4-16.9 0-7.7 4.1-12.7 10.4-12.7zm-143.5.6c11.5 0 19.3 10.4 19.3 26 0 8.1-1.9 13.9-5.4 16.7-2.2 2-5 2.9-8.3 2.9-11.3 0-19.2-11-19.2-26.8 0-8.4 2.4-14.1 7.1-17 1.7-1.2 4-1.8 6.5-1.8zm212 0c11.5 0 19.2 10.4 19.2 26 0 8.1-1.8 13.9-5.3 16.7-2.3 2-5 2.9-8.4 2.9-11.3 0-19.2-11-19.2-26.8 0-8.4 2.4-14.1 7.1-17 1.8-1.2 4.1-1.8 6.6-1.8zm167.8 7.7h3.3c15.9 0 24.7 6.7 24.7 18.6 0 12.3-8.3 17.6-17.7 17.6-3.5 0-8.4-.3-10.5-1.5-2.1-.9-3.7-4.2-4-6.4-.4-5.4-.3-19-.3-27.5 0-.3.4-.5.9-.7.6-.1 2.1-.1 3.6-.1zm-237.1 44.9c7.3 0 13.4.7 17 2 4.7 1.7 6.9 4.8 6.9 9.3 0 6.5-5.4 13.1-17.7 13.1-6.2 0-10.9-1.4-14.4-4.4-2.9-2.5-4.3-5.2-4.3-8.7 0-3.7 2.3-6.9 7.3-10.1 1.1-.5 2.8-1.2 5.2-1.2z"/></svg>