<svg xmlns="http://www.w3.org/2000/svg" viewBox="0 0 744.2 330"><path d="M16 7.097V207h25.49v-95.8L69.16 207h19.26l27.68-95.8V207h25.5V7.097h-22.5L78.92 147.9 38.51 7.097zM311.2 11.3v154c-.8.5-1.6.9-2.5 1.4-.3-3-1.8-6.7-3.7-12-2-5.6-1.4-13.7-7.1-17.2-.9-.5-2-.8-3-.8-4.5-.2-8.9 4.3-10.1 8-.6 2-1.2 4.2-1.9 6.4-1.1-1.4-2.4-2.6-3.5-3.9 11.4-12.9 18.2-29.9 18.2-48.37 0-4.31-.3-8.62-1.1-12.73.9 21.6-5 44.9-20.3 61l5.9 6.5c-.9 3.2-1.9 6.4-3 9.6-1.1 3.3-5.3-13.1-5.3-13.1l-11.6 8.7c-6.2 3.9-12.8 6.9-19.8 8.7-30.4 9-65-6-80.4-33.5-7.8-15-11.7-32.4-10.4-49.24-.9 4.59-1.3 9.28-1.3 14.07 0 40.47 33.1 73.57 73.7 73.57 13.7 0 26.8-3.9 37.8-10.5 4 4.4 8 8.9 12 13.3-.6 1.1-1.2 2.2-1.9 3.2-3.1 4.1-7.7 6.3-10.8 10.1-4.6 5.5-4.2 13.6-4.2 21-1.6 6.7-1.2 14.6.6 24.7 0 3.5.2 8.1-1.1 11.6l-.3.5c-.9-1.4-2.3-2.5-4.2-3.2-.8-.3-1.4-.5-2.1-.6h-.8c-1.8 0-3.6.7-5 1.7-2.4 1.9-3.4 4.7-3.2 7.6.1 1.2.4 1.6.9 2.4.3.9.8 1.8 1.5 3 .8 1.4 1.7 3 2.8 4.7-1 1.2-2.1 2.4-3.2 3.4-15.7 14.4-32.1 28.2-47.7 42.8l71 14.9c1.3-.9 12.7-12.7 18.7-18.1.5-.4 1.5-1.4 2.5-2.7 1.6 1.1 3.1 1.9 4.3 2.5.6.3 1.3.5 1.9.6.7.2 1.7.3 2.7-.5 1.5-1.1 2.4-3 2.3-4.8 0-1.7-.7-3.3-1.5-4.8-.5-1-1.2-1.9-1.8-2.8 2.1.4 4.3.6 6.1.8 20.7 1.9 44.1-7.3 60.8-21.1l26.7 29.1.6.6.8.1c4.3.7 8.5-1 11.6-4 2.9-2.8 4.9-7.1 3.9-11.6l-.1-.6-.5-.5c-9.2-10.1-18.5-20.3-27.6-30.3 5.9-6.2 12-12.7 15.2-20.6 4.5-11-6.9-15-12.5-21.3-.5-.5-.9-1.2-1.3-1.9h25.2v-59c0-8.3-1.5-15.8-4.2-22.3-2.4-6.5-6.2-12.1-11.1-16.9.5-.2 1-.7 1.4-1.3.6-.5.9-1 1.3-1.3 8-9.7 12-23.53 12-42 0-18.66-4-32.64-12-41.81-8.7-10.13-21.6-15.19-38.7-15.19zm224.6 0v146.6c0 16.7 3.7 29.4 11 38.3 2.6 3.5 6.7 7.1 12.1 10.2 5.5 3.1 12.6 4.6 21.7 4.6 9 0 16.3-1.5 21.8-4.6 5.3-3.1 9.4-6.7 12.1-10.2 7.3-8.9 10.8-21.6 10.8-38.3V11.3h-25.4v146.6c0 6.9-.7 12.2-2.2 16-1.3 3.8-2.9 6.6-4.9 8.4-1.9 1.7-4 2.6-6.2 3.1-2.1.2-4.2.3-6 .3-1.8 0-3.8-.1-5.9-.3-2.2-.4-4.3-1.4-6.3-3.1-1.9-1.7-3.7-4.6-5.2-8.4-1.2-3.8-1.8-9.1-1.8-16V11.3zm-64.3.28c-15.7 0-27.6 5.14-35.8 15.45-7.7 9.59-11.6 23.28-11.6 41.27v86.2c0 17.9 3.9 31.7 11.6 41.2 2.9 3.7 7.2 7.2 12.8 10.5 5.8 3.5 13.5 5.2 23 5.2 9.8 0 17.5-1.8 23.1-5.2 5.8-3.3 10.1-6.8 13-10.5 7.8-9.5 11.7-23.3 11.7-41.2v-41h-56.7v25.8h30.9v15.2c0 7.9-.8 14-2.4 18.4-1.5 4.2-3.4 7.2-5.7 9.2-2.2 1.9-4.5 2.9-7.1 3.3-2.5.4-4.8.6-6.8.6s-4.2-.2-6.8-.6c-2.3-.4-4.7-1.4-6.9-3.3-2.4-2-4.5-5-6.1-9.2-1.4-4.4-2.1-10.5-2.1-18.4V68.3c0-7.28.6-12.92 1.9-17.13 1.3-4.12 2.9-7.28 4.9-9.19 2.1-2.2 4.5-3.54 7-4.12 2.8-.57 5.5-.76 8.1-.76 2.8 0 5.4.19 7.9.76 2.8.58 5.1 1.92 7.1 4.12 2.2 1.91 3.9 5.07 5.1 9.19 1.3 4.21 1.9 9.85 1.9 17.13v12.73h25.8V68.3c0-17.99-3.9-31.68-11.7-41.27-8.1-10.31-20.1-15.45-36.1-15.45zm174 0V211.4h82.7V186H671v-61.9h57.2V98.63H671V37.1h57.2V11.58zM224 19.84c-39.3 0-71.3 32-71.3 71.33 0 39.23 32 71.23 71.3 71.23 39.2 0 71.3-32 71.3-71.23 0-39.33-32.1-71.33-71.3-71.33zM336.8 37.1h16c4.1 0 7.7.29 10.8 1.05 3.2.77 5.9 2.3 7.8 4.6 2.2 2.2 3.9 5.35 4.9 9.47 1.2 4.02 1.6 9.38 1.6 16.08 0 11.96-1.9 20.38-5.9 25.45-.7.96-2.4 2.2-5.2 3.83-2.5 1.53-7.1 2.3-14 2.3h-16zM224 39.01c28.9 0 52.1 23.26 52.1 52.16v1.72c-.1.58-.1 1.15-.2 1.72-1.3-23.92-21.3-44.88-45.1-47.65-2.4-.29-4.8-.48-7.2-.48-23.4.28-46.2 17.22-50.3 40.77-.4 1.91-1.2 6.89-1.4 5.55-.1-.58-.1-1.15-.1-1.63 0-28.9 23.3-52.16 52.2-52.16zm0 10.05c27.6 0 49.7 22.11 49.7 49.77 0 4.17-.5 8.17-1.4 12.07-7.8 19.1-26.4 32.4-48.3 32.4-22 0-40.5-13.3-48.4-32.5-.9-3.9-1.4-7.9-1.4-11.97 0-27.66 22.1-49.77 49.8-49.77zm-5.1 2.68c-.7 0-1.5.19-2.1.38-3.7 1.15-5.8 5.27-4.5 8.9 1.1 3.64 5.1 5.65 8.8 4.5 3.6-1.24 5.6-5.26 4.5-8.9-1-2.96-3.7-4.88-6.7-4.88zm.4 3.25c1.5.1 2.8 1.15 3.2 2.68.7 1.92-.4 4.12-2.4 4.79-2 .67-4.2-.48-4.9-2.49-.6-2.01.5-4.11 2.5-4.78.5-.2 1.1-.29 1.6-.2zm4.6 12.35c-.3 0-.5.1-.8.19-1.9.67-3 2.78-2.4 4.69.7 1.91 2.8 3.06 4.7 2.39 1.9-.67 3.1-2.77 2.4-4.69-.5-1.72-2.2-2.68-3.9-2.58zm.5 1.63c.9.1 1.6.67 1.8 1.53.3 1.05-.2 2.2-1.3 2.49-1 .38-2.2-.19-2.6-1.25-.4-1.05.3-2.2 1.4-2.58.3-.1.5-.19.7-.19zm112.4 56.73h16c17 0 25.4 8.7 25.4 26.4v57.7c-1.3-3.1-1.7-6.2-5-8.8-3.6-2.9-9.6-3.5-12.6-6.6-2.1-2.2-.9-6.9-2.6-9.9-1.6-2.8-8.4-5.1-10.9-8-5.3-6.2-2.5-13.6-10.3-16.1zm-8.3 38.3c.9 0 1.4 1.1.7 2.7-1.9 2.7-12.4 8.1-15.1 9.7-2.6.9-11.9 4.4-17 8-10.3 7.3-20.4 15.6-26.5 26.6-4.3 7.6-4.7 27.5-6.4 25.3-5.4-1.9-4.2-29.4.5-32.3 3.1-4.9 7.9-8.8 13.2-10.7l21.9-14c21.3-19.8 22.8-12.9 27.2-14.3.5-.6 1.1-.9 1.5-1zm15.7 14.2c3.3.3 2.4 4.3-.1 5.1-2.7 1.7-5.6 3.1-8.6 4.4-4.3 2.1-8.9 4-12.2 7.6-2 1.9-2.6 5.5-5.7 6-4-.1-3.7-6.2-.5-8.1 2.6-2.7 5.7-4.9 9.2-6.7 3.1-.9 6.1-2.2 9.1-3.4 3.3-1.1 5.3-4.5 8.8-4.9zm11.2 18.4c1.4.1 5.4 2.9 4.4 3.4-3.3 1.4-7.1 1.8-9.2 5.2-4 3.6-8.2 7.2-11.5 11.3-2 1.7-1.4 5.5-4.1 6.1-3.4-.6-1.9-4.3-1.3-6.4 1.9-3.7 5-6.6 7.6-9.9 3.6-4.2 7.6-8.9 13.4-9.7.3-.1.5-.1.7-.1zm19.1 19.2h.5c1.7.2 1.9 1.8 3.1 2.8-1.9 1.5-4.9 1.4-6 4.1-5.6 5.7-12.1 10.7-17.2 16.9-.6 3.2-5.4 1.8-4.6-.8 2.8-1.3.6-5.1 3.8-6.4 3.5-1.9 5.6-5.4 8-8.4 3.1-3.7 7.1-7.3 12.1-8.1h.3zM254.3 250c.8.1 1.6.3 2.2.9 1.3 1.3 5.4 10.3 6.2 11.8 9.1 10.4 16.2 14.1 25.4 25.3.8 1 1.9 2.4 1.6 3.9-.1.7-.7 1.3-1.3 1.4-1.2-.6-2.4-1.2-3.7-1.8l-2.4-1.8c-10.4-8.7-19.1-20.5-27.8-30.4-1.1-1.8-2.2-3.5-3.2-5.4-.6-1.8 1.1-3.9 3-3.9zm121.5 6.5l27 29.7c-.2 6.3-4.4 3.2-6.8 2.3-8.9-9.6-21.8-22-25.4-24.5 1.9-2.1 2.7-5 4.8-7.1.1-.1.2-.3.4-.4z"/></svg>