<svg xmlns="http://www.w3.org/2000/svg" viewBox="0 0 360 90"><path d="M281 21.73v32.32c0 1.6.8 2.53 1.6 3.12 1 .62 2.3.93 4.2.93 1.1 0 2.6-.39 2.6-.39v-2.89h-1.3c-2.7 0-3.1-1.06-3.1-2.24v-30.9zm-85.5.33c-3.1 0-5.8.96-7.8 2.68-1.9 1.68-2.9 4-2.9 6.51 0 2.76 1.1 4.92 3.4 6.61 2.1 1.5 4.8 2.47 7.4 3.39 4.5 1.62 8.8 3.1 8.8 7.22 0 1.84-.6 3.41-1.8 4.49-1.3 1.18-3.2 1.75-5.6 1.75-4.4 0-7.5-2.4-9.3-7.06l-3.9 1.04c.9 1.89 2.3 4.62 4.3 6.45 2.3 2.03 5.1 3.01 8.6 3.01 4.2 0 7.4-1.07 9.4-3.22 2.2-2.24 2.7-5.11 2.7-7.11 0-2.87-1.2-5.09-3.7-6.84-2.1-1.53-4.9-2.52-7.6-3.44-4.4-1.51-8.6-2.93-8.5-6.62 0-1.72.6-3.06 1.7-3.99 1.1-.95 2.6-1.43 4.7-1.43s4 .6 5.4 1.75c1.4 1.06 2.3 2.62 2.8 4.38l3.7-.49c-1.6-5.65-5.7-9.08-11.8-9.08zm-173 .49v35.11h4.05v-32.1l.11.11 9.62 31.99h3.12l9.68-31.99.1-.11v32.1h4.05V22.55H46.5l-8.58 28.22v.11l-.1-.11-8.58-28.22zm192.7.71v8.42h-3.9v3.23h3.9v19.14c0 1.6.7 2.53 1.6 3.12.9.62 2.2.93 4.1.93 1.1 0 2.7-.39 2.7-.39v-2.89h-1.4c-2.7 0-3-1.06-3-2.24V34.86h4.4v-3.23h-4.4v-8.37zM69.59 31.19c-3.41 0-6.3 1.37-8.32 3.94-1.87 2.39-2.89 5.77-2.89 9.51 0 3.75 1.02 7.12 2.89 9.52 2.02 2.57 4.91 3.94 8.32 3.94 3.42 0 6.3-1.37 8.31-3.94 1.87-2.4 2.9-5.77 2.9-9.52 0-3.74-1.03-7.12-2.9-9.51-2.01-2.57-4.89-3.94-8.31-3.94zm233.41.06c-1.7 0-3.3.31-4.7.93-1.3.6-2.5 1.5-3.4 2.68-1.8 2.29-2.9 5.71-2.9 9.84 0 4.6 1.3 8.11 3.7 10.44 2.5 2.47 5.8 2.96 8 2.96 5.8 0 8.7-3.14 9.8-6.02l-3.2-1.58c-.8 1.75-2.6 4.43-6.6 4.43-2.3 0-4.2-.95-5.5-2.68-1.3-1.68-2-4.01-2-6.79h17.7V43c0-4.25-1.2-7.42-3.3-9.35-1.7-1.64-4.2-2.4-7.6-2.4zm-192 .1c-4.5 0-11.01 3.07-11.01 13.4 0 10.03 6.51 13.4 10.81 13.4 2.6 0 4.9-1.41 6.5-3.45l.2-.11v4.92c0 3.46-3 5.58-6.2 5.58-3.1 0-5.8-.59-8.1-1.64v3.5c1.9.81 5 1.31 7.6 1.31 7.2 0 10.6-3.95 10.6-9.67V31.84h-3l-.9 2.74c-1.4-1.94-3.4-3.23-6.5-3.23zm26.2 0c-5.8 0-8.5 3.44-9.6 5.58l3.2 1.69c.4-1.22 2.1-4.04 6.4-4.04 3.5 0 5.2 1.52 5.2 4.54v.93s.1.28 0 .38c-.2.16-.5.29-1.4.38-4.8.54-8 1.33-10.4 2.85-2.5 1.64-4.1 3.95-4.1 7.1 0 2.25 1 4.16 2.5 5.53 1.3 1.25 3.1 1.91 5.1 1.97 4.3.13 7.1-1.64 8.4-3.72.1 1.43.7 2.25 1.8 2.84 1.1.57 2.8.46 3.5.28v-2.74c-.9 0-1.4-.47-1.4-1.58V40.81v-1.64c0-2.58-1-4.7-3-6.07-1.6-1.13-3.8-1.75-6.2-1.75zm27.8 0c-2.6 0-5.3 1.37-7.6 3.94v-3.45h-4v25.92h4V38.51c1.4-1.47 4.5-3.93 7.3-3.93s4 1.38 4 4.48v18.7h4.1V38.95c0-5.6-4-7.6-7.8-7.6zm73.2 0c-5.7 0-8.4 3.44-9.6 5.58l3.2 1.69c.5-1.22 2.1-4.04 6.5-4.04 3.4 0 5.2 1.52 5.2 4.54v.93s0 .28-.1.38c-.1.16-.5.29-1.3.38-4.9.54-8.1 1.33-10.4 2.85-2.6 1.64-4.2 3.95-4.2 7.1 0 2.25 1.1 4.16 2.5 5.53 1.4 1.25 3.2 1.91 5.2 1.97 4.2.13 7-1.64 8.4-3.72.1 1.43.6 2.25 1.8 2.84 1 .57 2.8.46 3.5.28v-2.74c-.9 0-1.5-.47-1.5-1.58V40.81v-1.64c0-2.58-1-4.7-3-6.07-1.6-1.13-3.8-1.75-6.2-1.75zm27.9 0c-2.7 0-5.4 1.37-7.6 3.94v-3.45h-4.1v25.92h4.1V38.51c1.4-1.47 4.4-3.93 7.3-3.93 2.8 0 4 1.38 4 4.48v18.7h4V38.95c0-5.6-3.9-7.6-7.7-7.6zm-167.64.1c-4.11 0-6.54 1.59-8.64 5.36v-5.02h-4.05v25.87h4.05V43c1-5.32 3.82-7.82 8.64-7.82v-3.77zm218.14.33l9 25.7v.22c-.5 2.46-2.1 5.5-3.5 6.45-1.2.84-2.5.93-3.6.93-.5 0-1.5-.17-1.9-.27v3.12c.5.13 1.8.38 2.6.38 2 0 3.6-.48 5-1.48 1.6-1.19 3.4-4.29 4.3-6.94l9-28.11h-3.9l-5.9 19.9-.1.44-.1-.44-7-19.9zM69.59 34.42c4.35 0 6.94 3.82 6.94 10.22 0 6.41-2.59 10.23-6.94 10.23-4.35 0-6.95-3.82-6.95-10.23 0-6.4 2.6-10.22 6.95-10.22zm41.71 0c2.3 0 4.3.99 6.2 3.34v12.36c-1.1 2.98-4.1 4.7-6.2 4.7-4.2 0-7-2.6-7-10.39 0-6.55 2.5-10.01 7-10.01zm191.9 0c4.6 0 6.7 2.45 6.7 7.77h-13.6c.3-5.31 2.5-7.77 6.9-7.77zm-160.7 9.14v6.56c-.1 2.26-4.4 5.01-7.8 4.81-1.9-.1-3.8-1.64-4-4.16-.3-4.2 2.9-5.95 9.9-6.72.5-.1 1.5-.22 1.9-.49zm101.1 0v6.56c-.2 2.26-4.4 5.01-7.9 4.81-1.9-.1-3.7-1.64-3.9-4.16-.3-4.2 2.8-5.95 9.9-6.72.5-.1 1.4-.22 1.9-.49z"/></svg>