<svg xmlns="http://www.w3.org/2000/svg" viewBox="0 0 1044 236.8"><path d="M118.4 22C65.2 22 22 65.2 22 118.4c0 53.3 43.2 96.4 96.4 96.4s96.4-43.7 96.4-96.4c0-53.2-43.2-96.4-96.4-96.4zM89.5 42.6l28.9 96 28.9-96 36.9 123.3h-5.8s-2.1-6.3-3.8-12.1c-8.5-27.5-19.2-38.3-35.1-32.4-4 1.4-9.7 6.6-12.9 11.9-2.7 4.5-6.9 12.2-8.2 18.2-1.4-6-5.6-13.7-8.2-18.2-3.3-5.3-8.9-10.5-12.9-11.9-15.9-5.9-26.7 4.9-35.1 32.4-1.7 5.8-3.8 12.1-3.8 12.1h-5.8zm360.3 42.29c-5.3.1-10.7.69-15.8 1.61-15.8 3.7-34.5 15.4-37.7 32.9-1.6 10.2 3.4 19 11.8 24.2 11.1 6.6 24.5 8.5 38 7.9 9.5-.9 19.5-3.4 28-8 8.5-4.7 15.5-11.5 19.2-21.3 2.6-6.3 2.3-14.9-1.7-20.5-10.2-12.9-25.9-17.08-41.8-16.81zm177.4 0c-5.3.1-10.6.69-15.8 1.61-15.8 3.7-34.4 15.4-37.7 32.9-1.5 10.2 3.4 19 11.9 24.2 11 6.6 24.4 8.5 38 7.9 9.4-.9 19.4-3.4 27.9-8 8.5-4.7 15.5-11.5 19.2-21.3 2.7-6.3 2.3-14.9-1.6-20.5-10.2-12.9-26-17.08-41.9-16.81zm191.1 0c-5.3.1-10.7.69-15.8 1.61-15.8 3.7-34.5 15.4-37.7 32.9-1.5 10.2 3.4 19 11.8 24.2 11.1 6.6 24.4 8.5 38 7.9 9.6-.9 19.5-3.4 28-8 8.5-4.7 15.5-11.5 19.2-21.3 2.7-6.3 2.3-14.9-1.6-20.5-10.2-12.9-26-17.08-41.9-16.81zM298.7 86.3l-17.9 65h21.3s9.1-33.8 9.3-34.4c.2-.7.6-.9.7-.9.1 0 .4.3.4.4l8.3 34.9H335l27.6-34.2c.2 0 .4-.1.5.1l-9.1 34.1h25.9l17.7-65h-35.2l-22.4 28-6.8-28zm203.2 0l-5.6 20.7h26.2c.7 0 1.1.6 1 1.2l-11.7 43.1h25.9l12.1-44.1.5-.6h26.6l5.2-20.3zm185 0c-5.3 21.4-10.9 43.4-16 65h24.4l4.5-19 .6-.3h20.4c3.5.1 4.9 2.5 4.9 5.1l-.8 8.5c-.1 1.2.1 2.3.5 3.2.6 1.3 1.8 2.2 3.1 2.5h29.1c-1.7-1.4-3.6-3.5-3.5-5.9.3-4.7 2.1-9.8.9-14.9-.7-3.7-4.6-6-7.8-7.3-.5-.4.1-.7.4-1 6.6-2.5 13.9-7.3 16.6-14.4 2.1-5.1 1.5-11.9-2.6-15.9-3.3-3.3-8.5-5.6-13.8-5.6H718zm191.6 0l-14.9 64.9h64.8l4.3-18.7H895c-.4 0-.7-.5-.8-.9l10.2-45.3zm96.8 0l-41.8 65H955l7.8-11.6h30c.2 0 .3.2.4.5l2.6 11.1h27.2l-15-65zm-525.5 15.9c4.6 0 9.1 1.1 12.5 3.5 1.9 1.2 3.5 3.2 4.3 5.2 1.4 7-1.7 13.5-7.2 18-6.9 5.8-17.2 8.3-25.9 4.8-3.4-1.3-6.9-4.5-7.4-8.2-.6-8.3 3.7-16.1 11.1-20.2 3.5-2.1 8.1-3.2 12.6-3.1zm177.5 0c4.5 0 9.1 1.1 12.5 3.5 1.8 1.2 3.5 3.2 4.3 5.2 1.4 7-1.8 13.5-7.3 18-6.9 5.8-17.1 8.3-25.9 4.8-3.4-1.3-6.8-4.5-7.3-8.2-.7-8.3 3.6-16.1 11.1-20.2 3.4-2.1 8-3.2 12.6-3.1zm191.1 0c4.5 0 9.1 1.1 12.4 3.5 2 1.2 3.6 3.2 4.3 5.2 1.5 7-1.7 13.5-7.2 18-6.9 5.8-17.1 8.3-25.9 4.8-3.4-1.3-6.9-4.5-7.4-8.2-.5-8.3 3.8-16.1 11.2-20.2 3.5-2.1 8.1-3.2 12.6-3.1zm-99.7.9h15.8c1.1.1 2.7 1.2 3.3 2.6.8 2.1.1 4.3-1.4 5.8-1.9 1.9-3.6 2.7-5.9 3h-25.7l2.6-11.3zm266.3 3.8c.1 0 .3 0 .3.2l3.9 16.1h-15.3l11-16.3h.1z"/></svg>