<svg xmlns="http://www.w3.org/2000/svg" viewBox="0 0 792 288"><path d="M301.09 41.5c-.84.8-.84 2.14 0 2.95.8.73 2.15.73 2.91 0 .77-.81.77-2.15 0-2.95-.77-.8-2.11-.8-2.91 0zm-1.69 2.57c-1.38 2.57-18.93 20.88-18.93 20.88s18.85-17.97 21.15-19.08c1.61-.96 2.03-1.15 2.03-1.15l-2.87-2.84s-1.03 1.76-1.38 2.19zm13.53-5.33c-1.34 1.38-1.34 3.57 0 4.98 1.38 1.34 3.64 1.34 4.94 0 1.38-1.42 1.38-3.6 0-4.98-1.3-1.34-3.56-1.34-4.94 0zm-2.88 4.41c-2.37 4.33-32.19 35.63-32.19 35.63s32.03-30.69 36.02-32.53c2.68-1.65 3.37-2.07 3.37-2.07l-4.79-4.83s-1.79 2.99-2.41 3.8zm26.79 1.64c-1.91 1.96-1.91 5.1 0 7.05 1.99 1.92 5.18 1.92 7.13 0 1.88-1.95 1.88-5.09 0-7.05-1.96-1.91-5.14-1.91-7.13 0zm-4.1 6.29c-3.34 6.13-47.06 52-47.06 52s46.9-45.06 52.57-47.66c3.79-2.3 4.87-2.76 4.87-2.76l-6.97-6.97c0-.02-2.45 4.2-3.41 5.39zm25.21 46.32c-.73.8-2.07.8-2.91 0-.8-.84-.8-2.15 0-2.99.84-.77 2.19-.77 2.91 0 .8.85.8 2.15 0 2.99zm-2.53 1.65c-2.53 1.42-20.96 18.93-20.96 18.93s18.05-18.85 19.2-21.15c.92-1.57 1.15-2.07 1.15-2.07l2.83 2.91s-1.76 1.04-2.22 1.38zm5.41-13.64c-1.3 1.42-3.56 1.42-4.94 0a3.587 3.587 0 0 1 0-4.98c1.38-1.34 3.64-1.34 4.94 0 1.41 1.42 1.41 3.56 0 4.98zm-4.34 2.87c-4.33 2.38-35.63 32.23-35.63 32.23s30.73-32.11 32.53-36.05c1.65-2.64 2.03-3.41 2.03-3.41l4.79 4.87c0-.01-2.95 1.79-3.72 2.36zm-3.17-27.85c-1.99 1.91-5.17 1.91-7.09 0-1.91-1.99-1.91-5.1 0-7.01 1.92-1.95 5.1-1.95 7.09 0 1.95 1.91 1.95 5.01 0 7.01zm-6.29 4.06c-6.17 3.45-52.84 47.94-52.84 47.94s45.91-47.7 48.51-53.34c2.3-3.83 2.76-4.83 2.76-4.83l6.93 6.86s-4.25 2.52-5.36 3.37zm12.3 8.62c-1.8 1.8-4.6 1.8-6.36 0-1.76-1.72-1.76-4.6 0-6.32 1.76-1.84 4.56-1.84 6.36 0 1.76 1.72 1.76 4.6 0 6.32zm-5.63 3.75c-5.56 3.07-46.55 42.07-46.55 42.07s40.27-41.92 42.61-47.01c2.07-3.49 2.53-4.37 2.53-4.37l6.25 6.29s-3.81 2.22-4.84 3.02zm-29.58-37.55c-1.68 1.72-1.68 4.6 0 6.36 1.76 1.73 4.75 1.73 6.48 0 1.72-1.76 1.72-4.64 0-6.36-1.73-1.76-4.72-1.76-6.48 0zm-3.64 5.64c-3.1 5.59-41.38 45.67-41.38 45.67s41.23-39.43 46.32-41.76c3.45-2.11 4.37-2.53 4.37-2.53l-6.25-6.28c0-.01-2.26 3.86-3.06 4.9zm-11.19 179.36c-4.52 0-8.12-5.29-8.12-9.16v-70.88c0-3.83 12.95-8.51 17.43-8.51 0 0 5.98-2.57 5.98 8.43 0 4.18 6.32 6.98 6.32 6.98 3.79 2.3 6.51 5.02 6.51 8.77v55.21c0 3.87-3.64 9.16-8.16 9.16zm-2.84-68.93c-2.99 0-5.29-2.87-5.29-6.55v-7.13c0-3.56 1-10.96 10.88-10.96h1.8c9.27 0 10.92 7.4 10.92 10.96v7.13c0 3.68-2.37 6.55-5.36 6.55zm2.84 68.93c-4.52 0-8.12-5.29-8.12-9.16v-70.88c0-3.83 12.95-8.51 17.43-8.51 0 0 5.98-2.57 5.98 8.43 0 4.18 6.32 6.98 6.32 6.98 3.79 2.3 6.51 5.02 6.51 8.77v55.21c0 3.87-3.64 9.16-8.16 9.16zm-2.84-68.93c-2.99 0-5.29-2.87-5.29-6.55v-7.13c0-3.56 1-10.96 10.88-10.96h1.8c9.27 0 10.92 7.4 10.92 10.96v7.13c0 3.68-2.37 6.55-5.36 6.55zm108.1 1.19c0 2.95-2.22 5.32-4.9 5.32h-41.11c-2.76 0-4.98-2.37-4.98-5.32v-12.99c0-2.95 2.22-5.36 4.98-5.36h41.11c2.68 0 4.9 2.41 4.9 5.36zm-222.28-47.86s0-10.62 11.34-10.62H273c5.56 0 10.11 2.8 10.11 9.73v20.23s-.57 8.55-10.38 8.55c-8.39 0-11.23-6.25-11.23-8.59v-7.05s-.19-4.48-5.44-4.48h-38.4s-4.1.57-4.1 5.63v19.28s-.15 4.59 5.94 4.59h53.72s9.65.42 9.65 9.39v58.66s.1 10.35-11.8 10.35h-67.63s-11.34-.61-11.34-11.04v-24.33s0-10.81 11.03-10.81c10.88 0 10.73 11.08 10.73 11.08v7.93s0 4.64 5.4 4.64h25.17c3.37 0 5.29-1.73 5.29-4.87v-26.86s.54-5.33-5.6-5.33h-43.18s-8.74-.69-8.74-9.2c0-5.27.1-46.84.1-46.84zm479.23-.5s0-10.54 11.3-10.54h69.7s9.92.69 9.92 9.7v20.73s-.69 7.93-10.92 7.97c-6.29.1-10.96-4.17-10.96-8.12 0-1.91.1-6.97.1-6.97s-.1-4.64-5.33-4.64h-38.35s-4.06.27-4.06 5.29v18.66s-.8 5.25 5.9 5.25h52.38s10.96 1.08 10.96 10.77v58.17s.27 9.84-9.58 9.84h-70.92s-10.27.31-10.27-10.27v-25.63s-.53-10.65 11.04-10.65c11.19 0 10.73 10.92 10.73 10.92v8.2s-.27 4.9 5.48 4.9c4.52 0 25.29.1 25.29.1s5.21 0 5.21-5.33v-26.82s.54-5.44-5.71-5.44h-43.22s-8.51-.19-8.51-9.08c0-5.38-.16-46.99-.16-46.99zm-537.71 105.1v-49.74c0-5.29-3.29-7.66-5.02-8.85-3.83-2.68-10.54-7.4-12.99-9.88-2.26-2.26-2.15-6.13-2.15-6.13v-17.74s-.12-4.33 4.56-4.33h31.11c2.8 0 4.56 1.61 4.56 4.52 0 3.03.31 92.42.31 92.42s-.46 10.81 10.73 10.81c10.81 0 11.54-11.07 11.54-11.07V107.79c0-6.59-4.64-9.88-9.97-9.88h-62.49c-11 0-11.57 10.5-11.57 10.5v105.14c0 7.2 4.25 10.77 10.57 10.77 4.37 0 14.91.1 20.96.1 7.06 0 9.85-4.81 9.85-11.09zm-62.87-.1v-49.66c0-5.29-3.37-7.78-5.14-9-3.87-2.64-10.46-7.28-12.76-9.73-2.29-2.26-2.18-6.13-2.18-6.13v-17.47c0-2.95 2.26-4.6 4.45-4.6h32.34c2.68 0 4.56 1.61 4.56 4.52 0 3.03.23 89.66.23 89.66s3.87 5.75 10.77 7.13c8.89 1.99 10.46-2.37 10.46-2.37V107.77c0-8.31-10.23-9.88-10.23-9.88H39.2c-6.17 0-9.62 3.87-9.62 9.54v106.1c0 8.05 3.3 10.85 9.62 10.77 3.95 0 15.67.1 22.18.1 9.88 0 9.54-11.17 9.54-11.17zm62.87.1v-49.74c0-5.29-3.29-7.66-5.02-8.85-3.83-2.68-10.54-7.4-12.99-9.88-2.26-2.26-2.15-6.13-2.15-6.13v-17.74s-.12-4.33 4.56-4.33h31.11c2.8 0 4.56 1.61 4.56 4.52 0 3.03.31 92.42.31 92.42s-.46 10.81 10.73 10.81c10.81 0 11.54-11.07 11.54-11.07V107.79c0-6.59-4.64-9.88-9.97-9.88h-62.49c-11 0-11.57 10.5-11.57 10.5v105.14c0 7.2 4.25 10.77 10.57 10.77 4.37 0 14.91.1 20.96.1 7.06 0 9.85-4.81 9.85-11.09zm-62.87-.1v-49.66c0-5.29-3.37-7.78-5.14-9-3.87-2.64-10.46-7.28-12.76-9.73-2.29-2.26-2.18-6.13-2.18-6.13v-17.47c0-2.95 2.26-4.6 4.45-4.6h32.34c2.68 0 4.56 1.61 4.56 4.52 0 3.03.23 89.66.23 89.66s3.87 5.75 10.77 7.13c8.89 1.99 10.46-2.37 10.46-2.37V107.77c0-8.31-10.23-9.88-10.23-9.88H39.2c-6.17 0-9.62 3.87-9.62 9.54v106.1c0 8.05 3.3 10.85 9.62 10.77 3.95 0 15.67.1 22.18.1 9.88 0 9.54-11.17 9.54-11.17zm501.72-93.07v18.55s-.15 3.87 2.11 6.13c3.53 3.48 15.86 11.8 15.86 11.8s2.19.31 2.19 6.94v33.37s.27 4.9 4.02 4.9h34.64s3.14-.69 3.41-5.98c.19-3.26.35-4.9.35-7.28 0-.73-.1-10.46 9.66-10.46 11 0 11.8 7.01 11.8 10.27 0 3.18-.1 27.32-.1 27.32s-.65 8.58-9.58 8.58h-85.29s-10.31.1-10.31-10.77V108.37s.54-10.5 11.53-10.5h83.22s10.19 1.57 10.19 9.88v30.08s-1.3 8.05-10.42 8.05c-9.16 0-10.81-7.78-10.81-7.78l-.27-16.98s-1.34-4.52-4.56-4.52h-53.11s-4.56-.79-4.56 3.54zm-100.35 43.99h55.75c9.92 0 9.42-9.92 9.42-9.92v-47.78c0-8.51-9.04-8.54-9.04-8.54h-84.65c-10.77 0-10.46 10.15-10.46 10.15s-.27 95.02-.27 105.18c0 10.27 11.03 11.07 11.03 11.07s71.31-.1 80.97 0c11.99.1 12.41-10.99 12.41-10.99v-24.64c0-4.29-2.61-10.81-10.54-10.81-10.42 0-10.69 10.54-10.69 10.54s.19 5.17 0 8.47c-.15 4.98-4.56 5.4-4.56 5.4h-41.84c-3.72 0-4.02-4.52-4.02-4.52s.31-21.5.31-27.43c0-5.95 6.18-6.18 6.18-6.18zm-11.61-18.5c-6.94 0-6.47-6.13-6.47-6.13s.34-14.52.34-18.58c0-4.71 4.25-4.98 4.25-4.98h52.77c4.94 0 4.41 4.45 4.41 4.45v18.97c0 5.63-5.25 6.44-5.25 6.44s-44.61-.17-50.05-.17z"/></svg>