<svg    xmlns="http://www.w3.org/2000/svg" viewbox="0 0 1049 481">
  <path d="m 180.6,415 c 0,19 6.6,26 16.6,26 25.2,0 65.2,-59 63.7,-120 38.1,-40 83.8,-103 83.8,-154 0,-12 -3.4,-22 -17.9,-22 -22.1,0 -53.8,38 -73.8,76 -19.4,39 -37.5,84 -61.5,145 -5.6,15 -10.9,34 -10.9,49 z m 543.6,-84 0,32 c 0,0 15.7,11 46.1,11 46.6,0 66.9,-26 66.9,-54 0,-62 -82.6,-47 -82.6,-87 0,-16 12.3,-27 32.8,-27 23.7,0 41.3,13 41.3,13 l 0,-29 c 0,0 -16.4,-9 -39.8,-9 -39.8,0 -64.5,24 -64.5,54 0,61 82.1,49 82.1,88 0,18 -14.7,25 -34.1,25 -27.5,0 -48.2,-17 -48.2,-17 z m 299.8,39 -29.3,0 0,-105 c 0,-39 -14,-59 -43,-59 -15,0 -27,6 -37,17 -10,11 -14,25 -14,42 l 0,105 -30,0 0,-184 30,0 0,30 0,0 c 14,-23 35,-35 61,-35 20,0 35,7 46.3,20 11,13 16,32 16,56 z m -332,0 -29.5,0 0,-106 c 0,-20 -2.8,-35 -9.2,-44 -6.5,-9 -17.6,-14 -32.3,-14 -12,0 -23,6 -32.3,18 -8.3,11 -12.9,25 -12.9,41 l 0,105 -29.5,0 0,-109 c 0,-36 -13.8,-55 -41.4,-55 -12.9,0 -24,6 -32.3,17 -8.3,10 -12.9,25 -12.9,42 l 0,105 -29.5,0 0,-184 29.5,0 0,28 0.9,0 c 12.9,-22 32.3,-33 57.2,-33 12.9,0 23.9,4 33.2,10 9.2,8 15.6,17 19.3,28 13.8,-25 34.1,-38 60.8,-38 40.6,0 60.9,25 60.9,75 z M 71.7,456 C 46.5,456 25,440 25,404 c 0,-55 47.6,-97 69.2,-109 0,0 30.3,17 61.7,29 C 93.5,284 53.7,212 53.7,133 53.7,58 93,25 128.6,25 c 28.5,0 96.3,31 96.3,152 0,129 -67.7,279 -153.2,279 z" />
</svg>
