<svg xmlns="http://www.w3.org/2000/svg" viewBox="0 0 391 202"><path d="M371.61 175.02c0 5.66 4.47 9.47 9.46 9.47 5 0 9.47-3.81 9.47-9.47 0-5.65-4.47-9.46-9.47-9.46-4.99 0-9.46 3.81-9.46 9.46zm16.81 0c0 4.29-3.28 7.5-7.35 7.5-4.11 0-7.34-3.21-7.34-7.5s3.23-7.49 7.34-7.49c4.07 0 7.35 3.2 7.35 7.49zm-4.8 5.4h2.12l-3.1-4.74c1.67-.18 2.93-.99 2.93-2.95 0-2.2-1.39-3.11-4.07-3.11h-4.21v10.8h1.82v-4.67h1.69l2.82 4.67zm-4.51-6.18v-3.1h2.09c1.09 0 2.4.2 2.4 1.46 0 1.51-1.19 1.64-2.55 1.64h-1.94zM276.54 24.833c-1.65-.03-2.81.18-4.04.45v.223h.23c.78 1.613 2.17 2.65 3.14 4.04.75 1.572 1.49 3.144 2.24 4.714.1-.07.15-.15.23-.224 1.39-.98 2.02-2.546 2.02-4.938-.56-.586-.64-1.32-1.13-2.02-.64-.932-1.88-1.46-2.69-2.245zm100.34 85.527c-7.9-.22-13.93.52-19.08 2.69-1.46.62-3.8.63-4.04 2.47.8.84.93 2.1 1.57 3.14 1.23 1.99 3.31 4.66 5.16 6.06 2.03 1.53 4.12 3.17 6.29 4.49 3.86 2.36 8.18 3.7 11.9 6.06 2.19 1.4 4.37 3.15 6.5 4.72 1.06.77 1.77 1.98 3.15 2.47v-.23c-.73-.92-.91-2.18-1.58-3.14-.97-.97-1.94-1.95-2.91-2.92-2.86-3.79-6.48-7.11-10.33-9.88-3.07-2.2-9.94-5.18-11.22-8.75-.1-.1-.15-.15-.23-.22 2.18-.25 4.73-1.04 6.74-1.57 3.37-.91 6.39-.68 9.88-1.58 1.57-.45 3.14-.89 4.71-1.34v-.9c-1.76-1.81-3.02-4.2-4.94-5.84-5.03-4.28-10.51-8.553-16.16-12.122-3.13-1.977-7.01-3.262-10.33-4.938-1.11-.564-3.08-.857-3.81-1.796-1.75-2.224-2.7-5.042-4.04-7.632-2.82-5.426-5.59-11.35-8.08-17.06-1.71-3.892-2.82-7.73-4.94-11.223-10.19-16.758-21.16-26.872-38.16-36.814-3.62-2.114-7.97-2.95-12.57-4.04l-7.41-.45c-1.5-.63-3.07-2.472-4.49-3.366-5.63-3.556-20.07-11.293-24.24-1.122-2.63 6.42 3.94 12.684 6.29 15.937 1.65 2.283 3.76 4.84 4.93 7.408.78 1.686.91 3.378 1.58 5.163 1.63 4.396 3.05 9.18 5.16 13.243 1.07 2.055 2.24 4.22 3.59 6.06.83 1.127 2.24 1.624 2.47 3.367-1.39 1.94-1.47 4.95-2.24 7.407-3.51 11.06-2.19 24.81 2.91 32.993 1.57 2.52 5.26 7.913 10.33 5.843 4.43-1.81 3.44-7.413 4.71-12.35.29-1.12.11-1.942.67-2.692v.224c1.35 2.694 2.7 5.387 4.05 8.075 2.99 4.823 8.29 9.853 12.79 13.253 2.33 1.76 4.17 4.81 7.18 5.84v-.23h-.22c-.59-.91-1.5-1.29-2.25-2.02-1.75-1.72-3.71-3.86-5.16-5.84-4.09-5.55-7.7-11.633-11-17.956-1.57-3.02-2.94-6.353-4.26-9.427-.51-1.186-.51-2.978-1.57-3.592-1.45 2.253-3.59 4.074-4.72 6.734-1.79 4.25-2.03 9.437-2.69 14.817-.39.14-.22 0-.45.22-3.13-.75-4.22-3.97-5.39-6.732-2.93-6.982-3.48-18.226-.89-26.263.66-2.08 3.69-8.63 2.46-10.55-.58-1.916-2.51-3.025-3.59-4.49-1.33-1.81-2.66-4.194-3.59-6.285-2.4-5.444-3.53-11.556-6.06-17.06-1.21-2.63-3.26-5.292-4.94-7.63-1.86-2.59-3.94-4.5-5.38-7.633-.52-1.113-1.21-2.896-.45-4.04.24-.773.58-1.095 1.34-1.347 1.31-1.003 4.93.334 6.29.898 3.6 1.495 6.6 2.92 9.65 4.938 1.47.97 2.94 2.848 4.71 3.367h2.02c3.16.727 6.7.226 9.66 1.122 5.21 1.586 9.89 4.053 14.14 6.735 12.94 8.17 23.51 19.798 30.75 33.67 1.16 2.233 1.67 4.365 2.69 6.734 2.07 4.778 4.68 9.694 6.74 14.366 2.05 4.66 4.05 9.365 6.95 13.244 1.53 2.04 7.43 3.133 10.1 4.265 1.88.792 4.96 1.622 6.74 2.692 3.4 2.053 6.69 4.493 9.88 6.743 1.59 1.12 6.48 3.58 6.73 5.61zm-140.14 59.02v-30.52c0-7.76 5.44-12.46 16.21-13.94 1.11-.17 2.35-.25 3.46-.25h24.38c1.24 0 2.35.1 3.59.25 10.76 1.48 16.21 6.18 16.21 13.94v30.52c0 6.29-2.31 9.66-7.64 11.85l12.65 11.42h-14.91l-10.24-9.24-10.3.66h-13.74c-2.35 0-4.82-.34-7.54-1.08-8.17-2.22-12.13-6.51-12.13-13.61zm13.86-.74c0 .41.12.82.25 1.32.74 3.55 4.08 5.53 9.15 5.53h11.67l-10.72-9.68h14.92l9.34 8.44c1.72-.92 2.86-2.32 3.25-4.13.13-.41.13-.82.13-1.23V139.6c0-.33 0-.74-.13-1.15-.74-3.3-4.08-5.2-9.03-5.2H260c-5.69 0-9.4 2.47-9.4 6.35v29.04zm58.06.29c0 8.81 6.54 13.75 19.76 14.74 1.23.1 2.47.16 3.7.16h33.47v-8.56h-33.72c-7.53 0-10.37-1.89-10.37-6.42v-44.29h-12.84v44.37zm-137.16 14.9h36.92c4.32 0 8.52-.9 11.86-2.47 5.55-2.55 8.27-6.01 8.27-10.54v-9.38c0-3.7-3.09-7.16-9.14-9.47-3.21-1.23-7.16-1.89-10.99-1.89h-15.56c-5.18 0-7.65-1.56-8.27-5.02-.13-.41-.13-.74-.13-1.16v-5.84c0-.33 0-.66.13-1.07.62-2.63 1.97-3.38 6.54-3.79.37 0 .87-.1 1.24-.1h36.67v-8.56h-36.05c-5.19 0-7.91.33-10.38 1.07-7.65 2.39-10.99 6.17-10.99 12.76v7.49c0 5.76 6.55 10.7 17.54 11.86 1.23.1 2.47.16 3.7.16h13.34c.49 0 .99 0 1.36.1 4.07.33 5.8 1.07 7.03 2.55.75.74.99 1.48.99 2.31v7.49c0 .9-.62 2.06-1.85 3.04-1.11.99-2.96 1.65-5.43 1.81-.5 0-.87.1-1.36.1H171.5v8.57zm-71.06-41.27h12.84v27.93c-.12 1.52.49 5.08 7.52 5.19 3.59.1 27.7 0 27.93 0v-33.26h12.86c.1 0 0 45.36 0 45.56.1 11.18-13.89 13.61-20.32 13.8h-40.55v-8.64h40.62c8.27-.87 7.29-4.98 7.29-6.36v-3.37h-27.29c-12.7-.12-20.79-5.66-20.89-12.04 0-.59.27-28.54 0-28.81zM.738 183.82H13.58v-50.71l19.88 44.21c2.346 5.35 5.557 7.25 11.854 7.25 6.298 0 9.385-1.9 11.732-7.25l19.88-44.21v50.71h12.842V133.2c0-4.94-1.976-7.33-6.05-8.56-9.755-3.05-16.3-.42-19.264 6.17l-19.51 43.63-18.892-43.63c-2.84-6.59-9.508-9.22-19.263-6.17-4.076 1.23-6.052 3.62-6.052 8.56v50.62z"/></svg>