<svg xmlns="http://www.w3.org/2000/svg" viewBox="0 0 336 156.8"><path d="M91.4 22.85l-18.74 23.1c-.15 0-26.75-13-26.75-13-.79-.3-1.45-.4-1.86-.1-.42.4-.54 1-.35 1.9l6.31 28.98c-.1.13-26.77 12.88-26.77 12.88-.8.37-1.24.88-1.24 1.4 0 .53.43 1.03 1.22 1.42l26.56 13.09c.1.13-6.59 28.98-6.59 28.98-.2.9-.1 1.5.33 1.9.41.3 1.07.3 1.87-.1l26.74-12.6c.15 0 18.62 23.2 18.62 23.2.55.7 1.13 1 1.65.9.51-.1.91-.6 1.11-1.5l6.69-28.8c.2-.1 29.9 0 29.9 0 .9 0 1.5-.3 1.8-.8.2-.4 0-1.1-.5-1.8L113 78.62c0-.16 18.6-23.29 18.6-23.29.6-.69.8-1.33.6-1.8-.3-.48-.9-.75-1.8-.75l-7.5-.1c-.5 0-1.1.23-1.4.61L93.52 83.11c-.26.3-.49.4-.64.28-.12-.1-.14-.31.13-.65.56-.7 16.09-19.5 23.89-28.96.2-.23.2-.47.1-.68-.1-.24-.4-.4-.7-.4l-9.8-.1c-.9 0-1.7.72-2 1.03-4.59 4.86-27.23 28.95-27.7 29.48-.25.3-.49.4-.64.28-.11-.1-.13-.31.13-.65l23.48-28.51c.53-.68.93-1.13.73-1.73 0-.32-6.29-28.65-6.35-28.95-.2-.9-.58-1.4-1.09-1.5-.52-.2-1.1.2-1.66.8M220.7 88.6c0-2.84 1.1-6.61 11.4-6.61h5.4v8.1c-3.5 3.09-6.7 4.51-10.2 4.51-4.3 0-6.6-2.13-6.6-6zm-10-34.67l-.8.3 2.6 10.99 1-.42c4.5-1.79 9.9-2.87 14.4-2.87 8 0 9.6 2.93 9.6 8.36v1.7h-5.2c-17.3 0-26.1 5.81-26.1 17.29 0 10.22 6.8 16.32 18.2 16.32 5.9 0 10.8-1.8 15.2-5.4.3 1.4.9 4 .9 4l16.1-.5v-8.18s-3.8-.36-4.9-.46V69.13c0-12.43-7.2-18.49-22-18.49-6.3 0-13.4 1.24-19 3.29m48.4-21.28v8.1s4.8.6 5.3.7V102c7.1 2.1 14.9 3.3 21.4 3.3 17.9 0 28.2-10.56 28.2-29.01 0-15.67-8.1-25.42-21.1-25.42-5.6 0-10.2 1.78-14.6 5.44V31.95l-19.2.7zm31.1 30.31c5.8 0 8.8 4.98 8.8 14.81 0 7.2-2.2 15.79-12.3 15.79-3.4 0-6.3-.86-8.4-1.66V69.82c4.1-4.72 7.8-6.86 11.9-6.86m-126.6-5.51c-.3-1.82-1-5.46-1-5.46l-15.7.85v8.15s3.9.49 4.4.56v42.65h14.4V69.29c4.3-4.55 6.9-6.47 11.5-6.47 5 0 7.3 3.48 7.3 11.29v30.09h14.4V71.57c0-13.68-6.5-20.93-18.9-20.93-6.5 0-11.1 1.9-16.4 6.81"/></svg>