<svg xmlns="http://www.w3.org/2000/svg" viewBox="0 0 921.3 223.6"><path d="M880.7 30.1c0-5.9 4.5-10.4 10.2-10.4 5.6 0 10.1 4.5 10.1 10.4 0 6-4.5 10.5-10.1 10.5-5.7 0-10.2-4.5-10.2-10.5zm10.2 12.5c6.8 0 12.6-5.3 12.6-12.5 0-7.1-5.8-12.5-12.6-12.5-6.9 0-12.7 5.4-12.7 12.5 0 7.2 5.8 12.5 12.7 12.5zm-2.7-11.5h2.5l3.8 6.2h2.5l-4.1-6.3c2.1-.3 3.7-1.4 3.7-4 0-2.8-1.7-4-5.1-4H886v14.3h2.2zm0-1.9v-4.4h3c1.5 0 3.1.3 3.1 2.1 0 2.2-1.6 2.3-3.4 2.3zm-363 17.4c57.6 0 66-1.8 66 60v.2c0 61.9-8.5 59.5-66.1 59.5h-65.8l.1-119.7zm20.6 80.8V85.7h-41.7v41.7zm87 38.9h-47.1l55.9-119.6h46.2l55.9 119.6h-47.1l-6.6-13.8h-50.6zm31.9-76.9l-13.2 28.5h26.4zM347.6 46.6c-30.6.5-30.4 20.5-30.4 37.5 0 17.2-.8 38.1 30.4 38.5m0 0h61v8.2h-86.7v35.5h95.3c31.3-.5 30.4-21.4 30.4-38.5 0-17.2.8-38-30.4-38.5h-63.6v-8.1h84.9V46.7l-91.1-.1M60.43 110.2l56.07 56.1H157V46.7h-42.7l-.1 56-56.08-56h-40.4v119.6h42.71zm677.67-3.8c0 62.2 8.6 60.5 66.3 60.5 57.7 0 66.1 1.7 66.1-60.5v-.1c0-62.3-8.4-60.5-66.1-60.5-57.7 0-66.3-1.8-66.3 60.5zm45.4 20.8V85.5h41.7v41.7zm82.1 78.7v-40.6h-40.5v40.6zm-651.2-53.4h50.7l6.6 13.8h47L262.8 46.7h-46.2l-55.8 119.6h47.1zm38.5-34.6h-26.3l13.2-28.5z"/></svg>