<svg xmlns="http://www.w3.org/2000/svg" viewBox="0 0 250 250"><path d="M125 8.356C60.58 8.356 8.356 60.584 8.356 125c0 64.42 52.224 116.65 116.644 116.65 64.41 0 116.65-52.23 116.65-116.65C241.65 60.584 189.41 8.356 125 8.356zm0 3.36c62.52 0 113.22 50.69 113.22 113.224 0 62.53-50.7 113.2-113.22 113.2-62.523 0-113.21-50.67-113.21-113.2C11.79 62.406 62.477 11.715 125 11.715zm.23 4.073l-.61 9.656c-.1.95 0 1.996.18 2.936.69 3.135 3.73 4.236 6.58 4.418 1.58.1 3.22-.13 4.57-.973 2.57-1.547 2.7-4.008 2.95-6.706l.53-8.43a6.55 6.55 0 0 1-1.9-.12l-.45 7.174c-.1 1.16-.25 3.86-.73 4.876-.96 2.007-2.2 2.736-4.41 2.59-1.03-.06-1.92-.43-2.63-1.186-.8-.884-.94-1.63-1.09-2.803-.13-1.245 0-3.182.13-4.484l.43-6.726c-.59.01-1.19.05-1.79 0-.59-.04-1.17-.145-1.76-.23zm-8.73.177c-.42 0-.84.02-1.22.06-5.15.567-9.07 3.842-8.4 9.997.53 4.83 4.69 7.52 9.73 6.965 1.6-.173 3.23-.644 4.57-1.525l.29-2.087-.32-.107c-.96 1.132-2.57 2.07-4.03 2.234-3.62.397-5.92-2.214-6.36-6.243-.38-3.464.78-7.39 4.69-7.82 1.53-.17 3.14.558 4.17 1.74l.32-.04c.1-.85.15-1.66.26-2.487-1.08-.452-2.43-.673-3.7-.684zm28.68 1.723l-3.74 15.84c.59.09 1.19.156 1.77.295.58.137 1.14.338 1.69.527l1.75-7.412.18.04c.3.995.69 2.212.89 2.915l1.6 5.496c.7.118 1.41.21 2.1.38.71.168 1.39.4 2.08.61l-.56-1.648c-.88-2.472-1.82-4.93-2.57-7.448 2.27.05 4.06-1.04 4.6-3.3.37-1.57-.1-2.776-1.24-3.777-.85-.742-2.54-1.094-3.63-1.352zm-42.41.546l-8.75 2.254 4.025 15.646 8.755-2.26c-.13-.305-.28-.632-.37-.954 0-.325-.14-.686-.14-1.02-1.36.55-2.89 1.063-5.22 1.69l-1.505-5.836 2.395-.613c1.03-.27 2-.418 2.88-.524a6.995 6.995 0 0 1-.37-.954 3.58 3.58 0 0 1-.15-1.02c-.82.33-1.74.668-2.77.932l-2.388.614-1.276-4.938c2.334-.646 3.954-.868 5.404-1.044-.13-.31-.28-.635-.38-.96 0-.32-.14-.684-.14-1.014zm45.6 1.524c1.4.33 3.17.557 3.09 2.562 0 .507-.1.858-.15 1.18-.57 2.376-2.05 3.248-4.41 2.442zm12.45 2.162l-5.56 15.297c.58.156 1.16.29 1.71.493.56.204 1.09.474 1.64.717l5.55-15.295c-.57-.16-1.16-.292-1.72-.498-.55-.198-1.09-.47-1.62-.715zm-72.21.49c-.786-.03-1.8.106-2.794.498-3.362 1.32-4.275 4.106-3.277 6.643 2.087 5.323 8.166 1.452 9.55 4.988.605 1.524-.312 2.773-1.676 3.31-1.524.6-3.074.166-4.002-1.23l-.42.163c.24 1.004.364 2.028.462 3.056 1.3.257 2.715.04 3.927-.446 3.425-1.344 5.056-4.33 3.945-7.156-1.988-5.06-8.483-1.868-9.656-4.85-.497-1.26-.166-2.432 1.578-3.115 1.258-.497 2.392-.07 3.292.92l.335-.13c-.08-.836-.137-1.652-.156-2.466-.25-.1-.64-.17-1.11-.184zm79.23 2.04c-.1.316-.17.65-.32.94-.15.326-.37.592-.56.87 1.17.39 2.6.9 4.1 1.643l-6.43 13.098c.57.218 1.13.415 1.66.672.53.267 1.04.592 1.54.897l6.44-13.096c1.3.64 2.48 1.404 3.66 2.167.1-.32.19-.647.34-.964.15-.3.36-.568.55-.843zm13.22 6.638c-.31 3.595-.82 7.124-1.09 10.653l-3.85 5.666c.51.298 1.05.57 1.53.905.49.333.94.728 1.4 1.102l4.13-6.06c2.95-1.665 6.05-3.038 9.16-4.586a8.17 8.17 0 0 1-.97-.582 6.963 6.963 0 0 1-.93-.708c-1.87 1.156-5.55 3.42-6.91 3.83-.1-.447.15-1.73.36-3.192.24-1.532.52-3.184.71-4.623-.61-.364-1.25-.702-1.84-1.102-.58-.405-1.13-.863-1.7-1.303zM66.593 33.117c-.477.36-.94.74-1.44 1.05-.503.322-1.045.577-1.568.856l8.632 13.65 7.6-4.805c-.218-.25-.468-.516-.644-.796-.18-.283-.31-.623-.445-.926-1.274 1-2.67 2.08-4.416 3.18zM125 35.287c-49.51 0-89.644 40.134-89.644 89.653 0 49.5 40.136 89.64 89.644 89.64 49.5 0 89.64-40.14 89.64-89.64 0-49.52-40.14-89.653-89.64-89.653zm0 2.207c48.29 0 87.43 39.148 87.43 87.446 0 48.29-39.14 87.42-87.43 87.42-48.283 0-87.435-39.13-87.436-87.42 0-48.298 39.153-87.446 87.436-87.446zm-69.84 3.723a5.738 5.738 0 0 1-.635.64c-.238.205-.47.368-.735.526l5.487 16.92c.276-.263.533-.543.825-.796.287-.24.588-.435.894-.666-.72-1.54-1.22-3.043-1.917-4.813l4.213-3.583c1.514.795 2.936 1.702 4.493 2.682.493-.48.95-.967 1.475-1.41.52-.445 1.076-.822 1.63-1.23zm1.583 4.636l5.192 2.84-3.307 2.813zM204.7 49.99l-16.64 6.246c.28.263.56.507.83.783.27.28.46.57.71.867 1.5-.787 2.99-1.358 4.72-2.138l3.78 4.04c-.73 1.553-1.56 3.015-2.49 4.617.52.468 1.02.903 1.48 1.41.48.5.87 1.037 1.3 1.572l7.54-16.09a8.273 8.273 0 0 1-.67-.613 8.99 8.99 0 0 1-.56-.698zm-158.93.04c-.164.27-.356.538-.55.775a6.5 6.5 0 0 1-.663.685l8.554 7.08c-5.074.146-10.11.565-15.088.815l-1.498 1.81 12.5 10.347c.18-.257.35-.54.552-.77.192-.246.442-.467.657-.69l-8.844-7.32 3.732-.268c3.883-.266 7.765-.384 11.877-.546l1.306-1.54zm155.61 3.07l-2.61 5.31-2.95-3.177zm-40.7 7.056v.123c-2.33.09-4.69.648-6.67 1.025l-.1.04c-1.99.842-4.44 1.998-6.39 3.645-1.95 1.64-3.46 3.818-3.41 6.6-.16 4.427 2.17 7.695 2.58 11.564-.1 2.248-1.43 4.243-3.26 5.93-1.86 1.69-4.12 3.044-5.8 4.012l-.71.422h-1.88v-.178c-.2-1.313-.8-3.16-1.18-4.428.1-1.108-.19-2.095-.45-2.87-.3-.863-.42-1.41-.25-1.824l.23-.427-.22-.42c-1.12-3.055-1.38-6.138-1.49-9.597V73.543c-.4-1.748-.61-3.782-1.27-5.763h.14l-.39-.91c-.65-1.498-1.93-2.434-3.2-3.038-1.27-.607-2.58-.92-3.53-1.12-1.01-.22-2.24-.355-3.22-.44-.49-.05-.92-.07-1.24-.09-.27-.03-.46-.03-.45-.03h-.1s-.1.03-.12.03c-.62-.03-1.25.08-1.81.34-.32.14-.65.325-.92.62-.13.124-.24.274-.32.443l-2.24-.227c-.39-.04-.79-.04-1.17-.04h-.15c-.18 0-.36 0-.55.04-.57.03-1.13.1-1.64.243-.6.158-1.14.415-1.59.797l-.22.195v.03l-.55 1.066c-.1.127-.13.247-.18.377-.65 1.965-.19 3.963 0 5.92l.1.854.34 2.79.97-3.234.15-.17c.37.14 1.7.677 4.62 2.084 0 .09.1.163.1.185v.254l.29.23c.28.29.42.46.5.655.1.193.1.507.1 1.034l-.86 2.426-.7 2.67v.15c0 .188-.21.714-.57 1.35-.31.59-.67 1.343-.68 2.25-.37.772-.87 1.855-.84 3.08l-2 4.872h-4.74l.1-.24c-2.29-1.063-4.89-2.355-6.36-4.477-.498-2.8.37-5.495 1.14-8.273.78-2.814 1.43-5.738.12-8.808l-.03-.03v-.03c-2.194-3.9-5.833-5.872-9.754-6.58a20.568 20.568 0 0 0-3.74-.312c-.753 0-1.506.05-2.254.13h-.04a23.91 23.91 0 0 0-5.737 1.335h-.04l-.04.04c-6.026 3.547-9.188 8.898-11.085 14.83-1.894 5.933-2.553 12.464-3.6 18.506v.04l-1.94 27.57c-.493 6.81.37 13.6-.27 20.15l-.08.75.71-.23c1.374-.46 2.686-1.31 3.804-2.41.71 4.21.33 8.88-.07 13.16l-.06.55h.55c2.14 0 3.803-1.45 5.044-3-.198 4.23-.744 8.26-1.754 12.09l-.05.16.42 1.01.216.1c1.173.37 2.356.12 3.428-.34.87-.37 1.634-.93 2.375-1.44-.338 1.52-.478 3.09-.673 4.61h-2.024a4.132 4.132 0 0 0-4.11 3.86v.1c.13 2.08 1.827 3.71 3.906 3.82v3.41H74v1.41h-2.15v5.87h10.692v-5.87h-1.615v-1.41h3.43v1.41H82.74v5.87h10.79v-5.87H91.37v-1.41h2.157v-3.37h11.17l-.14.32a.162.162 0 0 0 0 .16l1.71 2.34a.162.162 0 0 0 .2.1l2.77-1.1a.162.162 0 0 0 .1.1h-.1l1.91 2.45a.162.162 0 0 0 .19.1l2.73-1.15a.162.162 0 0 0 .11 0h-.1l2.02 1.58a.162.162 0 0 0 .16 0l2.71-1.04a.162.162 0 0 0 .1 0l3.74 2a.162.162 0 0 0 .16 0l3.79-1.97 2.61 1.01a.162.162 0 0 0 .17 0l2.01-1.58h-.1a.162.162 0 0 0 .13-.1l2.72 1.16a.162.162 0 0 0 .19-.1l1.9-2.45h-.1a.162.162 0 0 0 .12-.1l2.63 1.04a.104.104 0 0 0 .1 0h.1a.162.162 0 0 0 .19-.1l1.71-2.34a.162.162 0 0 0 0-.16l-.13-.28h.43v.1l.49.1s.46.1 1.06-.14h7.84l-.12.18.47-.18h6.51c.1.77.73 1.38 1.51 1.38.79 0 1.45-.61 1.53-1.38h1.4c.15 0 .3.1.27 0 .1.1.43.59.43.59v-.1c.96 2.18 2.73 4.53 4.83 6.37 2.12 1.86 4.59 3.25 7.09 3.25 2.42 0 4.39-1.1 5.9-2.69 1.52-1.57 2.64-3.63 3.56-5.71 0 0 .32-.74.75-1.58.42-.85 1-1.84 1.25-2.08.9-.93 2.73-1.24 2.73-1.24l6.03-.81-6.03-.81s-1.83-.32-2.72-1.25c-.25-.24-.84-1.22-1.26-2.07-.42-.85-.74-1.59-.74-1.59-.67-1.52-1.47-3.03-2.44-4.35l.22-.17-.11-.31c-1.16-3.72-1.81-7.78-2.45-11.81v-.1c1.28.65 2.35.88 3.08.73.87-.17 1.33-.72 1.33-.72l.16-.19-.1-.23c-.95-3.79-1.56-8.47-1.85-13.01.33.67.67 1.35 1.18 1.95.75.77 1.83 1.43 3.03 1.16l2.18-.5-.15-.5c-4.85-15.27-2.51-32.72-5.63-48.965l.27-1.193v-.09c-1-6.098-3.93-11.35-5.85-16.907v-.06c-2.25-4.646-4.5-10.2-9.85-13.113-1.62-1.377-3.61-1.85-5.63-1.887zm-.2 1.035v.04l.15.05c2.19-.08 4.25.28 5.86 1.658v.07c5.05 2.703 7.21 8.006 9.49 12.716 1.91 5.49 4.67 10.562 5.7 16.238-1.32 1.11-2.96 2.01-4.6 1.393l-1.45-1.56c-2.86-5.126-5.18-10.52-7.5-15.905.7.263 2.04.16 2.86-.38.97-.867 1.84-1.946 2.32-3.128-1.46 1.182-3.83 2.26-5.83 1.454l-.26-.272c-2.49 1.893-5.88 3.616-9.18 2.326-.58 1.556-1.07 3.606-2.95 4.148l-1.46.105c.37.92 1.34 1.887 1.84 2.86.32 1.56.59 3.774-.28 5.18-.53 1.504-3.45.64-2.32 2.856.17 1.56.33 3.39-.64 4.638-1.4 1.504-3.18 2.8-4.91 2.583-.21 1.145-1.48 3-2.02 3.77-.19-5.062-1.05-8.64-1.05-8.64l-.1-.373h-4.78c1.45-.877 3.01-1.903 4.47-3.232 1.95-1.783 3.53-4.006 3.59-6.647v-.07c-.44-4.2-2.72-7.395-2.57-11.47v-.06c-.1-2.435 1.23-4.32 3.05-5.853 1.81-1.524 4.14-2.65 6.09-3.476 2-.385 4.29-.92 6.46-1.005zm49.81.762c-1.6-.03-3.3.474-5.01 1.58-4.67 3.033-4.35 8.146-1.62 12.344 1.14 1.748 2.69 3.258 4.35 4.727l5.5-3.577c-.36-.47-.74-.932-1.07-1.43-.32-.497-.59-1.035-.87-1.556l-4.64 3.022c-.6-.293-1.33-.83-1.98-1.826-1.97-3.025-1.05-6.115 2.43-8.363 3.34-2.17 7.39-2.488 9.56.836 1.02 1.568 1.25 3.448.52 5.233l.17.28a8.138 8.138 0 0 1 2.38-.745c-.13-2.053-.79-3.876-1.9-5.585-1.96-3.015-4.74-4.906-7.82-4.94zM117.91 63.3H118.35s2.96.14 4.8.537c.22.05.46.1.71.162.1 0 .11.03.17.05.2.05.38.1.59.155.1.03.2.07.31.1.16.05.32.1.48.16.21.08.42.15.63.237.1.04.11.06.17.08.15.06.29.133.43.204.14.08.27.147.4.224v.04c.13.07.25.15.36.23 0 0 .1.03.1.05.11.08.21.153.31.234 0 .04.1.05.1.06.1.08.18.16.27.244 0 .03.1.06.1.08.1.08.15.17.22.257 0 .04.1.07.1.107.1.1.15.208.22.318 0 .04 0 .05.1.08.1.14.16.282.23.435.87 1.995.97 4.315 1.46 6.47.1 3.507.38 6.736 1.56 9.978-.7 1.722 1.08 3.5.64 5.387.34 1.133.85 2.75 1.09 3.885 0 .16.1.312.1.45h-.54l-1.76-4.44.55-.06-1.35-4.314.6.06-1.68-3.635.67.134-.74-3.575h.41l-.67-2.69.67-.07-1.08-3.433.67 3.164-.81-.133.88 2.762-.67-.134 1.01 3.708-.88-.06 1.62 3.57s-1.08-.47-.81-.06c.26.406 1.69 4.45 1.69 4.45l-.81.06 1.87 4.713h-.81c-1.06-.74-1.06-1.208-1.66-1.59-.21.168.34.58.39.85l.49.74h-5.88c.28-.51.9-.99.26-1.205 0 0-.1-.03-.13-.03-.65 0-1.29.97-1.8 1.225h-6.13c-.17-.484.94-.99.51-1.322-.76 0-1.61 1.108-2.25 1.322h-4.23c-.27-.324 1.09-.62.82-.94-.64.16-1.17.816-1.81.94h-.94l1.83-4.425c-.27-1.03.43-2.215.92-3.24-.16-1.402 1.29-2.582 1.29-3.878l.66-2.482.9-2.586v-.792-.27-.15-.18-.08c-.1-.203-.15-.385-.25-.553a4.608 4.608 0 0 0-.52-.656c-4.41-2.165-6.03-2.723-6.08-2.74 0 0 .17-.266.38-.56 0 0 .14-.217.27-.395v.03c-.11.118-.2.24-.29.364 2.41.922 2.73.964 4.93 2.663l-1.21-1.133s-.98-.936-3.48-1.92c.17-.198.35-.37.51-.42 1.97-.645 3.14.134 3.14.134l1.19.62 3.03 1.39s.64 0 0-.203c-2.04-.906-3.82-3.047-6.05-2.982v-.03c-.41 0-.84.1-1.27.286-.95.526-1.38 1.894-1.79 2.762l-.1.117c-.24-2.586-.92-5.013.54-7.148.12-.133.27-.247.43-.35 0-.04.1-.05.11-.08.1-.04.12-.08.2-.107.1-.04.12-.06.18-.08.1-.03.16-.07.24-.09.1-.04.2-.06.3-.09 0 0 .1-.04.14-.04.1-.03.19-.05.3-.06l.16-.03c.11-.03.21-.03.32-.05 0 0 .1 0 .12-.04.33-.04.68-.06 1.03-.06 1.1-.03 2.27.107 3.35.252.35.05.72.09 1.04.14-.1-.406.48-.77 1.12-.964.11-.03.21-.06.31-.08h.1c.12-.03.23-.04.35-.05zm-1.81 1.118l.49 1.348c.46 1.52.1 1.716.15 2.108l.18.5c1.11-1.21.57-2.58-.81-3.953zm-6.31.533c-1.55.05-2.09 2.067-1.93 3.938.6-1.67.73-2.85 2.25-3.918-.11-.03-.22-.03-.32-.03zm-24.714.806c1.196 0 2.394.08 3.55.292 3.707.67 7.04 2.49 9.146 5.897 1.153 2.742.594 5.357-.176 8.126-.77 2.778-1.754 5.683-1.16 8.824l.03.1.06.08c1.26 1.875 3.182 3.01 5.064 3.96h-.38l-.1.424s-.58 4.093-.84 8.672l-.594 1.56c-1.4.87-2.588.16-3.882-.38-.702-.97-1.835-1.99-1.186-3.342.43-.7.97-1.076 1.4-1.563-1.244.43-2.858 2.155-4.37.75-.64-1.56-2.046-2.96-1.29-4.9.43-.59.593-1.35 1.29-1.837-.697-.16-1.56.428-2.205-.215-.972-1.507-.81-3.125-.647-4.957.595-.647.916-1.293 1.67-1.674-.864-.377-2.053-1.182-1.942-2.423.162-2.698.92-5.18 2.86-7.12l-.074-.154c-2.268 2.047-5.127 3.665-8.197 2.586-1.027-.432-1.13-1.563-1.404-2.427-1.45 2.427-4.364 3.02-7.116 3.232-1.507-.103-2.37-1.835-3.772-2.206.644 1.074 1.778 2.48 3.015 3.238-.536 5.763-2.693 10.834-5.172 15.798-1.212 1.47-3.29 1.303-5.05 1.648.878-5.48 1.587-11.18 3.234-16.332 1.847-5.78 4.856-10.85 10.613-14.26a23.07 23.07 0 0 1 5.457-1.27 20.39 20.39 0 0 1 2.155-.123zm33.964 1.41c-.83.04-1.21.643-1.62 1.544l-.41.28c1.14-.164 1.2 1.812 2.6 1.702 1.14.06 2.16-.69 2.71-1.84.92.108 1.7.215 2.49-.204l.14-.166c-.8.296-1.69.133-2.57-.15-1.11-.354-2.24-1.16-3.17-1.162h-.17zm-82.706.79c-2.582-.06-5.344 1.137-7.356 4.853-2.815 5.194-1.095 10.038 3.057 12.29 4.737 2.56 9.133.923 11.63-3.688 2.766-5.117.996-10.123-3.08-12.3-1.22-.65-2.702-1.127-4.25-1.156zm82.456.06c.1 0 .1 0 .14.04-.1.594-.23 1.195.55 1.5.98.2 1.11-.402 1.33-1.08.12-.08.8.178.81.272-.1.435-.43 1.18-1.09 1.452-.48.13-.84.153-1.27 0-.65-.25-1.21-1.133-1.21-1.653-.1-.283.39-.513.74-.498zm-3.34.637c-.7 0-1.6.685-1.9.77.63.15 1.94.227 2.41 0 .17-.08-.17-.47-.1-.64a.706.706 0 0 0-.43-.13zm31.06 0c-3.39 5.818 3.13 10.728 1.3 16.546 3.45-5.82-3.19-10.674-1.3-16.547zM115.3 69.79c.87.77 2.76 1.69 2.35 3.337-.82.785-1.26.487-1.74.07l-3.45-2.143s2.49 1.816 3.67 2.936c.99.25 2.09-.21 2.38-1.26 0-.55-.81-1.544-1.84-2.24-.41-.177-.92-.52-1.37-.7zm45.23 1.05c-.22.43.22 1.133.65 1.406l.1-.11c0-.592-.47-1.02-.75-1.297zm-126.105.412c1.326.03 2.71.468 3.89 1.105 3.458 1.878 5.894 5.055 4.153 8.268-1.694 3.13-5.24 2.804-7.95 1.335-4.674-2.53-5.93-5.45-4.36-8.352.954-1.758 2.562-2.395 4.267-2.356zm62.7.715c1.24 2.752-.538 5.555-1.185 8.14-.54 3.673-2.05 7.928 1.293 10.788-1.186-1.615-1.56-3.67-1.186-5.718.06-4.526 3.882-8.95 1.08-13.21zm-9.485 1.296c-.92.757-1.02 1.832-1.515 2.75.813-.81 1.726-1.67 1.515-2.75zm28.46 1.674c-.39.17-.43 1.507-.59 2.208l-1.08 2.48c.92-1.183 1.64-2.324 2.11-4.15-.22-.165-.22-.38-.44-.538zm50.63.266c2.43 5.234 4.42 10.676 7.11 15.8.11 1.24-.59 2.208-1.29 3.128-.85.595-1.94.968-2.96.644-4.26-5.12-7.33-10.618-10.14-16.332 2.86.32 5.24-1.297 7.28-3.24zM153 76.08h-.24l-.26.54c.97.593 2.16 1.403 3.07 1.403-.61-.71-1.45-1.94-2.57-1.956zm20.84.31c1.2 4.206 3.03 8.517 4.81 12.672-1.67-4.207-2.91-8.577-4.81-12.673zm49.46.535l-14.74 6.595 3.7 8.252c.28-.18.58-.387.88-.527.3-.133.66-.21.97-.308-.76-1.242-1.53-2.667-2.54-4.867l5.51-2.46.99 2.252c.44.975.76 1.907 1.01 2.752.28-.18.57-.39.88-.524.3-.136.65-.217.99-.31-.48-.75-.95-1.606-1.39-2.578l-1.01-2.254 4.66-2.076c1.02 2.19 1.51 3.733 1.93 5.14.29-.183.58-.394.88-.53.3-.133.65-.214.97-.305zM70.71 78.062a311.96 311.96 0 0 0-.773 3.506c.28-1.16.535-2.33.772-3.506zm-.773 3.506c-1.2 4.95-2.824 9.732-5.05 14.232 2.798-4.282 3.962-9.236 5.05-14.232zm11.23-3.396c.38.865 1.296 1.504 1.94 2.21-1.13 6.575-4.42 12.238-8.407 17.63-.757.7-1.996.75-2.967.378-.702-.33-1.348-1.076-1.78-1.673 1.942-5.12 3.94-10.248 4.747-15.793 2.533.267 4.524-1.404 6.467-2.752zm82.593.644c.76 3.83 2.92 7.007 4.64 10.35.86 1.35 1.46 3.35 2.97 3.78-2.21-4.856-5.94-9.062-7.61-14.13zm-75.045.158c-.595 2.11-2.37 5.342 0 7.122-.97 1.832-1.884 3.937-1.294 6.092-2.587 3.775-4.527 8.192-8.406 11.112-1.355.64-2.428-.7-2.86-1.68-1.728-3.607 2.8-5.875 3.61-9.052 1.885-3.83 3.508-7.713 4.425-11.917 1.78.16 3.23-.593 4.525-1.676zm3.342 0c-.54.976-1.617 1.248-1.562 2.213.432-.702 1.507-1.562 1.562-2.213zm66.113 0c3.38 5.445 5.44 11.7 9.96 16.823.44 1.943-.1 3.78-1.03 5.283-.81 1.02-1.88 1.79-3.12 1.46-3.02-3.725-5.94-7.497-7.87-11.648-.27-1.024.65-1.885.76-2.86.32-2.047-.38-3.716-.87-5.444 1.03-.972 1.77-2.262 2.17-3.614zm-78.516 2.05c-.37 1.722-.803 3.395-1.56 4.906-.162.592-.7 1.397-.162 1.836l1.832-6.36zm44.376 2.158l-1.48.844c-.4.167-2.08-.416-1.82-.305 1.38 1.164 2.12 1.5 3.3-.538zm-5.18.386c-.25 0-.41.202-.64.293-.86.488-1.56.215-2.49 0v.27c.38.218.7.488 1.19.377.76-.06 1.51-.32 2.05-.915 0 0-.1-.03-.11-.03zm32.55.673c-.1 0-.13 0-.2.03.76 1.186 2.1 1.944 3.24 2.753a3.467 3.467 0 0 0-.65-1.46c-.75-.555-1.42-1.347-2.39-1.31zm-65.054 1.043c-2.05 4.962-4.37 9.76-7.332 14.234-.54.593-1.995.377-1.726 1.453 1.456.54 2.047-.97 3.02-1.668 2.208-4.58 4.417-9.164 6.038-14.02zm70.954 0c1.56 5.176 4.52 9.705 7.22 14.393.33.434 1.08 1.514 1.57.764-3.46-4.802-5.83-10.09-8.79-15.157zm-133.865.443c-.157.575-.298 1.156-.503 1.715-.204.556-.475 1.082-.728 1.628l15.268 5.638c.16-.58.3-1.154.5-1.713.208-.555.48-1.085.732-1.63zm105.135.66c0 1.56-1.41 1.987-2.23 3.232-.84.428-1.66.266-2.47-.27-.11.702.27 1.24.81 1.67.86.81 1.51-.377 2.31-.54.87-1.13 1.95-2.644 1.58-4.092zm-6 .476c-.54 1.245-1.94 2.27-2.8 3.24-1.02.163-1.72-.11-2.59-1.023.28.7.17 1.56.87 2.045.7.377 1.5-.16 2.1 0 1.02-1.296 1.94-2.696 2.42-4.263zM116 88.048c-1.13.432-1.25 2.217-2.7 2.054-.97-.273-.7-1.297-1.07-1.94-.27.97 0 1.995.27 2.856.48.432.97-.325 1.45.107.54-1.08 1.89-1.83 2.05-3.077zm-23.562.38l-2.05 1.297c.81-.166 1.832-.325 2.05-1.296zm-15.256.11c-1.134 3.074-2.27 6.363-4.156 8.845 1.725-.65 1.887-2.752 2.86-3.886.162-1.995 1.67-3.02 1.296-4.958zm151.608 1.106l-15.67 4.236c.1.29.22.602.32.896.1.3.1.634.16.936l11.1-2.995-1.93 3.2c-2.03 3.327-4.18 6.553-6.41 10.013l.5 1.96 15.71-4.25c-.13-.29-.23-.62-.33-.91a2.9 2.9 0 0 1-.17-.94l-10.72 2.91c2.82-4.22 5.38-8.578 8.03-12.788zm-82.12.727c.65 1.616 1.68 3.182 3.24 4.26-.38-1.67-1.35-3.777-3.24-4.26zm7.77 1.028h.49c2.2 4.525 4.85 8.842 8.29 12.832.44 1.72-.64 2.85-1.56 3.98-.91.76-2.05 1.09-3.34.93-2.7-2.91-4.36-6.26-6.36-9.445 2-2.26 2.05-5.39 2.48-8.297zM20.828 92.734l-2.962 11.856c.334 0 .672 0 .995.11.347.1.652.24.96.37.14-1.24.34-2.73.75-4.36l14.15 3.54c.1-.59.175-1.18.32-1.76.143-.58.354-1.13.547-1.69L21.43 97.26c.357-1.405.852-2.723 1.354-4.036-.332-.04-.673-.05-1.018-.134-.32-.08-.627-.226-.938-.356zm153.672.607c.7 1.668 2.8 1.99 4.36 1.938 1.67 13.592 1.73 27.822 4.97 40.762-1.79-13.47-2.81-27.6-4.16-41.41.64-.256 1.3-.646 1.82-1.192V93.588c3.07 15.892.8 33.222 5.59 48.712l-1.17.26c-.74.17-1.49-.25-2.12-.87a9.81 9.81 0 0 1-1.44-2.4l-.17-.4-.34.1c-1.76-4.73-1-10.55-6.31-13.57-.65-10.09-1.3-20.17-1.94-30.252.32-.588.43-1.287.91-1.826zm-86.592.157c2.37.972.27 3.99 1.833 5.66.433.812 2.048.812 1.567 1.943-2.16 3.07-3.723 6.74-6.904 9.06-1.62.65-2.806-1.19-3.72-2.21-.487-.87-.698-1.78-.808-2.81 3.827-3.29 5.5-7.706 8.033-11.643zm7.116 1.027l-2.044 2.693c1.072-.7 1.56-1.618 2.044-2.693zm77.146 2.05l.23 1.67 1.44 28.086 1.3.92c.81 6.52.81 13.53 3.35 19.3-1.62-5.44-1.67-12.02-1.95-18.01 3.56 2.63 2.88 7.18 4.66 10.64l-.4.11v.38c.26 4.65.89 9.45 1.86 13.46-.24 0-.49 0-.77-.12-8.85-3.28-4.38-14.66-11.17-19.94l-2.43-26.14-.53-3.73c.97-1.78 1.29-3.823 1.67-5.817zm-17.73 1.022c1.24 3.074 3.13 5.874 4.91 8.674.64.22 1.29.81 2.04.38.22-1.24-1.24-.75-1.78-1.4-1.84-2.64-3.61-5.01-5.17-7.654zm-90.854.294c.69.77 2.085.62 2.702 1.542-.575 8.508-1.465 16.958-2.176 25.438-.495 5.9-.903 11.82-1.06 17.8 1.394-5.63 1.78-11.73 2.106-17.8.224-4.27.422-8.54.913-12.61l.647-12.828 2.586-1.403 2.323 2.43c-.845 8.15-1.37 16.04-1.53 24.41 0 .7-.03 1.4-.04 2.11-.43 1.67-1.778 2.97-2.48 4.52-2.26 4.86-1.293 11.17-6.31 14.78.06.1.118.15.177.19-.12.1-.24.11-.36.16.51-6.44-.21-12.94.255-19.34l1.934-27.532c.107-.618.208-1.24.31-1.868zm35.482 1.805l-.808 1.785.643-.65zm51.492.11c1.61 3.715 3.83 7.225 6.57 10.515.17 1.56-1.07 2.8-2.31 3.61-1.25.43-2.65-.32-2.97-1.56-1.13-4.1-6.63-7.44-3.61-12.19.75-.1 1.51-.21 2.32-.374zm-76.943 1.285c.462 0 .92.1 1.24 0 .648 1.61 1.353 3.23 2.698 4.41-.54 6.21-.72 12.82-1.085 19.35-.218 3.91-.498 7.79-.96 11.55-1.997 2.27-2.54 5.18-2.968 8.04-1.943 4.52-1.514 10.4-6.74 13.2l-.163.38h.05-.202c.42-4.42.893-9.31-.06-13.74l-.22-1.02-.16.21c1.156-2.23 1.266-5.05 2.533-7.22.22 4.85.05 10.09.648 14.62 1.51-5.4.487-11.65.432-17.31.54-1.95 1.617-3.66 2.8-5.34.05-1.14.08-2.28.117-3.41.244-7.77.38-15.44.8-23.5.32-.24.782-.28 1.24-.27zm18.55.39c.644 1.29 1.616 3.29 3.506 3.12h.374v.65l-5.822 9.06c-.54.54-1.455.65-2.153.38-1.134-.81-2.596-1.89-2.596-3.35 3.456-2.53 4.59-6.51 6.692-9.86zm-5.015.55c-1.13 1.77-2.264 3.54-3.772 5.17-.377.54-1.673.21-1.404 1.01h1.13c1.674-1.45 3.074-3.98 4.046-6.18zm62.108.9l3.24 8.25c.43.91 1.35 1.73 2.43 1.57.69-1.3-1.08-1.2-1.51-2.05zm-2.98 1.67l5.02 9.82c-.77 1.83-2.76 2.37-4.54 2.58-.9-.1-2.32-.37-2.86-.83.52-2.07.86-4.11 1.07-6.11 1.21 1.87 1.29 5.28 4 5.44.43-.17.22-.6.27-.92-2.17-.95-3.03-3.8-4.14-5.84.1-1.1.15-2.18.18-3.23v-.5c.25-.17.61-.32.99-.41zm19.91 0c1.78 9.76 1.78 20.28 2.97 30.3 1.07.44 2.15 1.13 2.85 2.17.59 8.13 1.57 16.11 4.7 23.18-.39-2.76-1.35-5.56-1.73-8.41l-1.03-9.98c1.25 3.82 1.95 8.48 4.27 10.67v1.39c.62 3.93 1.27 7.93 2.42 11.66l-.28.24c-1.29-.54-2.83-.82-3.92-1.96-5.29-5.72-4.31-14.02-9.71-19.68-2.04-11.11-2.75-22.81-4.42-34.13 1.72-1.61 1.14-4.8 3.88-5.45zm-59.52.91h3.48v24.85l-.1-.1s-1.43-1.74-1.9-2.37c-.4-.54-1.25-1.89-1.51-2.3zm6.97 0h3.7v32.69l-.5-.41h-.38.38c-.16-.14-.32-.28-.49-.42-.45-1.57-1.28-3.01-2.7-4.19zm-12.52 0h2.08v13.25c-.77-2.34-1.48-5.19-1.88-8.54-.17-1.39-.22-3.03-.2-4.71zm19.99 0h3.44v35.35c-1.1.65-1.7.87-1.7.87s-.62-.22-1.74-.88zm7.21 0h3.7v27.19a9.474 9.474 0 0 0-1.64 3.71c-.1.1-.11.1-.16.15h.13v-.1c0 .1 0 .16-.1.23v-.1h-.21c-.14.12-.27.22-.4.34h.55v.1h-.59c-.13.11-.27.23-.39.33H130.14v.1h-.94c-.12.1-.24.21-.36.31-1.78 1.49-3.18 2.44-4.19 3.05 2.01-1.31 3.64-2.61 3.64-2.61zm7.21 0h3.48v20.42c0 .1-.58.84-1.46 2.01-.37.5-.85 1.1-1.37 1.75-.21.1-.41.1-.61.17zm6.96 0h2.03c-.14 4.05-.59 8.39-2.03 12.81zm-45.653.26c.59.54 1.35 0 2.046 0-.208 1.19.832 1.93 1.347 2.83 0 .54.1 1.06.14 1.54v.2c-1.946 2.32-2.647 5.39-4.8 7.77-1.512 1.18-2.805-.55-4.046-1.19-.322-.43-.54-.91-.643-1.4 2.856-2.91 4.257-6.36 5.98-9.7zm-17.95.1h.208c.81 2.16 1.19 5.39 3.993 5.81.123 4.33.1 8.74-.03 13.15-.218 6.89-.715 13.8-1.37 20.49-3.45 5.35-4.91 11.49-6.2 17.75-.54 2.48-3.022 4.26-5.178 5.29h-1.07l-.03-.1c1.063-4.09 1.655-8.37 1.817-12.87v-.21l-.815-.8c.214-.33.412-.65.58-.94 1.025-2.8 1.992-5.6 3.02-8.4.27 5.55-.433 11.37-.917 16.71 2.268-6.15 2.21-13.59 1.942-20.44.267-1.57.81-3.08 2.21-4.04 0 0 .244-5.84.516-12.47l.777-18.7c.12-.24.332-.27.543-.26zm13.444 1.3c-1.35 2.21-2.806 4.79-4.798 6.36.646.1 1.075-.32 1.56-.64zm-58.8 1.42l-17.046 5.01c.02.31.02.59-.02.89-.03.31-.08.59-.156.9l15.71 8.32c.01-.38 0-.75.04-1.14.04-.37.114-.72.18-1.1-1.587-.6-2.994-1.33-4.73-2.12l.536-5.5c1.643-.49 3.295-.82 5.096-1.2.02-.69 0-1.36.08-2.05.06-.68.2-1.33.31-2.01zm192.42.27c-.36 0-.74 0-1.12.1-4.86.43-7.64 4.54-7.18 9.59.13 1.59.56 3.24 1.42 4.59l2.09.34.11-.32c-1.11-.97-2.01-2.61-2.14-4.07-.33-3.64 2.33-5.87 6.37-6.23 3.47-.31 7.37.93 7.72 4.86.14 1.53-.63 3.13-1.82 4.12v.32c.84.13 1.66.19 2.48.33.64-1.44.87-3.36.73-4.92-.43-4.83-3.27-8.65-8.69-8.66zm-67.78 2.19h2.74c1.02 11.53 3.07 22.64 4.15 34.18 1.73.76 2.59 2.64 3.45 4.1.54 5.18.82 10.46 2.86 15.04h.17c-.5-3.28-1.63-6.74-1.2-10.35 1.36 4.1 2.76 8.25 5.83 11.65l.99 6.15-3.21-1.63c-7.43-5.28-6.52-14.5-11.64-20.97-2.53-11.22-3.93-22.86-5.28-34.56zm-57.63.22c.27 1.88.63 3.6 1.04 5.14-.37.65-1 1.27-1.65 1.65-.43-.11-.806.1-1.128.38-.11.22.1.37.266.48.86 0 1.622-.38 2.322-.86.12-.21.29-.44.46-.67.2.68.41 1.31.62 1.93-.29.17-.63.34-.81.41-1.57 1.24-3.345 0-4.693-.81l-.38-.38zm-15.867 1.47c.757 1.23 1.728 3.22 3.505 3.12h.37c-.05 2.94-.136 5.94-.25 8.98-.344 9.57-.948 19.5-1.523 29.01-4.422 4.6-3.02 11.55-6.253 16.61-.127.66-.417 1.27-.807 1.85H74.91c.228-1.68.374-3.35.76-4.86l.06-.22-.548-.76h.06c-.322-2.05 1.56-3.24 1.943-5.01.864-2.48 1.13-5.24 2.475-7.56-.54 5.02-.968 10.19-1.722 14.88 1.456-2.52 1.456-5.76 2.103-8.62.488-3.88 1.13-7.6 1.404-11.54l1.832-1.83s.497-12.13.9-21.9l.5-12.1zm-58.123 1.51l-.417 4.32-5.287-2.74zm126.03 1.25c.28 0 .63.21 1.05.62l1.56-.26.54 1.39c.97 11.37 3.13 22.43 5.02 33.27 3.4 3.02 4.04 7.33 5.82 11.1-4.96-3.17-7.71-8.74-9.54-13.95-1.73-4.16-2.7-8.58-4.27-12.79 0 0-1.99-11.43-2.37-16.82.89-.67 1.18-2.63 2.19-2.56zm-63.027 1.65c1.458.75 2.638 2.59 4.69 2.04l.27.38c.12 1.73.07 3.5-.06 5.27-.218 3.4-.604 6.82-.182 10.01-.04 0-.16.1-.16.1l-.28.12-.03.31c-.08 1.83-.234 3.64-.436 5.44.114-1.92.134-3.84.06-5.79-.702 8.95-2.212 17.57-5.662 25.34-.97 2.53-3.125 4.79-3.772 7.11 1.046-.62 1.585-1.64 2.294-2.59-.995 1.59-2.142 3.08-3.678 4.31 1.417-3.84 2.56-7.96 3.704-11.9l2.206-2.6c.428-10.36.854-20.1.987-29.82.04-2.56.06-5.12.05-7.69zm53.977.41c.12.1.26.21.36.18.7 4.1.19 9.59 2.25 13.09-.17.7-.92 1.68-1.79 1.84-.71-.1-1.57-.1-2.19-.42-.26-.15-.48-.33-.63-.61-.1-.15-.15-.33-.19-.54l-1.02-5.96c.73-1.28 1.36-2.57 1.89-3.85.87 2.42.24 5.46 1.06 7.98.52-2.9-.3-5.9-.79-8.63.4-1.02.75-2.05 1.05-3.08zm1.48.5l1.5.65c.38 3.72 1.24 7.22 2.21 10.72.38-1.61-.59-3.01-.64-4.69-.22-1.89-.44-3.83-.92-5.66.43-.32.92-.42 1.46-.37.7 4.53 1.61 9 2.7 13.42-.1-.17-.19-.29-.3-.37l-.34-.54-.26.39c-.49 0-1.03.12-1.43-.12-4.85-2.49-2.37-8.68-4.15-12.78zm-49.164 1.79c.38.17 1.12.59 1.387 1.18.04 1.26-.04 2.53-.12 3.81-.186 2.65-.54 5.32-.793 7.93 0 0 .377.21.423 0 .698-2.45.827-5.31.906-7.96.04-1.2.06-2.37.126-3.43l1.942.38c.05.85.06 1.92.03 3.05-.08 3.18-.488 6.99-1.387 9.05l-.503-.12-.178.32c-.04 0-.15.16-.362.27-.214.1-.494.2-.773.27-.276.11-.556.12-.767.14h-.185a.77.77 0 0 0-.436-.12h-.162c.423-2.98.504-6.47.61-9.81.06-1.73.114-3.43.238-5zm6.834 1.02c.1 1.3.1 2.64 0 3.97-.17 2.56-.54 5.12-.61 7.56.84-2.01 1.1-4.85 1.26-7.56.1-1.02.11-2.01.16-2.96.7 1.63 1.36 2.87 1.88 3.73-.28 1.59-.48 4.37-.75 5.93h-.53l-.1.35c-.28 1.09-.73 1.84-2.09 2.19l-1.985.1c.495-3.05.665-6.14.765-9.38 0-.84 0-1.68.1-2.52zm-70.592 4.35l-16.225 1.25c.07.3.123.63.146.94.02.31.02.64 0 .95l11.065-.81c-3.55 3.6-6.87 7.41-10.275 11.05l.18 2.35 16.184-1.25c-.05-.31-.12-.65-.147-.94-.02-.31 0-.66 0-.96l-11.448.88 2.494-2.79c2.61-2.87 5.32-5.67 8.157-8.64zm202.602.31c-3.26 1.55-6.56 2.9-9.73 4.48l-6.79-.45v1.79c-.1.59-.15 1.18-.25 1.77l7.31.47c2.95 1.69 5.68 3.65 8.61 5.56V138c0-.4.1-.78.14-1.16-1.96-1.02-5.77-3.03-6.82-4 .38-.26 1.56-.76 2.94-1.32 1.44-.57 3-1.17 4.33-1.73 0-.71-.1-1.43 0-2.14 0-.71.16-1.41.26-2.12zm-95.21.99l.83 4.08s-.62-1.05-1.63-1.18c-.61-.1-.99-.1-1.26-.1.25-.31.48-.6.68-.86.79-1.05 1.22-1.68 1.38-1.94zm-29.33 4.58s.26.28.33.37h-.1l-.28-.32zm37.28 1.38l.39.12.41.3h.12c.34.1.87.17 1.41.18.32 0 .67-.1.99-.24l.72 1.17.63 2.81c1.7 4.43 2.64 9.36 4.28 14.01 1.65 4.63 4.01 8.99 8.56 12.09l.8.41 1.45.6.74 1.08c-.1.1-.19.16-.28.24-2.1 1.85-3.86 4.19-4.84 6.37 0 0-.36.53-.45.6.1 0-.1 0-.25.1h-1.41v-1.6c0-.85-.69-1.54-1.54-1.54-.83 0-1.53.69-1.53 1.54v1.6h-3.14v-.1c-.1-.58-.23-1.11-.49-1.45-.11-.15-.27-.28-.49-.44-.23-.16-.5-.36-.81-.54-.62-.37-1.38-.74-2.14-.94-.22-.1-.45-.13-.68-.19-1.51-7.71-3.51-15.14-4.89-22.81-.91-3.72-1.1-7.72-2.15-11.55H144.06l1.45-.14h.1c.79-.25 1.46-.88 1.82-1.7zm-42.59.46c-.3.5-.64 1.06-.91 1.3l-.11.1v.14c-3.17 11.02-3.69 23.31-6.55 34.42-.417 0-1.158.2-1.96.48-.87.31-1.78.73-2.17 1.47-.3.57-.55 1.01-.728 1.37-.03 0-.03.1-.05.1H81.998l.994-2.18c3.102-2.34 4.743-5.61 6.34-8.63 3.16-7.98 4.983-16.72 5.444-25.71h.251l.144.1c.19.1.244 0 .344 0h.345c.26 0 .572-.1.9-.17.325-.1.663-.19.97-.34.174-.1.294-.25.444-.38l1.546.36 2.32-.1c1.31-.34 2.04-1.15 2.45-2.09zm28.91.1l7.13 2.5.24-.76.18.15-.1-.55.14-.41s.11.1.14.1c.11.1.22.11.34.14 1.09 3.78 1.27 7.92 2.24 11.89 1.36 7.58 3.31 14.89 4.79 22.41-.5-.1-1.07-.1-1.73 0-.96.17-1.46.18-1.9.21-.1-.12-.16-.23-.24-.35-.47-.56-.81-1.01-1.3-1.32-.2-.12-.42-.21-.65-.27-4.32-5.17-3.57-12.6-5.72-18.74-.37-1.94-.76-3.94-1.29-5.81.32 6.19 2.26 12.02 3.34 18 .97 1.51.81 3.55 1.19 5.29-.24.61-.45 1.23-.73 1.83-.28.2-.53.44-.74.68-.17.2-.27.41-.35.64h-.2l-.1.1c-.1 0-.17.1-.26.1-.55.1-1.26.1-1.93.11-.4 0-.81.1-1.14.18-.36.1-.68.19-.91.41v.1l-.33-6.45-.43-.43-.83-9.49v-.53c1.9-1.98 3.09-4.41 3.19-6.99l-.11-.1c-.75 2.41-2.35 4.45-3.39 6.73l-.13-.16c.46-3.35-.33-6.69-.76-9.84-.37-2.67-.46-5.17.63-7.51.65-.67 1.22-1.28 1.73-1.82zm-24.42 0c1.37 0 2.72.14 2.75.14h.1c.46.47.95 1 1.51 1.56v-.32c1.92 1.98 2.27 4.62 2.1 7.53-.17 3.28-1.03 6.81-.97 9.9l-.44.93-.38 12.75c-.55 1.16-.42 2.45-.37 3.64-.1-.1-.13-.1-.2-.14-.35-.21-.84-.36-1.63-.43-.66-.2-1.38-.24-2.11 0-.19.1-.37.1-.54.17h-.53l-2.01-5.08c.37-2.47.81-5.07.65-7.6-.94 4.4-2.41 9.71-6.65 13.04h-.938c-.452-.1-.888-.17-1.323-.26h-.07c2.86-11.19 3.4-23.41 6.52-34.22.32-.32.52-.67.74-1.04l-.24.64 1.06-.69.26.23c0-.64 1.38-.81 2.76-.82zm25.97.9c-1.19 1.35-3.02 2.1-3.88 3.24 1.5-.17 2.86-.87 4.1-1.67 1.29.59 2.8.97 4.31.64-1.73-.27-3.29-.91-4.53-2.21zm-25.13.49c-1.67 1.12-3.55 1.67-5.44 2.37v.21c1.83.11 3.88 0 5.44-.86 1.13 1.13 2.86 1.4 4.16 1.78v-.11c-1.08-.97-2.97-2.04-4.16-3.39zm-.1 2.37c-.76 6.42-2.21 12.56-2.75 19.13l2.21-12.67c1.67 2.6 1.88 6.42 4.91 8.26-.97-2.97-2.76-5.62-4.16-8.42l-.75-.1c.16-2.11.75-3.99.54-6.2zm28.19.85c1.73 6 4.05 12.09 6.96 17.75-2.48-5.5-4.15-11.92-6.69-17.75zm-9.4.1l1.27.1v.1zm.17.39l1.08.1v.1zm-11.63.1c.14.12 1.64 1.31 3.55 2.53-.9-.54-2.09-1.33-3.55-2.53zm-.38.22l-.42.1zm11.83 0l1.25.14v.1zm-19.97.14l-2.69 8.57-5.18 10.84.22.27c4.9-5.13 5.33-12.08 7.65-18.23zm8.8.11l-1.01.2v-.1zm10.33 0l1.82.25h.26v.11zm7.67.26l-.16.1.16 2.06h.1v-.38zm-8.03.36l2.45.55v.17zm1.84 0l.6.12zm-11.62 0l-1.13.33v-.1zm11.41.76l.85.25v.1zm-1.91.1l2.84 1.08v.21zm-9.19.1l-1.39.63v-.11zm.88 0l-2.28 1.15v-.19zm8.14.29l3.08 1.29c0 .17 0 .33.1.5 0 .14 0 .29.1.43l-3.05-1.79 3 1.54v-.18-.22zm2.44.12l.53.17zm-10.25.15l-2.68 1.75v-.27zm7.39.31l3.69 2.06c0 .14 0 .27.1.4zm-9.21.25l-.81.46v-.1zm1.94.2l-2.93 2.4v-.35zm7.47.1l3.62 2.38c.1.28.1.55.13.83.1.27.1.54.13.82 0-.12 0-.22-.1-.31l-4.28-3.51 3.96 2.82.24.18c0-.15 0-.3-.1-.45zm-8.8.35l-1.51 1.13v-.15zm1.8.12l-3.66 3.8c0-.21.1-.4.1-.61zm6.55.15l4.35 3.57c0 .2.1.39.1.57l-.41-.36zm-.57.12l4.39 3.91.68.65c0 .27.1.54.1.81zm-7.12.14l-2.35 2.21v-.3zm1.74.42l-4.78 7.38c0-.41.1-.83.11-1.26zm5.5 0l5.1 5.3c0 .26 0 .53.1.8l-.45-.51zm-.8.2l5.94 7.8c0 .39-.1.79-.13 1.18zm-5.92 0l-3.19 3.79c0-.19.1-.38.1-.55zm5.44.2l6.66 9.9.13.21.22 2.55zm1.08 0l4.59 5.27.79.93v.86zm-4.69.12l-5.98 13.35.1-2.72zm-.41.1l-5.47 9.87v-.5l.43-.93v-1.01zm3.81.11l7.3 13.18.35 3.93zm-5.02 0l-3.58 4.69c0-.22.1-.46.1-.7zm3.11 1.34v27.13h-2.43zm.33 0l1.16 12.57 1.33 14.51h-2.49zm101.09.25l-.86 1.32-2.83 4.28-6.45-1.77 4.17 5.22-3.68 5.58 6.27-2.34 4.18 5.22-.33-6.69 6.26-2.36-6.44-1.77-.23-5.13zm-102.76.53l-6.48 24.6c-.11-.12-.21-.23-.32-.34.1-1.65-.25-3.34.32-4.38l.1-.11v-.4zm3.02.1l8.15 24.77c-.48.37-.95.8-1.26 1.34zm-3.47.1L115 164.03l.1-3.15zm3.91 0l8.24 21.08-.1-1.01-7.8-19.98 7.14 15.69-.1-.86.18 2.06.43.42.18 3.68.16 3.12c-.13.1-.25.17-.39.27zm-4.3.1l-5.37 13.77.1-2.08zm1 .46l-5.25 25.64H116c-.15-.13-.32-.25-.5-.36 0-.29-.15-.59-.29-.86 0-.1-.1-.11-.11-.16zm2.69 0l6.75 25.64h-1.5zm99.51.35l-.27 1.19-1.69 6.15-.8-2.12-.22-.55zm-101.54.1l-2.3 25.19h-1.45zm1.69 0l5.22 25.2h-1.48zm-2.02.1l-3.74 25.11h-1.47zm1.71.17l3.72 24.94h-1.38l-2.27-24.32zm-96.784.89l-.02 1.58-.06 5.12-6.392 1.99 6.338 2.14-.09 6.7 4.004-5.37 6.33 2.16-3.858-5.46 4.006-5.36-6.393 1.98-2.953-4.19zm.468 1.52l.358 1.16 1.898 6.12.403-1.18.535-1.58 5.298-1.64-6.235 4.4H32.4l3.195 4.53-1.267-.95-4.845-3.62.87 2.78-3.32 4.45.51-1.5 1.937-5.71-1.84-1.38-.48-.35zm188.136.43l1.34.86 4.99 3.29-2.25.1-.6.1zm8.66 2.35l5.34 1.47-7.59.35.95-.76zm-114.87 1.19c.11 4.1 1.89 8.03 4.53 11.1-1.41-3.71-2.97-7.32-4.26-11.1zm27.54.55l-2.58 6.95c1.3-1.19 1.72-2.75 2.32-4.26.49-.76.76-2.16.26-2.69zm85.01.1l-.74 2.76-5.22 1.96 1.23-.99zm.1 0l2.41 1.54.26 5.53-.56-1.47zm-199.9 2.56h1.58l6.027.1-1.87 1.32-.488.34zm67.216 2.37c-.21.58-.426 1.15-.65 1.72-.406.76-.812 1.54-1.238 2.3.68-1.31 1.313-2.65 1.888-4.02zm79.294 6.35l.37.54-.39.33c-2 1.81-3.7 4.06-4.5 5.89 0 0-.11.25-.48.57 0 0-.11.1-.22.1-.1 0-.22.1-.33.1-.23.1-.42.1-.43.1h-1.7v-.27h1.09s.71.1 1.09-.21c.36-.27.68-.87.68-.87.93-2.1 2.72-4.46 4.82-6.26zm-62.64.2c.44.61.94 1.41 1.34 2.2.44.85.69 1.41.77 1.58-.1.1-.18.17-.26.25-.34.35-.62.72-.85 1.08-.1.15-.17.29-.25.43-.21-.21-.53-.5-.82-.63-.46-.2-1.31-.24-1.31-.24s-.67.28-.7.55c0 .27 0 .57.1.67.13.1.44.3 1.11.47.44.12.83.24 1.1.33-.11.31-.19.54-.21.63 0 0-.1.19-.16.38 0 .1-.1.19-.14.24 0 .1-.1 0 0 0h-.39c-.24 0-.47-.13-.55-.2-.31-.24-.72-.49-1.39-.64H103h-.14c-.28-.1-.4-.1-.54-.1.14-.18.3-.28.39-.51v-.1h-.11c.12-.35.56-1.68.72-2.17h.12c0-.1.12-.36.12-.36v-.45c.16-.29.37-.67.47-.86.22-.42.73-1.18 1.2-1.82.29-.4.4-.56.54-.75zm63.13.5l1.62 2.37a4.51 4.51 0 0 0-.69 2.64v.27h-.23c-2.5 0-4.52 2.03-4.52 4.52 0 2.49 2.02 4.52 4.52 4.52h.65c0 .2-.1.42-.1.63a4.52 4.52 0 0 0 4.51 4.52c2.49 0 4.52-2.03 4.52-4.52 0-.23-.1-.51-.1-.73h.77c2.48-.13 4.4-2.25 4.27-4.74a4.508 4.508 0 0 0-4.73-4.28c-.19 0-.4.1-.59.1v.11c.2-.1.43-.1.65-.1 2.4-.12 4.44 1.72 4.57 4.13.11 2.4-1.73 4.45-4.13 4.57h-.95v.1c0 .25.12.58.12.81 0 2.39-1.95 4.34-4.37 4.34-2.4 0-4.36-1.95-4.36-4.34 0-.25 0-.49.1-.71v-.11h-.85c-2.41 0-4.35-1.94-4.35-4.34a4.35 4.35 0 0 1 4.35-4.36H170.03v-.44c0-.87.18-1.68.57-2.38l.23.33-.1.1c-.3.59-.46 1.26-.43 1.98 0 .35.13.66.23.98-.32-.1-.64-.18-.99-.18-2.17 0-3.95 1.77-3.95 3.95 0 2.17 1.78 3.94 3.95 3.94.61 0 1.14-.23 1.65-.47-.24.51-.47 1.05-.47 1.65 0 2.17 1.77 3.94 3.94 3.94 2.18 0 3.95-1.76 3.95-3.94 0-.62-.22-1.15-.48-1.66.54.21 1.08.42 1.68.39 2.18-.11 3.87-1.98 3.75-4.13a3.947 3.947 0 0 0-4.14-3.75c-.18 0-.39 0-.61.1l-1.03-5.31c.75.16 1.53.27 2.04.44l.26.1.87-.74c.21.32 1.93 2.92 2.44 4.05 0 0 1.31 3.04 2.16 3.91 1.18 1.22 3.2 1.49 3.2 1.49s-2.02.27-3.2 1.47c-.85.88-2.16 3.92-2.16 3.92-1.81 4.08-4.35 7.91-8.73 7.91-4.36 0-9.36-5.05-11.17-9.13 0 0-.31-.61-.68-.88-.37-.26-1.08-.19-1.08-.19h-1.09v-.24h1.7s.19 0 .42.1c.12 0 .24.1.34.1.1 0 .19.1.22.1.37.32.47.57.47.57.1.14.26 0 .19-.1 0 0-.14-.31-.53-.65-.1-.1-.18-.1-.29-.13-.12 0-.25-.1-.36-.1-.24-.1-.46-.1-.46-.1h-1.7v-.64h.31s1.49-.11 2.23.2c.14.1.29.18.43.32l.62.85c.8 1.82 2.39 4.15 4.29 6.02 1.91 1.89 4.12 3.32 6.16 3.32s3.68-.92 5.01-2.29c1.33-1.37 2.34-3.19 3.14-5 0 0 1.02-2.57 1.88-3.9.17-.26.34-.32.53-.5h.1s.87-.53 2.01-.93v-.19h-.79s-1.17.23-2.01 1.51c-.89 1.37-1.9 3.93-1.9 3.93-.79 1.8-1.8 3.6-3.1 4.95-1.3 1.33-2.89 2.23-4.87 2.23-1.95 0-4.13-1.4-6.02-3.26-1.89-1.86-3.48-4.19-4.26-5.97l-.26-.36c-.25-.5-.53-1-.79-1.19-.53-.4-2.39-.27-2.39-.27h-.31v-4.11h1.7s.21 0 .45-.1c.11 0 .25-.1.36-.1.11 0 .21-.1.29-.12.39-.34.53-.65.53-.65.78-1.79 2.47-4.03 4.47-5.82.12-.1.24-.21.36-.31zm-27.09.9c.77 0 1.2.1 1.56.32.37.22.69.59 1.13 1.16h-.17l.11.37.58 1.89c-.25.1-.49.17-.63.17-.95 0-3-.81-3-.81s.4.85 1 1.44c.61.62 1.56.66 2.07.75.24 0 .62-.14.94-.32l.48 1.54h.25c0 .11-.1.17-.16.25 0 0-.1.1-.11.1v-.1l-.39.12s-.6.17-1.28.28H143.31c-.1 0-.23-.1-.35-.1-.15-.1-.26-.13-.26-.13l-.1.12c-.65-.18-1.27-.55-1.66-.97 0 0 0-.1-.1-.1l-1.11-2.77v-.15.1l-.46-1.15.15-.67c0-.11.1-.22.17-.3.52-.61 1.45-1.15 2.19-1.16zm39.72.75v.3c.47.79.88 1.62 1.24 2.44 0 0 .49 1.24 1.08 2.45.1.14.26 0 .17-.1-.58-1.2-1.07-2.44-1.07-2.44-.4-.9-.85-1.81-1.37-2.66zm-33.33 1.1c.28 0 .53 0 .77.1v-.1c.5.1.94.18 1.41.31.67.17 1.39.52 1.97.87.15.1.28.17.4.25l-.75-.4c-.97-.18-2.01-.28-3.02-.28-1 0-1.97.1-2.8.28 1.51 1.19 3.94-.16 5.56.76 1.29.11.97 1.51 1.55 2.21.18 0 .29.1.39-.11.1-.15.13-.3.15-.44v.28c0 .15-.12.22-.2.27-.23.11-.85.4-1.1.51-.11 0-.14 0-.25.1-.31.1-.6.15-.76.1-.42-.15-1.07-.22-1.78-.3-.72-.1-1.48-.14-1.91-.22-.48-.1-.79-.1-1.03-.1-.1-.8-.32-1.63-.5-2.29-.15-.5-.34-1.02-.58-1.52.35 0 .8-.1 1.59-.21.34-.1.64-.1.91-.1zm-37.75.12v.1c1.59 0 2.27.19 2.61.38.16.11.26.22.38.36.11.15.24.33.45.5.18.17.38.37.54.56.1.11.18.23.24.33.18.3.21.51.17.6l-.1.1c-.1.1-.15.16-.14.15l-.1.1c-.1-.13-.12-.25-.12-.25s-2.43-1.95-3.55-2.05h-.3c-.79 0-1.94.38-2.3 1.1-.22.46-.65.51-.76.63-.46.52-.38.97-.27 1.23-.11 0-.22-.1-.36-.1h-.21c.1-.32.21-.81.71-1.62.16-.25.33-.51.54-.74.62-.71 1.44-1.26 2.54-1.26zm67.93.16l.1.38c.12.36.21.75.22 1.15l.1.48v-.4c0-.57-.17-1.12-.39-1.61zm-39.71.1c0 .53.1 1.05.2 1.47 0 .1.1.2.1.3l-1.99.6-1.57.71-1.49 1.01s-.81.85-.88.98c0 0-.1.1-.1.16-.13 0-.28-.1-.42-.1-.16 0-.35-.1-.5-.11-.35-.1-.55-.1-.66-.1-.1 0-.1 0-.16-.1v-.34c.1-.31.22-.79.52-1.39.26-.53.81-1.03 1.4-1.45.58-.42 1.16-.75 1.54-1.13.1-.1.28-.17.58-.25.3-.1.66-.11 1.06-.15.79-.1 1.68-.1 2.33-.16zm-41.238.17c.28 0 .4 0 .57.1.17 0 .395.12.78.22.242.1.597.1 1.035.1h2.473c0 .1-.1.1-.1.14-.19.37-.37.72-.51 1-.32 0-1.02-.1-1.783 0h-.874c-.978.1-1.482.31-1.68.45-.205.13-1.552.36-1.552.36l-1.507 1.46c-.09 0-.205 0-.24-.1-.257-.1-.61-.16-.93-.23-.136 0-.247-.1-.334-.1.04-.1.09-.21.167-.37.06-.1.16-.3.228-.43h-.05c.158-.3.334-.61.574-1.07.22-.41.997-.87 1.81-1.15.58-.2 1.178-.34 1.558-.41l-.03.1h.31zm61.758.14c.51 0 .89.4.89.89v9.26a.886.886 0 0 1-1.77 0v-9.28c0-.5.39-.91.88-.91zm11.86.24l.1.1c1.26 1.64 2.87 2.49 4.27 3.36l.13.13v-.34c.1.1.2.14.28.21v.1l-.1.1s.1 0 .1.1c.13.12.31.34.49.54.18.21.38.43.66.6.1.1.3.17.57.17.29 0 .56-.14.73-.35l.12-.11.75-1.98c.1 0 .21-.1.36-.1a3.47 3.47 0 0 1 3.65 3.3 3.48 3.48 0 0 1-3.3 3.65c-.67 0-1.31-.13-1.87-.44l-.78-.43.48.76c.32.53.52 1.17.52 1.85a3.46 3.46 0 0 1-3.48 3.47c-1.92 0-3.48-1.55-3.48-3.47 0-.67.2-1.33.53-1.86l-.33-.32c-.53.35-1.14.54-1.84.54a3.49 3.49 0 0 1-3.49-3.48c0-1.93 1.56-3.48 3.49-3.48.42 0 .83.1 1.2.21l.49.19-.19-.49c-.15-.39-.27-.79-.27-1.19 0-.46.13-.86.27-1.26zm4.49 3.57zm-22.57-2.84s.1.1.12.1c.19.15.33.29.37.34.1.1.22.45.3.82-.14-.46-.47-.87-.79-1.24zm56.82.79c-.1.21-.16.38-.26.58-.12.19-.22.36-.36.52l7.77 9.84c.13-.25.22-.5.36-.73.12-.23.28-.44.42-.66-.85-.84-1.55-1.71-2.45-2.71l1.9-3.39c1.2.14 2.37.4 3.63.67.21-.45.4-.88.63-1.3.24-.43.52-.81.78-1.22zm-108.32.3v.48h-.1v.26c0 .11 0 .23-.1.34v.21s-.11.1-.24.14c-.15.1-.34.14-.54.21-.4.14-.87.27-1.304.34l.06.38H99.587c.413-.1.843-.18 1.203-.3.23-.1.43-.16.6-.25 0 0 .1 0 .1-.1-.1.6-.24 1.72-.16 2.74 0 .45.14.9.31 1.31h-5.515c-.04 0-.04-.1-.06-.1-.375-.69-.33-1.85-.264-2.39.05-.42.183-.77.238-.91.92.21 1.897.17 2.567.1.253 0 .442-.1.59-.1h-.06l-.06-.13-.05-.1v-.13l.03-.1c-.12 0-.3.1-.565.1-.64.1-1.59.1-2.404-.11-.1 0-.27 0-.464-.1.684-.27.334-.83 2.22-.95.957-.1 2.718-.56 3.618-.93zm7 .1c.38 0 1.07.64 1.83.86.82.24 1.99-.64 2.66-.77.6-.11.91.21 1.28.49-.11.1-.23.13-.36.21-.2.1-.39.21-.56.3-.17.1-.33.14-.34.14-.76.22-2.47.29-3.47.36-.59 0-1.13-.1-1.58-.22-.17-.1-.33-.13-.48-.19.17-.26.69-1.08.96-1.17h.1zm6.65.18c.66.37 1.22.92 1.76 1.71.54.81.47 2.57 0 3.75-.37.89-2.72 2.02-2.72 2.02s1.19-2.47 1.07-3.44c-.1-.85-.63-1.31-1.11-1.78-.39-.4-1.18-.85-1.18-.85s.81-.75 1.35-.96h-.14s.64.75 1.03 1.21c.81.91.96 1.8.81 2.4-.33 1.28-.83 2.26-.83 2.26s.58-.62.89-1.38c.55-1.29.3-2.07.15-2.53-.36-1.1-1.65-2.09-1.65-2.09v-.1c.4-.14.57-.33.59-.37zm24.27.13c.17.34.35.68.57 1-.77.18-2.01.55-2.75.92-.76.37-1.32 1.19-2.79.95-.1 0-.18 0-.27-.1 0-.1.11-.15.19-.22.26-.22.56-.47.76-.63.44-.33 1.21-.73 1.62-.84.4-.1 1.48-.7 1.64-.84.17-.14.57 0 1.02-.27zm-67.405.81h1.923c0 .1-.03.18-.04.26h-1.715c-.367 0-1.212 0-1.816.56-.09.1.06.22.133.14.536-.52 1.306-.49 1.683-.49h1.68c-.163 1-.378 1.95-.73 2.83l-.242.59 2.44.28.235-.77c.958-.56 2.06-1.27 3.047-2.16.03 0 .81-.33 1.592-.69.07 0 .12-.1.19-.1H92.34c-.08.5-.224 1.86.22 3.45.06.23.144.44.232.66H71.21c-1.082-.1-1.823-1.18-1.823-1.18 0 .97 1.248 1.72 1.823 1.72h21.85c.128.23.268.45.427.63H72.123c-.377 0-1.15 0-1.686-.47h-.08c-.08 0-.117.11-.06.16.605.58 1.45.55 1.816.55h21.55c.07.1.155.15.236.23H71.947a3.306 3.306 0 0 1-3.298-3.1 3.306 3.306 0 0 1 3.298-3.1zm2.846 0h4.214c-.29.12-.48.21-.62.26h-3.636c0-.1.04-.17.05-.26zm6.544 0H92.16c.04.13.08.2.14.25H80.76c.154-.1.336-.15.46-.22.05 0 .07 0 .113-.1zm35.356 0H130.89c0 .1-.1.18-.1.26h-13.84c-.1-.1-.14-.17-.22-.26zm37.72 0h3.21v.26h-3.4c0-.1.14-.1.16-.18v-.1zm-52.57.17s1.14.1 1.68.3c.54.21 1.44.71 1.44.71s-.26.33-.36 1c-.1.68-.54 1.05-.44 2.07.1 1 1.42 1.99 1.86 2.38 0 0-.81.12-2.13-.12-1.08-.21-2.19-1.78-2.28-3.25-.11-1.4.23-3.09.23-3.09zm-60.437 0l-5.73 3.72c-.563.36-1.134.83-1.584 1.32-1.49 1.71-.835 3.9.264 5.6.597.92 1.42 1.76 2.455 2.17 1.953.81 3.4-.16 5.035-1.14l4.996-3.23c-.144-.16-.288-.36-.4-.54a3.873 3.873 0 0 1-.323-.59L41.9 183.3c-.688.45-2.288 1.48-3.07 1.62-1.538.29-2.47-.1-3.31-1.39-.403-.62-.566-1.27-.432-1.99.165-.84.526-1.22 1.132-1.8.655-.59 1.82-1.32 2.592-1.8l3.99-2.59c-.254-.32-.524-.65-.752-1-.22-.34-.412-.73-.607-1.11zm51.302 0l1.09.3h-.03s-.1 1.38-.04 2.16c.07.77.706 1.55.706 1.55s-.266-1.05-.266-1.62c0-.56.09-1.93.1-1.98.44.1 1.453.29 1.453.29s-.233.53-.302 1.12c-.06.56-.146 1.76.302 2.59.913 1.66 2.563 1.92 2.563 1.92s-2.48.27-3.368-.1c-.893-.38-1.722-1.46-2.057-2.66-.53-1.92-.17-3.62-.17-3.62zm10.515.18s-.51 1.04-.51 1.88c0 1.49.1 1.99.41 2.6.25.52 1.58 1.25 1.58 1.25s-1.02-.78-1.18-1.98c-.17-1.22.1-2.71.37-3.42zm-28.504.1h3.278c-.98.91-2.163 1.66-3.16 2.24l-.167.1-.1.34-.468-.1c.28-.83.467-1.69.613-2.57zm42.334 0h13.63c0 .13-.1.26-.1.38-.1.19-.1.37-.1.54 0 .16.1.33.23.44.14.12.3.19.45.22 0 .17 0 .41.1.94.1.5.18 1.07.39 1.6h-14.48c.25-.63.4-1.36.4-2.06 0-.73-.1-1.42-.43-1.93 0 0-.1-.1-.1-.13zm37.21 0h3.36v4.12h-3.43c.22-.62.4-1.35.37-2.22 0-.87-.2-1.59-.3-1.9zm-47.44.1s.11 0 .27.1c.16.1.37.14.62.22.48.16 1.12.32 1.83.26.86-.1 2.29-.11 3.27-.31.1.1.73.44 1.04.74.48.49.94.88 1.01 1.6 0 .25-.11.84-.29 1.44h-9.97c-.1-.13-.1-.27-.11-.39-.1-.45 0-.73.12-1.01.1-.28.25-.57.31-.96 0-.29.11-.51.17-.65.19 0 .36 0 .5-.1.24 0 .32-.17.4-.28.1-.11.15-.24.21-.35.1-.15.1-.2.13-.29.13 0 .31-.1.49-.1zm33.48.17c.1.1.1.13.16.19.49.54 1.2.95 1.99 1.16.1.1.1.14.16.24.17.28.33.65.34.9 0 .47-.1.97-.16 1.38h-8.09c-.3-.72-.31-1.63-.31-1.96 1.65.18 2.6-.76 3.05-.98.7-.36 2.26-.81 2.86-.93zm13.33.1c.1.24.23.67.26 1.52 0 1.04-.25 1.83-.55 2.52-.13.28-.62.68-1.09.95h-.1c.24-.42.43-.65.59-1.18.31-.99 0-2.17-.13-2.59-.1-.37-.21-.52-.36-.73h.28s.1 0 .13-.1c.14-.1.27-.12.41-.18.1.17.2.45.31.91.16.78.1 1.89.1 1.89s.37-1.21.27-1.91c-.1-.45-.22-.82-.34-1.05.1 0 .13-.1.2-.1zm-6.86.1c.24 0 .52 0 .87.1.49.1 1.24.15 1.95.23.71.1 1.4.17 1.63.27h.37c0 .1.37.54.43.84.1.44.36 1.55.14 2.25v.1h-6.5c0-.1.1-.16.1-.23.23-.83.2-1.97.17-2.51.17-.1.33-.14.47-.24.23-.18.41-.45.42-.76zm-47.613.32h.03zm112.793 0l4.12.59-1.49 2.66zm-66.75.83c0 .43.1 1.42-.1 2.12-.27.91-1.15 1.66-1.89 2.1-.35.22-.42.14-.65.17.23-.4.44-.76.62-1.07.36-.61.45-1.42.42-2.17 0-.37-.2-.69-.37-.98h.44c.46 0 1-.1 1.51-.17zm-13.3.16h.26c.11 0 .15 0 .25.1.14 0 .3.1.46.11 0 .49 0 1.37.12 1.77.2.57.8 1.15.8 1.15s-.4-1.17-.44-1.75c0-.26.1-.73.1-1.04.15.1.27.1.35.11 0 .35-.1 1.52.46 2.5.29.55.58.86.9 1.06.32.19.63.24.93.33.34.1.44.1.73.1-.35.24-.81.46-1.26.37-.46-.1-1.14-.45-1.73-.88-.58-.45-1.11-.97-1.29-1.26-.32-.5-.51-1.25-.58-1.88-.1-.42-.1-.55-.1-.74zm12.44.27l-.31.14s0 1.27-.1 1.68c-.1.4-.4 1.17-.4 1.17s.7-1.02.8-1.61c.1-.62 0-1.38 0-1.38zm42.27.73h.26c-.62.27-1.05.47-1.24.58.54-.37.98-.58.98-.58zm20.62 1.14c-.98.47-1.99 1.4-2.63 2.3-2.12 2.97-2.25 6.57 1.31 9.11 2.78 1.98 6.15 1.05 8.23-1.87.65-.91 1.18-1.99 1.34-3.12l-.96-1.13-.21.13c.15 1.03-.12 2.31-.72 3.16-1.48 2.1-3.94 2.07-6.27.43-2-1.44-3.52-3.88-1.91-6.14.64-.89 1.77-1.37 2.86-1.37l.14-.2c-.39-.45-.8-.85-1.18-1.3zm-90.39.78h15.09c.13.19.32.41.53.62h-16.36c.28-.18.53-.4.73-.63zm-20.38 0h5.4c.1.14.17.28.27.41.1.1.11.16.16.22h-5.096a3.684 3.684 0 0 1-.734-.63zm8.48 0h9.45c-.1.24-.19.44-.27.63h-8.58c-.11-.1-.22-.21-.33-.33-.1-.1-.18-.2-.27-.3zm30.08 0h7.56l-.37.63h-6.22c-.21-.1-.39-.11-.53-.19-.14-.1-.28-.22-.44-.44zm10.36 0h6.57c-.11.22-.23.44-.34.63h-6.72c.18-.19.35-.4.49-.63zm8.62 0h3.63v.63h-4.09c.18-.18.33-.36.42-.6zm-56.448.84h4.918l.24.24h-4.547c-.144 0-.34-.1-.61-.24zm8.218 0h8.26c-.1.14-.1.16-.1.24H106.08c-.1-.1-.17-.15-.27-.24zm10.03 0h16.9c.1.1.16.16.26.24h-17.54l.1-.1c.1-.1.18-.13.28-.18zm22.52 0h3.76c-.1.11-.1.14-.14.24h-3.82zm6.37 0h6.8c0 .1-.1.17-.13.24h-6.93c.1-.1.17-.16.26-.24zm8.61 0h4.33v.25h-4.66c.12-.1.23-.16.33-.24zm-80.734.77h19.376v2.32h-2.158v3.54h.07v-3.46h2.157v-2.39h.713v2.84h-2.157v3.03h1.38v3.79h-8.39v-3.74h1.62v-3.04H80.16v3.04h.842v3.74H72.61v-3.74h2.158v-3.01h.03v-.5H72.68v.1h2.054v.41H72.61zm32.504.37h2.18l-.54 1.39.3.12.58-1.51h2.15l-.46 1.42-2.79 1.09-1.58-2.15zm5.03 0h2.24l-.79 3 .31.1.81-3.1h.82l-.1.14.29-.14h.92l-.59 2.91-2.68 1.13-1.83-2.36zm4.89 0h1.93l-.57 3.86h.32l.57-3.86h1.9l-.34 3.59-2.52.98-1.92-1.51zm4.56 0h3.12v3.94h.34v-3.94h3.2l.33 3.6-3.71 1.92-3.6-1.94zm7.06 0h1.81l.6 3.95h.31l-.59-3.95h1.94l.64 3.06-1.92 1.51-2.45-.95zm4.44 0h1.95l.83 3.1.31-.1-.8-3h.91c.38.22.77.4 1.14.46h.35l.39 1.21-1.82 2.35-2.66-1.13zm6.13 0h.91l.59 1.51.3-.12-.54-1.39h2.18l.17.36-1.6 2.15-2.78-1.09-.32-.96c.42-.1.8-.26 1.09-.46zm-57.844 1.95v3.54h.07v-3.46h5.728v.44h.06v-.51zm-31.205 1.32l-8.738 7.37c.152.16.327.31.467.48.14.17.263.36.393.54l6.186-5.2-.288 2.62c-.305 2.73-.71 5.43-1.114 8.29l.906 1.1 8.772-7.38c-.165-.15-.33-.32-.47-.48a3.96 3.96 0 0 1-.394-.55l-5.978 5.04c.533-3.52.874-7.08 1.33-10.56zM81 185.58h.77v4.25h-9.164v-.41h8.46v-3.82zm10.984 0h.774v4.25h-9.165v-.41h8.457v-3.82zm108.086.61c-.25.32-.47.68-.74 1.02-.26.3-.57.59-.88.89l8.8 7.37c.23-.34.46-.7.74-1.01.26-.31.58-.6.86-.9zm-2.92 4.7c-.27 0-.55.1-.84.16-.74.25-1.58 1.15-2.12 1.71l-2.5 2.54 8.21 8.01c.27-.31.51-.65.8-.95.3-.29.63-.56.94-.83l-3.84-3.75.1-.1c.7.19 1.58.38 2.07.52l3.92 1.02c.32-.37.63-.76.98-1.12.36-.37.75-.7 1.14-1.03l-1.21-.26c-1.82-.37-3.64-.69-5.42-1.17.84-1.33.84-2.81-.34-3.96-.51-.5-1.04-.74-1.63-.79zM56.4 192.73l-8.083 8.15c.318.26.65.53.946.82.3.3.558.61.832.93l8.08-8.14c-.32-.26-.65-.53-.946-.82-.3-.3-.56-.61-.83-.94zm139.55.19c.25 0 .52.1.81.29.3.17.5.35.66.52 1.23 1.19 1.23 2.41-.11 3.53l-3.21-3.13c.52-.54 1.1-1.23 1.85-1.21zm-136.912 2.52c-.123.2-.243.42-.393.59-.162.19-.354.34-.53.49.735.48 1.61 1.08 2.506 1.86l-6.71 7.78c.337.24.684.49 1 .75.317.28.6.58.893.88l6.715-7.77c.766.66 1.44 1.4 2.108 2.12.13-.2.244-.4.41-.58.153-.18.34-.34.52-.5zm131.682.76l-4.85 4.13 7.42 8.66 4.83-4.14c-.18-.17-.37-.32-.53-.5-.15-.17-.27-.39-.4-.61-.69.78-1.49 1.59-2.79 2.71l-2.76-3.22 1.32-1.15c.57-.49 1.14-.89 1.66-1.21-.16-.16-.37-.33-.53-.49-.15-.19-.28-.41-.41-.61-.4.47-.88.98-1.45 1.45l-1.33 1.14-2.34-2.73c1.29-1.14 2.24-1.79 3.09-2.33-.17-.16-.38-.32-.53-.5-.14-.19-.28-.4-.4-.6zm-124.323 5.45l-6.686 9.21 5.157 3.75c.11-.2.22-.44.354-.63.14-.2.326-.37.49-.53-.902-.5-1.876-1.1-3.26-2.09l2.49-3.44 1.41 1.03c.606.44 1.126.89 1.574 1.32.11-.21.22-.44.357-.62.138-.2.323-.37.486-.54-.55-.29-1.144-.64-1.748-1.08l-1.41-1.01 2.112-2.92c1.4.98 2.237 1.75 2.988 2.45.11-.2.214-.44.35-.63.14-.19.33-.36.495-.54zm117.473.41c-.18.16-.36.35-.56.47-.18.13-.41.22-.61.33.54 3.07.84 6.05 1.17 8.69-2.56-1.44-5.11-2.84-7.58-4.36-.18.16-.36.35-.53.48-.21.12-.42.21-.63.32 1.9 3.8 3.64 7.31 5.03 10.44.2-.19.36-.36.58-.51.22-.14.46-.24.71-.36-1.28-1.97-2.36-4.04-3.7-6.7 2.54 1.47 5.09 2.87 7.25 4.17.15-.16.34-.25.54-.34-.48-2.82-.86-5.63-1.27-8.47 1.66 1.99 3.38 3.91 4.97 6.05.38-.29.7-.57 1.07-.83.39-.26.8-.48 1.2-.72-2.33-2.43-4.7-5.23-7.64-8.66zm-111.144 4.19l-5.692 9.86 4.048 2.34c2.966 1.71 6.39 1.1 8.28-2.18 1.37-2.37 1.34-5.26-1.688-7.16zm1.686 2.1l1.416.81c2.04 1.19 2.707 3 1.14 5.72-1.96 3.39-4.057 3.5-6.052 2.36l-1.228-.71zm94.978 2.5c-.19.14-.35.23-.55.35-.19.1-.38.15-.59.23l.98 12.49c.23-.14.45-.28.69-.4.23-.12.47-.19.72-.31-.25-1.17-.34-2.28-.52-3.61l3.47-1.76c.91.79 1.74 1.64 2.64 2.58.41-.25.82-.51 1.24-.73.43-.22.88-.37 1.32-.58zm.32 3.44l3.08 2.81-2.73 1.39zm-81.046.1c-1.57-.1-2.758.83-3.32 2.19-1.58 3.79 3.492 4.83 2.443 7.34-.452 1.08-1.546 1.27-2.52.86-1.087-.44-1.668-1.43-1.453-2.63l-.333-.1c-.376.62-.824 1.21-1.285 1.79.542.78 1.386 1.37 2.25 1.74 2.437 1.01 4.77.29 5.605-1.73 1.5-3.61-3.447-5.21-2.563-7.33.37-.9 1.127-1.33 2.37-.82.895.38 1.268 1.17 1.24 2.13l.24.1c.376-.46.75-.92 1.146-1.34-.207-.48-1.036-1.31-2.17-1.8a5.05 5.05 0 0 0-1.686-.38zm71.456 1.16l-6.13 2.2 3.85 10.8 2.11-.76-1.86-5.22 4.01-1.42-.51-1.14-3.93 1.39-1.14-3.22 4.12-1.47zm-66.697.82c-.04.22-.06.47-.123.7-.07.24-.19.45-.29.66.872.14 1.908.33 3.05.67l-2.97 9.85c.408.1.827.15 1.224.27.4.13.783.29 1.173.45l2.97-9.84c.977.3 1.883.68 2.793 1.09 0-.23.1-.48.13-.72.1-.22.19-.44.29-.65zm54.927 2.66c-.51 0-1.06.1-1.65.19-4.11.91-5.93 4.08-5.21 7.36.8 3.75 3.74 5.36 7.39 4.57 4.04-.88 5.93-4.16 5.21-7.37-.51-2.23-2.18-4.82-5.74-4.75zm-42.05.64l-6.9 10.48c.27 0 .534 0 .8.1.26.1.5.1.76.2.53-1.08 1.14-2.02 1.8-3.18l3.84.76c.22 1.19.34 2.36.48 3.66.5 0 .96.1 1.44.18.49.1.93.23 1.4.35l-2.39-12.28c-.2 0-.4 0-.61-.1-.22-.1-.42-.1-.62-.18zm41.4.48c1.96.11 3.18 2.05 3.59 3.91.59 2.75 0 5.53-2.55 6.09-2.47.53-3.95-1.53-4.4-3.69-.81-3.68.19-5.72 2.49-6.22.31-.1.59-.1.87-.1zm-35.72.73v.69c0 .26-.1.49-.15.71.88 0 1.94 0 3.13.1l-.95 10.23h1.26c.41 0 .81.12 1.23.21l.95-10.24c1.02.1 1.98.3 2.96.51v-.72c0-.23 0-.45.13-.68zm21.18.59h-.45c-2.6.1-3.87 1.78-3.78 3.74.16 4.1 5.2 2.9 5.31 5.63.1 1.18-.86 1.85-1.91 1.85-1.19.1-2.12-.61-2.44-1.78h-.32c-.1.74-.22 1.46-.41 2.19.83.48 1.85.62 2.77.62 2.64-.12 4.46-1.75 4.37-3.93-.17-3.91-5.33-3.27-5.42-5.57-.1-.97.45-1.65 1.79-1.74.98 0 1.65.51 2.03 1.4h.26c.15-.58.3-1.15.47-1.7-.34-.3-1.24-.69-2.27-.72zm-11.72.37v11.41h6.36c0-.23-.1-.49-.1-.72 0-.23.1-.5.1-.72-1.02.13-2.16.24-3.86.24v-4.25h1.73c.76 0 1.43.1 2.06.16 0-.26-.1-.49-.1-.72 0-.25.1-.49.1-.73-.62.1-1.29.16-2.05.16h-1.73v-3.59c1.69 0 2.83.1 3.85.22 0-.22-.1-.49-.1-.73 0-.22.1-.48.1-.72zm-15.76.99l.73 4.11-3-.58z"/></svg>