<svg xmlns="http://www.w3.org/2000/svg" viewBox="0 0 185 79"><path d="M152.487 31.8a6.803 6.803 0 0 0-3.708-1.07c-1.465 0-2.762.666-3.897 1.996-1.136 1.33-1.702 2.956-1.702 4.876v15.41h-6.333V25.845h6.334v2.595c1.765-2.033 4.11-3.05 7.036-3.05 2.152 0 3.8.33 4.944.987l-2.673 5.422zm-61.912-.994c2.914 0 5.004.653 6.267 1.96 1.265 1.308 1.896 3.56 1.896 6.765 0 3-.636 5.197-1.908 6.586-1.274 1.393-3.366 2.087-6.28 2.087-1.535 0-2.874-.464-4.02-1.392V32.578c1.18-1.18 2.528-1.77 4.045-1.77zm1.407 22.738c4.144 0 7.412-1.2 9.805-3.597 2.393-2.4 3.59-5.82 3.59-10.263 0-9.528-4.33-14.295-12.987-14.295-2.317 0-4.27.76-5.86 2.282v-1.826h-6.333v37.77h6.333V52.353c1.64.795 3.457 1.19 5.452 1.19zm-47.337-.533V37.374c0-2.305-.445-3.99-1.333-5.05-.888-1.063-2.338-1.593-4.352-1.593-.93 0-1.924.26-2.982.784-1.058.522-1.882 1.17-2.473 1.944V53.01H27.17V25.847h4.564L32.9 28.38c1.726-1.992 4.268-2.99 7.634-2.99 3.227 0 5.774.966 7.642 2.898 1.867 1.934 2.803 4.63 2.803 8.088V53.01h-6.335zM12 12v54.988h160.97V12zm2 2h50.99v50.988H14zm52.99 0h50.99v50.988H66.99zm52.99 0h50.99v50.988h-50.99z"/></svg>