<svg xmlns="http://www.w3.org/2000/svg" viewBox="0 0 156.405 43.221"><path d="M8.015 12.91zm.06.1h-.05-.02c-.01 0 0 .1 0 .12v28.33H.245V1.85h9.076c2.36.07 4.87.407 6.99.87.33.07.65.124.88.252.23.123.45.292.66.46.21.16.42.335.62.505 1.21 1.045 2.3 2.225 3.41 3.333l21.01 23.92V1.87h7.76v39.65H46.05c-1.11 0-2.23.1-3.28 0-3.08-.28-6.1-.6-8.87-1.13-.31 0-.63-.12-.9-.2-.27-.1-.5-.25-.71-.4-.44-.45-.84-.79-1.23-1.15-1.55-1.44-2.99-2.95-4.41-4.46-1.45-1.52-2.84-3.09-4.24-4.64-2.12-2.34-4.17-4.7-6.23-7.09-1.37-1.58-2.73-3.14-4.11-4.76-1.16-1.37-2.402-2.81-3.564-4.2-.125-.15-.292-.36-.426-.51zm0 0s-.01 0 0 0zM103.4 41.44H75c-5.04 0-10.99-.63-14.54-2.91-2.33-1.57-3.32-4.95-3.54-7.21-.1-.83 0-1.71 0-2.62V1.85v-.03h45.28c.1 0 .3-.02.4 0 0 .01 0-.01 0 0v6.218H73.2v9.312h27.1v6.18s0 .1 0 0H73.2v5.99c0 3.35 2.64 5.32 5.47 5.63H103.5zm52.8-6.73v6.4c-4.3 1.16-9 1.85-14.3 1.91-7.9.24-16.5-.38-23.2-2.6-4.3-1.49-7.8-3.8-10.1-7.31-1.8-2.82-2.8-6.44-2.9-11.03 0-2.33.2-4.45.7-6.33.5-2.37 1.4-4.37 2.6-6.064 7-9.08 21-9.254 30.6-9.388h2.8c4.8.09 9.1.7 13 1.695v5.595c-5.7-.957-11.7-1.282-17.2-.957-3.8.24-7.2.933-9.8 2.467-3.5 2.273-5.1 5.913-5.5 9.753-.2 1.85-.1 4.03.1 5.78.4 2.66 1.3 4.8 2.7 6.49 3.4 3.78 9.4 4.62 13.5 4.83 4 .16 7.9 0 11.7-.4 1.9-.18 3.7-.37 5.3-.84z"/></svg>