<svg xmlns="http://www.w3.org/2000/svg" viewBox="0 0 311 51"><path d="M310.7 50.19h-29.2V.002h29.2v3.373h-25.6V23.2H307v3.38h-21.9v20.24h25.6m-34.1 3.37h-3.7L244.6 6.534V50.19h-3.7V.002h3.7l28.3 43.478V.002h3.7V50.19M232.3.002V50.19h3.2V.002h-3.2m-5 32.578c0 5.1-1.4 9.08-3.9 11.92-1.5 1.81-3.3 3.21-5.6 4.2-2.1.99-4.4 1.49-6.8 1.49-2.3 0-4.4-.44-6.5-1.32-2-.88-3.8-2.12-5.3-3.73-1.5-1.46-2.4-3.01-3.1-4.64-.5-1.62-.9-3.48-1.1-5.59-.1-2.09-.4-5.37-.4-9.82 0-4.44.3-7.72.4-9.81.2-2.11.6-3.97 1.1-5.6.7-1.626 1.6-3.172 3.1-4.64 1.5-1.598 3.3-2.838 5.3-3.718 2.1-.88 4.2-1.32 6.5-1.32 4.1 0 7.7 1.307 10.7 3.946 2.9 2.626 4.8 6.122 5.4 10.482h-3.6c-.4-2.22-1.2-4.18-2.4-5.883-1.2-1.706-2.6-3-4.4-3.892-1.7-.893-3.6-1.333-5.7-1.333-1.7 0-3.3.306-4.9.946-1.5.627-2.8 1.573-4.2 2.84-.8.88-1.4 1.8-1.8 2.745-.5.947-.8 2.147-1.1 3.587-.2 1.45-.5 3.11-.5 4.94-.1 1.86-.1 4.1-.1 6.71 0 3.92.1 6.89.2 8.93.2 2.04.6 3.77 1 5.2.5 1.42 1.3 2.7 2.3 3.83 1.2 1.24 2.7 2.19 4.2 2.84 1.6.66 3.2.98 4.9.98 1.9 0 3.7-.41 5.5-1.23 1.6-.83 3-2.01 4.4-3.54.9-1.31 1.7-2.73 2.1-4.27.4-1.53.7-3.37.7-5.52v-4.43H211v-3.32h16.3v8.02m-37.7 17.61h-3.8L157.6 6.534V50.19h-3.8V.002h3.8l28.2 43.478V.003h3.8V50.19m-41 0h-29.2V.002h29.2v3.373h-25.5V23.2h21.8v3.38h-21.8v20.24h25.5m-33.8-35.83h-11.9v39.2H91v-39.2H79.07V.002h35.73M75.3 50.19H42.79V.002H75.3V10.99H54.53v8.39h17.75v10.97H54.53v8.86H75.3v10.98m-36.3 0H28.29L12.27 24.96v25.23H0V.002h10.73L26.74 25.24V.002H39V50.19"/></svg>