<svg xmlns="http://www.w3.org/2000/svg" viewBox="0 0 86.126251 99.160004"><path d="M0 0v67.5h31.5V27h18v40.5H81V0zm.003 79.498v16.03h3.47V85.405l7.686 10.125h2.968V79.497H10.69v9.906l-7.468-9.906zm43.72 0l-6.657 16.03h3.562l1.47-3.56h6.31l1.47 3.56h3.625L46.878 79.5zm-13.814.75v3.094H28.47v2.97h1.437v5.75c0 2.816 1.45 3.655 3.562 3.655 1.16 0 1.992-.255 2.72-.688v-2.782a3.544 3.544 0 0 1-1.72.438c-.77 0-1.094-.393-1.094-1.188V86.31h2.844v-2.968h-2.844v-3.094zm-8.063 2.875c-3.545 0-6.03 2.87-6.03 6.344v.03c0 3.726 2.715 6.312 6.373 6.313 2.203 0 3.835-.873 4.97-2.282l-1.97-1.75c-.954.888-1.81 1.25-2.968 1.25-1.547 0-2.625-.807-2.97-2.375h8.47c.03-.317.03-.665.03-.937 0-3.453-1.84-6.594-5.906-6.594zm39.78 0c-1.794 0-2.97.834-3.81 1.97v-1.75h-3.44v15.81h3.44v-5.217c.816.977 1.972 1.812 3.81 1.812 2.887 0 5.532-2.214 5.532-6.28v-.06c0-4.067-2.69-6.282-5.532-6.282zm14.19 0c-1.795 0-2.943.834-3.783 1.97v-1.75h-3.468v15.81h3.468v-5.217c.816.977 1.94 1.812 3.782 1.812 2.885 0 5.53-2.214 5.53-6.28v-.06c0-4.067-2.69-6.282-5.53-6.282zm5.186.22v.374h.75v2.344h.406v-2.343h.78v-.375zm2.438 0v2.718h.407v-2.25l.812 2.25h.25l.812-2.25v2.25h.406v-2.718h-.625l-.72 2.062-.717-2.062zm-38.187.374l2.094 5.156h-4.22zm-23.406 2.187c1.452 0 2.358 1.015 2.562 2.563h-5.22c.273-1.565 1.223-2.563 2.657-2.563zm38.875.157c1.61 0 2.97 1.323 2.97 3.344v.06c0 2.045-1.36 3.343-2.97 3.344-1.61 0-2.938-1.322-2.938-3.344v-.06c0-2.02 1.326-3.343 2.938-3.343zm14.22 0c1.612 0 2.967 1.323 2.967 3.344v.06c0 2.045-1.356 3.343-2.97 3.344-1.61 0-2.968-1.322-2.968-3.344v-.06c0-2.02 1.358-3.343 2.97-3.343z"/></svg>