<svg xmlns="http://www.w3.org/2000/svg" viewBox="98 0 404 200"><path d="M399.728 139.22c-1.17 2.57-2.48 4.504-3.94 5.803-1.455 1.296-2.936 1.945-4.43 1.945-1.29 0-2.61-.49-3.947-1.464a10.385 10.385 0 0 1-2.532-2.643c-.675-1-1.493-2.697-2.467-5.086-.973-2.386-1.642-4.594-1.992-6.62-.357-2.02-.54-4.25-.54-6.682v-7.16c0-3.463.475-7.002 1.423-10.62.95-3.615 2.24-6.395 3.884-8.336 1.643-1.942 3.43-2.91 5.344-2.91 2.96 0 5.506 1.98 7.642 5.95V98.92c0-.837.078-1.434.247-1.8.162-.36.377-.543.65-.543.265 0 .486.182.648.542.163.366.247.963.247 1.8v9.76c0 .87-.084 1.48-.247 1.847-.162.36-.383.542-.65.542-.246 0-.447-.167-.61-.504-.16-.334-.26-.88-.285-1.633-.07-2.344-.72-4.43-1.948-6.24-1.643-2.487-3.526-3.727-5.63-3.727-1.382 0-2.68.6-3.9 1.8-.917.863-1.637 1.928-2.176 3.184-.94 2.18-1.69 4.594-2.24 7.246-.403 1.958-.597 4.16-.597 6.617v6.16c0 5.252.967 9.807 2.895 13.677 1.935 3.867 4.182 5.802 6.746 5.802 1.534 0 2.91-.66 4.13-1.967 1.215-1.315 2.39-3.3 3.533-5.954.24-.58.507-.876.812-.876.253 0 .46.156.617.46s.234.7.234 1.176c-.003.636-.308 1.616-.918 2.93zm26.284-4.963c-.967 4.006-2.3 7.13-4 9.363-1.7 2.233-3.526 3.347-5.474 3.347-2.89 0-5.428-2.406-7.63-7.224-2.195-4.818-3.292-10.996-3.292-18.534 0-7.57 1.097-13.757 3.292-18.56 2.2-4.8 4.74-7.203 7.63-7.203 1.948 0 3.766 1.117 5.467 3.35 1.688 2.234 3.026 5.347 4 9.34.974 3.994 1.46 8.35 1.46 13.072.002 4.69-.485 9.034-1.453 13.047zm-2.902-28.466c-1.694-4.55-3.883-6.824-6.57-6.824-2.514 0-4.67 2.17-6.455 6.513-1.786 4.343-2.675 9.583-2.675 15.73 0 6.534.935 11.87 2.805 16.02s3.98 6.22 6.325 6.22c2.688 0 4.876-2.268 6.57-6.807 1.696-4.542 2.54-9.685 2.54-15.434 0-5.728-.846-10.867-2.54-15.42zm32.134 39.29c-.182.34-.493.508-.915.508h-2.39c-2.222-7.792-3.936-13.016-5.157-15.668-1.214-2.65-2.61-4.72-4.188-6.2h-5.7v18.35h3.31c.44 0 .753.16.935.48.182.32.28.746.28 1.278 0 .503-.098.922-.28 1.253-.182.34-.494.508-.935.508h-7.513c-.43 0-.734-.17-.915-.507-.19-.33-.28-.75-.28-1.252 0-.533.092-.958.28-1.28.18-.317.487-.48.915-.48h2.41V100.1h-2.41c-.43 0-.734-.164-.915-.482-.19-.32-.28-.75-.28-1.28 0-.532.092-.957.28-1.278.18-.32.487-.48.915-.48h10.837c2.233 0 4.116 1.39 5.648 4.165 1.526 2.782 2.286 5.915 2.286 9.405 0 2.513-.467 4.883-1.416 7.097-.948 2.224-2.526 4.07-4.746 5.552 1.28 1.734 2.377 3.688 3.286 5.866.91 2.18 2.37 6.65 4.37 13.405h1.37c.422 0 .734.162.915.48.188.32.28.747.28 1.28 0 .503-.09.922-.28 1.253zm-9.207-26.553c1.273-1.117 2.2-2.432 2.773-3.938.584-1.507.864-3.046.864-4.61 0-2.345-.597-4.58-1.8-6.702-1.2-2.12-2.66-3.182-4.382-3.182h-6.597v20.106h4.89c1.564 0 2.98-.555 4.252-1.675zm12.883 27.06c-.43 0-.734-.168-.922-.506-.182-.33-.273-.75-.273-1.252 0-.533.09-.958.273-1.28.188-.317.493-.48.922-.48h2.41V100.1h-2.41c-.43 0-.734-.164-.922-.482-.182-.32-.273-.75-.273-1.28 0-.532.09-.957.273-1.278.188-.32.493-.48.922-.48h18.837v12.103c0 .84-.078 1.443-.247 1.806-.156.36-.377.542-.65.542-.265 0-.486-.182-.648-.542-.162-.364-.247-.967-.247-1.805v-8.583H463.12V118.4h6.423v-3.98c0-.837.084-1.434.26-1.8.17-.36.39-.543.656-.543.26 0 .473.182.642.542.17.366.26.963.26 1.8v11.48c0 .835-.09 1.436-.26 1.8s-.383.55-.643.55c-.267 0-.488-.186-.657-.55-.176-.364-.26-.964-.26-1.8v-3.98h-6.422v20.15h13.786v-10.39c0-.838.078-1.442.247-1.802.162-.36.377-.546.65-.546.265 0 .486.185.648.546.163.36.248.964.248 1.802v13.908H458.92zM321.44 99.616c-.195.318-.513.48-.96.48h-1.585v45.492h-2.403l-13.778-43.858v40.34h3.448c.46 0 .786.16.98.48.195.32.292.746.292 1.278 0 .503-.097.922-.292 1.253-.195.34-.52.508-.98.508h-6.883c-.462 0-.787-.17-.98-.507-.19-.33-.293-.75-.293-1.252 0-.533.104-.958.292-1.28.194-.317.518-.48.98-.48h1.557V100.1h-2.513c-.44 0-.766-.164-.954-.482-.2-.32-.3-.75-.3-1.28 0-.532.098-.957.3-1.278.188-.32.513-.48.954-.48h4.896l13.805 43.94v-40.42h-3.448c-.448 0-.766-.164-.96-.482-.19-.32-.287-.75-.287-1.28 0-.532.09-.957.28-1.278.18-.32.505-.48.966-.48h6.902c.448 0 .766.16.96.48.19.32.287.747.287 1.28 0 .528-.097.957-.285 1.278zm5.18 45.972c-.44 0-.76-.17-.953-.507-.195-.33-.292-.75-.292-1.252 0-.533.097-.958.292-1.28.195-.317.513-.48.954-.48h2.52V100.1h-2.52c-.44 0-.76-.164-.953-.482-.195-.32-.292-.75-.292-1.28 0-.532.097-.957.292-1.278s.513-.48.954-.48h19.662v12.103c0 .84-.084 1.443-.253 1.806-.17.36-.397.542-.683.542-.28 0-.506-.182-.675-.542-.176-.364-.26-.967-.26-1.805v-8.583H331.01V118.4h6.7v-3.98c0-.837.092-1.434.267-1.8.182-.36.416-.543.695-.543.266 0 .487.182.67.542.174.366.26.963.26 1.8v11.48c0 .835-.085 1.436-.26 1.8-.183.364-.404.55-.67.55-.28 0-.513-.186-.695-.55-.175-.364-.266-.964-.266-1.8v-3.98h-6.7v20.15h14.382v-10.39c0-.838.084-1.442.26-1.802.17-.36.396-.546.675-.546s.507.185.682.546c.168.36.252.964.252 1.802v13.908h-20.64zm48.044-31.46c-.17.363-.396.545-.676.545-.286 0-.513-.182-.682-.545-.176-.36-.26-.974-.26-1.84v-12.192h-7.655v41.972h4.85c.45 0 .767.162.962.48.188.32.292.747.292 1.28 0 .502-.104.92-.292 1.252-.195.338-.513.507-.96.507h-11.604c-.442 0-.76-.17-.955-.507-.188-.33-.286-.75-.286-1.253 0-.533.097-.958.286-1.28.195-.317.513-.48.955-.48h4.857v-41.97h-7.655v12.19c0 .867-.09 1.48-.26 1.84-.17.364-.396.546-.675.546-.266 0-.493-.182-.67-.545-.18-.36-.265-.974-.265-1.84v-15.71h20.947v15.71c0 .866-.084 1.48-.253 1.84zM205.725 15.656c-47.238 0-85.528 37.598-85.528 83.983 0 46.38 38.29 83.978 85.528 83.978l85.522.003V99.64c0-46.383-38.29-83.982-85.522-83.982zm0 40.047c16 0 28.972 13.194 28.972 29.472 0 16.275-12.973 29.466-28.972 29.466-16.006 0-28.973-13.19-28.973-29.465 0-16.278 12.967-29.472 28.973-29.472zm38.66 85.943C215.153 176.258 181.29 170.3 181.29 170.3c-47.607-6.362-50.815-57.56-50.815-57.56-2.734-61.952 44.92-81.507 44.92-81.507-55.757 46.488-12.207 98.187-12.207 98.187 23.473 27.2 59.192 10.59 59.192 10.59 31.706-11.46 40.732-47.98 40.732-47.98-1.17 31.7-18.727 49.616-18.727 49.616z"/></svg>