<svg xmlns="http://www.w3.org/2000/svg" width="600" height="120"><path class="logotext" d="M580.407 101.29h-53.8V9h53.8v6.202h-47.045v36.464h40.05v6.202h-40.05v37.217h47.045M458.76 21.027v80.262h-6.867V9h6.866l52.015 79.948V9h6.872v92.29h-6.872zM436.236 9v92.29h5.97V9h-5.97zm-9.328 59.91c0 9.377-2.352 16.686-7.044 21.92a29.963 29.963 0 0 1-10.278 7.72c-3.98 1.824-8.177 2.74-12.6 2.74-4.142 0-8.1-.81-11.882-2.427a29.934 29.934 0 0 1-9.91-6.85c-2.588-2.697-4.437-5.545-5.552-8.537-1.115-2.987-1.81-6.41-2.092-10.274-.28-3.86-.59-9.876-.59-18.056 0-8.18.31-14.2.59-18.062.282-3.86.977-7.286 2.092-10.277 1.115-2.99 2.964-5.833 5.553-8.533a30.074 30.074 0 0 1 9.88-6.85C388.836 9.806 392.81 9 396.988 9c7.643 0 14.17 2.415 19.588 7.252 5.415 4.84 8.778 11.262 10.09 19.276h-6.625c-.795-4.07-2.298-7.67-4.504-10.805-2.21-3.136-4.89-5.52-8.054-7.16-3.164-1.638-6.668-2.462-10.522-2.462-3.103 0-6.076.586-8.914 1.746-2.848 1.162-5.38 2.906-7.61 5.234-1.55 1.618-2.75 3.3-3.607 5.044-.85 1.742-1.522 3.942-1.995 6.6-.48 2.657-.775 5.688-.895 9.096-.12 3.4-.178 7.51-.178 12.326 0 7.185.135 12.657.41 16.41.29 3.758.902 6.942 1.86 9.56.95 2.62 2.42 4.965 4.404 7.037 2.196 2.284 4.72 4.027 7.582 5.232a22.73 22.73 0 0 0 8.943 1.8c3.5 0 6.825-.75 9.99-2.27 3.16-1.51 5.85-3.68 8.08-6.505 1.864-2.407 3.208-5.02 4.027-7.846.81-2.824 1.216-6.21 1.216-10.153V60.26h-23.313V54.15h29.945v14.76M298.743 21.026v80.262h-6.865V9h6.864l52.018 79.948V9h6.87v92.29h-6.87zm-16.368 80.262h-53.8V9h53.8v6.202h-47.05v36.464h40.058v6.202h-40.058v37.217h47.05M220.15 29.192h-21.94v72.097h-21.875V29.19H154.4V9h65.75M87.678 9h59.774v20.192h-38.18v15.446h32.63V64.83h-32.63V81.1h38.18v20.19H87.678zM31.564 54.893v46.396H9V9h19.735l29.43 46.4V9h22.563v92.29h-19.73z"/></svg>