<svg xmlns="http://www.w3.org/2000/svg" viewBox="0 0 344 125.2"><path d="M225.6 82.57V22h-13V93.77c10.2.51 20.6 1.01 30.5 1.52v-11.7c-5.8-.51-11.7-.77-17.5-1.02M107.8 33.7V22H77.23v75.07c10.18-.76 20.36-1.52 30.57-2.29v-11.7c-5.9.25-11.74.76-17.59 1.27V65.52h15.29V53.56H90.21V33.7h17.59zm-73.58 68V56.86l15.27 43.01c4.58-.5 9.16-1.01 14-1.52V22H51.02v46.32L34.73 22H22v81.2l12.22-1.5m97.98-7.93c4.3-.26 8.6-.26 13-.51V33.7h11.9V22h-36.9v11.7h12v60.07zm39.9-.77h10.2V65.52h15.5V53.56h-15.5V33.7h17.8V22h-30.5v71h2.5m96.2 4.33V22h-12.7v74.06c4.1.51 8.4.76 12.7 1.27m9.7.76c4.1.51 8.4.77 12.5 1.28l9.1-22.65 9 24.68c4.3.8 8.9 1.3 13.4 1.8l-15.5-43.54L322 22H308.8l-8.4 20.61L293.3 22h-13l13.5 37.41L278 98.09z"/></svg>