<svg xmlns="http://www.w3.org/2000/svg" viewBox="0 0 687 128.4"><path d="M22.85 103h20.16V55.47h.22L80.15 103h20.15V25.44H80.15v47.4h-.21l-36.93-47.4H22.85V103M178.7 42.52V25.44h-44.2V103h44.2V85.93h-24v-13.4h22.7V55.47h-22.7V42.52h24m67.7 0h16.7V25.44h-53.5v17.08h16.6V103h20.2V42.52m79.3 17.18v15.83h16.4c-.8 8.94-7.5 13.47-16.2 13.47-13.3 0-20.5-12.23-20.5-24.27 0-11.82 6.9-24.48 20.2-24.48 8.1 0 14 4.93 16.7 12.33l19.2-8.01c-6.7-14.51-19.1-21.72-35-21.72-25 0-42.1 16.57-42.1 41.78 0 24.37 17 40.97 41.4 40.97 12.9 0 24.3-4.7 32-15.26 6.9-9.66 7.7-19.32 7.9-30.64h-40m116.5-17.18V25.44H398V103h44.2V85.93h-24v-13.4h22.7V55.47h-22.7V42.52h24m81.5 46.85l5 13.43h21.6L521 25.28h-22l-29.8 77.52h21.4l5.3-13.43h27.8m-5.4-15.44h-16.8l8.3-24.7h.2zm99.1-2.72c11-1.95 17-11.2 17-21.91 0-16.56-11.6-23.86-27-23.86h-30.1V103h20.2V73.17h.2l19 29.83h25.1l-24.4-31.79m-19.9-30.35h1.9c6.6 0 14 1.22 14 9.67s-7.4 9.67-14 9.67h-1.9zm54.3-11.44V39.7h2.8v-4.06h.8l2 4.06h3.1l-2.3-4.51c1.4-.42 2.2-1.45 2.2-2.77 0-1.93-1.5-3-4.5-3zm2.8 1.78h.9c1.3 0 2 .4 2 1.41 0 .9-.7 1.33-1.9 1.33h-1zm1.1-5.42c-5 0-9 4.03-9 9 0 4.96 4 9 9 9s9-4.04 9-9c0-4.97-4-9-9-9zm0 1c4.4 0 8 3.58 8 8s-3.6 8-8 8-8-3.58-8-8 3.6-8 8-8z"/></svg>