<svg xmlns="http://www.w3.org/2000/svg" viewBox="21 58 841.89 186"><path d="M249.578 114.9h23.377l-.93 11.396.53.057c4.592-8.15 14.895-12.242 30.9-12.242 23.288 0 34.95 7.462 34.95 22.39v46.103H314.8V142.283l-.508-4.752c-1.11-5.055-6.872-7.573-17.315-7.573-15.877 0-23.81 5.16-23.81 15.506v37.14H249.58V114.9h-.002zM411.44 159.917h23.125v2.56c0 12.905-14.074 19.357-42.243 19.357-19.117 0-31.63-2.234-37.532-6.705-5.892-4.48-8.853-13.955-8.853-28.427 0-12.875 3.09-21.528 9.264-25.95 6.173-4.428 18.206-6.642 36.12-6.642 17.157 0 28.67 2.16 34.493 6.46 5.842 4.315 8.752 12.797 8.752 25.42v8.716h-65.08c-.14 1.477-.2 2.45-.2 2.907 0 6.502 1.46 6.982 4.38 9.152 2.902 2.165 8.724 3.243 17.447 3.243 8.452 0 13.945-.642 16.505-1.91 2.55-1.27 3.822-4 3.822-8.18zm.198-18.77l-.09-2.618c0-5.253-1.34-6.093-3.99-7.665-2.65-1.56-8.402-2.35-17.245-2.35-8.593 0-14.174.948-16.755 2.843-2.592 1.89-3.87 3.44-3.87 9.79h41.95zM514.88 116.27v16.916H477.2v27.058c0 6.112 3.45 9.165 10.335 9.165 7.572 0 11.363-3.694 11.363-11.094v-2.63h19.974v3.316c0 3.024-.14 5.633-.41 7.796-1.3 10.063-12.432 15.094-33.38 15.094-20.905 0-31.35-6.453-31.35-19.378v-29.328H441.05V116.27h12.683v-15.895H477.2v15.895h37.683zM547.472 100.375v81.438h-21.397v-81.438h21.397zM840.232 136.528h-22.366c-.132-.542-.24-.96-.302-1.23-.468-3.122-1.77-3.46-3.92-4.242-2.172-.77-7.412-1.15-15.736-1.15-11.91 0-17.795 1.03-17.893 6.27-.042 2.792.93 3.512 3.14 3.822 2.192.29 9.216 1.22 21.326 1.62 16.318.544 26.922 2.023 31.86 4.423 4.91 2.4 7.394 7.313 7.394 14.737 0 7.92-3.28 13.412-9.844 16.462-6.542 3.062-18.324 4.594-35.29 4.594-16.315 0-27.47-1.395-33.46-4.152-5.984-2.764-8.984-11.783-8.984-19.35v-1.616h23.767c-.34.897-.32 1.878-.22 2.42 1.13 6.17 8.293 6.98 22.258 6.98 14.445 0 18.535-1.45 18.588-7.162.066-4.33-4.172-3.93-13.567-4.372-20.414-.925-33.9-1.3-40.39-3.92-6.483-2.63-9.734-8.09-9.734-16.375 0-7.42 2.95-12.44 8.88-15.085 5.925-2.62 17.307-3.928 34.163-3.928 15.895 0 26.598 1.277 32.1 3.808 5.494 2.532 8.232 10.064 8.232 17.446zM184.157 97.675c26.3 14.476-7.902 55.7-17.536 63.16 31.132-57.9-28.497-49.996-37.27-47.816C54.364 133.185 40.76 175.74 40.76 175.74c20.175-73.245 117.077-92.54 143.395-78.067z"/><path d="M80.744 201.94c-26.31-14.477 7.892-55.688 17.535-63.15-31.13 57.875 28.508 49.997 37.27 47.805 74.996-20.176 88.58-62.718 88.58-62.718-20.178 73.23-117.077 92.525-143.386 78.062zM738.502 124.645c-5.15-4.893-12.566-7.613-26.44-7.613-16.166 0-26.258 3.67-30.23 11.013l-.5-6.2v-21.54h-23.147v81.22h23.147l-1.01-11.015h.51c4.712 7.89 14.573 11.804 29.61 11.804 14.824 0 24.847-2.522 30.068-7.614 5.234-5.07 4.892-14.216 4.892-28.63 0-13.224-1.75-16.544-6.9-21.425zm-14.516 26.98c0 7.072-5.78 12.85-12.862 12.85h-15.718c-7.07 0-12.86-5.777-12.86-12.85v-3.632c0-7.065 5.79-12.876 12.86-12.876h15.718c7.08 0 12.862 5.81 12.862 12.876v3.632zM636.13 119.054c-5.973-3.293-17.426-4.943-34.362-4.943-15.555 0-25.968 1.354-31.22 4.033-5.26 2.71-7.883 9.323-7.883 17.326h23.058c0-6.234 5.73-6.764 17.225-6.764 7.945 0 13.195.84 15.757 2.54 2.552 1.692 3.83 5.14 3.83 10.345v5.65h-.39c-3.34-5.07-12.793-6.142-28.36-6.142-23.295 0-34.958 6.742-34.958 20.598 0 13.695 11.382 20.548 34.168 20.548 15.697 0 25.71-3.334 30.04-9.963l.59.058-1.09 9.125h22.567V137.94c0-9.294-3-15.586-8.973-18.886zm-20.908 48.12h-25.108c-3.2 0-5.79-3.157-5.79-6.358 0-3.202 2.62-5.882 5.79-6.22h25.108c3.192 0 5.803 3.018 5.803 6.22 0 3.2-2.61 6.36-5.803 6.36z"/></svg>