<svg xmlns="http://www.w3.org/2000/svg" viewBox="0 0 445 162"><path d="M402.8 125.9c-.9 2.4-1.7 3.2-3.4 3.2-.5 0-1 0-1.4-.2v-1.8c.4.1.8.3 1.2.3.8 0 1.2-.4 1.6-1.1l.8-2-4.8-12h2.3l3.5 9.8 3.4-9.8h2.1l-5.3 13.6zM385 112.3h1.8v1.9h.1c.8-1.4 2.1-2.1 3.9-2.1 3.1 0 4.1 1.8 4.1 4.3v7.9h-2v-8.1c0-1.5-.9-2.4-2.4-2.4-2.4 0-3.6 1.6-3.6 3.8v6.7H385v-12zm-2.2 12c-.3.2-.7.3-1.4.3-1 0-1.6-.5-1.6-1.8-1.1 1.2-2.6 1.8-4.3 1.8-2.1 0-3.9-1-3.9-3.4 0-2.7 2-3.2 4-3.6 2.2-.5 4.1-.3 4.1-1.8 0-1.7-1.4-2-2.7-2-1.7 0-2.9.5-3 2.3h-2c.1-3 2.4-4 5.1-4 2.2 0 4.5.4 4.5 3.3v6.1c0 1 0 1.4.6 1.4.2 0 .4-.1.6-.1v1.5zm-3.2-6.2c-.7.6-2.2.6-3.5.8-1.3.3-2.4.7-2.4 2.2 0 1.3 1.1 1.8 2.3 1.8 2.6 0 3.6-1.7 3.6-2.7v-2.1zm-21.4-5.8h2v1.7h.1c.6-1.4 2.1-1.9 3.8-1.9 3.7 0 5.5 2.9 5.5 6.3s-1.8 6.2-5.5 6.2c-1.2 0-2.9-.5-3.8-1.9h-.1v6.2h-2v-16.6zm5.6 1.5c-2.6 0-3.6 2.3-3.6 4.5 0 2.4 1 4.6 3.7 4.6s3.6-2.3 3.6-4.7c0-2.2-1.1-4.4-3.7-4.4m-25.7-1.5h1.9v1.8c.9-1.3 2.2-2 3.9-2 1.4 0 2.8.5 3.3 2 .8-1.3 2.2-2 3.7-2 2.4 0 4 1 4 3.4v8.8H353v-7.8c0-1.5-.4-2.7-2.4-2.7-1.9 0-3.1 1.2-3.1 3.1v7.4h-2v-7.8c0-1.6-.5-2.7-2.2-2.7-2.4 0-3.2 2.2-3.2 3.1v7.4h-2v-12zm-8.4-.2c3.8 0 5.8 2.7 5.8 6.2s-2 6.3-5.8 6.3-5.8-2.8-5.8-6.3 2-6.2 5.8-6.2zm0 10.8c2 0 3.7-1.7 3.7-4.6 0-2.9-1.7-4.5-3.7-4.5-2.1 0-3.8 1.6-3.8 4.5s1.7 4.6 3.8 4.6m-10.2-10.1c-.5-2.4-2.4-3.6-4.7-3.6-3.9 0-5.6 3.3-5.6 6.7 0 3.8 1.7 7 5.6 7 2.9 0 4.6-2.1 4.8-4.8h2.2c-.4 4.1-3 6.6-7.2 6.6-5.1 0-7.6-3.8-7.6-8.6s2.7-8.7 7.8-8.7c3.5 0 6.3 1.8 6.9 5.4h-2.2zm-29.4 7.7c0 1.8 1.6 2.4 3.2 2.4 1.2 0 2.9-.3 2.9-1.8s-1.9-1.8-3.9-2.2c-2-.5-3.9-1.1-3.9-3.4 0-2.4 2.3-3.4 4.4-3.4 2.7 0 4.8.8 5 3.7h-2c-.2-1.5-1.5-2-2.8-2-1.2 0-2.6.3-2.6 1.5 0 1.4 2.1 1.7 4 2.1 1.9.5 3.9 1.1 3.9 3.4 0 2.9-2.7 3.8-5.1 3.8-2.7 0-5-1.1-5.1-4.1h2zm-14.4-8.2h1.8v1.9h.1c.8-1.4 2.2-2.1 3.9-2.1 3.1 0 4.1 1.8 4.1 4.3v7.9h-2v-8.1c0-1.5-.9-2.4-2.4-2.4-2.4 0-3.5 1.6-3.5 3.8v6.7h-2v-12zm-8.4-.2c3.8 0 5.8 2.7 5.8 6.2s-2 6.3-5.8 6.3-5.9-2.8-5.9-6.3 2.1-6.2 5.9-6.2zm0 10.8c2 0 3.7-1.7 3.7-4.6 0-2.9-1.7-4.5-3.7-4.5-2.1 0-3.8 1.6-3.8 4.5s1.7 4.6 3.8 4.6m-8.5-12.7h-2v-2.4h2v2.4zm-2 2.1h2v12h-2v-12zm-5 0h2.4v1.8h-2.4v7.4c0 .9.3 1.1 1.5 1.1h.9v1.7h-1.5c-2 0-2.9-.4-2.9-2.6v-7.6h-2v-1.8h2v-3.6h2v3.6zm-4.8 12c-.4.2-.8.3-1.5.3-1 0-1.6-.5-1.6-1.8-1.1 1.2-2.6 1.8-4.2 1.8-2.2 0-4-1-4-3.4 0-2.7 2-3.2 4-3.6 2.2-.5 4.1-.3 4.1-1.8 0-1.7-1.4-2-2.7-2-1.7 0-2.9.5-3 2.3h-1.9c.1-3 2.4-4 5-4 2.2 0 4.5.4 4.5 3.3v6.1c0 1 0 1.4.7 1.4.1 0 .3-.1.6-.1v1.5zm-3.2-6.2c-.8.6-2.3.6-3.6.8-1.3.3-2.4.7-2.4 2.2 0 1.3 1.1 1.8 2.3 1.8 2.6 0 3.7-1.7 3.7-2.7v-2.1zm-12.1-1.9c-.3-1.5-1.3-2.4-2.9-2.4-2.9 0-3.8 2.2-3.8 4.7 0 2.2 1 4.4 3.5 4.4 1.9 0 3.1-1.1 3.3-3h2c-.4 3-2.2 4.7-5.2 4.7-3.7 0-5.7-2.5-5.7-6.1 0-3.6 1.9-6.4 5.7-6.4 2.7 0 4.9 1.2 5.2 4.1h-2.1zm-11.4-6h-2v-2.4h2v2.4zm-2 2.1h2v12h-2v-12zm-13.3 0h1.8v1.9h.1c.8-1.4 2.2-2.1 3.9-2.1 3.1 0 4.1 1.8 4.1 4.3v7.9h-2v-8.1c0-1.5-.9-2.4-2.4-2.4-2.4 0-3.5 1.6-3.5 3.8v6.7h-2v-12zm-3.3 12h-1.8v-1.9h-.1c-.8 1.5-2.1 2.2-3.9 2.2-3.1 0-4.1-1.8-4.1-4.4v-7.9h2v8.2c0 1.4.9 2.4 2.4 2.4 2.4 0 3.6-1.6 3.6-3.8v-6.8h1.9v12zm-30-12h1.9v1.8c.9-1.3 2.3-2 3.9-2 1.5 0 2.8.5 3.3 2 .8-1.3 2.2-2 3.8-2 2.4 0 4 1 4 3.4v8.8h-2v-7.8c0-1.5-.4-2.7-2.3-2.7s-3.2 1.2-3.2 3.1v7.4h-1.9v-7.8c0-1.6-.5-2.7-2.3-2.7-2.3 0-3.2 2.2-3.2 3.1v7.4h-2v-12zm-20 0h1.8v1.8h.1c.8-1.3 2.2-2 3.8-2 1.5 0 2.8.5 3.3 2 .8-1.3 2.3-2 3.8-2 2.4 0 4 1 4 3.4v8.8h-2v-7.8c0-1.5-.4-2.7-2.3-2.7s-3.1 1.2-3.1 3.1v7.4h-2v-7.8c0-1.6-.5-2.7-2.3-2.7-2.3 0-3.2 2.2-3.2 3.1v7.4h-1.9v-12zm-8.5-.2c3.8 0 5.9 2.7 5.9 6.2s-2.1 6.3-5.9 6.3c-3.8 0-5.8-2.8-5.8-6.3s2-6.2 5.8-6.2zm0 10.8c2.1 0 3.8-1.7 3.8-4.6 0-2.9-1.7-4.5-3.8-4.5-2 0-3.7 1.6-3.7 4.5s1.7 4.6 3.7 4.6M133 112.8c-.5-2.4-2.3-3.6-4.6-3.6-4 0-5.6 3.3-5.6 6.7 0 3.8 1.6 7 5.6 7 2.9 0 4.6-2.1 4.8-4.8h2.2c-.4 4.1-3 6.6-7.2 6.6-5.1 0-7.7-3.8-7.7-8.6s2.8-8.7 7.9-8.7c3.4 0 6.3 1.8 6.8 5.4H133zm-28.2-3.2h-5.53v-1.8h13.23v1.8H107v14.7h-2.2v-14.7zm-13.61 0h-5.52v-1.8h13.25v1.8H93.4v14.7h-2.21v-14.7zm-20.81-1.8h2.34l8.73 13.4v-13.4h2.08v16.5h-2.41L72.47 111v13.3h-2.09v-16.5zm-20.21 4.5h1.86v1.9c.84-1.4 2.18-2.1 3.9-2.1 3.16 0 4.13 1.8 4.13 4.3v7.9h-1.97v-8.1c0-1.5-.93-2.4-2.44-2.4-2.39 0-3.55 1.6-3.55 3.8v6.7h-1.97v-12zm-10.49-4.5h2.44l6.47 16.5h-2.44l-1.81-5h-7l-1.86 5h-2.27l6.47-16.5zm-1.65 9.7h5.62l-2.76-7.7-2.81 7.7zM407.3 43.16c-2.8 0-5.1-2.28-5.1-5.08 0-2.8 2.3-5.08 5.1-5.08s5.1 2.28 5.1 5.08c0 2.8-2.3 5.08-5.1 5.08zm0-9.61c-2.5 0-4.5 2.03-4.5 4.53 0 2.5 2 4.53 4.5 4.53s4.5-2.03 4.5-4.53c0-2.5-2-4.53-4.5-4.53m-2.3 1.38h3c1.2 0 1.9.64 1.9 1.65 0 .76-.3 1.38-1.1 1.6.7.14.9.68.9 1.3.1.62.1 1.3.4 1.74h-.9c-.3-.26-.1-.94-.3-1.55 0-.62-.2-1.14-1-1.14h-2.1v2.69h-.8v-6.3zm2.6 2.9c.8 0 1.4-.2 1.4-1.12 0-.61-.3-1.08-1.1-1.08h-2.1v2.2h1.8zm-10.2 14.14c-1.7-1.38-3.9-2.06-6.6-2.06-2.4 0-4.3.43-5.9 1.3-1.6.86-2.8 2.02-3.8 3.44-.9 1.43-1.6 3.08-2 4.94-.4 1.86-.6 3.79-.6 5.77 0 1.85.2 3.63.6 5.37.4 1.73 1.1 3.27 2 4.63 1 1.35 2.2 2.43 3.6 3.25 1.5.81 3.3 1.23 5.3 1.23 3.2 0 5.8-.85 7.6-2.53 1.8-1.69 2.9-4.06 3.3-7.11h6.7c-.8 4.89-2.6 8.67-5.5 11.32-3 2.65-6.9 3.98-12 3.98-3 0-5.7-.49-8-1.46s-4.3-2.34-5.8-4.13c-1.6-1.78-2.8-3.92-3.5-6.39-.8-2.47-1.2-5.2-1.2-8.16 0-2.95.3-5.71 1.1-8.3.8-2.57 1.9-4.82 3.5-6.73 1.6-1.91 3.5-3.42 5.9-4.52 2.3-1.1 5-1.65 8.1-1.65 2.3 0 4.4.28 6.4.8 1.9.54 3.7 1.37 5.2 2.49 1.5 1.13 2.7 2.54 3.7 4.25s1.6 3.74 1.8 6.09h-6.7c-.5-2.5-1.6-4.44-3.2-5.82m-33.8 32.69h-6.5V45.08h6.5v39.58zm-29.4-6.63c1.5-.89 2.7-2.06 3.6-3.51.9-1.46 1.6-3.11 2-4.95.5-1.83.7-3.67.7-5.5 0-1.74-.2-3.45-.6-5.13-.4-1.69-1.1-3.21-2-4.56-.9-1.35-2-2.43-3.4-3.25-1.5-.81-3.2-1.23-5.3-1.23-2 0-3.8.4-5.3 1.2-1.5.78-2.7 1.83-3.7 3.17-.9 1.33-1.6 2.86-2 4.59-.4 1.74-.7 3.54-.7 5.44 0 1.78.2 3.57.6 5.35.3 1.79.9 3.41 1.8 4.87.9 1.45 2 2.62 3.5 3.52 1.4.89 3.2 1.33 5.3 1.33 2.1 0 4-.44 5.5-1.34zm8.3 17.81c-3 3.22-7.6 4.86-13.9 4.86-1.9 0-3.8-.2-5.7-.6-1.9-.46-3.6-1.13-5.2-2.05-1.5-.92-2.8-2.11-3.8-3.6-1.1-1.47-1.6-3.28-1.7-5.43h6.5c0 1.18.4 2.18 1.1 2.99.7.81 1.5 1.48 2.5 1.98 1 .51 2.1.89 3.3 1.12 1.1.23 2.3.34 3.3.34 2.2 0 4-.36 5.5-1.11 1.5-.74 2.7-1.75 3.7-3.06.9-1.3 1.6-2.87 2.1-4.71.4-1.83.6-3.85.6-6.04v-2.62h-.1c-1.2 2.46-2.9 4.26-5.1 5.4-2.3 1.16-4.7 1.73-7.3 1.73-2.9 0-5.5-.53-7.7-1.6-2.2-1.08-4-2.51-5.5-4.33-1.5-1.81-2.6-3.93-3.3-6.35-.8-2.43-1.2-4.98-1.2-7.7 0-2.35.3-4.75 1-7.23.6-2.47 1.6-4.73 3-6.73 1.5-2.02 3.3-3.68 5.7-4.98 2.3-1.31 5.2-1.97 8.6-1.97 2.5 0 4.8.56 6.9 1.66 2.1 1.1 3.8 2.74 4.9 4.93h.1v-5.66h6.1v36.21c0 6.48-1.4 11.33-4.4 14.55M293 65.55c-1.4.29-2.8.52-4.2.69-1.5.18-2.9.39-4.4.62-1.5.23-2.8.6-4 1.11-1.2.51-2.1 1.24-2.9 2.18-.7.95-1.1 2.24-1.1 3.87 0 1.08.2 1.97.7 2.71.4.74 1 1.35 1.7 1.81.7.45 1.5.78 2.4.99.9.2 1.9.31 2.9.31 2.1 0 4-.3 5.5-.89 1.5-.58 2.8-1.32 3.7-2.22 1-.88 1.7-1.86 2.2-2.9.4-1.04.7-2.03.7-2.95v-6.66c-.8.61-1.9 1.06-3.2 1.33zm9.1 19.95c-1.7 0-3.1-.48-4-1.42-1-.94-1.5-2.48-1.5-4.63-1.8 2.15-3.9 3.69-6.3 4.63s-4.9 1.42-7.7 1.42c-1.8 0-3.4-.19-5-.57-1.6-.39-3-1.02-4.2-1.92-1.2-.89-2.1-2.04-2.8-3.43-.7-1.41-1.1-3.12-1.1-5.1 0-2.25.4-4.09 1.2-5.51a8.97 8.97 0 0 1 3-3.49c1.3-.89 2.7-1.56 4.3-2.02 1.6-.46 3.3-.85 4.9-1.16 1.8-.35 3.5-.62 5.1-.81 1.6-.16 3-.42 4.3-.75 1.2-.33 2.2-.82 2.9-1.46.7-.64 1.1-1.57 1.1-2.79 0-1.43-.3-2.58-.9-3.45a5.45 5.45 0 0 0-2-1.99c-.9-.46-1.8-.77-2.9-.92-1-.15-2-.23-3.1-.23-2.7 0-5 .53-6.8 1.58-1.9 1.04-2.9 3.01-3 5.92h-6.5c.1-2.44.6-4.51 1.5-6.19.9-1.69 2.1-3.05 3.7-4.1 1.5-1.05 3.3-1.8 5.3-2.26 1.9-.45 4-.69 6.2-.69 1.8 0 3.6.13 5.3.38 1.8.26 3.4.78 4.8 1.58 1.5.79 2.6 1.9 3.5 3.32.8 1.43 1.3 3.29 1.3 5.58V75.4c0 1.52.1 2.65.2 3.37.2.71.8 1.07 1.8 1.07.6 0 1.3-.14 2-.39v5.05c-1.1.67-2.6 1-4.6 1m-89.6-40.42v5.82h.2c2.9-4.49 7.2-6.74 12.7-6.74 2.5 0 4.7.52 6.7 1.54 2 1.01 3.4 2.75 4.2 5.2 1.3-2.15 3.1-3.8 5.3-4.98 2.1-1.17 4.5-1.76 7.1-1.76 2 0 3.8.22 5.4.66 1.6.43 3 1.1 4.1 2.02 1.2.92 2.1 2.1 2.7 3.56.7 1.46 1 3.2 1 5.25v29.01h-6.5V58.71c0-1.23-.1-2.38-.3-3.45-.2-1.07-.6-2-1.2-2.79-.5-.79-1.3-1.42-2.3-1.88-1-.46-2.3-.69-3.9-.69-3.2 0-5.7.92-7.6 2.76-1.8 1.83-2.7 4.28-2.7 7.35v24.65h-6.5V58.71c0-1.28-.1-2.46-.4-3.53-.2-1.07-.6-2-1.2-2.78-.5-.8-1.3-1.41-2.2-1.85-1-.43-2.2-.65-3.6-.65-1.9 0-3.6.38-4.9 1.15-1.4.77-2.5 1.69-3.3 2.75-.8 1.08-1.5 2.19-1.8 3.33-.4 1.16-.6 2.12-.6 2.88v24.65h-6.5V45.08h6.1zm-13.3 0v5.74h-7.9V75.4c0 .76.1 1.37.2 1.83.1.47.4.82.7 1.07.4.25.9.42 1.5.51.6.1 1.5.11 2.5.11h3v5.74h-5c-1.7 0-3.1-.12-4.3-.35-1.2-.22-2.2-.64-2.9-1.26-.8-.61-1.3-1.48-1.7-2.6-.3-1.13-.5-2.6-.5-4.44V50.82h-6.7v-5.74h6.7V33.21h6.5v11.87h7.9zm-31.6 11.64c-.6-1.37-1.4-2.56-2.4-3.57-1-.99-2.1-1.78-3.5-2.36-1.3-.59-2.8-.89-4.5-.89-1.7 0-3.2.3-4.5.89-1.4.58-2.5 1.38-3.5 2.41-1 1.02-1.7 2.2-2.3 3.56-.6 1.35-.9 2.78-1 4.32h22.7c-.1-1.54-.4-2.98-1-4.36zm1.6 25.41c-3 2.25-6.7 3.37-11.2 3.37-3.2 0-5.9-.51-8.2-1.52-2.4-1.03-4.3-2.46-5.9-4.3-1.6-1.83-2.8-4.03-3.6-6.58-.7-2.56-1.2-5.32-1.3-8.35 0-3 .5-5.76 1.4-8.26.9-2.5 2.2-4.67 3.9-6.51 1.6-1.84 3.6-3.27 5.9-4.28 2.2-1.03 4.7-1.55 7.4-1.55 3.5 0 6.5.74 8.8 2.2 2.3 1.45 4.2 3.3 5.6 5.54 1.4 2.25 2.3 4.7 2.9 7.36.5 2.64.7 5.17.6 7.57h-29.6c-.1 1.73.2 3.38.6 4.94.5 1.55 1.2 2.94 2.2 4.13 1.1 1.21 2.4 2.16 3.9 2.87 1.6.72 3.5 1.08 5.6 1.08 2.8 0 5-.64 6.8-1.92 1.8-1.27 2.9-3.21 3.5-5.81h6.4c-.9 4.43-2.8 7.78-5.7 10.02m-64.5-37.05v6.28h.2c2.7-4.8 7-7.2 12.8-7.2 2.6 0 4.8.36 6.5 1.07 1.8.71 3.2 1.72 4.2 2.99 1.1 1.28 1.9 2.8 2.3 4.56.4 1.76.7 3.71.7 5.85v26.03h-6.6v-26.8c0-2.44-.7-4.39-2.1-5.81-1.4-1.43-3.4-2.15-5.9-2.15-2 0-3.7.31-5.2.92-1.4.61-2.6 1.48-3.6 2.61-1 1.12-1.7 2.44-2.2 3.94-.5 1.5-.7 3.16-.7 4.93v22.36h-6.51V45.08h6.11zm-19.94 11.2c-.22 0-.4 0-.59.1 2.16.44 3.55 3.72 3.55 7.47 0 3.73-1.29 7.08-3.43 7.61.2 0 .36.1.58 0 2.42 0 4.36-3.47 4.34-7.67 0-4.2-2.04-7.57-4.45-7.52m1.18-3c.35 0 .72 0 1.08.1-4 .71-6.49 5.3-6.39 10.43.1 5.16 2.52 9.7 6.54 10.33-.37.1-.72.11-1.09.11-4.49 0-8.18-4.63-8.22-10.42 0-5.79 3.57-10.51 8.08-10.54M77.52 43.1c.81 0 1.61.1 2.41.18-8.97 1.32-15.9 10.07-15.94 20.67 0 10.59 6.85 19.38 15.81 20.76-.81.12-1.6.16-2.42.16-10.06 0-18.22-9.41-18.19-20.94 0-11.53 8.26-20.86 18.33-20.83m-6.75-4.21c1.1 0 2.14.1 3.19.23-11.92 1.58-21.18 12.07-21.23 24.79 0 12.71 9.16 23.27 21.07 24.9-1.04.14-2.09.22-3.21.22-13.44 0-24.29-11.32-24.23-25.14 0-13.85 10.95-25.04 24.41-25m-9.69-3.01c1.26 0 2.47.1 3.68.24-13.73 1.77-24.35 13.51-24.4 27.74 0 14.27 10.5 26.04 24.21 27.91-1.2.15-2.41.24-3.66.24C45.45 91.95 32.95 79.35 33 63.84c.04-15.5 12.62-28.01 28.08-27.96M82.77 48.9c.59 0 1.14.1 1.67.14-6.22.97-11.05 7.3-11.07 15 0 7.72 4.76 14.08 10.98 15.07-.54.1-1.1.13-1.67.13-7.03 0-12.7-6.81-12.66-15.21 0-8.39 5.72-15.15 12.75-15.13"/></svg>