<svg xmlns="http://www.w3.org/2000/svg" viewBox="0 0 1176.93 542.602"><path d="M685.248 509.332c-4.556.218-8.287.04-8.287-.41 0-.446 5.226-10.533 11.604-22.418 6.384-11.884 11.607-22.26 11.607-23.058 0-.798-6.123-12.527-13.614-26.065-7.485-13.537-13.61-24.815-13.61-25.06 0-.247 3.774-.45 8.386-.45h8.38l9.292 17.405c5.103 9.572 9.64 17.404 10.066 17.404.427 0 4.657-7.833 9.393-17.405l8.622-17.405H743.635l-11.88 23.094c-6.53 12.7-17.795 34.542-25.046 48.53l-13.17 25.44zm256.127.27h-7.36V411.87h7.36c7.08 0 7.37.138 7.37 3.555 0 3.328.15 3.416 2.38 1.39 1.32-1.19 4.61-3.092 7.33-4.225 2.71-1.132 7.5-2.045 10.66-2.03 3.15.01 8.17 1.14 11.16 2.497 2.99 1.356 7.58 4.982 10.22 8.06 2.63 3.076 5.54 8.293 6.46 11.593.96 3.428 1.38 9.327.98 13.762-.39 4.27-1.92 10.13-3.4 13.022-1.49 2.893-4.42 6.884-6.52 8.87-2.08 1.985-6.04 4.546-8.77 5.69-2.75 1.143-7.43 2.08-10.42 2.08s-7.66-.928-10.37-2.06c-2.72-1.133-6.01-3.035-7.33-4.225-2.28-2.07-2.38-1.246-2.38 18.793v20.96zm24.77-46.882c2.58 0 6.68-1.202 9.11-2.688 2.44-1.486 5.31-4.777 6.37-7.315 1.06-2.537 1.93-6.76 1.93-9.385 0-2.624-.87-6.848-1.93-9.385-1.06-2.538-3.93-5.83-6.37-7.316-2.43-1.484-6.53-2.694-9.11-2.686-2.58 0-6.18.768-7.99 1.687-1.82.923-4.68 3.714-6.37 6.204-2.2 3.275-3.04 6.462-3.04 11.498 0 5.035.84 8.222 3.04 11.497 1.69 2.49 4.55 5.28 6.37 6.202 1.81.92 5.41 1.68 7.99 1.688zm119.465 46.612c-4.59.218-8.34.04-8.34-.41 0-.446 5.22-10.533 11.6-22.418 6.39-11.884 11.6-22.243 11.6-23.02 0-.774-6.12-12.465-13.61-25.977-7.48-13.51-13.61-24.808-13.61-25.103 0-.293 3.77-.534 8.38-.534h8.39l9.28 17.405c5.11 9.572 9.64 17.404 10.07 17.404.43 0 4.66-7.833 9.4-17.405l8.62-17.405h16.54l-11.88 23.094c-6.53 12.7-17.78 34.542-24.99 48.53l-13.11 25.44zm-549.333-32.69c-.573.65-8.313-13.354-17.2-31.116-8.888-17.763-16.16-32.602-16.16-32.976 0-.373 3.643-.68 8.093-.68h8.09l8.35 17.636 8.35 17.638 8.578-20.238c4.72-11.13 8.923-20.025 9.342-19.766.42.26 4.345 8.96 8.724 19.335 4.378 10.376 8.34 18.865 8.802 18.865.464 0 4.345-7.53 8.626-16.735l7.785-16.735h17.003l-16.384 32.8c-9.012 18.04-16.704 32.8-17.095 32.8-.39 0-4.282-8.173-8.65-18.16-4.368-9.99-8.307-18.39-8.754-18.667-.447-.275-4.334 7.446-8.635 17.16-4.302 9.713-8.29 18.19-8.863 18.84zm-471.636-.854c-5.98.315-9.69-.26-13.66-2.116-2.998-1.402-7.383-4.886-9.745-7.743-2.362-2.856-5.18-8.165-6.265-11.796-1.083-3.632-1.97-8.88-1.97-11.664 0-2.785 1.23-8.352 2.735-12.372 1.698-4.536 4.68-9.065 7.858-11.938 2.818-2.545 7.378-5.372 10.134-6.282 2.756-.91 8.22-1.386 12.143-1.062 4.757.394 8.944 1.79 12.57 4.19l5.435 3.596v-3.366c0-3.187.39-3.366 7.364-3.366h7.36v62.924h-7.36c-6.975 0-7.365-.178-7.365-3.366v-3.366l-5.51 3.647c-4.173 2.76-7.508 3.75-13.724 4.078zm1.562-13.074c2.43.01 6.222-.903 8.427-2.044 2.204-1.14 5.184-4 6.62-6.358 1.674-2.743 2.615-6.697 2.615-10.98s-.94-8.238-2.614-10.98c-1.436-2.357-4.416-5.22-6.62-6.36-2.206-1.14-6.404-2.073-9.33-2.073-3.826 0-6.525 1.014-9.62 3.618-2.365 1.99-5.122 5.587-6.127 7.99-1.004 2.404-1.826 6.007-1.826 8.007s1.228 6.174 2.728 9.273c1.686 3.482 4.37 6.444 7.03 7.756 2.364 1.166 6.287 2.134 8.717 2.15zm119.13 13.366c-3.153-.03-7.824-.96-10.38-2.067-2.555-1.11-5.717-2.986-7.028-4.172-2.227-2.015-2.383-1.924-2.383 1.4 0 3.416-.285 3.554-7.362 3.554h-7.363V359.658h14.726v29.66c0 28.396.11 29.57 2.394 27.496 1.314-1.19 4.61-3.09 7.32-4.224 2.71-1.132 7.51-2.045 10.66-2.03 3.154.01 8.177 1.14 11.164 2.497 2.987 1.356 7.584 4.982 10.218 8.06 2.632 3.076 5.542 8.293 6.466 11.593.962 3.428 1.38 9.327.978 13.762-.39 4.27-1.922 10.13-3.408 13.022-1.487 2.893-4.416 6.884-6.508 8.87-2.092 1.985-6.044 4.546-8.782 5.69-2.738 1.143-7.558 2.054-10.71 2.026zm-2.386-13.36c2.577 0 6.68-1.202 9.117-2.688 2.438-1.486 5.3-4.777 6.36-7.315 1.06-2.537 1.927-6.76 1.927-9.385 0-2.624-.867-6.848-1.928-9.385-1.06-2.538-3.92-5.83-6.36-7.316-2.436-1.484-6.418-2.702-8.848-2.706-2.43 0-6.222.928-8.427 2.07-2.205 1.138-5.185 4-6.62 6.36-1.69 2.766-2.618 6.703-2.62 11.115 0 4.898.858 8.11 3.047 11.36 1.68 2.49 4.54 5.28 6.36 6.202 1.82.92 5.414 1.68 7.992 1.688zm70.287 13.295c-3.682 0-9.02-.83-11.866-1.844-2.844-1.013-6.966-3.547-9.16-5.63-2.193-2.083-5.28-6.197-6.863-9.142-2.257-4.203-2.874-7.66-2.873-16.068 0-9.502.472-11.54 4.158-18.073 3.295-5.842 5.643-8.15 11.362-11.172 6.468-3.42 8.204-3.75 16.877-3.217 7.52.463 10.837 1.37 14.93 4.077 3.456 2.287 6.44 5.92 8.688 10.58 1.885 3.904 3.83 10.258 4.32 14.125l.896 7.03h-23.6c-12.982 0-23.602.32-23.602.71 0 .393.867 2.79 1.928 5.327 1.06 2.538 3.92 5.83 6.36 7.315 2.436 1.486 6.418 2.704 8.848 2.707 2.43 0 6.132-.882 8.228-1.966 2.096-1.085 5.026-3.64 6.512-5.678l2.7-3.708 6.175 3 6.175 3-2.042 3.948c-1.122 2.172-4.148 5.556-6.725 7.52-2.576 1.965-6.945 4.38-9.708 5.366-2.763.987-8.035 1.793-11.717 1.793zm-.717-41.386c9.66 0 14.774-.5 14.774-1.442 0-.793-1.76-3.202-3.913-5.355-3.15-3.15-5.073-3.914-9.86-3.914-3.994 0-7.11.912-9.484 2.782-1.945 1.53-4.156 3.938-4.914 5.354-1.32 2.467-.764 2.573 13.396 2.573zm136.128 41.074c-6.73.345-10.953-.135-14.25-1.623-2.577-1.16-6.4-3.735-8.49-5.72-2.092-1.984-5.095-6.017-6.67-8.962-2.236-4.178-2.873-7.712-2.892-16.066-.01-9.543.432-11.512 4.148-18.074 3.305-5.833 5.67-8.156 11.38-11.173 6.467-3.42 8.203-3.75 16.877-3.217 7.52.463 10.836 1.37 14.93 4.077 3.455 2.287 6.44 5.92 8.687 10.58 1.886 3.904 3.83 10.258 4.32 14.125l.897 7.03h-23.6c-12.982 0-23.603.32-23.603.71 0 .393.868 2.79 1.928 5.327 1.06 2.538 3.92 5.83 6.36 7.315 2.436 1.486 6.42 2.704 8.85 2.707 2.427 0 6.13-.882 8.227-1.966 2.095-1.085 5.01-3.617 6.474-5.627l2.665-3.658 5.573 2.512c3.066 1.383 5.896 3.038 6.292 3.678.397.64-.858 3.233-2.787 5.762-1.93 2.53-6.262 6.212-9.63 8.185-4.71 2.762-8.32 3.7-15.684 4.077zm-2.248-41.075c9.66 0 14.774-.5 14.774-1.442 0-.793-1.76-3.202-3.913-5.355-3.15-3.15-5.074-3.914-9.86-3.914-3.995 0-7.11.912-9.484 2.782-1.945 1.53-4.157 3.938-4.914 5.354-1.322 2.467-.765 2.573 13.396 2.573zm249.91 41.158c-5.98.315-9.69-.26-13.66-2.116-2.998-1.402-7.387-4.886-9.753-7.743-2.367-2.856-5.26-8.462-6.427-12.457-1.353-4.62-1.864-9.796-1.407-14.22.394-3.828 1.937-9.352 3.43-12.277 1.49-2.926 4.805-7.156 7.362-9.4 2.56-2.247 6.878-4.818 9.6-5.718 2.724-.898 8.162-1.366 12.085-1.042 4.756.394 8.943 1.79 12.568 4.19l5.436 3.596v-3.366c0-3.187.39-3.366 7.364-3.366h7.364v62.924h-7.364c-6.973 0-7.363-.178-7.363-3.366v-3.366l-5.51 3.647c-4.173 2.76-7.508 3.75-13.724 4.078zm1.562-13.074c2.43.01 6.222-.903 8.427-2.044 2.205-1.14 5.185-4 6.622-6.358 1.672-2.743 2.614-6.697 2.614-10.98s-.94-8.238-2.613-10.98c-1.437-2.357-4.417-5.22-6.622-6.36-2.205-1.14-6.403-2.073-9.33-2.073-3.825 0-6.524 1.014-9.618 3.618-2.366 1.99-5.124 5.587-6.128 7.99-1.005 2.404-1.826 6.007-1.826 8.007s1.227 6.174 2.728 9.273c1.685 3.482 4.37 6.444 7.03 7.756 2.363 1.166 6.287 2.134 8.716 2.15zm213.147 13.39c-4.93 0-9.61-1.043-14.14-3.15-3.72-1.733-8.9-5.64-11.5-8.678-2.6-3.04-5.43-7.862-6.29-10.713-.85-2.853-1.54-7.527-1.54-10.387 0-2.86.66-7.55 1.46-10.427.92-3.323 3.97-7.734 8.36-12.096 4.36-4.335 8.94-7.467 12.42-8.495 3.03-.897 8.45-1.623 12.05-1.615 4.03 0 9.13 1.22 13.3 3.165 3.73 1.732 8.9 5.64 11.51 8.678 2.6 3.04 5.43 7.86 6.28 10.713.85 2.854 1.55 7.458 1.55 10.232 0 2.774-.7 7.378-1.55 10.23-.85 2.852-3.68 7.674-6.28 10.714-2.61 3.04-7.78 6.945-11.51 8.678-4.53 2.107-9.21 3.15-14.12 3.15zm2.67-14.28c1.84-.405 5.16-1.74 7.36-2.966 2.21-1.226 5.11-4.318 6.44-6.87 1.64-3.167 2.22-6.494 1.82-10.482-.33-3.215-1.78-7.432-3.23-9.372-1.44-1.94-5.43-4.695-8.85-6.12-6.15-2.565-6.28-2.565-12.55.03-3.91 1.62-7.49 4.348-9.37 7.14-1.7 2.53-3.04 6.548-3.04 9.137 0 2.542.96 6.643 2.13 9.113 1.17 2.47 2.97 5.19 4.01 6.046 1.02.853 4.13 2.346 6.9 3.317 2.77.97 6.54 1.43 8.38 1.025zm181.115 14.307c-3.81 0-8.7-1.14-12.12-2.83-3.14-1.56-7.53-5.023-9.74-7.7-2.21-2.675-4.92-7.835-6-11.466-1.08-3.632-1.96-8.88-1.96-11.664 0-2.785 1.24-8.384 2.76-12.443 1.85-4.97 4.54-8.91 8.22-12.06 3.01-2.573 7.55-5.37 10.11-6.21 2.55-.842 7.85-1.265 11.77-.94 4.76.393 8.94 1.79 12.57 4.188l5.44 3.597v-3.366c0-3.187.39-3.366 7.36-3.366h7.35v62.924h-7.35c-7.07 0-7.36-.138-7.36-3.555 0-3.33-.15-3.418-2.4-1.39-1.31 1.19-4.61 3.09-7.31 4.223-2.71 1.133-7.82 2.06-11.34 2.058zm2.7-13.422c2.81.01 6.9-.897 9.1-2.038 2.2-1.14 5.19-4 6.62-6.358 1.68-2.743 2.61-6.697 2.61-10.98s-.94-8.238-2.61-10.98c-1.44-2.357-4.43-5.22-6.62-6.36-2.2-1.14-6.4-2.073-9.33-2.073-3.82 0-6.52 1.014-9.62 3.618-2.36 1.99-5.12 5.587-6.12 7.99-1.01 2.404-1.83 6.007-1.83 8.007s1.19 6.086 2.63 9.08c1.45 2.993 4.32 6.482 6.37 7.75 2.04 1.27 6.01 2.325 8.8 2.343zm-736.07 12.086h-7.364v-49.536h-3.347c-3.125 0-3.348-.446-3.348-6.694s.223-6.694 3.347-6.694c3.307 0 3.346-.134 3.346-11.38v-11.38h14.726v22.76h18.743v-22.76h14.726v22.76h12.049v13.388h-12.049v49.536h-14.728v-49.536H308.794v49.536zm132.54 0h-7.364V411.87h7.364c6.433 0 7.363.333 7.363 2.638 0 2.5.252 2.466 4.874-.67 3.134-2.127 6.746-3.306 10.128-3.306 2.892 0 6.572.683 8.18 1.52 1.61.836 3.164 1.728 3.46 1.983.292.256-.913 3.212-2.68 6.57-2.63 5-3.695 5.94-5.888 5.202-1.473-.496-4.343-.91-6.377-.917-2.034 0-4.893 1.066-6.352 2.386-1.458 1.32-3.255 4.57-3.99 7.22-.737 2.65-1.343 12.802-1.347 22.56v17.738h-7.362zm364.155 0h-7.36v-49.536h-3.35c-3.12 0-3.35-.446-3.35-6.694s.23-6.694 3.35-6.694c3.31 0 3.35-.134 3.35-11.38v-11.38h14.72v22.76h12.05v13.388h-12.05v49.536zM63.37 312.8c-16.396 0-18.28-.253-21.65-2.903-2.028-1.596-4.53-4.89-5.546-7.32V45.397c0-7.562 4.255-11.466 12.295-11.466 5.035-.24 62.137-.27 62.137-.27l148.786 188.754V40.194c.895-1.56 3.18-3.82 5.71-5.02 4.22-2.002 36.843-2.182 394.656-2.174 335.375.01 391.89.282 403.05 1.965 7.14 1.077 17.82 3.822 23.73 6.102 5.91 2.28 14.34 6.79 18.74 10.022 4.38 3.232 10.52 9.067 13.61 12.967 3.1 3.9 7.08 10.33 8.84 14.29 1.77 3.96 4.11 11.145 5.24 15.967 1.11 4.82 2.14 13.728 2.28 19.793.22 9.335-.19 11.61-2.55 14.827-1.54 2.088-4.85 4.517-7.36 5.397-2.51.878-10.89 1.598-18.62 1.598s-16.11-.72-18.62-1.597c-2.5-.88-5.71-3.16-7.13-5.068-1.48-1.994-3.03-7.16-3.65-12.142-.59-4.77-2.03-10.526-3.2-12.792-1.26-2.43-4.49-5.262-7.86-6.895-3.15-1.526-9.94-3.383-15.1-4.127-5.38-.778-39.59-1.357-80.335-1.36-55.19 0-72.67.4-78.69 1.817-4.27 1.002-8.91 2.868-10.32 4.146-1.41 1.275-3.23 5.528-4.05 9.448-.81 3.92-1.06 9.318-.56 11.995.5 2.677 2.34 6.565 4.08 8.64 1.75 2.077 5.74 4.827 8.88 6.112 3.13 1.287 9.3 3.203 13.73 4.26 6.07 1.453 25.45 2.208 79.66 3.102 69.695 1.15 72.025 1.274 86.355 4.57 9.04 2.08 19.03 5.507 25.88 8.884 7.68 3.787 13.81 8.103 19.7 13.876 5.99 5.872 9.94 11.307 13.23 18.153 2.58 5.375 5.69 14.3 6.92 19.835 1.74 7.83 2.07 13.797 1.46 26.912-.44 9.267-1.77 20.463-2.98 24.882-1.21 4.417-4.34 12.117-6.95 17.113-9.82 17.176-27.19 36.437-42.48 36.437l-89.735.41c-61.82.282-93.02-.07-100.31-1.107-5.82-.836-14.86-3.047-20.08-4.916-5.22-1.87-13.52-6.056-18.43-9.304-4.92-3.246-11.97-9.217-15.67-13.267-3.7-4.05-8.55-11.113-10.78-15.696-2.23-4.583-4.93-11.748-5.99-15.922-1.07-4.175-2.32-12.308-2.78-18.074-.71-8.64-.43-11.307 1.56-15.17 1.36-2.62 4.49-5.718 7.11-7.026 3.63-1.814 8.1-2.34 19.79-2.343 10.01 0 16.64.637 19.65 1.894 2.49 1.043 5.49 3.352 6.65 5.133 1.17 1.78 2.68 7.652 3.36 13.05.74 5.924 2.24 11.183 3.79 13.274 1.41 1.904 6.12 4.97 10.47 6.81l7.91 3.346 75.54.398c49.935.264 77.795-.08 82.195-1.03 3.66-.784 8.63-2.365 11.05-3.513 2.62-1.243 5.35-4.07 6.76-7.002 1.53-3.186 2.39-8.216 2.45-14.29.1-7.084-.58-10.49-2.62-13.96-1.56-2.66-5.22-5.872-8.7-7.637-3.3-1.678-9.02-3.8-12.7-4.714-4.8-1.193-25.78-1.754-74.085-1.98-53.99-.25-70.34-.746-82.24-2.492-8.17-1.198-20.32-3.936-27-6.085-6.68-2.15-15.88-6.357-20.44-9.35-4.56-2.99-11.13-8.576-14.59-12.41-3.46-3.835-8-10.56-10.08-14.947-2.09-4.386-4.79-12.468-6.01-17.96-1.71-7.646-2.06-14.007-1.53-27.168l.7-17.183H702.4s-.268 209.5-2.03 212.91c-1.12 2.16-3.8 4.842-5.956 5.96-2.935 1.516-8.44 2.03-21.774 2.03-14 0-18.485-.45-20.825-2.09-1.64-1.15-3.884-3.83-4.985-5.958-1.724-3.335-2-212.853-2-212.853H315.486v52.212h199.286l2.774 3.527c2.556 3.25 2.776 5.293 2.776 25.91 0 21.905-.07 22.46-3.283 25.926l-3.284 3.543H315.486V253.892h206.298l3.284 3.287c3.238 3.235 3.287 3.634 3.287 26.54 0 22.58-.09 23.343-3.098 26.17l-3.1 2.91H257.503l-4.45-3.393C250.608 307.54 92.39 104.88 92.39 104.88V305.76c0 10.34-21.873 7.03-29.02 7.042z"/></svg>