<svg xmlns="http://www.w3.org/2000/svg" viewBox="0 0 250 62.629524"><path d="M155.9 35.22c-1 0-1-.7 0-1.4 2-1.5 3-1.9 3-2 1 0-1 3.4-3 3.4zm68-7.4c0-.1 0-.2-1-.2v-.1c-1-.7-2-.4-2-.4s0 .4-1 1.3v.2c-4 3.1-9 5.6-14 6.7 2-1.1 6-4.9 3-7-2-1.2-5-.7-8 .7 1-.5 2-1.6 1-2.9 0-1.4-3-1.7-4-1.2 0 1.3 0 2.1-1 2.4-6 5.4-14 8.3-15 7.7 0-.6 2-2.7 2-3.6 1-.7 1-1.5 1-2.2-1-1-2-1.1-4-.6-3 .4-5-.5-6-3-1-1.2-3-.9-4-.3v2.4c-1 3.8-6 3.8-8 2.5-1-.8-1-2.3-3-2.5-4-.6-6 2-6 2.8-2 1.8-12 6.4-15 4.4-2-1.5 0-6.8 3-12.1 6-8.1 8-8 9-7.1 0 .5 1 1.6 0 3.5 0 .2-1 .3-1 .4-1 2.9-2 2.8-2 2.8-1 1.7 0 2.7 1 3.1 0 .6 1 .4 1 .3 1-.3 2-1.1 2-1.8 3-3.8 4-9.9 0-12.1-3-1.6-8 .5-13 9.3-5 7.7-6 13.8-3 16.7 5 3.5 13-1.1 16-2.5 0 .6 0 3.5 3 3.4 4-.2 6-3.5 7-5.1 2 .8 8 2.1 12-3.7 1 .3 3 2 6 2-1 2-3 4.4 0 6.1 2 2.3 12-3.3 15-5-1 3-4 9.8-7 15.9-1 2.5-3 5.8-1 6.7 1 .7 3 0 4-1.8 0-2.4 2-8.9 4-12.4 3-6.8 6-10.3 10-10.3 0 .5 0 1-2 2.5-1 1.7-3 1.6-3 3.4 0 1 1 1.3 1 1.4 3 .7 9-1.3 12-2.3 3-1.1 7-3.1 10-5.1 2-.9 2-2.3 1-3.3zm-105-6.8c-2 .2-5 1-7 3.6-1 2.2 0 4.4 2 7 1 1.5 3 2.9 3 3.2-1 .2-3 .1-5-.2 0-.1-1-.2-1-.3-2-.4-2-.9-2-.9v.2-.2c-1 .2-1 .7-2 1.3 0 .6-1 1.7 0 2.3 0 .4 1 .7 2 .7 2 .1 7 .8 9 1.1 2 .1 3-1 3-1.7 1-1 0-2 0-2.6-3-2.9-6-6.1-5-8.8 0-1.2 3-1 4-.7 2 .6 3-.1 4-1.5 0-.8-1-2.8-5-2.5zm-52.01 3.4c0 .3 0 1.1-1 1.6-2 1.2-4 1.9-5 2.4 1-3 6-4.7 6-4zm43.01 6.4c1-.5 2-1.7 1-2.7-1-.9-3-.9-3-.4-1 .3-2 .9-4 1.1-2 .1-2-.8-4.01-.8-1 0-2 1-3 3.1-1 1.1-3 3.5-4 3.5s-1-2.1-1-4.9c0-1.3-1-2.4-2-2.3-1 .1-2 1.7-2 2.4l-4 4.4c-1 0-2-2.1-2-3.7 0 0 1-2.5-2-3-1-.2-2 .4-2 .4v.6c0 1-2 2.6-2 2.6-2 1.5-6 4.3-10 4.5-5 .2-6-2.1-6-3.2 4-1.4 7-3 8-4.3 2-1.4 3-2.9 3-4.4 0-2-2-2.8-3-2.8-3 0-8 1.4-11 8.3-1 .1-2 .1-2 0-1-.3-1-.7-1-.7-1 .2-2 .7-2 1.4 0 1.2 0 2.2 1 2.7 1 .4 2 .7 4 .5 0 2.1 1 5.9 9 5.6 5-.2 12-5.1 13-5.4 0 1.2 1 5.5 4 5.5s6-4.5 6-4.5 0 4.5 3 4.5 6-3.9 7-4.8c1-.8 2.01-2.3 3.01-2.3 0-.1 2 .8 5 0 0 0 2-.4 3-.9zM61.89 9.123v-1.9c-2-1.1-3-.5-4 .6-1 1.3-3 4.097-3 5.097-6 9.6-11 19.8-11 19.8s-1-4.8-2-8.6v-8.6c0-.6 0-1.7-2-2.1 0-.2-2-.4-3 0v3c-1 1.3-4 7.3-4 8.2-3 4.7-6 10.6-7 10.9 0 1.4-1 3.2 0 3.8 2 .6 4 .3 4-.8 0-.2 1-.6 1-.6s-1-.4 0-2.9c0-.6 1-1.4 1-2.2 0-.2 0-.3 1-.5v-.6c2-3.4 4-7.8 6-11.7v7.1c1 3.9 2 5.6 2 8.8 0 2.1 0 2.5 2 2.9 1 .4 2 0 3-1.3 2-5.3 8-17.5 13-24.1 1-.7 3-2.7 3-4.297"/></svg>