<svg xmlns="http://www.w3.org/2000/svg" viewBox="0 0 600 200"><path d="M493.9 72.485c.168-3.07.384-5.77.437-8.473.025-1.28.296-1.858 1.747-1.85 9.37.058 18.743.05 28.114.006 1.316-.006 2.012.314 1.812 1.742-.033.238-.003.484-.002.727.134 30.778.242 61.557.457 92.335.016 2.27-.634 2.782-2.802 2.75-8.48-.124-16.966-.12-25.447 0-1.98.028-2.456-.592-2.36-2.442.15-2.8.04-5.615.04-8.592-.385.157-.643.18-.76.323-6.828 8.233-15.782 12.162-26.253 13.22-12.104 1.22-22.83-1.887-32.015-9.914-8.115-7.093-12.916-16.2-15.393-26.546-3.945-16.483-2.57-32.327 6.534-46.985 6.103-9.828 14.734-16.884 26.198-18.676 13.587-2.125 26.567.08 37.145 10.075.742.698 1.512 1.366 2.546 2.3zm-42.66 33.385a16.155 16.155 0 0 0 .003 8.23c.35 1.816.518 3.69 1.077 5.438 2.89 9.036 7.457 16.455 17.868 18.14 10.36 1.68 18.955-2.934 22.603-12.686 3.45-9.222 3.31-18.572-.044-27.877-5.874-16.3-25.54-16.512-34.628-6.655-4.045 4.388-5.993 9.646-6.878 15.41zM278.845 118.946c-10.743 0-21.486-.01-32.23.004-4.716.006-4.68.023-3.757 4.56 1.713 8.41 6.134 14.383 14.687 16.875 8.713 2.54 20.363-.34 24.593-8.607.517-1.01 1.293-1.22 2.363-1.216 8.805.037 17.61.07 26.414-.017 1.97-.02 1.833.644 1.34 2.12-4.397 13.17-13.362 21.937-26.27 26.483-15.69 5.528-31.498 5.368-46.938-.99-12.955-5.334-21.72-14.89-25.87-28.316-5.154-16.67-4.208-32.793 5.61-47.7 8.21-12.47 20.14-19.667 34.608-22.208 10.074-1.77 20.258-1.182 29.993 2.562 16.254 6.253 25.023 18.826 29.253 35.092 1.652 6.35 1.985 12.873 2.005 19.423.005 1.705-.644 1.955-2.117 1.948-11.228-.05-22.456-.027-33.683-.027v.016zm3.27-18.41c.582-.288.47-.642.1-1.02-.126-2.445-.95-4.698-1.873-6.93-5.69-13.738-23.04-14.933-31.55-5.658-3.563 3.882-5.335 8.512-6.393 13.527.527.93 1.43.57 2.176.57 11.776.024 23.552.023 35.328.002.755 0 1.64.336 2.225-.505l-.014.013zM116.387 61.736c2.746.008 5.496.094 8.238-.006 1.47-.054 1.97.367 1.926 1.89-.106 3.67-.033 7.347.22 11.12 2.888-3.128 5.693-6.19 9.098-8.595 7.815-5.522 16.535-7.636 26.034-6.987 4.868.333 9.575 1.27 14.014 3.274 9.868 4.458 14.617 12.668 16.547 22.894.528 2.797.466 5.622.485 8.446.148 21.24.28 42.483.5 63.724.02 2.02-.322 2.758-2.587 2.72-9.124-.155-18.254-.124-27.38-.018-1.977.023-2.57-.454-2.56-2.503.076-17.932.033-35.864.026-53.796 0-2.83-.12-5.64-.902-8.39-1.812-6.358-6.053-9.59-12.642-10.02-13.317-.872-19.587 8.308-19.784 19.79-.3 17.363-.147 34.733-.088 52.1.007 2.104-.38 2.876-2.712 2.834-9.77-.172-19.543-.114-29.315-.14-.002-25.093.03-50.186-.064-75.278-.01-2.342.768-2.82 2.886-2.765 2.137.055 4.337.5 6.445-.317a.734.734 0 0 1 .328-.056c.156.037.312.07.47.098.02.146.056.288.107.426 0 2.638.066 5.28-.033 7.913-.052 1.396.455 1.78 1.786 1.735 2.794-.097 5.593-.054 8.39-.07.903-3.215.834-6.434.034-9.656l.01.012c-.578-.83-1.45-.485-2.198-.5-2.628-.06-5.257-.058-7.886-.078l-.104-9.603.01-.01c3.422-.15 6.873.5 10.27-.364.885-3.24.13-6.555.433-9.824zM419.07 160.153c-11.718 0-22.945-.027-34.172.034-1.408.008-1.746-.935-2.263-1.788-4.812-7.93-9.588-15.878-14.412-23.8-1.647-2.702-1.703-2.675-3.315.154-4.39 7.707-8.805 15.4-13.136 23.14-.758 1.356-1.596 1.885-3.2 1.886-9.61.003-19.223.152-28.834.224-1.35.01-2.732.097-4.264-.553 2.728-4.174 5.4-8.282 8.09-12.378 7.97-12.14 15.916-24.295 23.956-36.388 1.012-1.522.984-2.588-.01-4.073-9.43-14.076-18.795-28.196-28.16-42.316-.47-.706-1.176-1.316-1.234-2.3.87-.448 1.76-.216 2.61-.207 10.257.112 20.514.283 30.772.35 1.484.01 2.28.494 3.027 1.78 3.607 6.204 7.305 12.357 11.038 18.487 1.635 2.685 1.724 2.648 3.267.042A7208.16 7208.16 0 0 0 379.775 63.9c.583-.99 1.097-1.766 2.535-1.768 9.692-.013 19.384-.143 29.077-.23.484-.005.97.03 1.453.04 1.54.035 1.754.524.864 1.85-4.72 7.033-9.358 14.12-14.04 21.18-4.68 7.06-9.338 14.135-14.1 21.14-.95 1.394-1.012 2.343-.037 3.79 10.686 15.855 21.292 31.764 31.916 47.66.48.718.92 1.462 1.627 2.59zM100.317 22.004c5.35 0 5.35 0 5.35 5.37 0 4.876 0 4.876-5.01 4.63-5.252-.256-5.252-.256-5.486-5.498-.2-4.503-.2-4.503 4.182-4.503h.965zm5.35 39.736c.034-2.56.088-5.117.098-7.676.006-1.548.625-2.398 2.284-2.318 2.234.11 4.47.212 6.708.233 1.236.01 1.2.75 1.12 1.6-.01 1.93-.16 3.875.015 5.79.184 2.02-.657 2.464-2.48 2.378-2.57-.122-5.15-.003-7.727.012l-.02-.02zm-20.85-10.217c.008-2.665.07-5.332-.003-7.995-.034-1.257.36-1.71 1.646-1.666 2.5.085 5.007.047 7.51.015.954-.012 1.54.192 1.483 1.325-.14 2.805-.14 5.62-.7 8.388l-9.935-.067zm10.72 10.312l10.128-.095.02.02-.01.542c0 3.023-.003 6.046-.005 9.07l.01.553-.01.01c-.19-.01-.38-.02-.57-.032a.92.92 0 0 1-.37-.056c-2.256-.8-4.596-.37-6.88-.313-1.972.05-2.5-.644-2.39-2.49.148-2.395.063-4.805.077-7.21zm-.568 19.81c-2.742-.006-5.485-.082-8.222.01-1.424.048-2.05-.29-1.943-1.856a45.287 45.287 0 0 0 0-6.043c-.105-1.566.52-1.904 1.943-1.856 2.737.093 5.48.016 8.222.01v9.736zm-10.135-29.53c-.005 2.642-.082 5.287.013 7.926.05 1.408-.473 1.784-1.8 1.734-2.797-.104-5.6-.077-8.402-.103 0-2.418.093-4.842-.036-7.254-.092-1.728.333-2.504 2.246-2.383 2.65.167 5.318.067 7.98.08zm-20.768-.538c-.026-2.745-.03-5.49-.088-8.233-.02-.966.202-1.528 1.328-1.462 2.963.175 5.95.038 8.87.728-.008 2.174-.123 4.356.006 6.523.11 1.832-.37 2.63-2.384 2.49-2.566-.177-5.154-.045-7.733-.046z"/></svg>