<svg xmlns="http://www.w3.org/2000/svg" viewBox="-341 196.9 595.3 248.1"><path class="st0" d="M-214.2 358.4l-1.7-.3-1-.3-1-.7-.7-1-.3-1-.3-1v-1.3l.7-1.7 13.2-33.1.7-1.3 1-1.3 2.7-2.3 1.3-1 1.3-.7 1.7-.3h1.3l78.1-.3-4.3 10.6H-196l-3 7.9h63.6l-4 9.9H-190l-9.9-7.9-6.6 16.6h74.2l-4.3 10.6h-77.6v-.1zM-67.2 358.4l-17.2-17.2-6.6-6.6-23.5-23.8H-96l16.9 17.2 6.6 6.6 23.5 23.8h-18.2z"/><path class="st0" d="M42.1 354.1l-1.3 1-1.3 1-1.3 1-1.3.7-1.7.3-1.3.3h-101l4.3-10.6h97.3l3.6-8.9h-68.9l-1-.3-1-.7-.7-1-.3-1-.3-1.3v-1.3l.7-1.3 5.6-14.2.7-1.3 1-1.3 1.3-1.3 1-1 1.7-1 1.3-.7 1.7-.3H60l-4.3 10.6h-74.2l-3 6.9h67.2l1.3.3 1.3.3 1 .7.7 1 .3 1 .3 1-.3 1.3-.3 1.7-6.3 15.6-.7 1.3-.9 1.5zM101.3 337.2L93 358.4H81.7l8.3-21.2-25.8-26.5h18.2l16.9 17.2 31.1-17.2h18.2l-47.3 26.5zM215.8 354.1l-1 1-1.3 1-1.7 1-1.3.7-1.3.3-1.7.3h-77.8l4.3-10.6h74.2l3.6-8.9h-68.5l-1.3-.3-1-.7-.7-1-.3-1-.3-1.3.3-1.3.3-1.3 5.6-14.2.7-1.3 1-1.3 1.3-1.3 1.3-1 1.3-1 1.3-.7 1.7-.3h79.1l-4.3 10.6h-74.2l-3 6.9h67.5l1.3.3 1 .3 1 .7.7 1 .3 1 .3 1v1.3l-.7 1.7-6.3 15.6-.7 1.3-.7 1.5zM-226.4 356.1l-2 1.3-1.7.7-2 .3h-1.7l-2-.3-1.7-1-53.1-33.1-14.9 34.4h-11.3l17.9-41.4 1-2.3 1.6-1.7 1.7-1.3 2-.7 1.7-.3h2l1.6.7 1.7.7 53.6 33.1 14.6-34.4h11.3l-17.5 41.1-1.3 2.6-1.5 1.6zM-232.7 343.8z"/><path class="st1" d="M-232.7 343.8"/><path class="st0" d="M-209.8 310.7h-10.3l-14.6 34.1 6.3 3.3 18.6-37.4zM-312.8 358.4h10.3l14.5-34.1-6.3-3.3-18.5 37.4zM92.6 290L82 287.7l-8-1.4-6.5-.9 2.3.6 2 .6 2.2 1.1.9.9.9.8.5.9.3 1.1-.3 1.2-.3 1.4-.8 1.4-1.5 1.7v.3l.3.3h2l3.5-.6 3.7-.8 7.1-2 3.4-1.2.9-.3 1.1-.5v-.6l-.2-.6-.9-.6-2-.5z"/><path class="st0" d="M93.5 292.8l-14.3-.3-13.4.3-12.9.6-12.3.9-11.7 1.4-10.9 1.4-10.3 1.7-10 2-9.1 2.3-8.6 2.6-8 2.6-7.7 2.6-6.9 2.9-6.6 2.9-6 2.9-5.7 3.1-5.1 2.9-4.6 3.1-4.3 2.9-3.7 2.9-6.6 5.4-5.1 5.1-3.7 4-2.3 3.4-2 2.6h-21.4l2.3-2.9 3.1-3.4 4.6-4.3 6-5.1 7.4-6 4.6-2.9 4.9-3.1 5.1-3.1 5.7-3.1 6.3-3.1 6.6-3.1 7.4-2.9 7.4-3.1 8.3-2.9 8.9-2.6 9.1-2.6 9.7-2.3 10.6-2 10.9-1.7 11.4-1.7 12.3-1.1 12.6-1.1 13.4-.6h14l14.6.3 6 2.2z"/></svg>