<svg xmlns="http://www.w3.org/2000/svg" viewBox="5 0.417 234 70.92"><path d="M33.9 22.5h-6.1c-.7 0-.8.2-.8.8v25.2c0 .7.1.9.8.9h5.3c.7 0 .8-.2.8-.9V28.8S42.6 42.4 45.5 47c1.5 2.3 1.8 2.4 6 2.4h7.2c.7 0 .8-.2.8-.9V23.3c0-.6-.1-.8-.8-.8h-5.3c-.7 0-.8.2-.8.8v20.1S42 26.9 40.6 24.8c-1.6-2.5-2.1-2.3-6.7-2.3zm157.4 0h-6.1c-.7 0-.8.2-.8.8v25.2c0 .7.1.9.8.9h5.3c.7 0 .8-.2.8-.9V28.8S200 42.4 203 47c1.4 2.3 1.7 2.4 6 2.4h7.1c.7 0 .8-.2.8-.9V23.3c0-.6-.1-.8-.8-.8h-5.3c-.7 0-.8.2-.8.8v20.1s-10.6-16.5-12-18.6c-1.5-2.5-2.1-2.3-6.7-2.3zm-124.6 0c-.6 0-.7.2-.7.7v25.3c0 .7.1.9.9.9H73c.7 0 .8-.2.8-.9V23.2c0-.5-.2-.7-.7-.7h-6.4zm22.1 0c-4.9 0-7.7 1.8-8.5 5.6-.1.8-.2 1.8-.2 2.6s.1 1.7.1 2.4c.3 2.2 1.7 4.7 7.4 5.3 4.6.4 11.1 1 13.3 1.2 1 .1 1.2.8 1.2 1.2 0 .2.1.4.1.7 0 .3 0 .6-.1 1 0 .6-.3.9-1.1.9H81.1c-.7 0-.9.2-.9.9v4.2c0 .7.2.8.9.8h19.7c4.8 0 8-.8 8.9-5 .2-.9.2-2.1.2-2.9 0-1.3-.1-2.4-.2-2.8-.9-4.5-4.2-5.3-8.9-5.8-2.6-.2-9.5-.9-11.8-1.1-.8-.1-1-.6-1.1-1.1 0-.3-.1-.5-.1-.6 0-.3.1-.4.1-.6.1-.7.4-1.1 1.3-1.1H108c.6 0 .8-.1.8-.8v-4.2c0-.7-.2-.8-.8-.8H88.8zm34.6 0c-5 0-7.8 1.8-8.5 5.6-.2.8-.2 1.8-.2 2.6s0 1.7.1 2.4c.3 2.2 1.6 4.7 7.3 5.3 4.6.4 11.1 1 13.3 1.2 1 .1 1.2.8 1.3 1.2v1.7c-.1.6-.4.9-1.2.9h-19.9c-.7 0-.8.2-.8.9v4.2c0 .7.1.8.8.8h19.7c4.9 0 8.1-.8 8.9-5 .2-.9.2-2.1.2-2.9 0-1.3-.1-2.4-.1-2.8-.9-4.5-4.2-5.3-9-5.8-2.5-.2-9.5-.9-11.8-1.1-.8-.1-1-.6-1.1-1.1V30v-.6c.1-.7.5-1.1 1.3-1.1h18.8c.7 0 .8-.1.8-.8v-4.2c0-.7-.1-.8-.8-.8h-19.1zm40.3 0h-2.6c-4.1.1-3.4-.2-4.8 2.8 0 0-7.1 15.9-10.1 22.6l-.1.3c-.6 1.1-.2 1.2.7 1.2l6.4-.1c.4 0 .6-.2.7-.4L156 44h15.4c1.2 2.7 2.1 4.8 2.1 4.9.2.3.4.5.8.5h6.5c1 0 1.2.1.8-.8-1.1-2.8-8.7-19.4-9.8-21.9-2-4.5-1.2-4-5.5-4.2h-2.6zm.1 5.9c.3 0 .7 0 .8.1.2 0 .5.1.6.4.5 1.3 2.2 5.4 3.9 9.4h-10.7c2-4.7 3.9-9.3 4-9.4.1-.3.3-.4.6-.4.2 0 .5-.1.8-.1z"/></svg>