<svg xmlns="http://www.w3.org/2000/svg" viewBox="0 0 232.98 62.7"><path d="M157.28 38.71c.11-.06.25-.06.36 0l3 1.728c.1.06.17.182.17.312v3.455c0 .13-.1.248-.17.313l-3 1.726c-.11.06-.25.06-.36 0l-2.99-1.726a.34.34 0 0 1-.18-.313V40.75c0-.13.1-.25.18-.312l2.99-1.727m72.18-16.023h.72l1.05 3.094 1.05-3.093h.71v3.66h-.48v-2.16-.37-.557l-1.05 3.088h-.49l-1.06-3.088v3.088h-.48v-3.66m-.4 0v.435h-1.24v3.225h-.5v-3.225h-1.23v-.436h2.97m-20.28 27.995c-6.43 0-7.78-2.953-7.78-5.43 0-.236.19-.423.43-.423h1.9c.21 0 .39.15.43.36.28 1.934 1.13 2.91 5.02 2.91 3.1 0 4.43-.7 4.43-2.344 0-.947-.38-1.65-5.19-2.12-4.03-.4-6.51-1.29-6.51-4.506 0-2.966 2.5-4.735 6.68-4.735 4.72 0 7.04 1.635 7.34 5.14 0 .123 0 .24-.11.33-.1.08-.19.134-.31.134h-1.9a.43.43 0 0 1-.42-.332c-.46-2.037-1.57-2.688-4.6-2.688-3.37 0-3.77 1.18-3.77 2.06 0 1.07.46 1.38 5.04 1.985 4.51.598 6.66 1.444 6.66 4.62 0 3.203-2.68 5.037-7.34 5.037m-4.54 11.688c-.53 0-1.07-.14-1.53-.413l-4.92-2.904c-.72-.41-.37-.555-.13-.64.98-.34 1.18-.417 2.22-1.01.11-.06.25-.04.36.03l3.78 2.24c.14.08.32.08.45 0l14.7-8.485c.14-.08.22-.236.22-.398V33.823c0-.167-.1-.322-.22-.405l-14.69-8.48a.47.47 0 0 0-.46 0L189.3 33.42c-.14.08-.24.24-.24.403v16.965c0 .162.1.316.24.393l4.03 2.328c2.18 1.092 3.52-.195 3.52-1.487V35.27c0-.236.19-.424.43-.424h1.86c.24 0 .42.188.42.424v16.75c0 2.917-1.58 4.59-4.35 4.59-.85 0-1.51 0-3.38-.92l-3.85-2.22a3.118 3.118 0 0 1-1.55-2.682V33.823c0-1.103.6-2.132 1.55-2.68l14.7-8.494c.92-.527 2.16-.527 3.08 0l14.7 8.492a3.107 3.107 0 0 1 1.54 2.68V50.79c0 1.102-.59 2.127-1.54 2.682l-14.7 8.487c-.47.272-1 .413-1.55.413M63.288 22.844a1.878 1.878 0 0 1 1.882 0l15.59 8.996c.583.336.94.958.94 1.63V51.48c0 .673-.357 1.294-.94 1.63l-15.59 9.005c-.582.336-1.3.336-1.884 0L47.7 53.11a1.885 1.885 0 0 1-.94-1.632V33.47c0-.672.358-1.294.94-1.63l15.588-8.996m110.652 16.71c.59-.338.93-.958.93-1.628v-4.362c0-.67-.34-1.29-.93-1.63l-15.49-8.994c-.59-.337-1.3-.34-1.89 0l-15.59 9c-.57.335-.93.956-.93 1.63V51.56c0 .677.36 1.302.95 1.636l15.48 8.826c.58.326 1.28.33 1.85.01l9.37-5.207a.936.936 0 0 0 .01-1.64l-15.69-9.002a.956.956 0 0 1-.46-.816v-5.64c0-.337.18-.65.46-.816l4.89-2.815a.94.94 0 0 1 .94 0l4.88 2.814c.29.167.47.48.47.815v4.436c0 .337.18.648.47.817.3.168.65.166.95 0l9.33-5.427m-57.23 6.34a.5.5 0 0 1-.23.408l-5.36 3.086a.49.49 0 0 1-.47 0l-5.35-3.086a.472.472 0 0 1-.23-.408v-6.18a.5.5 0 0 1 .23-.408l5.35-3.093a.49.49 0 0 1 .47 0l5.36 3.093c.14.08.23.24.23.407zM118.16.12a.926.926 0 0 0-.93.01c-.29.17-.47.48-.47.814V24.86c0 .235-.13.452-.33.57-.2.12-.45.12-.66 0l-3.9-2.25a1.884 1.884 0 0 0-1.88 0l-15.595 9c-.582.338-.94.958-.94 1.63v18c0 .674.358 1.295.94 1.632l15.595 9.005c.58.336 1.3.336 1.88 0l15.59-9.005c.59-.337.94-.958.94-1.63V6.94a1.87 1.87 0 0 0-.96-1.646L118.16.12m-83.225 33.2c0-.676-.356-1.3-.94-1.635l-15.586-8.97a1.85 1.85 0 0 0-.86-.248h-.16c-.3.01-.595.09-.86.248L.94 31.685A1.89 1.89 0 0 0 0 33.32l.034 24.153c0 .336.174.65.47.813.29.174.647.174.935 0l9.262-5.303c.586-.348.943-.962.943-1.634V40.064c0-.672.356-1.295.94-1.63l3.944-2.27c.293-.17.614-.254.94-.254.322 0 .653.08.94.254l3.94 2.27c.585.336.942.96.942 1.63V51.35c0 .67.362 1.29.944 1.633l9.26 5.303c.29.174.653.174.942 0a.94.94 0 0 0 .467-.813l.03-24.152"/></svg>