<svg xmlns="http://www.w3.org/2000/svg" viewBox="0 0 814 215"><path class="logotype" d="M784.5 179h1.5c1.7 0 3.1-.7 3.1-2.3 0-1.1-.7-2.3-3.2-2.3-.6 0-1 0-1.4.1v4.5zm0 6.4H783v-12c1.1-.1 1.9-.3 3.1-.3 1.7 0 2.9.4 3.6.9.7.6 1.1 1.4 1.1 2.5 0 1.6-1.1 2.6-2.4 3 1.1.2 1.8 1.2 2.1 3 .3 1.8.6 2.6.8 2.9h-1.6c-.3-.3-.7-1.4-1-3-.3-1.6-1-2.3-2.7-2.3h-1.5v5.3zm2.2-15.6c-5 0-8.9 4.2-8.9 9.4 0 5.3 3.9 9.5 8.9 9.5 4.9 0 8.8-4.2 8.8-9.5 0-5.2-3.9-9.4-8.8-9.4zm0-1.4c5.9 0 10.5 4.8 10.5 10.8 0 6.1-4.6 10.8-10.5 10.8s-10.7-4.7-10.7-10.8c0-6 4.8-10.8 10.7-10.8zM131.9 25.6v102.5L17.72 22.51V189.3h29.46V92.53L161.4 198.1V25.6h-29.5zm596.4-7.9h28.8v171.6h-28.8V17.7zm-63.3 0h28.8v171.6H665V17.7zM450.2 54.39l-34 77.51-33.7-77.51h-33.3l67 142.51 67.3-142.51h-33.3zm-183 110.01c-10.3 0-20.1-4.1-27.6-11.6-7.6-7.6-12-18.2-12-28.9 0-10.9 4.2-21.1 11.9-28.84 7.5-7.45 17.3-11.54 27.7-11.54 10.5 0 20.3 4.09 27.7 11.54 7.7 7.74 12 17.94 12 28.84 0 22.3-17.8 40.5-39.7 40.5zm49.5-89.46c-13-12.94-30.5-20.08-49.5-20.08-38.8 0-69.3 30.34-69.3 69.04 0 18.8 7.1 36.2 19.9 49 13 13 30.5 20.1 49.4 20.1 19 0 36.5-7.1 49.5-20.1 12.8-12.8 19.9-30.2 19.9-49 0-18.7-7.1-36.11-19.9-48.96zm248.4 3.23c18 0 30.8 10.44 34.6 28.03h-70.3c4-16.85 18-28.03 35.7-28.03zm40.4 63.43l-1 1.6c-9.2 14.3-19.3 23.9-38.5 23.9-23.8 0-37.3-19.4-38.4-38.4H630v-2-3.8c0-22.2-6.6-40.52-19.1-52.95-11.3-11.33-26.7-17.07-45.8-17.07-41.6 0-67.4 27.15-67.4 70.82 0 20 6.9 38 19.5 50.5 12.2 12.3 29 18.7 48.5 18.7 27.2 0 51.1-13.4 64-35.9l1-1.8-25.2-13.6z"/></svg>