<svg xmlns="http://www.w3.org/2000/svg" viewBox="0 0 1010 205.3"><path d="M123.3 67.56c-19.3 0-34.97 15.73-34.97 35.04 0 19.4 15.67 35.1 34.97 35.1 19.3 0 35.1-15.7 35.1-35.1 0-19.31-15.8-35.04-35.1-35.04zm0 75.44c-22.3 0-40.37-18.1-40.37-40.4 0-22.24 18.07-40.37 40.37-40.37 22.3 0 40.4 18.13 40.4 40.37 0 22.3-18.1 40.4-40.4 40.4m9.6-98.21c-32.8 0-59.37 26.66-59.37 59.31 0 32.8 26.57 59.4 59.37 59.4 32.7 0 59.3-26.6 59.3-59.4 0-32.65-26.6-59.31-59.3-59.31zm0 124.11c-35.67 0-64.67-29.1-64.67-64.8 0-35.59 29-64.64 64.67-64.64 35.6 0 64.7 29.05 64.7 64.64 0 35.7-29.1 64.8-64.7 64.8m1-151.57c-9.4 0-19 1.07-28.5 3.07C47.83 32.93 9.025 80 18.93 125.3c8 36.9 46.6 62.7 93.77 62.7 9.5 0 19-1.1 28.5-3.1 28-6.1 52.5-20.5 68.8-40.4 16.2-19.8 22.5-42.8 17.8-64.58-8.1-36.86-46.6-62.59-93.9-62.59zM112.7 193.3c-49.77 0-90.47-27.5-99.07-66.8C3.225 78.25 43.83 28.26 104.3 15.2c9.8-2.13 19.8-3.2 29.6-3.2 49.8 0 90.4 27.46 99.1 66.78 5.1 23.42-1.6 48.02-18.9 69.02-17.1 20.9-42.5 35.9-71.8 42.3-9.8 2.1-19.8 3.2-29.6 3.2M987 137.5c-1-.1-1-.2-2-.2h-1v3.9h1c1 0 2-.1 2-.5 0-.3 1-.9 1-1.4 0-.9-1-1.5-1-1.8zm1 11.9c0-1-1-1.3-1-2.4-2-2.6-2-3.3-3-3.5v-.1 6h-3v-14.5h5c3 0 5 1.7 5 4.3 0 2.1-2 3.9-4 3.9 1 .3 1 .4 1 .7 1 1 4 5.6 4 5.6h-4zm-2-17.5c-6 0-10 4.6-10 10.4 0 5.7 4 10.4 10 10.4 5 0 9-4.7 9-10.4 0-5.8-4-10.4-9-10.4zm0 23.3c-8 0-13-5.7-13-12.9s5-12.9 13-12.9c7 0 12 5.7 12 12.9s-5 12.9-12 12.9m-45 .3c-24 0-37-16.8-37-45.2 0-31.88 19-47.15 38-47.15 10 0 17 2.25 25 9.54l-10 12.68c-5-4.69-9-6.77-15-6.77s-11 3.12-13 8.85c-3 5.39-4 13.55-4 24.45 0 12 2 19.6 6 24 3 3.1 7 5 11 5 7 0 12-2.9 18-8.7l9 11.7c-8 8-16 11.6-28 11.6m-73.9-2.3V66.79l19.3-3.47v89.88h-19.3zm9.6-100.81c-6.9 0-12.4-5.73-12.4-12.66 0-7.2 5.6-12.93 12.7-12.93 6.8 0 13 5.59 13 12.93 0 6.93-6.2 12.66-13.3 12.66M843.5 155.2c-19.3 0-19.3-17.4-19.3-24.9V55.46c0-12-.4-18.4-1.7-25.6l19.7-4.4c1.3 5.34 1.5 12.67 1.5 24.13v74.51c0 11.8.5 13.7 2 15.8.9 1.5 4 2.4 6.2 1.4l3.1 11.8c-3.5 1.4-7.1 2.1-11.5 2.1m-71.3-77.47c-10.8 0-16.7 8.5-16.7 22.67h32.4c0-14.17-6.2-22.67-15.7-22.67zm-16.8 36.77v1.4c0 12.2 4.4 25 21.6 25 8.3 0 15.3-2.9 21.9-8.7l7.4 11.7c-9.2 7.8-19.7 11.6-31.6 11.6-24.8 0-40.3-17.9-40.3-46 0-15.46 3.3-25.7 10.9-34.38 7-8.16 15.7-11.8 26.9-11.8 8.7 0 16.7 2.25 24.1 9.02 7.6 6.95 11.5 17.71 11.5 38.16v4h-52.4m-77.8-65.31h-11v38.08h10.3c10.4 0 16-1.38 19.6-5.03 3.3-3.3 5.3-8.34 5.3-14.59 0-12.19-6.5-18.46-24.2-18.46zm27.7 104.01l-10.4-18.5c-8.3-14.8-13.9-23.2-20.4-29.8-2.3-2.2-4-3.4-7.9-3.6v51.9H647V33.06h36.7c26.9 0 39.1 15.73 39.1 34.42 0 17.18-11.2 32.92-29.9 32.92 4.3 2.3 12.3 14 18.5 24l17.8 28.8h-23.9m-136 .4h-18l-10.6-40.5c-2.8-10.4-5.8-23.92-5.8-23.92h-.4s-1.3 8.66-5.7 24.82l-10.5 39.6h-18l-23.9-86.99 18.9-2.6 9.5 42.49c2.5 11 4.5 23.1 4.5 23.1h.6s1.7-11.4 5-23.6l11.4-40.6h18.6l9.9 39.5c3.7 14.3 5.6 25.1 5.6 25.1h.5s2.2-13.4 4.4-23.7l9-40.9h19.8l-24.8 88.2M432.2 77.73c-10.8 0-16.7 8.5-16.7 22.67h32.4c0-14.17-6.3-22.67-15.7-22.67zm-17 36.77v1.4c0 12.2 4.6 25 21.8 25 8.1 0 15.3-2.9 21.8-8.7l7.5 11.7c-9.2 7.8-19.7 11.6-31.6 11.6-24.8 0-40.4-17.9-40.4-46 0-15.46 3.3-25.7 10.9-34.38 7.1-8.16 15.8-11.8 27-11.8 8.6 0 16.6 2.25 24.1 9.02 7.6 6.95 11.5 17.71 11.5 38.16v4h-52.6m-56.6 38.7l-26.9-56.36c-6.6-13.39-13.1-28.49-15.4-35.61l-.5.52c.9 10.08 1.1 22.75 1.2 33.39l.7 58.06h-19.6V33.06h22.6l29.1 58.72c5.6 11.12 10.8 25.32 12.4 30.92l.5-.5c-.5-6.1-1.7-23.26-1.7-34.23l-.4-54.91h18.9V153.2h-20.9"/></svg>