<svg xmlns="http://www.w3.org/2000/svg" viewBox="0 0 206 49.648"><path d="M16.164 44.45C10.2 43.284 6.19 39.09 5.184 32.97c-1.15-7.01 3.208-13.75 10.014-15.49 2.927-.75 7.2-.41 9.48.754.426.217.82.395.878.395.06 0 .104-3.067.104-6.816V5l3.788.052 3.79.052.05 17.022.05 17.022-1.01.51c-.553.28-1.85 1.023-2.88 1.65-2.36 1.432-4.673 2.508-6.28 2.92-1.708.438-5.308.55-7.002.22zm5.933-7.485c2.29-1.12 3.608-3.37 3.608-6.154 0-2.958-1.49-5.286-3.984-6.22-1.56-.586-4.157-.52-5.498.142-1.207.594-2.33 1.753-2.978 3.074-.475.968-.533 1.295-.533 3.005 0 1.666.07 2.06.5 2.983.886 1.89 2.02 2.876 4.105 3.572 1.207.402 3.54.207 4.782-.4zm26.87 7.48c-5.6-1.11-9.464-4.8-10.952-10.466-.414-1.576-.365-4.768.102-6.58 1.266-4.927 5.007-8.673 9.914-9.928 1.838-.47 5.52-.513 7.332-.09 4.003.944 7.403 3.648 9.14 7.27 1.03 2.146 1.444 3.956 1.444 6.306 0 4.05-1.94 8.2-4.963 10.625-1.278 1.024-3.69 2.234-5.3 2.658-1.618.427-5.057.53-6.715.2zm5.706-7.456c3.983-1.856 5.022-7.475 2-10.818-2.388-2.644-7.08-2.706-9.565-.126-.39.405-.952 1.254-1.247 1.887-.472 1.013-.536 1.37-.53 2.974 0 1.604.07 1.958.554 2.952.888 1.832 2.397 3.09 4.28 3.564 1.202.304 3.373.09 4.51-.435zm52.037 7.46c-5.14-1.004-8.97-4.336-10.617-9.24-2.016-5.997.544-13.032 5.887-16.19 2.25-1.324 3.96-1.79 6.94-1.88 3.27-.1 4.82.202 7.27 1.414 1.46.72 2.11 1.192 3.38 2.45 2.62 2.608 3.88 5.436 4.07 9.154.33 6.536-3.71 12.22-9.93 13.982-1.85.524-5.15.67-7 .31zm5.54-7.375c1.32-.58 2.67-1.953 3.3-3.342.73-1.61.76-3.878.1-5.602-.61-1.548-2.03-2.966-3.55-3.534-1.15-.433-3.1-.568-4.24-.294-2.07.502-3.88 2.238-4.52 4.342-1.19 3.9.73 7.68 4.42 8.727 1.19.337 3.4.19 4.5-.295zm71.77 7.37c-2.94-.582-5.22-1.774-7.19-3.756-1.65-1.663-2.52-3.024-3.32-5.243-.48-1.32-.59-1.936-.66-3.902-.12-2.913.22-4.597 1.39-6.933 2.47-4.924 6.84-7.522 12.64-7.515 4.51 0 7.63 1.302 10.48 4.357 2.38 2.552 3.64 5.838 3.64 9.508 0 4.066-1.93 8.19-4.96 10.625-1.28 1.024-3.69 2.234-5.3 2.658-1.62.426-5.06.528-6.72.2zm5.71-7.46c5.79-2.713 4.55-11.948-1.72-12.755-3.23-.417-5.8.923-7.09 3.703-.48 1.007-.54 1.38-.54 2.974 0 1.62.1 1.947.55 2.953.91 1.84 2.41 3.09 4.29 3.564 1.21.305 3.37.09 4.51-.438zM80.862 44.138c-3.884-.654-7.415-2.997-9.32-6.184-2.32-3.886-2.47-9.3-.37-13.473 1.66-3.3 4.58-5.58 8.514-6.648 1.32-.358 2.174-.42 6.738-.498l5.228-.09v7.138h-3.79c-4.237 0-5.563.158-7.023.827-1.4.64-2.32 1.51-2.945 2.782-.472.96-.535 1.305-.534 2.913.002 1.603.06 1.937.512 2.78.68 1.283 1.736 2.265 3.133 2.917 1.15.536 1.16.538 5.9.6l4.747.06v7.068l-4.94-.02c-2.717-.01-5.35-.09-5.85-.176zm47.098-9.058c.1-8.112.12-9.4.41-10.408 1.09-3.72 3.81-6.335 7.6-7.306.94-.24 1.81-.293 3.73-.226 2.95.105 4.67.58 7.08 1.96l1.51.863.55-.39c.95-.674 3.7-1.88 4.99-2.183 1.65-.39 5.23-.385 6.76 0 2.8.723 5.24 2.605 6.51 5.014 1.27 2.422 1.29 2.625 1.29 12.79v9.133h-7.48v-8.393c0-5.18-.1-8.665-.19-9.106-.48-1.723-2-2.665-4.3-2.665-1.52 0-2.57.326-3.34 1.038-.98.896-.99 1.026-.99 10.393v8.734h-7.67v-8.68c0-8.012 0-8.74-.35-9.448-.67-1.45-1.81-2.037-3.97-2.037-2.21 0-3.74.892-4.28 2.496-.15.447-.22 3.318-.22 9.16v8.507h-7.7zM39.088 9.334V5.008H41.103l1.918 2.724 1.92 2.723.05-2.726.05-2.726h1.914v8.633h-2.037l-1.907-2.713-1.907-2.712-.1 2.664-.1 2.665-.91.06-.913.06zm12.234.9l-.052-3.404-1.295-.056-1.295-.057V5.008h7.29v1.709l-1.295.057-1.295.057-.05 3.406-.05 3.405h-1.9zm8.825 0l-.052-3.404-1.295-.056-1.295-.057V5.008h7.29v1.709l-1.295.057-1.295.057-.05 3.406-.05 3.405h-1.9z"/></svg>