<svg xmlns="http://www.w3.org/2000/svg" viewBox="0 0 552.15 156.25"><path d="M165.77 33.003c-15.03-.1-32.09 1.95-49.74 6.32-51.354 12.71-88.254 40.39-82.424 61.817 5.85 21.43 52.21 28.5 103.564 15.79 11.61-2.87 22.47-6.52 32.28-10.68-2.91.71-5.92 1.09-9 1.09-18.18 0-31.54-11.587-31.54-28.427 0-15.97 13.94-30.7 30.35-30.7 10.6 0 16.13 6.66 16.13 13.9 0 5.71-3.83 11.22-9.71 13.43v-.1c2.62-2.8 3.89-5.7 3.89-9.89 0-6.38-4-11.8-11.81-11.8-10.88 0-20.42 10.44-20.42 22.65 0 14.11 11.09 23.657 23.94 23.657 21.58 0 36.76-13.657 39.23-34.357.1 13.82-6.46 25.95-16.35 33.5 24.79-13.42 39.23-30.1 35.41-44.1-3.83-14.06-25.12-21.94-53.81-22.1zm353.34 28.39h-36.66v4.98H512.96v.42c-.55 5.67-5.35 10.77-11.35 12.09v5.6c11.4-3.44 17.57-11.82 17.54-23.09zm-25.26 16.95c0 5.89-3.3 13.24-10.63 14.93v5.34c11.54-3.33 15.61-13.1 15.61-20.28v-6.77h-4.98zm-57.4-12.78h-.39v-6.62h-4.98v6.62h-14.63v16.15h4.98V70.263H445.6v.41c-.5 13.34-6.57 20.68-19.12 23.04v5.1c10.53-2.21 24.2-7.92 24.2-30.75v-2.49h-14.22zm-33.58 11.68l5.53 15.62.18.52H382.42l.45-.61c1.8-2.46 3.34-7.2 6.14-15.38 1.35-3.94 2.62-7.87 3.63-11.04.92-2.86 1.63-5.07 2.05-6.17h-5.28c-6.06 18.99-9.34 28.53-12.51 33.15v5.04H415.95l-7.8-21.13zm73.41-4.52h-21.16v4.72h8.05v16.09H452.5v4.76h26.11v-4.76h-10.68v-16.09h8.47v-4.72zm-108.66-11.33h-26.75v4.98h24.26V93.383h-24.26v4.99H370.11v-36.98zm-102.28 31.98l-.72-1.32-16.96-30.66h-7.51v37h4.99v-31.56l.72 1.32 16.61 30.24h7.86v-37h-4.99v30.47zm20.31-27h.39V98.393h4.97V66.373h11.66v-4.98h-28.03v4.98zm31.61 0h.39V98.393h4.98V66.373h11.66v-4.98h-28.04v4.98z"/></svg>