<svg xmlns="http://www.w3.org/2000/svg" viewBox="0 0 521.33 145.19"><path d="M239.1 74.98c-1.23-.88-3.31-1.67-6.29-1.67-2.63 0-8.36 1.72-10.31 8.58-2.43 8.68 2.46 12.05 7.31 12.05 2.31 0 4.25-.76 5.82-1.78l-.95 5.55c-2.05.56-4.17.76-6.26.76-8.34 0-14.15-6.39-11.67-16.56 2.21-9.11 8.99-13.13 15.75-13.13 2.76 0 5.68.4 8.06 1.41zm269.15 6.37c-1.38-.51-2.86-.97-4.36-.97-1.59 0-3.57.46-3.57 2.13 0 2.66 6.88 3.65 6.88 8.83 0 5.52-4.62 7.13-9.17 7.13-2.12 0-4.28-.34-6.2-1.27l1.16-4.39c1.5.85 3 1.64 5.04 1.64 1.78 0 3.62-.62 3.62-2.35 0-3.39-6.88-3.71-6.88-9.02 0-4.96 4.64-6.71 8.8-6.71 1.93 0 3.91.33 5.75.82zM474 79.85c.28-1.28.46-2.38.5-3.06h5.16l-.34 2.07c1.47-1.39 3.48-2.52 5.77-2.52 3.99 0 6.62 2.57 6.62 6.74 0 1.61-.36 3.28-.65 4.61l-2.15 10.27h-5.29l1.99-9.99c.28-1.41.59-2.86.59-4.42 0-1.78-1.18-2.97-2.88-2.97-3.68 0-5.01 3.57-5.72 6.74l-2.15 10.64h-5.29l3.79-18.11zm-4.52 5.77c0 7.42-4.93 12.85-12.12 12.85-5.77 0-9.23-3.71-9.23-9.65 0-7.08 5.2-12.45 12.02-12.45 5.5 0 9.33 3.39 9.33 9.25zm-5.52 0c0-2.75-.91-5.07-4.02-5.07-4.19 0-6.29 4.81-6.29 8.64 0 2.77 1.11 4.98 4.14 4.98 4.13 0 6.17-4.93 6.17-8.55zm-22.02-8.8h5.29l-4.33 21.17h-5.3zm1.92-9.12h5.29l-1.1 5.27h-5.29zm-20.04 9.12h3.82l.91-4.33 5.69-1.95-1.31 6.28h4.76l-.85 4.05h-4.73l-1.95 9.25c0 .48-.28 1.22-.28 2.04 0 1.28.82 2.04 2.01 2.04.96 0 1.92-.29 2.57-.48l-.9 4.24c-.91.29-1.93.48-2.83.48-3.6 0-6.12-1.47-6.12-5.54 0-1.62.28-3.26.65-4.93l1.51-7.13h-3.85l.83-4.02zm-9.57 17.91c-1.81 2.41-3.65 3.74-6.54 3.74-3.65 0-6.28-2.15-6.28-6.03 0-6.96 7.5-7.53 12.48-7.53h1.87c.28-.56.28-1.19.28-1.81 0-2.12-2.2-2.72-4.04-2.72-2.32 0-4.59.6-6.69 1.62l.74-4.39c2.27-.82 4.53-1.24 6.91-1.24 4.07 0 7.9 1.52 7.9 6.48 0 2.86-2.01 11.15-2.49 15.14h-4.45l.48-3.26zm-5.15-.28c3.93 0 5.15-2.83 6-6.25h-1.84c-2.55 0-6.85.45-6.85 4.02 0 1.5 1.33 2.23 2.69 2.23zm-8.69-12.79c-1.02-.71-2.38-1.08-3.85-1.08-4.22 0-6.59 4.11-6.59 8.1 0 2.77.87 5.52 4.5 5.52 1.3 0 2.91-.37 4.3-1.05l-.6 4.36c-1.61.82-3.36.96-5.09.96-5.24 0-8.63-3.68-8.63-9.11 0-7.39 4.7-12.99 12-12.99 1.98 0 3.85.33 5.29.79zm-22.62-4.84h5.3l-4.33 21.17h-5.3zm1.96-9.12h5.29l-1.1 5.27h-5.3zM354.1 79.85c.29-1.28.43-2.38.51-3.06h5.18l-.34 2.07c1.47-1.39 3.48-2.52 5.78-2.52 3.99 0 6.65 2.57 6.65 6.74 0 1.61-.43 3.28-.68 4.61l-2.12 10.27h-5.29l1.97-9.99c.29-1.41.6-2.86.6-4.42 0-1.78-1.22-2.97-2.89-2.97-3.65 0-5.01 3.57-5.66 6.74l-2.18 10.64h-5.27l3.69-18.11zm-7.19 15.09c-.28 1.29-.45 2.4-.51 3.05h-5.18l.37-2.04c-1.44 1.39-3.48 2.52-5.74 2.52-4 0-6.65-2.57-6.65-6.77 0-1.61.36-3.28.64-4.6L332 76.82h5.29l-1.98 9.99c-.29 1.44-.59 2.86-.59 4.44 0 1.79 1.18 2.98 2.85 2.98 3.68 0 5.01-3.57 5.69-6.74l2.18-10.64h5.32L347 94.94zm-48.88-15.77c.28-.83.28-1.7.42-2.35h4.93l-.45 2.83c1.41-2.15 3.76-3.28 6.22-3.28 2.44 0 4.9 1.44 5.21 4.01 1.36-2.77 4.3-4.01 7.14-4.01 3.05 0 5.66 2.57 5.66 5.77 0 1.9-.46 4.02-.91 5.75l-2.12 10.1h-5.3l2.13-10.3c.28-1.3.68-3.26.68-4.53 0-1.56-1.14-2.55-2.49-2.55-3.69 0-4.59 4.45-5.27 7.33l-2.1 10.08h-5.29l2.12-10.31c.29-1.29.68-3.25.68-4.52 0-1.56-1.15-2.55-2.49-2.55-3.59 0-4.55 4.5-5.24 7.33l-2.1 10.08h-5.29l3.71-18.88zm-33.54 0c0-.83.33-1.7.42-2.35h4.95l-.49 2.83c1.43-2.15 3.77-3.28 6.24-3.28 2.39 0 4.89 1.44 5.18 4.01 1.36-2.77 4.3-4.01 7.16-4.01 3.03 0 5.61 2.57 5.61 5.77 0 1.9-.45 4.02-.91 5.75l-2.12 10.1h-5.27l2.1-10.3c.28-1.3.68-3.26.68-4.53 0-1.56-1.13-2.55-2.47-2.55-3.68 0-4.58 4.45-5.26 7.33l-2.09 10.08h-5.3l2.1-10.31c.28-1.29.67-3.25.67-4.52 0-1.56-1.16-2.55-2.49-2.55-3.56 0-4.58 4.5-5.26 7.33l-2.09 10.08h-5.3l3.79-18.88zm-4.12 6.45c0 7.42-4.92 12.85-12.07 12.85-5.81 0-9.26-3.71-9.26-9.65 0-7.08 5.18-12.45 12.02-12.45 5.52 0 9.31 3.39 9.31 9.25zm-5.49 0c0-2.75-.93-5.07-4.05-5.07-4.16 0-6.25 4.81-6.25 8.64 0 2.77 1.1 4.98 4.13 4.98 4.1 0 6.17-4.93 6.17-8.55zM212.7 73.99h-11.26l-5.04 24h-13.07l5.04-24h-11.26l2.12-10.05h35.58zm-39.06 0h-11.26l-5.04 24h-13.08l5.04-24h-11.24l2.1-10.05h35.58zm-65.16-.68l-5.18 24.68H92.095l7.14-34.05h19.585l1.25 24 5.07-24h11.21l-7.14 34.05h-19.22zM220.36 12c-18.16 0-35.8.7-52.61 2.01h-.38c-7.81.62-15.44 1.35-22.85 2.2h1.23-1.23c-5.68.64-11.21 1.39-16.62 2.18h-.2c-4.63.68-9.19 1.41-13.64 2.2h.81c-.1 0-.11 0-.16.1h-.68a581.1 581.1 0 0 0-11.66 2.21c-3.475.71-6.905 1.44-10.215 2.21-3.09.71-6.06 1.44-9 2.21-2.75.7-5.46 1.44-8.09 2.2-2.49.71-4.92 1.45-7.3 2.21h.1c-2.3.71-4.51 1.45-6.65 2.21-2.07.71-4.08 1.44-6.032 2.21-1.894.73-3.71 1.47-5.49 2.21h.05c-1.727.7-3.424 1.46-5.038 2.2a175.01 175.01 0 0 0-4.558 2.21h-.05c-1.416.74-2.804 1.47-4.136 2.21-1.298.73-2.545 1.47-3.76 2.21-1.19.73-2.32 1.47-3.4 2.21a81.063 81.063 0 0 0-3.024 2.2c-.938.74-1.872 1.47-2.72 2.21a60.71 60.71 0 0 0-2.378 2.21c-.736.73-1.444 1.47-2.096 2.21-.647.73-1.243 1.47-1.782 2.21h.09-.05c-.53.73-1.032 1.45-1.477 2.18h-.05c-.45.73-.82 1.47-1.186 2.21h.06-.05a39.99 39.99 0 0 0-.924 2.18c-.258.74-.37 1.48-.65 2.21h.05v.1h-.05c-.114.74-.4 1.47-.4 2.21v.64c-.113.52-.113 1.04-.113 1.56H12c0 1.3.14 2.6.427 3.87h.136v.1h-.14c.28 1.28.703 2.58 1.242 3.85h.05c.54 1.28 1.248 2.58 2.068 3.85.82 1.3 1.81 2.61 2.945 3.88h.05c1.13 1.3 2.434 2.57 3.846 3.85h.09l.05.1h-.24c1.446 1.3 3.06 2.57 4.818 3.85h.06c1.81 1.33 3.76 2.6 5.857 3.87h-.05c2.18 1.31 4.53 2.58 7.02 3.85h.14s.05 0 .06.1h-.197c2.603 1.3 5.38 2.6 8.296 3.85 3.052 1.3 6.31 2.6 9.725 3.85 3.66 1.36 7.5 2.63 11.53 3.88 4.35 1.33 8.91 2.63 13.67 3.85h.33s.1 0 .12.1h-.44a407.4 407.4 0 0 0 16.645 3.84 433.2 433.2 0 0 0 21.03 3.88h.14c9.37 1.49 19.19 2.78 29.34 3.85 4.19.45 8.47.85 12.8 1.19-.19-.1-.37-.1-.56-.1h.61-.36c-1.27-.32-2.55-.66-3.82-1-1.22-.31-2.46-.64-3.71-.99-1.22-.31-2.41-.65-3.62-.99-1.19-.31-2.38-.65-3.54-.99-1.16-.31-2.32-.65-3.45-.99a128 128 0 0 1-3.34-.99c-1.08-.31-2.18-.65-3.26-.99-1.08-.31-2.12-.65-3.17-.99-1.02-.31-2.07-.65-3.08-.99-1-.34-1.99-.65-2.98-.99-.96-.31-1.95-.65-2.91-.99-.94-.32-1.87-.65-2.81-.99-.9-.34-1.81-.65-2.71-1-.88-.3-1.76-.65-2.63-.98-.85-.34-1.7-.66-2.55-.99-.82-.32-1.64-.66-2.46-1-.8-.31-1.59-.65-2.38-.99-.77-.34-1.53-.65-2.3-.99-.73-.34-1.47-.65-2.2-.99-.71-.34-1.42-.65-2.13-.99-.7-.34-1.38-.65-2.06-.99-.68-.34-1.33-.65-1.98-.99-.665-.34-1.285-.65-1.905-.99-.62-.34-1.22-.65-1.81-.99-.57-.34-1.16-.65-1.73-.99-.57-.34-1.1-.66-1.64-.99-3.14-1.93-5.92-3.91-8.29-5.98-2.24-1.95-4.11-3.93-5.58-5.97-1.39-1.95-2.41-3.93-3-5.97-.34-1.36-.62-2.77-.62-4.19v-1.75c.19-2.01.76-4.03 1.64-5.98.9-2.04 2.18-4.02 3.79-5.97 1.7-2.04 3.74-4.02 6.12-5.97 2.51-2.04 5.4-4.05 8.66-5.98 3.48-2.06 7.385-4.07 11.665-5.97 4.67-2.09 9.82-4.1 15.37-5.97 6.31-2.15 13.16-4.13 20.49-5.97 9.09-2.27 18.85-4.28 29.21-5.97 17.52-2.89 36.72-4.96 57.01-5.98a630.2 630.2 0 0 1 26.45-.75h7.65c8.95.1 17.93.31 26.84.75h.1c5.07.25 10.13.57 15.16.93 15.45 1.14 30.58 2.81 44.93 4.91.3.1.61.1.91.14.93.13 1.86.28 2.79.42 4.8.74 9.5 1.52 14.09 2.36.27 0 .53.1.81.15 5.15.95 10.18 1.96 15.03 3.04.91.19 1.81.39 2.7.6 6.29 1.44 12.27 2.97 17.9 4.58h.17c.85.24 1.69.49 2.53.74 5.72 1.72 11.03 3.5 15.89 5.38.48.19.96.37 1.44.57h.1c3.99 1.59 7.67 3.23 10.95 4.93 0-.1-.1-.1-.13-.1h.1c-.1 0-.11-.1-.16-.14.1.1.15.1.22.14a40.02 40.02 0 0 0-2.71-2.15c-1-.74-2.04-1.48-3.15-2.21a88.04 88.04 0 0 0-3.48-2.21c-1.24-.74-2.52-1.47-3.85-2.21-1.36-.73-2.77-1.47-4.22-2.2-1.5-.74-3.03-1.48-4.61-2.21-1.61-.74-3.28-1.48-5.01-2.21-1.75-.74-3.54-1.47-5.41-2.21a300.72 300.72 0 0 0-12.29-4.41c-2.26-.74-4.56-1.5-6.91-2.21-.43-.13-.87-.26-1.31-.39-1.61-.5-3.25-.98-4.92-1.45-.44-.12-.84-.25-1.27-.37-2.67-.76-5.38-1.5-8.15-2.21-2.92-.76-5.88-1.5-8.92-2.2-3.2-.77-6.45-1.5-9.79-2.21-3.57-.77-7.23-1.5-10.94-2.21-.22-.1-.43-.1-.66-.12-3.66-.71-7.36-1.38-11.15-2-.19 0-.37-.1-.56-.1h-.17.14c-4.67-.76-9.42-1.5-14.23-2.21h-.21c-5.59-.8-11.27-1.53-17.06-2.17-.1 0-.2 0-.3-.1h.3c-7.53-.85-15.23-1.58-23.01-2.2h-.38c-1.98-.16-3.95-.31-5.94-.44-14.8-1.03-29.99-1.57-45.37-1.57zm33.86 8.26h1.63-1.63zm5.61.1h.37-.37zm113.45 14.47zm2.72.68c.83.21 1.66.41 2.47.63.27.1.53.14.8.21-1.08-.28-2.17-.57-3.27-.84zm11.86 3.18c1.21.34 2.4.69 3.59 1.05-1.18-.35-2.39-.7-3.59-1.05zm3.99 1.16c.76.23 1.53.46 2.28.7.27.1.53.17.8.26-1.02-.32-2.04-.64-3.08-.96zm15.52 5.12c.38.14.75.27 1.13.41-.38-.14-.77-.27-1.16-.41zm4.68 1.74c.4.16.81.31 1.21.46h.1c1.84.74 3.65 1.48 5.38 2.21 1.73.74 3.37 1.47 4.95 2.21h-.1.1c-3.15-1.47-6.53-2.92-10.16-4.35-.46-.18-.93-.36-1.39-.54zm12.27 5.23c.9.44 1.78.86 2.65 1.29-.86-.43-1.75-.86-2.65-1.29zm3.45 1.7c.11.1.22.1.32.16h.1c1.44.73 2.8 1.47 4.11 2.2.39.23.76.46 1.14.68-1.74-1.01-3.61-2.03-5.6-3.04z"/></svg>