<svg xmlns="http://www.w3.org/2000/svg" viewBox="0 0 100 135" version="1"><path d="M62.62 1.34c-3.96 0-8.51.704-11.43 1.88l-1.23.49-.81-.39c-1.13-.542-3.99-1.284-6.38-1.644-2.88-.438-7.22-.4-10 .09C21.32 3.77 10.94 12.09 5.603 23.56.08 35.43-.527 50.72 4.067 62.59 7.582 71.68 13.88 79.4 22.37 85.01c7.46 4.9 16.51 7.95 24.92 8.37 8.87.46 17.12-1.32 25.26-5.45 4.96-2.5 8.91-5.36 12.79-9.2 4.08-4.04 6.59-7.53 9.03-12.49 2.14-4.36 3.44-8.51 4.25-13.58.54-3.33.48-11.74-.1-15.43-.86-5.49-2.17-9.74-4.45-14.4C88.44 11.29 78.06 3.356 66.31 1.586c-1.12-.167-2.37-.245-3.69-.246zM38.64 12.68l-1.24 1.38c-2.67 2.96-4.92 6.81-6.13 10.49-2.92 8.88-1.06 17.77 4.88 23.32 6.26 5.86 15.25 7.13 23.07 3.29 8.18-4.03 12.39-13.25 10.53-23.07-.93-4.86-3.69-10.41-6.84-13.73-.73-.76-1.31-1.45-1.31-1.53 0-.1.88-.1 1.98 0 4.92.29 9.87 2.76 14.16 7.06 4.84 4.86 7.7 10.64 9.16 18.44.48 2.63.48 10.08 0 12.77-1.31 7.21-3.96 12.89-8.41 18.06-6.09 6.97-14.83 11.49-24.42 12.52-12.33 1.37-25.01-3.65-32.77-12.94-5.19-6.19-7.92-13.14-8.49-21.61-.94-13.99 5.68-26.99 16.42-32.28 2.79-1.37 4.73-1.91 7.4-2.06l2.01-.11zm11.43 3.13c.56 0 3.9 3.4 5.04 5.09.48.73 1.23 2.04 1.65 2.89 3.88 7.74 1.73 16.38-4.48 17.92-3.2.81-6.14 0-8.22-2.27-1.84-1.98-2.61-4.28-2.63-7.7 0-3.13.56-5.36 2.13-8.43.52-1 1.37-2.39 1.88-3.08 1.29-1.7 4.14-4.42 4.63-4.42zM69.86 130.8V128h4.23V110.7H70.82v5.2h-5.57v-10.8h24.97v10.8h-5.57v-5.2h-3.26V128h4.22v5.6H69.86v-2.8zm-27.28 0V128H47v-8.6l-.1-8.6-1.57-.1h-1.59v5.2h-5.77v-5.3l.1-5.4h12.54l12.53-.1v10.8h-5.57v-5.2H54.3V128h4.23v5.6H42.58v-2.8zm-34.96 0V128h3.27V110.7H7.62v-5.6l4.94.1h4.95l3.88 7.2c2.14 4 4.11 7.6 4.36 8.1l.5.9v-10.7h-3.26v-5.6H35.86v5.6H32.59v22.9l-3.2-.1h-3.21l-3.92-7.2c-2.13-4-4.07-7.5-4.27-7.9l-.36-.7V128h2.88v5.6H7.64v-2.8z"/></svg>