<svg xmlns="http://www.w3.org/2000/svg" viewBox="0 0 2467 969"><path class="logotype logotext" d="M576 123c-12-12-24-14-28-4-1 3-1 3-5 3-5-1-5-1-4-7 0-3 2-7 5-9 3-4 5-5 9-5 3 0 8 1 10 2 7 3 19 11 24 16l3 3-3 4c-2 1-4 3-4 3-1 0-4-3-7-6zm-405-1c-8-7-14-10-19-10-3 0-5 1-7 5-3 5-3 5-8 4-3 0-4-1-3-2 0-1 1-4 2-6 3-12 13-15 26-8 9 4 24 16 23 18-2 3-5 6-6 6s-5-3-8-7zm364 19c-5-7 0-16 8-16s12 11 6 16c-4 4-11 4-14 0zm-404-1c-3-3-4-5-1-9 2-4 4-6 9-6 4 0 9 5 9 9 0 2-1 5-3 6-2 3-3 4-7 4s-5-1-7-4zm454 18c1-4 7-11 8-11s8 9 8 11c0 0-4 1-9 1-4 0-8-1-7-1zm-404 0c0-2 6-11 8-11 1 1 8 10 7 11s-15 1-15 0zm377 0c-2-5-1-8 3-9h6c1 1-4 11-6 11-1 0-2-1-3-2zm61-2c-1-3-2-6-2-7 1-1 11 1 11 3 0 3-3 9.2-4 9.2s-3-2.2-5-5.2zm-403 0c-3-4-4-6-3-7 2-1 10 1 11 2 1 2-2 10.2-4 10.2 0 0-2-2.2-4-5.2zm-62 2c-2-4-1-7 3-8 6-2 7 0 4 5-2 2-3 4-3 5 0 2.2-2 1.4-4-2zm55 15.5c-1-2.3-6-9.8-10-16.5-5-7-8-13-8-13 0-1 1-3 3-5 4-5 5-4 16 12 8 12.9 9 15.9 6 22-3 5.1-5 5.2-7 .5zm406 4.4c0-.7-2-3.8-4-7.3-3-5.5-13-20.6-16-24.6-1-2 4-10 7-10 2 0 5 4 14 18 8 12 8 11.5 4 18.5-3 6.4-4 7-5 5.4zm-29 11.3c-4-4.2-4-8 0-12.2 4-5.6 13-4.1 16 2.9 1 3.2 1 4.3-1 7.8s-3 4.2-7 4.5c-5 .4-6-.1-8-3zm-404 .5c-6-6-1-16 7-16s13 12.4 6 16.8c-4 2.9-10 2.5-13-.8zm86 2c-2-2.5-2-3.8-1-6.6 2-7.5-6-15-20-18.9-8-2.1-9-3-7-7.2 0-2 2-4 3-4 6 0 25 9.5 31 15.9 5 4.6 5 6 5 10.6 0 5.7-4 13.5-7 13.5-1-.1-3-1.5-4-3.3zm406 3.5c0-.6-1-2.3-2-3.8-2-2.4-3-3.4-2-5.3 5-7.4-2-14.7-19-19.9-6-1.6-7-2.5-8-5.1 0-5.1 3-7.1 10-4.1 14 4 29 14.7 31 22.4 1 3.6-1 10-5 14.1-3 2.7-5 3.6-5 1.7zM552 199c-5-.5-6-2.6-3-7.8 2-4.8 4-4.5 7 2.2 2 5.8 2 6.2-4 5.6zm-404-.3c-4-.6-4-1-4-4.1 0-3.5 2-7.1 4-7.1 1 0 5 9.6 5 10.9 0 .5-3 .7-5 .3zm416 1.5c-3-1.3-14-25.1-18-36.8-5-13.4-5-15.4 0-16.4 6-1 6-1 6 2 0 4 13 33.6 21 46.7 2 2.2 2 4.3 2 4.7-1 1.1-10 1-11-.2zm-404 0c-3-1.7-14-23.7-19-39.6-5-11.6-5-12.6 2-13.6 3-1 4-1 5 3 0 1 2 6 4 10.6 3 8.6 12 27.4 17 34.4 1 2.6 2 5.1 2 5.5-1 1-10 .9-11-.3zm496 6.1c-5-4.6-5-8.1 0-12.8 3-3.1 4-3.6 8-3 8 1.6 11 10.7 5 16.3-5 4.2-9 3.9-13-.5zm-11 1.3c-3-3.9-2-7.4 1-8.2 3-1.2 3-.8 4 5.1 0 3.6 0 4.8-2 5.2-1 .3-3-.7-3-2.1zm-393-.4c-4-4.3-4-8-2-12.1 5-8.6 18-4.7 18 5.3 0 4.1-6 9.6-10 9.6-2 0-4-1.3-6-2.8zm-12-.9c-3-4.8-2-5.9 0-6.7 4-.9 6 .9 6 5.5 0 5.6-3 6.5-6 1.2zm378 9c-1-1.2 4-10.3 6-10.3s2 .7 3 5.1c1 3 1 3.4-4 4.6-2 .6-5 .9-5 .6zm-63-1.6c-36-6.7-57-19.6-54-34.2 2-8 16-18.5 32-23.5 6-2 8-1 8 4.6 0 3.3 0 3.6-9 6.6-20 6.4-25 18.3-11 25.5 14 6.8 34 10.7 61 11.9 10 .4 19 1.2 19 1.9 0 .6-2 3.1-4 5.5l-3 4.2-13-.1c-8-.1-19-1.1-26-2.4zm-342 .8c0-1.8 6-10.8 7-10.8s4 9 4 9.6c0 .2-3 .8-6 1.4-4 .9-5 .9-5-.2zm-57 .2c-14-2.7-28-6.4-36-10-11-4.3-21-12.7-23-18.7-3-10.8 10-23.3 32-30 6-2 7-1 8 4.5 0 3.2 0 3.6-6 5.4-16 4.5-25 12.3-22 19.5 2 2.8 10 9.6 13 9.6 0 0 2 .5 3 1.1 9 4.1 28 7.4 52 8.4 11 .5 20 1.2 20 1.5 0 .3-2 2.8-3 5.5l-4 4.7-14-.1c-7-.1-16-.8-20-1.4zm423 10.1c-2-2.1-3-4.2-3-4.6 1-.7 14-.4 14 .3 1 .6-6 8.2-7 8.2 0 0-2-1.7-4-3.9zm-404 .8c-2-2.4-3-4.9-3-5.5 1-.9 13-.4 15 .6 0 .3-2 2.4-4 4.9l-4 4.4-4-4.4zm410 16.1c-2-1.9-3-3.9-3-4.5 0-.7 2-4 5-7.4 14-15.6 37-53.7 44-74.8 7-20 8-34 3-39-5-7-14-3-28 10-11 10-28 34.4-35 48.1-1 1.9-2 3.4-3 3.4s-2-2.3-4-5.1c-3-6-3-5.9 8-23.4 9-13 32-37 43-43 4-2 9-4 13-5 36-4 18 74.7-29 131.1-5 6.4-10 11.9-11 12.2 0 .4-2-.8-3-2.6zm-405-1l-3-4.2 3-2.3c5-5 21-26.7 28-40 16-28.1 24-50.2 24-66.2 0-9 0-11-2-13-8-9-31 8-53 41-4 7.1-8 13-8 13.4 0 1.3-5 8.1-6 8.1 0 0-2-2.4-3-5.3-2-5.1-2-5.5 0-9.7 3-6.5 16-24.5 22-31.5 12-13 26-24 35-28 10-4 19-1 23 7 3 6 3 25 0 36-5 18.7-16 45.2-27 61.1-9 14-28 37.9-30 37.9 0 0-2-1.9-3-4.3zm389 16.4c-4-2.3-6-7.3-5-11.6 3-6.9 10-8.8 16-4.2 8 6.5-1 20.5-11 15.8zm-402 .7c-4-1.3-8-5.8-8-8.8 0-1.7 1-4.7 3-6.7 5-7.2 17-3.3 17 5.7 0 6.5-7 11.8-12 9.8zm459 5.2c-8-2-30-17.3-30-20.9 0-.9 1-2.9 2-4.5l3-3 3 3.1c11 10 19 14.8 24 14.8 8 0 11-11.7 7-25.9-1-8.3-7-24.5-8-25.9-1-1.5 4-12 6-12 1 0 2 1 2 2.3 1 1.1 2 3.9 3 5.9 4 10.9 9 31.6 9 41.9 0 7.5-2 17.4-4 17.4-1 0-1 .8-1 1.6 0 3.3-10 6.5-16 5.2zm-79-1.3c-7-3.7-8-6.7-8-24.9s1-21.8 6-21.8c6 0 8 1.7 6 5.8-1 1.9-2 8.3-2 14.2-1 9.6-1 11 2 14.1 1 2.2 4 3.4 6 3.4 4 0 10 6.3 7 8.5-3 2.5-12 2.8-17 .7zm-326 .9c-7-1.9-21-11-27-17.5-2-2.4-2-3-1-5.8 1-1.7 3-3.1 3-3.1 1 0 5 2.8 9 6.1 12 10.2 20 12.4 24 7.7 2-2.2 3-4.2 3-12.4 0-5.4-1-11.4-1-13.4-1-2-2-7-4-11.1-1-4.1-2-8-3-8.6-2-2-1-7.8 1-11.9 3-4.9 5-4.9 7 .3 1 2.1 2 5.1 2 6.5 2 2.8 4 12.1 7 20.9 0 3.3 1 11.2 1 17.5 0 12-1 18.2-6 22.4-3 2.5-10 3.6-15 2.4zm-76 .2c-4-1-7-4.6-9-11.5-3-7.7-4-12.6-1-25.5 1-5.3 2-10.1 2-10.3 0-1.4 9-.3 9 1.1 1 .9 0 6.2-1 11.9-3 15.2 0 24 8 24 3 0 8 4.1 8 7.3 0 2.4-11 4.4-16 3zM389 143c-1-1-1-4-1-7v-6h6c6 0 8 2 5 9-1 4-1 5-5 5-2 0-5-1-5-1zm-14 2c-1-1-3-3-5-9-1-2 6-5 11-5 3 0 3 0 3 6s0 7-3 7c-1 0-3 0-4 1 0 1-1 1-2 0zm30 1c-3-1-3-2-3-7 2-7 3-7 8-5 6 2 7 4 2 9-3 4-4 4-7 3zm-47 4c-5-4-5-5 0-9 7-5 7-5 11 0l3 6-3 3c-5 3-5 3-11 0zm-8 11.9c-6-2.9-6-3.9-3-8.9s3-5 8-2c1 2 3 3 4 3 2 0 2 2-1 6.1-3 4-4 4.3-8 1.8zm-10 11.2c-1-2.1 0-6.5 2-9.2 1-1.5 2-1.4 7 1l5 2.6-2 3.7c-1 3.3-2 3.8-7 3.8-3 0-5-.6-5-1.9zm-1 15.1c-1-1-1-3.6-1-6 1-4.1 1-4.1 7-4.1s6 .1 7 4.1c0 4.3-1 5-9 7-3 .7-4 .3-4-1zm42 12.9c-12-6.1-15-23.4-6-33.4 11-10.7 28-8.7 34 5.2 4 8.8 3 16.8-3 23.7-7 7.1-16 8.9-25 4.5zm0 32.7c-8-1.3-22-8.7-28-15.2-5-5.4-11-15-13-22-1-2.4 0-3.1 2-4.1 7-2.6 9-1.8 13 6.2 7 14.6 20 22.5 36 22.5s31-10 36-24.8c2-5.2 2-8.9 2-16.8-1-11.6-3-17-11-25.6l-5-5 3-5c1-2 3-4 5-4 3 0 13 12 17 19 7 15.4 6 30.9-1 45.6-5 11-13 19-23 24-12 5.6-21 7.1-33 5.2zm23 2.3c19-5 34-19.6 40-38.5 2-6.9 2-24.2 0-30.2-6-21.4-23-35.4-43-39.4-15-2-26-1-38 6-11 6-17 14-23 26-4 8.5-6 24.9-3 36 4 17.7 19 33.7 38 39.6 6 2 22 2.2 29 .5zm-18 34.4c-3-3-3-4.4-3-11.8v-8.4l-7-1.5c-4-.8-11-3.6-16-6.1l-10-4.4-4 4.4c-7 6.6-10 7.8-14 5.9-4-1.5-6-5.4-6-10 0-1.4 2-5.1 5-8.4l6-5.9-5-6.8c-2-3.8-5-10.9-7-15.9l-2-9.1h-8c-6 0-8-.5-11-3.6-4-4.5-4-7.7 0-12.3 2-3.1 4-3.5 10-3.7 9-.2 10-1.3 10-6.5 0-3.3 8-20.4 11-24.4 2-2 2-3-3-7-7-8-8-10-6-14 4-8 10-8 18 0l6 5 6-3c5-3 13-5 22-8l5-1v-9c0-7 1-8 3-11 4-4 9-4 13 0 2 2 3 4 3 11 0 9 1 11 4 11 5 0 23 8 23 10 0 3 5 1 11-4 5-6 6-6 11-6s8 3 8 9c0 3-1 5-6 10l-6 7 4 10c2 4 5 10.4 5 12.4 2 8.1 1 7.7 12 8.3 9 .5 11 1 13 3.5 3 4.2 3 9.5-1 13.2-3 2.7-5 3.1-13 3.1h-9l-1 4.7c-1 2.5-1 5.3-1 6.2 0 .7-2 5.1-5 9.6-2 4.6-4 8.7-4 9.3 0 .7 3 3.8 6 7.2 5 5.1 6 6.7 6 10.7 0 4 0 5.1-4 7.3-5 3.2-7 2.3-15-5.2-7-6.5-8-7.1-11-4.3-2 2.5-14 8.3-21 10l-6 1.5v9.7c-1 8.3-1 10.1-4 12.1-4 3.3-8 3-12-.8zm-139 43.6v-22.3h95l1 22.3v22.1h91v-45l48 .3 48 .3v22.3l1 22.1h90V291.8l42-.6 42-.6V185.4L706 80H77v211.2l40 .3 39 .3 1 22.3v22.1h90v-22.1zM127 454c0-.3 2-.2 2 .2 0 .3 0 .7-2 .6-1 0-1-.4 0-.8zm74-1c-2-7.1 3-14.3 9-14.3s6 1.9 1 7.7c-3 3-5 6-5 6.8 0 .8-1 1.7-2 2.2-2 .4-2-.4-3-2.4zm-59 2.4c1-2.6 3-2.9 3-.1 1 1.2 0 2.1-1 2.1-2 0-2-.7-2-2zm176 1.6c-10-7.5-10-6.7-7-9.1 2-2 2-2 5-.4 4 1.9 8 9.5 6 11.3 0 .6-2-.1-4-1.8zm-212 10.4c0-.6 0-1.2 1-1.2s1 .6 1 1.2c0 .8 0 1.3-1 1.3s-1-.5-1-1.3zm94 30.4c1-.3 3-.3 3 0 1 .4 0 .6-2 .6s-3-.2-1-.6zm10 2c2-.8 4-.6 5 .1 2 .9 1 1.1-3 1.1s-4-.1-2-1.2zm101 7.6c-2-.9 21-2.6 26-2 2 .3 4 .5 5 .6 1 0 2 .8 2 1.4-1 1.5-29 1.4-33 0zm-5 3.8c0-.7 0-1.3 1-1.3s1 .6 0 1.3c0 .6-1 1.2-1 1.2v-1.2zm-102 2.5c0-.7 3-1.3 7-1.3s6 .5 5 1.3c0 .6-3 1.2-6 1.2s-6-.6-6-1.2zm-8 2.5c0-.7 1-1.3 3-1.3 3 0 4 .5 3 1.3 0 .6-2 1.2-3 1.2-2 0-3-.6-3-1.2zm139 11.6c-3-1-7-2.4-9-2.9-7-2.6-12-3.7-16-3.7-2 0-4-.7-4-1.3 0-1.5 10-1.6 11-.1 1 .5 4 1.4 8 1.9 4 .3 8 1.2 9 1.8 1 .8 4 2 6 2.9 4 1.6 6 3.6 3 3.4-1 0-5-.9-8-2zm-16 18c-2-2.4-16-10.9-17-10.9s-3-3.7-2-4.5c0-.7 16 8.8 20 12.9 4 2.9 4 4 3 4.1-1 0-3-.7-4-1.6zm-62-58.4c2 0 0-5.2-3-8.4-4-4.7-10-6.7-15-5.2-2 .7-3 1.9-3 2.6 0 .6 0 .8 1 .4 0-.4 2 1.2 4 3.6 2 3.8 3 4.5 6 4.5 6 0 6 .9 4 6.4-4 7.4-3 8.6 1 2 2-3.3 4-5.9 5-5.9zm22-3.4c-2-1.3-1-2.8 1-2.8 1 0 2 .5 2 1.1 0 1.6-2 2.7-3 1.7zm-3 9.9v-7.1l5 .4c3 .2 5-.4 8-2.8 2-1.7 4-3.2 5-3.2 3 0 2-3.5-1-4.3-5-1.2-9-.9-13 1.3-7 3.1-8 6.1-7 13.6 2 11.6 4 12.5 3 2.1zm-32 14.3c-2-.9-4-2-6-2.4-2-.4-6-1.5-10-2.5-3-1-6-1.5-6-1.1 0 .7 19 7.1 23 7.6 1 0 0-.6-1-1.6zm2 22.5c-2-2.9-2-4.2 1-5.8 3-1.9 4-.9 3 3.9-1 3.9-1 3.9-4 1.9zm25 .2c0-1.5 1-3 2-3.2 3-.7 3 3.1 0 4.7-2 1.3-3 1.1-2-1.5zm-21 25.6c-2-1.6-1-7.8 1-7.8 1 0 2 1.2 2 3.6 0 3.7-1 5.7-3 4.2zm18 1.3c-2-1.3-1-6.4 0-7.3 1-.7 4 3.3 4 6.2 0 2-3 2.7-4 1.1zm8-2.9c2-5.7 4-12.7 5-19.1 1-2.9 0-4.3-4-7.9-2-2.5-7-5.7-11-7.2l-6-2.9 4-2.9c3-1.6 6-3.6 9-4.5l4-1.6-4-.1c-3 0-5 1-8 3.3l-3 3.4-4-4c-3-2.2-6-4-7-4-4 0-3 1.8 2 4.4 3 1.4 6 3.4 6 4.4 0 1-3 2.6-6 3.7-2 1-7 3.1-9 4.8-4 3-4 2.1 0 19 3 15.5 5 18.1 11 14.2 4-2 4-2 8 .5 7 4.1 10 3.1 13-3.5zm-14 23.6l-2-5.1-2 2.9c-2 2.3-3 2.5-4 1 0-.9-1-3-1-4.7 0-4-2-3.3-4 1-1 2.3-2 3.8-4 3.8s-2-1.1-2-6.3c0-6.2 0-6.2 4-6.2l4-.1-3-1.8c-4-1.8-6-5.8-9-15.2-1-2.9-2-5.1-3-5 0 .1-1-.9-1-2.3-1-1.3-1-3.6-2-5-4-9.6-4-9.2-1-11.1 2-.9 5-2.4 8-3.2 2-.9 4-1.8 4-2.2-1-1.2-18 5.3-18 6.9 0 .9-2 2.9-5 4.4-3 1.5-6 3.7-7 4.9-3 2.5-5 2.8-5 1 0-.7 4-3.4 8-6.2 6-4.5 7-5.2 6-8.8 0-2.2-1-4.3-2-4.8-4-1.2 2-2.6 12-2.6 12-.1 11-1.1-3-1.8-11-.5-11-.7-12-3.2 0-1.6 0-3.8 1-4.9 0-1.1 1-3.2 1-4.6 0-3 7-22.9 11-34.9 5-11.6 11-18.2 18-18.2 3 0 6-.8 8-1.5 2-1.3 3-1.3 4 0 2 2.3 3 1.7 3-1.5 0-3.4 2-5.3 3-3.3 1 .7 2 1.3 4 1.3 1 0 3 1.1 4 2.6 1 2.1 2 2.4 6 1.7s5-.5 5 .9c0 1 1 2.5 3 3.3 3 1.6 9 10.1 11 17 1 2.6 3 10.2 3 16.8 1 6.7 2 14.3 2 17 2 6.5 1 7.5-11 8.5-5 .4-10 1.3-12 2-3 1.3-3 1.4 2 .8 2-.3 8-.9 12-1.4l7-.9v7.9l-12 .3-12 .2 11 .6c6 .5 11 1.3 11 2 0 6.5-4 10.2-7 7-2-1.8-16-6.3-16-5.2 0 .6 2 1.5 3 1.9 3 .7 14 5.3 16 6.5 0 .1-2 3.3-4 7.1-3 3.9-5 7.4-5 7.7 0 .4-1 2.9-3 5.7-3 4-3 6.6-3 12.9 0 4.4-1 8.9-1 10-1 3-4 2.4-5-1.1-1-4-2-3.1-3 1.8-1 3.8-6 8.8-8 8.8-1 0-3-2.3-3-5.1zM228 608c3-3.6 5-4 5-1.2 0 1.1-1 2.5-3 3.1-5 1.9-5 1.6-2-1.9zm-33 7.5c-6-3.1-8-5.4-12-13.2-7-13.2-14-27.9-18-34.9-2-3.7-8-11.2-13-16.9-10-10.3-16-18.7-16-21.5 0-3.8-6-13.1-9-14.8-2-1-6-3.8-9-6-2-2.3-6-5.2-9-6.4-4-1.9-5-2.8-5-6.4 0-5.4 3-6.5 8-3.7 6 2.6 6 2.5 6-1 0-1.8-2-5.5-6-9.3-5-6.5-6-9-3-9 1 0 2-1.1 3-2.5 2-3.6 4-3 7 1.6 4 8.3 9 14.7 12 14.7s3-1.3-1-4.9c-2-1.8-3-4.3-3-6.4 0-1.9-1-5.5-2-8.1-1-2.5-2-4.8-2-5 1-.3 3-1.3 5-2.4 5-1.9 5-1.9 6 .9 1 1.5 2 5.4 2 8.6 1 6 4 9.8 5 7.3 1-.8 0-2.2 0-3.2-1-.8-2-3.8-1-6.5 0-4.7 0-4.7 6-4.7h5l1 15c0 8.2 1 17 2 19.4 3 7.6 12 18.7 21 27.8 10 10 11 12.4 5 16.5-3 1.4-4 2.9-4 3.4 0 1.5 12 1.1 13-.2 1-2.4 2-.2 3 5.8 2 12.4 7 21.6 15 26.6 13 8.9 19 23.9 12 34.3-3 5.2-4 5.4-13 6.4-5 .5-8 .2-11-1.3zm199 .6c0-2.2 1-2.3 3-1.2 1 .7 2 1.9 2 2.5 0 .7-1 1.2-2 1.2-2 0-3-.8-3-2.5zm-27 116.5c0-1.1 2-2.2 3-2.5 3-.5 4 .9 2 3.3-3 2.2-5 1.8-5-.8zm10 4.8c1-.7 2-1.3 2-1.3 1 0 2 .6 2 1.3 0 .6-1 1.2-2 1.2s-2-.6-2-1.2zm11 2.5c0-.7 1-1.3 2-1.3s2 .6 2 1.3c0 .6-1 1.2-2 1.2s-2-.6-2-1.2zm24 0c0-1.4-1-2.5-2-2.5-2 0-1-3.3 2-5.7 2-2.1 3-5.6 2-5.6-2 0-10 7.3-12 10.3-2 4.3-6 4.5-7 .3-2-4.1-2-4 1-4.7 2-.6 4-4.1 3-5.3-1-.8-10 4-12 6.3-1 1.5-2 1.6-3 .5-3-2.1-3-5.8 0-6.5 3-.6 5-4.1 4-5.4-1-.4-3 .8-6 2.6-4 2.5-6 2.9-8 1.9-3-1.6-3-2.9 0-5.2 2-1.8 13-7.3 15-7.3s22-10.9 28-15.4c17-11.6 17-18.7 3-40.9-5-7.5-9-12.4-13-16.7-5-5.6-7-22.3-3-25.7 2-2.3 12-3 17-1.4 4 1.5 6 .9 4-1.6-5-6.3-6-8.4-5-9 2-2.6 30 1.1 34 4.6 0 .6 2 1.1 3 1.1 3 0 4 1.4 8 19.4 1 6.8 1 7.9-1 10.6-1 1.8-2 4.8-3 6.7-2 4.1-2 16.2-1 19.3 1 1.2 4 7.5 8 14.2l5 11.8-4 6c-4 6.4-10 11.4-21 17.1-8 4.3-17 12.3-22 20.4-6 8.3-12 10.9-14 5.8zm-8 2c0-2.3 2-3.7 4-2.7 1 .5 1 1.5 0 2.7-3 2.2-4 2.2-4 0zm-192 11c0-1.2 1-2.4 2-2.8 1-.4 2 .3 1 1.8 0 1.1-1 2.3-2 2.7-1 .4-1-.2-1-1.7zm294 1.8c0-.6 0-.8 1-.5 1 .4 1 1 1 1.4 0 .3 0 .5-1 .5s-1-.6-1-1.4zm-286 5.8c1-1 2-1.9 3-1.9 2 0 2 2-1 3-2 1.1-3 1-2-1.1zm329 1.9c0-.7 1-1.3 2-1.3 0 0 1 .6 0 1.3 0 .6-1 1.2-1 1.2s-1-.6-1-1.2zm-307-1.9c-2-1.8-3-3.1-4-3.1-3 0-1-3.3 3-4.8 2-1 3-2.5 3-3.5 0-2.1 0-2.1-5 .1-2 1-6 3.3-7 5-2 3-6 4.3-6 2 0-.6-2-1.5-3-1.8-3-.8-3-1 2-5.7 7-5.6 5-8.3-1-3.5-4 2.7-5 2.9-8 1.7-4-1.9-4-3 2-5.3 12-5.2 20-9.6 22-12.7 9-12.7 17-42.9 19-70.1 1-13.8 2-20.2 5-20.2 1 0 2 .8 2 1.5 0 2.4 5 8.9 7 8 0-.3 1-2.8 2-5.6 0-3.9 12-22.7 18-30 0-1 4 2.8 4 4.8s5 7.6 6 7.6 1-3.5 1-7.9c0-8 2-13.5 15-35 3-5.5 7-7.9 7-4.4 0 2 6 8.5 8 8.5 1 0 2-2.2 2-8 0-7.3 0-8.5 4-13.5 7-8.7 10-13.9 12-19.8l2-5.5 7-.9c5-.4 11-2.1 15-3.9 5-1.8 9-2.6 10-2 2 .5 11 1 21 1 16 0 20-.3 26-2.5 15-5.3 20-6.3 30-5.6 13 1 25 2.8 37 5.1 6 1 15 2.5 21 3.2 7 .7 15 1.7 20 2.5 31 4.3 58 2.1 74-5.8 5-2.9 15-12.7 18-17.2 6-14.8 3-29.3-9-40.5-6-5.3-12-8.7-22-11.5-10-3-38 .7-76 10.1-3 .5-7 1.6-10 2.2-3 .8-11 2.8-17 4.5-14 4.2-17 4.9-33 8-8 1.5-16 3.3-20 4-8 2-36 1.9-42-.1-10-3.2-20-8.7-25-13.4-10-10.8-14-24.8-8-35.7 5-9.5 18-19.7 30-24 8-2.5 53-6.5 56-4.7 1 .3 0 1.7-1 3.1-2 1.9-3 2.2-7 1.6-5-.9-13 .3-32 3.9-14 2.6-26 7.5-31 12.1-12 11.1-9 30.1 6 39.2 3 2.3 10 4.7 13 5.5 4 .8 9 1.9 10 2.5 4 1.5 16 1.4 24-.1 13-2.1 43-8.5 48-9.7 32-9 36-10.2 64-15.2 3-.6 10-2 15-3.2 8-1.6 14-2 25-1.5 18 .7 26 2.9 37 10 15 9.2 23 22.1 23 36.9 0 26-16 41.5-52 50-11 2.6-41 4.2-58 3.1-16-1.1-17-1.4-21-4.9l-3-3.6 4 8.7c9 17.5 11 24.5 12 49.9 1 19.2 2 21.6 5 27.2 5 8.9 16 16.8 27 19.2 5 1.2 8 5.8 6 11.6-1 2.5-2 12.2-2 21.5 0 9.2-1 20.2-2 24.3-1 4.2-2 16.8-2 28.2-1 27-3 32.7-10 25.7-2-2.7-3-3.4-1-5.4 1-1.2 2-3.3 2-4.6 0-2.1-1-1.9-5 1.9-2 2.2-5 5.5-5 7.1-2 4.4-5 4.8-9 1l-3-3.4 3-3.1c3-2.7 5-5.5 3-5.5s-11 6.5-11 7.9c-2 6.6-2 6.6-6 2.9-3-3.4-3-3.4 0-5.3 10-7.9 9-10.6-2-3.7-7 5.1-8 5.2-10 2.6-2-2.4 0-5.6 3-5.6 4 0 15-9.5 18-14.7 1-3.7 2-7.6 2-17.6 0-7-1-14.9-2-17.5-1-2.5-2-8.2-3-12.5-3-10.7-9-16.6-20-22.1-5-2.4-10-4.4-11-4.4-3 0-17-7.3-20-10.6-4-3.9-8-11.1-10-20.6-3-14.9-11-34-17-41.9-4-5.2-3-.5 1 7.6 6 10.2 6 13.7 2 12.5-15-4.2-17-4.6-28-4-19 1.2-33 4.5-46 11.2-27 13.5-49 20.3-51 15.6-1-1.6 1-12 2-16.3 2-4.8-2-1.7-4 3.4-2 6-2 15.8 0 24.3 1 4.6 1 6.8 0 9.1-2 4-10 13.2-15 18.6-18 18.1-20 21.4-30 48-4 9.2-4 11.1-7 17.6-1 2.8-3 10-3 15.9-1 6-1 11.1-2 11.2 0 .3-2 1.7-5 3.2l-5 2.7-4-3.5c-2-1.9-4-3.7-4-4.1 0-.4 2-1.9 4-3.5 4-3.4 3-5.9-2-3.4-4 2.4-6 5.1-8 10.3l-1 4.1-3-3zm9 2.4v-.8c1 .9 1 2 0 2.4v-1.6zm1 7c2-1.4 4-2.5 6-2.5 4 0 15-6 16-8.9 1-1.3 2-3.5 2-5.3 0-3.6 5-8.3 9-8.3s6 2.2 6 7.1c0 6.9 2 5.2 6-5 0-1.9 1-6.5 1-10.3 0-7.5 2-8.8 4-3.5 3 7.9 10 12.3 9 5.9-1-3.6 2-20.5 3-20.5s2 1.4 4 3.1c4 4.3 7 4.3 5-.2-1-2.4-1-5.4 1-11.3 2-8 1-18.3-1-19.8-1-.4-1-1.3-1-1.9 1-.6 3 .5 6 2.5 5 3.7 9 5.4 12 4.4 1-.5 1-1.7-1-4.8-2-2.4-4-8.3-5-13.3-1-6.8-2-10.9-5-15l-5-5.8 3-2.6c3-3.5 5-8.1 5-13.5 0-4.4 0-4.4 4-3.6 8 1.8 11 4.3 14 13.3 0 1.3 1 2.3 2 2.3s4-10 4-14.1c0-4.2 0-4.5 6-3.3 2 .5 9 1.4 14 1.9l10 .9-5-4.4c-2-2.4-4-5-4-5.6 0-.8 3-1.7 8-2 4-.4 9-.9 10-1.2 2-.2 2 .5 3 4 1 5.5 3 9 9 17 7 9.2 16 25.3 18 31.4 2 5.1 2 5.5-1 9.7-2 2.5-7 6.9-12 9.9-8 5.1-13 7.4-32 16.4-10 4.4-13 7.6-13 12 0 .7-2 3.1-3 5.4-2 2.2-3 5-3 6 0 2.6 3 5.2 4 3.5 0-.7 2-1.3 4-1.3s3 .6 3 3c0 3.6 3 5.1 5 2.5 2-2.1 6-2.4 6-.2 0 .8 1 2.3 1 3.3 1 1.5 2 1.5 5-.2 4-3 10-2.8 11 .4 1 3.1 3 3.2 6 .1 2-1.9 3-2.3 6-1.8 6 .9 12-2.3 17-8.7 2-2.9 4-5.1 5-5 0 .1 1 3 2 6.2v6l4-4.1c7-6.1 9-5.5 8 2.9-1 3.7-1 6.9 0 6.9 2 0 10-9.3 12-14.2 2-2.6 3-6 3-7.5s1-3.5 1-4.3c1-2.2 3 2.1 3 8.6 0 9 1 7.5 8-7.9 3-7.4 3-9.2 3-16.2-1-4.4-2-11.9-2-16.7-1-5.6-2-10.4-4-13.7-7-11.7-8-15-8-22.5 0-5.1 0-8.7 2-11l2-3.2 5 5.2c6 5.6 12 9.1 27 14.3 8 3 13 5.6 18 10.2 2 1 4 4.8 5 8.1 6 15.9 8 31.4 6 42.5-1 9.3-5 13.4-16 19.1-7 4-13 12-13 18.8-1 4.6 1 5 5 2.1 4-2.4 7-1.5 7 1.9 0 3.7 2 4.2 6 1.5 4-2.5 8-2.3 8 .5 0 .9 0 2.2 1 3 2 1.1 3 .9 6-1.1 6-3.4 11-3.3 14 .2 2 2.4 3 2.6 4 1.3 1-.8 3-1.5 5-1.5 7 0 12-7.3 12-16.8 0-6.9 2-11.2 6-13.2 2-1.4 3-1.2 7 1.7 3 1.8 6 3.3 7 3.3 3 0 4-3.2 1-4.4 0-.4-1-3.5-1-6.9 0-3.4 0-7.6-1-9.4-2-5.1 0-5.8 5-2.3s15 5.5 15 3.1c0-.8-1-1.8-2-2.1-2-.9-4-6.7-5-15.8-1-4.5-2-7.1-5-10.6-6-6-4-8 4-4.9 9 3.4 14 4 14 1.6 0-1-1-2.1-2-2.5-1-.6-5-7.6-5-9.8 0-2.8-6-8.8-10-11-3-1.4-7-2.5-10-2.5s-7-.6-8-1.4c-3-1.4-3-2-3-7 1-8-1-10.9-9-13.6-13-3.9-21-9.8-25-17.3-2-5.1-4-16.2-5-35.6v-16.6l3 .9c6 2 14 2.1 18 .2 5-2.1 6-4.6 3-4.6-3-.1-8-3.4-6-4.5 0-.5 2-.3 4 .5 4 1.5 36 1.5 36 0 0-.5-2-2.1-5-3.5-11-5-13-8.7-5-8.7 5-.2 15-2.2 26-5.2 5-1.3 6-1.3 10 .5 3 1.2 9 2.8 13 3.5 10 1.8 13 3.8 16 9.4 2 4 2 4.2 4 2.2 2-2.6 2-18.7 0-19.8 0-.4-1-1.8-1-3 0-1.1-2-4.5-5-7.4-4-4.7-4-5.4-2-7.2 5-5.4 10-18.7 10-30.2 0-7.8-1-10.1-4-17.2-8-15.9-22-26.8-40-31.4-10-2.5-39-1.9-54 1.3-11 2.3-18 3.7-28 5.7-9 1.9-22 5-35 8.6-45 12.8-73 15.4-93 8.5-6-2.2-15-9.3-17-14.1-5-9.7 0-21 12-25.8 16-7.3 39-11.5 55-10.4 25 1.7 30 2.9 46 10.9 16 7.8 21 9.1 35 8.2 11-.7 16-2 28-7.5 3-1.7 10-4 14-5.1 9-2.4 16-1.1 21 3.7 5 6.3 6 2.8 1-5.2-6-7.8-9-11.1-15-13.8-3-1.2-5-2.6-5-3 0-1.1 11-11.7 16-14.8 2-1.8 8-3.5 15-4.7 19-3 28-8.8 31-18.5l1-3.5-6 3.9c-7 5.1-13 5.1-28-.1-9-3.1-13-4-21-4-11-.1-14 1.1-27 8.6-4 2.8-5 3-6 1.4 0-1 0-2.9 1-4.4 1-1.4 1-5.2 1-8.7 0-10.5-2-13.4-5-5.8-2 5.4-11 14.9-16 17.3-3 .8-10 2.5-16 3.3-15 2-22 5.3-34 15.7-13 11.1-15 11.6-56 13.8-24 1.4-37 6-49 17.7-14 12.8-17 27.4-7 44.1 4 7.2 9 12 18 16.6 19 8.9 40 10.6 63 5.2 3-.5 3-.1 3 1.8 0 3.5-5 7-13 9.4-4 1.1-8 2.6-9 3.2 0 1.4 12 3.1 21 2.9 9-.3 15-3 23-10 3-3.1 6-5.4 7-5 0 .4-1 3.2-3 6.4-3 5.7-8 9.8-16 14l-4 2.3 5 .4c2 .3 8-.7 12-2.1 3-1.3 10-3.4 14-4.5 9-2.5 18-6.8 23-11.1 5-4 6-4 8 0 3 5.3 11 9.2 22 10.3 5 .7 11 1.8 13 2.5 5 1.8 5 1.8 5-.1 0-.9-4-5-8-9.1-9-8.3-10-11.5-7-19.8 5-11.1 13-15.8 32-18.8 13-2 14-2 22 0 15 3.5 27 13.3 30 24.3 4 14.8-3 28.2-21 36.7-13 6.3-31 8.1-59 5.8-23-1.8-42-4.3-55-7s-36-4.7-45-4c-4 .4-11 2.3-16 4.2-7 2.8-10 3.3-24 3.8s-18 .3-22-1.3c-3-1.2-7-2-9-2-12 0-21-10.4-26-29.4-2-4.1-3-8.1-3-9 0-.9 2-2 5-2.9 9-2.5 11-5.5 4-6.7-5-1-10-5.8-14-16-2-4.8-6-12.3-8-16.9-2-4.7-5-10.6-7-13.2-3-3.7-3-5-2-5.8 1-.9 1-1.7 0-4.6-5-9.3-12-14.3-21-14.3-5 0-6-.3-7-2.6-1-4-4-7.4-9-10-6-2.7-12-3.4-9-.9 2 1.8 2 9.3 0 10.4-1 .4-2-.5-4-1.9-4-3.8-8-5.7-17-8.1-8-2-12-3.6-15-6.7-2-1.5-3-1.5-3 .6 0 5 1 9.9 2 11.4 0 .8 1 2.1 0 2.8-1 1.9-11 1.5-14-.6-2-1-4-1.7-4-1.9-2 0 1 7.7 3 10.2 3 2.5 2 4.8-1 4.8-4 0-11 4-15 8-5 4.3-6 6.3-2 5.2 1-.4 3-.3 3 .3 0 2-8 7.8-10 7.8-5 0-8 6.5-8 15 0 6.7 0 8.1-3 10.2-5 3.5-10 12.1-12 17.9-1 5.7-1 6.7 2 4 4-3.4 4-1 1 4.2-4 6-8 8.7-13 8.7-4 0-4 .1-2 2 2 2.3 14 5.7 16 4.7 3-1.1 4 1.3 2 8.4-1 3.7-2 8.9-2 11.4s-1 4.8-1 5.2c-2 1-23-21.6-27-28-2-4.7-3-8-3-22.1-1-15.8-1-16.6-4-20-2-2-4-4.3-4-4.9 0-1.5-7-5.5-9-5.5s-3 1.9-1 3.1c2 1.2 2 5.7 0 5.7-1 0-4-1.5-6-3.3-4-3.9-8-5.7-11-4.6-2 .6-2 1 0 3 2 2.1 2 2.7 1 5.6-1 1.9-2 4.3-2 5.4 0 1.1-1 1.7-2 1.5-1-.3-4-.9-7-1.4-3-.5-6-1.2-7-1.7-1-.4-3 0-4 1-3 1.7-3 1.8 0 4.5 2 1.6 3 4.1 3 6.3 0 2.8 1 5 4 8.2 3 2.2 5 4.5 5 4.7 0 1.3-12-.1-13-1.5-5-4.7-7 3.5-2 9.5 1 1.9 2 4.5 2 5.9 1 1.4 3 3.7 7 5.4 3 1.6 6 3.7 6 4.7 1 1 4 3.5 8 5.6 7 4 11 8.9 12 17 1 3.4 1 4.7-2 7.2-2 1.7-5 3.5-7 3.8-11 2.4-17 5.3-17 8.2 0 .5 2 1.2 4 1.7 3 .4 9 2.8 13 5.1 5 2.4 10 4.4 11 4.4 4 0 5 3.7 2 5.1-1 .6-2 2-3 3-1 .9-5 2.5-9 3.6-7 1.8-12 4.9-12 7.3 0 .5 3 1 6 1s6 .5 7 1.1c4 3.5 19 10.1 23 10.1 7 0 6 2.9-2 7.9-9 5.4-10 7.8-2 8 3 0 11 .5 17 1 8 .6 12 .5 15-.6 3-1.5 4-1.3 10 4.5 7 6.1 8 6.1 16 6.1 9 0 16-1.5 26-5.7 7-3.3 8-3 11 1.7 2 2.3 4 5.5 6 7.1 2 1.8 5 5.5 7 8.4 3 4.8 4 6.1 4 16.5 0 23.1-8 56.1-16 73.4-3 6.1-4 7-13 11-6 2.5-11 4.5-11 4.5-1 0-3 1.7-5 3.8-4 3.5-4 4.5-4 12.5 0 8.9 1 10.4 4 6.8 3-2.9 5-2.3 5 2.4 0 5.7 2 8 5 4.6 3-3.5 7-3.3 9 .5 1 3.5 5 4.1 6 1.2 1-2.8 9-2.3 11 .7 0 1.3 2 2.5 2 2.5 1 0 2-1.2 3-2.5zm125 130.4c-23-5-47-16.2-80-36.8-6-4.2-13-8.3-14-9.3-1-.9-8-6.2-15-11.7-22-16-40-32-62-53.9-26-25.7-42-44.2-63-73.1-36-50.2-60-99.7-70-146.9-7-30.9-6-17.3-7-266.8C66 174.7 66 70 67 68c0-2 16-2 325-2l324 1 1 218.6c0 160.3 0 223.6-1 236.8-2 21-6 44-10 58.7-1 2.4-2 6.9-3 10-1 3.2-2 6.2-2 6.9-1 .6-2 2.3-2 3.8s0 3.1-1 3.8c0 .7-2 3.9-3 7.4-6 15.8-24 51.8-31 62.1-1 1.8-2 3.7-2 4.2 0 2-32 48.1-36 51.8-1 .4-4 4.5-8 9.4-11 14.1-18 21.2-41 44.4-25 25.4-30 29.4-48 43.8-33 27.3-61 45.6-88 58.1-19 8.9-25 10.8-39 13.8-10 2.1-14 2-25-.3zM2372.46 120.736c-15.984-4.922-45.515-12.92-81.8-12.92-95.663 0-130.936 61.196-130.936 111.016 0 33.524 15.586 116.006 122.022 116.006 42.738 0 78.722-12.988 93.174-20.097v-47.988c0-13.48 4.922-23.01 23.064-23.01v-9.228c-10.144.273-22.45 1.23-41.822 1.23-19.674 0-31.98-.957-42.123-1.23v9.228c18.743 0 23.364 4.608 23.364 20.002v44.57c-11.074 8.34-25.21 13.536-39.977 13.536-49.205 0-92.313-43.613-92.313-113.162 0-46.745 24.61-87.952 82.784-87.952 47.975 0 74.416 23.065 76.563 55.344h8v-55.344zm-458.01 209.18c9.228-.616 25.826-.93 33.208-.93 7.383 0 23.995.314 33.21.93v-9.23c-19.374-1.845-25.212-4.92-25.526-27.67l-2.447-144.527 166.36 183.572h12.304v-186.99c0-17.228 5.468-24.61 25.566-24.884v-9.16c-12.03 0-24.336 1.367-34.18 1.367-9.57 0-21.875 0-33.223-1.367v9.16c22.15 0 26.524 7.93 26.524 26.387l.82 126.452-144.8-162c-8.927 0-17.84 1.368-24.61 1.368-8.612 0-20.602 0-33.208-1.367v9.16c19.988 0 25.525 7.656 25.525 24.883v150.707c0 17.226-5.537 24.61-25.526 24.91v9.228zm-153.126-86.134l28.287-79.037 33.21 79.037h-61.496zm-72.27 86.407c26.14-.958 29.217-.958 36.9-.958 7.383 0 10.46 0 36.9.957v-9.216c-19.058-.273-22.75-3.69-22.75-11.69 0-3.076.684-7.382 8.3-28.902l8.927-24.91h70.412l12.305 28.902c6.453 15.38 8.613 21.834 8.613 25.21 0 8.314-4.922 11.39-22.15 11.39v9.215c21.535-.275 34.755-.958 47.047-.958 12.304 0 25.853.547 47.045.957v-9.216c-15.997 0-23.352-4.922-31.35-22.764l-83.344-186.047h-5.223l-67.662 163.297c-16.9 41.207-22.75 44.284-43.97 45.514v9.215zm-175.192-209.454c18.758.615 25.826 3.377 34.44 22.15l50.435 108.54v44.858c0 17.226-5.537 24.61-25.525 25.02v9.16c24.596 0 35.055-1.368 44.898-1.368 9.83 0 20.29 0 44.913 1.367v-9.16c-20.002 0-25.54-7.793-25.54-25.02v-44.857l62.18-115.008c5.47-10.145 13.536-15.682 26.66-15.682v-9.23c-14.355.617-24.61.93-34.042.93-9.57 0-19.687-.313-34.18-.93v9.23c12.852 0 21.876 1.545 21.876 12.92 0 3.992-1.914 9.53-6.563 19.06l-40.55 82.112-32.595-72.885c-10.76-23.98-11.675-26.44-11.675-29.518 0-7.382 4.908-11.69 15.982-11.69h8.3v-9.228c-17.528.616-31.364.93-45.5.93-13.837 0-27.988-.314-53.513-.93v9.23zm-240.626 209.18c9.23-.616 25.826-.93 33.21-.93 7.382 0 23.993.314 33.208.93v-9.23c-19.373-1.845-25.21-4.92-25.525-27.67l-2.462-144.527L1478.04 332.06h12.306v-186.99c0-17.228 5.47-24.61 25.567-24.884v-9.16c-12.032 0-24.336 1.367-34.18 1.367-9.57 0-21.875 0-33.223-1.367v9.16c22.15 0 26.524 7.93 26.524 26.387l.82 126.452-144.8-162c-8.927 0-17.84 1.368-24.61 1.368-8.612 0-20.603 0-33.208-1.367v9.16c19.988 0 25.525 7.656 25.525 24.883v150.707c0 17.226-5.536 24.61-25.524 24.91v9.228zm-159.96-86.134l28.286-79.037 33.21 79.037h-61.497zm-72.27 86.407c26.14-.958 29.216-.958 36.9-.958 7.382 0 10.458 0 36.9.957v-9.216c-19.06-.273-22.75-3.69-22.75-11.69 0-3.076.683-7.382 8.298-28.902l8.928-24.91h70.41l12.305 28.902c6.454 15.38 8.614 21.834 8.614 25.21 0 8.314-4.92 11.39-22.148 11.39v9.215c21.533-.275 34.754-.958 47.045-.958 12.305 0 25.854.547 47.045.957v-9.216c-15.996 0-23.35-4.922-31.35-22.764l-83.343-186.047h-5.224l-67.662 163.297c-16.9 41.207-22.75 44.284-43.97 45.514v9.215zm-225.78-.275c9.23-.615 25.827-.93 33.21-.93 7.382 0 23.994.315 33.21.93v-9.228c-19.374-1.846-25.212-4.922-25.527-27.672L853.67 148.49l166.36 183.572h12.305v-186.99c0-17.228 5.468-24.61 25.566-24.884v-9.16c-12.03 0-24.336 1.367-34.18 1.367-9.57 0-21.875 0-33.222-1.367v9.16c22.15 0 26.524 7.93 26.524 26.387l.82 126.452-144.8-162c-8.927 0-17.84 1.368-24.608 1.368-8.614 0-20.604 0-33.21-1.367v9.16c19.99 0 25.526 7.656 25.526 24.883v150.707c0 17.226-5.537 24.61-25.525 24.91v9.228zm1405.474 262.5c15.6.507 21.48 2.818 28.643 18.417l41.946 90.276v37.325c0 14.355-4.61 20.507-21.234 20.78v7.657c20.467 0 29.162-1.367 37.338-1.367 8.19 0 16.885 0 37.352 1.367v-7.656c-16.64 0-21.233-6.426-21.233-20.78v-37.326l51.68-95.65c4.65-8.434 11.21-13.042 22.285-13.042v-7.67c-12.03.506-20.508.766-28.437.766-7.93 0-16.378-.26-28.396-.766v7.67c10.746 0 18.143 1.286 18.143 10.747 0 3.322-1.518 7.93-5.346 15.86l-33.77 68.277-27.11-60.608c-8.94-19.947-9.707-21.998-9.707-24.555 0-6.14 4.088-9.72 13.29-9.72h6.903v-7.67c-14.574.505-26.086.765-37.843.765-11.512 0-23.27-.26-44.503-.766v7.67zM2092.184 766.05c20.454-.506 29.15-.766 37.338-.766 8.19 0 16.872.26 37.338.766v-7.67c-16.625-.26-21.218-6.4-21.218-20.713V596.79h22.504c20.453 0 34.002 5.607 35.547 37.804h9.46l-1.53-50.654c-27.372 0-54.743 1.367-82.1 1.367-27.372 0-54.73 0-82.1-1.367l-1.532 50.654h9.462c1.545-32.197 15.094-37.803 35.547-37.803h22.503v140.877c0 14.314-4.594 20.453-21.22 20.713v7.67zm-133.984 0c20.466-.506 29.162-.766 37.338-.766 8.19 0 16.884.26 37.338.766v-7.67c-16.625-.26-21.22-6.4-21.22-20.713v-125.29c0-14.355 4.595-20.508 21.22-20.78v-7.657c-20.454 0-29.15 1.367-37.338 1.367-8.176 0-16.872 0-37.338-1.367v7.656c16.625 0 21.232 6.426 21.232 20.78v125.29c0 14.315-4.607 20.454-21.232 20.714v7.67zm-128.517-4.102c18.157 5.114 39.39 8.436 55.755 8.436 42.45 0 63.943-24.035 63.943-54.21 0-57.04-94.882-60.36-94.882-97.644 0-13.81 12.264-27.207 32.99-27.207 27.112 0 43.983 16.132 46.8 42.232h9.46l-1.53-45.24c-14.33-5.196-33.51-6.7-47.32-6.7-57.025 0-64.45 40.196-64.45 53.225 0 56.78 93.353 54.73 93.353 95.65 0 14.068-12.276 30.173-37.337 30.173-17.65 0-42.71-13.29-48.85-42.957h-9.98l2.05 44.242zm-181.836 4.102c20.453-.506 29.148-.766 37.338-.766 8.19 0 16.87.26 37.338.766v-7.67c-16.625-.26-21.22-6.4-21.22-20.713v-56.52c17.132.246 20.714 2.037 31.46 24.8l9.967 21.234c14.328 30.434 28.383 42.192 62.344 42.192 4.102 0 7.93-.26 11.895-.506v-6.138c-14.63-2.05-20.783-6.905-32.267-28.137l-32.006-58.816c24.814-7.684 35.56-27.11 35.56-44.502 0-25.047-14.068-47.332-58.57-47.332-16.625 0-33.51 1.367-50.135 1.367-9.46 0-19.688 0-31.705-1.367v7.656c16.625 0 21.22 6.426 21.22 20.78v125.29c0 14.315-4.595 20.454-21.22 20.714v7.67zm53.457-173.36c3.568-1.367 6.385-1.367 10.992-1.367 33.25 0 42.71 27.89 42.71 46.58 0 24.814-13.807 35.287-36.83 35.287-5.114 0-12.018-.82-16.872-1.777v-78.997zm-203.848 173.36c5.113-.26 20.453-.766 40.154-.766 40.155 0 72.625.506 97.385.766 0-13.043 2.324-34.535 3.828-46.8h-8.627c-6.138 32.226-24.308 37.08-50.394 37.08-24.036 0-28.89-6.386-28.89-18.157v-60.868h19.43c22.256 0 28.64 5.114 28.64 25.32h8.697c-.275-10.24-.548-19.947-.548-31.964 0-8.19.273-17.65.547-27.63h-8.697c-1.79 16.12-5.113 24.555-28.383 24.555h-19.687v-73.938h22.244c30.694 0 41.686 8.75 45.774 33.223h8.19l-.957-42.93c-23.79 0-55.235 1.367-94.364 1.367-13.044 0-25.58 0-34.276-1.367v7.656c16.625 0 21.232 6.426 21.232 20.78v125.29c-.07 14.315-4.675 20.454-21.3 20.714v7.67zm2.734-181.837c-14.574.506-22.764.766-29.928.766-7.15 0-15.34-.26-30.174-.767v7.67c10.992 0 17.91 1.79 17.91 9.72 0 4.608-2.05 10.487-4.347 17.392L1415.03 728.18l-45.774-102.02c-8.928-19.95-9.748-22-9.748-24.556 0-6.14 4.115-9.72 13.316-9.72h10.24v-7.67c-17.91.505-29.435.765-41.193.765-11.485 0-23.243-.26-40.88-.767v7.67c12.03.52 17.91 2.817 25.02 18.416l73.418 157.8h6.644l60.362-146.55c10.992-27.11 14.574-29.407 33.756-29.667v-7.67zM1226.752 766.05c20.466-.506 29.162-.766 37.338-.766 8.19 0 16.884.26 37.338.766v-7.67c-16.625-.26-21.22-6.4-21.22-20.713v-125.29c0-14.355 4.595-20.508 21.22-20.78v-7.657c-20.454 0-29.15 1.367-37.338 1.367-8.176 0-16.872 0-37.338-1.367v7.656c16.625 0 21.218 6.426 21.218 20.78v125.29c0 14.315-4.593 20.454-21.218 20.714v7.67zm-213.283 0c7.67-.506 21.478-.766 27.617-.766 6.138 0 19.947.26 27.63.766v-7.67c-16.12-1.545-20.972-4.102-21.232-23.024l-2.05-120.244 138.387 152.73h10.254V612.376c0-14.355 4.51-20.508 21.19-20.78v-7.657c-9.98 0-20.233 1.367-28.437 1.367-7.93 0-18.048 0-27.618-1.367v7.656c18.457 0 22.012 6.7 22.012 22.012l1.367 105.123-120.49-134.79c-7.423 0-14.834 1.367-20.466 1.367-7.15 0-17.13 0-27.618-1.367v7.656c16.625 0 21.22 6.426 21.22 20.78v125.29c-.548 14.315-5.142 20.454-21.767 20.714v7.67zm1.367-181.837c-9.967.26-20.207.766-28.383.766-7.93 0-18.157-.507-27.618-.767v7.67c18.663 0 21.985 6.658 22.245 21.998l.82 37.08c.274 11.252.548 21.492.548 35.806 0 44.557-15.846 73.13-60.348 73.13-28.643 0-52.87-20.643-52.87-59.06v-88.24c0-14.314 4.512-20.453 21.15-20.713v-7.67c-20.466.766-29.08.766-37.282.766-8.203 0-16.953 0-37.325-.767v7.67c16.543.26 21.192 6.4 21.192 20.713v81.84c0 54.797 36.094 75.17 83.344 75.17 56.26 0 71.86-37.6 72.378-74.91l.957-82.1c.274-14.314 4.594-20.453 21.22-20.713l-.03-7.67zm1287.895-64.258c3.063-.342 7.492-.506 12.592-.506 32.512 0 65.024.327 82.21.505l2.72-31.144h-5.783c-3.404 21.096-14.642 23.995-37.105 23.995-14.123 0-19.06-2.9-19.06-11.744v-83.398c0-9.53 3.064-13.617 14.124-13.78v-5.115c-13.618.342-19.4.52-24.856.52-5.442 0-11.225-.178-24.842-.52v5.114c11.06.165 14.123 4.252 14.123 13.782v83.4c0 9.528-3.062 13.616-14.123 13.794v5.1zm-95.704-47.852l15.655-43.75 18.39 43.75h-34.045zm-39.99 47.825c14.465-.547 16.16-.547 20.412-.547 4.088 0 5.784 0 20.426.548v-5.1c-10.555-.137-12.592-2.05-12.592-6.467 0-1.708.342-4.087 4.594-16.008l4.936-13.782h38.978l6.81 15.996c3.567 8.518 4.77 12.086 4.77 13.96 0 4.593-2.734 6.302-12.263 6.302v5.1c11.92-.138 19.235-.547 26.044-.547 6.808 0 14.3.41 26.03.548v-5.1c-8.845 0-12.92-2.734-17.35-12.605l-46.128-102.964h-2.898l-37.434 90.37c-9.365 22.806-12.605 24.515-24.336 25.198v5.1zm-6.494-114.817c-16.174-6.466-35.916-9.528-46.635-9.528-52.94 0-72.503 33.865-72.503 61.44 0 18.554 8.68 64.164 67.566 64.164 18.21 0 36.422-4.758 54.292-17.706l-1.532-20.07c-14.642 23.133-34.55 30.625-47.318 30.625-29.436 0-47.825-29.107-47.825-61.1 0-33.017 21.958-50.887 44.598-50.887 20.426 0 41.18 9.024 44.926 33.524h4.43v-30.46zM1986.91 519.956c13.618-.342 19.4-.506 24.856-.506 5.44 0 11.225.163 24.842.505v-5.1c-11.06-.177-14.123-4.265-14.123-13.794v-83.398c0-9.53 3.062-13.617 14.123-13.78v-5.115c-13.617.342-19.4.52-24.842.52-5.455 0-11.238-.178-24.856-.52v5.114c11.06.165 14.124 4.252 14.124 13.782v83.4c0 9.528-3.063 13.616-14.124 13.794v5.1zm-20.507-116.21c-8.846-2.722-25.184-7.152-45.268-7.152-52.938 0-72.516 33.866-72.516 61.442 0 18.553 8.68 64.162 67.566 64.162 23.666 0 43.586-7.136 51.584-11.06v-26.55c0-7.493 2.72-12.77 12.756-12.77v-5.1c-5.62.137-12.414.683-23.147.683-10.884 0-17.706-.547-23.312-.683v5.1c10.377 0 12.934 2.556 12.934 11.074v24.678c-6.125 4.594-13.96 7.493-22.12 7.493-27.236 0-51.066-24.17-51.066-62.644 0-25.867 13.618-48.672 45.788-48.672 26.55 0 41.18 12.77 42.37 30.64h4.43v-30.64zm-267.97 54.687c0 37.105 32.512 62.808 69.275 62.808 41.7 0 67.06-29.79 67.06-62.808 0-37.106-32.51-62.81-69.274-62.81-41.7 0-67.06 29.792-67.06 62.81m25.183-7.493c0-42.206 26.55-48.85 37.447-48.85 29.79 0 48.508 30.816 48.508 63.834 0 42.205-26.55 48.85-37.447 48.85-29.778 0-48.508-30.817-48.508-63.835m-124.99 69.015c3.063-.342 7.493-.506 12.593-.506 32.51 0 65.023.327 82.21.505l2.72-31.144h-5.784c-3.404 21.096-14.642 23.995-37.105 23.995-14.122 0-19.058-2.9-19.058-11.744v-83.398c0-9.53 3.063-13.617 14.123-13.78v-5.115c-13.617.342-19.4.52-24.855.52-5.442 0-11.225-.178-24.842-.52v5.114c11.06.165 14.123 4.252 14.123 13.782v83.4c0 9.528-3.062 13.616-14.122 13.794v5.1zm-146.29-61.523c0 37.105 32.513 62.808 69.277 62.808 41.7 0 67.06-29.79 67.06-62.808 0-37.106-32.51-62.81-69.275-62.81-41.7 0-67.062 29.792-67.062 62.81m25.184-7.493c0-42.206 26.564-48.85 37.447-48.85 29.79 0 48.507 30.816 48.507 63.834 0 42.205-26.55 48.85-37.447 48.85-29.778 0-48.508-30.817-48.508-63.835m-161.903 69.015c5.1-.342 14.3-.506 18.388-.506 4.074 0 13.275.163 18.375.505v-5.1c-10.72-1.025-13.96-2.734-14.123-15.326l-1.368-79.995 92.08 101.61h6.81V417.662c0-9.53 3.062-13.617 14.123-13.78v-5.115c-6.63.178-13.44.52-18.895.52-5.264 0-12.086-.41-18.375-.547v5.113c12.25 0 14.643 4.416 14.643 14.63l.505 69.986-80.172-89.703c-4.934.178-9.87.52-13.602.52-4.772 0-11.416-.342-18.39-.52v5.114c11.062.165 14.124 4.253 14.124 13.782v83.4c0 9.528-3.063 13.616-14.123 13.794v5.1zm-155.86 0c13.616-.342 19.4-.506 24.855-.506 5.44 0 11.224.163 24.84.505v-5.1c-11.06-.177-14.122-4.265-14.122-13.794v-41.863h63.82v41.864c0 9.53-3.062 13.618-14.122 13.796v5.1c13.618-.343 19.4-.507 24.856-.507 5.442 0 11.225.163 24.842.505v-5.1c-11.06-.177-14.123-4.265-14.123-13.794v-83.398c0-9.53 3.063-13.617 14.123-13.78v-5.115c-13.617.342-19.4.52-24.842.52-5.455 0-11.238-.138-24.855-.547v5.113c11.06.192 14.124 4.28 14.124 13.81v34.384h-63.82v-34.385c0-9.53 3.062-13.617 14.122-13.78v-5.115c-13.617.342-19.4.52-24.84.52-5.457 0-11.24-.178-24.857-.52v5.114c11.06.165 14.122 4.253 14.122 13.782v83.4c0 9.528-3.062 13.616-14.123 13.794v5.1zm-12.306-114.844c-16.174-6.466-35.916-9.528-46.635-9.528-52.938 0-72.503 33.865-72.503 61.44 0 18.554 8.682 64.164 67.567 64.164 18.21 0 36.422-4.758 54.29-17.706l-1.53-20.07c-14.643 23.133-34.55 30.625-47.32 30.625-29.435 0-47.823-29.107-47.823-61.1 0-33.017 21.958-50.887 44.6-50.887 20.424 0 41.178 9.024 44.925 33.524h4.43v-30.46zm-222.99 114.845c3.406-.178 13.618-.506 26.716-.506 26.73 0 48.344.327 64.846.505 0-8.682 1.545-22.982 2.557-31.144h-5.784c-4.088 21.438-16.174 24.678-33.538 24.678-15.996 0-19.222-4.252-19.222-12.086v-40.51h12.933c14.807 0 19.06 3.405 19.06 16.858h5.796c-.14-6.81-.275-13.276-.275-21.274 0-5.455.138-11.744.274-18.388h-5.798c-1.19 10.732-3.404 16.338-18.895 16.338H960.04v-49.192h14.806c20.426 0 27.74 5.797 30.46 22.135h5.443l-.685-28.603c-15.818.178-36.75.52-62.795.52-8.682 0-17.022-.342-22.805-.52v5.114c11.06.165 14.123 4.252 14.123 13.782v83.4c0 9.528-3.062 13.616-14.123 13.794v5.1zm-86.542 0c13.617-.342 19.4-.506 24.842-.506 5.455 0 11.238.163 24.855.505v-5.1c-11.06-.177-14.124-4.265-14.124-13.794v-93.775h14.97c13.618 0 22.642 3.746 23.667 25.184h6.29l-.958-33.703c-18.266.178-36.49.684-54.7.52-18.212-.138-36.423-.41-54.634-.547l-.956 33.7h6.29c.956-21.436 10.048-25.182 23.665-25.182h14.97v93.775c-.054 9.557-3.118 13.645-14.178 13.823v5.1z"/></svg>