<svg xmlns="http://www.w3.org/2000/svg" viewBox="0 0 333 95"><path d="M314.89 58.474c-2.38 0-4.26-.55-5.81-2.046l1.38-1.38c1.12 1.18 2.65 1.64 4.4 1.64 2.34 0 3.77-.834 3.77-2.504 0-1.235-.71-1.926-2.35-2.07l-2.34-.2c-2.76-.232-4.23-1.47-4.23-3.8 0-2.59 2.19-4.145 5.21-4.145 2.02 0 3.83.49 5.1 1.524l-1.36 1.353c-1.01-.776-2.3-1.122-3.77-1.122-2.07 0-3.16.892-3.16 2.33 0 1.21.69 1.928 2.47 2.072l2.28.202c2.47.23 4.17 1.178 4.17 3.826 0 2.735-2.33 4.318-5.76 4.318zm-10.26-.173l-4.49-7.25-2.77 3.165V58.3h-2.07V37.81h2.07v13.698l6.39-7.366h2.59l-4.8 5.41 5.64 8.75zm-13.24-11.454c-.77-.776-1.35-1.036-2.45-1.036-2.07 0-3.39 1.64-3.39 3.798V58.3h-2.07V44.142h2.07v1.726c.77-1.18 2.33-1.9 3.97-1.9 1.35 0 2.39.317 3.4 1.323zM277.61 56.86c-.98.977-2.33 1.613-4.06 1.613-1.73 0-3.08-.636-4.06-1.612-1.43-1.466-1.72-3.452-1.72-5.64 0-2.187.29-4.172 1.72-5.64.98-.978 2.33-1.612 4.06-1.612 1.73 0 3.08.635 4.06 1.612 1.44 1.468 1.73 3.454 1.73 5.64 0 2.188-.29 4.175-1.73 5.64zm-1.47-10.014c-.66-.66-1.58-1.036-2.59-1.036-1 0-1.9.375-2.56 1.036-1.03 1.036-1.15 2.792-1.15 4.375 0 1.583.12 3.34 1.15 4.375.66.662 1.56 1.035 2.56 1.035 1.01 0 1.93-.373 2.59-1.035 1.04-1.034 1.12-2.792 1.12-4.374 0-1.58-.1-3.338-1.12-4.374zM261.59 58.3h-1.93l-3.71-10.993-3.68 10.994h-1.93l-4.49-14.158h2.24l3.26 11.368 3.71-11.368h1.78l3.74 11.368 3.23-11.368h2.24zm-18.76 0c-2.42 0-3.63-1.7-3.63-3.798v-8.69h-1.78v-1.584h1.78v-4.432h2.08v4.432h3.02v1.583h-3.02v8.635c0 1.295.6 2.07 1.92 2.07h1.1V58.3zm-17.63-6.53c0 3.106 1.47 4.89 4.17 4.89 1.64 0 2.59-.488 3.71-1.612l1.41 1.24c-1.44 1.437-2.76 2.187-5.18 2.187-3.74 0-6.19-2.246-6.19-7.253 0-4.575 2.22-7.252 5.82-7.252 3.65 0 5.81 2.648 5.81 6.85v.95h-9.55zm7.05-3.916c-.55-1.295-1.82-2.13-3.31-2.13-1.5 0-2.77.835-3.31 2.13-.32.776-.38 1.21-.43 2.36h7.48c-.1-1.15-.12-1.584-.43-2.36zM217.46 58.3v-8.72c0-2.504-1.36-3.77-3.48-3.77-2.14 0-3.52 1.295-3.52 3.77v8.72h-2.07V44.143h2.07v1.553c1.01-1.152 2.39-1.727 3.97-1.727 1.53 0 2.77.46 3.63 1.323 1.01.98 1.47 2.305 1.47 3.944V58.3h-2.07zm-22.33-5.896c0 1.88 1.15 3.254 3.2 3.254 1.6 0 2.38-.448 3.31-1.374l2.22 2.16c-1.49 1.487-2.92 2.3-5.56 2.3-3.45 0-6.76-1.57-6.76-7.49 0-4.77 2.58-7.465 6.37-7.465 4.06 0 6.37 2.974 6.37 6.988v1.627h-9.15zm5.22-4.07c-.4-.87-1.21-1.515-2.44-1.515-1.24 0-2.05.645-2.44 1.514-.23.533-.31.927-.34 1.572h5.56c0-.645-.12-1.04-.34-1.572zm-18.32 15.77c-2.25 0-3.79-.448-5.31-1.906l2.28-2.303c.81.786 1.62 1.123 2.86 1.123 2.19 0 2.94-1.544 2.94-3.03V56.5c-.95 1.067-2.05 1.46-3.48 1.46-1.43 0-2.66-.477-3.48-1.29-1.37-1.376-1.48-3.256-1.48-5.81s.11-4.407 1.48-5.782c.82-.813 2.08-1.29 3.51-1.29 1.55 0 2.56.42 3.56 1.543v-1.374h3.54v14.087c0 3.51-2.49 6.062-6.42 6.062zm.36-17.033c-2.16 0-2.38 1.855-2.38 3.79s.22 3.815 2.38 3.815c2.16 0 2.42-1.88 2.42-3.814 0-1.935-.26-3.79-2.42-3.79zm-12.62 11.507v-1.263c-.98.983-1.91 1.403-3.59 1.403-1.66 0-2.87-.42-3.73-1.29-.79-.814-1.21-1.993-1.21-3.284 0-2.33 1.6-4.237 4.99-4.237h3.45v-.73c0-1.6-.78-2.3-2.72-2.3-1.4 0-2.05.337-2.8 1.207l-2.33-2.273c1.43-1.57 2.83-2.02 5.27-2.02 4.1 0 6.23 1.74 6.23 5.164v9.625h-3.56zm-.1-6.173h-2.89c-1.31 0-2.04.616-2.04 1.655 0 1.01.67 1.684 2.1 1.684 1.01 0 1.66-.09 2.3-.702.39-.366.53-.956.53-1.854zm-14.77 6.173V57.23c-.95 1.01-2.3 1.515-3.65 1.515-1.46 0-2.63-.478-3.45-1.29-1.18-1.18-1.49-2.555-1.49-4.152v-9.346h3.65v8.84c0 1.993 1.27 2.665 2.42 2.665s2.44-.672 2.44-2.666v-8.84h3.65v14.62zm-15.71 0v-8.84c0-1.992-1.26-2.666-2.41-2.666-1.15 0-2.44.675-2.44 2.667v8.84h-3.65v-14.62h3.56v1.347c.96-1.01 2.3-1.515 3.65-1.515 1.46 0 2.64.476 3.45 1.29 1.18 1.178 1.49 2.553 1.49 4.153v9.345h-3.65zm-75.338 5.277h4.224v4.227h-4.224zm-7.407 7.406h4.22v4.227h-4.22zm7.407 0h4.224v4.227h-4.224zM41.63 63.854h4.22v4.227h-4.22zm7.408 0h4.22v4.227h-4.22zm59.262 0h4.22v4.227h-4.22zm-7.41 0h4.22v4.227h-4.22zm7.41-29.63h4.22v4.225h-4.22zm-7.41 0h4.22v4.225h-4.22zm-7.41 0h4.224v4.225H93.48zm-7.41 0h4.226v4.225H86.07zm-7.4 0h4.22v4.225h-4.22zm-7.41 0h4.222v4.225h-4.22zm44.45 22.22h4.22v4.23h-4.22zm-7.41 0h4.22v4.23h-4.22zm-22.23-7.407h4.226v4.23H86.07zm7.41 0h4.224v4.23H93.48zm7.41 7.408h4.22v4.228h-4.22zm-7.41 0h4.224v4.228H93.48zm-22.22-7.408h4.222v4.23h-4.22zm7.41 0h4.22v4.23h-4.22zm-7.41-7.404h4.222v4.22h-4.22zm7.41 0h4.22v4.22h-4.22zm7.4 0h4.226v4.22H86.07zm7.41 0h4.224v4.22H93.48zm-7.41 14.812h4.226v4.228H86.07zm-7.4 0h4.22v4.228h-4.22zm37.04-7.408h4.22v4.23h-4.22zm-44.45 7.408h4.222v4.228h-4.22zm29.63-7.408h4.22v4.23h-4.22zm7.41 0h4.22v4.23h-4.22zm-7.41-7.404h4.22v4.22h-4.22zm7.41 0h4.22v4.22h-4.22zm7.41 0h4.22v4.22h-4.22zm-22.23 22.22h4.224v4.228H93.48zm-14.81 0h4.22v4.228h-4.22zm0 7.407h4.22v4.227h-4.22zm7.4 0h4.226v4.227H86.07zm-14.81-7.406h4.222v4.227h-4.22zm14.81 0h4.226v4.227H86.07zm0-37.04h4.226v4.228H86.07zm0-7.403h4.226v4.225H86.07zM12 56.446h4.22v4.228H12zm7.406 0h4.22v4.228h-4.22zm7.407 7.41h4.225v4.226h-4.225zm-7.407 0h4.22v4.226h-4.22zm7.407-14.818h4.225v4.23h-4.225zm7.408 14.817h4.228v4.227H34.22zm0-14.817h4.228v4.23H34.22zm-7.407 7.408h4.225v4.228h-4.225zm7.408 0h4.228v4.228H34.22zM12 49.037h4.22v4.23H12zm7.406 0h4.22v4.23h-4.22zM12 41.633h4.22v4.22H12zm7.406 0h4.22v4.22h-4.22zm14.815-7.408h4.228v4.224H34.22zm-7.407 7.408h4.225v4.22h-4.225zM41.63 71.26h4.22v4.227h-4.22zm-7.41-29.627h4.228v4.22H34.22zm-7.407-7.408h4.225v4.224h-4.225zm14.816 22.22h4.22v4.228h-4.22zm7.408 0h4.22v4.228h-4.22zm7.407-7.408h4.22v4.23h-4.22zm7.407 0h4.224v4.23h-4.224zm-7.407 7.408h4.22v4.228h-4.22zm0 7.41h4.22v4.226h-4.22zm7.407-7.41h4.224v4.228h-4.224zM41.63 49.037h4.22v4.23h-4.22zm7.408 0h4.22v4.23h-4.22zm-7.41-7.404h4.222v4.22h-4.22zm7.41 29.742h4.22v4.22h-4.22zm0-29.742h4.22v4.22h-4.22zM71.26 71.26h4.222v4.227h-4.22zm-7.408 7.41h4.224v4.225h-4.224zm-14.814 0h4.22v4.225h-4.22zm7.407 0h4.22v4.225h-4.22zm7.407-44.445h4.224v4.224h-4.224zm-7.407 7.408h4.22v4.22h-4.22zm7.407 0h4.224v4.22h-4.224zM41.63 34.225h4.22v4.224h-4.22zm-7.41-7.41h4.228v4.227H34.22zm14.818 7.41h4.22v4.224h-4.22zm-7.41-7.41h4.222v4.227h-4.22zm-7.407-7.404h4.228v4.225H34.22zm14.818 7.405h4.22v4.227h-4.22zM56.445 12h4.22v4.228h-4.22zm22.224 7.41h4.22v4.225h-4.22zm-7.41 7.405h4.222v4.227h-4.22zm22.22 0h4.224v4.227H93.48zm-14.81 0h4.22v4.227h-4.22zM56.444 19.41h4.22v4.225h-4.22zm7.407 0h4.224v4.225h-4.224zm-7.407 7.405h4.22v4.227h-4.22zm0 7.41h4.22v4.224h-4.22zm7.407-7.41h4.224v4.227h-4.224zM41.63 19.41h4.22v4.225h-4.22zm7.408 0h4.22v4.225h-4.22zM41.628 12h4.222v4.228h-4.22zm7.41 0h4.22v4.228h-4.22z"/></svg>