<svg xmlns="http://www.w3.org/2000/svg" viewBox="0 0 1050 323"><path d="M997.5 163.1l5.5 22.5h-40.2v14.8h36.7l-6.1 22.5h-30.6v17.7h43.2l-6 22.4h-63.1v-99.9h60.6M841 263v-74.4h25.8V263zm-4.8-77.4l5.5-22.5H890c10.2 0 17.7 2.4 22.4 7.2 5.5 4.8 8.2 11 8.2 18.5 0 11.8-7.5 22.4-21.8 31.6 4.8 8.6 8.9 15.4 12.3 20.8 3.4 4.8 8.8 12.3 17 21.8l-22.5 15c-8.1-9.5-15.6-19.8-21.8-31.3-6.8-11.6-12.2-21.8-16.3-30.9.7 0 2.7-1.8 7.5-5.2 4.8-3.5 8.8-6.7 11.6-9.8 2.7-3 4.1-6 4.1-8.9 0-2.9-.7-4.6-2.8-5.2-2-.7-5.4-1.1-9.5-1.1h-42.2m-82.3 91c-4.1-6.1-8.2-13.6-10.9-21.8-3.4-8.1-4.8-17.6-4.8-27.2 0-9.9 2-19.5 5.4-29 3.4-9.5 9.6-17.5 18.4-23.9 3.4-2.7 7.5-5.1 11.6-6.8 4.1-1.8 8.8-3 13.6-3.8 4.8-.7 10.9-1 17.7-1h12.9l6.2 22.5h-20.5c-8.8 0-16.3 1.7-22.4 4.9-6.1 3.2-10.9 9.3-13.6 18.3h25.8v-20.2h26.6V263h-26.6v-32h-28.6c0 5.5 1.4 10.9 3.4 16.4 1.4 6.1 4.1 10.8 6.9 15.6l-21.1 13.6m-18.4-113.5L710.3 263h-28.6l-11.6-58.3h-.6L657.9 263h-28.6l-25.2-99.9h28.6l11.6 63.2 12.2-63.2h26.6l12.9 62.5h.7l10.2-62.5h28.6m-135.5 0l5.5 22.5h-27.2V263h-26.6v-77.4h-27.9l6.1-22.5H600m-141.5 93.1v-93.1h59.2l6.1 22.5h-39.5v16h35.4l-6.1 22.4h-29.3v24.7c0 6.1.7 10.9 2.1 14.3l-23.8 15c-1.4-2.7-2.8-6.1-3.4-9.5-.7-4.1-.7-8.2-.7-12.3m-78.3-53.4c0 8.8 2.1 17.2 5.5 25.5 3.4 7.5 7.4 11.6 11.5 11.6 3.4 0 6.8-2.1 8.9-6.2 2.7-4 4.7-8.8 6.1-14.9 1.4-5.9 2-11.3 2-16 0-12.4-5.4-18.6-17-18.6-5.4 0-9.5 1.4-12.9 4.4-2.7 2.9-4.1 7.6-4.1 14.2zm-27.9-1.9c0-13.2 3.4-23.2 10.2-29.9 7.5-6.7 19.1-10.1 34.7-10.1 15 0 25.9 3.2 34.1 9.4 7.4 6.3 11.5 16.4 11.5 30.4 0 7.2-1.3 14.5-3.4 22-2 7.6-4.7 14.5-8.1 20.6-4.1 6.8-8.9 11.5-14.3 15.6-5.5 4.1-12.3 6.2-19.8 6.2-6.8 0-12.9-2.1-18.3-5.5-5.5-3.4-10.3-8.2-14.3-14.3-4.1-6.1-7.5-12.9-9.6-20.4-2-8-2.7-15.9-2.7-24m-72.1 39.7h23.1c3.4 0 6.1-.7 7.5-.7 2-.7 2.7-1.4 2.7-2.7-.2-2.2-1.2-3.3-2.7-4.8l-2.1-2.1-17-20.2c-4.6-4.5-8.4-9.6-10.9-14.8-1.3-2.9-2-6-2-9.1 0-6.8 2.7-12.3 7.5-16.6 4.1-4.3 10.9-6.5 19.7-6.5h27.9l6.2 22.5h-21.8c-3.4 0-6.1 0-7.5.7-1.4.7-2.1 1.4-2.1 2.9 0 .9 0 1.6.7 2.3 0 .7 1.4 2.1 3.4 4.5l18.4 20.2c3.4 3.9 6.8 7.7 8.9 11.5 2 3.4 3.4 7.5 3.4 12.2-1.9 17-12.1 23-27.3 23.2h-30.6l-5.4-22.5m521.3-119.2h23.8c3.4 0 5.5 0 7.5-.7 1.4 0 2-1.3 2-2.7 0-.9 0-1.7-.6-2.5l-2.1-2.4c-.7-.8-1.3-1.5-2-2.1l-17-19.97c-2.8-2.93-4.8-5.38-6.8-7.42-1.4-2.04-2.8-4.49-4.1-7.42-1.4-2.92-2.1-5.99-2.1-9.19 0-6.73 2.8-12.25 7.5-16.53 4.8-4.29 10.9-6.47 19.8-6.47h27.9l6.1 22.53h-21.8c-3.4 0-6.1 0-7.5.68-1.3.68-2 1.36-2 2.79 0 .95 0 1.7.7 2.31 0 .68 1.3 2.18 3.4 4.56l18.3 20.22c4.1 3.91 6.8 7.71 8.9 11.31 2.7 3.7 3.4 7.9 3.4 12.7 0 5.2-1.4 9.4-3.4 12.7-2.7 3.3-5.5 5.8-9.5 7.5-4.1 1.6-8.9 2.5-14.3 2.5h-30l-6.1-22.5m-98-18.4c0-9.63 2-19.02 4.8-28.27 2.7-9.33 7.4-19.47 12.9-30.49h27.9c0 .68-1.4 3.4-4.1 8.57-2 5.17-4.8 10.48-6.8 15.93-2 5.44-4.1 11.09-5.4 17.08-1.4 5.92-2.1 11.5-2.1 16.68 0 6.7 1.4 11.6 4.8 14.6 3.4 2.9 8.1 4.4 14.3 4.4h9.5V44.14h26.5v99.66h-42.2c-14.2 0-23.8-3.7-30.6-11.1-6.1-7.4-9.5-17.4-9.5-29.8m-16.3-58.76l6.1 22.52h-40.2v14.77h36.8l-6.1 22.37h-30.7v17.6H696l-6.1 22.4h-62.6V44.14h59.9m-103.5 0v77.26h34l-6.1 22.4h-54.4V44.14h26.5M477.5 83.13c0-13.34 3.4-23.14 10.9-29.47 7.5-6.39 17-9.52 28.6-9.52h20.4l6.2 22.52h-20.5c-6.1 0-10.9 1.43-14.3 4.36-2.7 2.86-4.7 7.69-4.7 14.43 0 5.78 1.3 11.43 4.1 16.95 2.7 5.5 6.8 10.1 12.9 13.7 5.4 3.6 12.2 5.5 20.4 5.6h3.4l-6.1 22.4H534c-10.9 0-20.4-2.9-29.2-8.6-8.9-5.8-15.7-13.4-20.5-22.7-4.7-9.4-6.8-19.18-6.8-29.39m-96.6 19.49c0-9.63 1.4-19.02 4.1-28.27 3.4-9.33 7.5-19.47 12.9-30.49h27.9c0 .68-1.4 3.4-4.1 8.57-2 5.17-4.1 10.48-6.8 15.93-2 5.44-3.4 11.09-5.4 17.08-1.4 5.92-2.1 11.5-2.1 16.68 0 6.7 2.1 11.6 5.5 14.6 2.7 2.9 7.5 4.4 13.6 4.4h9.5V44.14h26.6v99.66h-42.2c-13.6 0-23.9-3.7-30-11.1-6.8-7.4-9.5-17.4-9.5-29.8m-16.3-58.76v99.66h-25.9v-29.2l-27.2-33.64h-.7v62.84h-25.9V44.14h24.5l29.3 34.03V44.14h25.9M239.3 161.1c0-63.47-51-115.74-115.7-115.26-30.6 0-58.5 11.98-79.6 32.73v-.68c23.14-23.82 50.36-33.28 79.6-33.55 65.4-.68 117.1 52.27 117.1 116.56 0 64.4-51.1 118.2-117.1 117.5-29.24-.7-56.46-10.2-79.6-34 21.1 20.4 49 32 79.6 32.6 64.7.7 115.7-52.4 115.7-115.7v-.6zm0 0c0-63.47-51-115.74-115.7-115.26-30.6 0-58.5 11.98-79.6 32.73v-.68c23.14-23.82 50.36-33.28 79.6-33.55 65.4-.68 117.1 52.27 117.1 116.56 0 64.4-51.1 118.2-117.1 117.5-29.24-.7-56.46-10.2-79.6-34 21.1 20.4 49 32 79.6 32.6 64.7.7 115.7-52.4 115.7-115.7v-.6M44 84.9c17.7-17.01 42.2-27.63 68.7-27.63 55.8 0 100.8 46.73 100.8 104.33 0 57.7-45 104.1-100.8 104.1-26.5 0-51-10.2-68.7-27.2 17.7 16.3 41.52 25.9 67.4 25.9 55.1 0 100.7-45.9 100.7-102.7 0-56.7-45.6-102.66-100.7-102.66-25.88 0-49.7 9.67-67.4 25.86zm0 0c17.7-17.01 42.2-27.63 68.7-27.63 55.8 0 100.8 46.73 100.8 104.33 0 57.7-45 104.1-100.8 104.1-26.5 0-51-10.2-68.7-27.2 17.7 16.3 41.52 25.9 67.4 25.9 55.1 0 100.7-45.9 100.7-102.7 0-56.7-45.6-102.66-100.7-102.66-25.88 0-49.7 9.67-67.4 25.86m0 4.43v-.68c16.33-13 38.11-21.24 59.9-19.54 49 2.93 87.8 43.79 87.1 91.29.7 48-36.1 90.2-87.1 92.2-23.83.7-43.57-6.8-59.9-19.7v-.7c17.7 12.2 36.07 19.7 58.5 19 49-2.7 83.7-40.2 85.8-90.9-.7-45.5-38.8-85.2-84.4-89.08-23.15-1.9-42.2 6.2-59.9 17.9zm0 0v-.68c16.33-13 38.11-21.24 59.9-19.54 49 2.93 87.8 43.79 87.1 91.29.7 48-36.1 90.2-87.1 92.2-23.83.7-43.57-6.8-59.9-19.7v-.7c17.7 12.2 36.07 19.7 58.5 19 49-2.7 83.7-40.2 85.8-90.9-.7-45.5-38.8-85.2-84.4-89.08-23.15-1.9-42.2 6.2-59.9 17.9m0 5.38v-.75c12.93-10.34 30.63-14.7 49.68-14.02 40.82 1.43 75.52 37.87 74.82 80.97 0 42.4-32.6 79.2-75.5 80.5-18.37 1.4-33.35-2-49-14.3v-.6c15.65 9.5 29.27 13.6 47.64 12.2 41.56-3.4 72.86-36.4 72.86-77.7.6-42.9-34.7-76.51-71.5-78.89-19.05-1.23-34.71 3.61-49 12.59zm0 0v-.75c12.93-10.34 30.63-14.7 49.68-14.02 40.82 1.43 75.52 37.87 74.82 80.97 0 42.4-32.6 79.2-75.5 80.5-18.37 1.4-33.35-2-49-14.3v-.6c15.65 9.5 29.27 13.6 47.64 12.2 41.56-3.4 72.86-36.4 72.86-77.7.6-42.9-34.7-76.51-71.5-78.89-19.05-1.23-34.71 3.61-49 12.59m0 7.1v-1.72c11.57-8.1 25.86-10.69 41.52-9.46 33.38 2.65 63.98 32.68 63.28 70.38 0 37.2-26.5 66.8-63.96 70.9-13.62.7-27.23-.7-40.84-9.7v-1.5c13.61 7.8 25.18 9.2 40.15 8.5 36.05-5.7 59.25-33.8 59.25-68.3-.7-37.5-27.9-63.34-58.56-66.95-15.66-1.63-29.27 1.16-40.84 7.85zm0 0v-1.72c11.57-8.1 25.86-10.69 41.52-9.46 33.38 2.65 63.98 32.68 63.28 70.38 0 37.2-26.5 66.8-63.96 70.9-13.62.7-27.23-.7-40.84-9.7v-1.5c13.61 7.8 25.18 9.2 40.15 8.5 36.05-5.7 59.25-33.8 59.25-68.3-.7-37.5-27.9-63.34-58.56-66.95-15.66-1.63-29.27 1.16-40.84 7.85m0 7.3v-3.1c10.89-6.47 21.78-7.63 34.03-5.86C105.3 104 129.8 128 129.8 161.3c-.7 31.8-21.8 56-52.45 61-10.21 1.4-22.46.9-33.35-5.2v-3.4c8.85 4.3 23.14 5.5 32.67 3.6 28.63-6.1 45.63-28.1 46.23-56.3.7-31.1-23.77-52.3-45.55-56.1-10.89-2.4-24.5-.7-33.35 4zm0 0v-3.1c10.89-6.47 21.78-7.63 34.03-5.86C105.3 104 129.8 128 129.8 161.3c-.7 31.8-21.8 56-52.45 61-10.21 1.4-22.46.9-33.35-5.2v-3.4c8.85 4.3 23.14 5.5 32.67 3.6 28.63-6.1 45.63-28.1 46.23-56.3.7-31.1-23.77-52.3-45.55-56.1-10.89-2.4-24.5-.7-33.35 4m0 7.2v-3.2c6.13-3.4 18.38-4.7 27.22-2.6 21.78 5 41.48 23.5 41.48 50.6-.6 25.8-16.98 46.7-41.48 50.8-7.48 1.2-18.37 2-27.22-2.2v-4.1c6.81 3.2 19.74 2 25.86 0 21.78-7.3 32.64-23.2 34.04-44.7 0-25.4-17.7-39.6-33.36-45-6.8-2-19.73-3.3-26.54 0zm0 0v-3.2c6.13-3.4 18.38-4.7 27.22-2.6 21.78 5 41.48 23.5 41.48 50.6-.6 25.8-16.98 46.7-41.48 50.8-7.48 1.2-18.37 2-27.22-2.2v-4.1c6.81 3.2 19.74 2 25.86 0 21.78-7.3 32.64-23.2 34.04-44.7 0-25.4-17.7-39.6-33.36-45-6.8-2-19.73-3.3-26.54 0m0 10v-6.2c6.13-1.7 14.29 0 19.74 1.8 12.93 4.4 27.9 17.6 28.58 38.9-.68 21-10.89 33.9-27.9 40.5-5.45 2-15.66 3.7-20.42 1.1V196c4.08 1.7 14.29 0 17.7-2.7 12.25-6.6 19.05-18.2 19.73-32 0-16.1-10.21-27.9-19.73-32.2-2.73-2-12.94-4.4-17.7-3.4zm0 0v-6.2c6.13-1.7 14.29 0 19.74 1.8 12.93 4.4 27.9 17.6 28.58 38.9-.68 21-10.89 33.9-27.9 40.5-5.45 2-15.66 3.7-20.42 1.1V196c4.08 1.7 14.29 0 17.7-2.7 12.25-6.6 19.05-18.2 19.73-32 0-16.1-10.21-27.9-19.73-32.2-2.73-2-12.94-4.4-17.7-3.4m0 7.7v55.8c17.01-1.5 27.22-13.2 27.22-29.2-.68-15.7-13.61-27.6-27.22-26.6zm0 0v55.8c17.01-1.5 27.22-13.2 27.22-29.2-.68-15.7-13.61-27.6-27.22-26.6"/></svg>