<svg xmlns="http://www.w3.org/2000/svg" viewBox="-89 0 420 200"><path d="M-48.848 182.437v-11.133h1.666v1.592c.8-1.238 1.974-1.843 3.48-1.843.663 0 1.25.12 1.827.354.548.25.964.553 1.227.973.285.37.48.847.588 1.378.068.35.103.976.103 1.84v6.84h-1.86v-6.77c0-.758-.058-1.337-.212-1.722-.13-.382-.393-.685-.752-.92-.37-.227-.8-.336-1.307-.336-.786 0-1.47.245-2.06.748-.552.536-.838 1.506-.838 2.933v6.067h-1.86zM-26.74 180.77l.28 1.667c-.52.11-1.005.148-1.416.148-.673 0-1.187-.086-1.563-.302a2.113 2.113 0 0 1-.787-.86c-.137-.35-.228-1.1-.228-2.24v-6.402h-1.358v-1.477h1.358v-2.75l1.855-1.144v3.894h1.86v1.478h-1.86v6.528c0 .536.034.87.09 1.013.064.162.172.285.338.388.137.07.337.124.622.124.198 0 .472-.03.81-.063M-11.112 178.862l1.917.245c-.303 1.144-.873 2.034-1.683 2.65-.81.63-1.855.942-3.12.942-1.604 0-2.877-.497-3.813-1.502-.93-1.004-1.4-2.41-1.4-4.23 0-1.87.47-3.314 1.428-4.37.936-1.02 2.168-1.545 3.675-1.545 1.455 0 2.648.525 3.59 1.52.912 1.008 1.39 2.452 1.39 4.29 0 .104 0 .273-.016.495h-8.16c.068 1.25.4 2.163 1.027 2.822.616.654 1.364.98 2.288.98.685 0 1.255-.206 1.73-.552.485-.357.86-.947 1.146-1.746M-17.2 175.8h6.112c-.08-.924-.308-1.632-.702-2.09-.6-.734-1.352-1.11-2.288-1.11-.856 0-1.58.296-2.157.89-.583.567-.914 1.343-.965 2.31M-.874 183.38l1.78.273c.09.565.302.976.645 1.244.457.337 1.097.514 1.89.514.856 0 1.53-.176 1.986-.513.462-.354.782-.842.94-1.475.092-.394.138-1.19.138-2.417-.81.96-1.826 1.432-3.03 1.432-1.5 0-2.67-.525-3.487-1.635-.833-1.1-1.232-2.45-1.232-3.986 0-1.067.177-2.043.548-2.95.394-.89.947-1.58 1.643-2.083.725-.48 1.563-.73 2.545-.73 1.29 0 2.358.53 3.208 1.598v-1.346h1.7v9.627c0 1.747-.188 2.99-.53 3.7a3.63 3.63 0 0 1-1.64 1.71c-.764.423-1.682.637-2.778.637-1.312 0-2.357-.3-3.16-.887-.8-.606-1.2-1.496-1.164-2.71m1.53-6.7c0 1.46.29 2.544.843 3.2.57.676 1.294 1.004 2.156 1.004.845 0 1.558-.328 2.146-1.004.565-.656.85-1.715.85-3.144 0-1.358-.302-2.39-.89-3.08-.593-.68-1.318-1.03-2.14-1.03s-1.524.333-2.106 1.03c-.57.675-.86 1.68-.86 3.023M17.494 182.437v-11.133h1.66v1.69c.435-.79.828-1.32 1.2-1.565.353-.252.747-.378 1.192-.378.61 0 1.25.194 1.883.605l-.63 1.772c-.45-.295-.895-.437-1.35-.437a1.75 1.75 0 0 0-1.097.388c-.337.246-.553.594-.696 1.04a7.856 7.856 0 0 0-.303 2.207v5.81h-1.86zM38.01 181.073c-.686.588-1.353 1.027-1.975 1.26-.64.252-1.324.366-2.054.366-1.192 0-2.116-.298-2.772-.89-.645-.594-.96-1.36-.96-2.306 0-.528.11-1.02.36-1.495.245-.45.57-.81.953-1.062.39-.29.845-.496 1.348-.622.342-.103.907-.217 1.643-.294 1.496-.18 2.597-.402 3.31-.653 0-.252.012-.406.012-.486 0-.76-.183-1.33-.536-1.632-.474-.428-1.158-.64-2.11-.64-.868 0-1.513.155-1.935.458-.41.322-.712.867-.912 1.655l-1.815-.254c.165-.77.44-1.417.81-1.905.382-.488.924-.865 1.638-1.124.726-.27 1.542-.395 2.49-.395.94 0 1.682.105 2.276.342.565.21 1.01.514 1.284.833.274.345.468.765.576 1.295.068.325.09.913.09 1.746v2.506c0 1.778.047 2.876.127 3.315.074.492.234.937.468 1.348h-1.933c-.2-.384-.327-.83-.378-1.365m-.15-4.21c-.68.273-1.683.507-3.03.724-.776.094-1.3.223-1.615.37-.308.14-.565.343-.73.606a1.59 1.59 0 0 0-.28.907c0 .496.2.913.582 1.253.377.334.92.51 1.638.51.713 0 1.352-.16 1.9-.478.56-.32.976-.753 1.227-1.3.2-.43.308-1.074.308-1.907v-.686zM52.982 180.77l.257 1.667a6.66 6.66 0 0 1-1.405.148c-.673 0-1.187-.086-1.552-.302-.377-.228-.65-.525-.787-.86-.148-.35-.234-1.1-.234-2.24v-6.402h-1.347v-1.477h1.347v-2.75l1.85-1.144v3.894h1.87v1.478h-1.87v6.528c0 .536.028.87.096 1.013.068.162.17.285.32.388.16.07.348.124.64.124.192 0 .478-.03.814-.063M68.606 178.862l1.906.245c-.302 1.144-.85 2.034-1.66 2.65-.822.63-1.872.942-3.15.942-1.592 0-2.864-.497-3.79-1.502-.946-1.004-1.41-2.41-1.41-4.23 0-1.87.463-3.314 1.41-4.37.96-1.02 2.192-1.545 3.704-1.545 1.455 0 2.648.525 3.572 1.52.93 1.008 1.387 2.452 1.387 4.29v.495h-8.16c.063 1.25.41 2.163 1.02 2.822.623.654 1.37.98 2.284.98.678 0 1.26-.206 1.74-.552.48-.357.855-.947 1.146-1.746m-6.094-3.062h6.106c-.063-.924-.314-1.632-.685-2.09-.6-.734-1.364-1.11-2.305-1.11-.844 0-1.563.296-2.14.89-.582.567-.907 1.343-.976 2.31M86.28 182.437v-1.38c-.69 1.098-1.73 1.642-3.07 1.642-.874 0-1.673-.24-2.398-.737-.73-.482-1.29-1.158-1.7-2.03-.388-.903-.6-1.896-.6-3.05 0-1.095.166-2.11.55-3.018.358-.907.9-1.615 1.63-2.09a4.37 4.37 0 0 1 2.45-.724 3.75 3.75 0 0 1 1.75.41c.515.304.93.672 1.25 1.12v-5.512h1.85v15.367H86.28v.002zm-5.867-5.552c0 1.424.297 2.5.89 3.207.593.713 1.278 1.067 2.088 1.067.823 0 1.502-.355 2.072-1.01.565-.68.84-1.716.84-3.1 0-1.535-.286-2.656-.868-3.364-.57-.71-1.278-1.064-2.128-1.064-.827 0-1.518.354-2.066 1.033-.548.676-.827 1.757-.827 3.23M118.046 182.437v-13.57h-4.97v-1.797h11.978v1.797h-5.022v13.57zM138.32 178.862l1.93.245c-.32 1.144-.873 2.034-1.683 2.65-.833.63-1.86.942-3.12.942-1.604 0-2.865-.497-3.824-1.502-.94-1.004-1.398-2.41-1.398-4.23 0-1.87.48-3.314 1.398-4.37.964-1.02 2.18-1.545 3.715-1.545 1.455 0 2.637.525 3.578 1.52.913 1.008 1.387 2.452 1.387 4.29 0 .104-.01.273-.01.495h-8.172c.086 1.25.417 2.163 1.045 2.822.616.654 1.37.98 2.282.98.673 0 1.26-.206 1.735-.552.483-.357.854-.947 1.14-1.746m-6.078-3.062h6.1c-.09-.924-.32-1.632-.702-2.09-.593-.734-1.358-1.11-2.294-1.11-.844 0-1.57.296-2.146.89-.587.567-.884 1.343-.958 2.31M156.034 178.365l1.815.248c-.184 1.284-.697 2.288-1.525 2.996-.805.724-1.826 1.09-3.013 1.09-1.49 0-2.71-.497-3.618-1.485-.902-1.007-1.364-2.428-1.364-4.29 0-1.214.194-2.266.588-3.168.388-.907.98-1.58 1.797-2.03a5.2 5.2 0 0 1 2.602-.674c1.18 0 2.146.302 2.916.907.753.622 1.232 1.478 1.444 2.64l-1.786.276c-.187-.742-.484-1.312-.923-1.7-.422-.394-.964-.576-1.586-.576-.923 0-1.682.337-2.276 1.027-.582.682-.862 1.778-.862 3.247 0 1.478.28 2.58.844 3.275.56.655 1.29 1.01 2.203 1.01.712 0 1.33-.23 1.82-.68.49-.457.792-1.16.924-2.115M165.774 182.437V167.07h1.86v5.512c.862-1.004 1.952-1.53 3.27-1.53.8 0 1.507.164 2.106.48.61.328 1.016.787 1.29 1.364.245.56.377 1.41.377 2.488v7.053h-1.85v-7.053c0-.94-.2-1.638-.598-2.054-.418-.434-.965-.656-1.72-.656-.535 0-1.055.16-1.54.445-.474.282-.816.678-1.02 1.186-.223.485-.315 1.172-.315 2.05v6.082h-1.86zM183.824 182.437v-11.133h1.683v1.592c.805-1.238 1.957-1.843 3.47-1.843.65 0 1.27.12 1.825.354.53.25.96.553 1.227.973.284.37.484.847.587 1.378.063.35.09.976.09 1.84v6.84h-1.848v-6.77c0-.758-.08-1.337-.224-1.722-.125-.382-.388-.685-.76-.92-.364-.227-.798-.336-1.294-.336a3.05 3.05 0 0 0-2.048.748c-.57.536-.862 1.506-.862 2.933v6.067h-1.848zM201.194 176.885c0-2.066.57-3.598 1.69-4.6.935-.824 2.087-1.232 3.45-1.232 1.502 0 2.723.502 3.687 1.512.943 1 1.416 2.377 1.416 4.16 0 1.444-.194 2.554-.628 3.372a4.367 4.367 0 0 1-1.843 1.917 5.22 5.22 0 0 1-2.63.685c-1.553 0-2.786-.497-3.733-1.502-.923-.998-1.408-2.436-1.408-4.313m1.9 0c0 1.424.302 2.5.92 3.207.62.713 1.397 1.067 2.32 1.067.903 0 1.696-.355 2.306-1.085.593-.69.89-1.792.89-3.258 0-1.387-.297-2.43-.89-3.13-.64-.71-1.404-1.064-2.305-1.064-.924 0-1.7.354-2.322 1.05-.617.707-.92 1.776-.92 3.212M219.91 167.07h1.86v15.367h-1.86zM230.262 176.885c0-2.066.576-3.598 1.706-4.6.93-.824 2.083-1.232 3.435-1.232 1.5 0 2.745.502 3.686 1.512.958 1 1.43 2.377 1.43 4.16 0 1.444-.227 2.554-.627 3.372a4.58 4.58 0 0 1-1.85 1.917c-.804.46-1.688.685-2.64.685-1.542 0-2.786-.497-3.733-1.502-.917-.998-1.408-2.436-1.408-4.313m1.912 0c0 1.424.303 2.5.925 3.207.615.713 1.38 1.067 2.304 1.067.92 0 1.683-.355 2.283-1.085.61-.69.924-1.792.924-3.258 0-1.387-.313-2.43-.923-3.13-.61-.71-1.364-1.064-2.283-1.064-.924 0-1.69.354-2.305 1.05-.624.707-.926 1.776-.926 3.212M248.688 183.38l1.792.273c.086.565.28.976.628 1.244.462.337 1.09.514 1.89.514.85 0 1.528-.176 1.98-.513.467-.354.787-.842.94-1.475.104-.394.15-1.19.15-2.417-.806.96-1.827 1.432-3.02 1.432-1.518 0-2.682-.525-3.51-1.635-.815-1.1-1.22-2.45-1.22-3.986 0-1.067.17-2.043.548-2.95.382-.89.93-1.58 1.65-2.083.724-.48 1.568-.73 2.533-.73 1.29 0 2.35.53 3.19 1.598v-1.346h1.71v9.627c0 1.747-.176 2.99-.507 3.7a3.832 3.832 0 0 1-1.65 1.71c-.752.423-1.677.637-2.795.637-1.295 0-2.362-.3-3.15-.887-.812-.606-1.2-1.496-1.16-2.71m1.53-6.7c0 1.46.28 2.544.844 3.2.565.676 1.284 1.004 2.14 1.004.867 0 1.575-.328 2.163-1.004.554-.656.862-1.715.862-3.144 0-1.358-.308-2.39-.896-3.08-.592-.68-1.31-1.03-2.144-1.03-.84 0-1.518.333-2.11 1.03-.58.675-.86 1.68-.86 3.023M267.005 186.762l-.228-1.778c.417.105.776.162 1.073.162.41 0 .742-.074.987-.21.245-.127.462-.335.616-.615.108-.16.29-.635.548-1.39.052-.095.098-.255.195-.457l-4.177-11.17h2.014l2.26 6.47c.28.806.565 1.68.8 2.56.22-.848.478-1.703.758-2.53l2.345-6.5h1.854l-4.16 11.326c-.446 1.246-.8 2.08-1.04 2.54-.33.63-.708 1.077-1.13 1.356-.422.308-.93.448-1.518.448-.363.002-.75-.075-1.197-.212M110.913 57.536c12.76 0 20.88 5.584 18.084 12.428-2.773 6.865-15.38 12.41-28.155 12.41-12.77 0-20.868-5.545-18.084-12.41 2.785-6.845 15.396-12.428 28.155-12.428"/><path d="M72.675 72.738c2.545-8.072 7.72-14.657 17.524-18.654 13.552-5.518 28.828-5.13 39.253-1.586 9.336 3.178 12.8 9.318 8.782 19.25 14.237-9.71 12.263-23.587-5.918-28.563-10.026-2.75-22.626-2.59-34.974.685-22.614 6.037-31.02 20.92-24.668 28.868"/><path d="M67.43 53.85c-9.466 17.005-6.202 26.044 2.746 31.276 17.986 10.543 79.724 10.79 87.98-32.078 16.943 18.896-2.185 35.8-24.902 45.75-24.64 10.792-50.89 11.825-69.367 4.44C35.91 92.063 41.907 64.476 67.43 53.85"/><path d="M34.157 91.728c2.494-49.126 63.272-58.33 90.372-57.11 35.167 1.54 67.534 15.39 37.125 57.393 53.61-30.685 49.697-55.616 25.633-71.754-25.137-16.888-64.67-17.692-102.87-7.23C21.136 30.382 4.25 73.913 34.16 91.728M-13.21 134.2c-1.662-2.453-4.67-4.17-9.05-5.175-2.198-.48-4.246-.76-6.124-.76l-21.724.098-10.54 30.164h11.71l8.753-25.01h8.37c.93 0 1.867.14 2.86.427 1.98.554 3.39 1.478 4.268 2.776.622.924.936 2.03.936 3.29 0 1.047-.223 2.237-.65 3.532l-5.24 14.985h11.652l5.273-15.176c.576-1.623.862-3.106.862-4.47 0-1.786-.457-3.344-1.358-4.68m42.602-5.934l-8.72 25.028H12.25c-.884 0-1.826-.15-2.853-.445-1.974-.543-3.395-1.45-4.262-2.76-.633-.916-.93-2.023-.93-3.29 0-1.047.228-2.228.702-3.532l5.187-15.002H-1.558l-5.238 15.18c-.565 1.634-.845 3.12-.845 4.5 0 1.78.438 3.345 1.346 4.677 1.62 2.445 4.616 4.163 8.993 5.156 2.253.513 4.296.747 6.133.747h21.775l10.534-30.26h-11.75zm40.025-.034c-3.486 0-7.276.662-11.36 1.988-7.904 2.565-12.93 6.92-15.094 13.1-.582 1.682-.873 3.23-.873 4.678 0 1.746.434 3.292 1.358 4.625 1.62 2.445 4.6 4.163 8.942 5.156 2.248.513 4.274.747 6.134.747l21.964-.03 6.128-17.672H74.918l-4.365 12.468H61.93c-.798 0-1.665-.15-2.612-.445-1.82-.468-3.144-1.352-3.99-2.596-.62-.953-.935-2.043-.935-3.31 0-1.113.245-2.35.708-3.675 1.405-3.977 4.04-6.796 7.916-8.468 2.026-.857 3.852-1.285 5.478-1.285h20.703l1.826-5.284-21.606.002zm50.176.034c-3.572 0-7.372.68-11.424 1.997-7.933 2.59-12.994 7.06-15.22 13.427l-5.216 14.836H99.41l3.086-8.913h19.276l-3.076 8.913H130.4l10.54-30.164-21.347-.096zm4.023 16.086h-19.242l.377-1.135c1.393-3.972 4.127-6.768 8.195-8.417 2.066-.856 3.97-1.284 5.695-1.284h8.76l-3.784 10.836zM165.558 125.687c-2.78.057-5.695.508-8.77 1.352-5.976 1.608-9.61 4.208-10.866 7.777-.245.73-.354 1.387-.354 1.972 0 .818.228 1.583.673 2.227 1.148 1.73 3.636 2.93 7.46 3.623 1.928.388 3.725.576 5.38.576h5.786c3.293 0 5.37.613 6.26 1.883.302.527.382 1.137.16 1.83-.485 1.376-1.974 2.347-4.434 2.923a18.353 18.353 0 0 1-4.154.468h-20.942l-1.803 5.177h24.55c2.744-.066 5.648-.514 8.736-1.36 5.996-1.605 9.637-4.204 10.892-7.77.228-.73.33-1.387.33-2.003a4.02 4.02 0 0 0-.65-2.197c-1.136-1.723-3.618-2.922-7.447-3.638-1.946-.364-3.75-.555-5.438-.555h-5.592c-3.338 0-5.42-.628-6.29-1.88-.336-.53-.393-1.14-.13-1.852.445-1.367 1.918-2.348 4.417-2.896a17.31 17.31 0 0 1 4.126-.48h20.794l1.85-5.18h-24.544zm50.5 20.412l.372-.075c10.654-1.997 17.313-6.83 19.995-14.5l2.03-5.837h-11.492l-2.174 6.266c-1.148 3.32-3.225 5.812-6.255 7.49-1.923 1.104-4.08 1.75-6.443 1.974h-.103c-3.07-.305-5.125-1.418-6.186-3.29-.536-.9-.788-1.9-.788-3.03 0-1.026.217-2.18.685-3.426l2.078-5.983h-11.464l-2.157 6.12c-.548 1.588-.827 3.106-.827 4.484 0 1.407.308 2.68.924 3.85 1.472 2.858 4.68 4.827 9.61 5.882l.605.105-3.288 9.368h11.578l3.3-9.4zm44.79-20.413c-2.785.057-5.706.508-8.794 1.352-5.963 1.608-9.587 4.208-10.853 7.777-.244.73-.37 1.387-.37 1.972 0 .818.234 1.583.696 2.227 1.147 1.73 3.63 2.93 7.44 3.623 1.93.388 3.744.576 5.4.576h5.774c3.31 0 5.387.613 6.26 1.883.325.527.377 1.137.165 1.83-.496 1.376-1.957 2.347-4.422 2.923a18.458 18.458 0 0 1-4.166.468h-20.925l-1.815 5.177h24.537c2.75-.066 5.644-.514 8.73-1.36 6.01-1.605 9.645-4.204 10.917-7.77a6.8 6.8 0 0 0 .32-2.003c0-.793-.216-1.54-.644-2.197-1.14-1.723-3.618-2.922-7.44-3.638-1.935-.364-3.76-.555-5.445-.555h-5.597c-3.315 0-5.438-.628-6.294-1.88-.338-.53-.378-1.14-.132-1.852.462-1.367 1.934-2.348 4.434-2.896 1.33-.325 2.705-.48 4.108-.48h20.8l1.85-5.18h-24.532zM-60.46 167.07h1.997v15.367h-1.997V167.07zM-48.848 182.437v-11.133h1.666v1.592c.8-1.238 1.974-1.843 3.48-1.843.663 0 1.25.12 1.827.354.548.25.964.553 1.227.973.285.37.48.847.588 1.378.068.35.103.976.103 1.84v6.84h-1.86v-6.77c0-.758-.058-1.337-.212-1.722-.13-.382-.393-.685-.752-.92-.37-.227-.8-.336-1.307-.336-.786 0-1.47.245-2.06.748-.552.536-.838 1.506-.838 2.933v6.067h-1.86zM-26.74 180.77l.28 1.667c-.52.11-1.005.148-1.416.148-.673 0-1.187-.086-1.563-.302a2.113 2.113 0 0 1-.787-.86c-.137-.35-.228-1.1-.228-2.24v-6.402h-1.358v-1.477h1.358v-2.75l1.855-1.144v3.894h1.86v1.478h-1.86v6.528c0 .536.034.87.09 1.013.064.162.172.285.338.388.137.07.337.124.622.124.198 0 .472-.03.81-.063M-11.112 178.862l1.917.245c-.303 1.144-.873 2.034-1.683 2.65-.81.63-1.855.942-3.12.942-1.604 0-2.877-.497-3.813-1.502-.93-1.004-1.4-2.41-1.4-4.23 0-1.87.47-3.314 1.428-4.37.936-1.02 2.168-1.545 3.675-1.545 1.455 0 2.648.525 3.59 1.52.912 1.008 1.39 2.452 1.39 4.29 0 .104 0 .273-.016.495h-8.16c.068 1.25.4 2.163 1.027 2.822.616.654 1.364.98 2.288.98.685 0 1.255-.206 1.73-.552.485-.357.86-.947 1.146-1.746M-17.2 175.8h6.112c-.08-.924-.308-1.632-.702-2.09-.6-.734-1.352-1.11-2.288-1.11-.856 0-1.58.296-2.157.89-.583.567-.914 1.343-.965 2.31M-.874 183.38l1.78.273c.09.565.302.976.645 1.244.457.337 1.097.514 1.89.514.856 0 1.53-.176 1.986-.513.462-.354.782-.842.94-1.475.092-.394.138-1.19.138-2.417-.81.96-1.826 1.432-3.03 1.432-1.5 0-2.67-.525-3.487-1.635-.833-1.1-1.232-2.45-1.232-3.986 0-1.067.177-2.043.548-2.95.394-.89.947-1.58 1.643-2.083.725-.48 1.563-.73 2.545-.73 1.29 0 2.358.53 3.208 1.598v-1.346h1.7v9.627c0 1.747-.188 2.99-.53 3.7a3.63 3.63 0 0 1-1.64 1.71c-.764.423-1.682.637-2.778.637-1.312 0-2.357-.3-3.16-.887-.8-.606-1.2-1.496-1.164-2.71m1.53-6.7c0 1.46.29 2.544.843 3.2.57.676 1.294 1.004 2.156 1.004.845 0 1.558-.328 2.146-1.004.565-.656.85-1.715.85-3.144 0-1.358-.302-2.39-.89-3.08-.593-.68-1.318-1.03-2.14-1.03s-1.524.333-2.106 1.03c-.57.675-.86 1.68-.86 3.023M17.494 182.437v-11.133h1.66v1.69c.435-.79.828-1.32 1.2-1.565.353-.252.747-.378 1.192-.378.61 0 1.25.194 1.883.605l-.63 1.772c-.45-.295-.895-.437-1.35-.437a1.75 1.75 0 0 0-1.097.388c-.337.246-.553.594-.696 1.04a7.856 7.856 0 0 0-.303 2.207v5.81h-1.86zM38.01 181.073c-.686.588-1.353 1.027-1.975 1.26-.64.252-1.324.366-2.054.366-1.192 0-2.116-.298-2.772-.89-.645-.594-.96-1.36-.96-2.306 0-.528.11-1.02.36-1.495.245-.45.57-.81.953-1.062.39-.29.845-.496 1.348-.622.342-.103.907-.217 1.643-.294 1.496-.18 2.597-.402 3.31-.653 0-.252.012-.406.012-.486 0-.76-.183-1.33-.536-1.632-.474-.428-1.158-.64-2.11-.64-.868 0-1.513.155-1.935.458-.41.322-.712.867-.912 1.655l-1.815-.254c.165-.77.44-1.417.81-1.905.382-.488.924-.865 1.638-1.124.726-.27 1.542-.395 2.49-.395.94 0 1.682.105 2.276.342.565.21 1.01.514 1.284.833.274.345.468.765.576 1.295.068.325.09.913.09 1.746v2.506c0 1.778.047 2.876.127 3.315.074.492.234.937.468 1.348h-1.933c-.2-.384-.327-.83-.378-1.365m-.15-4.21c-.68.273-1.683.507-3.03.724-.776.094-1.3.223-1.615.37-.308.14-.565.343-.73.606a1.59 1.59 0 0 0-.28.907c0 .496.2.913.582 1.253.377.334.92.51 1.638.51.713 0 1.352-.16 1.9-.478.56-.32.976-.753 1.227-1.3.2-.43.308-1.074.308-1.907v-.686zM52.982 180.77l.257 1.667a6.66 6.66 0 0 1-1.405.148c-.673 0-1.187-.086-1.552-.302-.377-.228-.65-.525-.787-.86-.148-.35-.234-1.1-.234-2.24v-6.402h-1.347v-1.477h1.347v-2.75l1.85-1.144v3.894h1.87v1.478h-1.87v6.528c0 .536.028.87.096 1.013.068.162.17.285.32.388.16.07.348.124.64.124.192 0 .478-.03.814-.063M68.606 178.862l1.906.245c-.302 1.144-.85 2.034-1.66 2.65-.822.63-1.872.942-3.15.942-1.592 0-2.864-.497-3.79-1.502-.946-1.004-1.41-2.41-1.41-4.23 0-1.87.463-3.314 1.41-4.37.96-1.02 2.192-1.545 3.704-1.545 1.455 0 2.648.525 3.572 1.52.93 1.008 1.387 2.452 1.387 4.29v.495h-8.16c.063 1.25.41 2.163 1.02 2.822.623.654 1.37.98 2.284.98.678 0 1.26-.206 1.74-.552.48-.357.855-.947 1.146-1.746m-6.094-3.062h6.106c-.063-.924-.314-1.632-.685-2.09-.6-.734-1.364-1.11-2.305-1.11-.844 0-1.563.296-2.14.89-.582.567-.907 1.343-.976 2.31M86.28 182.437v-1.38c-.69 1.098-1.73 1.642-3.07 1.642-.874 0-1.673-.24-2.398-.737-.73-.482-1.29-1.158-1.7-2.03-.388-.903-.6-1.896-.6-3.05 0-1.095.166-2.11.55-3.018.358-.907.9-1.615 1.63-2.09a4.37 4.37 0 0 1 2.45-.724 3.75 3.75 0 0 1 1.75.41c.515.304.93.672 1.25 1.12v-5.512h1.85v15.367H86.28v.002zm-5.867-5.552c0 1.424.297 2.5.89 3.207.593.713 1.278 1.067 2.088 1.067.823 0 1.502-.355 2.072-1.01.565-.68.84-1.716.84-3.1 0-1.535-.286-2.656-.868-3.364-.57-.71-1.278-1.064-2.128-1.064-.827 0-1.518.354-2.066 1.033-.548.676-.827 1.757-.827 3.23M118.046 182.437v-13.57h-4.97v-1.797h11.978v1.797h-5.022v13.57h-1.986zM138.32 178.862l1.93.245c-.32 1.144-.873 2.034-1.683 2.65-.833.63-1.86.942-3.12.942-1.604 0-2.865-.497-3.824-1.502-.94-1.004-1.398-2.41-1.398-4.23 0-1.87.48-3.314 1.398-4.37.964-1.02 2.18-1.545 3.715-1.545 1.455 0 2.637.525 3.578 1.52.913 1.008 1.387 2.452 1.387 4.29 0 .104-.01.273-.01.495h-8.172c.086 1.25.417 2.163 1.045 2.822.616.654 1.37.98 2.282.98.673 0 1.26-.206 1.735-.552.483-.357.854-.947 1.14-1.746m-6.078-3.062h6.1c-.09-.924-.32-1.632-.702-2.09-.593-.734-1.358-1.11-2.294-1.11-.844 0-1.57.296-2.146.89-.587.567-.884 1.343-.958 2.31M156.034 178.365l1.815.248c-.184 1.284-.697 2.288-1.525 2.996-.805.724-1.826 1.09-3.013 1.09-1.49 0-2.71-.497-3.618-1.485-.902-1.007-1.364-2.428-1.364-4.29 0-1.214.194-2.266.588-3.168.388-.907.98-1.58 1.797-2.03a5.2 5.2 0 0 1 2.602-.674c1.18 0 2.146.302 2.916.907.753.622 1.232 1.478 1.444 2.64l-1.786.276c-.187-.742-.484-1.312-.923-1.7-.422-.394-.964-.576-1.586-.576-.923 0-1.682.337-2.276 1.027-.582.682-.862 1.778-.862 3.247 0 1.478.28 2.58.844 3.275.56.655 1.29 1.01 2.203 1.01.712 0 1.33-.23 1.82-.68.49-.457.792-1.16.924-2.115M165.774 182.437V167.07h1.86v5.512c.862-1.004 1.952-1.53 3.27-1.53.8 0 1.507.164 2.106.48.61.328 1.016.787 1.29 1.364.245.56.377 1.41.377 2.488v7.053h-1.85v-7.053c0-.94-.2-1.638-.598-2.054-.418-.434-.965-.656-1.72-.656-.535 0-1.055.16-1.54.445-.474.282-.816.678-1.02 1.186-.223.485-.315 1.172-.315 2.05v6.082h-1.86zM183.824 182.437v-11.133h1.683v1.592c.805-1.238 1.957-1.843 3.47-1.843.65 0 1.27.12 1.825.354.53.25.96.553 1.227.973.284.37.484.847.587 1.378.063.35.09.976.09 1.84v6.84h-1.848v-6.77c0-.758-.08-1.337-.224-1.722-.125-.382-.388-.685-.76-.92-.364-.227-.798-.336-1.294-.336a3.05 3.05 0 0 0-2.048.748c-.57.536-.862 1.506-.862 2.933v6.067h-1.848zM201.194 176.885c0-2.066.57-3.598 1.69-4.6.935-.824 2.087-1.232 3.45-1.232 1.502 0 2.723.502 3.687 1.512.943 1 1.416 2.377 1.416 4.16 0 1.444-.194 2.554-.628 3.372a4.367 4.367 0 0 1-1.843 1.917 5.22 5.22 0 0 1-2.63.685c-1.553 0-2.786-.497-3.733-1.502-.923-.998-1.408-2.436-1.408-4.313m1.9 0c0 1.424.302 2.5.92 3.207.62.713 1.397 1.067 2.32 1.067.903 0 1.696-.355 2.306-1.085.593-.69.89-1.792.89-3.258 0-1.387-.297-2.43-.89-3.13-.64-.71-1.404-1.064-2.305-1.064-.924 0-1.7.354-2.322 1.05-.617.707-.92 1.776-.92 3.212M219.91 167.07h1.86v15.367h-1.86V167.07zM230.262 176.885c0-2.066.576-3.598 1.706-4.6.93-.824 2.083-1.232 3.435-1.232 1.5 0 2.745.502 3.686 1.512.958 1 1.43 2.377 1.43 4.16 0 1.444-.227 2.554-.627 3.372a4.58 4.58 0 0 1-1.85 1.917c-.804.46-1.688.685-2.64.685-1.542 0-2.786-.497-3.733-1.502-.917-.998-1.408-2.436-1.408-4.313m1.912 0c0 1.424.303 2.5.925 3.207.615.713 1.38 1.067 2.304 1.067.92 0 1.683-.355 2.283-1.085.61-.69.924-1.792.924-3.258 0-1.387-.313-2.43-.923-3.13-.61-.71-1.364-1.064-2.283-1.064-.924 0-1.69.354-2.305 1.05-.624.707-.926 1.776-.926 3.212M248.688 183.38l1.792.273c.086.565.28.976.628 1.244.462.337 1.09.514 1.89.514.85 0 1.528-.176 1.98-.513.467-.354.787-.842.94-1.475.104-.394.15-1.19.15-2.417-.806.96-1.827 1.432-3.02 1.432-1.518 0-2.682-.525-3.51-1.635-.815-1.1-1.22-2.45-1.22-3.986 0-1.067.17-2.043.548-2.95.382-.89.93-1.58 1.65-2.083.724-.48 1.568-.73 2.533-.73 1.29 0 2.35.53 3.19 1.598v-1.346h1.71v9.627c0 1.747-.176 2.99-.507 3.7a3.832 3.832 0 0 1-1.65 1.71c-.752.423-1.677.637-2.795.637-1.295 0-2.362-.3-3.15-.887-.812-.606-1.2-1.496-1.16-2.71m1.53-6.7c0 1.46.28 2.544.844 3.2.565.676 1.284 1.004 2.14 1.004.867 0 1.575-.328 2.163-1.004.554-.656.862-1.715.862-3.144 0-1.358-.308-2.39-.896-3.08-.592-.68-1.31-1.03-2.144-1.03-.84 0-1.518.333-2.11 1.03-.58.675-.86 1.68-.86 3.023M267.005 186.762l-.228-1.778c.417.105.776.162 1.073.162.41 0 .742-.074.987-.21.245-.127.462-.335.616-.615.108-.16.29-.635.548-1.39.052-.095.098-.255.195-.457l-4.177-11.17h2.014l2.26 6.47c.28.806.565 1.68.8 2.56.22-.848.478-1.703.758-2.53l2.345-6.5h1.854l-4.16 11.326c-.446 1.246-.8 2.08-1.04 2.54-.33.63-.708 1.077-1.13 1.356-.422.308-.93.448-1.518.448-.363.002-.75-.075-1.197-.212"/><path d="M110.913 57.536c12.76 0 20.88 5.584 18.084 12.428-2.773 6.865-15.38 12.41-28.155 12.41-12.77 0-20.868-5.545-18.084-12.41 2.785-6.845 15.396-12.428 28.155-12.428"/><path d="M72.675 72.738c2.545-8.072 7.72-14.657 17.524-18.654 13.552-5.518 28.828-5.13 39.253-1.586 9.336 3.178 12.8 9.318 8.782 19.25 14.237-9.71 12.263-23.587-5.918-28.563-10.026-2.75-22.626-2.59-34.974.685-22.614 6.037-31.02 20.92-24.668 28.868"/><path d="M67.43 53.85c-9.466 17.005-6.202 26.044 2.746 31.276 17.986 10.543 79.724 10.79 87.98-32.078 16.943 18.896-2.185 35.8-24.902 45.75-24.64 10.792-50.89 11.825-69.367 4.44C35.91 92.063 41.907 64.476 67.43 53.85"/><path d="M34.157 91.728c2.494-49.126 63.272-58.33 90.372-57.11 35.167 1.54 67.534 15.39 37.125 57.393 53.61-30.685 49.697-55.616 25.633-71.754-25.137-16.888-64.67-17.692-102.87-7.23C21.136 30.382 4.25 73.913 34.16 91.728M-13.21 134.2c-1.662-2.453-4.67-4.17-9.05-5.175-2.198-.48-4.246-.76-6.124-.76l-21.724.098-10.54 30.164h11.71l8.753-25.01h8.37c.93 0 1.867.14 2.86.427 1.98.554 3.39 1.478 4.268 2.776.622.924.936 2.03.936 3.29 0 1.047-.223 2.237-.65 3.532l-5.24 14.985h11.652l5.273-15.176c.576-1.623.862-3.106.862-4.47 0-1.786-.457-3.344-1.358-4.68m42.602-5.934l-8.72 25.028H12.25c-.884 0-1.826-.15-2.853-.445-1.974-.543-3.395-1.45-4.262-2.76-.633-.916-.93-2.023-.93-3.29 0-1.047.228-2.228.702-3.532l5.187-15.002H-1.558l-5.238 15.18c-.565 1.634-.845 3.12-.845 4.5 0 1.78.438 3.345 1.346 4.677 1.62 2.445 4.616 4.163 8.993 5.156 2.253.513 4.296.747 6.133.747h21.775l10.534-30.26h-11.75zm40.025-.034c-3.486 0-7.276.662-11.36 1.988-7.904 2.565-12.93 6.92-15.094 13.1-.582 1.682-.873 3.23-.873 4.678 0 1.746.434 3.292 1.358 4.625 1.62 2.445 4.6 4.163 8.942 5.156 2.248.513 4.274.747 6.134.747l21.964-.03 6.128-17.672H74.918l-4.365 12.468H61.93c-.798 0-1.665-.15-2.612-.445-1.82-.468-3.144-1.352-3.99-2.596-.62-.953-.935-2.043-.935-3.31 0-1.113.245-2.35.708-3.675 1.405-3.977 4.04-6.796 7.916-8.468 2.026-.857 3.852-1.285 5.478-1.285h20.703l1.826-5.284-21.606.002zm50.176.034c-3.572 0-7.372.68-11.424 1.997-7.933 2.59-12.994 7.06-15.22 13.427l-5.216 14.836H99.41l3.086-8.913h19.276l-3.076 8.913H130.4l10.54-30.164-21.347-.096zm4.023 16.086h-19.242l.377-1.135c1.393-3.972 4.127-6.768 8.195-8.417 2.066-.856 3.97-1.284 5.695-1.284h8.76l-3.784 10.836zM165.558 125.687c-2.78.057-5.695.508-8.77 1.352-5.976 1.608-9.61 4.208-10.866 7.777-.245.73-.354 1.387-.354 1.972 0 .818.228 1.583.673 2.227 1.148 1.73 3.636 2.93 7.46 3.623 1.928.388 3.725.576 5.38.576h5.786c3.293 0 5.37.613 6.26 1.883.302.527.382 1.137.16 1.83-.485 1.376-1.974 2.347-4.434 2.923a18.353 18.353 0 0 1-4.154.468h-20.942l-1.803 5.177h24.55c2.744-.066 5.648-.514 8.736-1.36 5.996-1.605 9.637-4.204 10.892-7.77.228-.73.33-1.387.33-2.003a4.02 4.02 0 0 0-.65-2.197c-1.136-1.723-3.618-2.922-7.447-3.638-1.946-.364-3.75-.555-5.438-.555h-5.592c-3.338 0-5.42-.628-6.29-1.88-.336-.53-.393-1.14-.13-1.852.445-1.367 1.918-2.348 4.417-2.896a17.31 17.31 0 0 1 4.126-.48h20.794l1.85-5.18h-24.544zm50.5 20.412l.372-.075c10.654-1.997 17.313-6.83 19.995-14.5l2.03-5.837h-11.492l-2.174 6.266c-1.148 3.32-3.225 5.812-6.255 7.49-1.923 1.104-4.08 1.75-6.443 1.974h-.103c-3.07-.305-5.125-1.418-6.186-3.29-.536-.9-.788-1.9-.788-3.03 0-1.026.217-2.18.685-3.426l2.078-5.983h-11.464l-2.157 6.12c-.548 1.588-.827 3.106-.827 4.484 0 1.407.308 2.68.924 3.85 1.472 2.858 4.68 4.827 9.61 5.882l.605.105-3.288 9.368h11.578l3.3-9.4zm44.79-20.413c-2.785.057-5.706.508-8.794 1.352-5.963 1.608-9.587 4.208-10.853 7.777-.244.73-.37 1.387-.37 1.972 0 .818.234 1.583.696 2.227 1.147 1.73 3.63 2.93 7.44 3.623 1.93.388 3.744.576 5.4.576h5.774c3.31 0 5.387.613 6.26 1.883.325.527.377 1.137.165 1.83-.496 1.376-1.957 2.347-4.422 2.923a18.458 18.458 0 0 1-4.166.468h-20.925l-1.815 5.177h24.537c2.75-.066 5.644-.514 8.73-1.36 6.01-1.605 9.645-4.204 10.917-7.77a6.8 6.8 0 0 0 .32-2.003c0-.793-.216-1.54-.644-2.197-1.14-1.723-3.618-2.922-7.44-3.638-1.935-.364-3.76-.555-5.445-.555h-5.597c-3.315 0-5.438-.628-6.294-1.88-.338-.53-.378-1.14-.132-1.852.462-1.367 1.934-2.348 4.434-2.896 1.33-.325 2.705-.48 4.108-.48h20.8l1.85-5.18h-24.532zM303.355 104.813c.885.006 1.803.2 1.803 1.253 0 1.21-.827 1.35-1.803 1.384v1.62l1.946 3.18h1.445l-2.443-3.756c1.267-.154 2.23-.827 2.23-2.357 0-1.675-1.003-2.437-3.023-2.437h-.155v1.113zm0 10.577v-1.24c3.23-.132 5.758-2.71 5.758-6.18 0-3.436-2.528-6.038-5.758-6.172v-1.224c3.92.143 7.253 3.218 7.253 7.395 0 4.176-3.333 7.29-7.253 7.42m-1.798-7.94v-2.637h1.797V103.7h-3.093v8.548h1.296v-3.706h1.478l.32.528v-1.62h-1.797zm1.798-6.877v1.224h-.234c-3.377 0-6.02 2.665-6.02 6.17 0 3.556 2.643 6.18 6.02 6.18h.235v1.242h-.234c-4.062 0-7.514-3.142-7.514-7.422 0-4.268 3.452-7.395 7.515-7.395h.235z"/></svg>