<svg xmlns="http://www.w3.org/2000/svg" viewBox="0 0 725.07 222.67"><path d="M113.17 222.62H92.63v-90.09h20.54zm156.78-121.71c-.87 0-1.2-.44-1.53-1.31l-19.75-53.48c-.56-1.43-.87-2.18-1.54-2.18-.64 0-.75.21-.75 2.07v53.81c0 .65-.45 1.09-1.11 1.09h-10.46c-.66 0-1.1-.44-1.1-1.09V27.78c0-.66.44-1.09 1.1-1.09h18.66c.76 0 1.1.55 1.42 1.3l18.55 51.63c.56 1.64.77 1.75 1.31 1.75.55 0 .77-.21.77-1.08V27.78c0-.66.43-1.09 1.08-1.09h10.79c.66 0 1.1.43 1.1 1.09v72.04c0 .65-.44 1.09-1.1 1.09zm73.56-74.22h12.78c.64 0 .87.43.64 1.1-4.25 9.28-14.3 29.49-19.11 38.01-2.95 5.24-3.82 6.77-3.82 8.41v25.62c0 .66-.44 1.09-1.1 1.09h-12.34c-.65 0-1.09-.43-1.09-1.09V74.11c0-1.64-.66-2.85-3.28-7.76-4.7-8.74-15.95-32.56-18.57-38.56-.22-.67.11-1.1.77-1.1h13.54c.77 0 1.2.33 1.53 1.21 3.17 7.97 8.74 21.4 12.34 28.84.77 1.52.99 1.85 1.64 1.85.76 0 .99-.33 1.75-1.85 3.5-6.89 9.4-20.44 12.46-28.84.54-.88 1.08-1.21 1.86-1.21m42.5 11.18c-6.55 0-8.85 2.2-8.85 7.66 0 4.37 1.42 6.33 12.89 14.42 9.18 6.44 13.99 11.25 13.99 21.96 0 14.09-7.44 19.77-21.2 19.77-8.63 0-16.28-.98-20.54-1.96-.63-.12-.98-.44-.98-.88l.8-9.83c0-.44.24-.76.8-.76 5.45.98 11.13 1.53 16.82 1.53 6.45 0 9.17-1.86 9.17-7.87 0-4.04-.4-6.01-15.4-17.37-9.28-6.98-11.25-12.02-11.25-19.66 0-14.65 8.08-18.79 23.93-18.79 6.22 0 14.19 1.09 16.82 2.18.4.22.56.66.56.98l-.64 9.51c0 .33-.24.65-.64.65-3.93-.98-11.36-1.54-16.16-1.54m30.51-10.09c0-.66.4-1.09 1.09-1.09h39.91c.64 0 1.09.43 1.09 1.09v9.71c0 .66-.48 1.09-1.09 1.09h-25.72c-.48 0-.64.23-.64.67V56.5c0 .43.24.65.64.65h21.94c.64 0 1.09.43 1.09 1.09v9.05c0 .66-.4 1.1-1.09 1.1h-21.94c-.48 0-.64.21-.64.65v19.1c0 .44.24.66.64.66h26.63c.64 0 1.1.43 1.1 1.1v9.93c0 .65-.4 1.09-1.1 1.09h-40.82c-.64 0-1.09-.44-1.09-1.09zm-182.93 94.94c0-.65.44-1.09 1.09-1.09h39.91c.66 0 1.09.44 1.09 1.09v9.72c0 .66-.43 1.09-1.09 1.09h-25.72c-.43 0-.65.22-.65.65v17.25c0 .43.22.66.65.66h21.94c.66 0 1.1.43 1.1 1.09v9.06c0 .65-.44 1.08-1.1 1.08h-21.94c-.43 0-.65.23-.65.67v19.1c0 .39.22.63.65.63h26.64c.65 0 1.09.48 1.09 1.1v9.93c0 .64-.44 1.1-1.09 1.1H234.8c-.65 0-1.09-.4-1.09-1.1zm108.15 56.43c0 11.79-10.8 17.79-26.63 17.79-18 0-26.41-6-26.41-17.79v-56.43c0-.65.43-1.09 1.09-1.09h12.33c.66 0 1.1.44 1.1 1.09v52.18c0 8.5 5.56 9.82 12.11 9.82s12.01-1.32 12.01-9.94v-52.06c0-.65.43-1.09 1.09-1.09h12.22c.66 0 1.09.44 1.09 1.09zm39.19-9.28c-.87-1.63-1.1-1.97-1.75-2.07h-8.28c-.56 0-.88.22-.88.76v26.2c0 .64-.4 1.09-1.08 1.09h-12.34c-.64 0-1.09-.4-1.09-1.09v-72.04c0-.65.4-1.09 1.09-1.09h22.8c16.59 0 25 5.57 25 20.52 0 9.82-2.08 15.72-9.61 20.08-.8.65-1.1 1.09-1.1 1.53 0 1.09.56 2.29 1.75 4.26l14.51 26.74c.32.56.32 1.09-.55 1.09H395c-.64 0-.98-.24-1.31-.98zm8.29-25.32c0-9.83-2.62-12.33-12.44-12.33h-5.34c-1.19 0-1.42.22-1.42.65v24.23c0 .55.24.77.8.87h5.99c9.38 0 12.44-3.71 12.44-13.42m77.06 45.51c-4.59 5.47-11.25 6.88-21.84 6.88-10.57 0-16.91-1.41-21.6-6.88-4.69-5.67-7.32-17.45-7.32-31.31 0-13.87 2.63-25.66 7.32-31.33 4.69-5.46 11.35-6.88 21.94-6.88 10.59 0 16.91 1.42 21.5 6.88 4.81 5.67 7.42 17.46 7.42 31.33 0 13.86-2.61 25.64-7.42 31.31m-32.09-7.85c1.74 2.4 4.8 2.73 10.37 2.73 5.78 0 8.73-.32 10.47-2.73 2.4-3.38 3.5-13.1 3.5-23.46 0-10.48-1.1-20.09-3.5-23.48-1.74-2.4-4.69-2.72-10.25-2.72-5.79 0-8.85.32-10.59 2.72-2.4 3.39-3.5 13-3.5 23.48 0 10.36 1.1 20.08 3.5 23.46m87.54 13.64c-.87 0-1.2-.4-1.53-1.31l-19.75-53.48c-.56-1.43-.88-2.18-1.53-2.18-.64 0-.8.21-.8 2.07v53.81c0 .64-.4 1.09-1.09 1.09h-10.47c-.64 0-1.1-.4-1.1-1.09v-72.04c0-.65.48-1.09 1.1-1.09h18.67c.79 0 1.09.55 1.42 1.31l18.55 51.63c.56 1.63.72 1.74 1.31 1.74.56 0 .72-.22.72-1.09v-52.5c0-.65.48-1.09 1.09-1.09h10.79c.64 0 1.1.44 1.1 1.09v72.04c0 .64-.4 1.09-1.1 1.09zm32.1-73.13c0-.65.4-1.09 1.08-1.09h39.91c.64 0 1.09.44 1.09 1.09v9.72c0 .65-.4 1.09-1.09 1.09h-25.71c-.48 0-.64.22-.64.65v17.25c0 .43.24.66.64.66h21.94c.64 0 1.09.43 1.09 1.08v9.06c0 .65-.4 1.09-1.09 1.09h-21.94c-.48 0-.64.22-.64.66v19.1c0 .4.24.64.64.64h26.63c.63 0 1.09.39 1.09 1.1v9.93c0 .63-.4 1.09-1.09 1.09h-40.83c-.64 0-1.08-.4-1.08-1.09zm109.65 71.76l-22.33-38.29 19.22-33.24c.32-.6-.23-1.33-1.06-1.33h-12.62c-.72 0-1.34.34-1.82 1.33l-11.51 20.02-11.78-20c-.47-.93-1.18-1.35-2.26-1.35h-12.8c-.85 0-1.21.66-.88 1.37l19.17 33.11-21.54 38.41c-.4.72 0 1.35.72 1.35h13.06c.92 0 1.38-.32 1.93-1.32l13.81-24.77 14.62 24.74c.64 1.09 1.15 1.35 1.98 1.35h13.27c.85 0 1.18-.72.82-1.38m21.64-60.29c0-.43-.24-.65-.64-.65h-16.67c-.64 0-1.09-.43-1.09-1.09v-9.73c0-.65.4-1.09 1.09-1.09h49.15c.64 0 1.09.44 1.09 1.09v9.73c0 .66-.4 1.09-1.09 1.09h-16.65c-.4 0-.64.22-.64.65v60.57c0 .64-.4 1.09-1.09 1.09h-12.4c-.64 0-1.08-.4-1.08-1.09zm26.83 53.97c-.81 0-1.08.26-1.08.93 0 .55.17.78 1.57 1.77 1.13.79 1.72 1.38 1.72 2.7 0 1.73-.91 2.42-2.6 2.42-1.06 0-1.99-.12-2.52-.24-.1 0-.12 0-.12-.1l.1-1.21c0-.1 0-.1.1-.1.66.12 1.36.18 2.07.18.79 0 1.12-.22 1.12-.96 0-.5-.1-.73-1.89-2.13-1.14-.86-1.38-1.48-1.38-2.42 0-1.79.99-2.3 2.94-2.3.76 0 1.74.13 2.06.27.1 0 .1.1.1.12l-.1 1.16s0 .1-.1.1c-.49-.12-1.4-.18-1.99-.18m10.33-1.24c0-.1.1-.14.17-.14h2.25c.1 0 .14 0 .14.14v8.84c0 .1-.1.13-.14.13h-1.52c-.1 0-.14 0-.14-.13l.1-6.87c0-.12 0-.16-.1-.16s-.1.1-.12.18l-1.49 4.69c-.1.21-.1.23-.22.23h-1.27c-.16 0-.18 0-.25-.2l-1.37-4.72c-.1-.14-.1-.18-.13-.18-.1 0-.1 0-.1.2l.1 6.83c0 .1-.1.13-.14.13h-1.48c-.1 0-.14 0-.14-.13v-8.84c0-.1.1-.14.14-.14h2.37c.1 0 .12.1.15.14l1.43 4.92c.1.15.1.18.13.18.1 0 .1 0 .14-.18z"/><g class="logomark"><path d="M61.43 111.42H40.95V41.87h20.48zm-41.15 67.62H-.07v-46.25h20.35z" opacity=".4"/><path d="M61.43-.04h31.2v74.13h-31.2zM20.28 31.09h20.67v64.5H20.28z" opacity=".3"/><path d="M144.31 194.8h-31.14v-91.87h31.14zm-51.68 15h-31.2V74.09h31.2z" opacity=".8"/><path d="M164.85 120.6h-20.54V74.54h20.54zM20.28 95.59h20.67v73.95H20.28z" opacity=".5"/><path d="M164.85 169.54h-20.54V120.6h20.54zM92.63 36.58h20.54v95.95H92.63z" opacity=".7"/><path d="M185.33 102.93h-20.48V60.89h20.48zM-.07 74.54h20.35v58.25H-.07z" opacity=".2"/><path d="M185.33 151.74h-20.48v-48.81h20.48zm-72.16-133.6h31.14v84.79h-31.14zM61.43 192.89H40.95v-81.47h20.48z" opacity=".6"/></g></svg>