<svg xmlns="http://www.w3.org/2000/svg" viewBox="0 0 247.956 73.591"><path d="M63.09 37.38c0 2.05-.11 4.18-.26 6.19-.15 1.95-.18 4.47-.5 6.43-1.23 7.48-6.01 10.57-12.2 10.89l-3.22.22-3.21-.22c-6.19-.32-10.98-3.41-12.21-10.89-.32-1.96-.35-4.48-.49-6.43-.15-2.01-.26-4.14-.27-6.19v-.68-.77c0-2.04.12-4.18.27-6.19.14-1.95.17-4.47.49-6.43 1.23-7.48 6.02-10.56 12.21-10.89l3.21-.12 3.22.12c6.19.33 10.97 3.41 12.2 10.89.32 1.96.35 4.48.5 6.43.15 2.01.26 4.15.26 6.19V37.38m24.64-17.21C85.55 14.26 80.22 9.032 75.15 6.8c-1.35-.814-3.79-1.603-7.29-2.25-4.6-.908-11.46-1.485-19.72-1.527h-2.46c-8.26.04-15.12.618-19.72 1.527-3.5.646-5.94 1.435-7.28 2.25C13.6 9.03 8.26 14.26 6.09 20.17 4.41 24.43 3.795 30.26 3.643 35.54c0 .38-.02.77 0 1.16-.01.4 0 .69 0 1.08.152 5.27.766 11.1 2.45 15.36C8.26 59.05 13.6 64.28 18.68 66.51c1.34.81 3.78 1.61 7.28 2.25 4.6.91 11.46 1.48 19.72 1.53h2.46c8.26-.1 15.12-.62 19.72-1.53 3.5-.64 5.94-1.44 7.29-2.25 5.07-2.23 10.4-7.46 12.58-13.37 1.68-4.26 2.34-10.09 2.5-15.36 0-.39.1-.68 0-1.08v-1.16c-.16-5.28-.82-11.11-2.5-15.37zm65.97 7.2l21.7-13.95h10.4v-8.8h-37.6v8.8h7.9l-27.5 17.73V13.42h8.6v-8.8H95.31v8.8h8.59v46.45h-8.59v8.8h41.89v-8.81h-8.6V43.49l8.3-5.32 17.8 21.69h-6.5v8.81h42.4v-8.81h-7.5l-29.4-32.49m90.4-13.96v-8.8h-46v8.8h9.5v46.45h-9.5v8.81h46v-8.81h-9.5V13.41h9.5"/></svg>