<svg xmlns="http://www.w3.org/2000/svg" viewBox="0 0 184 57"><path d="M83.74 23.99c-.54.17-.87.7-.83 1.24l-5.95 1.93c-.1-.2-.19-.38-.32-.55l2.06-1.85c.21.11.47.14.72.1.49-.16.76-.69.6-1.18a.935.935 0 0 0-1.18-.61.95.95 0 0 0-.6 1.19v.1L76.2 26.2c-.13-.19-.3-.32-.48-.42l1.12-2.53c.25 0 .49-.1.69-.24.38-.35.41-.94.1-1.33a.988.988 0 0 0-1.33-.1c-.38.34-.41.93-.1 1.32l.1.1-1.13 2.52c-.19-.1-.4-.11-.62-.14v-6.27c.52-.14.9-.61.9-1.17 0-.67-.54-1.21-1.21-1.21-.67 0-1.22.54-1.22 1.21 0 .57.39 1.04.92 1.18v6.26c-.21 0-.42.1-.62.13l-1.13-2.53c.18-.17.28-.41.28-.67 0-.52-.42-.94-.93-.94a.94.94 0 0 0 0 1.88h.1l1.12 2.52c-.19.1-.36.23-.52.37l-2.06-1.86a.9.9 0 0 0 0-.72c-.21-.48-.77-.69-1.24-.48-.47.21-.69.77-.48 1.24.21.47.77.69 1.24.48 0 0 .1 0 .1-.1l2.04 1.84c-.12.17-.24.35-.32.55l-6-1.89c0-.53-.3-1.04-.84-1.21a1.2 1.2 0 0 0-1.52.78c-.21.64.14 1.32.78 1.53.54.17 1.11-.1 1.4-.51l5.94 1.93c0 .2-.1.42-.1.64l-2.73.28a.938.938 0 0 0-1.73.13c-.16.5.11 1.02.6 1.18a.93.93 0 0 0 1.18-.6v-.1l2.71-.28c0 .21.1.42.19.62l-2.37 1.37a.943.943 0 0 0-.69-.22c-.52.1-.89.52-.84 1.04.1.51.52.89 1.03.83.52 0 .89-.51.84-1.03v-.1l2.35-1.35c.13.17.27.34.43.48l-3.66 5.04c-.5-.19-1.08 0-1.41.42-.39.54-.27 1.3.27 1.7.54.39 1.3.27 1.69-.27.34-.46.3-1.08 0-1.49l3.65-5.03c.19.11.39.21.6.27l-.56 2.66c-.24 0-.47.17-.62.38a.93.93 0 0 0 .2 1.31.94.94 0 1 0 1.11-1.52s-.1 0-.1-.1l.56-2.64h.66l.56 2.65a.93.93 0 0 0-.41.6c-.11.51.21 1 .72 1.11a.932.932 0 0 0 1.11-.72.94.94 0 0 0-.72-1.12h-.1l-.56-2.64c.21-.1.41-.16.6-.27l3.66 5.04c-.34.41-.37 1.02 0 1.47.39.54 1.15.66 1.7.27.54-.4.66-1.16.26-1.7-.33-.46-.93-.62-1.43-.41l-3.66-5.03c.17-.14.31-.31.44-.48l2.37 1.36c0 .24 0 .49.16.7.31.42.89.52 1.31.21.42-.3.51-.89.21-1.31a.93.93 0 0 0-1.31-.2s-.1 0-.1.1l-2.36-1.36c.1-.19.16-.4.2-.62l2.73.29c.1.23.21.45.44.58.44.25 1.02.1 1.28-.35.26-.45.1-1.02-.35-1.28a.944.944 0 0 0-1.28.34v.1l-2.72-.29c0-.22 0-.43-.1-.64l5.95-1.93c.29.44.86.66 1.39.49.64-.21.98-.89.78-1.53-.2-.64-.89-.99-1.53-.78zm96.96 28.59l-.1-16.51h-21V3.94h-16.4v14.45c-4-8.586-12.7-14.558-22.8-14.558-.1 0-.2.01-.3.02-.1 0-.2-.02-.3-.02-9.8 0-18.3 5.627-22.39 13.818C93.36 9.225 84.78 3.4 74.81 3.4c-10.51 0-19.5 6.464-23.24 15.63-3.84-8.94-12.72-15.198-23.06-15.198-13.86 0-25.096 11.238-25.096 25.098s11.236 25.1 25.096 25.1c10.51 0 19.5-6.47 23.24-15.64 3.84 8.94 12.71 15.2 23.06 15.2 9.8 0 18.26-5.63 22.39-13.81 4.1 8.42 12.6 14.25 22.6 14.25h.6c10.1 0 18.8-5.95 22.8-14.52v13l37.5.1zM28.73 37.37c-4.78 0-8.66-3.88-8.66-8.66s3.88-8.65 8.66-8.65c4.77 0 8.65 3.87 8.65 8.65s-3.87 8.66-8.65 8.66zm56.04-5.58c.41.55.73 1.17.96 1.86 1.11 3.43-.77 7.1-4.19 8.22a6.53 6.53 0 0 1-7.32-2.41c-.4.56-.89 1.06-1.47 1.49-2.92 2.11-7 1.47-9.11-1.45-1.72-2.35-1.62-5.48 0-7.7-.65-.21-1.28-.52-1.87-.94-2.91-2.12-3.56-6.2-1.44-9.11a6.537 6.537 0 0 1 7.34-2.36c0-.68.1-1.37.32-2.06 1.11-3.43 4.79-5.3 8.22-4.19 2.77.9 4.53 3.48 4.51 6.25.64-.22 1.34-.34 2.06-.34 3.6 0 6.52 2.92 6.52 6.53 0 2.91-1.91 5.37-4.55 6.21zm42.63 1.47c-1.5 2.35-4.1 3.95-7 4.08-4.7-.14-8.4-3.94-8.4-8.63 0-4.7 3.8-8.51 8.4-8.63 2.4.11 4.5 1.17 6 2.79h16.8v10.39H127.4z"/></svg>