<svg xmlns="http://www.w3.org/2000/svg" viewBox="0 0 367 161"><path d="M129.03 61.94c-.1-19.47 19.95-28.66 32.97-25.24v14.95c0-.26-2.9-.33-5.62-.33-8.2 0-12.3 6.12-12.3 18.35V103h-15.04m200.73-66.99c-.44 0-.87 0-1.3.1-.86.1-1.69.18-2.51.35h-.12c-.37.1-.73.15-1.09.25-10.49 2.42-20.75 11.11-20.72 25.23v41.07h14.68V69.67c0-12.12 3.94-18.23 11.8-18.34 7.87.11 11.81 6.22 11.81 18.34v33.34H357V61.94c0-14.11-10.23-22.8-20.72-25.23-.41-.1-.8-.21-1.21-.28-.82-.17-1.68-.28-2.54-.35h-.1c-.42 0-.83 0-1.24-.1H329.76zm-97.8.99c-9.47 0-17.51 3.23-24.1 9.75-6.58 6.52-9.87 14.46-9.87 23.75 0 9.87 3.23 18.05 9.69 24.56 6.45 6.61 14.47 9.94 24.03 9.94 4.32 0 8.32-.67 12.03-1.97l4.72 7.32c6.61 10.23 6.52 17.54-.28 21.9-2.26 1.45-12.08 5.49-12.19 5.25l6.31 13.5c13.07-2.36 38.34-17.21 22.78-42.19l-8.84-13.68c6.49-6.5 9.75-14.52 9.75-24.1 0-9.56-3.27-17.62-9.81-24.18-6.63-6.57-14.71-9.85-24.22-9.85zm0 13.41c5.71 0 10.32 1.9 13.81 5.69 3.45 3.74 5.16 8.74 5.16 15 0 6.25-1.71 11.25-5.16 15-3.45 3.74-8.05 5.59-13.81 5.59-5.72 0-10.32-1.87-13.81-5.66-3.41-3.74-5.1-8.84-5.1-15.28 0-5.99 1.73-10.87 5.22-14.65 3.49-3.79 8.06-5.69 13.69-5.69zm-70.96-38.12v-1.97h-13.27v1.97h5.58v17.42h2.11V12.29zm-16.48 0v-1.97H133.4v19.39h2.12v-9.03h5.18v-1.96h-5.18v-6.43zm-16.92 17.42V10.32h-2.11v19.39zm-7.9 0V10.32h-2.12v8.29h-9.42v-8.29h-2.1v19.39h2.1v-9.14h9.42v9.14zm-18.7-5.09q0-1.09-.28-1.92-.27-.83-.92-1.51-.62-.7-1.68-1.28-1.05-.59-2.62-1.16-1.43-.53-2.33-.97-.86-.45-1.35-.89-.49-.47-.65-.94-.17-.5-.17-1.11 0-.58.19-1.08.22-.53.65-.92.47-.39 1.17-.61.7-.25 1.68-.25 1.43 0 2.46.47 1.06.45 2.09 1.33l1.35-1.69q-1.19-.96-2.55-1.52-1.32-.55-3.22-.55-1.32 0-2.43.33-1.09.33-1.87 1-.76.63-1.2 1.55-.42.91-.42 2.07 0 1.06.27 1.87.29.79.92 1.46.65.64 1.68 1.22 1.05.55 2.6 1.11 1.29.46 2.16.94.86.45 1.37.91.55.48.77 1.03.21.55.21 1.22 0 1.54-1.1 2.43-1.09.9-2.98.9-1.46 0-2.71-.64-1.24-.64-2.33-1.69l-1.4 1.6q1.13 1.16 2.75 1.94 1.65.75 3.6.75 1.49 0 2.66-.42 1.16-.41 1.98-1.13.81-.72 1.21-1.72.44-1 .44-2.13zM68.64 9.52h3.59l8.75 16.9V9.52h2.59v20.19h-3.6l-8.74-16.89v16.89h-2.59zm-18.27 0h12.47v2.3h-9.8v5.98h9.4v2.29h-9.4v7.33h10.04v2.29H50.37zm-16.41 2.25v7.58h3.35q1.87 0 2.89-.99 1.02-.98 1.02-2.81 0-1.81-1.02-2.8-1.02-.98-2.89-.98zm-2.67-2.25h6.02q3.32 0 5.01 1.54 1.7 1.53 1.7 4.49 0 3-1.7 4.52-1.69 1.53-5.01 1.53h-3.35v8.11h-2.67zm-12 1.85q-2.9 0-4.62 2.22-1.71 2.21-1.71 6.05 0 3.81 1.71 6.03 1.72 2.21 4.62 2.21 2.91 0 4.61-2.21 1.7-2.22 1.7-6.03 0-3.84-1.7-6.05-1.7-2.22-4.61-2.22zm0-2.21q4.15 0 6.63 2.85 2.49 2.84 2.49 7.63 0 4.77-2.49 7.63-2.48 2.84-6.63 2.84-4.16 0-6.66-2.84-2.48-2.85-2.48-7.63 0-4.79 2.48-7.63 2.5-2.85 6.66-2.85zM290.7 103h-14.4V36.83h14.4zM276 21.64c0-2.07.74-3.86 2.2-5.37 1.47-1.51 3.23-2.27 5.27-2.27 2.08 0 3.86.76 5.33 2.27 1.46 1.47 2.2 3.28 2.2 5.42 0 2.15-.74 3.98-2.2 5.48-1.44 1.51-3.19 2.27-5.27 2.27-2.09 0-3.86-.76-5.33-2.27-1.46-1.5-2.2-3.35-2.2-5.53M180.47 14c-2.05 0-3.79.77-5.25 2.28-1.47 1.51-2.22 3.3-2.22 5.37 0 2.18.75 4.02 2.22 5.53 1.46 1.51 3.23 2.28 5.31 2.28 2.08 0 3.85-.77 5.28-2.28 1.47-1.51 2.19-3.32 2.19-5.46 0-2.15-.72-3.96-2.19-5.44-1.47-1.51-3.26-2.28-5.34-2.28zm-7.17 22.83V103h14.4V36.83zM66.05 70.77c0 6.43 1.7 11.52 5.11 15.26 3.48 3.79 8.09 5.69 13.8 5.69 5.77 0 10.37-1.87 13.81-5.62 3.45-3.74 5.17-8.74 5.17-15 0-6.25-1.72-11.25-5.17-15-3.49-3.79-8.09-5.68-13.81-5.68-5.62 0-10.19 1.89-13.67 5.68-3.5 3.79-5.24 8.68-5.24 14.67M51 70.51c0-9.3 3.29-17.21 9.88-23.73C67.47 40.26 75.49 37 84.96 37c9.51 0 17.59 3.28 24.22 9.85 6.55 6.56 9.82 14.62 9.82 24.18 0 9.65-3.3 17.74-9.88 24.26-6.64 6.47-14.78 9.71-24.42 9.71-9.55 0-17.56-3.3-24.02-9.91C54.22 88.57 51 80.37 51 70.51"/></svg>