<svg xmlns="http://www.w3.org/2000/svg" viewBox="0 0 1024 768"><path d="M896.3 625.5c0-15.1-12-27.1-27.1-27.1-9.6 0-19.1 3.2-27.1 8v111.5c0 8.7-7.2 15.9-15.9 15.9-8.8 0-15.9-7.2-15.9-15.9v-96.4c0-18.3-12-23.1-26.3-23.1-11.2 0-18.3 1.6-27.9 4v115.5c0 8.7-7.2 15.9-15.9 15.9-9.6 0-16.7-7.2-16.7-15.9V596.8c0-8.7 5.5-15.9 13.5-19.1 15.9-6.4 31.9-9.5 50.2-9.5 15.1 0 28.6 4.7 38.2 12.7 12.7-8 28.7-12.7 43.8-12.7 34.2 0 59.7 25.4 59.7 59.7v90c0 8.7-7.2 15.9-15.9 15.9-9.6 0-16.7-7.2-16.7-15.9v-92.4zm-207.1 42.2c0 19.9-5.6 35.8-17.5 48.6-11.9 11.9-28.7 17.5-48.6 17.5-19.1 0-35.8-5.6-47.7-17.5-12-12.8-17.6-28.7-17.6-48.6v-33.4c0-19.2 5.6-35.9 17.6-47.8 11.9-12 28.6-18.3 47.7-18.3 19.9 0 36.7 6.3 48.6 18.3 11.9 11.9 17.5 28.6 17.5 47.8v33.4zm-31.8-35.8c0-19.9-12.8-33.5-34.3-33.5-20.7 0-33.4 12-33.4 33.5v39c0 20.7 12.7 33.4 33.4 33.4 21.5 0 34.3-12.7 34.3-33.4v-39zm-238.1-.8c0-18.3 5.6-33.5 16.7-45.4 11.9-11.2 27.9-17.5 46.2-17.5 15.1 0 30.2 3.9 43.8 10.3 5.6 2.4 8.7 8.8 8.7 14.3 0 8-6.3 15.2-15.1 15.2-3.2 0-5.6-1.6-8-2.4-8.7-4-19.1-7.2-29.4-7.2-19.1 0-31.1 11.2-31.1 30.3v44.6c0 19.9 12 30.2 31.1 30.2 10.3 0 21.5-3.2 30.2-7.1 2.4-1.6 4.8-1.6 7.2-1.6 8 0 15.1 6.3 15.1 15.1 0 5.6-3.1 11.2-9.5 14.3-13.6 6.4-27.9 9.6-43 9.6-18.3 0-34.3-5.6-46.2-17.5-11.1-11.2-16.7-27.1-16.7-45.4v-39.8zM373.9 694c11.1 4.8 15.1 16.7 11.1 27.8-4.7 9.6-16.7 15.2-27 10.4-11.2-4-16-16.7-12-27.1 4.8-10.3 17.5-15.9 27.9-11.1zm461-292.3c0 12.8 2.4 21.5 6.4 27.1 5.6 6.4 13.6 10.4 24.7 10.4 11.9 0 23.1-3.2 33.4-8 2.4-.8 4.8-1.6 7.2-1.6 8 0 15.1 6.4 15.1 15.1 0 5.6-2.3 11.2-7.9 13.6-15.1 7.1-31.1 11.1-47.8 11.1-18.3 0-34.2-6.3-46.2-17.5-11.1-11.9-16.7-27.1-16.7-46.2v-39c0-18.3 5.6-34.2 16.7-45.4 12-11.9 27.9-18.3 46.2-18.3 18.3 0 34.2 6.4 45.4 18.3 11.1 11.2 17.5 27.1 17.5 45.4V381c0 11.2-8.7 20.7-20.7 20.7h-73.3zm61.4-30.2c0-26.3-10.4-38.2-30.3-38.2s-31.1 11.9-31.1 38.2h61.4zm-231.8-4.8c0-18.3 5.6-34.2 17.6-45.4 11.1-11.9 27-18.3 45.3-18.3 15.2 0 30.3 4 43.8 10.3 5.6 3.2 8.8 8.8 8.8 14.4 0 7.9-6.4 15.1-15.1 15.1-3.2 0-5.6-.8-8-1.6-8.8-4.8-19.1-7.9-29.5-7.9-19.1 0-30.2 11.1-30.2 30.2v45.4c0 19.1 11.1 30.3 30.2 30.3 10.4 0 21.5-4 31.1-8 1.6-1.6 4-1.6 6.4-1.6 7.9 0 15.1 6.4 15.1 15.1 0 5.6-3.2 12-9.6 14.4-13.5 6.3-27.8 10.3-43 10.3-18.3 0-34.2-6.3-45.3-17.5-12-11.9-17.6-27.1-17.6-46.2v-39zM565 350c0-26.3 20.7-47 47-47 7.9 0 15.9 1.6 23.9 3.2 7.1 1.6 12.7 7.9 12.7 15.1 0 8.8-6.4 15.1-15.1 15.1-2.4 0-3.2 0-5.6-.8-4.8-.8-10.3-2.3-15.9-2.3-8 0-14.4 6.3-14.4 14.3v105.1c0 9.6-7.1 16.7-15.9 16.7-8.7 0-16.7-7.1-16.7-16.7V350zm-71.7-30.3c0-8.7 7.2-16.7 16-16.7 8.7 0 16.7 8 16.7 16.7v121.9c0 8.7-5.6 16.7-14.4 19.1-15.1 5.5-31.8 8.7-49.3 8.7-18.3 0-34.3-5.6-46.2-17.5-11.2-11.1-16.7-27.1-16.7-46.2v-86c0-8.7 7.1-16.7 16.7-16.7 8.8 0 15.9 8 15.9 16.7v88.4c0 19.9 11.2 31.1 30.3 31.1 11.1 0 21.5-1.6 31-4V319.7zm-126.6 83.6c0 19.1-6.3 35.9-18.3 47.8-11.9 12-28.7 18.3-47.8 18.3-19.1 0-35.8-6.3-47.7-18.3-12-11.9-18.4-28.7-18.4-47.8v-33.4c0-19.9 6.4-36.6 18.4-48.6 11.9-11.9 28.6-18.3 47.7-18.3s35.9 6.4 47.8 18.3c12 12 18.3 28.7 18.3 48.6v33.4zm-32.6-36.6c0-19.9-12.8-33.4-33.5-33.4-21.5 0-33.4 11.9-33.4 33.4v39c0 21.5 11.9 33.5 33.4 33.5s33.5-12 33.5-33.5v-39zm-205.5 27.1c-17.5-6.4-30.23-19.1-30.23-43 0-27.9 22.33-47.8 54.13-47.8 21.5 0 32.7 3.2 43 8 6.4 3.1 10.4 8.7 10.4 15.1 0 8-7.2 15.1-15.2 15.1-2.3 0-5.5-.8-7.9-1.6-8-4-20.7-6.3-31.1-6.3-12.7 0-21.5 6.3-21.5 16.7 0 8.7 6.4 13.5 13.6 15.9l30.2 9.6c20.7 7.1 33.5 21.5 33.5 44.6 0 27-22.3 49.3-55.8 49.3-19.1 0-33.4-4-45.4-8.7-6.34-3.2-9.52-8.8-9.52-14.4 0-8.7 6.32-15.9 15.12-15.9 2.4 0 5.6.8 8 1.6 7.9 4.8 18.3 7.2 32.6 7.2 15.1 0 22.3-5.6 22.3-16 0-11.9-8.7-15.9-20.7-19.9l-25.5-9.5zM672.5 93.57c0-19.11-11.1-30.26-31.1-30.26-10.3 0-20.7 1.59-30.2 3.98V182.8c0 8.7-7.2 15.9-15.9 15.9-9.6 0-16.8-7.2-16.8-15.9V60.12c0-8.76 5.6-15.92 14.4-19.11 15.1-4.78 31.8-7.96 48.5-7.96 19.2 0 34.3 6.37 46.2 17.52 11.2 11.15 17.5 27.07 17.5 45.39v86.84c0 8.7-7.1 15.9-16.7 15.9-8.7 0-15.9-7.2-15.9-15.9V93.57zM451.1 131c0 12.7 2.4 21.5 6.4 27.1 5.6 7.1 13.5 11.1 23.9 11.1 11.9 0 23.9-4 34.2-8.7 2.4-.8 4.8-1.6 6.4-1.6 8 0 15.9 7.1 15.9 15.1 0 6.4-3.2 11.1-8.7 14.3-15.2 7.2-31.1 10.4-47.8 10.4-18.3 0-33.5-5.6-45.4-17.5-11.1-11.2-17.5-27.1-17.5-45.4V95.96c0-18.32 6.4-34.24 17.5-45.39 11.9-11.95 27.1-17.52 45.4-17.52 19.1 0 34.2 5.57 46.2 17.52 11.1 11.15 17.5 27.07 17.5 45.39v15.14c0 11.1-9.6 19.9-20.7 19.9h-73.3zm61.3-29.5c0-26.25-10.3-38.19-31-38.19-19.9 0-30.3 11.94-30.3 38.19h61.3zm-250-41.38c0-8.76 5.6-16.72 14.3-19.11 15.2-4.78 31.9-7.96 48.6-7.96 19.1 0 34.3 6.37 46.2 17.52C382.6 61.72 389 77.64 389 95.96v39.84c0 18.3-6.4 35-17.5 46.2-11.1 11.9-25.5 16.7-43.8 16.7-10.3 0-23.1-3.2-32.6-8v38.2c0 9.6-7.2 16.8-16 16.8-9.5 0-16.7-7.2-16.7-16.8V60.12zm94 33.45c0-19.11-11.2-30.26-31.1-30.26-10.3 0-19.9.8-30.2 3.18v91.61c8.7 7.1 19.1 11.1 30.2 11.1 19.9 0 31.1-11.1 31.1-31V93.57zM229 132.6c0 19.1-6.4 35.8-18.4 47.8-11.9 11.9-28.6 18.3-47.7 18.3-19.9 0-35.9-6.4-47.8-18.3-12-12-18.32-28.7-18.32-47.8V99.14c0-19.11 6.32-35.83 18.32-47.78C127 39.42 143 33.05 162.9 33.05c19.1 0 35.8 6.37 47.7 18.31 12 11.95 18.4 28.67 18.4 47.78v33.46zm-32.7-35.85c0-19.9-12.7-33.44-33.4-33.44-21.5 0-34.3 11.94-34.3 33.44v39.05c0 20.7 12.8 33.4 34.3 33.4 20.7 0 33.4-12.7 33.4-33.4V96.75z"/></svg>