<svg xmlns="http://www.w3.org/2000/svg" class="community-logo logo openstack" viewBox="0 0 354 363"><path class="logotype" d="M236.6 5c-.2 0-.4.02-.6.04L54.94 20.79c-.26 0-.49.1-.73.1-.17 0-.34.1-.51.1-7.12 1.31-12.23 7.41-12.62 14.52v.3l-.14 45.49 9.64 9.53-7.48.66 29.36 26.54 37.24-5-6.3-6.2 9.9-.9v-8.61c0-3.96 3.3-7.47 7.2-7.82l85.5-7.43.2 64.16 9.4 9.3-6.7.5 25.6 25.7 41.2-3.6-6.6-6.5 9.4-.8-.2-66.4-40.8 3.4L206 79.36l2.1-2.27 29.4 26.54 37.9-4.53-6.7-6.64 9.8-.85.1-45.49c-.6-4.56-3.5-8.35-7.3-9.73-1.8-.73-3.7-.88-5.7-.56l-6.6 1.24L96.74 51.22l-13.56-.23c-4.04.1-8.26 2.14-11.15 5.69 1.8-4.2 5.73-7.77 10.7-8.91l13.48-2.69 162.29-14.1 7 .17c1.5.1 3 .39 4.4.92l-23.7-23.5c-2.6-2.566-6.1-3.595-9.6-3.57zM40.77 91.66h-.1zm0 1.78l.27 67.16 9.39 9.3-9.1.8c8.18 7.8 22.51 21.6 28.2 25.5l41.91-3.7 5 4.4-.1 8.5c0 2.4 1.6 3.8 3.9 3.6l107.3-9.4c2.3-.2 4.4-2.5 4.4-4.8v-11.4l-25.7-25.7V166.5c.1 4-2.4 7-6.9 7.6-28.6 2.6-57.3 5-86 7.5l-.2-61.7-37.88 2.8-5.3-2.9zM41 174.5l-.1 43.1c0 3.5 1.35 6.6 3.68 9.1 10.31 9 20.37 19.9 29.55 29.1 1.3 1.3 5.14 3.2 9.35 2.9l181.12-15.9c7.6-.7 13.8-7.4 13.8-15l.1-43.8-40.5 3.5v7.3c0 5.6-4.4 10.4-10 10.9L120.8 215c-5.7.6-10.6-3.9-10.6-9.6l.1-6.7-40.27 3.6c-.12-1.4-25.89-24.9-29.07-27.8zm255.14 97.7v67h8v-17.7l2.9-4.4 11 22.1h9l-14.7-27.1 13.5-19.7h-8.7l-10.1 16.5c-.9 1.5-1.8 3.4-2.7 5.2h-.2v-41.9zm-86.5 9.2l-8 3v8h-6.2v5.6h6.2v27.2c0 6.4.9 9.6 3 11.8 1.9 2 4.7 2.8 8 2.8 2.6 0 4.5-.3 5.9-.8l-.4-5.7c-.8.2-1.9.3-3.2.3-3 0-5.3-1.7-5.3-7.8V298h9.8v-5.6h-9.8zm120.4 9.1v.9h3.2v6.8h1.3v-6.8h3.2v-.9zm8.9 0v7.7h1.2v-4.6-.8-1.1l2.8 6.5h1.3l2.7-6.5v6.5h1.2v-7.7h-1.8l-2.8 6.5-2.7-6.5zm-316.93 1.2c-8.7 0-16.97 7.1-16.97 24.2 0 16.4 7.33 24.1 16.44 24.1 7.86 0 16.87-6.1 16.87-24.2 0-16.3-7.23-24.1-16.34-24.1zm43.36 0c-3.99 0-7.96 1.7-10.79 6.7h-.22l-.42-6h-7.11c.11 3.2.42 7.4.42 14.6v50.8h7.96v-23.3h.2c1.36 2.7 4.09 5.5 8.91 5.5 7.96 0 15.71-6.9 15.71-24.3 0-15.4-5.76-24-14.66-24zm38.67 0c-10.19 0-17.21 9.5-17.21 24.6 0 14.3 6.28 23.5 18.41 23.5 4.1 0 8.4-.9 11.2-2.3l-1.3-5.4c-2 1-4.8 1.8-8.4 1.8-5.8 0-11.95-3-11.95-17.4h23.45c.1-1.2.2-2.5.2-4.3 0-10.5-4.2-20.5-14.4-20.5zm42 0c-5.4 0-9.5 2.6-11.7 6.4h-.2l-.4-5.7h-7c.1 3.7.4 6.5.4 12v34.8h8.1v-29.4c0-1.7.1-3.1.4-4.3.9-4.9 4.2-7.5 7.5-7.5 5.9 0 7.1 5.5 7.1 11.1v30.1h8v-31.5c0-11.3-5.2-16-12.2-16zm35 0c-7.8 0-13.9 5.3-13.9 12.9 0 5.4 3.6 9.4 10.2 13.3 5.1 3.2 6.5 5.6 6.5 9.2 0 4.2-3 6.8-7.5 6.8-3.2 0-6.4-1.4-8.1-2.5l-2 5.7c2.2 1.6 6.2 2.7 9.9 2.7 8.4 0 15.3-4.6 15.3-14 0-6.4-4.6-10.7-10.5-14.2-5-3.2-6.2-4.9-6.2-8 0-3.1 2.1-6 6.4-6 2.8 0 4.9.9 6.9 2.1l2.1-5.6c-2.1-1.2-5.1-2.4-9.1-2.4zm57.7 0c-5 0-9.6 1.6-11.8 3.1l1.8 5.2c2.4-1.5 5.2-2.4 8.4-2.4 6.3 0 8 4.2 8 10.5v1.5c-11.4.1-21.5 5.2-21.5 17 0 8.1 5.2 13.4 11.9 13.4 4.4 0 7.9-2.2 10.2-5.7h.3l.5 4.9h7.2c-.4-3-.5-7.1-.5-10.7v-20.3c0-10.4-4.3-16.5-14.5-16.5zm43.7 0c-12.7 0-20 10.9-20 24.4 0 15.4 7.4 23.7 18.5 23.7 3.6 0 6.6-.8 8.4-1.8l-1.1-5.7c-1.8.9-3.7 1.3-5.8 1.3-7.4 0-11.9-6.6-11.9-17.5 0-9.2 3.5-18.1 11.7-18.1 2.6 0 4.7.7 5.8 1.2l1.5-6.1c-1.4-.7-4.4-1.4-7.1-1.4zm-179.3 5.8c3.9 0 7.7 4.1 7.6 13.4H94.9c.31-6.3 2.92-13.4 8.24-13.4zm-81.44.1c7.12 0 8.58 11 8.58 18.2 0 7.3-1.46 18.3-8.37 18.3-7.33 0-8.8-10.6-8.8-18.3 0-7.2 1.36-18.2 8.59-18.2zm41.25.5c6.49 0 9.01 8.1 9.01 17.8 0 9.4-2.19 17.9-8.9 17.9-2.2 0-5.86-1.2-7.43-7.9-.31-1.1-.42-2.5-.42-3.8v-12c0-1.3.11-2.6.31-3.6.42-4.3 3.77-8.4 7.43-8.4zm182.39 16.8v9.5c0 .9-.1 1.8-.3 2.7-.9 4.6-3.9 7.1-7.4 7.1-2.8 0-6.2-2.2-6.2-8.4 0-10.1 9.7-10.9 13.9-10.9z"/></svg>