<svg xmlns="http://www.w3.org/2000/svg" viewBox="0 0 588 229"><path d="M79.31 121.4v-13.7m-.14-63.58v30.34l16.61 16.48 16.62-16.48V44.12H79.17zm33.23 30.34v23.48h23.5l21.3-21.42-23.5-23.48-21.3 21.42zm23.5 23.48l-16.6 16.66 16.6 16.6h30.2V97.94h-30.2zm0 33.26h-23.5v23.4l21.3 21.3 23.5-23.3-21.3-21.4zm-23.5 23.4L95.78 138l-16.61 16.6v30.2h33.23v-30.2zm-33.23 0v-23.4H55.83l-21.42 21.4 23.48 23.3 21.28-21.3zm-23.34-23.4l16.48-16.6-16.48-16.66H25.49v33.26h30.34zm0-33.26h23.34V74.46L57.89 53.04 34.41 76.52l21.42 21.42zm23.34 0v9.56l-6.86 7.1 6.86 6.8v9.8h9.75l6.86 6.8 6.82-6.8h9.8v-9.8l6.9-6.8-6.9-7.1v-9.56h-9.8l-6.82-7-6.86 7h-9.75zM433.5 124c-16.2 0-27.7 11-27.6 27.8 0 14.7 9.4 27.4 27.6 27.4 8.1 0 14.7-3 20.4-8.6v-20.2h-22.7v3.7h18.7v15c-4.6 4.2-10.5 6.1-16.4 6.1-15.5 0-23.7-10.8-23.7-23.4 0-12.5 8.1-24.1 23.7-24.1 6.2 0 12.7 2.4 17.5 6.9l2.2-2.5c-5.4-5.3-12.5-8.1-19.7-8.1zm-246.7.7v53.8h18.1c18.8 0 27.5-13.8 27.4-27.6-.5-13.1-9.2-26.2-27.4-26.2h-18.1zm74.7 0l-24.2 53.8h4.6l5.9-13.3h32l5.9 13.3h4.4L266 124.7h-4.5zm25.1 0v.1l21 32.2v21.5h4V157l21.2-32.2v-.1H328l-18.3 28.4-18.3-28.4h-4.8zm58.7 0v53.8h34.4v-3.9h-30.3v-49.9h-4.1zm44.7 0v53.8h4v-53.8h-4zm77.9 0v53.8h3.9v-24.4h34.4v24.4h4.1v-53.8h-4.1v25.7h-34.4v-25.7h-3.9zm52.6.1v3.6h19.4v50.1h4.2v-50.1h18v-3.6h-41.6zm-329.7 3.9h14.1c15.6 0 23 11.1 23.1 22.2.3 11.6-7.1 23.7-23.1 23.7h-14.1v-45.9zm72.9.1l14.4 32.6h-28.8l14.4-32.6zm-50.1-78.78c-18.7 0-26.8 14.28-26.8 27.46 0 14.14 9.1 27.72 26.9 27.72 17.9 0 26.9-13.44 26.9-27.58 0-14.14-8.9-27.74-27-27.6zm38 .69v53.69h2.6V85.17h20.6c22.5.14 22.5-34.46 0-34.46h-23.2zm49.7 0v53.69h37.5v-2.3h-35V78.44h32.3v-2.33h-32.3V53.04h33.9v-2.33h-36.4zm50.1 0v53.69h2.4V69.65l-.2-12.76 38.6 47.51V50.71h-2.5v34.87l.3 12.5-38.4-47.37h-.2zm-137.8 1.64c16.2 0 24.7 11.81 24.7 25.27 0 12.9-8.6 25.28-24.6 25.28-16.2 0-24.4-12.79-24.6-25.42-.1-12.63 8.1-25.13 24.5-25.13zm40.6.69h20.6c19.1 0 19.1 29.8 0 29.8h-20.6v-29.8z"/></svg>
