<svg xmlns="http://www.w3.org/2000/svg" viewBox="0 0 1157 359.1"><path d="M497.3 233.1v-4h1c.6 1 .6 1 1.9 0 1.3-1 2.3-1 6.1-1 3.5 0 4.5 0 5.8-1 1.9 0 2.5-1 2.5-3 .3 0 .3-2 .7-3 .3-2 .6-9 .6-39 0-40-.3-41-1.6-44-1.3-2-2.2-2-9.3-3h-7.7v-5c0-4 0-4 .7-4 .6 1 1.3 1 2.2 0h5.1c8.7-1 17-3 29.8-7 8-3 9.3-3 9.6-4 .6-1 1.3-1 2.2-1l1 1v20l.6-1h1.3c.3 1 .6 1 1 0 .6 0 4.4-3 8.6-6 12.5-10 14.1-11 19.8-12 3.6-1 9.6-2 12.8-2 4.8 0 12.2 2 16.7 4 8.3 4 13.1 11 16 20 1.6 7 1.6 7 1.9 46 .3 36 .3 37 1.3 40 1.2 2 4.4 3 11.5 4h5.1v10l-9.6-1h-31.7l-8.6 1v-40c-.3-34-.3-40-.6-42-2-11-7.4-17-16.7-19-2.2 0-4.5-1-7.7-1-4.4 0-4.8 0-7.3 1-5.5 2-10.3 6-12.8 12l-1.3 2-.3 32c0 38 0 40 2.5 42 1.6 2 4.5 2 10.6 3h5.4v10l-12.8-1h-43.8l-12.5 1zm-33.2-67c3.5 0 3.5 0 3.2-6-.7-10-1.9-16-4.5-21-1-2-1.9-3-3.5-5-3.9-4-8.3-6-14.4-5-12.2 0-18.6 8-20.8 25 0 2-.3 5-.3 7v4h1.9c8.6 1 20.5 1 28.1 1zm-20.8 75h-3.9c-6.7-1-12.8-3-18.8-6-5.8-2-9-5-13.5-9-8-8-12.8-18-15-31-.6-3-.6-6-1-13 0-13 .7-20 3.2-28 1-4 3.6-9 3.9-9 .3 0 1.6-2 3.2-4 5.7-6 9.2-9 20.8-16 8.6-5 11.8-7 16-8 5.7-2 13.7-3 18.5-3 23.4 2 38.4 14 42.9 35 .6 2 .6 4 .9 14v10l-2.5 1c-3.2 1-9.6 2-13.8 3-10.2 1-11.8 1-35.8 2h-23v4c.9 21 14 37 34.2 39 1.9 1 4.5 1 5.8 1 6.4 1 15-1 24.6-5 3.2-2 3.5-2 3.8-3 .3-1 .7-1 1-1 .3 0 2.2 2 2.9 3 .3 1-4.2 11-5.5 13-.3 1-7.3 4-13.1 6-4.5 2-10.9 4-15.7 5-3.2 0-17.9 1-20.1 0zm-282.6-14c9.6-1 18-4 24.8-9 5.3-4 11.6-11 13.2-16 .3 0 1.4-3 2.4-5 4.2-10 6.3-20 7.4-33 .6-6 .2-24-.6-30-2.5-18-7.5-32-15.4-42.96-1-2-3.6-5-5.8-7-8.8-9-18.3-13.2-30.7-13.7-13.2-.5-26.5 2.6-35.4 8.7-14.9 9-22.87 24.96-25.59 49.96-.7 6-.96 20-.51 26 1.5 21 6.4 37 15.1 50 3.5 5 9.3 11 13.9 14 6.8 5 13.1 7 21.8 8h3.6zm-23.6 14c-20.7-2-38.41-8-51.46-18-14.4-11-24.21-28-28.22-48-4.09-20-2.95-43 3.07-61 1.26-4 3.95-10 5.07-12 1.11-2 7.31-9.96 9.97-13.96 15.13-17.3 37.07-27.9 65.47-31.1 16.5-1.8 27.7-1.4 41 1.4 19.1 4 34.8 12.6 45.6 24.7 11.3 14 17.6 28.96 20 50.96.6 5 .5 21-.2 27-2.7 23-10.8 41-24.7 55-14 13-33.3 22-57.3 25-5.2 0-23 1-28.3 0zm850.7-90c0-89.16 0-92.06.6-91.56.6.7 1.3.7 1.9.1.3-.3 3.9-.4 20.7-.5l20-.1V205.1h4c2 0 18 1 35 0h32v38H987.8zm-105 96c-11.8 0-23-3-32.6-6-4.5-2-13.4-6-17.3-9-8.3-5-15.7-12-21.4-21-1.9-2-1.6-3 .3-3 1.3 0 3.2-1 15.7-9 11.8-7 14.7-8 14.7-9 .3-1 .6-1 1-1 .3 0 1.9 1 4.1 4 4.5 4 7.4 7 11.9 9 10.8 7 23.3 10 39.9 9h9c3.5-1 7.4-3 9.9-4 2.3-2 5.5-5 5.5-6l1.2-2c2.3-5 2.6-10 .7-14-2.3-5-9.3-9-19.9-12-5.7-1-10.5-2-23-4-12.8-2-16.9-3-23.7-5-18.2-5-30.4-14-36.4-26-7.7-15-5.8-38.96 4.1-53.96 1.6-2 6.7-7 11.2-11 8-6.7 18.6-12.1 30.1-15.1 9.6-2.5 11.5-2.8 20.8-3 11.5-.2 19.2.4 28.8 2.4 15.3 3.2 29.4 9.7 40.9 18.7 3.5 3 9.6 9 11.9 12l1.2 1-8.3 7c-4.8 3-12.1 8.96-16.3 11.96l-8 6-3.8-4c-11.5-10.96-22.1-16.96-35.5-18.96-5.2 0-13.5 0-17.3 1-11.5 3-18.2 8.96-18.2 17.96 0 4 1.2 8 3.8 10 4.8 5 13.1 7 35.8 11 21.5 3 31.4 5 37.1 7 1.3 0 4.2 2 6.1 3 13.8 6 21.1 14 24.6 25 1.6 5 2.3 8 2.6 13 .6 6 0 13-1 18-5.4 27-28.4 45-62.7 50-8 1-18.8 1-27.5 0zm-161.8 1c-.7 0-3.6-1-5.8-1-29.4-2-53.1-15-67.5-36-1.6-2-1.6-2-1-2 .4-1 1-1 1.3-1 1 0 1 1 20.5-11 7-5 9.3-6 9.9-7 .3-1 1-1 1.3-1 0 0 .6 0 1.3 1 6.4 8 15.3 14 24.9 18 8.3 3 14.1 3 24.7 3h10.5c5.8-1 10.2-2 14.4-5 1.9-2 4.2-4 4.2-5 0 0 .3-1 .9-2 2.3-4 2.6-9 1.3-13-.6-1-1.3-2-3.2-4-2.2-2-3.2-3-6.1-5-4.1-2-7.6-3-12.8-4-5.4-2-7.3-2-21.1-4-21.4-4-29.4-6-39.3-11-12.2-6-19.5-14-23.1-25-1.9-6-2.5-8-2.2-17 0-8 0-8 .6-12 .7-3 1.3-5.96 2-6.96 8-24.46 35.4-36.82 55-40.9 4.1-.9 5.1-1 12.8-1.2 5.1-.1 10.5 0 13.4.2 23.7 1.9 43.8 10 59.8 23.9 3.2 3 8.7 9 9.3 10 .3 0-2.9 3-22.1 16.96l-9.9 8-4.5-4C757.1 97.14 744 91.14 728 91.14c-13.8 0-23.7 5-26.9 12.96-2.2 6-.9 13 3.2 17 4.5 4 13.5 6 36.5 10 28.1 4 34.9 6 43.8 10 14.7 8 22.1 18 25 32 .6 4 .6 18 0 22-.7 3-1.9 8-2.9 11-1.3 3-4.2 9-6.4 12-2.6 4-7.7 9-11.2 12-11.5 9-26.9 15-45.4 17-4.5 0-19.5 1-22.7 1zm-388.2-24c3.3-1 7.6-3 10.3-5 2.5-3 4.9-6 5.7-9 .3 0 1-2 1.5-4 3.7-9 5-16 5-28 0-5 0-8-.6-11-1-5-2-8-3.9-12-2-5-3.8-7-7.1-10-12.1-12-34.1-10-44 3l-1.3 2v59l2 3c4.6 6 11.2 10 18.2 11 1.5 0 3.6 1 4.9 1 3 1 6.6 1 9.3 0zm-85 76v-5l.8 1h2.2c1.1-1 2-1 5.8-1 3.7 0 4.7 0 5.9-1 1.9-1 2.7-2 2.8-3 0-1 .2-2 .5-3 .3-2 .4-15 .4-73 0-75 0-74-1.5-77-1.2-2-2.2-2-9.3-3h-6.9c-.7 0-.7 0-.7-5 0-4 .3-6 .8-4 .1 1 1.7 1 2.3 0 .2 0 2.9 0 5.9-1 12-2 15.4-2 28.8-7 7.3-2 8.5-2 9.2-3l.8-1h1.4l1.4 1v11c0 10 .1 11 .8 10h1.2c1 0 1.5 0 8.6-6 10.9-9 14.7-11 21.1-13 7-3 16-3 21.7-2 9.3 2 16.6 6 23 12 6.7 7 11.2 15 13.1 25 .7 5 .7 16 0 21-1.9 11-5.4 21-9.6 28-4.8 8-9.6 13-19.5 21-12.5 10-18.9 14-25.3 17-5.1 2-7.1 2-12.6 2s-8.6 0-16.1-2c-2.8-1-5.3-2-5.7-2h-.8l.2 25c.1 22 .2 24 .6 26 .3 1 1 3 1.4 3 1.7 2 5.7 3 14.7 3h4.3v10H247.8z"/></svg>