<svg xmlns="http://www.w3.org/2000/svg" version="1.2" viewBox="0 0 258.69 60.74"><path d="M58.04 19.83c-1.43 5.16-7.81 7.5-12.12 4.21 1.4-5.36 7.92-7.82 12.12-4.21m-.86 22.52c-4.66 2.62-10.82-.26-11.52-5.63 4.79-2.79 11.13.1 11.52 5.63M40.25 57.74c-5.13-1.53-7.34-7.95-3.97-12.19 5.33 1.51 7.67 8.07 3.97 12.19m-20.76-.52c-2.83-4.54-.23-10.82 5.1-11.76 3 4.66.4 11.12-5.1 11.76M3 40.08c1.47-5.14 7.87-7.43 12.15-4.11C13.7 41.33 7.16 43.74 3 40.08m.59-21.52c4.59-2.76 10.82-.1 11.68 5.29-4.71 2.92-11.13.22-11.68-5.29M19.28 3c5.2 1.23 7.79 7.52 4.67 11.95-5.42-1.2-8.13-7.62-4.67-11.95m22.95.17c2.73 4.61 0 10.82-5.36 11.65-2.9-4.73-.15-11.13 5.36-11.65m2.43 13.09c.96 5.26-3.77 10.15-9.07 9.06-1.08-5.44 3.71-10.49 9.07-9.06m5.71 14.2c-3.04 4.4-9.83 4.51-12.82 0 3.08-4.61 10.05-4.8 12.82 0m-6 14.07c-5.26.97-10.15-3.76-9.07-9.06 5.44-1.08 10.5 3.71 9.07 9.06m-28.28-.28c-.96-5.27 3.77-10.15 9.07-9.07 1.07 5.44-3.71 10.49-9.07 9.07m-5.71-14.2c3.04-4.4 9.83-4.52 12.82 0-3.08 4.6-10.04 4.79-12.82 0m6-14.08c5.26-.96 10.15 3.76 9.07 9.07-5.44 1.07-10.5-3.72-9.07-9.07m14.2-5.71c4.4 3.04 4.51 9.83 0 12.82-4.61-3.09-4.79-10.05 0-12.82m150.76 9.95v35.55h-10.08V20.21c0-1.45-1.13-2.74-2.58-2.74h-12.09v38.29h-10.07V7.4h22.16c6.86 0 12.66 5.8 12.66 12.81m-47.79 0c0-1.45-1.28-2.66-2.73-2.66h-12.66v13.14l13.95-3.63c.8-.48 1.44-1.37 1.44-2.34zm10.08 0v4.51c0 6.05-4.43 11.05-9.99 12.5l-15.48 4.03v14.59h-10.07V7.39h22.73c7.09 0 12.81 5.73 12.81 12.82m-48.91 0c0-1.45-1.2-2.66-2.66-2.66h-9.19c-1.45 0-2.66 1.21-2.66 2.66v22.81c0 1.45 1.21 2.66 2.66 2.66h9.19c1.46 0 2.66-1.21 2.66-2.66zm10.08 0v22.81c0 7.01-5.72 12.74-12.74 12.74h-9.19c-6.93 0-12.73-5.73-12.73-12.74V20.21c0-7.01 5.8-12.82 12.73-12.82h9.19c7.02 0 12.74 5.81 12.74 12.82m136.54 35.55h-10.39L216.6 7.39h10.72l8.79 30.39 8.86-30.39h10.72zM195.4 20.21v10.32l14.83-3.95v10.48l-14.83 3.95v14.75h-10.08V20.21c0-7.01 5.57-12.82 12.74-12.82h16.93v10.08h-16.93c-1.45 0-2.66 1.29-2.66 2.74"/></svg>