<svg class="logo company-logo oracle" xmlns="http://www.w3.org/2000/svg" viewBox="0 0 662 94"><path class="logotype" d="M634.6 16.25c0-3.85 3.1-6.953 6.9-6.953 3.9 0 7 3.103 7 6.953 0 3.92-3.1 7.02-7 7.02-3.8 0-6.9-3.1-6.9-7.02zm6.9 8.98c5 0 8.9-3.98 8.9-8.91 0-4.94-3.9-8.92-8.9-8.92-4.8 0-8.8 3.98-8.8 8.92 0 4.93 4 8.91 8.8 8.91zM640.7 11c1.4 0 2 .1 2.6.32 1.8.57 2 2.15 2 2.78 0 .13 0 .44-.2.82 0 .38-.3 1.14-1.2 1.71-.1.1-.2.13-.4.25l2.3 4.11h-2.3l-2-3.79h-1.4v3.79h-1.9V11h2.5zm.7 4.56c.6-.1 1.3-.1 1.6-.64.2-.25.3-.5.3-.88 0-.51-.3-.95-.8-1.2-.4-.19-.8-.19-1.8-.19h-.6v2.91h1.3M278 59.12h40.6l-21.4-34.59-39.5 62.53h-18l48-75.11c2.1-3.032 5.6-4.865 9.5-4.865 3.7 0 7.2 1.77 9.2 4.745l48.2 75.23h-18l-8.5-13.97H287l-9-13.97zm186.5 13.97V7.843h-15.2V79.47c0 1.96.7 3.86 2.2 5.32 1.4 1.45 3.4 2.27 5.5 2.27h69.5l9-13.97h-71zm-252.1-11.7c14.8 0 26.8-11.95 26.8-26.74s-12-26.807-26.8-26.807h-66.6V87.06H161V21.82h50.4c7.1 0 12.8 5.75 12.8 12.83s-5.7 12.83-12.8 12.83l-42.9-.1L214 87.02h22.1l-30.6-25.67h6.9zM52.02 87.06c-21.87 0-39.61-17.7-39.61-39.58 0-21.87 17.74-39.637 39.61-39.637h46.05c21.83 0 39.63 17.767 39.63 39.637 0 21.88-17.8 39.58-39.63 39.58H52.02zm45.02-13.97c14.16 0 25.66-11.44 25.66-25.61 0-14.16-11.5-25.66-25.66-25.66h-44c-14.16 0-25.64 11.5-25.64 25.66 0 14.17 11.48 25.61 25.64 25.61h44zM386.4 87.06c-21.9 0-39.7-17.7-39.7-39.58 0-21.87 17.8-39.637 39.7-39.637H441l-8.9 13.977h-44.7c-14.2 0-25.7 11.5-25.7 25.66 0 14.17 11.5 25.61 25.7 25.61h54.9l-9 13.97h-46.9zm186.3-13.97c-11.7 0-21.6-7.84-24.7-18.65h65.1l9-13.97H548c3.1-10.75 13-18.65 24.7-18.65h44.7l9-13.977h-54.7c-21.9 0-39.7 17.767-39.7 39.637 0 21.88 17.8 39.58 39.7 39.58h46.9l9-13.97h-54.9z"/></svg>