<svg xmlns="http://www.w3.org/2000/svg" viewBox="0 0 2359 384.3"><path d="M1919 231.5h96c-2 16.4-16 46.2-20 55.3-18 0-36-.2-52-.9l20 40.2c51 0 171-17 226-26.7 3 13.1 5 24.2 6 29.9l70-13.9c-20-38.4-37-66.9-51-83.9h86v-21.3h-381v21.3zm264 46.7c-24 2.2-81 6.1-140 7.8 18-17 36-39.9 45-54.5h80c5 11.9 10 29.4 15 46.7m-175-118.7v19.1h198V165c21 13.3 42 24.4 62 30.6l36-34.4c-108-33.1-170-101.7-170-101.7h-76c-36 52.2-66 82.5-148 99.5l13 14.6c32 0 60-5.5 85-14.1zm114-77.6c10 20.9 39 50.5 73 75h-180c54-20 90-53.5 107-75M1707 239h-150l1 82.1h176v-62.2c0-11.3-14-19.9-27-19.9zm-32 61.9h-56v-44.8h56v44.8m0-242.8h-67l1 34.8h-160v22.8h98l6 36.9h-85v168.5h52V173.6h63c-6 14.6-17 30.5-48 37.3l31 20.3c29-7.6 71-40.8 85-57.6h18v17.1c0 12.8 8 27 27 27h78V298l-26 .7 14 23.5h73l-1-132.9c0-18.2-16-36.7-54-36.7h-44c11-10.2 25-24.9 35-36.9h77V92.9h-173V58.1zm99 142.5h-31c-8 0-11-3.5-11-11v-16h42v27zm-87-48h-76l-28-36.9h124c-3 10.8-11 25-20 36.9m-312 58l-14-34.1c-14 6.6-41 19-78 21.2 0-.9-1-1.8-1-2.8-2-12.5-3-22.5-4-29.4 20-5.5 39-11.5 54-18.2h50v-22h-243v22h77c-20 14.5-74 23.1-84 23.1l20 21.7c11-2.1 25-4.5 40-7.4-14 29.3-48 43.8-66 50l19 16.8c11-4 23-8.9 35-13.9-15 24.2-53 51.2-73 61.5l18 12.4c32-13.3 84-43.6 103-56.8 0 8.7-1 17.6-3 26.6-1 12.1-11 14.3-19 13.9-17-1.1-22-2.5-22-2.5l20 25.9h56c11 0 20 .2 22-15.2 1-7.6 3-18.7 4-32.5 25 20.8 60 38.6 77 42.4l30-32.7c-19-7-78-28.3-103-49.2 33-4 73-14.1 85-20.8zm-152-32.2c3 10 5 21.6 5 34.5-13-5.4-23-19-30-29.4 8-1.6 17-3.3 25-5.1zm-31 54c15-6.9 29-13.7 37-18.4v37.5c-16-3.8-24-10.2-37-19.1m9-152.3h125v27.7h62c0-29.8-16-48.7-47-48.7h-204v49.1h64V80.1M1105 218c-6 3-15 6.6-25 10.2v-89.4h38v-18.5h-38V68.7h-48l1 51.6h-43.4l-1 18.5h44.4v105.5c-18 5.6-34.4 9.7-41.4 10l19.4 51.9c16-7.5 83-37 104-53.7l-10-34.5m-347.1-99.5V68H684s.4 34.9.4 51.2c0 1.9-.1 3.8-.2 5.7H534.7v26.3h146.9c-11.8 65.6-61 115.8-148 144.3l31.3 23.1c107-18.8 168.5-129 168.5-143.6 0 15 59.4 110.2 148.6 144.4l38.6-42c-38.9-16.7-84.8-36.3-118.9-70.4-19.6-19.6-31.1-38.9-37.3-55.8h163.2v-26.3H758.3c-.2-2.2-.4-4.4-.4-6.4m-325 17.3c-6.6 3.2-13.9 0-18.6-3.9-4.8-3.9-12.1-3.6-19-5.4-6.9-1.8-24-.3-35.7 2.2 6.6 1.4 27 11.4 32.4 15.3 9.9 7.1 21.5 15.7 21.5 39.2 0 34.6-40.8 72.1-97.6 96.7C259 304.5 209.1 312 161.3 312c-61.9 0-93.6-32.5-93.6-58.9 0-72 133.4-144 188-164.4 21.5-8 72.9-24.2 83.5-24.2 50.3 0 84.5 36 99.1 56.7 3.7 5.3-.3 12.1-5.4 14.6zm-269.7 79.5c-19.7 19.3-22.3 37.5-22.3 43.9 0 15.3 23.7 32.1 60.5 32.1s103.1-20.5 130.1-42.1c39.8-31.7 42.7-56 42-64.9-2.5-30.4-27.4-31-38-31-10.5 0-21.5 0-43 12.8s-33.1 33.2-37.5 41c-4.4 7.9-5.8 12.9-9.8 13.6-4 .7-10.4-5-14.3-10.7-4.3-6.4-5.1-8.6-2.5-12.5 7.3-13.2 40.8-38.5 57.2-49.9-61.6 18.2-102.8 48.5-122.4 67.7M449.3 55H55v267.7h393.8l.5-267.7zm-12.2 11.8c0 11.1-.4 232.9-.5 244H67.2v-244h369.9"/></svg>