<svg xmlns="http://www.w3.org/2000/svg" viewBox="123.73 395.804 1203.54 512.063"><path class="logotext" d="M262.192 630.954c-76.348 0-138.462 62.102-138.462 138.45 0 76.348 62.114 138.46 138.46 138.46s138.46-62.113 138.46-138.46c-.004-76.348-62.11-138.45-138.458-138.45zm0 213.01c-41.11 0-74.558-33.45-74.558-74.56 0-41.113 33.446-74.56 74.558-74.56 41.105 0 74.552 33.444 74.552 74.56 0 41.108-33.447 74.56-74.552 74.56zM1327.27 630.954h-74.547V524.448h-63.9v106.506H954.497v-106.5c0-34.29 7.188-45.494 9.54-48.29 5.86-7.062 16.702-16.456 43.05-16.456 3.695 0 12.31.925 28.412 7.118l22.938-59.647c-19.9-7.656-36.698-11.376-51.353-11.376-39.427 0-70.453 13.31-92.076 39.374-16.435 19.517-24.417 48.714-24.417 89.275v106.5h-85.21V524.45h-63.905v106.506h-138.46v153.758c0 12.494-1.396 23.085-4.148 31.496-2.052 5.46-5.672 10.473-10.854 15.133-9.62 8.49-22.134 12.623-38.252 12.623-15.98 0-28.427-4.133-38.01-12.598-5.65-5-9.43-10.172-11.54-15.805l-.306-.796c-1.022-2.52-3.396-10.492-3.396-30.057V630.954H432.6v153.758c0 22.732 2.586 40.286 7.907 53.642 5.806 15.298 15.52 29.033 28.915 40.896 21.505 18.99 48.533 28.617 80.335 28.617 31.93 0 59.027-9.626 80.757-28.812 13.324-11.98 22.93-25.9 28.55-41.38l.256-.742c5.043-15.03 7.602-32.6 7.602-52.22v-89.865h74.556v213.02h63.904v-213.02h85.21v213.02h63.903v-213.02h85.207l.01 213.02h63.902l-.01-213.02h85.22v213.02h63.898v-213.02h74.548v-63.894z"/><path class="logotext" d="M1039.71 556.4c0 17.646 14.31 31.945 31.95 31.945s31.95-14.302 31.95-31.945c0-17.646-14.31-31.953-31.95-31.953s-31.95 14.31-31.95 31.953z"/></svg>