<svg xmlns="http://www.w3.org/2000/svg" viewBox="0 0 90 40"><path d="M84.09 16.6v-1.5h-5.81V7.9h-.6c-.5 2.5-1.19 5.4-2.69 7.2h-3.31v1.5h3.31v13.2c0 3.8 3 4.2 4.29 4.2l4.5-1.9h-2.19c-1.71 0-3.31-.9-3.31-3.8V16.6h5.81m-21.9-2l-6.1.9c1.5 1 3.1 2 3.1 2.9v15.2h3.5V21.4c0-2.9 1.7-3.9 2.8-3.9.79 0 1.5-.1 2.9.5.5.5.5 1.6.7 1.6l1.7-3.2c0-.8-.5-1.8-1.9-1.8-1.71 0-3.1.8-6.2 3l-.5-3m-15.4.9c.9.8 3.1 1.6 3.1 2.9v15.2h3.6V14.8l-.1-.2-6.6.9m7.3-6.7c0 1.3-1 2.4-2.3 2.4-1.3 0-2.4-1.1-2.4-2.4 0-1.3 1.1-2.3 2.4-2.3 1.3 0 2.3 1 2.3 2.3zM21.74 6c.7.5 1.4.9 2.1 1.4l5.53 13.4 4.73 12.8h2.58l5.4-13.8c1.7-4.4 4.4-10.8 5.5-12.9l.9-.9h-2.7v.2l-4.2 11.6-4.8 11.5-.5-.1-4.12-10.3L27.4 6.7V6h-5.62m-5.83 8.5c-5.55 0-10.035 4.4-10.035 9.8 0 5.3 4.485 9.7 10.035 9.7 5.54 0 10.03-4.4 10.03-9.7 0-5.4-4.49-9.8-10.03-9.8zm0 1.6c3.5 0 6.34 3.6 6.34 8.2 0 4.5-2.83 8.1-6.34 8.1s-6.345-3.6-6.345-8.1c0-4.6 2.835-8.2 6.345-8.2z"/></svg>