<svg xmlns="http://www.w3.org/2000/svg" viewBox="0 0 477.342 248.908"><path d="M283.18 22c-19.487 0-35.24 15.754-35.24 35.24a35.1 35.1 0 0 0 7.175 21.326c9.784-11.317 24.23-18.494 40.345-18.494 7.892 0 15.38 1.733 22.122 4.817.543-2.464.84-5.02.84-7.65 0-19.487-15.756-35.24-35.243-35.24zm12.28 42.072c-15.15 0-28.686 6.817-37.732 17.547 6.41 6.69 15.435 10.86 25.452 10.86 15.447 0 28.54-9.903 33.308-23.714a49.19 49.19 0 0 0-21.028-4.694zm-56.01 60.377a19.268 19.268 0 0 0-19.3 19.298c0 10.682 8.616 19.3 19.3 19.3 8.204 0 15.173-5.095 17.97-12.294-6.898-7.024-11.864-15.946-14.047-25.907a19.502 19.502 0 0 0-3.924-.398zm8.41 1.94a49.18 49.18 0 0 0 10.72 19.782c.1-.796.168-1.6.168-2.424 0-7.66-4.442-14.237-10.887-17.358zm18.405 14.31v70.075c0 8.882 7.242 16.123 16.123 16.123v-4a12.09 12.09 0 0 1-12.123-12.123V140.7zm185.018 0v38.167l-20.21.03c-13.23 0-23.997 10.77-23.997 24s10.77 23.998 24 23.998h9.847v-.236c3.203-.517 6.333-2.15 8.89-4.536 3.087-2.882 5.386-6.866 5.468-11.322.14-7.643 0-29.89 0-29.926v-40.172zm-199.55 11.878a36.962 36.962 0 0 0-18.663 5.097 15.403 15.403 0 0 0 6.193 1.366 32.973 32.973 0 0 1 7.862-2.126 15.516 15.516 0 0 0 4.607-4.336zm-25.55 10.3c-7.09 6.77-11.517 16.304-11.517 26.864 0 20.503 16.666 37.164 37.168 37.164v-4c-18.34 0-33.168-14.823-33.168-33.164 0-9.877 4.304-18.727 11.136-24.8a23.382 23.382 0 0 1-3.62-2.063zm-47.18 15.827c-13.23 0-24 10.77-24 24v22.2h4v-22.2c0-11.07 8.93-20 20-20 11.072 0 20.002 8.93 20.002 20v22.2h4v-22.2c0-13.23-10.77-24-24.002-24zm134.51.2c-13.232 0-24 10.77-24 24.003 0 13.232 10.768 24 24 24 13.23 0 24-10.768 24-24s-10.77-24.002-24-24.002zm-267.513 0c-13.23 0-24 10.77-24 24s10.77 24 24 24 23.998-10.77 23.998-24-10.767-24-23.998-24zm36 1.796v30.073c0 8.882 7.243 16.123 16.123 16.123 6.074 0 11.377-3.387 14.126-8.367 2.748 4.98 8.05 8.366 14.124 8.366 8.88 0 16.124-7.24 16.124-16.123V180.7h-4v30.073c0 6.72-5.405 12.123-12.124 12.123a12.093 12.093 0 0 1-12.125-12.123V180.7h-4v30.073a12.09 12.09 0 0 1-12.127 12.123A12.094 12.094 0 0 1 86 210.773V180.7zm266.01 0v22.206c0 13.23 10.768 23.998 24 23.998 13.23 0 24.002-10.77 24.002-23.998V180.7h-4v22.206c0 11.067-8.933 19.998-20.003 19.998s-20-8.93-20-19.998V180.7zm103.273 2.165c.01 2.632.126 20.897 0 27.857-.06 3.096-1.74 6.174-4.2 8.47-2.458 2.294-5.65 3.694-8.16 3.694h-7.847c-11.07 0-20-8.93-20-19.998 0-11.07 8.93-20 20-20zm-137.77.04c11.068 0 20 8.932 20 20.002 0 11.07-8.932 20-20 20-11.07 0-20-8.93-20-20s8.93-20.002 20-20.002zm-267.513 0c11.07 0 20 8.93 20 20s-8.93 19.998-20 19.998-20-8.93-20-19.998c0-11.07 8.93-20 20-20zM295.46 64.072c-27.268 0-49.334 22.064-49.334 49.334 0 27.267 22.065 49.326 49.334 49.326 27.27 0 49.334-22.06 49.334-49.326 0-27.27-22.065-49.334-49.334-49.334zm-53.548.2c-21.155 0-38.26 17.106-38.26 38.26 0 12.455 5.933 23.502 15.127 30.485 3.888-7.46 11.693-12.568 20.67-12.568 1.08 0 2.14.09 3.184.23a53.068 53.068 0 0 1 9.927-38.935 39.09 39.09 0 0 1-7.96-17.37 38.594 38.594 0 0 0-2.688-.103zm6.867.624a35.046 35.046 0 0 0 6.34 13.664 53.74 53.74 0 0 1 8.223-7.716 38.023 38.023 0 0 0-14.564-5.948zm17.86 8.47a49.546 49.546 0 0 0-8.91 8.25c5.45 5.687 12.788 9.55 21.02 10.58-2.08-7.455-6.375-13.966-12.11-18.83zm-11.365 11.42a49.114 49.114 0 0 0-9.15 28.62c0 2.813.25 5.566.7 8.25a23.42 23.42 0 0 1 14.428 13.894c11.323-6.64 18.92-18.925 18.92-33.017 0-2.12-.177-4.194-.507-6.22-9.513-.846-18.05-5.1-24.39-11.526zM361.85 87.04c-6.434 0-12.49 1.588-17.808 4.385a53.057 53.057 0 0 1 4.752 21.98c0 14.602-5.888 27.837-15.412 37.472 7 7.788 17.154 12.683 28.467 12.683 21.155 0 38.26-17.105 38.26-38.262 0-21.154-17.107-38.26-38.26-38.26zm-21.255 6.432c-10.258 6.858-17.006 18.543-17.006 31.826a38.1 38.1 0 0 0 7.277 22.458c8.618-8.88 13.928-20.985 13.928-34.35a49.183 49.183 0 0 0-4.2-19.934zM239.45 124.45c-7.643 0-14.208 4.42-17.337 10.84a38.13 38.13 0 0 0 19.8 5.503c2.525 0 4.988-.26 7.376-.727a52.962 52.962 0 0 1-5.914-15.203 19.374 19.374 0 0 0-3.927-.414zm8.41 1.932a49.038 49.038 0 0 0 5.44 12.67 38.303 38.303 0 0 0 4.366-1.646 19.31 19.31 0 0 0-9.807-11.024zm-10.68-88.068a18.302 18.302 0 0 0-18.33 18.333c0 3.295.873 6.374 2.386 9.042a42.01 42.01 0 0 1 20.676-5.418c.725 0 1.444.024 2.16.06v-.014c-.04-.49-.07-.98-.09-1.473-.03-.533-.04-1.067-.04-1.606 0-.7.02-1.397.06-2.088 0-.093.01-.185.02-.278.04-.59.08-1.175.14-1.758l.06-.51c.06-.51.126-1.02.204-1.525.02-.134.05-.267.07-.4.09-.553.194-1.103.31-1.648l.03-.144a37.87 37.87 0 0 1 .448-1.848c0-.018.01-.036.02-.055.17-.632.36-1.257.56-1.877 0-.018.01-.035.02-.053a40.225 40.225 0 0 1 1.42-3.69v-.01a18.267 18.267 0 0 0-10.124-3.042zm13.314 5.737a36.155 36.155 0 0 0-.575 1.526c0 .023-.02.046-.02.068a34.454 34.454 0 0 0-.933 3.14 36.26 36.26 0 0 0-.36 1.624c0 .046-.02.093-.03.138-.09.49-.18.982-.254 1.48-.03.216-.06.435-.08.653-.05.35-.09.7-.13 1.056-.02.22-.03.445-.05.668-.03.364-.06.727-.08 1.094-.03.577-.04 1.158-.04 1.742 0 .592.01 1.18.04 1.765.02.442.06.88.1 1.317l.03.408c2.24.33 4.424.834 6.537 1.502.56-1.76.867-3.636.867-5.586 0-4.89-1.914-9.313-5.02-12.596zm73.527 6.917c-.703 0-1.4.026-2.095.066.06.35.1.702.147 1.055l.09.69c.03.31.07.624.09.938.03.32.05.64.07.963a34.347 34.347 0 0 1 .09 2.56c0 .635-.02 1.266-.05 1.894-.01.252-.04.5-.05.75-.03.382-.05.764-.09 1.143l-.09.81a24.7 24.7 0 0 1-.135 1.053c-.04.28-.09.556-.133.832-.06.34-.116.68-.18 1.018-.05.27-.11.54-.167.81-.07.328-.148.654-.227.98-.02.067-.03.134-.05.202a53.644 53.644 0 0 1 21.026 21.133 41.975 41.975 0 0 1 16.846-4.73c-1.555-18.04-16.65-32.17-35.102-32.17zm-6.07.53a35.124 35.124 0 0 0-17.81 8.792 52.942 52.942 0 0 1 17.442 4.6c.01-.056.03-.112.04-.167.05-.248.104-.497.152-.746.06-.306.113-.612.164-.92.04-.226.07-.452.107-.68.05-.344.09-.692.133-1.04.03-.23.06-.458.08-.69.04-.368.06-.74.08-1.112.01-.186.03-.37.04-.558.03-.576.04-1.155.04-1.737 0-.548-.02-1.093-.04-1.635-.01-.23-.02-.457-.04-.685l-.06-.85c-.03-.327-.06-.653-.102-.978l-.06-.438c-.05-.387-.104-.773-.166-1.156zM296.573 64.1a35.077 35.077 0 0 0-7.795 22.11c0 1.955.168 3.87.473 5.74a35.052 35.052 0 0 0 11.512-4.163c.01 0 .03-.02.04-.02.01 0 .02-.01.03-.02.425-.246.845-.5 1.258-.764h.02c.42-.267.834-.543 1.242-.828 0 0 .01 0 .02-.01a35.247 35.247 0 0 0 5.668-4.944c.28-.3.552-.612.82-.923.09-.1.176-.2.262-.303.232-.275.457-.554.68-.836l.31-.394a37.19 37.19 0 0 0 1.516-2.13c.11-.167.218-.335.325-.504a34.1 34.1 0 0 0 .518-.838c.115-.194.226-.392.338-.588.148-.258.296-.515.436-.777.11-.206.213-.414.32-.62.14-.28.286-.556.42-.838.127-.265.244-.535.364-.803.09-.2.183-.393.267-.593v-.012c.09-.21.167-.425.252-.637.115-.288.233-.575.34-.867.09-.237.17-.48.253-.72 0-.01 0-.02.01-.03-6.062-2.857-12.8-4.51-19.914-4.667zm-54.662.172a38.134 38.134 0 0 0-18.327 4.658c3.352 3.708 8.187 6.048 13.596 6.048 3.58 0 6.906-1.03 9.72-2.796a38.45 38.45 0 0 1-1.875-5.8c-.16-.665-.3-1.337-.426-2.015a38.547 38.547 0 0 0-2.688-.096zm6.867.62c.173.787.373 1.565.598 2.333 0 .024.01.048.02.072.228.774.483 1.537.764 2.287a18.463 18.463 0 0 0 2.834-3.68 38.365 38.365 0 0 0-4.217-1.014zm71.28 5.747c-.03.073-.05.146-.08.22-.15.4-.307.795-.468 1.19-.06.158-.125.32-.19.48-.01.027-.03.054-.04.083-.223.52-.453 1.032-.698 1.54-.106.22-.22.438-.332.658-.154.308-.31.617-.47.92-.145.268-.295.53-.446.795-.14.25-.28.5-.427.744-.17.283-.345.562-.52.84-.138.218-.274.434-.415.647-.197.3-.4.598-.607.893-.114.162-.228.324-.344.484-.24.333-.483.662-.733.987-.09.118-.182.234-.274.35-.27.343-.54.683-.822 1.016-.08.09-.156.18-.235.27-.304.354-.61.705-.926 1.048a39.503 39.503 0 0 1-3.522 3.373c-.04.03-.08.07-.115.102l-.02.02c-.4.335-.81.66-1.224.98-.02.02-.04.04-.06.05l-.02.02c-.406.314-.82.617-1.238.913-.05.04-.105.08-.158.112-.413.29-.83.57-1.255.846-.06.04-.11.07-.17.108-.426.273-.86.538-1.297.795-.04.03-.09.05-.127.07a38.954 38.954 0 0 1-12.678 4.656h-.03c3.817 13.47 15.433 23.637 29.677 25.335 1.27-13.115 8.555-24.477 19.05-31.312a49.483 49.483 0 0 0-18.782-19.24zm39.18 16.498a38.093 38.093 0 0 0-15.194 4.297 52.997 52.997 0 0 1 4.696 19.9 35.136 35.136 0 0 0 10.498-24.197zm-159.342 4.934c-19.487 0-35.242 15.754-35.242 35.24 0 19.487 15.755 35.242 35.242 35.242a35.058 35.058 0 0 0 19.967-6.213 23.445 23.445 0 0 1-2.2-4.345c-.192-.51-.37-1.027-.527-1.553v-.02a22.82 22.82 0 0 1-.38-1.45l-.06-.247a22.522 22.522 0 0 1-.276-1.496l-.03-.23a23.45 23.45 0 0 1-.174-1.69c-.03-.513-.06-1.028-.06-1.548 0-.53.02-1.055.06-1.576l.03-.43c.04-.517.1-1.03.177-1.537v-.01-.01c.08-.508.18-1.008.29-1.505l.09-.392c.12-.5.252-.993.404-1.48-10.63-7.678-17.556-20.174-17.556-34.27 0-3.6.454-7.097 1.305-10.436-.354-.01-.705-.03-1.06-.03zm5.103.37a38.4 38.4 0 0 0-1.348 10.09c0 12.456 5.933 23.5 15.13 30.48a23.404 23.404 0 0 1 3.65-5.147c.028-.03.058-.07.088-.1.243-.256.493-.507.746-.752.06-.05.112-.107.168-.16.268-.255.542-.503.822-.745.02-.02.04-.03.06-.05.287-.246.58-.484.88-.716l.12-.09a23.39 23.39 0 0 1 4.283-2.6c.05-.02.09-.04.138-.06.33-.152.662-.297 1-.434.06-.03.128-.05.193-.08.347-.136.696-.265 1.05-.385.04-.01.07-.02.105-.03.38-.127.766-.246 1.155-.353.02 0 .05-.01.07-.02a23.48 23.48 0 0 1 1.25-.305c-2.684-14.8-14.587-26.36-29.567-28.525zm135.6 1.042c-9.254 6.183-15.653 16.29-16.817 27.96h.238c7.76 0 14.927-2.5 20.742-6.737 0-.436.03-.87.03-1.307 0-7.094-1.505-13.83-4.195-19.922zm66.515 28.91a19.46 19.46 0 0 0-3.094.27c.05.872.09 1.75.09 2.634 0 11.24-4.41 21.454-11.58 29.03 3.534 4.08 8.745 6.666 14.585 6.666 10.683 0 19.3-8.618 19.3-19.3-.002-10.683-8.618-19.3-19.3-19.3zm-7.043 1.338c-7.18 2.808-12.258 9.77-12.258 17.96 0 3.384.87 6.557 2.39 9.317a38.13 38.13 0 0 0 9.908-25.712c0-.525-.02-1.046-.04-1.566zm-165.017 1.234l-.125.03c-.62.148-1.226.325-1.818.53-.143.05-.283.103-.424.155-.517.194-1.025.41-1.52.644-.1.05-.2.09-.298.142-.595.296-1.173.618-1.73.97 0 0-.02.01-.03.02a19.205 19.205 0 0 0-2.49 1.882c-.04.03-.07.07-.107.1a19.273 19.273 0 0 0-4.39 5.834 38.02 38.02 0 0 0 10.772 4.44 35.215 35.215 0 0 0 2.246-12.403c0-.79-.03-1.57-.09-2.347zm-14.318 14.124a20.075 20.075 0 0 0-.336 1.695c-.04.23-.08.458-.105.69-.04.332-.07.665-.1 1v.115c-.02.382-.04.768-.04 1.158 0 .415.02.827.04 1.236 0 .112.02.223.03.334.02.238.05.473.08.71.05.395.11.785.18 1.173.04.202.06.407.107.606.1.465.22.922.352 1.373.09.316.2.628.31.94.05.15.11.3.167.45.44 1.157.982 2.263 1.624 3.303a35.345 35.345 0 0 0 8.21-10.452 42.003 42.003 0 0 1-10.51-4.338z"/></svg>