<svg xmlns="http://www.w3.org/2000/svg" viewBox="0 0 796.7 162.69"><path d="M617.02 138.18V97.05c0 4.87 1.45-15.69-2.92-17.76-1.45-.69-4.22-2.11-7.43-2.04-3.79.1-8.16 1.91-9.47 5.27-1.75 4.11-2.63 6.91-2.48 15.45l-.29 40.37-30.75-.13V53.63h29.58l.44 9.82c4.08-5 8.89-11.46 26.52-11.46 12.68 0 22.45 5.4 26.38 18.38.87 3.28 1.02 5.42 1.46 12.15v55.69h-31.04m-232.73-24.66V90.57c0-7.19 0-16.85-3.06-23.7-2.05-4.41-3.5-6.86-7.73-9.63-10.49-7.02-25.94-5.7-29.44-5.7-18.5 0-27.98 4.88-33.95 11.59-4.81 5.55-5.83 10.99-7.14 17.69h29.29c.15-2.62.58-3.6 1.17-4.75 1.6-2.11 3.93-4.78 9.76-4.78 6.56 0 10.78 3.34 10.78 6.6 0 1.79-.14 4.72-1.45 5.7-1.31.99-4.67 2.16-5.25 2.32-1.46.24-3.35.68-5.68 1.29l-15.3 1.94c-9.19 2.13-16.33 3.99-22.3 11.99-4.37 5.56-4.37 10.63-4.37 13.24 0 11.1 4.81 17.51 8.01 20.3 7.43 6.19 18.07 5.96 20.7 5.96 14.42 0 22-6.34 26.52-9.77l1.31 8.02h31.62c-1.75-5.55-3.64-8.45-3.49-25.33zm-38.62 7.8c-2.04.65-5.54.51-6.42.46-5.24-.35-8.01-5.13-8.01-7.91 0-6.21 4.95-7.21 6.56-7.53l3.35-.94c4.23-1.47 8.6-2.71 12.82-4.18l.15 10.8c-1.31 2.43-2.77 7.67-8.45 9.3m399.01-35.34c-2.33-10.2-7.29-10.71-12.83-10.71-4.51 0-5.97 1.53-7.43 2.79-3.93 3.36-5.25 7.51-5.25 17.87 0 .79-.43 14.63 7.15 19.89 2.18 1.45 3.2 1.53 5.82 1.53.88 0 3.5.1 5.83-1.02 3.06-1.42 6.27-4.05 6.85-11.23l29.88-.25c-.29 1.92-1.46 8.7-4.37 14.28-7.44 14.82-22.59 21-37.89 21-6.27 0-10.64-.95-13.27-1.43-12.09-3.03-22.73-11.48-27.39-23.59-1.31-3.66-3.06-9.24-3.06-18.49 0-3.82.14-13.7 5.53-23.58.73-1.59 3.21-5.58 6.71-9.24 11.36-11.17 28.27-11.49 32.35-11.49 15.74 0 25.5 5.91 30.31 10.37 1.46 1.44 4.37 5.29 6.71 10.55 1.89 4.3 2.91 8.13 3.64 12.75h-29.29m-90.36-32.5h30.9v84.98h-30.9zm0-31.51h30.9v22.11h-30.9zM547.5 128.66c-5.1 5.18-15.59 11.97-32.93 11.97-5.54 0-20.84-.32-32.06-13.58-4.66-5.66-10.35-15.04-10.35-31.88 0-2.91 0-9.54 2.77-16.81 6.27-18.44 23.32-26.85 41.24-26.69 4.81 0 19.82.48 30.61 11.49 5.39 5.49 12.24 15.52 12.09 33.31 0 4.36-.29 20.87-11.37 32.19zM524.19 77.6c-2.77-2.59-7-3.12-8.46-3.12-3.64 0-6.26 2.11-7.14 2.75-3.79 3.08-6.55 7.76-6.55 18.26 0 8.25 1.89 22.05 13.55 22.05 3.35 0 6.56-.87 8.6-3.29 2.77-3.07 5.68-8.63 5.53-18.33 0-.48.15-12.51-5.53-18.32m-84.96.63c-.59-3.22-2.92-8.56-10.93-8.56-3.5 0-6.12.95-7.44 1.76-.73.31-1.89 2.42-1.89 4.84 0 .64.58 2.57 2.48 3.7 1.16.66 3.93 1.46 7.14 1.83l12.39 3.22c8.74 2.21 16.32 3.77 22.44 9.89 3.06 2.9 4.66 6.66 5.1 8.19 1.46 4.37.73 7.8.73 9.26 0 9.96-4.81 15.97-7.58 18.55-5.98 5.48-15.45 9.62-32.79 9.62-14.43 0-23.46-3.79-28.86-6.93-11.51-6.67-12.09-18.96-12.82-22.82l30.02-.1c.29 2.9.73 5.07 3.06 7.16 1.9 1.77 3.94 3 9.33 3 6.41 0 10.05-3.09 10.2-5.9.15-.34.15-2.6-.73-3.72-1.46-2.42-5.39-3.44-11.08-4.9 0 0-17.48-3.76-18.79-4.38-3.94-1.81-19.82-5.38-19.82-23.1 0-9.97 5.1-15.29 8.01-18.03 5.39-4.68 14.28-9.02 30.17-9.02 3.49 0 18.36-.16 29.43 7.42 3.07 2.08 5.54 4.66 7.44 7.72 2.62 4.34 3.06 9.53 3.35 11.3h-28.56m-174.88 60.11V97.48c0 4.86 1.31-15.96-3.06-18.02-1.46-.71-4.23-2.12-7.58-2.05-3.79.1-8.01 1.91-9.47 5.28-1.6 4.1-2.19 7.88-2.04 16.43v39.25h-31.48V53.79h29.73l.44 9.82c4.08-5 8.89-11.46 26.37-11.46 12.83 0 22.59 4.48 26.53 17.46.87 3.28 1.31 6.46 1.6 13.19v55.54h-31.04m-88.17-.1l-1.31-7.68c-4.37 3.43-12.39 10.13-26.81 10.13-2.48 0-13.26-.33-20.7-6.53-3.2-2.78-8.74-9.49-8.74-20.58 0-2.62.73-7.08 4.95-12.63 5.98-8 13.12-10.17 22.3-12.31l15.45-1.93c1.75-.49 3.64-.97 5.68-1.3.44-.17 2.92-.51 4.23-1.48 1.31-.98 2.33-4.74 2.33-6.54 0-3.27-4.23-5.94-10.78-5.94-5.83 0-8.6 2.12-10.06 4.24-.73 1.14-1.02 2.12-1.17 4.74l-29.29-.17c1.31-6.69 2.63-12.09 7.43-17.64 5.98-6.7 15.45-10.94 33.96-10.94 3.5 0 17.78-1.47 28.27 5.55 4.23 2.78 7 6.06 8.89 10.46 3.21 6.87 2.33 15.17 2.33 22.37v23.03c-.14 14.37.88 16.98 3.5 25.15zm-3.06-37.04c-4.22 1.47-8.6 2.78-12.97 4.25l-3.2.98c-1.61.32-6.56 1.4-6.56 7.61 0 2.78 1.6 7.84 8.01 7.84.88 0 4.81-.38 6.85-1.04 5.83-1.63 6.27-5.42 7.87-7.07V101.2M22 138.11V22.76h48.38c16.32.18 32.06 1.04 42.99 15.71 3.06 4.14 7.29 11.75 7.29 24.51 0 16.06-7 25.72-11.81 30.23-8.59 8.61-20.11 9.48-31.47 10.01H56.25v34.9zm47.36-61.66c5.69-.14 12.1-.45 16.18-4.6 1.16-1.23 3.06-3.69 3.06-7.7-.15-3.98-1.9-6.45-2.92-7.68-4.95-5.37-12.97-4.76-19.52-4.76h-9.48v24.74h12.68"/></svg>