<svg xmlns="http://www.w3.org/2000/svg" viewBox="-9 74 580 154"><path fill="#231F20" d="M368.9 116.888c-13.962-3.57-27.947-6.69-42.515-3.883-8.743 1.684-13.76 6.087-14.205 12.866-.514 7.843 2.97 11.835 10.84 12.292 9.356.544 18.738-.478 28.1.923 14.027 2.098 22.13 9.45 24.155 22.556 2.258 14.614-3.625 27.095-15.688 32.87-12.488 5.975-25.816 5.54-39.108 4.532-5.402-.41-10.722-1.798-16.105-2.56-4.814-.684-7.278-2.793-6.533-8.113.478-3.41.09-6.94.09-11.15 13.705 4.67 27.37 6.27 41.293 5.232 10.055-.75 16.017-5.598 16.756-13.305.772-8.04-2.77-12.373-10.905-13.004-9.566-.742-19.182.39-28.76-.954-12.302-1.727-19.498-7.518-22.37-18.642-3.484-13.498.23-26.18 9.67-32.98 5.05-3.637 10.742-5.67 16.84-6.658 16.16-2.62 32.123-1.863 47.852 2.85.853.257 1.672.41 1.653 1.54-1.343 5.128.6 10.48-1.06 15.588zM2.04 197.874c-1.285-1.272-.684-2.886-.685-4.334-.023-30.52.12-61.04-.112-91.56-.038-4.922 1.21-6.19 6.11-6.063 14.16.363 28.337.09 42.507.14 14.578.05 23.444 4.998 27.09 14.987 4.712 12.916.686 28.346-9.757 36.735-8.01 6.432-17.557 9.218-27.43 11.193-2.788.557-3.738-.254-3.993-3.145-.36-4.093-2.706-8.512-1.7-12.087 1.053-3.737 6.635-2.64 10.077-4.133 7.28-3.158 13.805-6.773 14.324-15.85.412-7.195-2.626-10.578-9.853-10.7-9.37-.16-18.747-.016-28.12-.003-1.566 1.92-.778 4.182-.783 6.266-.064 23.898-.17 47.797.064 71.692.048 4.952-1.07 7.45-6.4 6.52-.634-.11-1.302-.015-1.954-.015-8.927.003-8.927.003-8.595-9.197-.59 3.155.488 6.465-.79 9.554zm512.206-73.967c1.73 3.93.434 8.056.733 12.08.227 3.078-2.225 2.52-4.112 2.61-6.253.297-12.555-.822-18.768.64-1.59 5.085-.656 10.303-.645 15.44.03 14.494-.52 28.995.276 43.484-5.962 1.04-11.925 2.113-17.887-.005 1.107-3.83.503-7.75.515-11.62.068-22.128.05-44.258.01-66.388-.004-2.362.443-4.774-.456-7.087 1.636-11.266 9.222-16.753 19.37-19.293 4.823-1.207 9.846-1.724 14.907-1.584 15.442.428 16.623 1.71 15.26 17.997-6.216-2.11-12.562-2.905-18.997-2.378-8.38.687-13.247 7.75-11.04 15.842 6.932 1.02 13.883.568 20.833.263zm35.592 14.512c-.064 11.972-.18 23.946-.17 35.92.004 6.072 3.188 9.622 9.27 9.148 5.13-.4 6.16 1.447 5.98 6.183-.344 9.023-.08 8.647-8.997 9.106-19.292.993-26.296-4.394-25.923-26.065.322-18.724.21-37.46-.038-56.19-.058-4.334 1.168-5.568 5.418-5.323 10.966.63 8.5-2.744 11.778 12.052 3.9 2.035 8.09.878 12.096.817 5.748-.088 4.064 3.853 4.147 6.743.085 3.03 1.276 6.77-4.34 6.57-3.015-.108-6.43-1.57-9.222 1.04zm-368.422-12.316l2.188 6.134c4.87-3.747 9.82-7.262 15.938-8.554 3.346-.707 5.543-.26 4.98 4.02-.28 2.14-.22 4.365 0 6.52.354 3.46-.71 4.81-4.49 5.218-6.078.657-10.578 4.658-14.66 8.987-1.35 13.862-.3 27.76-.575 41.637-.148 7.44-.035 7.365-7.284 7.486-3.452.057-6.948-.582-10.358.47-1.594-.768-1.006-2.24-1.008-3.43-.03-22.485-.033-44.97.01-67.456.003-1.14-.726-2.663 1.037-3.315 4.606 1.597 10.003-1.73 14.222 2.282zM280.95 149.327c-.056-12.177-5.46-19.584-17.15-23.146-11.683-3.56-23.642-3.816-35.56-1.532-13.128 2.517-10.29-.307-10.743 13.36-.102 3.067.347 4.177 4.008 3.22 9.308-2.432 18.82-3.394 28.473-2.052 3.536.492 6.804 1.423 9.444 3.914 2.767 2.61 2.71 6.252 1.703 9.16-.915 2.648-3.68-.375-5.656.143-1.024.268-2.158.115-3.24.152-4.772.737-9.542.75-14.312-.006-4.24-.454-8.19.8-12.07 2.21-10.545 3.833-14.656 10.465-14.264 22.793.305 9.61 5.658 16.552 15.505 19.323 9.397 2.644 19.054 2.984 28.304-.2 5.203-1.79 9.09-2.597 14.24.928 6.378 4.367 11.314 1.07 11.316-6.397.006-13.957.062-27.914 0-41.87zm-24.408 31.476c-6.076 1.857-12.067 3.62-18.443 2.46-4.53-.824-7.452-3.383-7.37-8.382.08-4.787 3.308-6.948 7.334-7.767 3.145-.64 6.47-.4 9.714-.55l.008.297c2.17 0 4.398-.314 6.493.08 2.624.492 6.644-.904 7.084 3.478.423 4.197 1.067 8.585-4.822 10.385zM148.6 149.247c-.04-11.908-5.227-19.345-16.552-22.922-11.854-3.745-24.035-3.98-36.177-1.68-13.182 2.498-10.225-.182-10.71 13.38-.11 3.104.387 4.167 4.02 3.2 9.307-2.475 18.833-3.344 28.475-2.063 3.53.47 6.79 1.418 9.45 3.935 2.795 2.646 2.65 6.266 1.674 9.154-.88 2.607-3.674-.366-5.65.144-1.026.264-2.158.112-3.24.148-4.77.75-9.542.743-14.313.003-4.018-.495-7.77.72-11.457 1.986-10.752 3.688-15.173 10.427-14.88 22.38.255 10.405 5.612 17.222 16.215 20.098 9.214 2.5 18.65 2.79 27.656-.36 5.226-1.827 9.092-2.517 14.22.966 6.39 4.34 11.283 1.02 11.282-6.502 0-13.956.032-27.91-.013-41.865zm-22.18 30.373c-5.178 2.492-10.538 3.836-15.322 4.033-4.443-.02-7.904-.367-10.577-2.988-2.22-2.177-2.448-4.915-1.76-7.82.97-4.096 4.38-5.55 7.753-5.815 5.812-.455 11.7-.208 17.54.098 2.06.108 5.404-.344 4.993 3.41-.342 3.113 1.873 6.916-2.627 9.082zM422.412 122.494c-25.42-.106-38.413 12.674-38.552 37.92-.143 25.945 12.602 39.052 38.022 39.1 25.19.05 38.355-13.052 38.386-38.2.032-25.436-12.918-38.716-37.856-38.82zm18.414 45.53c-2.586 8.56-6.43 15.63-16.9 16.084-11.538.5-16.066-2.85-20.786-16.096-1.454-4.33-1.09-8.687-.203-13.052 4.77-13.783 8.57-17.117 19.408-17.034 9.797.075 13.858 3.535 18.484 15.748 1.212 4.784 1.217 9.568-.004 14.35z"/></svg>