<svg xmlns="http://www.w3.org/2000/svg" viewBox="0 0 229.38 51.138"><path d="M26.665 5.022L26.645 5l-.41.442L5 26.205l8.67 12.28 6.496-1.492 6.503 9.145 6.504-9.145 6.496 1.493 5.323-7.542 3.345-4.74L27.1 5.445zm0 3.813l2.76 26.9-2.654 3.922-2.865-3.92zm1.815 0l10.873 13.3-3.13 4.27zm-3.63 0l-7.74 17.57-3.133-4.27zm2.954.928l7.738 17.567-5.12 6.984zm-2.277 0l-2.62 24.55-5.12-6.983zm6.72 2.103L47.03 26.32l-2.856 4.048-4.938 6.995-5.445-1.25 4.14-5.822-1.25-2.835 3.928-5.355zm-11.164 0l-8.364 10.23 3.925 5.357-1.248 2.837 4.14 5.82-5.444 1.25-7.795-11.036zM17.325 28.38l5.172 7.052-1.91.437-4.05-5.696zm18.68 0l.79 1.794-4.05 5.696-1.91-.438zM23.1 36.315l3.7 5.063 3.43-5.064 1.885.43-5.45 7.67-5.454-7.67zm194.95-4.948v-4.396l-4.18-6.882h2.47l2.78 4.61 2.79-4.61h2.47l-4.18 6.882v4.396zm-18.05 0V20.09h2.18v9.186h5.45v2.092zm-16.39 0V20.09h7.57v2.07h-5.39v2.366h3.41v2.06h-3.41v4.783h-2.18zm-11.64 0l-4.48-6.575c-.1-.11-.15-.246-.24-.405-.1-.16-.16-.307-.22-.443V31.367h-2.17V20.09h2.05l4.36 6.494c.1.105.15.24.24.396.1.156.17.31.23.455v-.46-6.887h2.16v11.278h-1.93zm-25.37 0V20.09h5.24c.71 0 1.31.1 1.79.295.48.196.87.457 1.16.782.29.326.5.7.63 1.125.12.425.19.87.19 1.33 0 .32-.1.643-.14.97a4 4 0 0 1-.41.933c-.19.294-.42.56-.69.798-.27.24-.59.426-.95.554l2.19 4.49h-2.45l-2.11-4.205h-2.27v4.206zm5.27-6.268c.28 0 .52-.04.7-.123.19-.08.34-.19.46-.326.11-.136.2-.293.25-.473.1-.178.1-.363.1-.557 0-.178 0-.357-.1-.533 0-.176-.13-.332-.23-.473a1.21 1.21 0 0 0-.46-.333c-.18-.08-.43-.124-.73-.124h-3.09v2.942h3.09zm-22.45 6.268V20.09h7.69v2.07h-5.52v2.366h3.25v2.06h-3.25v2.723h5.86v2.06h-8.03zm-12.21-9.178v9.178h-2.18V22.19h-3.22v-2.1h8.62v2.1zm-16.88 0v9.178h-2.175V22.19H94.93v-2.1h8.62v2.1zm-14.582 9.178l-.874-2.334h-4.35l-.865 2.334h-2.34l4.32-11.278h2.123l4.32 11.278zm-2.69-7.25c-.06-.136-.12-.3-.187-.488-.06-.19-.12-.365-.167-.53-.04.166-.1.34-.166.53-.07.188-.13.352-.19.487l-1.116 2.934h2.937zm-21.03 7.25V20.09h4.84c.713 0 1.312.104 1.8.31.488.208.884.48 1.188.82.304.338.523.718.657 1.144.133.425.2.854.2 1.29 0 .27-.03.548-.1.83a3.448 3.448 0 0 1-.794 1.563c-.204.23-.45.433-.735.608a3.733 3.733 0 0 1-.982.412c-.37.1-.783.15-1.24.15h-2.66v4.15h-2.177zm4.933-6.22c.28 0 .514-.04.702-.133.188-.09.34-.205.46-.348.12-.142.203-.302.255-.48a1.865 1.865 0 0 0 .01-1.045 1.288 1.288 0 0 0-.235-.48 1.273 1.273 0 0 0-.46-.36 1.737 1.737 0 0 0-.732-.144h-2.753v2.988h2.752z"/></svg>