<svg xmlns="http://www.w3.org/2000/svg" viewBox="0 0 320 100"><path d="M66.17 17.66C62.7 13.7 56.41 12 48.37 12H25.04a3.35 3.35 0 0 0-3.3 2.82l-9.71 61.61c-.2 1.22.74 2.32 1.97 2.32h14.41l3.62-22.95-.12.72a3.34 3.34 0 0 1 3.29-2.82h6.85c13.44 0 23.97-5.46 27.05-21.26.1-.47.17-.92.24-1.37.91-5.83 0-9.81-3.17-13.41" opacity=".7"/><path d="M69.34 31.07c-.1.45-.15.9-.24 1.37-3.08 15.8-13.61 21.26-27.05 21.26H35.2a3.34 3.34 0 0 0-3.29 2.82l-3.5 22.23-1 6.3c-.16 1.06.66 2.03 1.73 2.03h12.15c1.43 0 2.66-1.05 2.88-2.47l.12-.62 2.29-14.5.15-.8a2.914 2.914 0 0 1 2.88-2.47h1.82c11.76 0 20.97-4.77 23.66-18.6 1.13-5.77.54-10.59-2.43-13.98-.9-1.03-2.02-1.87-3.32-2.57" opacity=".5"/><path d="M240.7 31.9h-16.2c-1.1 0-2 .8-2.2 1.89l-6.5 41.3c-.1.81.5 1.55 1.3 1.55h8.3c.8 0 1.4-.56 1.6-1.32l1.8-11.71c.2-1.09 1.1-1.89 2.2-1.89h5.1c10.6 0 16.8-5.14 18.3-15.31.8-4.45.1-7.95-2-10.4-2.3-2.69-6.4-4.11-11.7-4.11m1.8 15.08c-.9 5.78-5.3 5.78-9.6 5.78h-2.4l1.7-10.79c.1-.65.7-1.13 1.3-1.13h1.2c2.9 0 5.6 0 7 1.65.9.99 1.1 2.46.8 4.49M125.8 31.9h-16.1c-1.1 0-2.1.8-2.2 1.89l-6.6 41.3c-.1.81.5 1.55 1.4 1.55h7.7c1.1 0 2-.8 2.2-1.89l1.7-11.14c.2-1.09 1.1-1.89 2.2-1.89h5.1c10.6 0 16.8-5.14 18.4-15.31.7-4.45 0-7.95-2.1-10.4-2.3-2.69-6.3-4.11-11.7-4.11m1.8 15.08c-.9 5.78-5.3 5.78-9.5 5.78h-2.5l1.7-10.79c.1-.65.7-1.13 1.4-1.13h1.1c2.9 0 5.6 0 7 1.65.9.99 1.1 2.46.8 4.49m46.3-.18h-7.7c-.7 0-1.2.48-1.3 1.13l-.4 2.16-.5-.78c-1.7-2.43-5.4-3.24-9.1-3.24-8.5 0-15.8 6.46-17.2 15.51-.8 4.52.3 8.84 2.8 11.85 2.4 2.77 5.8 3.93 9.8 3.93 6.8 0 10.6-4.42 10.6-4.42l-.3 2.15c-.1.81.5 1.55 1.3 1.55h7c1.1 0 2-.8 2.2-1.89l4.1-26.4c.2-.82-.5-1.55-1.3-1.55m-10.7 15.01c-.8 4.41-4.3 7.37-8.7 7.37-2.3 0-4.1-.73-5.2-2.09-1.2-1.35-1.6-3.27-1.2-5.41.7-4.37 4.2-7.43 8.6-7.43 2.2 0 4 .73 5.2 2.11 1.1 1.38 1.6 3.32 1.3 5.45M288.8 46.8h-7.7c-.7 0-1.2.48-1.3 1.13l-.4 2.16-.5-.78c-1.7-2.43-5.4-3.24-9.1-3.24-8.6 0-15.8 6.46-17.2 15.51-.8 4.52.3 8.84 2.8 11.85 2.4 2.77 5.7 3.93 9.7 3.93 6.9 0 10.7-4.42 10.7-4.42l-.3 2.15c-.2.81.5 1.55 1.3 1.55h6.9c1.1 0 2.1-.8 2.3-1.89l4.1-26.4c.2-.82-.5-1.55-1.3-1.55m-10.7 15.01c-.8 4.41-4.3 7.37-8.8 7.37-2.2 0-4-.73-5.1-2.09-1.2-1.35-1.6-3.27-1.2-5.41.7-4.37 4.2-7.43 8.6-7.43 2.2 0 4 .73 5.1 2.11 1.2 1.38 1.7 3.32 1.4 5.45M215 46.8h-7.8c-.7 0-1.4.36-1.8.98l-10.7 15.75-4.5-15.14c-.3-.94-1.2-1.59-2.2-1.59h-7.6c-.9 0-1.6.9-1.3 1.77l8.6 25.06-8.1 11.33c-.6.89 0 2.12 1.1 2.12h7.8c.7 0 1.4-.36 1.8-.96l25.8-37.22c.6-.89 0-2.1-1.1-2.1m82.9-13.77l-6.6 42.06c-.1.81.5 1.55 1.3 1.55h6.7c1.1 0 2-.8 2.2-1.89l6.5-41.3c.1-.82-.5-1.55-1.3-1.55h-7.5c-.6 0-1.2.48-1.3 1.13"/><path d="M66.12 29.79a23.682 23.682 0 0 0-3-.66c-1.84-.3-3.86-.44-6.03-.44H38.8c-.45 0-.88.1-1.26.28-.85.41-1.47 1.21-1.62 2.18L32.03 55.8l-.11.72a3.322 3.322 0 0 1 3.28-2.82h6.85c13.44 0 23.97-5.46 27.05-21.26.1-.47.17-.92.24-1.37-.78-.41-1.62-.76-2.53-1.06-.23-.1-.46-.15-.69-.22" opacity=".4"/></svg>