<svg xmlns="http://www.w3.org/2000/svg" viewBox="0 0 562 132"><path d="M60.184 22C54.01 22 49.01 27.022 49.01 33.21c0 6.187 5 11.22 11.174 11.22 6.173 0 11.205-5.033 11.205-11.22 0-6.188-5.033-11.21-11.206-11.21zm-28.15 11.335c-2.73.06-5.03 1.045-6.936 2.96-1.99 1.992-3.013 4.34-3.07 7.054 0 2.714.823 5 2.67 6.84L46.06 71.6 24.644 93.07C22.824 94.91 22 97.18 22 99.91c.05 2.71 1.08 5.06 3.07 7.05 1.905 1.91 4.207 2.97 6.937 2.97 2.7.1 4.976-.83 6.796-2.67l21.38-21.41 21.38 21.41c1.82 1.84 4.1 2.73 6.8 2.67 2.73 0 5.03-1.06 6.93-2.97 2-1.99 3.02-4.34 3.08-7.05 0-2.73-.82-5-2.65-6.84L74.3 71.61l21.404-21.42c1.81-1.838 2.64-4.126 2.64-6.84-.1-2.716-1.08-5.063-3.07-7.054-1.91-1.916-4.21-2.9-6.91-2.96-2.73-.07-5.01.82-6.83 2.656l-21.35 21.382L38.83 35.992c-1.818-1.836-4.093-2.726-6.795-2.657zM510.9 82.97l9.22-11.34-8.68-10.61c-.59-.736-1.14-1.718-1.14-2.784 0-2.1 1.57-3.72 3.73-3.72 1.6 0 2.53.638 3.47 1.86l7.44 9.973 7.42-9.786c1.03-1.312 2-2.047 3.64-2.047 1.69 0 3.45 1.312 3.45 3.472 0 1.08-.4 1.95-1.14 2.887l-8.67 10.662 9.18 11.29c.57.73 1.11 1.71 1.11 2.8 0 2.09-1.57 3.69-3.69 3.69-1.62 0-2.56-.62-3.47-1.83l-8.02-10.53-7.9 10.31c-1.03 1.33-1.99 2.05-3.64 2.05-1.69 0-3.45-1.3-3.45-3.46 0-1.08.4-1.95 1.14-2.89m-49.98-24.59c0-2.1 1.67-3.766 3.78-3.766h.76c1.83 0 2.88.885 3.9 2.197l14.5 19.08V58.236c0-2.063 1.64-3.72 3.7-3.72 2.05 0 3.72 1.657 3.72 3.72V85.47c0 2.11-1.67 3.77-3.78 3.77h-.29c-1.81 0-2.89-.88-3.89-2.2l-15.04-19.75v18.34c0 2.03-1.65 3.69-3.7 3.69-2.05 0-3.72-1.66-3.72-3.69zm-28.21-.1c0-2.108 1.64-3.766 3.75-3.766 2.08 0 3.75 1.658 3.75 3.765v27.29a3.75 3.75 0 0 1-3.75 3.77c-2.11 0-3.75-1.68-3.75-3.77zm-42.74 0c0-2.108 1.65-3.766 3.76-3.766 2.1 0 3.75 1.658 3.75 3.765v23.91h13.9c1.91 0 3.45 1.53 3.45 3.44 0 1.89-1.54 3.41-3.45 3.41h-17.65c-2.11 0-3.76-1.66-3.76-3.77zm-46.31 28.8V56.765c0-1.08.88-1.957 1.91-1.957h21.23c.97 0 1.77.78 1.77 1.754 0 .982-.8 1.77-1.77 1.77h-19.28V70.03h17.1c.96 0 1.73.83 1.73 1.75 0 .98-.77 1.77-1.73 1.77h-17.1v11.97h19.5c1 0 1.77.78 1.77 1.75 0 .99-.77 1.77-1.77 1.77h-21.45c-1.03 0-1.91-.88-1.91-1.96m-38.7-30.56c0-1.08.85-1.958 1.91-1.958 1.05 0 1.93.877 1.93 1.957v28.95h17.71c.99 0 1.76.83 1.76 1.8 0 .99-.77 1.77-1.76 1.77h-19.64c-1.06 0-1.91-.88-1.91-1.94zm-41.11.247c0-1.08.87-1.958 1.91-1.958h10.85c7.73 0 12.79 4.102 12.79 10.87v.11c0 7.4-6.14 11.21-13.41 11.21h-8.28v10.36c0 1.08-.88 1.95-1.95 1.95-1.04 0-1.91-.87-1.91-1.95zm12.28 16.672c5.65 0 9.39-3.02 9.39-7.54v-.12c0-4.896-3.68-7.43-9.19-7.43h-8.62v15.07zm-63.78-1.42v-.12c0-9.45 7.08-17.713 17.46-17.713 10.41 0 17.37 8.172 17.37 17.602v.12c0 9.44-7.08 17.7-17.45 17.7-10.38 0-17.38-8.17-17.38-17.62m30.86 0v-.11c0-7.78-5.69-14.146-13.48-14.146-7.82 0-13.37 6.255-13.37 14.035v.12c0 7.76 5.67 14.13 13.45 14.13 7.82 0 13.4-6.26 13.4-14.04m-70.54 15.1V56.765c0-1.08.87-1.957 1.89-1.957h21.22c1 0 1.76.78 1.76 1.754 0 .982-.76 1.77-1.76 1.77h-19.25V70.03h17.06c.99 0 1.76.83 1.76 1.75 0 .98-.77 1.77-1.76 1.77h-17.06v11.97h19.5c.97 0 1.77.78 1.77 1.75 0 .99-.8 1.77-1.77 1.77h-21.47c-1.02 0-1.89-.88-1.89-1.96m-41.13-30.313c0-1.08.89-1.958 1.91-1.958h10.9c7.7 0 12.79 4.102 12.79 10.87v.11c0 7.4-6.17 11.21-13.42 11.21h-8.31v10.36c0 1.08-.88 1.95-1.96 1.95-1.02 0-1.91-.87-1.91-1.95zm12.32 16.672c5.66 0 9.35-3.02 9.35-7.54v-.12c0-4.896-3.64-7.43-9.15-7.43h-8.65v15.07zm0 0"/></svg>