<svg xmlns="http://www.w3.org/2000/svg" viewBox="0 0 612 792"><path d="M284.49 262.68c15 8.29 33.55 13.23 42.42 29.24 13.3 20.05 5.92 49.17-14.11 61.87-10.12 6.69-23.18 10.67-35.17 8.34-11.12-5.83-19.8-15.96-23.74-27.9 21.15-17.03 32.33-44.67 30.6-71.55zm-79.2-52.27c13.31 4.68 22.33 17.77 27.32 30.58 8.91 24.95 1.02 56.35-21.9 70.95-8 5.23-18.31 8.7-27.71 7.05-26.84-14.84-35.48-52.15-21.89-78.79 7.76-17.11 25.17-29.54 44.18-29.79zm222-3.33c9.74.12 16.34 8.87 21.77 15.96 3.75 6.61 6.93 13.72 7.9 21.33h-77.45c5.91-19.17 22.49-36.31 43.43-36.86 1.45-.14 2.9-.29 4.35-.43zm-139.26-81.2c-24.23.28-48.79 11.77-62.03 32.49-5.66 7.88-8.6 17.31-10.31 26.78-17.09-5.88-35.86-7.46-53.19-1.68-24.97 7.96-45.13 29.29-52.16 54.4v148.17c10.3 2.77 20.45 6.65 31.3 5.37 4.44-.65 11.47 1.29 14.31-.96v-50.2c16.84 5.77 34.31 11.62 52.28 11.39 7.2-2.02 8.06 8.59 13.1 12.03 13.38 15.91 33.31 23.75 53.1 28.19 38.92 14.09 88.14-4.24 103.34-43.94 2.02-6.82 11.68 1.68 17.48 1.51 24.28 8.41 51.66 8.77 74.92-3.11 15.45-7.59 31.75-21.61 36.27-37.32-11.44-6.37-21.65-15.57-34.95-17.63-6.28-3.37-10.87-1.96-13.58 4.73-11.52 17.04-32.4 30.04-53.5 25.43-17.4-9.6-26.28-29.13-28.54-48.18h133.79c.55-36-17.88-75.68-53.8-87.94-18.5-5.28-37.61-11.78-57.09-8.73-20.85 2.4-40.14 13.94-53.29 30.16-9.15 11.53-15.66 25.31-18.06 39.9-19.57-9.93-43.4-14.35-58.02-31.92-12.09-15.02-6.94-38.79 9.07-48.79 8.98-6.32 20.9-9.96 31.71-7.99 9.18 4.86 16.29 13.46 19.04 23.51l19.62 5.37L373.68 170c-10.73-22.25-33.85-34.52-57.15-39.29-9.29-2.77-18.77-4.71-28.5-4.83z" opacity=".5"/><path d="M282.98 362.94c-23.06 0-42.52-14.41-48.68-34.12C252.97 313.57 265 289.77 265 263c0-3.53-.23-7-.64-10.41l37.59 18.84c18.62 7.03 31.76 24.1 31.76 44.04 0 26.21-22.71 47.47-50.73 47.47zM135 262.33c0-31.66 22.68-57.33 50.67-57.33 27.98 0 50.66 25.67 50.66 57.33 0 31.67-22.68 57.34-50.66 57.34-27.99 0-50.67-25.67-50.67-57.34m272.67-60.66c44.67 0 49.33 42.66 49.33 42.66h-98.82c4.75-17.54 17.61-42.66 49.49-42.66m4 120.66c-43.33 0-53.27-36.54-55.43-54.33H490c0-48.23-28.35-92.33-80.67-92.33-42.51 0-77.61 33.09-82.96 75.94-15.7-10.32-34.56-16.97-44.86-21.39-16.77-7.18-22.1-11.61-22.1-11.61-10.04-6.85-16.48-17.42-16.48-29.27 0-20.65 19.53-37.39 43.61-37.39 20.98 0 38.5 12.7 42.67 29.62l24.85-16.93c-11.69-22.93-36.86-38.8-66.03-38.8-37.5 0-68.38 26.22-72.5 59.95-9.23-3.93-19.3-6.12-29.86-6.12-35.13 0-64.9 23.98-75.34 57.2V386h26v-57.75c13.54 11.32 30.69 18.08 49.34 18.08 7.88 0 15.49-1.22 22.69-3.47 11.27 28.17 40.52 48.25 74.84 48.25 37.75 0 69.35-24.29 77.66-56.92 13.67 10.17 30.41 16.14 48.47 16.14 33.12 0 64.73-17.07 78.29-46.2L463 289c-22.67 37.33-51.33 33.33-51.33 33.33m178.67 199.34H23v-4h567.34zm0 92.67H23v-4h567.34zM46.563 461.84v28.32c0 .57.128 1 .382 1.29.254.29.71.53 1.368.71v.87H36.688v-.87c.656-.18 1.113-.42 1.367-.71s.383-.72.383-1.29v-28.32H26.844c-.547 0-.965.13-1.258.38-.293.25-.527.71-.71 1.37H24v-9.62h.875c.2.67.44 1.12.723 1.37.285.25.7.38 1.246.38H58.13c.565 0 .99-.13 1.284-.38.293-.25.527-.7.71-1.37H61v9.62h-.875c-.184-.66-.418-1.12-.71-1.37-.294-.25-.72-.38-1.286-.38zm53.277 17.88H82.715v10.51c0 .57.125 1 .383 1.3.254.3.71.55 1.367.75v.75H73.652v-.75c.637-.16 1.086-.4 1.352-.71.266-.31.398-.75.398-1.31v-25.08c0-.56-.13-.99-.382-1.28-.258-.29-.71-.54-1.368-.74v-.75h10.813v.75c-.656.18-1.113.42-1.367.72-.258.3-.383.74-.383 1.3v8.98H99.84v-8.98c0-.56-.125-.99-.37-1.28-.247-.29-.708-.54-1.38-.74v-.75h10.81v.75c-.65.18-1.11.42-1.36.72-.26.3-.39.74-.39 1.3v25.05c0 .57.13 1 .39 1.3.25.3.71.55 1.36.75v.75H98.09v-.75c.637-.16 1.086-.4 1.35-.71.267-.31.4-.75.4-1.31zm33.08.25v7.5h19.42c.56 0 1-.13 1.3-.38.29-.25.54-.7.72-1.37h.75v9.06h-.75c-.16-.64-.4-1.08-.71-1.35-.31-.27-.75-.4-1.31-.4h-28.48v-.75c.64-.16 1.09-.4 1.35-.71.27-.31.4-.75.4-1.31v-25.08c0-.56-.13-.99-.38-1.28-.26-.29-.71-.54-1.37-.74v-.75h27.58c.58 0 1.02-.13 1.32-.38.3-.26.54-.71.72-1.37h.75v9.06h-.75c-.18-.67-.42-1.12-.72-1.37s-.74-.38-1.32-.38h-18.52v6.69h11.52c.56 0 .99-.13 1.29-.38.31-.26.56-.71.75-1.37h.75v8.81h-.75c-.18-.65-.42-1.1-.72-1.36s-.74-.39-1.32-.39zm70.58-8.25h12.46c2.47 0 4.22-.26 5.22-.79.64-.35 1.16-.9 1.55-1.66.39-.75.59-1.59.59-2.5 0-.9-.2-1.72-.59-2.48-.39-.75-.91-1.31-1.55-1.65-.98-.53-2.73-.8-5.22-.8H203.5zm0 6.12v12.34c0 .55.14.98.4 1.28.26.3.71.53 1.35.7v.87h-11.62v-.87c.66-.18 1.11-.42 1.37-.71.25-.29.38-.71.38-1.26v-31.6c0-.56-.13-.99-.38-1.29-.26-.28-.71-.52-1.37-.71v-.87h23.29c2.72 0 4.87.18 6.47.55 1.59.36 3 .99 4.22 1.88 1.26.93 2.24 2.14 2.95 3.65.71 1.57 1.07 3.22 1.07 4.97 0 2.51-.68 4.71-2.02 6.6-1.17 1.62-2.72 2.77-4.64 3.45-1.93.68-4.61 1.02-8.06 1.02H203.5m68.05 1.88h-17.12v10.51c0 .57.12 1 .38 1.3.26.3.71.55 1.37.75v.75h-10.82v-.75c.64-.16 1.09-.4 1.36-.71.26-.31.39-.75.39-1.31v-25.08c0-.56-.12-.99-.38-1.28-.25-.29-.71-.54-1.37-.74v-.75h10.82v.75c-.66.18-1.11.42-1.37.72s-.38.74-.38 1.3v8.98h17.12v-8.98c0-.56-.12-.99-.37-1.28-.24-.29-.7-.54-1.38-.74v-.75h10.81v.75c-.65.18-1.11.42-1.36.72-.26.3-.39.74-.39 1.3v25.05c0 .57.13 1 .39 1.3.25.3.71.55 1.36.75v.75H269.8v-.75c.64-.16 1.09-.4 1.36-.71.26-.31.39-.75.39-1.31zm33.09-14.54v25.05c0 .57.12 1 .38 1.3.25.3.71.55 1.37.75v.75h-10.82v-.75c.64-.16 1.09-.4 1.36-.71.26-.31.39-.75.39-1.31v-25.08c0-.56-.12-.99-.38-1.28-.26-.29-.71-.54-1.37-.74v-.75h10.82v.75c-.66.18-1.12.42-1.37.72-.26.3-.38.74-.38 1.3zm25.79 22.29h17.19c.59 0 1.02-.13 1.32-.38.29-.25.54-.7.74-1.37h.75v9.06h-.75c-.19-.65-.43-1.11-.73-1.37-.3-.25-.74-.38-1.33-.38h-26.26v-.75c.64-.16 1.09-.4 1.36-.71.26-.31.39-.75.39-1.31v-25.08c0-.56-.13-.99-.38-1.28-.25-.29-.71-.54-1.37-.74v-.75h10.82v.75c-.66.18-1.11.42-1.37.72s-.38.74-.38 1.3zm41.73-22.29v25.05c0 .57.13 1 .38 1.3.26.3.71.55 1.37.75v.75H363.1v-.75c.63-.16 1.08-.4 1.35-.71.26-.31.4-.75.4-1.31v-25.08c0-.56-.13-.99-.39-1.28-.25-.29-.71-.54-1.36-.74v-.75h10.81v.75c-.66.18-1.11.42-1.37.72-.25.3-.38.74-.38 1.3zm25.79 9.73h10.48c1.91 0 3.25-.18 4-.55 1.1-.52 1.64-1.5 1.64-2.92s-.54-2.4-1.64-2.92c-.73-.37-2.07-.55-4-.55h-10.48zm0 5.56v9.77c0 .56.13.99.38 1.29.26.31.71.56 1.37.75v.75h-10.81v-.75c.64-.16 1.09-.4 1.35-.71.26-.31.4-.75.4-1.31v-25.08c0-.56-.13-.99-.39-1.28-.25-.29-.71-.54-1.36-.74v-.75h19.96c3.95 0 6.94.59 8.94 1.78 1.17.69 2.08 1.67 2.74 2.95.65 1.28.98 2.71.98 4.3 0 3.04-1.04 5.31-3.12 6.8-2.08 1.49-5.26 2.23-9.55 2.23h-10.89m46.08-5.56h10.48c1.92 0 3.25-.18 4-.55 1.1-.52 1.65-1.5 1.65-2.92s-.55-2.4-1.65-2.92c-.73-.37-2.06-.55-4-.55h-10.48zm0 5.56v9.77c0 .56.13.99.38 1.29.26.31.71.56 1.37.75v.75h-10.81v-.75c.64-.16 1.08-.4 1.35-.71.27-.31.4-.75.4-1.31v-25.08c0-.56-.13-.99-.38-1.28-.26-.29-.72-.54-1.37-.74v-.75h19.96c3.96 0 6.94.59 8.94 1.78 1.17.69 2.08 1.67 2.74 2.95.66 1.28.98 2.71.98 4.3 0 3.04-1.04 5.31-3.12 6.8-2.08 1.49-5.26 2.23-9.55 2.23h-10.89m46.08-15.29v25.05c0 .57.12 1 .38 1.3.26.3.71.55 1.37.75v.75h-10.81v-.75c.63-.16 1.09-.4 1.35-.71.26-.31.4-.75.4-1.31v-25.08c0-.56-.13-.99-.39-1.28-.25-.29-.71-.54-1.36-.74v-.75h10.81v.75c-.66.18-1.11.42-1.37.72s-.38.74-.38 1.3zm25.17 7.67v17.38c0 .57.13 1 .39 1.31.26.32.72.56 1.36.74v.75h-10.19v-.75c.64-.16 1.09-.4 1.35-.71.27-.31.4-.75.4-1.31v-25.08c0-.56-.13-.99-.38-1.28-.26-.29-.72-.54-1.37-.74v-.75h11.77v.75c-.81.2-1.21.55-1.21 1.07 0 .43.3.95.88 1.53l16.37 16.31v-16.89c0-.56-.13-1-.38-1.3-.26-.3-.72-.54-1.37-.72v-.75h10.19v.75c-.66.18-1.11.42-1.37.72s-.38.74-.38 1.3v25.05c0 .57.12 1 .38 1.3.26.3.71.55 1.37.75v.75h-10.98v-.75c.81-.16 1.21-.49 1.21-1 0-.25-.11-.52-.33-.79-.22-.27-.72-.81-1.51-1.6zm51.84 7.12v7.5h19.42c.56 0 1-.13 1.3-.38.3-.25.53-.7.72-1.37h.75v9.06h-.75c-.17-.64-.4-1.08-.71-1.35-.31-.27-.75-.4-1.31-.4h-28.48v-.75c.64-.16 1.09-.4 1.35-.71.27-.31.4-.75.4-1.31v-25.08c0-.56-.13-.99-.38-1.28-.26-.29-.72-.54-1.37-.74v-.75h27.58c.58 0 1.02-.13 1.32-.38.3-.26.54-.71.72-1.37h.75v9.06h-.75c-.18-.67-.42-1.12-.72-1.37s-.74-.38-1.32-.38h-18.52v6.69h11.52c.56 0 .99-.13 1.29-.38.3-.26.55-.71.75-1.37h.75v8.81h-.75c-.18-.65-.42-1.1-.72-1.36s-.74-.39-1.32-.39zM61.71 547.89l-4.456 8.81-.766-.44c.02-.18.03-.33.03-.44 0-.62-.528-1.28-1.586-2-3.246-2.25-7.055-3.39-11.43-3.39-1.926 0-3.62.24-5.094.71-1.07.37-1.937.91-2.597 1.64-.663.73-.995 1.52-.995 2.38 0 1.4.847 2.36 2.54 2.86.87.26 2.74.53 5.616.82l4.282.44c2.547.27 4.605.65 6.18 1.12 1.57.47 2.968 1.14 4.187 2 1.234.89 2.21 2.07 2.93 3.53a10.44 10.44 0 0 1 1.077 4.67c0 2.63-.848 4.96-2.54 7.01-1.53 1.85-3.905 3.23-7.128 4.12-2.403.68-4.98 1.02-7.73 1.02-4.935 0-9.806-1.2-14.61-3.58-1.02-.47-1.63-.71-1.833-.71-.234 0-.61.2-1.117.61l-.793-.42 4.047-9.17.79.38v.36c0 .82.393 1.58 1.175 2.27 1.182 1.06 3.014 1.97 5.49 2.73 2.48.77 4.83 1.15 7.052 1.15 2.425 0 4.492-.41 6.207-1.22.944-.45 1.702-1.06 2.264-1.81.567-.75.848-1.54.848-2.36 0-1.23-.664-2.11-1.992-2.63-.93-.37-2.81-.7-5.63-1.01l-4.206-.43c-2.824-.3-4.817-.57-5.984-.84a15.414 15.414 0 0 1-3.497-1.28c-1.656-.82-2.96-2.05-3.906-3.7-.855-1.48-1.285-3.18-1.285-5.1 0-3.16 1.082-5.78 3.25-7.85 2.84-2.72 7.102-4.08 12.78-4.08 2.388 0 4.615.24 6.673.73 2.06.49 4.63 1.39 7.71 2.69 1.06.43 1.704.63 1.942.63.383 0 .83-.2 1.34-.63zM87.856 557v22.26c0 .56.125 1 .383 1.3.254.3.71.55 1.367.75v.75H78.793v-.75c.637-.17 1.09-.4 1.355-.71.262-.31.395-.75.395-1.31V557H71.53c-.585 0-1.026.13-1.327.39-.3.26-.543.71-.723 1.36h-.75v-9.07h.75c.165.64.4 1.09.696 1.36.3.26.742.39 1.328.39h25.363c.582 0 1.028-.13 1.328-.38.297-.25.54-.71.723-1.37h.75v9.07h-.75c-.184-.65-.426-1.1-.723-1.36-.3-.26-.742-.39-1.328-.39zm36.285-.44c-3.16 0-5.74 1.01-7.74 3.04-1.85 1.9-2.77 4.28-2.77 7.15 0 2.84.92 5.22 2.77 7.12 2 2.04 4.59 3.06 7.77 3.06 3.17 0 5.75-1.02 7.75-3.06 1.85-1.89 2.77-4.21 2.77-6.99 0-3.01-.92-5.44-2.77-7.28-2.02-1.99-4.61-3.01-7.78-3.04zm0-5.81c4.87 0 8.93 1.24 12.18 3.72 3.88 3 5.83 7.17 5.83 12.52 0 5.03-1.95 9.04-5.83 12.03-3.21 2.48-7.26 3.73-12.13 3.73-4.87 0-8.91-1.25-12.12-3.73-3.91-2.99-5.86-7.09-5.86-12.27 0-5.25 1.95-9.34 5.86-12.28 3.23-2.43 7.25-3.67 12.07-3.72m56.76 20.33l4.63 6.79-.63.47c-.44-.31-.79-.47-1.04-.47-.31 0-1.03.34-2.16 1.01-2.5 1.45-4.71 2.46-6.62 3.02-1.92.56-4.12.85-6.62.85-5 0-9.07-1.2-12.22-3.59-1.79-1.37-3.21-3.09-4.27-5.15-1.13-2.23-1.69-4.65-1.69-7.26 0-3.6 1.04-6.78 3.11-9.54 3.27-4.31 8.27-6.46 15.02-6.46 2.5 0 4.71.28 6.66.85 1.94.56 4.15 1.58 6.63 3.04 1.13.68 1.85 1.02 2.16 1.02.25 0 .6-.16 1.04-.47l.63.49-4.63 6.7-.6-.43v-.77c0-.88-1.23-1.89-3.7-3.02-2.33-1.07-4.69-1.6-7.06-1.6-3.32 0-6.06.87-8.21 2.62-2.46 1.97-3.7 4.49-3.7 7.57 0 3.09 1.24 5.62 3.7 7.59 2.17 1.73 4.91 2.59 8.21 2.59 2.59 0 5.17-.64 7.75-1.94 2-1.02 3.01-1.91 3.01-2.68 0 0 0-.29-.1-.76zm25.54-2.97l-4.34 3.53v7.62c0 .57.12 1 .38 1.3.25.3.71.55 1.37.75v.75h-10.81v-.75c.63-.17 1.08-.4 1.35-.71.26-.31.4-.75.4-1.32v-25.07c0-.57-.13-1-.39-1.29-.26-.29-.71-.53-1.36-.74v-.75h10.81v.75c-.66.18-1.12.43-1.37.73-.26.29-.38.72-.38 1.29v9.98l11.49-9.12c.86-.68 1.29-1.27 1.29-1.78 0-.55-.53-.91-1.59-1.1v-.75h13.81v.75c-.7.11-1.28.32-1.74.63-.47.31-1.62 1.26-3.46 2.85l-10.33 8.25 11.38 13.07c1.46 1.69 2.51 2.79 3.14 3.3.63.5 1.36.85 2.18 1.03v.75h-13.44v-.75c1.01-.24 1.51-.6 1.51-1.09 0-.18-.1-.35-.18-.52-.12-.18-.54-.68-1.27-1.51zm57.81-2.43v10.25h23.97c.55 0 .96-.13 1.25-.38.3-.25.53-.71.71-1.37h.88v9.63h-.88c-.18-.66-.41-1.11-.71-1.37-.29-.26-.7-.38-1.25-.38h-33.85v-.88c.66-.18 1.11-.41 1.37-.71.25-.29.38-.72.38-1.28v-31.57c0-.57-.13-1-.38-1.29-.26-.29-.71-.53-1.37-.71v-.87h33.16c.55 0 .97-.13 1.26-.39.29-.27.53-.72.71-1.36h.87v9.62h-.87c-.18-.65-.42-1.1-.71-1.36s-.71-.39-1.25-.39h-23.29v8.88h15.1c.54 0 .96-.13 1.25-.39.29-.25.53-.71.71-1.36h.87v9.43h-.87c-.18-.63-.42-1.09-.71-1.35s-.71-.4-1.25-.4zm55.2.39l9.13 12.12c.78 1.04 1.51 1.79 2.19 2.26.67.46 1.44.75 2.29.86v.75h-14.05v-.75c1.15-.26 1.72-.74 1.72-1.45 0-.36-.3-.95-.9-1.75l-4.87-6.43-5.15 6.43c-.49.64-.74 1.19-.74 1.67 0 .65.59 1.17 1.78 1.53v.75h-13.04v-.75c.88-.2 1.56-.49 2.05-.86.5-.38 1.18-1.13 2.05-2.26l9.22-11.57-8.11-10.72c-1.68-2.26-3.17-3.5-4.46-3.72v-.75h13.98v.75c-1.19.33-1.78.88-1.78 1.64 0 .46.28 1.07.85 1.84l4.01 5.33 3.97-4.98c.75-1.02 1.12-1.76 1.12-2.21 0-.82-.6-1.36-1.81-1.62v-.75h13.35v.75c-.98.21-1.71.49-2.17.86-.47.38-1.29 1.33-2.48 2.86zm48.39 5.01l4.63 6.79-.63.47c-.44-.31-.79-.47-1.04-.47-.31 0-1.03.34-2.16 1.01-2.5 1.45-4.71 2.46-6.62 3.02-1.91.56-4.12.85-6.61.85-5 0-9.07-1.2-12.23-3.59-1.79-1.37-3.21-3.09-4.27-5.15-1.13-2.23-1.69-4.65-1.69-7.26 0-3.6 1.04-6.78 3.12-9.54 3.26-4.31 8.26-6.46 15.01-6.46 2.5 0 4.72.28 6.66.85 1.94.56 4.15 1.58 6.63 3.04 1.13.68 1.85 1.02 2.16 1.02.25 0 .6-.16 1.04-.47l.63.49-4.63 6.7-.6-.43c0-.22 0-.36.1-.41v-.36c0-.88-1.23-1.89-3.69-3.02-2.34-1.07-4.69-1.6-7.06-1.6-3.33 0-6.07.87-8.22 2.62-2.46 1.97-3.69 4.49-3.69 7.57 0 3.09 1.23 5.62 3.69 7.59 2.17 1.73 4.91 2.59 8.22 2.59 2.59 0 5.17-.64 7.74-1.94 2.01-1.02 3.01-1.91 3.01-2.68 0 0 0-.29-.1-.76zm38.32-2.33h-17.12v10.51c0 .56.12 1 .38 1.3.26.3.71.55 1.37.75v.75h-10.81v-.75c.63-.17 1.09-.4 1.35-.71.26-.31.4-.75.4-1.32v-25.07c0-.57-.13-1-.39-1.29-.25-.29-.71-.53-1.36-.74v-.75h10.81v.75c-.66.19-1.11.43-1.37.73s-.38.73-.38 1.3v8.97h17.12v-8.97c0-.57-.12-1-.37-1.29-.24-.29-.7-.53-1.38-.74v-.75h10.82v.75c-.66.19-1.12.43-1.37.73-.26.3-.38.73-.38 1.3v25.05c0 .56.12 1 .38 1.29.25.31.71.56 1.37.76v.75h-10.82v-.75c.64-.17 1.09-.4 1.36-.71.26-.31.39-.75.39-1.32zm39.64 1.37l-5.03-9.89-4.79 9.89zm2.21 4.31h-14.13l-1.57 3.33c-.38.8-.58 1.43-.58 1.88 0 .88.58 1.43 1.74 1.67v.75h-11.28v-.75c.69-.11 1.21-.32 1.55-.63.33-.31.73-.92 1.19-1.84l11.19-22.66c.42-.86.63-1.61.63-2.25 0-.74-.51-1.33-1.53-1.75v-.75h11.9v.75c-1 .41-1.5 1.03-1.5 1.86 0 .61.23 1.35.68 2.22l11.59 21.98c.64 1.2 1.14 1.97 1.51 2.32.36.35.92.6 1.67.75v.75H448.6v-.75c1.18-.2 1.77-.75 1.77-1.66 0-.56-.23-1.26-.69-2.09l-1.67-3.13m28.18-12.56v17.39c0 .56.13 1 .4 1.31.26.31.71.56 1.35.74v.75h-10.19v-.75c.64-.17 1.09-.4 1.36-.71.26-.31.39-.75.39-1.32v-25.07c0-.57-.13-1-.38-1.29-.26-.29-.71-.53-1.37-.74v-.75h11.77v.75c-.8.21-1.2.56-1.2 1.07 0 .44.29.95.87 1.54l16.38 16.31v-16.89c0-.57-.13-1-.39-1.3-.25-.3-.71-.54-1.36-.73v-.75H504v.75c-.65.19-1.11.43-1.36.73-.26.3-.39.73-.39 1.3v25.05c0 .56.13 1 .39 1.29.25.31.71.56 1.36.76v.75h-10.97v-.75c.8-.16 1.2-.5 1.2-1.01 0-.25-.11-.51-.32-.78-.22-.27-.73-.81-1.51-1.61zm64.91 8.38h-6.95c-.58 0-1.03.12-1.32.38-.3.26-.54.71-.73 1.37h-.75v-8.13h.75c.19.65.43 1.1.73 1.36s.74.39 1.33.39h14.57v.81c-.64.19-1.09.45-1.36.8-.26.35-.39.84-.39 1.48v6.48c0 .57.13 1.01.39 1.32.27.31.72.55 1.36.74v.62c-5.9 3.25-11.79 4.88-17.65 4.88-5.07 0-9.17-1.2-12.3-3.59a15.272 15.272 0 0 1-4.1-4.88c-1.22-2.3-1.83-4.76-1.83-7.37 0-3.62 1.11-6.83 3.33-9.64 3.46-4.35 8.57-6.52 15.34-6.52 2.97 0 6.35.66 10.16 1.99 1.5.52 2.39.78 2.64.78.31 0 .68-.15 1.09-.45l.69.36-3.65 7.71-.66-.32v-.17c0-.68-.67-1.37-2.02-2.09-2.5-1.33-5.17-2-8.03-2-3.3 0-6.01.9-8.12 2.71-2.22 1.9-3.33 4.45-3.33 7.67 0 3.01 1.01 5.42 3.03 7.23 2.08 1.84 4.99 2.76 8.74 2.76 3.57 0 6.58-.66 9.04-2zm25.32-1.25v7.5h19.42c.57 0 1-.13 1.3-.38.3-.25.54-.71.72-1.37h.75v9.06h-.75c-.16-.64-.4-1.09-.71-1.35-.31-.27-.74-.4-1.31-.4h-28.48v-.75c.64-.17 1.09-.4 1.35-.71.27-.31.4-.75.4-1.32v-25.07c0-.57-.13-1-.38-1.29-.26-.29-.71-.53-1.37-.74v-.75h27.58c.58 0 1.02-.13 1.32-.38.3-.25.54-.71.72-1.37h.75v9.07h-.75c-.18-.67-.42-1.13-.71-1.38-.31-.25-.75-.37-1.33-.37h-18.52v6.68h11.52c.56 0 .99-.13 1.29-.38.31-.25.56-.71.75-1.37h.75v8.82h-.75c-.18-.65-.42-1.1-.72-1.36s-.74-.39-1.32-.39zm-329.67 98.91v-31.6c0-.55-.13-.97-.38-1.26-.26-.29-.71-.53-1.37-.71v-.88h11.62v.88c-.65.16-1.11.39-1.36.7-.26.3-.39.72-.39 1.27v31.6c0 .56.14 1 .4 1.3.27.3.72.53 1.35.69v.88H235v-.88c.66-.18 1.11-.42 1.37-.71.25-.29.38-.72.38-1.28zm35.55-17.32v17.39c0 .56.13 1 .4 1.31.26.31.71.55 1.35.74v.75h-10.19v-.75c.64-.17 1.09-.41 1.35-.71.27-.32.4-.75.4-1.32v-25.07c0-.57-.13-1-.38-1.29-.26-.29-.71-.54-1.37-.74v-.75h11.77v.75c-.81.2-1.2.56-1.2 1.07 0 .44.28.95.87 1.53l16.37 16.32v-16.89c0-.57-.12-1-.38-1.3-.25-.3-.71-.54-1.37-.73v-.75h10.19v.75c-.66.19-1.11.42-1.37.72-.25.31-.38.74-.38 1.31v25.05c0 .56.13.99.38 1.29.26.3.71.56 1.37.76v.75h-10.97v-.75c.8-.17 1.2-.5 1.2-1.01 0-.25-.11-.51-.33-.79-.22-.27-.72-.8-1.5-1.6zm74.34 9.21l4.63 6.79-.63.46c-.44-.31-.79-.46-1.04-.46-.31 0-1.03.34-2.16 1.01-2.5 1.45-4.71 2.46-6.62 3.02-1.91.56-4.12.84-6.62.84-4.99 0-9.07-1.19-12.22-3.59-1.79-1.36-3.21-3.08-4.27-5.15-1.13-2.22-1.69-4.64-1.69-7.26 0-3.59 1.03-6.77 3.12-9.53 3.26-4.31 8.26-6.47 15.01-6.47 2.49 0 4.71.29 6.65.86 1.95.56 4.16 1.58 6.64 3.04 1.13.68 1.85 1.01 2.16 1.01.25 0 .6-.15 1.04-.46l.63.49-4.63 6.7-.6-.44v-.76c0-.88-1.23-1.89-3.69-3.02-2.34-1.07-4.7-1.6-7.07-1.6-3.32 0-6.06.87-8.21 2.62-2.46 1.96-3.69 4.49-3.69 7.56 0 3.1 1.23 5.63 3.69 7.59 2.17 1.74 4.91 2.6 8.21 2.6 2.59 0 5.18-.65 7.75-1.94 2.01-1.02 3.01-1.91 3.01-2.68 0 0 0-.29-.1-.76zm26.22 2.66c1.26 0 2.33.44 3.2 1.32.87.88 1.3 1.95 1.3 3.21 0 1.23-.44 2.28-1.33 3.16-.89.87-1.94 1.31-3.17 1.31-1.24 0-2.31-.44-3.18-1.33-.88-.88-1.32-1.95-1.32-3.19 0-1.23.44-2.28 1.3-3.15.88-.86 1.94-1.31 3.2-1.33z"/></svg>