<svg xmlns="http://www.w3.org/2000/svg" viewBox="0 0 312.36 175.21"><path d="M156.22 12.075a145.09 75.525 0 0 0-145.088 75.53A145.09 75.525 0 0 0 156.22 163.14a145.09 75.525 0 0 0 145.09-75.535 145.09 75.525 0 0 0-145.09-75.53zm-15.56 18.89h18.88l-3.98 20.86h17.89c15.9 1 21.86 8.95 19.88 18.89l-6.96 40.745H166.5l6.95-36.775c1-4.97 1-7.95-5.96-7.95h-14.91l-8.94 44.725h-18.88zm-72.878 20.86h36.758c15.9 1 23.86 8.95 23.86 22.86 0 23.85-18.89 37.765-35.78 36.775H74.738l-3.98 20.87H51.875zm133.158 0h36.77c15.9 1 23.85 8.95 23.85 22.86 0 23.85-18.88 37.765-35.78 36.775H207.9l-3.98 20.87h-18.88zM83.677 66.735l-4.97 29.81h11.925c8.944-.99 16.898-3.97 17.888-20.87 0-5.96-4.97-8.94-11.925-8.94zm133.163 0l-4.97 29.81h11.92c8.95-.99 16.9-3.97 17.89-20.87 0-5.96-4.97-8.94-11.92-8.94z"/></svg>