<svg xmlns="http://www.w3.org/2000/svg" viewBox="0 0 291 89"><path d="M258.17 55.12V33.95c0-1.17.96-2.08 2.08-2.08 5.05 0 9.15 4.1 9.15 9.15v14.15c0 2.76 2.23 5 5 5 2.76 0 5-2.24 5-5V41.02c0-10.53-8.57-19.1-19.1-19.1-2.5 0-4.9.48-7.07 1.4-2.18-.92-4.58-1.4-7.08-1.4-10.53 0-19.1 8.57-19.1 19.1v14.15c0 2.76 2.24 5 5 5 2.77 0 5-2.24 5-5V41.02c0-5.05 4.1-9.15 9.16-9.15 1.18 0 2.08.9 2.08 2.08v21.17c-.05 2.76 2.18 5 4.9 5 2.76 0 5-2.24 5-5zM205.52 21.93c-10.54 0-19.1 8.56-19.1 19.1 0 10.52 8.56 19.1 19.1 19.1 10.53 0 19.1-8.58 19.1-19.1.04-10.54-8.52-19.1-19.1-19.1zm0 28.24c-5.06 0-9.15-4.1-9.15-9.15 0-5.05 4.1-9.15 9.15-9.15 5.05 0 9.14 4.1 9.14 9.15 0 5.05-4.1 9.15-9.14 9.15zM179.08 9c-2.77 0-5 2.23-5 5v10.43c-2.7-1.5-5.85-2.35-9.15-2.35-10.53 0-19.1 8.57-19.1 19.1 0 10.53 8.57 19.1 19.1 19.1 10.53 0 19.1-8.57 19.1-19.1V14c0-2.77-2.18-5-4.95-5zm-14.15 41.33c-5.05 0-9.15-4.1-9.15-9.15 0-5.05 4.1-9.15 9.15-9.15 5.06 0 9.15 4.1 9.15 9.15 0 5.05-4.1 9.15-9.15 9.15zM124.35 22.08c-10.53 0-19.1 8.57-19.1 19.1 0 10.53 8.57 19.1 19.1 19.1 3.3 0 6.43-.86 9.15-2.35v2.35c0 5.05-4.1 9.14-9.15 9.14-2.77 0-5 2.24-5 5 0 2.77 2.23 5 5 5 10.53 0 19.1-8.56 19.1-19.1V41.2c0-10.53-8.57-19.1-19.1-19.1zm0 28.25c-5.05 0-9.15-4.1-9.15-9.15 0-5.05 4.1-9.15 9.15-9.15 5.05 0 9.15 4.1 9.15 9.15 0 5.05-4.1 9.15-9.15 9.15zM83.76 22.08c-10.53 0-19.1 8.57-19.1 19.1v14.15c0 2.76 2.24 5 5 5 2.77 0 5-2.24 5-5V41.18c0-5.05 4.1-9.15 9.16-9.15 5.05 0 9.15 4.1 9.15 9.15v14.15c0 2.76 2.23 5 5 5 2.76 0 5-2.24 5-5V41.18c-.1-10.53-8.67-19.1-19.2-19.1zM56.58 22.08c-2.76 0-5 2.24-5 5v28.25c0 2.76 2.24 5 5 5 2.77 0 5-2.24 5-5v-28.3c0-2.7-2.23-4.95-5-4.95zM51.58 14c0 2.77 2.24 5 5 5 2.77 0 5-2.23 5-5s-2.23-5-5-5c-2.76 0-5 2.23-5 5zM30.1 22.08c-10.54 0-19.1 8.57-19.1 19.1v27.18c0 2.77 2.23 5 5 5s5-2.23 5-5V57.93c2.7 1.5 5.85 2.35 9.15 2.35 10.53 0 19.1-8.57 19.1-19.1-.06-10.53-8.62-19.1-19.15-19.1zm0 28.25c-5.06 0-9.15-4.1-9.15-9.15 0-5.05 4.1-9.15 9.15-9.15 5.05 0 9.14 4.1 9.14 9.15 0 5.05-4.1 9.15-9.14 9.15z"/></svg>