<svg xmlns="http://www.w3.org/2000/svg" height="84.7" width="197.9"><path d="M152.5 12c-2.6.1-4.6 2.21-4.6 4.79V55c-.1.42-.1.86 0 1.28v11.21c-.3 2.79 1.9 5.21 4.7 5.21 2.8 0 5-2.42 4.7-5.21v-9.94l7-6.95L177 70.08c3.5 5.33 11.5.15 8-5.18l-13.9-21.13 9.7-9.74c2.2-1.74 2.4-5.03.4-7.03-1.9-2.01-5.2-1.84-7 .35l-16.9 16.83V16.79c0-2.66-2.1-4.83-4.8-4.79zm-135.71.1c-2.61 0-4.73 2.11-4.73 4.72v26.63c-.1.51-.1 1.02 0 1.53v22.54c-.1 6.36 9.51 6.36 9.45 0V48.94h14.18c5.89 0 10.9-2.26 14.15-5.8 3.26-3.54 4.79-8.15 4.72-12.69-.13-9.11-7.59-18.38-19.67-18.38zm4.72 9.45h13.38c7.72 0 10.16 4.42 10.23 9.04 0 2.31-.76 4.55-2.23 6.15-1.47 1.6-3.59 2.76-7.2 2.76H21.51zM63.92 32.6c-2.61 0-4.69 2.18-4.65 4.79v30.1a4.73 4.73 0 0 0 4.72 4.94 4.73 4.73 0 0 0 4.72-4.94v-30.1c0-2.66-2.13-4.83-4.79-4.79zm71.58 0c-2.6.1-4.6 2.2-4.6 4.79v30.1c-.3 2.79 1.9 5.21 4.7 5.21 2.8 0 5-2.42 4.7-5.21v-30.1c0-2.66-2.1-4.83-4.8-4.79zm-58.08 0c-3.38-.11-5.77 3.26-4.56 6.42l11.1 30.11c1.49 4.09 7.26 4.16 8.84.1l7.2-18.71 7.3 18.72c1.6 3.99 7.3 3.92 8.8-.1l11-30.1c1.3-2.52.1-5.62-2.6-6.6-2.6-.98-5.6.59-6.2 3.36l-6.8 18.3-6.9-17.88c-.5-1.93-2.1-3.36-4.1-3.58h-.8a4.73 4.73 0 0 0-4.35 3.61L88.49 54.1l-6.77-18.35a4.71 4.71 0 0 0-4.3-3.15zm63.08-6.9c0 3.04-1.9 5.5-5 5.5-3 0-4.9-2.46-4.9-5.5s1.9-5.3 4.9-5.3c3.1 0 5 2.26 5 5.3zm-71.57 0c0 3.01-1.95 5.43-4.96 5.43s-4.96-2.42-4.96-5.43 1.95-5.23 4.96-5.23 4.96 2.22 4.96 5.23z"/></svg>