<?xml version="1.0" encoding="UTF-8" standalone="no"?>
<svg    xmlns="http://www.w3.org/2000/svg" viewBox="662.6 720 178.8 64.03">
  <path     d="m 748.9,768 -2.8,-6.7 c -2.4,-5.7 -4.6,-9.3 -11.4,-9.3 l -2,0 1.9,7.2 c 2,7.7 4.8,9.6 14.3,8.8 m -19.8,-8.7 1.9,-7.2 -2,0 c -6.8,0 -9,3.6 -11.4,9.3 l -2.8,6.7 c 9.5,0.7 12.3,-1.2 14.3,-8.8 m -14.3,-25.6 2.8,6.7 c 2.4,5.7 4.6,9.3 11.4,9.3 l 2,0 -1.9,-7.2 c -2,-7.7 -4.8,-9.6 -14.3,-8.8 m 19.8,8.7 -1.9,7.2 2,0 c 6.8,0 9,-3.6 11.4,-9.3 l 2.8,-6.7 c -9.5,-0.7 -12.3,1.2 -14.3,8.8 m -47.7,8.4 c 0,6.1 -3.3,10.1 -9.3,10.1 -1.3,0 -2.5,-0.2 -3.6,-0.5 l 0,-18.7 c 1.2,-0.4 2.5,-0.7 3.8,-0.7 4.8,0 9.1,3.1 9.1,9.8 m 9.4,-0.4 c 0,-11.3 -6.8,-17.4 -17.3,-17.4 -4.5,0 -9.7,1 -14.4,2.7 l 0,45.8 c 1.6,0.3 3.2,0.5 4.8,0.5 1.5,0 3.1,-0.2 4.6,-0.5 l 0,-13 c 1,0.1 2.3,0.3 3.8,0.3 11.8,0 18.5,-7 18.5,-18.4 m 134.3,-2.9 -12.8,0 c 0.8,-4.9 3.2,-7.1 6.6,-7.1 3.8,0 6.2,2.7 6.2,7.1 m 8.8,1 c 0,-9 -6,-15.4 -14.8,-15.4 -9.8,0 -16.3,6.9 -16.3,18.1 0,11.1 6.9,17.7 17.4,17.7 4.2,0 8.2,-0.6 11.8,-2.1 0,-2.7 -0.6,-4.5 -1.9,-6.9 -2.2,0.8 -5.3,1.6 -8,1.6 -6.5,0 -9.3,-2.5 -10,-7.5 l 21.3,0 c 0.4,-2 0.5,-3.8 0.5,-5.5 M 701.1,730.7 c 2.9,0.5 6.3,0.7 9.7,0 l 0,-8.2 c -3,-0.6 -6.3,-0.7 -9.7,0 l 0,8.2 z m 0,3.1 0,34.2 c 3,0.7 6.5,0.7 9.6,0 l 0,-34.2 c -3.1,0.7 -6.7,0.7 -9.6,0 m 68.6,27.4 c -1.2,0.4 -2.7,0.6 -4,0.6 -4.3,0 -6.4,-1.8 -6.4,-4.5 0,-3 2.3,-4.9 7.2,-4.9 1.1,0 2.2,0.1 3.2,0.5 l 0,8.3 z m 9.1,5.6 0,-20.2 c 0,-8.8 -4.5,-13.7 -15.1,-13.7 -4,0 -7.9,0.6 -10.9,2.3 l 0,0.3 c 0,2.6 0.7,4.7 1.9,6.5 2.5,-1.2 4.9,-1.7 7.8,-1.7 5,0 7.2,1.5 7.2,6.2 -1,-0.1 -2.3,-0.2 -3.8,-0.2 -10.1,0 -15.2,4.7 -15.2,11.3 0,7 5.1,11.2 14.7,11.2 4.8,0 10.4,-1 13.4,-2 m 28,0.5 c 0.3,-2.6 -0.1,-4.8 -1.1,-6.7 -1.2,0.4 -2.7,0.6 -4.1,0.6 -3.1,0 -4.5,-1.5 -4.5,-6.2 l 0,-13.9 8.4,0 c 0.6,-2.5 0.6,-5.1 0,-7.4 l -8.4,0 0,-11.2 c -3.2,-0.7 -6.5,-0.7 -9.5,0 l 0,11.2 -5.5,0 c -0.6,2.3 -0.6,4.9 0,7.4 l 5.5,0 0,13.8 c 0,8.8 3.8,13.7 12.7,13.7 3,0 5.1,-0.5 6.5,-1.3" />
 </svg>
