<svg xmlns="http://www.w3.org/2000/svg" version="1" viewBox="0 0 564.22 164.21"><path d="M282.32 12c-20.05 0-37.43 11.625-45.83 28.425l-1.16 2.9s-4.33 12.623 4.5 21.463c7.59 7.58 22.48 7.105 22.48 7.105h43.79c2.82 0 4.29.836 5.22 2.177 1.37 1.93.42 5.077.42 5.077-5.57 10.562-16.67 17.834-29.44 17.834-10.9 0-20.41-5.294-26.54-13.336-4.37-5.732-15.42-5.463-17.83-3.917-1.53.96-2.73 4.014-1.46 6.525 8.53 16.798 25.72 28.568 45.83 28.568 19.72 0 36.86-11.2 45.39-27.552l1.45-3.917s4.5-12.487-4.35-21.318c-7.57-7.565-22.45-7.25-22.45-7.25h-43.8c-2.81 0-4.42-.704-5.37-2.032-1.36-1.935-.28-5.077-.28-5.077 5.59-10.562 16.67-17.838 29.44-17.838 10.9 0 20.42 5.31 26.54 13.346 4.37 5.76 15.44 5.468 17.84 3.913 1.51-.95 2.74-4.158 1.45-6.668C319.64 23.64 302.43 12 282.33 12zM175 12.418c-28.25 0-51.19 22.948-51.19 51.192 0 28.238 22.95 51.19 51.19 51.19 28.25 0 51.05-22.952 51.05-51.19 0-28.244-22.8-51.192-51.05-51.192zm214.93 0c-28.24 0-51.05 22.948-51.05 51.192v.14c0 28.238 22.81 51.05 51.05 51.05 23.5 0 43.3-15.833 49.29-37.417 0 0 .65-3.262-2.18-4.784-2.78-1.542-12.11-1.635-18.69 8.55-1.41 2.2-2.94 4.248-4.79 6.095-6.02 6.02-14.44 9.713-23.63 9.713-18.39 0-33.22-14.818-33.22-33.21v-.138c0-18.382 14.83-33.358 33.22-33.358 9.18 0 17.61 3.833 23.63 9.862 1.85 1.833 3.37 3.89 4.79 6.093 6.58 10.19 15.91 9.95 18.69 8.41 2.83-1.532 2.18-4.642 2.18-4.642-5.99-21.593-25.79-37.557-49.29-37.557zm111.24 0c-28.3 0-51.23 22.948-51.23 51.192 0 28.238 22.93 51.19 51.23 51.19 28.22 0 51.05-22.952 51.05-51.19 0-28.244-22.83-51.192-51.05-51.192zm-438.12.14C34.87 12.557 12 35.44 12 63.604V136.7c0 3.33 4.2 15.51 12.9 15.51l4.79-3.6-.14-46.41c8.94 7.77 20.72 12.48 33.5 12.48 28.16 0 51.05-22.878 51.05-51.052 0-28.164-22.89-51.048-51.05-51.048zm0 17.69c18.38 0 33.2 14.975 33.2 33.357 0 18.39-14.82 33.353-33.2 33.353-18.39 0-33.36-14.962-33.36-33.353 0-18.382 14.97-33.357 33.36-33.357zm111.95 0c18.4 0 33.21 14.975 33.21 33.357 0 18.39-14.81 33.353-33.21 33.353-18.38 0-33.35-14.962-33.35-33.353 0-18.382 14.97-33.357 33.35-33.357zm326.17 0c18.38 0 33.19 14.975 33.19 33.357 0 18.39-14.81 33.353-33.19 33.353-18.42 0-33.36-14.962-33.36-33.353 0-18.382 14.94-33.357 33.36-33.357z"/></svg>