<svg xmlns="http://www.w3.org/2000/svg" viewBox="0 0 754 340"><path d="M731.8 204q0 12.8-6.5 19.6-6.4 6.8-18.6 6.8-12 0-20.4-4.7v-16.8q10.3 6.7 18.9 6.7 4.9 0 7.3-2.7 2.5-2.7 2.5-7.3t-2.9-8.3q-3-3.9-9.7-8.5-5.9-4-9-7.7-3-3.8-4.7-8.4-1.6-4.7-1.6-10.8 0-11.7 6.5-18.6 6.6-6.9 17.6-6.9 10.5 0 20.2 5.9l-5.6 13.6q-3-1.7-6.4-3.1-3.2-1.4-7-1.4-4.1 0-6.3 2.8-2.2 2.7-2.2 7.3 0 4.7 2.6 8.1 2.7 3.5 9.3 7.8 9 6 12.5 12.3 3.5 6.2 3.5 14.3zm-53 0q0 12.8-6.5 19.6-6.5 6.8-18.7 6.8-11.9 0-20.3-4.7v-16.8q10.3 6.7 18.8 6.7 4.9 0 7.3-2.7 2.5-2.7 2.5-7.3t-2.9-8.3q-2.9-3.9-9.7-8.5-5.9-4-8.9-7.7-3-3.8-4.7-8.4-1.7-4.7-1.7-10.8 0-11.7 6.6-18.6 6.5-6.9 17.5-6.9 10.5 0 20.2 5.9l-5.6 13.6q-3-1.7-6.3-3.1-3.3-1.4-7-1.4-4.1 0-6.4 2.8-2.2 2.7-2.2 7.3 0 4.7 2.6 8.1 2.7 3.5 9.4 7.8 8.9 6 12.4 12.3 3.6 6.2 3.6 14.3zm-70.6-52.7q-7.4 0-11.6 8.6-4.2 8.5-4.2 23.8 0 31.8 16.6 31.8 7.2 0 15.2-4.7V226q-6.7 4.4-17.2 4.4-15.4 0-23.7-12.2-8.3-12.4-8.3-34.6 0-22.3 8.5-34.8 8.6-12.4 23.8-12.4 5 0 9.5 1.4 4.7 1.3 9.9 4.8l-5.6 13.8q-2.8-1.9-6-3.5t-6.9-1.6zm-48.7 65q3.5 0 7.6-1.7v13q-4.1 2.8-12.2 2.8-9.1 0-13.5-5.4t-4.4-16.2v-36.1h-6.7v-7.5l8.7-6 4.2-14.7h10.7v15h12.6v13.2h-12.6v36.6q0 7 5.6 7zm-34.9-7.5q0 10.2-6 15.9-5.9 5.7-17.5 5.7-10.4 0-17.1-4v-14.5q3.4 2.4 8 3.9 4.6 1.6 8.1 1.6 3.9 0 5.9-1.9 2.1-1.9 2.1-5 0-3.2-2.2-5.6-2.1-2.4-7.8-5.8-7.6-4.5-10.9-9.6-3.2-5.1-3.2-12.1 0-8.9 6-14 6.2-5.2 16.8-5.2 9.3 0 17.5 4.8l-5.5 12q-6.7-3.6-11.7-3.6-3.2 0-4.9 1.7-1.5 1.6-1.5 4.1 0 2.8 1.9 5 2 2.2 7.4 5.4 6.5 4 9.1 6.7 2.7 2.8 4.1 6.3 1.4 3.5 1.4 8.2zm-49.1-14.6q0 17.1-7.2 26.7-7.3 9.5-19.9 9.5-8 0-14.2-4.4-6.1-4.3-9.4-12.5-3.3-8.3-3.3-19.3 0-17 7.2-26.5t19.9-9.5q12.4 0 19.6 9.7 7.3 9.7 7.3 26.3zm-37 0q0 10.9 2.4 16.4 2.4 5.6 7.6 5.6 10 0 10-22 0-11-2.4-16.3-2.4-5.5-7.6-5.5-5.2 0-7.6 5.5-2.4 5.3-2.4 16.3zm-25-28.3q0 14.5-7.4 22.4-7.3 7.7-21.2 7.7h-4.3v33.2h-17v-91.5h23.2q26.7 0 26.7 28.2zm-32.9 15.3h3.3q6.2 0 9.3-3.4 3.1-3.4 3.1-11.3 0-7.1-2.8-10.6-2.9-3.5-8.7-3.5h-4.2v28.8zM167 22h-1.5c-2.9.1-5.8.4-8.7.8-2.8.3-5.6.8-8.3 1.2-3.3.4-6.6.6-9.9 1-3.1.4-6.3 1-9.4 1.5-1.1.2-2.2.6-3.3.8-2.4.5-4.9.7-7.3 1.5-4.3 1.3-8.6 2.8-12.8 4.4-3.9 1.6-7.69 3.3-11.39 5.3-3.8 2.1-7.4 4.6-11 7-3.4 2.3-6.8 4.7-10.1 7.3-3.2 2.5-6.2 5.3-9.1 8.1-1.6 1.6-2.9 3.5-4.4 5.3-2.5 2.9-5 5.7-7.4 8.7-2 2.5-3.8 5.1-5.7 7.7-3.4 4.6-6.3 9.5-9 14.4-1.1 2-2.09 4-3.09 6-1.5 3-3.1 5.9-4.5 9-1 2.1-1.81 4.4-2.41 6.7-1.4 4.9-2.79 9.9-4.09 14.8-1.2 4.4-1.5 9-1.6 13.5-.1 4 .29 7.9.69 11.9.1 1-.5 2.2.7 3 .1 0 0 .4-.1.5-.3.6 0 1.2.6 1.4 0 0 .11.1.11.2h-.5c-.3.9.69 1.6.29 2.6-.1.2.3.6.5.9 0 .3-.1.7 0 1 .1.9.5 1.8.5 2.8 0 .7.61 1.5.81 2.2.1.3 0 .8-.21 1-.6.7-.5 1.3.4 1.7.2.1.5.5.5.7 0 .6-.19 1.2-.29 1.8.2.2.29.4.19.6 0 .3-.29.6-.19.8.8 1.6 1.09 3.4 1.19 5.2 0 .4.21.8.41 1.3.1 0 .39 0 .59.1l-.59 1.8c.5-.3.9-.4 1.4-.6.3 1.3.6 2.5 1 3.6.1.2.3.4.6.6-.1.2-.11.6-.31.7.4 1.8.61 3.5 1.31 5.2.1 0 .19-.1.29-.1-.3-1.8-.49-3.7-.79-5.5v-.6s.19-.1.29-.1c.1.4.3.9.3 1.2.8 0 2.01.5 2.81.5.1-.3.19-.7.29-.9-.6-.6-1.09-1.5-1.69-2.1.2.8 0 1.1 0 1.4-.4-.2-.91-.4-1.41-.6.4-.5.81-1 1.41-1.6 0-.9-.51-1.7-1.91-1.6.6-.2 1.21-.5 1.91-.7.1.3.19.6.29.8.8-1.4-.39-2.5-.39-3.9.1-1.7-.91-3.4-1.21-5.2-.5-2.8-.39-7-.69-9.8 0-.2-.3-.4-.5-.6-.1.1-.61 1.4-.71 1.5.3 2.4.6 4.8.8 7.2-.1 0-.19 0-.19.1-.4-2.1-.81-4.3-1.31-6.7-.1.7-.19 1-.19 1.4-.3-.1-.4-.2-.9-.4.4.9.79 1.5 1.09 2.2-.7-.3-1.5-.2-1.5-.2v2.8c-1-1-1.3-1.8-1.8-2.5-.2-.8-.3-1.6-.5-2.4l.3-.1c-.1-.4-.3-.7-.3-1-.1-.7-.19-1.5-.29-2.4.1-.1.49-.2.69-.4l-.79-1.2c.8.1 1.29.2 1.79.2 0-.2.1-.3 0-.4-1-.9-.3-1.7.1-2.5.2-.4.91-.5 1.11-.9.8-1.5 2.1-2.7 2.1-4.6 0-.9.3-1.9.4-2.8.2-1.7.4-3.4.5-5.1.2-2.2 0-4.4.5-6.5.8-3.5 1.79-7 2.89-10.5.8-2.5 1.71-4.9 2.71-7.4 1.5-3.9 2.89-7.8 4.79-11.5 2.7-5.4 5.8-10.6 8.8-15.9 1.9-3.3 3.9-6.4 6-9.6 2-3.1 4.01-6.3 6.31-9.2 3.2-4.1 6.7-7.9 10.6-11.3 4-3.6 7.79-7.3 12.09-10.6 5.6-4.3 11.51-8.1 17.79-11.4 5.1-2.7 10.4-4.8 15.7-6.8 3.4-1.3 7.1-1.9 10.6-3 4-1.3 8-1.9 12.2-2 2.7-.1 5.3-.4 8-.7 2.4-.2 4.8-.4 7.4-.7-.3.4-.4.6-.5.8-1.1 1.6-2.3 3.2-3.4 4.8-.9 1.3-1.9 2.7-2.8 4-1.6 2.1-3.3 4.2-4.8 6.4-2.3 3.3-4.4 6.7-6.8 10-2.4 3.2-5 6.2-7.5 9.3-3.3 4.3-6.4 8.7-9.7 13-3 4.1-6.2 8-9.1 12.1-2.6 3.6-4.9 7.4-7.4 11.1-3.7 5.5-7.39 10.9-11.09 16.4-2.9 4.2-5.79 8.3-8.79 12.5-.2.3-.51.4-.81.6-.2.2-.59.4-.59.6-.2.7-.2 1.4-.5 2-.8 1.5-1.6 3-2.5 4.4-.5.8-1.21 1.5-1.81 2.3-.2-.1-.3-.2-.5-.2.4-1 2.11-1.6 1.31-3.1-.5.8-1 1.5-1.5 2.3l-1.21 2.4c.39.3 1.03.5.47 1.1-.1-.3-.43-.4-.67-.6-.8 1.1-1.6 2.3-2.4 3.6.6.5.91.3 1.31-.4.32-.6.77-1.1 1.2-1.7-.14.3-.27.5-.41.7.1 0 .11.1.21.1.3-.4.6-.7.9-1.1.1 0 .19.1.29.1-.3 1-.9 1.9-1.4 2.8-.4.8-1.4 1.4-2.1 2 .1.1.8.4.9.5.3-.4.4-.2.7-.6.2.3.51-.2.61.1.3-.4.59-.7.69-1 .4-1 1-1.8 2-2.2.4-.2.7-.5 1-.8 3-3.1 6.11-6.1 8.81-9.4 4.2-5.1 8-10.4 11.98-15.6 1.7-2.2 3.7-4.4 5.5-6.5.2.1.4.1.5.2-.2 2.1-.4 4.3-.5 6.4-.3 3.7-.5 7.4-.8 11.2-.1 1.5 0 3-.1 4.5 0 .4-.3.7-.3 1.1 0 1 .3 2.1.3 3.1-.3 3.7-.7 7.3-1 11-.1.8.3 1.6.5 2.3-.1-.1-.2-.2-.5-.4 0 5.8 1.1 11.5.2 17.2.4-.1.6-.2.6-.4.1-.7.3-1.4.3-2.1.1-.6 0-1.2 0-1.9v-1c.1-1.8.5-3.7.3-5.5-.2-2-.2-3.9.2-5.8.2-.8-.1-1.8.4-2.8v1.5c-.1 5.7.1 11.4-.7 17.1-.1.5.3 1.4-.8 1.3-.1 0-.2.5-.4.8-.5 1 .6 2.3-.4 3.3-.2.2.2 1.1.3 1.7 0 .2.1.4 0 .5-.4.7-.4.7.2.8.1 2.2.3 4.2.4 6.3h.3c1.3-3.8.5-7.7 1.2-11.6.1 1.6.2 3.2.1 4.9 0 2.6-.1 5.1-.2 7.7 0 .5-.1 1-.2 1.5-.3 1.4-.4 2.8-.9 4.1-.4 1-.2 2.5-.2 3.7v3.8c0 .1.3.4.3.8.1.9-.4 1.8-.1 2.8.1.2-.1.5-.2.7-.1.3-.2.6-.1.9l.3 1.5c0 .1.1.2.2.4.1-.4.1-.7.1-.8 1.7.2.8 1.7 1.6 2.5-.4.2-.7.3-.7.4.1.4.3.7.3 1.1 0 .9-.1 1.7-.2 2.6 0 2.3-.1 4.6-.1 6.8 0 .3.1.6.1.9 0 .2-.1.4-.1.7v2.1h.4c-.2.3-.4.6-.7.9-.1 0-.4 0-.4-.1v-12.6H105c-.2 6 .3 11.4-.8 17-1.2.1-1.6.3-2.9.3-3.09 0-6.18 0-9.28.1-3.7 0-7.3.1-11 .1-1.8 0-3.7.2-5.5.2-2.4 0-4.91-.3-7.31-.3-3.7 0-7.3.3-11 .4-2.7.1-5.39.1-8.09.2-1.8.1-3.61.2-5.41.4-.8.1-1.5.4-2.5.7-.3 0-.99-.1-1.59 0-1 .2-1.91.8-2.91 1-1.5.3-1.89.7-1.69 2.2v1c-.2-.2-.51-.4-.71-.5-.1 0-.19.1-.19.1.1.3.3.5.4.8.4-.2.89-.7 1.29-.7h1.4c-.2 0-.29.6-.59 1.1.8-.3 1.29-.5 1.79-.7.1.3.11.7.11.8 1.4-.1 2.69-.5 3.89-.2 3.9 1 7.9 1.4 11.9 1.8 2.6.2 5.11.3 7.71.4 3.7.2 7.4.4 11.1.4 3.1 0 6.09-.3 9.19-.3 4.3 0 8.6.2 12.9.3.9 0 1.91-.1 2.91-.1h7.28c6.5-.2 13-.3 19.5-.5 3.7-.1 7.5-.3 11.2-.4l11.4-.3c4.4-.1 8.8-.1 13.1-.2 3.3 0 6.5-.1 9.8-.2 3.7-.1 7.5-.4 11.2-.6 2-.1 4-.3 6-.5 2.4-.2 4.9-.5 7.3-.6 3.6-.2 7.3-.3 10.9-.5 4.5-.3 9-.7 13.6-.8 4.2-.2 8.5-.1 12.7-.2 3.7-.1 7.4-.3 11.2-.4l6.3-.3s4.2-.1 6.3-.3c3.6-.2 7.2-.6 10.8-.7 2.3-.1 4.6 0 6.9-.1 3.7-.1 7.5-.3 11.2-.3 1.4 0 2.9.2 4.7.3-.8.7-1.3 1.1-1.9 1.6.4.1.8.3 1.2.5 0 .1-.1.2-.1.4-.5 0-1 .1-1.5.1-.2.5-.4.7-.6 1.7h1.8c-.7 0-1.3.9-2 1.5.1.1.2.1.3.2-1.1-.4-1.8-.2-2.2.9.3.1.5.1.8.1-.1.3-.2.6-.3 1-.1.2-.2.4-.2.7l-.3-.3c0-.2 0-.4-.1-.6-.6.6-1.5 1-1 2.3-.4.2-.9.4-1.4.7.1.2.3.4.4.7-.9.1-1.8.3-1.6 1.4.4.1.8.3 1.1.4-.5.2-1 .5-1.5.7-.1.2-.2.7-.4.8-1.4.3-.6.8-.2 1.3-.3.2-.6.4-.9.5.3.1.5.2.7.4-.3.2-.5.3-.7.4.2.1.5.3.6.3-.3.2-.6.5-1 .8 0-.1.1-.2.1-.3h-.4c0 .2 0 .4.1.5-.1.1-.2.1-.3.2 0 .2 0 .3.1.5-.4.4-.8.8-1.2 1.4-.4.6-.6 1.4-1.1 2-2.1 2.3-3.6 5-6.3 6.8-1 .7-1.9 1.6-2.8 2.5-1.8 1.7-3.4 3.6-5.3 5.2-2.5 2.1-5.1 4-7.8 5.9-3.3 2.3-6.6 4.6-9.9 6.8-1.8 1.2-3.8 2.1-5.7 3.2-1.9 1.1-3.7 2.1-5.6 3.2-1.2.8-2.3 1.9-3.6 2.5-3.3 1.4-6.8 2.6-10.2 3.9-.3.1-.5.2-.8.3-2.5 1.1-4.9 2.3-7.4 3.2-2.3.8-4.7 1.4-7.1 1.9-.8.2-1.7 0-2.6.1-1.7.3-3.4.7-5.1.9-4.4.6-8.8 1-13.2 1.6-2.6.3-5.1.8-7.7 1.1-1.8.1-3.7-.1-5.5-.1-1.3 0-2.7.3-4 .1-2.1-.3-4.2-.8-6.3-1.2-.5-.1-1.2-.3-1.6-.1-.8.4-1.5-.2-2.3 0-.5.1-1-.3-1.5-.3-.4-.1-.9.1-1.4 0-1.1-.3-2.1-.7-3.3-.6-1.2.1-2.4-.5-3.7-.8-1.8-.4-3.5-.8-5.3-1.2-.7-.2-1.3-.5-2-.9-.2.1-.5.3-.9.3-1.7-.3-3.4-.4-5-1-1.4-.5-2.7-1.2-4.2-1-.4.1-.7-.1-1.1-.1-.3-.4-.6-1.2-.9-1.2-2 .1-3.2-1.6-4.9-2.1-.9-.3-1.6-1.3-2.5-1.6-2.2-.9-4-2.8-6.5-3.1-.8-.1-1.6-.5-2.5-.8.3.4.5.7.8 1l-.2.2c-2.7-1.6-5.4-3.2-8.1-4.7-.4-.1-.7-.5-1-.7l-2.68-1.8c-.3-.2-.91-.5-.91-.4-.6.7-1.19.1-1.59-.1-2.7-1.9-5.81-3.1-8.41-5.2-1.1-.9-2.39-1.5-3.19-2.6-1.4-1.7-3.1-2.9-5-3.9-1.5-.8-2.91-1.7-4.31-2.6-.7-.5-1.4-1.1-1.4-2.2 0-.7-.29-1.4-1.19-1-.4-.6-.81-1.3-1.31-1.5-1.2-.5-2-1.4-2.9-2.2-.9-.8-1.6-1.9-2.7-2.3-2-.8-3.2-2.5-4.4-3.9-2.8-3.3-5.3-6.9-7.9-10.4-.2-.3-.59-.5-.89-.8l-.11.1c.5 1 1 1.9 1.5 2.9-.1.1-.29.2-.39.3-.6-.7-1.3-1.4-1.9-2.1-.1.1-.21.2-.31.2l7.21 11.4c.6.9 1.09 1.8 1.69 2.7-.1.1-.2.2-.4.3-1.1-.2-2.1-1-2.6-1.9-.9-1.6-1.9-2.6-3.9-2.4-.2-.7-.4-1.5-.5-2.2-.4 0-.7 0-1.4-.1 1.4 2.2 2.6 4.1 3.9 6.3-.5-.3-.8-.5-1-.6 1.8 1.9 3.1 4.3 5.4 5.5.5 2.3 3.1 3.4 3.7 5.6-.5-.1-.89-.2-1.39-.3-.8-1-1.71-2-2.61-3.1.2.7.5 1.3.9 1.8 1.2 1.5 2.31 3 3.71 4.3.5.5 1.19.7 1.19 1.6.2-.2.41-.3.81-.5-.2.4-.3.6-.4.9.4 0 .7.1 1 .1.2.6-.11 1.5 1.09 1.3.1 0 .21.1.31.2.5 1.3 1.29 1.3 2.39.8.2-.1.7 0 .8.2.5 1.1 1.2 1.2 2.1.4 0 .5.1 1 .1 1.4h.4c0-.2-.1-.5-.1-1 .5.4.8.6 1 .8 1 1.4 1.91 2.7 3.31 3.8 1.9 1.6 3.59 3.3 5.39 4.8 3.5 2.9 7.4 5.3 11.3 7.5 4.8 2.7 9.39 5.6 14.29 8.2 5.9 3.1 12.2 5.2 18.7 6.7 2.4.5 4.7 1 7.1 1.6 2.1.6 4.2 1.5 6.3 2 3.2.7 6.5 1.3 9.7 1.9.7.1 1.4.2 2.2.3v.2c.9 0 2-.4 2.2-.1.5.8.9.4 1.5.3.7-.2 1.5-.2 2.3-.2 2.8.1 5.5.7 8.3.5.6 0 1.5-.5 2 .5.2-.1.3-.2.5-.3.4-.1.9-.1 1.3-.2v.2c-.2.1-.4.1-.8.2.5.1.8.2 1.1.3-.2.2-.3.2-.5.3-.2.1-.5.2-.9.5 3.6.7 7 .8 10 0v-.6h.4c0 .2.1.4.2.6 4.6.4 9.1-.2 13.4-1.7.4.5.7 1.2 1.3.2.2-.3.7-.4 1.1-.5.9-.2 2-.6 2.8-.3.9.3 1.2-.5 1.9-.5 1.2 0 2.3-.1 3.4-.3.6-.1 1.2-.4 1.9-.6 0-.1 0-.2-.1-.3-.7-.1-1.5-.2-2.1-.2 1.2-.6 2.3-1.1 3.4-1.6 0 .1.1.1.1.2-.3.1-.5.5-.9.5h1.4c-.3 0-.7.9-1.2 1.5 3.6-.9 6.9-1.7 10.1-2.5v-.2c-.4.1-.7.1-1 .2-.1-2.1 2.2-1.4 3-2.6-1 .3-2 .6-3 .8v-.2c3.4-1.5 6.9-3 10.3-4.5 0 .1.1.1.1.2-.6.4-1.2.7-2.1 1.2.6.1 1 .1 1.3.2 0 .3 0 .5-.1.6 1.7-.1 1.3-1.6 1.8-2.5.3.1.7.3 1 .2.9-.2 1.7-.5 2.6-.8 1-.3 2-.6 3-1 1.6-.7 3.1-1.6 4.7-2.4.3-.1.8 0 1.2 0 .3 0 .5-.2.7-.4.4-.3.8-.9 1.1-.8 1.4.2 2.4-.3 2.8-1.6.1 0 .1-.1.2-.1s.1 0 .1-.1c.4.9 1.2 1 2.5.1-.8 0-1.6-.1-2.3-.2l-.1.1c.4-.4.9-.7 1.3-1 2.2-1.2 4.3-2.4 6.5-3.6.1-.1.3 0 .5 0 .3 0 .7 0 .9-.1 1.3-.6 2.5-1.3 3.7-2-.3-.1 0-.2-1-.3v-.2c1-.2 1.3-.3 1.9-.5l-.2-.2c2.6-2.6 5.9-4.5 8.4-6.7.5.1.7.2 1 .2.1-.3.1-.6.1-.8.4-.5.8-1.1 1.3-1.5 2.2-2 4.6-3.7 6.6-5.8 2.9-2.9 5.7-5.9 8.3-9 2.4-2.8 4.8-5.6 6.8-8.7 2.8-4.3 5.2-8.7 7.7-13.2 1.8-3.2 3.4-6.4 5.2-9.6.2-.3.6-.7.9-.7 2.7-.3 5.4-.5 8-.8.6-.1 1.3-.5 1.9-.8-.3-.5-.5-1.1-.8-1.6-.4-.6-1-1.1-1.4-1.7-.4-.5-.7-1.1-1-1.7-.3-.5-.6-.9-.9-1.4-.6-1.1-1.2-2.2-1.7-3.4-.1-.3-.3-.8-.2-1.1 1.8-3.9 2.5-8.1 4.2-12 1.7-4 2.2-8.5 3-12.8.7-4.1 1.1-8.2 1.6-12.3.3-2.9.7-5.7.8-8.6.6-4.6.4-8.9.3-13.2-.1-3.8-.3-7.7-.5-11.5-.2-3.9-.3-7.8-.7-11.7-.7-5.3-1.4-10.7-2.6-15.9-.9-4.3-2.4-8.4-3.9-12.5-1.9-4.8-3.8-9.7-6.2-14.3-3.9-7.4-9-14-13.7-20.9-3.1-4.4-7.1-8-10.1-12.5-1.7-2.6-4.2-4.8-6.7-6.8-4-3.2-8.2-6.1-12.4-8.9-3.2-2.2-6.4-4.3-9.8-6.2-2.7-1.5-5.6-2.7-8.4-4-3.2-1.5-6.3-3.3-9.9-4-.9-.2-1.7-.5-2.6-.8-2.3-.8-4.5-1.7-6.8-2.4-3.5-1.1-6.9-2.4-10.5-3.3-3.5-.9-7.1-1.5-10.7-2-4-.6-8.1-.8-12.1-1.2-2.6-.3-5.2-.6-7.7-.7-3.8-.2-7.7-.2-11.5-.3-1.4-.1-2.9-.21-4.3-.23zm7.1 11.63c1.3.2 2.5.4 3.7.5l4.8.3c3.6.3 7.2.5 10.8 1 3 .4 6 1 9.1 1.5 6.6 1.1 13.1 2.9 19.4 5 3.7 1.2 7.3 2.8 10.9 4.3 8.1 3.3 15.8 7.3 23.4 11.5 2.4 1.3 3.8 3.4 5.6 5.3 2.6 2.7 5.2 5.4 7.7 8.2 2.9 3.3 5.6 6.7 8.4 10.1 2.5 3 5.1 6 7.6 9 .8.9 1.4 2 2.1 3 1.6 2.4 3.4 4.7 4.8 7.27 1 1.9 1.6 4.1 2.3 6.2 1 3.1 2 6.1 3 9.2.7 2.3 1.3 4.7 1.8 7.1.4 1.6.3 3.3.8 4.9.6 2.1 0 4.4.6 6.5.1.2.2.5.3.7.4.4.7.8.1 1.4-.1.1-.1.5 0 .8.2-.2.3-.4.5-.7 0 .2.1.3.1.4 0 .4-.1.8 0 1.2 0 .2.2.5.3.7.2-.2.4-.3.8-.6.9 3.4 1 6.8 1 10.3 0 3.3.6 6.6-.8 9.8.3-1.1-.4-2.1-.1-3.1-.1 0-.7-.6-.8-.7-.1.3 0 .6-.2 1-.1-.3-.8-.2-.8-.5-.1 1.4.6 2.8.5 4.2.3-.2 1.5-.3 1.8-.6.1.1.3.2.4.2-2 1.5-1.5 3-.6 4.7.2.4.8 1.2.2 2-.2.2.1.8.2 1.3h.3v.2l-.9.3c-.2-.3-1.4-.9-1.4-1.4v5.1c1 .3 1 1.7 1.4 2.4.2-.3.3-.5.4-.8l.1.1c-.1.6-.2 1.2-.4 1.8-.2.9-.4 1.7-.5 2.6 0 .1.2.3.2.4-1.1 2.5-.5 5.3-.9 7.9-.3 1.9 0 3.9-.2 5.9-.2 1.7-.6 3.5-1 5.2-.1.3-.3.4-.8.6.2-1.2.1-2-.1-3.1-.1 0-1.4-.7-1.5-.7 0 1.4.8 3.3 1.1 4.9-.3-.1-1.5-.8-1.6-.8-.2 1.2-.2 2.8-.3 4.1-.1 1-1 1.9-1.1 3 0 .6.7 1 .6 2h.8c0-2 .9-3.8.9-5.9h.3c.1.2.4.4.3.5-.2 1.1-.6 2.3-.5 3.4 0 .6.5 1.2.3 1.9-.2.6-.3 1.2-.4 2.1-.1-.5-.2-.7-.2-1-.1 0-1-.1-1.1-.1-.1.6.7 1.2.6 1.7-.1.1-.2.1-.4.2l-3.3-4.8c-2.6-3.8-5.2-7.6-7.8-11.5-.7-1-1.3-2-1.8-3-3.1-5.3-6.5-10.4-10.3-15.3-2.9-3.7-5.2-7.7-7.9-11.6-2.5-3.7-5-7.3-7.5-11-.9-1.2-2-2.3-2.8-3.6-2.6-4.1-4.9-8.3-7.5-12.4-2.2-3.4-4.6-6.7-6.9-10-.8-1.1-1.6-2.3-2.4-3.5-.1-.2-.2-.4-.2-.7-.2-2.2-.4-4.4-.5-6.5 0-2 .2-4 .2-6.1v-1.8c0-.5.1-.9.1-1.4.1-.1.2-.3.3-.4-2.9 0-5.9-.1-8.8 0-1.9.1-2.9-.7-4.2-2.1-3.8-4.27-6.6-9.17-9.9-13.77-3.1-4.4-6.3-8.7-9.5-13-2.6-3.5-5.2-6.9-7.8-10.4-2.9-4-5.7-8-8.7-12-3.6-4.8-7.3-9.6-11-14.4-1.7-2.2-3.6-4.3-5.5-6.6zm-9.5 5.23c.3 0 .6.15.8.47 2.7 3.4 5.4 6.9 8.1 10.3 2 2.5 4 4.9 5.9 7.5 2.3 3.2 4.5 6.4 6.8 9.6 2.6 3.7 5.2 7.4 7.7 11.2 3.8 5.6 7.4 11.2 11.2 16.8 2.8 4.1 5.6 8.07 8.3 12.17h-5.1c-4.7-.1-9.5-.5-14.2-.3-6.4.3-12.9 1-19.3 1.5-8.1.7-16.3.8-24.4.8-2.9 0-5.8.4-8.7.6-3.5.2-6.9.4-10.4.5-4.1.2-8.1.3-12.2.4-2.3.1-4.7 0-7.2 0 3.2-4.4 6.5-8.8 9.7-13.27 1-1.3 1.8-2.7 2.8-4 .3-.4.7-.6 1.2-1l-.1-.2c.4-.5.8-.9 1-1.3.5-.8.8-1.7 1.2-2.6.1-.2.4-.4.4-.4 1.4.7 1.4-.8 1.9-1.3.9-1 1.8-2.1 2.6-3.1.6-.8 1.2-1.5 1.7-2.4.1-.3-.2-.8-.3-1.2h-.3c.3-.2.6-.5.9-.7.1 0 .1 0 .2-.1.6-.9 1.2-1.8 1.8-2.6 1.2-1.6 2.5-3.2 3.9-4.6-.2.5-.4 1-.6 1.4.1 0 .1.1.2.1 1.2-1.6 2.5-3.1 3.7-4.7-.1-.1-.2-.2-.3-.2-.5.5-.9 1-1.4 1.5-.1-.1-.2-.2-.3-.2 1-1.3 2-2.6 3-4.1.2.3.4.7.8 1.5.4-1 .8-1.7 1.1-2.4-.3.3-.7.6-1 .9l-.3-.3 1.8-2.7c1.9-2.7 3.8-5.5 5.7-8.2.7-1 1.6-1.8 2.2-2.8 1.9-3.8 4.9-6.8 7.2-10.3.5-.7 1.2-1.3 1.8-1.9.2-.23.4-.34.5-.37zm-28 38.97c-.6.4-1.1.7-1.7 1.1-.1.1-.2.1-.1.1.1.5.1.9.2 1.6.7-1 1.2-1.8 1.8-2.6l-.2-.2zM221 119c.9 0 1.4.3 1.9 1.1.9 1.5 1.8 3 2.8 4.5.1.2.3.5.3.8 0 2.2 0 4.5.1 6.7.1 2.3.3 4.5.4 6.8 0 2.3-.2 4.7-.1 7.1.1 3.4.2 6.9.2 10.4v.9c-.1 0-.2.1-.4.1-.4-1.4-.8-2.9-1.3-4.3-1-2.9-2.1-5.8-3.9-8.4-2-2.8-3.8-5.7-5.8-8.6-.5-.7-1.2-1.3-1.8-1.9-2.1-2.3-4.2-4.7-6.9-6.4-4-2.5-8.1-4.6-12.5-6.4-1.2-.5-2.3-1.1-3.5-1.8h2.4l17.1-.3c3.7-.1 7.3-.1 11-.3zm-75.1 2.6c.7 0 1.5 0 2.2.1-1.6.8-3.2 1.6-4.6 2.6-1.8 1.2-3.5 2.8-5.3 4.1-1.8 1.3-3.4 2.9-4.9 4.6-1.9 2.3-4 4.3-6 6.5-1.4 1.6-3 3.1-4.2 4.8-1.7 2.2-3.2 4.6-4.8 7.1.5-9.5 1.1-18.9.7-28.5 4.7-.2 9.2-.5 13.8-.7 3.6-.2 7.3-.3 10.9-.5.8 0 1.5-.1 2.2-.1zm25.1 5.1c3 .1 6 .1 9 .3 1.3.1 2.5.4 3.7.8 1.5.5 3.1 1.2 4.5 1.9 1.7.9 3.3 1.9 4.9 3 2.9 1.9 5.6 4 8.5 5.7 2.8 1.7 5 4 6.8 6.6 2.2 3.1 4.7 5.9 5.7 9.7l1.5 6.6c.3 1.2 1 2.4.7 3.8-.5 2.5-.9 5.1-1.3 7.6-.2 1-.4 2-.3 3 .2 3.1-1 5.8-2.2 8.6-.4.9-1 1.8-1.5 2.8.1.1.7.4.8.4l.9-1.8c.1 0 .1 0 .2.1-.5 1.4-.9 2.9-1.4 4.3-1.2 3.1-2.4 6.3-3.9 9.3-.8 1.7-2.2 3.1-3.2 4.7-1 1.4-1.8 2.9-2.8 4.2-.9 1.1-1.8 2.2-3 3-2.7 2-5.5 4-8.4 5.6-1.8 1.1-3.9 1.7-5.9 2.2-3.2.8-6.5 1.7-9.8 2.1-2.8.4-5.7.3-8.6.3-2.6 0-5.1-.1-7.7-.3-2.9-.3-5.8-.6-8.6-1.9-2.4-1.1-4.9-2.1-7.3-3.3-2.4-1.2-4.8-2.6-6.6-4.8-1.3-1.6-3.1-2.9-4.7-4.3.3 1.2 1 2.2 2.1 2.9-.5.6-1.2.3-2.2-1.3-.3.2-.6.3-.8.4.3-.7.6-1.4.9-2-.4-.8-.9-1.7-1.3-2.5-.8-1.3-1.6-2.7-2.3-4-.2-.3-.2-.6-.4-.9-.5-.6-1-1.2-1.4-1.8-.8-1.2-1.5-2.5-2.5-3.7 0 .3.1.6.1 1-.1 0-.2.1-.2.1l-2.1-5.1c-.1 0-.1 0-.2.1l1.8 6.6c-.1 0-.2.1-.3.1-.3-.4-.6-.8-.8-1.3-.2-.8-.8-.8-1.3-.5-.3.2-.5.9-.4 1.2.7 1.7 1.5 3.4 2.3 5.1.2.6.4 1.1.7 1.7.1.2.4.4.4.7.4.8.7 1.6 1.2 2.3.9 1.2 1.9 2.4 2.8 3.6.9 1.2 1.7 2.5 2.5 3.7.1.2.4.2.5.3.5 1.5 2.2 2.6 3.4 2 .3 2.3 2.8 3.1 3.8 5.3-1.2-.5-2.1-.9-2.9-1.3-.1.1-.1.2-.2.4 1.2.6 2.4 1.2 3.5 1.9 1 .6 2 1.2 2.9 1.9 1.2 1.1 2.6 1.7 4.3 2.1-.1-.3-.2-.4-.2-.4 2.8 1.3 5.7 2.7 7.9 3.8-10.4.2-21.5.4-33 .6 0-1.9-.1-3.7-.1-5.6 0-.8.2-1.5.1-2.3-.3-4.6-.3-9.2-.9-13.7-.6-4.8-.6-9.5-.5-14.3.1-2.6-.1-5.3-.2-7.9 0-3.5 0-6.9.1-10.4 0-.5.2-.9.4-1.4h.3c.1.2 0 .5.2.6.3.3.8.8 1 .7.6-.4 1.5-.8 1.7-1.4.5-1.2.7-2.5.7-3.7 0-.9.4-1.5.8-2.1.2-.3.3-.6.5-1-.4-.3-.8-.5-1.3-.9.4-1.1.3-2.4 1.8-3 .2-.1.2-.6.3-.9.1-.8.2-1.7.3-2.5.2.3.3.4.5.6.1-.2.2-.3.2-.3 0-.4-.1-1.2 0-1.2 1.2-.2.7-1.5 1.3-2.1.1-.1-.1-.4-.1-.6 0-.2 0-.5.1-.5 1.4-.3 1.2-1.8 2.1-2.5.3-.2.4-.5.8-1 .8 1.4-.6 2.1-.7 3.1 1.7-1 2.2-3.4 1.2-4.1.4-.3.8-.7 1.1-1.1 1.1-1.2 2.3-2.3 3.3-3.5.7-.9 1.1-2 1.8-2.9.4-.5 1.2-.9 1.8-1.2 1.8-1 3.5-2.1 4.6-3.8.2-.2.5-.4.8-.6.3-.2.9-.2 1-.5.1-.2-.2-.7-.4-1 .4-.2.8-.6 1.6-1-.3.6-.4 1-.6 1.4l.5.5c.9-.7 2.3-1.5 3.2-2.1 0-.1-.5-.5-.5-.5-.6.3-1.5.8-2.4 1.2.2-.3.2-.5.3-.6 1.4-.9 2.8-1.8 4.3-2.5 3.5-1.6 7-3.2 10.5-4.7.6-.3 1.4-.1 2.1-.1.3 0 .5 0 .8-.1 1.6-.5 3.2-1 4.8-1.4.7-.2 1.5-.3 2.2-.3zm-3.9 1.5c-1.1.5-2 .9-2.9 1.3 0 .1-.5.9-.4.9.5-.1 1.6-.9 2.2-1 .3 0 .7.1 1 .2 0-.4 0-.8.1-1.4zm72.3 17c1 1.3 2.1 2.5 2.8 3.8 2.3 4.2 5.3 7.8 8.1 11.6 2.4 3.3 4.6 6.9 6.8 10.3 2.7 4.1 5.3 8.2 8 12.3 2 3.1 4.1 6.2 6.2 9.2 1.9 2.7 3.9 5.3 5.9 7.9 1.7 2.3 3.5 4.6 5.2 6.9 2 2.8 4 5.6 6 8.3 1 1.4 2.1 2.8 3.2 4.2.6.8 1.5 1.4 2.1 1.9-.1 0-.2 0-.4-.1.3.4.5.7.7.9 1.1.6 1.2 1.2.6 2.1-.1.2-.3.4-.4.6-.1-.2-.1-.5-.2-.9-.6 1.6-1.9.8-2.8.8-5.4.1-10.9.1-16.3.1-5.2 0-10.5 0-15.7.1-1.7 0-3.5.4-5.2.5-4.1.2-8.2.3-12.3.4-.3 0-.6-.5-1.1-.9-.1.2-.3.5-.6.9-.1-.2-.3-.4-.5-.7-.1.3-.2.6-.3.8h-.3c-.2-1.4-.6-2.7-.6-4.1 0-3 .3-6 .4-9 .1-1.4 0-2.7 0-4 .4.3.7.5 1.1.8.2-.4.4-.7.6-1 0 0-.2-.1-.4-.3.2-.1.4-.3.4-.4.1-.3.3-.6.3-.8 0-.7-.2-1.3-.3-1.9.1 0 .2 0 .3-.1l.6 3h.3c-.4-.7.9-1.3-.2-2.1-.1-.1.1-.7.1-1-.3-.6-.5-1.2-.8-2 .1-.1.4-.2.7-.3-.4-.2-.7-.4-1-.5 1-.9 1-1.4.1-2.4.2-.1.4-.1.4-.2 0-.9 0-1.8-.2-2.7-.2-1 .3-2.2-1.2-2.8.1.3.2.5.4.8 0 0-.3.1-.6.3-1.3-1.2-.5-2.8-.8-4.6.7.2 1.2.4 1.7.6-.2-.7-.7-1.5-1-2.4h-.4v-6.6c0 .1.7.1 1.1.2 0-.1.1-.2.1-.3-.3-.4-.7-.8-1.1-1.3l.2-.2c-.8-1-.4-2.4-.4-2.7v-7c1 1-.5 2.3 1 2.9.1.1.1.1.2 0-.1 0-.1 0-.2-.1v-.9h-.1c-.1-1.5-.1-3-.2-4.5h-.2c-.1.2-.1.3-.2.5h-.2c.2-7.9.4-15.8.6-23.9zm-.7 29.2c.5.2 1 .3 1 .5v-.7c-.3.1-.6.1-1 .2zm-167.79-21c-1.2 1.4-2.29 2.8-3.39 4.2.2.1.49.8.69 1 1.1-1.5 2.6-3.4 3.7-4.8-.1-.1-.9-.3-1-.4zm-6.7 4.9c-.6.9-2.09 2.5-2.69 3.4.1.1 1.19-.4 1.29-.3.6-.9 1.21-1.9 1.81-2.8-.2-.1-.31-.2-.41-.3zm2.1 1.5c-.6.4-1.19.9-1.79 1.3.2.2.19.3.19.5-.8-.1-1.1.3-1.5 1.4-.1.3-.59.4-1.09.8-.1.2-.21.7-.41 1.2l.1.1c-.2.2-.5.3-.5.3-.6.6-1.3 1.1-1.9 1.7-.1.3-.2.6-.2.9.7-.7 1.91-2 2.81-2.8l.1.1c.4-.6.69-1.2 1.09-1.8.1.1.1.2.2.3-.3.8-.59 1.7-.89 2.5-.2.1-.5.3-.5.2-.4.3-.71.7-1.11 1l-1.79 1.2c-1 .9-2 1.7-3.1 2.6-.7 1.1-1.41 2.1-2.21 3.4 1.2-.3 1.5.2 1.4 1.2 1.4.2 1.51-.9 1.91-1.7.1-.2.2-.6.4-.7.9-.8 1.89-1.5 2.89-2.3.2-.2.21-.6.21-.9 0-.1-.51-.1-.81-.2.9-1 2.2-2.7 3.1-3.8.5-.3 1-.7 1-1-.1-.9.41-1.3 1.04-1.6-.46 2.2-1.8 4-3.14 4.4.4.2.8.4 1.1.3.3-.1.51-.6.71-.9l2.69-3.9.9-1.5-.4-.4c-.4.7-.79 1.3-1.19 2l-.35-.1v-.1c-.4-.3-.5-.6-.5-.7.1-.3.3-.6.5-.9.2 0 .5-.1.5-.1.4-.7.41-1.2.81-1.8-.1-.1-.21-.1-.31-.2zM225 192.4c-.2 11.4 1.1 22.6 2.6 33.9-11.3.4-22.8.8-34.4 1.2 4.5-1.9 8.2-4.6 11.6-7.7.5-.5 1-1 1.6-1.4 4.2-2.6 7.3-6.2 10.1-10.2 3.2-4.6 5.3-9.8 7.9-14.7.2-.4.4-.8.6-1.1zm14 .9c.2.4.3.7.4 1 .5-.1.7-.1.9-.2 0-.1 0-.2.1-.3-.3-.1-.7-.3-1.4-.5zm.3 1h-.1c.1 0 .2.1.2.1l-.1-.1zm-204.09.3c-.2 0-.8.3-.9.4.4 1 .91 2.1 1.31 3.1.1-.1.69-.4.79-.4-.4-1-.8-2.1-1.2-3.1zm-2.8 4.1c-.3.5-.6 1-.5 1.4 0 .3.5.6.8.9 0-.1.1-.2.2-.3-.2-.7-.3-1.3-.5-2zm267.29.1c0 .2.1.5 0 .7v-.7zM37.62 201c-.1 0-.81.3-.91.4.8 1.7 1.61 3.5 2.41 5.2.1 0 .9-.4.9-.4-.8-1.7-1.3-3.6-2.4-5.2zm-2 4c0 .4-.5.3-.5.7-.6 0-1.1-.1-1.6-.1-.1.1.29.7.39.8h2.11c0-.5-.11-.9-.11-1.4h-.29zm91.98 3.9c1.1 1.7 2.2 3.3 3.4 4.9l-.1.1c-.2-.1-.5-.2-.7-.4l-2.4-3.6c-.2-.3-.3-.6-.2-1zm111.6 5.4c-.1 1.2-.2 2.1-.2 3 0 .2.2.6.3.6.2.1.6-.1.8-.2.1-.1.2-.3.2-.4-.3-.2-.6-.3-.9-.5 1.9-1 0-1.5-.2-2.5zM65.02 270.9c1.1 1.2 2.19 2.4 3.29 3.7.3-.1.6-.1.9-.2.3.5.51 1.1.81 1.7-1.4-.1-2.11-.7-1.71-1.5-.6-.3-1.3-.5-1.6-.9-.7-.8-1.3-1.7-2-2.5l.31-.3zm194.68 18.8c-.8.2-1.4.3-1.9.5-.2.4-.4.7-.6 1.1.1 0 .2.1.3.2.6-.6 1.3-1.1 2.2-1.8zm-5.1 2.8c-1.1.7-2.3 1.4-3.4 2.1.1.1.1.2.2.3 1.4-.3 2.5-1 3.6-1.8-.1-.2-.3-.4-.4-.6zm-49 19c-4.6 1.3-6.1 1.5-6.6.8 2.3-.3 4.4-.5 6.6-.8zm-6.8.9c.1.2.1.4.2.6-.6 0-1 .2-1.5.3-1.4.3-2.9.5-4.3.7-.5.1-1.1.6-1.3-.3-.2.1-.4.1-.6.2.5 1.5 1.7.3 2.7.9-2.2.3-4.3.5-6.4.8v-.2c.6-.1 1.3-.2 1.9-.3v-.3c-1-.1-2-.2-3-.2-.3 0-.7.4-1 .5-.4.1-.8.2-1.3.2-1.7.1-3.4.1-5 .2-.1 0-.3-.1-.4-.1v-.3c6.7-.9 13.3-1.8 20-2.7zm-20.9 2.6v.3c-1.9.3-3.7.5-5.6.6v-.3c1.9-.2 3.7-.4 5.6-.6z"/></svg>