<svg xmlns="http://www.w3.org/2000/svg" viewBox="0 0 1066 825"><path d="M855 358.9H669.3V33H855z" opacity=".3"/><path d="M1033 358.9H669.3v-93.1H1033z" opacity=".2"/><path d="M985.8 358.9H669.3V126h316.5z" opacity=".2"/><path d="M891.5 358.9H669.3V69.37h222.2z" opacity=".2"/><path d="M785.4 358.9H669.3V219.1h116.1z" opacity=".3"/><path d="M669.2 265.9v93h316.7v-93z" opacity=".3"/><path d="M126.7 684.3h10.5c38.1 0 59.2-23.3 59.2-69.8 0-38.7-16.9-59.8-48.6-59.8-4.2 0-10.6.7-21.1 2.8zm0 83.1l30.9 7V792H35.8v-17.6l28.2-7V554.7H33v-17.6l73.9-22.6h19.8v25.4c34.5-21.1 46.4-24.7 64.7-24.7 40.9 0 71.9 38.1 71.9 90.9 0 60.6-41.6 102.1-104.9 102.1-7.1 0-19.1-.7-31.7-1.4m424.6-92.3c28.9-35.9 39.4-50.7 39.4-68.3 0-17.6-14-33.1-33.8-33.1-11.2 0-21.8 6.4-26.7 12V599L483 662.4V518.8h-45.1L363.3 642V518.8h-25.4l-68.3 15.5v17.6l37.3 3.5v152.8h47.2L426 589.9v118.3h52.8m231-173.9c-31.7 5.6-48.6 29.5-48.6 71.1 0 42.2 22.5 70.4 55.6 70.4 16.2 0 30.3-5.6 59.9-20.4v34.5c-36 16.9-57.1 21.1-85.3 21.1-31.6 0-54.2-7.7-71.8-26.7-18.3-18.4-28.2-42.3-28.2-69.8 0-59.8 45.1-101.4 110.6-101.4 43 0 73.3 20.5 73.3 49.3 0 19-14.1 32.4-34.6 32.4-10.5 0-19-3.5-30.9-9.8M483 358.9h186.3v46.6H483zm186.2-93v93h116.3v-93z"/></svg>