<svg xmlns="http://www.w3.org/2000/svg" viewBox="0 0 665.856 258.273"><path fill-rule="evenodd" clip-rule="evenodd" d="M205.157 170.076c-.505-9.342-5.076-21.425-11.015-27.26-6.385-6.322-14.523-11.138-22.2-5.865-4.283-4.856-8.566-9.718-12.873-14.594 4.45-.926 8.894-1.855 13.346-2.782 5.01 7.694 11.44 12.352 19.342 10.696 12.346-2.586 11.755-21.17 6.068-33.68-5.86-12.872-18.64-23.74-29.335-16.542-4.798 3.242-5.785 11.217-5.294 18.495-3.914.644-7.797 1.268-11.68 1.87-.072-5.99-.12-11.97-.172-17.977 14.562.91 15.985-20.262 8.194-33.992-5.076-9.003-14.74-17.278-23.358-17.397-7.578-.102-14.43 4.302-14.695 16.177-.222 10.013 3.248 18.276 10.53 26.422.016 6.388.027 12.792.052 19.186-4.402-4.965-8.806-9.96-13.208-14.95 4.54-23.01-13.57-40.38-27.816-44.078C79.486 30.76 66.32 36.68 65.678 54.568c-.457 12.704 7.875 25.893 15.808 31.834 7.2 5.414 20.082 9.678 25.482 4.427 4.876 5.483 9.716 10.978 14.567 16.414-5.18 1.37-10.376 2.7-15.544 4.042-5.782-8.255-15.22-15.11-27.584-15.64-14.498-.6-29.743 12.134-27.76 33.417 1.717 18.44 10.257 33.435 32.75 37.886 13.674 2.704 30.617-10.716 29.513-30.848 5.347-1.7 10.653-3.41 15.984-5.11-.463 7.487-.932 14.957-1.398 22.424-13.774 3.13-20.226 19-19.558 34.752.81 18.834 12.554 38.95 30.99 39.06 13.795.063 24.068-14.478 23.82-30.57-.226-14.675-4.106-29.003-14.475-36.235.402-7.172.802-14.356 1.193-21.512a5526.68 5526.68 0 0 1 13.638 15.38c-2.65 20.333 11.79 42.5 26.414 41.868 11.687-.53 16.388-12.453 15.64-26.082zm-17.005 19.26c-9.178-1.122-17.812-12.593-19.283-25.595-.416-3.686-.213-7.098.498-10.07-8.89-9.92-17.766-19.848-26.67-29.792a21141.49 21141.49 0 0 1-2.156 38.055c10.58 2.9 18.262 17.504 18.297 29.554.04 13.482-7.37 25.812-20.202 25.43-12.845-.385-22.13-15.994-22.15-30.314-.033-13.437 6.7-23.725 17.88-25.05.762-13.51 1.535-27 2.297-40.506-9.835 2.582-19.68 5.184-29.54 7.777.305 1.488.5 2.976.56 4.444.538 12.557-8.277 26.28-23.895 24.53-15.616-1.744-25.385-16.642-24.88-30.943.502-14.315 12.126-24.58 25.282-22.384 8.904 1.49 16.28 8.42 20.28 16.638 9.65-2.545 19.29-5.075 28.932-7.617-8.778-9.797-17.56-19.63-26.358-29.458-3.986 2.092-9.083 2.317-14.39.733-11.113-3.315-19.864-16.68-19.872-26.977 0-10.282 6.865-17.303 17.75-16.676 10.867.605 25.24 15.907 24.35 29.185-.237 3.576-1.17 6.494-2.6 8.815 8.396 9.38 16.77 18.76 25.156 28.103.64-11.363 1.29-22.743 1.93-34.11-7.263-4.678-12.256-13.237-12.204-23.242.055-11.108 9.747-14.234 18.32-10 8.58 4.234 15.846 16.948 14.767 27.02-.913 8.642-7.536 11.156-14.842 9.018-.656 11.636-1.322 23.278-1.966 34.936 9.066-2.383 18.133-4.775 27.21-7.15-2.538-10.466 1.14-18.81 8.477-18.832 7.602-.025 16.247 8.82 19.313 19.73 3.062 10.936-.605 19.845-8.196 19.893-6.01.05-12.675-5.48-16.722-13.208-8.747 2.333-17.48 4.632-26.27 6.96 8.488 9.452 16.938 18.903 25.387 28.356 2.5-3.173 6.024-4.844 10.14-4.333 9.156 1.126 17.728 12.595 19.21 25.587 1.49 12.97-4.714 22.605-13.84 21.495zM288.05 122.1v1.032c-1.1 2.893-4.493 5.89-7.77 6.07-1.69.09-3.364 1.186-3.364 2.68v21.003c0 .483-.55 1.03-1.03 1.03h-9.235c-.473 0-1.014-.536-1.014-1.03v-25.263c0-2.29 2.81-5.522 5.106-5.522h17.308zm23.07 0h-16.77c-2.86 0-6.364 3.642-6.364 6.5v19.26c0 2.876 3.986 6.055 6.857 6.055h16.767c2.754 0 6.36-3.287 6.36-6.055V128.6c0-2.975-3.868-6.5-6.85-6.5zm-9.406 3.837h2.518a2.77 2.77 0 0 1 2.763 2.765v18.612a2.77 2.77 0 0 1-2.763 2.768h-2.518a2.762 2.762 0 0 1-2.752-2.768v-18.612a2.76 2.76 0 0 1 2.752-2.765zm135.245 2.33v13.85c0 .476-.542 1.022-1.024 1.022h-17.883v3.084h6.885c3.607 0 6.746 4.138 6.746 7.192v.5h-18.482c-3.4 0-6.31-4.306-6.31-7.692v-17.958c0-3.156 3.165-6.166 6.31-6.166h17.38c2.928 0 6.377 3.25 6.377 6.166zm-18.907 11.305h7.7V127.65a2.116 2.116 0 0 0-2.11-2.116h-3.46a2.12 2.12 0 0 0-2.13 2.116v11.922zm74.33-10.194V152.1c0 .858-.97 1.815-1.838 1.815h-7.418c-.87 0-1.822-.957-1.822-1.814v-24.86c0-.863-.97-1.828-1.816-1.828h-4.296c-.832 0-1.8.965-1.8 1.828v24.86c0 .858-.95 1.815-1.813 1.815h-7.81c-.86 0-1.816-.957-1.816-1.814V129.38c0-3.547 3.71-7.794 7.27-7.794h15.88c3.547 0 7.28 4.247 7.28 7.794zm21.576-9.325h-8.442l4.902-8.22h9.47l-5.93 8.22zm23.765-9.242c.67 0 1.438.77 1.438 1.468v8.79c0 .6.86 1.032 1.453 1.032h9.068c2.973 0-3.074 7.173-6.06 7.173h-3.366c-.582 0-1.096.447-1.096 1.046v14.378c0 1.19 2.012 2.1 2.99 2.044 3.69-.244 8.727 4.052 8.727 6.29v.883h-17.29c-2.31 0-5.432-3.48-5.432-5.822V112.28c0-.7.758-1.468 1.465-1.468h8.102zm-203.528-3.072h23.336v1.015c0 2.926-3.568 6.674-6.486 6.674h-10.2c-.985 0-1.534.843-1.534 1.85v26.9c0 .84.684 2.046 1.535 2.046h10.2c3.046 0 6.505 4.138 6.505 7.192v.5h-23.356c-3.154 0-6.676-3.518-6.676-6.672v-32.838c0-3.144 3.504-6.667 6.677-6.667zm-99.572 46.177c-.474 0-1.02-.535-1.02-1.03v-43.563c0-.72.817-1.53 1.536-1.53h22.07c2.95 0 6.897 2.618 6.897 5.577v17.107c0 3.048-3.855 6.01-6.896 6.01H244.97v16.4c0 .373-.375 1.028-1.03 1.028h-9.313zm12.324-42.644c-1.136 0-2.04 1.008-2.04 2.22v16.393c0 1.206.904 2.203 2.04 2.203h4.135c1.126 0 2.038-.996 2.038-2.203V113.49c0-1.212-.912-2.22-2.038-2.22h-4.136zm114.956 10.83h7.143c1.308 0 2.388 1.074 2.388 2.377v27.135c0 1.31-1.08 2.383-2.39 2.383h-7.142a2.384 2.384 0 0 1-2.38-2.383v-27.135a2.384 2.384 0 0 1 2.38-2.377zm3.565-17.827c2.985 0 5.42 3.19 5.42 7.143 0 3.93-2.435 7.137-5.42 7.137-2.97 0-5.4-3.207-5.4-7.137 0-3.953 2.43-7.143 5.4-7.143zM397.16 122.1c3.018 0 6.963 3.525 6.963 6.5v19.26c0 2.768-3.65 6.055-6.44 6.055h-17.02c-2.922 0-6.963-3.162-6.963-6.055v-34.813a2.382 2.382 0 0 1 2.377-2.377h6.41c1.312 0 2.392 1.068 2.392 2.377v9.053h12.282zm-12.28 6.128v19.097a2.745 2.745 0 0 0 2.74 2.757h2.562c1.537 0 2.807-1.24 2.807-2.757v-18.623c0-1.525-1.27-2.765-2.807-2.765h-2.563c-1.367 0-2.513.99-2.74 2.29zm77.144-6.128h-17.285c-2.328 0-5.135 3.23-5.135 5.522v25.263c0 .494.55 1.03 1.035 1.03h9.238c.467 0 1.033-.547 1.033-1.03v-21.002c0-1.495 1.647-2.59 3.338-2.682 3.293-.18 6.67-3.175 7.775-6.068V122.1h.002zm111.785 0h23.357v1.032c0 2.904-3.572 6.663-6.482 6.663h-10.207c-.994 0-1.537.852-1.537 1.842v12.54c0 .84.682 2.047 1.537 2.047h10.207c3.045 0 6.496 4.138 6.496 7.192v.5h-23.37c-3.153 0-6.67-3.518-6.67-6.672v-18.468c0-3.148 3.517-6.676 6.67-6.676zm-18.426 0h7.134c1.31 0 2.396 1.087 2.396 2.377v27.052a2.398 2.398 0 0 1-2.396 2.385h-7.133a2.37 2.37 0 0 1-2.376-2.386v-27.053a2.375 2.375 0 0 1 2.377-2.377zm3.57-17.827c2.98 0 5.395 3.19 5.395 7.143 0 3.93-2.416 7.137-5.396 7.137-2.985 0-5.41-3.207-5.41-7.137 0-3.953 2.425-7.143 5.41-7.143zm-33.28 23.993v13.852c0 .475-.54 1.02-1.014 1.02H506.79v3.086h6.87c3.615 0 6.74 4.138 6.74 7.192v.5h-18.478c-3.393 0-6.303-4.306-6.303-7.692v-17.958c0-3.156 3.165-6.166 6.302-6.166h17.4c2.907 0 6.348 3.25 6.348 6.166zm-18.88 11.306h7.69V127.65a2.12 2.12 0 0 0-2.12-2.116h-3.468a2.11 2.11 0 0 0-2.103 2.116v11.922zm91.01 8.182v-9.49c0-2.734 3.74-5.752 6.49-5.752h12.395v-3.082h-6.86c-3.61 0-6.75-3.78-6.75-6.82v-.51h18.47c3.4 0 6.31 4.297 6.31 7.694v17.96c0 3.146-3.155 6.16-6.31 6.16h-17.373c-2.908 0-6.373-3.25-6.373-6.16zm18.886-11.302h-7.69v11.933c0 1.17.95 2.108 2.128 2.108h3.45a2.11 2.11 0 0 0 2.112-2.108v-11.933z"/></svg>