<svg xmlns="http://www.w3.org/2000/svg" viewBox="0 0 298.4 211.25"><path d="M71.7 187.75c-1.29-1.3-1.73-2.96-1.4-5.2 2.63-17.37 10.66-84.95 10.16-85.45-.78-.77-10.35 3.94-16.36 8.06-5.49 3.77-10.91 9.26-12.92 13.11-3.9 7.44 1.14 12.46 8.94 8.91l4.01-1.84-2.99 2.7c-2.31 2.07-4.14 2.69-8.03 2.69-11.23 0-15.5-9.36-9.52-20.83 4.07-7.8 18.31-17.84 32.46-22.91 6.49-2.32 6.61-2.44 7.84-7.58 1.2-4.97 5.96-11.62 8.33-11.62 2.54 0 4.45 3.53 4.45 8.21v4.86l3.46-.7c15.27-3.1 25.12-3.16 30.84-.2 2.58 1.34 3.2 1.17 8.17-2.3 8.99-6.26 9.87-4.52 7.48 14.82-1.15 9.25-1.1 10.57.54 13.06 2.44 3.73 6.13 3.58 10.68-.42 6.36-5.57 7.52-9.45 6.55-21.8-1.41-17.91-1.28-22.07.73-23.34 1.28-.81 2.57-.78 4.53.12 2.74 1.24 2.75 1.28 2.79 14.87.11 14.09 1.03 22.05 2.95 23.97.76.76 2.46-.18 5.47-3.02l4.38-4.13-1.71-8c-1.01-4.67-1.78-13.76-1.87-21.86-.19-17.19 1.66-24.51 7.8-30.65 3.62-3.62 4.35-3.94 6.66-2.89 8.82 4.02 9.64 26.03 1.83 49.32-3.7 11.08-3.76 11.61-1.16 13.95 3.41 3.09 8.33 3.97 10.75 1.92 2.14-1.81 2.66-5.12 5.16-32.61.95-10.39 2.76-12.31 7.44-7.83l3 2.88 4.76-2.38c6.96-3.47 17.93-3.38 21.72.18 3.77 3.55 5.31 8.66 4 13.39-1.03 3.7-.97 3.78 2.01 3.78 6.26 0 13.57 2.3 17.15 5.38l3.62 3.13-5.27-2.26c-3.61-1.55-7.73-2.3-13.04-2.39-7.17-.11-7.91.1-9.56 2.54-3.84 5.73-13.5 13.82-21.19 17.75-5.13 2.62-8.26 4.9-8.58 6.25-2.35 9.88-4.75 29.78-4.77 39.47 0 6.46-.32 12.86-.68 14.22-.84 3.13-4.81 4.73-8.39 3.38-5.24-1.99-5.33-4.25-1.17-28.44 3.37-19.53 4.68-31.29 3.48-31.29-.2 0-1.93.78-3.84 1.74-4.44 2.2-10.61.62-13.92-3.58l-2.24-2.85-5.59 6.25c-4.79 5.35-5.98 6.15-8.3 5.56-1.51-.37-3.32-1.98-4.07-3.63-1.33-2.84-1.42-2.87-2.59-.83-2.7 4.77-12.34 13.23-16.49 14.47-11.62 3.49-15.79-5.45-10.86-23.27 2.53-9.11 2.59-9.86.7-9.86-2.23 0-4.96 3.62-4.96 6.58 0 1.47-1.44 5.56-3.21 9.1-3.26 6.52-8.96 12.21-21.33 21.3-4.44 3.26-18.44 12.12-19.93 12.6-.11 0-.99 6.92-1.95 15.3-1.45 12.59-1.53 16.87-.51 24.74.68 5.21.96 10.35.62 11.4-.88 2.79-4.37 4.62-10.11 5.29-3.97.47-5.45.19-6.95-1.29zm27.31-69.14c15.04-9.06 29.66-22.38 29.66-27.03 0-1.88-.27-1.73-12.8 7.68-5.57 4.18-13.13 9.44-16.8 11.69-4.15 2.53-5.06 3.48-6.23 4.95-.59 2.07-.73 3.68-1.09 4.61-.96 2.51.65 2.08 7.26-1.9zm5.42-16.05c11.71-6.67 23.39-15.77 22.03-17.14-2.51-2.49-25.52 1.37-29.26 4.92-1.63 1.55-3.61 16.92-2.18 16.92.64 0 4.88-2.11 9.41-4.7zm129.19-20.18c5.1-4.75 3.24-4.47-6.55 1-4.74 2.64-6.67 4.34-6.67 5.87 0 2.1.11 2.09 4.42-.32 2.43-1.36 6.39-4.31 8.8-6.55zm-1.48-3.77c8.28-4.19 10.57-5.89 12.51-9.31 2.95-5.17 3.02-7.31.29-10.04-3.07-3.06-9.97-2.8-16.86.63l-5.54 2.76v6.57c0 3.62-.31 8.37-.68 10.57-.36 2.2-.48 3.99-.25 3.98.22 0 4.97-2.34 10.54-5.16zm-33.59-11.35c2.31-6.78 3.46-27.97 1.69-31.27-1.97-3.69-5.29-2.94-7.2 1.62-4.2 10.06-4.02 27.39.38 34.09 2.04 3.13 2.75 2.52 5.13-4.44zM39.08 86c-4.59-1.86-12.81-8.64-12.81-10.57 0-.51 2.28-.77 5.06-.57C47.89 76 56.2 76 55.82 74.86c-.26-.79-5.49-1.3-15.51-1.49-8.87-.18-15.11-.73-15.11-1.34 0-.57.9-1.04 2-1.04s4.82-1.25 8.27-2.79c13.71-6.12 15.83-5.69 27.6 5.62 7.93 7.63 8.34 8.24 5.86 8.63-1.46.24-6.41 1.59-10.98 3.02-9.81 3.05-12.47 3.13-18.87.53zm24.66-17.13c-5.4-4.69-11-8.82-12.43-9.18-2.63-.66-8.17-.17-13.47 1.19-2.48.63-3.35.1-7.12-4.71C25.28 49.29 22 40.6 22 33.09c0-6.3.73-7.02 3.75-3.67 1.08 1.18 6.79 5.46 12.7 9.5 5.91 4.05 12.89 9.56 15.51 12.25 5.41 5.56 6.44 5.94 6.44 2.33 0-3.22-5.02-7.71-14.6-13.04-11.22-6.23-22.73-15.06-22.73-17.43 0-1.47.69-1.39 3.5.4 1.3.83 7.64 2.56 14.1 3.83 13.15 2.61 19.16 4.91 22.59 8.66 1.29 1.39 3.59 6.86 5.11 12.14 2.83 9.76 6.4 28.12 5.62 28.9-.24.24-4.85-3.4-10.25-8.09z"/></svg>