<svg xmlns="http://www.w3.org/2000/svg" viewBox="0 0 737.88 245.25"><path d="M705.93 151.97c6.13 0 9.95 4.48 9.95 10 0 5.53-3.81 10-9.95 10-6.13 0-10-4.48-10-10s3.87-10 10-10zm0 17.79c5.03 0 7.62-3.54 7.62-7.79s-2.6-7.79-7.62-7.79c-5.08 0-7.68 3.54-7.68 7.79 0 4.26 2.6 7.79 7.68 7.79zm.34-6.46h-1.88v3.04h-1.55v-9.17h3.59c2.04 0 2.87.88 2.87 2.43v1.27c0 .88-.28 1.6-1.33 2.15l2.43 3.32h-1.88zm.11-4.7h-1.99v3.26h1.99c.99 0 1.33-.39 1.33-1.05v-1.1c0-.89-.39-1.11-1.33-1.11zm8.38-22.02c-4.84 2.05-14.14 3.53-19.9 3.53-16.55 0-24.92-7.81-24.92-23.99V65.71h-13.58V47.67h13.58V25.16L692.63 22v25.67h23.25l-1.49 18.04h-21.76v47.43c0 4.84 2.23 8 8.18 8 3.35 0 7.44-.74 11.35-1.86zm-97.65-15.07c8.74 0 17.86-1.3 27.71-4.28l3.53 17.11c-10.23 3.91-22.51 5.77-33.29 5.77-28.46 0-38.32-13.21-38.32-34.97V81.15c0-19.16 8.56-35.34 37.57-35.34 29.02 0 35.53 16.93 35.53 36.46v19.34h-50.41v4.65c0 10.97 3.92 15.25 17.68 15.25zm-17.67-38.13h28.83v-4.46c0-8.56-2.6-14.51-13.76-14.51s-15.07 5.95-15.07 14.51zm-33.47 24.74c0 20.09-8.93 31.99-29.95 31.99-8 0-17.11-1.12-24.18-2.6v37.39l-22.69 3.16V47.67h18.04l2.23 7.63c8-5.77 17.3-9.49 28.64-9.49 18.23 0 27.9 10.79 27.9 31.43v30.88zm-54.13 10.23c5.95 1.3 13.58 2.42 20.09 2.42 8.18 0 11.35-3.91 11.35-12.09V76.69c0-7.44-2.79-11.53-11.16-11.53-7.44 0-15.44 3.72-20.28 8.18zm-33.85-10.23c0 20.09-8.93 31.99-29.95 31.99-8 0-17.11-1.12-24.18-2.6v37.39l-22.69 3.16V47.67h18.04l2.23 7.63c8-5.77 17.3-9.49 28.64-9.49 18.23 0 27.9 10.79 27.9 31.43v30.88zm-54.13 10.23c5.95 1.3 13.58 2.42 20.09 2.42 8.18 0 11.35-3.91 11.35-12.09V76.69c0-7.44-2.79-11.53-11.16-11.53-7.44 0-15.44 3.72-20.27 8.18v45.01zm251.86 102.07c-4.99 0-11.81-1.15-16.13-2.69l1.63-8.93c3.94 1.15 9.12 2.02 13.92 2.02 5.18 0 5.95-1.15 5.95-4.7 0-2.88-.58-4.32-8.16-6.14-11.42-2.78-12.77-5.66-12.77-14.69 0-9.41 4.13-13.54 17.47-13.54 4.32 0 9.98.58 14.01 1.63l-1.15 9.31c-3.55-.67-9.21-1.34-12.86-1.34-5.09 0-5.95 1.15-5.95 4.03 0 3.74.29 4.03 6.62 5.66 13.05 3.46 14.3 5.18 14.3 14.78 0 9.03-2.77 14.6-16.88 14.6zm-19.78-18.92c0 11.33-3.45 18.91-21.5 18.91-4.7 0-12.29-.48-18.14-1.63V153.6l11.71-1.63v22.56c3.46-1.44 8.74-2.78 13.82-2.78 10.08 0 14.11 6.14 14.11 16.03zm-27.93 8.55c2.11.29 4.51.38 7.01.38 7.68 0 9.21-3.07 9.21-8.54v-14.4c0-3.74-1.63-5.76-5.95-5.76-3.26 0-7.39 1.34-10.27 2.69zm-18.43 9.41h-9.6l-.86-3.17c-4.22 2.78-9.22 4.13-13.92 4.13-8.54 0-12.19-5.86-12.19-13.92 0-9.5 4.13-13.15 13.63-13.15h11.23v-4.9c0-5.18-1.44-7.01-8.93-7.01-4.22 0-8.83.58-12.96 1.44l-1.44-8.93c4.42-1.34 10.85-2.21 16.03-2.21 14.69 0 19.01 5.18 19.01 16.9zm-11.71-17.67h-8.64c-3.84 0-4.9 1.06-4.9 4.61 0 3.26 1.06 4.7 4.7 4.7 3.46 0 6.62-1.15 8.83-2.4v-6.91zm-42.34 17.67v-65.85l11.71-1.63v67.48zM334.76 51.01v63.24c0 4.84 2.05 7.25 7.25 7.25 5.58 0 15.44-3.35 23.62-7.63V51h22.69v90.58h-17.29l-2.23-7.63c-11.35 5.58-25.67 9.49-36.27 9.49-15.07 0-20.46-10.6-20.46-26.79V50.99h22.69zm-32.92 60.45c0 20.09-8.93 31.99-29.95 31.99-8 0-17.11-1.12-24.18-2.6v37.39l-22.69 3.16V51.01h18.04l2.23 7.63c8-5.77 17.3-9.49 28.64-9.49 18.23 0 27.9 10.79 27.9 31.43v30.88zm-54.13 10.23c5.95 1.3 13.58 2.42 20.09 2.42 8.18 0 11.35-3.91 11.35-12.09V80.03c0-7.44-2.79-11.53-11.16-11.53-7.44 0-15.44 3.72-20.27 8.18v45.01zm-107.59 60.07c-3.03 3.38-8.22 3.68-11.61.66a8.237 8.237 0 0 1-.66-11.62 8.227 8.227 0 0 1 11.62-.65c3.39 3.03 3.67 8.23.65 11.61zm-38.99-1.59c-3.03 3.39-8.23 3.68-11.61.65a8.227 8.227 0 0 1-.65-11.62c3.02-3.39 8.23-3.68 11.62-.65 3.38 3.03 3.67 8.24.64 11.62zm21.6-33.53a8.227 8.227 0 0 1-11.62.65c-3.39-3.03-3.68-8.24-.65-11.62 3.03-3.38 8.23-3.67 11.62-.65 3.39 3.03 3.67 8.23.65 11.62zm12.7 12.74s8.5 3.59 9.82 8.82c0 0 9.12-35.05-25.65-45.53 0 0-13.46-2.45-19.72 1.74l.96 3.5s23.35-8.1 33.77 15.48c0 0 2.04 6.32.82 15.99zm-33.83-9.96s-.84-9.19 3.15-12.81c0 0-35.21 8.45-28.09 44.07 0 0 4.18 13.02 10.82 16.58l2.64-2.49s-18.14-16.79-2.25-37.09c0 0 4.62-4.78 13.73-8.26zm7.69 34.16s-7.41 5.49-12.58 3.98c0 0 25.56 25.65 52.25 1.01 0 0 8.94-10.35 8.52-17.87l-3.5-.95s-4.88 24.23-30.48 21.23c0 0-6.5-1.44-14.21-7.4zm-.88-126.71V36.51H98.03v8.56zm102.74 152.26c-.1-.29-.17-.56-.26-.84l-.1-.2-.47-1.4h-1.47l-13.9.1H48.18c-2.54 4.26-6.89 11.6-9.77 16.46H199.5c1.88 0 3.68-.37 5.35-1.11l.7-.3.33-.68 5.13-10.6.32-.66zM83.7 28.85L98 45.11h29.95v51.91l.25.23 59.94 103.82h19L145.43 94.19V43.16l8.3-14.31zm6.18 61.79l-66.4 114.88c-.52.9-.94 1.85-1.25 2.83l-.23.75.33.72 5.24 11.37.34.74.76.31c.76.3 1.5.49 2.12.62l1.47.33.76-1.29 4.24-7.22 2.74-4.84 66.96-115.98 1.78-3.21H89.88z"/></svg>