<svg xmlns="http://www.w3.org/2000/svg" viewBox="0 0 298.71 100.67" version="1"><path d="M92.553 73.95c-2.286-.6-3.234-1.05-4.354-2.07-.64-.57-1.28-.74-3.577-.9-4.295-.3-6.72-1.09-8.838-2.88-2.424-2.05-2.95-5.84-1.277-9.18 2.087-4.15 5.97-7.78 11.05-10.31 4.007-2 7.307-2.81 12.436-3.04 6.516-.3 10.116.53 12.336 2.82 2.54 2.64 2.13 6.7-1.15 11.32-2.41 3.4-5.22 5.68-9.898 8.04l-2.443 1.23.662.67c.544.55 1.147.7 3.378.82l2.71.16-1.87 1.45c-3.156 2.44-5.33 2.88-9.167 1.87zm-1.246-9.57c2.343-1.22 5.752-5.2 7.795-9.11 1.238-2.36 1.208-3.15-.165-3.73-3.296-1.38-7.176.6-11.278 5.76-3.295 4.14-3.732 6.67-1.326 7.66.82.33 3.905 0 4.973-.58zm159.253 5.89c-2.14-.28-4.54-.82-6.1-1.39-2.51-.91-3.9-1.66-3.58-1.92.1-.1 1.44-1.21 3.03-2.52l2.87-2.39 1.33.58c2.12.91 8.78 1.92 10.81 1.64 3.94-.55 3.24-1.42-2.78-3.47-5.23-1.78-7.15-3.13-7.81-5.5-.71-2.57.42-4.98 3.22-6.89 2.34-1.59 5.59-2.5 10.47-2.94 3.87-.35 4.49-.33 7.93.27 2.06.36 4.47.87 5.37 1.14 1.9.56 1.87.85-.21 2.74-1.86 1.69-3.14 1.95-8.92 1.85-4.28-.1-5.06 0-5.42.4-.63.77 0 1.18 3.74 2.33 8.03 2.51 10.28 4.6 9.13 8.5-.85 2.87-3.55 5.19-7.58 6.51-4.72 1.54-9.26 1.85-15.5 1.06zm-142.35-4.09c2.24-2.2 6.3-6.27 9-9.06 6.6-6.79 9.45-8.86 14.22-10.34 3.62-1.12 6.46-1.4 10.32-1.01 1.92.19 3.54.4 3.59.46.1.1-.95 4.66-2.24 10.22-1.3 5.56-2.54 10.89-2.76 11.84l-.4 1.71-5.63.1-5.64.1.44-1.65c.24-.91.44-1.83.44-2.04 0-.3-1.27-.39-5.37-.39h-5.37l-2 2.03-2.01 2.03h-10.68l4.09-3.98zm23.93-9.82c.47-1.91.78-3.55.7-3.64-.45-.44-7.95 6.04-7.95 6.87 0 .14 1.44.25 3.2.25h3.2zm15.12 4.81c5.54-9.54 7.16-11.71 10.01-13.43 1.92-1.15 4.74-1.96 6.82-1.96h1.43l2.62 5.93c1.44 3.27 2.7 5.94 2.79 5.94.1 0 1.15-1.71 2.33-3.82 1.19-2.1 2.54-4.25 2.99-4.78 1.15-1.33 3.48-2.53 5.68-2.93 2.23-.41 6.18-.45 6.03-.1-.1.16-3.18 5.64-6.94 12.19l-6.84 11.9h-9.66l-2.59-5.78c-1.43-3.18-2.63-5.79-2.69-5.79-.1 0-1.59 2.61-3.41 5.79l-3.32 5.78h-10.47l5.22-8.99zM186.77 70c0-.1 2.11-3.83 4.68-8.31 2.57-4.47 4.76-8.33 4.85-8.58.15-.39-.58-.46-4.83-.46-3.29 0-5.01-.11-5.01-.32 0-.18.47-1.07 1.05-1.98 1.3-2.05 3.65-3.62 6.23-4.16 2.14-.45 27.86-.6 27.86-.16 0 .43-1.75 2.99-2.53 3.71-1.56 1.45-4.18 2.34-7.64 2.62-1.8.14-3.34.33-3.42.4-.1.1-2.34 3.99-5.04 8.69L198.06 70l-5.64.1c-3.11.1-5.65 0-5.65-.1zm26.39-9.45c5.36-5.29 10.6-10.21 11.65-10.94 2.5-1.73 6-3.08 9.56-3.7 2.39-.41 3.46-.44 6.61-.15 2.06.19 3.77.38 3.8.41 0 0-1.21 5.46-2.76 12.03l-2.82 11.96h-5.56c-5.15 0-5.54 0-5.39-.55.1-.3.25-.97.36-1.48.11-.52.26-1.19.34-1.49.14-.5-.26-.54-5.4-.54H218l-2 2.03-2 2.03h-10.57zm17.73-1.88c1-3.83 1.55-6.16 1.47-6.24-.26-.27-3.19 2.12-5.63 4.58l-2.79 2.83h6.65zM22.002 59.85V41.06l.475.99c.688 1.43 1.295 2.25 2.675 3.6 1.456 1.42 1.832 1.71 4.16 3.2l2.742 1.76c4.047 2.64 5.917 4.95 6.897 8.54.25.91.297 1.28.34 2.65.05 1.51-.03 2.42-.322 3.77-.05.24-.03.27.22.27.495 0 2.85.38 3.883.63 3.827.91 6.96 2.31 10.585 4.74 1.804 1.21 3.547 2.65 5.635 4.66.948.91 1.093 1.01 1.147.84.205-.64-.87-2.45-2.344-3.94-2.574-2.59-6.144-5.02-10.307-7-2.85-1.36-3.677-1.87-4.564-2.83-.698-.75-1.015-1.4-1.016-2.08 0-.73.228-1.22.755-1.6.92-.67 2.105-.64 2.8.1l.327.33-.374.16c-.306.13-.557.15-1.372.1l-.996-.1.03.23c.08.58 1.9.86 3.063.47 1.22-.42 2.578-1.33 4.405-2.96.426-.38.87-.74.987-.8.116-.1.892-.19 1.722-.29 1.087-.12 1.622-.22 1.91-.37.402-.21.652-.52.55-.68-.09-.14-1.58-1.11-2.163-1.4-1.027-.52-2.61-1.1-4.152-1.53-.86-.24-1.58-.42-1.6-.4-.08.1.167.76.39 1.05.28.37 1.148.83 1.695.9.215 0 .39.1.39.1 0 .1-.403.64-.664.92-.308.34-1.215.81-1.712.89l-.37.1-.616-.8c-2.272-2.96-4.36-4.85-7.414-6.73-1.897-1.16-3.388-1.84-7.265-3.31-4.613-1.75-4.857-1.84-5.917-2.39-2.058-1.06-3.23-2.12-3.98-3.62-.652-1.3-.656-1.37-.62-9.84l.03-7.39 4.28 3.95c2.356 2.17 4.352 3.98 4.437 4.02.09 0 2.23 1.97 4.763 4.3 2.535 2.34 7.856 7.22 11.825 10.87 3.97 3.64 7.52 6.94 7.89 7.32.37.39 6.866 6.38 14.433 13.33 7.568 6.94 13.823 12.68 13.9 12.75.12.11-4.676.13-30.717.13H22V59.89z"/></svg>