<svg xmlns="http://www.w3.org/2000/svg" viewBox="0 0 624.98 148.54"><path d="M47.88 66.906c0-19.05 10.12-33.034 26.04-33.034 7.14 0 13.98 2.975 18.45 7.734 5.95 6.4 8.93 17.56 8.48 28.57-.74 22.02-14.14 30.954-26.64 30.954-12.34 0-26.33-9.234-26.33-34.224m88.51 42.144l-15.83-13.414a59.524 59.524 0 0 0 6.62-27.25c0-7.14-2.08-42.1-34.22-53.257C86.57 12.894 80.02 12 73.77 12 40 12 22 38.926 22 67.356c0 30.34 18.89 55.944 52.21 55.944 10.41 0 21.75-2.39 31.71-10.03l15.65 13.27 14.82-17.49m92.21-93.775h22.47v54.01l25.14-26.63h27.52l-26.77 27.67 30.2 49.995h-26.48l-19.94-33.484-9.82 9.23v24.254H228.6zm-41.32 27.23h22.61v77.815h-22.61zm0-27.38h22.61v17.708h-22.61zm-18.7 105.195h-22.92V15.275h22.92zm386.98-70.184l16.65 52.074 18.33-52.074h12.44l-25.7 70.084h-10.43L550 67.986l-17.08 52.234h-10.86l-24.41-70.084h12.78l17.56 52.074 17.28-52.074zm-75.59 28.41c-1.07-18.44-14.29-21.57-20.09-21.57-10.11 0-18.6 7.44-19.96 21.57zm12.94 20.09c-1.63 4.764-7.91 23.664-31.7 23.664-20.82 0-34.38-14.13-34.38-37.794 0-26.49 19.06-36.6 33.94-36.6 12.93 0 26.62 7.14 30.8 24.84 1.34 5.95 1.34 11.31 1.34 14.29h-53.28c-.33 11.75 5.96 26.344 22.63 26.344 10.55 0 16.51-7 18.6-16.384l12.05 1.64m-79.27 21.574h-11.47V50.126h11.47zm0-91.354h-11.47v-13.69h11.47zM379.5 15.17h14.88l-37.05 105.05h-13.99L307.93 15.17h14.88l27.82 87.79z"/></svg>