<svg xmlns="http://www.w3.org/2000/svg" viewBox="2 0 280 240"><path d="M68.42 89.91c.93 1.11 2.42 1.11 4.02 1.37 8.64.81 25.07 1.07 36.96 1.07h11.3c8.4 0 17.2 0 25.6.3 2.2 0 4.3 0 6.2.54 2.2.54 3.7 1.34 5.9 2.47 1 .54 2.2 1.07 3 1.73 1.1.53 2.1 1.34 3.2 1.87 1.5.84 3.2 1.94 5.4 2.44 1.7.5 3.2.5 4.8.5h1.1c5.7 0 13.5-.3 18.5-.7.5 0 1 0 1.3-.3.3-.3.3-.5.4-1 0-.82.3-1.59.4-2.37 0-.65.3-1.28.3-1.9.3-1.19.6-2.41 1.7-3.34 1.1-.83 2.5-.95 3.4-1.04 1.1 0 2.2-.3 3.2-.3 1.4 0 2.7-.29 3.9-.32 1.7-.3 3.1-.39 4-1.31 1.1-.93 1.2-2.27 1.3-3.87.5-7.39.7-23.22.3-31.14 0-1.94-.3-3.72-1.6-4.97-1.2-1.17-2.9-1.4-4.9-1.58-12.8-1.01-47.7-1.19-67.3-1.19-19.6 0-54.48.29-67.25 1.19-1.97.38-3.61.38-4.95 1.72-1.25 1.25-1.49 3.07-1.57 4.89-.48 7.92-.3 23.66.29 31.11 0 1.75.3 3.09 1.05 4.13zm7-30.12c0-1.55.3-3.34 1.52-4.65 1.34-1.43 3.15-1.52 4.49-1.57 10.81-.54 38.27-.66 59.37-.66 21.1 0 48.5 0 59.3.66 1.3 0 3.3.29 4.6 1.57 1.2 1.34 1.3 2.95 1.6 4.59v10.54c0 1.25 0 3.21-1.5 4.61-1.3 1.4-3.2 1.52-4.5 1.64-10.6.53-38.1.62-59.4.62-21.3 0-48.84 0-59.38-.62-1.34 0-3.15-.3-4.52-1.61-1.31-1.4-1.4-3.33-1.43-4.61-.3-2.71-.3-7.83-.3-10.66zM40.7 111.1c3.82 4.1 9.15 4.6 13.46 5 11.56 1 25.61 1.9 43.11 2.4 13.23.3 27.43.5 43.33.5 16 0 30.1-.3 43.3-.5 17.6-.5 31.7-1.2 43.3-2.4 4.6-.4 9.8-.9 13.6-4.9 3.6-3.8 4.4-9.3 4.8-14.05 1-11.37 1.3-34.21.6-46.06-.3-4.55-.9-9.31-4.2-12.66-3.2-3.3-7.6-3.84-12.3-4.14-17.6-1.12-63.4-1.29-89.1-1.29-25.6 0-71.34.17-88.97 1.29-4.52.15-8.92.69-12.15 4.06-3.31 3.37-3.78 8.22-4.05 12.8-.75 11.85-.48 34.75.54 46.06.31 4.59 1.08 9.99 4.85 13.89zm13.41-56.67c.29-2.74.5-5.9 2.88-8.25 2.21-2.2 5.15-2.66 8.01-2.93 13.4-1.26 48.6-1.53 75.8-1.52 27.2 0 62.5.26 75.7 1.61 2.8.26 5.7.81 8.1 2.93 2.4 2.41 2.7 5.39 3 8.25.4 8.1.3 26.26-.4 34.23-.3 2.09-.5 4.29-2.3 5.99-1.6 1.66-3.7 2.08-5.8 2.32-2.5.33-5.1.51-7.6.8-1.2 0-2.5.3-3.8.3-.6 0-.9 0-1.1.36-.3.3-.4.71-.5 1.34 0 .64-.3 1.44-.4 2.04-.3 1-.4 2.1-.6 3.1-.3 1-.5 2.2-1.7 3-1 .8-2.2.8-3 .9-9.4.8-22 1.1-30 1.1H169c-2.1 0-4 0-6.3-.7s-4.2-1.8-5.8-2.7c-1.3-.8-2.5-1.5-3.7-2.2-1-.6-2.1-1.3-3.2-2-1.9-1.1-3.4-1.8-5.2-2.3-1.8-.48-3.7-.57-5.6-.57-8-.3-16-.3-23.9-.33-4.7 0-9.5 0-14.2-.3-12.19 0-29.22-.32-38.36-1.45-2.09-.3-4.29-.66-5.96-2.42-1.69-1.78-2.02-4.04-2.23-6.19-.68-8.06-.8-26.4-.53-34.44zM183.4 203.8c-1.1 0-1.5-.6-1.5-1.2v-2.8c0-1.6-1.3-2.8-3.5-2.8h-18l-.3.4v1.4l.3.4h15.1c1.1 0 1.6.5 1.6 1.4v3.2c0 1.1.8 2.2 2.7 2.1h4.9l.3-.4v-1.4l-.3-.3h-1.3zm-33.2-6.1c.3.2.6.2.9.2h3.8c.3 0 .3 0 0-.2 0 0-1.7-1.2-2.7-2-1-.9-1.4-1.4-1.7-1.6l-.9-.4h-3.8c-.3 0-.4.3-.3.3 0 0 1.1 1.1 2.4 2.2 1.3 1.2 2.1 1.7 2.1 1.6zm1.5-8c-.3-.4-.5-.4-.8-.4h-3.8c-.3 0-.4.3-.3.3 0 0 1 1.1 2.4 2.3 1.3 1.1 2.7 1.9 2.7 1.9l.8.3h3.8c.4 0 .4-.3 0-.3 0 0-1.8-1.3-3-2.2-.9-1.1-1.4-1.6-1.7-1.9zm11.7 5.9h15.4l.5-.3V194l-.5-.3h-15.4l-.3.3v1.3zm18.9-3.5v-1.4l-.3-.4h-18.9c.3-.5.3-1 .3-1.3l-.3-.3h-3l-.4.3c0 2-.9 4.3-2.5 5.7l-.3.4v1.3l.4.4c3.1-.8 4.8-4.1 4.9-4.4H182l.3-.3zm-28.6 6.7c-.4 0-.7 0-1 .4-.3.3-.9 1.2-2.5 2.6-2 1.9-4.1 3.4-4.1 3.4-.3.3-.3.3 0 .3h4.2c.4 0 .7 0 1-.3 0 0 1.4-.9 3.2-2.8 1.7-1.7 2.8-3.1 2.8-3.1.3-.3 0-.5-.3-.5h-3.4zm59.1 1.9v-2.2h13.6l.4-.3v-1.4l-.4-.4h-13.6v-2.1l-.3-.4h-4.3l-.3.4v2.1h-9.6c2.1-.8 4.3-2.3 5.8-3.7h23.2l.4-.3v-1.5l-.4-.4h-21.1c.6-.7 1-1.2 1.1-1.4l-.3-.4h-4.6l-.5.3c0 .3-.6.8-1.2 1.5h-8.9l-.3.3v1.5l.3.4h6.7c-1.6 1.4-3.6 2.8-5.9 3.7l-.3.4v1.4l.4.3h15.1v2.2h-17.9l-.3.3v1.5l.3.3h17.9v3l.4.4h4.2l.3-.4v-3h16l.4-.3V201l-.4-.4h-16zm-120.56 1.4l-.36.4v.7c0 .4-.33.7-1.07.7h-2.08c-.75 0-1.07-.3-1.07-.7v-3.8l-.36-.4h-2.47c.71-1.3 1.13-2.8 1.13-4.6v-1.5l-.36-.3h-3.21l-.36.3v1.1c0 4.7-3.72 8.6-9.88 9.8l-.36.3v1.4l.36.4c2.35 0 8.27-1.3 11.58-5.2v3.2c0 1.1 1.07 1.9 2.94 2h6.05c2.05 0 3-.8 3-2v-1.4l-.33-.4h-3.15zm9.56-12.8l-.3.3v1.5l.3.4h3.9l-3.5 3.3v1.7l.3.4h7.1v2h-6.5l-.4.3v1.5l.4.4h6.5v2.4h-7.4l-.3.4v1.5l.3.3h15.9c1.9 0 3-.9 3.1-2h-7.6v-2.5h6.5l.4-.3v-1.5l-.4-.4h-6.5v-2h2.7c3.5 0 5.1-1.7 5.1-3.6v-.4l-.3-.3h-3.2l-.4.3v.4c0 .8-.7 1.5-2.2 1.5h-8.6l3.4-3.3h11l.3-.4v-1.4l-.3-.4H102zm27 1c.3-.4.3-.9.3-1.2l-.4-.4h-2.9l-.4.4c-.4 2.1-1 4.7-3.9 7.1l-.3.3v1.4l.4.4c1.4-.5 2.5-1.3 3.5-2.2.9 1.4 2.1 3 3.8 4.3-2.2 1.7-4.5 2.8-6.5 3.3l-.4.4v1.4l.4.2c3.5-.5 6.4-1.7 8.8-3.6 2.4 1.7 5.4 3 9.4 3.6l.5-.3V204l-.4-.4c-2.6-.6-5.1-1.8-7.2-3.5 2.1-2.2 3.7-4.8 4.8-7.7h2.4l.4-.3v-1.4l-.4-.4h-12zm2.3 7.8c-1.6-1.5-2.8-3.2-3.6-4.9l.4-.8h6.5c-.8 2.4-2 4.3-3.3 5.7zm-58.6 4l-4.28-3.6c1.96-2.4 3.21-5 3.66-7.4v-.5l-.36-.4h-14.5l-.38.3v1.4l.38.4h10.63c-.48 1.3-1.16 2.7-2.05 3.9l-2.83-2.4-.87-.3h-3.6v.3s2.98 2.4 5.39 4.6c-1.99 1.9-4.43 3.4-6.85 4.1l-.35.4v1.4l.41.3c3.78-.6 6.88-2.2 9.29-4.2 1.04.8 1.88 1.6 1.88 1.6l.86.3H72.8zm17.83-2.3l.3.3c2.47 0 3.81-.7 3.81-1.6v-6.2c0-1.9-1.64-3.5-5.12-3.5H78.81c-3.45 0-5.09 1.6-5.09 3.5v7l.39.3h3.19l.35-.3v-6.9c0-.8.69-1.4 2.18-1.4h8.54c1.46 0 2.14.5 2.14 1.4v7.5zm153.37-38.4h-23.9c-2 0-2.8-.8-2.8-1.8 0-1.1.8-1.9 2.8-1.9h29.8l.3-.3c0-1.4-1.5-2.5-3.9-2.5h-27.4c-4.6 0-6.8 2-6.8 4.5s2.2 4.6 6.8 4.6h23.9c1.9 0 2.7.8 2.7 1.9 0 1.1-.9 1.9-2.9 1.9h-29.7l-.4.4v1.8l.4.4h31.1c4.6 0 6.7-1.9 6.7-4.5 0-2.4-2.1-4.6-6.6-4.5zm-179.74 9.4c1.04.8 1.9 1.4 1.9 1.3.3.3.51.3.81.3h5.39l.29-.3-2.73-1.9c4.04-.9 4.82-2.8 4.82-6v-2.6c0-5.1-1.91-6.8-15.72-6.8h-7.8c-13.8 0-15.71 1.7-15.71 6.7v2.7c0 5.1 1.88 6.7 15.62 6.8h7.86c2.11.3 3.81 0 5.45 0zm-15.78-2.5c-6.91 0-7.86-.9-7.86-3.4v-4.2c0-2.5.94-3.4 7.86-3.4h13.07c6.94 0 7.8.8 7.8 3.5v4.2c0 1.7-.39 2.6-2.62 3.1l-2.35-1.6c-.33-.3-.63-.3-.87-.3h-5.38v.3s1.34.8 2.68 1.8H48.3zm142.92 2.6c13.9 0 15.8-1.7 15.8-6.8v-2.6c0-5.1-1.9-6.8-15.8-6.8h-7.8c-13.8 0-15.7 1.7-15.7 6.8v2.6c0 5.1 1.9 6.7 15.6 6.8h7.9zm-18.3-6v-4.2c0-2.5 1-3.4 7.9-3.4h13.1c6.9 0 7.8.8 7.8 3.4v4.2c0 2.5-.9 3.4-7.9 3.4h-13.1c-6.8 0-7.7-.7-7.7-3.4zm-70 6c13.8 0 15.7-1.7 15.7-6.8v-2.6c0-5.1-1.9-6.8-15.7-6.8h-7.85c-13.78 0-15.69 1.7-15.69 6.8v2.6c0 5.1 1.88 6.7 15.6 6.8h7.94zm-18.33-6v-4.2c0-2.5.95-3.4 7.86-3.4h13.07c6.9 0 7.8.8 7.8 3.4v4.2c0 2.5-.9 3.4-7.8 3.4H92.3c-6.88 0-7.83-.7-7.83-3.4zm72.63 5.4l.4.4h4.5l.4-.4v-2.1c0-1.6-.9-2.9-2.7-3.8 1.8-.9 2.7-2.4 2.7-4.1 0-2.9-2.6-5.2-7.9-5.2H125c-.5 0-.9.3-.9.8v14.4l.4.3h4.5l.4-.4v-4.8h23.8c2.6 0 4.1 1.1 4.1 2.6v2.3zm-3.9-7.4h-23.8v-4.8l.4-.4h23.4c2.6 0 4.1 1.1 4.1 2.6 0 1.3-1.4 2.7-4.1 2.6z"/></svg>