<svg xmlns="http://www.w3.org/2000/svg" viewBox="0 0 753.9 219.1"><path d="M709.8 177.1c.3-1.3.5-2.5.5-3.2h5.9l-.4 2.2c1.7-1.5 4-2.8 6.5-2.8 4.4 0 7.3 2.8 7.3 7.3 0 1.7-.4 3.6-.6 5l-2.4 11h-6l2.2-10.7c.3-1.6.7-3.1.7-4.8 0-1.9-1.3-3.2-3.2-3.2-4.1 0-5.6 3.9-6.4 7.3l-2.4 11.4h-6l4.3-19.5zm-12.3 6.2c0-2.9-1-5.4-4.5-5.4-4.7 0-6.9 5.2-6.9 9.3 0 3 1.2 5.3 4.5 5.3 4.7 0 6.9-5.3 6.9-9.2m6.2 0c0 8-5.5 13.9-13.5 13.9-6.5 0-10.4-4-10.4-10.4 0-7.6 5.9-13.4 13.5-13.4 6.1 0 10.4 3.7 10.4 9.9m-29.5-19.2h5.9l-1.2 5.7H673l1.2-5.7zm-2.1 9.8h5.8l-4.8 22.8h-6l5-22.8zm-19.4-.1h4.3l1.1-4.7 6.2-2.1-1.3 6.8h5.2l-.9 4.3h-5.2l-2.3 9.9c-.1.6-.1 1.4-.1 2.2 0 1.4.8 2.3 2.1 2.3 1.1 0 2.1-.3 2.9-.6l-1 4.6c-1 .2-2.2.5-3.2.5-4 0-6.8-1.5-6.8-5.9 0-1.8.4-3.5.8-5.3l1.6-7.7h-4.3l.9-4.3zm-17.8 19c4.4 0 5.7-3.1 6.6-6.7h-2c-2.9 0-7.7.5-7.7 4.3 0 1.6 1.6 2.4 3.1 2.4m5.7.3c-2 2.6-4.1 4-7.3 4-4.2 0-7.1-2.3-7.1-6.5 0-7.5 8.4-8.1 14-8.1h2c.3-.6.3-1.2.3-1.9 0-2.3-2.6-3-4.6-3-2.6 0-5.2.7-7.4 1.8l.8-4.7c2.5-.9 5-1.4 7.7-1.4 4.5 0 8.8 1.7 8.8 7 0 3.1-2.3 12-2.8 16.3h-4.9l.5-3.5zm-48.7-16.8c.2-.8.4-1.8.6-2.5h5.4l-.5 3.1h.1c1.6-2.4 4.2-3.6 7-3.6 2.6 0 5.4 1.6 5.8 4.3 1.5-2.9 4.8-4.3 8-4.3 3.4 0 6.3 2.8 6.3 6.2 0 2-.5 4.3-.9 6.2l-2.4 10.9h-6l2.4-11.1c.4-1.4.8-3.5.8-4.9 0-1.7-1.4-2.7-2.8-2.7-4.2 0-5.1 4.8-5.9 7.8l-2.4 10.9h-5.9l2.4-11.1c.3-1.4.8-3.5.8-4.9 0-1.7-1.3-2.7-2.8-2.7-4 0-5.2 4.8-5.8 7.8l-2.4 10.9h-5.9l4.1-20.3zm-17.1.6c.1-1 .4-2 .5-3.1h5.6l-.8 4.3h.1c1.1-2.5 4-4.8 6.7-4.8.8 0 1.6 0 2.2.2l-1.2 5.8c-.6-.2-1.4-.3-2.2-.3-4.2 0-6.3 3.7-6.9 7.4l-2.2 10.2h-5.8l4-19.7zm-11.8 6.4c0-2.9-1-5.4-4.5-5.4-4.7 0-6.9 5.2-6.9 9.3 0 3 1.2 5.3 4.5 5.3 4.7 0 6.9-5.3 6.9-9.2m6.2 0c0 8-5.5 13.9-13.5 13.9-6.5 0-10.4-4-10.4-10.4 0-7.6 5.9-13.4 13.5-13.4 6.1 0 10.4 3.7 10.4 9.9m-35.6-5.1H529l.8-4.4h4.7c1.2-5.7 3.1-10.9 10-10.9 1.3 0 2.7.3 3.7.5l-1.4 4.6c-.6-.3-1.2-.4-1.8-.4-3.3 0-4 3.9-4.6 6.3h5.3l-.9 4.3h-5.4l-3.8 18.4h-5.9l3.9-18.4zm-28.3-1.1c.3-1.3.5-2.5.5-3.2h5.9l-.4 2.2c1.7-1.5 4-2.8 6.5-2.8 4.4 0 7.4 2.8 7.4 7.3 0 1.7-.4 3.6-.7 5l-2.4 11h-6l2.3-10.7c.2-1.6.6-3.1.6-4.8 0-1.9-1.3-3.2-3.2-3.2-4.1 0-5.6 3.9-6.4 7.3l-2.4 11.4h-6l4.3-19.5zm-9.9-11.3h6.4l-6.4 30.9h-6.5l6.5-30.9zm-20.2 12.9c-1.6-.5-3.2-1-4.8-1-1.9 0-4 .5-4 2.3 0 2.8 7.6 3.9 7.6 9.5 0 5.9-5.1 7.6-10.3 7.6-2.3 0-4.7-.3-6.9-1.3l1.3-4.8c1.7 1 3.3 1.8 5.6 1.8 2 0 4.1-.7 4.1-2.5 0-3.7-7.7-4-7.7-9.7 0-5.4 5.2-7.3 9.9-7.3 2.1 0 4.4.4 6.5 1l-1.3 4.4zM453 164.1h5.9l-1.2 5.7h-5.9l1.2-5.7zm-2.1 9.8h5.9l-4.8 22.8h-6l4.9-22.8zm-33.4-10.5h5.8l-3.8 18.7h.1l8.3-8.3h7.6l-11 10.4 7 12.4h-6.7l-5.9-12.1h-.1l-2.5 12.1h-5.9l7.1-33.2zm-19.6 13.5c.1-1 .4-2 .5-3.1h5.6l-.8 4.3h.1c1.1-2.5 4-4.8 6.7-4.8.8 0 1.6 0 2.3.2l-1.2 5.8c-.7-.2-1.5-.3-2.3-.3-4.1 0-6.3 3.7-6.9 7.4l-2.2 10.2h-5.8l4-19.7zm-12.3 6.4c0-2.9-1.1-5.4-4.5-5.4-4.7 0-7 5.2-7 9.3 0 3 1.2 5.3 4.6 5.3 4.6 0 6.9-5.3 6.9-9.2m6.1 0c0 8-5.4 13.9-13.4 13.9-6.6 0-10.4-4-10.4-10.4 0-7.6 5.8-13.4 13.4-13.4 6.2 0 10.4 3.7 10.4 9.9m-61.4-9.5h5.8l1.8 17.1 8.4-17.1h6.5l1.2 17.1h.1l8.8-17.1h6l-12.6 22.8h-6.7l-1.2-17.4h-.1l-8.3 17.4h-6.7l-3-22.8zm-16.5 0h4.2l1.1-4.7 6.2-2.1-1.3 6.8h5.2l-.9 4.4h-5.2l-2.3 9.9c-.1.5-.1 1.3-.1 2.2 0 1.4.8 2.2 2.1 2.2 1.1 0 2.1-.2 2.9-.6l-1 4.7c-1 .2-2.2.5-3.2.5-4 0-6.8-1.6-6.8-6 0-1.7.4-3.5.8-5.3l1.6-7.6h-4.3l1-4.4zm-9.2 9.2c.1-.6.1-1.1.1-1.6 0-2.4-1.3-3.8-3.7-3.8-3.8 0-5.4 2.2-6.4 5.4h10zm-10.8 4c0 4.2 2.2 5.8 6.2 5.8 2.4 0 4.8-.7 7.1-1.7l-.8 4.7c-2.3.7-4.8 1.3-7.2 1.3-6.5 0-11.1-3.2-11.1-9.9 0-7.1 5.5-13.9 13.1-13.9 5.6 0 9.2 2.9 9.2 8.6 0 1.8-.1 3.4-.5 5.1h-16zm-31.1-21.2h7.9l6.5 23.4 5.1-23.4h5.8l-6.6 30.9h-8L267 173h-.2l-4.8 23.7h-6l6.7-30.9zM237 183c.1-.6.1-1.1.1-1.6 0-2.4-1.3-3.8-3.7-3.8-3.8 0-5.4 2.2-6.4 5.4h10zm-10.8 4c0 4.2 2.2 5.8 6.2 5.8 2.4 0 4.8-.7 7.1-1.7l-.8 4.7c-2.3.7-4.8 1.3-7.2 1.3-6.5 0-11.1-3.2-11.1-9.9 0-7.1 5.5-13.9 13.1-13.9 5.6 0 9.2 2.9 9.2 8.6 0 1.8-.1 3.4-.5 5.1h-16zm-25.5-23.6h5.9l-2.8 12.6h.1c1.6-1.5 3.9-2.7 6.4-2.7 4.5 0 7.5 2.8 7.5 7.3 0 1.7-.4 3.5-.8 4.9l-2.4 11.1h-5.9l2.3-10.8c.2-1.5.5-3.1.5-4.7 0-1.9-1.2-3.2-3.2-3.2-4.1 0-5.6 3.8-6.3 7.2l-2.5 11.5h-5.9l7.1-33.2zm-27.6 2.4H197l-1.1 4.9h-8.7l-5.6 26h-6.5l5.6-26h-8.6l1-4.9zm-86-112.2v32.65l.16 1.07-1.24-.13h-32.6V125h71.88V53.6H87.1zM74.2 22.54H22v52.12h52.2V22.54zM695.1 128.4c-9.6 0-20.4-2.8-26.4-6.8l-1.7-1.2 4.9-15.9 3.1 2c5.9 3.7 13.6 5.9 21.1 5.9 11 0 17.7-5.2 17.7-14.02 0-6.53-2.8-11.59-16.7-16.79-18.5-6.8-27.6-16.66-27.6-30.39 0-17.2 14.2-29.2 34.3-29.2 12.8 0 20.2 3.6 22.9 5.07l1.9 1.2-5.2 15.46-3-1.73c-1.6-1.07-7.5-4.27-17-4.27-11.6 0-15.7 6.53-15.7 12 0 7.2 4.2 11.2 17.7 16.4 18.9 7.46 26.5 16.52 26.5 31.19 0 14.38-9.6 31.08-36.8 31.08m-81.2-90.67c-19.8 0-28.8 19.2-28.8 38.13 0 18.39 9.8 36.94 28.6 36.94h.1c14.3 0 28.7-11.7 28.7-38.01 0-17.86-9-37.06-28.6-37.06m-.5 90.77h-.1c-27.6 0-46.8-21.6-46.8-52.38 0-31.86 19.7-53.98 48-53.98 28.1 0 46.9 20.92 46.9 52.12 0 32.34-19.3 54.24-48 54.24m-55.8-1.7h-17.9l-2.4-45.48c-.5-8.4-1.1-17.99-1.3-27.06-2.4 7.2-5 14.8-7.8 22.66l-18 49.28h-13.3l-16.7-48.48c-2.6-8-4.9-15.19-6.8-21.73-.6 8.4-.8 17.47-1.3 26.26l-2.8 44.55H452l7-103.2h20.6l17.3 49.06c2.9 8.66 5.5 16.66 7.6 24.39 2.1-7.06 4.7-14.93 8-24.39l18.1-49.06h20.6l6.4 103.2zm-153.1 1.6c-9.6 0-20.4-2.8-26.4-6.8l-1.7-1.2 4.9-15.9 3 2c6 3.7 13.7 5.9 21.2 5.9 11 0 17.7-5.2 17.7-14.02 0-6.53-2.8-11.59-16.7-16.79-18.5-6.8-27.6-16.66-27.6-30.39 0-17.2 14.2-29.2 34.3-29.2 12.7 0 20.3 3.6 22.9 5.07l1.9 1.2-5.3 15.46-2.8-1.73c-1.6-1.07-7.6-4.27-17.1-4.27-11.6 0-15.7 6.53-15.7 12 0 7.2 4.2 11.2 17.7 16.4 18.8 7.46 26.5 16.52 26.5 31.19 0 14.38-9.6 31.08-36.8 31.08m-82.2-90.67c-19.9 0-28.8 19.2-28.8 38.13 0 18.39 9.7 36.94 28.5 36.94 14.4 0 28.8-11.7 28.8-38.01 0-17.86-8.9-37.06-28.5-37.06m-.6 90.77h-.2c-27.5 0-46.7-21.6-46.7-52.38 0-31.86 19.8-53.98 48-53.98 28 0 46.9 20.92 46.9 52.12 0 37.44-24.1 54.24-48 54.24m-105-90.77c-20.1 0-29.2 19.2-29.2 38.26 0 18.26 9.9 36.81 28.7 36.81 14.4 0 28.8-11.7 28.8-38.01 0-17.86-8.8-37.06-28.3-37.06m47.5 104.77l-2.4-.5c-15.8-3.9-29.1-7.8-42-12.3h-.8c-1.6-.5-3.1-1.1-4.3-1.1-22.9-.8-45.8-17.3-45.8-52.08 0-31.99 19.8-54.25 48.1-54.25 27.4 0 46.6 21.46 46.6 52.12 0 22.26-8.6 39.21-24.2 47.21h3.4l1.6.5c7 1.6 14.2 3.1 22 4.5l3.1.6-5.3 15.8z"/></svg>