<svg xmlns="http://www.w3.org/2000/svg" viewbox="0 0 496.1 230.3" >
  <path d="m 391.2,75.39 c 8.7,0 15.6,3.7 20.6,11.2 l 0,62.01 c -1.1,2.2 -3.9,4.3 -8.3,6.4 -4.4,1.9 -8.1,2.9 -11.2,2.9 -24.5,0 -36.7,-13.5 -36.7,-40.4 0,-12.2 3.2,-22.4 9.8,-30.31 6.6,-7.9 15.1,-11.8 25.8,-11.8 z m -159.6,0 c 12.9,0 22.3,3.2 28.1,9.8 5.9,6.51 8.8,16.81 8.8,30.91 0,27.9 -12.3,41.8 -36.9,41.8 -3.8,0 -7.7,-0.9 -11.8,-2.5 -4,-1.8 -6.7,-3.6 -7.9,-5.5 l 0,-65.11 c 2.3,-2.4 5.5,-4.6 9.6,-6.5 4,-1.9 7.3,-2.9 10.1,-2.9 z m 57.6,-14.6 0,16.6 15.3,0 0,95.11 19.8,0 0,-111.71 -35.1,0 z M 239,58.59 c -10.5,0 -19.6,3.8 -27.1,11.3 l 0,-9.1 -19.8,0 0,155.51 19.8,0 0,-50 c 1.5,2.2 5,4.1 10.3,5.8 5.4,1.6 10.5,2.4 15.2,2.4 16.8,0 29.7,-5.3 38.6,-16 8.9,-10.8 13.4,-24.6 13.4,-41.6 0,-19.1 -4.5,-33.61 -13.3,-43.41 C 267.3,63.59 255,58.59 239,58.59 Z M 94.9,28.16 c 35.7,0 64.5,28.63 64.5,64.24 0,15.9 -5.8,30.4 -15.3,41.6 -0.2,-0.2 -0.3,-0.4 -0.4,-0.6 0.9,-0.4 -1,-1.3 -2.3,-2.5 0.2,-0.5 -2,-1.5 -3.1,-3.1 -0.2,-0.3 -0.5,-0.5 -0.9,-0.6 -0.5,-0.8 -1.1,-1.3 -1.8,-1.8 -0.5,-1.2 -1.7,-2 -3.2,-2.4 -0.8,-1 -1.6,-1.8 -2.8,-2.1 -0.6,-0.5 -1.1,-0.9 -1.6,-1 -0.6,-1 -1.7,-1.6 -2.9,-1.8 -0.5,-1.2 -1.4,-2 -2.8,-2 -0.9,-0.8 -2,-1.5 -3.3,-1.2 l -0.2,0 c -0.9,-0.6 -1.9,-1 -3.2,-0.7 -0.2,0.1 -0.5,0.1 -0.7,0.3 1.1,-1.4 2.2,-2.8 3.2,-4.3 -1.1,0.4 -2.4,0.9 -3.6,1.3 -0.5,0.1 -1,0.3 -1.4,0.5 0.1,-0.9 0.5,-1.8 1.3,-2.7 1.7,-2 -1.6,0.1 -2.1,-0.1 -0.6,0.2 -1.1,0.4 -1.5,0.7 -0.2,-0.4 -0.4,-0.8 -0.7,-1.2 0.2,-1.2 0.4,-2.4 0.6,-3.6 -0.6,0.7 -1.2,1.4 -1.8,2.1 -0.1,0 -0.1,0 -0.1,0 -1.1,-2.1 -0.9,-0.7 -0.7,0.9 l -0.1,0.2 c -0.8,1.1 -1.2,2.3 -1.2,3.6 -0.7,-0.3 -1.5,-0.4 -2.3,-0.5 -4.4,-1.9 0.3,1.4 1.1,2.5 0.3,0.3 0.5,0.5 0.8,0.8 -4.1,-2.3 -8.4,-4.2 -12.9,-5.2 l -0.8,0 c -6.3,-0.6 -2,1.5 1.3,3.2 3.3,1.8 6.5,3.7 9.8,5.6 -1,-0.2 -1.9,-0.6 -2.8,-1.1 -1.2,-0.7 0.1,0.9 0.9,1.9 -1.8,0.8 -3,2.7 -2.6,4.9 0.2,0 0.5,0 0.9,-0.2 0,0 0,0 0,0.1 -0.4,0.1 -0.8,0.2 -1.2,0.3 0.3,0.1 0.6,0.2 0.9,0.3 -0.3,0.8 -0.4,1.6 -0.4,2.6 -0.1,1.6 1.6,-0.6 3,-1.8 l 0,0 c 0,0.5 0,1 0.1,1.6 -0.8,4.8 1.6,0 3,-1.8 0.1,0 0.1,0 0.2,-0.1 -0.7,1.4 -0.8,2.7 0.3,4.1 0.2,0.2 0.3,0.3 0.4,0.5 0.1,0.4 0.3,0.8 0.5,1.3 0.3,0.4 0.8,0.7 1.2,0.9 0.1,0.3 0.2,0.6 0.3,0.9 0.7,0.7 1.4,1.1 2,1.2 0.3,0.6 0.6,1.1 1.1,1.6 0.5,0.4 0.9,0.6 1.3,0.8 0.2,0.2 0.3,0.4 0.4,0.6 0.6,0.4 1.1,0.8 1.6,1.1 0.5,1 1.2,1.9 2.2,2.6 0.3,0.1 0.5,0.3 0.7,0.3 0.4,0.5 0.7,0.9 1.2,1.3 0.5,0.3 0.9,0.6 1.3,0.8 0.1,0.2 0.3,0.4 0.5,0.6 0.5,0.4 1.3,0.9 2.1,1.1 0.1,0.3 0.4,0.6 0.7,0.9 0.6,0.5 1.4,1 2,1.4 0.2,0.3 0.6,0.6 0.9,0.8 0.2,0.1 0.4,0.2 0.5,0.3 -9.4,5.4 -20.4,8.5 -32.1,8.5 -35.7,0 -64.4,-28.6 -64.4,-64.2 0,-35.61 28.7,-64.23 64.4,-64.23 z m 210.3,-5.56 0,21.79 21.7,0 0,-21.79 -21.7,0 z m 106.5,-7.67 0,51.86 c -5.9,-5.4 -14.8,-8.2 -26.3,-8.2 -13.8,0 -25.8,6 -35.8,17.9 -10,11.81 -15,26.11 -15,42.91 0,16.6 4.4,30.1 13,40 8.8,10 20.1,15.1 34,15.1 13.2,0 23.2,-3.5 30.1,-10.4 l 0,8.3 19.8,0 0,-157.47 -19.8,0 z m 55,-1.49 0,19.07 2.4,0 0,-16.78 5,13.12 2.6,0 4.9,-13.12 0,16.78 2.5,0 0,-19.07 -3.9,0 -4.8,13 -5,-13 -3.7,0 z m -18.8,0 0,2.12 6.8,0 0,16.95 2.6,0 0,-16.95 6.8,0 0,-2.12 -16.2,0 z M 94.9,10 C 49.2,10 12,47.09 12,92.4 c 0,45.3 37.2,82.3 82.9,82.3 17,0 32.7,-5.1 45.8,-13.7 l 0.3,0 c 0.3,0.5 0.7,1 1.1,1.5 0.2,0.3 0.3,0.6 0.5,0.9 0.9,0.8 1.7,1.2 2.4,1.4 0.4,0.5 0.9,1 1.6,1.5 0.2,0.3 0.4,0.5 0.6,0.7 0.3,0.3 0.6,0.7 1,1 0.5,0.4 0.8,0.5 0.9,0.4 l 0.1,0 c 0.5,0.8 1.2,1.4 2.1,2 0.2,0.3 0.4,0.5 0.6,0.6 0.4,0.4 0.9,0.8 1.4,1.1 0.4,0.6 0.8,1.1 1.5,1.6 0.1,0 0.3,0.1 0.4,0.2 0.5,0.8 1.2,1.4 2.3,1.8 2.3,1 3.2,3.1 3.5,2.1 0,0.1 0,0.1 0.1,0.1 0.7,2.3 1.2,2.7 1.6,2.2 0.4,0.3 0.7,0.7 1.1,1 0.4,0.8 1,1.6 1.9,2.3 0.3,0.3 0.6,0.3 1,0.4 0.4,0.7 1.1,1.3 1.9,1.8 1.2,2.5 1.8,2.2 2,1.2 0.6,0.5 1.3,0.8 2.2,0.9 0.7,0.5 1.4,0.9 2.2,1.2 0.3,0.3 0.7,0.6 1.1,0.8 1.2,3.1 1.7,1.5 1.6,-0.4 0.1,0 0.2,-0.1 0.2,-0.1 0.4,0 0.6,0 0.9,0 1.3,0.5 1.6,0 1.3,-0.8 0.1,-0.2 0.2,-0.3 0.3,-0.6 -0.1,-0.1 -0.2,-0.2 -0.3,-0.2 0.4,-0.6 0.4,-1.3 0.2,-1.8 0,-0.1 0,-0.2 0.1,-0.3 -0.1,-0.4 -0.3,-0.7 -0.4,-1 0,-0.6 -0.2,-1.3 -0.7,-1.8 0,-0.1 -0.1,-0.1 -0.2,-0.2 0,-0.6 -0.2,-1.3 -0.6,-1.9 -0.1,-0.8 -0.5,-1.5 -1,-2.1 -0.1,-0.7 -0.7,-1.5 -1.4,-2.1 0,-1.2 -1.1,-2.3 -2.3,-3.2 -0.4,-0.8 -0.9,-1.5 -1.5,-2.1 -0.2,-0.3 -0.4,-0.6 -0.8,-0.9 -0.2,-0.4 -0.4,-0.8 -0.7,-1.2 0.2,-1.5 -0.8,-3.2 -2.2,-4.2 -0.1,-0.6 -0.4,-1.1 -0.8,-1.6 0,-0.5 -0.3,-1 -1,-1.3 -0.2,-0.4 -0.5,-0.7 -0.8,-1 -0.3,-0.7 -0.8,-1.4 -1.3,-2 -0.3,-1 -1.2,-2.5 -2.1,-3.3 -0.4,-0.6 -1,-1.3 -1.8,-1.9 -0.1,-1 -0.5,-2.1 -1,-2.5 -0.3,-0.1 -0.5,-0.2 -0.6,-0.3 0,-0.2 0,-0.4 0,-0.6 -0.8,-0.3 -1.5,-0.8 -2.2,-1.4 l -0.9,-1.2 c 13.5,-14.6 21.6,-34.1 21.6,-55.3 0,-45.31 -37,-82.4 -82.8,-82.4 z"/></svg>