<svg xmlns="http://www.w3.org/2000/svg" height="117" width="400"><path d="M175.73 51.24c2.82 0 5.7.49 7.7 1.31v.07l-1.71 8.963v.04s0 .01 0 0c-1.71-.963-3.71-1.43-6.09-1.43-7.96 0-12.69 6.935-12.69 13.615 0 5.67 3.79 7.7 7.32 7.7 3.15 0 5.83-.69 9.24-2.367 0-.01 0-.01 0 0v.05l-1.75 9.21v.04c-2.58 1.25-6.58 2-10.7 2-9.66 0-15.87-6.045-15.87-15.41 0-13.56 10.55-23.785 24.55-23.785m172.44 0c2.83 0 5.71.49 7.71 1.31v.07l-1.71 8.963v.04s0 .01 0 0c-1.72-.963-3.72-1.43-6.09-1.43-7.96 0-12.69 6.935-12.69 13.615 0 5.67 3.78 7.7 7.3 7.7 3.16 0 5.84-.69 9.26-2.367 0-.01 0-.01 0 0v.05l-1.75 9.21v.04c-2.59 1.25-6.59 2-10.71 2-9.65 0-15.86-6.046-15.86-15.412 0-13.558 10.54-23.784 24.54-23.784m-41.06 38.398v-.04l.93-4.71c0-.07 0-.132-.13-.142 0-.01-.13.03-.13.07-2.06 3.48-6.08 5.7-10.6 5.7-7.43 0-10.79-6.59-10.79-13.185 0-7.492 2.93-14.914 7.87-19.848 4.13-4.133 9.46-6.316 15.42-6.316 4.53.01 7.88 1.33 9.99 3.877 3.1 3.77 2.85 9.428 2.08 13.543l-4.03 21.04v.04h-10.56v-.03zm-4.15-27.762c-3 3.004-5.25 8.643-5.25 13.13 0 3.942 1.47 6.396 4 6.396 4.07 0 7.57-4.25 8.77-10.475.28-1.39.55-2.807.75-4.064.2-1.258.32-2.367.28-3.143-.13-2.658-1.51-4.092-4-4.092-1.51 0-3.08.786-4.55 2.248m90.23 21.606h-.54l-.2 1.076-.2 1.07h.59c.27 0 .44-.01.59-.01.16-.01.28-.04.4-.07.5-.147.86-.516.96-.988.13-.467-.14-.834-.58-.978-.13-.04-.22-.07-.37-.08-.15-.01-.32-.01-.59-.01h-.13zm-1.11-.686v-.01h1.23c.3 0 .52 0 .68.01.21.01.37.05.53.106.63.206.97.698.97 1.322v.334c-.13.768-.62 1.394-1.52 1.64l.79 2.308v.03h-.79v-.01l-.74-2.197-.48.01h-.56l-.42 2.183v.01h-.65v-.01-.01l.41-2.203v-.03l.32-1.728.34-1.754zm-3.81 2.873c.25-2.69 2.62-4.872 5.3-4.872 2.7 0 4.68 2.182 4.44 4.87-.24 2.69-2.62 4.87-5.3 4.87-2.7 0-4.68-2.18-4.44-4.87zm.66.05c-.21 2.303 1.47 4.144 3.78 4.144 2.33 0 4.42-1.917 4.64-4.262.21-2.308-1.47-4.15-3.78-4.15-2.33 0-4.42 1.917-4.64 4.267m-13.16-34.566c7.87 0 13.11 4.57 13.11 11.342 0 3.133-1.01 5.71-3.03 7.667-3.68 3.59-10.6 5.233-21.18 4.985h-.14v.12c0 1.09.42 2.626 1.12 3.622 1.44 1.828 4 2.823 7.18 2.823 4.64 0 8.65-1.124 13.02-3.643 0-.01 0-.01 0 0v.05l-1.76 9.262v.04c-5.32 2.708-11.56 3-14 3-10.4 0-16.34-5.778-16.34-15.874 0-5.817 2.14-11.65 5.86-15.998 4.08-4.774 9.8-7.4 16.08-7.4zm2.63 11.342c0-1.942-1.6-3.17-4.01-3.17-4.78 0-7.83 3.86-8.72 7.5V66.98h.13c6.47.04 10.12-.622 11.72-2.204.61-.613.91-1.358.91-2.272M190.6 38.714h10.99V38.774l-5.73 30.14v.03l14.74-17.007v-.03h12.06v.1l-15.31 17.24 9.33 20.253v.09h-11.89v-.03l-9.03-20.022v-.03.03l-3.8 20.003v.04h-10.98v-.01-.04l9.65-50.766v-.04M273.5 51.17c7.38 0 12.18 5.603 12.18 14.338 0 9.162-4.4 18.555-12.33 22.782-7.21 3.85-13.67 2.16-15.69-.855 0-.01 0-.01 0 0l-2.71 14.265h-11.07l9.39-49.942v-.04h9.72v.07l-.96 5.084v.148c0 .03.13 0 .15-.05v-.07c2.84-3.658 6.86-5.72 11.1-5.72zm-9.62 30.87c5.87 0 10.18-8.33 10.18-15.686 0-1.776-.42-6.09-4.51-6.09-4.16 0-7.68 4.744-9.04 11.934-.47 2.46-1.77 9.84 3.37 9.84m-129.22 7.617v-.04l.93-4.71c0-.07 0-.132-.13-.142 0-.01-.13.03-.13.07-2.06 3.48-6.08 5.7-10.61 5.7-7.42 0-10.78-6.59-10.78-13.185 0-7.493 2.94-14.915 7.87-19.85 4.13-4.132 9.46-6.315 15.42-6.315 4.54.01 7.88 1.33 9.99 3.877 3.11 3.77 2.85 9.428 2.08 13.543l-4.03 21.04v.04h-10.56v-.03zm-4.15-27.77c-3 3.005-5.25 8.644-5.25 13.132 0 3.94 1.47 6.395 4 6.395 4.07 0 7.57-4.25 8.77-10.475.28-1.39.55-2.807.75-4.064.2-1.258.32-2.367.28-3.143-.13-2.658-1.51-4.092-3.99-4.092-1.52 0-3.09.786-4.56 2.248m-14.68-10.8c.66 0 1.48.07 2.07.178v.07l-2.15 10.828v.05a8.774 8.774 0 0 0-1.74-.178c-7.59 0-10.55 7.416-11.7 13.547l-2.69 14.412c-.01.03-.03.04-.05.04H88.51c-.01 0-.04-.01-.04-.03-.01-.01-.01-.03-.01-.05l7.223-37.988c0-.03.03-.04.05-.04h9.717v.06l-1.24 6.53v.133c0 .03.12.01.16-.05 2.9-4.822 6.92-7.51 11.36-7.51m121.92.08c4.6 0 7.99 1 9.63 1.925v.05l-1.59 8.322v.04c0 .01 0 .01 0 0-1.85-1.014-5.07-2.094-8.52-2.094-2.89 0-4.79 1.212-4.79 3.245 0 1.458 1.44 2.763 4.51 4.254 3.97 1.987 8.48 4.932 8.48 10.26 0 3.476-1.16 6.384-3.45 8.65-3.03 3.014-7.96 4.66-13.9 4.613-4.56-.08-9.16-1.258-11.46-2.93v-.05l1.58-8.37v-.04c0-.01 0 0 0 0 2.47 1.547 7.32 3.216 10.9 3.216 2.76 0 4.62-1.278 4.62-3.325 0-1.854-1.3-3.15-4.65-4.787-5.29-2.647-7.93-6-7.93-9.955 0-7.777 6.62-13.033 16.56-13.033M56.17 82.558a51.31 51.31 0 0 1-4.992 3.064h-.03c-.03 0-.05-.03-.05-.05-.323-5.077-1.415-9.99-3.304-14.078-5.037-10.914-13.84-11.756-19.66-1.875-3.558 6.047-5.18 14.71-4.74 23.03 0 .03.01.04.04.05 6.17 1.932 13.282 2.144 20.867.23 21.972-5.6 38.78-27.216 37.558-48.32-1.075-18.535-15.698-30.515-34.132-29.403-.01 0-.03 0-.04.01a100.29 100.29 0 0 0-5.045 5.495c-.01.01-.01.03-.01.03 0 .03.03.05.05.05h.01c10.802-1.367 19.462.828 25.11 5.33.01.01.03.03.03.04 0 .01 0 .03-.01.03-19.467 27.464-17.057 43.1-11.626 56.303v.03c0 .01-.01.04-.03.04m6.232-56.98c.03.01.03.03.03.05v.01c-1.408 3.99-3.743 8.525-6.056 11.97-4.877 7.236-11.875 11.8-15.628 10.192-3.752-1.608-2.848-8.782 2.03-16.02a34.695 34.695 0 0 1 3.55-4.432c.01-.01.01-.03.01-.04 0-.03-.03-.05-.05-.05h-.01a43.14 43.14 0 0 0-4.655.91c-.01 0-.03.01-.03.01-16.46 20.206-23.467 46.433-22.503 69.83h-.05-.03C9.302 94.107 2.208 84.73 1.47 72.855l-.01-.138C.237 51.59 17.08 29.952 39.083 24.38c8.526-2.158 16.58-1.59 23.315 1.15zM43.21 37.594c-1.58 3.328-.95 6.06 1.404 6.102 2.353.04 5.545-2.62 7.12-5.946 1.58-3.33.952-6.062-1.4-6.104-2.356-.04-5.547 2.622-7.124 5.947"/></svg>