<svg xmlns="http://www.w3.org/2000/svg" viewBox="0 0 340 48"><path d="M112.56 9.555c-1.1 0-2.18.447-2.92 1.114-.74.666-1.19 1.47-1.53 2.284-.7 1.63-1.01 3.432-1.4 5.13-.39 1.7-.85 3.267-1.43 4.188-.57.92-.91 1.233-2.06 1.233-2.02 0-3.72 1.18-4.63 2.52-.91 1.34-1.344 2.796-1.782 4.1-.44 1.302-.878 2.446-1.334 3.07-.456.626-.668.82-1.58.817-.767 0-1.01-.197-1.538-.992-.527-.795-1.026-2.163-1.506-3.652-.48-1.49-.938-3.092-1.78-4.54-.843-1.446-2.45-2.876-4.512-2.876-1.843 0-3.44.92-4.346 2.045-.905 1.125-1.33 2.32-1.758 3.326-.427 1.005-.835 1.8-1.266 2.24-.43.44-.814.696-1.963.696a2 2 0 1 0 0 4c2.022 0 3.734-.785 4.825-1.902 1.09-1.117 1.63-2.4 2.086-3.47.455-1.072.845-1.95 1.193-2.383.347-.433.437-.553 1.228-.553.48 0 .583.08 1.056.89.474.814.938 2.226 1.428 3.75.49 1.525 1.006 3.172 1.98 4.64.974 1.466 2.72 2.778 4.866 2.78 2.082 0 3.835-1.114 4.816-2.46.98-1.343 1.446-2.828 1.896-4.153.44-1.325.87-2.496 1.3-3.128.43-.63.55-.767 1.32-.767 2.44 0 4.41-1.43 5.46-3.125 1.06-1.695 1.52-3.616 1.93-5.405.41-1.79.76-3.473 1.18-4.46.21-.49.42-.78.53-.876.11-.1.1-.08.24-.08.47 0 .58.08 1.06.923.48.845.95 2.3 1.44 3.862.49 1.562 1 3.243 1.96 4.738.97 1.495 2.71 2.85 4.87 2.85 1.98 0 3.64-1.12 4.56-2.407.91-1.285 1.36-2.684 1.81-3.926.45-1.24.9-2.32 1.36-2.91.46-.59.69-.79 1.6-.79-.15 0 .34.134.74.447.39.312.67.62.67.62a2 2 0 1 0 3.01-2.63s-.49-.568-1.2-1.13c-.72-.564-1.68-1.308-3.22-1.308-2.04 0-3.77 1.055-4.77 2.345-.99 1.29-1.49 2.72-1.95 3.988-.46 1.267-.89 2.38-1.32 2.975-.42.596-.54.726-1.29.726-.74 0-.97-.19-1.5-1.015-.53-.827-1.03-2.24-1.51-3.77-.48-1.532-.94-3.173-1.79-4.65-.84-1.475-2.45-2.94-4.53-2.94zm209.68 27.137c-.59 0-1.1-.207-1.53-.62-.43-.414-.64-.843-.64-1.29 0-.444.1-.794.17-1.048.12-.27.29-.51.5-.716.43-.43.93-.644 1.5-.644h5.27c.97 0 1.75-.27 2.34-.81.59-.558.88-1.242.88-2.053 0-.81-.22-1.462-.67-1.955-.44-.51-.99-.867-1.64-1.074l-4.3-1.192c-1.47-.445-2.65-1.272-3.53-2.48-.89-1.225-1.33-2.522-1.33-3.89 0-1.367.2-2.497.59-3.387.42-.89.97-1.653 1.65-2.29 1.42-1.32 3.17-1.98 5.25-1.98h5.82c.6 0 1.11.215 1.5.645.4.413.6.922.6 1.526 0 .606-.2 1.115-.6 1.528-.39.398-.9.597-1.5.597h-5.37c-.81 0-1.45.238-1.91.715a2.417 2.417 0 0 0-.66 1.694c0 1.018.56 1.782 1.69 2.29l4.68 1.36c2.51.843 4.18 2.434 5.01 4.772.27.795.4 1.71.4 2.743s-.21 2.02-.64 2.957a7.81 7.81 0 0 1-1.67 2.434c-1.48 1.448-3.22 2.172-5.23 2.172h-6.63m-16.46-20.35c-.69-.843-1.52-1.264-2.51-1.264-.86 0-1.49.206-1.9.62-.69.684-1.03 1.423-1.03 2.22v11.665c0 .81.2 1.407.6 1.79.7.667 1.44 1 2.21 1h5.87c.94 0 1.6.454 1.98 1.36.11.255.17.533.17.836 0 .285-.1.563-.17.834-.11.254-.26.477-.45.668-.41.413-.92.62-1.53.62h-7.27c-1.94 0-3.61-.692-4.99-2.076-1.38-1.383-2.07-3.045-2.07-4.986V17.797c0-2.05.69-3.706 2.07-4.962 1.51-1.368 3.64-2.052 6.39-2.052 3.71 0 6.18.86 7.42 2.577.4.525.6 1.058.6 1.598 0 .525-.1.963-.21 1.312a3 3 0 0 1-.6.883c-.54.54-1.15.81-1.84.81-1.11 0-2.03-.54-2.74-1.62m-25.81-2.697c0-.78.19-1.384.59-1.813.69-.7 1.44-1.05 2.27-1.05.79 0 1.38.207 1.76.62.7.716 1.05 1.464 1.05 2.243v20.732c0 .763-.2 1.344-.59 1.74-.7.7-1.35 1.05-1.94 1.05-.58 0-1.05-.08-1.4-.238a2.905 2.905 0 0 1-.91-.572c-.56-.54-.83-1.2-.83-1.98V13.646M282.83 0c.87 0 1.63.318 2.26.954.64.637.96 1.28.96 1.933 0 .652-.1 1.17-.26 1.55-.18.382-.41.716-.7 1.002-.63.636-1.39.954-2.26.954-.88 0-1.63-.318-2.27-.955-.63-.637-.95-1.273-.95-1.91 0-1.08.32-1.94.95-2.576.64-.636 1.39-.954 2.27-.954m-12.31 32.374c.6 0 1.1.214 1.5.644.4.43.6.946.6 1.55 0 .59-.2 1.09-.6 1.504-.4.413-.9.62-1.5.62h-2.86c-1.95 0-3.61-.692-4.99-2.076-1.37-1.367-2.05-3.03-2.05-4.986V15.46h-2.82c-.9 0-1.55-.43-1.93-1.29a2.025 2.025 0 0 1-.17-.81c0-.907.43-1.55 1.29-1.933.26-.11.53-.167.81-.167h2.82V6.298c0-1.256.57-2.13 1.72-2.624.33-.16.7-.24 1.09-.24.78 0 1.37.208 1.77.622.7.684 1.05 1.43 1.05 2.242v4.962h4.32c.55 0 .98.152 1.28.454.51.51.77 1.057.77 1.646 0 .572-.2 1.065-.6 1.48-.4.413-.88.62-1.45.62h-4.32v14.123c0 .795.2 1.383.62 1.765.7.684 1.43 1.026 2.19 1.026h1.46m-24.84-20.54c.42-.4.79-.67 1.12-.812.35-.16.72-.24 1.1-.24.4 0 .77.07 1.12.216.35.143.66.342.91.596.56.557.83 1.217.83 1.98V40.94c0 1.957-.69 3.62-2.07 4.986-1.42 1.384-3.09 2.076-5.03 2.076h-4.23c-.6 0-1.12-.207-1.55-.62a2.09 2.09 0 0 1-.62-1.527c0-.604.21-1.12.62-1.55.43-.414.95-.62 1.55-.62h2.82c.81 0 1.41-.2 1.81-.598.68-.683 1.03-1.415 1.03-2.194v-5.176c0-.302-.1-.5-.27-.597a.787.787 0 0 0-.47-.167c-.16 0-.3.07-.43.215l-.41.382c-1.08 1.08-2.33 1.622-3.74 1.622-1.72 0-3.14-.7-4.27-2.1-1.13-1.384-1.7-3.038-1.7-4.963V13.575c0-1.21.58-2.06 1.72-2.553.33-.16.69-.24 1.07-.24.4 0 .78.07 1.13.216.34.143.65.342.9.596.56.557.84 1.217.84 1.98v16.462c0 .78.2 1.376.59 1.79.67.7 1.3 1.05 1.89 1.05.59 0 1.05-.06 1.38-.168.35-.127.66-.302.93-.525.56-.477.84-1.098.84-1.86V13.574c0-.78.2-1.36.59-1.742m-21.4 17.75c0 .81.2 1.407.6 1.79.7.667 1.44 1 2.22 1h.24c.59 0 1.04.16 1.36.478.54.542.81 1.035.81 1.48 0 .445-.1.803-.17 1.074-.11.254-.26.477-.45.668-.45.413-.96.62-1.55.62h-1.65c-1.94 0-3.6-.692-4.98-2.076-1.39-1.383-2.08-3.045-2.08-4.986V2.815c0-.795.2-1.392.6-1.79C219.91.343 220.65 0 221.44 0c.82 0 1.42.2 1.82.596.68.684 1.02 1.424 1.02 2.22v26.767M195.25 13.43c0-.953.45-1.62 1.34-2.003.25-.11.53-.167.83-.167h5.63c1.94 0 3.6.692 4.99 2.076 1.38 1.384 2.07 3.046 2.07 4.986v16.056c0 1.208-.57 2.06-1.72 2.552-.34.16-.73.24-1.14.24-.41 0-.77-.07-1.07-.216a2.865 2.865 0 0 1-.74-.453c-.18-.158-.35-.38-.53-.667-.17-.302-.31-.525-.4-.668-.1-.143-.25-.215-.46-.215-.2 0-.37.07-.5.215l-.38.406c-1.07 1.066-2.31 1.6-3.75 1.6-1.7 0-3.17-.7-4.41-2.1-1.24-1.384-1.86-3.038-1.86-4.963v-3.292c0-1.94.69-3.602 2.08-4.986 1.36-1.37 3.03-2.053 4.98-2.053h4.25v-1.383c0-.796-.2-1.392-.6-1.79-.7-.7-1.44-1.05-2.22-1.05h-4.22c-.59 0-1.04-.15-1.36-.453-.54-.508-.81-1.064-.81-1.67m3.55 16.63c0 .81.2 1.407.6 1.79.7.667 1.34 1 1.93 1 .59 0 1.05-.06 1.39-.166.35-.11.65-.27.9-.477.56-.446.84-1.034.84-1.766V24.05h-2.82c-.81 0-1.41.2-1.81.596-.68.684-1.03 1.424-1.03 2.22v3.196m-25.05 6.083c-.39.382-.77.644-1.12.787-.33.16-.7.24-1.09.24-.39 0-.75-.07-1.1-.216a2.67 2.67 0 0 1-.88-.596c-.56-.557-.84-1.217-.84-1.98V13.646c0-.78.21-1.384.62-1.813.67-.7 1.31-1.05 1.91-1.05.62 0 1.07.07 1.36.215.3.127.56.278.76.453.31.256.51.518.62.79.13.253.24.444.34.57.1.128.24.192.43.192.2 0 .37-.06.5-.19.12-.144.33-.36.62-.645.95-.922 1.99-1.384 3.12-1.384 1.15 0 2.1.19 2.87.573.76.366 1.42.875 1.98 1.527 1.22 1.383 1.83 3.038 1.83 4.962v16.533c0 1.208-.56 2.06-1.69 2.552-.35.16-.72.24-1.12.24-.38 0-.75-.07-1.1-.216a2.8 2.8 0 0 1-.91-.596c-.55-.557-.83-1.217-.83-1.98v-16.46c0-.78-.19-1.377-.57-1.79-.69-.7-1.42-1.05-2.2-1.05-1.27 0-2.15.493-2.65 1.48-.16.317-.23.675-.23 1.072v16.748c0 .78-.21 1.368-.63 1.765M146.39 13.43c0-.953.45-1.62 1.34-2.003.25-.11.53-.167.83-.167h5.63c1.94 0 3.6.692 4.99 2.076 1.38 1.384 2.07 3.046 2.07 4.986v16.056c0 1.208-.57 2.06-1.71 2.552-.35.16-.74.24-1.15.24-.41 0-.77-.07-1.07-.216a2.865 2.865 0 0 1-.74-.453c-.18-.158-.35-.38-.53-.667-.17-.302-.31-.525-.4-.668-.1-.143-.25-.215-.46-.215-.2 0-.37.07-.5.215l-.38.406c-1.06 1.066-2.31 1.6-3.74 1.6-1.71 0-3.18-.7-4.42-2.1-1.24-1.384-1.86-3.038-1.86-4.963v-3.292c0-1.94.69-3.602 2.08-4.986 1.36-1.37 3.03-2.053 4.98-2.053h4.25v-1.383c0-.796-.2-1.392-.6-1.79-.7-.7-1.44-1.05-2.22-1.05h-4.22c-.59 0-1.04-.15-1.36-.453-.54-.508-.81-1.064-.81-1.67m3.56 16.63c0 .81.19 1.407.59 1.79.7.667 1.35 1 1.93 1 .59 0 1.05-.06 1.39-.166.35-.11.65-.27.9-.477.56-.446.84-1.034.84-1.766V24.05h-2.82c-.81 0-1.41.2-1.81.596-.68.684-1.02 1.424-1.02 2.22v3.196m-84.882 4.318c0 1.208-.572 2.06-1.717 2.552-.35.16-.73.24-1.145.24-.413 0-.77-.06-1.073-.192a3.442 3.442 0 0 1-.764-.43c-.286-.254-.493-.5-.62-.74a6.712 6.712 0 0 0-.31-.595.457.457 0 0 0-.43-.263.68.68 0 0 0-.5.215l-.43.406c-1.034 1.066-2.266 1.6-3.698 1.6-1.717 0-3.196-.7-4.437-2.1-1.225-1.368-1.837-3.022-1.837-4.963V18.322c0-1.94.692-3.602 2.076-4.986 1.383-1.384 3.045-2.076 4.986-2.076h4.246V2.815c0-.795.2-1.392.597-1.79C60.696.343 61.435 0 62.23 0c.81 0 1.415.2 1.812.596.684.684 1.026 1.424 1.026 2.22v31.562M53.76 30.322c0 .81.263 1.44.787 1.885.54.43 1.106.644 1.694.644.606 0 1.075-.06 1.41-.166.35-.11.65-.27.905-.477.573-.446.86-1.034.86-1.766V15.556h-2.84c-.78 0-1.375.206-1.79.62-.683.684-1.025 1.423-1.025 2.22V30.32m-27.984-16.89c0-.955.445-1.623 1.336-2.005.255-.11.533-.167.835-.167h5.63c1.94 0 3.603.692 4.986 2.076 1.384 1.384 2.076 3.046 2.076 4.986v16.056c0 1.208-.574 2.06-1.72 2.552-.35.16-.73.24-1.144.24-.413 0-.77-.07-1.073-.216a3.045 3.045 0 0 1-.74-.453 3.057 3.057 0 0 1-.525-.667c-.175-.302-.31-.525-.405-.668-.1-.143-.247-.215-.454-.215a.632.632 0 0 0-.502.215l-.38.406c-1.067 1.066-2.316 1.6-3.747 1.6-1.7 0-3.172-.7-4.412-2.1-1.24-1.384-1.86-3.038-1.86-4.963v-3.292c0-1.94.69-3.602 2.074-4.986 1.368-1.37 3.03-2.053 4.986-2.053h4.247v-1.383c0-.796-.2-1.392-.597-1.79-.7-.7-1.44-1.05-2.218-1.05h-4.223c-.588 0-1.042-.15-1.36-.453-.54-.508-.81-1.064-.81-1.67m3.554 16.63c0 .81.2 1.407.597 1.79.7.667 1.344 1 1.933 1 .588 0 1.05-.06 1.383-.166.35-.11.652-.27.907-.477.556-.446.835-1.034.835-1.766V24.05H32.17c-.81 0-1.416.2-1.813.596-.684.684-1.026 1.424-1.026 2.22v3.196M14.42 10.783c.398 0 .787.06 1.17.167.38.112.74.287 1.073.525.763.557 1.145 1.328 1.145 2.314 0 .795-.207 1.39-.62 1.79-.716.682-1.384 1.024-2.004 1.024-.796 0-1.52-.254-2.17-.763a3.063 3.063 0 0 0-1.72-.5c-.635 0-1.136.207-1.502.62-.366.398-.55.907-.55 1.527v16.867c0 .763-.198 1.352-.595 1.765-.716.7-1.368 1.05-1.956 1.05-.572 0-1.033-.08-1.383-.24a2.795 2.795 0 0 1-.883-.596c-.557-.557-.835-1.217-.835-1.98V13.646c0-.78.206-1.384.62-1.813.667-.7 1.304-1.05 1.908-1.05.62 0 1.08.07 1.384.215.302.127.556.278.763.453.286.256.493.518.62.79.128.253.23.444.31.57.096.128.24.192.43.192.207 0 .374-.06.5-.19l.43-.406c1.24-1.082 2.53-1.623 3.865-1.623"/></svg>