<svg xmlns="http://www.w3.org/2000/svg" viewBox="0 0 321.6 90.9"><path d="M115.9 40.11v-4.39h-6.7c-8.2 0-10.55-.51-10.55 8.01v24.64h5.05l-.1-28.26h12.3zm8.2-4.5v4.75c12 0 14.2.56 14.2 6.81h-9.1c-6.9 0-10.8 1.29-10.8 10.72 0 1.84.1 3.36.5 4.62 1.3 4.82 5.1 5.72 10.1 5.72 3.5 0 7.6-.13 9.2-4.03v4.16h5.1V46.62c0-11.22-7.9-11.01-19.2-11.01m12.1 26.9c-1.5 1.16-3.8 1.2-6.1 1.2-2.5 0-4.3-.1-5.4-1.2-.8-.9-1.2-2.48-1.2-5.23 0-5.22 1.9-5.62 6.6-5.59h8v6.02c0 2.49-.8 3.95-1.9 4.81zM171 23.76v11.85h-9.8c-10.8 0-11.9 6.79-11.9 16.41 0 4.16.2 7.74 1.3 10.49 1.5 3.67 4.4 5.83 10.6 5.83 8.8 0 9.8-4.62 9.8-4.62v4.64h5v-44.6h-5zm-2.7 38.75c-1.2.81-2.9 1.11-5.3 1.11-2.5 0-4.3-.2-5.5-1.11-1.9-1.36-2.6-4.27-2.6-10.4 0-10.38 1.5-11.55 8.1-11.55h8V52.1c0 5.88-.5 8.96-2.7 10.41zm52.9-26.93h-4.8L211 58.55l-7.6-22.97h-4.1l-7.5 22.97-5.7-22.97h-5.2l8 32.74h4.7l7.6-24.67 7.6 24.67h4.7l7.7-32.74zm7.1 0v4.75c12 0 14.2.56 14.2 6.81h-9.1c-6.9 0-10.8 1.29-10.8 10.72 0 1.84.1 3.36.5 4.62 1.3 4.82 5.1 5.72 10.1 5.72 3.5 0 7.6-.13 9.2-4.03v4.16h5.1V46.59c0-11.22-7.9-11.01-19.2-11.01m12.1 26.9c-1.5 1.16-3.8 1.2-6.1 1.2-2.5 0-4.3-.1-5.4-1.2-.8-.9-1.2-2.48-1.2-5.23 0-5.22 1.9-5.62 6.6-5.59h8v6.02c0 2.49-.8 3.95-1.9 4.81zm29.8-22.4v-4.39h-6.7c-8.2 0-10.5-.51-10.5 8.01v24.64h5l-.1-28.26h12.3zm16.2-4.99c-13.3 0-17.5 17.69-11.2 27.39h.1-.1c2.5 3.78 6.6 6.35 12.4 6.19 5.7-.16 9.6-1.92 11.3-2.69v-5.27c-.8.53-2.2 1.19-4 1.76-3.7 1.24-8.9 2.03-12.6 0-2.8-1.49-4.7-4.5-4.7-9.98h21.9s2.6-17.42-13.1-17.42m-8.8 12.75c.4-2.79 2.3-8.3 9.1-8.3s7.8 5.31 7.9 8.3h-17zM62.83 55.33c3.13.61 5.49 3.38 5.49 6.69 0 3.78-3.06 6.84-6.83 6.84s-6.83-3.06-6.83-6.84c0-3.31 2.37-6.08 5.5-6.69h2.67zm-19.17 0c.44-.14.88-.14 1.33-.14.47 0 .91 0 1.33.14h-2.66zm16.5 0c.44-.14.88-.14 1.34-.14.45 0 .9 0 1.33.14h-2.67zm-5.49-26.58c0-3.77 3.05-6.83 6.83-6.83 3.77 0 6.82 3.06 6.82 6.83s-3.05 6.83-6.82 6.83c-3.78 0-6.83-3.06-6.83-6.83m-25.85-6.83c-3.77 0-6.82 3.06-6.82 6.83s3.05 6.83 6.82 6.83c3.77 0 6.84-3.06 6.84-6.83s-3.07-6.83-6.84-6.83zm0 1.95c2.69 0 4.88 2.19 4.88 4.88s-2.19 4.88-4.88 4.88-4.88-2.19-4.88-4.88 2.19-4.88 4.88-4.88zm16.21-1.95c-3.77 0-6.84 3.06-6.84 6.83s3.07 6.83 6.84 6.83 6.82-3.06 6.82-6.83-3.05-6.83-6.82-6.83zm0 1.95c2.69 0 4.87 2.19 4.87 4.88s-2.18 4.88-4.87 4.88-4.88-2.19-4.88-4.88 2.19-4.88 4.88-4.88zm33 14.66c-3.77 0-6.83 3.06-6.83 6.83s3.06 6.84 6.83 6.84c3.78 0 6.83-3.07 6.83-6.84s-3.05-6.83-6.83-6.83zm0 1.96c2.7 0 4.88 2.18 4.88 4.87 0 2.71-2.18 4.88-4.88 4.88-2.69 0-4.87-2.17-4.87-4.88a4.87 4.87 0 0 1 4.87-4.87zm-23.36 4.87c0-3.77 3.05-6.83 6.83-6.83 3.77 0 6.82 3.06 6.82 6.83s-3.05 6.84-6.82 6.84c-3.78 0-6.83-3.07-6.83-6.84m16.5-16.61c0-3.77 3.06-6.83 6.83-6.83s6.83 3.06 6.83 6.83-3.06 6.83-6.83 6.83-6.83-3.06-6.83-6.83M43.66 55.33c-3.14.61-5.5 3.38-5.5 6.69 0 3.78 3.06 6.84 6.83 6.84s6.83-3.06 6.83-6.84c0-3.31-2.36-6.08-5.5-6.69h-2.66zm1.33 1.82c2.69 0 4.88 2.18 4.88 4.87a4.88 4.88 0 0 1-9.76 0c0-2.69 2.19-4.87 4.88-4.87z"/></svg>