<svg xmlns="http://www.w3.org/2000/svg" viewBox="0 0 420 534"><path d="M260.3 35.83l7 16.65 21.7.48-4.6-15.19-24.1-1.94zm-58.9 11.58l-20 11.83 2.6 2.84 14 15.27 5.6-3.58 12.1-7.78-14.3-18.58zm149 10.14v9.41l13.1 8.11 6.4 3.97.7-7-14.8-10.59-5.4-3.89zm-70.1 3.28C207.9 61.9 87.4 133.6 69.62 396.6H244.7C205.4 294.9 210 218.2 237 166.2c24.7-47.7 57.1-67.34 91.4-67.3 19.1 0 38.8 6.18 58 16.98v-.1c1 .5 1.9 1.1 2.8 1.6 1.9-4.6 4.6-10.4 4.6-10.4-8.3-7.98-16.5-14.84-25-20.64-.3-.21-.6-.43-.9-.63-.6-.41-1.2-.8-1.8-1.2-.2-.17-.5-.35-.8-.53-.7-.43-1.3-.86-2-1.28-.2-.11-.3-.22-.5-.33-.8-.47-1.6-.94-2.3-1.4-20.7-12.3-43.5-18.6-73.3-20.05-2.2-.11-4.5-.15-6.9-.11zM125.4 104.9l-15.5 21 24.4 15.2 13.3-19.8-22.2-16.4zm223 4.2l.5 9.3 14.8.7.2-6.9-15.5-3.1zm-41.9 2.9l-14.1 5.3 6.5 15.6 12.1-6.6-4.5-14.3zm-43.8 28.9l-9.9 11.7 13.3 18.3 8.2-12-11.6-18zm-27.8 53.6l-5 17 17.9 16.5 4.4-15.9-17.3-17.6zm-166 .4l-9.42 27.5L87.97 233l8.68-26-27.75-12.1zm155.3 63.3l.4 19.4 26.1 11.9-2.7-18.6-23.8-12.7zM35.67 306.3L27.82 336l-1 3.8 33.95 3.9 7.41-31.6-32.51-5.8zm198.93 32.9l8 23 30.5 2.6-8.2-19.9-30.3-5.7zm-93.4 86c-9.5 0-19.4 8.8-19.4 20.2v57.2h20.6v-15.1h18.5v15.1h20.9v-57.4c0-11.2-10.2-20-21.6-20h-19zm62.9.2v77.5h20.7v-77.5h-20.7zm43.2 0v77.5h51.8v-20.8H268v-56.7h-20.7zm84.8.1c-12.4 0-21 9.9-21 19.8v8.2c0 12 10.8 20.3 20.8 20.3h18.7v9.4h-38.1v19.6h37.6c11.2 0 21.4-8.5 21.4-18.7v-10.3c0-12.4-9.9-20.6-19.1-20.6h-20.2v-8.5h35.4v-19.2h-35.5zm-292.89.1V503h20.92v-22.6l16.9 22.6h25.07l-19.61-26.1s17.06-3.4 17.06-19.1v-12.9c0-6.9-6.87-19.3-19.43-19.3H39.21zM59.97 446h18.99v15.6H59.97V446zm82.43 0h18.5v20.8h-18.5V446z"/></svg>