<svg xmlns="http://www.w3.org/2000/svg" viewBox="0 0 177 70"><path d="M137.3 20.89c7.9 0 14.1 6.25 14.1 14.11 0 7.86-6.2 14.11-14.1 14.11-7.9 0-14.1-6.25-14.1-14.11 0-7.86 6.2-14.11 14.1-14.11zm0-12.97c-14.9 0-27.1 12.2-27.1 27.08 0 14.88 12.2 27.08 27.1 27.08 14.9 0 27.1-12.2 27.1-27.08 0-14.88-12.2-27.08-27.1-27.08zm-76.53.4v11.55h14.88c3.09 0 5.94.31 8.31 1.13 2.06.72 3.84 1.68 5.05 2.85 1.12 1.07 2.19 2.7 2.84 4.42.68 1.77 1.04 4.12 1.03 6.53 0 2.32-.34 4.63-1.01 6.4-.67 1.79-1.75 3.48-2.89 4.62-1.28 1.28-3.08 2.33-5.09 3.08-2.34.87-5.12 1.22-8.06 1.21h-2.29V35.1H60.57v26.58h15.96c4.24 0 8.77-.39 13.26-1.88 3.42-1.13 6.99-2.82 10.08-5.58 2.73-2.44 4.83-5.45 6.23-8.75 1.5-3.53 2-7.2 2-10.65 0-3.48-.5-7.24-2.1-10.87-1.4-3.29-3.5-6.26-6.28-8.63-3.16-2.73-6.75-4.27-10.08-5.3-4.51-1.407-9-1.7-13.15-1.7h-.84zm-48.13 0v11.55h20.87c4.44 0 6.87.99 8.03 2 1.28 1.1 1.89 2.23 1.89 5.12 0 1.5-.23 2.67-.61 3.66-.33.87-.75 1.47-1.41 2.06-.46.43-1.78 1.2-2.91 1.58-1.35.46-3.06.68-4.97.68H12.65v26.58h12.96V46.51h7.59c2.1.9 4.02 2.23 5.55 3.9 2.04 2.21 3.45 5.04 4.03 8 .19 1.03.29 2.09.3 3.14H58.27c0-1.63-.23-3.26-.67-4.84-1.51-5.51-5.55-10.01-10.77-12.18 1.84-.75 3.63-1.75 5.3-3.18 2.08-1.75 3.73-4 4.76-6.51 1.03-2.4 1.51-5.09 1.51-7.84 0-5.42-2.23-10.71-6.39-14.03-4.26-3.433-9.84-4.65-16.22-4.65h-2.28z"/></svg>