<svg xmlns="http://www.w3.org/2000/svg" viewBox="0 0 398.4 135"><path d="M390.4 97.65c0 1.4-1.2 2.45-2.6 2.45-1.3 0-2.6-1.05-2.6-2.45 0-1.36 1.3-2.54 2.6-2.54 1.4 0 2.6 1.18 2.6 2.54zm.6 0c0-1.74-1.4-3.11-3.2-3.11-1.7 0-3.1 1.37-3.1 3.11 0 1.7 1.4 3.05 3.1 3.05 1.8 0 3.2-1.35 3.2-3.05m-3.2-.2c.5 0 .8 0 .8-.5 0-.48-.3-.48-.7-.48h-.6v.98zm-.5.3v1.5h-.5V96h1.2c.7 0 1.1.29 1.1.95 0 .6-.4.8-.8.8l.9 1.5h-.5l-.9-1.5h-.5m-21.5-47.54v7.76h-7v3.39h7v26.59c0 4.33.7 7.96 2.6 10.1 1.7 1.95 4.2 2.95 7.2 2.95 2.7 0 4.5-.4 5.9-1l-.5-3.15c-1.1.4-2.6.7-4.8.7-4.5 0-6.2-3.29-6.2-8.75V61.36h11.9v-3.39H370v-9.3zm-16.5 36.42c0 .75-.2 1.7-.5 2.54-1.4 4.15-5.5 8.48-12.5 8.48-4.4 0-8.4-2.64-8.4-8.85 0-10.06 12.1-11.46 21.4-11.19zm4 3.49V73.69c0-7.55-2.2-16.69-14.5-16.69-3.8 0-8.5 1.04-12.2 3.65l1.3 3.03c3-2.14 6.8-3.14 10.4-3.14 10-.1 11 8.26 11 12.43v1.13c-17.3-.18-25.8 5.65-25.8 15.36 0 5.74 3.9 11.54 12.4 11.54 6.7 0 11.4-3.65 13.4-6.83h.2l.6 5.93h3.9c-.5-3.15-.7-6.59-.7-9.98m-37.4-15.41v25.39h-4.1V75.18c0-7.61-2.9-14.53-11.6-14.53-6 0-10.9 4.31-12.7 9.55-.5 1.25-.7 2.45-.7 4.17v25.73h-4.1V44.55l4.1 1.24v19.72h.3c1.1-2.34 3.1-4.61 5.6-6.08 2.5-1.49 5.3-2.43 8.5-2.43 4.1 0 14.7 2 14.7 17.71zm-42.8 13.62c0 4.33.1 8.92.3 11.77h-9.5l-.5-6.59h-.1c-2.6 4.74-7.6 7.49-13.7 7.49-10.1 0-18-8.53-18-21.4-.1-14.16 8.7-22.55 18.8-22.55 5.8 0 9.9 2.38 11.8 5.49h.3V38.77l10.6 3zm-10.6-12.77c0-.85-.1-1.91-.3-2.78-1-4.1-4.4-7.48-9.2-7.48-6.8 0-10.7 6.05-10.7 13.91 0 7.7 3.9 13.36 10.6 13.36 4.3 0 8.2-3.02 9.2-7.64.3-.93.4-1.87.4-3.04zm-64-1.03c.5-4.33 3.2-10.27 9.8-10.27 7.2 0 8.9 6.36 8.9 10.27zm0 7.36l28.3.1c.2-.97.4-2.53.4-4.5 0-9.22-4.5-20.49-18.2-20.49-13.6 0-20.6 11-20.6 22.62 0 12.85 8 21.28 21.7 21.28 6.2 0 11.1-1.15 14.7-2.65l-1.6-7.29c-3.2 1.13-6.7 1.89-11.6 1.89-6.7 0-12.7-3.3-13.1-10.94M162 100.1h10.7V78.31c0-1.15 0-2.28.3-3.21 1-4.83 4.4-8.05 9.5-8.05 1.3 0 2.2.1 3.2.29V57.3c-.8-.23-1.4-.23-2.5-.23-4.5 0-9.4 3.03-11.5 8.96h-.4l-.4-8.01h-9.1c.2 3.76.3 7.91.3 13.55zm-28.7-2.45c0 1.4-1.2 2.45-2.6 2.45-1.4 0-2.5-1.05-2.5-2.45 0-1.46 1.1-2.54 2.5-2.54s2.6 1.08 2.6 2.54zm.5 0c0-1.74-1.4-3.11-3.1-3.11-1.7 0-3.1 1.37-3.1 3.11 0 1.7 1.4 3.05 3.1 3.05 1.7 0 3.1-1.35 3.1-3.05m-3.1-.2c.4 0 .8-.1.8-.5 0-.48-.4-.48-.7-.48h-.7v.98zm-.6.3v1.5h-.5V96h1.3c.7 0 1 .29 1 .95 0 .6-.2.8-.7.8l.8 1.5h-.5l-.8-1.5h-.6"/><path class="only-light-background" d="M69.25 6.142C35.28 6.142 7.72 33.69 7.72 67.67c0 6.88 1.13 13.48 3.21 19.62h4.28c3.8 0 7.32-.85 10.28-2.45.75-.38 1.59-.56 2.49-.56 1.89 0 3.51.65 4.55 2.35.88 1.6 1.71 2.45 2.73 3.11.87.56 2.08 1.04 3.79.94.81-.1 2.04-.19 2.34-1.04.35-.94-.1-1.78-1.26-2.26-1.66-.66-2.11-1.69-3.01-3.23-.87-1.48-2.79-2.42-3.09-5.33-.29-2.91 1.99-6.57 6.48-5.4 3.26.84 5.35 4.86 6.15 6.26.41.7 1.86 1.55 3.04.46 1.18-1.08 2.26-1.08 3.14.32.76 1.12 6.3 8.53 12.29 8.71 6.09.19 9.32-1.31 11.99-1.31 1.86.1 2.76 1.03 3.82 1.22 1.86.28 3.19-1.41 5.22-1.32 1.63.1 3.55 1.23 5.35 1.23 1.9 0 5.8-2.27 5.7-1.32-.1 1.6-1.3 4.52-1.6 5.84-.2.94 0 3.15-.7 4.94-.4 1.85-2.1 4.15-2.6 4.75-1.5 2.3-2.6 3-3.8 5.4-1.34 2.6-3.6 5.1-4.15 5.9-.78 1 4.25-.1 6.05-1.8 1.4-1.4 4.1-5.7 8.3-6.6 2.79-.6 3.39-1.7 3.09-2.7-.1-.1-.1-.2-.1-.4 0-.4.2-.7.6-.8 2.8-1.3 6.8-2 11.2-2 2.4 0 5.3.4 7.4.8 6.2-9.47 9.8-21.01 9.8-33.33 0-33.98-27.5-61.528-61.45-61.528zm9.24 12.688c4.23-.16 8.29 1.05 10.82 3.66 3.5 3.61 8.4 14.74 10.69 23.07 1.1 4.23.9 6.25.2 7.68-.39.98-.59 1.6-2.09 4.08-.3.43-.1.91.6.62 2.29-1.23 4.19-2.84 5.29-6.63 10.4 2.35 16.5 7.8 15.2 15.15-2.9 16.13-29.39 21.58-55.14 13.84-24.55-7.43-46.11-22.25-43.61-30.93 1.45-5.04 9.46-7.2 20.14-6.04-1.62 3.29-1.5 7.18 5.57 11.5 8.63 4.91 23.23 9.1 27.18 8.69 1.48-.16 2.79-.88 1.48-1.77-1.33-.88-2.5-2.65-3.25-5.74-.4-1.73-.88-4.13-10.15-5.89-19.91-3.79-19.15-9.42-18.55-12.66 0 0 1.76-7.95 2.49-10.75.74-2.8 2.64-9.22 15.47-6.33 7.41 1.67 11.4-.41 13.44-.93 1.4-.36 2.81-.57 4.22-.62zM80 21.69c-.77 0-1.54 0-2.41.11-2.35.24-4.38.86-5.78 1.55-.23.11-.21.43.1.35.22 0 .84-.1 1.25-.16 3.82-.38 7.03.25 7.19 1.42.11.87-1.54 1.81-4 2.37-.12 0-.21.14-.21.27 0 .12.1.26.21.26 1.02.29 2.23.51 3.5.51 3.91.1 7.1-1.34 7.19-3.18.1-1.84-3.04-3.43-7.02-3.5zm2.65 73.65c-.1 0-.1 0-.16.1-.76.94-1.1 1.22-1.68 1.71-1.39 1.1-2.97-.2-3.99-.77-2.26-1.27-4.08-.47-4.52.57-.45.9.1 2.3 1.28 2.1 1.72-.3 1.8.1 3.04.8 2.33 1.45 4.01.65 4.88-.1.72-.5 1.15-1 1.46-1.7.71-1.29.16-2.33-.16-2.61 0-.1-.1-.1-.15-.1z"/></svg>