<svg xmlns="http://www.w3.org/2000/svg" xmlns:xlink="http://www.w3.org/1999/xlink" viewBox="-95 -125 560 61.1">
  <path d="M399-123.1c-2.6 2.6-2.6 6.9 0 9.4c2.6 2.6 6.9 2.6 9.5 0c2.6-2.6 2.6-6.9 0-9.4 C406-125.6 401.6-125.6 399-123.1z M-68.6-90.4V-106h-10.8v15.6H-95v10.8h15.6V-64h10.8v-15.6H-53v-10.8H-68.6z M-19.8-99.6v-6.8 h-10.4v41.7h10.4v-14.8c0-12.7 4.7-18.4 11.3-18.4c1.6 0 3.1 0.4 4.4 1.2l1.9-9.5c-1.8-0.6-3.5-0.8-5.1-0.8 C-12.2-107-16.8-104.3-19.8-99.6z M26-107C11.5-107 5.7-95.4 5.7-85.5S11.5-64 26-64c9.2 0 15.6-4.1 19.2-12.2l-8.4-3.1 c-2.5 4.3-5.9 6.5-10.2 6.5c-6 0-9.7-4.4-10-9.4h29v-4.2c0-4.7-1.5-9.6-4.5-13.7C38.1-104.3 32.7-107 26-107z M16.8-90.3 c0.8-4.4 4.2-7.9 9.1-7.9s7.9 2.6 9 7.9H16.8z M83.2-107c-5.8 0-10.3 2.5-13.4 7.4v-23.6H59.4v58.6h10.4v-17.7c0-10.5 4.5-16 9.9-16 c4.2 0 6.3 2.5 6.3 7.4v26.2h10.4v-29.7C96.4-102.7 91.4-107 83.2-107z M127.4-107c-8.5 0-14.7 4.6-16.1 11.6l8.8 2 c1.1-3.2 3.5-4.8 7.3-4.8c4.9 0 7.4 2.1 7.4 6.1v1.8h-7c-10.7 0-18 5.4-18 13.7c0 8 5.4 12.7 12.8 12.7c5.4 0 9.7-2 13-6l1.1 5.3 h8.5v-25C145.1-101.2 139.2-107 127.4-107z M134.7-81.4c0 2.6-1 4.6-3 6.2c-1.9 1.6-4.2 2.4-6.8 2.4c-2.8 0-4.4-1.8-4.4-4.1 c0-3.6 2.4-5.4 7.2-5.4h6.9v0.9H134.7z M181.1-107c-4.1 0-8.3 2.1-10.2 4.5v-20.7h-10.4v58.6h10.4v-4.3c1.3 2.4 5.4 5 10.2 5 c12.4 0 19.3-8.4 19.3-21.5C200.4-98.7 193.5-107 181.1-107z M186.7-76.1c-1.8 2.2-4.2 3.4-7 3.4s-5.2-1.1-7-3.3 c-1.8-2.2-2.7-5.4-2.7-9.4c0-4.1 0.9-7.1 2.7-9.4c1.8-2.2 4.2-3.4 7-3.4s5.2 1.2 7 3.4c1.8 2.2 2.8 5.4 2.8 9.4 C189.5-81.5 188.6-78.4 186.7-76.1z M236.9-86.8c-1.3-0.7-2.3-1.3-3-1.6l-3.6-1.2l-3-1.1c-2.7-1-4-2.3-4-4.1c0-2.2 1.8-3.5 3.9-3.5 c2.8 0 5.1 1.2 7 3.6l6.2-5.6c-2.7-4.1-7.6-6.8-13.2-6.8c-3.9 0-7.2 1.2-9.7 3.6c-2.5 2.4-3.8 5.2-3.8 8.6c0 6 3.2 9 8.5 11.3 c1.6 0.7 4.5 1.6 5.9 2.2c0.8 0.2 1.6 0.6 2.3 1c1.6 0.7 2.3 1.8 2.3 3.1c0 3-1.8 4.5-5.2 4.5c-3.9 0-6.8-2.3-8.5-6.9l-8.3 4.4 c1.3 3 3.3 5.6 6.3 7.9c2.9 2.2 6.4 3.4 10.5 3.4c4.4 0 8-1.3 10.8-4.1c2.8-2.7 4.2-6 4.2-9.8c0-2.9-1.3-5.4-2.6-6.8 C239.3-85.4 238.3-86.1 236.9-86.8z M274-72.8c-3.7 0-5.5-1.8-5.5-6.8v-18h11.1v-8.8h-11.1v-16.8l-10.4 6.5v10.4h-6.5v8.8h6.5v18.2 c0 10.2 5.8 15.4 15.5 15.4c2.4 0 4.7-0.5 6.9-1.5l-2.4-8.3C276.7-73.1 275.4-72.8 274-72.8z M318.1-89.7c0 10.5-4.3 17-9.6 17 c-4 0-6-2.3-6-6.9v-26.8h-10.4v29.8c0 8.2 5.2 12.6 13 12.6c5.3 0 9.6-2.5 13.1-7.4v6.7h10.4v-41.7h-10.4v16.7H318.1z M372.1-102.5 c-1.9-2.5-6.1-4.5-10.2-4.5c-12.4 0-19.3 8.4-19.3 21.5c0 13.2 6.9 21.5 19.3 21.5c4.8 0 8.9-2.6 10.2-5v4.3h10.4v-58.5h-10.4 V-102.5z M370.3-76.1c-1.8 2.2-4.1 3.3-6.9 3.3s-5.2-1.2-7-3.4c-1.8-2.2-2.8-5.4-2.8-9.4s0.9-7.1 2.8-9.4c1.8-2.2 4.2-3.4 7-3.4 s5.2 1.2 6.9 3.4c1.8 2.2 2.8 5.3 2.8 9.4C373-81.4 372.1-78.3 370.3-76.1z M398.6-106.4H409v41.7h-10.4V-106.4z M459.2-100.9 c-3.9-4.1-9-6.1-15.7-6.1c-6.6 0-11.8 2.1-15.7 6.1c-3.9 4.1-5.8 9.2-5.8 15.4c0 6.2 1.9 11.4 5.8 15.5c3.9 4.1 9 6 15.7 6 c6.6 0 11.8-2 15.7-6c3.8-4.1 5.8-9.3 5.8-15.5C465-91.7 463.1-96.8 459.2-100.9z M451.3-76.4c-1.9 2.4-4.4 3.6-7.7 3.6 s-5.8-1.2-7.7-3.6c-1.9-2.5-2.8-5.5-2.8-9.1s0.9-6.6 2.8-9c1.9-2.5 4.4-3.7 7.7-3.7s5.8 1.2 7.7 3.7c1.9 2.4 2.8 5.5 2.8 9 C454.1-81.9 453.2-78.9 451.3-76.4z"></path></svg>