<svg xmlns="http://www.w3.org/2000/svg" viewBox="0 0 600 426"><path d="M372.2 35.73c-32.9 0-56.9 20.43-56.9 48.23 0 53.04 80.2 50.54 80.2 79.74 0 13.2-11.4 20.3-24.4 20.3-23.9 0-41.5-20.3-41.5-20.3l-17.7 22.1s20.8 26.4 58.6 26.4c35.9 0 56.7-23.1 56.7-50.1 0-56.2-80.1-50.5-80.1-79.5 0-10.72 10.4-18.25 24.9-18.25 11.3 0 22.7 5.33 22.7 13.26v7.72H423V69.38c0-24.28-30.8-33.65-50.8-33.65zM51.5 38.58v26.76h15.59V185.8H15.71v26.9H31.3v127.7c0 11.5 4.86 16.2 16.43 16.2h65.07l-.4 3.6s.1.2.3.2l-.3-.1s.8.9 1.6 1.5c3.7 3.6 15.6 14.8 35.4 26.5 20.8 12.8 49.1 26.5 81.8 32.6 46.6 8.9 73.6 8.9 95.9 1.9h2.5c8.8-2.9 16.9-6.8 25.4-11.8 6.2-3.9 12.3-7.9 19.2-12.8l107.2-70.4c.4-.2.7-.4 1.1-.5 1.9-1.1 3.5-1.1 5.3-.4.2.2.2.2.4.2.4.4 1.1.7 1.9 1.3l1.4.9 1.9 1.1 16-22.9-9.7-6.6c4.1-8.3 6.3-17.3 6.3-26.2 0-2.7-.4-5.2-.7-7.9l-5.2 7.6c.2 10.8-2.9 21.9-9.8 31.7-17.3 24.7-51.2 30.7-76 13.4-3.2-2-6.2-4.7-8.7-7.3 2.7.5 6.4 1 10.7 1h.2c10.3 0 23.8-3 35.5-15 3.3 1.9 5.9 2.9 6 2.9l1.7-5.7s-.6-.3-1.4-.6c-3-1.1-8.6-4.5-9.3-8.9l-5.7.9c.5 3.3 2.1 5.7 3.9 7.8-10 10.2-21.8 12.6-30.9 12.6-4.2 0-7.7-.4-10.2-1-1.3-.1-2.2-.6-2.9-.8-.7-.1-4.2-1.8-4.2-1.8s.6 1-.2-.5c-4.5-7.1-7.1-15.3-7.9-23.5l-7.7-4.9 9.3-13.6c1.6-6.2 4.3-12.2 8.2-17.7 6.3-8.9 14.5-15.4 23.9-19.2 0 0 1.4-.5 2.1-.7l64 32.2-12.3 18.8 13.3 8.6 8.1-12c0 1.1.1 2.4.1 3.6l5.4-7.9 12.8-18.6-8.5-4.6-41.2-51.7-14 11.2 12.9 16.4c-5.2-2.2-10.6-3.2-16.1-3.8l-29.3-14.6-8.2 16 8.3 4.1c-6.8 3-12.9 7.4-18.1 13l-6.9-4.9-16.1 23 3.2 2.2c1.3.9 2.6 2 3.7 3l-12.4 19.3 10 5.3-11.1 51.4c-9.6 13-20.3 22.8-29.9 30-7.2 5.7-14.1 9.8-18.9 12.4-2.4 1.4-4.3 2.4-5.5 2.9-.3.2-.5.2-.7.3-6.6.8-88.3 10.2-170.3-14.7-.9-9.6-.4-22.5-1.7-37.7-1.8-19.2-7.4-27.1-9.7-27.5-1.7-.3-8.7 15.4-8.8 25.8h-4.4c-3.8-11.8-8.3-16.3-10-16.3-1.4 0-4.5 12.4-3.2 20.3-.9.6-2.1 1-3.6 1H68.19c-3.42 0-5.36-2-5.36-5.3v-40.6h55.27v-26.8H62.83v-44.6h38.57c3.3 0 5.2 1.8 5.2 5.2v10.4h28.7v-26c0-11.5-5.1-16.5-16.5-16.5H98.65v-40.1h15.85c8.9 0 12.5 1.1 16.2 8l21.8 43c5.5 10.8 11.1 12.8 23.8 12.8h16.5v-26.7h-3c-5.4 0-9.4-.5-12-5.6l-16.6-33c-3.2-6.2-8.6-8.6-8.6-8.6v-.5c7.3-1.5 28.6-14.1 28.6-44.99 0-32.27-22-51.53-53.3-51.53zm130.9 0v26.76H198V193.1c0 11.5 4.9 16.4 16.4 16.4h77.4c11.5 0 16.5-4.9 16.5-16.4v-26h-28.7v10.4c0 3.4-1.9 5.3-5.3 5.3h-39.4c-3.4 0-5.3-1.9-5.3-5.3v-40.7h55.3v-26.6h-55.3V65.34h38.5c3.4 0 5.3 1.88 5.3 5.23v10.32H302V54.97c0-11.35-5.1-16.39-16.3-16.39zm261.7 1.99c-11.6 0-15.4 4.04-15.4 15.4v26.97h27.7V72.49c0-3.3 1.9-5.27 5.1-5.27h26.3l-.2 145.58 22.9 28.8 8.4 4.3h.5V67.22h26.2c3.4 0 5.3 1.97 5.3 5.27v10.45h27.7V55.97c0-11.36-3.9-15.4-15.5-15.4zM98.65 65.34H124c15.5 0 24.9 9.58 24.9 26.48 0 17.08-9.4 26.88-25.3 26.88H98.65zM201.6 231c-12.6 0-44.9 2.6-44.9 25.3v13.1h28.4v-6.6c0-6.7 10.7-8.2 16.4-8.2 15.6 0 22.7 6.6 22.7 24.1v1.1h-3.9c-20.2 0-73 3-73 41.5 0 24.5 19.9 38.3 41.8 38.3 27.8 0 37.1-21.6 37.1-21.6h.5s-.3 2.1-.3 5.3c0 7.2 4.5 13.3 15.8 13.3h27.4V331h-9.7c-3.4 0-5.3-1.9-5.3-5.2V280c0-27.6-12.1-49-53-49zm121.9 0c-25.5 0-47.7 11.4-47.7 35.9 0 39.7 64.8 39.6 64.8 56.8 0 8.2-7.2 12-16.5 12-21.1 0-36.7-18-36.7-18L273 337.8s17.2 21.8 51.1 21.8c26.6 0 47-14.5 47-37.5 0-40.9-65.3-37-65.3-56.2 0-7.3 7.4-11.3 18.4-11.3 6.7 0 15.3 2.9 15.3 8.6v6.2h27v-12.8c0-20-26.4-25.6-43-25.6zm89.9 28.1c.2 5.6 3.7 15.9 11.3 18.7 7.7 2.9 17-2.5 20.9-6.6-4.8 1.4-10.6 5.4-18.6 2.3-9.1-3.5-10.8-10.3-13.6-14.4zm-194.1 41.6h5.3v2.7c0 15.1-11.5 32.3-28 32.3-12.5 0-18.5-7.7-18.5-15.9 0-16.9 25.2-19.1 41.2-19.1zm193.5 22.1l.3.4c.7.5 1.5 1 2.1 1.3l2.7 8.4-2.5 1.8-2.2 1.6c-5.7 4.2-13.5 11.8-13.6 11.8l-.4-.2s4.6-10.1 6.3-17l1.1-5.1zm-41.4 23.8l-4.6 22.1-.1.1-25.4 17.5c-.6 0-1.1 1-1.6 1-3.9 2.9-8.8 5.9-15.5 9.9l-2.4-12.3v-.4c6.2-2.9 28.9-14.2 49.6-37.9z"/></svg>