<svg xmlns="http://www.w3.org/2000/svg" viewBox="0 0 1535.7 268.8"><path d="M477.66 245.95c-27.93-2.51-44.83-14.34-47.46-33.21l-.66-4.75h52.76l1.43 3.25c1.88 4.28 6.02 6.11 13.52 6 6.31-.1 12.43-2.06 15.73-5.04 4.12-3.72 7.53-12.88 10.07-27.05l.6-3.35-3.25 2.14c-6.51 4.28-16.37 8.83-21.54 9.92-7.51 1.6-23.73 1.4-30.52-.37-8.04-2.09-13.21-4.95-19.18-10.59-9.3-8.8-13.47-20.14-13.49-36.7 0-23.91 8.5-45.68 23.99-61.24 8.25-8.29 19.1-14.7 29.6-17.5 8.37-2.23 25.47-2.22 31.9 0 7.07 2.46 15.13 8.07 18.83 13.12 1.74 2.37 3.45 4.32 3.8 4.34.34 0 1.19-3.56 1.87-7.96l1.24-8h46.81l-.54 2.25c-.3 1.24-4.82 27-10.04 57.26-5.23 30.27-10.67 59.91-12.1 65.88-7.89 33.07-26.71 48.4-63.37 51.61-12.71 1.12-17.44 1.12-30 0zm38.73-89.32c7.88-4.08 14.34-14.74 16.23-26.82 1.82-11.58-1.66-21.33-8.98-25.14-4.81-2.51-15.36-1.85-20.4 1.26-8.02 4.96-13.96 18.75-14.02 32.56-.1 10.28 2.49 15.68 8.75 18.62 4.9 2.3 13.48 2.08 18.42-.48zM37.274 117.24c8.4-48.26 15.54-89.22 15.863-91.01l.588-3.25h50.715c61.93 0 73.94 1.1 88.7 8.07 8.12 3.83 12.51 7.69 16 14.07 2.53 4.63 2.98 6.64 3.3 14.85.99 25.26-10.35 46.47-29.81 55.78l-8.04 3.84 5.39 2.24c7.52 3.11 13.13 8.2 15.33 13.91 2.68 6.95 2.32 21.09-1.05 41.25-2.86 17.14-2.67 21.99.86 21.99 1.67 0 1.78.43.89 3.75l-.6 2.25h-61.08l.63-11.25c.35-6.19 1.32-15.07 2.15-19.75 3.1-17.25 1.49-25.51-5.68-29.23-6.51-3.38-37.25-5.33-38.368-2.44-.28.73-2.866 15.02-5.744 31.75l-5.234 30.42-30.042.26-30.042.27zM140.82 99.03c10.08-3.15 14.58-9.84 13.58-20.2-.57-5.95-3.18-9.07-9.66-11.57-3.76-1.45-7.71-1.78-21.6-1.78h-17l-2.7 15.5c-1.48 8.53-2.72 16.81-2.75 18.4v2.9l16.75-.58c12.93-.45 18.27-1.06 23.43-2.67zm64.82 105.55c0-.86 29.23-106.14 29.66-106.85.26-.41 9.04-.75 19.52-.75h19.05l-.52 2.25c-.29 1.24-3.82 25.54-7.85 54.01l-7.32 51.75H231.9c-14.44 0-26.26-.18-26.26-.41zm68.62-1.34c.56-2.31 22.39-129.54 22.39-130.51 0-.41 10.8-.75 24-.75 27.29 0 24.81-1.03 22.97 9.57-.56 3.26-1.25 6.96-1.53 8.22-.39 1.82 1.16.86 7.42-4.55 14.05-12.14 24.47-16.24 41.3-16.24 16.25 0 25.8 3.09 32.99 10.67 7.57 7.96 10.46 18.25 9.59 34.09-.41 7.45-10.63 70.58-14.32 88.5l-.57 2.75h-52.89l.51-2.25c2.26-10.11 12.53-72.91 12.53-76.61 0-7.17-3.48-13.31-8.5-14.99-8.61-2.87-20.41.72-24.96 7.61-4.12 6.24-5.31 11.16-11.59 47.62-3.32 19.32-6.28 35.91-6.56 36.87-.48 1.61-2.64 1.75-26.86 1.75-24.58 0-26.31-.12-25.92-1.75zm379.88.78c-26.24-3.74-45.12-15.96-54.28-35.13-5.29-11.09-7.19-20.11-7.19-34.22 0-54.22 34.21-98.58 83.99-108.92 12.54-2.6 36.25-2.04 48.52 1.15 29.49 7.67 45.42 28.28 45.48 58.83v8.25H716.89l-.39-6.86c-.46-8.48-3.59-13.73-10.56-17.83-4.32-2.54-5.66-2.81-14.27-2.81-11.41 0-16.42 2.01-24.07 9.67-14.79 14.78-23.92 57.72-15.69 73.71 4.75 9.24 15.41 14.08 28.08 12.75 12.12-1.26 20.98-8.19 27.33-21.37l3.49-7.25h26.94c14.81 0 26.93.21 26.93.48 0 .26-1.15 3.52-2.55 7.25-14.56 38.7-46.94 61.55-88.96 62.78-7.15.21-15.71 0-19.03-.48zm170.08-.14c-14.7-2.14-26.05-7.33-35.14-16.06-11.5-11.04-16.03-23.64-15.05-41.83 1.22-22.87 9.88-41.55 26.52-57.25 12.4-11.69 29.9-19.99 48.19-22.84 9.16-1.43 27.27-.65 35.45 1.52 21.83 5.8 36.49 20.29 42.03 41.56 1.87 7.19 2.44 23.19 1.15 32.26l-.82 5.75H825.68v5.66c0 7.47 3.32 13.27 9.74 17.04 9.34 5.47 25.3 2.57 31.42-5.7l2.22-3h50.68l-1.66 3.25c-8.6 16.83-25.63 30.06-46.45 36.09-14.66 4.25-33.13 5.63-47.41 3.55zm54.46-86.65c0-4.61-1.93-10.02-4.74-13.36-10.27-12.2-33.69-7.28-41.17 8.64-3.72 7.91-5.02 7.47 21.91 7.47h24.01v-2.75zm44.41 85.01c.3-1.51 5.28-30.43 11.07-64.25 5.79-33.84 10.76-62.52 11.05-63.76l.52-2.25h23.98c13.19 0 24.02.11 24.02.25s-.72 4.08-1.54 8.75c-.82 4.67-1.5 9.1-1.5 9.83 0 .73 3.34-1.65 7.24-5.3 8.17-7.49 19.57-13.73 28.47-15.56 6.5-1.36 25.7-.79 31.3.92 6.5 1.99 14.2 7.45 17.7 12.48 9 13.22 8.9 23.51-.9 79.64l-7.3 41.5-26.3.27c-18.6.19-26.2-.1-26.2-.84 0-.61 2.7-16.48 5.9-35.27 3.3-18.79 6.2-36.1 6.6-38.45.9-5.96-1-13.4-4.4-16.66-2.1-1.99-4.2-2.82-8.2-3.23-13-1.33-22.09 5.49-25.86 19.47-1.08 4.05-13.05 72.06-13.05 74.21 0 .64-9.49 1-26.58 1h-26.58zm193.61 1.83c-10-1.47-14.3-3.13-18.1-6.96-7.6-7.62-7.6-16.99 0-60.62 2.8-15.96 5.4-30.25 5.7-31.76l.6-2.75H1086l2.6-15.25 2.6-15.25 9.7-.28c9.6-.29 9.7-.3 10.2-3 1.1-5.15 6.6-36.49 6.6-37.35 0-.48 11.7-.87 26-.87s26 .34 26 .75-1.6 9.53-3.5 20.25c-1.9 10.73-3.5 19.61-3.5 19.75 0 .14 5.6.25 12.5.25 7.4 0 12.5.4 12.5.97 0 .54-1.1 7.39-2.5 15.23-1.4 7.84-2.5 14.36-2.5 14.49 0 .14-5.7.38-12.7.53l-12.7.28-4.8 27.5c-6.1 35.69-6.1 36.01 10.2 36.01 5.1 0 8 .39 8 1.09 0 1.62-6.1 36.36-6.5 36.71-.7.75-42.6 1-47.5.28zm59.5-1.33c.5-2.05 22.5-129.63 22.5-130.42 0-.19 10.8-.34 24-.34s24 .11 24 .25-.9 5.43-2 11.75c-2.6 15.16-2.6 15.35 1.6 8.98 10.5-16.07 24.2-23.98 41.6-23.98 7.3 0 8 .17 7.6 1.85-.3 1.02-2.5 12.95-4.9 26.53l-4.4 24.68-3-.69c-5.7-1.31-17.1-.51-22.7 1.6-9.9 3.72-16.5 11.15-20.7 23.28-1.1 3.07-3.8 16.31-6 29.42-2.3 13.11-4.4 25.08-4.7 26.59l-.6 2.75h-52.8zm124.5 1.19c-12.6-2.21-24.1-10.82-27.4-20.67-3-8.86-1.4-22.82 3.9-33.28 3.1-6.18 12.6-14.78 20.6-18.7 9.4-4.64 19.1-7.01 40.4-9.88 21.9-2.94 26.4-3.84 32.1-6.38 5-2.18 6.6-4.79 6.2-9.73-.6-6.64-9.2-10.07-20.8-8.22-6.3 1.02-9.5 3.05-12.9 8.24l-2.4 3.67h-49.9l.7-3.75c1.3-7.15 6.2-15.65 12.4-21.58 14.3-13.61 38.1-19.55 73.6-18.38 24.6.81 37.7 4.71 45.7 13.51 8.6 9.55 8.6 19-.6 71.21-5.8 32.87-6.6 39.03-5.7 42.13.6 2 1.8 4.19 2.6 4.87.8.69 1.5 2.76 1.5 4.62v3.38h-55V187l-4.8 3.65c-6.5 5.05-17.4 10.07-25.7 11.85-8.9 1.92-27.4 2.68-34.5 1.43zm49.2-29.99c5.2-1.43 11.7-6.67 15-11.98 2.6-4.27 6.6-17.47 5.6-18.5-.3-.27-2.2.13-4.4.88-2.1.75-8.5 2.35-14.1 3.55-16.2 3.46-22.3 6.93-24.4 14.04-2.9 9.72 8.5 15.86 22.3 12.01zm79.9 30.3c0-.41 7.1-41.25 15.7-90.76l15.7-90 26.3-.27c17.8-.18 26.2.1 26.2.79 0 .58-7 41.13-15.5 90.11-8.5 48.99-15.5 89.48-15.5 89.98 0 .51-11.4.9-26.5.9-14.6 0-26.5-.34-26.4-.75zM252.97 86.04c-11.63-5.28-8.16-19.74 4.99-20.83 8.82-.73 14.69 3.92 14.69 11.65 0 3.98-4.22 8.81-8.81 10.09-4.98 1.38-6.02 1.29-10.87-.91zm23.74-22.97c-4.83-6.78-19.54-9.53-26.93-5.03-5.89 3.59-11.18 1.25-9.78-4.33.79-3.13 8.83-7.39 15.71-8.33 5.26-.71 14.86 1.03 19.94 3.62 5.34 2.73 11 8.87 11 11.95 0 5.69-6.42 7.06-9.94 2.12zm15.03-14.98c-9.26-9.87-18.57-13.53-32.93-12.95-8.67.34-10.89 1.06-19.9 6.42-2.97 1.76-3.46 1.8-6.01.39-3.98-2.21-4.3-7.1-.68-10.45 5.73-5.3 18.61-9.54 28.86-9.5 12.09.1 28.1 6.2 35.9 13.78 7.7 7.5 9.24 11.63 5.67 15.2-3.18 3.18-5.88 2.46-10.91-2.89z"/></svg>