<svg xmlns="http://www.w3.org/2000/svg" viewBox="0 0 1715 947"><path d="M1234.5 108.44H486.15L182 470.78 486.15 838.4h748.35l298.7-367.62zm-16 695.46H502.21L224.4 470.78l277.81-325.47h716.29L1491 470.78zM576.21 441.56s31.6-10.54 31.6-68.74c0-66.09-71.36-71.36-87.16-71.36h-60.84v296.25h42.4V460.24h21.06c36.87 0 39.77 31.6 39.77 31.6l5.26 105.86h42.13s-2.63-55.56-5.26-103.23c-5.26-47.65-28.96-52.91-28.96-52.91zm-74-15.8v-84.53c10.54 0 63.46-5.27 63.46 36.87 0 55.56-63.46 47.66-63.46 47.66zm206.19-47.67c-66.1 0-68.73 73.99-68.73 73.99s-2.64 34.5 0 71.63c2.63 34.23 7.9 76.63 73.99 76.63 66.1 0 68.74-60 68.74-73.99v-74.27c0-26.32-7.9-73.99-74-73.99zm31.96 138.28c0 31.86-5.63 46.84-29.32 46.84-31.87 0-29.23-44.76-29.23-44.76v-66.36c0-39.49 29.23-39.49 29.23-39.49 28.97 0 28.97 42.39 28.97 42.39s.35 48.21.35 61.38zm462.34 25.77c-2.7-31.86 0-42.39 0-42.39h105.8c0-15.81 0-21.07-2.6-50.3-2.6-26.34-13.4-71.36-71.4-71.36-66.3 0-71.6 73.99-71.6 73.99s-2.6 37.13 0 71.63c5.3 34.23 10.6 79.26 74 79.26 63.7 0 69-63.46 69-76.63h-45c0 55.57-53 50.3-58.2 15.8zm31.8-129.55c31.6 0 26.4 52.92 26.4 52.92h-55.6c0-58.19 29.2-52.92 29.2-52.92zm-161.4-37.13c-26.6 0-42.4 18.43-42.4 18.43v-95.05h-39.48v298.88h42.18V441.56s0-28.96 26.6-28.96c26.3 0 28.9 21.06 28.9 28.96v156.16h37.1V438.93s0-63.47-52.9-63.47zm-187.74 2.63c-65.83 0-65.83 71.36-65.83 71.36s-5.26 39.76 0 74.26c2.64 34.23 10.54 76.63 71.1 76.63 63.46 0 68.73-60.83 68.73-73.99v-5.27h-42.39c0 26.34-5.27 42.13-31.6 42.13-28.96 0-26.6-47.66-26.6-47.66s-2.37-28.97 0-63.46C861.4 409.96 888 412.6 888 412.6c31.6 0 31.6 47.66 31.6 47.66h39.76v-10.8c-2.64-26.34-7.9-71.37-74-71.37z"/></svg>