<svg xmlns="http://www.w3.org/2000/svg" viewBox="-4.839 -2.825 310 70"><path d="M287 17.96h5.7v.85h-2.3V25h-1v-6.19H287zM300.3 25v-7.04H299l-2 5.95-2.1-5.95h-1.3V25h.9v-4.16-1.74l2 5.89h.9l2-5.91v5.91h.9zm-177.1 7.6c0 3.56.8 6.51 2.5 8.47 1.4 1.67 3.3 2.54 5.6 2.54s4.3-.87 5.7-2.54c1.6-1.96 2.4-4.91 2.4-8.47 0-3.57-.8-6.52-2.4-8.47-1.4-1.67-3.4-2.54-5.7-2.54-2.3 0-4.2.87-5.6 2.54-1.7 1.95-2.5 4.9-2.5 8.47m21.3-12.73c3.2 3.13 4.7 7.37 4.7 12.75 0 5.33-1.5 9.57-4.7 12.71-3.2 3.13-7.6 4.7-13.2 4.7s-10-1.57-13.2-4.7c-3.2-3.14-4.8-7.38-4.8-12.71 0-5.38 1.6-9.62 4.8-12.75 3.2-3.12 7.6-4.68 13.2-4.68s10 1.56 13.2 4.68M217 48.86c2.6 0 3.6-.37 4.8-5.1l.2-.69h-17.1v-8.38h9.7c2.5 0 3.6-.38 4.9-5.1l.1-.68h-14.7v-7.02h10.5c3.1 0 3.5-.39 4.6-5.15l.2-.66H195v32.78zm53.2-4.95c-2.3 0-5.1-.37-8.3-2.08l-2.3 5.32.5.27c1.4.73 5.3 2.6 11.1 2.6 7.6 0 14.5-3.16 14.5-10.2 0-5.19-3.8-7.62-8.3-10.14-4.6-2.51-7.6-3.83-7.6-6.16.1-1.61 1.9-2.35 4.8-2.3 3.6.1 5.7.85 7.5 1.79l2.5-5.06-.5-.26c-1.2-.67-4.9-2.39-10.9-2.39-9.1 0-13 4.81-13 9.32 0 2.65.5 6.24 7.9 10.24 6.1 3.3 7 4.33 7 5.96 0 2.09-2 3.11-4.9 3.09m-11.3 4.95s-3.9-4.56-6.9-8.75c-1.8-2.52-3.2-4.56-4.3-6.29 3.6-1.25 6.1-4.02 6.1-8.7 0-3.48-1.3-5.71-3.9-7.21-2.8-1.68-7.1-1.83-12.1-1.83h-11.1v32.78h9.7V36.3h1c.8 0 1.3.19 2.4 2.02 2.5 3.88 3.7 5.7 5.3 8.28.8 1.37 2.2 2.26 4.8 2.26h9M244 26.12c0 2.43-1.1 3.53-2.4 4.2-.9.48-2.3.72-3.8.72h-1.4v-9.61h2.1c3.7 0 5.5 1.71 5.5 4.69M113.1 48.86s-4-4.56-7-8.75c-1.8-2.52-3.2-4.56-4.3-6.29 3.7-1.25 6.2-4.02 6.2-8.7 0-3.48-1.4-5.71-4-7.21-2.8-1.68-7.05-1.83-12.11-1.83H80.87v32.78h9.71V36.3h.99c.78 0 1.28.19 2.42 2.02 2.41 3.88 3.6 5.7 5.2 8.28.81 1.37 2.21 2.26 4.81 2.26h9.1M98.16 26.12c0 2.43-1.13 3.53-2.42 4.2-.93.48-2.35.72-3.85.72h-1.31v-9.61h2.04c3.75 0 5.54 1.71 5.54 4.69m89.44 5.16h.1-17.6s.7 2.55.9 2.98c.7 2.55 1.2 2.77 2.7 2.79h4.6v6.73c-1.2.27-2.7.39-4.3.32-5.9-.23-10.8-4.36-10.8-11.63 0-6.7 4.5-11.02 11.6-11.02 3.7 0 6.8.76 9.5 2l3.4-5.36-.5-.3c-2.2-1.26-5.7-2.5-11.6-2.66-6.2-.17-11.9 1.89-14.9 3.85-2.8 1.88-7.4 6.18-7.4 13.9 0 4.5 1.4 8.23 4.1 11.08 3.7 3.89 9.9 6.04 17.2 6.04 6 0 10.4-1.13 13.1-2.72v-16zm-175.1-.44c.8-1.42 1.31-2.33 2.54-4C22.38 17.06 39 1.576 53.18 8.378 47.66 3.373 40.22 0 32.17 0c-8.44 0-14.41 2.25-19.76 7.525C11.26 8.665 8.625 14.1 8.625 18.4c0 3.6 1.047 7.63 3.875 12.44m18.34 21.01c-1.41-.81-2.33-1.31-4-2.55-9.78-7.34-25.265-23.96-18.463-38.15C3.375 16.69 0 24.12 0 32.17c0 8.44 2.246 14.41 7.525 19.76 1.137 1.15 6.565 3.79 10.875 3.79 3.6 0 7.62-1.05 12.44-3.87m21-18.34c-.8 1.4-1.3 2.32-2.54 4-7.33 9.77-23.96 25.26-38.14 18.46 5.53 5.01 12.96 8.38 21.01 8.38 8.45 0 14.41-2.26 19.76-7.53 1.16-1.14 3.8-6.57 3.8-10.87 0-3.61-1.06-7.63-3.89-12.44M33.5 12.5c1.42.79 2.33 1.3 4 2.54C47.29 22.38 62.77 39 55.96 53.19c5.01-5.54 8.39-12.96 8.39-21.02 0-8.44-2.26-14.41-7.53-19.76-1.14-1.15-6.57-3.79-10.87-3.79-3.61-.002-7.63 1.054-12.45 3.88"/></svg>