<svg xmlns="http://www.w3.org/2000/svg" viewBox="0 0 862.8 419.1"><path d="M803.7 328.1c-10.1 0-14.4 10.5-14.4 18.9 0 4.4 1.4 6.2 3.6 6.2 6.5 0 13.7-13.7 15.1-21.7l.7-2.8c-2.1-.3-3.6-.6-5-.6zm7.2 17.4c0 1.2-2.2 11-2.2 12.3H803c.7-3 1.4-7.4 3.6-13.8v-.1c-2.2 5.3-7.2 14.6-15.9 14.6-4.3 0-7.2-3.2-7.2-10.3 0-12.5 6.5-24.9 20.9-24.9 2.2 0 3.6.2 5 .4l2.9-15.7h6.5zm-38.2 12.2h-6.5l4.3-21.7c.7-5.3 0-7.6-3.6-7.6-5.7 0-13 13.3-14.4 21.7l-1.4 7.6h-6l3.4-17.6c.4-1.6 2.6-14.8 3.3-16.3h5.7c-.7 2.3-1.4 6.2-3.6 13.4 2.9-7.2 8.7-14.1 15.2-14.1s8.6 4.5 7.9 11.5l-5 23.1zm-44.3-29.6c-10.1 0-14 10.5-14 18.9 0 4.4 1.3 6.2 3.4 6.2 6.4 0 13.4-13.7 15-21.7l.5-2.8c-1.3-.3-2.9-.6-4.9-.6zm5.4 29.6h-6c.6-2.9 1.9-7.3 3.9-13.7v-.1c-2.4 5.2-7.6 14.5-15.8 14.5-4.9 0-7.6-3.1-7.6-10.2 0-12.5 6.6-24.9 21.3-24.9 3.9 0 7.6.4 10.7 1-3.7 19.1-4.9 25.3-6.3 33.4m-37.1 0h-6l9.4-49.7h6.1zm-8.7-29.1H679l-3.4 17.8c-1 5.2-.4 6.6 3 6.6 2 0 3.4-.1 4.7-.5l-.4 5.1c-2 .5-4.3.7-6.3.7-6.9 0-8.7-3.3-7.3-10.9l3.6-18.7H666l.9-4.8h6.9l2.1-11 6.3-1.5-2.3 12.5h9.2zm-40.3-.2c-7.4 0-12.4 8.3-12.4 16.8 0 5.2 2 8 7.2 8 6.6 0 12.4-7.2 12.4-17.1 0-4.9-2.3-7.7-7.2-7.7zm-6.3 30c-8.5 0-12.4-4.3-12.4-12.1 0-13.5 8.7-23 19.7-23 8.9 0 12.6 5 12.6 12.1 0 14.1-9.7 23-19.9 23m-15.2-28.7c-1.8-.9-3.9-1.4-6.2-1.4-8.6 0-12.6 9.7-12.6 17.4 0 3.6 1.1 7.3 7 7.3 2.7 0 5.4-.7 7.5-1.6v5.1c-2.4.9-5.7 1.8-9.1 1.8-8.9 0-11.9-4.8-11.9-11.3 0-12.9 7.3-23.7 19.5-23.7 2.7 0 5 .4 7.1 1zm-29.3-12.4c-2.2-.7-4.6-1-6.3-1-6.8 0-9.9 3.9-9.9 7.5 0 8.3 14 8.7 14 19.6 0 8.5-7.5 15.1-18.2 15.1-2.4 0-5.3-.3-7.6-1.1l1.2-6c1.9.8 4.6 1.6 6.9 1.6 7.1 0 11.2-3.5 11.2-8.6 0-8-14-8-14-19.1 0-7.6 5.9-14.2 16.9-14.2 2.4 0 4.4.1 7 .7zm-37.3-4.1c-1.6-.5-3.4-.6-4.8-.6-4.9 0-7.6 2.6-8.7 8.9l-.4 2.3h9.2l-1 4.8h-9.2l-5.9 30.9c-2.2 11-7.3 15.6-15.6 15.6-1.9 0-4-.2-5.8-.7l1.5-5.1c1.6.5 3.4.7 4.8.7 4.9 0 7.6-2.6 9-10.4l6-31h-7l1.1-4.8h6.8l.4-2.3c1.8-9.3 6.6-14 15.5-14 1.8 0 3.7.3 5.6.6zM513 328.4c-7.4 0-12.4 8.3-12.4 16.8 0 5.2 2 8 7.2 8 6.6 0 12.3-7.2 12.3-17.1 0-4.9-2.2-7.7-7.1-7.7zm-6.4 30c-8.5 0-12.3-4.3-12.3-12.1 0-13.5 8.5-23 19.7-23 8.8 0 12.5 5 12.5 12.1 0 14.1-9.6 23-19.9 23M464 339.2l10.2 18.5h-7.3l-9-17.9-3.4 17.9h-6l9.4-49.7h6.1l-5.9 30.2 16-16.1 4.4 3.5zm-27 18.5h-6l4.2-21.7c1-5.3 0-7.6-2.9-7.6-6.4 0-13.3 13.3-14.8 21.7l-1.5 7.6h-6l3.4-17.6c.5-1.6 2.8-14.8 3-16.3h6c-.5 2.3-1.4 6.2-3.8 13.4 3.3-7.2 8.6-14.1 15.7-14.1 6.3 0 8.4 4.5 7.1 11.5zm-43.7-29.6c-10.1 0-14 10.5-14 18.9 0 4.4 1.3 6.2 3.4 6.2 6.4 0 13.4-13.7 15-21.7l.5-2.8c-1.4-.3-3-.6-4.9-.6zm5.4 29.6h-6.1c.7-2.9 2-7.3 4-13.7v-.1c-2.5 5.2-7.5 14.5-15.9 14.5-4.9 0-7.6-3.1-7.6-10.2 0-12.5 6.6-24.9 21.3-24.9 4 0 7.6.4 10.8 1-3.7 19.1-5 25.3-6.4 33.4M355 316.6c-2.3 0-4.3 0-6.1.1l-2.9 14.8c1.3.1 2.4.1 3.9.1 7.5 0 12.9-3.5 12.9-9.9 0-3-1.7-5.1-7.8-5.1zm-4.7 19.8h-5.2l-3 16.1c1.1.2 3 .4 5.6.4 8.1 0 12.5-4.8 12.5-10.4 0-4-3.1-6.1-9.9-6.1zm9.5-3.1v.1c4.3 1 6.9 4.6 6.9 8.6 0 8.6-7.1 16-20 16-3 0-7.4-.1-11.8-.2l8.8-46c3.3-.1 7.6-.3 12.9-.3 8.8 0 12.7 3.5 12.7 8.9 0 6.9-4.5 11.2-9.5 12.9m-51.1 24.4h-6l9.5-49.7h6zM286 328.1c-10.1 0-14.1 10.5-14.1 18.9 0 4.4 1.4 6.2 3.6 6.2 6.4 0 13.3-13.7 14.9-21.7l.5-2.8c-1.4-.3-3-.6-4.9-.6zm5.4 29.6h-6.1c.6-2.9 1.9-7.3 3.9-13.7v-.1c-2.4 5.2-7.5 14.5-15.7 14.5-4.9 0-7.7-3.1-7.7-10.2 0-12.5 6.6-24.9 21.4-24.9 3.8 0 7.5.4 10.6 1-3.6 19.1-4.8 25.3-6.2 33.4M239.4 369c-4.1 4.1-8.1 6.1-12.1 6.1-1.8 0-3.5-.1-4.8-.5l.9-5.5c1.4.5 2.9.7 4.4.7 2.3 0 5.2-1.4 7.5-3.9 2.6-2.8 3.9-5.9 3.9-10.9 0-9-2-20.1-5-31.1h6.8c2.2 8.7 3.8 19.3 3.8 26.5 0 1.3 0 2.9-.5 4.4 5.4-9.6 10.1-19.3 15.4-32.3l5.6 1.7c-9 21-17.4 36.4-25.9 44.8m-24.3-40.6c-7.4 0-12.4 8.3-12.4 16.8 0 5.2 2 8 7.1 8 6.6 0 12.4-7.2 12.4-17.1 0-4.9-2.2-7.7-7.1-7.7zm-6.3 30c-8.6 0-12.4-4.3-12.4-12.1 0-13.5 8.6-23 19.6-23 9 0 12.6 5 12.6 12.1 0 14.1-9.6 23-19.8 23M180 316.6c-2.1 0-3.7 0-4.9.1l-3 15.7c.8.1 2 .1 3.7.1 6.9 0 12.2-3.6 12.2-10 .1-4.1-2.3-5.9-8-5.9zm-1.4 20.1c.9 1.5 1.7 3.1 2.7 4.8l9.1 16.3h-7.5L172 337.1h-.8l-3.9 20.7h-6.1l8.8-46c3.1-.2 6.4-.4 11-.4 9.4 0 13.5 3.9 13.5 10.1.1 8.8-7.5 14.2-15.9 15.2m-47.1-8.8c-5.3 0-8.9 4.7-10.6 10.4 10.6-.3 15.2-2.5 15.2-6.6 0-2.5-1.8-3.8-4.6-3.8zm-11.3 14.9c0 1.1-.3 2.8-.3 4 0 5.3 1.8 6.7 7.2 6.7 3.2 0 6.7-.8 9.6-2v4.8c-3.4 1.3-7.4 2.1-11.9 2.1-7.8 0-11.4-3.4-11.4-11 0-13.2 7.4-24.1 18.6-24.1 7.2 0 10 3.6 10 7.7 0 7.2-7.5 11.3-22.1 11.9m-17.6 14.8h-5.9l4.1-21.7c1-5.3 0-7.6-3-7.6-6.3 0-13.2 13.3-14.8 21.7l-1.5 7.6h-6l9.6-49.7h6l-3.1 15.8c-.5 2.7-1.4 5.9-3.8 13.4 3.2-7.2 8.6-14.1 15.6-14.1 6.3 0 8.5 4.5 7.2 11.5l-4.5 23.1zM76.2 317h-13l-7.9 40.8h-6.1l7.9-40.8H44l1-5.2h32.2zm656.5-44.7c-19.6 0-44.1-3.2-56.4-6.9l9.7-40c8.8 4 28.6 10.3 46.7 10.3 22 0 37.8-9.5 37.8-28.6 0-16.3-10.1-24.9-37.8-35.8-28.6-11.2-52.4-24.9-52.4-65.5 0-39.92 31.5-61.8 79.4-61.8 20.2 0 41.1 3.96 52.6 7.93L803 90.88c-8-4.6-24.5-10.3-43.3-10.3-23.3 0-33.6 8.8-33.6 24.02 0 15.5 11.4 21.2 36.5 32 33.9 14.7 55.5 29.2 55.5 67.6 0 42.4-33.2 68.1-85.4 68.1zM579 172.2h-26.4v64h27.8c21.7 0 38.6-8.5 38.6-32.2 0-21.8-15.7-31.8-40-31.8zm.4-91.32h-26.6V139h24.6c18.5 0 34.6-10 34.6-30.1 0-18.92-11.4-28.02-32.6-28.02zm2.3 189.42h-72.1V46.81h75.8c43.5 0 72.1 21.27 72.1 58.49 0 26.3-17.4 41.1-34.1 47.7 22.9 6 41.5 21.7 41.5 51.2.1 39-30 66.1-83.2 66.1zM399.2 81.18h-22.1V145h17.2c23.2 0 40-10 40-31.8 0-19.22-12.2-32.02-35.1-32.02zm41.4 189.12c-13.4-27.1-37.7-70.1-52-92.4h-11.5v92.4h-42.9V46.81h70.7c46.6 0 74.4 22.27 74.4 66.99 0 30.6-22 49.5-45.2 57.3 14.9 20.2 43.5 70.1 57.8 99.2zM252.3 154.2h-36.4c-7.7 0-14.8-4.7-17.1-11.5-6.6-19.2-25.5-26-25.5-26-6.8-2.6-12-9.2-12-17.22v-36.3c0-10.03 8.3-18.03 18.3-18.03s18 7.43 18 18.03l-.4 29.2 42.1-42.11c7.1-7.14 18.6-7.14 25.7 0 7.2 7.13 7.2 18.91 0 26.01l-41.5 41.22h28.6c10 0 18.3 8.3 18.3 18.3 0 10.1-8.3 18.4-18.3 18.4zm-.5 44l-29.1-.3 42.1 42c7.1 7.2 7.1 18.6 0 25.8-7.2 7.2-18.6 7.2-25.7 0l-41.5-41.5v28.6c0 10.9-8.3 18.4-18.4 18.4-10 0-18.3-8.3-18.3-18.4v-36.3c0-7.7 4.9-14.8 11.7-17.1 19.2-6.6 25.8-25.5 25.8-25.5 2.5-6.8 9.4-12 17.1-12h36.3c10.1 0 18.4 8.3 18.4 18.3 0 9.9-7.4 18-18.4 18zm-116.9 72.7c-10 0-18.1-6.7-17.8-18.1l.5-29.2-42.1 42.1c-7.1 7.2-18.9 7.2-25.8 0-7.1-7.2-7.1-18.8 0-25.8l41.2-41.4H62.6c-10.3 0-18.3-8.3-18.3-18.3s8-18.3 18.3-18.3H99c7.7 0 14.5 4.5 17.2 11.4 6.5 19.5 25.1 26.1 25.1 26.1 7.2 2.5 12.1 9.1 12.1 17.1v36.3c0 10.1-8.1 18.1-18.4 18.1zm6.6-153.9c-19.2 6.8-25.8 25.4-25.8 25.4-2.5 6.9-9.5 12-17.2 12H62.3c-10.1 0-18.3-8.2-18.3-18.3 0-10 6.7-18.1 18.3-18.1l29.1.4-42-42.12c-7.2-7.1-7.2-18.59 0-25.65 7.1-7.21 18.6-7.21 25.7 0l41.4 41.45v-28.6c0-10.04 8-18.33 18.4-18.33 10 0 18 8.29 18 18.33v36.3c0 7.72-4.6 14.92-11.4 17.22"/></svg>