<svg xmlns="http://www.w3.org/2000/svg" viewBox="0 0 640 409"><path d="M423.6 57.5c4.5-6.29 9.1-12.51 13.7-18.73 42.1 12.34 82.8 31.84 116.1 60.88 13.6 12.15 25.9 25.95 35.3 41.65 11.2 18.4 18.3 39.5 19.1 61.2-33.1-5.8-66.2-11.6-99.2-17.4 4.1-13 4.1-27.1 1.3-40.3-5.1-22.8-19.8-42.4-37.4-57.26-14.7-12.37-31.5-22.29-49.3-29.55l.4-.49zm0 0" opacity=".5"/><path d="M314 21.22c-9-.1-18 .1-27 .39-2.3.1-4.6 0-6.9.51-12.7.67-25.4 2.08-38 4.02-30 4.35-59.7 11.91-88 22.98-21.3 8.23-41.7 18.59-60.65 31.28C65.42 99.3 40.3 124 25.81 154.9c-7.29 15.9-11.86 33.2-11.62 50.8 24.47-4.4 48.93-8.8 73.41-13.2 8.7-1.3 17.2-3.5 26-4.3-2.3-10.5-4.9-21.3-3.4-32.2 1.7-22.7 13.7-43.4 29.4-59.4 22.1-22.32 50.7-37.1 80.3-46.69C260.2 37 303.2 33.54 345.1 37.84c25.6 3.09 50.9 8.79 74.7 18.62 1.2.43 2.4 1.29 3.8 1.04 4.5-6.29 9.1-12.51 13.7-18.73l.1-.18c-31.4-9.01-63.7-14.41-96.3-16.72-9-.41-18-.62-27.1-.65zm-3.7 122.08c-3.6-.1-6.9 2.4-8.6 5.3-6.6-.9-13-2.4-19.6-3.3l-.9 5.4c4.6.8 9.2 1.5 13.7 2.4 1.8.3 3.6.5 5.5.6 1.4 2.9 2.4 6.2 5.6 7.6 4.5 2.5 10.2.3 12.7-4 7.4 1.1 14.8 2.6 22.2 3.8 14.7 2.6 29.5 5.3 44.2 7.7 15.6 2.9 31.2 5.5 46.8 8.3 22.4 3.9 44.8 8 67.3 11.7 35.9 6.6 72 12.7 107.9 19.1 7.5 1.2 14.8 2.7 22.3 3.9.2-1.8.6-3.5 1-5.2-7.5-1.7-15.1-2.7-22.6-4.1-33.1-5.8-66.2-11.6-99.2-17.4-7.6-1.3-15.1-2.8-22.8-4-22.6-4.1-45.3-8-68-12-2.2-.6-4.5-.7-6.7-1.2-5.4-.9-10.8-2-16.2-2.8-22.7-4.1-45.4-8-68.1-11.9-2.2-.9-5.3-.2-7.1-1.9-.9-4.1-4.3-7.8-8.7-7.9-.3 0-.5-.1-.7-.1zm-208.9 77c-11.03 0-22.05 1.3-32.86 3.7-.1-.7-.1-2.1-.1-2.7-18.24 0-36.49-.1-54.73 0v120.9c18.25.1 36.51 0 54.77 0v-94.3c0-1.4.16-2.7.32-4.1 12.65-3.6 27.35-3.6 38.2 4.8 9.7-6.6 19.8-12.5 29.8-18.7-8.9-4.2-17.9-8.4-27.8-9.3-2.6-.2-5.1-.3-7.6-.3zm437.6.9c-62.7.1-125.5-.1-188.3.1 0 40.1.2 80.2-.1 120.3 1.1.5 2.2.8 3.3.7 17.3-.1 34.5-.1 51.7 0 .1-36.4 0-72.7.1-109h29.4c5.5 0 11.1.5 16.3 2.6.6 6.4.1 12.7.2 19.1.1 29.1 0 58.2.1 87.2h54.8c.1-36.3.1-72.6.1-108.9 11.2.1 22.5-.1 33.8.1 4.1.5 8.8.4 12.1 3.3-.1 35.2 0 70.4 0 105.5h54.8c0-35.4.1-70.9 0-106.3-1.4-6-8.3-8-13.4-9.7-17.9-4.8-36.5-4.9-54.9-5zm-371.1 0c-4.1 0-8.1 0-12.1.1 0 51.5 0 103-.1 154.5 2.8-.2 5.5-.2 8.2-.9 15.6-2.1 31.1-4.7 46.7-6.7.1-8.3 0-16.6 0-24.9 1.5 0 3-.1 4.5-.2 23.6-1.6 47.1-7.8 67.9-19.1 12.1-6.9 24.1-16 29.7-29.2 4.7-11.1 2.6-24-3.5-34.1-7.9-12.9-21.2-21.5-35-27.3-22.1-9.2-46.4-12.3-70.2-12.1-12.1 0-24.1-.1-36.1-.1zm42.8 13.4c14 1.4 26.7 9.3 36.3 19.4 8.3 8.7 14.1 20.8 12.1 33.1-2.2 12.2-10.7 22.2-20.3 29.6-8.3 6.1-17.7 11.4-28.1 12.8-.1-31.7-.1-63.3 0-94.9z"/></svg>