<svg xmlns="http://www.w3.org/2000/svg" viewBox="0 0 612 324"><path d="M328.4 222.4l14.7-34.4 14.7 34.4h-29.4zm24.1-78.4c-.3-.7-1.1-1.2-1.9-1.2h-17.9c-.7 0-1.6.6-1.9 1.2L270 288.1h28.9c.7 0 1.6-.6 1.9-1.2l16.9-39.5h50.8l16.9 39.5c.3.7 1.1 1.2 1.9 1.2h28.9L352.5 144zm-77.2 104.8c0 11.5-4.7 22-13.3 29.6-8.4 7.4-20.1 11.5-32.8 11.5-17.1 0-31.3-4.3-44.6-13.4l-1.6-1.1V243c0-.7.6-1.3 1.3-1.3.4 0 .8.2 1.1.5 5.4 7.1 19.8 22.7 41.3 22.7 15.4 0 21.2-8.5 21.2-13.8 0-11.2-12.8-18.2-27.5-26.3-17.9-9.8-38.2-21-38.2-43.4 0-12.1 4.8-22.4 14-29.7 8.9-7.1 21.2-10.8 35.7-10.8 12.3 0 24.7 3.5 35.7 10.2l1.7 1v29.1c0 .7-.6 1.3-1.3 1.3-.3 0-.6-.1-.8-.3-5.2-4.9-19.3-16.5-37.1-16.5-12.1 0-20.5 5.3-20.5 12.8 0 9.4 11.5 15.3 24.8 22.1 18.2 9.6 40.9 21.3 40.9 48.2m-156.6-52.2c-4.3 4.3-11.6 6.5-22 6.5H86.3v-36.2h10.4c23.3 0 26.1 9.9 26.3 17.3.2 5.2-1.3 9.4-4.3 12.4m60.4 83.1c-8.9-11.2-12.6-15.8-18.5-24.5l-.5-.7c-9.7-14.5-17.7-26.3-28.9-34.8 14-7.1 21.6-19.2 21.6-34.5 0-12.9-5.1-23.6-14.8-31.2-9.4-7.3-22.8-11.1-38.7-11.1h-42v145.3h27.2c1 0 1.8-.8 1.8-1.8v-58.2h5.5c9.4 0 17.7 2.2 37.4 30.1l20.1 28.4c.6.8 1.8 1.5 2.8 1.5h33.6l-6.6-8.5zM429.4 184.9c-.4.7-.2 1.5.4 2l1.2.8c.6.4 1.5.3 2-.3l3.2-3.7c-1.3-1.3-2.5-2.6-3.7-4l-3.1 5.2zm16 9.3c-.2.7.1 1.5.8 1.8l1.1.4c.7.3 1.6 0 1.9-.7l.8-1.5-3.9-2.4-.7 2.4zm-29.6-21.7c-.5.6-.5 1.5 0 2l1.1 1.2c.5.6 1.4.6 2.1.2l7-5.3c-1.1-1.9-2.2-3.8-3.1-5.8l-7.1 7.7zm129.7-84.4c-.1-.7-.7-1.1-1.4-.9l-5.2 1.2 6.2-4.4c-.4-3.6-1.1-7.1-2.1-10.5-.2-.7-.9-1-1.6-.7l-9.8 4.6 9.3-10c-1.1-2.9-2.5-5.7-4-8.4-.4-.7-1.2-.8-1.8-.4l-12.9 9.7 9.9-16.5c-1.6-2.2-3.4-4.2-5.3-6.2-.5-.5-1.3-.4-1.8.1l-13.7 15.8 7.8-22.7c-1.9-1.4-3.9-2.8-5.9-4-.6-.4-1.5-.1-1.8.5l-12 21.8 3.3-26c.1-.7-.4-1.5-1.1-1.8-1.6-.6-3.1-1.1-4.7-1.5-.7-.2-1.5.2-1.7.9l-8.1 26.7-2.4-28.7c-.1-.8-.7-1.4-1.5-1.4h-4.4c-.8 0-1.4.6-1.5 1.4l-2.5 29.6-8.5-28.5c-.2-.7-1-1.2-1.8-1l-4.1.9c-.7.2-1.3.9-1.2 1.7l3.9 30.4-14.7-26.9c-.4-.7-1.2-1-1.9-.7l-3.6 1.6c-.7.3-1.1 1.1-.8 1.9l10.5 29.8-20.5-24c-.5-.6-1.4-.7-2-.2l-3 2.2c-.6.4-.8 1.3-.4 2l17 27.8-25.8-19.8c-.6-.5-1.5-.4-2 .2l-2.3 2.5c-.5.6-.5 1.5 0 2L437 82.3l-30.2-14.5c-.7-.3-1.6-.1-1.9.6l-1.6 2.7c-.4.7-.2 1.6.4 2l28.5 19.4-33.5-8.2c-.7-.2-1.5.3-1.8 1l-.9 2.8c-.2.7.1 1.6.9 1.8l29.6 12.1c10.5-17.1 28.6-29.3 50.1-31.4 1.5-.2 3-.2 4.6-.2 24.2 0 43.7 19.6 43.7 43.8 0 22.9-17.7 41.8-40.1 43.6 23.1-1.9 42.4-15.4 52.7-34.3 5.7-10.5 8.7-22.6 8-35.4m-127.7 60.4l-12.8 9c-.6.4-.8 1.3-.4 2l1 1.6c.4.7 1.3.9 2 .6l12.1-5.6c-.9-2.4-1.5-4.9-1.9-7.6m-24.1-40.6l27.4 4.9c1.3-3.3 2.8-6.5 4.6-9.5l-31.4-1c-.8 0-1.4.6-1.5 1.3l-.3 2.6c-.1.8.5 1.5 1.2 1.7M420 116l-26.3 4.7c-.7.1-1.3.9-1.2 1.6l.3 2.4c.1.8.8 1.4 1.5 1.3l23.4-.8c.5-3.1 1.3-6.2 2.3-9.2m-3.2 16.4l-19.2 8.3c-.7.3-1.1 1.1-.8 1.9l.7 2c.3.7 1.1 1.2 1.8 1l17.6-4c-.3-3.1-.3-6.2-.1-9.2"/><path d="M565.4 138.5l-29.5-12.1c-10.5 17.1-28.5 29.2-49.9 31.3-1.6.2-3.2.3-4.8.3-24.2 0-43.7-19.6-43.7-43.7 0-22.6 17.2-41.2 39.2-43.5-35.8 3.5-62.3 34.9-59.7 70.8l6.5-1.5-5.1 3.6c-.6.4-1 1.4-.9 2.2.5 3.5 1.3 7 2.3 10.3l11-5.1-8.4 9.1c-.5.6-.7 1.6-.4 2.3 1.2 2.9 2.6 5.6 4.2 8.2l14-10.5-9.3 15.4c-.4.7-.3 1.6.2 2.2 1.7 2.1 3.5 4.1 5.4 6l14.6-16.8-7.4 21.5c-.2.7.1 1.5.7 2 1.9 1.4 3.9 2.7 5.9 3.8l12.7-23-3.3 26c-.1.7.4 1.5 1.1 1.8 1.6.6 3.1 1.1 4.7 1.5.7.2 1.5-.2 1.7-.9l8.1-26.7 2.4 28.7c.1.8.7 1.4 1.5 1.4h4.4c.8 0 1.4-.6 1.5-1.4l2.5-29.6 8.5 28.5c.2.7 1 1.2 1.7 1l4.1-.9c.7-.2 1.3-.9 1.2-1.7l-3.9-30.4 14.7 26.9c.4.7 1.2 1 1.9.7l3.6-1.6c.7-.3 1.1-1.2.8-1.9L509.5 163l20.5 24c.5.6 1.4.7 2 .2l3-2.2c.6-.4.8-1.3.4-2l-17-27.8 25.8 19.8c.6.5 1.5.4 2-.2l2.3-2.5c.5-.6.5-1.5 0-2L525.4 146l30.2 14.5c.7.3 1.6.1 1.9-.6l1.6-2.7c.4-.7.2-1.6-.5-2l-28.5-19.4 33.5 8.2c.7.2 1.5-.3 1.8-1l.9-2.8c.2-.6-.2-1.5-.9-1.7m3.2-17.9l-27.4-4.9c-1.3 3.3-2.8 6.5-4.6 9.5l31.4 1c.8 0 1.4-.6 1.5-1.3l.3-2.7c.1-.8-.5-1.5-1.2-1.6m-48.3-84.7c.2-.7-.1-1.6-.8-1.9l-1.1-.5c-.7-.3-1.6 0-1.9.6l-1.1 2 3.9 2.7 1-2.9zm22 76.5l26.2-4.7c.7-.1 1.3-.9 1.2-1.6l-.3-2.4c-.1-.8-.8-1.4-1.5-1.3l-23.4.8c-.4 3.1-1.2 6.2-2.2 9.2m2.8-12.1l20.7-8.9c.7-.3 1.1-1.1.9-1.9l-.6-2.1c-.2-.7-1-1.2-1.8-1l-18.7 4.3c0 3.2-.1 6.4-.5 9.6m3.9-41.6c.5-.6.5-1.5 0-2.1l-1.1-1.3c-.5-.6-1.4-.7-2-.2l-7.8 5.9c1.1 2 2 4.1 2.9 6.2l8-8.5zM545.1 84l14-9.8c.6-.4.8-1.3.5-2l-.9-1.7c-.4-.7-1.2-.9-1.9-.6l-13 6.1c.5 2.5 1 5.2 1.3 8m-12.9-32.2c-1.1-1.5-2.4-3-3.6-4.4l3.7-4.3c.5-.6 1.4-.7 2-.2l1.1.9c.6.5.8 1.4.4 2l-3.6 6z"/></svg>