<svg xmlns="http://www.w3.org/2000/svg" viewBox="-450 199.8 378.4 243.2"><path class="st0" d="M-289.7 366.9c-2 0-3.7 1.7-3.7 3.7s1.7 3.7 3.7 3.7c1.3 0 2.6-.7 3.2-1.6h6c-3.8 4-9.4 3.9-9.4 3.9-10.5 0-10.8-4.7-10.8-5.9 0-1.2 1-5.5 10.6-5.5 8.8 0 9.6 3.6 9.6 3.6h-6c-.6-1.1-1.9-1.9-3.2-1.9zM-276.6 365.4h6.3v4h6.3v-4.1h6.3v11.2h-6.5v-5.2h-6.2v5.2h-6.2v-11.1zM-253.4 365.2h7.6v11.3h-7.6v-11.3zM-241.9 365.4h7.7v9.4h8.6v1.8H-242l.1-11.2zM-205.3 366.9h-10.4v3.2h9.1v1.6h-9.1v3.2h10.7v1.6h-17.1v-11.2h16.8v1.6zM-390 369.6h83.2v2.2H-390v-2.2zM-200.8 369.6h83.2v2.2h-83.2v-2.2zM-315.3 261.7v34.6h-12.2s-2-10.2-6.9-14.9c-4.9-4.7-12.2-9.5-20.9-8.5-8.7.9-12.7 5.8-11.8 11.6s3.3 8.7 15.3 10.9c12 2.2 20 2.9 32 10.7 12 7.8 9.3 27.8 7.6 31.3-1.6 3.5-7.6 20.4-36 19.8 0 0-10.9 1.3-27.8-8.2 0 0-2 3.6-2.7 6.7h-11.4v-36.2h12.6s2.5 16.6 16.4 22.2c13.8 5.6 26.4-.5 26.4-8.9s-9.1-11.1-28.7-14.6c-19.8-3.4-28.7-16.3-27.6-29.6 0 0-.5-12.4 8.6-20.2 9.1-7.8 20.4-8.6 28-8.6s17.6 1.3 25.6 7.8c0 0 2.2-2.4 2.5-6h11v.1zM-238.7 342.7c-13.6.6-16.7-1.6-16.7-1.6s3.7-5.5 6.6-10.6c2.9-5.1 8.4-3.5 8.4-3.5v-8h-24.7l-.4 7.8s5.2-.5 6.4 1.4c1.1 1.9-2.4 5.4-2.4 5.4l-10.9-14.8c3.1-1.4 8.9-6.5 9.4-13 .5-6.6-1.4-15.6-15.1-15.6s-14.8 13.9-14.8 13.9c-.7 6.9 3.2 12 3.2 12-4.6 1.1-11.4 5.3-13.5 11.3-2.6 7.6-.2 16 2.4 19.5 3.7 4.8 9.4 9 19.3 9.1 11.3.1 16.2-4.7 16.2-4.7 8.9 6 27.3 1.8 27.3 1.8l-.7-10.4zm-41.8-40.7c.3-1.9 2.4-4.1 4.9-3.8 2.5.3 5.7 3.7 3.9 7.2s-5.1 4.9-5.1 4.9l-2.9-5s-1.1-1.4-.8-3.3zm-6.9 38.8c-6.2-8.5 1.8-15.8 1.8-15.8l13.6 18.4s-8.4 6.7-15.4-2.6zM-140 335.8c-2.5-7.8-23.3-76.9-23.3-76.9h-26.4l-22.5 73.9s-2.7 9.6-10.7 9.6c-1.7 0-4.9-.1-4.9-.1v12.5l41.1.2v-13.1h-7.1s-6.3.2-4.5-4.5l3.5-13.3h25.8l3.3 11.8s2.2 5.8-1.8 5.8h-8.7v12.9h47.7V342s-8.9 1.6-11.5-6.2zm-51.5-24.5l9.1-29.1 9.9 29.1h-19z"/></svg>