<svg xmlns="http://www.w3.org/2000/svg" viewBox="-179 0 239.256 200"><path d="M13.058 131.388h-5.54c-.072-12.49-.428-21.835-1.07-28.05-1.06-10.253-2.88-22.355-5.437-36.315-2.77-15.626-4.16-25.848-4.16-30.664 0-6.067 1.236-10.62 3.734-13.653 2.486-3.036 5.76-4.55 9.813-4.55 4.195 0 7.51 1.446 9.917 4.336 2.42 2.9 3.625 7.412 3.625 13.555 0 5.23-1.42 15.562-4.26 30.975-2.558 13.542-4.274 24.754-5.12 33.648-.862 8.896-1.36 19.137-1.502 30.718m-2.66 22.812c3.624 0 6.7 1.26 9.223 3.774 2.526 2.505 3.788 5.544 3.788 9.108 0 3.418-1.282 6.376-3.84 8.89-2.562 2.516-5.618 3.765-9.172 3.765s-6.596-1.224-9.12-3.658c-2.532-2.448-3.788-5.445-3.788-9 0-3.63 1.236-6.68 3.73-9.16 2.492-2.474 5.554-3.72 9.18-3.72M-55.3 33.084l9.845-13.678h7.988l.66 57.162h-7.23c-4.52-17.533-11.206-30.33-20.068-38.39-8.862-8.066-19.057-12.09-30.573-12.09-9.626 0-17.504 2.794-23.634 8.387-6.124 5.593-9.192 12.422-9.192 20.488 0 5.023 1.172 9.428 3.502 13.212 2.33 3.787 5.807 6.868 10.44 9.237 4.623 2.372 13.355 4.894 26.2 7.564 18.02 3.797 30.663 7.642 37.913 11.53 7.257 3.886 12.676 8.786 16.25 14.69 3.573 5.904 5.36 12.814 5.36 20.734 0 14.138-4.908 25.86-14.715 35.157-9.8 9.295-22.482 13.943-38.018 13.943-16.7 0-31.214-5.23-43.54-15.698l-12.363 14.638h-7.872v-60.765h7.872c3.068 16.76 9.923 29.975 20.572 39.662 10.642 9.69 22.65 14.53 35.992 14.53 10.79 0 19.595-3.092 26.418-9.284 6.823-6.185 10.234-13.69 10.234-22.53 0-5.024-1.282-9.426-3.832-13.206-2.557-3.78-6.596-6.965-12.144-9.545-5.54-2.58-16.45-5.71-32.71-9.383-17.873-4.105-30.05-8.698-36.542-13.79-9.115-7.21-13.672-17.43-13.672-30.65 0-13.788 4.544-25.084 13.62-33.88 9.082-8.805 20.69-13.207 34.84-13.207 6.79 0 13.243 1.165 19.367 3.502 6.124 2.33 12.468 6.22 19.032 11.66"/></svg>