<svg xmlns="http://www.w3.org/2000/svg" viewbox="0 0 1023 723.3" ><path d="M273.4 12C166.3 12 79.35 98.8 79.35 205.8c0 27.4 5.83 53.4 16.08 77C45.48 312 12 366.5 12 428.8c0 93.1 74.61 168.5 166.7 168.5 11.8 0 23.2-1.3 34.3-3.6 25.3 68.6 91.2 117.6 168.6 117.6 74.2 0 137.9-45.1 165.3-109.4 20.8 10.1 44.2 15.8 68.9 15.8 58.9 0 110.4-32.5 137.3-80.7 13.8 2.8 27.9 4.2 42.4 4.2 119 0 215.5-97.3 215.5-217.3 0-119.9-96.5-217.1-215.5-217.1-31 0-60.4 6.6-87 18.5-30.6-54.6-88.1-91.4-154.1-91.4-49.6 0-94.5 20.8-126.7 54.4C392.3 42 336.3 12 273.4 12zm320.4 244.1c3 0 5.7.2 7.9.6 2.2.4 3.9.8 5.7 1.4.4.2 1.5.7 1 3.6l-4.4 12.1c-.4.9-.6 1.5-2.5.9-.5-.1-1.2-.3-3-.7-1.3-.3-3-.5-4.7-.5-2.3 0-4.4.3-6.3.9-1.7.6-3.4 1.6-4.8 3-1.4 1.5-3.2 3.6-4.1 6.2-2 6.1-3 12.7-3 13.1h18.5c1.5 0 2 .7 1.9 1.8l-2.2 12.1c-.3 1.7-1.9 1.7-1.9 1.7h-19.1l-13 73.8c-1.4 7.6-3.1 14.2-5.1 19.4-2 5.4-4.2 9.3-7.5 13-3.2 3.4-6.7 5.9-10.7 7.5-4.1.7-8.9 2.1-14.3 2.1-2.5 0-5.2 0-8.4-1.4-2.4 0-3.6-1.4-5.3-1.4-.7-.3-1.3-1-.9-2.4.4-1.2 3.9-10.3 4.3-11.7.6-1.4 2.1-1.4 2.1-1.4 1 1.4 1.7 1.4 3.1 1.4h4.7c2.5 0 4.8 0 6.8-1.4 2.4-.9 3.8-2.3 5.3-4.1 1.5-2 2.7-4.7 4-8.3 1.3-3.6 2.5-8.4 3.5-14.2l13-72.5h-12.8c-1.6 0-2-.7-1.9-1.9l2.2-12c.3-1.7 1.9-1.7 1.9-1.7h13.1l.8-3.9c1.9-11.6 5.8-20.5 11.6-26.3 5.8-5.8 14-8.8 24.5-8.8zm-262.1 2H347c1 0 1.7.8 1.7 1.7v123.6c0 1-.7 1.8-1.7 1.8h-15.3c-1 0-1.7-.8-1.7-1.8V259.8c0-1 .7-1.7 1.7-1.7zM191 293.2h2c11 0 21.7 3.2 29.4 8 .7.4 1.4 1.2 1 2.3-.4 1-3.8 10.2-4.2 11.2-.7 1.9-2.7.6-2.7.6-6.7-3.8-17.2-6.7-26-6.7-8 0-13.1 4.2-13.1 9.9v.3c0 6.7 8.8 9.6 18.9 12.9l1.8.6c13.5 4.2 27.8 10.1 27.8 26.4v.2c0 17.6-12.7 28.5-33.2 28.5-10.1 0-19.7-1.6-29.9-7-1.9-1.1-3.8-2.1-5.7-3.4-.2-.3-1-.7-.4-2.3l4-11.2c.7-1.9 2.1-1.3 2.7-.9 1.1.6 2 1.2 3.4 2.1 11.9 7.5 23 7.6 26.4 7.6 8.9 0 14.4-4.7 14.4-11.1v-.3c0-7-8.5-9.6-18.3-12.6l-2.2-.7c-13.5-3.9-28-9.5-28-26.6v-.3c0-16.2 13.1-27.5 31.9-27.5zm300 0h2c11 0 21.7 3.2 29.4 8 .7.4 1.4 1.2 1 2.3-.4 1-3.8 10.2-4.2 11.2-.7 1.9-2.7.6-2.7.6-6.7-3.8-17.2-6.7-26-6.7-8 0-13.1 4.2-13.1 9.9v.3c0 6.7 8.8 9.6 18.9 12.9l1.8.6c13.5 4.2 27.8 10.1 27.8 26.4v.2c0 17.6-12.7 28.5-33.2 28.5-10.1 0-19.7-1.6-29.9-7-1.9-1.1-3.8-2.1-5.7-3.4-.2-.3-1-.7-.4-2.3l4-11.2c.6-1.8 2.4-1.2 2.7-.9 1.1.7 2 1.2 3.4 2.1 11.9 7.5 23 7.6 26.4 7.6 8.9 0 14.5-4.7 14.5-11.1v-.3c0-7-8.6-9.6-18.4-12.6l-2.2-.7c-13.5-3.9-28-9.5-28-26.6v-.3c0-16.2 13.1-27.5 31.9-27.5zm-215.7.1c11.6 0 20.5 2.7 26.6 8 6.1 5.3 9.2 14 9.2 25.6v52.9s.2 1.6-1.3 1.9c0 0-2.1.6-4 1-2 .5-8.9 1.9-14.6 2.9-5.8 1-11.7 1.4-17.6 1.4-5.6 0-10.8-.5-15.3-1.5-4.6-1.1-8.6-2.8-11.8-5.1-3.3-2.4-5.8-5.4-7.6-9.1-1.8-3.6-2.6-8.1-2.6-13.2s1-9.5 3.1-13.4c2-3.8 4.8-7 8.3-9.5 3.5-2.5 7.6-4.4 12.1-5.6 4.5-1.2 9.3-1.9 14.3-1.9 3.6 0 6.7.1 9 .3 0 0 4.6.4 9.6 1.1v-2.4c0-7.7-1.6-11.4-4.9-13.7-3.2-2.5-8-3.7-14.3-3.7 0 0-14.1-.2-25.2 5.8-.5.3-1 .5-1 .5s-1.3.4-1.8-1l-4.1-11c-.6-1.6.5-2.4.5-2.4 5.2-4 17.9-6.5 17.9-6.5 4.2-.8 11.2-1.4 15.5-1.4zm521.9 0c4.8 0 9.1.3 12.8.9 4 .6 9.2 2 11.4 2.9.4.1 1.5.7 1.1 2-1.6 4.5-2.7 7.5-4.2 11.7-.7 1.7-2 1.1-2 1.1-5.6-1.7-11-2.6-18.1-2.6-8.4 0-14.8 2.9-19 8.4-4.2 5.5-6.5 12.8-6.5 22.5 0 10.6 2.6 18.5 7.3 23.4 4.7 4.8 11.3 7.3 19.6 7.3 3.4 0 6.5-.2 9.4-.7 2.8-.4 5.4-1.3 7.9-2.2 0 0 1.6-.7 2.2 1l4.2 11.6c.5 1.4-.7 2-.7 2-6.5 2.6-15.5 4.4-24.2 4.4-14.8 0-26.2-4.3-33.8-12.7-7.5-8.4-11.4-19.9-11.4-34.1 0-6.6 1-12.8 2.8-18.4 1.9-5.7 4.7-10.7 8.3-14.9 3.7-4.2 8.4-7.5 13.8-9.9 5.5-2.4 11.9-3.7 19.1-3.7zm-389.3.1c6.2 0 11.9 1.3 16.6 3.4 3.6 1.5 7.2 4.3 11 8.3 2.3 2.6 5.9 8.1 7.4 13.6l-.1-.1c3.7 13.1 1.8 24.4 1.8 25-.2 1.5-1.7 1.5-1.7 1.5H385c.3 8.8 2.4 15 6.7 19.3 4.2 4.1 10.8 6.7 19.8 6.8 13.8 0 19.6-2.8 23.8-4.3 0 0 1.6-.6 2.2 1l3.8 10.6c.8 1.8.1 2.5-.5 2.8-3.6 2-12.4 5.8-29.1 5.8-8.2 0-15.2-1.2-21-3.4-5.9-2.3-10.8-5.6-14.6-9.7-3.8-4.1-6.6-9.1-8.4-14.7-1.8-5.6-2.6-11.8-2.6-18.5 0-6.6.8-12.8 2.5-18.5 1.7-5.7 4.3-10.8 7.9-15 3.5-4.3 8-7.7 13.3-10.2 5.3-2.5 11.9-3.7 19.1-3.7zm231.5 0c6.9 0 13.1 1.2 18.3 3.7 5.2 2.4 9.6 5.8 13.1 10 3.5 4.1 6.1 9.1 7.8 14.8 1.7 5.7 2.5 11.9 2.5 18.4 0 6.5-.8 12.7-2.5 18.4-1.7 5.7-4.3 10.7-7.8 14.8-3.5 4.2-7.9 7.6-13.1 9.9-5.3 2.5-11.4 3.6-18.3 3.6-7 0-13.1-1.2-18.4-3.6-5.2-2.3-9.6-5.7-13.1-9.9-3.5-4.1-6.1-9.2-7.8-14.8-1.7-5.6-2.5-11.8-2.5-18.4 0-6.6.8-12.7 2.5-18.4 1.7-5.6 4.3-10.7 7.8-14.8 3.5-4.2 7.9-7.6 13.1-10 5.2-2.5 11.4-3.7 18.4-3.7zm232.2 0c6.2 0 11.9 1.3 16.6 3.4 3.6 1.5 7.2 4.3 11 8.3 2.3 2.6 5.9 8.1 7.4 13.6v-.1c3.7 13.1 1.7 24.4 1.7 25-.1 1.5-1.7 1.5-1.7 1.5h-57.9c.4 8.8 2.5 15 6.8 19.3 4.1 4.1 10.8 6.7 19.8 6.8 13.7 0 19.6-2.8 23.7-4.3 0 0 1.7-.6 2.2 1l3.8 10.6c.8 1.8.1 2.5-.5 2.8-3.6 2-12.4 5.8-29.1 5.8-8.2 0-15.2-1.2-21-3.4-5.9-2.3-10.8-5.6-14.6-9.7-3.8-4.1-6.6-9.1-8.4-14.7-1.8-5.6-2.6-11.8-2.6-18.5 0-6.6.8-12.8 2.5-18.5 1.7-5.7 4.3-10.8 7.9-15 3.5-4.3 8-7.7 13.3-10.2 5.3-2.5 11.9-3.7 19.1-3.7zm-134.6.9c.8.1 1.7.1 2.6.2 3.8.2 8.8 1.2 9.7 1.6.4.2 1.3.8.9 2.1-.5 1.6-3.4 9.5-4.4 12.2-.3 1-1 1.7-2.1 1.5 0 0-3.3-.8-6.3-.8-2.1 0-5.1.3-7.8 1.1-2.6.8-5 2.3-7.1 4.3-2.2 2.1-3.8 5-5.1 8.6-1.4 3.6-1.9 9.4-1.9 15.1v43.2c0 .9-.8 1.8-1.8 1.8h-15.2c-.9 0-1.8-.8-1.8-1.8V297c0-.9.7-1.7 1.7-1.7h14.8c1 0 1.7.8 1.7 1.7v7.1c2.2-3 6.2-5.6 9.8-7.2 3.1-1.5 6.7-2.6 12.3-2.6zm-330.5 14.4c-7.6 0-13 3-16.5 8.4-2.4 3.6-3.9 8.2-4.7 13.7h41.3c-.4-5.3-1.5-10.1-3.8-13.7-3.6-5.4-8.7-8.4-16.3-8.4zm463.7 0c-7.6 0-13 3-16.5 8.4-2.4 3.6-3.9 8.2-4.7 13.7h41.3c-.4-5.3-1.5-10.1-3.8-13.7-3.6-5.4-8.7-8.4-16.3-8.4zm-230.8.4c-7.7 0-13.1 2.6-16.6 8-3.6 5.5-5.4 13.3-5.4 23.2 0 9.9 1.8 17.7 5.4 23.3 3.5 5.4 8.9 8.1 16.6 8.1 7.6 0 13-2.7 16.6-8.1 3.7-5.6 5.5-13.4 5.5-23.3s-1.8-17.7-5.5-23.2c-3.6-5.4-9-8-16.6-8zM277 342.3c-11.8-.1-16.8 4.2-16.8 4.2-3.5 2.5-5.2 6.1-5.2 11.2 0 3.3.6 5.8 1.8 7.6.7 1.1 1 1.6 3.3 3.4 0 0 5.2 4.1 17 3.3 8.3-.5 15.6-2 15.6-2v-26.4s-7.4-1.3-15.7-1.3z"/></svg>