<svg xmlns="http://www.w3.org/2000/svg" viewBox="0 0 250 70"><path d="M220.2 47.293v-.9l1.24-.227c.714-.15 1.276-.713 1.276-1.464V34.676c0-.863-.413-1.314-1.164-1.314-.262 0-.563.038-.862.15l-.49.188v-1.126l5.333-2.328h.79v3.642c1.35-2.628 2.965-3.717 4.804-3.717 1.503 0 1.878.376 1.878.376v3.98h-.75c-.188-1.05-.902-1.577-2.028-1.577-1.2 0-2.703.337-3.755 2.515V44.7c0 .752.75 1.353 1.464 1.465l1.804.226v.902h-9.54m-6.156-11.226v-.076c0-2.815-1.577-4.167-3.454-4.167-2.103 0-3.68 1.39-4.13 4.243h7.584m-7.697 1.54v.188c-.037 4.993 2.816 7.51 6.384 7.51 1.803 0 3.454-.677 4.77-1.69v1.5a9.74 9.74 0 0 1-6.61 2.554c-5.855 0-8.446-4.393-8.446-8.56 0-4.88 3.717-8.86 8.522-8.86 3.943 0 7.02 2.777 7.02 6.87v.488h-11.64zm-15.732-5.783c-2.703 0-5.48 1.727-5.48 6.758 0 4.206 2.102 6.76 5.405 6.76 1.99 0 3.23-1.164 3.53-1.765v-9.762c-.488-1.24-1.878-1.99-3.455-1.99m-1.69 15.845c-3.528 0-7.77-2.628-7.77-8.335 0-4.994 3.867-9.086 9.048-9.086 1.728 0 2.967.338 3.868.713v-8.598c0-.9-.487-1.164-1.088-1.164-.34 0-.715.075-1.052.188l-.75.263v-1.127l5.856-2.478h.788v24.742c0 1.427.225 2.253 1.238 2.253.302 0 .488 0 .9-.15l.903-.3v1.126l-5.257 1.952c-.826-.563-1.24-1.614-1.428-2.478-.974 1.05-2.74 2.478-5.255 2.478zm-29.323-.375v-.9l1.24-.227c.75-.15 1.275-.713 1.275-1.464V34.676c0-.863-.413-1.314-1.163-1.314-.263 0-.563.038-.864.15l-.488.188v-1.126l5.407-2.328h.787v2.778c1.652-1.84 3.605-2.778 5.332-2.778 3.83 0 5.668 2.74 5.668 5.932V44.7c0 .752.564 1.353 1.315 1.465l1.275.226v.902h-8.936v-.9l1.24-.227c.75-.15 1.35-.713 1.35-1.464v-8.484c0-1.127-.3-3.642-3.303-3.642-1.653 0-3.043 1.014-3.87 1.764V44.7c0 .752.602 1.315 1.353 1.465l1.24.226v.902h-8.86m-11.377-7.208c-.788.338-2.178.976-2.178 2.778 0 .977.564 2.554 2.516 2.554.94 0 2.253-.526 3.19-1.277V38.58l-3.528 1.502m-1.54 7.584c-2.552 0-4.205-1.69-4.205-4.205 0-1.802 1.316-3.19 4.207-4.242l5.068-1.84v-1.576c0-2.366-1.088-3.83-2.74-3.83-1.127 0-2.253.563-2.817 1.464-.225.338-.262.826-.262 1.202 0 .638.413 1.39.413 1.39l-2.48 1.126c-.3-.526-.675-1.315-.675-2.103 0-.15.037-.3.037-.413.188-1.352 1.352-2.253 2.93-3.192 1.54-.938 2.853-1.2 3.79-1.2 4.73 0 5.558 3.754 5.558 4.993v7.773c0 1.24.113 2.027 1.127 2.027.3 0 .488 0 .9-.15l.902-.3v1.126l-5.26 1.952c-.787-.563-1.163-1.577-1.312-2.44-1.24 1.05-3.38 2.44-5.18 2.44zm-6.336-15.132h-5.256v9.312c0 2.065 1.088 3.19 2.666 3.19.638 0 1.652-.187 2.59-.712l.413.9-3.38 2.14s-.675.114-1.013.114c-3.266 0-5.03-1.915-5.03-5.97v-8.974h-2.742v-.938s4.13-1.577 5.745-5.444h.75v4.768h5.933l-.676 1.614m-32.74 14.757v-.9l1.24-.227c.75-.15 1.275-.713 1.275-1.464V34.676c0-.863-.413-1.314-1.164-1.314-.262 0-.562.038-.862.15l-.488.188v-1.126l5.407-2.328h.788v2.778c1.652-1.84 3.604-2.778 5.332-2.778 3.83 0 5.67 2.74 5.67 5.932V44.7c0 .752.562 1.353 1.313 1.465l1.277.226v.902h-8.936v-.9l1.24-.227c.75-.15 1.352-.713 1.352-1.464v-8.484c0-1.127-.3-3.642-3.305-3.642-1.652 0-3.04 1.014-3.867 1.764V44.7c0 .752.6 1.315 1.352 1.465l1.24.226v.902h-8.862m-11.376-7.208c-.79.338-2.178.976-2.178 2.778 0 .977.563 2.554 2.516 2.554.938 0 2.252-.526 3.19-1.277V38.58l-3.528 1.502m-1.54 7.584c-2.553 0-4.205-1.69-4.205-4.205 0-1.802 1.313-3.19 4.204-4.242l5.07-1.84v-1.576c0-2.366-1.09-3.83-2.742-3.83-1.126 0-2.253.563-2.816 1.464-.225.338-.263.826-.263 1.202 0 .638.413 1.39.413 1.39l-2.478 1.126c-.3-.526-.676-1.315-.676-2.103 0-.15.038-.3.038-.413.188-1.352 1.352-2.253 2.93-3.192 1.538-.938 2.852-1.2 3.79-1.2 4.732 0 5.558 3.754 5.558 4.993v7.773c0 1.24.112 2.027 1.126 2.027.3 0 .488 0 .9-.15l.902-.3v1.126l-5.256 1.952c-.79-.563-1.164-1.577-1.314-2.44-1.24 1.05-3.38 2.44-5.182 2.44zm-17.384.15c-4.093 0-7.06-1.164-7.06-1.164v-7.097h1.015c.526 3.755 3.38 6.608 6.646 6.608 3.267 0 5.558-1.802 5.558-4.655 0-3.04-3.042-4.43-5.07-5.444L75.47 34.6c-2.778-1.388-5.03-3.64-5.03-6.794 0-3.943 2.927-7.322 8.522-7.322 3.83 0 6.984 1.277 6.984 1.277v6.346h-1.014c-.6-3.38-2.478-6.045-6.308-6.045-2.854 0-4.543 1.953-4.543 3.943 0 2.59 1.803 3.755 3.906 4.806l2.928 1.463c2.666 1.352 5.97 3.605 5.97 7.435 0 4.88-3.38 8.11-9.574 8.11M39.388 12.71c0 4.768 8.11 10.062 8.11 15.507 0 0 0 .524-.225 1.087 7.584 1.577 12.954 5.294 12.954 9.65 0 5.857-9.575 10.663-21.44 10.7-.075.038-.15 0-.225 0-11.752 0-21.29-4.656-21.29-10.475 0-4.355 5.82-7.885 12.842-9.762 0 2.403 7.998 10.025 8.185 13.104 0 0 .037.262.037.563 0 .15 0 .3-.038.45 1.726-.9 1.726-3.717 1.726-3.717 0-6.683-7.772-9.65-7.772-16.22 0-2.553 1.202-4.43 2.29-4.956v1.84c0 4.768 8.41 10.1 8.41 14.455v1.426c1.953-.75 1.953-4.318 1.953-4.318 0-6.007-7.81-9.35-7.81-16.22 0-2.553 1.202-4.43 2.29-4.956v1.84"/></svg>