<svg xmlns="http://www.w3.org/2000/svg" viewBox="0 0 353.16 117.06"><path d="M297.8 91.697c3.39 2.14 9.69 3.3 13.65 3.3 2.03 0 5.14-.48 7.07-.96 4.06-1.17 6-2.04 8.89-5.14 2.61-2.822 3.69-6.7 3.69-10.287 0-4.946-2.53-9.22-6.8-11.545-3.2-1.745-7.13-2.614-10.73-3.492l-4.55-1.168c-2.79-.672-8.2-1.252-8.2-5.14 0-4.55 4.64-5.913 8.48-5.913 6.7 0 11.44 4.855 14.63 10.187.37.276.37.77.68 1.06h4.24l-.37-15.122h-3.87l-3.69 2.225c-3.29-1.938-7.84-3.202-11.71-3.202-9.47 0-18.85 4.95-18.85 15.424 0 4.275 1.17 7.37 4.25 10.186 3.47 3.203 6.48 3.973 10.94 4.947l6.09 1.264c4.73 1.06 10.14 2.52 7.65 8.828-1.84 2.42-5.04 3.1-7.96 3.1-8.58 0-13.93-6.207-17.4-13.286h-4.24l.46 16.595h3.78zm0 0c3.39 2.14 9.69 3.3 13.65 3.3 2.03 0 5.14-.48 7.07-.96 4.06-1.17 6-2.04 8.89-5.14 2.61-2.822 3.69-6.7 3.69-10.287 0-4.95-2.53-9.22-6.8-11.545-3.2-1.748-7.13-2.614-10.73-3.492l-4.55-1.168c-2.79-.675-8.23-1.252-8.23-5.14 0-4.553 4.67-5.913 8.51-5.913 6.7 0 11.44 4.852 14.63 10.187.37.276.37.77.68 1.056h4.24l-.37-15.12h-3.87l-3.69 2.227c-3.29-1.938-7.84-3.202-11.71-3.202-9.47 0-18.85 4.948-18.85 15.424 0 4.272 1.17 7.366 4.25 10.183 3.47 3.203 6.48 3.973 10.94 4.95l6.09 1.264c4.73 1.06 10.14 2.516 7.65 8.825-1.84 2.422-5.04 3.102-7.96 3.102-8.58 0-13.93-6.206-17.4-13.285h-4.24l.46 16.585h3.78zm-37.22-40.342c9.47 0 10.17 12.508 10.17 19.396 0 6.02-.58 19.407-9.1 19.407-10.26 0-10.66-11.836-10.66-19.31 0-6.202.67-19.492 9.59-19.492zm.49 43.642c14.02 0 26.31-9.498 26.31-24.15 0-14.35-12.2-24.346-26.22-24.346-7.07 0-12.97 1.94-18.38 6.31-5.23 4.167-8.42 10.862-8.42 17.556 0 15.034 12.08 24.63 26.71 24.63zm-.49-43.645c9.47 0 10.17 12.51 10.17 19.396 0 6.02-.58 19.41-9.1 19.41-10.26 0-10.63-11.837-10.63-19.314 0-6.2.64-19.492 9.56-19.492m.49 43.645c14.02 0 26.31-9.5 26.31-24.153 0-14.35-12.2-24.343-26.22-24.343-7.07 0-12.97 1.94-18.38 6.31-5.23 4.164-8.42 10.858-8.42 17.553 0 15.037 12.11 24.634 26.71 24.634M203.71 53.29v18.53c0 3.107-.1 6.31.18 9.5.18 3.297.38 7.087 2.71 9.707 2.8 3.1 6.97 3.97 10.93 3.97 11.51 0 16.27-7.852 16.27-18.53v-.77h-4.95c0 3.588-1.16 11.642-6.29 11.642-1.93 0-3.09-.88-3.57-2.818-.28-1.362-.28-2.71-.28-4.167V53.29h12.76v-5.815h-12.76V28.067h-5.91c-1.64 9.995-4.44 18.53-15.96 20.083v5.14zm0 0v18.53c0 3.104-.1 6.31.18 9.5.18 3.297.38 7.087 2.71 9.707 2.8 3.1 6.97 3.97 10.93 3.97 11.51 0 16.27-7.852 16.27-18.532v-.77h-4.95c0 3.59-1.16 11.644-6.29 11.644-1.93 0-3.09-.88-3.57-2.818-.28-1.362-.28-2.71-.28-4.167V53.29h12.76v-5.815h-12.76V28.067h-5.91c-1.64 9.995-4.44 18.53-15.96 20.083v5.14zm-68.57 40.267h29.42v-4.86h-4.17c-1.15 0-2.31-.59-2.6-1.85V70.94c0-3.492.18-6.79 1.74-9.98 1.64-3.408 4.84-5.828 8.61-5.828 1.93 0 3.77.974 5.03 2.228 1.84 1.84 1.84 4.177 2.03 6.596v20.18c0 .976 0 1.842-.28 2.816-.1.277-.21.583-.39.873-1.76 1.26-4.17.68-6.1.87v4.86h29.02v-4.86c-.67 0-5.03.1-6.58-.68-.58-.48-.67-.965-.67-1.747V66.874c0-5.046.27-9.995-2.62-14.363-3-4.455-8.42-6.01-13.45-6.01-7.35 0-12.96 3.974-16.44 9.802h-.18v-8.824l-22.75.962v4.95h1.84c5.43.185 6.2.576 6.2 6.115v24.342c0 1.553.27 3.88-1.65 4.36-1.93.4-3.96.4-6 .49zm0-.01h29.42v-4.85h-4.17c-1.15 0-2.31-.59-2.6-1.85V70.94c0-3.492.18-6.793 1.74-9.983 1.64-3.406 4.84-5.826 8.61-5.826 1.93 0 3.77.974 5.03 2.225 1.84 1.843 1.84 4.18 2.03 6.598v20.18c0 .973 0 1.84-.28 2.816-.1.277-.18.573-.38.863-1.76 1.27-4.17.69-6.11.88v4.85h29.03v-4.85c-.67 0-5.03.1-6.58-.68-.58-.49-.68-.968-.68-1.75V66.87c0-5.045.28-9.99-2.61-14.362-3-4.453-8.42-6.007-13.45-6.007-7.35 0-12.96 3.974-16.44 9.802h-.18v-8.827l-22.75.965v4.947h1.84c5.43.185 6.2.58 6.2 6.105v24.355c0 1.553.27 3.88-1.65 4.36-1.93.4-3.96.4-6 .49zm-23-16.974c0 9.995-5.9 12.124-9.18 12.124-4.27 0-6.39-2.816-6.39-6.79 0-7.186 4.94-9.03 15.57-11.353zm.19-10.87c-9.48 2.13-31.632 4.275-31.632 17.66 0 4.454 1.728 7.374 4.442 9.114 2.72 1.84 6.49 2.52 10.35 2.52 6.68 0 13.93-2.13 18.77-6.68 1.46 4.45 6.48 6.68 10.45 6.68 4.17 0 10.25-3.4 10.25-7.658 0-1.75-1.05-1.554-1.44-1.554-1.75 0-2.81 1.454-3.48 1.454-1.95 0-2.91-.878-2.91-6.885v-19.01c0-3.89-.49-14.844-21.86-14.844-14.52 0-21.965 5.814-21.965 12.22 0 4.37 3.29 7.272 7.544 7.272 3.78 0 7.93-1.938 7.93-6.296 0-2.626-2.41-4.37-2.41-5.634 0-.87 2.7-2.71 8.21-2.71 7.46 0 7.75 5.622 7.75 12.316zm-.18 10.873c0 9.992-5.91 12.12-9.19 12.12-4.26 0-6.39-2.815-6.39-6.788 0-7.187 4.94-9.03 15.58-11.35zm.18-10.873c-9.47 2.132-31.628 4.275-31.628 17.663 0 4.45 1.73 7.37 4.445 9.11 2.712 1.84 6.482 2.52 10.352 2.52 6.67 0 13.93-2.13 18.76-6.68 1.46 4.45 6.49 6.68 10.45 6.68 4.17 0 10.26-3.4 10.26-7.657 0-1.75-1.06-1.554-1.44-1.554-1.76 0-2.81 1.457-3.5 1.457-1.93 0-2.89-.88-2.89-6.888v-19.01c0-3.887-.49-14.844-21.87-14.844-14.52 0-21.962 5.817-21.962 12.222 0 4.37 3.29 7.27 7.54 7.27 3.78 0 7.94-1.938 7.94-6.296 0-2.623-2.42-4.37-2.42-5.634 0-.867 2.71-2.71 8.222-2.71 7.46 0 7.74 5.622 7.74 12.316zM22.843 94.417h4.248l6.103-5.91c5.416 4.36 12.284 6.49 19.25 6.49 6.193 0 12.87-1.36 17.804-5.33 5.226-4.362 8.118-10.576 8.118-17.267 0-16.976-13.147-21.048-27.076-23.96l-6.102-1.168c-5.607-1.156-11.995-3.095-11.995-10.076 0-7.08 7.156-10.103 13.255-10.103 11.998 0 20.414 10.584 23.992 20.962h4.84L74.02 22.64h-4.167l-5.225 4.755c-5.128-3.587-10.735-5.335-16.93-5.335-13.737 0-25.636 7.178-25.636 22.117 0 6.297 3.194 12.316 8.223 16.003 6.006 4.465 12.105 5.812 19.262 7.175l6.965 1.36c5.798 1.07 10.35 3.685 10.35 10.185 0 7.863-7.264 11.057-14.036 11.057-12.956 0-22.157-11.827-26.02-22.892H22.06zm0 0h4.25l6.1-5.91c5.416 4.36 12.284 6.49 19.25 6.49 6.196 0 12.87-1.36 17.807-5.33 5.223-4.362 8.115-10.576 8.115-17.27 0-16.976-13.147-21.045-27.076-23.957l-6.1-1.168c-5.61-1.156-11.997-3.095-11.997-10.08 0-7.078 7.156-10.1 13.258-10.1 11.996 0 20.412 10.585 23.99 20.963h4.842L74.02 22.64h-4.167l-5.222 4.755c-5.127-3.587-10.734-5.335-16.93-5.335-13.74 0-25.638 7.175-25.638 22.117 0 6.297 3.194 12.316 8.226 16 6.003 4.468 12.09 5.815 19.25 7.175l6.974 1.362c5.8 1.072 10.35 3.683 10.35 10.186 0 7.86-7.263 11.047-14.036 11.047-12.956 0-22.154-11.817-26.02-22.882H22.06zm0 0"/></svg>