<svg xmlns="http://www.w3.org/2000/svg" viewBox="-1.33278 -1.33278 92.44656 47.09156"><path d="M0 .005v44.41h45.37L89.78.005zm12.21 7.878h.02c3.224.01 7.165.92 10.01 2.372l-3.07 5.348c-3.118-1.507-4.688-1.65-6.468-1.74-2.64-.142-3.98.802-4 1.82-.023 1.245 2.507 2.37 4.884 3.134 3.606 1.143 8.193 2.676 8.89 7.104l6.596-17.567h7.652l7.72 21.013V8.353h8.837v.01c8.45 0 12.417 3.01 12.417 9.57 0 5.893-4.086 9.405-10.986 9.405h-2.857v8.49H38.76l-1.297-4.06c-1.385.456-2.95.706-4.61.706-1.7 0-3.305-.268-4.715-.745l-1.348 4.098h-8.025l.884-2.376-.325.284c-2 1.608-4.505 2.492-7.605 2.552h-.46a20.39 20.39 0 0 1-10.004-2.66l2.73-5.424c2.957 1.748 4.814 2.138 7.318 2.088 1.3-.03 2.238-.264 2.85-.9.37-.38.56-.86.58-1.373.02-1.41-1.98-2.07-4.435-2.828-1.99-.625-4.244-1.458-6.01-2.752-2.087-1.537-3.084-3.46-3.034-6.166.033-1.978.764-3.754 2.115-5.158 1.945-2.007 5.08-3.233 8.84-3.233zm39.64 6.252v7.118h1.947c2.598 0 4.666-.86 4.666-3.604 0-2.66-2.068-3.515-4.666-3.515zm-19.026 2.863l-2.803 8.84a8.087 8.087 0 0 0 2.832.502 8.25 8.25 0 0 0 2.773-.478l-2.744-8.864zm25.77 21.66c-1.586 0-2.938 1.22-2.938 2.873 0 1.666 1.352 2.907 2.938 2.907a2.867 2.867 0 0 0 2.875-2.906c0-1.652-1.312-2.873-2.876-2.873zm0 .467c1.294 0 2.312 1.046 2.312 2.406 0 1.385-1.018 2.407-2.312 2.407-1.316 0-2.375-1.022-2.375-2.406 0-1.36 1.058-2.405 2.374-2.405zm-1.125.75v3.313h.5V41.75h.56l.907 1.438H60l-.97-1.438c.486-.06.876-.342.876-.937 0-.653-.4-.938-1.187-.938zm.5.437h.686c.338 0 .72.05.72.47 0 .516-.386.562-.813.562h-.594z"/></svg>