<svg xmlns="http://www.w3.org/2000/svg" version="1" width="150" height="60"><path d="M63.88 9.784c-5.67 0-12.16 2.926-12.15 9.966 0 6.71 5.33 8.59 10.62 9.88 5.35 1.28 10.66 2.03 10.66 6.5 0 4.4-4.54 5.22-7.88 5.22-4.41 0-8.56-1.61-8.75-6.76h-5.34c.31 8.67 6.47 11.85 13.78 11.85 6.62 0 13.87-2.7 13.87-11.03 0-6.78-5.3-8.68-10.65-9.97-4.98-1.29-10.66-1.96-10.66-6.09 0-3.53 3.73-4.47 6.94-4.47 3.53 0 7.18 1.4 7.56 5.87h5.34c-.44-8.53-6.16-10.965-13.34-10.966zm30.88 0c-7.25 0-13.5 3.046-13.82 11.716h5.35c.25-5.15 3.59-6.62 8.12-6.62 3.41 0 7.29.8 7.29 5.81 0 4.33-5.05 3.94-10.98 5.15C85.18 27 79.69 28.7 79.69 36.63c0 6.97 4.86 9.81 10.78 9.81 4.54 0 8.48-1.71 11.43-5.44 0 3.79 1.8 5.44 4.6 5.44 1.7 0 2.8-.36 3.8-.97V41c-.7.27-1.2.35-1.6.35-1.7 0-1.7-1.2-1.7-3.91V19.41c0-8.2-6.4-9.626-12.24-9.626zm28.04 0c-5.7 0-12.2 2.926-12.2 9.966 0 6.71 5.4 8.59 10.7 9.88 5.4 1.28 10.7 2.03 10.7 6.5 0 4.4-4.6 5.22-7.9 5.22-4.4 0-8.6-1.61-8.8-6.76h-5.4c.3 8.67 6.6 11.85 13.9 11.85 6.6 0 13.8-2.7 13.8-11.03 0-6.78-5.3-8.68-10.6-9.97-5-1.29-10.7-1.96-10.7-6.09 0-3.53 3.7-4.47 6.9-4.47 3.6 0 7.2 1.4 7.6 5.87h5.4c-.5-8.53-6.2-10.965-13.4-10.966zM101.6 27.53v5.91c0 3.18-2.88 7.91-9.94 7.91-3.27 0-6.31-1.37-6.31-5.16 0-4.27 3.04-5.61 6.56-6.28 3.59-.68 7.61-.75 9.69-2.38zM48.57 42.88c-1.13 0-2.09.87-2.09 2.06S47.44 47 48.57 47c1.12 0 2.06-.87 2.06-2.06s-.94-2.06-2.06-2.06zm89.03 0c-1.2 0-2.1.87-2.1 2.06s.9 2.06 2.1 2.06c1.1 0 2.1-.87 2.1-2.06s-1-2.06-2.1-2.06zm-89.03.34c.93 0 1.66.74 1.66 1.72 0 .99-.73 1.72-1.66 1.72-.95 0-1.69-.73-1.69-1.72 0-.98.74-1.72 1.69-1.72zm89.03 0c.9 0 1.6.74 1.6 1.72 0 .99-.7 1.72-1.6 1.72-1 0-1.7-.73-1.7-1.72 0-.98.7-1.72 1.7-1.72zm-89.84.53v2.38h.37V45.1h.41l.62 1.03h.41l-.69-1.07c.35 0 .63-.19.63-.62 0-.47-.28-.69-.85-.69h-.9zm89.04 0v2.38h.3V45.1h.5l.6 1.03h.4l-.7-1.07c.3 0 .6-.19.6-.62 0-.47-.3-.69-.8-.69h-.9zm-88.67.31h.5c.25 0 .5 0 .5.35 0 .36-.25.37-.56.37h-.44v-.72zm88.97 0h.5c.3 0 .5 0 .5.35 0 .36-.2.37-.5.37h-.5v-.72zM28.82 3.472c-1.83-.042-3.72.172-5.66.656C14.21 6.365 4.193 17.88 15.14 31.16l6.52 7.9 1.85 2.25c1.23 1.48 3.26 1.45 4.75.22 1.49-1.23 1.92-3.25.68-4.75 0 0-.52-.63-.75-.9-.44-.57-.54-.67-1.03-1.25-2.36-2.85-5.06-6.13-5.06-6.13-4.75-5.77-2.63-12.89 3.81-16.93C31.59 8 42.01 9.273 45.6 15.13 43.34 8.453 36.75 3.65 28.82 3.472zm1.31 13.938c-.84 0-1.72.29-2.47.9-1.49 1.24-1.92 3.26-.69 4.75 0 0 .16.19.41.5 2.83 3.41 6.59 7.97 6.59 7.97 4.76 5.77 2.64 12.86-3.81 16.91-5.67 3.56-16.09 2.29-19.68-3.56 2.78 8.21 12.11 13.58 22.43 11 8.96-2.24 18.98-13.73 8.03-27l-7.65-9.25-.88-1.1a3.082 3.082 0 0 0-2.28-1.12z"/></svg>