<svg xmlns="http://www.w3.org/2000/svg" viewBox="0 0 540 183.7"><path d="M518 24.8h-44l-51.1 58.9h-.4l8.6-58.9h-37.2L382 107.3c-3.5-24.1-30.3-26.4-49-31.4-9.5-2.6-20.9-5.8-19.5-15.6 1-6.7 9.2-12.3 17.8-12.3 6.3 0 10.9 1.5 13.7 4.3 2.9 2.8 4 6.7 3.1 11.9h37.1c6.9-32.3-20.1-42.2-47.7-42.2-28.1 0-57.2 8.7-63.3 40.5-2.1 14.5 2.8 26.8 15.5 32.7 27.3 12.8 55.4 8.9 52.7 27.1-1.2 8.9-17.4 13.4-29.6 13.4-16.4 0-40.5-4.3-33.3-32.8v-.2h-39c-5.2 29.8-24.1 33.1-38.1 33-21-.2-28.3-20.6-25-42.5 3.1-20.1 10.5-45.2 31.8-45.2 15.3 0 23.4 6.9 22.6 19h39c5.4-33.8-25.3-45-57.8-45-41.9.4-67.9 24.7-74.4 69.7-.3 2.5-.6 4.9-.8 7.3-7.8-16.4-30.2-18.8-46.45-23.1-9.5-2.6-20.9-5.8-19.5-15.6 1-6.7 9.2-12.3 17.8-12.3 6.3 0 10.85 1.5 13.65 4.3 2.9 2.8 4 6.7 3.1 11.9h37.1C150.4 31.9 123.4 22 95.85 22c-28.1 0-57.2 8.7-63.3 40.5-2.1 14.5 2.8 26.8 15.5 32.7 27.3 12.8 55.35 8.9 52.65 27.1-1.25 8.9-12.85 13.4-21.35 13.4-13.4 0-21.7-6.9-19.7-19.5h-37.1c-4.7 36.4 21.5 45.5 52.7 45.5 29.45 0 57.95-12.1 64.05-37.7 5.9 24.5 25.8 37.7 59.3 37.7 12.9 0 36.8.7 56.5-16.8 15.2 14.4 38.7 16.8 53.6 16.8 36.7 0 60.7-9.6 69.7-29.7l-3.9 26.9h37.2L422 87.6h.3l33.9 71.3h46.1l-39.1-75L518 24.8z"/></svg>