<svg xmlns="http://www.w3.org/2000/svg" viewBox="0 0 181 51"><path d="M121.7 42.94c-4.3 0-7.5-.29-9.6-.86-2.1-.56-4-1.55-5.7-2.94-1.5-1.25-2.6-2.66-3.2-4.24-.6-1.57-.9-3.8-.9-6.66V6.714h9.7V28c0 2.12.1 3.61.3 4.47.3.87.7 1.56 1.3 2.09.9.86 2 1.45 3.4 1.82 1.3.36 3.2.53 5.5.53h6.6v6.03h-7.4zm-46.62-30H63.82v23.6h11.26c4.28 0 7.26-.84 8.89-2.54 1.64-1.69 2.45-4.78 2.45-9.27 0-4.46-.81-7.55-2.45-9.25-1.63-1.7-4.61-2.54-8.89-2.54M54.11 6.624h21.16c7.43 0 12.92 1.53 16.47 4.576 3.53 3.05 5.3 7.77 5.3 14.17 0 3.31-.58 6.14-1.77 8.53-1.2 2.36-2.97 4.29-5.33 5.77a19.008 19.008 0 0 1-5.84 2.46c-2.08.48-4.93.72-8.56.72H54.11V6.624zm-7.13 6.516H22.97c-2.59 0-4.49.38-5.69 1.13-1.2.76-1.8 1.95-1.8 3.59 0 1.32.5 2.31 1.5 2.96 1.1.65 2.6.99 4.6.99h12.89c5.32 0 9.11.78 11.36 2.37 2.25 1.57 3.37 4.19 3.37 7.88 0 3.73-1.29 6.46-3.89 8.22-2.6 1.74-6.68 2.63-12.26 2.63H7.184v-6.46H31.51c2.78 0 4.72-.32 5.86-.95 1.13-.64 1.69-1.68 1.69-3.15 0-1.51-.52-2.58-1.56-3.22-1.04-.64-2.81-.96-5.33-.96H20.68c-5.3 0-9.2-.84-11.696-2.5-2.4-1.67-3.7-4.31-3.7-7.9 0-3.85 1.3-6.67 3.9-8.436 2.596-1.77 6.696-2.65 12.396-2.65h25.4v6.456zm101.12 16.3c-14-10.29-24.6-19.746-23.6-21.127.5-.68 3.6.67 8.3 3.397l.2.11-.4-.22c-2.2-1.19-3.6-1.716-3.8-1.38-.8.98 8.4 8.92 20.4 17.72 12 8.79 22.3 15.15 23 14.15.3-.34-.7-1.5-2.4-3.23l-.4-.31.2.12c4 3.64 6.2 6.22 5.7 6.88-1 1.38-13.2-5.84-27.2-16.11m3 15.3c-10.9 0-19.7-8.83-19.7-19.72 0-2.04.3-4.02.8-5.87v-.1l.2.14c4.1 3.58 9.6 7.91 15.7 12.42 1.8 1.27 3.5 2.52 5.2 3.7l1.9 1.31h-.4.5l.5.33c.8.57 1.6 1.11 2.4 1.63l1.4.94-4.8.35 6.1.53 1.3.82-.1.1c-3.2 2.13-7 3.38-11 3.38m11.5-5.39l-1-.64c-.6-.38-1.2-.79-1.8-1.22l-.8-.47 7.2.62-1.2 1.32-.2.23-2.2.16zm-4.4-2.9l-.4-.24c-2.7-1.82-5.5-3.86-8.6-6.06-5.9-4.4-11.2-8.58-14.9-11.8l-1.3-1.13.7-1.57c3.4-6.146 9.9-10.326 17.4-10.326 4.1 0 7.9 1.25 11 3.38l1.2.86-8.5.626 10.2.87c.4.46.9.93 1.3 1.41l.2.25-11.7.89 13.1 1.12.5.92.1.13-13.6 1.06 14.6 1.25.4.82-15 1.14 15.6 1.36.1.64v.22l-15.8 1.2 16 1.37v.69l-16 1.23 15.8 1.34-.2.77-15.6 1.19 15 1.28-.4.97-14.6 1.11 13.6 1.16-.7 1.13-9.5.74z"/></svg>