<svg xmlns="http://www.w3.org/2000/svg" viewBox="0 0 538.465 235.211"><path d="M28.63 125.03h32.732c.325 6.416 2.737 11.248 7.236 14.458 4.814 3.215 11.24 4.8 19.258 4.8 5.778 0 10.746-1.116 14.924-3.36 3.858-2.254 5.802-5.296 5.802-9.152 0-5.775-6.76-10.112-20.236-13-5.772-.97-10.117-1.928-13.02-2.895-17.01-4.17-28.4-9.15-34.16-14.92-6.436-5.78-9.648-13.48-9.648-23.124 0-12.18 4.653-22.3 13.97-30.32 9.626-7.385 22.138-11.08 37.555-11.08 16.692 0 30.01 3.694 39.956 11.08 9.315 8.02 14.29 18.446 14.94 31.288h-20.703c-6.095 0-10.77-2.73-13.96-8.19a402.364 402.364 0 0 1-3.868-3.863c-3.853-2.888-9.153-4.31-15.9-4.31-6.41 0-11.224.966-14.427 2.888-2.89 1.913-4.344 4.798-4.344 8.66 0 5.15 8.345 9.47 25.042 13.015 1.926.642 3.612 1.123 5.054 1.44 1.444.312 2.805.465 4.097.465 16.37 4.185 27.768 9 34.193 14.463 6.083 5.778 9.158 13.478 9.158 23.118 0 14.112-5.145 25.027-15.433 32.733-9.614 7.068-24.07 10.6-43.34 10.6-18.275 0-31.934-3.675-40.92-11.08-9.31-7.372-13.96-18.14-13.96-32.252v-1.46zM459.86 203.86c.065-.477.16-.957.16-1.474v-74.772c0-7.354-5.66-13.323-12.642-13.323-6.962 0-12.63 5.97-12.63 13.324v74.772c0 .517.09.997.134 1.474h24.98z"/><path d="M511.476 102.846c0-70.214-64.258-67.625-64.258-67.625-67.825 0-63.78 70.468-63.78 70.468 0 49.278 28.88 61.933 45.603 65.376v-26.748c-7.117-4.23-17.365-13.56-17.365-38.814 0 0-1.53-44.573 35.64-44.573 0 0 36.087-1.585 36.087 42.65 0 0 2.082 30.1-17.81 40.8v26.685c51.27-9.206 45.884-68.22 45.884-68.22zM358.555 45.58c-8.986-6.092-22.475-9.146-40.435-9.146-16.063 0-28.41 3.695-37.06 11.08-7.72 6.416-12.22 16.68-13.496 26.634l32.252-2.096c1.6-3.515 4.162-5.914 7.683-7.206 3.547-1.29 7.55-1.93 12.058-1.93 4.162 0 8.73.72 13.714 2.154 4.974 1.44 7.47 4.596 7.47 9.39 0 .46-.118.883-.192 1.32l.52 27.167c.056-.02.108-.04.162-.067v12.037c0 8.994-2.587 16.048-7.726 21.188-5.132 5.14-12.207 7.705-21.163 7.705-5.475 0-9.642-1.28-12.528-3.852-2.89-2.89-4.317-6.737-4.317-11.565 0-3.515 1.104-7.04 3.355-10.587 2.562-2.567 6.736-4.633 12.528-6.25l11.065-2.41c4.727-1.138 8.767-2.337 12.267-3.583l-.415-22.57c-3.5 1.787-8.356 3.138-14.74 4.01-2.9.303-5.473.708-7.71 1.18-2.245.49-4.184.725-5.77.725-12.19 1.93-22.228 5.786-30.083 11.565-7.875 5.78-11.812 15.408-11.812 28.896 0 14.44 4.33 24.808 13.007 31.05 8.66 6.27 18.782 9.4 30.31 9.4 5.785 0 12.458-.41 20.01-1.204 7.536-.81 14.686-2.96 21.417-6.492 6.416-3.216 11.955-8.44 16.613-15.656 4.647-7.214 6.984-17.256 6.984-30.106V72.546c0-11.558-4.674-20.525-13.97-26.967zM214.78 141.39c-3.533 1.305-7.546 1.943-12.04 1.943-4.162 0-8.728-.726-13.707-2.167-4.99-1.448-7.46-4.584-7.46-9.39 0-.508.123-.97.207-1.45l-.517-27.04c-.06.03-.133.055-.186.084V91.32c0-8.983 2.573-16.067 7.695-21.195 5.15-5.128 12.218-7.687 21.195-7.687 5.464 0 9.637 1.276 12.528 3.856 2.882 2.898 4.322 6.72 4.322 11.54 0 3.55-1.116 7.054-3.36 10.608-2.563 2.555-6.726 4.642-12.525 6.25l-11.06 2.422c-4.584 1.09-8.528 2.243-11.953 3.446l.425 22.534c3.48-1.706 8.218-3.003 14.396-3.843 2.893-.31 5.465-.71 7.706-1.204 2.275-.477 4.184-.722 5.785-.722 12.198-1.927 22.237-5.77 30.096-11.55 7.86-5.767 11.8-15.407 11.8-28.89 0-14.446-4.34-24.8-13-31.07-8.67-6.25-18.782-9.38-30.346-9.38-5.764 0-12.423.406-19.978 1.195a59.577 59.577 0 0 0-21.415 6.49c-6.436 3.216-11.962 8.45-16.622 15.65-4.653 7.225-6.99 17.266-6.99 30.107V133.7c0 11.55 4.665 20.53 13.975 26.98 8.976 6.088 22.47 9.138 40.442 9.138 16.062 0 28.41-3.688 37.086-11.08 7.695-6.425 12.197-16.685 13.483-26.65l-32.265 2.104c-1.6 3.514-4.177 5.938-7.715 7.198zM511.275 195.788c0 4.622-3.737 8.31-8.474 8.31-4.73 0-8.494-3.688-8.494-8.31 0-4.642 3.765-8.254 8.546-8.254 4.686 0 8.423 3.613 8.423 8.254zm-14.852 0c0 3.676 2.76 6.59 6.43 6.59 3.586.058 6.297-2.914 6.297-6.54 0-3.678-2.71-6.652-6.392-6.652-3.575 0-6.335 2.974-6.335 6.602zm5.08 4.274h-1.926v-8.26c.764-.098 1.83-.25 3.18-.25 1.57 0 2.274.25 2.812.663.505.342.868.967.868 1.745 0 1.018-.762 1.682-1.712 1.96v.122c.81.25 1.2.887 1.456 2.007.256 1.264.458 1.7.608 2.012h-2.034c-.233-.31-.394-1.016-.64-2.013-.15-.855-.646-1.26-1.713-1.26h-.9v3.272zm.053-4.637h.902c1.045 0 1.905-.343 1.905-1.22 0-.74-.555-1.243-1.745-1.243-.513 0-.874.047-1.063.106v2.357z"/><path d="M477.634 104.544c-.004-35.905-24.78-37.718-29.752-37.718-8.795.01-15.54 2.64-20.492 7.836-10.768 11.317-9.925 31.095-9.914 31.293 0 14.313 3.768 24.655 11.21 30.906v-10.745c0-10.29 8.415-18.664 18.756-18.664 10.343 0 18.762 8.376 18.762 18.665v10.966c12.406-10.868 11.44-32.3 11.43-32.536z"/></svg>