<svg xmlns="http://www.w3.org/2000/svg" viewBox="0 0 790 197"><path d="M349.3 163.1c-6.1-1.4-11.9-6-13.3-10.7-2-6.7.5-12.5 6.9-16.2 1.5-.8 2.7-1.6 2.7-1.8 0-.1-.8-.6-1.8-1.1-4.6-2.2-6.1-7.4-3.5-12.5.8-1.5 3.1-3.7 5.3-4.8 1-.5.9-.6-1.5-2.2-4.9-3.3-6.8-7.5-6.5-14.03.2-4.09 1-6.29 3.4-9.42 1.4-1.95 5.3-4.42 8.7-5.61 3.8-1.3 10.7-1.38 18.5-.23 4.2.64 7 .77 11.4.58l5.8-.26v5.35h-9.1l1.3 1.78c1.9 2.56 2.5 5.24 2.3 9.64-.3 4.6-1.5 7.3-4.9 10.4-4.4 4.2-8.9 5.4-18.4 5.2-6.2-.1-6.9-.1-7.7.7-1.4 1.2-2 3.9-1.4 5.7 1 2.7 4.4 3.5 15.5 3.6 8.2 0 9.2.2 13.3 1.5 5.5 1.7 9.1 6.7 9.1 12.7 0 10.3-8.1 19.3-19.5 21.7-4.3.8-12.6.8-16.6 0zm15.4-4.3c8.4-1.8 13.1-8.5 11.2-15.8-.7-2.6-3.6-5.5-6.7-6.5-7.2-2.4-17.6-1.5-22 1.8-4.2 3.2-5 10.7-1.6 15.4 1.4 2 5.7 4.5 8.7 5.1 2.9.5 7.7.5 10.4 0zm-2.5-45.8c5.1-1.5 8.2-7.1 7.7-13.95-.5-7.58-4.2-11.35-11.4-11.35-3 0-3.9.19-5.5 1.09-3.6 2.09-5.3 5.76-5.3 12.01 0 4.9.8 7.5 3.3 9.9 2.9 2.8 6.9 3.6 11.2 2.3zm144.9 39.7c.2-5.4.3-23 .3-39V84.54h10.5l-.4 2.49c-.1 1.37-.3 3.28-.3 4.24v1.74l1.8-2.19c3.9-4.75 9.2-7.14 15.8-7.11 10.6 0 18.9 6.38 22.1 16.89 1.4 4.4 1.5 13.9.3 18.5-2 6.9-6.8 13-12.5 15.7-9.3 4.4-21.1 2.3-26.3-4.6l-1.3-1.9.2 16.5c.1 9.1.3 16.8.5 17.2.2.6-.5.6-5.4.6h-5.7l.4-9.9zm30.4-22.1c6.1-2 9.6-9.3 9.5-20.1 0-13.7-5.6-21.68-14.9-21.36-6.8.24-11.3 4.09-13.7 11.56-1.1 3.7-1.6 12.1-.8 16.4 1.8 11.1 10.2 16.7 19.9 13.5zm-366.5 6c-6.4-.5-11.1-2.5-15.2-6.6-4.6-4.7-7-11.2-6.9-19.5 0-7 1.3-11.77 4.6-16.69 3-4.53 6.6-7.14 12.3-8.88 4.1-1.25 13.5-1.13 17.3.22 8.7 3.04 13 9.37 13.5 20.05l.3 4.9h-37.5l.2 2.6c.3 4.1 1 6.9 2.3 9.8 3.3 6.7 10.3 10.1 18.2 8.8 4.5-.7 7.8-2.4 10.9-5.5 3.3-3.4 3.9-3.2 3.3 1.2-.5 3.1-.6 3.4-2.2 4.7-5 4-12.1 5.6-21.1 4.9zm15.1-33.9c-.7-7.81-3.5-12.2-8.5-13.66-5.1-1.47-11.2.32-14.1 4.17-1.6 2.13-3.2 6.56-3.6 9.99l-.3 2.4h26.8l-.3-2.9zM44.01 136c-2.95-.6-8.49-2.9-10.38-4.4-.82-.6-.82-.7-.11-3.7.68-2.9 1.07-5.1 1.16-6.4.1-1.4 1.75-.3 3.42 2.2 3.61 5.6 8.03 7.8 15.57 7.8 5.79 0 8.39-1 11.47-4.3 2.78-3 3.56-4.9 3.58-9 0-7.3-3.14-10.6-15.28-15.6-6.48-2.63-12.67-6.02-14.53-7.88-6.17-6.17-6-18.61.34-25.5 2.43-2.63 6.13-4.87 10.07-6.07 3.76-1.15 11.91-1.29 16.66-.29 3.27.7 8.12 2.68 8.93 3.67.37.44.22 1.32-.61 3.43-.62 1.57-1.25 3.61-1.42 4.54-.43 2.46-1.77 2.31-3.01-.35-1.29-2.74-4.71-5.73-7.63-6.68-3.06-.99-8.24-.98-11.34 0-7.57 2.44-10.13 12.36-4.76 18.45 2.09 2.38 4.27 3.54 14.3 7.6 8.48 3.43 10.91 4.84 13.74 8.08 8.2 9.1 3.71 26.3-8.38 32.2-5.57 2.8-14.52 3.6-21.79 2.2zm63.59.1c-7.93-2-14.17-8-16.75-16-1.1-3.4-1.35-12.8-.45-16.9 2.03-9.1 7.65-15.54 15.8-18.1 2.7-.84 4.2-1 9.1-.98 6.3 0 9.6.81 13.3 3.12 5.7 3.62 9 10.55 9 19.06v3.8h-37v2.4c0 13.2 9.5 21.3 21.8 18.6 3.9-.9 7.8-3.2 10.3-6.1 2.4-2.8 3-2.3 2.4 2.1l-.5 3.5-2.7 1.8c-4.6 3.1-7.9 4-15.5 4.1-4.3.1-7.3 0-8.8-.4zm19.4-33.6c-.8-7.77-3.5-12-8.5-13.46-5.2-1.49-11.1.26-14 4.14-2.2 2.78-4.4 9.92-3.7 11.72.2.6 2.1.7 13.4.7h13.1l-.3-3.1zm504.6 33.6c-3.9-1.5-6.8-4.4-8.4-8.4-1-2.4-.8-8.4.3-10.9 2.2-4.8 6-6.9 17.6-9.5 4.4-1 8.5-2 9.1-2.2 1.1-.5 2.3-2.9 2.3-4.6 0-.63-.3-2.23-.7-3.58-1.6-5.35-6.7-8.25-13-7.28-3.8.58-6.2 2.12-8.1 5.15-1.4 2.04-2.8 2.83-3.9 2.14-.4-.24-.5-1.29-.3-3.56.3-3.7.5-4.01 5.3-6.51 4.4-2.33 7.3-3.04 12.2-3.03 8.5 0 14.1 2.98 16.8 8.83 1 2.22 1 2.54 1 18.74.1 11 .2 16.9.6 17.7.7 1.7 2.1 2.3 4.2 2 1.7-.3 1.7-.3 1.7 1.3 0 1.4-.1 1.6-2.1 2.5-2.9 1.3-7.2 1.7-9 .7-1.7-.8-3.7-3.1-4-4.6-.2-.6-.4-1.1-.5-1.1-.1 0-1.1.8-2.1 1.6-1 .9-3.4 2.4-5.2 3.3-3.1 1.5-3.8 1.7-7.7 1.8-2.9.1-4.9-.1-6.1-.5zm15-6.9c2.7-1.3 4.7-3.5 5.4-6 .3-1 .5-4.4.5-7.7v-6l-2.2.3c-6.5.9-13.1 3.4-15.3 5.9-2.6 3-2.8 8.3-.4 11.7 2.2 3 7.8 3.9 12 1.8zM208.2 96.72V58.35h11.2l-.3 3.61c-.6 7.77-.8 44.94-.3 44.94 1.2 0 18-16.61 20.9-20.65l.9-1.28h11.2s-5.3 4.65-11.7 10.28l-11.8 10.25 8 9.3c4.4 5.2 10 11.6 12.5 14.3 2.5 2.6 4.6 5.1 4.7 5.4.1.4-1.6.5-6.7.5H240l-3.8-4.9c-6.4-8.5-15.7-19-16.9-19.2l-1-.1.2 11.4c.1 6.3.4 11.8.5 12.1.3.6-.5.7-5.2.7h-5.6V96.65zM262 130.2c.4-6.5.4-35.9 0-41.15l-.4-4.06h11l-.3 2.93c-.5 3.95-.5 36.48 0 42.48l.3 4.7h-11l.4-4.9zm19 1.1c.2-2.1.4-13.5.4-25.3V84.53h10.4l-.2 3.16c-.1 1.74-.2 3.74-.3 4.45l-.1 1.27 1.2-1.5c4.4-5.81 10.6-8.4 18.8-7.89 5.7.36 8.8 1.58 11.7 4.57 1.5 1.5 2.7 3.32 3.4 5.02 1.1 2.66 1.1 2.68 1.1 22.09v19.4h-11l.3-1.8c.1-1 .3-8.6.3-16.9 0-13.4-.1-15.4-.8-17.87-1.6-5.13-4.5-7.41-9.8-7.79-4.5-.33-7.6.73-10.6 3.64-1.9 1.81-2.6 2.92-3.1 4.83-1.5 5.19-1.9 18.59-.9 32.29l.3 3.6h-11.4l.3-3.8zm132.4 3.7c0-.1 2.7-6.2 6-13.6 11-24.41 20.7-46.44 24.5-55.94l1.3-3.28 2.6.12 2.7.13 4.1 10.38c4.8 11.76 10.8 25.77 20.3 47.39 3.6 8.1 6.6 14.8 6.6 14.9H475l-6.5.1-1.7-5.2c-.9-2.9-3-8.4-4.6-12.3-1.6-3.8-3.1-7.5-3.4-8.2l-.5-1.2h-26.4l-.8 1.7c-2.8 6.7-5.4 13.6-7 18.9l-1.8 6.3h-4.5c-2.4 0-4.4-.1-4.4-.2zm42.4-32.4c0-.4-10.5-24.38-10.8-24.7-.2-.24-9.4 20.58-10.8 24.5-.1.3 4.2.4 10.7.4 6 0 10.9 0 10.9-.2zm31.8 30.5c.4-2.7.4-68.09 0-71.8l-.3-2.94h11.4l-.4 8.58c-.4 11.04-.4 49.56 0 60.06l.4 8.1h-11.4l.3-2zm80.9-.9c.4-3.8.4-67.08 0-70.91l-.4-2.95H580l-.3 3.17c-.1 1.74-.4 9.67-.5 17.61l-.3 14.45 1.3-1.81c2.9-3.97 6.4-6.2 11.4-7.25 5.8-1.23 11.6-.61 15.9 1.72 3.1 1.62 4.6 3.22 6.2 6.66l1.2 2.48.1 19.93.1 19.8h-10.9l.4-6.5c.5-10.1.4-25.1-.3-28.2-1.6-7.2-5.7-10.28-12.8-9.64-5.5.5-9.8 3.9-11.5 9.01-.9 2.83-1.3 18.93-.7 29.03l.4 6.3h-11.6l.4-2.9zm141.1-37.34c-.5-.1-2-.39-3.4-.66-3.9-.77-8.4-3.19-11.3-6.01-9-8.73-11-26.01-4.7-39.39 3.9-8.23 10.3-13.4 18.9-15.36 6.3-1.43 13.1.68 18.1 5.6 2.7 2.69 6.3 8.3 6.8 10.58.2.71.5 1.39.7 1.52.4.28 2.5-2.91 7-11l3.2-5.7 2.8-.13c2.2-.11 2.8 0 2.6.45-.1.32-1.3 3.23-2.7 6.47-9.8 23.13-10.6 37.84-2.7 45.57 3 2.92 5.6 2.67 7.3-.72.5-1.14 1.1-3.13 1.3-4.42.2-1.99.5-2.46 1.5-3.01 1.3-.65 1.3-.65 1.6 1.04.2.93.4 3.34.4 5.36 0 3.01-.2 4.07-1.1 5.82-1.7 3.18-3 4-6.9 4.19-3 .14-3.4 0-5.4-1.23-2.5-1.58-5.3-5.6-6.5-9.21-.4-1.28-.8-2.38-.8-2.43 0 0-2 1.78-4.3 4.07-3.3 3.15-5.2 4.57-7.8 5.86-4.8 2.39-10.7 3.5-14.6 2.74zm10.4-6.43c6.5-2.89 10-9.91 10.5-21.29.4-9.55-1.4-16.83-5.6-22.41-3.4-4.44-6.9-6.44-11.4-6.51-7.8-.11-13.3 5.41-15.7 15.63-1.2 5.47-1.1 15.03.2 20.08 1.9 7.05 5.8 12.55 10.3 14.75 1.9.95 2.7 1.07 5.8.93 2.5-.12 4.4-.49 5.9-1.18zm-455.1-15.7c-3.9-1.98-4.2-7.21-.6-10.04 2.3-1.87 6.6-.9 8.3 1.9 1 1.75 1.1 3.52.1 5.53-1.3 2.83-4.9 4.05-7.8 2.61z"/></svg>