<svg xmlns="http://www.w3.org/2000/svg" xmlns:xlink="http://www.w3.org/1999/xlink" viewBox="0 0 294.06 294.09" version="1"><defs><linearGradient id="g"><stop offset="0" stop-color="#aebf97"/><stop offset="1" stop-color="#10213a"/></linearGradient><linearGradient id="f"><stop offset="0" stop-color="#c0cfac"/><stop offset="1" stop-color="#c0cfac" stop-opacity="0"/></linearGradient><linearGradient id="e"><stop offset="0" stop-color="#bac9a7"/><stop offset="1" stop-color="#183157"/></linearGradient><linearGradient id="c"><stop offset="0"/><stop offset=".274"/><stop offset="1" stop-color="#fff"/></linearGradient><pattern patternUnits="userSpaceOnUse" width="2" height="1" patternTransform="scale(10)" id="a"><path fill="#fff" d="M0-.5h1v2H0z"/></pattern><linearGradient id="b"><stop offset="0" stop-color="#f9cd9f"/><stop offset="1" stop-color="#f9cd9f" stop-opacity="0"/></linearGradient><radialGradient r="93.5" fy="170.01" fx="-1.5" cy="170.01" cx="-1.5" gradientTransform="matrix(1 0 0 .98396 0 2.728)" gradientUnits="userSpaceOnUse" id="d" xlink:href="#c"/></defs><path d="M152.17 38.75v.05c-22.41.852-35.21 12.808-40.67 28.603.6.346 1.16.675 1.79 1.052 1.04.61 2.06 1.207 2.85 1.677.82.47 1.38.8 1.64.894a.243.243 0 0 0 .31-.157c.49-1.004 1-1.757 1.72-2.274.71-.534 1.6-.847 2.87-.957 2.54-.204 6.53.407 13.03 1.77 12.57 2.623 15.6 6.593 15.72 6.763a.243.243 0 0 0 .21.15h6.61a.243.243 0 0 0 .19-.15c.16-.17 3.16-4.14 15.74-6.762 6.5-1.363 10.45-1.974 12.97-1.77 1.28.156 2.17.422 2.88.956.7.517 1.23 1.27 1.73 2.273a.243.243 0 0 0 .3.156c.24-.157.82-.423 1.62-.894.82-.47 1.83-1.066 2.85-1.677.57-.33 1.08-.628 1.58-.94-6.14-16.29-20.07-29.01-44.03-28.764-.62 0-1.3-.03-1.91 0zm-42.53 35.443c-2.06 9.93-1.62 20.85.83 31.237-.66.21-3.11 1.05-7.23 2.44-.19 0-.35.15-.52.18-23.327 7.88-87.928 30.67-77.344 38.23 6.44 4.6 26.315 8.43 45.972 10.2 3.55.31 7.162.63 10.61.8 0 2.43-.205 5-.607 7.75-1.35 9.09-.925 19.27 1.642 29.24-.643 6.92-3.603 27.52 2.73 43.77-5.326.3-10.64 1-15.86 2.2-2.638.63-5.343 1.14-7.836 2.24-4.346 1.96-9.05 4.12-11.665 8.31-.79 1.47.558 3.53 2.247 3.2 6.298.87 12.68 0 18.993.67 8.28.46 16.567.95 24.863.53 4.767-.15 9.537-.37 14.307-.23 5.48 0 11-.18 16.45-.97 2.81-.55 5.65-1.76 7.53-3.98.8-1.44.39-3.05-.6-4.23-21.61-5.63-34.315-18.3-34.315-18.3l1.055-1.05s19.33 19.3 50.97 20.43c31.55 1.11 55.03-22.32 55.03-22.32l1.06 1.05s-14.78 14.81-36.85 20.58c-.76 1.12-1.05 2.55-.33 3.84 1.88 2.22 4.72 3.43 7.53 3.98 5.43.79 10.95.97 16.45.97 4.76-.16 9.53 0 14.3.23 8.28.42 16.57-.15 24.85-.53 6.33-.67 12.71.2 19.01-.67 1.68.33 3.02-1.73 2.24-3.2-2.61-4.19-7.32-6.35-11.66-8.31-2.51-1.1-5.21-1.61-7.84-2.24-5.72-1.31-11.59-2.03-17.46-2.27 8.09-16.81 6.74-38.86 7.28-42.66 1.04-3.45 1.77-6.94 2.16-10.39 16.46 6.86 32.94 11.97 40.05 11.14 13.83-1.6-42.07-78.05-66.96-94.25 1.71-8.917 1.63-18.587-.54-27.587-.81.46-1.71.9-2.64 1.32-2 .89-4.05 1.77-5.39 3.04-.53.39-.71.96-.89 1.57-.16.61-.34 1.3-.82 2.07-.98 1.54-3.25 3.44-9.44 5.3-6.11 1.85-9.7 2.68-12.08 2.95-2.38.25-3.55 0-4.95-.46-1.32-.39-2.36-1.58-3.05-2.69-.69-1.12-1.03-2.12-1.03-2.12s0-.33-.2-.8c-.16-.48-.39-1.14-.75-1.82-.69-1.33-1.88-2.77-3.76-2.99h-.2c-1.9.22-3.08 1.66-3.78 2.99-.35.68-.58 1.34-.74 1.82-.15.5 0 1.11 0 1.11l-.2-.31s-.35 1-1.04 2.12c-.69 1.11-1.72 2.3-3.02 2.69-1.4.43-2.59.71-4.99.46-2.4-.27-5.99-1.1-12.11-2.93-5.69-1.73-8.09-3.48-9.21-4.96-.55-.73-.78-1.41-.97-2.01-.17-.59-.27-1.14-.6-1.6-.15-.15-.2-.17-.28-.23-1.33-1.29-3.4-2.16-5.39-3.07-.94-.44-1.87-.88-2.68-1.35zm45.42 5.44v.19h-.16a.243.243 0 0 0 0-.16l.16.16a.243.243 0 0 0 0-.16zm-.82 8.53c3.31-.15 6.73 1.82 10.75 5.89 4.42 2.31 8.51 2.68 8.67 6.917.4 10.32-11.23 25.44-19.56 24.64-7.75-.72-16.36-11.48-17.77-22.35-.69-5.577 3.44-6.417 7.92-8.877 3.5-3.91 6.68-6 9.99-6.09zm17.75 25.947a62.32 62.32 0 0 1 3.75 1.07h.16a62.32 62.32 0 0 1 38.48 79.28 62.32 62.32 0 0 1-79.24 38.53 62.32 62.32 0 0 1-38.567-79.23 62.32 62.32 0 0 1 41.167-39.37c3.97 7.49 10.35 13.28 16.28 13.82 5.99.57 13.49-6.17 18.01-14.14zm-16.46 14.69h-2.14c-7.55-.2-14.66 1.98-20.88 5.71l4.94 9.46-2.03 1.06-4.83-9.3c-12.55 8.42-21.05 23.39-21.5 38.46l15.56-.39v2.25l-15.56.39c.15 6.35 1.75 12.66 5.16 18.41 7.6 15.28 24.76 24.39 41.62 24.5l-.28-16.07h2.26l.28 16.02c6.76-.29 13.39-2.03 19.28-5.48l-4.61-8.92 2.01-1.02 4.52 8.74c2.07-1.37 4.01-2.93 5.81-4.76 3.69-3.33 6.69-7.31 9.02-11.69l-10.1-4.15.84-2.06 10.28 4.2c2.82-5.95 4.4-12.51 4.64-19.08l-15.4.16v-2.25l15.46-.15c0-6.58-1.43-13.07-4.23-18.93l-9.12 3.71-.85-2.09 8.93-3.62c-2.42-4.41-5.68-8.39-9.86-11.63-1.73-1.5-3.55-2.91-5.48-4.14l-4.36 8.46-2.01-1.03 4.44-8.62c-6.61-3.87-14.16-6.14-21.81-6.18zm-1.19.21h2.24v17.18h-2.24v-17.18zm-39.28 24.7l9.86 3.97-.84 2.09-9.86-4 .84-2.06zm39.89 4.52a16.74 16.74 0 0 1 16.35 11.28 16.74 16.74 0 0 1-10.35 21.27 16.74 16.74 0 0 1-21.29-10.35 16.74 16.74 0 0 1 10.35-21.28 16.74 16.74 0 0 1 4.91-.9zm-30.03 32.65l.83 2.07-9.84 4.04-.85-2.07 9.86-4.04zm13.06 13.05l2.01 1.06-4.96 9.46-1.99-1.08 4.94-9.44z"/></svg>