<svg xmlns="http://www.w3.org/2000/svg" viewBox="-452 245.7 374 150.3"><path class="st0" d="M-360.3 288.6c-.5.8-1 1.4-1.6 1.9s-1.2.8-1.8 1.1c-.6.2-1.2.4-1.7.5s-.9.1-1.3.1c-1.3 0-1.8-.7-1.7-2 .2-1.3.3-2.8.4-4.3.1-1.6-.3-3-1.2-4.3-.9-1.3-3-2-6.4-2-2.1 0-4.1.4-6.2 1.3-2.1.9-4.1 2-5.9 3.3-1.9 1.3-3.5 2.8-5 4.5-1.5 1.6-2.6 3.2-3.6 4.8-1.5 2.5-2.4 4.9-2.7 7s-.2 4.1.4 5.9c.6 1.9 1.5 3.7 2.8 5.5 1.3 1.8 2.7 3.7 4.2 5.7 1.3 1.7 2.6 3.4 3.8 5.1 1.2 1.7 2 3.6 2.6 5.6.6 2 .7 4.1.4 6.4-.3 2.3-1.2 4.7-2.7 7.3-1.7 2.9-3.9 5.4-6.6 7.3-2.7 1.9-5.7 3.4-8.8 4.6-3.1 1.1-6.3 1.9-9.5 2.4-3.2.4-6.2.7-9 .7s-5.6-.2-8.4-.7-5.2-1.3-7.2-2.4-3.3-2.6-3.9-4.4c-.7-1.8-.3-4 1.3-6.6 1.4-2.4 3.3-4.2 5.7-5.6 2.4-1.3 5.3-2.3 8.8-3-.4.5-1.2 1.3-2.4 2.4-1.2 1.1-2.3 2.7-3.5 4.7-1.3 2.2-1.6 4-.9 5.4.7 1.3 1.8 2.4 3.3 3.1 1.6.7 3.4 1.2 5.3 1.4 2 .2 3.7.3 5 .3.9 0 2.2-.2 3.9-.5 1.7-.3 3.5-.8 5.4-1.4 1.9-.6 3.7-1.5 5.3-2.6 1.7-1.1 3-2.4 3.8-3.9.7-1.2 1-2.4 1-3.7s-.2-2.7-.7-4c-.5-1.4-1.1-2.8-2-4.2-.8-1.4-1.8-2.9-2.9-4.3-1.5-2.1-3-4.3-4.4-6.5s-2.5-4.5-3.3-6.9c-.8-2.4-1.1-4.9-1-7.4.1-2.6 1-5.3 2.7-8.1 2.5-4.4 5.5-8.1 8.9-11.1 3.4-3 6.9-5.5 10.6-7.4 3.7-1.9 7.3-3.3 10.9-4.2 3.6-.9 6.9-1.3 9.8-1.3 2.2 0 4.4.2 6.7.5 2.2.4 4.1.9 5.8 1.5 1.6.7 2.8 1.5 3.5 2.6.7 1.1.6 2.3-.2 3.7-.6 1.1-1.6 2.2-3 3.2-1.1.7-2.2 1.8-2.8 3M-99 283.7c-3.2 0-5.7 2.6-5.7 5.8s2.5 5.7 5.7 5.7 5.8-2.5 5.8-5.7-2.6-5.8-5.8-5.8M-101.2 327.1l-.7.8c-7.1 8.3-14.1 14.8-18.4 14.8-2.2 0-3.4-1.5-1.1-5.4l21.2-37h-9.9l-15.5 26.8-.7.8c-7.1 8.3-14.1 14.8-18.5 14.8-2.2 0-3.4-1.5-1.1-5.4l21.2-37h8.1l2.9-4.8h-8.3l9.3-16.2h-9.9l-9.3 16.2h-8.9l-2.9 4.8h9l-15.5 26.8-.7.8c-7.1 8.3-14 14.8-18.4 14.8-2.2 0-3.4-1.5-1.1-5.4l9.9-17.3c3.4-6 1.8-9.5-1.4-13.4l-5.5-6.7c-1.4-1.8-1.4-3.8.6-5.7l-5.1-5.6c-5.6 5-6.1 10.7-2.6 15.2l.9 1.1c-4.4 6.2-10.3 14.6-16.7 22.2l-.7.8c-7.1 8.3-16.3 14.8-23.2 14.8-6.1 0-9.7-3.8-5.1-11.8l1-1.7c6.4 2.7 18.4 1.4 25.8-11.4l1.4-2.5c5.3-9.1.2-16-7.9-16-8 0-14.4 4.2-18.6 11.4l-9.5 16.4-.7.7c-5.5 6.5-12.1 11.8-18.1 13.9 1.6-2.6 2.9-5.3 4.1-7.4l10.9-18.7c9.2-15.7-5.7-20.9-15.8-11.9l2-3.4h-9.9l-15.5 26.9h-.1l-.7.8c-7.1 8.3-14.1 14.8-18.5 14.8-2.2 0-3.4-1.5-1.1-5.4l14.3-25c4.3-7.5.2-12.9-5.3-12.9-5.3 0-11.1 3.6-17.7 12 3.4-6.9-.6-12-5.8-12-5.1 0-10.8 3.3-17 11.2l5.9-10.3h-9.9l-15.5 26.8-.7.8c-7.3 8.2-16.5 14.7-23.4 14.7-6.1 0-9.7-3.8-5.1-11.8l1-1.7c6.4 2.7 18.4 1.4 25.8-11.4l1.4-2.5c5.3-9.1.2-16-7.9-16-8 0-14.4 4.2-18.6 11.4l-10.4 17.9c-6.2 10.6-.9 20.3 10.8 20.3 6.3 0 12.5-2.7 18.3-6.8l-3.4 5.9h10l11.5-20c18.4-25.7 27-23.6 22.4-15.5l-20.5 35.5h10.1l11.1-19.4c18.7-26.4 27.5-24.3 22.7-16.1l-12.8 22.2c-4.2 7.3-1.2 14.1 6.8 14.1 4.1 0 8.5-2.2 12.8-5.5l-14.7 25.5h10l29.6-51.5c11-15 18-9.5 15.4-5l-14.9 25.9c-1.6 2.9-5.3 3.7-7.1 0l-5.6 2.7s1.8 8 10.8 8h.6c10.4-.2 18.2-4.7 24.8-10.8.4 6.3 5.4 10.8 13.4 10.8 11.2 0 22.4-8.8 30.5-18.3 4.8-5.5 8.5-10.5 16.4-21.2l1.3 1.6c1.2 1.6 1.7 3.6.6 5.6l-10.5 18.1c-4.2 7.3-1.2 14.1 6.8 14.1 5 0 10.5-3.3 15.8-8-.2 4.6 3 8 8.6 8 5 0 10.5-3.3 15.8-8-.2 4.6 3 8 8.6 8 8.2 0 17.6-8.8 25.8-18.3-.6-1.3-2.3-2.8-3.6-3.4m-108.2-13.9c5.7-9.8 15.8-8.2 9.9 2.1l-1.4 2.5c-4.8 8.1-11.1 7.9-14.8 6.6l6.3-11.2zm-151.2 0c5.7-9.8 15.8-8.2 9.9 2.1l-1.4 2.5c-4.8 8.1-11.1 7.9-14.8 6.6l6.3-11.2z"/></svg>