<svg xmlns="http://www.w3.org/2000/svg" viewBox="0 0 545 150"><path d="M413.95 22c-5.89.1-11.72 2.56-15.92 7.19-3.12 3.42-4.96 7.48-5.43 12.1-.68 6.8 1.41 12.7 6.03 17.7-3.93 7.78-7.78 15.35-11.67 22.96-3-.13-5.73-.1-8.6.43-4.62-7.74-9.19-15.39-13.72-22.96 6.2-9.71 2.99-18.65-1.63-23.35-5.56-5.64-14.02-7.14-21.04-3.55-7.09 3.55-10.9 11.25-9.53 19.29.6 3.67 2.31 6.92 4.96 9.58 4.27 4.19 9.53 5.6 15.35 5.04 4.66 7.78 9.19 15.39 13.68 22.92-9.15 11.76-5.39 25.44 2.44 32.03 8.42 7.1 20.91 7.14 29.16 0 3.98-3.47 6.59-7.87 7.44-13.09 1.24-7.61-.94-14.28-6.16-19.92 3.9-7.7 7.7-15.23 11.55-22.84v-.17c13.55-.21 21.72-5.86 24.33-16.55 2.39-9.62-2.09-19.54-10.95-24.28A21.018 21.018 0 0 0 413.95 22zM45.755 50.11c-3.897.11-7.804 1.09-11.695 2.98-8.253 4.02-10.52 11.03-9.024 19.03.984 5.21 4.405 8.64 9.108 10.82 3.592 1.71 7.44 2.69 11.16 4.02 2.01.68 3.94 1.49 5.604 2.82 2.01 1.58 2.91 3.63 2.91 6.28-.173 3.68-2.4 6.67-6.248 7.83-6.242 1.84-11.63.1-16.376-4.15-.556-.47-.855-1.15-1.796-1.58-2.395 2.27-4.83 4.53-7.398 6.93 1.455 1.83 3.036 3.2 4.832 4.27 7.867 4.66 16.25 5.65 24.93 2.95 7.613-2.35 12.06-7.65 12.916-15.69.727-6.8-1.673-12.23-7.658-15.78-1.41-.85-2.865-1.58-4.402-2.14-2.655-.89-5.303-1.84-7.913-2.69-1.795-.6-3.59-1.16-5.173-2.14-2.523-1.45-4.02-3.59-4.02-6.63.13-2.95 1.625-5.09 4.234-6.5 4.914-2.69 11.544-1.83 16.082 2.06.51.42.855 1.32 1.747 1.32 2.183-2.39 4.403-4.87 6.548-7.22-.218-.82-.728-.95-1.163-1.37-.765-.6-1.492-1.16-2.302-1.59-4.913-2.67-9.9-3.97-14.903-3.83zm248.305 1.56c-.58 0-1.19 0-1.86.44v59.6c.94.43 1.71.43 2.48.43h17.96c3.21.1 6.37-.3 9.49-.94 7.91-1.71 14.67-5.3 19.54-12.01 4.88-6.8 5.73-14.46 4.88-22.45-.3-2.57-.81-5.05-2.01-7.49-7.44-2.31-12.49-7.18-15.01-14.62-4.87-2.05-9.92-2.95-15.09-2.95h-20.38zm-222.76 0v60.12h10.69V85.4c3-.34 26.39-.16 28.27.42v26.22h10.34c.69-2.91.52-58.41 0-60.12h-10.3V76l-28.48-.21V51.67zm120.54 0c-.34 0-.77 0-1.28.42v59.73h10.65V86.47h7.82c4.75 8.59 9.41 17.1 13.99 25.53h12.99c-2.78-4.62-5.43-8.99-8.03-13.35-2.61-4.4-5.26-8.76-7.96-13.25 1.33-.46 2.4-.76 3.38-1.2 6.63-2.61 10.39-7.74 10.39-14.83.17-7.05-3.21-12.48-9.62-15.39-3.51-1.59-7.27-2.31-11.08-2.31zm-40.66.16c-8.72 20.06-17.45 40.07-26.21 60.26h12.01c1.84-4.62 3.64-9.15 5.48-13.74h26.16c1.89 4.59 3.77 9.15 5.69 13.77h12.27c-8.76-20.34-17.4-40.35-25.99-60.29zm301.84 0c-.43 1.11-.43 1.92-.43 2.78V85.4c0 1.58-.1 3.12-.51 4.61-1.11 3.51-3.76 5.49-7.53 5.49-3.67 0-6.45-1.98-7.52-5.43-.51-1.47-.51-2.91-.51-4.37V58.63c0-.77 0-1.53-.43-2.57-2.23 3.72-5 6.72-8.47 8.99-3.5 2.23-7.44 3.37-11.67 4.02.47 8.16-.56 16.17.47 24.16 1.07 8.16 5.43 14.24 13.04 17.75 7.57 3.49 15.52 3.66 23.48 1.95 11.97-2.52 19.71-11.76 19.71-23.55V53.73c0-.6.17-1.24-.47-1.88zm28.01 0l.17 60.17H524V95.27h-23.6c-.43-2.01-.47-3.67 0-5.59h20.74v-15.9h-20.83c-.42-1.85-.51-3.35 0-5.15h22.11v-16.8zm-238.73.1V112c2.52.44 39.17.44 41.14 0v-9.45h-30.45V85.62h27.41c0-3.12.43-6.03 0-9.2h-27.41V61.08h28.91v-9.15zm-33.2 8.82c2.56 0 5.11.13 7.63.79 2.91.74 5.26 2.36 5.99 5.52.68 2.91.17 5.61-2.06 7.74-1.45 1.46-3.33 2.09-5.34 2.52-4.58.9-9.15.48-13.98.48V60.82c2.61.1 5.19-.1 7.76-.1zm101.24.22c3.2 0 6.39.18 9.57.87 8.98 1.94 14.62 8.43 15.09 17.63.43 2.38.43 4.83 0 7.17-1.24 6.73-5 11.47-11.33 14.08-6.67 2.7-13.64 2.18-20.74 2.18l-.21-41.48c.6-.42 1.24-.42 1.88-.42 1.91 0 3.82-.1 5.74 0zm-154.5 4.29c2.95 7.83 5.94 15.66 8.98 23.69h-18.56c2.95-8.04 6.07-15.86 9.58-23.69z"/></svg>