<svg xmlns="http://www.w3.org/2000/svg" viewBox="0 0 210 50"><path d="M164 39.85l-10.7-19.27v19.27h-6V9.8h9.8l10.3 18.94V9.8h6v30.05zm-35.1-24.5v6.67h11.5v5h-11.5v7h13.5v5.83h-22.2V9.8h21.9v5.55zM105 39.85V20.03l-8.62 20.09h-5.15l-8.31-20.09v19.82h-6.03V9.8h10.9l7.44 18.39L103 9.8h10.4v30.05zm-46.58-24.5v6.67h11.51v5H58.42v7h13.54v5.83H49.83V9.8h21.86v5.55zm-15.49 24.5H34V9.8h8.93zm-15.21-29.5v5.83c-3.02-1.14-5.7-1.72-8.06-1.72-1.39 0-2.5.26-3.33.76-.84.5-1.26 1.12-1.26 1.85 0 .97.95 1.84 2.85 2.61l5.48 2.67c4.41 2.11 6.62 4.92 6.62 8.44 0 2.93-1.18 5.26-3.51 6.99-2.35 1.75-5.48 2.61-9.41 2.61-1.81 0-3.43-.1-4.87-.24-1.44-.15-3.083-.47-4.933-.93v-6.1c3.383 1.14 6.453 1.72 9.193 1.72 3.3 0 4.93-.95 4.93-2.88 0-.96-.66-1.73-2.01-2.34l-6.09-2.6c-2.26-1.01-3.932-2.24-5.007-3.7-1.093-1.47-1.627-3.16-1.627-5.08 0-2.7 1.128-4.87 3.384-6.53 2.25-1.63 5.25-2.456 8.99-2.456 1.22 0 2.61.107 4.17.305 1.55.21 3.05.47 4.49.79zm172.38 0v5.83c-3-1.14-5.7-1.72-8-1.72-1.4 0-2.5.26-3.4.76-.8.5-1.2 1.12-1.2 1.85 0 .97.9 1.84 2.8 2.61l5.5 2.67c4.4 2.11 6.6 4.92 6.6 8.44 0 2.93-1.2 5.26-3.5 6.99-2.3 1.75-5.5 2.61-9.4 2.61-1.8 0-3.4-.1-4.9-.24-1.4-.15-3.1-.47-4.9-.93v-6.1c3.4 1.14 6.4 1.72 9.2 1.72 3.3 0 4.9-.95 4.9-2.88 0-.96-.6-1.73-2-2.34l-6.1-2.6c-2.2-1.01-3.9-2.24-5-3.7-1.1-1.47-1.6-3.16-1.6-5.08 0-2.7 1.1-4.87 3.4-6.53 2.2-1.63 5.2-2.456 9-2.456 1.2 0 2.6.107 4.1.305 1.6.21 3.1.47 4.5.79z"/></svg>