<svg xmlns="http://www.w3.org/2000/svg" viewBox="0 0 200 109.81"><path d="M86.22 82.95V72.83c0-4.42 0-9.43-3.88-13.33-2.3-2.3-5.53-3.52-9.36-3.52-4.2 0-6.78 2.07-8.12 3.3v-.64c0-.19 0-.26-.1-.43v-.2l-.43-.58-.1-.1c-.28-.2-.61-.33-.98-.33h-7.01c-.91 0-1.65.74-1.65 1.66v32.42c0 .92.74 1.66 1.65 1.66h7.01c.82 0 1.5-.6 1.63-1.38V66.91c.9-.63 3.49-2.04 6.13-2.04 1.53 0 2.75.41 3.52 1.18 1.2 1.19 1.4 3.39 1.4 7.87V91.06c0 .92.74 1.66 1.66 1.66h7c.82 0 1.5-.6 1.63-1.38V82.97m-70.9-22.11c-.6-.28-1.25-.63-1.81-1.07a3.6 3.6 0 0 1-.98-1.04l-.21-.41-.11-.25a3.6 3.6 0 0 1-.19-1.15c0-.66.19-1.27.51-1.8.64-1.14 1.84-1.98 3.07-2.35 3.69-1.2 7.69-.1 10.94 1.8l.61.32c.37.22.76.36 1.09.36.55 0 1.03-.24 1.38-.61 1.19-1.44 3.08-4.35 3.12-4.4.34-.56.38-1.32 0-1.9l-.33-.45-.48-.38c-5.07-3.52-11.58-4.71-17.62-3.73-3.52.6-6.94 2.19-9.36 4.85C1.04 52.84.24 59.69 3.29 64.59c2.12 3.44 5.75 5.6 9.38 7.17 2.67 1.26 5.61 2.07 8.1 3.72a4.65 4.65 0 0 1 2.25 3.99c0 1.83-1.11 3.4-2.55 4.17-.79.41-1.55.74-2.42.91-.87.18-1.75.23-2.63.2-.5 0-.99-.1-1.49-.11-2.89-.26-5.44-1.6-7.98-2.87l-.2-.1c-.43-.18-.91-.17-1.34 0-.34.13-.57.35-.79.64-.25.33-2.73 4.19-2.91 4.53l-.22.66v.27c0 .54.23 1.02.59 1.36 2.52 2.13 5.75 3.31 8.93 4.09 5.26 1.13 11.01 1.03 15.88-1.43 8.16-3.75 10.86-15.88 4.68-22.49-4.12-4.32-10.01-6.01-15.26-8.47m134.15 24.88c-.4-1.09-1.2-1.26-1.65-1.26l-.68.11c-1.01.27-1.93.4-2.91.4-3.76 0-4.07-2.66-4.07-5.63V65.65h9.05c.92 0 1.66-.74 1.66-1.66v-5.36c0-.87-.67-1.57-1.52-1.64h-9.16v-8.85c0-.91-.74-1.65-1.65-1.65h-7.01c-.26 0-.52.1-.74.18-.7.29-.92.93-.92 1.42V79c0 4.88 0 8.4 3.1 11.5 2.81 2.82 7.03 3.23 9.29 3.23 3.47 0 6.02-.83 7.63-1.59.44-.21 1.58-1.01.95-2.77l-1.34-3.64m19.73-29.75c-9.95 0-17.16 8.02-17.16 19.08 0 11.33 6.98 18.65 17.8 18.65 6.11 0 10.69-2.23 12.4-3.19.34-.19 1.29-1.03.47-2.64l-1.7-3.34c-.46-.89-1.1-1.08-1.55-1.08-.23 0-.45 0-.79.18l-.21.1c-2.7 1.21-5.24 1.79-7.77 1.79-2.74 0-5.02-.87-6.59-2.53-1.39-1.46-2-3.34-2.03-4.67h23.22v-3.34c0-11.91-6.01-19.01-16.09-19.01zm-7.13 14.74c.84-4.28 3.62-6.92 7.34-6.92 5.52 0 6.2 5.18 6.27 6.92h-13.61m37.41-22.7c-.1-.87-.77-1.55-1.65-1.55h-7.01c-.9 0-1.62.72-1.64 1.62v43.09c.1.86.78 1.53 1.64 1.53h7.01c.89 0 1.61-.7 1.65-1.58V48.02M48.52 58.57v-.22c-.13-.78-.81-1.38-1.63-1.38h-7c-.92 0-1.66.75-1.66 1.66v32.43c0 .91.74 1.66 1.66 1.66h7c.82 0 1.5-.6 1.63-1.39V58.57m60.74-2.59c-11.1 0-19.15 8.05-19.15 19.15 0 8.75 4.98 17.59 16.09 17.59 2.92 0 5.52-.62 7.84-1.89v1.61c0 4.25-.97 8.19-7.98 8.19-1.63 0-3.17-.26-4.56-.65-1.76-.52-3.41-1.37-5.05-2.19l-.18-.1c-.41-.17-.84-.15-1.25 0-.31.12-.53.32-.72.58-.23.31-2.54 3.88-2.7 4.2l-.2.62v.24c0 .5.22.95.55 1.26.73.68 1.64 1.2 2.52 1.68.25.14.52.27.78.39 2.69 1.34 6.65 2.62 11.91 2.62 5.62 0 10.07-1.59 13.21-4.73 3.87-3.88 3.87-7.78 3.87-12.71V59.81l-.3-.15c-4.73-2.37-9.93-3.68-14.65-3.68zm4.78 26.74c-.55.35-2.91 1.6-5.63 1.6-3.98 0-7.98-3-7.98-9.69 0-6.04 3.57-10.26 8.69-10.26 2.27 0 4.26.7 4.92.95v17.4m38.88-51.8c0-7.75 6.28-14.04 14.04-14.04 7.75 0 14.04 6.29 14.04 14.04 0 7.75-6.29 14.04-14.04 14.04-7.76 0-14.04-6.29-14.04-14.04m-27.56-11.64c-2.33-6.03.66-12.81 6.69-15.14 6.02-2.33 12.8.66 15.13 6.69 2.33 6.02-.66 12.8-6.69 15.13s-12.8-.66-15.13-6.68m-27.88-1.69c-3.94-3.85-4.01-10.16-.17-14.09 3.85-3.93 10.16-4.01 14.1-.16 3.93 3.85 4 10.16.15 14.09-3.85 3.93-10.16 4.01-14.08.16m-28.62 8.19c-4.32-1.4-6.68-6.05-5.28-10.36 1.41-4.32 6.06-6.68 10.38-5.27 4.31 1.4 6.68 6.05 5.27 10.37-1.41 4.32-6.05 6.67-10.37 5.26M44.15 43.01c-3.56.41-6.76-2.15-7.17-5.71a6.485 6.485 0 0 1 5.72-7.17c3.55-.4 6.77 2.15 7.16 5.71a6.47 6.47 0 0 1-5.71 7.17"/></svg>