<svg xmlns="http://www.w3.org/2000/svg" viewBox="0 0 368.5 368.5"><path d="M221.9 38.07c-26.3-8.9-54.8 5.32-63.7 31.77-.4 1.33-.8 2.65-1.1 3.85 15.1-4.65 31.9-4.78 48.1.67 24.7 8.24 44 25.38 55.5 46.64.4-1.1.7-2.1 1.1-3.2 11-33.08-6.8-68.7-39.9-79.73M106.6 121c-.4.9-.8 2-1.1 3.1-11.06 33.1 6.8 68.8 39.8 79.8 26.4 8.8 55-5.4 63.9-31.9.4-1.3.8-2.5 1-3.8-15.1 4.6-31.8 4.8-48.1-.5-24.7-8.4-44-25.4-55.5-46.7" opacity=".4"/><path d="M183.7 121c-20-6.6-31.1-27.24-26.6-47.31-22.5 6.91-41.6 23.79-50.5 47.31 11.5 21.3 30.8 38.3 55.5 46.7 16.3 5.3 33 5.1 48.1.5 4.6-20-6.7-40.6-26.5-47.2" opacity=".7"/><path d="M205.2 74.36c-16.2-5.45-33-5.32-48.1-.67-4.5 20.07 6.6 40.71 26.6 47.31 19.8 6.6 31.1 27.2 26.5 47.2 22.5-6.9 41.5-23.8 50.5-47.2-11.5-21.26-30.8-38.4-55.5-46.64M307.7 265.9c-8.4-6.5-17.6-11.9-17.6-22.9 0-11 10.5-12.9 14.6-12.9 5.6 0 10.4 1.6 12.8 4.4 2.1 2.6 2.8 4.8 3.2 9.4h1.2c.2-8.3.9-15.6.9-15.6-2-.7-8.9-2.7-17.7-2.4-7 .2-22.8 4.2-22.8 22.2 0 12.9 11.4 22 17 26.4 6 4.9 17.1 12.1 17.1 22.7 0 10.7-8.5 15.6-15 16-6.1.4-17.5-.1-19.8-17.4h-1v18.4c5.3 2.7 12.8 3.5 19.5 3.2 6.5-.3 24.8-3.8 24.8-22.9 0-15.1-8.2-21.6-17.2-28.6m-238.17 0c-8.3-6.5-17.49-11.9-17.49-22.9 0-11 10.53-12.9 14.61-12.9 5.54 0 10.38 1.6 12.7 4.4 2.16 2.6 2.81 4.8 3.21 9.4h1.22c.31-8.3.89-15.6.89-15.6-2.02-.7-8.81-2.7-17.61-2.4-7.03.2-22.94 4.2-22.94 22.2 0 12.9 11.53 22 17.03 26.4 5.96 4.9 17.14 12.1 17.14 22.7 0 10.7-8.53 15.6-15 16-6.04.4-17.56-.1-19.77-17.4h-1.14v18.4c5.41 2.7 12.95 3.5 19.6 3.2 6.57-.3 24.83-3.8 24.83-22.9 0-15.1-8.27-21.6-17.28-28.6m72.27-36.8v-1.5h-28v1.5c4.6.9 7.5.5 8.2 10.3.8 10.6 1.1 54.4 0 63.1-1.1 8.7-1.6 10.8-8.2 11.7v1.5h28v-1.5c-6.6-.9-7-3-8.2-11.7-1.1-8.7-.8-52.5 0-63.1.8-9.8 3.7-9.4 8.2-10.3m69.5-3.8c-25.5 0-46.2 20.8-46.2 46.3 0 25.6 20.7 46.3 46.2 46.3 25.7 0 46.4-20.7 46.4-46.3 0-25.5-20.7-46.3-46.4-46.3zm7.3 87.9c-20.8 3.7-36.3-12.8-40.4-35.7-4-22.9 4.8-43.7 25.8-47.4 21-3.7 36.4 12.8 40.5 35.7 4 22.9-4.9 43.7-25.9 47.4"/></svg>