<svg xmlns="http://www.w3.org/2000/svg" viewBox="0 0 467 184"><path d="M154.41 117.47c.27.7.54 1.33.8 1.77.44.7.97 1.05 1.59 1.05.44 0 .97-.17 1.59-.43 1.32-.62 56.67-26.403 64.97-30.192 1.24-.622 3.53-1.594 4.33-2.037.79-.442 1.14-1.147 1.14-1.76 0-.445-.17-.797-.35-1.153-1.06-1.677-6.44-7.32-15.36-13.505-7.06 3.882-18.19 9.89-34.69 9.973-4.06 0-4.94-.26-7.68-.26-8.12.08-10.07 3.528-10.42 10.588 0 1.33-.1 3.092-.1 5.036-.27 6.35-1.07 15.09-5.84 20.92M96.95 86.485c-1.407 0-2.03-.88-2.208-2.47a66713.2 66713.2 0 0 1-7.77-71.237c-.174-1.415-.526-3.797-.526-4.684 0-1.407.974-2.2 2.032-2.2 3.09 0 20.212 3.968 38.402 16.77-5.21 1.41-14.75 6.885-14.66 18.186 0 9.888 7.15 15.447 7.24 25.425 0 16.237-18.71 20.21-22.51 20.21m55.88 26.655c3.35-5.21 3.79-13.5 4.06-21.886.36-7.858 1.94-13.772 12.45-13.858 2.38 0 4.59.35 8.56.35 15.45-.08 25.51-5.383 31.78-8.916-12.8-8.117-31.43-16.416-54.64-17.39-1.5 4.242-13.25 36.903-14.13 39.552.18.08 2.21 2.38 4.77 6.88 3.8 6.178 5.83 11.388 7.15 15.268m-22.25-87.83c-5.91 1.15-14.65 6.53-14.56 15.978 0 8.563 7.06 13.858 7.06 25.07 0 8.475-4.68 14.213-9.71 17.394 2.03-.176 4.24-.265 6.71-.265 5.21-.09 8.29.438 8.47.438l26.48-32.488c-7.32-11.028-15.88-19.506-24.45-26.128M39.573 133.36c-6.18-2.91-11.3-5.21-11.3-9.97 0-3.62 2.912-6.18 8.648-6.18 2.032 0 3.8.17 5.564.52.884.18 1.85.36 2.737.36 4.945 0 7.767-3 9.62-8.65l.795-2.3c-.795-.35-8.913-3.88-19.508-3.88-16.862 0-25.776 10.77-25.776 22.07 0 5.65 1.767 9.71 4.5 12.97 3.625 4.15 8.658 6.89 13.42 9.18 6.973 3.45 13.237 5.92 13.237 10.95 0 4.5-4.587 7.06-10.765 7.06-8.563 0-15.976-4.85-16.86-5.38L6.91 173.17c1.235.71 10.152 6.36 24.98 6.36 15.715 0 27.63-9.01 27.63-22.95 0-13.78-11.03-18.89-19.947-23.22m61.527 6.45l28.6-35.05h-20.39l-22.773 30.19h-.36v-30.19H69.41v74.15h1.056c7.242 0 15.886-3.35 15.886-15.45v-17.04h.27l23.218 31.61h21.36zm343.22-2.83c-8.83 0-13.33 5.83-14.04 6.71-2.3-4.24-6.36-6.71-11.74-6.71-7.76 0-12.18 4.5-12.89 5.3-.35-1.24-1.94-4.51-6.98-4.51-1.4 0-3.52.45-3.7.45.18.97 1.15 5.56 1.15 11.91v27.9h10.24V149.6c.17-.17 3.98-4.06 8.56-4.06 4.68 0 6.89 3.44 6.89 8.12v24.37h10.24V149.6c.26-.26 3.97-4.06 8.65-4.06s6.79 3.44 6.79 8.12v24.37h10.33v-25.96c0-9.17-5.2-15.09-13.5-15.09M332.3 170.61c-6.98 0-11.92-5.47-11.92-12.62 0-7.95 5.65-12.71 11.92-12.71 3.35 0 4.76.97 6.97.97 2.38 0 3.71-1.15 4.85-3.45.71-1.23 1.07-2.03 1.07-2.03-.54-.26-5.65-3.79-14.48-3.79-12.89 0-20.57 9.27-20.57 21.01 0 12.89 8.83 20.92 20.57 20.92 8.56 0 13.68-3.44 14.65-4.15l-3.53-6.97c-.79.53-4.51 2.82-9.53 2.82zm-112.11-33.63c-9.8 0-18.01 7.95-18.01 21.01 0 13.33 8.03 20.92 19.95 20.92 9.53 0 14.47-4.15 15.09-4.5 0 0-.97-1.5-1.23-1.94-1.33-2.21-2.83-2.91-4.51-2.91-3.35 0-3.79 1.4-8.38 1.4-7.86 0-10.59-6.08-10.77-10.14h26.21v-3.09c0-12.45-7.14-20.75-18.35-20.75zm-7.86 16.5c0-4.58 3.17-8.82 7.76-8.82 5.04 0 7.78 4.41 7.86 8.82zm43.69 13.25v-41.84c0-4.68-3.09-8.3-8.03-8.3h-2.12v54.2c0 5.03 3.09 8.12 8.48 8.12 6.62 0 8.56-4.68 8.56-9.18-.26.18-1.68.71-3.09.71-2.38 0-3.8-1.33-3.8-3.71zm-68.32-1.41v-19.86h8.56l3-7.69H187.7v-12s-.88-.1-.97 0c-4.51 0-9.27 1.85-9.27 11.92v.1h-7.51v7.69h7.51v23.39c0 6.62 3.97 10.06 9.53 10.06 4.5 0 10.33-1.32 10.33-10.24-.35.18-2.56 1.59-4.94 1.59-3.36 0-4.68-2.03-4.68-4.94zm96.66-28.34c-9.8 0-18.1 7.95-18.1 21.01 0 13.33 8.04 20.92 20.05 20.92 9.44 0 14.38-4.15 15-4.5 0 0-.88-1.5-1.15-1.94-1.41-2.21-2.91-2.91-4.59-2.91-3.35 0-3.79 1.4-8.38 1.4-7.77 0-10.51-6.08-10.69-10.14h26.22v-3.09c0-12.45-7.23-20.75-18.36-20.75zm-7.95 16.5c0-4.58 3.27-8.82 7.77-8.82 5.04 0 7.86 4.41 7.94 8.82zm92.34 25.43c-12.53 0-20.04-8.21-20.04-20.92 0-12.62 7.42-21.01 20.04-21.01s20.04 8.39 20.04 21.01c0 11.92-6.8 20.92-20.04 20.92zm0-7.85c6.27 0 9.89-5.39 9.89-13.07 0-7.68-3.54-13.15-9.89-13.15-6.18 0-9.89 5.38-9.89 13.15 0 7.5 3.54 13.07 9.89 13.07z"/></svg>