<svg viewBox="0 0 900 400" xmlns="http://www.w3.org/2000/svg"><path d="M579.7 95.27c0 6.63-5.4 12.03-11.9 12.03-6.7 0-12.1-5.4-12.1-12.03 0-6.7 5.4-12.1 12.1-12.1 6.5 0 11.9 5.4 11.9 12.1zM820.3 233.3c0-1.4.8-3.5 2.4-6.4 1.6-2.8 3.2-4.2 4.8-4.2 0 0 1.6.6 3.2 2 2.3 1.3 5.5 2.7 9.5 4 4 1.4 8.7 2 14.3 2 5.5 0 10.3-1.6 13.5-4.7 3.9-3.2 5.5-7.5 5.5-13 0-5.4-1.6-9.6-4.7-12.7-3.2-3-9.6-5.9-19.1-8.5-9.5-2.7-15.9-6.1-20.6-10.4-4-4.2-6.4-10.4-6.4-18.9 0-8.5 3.2-15.6 9.5-21.4 7.2-5.7 15.1-8.5 26.2-8.5 7.2 0 13.5.9 19.1 2.7 5.5 1.9 8.7 3.9 8.7 6.2 0 1.8-.8 4.2-3.2 7.1-1.6 2.9-2.3 4.4-3.9 4.4 0 0-.8-.5-2.4-1.3-5.6-2.5-10.3-3.9-16.7-3.9-5.5 0-10.3 1.3-14.3 3.7-3.1 2.5-4.7 5.7-4.7 9.7 0 4 1.6 7.1 3.9 9.3 2.4 2.3 6.4 4.4 12.7 6.2 12.7 4.1 22.3 8.6 27 13.5 4.3 4.8 7.3 12.2 7.3 22s-4 17.9-10.5 24.3c-7.1 6.4-15.8 9.5-25.3 9.5-9.6 0-18.3-1.4-25.4-4.3-7.2-3-10.4-5.7-10.4-8.4zm-31.5-51.9c0-22.4-8-33.6-25.4-33.6-18.3 0-27.8 11.2-29.4 33.6h54.8zm-61.1 50.8c-8.8-9.2-13.8-23.2-13.8-42 0-18.9 5-33.3 13-43 8.7-9.7 20.6-14.6 35.7-14.6 30.4 0 45.8 18.5 45.8 55.4 0 1.2-.8 3-2.3 5.2-1.6 2.3-3.2 3.4-4.8 3.4H734c.8 11.8 4 20.4 8.7 25.9 5.6 5.5 13.5 8.2 23.8 8.2 9.6 0 18.3-2.2 26.5-6.7 3.1-1.4 4.7-2.2 4.7-2.2 2 0 3.6 1.5 5.2 4.3s2.4 4.9 2.4 6.4c0 2.8-4 5.8-11.5 8.9-8.2 3.1-16.9 4.6-27.3 4.6-17.4 0-30.9-4.6-38.8-13.8zm-107.6-44.5c0 28.6 9.2 42.9 27.6 42.9 9.2 0 18.2-5 27.1-14.7v-58.1c-7.6-6.3-16.2-9.5-25.6-9.5h-1.3c-9 .1-15.9 3.5-20.7 10.4-4.8 6.7-7.1 16.4-7.1 29zm56.2 42.4c-10.1 10.6-21.5 15.9-33.9 15.9-12.5 0-22.4-5.2-29.8-15.7-7.5-10.4-11.2-23.9-11.2-40.3v-1.9c0-17.4 4-30.9 11.9-40.8 7.9-9.8 17.9-14.7 29.7-14.7 11.9 0 22.5 3.5 31.8 10.8V89.97c0-3.1 2.9-4.7 8.5-4.7h.9c5.6 0 8.5 1.6 8.5 4.7V213.3c0 8.5.3 14.7 1 18.5.9 5.3 1.5 8 1.5 8.3 0 1.7-1.3 2.9-4 3.7-2.7.8-4.8 1.1-6.3 1.1s-2.6 0-3.1-.4c-.6-.2-1.1-.8-1.6-1.5s-.9-1.3-1.1-2c-.3-.6-.6-1.5-.9-2.6-.3-1.2-.5-2-.7-2.7-.2-.6-.5-1.6-.6-2.9-.3-1.4-.4-2.2-.6-2.7zm-117.5 11.2V136.5c0-3.1 2.8-4.6 8.5-4.6h.9c5.6 0 8.4 1.5 8.4 4.6v104.8c0 3.1-2.8 4.7-8.4 4.7h-.9c-5.7 0-8.5-1.6-8.5-4.7zm-59.6-24.5V89.97c0-3.1 2.9-4.7 8.5-4.7h.9c5.6 0 8.5 1.6 8.5 4.7V215.1c0 10.4 3.8 15.6 11.4 15.6 2.4 0 4.4-.1 6.2-.4 1.6-.4 2.7-.6 2.9-.6 1.3 0 2.3 1.3 3.2 3.9.9 2.6 1.2 4.7 1.2 6.1 0 4.2-5.1 6.3-15.4 6.3-7.1 0-13.4-2.1-19-6.5-5.5-4.2-8.4-11.9-8.4-22.7zM407 233.3c0-1.4.9-3.5 2.6-6.4 1.8-2.8 3.4-4.2 4.8-4.2.1 0 1.2.6 3.4 2 2.1 1.3 5.1 2.7 9.1 4 4 1.4 8.7 2 14.3 2 5.6 0 10.2-1.6 13.8-4.7 3.6-3.2 5.4-7.5 5.4-13 0-5.4-1.6-9.6-4.8-12.7-3.1-3-9.5-5.9-18.9-8.5-9.5-2.7-16.4-6.1-20.6-10.4-4.3-4.2-6.3-10.4-6.3-18.9 0-8.5 3.2-15.6 9.7-21.4 6.5-5.7 14.9-8.5 25.4-8.5 7.2 0 13.7.9 19.3 2.7 5.7 1.9 8.5 3.9 8.5 6.2 0 1.8-.8 4.2-2.4 7.1-1.7 2.9-3.1 4.4-4.4 4.4-.1 0-1.1-.5-2.7-1.3-4.9-2.5-10.3-3.9-16.2-3.9-6.1 0-10.7 1.3-14.1 3.7-3.3 2.5-5 5.7-5 9.7 0 4 1.3 7.1 3.8 9.3 2.4 2.3 6.6 4.4 12.6 6.2 13.3 4.1 22.3 8.6 27 13.5 4.8 4.8 7.1 12.2 7.1 22s-3.5 17.9-10.5 24.3c-7 6.4-15.4 9.5-25 9.5-9.8 0-18.2-1.4-25.4-4.3-7-3-10.5-5.7-10.5-8.4zM86.2 22l-1.6 8.96 108.6 10.56L86.2 22zM55 32.79l-.7 7.7h80.3L55 32.79zM22 45.72V328.1h282.4V45.72H22zm287.7 11.75V331.8L336 59.97l-26.3-2.5zm30.2 10.8L313 346.2l-50-4.9 50.3 9.2L364 72.67l-24.1-4.4zM165.8 124.6c8.4 0 15.8 1 22.4 3.1 6.5 2.2 9.8 4.5 9.8 7.2 0 2.1-.9 4.8-2.8 8.2-1.9 3.4-3.6 5-5 5-.2 0-1.3-.5-3.3-1.4-5.5-3-11.8-4.5-18.8-4.5-6.9 0-12.4 1.5-16.2 4.3-3.8 2.9-5.8 6.6-5.8 11.2s1.5 8.2 4.3 10.8c2.9 2.6 7.8 5 14.7 7.2 15.4 4.7 25.8 9.9 31.4 15.6 5.4 5.6 8.1 14.1 8.1 25.5s-4 20.8-12.1 28.1c-8.1 7.4-17.9 11.1-29.1 11.1-11.3 0-21.1-1.7-29.3-5-8.2-3.4-12.2-6.6-12.2-9.7 0-1.7 1-4.1 3-7.4 2-3.3 3.9-4.9 5.5-4.9.2 0 1.5.8 4 2.3 2.5 1.6 6 3.2 10.6 4.7 4.6 1.6 10 2.3 16.5 2.3s11.8-1.9 16-5.5c4.2-3.7 6.3-8.7 6.3-15 0-6.3-1.9-11.2-5.6-14.8-3.6-3.5-11-6.8-22-9.9-10.9-3.1-18.9-7-23.8-11.9-4.9-4.8-7.4-12.2-7.4-22s3.8-18.1 11.3-24.7c7.5-6.6 17.4-9.9 29.5-9.9zm63.4 208.8l79.5 7.7.8-7.7h-80.3z"/></svg>