<svg xmlns="http://www.w3.org/2000/svg" viewBox="0 0 792.0000 612.0000"><path class="only-light-background" d="M175.5 128L147 146l-30.6-1.8 7.8 48.3c-14.4 13.4-27.68 28.5-37.06 45.4-36.96-13.2-67.87 25-22.97 34.9-25.2 22.4-35.92 72.6-15.59 91.4-33.49 28.3-6.76 45.9 26.75 23.8 14.46 9.1 33.77 11.7 56.47 11.3 1.9 2.4 4.9 4.9 8.8 6.9-63.34-4.9-43.71 46.9 14.6 37.4 10.3 10.3 7.8 30.8-12.3 40.4 29.3-.9 52.7-35 28-57.9 4.4-13.4 0-22.7-10.1-29.1 7.9-1.5 15.3-4.2 21.5-7.5 17 17.8 41.5.6 19.5-16.4 6.6-6 7-13.4 9.8-10.7 28 31 15 60.4 49.3 78.3 35.2 12.8 88.4-26.1 129.4-74 0 15.4 10.5 19.1 5.3 18.8-15.9 0-12.5.6-19.6 24.7-11.4 35.7 42.2 40.2 60.5 25.5 3.8-1.7 1 4.6 9.7 6.1h23.1c4.6-.3 5.4-2.1 6.3-2.7 2.6-1.6 2.8 2.6 6.5 2.9l27.8-.6c8.6-1.7 5.8-16.1 10.6-9 13.8 18 45.9 12.2 57.1 2 5.1-2.8 2.7 5.9 12.4 6.7l57.7.2c4.8 0 10.6-2.4 12.1-7.4 5.5-18.4 16.7-43.6 12.6-50.2-1-1.6-.8-2.9.3-3.9 6.5-4.8 9.2-12.4 11.4-20.3.7-2.4 3.2-1.8 2.4.8l-21.3 63.9c-2.6 7.9-4 15 5.3 17.1l28.8-.1c5 .6 8.3-3.9 10.4-11.8l23.6-71.1h11.1c3.5-.1 5.8-2.4 7.1-6.3l6.7-19.8c2.1-6.9-1.2-13.1-8.4-12.9l-58.5-.3c-9.4.9-8.5 9.6-12.1 6.2-6.1-9-32-5.5-54.7-6.1-11.8 1.2-8.5 15.7-11.9 11.4-7.2-16.8-48.1-16.8-59.8-3.2-4.1 1.2-.1-7.3-12-8.1h-21.5c-7.1-.1-5.6 3.6-7.8 3.7-2.3 0-.8-3.6-9.2-3.8H483c-12.4-.3-9.4 12.6-13.7 8.2-4.5-7-15.2-11-27.2-11-5.4-.1-11.2.7-16.7 2.4-.4.7-.9 1.4-1.3 2 .4-.6.8-1.3 1.2-2h.1c31.6-52 38.6-98.7-14.5-89.8-45.8 8.4-75.3 2.4-124.2-13.9.7-4.4.6-8.7.2-13.2 10.4-7.3 9.6 4 35.1-1.7l-16.4-37-23.7 13.5c-18.9-34-50-40.5-93.2-19.6l-13.2-29zm-4.4 11.1l13.4 21.5c1.6 2 3.6 2.5 6.1.9 40.3-23 96.8-5.7 90.6 54.7 36.5 18.8 73.1 25.7 109.6 23.8 11.4-.5 6 .1.1 1.8C325.1 260.5 248 349.3 247.1 405c-9.4-32.2-31.9-59.8-61.3-81.7-3.6-2.6-8.3 1.7-2.9 6.2 68.8 65.8-115.06 85.1-93.2 42.9.91-1.7-.92-1.7-1.71-.9-45.78 43.1-55.68-.7-10.3-21.9 2.93-1.5 1.52-3.5-2.24-3.2-10.17 1.3-17.59 15.3-23.29 7.7-19.02-24.1.75-79.6 31.93-80.9 2.8-.3 4.67-2.1.96-2.4-61.39-1.7-18.91-47.8 10.36-22.6 3.18 1.9 5.69-.5 2.18-3.4-13.35-5 17.41-41.1 26.41-43.3 6.8-1.7 3 7.9 8.5 10.7 20.9 7.7 27.7-17.1 37.4-43 1.4-5.3-2.5-6.7-3.6-3.1-8.9 21.3-17.1 47.8-30.9 36.1-4.1-16.3-6.2-33-6.1-49.8 33.9.4 12.1 4.6 41.8-13.3zm77.4 30c-5.6-.1-13.5 6.6-23 17-1.8 2.4 1 4.5 3.2 2.5 13.4-18.8 23.6-17.1 23.8 3.5-8.5-1.6-14.4 14.1-7.4 17.6 2.9 1.1 3.3-2.1 2.3-2.7-2.6-1.7-2.3-5.4 1.5-11.2 1.1-1.8 4.8-.2.5 7.5-1.9 2.2-.2 4.1 2 2.3 2.9-1.9 3.9-6 3.9-10.4 3.8 3 7.4 2.2 11.1-2.2 1.1-1.5-.6-3.7-2.3-2.9-1.9 1.2-6.7 8.4-7.3 2 .3-16.3-2.8-23-8.3-23zm53.4 2.1c3 8.5 6.7 17 11.9 25.3-7.3.9-12.9-1.2-17.1-5.8-1.5-2.2-2.2-1.8-2.6.7-.5 3.7-2.7 4.4-5.2 4.7 0-6.4-1.4-11.9-3.8-16.9 5.3-1.9 10.8-6.9 16.8-8zm-33.1 27.2c-2.6.1-5.4 3.1-4.8 11.3.1.9.3.8 1 .7 12.2-4.7 8.1-12.3 3.8-12zm-.5 3.7c1.5.1 2.8 2.9-1.2 5.8-.2.1-.3.2-.4-.2-.8-4.2.5-5.7 1.6-5.6zm146.2 40.1c7-.1 12.7 1.7 16.8 5.5 12.9 12.1 6.4 41.2-14 74.1.5-.2 1.1-.5 1.6-.7-.5.2-1.1.5-1.6.7-10.9 5.3-20.1 14.6-23.7 28.6-.8 2.2-1.4 4.2-1.9 6.1-3.4 3.9-7 7.9-10.7 11.8-46.6 49-99.6 74.6-118.4 57-18.8-17.5 3.7-71.5 50.3-120.6 36.4-38.3 76.8-62.2 101.6-62.5zm-11 21.5c-.7 0-1.5.1-2.6.3C353 280.8 278.8 373.7 283 409.9c1.6 3.9.2-11.4 11.7-18 38.7-36.7 71.9-75.1 96-117.8 12.7-3.6 17.5-10.2 12.8-10.4zm21.2 20.2c-.6 0-1.3.1-2.2.4-6.9 2.9-14.6 8.1-22.6 14.6-.3.3-.6.5-.8.7-34.4 28.5-73.2 82.6-73 104.9 1.2 3 .6-6.4 9-12.1.1-.2.3-.3.5-.4.1-.1.2-.1.3-.2 25.3-23.2 48.4-48.7 66-75.8.1-.2.2-.4.4-.5v-.1c4.9-7.6 9.4-15.3 13.4-23.2 1.3-.4 2.5-.8 3.5-1.3.4-.2.7-.3 1-.5.3-.1.7-.3 1-.5h.2c3.5-1.9 5.2-3.8 5.1-5v-.1-.1c-.2-.6-.8-.9-1.8-.8zm16.8 41.6c7 0 12.6 1.2 16.8 3.4 4.2 2.3 6.5 5.2 6.9 8.7.4 3.5-.8 9.4-3.7 17.7l-1.4 4.2H435l2.6-7.8c1.3-3.6 1.7-5.9 1.4-6.9-.3-1-1.2-1.5-2.7-1.5-1.6 0-3.1.6-4.4 2-1.2 1.3-2.4 3.4-3.3 6.1-1.2 3.5-1.6 6.1-1.3 7.9.3 1.8 2.2 3.9 5.5 6.4 9.6 7.2 15.1 13.1 16.7 17.8 1.5 4.6.6 12-3 22.3-2.5 7.5-5.3 13-8.2 16.6-3 3.5-7.3 6.5-13.1 8.9-5.8 2.4-12 3.6-18.6 3.6-7.2 0-13-1.4-17.1-4.2-4.2-2.7-6.4-6.3-6.5-10.5-.1-4.3 1.2-10.4 3.9-18.3l2.3-6.8h25.1l-4.3 12.7c-1.4 4-1.9 6.5-1.6 7.6.4 1.1 1.4 1.7 3.2 1.7 1.8 0 3.4-.7 4.8-2.1 1.3-1.4 2.5-3.6 3.5-6.4 2.1-6.2 2.6-10.2 1.6-12.1-1.1-1.9-4.2-5.1-9.4-9.5-5.2-4.5-8.5-7.8-10-9.8-1.5-2.1-2.4-4.9-2.6-8.5-.2-3.5.6-8.1 2.6-13.7.6-1.8 1.2-3.5 1.9-5.2 2.2-5.4 4.6-9.6 7.1-12.4 1.5-1.7 3.3-3.3 5.2-4.7 0 0 .1 0 .1-.1 2.3-1.5 4.7-2.8 7.6-3.9 5.2-2.1 11.1-3.2 17.5-3.2zm142.8 0c5.6 0 10.3.9 14.1 2.8 3.8 1.8 6.4 4.6 7.9 8.2 1.4 3.7 1.6 7.7.7 12-1 4.4-3.3 11.9-7 22.7l-6.1 18c-3.6 10.5-6.4 18-8.4 22.4-2 4.4-4.9 8.4-8.8 12-3.8 3.6-8.2 6.4-13.3 8.4-5.1 1.9-10.6 2.9-16.4 2.9-5.6 0-10.3-.9-14.1-2.8-3.8-1.8-6.5-4.6-7.9-8.2-1.4-3.7-1.7-7.7-.7-12 .9-4.4 3.3-11.9 7-22.7l6.1-18c3.6-10.5 6.4-18 8.4-22.4 2-4.4 4.9-8.4 8.7-12 3.8-3.6 8.3-6.4 13.4-8.4 5.1-1.9 10.5-2.9 16.4-2.9zm-102.6 2.2h22.6l-.9 47.3 16.1-47.3h22.6l-35.8 105h-23.7l2.2-47.7-16.3 47.7h-22.6l35.8-105zm143.2 0h19.2c12.8 0 21.2.5 25.4 1.5 4.2 1 7 3.5 8.5 7.6 1.4 4.1.6 10.6-2.4 19.6-2.8 8.1-5.7 13.6-8.7 16.4-2.9 2.9-7.5 4.5-13.6 5.1 4.9 1.3 7.9 3.1 9 5.4 1.1 2.2 1.5 4.3 1.3 6.2-.2 1.8-1.7 7-4.6 15.5l-9.5 27.7h-25.1l11.9-34.9c1.9-5.6 2.7-9.1 2.2-10.4-.4-1.4-2.5-2.1-6.2-2.1l-16.1 47.4h-27.1l35.8-105zm66.3 0h59.2l-7.2 21h-16.1l-28.6 84h-27.1l28.7-84H684l7.2-21zm-112.8 15.6c-1.5 0-2.7.5-3.8 1.6-1.2 1.1-2.7 4.4-4.5 9.8l-16.7 49c-2.1 6.1-3.2 9.9-3.2 11.3 0 1.4 1 2.1 2.8 2.1 1.8 0 3.2-.8 4.3-2.4 1.1-1.7 2.7-5.6 4.8-11.8l16.5-48.2c1.6-4.9 2.4-8 2.4-9.4-.1-1.3-1-2-2.6-2zm67.5 2.4l-8 23.3c3 0 5.3-.4 6.8-1.2 1.5-.9 3.1-3.6 4.7-8.3l1.9-5.7c1.2-3.4 1.3-5.5.5-6.6-.8-1-2.8-1.5-5.9-1.5zm-472.1.5c-.4 0-.9 0-1.5.2-5.6 1.3-6.8 4.3-8.3 8.3-.9 2.4 2.7 4.2 4.4 1.8 2.3-3.3 1.8-4.7 5.4-6.5 2.3-1.1 3.1-3.9 0-3.8zm281.2 23h3.5c-.1 0-6.4 0-7.1.1.5-.1 2-.1 3.6-.1zm-3.7.1c1.4 1.1 2.5 2.3 3.5 3.5-1-1.2-2.2-2.4-3.5-3.5zm4.1 4.3l.6.9-.6-.9zm-256.6 7c2.8 0 5.1 2.2 5.1 5 0 2.7-2.3 4.9-5.1 4.9s-5.1-2.2-5.1-4.9c0-2.8 2.3-5 5.1-5zM155.5 404h1c1.9 0 3.8.3 5.4 1.1 4.8 2.4 6.5 8.1 5.7 15-1.1 5.8-2.9-5.2-15.4-10.9-5.4-2.5-1.6-5.1 3.3-5.2zm-27 5.6c33 .6 64.7 42.2 32.3 66.3-1.6.8-2 .6-1-.6 18.4-20.9-6.4-58-27.7-56.4-7.3.5-8.3 8.8 9.1 10.7 9.7 1.1 10.8 9.8-3.1 9.6-34.3-3.2-32.6-25.4-14.5-29.4 1.7-.1 3.3-.2 4.9-.2z"/></svg>