<svg xmlns="http://www.w3.org/2000/svg" viewBox="0 0 318.2 166.4"><path d="M192.1 108.6c3.8 0 8.7-.6 10.8-2.4 1.1-1 2.2-2.5 2.2-4.4 0-1.87-.6-3.28-1.8-4.19-1.2-.92-3-1.77-5.6-2.14-1.7-.24-5.4-.75-6.4-.88-1.1-.14-2-.19-2.3-.9-.2-.72.2-1.18.5-1.39.3-.2.7-.42 2-.42s2.2.31 2.7.75c.9.64.8 1.22.8 1.22h9.7s-.2-1.8-1.8-3.58c-1.4-1.56-4.3-2.58-6.7-2.83-1.5-.16-5.9-.36-8.4 0-3.1.46-5.2 1.34-6.7 2.44-1.6 1.2-1.9 2.76-1.9 3.98 0 2.43 1.1 3.69 1.9 4.29 2 1.43 5.4 1.82 7.2 2.05 2.3.4 5.8.9 6.2 1 .9.2 1.5.4 1.5 1.3 0 .8-.8 1.4-2.5 1.4-2.1 0-3-.8-3.3-1.2-.4-.4-.6-1.3-.6-1.3h-10.9s.3 2.6 2.1 4.4c1.2 1.2 4.9 2.8 11.3 2.8m-35.3-13.95c.6-1.92 2.9-3.16 5.1-3.16 2.3 0 4.5 1.08 5.2 3.16h-10.3zm20.6 6.65h-11.3c-1 1.1-2.7 1.5-4.2 1.5-2.3 0-4.5-.9-5.2-3.16h20.9c0-8.51-7.2-12.64-15.7-12.64-10.2 0-15.6 5.29-15.6 10.38 0 5.92 4.1 11.02 15.7 11.02s14.6-3.8 15.4-7.1m79.9 6.7h-9.1V87.83h9v1.81c5.4-2.41 8.2-2.88 11.2-2.88s7.9 2.14 7.9 5.78V108h-9V96.7c0-1.59-1.1-3.82-4.6-3.82-2.4 0-5.4 2.61-5.4 4.77V108m18.1-37.51c.6-1.92 2.9-3.16 5.1-3.16 2.3 0 4.5 1.09 5.2 3.16h-10.3zm20.7 6.66h-11.3c-1.1 1.1-2.7 1.54-4.3 1.54-2.2 0-4.5-.98-5.1-3.21h20.8c0-8.51-7.2-12.64-15.7-12.64-10.1 0-15.5 5.29-15.5 10.38 0 5.87 4 11.05 15.6 11.05s14.6-3.82 15.5-7.13m-47-11.92v-1.78H240v19.98h9.1V72.09c0-1.76 1.1-3.22 3-3.22 2.8 0 3 3 3 3h9V68.4c0-2.61-3.6-5.06-6.9-5.06-2.6 0-4.7.34-8.1 1.88m-25.2 2.37c-3.1 0-4 .43-5 2h-9s.2-2.42 2.1-4.01c1.7-1.44 5.4-1.75 7.1-1.84 2.9-.14 6.6-.19 9.8 0 3.2.2 4.7.74 6.8 2.04 1.6 1.02 2.3 2.58 2.3 3.56 0 2.2.1 6.26.1 8.06 0 2.08.3 6.02.3 6.02h-10.1v-2.16s-.5.73-1.9 1.41c-1.7.85-3.5 1.17-8.3 1.17-4.6 0-7.2-1.81-8.3-2.7-1.7-1.36-1.9-2.95-1.9-4.24 0-1.39 1.1-2.89 2-3.59 1.1-.94 3.3-1.61 5.5-1.99 1.7-.29 3.6-.39 5.5-.46 2.1-.1 6.4 0 7-.87.3-.4.3-.78.1-1.19-.4-.62-1.1-1.21-4.1-1.21zm4.2 6.71H225c-1.5 0-2.9 0-4.2.29-1.6.43-2 .88-2.2 1.38-.2.9 0 1.5 2.1 1.94.7.14 2.6.28 3.9 0 1.4-.25 3.5-1.65 3.5-3.08v-.59M60.27 84.21c10.95 0 25.37-1.92 31.4-7.19 3.34-2.91 6.54-7.13 6.54-12.63 0-5.49-1.78-9.57-5.26-12.24-3.46-2.68-8.81-5.12-16.48-6.21-4.81-.68-15.65-2.12-18.62-2.52-2.97-.4-5.74-.6-6.52-2.7-.77-2 .54-3.4 1.43-4 .9-.6 2.08-1.2 5.75-1.2 3.72 0 6.39.9 7.98 2.2 2.38 1.8 2.18 3.5 2.18 3.5h28.15s-.39-5.2-5.15-10.4c-4.19-4.5-12.4-7.5-19.33-8.2-4.56-.5-17.16-1.1-24.48 0-9.16 1.3-15.18 3.9-19.45 7.1-4.66 3.5-5.53 8-5.53 11.5 0 7.1 3.14 10.77 5.55 12.51 5.75 4.16 15.66 5.29 20.67 6.07 6.76 1.07 16.95 2.53 18.18 2.8 2.52.56 4.46 1.14 4.46 3.82 0 2.18-2.38 3.86-7.32 3.86-6.15 0-8.75-2.29-9.72-3.47-.98-1.17-.99-2.11-.99-2.11h-31.7s-.49 6.21 4.54 11.23c3.57 3.57 15.06 8.28 33.72 8.28m122.23-20.9l-4.8 9.98-4.6-9.98h-9.5l9.4 20.04h9.5l4.7-10 4.7 10h9.5l9.4-20.04h-9.5l-4.7 9.98-4.7-9.98h-9.4m55 40.39c-1.9 1.3-4.8 2-8.7 2-7.9 0-12.3-3.8-12.3-9.1 0-6.19 5-9.6 12.3-9.6 3.9 0 6.7.88 8.7 2.35v-1.57h9.1v15.72c0 5.8-2.6 10.1-13.5 10.1-16.6 0-16.1-7.1-16.1-7.1h10.6s.1 1.9 4.3 1.9c5.9 0 5.7-1.1 5.6-4.7zm-5.7-3.1c3.2 0 5.7-1.78 5.7-3.95s-2.5-3.92-5.7-3.92c-3.1 0-5.6 1.75-5.6 3.92s2.5 3.95 5.6 3.95m-25.5-12.82V108h9V87.78h-9zm0 0V108h9V87.78h-9M108 73.26c0-2.98 2.4-5.4 5.4-5.4 3 0 5.4 2.42 5.4 5.4 0 2.98-2.4 5.39-5.4 5.39-3 0-5.4-2.41-5.4-5.39zm5.4 10.7c8.6 0 15.7-3.54 15.7-10.7 0-7.09-7.1-10.71-15.7-10.71-8.7 0-15.73 3.58-15.73 10.71 0 7.16 7.03 10.7 15.73 10.7M95.23 130.1v-29.7h14.87c6.3 0 14.1 4.6 14.1 14.7 0 12.7-9.7 15-14.1 15H95.23zm21.47 14.3c9.7 0 32.5-4.4 32.5-29.1 0-17.86-13.8-29.06-29.9-29.06H71.05v58.16h45.65m33.2-66.09c0 2.53 1.2 5.08 3.5 5.08h9.1V78.4c-1.9 0-3.1-.33-3.1-3.56v-6.03h3.1v-5.47h-3.1v-6.89h-9.5v6.79h-3.6v5.56h3.6v9.5m-4.8-21.84h-6.5c-5.3 0-6.6 2.38-6.6 5.5v1.28h-3.1v5.46h3.1v14.69h9.5V68.8h3.6v-5.56h-3.6s-.5-1.48 3.6-1.48v-5.3"/></svg>