<svg xmlns="http://www.w3.org/2000/svg" viewBox="0 0 560.8 105"><path d="M510.4 77.2c3.2 1 6.5 1.9 9.9 1.9 5.6 0 18.5-1.4 18.5-14.9 0-9.3-7-12.7-13.2-15.7-5-2.4-9.7-4.7-9.7-9.7 0-5 3.9-8 10.3-8 3.7 0 5.8.6 9.2 1.9l.8-5.1c-3.2-1.1-6.9-1.6-10.3-1.6-9.8 0-16.2 5.3-16.2 13.5 0 8.4 6.3 11.3 12.3 14.2 5.2 2.4 10.6 4.9 10.6 11 0 7-6.8 9.6-11.4 9.6-3.7 0-7.9-1.3-10.3-2.2l-.5 5.1zm-34.1-29.4l-.5-.5c-2.5-2.8-4.9-5.8-4.9-9.6 0-5.4 3.6-7.8 7.3-7.8 4.7 0 7.3 2.6 7.3 7.5 0 5.6-6.6 9.1-8.6 10.1l-.6.3zm.4 27.4c-6.4 0-11.3-4.5-11.3-10.5s4.2-8.8 7.9-11.3l.6-.5 13.9 16.3-.5.6c-1.2 1.3-4.8 5.4-10.6 5.4m1.8-49.3c-8.1 0-12.9 4.4-12.9 11.6 0 4.8 2.4 8 5.2 11.5l.8 1-1.1.5c-7.7 3.1-11.3 7.8-11.3 14.7 0 8.5 6.3 13.9 16.2 13.9 6.6 0 11-1.7 14.5-5.8l.7-.8 4.8 5.7h7l-8.4-9.5.4-.6c3-4.5 5.1-9.1 5.9-16.8H495c-.4 5.9-1.4 9.3-3.4 12.5l-.6 1-12.5-14.2 1.1-.5c4.2-1.9 11.2-6 11.2-13 0-8.2-6.4-11.2-12.3-11.2m-38 .1c-16 0-27.2 10.8-27.2 26.4 0 16.2 10.6 26.8 27.1 26.8 4.6 0 8.3-.6 11.2-1.6l-.4-5.3c-3 1.3-7.5 2-10.7 2-12.2 0-21-9.1-21-21.7 0-12.8 8.8-21.7 21.4-21.7 3.6 0 7 .8 10.1 2.4l.5-5.4c-3.2-1.3-6.8-1.9-11-1.9M104.6 83H22V62.7h82.6V83zm0-40.6H22V22h82.6v20.4zm268 17.9L383 50.2c1.9-1.8 2.4-2.9-1-2.9v-1.8h10.7v1.8c-2.1.1-3.3.6-4.9 2.2l-7.7 7.2 11.1 16.9c1.6 2.5 3.2 2.8 5.4 2.7v1.8h-8.3l-11.8-18.2-4 4v7.6c0 4.2.1 4.8 4.1 4.8v1.8h-13.5v-1.8c4.2 0 4.3-.6 4.3-4.8V37.1c0-4.2-.4-4.7-4.3-4.7v-1.6c3.5-.5 6-1.3 8.7-2.9l.7.4v32h.1zm-16.9 11.5c0 4.1.3 4.6 3.6 4.6v1.9H347v-1.9c3.5 0 3.7-.4 3.7-4.7V55.5c0-2.9-.4-5.2-1.7-6.6-1-1-2.3-1.5-4.2-1.5-3.1 0-6.4 2.8-9.2 6.8v17.5c0 4.3 0 4.7 3.4 4.7v1.9h-12.7v-1.9c3.9 0 4.2-.4 4.2-4.7V54c0-4.2-.3-4.7-4.2-4.6v-1.6c3.2-.5 5.7-1.2 8.1-3l.7.4.3 5.6h.2c2.9-3.7 6.6-6 10.6-6 3.1 0 5.3.8 6.9 2.3 1.7 1.6 2.6 4.2 2.6 8.1v16.6zm-37-17c0-3.2-.5-5.1-2.4-7.3-1.8-2-4.4-2.8-8.7-2.8-3.9 0-6.4 1-8.3 2.1-2.3 1.3-3.8 3.3-3.8 5 0 1.1.7 2.1 2.1 2.1 1.5 0 2.2-.7 2.5-1.7.7-1.6 1.3-2.8 2.3-3.6 1.3-1 2.7-1.6 4.9-1.6 2.4 0 4.1.7 5.2 2.2 1 1.2 1.2 3.4 1.2 5v3.1l-4.3 1.1c-4.6 1-8.3 2.4-10.7 4.1-3.2 2.1-4.5 4.7-4.5 8.1 0 2.7 1.1 4.8 2.9 6.2 1.9 1.5 4.3 2.2 6.6 2.2 4.8 0 7.7-1.7 10.2-4h.2c.7 2.4 2.2 3.7 4.7 3.7 1.9 0 3.2-.5 4.5-1l-.5-1.7c-.5.3-1.2.5-1.9.5-1.5 0-2.2-1.5-2.2-4.7v-17zm-5 17.6c-1.8 1.9-4.3 3.8-7.8 3.8-2.2 0-3.8-.7-4.8-1.7-1.1-1.1-1.6-2.7-1.6-4.6 0-3.3 2-5.2 4.8-6.8 2.7-1.6 6.3-2.6 9.4-3.5v12.8zm-55.2-19.8h9c5.9 0 9.9 1 12.5 3 2.6 1.9 4 4.8 4 8 0 3.7-1.1 6.4-2.9 8.2-2.4 2.6-5.8 3.7-10.9 3.7h-9c-2.3 0-2.7-.6-2.7-3.6V52.6zm-5.4 18c0 5.1-.4 5.5-5.8 5.5v2.1h23.6c7.6 0 11.8-1.7 14.7-4.5 2.9-2.7 4-6.4 4-10 0-4-2-6.9-4.6-8.9-3.1-2.4-7.3-3.6-12-3.8v-.1c4.5-.7 7.6-2.1 9.7-4.1 2.7-2.4 3.7-5.6 3.7-8.4 0-3.6-1.9-6.5-4.7-8.4-3.9-2.7-8.3-3.2-14.9-3.2h-19.5v2.1c5.4 0 5.8.3 5.8 5.6v36.1zm5.4-38.5c0-2 .3-2.6 2.2-2.6h6.9c5.1 0 8.3 1.2 10.3 2.9 1.6 1.3 2.9 4.1 2.9 6.6 0 3.4-1.3 6-3.4 7.7-2.6 2.2-6.6 3.1-11.6 3.1h-7.3V32.1zm-35 14.2c4.6-.4 7.7-2.2 8.6-9.8h1.8v9.1h7.7V48h-7.7v23.4c0 3.4 1.1 5.2 3.6 5.2 1.7 0 3-.6 4.5-1.7l1.2 1.6c-1.9 1.7-4.2 2.6-7.2 2.6-3.7 0-7.1-1.7-7.1-7.4V48h-5.4v-1.7zm-17.3 1.5h-5.4v-2.3h5.4v-4.6c0-4.4 1.1-7.8 3.5-10.2 1.7-1.7 4.2-2.9 7.4-2.9 3 0 4.7.8 6.1 1.8 2.2 1.4 3.2 3.2 3.2 4.5 0 1.4-.8 2.2-2.1 2.2-1.7 0-2.4-1.5-3.2-3.1-.8-1.6-1.7-3.1-3.9-3.1-1.5 0-2.7.5-3.7 1.6-1.4 1.7-2.3 4.3-2.3 9.5v4.3h9.2v2.3h-9.2v23.7c0 4.4.3 4.8 5.7 4.8v1.8h-16.2v-1.8c5.1 0 5.5-.5 5.5-4.9V47.8zm-40.5 13.9c0 6.6 1.7 11 4.6 13.6 2.9 2.6 6.4 3.7 10.7 3.7 4.6 0 8.1-1.2 11-3.8 2.8-2.7 4.5-7 4.5-13.5 0-5.7-1.6-10.2-4.5-13-2.8-2.7-6.1-4-11-4-4.6 0-8 1.3-10.8 3.9-2.9 2.9-4.5 7.4-4.5 13.1m5.2.1c0-5.6 1-9.2 3-11.8 1.7-2 4.1-3 7-3 3.1 0 5.5 1 7.2 3 2 2.6 3 6.2 3 11.8 0 5.8-1.2 9.5-3.1 11.9-1.6 1.8-3.9 3-7 3-3 0-5.4-1.2-7-3-1.8-2.4-3.1-6.1-3.1-11.9m-16-23.4c-1.5-7.5-3.1-10-11.7-10-3.6 0-6.6 1-8.6 2.7-1.8 1.5-2.6 3.3-2.6 5.6 0 2 1.1 4.5 2.5 5.8 1.9 1.8 4.7 3.4 9.2 5.7 5.7 2.9 10 4.6 13.1 8.1 1.5 1.8 3 5 3 8.6 0 3.8-1.3 7.2-4 9.6-3.1 2.8-7.9 4.6-14.3 4.6-4.2 0-9.4-.9-13.6-2.5-.6-4.5-1.4-7.5-2.4-10.7l2.6-.7c2.3 9 6.3 11.2 14 11.2 3.4 0 6.5-1 8.7-2.7 2.3-1.8 3.7-4.3 3.7-7.6 0-2.9-.8-4.6-2.3-6.5-2.3-2.7-6.2-4.4-10.4-6.5-4.5-2.3-10.6-5.6-12.7-8.5-1.3-1.9-2.1-4.3-2.1-7 0-3.1 1.3-6.2 4.3-8.6 2.6-2 6.6-3.4 12.3-3.4 4.6 0 8.4.6 12.1 2.1.4 2.9 1.1 6.9 1.7 10.1l-2.5.6z"/></svg>