<svg xmlns="http://www.w3.org/2000/svg" viewBox="0 0 500 220"><path d="M165 9.5c-7 0-13.1 2.7-18.2 8-5.2 5.3-7.8 11.5-7.8 18.8v91.6c0 1.1.5 1.9 1.3 2.6.9.7 2 1 3.3 1 1.3 0 2.5-.3 3.5-1 .9-.7 1.4-1.5 1.4-2.6V70.4h20.9c1 0 1.7-.4 2.3-1.2.7-.8 1-1.7 1-2.9 0-1-.3-1.9-1-2.6-.6-.8-1.3-1.2-2.3-1.2h-20.9V35.6c.1-4.8 1.8-8.8 5.1-12.2 3.4-3.5 7.6-5.3 12.6-5.3h2.5c1.1 0 2.1-.4 2.9-1.2.8-.8 1.1-1.9 1.1-3 0-1.2-.3-2.2-1.1-3.1-.8-.9-1.8-1.3-2.9-1.3H165zm22.9 30.8c-1.2 0-2.3.4-3.2 1.1-1 .6-1.5 1.5-1.5 2.4v66.3c0 14.3 7.7 21.4 23.1 21.4h4c1.3 0 2.3-.4 3.1-1.3.9-.9 1.3-1.9 1.3-3 0-1.2-.4-2.2-1.3-3-.8-.8-1.8-1.3-3.1-1.3h-4c-5.1 0-8.7-.9-10.7-2.8-1.9-1.9-2.9-5.3-2.9-10V70.4H221l22.2 59.4c.5 1.9 1.9 2.9 3.9 2.9 2.2 0 3.7-1 4.2-2.9l15.1-46.7 15.1 47.4c.8 1.5 2.1 2.2 4 2.2 2 0 3.3-.8 3.8-2.3L312 68.6c.4-.6.6-1.3.6-2.2 0-1.2-.6-2.2-1.9-3-1.1-.8-2.4-1.2-3.8-1.2-1.8 0-2.9.7-3.2 2.2l-19.1 52.5-14.4-48c-.5-1.6-1.8-2.5-3.8-2.5-2.1 0-3.3.9-3.8 2.5l-15.1 47.5-18.6-52c-.5-1.5-1.6-2.2-3.4-2.2-.7 0-1.4.1-2 .3h-30.8V43.9c0-1-.5-1.8-1.5-2.5-.9-.7-2.1-1-3.3-1zM34.78 61.6c-7.69 0-13.47 2-17.37 6-3.79 3.9-5.69 8.5-5.69 13.9 0 4.4 1.22 8 3.65 10.8 2.53 2.6 5.55 4.5 9.05 5.7 3.6 1.1 7.15 2.2 10.65 3.2 3.51.9 6.47 2.5 8.9 4.6 2.53 2.1 3.8 4.9 3.8 8.4 0 3-1.22 5.5-3.65 7.4-2.43 2-6.23 2.9-11.38 2.9-3.8 0-7.06-.6-9.78-1.7-2.72-1.2-4.82-2.3-6.28-3.4-1.45-1.2-2.52-1.7-3.2-1.7-.88 0-1.66.5-2.34 1.4-.68 1-1.02 2-1.02 2.9 0 2.5 2.19 4.9 6.56 7.2 4.48 2.2 9.93 3.4 16.35 3.4 7.39 0 13.13-1.7 17.22-5 4.18-3.4 6.27-8 6.27-13.9 0-4.8-1.26-8.8-3.79-11.8-2.43-3.1-5.45-5.3-9.05-6.4-3.5-1.3-7.05-2.4-10.65-3.2-3.5-1-6.52-2.4-9.05-4.1-2.43-1.8-3.65-4.2-3.65-7.2 0-2.9 1.22-5.5 3.65-7.8 2.43-2.4 6.08-3.6 10.95-3.6 3.4 0 6.76.7 10.07 2.1 3.3 1.4 5.1 2 5.4 2 1.07 0 1.99-.5 2.77-1.7s1.16-2.3 1.16-3.2c0-1.8-2.09-3.4-6.27-4.8-4.09-1.6-8.51-2.4-13.28-2.4zm60.67 0c-7.49 0-13.96 2.7-19.4 8.2-5.45 5.3-8.18 11.7-8.18 19.1v15.9c0 7.3 2.77 13.8 8.32 19.4 5.55 5.6 11.97 8.4 19.26 8.4 7.35 0 13.85-2.8 19.35-8.4 5.7-5.6 8.5-12.1 8.5-19.4V88.9c0-7.5-2.8-13.9-8.3-19.3-5.6-5.3-12.1-8-19.55-8zm248.55 0c-4.8 0-9.2.8-13.4 2.4-4.2 1.5-6.3 3.2-6.3 5.1 0 1.2.3 2.4 1 3.5.7 1 1.6 1.6 2.8 1.6.2 0 1.8-.7 5-2.1 3.2-1.4 6.7-2.2 10.6-2.2 5.8 0 10.2 2 13 6 2.8 3.9 4.2 8.5 4.2 13.9v3.5h-7.4c-11.1 0-19.6 1.4-25.4 4.4-5.7 2.9-8.6 8.1-8.6 15.6 0 6.3 1.8 11.1 5.5 14.4 3.7 3.2 8.5 4.9 14.3 4.9 8.2 0 15.5-3.8 22.1-11.3v6.4c0 1.1.4 2 1.1 2.8.9.7 2 1 3.2 1 1.4 0 2.5-.3 3.4-1 .9-.8 1.3-1.7 1.3-2.8V89.8c0-8.2-2.1-14.9-6.4-20.2-4.2-5.3-10.9-8-20-8zm72.9 0c-4.5 0-8.4 1.1-11.8 3.4-3.4 2.2-6 4.9-7.8 8.2V66c0-1-.4-1.8-1.3-2.5s-1.9-1-3.2-1c-1.4 0-2.5.3-3.3 1-.9.7-1.4 1.5-1.4 2.5v61.7c0 1 .5 1.9 1.4 2.7.9.7 2 1.1 3.3 1.1 1.4 0 2.5-.4 3.4-1.1.9-.8 1.4-1.7 1.4-2.7v-36c0-6.3 2-11.4 5.9-15.3 3.9-4 8.3-6 13.4-6h5.1c1 0 1.8-.5 2.6-1.3.8-.9 1.2-1.9 1.2-3.1 0-1.2-.4-2.2-1.2-3.1-.8-.8-1.6-1.3-2.6-1.3h-5.1zm42.1 0c-7.7 0-14.3 2.7-19.7 8-5.5 5.3-8.2 11.6-8.2 18.9v16.3c0 8.3 2.9 15 8.8 20.2 5.8 5 13.4 7.6 22.6 7.6 6.2 0 11.4-1.1 15.6-3.3 4.2-2.2 6.3-4.3 6.3-6.4 0-1-.5-1.9-1.3-2.9-.8-1.1-1.7-1.6-2.8-1.6-.8 0-1.9.5-3.2 1.5-1.3.9-3.2 1.9-5.7 2.9-2.4.9-5.3 1.4-8.6 1.4-6.5 0-11.9-1.7-16.1-5.1-4.1-3.5-6.1-8.1-6.1-13.8v-5.4h33c2 0 3.6-.1 4.8-.3 1.2-.2 2.4-.7 3.8-1.3 1.5-.7 2.5-1.9 3.1-3.6.6-1.6 1-3.8 1-6.5 0-7.6-2.7-13.9-8.2-19-5.3-5-11.7-7.6-19.1-7.6zm-.2 7.9c5.3 0 9.6 1.9 13 5.6 3.5 3.6 5.3 7.9 5.3 12.8 0 2-.5 3.4-1.5 4.1-.9.6-2.9.9-5.8.9h-29.2v-5.6c0-4.9 1.8-9 5.3-12.5 3.6-3.5 7.9-5.3 12.9-5.3zm-363.35.9c4.95 0 9.25 1.9 12.85 5.7 3.7 3.8 5.5 8 5.5 12.8v15.9c0 5-1.8 9.4-5.4 13.3-3.6 3.8-7.9 5.7-12.95 5.7-4.96 0-9.24-1.9-12.84-5.7-3.5-3.9-5.25-8.3-5.25-13.3V88.9c0-4.8 1.75-9 5.25-12.8 3.6-3.8 7.88-5.7 12.84-5.7zM354.8 99.9h6.1v9.3c0 3.4-2.1 6.8-6.3 10.2-4 3.4-8.4 5.1-12.9 5.1-3.8 0-6.9-.9-9.2-2.9-2.4-2-3.5-5.1-3.5-9.2 0-2.7.6-4.9 2-6.7 1.4-1.8 3.4-3 6-3.8 2.6-.8 5.2-1.3 7.9-1.6 2.7-.3 6-.4 9.9-.4zm119.3 55.8c-2.2 0-4.3.3-6.2.8-2 .5-3.9 1.3-5.6 2.4-1.7 1.1-3.1 2.6-4.2 4.6-1 1.9-1.5 4.1-1.5 7.1 0 2 .4 4 1.2 6 .9 2 2 3 3.4 4 1.3 1 2.9 2 4.5 3 1.7 1 3.3 2 5 2 1.6 1 3.1 2 4.5 3 1.3 0 2.5 1 3.3 2 .8 2 1.3 3 1.3 4 0 2-.8 4-2.3 5-1.6 1-3.5 2-5.8 2-1.7 0-3.2-1-4.6-1-1.4-1-2.5-2-3.3-2-.7-1-1.5-2-2.3-2-.8-1-1.5-1-2.1-1-1 0-2 1-2.9 2-.8 1-1.2 2-1.2 3 0 2 1.6 4 4.9 6 3.3 2 7.2 3 11.8 3 5.1 0 9.3-1 12.4-4 3.2-3 4.8-7 4.8-12 0-3-.6-5-1.8-7-1.1-3-2.6-4-4.3-5-1.7-2-3.5-3-5.6-4-1.9-1-3.8-1-5.5-2-1.7-1-3.1-2-4.3-3-1.1-1-1.7-2-1.7-3 0-2 .7-3.4 2.1-4.3 1.4-1 3.4-1.6 6-1.6 2.4 0 4.5.5 6.5 1.4 1.9.9 3.1 1.4 3.5 1.4 1.2 0 2.1-.6 2.7-1.7.7-1.1 1.1-2.2 1.1-3.3 0-1.1-.6-2.1-1.6-2.9-.9-.8-2.2-1.4-3.8-1.8-1.5-.4-3-.6-4.4-.8-1.4-.2-2.7-.3-4-.3zm-447.31.4c-4.96 0-8.97 1.3-12.05 4s-4.62 6.8-4.62 12.5v20c0 6 1.52 10 4.55 13 3.08 2 7.09 4 12.05 4 5.1 0 9.24-2 12.41-4 3.23-3 4.84-6 4.84-11 0-1-.39-3-1.16-3-.72-1-1.92-1-3.61-1-2.93 0-4.47 1-4.62 3 0 1-.16 2-.36 2-.14 1-.45 2-.93 3-.44 1-1.18 1-2.24 2-1.01 0-2.29 1-3.83 1-5.14 0-7.72-3-7.72-9v-20c0-5.5 2.53-8.3 7.58-8.3 1.3 0 2.43.2 3.39.6.96.3 1.68.8 2.17 1.3.48.5.86 1.1 1.15 2.4.34 0 .53 1 .58 1 .1 1 .16 1 .21 2 0 2 1.61 3 4.69 3 1.69 0 2.89 0 3.61-1 .72-1 1.08-2 1.08-4 0-3.9-1.61-7.2-4.83-9.7-3.18-2.6-7.29-3.8-12.34-3.8zm47.68 0c-5.15 0-9.26 1.3-12.34 4-3.03 2.6-4.55 6.8-4.55 12.5v20c0 6 1.52 10 4.55 13 3.08 2 7.19 4 12.34 4 5.15 0 9.26-2 12.34-4 3.08-3 4.62-7 4.62-13v-20c0-5.7-1.54-9.9-4.62-12.5-3.08-2.7-7.19-4-12.34-4zm37.43 0c-1.3 0-2.4.2-3.3.7-.9.5-1.4 1.2-1.4 2.2v46.6c0 1 .4 2 1.3 3h25.7c.9 0 1.6 0 2-1 .6-1 .8-2 .8-3s-.2-2-.8-3c-.4-1-1.1-1-2-1h-17.6V159c0-1-.5-1.7-1.4-2.2-.9-.5-2-.7-3.3-.7zm42.8 0c-1.3 0-2.4.2-3.4.7-.9.5-1.3 1.2-1.3 2.2v46.6c0 1 .4 2 1.2 3H177c.8 0 1.5 0 2-1s.8-2 .8-3-.3-2-.8-3-1.2-1-2-1h-17.7V159c0-1-.4-1.7-1.3-2.2-.9-.5-2-.7-3.3-.7zm42.1 0c-1.1 0-2 .3-2.9.8-.8.5-1.2 1.2-1.2 2.2v46.5c0 1 .4 2 1.2 3H222.5c1 0 1.7 0 2.2-1 .5-1 .8-2 .8-3s-.3-2-.8-3c-.6-1-1.3-1-2.2-1h-20.4v-15h11c.9 0 1.6 0 2.1-1 .6 0 .8-1 .8-2s-.2-2-.8-3c-.5-1-1.2-1-2.1-1h-11v-14.3h20.4c.9 0 1.6-.4 2.2-1.2.5-.8.8-1.8.8-3 0-1-.3-2-.8-2.8-.5-.8-1.2-1.2-2.2-1.2h-25.7zm57.5 0c-5 0-9 1.3-12.1 4-3 2.7-4.6 6.8-4.6 12.5v20c0 6 1.5 10 4.6 13 3.1 2 7.1 4 12 4 5.1 0 9.3-2 12.4-4 3.3-3 4.9-6 4.9-11 0-1-.4-3-1.2-3-.7-1-1.9-1-3.6-1-2.9 0-4.5 1-4.6 3-.1 1-.2 2-.4 2-.1 1-.4 2-.9 3-.4 1-1.2 1-2.2 2-1.1 0-2.3 1-3.9 1-5.1 0-7.7-3-7.7-9v-20c0-5.5 2.5-8.3 7.6-8.3 1.3 0 2.4.2 3.4.6.9.3 1.7.8 2.1 1.3.5.5.9 1.1 1.2 2.4.3 0 .5 1 .6 1l.2 2c0 2 1.6 3 4.7 3 1.7 0 2.9 0 3.6-1 .7-1 1.1-2 1.1-4 0-3.9-1.6-7.2-4.9-9.7-3.1-2.6-7.3-3.8-12.3-3.8zm30.9 0c-1 0-1.7.4-2.3 1.3-.5.8-.7 1.8-.7 2.9 0 1.2.3 2.2.8 3 .5.8 1.2 1.2 2.2 1.2h10.6v41.1c0 1 .4 2 1.3 3h6.6c1-1 1.5-2 1.5-3v-41.1h10.5c.9 0 1.6-.4 2.2-1.2.5-.9.7-1.9.7-3s-.2-2.1-.7-2.9c-.5-.9-1.3-1.3-2.2-1.3h-30.5zm51 0c-1.3 0-2.4.2-3.3.7-.9.5-1.4 1.2-1.4 2.2v46.6c0 1 .5 2 1.4 3h6.5c1-1 1.5-2 1.5-3V159c0-1-.5-1.7-1.4-2.2-.9-.5-2-.7-3.3-.7zm37.4 0c-5.1 0-9.2 1.3-12.3 4-3 2.6-4.5 6.8-4.5 12.5v20c0 6 1.5 10 4.5 13 3.1 2 7.2 4 12.3 4 5.2 0 9.3-2 12.4-4 3.1-3 4.6-7 4.6-13v-20c0-5.7-1.5-9.9-4.6-12.5-3.1-2.7-7.2-4-12.4-4zm37.5 0c-1.3 0-2.4.3-3.3.8-.9.5-1.4 1.2-1.4 2.2v46.5c0 1 .5 2 1.4 3h6.6c.9-1 1.4-2 1.4-3v-29l15.5 29c1.1 2 2.9 3 5.4 3h3.3c.9-1 1.4-2 1.4-3V159c0-1-.4-1.7-1.3-2.2-1-.5-2.1-.7-3.4-.7-1.3 0-2.4.2-3.3.7-.9.5-1.4 1.2-1.4 2.2v28.6l-13.9-26.5c-1.1-2.1-2.1-3.4-3-4.1-.9-.6-2.3-.9-4-.9zm-336.63 8.2c5.05 0 7.58 2.8 7.58 8.3v20c0 6-2.53 9-7.58 9-5.01 0-7.51-3-7.51-9v-20c0-5.5 2.5-8.3 7.51-8.3zm299.13 0c5.1 0 7.6 2.8 7.6 8.3v20c0 6-2.5 9-7.6 9-5 0-7.5-3-7.5-9v-20c0-5.5 2.5-8.3 7.5-8.3z"/></svg>