<svg xmlns="http://www.w3.org/2000/svg" version="1.2" viewBox="0 0 524 197.6"><path d="M374.6 52.85c0 .63-1.1 2.93-2.3 5.43 0 .39.3.46.3.7H384c1.1-2.03 2-4.1 3.1-6.13zm-1.1 7.84c.8 2.07 1.8 4.14 2.6 6.09h3.9c1.2-1.95 2-4.02 3.1-6.09zm3.5 7.84c.3.67.3 1.33.8 1.99.3-.66.8-1.28 1.1-1.99zm3.8 0c-.8 1.33-1.6 2.62-2.3 3.86.3.51.7 1.1.7 1.56h11.3c1.2-1.67 2.4-3.51 3.2-5.42zm-.8 7.14c1.6 2.61 3.1 4.56 4.7 6.01 1.6-1.53 3.1-3.55 4.7-6.01zm8.2 8.54c1.6.86 2.7 1.37 3.9 1.64h3.5c1.2-.39 2.4-.9 3.1-1.64zm-15.1-.1c.8.78 1.5 1.49 1.9 2.11h13.3c-.8-.55-1.9-1.25-3.2-2.11zm-5.1-7.82c1.6 2.34 2.6 4.41 3.8 6.24h11.3c-1.5-1.59-3.1-3.62-4.6-6.24zm-3.9-7.83c1.2 2.14 2 4.25 3.1 6.24h10.6c-.8-1.88-2-4.02-2.8-6.24zM322.4 33c.8.63 1.6 1.49 2.3 2.54h10.6c-.4-1.02-1.2-1.8-1.6-2.54zm3.9 4.14c.3.82 1.2 1.71 1.8 2.77.4.89.9 2.1 1.7 3.47h9.3c-.8-2.34-2-4.45-2.8-6.24zm4.3 7.84c.8 1.83 1.5 3.94 2.7 6.2h9.3c-.8-2.15-1.6-4.25-2.8-6.2zm3.1 7.8c.8 2.03 1.9 4.13 2.7 6.24h9.8c-.4-.7-.8-1.37-.8-2.07-.8-1.4-1.2-2.77-1.9-4.17zm3.1 7.84c.4.39.4.39.4.54.8 1.91 1.6 3.86 2.3 5.7h10.2c-1.2-1.99-2-4.06-2.7-6.24zM347.7 33c.8.75 1.2 1.56 1.6 2.54h9.8c-.8-1.17-1.6-2.11-2-2.54zm2.4 4.14c1.1 1.83 1.9 3.94 3.1 6.24h10.5c-.7-1.21-1.1-2.38-1.9-3.36-.4-1.01-1.2-1.98-1.6-2.88zm3.9 7.84c.8 1.95 1.5 4.05 2.6 6.2h10.5c-1.1-2.19-1.8-4.29-2.6-6.2zm3.1 7.8c.8 2.06 2 4.13 2.7 6.24h10.8c-1.1-2.11-1.8-4.18-2.6-6.24zm3.5 7.84c.8 2.1 2 4.17 2.7 6.24h11c-1.2-1.95-2-3.94-2.8-6.01v-.39zM335.6 33c.4.78 1.2 1.6 1.6 2.54h10.2c-.4-.98-.8-1.83-1.6-2.54zm-25.7 0c-1.2.39-1.9.94-3.1 1.72h14c.3-.39.3-.39.8-.47-.8-.66-1.5-1.05-1.5-1.25zm11.7 3.43c-1.9 1.6-3.5 3.94-5.5 6.79h12.1c-.3-1.01-1.1-1.95-1.5-2.65-.8-1.72-2-3.04-2.8-4.14zm5.1 13.93h4.7c-.8-1.6-1.2-3.12-2-4.53-.8 1.49-1.9 2.97-2.7 4.53m-1.2 1.71c-.8 1.99-1.9 4.06-3.1 6.13h12.1c-.8-2.11-1.6-4.14-2.4-6.13zm-39 15.68c-1.2 2.19-1.9 4.25-2.7 6.09h14.8c.8-1.95 1.6-3.98 2.7-6.09zm-3.5 7.84c-1.5 4.06-2.4 6.67-2.4 6.67h14.5c.8-1.95 1.9-4.21 2.7-6.67zm7-15.68c-1.1 2.11-1.9 4.14-3.1 6.13h15.2c.8-2.03 2-4.06 2.7-6.13zm16.8 0c-.8 2.03-2 4.1-2.7 6.13h12.4c1.2-2.03 2-4.06 3.2-6.13zm8.2-14.97c-1.2 1.67-2.4 3.51-3.1 5.42h12.8c1.2-1.87 2-3.71 3.2-5.42zm-11.7 22.81c-1.2 2.11-2 4.14-2.7 6.09h12.8c.8-1.95 1.6-3.98 2.4-6.09zm7.3-15.68c-.8 1.99-2 4.06-3.1 6.13h12.8c1.2-2.07 2.4-4.14 3.2-6.13zm10.9 7.84c-1.2 2.03-1.9 4.1-3.1 6.13h12.5c.4-.71 1.5-3.36 2.7-6.13zm-16.7-23.44c-1.9 1.8-3.9 4.14-5.8 6.79h15.1c1.7-2.65 3.2-4.99 5.2-6.79zm-7 8.51c-.8 1.71-1.9 3.55-3.2 5.42h15.2c.8-1.87 2-3.71 3.2-5.42zm-3.9 7.13c-1.2 2.03-2.3 4.1-3.1 6.13h14.8c1.2-2.07 2.4-4.14 3.1-6.13zm48-7.13c.8 1.95 1.6 4.05 2.7 6.2h10.2c-.8-2.15-2-4.21-2.8-6.2zm-3.9-7.84c1.2 1.87 1.9 3.94 3.1 6.24h10.1c-.7-2.34-1.9-4.45-2.7-6.24zm7.4 15.64c.4 1.21.8 2.34 1.2 3.55.4.85.8 1.79 1.1 2.69h10.6c-1.2-2.07-2-4.1-2.8-6.13zm3.1 7.84c.8 2.06 2 4.17 2.7 6.24h10.6c-1.2-2.03-2-4.14-3.1-6.24zm-8.6 7.84c1.2 2.3 2 4.36 2.8 6.24h10.5c-1.2-1.95-2-4.02-3.1-6.24zm3.6 7.83c.3 1.13.7 2.15 1.1 2.97.8 1.36 1.6 2.42 2.4 3.27h10.1c-1.2-1.83-2-3.9-3.1-6.24zm5 7.84c1.2 1.56 3.5 2.11 3.5 2.11h7.8c-1.1-1.29-1.1-1.68-1.5-2.11zm11.7 0c.4.78 1.2 1.49 1.6 2.11h11.3c-.8-.66-1.2-1.37-2-2.11zm-4.7-7.84c1.2 2.31 2.4 4.41 3.6 6.24H370c-1.2-1.83-2.4-3.97-3.5-6.24zm-3.5-7.83c.8 2.14 2 4.25 2.8 6.24h10.5c-.8-1.99-2-4.1-2.7-6.24zm55-23.4c-.8 1.95-1.5 3.97-2.7 6.08h15.2c.8-2.18 1.6-4.25 2.3-6.08zm3.5-8.43c-.8 1.95-1.5 4.21-2.7 6.67h14.8c1.6-4.02 2.4-6.67 2.4-6.67zm-7 16.22c-.8 2.03-1.5 4.06-2.7 6.13H416c.8-2.07 1.9-4.14 2.7-6.13zm-14.4 0c-1.2 2.03-2 4.06-3.1 6.13h12.8c1.2-2.03 2-4.1 2.8-6.13zm3.1-7.79c-.8 1.95-1.6 3.97-2.3 6.08h12.4c1.2-2.11 2-4.13 2.8-6.08zm-7 15.63c-1.2 2.07-2 4.14-3.1 6.09h12.8c1.2-1.95 2-4.02 3.2-6.09zm6.6 14.98c-1.9 2.69-3.5 4.99-5.4 6.79h14.8c1.5-1.8 3.5-4.1 5.4-6.79zm3.9-7.14c-.8 1.88-1.9 3.71-3.1 5.42h15.2c1.2-1.71 1.8-3.55 3.1-5.42zm4.3-7.84c-1.2 2.07-1.9 4.14-3.1 6.09h15.2c.8-1.99 1.9-4.02 3.1-6.09zM448.6 163h42.5v-7.1h-34.5V133h30.7v-7.1h-30.7v-20.2h32.9v-7.08h-41.4V163zm-56.2 0h8v-28.9h9.1L427 163h10l-18.3-29.7c9.8-1.5 16.2-7.6 16.2-17 0-15.9-13.6-17.68-26-17.68H392V163zm7.7-57.3h10.7c7.3 0 15.1 1.4 15.1 10.6 0 10.7-10.5 10.7-19 10.7h-6.5v-21.3zM366.7 163h8V98.62h-8.4V163zm-53.1 0h8v-28.9h30V127h-30v-21.3h32.3v-7.08h-40.8V163zm-70.2 0h24c15.5 0 34.1-10.2 34.1-32.2 0-21.8-15.8-32.18-32.8-32.18h-25.3zm11.4-10.4V109h10.5c14 0 24.2 6.1 24.2 21.8 0 15.6-11.7 21.8-26.2 21.8zM215.5 163H227V98.62h-11.5zm-49.2 0h38.8v-10.4h-27.4V98.62h-11.4zm-79.75-31.9c0 20.1 14.25 33.5 34.15 33.5 20.1-.3 34.2-13.8 34.2-33.9 0-20.6-14.1-34.07-34.2-33.72-19.9 0-34.15 13.52-34.15 34.12zm12-.8c0-12.8 8.95-22.9 22.15-22.9 13.4 0 22.2 10.1 22.2 22.9 0 13.7-8.9 24-22.3 24-13.2 0-22.05-10.3-22.05-24zm-21.29-26.7c-4.99-4.71-11.7-6.62-18.48-6.62-11.74 0-23.83 6.22-23.83 19.42 0 23 30.65 14.9 30.65 29 0 6-5.96 8.9-11.27 8.9-4.95 0-10.02-2.5-12.75-6.8L33 155.9c5.07 6.3 12.87 8.7 21.1 8.7 12.6 0 23.52-6.7 23.52-20.6 0-22.8-30.58-15.5-30.58-28.4 0-5.9 5.3-8.2 10.61-8.2 4.44 0 8.81 1.6 11.27 5zm0 0"/></svg>