<svg xmlns="http://www.w3.org/2000/svg" viewBox="0 0 600 400"><path fill="#2E2A25" d="M327.527 146.45v44.52h-44.52v6.952h51.47V146.45h-6.95z"/><path fill="#2E2A25" d="M268.495 132.217h53.47v53.47h-53.47v-53.47z"/><g fill="#010101"><path d="M23.326 171.467c1.518.934 3.737 1.713 6.073 1.713 3.464 0 5.488-1.83 5.488-4.477 0-2.452-1.402-3.855-4.944-5.217-4.283-1.518-6.93-3.737-6.93-7.437 0-4.088 3.387-7.125 8.487-7.125 2.688 0 4.634.623 5.802 1.285l-.935 2.764a10.45 10.45 0 0 0-4.983-1.246c-3.582 0-4.944 2.14-4.944 3.932 0 2.452 1.596 3.66 5.217 5.06 4.438 1.714 6.696 3.855 6.696 7.71 0 4.047-2.998 7.55-9.188 7.55-2.53 0-5.294-.74-6.696-1.673l.856-2.84zM66.965 162.2c0 9.033-5.49 13.82-12.185 13.82-6.93 0-11.796-5.37-11.796-13.313 0-8.332 5.178-13.782 12.185-13.782 7.163 0 11.795 5.49 11.795 13.276zm-20.36.43c0 5.606 3.036 10.627 8.37 10.627 5.372 0 8.41-4.944 8.41-10.9 0-5.217-2.726-10.667-8.37-10.667-5.607 0-8.41 5.177-8.41 10.94zM72.92 149.353h3.386v23.398h11.212v2.843h-14.6v-26.24zM94.835 149.353v15.534c0 5.878 2.608 8.37 6.112 8.37 3.893 0 6.384-2.57 6.384-8.37v-15.534h3.428v15.3c0 8.06-4.244 11.367-9.928 11.367-5.372 0-9.42-3.075-9.42-11.212v-15.456h3.425zM136.528 174.736c-1.246.623-3.737 1.246-6.93 1.246-7.398 0-12.965-4.67-12.965-13.275 0-8.214 5.568-13.782 13.704-13.782 3.27 0 5.334.7 6.23 1.168l-.818 2.764c-1.286-.622-3.116-1.09-5.296-1.09-6.15 0-10.24 3.933-10.24 10.823 0 6.423 3.7 10.55 10.085 10.55 2.062 0 4.164-.427 5.526-1.09l.702 2.686zM145.712 149.353v26.24h-3.388v-26.24h3.388zM175.61 162.2c0 9.033-5.49 13.82-12.186 13.82-6.93 0-11.797-5.37-11.797-13.313 0-8.332 5.18-13.782 12.185-13.782 7.165 0 11.797 5.49 11.797 13.276zm-20.362.43c0 5.606 3.037 10.627 8.37 10.627 5.373 0 8.41-4.944 8.41-10.9 0-5.217-2.726-10.667-8.37-10.667-5.606 0-8.41 5.177-8.41 10.94zM181.563 175.593v-26.24h3.698l8.41 13.276c1.947 3.075 3.466 5.84 4.712 8.525l.077-.04c-.312-3.503-.39-6.695-.39-10.783v-10.98h3.192v26.24h-3.426l-8.332-13.314c-1.83-2.92-3.58-5.917-4.905-8.76l-.118.04c.195 3.308.273 6.462.273 10.822v11.212h-3.192zM222.32 163.29h-10.2v9.46h11.37v2.842h-14.756v-26.24h14.17v2.842h-10.782v8.293h10.2v2.803zM228.975 171.467c1.518.934 3.737 1.713 6.074 1.713 3.464 0 5.488-1.83 5.488-4.477 0-2.452-1.402-3.855-4.945-5.217-4.282-1.518-6.93-3.737-6.93-7.437 0-4.088 3.388-7.125 8.487-7.125 2.686 0 4.633.623 5.8 1.285l-.933 2.764a10.456 10.456 0 0 0-4.983-1.246c-3.582 0-4.944 2.14-4.944 3.932 0 2.452 1.596 3.66 5.217 5.06 4.438 1.714 6.696 3.855 6.696 7.71 0 4.047-2.998 7.55-9.188 7.55-2.53 0-5.295-.74-6.697-1.673l.857-2.84z"/></g><g fill="#010101"><path d="M363.623 149.58v26.24h-3.388v-26.24h3.388zM371.952 175.82v-26.238h3.7l8.408 13.275c1.946 3.075 3.465 5.84 4.71 8.526l.08-.04c-.313-3.503-.39-6.695-.39-10.783v-10.98h3.19v26.24h-3.425l-8.33-13.314c-1.83-2.92-3.583-5.918-4.907-8.76l-.116.04c.194 3.308.273 6.462.273 10.822v11.212h-3.193zM404.962 152.462h-7.98v-2.88h19.426v2.88h-8.02v23.36h-3.426v-23.36zM435.326 163.518h-10.2v9.46h11.37v2.842H421.74v-26.24h14.17v2.843h-10.783v8.292h10.2v2.803zM463.277 174.652c-1.518.545-4.516 1.44-8.06 1.44-3.97 0-7.24-1.01-9.81-3.464-2.257-2.18-3.66-5.684-3.66-9.772.04-7.825 5.412-13.548 14.21-13.548 3.038 0 5.412.66 6.542 1.207l-.82 2.764c-1.4-.624-3.152-1.13-5.8-1.13-6.384 0-10.55 3.97-10.55 10.55 0 6.657 4.01 10.59 10.122 10.59 2.22 0 3.737-.312 4.516-.702v-7.825h-5.334v-2.725h8.643v12.614zM470.865 149.93c1.714-.35 4.166-.544 6.502-.544 3.62 0 5.956.662 7.592 2.14 1.323 1.17 2.063 2.96 2.063 4.984 0 3.465-2.18 5.762-4.945 6.696v.117c2.025.7 3.23 2.57 3.855 5.295.856 3.66 1.48 6.19 2.025 7.202h-3.504c-.428-.74-1.012-2.998-1.752-6.268-.78-3.62-2.18-4.983-5.256-5.1h-3.192v11.368h-3.388v-25.89zm3.387 11.953h3.465c3.62 0 5.917-1.985 5.917-4.983 0-3.387-2.452-4.866-6.035-4.906-1.636 0-2.803.156-3.348.312v9.577zM498.66 167.567l-2.726 8.254h-3.504l8.915-26.238h4.088l8.954 26.24h-3.62l-2.803-8.255h-9.305zm8.602-2.647l-2.57-7.552c-.583-1.713-.972-3.27-1.362-4.788h-.078a79.245 79.245 0 0 1-1.323 4.75l-2.57 7.59h7.902zM520.652 149.58h3.388v23.4h11.212v2.84h-14.6v-26.24zM555.026 163.518h-10.2v9.46h11.367v2.842h-14.755v-26.24h14.172v2.843h-10.784v8.292h10.2v2.803zM562.537 171.694c1.518.935 3.737 1.713 6.074 1.713 3.466 0 5.49-1.83 5.49-4.477 0-2.452-1.402-3.854-4.944-5.217-4.283-1.518-6.93-3.737-6.93-7.436 0-4.088 3.387-7.125 8.486-7.125 2.687 0 4.633.623 5.8 1.285l-.933 2.764a10.444 10.444 0 0 0-4.984-1.245c-3.582 0-4.944 2.14-4.944 3.932 0 2.452 1.596 3.66 5.217 5.06 4.437 1.714 6.695 3.855 6.695 7.71 0 4.048-2.998 7.552-9.188 7.552-2.53 0-5.295-.74-6.696-1.675l.857-2.84z"/></g><g fill="#010101"><path d="M114.78 212.276c.28.75.612 1.347.99 1.792.662.777 1.484 1.164 2.465 1.164.532 0 .99-.167 1.38-.504s.58-.807.58-1.41c0-.543-.194-1.016-.584-1.417-.254-.254-.79-.637-1.61-1.147l-1.422-.888c-.428-.272-.77-.545-1.025-.823-.472-.526-.71-1.108-.71-1.742 0-.842.28-1.542.84-2.103.56-.558 1.3-.84 2.224-.84.38 0 .837.094 1.373.282.534.186.84.28.916.28.206 0 .35-.05.427-.148s.14-.236.184-.415h.342l.366 3.552h-.4c-.27-1.07-.707-1.817-1.307-2.24-.6-.425-1.194-.637-1.78-.637-.457 0-.855.135-1.194.404-.34.268-.51.642-.51 1.12 0 .43.13.796.39 1.1.26.308.665.632 1.213.97l1.464.903c.917.566 1.563 1.084 1.94 1.556.37.478.556 1.043.556 1.694 0 .874-.33 1.604-.99 2.19-.66.588-1.503.88-2.53.88a4.93 4.93 0 0 1-1.616-.292c-.563-.196-.884-.293-.966-.293-.196 0-.327.06-.395.18a1.13 1.13 0 0 0-.134.382h-.368l-.497-3.552h.384zM124.92 209.11c.687-.745 1.572-1.12 2.652-1.12 1.075 0 1.966.354 2.672 1.06.706.706 1.06 1.645 1.06 2.82 0 1.08-.343 2.02-1.027 2.818s-1.57 1.197-2.656 1.197c-1.042 0-1.924-.382-2.646-1.148-.722-.766-1.083-1.727-1.083-2.884 0-1.082.343-1.995 1.03-2.742zm1.3-.207c-.543.494-.815 1.347-.815 2.558 0 .968.22 1.87.657 2.705.438.836 1.046 1.255 1.824 1.255.61 0 1.08-.28 1.408-.84.33-.558.494-1.29.494-2.198 0-.94-.21-1.825-.628-2.657-.42-.83-1.026-1.246-1.82-1.246-.43 0-.803.14-1.12.423zM132.634 215.404c.505-.05.847-.15 1.026-.305.18-.156.27-.458.27-.91v-7.958c0-.358-.03-.605-.09-.742-.11-.228-.33-.34-.66-.34-.077 0-.16.007-.25.023s-.202.04-.337.074v-.27a61.166 61.166 0 0 0 2.647-.78c.038 0 .06.015.07.048.008.033.012.103.012.212v9.767c0 .474.08.78.244.917.163.14.5.228 1.01.266v.228h-3.943v-.23zM139.993 208.09v5.212c0 .37.052.666.155.887.2.413.57.618 1.108.618.37 0 .73-.122 1.083-.366.2-.136.404-.323.61-.562v-4.464c0-.418-.08-.693-.244-.823-.163-.13-.49-.21-.978-.237v-.268h2.63v5.735c0 .37.067.623.2.76.133.14.414.2.843.185v.228a21.394 21.394 0 0 0-1.37.408c-.14.05-.45.166-.927.35-.027 0-.043-.012-.05-.036a.434.434 0 0 1-.007-.086v-1.312c-.37.44-.706.767-1.01.978-.462.326-.95.49-1.466.49-.472 0-.918-.17-1.336-.506-.424-.33-.635-.89-.635-1.673v-4.234c0-.43-.093-.72-.278-.865-.12-.09-.375-.155-.766-.193v-.228h2.437zM152.138 208.474c.49.35.737.732.737 1.148a.78.78 0 0 1-.187.5c-.125.154-.318.23-.578.23a.725.725 0 0 1-.5-.194c-.145-.13-.25-.32-.314-.57l-.098-.39c-.07-.29-.193-.492-.367-.612-.178-.113-.414-.17-.708-.17-.62 0-1.142.27-1.568.81-.427.54-.64 1.26-.64 2.158 0 .82.235 1.558.705 2.21.468.653 1.103.98 1.9.98.566 0 1.068-.186 1.508-.556.25-.212.532-.55.847-1.012l.228.14c-.31.652-.635 1.168-.978 1.548-.657.73-1.417 1.093-2.28 1.093-.848 0-1.598-.333-2.25-1-.65-.67-.977-1.576-.977-2.722 0-1.124.356-2.09 1.067-2.9.71-.81 1.61-1.213 2.696-1.213.68 0 1.266.172 1.758.522zM154.45 215.404c.58-.054.948-.153 1.1-.298.152-.143.228-.533.228-1.17v-3.885c0-.35-.024-.595-.073-.73-.08-.224-.253-.336-.513-.336a.92.92 0 0 0-.175.016 9.92 9.92 0 0 0-.493.13v-.253l.35-.113c.95-.31 1.613-.543 1.988-.702.152-.065.25-.098.293-.098.01.04.016.08.016.123v5.85c0 .618.075 1.007.225 1.163.15.16.488.258 1.014.302v.228h-3.96v-.226zm1.295-10.893a.81.81 0 0 1 .603-.25.82.82 0 0 1 .6.248.82.82 0 0 1 .247.604.81.81 0 0 1-.248.595.82.82 0 0 1-.6.248.815.815 0 0 1-.602-.248.814.814 0 0 1-.244-.595c0-.233.082-.433.245-.6zM160.697 209.11c.686-.745 1.57-1.12 2.65-1.12 1.076 0 1.967.354 2.673 1.06.706.706 1.06 1.645 1.06 2.82 0 1.08-.343 2.02-1.027 2.818s-1.57 1.197-2.656 1.197c-1.043 0-1.925-.382-2.647-1.148-.722-.766-1.083-1.727-1.083-2.884 0-1.082.343-1.995 1.03-2.742zm1.3-.207c-.543.494-.815 1.347-.815 2.558 0 .968.22 1.87.657 2.705s1.045 1.255 1.823 1.255c.61 0 1.08-.28 1.408-.84.33-.558.495-1.29.495-2.198 0-.94-.21-1.825-.628-2.657-.42-.83-1.026-1.246-1.82-1.246-.43 0-.803.14-1.12.423zM168.37 215.404c.386-.05.655-.146.81-.29.155-.143.233-.465.233-.965v-4.14c0-.343-.033-.587-.098-.727-.103-.204-.315-.307-.635-.307-.05 0-.1.003-.15.01-.052.004-.116.013-.192.023v-.286c.223-.065.75-.234 1.58-.505l.766-.254c.038 0 .06.014.07.04.008.028.01.066.01.115v1.2c.5-.468.89-.788 1.172-.963a2.45 2.45 0 0 1 1.317-.4c.368 0 .704.106 1.008.32.586.412.88 1.147.88 2.206v3.804c0 .39.077.674.233.847.156.175.418.264.784.27v.227h-3.478v-.227c.395-.054.672-.164.83-.33.158-.165.236-.526.236-1.08v-3.478c0-.467-.086-.854-.26-1.16-.172-.307-.49-.46-.955-.46-.318 0-.642.11-.97.326-.185.126-.422.332-.714.62v4.562c0 .39.087.653.26.785.175.134.45.205.824.216v.228h-3.56v-.226zM182.727 208.785c.576.53.863 1.28.863 2.253h-5.173c.054 1.257.34 2.173.856 2.747.516.575 1.126.86 1.833.86.57 0 1.05-.148 1.44-.445.392-.298.753-.72 1.084-1.268l.286.097c-.223.69-.64 1.33-1.25 1.917-.61.588-1.36.88-2.244.88-1.022 0-1.81-.385-2.367-1.156-.557-.77-.835-1.658-.835-2.663 0-1.09.323-2.033.97-2.826s1.487-1.188 2.525-1.188c.765 0 1.436.264 2.012.793zm-3.9.623c-.176.293-.3.663-.377 1.108h3.44c-.062-.543-.164-.947-.312-1.214-.266-.477-.71-.717-1.336-.717-.62 0-1.09.275-1.416.823zM185.653 213.066h.27c.124.62.29 1.094.503 1.425.38.61.934.913 1.666.913.406 0 .727-.113.962-.338.236-.226.354-.518.354-.877 0-.228-.068-.447-.204-.66-.136-.21-.374-.417-.716-.618l-.912-.52c-.668-.36-1.16-.72-1.475-1.084s-.47-.793-.47-1.288c0-.607.216-1.108.65-1.5.435-.39.98-.586 1.64-.586.286 0 .603.055.947.163.345.11.54.163.583.163a.416.416 0 0 0 .21-.04.345.345 0 0 0 .116-.13h.196l.056 2.273h-.252c-.11-.526-.256-.936-.44-1.23-.338-.543-.823-.815-1.46-.815-.38 0-.678.117-.895.35s-.325.508-.325.823c0 .5.375.945 1.124 1.336l1.074.58c1.157.63 1.736 1.362 1.736 2.197 0 .643-.24 1.166-.72 1.574s-1.108.61-1.882.61c-.326 0-.694-.054-1.107-.163-.41-.107-.655-.162-.73-.162a.245.245 0 0 0-.172.07.47.47 0 0 0-.113.167h-.213v-2.63zM202.246 208.785c.576.53.863 1.28.863 2.253h-5.174c.054 1.257.34 2.173.856 2.747.516.575 1.126.86 1.833.86.57 0 1.05-.148 1.44-.445s.753-.72 1.084-1.268l.285.097c-.223.69-.64 1.33-1.25 1.917-.61.588-1.36.88-2.244.88-1.02 0-1.81-.385-2.366-1.156-.557-.77-.835-1.658-.835-2.663 0-1.09.322-2.033.968-2.826s1.488-1.188 2.526-1.188c.765 0 1.436.264 2.012.793zm-3.902.623c-.175.293-.3.663-.376 1.108h3.44c-.062-.543-.164-.947-.312-1.214-.266-.477-.71-.717-1.336-.717-.618 0-1.09.275-1.416.823zM204.604 215.404c.384-.05.655-.146.81-.29.154-.143.232-.465.232-.965v-4.14c0-.343-.033-.587-.098-.727-.104-.204-.316-.307-.636-.307-.048 0-.1.003-.15.01-.052.004-.116.013-.19.023v-.286c.22-.065.748-.234 1.578-.505l.767-.254c.037 0 .06.014.068.04.01.028.012.066.012.115v1.2c.5-.468.89-.788 1.172-.963.422-.265.86-.4 1.315-.4.37 0 .705.106 1.01.32.583.412.877 1.147.877 2.206v3.804c0 .39.078.674.235.847.156.175.417.264.784.27v.227h-3.478v-.227c.396-.054.673-.164.83-.33.158-.165.238-.526.238-1.08v-3.478c0-.467-.087-.854-.26-1.16-.173-.307-.492-.46-.956-.46-.32 0-.643.11-.972.326-.184.126-.42.332-.713.62v4.562c0 .39.085.653.26.785.173.134.447.205.822.216v.228h-3.56v-.226h.002zM217.815 204.595h9.433l.09 2.835h-.4c-.195-.89-.444-1.47-.745-1.74-.302-.268-.936-.403-1.903-.403h-.928v8.537c0 .643.1 1.042.3 1.195.202.153.642.254 1.32.303v.31h-4.863v-.31c.705-.054 1.145-.17 1.32-.35.173-.177.26-.626.26-1.345v-8.342h-.936c-.923 0-1.552.134-1.886.4-.335.266-.585.846-.754 1.743h-.407l.098-2.835zM232.83 208.785c.576.53.863 1.28.863 2.253h-5.173c.054 1.257.34 2.173.856 2.747.516.575 1.126.86 1.833.86.568 0 1.05-.148 1.44-.445s.752-.72 1.083-1.268l.286.097c-.224.69-.64 1.33-1.25 1.917-.612.588-1.36.88-2.245.88-1.022 0-1.81-.385-2.367-1.156-.557-.77-.835-1.658-.835-2.663 0-1.09.323-2.033.97-2.826s1.487-1.188 2.525-1.188c.765 0 1.437.264 2.012.793zm-3.9.623c-.176.293-.3.663-.377 1.108h3.44c-.062-.543-.164-.947-.312-1.214-.265-.477-.71-.717-1.335-.717-.62 0-1.09.275-1.416.823zM240.788 208.474c.49.35.736.732.736 1.148a.78.78 0 0 1-.187.5c-.125.154-.317.23-.578.23a.727.727 0 0 1-.503-.194c-.143-.13-.248-.32-.313-.57l-.098-.39c-.072-.29-.193-.492-.367-.612-.18-.113-.416-.17-.71-.17-.618 0-1.142.27-1.567.81-.427.54-.64 1.26-.64 2.158 0 .82.235 1.558.705 2.21.47.653 1.104.98 1.902.98a2.27 2.27 0 0 0 1.506-.556c.25-.212.532-.55.847-1.012l.228.14c-.307.652-.633 1.168-.977 1.548-.657.73-1.416 1.093-2.28 1.093-.848 0-1.598-.333-2.25-1-.65-.67-.977-1.576-.977-2.722 0-1.124.356-2.09 1.068-2.9.71-.81 1.61-1.213 2.697-1.213.68 0 1.266.172 1.758.522zM243.077 215.404c.384-.05.655-.146.81-.29.154-.143.232-.465.232-.965v-4.14c0-.343-.034-.587-.1-.727-.103-.204-.315-.307-.635-.307-.048 0-.1.003-.15.01-.052.004-.116.013-.19.023v-.286c.22-.065.748-.234 1.578-.505l.767-.254c.037 0 .06.014.068.04.01.028.012.066.012.115v1.2c.5-.468.89-.788 1.172-.963.423-.265.86-.4 1.316-.4.37 0 .705.106 1.01.32.583.412.877 1.147.877 2.206v3.804c0 .39.078.674.235.847.156.175.417.264.784.27v.227h-3.48v-.227c.397-.054.674-.164.832-.33.157-.165.237-.526.237-1.08v-3.478c0-.467-.087-.854-.26-1.16-.173-.307-.492-.46-.956-.46-.32 0-.643.11-.972.326-.184.126-.42.332-.713.62v4.562c0 .39.086.653.26.785.174.134.448.205.823.216v.228h-3.56v-.226h.002zM253.054 209.11c.686-.745 1.57-1.12 2.65-1.12 1.076 0 1.967.354 2.673 1.06s1.06 1.645 1.06 2.82c0 1.08-.343 2.02-1.027 2.818s-1.57 1.197-2.656 1.197c-1.043 0-1.926-.382-2.647-1.148-.723-.766-1.084-1.727-1.084-2.884 0-1.082.344-1.995 1.03-2.742zm1.3-.207c-.544.494-.816 1.347-.816 2.558 0 .968.22 1.87.657 2.705s1.046 1.255 1.824 1.255c.608 0 1.078-.28 1.407-.84.33-.558.494-1.29.494-2.198 0-.94-.21-1.825-.628-2.657-.418-.83-1.025-1.246-1.82-1.246-.43 0-.802.14-1.118.423zM260.768 215.404c.505-.05.847-.15 1.026-.305.18-.156.27-.458.27-.91v-7.958c0-.358-.03-.605-.09-.742-.11-.228-.33-.34-.66-.34-.077 0-.16.007-.25.023s-.202.04-.337.074v-.27a62.013 62.013 0 0 0 2.647-.78c.038 0 .06.015.07.048.008.033.012.103.012.212v9.767c0 .474.08.78.244.917.163.14.5.228 1.01.266v.228h-3.943v-.23zM267 209.11c.685-.745 1.57-1.12 2.65-1.12 1.075 0 1.966.354 2.672 1.06.706.706 1.06 1.645 1.06 2.82 0 1.08-.343 2.02-1.027 2.818s-1.57 1.197-2.656 1.197c-1.044 0-1.927-.382-2.648-1.148-.723-.766-1.084-1.727-1.084-2.884 0-1.082.344-1.995 1.03-2.742zm1.3-.207c-.545.494-.817 1.347-.817 2.558 0 .968.22 1.87.657 2.705.438.836 1.046 1.255 1.824 1.255.61 0 1.08-.28 1.408-.84.33-.558.494-1.29.494-2.198 0-.94-.21-1.825-.63-2.657-.417-.83-1.024-1.246-1.818-1.246-.43 0-.803.14-1.12.423zM275.913 212.024a2.516 2.516 0 0 1-.412-1.41c0-.635.254-1.238.76-1.808.504-.57 1.218-.855 2.14-.855.397 0 .835.094 1.313.28.478.19.936.282 1.377.282.113 0 .286-.004.517-.012.23-.01.398-.013.5-.013h.1v.66h-1.41c.098.228.173.427.228.595.09.315.138.614.138.895 0 .62-.256 1.188-.77 1.707-.513.518-1.205.778-2.072.778-.136 0-.38-.024-.733-.074-.158 0-.366.134-.627.4s-.39.483-.39.652c0 .174.19.302.57.382.25.055.527.083.832.083 1.398 0 2.347.078 2.847.236.82.256 1.23.805 1.23 1.647 0 .858-.478 1.542-1.436 2.053-.96.51-1.927.766-2.904.766-.89 0-1.597-.18-2.118-.542-.52-.36-.782-.74-.782-1.136a.96.96 0 0 1 .206-.575c.138-.187.41-.466.816-.835l.535-.48.098-.098a2.483 2.483 0 0 1-.558-.285c-.215-.168-.323-.362-.323-.58 0-.2.093-.422.28-.663.188-.242.588-.634 1.2-1.177a2.135 2.135 0 0 1-1.15-.87zm.863 6.06c.514.173 1.1.26 1.764.26.9 0 1.635-.155 2.2-.468.564-.312.846-.696.846-1.152 0-.364-.228-.606-.685-.724-.282-.072-.818-.112-1.608-.123a40.82 40.82 0 0 1-1.25-.05 6.65 6.65 0 0 1-.578-.064 10.54 10.54 0 0 1-.596-.098c-.065 0-.224.172-.476.513-.257.348-.386.67-.386.962.002.456.258.77.77.944zm2.588-5.597c.326-.26.49-.714.49-1.36 0-.516-.134-1.097-.396-1.743-.264-.646-.703-.97-1.316-.97-.532 0-.898.253-1.1.757-.102.268-.153.596-.153.987 0 .663.16 1.258.48 1.783.32.528.734.79 1.246.79.296.002.546-.08.748-.243zM283.52 215.404c.582-.054.948-.153 1.1-.298.152-.143.228-.533.228-1.17v-3.885c0-.35-.024-.595-.073-.73-.08-.224-.253-.336-.514-.336a.926.926 0 0 0-.174.016c-.056.01-.222.054-.492.13v-.253l.35-.113c.95-.31 1.613-.543 1.988-.702.152-.065.25-.098.293-.098.01.04.016.08.016.123v5.85c0 .618.076 1.007.225 1.163.15.16.488.258 1.014.302v.228h-3.96v-.226zm4.45-10.166a1.69 1.69 0 0 1-.384.317l-2.565 1.622h-.675l2.45-2.47a2.54 2.54 0 0 1 .327-.267.706.706 0 0 1 .416-.138c.14 0 .27.05.387.15a.5.5 0 0 1 .175.395.594.594 0 0 1-.13.39zM290.107 212.04c.5-.327 1.496-.77 2.99-1.328v-.693c0-.555-.055-.94-.164-1.157-.185-.364-.567-.546-1.148-.546-.277 0-.54.07-.79.212-.25.146-.376.347-.376.602 0 .065.013.175.04.33.027.154.04.254.04.297 0 .304-.1.516-.3.635a.754.754 0 0 1-.408.105c-.244 0-.43-.08-.562-.24a.83.83 0 0 1-.195-.534c0-.38.235-.778.704-1.193.47-.416 1.157-.623 2.065-.623 1.052 0 1.767.342 2.142 1.026.2.375.302.92.302 1.637v3.267c0 .315.02.532.064.652.07.212.216.317.44.317a.746.746 0 0 0 .31-.057c.08-.038.222-.13.424-.277v.424a2.655 2.655 0 0 1-.563.52c-.304.207-.614.31-.93.31-.368 0-.635-.118-.802-.357a1.62 1.62 0 0 1-.273-.856c-.413.358-.766.626-1.06.8-.493.292-.963.438-1.41.438-.466 0-.87-.164-1.212-.492-.342-.33-.514-.746-.514-1.25 0-.79.395-1.446 1.183-1.974zm2.99-.92c-.626.205-1.14.433-1.548.683-.783.483-1.174 1.032-1.174 1.645 0 .494.163.858.49 1.092.21.152.446.228.707.228.358 0 .702-.1 1.03-.3.33-.202.493-.457.493-.768v-2.58zM301.127 215.322c.678-.05 1.118-.15 1.32-.304.2-.153.3-.552.3-1.195V206.4c0-.612-.1-1.007-.3-1.184-.202-.176-.642-.28-1.32-.314v-.308h4.935v.308c-.68.033-1.12.138-1.32.314-.2.177-.3.572-.3 1.185v7.423c0 .643.1 1.042.3 1.195.2.154.64.255 1.32.304v.31h-4.935v-.31zM307.198 215.404c.384-.05.655-.146.81-.29.154-.143.232-.465.232-.965v-4.14c0-.343-.033-.587-.098-.727-.104-.204-.316-.307-.636-.307-.048 0-.1.003-.15.01-.052.004-.116.013-.19.023v-.286c.22-.065.748-.234 1.578-.505l.767-.254c.038 0 .062.014.07.04.008.028.01.066.01.115v1.2c.5-.468.89-.788 1.173-.963.423-.265.86-.4 1.316-.4.368 0 .704.106 1.008.32.584.412.878 1.147.878 2.206v3.804c0 .39.078.674.235.847.157.175.418.264.785.27v.227h-3.48v-.227c.397-.054.674-.164.832-.33.157-.165.237-.526.237-1.08v-3.478c0-.467-.087-.854-.26-1.16-.173-.307-.492-.46-.956-.46-.32 0-.643.11-.972.326-.184.126-.42.332-.712.62v4.562c0 .39.086.653.26.785.174.134.448.205.823.216v.228h-3.56v-.226zM316.048 215.404c.576-.027.955-.135 1.136-.322.182-.188.274-.582.274-1.186v-5.23h-1.393v-.545h1.393c0-.857.116-1.582.35-2.175.446-1.134 1.265-1.702 2.457-1.702.48 0 .907.096 1.285.286s.568.444.568.764c0 .18-.065.34-.196.48a.614.614 0 0 1-.47.213.618.618 0 0 1-.405-.142c-.113-.096-.248-.262-.405-.5l-.138-.214a1.19 1.19 0 0 0-.267-.288c-.102-.078-.245-.117-.43-.117-.41 0-.69.203-.834.61-.08.217-.122.503-.122.856v1.93h2.03v.547h-2.03v5.23c0 .614.084 1.006.25 1.176.165.172.598.28 1.3.33v.228h-4.35l-.002-.226zM323.215 209.11c.686-.745 1.57-1.12 2.65-1.12 1.076 0 1.967.354 2.673 1.06s1.06 1.645 1.06 2.82c0 1.08-.343 2.02-1.027 2.818s-1.568 1.197-2.655 1.197c-1.043 0-1.926-.382-2.647-1.148-.723-.766-1.084-1.727-1.084-2.884 0-1.082.344-1.995 1.03-2.742zm1.3-.207c-.544.494-.816 1.347-.816 2.558 0 .968.218 1.87.656 2.705.438.836 1.046 1.255 1.824 1.255.61 0 1.08-.28 1.408-.84.33-.558.494-1.29.494-2.198 0-.94-.21-1.825-.63-2.657-.417-.83-1.024-1.246-1.818-1.246-.43 0-.803.14-1.12.423zM330.66 215.362c.5-.042.83-.13.994-.264.163-.134.245-.417.245-.852v-3.674c0-.537-.052-.92-.152-1.152-.1-.23-.285-.346-.55-.346-.055 0-.127.008-.216.02-.09.015-.184.033-.28.054v-.27l.95-.332c.324-.114.55-.196.672-.244.27-.103.55-.22.836-.35.038 0 .06.013.07.04a.76.76 0 0 1 .012.17v1.337c.35-.483.684-.86 1.01-1.133.323-.272.66-.407 1.008-.407.277 0 .503.083.678.25a.825.825 0 0 1 .262.622c0 .223-.067.41-.2.562a.64.64 0 0 1-.502.228c-.206 0-.414-.094-.622-.286-.21-.19-.374-.285-.493-.285-.19 0-.424.154-.7.462-.278.306-.416.623-.416.95v3.672c0 .467.108.792.326.973.216.182.578.268 1.083.256v.27h-4.015v-.27zM336.895 215.42c.424-.038.705-.11.847-.212.216-.157.326-.472.326-.945v-4.212c0-.4-.053-.664-.16-.79-.105-.124-.28-.187-.525-.187-.115 0-.2.007-.257.017-.056.01-.124.03-.2.056v-.285l.588-.195c.21-.07.558-.2 1.043-.383.482-.185.737-.277.765-.277s.043.014.05.04c.004.028.008.08.008.155v1.1c.538-.49 1.003-.828 1.393-1.014a2.75 2.75 0 0 1 1.206-.28c.557 0 1.003.19 1.335.57.173.205.317.486.43.84.403-.41.753-.71 1.05-.906.517-.337 1.044-.505 1.582-.505.873 0 1.458.356 1.75 1.067.17.403.253 1.038.253 1.907v3.38c0 .385.086.646.257.785.17.138.48.23.924.273v.212h-3.672v-.228c.47-.043.783-.14.932-.285.15-.148.224-.445.224-.897v-3.51c0-.527-.056-.915-.17-1.164-.202-.445-.595-.67-1.182-.67-.354 0-.704.118-1.05.352a5.19 5.19 0 0 0-.742.652v4.17c0 .44.077.775.23 1.004.156.228.483.35.983.366v.212h-3.74v-.212c.516-.065.845-.19.986-.375s.21-.64.21-1.37V211.4c0-.834-.053-1.41-.162-1.723-.18-.532-.56-.8-1.14-.8-.33 0-.657.092-.978.275-.32.18-.603.42-.847.713v4.455c0 .414.072.698.216.856.142.157.456.24.94.244v.212h-3.706v-.212zM351.878 212.04c.5-.327 1.496-.77 2.99-1.328v-.693c0-.555-.055-.94-.164-1.157-.185-.364-.567-.546-1.148-.546-.277 0-.54.07-.79.212-.25.146-.376.347-.376.602 0 .065.014.175.04.33.028.154.042.254.042.297 0 .304-.1.516-.302.635a.754.754 0 0 1-.407.105c-.244 0-.43-.08-.562-.24a.83.83 0 0 1-.195-.534c0-.38.235-.778.704-1.193.47-.416 1.157-.623 2.065-.623 1.052 0 1.767.342 2.142 1.026.2.375.302.92.302 1.637v3.267c0 .315.02.532.064.652.07.212.216.317.44.317a.746.746 0 0 0 .31-.057c.08-.038.222-.13.424-.277v.424a2.655 2.655 0 0 1-.563.52c-.304.207-.614.31-.93.31-.368 0-.635-.118-.802-.357a1.62 1.62 0 0 1-.273-.856c-.413.358-.766.626-1.06.8-.493.292-.963.438-1.41.438-.466 0-.87-.164-1.212-.492-.342-.33-.514-.746-.514-1.25.003-.79.397-1.446 1.184-1.974zm2.99-.92c-.626.205-1.14.433-1.548.683-.782.483-1.173 1.032-1.173 1.645 0 .494.163.858.49 1.092.21.152.446.228.707.228.358 0 .702-.1 1.03-.3.33-.202.493-.457.493-.768v-2.58zm1.377-5.964c-.087.103-.215.21-.382.318l-2.567 1.62h-.677l2.45-2.467c.088-.087.196-.177.327-.27s.27-.138.415-.138c.14 0 .27.05.388.15a.5.5 0 0 1 .175.395.584.584 0 0 1-.13.39zM362.22 208.12v.588h-1.662l-.017 4.692c0 .413.037.724.107.937.13.374.386.562.766.562a.923.923 0 0 0 .51-.14c.142-.09.306-.238.492-.44l.21.18-.177.243c-.283.38-.582.65-.897.807a2.03 2.03 0 0 1-.91.236c-.642 0-1.076-.285-1.304-.855-.125-.31-.187-.738-.187-1.286v-4.936h-.89a.25.25 0 0 1-.06-.05.1.1 0 0 1-.02-.064c0-.054.012-.097.036-.126a2.7 2.7 0 0 1 .232-.21c.375-.307.645-.56.81-.752.166-.193.555-.702 1.17-1.528.07 0 .112.007.126.017.013.01.02.05.02.122v2.004h1.646zM363.42 215.404c.58-.054.947-.153 1.1-.298.15-.143.227-.533.227-1.17v-3.885c0-.35-.024-.595-.073-.73-.08-.224-.253-.336-.514-.336a.926.926 0 0 0-.175.016c-.056.01-.222.054-.492.13v-.253l.35-.113c.95-.31 1.613-.543 1.988-.702.153-.065.25-.098.294-.098.01.04.016.08.016.123v5.85c0 .618.075 1.007.224 1.163.15.16.488.258 1.014.302v.228h-3.96v-.226h.002zm1.294-10.893a.81.81 0 0 1 .604-.25.82.82 0 0 1 .598.248.82.82 0 0 1 .25.604.81.81 0 0 1-.25.595.82.82 0 0 1-.598.248.815.815 0 0 1-.604-.248.813.813 0 0 1-.243-.595.83.83 0 0 1 .244-.6zM374.115 208.474c.49.35.736.732.736 1.148a.78.78 0 0 1-.186.5c-.125.154-.317.23-.578.23a.727.727 0 0 1-.502-.194c-.143-.13-.248-.32-.313-.57l-.097-.39c-.072-.29-.193-.492-.367-.612-.18-.113-.415-.17-.708-.17-.62 0-1.143.27-1.568.81-.427.54-.64 1.26-.64 2.158 0 .82.235 1.558.705 2.21.47.653 1.104.98 1.902.98a2.27 2.27 0 0 0 1.506-.556c.25-.212.532-.55.847-1.012l.228.14c-.308.652-.634 1.168-.978 1.548-.657.73-1.416 1.093-2.28 1.093-.848 0-1.598-.333-2.25-1-.65-.67-.977-1.576-.977-2.722 0-1.124.356-2.09 1.068-2.9s1.61-1.213 2.698-1.213c.68 0 1.265.172 1.757.522zM377.894 212.04c.5-.327 1.496-.77 2.99-1.328v-.693c0-.555-.055-.94-.164-1.157-.185-.364-.567-.546-1.148-.546-.277 0-.54.07-.79.212-.25.146-.376.347-.376.602 0 .065.014.175.04.33.028.154.042.254.042.297 0 .304-.1.516-.302.635a.754.754 0 0 1-.407.105c-.245 0-.432-.08-.563-.24a.83.83 0 0 1-.195-.534c0-.38.235-.778.704-1.193.47-.416 1.158-.623 2.066-.623 1.052 0 1.767.342 2.142 1.026.2.375.302.92.302 1.637v3.267c0 .315.02.532.065.652.07.212.217.317.44.317a.746.746 0 0 0 .31-.057c.08-.038.223-.13.425-.277v.424a2.655 2.655 0 0 1-.563.52c-.304.207-.614.31-.93.31-.368 0-.635-.118-.802-.357a1.62 1.62 0 0 1-.273-.856c-.413.358-.766.626-1.06.8-.493.292-.964.438-1.41.438-.466 0-.87-.164-1.212-.492-.342-.33-.514-.746-.514-1.25.002-.79.396-1.446 1.184-1.974zm2.99-.92c-.626.205-1.14.433-1.548.683-.782.483-1.173 1.032-1.173 1.645 0 .494.163.858.49 1.092.21.152.446.228.707.228.358 0 .702-.1 1.03-.3.33-.202.493-.457.493-.768v-2.58zM388.872 208.146h3.438v.228c-.272.005-.472.03-.603.075-.25.07-.375.212-.375.424 0 .077.013.156.04.237s.076.203.148.364l1.884 4.077 1.552-4.11a3.11 3.11 0 0 0 .078-.3 1.78 1.78 0 0 0 .052-.316c0-.144-.048-.25-.146-.317a.763.763 0 0 0-.376-.116l-.252-.015v-.228h2.24v.228c-.223.027-.39.106-.5.235a1.69 1.69 0 0 0-.29.54l-2.567 6.793c-.445 1.173-.87 2.022-1.278 2.55s-.923.79-1.548.79c-.305 0-.59-.076-.857-.228s-.4-.394-.4-.726c0-.218.08-.395.24-.534a.874.874 0 0 1 .597-.207c.14 0 .348.05.623.153.277.103.474.155.592.155.3 0 .617-.368.95-1.106s.498-1.225.498-1.46a.867.867 0 0 0-.023-.178 1.39 1.39 0 0 0-.054-.186l-2.568-5.55c-.185-.402-.345-.667-.484-.795-.138-.127-.343-.21-.615-.248v-.23h.002zM410.156 204.667c.635.18.99.268 1.068.268a.837.837 0 0 0 .448-.13.676.676 0 0 0 .293-.406h.35l.155 3.746h-.383c-.223-.744-.513-1.345-.87-1.8-.685-.86-1.606-1.288-2.762-1.288-1.17 0-2.122.462-2.864 1.385-.74.923-1.11 2.194-1.11 3.812 0 1.488.39 2.676 1.17 3.564.778.887 1.765 1.332 2.96 1.332.863 0 1.66-.206 2.387-.62.417-.233.877-.586 1.376-1.06l.31.312c-.37.467-.83.877-1.377 1.23a5.533 5.533 0 0 1-3.038.896c-1.792 0-3.215-.572-4.268-1.72-.972-1.057-1.46-2.38-1.46-3.966 0-1.624.515-2.987 1.54-4.09 1.082-1.156 2.488-1.734 4.22-1.734.602 0 1.22.088 1.856.267zM415.19 209.11c.686-.745 1.57-1.12 2.65-1.12 1.076 0 1.967.354 2.673 1.06s1.06 1.645 1.06 2.82c0 1.08-.343 2.02-1.027 2.818s-1.57 1.197-2.656 1.197c-1.043 0-1.926-.382-2.647-1.148-.723-.766-1.084-1.727-1.084-2.884 0-1.082.343-1.995 1.03-2.742zm1.3-.207c-.543.494-.815 1.347-.815 2.558 0 .968.22 1.87.657 2.705.438.836 1.046 1.255 1.824 1.255.61 0 1.08-.28 1.408-.84.33-.558.494-1.29.494-2.198 0-.94-.21-1.825-.63-2.657-.417-.83-1.024-1.246-1.818-1.246-.43 0-.803.14-1.12.423zM422.83 215.42c.424-.038.705-.11.847-.212.216-.157.326-.472.326-.945v-4.212c0-.4-.053-.664-.16-.79-.105-.124-.28-.187-.525-.187-.115 0-.2.007-.257.017-.055.01-.123.03-.198.056v-.285l.587-.195c.21-.07.557-.2 1.042-.383.482-.185.737-.277.765-.277.027 0 .043.014.05.04.004.028.008.08.008.155v1.1c.538-.49 1.003-.828 1.394-1.014a2.75 2.75 0 0 1 1.205-.28c.558 0 1.004.19 1.336.57.174.205.318.486.432.84.402-.41.752-.71 1.05-.906.516-.337 1.043-.505 1.58-.505.874 0 1.46.356 1.752 1.067.168.403.252 1.038.252 1.907v3.38c0 .385.086.646.257.785.17.138.48.23.924.273v.212h-3.673v-.228c.47-.043.783-.14.932-.285.15-.148.224-.445.224-.897v-3.51c0-.527-.056-.915-.17-1.164-.202-.445-.595-.67-1.182-.67-.354 0-.704.118-1.05.352-.202.136-.448.353-.742.652v4.17c0 .44.077.775.23 1.004.156.228.483.35.983.366v.212h-3.74v-.212c.515-.065.844-.19.985-.375s.212-.64.212-1.37V211.4c0-.834-.054-1.41-.163-1.723-.18-.532-.56-.8-1.14-.8-.33 0-.657.092-.978.275-.32.18-.603.42-.847.713v4.455c0 .414.07.698.215.856.143.157.457.24.94.244v.212h-3.705v-.212zM438.604 208.09v5.212c0 .37.05.666.154.887.2.413.57.618 1.108.618.37 0 .73-.122 1.084-.366.2-.136.404-.323.61-.562v-4.464c0-.418-.08-.693-.244-.823s-.49-.21-.978-.237v-.268h2.632v5.735c0 .37.066.623.2.76.133.14.413.2.843.185v.228a20.087 20.087 0 0 0-1.368.408c-.142.05-.452.166-.93.35-.027 0-.043-.012-.048-.036a.32.32 0 0 1-.01-.086v-1.312c-.368.44-.705.767-1.01.978-.46.326-.95.49-1.465.49-.472 0-.918-.17-1.336-.506-.424-.33-.635-.89-.635-1.673v-4.234c0-.43-.09-.72-.276-.865-.12-.09-.375-.155-.766-.193v-.228h2.436zM445.148 215.404c.384-.05.655-.146.81-.29.154-.143.232-.465.232-.965v-4.14c0-.343-.033-.587-.098-.727-.104-.204-.316-.307-.636-.307-.048 0-.1.003-.15.01-.052.004-.116.013-.19.023v-.286c.22-.065.748-.234 1.578-.505l.767-.254c.038 0 .062.014.07.04.008.028.01.066.01.115v1.2c.5-.468.89-.788 1.173-.963.422-.265.86-.4 1.316-.4.368 0 .704.106 1.008.32.584.412.878 1.147.878 2.206v3.804c0 .39.078.674.235.847.157.175.418.264.785.27v.227h-3.48v-.227c.397-.054.674-.164.832-.33.158-.165.237-.526.237-1.08v-3.478c0-.467-.087-.854-.26-1.16-.173-.307-.492-.46-.956-.46-.32 0-.643.11-.972.326-.184.126-.42.332-.713.62v4.562c0 .39.086.653.26.785.174.134.448.205.823.216v.228h-3.56v-.226h.002zM453.998 215.404c.58-.054.947-.153 1.1-.298.15-.143.227-.533.227-1.17v-3.885c0-.35-.024-.595-.073-.73-.08-.224-.253-.336-.514-.336a.926.926 0 0 0-.175.016c-.056.01-.222.054-.492.13v-.253l.35-.113c.95-.31 1.614-.543 1.99-.702.15-.065.25-.098.292-.098.01.04.016.08.016.123v5.85c0 .618.075 1.007.224 1.163.15.16.488.258 1.014.302v.228h-3.96v-.226H454zm1.295-10.893a.81.81 0 0 1 .604-.25.82.82 0 0 1 .598.248.82.82 0 0 1 .25.604.81.81 0 0 1-.25.595.82.82 0 0 1-.598.248.815.815 0 0 1-.604-.248.813.813 0 0 1-.243-.595c0-.233.08-.433.243-.6zM464.693 208.474c.49.35.736.732.736 1.148a.78.78 0 0 1-.188.5c-.125.154-.317.23-.578.23a.727.727 0 0 1-.502-.194c-.143-.13-.248-.32-.313-.57l-.1-.39c-.07-.29-.192-.492-.366-.612-.18-.113-.415-.17-.708-.17-.62 0-1.143.27-1.568.81-.427.54-.64 1.26-.64 2.158 0 .82.235 1.558.705 2.21.47.653 1.104.98 1.902.98a2.27 2.27 0 0 0 1.506-.556c.25-.212.533-.55.848-1.012l.228.14c-.308.652-.634 1.168-.978 1.548-.657.73-1.416 1.093-2.28 1.093-.848 0-1.598-.333-2.25-1-.65-.67-.977-1.576-.977-2.722 0-1.124.357-2.09 1.07-2.9.71-.81 1.61-1.213 2.696-1.213.68 0 1.265.172 1.757.522zM468.472 212.04c.5-.327 1.496-.77 2.99-1.328v-.693c0-.555-.055-.94-.164-1.157-.185-.364-.567-.546-1.148-.546-.277 0-.54.07-.79.212-.25.146-.376.347-.376.602 0 .065.014.175.04.33.028.154.042.254.042.297 0 .304-.1.516-.302.635a.754.754 0 0 1-.407.105c-.244 0-.43-.08-.562-.24a.83.83 0 0 1-.195-.534c0-.38.235-.778.704-1.193.47-.416 1.158-.623 2.066-.623 1.052 0 1.767.342 2.142 1.026.2.375.302.92.302 1.637v3.267c0 .315.02.532.065.652.07.212.215.317.438.317a.746.746 0 0 0 .31-.057c.08-.038.223-.13.425-.277v.424a2.655 2.655 0 0 1-.563.52c-.304.207-.614.31-.93.31-.368 0-.635-.118-.802-.357a1.62 1.62 0 0 1-.273-.856c-.413.358-.766.626-1.06.8-.493.292-.963.438-1.41.438-.466 0-.87-.164-1.212-.492-.342-.33-.514-.746-.514-1.25 0-.79.394-1.446 1.182-1.974zm2.99-.92c-.626.205-1.14.433-1.548.683-.782.483-1.173 1.032-1.173 1.645 0 .494.164.858.49 1.092.21.152.447.228.708.228.358 0 .702-.1 1.03-.3.33-.202.493-.457.493-.768v-2.58zM480.47 208.474c.49.35.736.732.736 1.148a.78.78 0 0 1-.187.5c-.126.154-.318.23-.58.23a.727.727 0 0 1-.5-.194c-.144-.13-.25-.32-.314-.57l-.098-.39c-.072-.29-.193-.492-.367-.612-.178-.113-.414-.17-.707-.17-.62 0-1.143.27-1.568.81-.427.54-.64 1.26-.64 2.158 0 .82.235 1.558.705 2.21.47.653 1.104.98 1.902.98a2.27 2.27 0 0 0 1.506-.556c.25-.212.532-.55.847-1.012l.228.14c-.308.652-.634 1.168-.978 1.548-.657.73-1.416 1.093-2.28 1.093-.848 0-1.598-.333-2.25-1-.65-.67-.977-1.576-.977-2.722 0-1.124.356-2.09 1.068-2.9.71-.81 1.61-1.213 2.697-1.213.68 0 1.265.172 1.757.522zM482.783 215.404c.58-.054.947-.153 1.1-.298.15-.143.227-.533.227-1.17v-3.885c0-.35-.024-.595-.073-.73-.08-.224-.253-.336-.514-.336a.926.926 0 0 0-.175.016c-.056.01-.222.054-.492.13v-.253l.35-.113c.95-.31 1.613-.543 1.988-.702.152-.065.25-.098.293-.098.01.04.016.08.016.123v5.85c0 .618.075 1.007.224 1.163.15.16.488.258 1.014.302v.228h-3.958v-.226zm1.294-10.893a.81.81 0 0 1 .604-.25.82.82 0 0 1 .6.248.82.82 0 0 1 .248.604.81.81 0 0 1-.25.595.82.82 0 0 1-.597.248.815.815 0 0 1-.603-.248.813.813 0 0 1-.243-.595c0-.233.08-.433.243-.6zM489.03 209.11c.686-.745 1.57-1.12 2.65-1.12 1.076 0 1.967.354 2.673 1.06.706.706 1.06 1.645 1.06 2.82 0 1.08-.343 2.02-1.027 2.818s-1.57 1.197-2.656 1.197c-1.043 0-1.926-.382-2.647-1.148-.723-.766-1.084-1.727-1.084-2.884 0-1.082.343-1.995 1.03-2.742zm1.3-.207c-.544.494-.816 1.347-.816 2.558 0 .968.22 1.87.657 2.705.44.836 1.047 1.255 1.825 1.255.61 0 1.08-.28 1.408-.84.33-.558.494-1.29.494-2.198 0-.94-.21-1.825-.63-2.657-.417-.83-1.024-1.246-1.818-1.246-.43 0-.804.14-1.12.423zm3.87-3.665c-.09.103-.216.21-.384.317l-2.567 1.622h-.677l2.452-2.47c.086-.085.195-.175.326-.267a.705.705 0 0 1 .416-.138c.14 0 .27.05.387.15.117.1.176.232.176.395a.588.588 0 0 1-.13.39zM496.703 215.404c.384-.05.655-.146.81-.29.154-.143.232-.465.232-.965v-4.14c0-.343-.033-.587-.098-.727-.104-.204-.316-.307-.636-.307-.047 0-.098.003-.15.01-.05.004-.115.013-.19.023v-.286c.222-.065.75-.234 1.58-.505l.766-.254c.037 0 .06.014.068.04.01.028.012.066.012.115v1.2c.5-.468.89-.788 1.172-.963.423-.265.86-.4 1.316-.4.37 0 .705.106 1.01.32.583.412.877 1.147.877 2.206v3.804c0 .39.08.674.236.847.156.175.417.264.784.27v.227h-3.48v-.227c.397-.054.674-.164.832-.33.158-.165.237-.526.237-1.08v-3.478c0-.467-.088-.854-.26-1.16-.174-.307-.493-.46-.957-.46-.32 0-.643.11-.972.326-.183.126-.42.332-.712.62v4.562c0 .39.086.653.26.785.174.134.448.205.823.216v.228h-3.558v-.226z"/></g></svg>