<svg xmlns="http://www.w3.org/2000/svg" viewBox="0 0 888.16 186.82"><path d="M789.46 29.91h76.7v16.21h-15.1c-6.4 0-11.7 2.22-16 6.67l-51.3 54.73v26.51c0 4.45 2.2 6.67 6.7 6.67h19v16.21h-92.5V140.7h19.1c4.5 0 6.6-2.22 6.6-6.67v-24.79l-52.6-56.45c-4.3-4.45-9.6-6.67-16-6.67h-15V29.91h94.2v16.21h-9.4c-2.2 0-3.7.79-4.4 2.38-.6 1.59-.4 3.02.8 4.29l31.1 33.18 31.1-33.18c1.1-1.27 1.4-2.7.7-4.29-.6-1.59-2.1-2.38-4.4-2.38h-9.3zm-169.3 127h-26.2L489.67 67.67v66.36c0 4.45 2.23 6.67 6.66 6.67h19.09v16.21h-78V140.7h19.07c4.45 0 6.67-2.22 6.67-6.67V52.79c0-4.45-2.22-6.67-6.67-6.67h-19.07V29.91h65.39l90.75 77.61V52.79c0-4.45-2.2-6.67-6.6-6.67h-19.1V29.91h78v16.21h-19.1c-4.5 0-6.6 2.22-6.6 6.67zM322.25 22c-59.43 0-98.78 30.59-98.78 71.41 0 40.82 39.35 71.41 98.78 71.41 59.44 0 98.79-30.59 98.79-71.41 0-40.82-39.35-71.41-98.79-71.41zm0 19.04c34.09 0 56.65 22.43 56.65 52.37 0 29.93-22.56 52.37-56.65 52.37-34.08 0-56.65-22.44-56.65-52.37 0-29.94 22.57-52.37 56.65-52.37zM170.17 28.4h16.21v42.89h-16.21c-8.08-26.59-48.25-30.57-73.44-30.57-22.03 0-38.49 5.79-38.49 16.98 0 12.93 30.99 13.3 56.05 16.69 32.27 4.37 79.33 3.62 79.33 45.8 0 33.28-44.2 44.57-71.88 44.63-49.56.11-64.94-14.16-76.28-14.16-3.15 0-4.77 3.04-4.77 9.12H24.48v-48.13h16.21c6.09 29.01 50.69 35.33 69.49 35.33 13.32 0 47.6-2.61 47.6-18.45 0-15.01-22-14.23-48.72-18.04C79.77 106.3 22 105.39 22 66.44 22 36.38 55.68 22 93.47 22c43.89 0 65.59 14.25 72.09 14.25 3.07 0 4.61-2.82 4.61-7.85z"/></svg>