<svg xmlns="http://www.w3.org/2000/svg" viewBox="0 0 595.276 115.5"><path d="M33.597 44.557c-3.656 0-6.8-1.146-9.427-3.44-2.627-2.29-3.94-5.053-3.94-8.29 0-3.192 1.313-5.934 3.94-8.227 2.627-2.292 5.765-3.44 9.42-3.44h36.853v8.8H33.577c-.938 0-1.72.28-2.355.84-.634.56-.95 1.25-.95 2.08 0 .827.33 1.533.99 2.112.653.58 1.43.868 2.315.868h23.22c3.7 0 6.865 1.165 9.492 3.49 2.626 2.328 3.94 5.084 3.94 8.27 0 3.184-1.308 5.92-3.935 8.207-2.62 2.287-5.777 3.43-9.478 3.43H20.23v-8.8h36.587c.938 0 1.734-.288 2.388-.868.66-.58.983-1.264.983-2.052 0-.828-.323-1.532-.983-2.11-.654-.58-1.455-.87-2.394-.87H33.598zM87.206 59.257c-3.655 0-6.793-1.148-9.42-3.446-2.627-2.295-3.94-5.045-3.94-8.246v-14.71c0-3.2 1.313-5.948 3.94-8.246 2.626-2.297 5.765-3.446 9.42-3.446h23.486c3.656 0 6.8 1.15 9.427 3.446 2.62 2.297 3.933 5.047 3.933 8.247v14.71c0 3.24-1.3 6-3.9 8.278-2.602 2.277-5.753 3.414-9.46 3.414H87.205zm23.5-8.8c.938 0 1.72-.276 2.354-.83.634-.552.952-1.24.952-2.063v-14.71c0-.78-.35-1.455-1.055-2.03-.706-.576-1.456-.863-2.25-.863H87.2c-.563 0-1.256.3-2.077.894-.82.595-1.236 1.263-1.236 2v14.71c0 .78.356 1.457 1.055 2.032.705.575 1.456.862 2.258.862h23.506zM137.51 44.557v14.7h-10.04V21.16h33.462c3.707 0 6.87 1.148 9.49 3.44 2.628 2.293 3.94 5.078 3.94 8.35 0 3.194-1.325 5.927-3.972 8.198-2.652 2.273-5.804 3.408-9.46 3.408h-23.42zm0-14.597v5.798h23.435c.84 0 1.617-.285 2.323-.855.7-.57 1.055-1.26 1.055-2.075 0-.773-.33-1.444-.984-2.013-.66-.57-1.456-.855-2.395-.855H137.51zM191.07 59.257c-3.657 0-6.8-1.148-9.428-3.446-2.62-2.295-3.933-5.045-3.933-8.246v-14.71c0-3.2 1.312-5.948 3.932-8.246 2.627-2.297 5.77-3.446 9.427-3.446h23.485c3.655 0 6.793 1.15 9.42 3.446 2.627 2.297 3.94 5.047 3.94 8.247v14.71c0 3.24-1.3 6-3.9 8.278-2.608 2.277-5.76 3.414-9.46 3.414H191.07zm23.498-8.8c.938 0 1.72-.276 2.355-.83.633-.552.95-1.24.95-2.063v-14.71c0-.78-.355-1.455-1.054-2.03-.707-.576-1.457-.863-2.253-.863h-23.512c-.563 0-1.255.3-2.077.894-.82.595-1.23 1.263-1.23 2v14.71c0 .78.35 1.457 1.056 2.032.706.575 1.456.862 2.25.862h23.514zM231.325 21.16h32.725c3.707 0 6.878 1.148 9.505 3.438 2.627 2.292 3.94 5.033 3.94 8.224 0 1.352-.214 2.61-.634 3.775-.42 1.166-1.034 2.28-1.83 3.344 2.128 2.14 3.19 4.67 3.19 7.59v11.726h-10.042V47.522c0-.74-.284-1.4-.847-1.977a3.238 3.238 0 0 0-2.038-.988h-23.926v14.7h-10.04V21.16zm33.06 8.8h-23.02v5.798h23.02c.94 0 1.735-.285 2.39-.855.66-.57.99-1.26.99-2.075 0-.773-.33-1.444-.99-2.013-.655-.57-1.45-.855-2.39-.855zM281.564 29.96v-8.8h43.49v8.8h-16.782v29.296H298.23V29.96h-16.666zM338.538 47.538c0 .746.37 1.418 1.095 2.018.73.602 1.468.9 2.218.9h26.826v8.8H341.87c-3.66 0-6.806-1.148-9.432-3.446-2.63-2.296-3.94-5.046-3.94-8.247V32.855c0-3.2 1.312-5.95 3.94-8.247 2.625-2.297 5.77-3.446 9.432-3.446h26.384v8.8H341.85c-.937 0-1.727.274-2.36.824-.633.55-.952 1.23-.952 2.043v2.93h28.52v8.798h-28.52v2.98zM390.038 59.257c-3.657 0-6.8-1.148-9.428-3.446-2.625-2.295-3.94-5.045-3.94-8.246V21.16h10.042v26.405c0 .82.317 1.51.952 2.062.635.553 1.418.83 2.354.83h26.832v8.8h-26.812zM420.226 59.257V21.16h10.043v38.096h-10.044zM433.593 59.257V21.16h32.726c3.705 0 6.877 1.148 9.502 3.438 2.63 2.292 3.94 5.033 3.94 8.224 0 2.7-.918 5.075-2.742 7.12a13.945 13.945 0 0 1 2.503 3.58c.642 1.316.965 2.654.965 4.01 0 3.208-1.314 5.966-3.94 8.27-2.62 2.303-5.784 3.455-9.492 3.455h-33.463zm33.062-29.297h-23.02v5.798h23.02c.938 0 1.735-.285 2.388-.855.66-.57.99-1.26.99-2.075 0-.773-.33-1.444-.99-2.013-.654-.57-1.45-.855-2.388-.855zm3.79 17.578c0-.828-.328-1.532-.98-2.11-.655-.58-1.45-.87-2.39-.87h-23.44v5.9h23.436c.94 0 1.734-.27 2.395-.808.652-.537.98-1.242.98-2.112zM483.832 21.16h32.724c3.708 0 6.878 1.148 9.505 3.438 2.628 2.292 3.94 5.033 3.94 8.224 0 1.352-.213 2.61-.633 3.775-.42 1.166-1.035 2.28-1.832 3.344 2.13 2.14 3.19 4.67 3.19 7.59v11.726h-10.04V47.522c0-.74-.287-1.4-.85-1.977a3.238 3.238 0 0 0-2.037-.988h-23.926v14.7h-10.04V21.16zm33.06 8.8h-23.02v5.798h23.02c.94 0 1.734-.285 2.388-.855.66-.57.99-1.26.99-2.075 0-.773-.33-1.444-.99-2.013-.654-.57-1.45-.855-2.387-.855zM544.112 47.538c0 .746.37 1.418 1.093 2.018.732.602 1.47.9 2.22.9h26.823v8.8h-26.805c-3.662 0-6.806-1.148-9.433-3.446-2.627-2.296-3.94-5.046-3.94-8.247V32.855c0-3.2 1.314-5.95 3.94-8.247 2.627-2.297 5.77-3.446 9.433-3.446h26.384v8.8h-26.403c-.938 0-1.728.274-2.36.824-.636.55-.953 1.23-.953 2.043v2.93h28.52v8.798h-28.52v2.98zM31.636 75.568c-.5-1.74-2.078-3.13-4.653-3.13-2.326 0-3.71.993-3.738 2.783-.055 3.926 11.243 2.932 11.243 8.697 0 2.607-1.633 5.266-6.73 5.266-4.375 0-6.09-2.534-7.144-4.67l2.022-.647c.803 1.89 2.3 3.628 5.234 3.628 2.936 0 4.403-1.393 4.403-3.23 0-4.573-11.244-3.23-11.244-8.895 0-2.585 2.41-4.62 6.01-4.62 3.1 0 5.538 1.465 6.59 4.42l-1.994.398zM44.707 89.184c-3.933 0-5.9-2.98-5.9-6.71 0-3.725 1.967-6.706 5.9-6.706 3.933 0 5.9 2.98 5.9 6.707 0 3.728-1.968 6.71-5.9 6.71zm0-11.876c-2.382 0-3.904 1.84-3.904 5.168 0 3.33 1.523 5.17 3.904 5.17s3.905-1.84 3.905-5.17-1.524-5.168-3.905-5.168zM55.7 93.705v-17.69h1.995v1.516h.055c.748-.968 2.354-1.763 3.74-1.763 2.546 0 5.898 1.54 5.898 6.707 0 5.02-3.352 6.71-5.788 6.71-1.358 0-2.687-.623-3.795-1.442l-.11-.05v6.013H55.7zm1.996-7.85c1.08 1.067 2.436 1.79 3.628 1.79 2.326 0 4.07-1.37 4.07-5.27 0-3.278-1.58-5.067-4.07-5.067-1.275 0-2.217.496-3.628 1.74v6.807zM77.22 89.184c-3.933 0-5.9-2.98-5.9-6.71 0-3.725 1.967-6.706 5.9-6.706 3.933 0 5.9 2.98 5.9 6.707 0 3.728-1.967 6.71-5.9 6.71zm0-11.876c-2.383 0-3.905 1.84-3.905 5.168 0 3.33 1.523 5.17 3.905 5.17 2.38 0 3.905-1.84 3.905-5.17s-1.524-5.168-3.905-5.168zM87.715 76.016h1.994v2.56h.054c1.108-1.766 2.3-2.76 4.68-2.76v1.79c-2.49.05-3.793 1.514-4.735 4.173v7.154h-1.995V76.016zM99.484 76.016v-4.25h1.994v4.25h3.322v1.54h-3.322v9.192c0 .597.47.896 1.634.896.664 0 1.245-.05 1.772-.124v1.465c-.36.1-1.164.2-2.327.2-2.16 0-3.074-.5-3.074-2.138v-9.49H97.13v-1.54h2.354zM120.394 86.177c-.942 1.467-2.27 3.006-5.54 3.006-3.212 0-6.258-1.988-6.258-6.71 0-4.172 2.326-6.706 5.87-6.706 2.992 0 5.485 1.74 5.485 5.862v1.192h-9.36c0 2.832 1.885 4.82 4.266 4.82 1.772 0 3.157-.846 3.988-2.187l1.55.722zm-2.437-4.893c0-2.386-1.274-3.976-3.434-3.976-2.41 0-3.71 1.59-3.877 3.976h7.31zM145.955 86.177c-.942 1.467-2.27 3.006-5.54 3.006-3.212 0-6.258-1.988-6.258-6.71 0-4.172 2.326-6.706 5.87-6.706 2.992 0 5.485 1.74 5.485 5.862v1.192h-9.36c0 2.832 1.884 4.82 4.265 4.82 1.772 0 3.157-.846 3.988-2.187l1.55.722zm-2.437-4.893c0-2.386-1.274-3.976-3.434-3.976-2.41 0-3.71 1.59-3.877 3.976h7.31zM152.988 76.016v1.738h.056c1.135-1.142 2.63-1.987 4.265-1.987 2.13 0 4.153.993 4.153 3.776v9.39h-1.993v-9.34c0-1.715-.914-2.286-2.354-2.286-1.496 0-3.213 1.094-4.127 1.964v9.665h-1.994v-12.92h1.992zM188.05 75.568c-.5-1.74-2.08-3.13-4.654-3.13-2.326 0-3.71.993-3.738 2.783-.055 3.926 11.243 2.932 11.243 8.697 0 2.607-1.632 5.266-6.728 5.266-4.376 0-6.093-2.534-7.145-4.67l2.02-.647c.805 1.89 2.3 3.628 5.236 3.628s4.403-1.393 4.403-3.23c0-4.573-11.244-3.23-11.244-8.895 0-2.585 2.41-4.62 6.01-4.62 3.1 0 5.538 1.465 6.59 4.42l-1.993.398zM201.12 89.184c-3.933 0-5.9-2.98-5.9-6.71 0-3.725 1.967-6.706 5.9-6.706 3.933 0 5.9 2.98 5.9 6.707 0 3.728-1.967 6.71-5.9 6.71zm0-11.876c-2.383 0-3.905 1.84-3.905 5.168 0 3.33 1.522 5.17 3.905 5.17 2.38 0 3.904-1.84 3.904-5.17s-1.523-5.168-3.904-5.168zM212.862 88.935v-11.38h-2.437v-1.54h2.437V74.55c0-3.055 1.163-3.8 3.517-3.8.58 0 1.19.073 1.77.122v1.59c-.47-.048-.996-.174-1.438-.174-1.358 0-1.856.397-1.856 1.84v1.888h3.13v1.54h-3.13v11.38h-1.994zM223.386 76.016v-4.25h1.994v4.25h3.323v1.54h-3.323v9.192c0 .597.47.896 1.634.896.664 0 1.245-.05 1.772-.124v1.465c-.36.1-1.164.2-2.327.2-2.16 0-3.075-.5-3.075-2.138v-9.49h-2.354v-1.54h2.356zM231.83 76.016h2.023l2.907 9.937h.056l2.825-9.937h2.022l2.88 9.986h.056l2.797-9.986h2.022l-3.85 12.92h-2.02l-2.88-9.99h-.057l-2.852 9.99h-2.022l-3.905-12.92zM253.073 78.5c.913-1.49 2.686-2.732 5.4-2.732 2.437 0 4.986 1.043 4.986 3.875v6.51c0 1.416.137 2.112.33 2.783h-2.05l-.22-1.79c-.997.995-2.604 2.04-4.764 2.04-2.216 0-4.098-1.194-4.098-3.554 0-2.833 2.41-4.248 8.807-5.266v-.696c0-1.714-1.247-2.36-2.963-2.36-2.216 0-3.296 1.143-3.684 2.013l-1.745-.823zm8.39 3.453c-4.568.72-6.812 1.913-6.812 3.702 0 1.192 1.276 1.988 2.384 1.988 1.44 0 3.268-.945 4.43-2.137v-3.553zM268.913 76.016h1.994v2.56h.055c1.107-1.766 2.3-2.76 4.68-2.76v1.79c-2.492.05-3.794 1.514-4.735 4.173v7.154h-1.994V76.016zM290.735 86.177c-.94 1.467-2.27 3.006-5.538 3.006-3.213 0-6.26-1.988-6.26-6.71 0-4.172 2.327-6.706 5.872-6.706 2.99 0 5.482 1.74 5.482 5.862v1.192h-9.36c0 2.832 1.883 4.82 4.265 4.82 1.772 0 3.157-.846 3.988-2.187l1.55.722zm-2.436-4.893c0-2.386-1.275-3.976-3.435-3.976-2.41 0-3.71 1.59-3.877 3.976h7.31zM306.384 88.935V70.998h2.213v16.247h9.472v1.69h-11.686zM325.27 70.75v2.136h-1.994V70.75h1.993zm-1.994 5.266h1.993v12.92h-1.994v-12.92zM334.187 70.998v6.26l.11-.05c1.11-.82 2.44-1.44 3.796-1.44 2.436 0 5.788 1.69 5.788 6.708 0 5.17-3.35 6.71-5.898 6.71-1.718 0-2.99-.647-4.154-1.616l-.36 1.366h-1.385c.165-.945.11-1.89.11-2.834V70.998h1.994zm0 14.906c1.413 1.242 2.354 1.74 3.628 1.74 2.492 0 4.072-1.79 4.072-5.07 0-3.9-1.745-5.266-4.072-5.266-1.192 0-2.547.72-3.628 1.79v6.806zM348.727 76.016h1.993v2.56h.056c1.106-1.766 2.298-2.76 4.678-2.76v1.79c-2.49.05-3.793 1.514-4.734 4.173v7.154h-1.993V76.016zM370.55 86.177c-.942 1.467-2.272 3.006-5.54 3.006-3.212 0-6.26-1.988-6.26-6.71 0-4.172 2.327-6.706 5.87-6.706 2.994 0 5.486 1.74 5.486 5.862v1.192h-9.36c0 2.832 1.883 4.82 4.263 4.82 1.773 0 3.157-.846 3.988-2.187l1.55.722zm-2.44-4.893c0-2.386-1.272-3.976-3.43-3.976-2.412 0-3.712 1.59-3.88 3.976h7.31zM395.057 76.016l-5.066 14.06c-1.05 2.883-2.963 3.63-4.848 3.63-.664 0-1.05-.1-1.44-.15V92.09c.28.024.638.075 1.08.075 1.22 0 3.075-.25 3.767-3.082l-5.015-13.067h2.106l3.877 9.862h.056l3.378-9.862h2.107zM416.436 70.75c4.903 0 7.81 3.228 7.81 9.217 0 5.987-2.907 9.217-7.81 9.217-4.9 0-7.81-3.23-7.81-9.217 0-5.99 2.91-9.218 7.81-9.218zm0 16.744c3.517 0 5.594-2.435 5.594-7.527 0-5.094-2.077-7.528-5.594-7.528-3.517 0-5.594 2.434-5.594 7.527s2.077 7.527 5.594 7.527zM429.758 93.705v-17.69h1.994v1.516h.056c.747-.968 2.354-1.763 3.738-1.763 2.547 0 5.9 1.54 5.9 6.707 0 5.02-3.353 6.71-5.79 6.71-1.358 0-2.685-.623-3.794-1.442l-.11-.05v6.013h-1.994zm1.993-7.85c1.08 1.067 2.44 1.79 3.63 1.79 2.327 0 4.07-1.37 4.07-5.27 0-3.278-1.578-5.067-4.07-5.067-1.274 0-2.216.496-3.63 1.74v6.807zM457.257 86.177c-.94 1.467-2.27 3.006-5.536 3.006-3.213 0-6.26-1.988-6.26-6.71 0-4.172 2.33-6.706 5.873-6.706 2.99 0 5.482 1.74 5.482 5.862v1.192h-9.36c0 2.832 1.883 4.82 4.266 4.82 1.772 0 3.157-.846 3.988-2.187l1.55.722zm-2.436-4.893c0-2.386-1.272-3.976-3.433-3.976-2.41 0-3.71 1.59-3.878 3.976h7.31zM464.292 76.016v1.738h.054c1.136-1.142 2.632-1.987 4.263-1.987 2.136 0 4.156.993 4.156 3.776v9.39h-1.995v-9.34c0-1.715-.912-2.286-2.352-2.286-1.498 0-3.214 1.094-4.127 1.964v9.665h-1.994v-12.92h1.996zM499.35 75.568c-.5-1.74-2.075-3.13-4.65-3.13-2.328 0-3.714.993-3.738 2.783-.058 3.926 11.24 2.932 11.24 8.697 0 2.607-1.633 5.266-6.727 5.266-4.377 0-6.095-2.534-7.145-4.67l2.02-.647c.803 1.89 2.3 3.628 5.236 3.628 2.933 0 4.402-1.393 4.402-3.23 0-4.573-11.243-3.23-11.243-8.895 0-2.585 2.407-4.62 6.008-4.62 3.102 0 5.538 1.465 6.592 4.42l-1.995.398zM512.424 89.184c-3.933 0-5.9-2.98-5.9-6.71 0-3.725 1.967-6.706 5.9-6.706 3.933 0 5.9 2.98 5.9 6.707 0 3.728-1.967 6.71-5.9 6.71zm0-11.876c-2.382 0-3.907 1.84-3.907 5.168 0 3.33 1.525 5.17 3.907 5.17s3.904-1.84 3.904-5.17-1.522-5.168-3.904-5.168zM531.917 88.935v-1.74h-.053c-1.137 1.142-2.63 1.988-4.265 1.988-2.134 0-4.158-.994-4.158-3.776v-9.39h1.995v9.34c0 1.714.912 2.286 2.353 2.286 1.496 0 3.214-1.094 4.127-1.963v-9.665h1.995v12.92h-1.995zM539.953 76.016h1.992v2.56h.058c1.107-1.766 2.298-2.76 4.678-2.76v1.79c-2.49.05-3.794 1.514-4.735 4.173v7.154h-1.992V76.016zM559.28 79.866c-.555-1.565-1.69-2.56-3.407-2.56-2.463 0-3.907 1.89-3.907 5.17 0 3.28 1.444 5.168 3.907 5.168 1.827 0 2.852-.547 3.958-2.386l1.61.646c-1.442 2.187-2.715 3.28-5.567 3.28-3.6 0-5.9-2.534-5.9-6.71 0-4.172 2.3-6.706 5.9-6.706 2.962 0 4.348 1.49 5.26 3.504l-1.853.594zM577.255 86.177c-.94 1.467-2.273 3.006-5.538 3.006-3.214 0-6.26-1.988-6.26-6.71 0-4.172 2.327-6.706 5.87-6.706 2.99 0 5.484 1.74 5.484 5.862v1.192h-9.36c0 2.832 1.882 4.82 4.267 4.82 1.772 0 3.156-.846 3.987-2.187l1.55.722zm-2.438-4.893c0-2.386-1.275-3.976-3.435-3.976-2.407 0-3.71 1.59-3.875 3.976h7.31z"/></svg>