<svg xmlns="http://www.w3.org/2000/svg" viewBox="0 0 600 400"><path fill="#2E2A25" d="M391.114 238.176c2.326-6.71 8.395-10.478 12.547-15.752 21.76-27.638 24.7-57.912 7.076-92.51-5.545-10.884-15.626-19.05-27.19-23.114-14.652-5.15-28.39.78-32.143 18.055-2.497 11.496-1.093 23.174.185 34.788 2.838 25.79 6.31 51.59 2.67 77.59-.944 6.738-2.076 13.554-4.132 20.013-4.666 14.662-18.508 24.36-34.07 25.482-7.988.575-15.89 1.223-23.905.443-9.323-.906-17.5-5.036-25.965-8.456-16.368-6.612-32.068-14.406-46.772-24.286-17.15-11.522-29.17-26.785-38.057-45.454-5.223-10.97-7.884-21.78-7.113-33.56 1.238-18.915 7.49-35.856 19.38-50.955 12.207-15.502 28.01-26.046 44.92-35.347 1.25-.688 2.562-2.237 4.664-1.113-.98 2.597-3.173 3.863-5.392 4.746-5.775 2.297-10.59 6.192-15.93 9.2-10.44 5.876-17.15 15.614-24.17 24.734-14.953 19.425-20.788 41.326-15.576 65.744 4.02 18.835 14.95 33.195 28.428 46.306 7.957 7.74 17.182 10.89 27.797 11.1 9.893.198 15.922-4.48 18.215-14.06 2.512-10.494.706-20.89-1.32-31.188-.688-3.504-3.805-5.765-6.28-8.222-6.845-6.796-7.833-11.803-2.808-20.01 2.598-4.243 3.41-8.506 3.318-13.25-.187-9.493-.395-18.99-.323-28.482.05-6.644 1.77-12.82 4.102-19.21 4.953-13.576 13.548-23.502 25.524-30.938 7.24-4.495 15.182-6.7 23.687-6.69 17.978.016 35.098 3.818 50.647 12.977 8.29 4.883 17.564 6.954 26.245 10.67 10.1 4.326 19.946 8.784 28.465 16.03 20.124 17.115 26.385 38.747 21.664 64.095-2.013 10.812-4.8 21.438-10.946 30.8-2.06 3.138-4.183 6.294-6.695 9.062-5.844 6.44-9.288 14.987-17.255 19.576-1.168.673-2.08 1.68-3.572 1.11l.08.076zm-89.035 9.808v-.234c10.97 0 21.94.016 32.91-.01 2.76-.008 5.314-1.048 5.298-4.048-.017-3.126-2.885-3.116-5.26-3.117-21.11-.01-42.218-.025-63.327.01-2.897.005-6.265.24-6.16 4.094.1 3.788 3.565 3.26 6.13 3.277 10.135.066 20.272.027 30.41.027zm-1.235-127.45v-.356c8.977 0 17.953.024 26.93-.016 2.433-.01 5.47.335 5.65-3.16.184-3.648-3.025-3.572-5.395-3.575-18.283-.023-36.566.09-54.85.173-2.283.01-4.715.34-4.6 3.255.11 2.776 2.16 3.732 4.88 3.71 9.128-.078 18.257-.03 27.385-.03zm-1.763 64.778c9.33 0 18.657-.003 27.986.002 2.297 0 4.703-.288 4.842-3.09.145-2.913-2.326-3.293-4.578-3.357-18.656-.53-37.313-.385-55.967.115-2.15.058-4.862.034-4.905 2.98-.047 3.238 2.8 3.296 5.132 3.313 9.163.065 18.327.026 27.49.037zM401.78 295.5c-6.157 6.446-13.745 9.093-22.59 9.08-48.403-.073-96.808-.042-145.212-.01-8.794.005-16.81-1.773-22.655-9.044a4504.436 4504.436 0 0 0-4.286-7.162c2.486-.093 4.97-.267 7.457-.268 62.39-.02 124.778-.023 187.167-.014 1.49 0 2.98.17 4.46.26-1.456 2.385-2.898 4.772-4.34 7.16zM400.37 65.15H213.076c6.114-5.53 12.503-7.867 19.626-7.877 49.105-.07 98.21-.044 147.313-.017 7.32.004 13.67 2.615 20.358 7.893zM437.366 254.095c-.098-1.32-.28-2.643-.282-3.964-.017-43.267-.025-86.535.02-129.804.002-1.555-.643-3.307 1.018-5.08 5.544 5.863 8 12.66 7.973 20.566-.067 20.635-.03 41.27-.033 61.907-.002 11.98-.04 23.963.013 35.945.027 6.084-1.793 11.6-4.77 16.803-1.31 1.207-2.624 2.417-3.94 3.627zM167.915 115.56v137.08c-1.38.745-2.178-.294-2.733-1.196-3.183-5.162-5.366-10.595-5.35-16.86.09-33.157.09-66.313.04-99.47-.013-7.182 2.366-13.285 8.043-19.555z"/><path fill="#2E2A25" d="M437.366 254.095l3.94-3.627c2.262-.476 2.475 1.014 2.48 2.636.025 7.465.542 14.945-1.148 22.334-3.232 14.13-12.94 21.02-26.548 21.32-4.723.102-9.815 1.938-14.32-1.254 1.45-2.39 2.893-4.778 4.347-7.162 3.81-.058 7.616-.004 11.41-.2 12.328-.632 18.895-8.003 19.7-20.168.303-4.61.107-9.25.14-13.88zM207.036 288.364c1.432 2.39 2.863 4.778 4.286 7.162-12.465 1.01-24.902 2.097-35.43-6.96-1.86-1.6-2.84-3.42-3.364-6.074 8.635 7.92 19.106 5.315 29.027 5.71 1.827.07 3.655.108 5.48.162zM387.052 242.104c-2.246 5.737-7.09 8.1-12.457 9.782 3.856-3.653 7.578-7.486 12.52-9.718-.002 0-.063-.064-.063-.064z"/><path fill="#2E2A25" d="M391.03 238.1c.092 2.745-1.446 3.87-3.978 4.005l.062.064c.117-2.552 1.72-3.612 4-3.993l-.083-.076z"/><g fill="#010101"><path d="M139.874 337.174a8.632 8.632 0 0 0 4.368 1.23c2.492 0 3.948-1.314 3.948-3.22 0-1.763-1.008-2.77-3.556-3.75-3.08-1.093-4.984-2.69-4.984-5.35 0-2.94 2.436-5.123 6.104-5.123 1.932 0 3.332.45 4.172.925l-.672 1.988a7.516 7.516 0 0 0-3.584-.896c-2.576 0-3.556 1.54-3.556 2.828 0 1.764 1.148 2.632 3.752 3.64 3.192 1.232 4.816 2.772 4.816 5.544 0 2.91-2.156 5.432-6.608 5.432-1.82 0-3.808-.532-4.816-1.204l.616-2.044zM166.362 333.254c0 5.012-3.472 7.195-6.748 7.195-3.668 0-6.496-2.69-6.496-6.973 0-4.536 2.968-7.196 6.72-7.196 3.89 0 6.524 2.83 6.524 6.974zm-10.752.14c0 2.968 1.708 5.208 4.116 5.208 2.352 0 4.116-2.212 4.116-5.264 0-2.296-1.148-5.208-4.06-5.208s-4.172 2.687-4.172 5.264zM180.81 336.445c0 1.4.028 2.632.112 3.696h-2.184l-.14-2.21h-.056c-.644 1.09-2.072 2.52-4.48 2.52-2.128 0-4.676-1.177-4.676-5.937v-7.924h2.464v7.503c0 2.576.784 4.312 3.024 4.312 1.652 0 2.8-1.147 3.248-2.24.14-.363.224-.81.224-1.26v-8.315h2.464v9.855zM187.866 322.697v3.893h3.528v1.876h-3.528v7.308c0 1.68.476 2.632 1.848 2.632a5.48 5.48 0 0 0 1.428-.168l.112 1.85c-.476.194-1.232.335-2.184.335-1.148 0-2.072-.364-2.66-1.036-.7-.73-.952-1.932-.952-3.528v-7.393h-2.1v-1.876h2.1v-3.247l2.408-.646zM194.166 320.262h2.464v8.456h.056a4.572 4.572 0 0 1 1.764-1.736c.728-.42 1.596-.7 2.52-.7 1.82 0 4.732 1.12 4.732 5.796v8.064h-2.464v-7.784c0-2.184-.812-4.032-3.136-4.032-1.596 0-2.856 1.12-3.304 2.465-.14.337-.168.7-.168 1.177v8.176h-2.464v-19.88zM218.16 323.342h-5.74v-2.072h13.973v2.072h-5.768v16.8h-2.464v-16.8zM227.793 333.813c.056 3.332 2.184 4.704 4.648 4.704 1.765 0 2.83-.308 3.753-.7l.42 1.765c-.868.392-2.352.84-4.508.84-4.172 0-6.664-2.744-6.664-6.832s2.41-7.31 6.357-7.31c4.424 0 5.6 3.894 5.6 6.386 0 .504-.056.896-.084 1.147h-9.52zm7.224-1.763c.028-1.568-.644-4.004-3.416-4.004-2.49 0-3.583 2.296-3.78 4.004h7.197zM250.11 339.638c-.645.336-2.073.784-3.893.784-4.088 0-6.748-2.772-6.748-6.916 0-4.172 2.855-7.196 7.28-7.196 1.455 0 2.743.364 3.415.7l-.56 1.904c-.588-.336-1.512-.645-2.856-.645-3.11 0-4.79 2.295-4.79 5.123 0 3.136 2.017 5.068 4.705 5.068 1.4 0 2.324-.363 3.024-.67l.42 1.848zM252.993 330.258c0-1.4-.028-2.548-.112-3.668h2.185l.14 2.24h.057c.672-1.288 2.24-2.55 4.48-2.55 1.875 0 4.787 1.12 4.787 5.77v8.092h-2.465v-7.812c0-2.185-.812-4.005-3.136-4.005-1.625 0-2.885 1.148-3.305 2.52-.112.31-.168.73-.168 1.148v8.148h-2.464v-9.882zM280.796 333.254c0 5.012-3.472 7.195-6.748 7.195-3.668 0-6.495-2.69-6.495-6.973 0-4.536 2.968-7.196 6.72-7.196 3.89 0 6.523 2.83 6.523 6.974zm-10.752.14c0 2.968 1.708 5.208 4.116 5.208 2.353 0 4.116-2.212 4.116-5.264 0-2.296-1.148-5.208-4.06-5.208-2.91 0-4.172 2.687-4.172 5.264zM283.904 320.262h2.464v19.88h-2.464v-19.88zM302.776 333.254c0 5.012-3.472 7.195-6.748 7.195-3.668 0-6.495-2.69-6.495-6.973 0-4.536 2.968-7.196 6.72-7.196 3.892 0 6.523 2.83 6.523 6.974zm-10.752.14c0 2.968 1.708 5.208 4.116 5.208 2.353 0 4.116-2.212 4.116-5.264 0-2.296-1.148-5.208-4.06-5.208-2.91 0-4.172 2.687-4.172 5.264zM317.56 326.59c-.056.98-.11 2.072-.11 3.724v7.868c0 3.108-.617 5.012-1.934 6.188-1.315 1.232-3.22 1.624-4.928 1.624-1.624 0-3.416-.392-4.508-1.12l.616-1.875c.896.56 2.296 1.062 3.976 1.062 2.52 0 4.368-1.316 4.368-4.73v-1.514h-.057c-.756 1.26-2.212 2.27-4.312 2.27-3.36 0-5.767-2.857-5.767-6.61 0-4.59 2.995-7.195 6.104-7.195 2.352 0 3.64 1.232 4.228 2.353h.057l.11-2.044h2.158zm-2.548 5.348c0-.42-.028-.784-.14-1.12-.448-1.428-1.652-2.604-3.444-2.604-2.352 0-4.032 1.987-4.032 5.124 0 2.66 1.345 4.872 4.004 4.872 1.513 0 2.885-.952 3.416-2.52.14-.42.196-.897.196-1.316v-2.436zM322.433 326.59l2.968 8.008c.31.896.645 1.96.87 2.77h.055c.252-.81.532-1.847.868-2.826l2.688-7.952h2.605l-3.696 9.66c-1.765 4.647-2.97 7.027-4.648 8.483-1.204 1.064-2.408 1.484-3.024 1.596l-.616-2.072a6.518 6.518 0 0 0 2.156-1.204c.672-.532 1.512-1.484 2.072-2.744.11-.252.195-.448.195-.588s-.056-.336-.168-.645l-5.012-12.487h2.688zM352.363 320.262v16.38c0 1.204.028 2.576.112 3.5h-2.212l-.112-2.352h-.056c-.756 1.512-2.407 2.66-4.62 2.66-3.275 0-5.795-2.772-5.795-6.89-.03-4.507 2.77-7.28 6.074-7.28 2.072 0 3.473.98 4.088 2.073h.057v-8.092h2.463zm-2.464 11.843c0-.308-.03-.728-.113-1.036-.364-1.568-1.708-2.856-3.556-2.856-2.547 0-4.06 2.24-4.06 5.235 0 2.743 1.345 5.012 4.004 5.012 1.652 0 3.164-1.093 3.612-2.94.084-.336.112-.672.112-1.063v-2.355zM357.823 333.813c.056 3.332 2.184 4.704 4.647 4.704 1.765 0 2.828-.308 3.753-.7l.42 1.765c-.868.392-2.353.84-4.51.84-4.17 0-6.662-2.744-6.662-6.832s2.408-7.31 6.356-7.31c4.424 0 5.6 3.894 5.6 6.386 0 .504-.056.896-.084 1.147h-9.52zm7.224-1.763c.028-1.568-.644-4.004-3.416-4.004-2.49 0-3.583 2.296-3.778 4.004h7.195zM376.5 321.52c1.063-.223 2.743-.39 4.45-.39 2.437 0 4.005.42 5.18 1.37.98.73 1.57 1.85 1.57 3.333 0 1.82-1.205 3.416-3.193 4.144v.056c1.792.448 3.893 1.933 3.893 4.732 0 1.624-.645 2.856-1.597 3.78-1.315 1.204-3.443 1.764-6.523 1.764-1.68 0-2.968-.113-3.78-.225V321.52zm2.436 7.73h2.212c2.575 0 4.088-1.345 4.088-3.164 0-2.212-1.68-3.08-4.145-3.08-1.12 0-1.763.084-2.154.168v6.076zm0 9.044c.476.084 1.176.11 2.044.11 2.52 0 4.844-.923 4.844-3.667 0-2.575-2.212-3.64-4.872-3.64h-2.016v7.197zM403.966 333.254c0 5.012-3.472 7.195-6.748 7.195-3.668 0-6.495-2.69-6.495-6.973 0-4.536 2.968-7.196 6.72-7.196 3.89 0 6.523 2.83 6.523 6.974zm-10.752.14c0 2.968 1.708 5.208 4.116 5.208 2.353 0 4.116-2.212 4.116-5.264 0-2.296-1.148-5.208-4.06-5.208-2.91 0-4.172 2.687-4.172 5.264zM407.074 320.262h2.464v19.88h-2.464v-19.88zM416.427 322.78c.028.842-.588 1.514-1.568 1.514-.87 0-1.484-.672-1.484-1.513 0-.866.644-1.54 1.54-1.54.923 0 1.51.674 1.51 1.54zm-2.744 17.362V326.59h2.464v13.552h-2.464zM421.187 326.59l2.66 7.616c.447 1.23.812 2.352 1.092 3.472h.083c.308-1.12.7-2.24 1.147-3.472l2.633-7.616h2.575l-5.32 13.552h-2.352l-5.15-13.552h2.63zM436.446 322.78c.028.842-.588 1.514-1.568 1.514-.868 0-1.483-.672-1.483-1.513 0-.866.644-1.54 1.54-1.54.923 0 1.51.674 1.51 1.54zm-2.744 17.362V326.59h2.464v13.552h-2.464zM447.758 340.142l-.196-1.708h-.084c-.756 1.064-2.212 2.016-4.144 2.016-2.744 0-4.144-1.932-4.144-3.892 0-3.276 2.91-5.068 8.147-5.04v-.28c0-1.12-.308-3.136-3.08-3.136-1.26 0-2.576.392-3.528 1.008l-.56-1.624c1.12-.728 2.743-1.204 4.45-1.204 4.145 0 5.152 2.828 5.152 5.544v5.068c0 1.176.057 2.324.225 3.248h-2.24zm-.364-6.916c-2.688-.056-5.74.42-5.74 3.052 0 1.597 1.064 2.353 2.324 2.353 1.765 0 2.885-1.12 3.276-2.268.084-.252.14-.53.14-.784v-2.352zM459.35 337.622c.728.476 2.016.98 3.248.98 1.792 0 2.632-.897 2.632-2.017 0-1.177-.7-1.82-2.52-2.492-2.437-.868-3.584-2.212-3.584-3.836 0-2.185 1.764-3.977 4.676-3.977 1.372 0 2.576.393 3.332.84l-.616 1.793a5.274 5.274 0 0 0-2.772-.784c-1.455 0-2.268.84-2.268 1.847 0 1.12.812 1.624 2.576 2.296 2.352.896 3.556 2.072 3.556 4.088 0 2.38-1.848 4.062-5.067 4.062-1.484 0-2.856-.364-3.81-.924l.617-1.876zM469.878 338.686c0-1.036.7-1.764 1.68-1.764s1.652.728 1.652 1.764c0 1.008-.645 1.764-1.68 1.764-.98 0-1.652-.757-1.652-1.764zM476.26 330.817c0-1.596-.027-2.968-.11-4.228h2.155l.084 2.66h.11c.617-1.82 2.1-2.97 3.753-2.97.28 0 .476.028.7.084v2.324a3.705 3.705 0 0 0-.84-.084c-1.736 0-2.97 1.316-3.305 3.164-.056.336-.11.73-.11 1.148v7.224h-2.438v-9.323zM483.345 338.686c0-1.036.7-1.764 1.68-1.764s1.652.728 1.652 1.764c0 1.008-.645 1.764-1.68 1.764-.98 0-1.652-.757-1.652-1.764zM489.73 320.262h2.463v19.88h-2.464v-19.88z"/></g></svg>