<svg xmlns="http://www.w3.org/2000/svg" viewBox="0 0 2852 1418"><path d="M1432 5c-67 3-111 50-128 79-7 12-16 31-19 57.1v1c-12 28-9 74 41 139.3 3 1 4 1 6 2 5 8 11 15 17 23-7 3-15 6-23 9l-1-3-27 9 3 6c-18 9-36 20-49 37-7-1-13 0-18 3-8-2-34-10-36-3s-1 9 3 12c2 1 10 4 17 6-12 5-26-2-31 10 0 8 7 8 12 8 6 0 10 2 16 4-10 9-21 20-18 25 5 9 11 4 16 2 7-3 10-3 17-4-6 11-11 25-6 28 7 5 11-1 15-5 8-10 10-19 23-24 3 4 8 12 10 14 3 5 18 9 14-6-2-11-3-24-3-31 0-4 0-8-1-12 24-20 57-32 74-27 3 8 5 15 7 21-5 9-7 21-7 33-1 4-1 9-1 14 1 11 4 21 8 30l-4-1c-17-8-32-17-54-11-14 4-39 36-59 62-16-32-49-53-86-51-25 1-48 12-64 30-15 18-23 43-22 68 1 26 11 49 27 66 15 15 32 24 53 32 18 21 36 38 67 45 3 1 6 2 8 1 42-2 78-35 77-80 10-50 37-80 63-92l14-3v-1c25-6 48 4 56 25-7 15-11 28-8 42l2 16h4c9 18 28 40 62 73h-1l3 1c10 21-48 38-46 69 1 5 3 10 6 15 3 3 9 17 18 19 8 2 19 3 29 4 10 0 21 0 29-1 9-1 22-6 26-8 13-7 21-29 19-44-1-10-7-19-5-30s6-26-11-40c-12-8-22-33-28-56h2v-19h-5c-1-5-1-10-1-14 2-30 15-26 34-78 3-12 5-26 4-42h3l-4-41h-4c-5-24-12-49-21-76 28 3 65 12 107 38-6 9-14 23-24 34-14 17 7 21 14 17 3-2 14-9 20-10 13 13 9 27 13 43 2 7 2 17 15 15 7 0 9-20 10-36 7 5 12 7 17 15 5 6 10 15 22 8 6-4 0-24-7-41 9 1 14 2 22 6 6 1 15 7 20-3 1-17-21-19-32-31 10 1 22 2 25 2 7 0 9-2 12-12 2-9-34-17-45-19-9-11-22-19-37-20-23-29-49-47-74-57l2-6-36-9v4c-22-4-41-4-52-2 33-33.3 54-67.3 54-121.3C1592 78 1520 8 1446 5h-14zm-67 130.1c49 0 102 8 117 18 92 57 4 119.3-15 126.3-19 8-109 6-120 3 0 0-4-1-12-4-47-63.3-50-106.3-39-134.3 16-6 45-8 69-9zM85.4 1116c-21.1 0-38.5 6-52.2 18-15.3 13-22.9 32-22.9 55 0 25 11.6 45 34.7 58 21.4 10 42.7 20 64.1 29 23.2 12 34.7 30 34.7 52 0 19-5.6 33-17.2 43-10.1 9-23.5 13-40 13-19.6 0-38-5-55.3-16-4.6-3-9-4-13.4-4-8.6 0-12.9 4-12.9 13 0 6 3.4 12 10.3 16 19.5 13 41.4 20 65.6 20 25.9 0 47.5-7 64.8-22 19.1-16 28.6-37 28.6-65s-11.6-51-35.1-68c-3.8-2-25.5-14-65.2-33-23.4-11-35.1-24-35.1-39 0-13 4.7-24 14.1-31 8.4-7 19.2-10 32.4-10 17.3 0 32.3 5 45 14 5.1 4 10 6 14.5 6 7.9 0 11.9-4 11.9-12 0-6-3.6-12-10.7-17-18.1-13-38.3-20-60.7-20zm1001.6 0c-34 2-62 16-86 42-25.5 28-38.5 63-38.5 106 0 45 14 82 41.5 110 26 26 56 38 91 38 31 0 59-10 82-32 5-4 7-8 7-13 0-4-1-7-4-10-2-2-5-4-9-4s-7 2-10 5c-17 17-38 25-62 25-27 0-50-10-69-30-21-22-32.5-52-32.5-88 0-37 11.5-67 32.5-89 20-21 43-31 70-31 24 0 44 8 61 25 3 3 6 4 10 4s7-1 9-3c3-3 4-6 4-10 0-5-2-9-7-14-23-20-48-31-78-31h-12zm797 8c-9 0-14 5-16 16l-39 233-61-234c-3-9-9-14-20-14s-18 5-20 14l-65 234-39-234c-2-9-7-14-15-14-5 0-8 2-11 5s-4 7-3 12l43 249c2 11 9 17 22 17s22-7 25-20l63-223 63 230c2 9 9 13 20 13 13 0 21-6 24-20l44-246c1-5 0-9-3-13-3-3-7-5-12-5zm-1540.4 1c-10.5 0-15.7 5-15.7 15v254c0 9 4.7 14 14.1 14 9.2 0 13.8-5 13.8-14v-97h63.3c26.2 0 47-9 62.5-26 14-17 21-36 21-59 0-24-7.4-44-22.1-60-16.5-18-39-27-67.5-27h-69.4zm2065.4 0c-9 0-14 5-14 14v247c0 15 6 22 19 22h82c9 0 14-5 14-14s-5-14-14-14h-73v-241c0-9-5-14-14-14zm258 0c-9 0-14 4-14 12v259c0 8 5 12 15 12 9 0 13-4 13-12v-124l138 130c4 4 8 5 13 5 4 0 8-1 10-4 3-3 5-6 5-10 0-3-2-7-5-10l-136-123 129-110c3-3 4-6 4-9 0-4-2-7-5-10-3-4-7-5-11-5-3 0-6 1-9 3l-133 115v-107c0-8-4-12-14-12zm-1948.7 1c-10.5 0-17.8 5-22.2 17l-86.2 244c-1 3-1.5 6-1.5 8 0 9 4.1 13 12.2 13 8.2 0 13.9-5 17.2-15l14.1-42h135l17.6 48c2 6 7 9 14 9 8 0 13-4 13-13 0-2-1-5-2-8l-89.1-244c-4.3-12-11.7-17-22.1-17zm615.7 0c-11 0-16 5-16 17v248c0 7 1 11 3 13 2 3 6 4 13 4h100c11 0 16-5 16-14s-5-14-16-14h-88v-105h82c9 0 14-4 14-13 0-10-5-15-14-15h-82v-94h85c9 0 14-4 14-13 0-10-5-14-14-14h-97zm798 0c-10 0-18 5-22 17l-86 244c-1 3-2 6-2 8 0 9 4 13 12 13s14-5 18-15l14-42h135l17 48c2 6 7 9 14 9 9 0 13-4 13-13 0-2-1-5-2-8l-89-244c-4-12-12-17-22-17zm-1776.2 27h48c22.4 0 40.1 6 53 18 11.8 11 17.6 25 17.6 40 0 16-5.5 29-16.3 40-12 12-28 18-48.2 18h-54.1v-116zm362.8 12l55.7 155H661.4l57.2-155zm1413.4 0l56 155h-113l57-155z"/></svg>