<svg xmlns="http://www.w3.org/2000/svg" viewBox="0 0 592.19513 272.19513"><path d="M74.734 33.816c-18.577 0-27.862 6.798-27.862 20.36 0 11.31 6.445 16.933 19.33 16.933h15.2c9.433 0 14.15 3.895 14.15 11.627 0 11.31-7.082 16.965-21.268 16.965-8.757 0-16.764-1.113-24.034-3.403v4.87c7.27 1.93 15.277 2.9 24.034 2.9 17.576 0 26.346-7.095 26.346-21.333 0-10.955-6.393-16.46-19.228-16.46h-15.2c-9.507 0-14.25-4.045-14.25-12.1 0-10.664 7.595-15.994 22.782-15.994 7.73 0 15.262.964 22.518 2.897v-4.335c-7.256-1.962-14.787-2.93-22.518-2.93zm331.756 0c-24.22 0-36.32 11.396-36.32 34.158 0 24.047 12.1 36.096 36.32 36.096 6.61 0 13.07-.97 19.36-2.9V96.8c-6.29 1.94-12.42 2.902-18.39 2.902-21.48 0-32.22-10.572-32.22-31.728 0-19.862 10.74-29.79 32.22-29.79 5.97 0 12.1.963 18.39 2.896v-4.335c-6.29-1.962-12.75-2.93-19.36-2.93zm-232.78.5v69.254h5.11V38.825h23.63c9.93 0 14.91 4.16 14.91 12.48 0 10.02-7.76 16.23-23.26 18.66l1.36 4.162c18.39-2.96 27.56-10.694 27.56-23.203 0-11.072-6.6-16.61-19.75-16.61h-29.56zm119.74 0v69.254h5.09V34.315h-5.09zm205.72 0v69.254h46.18v-4.343h-41.07V70.64h38.75v-4.363h-38.75v-27.6h40.39v-4.362h-45.5zM314.83 142.32l-41.47 40.1-27.58-37.52v.16l-25.07 24.25-16.86-22.97v.12l-23.46 22.67 26.57 13.19 1.02-.65-.82.8 43.8 21.03 1.82-1.1-1.38 1.34 71.77 34.65 42.66-26.6-50.98-69.4z"/></svg>