<svg xmlns="http://www.w3.org/2000/svg" viewBox="0 0 217.667 68"><path d="M87.66 30.86c6.623 1.61 9.323 4.11 9.323 8.63 0 5.348-4.086 8.804-10.41 8.804-4.47 0-8.614-1.588-11.982-4.595a.355.355 0 0 1-.034-.495l2.976-3.54a.356.356 0 0 1 .506-.04c2.895 2.506 5.483 3.574 8.655 3.574 2.857 0 4.632-1.237 4.632-3.225 0-1.795-.878-2.798-6.08-3.996-6.11-1.478-9.647-3.39-9.647-8.795 0-5.04 4.1-8.56 9.968-8.56 3.99 0 7.407 1.182 10.44 3.615.146.118.176.33.067.484l-2.655 3.74a.36.36 0 0 1-.504.08c-2.548-1.9-4.978-2.822-7.43-2.822-2.528 0-4.228 1.215-4.228 3.02 0 1.91.97 2.82 6.404 4.118M111.29 25.5c-2.74 0-4.988 1.08-6.843 3.29V26.3a.356.356 0 0 0-.356-.356h-4.866a.356.356 0 0 0-.356.356v27.67c0 .195.16.355.356.355h4.867c.197 0 .357-.16.357-.356v-8.735c1.854 2.08 4.103 3.098 6.844 3.098 5.095 0 10.25-3.92 10.25-11.416S116.385 25.5 111.29 25.5m4.59 11.417c0 3.816-2.35 6.48-5.716 6.48-3.33 0-5.84-2.785-5.84-6.48 0-3.695 2.51-6.48 5.84-6.48 3.312 0 5.717 2.725 5.717 6.48M134.757 25.5c-6.56 0-11.698 5.05-11.698 11.5 0 6.378 5.102 11.375 11.616 11.375 6.583 0 11.737-5.034 11.737-11.458 0-6.402-5.12-11.418-11.656-11.418m0 17.937c-3.49 0-6.12-2.803-6.12-6.52 0-3.732 2.54-6.44 6.04-6.44 3.51 0 6.16 2.803 6.16 6.522 0 3.73-2.558 6.437-6.08 6.437M160.42 25.944c.197 0 .356.16.356.356v4.183a.355.355 0 0 1-.355.356h-5.355V40.9c0 1.59.698 2.298 2.26 2.298a6.12 6.12 0 0 0 2.856-.69.358.358 0 0 1 .517.32v3.982c0 .127-.07.247-.18.31-1.365.773-2.813 1.133-4.56 1.133-4.293 0-6.47-2.217-6.47-6.592V30.84h-2.34a.355.355 0 0 1-.354-.356V26.3c0-.196.158-.356.354-.356h2.34v-5.476c0-.196.16-.356.358-.356h4.866c.197 0 .356.16.356.356v5.476h5.355M187.395 25.965c.147 0 .28.09.333.23l5.685 14.834 5.19-14.826a.358.358 0 0 1 .337-.24h5.067a.355.355 0 0 1 .33.487l-8.444 21.82c-1.75 4.503-3.738 6.177-7.33 6.177-1.922 0-3.477-.398-5.2-1.33a.353.353 0 0 1-.152-.46l1.65-3.62a.36.36 0 0 1 .21-.192.365.365 0 0 1 .285.027c.923.505 1.826.76 2.684.76 1.06 0 1.837-.348 2.627-2.102l-6.96-16.69h-4.545v16.695c0 .197-.16.357-.356.357h-4.867a.356.356 0 0 1-.356-.357V30.84h-2.338a.36.36 0 0 1-.357-.357V26.28c0-.197.16-.357.356-.357h2.338v-1.03c0-4.786 2.376-7.318 6.872-7.318 1.847 0 3.08.295 4.045.58.152.047.253.186.253.342v4.1a.354.354 0 0 1-.468.34c-.913-.304-1.728-.506-2.742-.506-1.7 0-2.46.883-2.46 2.862v.672h8.312zM168.263 25.944c.196 0 .356.16.356.356v21.234c0 .196-.16.356-.357.356h-4.867a.357.357 0 0 1-.357-.356V26.3c0-.196.16-.356.356-.356h4.867M165.854 16.276a3.49 3.49 0 0 1 0 6.98 3.49 3.49 0 1 1 0-6.98M208.492 32.77a3.412 3.412 0 0 1-3.425-3.425 3.442 3.442 0 0 1 3.443-3.442 3.41 3.41 0 0 1 3.425 3.423 3.444 3.444 0 0 1-3.443 3.445m.018-6.527c-1.754 0-3.082 1.395-3.082 3.102 0 1.707 1.318 3.083 3.064 3.083 1.754 0 3.083-1.394 3.083-3.102 0-1.707-1.32-3.083-3.065-3.083m.76 3.435l.968 1.356h-.817l-.87-1.244h-.75v1.244h-.685V27.44h1.604c.834 0 1.384.428 1.384 1.147 0 .59-.34.95-.835 1.09m-.58-1.62h-.89v1.136h.89c.446 0 .71-.218.71-.57 0-.37-.264-.567-.71-.567M33.493 1.798c-17.386 0-31.48 14.29-31.48 31.677C2.012 49.812 14.454 63 30.38 65h6.226c15.926-2 28.368-15.188 28.368-31.526 0-17.386-14.095-31.676-31.48-31.676zM47.93 47.204a1.96 1.96 0 0 1-2.698.652c-7.393-4.518-16.697-5.538-27.655-3.035a1.96 1.96 0 0 1-2.35-1.474 1.96 1.96 0 0 1 1.476-2.35c11.992-2.74 22.278-1.56 30.576 3.51a1.964 1.964 0 0 1 .65 2.698zm3.852-8.572a2.455 2.455 0 0 1-3.375.808c-8.46-5.2-21.36-6.707-31.37-3.668a2.46 2.46 0 0 1-3.063-1.635c-.39-1.3.34-2.667 1.637-3.06 11.435-3.47 25.648-1.79 35.365 4.18a2.455 2.455 0 0 1 .807 3.375zm.332-8.926c-10.148-6.026-26.886-6.58-36.573-3.64a2.944 2.944 0 0 1-1.708-5.636c11.12-3.375 29.606-2.723 41.288 4.21a2.944 2.944 0 0 1 1.03 4.035 2.943 2.943 0 0 1-4.036 1.03z"/></svg>