<svg xmlns="http://www.w3.org/2000/svg" viewBox="0 0 295 122"><path d="M231.368 49.78c-5.132-13.87-17.92-42.783-36.735-49.946C206.88 13.35 225.05 40.172 231.368 49.78m4.824 20.307c2.19-14.476.903-31.952-1.894-42.913-1.52-5.97-6.9-12.706-11.88-14.812 6.526 18.522 12.128 44.898 13.774 57.725m-15.432 32.48c16.938-11.71 41.545-33.74 49.873-45.727 1.963-2.82 3.416-4.454 3.416-7.405 0-4.84-5.644-8.382-9.704-10.85-9.726 22.925-31.58 51.47-43.586 63.982m-25.48 19.242c27.468-9.19 67.29-30.6 94.984-49.726 2.324-1.6 4.135-3.085 4.135-5.684 0-4.52-8.277-10.576-12.293-12.988-21.792 22.653-65.163 56.596-86.828 68.397m38.432-37.174c11.72-15.086 20.94-32.81 20.94-45.537 0-6.653-4.766-11.296-10.98-14.824.123 13.83-4.668 46.263-9.96 60.36m-47.037 11.79c-8.524 0-11.1-3.295-11.1-12.215V62.418h-7.633v-6.67h7.634V43.04l8.523-2.333v15.04h10.53v6.67h-10.447v19.137c0 5.954 1.205 7.558 5.224 7.558 1.768 0 3.7-.24 5.225-.643v7.075c-2.33.487-5.306.88-7.957.88m-32.225-.72v-25.73c0-4.983-1.374-7.875-5.952-7.875-6.03 0-10.457 6.345-10.457 14.302v19.302h-8.6V55.746h8.202c0 2.094-.162 5.546-.564 7.796l.083.075c2.33-5.14 7.158-8.68 13.91-8.68 9.085 0 11.9 5.712 11.9 12.788v27.98h-8.52m-39.647-45.908c-3.056 0-5.55-2.414-5.55-5.392 0-2.97 2.494-5.385 5.55-5.385 2.974 0 5.467 2.333 5.467 5.385 0 2.978-2.493 5.392-5.467 5.392m4.26 45.907h-8.6V55.746h8.6v39.958zM102.52 63.38c-7.96-1.444-11.82 4.105-11.82 16.086v16.238h-8.606V55.746H90.3c0 2.246-.246 5.79-.808 8.844h.162c1.77-5.388 5.79-10.377 13.27-9.65l-.405 8.44M54.105 96.265c-2.25 0-3.938-.076-6.03-.48v17.4h-8.6V55.745h8.12c0 2.094-.083 5.31-.485 7.476h.163c2.25-5.068 6.833-8.283 12.944-8.283 9.487 0 14.712 6.75 14.712 18.813 0 14.076-7.474 22.51-20.824 22.51m3.86-34.245c-6.432 0-9.89 7.557-9.89 14.384v12.31c1.85.564 3.86.805 6.272.805 6.833 0 11.497-4.182 11.497-14.958 0-8.04-2.49-12.542-7.878-12.542zM12.14 96.51c-3.94 0-7.8-.478-10.938-1.29l.487-8.278c3.052 1.123 7.312 2.01 11.253 2.01 5.952 0 10.775-2.49 10.775-8.358C23.718 69.172 0 74.002 0 56.466c0-9.325 7.316-15.834 19.942-15.834 3.214 0 6.51.398 9.808.96l-.485 7.8c-3.132-.962-6.59-1.526-9.806-1.526-6.755 0-10.212 3.133-10.212 7.637 0 10.856 23.72 6.84 23.72 23.798-.005 9.975-7.882 17.21-20.83 17.21"/></svg>