<svg xmlns="http://www.w3.org/2000/svg" viewBox="0 0 260 235"><path d="M66.53 211.9c0 6.2-9.93 11.1-22.21 11.1-12.29 0-22.19-4.9-22.19-11.1 0-6.2 9.9-11.1 22.19-11.1 12.28 0 22.21 4.9 22.21 11.1" opacity=".1"/><path d="M133.7 201.2c0 8.5-13.7 15.4-30.7 15.4-17.03 0-30.79-6.9-30.79-15.4s13.76-15.4 30.79-15.4c17 0 30.7 6.9 30.7 15.4" opacity=".2"/><path d="M202.5 172.4c0 11.3-18.4 20.5-41 20.5s-41-9.2-41-20.5 18.4-20.5 41-20.5 41 9.2 41 20.5" opacity=".3"/><path d="M248.2 119.7c0 15.1-24.5 27.3-54.7 27.3-30.2 0-54.7-12.2-54.7-27.3 0-15.1 24.5-27.39 54.7-27.39 30.2 0 54.7 12.29 54.7 27.39" opacity=".5"/><path d="M226.4 48.74c0 20.27-32.9 36.78-73.5 36.78-40.5 0-73.43-16.51-73.43-36.78S112.4 12 152.9 12c40.6 0 73.5 16.47 73.5 36.74" opacity=".7"/><path d="M17.98 131.3c1.91 3 5.24 4.3 8.49 4.3 3.54 0 7.98-2.2 7.98-6.7 0-9.2-19.72-3.5-19.72-19.1 0-4.7 3.94-11.2 13.55-11.2 4.37 0 8.56.94 11.56 4.6l-4.45 4c-1.37-2.1-4.01-3.5-7.11-3.5-6 0-7.77 3.6-7.77 6.1 0 10.1 19.69 4.1 19.69 18.5 0 7.8-6.22 12.4-13.91 12.4-5.13 0-10.04-1.7-12.79-5.5zm35.77-26.9h7.11c4.3 0 8.6 1 8.6 6.4 0 5.5-4.3 6.5-8.6 6.5h-7.11zm-5.46 35.3h5.46V122h6.03l10.19 17.7h6.82l-11.38-18.3c6.04-.7 9.79-5.5 9.79-10.6 0-5-2.56-11.16-12.82-11.16H48.29zM93.63 125l7.57-18.3h.1l7.5 18.3zm-12.25 14.7h6.36l3.94-9.9h19.12l4 9.9h6.3L104 99.64h-4.95zm-20.34 11.4v7.1c-1.41.8-3.68 1.3-5.42 1.3-4.84 0-7.69-3.5-7.69-7.5 0-4.3 3.07-7.6 7.48-7.6 2.63 0 4.22.7 5.34 1.9l-1.37 1.5c-1.19-1.2-2.53-1.6-3.97-1.6-3.29 0-5.42 2.6-5.42 5.8 0 3.2 2.45 5.7 5.6 5.7 1.33 0 2.64-.3 3.5-.8v-4h-3.18v-1.8zm6.33-4.6h2.52c1.56 0 3.07.3 3.07 2.3 0 1.9-1.51 2.3-3.07 2.3h-2.52zm-1.96 12.6h1.96v-6.3h2.13l3.65 6.3h2.45l-4.08-6.5c2.17-.2 3.54-2 3.54-3.8 0-1.8-.94-4-4.62-4h-5.03zm19.95-1.4c-3.29 0-5.42-2.6-5.42-5.7 0-3.2 2.13-5.8 5.42-5.8 3.28 0 5.42 2.6 5.42 5.8 0 3.1-2.14 5.7-5.42 5.7m0 1.8c4.4 0 7.47-3.3 7.47-7.5 0-4.3-3.07-7.6-7.47-7.6-4.38 0-7.48 3.3-7.48 7.6 0 4.2 3.1 7.5 7.48 7.5m12.75-14.7v8.8c0 1.8.9 4.1 3.59 4.1 2.7 0 3.6-2.3 3.6-4.1v-8.8h2v9.1c0 3.3-2.4 5.6-5.6 5.6-3.12 0-5.54-2.3-5.54-5.6v-9.1zm15.39 1.7h2.5c1.5 0 3.1.3 3.1 2.3 0 1.9-1.6 2.3-3.1 2.3h-2.5zm-2 12.6h2v-6.3h3.1c3.6 0 4.5-2.2 4.5-4 0-1.8-.9-4-4.5-4h-5.1z"/></svg>