<svg xmlns="http://www.w3.org/2000/svg" viewBox="0 0 372 394"><path d="M142.4 22.01c-.3 0-.6 0-.9.1-.4 2.74-3.8 5.42-3.5 8.3.1 1.56 1.6 2.07 2.1 3.8 2 .11 3.3.36 4.5-.47.8-.57.9-2.03 1.7-2.85.3-.45 1.2-.38 1.4-.95 1.2-4.1-1.2-8.16-5.3-7.93zm1 2.24h.5c1 .11.9.9 1.9 1.42-.6 2.78-3.2 7.15-6.2 4.51.7-2 1.6-5.71 3.8-5.93zM131 31.8c-1 0-2.1.39-3 1.47.2 1.22-.7 1.87-.7 2.85 0 1.58 1.3 2.88 1.2 4.74-1 1.11-1.7 2.46-2.9 3.32h-2.3c-.6.25-1.1.69-1.7 1.19-1.4 1.19-1.3 1.52-2.1 3.32-.7 1.42-1 2.06-1.5 3.79-.7 2.81-.7 5.69.5 9.25.3.83 1 1.66 1.4 2.6.5 1.09.5 2.27 1 3.08.5.88 1.4 1.92 2.1 3.08.8 1.19 1.6 2.58 2.1 3.08.9.79 4.4 2.67 5.3 2.85 2.7.55 5.5-.42 8 0 2.7-1.13 4.7-2.9 6.7-4.74-.1-1.43.9-2.59 1.2-4.03.6-4.19-.3-7.94-1.2-10.67-1.6-4.62-5-8.6-7.1-11.86-1.2 0-1.6-1.13-2.4-1.66-.8-.5-2.4-.4-2.6-1.66 3-.65 5.2-2.32 4-6.4-1.4-1.48-3.7-3.56-6-3.6zm73.5 1.17c-1.4 0-2.6.46-3.2.53-1 .11-2-.16-3.1 0-2 .31-5.4 1.97-6.4 3.08-1.6 1.81-2.4 2.94-3.1 5.46-1.1 3.86 1.3 4.6 1.9 8.3.9.88 2 2.66 1.4 4.27-1.6-.27-3.1-.65-5.2-.47-1.5 1.19-1.6 2.28-2.1 4.27-.3.96-.7 1.74-.7 2.37-.6 7.33 8.2 9.31 16.1 7.59 1-.7 2-1.32 3.3-1.66.4-.88 1.2-1.6 1.4-2.61.2-.57.8-1.35 1-1.9 1-3.9-.8-6.03-1-9.49-.9-1.95-2.8-4.08-2.6-6.4 1.5.7 3.2 1.22 5.7.95 2.5-1.05 2.5-4.6 3.6-7.11-1.1-1.64-2.2-3.21-2.9-5.22-1-.75-2.1-1.68-3.5-1.9-.2 0-.5-.1-.6-.1zm-43 .48h-.3c-4.6 1.31-12.5 4.08-17.1 5.69-1.6 1.84-1.4 3.74-1.2 6.89 1 2.91 6.2 1.62 7.6 4.03 0 6.23 1.6 10.89 1.4 17.31 1.4 1.37 3.8 3.11 6.2 3.08 1 0 2-.62 2.9-.95.9-.35 2-.48 2.6-1.19.7-8.23-1.6-15.53-1.4-23.95 1.4-.49 3.1-.63 4-1.66v-5.93c-1.3-.56-3.2-3.36-4.7-3.36zm-29.9.39c.9 0 1.9.45 2.6 1.32.3 2.44-.4 3.94-1.9 4.51-1.2-.81-2.8-1.43-3.1-2.61-.5-2.14.8-3.26 2.4-3.22zm72 .96c1 0 1.8.22 2.4.6 1.5.96 2.1 3.89 1.4 6.64-.6.94-3.3 1.88-5.4 1.42-1.3-.29-1.6-1.49-2.6-1.42-3 1.6 0 4 .9 5.69.8 1.42.9 2.92 1.9 3.56 3.3 9.41-3.1 16.54-13.3 14.7-.7-1.13-2.7-1.97-3-4.03-.4-2.07.6-5.84 2.1-6.16 2.5-.56 3 2.72 5.7 2.61 2.1-1.32 1.8-2.25.7-5.22-.8-2.07-1.6-3.84-2.6-5.93-.7-1.52-1.7-2.41-1.4-4.74.1-1.55 1.5-3.17 2.8-4.27 1-.81 1.3-1.15 2.6-1.9 1-.55 4.9-1.66 7.8-1.55zm-72.6.3c-1.1.14-1.2 2 .1 1.96.8-.18.8-1.18.5-1.9-.2-.1-.4-.1-.6-.1zm29.3.3c.2 0 1.1.32 1.6.24.9 1.79 1.7 4.55.3 6.17-1.9.8-4.4.89-6.7 1.19-.3 2.15 1.8 1.9 3.1 2.37.4 2.39.6 4.66.9 6.88.5 3.45 0 7.44.5 11.15.1.84.6 1.51.5 2.13-.6 3.01-6.7 3.56-7.4 0-.2-1.15.2-2.64 0-4.27-.2-3.06-1.1-6.75-1.4-9.72-.2-2.27.5-4.53-.5-5.93-2 .71-3.8.78-5.9 0-1.4-1.99-.8-3.06 0-5.23 2.2-.77 4.7-1.28 7.1-2.13 2.7-.94 5-2.36 7.9-2.85zm63.7 1.62c-2.7 0-5.2.84-7.8 1.71-1.3 2.03-3.5 3.06-3 6.88.6.93 2.1.97 2.6 2.13-.8 2.14-1.4 4.5-2.6 6.17.2 1.71-.5 1.74-1 2.85-.6 1.34-1 2.34-1.4 3.31-.3.67-.3 1.5-.5 2.13-.7 1.63-2.1 3.02-1.7 4.51.2.76 1.8 1.52 2.6 2.13 2.2 1.48 3.9 3.09 7.2 3.08 1.1-.3.9-3.66 2.8-3.56 1 0 2.2 3.01 2.9 4.03.9 1.41 2 3.19 3.3 3.56 3.4.93 6.6-.71 5.9-4.03-.4-1.81-.6-1.91-1.2-3.08-.8-1.67-1.4-3.09-1.6-5.69 1-1.25 2.9-1.31 4.2-2.37 2-1.52 4-4.97 4.3-8.06.4-4.1-1.5-5.24-1.9-8.54-2.4-3.42-6.3-6.62-11.9-7.11H224zm1.6 1.98c1.6.1 3.1.24 4.1.67.8.35 2.2 1.78 3.1 2.85.9 1.06 2.1 2.39 2.6 3.32.5.81 1.5 2.98 1.4 3.79 0 .62-.8 2.33-1.4 3.56-.8 1.66-1.3 2.18-2.6 3.32-1.4 1.21-3.2 1.92-5.2 2.85-.1 5.03 2.6 7.38 3.5 11.38-1.1 1.11-2.7 2.18-4.2 1.9-1.3-.23-2.1-1.99-3.1-3.79-.9-1.5-1.9-3.05-2.4-4.27-.5-1.33-.2-2.87-1.2-3.32-1.7.29-1.7 2.4-2.1 4.03-.7.72-1.2 1.67-1.4 2.85-2.5.7-4.9-.21-6.2-1.42.3-5.23 3.6-7.55 4.1-12.58 1.3-2.14 2.8-5.32 3-7.83-.4-1.23-2.5-.82-2.8-2.13.5-1.6 1.1-2.95 2.4-3.79 1.4-.98 3-.89 4.7-1.19.8-.14 2.2-.24 3.7-.2zm-96.8 4.31c1.4-.15 2.4.9 3.7 1.8 2.6 1.78 4.1 3.42 5.9 6.17 1.5 2.17 2.6 3.62 2.9 6.64.2.65.6 1.15.9 1.66.9 6.36-.6 12.1-4 14.23-2.7 1.69-8.2 1.3-10.9-.95-1.4-1.2-3.3-4.1-4.5-6.4-.9-1.64-1.1-2.35-1.7-4.27-.3-.91-1-1.57-1.2-2.13-.6-2.26-.6-6.07 0-8.3.2-.73 2.3-5.2 3.3-5.46 1.9-.45 1.8 1.36 3.6 1.42 1.3-.58.4-3.42 1.4-4.27.2-.1.4-.12.6-.14zm94 1.99c-.3 0-.6 0-.9.1v.95c1 1.44 2.6.94 2.9 2.61.2 1.46-1.8 2.43-1.2 4.03 3.7.77 5.9-1.93 5.7-5.93-1.8-.72-4.3-1.7-6.5-1.72zm30.1 4.31h-1.1c-1.1 1.69-2.1 3.5-3.1 5.22-.8 1.46-2.2 2.84-2.4 4.74-1.9 1.7-2.8 4.36-4 6.64-1.2 2.33-2.6 4.59-4 6.64-1.2 2.75-.9 4.33.7 6.16 3.1 1.02 4.2 4.2 8.8 3.79 1.2-2.12 2.7-5.02 4-7.11 1.9-3.25 3.6-6.5 5.4-9.72 1.5-2.46 3.5-5.18 3.8-7.11.9-5.1-3-9.17-8.2-9.28zm-124.9.73c0 .33-.1.52-.2.71-.4 3.06-.9 6.89.2 9.96.2.67.8 1.06.9 1.66.2.72 0 1.37.3 1.9.9 1.76 3.2 2.26 5.2 2.61 3.2-3.5-.1-8.83-1.4-12.1-1.9-1.16-2.1-4.07-4.5-4.74zm124.3 1.42c.2 0 .2.1.2.24 2.7-.38 5.9 1.25 6.2 3.08.2 1.46-1.5 3.09-2.4 4.74-.9 1.68-1.9 3.28-2.1 4.74-1.8 1.27-2 4.14-3.8 5.45.1 1.56-1.5 3.08-2.4 4.98-.9 1.81-1.2 3.78-2.8 4.27-1.9.55-4.2-1.11-5.7-2.61 0-3.05 1.4-4.67 2.8-6.39 3.2-6.32 6.5-12.44 10-18.5zM132 58.41c1.2.43 1 2.21 1.4 3.32-2.2.32-2.1-2.5-1.4-3.32zm136.6.23c-.7.26-.9 1-1.9.95.1 1.78-2.5 2.42-2.8 4.03-.5 2.74 1.2 1.92 1.4 4.03-3.9 4.93-8.2 9.5-12.3 14.23.1 2.55 1.1 4.04 1.9 5.93 2.4.37 3.7 3.32 5.7 3.08 1.7-.21 1.5-2.77 3.8-2.85 1.4 1.51.1 3.62.4 5.46.5 2.21 2.6 3.5 3.6 4.98 1.4.35 3.8.35 5.2 0 1.2-2.8.2-7.33.5-11.38.8-1.05 2-.48 3.1-.71 2.2-.52 4.8-1.38 6.4-2.85.6-.64 2.3-2.93 2.6-3.56.7-1.79.1-4.18.9-6.4-.9-1.64-.3-3.35-.9-4.98-.5-1.12-1.7-1.98-2.2-2.61-1.2-1.52-1.2-1.94-2.8-3.08-.8-.54-1.6-1.27-2.4-1.66-1.2-.6-3.1-.86-3.8-1.19-.3-.17-.6-.83-.9-.95-1.6-.64-3.7-.41-5.5-.47zm1.2 2.33c4.7-.15 10.1 3.17 12.8 6.21.3.29.8.47 1 .71.1.13 0 .87.2 1.19.1.17.6.24.7.47 1.3 3.16-.1 5.69-.7 8.54-2.3 2.4-5.5 5-10.4 4.03-1.3 3.52.1 8.13-.7 12.1-1.8.84-4.6.88-6.2-.24-.3-4.22.8-9.81-1.2-12.33-2.8.1-3.5 5.02-6.2 5.22-1.8.14-4.1-2.4-4-4.27.1-1.98 2-2.98 3.3-4.03 2.7-4.15 6.8-7.01 9.3-11.38-.1-1.17-1.3-1.34-1.5-2.38-.1-1.57 1-2.4 1.7-3.56.6-.17 1.3-.26 1.9-.28zM91.05 64.02c-3.13-.1-6.37.76-8.36 2.22-.49.36-2.67 2.37-2.85 2.61-.78 1.04-.64 2.74-1.66 3.32-.52 3.5.41 7.31 1.19 9.72.23.7.1 1.5.24 1.89.24.54.97 1.36 1.42 2.13.82 1.41 1.33 2.56 2.13 3.56.26.32.51.96.71 1.19.56.61 1.66 1.01 2.37 1.66.92.84 1.48 1.87 1.9 2.13.46.3 1.37.18 1.9.47.68.38.87.96 1.42 1.19 1.76.71 4.81 1.34 7.12.95.84-.14 3.32-1.34 4.02-1.66 3.3-1.38 6.1-4.35 6.4-8.3.3-3.18-1.3-4.15-1.6-7.11-1.2-.54-1.3-2.07-1.9-3.08-.4-1.03.8-1.09.2-1.66-1.1-1.32-1.9-3.05-3.3-4.03-1.5 0-3.15.11-3.82-.71-.63-.92 0-2.24.24-3.08-1.6-2.29-4.64-3.32-7.77-3.41zm-1.14 1.62c.43 0 .87 0 1.32.12 1.73.32 3.27 1.74 3.32 3.56.1 2-1.33 2.44-1.9 4.27-1.23.41-3.35.74-4.74.24-2.03.95-1.52 3.6-.24 5.93.77 1.4 2.55 4.04 2.85 5.93.83.99 1.74 1.9 2.85 2.61h2.85c1.06-.93 3.08-1.86 2.13-4.03-1.57-.35-2.15 1.02-3.32.95-1.76-.1-3.46-2.18-3.32-3.79.11-1.27 1.38-1.65 2.13-2.61.35-.45.55-1.12.95-1.66.51-.69 2.72-3.87 3.32-4.03 1.99-.56 3.89 1.4 3.09 4.03 1.6 2.99 3.9 5.57 3.8 9.72-.1 3.23-2 7.06-4.8 7.83-.66.19-3.76.48-4.47.47-.92 0-2.61-.27-3.32-.47-2.19-.61-3.77-2.68-5.93-3.56-.4-1.58-1.55-2.4-2.61-3.32 0-2.1-1.86-3.04-2.61-4.74-.23-.53-.41-1.53-.71-2.37-1.53-4.34-.56-10.02 2.62-12.35 1.31-.96 3.75-2.74 6.74-2.73zm182.59 1.88c-.5 0-.9.23-1 .85-.4 1.71 1.6 1.28 1.9 2.85 0 1.94-2.3 1.7-2.2 3.79 1.6 1.85 4.8.13 6-1.19v-3.08c-.8-.99-3.3-3.21-4.7-3.22zm-104.4 14.4c-4 7.06-18.7 3.48-18.1 15.18-.7.53-1.5.99-2.6 1.19-2.4 2.11-4.7 4.51-6.4 7.31-.5.9-1.6 2.2-.9 3.4 2.1-.7 4.2-3.1 7.1-3.6 4.3-.8 8.3.4 9.2 4.5-2 .9-4.3.3-6.1 1-2.5.8-3.9 3-4.8 5.4.8.9 2.2 0 3.6 0 4.1-.1 10 1.1 9.2 5-5.4 2.6-12.1 3.7-17.5 6.2-3.8 1.7-6.5 4.5-9.7 6.6-.7 1.5-1.7 2.6-3.1 3.3-.6 1.9-2.5 3.4-3.6 5.5-.8 1.6-2.1 5-2.1 6.8 0 2.1 1.3 3.8 1.7 6 1.7.8 2.4 2.5 5.4 2.1 2.5 1.8-.1 4.9-1.4 6.4.1 2.2-1.3 4-1.7 6.2-.3 1.6-.1 3.4-.4 5.2-.1.4-.5 1-.5 1.4-.4 3.7.7 6.4.9 9 .4 4.4.2 8.8 1.7 12.4.2.5.8.6.9 1.1v1.2c1.6 1.5 1.8 3.9 2.9 5.7.9 1.5 2.5 2.6 3.6 4.1.9 1.3 1.6 3.2 2.3 4.2.7 1 1.2 1.8 1.7 2.6.8 1.2 1.4 2.6 2.1 3.6.4.5 1.2.9 1.7 1.4.5.6.7 1.4 1.2 1.9.8.9 2 1.3 2.6 2.4 1.1.1 1.5 1 2.8.9 1.6 1.2 2.1 3.1 3.6 4.3.5.4 1.2.5 1.9 1 .6.3 1.1 1 1.6 1.4 1.4.8 2.9 1 4.3 1.6 2.8 1.4 4.3 3.8 6.4 5.5.6 1.7 2.2 2.7 3.1 4.3.9 1.5 1.7 3.3 2.4 5.2 1.1.7 1.7 1.9 2.6 2.8-.2 1.6 1.1 2.5 1.2 4.1.1.8-.4 1.7-.3 2.6.1.6.5 1 .5 1.6 0 2.3-1 4.8-1.4 7.1-.8 4.6-1.9 9.1-2.6 13.3-1.5 1.7-.9 4.9-1.4 7.6-.3 1.5-1.1 3-1.5 4.3-.4 1.5-.5 3.1-1.6 4-7.2 2.3-9.3-3-15-3.1-.9 1.4-3.2 1.4-4.5 2.4-.3 1.3-.6 2.5-.4 4.3-1.1 1.3-2.7 2.1-3.6 3.5-.4 3.4.8 5.3 2.8 6.2.6-.7.9-1.6.8-3.1 1-1.1 3.8-1.6 5.4-1.4.8 1.1-.7 1.9-.9 3.3-.6 3 .5 6.1 3.5 6.2.5-1-.1-1.6 0-2.9.4-.7 1.2-.3 1.9-.7 1.5-.9 2.2-3.1 4.3-3.3 1.1-.1 1.8.5 2.8.7 1.5.3 3.4.7 5 .5 1.2-.2 2-1.1 3.1-1.2 2.2-.2 4.1.9 5.9 1.2.1.9-.7 2 .5 2.1.9-.3 1.2-2.1 1.7-2.6.8-.9.4-2.6.4-4.5-1.6-.5-3.4-.9-4.2-2.1-.3-1.6-1.3-3.1-1.2-4.8 0-1.5 1.1-2.9 1.4-4.5.2-1-.1-1.9 0-2.8.1-.7.5-1.4.7-1.9.3-.8.6-1.4.7-2.2 2.6-.8 5.2-2.8 4.3-6.4-1-.8-1.4.8-2.6.5-.2-3.5 1.6-7.1 2.3-10.9.1-.4-.1-.9 0-1.4.2-1.2 1-2.3 1.2-3.6.5-1.9-.1-4.6 1.9-5.7 1.6 1.8 1.8 5 2.4 8.1.2 1.2.8 2.3 1 3.6.2 1.5.1 3.3.4 4.7.3 1 .8 1.7 1 2.6.4 2.2.6 5.1.4 6.4-2.1 2.2-4.8-.1-8 .7-1.5 1-.7 2.9-2.6 3.3-.4 1.2-1 2-1.2 3.3.8.9.5 2.8 2.1 2.9.7-1.1.6-2 1.9-2.2 1.3-.2 3 2.1 5.2 2.4 3.3.5 3.3-.8 5.2-1.9 3.2.1 5.4-.8 8.6-.7 1.1.3.8 2.1 2.1 2.1 1.5-1.1 1.2-5.5-.2-6.4-2.1-.1-3.7.5-5-.2 0-1.2-1.3-2-1.7-3.6-.1-.5.1-1.2 0-2.1-.2-3.3-.6-6.3 1.2-7.4 0-2.1 1.4-3.6 0-5.2-1.5-.3-1.1 1.3-2.6 1-1.5-2-1-5.1-1.2-8.1 0-.4-.4-.9-.5-1.4-.3-2.5-.6-6.3-.9-8.3-.5-2.9-.2-6.3 1.9-7.8.7.3 1.1 1 .9 2.1.7 1.9 3 3.3 3.6 5.4.4 1.2-.3 3.2.7 3.8 1.2.4.9-1 1-1.6.4-3.5-1.5-4.8-1.7-6.9-2.2-2-3.2-6.7-2.8-10.9.1-1.2 1.2-2.5 0-3.3-1.3 2.8-1.6 6-2.2 8.7-.3 1.4-1.7 1.8-2.6 2.9-.5.7-.7 1.6-1.2 2.1-1.1 1.3-2.9 2-4 3.1-1.2 1.4-2 5.2-3.8 5.7-1.9.5-3.5-1.2-5.7-1.4-1.7-2.5-3.7-4.6-4.3-8.3-2.5-3.2-5.3-6-7.1-10-2.3-1.3-5-2.1-7.3-3.3-.3-1.4-3.2-2.4-1.7-4 2.5.9 3.8 4.4 6.7 4.2-1.6-3-4.6-4.5-6.7-7.1-1.6-.8-3.1-1.6-3.1-4 1.4-.3 2.3 1.7 3.1.5-1.5-.3-1.7-2.1-2.6-3.1-.8-1-2.8-1.6-2.1-3.1 2.3.9 2.5 3.9 5.4 4.3.5-1.3-1.4-2-2.1-2.9-1.3-2.3-3-4.2-4.5-6.4-.9-.1-.6 1.1-1.7 1-.6-.9-1.8-1.3-2.8-.5-.7-.4-1-1.3-2.4-1-.9.8 1 1.8-.2 2.2-1.8.2-1.5-2-2.2-2.9-.7-1-1.7-.8-2.3-1.9-1.1-.2-.8.8-1.7.7-.8-.3-.7-1.4-1.6-1.6-.6.1.2 1.6-.8 1.4-.8-1.1-2.5-2.7-3.3-4.3-.3-.6-1.2-2.1-.2-2.8 1.9.1 1.4 2.6 3.1 3.1-.1-.8-.1-2.2-.5-3.4-.6-1.8-3.1-4.5-.7-6.1 2 1.1 2 4.2 4.7 4.7.3-2.8-4-4.3-1.9-6.6 1.4-.2 1 1.3 2.4 1.2.1-.5-.3-1.6.2-1.7 1.9 1.4 4.1 2.6 6 4 0 1.2.9 1.6 1.4 2.4.3 2.6 2 4 2.8 6.2 3.4 2.4 6.3 5.4 11.4 6.1.7.9.8 2.4.7 4.1 1.6 4.5 4.1 9.8 7.4 12.3 2.5 1.9 4.7 5.2 8.7 4.5.6.7.7 1.7 1 2.6 1.1.7 1.3 2.2 2.4 2.9.7 1.7 2.7 5.3 1.2 7.1-1.4-3-2.4-6.2-4.8-8.1-.4-1.9-1.5-3.2-3.3-3.8-.4 1.9 2 2.9 1.9 5.2.9.6 1.5 1.6 2.4 2.2 1.4 2 1.6 5.3 3.5 6.9.6-.4-.1-1.7.3-1.7.9-.2.7.7 1.6.5.3-1.3-.1-2.5 0-3.6.1-.5.5-1 .5-1.4 0-2.3-.9-4.1-1.9-5.5-.8-1-1.9-.9-2.6-1.9-.5-.5-.7-1.3-.7-2.1.8-.9 2.8.1 4.5-.2.8-.2-.2-1.2 1.2-1 1.1 0 1.3.9 1.9 1.4-.6 2.2.6 3.8 1.2 5.5.3 1 .1 2.5 1.2 2.8 1.5-4.3-2.1-5.5-1.9-9.2.5-.7 1.2-1.2 2.6-1 .9 1.5.1 4.7 1.4 6-.5.2-.3 1.8 0 2.1 1.9-1.8.2-4.2.5-6.9.9-.9 1.4-2.4 2.8-2.6 1.5-.2 2.5 1.1 4 1.4 1.2-2.4 1.3-6.1 1.9-9.5.8-3.7-.1-7.5-.7-10.6-.7-.6-.6-2-1.6-2.2 1 4.7 1.1 11.5.4 16.4-.2 1.3-.7 3-1.9 3.5-1.1-.7-3-1.6-3.3-3.3-.4-2 1.3-4.2 1.4-6.6.2-2.9-.4-6.3-.9-8.1-.7-2.7-.8-4.1-2.6-5.2 0 2.2 1.6 5.6 1.9 7.6.5 3.2-.2 6.9-.7 8.8-.3.7 0 2-1 2.1-1.5-.6-3-2.1-3.5-3.3-.9-2 1.1-3.6 1.4-5.7.5-4-1.4-5.5-1.4-8.6-1.5-.7-.7-3.5-2.4-4-.7 2.8 2.2 6.1 2.6 9.3.4 2.6 0 6-2.1 6.4-1.5-1.1-3.2-3.3-1.7-5.3-1.2-.5-1.8-2.6-1.2-4.2-.9-.6-.3-1.7-.5-2.6-.2-1.2-.9-2.3-1.4-3.4-.3-.8-.1-2.4-1.4-2.1.4 3.4 2.5 6.4 1.4 10.5-1.8.6-3.2-1.1-4-2.2v-1.9c-1.1-2.3-.9-6.1-3.3-7.1.3 2.4 2.7 5 1.6 7.1-2.7-.3-4.2-4-6.1-5.9-.7-1.1-.7-2.8-2.2-3.1-.7 1.3 1 2 .7 3.6 1.2 1.3 2.3 2.7 3.1 4.2 1.8 1 3.5 3.1 5.2 4.3 1 .7 3.3.9 2.2 2.9-5.4-1-9-3.7-11.6-7.4-.8-1.6-1.9-2.9-2.9-4.5-.9-1.4-2.6-2.8-2.1-4.7 1.9-.1 2.8 1.8 4.7.9 1.4-3.1-1.5-7.2.5-8.8 2.9-.1 3.6 2 5.7 2.7 0-2.5-2.5-2.5-2.4-5 .2-.1.3-.2.2-.5 3.1-1.4 3.9 1.5 5.7 2.1.3-1.8-2-2.5-2.1-4.2-.1-1.6.8-2.8 2.6-2.6 1.6.1 1.4 1.6 3.1 2.1.1-2.1-1.8-2.3-1.4-4.8 5.7-2 6.9 5 7.3 9.1 1.7.6 3.1 1.7 4.8 2.3.1 1 1.1 1.3 1.6 2.2 1.1 1.7 1 4.2 2.6 5.4.8-2.8-.9-5.1-1.6-7.1-1.5-.8-4.6-3.3-1.9-4.7 2.8 1.1 4.4 3.5 5.9 5.9.9 2.3 1 5.3 2.4 7.1.8-1 0-2-.3-3.1-.2-1.1-.3-2.4-.7-3.5-.7-2-2.7-3.4-2.3-5.7 2.3-2 3.8.7 4.9 3.1.4.7 1 2 1.2 2.8 1 3.5-.1 8 2.2 9.5.7-1.5.4-4 .2-5.7-.4-2.7-1.7-5.2-1.9-7.6 1.8-1.4 2.9 1 3.8 1.9.1 1.7 1.1 3.2 1.4 5.5.4 3.3-.9 7.3 1.4 8-.1-2.2.2-5.5-.2-8.3-.2-1.4-1.7-3.6.2-4 3.3 1.9 4.1 7.2 3.8 12.3-.1 2-1.1 4.4.5 5.5 1.5-3.1.1-9.5.9-12.6 3.2.3 2.5 3.2 3.1 6.2.1.4.5.7.5 1.2.1 3-1.1 6.7-.5 9.7 1.4-.6.9-2.8 1.2-4.3.1-.4.4-.7.5-1.2.2-2.4-.7-4.8.2-6.6 2.2-.1 2.9 3.8 3.1 5.4.5 4.3-2.2 7.2-1.4 10.2 1.6-.1 1.3-2.2 1.6-3.5.2-.7.6-1.3.7-1.9.2-.7-.1-1.9.8-2.2 1.3-.1.8 1.6.9 2.7.2 2.2-.2 4.6-.2 6.1-.6.6-2 3.9 0 4.1.5-.6-.1-2.4.7-2.7.7 0 1.3.6 1.9 0 .7-2.8 1.9-6.2 4.5-6.4.7 5.1-5.4 6.6-4.8 11.7 2 .1 1.6-2.1 2.2-3.4.2-.5.9-.7.7-1.4.9-.5 1.4-1.5 2.1-2.1 1.4-.4 2.5-1 3.6-1.7 1.1-.6 2.5-1.1 3.5-1.9 2.8-2 3.7-5.9 6.4-8 1.8 2.4-.1 6-.7 8.3-3.1 3.3-6.1 6.6-11.4 7.8.6 1.4 2.7 1.1 4.1.7 1.4-.4 2.9-2.1 4-1.4-.5 3.2-3.5 4.1-5.5 5.9-.4.6-1.9.1-1.9 1.2 1.9 1.3 3.2-1.5 5.3-1.4 1.1-1.4 2.6-2.2 3.8-3.3.3-.4.9-.9 1.1-1.2 1.3-1.6 1.7-3.6 2.7-5.2.6-1.1 1.9-1.8 2.8-2.9.8-.9 1.2-2.3 1.9-3.1.7-.8 1.8-1.2 2.4-2.1.2-.3.2-1 .4-1.4 1-1.5 2.1-3 2.4-5 .6-.3.8-1 1.2-1.4.1-1.7-.1-3.8 1.9-3.6-.3 2.3-.1 4.3-.5 6.2-.1.8-.9 1.7-1.2 2.6-.1.5.2 1 0 1.4-.7 2-2.1 3.6-3 5-.5.7-.8 1.6-1.2 2.4-.7 1.3-2 3.5-2.2 5-.1.6-.3 1.3.5 1.9.9-1.2 1.5-2.7 1.7-4.6 1.5-1.7 2.7-3.8 4-5.9 1.5-2.4 3.6-5.5 4-8.5.3-2.2.5-3 1.2-4.5 3.1-1.4 5-3.9 6.7-6.7.8-1.2.7-3.5 3-3.3.5 4.6-1 7.5-2.6 9.7-.3.5-.5 1.2-.7 1.4-1 1.3-3.4 1.9-3.3 4.1 4.1-.6 4-5.3 7.4-6.7 1 2.3-.8 3.7-.8 5.7-.8.7-1.3 1.7-1.9 2.6-1.1.8-2.1 1.8-3.3 2.7-.6.4-2.4.5-1.9 2.1 3.7.1 4.3-2.8 7.1-3.6.2.6.2 1.5 0 1.9-.9 2.6-5.1 3.3-6.1 5.7 2.1-.1 2.7-1.7 4.7-1.9 1.3 2.8-1.7 5-3.1 6.6-1.9 1.1-3.2 2.6-6.1 2.7.2.9-1.5 0-1 1.2 1.8.7 4.1-1.5 5.9-.8-1.4 4.6-5.8 6.2-10.9 7.2-.8.9 1.5 1.4.7 2.3-.7.9-2.2 1.6-3.5 2.2-.4.1-.8-.2-1.2 0-.7.2-1.2.7-1.9.9-1.5.3-2.9.2-3.8.5-.6.2-1.3 0-1.2.9 1.6 1.2 3.9-1.2 5 .3-1.2 2.4-4.3 3.5-7.4 4-.8.1-2.3-.6-2.6.7.5 1.2 2.5-.5 2.6.9-.7 2.4-4.7 1.5-6.6 2.7 0 .7.5 1 .5 1.9-1 .7-2.2 1.8-3.6 2.3-1.3.6-2.9.4-4 1 .3 1.6 3.1-.4 3.3 1.2.1.8-.9 1.1-1.4 1.4-1.7 1.1-4.5 2.1-4.5 4 1.2.1 1.6-1.5 2.6-.9.4 2.4-2.9 2.3-2.1 4.2.9-.4 1.6-1.3 2.6-.4-.5 2.5-2.5 6.8 0 8.7.4-.5.1-1.7.4-2.3.5-.8 2.2-.4 2.6-1.2 0-1-1.3-.8-1.1-1.9.4-.8.5-1.8 1.9-1.7.5.6.5 1.8.9 2.6 1.5.1 1-2.6.7-3.5.9-1.1.8-3 2.1-3.6 1.5-.3.8 1.6 2.2 1.4.7-2 .9-4.7 2.3-6.1-.4-1.8.7-2.3 1-3.1.4-1 .2-2.4.5-3.1.5-1.4 1.8-2.7 3.3-3.1 1.2 2-.2 4.1-.7 5.7-.9.6-3 2.2-1.7 3.3.9.5 1.5-1.3 1.9-2.1 1-.1 1.2-.9 1.7-1.4.7-.4 1-.1 1.9 0 1.4-1.7 2.2-3.7 4-5 2.1-1.5 5.1-1.8 6.9-3.8 1.9-4.2 1.7-10.5 5.9-12.3 1.2 2.9-.8 6.3-1.9 8.5-.8.3-2.3 1-1.6 1.9 2.4-1.2 3.4-2.9 5.2-4.7 2.6-2.7 5.3-4.6 5.9-8.8.5-.4 1-.9 1.2-1.6-1-2.4-1.4-5.5-2.1-8.1.7-.8.2-2.9 1.6-3.1 2.6 1.4 2 6.1 1.9 9 1.5-1.3 1-3.4 1.4-5.2.2-.8.8-1.6 1-2.4.6-2.1 1-4.3.9-6.8 2.1-2.3 1-6.7-.2-8.3-.3-.5-.5-1.2-.7-1.5-1-1.2-2.9-1.7-3.6-2.8-.6-1.1-.8-2.8 0-4.3 2.8-.6 3.9 2.7 5.3 4.3.1.9 0 2.5 1.1 3.1 1-2.8-1.2-5.1 0-7.6-.6-1.3-1.3-3-.7-4.8-1.9-2.1-1.1-7-3.3-9 .3-.3.3-.8.3-1.4-1-2-3.1-2.5-4.6-3.8-.8-.7-.8-1.6-1.9-2.1-1.2.4-3 .8-4.9.7-2.8-.1-7.2-.9-7.2-3.3 4-1 8.2.3 11 1.9-.7-2.9-4.4-2.6-5.7-4.8-1.1-.1-.7 1.3-1.7 1.2-4.6 0-9.8.9-11.4-2.6.9-1.1 4.8-1.5 7.1-1.2 1.4.2 2.5 1.2 3.4.7-4-4.3-10.7-.6-16.2-.4-3.2-4 5.5-4.6 8.6-4.1-.2-.8-.9-1-1.4-1.4-6.7-1.1-9.8 2.3-14.3 2.9-1.4.2-4.1.2-5.7-.5.4-2.1 3.2-2.4 5.3-2.9.8-.1 1.6-.8 2.3-.9 2-.3 4.3.5 6.2-.2-.4-1.2-2.3-1.4-3.3-1.5-3.8-.3-6.8 1.1-8.8 1.9-2.1.9-4.5 1.3-5.2 2.6-.8.2-2.7 1.1-3.3 0-.2-1.3.8-1.3.9-2.3.7-.2 1.8-.9 2.6-1.4.7-.5 2.3-1.2 1.4-1.7-1.7.2-2.9 1.2-4.2 2.4-.7.5-1.5 1.1-1.9 1.6-1.5 1.9-1.9 4.4-3.6 5.7-.5.4-1.8 1-2.6 1.4-.7.4-1.8 1.6-2.4.3.6-1.3 1.2-2.5 1.9-3.6s2-1.8 2.2-3.3c-1.8.1-2.5 1.6-3.4 2.6-.9 1.1-1.6 2.3-2.8 3.1-.7 2.1-2.2 3.7-1.9 6.2-.4.6-1.1.9-1.2 1.9-2.2.9-2.2 4.1-5.2 4.2-.1-2 1.1-2.8.9-4.9 1.1-.7 1.3-2 1.9-2.9.9-1.3 2.7-2 2.9-3.8-1.4.5-2.3 1.8-3.1 2.9-.9 1.1-1.6 2.5-2.8 3.3-1.2 3.1-2.7 6.9-2.7 10.9 0 .7.4 1.3.3 1.9-.1.8-.8 1.4-1 2.1-.2.8.5 1.8-.4 2.2-5.1-1.4-10.5-1-15.5 0 0-.2-.2-.3-.4-.3-.9-3.9-2.8-6.7-5.7-8.5-.8-4.6 2-8.2 2.6-12.4.2-1.5.1-3.8 0-5.9-.1-3.1-1-5.2-1.2-7.6-.1-.7.1-1.3 0-1.9-.2-1.2-1.2-2.3-1.4-3.5-.1-.6.1-1.2 0-1.7-.3-1.3-1.2-2.5-1.4-4-.5-3.4.3-7.7-.3-11.2-.1-.9-.7-1.7-.7-2.6 0-1 .8-2.4 1-3.8.1-.8-.2-1.9 0-2.6.2-1.1 1.2-2 1.4-3.1.8-4.6-2.5-8.1-.7-10.6 8.1.8 11.4-2.2 15.2-5.73 2.2-2.13 5.1-4.01 6.1-6.64-2.6-.6-4.1-2.07-6.9-2.61-4.4-.85-8.9.51-11.6 1.9-1.6.81-3.6 1.29-4.2-.47-1.3-3.68 3.3-4.08 3.5-5.93-.7-1.99-4.1-1.13-5.9-1.42-1.4 1.32-3.3 2.63-4.5 3.79-.2.19-.3.53-.5.71-1.2.96-2.3 1.41-4 1.42-2-2.06 1.9-5.52 0-8.3zm-102.13.53c-1.33.1-2.69.77-3.66 1.33-.43 1.52-1.01 2.18-1.66 3.32-.29.51-.46.69-.47 1.19-.1 2.74 3.19 3.44 4.03 5.93-1.53.29-3.24.4-4.98.47-2.31 2.04-4.29 4.4-5.69 7.31 2.49 3.4 6.73 6.9 11.13 10.7 2.06 1.8 3.59 3.3 5.69 5.2 1.57 1.5 4.34 4.5 6.64 4.3 1.75-.2 4.69-3.1 5.46-4 .23-.3.82-.5.95-.7 2.72-3.9-1.92-3.9-2.85-6.9h2.37c3.57-1.9 6.75-4.2 8.06-8.3-2.83-2.64-5.83-5.09-8.06-8.31-2.43-1.76-4.67-3.71-6.4-6.17-1.64-.81-2.93-1.97-3.79-3.56-1.3.11-1.2-1.17-2.37-1.19-.59-.56-1.4 0-2.13 0-.68-.52-1.47-.67-2.27-.62zm.83 2.05c1.44.1 3.8 2.49 4.98 3.79 3.74 4.13 10.25 9.55 13.04 13.31.98.4 1.7 1.1 2.37 1.9-.88 2.5-2.67 5.2-4.98 5.4-1.94.2-4.93-1.8-7.35-2.8-2.68-1.1-5.21-2.3-7.35-2.1-.11 1.9 1.61 1.8 2.61 2.6 1.37 1 3.27 3 5.22 4.7 1.47 1.3 4.85 3.4 4.98 5 .12 1.5-2.36 4.1-4.27 4-1.19-.1-2.87-2-4.03-3.1-3.16-2.9-5.97-5.3-9.25-8.3-2.32-2.1-5.25-4.7-7.35-7.1.57-2.42 2.48-3.52 3.79-5.21 2.24-.21 5.38.48 6.88-.47 1.69.23 3 2.76 4.74 1.42 0-2.34-2.78-1.96-3.32-3.79-1.67-1.32-5.88-2.45-5.22-6.17.25-1.4 2.87-3.19 4.51-3.08zm112.3 1.38h.8c1.3 2.38-2.9 3.32-2.6.47.5-.25 1.1-.48 1.8-.51zm125.6.78c-2.4 0-4.6 1.76-6.7 2.08-.8.12-1.6-.17-2.3 0-2.6.61-4.6 3-6.7 3.08-1.2.1-1.8-.59-2.8-.71-1.4-.14-2.2.28-3.1.73-2.1 1.08-2.6 2.72-3.6 4.74-1.3.75-2.9.7-3.5 2.13-.4.94-.3 3.59 0 4.99.6 2.6 2.9 5.1 4.5 5.2 2.5.2 3.4-2.5 6.1-1.9.4 1.9-1 2.4-1.1 4 0 .6.2 1.4.4 2.2.7 2.2 1.4 2.6 2.9 3.8.8.6 1.6 1.2 2.3 1.6 1.9-.7 2.5-2.3 3.6-3.5 1.1-1.3 2.6-2.3 3.8-3.6 1.8-1.9 3.6-3.9 5.2-5.7.6-.7 1.1-1.5 1.7-2.1 2.7-3.1 5.9-5.94 5-12.35-1.7-.77-1.4-3.12-3.1-4.03-.9-.49-1.8-.67-2.6-.66zm-140.3 1.13h.8c.6.61 1 1.4 1 2.61.8 1.43 2.9 1 3.8 2.37.7 1.19.4 3.01 1.1 4.74-4.2.95-4.7-3.98-6.1-6.64-.7-.68-1.5-1.2-1.9-2.13 0-.8.6-.95 1.3-.97zm140 1.09c1.2 0 2.3.53 3.4 2.02 1.3 1.96 1.3 4-.3 6.17-1.1 1.53-3.2 2.66-3.8 4.93-1.9 1.4-3.7 3.6-6.1 6.2-.7.8-1.7 1.4-2.4 2.4-2 2.5-4.7 5.9-7.6 1.6-.2-5.2 4-6 5.2-9.7-1.2-1.3-2.1.6-3.3.7-1.1 0-1.3-.9-2.4-.9-1.8 0-4.6 2.6-6.4 2.6-1.8 0-3.4-1.4-3.3-3.6.2-2.25 2.8-2.23 4-3.99.7-.97.6-1.77 1.2-3.08 1.3-.32 1.6-1.18 3.1-1.19 1.5 0 2.8 1.24 4.3 1.18 1.9-.1 5-2.5 7.1-3.32 1-.39 2.3-.55 3.3-.95 1.5-.57 2.8-1.08 4-1.07zm-128.2.1h.9c1.4 1.72 1.4 4.88 3.8 5.69.3 3.56 2.2 5.53 3.3 8.33-2.2.9-3.3-1.2-4.5-1.9.1-1.37-1.7-2.95-2.4-5.01-.2-.73-.2-1.45-.5-2.13-.6-1.51-4.3-4.93-.6-5.01zm-16.7 0c4.1.18 5.2 3.36 5.5 7.35-3.1-.29-3.5-4.56-5.5-6.4zm-2.6 1.25c2.4.1 3 3.15 3.6 5.39-2.8-.29-2.7-3.46-4.8-4.51v-.71c.5-.12.8-.18 1.2-.17zm15.5.86c.5 0 .9.15 1.4.26 1.4 2.33 1.9 5.62 3.3 8.06.8.99 2 1.39 2.4 2.89h-2.9c0 2.3 2.6 3.3 3.1 5.6.2 1.1-.3 2.5-.3 3.8.1 1.5.8 2.9.3 4.8-.9.2-1 1.8-1.7 2.6-.4.4-1.5.8-2.1 1.4-.6.6-.9 1.4-1.4 1.9-.9.8-2.3 1.7-3.6 2.9-2.3 2-3.9 3.7-6.4 6.1-1.7 1.7-2.7 3.4-4.7 2.2-1.2-2.7.5-4.3 1.4-6.4.9-2.2 1.2-5.4-.2-7.6-2.1-3.4-7.1-4.4-11.9-5 1.7-3.8 8.5-1 11.6-2.6-.6-3.8-2.9-5.9-3.3-10-.8-1.2-2.9-1-2.6-2.83.2-1.8 4.2-1.91 6.2-1.66.6.1 1.3.59 2.1.71.5.1 1.3-.12 1.9 0 3.7.85 6.8 3.98 9.5 3.08.1-1.63-.8-2.23-1.4-3.08.4-3.04-2-4.52-1.2-7.11h.5zm-17.9.97c1.3.11 1.5 2.31 2.2 3.56-1.3.64-2.4.87-3.8.47-.6-2.05.3-4.15 1.6-4.03zm40.5.26c1.4 0 3 .66 3.9 1.17-.1 1.94-2.1 3.86-3.8 3.56-1.3-.24-2-2.12-2.1-3.79.4-.68 1.2-.94 2-.94zm-4.3 1.34c.2 0 .5 0 .8.1.4 2.2 1.7 3.41 2.7 4.98-.1.94-1 1.09-1.5 1.66-2.5-.3-5.9-6.57-2-6.7zm-6.6 1c.8-.14 2.1.5 3.4 1.43.1 1.58 1 2.36 1.9 3.56.3.45 1.3 1.35 1.2 1.95-.2 2.1-4.4 1.3-5.4-.3-.3-.3-2.3-5-2.2-5.44.2-.75.5-1.11 1.1-1.2zm115 .31c-1.1 0-2 1.2-3.2 1.83-.8.4-1.5.24-1.9.95-.2 1.37.9 1.48 1.4 2.14 2-1.22 4.7-1.63 5-4.51-.5-.3-.9-.42-1.3-.41zM41.63 103.2c-3.09 0-5.89 2-4.47 6.4 1.73 1.5 4.13 2.3 6.4 2.6-.52 1.6-2 2.1-1.42 4.8-.68 1-2 1-2.61 2.1-.16.3-.51 1.3-.47 1.2-.26 1.2.3 3.3.47 5.2.22 2.5-.19 3.1.47 4.3 1.65 2.9 4.88 5.7 7.35 7.3.56.4 1.12 1.1 1.66 1.4.52.3 1.29.2 1.9.5.58.3.89.9 1.42 1.2.89.4 2.13.6 3.08.9 1.19.5 2.28.9 3.08 1 4.35.4 7.51-1.6 9.49-3.3.19-.2.5-.1.71-.3 2.26-1.7 5.03-5.2 4.74-9.2 0-.6-.54-1.3-.71-1.9-.17-.6 0-1.2-.24-1.9-.5-1.5-1.81-3.7-2.61-4.5-.56-.6-1.46-.8-2.13-1.4-.57-.6-.86-1.5-1.42-1.9-.86-.8-2.78-1.5-3.79-2.2-.91-.6-1.12-1.7-2.61-1.4-.35-1.2-1.84-1.2-2.37-2.1-1.48.4-3.48-.3-5.46-.5-1.91-.1-4.06.5-5.45-.5.1-1.7 1.06-1.4 1.19-2.8.27-3.1-3.1-5-6.2-5zm124.37.4c-1.8 0-3.7.3-5.3.8-.1 1.6 1.2 1.6 2.2 2.1.7 0 .8-.7 1.6-.7.8.8 1.5 1.6 2.6 1.9.9.1.6-.9 1.7-.7-.1 1.5 1.9 1.7 3.1 1.2.1-.2 0-.5.2-.5-.4-2.9-3.1-4-6.1-4.1zm-124.79 1.5c.59 0 1.22 0 1.88.2 1.27 1.1.83 2.8.47 4.6-1.08 1.2-5.05-.7-5.22-2.2-.15-1.3 1.12-2.5 2.87-2.6zm-.37 2c-.25 0-.51.1-.83.4-.13 1 .34 1.5 1.42 1.4.27-.3.27-.8.24-1.4-.33-.3-.58-.4-.83-.4zm275.66 2c-2.8.1-5.5 1.2-8 1.7-2.8 2-6 3.4-8.6 5.2-.9.7-1.7 1.6-2.8 1.9.2 1.6-1 1.7-1.4 2.6 0 4.2-1.4 8.3.2 11.4.8 1.5 4.8 4.5 6.4 4.8 3.1.5 8.6-.1 10-1.2.6-2.5 2.1-4.2 2.1-6.4s-2.3-3.3-2.6-5.7c.8-.9 2.8-1.3 4-1 .8 1.3.3 3.1 1 4.3.3.6 1.2.9 1.9 1.4 1 .8 1.1 1.3 2.1 1.4.3 0 1.9-.2 2.4-.4 2.2-1.1 3.2-3.4 4.2-5.5.5-1 1.3-2.1 1.4-2.6.6-2.2 0-4.8-.7-5.9-.8-1.5-1.4-2.1-2.6-2.9-2.1-1.4-4.8-2.8-7.8-3.1h-1.2zm-.2 1.9h.9c4.4.2 6.1 2 9.1 4 .2 2 1.3 2.3 1.4 3.6.1 2.7-4.9 9.3-8.8 5.7-.6-.6-1.8-2.2-1.7-3.1.2-1.5 1.6-.9 1.9-2.6-1.8-2.6-5.8.1-8.3 1.2-2.5 1.1-6.8 2-5.9 5.2 1.6 1 2.9-.4 4.3-.2 2.6.4 3.4 3.5 2.6 6.2-2.3 1.3-5.5 2-8.8 1.4-2.6-.5-4.4-2.8-5.7-3.8-.9-2.4-.1-4.8 0-7.4.8-.4 1.1-1.3 1.4-2.1 1.8-1.1 3.9-2.9 6.4-4.3 3.3-1.7 6.3-3.7 11.2-3.8zm-153.4 1.5c-.1.3-.4.4-.3.9.6 1.3 1.7 2.5 2.2 4.3.3 1.3-.4 3.3 1.1 3.8 1.2-1.5 2.7-2.8 4.8-3.6 2.5-1 6.3-.6 7.1-3.6-1.9-.5-2.8 1.4-4.7 1.7-4 .5-7.6-2.1-10.2-3.5zm-115.48.9c9.52.1 15.16 5.5 20.1 10.7.79 1.9 1.5 3.9 2.13 5.9-.38 1.4-.63 2.3 0 3.6-.56.6-.78 1.6-.95 2.6-3.58 2.2-6.35 5.3-12.1 3.8-1.02-.3-2.13-1.2-3.32-1.7-2.42-1-3.3-.9-4.74-2.6-.4-.5-.57-1-.95-1.4-1.51-1.6-4-2.8-4.98-4-.64-.8-.69-2.1-1.42-2.7.13-2.8-1.37-5.5 0-7.5 1.6-.2 2.11 1.4 3.56.7.41-1.5-1.75-3.4-.95-5.3.28-.9 1.25-1.2 1.66-2.1.67-.1 1.32-.1 1.96-.1zm.65 8.3c-.24 0-.28.2-.47.3-.38.9.54 1.8 1.19 2.8.46.7 1.05 1.9 1.65 2.6 2.11 2.3 7.56 6.6 10.91 4.3.46-1-.1-2.9.71-3.6-1.57-2.5-4.77-4.8-8.3-5.7-1.84-.4-4-.2-5.69-.7zM156 124c.3 0 .6.1.9.1.5 1.1.1 3.2-.9 3.5-.6 2.3.1 5.9-2.6 6.2-1.2-2.4 1.7-5.6 0-7.1-.6 1-1.3 2.3-1.7 3.8-.6 2.4-.1 5.5-1.6 7.1-2.3-1.1-.5-5.4-.5-7.8-3 2-1.6 8.6-3.1 10.9-3-1.1-.1-7.4-.9-10-2.7 1.1-1.8 5.7-3.1 8.1.5 1.4 1.8 4.7 0 5.7-3.9-1.2-1.7-7.8-2.9-11.2-2.3.8-1.7 5.9-1.4 8.1.3 2.2.2 4.8.7 6.6-1 .9-2.4 1-3.1-.9-.1-.3.3-.8.3-1.5 0-.4-.5-.9-.5-1.1 0-2.2 1.3-4.9-.2-5.5-1.3.6-.8 2.1-1 3.3-.3 1.9-1.3 3.9-.9 6.9.4 1.2 1.2 2 .9 3.8-.8.7-1.8 1.4-3.1.9-2.1-1.5.2-7.6-1.6-9.4-1.4.6-.4 3.6-1.7 4.2-.6 2.5 1 4.8 0 6.2-.3 0-.4 0-.5.2-5.2-2-2.7-12.8 1.4-13.9.4-3.4 2.9-4.6 5.3-6 1.4-2 2.8-3.6 5.4-5.2 3.1-1.9 6.2-2.6 10.5-4 2.3-.8 3.8-2.1 5.9-2zm2.6.1h.9c.6 1.1.6 4.3-1.4 4.2-.3-1.8.7-2.4.5-4.2zm16.7 4.2c.4 0 .8.1 1.3.3.8 2.4-1.2 4.2-2.9 6.1-1.3 1.6-3.2 3-3.5 4.1-.1.3-.8 2.4.9 2.3.8-.2.8-1.2 1.2-1.9 2.3-1.8 3.5-4.7 5.7-6.6 1.8 1 .6 3 0 4-.6 1.2-1.6 2.4-2.4 3.4-1.7 2.1-4.8 4.1-3.7 6.8 2.9-1.7 3.4-6 7.1-7.1 1.2 2.4-1.3 4.8-2.6 6.4-1.2 1.4-2.2 2.7-3.4 3.3-.1 1.9-2.1 1.9-1.6 4.3 2 0 3-2.3 4.2-3.8.7-.7 1.5-1.4 2.2-2.1.6-.7 1-2.1 2.3-1.7-.8 5.9-5.7 7.7-8 12.1 1.3 1.9 3.5-.4 3.8-1.9 2.4-.7 2.3-3.8 4.7-4.5.9 3.3-1.9 4.9-2.6 7.4-1.1 1.1-2.6 2.4-4 3.8-1.1 1-3.6 2.6-1.9 4.2 1.2-.1 1.9-1.3 2.6-2.1 1.5-1.6 3-3.1 4.5-5 .7-.8 1.2-2 2.4-2.3 1.6 1.6-.7 3.7-.7 5.2-1.8 2.3-4.2 4.4-6.4 6.6-1 1-3 2.1-1.9 3.8 1.1-.3 2-1.3 2.8-2.1l2.4-2.4c1.5-1.6 2.5-3.7 4.2-5.2 1.5 2.7-.8 5.4-1.4 7.6-1.1 1.2-2.1 2.4-2.6 4.2-1.2.9-1.6 2.3-2.6 3.4-1.8 1.9-4.3 3.5-6.4 5.4-.5.5-.8 1.2-1.4 1.7-1.1.9-2.1 1.3-3.1 2.6-.5-.1-.9 0-1.2.2-.2.6-.9.7-1.2 1.2-2.3.7-4.5 2.3-7.3 1.2-.2-1.1 1.3-.5 1.9-.9 3-1.6 6.2-3 7.6-6.2-1.1-.6-2.1.6-2.9 1.2-2.1 1.6-5.6 4.2-8.8 4.7-.8.2-1.6.4-2.3-.2-.6-.7.8-1 1.6-1 2.4-1.1 5.1-2.8 7.6-4.2 1.8-1 4.8-1.8 4.1-4.3-1.7 0-2.3.9-3.1 1.7-4.1 2.2-9.3 5.6-16.2 5.6-2.1 0-5.4.3-5.9-1.9 7.4 0 14.1-.3 19.2-3.5 1.4-1.6 4.4-1.7 4.8-4.3-1.4-.2-3.1 1.2-4.5 1.9-2.5 1.2-4.1 2-7.4 2.9-.7.1-1.4 1.1-1.9.2 0-1.9 2.8-1 3.6-2.1.7-.2.7.4 1.2 0 2.8-1.5 5.7-2.8 7.5-5.3-1.3-1.5-4.4 1.4-5.9 2.2-2.4.1-3.4 1.8-5.9 1.9.2-2.1 2.6-2.3 3.8-3.1 1.2-.9 2.5-2.1 3.5-3.1 4.1-4 6.7-10.1 10-15.4-.2-.9.3-1.1.2-1.9 1.1-1.3 1.6-3.7 1.7-5.4 0-.3 1.2-1.9 0-2.4-1.8.3-1.4 2.9-2.6 3.8-3.8-1.5-1-9.4-2.9-12.8-1.4.1-.8 2.1-.9 3-.2 1.4-.7 4.4-.5 6.7.1.6.6 1.4.7 2.1.3 2.3.5 4.1 1.7 5.5-.3 1.8-1 3.2-2.1 4.2-.9 0-.9-.8-1.7-.9-.7-4.6-1.1-9.5-1.4-14.5-1.4.9-.9 3.9-1.2 5.9-.1.7-.5 1.3-.5 1.9 0 .8.7 1.7 1 2.9.2 1.3-.1 2.9.2 4 .5 2.2 1.8 2.5 1.4 4.5-.1.8-1.2 2.4-2.1 2.4-1.9-.1-1.8-3.6-2.1-5.7-.1-.5-.5-1.1-.5-1.4-.5-4.9 1-10.7 0-14.2-1.3.8-.7 3.2-1 4.9-.2 1.7-.8 3.4-.9 4.8-.2 1.7.4 3.6.5 5.4 0 .5-.3 1.2-.3 1.7.1.5.6 1.1.7 1.7.3.8.4 2.1.7 3.3.5 1.4 1.2 2.3 1 3.1-.4 1.5-2.7 2.1-3.6.7-.3-.6.1-1.2-.2-1.9-.3-.9-1.1-1.8-1.2-2.4-.9-3.5-.2-9.1-.2-14 0-2.9-.2-6.2-1.5-7.8-.9.2-.2 1.6 0 2.1.6 5.4-1 12.3-.4 18.3.3 3.4 2.3 6.3 1.9 9.5-2.6 1.5-3.5-1.7-4.1-4.6-.1-.9-.7-1.8-.9-2.8-.7-3.7.3-8.1-.5-10.2-1 .2-.8 1.8-.9 2.8-.4 2.3-.6 6.9 0 10.5.4 2.4 1.8 4.3 1.9 5.9-.1 1.4-2.2.8-3.6 1-1.1-1-2.1-4.1-2.4-6.2-.7-6.2 3.2-13.1 1.2-19.2-1.7.9-.8 3.4-.9 5.7-.2 3.1-1.6 5.9-1.9 9-.4 3.9.3 8.1 1.2 11.1-5.4.6-3.3-6.3-4.5-9.9-.6 0-.8.3-1.2.4-.7.5.6.8.2 1.7-1.5 2.8.9 6.1.3 8.8-.6.5-1.2-.3-2.2 0-.3-1.2.8-1 .7-1.9-.1-1.4-.7-2.3-1.2-3.4-.6-5.2 1.4-8.2 1.7-12.8.1-.9-.2-2.1 0-3 .3-1.4 1.5-2.6 2.4-3.8.9-1.3 1.7-2.6 2.6-3.6 2-2.3 4.4-4.3 6.6-5.7 3.9-4.4 8.3-8.3 13.1-11.8.5.9-.5 2.6.2 3.7 1.3.6 2.3-.5 3.8-.4.5-.3.5-1.1.7-1.7 1 0 1-.9 2.1-.7 1.9-1.4 2.5-4 5.5-4.3.3 1.8-1.9 2.2-1 3.8 2.5-1 3.3-5.3 6.1-5.2zm-145.53.8c-3.89.1-7.55 1.1-6.4 6.6 1.59 1.5 4.29 1.9 7.15 2.1.21 2.8-1.04 4.2-1.19 6.7.73 1.7 3.35 1.5 3.79 3.5-.71 1.2-2.42 1-3.56 2.2-2.34 2.4-3.49 9.8 1.42 9.7.94.8 2.29 1.1 3.56 1.6 1.24.5 2.52 1.3 3.79 1.7 1.56.5 3.35.6 4.98 1.2 1.52.6 2.88 1.5 4.27 1.9 2.35.7 4.21.1 6.17.2 3.12-1.4 5.35-3.6 7.11-6.4-.26-1.5 1.1-2.4 1.42-3.5.14-.5-.1-1.5 0-2.2.11-.7.49-1.2.47-1.9 0-.7-.25-2.2-.47-2.8-.92-2.5-3.21-3.7-5.69-5.2-1.66-1-3.82-2.1-5.46-2.9-.39-.2-.83-.3-1.19-.5-.89-.3-1.8-.3-2.61-.7-1.58-.6-2.89-1.7-4.27-2.3-.34-.2-.84.1-1.19 0-1.98-.7-3.57-2.2-5.22-2.2-1.01.4-2.39 1.4-3.56.7.22-1.5 1.03-2.8.71-4.5-.27-1.4-1.61-2.3-2.37-3h-1.66zM27.7 131c.58-.1 1.22 0 1.87.2 1.06.8 1.31 3.6.47 5-2.57.3-4.3-.3-5.22-1.7-.18-2.1 1.12-3.3 2.88-3.5zm-.57 1.1h-.41c-.91.7-.23 2.2.95 2.2.42-.7.31-2-.54-2.2zm305.47.3c-2-.1-3.1 1.1-4.5 1.6-1.6.7-4.3 1.7-5.9 1.5-.9-.1-1.8-1.2-2.6-1.2-2.8-.2-6.1 2.9-7.1 4.2-2.6.7-5.2 1.2-7.1 2.4-2.1 2.6-.8 7.2-.3 10.5 1 1.6 2.8 1.4 5 .9 1 3.5-.4 9.4 2.9 11.4 3.8.4 5.2-1.6 8.7-1.4 2.3-.9 5.2-2.2 8.6-3.1.4-.1.9.1 1.4 0 1-.3 2.4-1 3.8-1.4 1.4-.5 3.4-.8 4-1.2 1.2-.8 3.2-4.1 3.3-6.7.2-2.1-.6-5.4-2.6-5.9-2.3-.5-2.7 1.3-4.9.5-.5-2.2 1.4-3.7 1.6-5.7.2-2.5-1.4-5.7-3.3-6.2-.3-.1-.6-.1-1-.2zm-.9 2.3c1.1 0 1.6.4 2.4.8.8 1.7.1 3.4.2 5.7-2.2 1.4-5.8 1.4-8 2.8.6 1.6 1.4 3 2.1 4.5 1.6.5 3.5-.3 5.7-.9 1.9-.6 4.1-1.9 5.4-1.5 2.5.8 1.2 4.7 0 6.4-6 2-12.4 4.3-19.2 6-1.5.3-3.1 1.4-4.5 1.4-3.1-.1-4.7-4.1-2.6-7.1 3.1-1.4 8.4-.7 10-3.6-.5-1.3-1.9-.7-3.1-.4-1.3-.6-1.6-2.1-2.9-2.7-1.4.6-3.9 1-5.9 1.7-.8.2-1.7 1-2.4.9-2.5-.1-3.3-2.8-2.3-5.9 2.1-1.8 5-1.2 7.1-2.6 1.8-1.3 2.8-3.5 5.2-3.8 1.1.3 1.9.9 2.9 1.4 2.9.1 6.7-2.6 9.4-3 .2 0 .4-.1.5-.1zm-296.44 3.9c5.47 2.5 12.55 5 18.02 8 .74.4 1.84.8 2.37 1.2 2.21 1.7 4.42 5.7 3.79 9.7-.44 2.9-4.2 7.1-7.83 7.4-3.54.3-7.06-1.5-11.15-2.9-1.58-.5-3.45-1.3-5.22-1.9-3.03-1-5.14-1.2-6.17-3.8.88-2.1 1.21-5 3.32-5.4 1.88-.4 6.78 2.5 8.77 3.3 3.31 1.3 6.08 2.5 8.54 3.3 6.02-3-4.31-5.8-6.64-7.6-4.52-1.5-8.93-3.1-11.86-6.1.6-2.5 1.77-4.5 4.06-5.2zm205.64 20.9c1.2 0 2.5.7 3.5.6 3 2.9 7.4 5.7 7.4 10.7-2.2.1-4.3-1.8-6.4-2.6-.7-1.1-1-2.1-1.7-3.1-1.2-1.8-3.4-2.9-4-5.2.4-.3.8-.4 1.2-.4zm-8.3.6c.6 0 2.5.2 3.5.7.7.4 1.1 1.2 1.9 1.7 2 1.1 5.1 1.9 4.8 4.7-1.6.5-3.8-.2-5.9 0-1.2-.4-1.7-1.6-2.7-2.3-1.6-1.2-4-1.4-5.2-3.1.9-.9 2.4-1.6 3.6-1.7zm-203.97 2.6c-1.57.1-4.09 1.3-4.74 2.4-.59 1-.25 2.1-.47 3.6-.19 1.2-.83 2.5-.95 3.7-.41 4.3.16 9.2-.47 12.9 1.67 1.9 4.62 2.6 8.28 2.6 1.47-1.8 2.23-4.3 4.27-5.5 6.13 2.1 12.2 4.3 18.74 6 2.23-2.9 4.24-5.9 4.03-11.2-5.95-2.7-13.01-4.4-19.21-6.9-1.15-.2-1.22.7-2.37.5-1.95-.7-1.37-3.1-.47-4.5-.31-.6-.72-1.2-.95-1.9-1.74-.5-3.71-1.8-5.69-1.7zm195.67.3c2.1-.1 5.9 1.6 7.3 2.6.9.6 2.1.7 1.7 1.6-.5.9-1.6.6-2.4.8-.7.1-1.7.5-2.4.4-1.5-.1-3-1.5-4.7-2.1-1.1-.4-2.3-.1-2.8-1.2.2-1.4 2.1-2.1 3.3-2.1zm26.8 0c5.3.4 7.7 7 7.3 13-1.8-.3-3.8-2.6-5.2-4.2.2-3.8-1.6-5.7-2.1-8.8zm72.6 1.3c-.4 0-.7 0-1 .1-1 .2-1.6 1.1-2.6 1.4-1.9.5-3.9-.1-5.2 1-.8 2.6-3.2 7.3-1.2 10.2 1.2 1.8 4 .6 5.4 2.3-.9 1.8-1.8 3.4-2.1 5.3-.5 2.6-.4 4.3.7 6.6 3 1 5.1-.6 6.9-1 .6-.1 1.5.2 2.1 0 2.3-.3 4.6-1.7 6.9-2.3 1-.3 2.1-.3 3.1-.5 2.8-2.5 6.9-1.9 9.5-4.3 1-.9 1.3-2.3 1.9-4 .3-.9.9-2 .9-2.4.4-2.3-.6-3.4-1.2-5.4-4.3-3.2-12.7-2.3-18.2-4.3-.7-1-1.3-2.1-2.4-2.4-.7-.2-2.3-.3-3.5-.3zm-296.54 1.2c1.52-.1 2.73 1.2 4.3 1.5.97 2.1-.1 4.9-.24 7.8 1.99.4 1.5-1.6 2.85-1.9 7.36 1.8 14.05 4.3 20.4 7.1.36 3.6-1.06 5.3-2.61 6.9-6.2-2.6-13.12-4.4-19.92-6.4-1.64.8-.69 4.2-2.13 5.2-1.96.6-4.12-.3-6.17-.4.23-3.4-.29-9.8.47-14.3.1-.3.49-.8.71-1.6.43-1.5 0-3.3 1.66-3.8.23-.1.46-.1.68-.1zm297.04.8c.7 0 1.4.5 2.5.7 1.4.5 1.6 2.3 2.9 2.9 5.8.6 12.5.4 16.6 2.8.6 4 .4 6.9-1.9 8.3-1 .6-1.6.6-2.6 1-3.1 1.1-7.5 3.3-10.5 3.3-3.1 1.4-6.5 2.6-10.9 2.8-1.6-2-1.9-2.8-.9-4.7.1-.3.1-1.1.5-1.4 1.9-1.9 7.4-.6 7.1-3.1-.2-1.3-1.3-.8-2.4-1.2-.7-.7-.8-1.9-1.4-2.6-2.6-.6-5.8-.6-7.6-1.9-.5-1.8.1-3.8.9-5 1.4-.4 2.5.2 3.6 0 1.4-.3 2.3-1.8 3.8-1.9h.3zm-103.7.8c1.8-.1 3.8.7 4.5 1.8-1.2 2.9-6 1.2-7.1-.7.5-.8 1.5-1.1 2.6-1.1zm39.6 1.8h.5c1.8.8 2.7 2.4 3.3 5.2.2 1 .8 2 .9 2.9.4 2.6-.3 5.7-1.6 7.3-3.4-2.6-3.3-10-3.1-15.4zm6.4 1c5.9.1 12.1 1.6 12.8 7.1-2.4.2-6.8-1.4-9-2.6-1.9-1.1-4.7-2.3-3.8-4.5zm-49.5 1.2c.6 0 1.2.2 1.8.7-1.6 2.6-4.7 3.8-6.6 6.4-.7.8-1.4 2.8-3.3 2.6.5-2.5 1.7-5.6 3.5-7.4 1.1-1.1 2.8-2.4 4.6-2.3zm20.3.2c3.4-.1 5.4 5.5 6.2 9.2.2 1.1-.5 2.6.7 3.1 2.1-3.3-.7-7.4-1.2-10.4 1-.8 2.2.1 2.9.4 2.6 4.3 4.7 11.9 2.6 18.1-3 .1-2.7-3.1-4.5-4.1 0-.6.1-1.3-.3-1.6-1.3-.3-2.7-1.2-3.8-2.4-.3-3.3-.7-5.9-1.9-8.8-.5-1.3-2-2.2-.7-3.5zm-5.2.4c2.1.1 3.2 3.7 4.7 4.8.1 2.1 2 3.5 1.2 5.7-3.9.1-3.5-4.2-5.2-6.4-.9-1.1-1.9-2.1-2.4-3.6.7-.4 1.2-.6 1.7-.5zm-103.2.5h1.2c.3 1.8.4 3.6 1 5-2.9.5-2-2.7-2.2-5zm96.7 1.3c3.5.1 5.9 3.6 7.2 6.6-1.5.5-3.6.2-4.7-.5-.9-.6-1.2-1.9-1.9-2.9-.9-1.1-2.4-1.8-2.2-3 .6-.2 1.1-.2 1.6-.2zm107.9 1.3c-.9 0-1.7.2-2 1-.6.5.2 1.8.4 2.4 2.4-.1 5.5.5 5.5-1.9-.6-.6-2.4-1.4-3.9-1.5zm-84.3 0h.5c1.5.3 2.5 2.3 3 3.8 1.2 3.5 1.1 7.6 0 11.4-.1.6-.7 1.2-.9 1.9-.7 1.8-.5 4.1-2.4 4.3-1.7-2.9 1.2-5.9 1.4-9.3.3-4.3-1.1-8-1.6-12.1zm-28.3.7c2.2-.2 4.2.8 4.3 3.6-3.9-.1-7.4 1.4-10.4 1.4.2-2.7 3.3-4.8 6.1-5zm46.3.8h.7c1.3 1.6 1.9 3.7 1.7 6.1-.3 2.8-2.3 4.8-2.9 7.1 2.8.3 3-3.9 5-5.2.5 2.7-.2 5.5-1.4 7.6-.3.4-.9.5-1.2.9-.2.3-.1.9-.2 1.2-.2.3-.7.4-1 .7-.6.8-1.3 2.4-2.6 2.4-.1-1.9-1.2-5.3.2-6.4-.2-.7-1.3-.7-1.4-1.6.4-3.1 2-5.8 2.4-9.1.1-1.4-.3-2.9.7-3.7zm4.8 1.1c4.3.2 7.6 1.6 8.5 5.2-4.4 0-7.2-1.5-8.8-4.2 0-.5.3-.5.3-1zm-16.6 2.8c.7 0 .7.6 1.4.5.3 2 1.5 3.3 1.2 6.2-.1.9-.6 1.9-.7 2.9-.6 3-.8 5-1.9 7.6-.9 2-2.5 3.9-3.6 4.7-2.3-1.6-1.4-3.7-.3-5.5.2-.2.3-.8.5-1.2.2-.2.8-.2 1-.4.2-.5 0-1.4.2-1.9.3-.7 1-1 1.2-1.4.4-1.3.4-3.3.7-4.8.4-1.9.3-3.7 0-6.6.1 0 .2-.1.3-.1zm-119.5 1.1c1.1 0 2.2.7 3 1.1.9-.7 1.9 0 3.1 0 1.9 0 4.2-.9 5.7.2-.2 1.9-4.4 1.4-7.4 1.2-2.8-.1-5.2.2-5.4-2.3.3-.2.7-.2 1-.2zm83.8 1.4c.8 0 1.8.3 2.7.2.8.9 1.8 1.7 1.4 3.8-2.2-.5-3.8-1.6-5.4-2.6-.1-1.2.5-1.4 1.3-1.4zm56.9.8c1.6.1 3.4 1.1 4.4 2-.2 1.5.5 2.2.4 3.5-2.7-1.1-6.4-1.2-6.4-5.2.5-.2 1-.3 1.6-.3zm-50.7.3h1.2c1.2 1.8 2.4 4.8 1.9 7.4-2.9-.6-4.9-4.1-3.1-7.4zm5.6.5c1.1.1 1.6.9 2.5 1.2.5 1.4 2.5 5 1.7 9-.3 1.1-1.2 1.8-1.5 2.6-1.6-.7-2.3-2.3-3.3-3.5.6-3.5-.9-7 0-9.3h.6zm-20 1.9c2.2-.1 3.9 1.4 5.2 2.4.2 1.7 1.7 3.1.9 5-2.7-.5-3.6-2.8-5.2-4.3-1-.1-1.5-.7-2.1-1.2 0-.6-.1-1.4.2-1.7.4-.1.7-.1 1-.2zm-70.5 2.4h.5c1.6 0 1.8 1.3 2.9 1.9 2.4 0 3.7 1.1 6.4.9 1.2 1.2 3.9 1 5.2 2.1-.3 2.1 1 4-.3 5-2.6.1-2.4-2.8-4.9-2.8-.9 1 .1 2.8-.5 4.3-2.6-.2-2.3-3.2-3.8-4.6-3.3-.7-5.6-3.5-5.5-6.8zm78.1.7h1.9c1.7 1.1 2.1 7 .2 8.3-2.7-.7-2.2-5.7-2.1-8.3zm19.4.5h.5c6.4 2.2 2.1 13.3-1.9 15.6-1.7-.8-1.1-3.9-2.1-5.4 2.3-2.3 3.4-5.8 3.5-10.2zm-73.3.7h.7c.5 1.4.9 3.4.5 4.9-2.4 1-3-1.7-5.2-1.6-.9.9.5 2.5-.3 3.3-1.6.4-2.9-1.4-3.3-3.1 2.5-1.2 5.5-2 7.6-3.5zm59.1 2.6c3.7.4 1.9 7.6.9 9.7-3.7-1.7-2-6.2-.9-9.7zm33.7 1.6h.9c-.1 2.2-.8 3.8-.9 6-1.2 1.5-1.9 3.5-2.4 5.7-1.6 1.2-1.6 4.1-4.1 4.5-.4-1.9.2-4.5.5-6.4.6-.4 1.4-.7 1.2-1.9 2.5-1.7 3.5-4.9 4.8-7.9zm-29.9 2.6h.4c1.4 1 1.5 3.5 1.2 5.5-.3 1.9-1.4 4-2.3 4.7-1.5-1-1.4-3.1-1-4.9.3-1.1 1.8-3.5 1.7-5.3zm49.1 0c3.9.1 4.5 4.8 4.2 8.3-1.2.3-1.4-1.5-2.1-2.6-1.1-1.7-3-2.9-2.1-5.7zm-119.1 1c1.8 0 2.2 1.4 3.8 1.7.3 1.7 2 2.6 2.8 4 .7 1 .8 2 1.5 2.9 1.2 1.5 3.3 2.2 4 4.2-4.3.2-7.1-3.2-10.2-4.9-.9-1.6-1.7-3.3-2.6-4.8.6-.6.3-2.2.7-3.1zm-5.9.5c2.8.2 3.6 4.6 5 6.6.6 1 1.5 2.1 2.1 2.7.8.7 2.4.7 2.1 2.3-2.2-.1-5.5-1.9-7.6-3.8-2.1-1.9-3.3-4.3-1.6-7.8zm92 .5h1.4c2 3.1-.6 6-2.1 8.3-1 1.5-2.4 2.8-3.6 4.3-.8.9-2.2 2.7-3.8 2.8-.7-1.2.2-2.3.3-3.3.2-1.5-.2-3.2.7-4.3.6-.8 2-1.4 2.8-2.1.3-.3.4-.5.8-.7 1.4-1 2.8-2.9 3.5-5zm-13.1 2.1h.5c1.9.4 1.3 3.2 2.1 4.5-.4 2.2-1.2 4-2.1 5.7-1.5.7-2 3.7-3.5 3.6-1.3-.9.1-3 0-4.3 1.4-1.8 2.1-4.3 3-6.6-.2-.7-.4-2.3 0-2.9zm46.1 3.6c2.8.3 2.9 4.8 2.1 7.3-.8.1-.9-1.2-1.2-1.9-.6-1.3-1.6-3.5-.9-5.4zm-72.1 6.9c0 1.4.8 2.1 1.2 3.3.2.7.2 1.8.4 2.6.3.9.8 1.6 1 2.4.4 2.6.3 5.8.2 8.5-.1 1.2-.8 3.2.2 4 2.4-6.7.7-15.3-2.3-20.8zm5.7 1.8c.8 2.8 3.1 5.7 3.5 9.3.2 1.7.3 4 0 5.9-.4 2.6-2.4 4.6-2.6 7.1 1.7-.3 1-3 2.6-3.5.1-2.5 1.7-4.6 1.7-7.1 0-.5-.4-1.1-.5-1.7-.1-.7.1-1.7 0-2.4-.1-.5-.7-1.1-1-1.9-.7-2.3-1.9-4.1-3-5.4-.3 0-.4-.3-.7-.3zm-44.8.5c2.4-.1 2.2 2.5 3 4.8.5 1.3 1.3 1.6 1.4 3.3 1.4 2.6 3.8 4.3 5.5 6.6 1.4.5 2.7 1.2 3.3 2.6-1.7 1-2.8-.6-4.5-.4-4.5-4.1-9.2-8.1-9.7-16.2.2-.1.3-.4.5-.7.1 0 .3-.1.5-.1zm5.6.5c1.1.1 1.9.4 2.4.9 0 3.6 1.8 5.4 2.8 7.9 1.5 1.7 3.2 3.1 4.6 5 1.2.7 2.6 1.2 3.3 2.6-2.6.4-4.2-.8-6.2-2.4-1.4-1.1-2.9-2.5-4-4-.2-.3-.2-.6-.5-1-.6-.7-1.7-2.2-2.4-3.3-1.2-2.2-1.7-3-1.2-5.7.4 0 .8-.1 1.2 0zm5.4.2c.7 0 1.5.5 2 1.2.6.9.4 2 .7 2.9 1.2 3.2 3.5 5.6 5.9 7.8 1.1 1 2.8 1.9 3.1 3.6-3.9-.2-5.9-2.9-8.1-5.5-1-1.2-1.6-1.9-2.6-3.3-.3-.5-2.2-3.2-2.3-4-.3-2 .4-2.7 1.3-2.7zm4.6.7c2.4-.1 2.5 2.3 3.5 3.6 1.4 1.9 3.1 3.6 4.3 5.7 1.6 1 3.3 1.9 3.8 4-4.2-.7-8.1-4.8-10.4-8.8-1-1.6-2.2-3-1.2-4.5zm-37.7 1.2c1.4 1 2.4 2.2 2.8 4.1-1.8-.3-3-2.5-2.8-4.1zm129.7 2.6c.2.1.2.3.5.3 1.5 4.1-1 7.8-3.1 10.2-1.5-3.5.1-8.5 2.4-10.5h.2zm-124.5 4.5c1.6.3 2.9 2 2.8 3.1-1.6-.3-3.1-.8-2.8-3.1zm77.8 2.2c-.5 1.7.9 2.9.9 5 .1 3.3-2.6 7.4.5 9.5 1.3-1 .1-2.4 0-3.8-.2-3.7 1.7-8.6-1.4-10.7zm-2.4 1.6c-.9 2-.5 4.5-.7 7.2-.1 1.2-.6 2.5-.5 3.3.3 1.7 1.4 3.8 3.4 4 .2-1.5-1.4-2.5-1.7-4.3-.6-2.7.4-6.2 0-9.7-.1-.3-.3-.4-.5-.5zm7.1 1.7h-.2c-.4 2.2-1.8 6.5 1.2 6.9-.7-1.8-.2-4.7-.7-6.7 0-.1-.1-.2-.3-.2zm-76.2.1c.8-.1 1.8.8 1.8 1.8-.9.4-2.1-.6-2.2-1.7.2-.1.3-.1.4-.1zm63.4.9v.7c.4 3.9-.9 8.6 1 11.8v1.7c.3 1.5 4.5 4.5 5.2 1.2-1.8-1.1-3.2-1.4-4-3.6-1-2.3-.2-5.9-.5-8.8-.1-.9-.3-2.6-1.2-3zm-2.6 2.6c-1 .7-.2 1.9-.5 3-.1.7-.8 1.4-.9 2.2-.5 3.3.4 6.6.9 9.5 1.5 1.2 2.1 3.3 4.8 3.3 0-1.3-1.3-1.6-1.9-2.4-2.9-3.6-1.4-9.5-1.7-15.4-.3 0-.3-.3-.7-.2zm-31.1 1.1c.3 4.1 2.1 6.7 2.2 11 4.3-2.3-1.1-7.7-1.4-11zm76.7.5c.4 2.4-.5 5.2-2.7 5.7.6-2.2-.1-5.7 2.7-5.7zm-61.5 2.2c-.5.8-.1 2.5-.2 3.7 1.6 3.9 4.2 6.7 6.2 10.2 0 1.2-.3 2.5.9 2.4.8-1.7-1-2.6-.7-4.5-2-3.6-4.7-6.5-5.5-11.4-.3-.1-.4-.4-.7-.4zm5.5.2c-2.1 4 1.1 8.8 3.3 11.8.4.6.3 1.5 1.2 1.5-.1.9.2 1.5 1.2 1.4-.1-2.2-1.7-3.6-2.6-5.2-.2-.3.1-.7 0-1-.2-.3-.8-.4-1-.7-.2-.4-.3-1-.5-1.4-.8-1.9-1.1-3.4-.9-6.2-.3 0-.3-.3-.7-.2zm50.9.1c.3 0 .6.1 1 .2-.3 2.2-1.5 4.7-3.5 5.2.1-2.3.3-5.4 2.5-5.4zm-45.7 1.4c-.4 4.7.1 10.6 4.3 11.6-2-2.9-3.4-6.4-3.6-11.2-.3-.1-.4-.4-.7-.4zm41.7 1.4c.9 3.1-1.1 6.5-3.1 6.9 1-2.4-.3-7 3.1-6.9zm-200.84 1.3c-.49-.1-2.58.8-3.08 1.5-1.49 1.9 1.53 3.3 0 4.9-2.26-.2-1.56-3.4-3.08-4.5-2.81.2-2.23 3.7-5.93 2.9-.44.9-.3 2.9 0 3.8 2.04.2 4.12.4 5.93.9-.17 3.1-4.05 1-4.51 3.6 0 .2 1.07 3.4 1.42 3.8 1.43 1.4 2.58-.4 3.79-1 4.38-1.1 7.46-3.6 11.38-5.2-.36-2-1.41-3.3-2.13-5-.72-.1-2.04.3-2.37-.2-.45-1.7.99-1.5.95-2.8-.82-1.2-.99-2.5-2.37-2.7zm254.44 2c-2.1.1-2.6 2-3.8 3.5-.5 4.3-3.5 6.1-4 10.4-1 1.4-1.8 3-2.4 4.8 1.5 3.3 4.1.4 5-1.4.1-1.9.8-3.2 2.4-3.6.6 2.6-5.1 7.2-.5 8.8 1.3-.1.9-2 2.6-1.7.1 1.4-.3 1.8 0 2.9.7.1.9.9 1.9.7.5-.3.4-1.1 1.2-1 .2-2.4 2-4.3 2.9-6.4.2-.5.1-1.3.2-1.9.6-1.7 1.6-3 2.4-4.5v-1.4c.8-.4 1.1-1.2 1.6-1.9-.1-1.1.3-2.6-.2-3.3-.9-.9-3.5-1.7-5.2-2.4-1.1-.4-1.7-1.2-2.4-1.4-.7-.2-1.3-.2-1.7-.2zm-63.5 4.2c.2.1.2.3.4.3-.7 1.5-.3 4.2-2.6 4.2.2-1.9.9-3.4 1.9-4.5h.3zm-206.59 0c-2.18 3.5 2.49 5.6 2.37 9.3-1.82.6-3.93.9-5.69 1.6-.59 1.6-.11 3.7.47 4.8.74.5 2.14.4 2.85.9 1.98-1.2 4.94-1.4 6.4-3.1 0-.9-1.27-1-1.9-1.9-1.21-1.6-1.47-4.1-1.42-7.1-1.47-.8-1.57-3-2.37-4.5zm283.89.3c-.2 0-.5.1-.7.2-.3.1-1.8 2.2-2.1 3.3-.2.4.1.9 0 1.2-.8 1.8-2.1 3-2 4.3.5 1 1.5 1.5 2.9 1.6 1.2-.6 1.2-2.1 1.7-3.3.1-.4.8-.8.9-1.2.3-.6 0-1.2.3-1.6.5-1.1 1.8-1.9 1.1-3.8-.8-.2-1.4-.7-2.1-.7zm-286.75 2.8c-4.12.5-6.73 2.4-9.96 3.8 0 2.7.27 4.9 1.9 5.2.79.1 1.76-.9 2.85-1.4.6-.3 1.4-.2 1.9-.5.9-.5 1.33-1.3 2.13-1.7 1.3-.6 2.37-.3 3.08-1.1.19-2.3-1.19-3-1.9-4.3zm205.15 0h.7c.6 1.3-.5 2.8-.7 4h-1.4c-.1-1.9 1-2.6 1.4-4zm86.6 1c-2.4 0-3.9 5.7-4.3 8.2.8.7 1.5 1.4 2.8 1.5 1.7-.6 1-3.5 2.9-3.8.7 1.6-1.1 2.9-.7 4.5.4 1.5 2.3 1.7 4.3 2.1.8-.9 1.7-1.7 1.6-3.5 1.3-2 2.7-3.8 2.6-7.2-1.2-.7-2.1-1.8-4.5-1.4-1 .8-.5 2.9-2.6 2.6-.2-.8-.2-2.1-.9-2.6-.4-.3-.8-.4-1.2-.4zm-19.9.5c.2 0 .4.1.7.1-.7 1.3-.7 3.3-2.4 3.6-.2-1.1.3-3.7 1.7-3.7zm-111.7.6c.1 1.3.6 2.2.4 3.8-1.2 3.1-7.1 3.8-6.6-.2.2-2.3 3.6-3 6.2-3.6zm-136.18 1.9c-.57-.1-1.5.2-1.66 1 .1 1.3 1.51 1.3 1.42 2.8 2.89.2 2.28 5 5.45 4-.35-.6.1-1.8-.23-2.8 0-.1-1.6-2.6-1.66-2.6-.24-.2-1.06-.2-1.42-.5-1.23-.9-1.12-1.8-1.9-1.9zM54 257.1c-2.16.2-4.05.6-5.22 1.7 1.08 2.4 4.7 4.2 3.08 7.8.19 1.2 1.87 3.2.24 4-1.04-.2-1.28-1.2-2.61-1.1-.98 2.7.25 6 2.85 6.4.73.1 1.61-.5 2.37-.5 1.06 0 1.66.7 2.61.2 1.02-.6.89-2.4 1.66-3.3-.32-.8-.77-1.4-.95-2.4-.93-.5-2.57-.4-2.61-1.9.59-1.5 2.39-.9 3.08-.4.7.4.76 1.7 1.42 2.6 1.01 1.2 2.08 1.3 2.85 2.1 3.69-1.1 1.24-5.3.24-7.6-1.13-.6-3.64.2-4.74-.5-.29-.7.29-2.1-.24-3-1.45 0-3.05.2-3.32-1 .29-1.7 0-2-.71-3.1zm254.5.3c.6.9-.3 1.8-.7 2.3-.5 1.7-.8 3.6-2.6 3.8 1-2.1.8-5.4 3.3-6.1zM179 258.6c2.1.6 4.1 0 5.4 1.4-.1 1.3-.7 2.1-.9 3.3-2.1.8-3.6-.7-5-1.4 0-1.3-.1-2.7.5-3.3zm14.5.4c1.3.4.4 2.9.7 4.3-1.1.6-2 1.2-3.8.9 0-1.3-.7-2-.5-3.5 1-.7 2.3-1.2 3.6-1.7zm120.7.3c-.8.7-.8 1.9-1.2 2.8-.7 1.4-1.8 2.7-2.4 4-.2.5.1.9 0 1.5-.1.3-.7.8-1 1.4-.2.5-.2 1.5-.4 1.9-.3.5-1 .7-1.2 1.2-.2.4-.1.9-.3 1.4-.5 1.4-1.7 2.2-1.1 4.3.8.1 1.3.6 2.1.9 2-.7 1.4-2.7 3.1-3.8.4-3 2-4.7 2.8-7.3 1.9-1.4 3.9.8 5.5 1.4 0 3.1 1.1 5.2 3.3 6.2 3.1-1.8 5-5.9 5.7-9.3-.3-1.6-2.2-1.4-3.6-1.9-1.1-.4-2.1-1.4-3.3-1.9-1.1-.4-2.4-.4-3.5-.9-1.6-.7-2.8-1.9-4.5-1.9zm-284.15.7c-1.33.6-2.78 1.2-4.27 1.6.7 2.9 2.26 5.6 3.32 8.1.47 1.1.49 2.3.95 3.3.39.9 1.18 1.7 1.66 2.6 1.26 2.5 1.85 5.4 3.56 7.6 4.27-.1 6.24-2.4 9.72-3.3 1.3-1.7.18-2.3-.24-4.3-.3-1.4-.6-2.7-1.66-2.6-1.27 1.4-2.16 4.5-5.22 3.6-.14 0-.47-.7-.95-.7-1.87-4.7-3.85-9.3-6.4-13.3.6-.8-.18-1.9-.47-2.6zm17.92.9c-2.65.3-2.6 5.9 1.76 5.2 1.79-1.7.24-5-1.19-5.2h-.57zm-5.35 2.9c-1.98 1.2-5.45 1.9-5.93 4.7-.12.7.31 1.4.47 2.4.31 1.8.94 3.1 2.13 3.8.66-2.3 2.51-4.6 4.74-4 2.93.6 2.84 9.6 6.17 7.8 0-2-1.89-2.9-2.61-4.5-.75-1.8-1.06-3.8-1.42-6.2-.69-.7-1.73-1.1-1.42-2.8-.83-.3-1.01-1.2-2.13-1.2zm252.98.6c-.2 0-.4 0-.6.1-1 2-1.7 4.5-.3 6.4 3.4.9 5.5 3.1 9.5 3.3 1.1-1.1 2.2-2.3 2.1-4.7-.6-1-2.4-1-3.3-1.4-.6-.3-1-.9-1.7-1.2-.7-.4-1.6-.4-2.3-.7-1.2-.6-2.1-1.8-3.4-1.8zm-101.8.8h.6c1.1 2.5.6 5.1-2.4 5.2-.8-1-.9-2.7-1.2-4.3.9-.4 1.8-.9 3-.9zm-15.3 0c1.6.2 3.3.4 4.5.9-.1 1.8-.4 3.2-1.2 4.3-2.2.6-4-.4-4.5-2.1.6-.9.6-2.3 1.2-3.1zm16.6 5.9c1.1.6 1 2.4 2.6 2.4-.8 2.6-6.9 3.2-5.9-1.4 1.1-.4 2.3-.6 3.3-1zm121.5.6c-1.6.1-3.6 2.5-3.4 4.4.2 1.5 4.4 4.8 4.8 7.1.8 0 1.7.6 2.6.5.6-.1 3.1-2.6 3-2.4 1-1.9-.2-2.6-1.1-3.8-.7-.8-.7-1.2-1.2-1.9-1.2-1.5-2.2-2.9-4-3.8-.3-.1-.5-.1-.7-.1zm-139.5.6c1.6 0 2.9.4 4.3.7 0 1.9-.4 3.4-1 4.7-4.4 1.7-5.4-2.9-3.3-5.4zm18.9 4.3h.5c.5 1.2.3 3.5-.2 4.5.7 3.4 1.7 6.5 1.9 10.4-1 1-2.5.1-3.8.5-1.4.4-1.7 2-3.5 2.1-.6 0-1.7 0-2.4-.2-.8-.3-1.5-1.2-2.4-1.7-.8-.4-2.4-.1-2.1-1.4 1.3-1.4 3.4-.5 5.2-.7.7-.1.8-.5 1.4-.7.4-.2 1-.1 1.4-.3 1.2-.5 2.1-1.4 2.9-2.1-.7-1.2-1.6-3.5-.5-5-.9-1.1-1.8-2.3-1.4-4.7 1-.2 1.8-.7 3-.7zm-19.8 2.9c1.1-.1 2.4.6 3.5.8 0 1.7.5 2.9 1.9 3.1-.5 3-4.6 3.2-7.1 2.2-.5-1.9 0-4.3.7-5.7.3-.2.6-.3 1-.4zm-102.81 2.2c-1.27.1-2.56 1.3-3.98 2-1.26.1-1.38-.9-2.61-.7-2.23 1.1-3.84 2.9-3.56 5.9-1.79 1.2-4.48.5-6.17 1.7-1.42 1-2.47 3.8-1.42 5.4-2.52 2.2-5.5 4-8.06 6.2-.42 3 1.44 3.8 3.08 4.7 2.06-1.1 3.95-3.9 5.69-5.4.36-.3 1.18-.4 1.66-.7.47-.4.66-1 .95-1.2.98-.8 3.47-1.4 3.79.7-1.39.6-2.48 1.5-4.03 1.9-.1 1.6-2.13 1.2-2.13 2.8 1.29-.4 2.57.1 3.79-.2 1.4-.4 2.45-2.2 3.32-1.2.12 1-.6 1.1-1.42 1.2 0 2.1-2.15 2-4.27 1.9-1.18 1-2.24 2-3.56 2.8v2.9c1.08 1.1 1.64 2.6 3.32 3.1 3.38-1.8 5.34-5 9.25-6.2.43-.4.12-.9.71-1.4.15-.1.83-.1.95-.3.89-1 1.21-2.8 3.32-2.3.5.4.81 1.1.95 1.9.4.3 1.51-.1 1.42.7-.6 1-1.49 1.7-2.85 1.9-.53-.2.71-2.1-.47-2.2-2.27.5-4.52 3-5.45 5.5 2.44 3 3.44-2.1 5.69-2.4-.74 2.1-1.43 4.4-3.56 4.8-1.61.2-3.3-1.1-5.45-.7-1.41 1.3-2.21 5.6 0 6.6 1.21.2 3.33-.5 3.79.5.26 1.7-1 2.2-.47 3.5 2.44 1.4 5.19-.5 6.88-1.4 1.11-2.2 2.48-4.2 2.85-7.1.65-.8 1.52-1.3 1.42-2.9 1.5-.5.8-3.3 2.85-3.3.44 2.1-2.32 3-1.42 5.2 2.35-.2 2.79-2.4 5.22-2.6 1.71-2.6 5.26-3.4 6.63-6.4-.15-1.1-.15-1.2 0-2.4-.61-.9-1.67-2.1-2.61-3.3-.74-.9-.66-1.9-1.9-1.9-1.39 0-1.32 1.8-3.08 1.9-.76-1.5 1.36-2.1.95-4-1.87-.3-2.3 1.9-3.56 1.4.4-2.7 3.74-2.6 3.56-5.9-1.48-.8-1.49-2.6-3.32-2.6-2.3 0-3.69 4.3-6.88 5.2-1.19.3-2.19-.2-3.79.2-.34 1.1-1.32 1.6-1.66 2.6.11 3-1.05 4.7-3.32 5.3-.87-1.1.52-1.6.47-2.6 0-.9-1.02-.8-.71-1.9.23-.9 1.51-.7 1.66-1.7.68-1.1.6-3 1.9-3.6 3.61-.1 5.78-1.6 5.69-5.4.9-1.4 2.56-1.6 2.61-3.3 0-.7-.69-2.1-.95-2.4-.57-.6-1.14-.8-1.71-.8zm214.51 2.6c-1.9 0-3.3 1.8-3.9 3.6 1.4 1.2 2 3.1 4.1 3.6 1.2-1.4 3.5-2.3 3.1-4.5-.2-.8-2-2.5-2.9-2.6h-.4zm-8.1 2.9c-1.2 0-3.2 1.9-3.3 3.6-.1 1.4 1.3 1.7 1.2 3.3-.2 1.9-3.5 2.8-3.1 5 1.8.6 2.4 2.5 4.5 2.8 1.2-2.2 3.7-3.2 4.7-5.7 1.3-.6 2.1-1.6 2.4-3.3-2.2-1.1-4.3-5.7-6.4-5.7zm-105.9.9c1.5-.1 2.8.6 4.1 1-.1 1.5-.5 2.6-1.1 3.6-3.3 1.2-5.1-1.8-3.6-4.5.2-.1.4-.1.6-.1zm27.7 2.4h1.1c.3 1.8-1.9 1.7-2.8 1.5-.1-1.2.7-1.4 1.7-1.5zm91.9 1c-1.4 1.4-3.8 1.8-4 3.8-.1 1.1.4 1.4.7 1.9 1.2 1.8 3.2 3.7 4.3 5.4.6 2.1 2 3.3 1.4 5.5-.3.9-1.7 1.8-2.6 2.8-1.1 1.2-1.8 2.4-2.6 3.1-.8 3.1 2.1 5.4 3.8 5.2.5-.1.7-.5 1.6-1.4.7-.6 1.6-1 1.9-1.4.6-.7.9-1.9 1.7-2.9.6-.6 1.5-1.1 2.1-1.9.7-.7 1.3-1.6 1.9-2.3 1.4-1.7 5.1-4.6 4.5-7.1-.2-1.2-3.1-3.3-4-3.1-1.2.2-1.2 2.5-2.6 2.6-.8.1-.3-.1-1-.7-.8-.8-.7-.9-1.4-1.9-1.7-2.5-3.2-6.6-5.7-7.6zm-121 2.8c1.5.1 2.4.9 3.9 1-.2 1.5-.5 3-1.2 4-1.3.1-2.4 0-3.3-.2-.9-1.4-.8-3.4 0-4.8h.6zm-17.2 2c.6-.1 1.1.2 1.4.9-.2.9-.7 1.7-2.1 1.4-.9-1.3-.1-2.2.7-2.3zm3.6 1.9c1.4 0 3.1 1.8 4.7 2.1 1.6.3 3.4-.6 5.2-.5 1.5.1 3 1.1 4.5 1.4 1.1.3 2-.3 2.8.5-.1 2 .4 4.8-1.2 5.9-1.1.2-1.4-.3-2.1 0-2.5 2.5-6.5.9-9.7 0-1.2-.3-2.9.1-2.9-1.4.3-1 1.6-.3 2.4-.5 1.2-.2 2.5-.6 2.6-1.6-.1-.2-.2-.3-.2-.5-3.2-.4-6.8 1-9.5 1.9-1.1-1.8.3-3 2.1-3.3 1.5-.3 3.8 1 4.5-.5-.4-1.8-4.2.1-4.7-2.1.4-1 .9-1.4 1.5-1.4zm110.5 1.3c-1.9.1-3.4 2.7-3.4 3.9.1 1.6 1.9 2 2.1 3.3.3 1.1-.4 2.3-.2 3.3.4 1.6 2.5 3.2 3.3 3.3 1.1.1 1.6-1 2.9-.9.6.4 1.7.8 1.9 1.6.3 1.2-.8 2.1-.7 3.1.1 1.7 1.7 3.4 4 3.3 1.4 0 1.3-.8 2.6-.7 3 .4 1.6 2.4 1.9 4.3.3 1.5 2.3 2.7 3.3 2.8 2.5.3 5-2.2 5-4.7 0-2.2-2-3.8-3.1-4.5-2.2-1.5-4.2-3.5-4.2-6.7-.7-1-1.8-1.5-2.7-2.3-2 .2-3.4-.3-4-1.5-.3-3.5-2.1-5.9-5.9-5.4-.9-1.1-1.4-2-2.4-2.1h-.4zm-116.5.2c1.1-.1 2.3.3 2.1 1.3-.7.3-3 .4-3.8 0-.4-.7.6-1.2 1.7-1.3zm-74.97.9c.96 0 1.51 1.7 3.35 1.1-.97 2 .93 5.2-.72 7.1-1.74.3-1.2-1.8-2.13-2.4-.98-.1-1.22.4-2.13.3 0-1.8 1.4-2.1 1.66-3.6.41-1.2-1.4-1.4-.47-2.3.16-.2.3-.2.44-.2zm207.57.4h-.5c-1.7.2-2.9 2.4-2.4 4.5.4 1.3 2.4 1.8 3.8 2.6 1.6.8 2.5 2 4.5 1.9 1.1-1.3 2.5-2.2 2.1-4.8-1.3-1-5-4.2-7.5-4.3zm-134.3 1.2c2 .4 1.7 3.1.3 3.3-1.8.2-2.2-2.7-.3-3.3zm28.1 4.2c.7 0 1.5.6 1.6 1.7-.4.8-2.3 1-2.9.2-.1-1.3.6-1.9 1.3-1.9zm-22.4 2.4c.6 0 1.2.2 1.7.7.1 2.3-1.9 3.6-3.8 2.4-.3-1.7.8-3 2.1-3.1zm-55.6 4.7c-1.94.1-3.21 2.2-2.94 4.1 3.64 0 4.94 2.4 6.14 5-.4 1-1 1.7-2.3 1.9-.7-.8.1-2.9-.5-3.6-.7-.6-1.6-1-2.62-1.2-.58.4-.67 1.4-1.19 1.9-.68.7-2.24.4-3.56.5-1.06.7-1.67 1.9-2.13 3.3.41 1.6 2.44 1.7 2.61 3.6-.21.4-.53.7-.95.9-1.43-.3-1.78-1.8-3.08-1.7-1.38.2-2.18 2.2-2.61 3.8.22 1 1.12 1.3 1.19 2.4-.48 1.4-1.94 1.9-3.08 2.6-.48 2.8.99 5.1 2.37 5.5 2.15.5 3.4-1.6 5.22-2.2.83-1.4 1.62-2.8 3.56-3-.88 2.4 1.08 2 .95 4.2-3.04.7-1.82 5.8.47 6.4 1.35.4 2.25-.5 3.75-.7 1 2.4-1.5 1.8-1.4 3.8 0 .6 1 1.8 1.7 1.9 1 .2 1.8-.2 2.1-.5 1-.8 1.3-1 2.1-2.1 1.2-1.5 3.1-4.6 3.4-5.7.3-.1.5-.3.9-.5 1.5-3.6 4.1-6.1 5.7-9.7 1.1-.3 1.7-2.1 2.8-3.8 1-1.4 2.7-2.6 2.6-4-.1-1.7-2.4-3-4.9-1.9-1.4-.8-2.3-2-3.8-2.6-1.4.3-.7 2.6-2.9 2.1-.2-1.3.6-1.6.5-2.8-1.2-.8-2.8-2.8-1.4-4.5-1.3-1-1.9-2.6-3.8-2.9-1.1-.1-1 1.1-2.2 1-1.2-.1-1.2-1.4-2.3-1.5h-.4zm152.9 4c-1.8-.1-1.8 2.1-3.8 2.2-1.4-.1-.8-2.1-2.2-2.1-1.4.8-3.4 1.1-4.2 2.6v2.1c-1.3 1.6-3.4 2.3-5 3.6-1.3-.3-1.6-1.5-2.9-1.7-2.5-.3-4.7 1.8-4.5 4.8-1 1.1-2.8 1.4-3.8 2.6-.2 2 1 2.6 2.2 3.3 1.2-.4 2.6-1.8 4-1.2-.1 2-1.9 2.4-2.1 4.3.2.6.9.8 1.1 1.4 2.9.2 4-1.1 5.7-2.1 1.2-.7 2.4-2.1 3.8-1-1 2-7.3 3.9-9.5 5.9 0 0-.2.6-.2.5-1.2 3.5 3.1 3 4.5 3.8 1 2.6-.9 6.3 1 7.8.5.5 3.2 1 4 .7 2-.6.5-3.4 3.1-3.5-.2 1.2.4 3.3 1.9 3.5.7.1 2.1-.8 3.3-1.4 1.1-.6 2.2-1.2 3.1-1.6 2-1.1 5.8-2.4 6.1-3.6.7-2.5-2.6-4-2.8-5.7-.7-1.8-1.1-3.9-2.6-5-1.8.4-3.1 2.5-5 1.9 0-1.6 2-1.3 2.1-2.8-1.2-2.3-2.9-4.2-3.7-6.9-.6-.7-1.5-1.2-1.2-2.8.7-.5 1.1-1.3 2.3-1.2-.7 2.8.3 5.1 3.1 5.2-1.5 2 .2 4.2 1.2 5.7 1-.4 1.4-1.3 3.1-1 .2 2.4 1 4.2 2.4 5.5 1.8-.9 3.3-2.2 4.9-3.3v-2.4c-.7-1.5-3-1-3.8-1.9.6-1.1 1.9-1.3 2.7-2.1.2-2.3-.5-3.7-2.4-3.8-2 1.1-4.6 3-7.1 2.8.3-2.1 4.7-2.5 5-4.5.1-1.2-.7-1.5-1.5-2.6-1.2 0-2.8 1.6-3.5.5-.2-2 2.6-1.3 3.3-2.9.5-1.2-.6-3.3-1.7-3.5-.1 0-.2 0-.4-.1zm-146.1 6.2c.9.1.9 1.2 1.6 1.5.8.1.7-.8 1.2-.3-.1 3 3.3 2.4 3.3 5.3-1.7 1.4-2-1.6-3.3-1.9-1.2-.3-1.8.2-2.8.9 0 4.6-4.3 4.9-5.3 8.5.1 1.3 0 2.4-.4 3.1-1 0-2.1.6-2.87 0 .4-1.9 2.07-2.5 1.87-5-.1-.3-.4-.3-.4-.7-1.58-.3-1.35 1.1-2.89.7.11-1.6 1.14-2.3 2.09-3 1.7 0 2.2 1.4 3.6 1.2 1.3-.3 1.7-2.1 2.6-3.1-.2-2.2-.4-4 1.2-4.8.2-1-.5-1.8 0-2.3h.5zm15.6 5.5c-.9 1.3-2.9 2.1-2.6 4 .2 1.2 2.5 2.8 3.8 2.6 1.1-.1 2.4-2.1 2.4-3.3-.1-1.8-1.8-2.2-3.6-3.3zm113.2 2.7c.3 0 .5 0 .7.2.1 1-.7 1.2-1.5 1.4-.6-.7.1-1.5.8-1.6zm-126 1.8c.4 1.8-.6 3.2-2.1 2.4 0-1.5.6-2.4 2.1-2.4zm25.9 0c-.9 1.3-.8 3.6-.7 5.7.9 1.2 3.6.7 4.5 2.1.2 1-.4 1.2-1 1.5-2.1-.5-2.9-1.4-5.2-1.2-1.3.9-1.9 3.5-1.2 5.7 1.9 1 5 .4 5.5 2.1.3 1.2-1.4 2-1.7 3.8-.2 1.2.2 1.9 0 3.3 2.4 1 7.1-.3 6.6 3.6-1.8 1.6-4.5-.4-6.8-.5-.7 1.5-1.3 4.1-1 5.9 3.4.3 7.3 2.9 10.2.7 1.1-3.6 1.7-7.6 2.1-11.8-.6-2.1-4.2-1.1-4.9-3.1.4-1.4.5-3.2.4-5.2 1.1-1.3.7-4.1 2.6-4.5 1.2.3 2.4.6 4.1.4 1.3-.8 2-4.1.9-5.9-1.5-.8-3.1-.4-4.7-.7-1.5-.3-3.2-1.1-4.8-1.4-1.5-.3-3.5-.5-4.9-.5zm-17.3 1.2c-1.2 1.6-2.1 3.4-2.7 5.7-3.1 2.2-4.5 6.2-6.4 9.7-1.9.7-2.5 2.7-1.4 4.8 3.2.3 5.2-.8 5.5-2.9.1-1.3-1.2-2.8-.5-4.3 2.8.1 3.3-1.8 4.5-3.3 1.4-1.6 2.5-3.7 3.6-5.2v-3.1c-1-.4-1.3-1.4-2.6-1.4zm92 1c-2.6.2-5.2.3-7.4.9.2 1.8-.1 2.9.3 4.3.3.6 1.9 0 1.9.9.2 1.5-1.4 1.2-1.9 1.9-.3 2.7.6 4.3.7 6.7.6.7 2 .6 1.6 2.3h-2.3c-.1-.5-.7-.4-.8-.9-.4-4.8-1.6-9-1.4-15-1.1-.8-2.4.2-4.2.5-2.1.3-4.9-.1-7.2.3-2.4.3-5.7.4-5.7 2.8 0 2.3 2.4 2.1 3.8 3.3-.6 1.7-4 .6-5.2 1.7-.6 1.3 0 2.8 0 4.3 1 .6 2.6.3 2.9 1.4.4 1.6-2.5 2.3-2.4 3.8.1 1.7 3.5 2.9 5.7 2.3 2.1-.5 2.6-3.3 4.3-3.8.6-1.5 1.2-3.2 3.3-3.3 1.1 3.8-4.1 3.2-3.1 7.6.3.9 1.4.9 1.9 1.7.1 1.2-1.9.3-1.7 1.6.5 1.1.4 2.6 1.7 2.9.3.5 2.2-1.1 2.6.2.2.7-.3.6-.2 1.2-1.7-.2-2.7.2-3.4 1 .3 1.9-.1 3 1 4 5.9-1.1 11.7-1.3 17.8-1.9.3-.6.8-.9 1.4-1.2.5-3.1-.7-6.1 0-9.2-.9-.9-.7-3-1.2-4.3-.7-1.1-2.8-.8-3.1-2.4 2-1.4 3.9 1.1 5.3 1.9.3-.5.6-1.1.4-2.1-1.1-1.3-3.9-1-4-3.4h2.6c1.4-1.8 1.2-5.1-1-5.6-1.4-.4-4.3 1.9-4.2-1 1.3-.7 2.4-.7 2.6-2.1.2-1.3-1-2.3-1.4-3.3zm-53.6 1.4c-1.4 0-2.4 1.3-2.4 2.8-2 .6-2.4 2.8-2.4 5.5 1.5 1.9 1.3 4 .5 7.1-.2.7-.8 1.4-1 2.1-.1.6.2 1.2 0 1.7-.1.4-.5.7-.7 1.2-.4 1.4-.1 2.9-.4 4-.5 1.5-1.6 3.3-1 5.7.9 1.1 2.1.9 3.8 1.2 1.7.3 3.5 1.7 5 .9.5-1.7 0-4.4.7-5.9-1.8-.9-4.6-.1-5-2.4-.1-.7.4-2.1 1.2-2.8 2.4-.3 3.4.7 5.7.5.8-1.4-.1-3.8.2-6-1.2-1-3.8-.6-4.5-2.1.4-.7.3-2 1-2.4 2.6.2 4.8.4 6.6.3-1.4 7.1-2.7 14.5-4.3 21.5.9 0 .7 1.1 1.7 1 1.2-.3 2.3-1.9 2.6-3.1.1-.3.4-.3.5-.5.5-1.2.2-2 .5-3.5.2-1.4 1.1-2.8 1.4-4.3.1-.7-.2-1.6 0-2.4.2-1.1 1-2.3 1.2-3.5.3-2.8.8-3.5 2.6-4.5 0-1.1.6-2.9.4-4.5 0-.4-.5-1-.7-1.7-.5-2.4-.5-3.7-3-3.6-2.3 1.7-.2 7.7-3.6 8.3-.5-1.3.6-3 .5-4.7-1.2-1.6-4.6-.9-5.5-2.9 0-.7.4-1.1.3-2.1-.7-.7-1.3-.9-1.9-.9zm91 2.1v1.2c-.7.3-1.1.6-1.6 0 .2-.7.6-1.3 1.6-1.2zm17.6.5c-2 .1-2.9.6-4.3 1.4-1.2.6-2.2 1.3-2.4 1.9-.3 1.7 1.4 2.4 1.7 4.3 2.6-.3 3.8-2.1 6.2-2.6 1-1.8-.1-4-1.2-5zm-21.2 1.4c.3 0 .5 0 .8.2-1.1 1.9-1.1 5.5.9 6.2 1.5-.3 2.6-2.1 4.1-1.7 0 1.8-1.8 2-2.9 2.7-1.1.6-2.1 1.7-3.3 2.1-1.7-1.5-1-5.5-1.4-8.3.5-.4 1.1-1.1 1.8-1.2zm-98.6 3.6c-.5 1.6-2 3.1-1.2 5.4 1.2.6 2.7.8 4.5.7.3-1.6 1.4-3.7 1-5.2-1-.7-2.8-.7-4.3-.9zm-12.4 5.6c-1.3.1-1.7 1.9-2.5 2.7.1 1.4-.4 2.2-.3 3.8-1.5 1.4-1.4 5.5-.7 7.8 1.1.3 1.2 1.5 2.9 1.2.2-.9.1-1.9.2-3.1.1-1 .7-2.3.7-3.6 0-.3-.3-.7-.2-1.2.4-2.4 2.7-6.9.5-7.5-.2-.1-.4-.1-.6-.1zm74.5.8c.4 0 .7 0 1 .2.3 1.5-1.1 1.5-2.4 1.4.1-.5-.4-.5-.2-1.2.4-.1 1-.4 1.6-.4zm-16.5 5.9c-.8 1.9-4.3 1.1-5.3 2.8 1.3 1.8.6 5.3.8 8.1 1.4 1.5 2.4 3.1 4.7 3.1.3-.5.8-.8 1.2-1.2-.3-4.6-.5-8.3-.7-12.6-.3 0-.4-.3-.7-.2zm13.1.6c1.1-.1 2.3.2 2.5.8-.5 1.1-4 1.2-4.7.5-.1-.8 1-1.2 2.2-1.3zm-3.5.5h.3c0 .3.1.5.3.5-.1 1.2-1.5 1.1-2.6 1.2 0-.3-.1-.4-.3-.5 0-.4.3-.5.3-.9.8.1 1.2-.3 2-.3zm5.6 4.6c.5 0 1 .1.9.7.1 1-1.7.8-2.6.9-.9.2-2.1.8-3.1 0-.1-1 3-1.6 4.3-1.6h.5z"/></svg>