<svg xmlns="http://www.w3.org/2000/svg" viewBox="0 0 240 120"><path d="M228.5 105.8V54.95l-4.4-6.9 4.4-7.6-4.4-7.6 4.4-7.3v-5.6l-10.6-7.4-10.1 8.9v32.7h-11.9c-17.7 0-20.7 15.2-20.7 25.9 0 12.9 4.6 27.35 22.2 27.35 8.2 0 13.3-2 16.3-5.9l4.4 4.3zm-31.1-21.55c0-4.1 3.1-4.8 7.2-4.4 2.6.3 3.1 1.6 3.2 3v5.8c-.3 3.4-3.2 4-7.2 3.7-2.7-.2-3.2-1.5-3.2-3.1zm-76.9-13.6c0 12 6.2 18.1 29.1 18.1v3.3c-2.9.3-5.8.5-8.5.5-6.6 0-12.8-.9-18.7-2.7l-2.7 14.55c7.2 2.1 15.5 2.9 23.1 2.9 13.6 0 26.6-.6 26.6-18.55 0-10.1-5.1-17.3-28.3-17.3v-3.3c2.3-.2 4.8-.4 7.1-.4 5.3 0 10.7.6 16.3 2.3l2.2-14.3c-6.8-2.2-15-3.1-22.7-3.1-12.8 0-23.5 3.1-23.5 18zm-54.11 0c0 12 6.2 18.1 29.1 18.1v3.3c-2.9.3-5.6.5-8.4.5-6.6 0-12.8-.9-18.8-2.7l-2.7 14.55c7.2 2.1 15.5 2.9 23.3 2.9 13.41 0 26.41-.6 26.41-18.55 0-10.1-5.1-17.3-28.01-17.3v-3.3c2.2-.2 4.5-.4 7-.4 5.1 0 10.51.6 16.11 2.3l2.3-14.3c-6.9-2.2-15.11-3.1-22.51-3.1-13 0-23.8 3.1-23.8 18zm-54.06 0c0 12 6.2 18.1 29.06 18.1v3.3c-2.8.3-5.5.5-8.42.5-6.4 0-12.79-.9-18.78-2.7l-2.68 14.55c7.22 2.1 15.68 2.9 23.32 2.9 13.46 0 26.46-.6 26.46-18.55 0-10.1-5.2-17.3-28.11-17.3v-3.3c2.27-.2 4.51-.4 7.01-.4 5.2 0 10.5.6 16.1 2.3l2.3-14.3c-6.8-2.2-15.1-3.1-22.5-3.1-12.82 0-23.76 3.1-23.76 18z"/></svg>