<svg xmlns="http://www.w3.org/2000/svg" viewBox="0 0 595.3 225.4"><path class="st0" d="M362.1 71.9h3.6v11.7c0 1.1 0 1.8-.1 2.2 0 .4-.1.8-.3 1.3-.2.6-.4 1.1-.8 1.6s-.8.8-1.3 1c-1.1.4-2.7.7-5 .7-1.6 0-2.8-.1-3.6-.3-.8-.2-1.4-.6-1.9-1.1-.6-.7-1-1.8-1.1-3.2h3.9v.1c.1.5.4.8.7.9.4.2 1.1.2 2.1.2s1.7-.1 2.2-.2c.4-.1.8-.3 1-.6.2-.3.3-.6.4-.9.1-.3.1-.9.1-1.8v-1.1h-.1c-.4.8-.9 1.3-1.5 1.6-.6.3-1.5.4-2.8.4-1.3 0-2.3-.1-3.1-.2-.7-.2-1.3-.4-1.8-.8-.5-.5-.9-1.1-1.1-1.9-.2-.8-.3-2-.3-3.6 0-2 .2-3.3.6-4.1.4-.8 1-1.4 1.8-1.7.8-.3 2.1-.5 3.8-.5 1.3 0 2.3.1 2.9.4.6.3 1.1.8 1.5 1.6h.2v-1.7zm-3.4 3.3c-1.4 0-2.4.2-2.8.5-.3.2-.4.5-.5.8-.1.4-.2.9-.2 1.6 0 .8.1 1.4.2 1.8.1.4.4.6.8.8.5.2 1.2.3 2.3.3 1.5 0 2.4-.2 2.9-.6.2-.2.4-.5.5-.8.1-.3.1-.8.1-1.5s-.1-1.3-.2-1.7c-.1-.4-.3-.6-.6-.8-.5-.3-1.3-.4-2.5-.4zM381.2 80.5h3.8c-.1 1.4-.4 2.4-1 3-.5.5-1.2.9-2.1 1.1-.9.2-2.3.3-4.1.3-1.5 0-2.6-.1-3.4-.3-.8-.2-1.4-.5-1.9-.9-.5-.5-.8-1.1-1-1.9-.2-.8-.3-2-.3-3.6 0-1.2 0-2.1.1-2.7.1-.6.2-1.2.4-1.6.4-1 1.1-1.7 2.2-2 .9-.3 2.3-.4 4.3-.4 1.7 0 2.9.1 3.6.2 1.2.3 2.1.8 2.6 1.7.5.9.7 2.4.7 4.5v1.3h-10c0 .6 0 1.1.1 1.4.1.3.2.5.4.7.4.3 1.2.5 2.6.5.9 0 1.5 0 1.9-.1.4-.1.7-.2.9-.4.1-.1.1-.4.2-.8zm0-3.8c0-.5 0-.8-.1-1 0-.2-.1-.4-.2-.5-.3-.4-1.2-.6-2.7-.6-1.3 0-2.1.1-2.6.4-.4.3-.6.9-.7 1.7h6.3zM390.6 71.9h3.6v1.9h.2c.3-.8.8-1.4 1.5-1.8.7-.3 1.6-.5 2.8-.5 1.2 0 2.2.1 2.9.4.7.2 1.3.7 1.7 1.2.5.6.8 1.2.9 2 .1.7.2 1.9.2 3.7v5.8h-3.8v-5.8c0-1 0-1.7-.1-2.1-.1-.4-.2-.7-.4-.9-.4-.5-1.2-.7-2.6-.7-1.3 0-2.2.3-2.6.8-.2.3-.4.7-.5 1.1-.1.4-.1 1.2-.1 2.4v5.1h-3.8V71.9zM411.4 69h3.8v2.9h6v3.4h-6V79c0 1 .1 1.6.2 1.9.2.4.6.7 1.4.7.7 0 1.2-.2 1.4-.6.1-.2.1-.3.1-.5v-1.2h3.5c0 1.2-.1 2.1-.2 2.6s-.3 1-.6 1.5c-.4.6-.9 1-1.6 1.3-.7.2-1.7.4-3 .4-1.2 0-2.1-.1-2.7-.2-.6-.2-1.1-.5-1.5-.9-.3-.3-.5-.7-.6-1.1-.1-.4-.2-.9-.2-1.6v-5.7h-2v-3.4h2V69zM436.8 80.5h3.8c-.1 1.4-.4 2.4-1 3-.5.5-1.2.9-2.1 1.1-.9.2-2.3.3-4.1.3-1.5 0-2.6-.1-3.4-.3-.8-.2-1.4-.5-1.9-.9-.5-.5-.8-1.1-1-1.9-.2-.8-.3-2-.3-3.6 0-1.2 0-2.1.1-2.7.1-.6.2-1.2.4-1.6.4-1 1.1-1.7 2.2-2 .9-.3 2.3-.4 4.3-.4 1.7 0 2.9.1 3.6.2 1.2.3 2.1.8 2.6 1.7.5.9.7 2.4.7 4.5v1.3h-10c0 .6 0 1.1.1 1.4.1.3.2.5.4.7.4.3 1.2.5 2.6.5.9 0 1.5 0 1.9-.1.4-.1.7-.2.9-.4 0-.1.1-.4.2-.8zm0-3.8c0-.5 0-.8-.1-1 0-.2-.1-.4-.2-.5-.3-.4-1.2-.6-2.6-.6-1.3 0-2.1.1-2.6.4-.4.3-.6.9-.7 1.7h6.2zM351.6 129.9V112h3.6v1.7h.2c.3-.8.8-1.3 1.5-1.6.7-.3 1.7-.4 3.2-.4 1.3 0 2.3.1 3.1.3.7.2 1.3.6 1.8 1.1.4.5.7 1.1.8 1.8.1.7.2 1.9.2 3.5 0 1.1 0 1.9-.1 2.5-.1.6-.2 1.2-.4 1.6-.3.9-.9 1.6-1.7 1.9-.8.4-2.1.5-3.9.5-1.3 0-2.3-.1-2.9-.4-.6-.3-1.1-.8-1.5-1.6h-.2v6.9h-3.7zm7.3-14.7c-1.6 0-2.6.2-3 .6-.4.4-.6 1.3-.6 2.6 0 .7.1 1.3.2 1.6.1.4.3.6.5.8.4.3 1.3.5 2.7.5 1.4 0 2.3-.2 2.7-.5.2-.2.4-.5.5-.9.1-.4.1-1 .1-1.9 0-.8-.1-1.3-.2-1.7-.1-.3-.3-.6-.6-.8-.2-.2-1-.3-2.3-.3zM371.6 111.9h3.6v1.9h.2c.4-.8.8-1.4 1.4-1.7.6-.3 1.4-.5 2.5-.5 1.5 0 2.6.4 3.2 1.1.6.8.9 2.1.9 4v.9h-3.6c0-.7-.1-1.3-.2-1.6-.2-.6-.9-.8-1.8-.8s-1.6.3-1.9.9c-.2.3-.3.7-.4 1.1-.1.5-.1 1.2-.1 2.1v5.3h-3.8v-12.7zM395.7 111.6c1.7 0 3 .1 3.9.3.9.2 1.5.5 2 .9.5.5.9 1 1 1.8.2.7.3 1.9.3 3.5 0 1.2 0 2.1-.1 2.6-.1.6-.1 1.1-.3 1.6-.4 1.2-1.1 1.9-2.2 2.3-.9.3-2.5.4-4.6.4-1.9 0-3.3-.1-4.1-.3-.8-.2-1.5-.5-2-1s-.8-1.1-.9-1.9c-.2-.8-.2-2.1-.2-3.9 0-1 0-1.8.1-2.4.1-.5.2-1 .4-1.5.4-.9 1-1.5 2-1.9.8-.3 2.4-.5 4.7-.5zm.1 3.6c-1.3 0-2.1.1-2.6.4-.3.2-.6.5-.7.9-.1.4-.2 1.1-.2 1.9 0 .8.1 1.4.2 1.8.1.4.3.6.6.8.5.3 1.4.4 2.6.4 1.4 0 2.4-.2 2.8-.6.4-.4.6-1.2.6-2.6 0-.8-.1-1.5-.2-1.8-.1-.4-.4-.7-.7-.8-.4-.3-1.3-.4-2.4-.4zM418.3 119.5h3.9c0 1.1-.1 1.9-.3 2.4-.1.6-.4 1-.7 1.5-.5.6-1.2 1-2 1.2-.8.2-2.2.3-4.3.3-1.6 0-2.8-.1-3.5-.2-.8-.2-1.4-.5-1.9-.9s-.8-1.1-1-1.9c-.2-.8-.3-2-.3-3.7 0-1.5.1-2.7.3-3.5s.5-1.4.9-1.8c.5-.5 1.1-.8 2-1 .8-.2 2.1-.3 3.8-.3 1.7 0 3 .1 3.8.3s1.5.5 2 1c.4.4.7.9.9 1.5.2.6.3 1.5.3 2.7h-3.9c-.1-.7-.3-1.2-.8-1.5-.5-.3-1.2-.4-2.4-.4-1.1 0-1.9.1-2.4.4-.3.2-.5.5-.6.9-.1.4-.2 1.1-.2 1.9 0 .8.1 1.4.2 1.8.1.4.4.7.7.8.5.3 1.3.4 2.3.4 1.1 0 1.9-.1 2.3-.4.6-.3.8-.8.9-1.5zM437.4 120.5h3.8c-.1 1.4-.4 2.4-1 3-.5.5-1.2.9-2.1 1.1-.9.2-2.3.3-4.1.3-1.5 0-2.6-.1-3.4-.3-.8-.2-1.4-.5-1.9-.9-.5-.5-.8-1.1-1-1.9-.2-.8-.3-2-.3-3.6 0-1.2 0-2.1.1-2.7.1-.6.2-1.2.4-1.6.4-1 1.1-1.7 2.2-2 .9-.3 2.3-.4 4.3-.4 1.7 0 2.9.1 3.6.2 1.2.3 2.1.8 2.6 1.7.5.9.7 2.4.7 4.5v1.3h-10c0 .6 0 1.1.1 1.4.1.3.2.5.4.7.4.3 1.2.5 2.6.5.9 0 1.5 0 1.9-.1.4-.1.7-.2.9-.4.1-.1.1-.4.2-.8zm0-3.8c0-.5 0-.8-.1-1 0-.2-.1-.4-.2-.5-.3-.4-1.2-.6-2.6-.6-1.3 0-2.1.1-2.6.4-.4.3-.6.9-.7 1.7h6.2zM446.5 120.6h3.9c0 .5.3.9.7 1.1.5.2 1.3.3 2.5.3s2.1-.1 2.5-.2c.4-.2.7-.5.7-.9s-.2-.7-.6-.9c-.2-.1-1.3-.1-3.3-.1-1.8 0-3 0-3.4-.1-1.2-.2-2-.7-2.4-1.4-.3-.6-.5-1.3-.5-2.3 0-1.9.6-3.1 1.7-3.6.8-.4 2.6-.6 5.4-.6 1.7 0 3 .1 3.8.2.8.2 1.4.5 1.8.9.3.3.5.6.6 1 .1.4.2 1 .2 1.7h-3.9c-.1-.3-.2-.5-.3-.6-.3-.2-1.1-.4-2.4-.4-1.2 0-2 .1-2.5.2-.4.1-.7.4-.7.8 0 .5.3.8.9.8.5 0 2.2.1 5.2.1 1.4 0 2.5.3 3.1.9.6.6 1 1.6 1 3 0 1-.1 1.7-.4 2.3-.3.6-.7 1-1.2 1.3-.9.5-2.8.8-5.7.8-1.9 0-3.2-.1-4-.3-.8-.2-1.4-.5-1.9-1.1-.5-.6-.8-1.6-.8-2.9zM473.1 111.6c1.7 0 3 .1 3.9.3.9.2 1.5.5 2 .9.5.5.9 1 1 1.8.2.7.3 1.9.3 3.5 0 1.2 0 2.1-.1 2.6-.1.6-.2 1.1-.3 1.6-.4 1.2-1.1 1.9-2.2 2.3-.9.3-2.5.4-4.6.4-1.9 0-3.3-.1-4.1-.3-.8-.2-1.5-.5-2-1s-.8-1.1-.9-1.9c-.2-.8-.2-2.1-.2-3.9 0-1 0-1.8.1-2.4.1-.5.2-1 .4-1.5.4-.9 1-1.5 2-1.9.8-.3 2.4-.5 4.7-.5zm0 3.6c-1.3 0-2.1.1-2.6.4-.3.2-.6.5-.7.9-.1.4-.2 1.1-.2 1.9 0 .8.1 1.4.2 1.8.1.4.3.6.6.8.5.3 1.4.4 2.6.4 1.4 0 2.4-.2 2.8-.6.4-.4.6-1.2.6-2.6 0-.8-.1-1.5-.2-1.8-.1-.4-.4-.7-.7-.8-.3-.3-1.2-.4-2.4-.4zM485.6 120.6h3.9c0 .5.3.9.7 1.1.5.2 1.3.3 2.5.3s2.1-.1 2.5-.2c.4-.2.7-.5.7-.9s-.2-.7-.6-.9c-.2-.1-1.3-.1-3.3-.1-1.8 0-3 0-3.4-.1-1.2-.2-2-.7-2.4-1.4-.3-.6-.5-1.3-.5-2.3 0-1.9.6-3.1 1.7-3.6.8-.4 2.6-.6 5.4-.6 1.7 0 3 .1 3.8.2.8.2 1.4.5 1.8.9.3.3.5.6.6 1 .1.4.2 1 .2 1.7h-3.9c-.1-.3-.2-.5-.3-.6-.3-.2-1.1-.4-2.4-.4-1.2 0-2 .1-2.5.2-.4.1-.7.4-.7.8 0 .5.3.8.9.8.5 0 2.2.1 5.2.1 1.4 0 2.5.3 3.1.9.6.6 1 1.6 1 3 0 1-.1 1.7-.4 2.3-.3.6-.7 1-1.2 1.3-.9.5-2.8.8-5.7.8-1.9 0-3.2-.1-4-.3-.8-.2-1.4-.5-1.9-1.1-.5-.6-.8-1.6-.8-2.9zM352.8 149h3.8v2.9h6v3.4h-6v3.7c0 1 .1 1.6.2 1.9.2.4.6.7 1.4.7.7 0 1.2-.2 1.4-.6.1-.2.1-.3.1-.5v-1.2h3.5c0 1.2-.1 2.1-.2 2.6s-.3 1-.6 1.5c-.4.6-.9 1-1.6 1.3-.7.2-1.7.4-3 .4-1.2 0-2.1-.1-2.7-.2-.6-.2-1.1-.5-1.5-.9-.3-.3-.5-.7-.6-1.1-.1-.4-.2-.9-.2-1.6v-5.7h-2v-3.4h2V149zM378.1 160.5h3.8c-.1 1.4-.4 2.4-1 3-.5.5-1.2.9-2.1 1.1-.9.2-2.3.3-4.1.3-1.5 0-2.6-.1-3.4-.3-.8-.2-1.4-.5-1.9-.9-.5-.5-.8-1.1-1-1.9-.2-.8-.3-2-.3-3.6 0-1.2 0-2.1.1-2.7.1-.6.2-1.2.4-1.6.4-1 1.1-1.7 2.2-2 .9-.3 2.3-.4 4.3-.4 1.7 0 2.9.1 3.6.2 1.2.3 2.1.8 2.6 1.7.5.9.7 2.4.7 4.5v1.3h-10c0 .6 0 1.1.1 1.4.1.3.2.5.4.7.4.3 1.2.5 2.6.5.9 0 1.5 0 1.9-.1.4-.1.7-.2.9-.4 0-.1.1-.4.2-.8zm0-3.8c0-.5 0-.8-.1-1 0-.2-.1-.4-.2-.5-.3-.4-1.2-.6-2.6-.6-1.3 0-2.1.1-2.6.4-.4.3-.6.9-.7 1.7h6.2zM397.3 159.5h3.9c0 1.1-.1 1.9-.3 2.4-.1.6-.4 1-.7 1.5-.5.6-1.2 1-2 1.2-.8.2-2.2.3-4.3.3-1.6 0-2.8-.1-3.5-.2-.8-.2-1.4-.5-1.9-.9s-.8-1.1-1-1.9c-.2-.8-.3-2-.3-3.7 0-1.5.1-2.7.3-3.5.2-.8.5-1.4.9-1.8.5-.5 1.1-.8 2-1 .8-.2 2.1-.3 3.8-.3 1.7 0 3 .1 3.8.3s1.5.5 2 1c.4.4.7.9.9 1.5.2.6.3 1.5.3 2.7h-3.9c-.1-.7-.3-1.2-.8-1.5-.5-.3-1.2-.4-2.4-.4-1.1 0-1.9.1-2.4.4-.3.2-.5.5-.6.9-.1.4-.2 1.1-.2 1.9 0 .8.1 1.4.2 1.8.1.4.4.7.7.8.5.3 1.3.4 2.3.4 1.1 0 1.9-.1 2.3-.4.6-.3.9-.8.9-1.5zM406.7 151.9h3.6v1.9h.2c.3-.8.8-1.4 1.5-1.8.7-.3 1.6-.5 2.8-.5 1.2 0 2.2.1 2.9.4.7.2 1.3.7 1.7 1.2.5.6.8 1.2.9 2 .1.7.2 1.9.2 3.7v5.8h-3.8v-5.8c0-1 0-1.7-.1-2.1-.1-.4-.2-.7-.4-.9-.4-.5-1.2-.7-2.6-.7-1.3 0-2.2.3-2.6.8-.2.3-.4.7-.5 1.1-.1.4-.1 1.2-.1 2.4v5.1h-3.8v-12.6zM433.4 151.6c1.7 0 3 .1 3.9.3.9.2 1.5.5 2 .9.5.5.9 1 1 1.8.2.7.3 1.9.3 3.5 0 1.2 0 2.1-.1 2.6-.1.6-.1 1.1-.3 1.6-.4 1.2-1.1 1.9-2.2 2.3-.9.3-2.5.4-4.6.4-1.9 0-3.3-.1-4.1-.3-.8-.2-1.5-.5-2-1s-.8-1.1-.9-1.9c-.2-.8-.2-2.1-.2-3.9 0-1 0-1.8.1-2.4.1-.5.2-1 .4-1.5.4-.9 1-1.5 2-1.9.8-.3 2.4-.5 4.7-.5zm0 3.6c-1.3 0-2.1.1-2.6.4-.3.2-.6.5-.7.9-.1.4-.2 1.1-.2 1.9 0 .8.1 1.4.2 1.8.1.4.3.6.6.8.5.3 1.4.4 2.6.4 1.4 0 2.4-.2 2.8-.6.4-.4.6-1.2.6-2.6 0-.8-.1-1.5-.2-1.8-.1-.4-.4-.7-.7-.8-.4-.3-1.2-.4-2.4-.4zM446.1 146.7h3.8v17.8h-3.8v-17.8zM462.8 151.6c1.7 0 3 .1 3.9.3.9.2 1.5.5 2 .9.5.5.9 1 1 1.8.2.7.3 1.9.3 3.5 0 1.2 0 2.1-.1 2.6-.1.6-.1 1.1-.3 1.6-.4 1.2-1.1 1.9-2.2 2.3-.9.3-2.5.4-4.6.4-1.9 0-3.3-.1-4.1-.3-.8-.2-1.5-.5-2-1s-.8-1.1-.9-1.9c-.2-.8-.2-2.1-.2-3.9 0-1 0-1.8.1-2.4.1-.5.2-1 .4-1.5.4-.9 1-1.5 2-1.9.8-.3 2.4-.5 4.7-.5zm0 3.6c-1.3 0-2.1.1-2.6.4-.3.2-.6.5-.7.9-.1.4-.2 1.1-.2 1.9 0 .8.1 1.4.2 1.8.1.4.3.6.6.8.5.3 1.4.4 2.6.4 1.4 0 2.4-.2 2.8-.6.4-.4.6-1.2.6-2.6 0-.8-.1-1.5-.2-1.8-.1-.4-.4-.7-.7-.8-.4-.3-1.2-.4-2.4-.4zM486.1 151.9h3.6v11.7c0 1.1 0 1.8-.1 2.2 0 .4-.1.8-.3 1.3-.2.6-.4 1.1-.8 1.6s-.8.8-1.3 1c-1.1.4-2.7.7-5 .7-1.6 0-2.8-.1-3.6-.3-.8-.2-1.4-.6-1.9-1.1-.6-.7-1-1.8-1.1-3.2h3.9v.1c.1.5.4.8.7.9.4.2 1.1.2 2.1.2s1.7-.1 2.2-.2c.4-.1.8-.3 1-.6.2-.3.3-.6.4-.9.1-.3.1-.9.1-1.8v-1.1h-.1c-.4.8-.9 1.3-1.5 1.6-.6.3-1.5.4-2.8.4-1.3 0-2.3-.1-3.1-.2-.7-.2-1.3-.4-1.8-.8-.5-.5-.9-1.1-1.1-1.9-.2-.8-.3-2-.3-3.6 0-2 .2-3.3.6-4.1.4-.8 1-1.4 1.8-1.7.8-.3 2.1-.5 3.8-.5 1.3 0 2.3.1 2.9.4.6.3 1.1.8 1.5 1.6h.2v-1.7zm-3.5 3.3c-1.4 0-2.4.2-2.8.5-.3.2-.4.5-.5.8-.1.4-.2.9-.2 1.6 0 .8.1 1.4.2 1.8.1.4.4.6.8.8.5.2 1.2.3 2.3.3 1.5 0 2.4-.2 2.9-.6.2-.2.4-.5.5-.8.1-.3.1-.8.1-1.5s-.1-1.3-.2-1.7c-.1-.4-.3-.6-.6-.8-.5-.3-1.3-.4-2.5-.4zM495.4 151.9h3.8v12.7h-3.8v-12.7zm.1-2.1l3.5-6.2 2.3 2.7-4.6 4.8-1.2-1.3zM509 155.9h-3.8c0-1 .2-1.7.5-2.2.5-.8 1.2-1.4 2.1-1.6 1-.3 2.6-.4 4.9-.4 1.7 0 2.8.1 3.4.2.6.2 1.1.5 1.6 1 .3.4.6.9.7 1.5.1.6.2 1.5.2 2.6v7.6h-3.7v-1.7h-.2c-.3.7-.7 1.3-1.3 1.6-.3.2-.8.3-1.4.4-.6.1-1.5.1-2.8.1-1 0-1.8-.1-2.4-.2-.6-.2-1-.4-1.3-.8-.5-.6-.7-1.5-.7-2.9 0-1.5.3-2.5.9-3.2.5-.5 1.1-.8 1.8-1 .8-.2 2.2-.2 4.2-.2.9 0 1.5.1 1.9.2.4.1.7.4 1 .8h.2v-.7c0-1-.1-1.6-.4-1.9-.3-.3-1-.4-2.2-.4-1.4 0-2.2.1-2.5.2-.4.1-.6.4-.7 1zm2.6 3.3c-1.3 0-2.1.1-2.4.3-.4.2-.6.6-.6 1 0 .5.2.9.5 1 .4.2 1.1.3 2.1.3 1.3 0 2.2-.1 2.7-.3.5-.2.7-.6.7-1.1 0-.5-.2-.9-.6-1-.1-.1-1-.1-2.4-.2zM336.4 170.4h-4.3V65.7h4.3v104.7zM261.7 57.7c-32.8 0-59.3 26.6-59.3 59.3 0 32.8 26.6 59.3 59.3 59.3 32.8 0 59.3-26.6 59.3-59.3.1-32.7-26.5-59.3-59.3-59.3zm40.7 46.8h-35v37h-12.1v-37h-34V91.4h81.1v13.1zM136.7 57.4c-32.8 0-59.3 26.6-59.3 59.3 0 32.8 26.6 59.3 59.3 59.3 32.8 0 59.3-26.6 59.3-59.3.1-32.7-26.5-59.3-59.3-59.3zm40.7 47.1h-68v5.9h54.8c13.2 0 13.2 12.2 13.2 12.2v5.7c0 13.5-13.2 13.2-13.2 13.2H95.3v-13.2h68.9v-5.7h-54.8c-13.9 0-14.1-12.2-14.1-12.2v-5.9c0-12.8 14.1-13.1 14.1-13.1h68v13.1z"/></svg>