<svg xmlns="http://www.w3.org/2000/svg"   viewBox="0 0 243.3 64.78"> <path d="M 45.91,23.24 42.88,25.18 31.36,8.94 34.27,7 Z m -4.13,3.64 -2.42,2.79 -15.76,-13.1 2.43,-2.66 z m -3.75,4 -1.58,3.03 -17.81,-9.09 1.69,-3.03 z m -2.06,5.21 -0.85,3.51 -19.76,-4.84 0.85,-3.64 z M 14.72,39.41 35,41.28 34.66,44.9 14.38,43.03 Z m -4.08,-2.23 -3.64,0 0,20.6 35.15,0 0,-20.6 -3.64,0 0,16.97 -27.87,0 z m 3.63,9.7 20.61,0 0,3.63 -20.61,0 z m 217.03,7.15 -3.4,0 -3.5,-10.43 -3.5,10.43 -3.4,0 -5.1,-16.61 4.4,0 2.7,10.31 3.4,-10.31 3,0 3.4,10.31 2.6,-10.31 4.4,0 -5,16.61 z m -20.4,-1.82 c -1,1.09 -2.7,2.06 -5.3,2.06 -2.4,0 -4.1,-0.97 -5.2,-2.06 -1.4,-1.58 -1.9,-3.52 -1.9,-6.55 0,-3.03 0.4,-4.84 1.9,-6.42 1,-1.09 2.7,-2.06 5.2,-2.06 2.5,0 4.2,0.97 5.3,2.06 1.4,1.58 1.9,3.52 1.9,6.42 -0.1,3.16 -0.5,4.97 -1.9,6.55 z m -3.3,-10.54 c -0.5,-0.49 -1.1,-0.73 -2,-0.73 -0.8,0 -1.4,0.24 -1.9,0.73 -0.8,0.84 -1,2.3 -1,3.99 0,1.7 0.2,3.16 1,4.13 0.5,0.48 1.1,0.72 1.9,0.72 0.9,0 1.5,-0.24 2,-0.72 0.8,-0.85 1,-2.31 1,-4.13 0,-1.69 -0.2,-3.15 -1,-3.99 z m -21.8,-1.1 0,13.46 -4.2,0 0,-13.46 -1.6,0 0,-3.15 1.6,0 0,-2.06 c 0,-2.42 1.5,-4.72 4.9,-4.72 l 2.4,0 0,3.51 -1.6,0 c -0.9,0 -1.4,0.49 -1.4,1.46 l 0,1.81 3,0 0,3.15 -3.1,0 z m 9.8,13.46 c -3.4,0 -4.9,-2.43 -4.9,-4.73 l 0,-18.79 4.2,0 0,18.43 c 0,0.97 0.3,1.45 1.4,1.45 l 1.6,0 0,3.52 -2.3,0.12 z M 175.7,41.91 c -0.6,-0.61 -1.2,-0.97 -2.2,-0.97 -1.3,0 -2.6,0.97 -2.6,3.03 l 0,10.06 -4.2,0 0,-16.61 4.2,0 0,1.58 c 0.8,-0.97 2.4,-1.82 4.2,-1.82 1.6,0 2.8,0.36 3.9,1.58 l -3.3,3.15 z M 154.1,47 c 0,2.18 1.4,3.76 3.7,3.76 1.8,0 2.6,-0.49 3.7,-1.58 l 2.6,2.42 c -1.7,1.7 -3.3,2.67 -6.3,2.67 -3.9,0 -7.8,-1.82 -7.8,-8.61 0,-5.45 2.9,-8.48 7.3,-8.48 4.6,0 7.3,3.39 7.3,8 l 0,1.82 -10.5,0 z m 6,-4.61 c -0.5,-0.97 -1.4,-1.69 -2.8,-1.69 -1.5,0 -2.3,0.72 -2.8,1.69 -0.2,0.61 -0.4,1.09 -0.4,1.82 l 6.3,0 c 0,-0.73 -0.1,-1.21 -0.3,-1.82 z m -16,11.64 -3.3,0 -6.2,-16.61 4.4,0 3.4,10.31 3.4,-10.31 4.3,0 -6,16.61 z m -11.3,-1.82 c -1,1.09 -2.7,2.06 -5.2,2.06 -2.4,0 -4.1,-0.97 -5.2,-2.06 -1.5,-1.58 -2,-3.52 -2,-6.55 0,-3.03 0.4,-4.84 2,-6.42 1,-1.09 2.7,-2.06 5.2,-2.06 2.4,0 4.1,0.97 5.2,2.06 1.5,1.58 1.9,3.52 1.9,6.42 0,3.16 -0.4,4.97 -1.9,6.55 z m -3.3,-10.54 c -0.5,-0.49 -1.1,-0.73 -1.9,-0.73 -0.8,0 -1.5,0.24 -1.9,0.73 -0.9,0.84 -1,2.3 -1,3.99 0,1.7 0.1,3.16 1,4.13 0.4,0.48 1.1,0.72 1.9,0.72 0.8,0 1.4,-0.24 1.9,-0.72 0.9,-0.85 1,-2.31 1,-4.13 0,-1.69 0,-3.15 -1,-3.99 z m -12.7,12.36 -5.2,-8.49 -3.3,3.76 0,4.85 -2.4,0 0,-24.12 2.4,0 0,16.12 7.5,-8.61 3.1,0 -5.7,6.31 6.6,10.3 -3,-0.12 z M 98,54.27 c -4.2,0 -7.4,-2.79 -7.4,-8.48 0,-5.7 3.2,-8.49 7.4,-8.49 2.3,0 3.8,0.61 5.5,2.43 l -1.7,1.57 c -1.2,-1.33 -2.2,-1.82 -3.8,-1.82 -1.5,0 -3,0.61 -3.9,1.94 -0.7,1.09 -1,2.43 -1,4.49 0,2.06 0.3,3.39 1,4.48 0.9,1.21 2.2,1.94 3.9,1.94 1.6,0 2.6,-0.48 3.8,-1.94 l 1.7,1.58 c -1.7,1.69 -3.2,2.3 -5.5,2.3 z m -11.9,-0.24 0,-1.58 c -1.29,1.34 -2.5,1.82 -4.8,1.82 -2.31,0 -3.64,-0.48 -4.73,-1.58 -0.85,-0.84 -1.21,-2.06 -1.21,-3.39 0,-2.91 2.06,-4.85 5.69,-4.85 l 4.95,0 0,-1.57 c 0,-2.43 -1.19,-3.64 -4.22,-3.64 -2.18,0 -3.15,0.49 -4.24,1.94 l -1.46,-1.45 c 1.46,-1.94 3.16,-2.43 5.82,-2.43 4.5,0 6.7,1.94 6.7,5.58 l 0,11.27 -2.5,-0.12 z m 0,-7.64 -4.56,0 c -2.55,0 -3.76,0.97 -3.76,2.91 0,1.94 1.21,2.79 3.76,2.79 1.45,0 2.66,-0.12 3.76,-1.09 0.6,-0.49 0.8,-1.46 0.8,-2.91 l 0,-1.7 z m -14.26,7.64 c -2.79,0 -4.24,-1.94 -4.24,-4.49 l 0,-10.18 -2.06,0 0,-1.82 2.06,0 0,-5.21 2.42,0 0,5.21 3.52,0 0,1.82 -3.52,0 0,10.18 c 0,1.58 0.73,2.43 2.31,2.43 l 1.33,0 0,2.06 -1.82,0 z m -14.18,0.24 c -2.79,0 -4.97,-0.61 -6.79,-2.42 l 1.58,-1.58 c 1.33,1.33 3.15,1.94 5.21,1.94 2.79,0 4.49,-0.97 4.49,-2.91 0,-1.45 -0.85,-2.3 -2.79,-2.42 L 56.57,46.63 C 53.3,46.39 51.6,44.94 51.6,42.15 c 0,-3.03 2.55,-4.85 6.06,-4.85 2.43,0 4.49,0.61 5.94,1.82 l -1.58,1.58 c -1.21,-0.97 -2.66,-1.34 -4.48,-1.34 -2.42,0 -3.76,1.09 -3.76,2.79 0,1.45 0.85,2.3 2.91,2.42 l 2.67,0.25 c 2.91,0.24 4.85,1.33 4.85,4.48 0.24,3.15 -2.55,4.97 -6.55,4.97 z" /></svg>
