<svg xmlns="http://www.w3.org/2000/svg" viewBox="0 0 600 400"><path d="M294.2 359.07c2.51-7.613 4.725-14.317 6.927-21.025 1.372-4.178 2.698-8.37 4.1-12.54.296-.882.208-2.232 1.588-2.265 3.275-.078 6.554-.113 9.827-.014 1.554.047 1.354 1.6 1.67 2.588 3.15 9.878 6.24 19.777 9.415 29.648.4 1.24.428 2.697 1.705 3.763 2.84-11.12 5.727-22.114 8.4-33.16.56-2.306 1.43-3.223 3.815-2.915 3.077.398 7.283-1.323 8.93.746 1.118 1.404-1.18 5.578-2.03 8.49-4.265 14.614-8.605 29.207-12.788 43.844-.63 2.204-1.48 3.036-3.892 3.004-8-.107-8.013.01-10.513-7.783-3.2-9.98-6.384-19.966-9.58-29.948-.024-.076-.134-.125-.548-.49-1.33 4.065-2.628 7.96-3.876 11.87-2.534 7.95-5.086 15.892-7.526 23.87-.542 1.77-1.35 2.445-3.276 2.47-8.083.107-8.096.182-10.452-7.728-4.538-15.237-9.015-30.493-13.638-45.704-.65-2.142-.426-2.788 1.903-2.647 2.928.177 5.875.1 8.81.02 1.426-.038 2.155.244 2.546 1.863 2.674 11.073 5.49 22.11 8.483 34.043zM228.202 350.918c0-8.24.066-16.482-.043-24.72-.03-2.212.377-3.11 2.9-3.075 10.835.155 21.674.118 32.51.02 2.108-.018 2.924.36 2.918 2.728-.02 8.767.077 8.767-8.74 8.767-4.966 0-9.935.078-14.9-.04-1.81-.043-2.224.542-2.263 2.295-.182 8.07-.243 8.07 7.664 8.068 4.74 0 9.483.075 14.222-.038 1.863-.044 2.502.455 2.54 2.427.174 9.073.238 9.07-8.72 9.072-4.515 0-9.032.058-13.546-.028-1.573-.03-2.076.4-2.16 2.06-.464 9.328-.516 9.325 8.82 9.326 5.307 0 10.613.073 15.917-.034 1.86-.038 2.49.437 2.532 2.417.195 9.007.264 9.005-8.79 9.006-9.258 0-18.516-.104-27.77.064-2.624.048-3.192-.79-3.15-3.254.148-8.353.057-16.708.057-25.062zM537.586 321.805c5.195-.05 10.03 1.166 14.493 3.907 1.877 1.154 2.792 2.202.616 3.932-.698.555-1.23 1.318-1.832 1.992-2.56 2.866-4.503 6.467-9.408 2.55-2.604-2.08-6.56-1.39-9.724.277-3.815 2.01-3.98 6.32-.405 8.743 2.083 1.412 4.515 2.015 6.892 2.727 1.618.485 3.23.992 4.834 1.527 6.65 2.22 11.172 6.228 11.545 13.74.375 7.57-3.107 14.004-10.022 16.935-9.683 4.104-19.157 3.36-28.058-2.533-1.878-1.243-2.88-2.492-.517-4.267.71-.533 1.232-1.315 1.84-1.982 1.447-1.585 2.616-3.794 4.412-4.59 2.104-.935 3.2 2.018 5.052 2.836 3.687 1.627 7.31 2.237 11.108.587 1.965-.854 3.478-2.125 3.67-4.437.204-2.437-1.048-4.042-3.058-5.21-2.564-1.492-5.426-2.194-8.188-3.164-1.702-.597-3.408-1.183-5.096-1.817-14.072-5.284-11.276-21.647-3.142-27.33 4.062-2.838 9-4.446 14.984-4.425zM184.807 283.436c0 7.55-.095 15.005.057 22.454.047 2.292-.745 3.26-2.828 2.65-1.687-.49-4.862 1.87-4.944-1.715-.238-10.496-.053-21-.118-31.502-.01-1.695.65-2.002 2.183-2.073 9.5-.437 9.494-.473 12.63 8.424 1.637 4.645 3.285 9.287 5.163 14.593 2.563-7.154 4.95-13.562 7.126-20.042.7-2.08 1.528-3.015 3.95-2.998 8.94.06 8.943-.05 8.942 8.9 0 7.904-.09 15.81.05 23.712.04 2.27-.643 2.842-2.848 2.805-5.136-.087-5.137.033-5.136-5.202 0-6.66 0-13.317-.513-20.12-1.188 3.362-2.4 6.717-3.56 10.09-1.47 4.26-3.063 8.49-4.278 12.824-.67 2.395-2.135 2.4-4.04 2.4-1.833 0-3.055-.174-3.714-2.355-2.216-7.332-4.71-14.58-7.09-21.86-.136-.418-.143-.9-1.03-.986zM167.395 63.596c-5.02-3.48-9.257-6.264-13.304-9.3-1.595-1.197-2.653-1.03-4.13.042-4.1 2.976-8.297 5.82-13.194 9.23 1.444-4.89 2.364-9.128 3.963-13.09 1.42-3.52.957-5.666-2.402-7.717-3.64-2.222-6.882-5.1-10.284-8.613 4.628 0 9.27-.2 13.88.07 3.187.186 4.56-1 5.392-4.013 1.21-4.39 2.957-8.632 4.747-13.71 1.954 5.566 3.726 10.263 5.223 15.046.615 1.965 1.546 2.663 3.58 2.613 5.03-.124 10.066-.04 15.1-.04l.195.87c-3.81 2.897-7.506 5.964-11.474 8.625-2.324 1.558-2.637 3.038-1.73 5.56 1.594 4.425 2.793 8.99 4.44 14.428zM503.3 291.92c0 5.503-.097 9.888.045 14.265.062 1.908-.493 2.716-2.41 2.413-.11-.017-.227-.003-.34 0-5.056.084-5.055.084-5.053-4.85.003-9.152.08-18.305-.045-27.454-.032-2.308.5-3.138 2.952-3.064 4.848.147 4.855.002 4.862 4.824.005 3 0 5.998 0 9.83 3.825-4.062 7.323-7.37 10.317-11.087 2.3-2.857 4.888-3.988 8.422-3.536 1.423.183 2.89.03 5.256.03-3.572 3.725-6.647 6.897-9.682 10.107-1.935 2.046-5.198 4.054-5.347 6.25-.17 2.488 3.318 4.464 5.237 6.64 3.484 3.953 7.05 7.833 11.078 12.293-3.75 0-6.84-.034-9.93.016-1.396.022-1.916-1.062-2.625-1.88-4.048-4.66-8.06-9.352-12.74-14.797zM453.78 286.19c0 3.835.29 7.698-.064 11.5-.676 7.245-6.345 11.76-14.417 11.9-7.986.136-13.93-4.28-14.79-11.48-.912-7.636-.197-15.338-.367-23.01-.028-1.25.38-1.94 1.736-1.804.334.033.676.002 1.015-.005 5.093-.102 5.096-.102 5.1 4.844.004 5.306-.037 10.613.014 15.92.047 5.04 2.784 8.188 7.03 8.228 4.208.04 7.07-3.167 7.12-8.14.057-6.097.115-12.197-.036-18.29-.054-2.166.663-2.666 2.693-2.602 6.363.2 5.135-.635 5.196 5.15.027 2.595.005 5.193.005 7.79h-.24zM553.91 276.217c-.744.845-1.54 1.646-2.217 2.54-1.575 2.075-3.135 3.726-5.858 1.44-.593-.497-1.73-.477-2.613-.472-2.354.013-4.785.38-5.266 3.152-.444 2.558 1.73 3.4 3.69 4.084 1.91.668 3.89 1.14 5.78 1.86 3.592 1.367 6.25 3.602 6.604 7.76.386 4.522-1.013 8.24-4.963 10.737-5.285 3.34-13.905 2.84-18.904-.913-1.3-.977-1.637-1.69-.312-2.826a10.33 10.33 0 0 0 1.61-1.735c1.437-1.973 2.734-3.14 5.132-.882 1.69 1.59 4.148 1.688 6.424 1.036 1.558-.446 3.004-1.227 3.17-3.093.166-1.837-.934-2.943-2.528-3.56-2.2-.855-4.442-1.603-6.648-2.443-5.188-1.976-7.31-4.588-7.345-8.982-.04-4.643 2.674-8.474 7.326-10.346 5.643-2.27 12.298-1.258 16.92 2.645zM281.507 272.285c1.438.244 2.895.408 4.308.75 2.193.533 5.324 1.195 5.478 3.16.123 1.574-2.62 3.366-4.078 5.07-.854 1-1.33-.004-1.913-.35-2.043-1.217-4.236-1.55-6.51-.954-1.603.42-2.947 1.353-3.057 3.17-.1 1.672 1.03 2.743 2.446 3.307 2.09.83 4.267 1.43 6.387 2.185 5.256 1.87 7.334 4.49 7.388 9.246.057 5.01-2.604 8.9-7.416 10.567-5.655 1.958-11.07 1.444-16.192-1.794-1.554-.98-2.12-1.895-.472-3.263.43-.357.837-.77 1.16-1.226 1.576-2.232 3.057-3.44 5.725-1.023 1.69 1.53 4.17 1.536 6.445.75 1.464-.504 2.683-1.302 2.867-2.98.188-1.712-.887-2.796-2.265-3.427-1.728-.792-3.556-1.376-5.363-1.985-6.848-2.307-9.283-5.22-8.795-10.584.51-5.61 4.728-9.566 11.13-10.375.888-.112 1.802-.015 2.703-.015l.024-.225zM490.18 277.538c-.925.81-1.81 1.504-2.6 2.292-1.854 1.847-3.492 2.924-6.136.787-1.987-1.606-4.773-1.19-7.183-.438-4.25 1.326-7.17 6.192-6.953 11.276.228 5.307 3.336 9.528 7.89 10.59 2.782.647 5.555.332 7.57-1.74 1.562-1.61 2.507-1.392 4.11-.16 4.733 3.632 4.554 5.07-1.23 7.774-6.448 3.013-15.33 1.71-20.618-3.025-5.477-4.904-7.355-13.3-4.666-20.848 2.418-6.784 8.645-11.214 16.336-11.587 5.165-.25 9.823.872 13.48 5.078zM253.84 273.272c-3.906 5.953-7.32 11.372-10.973 16.625-1.692 2.434-2.575 4.875-2.334 7.852.2 2.467-.168 4.986.088 7.443.305 2.914-.87 3.576-3.565 3.462-4.386-.185-4.76-.066-4.306-4.548.744-7.356-1.115-13.637-5.78-19.377-2.736-3.366-4.838-7.248-7.568-11.42 2.88 0 5.193.12 7.487-.04 1.72-.12 2.644.535 3.43 2.013 1.902 3.582 3.965 7.078 6.233 11.082 2.06-3.352 4.19-6.33 5.793-9.566 1.4-2.825 3.284-3.96 6.348-3.56 1.434.187 2.91.032 5.147.032zM127.378 96.62c1.254 3.477 2.57 6.346 3.294 9.358.69 2.875 2.228 3.694 4.96 3.53 2.974-.176 5.966-.04 9.084.7-2.74 2.09-5.414 4.278-8.25 6.23-1.497 1.032-1.72 2.05-1.165 3.687 1.115 3.286 2.04 6.637 3.276 10.737-3.3-2.3-6.056-4.09-8.663-6.078-1.73-1.32-3.073-1.642-4.95-.072-2.483 2.077-5.293 3.765-8.685 6.122 1.093-3.66 1.69-6.642 2.877-9.366 1.247-2.864.443-4.46-2.04-6-2.456-1.524-4.66-3.458-6.91-6.067 3.524 0 7.05-.076 10.573.035 1.635.05 2.397-.514 2.883-2.085 1.053-3.407 2.322-6.747 3.718-10.73zM304.478 294.146c0-3.836-.105-7.675.044-11.505.077-1.966-.59-2.626-2.49-2.446-1.34.127-2.733-.158-4.052.055-3.088.498-3.725-.8-3.696-3.702.027-2.702.787-3.386 3.42-3.32 7.33.18 14.67.21 21.995-.012 2.892-.088 2.783 1.414 2.644 3.328-.125 1.72.843 3.783-2.533 3.75-7.496-.07-7.503.114-7.496 7.81.005 5.866-.072 11.735.087 17.597.065 2.35-.645 3.296-3.017 2.918-.88-.14-1.814-.12-2.7-.004-1.836.24-2.286-.566-2.24-2.286.108-4.058.034-8.12.035-12.182zM577.005 375.21c-2.807 4.895-2.807 4.895-5.522.395-1.09 1.05 1.093 3.987-1.602 3.69-1.965-.218-.61-2.63-.933-4.02-.15-.64-.132-1.365 0-2.013.19-.926-.814-2.368 1.086-2.628 1.565-.215 2.58.254 2.967 1.9.203.863.607 1.68.935 2.56 1.213-.802 1.34-2.125 1.686-3.244.5-1.61 1.693-1.2 2.738-1.18 1.38.026 1.126 1.16 1.145 1.997a87.51 87.51 0 0 1-.04 4.723c-.025.833.335 1.96-1.057 2.06-1.71.124-1.205-1.21-1.296-2.117-.065-.654-.067-1.314-.105-2.123zM563.948 370.648c.9 0 1.81-.076 2.7.02 1.142.122 1.306 1.36.558 1.49-3.277.566-1.76 2.995-2.115 4.7-.195.947.703 2.578-1.163 2.568-1.823-.01-1.005-1.612-1.193-2.584-.33-1.715 1.132-4.11-2.116-4.727-.844-.16-.434-1.337.63-1.437.893-.084 1.8-.017 2.7-.017v-.012zM166.824 183.496c-.008-.113-.015-.226-.024-.338-.464-5.652-.45-5.757-5.947-6.475-2.148-.28-3.06-1.083-3.238-3.272-.378-4.61-1.194-9.19-1.45-13.806-.157-2.81-1.19-3.513-3.91-3.5-21.016.11-42.033.062-63.05.062-21.243 0-42.486.046-63.73-.058-2.653-.013-3.515.813-3.682 3.41-.298 4.614-1.11 9.194-1.45 13.808-.162 2.197-.995 3.03-3.144 3.333-5.48.772-5.466.87-6.005 6.406-.044.45-.083.9-.12 1.35-.422 5.217-.42 5.336 4.932 5.276 2.305-.026 3.17.63 3.22 3 .063 2.923.576 5.837.89 8.755 3.25 30.202 6.518 60.402 9.745 90.606a28458.94 28458.94 0 0 1 8.96 84.902c.21 2.013.886 2.578 2.912 2.574 31.525-.068 63.05-.067 94.576 0 2.09.003 2.62-.697 2.807-2.67.91-9.555 1.99-19.094 3.01-28.64 3.053-28.52 6.11-57.038 9.157-85.558 2.52-23.58 5.054-47.16 7.496-70.75.19-1.834.913-2.14 2.53-2.192 5.958-.194 5.956-.25 5.514-6.224zM88.828 306.53c-18.618-.096-33.52-15.154-33.397-33.746.123-18.404 15.15-33.338 33.532-33.326 18.517.012 33.728 15.208 33.655 33.622-.073 18.516-15.253 33.545-33.79 33.45z"/><path d="M489.447 323.956c-8.42-1.336-16.893-.43-25.33-.822-2.363-.11-2.798.722-2.77 2.85.105 8.348.042 16.696.04 25.044 0 8.46.013 16.92-.01 25.382-.005 1.557-.105 2.853 2.186 2.794 7.553-.195 15.136.137 22.66-.407 8.493-.615 15.995-3.932 21.387-10.83 13.157-16.834 3.288-40.61-18.163-44.01zm10.82 27.87c-.522 8.902-5.482 14.31-14.466 15.458-3.228.413-6.524.274-9.78.52-1.91.146-2.238-.736-2.21-2.393.085-4.733.03-9.47.033-14.206.003-4.736.01-9.472-.003-14.207-.004-1.26-.214-2.496 1.78-2.386 3.925.22 7.873-.25 11.77.736 8.694 2.197 13.366 8.112 12.876 16.48zM454.694 378.432c-4.066-6.765-8.108-13.544-12.23-20.274-1.038-1.694-1.728-2.715 1.096-3.387 3.02-.718 5.37-2.798 7.055-5.484 6.382-10.164 1-23.047-10.75-25.282-9.275-1.764-18.7-.447-28.047-.834-2.18-.09-1.595 1.435-1.597 2.525-.026 17.052 0 34.104-.048 51.157-.004 1.627.24 2.48 2.163 2.357 2.587-.167 5.198-.15 7.788-.013 1.914.1 2.498-.557 2.46-2.475-.118-5.757-.06-11.518-.025-17.277.005-.844-.402-1.842.526-2.497 1.415-.998 5.565.068 6.427 1.697 3.22 6.08 6.412 12.173 9.597 18.27.63 1.21 1.105 2.35 2.898 2.294 4.168-.13 8.342-.042 12.693-.042.002-.54.04-.663-.004-.736zM435.42 345.83c-3.787.875-7.64.377-11.462.516-1.27.046-1.453-.706-1.432-1.73.033-1.577.01-3.157.01-4.736.004-6.334.004-6.31 6.322-6.336 2.27-.01 4.533.072 6.71.687 2.915.825 4.56 2.75 4.554 5.907-.006 3.2-1.698 4.998-4.703 5.693zM214.326 367.22c-2.3-3.83-4.597-7.66-7.002-11.67 4.722-1.04 8.12-3.295 10.198-7.232 5.467-10.356-.027-22.167-11.474-24.345-8.83-1.68-17.806-.38-26.7-.842-2.486-.128-2.945.748-2.93 3.03.1 14.46.016 28.92.083 43.38.016 3.125-1.41 7.514.62 9.047 2.117 1.597 6.272.413 9.525.615 1.863.116 2.283-.65 2.26-2.342-.08-5.534-.1-11.07.02-16.603.026-1.203-1.11-3.342 1.362-3.42 2.047-.067 4.354-1 5.77 1.96 2.965 6.202 6.32 12.218 9.52 18.306.51.974.826 2.098 2.318 2.083 4.364-.046 8.73-.016 13.61-.016-2.578-4.295-4.88-8.122-7.18-11.95zm-12.472-21.413c-3.788.925-7.638.375-11.457.538-1.19.05-1.577-.502-1.54-1.624.053-1.577.013-3.158.013-4.738 0-6.445 0-6.42 6.565-6.44 2.157-.007 4.29.13 6.372.67 2.978.773 4.593 2.677 4.64 5.827.047 3.192-1.558 5.026-4.593 5.767zM403.437 376.283c-6.79-15.337-13.457-30.73-20.173-46.1-3.11-7.117-3.118-7.017-10.817-7.057-2.093-.01-2.892.813-3.61 2.577-2.034 5.005-4.264 9.93-6.41 14.89-5.488 12.69-10.972 25.382-16.674 38.573h6.668c6.982 0 6.984 0 9.506-6.31.418-1.045.905-2.077 1.19-3.16.47-1.778 1.372-2.474 3.35-2.417 5.636.162 11.284.163 16.92-.004 1.97-.058 2.658.745 3.395 2.375 1.42 3.137 1.528 7.675 4.46 9.1 2.846 1.38 6.855.246 10.336.468 2.745.175 2.883-.625 1.86-2.935zm-23.786-19.508c-.223-.017-.45 0-.674-.004l-10.417-.222c.29-3.51 2.28-6.436 3.35-9.68.736-2.23 1.707-4.38 2.846-7.258 2.218 5.6 4.132 10.504 6.114 15.38.55 1.356.225 1.895-1.22 1.785zM419.615 297.527c-.595-3.822-2.998-6.126-7.03-7.45 4.788-3 6.118-5.805 5.173-10.152-.74-3.4-3.432-5.577-7.964-6.24-5.39-.786-10.827-.215-16.24-.405-1.76-.062-1.652 1.033-1.65 2.212.015 10.39.013 20.78.02 31.17.002.86-.314 1.98 1.146 1.916 6.52-.28 13.135.91 19.546-.92 5.097-1.452 7.727-5.454 7-10.13zm-19.898-16.897c.003-.185.215-.516.353-.528 2.9-.254 5.88-.73 8.57.725 1.348.73 1.96 2.158 1.368 3.785-1.04 2.85-3.47 2.79-5.875 2.764h-.583c-1.096-.38-3.202.883-3.718-.722-.59-1.832-.143-4.002-.115-6.024zm9.194 20.986c-2.623.806-5.35.383-8.033.442-.835.018-1.2-.48-1.224-1.263-.02-.673-.023-1.347-.03-2.02-.04-4.76-.04-4.76 4.835-4.836 1.446.147 2.936.126 4.328.485 1.715.443 3.03 1.45 3.004 3.52-.025 1.974-1.136 3.135-2.88 3.67zM379.135 295.515c-.484-.812-1.286-1.396.377-2.236 5.25-2.654 6.89-6.134 5.898-11.504-.89-4.82-3.755-7.41-9.427-8.175-5.166-.696-10.38-.156-15.57-.315-1.294-.04-1.788.424-1.783 1.765.04 10.62.043 21.24-.004 31.86-.006 1.346.438 1.802 1.742 1.7 1.123-.086 2.272-.125 3.385.01 1.993.244 2.833-.32 2.664-2.527-.214-2.808-.138-5.65-.01-8.467.05-1.042-.86-2.663 1.127-3 1.697-.29 2.933.096 3.773 1.922 1.603 3.48 3.496 6.825 5.28 10.22.524.995.988 1.944 2.463 1.87 2.45-.12 4.913-.032 7.926-.032-2.79-4.654-5.325-8.867-7.84-13.09zm-5.246-7.768c-1.103.185-2.237.177-3.407.26-1.273-.493-3.418.838-3.872-.84-.565-2.09-.165-4.45-.088-6.69.007-.204.705-.553 1.078-.55 2.13.025 4.283-.026 6.384.263 2.077.286 3.52 1.507 3.512 3.827-.008 2.358-1.526 3.38-3.607 3.73zM354.284 306.567c-4.652-10.49-9.25-21.007-13.712-31.58-.96-2.27-2.64-1.64-4.2-1.666-1.47-.025-2.985-.465-3.865 1.63-4.66 11.082-9.48 22.098-14.47 33.667 2.617 0 4.75-.07 6.877.025 1.36.06 2.25-.48 2.432-1.745.8-5.525 4.357-6.57 9.136-5.822.88.137 1.817.122 2.7-.01 2.997-.453 4.962.46 5.558 3.685.58 3.147 2.52 4.44 5.718 3.87.763-.136 1.574-.013 2.362.012 1.535.048 2.306-.166 1.464-2.065zm-15.504-11.903c-6.986.65-6.995.68-4.5-5.764.57-1.468 1.145-2.934 2.035-5.216 1.41 3.563 2.47 6.374 3.64 9.14.558 1.326.3 1.702-1.175 1.84z"/></svg>