<svg xmlns="http://www.w3.org/2000/svg" viewBox="0 0 1066 528.11"><path d="M454.7 370.31c.9 2.6 2 5.6 3 8.7.8 2.6 4.7 14 8.1 23.7h-22.9c2.1-5.5 4.7-13.3 8.6-23.5 1.2-3.2 2.3-6.2 3.2-8.9zm195.3-11.4h15.2c8.8.1 21.9.1 24.7.9 3.2 1.9 5 5 4.9 8.2-.3 1.8-1.1 4.9-5.4 6.7-2.4.9-6.2 1.4-25.2 1.4-6.1 0-10.7-.2-14.3-.5.1-2.6.1-5.7.1-8.9v-7.8zm-10.8-11c.1.2-.1 37.4-.1 37.4s6.4 1.7 25.1 1.7c21.1 0 25.1-.3 29.5-2.4 15.1-6.4 16-25.7 1.5-34.3-3.1-1.7-7.3-2.2-30-2.3l-26-.1zm-184-10.7c-.2.3-7.1 19.3-13.9 38.2-7 19.1-14 38.1-14 38.3.1 0 24.9-.2 40.7-.2h13c-.4-.6-25.7-75.3-25.8-76.3zm-331.07-21.8h44.52s24.41 69 24.71 69l24.4-69h49.94l11.8 34.7c6.4 18.6 12.1 33.5 12.8 33.5.8-.7 24-67.8 24-67.8h44.6l-53.8 157.4h-31.2s-33.14-95.8-32.94-96.2l-34.73 95h-30.8l-53.3-156.6zm732.27-.6h100.4l-.1 41.1s-44.5-.1-67.1-.1h-12.8c-3.8.7-6.3 9-5.3 12.8.6 1.7 4.6 7.6 9.1 13.3 4.4 5.5 11.8 14.6 16 20 11.4 14.1 12.9 16.7 13.9 25 1.7 13.3-4.6 27.6-16.2 36.9-11.4 9.4-10.8 9.4-96.9 9.4h-3.8c-52.4 0-80.1-.4-84-1.3-7.1-1.7-18.6-11-48.7-39.9-10.9-10.4-20.9-19.4-21.5-19.4l-.2 60.7-48.8-.2-.4-156.6h108.9c32.7 1.3 55.2 33.9 50.6 54.9-1 4.6-3.5 11.5-5.7 15.3-4.4 7.4-15.3 16.9-24.4 21-3.3 1.6-6.1 3.3-6.1 4 0 2.3 10.9 13.1 15.2 14.8 3.2 1.5 13.5 1.7 58.8 1.7h14.4c45.3 0 43-.2 46.4-7.6 2.4-5.3.7-8.4-16.7-27.9-21.8-21.7-19.5-32-19.7-39.8-.2-9.1 6.9-38.1 44.7-38.1zm-439.6-.7H491l55 157.6-44.7.3-7.5-23.8-79.9-.5-7 23.7-44.4-.5 54.3-156.8zm-307.9-9.7l4.91 14.5 53.3 156.5 2.51 7.6h46.22l2.58-7.3 24.04-66.1c2.12 6.1 4.4 12.7 6.54 19.2 8.3 23.8 16.6 47.9 16.6 47.9l2.6 7.3h46.5l2.6-7.4 54-157.1 4.9-14.5h-67.7l-2.6 7.3c-3.9 11.9-9.3 27.4-14 40.5-.7-2.2-1.4-4.1-2-6.4l-11.9-34.7-2.6-7.3H210l-2.59 7.3-14.19 40.4c-4.72-13.1-10.15-28.7-14.32-40.4l-2.56-7.3H108.9zm747.5-.5c-21.9 0-34.8 8.5-41.6 15.8-11.4 11.7-14.2 26.4-13.9 33.6.1.5.1 1.1 0 1.6 0 11.4 1.6 24.3 22.7 45.3 4.1 4.6 11 12.5 13.7 16.5-5.7.7-20.3.7-35.6.7H787.3c-27.2 0-50 0-54.9-1-.4-.4-1.5-1.2-2.5-2 9.4-5.8 18.9-14.8 23.4-22.3 2.5-4.6 5.6-12.7 6.8-18.5 3-13.1-1.8-28.9-12.2-42.4-12.1-15.5-29.9-24.8-48.7-25.5H579v10.8l.5 156.6v10.7h10.8l48.8.2 10.8.1.1-10.8.3-36.4c1.1 1 1.9 1.9 3 3.1 33 31.5 44 40.2 53.9 42.6 2.6.5 7.1 1.4 86.4 1.4h3.8c42.9 0 64.3 0 77.3-1.1 14.6-1.5 19.3-4.8 26.3-10.6l.4-.1c14.6-11.9 22.1-29.8 19.9-46.7-1.4-11-4.3-15.6-16.3-30.5l-3.4-4.4c-4.2-5-9-11.3-12.5-15.5-2.8-3.5-4.8-6.4-6.1-8.4h6.6c22.4 0 66.5.2 67.1.2h10.9v-11l.1-41.1v-10.9H856.4zm-447.3-.7l-2.5 7.4-54.2 156.8-4.9 14.3 15 .1 44.4.5 8 .1 2.5-7.9 4.7-15.9 63.7.5 5 16.1 2.5 7.8h8l44.7-.3h15.2l-4.9-14.4-54.9-157.7-2.6-7.4h-89.7zm612.9-35.4q0 5.8-3.4 9.7-3.6 4.1-9.5 4.1-1.3 0-4.6-.7-1.4-.3-2-.2-.5 0-.9.1-.5.4-.8.5v-9.3l1.2 1.2q.9.8 2.4 1.5 1.9.8 3.6.8 3 0 4.9-1.5 2.2-1.6 2.6-4.6v-.5-.4q0-2.1-1.1-3.8-1-1.4-2.9-2.9-1.2-.8-3.7-2.3-3.4-2.1-5-4.4-2-2.7-2-6.2 0-4.1 2.6-7 2.7-2.8 6.6-2.8 1.5 0 3.5.4 2.1.4 2.3.4.4.1.8-.1.5-.3.7-.4v8.6l-1.4-1.4q-.9-.8-2.1-1.2-1.3-.4-2.8-.4-1.4 0-2.6 1.1-1.1 1.1-1.1 2.7 0 2.2 1.7 3.6 2.6 1.7 4.6 3 4.1 2.7 5.9 5.1 2.5 3.2 2.5 7.3zm-54.4-27.9l-.5 1q-.2.3-.2 1-.1.8-.1 1.2v39.2l-21.8-25.3v21.1q0 .8.1 1.2 0 .4.2.9l.5 1.1h-8.1l.6-1.1q.1-.3.2-1 .1-.6.1-1.1v-38.9l21.7 25.4v-21.5-1.3q-.1-.4-.3-.9-.1-.5-.5-1h8.1zm-63.6 41.4h-23l.5-1.1q.3-.8.3-2.1v-35.5q0-.9-.3-1.7l-.5-1h23v6.9q-.3-.2-.7-.4l-.6-.2q-.3-.1-.8-.2H888.3v11.4h9.1q.3-.1.7-.2.4-.2 1-.6v7.8q-.3-.2-.7-.4-.4-.2-.8-.3-.4-.1-.9-.1h-8.4v11.5H901.4q.8 0 1.3-.1.4-.1.6-.3.2 0 .7-.3v6.9zm-55.4 0h-8.9l.2-.8q.2-.5.2-.9 0-2.2-1.3-4.9-1.2-2.8-3.3-5.1-2.4-2.5-5.1-3.8-2.8-1.4-5.8-1.8h-.6V279.31q.1.5.3.9l.5 1.1h-8.1l.6-1.1q.2-.8.2-2.1v-35.5q0-.9-.2-1.7l-.6-1h8.1l-.5 1q-.1.3-.2.8t-.1.9v15.2l10.1-12.5q.8-1 1.5-2 .9-1.4.9-2 0-.5-.1-.7-.1-.2-.5-.7h10.9q-.8.4-1.6 1.2-.4.5-1.4 1.7l-2.5 3.1-11 13.7 1.8.6q2.7.8 4.7 2.1 1.6 1 3.9 3.3 2.6 2.5 4.3 6.2 1.5 3.1 2.6 7.6.1.4.4.9.6.9.6 1zm-63.5 0h-9.9q.3-.5.4-.8.1-.3.1-.8 0-.4-.1-.8t-.3-1l-2.9-6.5h-14.8l-2.8 7q-.2.4-.3.9-.2.4-.2.8 0 .3.1.6.2.2.5.6h-9.6q1.1-.8 1.2-1 .3-.3.6-.8.5-1.1.8-1.8.5-.9.9-1.9l15.4-37.5 18.4 39.8q.3.5.4.8.1.1.6.8.7.9 1.5 1.6zm-15.3-15.9l-5.3-11.7-4.7 11.7h10zm-45.7-25.5q-.9.7-1.5 1.5-.4.4-.6.9-.3.3-.4.8l-16.6 39.2-7.7-16.7-7.2 16.7-16.5-37q-.4-.9-.8-1.9-.3-.5-.9-1.7-.3-.7-.9-1.2-.1-.1-.9-.6h9.6q-.2.2-.3.5-.2.3-.2.7 0 .7.4 1.6l10.6 24.3 3.7-9-5.6-12.7q-.4-1.1-.8-1.9-.6-1.2-.9-1.7-.2-.4-.5-.7-.3-.4-1.3-1.1h9.6q-.2.2-.3.5-.2.3-.2.7 0 .8.4 1.6l10.7 24.2 9.4-23.6q.2-.5.4-.9.1-.5.1-1 0-.8-.5-1.5h9.7zm-74.2 41.4h-10q.3-.5.4-.8.2-.3.2-.8 0-.4-.1-.8t-.4-1l-2.9-6.5h-14.8l-2.8 7q-.2.4-.3.9-.1.4-.1.8 0 .3.1.6.1.2.4.6H610q1.1-.8 1.3-1 .3-.3.5-.8.6-1.1.9-1.8.4-.9.8-1.9l15.4-37.5 18.5 39.8q.2.5.4.8 0 .1.5.8.7.9 1.6 1.6zm-15.4-15.9l-5.3-11.7-4.7 11.7h10zm-96.1 15.9h-23.1l.6-1.1q.3-.8.3-2.1v-35.5q0-.9-.3-1.7l-.6-1h23.1v6.9q-.4-.2-.7-.4-.4-.1-.7-.2-.2-.1-.8-.2h-13.6v11.4h9.1l.8-.2q.4-.2.9-.6v7.8q-.2-.2-.6-.4-.4-.2-.8-.3-.4-.1-.9-.1h-8.5v11.5h13.2q.8 0 1.2-.1.4-.1.7-.3.1 0 .7-.3v6.9zm-55.5.3l-.8-.4q-.4-.2-.7-.1-2.1.5-4 .8-2 .4-3.1.4h-.6q-.4-.1-.6-.1-4.9-.5-8.8-2.5-4-2.1-7.2-6.1-2.2-2.8-3.4-6.2-1.1-3.4-1.1-6.9 0-4.6 1.9-8.9 1.9-4.2 5.5-7.4 2.8-2.4 5.7-3.6 3.5-1.5 7.2-1.5 2.5 0 5 .4.3 0 3.1.6.4.1.9-.1.4-.1.9-.3v8.1l-1.8-.8q-1.3-.7-3.2-1.1-1.8-.4-3.7-.4h-.9q-.4.1-.6.1-5.6.5-9.5 4.9-3.9 4.2-3.9 10.1 0 6.1 4.6 10.7 4.5 4.5 10 4.5 2 0 4-.5 2-.4 3.1-1l2-1v8.3zm-62.9-.3h-8.8l.4-.8q.2-.5.2-1 0-3.5-1.5-6.3-1.4-2.9-4.4-5.5-1.6-1.5-3.9-2.3-2.6-1.1-4.5-1.1h-1v15q.1.5.2.9l.6 1.1h-8.1l.5-1.1q.3-.8.3-2.1v-38.3q.3.1 1 .3.6.2.9.2l3.8-.8q1.9-.4 3.3-.4 4.8 0 8.3 2.5 3.7 2.6 4.8 7.4.2.6.3 1.4.1.8.1 1.4 0 2.3-.8 4.3-.7 2-2.2 3.6-.5.5-1.2.9-1.3.7-1.3.8l1.5.9q1.7 1 2.4 1.5 1 .7 2.1 1.8 2.7 2.7 4.4 7.4.8 2.2 1.7 6.5.1.4.2.7.2.3.7 1.1zm-14.1-28.1q.1-.3.1-.6.1-.4.1-.8 0-1.6-.7-2.8-.6-1.3-2-2.3-1.2-.9-2.2-1.1-.9-.3-2.2-.3-.8 0-1.5.3l-1 .5v12.1l.9.2q.3.1.8.2h1.1q.3 0 .7-.1 2.4-.5 3.8-1.6 1.7-1.3 2.1-3.7zm-49 7.3q0 8.9-6.2 15.3t-15.2 6.4q-8.9 0-15.2-6.4-6.4-6.4-6.4-15 0-8.9 5.9-15.3 6.2-6.7 15.2-6.7t15.4 6.4q6.5 6.3 6.5 15.3zm-6.6 0q0-6.2-4.5-10.6-4.5-4.4-10.8-4.4-6 0-10.3 4.6-4.3 4.6-4.3 10.7 0 6 4.5 10.4t10.6 4.4q6.3 0 10.6-4.4 4.2-4.5 4.2-10.7zm-68.9-13.7q-.4-.2-.7-.4-.4-.2-.7-.3-.2 0-.7-.1H265.7v11.4h8.4q.7 0 1.2-.2t.8-.3q.3-.2.4-.3v7.8q-.4-.3-.7-.5l-.8-.2q-.4-.1-.9-.1h-8.4v15.7q0 .4.2 1 .2.5.6 1h-8.2l.6-1.1q.1-.3.2-.9.1-.7.1-1.2v-35.5q0-.6-.1-.9 0-.3-.2-.8l-.6-1h23.1v6.9zm-94.94 34.5H163.4l.55-1.1q.28-.8.28-2.1v-35.5q0-.9-.28-1.7l-.55-1h23.06v6.9q-.34-.2-.72-.4-.35-.1-.62-.2-.24-.1-.83-.2H170.7v11.4H179.82q.34-.1.72-.2.41-.2.96-.6v7.8q-.27-.2-.65-.4t-.79-.3q-.41-.1-.9-.1H170.7v11.5H183.88q.79 0 1.2-.1.42-.1.69-.3.14 0 .69-.3v6.9zm-56.1 0h-8.12l.55-1.1q.14-.3.21-1 .1-.7.1-1.1v-14.1h-14.6V279.31q.1.5.24.9l.55 1.1h-8.12l.55-1.1q.27-.8.27-2.1v-35.5q0-.9-.27-1.7l-.55-1h8.12l-.55 1q-.14.3-.21.8-.1.5-.1.9v14.9h14.6v-14.9-.9q0-.3-.24-.8l-.55-1h8.12l-.55 1q-.27.8-.27 1.7v36.7q0 .4.24.9l.55 1.1zm-61.67-34.5q-.34-.2-.72-.4-.34-.1-.62-.2-.27-.1-.83-.2h-6.91V279.31q.1.5.21.9l.55 1.1h-8.12l.55-1.1q.13-.3.2-.9.1-.7.1-1.2v-32.1h-7q-.4 0-.9.2t-1.2.6v-6.9h24.69v6.9zM599.9 111.04c3.9 11.69 8.5 24.76 11.6 34.28l-23.9.14c3.3-9.66 8-22.73 12.3-34.42zM793 98.66h13.6c19 0 23 .27 25.3 1.23 4.2 2.04 4.7 2.86 5 6.8.5 3.95-.1 5.44-4 8.3-.1.12-.2.12-.2.27-2.5.41-11.9.41-23.8.41H793V98.66zm-10.8-10.87v38.75h26.7c26.1 0 26.9 0 30.7-2.85 6.7-4.89 9.1-10.06 8.3-17.96-.8-8.15-3.9-12.36-11.8-15.76-4.4-1.92-8.6-2.18-29.5-2.18h-24.4zm-182-9.4c-.3 0-28.3 77.94-27.7 77.94l53.9-.11c.4 0-26.1-77.79-26.2-77.83zm132.6-22.225h56.8c35.2 0 59.9.505 64.5 1.32 10.9 1.892 20.7 7.7 28.1 16.625 7.7 9.31 9.6 13.8 10.5 26.59 1.4 18.1-7.2 33.6-24.2 43.67-4.8 3-9.9 5.85-11.3 6.41-1.8.94-1.6 1.75 2 5.84 2.1 2.58 6.1 6.41 8.5 8.29l4.6 3.6 84.4 1.1.9 43.1h-51.9c-39.8 0-52.9-.3-56.4-1.5-5.9-1.9-19.2-13.4-46.7-39.6L783 152.93l.1 59.78h-50.3V56.165zm-171.9 0H636l54.8 158.045-44.6-.2-7.2-23.6-79.5-.5-7.1 22.8h-45.5l54-156.545zM509.5 54.9v38.87h-77.9v118.94h-46.4V93.77l-91 .13c-11.1 0-12.3 8.85-12.3 12.11 0 4.08 2.5 8.29 17.2 26.93 9.6 12.12 18.4 24.09 19.5 26.79 6.4 14.58-1.8 37.18-16.6 46.38-10.7 6.5-8.9 6.6-87.52 6.6h-97.51v-43.6H250.2l3.9-2.7c2.6-1.9 4.2-4.53 4.7-7.89.8-5.03.5-5.71-16.04-24.22-19.43-21.89-21.48-25.99-20.52-39.86 1.23-16 15.37-39.17 40.36-39.17l246.9-.37zm212.3-9.61v178.42h72.3l-.1-11v-34.2l1.1 1c34.1 32.3 44 39.7 50.6 42 5 1.6 13.6 2.2 60 2.2H968.8l-.2-11.2-1-43-.2-10.59-10.5-.12-80.8-1.1-1.7-1.37c-.5-.4-1.2-.94-1.9-1.62.7-.27 1.3-.68 1.7-.96 20.2-12.1 31.1-31.83 29.2-53.86-1.1-14.97-3.7-21.7-12.9-32.718-9-10.842-21.2-18.092-34.6-20.412-7.2-1.3-44.6-1.47-66.3-1.47h-67.8zm-168.6 0l-2.4 7.33-54.2 156.69-4.9 14.4h68.8l2.3-7.7 4.6-14.9 63.5.2 4.8 15.9 2.5 7.6h7.9l44.7.5h15.3l-5-14.4L646.3 52.6l-2.5-7.31h-90.6zM509.5 44l-246.9.38c-14.2 0-27.61 6.14-37.23 17.296-7.89 9.044-13.19 20.934-13.87 31.954-1.36 18.37 2.86 25.03 23.09 47.88 6.06 6.67 11.58 12.93 13.41 15.64v.14c0 .14 0 .14-.1.14l-1.23.81H106.08v65.47h108.4c38.82 0 58.02 0 69.22-.8 13-1 17-3.3 23.3-7.1l.8-.3c19.1-12.1 29.2-40.8 20.7-60.12-2.5-5.98-19-26.8-20.7-29.25-5.3-6.52-13.7-17.27-15.1-20.41 0-.26 0-.53.1-.82.3 0 .7-.12 1.4-.12l80.2-.13v119.05H442.5V104.66h77.9V44h-10.9z"/></svg>