<svg xmlns="http://www.w3.org/2000/svg" viewBox="0 0 137.5 71.04"><path d="M74.79 54.97c.72 0 1.31.6 1.31 1.32 0 .71-.59 1.3-1.31 1.3-.72 0-1.31-.59-1.31-1.3 0-.72.59-1.32 1.31-1.32zm43.41.36c.8 0 1.5.66 1.5 1.48 0 .83-.7 1.5-1.5 1.49-.8 0-1.5-.66-1.5-1.49 0-.82.7-1.49 1.5-1.48zm-3.9-1.42c.8 0 1.5.66 1.5 1.48 0 .83-.7 1.5-1.5 1.49-.8 0-1.5-.66-1.5-1.49 0-.82.7-1.49 1.5-1.48zm-48.74-.78c1.2 0 2.18.98 2.18 2.18 0 1.2-.98 2.18-2.18 2.18-1.2 0-2.18-.98-2.18-2.18 0-1.2.98-2.18 2.18-2.18zm4.25-.29c.82 0 1.49.67 1.49 1.49s-.67 1.48-1.49 1.48-1.48-.66-1.48-1.48.66-1.49 1.48-1.49zm-42.64 0c.82 0 1.48.67 1.48 1.49s-.66 1.48-1.48 1.48-1.49-.66-1.49-1.48.67-1.49 1.49-1.49zm90.03-6.05c1.8 0 3.2 1.41 3.2 3.17s-1.4 3.19-3.2 3.17c-1.7 0-3.1-1.45-3.1-3.17s1.4-3.13 3.1-3.17zm6.3-1.06c.8 0 1.5.66 1.5 1.49s-.7 1.5-1.5 1.49c-.8 0-1.5-.66-1.5-1.49s.7-1.5 1.5-1.49zm-105.58-.9c2.46 0 4.46 2 4.46 4.46s-2 4.46-4.46 4.46-4.46-2-4.46-4.46 2-4.46 4.46-4.46zm-3.19-4.07c.82 0 1.48.66 1.48 1.48s-.66 1.49-1.48 1.49-1.49-.67-1.49-1.49.67-1.48 1.49-1.48zm6.21-4.72a2.975 2.975 0 1 1-2.97 2.97 2.97 2.97 0 0 1 2.97-2.97zm60.03-2.13c-2.01 0-2.39 3-1.47 4.36 2.21 3.07 4.64-3.85 1.47-4.36zm36.83-9.15c.8 0 1.5.66 1.5 1.49s-.7 1.5-1.5 1.49c-.8 0-1.5-.66-1.5-1.49s.7-1.5 1.5-1.49zm4.3-1.42c.8 0 1.5.66 1.5 1.49s-.7 1.5-1.5 1.49c-.8 0-1.5-.66-1.5-1.49s.7-1.5 1.5-1.49zm-103.82 0c.82 0 1.49.67 1.49 1.49s-.67 1.49-1.49 1.49-1.49-.67-1.49-1.49.67-1.49 1.49-1.49zM24.8 18a3.18 3.18 0 0 1 3.18 3.17 3.18 3.18 0 0 1-3.18 3.17 3.17 3.17 0 0 1 0-6.34zm92.5-.4c1.7 0 3 1.32 3 2.97 0 1.66-1.3 3-3 2.98-1.7 0-3-1.32-3-2.98 0-1.65 1.3-2.98 3-2.97zm-43.22-.26c.82 0 1.48.67 1.48 1.49s-.66 1.48-1.48 1.48-1.49-.66-1.49-1.48.67-1.49 1.49-1.49zm3.91-1.07c.82 0 1.48.67 1.48 1.49s-.66 1.49-1.48 1.49-1.49-.67-1.49-1.49.67-1.49 1.49-1.49zm-36.96-.71c.82 0 1.48.67 1.48 1.49s-.66 1.49-1.48 1.49-1.49-.67-1.49-1.49.67-1.49 1.49-1.49zm69.67-.1c1.2 0 2.2.97 2.2 2.18 0 1.21-1 2.19-2.2 2.18-1.2 0-2.2-.97-2.2-2.18 0-1.21 1-2.19 2.2-2.18zm-21.92-.73c2.23 0 4.39 1.47 5.4 3.45.29 1.89.46 3.79.56 5.71 1.63-1.33 3.62-2.18 5.86-2.25 2.8-.2 5.7.3 8.2 1.66 4.6 1.61 5.8 8.8 1.2 11.07 1.4 1.82 3.8 5.33 3.2 8.55-.6 7.71-10.1 9.93-16.39 7.88a7.75 7.75 0 0 1-3.5-1.3c-1.72 1.82-4.5 2.68-7.03 1.66-1.69-1.56-3.24-.28-5.17 0-4.8.83-8.96-1.67-11.57-5.42-3.76 5.45-12.34 7.72-18.26 4.25a9.64 9.64 0 0 1-3.06-2.26c-3.42 4.1-10.61 4.62-15.42 2.77-5.65-.57-7.79-9.01-2.63-11.72-6.22-5.96-.52-17.17 7.68-17.12 2.72-.14 5.55.32 7.94 1.66.5.17.95.41 1.36.7.81-.82 1.88-1.39 3.23-1.55.48-.1.97 0 1.46 0 5.25.31 6.04 6.39 5.51 10.55.67 1.66-1.6 5.97 1.07 6.19 1.1-2.5 0-6.22.37-9.14-1.12-5.28 5.13-9.6 9.6-6.75.98.67 1.65 1.48 2.11 2.38 2.92-3.13 7.2-4.91 11.66-3.91-.32-3.47 2.51-7.15 6.17-7.02h.45zm-53.07-.34c1.2 0 2.18.98 2.18 2.18 0 1.2-.98 2.18-2.18 2.18-1.2 0-2.18-.98-2.18-2.18 0-1.2.98-2.18 2.18-2.18zm4.25-2.77c.82 0 1.49.66 1.49 1.48s-.67 1.49-1.49 1.49-1.49-.67-1.49-1.49.67-1.48 1.49-1.48zm.36-.62c-1.48 0-2.67 1.19-2.67 2.67v.1a3.91 3.91 0 0 0-5.34 3.64c0 .99.38 1.95 1.06 2.67-.78.34-1.53.73-2.24 1.17a5.684 5.684 0 0 0-5.57-4.55c-3.14 0-5.69 2.54-5.69 5.68 0 .23.1.46.1.69-.4-.22-.84-.33-1.29-.33-1.47 0-2.67 1.19-2.67 2.66a2.663 2.663 0 0 0 5.25.64c.99 1.18 2.42 1.9 3.95 2.01-.49 1.16-.83 2.41-.97 3.74-.34 1.27-.16 2.52.11 3.74-.81-.46-1.72-.71-2.65-.71-2.94 0-5.33 2.39-5.33 5.33v.32c-.38-.21-.81-.32-1.25-.32a2.663 2.663 0 0 0-1.44 4.91 7.988 7.988 0 0 0-2.65 5.93c0 4.42 3.58 8 8 8 2.37 0 4.62-1.06 6.14-2.89.45.9 1.37 1.47 2.38 1.47 1.31 0 2.43-.96 2.63-2.25 1.23.63 2.57 1.05 3.97 1.19 5.1 1.34 10.68.53 15.31-1.78 3.82 2.29 8.46 2.99 12.83 2.21a3.91 3.91 0 0 0 7.48.59h.43c.76 0 1.48-.33 1.98-.89a2.67 2.67 0 0 0 2.64 2.31 2.66 2.66 0 0 0 2.65-2.39c2.73.47 5.58.37 8.21 0 3.14 1.32 6.69.26 9.67-.61 5.35 2.08 12.25 1.55 17.15-1.62-.3.46-.5 1.02-.5 1.59 0 1.44 1.2 2.62 2.6 2.66.5 0 1-.13 1.4-.39.4 1.07 1.4 1.8 2.5 1.81 1.5 0 2.7-1.18 2.7-2.66 0-.46-.1-.91-.3-1.31 1.7-1.02 2.8-2.89 2.8-4.91 0-.24-.1-.48-.1-.72h.3c1.4 0 2.6-1.22 2.6-2.67 0-1.44-1.2-2.62-2.6-2.66-1 0-2 .6-2.4 1.53-.9-.7-2-1.11-3.2-1.16.6-3.27-.7-6.67-1.5-9.54 1.3-2.05 1.6-4.31 1.3-6.47h.1c1.2 0 2.3-.83 2.6-2.02.5.37 1 .58 1.6.6 1.5 0 2.7-1.18 2.7-2.67 0-1.18-.8-2.21-1.9-2.55.1-.39.1-.78.1-1.18 0-2.93-2.4-5.31-5.3-5.33-1.1 0-2.1.34-3 .95-.5-1.65-2.1-2.76-3.8-2.73-2.2 0-3.9 1.75-3.9 3.91 0 .24 0 .48.1.71-2.6-.61-5.4-.57-7.98-.26-1.31-4.49-6.03-7.46-10.65-7.11-3.55-.15-6.19 2.39-8.24 4.92-.5-.69-1.3-1.1-2.15-1.1-1.03 0-1.97.6-2.41 1.53-.44-.3-.97-.46-1.5-.46-1.47 0-2.67 1.19-2.67 2.66 0 .51.15 1.01.42 1.44-.82.1-1.64 0-2.46-.63-3.62-1.49-7.93-.22-10.85 1.7-3.12-2.77-7.8-2.6-11.48-1.7-1.18-.6-2.42-1.01-3.7-1.27.23-.4.35-.86.35-1.32 0-1.03-.6-1.96-1.53-2.4.3-.44.46-.97.46-1.5 0-1.46-1.23-2.63-2.69-2.62zm-9.81 21.68c0-2.56.86-4.59 2.58-6.09 1.58-1.37 3.56-2.05 5.93-2.05 2.24 0 4.29.62 6.18 1.84 1.22.79 1.84 1.8 1.84 3.03 0 .68-.21 1.27-.62 1.76-.41.49-.91.73-1.51.73-.36 0-.72-.1-1.11-.28-1.93-.98-3.62-1.47-5.07-1.47-1.11 0-1.67.45-1.67 1.34 0 .52.87 1.22 2.61 2.09 2.35 1.15 4 2.13 4.95 2.94 1.75 1.56 2.62 3.41 2.62 5.57 0 2.18-.86 3.83-2.58 4.94-1.5.99-3.45 1.48-5.84 1.48-2.87 0-5.31-.6-7.32-1.8-.9-.55-1.35-1.46-1.35-2.74 0-.77.2-1.42.61-1.97.41-.57.97-.85 1.68-.85.43 0 .9.12 1.39.36 2.29 1.07 4.02 1.6 5.19 1.6 1.09 0 1.64-.46 1.64-1.39 0-.57-.88-1.21-2.62-1.92-2.43-.99-4.06-1.78-4.91-2.38-1.74-1.25-2.62-2.83-2.62-4.74m17.62 6.46V28.59c0-1.03.33-1.85.98-2.45.58-.52 1.29-.78 2.13-.78.85 0 1.58.29 2.21.86.63.57.94 1.36.94 2.37v9.86c0 1.14.39 2.06 1.19 2.74.7.62 1.56.94 2.57.94.98 0 1.83-.32 2.54-.94.71-.66 1.06-1.57 1.06-2.74v-9.53c0-1.12.33-1.99.98-2.62.66-.63 1.45-.94 2.37-.94.9 0 1.68.31 2.33.94.66.63.99 1.5.99 2.62V39.8c0 3.4-1.75 5.93-5.24 7.56-3.35 1.58-6.61 1.71-9.77.37-3.52-1.5-5.28-4.36-5.28-8.59M80.88 31c1.45 0 2.58.55 3.4 1.64.7.95 1.05 2.15 1.05 3.6 0 1.53-.38 2.85-1.14 3.96-.85 1.2-1.95 1.8-3.31 1.8-1.5 0-2.68-.56-3.56-1.71-.79-1.04-1.18-2.31-1.18-3.81 0-1.47.39-2.72 1.18-3.76.88-1.14 2.06-1.72 3.56-1.72zm7.65-13.33c-.93 0-1.72.3-2.38.9-.65.6-.97 1.45-.97 2.54v5.28c-1.34-1.26-3.07-1.89-5.2-1.89-3.32 0-5.93 1.22-7.82 3.64-1.66 2.16-2.49 4.82-2.49 8.01 0 3.25.85 6.03 2.54 8.35 1.88 2.56 4.35 3.84 7.4 3.84 1.94 0 3.8-.79 5.6-2.37 0 .79.37 1.43 1.11 1.92.65.47 1.43.7 2.33.7.9 0 1.65-.23 2.25-.7.63-.46.93-1.12.93-1.96V21.11c0-1.09-.32-1.94-.97-2.54-.66-.6-1.43-.9-2.33-.9zm4.97 15.01c0-2.56.86-4.59 2.57-6.09 1.59-1.37 3.6-2.05 5.93-2.05 2.3 0 4.3.62 6.2 1.84 1.2.79 1.8 1.8 1.8 3.03 0 .68-.2 1.27-.6 1.76-.4.49-.9.73-1.5.73-.3 0-.7-.1-1.1-.28-1.9-.98-3.6-1.47-5.1-1.47-1.1 0-1.6.45-1.6 1.34 0 .52.8 1.22 2.6 2.09 2.3 1.15 4 2.13 4.9 2.94 1.8 1.56 2.7 3.41 2.7 5.57 0 2.18-.9 3.83-2.6 4.94-1.5.99-3.5 1.48-5.9 1.48-2.86 0-5.3-.6-7.32-1.8-.9-.55-1.35-1.46-1.35-2.74 0-.77.2-1.42.61-1.97.41-.57.97-.85 1.68-.85.44 0 .9.12 1.39.36 2.29 1.07 4.09 1.6 5.19 1.6 1.1 0 1.7-.46 1.7-1.39 0-.57-.9-1.21-2.6-1.92-2.5-.99-4.14-1.78-4.98-2.38-1.75-1.25-2.62-2.83-2.62-4.74"/></svg>