<svg xmlns="http://www.w3.org/2000/svg" viewBox="0 0 231.582 56.69"><path d="M13.345 46.424c-.243-.148-.496-.282-.73-.445-.697-.49-.87-1.123-.486-1.74.354-.57 1.1-.733 1.8-.338 1.534.863 3.053 1.75 4.577 2.632.808.467 1.612.94 2.417 1.41.158.192.445.164.603.356.57.314 1.157.6 1.705.95.484.306.62.197.616-.35-.016-1.676-.006-3.354-.006-5.03 0-1.888-.01-3.775.005-5.662.007-.95.67-1.57 1.464-1.382.772.182.99.755.988 1.48-.006 3.434-.005 6.868.003 10.3.002.277-.145.66.135.804.263.135.5-.188.743-.327 3.11-1.784 6.223-3.563 9.334-5.347 1.757-1.007 3.505-2.028 5.268-3.024.51-.288.35-.44-.042-.666-1.663-.956-3.314-1.932-4.974-2.895-1.214-.703-2.44-1.387-3.648-2.102-.588-.348-.75-1.045-.43-1.643.34-.634.98-.852 1.67-.464 2.015 1.132 4.007 2.303 6.01 3.454 1.03.59 2.065 1.173 3.16 1.795.016-.312.035-.518.035-.723.003-5.845.004-11.69-.005-17.534 0-.237.157-.564-.148-.7-.23-.104-.444.113-.64.227-3.76 2.17-7.52 4.343-11.275 6.524-3.058 1.776-6.103 3.574-9.165 5.345a3340.922 3340.922 0 0 1-11.76 6.76c-1.44.826-2.89 1.632-4.336 2.448-1.025.58-2.48-.03-2.775-1.187a5.848 5.848 0 0 1-.194-1.472c.01-6.185.008-12.37.008-18.556 0-1.926.758-3.41 2.47-4.388 4.086-2.335 8.16-4.688 12.235-7.043 1.575-.91 3.132-1.852 4.706-2.767 1.998-1.162 3.817-.632 5.66.492 2.746 1.674 5.56 3.235 8.343 4.847.27.157.536.326.8.497.676.44.894 1.053.59 1.65-.313.62-1.013.85-1.758.47-1.02-.516-2.005-1.1-2.993-1.675-2.147-1.252-4.285-2.517-6.427-3.776-.483-.285-.614-.1-.61.407.016 2.044.007 4.09.007 6.133 0 1.494.006 2.988-.002 4.482-.005.957-.456 1.5-1.218 1.503-.79.003-1.228-.508-1.23-1.482-.007-3.486.003-6.972-.016-10.457 0-.226.223-.623-.275-.68-.12.17-.328.206-.49.313-1.707.968-3.415 1.935-5.12 2.906-.493.28-.98.575-1.468.863-.16.186-.447.16-.603.355l-8.842 5.05c1.665.98 3.212 1.887 4.76 2.796.133.15.336.186.49.303 1.262.72 2.538 1.414 3.777 2.17.523.32.927.79.565 1.49-.392.755-.935 1.022-1.658.636-1.714-.915-3.39-1.902-5.077-2.87-1.216-.697-2.42-1.416-3.637-2.112-.317-.19-.553-.128-.548.31.002.132 0 .263 0 .393 0 5.626-.003 11.252.006 16.877 0 .267-.162.646.166.778.265.106.54-.143.785-.283 2.068-1.182 4.13-2.372 6.195-3.56.157-.11.364-.142.49-.304 2.03-1.186 4.06-2.372 6.092-3.555.156-.09.33-.152.496-.226.156-.114.36-.15.494-.3 3.168-1.848 6.33-3.703 9.504-5.54 2.74-1.59 5.492-3.16 8.24-4.738 1.576-.905 3.18-1.763 4.726-2.715 1.572-.97 3.192.462 3.185 1.9-.033 6.755-.01 13.51-.02 20.266-.003 1.282-.643 2.274-1.558 3.115-.122.153-.36.154-.455.342-2.964 1.72-5.928 3.44-8.892 5.158-2.558 1.483-5.11 2.98-7.68 4.44-1.623.925-3.24.887-4.875-.066-2.91-1.696-5.85-3.338-8.777-5.002-.136-.138-.34-.168-.478-.304zM155.04 13.708c-3.306-.862-6.745.722-8.297 3.75-.76 1.484-1.052 3.03-1.042 4.678.025 3.956.01 7.912.007 11.868 0 1.003-.474 1.594-1.234 1.55-.616-.036-1-.35-1.07-.984-.022-.208-.02-.418-.02-.628 0-6.864 0-13.728.004-20.59 0-.385-.085-.802.214-1.127.31-.335.667-.63 1.16-.465.61.202.92.674.94 1.297.03.875.008 1.75.1 2.7 2.25-3.62 5.536-4.874 9.542-4.182 2.708.468 4.68 2.086 5.85 4.61.16.22.3.19.428-.03.724-1.495 1.886-2.615 3.256-3.474 2.14-1.342 4.55-1.51 6.958-1.102 2.626.445 4.58 1.93 5.84 4.32.785 1.49 1.158 3.1 1.19 4.732.085 4.532.04 9.066.035 13.6-.002.82-.504 1.346-1.207 1.326-.69-.02-1.102-.494-1.103-1.32-.008-4.402.013-8.804-.02-13.206-.015-1.797-.423-3.502-1.494-5.01-.995-1.4-2.36-2.195-4.018-2.44-4.36-.64-7.7 1.835-8.54 5.897-.182.886-.243 1.758-.245 2.645-.008 3.957-.005 7.913-.002 11.87 0 .396.023.81-.23 1.13-.313.398-.77.57-1.252.396-.46-.168-.752-.507-.75-1.063.013-2.122.003-4.245 0-6.367 0-2.358.075-4.72-.03-7.074-.09-1.97-.482-3.893-1.882-5.442-.638-.705-1.352-1.29-2.272-1.584-.247-.17-.54-.202-.815-.28zM121.222 14.97c.238.4.397 1.032.732 1.145.543.184.552-.568.814-.89 1.49-1.825 3.26-3.246 5.633-3.626 3.303-.53 6.383-.08 8.774 2.565 1.05 1.16 1.702 2.538 2.006 4.076.297 1.17.36 2.367.364 3.562.017 4 .003 8 .012 12 0 .45-.04.88-.23 1.293-.368.476-.856.592-1.393.38-.612-.24-.655-.806-.655-1.357-.005-4.08.01-8.163-.01-12.244-.007-1.357-.103-2.702-.572-4.01-.852-2.384-2.48-3.874-4.963-4.277-2.28-.37-4.41.1-6.213 1.653-.094.08-.148.208-.22.314-.158.162-.335.306-.467.492-1.194 1.34-1.738 2.957-1.826 4.702-.096 1.906-.064 3.82-.07 5.73-.01 2.54.005 5.078-.008 7.617-.006.975-.352 1.43-1.042 1.46-.682.027-1.09-.29-1.168-.978-.035-.31-.025-.627-.028-.94-.042-4.476.103-8.953-.08-13.426a7.54 7.54 0 0 0-1.43-4.148c-.09-.216-.29-.338-.435-.507a.704.704 0 0 0-.466-.473c-.174-.14-.295-.34-.508-.436-2.458-1.806-6.842-1.612-9.278 1.263-1.565 1.846-2.166 3.99-2.156 6.367.017 3.93 0 7.86.01 11.792 0 .58-.08 1.077-.662 1.377-.52.27-1.206.077-1.437-.456a2.65 2.65 0 0 1-.207-1.068c.007-6.84.004-13.678.01-20.517 0-.258.034-.52.09-.773.13-.584.53-.96 1.105-.894.598.068 1.077.418 1.082 1.128.006.934 0 1.868.1 2.88 1.592-2.235 3.508-3.92 6.308-4.274.946-.22 1.892-.177 2.838.003 2.08.31 3.785 1.3 5.176 2.858.154.214.343.402.47.636zM217.306 13.717c-2.504-.465-4.898-.302-7.023 1.283-2.01 1.5-3.167 3.51-3.21 6.018-.076 4.27-.04 8.54-.04 12.81 0 .398-.027.774-.218 1.135-.273.516-.71.688-1.243.57-.488-.106-.81-.416-.843-.953a9.156 9.156 0 0 1-.017-.55c0-6.916-.002-13.832.002-20.748 0-.41-.08-.85.303-1.168.33-.273.663-.528 1.128-.332.595.25.865.73.877 1.347.018.913.005 1.827.005 2.945.892-1.254 1.695-2.333 2.847-3.06 3.12-1.967 6.39-2.144 9.76-.724 3.446 1.453 4.95 4.292 5.07 7.81.16 4.71.06 9.43.06 14.146 0 .91-.35 1.31-1.076 1.31-.74.002-1.155-.457-1.157-1.363-.01-4.06-.004-8.12-.005-12.182 0-1.096-.016-2.183-.322-3.26-.634-2.227-1.844-3.93-4.096-4.748-.262-.11-.534-.196-.804-.285zM83.79 31.332c2.06 2.502 4.79 2.853 7.717 2.265 2.397-.482 4.14-1.928 5.22-4.143.156-.32.34-.628.433-.977.376-1.07.518-2.167.51-3.305-.023-3.983-.008-7.965-.008-11.948 0-.502.01-.98.53-1.292.754-.452 1.575-.076 1.675.804.024.207.015.42.015.628 0 6.865.002 13.73-.003 20.595 0 .384.087.796-.172 1.14-.314.416-.76.584-1.242.42-.464-.16-.783-.514-.793-1.046-.014-.76 0-1.52-.016-2.28-.005-.25.08-.516-.12-.83-.682.873-1.302 1.75-2.142 2.44-2.237 1.84-4.802 2.39-7.615 2.034-2.477-.314-4.562-1.324-6.093-3.37-1.065-1.42-1.714-3.05-1.756-4.764-.12-4.923-.064-9.85-.088-14.776-.003-.71.393-1.1 1.008-1.184.557-.076.96.25 1.172.818.125.336.137.66.138 1 .002 4.008.006 8.017 0 12.026-.004 1.475.09 2.93.722 4.294.13.278.31.533.465.8.112.238.342.4.443.65zM73.423 14.667a87.85 87.85 0 0 1-.453-.193c-.26-.122-.555-.136-.806-.28-1.61-.512-3.252-.79-4.93-.474-1.466.277-2.762.852-3.52 2.278-.61 1.143-.668 3.205.9 4.227.743.485 1.5.94 2.364 1.184.212.102.443.163.648.284l2.338.665c.402.224.89.193 1.287.432 1.385.325 2.642.95 3.87 1.643.183.126.3.333.512.426 3.068 2.512 2.234 7.684-1.27 9.698-.494.283-.987.575-1.554.7-.2.14-.466.117-.662.266-1.868.387-3.75.41-5.604.007-2.1-.454-4.1-1.19-5.852-2.486-.34-.25-.68-.498-.76-.953-.1-.514.162-.855.566-1.098.49-.295.957-.143 1.386.152 1.295.89 2.662 1.652 4.18 2.063 2.204.597 4.43.858 6.595-.155 1.837-.86 2.852-2.534 2.472-4.612-.216-1.177-1.08-1.924-2.085-2.476-.916-.503-1.902-.846-2.91-1.128-.41-.187-.864-.254-1.28-.432-.82-.076-1.545-.495-2.34-.664-.204-.122-.448-.15-.648-.28-1.605-.514-3.094-1.223-4.068-2.676-1.21-1.8-1.098-3.707-.175-5.55 1.272-2.54 3.584-3.492 6.252-3.72 2.196-.188 4.3.28 6.333 1.098.193.144.447.156.643.294.445.15.864.348 1.262.603.68.436.93.966.64 1.548-.343.694-.915.772-1.582.51-.14-.134-.34-.17-.48-.302l-.453-.168c-.274-.143-.542-.294-.817-.43z"/><path d="M161.618 16.156c-.01.17-.084.306-.263.308-.178.002-.164-.152-.163-.278l.426-.03zM200.908 19.088c-.123-1.93-.92-3.676-2.38-5.035-1.624-1.513-3.6-2.18-5.773-2.412-3.18-.336-6.174.353-9.076 1.58-.655.277-.908.86-.7 1.447.257.73.81.717 1.413.58.126-.03.245-.09.368-.136.33-.125.645-.284.963-.435 2.03-.734 4.12-1.116 6.283-.952 1.88.142 3.632.64 5.013 2.03.125.188.31.32.453.494 1.037 1.398 1.224 3.043 1.392 4.703.074.735-.19.954-.872.736-.25-.166-.56-.142-.825-.256-1.47-.248-2.945-.454-4.432-.557-2.794-.194-5.503.107-8.067 1.345-4.71 2.273-5.305 8.907-.997 11.848 2.832 1.933 5.962 2.317 9.262 1.472.246-.156.542-.17.804-.285 2.078-.584 3.595-1.974 5.118-3.72 0 1.047-.01 1.876.002 2.704.013.935.333 1.32 1.064 1.32.72 0 1.113-.397 1.108-1.304-.028-5.056.196-10.117-.124-15.165zm-2.017 7.644c-.102.48-.036.99-.264 1.446-.847 3.017-3.074 4.572-5.913 5.283-2.125.533-4.3.518-6.38-.412-2.8-1.25-3.974-4.345-2.573-7.053.687-1.328 1.92-2.07 3.31-2.548.172-.06.347-.113.52-.17 1.033-.338 2.11-.347 3.175-.436 2.09.03 4.155.307 6.213.643.483.08.95.24 1.43.337.372.074.502.26.488.642-.028.756-.006 1.513-.005 2.27zM144.68 45.073c.103.21.244.378.422.502.18.125.39.215.635.268.244.054.505.08.784.08.16 0 .333-.022.52-.067.188-.045.363-.118.525-.217.162-.1.297-.228.404-.384a.97.97 0 0 0 .16-.566.828.828 0 0 0-.114-.443 1.053 1.053 0 0 0-.298-.315 1.76 1.76 0 0 0-.405-.21 3.882 3.882 0 0 0-.434-.13l-1.355-.333a3.98 3.98 0 0 1-.515-.17 1.453 1.453 0 0 1-.44-.274 1.293 1.293 0 0 1-.3-.417 1.438 1.438 0 0 1-.116-.606c0-.148.028-.32.085-.52.056-.2.162-.386.318-.562s.37-.325.643-.447c.274-.122.623-.183 1.048-.183.3 0 .588.04.86.12.273.08.51.198.716.357.204.158.368.355.49.59.122.237.183.51.183.823h-.58a1.412 1.412 0 0 0-.157-.61 1.365 1.365 0 0 0-.366-.433 1.605 1.605 0 0 0-.52-.264 2.097 2.097 0 0 0-.617-.09c-.2 0-.39.022-.575.065-.185.044-.346.112-.486.205s-.25.217-.336.37a1.165 1.165 0 0 0-.128.57c0 .143.024.267.073.37a.773.773 0 0 0 .2.27c.085.073.183.133.294.178.11.045.227.082.353.11l1.482.367c.216.057.42.126.61.21.19.08.357.184.502.306a1.3 1.3 0 0 1 .34.447c.083.176.124.39.124.64 0 .067-.006.158-.02.272a1.362 1.362 0 0 1-.102.362c-.054.128-.13.257-.23.388-.1.13-.236.248-.41.354-.172.104-.387.19-.642.254a3.774 3.774 0 0 1-.92.098c-.358 0-.69-.04-.997-.123a2.154 2.154 0 0 1-.785-.38 1.66 1.66 0 0 1-.498-.656c-.116-.267-.166-.588-.15-.963h.58c-.007.312.042.573.144.783zM150.865 42.05c.12-.38.298-.718.537-1.01a2.6 2.6 0 0 1 .898-.7c.36-.172.78-.26 1.257-.26.477 0 .894.088 1.252.26.357.174.655.407.894.7.238.292.417.63.537 1.01.12.38.18.78.18 1.2a4 4 0 0 1-.18 1.2c-.118.382-.297.717-.536 1.006-.24.29-.537.52-.895.694-.36.173-.776.26-1.253.26-.477 0-.896-.087-1.257-.26a2.602 2.602 0 0 1-.898-.694 2.946 2.946 0 0 1-.537-1.005 4 4 0 0 1-.18-1.2c0-.42.06-.82.18-1.2zm.532 2.175a2.6 2.6 0 0 0 .41.86c.184.253.42.456.71.61.29.152.636.23 1.04.23.402 0 .747-.078 1.034-.23.288-.154.523-.357.708-.61.185-.253.32-.54.41-.86a3.672 3.672 0 0 0 0-1.954 2.618 2.618 0 0 0-.41-.855 2.066 2.066 0 0 0-.707-.61c-.286-.152-.63-.23-1.034-.23-.403 0-.75.078-1.04.23-.29.154-.526.357-.71.61-.185.253-.32.538-.41.856a3.657 3.657 0 0 0 0 1.955zM159.28 40.21v5.587h3.407v.494H158.7v-6.08h.58zM165.175 40.21v3.764c0 .352.04.652.12.9.078.246.195.448.348.604.154.156.34.27.562.34.222.072.472.107.75.107.284 0 .537-.035.758-.106s.41-.185.562-.342c.153-.156.27-.358.35-.605.078-.247.118-.546.118-.9V40.21h.58V44.1c0 .312-.045.61-.133.89-.088.28-.227.527-.417.737-.19.21-.434.375-.733.497-.298.122-.66.183-1.086.183-.42 0-.78-.06-1.078-.183a1.98 1.98 0 0 1-.732-.498c-.19-.21-.33-.457-.418-.738a2.963 2.963 0 0 1-.132-.89V40.21h.58zM176.065 41.423a1.706 1.706 0 0 0-.426-.464 1.89 1.89 0 0 0-.555-.286 2.056 2.056 0 0 0-.634-.098c-.402 0-.75.077-1.038.23-.29.153-.527.356-.71.61-.186.252-.322.537-.41.855a3.657 3.657 0 0 0 0 1.955 2.6 2.6 0 0 0 .41.86c.183.253.42.456.71.61.29.152.636.23 1.04.23.283 0 .538-.052.766-.154.227-.1.423-.24.588-.416s.298-.382.4-.618c.103-.235.168-.49.197-.762h.58c-.04.375-.13.713-.265 1.014a2.48 2.48 0 0 1-.528.767c-.216.21-.47.372-.762.486-.292.114-.617.17-.975.17-.477 0-.896-.086-1.256-.26a2.615 2.615 0 0 1-.9-.693 2.98 2.98 0 0 1-.536-1.005 4 4 0 0 1-.178-1.2c0-.42.06-.82.18-1.202.118-.38.297-.717.536-1.01.24-.29.538-.524.9-.698.36-.173.778-.26 1.255-.26.29 0 .572.043.848.128s.526.212.75.38c.225.167.413.373.563.617.15.244.246.525.285.843h-.58a2 2 0 0 0-.253-.627zM179.868 40.21v6.08h-.58v-6.08h.58zM182.372 42.05c.12-.38.298-.718.537-1.01a2.6 2.6 0 0 1 .897-.7c.36-.172.78-.26 1.257-.26.477 0 .894.088 1.252.26.358.174.656.407.895.7.24.292.418.63.538 1.01.12.38.18.78.18 1.2a4 4 0 0 1-.18 1.2c-.12.382-.298.717-.537 1.006-.238.29-.536.52-.894.694-.358.173-.775.26-1.252.26s-.896-.087-1.257-.26a2.602 2.602 0 0 1-.898-.694 2.946 2.946 0 0 1-.538-1.005 4 4 0 0 1-.18-1.2c.002-.42.06-.82.18-1.2zm.533 2.175a2.6 2.6 0 0 0 .41.86c.184.253.42.456.71.61.29.152.636.23 1.04.23.402 0 .747-.078 1.034-.23.286-.154.52-.357.706-.61.185-.253.32-.54.41-.86a3.672 3.672 0 0 0 0-1.954 2.618 2.618 0 0 0-.41-.855 2.066 2.066 0 0 0-.707-.61c-.288-.152-.633-.23-1.036-.23s-.75.078-1.04.23c-.29.154-.526.357-.71.61-.185.253-.32.538-.41.856a3.657 3.657 0 0 0 0 1.955zM190.848 40.21l3.543 5.144h.018V40.21h.58v6.08h-.648l-3.544-5.144h-.017v5.145h-.58v-6.08h.648zM201.785 40.21v.493h-3.62V42.9h3.39v.495h-3.39v2.402h3.663v.494h-4.242v-6.08h4.2zM204.434 45.073c.102.21.243.378.42.502.18.125.392.215.636.268.244.054.505.08.784.08.16 0 .332-.022.52-.067.187-.045.362-.118.524-.217.162-.1.297-.228.404-.384a.97.97 0 0 0 .162-.566.828.828 0 0 0-.115-.443 1.053 1.053 0 0 0-.3-.315 1.76 1.76 0 0 0-.404-.21 3.882 3.882 0 0 0-.434-.13l-1.354-.333a3.98 3.98 0 0 1-.515-.17 1.453 1.453 0 0 1-.44-.274 1.293 1.293 0 0 1-.3-.417 1.438 1.438 0 0 1-.116-.606c0-.148.028-.32.085-.52.057-.2.163-.386.32-.562s.37-.325.642-.447c.273-.122.622-.183 1.047-.183.302 0 .59.04.86.12.274.08.512.198.717.357.204.158.368.355.49.59.122.237.183.51.183.823h-.58a1.412 1.412 0 0 0-.157-.61 1.365 1.365 0 0 0-.366-.433 1.605 1.605 0 0 0-.52-.264 2.097 2.097 0 0 0-.617-.09c-.2 0-.39.022-.575.065-.185.044-.346.112-.486.205a1.06 1.06 0 0 0-.337.37 1.165 1.165 0 0 0-.128.57c0 .143.024.267.073.37a.773.773 0 0 0 .2.27c.085.073.183.133.294.178.11.045.228.082.354.11l1.482.367c.216.057.42.126.61.21.19.08.357.184.502.306a1.3 1.3 0 0 1 .34.447c.083.176.125.39.125.64 0 .067-.007.158-.02.272a1.362 1.362 0 0 1-.103.362c-.054.128-.13.257-.23.388-.1.13-.236.248-.41.354-.172.104-.387.19-.642.254a3.774 3.774 0 0 1-.92.098c-.358 0-.69-.04-.997-.123a2.146 2.146 0 0 1-.784-.38 1.66 1.66 0 0 1-.5-.656c-.115-.267-.165-.588-.148-.963h.58c-.01.312.04.573.142.783zM218.676 40.21v.493h-2.12v5.588h-.58v-5.587h-2.112v-.494h4.812zM219.894 45.388h.715v.903h-.716v-.902zM224.05 40.21v6.08h-.58v-6.08h.58zM226.913 45.388h.715v.903h-.715v-.902z"/></svg>