<svg xmlns="http://www.w3.org/2000/svg" viewBox="0 0 443.9 122.7"><path d="M268.4 95.3c4.4.1 8.3-1.6 8.3-6.4 0-4.9-4.7-7-9.2-6.7l-3.5.2v12.5s.8.2 4.4.4M265.7 79c3.3 0 8-1.1 8-5.2 0-3.5-3.6-5.1-6.3-5-2.3 0-3.4.3-3.4.3V79h1.7zm-6.9-6.3c0-2.3.4-6-2.2-6.9v-.3h12c6.6 0 10.5 2.9 10.5 7.4 0 3.5-2.1 5.4-5 6.6 4.6 1 8.2 4 8.2 9 0 3.9-2.6 7.2-6 8.8-3.6 1.7-7.5 1.7-11.4 1.7h-8.3v-.2c2.5-1 2.2-4.7 2.2-7m112.8-19c1.7-2.4 4.7-5.5 1.3-7v-.3h9.2l-11.7 15.1L380.6 94c1.5 2.1 3.5 3.5 6 4.8v.2h-4.7c-2.5 0-4.8-1.1-5.7-2.3L365 81.6l6.6-8.8zm-12.5-.1c0-2.3.4-6-2.2-6.9v-.3h9.7v.3c-2.6.9-2.3 4.6-2.3 6.9v19.1c0 2.3-.3 6 2.3 7v.2h-9.7v-.2c2.6-1 2.2-4.7 2.2-7m-59.6-21.9l-5 12.8h10l-5-12.8zm-6.3 16.5l-2.6 7.2c-1.1 2.8-1.4 4.2 1 5.2v.2h-9.3v-.2c2.9-1.5 3.8-4.3 4.9-7.2l8.4-21.1c.7-1.9 1.7-4-.7-4.7v-.3h8l10.5 26.1c1.2 2.9 2.1 5.7 4.9 7.2v.2H308v-.2c2.5-1.1 2.1-1.7.7-5.2l-2.7-7.2m-73.7-20.9h-12.4v.3c2.3.9 2.3 4 2.2 6.3v22.2s.1 4-2.1 3.5c-.9-.1-2.6-1.5-3.6-2.4-1.3-1.2-2.5-2.4-3.4-3.6l-7.4-9.2c.4 0 .7-.2 1.1-.3 3.6-1.1 7.1-4.3 7.1-8.6 0-5-4.2-8.2-10.6-8.2H191v.3c2.3.8 2.3 3.9 2.2 6.2v21c.1 2.2.1 5-2.2 5.8v.2h9.7v-.2c-2-.8-2.2-3.7-2.2-5.8V68.9c1.2-.1 1.4-.1 3.4-.1 2-.1 3.7.5 4.9 1.7 1.1 1 1.6 2.3 1.6 3.8 0 5.2-5.5 6.8-8.7 7.2v.1s2.9 4.6 4.7 7.1c1.6 2.5 4.6 6 6.1 7.8 1.5 1.8 3.2 2.5 5.9 2.5h13.8v-.2c-2.6-1.5-2.8-3.5-2.8-6.2V69.5c1.2-.1 2.3-.2 3.5-.2 2.7 0 7.2.8 7.2 6.1 0 4.8-4.5 7.5-9 7.8v.1c.2.1.3.1.5.2.9.3 1.9.5 3.2.5 5.5 0 11.2-3.5 11.2-9.6 0-5.4-4.6-8.9-11.7-8.9m-189 24.2c0-4.2-4.4-6.6-9-9.1-5.3-2.9-10.7-5.9-10.7-11.7 0-6.5 5.2-10.7 13.4-10.7 4.1 0 7.1.9 9.5 1.8v6.9c-2.5-2.6-6.1-4.2-10-4.2-4.5 0-7.7 2.2-7.7 5.3 0 3.8 3.8 5.7 8.3 8 5.4 2.7 11.4 5.9 11.4 13.1 0 6.2-5.1 10.8-12.3 10.8-4.9 0-8.9-.8-12.7-2.4-.1-.4-.5-2.4-1-5 0 0-.4-1.9-.5-2.7 3.7 3.6 8.5 5.5 13.4 5.5 5.1 0 7.9-2.9 7.9-5.6m23.8 10.2c4.7 0 8.7-1.3 10.8-3.6 2.6-2.9 2.6-6.4 2.6-9.9V71.9c0-2.2-.1-5.3 2.2-6.1v-.3h-9.6v.3c2.3.8 2.3 3.9 2.2 6.2v14.4c0 6.5-2.9 9.8-8.2 9.8-5.3 0-8.2-3.3-8.2-9.8V72c-.1-2.3-.1-5.4 2.1-6.2v-.3h-9.5v.3c2.3.8 2.2 3.9 2.1 6.1v14.5c0 3.5 0 7 2.7 9.9 2 2.3 6.1 3.6 10.8 3.6m103.3-3.8c-8 0-12.9-7.5-12.9-14.4 0-7.8 5.2-13.3 12.8-13.3 8.3 0 12.7 7.5 12.7 14.5 0 7.7-5.2 13.2-12.6 13.2m13.5-26.3c-3.5-3.4-8.1-5.2-13.2-5.2-5.3-.1-10.3 1.8-13.9 5.3-3.4 3.4-5.3 7.7-5.3 12.3 0 10.1 8 17.7 18.6 17.7 10.6 0 18.8-7.9 18.8-18 0-4.5-1.8-8.8-5-12.1m-32.4 22.5c-2.6 1.4-6.5 3.2-10.8 3.2-7.3 0-12.9-6-12.9-14 0-7.4 4.9-12.5 11.9-12.5 3.1 0 6.5 1.1 9.4 3v-6c-3.7-.9-6.6-1.3-9.3-1.3-10.5 0-17.9 7.2-17.9 17.5 0 10.9 7.5 17.7 19.5 17.7 2.9 0 5.5-.5 7.7-1.6l2.7-6m167.5-26.5c2.6 1.5 2.6 3.5 2.6 6.3v20.4c0 2.8 0 4.7-2.7 6.3v.2h9.2v-.2c-2.5-1.5-2.7-3.6-2.7-6.3V72.7c0 .2 21 26.7 24.8 28V71.9c0-2.8 0-4.6 2.6-6.1v-.3H344v.3c2.6 1.4 2.7 3.4 2.7 6.1v18.4c0-.2-18.4-22.4-18.4-22.4 0-.1-1.4-1.8-1.6-2.4h-7.4m-233.2.3c2.6 1.4 2.6 3.5 2.6 6.3v20.4c0 2.8 0 4.7-2.6 6.3v.2h9.1v-.2c-2.5-1.5-2.7-3.6-2.7-6.3V72.7c0 .2 21.1 26.7 24.8 28V71.9c0-2.8 0-4.7 2.6-6.1v-.3h-9.1v.3c2.6 1.4 2.7 3.4 2.7 6.1v18.4c0-.2-18.4-22.5-18.4-22.5s-1.3-1.7-1.5-2.3h-7.5m280.1-33s-1.6 12.5 10.2 20.4c0 0 9.3 6.9 21.6 1.7-7.7-10.6-18.8-18.5-31.8-22.1m7.9 2.5c5.8 1.7 11.3 4.4 16.4 8.2l-12.1-13.8c-1.7 1.6-3.1 3.5-4.3 5.6m34.6 35c2-1.1 3.9-2.5 5.6-4.2l-13.6-12.2c3.7 5 6.4 10.6 8 16.4m5.6-4.2c1.9-1.9 3.5-4 4.7-6.4l-16.8-7.5 12.1 13.9m7.3-22l-18 3.8 18 4.2c.2-1.5.3-3 .3-4.5 0-1.2-.1-2.4-.3-3.5m-2.5 15.6c1.2-2.4 2.1-4.9 2.5-7.6l-18.4-1.9 15.9 9.5m-40.7-30l13.7 12.3-7.2-17c-2.4 1.2-4.6 2.8-6.5 4.7m29.7-4.5l-7.4 16.8 13.8-12.1c-1.8-1.9-4-3.5-6.4-4.7m13.5 18.9c-.4-2.7-1.2-5.3-2.4-7.6l-15.9 9.2 18.3-1.6m-36.7-19.1l9.3 16-1.7-18.4c-2.7.4-5.3 1.2-7.6 2.4m34.3 11.4c-1.2-2.4-2.8-4.6-4.6-6.5l-12.4 13.8 17-7.3m-18.7-13.8l-1.9 18.4 9.5-15.8c-2.3-1.2-4.9-2.1-7.6-2.6M396 22c-1.2 0-2.3.1-3.5.3l3.9 18 4.1-18c-1.4-.2-3-.3-4.5-.3"/></svg>