<svg xmlns="http://www.w3.org/2000/svg" viewBox="0 0 492 106"><path fill-rule="evenodd" clip-rule="evenodd" d="M55.565 11.205v24.34h-1.86c-.627-4.654-1.75-8.36-3.37-11.116-1.62-2.758-3.925-4.947-6.92-6.57-2.995-1.62-6.094-2.43-9.294-2.43-3.62 0-6.615 1.107-8.982 3.315-2.365 2.208-3.55 4.72-3.55 7.54 0 2.158.75 4.123 2.244 5.894 2.155 2.61 7.28 6.09 15.384 10.438 6.603 3.55 11.116 6.272 13.535 8.17 2.42 1.895 4.283 4.13 5.587 6.703 1.306 2.573 1.96 5.27 1.96 8.084 0 5.358-2.082 9.974-6.244 13.85-4.16 3.876-9.516 5.814-16.062 5.814-2.054 0-3.987-.158-5.796-.475-1.08-.173-3.317-.817-6.715-1.92-3.397-1.107-5.547-1.66-6.45-1.66-.873 0-1.56.26-2.066.788-.508.53-.88 1.617-1.123 3.267h-1.86v-24.34h1.86c.905 5.102 2.125 8.92 3.656 11.45 1.532 2.537 3.876 4.642 7.03 6.32 3.15 1.678 6.607 2.515 10.367 2.515 4.353 0 7.794-1.15 10.32-3.447C49.734 75.437 51 72.72 51 69.585c0-1.745-.48-3.503-1.432-5.277-.956-1.775-2.438-3.43-4.45-4.966-1.355-1.044-5.06-3.253-11.113-6.634-6.056-3.38-10.362-6.08-12.912-8.103-2.552-2.02-4.487-4.25-5.807-6.69-1.32-2.44-1.98-5.123-1.98-8.05 0-5.087 1.947-9.47 5.847-13.148 3.897-3.677 8.855-5.514 14.875-5.514 3.757 0 7.742.918 11.952 2.757 1.95.866 3.32 1.3 4.122 1.3.904 0 1.642-.268 2.22-.806.57-.537 1.035-1.62 1.383-3.25h1.86zm41 26.95h1.768c1.78 0 3.12.514 4.022 1.538.645.747.97 2.6.97 5.56V64.35c0 5.01-.45 8.566-1.35 10.663-.898 2.1-2.574 3.823-5.024 5.168-2.45 1.346-5.228 2.018-8.333 2.018-2.427 0-4.48-.43-6.147-1.286-1.67-.86-2.947-1.95-3.835-3.272-.886-1.32-1.5-3.165-1.838-5.53-.338-2.366-.506-4.465-.506-6.3V45.25c0-2.655.285-4.403.857-5.242.823-1.235 2.196-1.853 4.117-1.853h1.784v-1.24H62.885v1.24h1.75c1.76 0 3.036.455 3.824 1.362.788.91 1.185 2.82 1.185 5.733v18.46c0 5.69.37 9.568 1.114 11.636 1.115 3.02 3.006 5.422 5.68 7.21 2.668 1.788 6.583 2.68 11.74 2.68 4.738 0 8.484-.932 11.237-2.798 2.752-1.865 4.598-4.103 5.538-6.713.94-2.607 1.412-6.275 1.412-11.007v-19.13c0-2.654.243-4.345.73-5.075.99-1.573 2.41-2.36 4.262-2.36h1.766v-1.24h-16.56v1.243zM128.562 62.08v13.81c0 2.983.322 4.837.97 5.56.877 1.025 2.207 1.536 3.986 1.536h1.803v1.24H115.16v-1.24h1.776c1.997 0 3.425-.65 4.285-1.957.464-.722.696-2.435.696-5.14V45.25c0-2.98-.313-4.833-.94-5.558-.906-1.024-2.255-1.537-4.042-1.537h-1.776v-1.24h17.244c4.208 0 7.528.437 9.958 1.31 2.427.872 4.474 2.343 6.14 4.41 1.666 2.072 2.5 4.527 2.5 7.365 0 3.862-1.268 7.002-3.798 9.422-2.53 2.42-6.11 3.626-10.732 3.626-1.134 0-2.36-.08-3.675-.242a48.112 48.112 0 0 1-4.233-.727zm0-1.983c1.218.232 2.297.408 3.238.525a20.4 20.4 0 0 0 2.412.173c2.39 0 4.45-.936 6.186-2.81C142.132 56.11 143 53.68 143 50.7c0-2.05-.413-3.952-1.24-5.71-.827-1.76-2-3.075-3.515-3.948-1.517-.873-3.24-1.31-5.17-1.31-1.172 0-2.677.22-4.514.66v19.705h.002zM168.436 39.62v18.585h10.137c2.7 0 4.504-.4 5.41-1.2 1.21-1.053 1.885-2.904 2.026-5.56h1.238V67.78h-1.24c-.327-2.28-.653-3.745-.977-4.392-.418-.805-1.104-1.44-2.058-1.9-.954-.46-2.42-.692-4.4-.692h-10.136v15.467c0 2.078.09 3.34.278 3.79l.97 1.072c.464.266 1.345.398 2.643.398h7.99c2.663 0 4.6-.184 5.803-.55 1.203-.366 2.36-1.084 3.475-2.16 1.436-1.417 2.904-3.557 4.412-6.415h1.463l-4.077 11.826H155.03v-1.24h1.674a6.59 6.59 0 0 0 3.17-.807c.744-.372 1.248-.935 1.516-1.686.267-.75.4-2.28.4-4.6V45.25c0-3.065-.303-4.955-.905-5.67-.837-.952-2.23-1.425-4.18-1.425h-1.674v-1.24h36.272l.45 10.363h-1.463c-.483-2.45-1.018-4.132-1.603-5.047-.583-.915-1.45-1.614-2.595-2.095-.918-.343-2.535-.517-4.853-.517h-12.804zM245.334 84.225h-12.64l-16.023-22.077c-1.176.048-2.133.07-2.87.07l-.97-.016-1.072-.054V75.89c0 2.983.322 4.837.97 5.56.88 1.025 2.195 1.536 3.952 1.536h1.838v1.24h-20.163v-1.24h1.767c1.987 0 3.407-.65 4.263-1.957.485-.722.727-2.435.727-5.14V45.25c0-2.98-.322-4.833-.97-5.558-.9-1.024-2.242-1.537-4.02-1.537h-1.768v-1.24h17.198c5.013 0 8.708.368 11.087 1.1 2.38.73 4.396 2.082 6.057 4.047 1.658 1.968 2.49 4.313 2.49 7.034 0 2.91-.95 5.435-2.85 7.574-1.9 2.14-4.842 3.654-8.826 4.537l9.813 13.556c2.228 3.14 4.14 5.224 5.743 6.253 1.6 1.032 3.69 1.687 6.267 1.968v1.24zm-33.577-24.217l1.14.017.793.017c4.466 0 7.832-.985 10.1-2.952 2.266-1.972 3.4-4.48 3.4-7.527 0-2.977-.916-5.397-2.747-7.26-1.83-1.865-4.25-2.798-7.265-2.798-1.335 0-3.143.264-5.42.79v19.713zM273.84 84.225l-18.25-39.807v31.584c0 2.94.318 4.774.95 5.502.87.99 2.242 1.482 4.12 1.482h1.69v1.24h-16.56v-1.24h1.69c2.018 0 3.45-.61 4.295-1.834.516-.75.775-2.467.775-5.15V45.138c0-2.115-.237-3.644-.705-4.584-.33-.68-.933-1.252-1.813-1.712-.878-.456-2.294-.686-4.24-.686v-1.24h13.537l17.054 36.94 16.933-36.94h13.3v1.24h-1.653c-2.042 0-3.485.613-4.33 1.834-.517.753-.773 2.47-.773 5.148v30.864c0 2.94.328 4.774.986 5.502.868.99 2.24 1.482 4.12 1.482h1.652v1.24h-20.162v-1.24h1.69c2.042 0 3.472-.61 4.294-1.834.517-.75.776-2.467.776-5.15V44.418l-18.25 39.807h-1.127zm56.18-1.24h-1.7a6.34 6.34 0 0 1-3.155-.838c-.74-.418-1.224-.92-1.454-1.503-.3-.77-.45-2.354-.45-4.754V45.25c0-2.84.29-4.636.866-5.383.878-1.14 2.276-1.712 4.194-1.712h1.7v-1.24h-20.164v1.24h1.67c1.116 0 2.185.28 3.208.84.718.417 1.195.92 1.43 1.502.3.77.45 2.354.45 4.754v30.64c0 2.845-.28 4.637-.836 5.384-.884 1.143-2.3 1.712-4.25 1.712h-1.672v1.24h20.163v-1.24zm39.166-47.084h-1.24c-.254 1.115-.682 1.983-1.282 2.61-.463.438-1.007.658-1.63.658-.416 0-1.11-.252-2.08-.764-3.304-1.67-6.658-2.503-10.055-2.503-4.37 0-8.4 1.087-12.085 3.256-3.687 2.168-6.583 5.225-8.685 9.168-2.105 3.944-3.157 8.27-3.157 12.978 0 5.847 1.6 10.926 4.8 15.24 4.29 5.8 10.34 8.696 18.155 8.696 4.335 0 8.078-.976 11.23-2.927 3.156-1.95 5.915-5.03 8.28-9.237l-1.08-.676c-2.8 3.908-5.368 6.517-7.704 7.83-2.34 1.313-5.032 1.97-8.086 1.97-3.518 0-6.648-.837-9.39-2.508-2.742-1.674-4.794-4.076-6.16-7.21-1.366-3.135-2.047-6.84-2.047-11.112 0-5.18.722-9.51 2.164-12.992 1.44-3.483 3.42-6.02 5.936-7.61 2.514-1.592 5.326-2.386 8.442-2.386 3.714 0 6.896 1.072 9.55 3.215 2.652 2.144 4.694 5.65 6.124 10.527h1.128l-1.128-16.22zM418.544 84.225h-12.64L389.88 62.148c-1.176.048-2.133.07-2.87.07l-.972-.016-1.07-.054V75.89c0 2.983.32 4.837.97 5.56.877 1.025 2.193 1.536 3.95 1.536h1.837v1.24h-20.162v-1.24h1.766c1.986 0 3.407-.65 4.262-1.957.485-.722.73-2.435.73-5.14V45.25c0-2.98-.326-4.833-.972-5.558-.9-1.024-2.242-1.537-4.022-1.537h-1.766v-1.24h17.2c5.01 0 8.706.368 11.086 1.1 2.38.73 4.398 2.082 6.057 4.047 1.66 1.968 2.49 4.313 2.49 7.034 0 2.91-.95 5.435-2.85 7.574-1.9 2.14-4.84 3.654-8.825 4.537l9.81 13.556c2.23 3.14 4.144 5.224 5.745 6.253 1.603 1.032 3.692 1.687 6.27 1.968v1.24zm-33.577-24.217l1.138.017.794.017c4.464 0 7.832-.985 10.098-2.952 2.266-1.972 3.4-4.48 3.4-7.527 0-2.977-.914-5.397-2.744-7.26-1.83-1.865-4.253-2.798-7.265-2.798-1.338 0-3.146.264-5.423.79v19.713zM467.713 30.72c1.19 0 2.347.305 3.476.91a6.548 6.548 0 0 1 2.646 2.606c.633 1.13.95 2.31.95 3.536 0 1.22-.313 2.39-.936 3.512a6.59 6.59 0 0 1-2.622 2.61c-1.122.62-2.293.93-3.515.93-1.223 0-2.393-.31-3.513-.93a6.592 6.592 0 0 1-2.613-2.61c-.625-1.12-.937-2.293-.937-3.512 0-1.227.318-2.406.953-3.536a6.532 6.532 0 0 1 2.643-2.606c1.13-.606 2.285-.91 3.467-.91zm0 .58c-1.084 0-2.14.28-3.172.84a5.988 5.988 0 0 0-2.41 2.39c-.58 1.035-.867 2.115-.867 3.24 0 1.12.284 2.192.853 3.217a6.07 6.07 0 0 0 2.388 2.397c1.023.573 2.093.86 3.21.86s2.19-.287 3.215-.86a6.07 6.07 0 0 0 2.392-2.397c.568-1.026.85-2.098.85-3.216 0-1.124-.287-2.205-.863-3.24a5.993 5.993 0 0 0-2.415-2.39c-1.033-.56-2.093-.84-3.182-.84zm-3.938 2.124h3.856c.966 0 1.702.218 2.21.653.506.436.76.965.76 1.582l-.514 1.33c-.342.382-.907.676-1.7.882l2.082 2.95.67.727.524.15v.32h-1.83l-2.89-4.023h-.786v3.076l.28.476.88.15v.32h-3.673v-.32l.697-.115.296-.333.07-.926v-5.204l-.03-.866-.257-.354-.646-.124v-.354zm2.38 4.153c.783 0 1.354-.075 1.718-.226l.828-.64.29-.94-.56-1.348c-.377-.364-.855-.548-1.438-.548l-.837.16v3.543z"/><path fill-rule="evenodd" clip-rule="evenodd" d="M414.034 60.59c0-13.635 11.055-24.69 24.688-24.69 13.634 0 24.688 11.055 24.688 24.69 0 13.634-11.055 24.687-24.688 24.687s-24.688-11.052-24.688-24.688zM461.34 92.18H13.43v-1.937h447.912v1.938z"/></svg>