<svg xmlns="http://www.w3.org/2000/svg" viewBox="0 0 272.43 138.06"><path d="M140.06 29.733c-1.45 0-2.63-.793-2.63-1.76 0-.97 1.18-1.76 2.63-1.76 1.46 0 2.64.79 2.64 1.76 0 .967-1.18 1.76-2.64 1.76zm-.97-6.497c-1.59-.07-3.09.503-4.25 1.587a5.815 5.815 0 0 0-1.88 4.137c-.11 3.273 2.45 6.037 5.73 6.152 1.59.05 3.1-.515 4.26-1.588a5.97 5.97 0 0 0 1.89-4.14c.13-3.283-2.47-6.036-5.75-6.148m-8.74 5.704c.1-2.27 1.04-4.38 2.71-5.93a8.45 8.45 0 0 1 6.1-2.286c4.7.17 8.38 4.127 8.22 8.822-.13 2.27-1.04 4.375-2.69 5.927a8.456 8.456 0 0 1-6.11 2.28c-4.7-.168-8.38-4.12-8.23-8.813zm-13.67-16.463s-.1 4.133-.1 4.59c-2.01-.677-16.794-5.452-30.665-5.94-11.744-.408-27.79-.97-50.464 12.97l-.666.416c-10.675 6.66-18.037 14.86-21.882 24.4-1.218 3-2.83 9.77-1.23 16.138.696 2.787 1.996 5.575 3.74 8.087 3.935 5.655 10.543 9.413 17.66 10.05 10.05.89 17.66-3.616 20.374-12.064 1.858-5.84 0-14.39-7.134-18.76-5.803-3.552-12.053-2.745-15.67-.354-3.138 2.088-4.916 5.314-4.887 8.877.07 6.296 5.503 9.646 9.4 9.658 1.14 0 2.286-.196 3.566-.612.46-.146.884-.31 1.363-.612l.15-.09.09-.05-.04.01c.888-.603 1.43-1.582 1.43-2.64 0-.29-.04-.583-.12-.88a3.186 3.186 0 0 0-3.677-2.252l-.216.04-.3.09-.436.148a7.445 7.445 0 0 1-1.72.243c-.452-.03-2.714-.702-2.714-3.166v-.03c.03-.9.376-1.536.578-1.885.696-1.1 2.617-2.173 5.196-1.94 3.396.29 5.837 2.025 7.463 5.304 1.5 3.06 1.12 6.812-1.012 9.56-2.114 2.73-5.867 3.893-10.863 3.35-5.04-.552-9.304-3.45-11.69-7.968-2.33-4.406-2.463-9.643-.326-13.666 5.102-9.625 14.737-9.53 20.012-8.614 7.512 1.296 18.89 8.03 23.166 23.6h10.382c-1.286-3.965-2.02-15.466 9.667-15.466 12.825 0 14.437 9.03 18.077 15.466h11c-2.89-4.138-4.92-8.75-4.28-12.627.95-5.728 5.5-5.212 11.8-4.498 2.07.242 4.42.504 6.83.56 6.78.04 12.91-1.202 17.41-3.17 2.91-1.27 4.76-2.106 5.92-3.166.43-.342.64-.912.87-1.508l.16-.404c.19-.487.43-1.527.57-2.088.3-1.15-.72-.54-.72-.54-1.96 1.185-6.9 3.436-11.52 3.53-5.72.12-17.25-5.755-18.45-6.378l-.12-.137c-.3-.687-2.02-4.786-2.39-5.65 8.3 5.473 15.18 8.493 20.45 8.96 5.87.526 10.45-2.683 12.41-4.04.21-.145.98-.668.8-1.293-.76-2.667-3.39-11.6-5.59-13.864-.64-.66-1.15-1.297-2.19-1.9-8.39-4.89-28.3-7.847-29.24-7.98 0 0-.23-.07-.22.182m-29.21 83.2c-.166-.03-17.763-2.578-17.94-2.605-3.084-.486-4.652-2.006-4.652-4.51 0-2.523 2.167-3.947 3.943-3.947H97.91V73.76H68.89c-9.207 0-15.565 7-15.565 14.8 0 6.815 4.095 13.87 13.466 15.32.168 0 17.776 2.58 17.942 2.6 3.096.49 4.65 2.02 4.65 4.52 0 2.52-2.162 3.93-3.954 3.93H64.183c-4.3.12-8.837 3.42-8.837 9.88v.97h30.037c9.208 0 15.547-7 15.547-14.8 0-6.82-4.085-13.88-13.46-15.325zm154.31-11.062c4.31-.12 8.84-3.43 8.84-9.9v-.954h-31.45c-9.22 0-15.58 7-15.58 14.8V111c0 7.8 6.36 14.8 15.58 14.8h31.45v-.97c0-6.46-4.53-9.76-8.84-9.89H219.1c-1.77 0-3.95-1.42-3.95-3.94 0-2.5 1.66-4.51 4.66-4.51h9.82c8.66 0 13.64-5.35 15.2-11.41h-23.62c-4.26 0-6.06 3.376-6.06 3.376v-9.89c0-2.523 2.16-3.947 3.95-3.947h22.68zm16.55 36.607c0 .31-.23.55-.66.55h-.82v-1.11h.81c.41 0 .67.19.67.56zm.84 0c0-.77-.58-1.23-1.48-1.23h-1.67v3.72h.83v-1.2h.65l.81 1.2h.96l-.92-1.33c.48-.17.82-.55.82-1.16zm1.44.73c0 1.71-1.36 3.11-3.15 3.11-1.79 0-3.12-1.38-3.12-3.09 0-1.73 1.35-3.12 3.15-3.12 1.78 0 3.12 1.38 3.12 3.1zm.82 0c0-2.13-1.73-3.89-3.94-3.89-2.23 0-3.98 1.77-3.98 3.91 0 2.13 1.75 3.89 3.95 3.89 2.23 0 3.97-1.78 3.97-3.91zM138.46 73.787v30.953c0 6.46-5.23 11.71-11.7 11.71-6.47 0-11.71-5.25-11.71-11.71V73.787h-11.27v30.303c0 12.69 10.29 22.99 22.98 22.99 12.69 0 22.98-10.3 22.98-22.99V73.787h-11.28zm62.17 37.263c0 7.8-6.35 14.8-15.55 14.8h-29.02v-10.87h29.07c1.79 0 3.95-1.41 3.95-3.93 0-2.5-1.56-4.03-4.66-4.52-.17 0-17.77-2.57-17.93-2.6-9.37-1.45-13.47-8.505-13.47-15.32 0-7.8 6.35-14.8 15.56-14.8h29.02v10.853h-29.08c-1.78 0-3.94 1.424-3.94 3.947 0 2.504 1.56 4.024 4.66 4.51.16.03 17.77 2.577 17.92 2.605 9.38 1.444 13.47 8.505 13.47 15.325"/></svg>