<svg xmlns="http://www.w3.org/2000/svg" viewBox="0 0 586 239"><path class="logotype logotext" d="M175.6 55v3.95h3.8V55zm0 3.95h-4v3.95h4zm0 3.95v3.96h3.8V62.9zm-4 0h-8v3.96h-4v7.9h4v-3.95h4v-3.95h4zm-4 7.91v3.95h4v-3.95zm0 3.95h-4v3.96h4zm-4 3.96h-4v3.95h-3.9v-3.95h-7.9v3.95c-9.9-8.08-22.4-12.86-36-12.86-31.35 0-56.8 25.44-56.8 56.89 0 31.4 25.45 56.9 56.8 56.9 31.4 0 57.1-25.5 57.1-56.9 0-13.7-5-26.3-13.1-36.12h-.1 3.9v-3.96h4zm-7.9 0h3.9v-3.96h-3.9zm0-3.96v-3.95h-4v3.95zm-11.5 30.14c4.3 6.2 6.8 13.6 6.8 21.8 0 21.3-17.4 38.7-38.8 38.7-21.29 0-38.51-17.4-38.51-38.7 0-21.4 17.22-38.75 38.51-38.75 8 0 15.5 2.43 21.6 6.58H132v3.95h-4c-10.3 12.92-12.9 18.52-17 29.02-4.7-9.5-10.2-16-19.89-20.3-1.86-.5-2.73-.7-3.96 1-1.25 1.7-.47 3.3.98 5.2 3.85 4.7 8.2 9.2 11.17 14.6 3.6 6.3 7.9 16.9 9.4 19.6 1.2 2.2 4 3.1 5.1 3.1 5.9-.6 5.9-3.6 7-8.8 1.8-8.4 4.1-17.1 15.1-27.6v-4h4v-3.9h4.3m58.4-6.77c-5.7 0-10.2 1.37-13.7 4.17-3.5 2.7-5.3 6.6-5.3 11.7 0 2.4.3 4.7 1 6.6.8 1.9 2 3.5 3.3 4.7 1.5 1.3 3 2.3 4.2 3 1.5.8 3 1.5 5 2.2 5 1.9 13 3.4 13.3 8.6 0 2-.8 3.5-2.5 4.6-1.5 1.1-3.8 1.6-6.5 1.6-5.5 0-10.5-1.5-15-4.6l-5.3 8.7c5.5 4 12.3 6.1 20.5 6.1h.3c6.5 0 11.5-1.5 15-4.5s5.2-7 5.2-12c0-2.2-.2-4.3-1-6.1-.7-1.9-1.5-3.4-2.5-4.6-1-1.2-2.2-2.3-4-3.2-1.5-1-3-1.8-4.2-2.3-1.3-.6-3-1.1-4.8-1.7-3.2-1.2-6.8-1.8-9.2-3.8-.5-.4-.5-.9-1-1.5-.8-.7-.8-1.4-.8-2.3 0-3.6 2.8-5.4 8.3-5.4 4.2 0 8.2 1 12.2 2.9l4-9.1c-4.2-2.5-9.7-3.77-16.5-3.77zm227 3.77l-2 11.7h-6.3v8.2h6v20.3c0 8.8 4.3 13.1 13 13.1 3 0 6-.4 9-1.4l-1.2-8.4c-2 .8-3.3.8-4.3.8-1.7 0-3-.3-3.5-1s-1-1.9-1-3.7v-19.7h8.8v-8.2h-8.8v-11.7zM294 114.1c-4.8 0-9.1 2.4-13.3 7.2l-2.5-6.2h-7.3V156h12v-28.5c2-2.4 4.3-3.5 6.8-3.5s3.8 1.6 3.8 4.9V156h12v-28.7c2.5-2.2 4.7-3.3 6.7-3.3 2.5 0 3.8 1.6 3.8 4.9V156h12v-26.9c0-4.3-1-7.9-2.8-10.7-1.5-2.9-4.5-4.3-8.7-4.3-4.5 0-8.5 2.1-12.5 6.3v.1c-2-4.3-5.3-6.4-10-6.4zm59.5 0c-5.8 0-11.3 1.6-16.5 4.6l4 7.9c4.7-2.1 8.5-3.1 11.5-3.1 2 0 3.5.4 4.3 1.2.7.9 1.2 2.2 1.2 4v1.1c-8.8 1.3-15 3.1-18.3 5.5-2.7 2-4.2 5.2-4.2 9.5 0 3.7 1.2 6.6 3.7 8.8 2.5 2.1 5.5 3.1 9.3 3.1 4.3 0 8.3-1.6 12-5.1 0 0 .8 1.5 2 4.4h7.5v-26.5c0-4.9-1.5-8.7-4.2-11.3-2.8-2.7-6.8-4.1-12.3-4.1zm49.5 0c-5 0-9.5 2.4-13.5 7.2l-2.5-6.2h-7.5V156h12v-28.5c2.3-2.3 4.5-3.5 7-3.5 2.8 0 4.3 1.6 4.3 4.9V156h12v-26.9c0-10-4-15-11.8-15zm70.4 0c-6.1 0-10.6 2-14.1 6.1-3.2 4-5 9.3-5 15.8 0 6.4 1.8 11.4 5.3 15.2 3.7 3.7 8.5 5.5 14.5 5.5 2.5 0 5-.2 7-.8 2.3-.6 4-1.2 5-1.8 1.3-.7 2.8-1.7 4.3-2.9l-4.8-7.6c-1.5.8-2.5 1.2-3.2 1.7-.5.4-1.8.7-3.3 1.2-1.2.7-2.7.7-4.2.7-2.5 0-4.6-.7-5.8-2-1.3-1.3-2.3-3.4-2.3-6.2h24.6v-3.1c0-6.4-1.5-11.7-4.5-15.7-3-4.1-7.5-6.1-13.5-6.1zm43.7 0c-6.2 0-11.2 2-14.5 6.1-3.5 4-5.2 9.2-5.2 15.5 0 6.3 1.7 11.4 5 15.3 3.2 3.8 8.2 5.7 14.7 5.7 5.8 0 10.5-1.8 14.3-5.5l-6-7.5c-2.8 2.2-5.3 3.2-8 3.2-5 0-7.5-3.8-7.5-11.4 0-7.7 2.5-11.6 7.2-11.6 1.8 0 3.3.1 4.3.7 1 .3 2.2 1 3.7 2.1l5.5-8c-3.5-3-8-4.6-13.5-4.6zm-290.7 1l15 42.7v.3c-1 1.5-2 2.6-3.2 3.2-1 .5-2.8 1-5 1-.5 0-1.8-.5-4-.5l-1.3 8.3c2.5.2 4.5.7 6.8.7 9 0 15-4.7 17.7-14.3l12.3-41.4h-11.5l-6.5 29.9-7.8-29.9zm247 7.6c3.7 0 5.7 3.1 5.7 9.3h-12.3c.3-3.3 1-5.6 2-7.1s2.5-2.2 4.6-2.2zM358 137.2v8.6c-2 1.6-4 2.5-6.5 2.5-2.8 0-4-1.5-4-4.4 0-1.4.2-2.4 1-3.2 1.2-1.3 4.3-2.4 9.5-3.5z"/></svg>