<svg xmlns="http://www.w3.org/2000/svg" viewBox="0 0 242.8 75.561"><path d="M230.4 30.458c-.81 0-1.61.562-1.95 1.323l-5.35 16.11h-.1l-5.23-16.102c-.34-.764-1.14-1.33-1.96-1.33h-2.71l7.15 19.666c.25.703.75 1.777.75 2.23 0 .413-1.16 5.205-4.63 5.205-.1 0-.18-.01-.26-.01-.89-.05-1.55.57-1.7 1.52l-.11 1.345c.7.124 1.41.29 2.65.29 5.12 0 6.65-4.67 8.1-8.717l7.75-21.532h-2.4zm-20.9 21.07c.94 0 1.7-.745 1.75-1.68V39.01c0-5.66-2.44-9.048-7.9-9.048-2.93 0-5.74 1.447-6.9 3.844h-.1v-1.574c0-.976-.79-1.764-1.76-1.764h-1.98v21.07h2.14c.93 0 1.67-.715 1.75-1.62V41.79c0-5.123 1.98-8.676 6.4-8.676 3.39.206 4.46 2.6 4.46 7.52V51.54h2.13zm-60.02 0c.84 0 1.53-.586 1.71-1.374V38.02c0-4.586-1.94-8.058-7.31-8.058-1.9 0-5.08 1.076-6.53 4.09-1.11-2.85-3.55-4.09-5.99-4.09-3.09 0-5.2 1.116-6.69 3.554h-.1v-1.31c0-.965-.79-1.744-1.76-1.744h-1.86v21.07h2.11c.97 0 1.76-.79 1.76-1.76V40.92c0-3.927 1.57-7.81 5.53-7.81 3.14 0 3.76 3.262 3.76 5.865v12.56h2.14c.92 0 1.66-.706 1.75-1.604v-9.01c0-3.927 1.57-7.81 5.53-7.81 3.14 0 3.76 3.262 3.76 5.865v12.56h2.16zM90.74 34.74c-3.2-1.642-6.71-2.756-6.77-6.058 0-3.507 3.23-4.428 5.71-4.424 1.08 0 1.94.107 2.78.292v-.01c.89.06 1.64-.63 1.74-1.508l.1-1.273c-1.63-.404-3.33-.61-4.81-.61-5.4.03-9.41 2.75-9.43 7.935 0 4.532 3.07 6.29 6.35 7.88 3.22 1.55 6.75 2.828 6.78 6.57 0 3.9-3.78 5.34-6.38 5.345-1.52 0-3.16-.384-4.55-.82-.87-.144-1.59.623-1.7 1.64l-.11 1.136c1.9.617 3.86 1.155 5.83 1.155 6.05-.04 10.75-2.457 10.77-8.72 0-4.834-3.09-6.863-6.36-8.524zm24.69-4.28c-.82 0-1.61.562-1.95 1.323l-5.35 16.11h-.1l-5.23-16.098c-.34-.764-1.14-1.33-1.96-1.33h-2.71l7.15 19.666c.25.703.74 1.777.74 2.23 0 .413-1.15 5.205-4.62 5.205-.1 0-.18-.01-.26-.01-.89-.05-1.56.57-1.71 1.522l-.1 1.344c.7.123 1.41.29 2.65.29 5.12 0 6.65-4.67 8.09-8.718l7.77-21.527h-2.39zm51.73 1.465v-1.465h-5.58v-2.004c0-2.85.42-5 3.76-5h.19v-.01c.93.07 1.7-.688 1.75-1.616l.1-1.272c-.78-.124-1.62-.248-2.6-.248-5.75 0-7.07 3.347-7.07 8.47v1.674h-4.96v1.636c.13.848.85 1.5 1.74 1.5h3.21v17.93h2.14c.89 0 1.61-.668 1.73-1.523V33.6h3.89c.92-.03 1.65-.763 1.69-1.677zm11.28-1.96c6.4 0 10.7 4.627 10.7 11.03 0 6.033-4.38 11.03-10.7 11.03-6.36 0-10.74-4.997-10.74-11.03 0-6.402 4.29-11.03 10.74-11.03zm0 18.924c4.54 0 6.56-4.133 6.56-7.895 0-4.006-2.43-7.89-6.56-7.89-4.18 0-6.61 3.884-6.61 7.89 0 3.763 2.02 7.895 6.61 7.895zM37.78 10C22.437 10 10 22.436 10 37.778 10 53.122 22.438 65.56 37.78 65.56c15.343 0 27.78-12.438 27.78-27.782C65.56 22.435 53.123 10 37.78 10zm14.98 16.077c-1.286.05-2.173-.722-2.215-1.89-.01-.43.1-.804.39-1.24.288-.562.35-.626.34-.87-.03-.736-1.135-.765-1.44-.75-4.17.137-5.268 5.766-6.16 10.342l-.436 2.412c2.4.352 4.105-.08 5.056-.697 1.34-.868-.374-1.76-.16-2.75.22-1.008 1.137-1.493 1.866-1.514 1.02-.02 1.747 1.033 1.724 2.106-.04 1.773-2.392 4.212-7.1 4.113a14.5 14.5 0 0 1-1.593-.114l-.888 4.903c-.796 3.712-1.853 8.785-5.632 13.21-3.248 3.86-6.542 4.46-8.02 4.51-2.76.09-4.59-1.377-4.656-3.342-.06-1.902 1.618-2.942 2.723-2.98 1.474-.05 2.493 1.02 2.532 2.25.04 1.04-.506 1.366-.865 1.563-.24.193-.603.39-.59.82 0 .184.21.605.82.585 1.168-.04 1.942-.616 2.484-1.002 2.69-2.24 3.726-6.147 5.08-13.257l.285-1.724c.462-2.313.975-4.89 1.757-7.46-1.897-1.426-3.033-3.196-5.582-3.887-1.748-.475-2.814-.07-3.563.875-.887 1.122-.592 2.582.266 3.44l1.415 1.563c1.736 2.008 2.686 3.568 2.33 5.67-.566 3.352-4.563 5.923-9.284 4.472-4.03-1.242-4.785-4.097-4.3-5.67.426-1.383 1.525-1.644 2.6-1.313 1.152.354 1.603 1.753 1.273 2.83-.04.113-.1.306-.217.563-.133.297-.38.556-.488.903-.26.843.898 1.442 1.705 1.69 1.802.554 3.56-.39 4.008-1.848.415-1.342-.434-2.277-.786-2.637l-1.707-1.828c-.782-.87-2.5-3.296-1.662-6.02.323-1.05 1.003-2.166 1.992-2.902 2.085-1.554 4.352-1.81 6.51-1.19 2.795.806 4.138 2.653 5.88 4.08.972-2.857 2.322-5.655 4.353-8.014 1.833-2.153 4.297-3.71 7.12-3.806 2.82-.09 4.95 1.185 5.022 3.208.03.864-.468 2.54-2.187 2.595z"/></svg>