<svg xmlns="http://www.w3.org/2000/svg" viewBox="0 0 725 330.3"><path d="M675.1 66.13c17.7 0 27.9 6.4 27.9 6.4l-5.1-42.92s-11.3-3.73-29.1-3.73c-50.4 0-64.2 31.46-64.2 64.25v11.37H488.5v42.9h116.1v98.4c0 13.8-1.3 23.9-18.9 23.9-8.8 0-16.4-2.5-19-2.5v40.3c2.6 1.3 11.4 3.8 25.2 3.8 32.8 0 58-12.6 58-61.8V144.4h27.7l-4.9-42.9h-22.8V91.46c0-23.99 13.9-25.33 25.2-25.33m-203 200.57c-18.8 0-18.8-11.4-18.8-23.9V28.41h-45.5V244c0 11.3-15.2 22.7-30.2 22.7-7.6 0-7.6-2.5-7.6-8.9V101.5h-46.7V244c0 10.1-12.5 22.7-30.2 22.7-7.6 0-7.6-3.8-7.6-8.9v-88.2c0-44.1-25.2-68.1-73.1-68.1h-54.2v41.7h52.9c21.4 0 29 11.3 29 31.4v5.1h-12.6c-45.3 0-93.3 15.1-93.3 66.8 0 5.1 0 10.1 1.3 15.2 0 0-8.9 5-24 5-13.86 0-18.92-5-18.92-23.9v-99.6h44.12v-41.7H92.58V53.6H53.52l-5.06 47.9h-21.4L22 143.2h25.12v103.3c0 41.6 18.93 61.8 59.28 61.8 15.2 0 29.1-3.8 50.4-13.8 11.5 8.8 26.6 13.8 45.5 13.8 21.4 0 37.8-8.8 47.8-16.4 5.1 8.8 15.2 16.4 31.6 16.4 16.4 0 31.5-5 51.8-15.2 7.5 9 17.5 15.2 31.4 15.2 18.9 0 41.7-8.8 55.6-16.4 8.8 10.2 22.7 16.4 45.3 16.4 8.8 0 16.4-1.3 24-3.8v-40.3c-5.1 1.2-11.3 2.5-17.7 2.5m-232-8.9c-6.4 5.1-17.7 8.9-31.6 8.9-17.5 0-27.7-7.5-27.7-22.7 0-15.1 10.2-27.8 50.5-27.8 5 0 8.8 1.4 8.8 1.4v40.2zM566.7 186h-78.2v42.9h78.2V186zM348.5 22.01c-15 0-27.7 12.66-27.7 26.53 0 15.19 12.7 27.72 27.7 27.72 13.9 0 26.5-12.53 26.5-27.72 0-13.87-12.6-26.53-26.5-26.53"/></svg>