<svg xmlns="http://www.w3.org/2000/svg" viewBox="0 0 426.4 177.5"><path d="M362.6 109.9h.6c.4 0 .7-.1.7-.5 0-.3-.4-.4-.7-.4h-.6v.9zm-.7-1.4h1.3c.9 0 1.4.2 1.4 1 0 .6-.4.9-.9.9l.9 1.5h-.7l-.9-1.5h-.4v1.5h-.7v-3.4zm1.2 4.1c1.3 0 2.4-1 2.4-2.4s-1.1-2.4-2.4-2.4c-1.2 0-2.3 1-2.3 2.4s1.1 2.4 2.3 2.4m0-5.5c1.7 0 3.2 1.2 3.2 3.1 0 1.9-1.5 3.1-3.2 3.1-1.6 0-3.1-1.2-3.1-3.1 0-1.9 1.5-3.1 3.1-3.1M291.2 86h-20.9v9.5h9.9c0 1.9.3 3.8-2 6.6-.8.9-3.5 3-7.3 3-3.2 0-5.5-.9-7.5-2.6-4.4-3.8-5.5-10.8-5.5-14.4 0-4.6 1.9-16.1 13.1-16.5 0 0 7.6-.5 9.6 8.6h10.5c-.2-4.6-5.6-17.6-20.1-17.6-5 0-11.3 1.5-16.6 6.7-3.8 3.8-7.2 10.2-7.2 19.3 0 9.7 3.6 16.1 6.9 19.6 5.8 6.1 11.6 6.6 14.6 6.6 2.4 0 7-.4 13-4.4l1.6 2.8h7.9V86zm-107-4.3l-4.1 12.5h8.5l-4.4-12.5zm-6.5-17.2h12.5l17 48.7h-12.1l-3.5-10.1h-14.4l-3.3 10.1h-12l15.8-48.7zm154.2 9.8h13.9v38.8h11.5V74.3h14.1v-9.8h-39.5v9.8zm-36.7-9.8v48.6h35v-10h-23.6V92.3h20.2v-9.2h-20.2v-8.8h23.6v-9.8h-35zM230 74.3h-10.8V84h9.7c3.4-.1 6-1.6 6-4.9 0-3.6-2.2-4.8-4.9-4.8m-22-9.8h22.8c13 0 14.8 8.9 14.8 14.1 0 7.5-6.5 11.3-7 11.4 0 0 5.6 2.1 5.6 8.6v9c0 3.7 2.3 4.7 2.7 5.5h-9.3c-4.4-.5-4.4-4-4.3-6v-7.8c-.1-1.9-.7-4-4.7-4.1h-9.4v17.9H208V64.5zm-74.5 0H172v9.7h-13.3v38.9H147V74.3h-13.5v-9.8zm-44.7 35.7c6.4 0 11.7-5.2 11.7-11.7 0-6.4-5.3-11.6-11.7-11.6-6.4 0-11.6 5.2-11.6 11.6 0 6.5 5.2 11.7 11.6 11.7m0 11c12.4 0 22.4-10 22.4-22.4 0-12.4-10-22.5-22.4-22.5-12.4 0-22.4 10.1-22.4 22.5s10 22.4 22.4 22.4M55 88.8C55 70.1 70.2 55 88.8 55c18.7 0 33.8 15.1 33.8 33.8 0 18.6-15.1 33.7-33.8 33.7-18.6 0-33.8-15.1-33.8-33.7"/></svg>