<svg xmlns="http://www.w3.org/2000/svg" viewBox="0 0 600 400"><path fill="#010101" d="M129.885 186.487H117.54v-6.62h32.727v6.62h-12.475V223.2h-7.908v-36.713zM169.43 223.2l-.514-3.47h-.195c-1.927 2.444-5.206 4.18-9.257 4.18-6.3 0-9.837-4.566-9.837-9.326 0-7.908 7.008-11.893 18.582-11.83v-.51c0-2.06-.837-5.468-6.365-5.468-3.087 0-6.302.963-8.425 2.31l-1.543-5.14c2.315-1.415 6.365-2.763 11.317-2.763 10.03 0 12.922 6.363 12.922 13.178v11.32c0 2.83.13 5.593.45 7.518h-7.135zm-1.028-15.3c-5.595-.13-10.93 1.092-10.93 5.847 0 3.09 1.993 4.504 4.5 4.504 3.15 0 5.465-2.06 6.172-4.306.193-.582.257-1.222.257-1.737V207.9zM185.44 201.984c0-4.245-.062-7.267-.254-10.097h6.878l.257 5.982h.258c1.543-4.438 5.207-6.686 8.552-6.686.77 0 1.22.063 1.865.193v7.46c-.645-.134-1.35-.26-2.315-.26-3.795 0-6.365 2.445-7.072 5.978-.13.707-.257 1.545-.257 2.445v16.2h-7.91v-21.216zM237.39 191.887c-.128 2.127-.257 4.697-.257 9.004v17.746c0 6.555-1.35 11.252-4.628 14.208-3.28 2.897-7.78 3.793-12.087 3.793-3.987 0-8.23-.833-10.932-2.503l1.737-5.982c1.993 1.16 5.335 2.382 9.13 2.382 5.143 0 9-2.704 9-9.452v-2.704h-.128c-1.8 2.767-5.015 4.63-9.13 4.63-7.78 0-13.31-6.43-13.31-15.3 0-10.285 6.687-16.522 14.21-16.522 4.757 0 7.587 2.31 9.065 4.885h.13l.32-4.18h6.88zm-8.165 12.54c0-.71-.065-1.48-.257-2.126-.835-2.887-3.085-5.073-6.43-5.073-4.435 0-7.715 3.855-7.715 10.222 0 5.332 2.7 9.644 7.652 9.644 2.957 0 5.528-1.934 6.428-4.76.195-.837.322-1.93.322-2.83v-5.076zM252.18 209.76c.193 5.66 4.63 8.105 9.645 8.105 3.665 0 6.302-.515 8.68-1.415l1.155 5.467c-2.7 1.088-6.43 1.926-10.928 1.926-10.16 0-16.14-6.237-16.14-15.815 0-8.682 5.273-16.845 15.303-16.845 10.158 0 13.502 8.355 13.502 15.237 0 1.478-.13 2.637-.255 3.34H252.18zm13.757-5.524c.067-2.897-1.218-7.652-6.493-7.652-4.885 0-6.943 4.437-7.265 7.652h13.757zM289.792 182.954v8.933h7.522v5.92h-7.522v13.82c0 3.794 1.03 5.786 4.052 5.786 1.352 0 2.378-.193 3.085-.385l.13 6.045c-1.156.452-3.216.77-5.723.77-2.893 0-5.337-.963-6.813-2.57-1.67-1.8-2.445-4.63-2.445-8.745v-14.722h-4.5v-5.92h4.5v-7.07l7.712-1.862zM318.66 214.584c2.573 1.482 6.43 2.767 10.48 2.767 5.08 0 7.91-2.38 7.91-5.914 0-3.282-2.186-5.207-7.716-7.2-7.137-2.574-11.7-6.367-11.7-12.604 0-7.07 5.915-12.472 15.3-12.472 4.693 0 8.167 1.028 10.415 2.187l-1.927 6.363c-1.545-.837-4.567-2.06-8.62-2.06-5.014 0-7.2 2.704-7.2 5.208 0 3.35 2.508 4.89 8.298 7.14 7.523 2.83 11.186 6.623 11.186 12.86 0 6.942-5.27 12.986-16.46 12.986-4.563 0-9.322-1.285-11.7-2.7l1.733-6.56zM383.02 207.258c0 11.503-8.1 16.652-16.075 16.652-8.87 0-15.685-6.112-15.685-16.142 0-10.285 6.748-16.585 16.2-16.585 9.323 0 15.56 6.556 15.56 16.075zm-23.597.318c0 6.045 2.96 10.608 7.782 10.608 4.5 0 7.648-4.437 7.648-10.733 0-4.888-2.185-10.48-7.585-10.48-5.593 0-7.845 5.4-7.845 10.606zM391.384 223.2v-25.394h-4.245v-5.92h4.244v-1.347c0-4.053 1.093-8.105 3.793-10.673 2.315-2.187 5.467-3.022 8.167-3.022 2.118 0 3.793.32 5.078.77l-.578 6.11c-.837-.322-1.93-.578-3.345-.578-3.923 0-5.27 3.278-5.27 7.133v1.607h6.877v5.92h-6.815v25.392h-7.908zM421.86 182.954v8.933h7.52v5.92h-7.52v13.82c0 3.794 1.03 5.786 4.05 5.786 1.353 0 2.38-.193 3.086-.385l.13 6.045c-1.155.452-3.215.77-5.722.77-2.893 0-5.337-.963-6.815-2.57-1.67-1.8-2.446-4.63-2.446-8.745v-14.722h-4.5v-5.92h4.5v-7.07l7.715-1.862zM441.53 191.887l3.28 14.212c.708 3.344 1.416 6.75 1.994 10.16h.13c.64-3.408 1.67-6.883 2.57-10.098l4.052-14.275h6.426l3.922 13.89c.967 3.666 1.8 7.073 2.507 10.48h.13c.516-3.406 1.223-6.814 2.06-10.48l3.47-13.89h7.783l-9.837 31.312h-7.33l-3.73-12.727c-.967-3.282-1.674-6.237-2.382-10.03h-.126c-.645 3.855-1.482 6.94-2.382 10.03L450.08 223.2h-7.392l-9.26-31.313h8.1zM503.132 223.2l-.515-3.47h-.193c-1.93 2.444-5.207 4.18-9.26 4.18-6.3 0-9.837-4.566-9.837-9.326 0-7.908 7.012-11.893 18.582-11.83v-.51c0-2.06-.834-5.468-6.364-5.468-3.085 0-6.3.963-8.422 2.31l-1.545-5.14c2.314-1.415 6.366-2.763 11.314-2.763 10.03 0 12.927 6.363 12.927 13.178v11.32c0 2.83.127 5.593.45 7.518h-7.138zm-1.03-15.3c-5.593-.13-10.93 1.092-10.93 5.847 0 3.09 1.993 4.504 4.504 4.504 3.148 0 5.463-2.06 6.17-4.306.193-.582.255-1.222.255-1.737V207.9zM519.143 201.984c0-4.245-.067-7.267-.26-10.097h6.882l.255 5.982h.26c1.54-4.438 5.207-6.686 8.548-6.686.774 0 1.222.063 1.867.193v7.46c-.645-.134-1.352-.26-2.315-.26-3.793 0-6.367 2.445-7.075 5.978-.126.707-.255 1.545-.255 2.445v16.2h-7.907v-21.216zM548.015 209.76c.193 5.66 4.63 8.105 9.645 8.105 3.663 0 6.3-.515 8.678-1.415l1.16 5.467c-2.7 1.088-6.43 1.926-10.93 1.926-10.16 0-16.137-6.237-16.137-15.815 0-8.682 5.27-16.845 15.3-16.845 10.16 0 13.505 8.355 13.505 15.237 0 1.478-.13 2.637-.26 3.34h-20.96zm13.76-5.524c.063-2.897-1.222-7.652-6.493-7.652-4.89 0-6.945 4.437-7.267 7.652h13.76zM73.347 123.072c11.235 12.713 13.453 29.108 4.954 36.62-8.498 7.51-24.496 3.294-35.732-9.42-11.235-12.712-13.453-29.107-4.954-36.62s24.498-3.293 35.733 9.42zM93.448 215.59c0 16.178-13.434 29.292-30.006 29.292s-30.006-13.114-30.006-29.29S46.87 186.3 63.442 186.3s30.006 13.114 30.006 29.29zM524.368 241.814c.804.465 2.01.862 3.273.862 1.588 0 2.47-.74 2.47-1.846 0-1.02-.68-1.624-2.41-2.248-2.227-.804-3.654-1.988-3.654-3.935 0-2.21 1.85-3.897 4.78-3.897 1.466 0 2.55.322 3.254.682l-.603 1.988c-.48-.26-1.423-.64-2.688-.64-1.57 0-2.253.84-2.253 1.624 0 1.047.783 1.528 2.59 2.23 2.35.884 3.496 2.07 3.496 4.015 0 2.167-1.65 4.055-5.14 4.055-1.428 0-2.915-.402-3.655-.846l.54-2.046zM534.762 243.14c0-.924.64-1.586 1.524-1.586.904 0 1.528.64 1.528 1.587 0 .905-.603 1.588-1.528 1.588-.905 0-1.524-.683-1.524-1.587zM540.208 231.152c.92-.16 2.307-.28 3.734-.28 1.947 0 3.274.322 4.178 1.084.74.624 1.164 1.566 1.164 2.713 0 1.745-1.185 2.93-2.45 3.39v.063c.964.36 1.546 1.302 1.885 2.608.422 1.688.786 3.254 1.066 3.777h-2.554c-.197-.402-.52-1.507-.9-3.194-.385-1.767-1.026-2.327-2.432-2.37h-1.243v5.564h-2.45v-13.355zm2.45 5.986h1.464c1.666 0 2.713-.887 2.713-2.23 0-1.487-1.047-2.17-2.654-2.17-.782 0-1.284.06-1.523.122v4.278zM551.544 243.14c0-.924.64-1.586 1.524-1.586.904 0 1.528.64 1.528 1.587 0 .905-.603 1.588-1.528 1.588-.905 0-1.524-.683-1.524-1.587zM556.99 230.972h2.47v11.466h5.56v2.068h-8.03v-13.534zM104.493 98.995c8.526 9.647 10.913 21.467 5.33 26.4-5.58 4.933-17.018 1.11-25.544-8.536s-10.914-21.468-5.332-26.4c5.582-4.934 17.02-1.112 25.545 8.535zM146.413 116.01c5.22 8.028 5.52 17.095.666 20.25s-13.02-.796-18.24-8.825-5.52-17.096-.666-20.25c4.853-3.157 13.018.795 18.24 8.824zM173.815 155.773c4.743 7.294 5.518 15.204 1.732 17.665s-10.7-1.456-15.444-8.75c-4.743-7.294-5.518-15.204-1.732-17.665s10.702 1.456 15.445 8.75zM143.64 269.173c0 16.177-9.797 29.29-21.882 29.29s-21.88-13.113-21.88-29.29 9.795-29.29 21.88-29.29 21.88 13.113 21.88 29.29zM180.31 253.694c2.92 12.938-.446 24.72-7.518 26.316s-15.173-7.597-18.093-20.535.444-24.72 7.516-26.316c7.072-1.597 15.172 7.597 18.093 20.534z"/></svg>