<svg xmlns="http://www.w3.org/2000/svg" viewBox="0 0 353 153"><path d="M231.8 59.51c9.4 1.99 17.4 8.5 22.3 16.58 5.1-8.11 13.1-14.22 22.3-16.75.2 15.08-.1 30.17.2 45.26-14.8.1-29.7 0-44.5.1-.7-15.06-.1-30.14-.3-45.19zm67.7.17c7.1-1.81 15.1-1.42 21.5 2.32 5.4 3.11 9.7 8.36 11.3 14.49 1 6.27.7 13.23-3.1 18.59-9.6 14.52-34.6 14.52-43.7-.47-3.4-5.07-3.6-11.37-2.8-17.21 1.7-8.47 8.5-15.55 16.8-17.72zm-163.1 4.83c4.5-3.29 10.1-4.66 15.6-4.68h23.6c-2.4 8.95-7.9 16.88-15.4 22.35 7.6 5.4 12.7 13.6 15.5 22.32-8.3.3-16.5.1-24.7.2-8.8.1-18-4.83-21.5-13.14-4.2-9.19-1.5-21.19 6.9-27.06zm56.1-4.74c8.9-2.55 19.4-1.03 26.3 5.39 8.3 7.18 9.8 20.51 4 29.64-8.9 13.7-31.6 15.1-42 2.4-7.6-8.89-6.7-23.61 1.8-31.66 2.8-2.66 6.2-4.72 9.9-5.77zm-169.57.42c3.94-.89 8.06-.11 12.08-.34 7.52 0 15.74-.43 22.4 3.69 8.34 5.1 12.16 16.19 9.15 25.42-2.05 6.92-7.82 12.44-14.65 14.54-3.81 1.5-7.94 1.1-11.93 1.2-5.78-.1-11.56.1-17.33-.2.37-14.77-.21-29.56.28-44.31zm66.4-.62c8.51-2.21 18.27-.76 25.07 5.05 9.2 7.38 10.8 22.14 3.7 31.44-9.4 12.44-30.45 13.44-40.69 1.61-8.16-8.96-7.24-24.43 1.76-32.5 2.88-2.63 6.39-4.57 10.16-5.6zm-36.81-8.82c1.23-3.27 2.21-6.62 3.26-9.95.93 0 2.8-.1 3.74-.12 1.25 3.26 2.17 6.64 3.4 9.91-1.14.13-2.27.25-3.41.35-.52-2.12-.97-4.27-1.8-6.3-.65 2.01-1.16 4.05-1.57 6.11h-3.62zM42.5 40.77h9.88v3.36c-.89 0-2.68.12-3.57.16.1 2.14.21 4.29.35 6.44-.86 0-2.6.12-3.47.16v-6.73h-3.21v-3.42zM32.27 50.9c1-3.41 1.97-6.84 3.2-10.18.96 0 2.88 0 3.84.1 1.04 3.34 2.02 6.7 3.27 9.96-1.19 0-2.39.1-3.58.1-.45-2.11-.99-4.2-1.69-6.24-.73 2.05-1.23 4.18-1.78 6.28h-3.26zm-9.9-6.59c-.5-1.18-.61-2.46-.1-3.64 3.14.12 6.28.1 9.42.11v3.41h-3.13c0 2.2 0 4.41.1 6.61H25.3c0-2.22.1-4.45.1-6.67-.76 0-2.27.13-3.02.17z"/></svg>