<svg xmlns="http://www.w3.org/2000/svg" viewBox="0 0 832 288"><path d="M546.8 14.36c-6 .49-11.5 2.9-17.2 4.69-14.1 5.25-27.9 12.09-40.1 20.84-30 20.87-53.4 52.19-62 87.91-4.7 18.8-5.8 38.5-2.9 57.6 5.2 33.9 23.2 65.3 48.5 88.1-.6-2.3-1.1-5-2.9-6.9.3-2.3-1.3-4.2-2.6-6-2.9-3.5-4.7-7.6-7.6-11.1-1.8-4.5-3.9-8.6-6.2-12.9-4.2-7.6-7.1-15.7-9.4-24-2.1-5.3-2.1-11.1-4.2-16.3-.2-5.8-1.5-11.6-1.3-17.5 0-9.5-.8-19.1.8-28.5 1-8.1 2.6-16.2 5.2-24 3.9-15 11.5-28.8 19.3-42.06 17.7-26.89 43-48.52 72.2-62.38 3.6-1.94 8.3-3.5 10.4-7.5zm-394.5 80.1c-1.4 0-2.9 0-4.3.47-4.6 10.87-8.2 22.17-12.7 33.07-6 17.1-12.8 34-19 51-1.2 3.3-2.8 6.4-3 9.7 12 0 23.9.3 35.8 0 0-.3-.3-.7-.4-.9.5-1.1 1.1-2.1 1.6-3.1 6-16.8 11.3-33.7 17.6-50.3 6.9 17.9 12.7 36.2 19.4 54.2h-.8c12 .8 24.2.3 36.2.4-1.3-8.7-5.6-16.5-8.3-24.8-8.7-23.2-17.3-46.5-26.1-69.64h-36zm-115.36.39c-2.31 0-4.63 0-6.93.28-.29 8.77.29 17.47-.41 26.07.34.3 1.03.4 1.34.6 8.49.3 17-.3 25.5.3.39 18.6 0 37.2.26 55.8-.36 3.6-.26 7.1 0 10.8 12.48.3 24.99 0 37.48 0v-52.2c0-4.8-.27-9.7.36-14.4v-.6.6c8.66.3 17.46-.3 26.26 0 .8-9 .5-18.1.2-27.15l-.7.26c-1.7-.26-3.3-.36-4.9-.36H37.07zm269.86 0h-87.2c-1.6 0-3.1 0-4.6.28-.4 8.87-.7 17.87 0 26.67 9 1 18.1-1.1 27 .6.2.4.4 1.2.5 1.6v64.6h37.8c.4-12.4.6-24.9.3-37.3.3-9.8 0-19.6 0-29.4 8.5-.6 17.1.3 25.7-.3l.2-.6c.3-.4 1.1-24.17 0-26.31zm26.8 1.64c-7.3 18.91-14.3 38.11-21.3 57.11-4.2 11.7-9.1 23.1-13.1 34.8 1.9.9 4 .5 6 .6 9.7-.3 19.6 0 29.5-.3 5.7-14.2 10.4-28.8 15.4-43.1l4.4-11.5 2.1 5.2c3.1 9.9 6.7 19.8 10.1 29.8 2.6 6.1 3.9 12.7 7.1 18.8 0 .2.2.6.2.9h35.2c0-.7-.2-1.6-.5-2.4-4.7-15.2-11.2-29.8-16.4-45-4.7-12.2-9.1-24.5-13.8-36.7-2.4-6.23-3.2-8.26-8.9-9.54-12.2-.42-19.3 0-31.5-.26-2.4.26-3.7.96-4.5 1.59zm195.2-1.04c-14.6 0-31 1.14-37 16.25-2.1 5.1-3.4 10.5-4.7 15.7-1.8 5.1-.7 10.7 1.6 15.3 2.1 3.9 6.3 6.2 10.2 7.6 8.3 2.7 17.4 1.2 26 1.6 4.2 0 9.9-1.1 12.3 3.4 3.1 4.8-.8 10-1.3 15.1-2.4 1.8-4.2 4.4-7.1 5.6-22.1.7-44.5 0-66.7.3-1.3 0-2.3.3-3.4.9-.5 1.5-1 3.1-1.3 4.7-.8 2.4-1.3 4.8-1.5 7.3 28.4.2 56.8 0 85.2 0 13.5-.3 28.4-5.7 32.8-18.9 1.8-5.5 3.9-11 4.7-16.8 3.7-11.6-4.2-22.1-15.1-22.3-10.7-.3-21.4 0-32.1-.3-3.1 0-6.2-2.6-6.5-5.9.5-3.9 1.6-7.6 2.9-11.3.8-2.8 3.4-4.1 5.5-5.9h.7c20.4 0 40.4-.3 60.5 0 4.7 3.3.8 9.1 0 13.4-1.8 4.8-3.4 9.8-4.2 14.9-1 2.3-1.8 4.9-2.6 7.4-6.8 25-14.8 49.7-21.6 74.8 6.2.3 12.8 0 19 0 3.4 0 7.1-.8 9.9-2.8l.5.3c3.2-2.4 5.5-5.6 7.1-9.1 4.1-14.1 8.6-28.1 12.5-42.2.5-2.8 2.9-4.7 5.7-4.3 4.5 7 8.9 14.1 13.6 21 2.6 4.5 6.2 9.4 11.7 10.3h32.1c-.3-1.1-.8-1.7-1.9-1.7-.8-1.7-1.5-3.2-2.8-4.6-7.3-9.9-14.6-19.8-21.7-30-1.5-2.5-1.8-5.9.8-7.6 5.7-4.1 11.7-7.1 17.5-10.8 4.4-3.1 9.6-5.5 13.8-9 2.6-.2 5.5-2.2 7.5 0 2.1 3.4 2.7 7.4 4 11.2 4.4 12.7 8.3 25.5 12.5 38.1 1 2.9 2 6 1.3 9-.8 2.1-2.6 3.8-3.9 5.7-6.6 6.9-13.3 13.7-19.6 21 3.7.8 7.6.3 11.2.4 5.7-.2 11.5.4 17-.5 6.2-1.6 12.2-4.9 15.9-10.4 3.6-3.3 6.5-7.4 9.9-11.1 13-14.4 25.8-29.4 38.8-43.7 7.5-8.8 15.1-17.4 22.7-25.8.2-.6.7-1.9 1-2.5-9.4-.3-18.8 0-28.1 0-4-.3-7.6 1.7-9.9 4.6-6.6 8.4-13.6 16.5-20.1 25-2.4 2.9-4.7 6.2-7.8 8.3-1.1-.7-2.4-1.5-2.6-2.9-1.9-7.2-3.9-14.4-5.8-21.7-1-4-1.5-8.3-4.4-11.7-.8-.4-1.6-1-2.6-1-1.8-.5-3.4-.7-5.2-.7h-56.3c-7.6 4.2-14.3 9.4-21.4 13.9-3.9 2.7-8.3 5-11.7 8.3-1-.3-2.1-.4-3.1-.7 0-.4-.3-1.6-.6-2.1 4-13.1 7.6-26.2 11.8-39.33 0-1.22 1.3-3.83-1.1-3.38-34.9-.4-69.8-.27-104.5-.4zm-9.9 2.21h.8s18.8-.52-.8 0zm-481.41 0h3.69c-2.46 0-4.93 0-7.37.44-1.98 6.6-1.23 13.5.23 20.1-1.46-6.5-2.21-13.5-.23-20.1 1.22-.26 2.45-.39 3.68-.44zm8.32.26h71.39c1 7.38-.7 14.98.8 22.28.5.3 1.3.8 1.8 1-.5-.2-1.4-.7-1.8-1-1.5-7.3.2-14.9-.8-22.23-22.89 0-45.78-.26-68.65 0h-2.77zm585.99.91c-1.9 4.77-3.4 9.57-4.7 14.47 1.3-4.9 2.8-9.7 4.7-14.47zM56.47 119.1c.62.3 1.19.6 1.69 1.1.57 1 .94 2.1 1.17 3.2-.26-1.1-.6-2.2-1.17-3.2-1.02 15.4 0 30.9-.34 46.3-.26 3.6 0 7.1.26 10.6 0 3.6.26 7.1-.26 10.7.44-3.6.39-7.1.29-10.6-.26-3.6-.34-7.1-.26-10.7.34-15.4-.68-30.9.34-46.3-.5-.5-1.07-.9-1.7-1.1zm3.28 10.4v1.3c-.37 18.4.29 36.7 0 55 .29-18.3-.34-36.6 0-55zm570.45 25.9c5.7 1.2 11.7 2.2 17.5 3.2-5.8-1-11.8-2-17.5-3.2z"/></svg>