<svg xmlns="http://www.w3.org/2000/svg" viewBox="0 0 1146 604.04"><path d="M589.31 70.835c-11 .234-21.97.03-32.93.1-23.57 1.9-47.03 7.14-68.57 17.03-15.73 7.17-30.59 16.685-42.53 29.295-6.43 6.43-12.03 13.74-15.96 21.97 41.39-9.52 83.59-16 126.06-17.44 4.7-.55 10.5 2.33 11.1 7.4 0 48.1-.34 96.21-.34 144.32 4.77-.1 9.5 0 14.24-.2V130.16c0-5.42 5.9-8.73 10.76-8.4 42.4 1.25 84.47 8.03 125.83 17.07-6.37-12.96-16.73-23.52-27.76-32.61-28.5-22.075-64.4-32.665-100-35.375zm24.7 70.015c-1.73 0-3.5.23-5.13.93-4.04 1.48-7.9 4.84-8.1 9.4-1.17 13.21 2.93 26.05 5.23 38.9 5.37 26.14 10.9 52.25 16.03 78.43 6.57-2.06 13.33-3.57 19.83-5.9 15.3-5.09 29.84-12.45 43.07-21.68 13.43-9.8 25.36-22.14 32.93-37.07 7.47-14.6 9.83-31.91 5.8-47.87-.33-1.65-2.27-1.5-3.43-1.9-33.4-5.99-67.03-10.96-100.93-12.99-1.73-.1-3.53-.26-5.3-.26zm-81.66 0c-36.67 1.99-73.14 7.08-109.17 14.13-4.13 15.52-2.23 32.4 4.67 46.86 6.2 13.45 16.27 24.78 27.57 34.21 20.13 16.36 44.66 26.55 69.79 32.27 6.37-31.03 12.74-62.04 19.13-93.06 1.67-8.48 3.34-17.26 1.84-25.89-1.6-5.79-8.17-8.89-13.83-8.52zM419.68 325.42c-16.3 0-32.56 0-48.86.23v29.31c9.53-.33 19.06.33 28.56-.33 0 23.96.34 47.96-.33 71.93h40.97v-71.7h28.33c.33-9.83 0-19.63 0-29.43-16.3 0-32.57 0-48.87-.1zm296.09 0h-21.33c-13.1 33.72-25.87 67.55-38.93 101.28 13.3-.46 26.63 0 39.93-.33 6.97-19.63 13.23-39.5 20.36-59.07 6.97 19.67 13.5 39.54 20.34 59.27 13.2-.33 26.4 0 39.56 0-12.6-33.77-25.6-67.37-38.56-100.97-7.14-.1-14.24-.14-21.37-.14zm-185.59 0c-9.63-.1-19.27.13-28.93 0-1.8.1-4.6-.64-5 1.88-12.7 33.09-25.34 66.25-38 99.35 13.23-.43 26.5 0 39.76-.33 6.97-19.8 13.67-39.7 20.3-59.6 6.87 19.93 13.64 39.87 20.4 59.87 13.2-.37 26.43 0 39.67-.34-12.67-33.7-25.67-67.23-38.53-100.84-3.24-.1-6.44-.17-9.67-.17zm38.16 0zm0 0c0 9.81 0 19.61-.33 29.44h28.7v71.53c13.63.33 27.23 0 40.86.33-.33-23.93 0-47.86 0-71.76 9.5 0 19.04 0 28.54-.34-.34-9.76 0-19.49-.34-29.23zM363.85 483.41c-2.03 0-4.06.34-6.03.64-4.97 1.13-9.57 3.96-12.6 8.1-6.47 8.66-7.07 20.93-2.37 30.53 2.97 6 8.97 10.1 15.44 11.43 5 1.37 10.26 0 14.93-1.97 7.33-3.26 11.73-11.03 12.7-18.79 1-7.9-.34-16.67-5.84-22.74-4.06-4.63-10.13-7.06-16.23-7.2zm435.88 0c-2.56 0-5.13.47-7.56 1.37-6.1 2.1-10.67 8.77-9.3 15.3.87 4.83 4.93 8.3 9.16 10.3 3.57 1.83 7.74 2.67 10.8 5.36 2.9 2.6 2.07 8.2-1.63 9.64-5.7 2.1-11.93.5-17.2-2.04-.76 2.6-1.53 5.17-2.26 7.77 6.3 3.47 13.66 2.87 20.56 2.3 8.73-1.43 14.67-11.73 10.6-19.9-3.47-7.36-12.4-8.26-18.57-12.3-3.29-2.2-2.5-7.53 1.04-9.03 4.76-1.87 10.16-.67 14.63 1.6.7-2.67 1.5-5.3 2.3-7.97-3.97-1.56-8.3-2.5-12.57-2.4zm260.77 0c-3.7 0-7.4.47-10.8 2.04-6.7 3.2-10.4 12.13-6.2 18.66 3.9 6.14 11.5 7.3 17.4 10.74 3.8 2.23 3.6 8.56-.4 10.46-5.8 2.23-12.1.4-17.6-1.8-.6 2.5-1.3 5.03-1.9 7.57 3.2 1.63 6.6 2.83 10.3 2.66 4.9 0 10.2.67 14.6-1.96 3.7-2.2 7-6.04 6.8-10.57 0-3.47.4-7.46-2.2-10.13-4.4-5.4-11.7-6.27-17.1-10-3.2-2.07-2.4-7.4 1-8.87 4.8-1.83 10.3-.73 14.8 1.57.6-2.67 1.4-5.3 2.1-7.97-3.4-1.36-7.1-2.26-10.8-2.4zm-600.52 0c-3.66-.33-7.3.37-10.7 1.84-6.66 2.9-10.46 11.33-7 18.03 3.47 6.37 11.04 8.03 17.03 11.03 4.17 1.7 5.04 8.5.84 10.67-5.77 2.76-12.4.8-17.97-1.57-.66 2.53-1.33 5.07-1.96 7.63 3.13 1.54 6.5 2.87 10.06 2.7 5.37-.33 11.37.74 15.97-2.66 6.73-4.24 8.5-14.84 2.9-20.7-4.4-4.9-11.43-5.67-16.6-9.43-3-2.07-2.4-7.27.9-8.67 4.87-1.97 10.4-.93 14.93 1.43.7-2.66 1.47-5.3 2.23-7.93-3.36-1.33-7-2.2-10.63-2.37zm-132.97 0c-5.99-.33-12.01 1.07-17.04 4.44-10.23 6.66-13.1 20.86-8.97 31.86 2.87 7.93 10.85 13.83 19.34 13.97 5.75 0 11.69.5 17.18-1.57-.53-2.57-1.13-5.1-2-7.57-7.41 2.67-17.38 2.87-22.79-3.76-5.45-7.77-5.06-20.37 2.8-26.4 5.82-4.33 13.65-3.33 20.16-1.4.86-2.43 1.56-4.97 1.86-7.57a39.018 39.018 0 0 0-10.54-2zm383.03 0c-6-.33-12 .97-17.03 4.37-10.67 6.87-13.44 21.97-8.5 33.13 3.26 7.7 11.43 13.03 19.8 12.77 5.39 0 10.96.33 16.16-1.54-.57-2.53-1.17-5.06-1.73-7.6-5.54 1.74-11.73 2.5-17.27.44-5.26-1.97-8.53-7.37-9.16-12.77-.8-6.43.6-13.96 6.23-17.9 5.83-4.33 13.7-3.26 20.23-1.36.7-2.54 1.37-5.04 1.8-7.6-3.37-1.1-6.93-1.8-10.53-1.94zm277.49 0c-6.5 0-12.97 1.57-18.1 5.84-8.4 6.83-10.5 19.03-7.54 29.03 2.6 8.4 10.57 15.2 19.5 15.36 5.8 0 11.9.7 17.4-1.66-.5-2.47-1-4.97-1.53-7.44-7.8 2.6-18.53 2.97-23.7-4.63-4.97-8.03-4.2-20.86 4.37-26.16 5.83-3.57 13.13-2.74 19.3-.6.7-2.64 1.33-5.3 1.83-7.97-3.67-1.07-7.6-1.73-11.53-1.77zm-742.41.34h-10.74c-6.36 16.63-12.85 33.19-19.01 49.93h19.97c3.26-9.57 6.46-19.13 9.67-28.67 3.46 9.5 6.62 19.13 9.91 28.7h19.92c-6.11-16.7-12.63-33.2-18.99-49.8-3.58-.33-7.15-.33-10.73-.33zm-171.62 0c0 4.33-.03 8.66-.2 13v1.93c4.78 0 9.56 0 14.33-.33-.233 11.96.07 23.89-.2 35.86 6.88 0 13.78-.33 20.66.33v-35.96c4.73 0 9.45 0 14.18-.33 0-4.9 0-9.8.1-14.7H73.534zm62.9 0c-6.76 16.73-13.06 33.66-19.51 50.49 6.67 0 13.36.47 20.02 0 3.5-9.86 6.91-19.76 10.05-29.76 2.96 10.23 6.79 20.16 10.06 30.3 6.6-.54 13.22-.34 19.84-.34-6.23-16.9-12.65-33.73-19.31-50.46-7.05-.33-14.1 0-21.15 0zm59.58 0h-24.46c.1 4.96.1 9.93 0 14.9 4.8 0 9.6 0 14.4-.34-.17 11.74-.1 23.43 0 35.17h20.32c.2-11.67.1-23.37.1-35.03 4.72 0 9.46 0 14.19-.34-.2-4.9-.1-9.83-.1-14.73h-24.46zm676.69 0c-4.6 0-9.24.33-13.77 1.1-.33 16.2.37 32.43-.33 48.66 3.26 0 6.53-.33 9.76-.33-.33-6.7 0-13.4-.33-20.1 3.87.33 9.33-.57 11.3 3.8 2.3 5.23 2.8 11.06 4.9 16.4h9.83c-2.37-5.5-2.93-11.54-5.07-17.1-1-2.77-3.06-5-5.66-6.3 6.86-2.27 10.7-10.47 8-17.17-1.97-5.86-8.44-8.6-14.17-8.9h-4.63zm-113.83.33c-1.74 0-3.44 0-5.14.33-3.63 7.04-6.66 14.37-10.2 21.44-3.26-7.2-6.33-14.54-10.13-21.5h-10.2c4.6 9.6 10.23 18.63 14.87 28.2.76 6.96.43 14.09 0 21.09h9.8v-16.43c0-2.13 0-4.43 1.06-6.33 4.84-8.93 10.34-17.5 14.97-26.57h-5.17zm-35.67 0zm-115.46 0c-1.97 0-3.97 0-5.93.37-5.47 16.33-10.4 32.83-16 49.09 3.33 0 6.7 0 10.06-.33 1.3-4.57 2.67-9.13 4.07-13.7h15.17c1.4 4.63 2.86 9.27 4.3 13.93h10.13c-5.17-16.43-10.67-32.73-15.87-49.13-1.96 0-3.96-.33-5.93-.33zm214.09 0zm0 0c-.33 16.43 0 32.86-.33 49.26 10.1-.33 20.16.34 30.23-.33 0-2.57 0-5.13-.33-7.7H831v-13.66c6.17 0 12.33-.34 18.5.33v-8.07h-18.37v-11.96c6.57 0 13.14-.34 19.67.33 0-2.7-.33-5.4-.4-8.07h-28.47zm-250.76 0c-6.26 0-12.5 0-18.73.33v7.9h13.97c-.34 13.8.33 27.63-.34 41.43 3.24 0 6.44 0 9.67-.33v-41.16h14.2v-8.14h-18.77zm69.93 0h-5.16v49.2h8.76c0-12.54 0-25.07-.46-37.57 6.23 13 14.13 25.07 21.3 37.57 3.23 0 6.43 0 9.66-.34 0-16.36.34-32.73-.33-49.06h-8.5c0 12.13-.43 24.33.67 36.46-5.77-12.73-13.37-24.53-20.8-36.29-1.7-.34-3.44-.34-5.2-.34zm293.39 0h-4.83c-4.37 12.93-8.77 25.9-12.07 39.16-3.3-13.19-7.63-26.13-11.36-39.19h-10.3c5.13 16.5 11 32.73 15.63 49.36h11.07c5.4-16.47 11.4-32.7 16.73-49.16h-4.87zm-454.31 0zm0 0c0 9.93-.34 19.9 0 29.87 0 6.23 2 13.06 7.3 16.89 7 4.74 16.76 4.54 23.73 0 5.47-4.06 7.53-11.2 7.63-17.76v-28.93h-9.4v27.9c0 4.06-.33 8.53-3.1 11.73-3 3.06-8.13 3.46-11.8 1.43-3.4-2.13-4.53-6.4-4.76-10.17-.4-10.33 0-20.63-.34-30.93zm540.05 0c-4.8 0-9.6 0-14.4.33v49.17c10-.34 20.1 0 30.2-.34 0-2.6-.3-5.16-.3-7.73h-20.4v-13.7c6.1 0 12.3-.33 18.5.34v-8.04h-18.4v-12.03c6.6 0 13.1-.33 19.7.33 0-2.7-.4-5.4-.4-8.06h-14.4zm-621.45 0h-5.3v49.23h8.7c0-12.87.37-25.8-.5-38.66 5.6 13.66 14.33 25.73 21.37 38.66h9.83c-.33-16.4.33-32.8-.33-49.2h-8.54c0 11.97-.33 23.94.54 35.9-5.77-12.53-13.5-24-20.44-35.86h-5.33zm134.33 0h-4.7v49.23c9.9-.33 19.76 0 29.63-.33v-7.77h-19.93v-41.3h-4.73zm420.52 0h-9.44v49.26h9.37c.33-16.46 0-32.89 0-49.36zm-79.7 6.87c1.86 0 3.73.33 5.46 1.06 4.6 2.3 4.84 9.74.57 12.54-3.37 2.26-7.66 1.53-11.46 1.63 0-5.03 0-10.07-.34-15.07 1.84 0 3.77-.33 5.64-.33zm-511.08 0c4.1 0 8.2 1.76 10.27 5.43 4.36 7.3 4.39 17.13 0 24.43-3.57 6.27-13.04 7.57-18.17 2.57-5.2-5.27-6.1-13.43-4.63-20.4.86-4.77 3.63-9.67 8.43-11.33 1.27-.47 2.63-.67 3.97-.7zm244.59 1.46c1.8 6.7 4 13.27 6 19.9h-11.67c1.87-6.63 4.04-13.2 5.67-19.9z"/></svg>