<svg xmlns="http://www.w3.org/2000/svg" viewBox="0 0 323.1 220.4"><path d="M295.1 32.2h-1v2.3h1.1c1.1 0 1.6-.4 1.6-1.2 0-.9-.9-1.1-1.7-1.1zm1.8 5.4l-1.9-2.5h-.9v2.5h-.7v-6h1.9c1.5 0 2.2.6 2.2 1.7 0 .9-.8 1.7-1.7 1.7l1.9 2.6h-.8zm-1.5-7.7c-2.6 0-4.6 2.1-4.6 4.7s2 4.8 4.6 4.8c2.6 0 4.6-2.2 4.6-4.8 0-2.6-2-4.7-4.6-4.7zm0 10c-2.8 0-5.3-2.3-5.3-5.3s2.5-5.3 5.3-5.3 5.3 2.3 5.3 5.3-2.5 5.3-5.3 5.3m-135.8 74.4v37.3h-8.5v-37.3h-13.4v-7.2h35.2v7.2h-13.3m138.5 36.1c-2.3 1.4-4.8 2.1-7 2.1-4.2 0-6.1-2.2-6.1-6.8v-19.5h-4.7V121l4.7-.8v-9.4h7.6v9.4h6.8v6h-6.8v13.9c0 3.6.3 4.6 1.6 4.6.9 0 2.1-.5 4.3-2l2.6 5.9c-1.1.6-2.1 1.3-3 1.8m-19.8-1.8l-3-6.2c-2.9 1.9-4.1 2.5-6 3-1.3.4-2.5.5-3.8.5-2.9 0-5.6-1.4-7-3.7-.7-1.3-.9-2.4-1.1-5h20.9v-3.5c0-8.5-5.5-14.4-13.2-14.4-9 0-15.8 7.5-15.8 17.5 0 9.5 5.9 15.7 15.2 15.7 3.7 0 7.1-.7 10.4-2.2.7-.4 1.9-.9 3.4-1.7zm-8.1-16.5h-12.3c.6-4.3 3-6.7 6.6-6.7 3.8 0 5.5 1.9 5.7 6.7m-30.9 23.4c0 1.2-.9 2.6-2.4 3.7-1.9 1.6-4.5 2.5-6.9 2.5-3.7 0-6.7-1.6-6.7-3.5 0-.8.6-2.1 1.5-3.6.2-.2.4-.6.7-1.1h9.8c2.7 0 4 .7 4 2zm8.7-29.2v-6.1l-6.3.4H237c-3-1-4.3-1.3-6.6-1.3-8.3 0-13.4 4.6-13.4 12.1 0 3 .9 5.6 2.7 7.7.8.9 1.4 1.4 2.8 2.5-.8.6-1.5 1-1.9 1.4-3.1 2-4.1 3.4-4.1 5.2 0 1.9 1.2 3.2 4.4 4.3-3.7 3.1-5.1 5.2-5.1 7.6 0 4.8 5.3 7.9 12.9 7.9 10.6 0 18.1-5.6 18.1-13.5 0-5-2.8-7.5-9-7.5h-11c-1.6 0-2.1-.3-2.1-.9 0-.8 1-1.8 3.1-3.4 1 .2 1.5.2 2.3.2 8.2 0 13.8-4.8 13.8-11.9 0-2.1-.4-3.2-1.4-4.7h5.5zm-12.4 4.7c0 3.3-2.3 5.8-5.2 5.8-2.9 0-5.2-2.5-5.2-5.7 0-3.3 2.3-6 5.2-6 2.9 0 5.2 2.7 5.2 5.9m-23.5-1.2c-.8-.7-1.5-.9-2.4-.9-1.3 0-2.7.8-3.9 2.3-1.5 1.8-2.2 3.7-2.2 6v14.4h-8v-31.4h6.9l.4 6.9c3-5.3 5-7.4 7.4-7.4 1.7 0 3.1.8 4.4 2.3l-2.6 7.8M192 145.9c-2.2-.2-2.5-.6-2.5-3.5v-13.1c0-6.9-3.4-10-10.9-10-8.5 0-13.3 3.2-13.3 8.7 0 .9 0 1.3.4 2.2l7.7-1.7c-.2-.4-.2-.5-.2-.8 0-1.5 1.9-2.8 4.3-2.8 2.7 0 3.9 1.5 3.9 4.9v2.6l-8.9 2.6c-4.6 1.4-6.5 2.8-7.6 5.7-.3 1.1-.5 2.1-.5 3.2 0 5 3.8 8.5 9.1 8.5 3.2 0 5.8-1.1 8.8-3.8 1.4 2.8 2.7 3.4 6.7 3.4h1.7l1.3-6.1zm-10.6-2.1c-1.1.9-1.6 1.1-2.1 1.4-1.1.6-2.3.9-3.3.9-2 0-3.2-1.2-3.2-3.2 0-.8.1-1.4.6-2.6l8-2.7v6.2M43.85 114.3v37.3h-8.5v-37.3H22v-7.2h35.21v7.2H43.85m89.25 37.3v-20.2c0-3.9-.7-5.3-2.6-5.3-1.7 0-4.1 1.7-7.6 5.5l-1.1 1.1v18.9h-8.1v-49.2h8.1v23c3.8-4.1 6.9-5.8 10.9-5.8 5.7 0 8.5 3 8.5 8.9v23.1h-8.1m-26-.9c-2.9 1.2-6.1 1.8-9.17 1.8-9.73 0-16.01-6.4-16.01-16.3 0-10.1 6.69-16.9 16.68-16.9 1.8 0 3.5.2 5.1.5 2.3.6 3.4 1 6.1 2.6l-3.9 6.1c-2.4-1.8-3.9-2.4-6.35-2.4-5.33 0-9.11 4.2-9.11 10.1 0 5.6 3.37 9.4 8.23 9.4 2.73 0 4.63-.7 8.13-2.7l3 6.6c-1.2.5-2.1.9-2.7 1.2m-29.3-2.1l-2.97-6.2c-2.91 1.9-4.12 2.5-6.01 3-1.28.4-2.49.5-3.71.5-2.97 0-5.68-1.4-7.03-3.7-.74-1.3-.95-2.4-1.08-5h20.8v-3.5c0-8.5-5.4-14.4-13.17-14.4-8.98 0-15.74 7.5-15.74 17.5 0 9.5 5.88 15.7 15.2 15.7 3.65 0 7.03-.7 10.34-2.2.75-.4 1.88-.9 3.37-1.7zm-8.1-16.5H57.41c.67-4.3 3.1-6.7 6.68-6.7 3.78 0 5.4 1.9 5.61 6.7m149.4-61.6c-3.2 0-5.9-2.6-5.9-5.9 0-3.3 2.7-6 5.9-6 3.3 0 6 2.7 6 6s-2.7 5.9-6 5.9zm0-21.1c-8.3 0-15.1 6.8-15.1 15.2 0 8.3 6.8 15.1 15.1 15.1 8.4 0 15.1-6.8 15.1-15.1 0-8.4-6.7-15.2-15.1-15.2m25 14.9c0 13.8-11.2 25-25 25-13.7 0-24.9-11.2-24.9-25 0-13.7 11.2-24.9 24.9-24.9 13.8 0 25 11.2 25 24.9zm55.9-9.1c-.3 0-32.2-33.2-80.6-33.2-48.3 0-80.5 33.2-80.5 33.2v5s25.5-21.7 65.2-26.6c-11.4 5.6-19.2 17.3-19.2 30.7 0 18.9 15.4 34.3 34.2 34.3 18.9 0 34.3-15.4 34.3-34.3 0-13.5-7.9-25.2-19.4-30.8 40.1 4.7 66 26.7 66 26.7v-5M106.6 185.5c-1.4-.1-1.6-.5-1.6-2.5v-9.4c0-4.9-2.2-7.1-7.02-7.1-5.52 0-8.68 2.2-8.68 6.2 0 .6 0 .9.27 1.5l4.98-1.2c-.1-.3-.13-.4-.13-.6 0-1.1 1.27-2 2.84-2 1.72 0 2.5 1.1 2.5 3.6v1.8l-5.77 1.9c-2.98.9-4.2 2-4.9 4.1a7.8 7.8 0 0 0-.35 2.3c0 3.5 2.44 6 5.9 6 2.06 0 3.77-.8 5.66-2.7 1 2 1.8 2.5 4.4 2.5h1.1l.8-4.4zm-6.84-1.5c-.74.6-1 .8-1.35 1-.7.4-1.49.6-2.15.6-1.31 0-2.09-.8-2.09-2.3 0-.6.1-1 .38-1.9l5.21-1.8v4.4m-37.29 1.5c-1.4-.1-1.62-.5-1.62-2.5v-9.4c0-4.9-2.19-7.1-7.03-7.1-5.52 0-8.67 2.2-8.67 6.2 0 .6 0 .9.26 1.5l4.98-1.2c-.1-.3-.13-.4-.13-.6 0-1.1 1.27-2 2.85-2 1.71 0 2.49 1.1 2.49 3.6v1.8l-5.77 1.9c-2.98.9-4.2 2-4.9 4.1a7.8 7.8 0 0 0-.35 2.3c0 3.5 2.44 6 5.89 6 2.07 0 3.78-.8 5.71-2.7.91 2 1.74 2.5 4.36 2.5h1.1l.83-4.4zM55.6 184c-.73.6-1 .8-1.35 1-.71.4-1.48.6-2.15.6-1.31 0-2.1-.8-2.1-2.3 0-.6.1-1 .39-1.9l5.21-1.8v4.4m67 5.2v-15c0-3-.5-4-1.8-4-1.2 0-2.8 1.2-5.1 4.1l-.8.8v14.1h-5.5v-21.8h5.5v2.3c2.6-3.1 4.7-4.4 7.4-4.4 3.8 0 5.7 2.2 5.7 6.7v17.2h-5.4m-50.9-7.7c-.1-.5-.14-1-.14-1.6v-3.1c0-.4 0-.9.14-1.3.45-2.3 2.18-3.9 4.17-3.9 3.11 0 4.68 3 4.68 6.7 0 4-1.75 6.8-4.76 6.8-2.03 0-3.64-1.6-4.09-3.6zm.61 5.8c.83 1.4 2.65 2.4 5.03 2.4 4.38 0 8.93-3.6 8.95-11.7 0-7.1-3.89-11.1-8.16-11.1-2.88 0-5.09 1.2-6.53 3.5l-.11.1h-.61l-.28-3.1h-4.84c.1 2 .15 4.4.15 7.2v23.8h5.65v-11.3h.64l.11.2m-41.42-2.6c-1.11 0-2.12-.2-2.97-.5l-.61 4.9c1.21.4 2.94.6 4.25.6 6.1-.1 9.65-2.8 9.71-11.6v-19.3h-5.65v19.3c0 2.4-.42 4.1-1.26 5.1-.85 1.1-2.08 1.5-3.47 1.5"/></svg>