<svg xmlns="http://www.w3.org/2000/svg" viewBox="0 88 600 125"><path d="M515.65 148.618c0 15.428-.028 30.857.04 46.285.007 1.61-.447 2.004-1.973 1.908-2.15-.135-4.314-.066-6.47-.017-.822.02-1.225-.188-1.113-1.07.047-.373.008-.755.008-1.133v-78.815-.81c-.002-2.766-.567-3.085-3.018-1.667-5.117 2.96-10.282 5.84-15.31 8.942-1.778 1.096-3.052 1.133-4.856.023-5.353-3.294-10.85-6.357-16.297-9.496-2.042-1.178-2.67-.8-2.67 1.578-.002 26.865-.012 53.73.03 80.595 0 1.415-.262 1.985-1.813 1.874-2.093-.15-4.208-.1-6.308-.012-1.098.045-1.35-.336-1.34-1.375.052-4.747.023-9.494.023-14.242 0-26.326.01-52.65-.028-78.977-.002-1.38.26-1.763 1.777-1.913 5.388-.533 10.053.885 14.53 3.905 4.134 2.787 8.646 5.01 12.953 7.545 1.107.652 1.99.675 3.112 0 5.755-3.466 11.57-6.835 17.328-10.294 1.24-.744 2.458-1.183 3.933-1.11 2.045.102 4.1.085 6.148 0 1.067-.043 1.345.288 1.337 1.343-.047 6.69-.024 13.378-.024 20.068v26.868zM304.53 148.566c0-15.534.014-31.068-.024-46.602-.003-1.212.258-1.526 1.554-1.653 5.464-.532 10.176.898 14.86 3.866 8.163 5.173 16.693 9.768 25.07 14.603 2.3 1.326 2.97.955 2.973-1.655.007-5.124.038-10.25-.026-15.372-.014-1.16.343-1.453 1.452-1.41 2.153.086 4.318.11 6.47-.006 1.257-.068 1.49.35 1.486 1.527-.042 14.402-.027 28.803-.027 43.205 0 16.612-.027 33.226.04 49.84.007 1.615-.456 2.003-1.976 1.902-2.04-.135-4.1-.083-6.146-.012-.976.034-1.33-.228-1.295-1.25.073-2.155.022-4.314.022-6.472 0-18.34-.024-36.68.04-55.018.005-1.75-.577-2.68-2.082-3.536-9.952-5.65-19.846-11.404-29.76-17.122-2.4-1.384-3.03-1.035-3.03 1.67 0 26.646-.016 53.292.038 79.938.004 1.537-.453 1.88-1.87 1.8a51.42 51.42 0 0 0-6.145.003c-1.36.086-1.63-.437-1.563-1.644.09-1.668.023-3.344.023-5.016v-41.586c-.03-.002-.057-.002-.084-.002zM223.838 148.614c0-15.537.018-31.075-.032-46.612-.004-1.37.385-1.737 1.708-1.664 2.044.112 4.102.105 6.147.002 1.258-.063 1.628.283 1.62 1.588-.058 10.196-.032 20.393-.032 30.59 0 5.826-.004 11.652.002 17.48.002 2.172.76 2.602 2.67 1.5 10.245-5.904 20.476-11.834 30.743-17.702 1.06-.606 1.343-1.33 1.34-2.464-.033-9.765.008-19.53-.052-29.294-.007-1.325.288-1.778 1.662-1.702 2.15.12 4.318.113 6.47 0 1.25-.064 1.498.343 1.494 1.528-.045 12.678-.028 25.356-.028 38.034 0 18.397-.022 36.793.04 55.19.006 1.494-.428 1.794-1.79 1.72-2.1-.116-4.21-.086-6.31-.008-1.058.04-1.375-.27-1.357-1.348.067-3.937.027-7.876.027-11.814v-36.092c0-2.71-.734-3.16-3.02-1.835-10.14 5.875-20.27 11.768-30.43 17.607-1.072.616-1.49 1.31-1.485 2.553.047 9.71-.014 19.422.067 29.132.012 1.55-.47 1.886-1.885 1.804a54.314 54.314 0 0 0-5.985 0c-1.253.065-1.62-.278-1.614-1.58.057-10.68.032-21.363.032-32.045v-14.566zM590.807 196.777c-2.736 0-5.325-.047-7.91.024-.946.027-1.253-.273-1.458-1.19-1.96-8.756-3.978-17.5-5.982-26.246-3.323-14.508-6.65-29.016-9.962-43.527-.185-.81-.277-1.72-1.313-1.76-1.13-.046-1.272.875-1.476 1.76-4.495 19.478-9.01 38.95-13.522 58.426-.873 3.767-1.773 7.53-2.59 11.31-.194.898-.51 1.254-1.47 1.226a143.226 143.226 0 0 0-7.12-.007c-.974.02-1.134-.205-.9-1.19 3.245-13.754 6.43-27.522 9.644-41.282 4.056-17.37 8.146-34.73 12.15-52.113.343-1.485.876-1.994 2.404-1.877 2.038.156 4.102.124 6.145.004 1.094-.064 1.486.326 1.708 1.313 2.164 9.593 4.357 19.18 6.544 28.768 4.91 21.53 9.823 43.06 14.733 64.592.12.52.22 1.047.372 1.77zM117.456 196.743c-4.9-.053-9.835.32-14.68-.664-9.94-2.018-16.155-8.668-17.778-18.825a54.39 54.39 0 0 1-.68-8.69c.025-14.295.002-28.59.074-42.885a32.17 32.17 0 0 1 1.7-10.15c3.004-8.905 9.447-13.68 18.56-14.752 8.317-.978 16.704-.226 25.058-.413.695-.016.952.222.943.93-.03 2.534-.056 5.07.01 7.605.028 1.095-.65.885-1.266.886-5.718.01-11.436.013-17.155.026-2.27.005-4.528.185-6.732.727-7.284 1.79-11.45 7.012-11.72 15.018-.184 5.497-.037 11.004-.07 16.506-.01 1.394.724 1.71 1.95 1.702 5.935-.03 11.87.03 17.803-.05 1.33-.017 1.62.406 1.563 1.63-.095 2.1-.094 4.21 0 6.308.054 1.177-.23 1.56-1.488 1.545-5.825-.075-11.652-.035-17.478-.033-2.123 0-2.374.212-2.333 2.283.108 5.55-.314 11.11.302 16.652.262 2.365.816 4.654 1.797 6.83 2.475 5.488 7.104 7.73 12.743 8.214 6.78.58 13.585.195 20.378.202 1.498.002 1.793.445 1.713 1.8a49.4 49.4 0 0 0 0 5.823c.08 1.36-.213 1.864-1.724 1.813-3.827-.127-7.66-.042-11.49-.04zm32.902-48.193c0 6.743.017 13.486-.008 20.23-.01 2.81.215 5.588.658 8.364 1.847 11.564 9.802 18.824 21.494 19.392 10.134.493 20.28.087 30.417.218.87.01 1.248-.17 1.22-1.143-.067-2.37-.072-4.747.002-7.118.03-1-.38-1.12-1.226-1.115-5.826.03-11.652.038-17.478.01-3.61-.02-7.22.08-10.833-.196-7.318-.56-12.13-4.503-13.92-11.58a29.267 29.267 0 0 1-.918-7.19c-.007-13.218 0-26.434-.006-39.65 0-2.057.25-4.088.653-6.095 1.258-6.286 4.61-10.686 11.135-12.155 2.268-.51 4.573-.71 6.896-.713 8.038-.007 16.076-.048 24.113.01 1.314.01 1.645-.376 1.584-1.626-.098-2.044-.105-4.102.01-6.146.073-1.325-.296-1.72-1.666-1.708-7.66.07-15.32.035-22.98.037-2.857 0-5.714-.066-8.56.314-9.092 1.213-15.645 5.684-18.75 14.583-1.11 3.175-1.718 6.47-1.757 9.814-.092 7.82-.03 15.643-.03 23.464-.016.002-.033.002-.05.002zM42.524 112.113c0-2.14.18-2.323 2.297-2.325 6.15-.004 12.297-.02 18.445.017.975.006 1.437-.135 1.388-1.284-.098-2.314-.062-4.637-.012-6.955.02-.85-.12-1.223-1.113-1.22-17.15.03-34.3.032-51.45-.004-1.064 0-1.24.37-1.215 1.305.062 2.155.103 4.318-.01 6.47-.07 1.317.258 1.726 1.647 1.707 5.984-.084 11.97-.036 17.958-.036 2.462 0 2.674.21 2.674 2.644v47.405c0 11.81.018 23.622-.027 35.433-.004 1.182.24 1.607 1.498 1.54a53.93 53.93 0 0 1 6.306.003c1.4.09 1.65-.39 1.644-1.697-.05-13.86-.03-27.72-.03-41.58 0-13.807-.002-27.614 0-41.42zM433.32 149h.03c0-7-.016-14.287.006-21.515.01-2.864-.155-5.62-.733-8.43-1.868-9.082-6.884-15.517-15.786-18.545-7.273-2.474-14.64-2.24-21.877.245-6.413 2.2-10.926 6.543-13.376 12.907-1.385 3.6-2.033 7.36-2.037 11.215-.016 15.05-.01 30.102-.017 45.152 0 2.263.034 4.522.364 6.772 1.383 9.44 6.04 16.358 15.286 19.61 5.97 2.098 12.132 2.245 18.332 1.193 4.596-.78 8.786-2.493 12.246-5.708 5.214-4.843 7.343-11.247 7.514-18.13.205-8.196.05-16.767.05-24.767zm-9.412-7.3c.044 2.37.007 4.3.007 7.3h-.006c0 7-.008 15.136.003 22.795.003 2.487-.22 4.86-.732 7.29-.91 4.326-3.547 7.107-7.728 8.454-5.746 1.85-11.54 1.82-17.312.122-5.604-1.65-8.143-5.774-8.87-11.313-.3-2.308-.36-4.623-.358-6.94.017-15.156.028-30.314.063-45.47.004-1.887.354-3.745.76-5.587 1.108-5.004 4.375-7.888 9.164-9.16 5.092-1.35 10.24-1.377 15.326 0 5.917 1.605 8.833 5.415 9.376 11.558.615 6.95.178 13.997.306 20.95z"/></svg>