<svg xmlns="http://www.w3.org/2000/svg" viewBox="0 0 141 60">
		<path   d="m 134.7,37.78 0,-7.06 c 0,-1.62 -0.5,-2.04 -1.4,-2.04 -0.9,0 -1.5,0.42 -1.5,1.99 l 0,7.11 -4.2,0 0,-15.57 4.2,-1.7 0,5.66 c 0.8,-0.59 1.7,-1.09 3.2,-1.09 2.7,0 4,1.82 4,5.09 l 0,7.61 -4.3,0 z m -14.5,0.26 c -3.7,0 -5.9,-2.32 -5.9,-6.52 0,-3.81 2,-6.44 6,-6.44 2.3,0 3.7,1.09 4.7,2.84 l -2.9,2.23 c -0.6,-1.09 -1,-1.61 -1.9,-1.61 -1.1,0 -1.6,1.09 -1.6,3.05 0,1.97 0.5,2.99 1.7,2.99 0.8,0 1.4,-0.45 2.2,-1.61 l 2.7,2.11 c -1.5,2.13 -2.8,2.96 -5,2.96 z m -12.6,-0.26 0,-7.06 c 0,-1.62 -0.6,-2.04 -1.5,-2.04 -0.9,0 -1.4,0.42 -1.4,1.99 l 0,7.11 -4.3,0 0,-12.44 4.3,0 0,0.83 c 0.8,-0.59 1.7,-1.09 3.1,-1.09 2.7,0 4.1,1.82 4.1,5.09 l 0,7.61 -4.3,0 z m -14.53,0 0,-0.83 c -0.76,0.59 -1.66,1.09 -3.11,1.09 -2.72,0 -4.02,-1.83 -4.02,-5.1 l 0,-7.6 4.29,0 0,7.06 c 0,1.61 0.54,2.04 1.42,2.04 0.87,0 1.42,-0.43 1.42,-2 l 0,-7.1 4.29,0 0,12.44 -4.29,0 z M 82.93,30.03 c -0.54,-0.59 -1.16,-1.04 -1.99,-1.04 -1.04,0 -1.68,0.49 -1.68,2.01 l 0,6.78 -4.27,0 0,-12.44 4.27,0 0,0.9 c 0.73,-0.71 1.56,-1.16 2.65,-1.16 0.9,0 1.52,0.21 2.02,0.52 l -1,4.43 z m -17.38,8.01 c -4.93,0 -7.56,-3.65 -7.56,-8.56 0,-5.33 3.13,-8.55 7.58,-8.55 4.08,0 5.69,1.76 6.83,4.88 l -4.17,1.64 c -0.6,-1.54 -1.17,-2.51 -2.68,-2.51 -1.92,0 -2.75,1.91 -2.75,4.54 0,2.54 0.81,4.55 2.8,4.55 1.44,0 2.06,-0.78 2.96,-2.34 l 3.88,2.06 c -1.11,2.18 -2.96,4.29 -6.89,4.29 z m -14.49,-0.26 0,-7.06 c 0,-1.62 -0.55,-2.04 -1.43,-2.04 -0.9,0 -1.44,0.42 -1.44,1.99 l 0,7.11 -4.27,0 0,-15.57 4.27,-1.7 0,5.66 c 0.78,-0.59 1.66,-1.09 3.13,-1.09 2.72,0 4.02,1.82 4.02,5.09 l 0,7.61 -4.28,0 z m -14.55,0.26 c -3.64,0 -5.82,-2.32 -5.82,-6.52 0,-3.81 1.94,-6.44 5.92,-6.44 2.34,0 3.69,1.09 4.78,2.84 l -2.93,2.23 c -0.6,-1.09 -1,-1.61 -1.92,-1.61 -1.09,0 -1.64,1.09 -1.64,3.05 0,1.97 0.59,2.99 1.76,2.99 0.8,0 1.37,-0.45 2.15,-1.61 l 2.7,2.11 c -1.44,2.13 -2.79,2.96 -5,2.96 z m -7.93,-5.26 -7.3,0 c 0.15,1.37 0.95,1.99 2.11,1.99 1.09,0 1.99,-0.24 3.22,-0.88 l 1.64,2.72 c -1.54,0.9 -3.13,1.43 -5.07,1.43 -3.74,0 -5.81,-2.66 -5.81,-6.47 0,-4.29 2.42,-6.49 5.69,-6.49 3.41,0 5.54,2.25 5.54,6.87 0,0.35 0,0.61 -0,0.83 z m -5.64,-4.55 c -0.97,0 -1.51,0.66 -1.66,1.89 l 3.56,0 c -0.22,-1.25 -0.64,-1.89 -1.9,-1.89 z m -9.73,-3.03 0,12.58 -4.597,0 0,-12.58 -4.643,0 0,-4.01 13.88,0 0,4.01 -4.64,0 z"/>

</svg>
