<svg xmlns="http://www.w3.org/2000/svg" viewBox="0 0 699.583 345.307"><path d="M545.3 108.1c11-9.84 39.7-26.89 56-33.26 14.3-5.58 24.4-7.43 38.2-6.97 10.2.34 12 .7 18 3.55 13.1 6.15 19.2 15.34 19.9 29.88.5 9.4.3 9.6-4.5 7.7-6.3-2.4-26.9-6-40.4-7.1-16.4-1.2-35.5-.2-58.5 3.2-13.4 2-26.8 4.5-30.6 5.7-.9.3-.1-.9 1.9-2.7zm-81.9 22c0-.3 3.6-4.1 7.9-8.5 14-14.4 17-26.84 8.6-36.77-9.1-10.77-37.6-16.66-68.6-14.15-34.4 2.78-70.4 11.33-113 26.88-5.9 2.16 20.1-20.58 35.1-30.66 18.5-12.51 41.4-24.34 61.4-31.81 9.2-3.4 34-9.93 42.9-11.28 28.7-4.37 63.8-.62 84 8.99 24.4 11.55 36.5 32.07 29.7 50.02-7.2 18.98-31.5 35.28-65.5 43.88-10 2.6-22.5 4.4-22.5 3.4zM221.3 321c.2-1.2 3.2-11.8 6.5-23.5 3.4-11.7 9.4-32.8 13.5-47 4-14.1 8.8-30.9 10.7-37.3 1.8-6.4 5-17.3 7-24.2 1.9-6.9 4.5-14.3 5.6-16.5 3.1-6.2 9.6-12.6 15.7-15.4 10.7-5.1 16-5.7 58.6-6.3l39.6-.5 1 2.4c.5 1.3 1.5 9.2 2.1 17.5 1.5 19 5.7 67.8 7.3 83.6 1.2 12.2 1.9 13.7 5 10.1 1.4-1.6 20.1-32.5 48-79.5 10.8-18 15.7-23.9 23.6-27.9 9.6-4.8 12.9-5.1 60.8-5.7 40.1-.4 45.3-.3 45.8 1.1.6 1.6.4 2.5-10 38-3.6 12.5-8.7 30-11.3 38.9-9.4 32.3-13.8 47.6-14.8 50.5-.5 1.7-2.3 8.5-4 15.2-1.7 6.7-4.2 15.9-5.6 20.4l-2.5 8.4h-68.8l.6-3.3c.4-1.8 2.4-9.2 4.6-16.4 2.1-7.2 7.9-27 12.7-44 4.8-16.9 10.5-37 12.7-44.6 2.2-7.7 4-14.4 4-14.9 0-2.4-3.7-.9-5.5 2.2-2.6 4.6-36.1 60.3-43.8 72.7-3.5 5.7-7.5 12.7-8.9 15.4-8.1 16.3-17.9 26.2-29.4 30-6.4 2.1-9.1 2.2-40 2.6-18.7.3-33.6.1-34.1-.4s-2-13.2-3.4-28.2c-1.4-14.9-3.9-41.9-5.6-59.9-1.7-18-3-33.4-3-34.1 0-.8-1.1-1.4-2.4-1.4-2.1 0-2.7.8-4 5.8-.8 3.2-5.7 20.2-10.8 37.7-5.1 17.5-10.4 35.6-11.7 40.4-2.3 8.1-7.1 25.4-9.9 35.3l-1.3 4.6-27.6.2-27.5.3zm-154.85 2c0-.5 6.32-22.6 12.66-44.2 3.18-10.8 6.84-23.9 8.13-29 1.29-5.1 5.55-20.2 9.47-33.6 3.89-13.4 7.09-25 7.09-25.8 0-1.3-5.47-1.5-40.89-1.5-22.5 0-40.91-.2-40.91-.5 0-.2 2.48-5.6 5.5-11.8 8.98-18.6 15.53-23.4 34.3-25.1 12.77-1.1 202.3-1.3 203-.1 1 1.5-7.5 13.2-14.9 20.7-13.6 13.9-20 15.9-52.6 16.7l-23.3.6-3.6 12.7c-2.1 6.9-6.7 22.8-10.3 35.3-3.6 12.5-10.2 35.2-14.6 50.5-4.5 15.3-8.5 29.4-9 31.3l-.9 3.6-34.6.2c-19 .2-34.55.2-34.55 0z"/></svg>