<svg xmlns="http://www.w3.org/2000/svg" viewBox="-95 -41 408 282"><path d="M-32.25 183.9h-15.164v-13.876H-.408V183.9h-15.166v40.258H-32.25V183.9M37.13 207.85c0-15.313-6.75-24.027-22.367-24.027-12.435 0-20.774 9.324-20.774 20.778 0 13.11 9.475 20.544 22.06 20.544 8.95 0 17.214-3.947 20.244-12.43H22.268c-1.21 1.887-3.863 2.807-6.293 2.807-4.697 0-7.28-3.186-7.657-7.67H37.13zm-28.737-7.802c.68-4.25 3.266-6.6 7.73-6.6 3.87 0 6.603 2.96 6.603 6.6H8.393M44.482 170.024h15.015v54.134H44.482v-54.134M109.914 207.85c0-15.313-6.747-24.027-22.367-24.027-12.436 0-20.774 9.324-20.774 20.778 0 13.11 9.48 20.544 22.06 20.544 8.95 0 17.21-3.947 20.243-12.43H95.048c-1.205 1.887-3.86 2.807-6.29 2.807-4.697 0-7.282-3.186-7.657-7.67h28.814zm-28.738-7.802c.68-4.25 3.26-6.6 7.732-6.6 3.867 0 6.597 2.96 6.597 6.6h-14.33M143.12 224.158h-17.748l-12.885-39.35h15.845l6.14 23.96h.15l6.23-23.96h15.313l-13.044 39.35M176.695 180.558h-14.99v-10.535h14.99v10.535zm-14.99 4.25h14.99v39.35h-14.99v-39.35M208.404 196.256c-.072-1.29-.76-2.277-1.745-2.956-.908-.762-2.132-1.13-3.32-1.13-2.124 0-4.56.447-4.56 3.02 0 1.143.913 1.673 1.75 2.055 2.51 1.065 8.184 1.363 13.193 3.03 4.99 1.59 9.394 4.55 9.394 10.99 0 10.92-10.463 13.88-20.004 13.88-9.264 0-19.42-3.718-19.65-13.88h14.336c.068 1.374.68 2.5 1.818 3.486.763.686 2.204 1.138 4.02 1.138 1.957 0 5.076-.75 5.076-3.025 0-2.276-1.295-2.96-8.258-4.17-11.445-1.976-16.08-5.61-16.08-12.36 0-9.937 10.688-12.51 18.59-12.51 8.477 0 18.707 2.348 19.08 12.432h-13.642M269.82 199.217c0-7.582.157-15.394-18.65-15.394-9.325 0-19.79 1.814-20.235 12.89h13.948c.075-1.676.97-4.026 5.603-4.026 2.43 0 4.933.99 4.933 3.646 0 2.51-2.05 3.103-4.096 3.485-7.653 1.442-22.214.985-22.214 13.417 0 8.27 6.28 11.91 13.878 11.91 4.836 0 9.47-1.058 12.656-4.71h.155c-.077 1.07.154 2.662.532 3.723h15.318c-1.672-2.503-1.83-5.834-1.83-8.797v-16.143zm-14.402 10.912c-.224 4.092-2.886 6.14-6.303 6.14-2.732 0-4.692-1.818-4.692-3.63 0-2.655 1.733-3.497 5.068-4.253 2.054-.456 4.11-.986 5.928-1.9v3.642M112.99-21.872c-16.687 0-32.16 2.433-46.338 6.508h92.464a165.738 165.738 0 0 0-46.127-6.508zM201.145 3.1a183.123 183.123 0 0 0-13.608-7.44h-42.895a73.26 73.26 0 0 1 12.26 7.44h44.243zM38.147-4.34A181.304 181.304 0 0 0 24.543 3.1h44.5a73.26 73.26 0 0 1 12.26-7.44H38.147zM10.39 12.606C5.51 16.29 1.065 20.163-2.827 24.23H50.02a73.498 73.498 0 0 1 8.6-11.624H10.39zM228.662 24.23c-3.924-4.067-8.4-7.938-13.31-11.624h-48.025a73.56 73.56 0 0 1 8.6 11.624h52.735zM243.937 48.99c-1.732-5.903-4.628-11.475-8.474-16.734h-55.397a72.744 72.744 0 0 1 5.076 16.735h58.795zM-9.57 32.255c-3.815 5.263-6.687 10.835-8.404 16.735h58.78a72.742 72.742 0 0 1 5.074-16.735H-9.57zM39.898 56.262h-59.36a45.613 45.613 0 0 0-.345 5.527c0 4.195.576 8.238 1.652 12.138h58.843a73.73 73.73 0 0 1-1.02-12.142c0-1.86.094-3.7.23-5.524zM185.257 73.928h58.874a45.445 45.445 0 0 0 1.653-12.14c0-1.873-.126-3.713-.35-5.526h-59.385a74.24 74.24 0 0 1 .23 5.524c0 4.138-.362 8.19-1.02 12.142zM-16.074 79.904c2.8 6.622 7.07 12.808 12.473 18.597h53.137a72.814 72.814 0 0 1-7.607-18.596h-58.004zM229.585 98.5c5.402-5.788 9.67-11.974 12.468-18.596h-58.037A72.862 72.862 0 0 1 176.41 98.5h53.175zM148.488 125.91h43.226a183.817 183.817 0 0 0 12.785-7.35c7.39-4.658 14.137-9.636 19.938-14.967h-51.265a73.645 73.645 0 0 1-24.685 22.318zM52.773 103.593H1.548c5.802 5.33 12.546 10.303 19.934 14.957 4.07 2.564 8.34 5.03 12.796 7.36h43.178a73.635 73.635 0 0 1-24.683-22.317zM83.076 128.712H39.874c20.71 9.924 45.21 16.737 73.114 16.737 27.904 0 52.418-6.81 73.133-16.738h-43.253a73.01 73.01 0 0 1-29.897 6.376c-10.65 0-20.76-2.29-29.894-6.376z"/></svg>