<svg xmlns="http://www.w3.org/2000/svg" viewBox="0 0 80.828 24.839"><path d="M73.81 19.84h.574l-.28-2.908h-.6L72.01 19.84h.602l.263-.547h.89l.05.546m-.387-1.71c.1-.208.243-.56.243-.56s0 .246.01.492l.04.605.01.15h-.623l.07-.15.246-.536m-6.837 1.71h.577l-.283-2.908h-.6l-1.49 2.907h.598l.265-.547h.89l.04.546m-.384-1.71c.1-.208.24-.56.24-.56s0 .246.01.492l.04.605v.15h-.623l.07-.15.25-.536m-29.138-3.113l1.612-7.62h4.41l-.343 1.607H40.27L40 10.284h1.898l-.327 1.552h-1.894l-.328 1.553h2.606l-.35 1.627h-4.555m.442-6h-1.988l-1.274 6h-1.973l1.277-6h-1.766l.337-1.62h5.73l-.343 1.62M71.7 16.94l-.587 2.9h-.577l.59-2.9h.574m-2.486 0l-.486 2.417h.984l-.117.482h-1.537l.588-2.9h.568m-4.164 0l-.114.486h-.726l-.486 2.413h-.572l.487-2.414h-.675l.1-.485h1.986m-2.984 0l-.587 2.9h-.576l.587-2.9h.576m11.156-1.923l.38-2.938c.08-.48.1-.953.193-1.666h-.01c-.257.646-.397 1.028-.604 1.434l-1.554 3.17h-1.664l-.09-3.083a15.9 15.9 0 0 1 .01-1.53h-.01a49.79 49.79 0 0 0-.446 1.574l-.876 3.037h-1.822l2.35-7.62h2.353l.04 3.018c0 .426-.01.727 0 1.443.28-.58.408-.95.692-1.55l1.326-2.91h2.34l-.915 7.62h-1.705m-10.24-1.413c-.65 0-.924-.217-.924-1.113 0-.984.522-3.695 1.927-3.695.602 0 .895.187.895 1.018 0 .993-.48 3.79-1.896 3.79m-.36 1.54c3.864 0 4.408-3.988 4.408-5.08 0-1.554-.617-2.798-2.666-2.798-3.482 0-4.486 3.43-4.486 5.257 0 1.618.937 2.622 2.743 2.622m-6.02 0c-1.69 0-2.68-1.017-2.68-2.547 0-1.506.546-3.257 1.73-4.33.687-.61 1.536-1.003 2.733-1.003.903 0 1.567.24 1.95.556l-1.068 1.323c-.29-.25-.664-.36-1.077-.36-.415 0-.743.13-1.103.503-.5.513-.935 2-.935 3.125 0 .765.448 1.125 1.014 1.125.488 0 .894-.143 1.396-.522l.573 1.354c-.57.448-1.425.774-2.533.774m-8.377-.13l1.612-7.62h4.41L53.9 9.004h-2.462l-.273 1.28h1.896l-.326 1.552H50.84l-.327 1.553h2.6l-.345 1.627h-4.555m-.785 0h-4.55l1.613-7.62h1.97l-1.272 6h2.58l-.34 1.62M25.798 7.4s-.893.086-1.53-.794C23.844 6.026 23.14 5 23.14 5s-3.84 1.392-5.173 1.787c-2.29.675-3.832.61-4.44.61H7.65l-.618 2.9h5.85c.608 0 2.783-.04 4.438-.612 1.317-.454 6.047-2.174 6.047-2.174l1.35 1.845s.54.944 2.078.944h2.87l.617-2.9h-4.484m-2.03 9.54s-.89.08-1.53-.793c-.424-.583-1.127-1.608-1.127-1.608s-3.837 1.393-5.173 1.786c-2.29.677-3.83.61-4.44.61H5.62l-.62 2.9h5.85c.61 0 2.784-.04 4.44-.61 1.318-.454 6.045-2.173 6.045-2.173l1.352 1.844s.54.94 2.076.94H57.62l.614-2.897H23.77m1.026-4.77s-.894.09-1.532-.793c-.42-.58-1.126-1.605-1.126-1.605s-3.84 1.39-5.177 1.784c-2.284.677-3.83.61-4.437.61H6.646l-.618 2.9h5.852c.607 0 2.783-.04 4.438-.61a787.562 787.562 0 0 0 6.045-2.175l1.352 1.845s.538.943 2.08.943h2.87l.614-2.9h-4.484"/></svg>