<svg xmlns="http://www.w3.org/2000/svg" viewbox="0 0 300 82">
  <path d="M36.743 81.242c-15.812-.197-28.75-.747-28.75-1.223 0-1.46 110.83-2.43 199.42-1.75 46.154.354 84.142.87 84.417 1.145.275.275.232.768-.096 1.096-.676.677-211 1.28-254.99.732zm-3.75-17.933c0-.422.857-1.695 1.904-2.83 1.047-1.136 5.355-10.84 9.573-21.564 8.745-22.236 11.023-26.58 16.272-31.038l3.75-3.186-9.5.57c-10.863.65-17.26 2.572-21.24 6.385-3.028 2.9-4.888 8.06-4.055 11.244.734 2.807-1.265 2.555-4.368-.548-3.676-3.674-2.755-8.66 2.51-13.603C34.43 2.555 38.916 1.7 68.494 1.003 82.793.666 94.645.472 94.83.574c.186.1-.918 1.005-2.452 2.012C90.29 3.956 87.186 4.5 80.04 4.753c-8.633.304-9.806.582-12.258 2.9-2.814 2.66-8.49 15.36-15.758 35.263-4.133 11.316-7.453 17.104-10.82 18.868-2.578 1.35-8.21 2.396-8.21 1.525zm85 .118c0-.387.827-1.9 1.837-3.36s2.088-3.328 2.395-4.153c.306-.825 1.493-3.85 2.638-6.725l2.08-5.224-4.498 3.434c-7.687 5.868-15.93 7.13-19.997 3.06-4.29-4.288-2.6-13.663 4.113-22.83 7.533-10.287 21.433-14.087 21.433-5.86 0 3.776-5.656 10.194-12.953 14.697-6.088 3.757-7.888 7.008-5.92 10.688 1.197 2.233 3.34 2.196 8.373-.145 6.258-2.91 12.005-9.632 14.932-17.464 1.412-3.778 2.568-7.01 2.568-7.18 0-.17-1.013-.5-2.25-.732-2.082-.39-2.015-.52.89-1.747 1.725-.73 3.926-2.71 4.888-4.4 5.392-9.463 12.563-13.73 24.146-14.366 7.74-.424 8.31-.31 10.75 2.128 1.417 1.417 2.576 3.08 2.576 3.7 0 1.54-5.548 6.967-7.123 6.967-.994 0-1.01-.267-.078-1.2.66-.66 1.2-2.45 1.2-3.977 0-6.05-9.233-7.642-16.072-2.772-2.835 2.02-8.928 10.242-8.928 12.05 0 .39 4.5.462 10 .16 10.613-.586 12.647.32 7.132 3.17-8.07 4.175-15.814 26.472-9.505 27.372 4.778.682 13.373-14.6 13.373-23.78 0-2.658.343-2.844 9-4.862 10.903-2.544 12.412-2.19 11.71 2.738-.282 1.98-.85 4.443-1.265 5.472-.414 1.03 1.36-.386 3.94-3.145 5.23-5.59 9.36-7.757 13.03-6.836 4.84 1.215 4.388 3.843-3.804 22.11-2.28 5.087-3.59 9.548-3.6 12.25-.013 4.903-1.07 5.28-4.678 1.675-3.464-3.465-2.878-8.1 2.533-20.057 2.273-5.023 4.133-9.636 4.133-10.25 0-4.56-10.08 7.082-16.5 19.057-4.592 8.564-5.266 9.35-8.25 9.638-1.788.172-3.25-.022-3.25-.43 0-.41 2.25-6.52 5-13.576 5.913-15.175 6.185-17.13 2.25-16.188-3.902.932-4.25 1.235-4.25 3.69-.002 2.81-5.147 13.706-8.628 18.27-5.394 7.07-14.297 10.263-19.15 6.864-5.073-3.553-1.332-18.462 6.55-26.102l3.962-3.84-5.79.334-5.79.335-4.185 11.665c-5.786 16.124-10.37 25.73-13.133 27.517-2.74 1.772-7.838 3.178-7.838 2.16zm.186-33.17c3.747-3.965 5.285-8.224 3.25-9.005-2.834-1.088-8.605 6.078-10.924 13.562l-.743 2.4 2.865-2.058c1.575-1.133 4.074-3.338 5.55-4.9zM87.626 54.84c-2.07-1.63-2.635-2.94-2.635-6.12v-4.045l-3.5 2.67c-7.928 6.046-15.006 7.152-19.164 2.994-2.324-2.323-2.508-3.066-1.9-7.645 1.6-12.074 10.87-23.087 21.25-25.248 2.455-.51 3.647-.2 5.21 1.364 1.706 1.707 1.863 2.498.99 5-1.278 3.67-9.19 11.2-14.744 14.032-3.792 1.935-4.142 2.444-4.142 6.034 0 2.156.404 4.17.898 4.475 2.385 1.475 7.863-1.068 12.617-5.858 4.136-4.167 6.294-7.848 12.03-20.518C101.12 7.43 101.72 6.484 104.85 5.67c1.83-.473 3.708-.725 4.176-.56.468.168-2.45 7.8-6.482 16.964-8.69 19.742-10.826 25.862-10.826 31.01 0 4.405-.47 4.607-4.093 1.758zM77.07 31.462c4.642-4.4 6.576-8.295 4.932-9.938-.753-.753-1.57-.75-2.787.01-3.905 2.437-11.357 16.674-7.64 14.593.768-.43 3.24-2.53 5.495-4.665zM264.54 54.77c-2.29-1.802-2.667-2.76-2.358-6 .202-2.12.018-3.856-.41-3.856-.426 0-.775.447-.775.994 0 1.97-8.265 7.006-11.495 7.006-3.492 0-6.505-2.548-6.505-5.503 0-1.73-.14-1.717-2.25.213-6.24 5.707-14.196 6.936-18.305 2.828l-2.464-2.463-3.63 2.464c-4.212 2.86-9.465 3.208-11.882.79-2.403-2.403-1.466-6.464 4.58-19.838 5.144-11.383 5.167-11.413 9.304-12.277 2.28-.476 4.297-.756 4.48-.62.184.133-2.178 5.84-5.25 12.68-5.78 12.874-6.71 16.73-4.043 16.73 2.37 0 7.46-4.166 7.46-6.106 0-2.987 3.974-11.158 7.547-15.52 4.092-4.992 10.58-8.375 16.068-8.375 6.61 0 8.567 4.138 3.75 7.927-3.22 2.533-4.823 2.666-3.86.323 2.224-5.423-1.115-6.943-5.698-2.593-8.503 8.072-12.682 26.918-5.497 24.79 4.885-1.446 9.564-5.735 12.722-11.662 6.84-12.836 14.055-18.062 25.127-18.202 3.664-.046 6.992.244 7.396.645.404.4-.426 3.326-1.844 6.5-4.316 9.655-7.922 21.503-8.072 26.517-.078 2.613-.42 4.752-.757 4.752-.338 0-1.84-.963-3.34-2.143zm-6.246-10.35c3.296-3.393 13.268-22.273 12.285-23.256-1.167-1.166-6.22 1.148-9.03 4.134-3.933 4.182-8.194 12.062-9.383 17.357-1.463 6.512.867 7.183 6.128 1.766zm-36.05-32.202c-1.71-.644-1.577-4.787.202-6.264 2.264-1.878 5.048-.856 5.048 1.852 0 2.522-3.176 5.192-5.25 4.412z"/></svg>