<svg xmlns="http://www.w3.org/2000/svg" viewBox="0 0 296.91 149.86"><path d="M264.08 69.28h28.83v28.83h-28.83zm-86.47 0h28.82v28.83h-28.82zm-86.47 0h28.82v28.83H91.14zm-18.35 46.25c0 9.15 1.33 15.08 4.01 17.82 2.27 2.33 6.13 3.77 11.54 4.3 1.6.14 4.35.2 8.23.2v8.01H27.12v-8.01c5.58 0 9.69-.27 12.35-.8 5.38-1.13 8.77-4.27 10.17-9.41.72-2.67 1.09-6.7 1.09-12.11V10.81c-11.78.33-21 4.23-27.65 11.71-6.32 7.15-10.18 18.11-11.58 32.86L4 54.08 5.39 4H118.3l1.4 50.08-7.51 1.3c-1.4-14.75-5.29-25.71-11.63-32.86-6.69-7.48-15.95-11.38-27.77-11.71zM4.13 69.28h28.83v28.83H4.13z"/></svg>