<svg xmlns="http://www.w3.org/2000/svg" viewBox="0 0 593.45 222.96"><path d="M11.76 220.55v-1.72h2.16l.63-.63s0-.77.64-1.59l-4.13-10.93h1.97l2.29 6.29c0 .95.63 1.78.82 2.54 0-.83.64-1.65.7-2.48l2.35-6.35h1.85l-4.13 11.12c-.64 1.02-.77 1.84-1.02 2.41 0 .64-.64.96-1.08 1.27-.64.64-.95.64-1.59.64h-1.21zm-9.98-4.2H.06v-15.06h1.85v5.34c.82-.95 1.78-1.46 3.05-1.46.89 0 1.71 0 2.41.7.7.63 1.21 1.08 1.59 1.9.64.83.64 1.85.64 2.93 0 1.78-.64 3.17-1.27 4.26-.89 1.08-2.04 1.65-3.44 1.65-1.27 0-2.28-.64-3.05-1.65zm0-5.53c0 1.08 0 1.91.63 2.48 0 .64.64.96 1.02 1.34.64 0 .96.63 1.53.63.89 0 1.65-.63 2.16-1.2.63-.77.82-1.78.82-2.99 0-.89 0-1.65-.63-2.29 0-.64-.64-1.08-1.02-1.4-.63 0-.89-.63-1.52-.63-.96 0-1.72.63-2.23 1.2-.63.83-.76 1.78-.76 2.93zm98.77 4.14c0 2.16-2.42 2.47-2.42 0v-7.44c0-1.34-1.52-2.86-3.24-2.86-1.84 0-3.62 1.78-3.62 3.05v7.31c0 2.16-2.41 2.16-2.41 0V203.9c0-2.04 2.47-2.04 2.47 0 .64-.64 1.78-1.78 4.01-1.78 1.65 0 3.18.82 4.13 1.97.7-1.02 1.91-2.04 4.7-2.04 2.93 0 5.15 2.04 5.15 4.07v9.22s0 1.01-1.4 1.01c-1.27 0-1.27-1.08-1.27-1.08v-7.88c0-.89-.82-2.92-2.6-2.92-1.59 0-3.31 1.21-3.44 2.29zm23.14-9.92c0-1.97 2.54-2.03 2.54 0 0 .64 0 0 0 0 .63-.64 1.84-1.72 4.19-1.72 3.05 0 5.47 2.29 5.47 4.77v7.5c0 2.23-2.54 2.29-2.54 0v-7.25c0-1.33-1.53-2.86-3.37-2.86-1.97 0-3.82 1.78-3.82 3.06v7.18c0 2.1-2.47 2.1-2.47 0v-10.93zm45.44 0c0-1.91 2.54-1.97 2.54 0 .64-.64 1.85-1.78 4.2-1.78 2.98 0 5.46 2.35 5.46 4.83v7.5c0 2.16-2.54 2.23-2.54 0v-7.31c0-1.27-1.59-2.8-3.37-2.8-1.97 0-3.81 1.78-3.81 3.06v7.18c0 2.1-2.54 2.1-2.54 0v-11zm-122.1-1.91c-4.7 0-6.67 4.01-6.67 6.99 0 2.86 1.84 6.93 6.99 6.93 2.16 0 5.53-1.71 5.53-3.11 0-.64-.76-1.15-1.91-.64-1.08.64-2.28 1.46-3.43 1.46-2.22 0-4.51-2.22-4.51-3.87h9.22c.69 0 1.14-.64 1.14-1.15 0-2.79-2.16-6.73-6.36-6.73zm0 2.1c2.48 0 3.82 2.42 3.82 3.81H42.9c0-1.84 1.85-3.81 4.13-3.81zm142.63-1.59c-4.7 0-6.61 4.01-6.61 6.99 0 2.86 1.84 6.93 6.93 6.93 2.16 0 5.46-1.72 5.46-3.18 0-.63-.76-1.08-1.84-.63-1.14.63-2.29 1.46-3.5 1.46-2.16 0-4.44-2.29-4.44-3.88h9.15c.7 0 1.14-.63 1.14-1.21 0-2.73-2.16-6.67-6.29-6.67zm0 2.16c2.41 0 3.75 2.35 3.75 3.75h-7.88c0-1.84 1.84-3.81 4.13-3.75zm16.21 1.21c-.77 0-1.97-1.14-3.63-1.14-1.78 0-2.6.63-2.6 1.65s1.59 1.27 2.67 1.59c.76 0 2.22.76 2.22.76 1.91.64 2.74 1.97 2.74 3.75 0 1.65-1.59 3.11-2.74 3.43-3.49.89-8.01-.89-8.01-2.09 0-1.28.89-1.53 1.34-1.34 1.4.64 2.35 1.46 4.19 1.46 1.47 0 2.74 0 2.74-1.52 0-1.4-2.99-2.04-3.5-2.16-.63 0-4.19-.83-4.19-3.75 0-2.42 2.16-4.07 4.64-4.07 2.35 0 5.21.82 5.21 2.35 0 .64 0 1.08-1.08 1.08zm13.98-3.18c-1.72 0-4.32 0-5.02 1.59 0 .64 0 1.08.63 1.4h1.28c1.39-.64 2.09-.83 3.17-.83 1.72 0 3.82.64 3.82 2.16v1.28c-.64-.64-1.46-.64-3.82-.64-4 0-5.91 2.48-5.91 4.39 0 2.16 1.4 4.25 5.15 4.25 2.03 0 3.94-.63 4.7-1.71v1.01c0 .64.64.7.96.7.7 0 1.33 0 1.33-.95v-8.64c0-2.23-2.86-4.13-5.97-4.13zm-.64 6.99c1.28 0 2.61 0 3.88.64v1.84c0 .77-2.1 2.35-4.13 2.35-1.78 0-3.18-.95-3.18-2.35 0-.82.83-1.97 2.04-2.29h1.33zm-101.37-11.25s0-1.2 1.33-1.2c1.4 0 1.27 1.27 1.27 1.27v16.52s0 1.27-1.33 1.27c-1.21 0-1.21-1.2-1.21-1.2zm32.16-1.59c-1.46 0-1.34 1.09-1.34 1.09v5.97s-.7-.64-1.46-.89c-.82-.64-1.84-.64-2.98-.76-1.59 0-3.18.63-4.39 1.4a6.952 6.952 0 0 0-2.54 5.4c0 2.16.76 4 2.16 5.21 1.14 1.08 2.6 1.78 4.77 1.78 1.01 0 2.16-.64 2.98-.95.89-.64 1.4-1.27 1.59-1.15.64 0-.63 1.97 1.15 2.04 1.46 0 1.2-1.78 1.2-1.78V199s0-1.02-1.14-1.02zm-5.78 7.57c2.54 0 4.57 2.16 4.57 4.77-.63 5.91-8.96 5.91-9.41 0 0-2.67 2.23-4.84 4.84-4.77zm16.33-2.29c-4 0-7.31 3.11-7.31 7.12 0 9.47 14.11 9.47 14.11 0 0-3.81-2.99-6.99-6.8-7.12zm-.7 2.42c2.73 0 5.09 2.03 5.09 4.83 0 6.42-9.48 6.42-9.48 0 0-2.55 1.91-4.64 4.39-4.83zm49.32-1.02s0-1.27 1.27-1.27c1.34 0 1.34 1.2 1.34 1.2v11.51s0 1.14-1.4 1.14c-1.21 0-1.27-1.2-1.27-1.2zm-129.02-1.97c-4.01 0-7.38 3.11-7.38 7.18.64 9.15 13.86 9.15 14.31 0a7.17 7.17 0 0 0-6.93-7.18zm0 2.41c2.6 0 4.64 2.23 4.64 4.9 0 6.54-9.6 6.54-9.6 0 0-2.8 2.22-5.02 4.96-4.9zm-19.39-6.67s0-1.08 1.27-1.14c1.15 0 1.27 1.08 1.27 1.08v11.5l6.81-6.86s1.14-1.08 1.97 0c.76.95 0 1.78 0 1.78l-4.14 4.25 4.58 5.72s.64 1.28 0 1.85c-1.14.76-1.91-.64-1.91-.64l-4.45-5.65-2.35 2.35v2.86s0 1.08-1.52 1.08c-1.4 0-1.21-1.08-1.21-1.08zm-5.65.64s0-1.21 1.33-1.15c1.4 0 1.33 1.27 1.33 1.27v16.78s0 1.21-1.39 1.21c-1.21 0-1.21-1.14-1.21-1.14zm-26.06 2.16s-1.28 0-1.28-1.21 1.15-1.4 1.15-1.4h11.69s1.91-.64 1.85 1.53c0 1.39-1.97 1.14-1.97 1.14h-3.88v14.62s0 1.27-1.59 1.21c-1.21 0-1.21-1.15-1.21-1.15v-14.81zm233-31.91c-3.17-.64-7.75 16.4-10.8 15.76-2.61-.63 0-10.55-2.86-10.55-1.27 0-2.93 2.86-3.69 6.04-1.02 4.13-.63 9.15-.63 9.22.7-.64 10.23-3.69 18.36 3.36 10.36 9.03 3.37 20.6 3.37 20.6s-.82 0-3.62-.7c-2.22-.64-2.99-1.08-2.99-1.08s2.86-10.62-1.71-14.49c-6.23-4.9-10.74-2.99-12.27-2.36 0 0 .7 4.77 4.58 9.73 4.32 5.34 9.47 7.18 9.47 7.18-.64.7-.89 1.27-1.47 1.84-2.16 2.17-5.14 3.44-8.13 3.44-3.05 0-6.04-1.27-8.14-3.44-2.16-2.09-3.36-5.14-3.36-8.13 0-3.12 1.27-6.17 3.43-8.33 1.01-1.01 2.29-1.78 3.62-2.35-1.08-3.18-1.14-4.96-1.14-5.15-2.23.83-4.39 2.04-6.11 3.69-3.36 3.18-5.33 7.69-5.33 12.27 0 4.45 1.9 8.89 5.14 12.07 3.25 3.18 7.89 5.02 12.52 5.02 4.58 0 9.22-1.84 12.46-5.02 1.27-1.21 2.23-2.6 3.05-4.13.64 0 15.38 1.27 17.1-4 1.27-4.07-11.95-1.72-12.27-4.45 0-2.67 4.26-5.66 4.26-5.66s14.18-9.53 12.65-12.84c-2.03-4.26-12.77 6.8-16.4 4.71-1.08-.64 2.16-5.09 3.88-8.01 2.73-4.64 4.96-9.28 3.18-10.17-3.05-1.46-13.29 12.84-15.51 12.01-1.08-.64 0-6.55 0-6.67 0 0 1.59-9.03-.64-9.41zm296.57-44.11l11.19-62.1h9.47l-9.35 51.55h23.52l-1.91 10.55zm-43.92 0l11.31-62.61h34.64l-1.9 10.62h-25.24l-2.47 13.85h23.45l-1.91 10.56h-23.45l-3.12 17.03h26.19l-1.91 10.55zm-42.39-20.34l9.4-1.21c0 4.13.64 7.19 1.72 9.09 1.33 1.91 3.5 2.93 6.36 2.93 3.05 0 5.46-.89 7.3-2.61 1.85-1.72 2.99-3.75 3.44-6.04 0-1.46 0-2.73-.64-3.75-.63-1.08-1.4-1.97-2.92-2.73-1.02-.64-3.31-1.46-7.06-2.73-4.76-1.72-7.94-3.75-9.53-6.23-2.23-3.44-2.93-7.63-2.04-12.59.64-3.18 1.78-6.16 3.63-8.96 1.9-2.73 4.19-4.89 6.99-6.29 2.86-1.46 6.04-2.23 9.6-2.23 5.91 0 9.98 1.72 12.33 5.22 2.35 3.43 3.11 8 2.22 13.79l-9.53.63c0-3.17 0-5.53-1.4-6.92-1.08-1.4-2.92-2.1-5.59-2.1-2.74 0-5.03.76-6.87 2.29-1.14.95-1.91 2.22-2.16 3.87 0 1.47 0 2.74.7 3.75.95 1.4 3.56 2.8 7.94 4.2 4.33 1.46 7.44 2.99 9.35 4.51 1.9 1.59 3.3 3.69 4 6.36.76 2.73.83 6.03 0 9.98-.7 3.62-2.03 6.99-4.07 10.1-2.09 3.12-4.57 5.47-7.56 6.99-3.05 1.53-6.55 2.29-10.61 2.29-5.91 0-10.17-1.84-12.65-5.53-2.48-3.62-3.43-8.96-2.8-15.95zm-55.94 20.34l11.32-62.61h14.17l.76 42.72L458.7 62.6h14.18l-11.31 62.61h-8.78l8.9-49.26-18.18 49.26h-9.08l-.64-49.26-8.9 49.26zM369.4 94.32c1.15-6.42 2.8-11.76 5.03-16.08 1.65-3.18 3.62-6.86 5.91-9.41 2.28-2.54 4.64-3.62 7.05-4.83 3.24-1.65 6.74-2.48 10.55-2.48 6.87 0 11.89 2.86 15 8.58 3.12 5.72 3.75 13.73 1.91 23.9-1.84 10.11-5.34 18.05-10.49 23.71-5.08 5.72-11.12 8.58-17.99 8.58-6.99 0-11.94-2.86-15.06-8.52-3.05-5.65-3.69-13.53-1.91-23.45zm9.79-.64c-1.27 7.12-1.01 12.46.77 16.15 1.77 3.62 4.57 5.46 8.32 5.46s7.18-1.78 10.23-5.46c3.12-3.62 5.28-9.03 6.61-16.34 1.28-7.18 1.09-12.52-.63-16.01-1.72-3.56-4.51-5.34-8.39-5.34-3.94 0-7.37 1.84-10.42 5.4-2.99 3.56-5.15 8.96-6.49 16.14zm-60.57 31.53l11.31-62.61h9.47l-5.02 27.84 24.09-27.84h12.71l-22.05 24.41 11.69 38.2h-12.2l-7.56-29.36-9.54 10.42-3.43 18.94zm-39.79 0l11.19-62.1h9.41l-9.28 51.55h23.51l-1.9 10.55zm-43.92 0l11.32-62.61h34.64l-1.91 10.62h-25.23l-2.48 13.85h23.45l-1.91 10.56h-23.45l-3.11 17.03h26.12l-1.91 10.55zm-29.42 0l9.4-51.99h-13.92l1.91-10.62h37.18l-1.9 10.62H224.3l-9.41 51.99zM109.19.32c-18.43 0-31.01 17.35-38.83 35.14l25.11-2.98c-3.31 5.27-6.11 11.56-8.33 18.43 14.55-1.53 28.92-2.35 42.96-1.53l17.86 23.71-.82 1.72c-1.08 0-2.29-.64-3.43-.64-21.49-2.1-44.18-3.24-65.66 2.48-3.43 17.03-5.15 34-4.45 50.78l-19.13-24.02c.64-7.37 1.08-14.75 1.84-22.18a94.41 94.41 0 0 0-13.92 5.08l11.7-28.85c3.05-.89 6.23-1.72 9.28-2.48 1.65-5.98 3.94-12.91 6.93-19.71l-7.63.89-8.65 21.36C26.19 65.72 0 81.74 0 102.07c0 17.04 30.57 28.86 50.34 31.59-13.54-3.62-32.93-13.28-32.93-24.34 0-7.75 11.64-16.84 24.98-22.94l-.63 1.27 12.58 15.76c-1.01 19.38 0 38.71 6.87 57.71 4.19 11.82 13.22 25.11 25.61 25.11 22.76 0 37.56-32.42 42.84-52.25-1.59 6.1-18.37 28.73-35.47 28.73-15.06 0-19.95-23.84-20.33-29.3v-5.78l6.92-.83 6.36 7.94 51.93-6.23 22.18-48.55-1.91-2.61c11.89 4 20.28 10.87 20.28 19.83 0 13.6-27.71 24.79-34.96 28.98 10.68-2.86 52.44-18.68 52.44-38.45 0-23.83-28.54-31.97-43.16-35.34-5.02-1.14-10.11-1.97-15.25-2.54l-9.6-12.84-7.25.89-6.04-8.07-20.27 2.35c6.23-9.98 13.98-16.34 21.1-16.34 13.86 0 17.22 18.63 21.74 29.62C138.37 29.43 127.44 0 109.19 0z"/></svg>