<svg xmlns="http://www.w3.org/2000/svg" viewBox="0 0 158.29 66.451"><path d="M23.18 12c-1.21 0-2.21.81-2.48 2.082l-1.07 5.82h9.56l-4.1 22.63h7.6c1.02 0 2.16-.47 2.5-2.208l3.47-20.422h6.88c1.21 0 2.21-.804 2.48-2.074L49.09 12M19.23 22.45c-2.48 0-4.49.67-5.82 2.273-.94 1.14-1.41 2.546-1.41 4.22 0 5.018 3.95 11.986 10.71 17.67 6.02 5.025 12.65 7.838 17.48 7.838 2.41 0 4.35-.734 5.62-2.204 1-1.14 1.4-2.618 1.4-4.29 0-4.35-3.17-10.268-8.41-15.435l-1.51 8.866c-.13.668-.81 1.815-1.75 2.505s-1.99.886-2.84.886H22.4l3.77-20.788c-2.48-.95-4.92-1.534-6.94-1.534zm127.06 8.166c0-.09 0-.202-.11-.337l-5.44-17.497c-.18-.526-.71-.783-1.29-.783-.55 0-1.09.257-1.26.783l-5.45 17.496c-.1.134-.1.246-.1.336 0 .558.46.995 1.09.995.42 0 .82-.19.98-.715l1.26-4.03h6.89l1.24 4.03c.16.526.59.716 1 .716.65 0 1.09-.436 1.09-.994zm-3.99-5.878h-5.56l2.76-8.932zm-11.79-7.007v-.245a5.3 5.3 0 0 0-5.3-5.317h-4.71c-.54 0-1.05.504-1.05 1.063v17.35c0 .706.53 1.03 1.05 1.03.54 0 1.07-.324 1.07-1.03v-7.543h2.85l3.79 7.992c.23.446.6.58.93.58.68 0 1.12-.436 1.12-1.03 0-.166-.1-.334-.11-.47l-3.46-7.24c2.26-.673 3.82-2.676 3.82-5.14zm-2.13 0c0 1.76-1.3 3.192-3.06 3.192h-3.75v-6.628h3.64c1.75 0 3.17 1.422 3.17 3.19zm-11.87-4.5c0-.525-.36-1.062-1.06-1.062h-8.28c-.69 0-1.06.537-1.06 1.063 0 .538.37 1.064 1.06 1.064h3.09V30.58c0 .706.52 1.03 1.05 1.03.54 0 1.07-.324 1.07-1.03V14.295h3.07c.7 0 1.06-.526 1.06-1.063zm-12.2 13.22c0-3.804-2.66-4.7-5.46-6.2-1.5-.817-3.24-1.434-3.24-3.47 0-.974.75-2.653 3.08-2.653h.24c1.71 0 2.89 1.007 3.03 2.373.1.67.58 1.008 1.11 1.008.54 0 1.01-.337 1.01-1.03 0-2.576-2.4-4.478-5.08-4.478h-.29c-2.93 0-5.25 2.07-5.25 4.78 0 3.58 2.72 4.242 5.39 5.754 1.71.95 3.34 1.6 3.34 3.883 0 2.015-.95 3.1-3.17 3.1h-.27c-1.82 0-3.45-1.03-3.45-3.01 0-.76-.52-1.064-1.04-1.064-.55 0-1.07.337-1.07 1.03 0 3.38 2.66 5.138 5.52 5.138h.26c3.37 0 5.34-1.946 5.34-5.16zm-13.37 3.964c0-.527-.36-1.064-1.05-1.064h-6.57V13.063c0-.693-.53-1.063-1.07-1.063-.52 0-1.05.37-1.05 1.063v17.35c0 .56.5 1.063 1.05 1.063h7.64c.69 0 1.05-.525 1.05-1.062zm-13.09 0c0-.527-.31-1.064-1.06-1.064H69.1v-6.783h5.34c.69 0 1.07-.538 1.07-1.064s-.38-1.063-1.07-1.063H69.1v-6.146h7.69c.75 0 1.06-.526 1.06-1.063 0-.525-.31-1.062-1.06-1.062h-8.76c-.54 0-1.05.504-1.05 1.063v17.184c0 .56.51 1.062 1.05 1.062h8.76c.75 0 1.06-.525 1.06-1.062zM64.04 13.23c0-.525-.36-1.062-1.06-1.062h-8.27c-.69 0-1.07.537-1.07 1.063 0 .538.38 1.064 1.07 1.064h3.08V30.58c0 .706.52 1.03 1.05 1.03.54 0 1.07-.324 1.07-1.03V14.295h3.07c.7 0 1.06-.526 1.06-1.063zm0 0"/></svg>