<svg xmlns="http://www.w3.org/2000/svg" viewBox="0 0 47.09 52.451"><path d="M12.23 15.45c-2.48 0-4.49.67-5.82 2.273C5.47 18.863 5 20.27 5 21.943c0 5.018 3.95 11.986 10.71 17.67 6.02 5.025 12.65 7.838 17.48 7.838 2.41 0 4.35-.734 5.62-2.204 1-1.14 1.4-2.618 1.4-4.29 0-4.35-3.17-10.268-8.41-15.435l-1.51 8.866c-.13.668-.81 1.815-1.75 2.505s-1.99.886-2.84.886H15.4l3.77-20.788c-2.48-.95-4.92-1.534-6.94-1.534zM16.18 5c-1.21 0-2.21.81-2.48 2.082l-1.07 5.82h9.56l-4.1 22.63h7.6c1.02 0 2.16-.47 2.5-2.208l3.47-20.422h6.88c1.21 0 2.21-.804 2.48-2.074L42.09 5"/></svg>