<svg xmlns="http://www.w3.org/2000/svg" viewBox="0 0 584.5 279.9"><path d="M533.1 74.31v-27.5h5.7l6.4 19.51c.7 1.79.7 3.13 1.3 4.03 0-.96.7-2.43 1.3-4.42l6.4-19.12h5.1v27.5h-3.2V51.29l-8.3 23.02h-3.2l-8.3-23.4v23.4h-3.2zm-16.6 0V50.07h-9.1v-3.26h21.8v3.26h-9.1v24.24h-3.6zM98.9 116.5v27.1H78.2V252H42.9V143.6H22v-27.1h76.9zm243.6 46.7l-11 35.4 14.2 53.4h-25.9l-8.4-38.6V252h-27V143.6h27v45.6l8.4-26h22.7zm-105.5 0l-.6 8.3c2-3.3 4.3-5.8 7.1-7.5 2.9-1.6 6.2-2.5 9.9-2.5 4.7 0 8.4 1.2 11.4 3.4 2.9 2.1 4.8 4.9 5.7 8.3.8 3.2 1.2 8.8 1.2 16.5V252h-27v-61.4c0-6.2 0-9.9-.6-11.3-.7-1.3-1.6-2-3.4-2-1.9 0-3.2.8-3.7 2.4-.6 1.5-.7 5.6-.7 12.3v60h-27v-88.8h27.4zm-38.3-5.8h-27.5v-14h27.5v14zm0 94.6h-27.5v-88.8h27.5V252zm-73.6-108.6v24.5c2.4-2.2 4.9-3.8 7.6-4.9 2.7-1.1 5.6-1.7 8.7-1.7 4.6 0 8.7 1.3 12 3.7 3.4 2.4 5.4 5.2 6.1 8.3.7 3.2 1.1 9 1.1 17.3v61.3h-27v-62.5c0-5.2 0-8.6-.7-10-.7-1.5-1.8-2.3-3.6-2.3-1.6 0-2.7.8-3.3 2.3-.6 1.5-.9 4.5-.9 9.1v63.4h-27V143.4h27zM424.4 22h-2c-10.1 0-23.9 5.69-30.8 15.99-7 10.42-12.3 13.68-13.4 19.18-1.1 5.63 3.7 11.38 3.7 11.38l1.8 7.93 3 12.35 3.5 4.54 1.6 17.53 7.3.8-11.7 9.6s-13 5.8-22.3 12.9c-9.2 7.1-11.2 5.6-11.3 13.2 0 7.6-1.6 66-1.6 66s4.7 35.6 7.3 44.5h203l-5.8-35.7s-6.3-37.6-7.6-41.4c-.7-3.9-9-31.1-10.3-35.3-1.2-4.6-3.8-12.5-7.6-16.7l-8.3-7.2s-6-2.2-10.6-4.6c-6.3-3.2-6.3-3.9-10.9-7.9-6.6-5.6-13.5-10.42-17.2-15.09-3.6-4.55-9.6-22.45-9.6-22.45l-6.9-13.62s-1.4-20.72-11.6-28.26c-9.6-7.1-21.8-7.74-31.7-7.68zm5.9 121.5h28.8v108.7h-28.8V143.5zm33.7 0h61.4v21.7H509V252h-28.1v-86.8H464v-21.7zm-59.3 16l10.1 35-12.9 20.4s-7.1-9.3-9.1-13.4c-2-4-3.4-19.9-5.6-23.1-2.2-3.4-2.6-14.6-2.6-14.6l8.2-4.1 5.3 1.8 6.6-2zm-84.5-92.22l-3.2 5.43c-7.7-4.48-14.9-7.93-21.9-10.36v27.89h-5.4V41.31h5.4v15.54c8.6 2.75 16.9 6.21 25.1 10.43M253 66l-4.3 1.6c-1.2-3.39-2.8-6.91-4.8-10.49l4.1-1.66c2.2 4.09 3.9 7.61 5 10.55m15.9-7.36c-1.6 5.82-3.4 10.43-5.1 13.88-2.4 4.73-5.5 8.57-9.1 11.57-3.4 2.69-8.1 5.25-14.2 7.81-.7-1.54-1.5-3.01-2.7-4.48 5-1.54 9.1-3.33 12.2-5.44 3.5-2.43 6.5-5.82 9-10.16 2.1-3.46 3.7-8.25 5-14.46l4.9 1.28zm-26.7 10.11l-4.2 2.17c-1.4-2.94-3.3-6.46-6-10.49l4-2.3c2.1 3.26 4.2 6.78 6.2 10.62m-22.4-23.22c-5.3 5.12-10 9.4-14 12.92v31.21h-5.4v-26.6c-1.6 1.27-2.9 2.17-3.8 2.81-5.5 3.77-11.1 6.97-16.7 9.59-.7-2.11-1.7-3.9-3-5.31 6.2-2.36 12.8-6.26 19.8-11.63 6.6-4.86 12.6-10.62 18.1-17.27l5 4.28zm-49.9 8.32c-3 7.67-6.3 13.87-9.8 18.54-4.7 6.27-11.3 11.13-19.4 14.45-2 .83-4.1 1.54-6.3 2.24-.7-1.53-1.7-3.26-3.1-5.31 4.5-.89 8.5-2.36 12-4.34 3.8-2.11 7.1-4.74 10.1-7.93 3-3.14 6.1-8.51 9.1-16.05h-16.2c-1.2 1.98-2.4 3.7-3.5 5.24-2.8 3.84-6.2 7.48-10.1 10.87-1.3-1.47-2.9-2.69-4.8-3.71 4.3-3.52 7.6-6.84 9.9-9.97 2.5-3.33 5.4-8.64 8.7-15.86l5.7 2.04c-.7 1.67-1.8 3.9-3.3 6.72h16.8l.7-.64 3.5 3.58zm-74.8 0l-4 4.73c-4.5-4.03-8.8-7.35-13-10.1l3.3-4.42c5 3.01 9.6 6.27 13.7 9.79m27.1 3.9c-6.9 7.93-13.2 14-18.7 18.16-5.7 4.41-13.2 8.82-22.7 13.17l-3-6.27c8.2-2.68 15.7-6.65 22.8-11.95 6.4-4.93 12.2-10.68 17.4-17.33 1.1 1.72 2.4 3.13 4.2 4.22m-77.7-8.38l-3.2 4.54c-3.8-2.62-7.4-4.73-10.9-6.39l2.4-4.67c5.1 2.49 9 4.67 11.7 6.52m25.4 11.06c-5.3 6.33-11 11.64-17 16.05-5.9 4.42-13.7 8.57-23.3 12.47l-2.8-5.88c8.5-2.75 16.1-6.39 22.7-11 6.5-4.6 12.1-9.91 16.7-15.86.9 1.86 2.1 3.2 3.7 4.22m-31.6 2.24l-2.8 4.93c-3.7-2.11-7.5-3.91-11.4-5.31l2.3-4.73c4.3 1.53 8.3 3.19 11.9 5.11"/></svg>