<svg xmlns="http://www.w3.org/2000/svg" viewBox="0 0 182.19 59.245"><path d="M137.47 4.4h37.89v9.9h-.7l-.3-6.1h-24.82V28h21.09l.6-4.6h.9c-.3 4.2-.3 8.3 0 12.5h-.9l-.6-4.8h-21.09v20.5h25.68l.1-6.8h.8v10.1h-38.73v-1.4h5.02V6.3h-5.02zm-53.62-.1h3.36L103.33 43l15.9-38.7h3.28l8.97 48.8h4.54v1.5h-17.88v-1.5h4.66l-5.64-31.2-14.19 32.7H99.7L85.58 21.9l-5.9 31.2h4.34l-.1 1.5H70.83v-1.5h4.02zm-32.38.1h17.22v1.4h-4.93v47.3h4.93v1.5H51.47v-1.5h4.95V5.8h-4.99zm-45.92 0h43.79v10h-.7V8H31.39v45.1h5.03v1.5H19.24v-1.5h4.62V8H6.34v6.4h-.8z"/></svg>