<svg xmlns="http://www.w3.org/2000/svg" viewBox="0 0 486 276"><path class="st0" d="M74.2 88.3h114.3v32.4H151v95.5h-39.2v-95.5H74.2V88.3zM195.3 88.3h40.9v127.9h-40.9V88.3zM318.7 168.5h29.8v10.2h-31.2v8.5h31.2v10.2h-31.2v8.5h31.2v10.2H299v-47.7H318.7zM386.3 168.5h16.8v10.2h-14.7v37.5h-19.6v-37.5h-14.7v-10.2h32.2zM277.7 168.5h15.8v47.7h-17.1l-19.1-26.8v26.8h-14.2v-47.7h15.3l19.3 21.9v-21.9zM348.4 96.6v26H299V88.3h39s10.4-.7 10.4 8.3zM243.1 152v-23.9h50.4v34.3h-38.7s-10.1-1.4-11.7-10.4zM254.8 88.3h38.7v34.3h-50.4V98.7c1.6-9 11.7-10.4 11.7-10.4zM403.4 136.3v26h-49.3V128H393c.1.1 10.4-.7 10.4 8.3zM299 162.4h49.5v-34.3H299v34.3z"/></svg>