<svg xmlns="http://www.w3.org/2000/svg" viewBox="0 0 600 200"><path d="M13.798 116.254l-1.13-6.407v-8.868c.264-1.058.507-2.12.795-3.17.603-2.203 1.685-4.202 2.7-6.23.846-1.24 1.664-2.498 2.54-3.716 2.027-2.817 4.422-5.316 6.83-7.804 1.203-1.06 2.407-2.117 3.61-3.176.173.366-.047.554-.322.718-.18.108-.464.256-.325.46.77 1.126.38 2.39.435 3.584.08 1.71.025 3.425.018 5.138-.002.592.118 1.03.863.838l-.744.774c-2.828 2.525-5.338 5.337-7.587 8.387-2.447 3.094-4.577 6.374-5.965 10.093-.875 1.993-1.39 4.074-1.613 6.24-.106 1.05.13 2.1-.104 3.138zM45.115 88.157c1.38-.535 2.48-1.527 3.696-2.32 4.26-2.775 8.705-5.22 13.295-7.383 3.035-1.43 6.21-2.55 9.383-3.652.85-.295 1.546.133 2.252.394 2.807 1.038 5.588 2.145 8.38 3.22.494.19.686.427.3.92-2.023 2.59-3.79 5.368-5.91 7.886-.236.28-.527.397-.83.502-5.038 1.765-9.772 4.175-14.446 6.727-3.046 1.664-5.947 3.563-8.767 5.555-3 2.12-5.858 4.47-8.607 6.91-2.38 2.11-4.6 4.414-6.677 6.838-.196.228-.408.443-.612.664-.813 1.017-1.673 2.003-2.434 3.06-1.78 2.47-3.596 4.925-4.766 7.773-.834 1.598-1.52 3.25-1.838 5.036-.375.725-.474 1.51-.592 2.31-.406 2.772-.023 5.386 1.362 7.834.132.234.35.424.27.73-.99-.487-1.68-1.345-2.42-2.102-2.34-2.392-4.332-5.07-6.157-7.872-1.45-2.228-1.994-4.672-1.872-7.296.01-.21.002-.42.002-.63.33-1.787.638-3.577 1.253-5.297.882-2.466 2.088-4.773 3.385-7.037 3.38-5.566 7.855-10.2 12.51-14.682 1.28-1.127 2.53-2.296 3.853-3.37 1.903-1.543 3.86-3.016 5.795-4.52l-.006-.004.2-.193zM55.948 153.823c-.323.426-.67.016-.967-.026-3.878-.538-7.637-1.543-11.315-2.896-2.755-1.012-5.012-2.565-6.398-5.222-.78-2.05-1.053-4.15-.72-6.338.227-1.485.677-2.905 1.086-4.34.834-1.926 1.75-3.807 2.84-5.605 1.566-2.58 3.467-4.904 5.37-7.23 1.96-2.135 4.037-4.152 6.133-6.15 2.87-2.415 5.772-4.786 8.886-6.885 2.14-1.443 4.276-2.896 6.575-4.083-.458.942-1.484 1.213-2.232 1.798-.49.385-.415.74-.395 1.148.027.574.512.376.834.397.57.037 1.272-.17 1.684.094.938.6 1.91.41 2.883.453 1.86.083 3.797-.372 5.555.247 1.3.456 2.58.272 3.83.547.876.194 1.813-.177 2.637.372.216.144.233-.157.308-.31.578-1.153 1.466-2.132 1.863-3.392.084-.265.338-.166.49.038-.576 1.494-1.682 2.682-2.38 4.1-1.103 2.236-2.784 3.653-5.077 4.75-7.138 3.415-13.45 8.056-18.984 13.726-1.725 1.767-3.275 3.68-4.732 5.677-.664.91-1.306 1.82-1.784 2.842-1.257 2.225-2.176 4.575-2.487 7.122-.527 4.304 1.56 7.488 5.71 8.8.275.09.596.096.788.37z"/><path d="M65.31 138.076c2.65-3.19 5.655-5.996 9.05-8.383.11.04.17-.008.19-.116l.022-.015c1.35.427 1.434.544 1.434 1.964 0 3.092-.002 6.183.003 9.275 0 .426.013.854-.26 1.207-.483.625-.092.81.446.938-.47.882-.864 1.792-.75 2.82.092.827.372 1.565 1.19 1.962.058.282.343.34.507.514-.612.176-.86.467-.644 1.177.145.484.48 1.093.126 1.56-.388.515-.012.603.264.806-2.06.655-4.16 1.12-6.313 1.336-.93-.013-1.865.03-2.79-.047-3.59-.3-6.588-2.013-6.454-6.31.136-1.31.54-2.552.974-3.785.81-1.75 1.882-3.34 3.002-4.902z"/><path d="M61.334 146.766c-.134 4.296 2.863 6.008 6.455 6.31.923.076 1.86.033 2.788.045-.245.258-.57.177-.854.163-1.967-.1-3.862.362-5.788.632-2.3.322-4.64.454-6.97.253-.346-.03-.678-.226-1.016-.346-.193-.274-.513-.28-.79-.366-4.15-1.31-6.235-4.495-5.71-8.8.31-2.546 1.23-4.897 2.487-7.12.42.724 1.206.46 1.765.495 2.607.16 5.225.25 7.835.192 1.254-.027 2.514-.13 3.774-.146-1.12 1.562-2.193 3.152-3 4.904-.86-.164-1.562.354-2.333.557-1.727.455-3.435.98-5.26 1.507 1.86.854 5.26 1.724 6.617 1.722zM51.977 116.018c-2.096 1.998-4.174 4.015-6.132 6.15-.268 0-.528-.004-.796.09-5.077 1.782-10.31 2.756-15.68 2.994 1.17-2.848 2.985-5.302 4.765-7.774.76-1.056 1.62-2.042 2.435-3.06.23.527.76.427 1.157.475 3.54.428 7.077.86 10.65.975 1.197.038 2.402.06 3.6.15zM29.813 87.622c-.745.192-.866-.245-.863-.838.007-1.713.062-3.43-.018-5.138-.056-1.196.336-2.458-.435-3.585-.14-.202.145-.35.326-.458.275-.164.495-.352.323-.718 1.207-1.31 2.688-2.297 4.072-3.397.87-.69 1.815-1.286 2.7-1.958.532-.405 1.052-.58 1.74-.422a80.68 80.68 0 0 0 4.596.896c.643.107.71.442.582.953-.426 1.69-.862 3.376-1.28 5.068-.114.466-.49.685-.828.91-2.908 1.932-5.587 4.156-8.26 6.39-.896.755-1.77 1.532-2.655 2.297zM76.196 142.945c-.538-.127-.93-.313-.446-.938.273-.354.26-.78.26-1.206-.006-3.09-.004-6.182-.004-9.274 0-1.42-.086-1.538-1.434-1.964 1.6-1.384 3.46-2.356 5.3-3.358.165-.09.418-.08.614-.04 2.683.543 5.364 1.1 8.16 1.677-.908 1.903-1.883 3.702-2.636 5.59-.62 1.55-1.663 2.462-3.1 3.247-2.748 1.5-4.99 3.63-6.714 6.268zM84.893 106.44c-.152-.203-.407-.302-.49-.037-.398 1.26-1.287 2.24-1.864 3.393-.077.152-.093.453-.31.31-.823-.55-1.76-.18-2.637-.372-1.248-.274-2.53-.09-3.83-.547-1.757-.618-3.695-.164-5.553-.247-.972-.044-1.945.148-2.883-.453-.412-.263-1.115-.057-1.684-.094-.322-.02-.807.176-.834-.397-.02-.408-.097-.764.394-1.148.748-.585 1.774-.857 2.232-1.798l.01.01c.76.61.95.558 1.332-.41.054-.135.34-.204.148-.424.145-.19.348-.273.57-.327.65.38.85-.12 1.085-.554 1.267-.817 2.67-1.362 4.014-2.028.282-.14.526-.05.783.017 3.25.863 6.5 1.73 9.75 2.6.05.013.09.073.135.112-.18.15-.184.33.055.345.436.026.452.355.56.634l-.008.03c-.756.11-.81.662-.797 1.258-.06.04-.12.083-.18.127zm-15.62.557c-.045-.184-.186-.222-.338-.182-.144.038-.283.128-.26.305.028.2.205.186.346.172.164-.017.274-.105.252-.295zM44.92 88.356c-1.933 1.503-3.892 2.977-5.794 4.52-1.325 1.074-2.572 2.242-3.854 3.37-.16-.2-.372-.163-.58-.113-1.95.464-3.9.894-5.904 1.092-2.47.243-4.903.214-7.308-.44 2.25-3.05 4.76-5.862 7.587-8.388 1.182.888 2.607 1.017 3.988 1.16 3.733.39 7.382-.178 10.975-1.176.3-.082.592-.08.89-.024zM37.634 135.002c-.41 1.435-.86 2.855-1.086 4.34-.334 2.186-.06 4.286.72 6.338-1.27.04-2.372-.58-3.518-.975-1.416-.488-2.714-1.268-3.926-2.147-.494-.358-.838-.923-1.25-1.394.08-.308-.138-.498-.27-.73-1.384-2.45-1.768-5.062-1.362-7.835.118-.803.216-1.586.592-2.31 3.16 2.013 6.456 3.732 10.1 4.712zM22.764 110.928c-1.297 2.264-2.503 4.572-3.385 7.037-.616 1.72-.925 3.51-1.254 5.296.01-.666-.592-.887-.974-1.206-1.837-1.532-2.88-3.494-3.353-5.8.232-1.038-.004-2.09.105-3.136.224-2.166.737-4.248 1.613-6.24.06.316.097.584.45.8 1.372.842 2.812 1.557 4.273 2.22.823.372 1.59.92 2.524 1.03zM25.533 80.06c-2.407 2.49-4.803 4.988-6.83 7.805-.876 1.217-1.694 2.476-2.538 3.717-.53-.99-.3-2.074-.18-3.068.133-1.14.388-2.306.902-3.37.113-.233.315-.424.476-.635l.008-.186-.004.005c.23-.04.215-.197.182-.366.247-.028.22-.19.18-.36v-.006c.26-.02.23-.182.178-.356l.005-.01c.546-.047.5-.58.728-.888 1.476-2.387 3.25-4.543 5.194-6.554 2.51-2.594 5.198-4.986 8.154-7.067-.2.903-1.005 1.36-1.516 2.03-2.03 2.672-3.958 5.39-4.86 8.69-.052.198-.052.41-.077.618z"/><path d="M31.987 68.723c-2.956 2.08-5.645 4.472-8.154 7.067-1.945 2.012-3.718 4.168-5.194 6.554l-.21-.21c5.016-9.268 12.293-16.183 21.717-20.86 1-.498 1.85-.643 3.298-.63-.375.902-.922 1.555-1.808 1.982-3.29 1.586-6.41 3.454-9.24 5.778-.198.023-.322.143-.4.317l-.01.003zM77.144 148.242c-.164-.176-.45-.232-.506-.514a44.024 44.024 0 0 0 9.458-1.677c1.832-.538 3.503-1.436 5.174-2.332.182-.097.38-.32.547-.1.173.225-.096.38-.25.494-2.745 2.034-5.627 3.845-8.684 5.374-.106-.187-.29-.197-.468-.185-1.853.126-3.59-.32-5.27-1.058z"/><path d="M77.144 148.242c1.68.737 3.418 1.185 5.272 1.06.18-.013.362-.003.468.184-1.7.728-3.363 1.547-5.134 2.096-.28.087-.572.136-.86.202-.275-.203-.65-.292-.263-.805.354-.47.02-1.08-.127-1.562-.215-.71.03-1.002.644-1.176zM68.926 104.225c.19.22-.094.29-.148.425-.38.967-.572 1.02-1.33.41a4.86 4.86 0 0 1 1.478-.835zM85.876 105.023c-.106-.28-.123-.61-.56-.634-.24-.015-.234-.196-.055-.346 1.166.223 1.166.223.616.98zM18.43 82.134l.21.21c-.23.308-.183.84-.728.89.037-.43.215-.794.517-1.1zM85.073 106.31c-.014-.595.04-1.147.796-1.258-.267.42-.53.84-.797 1.26zM70.582 103.344c-.235.434-.434.935-1.085.553.323-.26.686-.44 1.085-.553zM31.993 68.722c.08-.174.203-.293.4-.317-.013.258-.138.374-.4.317zM17.727 83.602c.04.17.067.333-.18.36-.03-.164-.01-.304.18-.36zM17.548 83.964c.033.168.048.327-.182.365-.016-.162.01-.3.182-.366zM17.907 83.243c.05.173.08.337-.177.356-.03-.163-.022-.308.177-.357zM45.115 88.157l-.2.195.2-.195z"/><path d="M17.37 84.323l-.007.185c-.13-.068-.114-.13.008-.185zM74.548 129.577c-.02.11-.078.157-.19.116l.19-.116zM69.27 106.997c.024.19-.086.277-.25.293-.14.014-.316.03-.344-.172-.024-.176.115-.267.26-.305.15-.038.292 0 .335.184zM480.505 81.264c-.127-2.98-.25-5.958-.387-8.936-.02-.42.166-.495.533-.494 3.47.01 6.936.016 10.404-.006.547-.004.633.238.664.7.106 1.532.255 3.062.388 4.592.015.175-.02.37.28.522.748-1.054 1.583-2.068 2.54-2.977 5.036-4.783 13.864-5.288 19.143-1.08 1.534 1.225 2.612 2.8 3.463 4.67.92-1.143 1.804-2.196 2.8-3.152 4.887-4.69 13.147-5.8 18.683-2.463 3.515 2.12 5.375 5.422 6.415 9.26.642 2.367.907 4.793.91 7.243.008 8.383-.006 16.766.022 25.148.002.76-.133 1.028-.974 1.016a448.606 448.606 0 0 0-11.307-.005c-.744.01-.944-.17-.942-.928.02-7.87.015-15.74-.02-23.61-.007-1.783-.29-3.54-.934-5.22-1.89-4.92-7.578-4.588-10.077-1.843-.72.79-1.234 1.7-1.698 2.647-.512.472-.647 1.066-.647 1.743.01 8.58.002 17.157.013 25.736 0 .523-.063.997-.37 1.424-4.01.01-8.017.005-12.025.044-.764.008-.617-.455-.617-.887 0-5.396.005-10.79 0-16.188 0-2.774.007-5.548-.038-8.32-.03-1.728-.36-3.405-1.115-4.982-1.886-3.938-6.715-3.922-9.18-1.643-1.743 1.61-2.71 3.597-2.716 5.99-.023 8.35-.04 16.7-.017 25.05.002.8-.193.998-.99.987-4.01-.057-8.017-.044-12.025-.057-.002-10.982-.004-21.965-.014-32.947-.003-.347.134-.73-.163-1.034zM199.616 81.263c-.177-1.133-.106-2.277-.154-3.414-.074-1.778-.13-3.554-.217-5.33-.023-.468.043-.698.61-.693a830.1 830.1 0 0 0 10.587.004c.47 0 .612.153.652.6.136 1.53.31 3.057.472 4.585.027.26.062.517.11.924.613-.69 1.11-1.272 1.633-1.83 3.254-3.48 7.37-4.96 12.034-5.178 8.205-.385 14.807 4.9 17.436 12.6 2.406 7.048 2.207 14.124-.71 21-3.222 7.592-10.373 12.04-18.604 11.63-3.916-.197-7.43-1.474-9.99-4.678-.048-.06-.13-.09-.213-.146-.177.31-.094.612-.094.897-.008 6.575-.006 13.15-.018 19.723 0 .27.177.6-.148.82-.297-.225-.642-.122-.964-.123-3.71-.008-7.42-.04-11.128.02-.95.014-1.132-.278-1.13-1.17.025-16.405.017-32.812.008-49.217 0-.343.145-.73-.174-1.025zm13.575 12.544c0 1.266-.04 2.534.01 3.798.105 2.605 1.128 4.795 3.182 6.425 4.197 3.332 10.435 1.722 12.756-3.307 1.722-3.732 1.808-7.63.93-11.578-.523-2.352-1.553-4.445-3.51-5.94-4.633-3.54-11.254-1.22-12.965 4.496-.602 2.013-.366 4.067-.402 6.107zM292.617 54.452c4.86.016 9.59.72 14.143 2.503.715.28.88.552.663 1.3-.88 3.027-1.71 6.07-2.51 9.12-.204.773-.4.984-1.23.604-3.954-1.81-8.133-2.608-12.47-2.426-2.223.093-4.378.56-6.095 2.136-2.31 2.122-2.27 5.365.09 7.453 1.325 1.173 2.91 1.916 4.508 2.63 3.13 1.398 6.443 2.36 9.5 3.938 2.972 1.535 5.7 3.38 7.75 6.093 2.652 3.515 3.453 7.532 2.944 11.795-.998 8.348-6.222 13.003-13.89 15.28-5.707 1.695-11.532 1.67-17.366.68-3.123-.528-6.16-1.36-9.047-2.697-.55-.253-.743-.488-.567-1.156.852-3.227 1.64-6.47 2.418-9.718.13-.55.268-.67.81-.407 4.39 2.135 9.025 3.322 13.91 3.438 2.457.058 4.884-.157 7.078-1.44 3.53-2.064 4-6.59.956-9.323-1.712-1.537-3.788-2.44-5.912-3.216-3.964-1.45-7.912-2.92-11.377-5.413-3.35-2.41-5.926-5.39-6.898-9.51-1.567-6.636.997-13.274 6.66-17.298 3.53-2.508 7.534-3.695 11.784-4.18 1.375-.157 2.76-.195 4.147-.188zM312.517 71.84c4.947 0 9.77.002 14.59-.007.404 0 .56.15.674.54 2.764 9.4 5.88 18.696 8.28 28.202.067.26.074.537.32.756.365-.172.3-.562.36-.84 2.04-9.376 4.614-18.617 6.915-27.927.11-.444.204-.74.79-.737 4.492.026 8.984.014 13.476.015.09 0 .177.032.368.067-.646 1.826-1.28 3.632-1.924 5.434-3.506 9.792-6.794 19.662-10.524 29.37-2.376 6.187-4.92 12.308-8.832 17.73-3.784 5.247-8.722 8.837-15.108 10.277-2.03.458-2.038.455-2.564-1.56-.76-2.908-1.49-5.826-2.274-8.728-.168-.623-.07-.85.583-1.03 3.022-.836 5.807-2.15 8.123-4.327.95-.893 1.734-1.915 2.475-2.985.928-1.34.98-2.705.38-4.188-2.81-6.94-5.596-13.89-8.388-20.84l-7.718-19.22zM191.152 92.547c.013 5.686-1.09 10.492-4.12 14.71-3.364 4.69-8.035 7.355-13.635 8.422-5.883 1.12-11.59.573-16.92-2.304-5.92-3.194-9.256-8.296-10.407-14.832-.823-4.673-.545-9.322 1.09-13.805 2.353-6.452 6.85-10.754 13.424-12.743 6.476-1.96 12.92-1.893 19.093 1.12 6.277 3.062 9.745 8.293 11.066 15.05.32 1.632.455 3.282.41 4.38zm-13.978.916c-.018-2.148-.25-4.27-.915-6.32-.75-2.307-1.848-4.406-4.028-5.694-3.564-2.107-8.25-.876-10.313 2.887-2.932 5.346-2.89 10.943-.877 16.583.686 1.922 1.885 3.518 3.684 4.538 3.41 1.934 8.225 1.305 10.653-3.505 1.35-2.676 1.728-5.547 1.794-8.49zM457.826 97.906c-4.402 0-8.805.01-13.206-.014-.624-.004-.826.097-.706.78.503 2.88 2.284 4.692 4.797 5.923 2.94 1.44 6.086 1.567 9.27 1.47 3.237-.098 6.408-.593 9.487-1.613.525-.174.78-.11.89.492a321.65 321.65 0 0 0 1.5 7.795c.12.58-.04.782-.553.98-3.082 1.19-6.28 1.864-9.554 2.192-4.487.45-8.956.472-13.38-.622-8.353-2.066-13.88-8.157-15.137-16.704-.905-6.155-.11-12.027 3.06-17.44 3.498-5.966 8.774-9.267 15.634-10.052 3.86-.44 7.65-.173 11.258 1.36 5.048 2.142 8.12 6.08 9.816 11.173 1.465 4.396 1.655 8.906 1.063 13.478-.085.66-.296.82-.938.816-4.434-.028-8.866-.014-13.3-.014zM443.95 88.69c.185.222.44.16.674.16 4.79.003 9.583.004 14.375.002.232 0 .49.064.663-.174.327-.554.06-1.124.002-1.67-.566-5.32-5.297-8.41-10.197-6.616-3.26 1.192-4.796 3.828-5.517 7.04-.087.394-.44.843 0 1.26zM148.747 55.553c.015 3.555.015 7.112.057 10.666.01.734-.46.55-.84.55-4.852.008-9.705.027-14.558-.014-.8-.007-.983.192-.98.983.026 15.493.012 30.986.043 46.48 0 .883-.222 1.092-1.09 1.08-4.097-.06-8.196-.044-12.295-.055-.002-15.786-.002-31.57-.014-47.357 0-.367.175-.79-.19-1.102-5.087-.004-10.173-.023-15.26.008-.742.005-.96-.17-.948-.934.047-3.34.023-6.68.026-10.02 0-.144-.05-.304.106-.41.33.22.704.12 1.055.12 14.963.005 29.925.003 44.887.003zM388.874 82.692c-2.675-1.36-5.395-2.185-8.275-2.445-1.486-.133-2.96-.09-4.343.54-2.414 1.1-2.702 3.79-.564 5.353 1.577 1.152 3.43 1.73 5.244 2.372 2.706.96 5.313 2.086 7.607 3.87 6.477 5.033 5.975 16.082-1.315 20.628-3.155 1.967-6.625 2.824-10.27 3.077-5.488.382-10.81-.29-15.89-2.54-.784-.346-.885-.7-.67-1.48.694-2.52 1.317-5.06 1.916-7.607.178-.757.317-.992 1.158-.577 3.606 1.783 7.412 2.816 11.474 2.735 1.002-.02 1.976-.163 2.917-.513 1.2-.446 1.98-1.26 2.14-2.554.165-1.326-.27-2.44-1.372-3.237-1.486-1.073-3.213-1.63-4.923-2.21-2.783-.94-5.42-2.15-7.774-3.934-6.946-5.264-5.374-14.178-.7-18.605 2.87-2.72 6.36-4.094 10.2-4.59 4.99-.642 9.862-.047 14.547 1.806 1.424.564 1.283.27.913 1.776-.658 2.687-1.333 5.37-2.022 8.136zM583.06 82.69c-2.15-1.097-4.335-1.843-6.636-2.233-1.826-.31-3.653-.454-5.457.115-1.92.606-2.9 2.267-2.362 3.95.274.856.898 1.41 1.627 1.865 1.676 1.042 3.542 1.645 5.383 2.305 3.053 1.096 5.978 2.416 8.295 4.79 2.72 2.79 3.633 6.2 3.26 9.964-.604 6.115-4.292 9.772-9.915 11.463-7.482 2.248-14.873 1.653-22.07-1.406-.636-.27-.834-.562-.647-1.264.698-2.615 1.34-5.246 1.982-7.876.157-.642.262-.912 1.058-.517 3.573 1.777 7.347 2.82 11.377 2.778 1.004-.01 1.99-.127 2.935-.45 1.258-.427 2.142-1.24 2.307-2.624.164-1.368-.314-2.484-1.457-3.29-1.474-1.037-3.17-1.582-4.85-2.154-2.868-.978-5.577-2.234-7.984-4.12-6.345-4.97-5.196-13.08-1.33-17.507 2.91-3.335 6.728-4.924 10.99-5.487 5.143-.68 10.15-.028 14.977 1.923.658.266.848.543.657 1.263-.748 2.807-1.424 5.635-2.14 8.51zM403.558 63.614c3.99-1.113 7.986-2.218 11.972-3.35.58-.164.762-.095.756.563-.03 3.405.008 6.812-.022 10.217-.006.633.155.818.794.81 2.743-.034 5.485-.006 8.228-.02.483-.004.762.017.753.65-.047 2.923-.036 5.847-.045 8.77-.43.3-.9.378-1.424.373-2.47-.023-4.938-.017-7.408-.004-.3.002-.682-.17-.875.25.065 5.935-.177 11.873.14 17.808.035.666.157 1.314.34 1.952.654 2.262 2.03 3.367 4.364 3.488 1.33.07 2.654-.007 3.96-.257.433-.083.576-.04.58.44.015 3.012.058 6.025.093 9.037.005.403 0 .764-.528.886-4.69 1.08-9.388 1.605-14.06-.018-4.423-1.536-6.718-4.862-7.585-9.314-.19-.97-.425-1.94-.37-2.945-.003-.21-.008-.423-.008-.634.002-6.57-.01-13.143.027-19.714.004-.808-.228-1.042-1.02-1.004-1.324.064-2.654-.01-3.98.03-.632.02-.833-.19-.825-.823.03-2.5.023-5.004.004-7.505-.005-.522.056-1 .366-1.427l5.234-.04c.333-.25.19-.61.19-.92.014-2.047.022-4.093-.002-6.14-.01-.445.1-.813.35-1.16zM579.487 155.634c-.275-.36-.68-.213-.998-.176-.722.084-1.07-.254-1.405-.84-1.752-3.055-3.542-6.088-5.332-9.122-.127-.215-.17-.526-.444-.598 0 3.182-.025 6.363.016 9.542.01.772-.157 1.06-.99 1.02-1.49-.072-1.492-.018-1.492-1.49 0-4.16.014-8.32-.01-12.48-.004-.653.165-.823.845-.895 1.342-.14 2.116.318 2.765 1.53 1.465 2.73 3.098 5.37 4.662 8.046.084.146.172.29.388.654v-8.7c0-1.448.596-1.884 2.004-1.493.497.14.323.523.325.813.013 3.074.006 6.15.008 9.225.002 1.656.01 3.31.015 4.967h-.36zM457.147 155.634c-.724-.283-1.524-.22-2.252-.52-.442-.18-.675-.38-.672-.906.02-4.128.01-8.256.01-12.384 0-.306-.014-.61.364-.734 2.503-.827 5.037-1.138 7.426.21 2.424 1.365 2.375 4.505.01 5.985-.17.108-.398.14-.524.43.39.232.824.415 1.198.702 1.42 1.09 1.823 2.548 1.407 4.184-.433 1.706-1.774 2.494-3.408 2.85-.225.048-.492-.06-.663.185h-2.897zm-.344-4.667v1.35c0 1.47-.004 1.545 1.445 1.618 2.286.114 3.578-1 3.177-3.288-.256-1.462-1.444-2.203-3.343-2.245-1.277-.028-1.277-.028-1.28 1.214v1.35zm1.475-3.985c.822-.025 1.873-.013 2.482-1.066.593-1.023.453-2.414-.292-3.187-.642-.667-2.554-.912-3.406-.47-.334.172-.253.442-.256.692-.01.93-.003 1.86-.003 2.79.002 1.256.002 1.256 1.475 1.24zM434.52 155.49c-.12-.01-.24-.016-.36-.032-1.788-.25-1.947-.428-1.948-2.192-.002-3.702.015-7.406-.016-11.108-.006-.69.225-1.018.883-1.228 1.702-.542 3.418-.664 5.15-.255 1.906.45 3.207 1.65 3.833 3.482.96 2.803.926 5.62-.28 8.35-.725 1.643-2.02 2.66-3.82 2.977-.368.01-.758-.136-1.087.152h-1.448c-.264-.282-.595-.153-.908-.145zm.407-7.52h-.005c0 1.565-.003 3.13.002 4.697.002.458-.01.892.642.986 2.23.323 3.577-.625 4.035-2.85.337-1.636.383-3.274.156-4.927-.336-2.445-1.788-3.79-3.888-3.61-.636.055-.976.28-.955 1.005.044 1.566.014 3.133.014 4.7zM366.478 155.634c-2.97-.592-4.14-2.694-4.558-5.43-.284-1.868-.25-3.725.24-5.553.692-2.567 2.5-4.133 4.803-4.202 2.694-.08 4.49 1.116 5.352 3.81.808 2.522.77 5.107-.018 7.643-.64 2.062-2.028 3.35-4.19 3.735h-1.63zm3.604-7.327c.004-1.62-.118-2.872-.514-4.083-.418-1.275-1.253-1.98-2.292-1.96-1 .017-1.82.718-2.215 1.936-.658 2.025-.473 4.102-.307 6.17.048.59.218 1.175.477 1.728.418.89 1.095 1.486 2.077 1.485 1.025 0 1.707-.626 2.108-1.566.553-1.302.637-2.676.667-3.71zM489.723 155.634c-.6-.157-1.222-.264-1.8-.48-1.11-.42-.316-1.12-.205-1.715.136-.73.55-.422.926-.247.62.287 1.28.324 1.945.296 1.075-.045 1.775-.59 2.042-1.584.273-1.01-.094-1.91-1.01-2.47-.82-.502-1.764-.773-2.54-1.367-1.502-1.15-2.023-2.677-1.51-4.552a4.188 4.188 0 0 1 3.64-3.058c1.09-.1 2.158.045 3.195.428 1 .37.398.995.287 1.555-.154.77-.575.348-.918.208-.513-.208-1.044-.27-1.59-.262-1.018.014-1.615.423-1.922 1.323-.3.878-.053 1.78.673 2.344.502.388 1.084.64 1.662.9 1.43.64 2.564 1.567 2.934 3.192.56 2.454-.807 4.69-3.25 5.31-.143.036-.302.02-.388.176-.725.002-1.45.002-2.173.002zM470.54 155.634c.004-2.017.005-4.035.016-6.052.004-.83-.484-1.48-.803-2.18-.898-1.972-1.847-3.922-2.796-5.872-.335-.688-.205-.848.597-.936 1.478-.16 2.302.27 2.732 1.775.408 1.43 1.115 2.772 1.774 4.35.794-1.828 1.504-3.474 2.225-5.115.152-.345.157-.88.607-.93.713-.08 1.46-.118 2.154.023.41.084.038.52-.067.743a329.878 329.878 0 0 1-3.103 6.425c-.333.667-.507 1.327-.492 2.074.032 1.536-.015 3.074.022 4.61.016.66-.185.91-.872.907-.54-.004-1.13-.233-1.633.176h-.363zM384.095 145.35c-.573 2.333-1.127 4.57-1.673 6.813-.206.847-.415 1.694-.582 2.55-.113.58-.407.75-.993.742-1.643-.023-1.65.008-2.016-1.592-.95-4.16-1.886-8.323-2.855-12.48-.13-.56-.048-.78.563-.76 2.495.092 1.92-.494 2.42 2.01.586 2.944 1.122 5.898 1.7 8.96.792-3.434 1.6-6.745 2.295-10.08.197-.94.734-.84 1.403-.904.77-.076.962.31 1.1.928.726 3.252 1.474 6.5 2.26 9.95.67-3.41 1.327-6.61 1.91-9.825.146-.8.427-1.094 1.266-1.053 1.522.074 1.515.02 1.164 1.553-.937 4.1-1.918 8.194-2.765 12.313-.27 1.323-1.143.866-1.886.97-.784.108-.91-.34-1.06-.98-.705-3.01-1.475-6.005-2.25-9.115zM554.528 150.725c0-3.164.033-6.15-.02-9.13-.016-.83.247-1.092 1.02-.97.175.027.363.026.54 0 .638-.09.814.176.81.806-.025 4.403-.025 8.803 0 13.205.004.63-.18.784-.808.83-1.026.073-1.623-.247-2.144-1.184-1.65-2.972-3.42-5.88-5.147-8.813-.088-.147-.123-.344-.46-.41v1.583c0 2.623-.03 5.246.018 7.868.014.766-.222 1.042-.965.938-.266-.038-.542-.02-.813-.003-.43.025-.58-.172-.578-.592.008-4.55.005-9.103.007-13.655 0-.177-.017-.366.15-.494.537-.41 2.492.062 2.867.705 1.747 2.99 3.49 5.983 5.235 8.973.044.07.107.13.286.347zM410.076 149.274c0 1.777-.032 3.555.016 5.33.02.7-.22.86-.88.85-1.85-.03-1.85-.002-1.85-1.857 0-3.828.016-7.656-.016-11.484-.006-.694.21-1.018.877-1.215 1.773-.525 3.556-.626 5.347-.215 2.096.48 3.23 1.992 3.24 4.195.012 2.08-.993 3.347-3.176 3.868-.82.196-.407.566-.2.882 1.112 1.684 2.246 3.353 3.367 5.03.13.193.373.388.268.632-.12.277-.428.105-.65.146-1.576.296-2.61-.248-3.354-1.747-.78-1.572-1.844-3.003-2.784-4.494l-.204.078zm4.014-4.18c.02-2.24-1.185-3.364-3.233-3.01-.47.082-.818.22-.796.853a56.94 56.94 0 0 1 0 4.334c-.034.794.408.922.992.91 2.054-.034 3.02-1.028 3.038-3.085zM540.935 155.437c-.89.235-1.375-.175-1.55-1.234-.14-.845-.284-1.918-.846-2.402-.58-.497-1.677-.133-2.546-.142-2.053-.02-2.053-.006-2.677 1.986-.018.057-.042.113-.06.17-.507 1.66-.507 1.626-2.24 1.64-.708.004-.713-.243-.527-.79.892-2.62 1.762-5.25 2.64-7.877.6-1.8 1.22-3.592 1.783-5.402.17-.544.388-.777.992-.772 1.806.014 1.813-.017 2.406 1.765 1.322 3.968 2.636 7.938 3.952 11.908.38 1.147.38 1.148-.82 1.15h-.507zm-6.54-5.418c1.194 0 2.276 0 3.356-.002.264 0 .48-.008.364-.398-.593-1.996-1.168-3.997-1.774-6.085l-1.945 6.484zM351.623 152.588v.995c0 1.934-.346 2.2-2.29 1.86-.576-.1-.42-.5-.422-.823-.01-2.832-.005-5.665-.005-8.498 0-1.386.02-2.773-.01-4.158-.013-.53.142-.826.67-.992 2.033-.64 4.074-.788 6.114-.1 1.883.635 2.835 2.407 2.655 4.816-.14 1.86-1.538 3.38-3.45 3.8-.835.182-1.674.217-2.513.163-.61-.038-.79.188-.758.77.04.72.01 1.445.01 2.168zm0-7.505c0 .783.006 1.565 0 2.348-.005.346.08.538.484.6 2.058.313 3.482-.79 3.633-2.86.152-2.07-1.36-3.433-3.42-3.088-.49.082-.736.293-.706.833.038.72.01 1.445.01 2.168zM510.212 148.02c0-2.17.017-4.338-.01-6.506-.01-.642.16-.913.86-.898 1.896.04 3.795.048 5.692-.005.857-.022.79.473.812 1.04.024.615-.098.97-.832.93-.96-.052-1.927.012-2.89-.023-.56-.02-.83.115-.803.742.044.99.035 1.987.005 2.98-.015.508.158.693.672.675.903-.032 1.808.023 2.71-.02.77-.035.61.49.605.91-.006.41.192.955-.588.923-.902-.036-1.807.012-2.71-.017-.494-.015-.703.13-.688.66.03 1.143.03 2.288.002 3.432-.013.525.203.68.695.667.993-.025 1.99.017 2.98-.017.79-.027.843.42.85 1.04.005.625-.13.936-.847.92-1.896-.04-3.795-.037-5.692-.003-.642.01-.837-.216-.83-.836.024-2.198.008-4.396.008-6.595zM420.968 148.05c0-2.168.023-4.336-.014-6.505-.01-.68.132-.958.888-.934a77.9 77.9 0 0 0 5.51 0c.908-.036.82.45.855 1.055.04.705-.17.967-.903.917-.9-.062-1.807.01-2.71-.024-.567-.022-.823.14-.797.756.04.962.044 1.93 0 2.89-.03.618.218.778.788.752.842-.038 1.688.023 2.53-.023.697-.038.705.37.675.86-.028.45.173 1.013-.645.977-.902-.04-1.807.007-2.71-.018-.467-.013-.642.158-.633.628.022 1.144.032 2.29-.002 3.433-.017.586.253.708.765.695.993-.025 1.99.027 2.982-.017.826-.036.645.527.636.972-.008.43.223 1-.62.985-1.986-.035-3.975-.03-5.962.002-.646.01-.638-.345-.636-.803.01-2.2.004-4.398.004-6.596zM396.018 147.98c0-2.14.02-4.28-.013-6.418-.01-.676.147-.97.904-.95 1.865.054 3.736.056 5.602 0 .852-.026.72.487.724.99.006.516.1 1.036-.738.98-.96-.062-1.928.003-2.89-.024-.515-.014-.78.11-.76.697.036 1.023.03 2.05.002 3.073-.012.473.157.64.626.624.873-.026 1.75.037 2.62-.02.755-.052.74.383.722.902-.016.48.108.986-.687.937-.87-.053-1.747.012-2.62-.02-.52-.02-.675.18-.66.68.028 1.115.03 2.23 0 3.345-.017.54.15.757.714.734.933-.038 1.87.038 2.8-.024.87-.058.874.428.888 1.067.014.63-.107.92-.835.9a103.206 103.206 0 0 0-5.423-.004c-.734.016-1.007-.192-.99-.963.045-2.168.014-4.338.014-6.507zM521.555 148.023c0-2.198.02-4.396-.014-6.594-.01-.634.186-.827.818-.814 1.866.038 3.734.044 5.6-.002.743-.018.84.33.827.934-.01.585.017 1.08-.824 1.032-.99-.057-1.986.005-2.98-.02-.487-.013-.712.122-.697.655.03 1.053.02 2.108 0 3.16-.007.434.162.585.583.575.812-.02 1.63.04 2.438-.017.74-.054.968.176.983.942.017.845-.358.93-1.03.893-.75-.042-1.506.02-2.256-.017-.55-.028-.733.16-.723.715.03 1.715-.01 3.433.023 5.148.01.596-.112.843-.78.84-1.97-.005-1.968.025-1.967-1.92.003-1.836.002-3.673.002-5.51zM500.983 149.007c0-1.837-.038-3.675.017-5.51.023-.78-.255-1.033-.982-.935-.207.028-.42.005-.632.005-1.14-.002-1.136-.024-1.13-1.16 0-.577.184-.796.784-.788 2.258.027 4.518.047 6.775-.01.83-.02.752.447.74.967-.01.493.153 1.004-.706 1.01-2.03.012-2.03.055-2.03 2.102.002 3.22-.02 6.444.017 9.666.01.794-.162 1.135-1.044 1.1-2.085-.087-1.79.277-1.808-1.842-.013-1.535-.002-3.07-.002-4.607zM587.254 148.047c0 2.17-.03 4.338.017 6.506.016.728-.22.92-.923.897-2.245-.075-1.92.31-1.93-1.897-.015-4.006.012-8.013-.017-12.02-.005-.69.155-.936.895-.922 1.956.04 1.958.002 1.96 1.924v5.513zM564.286 148.13c0 2.197-.014 4.392.01 6.588.006.54-.15.72-.71.73-2.16.045-2.158.065-2.158-2.074 0-3.91.018-7.823-.017-11.733-.006-.78.205-1.05 1.014-1.03 1.86.047 1.862.007 1.862 1.833v5.687z"/></svg>