<svg  xmlns="http://www.w3.org/2000/svg" viewBox="0 0 418 77">
 <path d="m 230.9,14.7 -12.6,0 18.9,29.9 0,0.2 0,18.2 5.4,0 0,0 0,0 5.5,0 0,-18.2 0,-0.2 18.8,-29.9 -12.6,0 -11.7,20.3 z m -64.3,23.8 c 0,-14.1 11.5,-25.6 25.6,-25.6 14.2,0 25.6,11.5 25.6,25.6 0,14.1 -11.4,25.6 -25.6,25.6 -14.1,0 -25.6,-11.5 -25.6,-25.6 l 0,0 0,0 0,0 z m 25.6,16.2 c 7.9,0 14.3,-7.2 14.3,-16.2 0,-9 -6.4,-16.2 -14.3,-16.2 -7.9,0 -14.3,7.2 -14.3,16.2 0,9 6.4,16.2 14.3,16.2 l 0,0 0,0 0,0 z m -28.3,-40 0,8.9 -15.1,0 0,0 0,0 0,0 0,39.4 -10.8,0 0,-39.4 0.1,0 -15.1,0 0,-8.9 z m 211.9,37.4 0,0 -4.1,10.9 -12.7,0 20,-48.3 6.4,0 7,0 20,48.3 -13,0 -4,-10.9 0,0 -10,0 -9.6,0 0,0 0,0 z m 9.6,-8.2 7,0 0,0 -7,-17.6 0,0 -6.5,17.6 0,0 6.5,0 0,0 0,0 z m -22.7,-29.2 0,8.9 -15,0 0,0 0,0 0,0 0,39.4 -10.8,0 0,-39.4 0,0 -15,0 0,-8.9 z m -95.3,23.8 c 0,-14.1 11.5,-25.6 25.6,-25.6 14.2,0 25.6,11.5 25.6,25.6 0,14.1 -11.4,25.6 -25.6,25.6 -14.1,0 -25.6,-11.5 -25.6,-25.6 l 0,0 0,0 0,0 z M 293,54.7 c 7.9,0 14.4,-7.2 14.4,-16.2 0,-9 -6.5,-16.2 -14.4,-16.2 -7.9,0 -14.3,7.2 -14.3,16.2 0,9 6.4,16.2 14.3,16.2 l 0,0 0,0 0,0 z M 53.2,68.6 c -5.4,-3.4 -9.4,-15.1 -9.4,-28.9 0,-0.5 0,-1 0,-1.5 l 0,0 0,0 0,0 C 28.8,35.9 18,29.4 17.8,21.7 l 0,0 -0.1,0.1 0,0 c -3.7,4.6 -5.8,9.9 -5.8,15.5 0,16.5 18.2,30.1 41.2,31.3 l 0,0 0.1,0 0,0 0,0 z M 5,38.5 C 5,20 28,5 56.4,5 84.8,5 107.9,20 107.9,38.5 107.9,57 84.8,72 56.4,72 28,72 5,57 5,38.5 l 0,0 0,0 0,0 z M 56.4,9.8 c 5.5,0 10.2,8.4 11.9,19.9 l 0,0 0,0 0,0 C 79,28.1 86.4,24.3 86.4,19.8 86.4,13.8 73,9 56.4,9 c -16.6,0 -30,4.8 -30,10.8 0,4.5 7.5,8.3 18.1,9.9 l 0,0 0,0 0,0 C 46.3,18.2 50.9,9.8 56.4,9.8 l 0,0 0,0 0,0 z m 3.3,58.8 c 23.1,-1.2 41.2,-14.8 41.2,-31.3 0,-5.6 -2.1,-10.9 -5.7,-15.5 l 0,0 -0.1,-0.1 0,0 C 94.8,29.4 84,35.9 69,38.2 l 0,0 0,0 0,0 c 0,0.5 0,1 0,1.5 0,13.8 -4,25.5 -9.3,28.9 l 0,0 0,0 0,0 0,0 z m -3.3,-38 c 2.5,0 4.9,-0.1 7.2,-0.3 l 0,0 0,0 0,0 c -1.2,-7.4 -3.9,-12.7 -7.2,-12.7 -3.2,0 -6,5.3 -7.1,12.7 l 0,0 0,0 0,0 c 2.3,0.2 4.7,0.3 7.1,0.3 l 0,0 0,0 0,0 z m 0,27.6 c 4.2,0 7.5,-8.6 7.7,-19.4 l 0,0 0,0 0,0 c -2.4,0.2 -5.1,0.4 -7.7,0.4 -2.6,0 -5.2,-0.2 -7.7,-0.4 l 0,0 0.1,0 0,0 c 0.1,10.8 3.5,19.4 7.6,19.4 l 0,0 0,0 0,0 z"></path>
</svg>
