<svg xmlns="http://www.w3.org/2000/svg" viewBox="0, 0, 416, 50"><path d="M4 11.1h14.6v33.3H29V11.1h14.6V4.6H4v6.5zM82 33.4c-.4-1.8-1.1-3.5-2.2-4.9-.9-1.2-2.3-2.2-3.8-2.7 5.1-1.4 8.9-5.2 8.9-10.5 0-7.7-7-10.7-15.2-10.7H51.3v39.8h10.4V28H64c3.1 0 7.4.8 9.2 8.1 1.1 4 1.6 6.2 5 8.2 4.2 2.2 10.5-.8 10.5-.8l-.7-3.3c-3.6.4-5.3-3.3-6-6.8zM66.7 22.7h-5V9.4h5c5.6 0 8.3 2.5 8.3 6.6 0 4.4-2.8 6.7-8.3 6.7zM121.3 28.1c.1 6.6-2 10.8-7.4 10.9-5.9-.2-8.3-4.3-8.3-11V4.6H95.1v24c0 10.8 7.2 16.3 17.2 16.3 10.2 0 16.5-5.6 16.5-16.4V4.6h-7.5v23.5zM167.3 25L149.9 4.6h-10.1v39.8h7.5V17.8L170 44.4h4.7V4.6h-7.5V25h.1zM222.6 4.6h-9.3l-16.5 17.3V4.6h-10.4v39.8h10.4V30.7l4.4-4.5 12.4 18.2h12.2L208.4 19l14.2-14.4zM277.2 9.2c5.1 0 8.4 3.1 10.8 6.9l3.6-4c-2.8-4.6-8.3-8-15.9-8-11.9 0-21.5 8.4-21.5 21s9.6 20 21 20c8 0 13.5-3.9 16.3-8.5l-3.5-3c-2.4 3.8-5.7 6.1-10.9 6.1-6.5-.1-11.4-5.7-11.4-15.3.1-9.9 4.3-15.2 11.5-15.2zM310.4 4.6H300v39.8h29.3v-6.5h-18.9V4.6zM360.5 28.1c0 6.6-2.1 10.8-7.5 10.9-5.9-.2-8.3-4.3-8.3-11V4.6h-10.4v24c0 10.8 7.2 16.3 17.2 16.3 10.2 0 16.5-5.6 16.5-16.4V4.6h-7.5v23.5zM399 23.9v-.1c5.5-.5 10.5-3.5 10.5-9.5 0-6.9-6.7-9.7-14.8-9.7h-17.4v39.8h18.1c8.7 0 15.7-2.9 15.7-10.7 0-7.1-6.5-9.5-12.1-9.8zM387.6 9.5h4.4c4.8 0 7 1.6 7 6s-2.3 6.1-7 6.1h-4.4V9.5zm4.9 30h-4.8V26.3h4.8c5.5 0 8.2 1.9 8.2 6.7 0 4.9-2.8 6.5-8.2 6.5z"/></svg>