<svg xmlns="http://www.w3.org/2000/svg" viewBox="0 0 517.4 446.4">&lt;<path d="M287.8 85.94c26.4-16.2 59.9-31.8 92.5-33.1 31.7-.7 46.9 5.8 60.3 21.4 13.5 15 14.4 40.96 14.4 40.96h28.4s8-50.06-23.2-74.16c-24.3-20.8-58.6-24.7-108.6-11-24.4 6.5-52.9 20.1-76.4 35.8-35.8 24.7-62.5 51.36-62.5 51.36h30.4s19-15.6 44.7-31.26zM266 371.7c-20.2 9.8-38.5 17.6-58.3 20.8-19.9 3.3-24.8 3.3-45.7.7-8-1.3-21.5-5.2-33.8-21.5-7.6-10.4-10.8-31.9-10.8-31.9H91.06S90.15 371 105 395.1c9.8 14.3 23.5 20.2 32 23.5 8.4 3.2 24.1 5.8 35.8 5.8 57.3 0 115.3-38.4 137.8-52.7 29.3-20.8 40.1-33.9 40.1-33.9h-32.3s-32.2 24.1-52.4 33.9zm184.6-166h-66v-65.1h-41.5v182.3h41.5v-65.8h66v65.8h41.5V192.7h-41.5v13zm-3.4-48.8c0 17.6 10.8 31.2 24 31.2 13.4 0 24.2-13.6 24.2-31.2 0-16.9-10.8-31.2-24.2-31.2-13.2 0-24 14.3-24 31.2zM280.9 323.5c29.5-.6 53.3-26.7 53.3-59.9 0-29.9-19.6-54-45.2-58.5l-7.3-.7H232.3c-3.1 0-5.6-3.2-5.6-6.5s2.5-6.5 5.6-6.5h97.2v-50.8h-97.2c-29 1.3-51.5 26.7-51.5 58 0 29.9 19.1 54.6 45.4 58.5 0 .7 55.4 0 55.4 0v.7c3.3 0 6.1 2.6 6.1 6.5s-2.8 7.2-6.1 7.2H171.8v52h109.1zm-165.1 0V191.4h52.1v-50.8H22v50.8h52.14v132.1h41.66z"/></svg>