<svg xmlns="http://www.w3.org/2000/svg" viewBox="0 0 600 140"><path d="M563.51 30.88a4.408 4.408 0 0 0 6.02-1.61 4.4 4.4 0 0 0-1.61-6.018 4.41 4.41 0 0 0-6.02 1.613 4.414 4.414 0 0 0 1.61 6.016zm-9.01 28.49c-1.94 0-3.78-.43-5.43-1.197l-3.06 5.486a19.108 19.108 0 0 0 8.49 1.98c1.77 0 3.48-.246 5.11-.697a6.19 6.19 0 0 1 3.01-4.367 6.192 6.192 0 0 1 5.29-.428 19.116 19.116 0 0 0 5.68-12.415l-6.28-.09c-.57 6.575-6.09 11.73-12.81 11.73zm0-25.74c6.72 0 12.24 5.156 12.81 11.73l6.28-.09a19.115 19.115 0 0 0-5.68-12.415 6.192 6.192 0 0 1-5.29-.43 6.19 6.19 0 0 1-3.01-4.366 19.12 19.12 0 0 0-5.11-.698c-3.05 0-5.93.716-8.49 1.982l3.06 5.486a12.85 12.85 0 0 1 5.43-1.198zM541.63 46.5c0-4.354 2.16-8.2 5.47-10.528l-3.22-5.396a19.152 19.152 0 0 0-7.92 11.126 6.178 6.178 0 0 1 2.28 4.798c0 1.937-.89 3.664-2.28 4.798a19.154 19.154 0 0 0 7.92 11.127l3.22-5.396a12.844 12.844 0 0 1-5.47-10.53zm21.88 15.62a4.415 4.415 0 0 0-1.61 6.016 4.408 4.408 0 0 0 6.02 1.612 4.398 4.398 0 0 0 1.61-6.017 4.408 4.408 0 0 0-6.02-1.61zm-31.45-20.025a4.405 4.405 0 0 0 0 8.81c2.43 0 4.4-1.972 4.4-4.405a4.402 4.402 0 0 0-4.4-4.405M587.5 46.5c0 18.225-14.78 33-33 33-18.23 0-33-14.775-33-33s14.77-33 33-33c18.22 0 33 14.775 33 33m-137.24 1.144v53.186c0 13.54 6.56 21.1 19.68 21.1 3.52 0 6.98-.16 10.39-.47 3.41-.31 6.3-.77 8.67-1.39V47.644h15.5v82.036c-4.65 1.66-10.02 2.85-16.12 3.57-6.09.83-12.24 1.24-18.44 1.24-11.57 0-20.35-3.68-26.34-9.47-5.99-5.79-8.99-14.58-8.99-26.36V47.643h15.65m-240.06 0v53.186c0 13.54 6.56 21.1 19.68 21.1 3.51 0 6.97-.16 10.38-.47 3.41-.31 6.3-.77 8.68-1.39V47.644h15.5v82.036c-4.65 1.66-10.03 2.85-16.12 3.57-6.1.83-12.24 1.24-18.44 1.24-11.57 0-20.35-3.68-26.34-9.47-6-5.79-8.99-14.58-8.99-26.36V47.643h15.65M386.72 20.2l-13.97 2.535v84.575c0 16.23 8.79 26.87 28.11 26.87 4.75 0 13.96-1.29 19.44-2.22l-1.85-10.95c-.1.43-12.32 1.67-18.84 1.32-6.52-.36-12.41-5.68-12.98-11.14V60.05h32.2V47.634h-32.2l.1-27.432zM118.52 5.5l-15.66 2.534V129.68c9.2 3.21 18.96 4.82 29.29 4.82 1.77 0 3.48-.1 5.13-.19 30.54.15 46.35-24.07 42.26-52.177-3.21-19.824-19.66-36.566-38.92-36.566-7.64 0-13.74 2.07-18.29 3.723a49.588 49.588 0 0 0-3.81 1.626V5.53zm21.94 52.612c17.19.847 24.08 15.97 24.61 30.84.73 20.328-13.46 34.668-32.61 32.978-4.42-.4-9.08-.56-13.94-1.69V64.274a24.788 24.788 0 0 1 6.91-4.16c3.62-1.344 8.64-2.318 15.03-2.002zm160.7 74.198h-15.65V51.055c4.75-1.654 10.02-2.842 15.81-3.566 5.88-.828 11.93-1.242 18.13-1.242 23.14 0 34.71 11.527 34.71 34.58v51.482h-15.5V78.656c0-13.232-6.4-19.848-19.21-19.848-3.41 0-6.72.155-9.92.466-3.2.31-5.99.723-8.37 1.24v71.796M28.15 47.644v53.186c0 13.54 6.56 21.1 19.68 21.1 3.513 0 6.974-.16 10.383-.47 3.41-.31 6.302-.77 8.678-1.39V47.644h15.497v82.036c-4.65 1.66-10.02 2.85-16.116 3.57-6.094.83-12.24 1.24-18.44 1.24-11.57 0-20.35-3.68-26.342-9.47-5.992-5.79-8.988-14.58-8.988-26.36V47.643h15.65"/></svg>