<svg xmlns="http://www.w3.org/2000/svg" viewBox="0 0 1056 400"><path d="M966.514 200.655c-2.514 0-5.896 1.175-7.923 2.188-62.103 35.625-118.963 61.95-174.667 49.79-42.523-9.784-65.135-37.136-22.445-70.89 48.777-38.14 142.614-72.898 151.542-50.78 9.623 23.612-110.188 63.605-144.28 74.24h-.178c-5.227 1.693-8.936 6.59-8.936 12.48 0 7.103 5.897 13 13.157 13h.336c1.012 0 2.186 0 3.374-.16 29.02-3.88 94.85-23.46 121.852-35.445 25.98-11.483 57.036-22.782 67.346-54.842 9.775-30.21-13.684-59.74-63.133-60.93-95.85-2.37-188 53.158-214.333 108.687-5.57-6.768-11.307-14.02-17.036-21.776-37.127-51.468-90.796-81.502-151.726-81.502-30.545 0-60.238 8.26-86.742 23.276.16-3.038.505-8.257.505-8.257l-.152-3.886v-1.524c0-8.26-8.293-15.178-19.09-15.178-10.122 0-18.05 6.256-18.722 14.156v.36c-3.373 25.128-11.48 48.092-24.135 69.196l-8.605 13.16c-28.86 39.658-71.395 62.452-116.445 62.452-74.098 0-138.214-61.95-149.04-144.648v-.52c-.664-7.9-8.6-14.155-18.883-14.155-10.64 0-19.08 6.576-19.08 15.027v5.377c0 110.72 83.884 200.83 187.003 200.83 30.533 0 60.248-8.257 86.737-23.282a640.59 640.59 0 0 1-.512 8.425l.17 5.578c.18 8.268 8.44 14.69 19.07 14.69 10.307 0 18.57-6.247 18.907-14.345 3.364-24.8 11.313-48.093 23.956-69.365 0 .167 6.246-9.28 6.246-9.28l2.38-3.71c28.843-39.666 71.376-62.446 116.432-62.446 47.588 0 87.078 21.608 120.83 65.647 38.477 50.468 82.714 87.757 151.896 87.757 93.83 0 180.07-71.04 180.07-71.04 5.568-4.047 10.124-8.778 9.958-16.03-.16-7.774-8.62-12.657-15.704-12.322m-.232 89.785h-3.64v-10.047c.61-.145 1.788-.312 3.504-.312 2.22 0 4.014.576 5.122 1.75.76.774 1.255 1.874 1.255 3.335v.024c0 3.174-2.435 5.25-6.24 5.25m8.665 7.068c-.694-2.88-1.972-4.817-4.037-5.584v-.09c2.873-.997 5.196-3.39 5.196-7.02 0-2.147-.823-4.046-2.195-5.203-1.723-1.594-4.164-2.306-8.018-2.306-2.402 0-5.034.232-6.8.615v27.17h3.55v-11.954h3.353c3.232.12 4.74 1.555 5.553 5.37.75 3.422 1.342 5.76 1.812 6.583h3.686c-.543-1.078-1.204-3.742-2.098-7.582m-29.06-6.095c.017-12.018 9.734-21.704 21.735-21.72v2.513c-10.62 0-19.238 8.563-19.238 19.207.03 10.604 8.618 19.197 19.238 19.205 10.604-.008 19.206-8.6 19.223-19.205-.017-10.644-8.62-19.207-19.223-19.207v-2.513c11.986.016 21.728 9.702 21.728 21.72 0 12.017-9.74 21.72-21.727 21.72-12 0-21.736-9.703-21.736-21.72"/></svg>