<svg xmlns="http://www.w3.org/2000/svg" viewBox="0 0 562 96"><path d="M66.95 44.88s1.23-14.04 1.61-18.36c.38-4.32 2.09-6.78 5.57-7.87C77.61 17.58 95.78 12 95.78 12l-3.06 35.12C91 66.72 74.02 81.78 54.98 83.38l2.25-26.36c5.22-1.67 9.22-6.35 9.72-12.14m-26.1 0s-1.24-14.04-1.61-18.36c-.38-4.32-2.09-6.78-5.57-7.87C30.19 17.58 12 12 12 12l3.08 35.12c1.71 19.6 18.69 34.66 37.73 36.26l-2.24-26.36c-5.23-1.67-9.22-6.35-9.72-12.14M230.4 63.43c-3.5-3.49-26.4-25.74-26.7-25.99-.5-.5-1.2-1.04-1.6-1.29h-.2v34.47h-12.4V37.67v-3.81c0-9.59 7.3-9.94 8.7-9.94h4.1c4.8 0 8.2 3.8 9.6 5.19l1.7 1.65c3.5 3.43 26.8 25.99 27.1 26.26.5.49 1.2 1.02 1.6 1.27h.2V23.92h12.4V60.58c-.1 9.01-6.2 10.03-7.6 10.03h-5.5c-4.2 0-7.9-3.73-9.3-5.14zm-88.6 8.04c-8.5 0-13.7-1.38-18.2-5.18-4.6-4-6.7-8.44-6.7-15.21V23.9h12.4v26.98c0 6.54 5.6 8.99 12.1 8.99h14.2c7 0 12.1-2.45 12.1-8.99V23.9H180v27.18c0 6.77-2 11.21-6.7 15.21-4.5 3.8-9.6 5.18-18.2 5.18zm136.6-.85h-13V23.9h13zm66.5-46.72h-33.2c-17.3 0-26.5 9.78-26.5 24.17 0 8.73 3.8 14.99 10.3 18.95 4.5 2.79 10.8 3.6 19 3.6h9.1v-9.06h-7c-12.6 0-18.9-3.49-18.9-13.64 0-8.31 4.8-13.99 14.1-13.99h20.4v36.68h12.7zm37.6 37.7c13.7 0 20.5-3.43 20.5-14.93 0-9.46-5.1-13.15-15.3-13.15h-20V61.6zM355 23.9h32.6c17.4 0 27.1 8.55 27.1 22.94 0 8.72-4.3 16.22-10.8 20.18-4.5 2.79-10.8 3.6-19.1 3.6H355zm194.8 46.71h-16.6l-17-16.51-17 16.51h-16.5l25.9-23.28-25.9-23.43h16.9l16.6 16.6 16.7-16.6h16.9l-25.9 23.43zm-108.4 0c-2.5 0-5.4-.13-6.4-.38-1-.24-2.1-.58-3.3-1-3.9-1.53-7.1-4.32-9.6-8.18-2.4-3.83-3.6-8.35-3.6-13.42 0-1.84.2-3.62.5-5.29.7-4.34 2.3-8.05 4.7-11.04 2.5-3 5.6-5.12 9.3-6.29 1.7-.55 5.1-1.11 8.4-1.11h36.1v9.67H443c-2 0-3.5.29-4.7.86-2 .94-3.4 1.98-4.3 3.1-.8 1.05-1.3 2.1-1.5 3.21-.1.31-.2.74-.2 1.3l-.1.66h45.5v9.55h-45.3c0 .58.1 1.1.2 1.51.4 1.34 1.1 2.66 2.3 3.94 1.8 1.94 4.6 3.17 7.4 3.17h35.4v9.74zm0 0"/></svg>