<svg xmlns="http://www.w3.org/2000/svg" viewBox="0 0 673.9 415"><path d="M494.1 391.7c-3.6 0-7.8-.2-9.3-.5-1.4-.4-3-.9-4.8-1.5-5.7-2.2-10.3-6.3-13.9-11.9-3.5-5.5-5.3-12.1-5.3-19.5 0-2.7.3-5.3.7-7.7 1.1-6.3 3.4-11.7 6.9-16.1 3.6-4.3 8.1-7.4 13.5-9.1 2.5-.8 7.4-1.6 12.2-1.6h52.6v14h-50.2c-2.9 0-5.1.5-6.9 1.3-2.9 1.4-4.9 2.9-6.2 4.5-1.2 1.5-1.9 3.1-2.2 4.7-.2.4-.3 1.1-.3 1.9l-.1.9H547V365h-66c0 .9.2 1.6.3 2.2.6 2 1.6 3.9 3.4 5.8 2.6 2.8 6.7 4.6 10.7 4.6H547v14.1zm157.8 0h-24.2l-24.7-24-24.8 24h-24l37.7-33.8-37.7-34.1h24.6l24.2 24.1 24.3-24.1h24.6l-37.7 34.1zm-283.5-67.9h47.5c25.3 0 39.4 12.4 39.4 33.4 0 12.6-6.3 23.6-15.7 29.3-6.6 4.1-15.7 5.3-27.8 5.3h-43.4zm40 54.8c20 0 29.9-5 29.9-21.7 0-13.8-7.5-19.1-22.3-19.1h-29.1v40.8zm-54.7-54.8h-48.3c-25.1 0-38.5 14.2-38.5 35.1 0 12.7 5.5 21.9 15 27.6 6.5 4.1 15.7 5.3 27.6 5.3h13.2v-13.2h-10.1c-18.4 0-27.5-5.1-27.5-19.9 0-12.1 6.9-20.3 20.5-20.3h29.7v53.3h18.4zm-96.7 68h-18.9v-68H257zM58.22 393c-12.37 0-19.93-2-26.48-7.5-6.7-5.9-9.75-12.3-9.75-22.2v-39.5h18.04V363c0 9.5 8.15 13.1 17.61 13.1H78.3c10.18 0 17.6-3.6 17.6-13.1v-39.2h17.9v39.5c0 9.9-2.9 16.3-9.7 22.2-6.6 5.5-14.02 7.5-26.53 7.5zm128.88-11.7c-5.1-5.1-38.4-37.5-38.8-37.8-.7-.8-1.8-1.5-2.3-1.9h-.3v50.2h-18.1v-48-5.5c0-14 10.6-14.5 12.7-14.5h5.9c7 0 12 5.5 14 7.6l2.5 2.4c5.1 4.9 39 37.8 39.4 38.2.7.7 1.8 1.4 2.3 1.8h.3v-50h18.1v53.3c-.2 13.2-9 14.6-11.1 14.6h-8c-6.1 0-11.5-5.4-13.5-7.4zM287.8 146s-4.5-52.99-5.9-69.28c-1.6-16.3-8-25.61-21.1-29.69-13.3-3.93-81.5-25.02-81.5-25.02l11.3 132.39c6.4 74 70.4 130.7 142.5 136.8l-8.6-99.4c-19.7-6.3-34.8-24-36.7-45.8m98.5 0s4.5-52.99 6-69.28c1.6-16.3 8-25.61 21.1-29.69 13.2-3.92 81.5-25.02 81.5-25.02L483.5 154.4c-6.4 74-70.4 130.7-142.4 136.8l8.6-99.4c19.6-6.3 34.7-24 36.6-45.8"/></svg>