<svg xmlns="http://www.w3.org/2000/svg" viewBox="125.333 0 349.333 200"><path d="M259.673 162.836h4.093v21.754h-4.093v-21.754zm0-7.838h4.093v5.245h-4.093v-5.245zM279.716 166.493c-.674-1.464-1.522-2.54-2.553-3.216-1.03-.678-2.186-1.016-3.474-1.016-2.16 0-3.924 1.003-5.283 3.014-1.35 2.01-2.03 4.896-2.03 8.66 0 4.02.753 6.922 2.253 8.702 1.507 1.786 3.236 2.676 5.203 2.676 2.382 0 4.23-1.06 5.555-3.178.85-1.325 1.328-2.634 1.43-3.93h-4.125c-.213.64-.464 1.138-.75 1.497-.518.672-1.196 1-2.023 1a2.77 2.77 0 0 1-2.014-.815c-.918-.883-1.403-2.408-1.463-4.592h10.575c.014-1.874-.023-3.31-.13-4.31-.176-1.705-.57-3.2-1.172-4.49zm-9.17 5.046c.13-1.41.45-2.527.964-3.354.518-.824 1.246-1.236 2.18-1.236.864 0 1.576.395 2.154 1.176.59.773.913 1.913.978 3.413h-6.276zM156.19 159.86c1.555 0 2.734.64 3.526 1.92.443.72.808 1.78 1.09 3.195h4.367c-.067-1.837-.55-3.664-1.45-5.488-1.626-3.248-4.19-4.87-7.706-4.87-2.626 0-4.79 1.206-6.49 3.63-1.956 2.782-2.934 6.74-2.935 11.875 0 4.754.86 8.485 2.58 11.216 1.718 2.71 4.078 4.066 7.086 4.066 2.426 0 4.416-.998 5.964-3.005 1.558-2.01 2.53-4.618 2.903-7.825h-4.32c-.292 1.515-.664 2.65-1.106 3.408-.802 1.416-1.972 2.118-3.5 2.118-1.49 0-2.728-.817-3.7-2.456-.96-1.647-1.443-4.124-1.443-7.42 0-3.3.46-5.847 1.375-7.646.915-1.81 2.165-2.717 3.757-2.717zM192.457 171.5c-2.404-.746-3.81-1.272-4.207-1.576-.398-.295-.596-.764-.596-1.42 0-.516.184-.97.552-1.356.378-.385 1.003-.582 1.883-.582 1.068.005 1.822.39 2.27 1.162.237.422.38 1 .438 1.736h4.037c-.176-2.66-.878-4.532-2.097-5.608-1.21-1.09-2.776-1.64-4.706-1.64-2.033.004-3.61.73-4.733 2.177-1.114 1.438-1.676 3.16-1.676 5.17 0 1.703.363 3.006 1.085 3.913.712.915 1.948 1.68 3.694 2.294 2.427.813 3.83 1.38 4.21 1.715.378.336.565.82.565 1.458 0 .67-.24 1.165-.71 1.496-.464.33-1.093.5-1.882.5-1.35 0-2.28-.384-2.782-1.137-.28-.425-.463-1.14-.548-2.16h-4.093c0 2.24.575 4.084 1.725 5.53 1.165 1.44 2.956 2.155 5.383 2.155 2.38 0 4.14-.677 5.276-2.032 1.142-1.373 1.708-3.135 1.708-5.29 0-1.642-.398-3.002-1.188-4.094-.8-1.076-2.006-1.88-3.613-2.41zM250.315 162.358c-1.125 0-2.052.334-2.78.997-.613.537-1.176 1.305-1.687 2.316v-10.454h-4.022v29.375h3.956v-2.735c.537 1.068 1.035 1.813 1.5 2.24.775.716 1.8 1.078 3.074 1.078 2.03-.005 3.614-1.11 4.75-3.335 1.134-2.22 1.7-5.018 1.7-8.4 0-3.263-.574-5.926-1.728-7.988-1.144-2.06-2.733-3.092-4.763-3.092zm1.387 16.347c-.573 1.186-1.38 1.78-2.423 1.78-1.2 0-2.09-.615-2.677-1.84-.588-1.224-.88-2.768-.88-4.632 0-1.58.14-2.872.423-3.868.552-1.878 1.56-2.815 3.024-2.815 1.445 0 2.434.957 2.975 2.874.282 1.007.427 2.286.427 3.83 0 1.932-.293 3.487-.87 4.67zM238.732 183.096c-.13-.27-.21-.777-.243-1.52-.02-.985-.027-1.82-.027-2.515v-9.98c0-2.62-.653-4.402-1.97-5.347-1.31-.945-2.814-1.42-4.5-1.42-2.606 0-4.435.96-5.503 2.876-.672 1.223-1.047 2.786-1.135 4.69h3.897c.095-.838.286-1.504.566-1.997.398-.66 1.074-.995 2.026-.995.85 0 1.493.17 1.93.517.442.334.666.945.666 1.836-.003.732-.29 1.272-.868 1.618-.32.203-.854.368-1.6.5l-1.37.243c-1.564.275-2.744.743-3.55 1.394-1.458 1.197-2.192 3.134-2.192 5.81 0 2.06.455 3.656 1.36 4.79.92 1.118 2.073 1.674 3.47 1.674 1.097 0 2.08-.352 2.95-1.057a9.63 9.63 0 0 0 1.93-2.174c.025.493.064.93.113 1.316.044.388.128.8.254 1.236h4.393v-.84a1.635 1.635 0 0 1-.598-.652zm-4.307-6.967c-.033 1.903-.412 3.21-1.148 3.935-.728.716-1.526 1.073-2.395 1.073-.55 0-1.018-.21-1.404-.64-.375-.433-.57-1.142-.57-2.11 0-1.096.316-1.9.94-2.42.367-.3.977-.566 1.827-.777l.908-.24c.455-.118.81-.247 1.063-.375.264-.147.526-.334.78-.562v2.116zM213 183.096c-.137-.27-.214-.777-.243-1.52-.022-.985-.03-1.82-.03-2.515v-9.98c0-2.62-.654-4.402-1.974-5.347-1.31-.945-2.814-1.42-4.5-1.42-2.6 0-4.435.96-5.5 2.876-.67 1.223-1.046 2.786-1.134 4.69h3.893c.096-.838.29-1.504.57-1.997.398-.66 1.07-.995 2.026-.995.85 0 1.492.17 1.925.517.44.334.665.945.665 1.836 0 .732-.286 1.272-.86 1.618-.323.203-.855.368-1.602.5l-1.376.243c-1.56.275-2.738.743-3.543 1.394-1.465 1.197-2.196 3.134-2.196 5.81 0 2.06.452 3.656 1.36 4.79.916 1.118 2.073 1.674 3.476 1.674 1.09 0 2.073-.352 2.94-1.057a9.63 9.63 0 0 0 1.93-2.174c.028.493.068.93.114 1.316.05.388.132.8.254 1.236h4.395v-.84a1.594 1.594 0 0 1-.593-.652zm-4.31-6.967c-.028 1.903-.41 3.21-1.15 3.935-.727.716-1.522 1.073-2.393 1.073-.548 0-1.014-.21-1.4-.64-.384-.433-.57-1.142-.57-2.11 0-1.096.31-1.9.933-2.42.372-.3.982-.566 1.832-.777l.908-.24c.45-.118.808-.247 1.06-.375.266-.147.525-.334.78-.562v2.116zM180.876 183.096c-.132-.27-.212-.777-.238-1.52-.02-.985-.025-1.82-.025-2.515v-9.98c-.005-2.62-.662-4.402-1.975-5.347s-2.813-1.42-4.51-1.42c-2.595 0-4.43.96-5.49 2.876-.675 1.223-1.052 2.786-1.138 4.69h3.897c.094-.838.284-1.504.57-1.997.396-.66 1.07-.995 2.024-.995.85 0 1.495.17 1.932.517.442.334.666.945.666 1.836 0 .732-.29 1.272-.867 1.618-.322.203-.86.368-1.6.5l-1.377.243c-1.56.275-2.74.743-3.54 1.394-1.467 1.197-2.2 3.134-2.2 5.81 0 2.06.453 3.656 1.362 4.79.914 1.118 2.073 1.674 3.47 1.674 1.097 0 2.082-.352 2.95-1.057a9.57 9.57 0 0 0 1.927-2.174c.03.493.065.93.113 1.316.048.388.132.8.254 1.236h4.393v-.84a1.654 1.654 0 0 1-.597-.652zm-4.306-6.967c-.03 1.903-.41 3.21-1.147 3.935-.73.716-1.53 1.073-2.398 1.073-.547 0-1.017-.21-1.404-.64-.374-.433-.56-1.142-.56-2.11 0-1.096.307-1.9.933-2.42.37-.3.978-.566 1.828-.777l.906-.24a5.56 5.56 0 0 0 1.066-.375c.26-.147.524-.334.778-.562v2.116zM373.31 57.503l32.532 76.956h41.485L394.392 11.215H352.62l-6.236 11.838s-2.11-4.518-5.943-7.658c-3.15-2.586-10.112-4.18-10.112-4.18h-59.46s-4.554-.365-9.15 3.26c-4.864 3.83-8.236 8.81-8.236 8.81l-6.972-12.07h-39.842L154.356 134.46h39.937L227 58.72l6.393 14.104-26.134 61.635h41.104l6.634-15.392s4.514 15.39 17.42 15.39h59.322c10.914 0 14.864-14.893 14.864-14.893l6.27 14.894h40.912L366.79 71.08l6.52-13.577zm-97.544 11.43l15.98-36.414c4.184-7.43 13.52-7.24 17.233-.04l15.65 36.454c1.12 2.787.93 3.722-.554 7.207-2.566 9.862-13.466 31.814-13.466 31.814-4.987 9.416-15.506 8.732-20.35 0L275.765 76.14c-1.48-2.37-1.48-3.86 0-7.207zm52.954 60.386h-57.28c-5.258 0-8.216-2.924-10.892-8.974L213.64 15.76h30.888l41.555 92.194c1.663 6.39 7.46 10.99 14.378 10.99 6.913 0 11.772-4.022 14.348-10.99L328.2 77.817l15.305 34.995s-3.174 16.507-14.785 16.507zm20.8-99.48l6.256-14.08h31.236L364.77 65.384c-2.528-5.89-7.665-17.87-15.25-35.544zM450.927 165.593c-1.306-2.305-3.284-3.456-5.938-3.456-2.65.005-4.633 1.15-5.935 3.456-1.305 2.302-1.962 5.023-1.962 8.163 0 3.19.656 5.927 1.962 8.2 1.3 2.268 3.284 3.392 5.934 3.392 2.652 0 4.63-1.124 5.937-3.39 1.306-2.276 1.958-5.01 1.958-8.202 0-3.14-.65-5.862-1.958-8.163zm-3.23 13.212c-.63 1.186-1.54 1.78-2.722 1.78-1.18 0-2.09-.594-2.732-1.78-.632-1.186-.953-2.864-.953-5.05 0-2.185.322-3.857.953-5.03.642-1.184 1.553-1.775 2.732-1.775 1.183 0 2.09.59 2.723 1.775.634 1.173.95 2.845.95 5.03s-.316 3.864-.95 5.05zM390.73 166.493c-.672-1.464-1.522-2.54-2.553-3.216-1.03-.678-2.187-1.016-3.467-1.016-2.17 0-3.93 1.003-5.29 3.014-1.35 2.01-2.022 4.896-2.022 8.66 0 4.02.75 6.922 2.25 8.702 1.503 1.786 3.235 2.676 5.203 2.676 2.382 0 4.236-1.06 5.555-3.178.846-1.325 1.327-2.634 1.43-3.93h-4.124c-.216.64-.466 1.138-.75 1.497-.52.672-1.193 1-2.026 1-.786 0-1.458-.27-2.01-.815-.915-.883-1.406-2.408-1.46-4.592h10.57c.02-1.874-.02-3.31-.127-4.31-.182-1.705-.57-3.2-1.178-4.49zm-9.166 5.046c.13-1.41.452-2.527.963-3.354.518-.824 1.247-1.236 2.183-1.236.857 0 1.575.395 2.15 1.176.586.773.914 1.913.98 3.413h-6.276zM428.745 162.357c-1.236 0-2.306.487-3.204 1.458-.49.544-.955 1.292-1.384 2.232v-3.21h-3.868v30.317h3.998V181.82c.422.917.856 1.61 1.3 2.095.808.864 1.833 1.297 3.06 1.297 1.93-.003 3.5-1.003 4.72-3.015 1.23-2.01 1.844-4.93 1.844-8.76 0-3.634-.63-6.39-1.886-8.263-1.247-1.88-2.774-2.817-4.58-2.817zm1.404 16.248c-.59 1.224-1.442 1.836-2.564 1.836-.78 0-1.453-.297-2.015-.898-.956-1.026-1.433-2.8-1.433-5.33 0-1.596.148-2.91.426-3.95.552-1.953 1.552-2.93 3.023-2.93 1.22-.002 2.096.643 2.636 1.93.546 1.293.82 2.777.82 4.45 0 2.038-.297 3.667-.893 4.893zM415.745 164.872c-.534-.93-1.14-1.584-1.8-1.952-.657-.376-1.33-.563-2.012-.563-1.018 0-1.945.3-2.78.9-.778.6-1.437 1.538-1.966 2.814-.306-1.063-.745-1.933-1.33-2.613-.725-.734-1.684-1.1-2.864-1.1-1.247 0-2.263.426-3.046 1.28-.45.478-.92 1.283-1.42 2.41v-3.167h-3.92v21.71h4.093v-13.088c0-1.184.106-2.083.324-2.677.397-1.046 1.17-1.577 2.324-1.577.995.005 1.658.53 2 1.577.188.585.28 1.522.28 2.814v12.95h4.065v-12.95c0-.973.114-1.8.328-2.494.424-1.306 1.196-1.956 2.314-1.956.963 0 1.625.504 1.98 1.52.188.528.284 1.208.284 2.033v13.85h4.137l.026-13.71c0-1.41-.043-2.482-.137-3.216-.15-1.102-.444-2.037-.878-2.795zM346.336 155.174h4.037v29.416h-4.037v-29.416zM343.015 183.096c-.132-.27-.212-.777-.24-1.52-.018-.985-.026-1.82-.026-2.515v-9.98c0-2.62-.66-4.402-1.973-5.347-1.314-.945-2.818-1.42-4.508-1.42-2.597 0-4.43.96-5.5 2.876-.67 1.223-1.047 2.786-1.13 4.69h3.893c.1-.838.287-1.504.57-1.997.397-.66 1.07-.995 2.027-.995.85 0 1.493.17 1.927.517.444.334.664.945.664 1.836 0 .732-.286 1.272-.863 1.618-.324.203-.858.368-1.6.5l-1.374.243c-1.564.275-2.742.743-3.54 1.394-1.47 1.197-2.2 3.134-2.2 5.81 0 2.06.453 3.656 1.36 4.79.917 1.118 2.074 1.674 3.472 1.674 1.095 0 2.077-.352 2.95-1.057a9.664 9.664 0 0 0 1.926-2.174c.03.493.067.93.11 1.316.053.388.137.8.26 1.236h4.393v-.84a1.62 1.62 0 0 1-.598-.652zm-4.304-6.967c-.028 1.903-.41 3.21-1.147 3.935-.73.716-1.53 1.073-2.398 1.073-.547 0-1.014-.21-1.4-.64-.384-.433-.57-1.142-.57-2.11 0-1.096.313-1.9.938-2.42.366-.3.974-.566 1.823-.777l.908-.24a5.41 5.41 0 0 0 1.064-.375c.265-.147.524-.334.783-.562v2.116zM317.28 183.096c-.134-.27-.216-.777-.242-1.52-.02-.985-.025-1.82-.025-2.515v-9.98c-.004-2.62-.664-4.402-1.972-5.347-1.315-.945-2.82-1.42-4.507-1.42-2.595 0-4.433.96-5.5 2.876-.67 1.223-1.047 2.786-1.13 4.69h3.894c.096-.838.285-1.504.57-1.997.4-.66 1.073-.995 2.025-.995.853 0 1.493.17 1.926.517.45.334.664.945.664 1.836 0 .732-.288 1.272-.864 1.618-.32.203-.853.368-1.593.5l-1.38.243c-1.558.275-2.74.743-3.54 1.394-1.464 1.197-2.198 3.134-2.198 5.81 0 2.06.455 3.656 1.363 4.79.917 1.118 2.07 1.674 3.47 1.674 1.097 0 2.074-.352 2.946-1.057a9.43 9.43 0 0 0 1.927-2.174c.028.493.07.93.114 1.316.048.388.13.8.252 1.236h4.393v-.84c-.26-.165-.46-.39-.593-.652zm-4.308-6.967c-.03 1.903-.414 3.21-1.146 3.935-.728.716-1.526 1.073-2.398 1.073-.544 0-1.014-.21-1.4-.64-.384-.433-.567-1.142-.567-2.11 0-1.096.31-1.9.935-2.42.372-.3.978-.566 1.827-.777l.91-.24a5.42 5.42 0 0 0 1.06-.375c.265-.147.522-.334.78-.562v2.116zM292.045 162.318c-1.206 0-2.188.45-2.94 1.338-.47.534-1.01 1.523-1.632 2.975v-3.794h-3.855v21.754h4.063v-10.398c0-1.74.158-3.032.47-3.87.56-1.49 1.65-2.236 3.274-2.236.124 0 .286.008.48.022.204.01.428.036.68.078v-5.828c-.175-.01-.297-.018-.356-.018a.623.623 0 0 0-.183-.022zm7.39-5.348h-3.998v6.066h-2.155v4.053h2.156v13.395c0 1.352.227 2.36.68 3.01.7 1.026 2.003 1.488 3.91 1.398l1.914-.1v-4.25c-.133.01-.27.025-.412.04h-.383c-.82 0-1.312-.11-1.474-.32-.163-.228-.24-.787-.24-1.68v-11.495h2.51v-4.052h-2.51v-6.066zM370.686 162.836h4.1v21.754h-4.1v-21.754zm-5.076-5.866h-3.992v6.066h-2.156v4.053h2.156v13.395c0 1.352.224 2.36.676 3.01.698 1.026 2.004 1.488 3.91 1.398l1.913-.1v-4.25c-.128.01-.27.025-.41.04h-.38c-.823 0-1.312-.11-1.473-.32-.166-.228-.244-.787-.244-1.68v-11.495h2.508v-4.052h-2.508v-6.066zm5.076-1.972h4.1v5.245h-4.1v-5.245z"/></svg>