<svg xmlns="http://www.w3.org/2000/svg" viewBox="0 0 575 307"><path d="M465.73 206.73c-22.44 0-38.58-5.23-52.83-19.71l15.08-14.89c10.92 10.91 22.85 14.24 38.17 14.24 19.47 0 30.8-8.37 30.8-22.85 0-6.47-1.89-11.93-5.87-15.49-3.79-3.57-7.54-5.05-16.38-6.3l-17.62-2.49c-12.17-1.67-21.79-5.88-28.31-11.94-7.36-6.94-10.92-16.37-10.92-28.493C417.85 72.81 436.73 55 467.77 55c19.7 0 33.53 5.042 46.35 16.977l-14.48 14.248c-9.21-8.79-19.89-11.52-32.48-11.52-17.62 0-27.24 10.086-27.24 23.27 0 5.455 1.66 10.265 5.64 13.835 3.79 3.33 9.85 5.87 16.79 6.93l16.98 2.5c13.83 2.08 21.6 5.46 27.89 11.1 8.19 7.13 12.17 17.81 12.17 30.63 0 27.43-22.44 43.76-53.66 43.76zM360.26 76.557V205.48h-22.62V76.557h-41.08V56.203h104.82v20.354zM220.47 206.73c-30.39 0-53.48-20.77-53.48-51.58V56.203h22.62v97.887c0 19.93 12.17 32.28 30.81 32.28s31.04-12.35 31.04-32.28V56.203h22.62v98.947c.1 30.85-23.22 51.58-53.61 51.58zm292.12 32.47v7.96h-3.75v-7.96l-5.83-11.42h4.12l3.61 7.81 3.56-7.81h4.12zm-23.36 7.96v-19.38H502v3.37h-8.98v4.54h7.68v3.37h-7.68v4.72H502v3.38zm-7.36 0l-7.67-11.89v11.89h-3.8v-19.38h3.38l7.68 11.88v-11.88h3.79v19.38zm-16.74-1.85c-1.3 1.29-3.1 1.85-5.14 1.85h-6.98v-19.38h6.98c2.04 0 3.84.55 5.14 1.85 2.17 2.17 1.94 4.85 1.94 7.77 0 2.91.23 5.73-1.94 7.91zm-2.64-12.95c-.65-.79-1.52-1.21-2.82-1.21h-2.87v12.63h2.87c1.3 0 2.17-.42 2.82-1.2.7-.88.83-2.27.83-5.23 0-2.91-.13-4.16-.83-4.99zm-17.11 6.84v7.96h-3.75v-7.96l-5.83-11.42h4.12l3.61 7.81 3.56-7.81h4.11zm-17.12 8.14c-2.96 0-5.18-.64-7.08-2.54l2.45-2.45c1.25 1.25 2.87 1.62 4.68 1.62 2.22 0 3.42-.84 3.42-2.41 0-.69-.19-1.25-.6-1.62-.37-.37-.83-.55-1.71-.69l-2.36-.33c-1.67-.23-2.87-.74-3.75-1.61-.92-.93-1.39-2.18-1.39-3.84 0-3.47 2.55-5.88 6.76-5.88 2.68 0 4.62.65 6.29 2.27l-2.41 2.36c-1.25-1.16-2.68-1.34-3.98-1.34-2.03 0-3 1.11-3 2.45 0 .51.14 1.01.55 1.38.37.37 1.02.65 1.81.74l2.31.33c1.76.23 2.87.74 3.7 1.48 1.02.97 1.48 2.4 1.48 4.12.1 3.84-3.1 5.96-7.17 5.96zm-18.55 4.31v-8.38h3.89v5.37zm-7.22-12.45v7.96h-3.74v-7.96l-5.83-11.42h4.12l3.6 7.81 3.57-7.81h4.11zm-12.3 5.92c-1.53 1.62-3.42 2.22-5.46 2.22-2.13 0-3.88-.78-5.23-2.12-1.94-1.95-1.89-4.4-1.89-7.73s-.1-5.78 1.89-7.73c1.35-1.34 3.06-2.12 5.23-2.12 4.49 0 6.8 2.96 7.31 6.2h-3.79c-.42-1.81-1.58-2.83-3.47-2.83-1.02 0-1.9.42-2.41 1.02-.74.83-.92 1.71-.92 5.46s.18 4.67.92 5.46c.56.65 1.39 1.02 2.41 1.02 1.15 0 2.08-.42 2.68-1.11.6-.7.88-1.58.88-2.59v-.74h-3.56v-3.15h7.31v2.82c0 2.82-.56 4.49-1.9 5.92zm-17.21.1c-1.34 1.34-3.01 2.12-5.23 2.12-2.22 0-3.88-.78-5.27-2.12-1.94-1.95-1.9-4.4-1.9-7.73s0-5.78 1.9-7.73c1.34-1.34 3.05-2.12 5.27-2.12 2.22 0 3.89.74 5.23 2.12 1.94 1.95 1.94 4.4 1.94 7.73s0 5.74-1.94 7.73zm-2.82-13.19c-.56-.65-1.39-1.02-2.41-1.02-1.01 0-1.89.42-2.45 1.02-.74.83-.92 1.71-.92 5.46s.18 4.63.92 5.46c.56.65 1.44 1.02 2.45 1.02 1.02 0 1.9-.42 2.41-1.02.74-.83.97-1.71.97-5.46s-.23-4.67-.97-5.46zm-23.36 15.13v-19.38h3.79v16h8.79v3.38zm-5.27-1.94c-1.35 1.34-3.01 2.12-5.23 2.12-2.22 0-3.89-.78-5.27-2.12-1.95-1.95-1.9-4.4-1.9-7.73s-.1-5.78 1.9-7.73c1.38-1.34 3.05-2.12 5.27-2.12 2.22 0 3.88.74 5.23 2.12 1.94 1.95 1.94 4.4 1.94 7.73s0 5.74-1.94 7.73zm-2.78-13.19c-.55-.65-1.39-1.02-2.41-1.02-1.01 0-1.89.42-2.45 1.02-.74.83-.92 1.71-.92 5.46s.18 4.63.92 5.46c.56.65 1.44 1.02 2.45 1.02 1.02 0 1.9-.42 2.41-1.02.74-.83.97-1.71.97-5.46s-.23-4.67-.97-5.46zm-16.28 15.13l-7.68-11.89v11.89H311v-19.38h3.37l7.68 11.88v-11.88h3.79v19.38zm-19.25 0v-8.14h-6.57v8.14h-3.79v-19.38h3.79v7.91h6.57v-7.91h3.8v19.38zm-20.26.18c-2.13 0-3.88-.78-5.22-2.12-1.95-1.99-1.9-4.4-1.9-7.78 0-3.33 0-5.78 1.9-7.72 1.34-1.34 3.09-2.13 5.22-2.13 3.61 0 6.48 2.08 7.13 6.11h-3.84c-.37-1.58-1.34-2.73-3.29-2.73-1.02 0-1.89.37-2.4 1.02-.74.83-.97 1.75-.97 5.45s.23 4.68.97 5.46c.55.65 1.38 1.02 2.4 1.02 1.9 0 2.87-1.2 3.29-2.73h3.84c-.65 4.07-3.52 6.15-7.13 6.15zm-22.39-.18v-19.38h12.77v3.37h-8.97v4.54h7.68v3.37h-7.68v4.72h8.97v3.38zm-7.63-16.01v16.01h-3.79v-16.01h-5.09v-3.37h13.92v3.37zm-24.93 0v4.77h7.68v3.37h-7.68v7.87h-3.8v-19.38h12.77v3.37zm-9.02 14.07c-1.34 1.34-3.01 2.12-5.23 2.12-2.22 0-3.89-.78-5.27-2.12-1.95-1.95-1.9-4.4-1.9-7.73s-.1-5.78 1.9-7.73c1.34-1.34 3.05-2.12 5.27-2.12 2.22 0 3.89.74 5.23 2.12 1.94 1.95 1.94 4.4 1.94 7.73s0 5.74-1.94 7.73zm-2.83-13.19c-.55-.65-1.38-1.02-2.4-1.02s-1.9.42-2.45 1.02c-.74.83-.93 1.71-.93 5.46s.19 4.63.93 5.46c.55.65 1.43 1.02 2.45 1.02 1.02 0 1.9-.42 2.4-1.02.75-.83.98-1.71.98-5.46s-.23-4.67-.98-5.46zm-22.34 7.17v7.96h-3.74v-7.96l-5.83-11.42h4.11l3.61 7.81 3.56-7.81h4.12zm-15.03-8.05v16.01h-3.8v-16.01h-5.08v-3.37h13.92v3.37zm-15.17 16.01v-19.38h3.79v19.38zm-10.23.18c-2.96 0-5.18-.64-7.08-2.54l2.46-2.45c1.25 1.25 2.86 1.62 4.67 1.62 2.22 0 3.42-.84 3.42-2.41 0-.69-.18-1.25-.6-1.62-.37-.37-.83-.55-1.71-.69l-2.36-.33c-1.67-.23-2.87-.74-3.75-1.61-.92-.93-1.39-2.18-1.39-3.84 0-3.47 2.55-5.88 6.76-5.88 2.68 0 4.62.65 6.24 2.27l-2.4 2.36c-1.25-1.16-2.69-1.34-3.98-1.34-2.04 0-3.01 1.11-3.01 2.45 0 .51.19 1.01.56 1.38.37.37 1.02.65 1.8.74l2.31.33c1.76.23 2.87.74 3.71 1.48 1.01.97 1.48 2.4 1.48 4.12.1 3.84-3.06 5.96-7.13 5.96zm-12.3-.18l-3.8-7.73h-2.73v7.73h-3.79v-19.38h7.59c3.93 0 6.29 2.68 6.29 5.92 0 2.73-1.67 4.39-3.56 5.09l4.35 8.37zm-2.96-16.01h-3.57v5.14h3.57c1.66 0 2.77-1.07 2.77-2.55 0-1.52-1.11-2.59-2.77-2.59zm-23.27 16.01v-19.38h12.77v3.37h-8.98v4.54h7.68v3.37h-7.68v4.72h8.98v3.38zm-8.24 0h-2.82l-6.38-19.38h3.93l3.89 12.62 3.88-12.62h3.93zm-14.844 0v-19.38h3.793v19.38zm-7.356 0l-7.678-11.89v11.89h-3.794v-19.38h3.377l7.68 11.88v-11.88h3.792v19.38zm-22.296.18c-3.978 0-7.124-2.68-7.124-6.8v-12.76h3.793v12.62c0 2.22 1.295 3.57 3.33 3.57 2.036 0 3.378-1.35 3.378-3.57v-12.62h3.748v12.76c.05 4.07-3.146 6.8-7.124 6.8zm75.496-78.87c-4.77 0-8.14-4.16-8.14-4.16l-8.65-8.33 9.71-9.43 7.08 6.89 6.75-6.62V135.4h-6.71l-31.27 30.39s-2.08 2.73-6.612 2.73c-4.117 0-6.29-2.68-6.29-2.68l-9.993-9.81 9.345-9.11 7.17 6.98 28.59-27.8v-8.6h15.86V56.25H55.046v61.15h16.33v8.61l7.586 7.4s-9.483 9.25-9.39 9.11c.09-.1-7.356-7.17-7.356-7.17h-7.17v11.1l7.17 6.99 27.617-26.88c3.1-3 4.302-5.5 10.084-5.5 5.223 0 7.683 3.14 7.683 3.14l9.16 8.93-9.72 9.44c-.1 0-7.17-7.08-7.17-7.03L71.84 162.83s-3.238 4.16-9.575 4.16c-3.377 0-5.736-1.25-7.263-2.4v40.84h40.985L83.403 192.3c.05-.1 9.344-9.12 9.344-9.12l7.078 6.9 7.075-6.94 9.39 9.16-12.58 13.09h40.57v-40.25c-1.3 1.34-3.84 3.33-6.66 3.33zM99.732 62.078l1.938 1.757 10.78 10.5L99.917 86.55 87.38 74.336zm14.988 38.852h-7.63v19.29s-2.5-1.71-7.173-1.71c-4.626 0-7.216 1.62-7.216 1.62v-19.24h-7.678l-6.94 6.75-12.49-12.164 12.49-12.166 7.08 6.94h29.368l7.04-6.94 12.53 12.166-12.53 12.214zm-25.396 81.42s-3.655 4.35-7.864 4.35c-4.765 0-8.142-4.17-8.142-4.17l-8.557-8.37 9.345-9.11 7.124 6.94 7.076-6.89 9.344 9.11zm37.326 0s-3.65 4.35-7.86 4.35c-4.76 0-8.14-4.17-8.14-4.17l-8.56-8.37 9.35-9.11 7.12 6.94 7.08-6.89 9.34 9.11z"/></svg>