<svg xmlns="http://www.w3.org/2000/svg" viewBox="0 0 154.46 205.51"><path d="M12.8.02c-3.54 0-6.56 1.26-9.01 3.77C1.26 6.25 0 9.28 0 12.82v121.24c0 3.53 1.26 6.55 3.79 9.02 2.45 2.51 5.47 3.71 9.01 3.71h128.94c3.52 0 6.49-1.2 9.01-3.71 2.51-2.47 3.71-5.49 3.71-9.02V12.8c0-3.54-1.2-6.57-3.71-9.03l-.24-.22-.23-.23-.25-.22-.24-.2-.25-.22-.25-.18-.26-.19-.25-.19-.27-.17-.26-.17-.26-.16-.26-.15-.28-.14-.27-.13-.28-.14-.27-.11-.29-.12-.29-.11-.29-.1-.28-.1-.3-.1-.29-.1-.3-.1-.31-.1h-.3l-.32-.1H141.74zm0 4.06h128.77c2.4 0 4.47.83 6.11 2.53l.15.17.16.17.15.17.14.16.14.18.14.17.12.18.13.17.11.19.11.18.11.18.1.18.1.19.1.18.1.19.1.19.1.2.1.2.1.19.1.2.1.2.1.2.1.21.1.2V134.04c0 2.39-.89 4.48-2.59 6.18-1.64 1.7-3.71 2.51-6.11 2.51H12.8c-2.46 0-4.47-.81-6.17-2.51-1.7-1.7-2.53-3.79-2.53-6.18V12.8c0-2.4.83-4.43 2.53-6.19 1.7-1.7 3.71-2.53 6.17-2.53zm128.86 4.227H12.71c-1.26 0-2.4.45-3.29 1.33-.87.894-1.38 2.023-1.38 3.293v121.24c0 1.25.51 2.39 1.38 3.28.89.87 2.03 1.32 3.29 1.32h128.94c1.26 0 2.34-.45 3.27-1.32.89-.89 1.33-2.03 1.33-3.28V12.8c0-1.27-.44-2.4-1.33-3.29h.1l-.1-.1-.1-.1-.1-.102-.1-.1-.1-.1-.1-.1-.1-.1-.1-.1-.1-.103-.1-.1-.1-.1h-.2l-.1-.1H141.77zm-62.693 9.04l13.75 41.725h44.173L101.6 84.285l13.35 42.845-36.16-26.08-35.55 25.46 13.614-41.787-36.426-25.65h44.55zm-.063 14.626l-10.45 31.26H35.04l27.226 19.228-10.137 31.25 26.66-19.024 27.03 19.534-9.955-32.085 26.405-18.9H89.178zm-.06 11.412l7.76 23.562h24.946l-19.972 14.25L99.14 105.4 78.718 90.648l-20.04 14.362 7.626-23.563-20.55-14.5h25.214zM10.554 150.65l-.312.1-.3.1-.3.1-.3.1-.3.1-.29.1-.29.1-.28.1-.29.11-.28.12-.28.13-.28.14-.26.15-.28.15-.26.16-.26.16-.25.18-.26.17-.25.19-.25.2-.25.2-.24.21-.24.23-.24.22-.22.23C1.258 156.89 0 159.91 0 163.44v29.3c0 3.47 1.26 6.5 3.79 8.95 2.45 2.52 5.47 3.79 9.01 3.79h128.94c3.52 0 6.49-1.27 9.01-3.79 2.51-2.45 3.71-5.48 3.71-8.95v-29.3c0-3.53-1.2-6.55-3.71-9.01-2.52-2.52-5.49-3.78-9.01-3.78H10.86zm2.247 4.13h128.816c2.4 0 4.47.81 6.11 2.51 1.7 1.7 2.59 3.78 2.59 6.18v29.3c0 2.4-.89 4.42-2.59 6.11-1.64 1.71-3.71 2.53-6.11 2.53H12.68c-2.46 0-4.47-.82-6.17-2.53-1.7-1.69-2.53-3.71-2.53-6.11v-31.04l.1-.2v-.21l.1-.2.102-.2.102-.21.1-.19.1-.2.1-.2.1-.19.1-.19.103-.18.1-.19.1-.19.1-.19.11-.17.12-.18.12-.17.12-.18.14-.17.14-.16.13-.18.15-.16.15-.16.17-.17c1.7-1.7 3.71-2.51 6.168-2.51zm128.84 3.97l-128.84.12H10.91l-.1.1h-.202l-.1.1h-.1l-.1.1-.1.1-.102.1-.1.1-.1.1-.1.1-.1.1-.1.1-.1.1-.1.1c-.87.88-1.382 2.02-1.382 3.28v29.3c0 1.27.51 2.34 1.38 3.22.89.94 2.03 1.39 3.29 1.39H141.64c1.26 0 2.34-.45 3.27-1.39.89-.88 1.33-1.95 1.33-3.22v-29.3c0-1.26-.44-2.4-1.33-3.28-.93-.88-2.01-1.32-3.27-1.32zm-71.68 7.12h8.44l3.71 25.34h-5.66l-.5-4.73H72.6l-.5 4.73h-5.67zm14.55 0h10.03l3.9 3.65v6.62l-2.96 2.45 2.96 2.47v10.15h-5.66v-10.15h-2.47v10.15h-5.8zm-66.983 0h5.85v20.53h2.525v-20.5h5.864v21.61l-3.776 3.73h-6.562l-3.9-3.73zm28.287 0h6.19l4.086 3.65v4.47h-5.85v-3.4h-2.4v5.17l4.287.38 3.963 3.65v7.69l-3.836 3.73h-6.44l-3.775-3.73v-4.41h5.8v3.34h2.4v-5.29l-4.162-.31-4.04-3.67v-7.62zm55.586 0h6.81l2.08 12.22h.5l1.9-12.22h6.86v25.34h-5.29v-16.05H114l-2.45 16.08h-2.13l-2.47-16.08h-.25v16.08h-5.3zm20.55 0h5.74l2.07 9.14h.13l2.15-9.14h5.79l-5.04 14.67v10.67h-5.86v-10.67zm-31.64 4.69v5.74h2.47v-5.74zm-16.45.63l-.88 10.52h2.52l-1.07-10.52zm-40.145 15.09h5.86v4.93h-5.86zm24.4 0h5.787v4.93h-5.787z"/></svg>