<?xml version="1.0" encoding="UTF-8" standalone="no"?>
<svg
   xmlns:dc="http://purl.org/dc/elements/1.1/"
   xmlns:cc="http://creativecommons.org/ns#"
   xmlns:rdf="http://www.w3.org/1999/02/22-rdf-syntax-ns#"
   xmlns:svg="http://www.w3.org/2000/svg"
   xmlns="http://www.w3.org/2000/svg"
   version="1.1"
   id="svg16639"
   viewBox="0 0 102.7 44.9">
  <metadata
     id="metadata16647">
    <rdf:RDF>
      <cc:Work
         rdf:about="">
        <dc:format>image/svg+xml</dc:format>
        <dc:type
           rdf:resource="http://purl.org/dc/dcmitype/StillImage" />
        <dc:title></dc:title>
      </cc:Work>
    </rdf:RDF>
  </metadata>
  <defs
     id="defs16645" />
  <g
     id="g21124">
    <path
       d="m 6.6,2 0,28 c 0,5.33 1.727,8.89 5.6,9 5.26,-0.23 5.87,-3.91 5.9,-8.7 l 0,-28.3 4.4,0 0,28 C 22.38,37.25 20.28,42.65 12.1,42.9 3.693,43.08 2.017,36.81 2,30.1 l 0,-28 4.6,0 z m 20,0 4.9,0 5.4,14.4 L 42.5,2 47,2 39.1,20.4 48,42 42.8,42 36.4,25.4 30,42.1 l -4.5,0 8.8,-20.9 z m 29.9,19.9 3.8,0 c 4.99,0.1 6.58,-3.57 6.6,-7.8 0,-4.982 -2.27,-8.024 -7,-8.1 l -3.5,0 0,15.9 z M 51.9,2 59.7,2 c 5.37,-0.239 8.95,1.92 11,6.3 0.3,0.7 0.5,1.5 0.6,2.4 0.2,0.9 0.2,2 0.2,3.2 0,1.6 -0.2,3.1 -0.6,4.5 -0.4,1.4 -1,2.7 -1.9,3.8 -2.29,2.64 -5.58,3.48 -8.6,3.5 l -3.9,0 0,16.3 -4.6,0 z m 23.3,10.4 4.1,0 0,29.6 -4.1,0 z M 79.5,2 79.5,7.1 75,7.1 75,2 Z m 4.5,10.4 3.8,0 0,4.5 c 0.1,-0.3 0.3,-0.8 0.6,-1.4 0.3,-0.6 0.7,-1.2 1.2,-1.7 0.5,-0.6 1.2,-1.1 1.9,-1.5 0.8,-0.4 1.7,-0.6 2.8,-0.6 6.6,0.3 6.4,6.72 6.4,11.5 l 0,18.8 -4,0 0,-18.7 c 0,-3.23 -0.16,-7.34 -3.7,-7.8 -1.1,0 -1.9,0.3 -2.6,1 -0.6,0.7 -1.1,1.5 -1.4,2.4 -0.3,1 -0.5,2 -0.6,3.1 -0.1,1.1 -0.1,2.1 -0.1,2.9 l 0,17.1 -4.1,0 0,-29.6 z"
       id="path16641" />
  </g>
</svg>
