<svg xmlns="http://www.w3.org/2000/svg" viewBox="0 0 361.9 179.4"><path d="M254.4 68.1l1.3 3.51 1.2-3.51h1.4V73h-.9v-3.96L256.1 73h-.8l-1.4-3.96V73h-.9v-4.9h1.4zm-6.4.82v-.82h4.2v.82h-1.6V73h-1v-4.08H248zm-15.2 7.14h3.6v3.86q.4-1.13 2.1-2.74 1.8-1.63 4-1.63h.3q.3 0 .9.1v3.97q-.3-.1-.6-.1h-.6q-2.9 0-4.4 1.84-1.5 1.82-1.5 4.2v12.88h-3.8V76.06zm-10.5.1h3.8v22.28h-3.8V76.16zm0-8.42h3.8V72h-3.8v-4.26zm-15.6 18.12l-4.6-13.57-5 13.57h9.6zm-6.8-18.12h4.7l11.1 30.7h-4.5l-3.1-9.2h-12.2l-3.3 9.2h-4.3l11.6-30.7zm2.1 0zm-43.4 19.77q0 3.59 1.5 6.02 1.6 2.42 4.9 2.42 2.6 0 4.3-2.23 1.7-2.26 1.7-6.46 0-4.24-1.7-6.27-1.8-2.05-4.3-2.05-2.8 0-4.6 2.17-1.8 2.18-1.8 6.4zm5.7-11.85q2.6 0 4.3 1.08 1 .63 2.3 2.2V67.63h3.6v30.81h-3.4v-3.11q-1.3 2.06-3.1 2.98-1.8.92-4.1.92-3.8 0-6.5-3.13-2.8-3.16-2.8-8.38 0-4.89 2.5-8.47 2.5-3.59 7.2-3.59zm-30.2.4v14.86q0 1.71.5 2.8 1 2 3.7 2 4 0 5.4-3.51.8-1.88.8-5.16V76.06h3.7v22.38h-3.5v-3.3q-.7 1.27-1.8 2.15-2.2 1.76-5.2 1.76-4.8 0-6.5-3.2-1-1.72-1-4.58V76.06h3.9zm5.1-.55zM112 96.02q3.7 0 5.1-2.83 1.4-2.84 1.4-6.31 0-3.13-1-5.1-1.6-3.09-5.5-3.09-3.4 0-5 2.63-1.6 2.64-1.6 6.36 0 3.57 1.6 5.95 1.6 2.39 5 2.39zm.1-20.61q4.3 0 7.3 2.88 3 2.89 3 8.49 0 5.41-2.6 8.94-2.7 3.54-8.2 3.54-4.6 0-7.3-3.12-2.8-3.13-2.8-8.4 0-5.64 2.9-8.99 2.9-3.34 7.7-3.34zm-.1.1zm-19.65-7.77h3.76v30.7h-3.76v-30.7zm-17.83-.84q5.83 0 9.05 3.07 3.22 3.08 3.57 6.98h-4.05q-.69-2.96-2.76-4.7-2.05-1.73-5.77-1.73-4.53 0-7.33 3.19-2.78 3.18-2.78 9.76 0 5.4 2.5 8.76 2.53 3.35 7.53 3.35 4.6 0 7-3.54 1.27-1.86 1.9-4.89h4.06q-.55 4.85-3.6 8.13-3.66 3.95-9.86 3.95-5.35 0-8.99-3.24-4.79-4.28-4.79-13.23 0-6.79 3.6-11.14 3.89-4.72 10.72-4.72zm-.84 0zm-35.33 9.16l5.98 18.22 6.25-18.22h4.11l-8.44 22.38h-4.01l-8.26-22.38h4.37zM180.3 35c0-.1.1-.2.3-.2h.9c.3 0 .6 0 .8.2.1.2.2.4.2.6 0 .4-.2.7-.5.8l.4.5c0 .1.1.1.1.2 0 .2-.2.3-.3.3-.1 0-.2-.1-.3-.2l-.6-.7h-.4v.6c0 .2-.1.3-.3.3-.2 0-.3-.1-.3-.3V35zm1.2 1c.3 0 .4-.1.4-.4 0-.2-.2-.3-.4-.3h-.6v.7h.6m-2.8.1c0-1.5 1.2-2.7 2.6-2.7 1.6 0 2.7 1.2 2.7 2.7 0 1.5-1.1 2.7-2.7 2.7-1.5 0-2.6-1.2-2.6-2.7m4.8 0c0-1.2-.9-2.2-2.2-2.2-1.2 0-2.1 1-2.1 2.2 0 1.2.9 2.2 2.1 2.2 1.3 0 2.2-1 2.2-2.2M44.6 48.15l4.41-10.35c1.49-3.5 3.94-4.8 7.02-4.8 1.99 0 4.39 1.1 5.81 2.9 0 0 3.04-2.9 6.51-2.9 3.3 0 5.24 1.1 6.66 2.9 0 0 2.65-2.9 6.9-2.9 4.24 0 7.77 3.1 7.77 7.5v11.9c0 1.97-1.14 3.59-3.25 3.59-2.11 0-3.2-1.62-3.2-3.59V41.9c0-2-1.32-3.3-3.3-3.3-1.98 0-3.42 1.3-3.42 3.3v10.5c0 1.97-1.15 3.59-3.25 3.59-2.11 0-3.21-1.62-3.21-3.59V41.9c0-2-1.31-3.3-3.29-3.3s-3.43 1.3-3.43 3.3v10.5c0 1.97-1.14 3.59-3.24 3.59-2.11 0-3.21-1.62-3.21-3.59V39.6c0-.6-.44-1-.95-1-.62 0-.81.4-.87.6-.1.1-6.08 13.21-6.08 13.21-1.09 2.24-2.09 3.58-4.38 3.58-2.15 0-3.29-1.23-4.38-3.58L33.31 37.4c-.74-1.6-.13-3.4 1.51-4.1 1.65-.7 3.41 0 4.12 1.5l5.66 13.35m78.5 1.04v-.1c0-4.59 3.7-6.99 9.3-6.99 2.7 0 4.7.4 6.7.9v-.8c0-3.9-2.5-5.9-6.5-5.9-2.2 0-3.5.3-5.1 1-.2.1-.4.1-.6.1-.7 0-1.4-.6-1.4-1.4 0-.6.3-1 .9-1.3 2.1-.9 3.7-1.2 6.5-1.2 3.1 0 5.4.8 7 2.4 1.5 1.4 2.3 3.5 2.3 6.3v12c0 .92-.7 1.59-1.6 1.59-.9 0-1.5-.67-1.5-1.51V52.2c-1.6 1.98-4.1 3.75-7.9 3.75-4.1 0-8.1-2.31-8.1-6.78m16-1.68V45.4c-1.6-.5-3.8-.9-6.4-.9-4.1 0-6.4 1.7-6.4 4.46v.1c0 2.74 2.6 4.34 5.5 4.34 4 0 7.3-2.44 7.3-5.89m29.8 8.45c-5.9 0-10.7-4.56-10.7-11.26v-.1c0-6.2 4.4-11.2 10.3-11.2 6.3 0 9.9 5.2 9.9 10.9 0 .9-.7 1.5-1.5 1.5h-15.5c.5 4.72 3.8 7.36 7.6 7.36 2.6 0 4.6-1.05 6.1-2.51.3-.21.6-.38.9-.38.8 0 1.4.63 1.4 1.39 0 .37-.1.75-.5 1.04-2 1.96-4.4 3.26-8 3.26m6.3-12.46c-.3-4-2.6-7.4-6.8-7.4-3.7 0-6.5 3.1-7 7.4h13.8m-29.1 10.6c0 .93.7 1.65 1.6 1.65 1 0 1.6-.76 1.6-1.65v-7.39c0-6.31 3.5-9.51 7.7-10.01.9-.1 1.5-.7 1.5-1.6 0-.9-.7-1.6-1.6-1.6-2.4 0-6 1.7-7.6 5.3v-3.7c0-1-.7-1.7-1.6-1.7-.9 0-1.6.8-1.6 1.7v19m-48.21.21L91.27 35.9c-.1-.3-.21-.6-.21-.9 0-.8.68-1.5 1.64-1.5.85 0 1.39.5 1.65 1.3l5.48 15.87 5.47-15.87c.3-.8.8-1.3 1.6-1.3h.2c.9 0 1.5.5 1.7 1.3l5.5 15.87 5.5-15.97c.3-.7.7-1.2 1.6-1.2.9 0 1.6.7 1.6 1.5 0 .3-.1.6-.2.9l-6.7 18.41c-.3.97-1 1.47-1.7 1.47h-.2c-.8 0-1.4-.5-1.7-1.47L107 38.7l-5.4 15.61c-.3.97-1 1.47-1.82 1.47h-.1c-.79 0-1.47-.5-1.8-1.47M276 121.7c-.7-.4-1.5-1-2.4-1.6-2.2-1.5-4.5-3.6-5.9-5.1-.2-.2-.3-.4-.5-.6-.8-1-2.3-1.1-3.3-.2-1 .8-1.1 2.3-.2 3.2.2.3.3.5.5.7l2.1 2.1c2.2 2.1 5.2 4.3 7.5 5.6.4.2.8.3 1.1.3.9 0 1.7-.5 2.1-1.3.6-1.1.2-2.5-1-3.1m13.1 20h-.1c-.9 0-1.8-.2-2.6-.5-2.3-1.1-3.8-3.3-3.9-5.9 0-2.6 1.6-4.9 3.8-6 .8-.3 1.7-.5 2.7-.6 3.6 0 6.5 2.9 6.5 6.5.1 3.5-2.8 6.5-6.4 6.5zm-2.9-39.9c-2.2-1-3.8-3.22-3.8-5.82 0-1.48.4-2.85 1.3-3.95.6-.87 1.5-1.57 2.5-2.03.8-.37 1.7-.59 2.7-.6 2.1 0 4 1.02 5.1 2.59.9 1.07 1.4 2.39 1.4 3.83 0 3.58-2.9 6.48-6.4 6.58h-.1c-1 0-1.9-.2-2.7-.6zm5.1 22.5v-9.2l-.1-8.3c5.1-1.1 8.9-5.7 8.8-11.04 0-1.33-.2-2.6-.7-3.79a11.23 11.23 0 0 0-10.6-7.24c-.8 0-1.7.14-2.5.35-3.6.9-6.5 3.54-7.8 6.97-.5 1.24-.7 2.58-.7 3.98.1 5.17 3.7 9.57 8.5 10.67.2 0 .3.1.4.1v17.5c-.1 0-.2.1-.3.1-4.9 1.3-8.5 5.7-8.4 11 0 5.2 3.7 9.5 8.5 10.7.8.2 1.7.3 2.7.3h.1c6.1 0 11.1-5.1 11-11.3 0-.4-.1-.9-.1-1.3-.6-4.7-4.2-8.5-8.8-9.4m29.3-38.84c-1.2-3.71-3.1-7.19-5.6-10.33-.2-.29-.5-.5-.8-.64-.8-.38-1.7-.31-2.5.27-1 .8-1.1 2.27-.3 3.28 1.1 1.38 2 2.86 2.8 4.39 1.2 2.17 2 4.46 2.6 6.84.2.84.3 1.68.4 2.54.2 1.07.3 2.15.3 3.25v.4c.1 4.74-1.1 9.44-3.2 13.54-2.3 4.4-5.7 8.2-10 10.9l-1.5.9c-1.1.6-1.5 2-.9 3.2.5.7 1.3 1.2 2.1 1.2.4 0 .8-.1 1.1-.3 2.5-1.4 4.8-3.1 6.8-5 .8-.9 1.7-1.7 2.5-2.7 4.2-4.9 6.9-11.1 7.6-17.7.1-1.35.2-2.72.2-4.1 0-1.22-.1-2.42-.2-3.61-.3-2.17-.8-4.28-1.4-6.33m-2.2-26.13c-1.7 0-3.2-.68-4.3-1.78-1-1.05-1.6-2.48-1.7-4.06 0-1.56.6-3.05 1.7-4.17 1.1-1.13 2.6-1.76 4.2-1.78 3.2 0 5.9 2.61 5.9 5.83.1 3.26-2.5 5.94-5.8 5.98zM246 120.2c-1.1 1.6-2.8 2.6-4.8 2.6h-.1c-2 0-3.8-1-4.9-2.5-.6-1-1-2.1-1-3.3 0-.7.1-1.5.4-2.2.3-.7.7-1.4 1.3-2 .6-.6 1.3-1 2-1.3.7-.3 1.4-.4 2.2-.5 3.2 0 5.9 2.6 5.9 5.9 0 1.2-.4 2.4-1 3.3zm82.3-70.31c-1.1-2.9-3.4-5.19-6.4-6.29-1.1-.4-2.4-.7-3.7-.6-1.4 0-2.8.3-4.1.8-1.2.6-2.4 1.4-3.3 2.3-2 2.06-3.1 4.73-3 7.55 0 2.7 1.1 5.15 2.8 7l-2.3 3.23-1.7 2.55-6.7 10.19c-.7-.38-1.4-.72-2.1-1.03a22.19 22.19 0 0 0-9-1.9h-.1c-.8 0-1.7.1-2.6.19-4.9.61-9.5 2.82-13 6.41-3.2 3.27-5.3 7.37-6.1 11.8-.2 1.29-.3 2.6-.3 3.94 0 1.78.2 3.55.7 5.27.1.4.2.9.4 1.4l-9.6 4.2-8.6 3.8c-1.5-2-3.5-3.4-5.9-4-.9-.2-1.8-.3-2.7-.3-2.9 0-5.5 1.1-7.5 3.2-1.9 2-3 4.6-3 7.5 0 .8.2 1.7.4 2.5 0 .2.1.5.2.7l.6 1.5c1.1 2 2.6 3.5 4.6 4.5 1.4.8 3.1 1.2 4.8 1.2h.1c4.7-.1 8.6-3.1 9.9-7.3.4-1.1.6-2.2.6-3.4 0-.6-.1-1.3-.2-1.9l6.7-2.9 11.4-5c.7 1.1 1.5 2.2 2.4 3.3 2 2.3 4.4 4.2 7.1 5.5.9.5 1.9.3 2.6-.3.2-.2.4-.4.5-.7.6-1.2.1-2.6-1-3.1-2.2-1.1-4.1-2.6-5.7-4.5-1-1.1-1.8-2.3-2.4-3.7 0-.2-.1-.4-.2-.6 0-.1-.2-.3-.3-.4-.8-2.1-1.2-4.27-1.3-6.5 0-1.34.2-2.65.5-3.92.7-3.19 2.3-6.13 4.6-8.51 2.7-2.69 6.1-4.4 9.7-4.97.9-.14 1.8-.23 2.7-.24 4.7 0 9.1 1.78 12.4 5.07 2.4 2.37 4 5.31 4.7 8.52.3 1.25.5 2.53.5 3.85 0 1.59-.2 3.14-.6 4.6-1.3 4.9-4.7 9.1-9.5 11.4-1.1.5-1.6 1.9-1.1 3.1.4.8 1.3 1.3 2.1 1.3.4 0 .7-.1 1-.2 7.8-3.7 12.8-11.6 12.8-20.23 0-.21 0-.41-.1-.62 0-1.09-.1-2.16-.3-3.22-.3-1.77-.8-3.47-1.6-5.09-1.1-2.48-2.6-4.77-4.6-6.73-.3-.27-.6-.5-.9-.75l6.8-10.32 3.6-5.18.2-.2.2-.34c.5.23 1.1.4 1.7.53.8.16 1.5.25 2.3.25h.1c.7 0 1.5-.11 2.2-.26 4.7-1.08 8.3-5.37 8.2-10.44 0-1.23-.2-2.41-.6-3.51m-70.2 51.61c-1.2 0-2.3-.9-2.4-2.14 0-.77-.1-1.56-.1-2.34-.2-18.73 14.8-34.14 33.6-34.37 3.4-.1 6.7.41 9.9 1.36 1.3.36 2 1.67 1.6 2.91-.3 1.25-1.6 1.97-2.9 1.6-2.8-.81-5.7-1.19-8.6-1.17-16.1.19-29.1 13.48-28.9 29.61 0 .67.1 1.35.1 2.03.1 1.31-.8 2.41-2.1 2.51h-.2"/></svg>