<svg xmlns="http://www.w3.org/2000/svg" viewBox="0 0 300 101.25"><path d="M138.91 41.148h29.9c-.1 2.73 0 5.46-.1 8.19-.34.69-.94 1.21-1.42 1.8-5.14 5.67-10.15 11.46-15.32 17.11 5.86.11 11.73 0 17.59.1v8.64c-10.23-.1-20.45-.1-30.68 0v-8.3c5.34-6.01 10.7-12 16.11-17.95.16-.31.81-.6.47-1-5.51.16-11.03 0-16.54.1-.1-2.88 0-5.77 0-8.65m-14.07 0c3.69-.1 7.39 0 11.08 0-.1 11.93 0 23.87 0 35.81h-11.06v-35.77m-25.51-.06h10.55c0 2.01 0 4.02-.11 6.03.92-1.01 1.56-2.23 2.51-3.22 2.38-2.59 6.23-3.67 9.62-2.77v9.44c-2.71-.31-5.7-.19-8 1.45-2.46 1.73-3.55 4.84-3.52 7.75v17.1H99.37v-35.79m-73.44 0h11.41c2.28 7.7 4.75 15.34 6.93 23.05 2.64-7.58 4.68-15.38 7.14-23.03 3.68-.1 7.37 0 11.05 0-4.21 11.9-8.33 23.84-12.47 35.77-3.81 0-7.63-.1-11.44 0-4.33-11.89-8.21-23.95-12.62-35.81m198.41 1.41c3.64-2.87 8.86-3.18 13.07-1.45 3 1.29 5.27 3.95 6.3 7.02 1.18 3.16.83 6.58.87 9.87v18.92c-3.67.1-7.34 0-11.01 0v-21.66c0-1.87-.7-3.87-2.26-5.01-2.33-1.61-5.78-1.3-7.79.71-1.58 1.6-2.29 3.91-2.25 6.13v19.84c-3.62-.1-7.25 0-10.87 0v-35.78h10.64c-.1 1.65-.1 3.29-.1 4.94 1.1-1.22 2.03-2.61 3.39-3.58m-38.11 6.17c-3.13 1.09-4.55 4.48-5.01 7.51-.36 3.82-.31 8.11 2.18 11.28 2.65 3.45 8.51 3.35 11.17 0 2.23-2.76 2.53-6.52 2.32-9.93-.17-3-1.19-6.23-3.72-8.05-2.01-1.38-4.69-1.59-6.94-.77m-1.27-8.17c5.93-1.06 12.49.18 17.03 4.3 7.78 6.9 8.11 20.3.9 27.71-5.7 5.94-15.27 7.05-22.59 3.69-5.66-2.55-9.52-8.34-10.18-14.46-.27-3.53-.12-7.22 1.36-10.5 2.22-5.62 7.56-9.75 13.48-10.74m-109.69 8.11c-2.45 1.17-3.67 3.82-4.21 6.36h14.72c-.32-1.97-.99-4-2.5-5.39-2.1-2.02-5.45-2.08-8.01-.97m-5.86-6.24c7.51-4.26 18.42-2.8 23.5 4.55 3.11 4.34 3.99 9.86 3.96 15.1-8.63.1-17.25 0-25.87 0 .39 2.67 1.54 5.47 4 6.86 3.49 2.03 9.01 1.46 10.78-2.6 3.53-.12 7.07-.1 10.62 0-1.12 4.07-4.06 7.5-7.8 9.42-4.02 2.2-8.81 2.63-13.28 1.88-4.69-.76-9.1-3.41-11.75-7.39-2.89-4.21-3.68-9.57-3-14.56.71-5.46 3.96-10.64 8.84-13.31m55.5-14.01h11.03c-.1 3.27 0 6.56 0 9.83h-11.06c.1-3.27 0-6.55.1-9.82m143.4-5.12c1.9-.12 3.8-.1 5.7-.1-5.71 11.92-11.21 23.94-16.81 35.91h-4.63c-2.58-6.03-5.55-11.9-8.23-17.88 1.85 0 3.71-.1 5.56 0 1.61 3.68 3.5 7.25 4.97 10.99 4.49-9.65 9.11-19.23 13.44-28.94"/></svg>