<svg xmlns="http://www.w3.org/2000/svg" viewBox="0 0 512 128"><path d="M70.38 49.44c-1.62 0-2.95-.55-4.08-1.67-1.12-1.12-1.67-2.44-1.67-4.08 0-1.63.55-2.95 1.67-4.08 1.13-1.12 2.46-1.66 4.08-1.66 1.56 0 2.84.54 3.97 1.66 1.11 1.13 1.65 2.46 1.65 4.08 0 1.64-.54 2.96-1.65 4.08-1.13 1.12-2.41 1.67-3.97 1.67M34.19 115.8c-4.57 0-9.52-5.7-14.29-16.67-4.25-9.78-6.9-19.52-7.88-28.95-.13-1.33.32-2.5 1.38-3.59 1.09-1.11 2.31-1.67 3.76-1.67 3.11 0 4.7 1.62 5.14 5.25.57 4.81 1.59 9.76 3.02 14.67 1.65 5.81 3.48 10.9 5.41 15.14 2.85 6.42 4.38 7.32 5.58 7.32 1.14 0 2.31-1 4.96-6.5 2.09-4.46 4.08-9.78 5.91-15.81 1.33-4.32 2.59-10.26 3.76-17.63.26-1.7 1.16-2.44 3.03-2.44.89 0 2.06.13 2.57.74.32.37.44.96.34 1.75-1.22 10.51-4.34 21.3-9.23 32.07C41.5 113 36.94 115.8 34.19 115.8m36.13 0c-1.38 0-2.59-.5-3.57-1.4-.99-1-1.49-2.2-1.49-3.5V70.04c0-1.45.5-2.63 1.51-3.63.98-.99 2.15-1.49 3.55-1.49 1.41 0 2.6.5 3.64 1.51 1.05.98 1.56 2.16 1.56 3.61v40.86c0 1.3-.51 2.5-1.56 3.5-1.04 1-2.23 1.4-3.64 1.4m78.38 0c-2.7 0-5.4-.6-8.2-1.8-3.2-1.4-5.7-3.3-7.3-5.7-2.3-3.1-3.4-7.7-3.3-13.6V72.91c0-.99-.6-1.7-1.6-1.7h-4.4c-.9 0-1.5-.18-1.9-.51-.2-.18-.5-.28-.7-.28h-.2c-.4.1-.6.25-.8.56-.1.1-.1.19-.1.27-.4.63-.9.92-1.6.92-.3 0-.6 0-1-.18-1.1-.5-2.2-.95-3.4-1.41-1.5-.68-3.3-1.03-5.3-1.03-4.1 0-6.9 1.53-8.3 4.54-1.33 2.75-1.96 7.15-1.96 13.41v23.4c0 1.3-.5 2.5-1.49 3.5-1.02 1-2.22 1.4-3.71 1.4-1.4 0-2.56-.4-3.57-1.4-1.01-1-1.51-2.2-1.51-3.5V85.14c0-13.63 6.2-20.26 18.94-20.26 6 0 10.2 1.03 12.4 3.02.2.17.5.27.7.27h.3c.4-.1.7-.37.8-.72.2-.69.6-1.38 2.3-1.38h4.5c.9 0 1.6-.68 1.6-1.59v-8.83c0-1.4.5-2.55 1.5-3.6 1-1.04 2.2-1.54 3.5-1.54 1.3 0 2.4.5 3.4 1.54 1 1.05 1.5 2.22 1.5 3.6v8.83c0 .93.6 1.59 1.6 1.59h8.6c1.7 0 2.5.75 2.5 2.63 0 1.82-.7 2.52-2.5 2.52h-8.5c-1 0-1.7.69-1.7 1.7v17.54c0 9.74.8 12.64 1.5 13.94 2 4.2 5.6 6.8 10.7 7.6 2 .4 2 1.3 2 1.8 0 .8-.2 1.6-2 1.8-.9.2-2 .2-3.3.2m30.3 0c-6.5 0-11.7-1.9-15.6-5.9-3.6-3.8-5.4-8.3-5.4-13.92V69.92c0-1.35.5-2.49 1.5-3.5 1-.99 2.2-1.49 3.6-1.49 1.5 0 2.6.5 3.7 1.49 1 1 1.5 2.15 1.5 3.5v22.7c0 5.88.3 9.88 1.1 12.18 1.6 4.3 4.9 6.6 9.6 6.6 4.8 0 8.1-2.3 9.5-6.7.8-2.3 1.2-6.22 1.2-12.08v-22.7c0-1.35.5-2.5 1.6-3.48 1-1.01 2.2-1.51 3.6-1.51s2.6.5 3.6 1.49c1 1.01 1.5 2.15 1.5 3.5v26.06c0 5.62-1.8 10.12-5.4 13.82-3.9 4-9.1 6-15.6 6m44.1 0c-6.6 0-11.7-.9-15.2-2.7-.9-.4-1.2-1.1-1.2-2.1 0-.5.1-.9.3-1.4.7-1 1.4-1.1 1.9-1.1.4 0 1 .1 1.6.4 4 1.7 8 2.5 12 2.5 2.6 0 4.8-.5 6.7-1.6 2.5-1.5 3.7-3.7 3.7-6.5 0-2.3-1.7-4.29-5.3-6.13l-8.2-4.21-1.4-.69c-3.1-1.59-5.4-3.07-6.7-4.38-2.8-2.72-4.1-5.91-4.1-9.78 0-3.81 1.6-6.87 4.8-9.36 3.3-2.52 7.7-3.82 13-3.82 4.8 0 9.2.75 13 2.26 2.2.85 2.4 1.99 2.4 2.8 0 .44-.1.83-.4 1.2-.7 1.01-1.4 1.14-1.8 1.14-.4 0-.8-.1-1.2-.27-4.5-1.74-8-2.59-10.7-2.59-8.5 0-10.2 4.11-10.2 7.55 0 2.55 1.8 4.86 5.4 6.9 3 1.33 6.1 2.7 9.1 4.13 4 1.92 6.9 3.77 8.5 5.46 2 2.21 2.9 4.96 2.9 8.39 0 4.2-1.7 7.5-5.4 10.1-3.6 2.5-8.2 3.8-13.5 3.8m49.3 0c-2.6 0-5.4-.6-8.2-1.8-3.1-1.5-5.6-3.3-7.3-5.7-2.2-3.1-3.3-7.7-3.2-13.59V72.92c0-.99-.7-1.7-1.6-1.7h-4.4c-1.9 0-2.6-.74-2.6-2.52 0-1.88.7-2.63 2.5-2.63h4.5c.9 0 1.6-.68 1.6-1.59v-8.83c0-1.4.4-2.57 1.4-3.6 1.1-1.04 2.2-1.54 3.6-1.54 1.2 0 2.4.5 3.3 1.54 1.1 1.05 1.5 2.22 1.5 3.6v8.83c0 .95.7 1.59 1.6 1.59h8.6c1.8 0 2.5.75 2.5 2.63 0 1.82-.6 2.52-2.4 2.52h-8.6c-1 0-1.7.71-1.7 1.7v17.54c0 9.74.9 12.64 1.5 13.94 2.1 4.2 5.7 6.8 10.8 7.6 1.9.4 1.9 1.3 1.9 1.8 0 .8-.1 1.6-1.9 1.8-.9.2-2 .2-3.4.2m15 0c-1.5 0-2.6-.4-3.6-1.4-1-1-1.5-2.2-1.5-3.5V85.19c0-13.63 6.2-20.26 18.9-20.26 6.2 0 10.5 1.11 12.7 3.26.6.59 1.1 1.44.2 3.08-.4.66-.9.95-1.6.95-.3 0-.6 0-1-.18-1.1-.5-2.2-.95-3.4-1.41-1.5-.68-3.3-1.03-5.3-1.03-4.1 0-6.9 1.53-8.3 4.54-1.3 2.75-2 7.13-2 13.41v23.35c0 1.3-.4 2.5-1.5 3.5-1 1-2.2 1.4-3.6 1.4m48.5 0c-6.7 0-12-2.1-15.9-6.3-4.2-4.5-6.3-10.9-6.3-19.09 0-8.08 2.7-14.58 7.9-19.32 4.5-4.07 10-6.16 16.4-6.16 5.1 0 9 1.48 11.8 4.48 2.4 2.61 3.5 5.65 3.5 9.29 0 5.27-2.2 9.17-6.8 11.96-3.9 2.28-9.1 3.52-15.3 3.7-.4 0-.8-.1-1.3-.6-.6-.49-.6-.93-.6-1.2 0-.72.2-1.17.9-1.49.1-.1.7-.23 2.7-.53 9.9-1.67 11.9-7.73 11.9-12.51 0-5.59-2.7-8.67-7.6-8.67-3.4 0-6.3 1.6-8.6 4.78-2.9 3.82-4.4 9.28-4.4 16.19 0 6.88 1.7 12.27 4.9 15.97 2.6 3 5.7 4.5 9.1 4.5 3.4 0 7-.7 10.7-2.1l1.3-.4c1 .1 1.6.4 2 1.3l.1.1c.2.3.3.7.3 1.1 0 .7-.2 1.6-1.9 2.4-3.5 1.7-8.5 2.6-14.8 2.6m40.9 0c-5.5 0-9.7-1.6-13-5-3-3-4.4-6.5-4.4-10.8 0-5.51 2.1-9.66 6.6-12.61 3.6-2.43 8-3.66 13-3.66 1 0 1.9 0 2.7.11 1.5.13 1.9.72 1.9 1.65 0 .79-.3 1.55-2 1.79-10.8 1.31-13.1 7.74-13.1 12.92 0 2.7.7 5.1 2 7.1 1.6 2.7 4 4 7.1 4 7.1 0 10.6-7 10.6-20.65 0-6.2-.4-10.53-1.4-13.25-1.8-5.02-5.6-7.54-11.2-7.54-1.8 0-4.1.4-6.8 1.22-3.2.94-4 1.1-4.2 1.14-1.2 0-1.9-.48-2.3-1.53-.5-1.41-.1-2.36 1.6-3.16 3.6-1.74 8.7-2.6 15.1-2.6 8.1 0 13.4 2.45 16.3 7.53 2.1 3.85 3.2 10.43 3.2 19.55 0 16.09-7.1 23.79-21.7 23.79m97.8 0c-1.5 0-2.7-.4-3.7-1.4-1-1-1.5-2.2-1.5-3.6V88.59c0-6.48-.4-10.75-1.2-13.03-1.3-3.81-4.4-5.83-9-5.83-4.5 0-7.6 2.01-9 5.81-.7 2.3-1.1 6.57-1.1 13.05v22.21c0 1.4-.5 2.6-1.6 3.6-1 1-2.2 1.4-3.6 1.4s-2.6-.4-3.6-1.4c-1-1-1.5-2.2-1.5-3.6V88.59c0-6.47-.4-10.74-1.1-13.03-1-2.67-3.4-5.83-9.2-5.83-4.6 0-7.7 2.01-9.1 5.81-.8 2.3-1.1 6.57-1.1 13.05v22.21c0 1.4-.5 2.6-1.5 3.6-1.1 1-2.3 1.4-3.7 1.4-1.4 0-2.6-.4-3.6-1.4-1-1-1.5-2.2-1.5-3.5V84.95c0-5.73 1.7-10.45 4.9-14.05 3.6-3.95 8.8-5.97 15.5-5.97 6.8 0 11.5 2.28 14.5 6.97.2.3.5.49.9.49s.7-.19.9-.48c3.2-4.7 7.9-6.98 14.5-6.98 6.7 0 11.9 2.02 15.5 5.97 3.3 3.58 5 8.32 5 14.05v25.95c0 1.3-.5 2.5-1.5 3.5s-2.2 1.4-3.6 1.4m19.6-9.2c0 1.3-.7 2.2-2.2 2.5.5.7 1.1 1.4 1.9 1.9.2.1.3.3.3.6 0 .5-.3.8-.8.8s-1.1-.5-2-1.5c-.8-.9-1.2-1.6-1.2-2 0-.2.1-.4.4-.5.2 0 .4-.1.7-.1.8-.2 1.3-.8 1.3-1.7 0-1.2-.4-1.8-1.3-1.8-.8 0-1.3.7-1.3 2.1v4.7c0 .5-.2.8-.8.8-.5 0-.8-.3-.8-.8v-4.8c0-1 .3-1.8.9-2.3.5-.5 1.2-.7 2.1-.7.8 0 1.5.2 2.1.7.5.5.7 1.2.7 2.1m3.7 1.5c0-1.9-.7-3.4-1.9-4.7-1.3-1.3-2.9-1.9-4.7-1.9-1.8 0-3.3.6-4.6 1.9-1.3 1.3-1.9 2.8-1.9 4.7 0 1.8.6 3.3 1.9 4.6 1.3 1.3 2.8 2 4.6 2 1.8 0 3.4-.7 4.7-2 1.2-1.3 1.9-2.8 1.9-4.6m1.2 0c0 2.1-.7 3.9-2.3 5.5-1.5 1.5-3.3 2.2-5.5 2.2-2.1 0-3.9-.7-5.5-2.2-1.5-1.6-2.3-3.4-2.3-5.5 0-2.2.8-4 2.3-5.5 1.6-1.5 3.4-2.3 5.5-2.3 2.2 0 4 .8 5.5 2.3 1.6 1.5 2.3 3.3 2.3 5.5M315.4 40.71c0 2.68-2.1 4.86-4.8 4.86-2.7 0-4.9-2.18-4.9-4.86V24.06c0-2.7 2.2-4.88 4.9-4.88s4.8 2.18 4.8 4.88zm-12.9 5.74c0 2.69-2.2 4.87-4.9 4.87s-4.9-2.18-4.9-4.87V29.81c0-2.7 2.2-4.89 4.9-4.89s4.9 2.19 4.9 4.89zm-13 7.29c0 2.72-2.2 4.88-4.9 4.88s-4.9-2.16-4.9-4.88V37.11c0-2.7 2.2-4.88 4.9-4.88s4.9 2.18 4.9 4.88zm-13-9.39c0 2.68-2.2 4.88-4.9 4.88s-4.9-2.2-4.9-4.88V27.7c0-2.68 2.2-4.88 4.9-4.88s4.9 2.2 4.9 4.88zm-13-10.82c0 2.68-2.2 4.86-4.9 4.86s-4.9-2.18-4.9-4.86V16.88c0-2.7 2.2-4.88 4.9-4.88s4.9 2.18 4.9 4.88zm-13.1 10.48c0 2.7-2.2 4.88-4.8 4.88-2.7 0-4.9-2.18-4.9-4.88V27.36c0-2.68 2.2-4.86 4.9-4.86 2.6 0 4.8 2.18 4.8 4.86zm-13-5.94c0 2.68-2.2 4.87-4.9 4.87-2.6 0-4.8-2.19-4.8-4.87V21.42c0-2.69 2.2-4.88 4.8-4.88 2.7 0 4.9 2.19 4.9 4.88zm-13 9.01c0 2.68-2.2 4.88-4.9 4.88-2.6 0-4.8-2.2-4.8-4.88V30.45c0-2.7 2.2-4.88 4.8-4.88 2.7 0 4.9 2.18 4.9 4.88zm-13 6.79c0 2.68-2.2 4.87-4.9 4.87s-4.9-2.19-4.9-4.87V37.22c0-2.69 2.2-4.86 4.9-4.86s4.9 2.17 4.9 4.86zm0 0"/></svg>