<svg xmlns="http://www.w3.org/2000/svg" viewBox="0 0 680 770"><path d="M377.3 66.78c-.7-2.06-2.2-3.57-3.4-4.73-9.1-8.61-22.9-8.32-33.9-8.42-14.5-.15-23 .93-31.6 7.36-3.9 2.93-7 9.9-8.8 14.93l-21.5 70.98c16 5.2 37.6 8.4 61.4 8.4 24.3 0 46.2-3.4 62.2-8.8m36.8 119.6c-24.1 12.2-58.9 19.9-97.4 19.9-39.5 0-74.8-8.1-98.9-20.7l-37.1 122.5c31.5 25.3 80.5 41.6 135.5 41.6 54.9 0 103.8-16.2 135.3-41.4m34.3 111.6c-41.3 35-102 57.2-169.8 57.2-67.5 0-128.1-21.9-169.4-56.7l9.3-30.5h-48.6c-8.8 0-17.8 6.7-20.3 15l-60.99 202c0 .2-.1.4-.13.6-.31.7-.59 1.3-.8 2.1-1.74 5.7-2.41 14.2.72 19.4 2.28 3.7 5.29 7.6 9.68 7.6 191.02 0 402.12.2 550.62.6 5.1 0 14.6-.8 18.5-6.3 2.2-3.3 3.2-8.7 3.1-14 .7-1.8.8-4 .1-6.3L569 481.1c-1.9-6.5-8.7-11.5-15.4-11.5H501z"/></svg>