<svg xmlns="http://www.w3.org/2000/svg" version="1" viewBox="0 0 779 127"><path d="M760.04 20.39c1.44 0 2.23-.744 2.23-1.875v-.07c0-1.24-.87-1.898-2.23-1.898h-2.94v3.814zm-4.37-6.442h4.52c1.72 0 3.08.487 3.87 1.36.79.73 1.22 1.785 1.22 3.014v.07c0 2.087-1.08 3.362-2.66 4.03 0 0 2.73 3.133 2.73 3.577 0 .807-.72 1.343-1.36 1.343-.72 0-1.08-.33-1.44-.75L759.68 23h-2.29v2.89c0 .81-.72 1.453-1.44 1.453-.86 0-1.5-.646-1.5-1.454V15.435c0-1.07.71-1.49 1.22-1.49zm15.13 6.904v-.07c0-6.14-4.81-11.175-11.12-11.175-6.24 0-11.04 5.12-11.04 11.214v.07c0 6.13 4.73 11.166 11.04 11.166 6.24 0 11.12-5.12 11.12-11.235m-24.74.09v-.09c0-7.466 6.02-13.752 13.62-13.752 7.75 0 13.7 6.224 13.7 13.694v.07c0 7.495-6.02 13.782-13.7 13.782-7.67 0-13.62-6.203-13.62-13.69M35.21 14.306C31.588 6.36 22.63 2.758 14.268 6.48c-8.37 3.72-11.452 13-7.67 20.96l35.11 76.31c5.527 11.97 11.348 18.24 22.268 18.24 11.67 0 16.758-6.83 22.273-18.24 0 0 30.632-66.687 30.932-67.377.29-.71 1.3-2.865 4.41-2.848 2.64 0 4.86 2.126 4.86 4.94v65.225c0 10.05 5.57 18.3 16.3 18.3 10.72 0 16.51-8.25 16.51-18.3V50.33c0-10.294 7.38-16.97 17.43-16.97s16.74 6.908 16.74 16.97v53.36c0 10.05 5.59 18.3 16.3 18.3 10.72 0 16.54-8.25 16.54-18.3V50.33c0-10.294 7.35-16.97 17.41-16.97 10.03 0 16.75 6.908 16.75 16.97v53.36c0 10.05 5.58 18.3 16.3 18.3 10.71 0 16.52-8.25 16.52-18.3V42.957C293.25 20.633 275.31 5 253.71 5c-21.57 0-35.08 14.926-35.08 14.926-7.18-9.313-17.08-14.912-33.84-14.912-17.67 0-33.14 14.912-33.14 14.912-7.19-9.313-19.43-14.912-29.55-14.912-15.67 0-28.106 6.892-35.702 24.245L63.975 82.114 35.21 14.305m509.31 64.536V68.143c-8.14-2.354-19.07-4.725-32.54-4.725-20.73 0-32.3 9.007-32.3 22.904v.432c0 13.898 12.83 22.038 27.82 22.038 20.31 0 37.02-12.42 37.02-29.95m-81.53 8.564v-.43c0-23.32 19.26-35.74 47.28-35.74 14.13 0 24.18 1.926 34.05 4.72V52.09c0-19.89-12.23-30.173-32.97-30.173-11.14 0-17.61 1.418-25.75 5.043-1.07.43-2.14.653-2.98.653-3.85 0-7.29-3.22-7.29-7.064 0-3.416 1.49-5.528 4.51-6.863 10.88-4.727 19.1-6.3 33.22-6.3 15.62 0 27.6 4.05 35.71 12.188 7.5 7.49 11.36 18.19 11.36 32.31v61.055c0 4.7-3.42 8.13-7.94 8.13-4.69 0-7.87-3.43-7.87-7.71V102.8c-7.71 10.07-20.57 19.05-40 19.05-20.57 0-41.33-11.77-41.33-34.438m265.21-29.14c-1.65-19.975-13.02-37.38-34.68-37.38-18.93 0-33.23 15.917-35.3 37.38zM696.05 121.8c-29.86 0-54.26-23.17-54.26-57.148v-.444c0-31.633 22.09-57.133 52.16-57.133 32.17 0 50.46 26.536 50.46 55.654 0 4.468-3.59 7.66-7.61 7.66h-78.58c2.29 23.77 18.9 37.16 38.27 37.16 13.45 0 23.32-5.31 31.32-12.743 1.25-1.055 2.75-1.908 4.62-1.908 3.94 0 7.1 3.19 7.1 7.02 0 1.91-.79 3.82-2.51 5.29-10.26 9.98-22.47 16.59-40.97 16.59M580.14 15.53c0-4.524 3.64-8.384 8.14-8.384 4.73 0 8.38 3.647 8.38 8.383v19c8.15-18.464 26.22-27.17 38.2-27.17 4.95 0 8.18 3.646 8.18 8.364 0 4.51-3 7.715-7.32 8.37-21.47 2.574-39.06 18.674-39.06 50.667v37.63c0 4.5-3.43 8.35-8.15 8.35-4.73 0-8.37-3.66-8.37-8.35V15.53m-245.16 97.9l-33.63-93.655c-.43-1.295-1.08-3-1.08-4.5 0-4.063 3.44-7.915 8.35-7.915 4.29 0 7.08 2.78 8.37 6.843L344.85 94.9l28.06-80.92c1.28-3.84 3.86-6.62 8.12-6.62h.87c4.51 0 7.3 2.78 8.57 6.62l27.85 80.92 28.3-81.117c1.08-3.436 3.41-6.423 7.93-6.423 4.71 0 8.14 3.625 8.14 7.705 0 1.5-.65 3.198-1.06 4.5l-33.86 93.865c-1.73 4.9-5.14 7.47-9.01 7.47h-.64c-4.29 0-7.51-2.57-9.02-7.47l-27.61-79.58-27.87 79.58c-1.5 4.9-4.72 7.47-8.99 7.47h-.43c-4.06 0-7.48-2.57-9.2-7.47"/></svg>