<svg xmlns="http://www.w3.org/2000/svg" viewBox="0 0 733 505"><path d="M370.8 12c-89.86 0-162.71 72.847-162.71 162.71 0 89.86 72.85 162.71 162.71 162.71 89.86 0 162.71-72.85 162.71-162.71C533.51 84.846 460.66 12 370.8 12zm57.67 14.43c1.08-.02 2.12-.01 3.11 0 2.56.06 4.87.49 5.13 1.29v.25c-.11.562-1.17 1.278-3.62 2.15-26.19 9.294-44.87 34.123-44.87 63.28 0 .694.1 1.358.11 2.015 13.38 2.83 24.83 7.545 34.51 13.535 9.27 5.73 16.85 12.78 22.71 20.94.46.63.9 1.26 1.33 1.91 4.3 6.39 7.59 13.41 9.89 20.98 2.24 7.42 3.5 15.36 3.8 23.72 0 1.07.1 2.14.1 3.2 0 13.93-3.29 27.58-9.52 39.8a85.48 85.48 0 0 1-15.88 21.78c-2.38 2.38-4.89 4.6-7.53 6.67-9.24 7.27-19.88 12.6-31.17 15.71a88.01 88.01 0 0 1-24.59 3.16c-3.11 0-6.21-.25-9.27-.63-4.75-.58-9.44-1.54-14.02-2.87-15.06-4.36-29-12.66-40.3-24.15a93.057 93.057 0 0 1-11.95-14.96c-5.25-8.16-9.2-17.07-11.88-26.37-.21-.71-.41-1.42-.59-2.14-1.41-5.29-2.4-10.7-3-16.18-.6-5.59-.78-11.24-.55-16.9 0-.57.1-1.13.1-1.71.46-8.11 1.67-15.97 3.53-23.54 7.44-30.22 25.23-55.77 46.08-73.41 13.89-11.92 29.63-20.422 44.86-26.29a182.56 182.56 0 0 1 13.43-4.552c2.84-.836 5.64-1.586 8.36-2.256 7.49-1.825 14.51-3.024 20.72-3.715 4.04-.445 7.73-.676 11-.726zm211.5 421c0-26.89 17-44.13 41.6-44.13 24.82 0 39.3 19.31 39.3 42.98 0 3.22-.22 7.59-.46 9.42h-56.77c1.15 11.96 8.97 18.4 24.37 18.4 13.1 0 23.67-2.76 29.65-4.6v15.4c-7.59 3.68-17.48 7.12-30.58 7.12-29.88 0-47.12-15.86-47.11-44.59zm59.53-8.73c-.69-8.74-6.9-15.86-17.93-15.86-11.04 0-16.55 5.98-17.47 15.86zm-93.78 5.05c0-12.64-6.44-19.07-19.31-19.07-6.44 0-13.56 1.14-17.24 2.07v63.43h-23.22V410.2c10.57-3.68 25.75-6.67 40.69-6.67 26.89 0 42.52 13.33 42.52 35.63v51.02h-23.44zm-114.71 48.5c-27.35 0-44.36-19.07-44.36-44.36 0-25.28 17.01-44.36 44.36-44.36 27.36 0 44.14 19.08 44.14 44.36 0 25.29-16.78 44.36-44.14 44.36zm0-69.41c-13.09 0-19.53 11.49-19.53 25.28 0 13.56 6.44 24.83 19.53 24.83 13.11 0 19.55-11.27 19.55-24.83 0-13.78-6.44-25.28-19.55-25.28zm-61.13-53.79c6.2 0 13.79 1.15 17.92 2.07v20.23c-3.67-.46-9.88-.92-13.1-.92-5.51 0-7.58.92-9.42 2.53-1.61 1.6-2.07 3.9-2.07 7.58v5.05h21.37v20.47h-21.37v64.12h-23.22V398.7c0-9.88 3.22-17.24 8.51-22.29 5.05-4.83 12.87-7.36 21.38-7.36zM300.7 449.73c0-26.66 19.76-46.2 48.03-46.2 14.03 0 28.28 3.45 36.32 6.67v79.99h-20.69l-1.6-7.36c-4.83 5.52-11.73 9.42-22.76 9.42-22.3 0-39.3-16.31-39.3-42.52zm60.91-24.59c-2.53-.69-7.59-1.61-13.33-1.61-11.27 0-22.99 8.73-22.99 25.28 0 16.32 9.19 24.14 19.54 24.14 7.81 0 14.02-4.14 16.78-8.74zm-71.72-54.02v117.46c-10.11 2.07-21.83 3.68-36.08 3.68-29.2 0-48.04-15.4-48.04-44.83 0-24.82 17-43.9 42.52-43.9 7.35 0 14.48 1.61 18.39 3.22v-35.63zm-23.21 55.63c-3.68-2.07-9.43-3.91-16.55-3.91-12.65 0-19.77 10.8-19.77 24.59 0 16.78 10.8 25.29 23.91 25.29 4.59 0 9.19-.23 12.41-.92zm-115.39 65.5c-27.12 0-44.13-19.07-44.13-44.36 0-25.28 17.01-44.36 44.13-44.36 27.35 0 44.36 19.08 44.36 44.36 0 25.29-17.01 44.36-44.36 44.36zm0-69.41c-13.1 0-19.54 11.49-19.54 25.28 0 13.56 6.44 24.83 19.54 24.83 13.1 0 19.54-11.27 19.54-24.83 0-13.78-6.44-25.28-19.54-25.28zM39.353 405.6l20.916 55.17 20.227-55.17H106.7l-34.248 84.59H47.63L12 405.6z"/></svg>