<svg xmlns="http://www.w3.org/2000/svg" viewBox="0 0 387 55"><path d="M350 49.6c-6.8 0-12.4-8.3-12.4-18.5 0-10.3 5.6-18.6 12.4-18.6 6.8 0 12.3 8.3 12.3 18.6 0 10.2-5.5 18.5-12.3 18.5zm.5-44.6c-19.4 0-35.1 11.7-35.1 26.2 0 14.4 15.7 26.1 35.1 26.1 19.4 0 35.1-11.7 35.1-26.1 0-14.5-15.7-26.2-35.1-26.2zM130 49.8c-6.8 0-12.4-8.2-12.4-18.3 0-10.1 5.6-18.3 12.4-18.3 6.9 0 12.4 8.2 12.4 18.3 0 10.1-5.5 18.3-12.4 18.3zm.5-44c-19.4 0-35.1 11.6-35.1 25.8 0 14.2 15.7 25.8 35.1 25.8 19.4 0 35.1-11.6 35.1-25.8 0-14.2-15.7-25.8-35.1-25.8zm38.4 1.4v7h11.4v34.1h-12v7.6l12 .1h56.9V33.3h-7.4c-.4 12-10.8 15.1-15.3 15.1h-11.8V14.2l11.3-.1V7.3h-45.1zM258.6 56h27.5l22.3-41.9h11.4V7.2h-34v6.9h9L279 43.8l-17-29.6 12.5-.1V7.2H225v7h11.4zM38.7 56h27.4l22.3-41.9h11.5V7.2H65.8v6.9h9L59.1 43.8l-17-29.6 12.4-.1V7.2H5v7h11.4z"/></svg>