<svg xmlns="http://www.w3.org/2000/svg" viewBox="0 0 841.25 111.56"><path d="M814.99 80.28c-2.32 0-4.25 1.93-4.25 4.54 0 2.61 1.93 4.54 4.25 4.54 2.32 0 4.26-1.93 4.26-4.54 0-2.61-1.94-4.54-4.26-4.54m-153.86 8.79h19.52v-1.74l-2.12-.48c-1.94-.48-2.81-1.55-2.81-4.25V56.31h4.55c2.8 0 4.25.68 4.44 6.57l.49 12.37c.38 11.12 3.57 14.21 8.99 14.21 5.5 0 6.95-3.77 6.95-9.08v-2.23h-2.03v1.64c0 3.58-.48 6.09-1.83 6.09-1.26 0-1.36-.96-1.65-5.41l-.58-8.5c-.77-11.41-2.22-15.37-10.63-16.92 8.02-2.12 12.95-8.02 12.95-16.43 0-10.92-8.6-16.14-16.81-16.14H647.6v1.74l1.84.39c3.48.77 3.57 2.61 3.57 10.44v38.46c0 8.61-2.41 12.76-7.92 12.76-4.93 0-7.64-2.42-7.64-11.79V28.77c0-2.71.87-3.48 3-3.97l2.61-.58v-1.74h-20.2v1.74l2.12.58c1.94.58 2.61 1.36 2.61 4.06V73.8c0 10.15 5.9 15.76 14.89 15.76s13.43-5.61 13.43-16.05V31.57c0-5.22 1.07-7.06 5.32-7.06 3.38 0 4.83 1.16 4.83 4.35V82.6c0 2.7-.87 3.67-2.8 4.15l-2.13.58zm129.7-60.21c0-2.7.87-3.57 2.8-3.96l2.61-.58v-1.84h-20.1v1.74l2.13.58c1.93.58 2.8 1.36 2.8 4.06v54.13c0 2.6-1.06 4.05-4.06 4.05-3.48 0-3.96-1.16-5.22-6.86l-12.37-57.89h-3.87l-11.78 56.06c-1.36 6.28-2.04 7.73-4.65 8.5l-1.64.48v1.74h13.82v-1.74l-2.03-.38c-2.9-.58-3.67-2.13-2.22-9.47l6.96-35.86 7.63 37.98c1.16 5.51 1.07 6.57-3.09 7.35l-2.03.38v1.74h51.22V67.04h-1.83c-.97 10.15-3 19.71-11.21 19.71h-3.87zM760.68 71.1v-2.61h-13.05l-.39 2.61zm-53.93-41.08v46.2c0 6.96 0 10.24-3.48 10.82l-1.74.29v1.74h14.21v-1.74c-6.19-.87-6.19-2.99-6.19-10.53V32.92l-2.32-2.12 23.68 58.27h4.06V35.34c0-7.93 0-9.67 3.87-10.73l1.35-.39v-1.74h-14.6v1.74l1.65.39c4.93.87 4.93 2.8 4.93 10.15v33.63l.96-.29-17.97-45.62h-13.82v1.74l1.35.39c1.55.48 2.42 2.22 4.06 5.41m-31.03-5.22h3.87c3.87 0 7.44 2.52 7.44 15.08 0 12.85-2.7 14.11-8.12 14.11h-3.19zm-64.36 30.35c0 27.93-2.32 31.89-7.35 31.89-5.02 0-7.25-3.96-7.25-31.7 0-26.86 2.42-30.73 7.25-30.73 5.03 0 7.35 3.87 7.35 30.54m10.53.58C621.89 37.27 616 22 604.01 22c-12.08 0-17.78 15.27-17.78 33.73 0 18.56 5.89 33.83 17.78 33.83 12.28 0 17.88-15.27 17.88-33.83m-41.36-26.87c0-2.7.67-3.57 2.61-4.06l2.12-.58v-1.74h-20v1.74l2.41.58c1.93.49 3 1.16 3 3.97v46.48c0 6.48-.58 11.7-5.41 11.7-3.1 0-5.42-2.42-5.32-4.16.29-3 5.32-2.8 5.7-7.63.29-3.48-1.93-4.93-3.96-5.22-3-.39-6.67 2.12-6.77 7.15-.1 6.47 4.16 12.37 11.41 12.37 8.02 0 14.21-5.41 14.21-15.75zm-322.81 0c0-2.7.87-3.57 2.81-3.96l2.61-.58v-1.84h-20.11v1.74l2.13.58c1.93.58 2.8 1.36 2.8 4.06v54.13c0 2.6-1.06 4.05-4.06 4.05-3.48 0-4.06-1.16-5.31-6.86l-12.37-57.89h-3.87l-11.79 56.06c-1.35 6.28-2.03 7.73-4.64 8.5l-1.64.48v1.74h13.82v-1.74l-2.03-.38c-2.9-.58-3.67-2.13-2.22-9.47l6.96-36.05 7.63 38.17c1.06 5.51 1.06 6.57-3.09 7.35l-2.03.38v1.74h51.32V67.04h-1.84c-.96 10.15-2.99 19.71-11.21 19.71h-3.87zm269.07-4.06h2.13c5.99 0 8.02 9.57 8.7 19.72h1.83V22.48h-35.08v22.04h1.83c.68-10.15 2.71-19.72 8.7-19.72h2.13v57.8c0 2.7-.87 3.67-2.8 4.15l-2.52.58v1.74h20.88v-1.74l-3-.67c-1.83-.49-2.8-1.07-2.8-4.06zm-44.17 30.83l3 .1c4.35.1 5.6 1.74 6.48 12.28h1.83V41.14h-1.83c-1.07 8.41-2.23 11.98-6.38 12.08l-3.1.1V24.8h6.67c7.44 0 9.09 9.38 10.15 19.72h1.84V22.48h-33.35v1.74l2.13.58c2.22.58 2.8 1.94 2.8 4.16V82.6c0 2.71-.87 3.67-2.8 4.16l-2.13.58v1.73h34.31V67.04h-1.83c-1.16 10.05-2.42 19.72-11.12 19.72h-6.67zm-36.43 0l2.99.1c4.35.1 5.61 1.74 6.48 12.28h1.83V41.14h-1.83c-1.06 8.41-2.22 11.98-6.38 12.08l-3.09.1V24.8h6.67c7.44 0 9.08 9.57 10.14 19.72h1.84V22.48h-34.31v1.74l3.09.58c2.23.58 2.81 1.94 2.81 4.16V82.6c0 2.71-.87 3.67-2.81 4.16l-2.12.58v1.73h34.31V67.04h-1.84c-1.16 10.05-2.42 19.72-11.11 19.72h-6.67zM406.46 24.8h2.9c3.87 0 7.45 2.52 7.45 15.08 0 12.66-2.71 14.11-8.12 14.11h-2.23zm-14.59 64.27h19.52v-1.74l-2.12-.48c-1.94-.48-2.81-1.55-2.81-4.25V56.31h3.58c2.8 0 4.25 1.16 4.45 6.57l.48 12.37c.39 11.12 3.58 14.21 8.99 14.21 5.51 0 6.96-3.77 6.96-9.08v-2.23h-2.03v1.64c0 3.58-.49 6.09-1.84 6.09-1.26 0-1.35-.96-1.64-5.41l-.58-8.5c-.78-11.7-2.32-15.37-10.63-16.92 8.02-2.12 12.95-8.02 12.95-16.43 0-10.92-8.6-16.14-16.82-16.14h-18.46v1.74l2.13.58c1.93.58 2.8 1.36 2.8 4.06V82.6c0 2.7-.87 3.67-2.8 4.15l-2.13.58zM377.08 24.8h2.13c5.99 0 8.02 9.57 8.7 19.72h1.83V22.48h-35.08v22.04h1.84c.67-10.15 2.7-19.72 8.7-19.72h2.12v57.8c0 2.7-.87 3.67-2.8 4.15l-2.51.58v1.74h20.39v-1.74l-2.51-.58c-2.52-.58-2.81-2.51-2.81-4.15zm-22.32 46.97c0-19.81-21.75-25.03-21.75-39.43 0-3.09 1.16-7.73 5.99-7.73 6.96 0 9.57 8.99 10.73 19.91h1.84V22.48h-1.16c-.48 2.13-1.35 3.1-2.61 3.1-2.22 0-3.38-3.48-8.7-3.48-8.21 0-13.82 6.86-13.82 15.85 0 16.33 21.75 23.19 21.75 38.27 0 6.86-3.19 10.73-7.54 10.73-6.48 0-10.73-7.64-11.89-19.91h-1.84v22.03h1.16c.97-3.19 2.23-3.48 3.29-3.48 1.84 0 3.77 3.87 9.37 3.87 8.61 0 15.18-7.44 15.18-17.69m-63.31-42.91c0-2.7.87-3.57 2.81-3.96l2.61-.58v-1.84h-20.11v1.74l2.13.58c1.93.58 2.8 1.36 2.8 4.06V82.6c0 2.7-.87 3.67-2.8 4.15l-2.13.58v1.74h31.61V67.04h-1.84c-.96 10.15-2.99 19.71-11.21 19.71h-3.87zM227.47 71.1v-2.61h-13.04l-.39 2.61zm-55.86 18.17h3.96l8.99-47.55h-1.35l9.86 47.55h3.48l11.79-56.06c1.25-5.89 1.93-7.92 4.25-8.5l1.84-.49v-1.74H200.8v1.74l2.03.39c2.9.58 3.57 2.32 2.22 9.47l-7.63 37.6h1.16l-7.74-39.63c-.77-3.77-1.25-6.86 1.94-7.44l2.12-.39v-1.74h-18.65v1.74l1.26.29c1.93.49 2.22 1.65 2.99 5.32l3 14.4-.58-8.7-6.67 35.18h.87l-7.83-38.66c-.87-3.96-1.16-6.96 1.93-7.54l1.46-.29v-1.74h-19.04v1.74l1.83.49c1.74.48 2.71 1.35 3.87 6.66zM120 55.63l3 .1c4.35.1 5.6 1.74 6.47 12.28h1.84V41.14h-1.84c-1.06 8.41-2.22 11.98-6.38 12.08l-3.09.1V24.8h6.67c7.44 0 9.09 9.57 10.15 19.72h1.83V22.48h-33.34v1.74l2.13.58c2.22.58 2.8 1.94 2.8 4.16V82.6c0 2.71-.87 3.67-2.8 4.16l-2.13.58v1.73h34.31V67.04h-1.84c-1.15 10.05-2.41 19.72-11.11 19.72H120zM59.208 89.07h19.81v-1.74l-2.22-.48c-1.74-.39-2.9-1.55-2.9-4.25V56.21h14.59V82.6c0 2.7-1.15 3.86-2.89 4.25l-2.23.48v1.74h19.822v-1.74l-2.13-.58c-1.932-.48-2.802-1.54-2.802-4.25V28.86c0-2.7.87-3.57 2.802-4.06l2.13-.58v-1.74H83.368v1.74l2.23.58c1.64.49 2.89 1.16 2.89 3.97V53.6h-14.59V28.77c0-2.71 1.06-3.48 2.9-3.97l2.22-.58v-1.74h-19.81v1.74l2.13.58c1.93.58 2.8 1.36 2.8 4.06V82.6c0 2.7-.87 3.67-2.8 4.15l-2.13.58zM44.422 24.8h2.127c5.99 0 8.02 9.57 8.698 19.72h1.83V22.48H22v22.04h1.837c.676-10.15 2.706-19.72 8.697-19.72h2.126v57.8c0 2.7-.868 3.67-2.802 4.15l-2.513.58v1.74h20.877v-1.74l-2.997-.67c-1.836-.49-2.803-1.07-2.803-4.06z"/></svg>