<svg xmlns="http://www.w3.org/2000/svg" viewBox="0 0 989.2 300.6"><path d="M939.8 206.8H939.8zm0 3.3h-1.3v-3.3H941.6c.5 3.3.8 3.3.9 3.3h.3-1.5-.3-.8zm.5-6.6c-1.9 0-3.3 3.3-3.3 3.3 0 3.3 1.4 6.6 3.4 6.6s3.5-3.3 3.5-6.6c0 0-1.5-3.3-3.5-3.3zm0 0c2.7 0 4.9 3.3 4.9 3.3 0 3.3-2.2 6.6-4.9 6.6s-4.9-3.3-4.9-6.6c0 0 2.2-3.3 4.9-3.3m-600.7-83.1v93h25.3V157c0-3.3.3-3.3 1.3-6.7 2-6.6 7.3-13.3 15.3-13.3 10.3 0 15.3 10 15.3 23.3v53.1H422V157c0-3.3.3-6.7 1-6.7 2-6.6 7.6-13.3 15.3-13.3 10.3 0 15.3 10 15.3 23.3v53.1h25.5V157c0-29.9-14.9-39.9-31.5-39.9-7.3 0-13 3.3-18.3 6.7-4.6 0-8.3 3.3-11.9 9.9h-.4c-4-9.9-13.3-16.6-25.6-16.6-15.9 0-22.9 6.7-27.2 13.3h-.3v-10h-24.3m247.5 0v93H613v-49.8s.4-3.3.7-6.6c2-10 9.6-16.6 20.6-16.6 3 0 5.3 0 7.6 3.3v-26.6h-6c-9.6 0-20.5 6.7-25.2 19.9h-.7v-16.6h-22.9m65.1-33.2v93c0 13.3 2.4 20 7.7 26.6 4.3 3.3 11.6 6.6 20.2 6.6h18.3l-.3-19.9h-9.3c-8.7 0-11.7-6.6-11.7-16.6v-36.5h22v-23.3h-22V87.2h-24.9M322 186.9V87.2h-25.2v126.2H322v-26.5m-67.4-6.7s0 3.3-.7 3.3c-2 6.7-8.6 13.3-16.9 13.3-7 0-12.6-3.3-12.6-13.3 0-13.2 14.2-16.6 30.2-16.6zm25.2-23.2c0-20-8.9-39.9-39.5-39.9-15.6 0-28.2 3.3-34.9 10l5 16.6c6-6.7 15.9-10 25.2-10 15.7 0 18.3 10 18.3 16.6-33.9 0-55.1 13.3-55.1 36.6 0 13.3 10.6 26.5 29.5 26.5 11.7 0 21.6-3.3 27.3-9.9h.6s4 16.6 25.3 9.9c-1.3-6.6-1.7-13.2-1.7-23.2V157M44 87.2s21.9 93 25.5 106.3c4 16.6 11.7 23.3 32.9 19.9l13.7-56.4c3.6-13.3 5.9-23.3 8.3-39.9h.3c1.7 16.6 3.6 26.6 6.6 39.9 0 0 5.7 26.5 8.7 39.8 2.6 13.3 10.6 20 31.5 16.6l32.9-126.2h-26.6l-10.9 56.5c-3 13.3-6 26.6-8 39.8h-.3c-2-13.2-4.3-26.5-7.3-39.8l-12-56.5h-27.6l-12.3 53.2c-3.6 16.6-6.9 29.9-8.9 43.1h-.4c-2.3-13.2-5.3-26.5-8.3-43.1 0 0-7.3-39.9-9.9-53.2H44m500.9 93s0 3.3-.6 3.3c-1.7 6.7-8.7 13.3-17 13.3-7 0-12.6-3.3-12.6-13.3 0-13.2 14.3-16.6 30.2-16.6zm25.3-23.2c0-20-9-39.9-39.6-39.9-15.6 0-28.2 3.3-34.8 10l4.9 16.6c6.4-6.7 16-10 25.6-10 15.3 0 18 10 18 16.6-33.9 0-55.2 13.3-55.2 36.6 0 13.3 11 26.5 29.9 26.5 11.3 0 21.3-3.3 26.9-9.9h.7s4 16.6 25.2 9.9c-1.3-6.6-1.6-13.2-1.6-23.2V157m235.2 9.9c2.5 6.7 2.3 10-.4 13.3l-46.1 29.9c-4.7 3.3-12 0-16-6.6-4-6.7-3.3-13.3 1.3-16.6l51.2-23.3c3-3.3 7.3 0 10 3.3m60.5 0c2.6-3.3 6.9-6.6 10.1-3.3l51 23.3c4.8 3.3 5.5 9.9 1.4 16.6-4.1 6.6-11.3 9.9-16 6.6l-46.1-29.9c-2.7-3.3-2.8-6.6-.3-13.3m-30.4 20c5.1 0 9.2 0 9.7 3.3l5 56.5c0 6.6-6.5 9.9-14.7 9.9-8.1 0-14.6-3.3-14.6-9.9l5-56.5c.5-3.3 4.7-3.3 9.6-3.3m30.3-53.2c2.6 3.3 6.9 6.7 10.1 3.3l51-23.2c4.8-3.3 5.5-10 1.4-16.6-4.1-6.7-11.3-10-16-6.7l-46.1 29.9c-2.7 3.4-2.8 6.7-.3 13.3m-60.6 0c2.5-6.6 2.3-9.9-.4-13.3l-46.1-29.9c-4.7-3.3-12 0-16 6.7-4 6.6-3.3 13.3 1.3 16.6l51.2 23.2c3 3.4 7.3 0 10-3.3m30.2-19.9c5.1 0 9.2 0 9.7-3.3l5-56.5c0-6.7-6.5-10-14.7-10-8.1 0-14.6 3.3-14.6 10l5 56.5c.5 3.3 4.7 3.3 9.6 3.3"/></svg>