<svg xmlns="http://www.w3.org/2000/svg" viewBox="0 0 357.4 185.7"><path d="M22 22l40.94 141.5 20.51-68.51 19.15 68.61 16-53.3v33.2h64.8c14.3 0 28.9-2.3 28.9-20v-8.7c0-2.7-.3-5.1-.8-7.1h2.7v7.2h17v-7.2h3.9v35.8h18.8c14.4 0 24.2-1.7 29.3-9v9h23.3c14.3 0 28.9-2.3 28.9-20v-8.7c0-7.7-2.1-12.7-6.7-15.46 5.4-3.6 6.7-9.15 6.7-13.8v-6.82c0-7.59-2.7-12.6-8.2-15.31-4.8-2.4-11.8-2.91-20.7-2.91h-23.3v8.1c-.7-1.08-1.6-2.04-2.6-2.89-4.4-3.71-10.9-5.21-22.3-5.21h-23.2v30.14h-3.9v-7.2h-17v7.2h-2.5c.4-1.73.6-3.53.6-5.1v-6.82c0-7.59-2.7-12.6-8.2-15.31-4.9-2.4-11.8-2.91-20.7-2.91h-49.9L145 22h-27.9l-8.9 32.01L99.5 22H62.96l5.86 20.9-3.21 11.41L56.84 22H22zm4.41 3.3h27.9l11.27 41.53 6.69-23.93-4.93-17.6h29.61l11.15 41.23 11.6-41.23h20.8L129 63.88h31.9v12.89h-18.6v16.42h18.6V106h-18.6v21.4h18.6v12.8h-39V87.64l-19.1 64.06-19.28-68.64L63 151.7 26.41 25.3zM163.4 63.88h20c17.2 0 25.6 1.8 25.6 14.84v6.82c0 8.02-4.6 12.68-14 13.95v.45c10.2.56 14 4.76 14 14.86v8.7c0 12.6-7.9 16.7-25.6 16.7h-20V63.88zm75 0h19.9c19.3 0 25.8 4.03 25.8 22.93v30.49c0 19.1-8.1 22.9-30.2 22.9h-15.5V63.88zm48.2 0h19.9c17.2 0 25.6 1.8 25.6 14.84v6.82c0 8.02-4.6 12.68-14 13.95v.45c10.2.56 14 4.76 14 14.86v8.7c0 12.6-7.8 16.7-25.6 16.7h-19.9V63.88zm-105 10.81v19.92c.7.15 1.3.15 1.9.15 4.9 0 7.3-2.17 7.3-6.3v-7.95c0-4.34-2.2-5.82-7.4-5.82h-1.8zm123.2 0v19.92c.6.15 1.3.15 1.8.15 4.9 0 7.3-2.17 7.3-6.3v-7.95c0-4.34-2.1-5.82-7.4-5.82h-1.7zm-48.2 2.45v49.16c1 .1 1.7.1 2.6.1 4.9 0 6.7-1.3 6.7-6.4V83.36c0-4.73-1.6-6.22-6.2-6.22h-3.1zm-71.7.92c2.6.17 2.6.87 2.6 2.45v7.95c0 1.28 0 2.55-2.6 2.85V78.06zm123.2 0c2.5.17 2.5.87 2.5 2.45v7.95c0 1.28 0 2.55-2.5 2.85V78.06zM145.6 80.1h14.5v9.79h-14.5V80.1zm114.3.36c1.9 0 2.2.35 2.2.35.1 0 .4.45.4 2.55V120c0 2.3-.4 2.7-.4 2.7s-.4.3-2.2.4V80.46zm-42.4 6.28h10.4v7.2h7.2v10.46h-7.2v7.1h-10.4v-7.1h-7.2V93.94h7.2v-7.2zM207 98.22v2.08c-.5-.36-1-.66-1.5-.96.6-.37 1-.75 1.5-1.12zm-23.5 7.38c-.6 0-1.2.1-1.9.1v23c.8.2 1.5.2 2.2.2 4.8 0 6.9-1.8 7-6.8v-10c0-4.7-2.3-6.5-7.3-6.5zm123.1 0c-.5 0-1.2.1-1.8.1v23c.7.2 1.5.2 2.1.2 4.9 0 6.9-1.8 7-6.8v-10c0-4.7-2.2-6.5-7.3-6.5zm-121.7 3.3c2.4.3 2.6 1.2 2.6 3.2v10c-.1 2.6-.5 3.3-2.6 3.4v-16.6zm123.2 0c2.4.3 2.5 1.2 2.5 3.2v10c-.1 2.6-.4 3.3-2.5 3.4v-16.6zm-162.5.4h14.5v14.8h-14.5v-14.8zm157.6 36.2c-4.4 0-6.7 1.2-7.8 3-.5.7-.8 1.5-.8 2.4 0 .5.1 1.5.7 2.4.9 1.3 2.2 1.8 3.6 2.2 1.4.4 2.7.6 4 .9 1.2.2 2.2.4 2.6.5.8.4 1 .9 1 1.3 0 .6-.5 1.1-1 1.4-.5.2-1.3.3-1.9.3-1.6 0-2.5-.3-3.1-.8-.6-.4-.7-.8-.7-1.1l-6 .1c.1.6.2 2 1.4 3.3 1.2 1.4 3.5 2.3 7.5 2.3 4.6 0 7.2-1 8.6-2.8.7-.9 1.1-2 1.1-3.2 0-1.6-.7-2.5-1.1-2.9-.7-.7-1.6-1.2-3.5-1.7-3.1-.7-6.1-1.1-6.9-1.7-.4-.3-.4-.6-.4-.8 0-.2 0-.6.4-.9.7-.5 2.2-.5 2.3-.5 1.5 0 2.4.4 2.8 1 .1.2.1.4.2.6l5.9-.4c-.1-.7-.3-2.2-1.9-3.4-.6-.3-1.1-.6-1.7-.9-1.4-.4-3.8-.6-5.3-.6zm19.1 0c-4.4 0-6.8 1.2-7.9 3-.5.7-.7 1.5-.7 2.4 0 .5 0 1.5.7 2.4.8 1.3 2.1 1.8 3.6 2.2 1.3.4 2.7.6 4 .9 1.2.2 2.2.4 2.6.5.8.4.9.9.9 1.3 0 .6-.4 1.1-.9 1.4-.6.2-1.4.3-2 .3-1.6 0-2.4-.3-3-.8-.6-.4-.7-.8-.8-1.1l-6 .1c.1.6.3 2 1.4 3.3 1.3 1.4 3.5 2.3 7.5 2.3 4.7 0 7.2-1 8.6-2.8.8-.9 1.2-2 1.2-3.2 0-1.6-.7-2.5-1.2-2.9-.6-.7-1.5-1.2-3.5-1.7-3-.7-6-1.1-6.9-1.7-.3-.3-.3-.6-.3-.8 0-.2 0-.6.3-.9.8-.5 2.2-.5 2.3-.5 1.6 0 2.4.4 2.8 1 .1.2.2.4.2.6l6-.4c-.1-.7-.4-2.2-2-3.4-.5-.3-1.1-.6-1.7-.9-1.4-.4-3.8-.6-5.2-.6zm-87.2.7v17h6v-6h4.6c1.9 0 4.3 0 5.9-1.2 2.1-1.4 2.2-3.6 2.2-4.5 0-1.4-.4-2.2-.6-2.8-1-1.9-2.7-2.4-4.7-2.5h-13.4zm19.5 0v17h6.1V157h3.2l3.5 6.2h6.8l-4.3-6.8c.9-.2 1.2-.4 1.6-.6 2.2-1.2 2.3-3.4 2.3-4.2 0-1.6-.5-2.5-.8-3.1-1.4-2.1-3.6-2.3-5.9-2.3h-12.5zm20.6 0v17h18.1v-3.9h-12v-2.7h10.9v-3.8h-10.9V150h11.8v-3.8h-17.9zm-34.1 3.8h4.5c.7 0 1.4.1 1.9.9 0 .1.2.3.2.8 0 .8-.5 1.4-1.2 1.6h-5.4V150zm19.6 0h5.1c.6 0 1.3.1 1.7.8.2.3.3.7.3.8 0 .2-.1.6-.4 1-.4.4-1 .6-2.1.6h-4.6V150z"/></svg>