<?xml version="1.0" encoding="UTF-8" standalone="no"?>
<svg
   xmlns="http://www.w3.org/2000/svg"

   viewBox="0 0 91 25.87"
   height="25.87"
   width="91">

  <path
     d="m 54.47,2.064 -2.11,17.016 0,0 -0.43,2.11 c 0.1,0 0.11,0 0.17,0 l 0,0 c 2.27,0 3.88,-2.02 4.19,-4.53 L 57.51,6.886 C 57.88,3.911 56.1,2.064 54.47,2.064 l 0,0 z m 29.91,9.156 c 0,0 -1.46,4.55 -1.57,4.94 0,-0.39 -1.1,-8.572 -1.1,-8.572 -2.48,0 -3.8,1.76 -4.5,3.632 0,0 -1.77,4.57 -1.91,4.95 0,-0.36 -0.28,-4.91 -0.28,-4.91 C 74.87,8.977 72.79,7.594 71.1,7.594 L 73.13,20 c 2.6,0 3.99,-1.77 4.72,-3.63 0,0 1.56,-4.04 1.62,-4.22 0,0.18 1.12,7.85 1.12,7.85 2.6,0 4.01,-1.65 4.76,-3.44 L 89,7.594 c -2.57,0 -3.92,1.755 -4.62,3.626 l 0,0 z M 66.32,13.6 c -0.15,1.52 -0.82,3.81 -2.65,3.81 -1.84,0 -1.58,-2.69 -1.4,-3.97 0.19,-1.37 0.96,-3.31 2.6,-3.31 1.48,0 1.62,1.75 1.45,3.47 l 0,0 z M 65.15,7.378 c -2.9,0 -5.63,2.131 -6.47,5.482 -0.83,3.35 0.44,7.31 4.7,7.31 4.25,0 6.7,-4.13 6.7,-7.55 0,-3.426 -2.32,-5.242 -4.93,-5.242 l 0,0 z m -13.04,0.216 -2.52,0 0,-0.131 C 49.78,5.822 50.17,4.961 51.44,4.829 52.31,4.739 52.7,4.288 52.8,3.8 52.87,3.417 53.11,2.064 53.11,2.064 48.07,2.036 46.49,4.211 46.09,7.518 l 0,0.08 0,0 c -0.82,0 -1.72,0.926 -1.88,2.103 l 0,0.429 1.67,0 -1.4,11.64 -0.43,2.1 c 0.1,0 0.12,0 0.17,0 2.36,-0.1 3.87,-1.94 4.2,-4.64 l 1.1,-9.1 0.79,0 c 0.77,0 1.68,-0.768 1.85,-2.06 l 0.1,-0.473 0,0 z M 39.31,13.7 c -0.37,2.19 -1.59,3.66 -2.77,3.66 -1.19,0 -1.69,-0.52 -1.69,-0.52 0.22,-1.92 0.37,-3.09 0.8,-4.1 0.43,-1.01 1.46,-2.62 2.52,-2.62 1.04,0 1.51,1.39 1.14,3.58 l 0,0 z m 0.33,-6.395 c -1.6,0 -2.83,0.869 -3.87,2.152 l 0,0 L 36.69,2 C 34.57,2 32.83,3.853 32.5,6.602 L 30.88,19.9 c 1.22,0 2.52,-0.35 3.23,-1.26 0.63,0.81 1.56,1.45 2.94,1.45 3.59,0 6.06,-4.17 6.06,-8.08 0,-3.575 -1.74,-4.705 -3.47,-4.705 l 0,0 z M 15.28,11.22 c 0,0 -1.45,4.55 -1.56,4.94 0,-0.39 -1.11,-8.572 -1.11,-8.572 -2.47,0 -3.799,1.76 -4.497,3.632 0,0 -1.768,4.57 -1.912,4.95 -0,-0.36 -0.272,-4.91 -0.272,-4.91 C 5.78,8.977 3.692,7.594 2,7.594 L 4.035,20 c 2.598,0 3.989,-1.77 4.723,-3.63 0,0 1.552,-4.04 1.622,-4.22 0,0.18 1.12,7.85 1.12,7.85 2.6,0 4,-1.65 4.76,-3.44 l 3.65,-8.966 c -2.58,0 -3.93,1.755 -4.63,3.626 l 0,0 z M 26.74,10.8 c 0,0.48 -0.25,1.31 -3.67,1.77 0.73,-2.56 2.1,-2.747 2.74,-2.747 0.59,0 0.97,0.457 0.93,0.977 l 0,0 z m 3.35,-0.26 c 0,-1.562 -1.52,-3.218 -4.14,-3.218 -2.95,0 -6.19,2.16 -6.69,6.468 -0.51,4.37 2.21,6.3 4.94,6.3 2.73,0 4.16,-1.07 5.62,-2.49 -1.26,-1.59 -2.88,-0.85 -3.19,-0.7 -0.34,0.17 -0.78,0.41 -1.69,0.41 -1.06,0 -2.13,-0.48 -2.13,-2.44 6.76,-0.65 7.28,-2.77 7.28,-4.33 l 0,0 z" />
 
</svg>
