<svg xmlns="http://www.w3.org/2000/svg" viewBox="0 0 588.4 175.6"><path d="M257.1 23.12h23.6v43.5h.7c2.5-2.9 5.8-5.2 9.8-6.9 4-1.7 8.4-2.5 13.2-2.5 10.9 0 19.2 3.7 24.8 11.2 5.8 7.4 8.7 18.7 8.7 33.88 0 16.3-4 28.7-12.1 37.1-8 8.5-19 12.7-33 12.7-7.7 0-14.8-.7-21.2-2-6.4-1.2-11.2-2.6-14.5-4.2zm40.4 54c-4.3 0-7.9 1.1-10.7 3.4-2.6 2.2-4.7 5.4-6.1 9.6v39.48c1.9 1 4 1.7 6.1 2 2.3.4 4.8.6 7.3.6 6.4 0 11.2-2.3 14.5-6.9 3.4-4.7 5.1-12.1 5.1-22.3 0-17.28-5.4-25.88-16.2-25.88zm-60.4 64.98c-3.6 2.9-8.6 5.4-14.9 7.5-6.1 1.9-12.7 2.9-19.7 2.9-14.6 0-25.3-4.3-32.1-12.7-6.8-8.6-10.1-20.3-10.1-35.2 0-15.88 3.8-27.88 11.4-35.78 7.6-8 18.3-12 32.1-12 4.5 0 9 .6 13.4 1.8 4.3 1.2 8.2 3.2 11.6 6 3.3 2.8 6.1 6.5 8.1 11.2 2.1 4.7 3.1 10.6 3.1 17.6 0 2.5-.2 5.3-.5 8.18-.3 2.9-.7 5.9-1.3 9h-54.4c.4 7.6 2.3 13.4 5.8 17.2 3.6 3.9 9.4 5.8 17.4 5.8 5 0 9.4-.7 13.2-2.1 4-1.6 7.1-3.2 9.1-4.8zm-33.7-66.48c-6.2 0-10.8 1.9-13.8 5.7-2.9 3.6-4.6 8.5-5.2 14.6h33.7c.5-6.5-.6-11.5-3.1-15-2.4-3.5-6.3-5.3-11.6-5.3zm-102.5-16.3l16.5 46.38 3.2 15.1h.8l2.5-15.3 11.6-46.18h21.6l-27.9 91.48h-17.4l-18.28-50.7-2.4-11.38h-.9l-2.2 11.58-17.4 50.5h-17.9L23.54 59.32h25.58l13.2 45.48 2.2 16.1h.9l3.1-16.3 15-45.28zm338.8 90.58c-3.6 0-5.3-1.7-5.3-5.3V62.32c0-3.5 1.7-5.3 5.3-5.3h13.9c3.6 0 5.4 1.8 5.4 5.3v5.2h.3c1.7-3.8 4.6-6.8 8.7-9 4.1-2.1 7.9-3.2 11.4-3.2 7.1 0 12.6 1.6 16.5 4.9 3.9 3.3 6.6 7 8.1 11.1h.3c5.2-6.7 9.8-11 13.9-13 4.2-2 9.6-3 16.1-3 8.7 0 16 2.9 22 8.6 6 5.8 9 16.4 9 31.7v48.98c0 3.6-1.8 5.3-5.3 5.3h-14.2c-3.5 0-5.3-1.7-5.3-5.3V102c0-12.88-.9-20.98-2.6-24.28-1.7-3.4-4.8-5.1-9.2-5.1-4.2 0-7.9 2.4-11.3 7.3-3.5 4.8-5.2 14.8-5.2 29.88v34.8c0 3.6-1.7 5.3-5.3 5.3h-14.1c-3.6 0-5.4-1.7-5.4-5.3V102c0-12.88-.8-20.98-2.6-24.28-1.7-3.4-4.8-5.1-9.2-5.1-4.1 0-7.9 2.4-11.3 7.3-3.5 4.7-5.2 14.7-5.2 29.88v34.8c0 3.6-1.7 5.3-5.3 5.3h-14.1m-15.9-47.2l-36.6 21.1-36.6 21.1V60.42l36.6 21.1z"/></svg>