<svg xmlns="http://www.w3.org/2000/svg" viewBox="0 0 612 186"><path d="M273 52.7c-.7-.5-1.8-.7-3.2-.7h-1.5v6.5h1c1.5 0 2.7-.3 3.6-.9.8-.6 1.2-1.5 1.2-2.6-.1-1.1-.4-1.8-1.1-2.3z"/><path d="M559.6 32.4H36.2c-4.4 0-7.9 3.5-7.9 7.9v87.5c0 4.4 3.5 7.9 7.9 7.9h523.3c4.4 0 7.9-3.5 7.9-7.9V40.3c0-4.3-3.5-7.9-7.8-7.9zM89.7 78.6H74.9l-3.1-22.2-3 22.2H53.7l-7.3-34.3h12.1l3.1 21.1 3.2-21.1H79L82.1 66l3.2-21.7h11.6l-7.2 34.3zm41.8 0H105V44.4h26v8.8h-12.9v3.7h12v8.8h-12v4h13.3l.1 8.9zm40.4 28.6c0 4.9-1.3 8.5-4 10.8-2.6 2.3-6.8 3.5-12.3 3.5-3.2 0-5.9-.3-8-1s-3.8-1.7-5.2-3.2c-1.1-1.2-1.9-2.4-2.4-3.9-.5-1.4-.7-3.5-.7-6.2V86.3h13.1v21.4c0 1.5.3 2.6.8 3.4s1.3 1.2 2.3 1.2 1.7-.4 2.3-1.2c.5-.8.8-1.9.8-3.3V86.3h13.2l.1 20.9zm-4.1-30c-2.9 2.2-7 3.3-12 3.3-5.1 0-9.1-.9-11.9-2.7-2.8-1.8-4.1-4.4-4.1-7.8v-.8-.5h12.8v.3c0 1.2.3 2.1.8 2.6.6.6 1.4.9 2.6.9 1 0 1.8-.2 2.4-.7.6-.5.9-1.1.9-1.9 0-.6-.1-1.1-.3-1.5s-.5-.7-1-.9c-.7-.3-2.1-.8-4.2-1.3s-3.8-1-5.1-1.4c-3-.9-5.2-2.2-6.6-3.7-1.4-1.5-2.1-3.4-2.1-5.8 0-3.5 1.4-6.2 4.3-8.1 2.8-1.9 6.8-2.9 12-2.9 4.7 0 8.3.8 10.8 2.5s3.7 4 3.7 7.1v.7H159c-.1-1.1-.4-1.8-.9-2.3s-1.3-.8-2.2-.8-1.5.2-2.1.6c-.5.4-.8 1-.8 1.7 0 1.3 1.4 2.3 4.3 2.9 1 .2 1.9.4 2.5.6 4.8 1.3 8.1 2.7 9.8 4.3s2.6 3.8 2.6 6.5c0 3.9-1.5 6.9-4.4 9.1zm11.8-32.8H210v9.2h-8.5v25.1H188V53.5h-8.5v-9.1h.1zm37.8 76.2h-16.2l-7.5-21.1v21.1h-10.9V86.3H199l7.5 20.5V86.3h10.9v34.3zm24.7 0h-13.5V86.3h13.5v34.3zm3.3-42H219V44.4h26v8.8h-12.9v3.7h12v8.8h-12v4h13.3v8.9zm37.5 38.3c-3.1 3.1-7.6 4.6-13.5 4.6-5.5 0-9.8-1.6-12.8-4.7s-4.5-7.6-4.5-13.3c0-5.8 1.5-10.3 4.6-13.4s7.5-4.7 13.2-4.7 10 1.6 13.1 4.7 4.6 7.6 4.6 13.4c-.1 5.9-1.6 10.3-4.7 13.4zm-8-38.4c-.3-1.1-.5-2.1-.7-2.8-.2-.7-.3-1.4-.3-2l-.3-2.5c-.3-2.3-.8-3.7-1.3-4.3-.6-.6-1.5-.9-2.8-.9h-.7c-.2 0-.3 0-.5.1v12.3h-13.1v-34H273c5.2 0 8.9.7 11 2s3.1 3.5 3.1 6.7c0 2.1-.6 3.7-1.7 5.1-1.1 1.3-2.9 2.3-5.1 2.9 2.1.3 3.6 1 4.5 2.1.9 1 1.5 2.9 1.9 5.7l.5 3.7c.1.6.2 1.4.4 2.3.2.9.4 2.1.8 3.7l-13.5-.1zm57.1 42.1h-16.2l-7.5-21.1v21.1h-10.9V86.3h16.2l7.5 20.5V86.3H332v34.3zm0-42.2h-16.2l-7.5-20.9v20.9h-10.9v-34h16.2l7.5 20.4V44.4H332v34zm27.9 42.2l-16-76.3h4.5l16 76.3h-4.5zm12.3 0l-16-76.3h4.5l16 76.3h-4.5zm59.8.5l-6.9-49.7-6.8 49.7h-33.7l-16.4-76.7h27.1l7 47.3 7.1-47.3h31l7.1 48.5 7.2-48.5h26.6l-16.1 76.7H432zm100.7-30c0 10.9-2.9 18.9-8.8 24.1-5.9 5.2-15.1 7.8-27.5 7.8-7.2 0-13.1-.8-17.8-2.3-3.8-1.2-7.1-3-9.8-5.4l14.9-70.9h5.7v47.9c0 3.3.6 5.8 1.8 7.5 1.2 1.7 2.9 2.6 5.2 2.6 2.2 0 3.9-.9 5.1-2.7 1.2-1.8 1.8-4.2 1.8-7.4V44.4h29.4v46.7zm10.1-39.8c-.2.3-.4.5-.7.6s-.7.2-1.2.2c-.8 0-1.4-.2-1.7-.5s-.5-.8-.5-1.3l1.4-.1c0 .2.1.4.2.6.2.2.4.3.7.3.2 0 .4-.1.5-.2.1-.1.2-.2.2-.4 0-.1-.1-.3-.2-.4-.1-.1-.4-.2-.8-.3-.7-.2-1.1-.4-1.4-.6-.3-.3-.4-.6-.4-1 0-.3.1-.5.2-.8.1-.2.4-.4.7-.6.3-.1.7-.2 1.2-.2.6 0 1.1.1 1.4.4.3.2.5.6.6 1.2l-1.4.1c0-.2-.1-.4-.2-.5-.1-.1-.3-.2-.5-.2s-.3 0-.4.1c-.1.1-.1.2-.1.3s0 .2.1.2c.1.1.2.1.5.2.7.2 1.1.3 1.4.5.3.2.5.3.6.6.1.2.2.5.2.8-.1.5-.2.8-.4 1zm6.6.8h-1.2v-4l-1 4H546l-1-4v4h-1.2v-5.2h2l.8 3.2.8-3.2h2v5.2z"/><path d="M269.8 94.5c-1.4 0-2.4.6-3 1.9s-.9 3.7-.9 7.2c0 3.3.3 5.6.9 6.9s1.6 2 2.9 2c1.4 0 2.4-.7 3-2.1s.9-3.9.9-7.4c0-3.2-.3-5.4-.9-6.7-.5-1.2-1.5-1.8-2.9-1.8z"/></svg>