<svg xmlns="http://www.w3.org/2000/svg" viewBox="0 0 251 146"><path d="M122.67 20.62a3.33 3.33 0 0 0-3.33 3.33 3.33 3.33 0 0 0 3.33 3.33 3.33 3.33 0 0 0 3.33-3.33 3.33 3.33 0 0 0-3.33-3.33zM112 29.45a2.17 2.17 0 0 0-2.17 2.17 2.17 2.17 0 0 0 2.17 2.17 2.17 2.17 0 0 0 2.17-2.17 2.17 2.17 0 0 0-2.17-2.17zm39.17 6.09L136.5 53.55V35.71h-11v40.83h11V63.41l2.33-3.04L151 76.54h13.83l-17.16-22 16.5-19zm16.33 0v7.67h7v25.5h-7v7.67h24.83v-7.67h-7v-25.5h7v-7.67zm-102.5.1l-7.38 26.63-6.24-26.5H40l11.25 40.75h11.87l7.26-25.88 7.37 25.88h12l11.37-40.75H89.88l-6.63 26.5-7.13-26.63zm41 4.25v42.04l-17.78 40.38h43.81L114.5 82V39.87h-2v42.54l16.47 37.88H91.28L108 82.33V39.87zm95.82 40.33c-11.25 0-18.83 5.08-18.83 13.08s5.83 11.84 14.5 12.92c7.38.92 9.67 2.16 9.67 4.33 0 1.25-.75 4.08-8.5 4.08s-13.75-4.58-14.17-5c-.42-.43-.75-.33-.75-.33h-1.08v10.17c7.75 3.25 16.25 3.25 16.25 3.25 13.17 0 19.42-6.67 19.42-13.67s-4.66-11.08-14.83-12.5-9.42-4.5-9.42-4.5.25-4.17 8-4.17 11.83 3.67 12.33 4.17 1.17.67 1.17.67h1.25v-9.58s-3.76-2.92-15.01-2.92zM51.75 81v41H81.87v-8.25h-19V81zm89.69.29V122h20.35c.86 0 2.62-.19 5.28-.56 2-.28 3.49-.72 4.48-1.33 1.59-.98 2.85-2.32 3.77-4 .92-1.68 1.38-3.58 1.38-5.69 0-2.6-.65-4.75-1.94-6.46s-3.31-2.92-6.05-3.62c1.8-.67 3.17-1.57 4.11-2.72 1.41-1.72 2.11-3.78 2.11-6.19 0-2.87-.99-5.28-2.96-7.22-1.97-1.95-4.79-2.92-8.47-2.92zm11.88 8.24h5.21c1.79 0 3.04.33 3.76 1 .72.67 1.08 1.6 1.08 2.78 0 1.28-.36 2.25-1.08 2.93-.72.67-2 1.01-3.84 1.01h-5.13zm0 15.47h5.99c2.06 0 3.51.37 4.33 1.1.83.73 1.24 1.7 1.24 2.9 0 1.3-.42 2.33-1.25 3.1-.83.77-2.26 1.15-4.29 1.15h-6.01z"/></svg>