<svg xmlns="http://www.w3.org/2000/svg" viewBox="0 0 262 160"><path d="M5.275 5a.278.278 0 0 0-.248.398L5.61 6.63c.71 1.493 1.6 2.89 2.523 4.22.913 1.33 1.867 2.59 2.727 3.87l.69.98c.24.34.5.67.74.99.5.64 1.02 1.28 1.55 1.9 1.06 1.23 2.19 2.41 3.32 3.55 2.27 2.3 4.64 4.42 6.91 6.56l3.4 3.27c2.36 2.27 4.74 4.43 7.08 6.38 1.23 1.01 2.5 1.98 3.81 2.91 1.29.94 2.63 1.82 4.01 2.64.42.26.85.49 1.27.73l-1.04-.14c-.22 0-.39.18-.3.38l.63 1.48c1.23 2.89 3.23 5.35 5.41 7.47 2.19 2.11 4.58 3.96 7.06 5.62 2.47 1.65 5.01 3.14 7.58 4.55 2.3 1.27 4.63 2.43 6.96 3.57h-5.8l-3.08.1-3.14.19c-14.8 1.99-29.83 3.62-43.28 9.33l-1.96.84c-.19.1-.23.33-.1.47l1.55 1.37c.8.7 1.69 1.14 2.53 1.47 8.45 2.78 17.54 1.73 25.99.51 1.49-.22 2.97-.41 4.42-.5 1.47-.1 3.02-.1 4.52-.14h.06c-.3.21-.66.5-.99 1.01-.35.57-.34.99-.35 1.58.8 2.74 4.74 3.76 7.11 3.97 17.21 1.57 33.05 1.21 47.78-6.99 1.7-.94 3.3-1.89 5-2.93l.1-.1.1-.15c.6-.1 1.1-.18 1.6-.3.3-.1.6-.14.8-.25.2-.12.4-.28.4-.51.3-.55.3-1.13.3-1.34 0 0 .1-.12.1-.19-.1-.66-.2-1.35-.3-2.01-.2-.65-.4-1.3-.7-1.93-.5-1.24-1.2-2.43-2-3.57-2.9-4.57-6.5-8.21-10.4-12.23-5.95-6.24-11.59-11.23-18.15-16.06C64.65 25.81 44.37 14.91 23.4 8.613c-2.71-.806-5.45-1.563-8.24-2.172-2.79-.607-5.623-1.075-8.483-1.32L5.302 5 5.275 5zM229.6 43.36c-19.2.16-38.9 4.56-56.9 10.52-2.5.83-5.1 1.76-7.6 2.73-10.3 4.59-25 11-31.4 17.87-.5.51-.9 1.05-1.3 1.62-.3.58-.6 1.2-.9 1.83v.53c-.1.29-.2.66-.2 1.01.1.25.2.46.3.63.2.18.4.32.6.47.5.28 1 .55 1.6.83v.26c1.3 1.52 2.5 2.95 3.8 4.38 1.4 1.44 2.8 2.84 4.3 4.15 6.9 5.23 13.3 9.32 20.7 12.61 1.9.8 3.8 1.6 5.8 2.3 5.8 1.6 12.5 3.7 18.5 2.5.3-.1.8-.2 1.4-.7.1-.1.1-.1.2-.3.1 0 .1 0 .1-.1h.1v-.1l.1-.1v-.1l.1-.1c0-.1 0-.2.1-.3.1-.5 0-.9 0-1.2-.2-.6-.4-1-.6-1.3-.1 0-.1 0-.1-.1 0 .1.1.1.1.1 1.4.5 2.9 1 4.3 1.6 1.3.5 2.7 1.2 4 1.8 7.2 4.2 14.2 6.6 22.2 7.6.9.1 1.7.2 2.6.1.9 0 1.9-.1 2.9-.5l1.9-.9c.2 0 .2-.3.1-.4l-1.6-1.4c-1.7-1.5-3.4-2.8-5.2-4.1-1.7-1.2-3.5-2.4-5.3-3.5-8.1-5.02-16.2-9.81-24.8-13.71l-2.8-1.24-3-1.17-2.9-1.04c-1.8-.64-3.7-1.23-5.5-1.81 2.6-.35 5.1-.71 7.7-1.19 2.9-.52 5.8-1.15 8.6-1.93 2.9-.79 5.8-1.79 8.5-3.1 2.7-1.33 5.4-3.02 7.5-5.38l1.1-1.2c.1-.17 0-.43-.2-.46l-1.1-.19c.5-.1 1-.18 1.5-.29 17-6.15 29.9-10.76 42.9-20.57 1.3-.97 2.6-2.01 3.7-3.2l1-.99c.1-.15.1-.41-.1-.46l-1.4-.33c-2.8-.67-5.6-1.12-8.5-1.42-5.7-.57-11.4-.68-16.9-.55zm-128.9.72c-.1 0-.2.11-.2.25 0 0 0 .11-.1.3v.89c0 .78.2 1.9.6 3.25.5 1.35 1.2 2.91 2.1 4.57 3.2 5.25 7.3 9.65 11.4 14.04.9 1.02 1.9 2.07 2.8 3.13 1.1 1.17 2.2 2.37 3.3 3.58-2.9 1.5-5.7 3.02-8.6 4.53-2.7 1.42-5.3 2.82-8 4.18-.9.47-6.12 3.18-7.69 3.99-4.61 2.39-9.1 4.64-13.6 6.92-3.97 1.98-7.3 3.57-9.63 4.69-1.18.54-2.09.97-2.72 1.27-.62.3-.96.43-.96.43-.31.2-.12.7.21.5 0 0 .36-.1 1.02-.3.66-.2 1.64-.5 2.87-.91 1.24-.42 2.72-.99 4.41-1.61 1.7-.63 3.59-1.42 5.67-2.25 2.06-.89 4.29-1.83 6.63-2.9 2.35-1.07 4.81-2.23 7.34-3.44.96-.47 1.94-.96 2.95-1.45 0 .49.1.99.2 1.47.3 1.52 1 2.95 1.7 4.27.7 1.34 1.6 2.57 2.4 3.79.7 1.21 1.1 2.6 1.2 4.03.3 13.3-1 21.9-.5 35.2.1 2.9.4 5.9.9 8.9.2 1.4.5 2.9 1 4.4.5 1.4 1.1 2.8 2.2 4.1h.1c0 .1 0 .1.1.1h.1l.1.1h.2l.1-.1c1.5-.6 2.6-1.8 3.5-3 1-1.2 1.8-2.4 2.5-3.8 1.4-2.6 2.5-5.3 3.6-8.1 4.1-11 7.4-24.3 10.5-33.6.7-1.2 1.5-2.3 2.6-3.1 1.1-.8 2.3-1.5 3.5-2.4 1.2-.82 2.3-1.76 3.2-2.95.4-.45.7-.95.9-1.48.4.34.7.69 1 1.02 2 1.98 4 3.91 5.9 5.61 1.8 1.8 3.6 3.4 5.3 4.9v.1c1.7 1.4 3.2 2.8 4.6 3.9 1.4 1.2 2.6 2.2 3.6 3 1.1.8 1.9 1.4 2.5 1.8.5.4.8.7.8.7.3.2.7-.2.4-.5 0 0-.3-.2-.8-.7l-2.1-2.1c-7.9-7.8-16.8-17.11-24.2-24.86-2-2.15-4.1-4.35-6.1-6.56-2.2-2.35-4.4-4.72-6.6-7.05 1.4-.78 2.8-1.56 4.2-2.32 1.3-.69 2.5-1.36 3.7-2.02 5.3-2.84 10.8-5.77 15.3-9.56 1.5-1.25 2.7-2.49 3.5-3.62.9-1.13 1.4-2.15 1.6-2.88.2-.36.3-.65.3-.85.1-.18.1-.28.1-.28.1-.33-.4-.48-.5-.16l-.1.26c-.1.19-.2.45-.3.76h-.1c-.2.65-.8 1.57-1.7 2.58-.8 1.01-2 2.12-3.5 3.22-5 3.75-10.5 5.66-15.8 8.33-1.2.64-2.5 1.29-3.7 1.95-1.6.83-3.3 1.69-4.9 2.55-1.3-1.36-2.5-2.71-3.8-4.02-1-1.04-2-2.07-2.9-3.08-4.2-4.2-8.8-8.14-12.1-13.01-1.1-1.54-1.9-2.98-2.4-4.22-.5-1.24-.7-2.29-.7-3-.1-.34-.1-.62-.1-.81v-.3c0-.15-.1-.28-.3-.27z"/></svg>