<svg xmlns="http://www.w3.org/2000/svg" viewBox="0 0 523 157"><path d="M267.7 3.9c-.2 0-.4.215-.3.398l.6 1.233c.7 1.493 1.6 2.89 2.5 4.22.9 1.33 1.9 2.59 2.8 3.87l.7.98c.2.34.5.67.7.99.5.64 1 1.28 1.5 1.9 1.1 1.23 2.2 2.41 3.4 3.55 2.2 2.3 4.6 4.42 6.9 6.56l3.4 3.27c2.3 2.27 4.7 4.43 7.1 6.38 1.2 1.01 2.5 1.98 3.8 2.91 1.3.94 2.6 1.82 4 2.64.4.26.8.49 1.2.73l-1-.14c-.2 0-.4.18-.3.38l.6 1.48c1.3 2.89 3.3 5.35 5.4 7.47 2.2 2.11 4.6 3.96 7.1 5.62 2.5 1.65 5 3.14 7.6 4.55 2.3 1.27 4.6 2.43 6.9 3.57h-5.8l-3 .1-3.2.19c-3.8.51-7.6 1-11.4 1.55l1.8-7.43H296l-2.6 10.12c-5.6 1.25-11.1 2.86-16.4 5.09l-.2.1-3.8-15.3h-14.7L272 116.6h10.1l-5.7 23.3h14.8l14.6-59.25c1.2-.17 2.5-.33 3.7-.4 1.4-.1 3-.1 4.5-.14h.1c-.3.21-.7.5-1 1.01-.3.57-.3.99-.3 1.58.8 2.74 4.7 3.76 7.1 3.97 17.2 1.57 33 1.21 47.7-6.99 1.7-.94 3.3-1.89 5-2.93l.1-.1.1-.15c.6-.1 1.1-.18 1.6-.3.3-.1.6-.14.8-.25.2-.12.4-.28.4-.51.3-.55.3-1.13.3-1.34 0 0 .1-.12.1-.19-.1-.66-.2-1.35-.3-2.01-.2-.65-.4-1.3-.7-1.93-.5-1.24-1.2-2.43-2-3.57-2.9-4.58-6.5-8.22-10.4-12.24-5.9-6.24-11.6-11.23-18.1-16.06-17.4-13.39-37.7-24.29-58.7-30.587-2.7-.806-5.4-1.563-8.2-2.172-2.8-.607-5.7-1.075-8.5-1.32l-1.4-.118zM118.3 35.05v81.55h3.9V35.05h-3.9zM4 38.45l16.7 78.15h10.7l16.3-71.79 16.9 71.79h10.7l16-78.15h-3.8L72.1 112.8h-4.3L49.9 39.56h-4.4L28.2 112.8h-4.3l-16-74.35H4zm96.1 0v6.09h3.9v-6.09h-3.9zm71.2 0v22.64c-2.8-.43-9.5-1.33-14.7-1.33-18.3 0-23.5 10.5-23.5 29.69 0 27.15 12 28.15 18.9 28.15 10.2 0 19.3-5.7 19.3-5.7v4.7h3.9V38.45h-3.9zm70 0v78.15h15V38.45h-15zM188 39.56v77.04h15.2V91.15h27V76.52h-27V54.3h33.7V39.56H188zm308.2 2.66H492c-19.2.16-38.9 4.56-56.9 10.52-2.5.83-5.1 1.76-7.6 2.73-10.3 4.59-25 11-31.4 17.87-.5.51-.9 1.05-1.3 1.62-.3.58-.6 1.2-.9 1.83v.53c-.1.29-.2.66-.2 1.01.1.25.2.46.3.63.2.18.4.32.6.47.5.28 1 .55 1.6.83v.26c1.3 1.52 2.5 2.95 3.8 4.38 1.4 1.44 2.8 2.84 4.3 4.15 6.9 5.23 13.3 9.32 20.7 12.65 1.9.8 3.8 1.6 5.8 2.3 5.8 1.6 12.5 3.7 18.5 2.5.3-.1.8-.2 1.4-.7.1-.1.1-.1.2-.3.1 0 .1 0 .1-.1h.1v-.1l.1-.1v-.1l.1-.1c0-.1 0-.2.1-.3.1-.5 0-.9 0-1.2-.2-.6-.4-1-.6-1.3-.1 0-.1 0-.1-.1 0 .1.1.1.1.1 1.4.5 2.9 1 4.3 1.6 1.3.5 2.7 1.2 4 1.8 7.2 4.2 14.2 6.6 22.2 7.6.9.1 1.7.2 2.6.1.9 0 1.9-.1 2.9-.5l1.9-.9c.2 0 .2-.3.1-.4l-1.6-1.4c-1.7-1.5-3.4-2.8-5.2-4.1-1.7-1.2-3.5-2.4-5.3-3.5-8.1-5.06-16.2-9.85-24.8-13.75l-2.8-1.24-3-1.17-2.9-1.04c-1.8-.64-3.7-1.23-5.5-1.81 2.6-.35 5.1-.71 7.7-1.19 2.9-.52 5.8-1.15 8.6-1.93 2.9-.79 5.8-1.79 8.5-3.1 2.7-1.33 5.4-3.02 7.5-5.38l1.1-1.2c.1-.17 0-.43-.2-.46l-1.1-.19c.5-.1 1-.18 1.5-.29 17-6.15 29.9-10.76 42.9-20.57 1.3-.97 2.6-2.01 3.7-3.2l1-.99c.1-.15.1-.41-.1-.46l-1.4-.29c-2.8-.67-5.6-1.12-8.5-1.42-4.3-.43-8.5-.6-12.7-.6zm-133.1.76c-.1 0-.2.11-.2.25 0 0 0 .11-.1.3v.89c0 .78.2 1.9.6 3.25.5 1.35 1.2 2.91 2.1 4.57 3.2 5.25 7.3 9.65 11.4 14.04.9 1.02 1.9 2.07 2.8 3.13 1.1 1.17 2.2 2.37 3.3 3.58-2.9 1.5-5.7 3.02-8.6 4.53-2.7 1.42-5.3 2.82-8 4.18-.9.47-6.1 3.18-7.7 3.99-4.6 2.39-9.1 4.64-13.6 6.92-4 1.98-7.3 3.57-9.6 4.69-1.2.54-2.1.97-2.7 1.27l-1 .43c-.3.2-.1.7.2.5 0 0 .4-.1 1-.3.7-.2 1.7-.5 2.9-.91 1.2-.42 2.7-.99 4.4-1.61 1.7-.63 3.6-1.42 5.7-2.25 2-.89 4.3-1.83 6.6-2.9 2.4-1.07 4.8-2.23 7.4-3.44.9-.47 1.9-.96 2.9-1.45 0 .49.1.99.2 1.47.3 1.52 1 2.95 1.7 4.27.7 1.34 1.6 2.57 2.4 3.79.7 1.21 1.1 2.6 1.2 4.03.3 13.3-1 21.9-.5 35.2.1 2.9.4 5.9.9 8.9.2 1.4.5 2.9 1 4.4.5 1.4 1.1 2.8 2.2 4.1h.1c0 .1 0 .1.1.1h.1l.1.1h.2l.1-.1c1.5-.6 2.6-1.8 3.5-3 1-1.2 1.8-2.4 2.5-3.8 1.4-2.6 2.5-5.3 3.6-8.1 4.1-11 7.4-24.3 10.5-33.6.7-1.2 1.5-2.3 2.6-3.1 1.1-.8 2.3-1.5 3.5-2.4 1.2-.82 2.3-1.76 3.2-2.95.4-.45.7-.95.9-1.48.4.34.7.69 1 1.02 2 1.98 4 3.91 5.9 5.61 1.8 1.8 3.6 3.4 5.3 4.9v.1c1.7 1.4 3.2 2.8 4.6 3.9 1.4 1.2 2.6 2.2 3.6 3 1.1.8 1.9 1.4 2.5 1.8.5.4.8.7.8.7.3.2.7-.2.4-.5 0 0-.3-.2-.8-.7l-2.1-2.1c-7.9-7.8-16.8-17.11-24.2-24.86-2-2.15-4.1-4.35-6.1-6.56-2.2-2.35-4.4-4.72-6.6-7.05 1.4-.78 2.8-1.56 4.2-2.32 1.3-.69 2.5-1.36 3.7-2.02 5.3-2.84 10.8-5.77 15.3-9.56 1.5-1.25 2.7-2.49 3.5-3.62.9-1.13 1.4-2.15 1.6-2.88.2-.36.3-.65.3-.85.1-.18.1-.28.1-.28.1-.33-.4-.48-.5-.16l-.1.26c-.1.19-.2.45-.3.76h-.1c-.2.65-.8 1.57-1.7 2.58-.8 1.01-2 2.12-3.5 3.22-5 3.75-10.5 5.66-15.8 8.33-1.2.64-2.5 1.29-3.7 1.95-1.6.83-3.3 1.69-4.9 2.55-1.3-1.36-2.5-2.71-3.8-4.02-1-1.04-2-2.07-2.9-3.08-4.2-4.2-8.8-8.14-12.1-13.01-1.1-1.54-1.9-2.98-2.4-4.22-.5-1.24-.7-2.29-.7-3-.1-.34-.1-.62-.1-.81v-.3c0-.15-.1-.28-.3-.27zm-263 17.79v55.83h3.9V60.77h-3.9zm56.5 2.54c4.4 0 11.8 1.01 14.7 1.38v43.51s-9.7 5.9-19.3 5.9c-6.3 0-14.9-2.1-14.9-24.28 0-17.02 3.6-26.51 19.5-26.51zm121.1 16.26c.4.27.9.48 1.4.66 3.8 1.25 7.7 1.72 11.6 1.76L285.8 102h-2.6l-5.5-22.43z"/></svg>