<svg xmlns="http://www.w3.org/2000/svg" viewBox="0 0 437.6 152.6"><path d="M225.7 22c-21.8.34-34.2 13.17-40.7 25.63-5.7 10.88-6.9 20.26-7.2 22.82H22.6v4.3h157a2.15 2.15 0 0 0 2.1-1.97s1.1-11.57 7.1-23.16c5.6-10.82 15.4-21.34 33.1-22.99C211 48.37 223 73.57 223 73.57a2.15 2.15 0 0 0 1.9 1.24h190.7v-4.3H226.4c-1.4-3.28-10.7-26.59 1.1-45.21a2.15 2.15 0 0 0-1.8-3.3zM33.52 129.7L22 81.41h5.89l6.61 31.69c.71 3.3 1.33 6.6 1.84 9.9 1.1-5.2 1.75-8.1 1.95-8.9l8.27-32.69h6.93l6.21 24.49c1.57 6.1 2.7 11.8 3.39 17.1.55-3.1 1.27-6.6 2.16-10.5l6.81-31.09h5.78L65.93 129.7h-5.54l-9.15-36.78c-.78-3.08-1.23-4.97-1.36-5.67-.46 2.22-.89 4.11-1.28 5.67l-9.21 36.78zm50.62 0V81.41h5.76v48.29zm15.96 0V81.41h19.2c3.9 0 6.9.44 9 1.31 1.9.87 3.6 2.4 4.8 4.6 1.1 2.2 1.8 4.62 1.8 7.28 0 3.43-1.1 6.3-3 8.7-2 2.3-5.1 3.8-9.2 4.5 1.5.8 2.6 1.6 3.4 2.4 1.7 1.7 3.3 3.8 4.7 6.4l7.6 13.1h-7.2l-5.8-10c-1.6-2.9-3-5.1-4.2-6.7-1-1.5-2-2.6-2.9-3.2-.8-.6-1.8-1-2.6-1.3-.7-.1-1.7-.2-3.2-.2h-6.7v21.4zm5.7-26.9h12.4c2.7 0 4.7-.3 6.2-1 1.5-.6 2.6-1.5 3.4-2.86.7-1.33 1.1-2.78 1.1-4.34 0-2.28-.7-4.16-2.2-5.63-1.5-1.48-3.9-2.21-7.1-2.21h-13.8zm38.2 26.9V81.41h31.4v5.71h-25.6v14.78h23.9v5.7h-23.9V124h26.6v5.7zm37.9-15.7l8.5-.9c.6 3.2 1.6 5.5 3.2 7s3.7 2.3 6.3 2.3c2.9 0 4.9-.7 6.5-2 1.4-1.4 2-2.9 2-4.7 0-1.1-.2-2.1-.8-2.9-.7-.8-1.7-1.5-3.2-2.1-1-.4-3.4-1.1-7-2.1-4.7-1.3-8-2.9-9.9-4.8-2.7-2.7-4-5.9-4-9.73 0-2.45.6-4.75 1.9-6.9 1.2-2.14 3-3.77 5.4-4.89 2.4-1.13 5.2-1.69 8.5-1.69 5.4 0 9.6 1.33 12.4 3.99 2.7 2.66 4.1 6.21 4.3 10.65l-8.8.43c-.4-2.48-1.1-4.27-2.4-5.35-1.2-1.1-3.1-1.64-5.6-1.64-2.5 0-4.5.58-5.9 1.74-1 .75-1.4 1.75-1.4 3.01 0 1.14.4 2.12 1.3 2.93 1.1 1.04 3.8 2.11 8 3.23 4.3 1.12 7.4 2.32 9.5 3.52 2 1.2 3.6 2.8 4.8 4.9 1.2 2.1 1.8 4.6 1.8 7.7 0 2.7-.8 5.3-2.1 7.8-1.4 2.4-3.3 4.1-5.9 5.3-2.6 1.3-5.7 1.8-9.5 1.8-5.5 0-9.7-1.4-12.6-4.2-2.9-2.8-4.7-7-5.3-12.4zm42.8 15.7V81.41h8.8v18.99h17.1V81.41h8.8v48.29h-8.8v-21.1h-17.1v21.1zm83 0h-9.6l-3.8-10.9H277l-3.6 10.9h-9.3L281 81.41h9.2zm-16.2-19.1l-6-17.91-5.9 17.91zm20.8 19.1V81.41h18.5c4.7 0 8.1.44 10.2 1.31 2 .87 3.8 2.41 5 4.63 1.2 2.22 1.9 4.76 1.9 7.62 0 3.62-1 6.63-2.9 9.03-1.9 2.3-4.8 3.8-8.6 4.4 1.9 1.3 3.5 2.6 4.7 4.1 1.3 1.5 2.9 4.1 5 7.8l5.3 9.4H341l-6.4-10.5c-2.3-3.7-3.8-6.1-4.6-7.1-.9-.9-1.7-1.6-2.7-2-.9-.3-2.4-.5-4.4-.5h-1.8v20.1zm8.8-27.8h6.5c4.3 0 6.8-.2 7.9-.6 1.1-.4 1.9-1.1 2.4-2.08.7-.97 1-2.17 1-3.63 0-1.62-.4-2.94-1.3-3.93-.7-1-1.8-1.64-3.2-1.9-.7-.11-2.8-.17-6.4-.17h-6.9zm35.2 27.8V81.41h8.7v21.49l17.8-21.49h11.8l-16.4 18.89 17.3 29.4h-11.4l-12-22.6-7.1 8v14.6z"/></svg>