<svg xmlns="http://www.w3.org/2000/svg" viewBox="0 0 141 60" >
		<path  d="m 86.79,24.98 2.37,0 0,11.55 -2.37,0 0,2.84 14.61,0 0,-5.59 -2.9,0 0,2.75 -6.2,0 0,-4.66 4.59,0 0,-2.83 -4.59,0 0,-4.06 5.97,0 0,2.76 3.13,0 0,-5.59 -14.61,0 z m 34.51,0.1 -5.2,0 0,11.48 c 0,0 2.8,0 5.4,0 2.6,0 2.7,-3.37 2.7,-3.37 0,0 0,-0.54 0,-4.44 0,-3.9 -2.9,-3.67 -2.9,-3.67 z M 107,18.1 l 0,25.48 25,0 0,-25.48 -25,0 z m 14.7,21.42 c -6.3,0 -9.1,0.1 -9.1,0.1 l 0,-17.37 7.4,0 c 0,0 7.6,-0.84 7.6,6.04 l 0,4.82 c 0,0 0.4,6.43 -5.9,6.43 z m -114.556,4.05 25.016,0 0,-25.47 -25.016,0 0,25.47 z m 5.586,-21.34 2.37,13.08 3.06,-13.08 3.75,0.1 3.06,13.24 2.3,-13.31 3.29,0 -3.52,17.14 -4.29,0 L 20,26.9 l -2.99,12.54 -4.2,0 -3.524,-17.21 3.444,0 z m 26.2,2.79 c 0,0 3.99,0 4.21,0 l 0,11.48 c -0.22,0 -4.21,0 -4.21,0 l 0,2.91 12.09,0 0,-2.91 c 0,0 -4.37,0 -4.59,0 l 0,-11.48 c 0.22,0 4.59,0 4.59,0 l 0,-2.91 -12.09,0 0,2.91 z m 34.78,2.18 c 0,-2.45 -2.6,-2.06 -2.6,-2.06 l -4.82,0 0,4.74 c 0,0 2.6,-0.1 4.74,-0.1 2.14,0 2.68,-0.46 2.68,-2.6 z m -16.53,16.37 25.02,0 0,-25.47 -25.02,0 0,25.47 z m 5.74,-21.42 9.94,0 c 0,0 4.29,-0.23 4.29,4.44 0,4.67 -2.6,4.89 -2.6,4.89 0,0 2.6,0.16 2.6,3.75 0,3.6 0,3.98 0,3.98 l -3.44,0 0,-3.75 c 0,0 0,-2.9 -1.99,-2.9 -1.99,0 -5.43,0.1 -5.43,0.1 l 0,6.66 -3.37,0 0,-17.14 z"/>
</svg>
