<svg xmlns="http://www.w3.org/2000/svg" viewBox="0 0 583.47 184.37"><path d="M22 22v20.293h539.48V22zm87.9 51.973c-1.5 4.05-2.93 7.878-4.43 11.548L99.925 99.38 96.4 83.786c-.225-.74-.525-2.445-.975-5.112-.225-.972-.3-1.623-.3-2.035 0-.247.08-.497.3-.577.15-.164 1.35-.33 3.375-.33V74.32c-2.775.164-4.8.163-5.925.163-1.275 0-3.15 0-5.775-.164v1.414c1.575.165 2.475.33 2.775.577.3.265.6 1.03.9 2.355L95.2 97.188l2.1 9.352h2.325c.595-1.79 1.045-3.06 1.345-3.89.23-.77.61-1.67 1.05-2.67l2.78-7.36 4.5-11.133 5.17 13.898c1.05 2.502 2.25 6.245 4.05 11.185h2.18l3-10.838c.68-2.667 1.2-4.406 1.43-5.147l2.25-7.557c1.12-3.44 1.72-5.457 2.02-5.95.23-.487.52-.9.82-1.063.38-.25.98-.33 2.11-.33v-1.417c-2.33.165-3.9.165-4.81.165-.89 0-2.62 0-4.94-.165v1.416c2.25.08 3.3.166 3.6.33.3.08.45.33.45.66 0 .197-.15.87-.45 2.057-.45 2.61-1.2 5.09-1.88 7.5L120.4 99.7l-5.32-14.727c-1.05-3.053-2.4-6.716-3.75-10.997zm239.93.295v1.45c1.8.08 2.84.08 3.15.245.52.165.75.33.9.578.15.256.3 1.088.3 2.537.22 1.935.22 3.96.22 5.984v12.12c0 .354-.1 1.58-.22 3.67 0 1.39-.1 2.26-.15 2.67-.15.25-.23.41-.45.57-.15.29-.75.62-1.65 1.03v1.04c1.5-.16 3-.16 4.35-.16l13.5.16h3.6c.3 0 .9 0 1.5-.16.3-3.02.6-5.7 1.05-7.915h-1.65l-.9 3.725c-.1.58-.3 1.13-.45 1.54-1.73.58-4.73.83-9 .83-1.73 0-3.45-.1-5.1-.17-.23-.99-.23-2.28-.23-3.85V85.046c.23-3.96.23-6.077.23-6.406.1-1.153.1-1.852.3-2.182.15-.163.37-.33.75-.495.45-.08 1.5-.246 3.3-.246v-1.45c-3.38.166-5.55.166-6.45.166-.9 0-3.23 0-6.9-.165zM141.1 82.583c-1.88 0-3.68.33-5.18.905-1.65.576-2.92 1.475-4.12 2.636-1.28 1.185-2.1 2.478-2.7 3.952-.52 1.45-.68 3.053-.68 4.757 0 1.548.15 3.087.75 4.668v-.05c.6 1.55 1.35 2.9 2.4 3.95 1.05 1.1 2.33 1.94 3.83 2.52 1.5.56 3.07.81 4.8.81 3.82 0 6.97-1.19 9.52-3.67 2.48-2.41 3.68-5.495 3.68-9.16 0-1.127-.1-2.213-.38-3.22-.22-.994-.52-1.858-1.05-2.6-.45-.995-1.27-1.925-2.25-2.732-.9-.84-2.1-1.54-3.6-2.025-1.5-.495-3.15-.742-5.02-.742zm26.77 0c-1.95 0-3.67.33-5.25.905-1.5.576-2.92 1.475-4.12 2.636-1.2 1.185-2.1 2.478-2.63 3.952-.45 1.45-.67 3.053-.67 4.757 0 1.548.22 3.087.82 4.668l-.15-.05c.6 1.55 1.35 2.9 2.4 3.95 1.05 1.1 2.33 1.94 3.83 2.52 1.5.56 3.07.81 4.8.81 3.82 0 6.97-1.19 9.52-3.67 2.48-2.41 3.68-5.495 3.68-9.16 0-1.127-.1-2.213-.3-3.22-.3-.994-.6-1.858-.98-2.6-.6-.995-1.35-1.925-2.32-2.732-.9-.84-2.1-1.54-3.68-2.025-1.42-.495-3.15-.742-4.95-.742zm74.55 0c-2.02 0-3.82.33-5.32.905-1.5.576-2.93 1.475-4.13 2.636-1.2 1.185-2.1 2.478-2.55 3.952a14.07 14.07 0 0 0-.82 4.757c0 1.548.3 3.087.9 4.668l-.1-.05c.6 1.55 1.28 2.9 2.25 3.95 1.13 1.1 2.4 1.94 3.9 2.52 1.43.56 3.15.81 4.8.81 3.83 0 7.05-1.19 9.53-3.67 2.4-2.41 3.67-5.495 3.67-9.16 0-1.127-.15-2.213-.3-3.22-.3-.994-.6-1.858-.97-2.6-.6-.995-1.28-1.925-2.33-2.732-.9-.84-2.17-1.54-3.67-2.025-1.5-.495-3.08-.742-4.88-.742zm89.78.06c-1.58 0-3.08.304-4.43.962a7.468 7.468 0 0 0-3 2.642c-.67 1.12-.97 2.347-.97 3.632 0 .87.1 1.737.52 2.478.3.74.68 1.34 1.28 1.833.52.48 1.27.892 2.47 1.222.9.164 1.95.328 3.15.493 1.2.164 1.95.33 2.48.33.6.08 1.12.328 1.57.658.45.32.83.708 1.05 1.284.1.51.3 1.087.3 1.833 0 .97-.3 1.81-.75 2.64-.37.83-1.05 1.53-1.95 2.02-1.05.5-2.02.74-3.15.74-.75 0-1.5-.16-2.4-.41-.75-.3-1.35-.54-1.87-.87-.53-.36-.83-.6-.9-.93-.1-.29-.3-1.22-.3-2.8h-1.13c-.1 2.31-.15 4.02-.37 5.05l.1.11c1.8.91 3.83 1.33 5.93 1.33 2.92 0 5.32-.84 7.12-2.45 1.8-1.61 2.78-3.5 2.78-5.695 0-.897-.23-1.722-.53-2.38-.37-.708-.75-1.26-1.27-1.67-.38-.437-1.2-.766-2.18-1.095-1.12-.165-2.4-.413-3.82-.578-1.28-.163-2.4-.41-2.93-.575-.9-.32-1.57-.734-1.87-1.228-.3-.51-.53-1.218-.53-2.148 0-1.515.53-2.767 1.5-3.74.9-.912 2.25-1.407 3.83-1.407 1.27 0 2.47.355 3.6.933.52.354.82.68 1.12 1.094.1.123.15 1.06.15 2.765h1.13c.1-1.194.22-2.066.22-2.642 0-.61.1-1.268.15-1.927-.9-.52-1.87-.847-3.07-1.094-1.13-.247-2.1-.41-3-.41zm139.8.114v1.062c1.12 0 1.87.08 2.32.246.1 0 .3.165.38.33.1.164.1.74.22 1.67v10.488c0 .865 0 2.446-.15 4.656 0 1.35 0 2.38-.1 3.12-.38.33-.98.66-1.58 1v.74c1.65 0 2.85-.16 3.45-.16v.24h5.7c2.03 0 3.6-.17 4.8-.5 1.13-.33 2.25-.82 3.3-1.41 1.13-.65 2.1-1.51 3-2.61.9-1.09 1.65-2.375 2.25-3.824.45-1.473.75-3.022.75-4.693 0-2.313-.6-4.28-1.65-5.918-1.2-1.573-2.62-2.734-4.2-3.442-1.72-.658-3.9-.996-6.6-.996h-3.82c-1.57 0-2.93.08-3.82.08-1.28 0-2.7 0-4.28-.08zm-258.08.02c-1.05 2.89-2.1 5.655-3.22 8.256l-3.98 10.027-2.62-11.18c-.23-.518-.38-1.77-.83-3.696-.1-.74-.15-1.152-.15-1.482 0-.164.1-.41.15-.41.3-.08 1.13-.248 2.55-.248v-1.062c-2.02.164-3.45.164-4.35.164-.9 0-2.4 0-4.2-.164v1.062c1.13.08 1.8.248 2.03.412.3.19.37.766.67 1.737l3.23 13.468 1.5 6.81h1.57c.53-1.31.9-2.24 1.05-2.82.3-.58.38-1.23.75-1.97l2.1-5.36 3.3-8.134 3.75 10.16c.68 1.804 1.58 4.544 2.86 8.134h1.72l2.1-7.905c.6-1.935.9-3.16 1.13-3.738l1.65-5.5c.82-2.502 1.2-3.974 1.35-4.304.15-.41.45-.66.67-.824.3-.167.83-.248 1.5-.248V82.9c-1.72.165-2.77.165-3.6.165-.6 0-1.8 0-3.52-.165v1.062c1.65.08 2.55.168 2.62.247.3.08.38.246.38.493 0 .124-.15.61-.38 1.482-.37 1.893-.82 3.696-1.27 5.433l-2.85 9.652-3.9-10.623c-.75-2.215-1.8-4.85-2.78-7.903zm80.78.08c-.9.165-2.33.164-4.28.164-2.85.165-4.5.165-5.32.165h-4.2c-2.48-.08-4.5-.166-5.63-.246 0 1.028.15 2.864.15 5.466h1.05l.23-1.862c.1-.98.1-1.638.3-1.803.1-.08.3-.16.52-.16.75-.166 1.95-.167 3.38-.167h2.48V102.9c0 .87-.1 1.37-.15 1.61-.15.17-.45.33-.6.41-.3.1-1.13.17-2.33.17v1.06c2.93-.1 4.58-.1 5.1-.1.98 0 2.4.1 4.43.1v-1.06c-1.35 0-2.1-.17-2.33-.17-.3-.1-.52-.24-.6-.41-.22-.19-.3-.8-.3-1.87V84.48h4.43c.9.165 1.5.166 1.65.166 0 .08.22.164.22.164.23.08.23.164.23.33 0 .13 0 .674.1 1.612l.23 1.574h1.05c0-2.414 0-4.216.22-5.467zm156.82 0c-.9.165-2.32.164-4.35.164-2.77.165-4.5.165-5.25.165h-4.12c-2.7-.08-4.5-.166-5.7-.246 0 1.028.1 2.864.1 5.466h1.13l.22-1.862c.1-.98.15-1.638.3-1.803.1-.08.3-.16.45-.16.83-.166 2.03-.167 3.53-.167h2.4V102.9c0 .87-.1 1.37-.23 1.61-.15.17-.3.33-.6.41-.3.1-1.05.17-2.25.17v1.06c2.85-.1 4.58-.1 4.95-.1 1.05 0 2.55.1 4.5.1v-1.06c-1.27 0-2.1-.17-2.4-.17-.15-.1-.37-.24-.45-.41-.22-.19-.3-.8-.3-1.87V84.48h4.35c.9.165 1.5.166 1.65.166.1.08.3.164.3.164.1.08.1.164.1.33 0 .13.1.674.22 1.612l.15 1.574h1.13c0-2.414.1-4.216.22-5.467zm-185.62 0c-.3 0-1.28.08-3 .08-1.28.08-2.33.08-2.93.08l-3.15-.08h-1.95v1.004c1.35 0 2.1.09 2.33.166.3.08.37.246.6.41.22.2.22.808.22 1.87V103c0 .88 0 1.37-.22 1.62-.23.1-.3.33-.6.33-.3.1-1.13.16-2.4.16v1.03c2.62-.16 4.27-.16 5.4-.16 1.27 0 2.7.16 4.27.16v-1.03c-1.27 0-2.1-.1-2.4-.16-.3-.1-.45-.25-.6-.41-.15-.2-.3-.81-.3-1.87V91.028c.23-3.02.23-4.593.23-4.758v-1.64c.97-.33 2.1-.494 3.22-.494 1.8 0 3.08.42 3.98 1.16.9.808 1.27 1.87 1.27 3.22 0 1.54-.45 2.766-1.5 3.697-.97.922-2.47 1.417-4.5 1.417h-1.2l-.15.493a68.57 68.57 0 0 1 3.31 3.992c.67.898 1.5 1.995 2.47 3.315 1.73 2.41 2.78 4 3.6 4.82.9-.17 1.73-.17 2.4-.17.6 0 1.28.17 2.18.17v-1.03c-.6 0-.98-.1-1.05-.1-.15 0-.23-.17-.3-.17-.23-.16-.9-1.02-2.03-2.57l-4.2-5.435c-.97-1.317-1.72-2.19-2.02-2.602 1.65-.288 2.7-.806 3.75-1.382.9-.608 1.57-1.35 2.1-2.287.45-.9.67-1.797.67-2.736 0-.963-.22-1.858-.82-2.73a3.937 3.937 0 0 0-2.18-1.797c-.9-.41-2.47-.576-4.5-.576zm30.37.08v1.06l-.15.1c1.28 0 2.1.09 2.25.167.45.08.53.246.75.41.1.198.15.807.15 1.87v16.616c0 .88-.1 1.37-.15 1.62-.15.1-.3.33-.6.33-.3.1-1.05.16-2.32.16v1.03c1.57-.17 3.3-.17 5.02-.17 1.58 0 3.08.17 4.58.17v-1.03c-1.28 0-2.1-.1-2.4-.16-.23-.1-.38-.25-.53-.42-.15-.19-.3-.8-.3-1.83v-8.034c2.7-.165 4.95-.165 6.75-.165 1.58 0 3.9.08 6.98.165v8.315c0 .88-.1 1.37-.23 1.62-.15.1-.37.33-.6.33-.3.1-1.05.16-2.4.16v1.03c1.65-.16 3-.16 4.43-.16 1.42 0 3.07.16 5.17.16v-1.03c-1.27 0-2.1-.1-2.25-.16-.3-.1-.45-.25-.6-.41-.22-.2-.22-.81-.22-1.87V86.22c0-.873 0-1.45.22-1.613.1-.166.3-.333.6-.413.3-.09.98-.165 2.25-.165V82.97c-2.77.165-4.35.165-4.8.165-.75 0-2.4 0-4.8-.165v1.062c1.35 0 2.1.09 2.4.165.3.08.53.247.6.412.23.196.3.805.3 1.867V93.097c-1.5.164-3.37.163-5.77.163-3.08 0-5.78-.08-7.88-.164V86.19c0-.873 0-1.45.15-1.613.15-.165.3-.334.6-.413.3-.09 1.13-.164 2.4-.164v-1.062l-4.65.164zm92.33 0v1.16c1.27 0 2.1.166 2.4.166.22.08.37.246.52.41.1.19.3.8.3 1.828v16.53c-.15.87-.15 1.37-.3 1.61-.15.17-.3.34-.52.42-.3.1-1.13.16-2.4.16v1.06l4.2-.16 3.97.16v-1.06c-1.27 0-2.17-.16-2.4-.16-.3-.1-.45-.25-.6-.42-.15-.19-.3-.8-.3-1.87-.1-1.41-.1-2.85-.1-4.332V86.922l7.87 16.308 1.13 2.38c.1.22.22.55.37.96h.6c.83-1.77 1.35-3.07 1.73-3.89.52-1.12 1.2-2.64 2.1-4.496l5.7-11.838v12.06c-.1 2.864-.1 4.414-.1 4.664 0 .87-.15 1.36-.3 1.61 0 .16-.3.33-.52.41-.3.1-1.13.17-2.48.17v1.06c2.55-.17 4.2-.17 4.88-.17.9 0 2.47.1 4.72.17v-1.06c-1.35 0-2.1-.17-2.4-.17-.22-.1-.52-.25-.6-.41-.15-.2-.22-.81-.22-1.84V86.313c0-.832.1-1.326.22-1.574.1-.164.38-.247.6-.41.3-.165 1.05-.166 2.4-.166v-1.226c-1.72.165-2.92.164-3.6.164-.82 0-1.8 0-2.92-.164-.53 1.35-1.58 3.663-3.08 6.816l-5.62 11.866-6.3-12.895c-.9-1.67-1.73-3.564-2.7-5.787-.98.165-2.03.164-3 .164-1.13 0-2.18 0-3.3-.164zm-208.43 0V84c1.35 0 2.03.08 2.33.163.3.08.37.246.6.41.22.166.22.776.22 1.87v15.848c0 1 0 1.64-.15 1.96-.1.17-.1.34-.3.42-.15.16-.6.41-1.27.74v.83c1.12-.16 2.17-.16 3.23-.16l9.89.16h2.55c.31 0 .75-.1 1.13-.16.3-2.22.52-4.12.82-5.76h-1.2l-.6 2.73c-.22.39-.3.8-.45 1.13-1.27.41-3.45.57-6.6.57-1.27 0-2.47-.1-3.75-.16V86.11c0-.872.1-1.366.3-1.613 0-.165.15-.33.45-.33.3-.08 1.13-.163 2.4-.163v-1.062c-2.4.163-3.97.164-4.65.164-.75 0-2.32-.09-4.95-.164zm197.25.02v1.062c1.28 0 2.1.08 2.25.164.3.08.45.247.6.412.23.197.3.806.3 1.867v16.617c0 .84-.1 1.34-.3 1.58-.15.17-.3.42-.6.42-.15.1-.97.16-2.25.16v1.03l5.1-.17c.68 0 2.18.17 4.5.17v-1.03c-1.35 0-2.1-.1-2.4-.16-.22-.1-.45-.25-.6-.42-.15-.19-.22-.84-.22-1.86V90.84c.1-2.888.1-4.412.1-4.658 0-.84 0-1.417.23-1.58.22-.166.3-.412.6-.412.3-.09.97-.166 2.32-.166V82.97c-2.1.165-3.75.166-4.8.166-1.12 0-2.7-.09-4.8-.166zm43.5 0v1.062c1.28 0 2.1.08 2.25.164.3.08.53.247.6.412.15.197.23.806.23 1.867v16.617c0 .84 0 1.34-.23 1.58-.1.17-.3.42-.6.42-.3.1-.97.16-2.25.16v1.03l4.95-.17c.83 0 2.33.17 4.65.17v-1.03h.1c-1.28 0-2.1-.1-2.33-.16-.37-.1-.45-.25-.67-.42-.1-.19-.3-.84-.3-1.86V86.19c.1-.84.1-1.417.3-1.58.1-.166.3-.412.6-.412.3-.09.97-.166 2.32-.166V82.97c-2.1.165-3.75.166-4.8.166-1.12 0-2.7-.09-4.8-.166zm31.58 0v1.062c1.2 0 2.1.08 2.32.164.3.08.45.247.6.412.1.164.15.773.15 1.835v16.5c-.1.91-.1 1.49-.15 1.73-.15.17-.22.25-.3.33-.45.1-1.2.25-2.55.25v1.26c2.85-.16 4.35-.16 4.43-.16l9.9.16c1.42 0 2.62 0 3.52-.16 0-1.48.15-3.32.38-5.5h-1.13c-.1.48-.15 1.22-.45 2.18-.15.61-.22 1.02-.45 1.35-.45.16-.97.33-1.57.41-.6.17-1.58.17-3 .17-2.03 0-3.83-.1-5.33-.17-.1-1.06-.1-2.58-.1-4.6V95.3c1.27-.166 2.4-.165 3.07-.165 1.95 0 3.15 0 3.75.164.45.08.6.248.75.413.23.23.23.69.23 1.512v1.128h1.27v-7.559h-.97l-.1 1.12c-.15.775-.15 1.186-.3 1.35-.15.08-.3.247-.6.247-1.05.165-2.1.166-3.45.166-1.05 0-2.25-.09-3.6-.166v-8.99h3.83c1.2 0 2.47 0 3.67.165.83.08 1.43.247 2.1.494.23.93.23 1.96.23 3.087h1.12c.1-2.19.3-3.33.3-3.41.1-.485.1-.98.3-1.638-1.05-.165-2.02-.165-3.15-.165h-5.17l-5.03.08zm-312 .963c1.2 0 2.32.164 3.37.576 1.05.33 1.95.825 2.63 1.36.6.494 1.12 1.15 1.57 1.892.53.74.9 1.548 1.2 2.412.45 1.483.75 3.055.75 4.792 0 2.025-.3 3.827-1.05 5.368-.6 1.58-1.57 2.76-2.85 3.64-1.35.83-2.92 1.28-4.72 1.28-1.2 0-2.4-.25-3.53-.66-.97-.41-1.95-1.06-2.85-1.96-.82-.9-1.5-2-2.02-3.28-.3-.824-.6-1.704-.83-2.766-.3-1.095-.37-2.124-.37-3.177 0-1.836.37-3.507.97-4.99v.02c.75-1.448 1.73-2.543 3-3.342 1.43-.74 2.93-1.16 4.73-1.16zm26.62 0c1.2 0 2.4.164 3.38.576 1.12.33 1.87.825 2.62 1.36.6.494 1.2 1.15 1.65 1.892.53.74.9 1.548 1.13 2.412.52 1.483.82 3.055.82 4.792 0 2.025-.45 3.827-1.05 5.368-.67 1.58-1.57 2.76-3 3.64-1.27.83-2.77 1.28-4.57 1.28-1.28 0-2.48-.25-3.53-.66-1.05-.41-1.95-1.06-2.85-1.96-.9-.9-1.5-2-2.1-3.28-.3-.824-.6-1.704-.75-2.766-.3-1.095-.37-2.124-.37-3.177 0-1.836.37-3.507.97-4.99v.02c.6-1.448 1.73-2.543 3-3.342 1.35-.74 2.93-1.16 4.65-1.16zm74.48 0c1.2 0 2.4.164 3.37.576 1.13.33 1.95.825 2.63 1.36.6.494 1.2 1.15 1.72 1.892.45.74.75 1.548 1.05 2.412.53 1.483.75 3.055.75 4.792 0 2.025-.3 3.827-.9 5.368-.75 1.58-1.72 2.76-3 3.64-1.35.83-2.85 1.28-4.64 1.28-1.28 0-2.48-.25-3.61-.66-.97-.41-1.87-1.06-2.77-1.96-.9-.9-1.57-2-2.1-3.28-.3-.824-.6-1.704-.68-2.766-.3-1.095-.45-2.124-.45-3.177 0-1.836.45-3.507 1.05-4.99v.02c.61-1.448 1.58-2.543 3-3.342 1.28-.74 2.86-1.16 4.58-1.16zm240.6.33c2.62 0 4.57.41 6.07 1.194 1.5.74 2.63 1.893 3.3 3.34.83 1.483 1.13 3.22 1.13 5.28 0 1.415-.1 2.79-.53 4.115-.37 1.35-.9 2.44-1.65 3.27-.75.88-1.42 1.52-2.25 1.93-.67.41-1.57.74-2.7 1.03-1.05.25-2.25.33-3.67.33-1.28 0-2.63 0-3.9-.25V84.51c1.5-.165 2.77-.246 4.2-.246zM22 142.04v20.33h539.4v-20.33z"/></svg>