<svg xmlns="http://www.w3.org/2000/svg" viewBox="0 0 322.12 297.74"><path d="M187 12c-5.89 0-12.3 1.473-18.91 5.014-11.89 6.36-14.93 17.842-14.53 25.34.55 10.31 8.42 17.876 8.42 17.876s1.46-12.298 15.49-20.58c19.07-11.266 39.77-1.853 39.77-1.853C219.38 27.112 205.86 12 187 12zm-71 39.197c-20.52 0-49.12 14.358-49.12 51.823 0 2.18.103 4.38.308 6.61.865 3.2 5.047 25.55 25.67 37.87-20.64-12.32-24.827-34.68-25.692-37.88 3.04 33.4 28.756 72.69 66.524 72.69 10.37 0 20.06-2.95 28.62-7.87 21.89-12.6 36.45-38.14 36.45-60.55 0-21.608-12.27-40.937-37.48-40.937-22.8 0-33.65 16.77-36.56 32.187 3.31-15.98 17.31-19.53 22.48-19.53 2.02 0 4.98.423 8.14 1.653-3.15-1.22-6.1-1.64-8.11-1.64-5.17 0-19.16 3.545-22.47 19.517v.1c-.12.65-.23 1.28-.32 1.92-.34 2.66-.52 5.6-.52 8.83 0 12.8 5.45 24.3 9.71 31.3-14.4-3.8-32.49-15.84-32.49-42.96 0-27.402 23.03-40.632 41.79-42.533 0 0-8.75-10.545-26.92-10.545zm46.31 123.243c-.42.24-.85.49-1.28.72 8.24 4.49 17.48 7.15 27.33 7.15 37.77 0 63.49-39.28 66.53-72.68.21-2.23.3-4.43.3-6.61 0-37.465-28.6-51.823-49.12-51.823-18.18 0-26.92 10.545-26.92 10.545 18.76 1.9 41.79 15.13 41.79 42.538 0 26.61-17.44 38.71-31.69 42.74-1.41 2.43-2.94 4.8-4.61 7.09-5.96 8.16-13.55 15.29-22.33 20.33zm-1.18-83.987c5.45 4.077 10.15 10.957 10.15 21.927 0 9.38-3.64 18.95-10.1 26.71-1.77-2.23-9.77-13.08-9.77-27.62 0-13.633 7.3-19.458 9.72-21.017zm-27.11 56.887zm2.98.65c.45.1.89.16 1.32.23-.43-.1-.87-.15-1.32-.23zm2.3.37c.56.1 1.11.13 1.65.17-.54 0-1.09-.1-1.65-.17zm2.68.24h.94-.94zm-35.74 127.82c-2.45 0-3.11.57-3.34 1.43-.1.33-.1.6.1.8.23.31.76.47 1.49.47 1.26 0 2.08-.58 2.41-1.77l.21-.93zm-2.79 5.68c-1.75 0-3.11-.54-3.84-1.52-.56-.75-.7-1.69-.415-2.74.507-1.86 2.255-4.09 7.665-4.09h.95c.2-.72.19-1.22 0-1.52-.26-.34-.86-.51-1.88-.51-2.67 0-3.93 1.05-4.2 1.23-.26.18-.61.5-.61.5s0-.69.29-1.56c.46-1.6 2.38-3.23 5.71-3.23 1.79 0 3.05.48 3.77 1.45.75 1 .86 2.5.32 4.46l-.7 2.56c-.99 3.85-3.03 4.97-6.38 4.97m-25.5-5.68c-2.452 0-3.11.57-3.346 1.43-.09.33-.06.6.09.8.23.31.76.47 1.49.47 1.267 0 2.087-.58 2.412-1.77l.212-.93zm-2.794 5.68c-1.746 0-3.11-.54-3.84-1.52-.557-.75-.7-1.69-.415-2.74.512-1.86 2.255-4.09 7.664-4.09h.955c.197-.72.184-1.22-.04-1.52-.26-.34-.86-.51-1.884-.51-2.672 0-3.928 1.05-4.193 1.23-.265.18-.61.5-.61.5s.03-.69.286-1.56c.456-1.6 2.378-3.23 5.71-3.23 1.782 0 3.05.48 3.766 1.45.752 1 .86 2.5.324 4.46l-.698 2.56c-.99 3.85-3.034 4.97-6.385 4.97m-55.698-7.69c.954-1.92 2.295-4.11 3.523-5.75.41 1.49.79 3.72.846 5.75zm6.195-9.92h-3.31l-.09.1c-5.636 5-10.48 17.08-10.48 17.08h4.484c.468-1.52.926-2.64 1.51-3.88h6.21c.05 2.07-.414 3.88-.414 3.88h4.37c.656-10.74-2.28-17.18-2.28-17.18m90.074 2.61c.33-1.03.2-2.48-1.47-2.66-1.09-.12-1.97.62-2.18 1.54-.16.7.21 1.07.44 1.36.1.14.12.35.1.64-.22.97-1.42 2.37-1.42 2.37s3.49.11 4.57-3.25m-76.732 2.1l-1.857 6.86c-.304 1.16-.968 2.54-2.387 2.54-.514 0-.883-.15-1.093-.45-.29-.4-.312-1.14-.07-2.07l1.857-6.88h-3.74l-1.89 6.93c-.456 1.73-.295 3.21.467 4.27.745 1.04 2.034 1.61 3.628 1.61 3.573 0 5.905-1.97 6.93-5.85l1.884-6.97m52.06-1.26c1.15 0 2.3-.93 2.564-2.08.133-.58.02-1.13-.312-1.55-.326-.41-.84-.64-1.412-.64-1.137 0-2.272.92-2.533 2.05-.136.58-.02 1.16.315 1.59.326.4.816.63 1.38.63m-23.685 4.13s-.586-.43-1.41-.43c-1.407 0-2.178.61-2.715 2.95-.537 2.34-1.676 7.2-1.676 7.2h-4.038s1.737-7.22 2.05-8.53c.27-1.12 1.676-4.67 5.48-4.67 3.832 0 2.31 3.48 2.31 3.48m73.766 0s-.59-.43-1.41-.43c-1.41 0-2.18.61-2.72 2.95-.54 2.34-1.67 7.2-1.67 7.2h-4.04s1.74-7.22 2.05-8.53c.27-1.12 1.68-4.67 5.48-4.67 3.83 0 2.31 3.48 2.31 3.48m49.42-4.4s-.63-.4-1.59-.4c-1.82 0-2.45 1.5-2.61 2.28 0 .16-.17.8-.17.8h2.69s0 .16-.1.45c-.16.66-.55 2.56-2.47 2.56h-.82l-1.97 8.44h-4.04l2.33-9.65c.47-1.96 1.59-7.8 6.58-7.8 3.01 0 2.17 3.32 2.17 3.32m-55.55 0s-.63-.4-1.59-.4c-1.82 0-2.45 1.5-2.61 2.28 0 .16-.17.8-.17.8h2.69s0 .16-.1.45c-.16.66-.55 2.56-2.47 2.56h-.82l-1.97 8.44h-4.04l2.33-9.65c.47-1.96 1.59-7.8 6.58-7.8 3.01 0 2.17 3.32 2.17 3.32m27.49 4.97s1.77-4.03-3-4.03c-4.42 0-6.48 3.23-6.48 5.11 0 1.88 1.94 2.61 3.36 2.99 1.24.33 1.59.53 1.49 1.1-.16.82-1.19 1.04-2.61 1.04-1.72 0-3.2-1.15-3.2-1.15s-1.82 4.46 3.24 4.46c4.86 0 6.5-3.53 6.5-5.36 0-1.83-1.43-2.57-2.84-3-.83-.25-2.06-.46-2.06-1.07 0-.6.97-1.09 2.32-1.09 2.16 0 3.28 1 3.28 1m136.9.31c0 .4-.27 1.3-2.49 1.3-.98 0-1.66-.15-1.66-.15s.59-2.25 2.69-2.25c1.24 0 1.49.73 1.46 1.1m-.63-4.3c-4.26 0-8 4.27-8 8.71 0 1.24.74 4.8 4.93 4.8 4.2 0 5.22-2.72 5.48-4.11 0 0-1.22.91-4.17.91s-2.31-2.19-2.31-2.19 1.13.23 2.44.23c1.32 0 5.8-.16 5.98-4.46.1-1.32-.42-3.89-4.35-3.89m-44.87 4.3c0 .4-.27 1.3-2.49 1.3-.98 0-1.66-.15-1.66-.15s.59-2.25 2.69-2.25c1.25 0 1.5.73 1.46 1.1m-.63-4.3c-4.26 0-8 4.27-8 8.71 0 1.24.74 4.8 4.94 4.8 4.19 0 5.21-2.72 5.47-4.11 0 0-1.22.91-4.17.91s-2.3-2.19-2.3-2.19 1.12.23 2.43.23c1.32 0 5.8-.16 5.98-4.46.1-1.32-.42-3.89-4.35-3.89m-104.71 4.3c0 .4-.27 1.3-2.49 1.3-.99 0-1.66-.15-1.66-.15s.58-2.25 2.69-2.25c1.24 0 1.49.73 1.46 1.1m-.63-4.3c-4.26 0-8.01 4.27-8.01 8.71 0 1.24.75 4.8 4.95 4.8 4.19 0 5.21-2.72 5.47-4.11 0 0-1.22.91-4.17.91s-2.31-2.19-2.31-2.19 1.13.23 2.44.23c1.32 0 5.8-.16 5.98-4.46 0-1.32-.43-3.89-4.35-3.89m91.33 3.37c-1.27 0-2.47 1.31-2.89 3.1-.59 2.52.1 3.62 1.54 3.62 1.32 0 2.4-1.31 2.82-3.12.55-2.36 0-3.6-1.47-3.6m-1.61 10.16c-1.09 0-2.32-.79-2.61-1.74l-1.24 5.31h-4.11l2.45-9.85c1.07-4.58 4.03-7.25 8.19-7.25 3.44 0 5.44 2.54 4.52 6.48-1.02 4.37-4 7.05-7.2 7.05m40.28-10.16c-1.27 0-2.47 1.31-2.89 3.1-.59 2.52.1 3.62 1.54 3.62 1.32 0 2.4-1.31 2.82-3.12.56-2.36 0-3.6-1.47-3.6m-1.61 10.16c-1.09 0-2.32-.79-2.61-1.74l-1.24 5.31h-4.11l2.46-9.85c1.06-4.58 4.02-7.25 8.18-7.25 3.44 0 5.44 2.54 4.52 6.48-1.02 4.37-4 7.05-7.2 7.05m-50.7-17.58h4.08s-1.35 5.82-2.57 10.94c-1.27 5.37-5.12 6.59-7.15 6.59-2.03 0-5.67-.65-5.67-5.03 0-3.99 3.11-8.46 7.47-8.46 1.66 0 2.59 1.34 2.59 1.34zm-4.18 7.46c-1.13 0-2.42 1.31-2.8 3.09-.54 2.53.14 3.62 1.58 3.62 1.29 0 2.41-1.31 2.8-3.12.5-2.35-.16-3.59-1.58-3.59m69.57-7.46H292s-2.51 10.66-3.11 13.24c-.6 2.59 1.03 4.33 2.95 4.33 2.01 0 3.07-1.13 3.54-3.56 0 0-.4.1-1.05.1-.56 0-1.53-.2-1.24-1.48.3-1.28 2.97-12.62 2.97-12.62m-26.61 7.54c-1.11 0-2.41 1.28-2.82 3.02-.57 2.47.1 3.53 1.51 3.53 1.28 0 2.41-1.28 2.83-3.04.53-2.3-.11-3.51-1.52-3.51m1.07-3.49c3.21 0 5.48 2.65 4.56 6.61-.98 4.18-3.94 6.87-8 6.87-3.36 0-5.46-2.69-4.58-6.46.98-4.22 4.32-7.02 8.02-7.02m-57.36 3.49c-1.11 0-2.41 1.28-2.82 3.02-.58 2.47.1 3.53 1.5 3.53 1.29 0 2.42-1.28 2.83-3.04.54-2.3-.1-3.51-1.51-3.51m1.07-3.49c3.2 0 5.47 2.65 4.55 6.61-.97 4.18-3.93 6.87-8 6.87-3.35 0-5.46-2.69-4.58-6.46.99-4.22 4.33-7.02 8.03-7.02m-14.41 3.49c-1.11 0-2.41 1.28-2.82 3.02-.57 2.47.1 3.53 1.5 3.53 1.29 0 2.42-1.28 2.83-3.04.54-2.3-.1-3.51-1.51-3.51m1.07-3.49c3.21 0 5.48 2.65 4.55 6.61-.97 4.18-3.93 6.87-7.99 6.87-3.36 0-5.46-2.69-4.59-6.46.99-4.22 4.33-7.02 8.03-7.02m-26.01 13.15l1.7-6.95c.42-1.81 0-2.63-1.14-2.63-1.59 0-2.18.91-2.6 2.72l-1.6 6.86h-4.08l4.03-17.2h3.92l-1.33 5.83c.84-1.02 2-1.79 3.86-1.79 2.37 0 3.98 2 3.17 5.47l-1.79 7.69m-53.88-9.17s1.76-4.03-3-4.03c-4.42 0-6.49 3.23-6.49 5.11 0 1.88 1.95 2.61 3.37 2.99 1.24.33 1.59.53 1.49 1.1-.16.82-1.19 1.04-2.61 1.04-1.72 0-3.2-1.15-3.2-1.15s-1.82 4.46 3.24 4.46c4.86 0 6.49-3.53 6.49-5.36 0-1.83-1.42-2.57-2.83-3-.83-.25-2.06-.46-2.06-1.07 0-.6.97-1.09 2.32-1.09 2.16 0 3.28 1 3.28 1m-71.273 0s1.764-4.03-3.003-4.03c-4.42 0-6.483 3.23-6.483 5.11 0 1.88 1.943 2.61 3.366 2.99 1.237.33 1.594.53 1.486 1.1-.156.82-1.188 1.04-2.607 1.04-1.716 0-3.2-1.15-3.2-1.15s-1.818 4.46 3.24 4.46c4.858 0 6.497-3.53 6.497-5.36 0-1.83-1.426-2.57-2.842-3-.828-.25-2.053-.46-2.053-1.07 0-.6.967-1.09 2.32-1.09 2.16 0 3.28 1 3.28 1m44.042-3.59h-4.066s-1.45 6.21-2.05 8.79c-.6 2.59 1.032 4.33 2.955 4.33 2.005 0 3.072-1.13 3.533-3.56 0 0-.398.1-1.045.1-.564 0-1.53-.2-1.238-1.48.294-1.28 1.91-8.17 1.91-8.17m-6.43-4.46h-4.064s-2.508 10.66-3.108 13.24c-.6 2.59 1.03 4.33 2.952 4.33 2.008 0 3.076-1.13 3.537-3.56 0 0-.4.1-1.045.1-.563 0-1.532-.2-1.24-1.48.296-1.28 2.97-12.62 2.97-12.62m-33.007 2.16c.636-.44 1.57-.86 2.427-.86h.31l-.732 3.11h3.565l-.313 1.39c-.253 1.09-1.52 1.93-2.438 1.93H59.84l-1.13 4.79c-.2.86.174 1.38.962 1.38.967 0 1.54-.1 2.012-.28 0 0-.47 1.93-1.338 2.78-.603.6-1.557.98-2.665.98-2.005 0-3.925-1.05-3.103-4.56l1.847-7.92c.27-1.16 1.108-2.09 2.05-2.74m161.696-11.79v-36.43h3.54v8.33s1.98-7.75 12.99-8.32c1.54-.1 3.53 0 3.53 0v-9.16l4.14-1.61v10.78h8.51v3.7h-8.51v22.14c0 5.23 1.63 7.05 5.2 7.05 1.97 0 3.6-.73 3.6-.73l.44 3.6s-2.06.67-4.24.67c-1.12 0-4.44.16-6.71-2.14-1.52-1.53-2.43-4.02-2.43-8.65v-22.09c-1.44 0-4.54-.18-7.06.47-3.36.89-8.86 4.38-8.86 13.09v19.34M38.776 212.96s6.818 24.85 7.966 29.14c.645 2.4 1.653 6.62 1.653 6.62s.89-4.23 1.49-6.65c1.052-4.25 7.435-29.11 7.435-29.11h4.337l-10.813 42H46.1s-7.937-30.39-8.32-31.94c-.378-1.56-.95-4.55-.95-4.55s-.57 2.99-.954 4.55c-.378 1.55-8.32 31.94-8.32 31.94h-4.74L12 212.96h4.34s6.382 24.86 7.435 29.11c.598 2.42 1.488 6.65 1.488 6.65s1.01-4.22 1.653-6.62c1.15-4.29 7.97-29.14 7.97-29.14m129.034 5.51s5.07 20.64 6.13 25.48c.52 2.35 1.27 5.81 1.27 5.81s.79-3.46 1.42-5.81c1.31-4.86 7.1-25.48 7.1-25.48h4.48l-10.57 36.46h-4.92s-5.56-24.09-6.21-27.05c-.32-1.49-.78-3.75-.78-3.75s-.45 2.26-.78 3.75c-.65 2.96-6.21 27.05-6.21 27.05h-4.92l-10.57-36.46h4.48s5.79 20.62 7.1 25.48c.63 2.35 1.42 5.81 1.42 5.81s.76-3.46 1.27-5.81c1.06-4.84 6.13-25.48 6.13-25.48m147.37 4.4c-2.81-.96-4.13-1.24-6.93-1.36-4.16-.17-7.13 2.51-7.13 5.59 0 7.51 17.05 6.69 17.05 18.26 0 6.08-5.06 10.29-12.48 10.29-3.13 0-5.76-.52-8.88-1.8l.3-4.12c3.12 1.72 5.52 2.36 8.3 2.36 4.72 0 8.18-3.13 8.18-6.73 0-8.72-16.64-7.22-16.64-18.18 0-5.64 4.44-9.35 11.37-9.24 2.68 0 3.94.11 7.19 1.24m-45.76-.57v1.73c-.1 1.58 0 3.23-.21 4.81 2.34-4.51 6.54-7.07 11.46-7.07 8.04 0 10.93 5.94 11.35 13.53.14 1.73.22 4.66.22 6.38v16.98h-4.17v-16.98c0-2.1-.1-5.66-.21-7.38-.5-5.79-3.35-8.94-7.97-8.94-3.78 0-7.27 2.47-9.12 6.38-.71 1.43-1 2.86-1.21 5.94-.1 1.12-.14 3.4-.14 4v16.98h-4.14v-51.15h4.14M65.804 236.87c0 8.79 4.666 15.37 11.18 15.37 6.51 0 11.108-6.58 11.108-15.44 0-8.95-4.53-15.53-11.04-15.53-6.79 0-11.248 6.43-11.248 15.6m26.833-.1c0 11.42-6.234 19-15.585 19-9.49 0-15.793-7.51-15.793-19 0-11.65 6.232-19.09 15.86-19.09 9.49 0 15.517 7.44 15.517 19.09m96.193.1c0 8.79 4.67 15.37 11.18 15.37s11.11-6.58 11.11-15.44c0-8.95-4.53-15.53-11.04-15.53-6.79 0-11.25 6.43-11.25 15.6m26.83-.1c0 11.42-6.23 19-15.58 19-9.49 0-15.79-7.51-15.79-19 0-11.65 6.23-19.09 15.86-19.09 9.49 0 15.51 7.44 15.51 19.09m-115.36.1c0 8.79 4.67 15.37 11.17 15.37 6.51 0 11.11-6.58 11.11-15.44 0-8.95-4.53-15.53-11.04-15.53-6.78 0-11.24 6.43-11.24 15.6m26.83-.1c0 11.42-6.24 19-15.59 19-9.48 0-15.786-7.51-15.786-19 0-11.65 6.236-19.09 15.856-19.09 9.49 0 15.52 7.44 15.52 19.09m4.63-32.96v51.16h4.17v-51.16z"/></svg>