<svg xmlns="http://www.w3.org/2000/svg" viewBox="0 0 584 166.5"><path d="M83.26 22C49.48 22 22 49.48 22 83.26 22 117 49.48 144.5 83.26 144.5c33.74 0 61.24-27.5 61.24-61.24C144.5 49.48 117 22 83.26 22zm0 119.7c-32.23 0-58.45-26.2-58.45-58.44 0-32.23 26.22-58.45 58.45-58.45 32.24 0 58.44 26.22 58.44 58.45 0 32.24-26.2 58.44-58.44 58.44zm46.14-83.65c.2 1.67.3 3.47.3 5.4 0 5.33-1 11.33-4 18.82l-16 46.43c15.6-9.1 26.1-26 26.1-45.44 0-9.14-2.3-17.73-6.4-25.21zM84.18 87.86L68.42 133.7c4.7 1.4 9.68 2.1 14.84 2.1 6.12 0 11.99-1 17.44-3-.1-.2-.3-.4-.4-.7zm34.52-7.25c0-6.5-2.3-11-4.3-14.5-2.7-4.33-5.2-7.99-5.2-12.32 0-4.83 3.7-9.33 8.9-9.33h.7c-9.4-8.52-21.86-13.75-35.54-13.75-18.36 0-34.51 9.42-43.91 23.69 1.23 0 2.4.1 3.38.1 5.5 0 14.01-.67 14.01-.67 2.83-.17 3.17 4 .34 4.33 0 0-2.85.34-6.02.5L70.2 115.5l11.5-34.45-8.19-22.43c-2.83-.17-5.51-.5-5.51-.5-2.83-.17-2.5-4.5.33-4.33 0 0 8.68.67 13.85.67 5.49 0 14-.67 14-.67 2.84-.17 3.17 3.99.34 4.33 0 0-2.85.33-6.02.5l19 56.48 5.2-17.5c2.3-7.27 4-12.49 4-16.99zm-87.99 2.65c0 20.84 12.09 38.74 29.62 47.34L35.26 61.87a52.31 52.31 0 0 0-4.55 21.39zM547.5 111.3c-4.7 0-8.9-2.5-10.7-4-.6.6-1.6 2.4-1.9 4h-2.2V94.93h2.3c1 7.87 6.5 12.47 13.5 12.47 3.8 0 6.9-2.1 6.9-5.7 0-3.09-2.8-5.47-7.6-7.72l-6.8-3.21c-4.8-2.26-8.3-6.17-8.3-11.4 0-5.7 5.3-10.57 12.7-10.57 3.9 0 7.2 1.43 9.2 3.09.6-.47 1.2-1.78 1.6-3.21h2.2V82.7h-2.5c-.8-5.59-3.9-10.22-10.2-10.22-3.3 0-6.4 1.9-6.4 4.87 0 3.09 2.5 4.75 8.2 7.37l6.5 3.2c5.7 2.73 8 7.13 8 10.69 0 7.49-6.5 12.69-14.5 12.69zm-36.6 0c-4.7 0-8.9-2.5-10.6-4-.6.6-1.7 2.4-1.9 4h-2.3V94.93h2.4c.9 7.87 6.4 12.47 13.4 12.47 3.8 0 6.9-2.1 6.9-5.7 0-3.09-2.8-5.47-7.6-7.72l-6.8-3.21c-4.7-2.26-8.3-6.17-8.3-11.4 0-5.7 5.3-10.57 12.7-10.57 3.9 0 7.2 1.43 9.3 3.09.6-.47 1.2-1.78 1.5-3.21h2.3V82.7h-2.5c-.9-5.59-3.9-10.22-10.2-10.22-3.4 0-6.5 1.9-6.5 4.87 0 3.09 2.5 4.75 8.2 7.37l6.6 3.2c5.7 2.73 7.9 7.13 7.9 10.69 0 7.49-6.5 12.69-14.5 12.69zm-24.1-12.69l-.6 2.09c-1 4-2.3 5.4-10.8 5.4h-1.6c-6.2 0-7.3-1.4-7.3-9.87v-5.46c9.3 0 10 .83 10 7.01h2.3v-17.7h-2.3c0 6.18-.7 7.01-10 7.01v-13.3h6.6c8.4 0 9.7 1.42 10.8 5.34l.6 2.26h1.9l-.9-11.16h-34.9v2.25c6.7 0 7.7 1.43 7.7 9.86v15.2c0 7.76-.9 9.66-6.1 9.96-5-.8-8.4-3.5-13.1-8.65l-5.5-5.94c7.4-1.31 11.3-5.94 11.3-11.16 0-6.53-5.6-11.52-16-11.52H408v2.25c6.6 0 7.7 1.43 7.7 9.86v15.2c0 8.46-1.1 9.96-7.7 9.96v2.3h23.6v-2.3c-6.6 0-7.7-1.5-7.7-9.96v-4.27h2l13.2 16.53h48.8l.7-11.19zm-62.9-9.03V73.79h4.9c5.3 0 7.7 3.68 7.7 7.96 0 4.15-2.4 7.83-7.7 7.83zm-35 17.82v2.4h-27.2v-2.4c7.9 0 9.4-2 9.4-13.9v-19c0-11.87-1.5-13.77-9.4-13.77v-2.38h24.6c12.2 0 19 6.29 19 14.73 0 8.19-6.8 14.6-19 14.6h-6.8v5.82c0 11.9 1.4 13.9 9.4 13.9zm-2.6-44.77h-6.8v20.66h6.8c6.6 0 9.7-4.63 9.7-10.21 0-5.7-3.1-10.45-9.7-10.45zM243.8 111.3c-13.1 0-23.8-9.6-23.8-21.36 0-11.64 10.7-21.26 23.8-21.26 13 0 23.7 9.62 23.7 21.26 0 11.76-10.7 21.36-23.7 21.36zm0-38.93c-11 0-14.8 9.85-14.8 17.57 0 7.84 3.8 17.56 14.8 17.56s14.8-9.72 14.8-17.56c0-7.72-3.8-17.57-14.8-17.57zm-40.4 21.61l8.2-24.23c2.3-7.01 1.3-9.02-6.3-9.02v-2.38h22.3v2.38c-7.5 0-9.3 1.78-12.2 10.45l-13.6 40.62h-1.5l-12.1-37.18-12.4 37.18h-1.5l-13.2-40.62c-2.8-8.67-4.7-10.45-11.6-10.45v-2.38h26.3v2.38c-7 0-8.9 1.66-6.4 9.02l8 24.23 12-35.63h2.2zm131.8-23.75h-21.3v2.25c6.7 0 7.8 1.43 7.8 9.86v15.2c0 8.46-1.1 9.96-7.8 9.96-5.1-.7-8.5-3.4-13.3-8.65l-5.4-5.94c7.3-1.31 11.3-5.94 11.3-11.16 0-6.53-5.6-11.52-16.1-11.52h-20.9v2.25c6.7 0 7.7 1.43 7.7 9.86v15.2c0 8.46-1 9.96-7.7 9.96v2.3h23.7v-2.3c-6.7 0-7.8-1.5-7.8-9.96v-4.27h2.1l13.1 16.53h34.6c17 0 24.3-9 24.3-19.86 0-10.81-7.3-19.71-24.3-19.71zm-49.8 19.35V73.79h4.9c5.3 0 7.7 3.68 7.7 7.96 0 4.15-2.4 7.83-7.7 7.83zm50.1 16.52h-.8c-4.3 0-4.9-1.1-4.9-6.54V73.79h5.7c12.4 0 14.7 9.02 14.7 16.03 0 7.24-2.3 16.28-14.7 16.28z"/></svg>