<svg xmlns="http://www.w3.org/2000/svg" viewBox="0 0 534.2 123.5"><path d="M115.8 23.2c-6 0-10 4.3-11.5 10.9-1.8 8.7-7.39 36.8-7.85 37.9-.35-.6-9.02-33.5-9.78-36.7-.92-3.5-2.97-7.2-11.17-7.2-8.8 0-10.9 4-11.7 7.2-.7 3.2-9 35.3-9.6 37-.5-1.7-7.1-33.8-8-37.9-1.4-6.6-5.7-11.2-11.6-11.2-6.4 0-10.5 3.1-12.6 6l17.8 63.9c1.8 6.1 5.7 7.8 12.6 7.8 5.7 0 10.2-1.1 12-7.8 0-.3 10.2-38.1 10.5-39 .3.9 10.73 39 10.73 39 1.83 6.1 5.79 7.8 12.41 7.8 7.36 0 11.06-2 12.56-7.8l17.2-63.9c-2.2-3.7-6.4-6-12-6zm49.4 36.7h-12.3V39.3h12c9 0 13.9 3.5 13.9 10.2 0 6.9-5.4 10.4-13.6 10.4zm16.4 11.8c10.7-3.2 17.3-11.8 17.3-22.5s-6.4-26-31.1-26h-23.6c-3.5 0-6.6.8-8.3 2.8-1.8 2.1-2.7 5-2.7 9v56.4c0 3.2.7 5.5 2.1 7.2 1.4 1.5 3.6 2.3 6.6 2.3h2.8c3 0 5.2-.8 6.6-2.3 1.4-1.7 2.1-4 2.1-7.2V75.5h7.5s11.1 14.4 14.7 18.8c3.6 4.6 6.9 6.6 12.8 6.6 6.6 0 10.8-3.2 12.2-5.8l-19-23.4zm38.7-48.5h-2.7c-6 0-8.6 2.8-8.6 9.2v59.3c0 6.3 2.6 9.2 8.3 9.2h3c5.9 0 8.5-2.9 8.5-9.2V32.4c0-6.4-2.6-9.2-8.5-9.2zm89.4 37h-31c-.5.8-1.2 2.6-1.2 5.5 0 4.6 2.4 9.2 8.2 9.2h6.6c-1.8 5.8-7.2 9.8-14.5 9.8-11.2 0-18.7-8.6-18.7-21.4 0-12.4 7.9-24.5 22.9-24.5 8.2 0 14.3 3.2 18.7 8.9 7.2-1.4 10.4-4.3 10.4-8.9 0-7.8-9.1-16.8-30.6-16.8-29.8 0-42 22.8-42 41.3 0 21.4 13.2 38.2 37.8 38.2 10.1 0 19.4-4.9 24.5-13.3v4.3c0 5 3.9 8.4 9.9 8.4 2.6 0 4.9-.8 5.5-1.1V66.2c0-5.5-3.1-6-6.5-6zm60 23.7h-23.2V32.4c0-6.4-2.6-9.2-8.6-9.2h-2.6c-6.1 0-8.7 2.8-8.7 9.2v57c0 4 .9 6.6 2.9 8.6 1.7 1.8 4.6 2.9 8.1 2.9h32.1c6.3 0 9.2-2.9 9.2-8.6v-.6c0-5.5-2.9-7.8-9.2-7.8zm63 .3h-29.5V70h19.7c3.4 0 5.8-.9 7.2-2 1.4-1.5 2-3.2 2-5.8v-.6c0-2.3-.6-4.3-2-5.5-1.2-1.1-3.8-1.7-7.2-1.7h-19.7V40.2h23.4c3.2 0 5.8-.6 7.3-2 1.1-1.2 2-3.2 2-6.1v-.8c0-2.4-.9-4.7-2-5.8-1.5-1.5-4.1-2.3-7.3-2.3H394c-3.5 0-6.1 1.1-7.8 2.9-1.8 2-2.6 4.9-2.6 8.9v54.4c0 4 .8 6.9 2.6 8.6 1.7 2.1 4.3 2.9 7.8 2.9h38.7c3.5 0 5.8-.8 7.2-2.3 1.2-1.4 2-3.5 2-6.3 0-2.9-.5-4.7-2-6.1-1.4-1.5-3.7-2-7.2-2zm68.8-61c-4.9 0-8.4 2.6-11 7.8-2.3 4-12.4 24-12.7 25.1-.6-1.1-10.7-21.7-12.4-25.4-2.3-4.7-6.1-7.5-11.9-7.5-6.9 0-11.3 3.4-13 5.7l26 44v18.8c0 6.3 2.6 9.2 8.7 9.2h2.6c5.8 0 8.4-2.9 8.4-9.2V72.9l26-43.4c-1.7-3.5-4.9-6.3-10.7-6.3"/></svg>