<svg xmlns="http://www.w3.org/2000/svg" viewBox="0 0 484 203"><path d="M201.83 127.22l-10.32-19.79-10.55 19.79h-11.34l16.08-25.54-14.47-25.392h11.5l9.39 19.29 10.18-19.29h10.52l-14.87 25.232 15.11 25.7zm36.79 0v-5.54h-.16c-2.8 4.35-6.77 6.53-11.9 6.53-3.95 0-7.06-1.08-9.34-3.23-2.28-2.17-3.42-5.08-3.42-8.72 0-7.82 4.39-12.26 13.16-13.33l11.73-1.62c0-5.474-2.53-8.213-7.61-8.213-4.84 0-9.29 1.494-13.35 4.483v-8.02c1.52-.92 3.69-1.744 6.52-2.478 2.85-.734 5.44-1.1 7.77-1.1 10.36 0 15.55 5.24 15.55 15.728v25.51zm-8.6-18.44c-2.7.35-4.6 1.01-5.7 2.01-1.07.97-1.6 2.48-1.6 4.52 0 1.68.61 3.06 1.84 4.13 1.23 1.05 2.84 1.57 4.83 1.57 2.7 0 4.92-.93 6.67-2.79 1.76-1.86 2.63-4.18 2.63-6.96v-3.62zm75.43 18.44V104.5c0-3.75-.59-6.527-1.76-8.336-1.16-1.835-3.22-2.752-6.21-2.752-2.38 0-4.38 1.1-6 3.303-1.63 2.175-2.44 4.805-2.44 7.905v22.6h-9.07v-23.51c0-6.864-2.63-10.298-7.89-10.298-2.46 0-4.49 1.035-6.08 3.106-1.57 2.07-2.36 4.772-2.36 8.102v22.6h-9.07V86.964h9.07v6.212h.16c2.9-4.797 7.14-7.195 12.72-7.195 2.67 0 5.02.71 7.06 2.124 2.07 1.39 3.52 3.316 4.36 5.78 3.06-5.27 7.57-7.903 13.51-7.903 8.74 0 13.11 5.453 13.11 16.36v24.88zm39.26 0v-5.54h-.16c-2.8 4.35-6.76 6.53-11.89 6.53-3.95 0-7.07-1.08-9.35-3.23-2.27-2.17-3.41-5.08-3.41-8.72 0-7.82 4.38-12.26 13.15-13.33l11.74-1.62c0-5.474-2.54-8.213-7.62-8.213-4.84 0-9.29 1.494-13.35 4.483v-8.02c1.52-.92 3.69-1.744 6.52-2.478 2.85-.734 5.45-1.1 7.78-1.1 10.36 0 15.54 5.24 15.54 15.728v25.51zm-8.6-18.44c-2.69.35-4.59 1.01-5.69 2.01-1.07.97-1.61 2.48-1.61 4.52 0 1.68.62 3.06 1.85 4.13 1.23 1.05 2.84 1.57 4.82 1.57 2.7 0 4.93-.93 6.68-2.79 1.75-1.86 2.63-4.18 2.63-6.96v-3.62zm47.93-12.97c-1.49-.917-3.24-1.376-5.26-1.376-2.62 0-4.75 1.127-6.4 3.38-1.62 2.256-2.43 5.196-2.43 8.806v20.6h-9.07V86.964h9.07v7.824h.15c1.94-5.688 5.37-8.532 10.29-8.532 1.6 0 2.81.184 3.65.55zm9.03-17.85c-1.54 0-2.85-.498-3.93-1.494-1.07-1.022-1.61-2.267-1.61-3.735 0-1.52.54-2.79 1.61-3.813 1.08-1.022 2.39-1.533 3.93-1.533 1.57 0 2.89.524 3.97 1.573 1.07 1.022 1.6 2.28 1.6 3.774 0 1.47-.53 2.714-1.6 3.736-1.08.996-2.4 1.494-3.97 1.494zm-4.63 49.26V86.964h9.07v40.256zm43.34 0v-22.6c0-7.473-2.68-11.208-8.05-11.208-2.69 0-4.96 1.035-6.79 3.106-1.8 2.044-2.71 4.652-2.71 7.822v22.88h-9.07V86.964h9.07v6.448h.16c2.93-4.954 7.28-7.43 13.03-7.43 8.96 0 13.43 5.503 13.43 16.508v24.73zM71.43 56c-2.754 0-5.45 1.574-6.837 3.966l-21.57 37.568c-1.364 2.4-1.364 5.536 0 7.936l21.57 37.56c1.387 2.4 4.083 3.96 6.838 3.97h43.14c2.75 0 5.45-1.57 6.84-3.97l21.57-37.56c1.36-2.4 1.36-5.537 0-7.936l-21.57-37.568c-1.39-2.392-4.09-3.96-6.84-3.966zm.393 21.978h7.62c.33 0 .65.198.814.484L92.88 101.02c.06.11.104.23.12.36.02-.13.06-.25.12-.36l12.59-22.558a.99.99 0 0 1 .84-.484H114c.65 0 1.15.838.84 1.423l-12.32 22.1 12.32 22.07c.34.59-.17 1.46-.84 1.45h-7.45c-.34 0-.68-.21-.84-.51l-12.59-22.56a.988.988 0 0 1-.12-.36c-.02.13-.06.25-.12.36l-12.623 22.56c-.157.3-.478.5-.813.51h-7.44c-.677 0-1.182-.86-.844-1.45l12.32-22.07-12.32-22.1c-.295-.533.06-1.308.663-1.422z"/></svg>