<svg xmlns="http://www.w3.org/2000/svg" viewBox="0 0 365.8 164"><path d="M322.8 107.7c.9 0 1.4-.4 1.4-1.1 0-.7-.5-1.1-1.4-1.1h-1.7v2.2zm-3.1-3.4h3.2c.9 0 1.6.3 2.1.7.4.4.6.9.6 1.5 0 1.1-.7 1.8-1.7 2.1l1.9 2.7h-1.6l-1.7-2.5h-1.4v2.5h-1.4zm8.7 3.7c0-3.3-2.5-6-6-6-3.4 0-6 2.7-6 6s2.6 6 6 6 6-2.7 6-6zm-12.7 0c0-3.7 3-6.7 6.7-6.7 3.8 0 6.7 3 6.7 6.6 0 3.7-2.9 6.8-6.7 6.8-3.8 0-6.7-3.1-6.7-6.7M66.97 82.01l19.4-27.18H72.3L60.17 71.82 48.53 54.83H34.46l18.92 27.18L33 111.1h14.07l13.1-19.39L87.83 131h13.57zM332.8 54.83h-13.1l-19.9 35.91-13.1-35.91h-13.1l19 48.97L278 131h13.1zm-234.78 0h-5.34l-6.79 9.22h12.13v47.05h12.58V64.05h12.6v-9.22h-12.6v-5.82c0-3.88 1.5-5.82 5.9-5.82 2.4 0 4.8.48 6.7.97v-9.7c-2.9-.97-6.3-1.46-10.1-1.46-9.3 0-15.08 5.82-15.08 16.5zM246 64.05v31.54c0 10.21 5.3 16.51 15 16.51 2.9 0 5.8-.5 8.3-1l1.4-9.7c-.5 0-2.9.5-5.3.5-5.3 0-7.3-1.94-7.3-6.79V64.05h14.1l-3.4-9.22h-10.7V34.46L246 40.28v14.55h-9.2v9.22zm-63.1-10.67c-5.8 0-11.2 2.42-14.1 6.31v-4.86h-12.6v56.27h12.6V78.12c0-9.21 3.9-14.07 11.2-14.07 7.8 0 11.2 4.37 11.2 15.04v32.01h12.1V78.61c0-16.5-7.3-25.23-20.4-25.23zm-39.8 54.32V54.83H131v56.27h12.1zm84.9 0V54.83h-12.1v56.27H228v-3.4"/></svg>