<svg xmlns="http://www.w3.org/2000/svg" viewBox="0 0 220 220"><path d="M194.25 177.38c0-1.59 0-3.33-.29-5.11-.97-5.54-5.35-8.68-10.8-8.68-7.14 0-11.96 4.58-11.96 11.67 0 7.52 4.2 12.24 12.1 12.24 5.16 0 9.6-2.22 10.66-7.66h-6.03c-.62 2.41-2.22 3.33-4.43 3.33-3.57 0-5.65-2.23-5.65-5.79zm-16.4-4.1c0-3.03 1.79-5.35 5.02-5.35 3.33 0 4.96 2.12 4.96 5.35zm-28.1 2.03c0-3.57 1.5-7.04 5.55-7.04 4 0 5.4 3.32 5.4 6.8 0 3.66-1.54 6.84-5.5 6.84-3.62 0-5.45-3.13-5.45-6.6m20.11-11.05h-8.97v3.48h-.1c-1.54-2.37-3.76-4.05-7.37-4.05-7.28 0-10.32 5.2-10.32 11.86 0 5.74 3.57 10.94 9.64 10.94 3.91 0 5.45-.96 7.57-3.28v2.56c0 2.84-2.02 5.59-4.87 5.59-2.07 0-4-.38-4.19-3.13h-7c.34 5.35 3.86 7.47 10.52 7.47 9.06 0 11.95-5.2 11.95-10.95V168.6h3.14zm-29.95 13.12c0-1.59 0-3.33-.29-5.11-.96-5.54-5.35-8.68-10.8-8.68-7.14 0-11.96 4.58-11.96 11.67 0 7.52 4.2 12.24 12.1 12.24 5.16 0 9.6-2.22 10.66-7.66h-6.03c-.62 2.41-2.21 3.33-4.43 3.33-3.57 0-5.64-2.23-5.64-5.79zm-16.39-4.1c0-3.03 1.78-5.35 5.01-5.35 3.33 0 4.97 2.12 4.97 5.35zm-20.51 13.55h12.68v-4.34h-3.13v-28.71h-9.55v4.34h3.14v24.37h-3.14zm-14.38 0h12.68v-4.34h-3.14v-28.71h-9.54v4.34h3.13v24.37h-3.13zm-12.99-23.24c-7.09 0-12.4 4.44-12.4 11.96 0 7.52 4.97 11.95 12.06 11.95 7.08 0 12.05-4.43 12.05-11.95s-4.63-11.96-11.71-11.96m-5.74 11.96c0-3.57 1.3-7.38 5.4-7.38 4.09 0 5.4 3.81 5.4 7.38s-1.31 7.37-5.4 7.37c-4.1 0-5.4-3.8-5.4-7.37m-9.4-20.25h-6.03v3.66l-.1-.1c-2.13-3.19-5.26-4.25-9.02-4.25-10.08 0-15.05 7.04-15.05 16.69 0 9.15 5.36 16.19 16.45 16.19 6.22 0 13.69-2.75 13.83-11.56h-6.41c-.14 4.14-3.28 6.98-7.18 6.98-6.7 0-9.65-5.01-9.65-11.08 0-6.27 2.08-12.64 9.17-12.64 4.68 0 7.9 2.99 7.95 7.76h6.03zm117.47-7.68c-6.32 0-12.12-1.48-15.44-6.09v4.92h-8.9v-17.73h9.33c0 7.53 3.66 12.1 12.21 12.1 4.58 0 9.52-2.84 9.52-7.43 0-8.04-6.8-9.56-14-11.17-8.26-1.84-16.81-3.76-16.81-15.55 0-9.61 6.7-15.58 17.49-15.58 4.64 0 10.32 1.1 13.82 5.9v-4.73h8.91v16.39h-9.35c0-6.51-3.82-10.76-11.27-10.76-5.74 0-9.17 2.81-9.17 7.52 0 5.77 6.11 7.26 12.59 8.84 8.74 2.12 18.63 4.54 18.63 17.2 0 9.53-7.22 16.17-17.57 16.17m-55.8 0c-22.65 0-24.42-15.2-24.42-19.86V99.49h-5.59v-7.23h24.93v7.23h-7.95v24.93c0 3.23 0 9.26 3.78 12.89 2.16 2.05 5.27 3.09 9.25 3.09 3.51 0 6.27-.94 8.19-2.79 3.57-3.45 3.45-9.17 3.38-12.6V99.49h-7.95v-7.23h24.37v7.23h-6.18v28.27c0 11.7-8.97 19.86-21.79 19.86m-53.13-1.17l-21.17-43.47v36.25h7.04v7.22H30.9v-7.22h7.04V99.49H30.9v-7.23h21.75l21.44 43.33v-36.1h-7.03v-7.23h22.45v7.23h-5.47v46.96zm105.32-61.97c-14.15 0-22.26-8.21-22.26-22.53 0-13.03 8.63-21.45 21.99-21.45 10.53 0 18.12 6.1 19.83 15.92.51 3.15.54 6.29.54 9.1h-30.7v.4c0 7.04 4.09 11.24 10.96 11.24 4.6 0 7.42-2.04 8.61-6.23h10.49c-1.89 8.62-8.95 13.55-19.46 13.55m-.81-36.66c-5.95 0-9.79 4.09-9.79 10.43v.4h19.49v-.4c0-6.63-3.54-10.43-9.7-10.43M94.01 84.47c-6.6 0-14.32-3.44-14.32-13.14 0-13.87 14.49-13.87 24.08-13.87h4.64v-3.65c0-4.52-2.95-6.9-8.53-6.9-5.05 0-7.84 2.3-8.31 6.85H81.08c.94-11.76 11.24-13.28 20.16-13.28 12.87 0 17.66 4.91 17.66 18.11v17.29h3.78v7.33h-14.09v-6.14l-.12.18c-3.47 5.33-7.82 7.22-14.44 7.22m8.22-20.59c-5.61 0-12.05.81-12.05 7.08 0 3.88 2.55 6.18 6.81 6.18 3.28 0 6.08-1.09 8.1-3.15 2.24-2.3 3.41-5.75 3.32-9.72v-.39zm22.92 19.34v-7.33h5.55V31.63h-5.86V24.3h17.08v51.59h5.87v7.33zM51.98 24.95v8.01h-8.01l12.93 19.5 13.03-19.5h-8.02v-8.01H89.8v8.01h-8.02L61.54 62.35v13.08h8.58v7.78H41.83v-7.78h8.57V62.35L30.26 32.96H22v-8.01zm0 0"/></svg>