<svg xmlns="http://www.w3.org/2000/svg" viewBox="0 0 256 256"><path d="M50.39 126.4c-22.65 0-41.01 18.4-41.01 41v35.8c0 22.7 18.36 41.1 41.01 41.1H204.1c22.7 0 41.1-18.4 41.1-41.1v-35.8c0-22.6-18.4-41-41.1-41H50.39zm-18.94 15.8h43.14v11.1H60.11v73.9h-14.8v-73.9H31.45v-11.1zm98.15 0h13.9v27.6c5.4-4.8 9.1-6.7 13.3-6.7 3.1 0 6.6 1.5 8.2 3.6 1.7 2.2 2.2 4.5 2.2 11.4v35.1c0 6.6-.5 8.9-2.2 11.2-1.6 2.1-5.1 3.7-8.5 3.7-4.1 0-7.6-2-13-6.9v6h-13.9v-85zm71.3 20.9c11.6 0 18.7 5.9 18.7 15.8v18.6h-24v13.8c0 4.7 1.4 6.6 5.1 6.6 1.7 0 3.3-.8 4.1-1.9.7-1.2 1-2.6 1-7.2V205h13.8v2.3c.1 1.6.1 2.8.1 3.5 0 11.2-6.8 17.3-19.4 17.3-11.9 0-18.6-6.4-18.6-17.9v-29.4c0-12 6.4-17.7 19.2-17.7zm-123.76.7h13.85v49.4c0 3.1 1.1 4.7 3.66 4.7 1.8 0 3.3-.7 6.15-2.6v-51.5h13.9v63.4H102l-1.2-5.5c-5.68 4.7-9.02 6.4-13 6.4-3.34 0-6.84-1.6-8.44-3.6-1.74-2.2-2.22-4.5-2.22-11v-49.7zm72.56 9.5c-1.7 0-3.3.6-6.2 2.6v39.4c2.9 1.9 4.5 2.6 6.2 2.6 2.6 0 3.7-1.6 3.7-4.7v-35.1c0-3.4-1.1-4.8-3.7-4.8zm51 0c-3.3 0-5.1 1.6-5.1 4.6v10.7h10.2v-10.7c0-3-2-4.6-5.1-4.6zM188 113.8l-1.2-6c-6.3 5.2-10 7-14.4 7-3.6 0-7.5-1.7-9.3-3.9-1.9-2.4-2.4-5-2.4-12.12V44.24H176v54.19c0 3.47 1.1 5.17 4 5.17 1.8 0 3.6-.7 6.8-2.9V44.24h15.3v69.56H188zm-64.3-70.48c13.9 0 20.9 6.58 20.9 19.64V95.2c0 13.1-7 19.6-20.9 19.6-13.7 0-20.8-6.5-20.8-19.6V62.96c0-13.06 7.1-19.64 20.8-19.64zm0 11.2c-3.7 0-5.5 2.32-5.5 6.48v36.16c0 4.04 2.1 6.44 5.5 6.44 3.6 0 5.7-2.4 5.7-6.44V61c0-4.16-2.1-6.48-5.7-6.48zM49.19 20.44h17.68l2.31 9.01 1.85 6.82 1.62 6.58 1.5 6.82 1.27 5.78h.69l1.27-5.78 1.39-6.82 1.73-6.58 1.74-6.82 2.42-9.01h17.24L83.62 74.98v38.82H67.33V74.98L49.19 20.44z"/></svg>