<svg xmlns="http://www.w3.org/2000/svg" viewBox="0 0 315 115.1"><path d="M100.8 67.2v-7h12.5v-1.5h1.5v34.4H22V58.7h1.5v1.7h3.4l4 6.8h-7.4v1.7H32l3.8 6.8H23.5v1.9h13.6v7H23.5v1.7h13.6V92l12.3-.2v-5.7h15.9v5.7h12.5v-5.7h10.8V92l21.4-.2v-5.7h3.4v-1.7h-12.5v-6.8l12.5-.2v-1.5h-12.5v-7h12.5v-1.7h-12.6zM49.3 77.6h15.9v7H49.3v-7zm28.4 0h10.8v7H77.7v-7zm0-8.7h10.8v7H77.7v-7zm-12.5 7H50.4l4-7h10.8v7zm-6-8.7h-4l4-6.8v6.8zm29.3 0h-4.7v-6.8h4.7v6.8zm-45.6 0l-4-6.8h8.5l-4.5 6.8zm61.3-8.7h-9.1V22h9.1zm-10.6.2h-8.7V22h8.7zm-10.4 0h-8.9V22.3h8.9zm-10.6 0h-8.7V22.3h8.7zm-10.4 0h-8.7V22.3h8.7zm-10.4 0h-8.9V22.3h8.9zm-10.3 0h-8.9V22.3h8.9zm-10.6 0H22V22.3h8.9zM105.7 22h9.1v36.7h-9.1zm187.1 58.8l-2.8 1.1c-.4-1.3-1.1-1.9-2.2-1.9-.5 0-.9.1-1.2.4-.3.3-.4.6-.4 1s.2.8.5 1c.3.3 1.1.6 2.1 1s1.8.7 2.3 1.1c.6.4 1 .9 1.4 1.5.3.6.5 1.3.5 2.2 0 1.4-.5 2.6-1.5 3.5-1 .9-2.3 1.4-4 1.4-2.8 0-4.6-1.4-5.3-4.2l3-.8c.4 1.5 1.2 2.3 2.5 2.3.6 0 1.1-.2 1.4-.5.4-.3.5-.7.5-1.2 0-.4-.1-.7-.4-1-.3-.3-.8-.6-1.8-.9-1.2-.4-2.1-.8-2.6-1.1-.6-.3-1.1-.8-1.4-1.5-.4-.6-.6-1.4-.6-2.2 0-1.4.4-2.5 1.3-3.4.9-.9 2.1-1.3 3.5-1.3 2.9-.1 4.5 1.1 5.2 3.5zm-22.5-3.4h3.8l4 9.5v-9.5h2.6v15.4h-3l-4.8-11.1v11.1h-2.6V77.4zm-2.2 7.7c0 5.3-1.9 7.9-5.6 7.9-1.8 0-3.2-.7-4.2-2-.9-1.3-1.4-3.3-1.4-5.9 0-5.3 1.9-7.9 5.6-7.9 1.8 0 3.2.7 4.2 2 .9 1.3 1.4 3.3 1.4 5.9zm-3.6 0c0-2.1-.2-3.5-.5-4.1-.3-.7-.8-1-1.5-1s-1.2.3-1.5 1c-.3.7-.5 2.1-.5 4.1 0 2 .2 3.4.5 4.1.3.7.8 1.1 1.5 1.1s1.2-.3 1.5-1c.3-.7.5-2.1.5-4.2zm-13.3-7.7h3.4v15.4h-3.4V77.4zm-10.8 0h9.6v2.9h-3.1v12.5h-3.4V80.3h-3.1v-2.9zm-6.9 0h3.4l4.4 15.4h-3.5l-.8-3.2h-4.3l-.8 3.2h-3l4.6-15.4zm2.9 9.6l-1.5-6.3-1.5 6.3h3zm-10.9.2l3.1.2c-.1 1.7-.6 3-1.6 4.1-.9 1-2.2 1.6-3.8 1.6-1.9 0-3.3-.7-4.3-2.1-1-1.4-1.5-3.3-1.5-5.8s.5-4.4 1.5-5.8c1-1.4 2.4-2.1 4.4-2.1 3.2 0 5 2 5.2 5.9l-3.1.2c-.1-2.3-.8-3.4-2.1-3.4-.7 0-1.3.4-1.7 1.1-.4.7-.6 2.2-.6 4.3 0 1.9.2 3.2.6 3.9.4.7 1 1.1 1.7 1.1 1.2-.1 2-1.2 2.2-3.2zm-13.8-9.8h3.4v15.4h-3.4V77.4zm-13.1 0h3.8l4 9.5v-9.5h2.6v15.4h-3l-4.7-11.1v11.1h-2.6V77.4zm-13.2 0h3.4v8.8c0 1.2.1 2.1.2 2.6s.3.9.7 1.1c.4.3.8.4 1.3.4.6 0 1-.1 1.3-.4.3-.3.5-.6.6-1.1.1-.5.1-1.3.1-2.6v-8.8h2.8V86c0 1.7-.1 3-.3 3.9-.2.8-.7 1.6-1.5 2.2-.8.6-1.9.9-3.4.9-1.3 0-2.4-.2-3.2-.7-.8-.4-1.3-1.1-1.6-1.9-.3-.8-.5-2.2-.5-4.3v-8.7zm-17.3 0h5l2.2 9.5 2.4-9.5h4.8v15.4h-3.2V79.9l-3.1 12.9h-2.5l-2.9-12.9v12.9h-2.7V77.4zm-17.3 0h5l2.2 9.5 2.4-9.5h4.8v15.4H162V79.9l-3.1 12.9h-2.5l-2.9-12.9v12.9h-2.7V77.4zm-2.3 7.7c0 5.3-1.9 7.9-5.6 7.9-1.8 0-3.2-.7-4.2-2-.9-1.3-1.4-3.3-1.4-5.9 0-5.3 1.9-7.9 5.6-7.9 1.8 0 3.2.7 4.2 2 .9 1.3 1.4 3.3 1.4 5.9zm-3.6 0c0-2.1-.2-3.5-.5-4.1-.3-.7-.8-1-1.5-1s-1.2.3-1.5 1c-.3.7-.5 2.1-.5 4.1 0 2 .2 3.4.5 4.1.3.7.8 1.1 1.5 1.1s1.2-.3 1.5-1c.4-.7.5-2.1.5-4.2zm-12.1 2.1l3.1.2c-.1 1.7-.6 3-1.6 4.1-.9 1-2.2 1.6-3.8 1.6-1.9 0-3.3-.7-4.3-2.1-1-1.4-1.5-3.3-1.5-5.8s.5-4.4 1.5-5.8c1-1.4 2.4-2.1 4.4-2.1 3.2 0 5 2 5.2 5.9l-3.1.2c-.1-2.3-.8-3.4-2.1-3.4-.7 0-1.3.4-1.7 1.1-.4.7-.6 2.2-.6 4.3 0 1.9.2 3.2.6 3.9.4.7 1 1.1 1.7 1.1 1.2-.1 2-1.2 2.2-3.2z"/></svg>