<svg  xmlns="http://www.w3.org/2000/svg" viewBox="0 0 141 60" >
<path d="M54.796,15.673H41.993v22.043H26.629l14.886-22.043H18.917
		l-4.169,6.222h13.684L13.469,43.939h30.5l5.374-7.924v-14.12h4.107c4.722,0,8.061,2.85,8.061,7.911c0,5.51-3.75,7.91-8.136,7.91
		h-3.248v6.223h4.67c7.839,0,14.36-6.184,14.36-14.133C69.157,21.859,62.671,15.673,54.796,15.673z M86.335,27.13
		c0.043,1.998,0.252,5.703,0.461,7.952c-0.585-2.08-1.707-5.12-3.166-8.203l-5.537-11.574h-6.453v28.937h5.618l-0.167-12.367
		c-0.042-2.414-0.082-5.828-0.292-8.2c0.543,1.79,2.293,5.87,3.915,9.492l4.955,11.075h6.08V15.306h-5.54L86.335,27.13z
		 M104.039,22.468c-2.829,0-4.955,0.916-6.701,2.873c-1.874,2.082-2.666,4.621-2.666,8.451c0,6.702,3.958,11.033,10.073,11.033
		c2.999,0,5.579-0.958,8.035-2.955l-2.166-3.331c-1.703,1.414-3.496,2.122-5.409,2.122c-2.875,0-4.497-1.873-4.497-5.165v-0.165
		h12.323v-1.29c0-4.454-0.876-7.329-2.833-9.326C108.827,23.3,106.495,22.468,104.039,22.468z M107.243,31.252h-6.452v-0.083
		c0-2.957,1.21-4.621,3.329-4.621c1.126,0,1.917,0.415,2.459,1.249c0.501,0.79,0.664,1.622,0.664,3.205V31.252z M127.958,40.452
		c-0.998,0.293-1.498,0.417-1.998,0.417c-1.913,0-2.414-0.709-2.414-3.415v-10.7h3.582l1.412-3.831h-4.994
		c0-2.164,0.125-4.496,0.33-6.453l-5.66,1.417c-0.207,1.583-0.207,2.955-0.207,5.037h-2.123v3.831h2.123V38.33
		c0,1.957,0.04,2.371,0.373,3.29c0.667,1.871,2.918,3.12,5.746,3.12c1.459,0,2.915-0.291,4.54-0.956L127.958,40.452z"/>
</svg>
