<svg xmlns="http://www.w3.org/2000/svg" viewBox="0 0 1023 507.55"><path d="M760.88 495.55c-17.75 0-34.5-13.79-34.5-34.43V46.475c0-19.888 14.5-34.425 34.5-34.425h217c18.63 0 33.12 15.187 33.12 33.95 0 16.537-12.49 33.412-33.12 33.412H832.76c-16.5 0-30.63 14.8-30.63 31.428v79.33c0 15.09 15.38 29.94 30.63 29.94h121.25c16 0 32.12 13.97 32.12 33.49 0 15.58-12.37 33.88-33.62 33.88H834.13c-18.12 0-32 15.67-32 31.43v80.84c0 14.41 14.5 28.44 29.13 28.44h146.62c17.63 0 33.12 13.69 33.12 33.61 0 19.85-15.37 33.75-33.12 33.75zm-221.37-.13c-23.25 0-37-21.36-37-36.07V111.44c0-17.103-14.88-32.078-30.75-32.078h-59.75c-18.63 0-34.38-14.124-34.38-33.412 0-19.513 15.75-33.95 34.38-33.95h254.87c19.63 0 35.63 14.475 35.63 33.475 0 17.4-13.87 33.887-34.5 33.887h-59.88c-15 0-30.74 15.225-30.74 31.618v348.65c0 16.73-14.38 35.85-37.88 35.85zm-187.38-34.35v1.49c0 19.06-16.25 32.94-32.87 32.94H45.325C25.575 495.5 12 479.45 12 462.46c0-12.65 4.675-17.35 14.387-32.76L224.44 118.69c3.9-6.16 6.1-11.11 6.1-16.5 0-12.228-8.69-22.828-23.56-22.828H61.788c-23-.125-33.976-19.012-33.976-33.412 0-19.9 16.175-33.95 33.976-33.95H317.76c20.25 0 35.12 15.375 35.12 32.762 0 10.65-3.87 17.563-9.62 25.825L139.93 389.75c-3.22 4.64-5.71 8.12-5.71 15.69 0 10.09 6.41 22.75 23.38 22.75h161.66c20.37 0 32.87 17.28 32.87 32.94z"/></svg>