<svg xmlns="http://www.w3.org/2000/svg" xmlns:xlink="http://www.w3.org/1999/xlink" viewBox="0 0 640 300" height="300" width="640"><defs><pattern patternTransform="rotate(45 -223.343 203.063) scale(.91625)" id="c" xlink:href="#a"/><pattern patternTransform="rotate(45 211.994 -374.19) scale(.91625)" id="a" xlink:href="#b"/><pattern patternUnits="userSpaceOnUse" width="9" height="1" patternTransform="scale(10)" id="b"><path d="M0-.5h1v2H0z"/></pattern></defs><g word-spacing="0" stroke-width="2.991"><text style="line-height:100%;-inkscape-font-specification:'Overpass Mono Light'" x="519.557" y="183.215" font-weight="300" font-size="11.966" font-family="Overpass Mono" letter-spacing=".299"><tspan x="519.707" y="183.215" style="line-height:100%;-inkscape-font-specification:'Overpass Mono Semi-Bold';text-align:center" font-weight="600" text-anchor="middle">COMMIT</tspan></text><text y="183.215" x="375.081" style="line-height:100%;-inkscape-font-specification:'Overpass Mono Light'" font-weight="300" font-size="11.966" font-family="Overpass Mono" letter-spacing=".299"><tspan style="line-height:100%;-inkscape-font-specification:'Overpass Mono Semi-Bold'" y="183.215" x="375.081" font-weight="600">TEST</tspan></text><text style="line-height:100%;-inkscape-font-specification:'Overpass Mono Light';text-align:center" x="126.826" y="183.215" font-weight="300" font-size="11.966" font-family="Overpass Mono" letter-spacing=".299" text-anchor="middle"><tspan x="126.975" y="183.215" style="line-height:100%;-inkscape-font-specification:'Overpass Mono Semi-Bold';text-align:center" font-weight="600">CLEAN</tspan></text><text y="30.262" x="326.492" style="line-height:80.0000011921%" font-weight="400" font-size="15.944" font-family="sans-serif" letter-spacing="-.329"><tspan style="-inkscape-font-specification:'Overpass Mono Light';text-align:center" y="30.262" x="326.327" font-weight="300" font-size="11.966" font-family="Overpass Mono" text-anchor="middle"><tspan style="-inkscape-font-specification:'Overpass Mono Semi-Bold';text-align:center" font-weight="600" font-size="15.944">OSAM.APP </tspan>*ADMIN*</tspan></text><text style="line-height:100%;-inkscape-font-specification:'Overpass Mono Light'" x="323.402" y="110.007" font-weight="300" font-size="11.966" font-family="Overpass Mono" letter-spacing=".299"><tspan x="323.551" y="110.007" style="line-height:100%;-inkscape-font-specification:'Overpass Mono Semi-Bold';text-align:center" font-weight="600" text-anchor="middle">UPLOAD SVG FILE</tspan></text><text style="line-height:100%;-inkscape-font-specification:'Overpass Mono Light'" x="324.181" y="258.387" font-weight="300" font-size="11.966" font-family="Overpass Mono" letter-spacing=".299"><tspan x="324.33" y="258.387" style="line-height:100%;-inkscape-font-specification:'Overpass Mono Semi-Bold';text-align:center" font-weight="600" text-anchor="middle">SVG LIBRARY</tspan></text><text y="183.215" x="258.635" style="line-height:100%;-inkscape-font-specification:'Overpass Mono Light'" font-weight="300" font-size="11.966" font-family="Overpass Mono" letter-spacing=".299"><tspan style="line-height:100%;-inkscape-font-specification:'Overpass Mono Semi-Bold';text-align:center" y="183.215" x="258.785" font-weight="600" text-anchor="middle">TAG</tspan></text></g><path d="M62.175 204.443h524.32m-524.32-74.5h524.32M62.175 55.915h524.32v222.739H62.175zm390.339 97l10.868 10.87-10.868 10.868m-130.815-21.737l10.868 10.868-10.868 10.869m-132.583-21.737l10.869 10.868-10.869 10.869" fill="none" stroke="#000" stroke-width="1.811"/><g opacity=".35"><path d="M320.995 87.036v-6.68h-4.452l7.792-7.791 7.792 7.792h-4.453v6.679h-6.679m-4.452 4.452v-2.226h15.584v2.226h-15.584zM136.963 158.52v1.026a5.12 5.12 0 0 1-2.72 4.527l.667 2.66h-2.053l-.513-2.054H123.105l-.513 2.053h-2.053l.667-2.659a5.12 5.12 0 0 1-2.72-4.527v-1.026h-1.027v-2.053h18.478v-7.186a1.027 1.027 0 0 0-1.027-1.027c-.513 0-.903.35-1.026.811a2.972 2.972 0 0 1 1.026 2.269h-6.159a3.08 3.08 0 0 1 3.08-3.08h.174a3.083 3.083 0 0 1 2.905-2.053 3.08 3.08 0 0 1 3.08 3.08v9.239h-1.027m-2.053 0H120.54v1.026a3.08 3.08 0 0 0 3.08 3.08h8.212a3.08 3.08 0 0 0 3.08-3.08v-1.026zM252.638 152.57a1.5 1.5 0 0 1-1.5-1.5 1.5 1.5 0 0 1 1.5-1.5 1.5 1.5 0 0 1 1.5 1.5 1.5 1.5 0 0 1-1.5 1.5m15.91 4.58l-9-9c-.36-.36-.86-.58-1.41-.58h-7c-1.11 0-2 .89-2 2v7c0 .55.22 1.05.59 1.41l8.99 9c.37.36.87.59 1.42.59.55 0 1.05-.23 1.41-.59l7-7c.37-.36.59-.86.59-1.41 0-.56-.23-1.06-.59-1.42zM383.996 146.266v2.154h1.077v15.077a4.308 4.308 0 0 0 4.308 4.308 4.308 4.308 0 0 0 4.308-4.308V148.42h1.077v-2.154h-10.77m4.308 15.077c-.646 0-1.077-.43-1.077-1.077 0-.646.431-1.077 1.077-1.077.646 0 1.077.43 1.077 1.077 0 .646-.43 1.077-1.077 1.077m2.154-4.308c-.646 0-1.077-.43-1.077-1.077 0-.646.43-1.077 1.077-1.077.646 0 1.077.431 1.077 1.077 0 .646-.43 1.077-1.077 1.077m1.077-5.385h-4.308v-3.23h4.308v3.23zM526.674 154.833h-4v4h-2v-4h-4v-2h4v-4h2v4h4m1-7h-12a2 2 0 0 0-2 2v12a2 2 0 0 0 2 2h12a2 2 0 0 0 2-2v-12a2 2 0 0 0-2-2m-16 4h-2v14a2 2 0 0 0 2 2h14v-2h-14v-14zM324.335 218.053c4.55 0 8.337 3.237 9.187 7.55 3.25.225 5.813 2.9 5.813 6.2a6.25 6.25 0 0 1-6.25 6.25h-16.25a7.5 7.5 0 0 1-7.5-7.5 7.493 7.493 0 0 1 6.687-7.45 9.37 9.37 0 0 1 8.313-5.05m-5.625 7.112c-1.8 2.263-1.625 5.463.4 7.488 1.05 1.025 2.487 1.65 3.975 1.65v2.325l3.537-3.525-3.537-3.538v2.238a3.132 3.132 0 0 1-2.213-.913 3.122 3.122 0 0 1-.387-3.937l-1.775-1.788m2.087-.9l1.813 1.813 1.725 1.712v-2.237c.825 0 1.625.325 2.212.912a3.122 3.122 0 0 1 .388 3.938l1.775 1.787c1.8-2.262 1.625-5.462-.4-7.487-1.05-1.025-2.488-1.65-3.975-1.65v-2.325l-3.538 3.537z"/></g><path opacity=".098" fill="url(#c)" fill-rule="evenodd" d="M62.764 205.664h523.36v72.559H62.764z"/><path d="M31.335 58.943v210" fill="none" stroke="#000" stroke-width="1.811"/><path d="M31.126 273l-8.678-15.03h17.355z"/></svg>