
<svg xmlns="http://www.w3.org/2000/svg" xmlns:xlink="http://www.w3.org/1999/xlink" viewBox="0 0 10 10" height="512" width="512">

<defs><linearGradient id="c"><stop offset="0" stop-color="#013f51"/><stop offset="1" stop-color="#053243"/></linearGradient><linearGradient id="a"><stop offset="0" stop-color="#004153"/><stop offset="1" stop-color="#007a87" stop-opacity=".655"/></linearGradient><linearGradient id="b"><stop offset="0" stop-color="#003341" stop-opacity=".584"/><stop offset="1" stop-color="#007a87" stop-opacity=".347"/></linearGradient><filter height="1.07" y="-.035" width="1.07" x="-.035" id="d" color-interpolation-filters="sRGB"><feGaussianBlur stdDeviation=".135"/></filter><linearGradient gradientUnits="userSpaceOnUse" y2="1.506" x2="20.837" y1="-4.105" x1="15.226" id="f" xlink:href="#a"/><linearGradient y2="1.198" x2="20.566" y1=".031" x1="18.544" gradientUnits="userSpaceOnUse" id="g" xlink:href="#b"/><linearGradient gradientUnits="userSpaceOnUse" y2="4.179" x2="17.514" y1="-5.738" x1="17.514" id="e" xlink:href="#c"/></defs>

<g transform="matrix(.8983 0 0 .8983 -10.733 5.513)"><circle transform="matrix(.99117 0 0 .99117 .155 -.138)" cx="17.514" cy="-.438" r="4.67" opacity=".318" filter="url(#d)"/><circle r="4.67" cy="-.779" cx="17.514" fill="url(#e)"/><path d="M18.56-3.81c1.367 0 1.367 2.05 0 2.05s-1.367-2.05 0-2.05z" fill="#072d3e" fill-rule="evenodd" stroke="#072d3e" stroke-width=".09"/><path d="M19.06-3.674c-.512-.3-.994-.003-1.018.321-.024.325.164.568.512.568.479 0 .64.363.54.683-.137.437-.793.417-1.093.205M16.907.243l-.752-1.32-1.538 2.564h1.538m2.29-1.538l-.752-1.025-1.538 2.563h4.443L19.06-1.076 18.035.632m-1.88-4.443c1.367 0 1.367 2.051 0 2.051s-1.367-2.05 0-2.05z" fill="url(#f)" stroke="#fff" stroke-width=".15"/><path d="M17.532 1.487h3.066L19.06-1.076 18.035.632" fill="url(#g)" fill-rule="evenodd" stroke="#fff" stroke-width=".15"/></g><path opacity=".318" fill="none" d="M.386.385h9.229v9.23H.385z"/>
</svg>