<svg xmlns="http://www.w3.org/2000/svg" xmlns:xlink="http://www.w3.org/1999/xlink" viewBox="0 0 640 300" height="300" width="640"><defs><pattern patternTransform="rotate(45 -41.267 127.644) scale(.91625)" id="c" xlink:href="#a"/><pattern patternTransform="rotate(45 211.994 -374.19) scale(.91625)" id="a" xlink:href="#b"/><pattern patternUnits="userSpaceOnUse" width="9" height="1" patternTransform="scale(10)" id="b"><path d="M0-.5h1v2H0z"/></pattern></defs><text style="line-height:100%;-inkscape-font-specification:'Overpass Mono Light'" x="282.196" y="108.67" font-weight="300" font-size="11.966" font-family="Overpass Mono" letter-spacing=".299" word-spacing="0" stroke-width="2.991"><tspan x="282.196" y="108.67" style="line-height:100%;-inkscape-font-specification:'Overpass Mono Light'"><tspan style="-inkscape-font-specification:'Overpass Mono Semi-Bold'" font-weight="600">SVG LIBRARY</tspan></tspan></text><g opacity=".35"><path d="M259.281 144.808c-5.522 0-10 4.477-10 10 0 5.522 4.478 10 10 10 .922 0 1.667-.745 1.667-1.667a1.68 1.68 0 0 0-.434-1.122 1.67 1.67 0 0 1-.422-1.1c0-.923.745-1.667 1.667-1.667h1.967a5.558 5.558 0 0 0 5.555-5.556c0-4.91-4.478-8.888-10-8.888zm-6.111 10a1.664 1.664 0 0 1-1.667-1.667c0-.922.745-1.667 1.667-1.667s1.667.745 1.667 1.667-.745 1.667-1.667 1.667zm3.333-4.445a1.664 1.664 0 0 1-1.666-1.667c0-.922.744-1.666 1.666-1.666.923 0 1.667.744 1.667 1.666 0 .923-.744 1.667-1.667 1.667zm5.556 0a1.664 1.664 0 0 1-1.667-1.667c0-.922.745-1.666 1.667-1.666s1.667.744 1.667 1.666c0 .923-.745 1.667-1.667 1.667zm3.333 4.445a1.664 1.664 0 0 1-1.666-1.667c0-.922.744-1.667 1.666-1.667.922 0 1.667.745 1.667 1.667s-.745 1.667-1.667 1.667zM380.45 160.641v4.167h4.165l12.288-12.288-4.166-4.166-12.288 12.287zm19.674-11.342a1.106 1.106 0 0 0 0-1.567l-2.6-2.6a1.106 1.106 0 0 0-1.566 0l-2.033 2.034 4.166 4.166 2.033-2.033zM132.053 157.386h-.903l-.32-.309a7.4 7.4 0 0 0 1.795-4.837 7.433 7.433 0 1 0-14.866 0 7.433 7.433 0 0 0 7.433 7.433 7.4 7.4 0 0 0 4.837-1.795l.309.32v.903l5.717 5.707 1.704-1.704-5.706-5.718zm-6.861 0a5.139 5.139 0 0 1-5.146-5.146 5.139 5.139 0 0 1 5.146-5.145 5.139 5.139 0 0 1 5.146 5.145 5.139 5.139 0 0 1-5.146 5.146zM515.203 144.808v2h1v14a4 4 0 0 0 4 4 4 4 0 0 0 4-4v-14h1v-2h-10m4 14c-.6 0-1-.4-1-1s.4-1 1-1 1 .4 1 1-.4 1-1 1m2-4c-.6 0-1-.4-1-1s.4-1 1-1 1 .4 1 1-.4 1-1 1m1-5h-4v-3h4v3zM324.335 71.084c4.55 0 8.337 3.237 9.187 7.55 3.25.225 5.813 2.9 5.813 6.2a6.25 6.25 0 0 1-6.25 6.25h-16.25a7.5 7.5 0 0 1-7.5-7.5 7.493 7.493 0 0 1 6.687-7.45 9.37 9.37 0 0 1 8.313-5.05m-5.625 7.112c-1.8 2.263-1.625 5.463.4 7.488 1.05 1.025 2.487 1.65 3.975 1.65v2.325l3.537-3.525-3.537-3.538v2.238a3.132 3.132 0 0 1-2.213-.913 3.122 3.122 0 0 1-.387-3.937l-1.775-1.788m2.087-.9l1.813 1.813 1.725 1.712v-2.237c.825 0 1.625.325 2.212.912a3.122 3.122 0 0 1 .388 3.938l1.775 1.787c1.8-2.262 1.625-5.462-.4-7.487-1.05-1.025-2.488-1.65-3.975-1.65v-2.325l-3.538 3.537zM203.482 226.39a8.972 8.972 0 0 0-8.804-7.235 8.979 8.979 0 0 0-7.966 4.84 7.18 7.18 0 0 0-6.409 7.139 7.193 7.193 0 0 0 7.188 7.187h15.572a5.992 5.992 0 0 0 5.99-5.99c0-3.162-2.456-5.725-5.57-5.94zm-2.815 3.546l-5.99 5.99-5.989-5.99h3.594v-4.792h4.792v4.792h3.593zM468.097 226.39a8.972 8.972 0 0 0-8.804-7.235 8.979 8.979 0 0 0-7.966 4.84 7.18 7.18 0 0 0-6.409 7.139 7.193 7.193 0 0 0 7.187 7.187h15.573a5.992 5.992 0 0 0 5.99-5.99c0-3.162-2.456-5.725-5.57-5.94zm-2.815 3.546l-5.99 5.99-5.989-5.99h3.594v-4.792h4.792v4.792h3.593z"/></g><g word-spacing="0" stroke-width="2.991"><text y="181.878" x="505.027" style="line-height:100%;-inkscape-font-specification:'Overpass Mono Light'" font-weight="300" font-size="11.966" font-family="Overpass Mono" letter-spacing=".299"><tspan style="line-height:100%;-inkscape-font-specification:'Overpass Mono Semi-Bold'" y="181.878" x="505.027" font-weight="600">TEST</tspan></text><text style="line-height:100%;-inkscape-font-specification:'Overpass Mono Light'" x="375.081" y="181.878" font-weight="300" font-size="11.966" font-family="Overpass Mono" letter-spacing=".299"><tspan x="375.081" y="181.878" style="line-height:100%;-inkscape-font-specification:'Overpass Mono Semi-Bold'" font-weight="600">EDIT</tspan></text><text y="181.878" x="104.97" style="line-height:100%;-inkscape-font-specification:'Overpass Mono Light'" font-weight="300" font-size="11.966" font-family="Overpass Mono" letter-spacing=".299"><tspan style="line-height:100%;-inkscape-font-specification:'Overpass Mono Semi-Bold'" y="181.878" x="104.97" font-weight="600">SEARCH</tspan></text><text style="line-height:80.0000011921%" x="326.492" y="28.925" font-weight="400" font-size="15.944" font-family="sans-serif" letter-spacing="-.329"><tspan x="326.327" y="28.925" style="-inkscape-font-specification:'Overpass Mono Light';text-align:center" font-weight="300" font-size="11.966" font-family="Overpass Mono" text-anchor="middle"><tspan style="-inkscape-font-specification:'Overpass Mono Semi-Bold';text-align:center" font-weight="600" font-size="15.944">OSAM.APP </tspan>*USER*</tspan></text><text style="line-height:100%;-inkscape-font-specification:'Overpass Mono Light'" x="137.07" y="253.868" font-weight="300" font-size="11.966" font-family="Overpass Mono" letter-spacing=".299"><tspan x="137.07" y="253.868" style="line-height:100%;-inkscape-font-specification:'Overpass Mono Semi-Bold'" font-weight="600">CUSTOM SVG FILE</tspan></text><text y="257.05" x="398.392" style="line-height:100%;-inkscape-font-specification:'Overpass Mono Light'" font-weight="300" font-size="11.966" font-family="Overpass Mono" letter-spacing=".299"><tspan style="line-height:100%;-inkscape-font-specification:'Overpass Mono Semi-Bold'" y="257.05" x="398.392" font-weight="600">CUSTOM PNG FILE</tspan></text><text style="line-height:100%;-inkscape-font-specification:'Overpass Mono Light'" x="240.424" y="181.878" font-weight="300" font-size="11.966" font-family="Overpass Mono" letter-spacing=".299"><tspan x="240.424" y="181.878" style="line-height:100%;-inkscape-font-specification:'Overpass Mono Semi-Bold'" font-weight="600">THEME</tspan></text></g><text style="line-height:100%;-inkscape-font-specification:'Overpass Mono Light';text-align:center" x="324.456" y="243.804" font-weight="300" font-size="11.966" font-family="Overpass Mono" letter-spacing=".299" word-spacing="0" text-anchor="middle" fill="#aaa" stroke-width="2.991"><tspan x="324.606" y="243.804" style="line-height:100%;-inkscape-font-specification:'Overpass Mono Semi-Bold';text-align:center" font-weight="600">OR</tspan></text><path d="M324.335 276.786v-22.615m0-28.756v-22.969m-262.16.66h524.32M62.175 54.578h524.32v222.739H62.175zm0 74.028h524.32m-133.981 22.973l10.868 10.868-10.868 10.869m-130.815-21.737l10.868 10.868-10.868 10.869m-132.583-21.737l10.869 10.868-10.869 10.869" fill="none" stroke="#000" stroke-width="1.811"/><path opacity=".098" fill="url(#c)" fill-rule="evenodd" d="M62.764 54.826h523.36v72.559H62.764z"/><path d="M31.335 58.943v210" fill="none" stroke="#000" stroke-width="1.811"/><path d="M31.126 273l-8.678-15.03h17.355z"/></svg>